ISO-10303-21;
HEADER;
/* Generated by software containing ST-Developer
 * from STEP Tools, Inc. (www.steptools.com) 
 */

FILE_DESCRIPTION(
/* description */ (''),
/* implementation_level */ '2;1');

FILE_NAME(
/* name */ 'Hositrad_CF16-B_RuptureDisc v18.step',
/* time_stamp */ '2024-06-17T11:20:59+02:00',
/* author */ (''),
/* organization */ (''),
/* preprocessor_version */ 'ST-DEVELOPER v20',
/* originating_system */ 'Autodesk Translation Framework v13.14.0.145',

/* authorisation */ '');

FILE_SCHEMA (('AUTOMOTIVE_DESIGN { 1 0 10303 214 3 1 1 }'));
ENDSEC;

DATA;
#10=MECHANICAL_DESIGN_GEOMETRIC_PRESENTATION_REPRESENTATION('',(#54,#55),
#989);
#11=ITEM_DEFINED_TRANSFORMATION($,$,#562,#640);
#12=ITEM_DEFINED_TRANSFORMATION($,$,#568,#641);
#13=(
REPRESENTATION_RELATIONSHIP($,$,#1003,#1002)
REPRESENTATION_RELATIONSHIP_WITH_TRANSFORMATION(#11)
SHAPE_REPRESENTATION_RELATIONSHIP()
);
#14=(
REPRESENTATION_RELATIONSHIP($,$,#1004,#1002)
REPRESENTATION_RELATIONSHIP_WITH_TRANSFORMATION(#12)
SHAPE_REPRESENTATION_RELATIONSHIP()
);
#15=CONTEXT_DEPENDENT_SHAPE_REPRESENTATION(#13,#1000);
#16=CONTEXT_DEPENDENT_SHAPE_REPRESENTATION(#14,#1001);
#17=NEXT_ASSEMBLY_USAGE_OCCURRENCE('Rupture Disc:1','Rupture Disc:1',
'Rupture Disc:1',#1006,#1007,'Rupture Disc:1');
#18=NEXT_ASSEMBLY_USAGE_OCCURRENCE('Component2:1','Component2:1',
'Component2:1',#1006,#1008,'Component2:1');
#19=CONICAL_SURFACE('',#582,8.93161785944027,0.349065850398873);
#20=CONICAL_SURFACE('',#585,9.15,1.22173047639602);
#21=CONICAL_SURFACE('',#598,16.6,0.785398163397457);
#22=CONICAL_SURFACE('',#601,2.59999999999998,0.785398163397451);
#23=CONICAL_SURFACE('',#604,2.59999999999998,0.785398163397446);
#24=CONICAL_SURFACE('',#607,2.59999999999997,0.785398163397453);
#25=CONICAL_SURFACE('',#610,2.59999999999998,0.785398163397452);
#26=CONICAL_SURFACE('',#613,2.59999999999998,0.785398163397446);
#27=CONICAL_SURFACE('',#616,2.59999999999998,0.785398163397449);
#28=CONICAL_SURFACE('',#633,17.,0.785398163397448);
#29=CONICAL_SURFACE('',#634,2.2,0.785398163397449);
#30=CONICAL_SURFACE('',#635,2.2,0.785398163397455);
#31=CONICAL_SURFACE('',#636,2.2,0.785398163397452);
#32=CONICAL_SURFACE('',#637,2.2,0.785398163397453);
#33=CONICAL_SURFACE('',#638,2.2,0.785398163397455);
#34=CONICAL_SURFACE('',#639,2.2,0.785398163397449);
#35=FACE_BOUND('',#99,.T.);
#36=FACE_BOUND('',#100,.T.);
#37=FACE_BOUND('',#101,.T.);
#38=FACE_BOUND('',#102,.T.);
#39=FACE_BOUND('',#103,.T.);
#40=FACE_BOUND('',#104,.T.);
#41=FACE_BOUND('',#105,.T.);
#42=FACE_BOUND('',#107,.T.);
#43=FACE_BOUND('',#112,.T.);
#44=FACE_BOUND('',#113,.T.);
#45=FACE_BOUND('',#114,.T.);
#46=FACE_BOUND('',#115,.T.);
#47=FACE_BOUND('',#116,.T.);
#48=FACE_BOUND('',#117,.T.);
#49=FACE_BOUND('',#118,.T.);
#50=SHAPE_REPRESENTATION_RELATIONSHIP('SRR','None',#1003,#52);
#51=SHAPE_REPRESENTATION_RELATIONSHIP('SRR','None',#1004,#53);
#52=ADVANCED_BREP_SHAPE_REPRESENTATION('',(#56),#987);
#53=ADVANCED_BREP_SHAPE_REPRESENTATION('',(#57),#988);
#54=STYLED_ITEM('',(#1021),#56);
#55=STYLED_ITEM('',(#1022),#57);
#56=MANIFOLD_SOLID_BREP('Body1',#536);
#57=MANIFOLD_SOLID_BREP('Body1',#537);
#58=PLANE('',#566);
#59=PLANE('',#567);
#60=PLANE('',#572);
#61=PLANE('',#580);
#62=PLANE('',#590);
#63=FACE_OUTER_BOUND('',#94,.T.);
#64=FACE_OUTER_BOUND('',#95,.T.);
#65=FACE_OUTER_BOUND('',#96,.T.);
#66=FACE_OUTER_BOUND('',#97,.T.);
#67=FACE_OUTER_BOUND('',#98,.T.);
#68=FACE_OUTER_BOUND('',#106,.T.);
#69=FACE_OUTER_BOUND('',#108,.T.);
#70=FACE_OUTER_BOUND('',#109,.T.);
#71=FACE_OUTER_BOUND('',#110,.T.);
#72=FACE_OUTER_BOUND('',#111,.T.);
#73=FACE_OUTER_BOUND('',#119,.T.);
#74=FACE_OUTER_BOUND('',#120,.T.);
#75=FACE_OUTER_BOUND('',#121,.T.);
#76=FACE_OUTER_BOUND('',#122,.T.);
#77=FACE_OUTER_BOUND('',#123,.T.);
#78=FACE_OUTER_BOUND('',#124,.T.);
#79=FACE_OUTER_BOUND('',#125,.T.);
#80=FACE_OUTER_BOUND('',#126,.T.);
#81=FACE_OUTER_BOUND('',#127,.T.);
#82=FACE_OUTER_BOUND('',#128,.T.);
#83=FACE_OUTER_BOUND('',#129,.T.);
#84=FACE_OUTER_BOUND('',#130,.T.);
#85=FACE_OUTER_BOUND('',#131,.T.);
#86=FACE_OUTER_BOUND('',#132,.T.);
#87=FACE_OUTER_BOUND('',#133,.T.);
#88=FACE_OUTER_BOUND('',#134,.T.);
#89=FACE_OUTER_BOUND('',#135,.T.);
#90=FACE_OUTER_BOUND('',#136,.T.);
#91=FACE_OUTER_BOUND('',#137,.T.);
#92=FACE_OUTER_BOUND('',#138,.T.);
#93=FACE_OUTER_BOUND('',#139,.T.);
#94=EDGE_LOOP('',(#353,#354,#355,#356));
#95=EDGE_LOOP('',(#357));
#96=EDGE_LOOP('',(#358));
#97=EDGE_LOOP('',(#359,#360,#361,#362));
#98=EDGE_LOOP('',(#363));
#99=EDGE_LOOP('',(#364));
#100=EDGE_LOOP('',(#365));
#101=EDGE_LOOP('',(#366));
#102=EDGE_LOOP('',(#367));
#103=EDGE_LOOP('',(#368));
#104=EDGE_LOOP('',(#369));
#105=EDGE_LOOP('',(#370));
#106=EDGE_LOOP('',(#371));
#107=EDGE_LOOP('',(#372));
#108=EDGE_LOOP('',(#373,#374,#375,#376,#377));
#109=EDGE_LOOP('',(#378,#379,#380,#381,#382,#383));
#110=EDGE_LOOP('',(#384,#385,#386,#387,#388));
#111=EDGE_LOOP('',(#389));
#112=EDGE_LOOP('',(#390));
#113=EDGE_LOOP('',(#391));
#114=EDGE_LOOP('',(#392));
#115=EDGE_LOOP('',(#393));
#116=EDGE_LOOP('',(#394));
#117=EDGE_LOOP('',(#395));
#118=EDGE_LOOP('',(#396));
#119=EDGE_LOOP('',(#397,#398,#399,#400,#401));
#120=EDGE_LOOP('',(#402,#403,#404,#405,#406));
#121=EDGE_LOOP('',(#407,#408,#409,#410,#411));
#122=EDGE_LOOP('',(#412,#413,#414,#415,#416));
#123=EDGE_LOOP('',(#417,#418,#419,#420,#421));
#124=EDGE_LOOP('',(#422,#423,#424,#425,#426));
#125=EDGE_LOOP('',(#427,#428,#429,#430,#431));
#126=EDGE_LOOP('',(#432,#433,#434,#435,#436));
#127=EDGE_LOOP('',(#437,#438,#439,#440,#441));
#128=EDGE_LOOP('',(#442,#443,#444,#445,#446));
#129=EDGE_LOOP('',(#447,#448,#449,#450,#451));
#130=EDGE_LOOP('',(#452,#453,#454,#455,#456));
#131=EDGE_LOOP('',(#457,#458,#459,#460,#461));
#132=EDGE_LOOP('',(#462,#463,#464,#465,#466));
#133=EDGE_LOOP('',(#467,#468,#469,#470));
#134=EDGE_LOOP('',(#471,#472,#473,#474));
#135=EDGE_LOOP('',(#475,#476,#477,#478));
#136=EDGE_LOOP('',(#479,#480,#481,#482));
#137=EDGE_LOOP('',(#483,#484,#485,#486));
#138=EDGE_LOOP('',(#487,#488,#489,#490));
#139=EDGE_LOOP('',(#491,#492,#493,#494));
#140=LINE('',#836,#166);
#141=LINE('',#845,#167);
#142=LINE('',#867,#168);
#143=LINE('',#875,#169);
#144=LINE('',#879,#170);
#145=LINE('',#901,#171);
#146=LINE('',#907,#172);
#147=LINE('',#913,#173);
#148=LINE('',#919,#174);
#149=LINE('',#925,#175);
#150=LINE('',#931,#176);
#151=LINE('',#937,#177);
#152=LINE('',#940,#178);
#153=LINE('',#944,#179);
#154=LINE('',#948,#180);
#155=LINE('',#952,#181);
#156=LINE('',#956,#182);
#157=LINE('',#960,#183);
#158=LINE('',#964,#184);
#159=LINE('',#967,#185);
#160=LINE('',#969,#186);
#161=LINE('',#971,#187);
#162=LINE('',#973,#188);
#163=LINE('',#975,#189);
#164=LINE('',#977,#190);
#165=LINE('',#979,#191);
#166=VECTOR('',#650,8.5);
#167=VECTOR('',#663,6.);
#168=VECTOR('',#688,8.93161785944027);
#169=VECTOR('',#697,9.15);
#170=VECTOR('',#702,10.75);
#171=VECTOR('',#727,16.6);
#172=VECTOR('',#734,2.59999999999998);
#173=VECTOR('',#741,2.59999999999998);
#174=VECTOR('',#748,2.59999999999997);
#175=VECTOR('',#755,2.59999999999998);
#176=VECTOR('',#762,2.59999999999998);
#177=VECTOR('',#769,2.59999999999998);
#178=VECTOR('',#772,17.);
#179=VECTOR('',#777,2.2);
#180=VECTOR('',#782,2.2);
#181=VECTOR('',#787,2.2);
#182=VECTOR('',#792,2.2);
#183=VECTOR('',#797,2.2);
#184=VECTOR('',#802,2.2);
#185=VECTOR('',#807,17.);
#186=VECTOR('',#810,2.2);
#187=VECTOR('',#813,2.2);
#188=VECTOR('',#816,2.2);
#189=VECTOR('',#819,2.2);
#190=VECTOR('',#822,2.2);
#191=VECTOR('',#825,2.2);
#192=CIRCLE('',#564,8.5);
#193=CIRCLE('',#565,8.5);
#194=CIRCLE('',#570,6.);
#195=CIRCLE('',#571,6.);
#196=CIRCLE('',#573,16.6);
#197=CIRCLE('',#574,2.60000000000001);
#198=CIRCLE('',#575,2.60000000000002);
#199=CIRCLE('',#576,2.60000000000002);
#200=CIRCLE('',#577,2.60000000000002);
#201=CIRCLE('',#578,2.60000000000002);
#202=CIRCLE('',#579,2.60000000000002);
#203=CIRCLE('',#581,8.93161785944027);
#204=CIRCLE('',#583,9.15);
#205=CIRCLE('',#584,9.15);
#206=CIRCLE('',#586,10.75);
#207=CIRCLE('',#587,10.75);
#208=CIRCLE('',#589,10.75);
#209=CIRCLE('',#591,16.6);
#210=CIRCLE('',#592,2.59999999999998);
#211=CIRCLE('',#593,2.59999999999998);
#212=CIRCLE('',#594,2.59999999999997);
#213=CIRCLE('',#595,2.59999999999998);
#214=CIRCLE('',#596,2.59999999999998);
#215=CIRCLE('',#597,2.59999999999998);
#216=CIRCLE('',#599,17.);
#217=CIRCLE('',#600,17.);
#218=CIRCLE('',#602,2.2);
#219=CIRCLE('',#603,2.2);
#220=CIRCLE('',#605,2.2);
#221=CIRCLE('',#606,2.2);
#222=CIRCLE('',#608,2.2);
#223=CIRCLE('',#609,2.2);
#224=CIRCLE('',#611,2.2);
#225=CIRCLE('',#612,2.2);
#226=CIRCLE('',#614,2.2);
#227=CIRCLE('',#615,2.2);
#228=CIRCLE('',#617,2.2);
#229=CIRCLE('',#618,2.2);
#230=CIRCLE('',#620,17.);
#231=CIRCLE('',#622,2.2);
#232=CIRCLE('',#624,2.2);
#233=CIRCLE('',#626,2.2);
#234=CIRCLE('',#628,2.2);
#235=CIRCLE('',#630,2.2);
#236=CIRCLE('',#632,2.2);
#237=VERTEX_POINT('',#833);
#238=VERTEX_POINT('',#835);
#239=VERTEX_POINT('',#842);
#240=VERTEX_POINT('',#844);
#241=VERTEX_POINT('',#848);
#242=VERTEX_POINT('',#850);
#243=VERTEX_POINT('',#852);
#244=VERTEX_POINT('',#854);
#245=VERTEX_POINT('',#856);
#246=VERTEX_POINT('',#858);
#247=VERTEX_POINT('',#860);
#248=VERTEX_POINT('',#863);
#249=VERTEX_POINT('',#866);
#250=VERTEX_POINT('',#868);
#251=VERTEX_POINT('',#872);
#252=VERTEX_POINT('',#873);
#253=VERTEX_POINT('',#878);
#254=VERTEX_POINT('',#882);
#255=VERTEX_POINT('',#884);
#256=VERTEX_POINT('',#886);
#257=VERTEX_POINT('',#888);
#258=VERTEX_POINT('',#890);
#259=VERTEX_POINT('',#892);
#260=VERTEX_POINT('',#894);
#261=VERTEX_POINT('',#897);
#262=VERTEX_POINT('',#898);
#263=VERTEX_POINT('',#903);
#264=VERTEX_POINT('',#904);
#265=VERTEX_POINT('',#909);
#266=VERTEX_POINT('',#910);
#267=VERTEX_POINT('',#915);
#268=VERTEX_POINT('',#916);
#269=VERTEX_POINT('',#921);
#270=VERTEX_POINT('',#922);
#271=VERTEX_POINT('',#927);
#272=VERTEX_POINT('',#928);
#273=VERTEX_POINT('',#933);
#274=VERTEX_POINT('',#934);
#275=VERTEX_POINT('',#939);
#276=VERTEX_POINT('',#943);
#277=VERTEX_POINT('',#947);
#278=VERTEX_POINT('',#951);
#279=VERTEX_POINT('',#955);
#280=VERTEX_POINT('',#959);
#281=VERTEX_POINT('',#963);
#282=EDGE_CURVE('',#237,#237,#192,.T.);
#283=EDGE_CURVE('',#237,#238,#140,.T.);
#284=EDGE_CURVE('',#238,#238,#193,.T.);
#285=EDGE_CURVE('',#239,#239,#194,.T.);
#286=EDGE_CURVE('',#239,#240,#141,.T.);
#287=EDGE_CURVE('',#240,#240,#195,.T.);
#288=EDGE_CURVE('',#241,#241,#196,.T.);
#289=EDGE_CURVE('',#242,#242,#197,.T.);
#290=EDGE_CURVE('',#243,#243,#198,.T.);
#291=EDGE_CURVE('',#244,#244,#199,.T.);
#292=EDGE_CURVE('',#245,#245,#200,.T.);
#293=EDGE_CURVE('',#246,#246,#201,.T.);
#294=EDGE_CURVE('',#247,#247,#202,.T.);
#295=EDGE_CURVE('',#248,#248,#203,.T.);
#296=EDGE_CURVE('',#248,#249,#142,.T.);
#297=EDGE_CURVE('',#249,#250,#204,.T.);
#298=EDGE_CURVE('',#250,#249,#205,.T.);
#299=EDGE_CURVE('',#251,#252,#206,.T.);
#300=EDGE_CURVE('',#252,#250,#143,.T.);
#301=EDGE_CURVE('',#252,#251,#207,.T.);
#302=EDGE_CURVE('',#251,#253,#144,.T.);
#303=EDGE_CURVE('',#253,#253,#208,.T.);
#304=EDGE_CURVE('',#254,#254,#209,.T.);
#305=EDGE_CURVE('',#255,#255,#210,.T.);
#306=EDGE_CURVE('',#256,#256,#211,.T.);
#307=EDGE_CURVE('',#257,#257,#212,.T.);
#308=EDGE_CURVE('',#258,#258,#213,.T.);
#309=EDGE_CURVE('',#259,#259,#214,.T.);
#310=EDGE_CURVE('',#260,#260,#215,.T.);
#311=EDGE_CURVE('',#261,#262,#216,.T.);
#312=EDGE_CURVE('',#262,#261,#217,.T.);
#313=EDGE_CURVE('',#262,#254,#145,.T.);
#314=EDGE_CURVE('',#263,#264,#218,.T.);
#315=EDGE_CURVE('',#264,#263,#219,.T.);
#316=EDGE_CURVE('',#264,#255,#146,.T.);
#317=EDGE_CURVE('',#265,#266,#220,.T.);
#318=EDGE_CURVE('',#266,#265,#221,.T.);
#319=EDGE_CURVE('',#266,#256,#147,.T.);
#320=EDGE_CURVE('',#267,#268,#222,.T.);
#321=EDGE_CURVE('',#268,#267,#223,.T.);
#322=EDGE_CURVE('',#268,#257,#148,.T.);
#323=EDGE_CURVE('',#269,#270,#224,.T.);
#324=EDGE_CURVE('',#270,#269,#225,.T.);
#325=EDGE_CURVE('',#270,#258,#149,.T.);
#326=EDGE_CURVE('',#271,#272,#226,.T.);
#327=EDGE_CURVE('',#272,#271,#227,.T.);
#328=EDGE_CURVE('',#272,#259,#150,.T.);
#329=EDGE_CURVE('',#273,#274,#228,.T.);
#330=EDGE_CURVE('',#274,#273,#229,.T.);
#331=EDGE_CURVE('',#274,#260,#151,.T.);
#332=EDGE_CURVE('',#261,#275,#152,.T.);
#333=EDGE_CURVE('',#275,#275,#230,.T.);
#334=EDGE_CURVE('',#263,#276,#153,.T.);
#335=EDGE_CURVE('',#276,#276,#231,.T.);
#336=EDGE_CURVE('',#265,#277,#154,.T.);
#337=EDGE_CURVE('',#277,#277,#232,.T.);
#338=EDGE_CURVE('',#267,#278,#155,.T.);
#339=EDGE_CURVE('',#278,#278,#233,.T.);
#340=EDGE_CURVE('',#269,#279,#156,.T.);
#341=EDGE_CURVE('',#279,#279,#234,.T.);
#342=EDGE_CURVE('',#271,#280,#157,.T.);
#343=EDGE_CURVE('',#280,#280,#235,.T.);
#344=EDGE_CURVE('',#273,#281,#158,.T.);
#345=EDGE_CURVE('',#281,#281,#236,.T.);
#346=EDGE_CURVE('',#275,#241,#159,.T.);
#347=EDGE_CURVE('',#276,#247,#160,.T.);
#348=EDGE_CURVE('',#277,#246,#161,.T.);
#349=EDGE_CURVE('',#278,#245,#162,.T.);
#350=EDGE_CURVE('',#279,#244,#163,.T.);
#351=EDGE_CURVE('',#280,#243,#164,.T.);
#352=EDGE_CURVE('',#281,#242,#165,.T.);
#353=ORIENTED_EDGE('',*,*,#282,.F.);
#354=ORIENTED_EDGE('',*,*,#283,.T.);
#355=ORIENTED_EDGE('',*,*,#284,.T.);
#356=ORIENTED_EDGE('',*,*,#283,.F.);
#357=ORIENTED_EDGE('',*,*,#282,.T.);
#358=ORIENTED_EDGE('',*,*,#284,.F.);
#359=ORIENTED_EDGE('',*,*,#285,.F.);
#360=ORIENTED_EDGE('',*,*,#286,.T.);
#361=ORIENTED_EDGE('',*,*,#287,.F.);
#362=ORIENTED_EDGE('',*,*,#286,.F.);
#363=ORIENTED_EDGE('',*,*,#288,.T.);
#364=ORIENTED_EDGE('',*,*,#287,.T.);
#365=ORIENTED_EDGE('',*,*,#289,.T.);
#366=ORIENTED_EDGE('',*,*,#290,.T.);
#367=ORIENTED_EDGE('',*,*,#291,.T.);
#368=ORIENTED_EDGE('',*,*,#292,.T.);
#369=ORIENTED_EDGE('',*,*,#293,.T.);
#370=ORIENTED_EDGE('',*,*,#294,.T.);
#371=ORIENTED_EDGE('',*,*,#295,.T.);
#372=ORIENTED_EDGE('',*,*,#285,.T.);
#373=ORIENTED_EDGE('',*,*,#295,.F.);
#374=ORIENTED_EDGE('',*,*,#296,.T.);
#375=ORIENTED_EDGE('',*,*,#297,.T.);
#376=ORIENTED_EDGE('',*,*,#298,.T.);
#377=ORIENTED_EDGE('',*,*,#296,.F.);
#378=ORIENTED_EDGE('',*,*,#299,.T.);
#379=ORIENTED_EDGE('',*,*,#300,.T.);
#380=ORIENTED_EDGE('',*,*,#297,.F.);
#381=ORIENTED_EDGE('',*,*,#298,.F.);
#382=ORIENTED_EDGE('',*,*,#300,.F.);
#383=ORIENTED_EDGE('',*,*,#301,.T.);
#384=ORIENTED_EDGE('',*,*,#299,.F.);
#385=ORIENTED_EDGE('',*,*,#302,.T.);
#386=ORIENTED_EDGE('',*,*,#303,.T.);
#387=ORIENTED_EDGE('',*,*,#302,.F.);
#388=ORIENTED_EDGE('',*,*,#301,.F.);
#389=ORIENTED_EDGE('',*,*,#304,.T.);
#390=ORIENTED_EDGE('',*,*,#303,.F.);
#391=ORIENTED_EDGE('',*,*,#305,.T.);
#392=ORIENTED_EDGE('',*,*,#306,.T.);
#393=ORIENTED_EDGE('',*,*,#307,.T.);
#394=ORIENTED_EDGE('',*,*,#308,.T.);
#395=ORIENTED_EDGE('',*,*,#309,.T.);
#396=ORIENTED_EDGE('',*,*,#310,.T.);
#397=ORIENTED_EDGE('',*,*,#311,.F.);
#398=ORIENTED_EDGE('',*,*,#312,.F.);
#399=ORIENTED_EDGE('',*,*,#313,.T.);
#400=ORIENTED_EDGE('',*,*,#304,.F.);
#401=ORIENTED_EDGE('',*,*,#313,.F.);
#402=ORIENTED_EDGE('',*,*,#314,.F.);
#403=ORIENTED_EDGE('',*,*,#315,.F.);
#404=ORIENTED_EDGE('',*,*,#316,.T.);
#405=ORIENTED_EDGE('',*,*,#305,.F.);
#406=ORIENTED_EDGE('',*,*,#316,.F.);
#407=ORIENTED_EDGE('',*,*,#317,.F.);
#408=ORIENTED_EDGE('',*,*,#318,.F.);
#409=ORIENTED_EDGE('',*,*,#319,.T.);
#410=ORIENTED_EDGE('',*,*,#306,.F.);
#411=ORIENTED_EDGE('',*,*,#319,.F.);
#412=ORIENTED_EDGE('',*,*,#320,.F.);
#413=ORIENTED_EDGE('',*,*,#321,.F.);
#414=ORIENTED_EDGE('',*,*,#322,.T.);
#415=ORIENTED_EDGE('',*,*,#307,.F.);
#416=ORIENTED_EDGE('',*,*,#322,.F.);
#417=ORIENTED_EDGE('',*,*,#323,.F.);
#418=ORIENTED_EDGE('',*,*,#324,.F.);
#419=ORIENTED_EDGE('',*,*,#325,.T.);
#420=ORIENTED_EDGE('',*,*,#308,.F.);
#421=ORIENTED_EDGE('',*,*,#325,.F.);
#422=ORIENTED_EDGE('',*,*,#326,.F.);
#423=ORIENTED_EDGE('',*,*,#327,.F.);
#424=ORIENTED_EDGE('',*,*,#328,.T.);
#425=ORIENTED_EDGE('',*,*,#309,.F.);
#426=ORIENTED_EDGE('',*,*,#328,.F.);
#427=ORIENTED_EDGE('',*,*,#329,.F.);
#428=ORIENTED_EDGE('',*,*,#330,.F.);
#429=ORIENTED_EDGE('',*,*,#331,.T.);
#430=ORIENTED_EDGE('',*,*,#310,.F.);
#431=ORIENTED_EDGE('',*,*,#331,.F.);
#432=ORIENTED_EDGE('',*,*,#311,.T.);
#433=ORIENTED_EDGE('',*,*,#312,.T.);
#434=ORIENTED_EDGE('',*,*,#332,.T.);
#435=ORIENTED_EDGE('',*,*,#333,.T.);
#436=ORIENTED_EDGE('',*,*,#332,.F.);
#437=ORIENTED_EDGE('',*,*,#314,.T.);
#438=ORIENTED_EDGE('',*,*,#315,.T.);
#439=ORIENTED_EDGE('',*,*,#334,.T.);
#440=ORIENTED_EDGE('',*,*,#335,.T.);
#441=ORIENTED_EDGE('',*,*,#334,.F.);
#442=ORIENTED_EDGE('',*,*,#317,.T.);
#443=ORIENTED_EDGE('',*,*,#318,.T.);
#444=ORIENTED_EDGE('',*,*,#336,.T.);
#445=ORIENTED_EDGE('',*,*,#337,.T.);
#446=ORIENTED_EDGE('',*,*,#336,.F.);
#447=ORIENTED_EDGE('',*,*,#320,.T.);
#448=ORIENTED_EDGE('',*,*,#321,.T.);
#449=ORIENTED_EDGE('',*,*,#338,.T.);
#450=ORIENTED_EDGE('',*,*,#339,.T.);
#451=ORIENTED_EDGE('',*,*,#338,.F.);
#452=ORIENTED_EDGE('',*,*,#323,.T.);
#453=ORIENTED_EDGE('',*,*,#324,.T.);
#454=ORIENTED_EDGE('',*,*,#340,.T.);
#455=ORIENTED_EDGE('',*,*,#341,.T.);
#456=ORIENTED_EDGE('',*,*,#340,.F.);
#457=ORIENTED_EDGE('',*,*,#326,.T.);
#458=ORIENTED_EDGE('',*,*,#327,.T.);
#459=ORIENTED_EDGE('',*,*,#342,.T.);
#460=ORIENTED_EDGE('',*,*,#343,.T.);
#461=ORIENTED_EDGE('',*,*,#342,.F.);
#462=ORIENTED_EDGE('',*,*,#329,.T.);
#463=ORIENTED_EDGE('',*,*,#330,.T.);
#464=ORIENTED_EDGE('',*,*,#344,.T.);
#465=ORIENTED_EDGE('',*,*,#345,.T.);
#466=ORIENTED_EDGE('',*,*,#344,.F.);
#467=ORIENTED_EDGE('',*,*,#333,.F.);
#468=ORIENTED_EDGE('',*,*,#346,.T.);
#469=ORIENTED_EDGE('',*,*,#288,.F.);
#470=ORIENTED_EDGE('',*,*,#346,.F.);
#471=ORIENTED_EDGE('',*,*,#335,.F.);
#472=ORIENTED_EDGE('',*,*,#347,.T.);
#473=ORIENTED_EDGE('',*,*,#294,.F.);
#474=ORIENTED_EDGE('',*,*,#347,.F.);
#475=ORIENTED_EDGE('',*,*,#337,.F.);
#476=ORIENTED_EDGE('',*,*,#348,.T.);
#477=ORIENTED_EDGE('',*,*,#293,.F.);
#478=ORIENTED_EDGE('',*,*,#348,.F.);
#479=ORIENTED_EDGE('',*,*,#339,.F.);
#480=ORIENTED_EDGE('',*,*,#349,.T.);
#481=ORIENTED_EDGE('',*,*,#292,.F.);
#482=ORIENTED_EDGE('',*,*,#349,.F.);
#483=ORIENTED_EDGE('',*,*,#341,.F.);
#484=ORIENTED_EDGE('',*,*,#350,.T.);
#485=ORIENTED_EDGE('',*,*,#291,.F.);
#486=ORIENTED_EDGE('',*,*,#350,.F.);
#487=ORIENTED_EDGE('',*,*,#343,.F.);
#488=ORIENTED_EDGE('',*,*,#351,.T.);
#489=ORIENTED_EDGE('',*,*,#290,.F.);
#490=ORIENTED_EDGE('',*,*,#351,.F.);
#491=ORIENTED_EDGE('',*,*,#345,.F.);
#492=ORIENTED_EDGE('',*,*,#352,.T.);
#493=ORIENTED_EDGE('',*,*,#289,.F.);
#494=ORIENTED_EDGE('',*,*,#352,.F.);
#495=CYLINDRICAL_SURFACE('',#563,8.5);
#496=CYLINDRICAL_SURFACE('',#569,6.);
#497=CYLINDRICAL_SURFACE('',#588,10.75);
#498=CYLINDRICAL_SURFACE('',#619,17.);
#499=CYLINDRICAL_SURFACE('',#621,2.2);
#500=CYLINDRICAL_SURFACE('',#623,2.2);
#501=CYLINDRICAL_SURFACE('',#625,2.2);
#502=CYLINDRICAL_SURFACE('',#627,2.2);
#503=CYLINDRICAL_SURFACE('',#629,2.2);
#504=CYLINDRICAL_SURFACE('',#631,2.2);
#505=ADVANCED_FACE('',(#63),#495,.T.);
#506=ADVANCED_FACE('',(#64),#58,.T.);
#507=ADVANCED_FACE('',(#65),#59,.F.);
#508=ADVANCED_FACE('',(#66),#496,.F.);
#509=ADVANCED_FACE('',(#67,#35,#36,#37,#38,#39,#40,#41),#60,.T.);
#510=ADVANCED_FACE('',(#68,#42),#61,.T.);
#511=ADVANCED_FACE('',(#69),#19,.F.);
#512=ADVANCED_FACE('',(#70),#20,.T.);
#513=ADVANCED_FACE('',(#71),#497,.F.);
#514=ADVANCED_FACE('',(#72,#43,#44,#45,#46,#47,#48,#49),#62,.T.);
#515=ADVANCED_FACE('',(#73),#21,.T.);
#516=ADVANCED_FACE('',(#74),#22,.F.);
#517=ADVANCED_FACE('',(#75),#23,.F.);
#518=ADVANCED_FACE('',(#76),#24,.F.);
#519=ADVANCED_FACE('',(#77),#25,.F.);
#520=ADVANCED_FACE('',(#78),#26,.F.);
#521=ADVANCED_FACE('',(#79),#27,.F.);
#522=ADVANCED_FACE('',(#80),#498,.T.);
#523=ADVANCED_FACE('',(#81),#499,.F.);
#524=ADVANCED_FACE('',(#82),#500,.F.);
#525=ADVANCED_FACE('',(#83),#501,.F.);
#526=ADVANCED_FACE('',(#84),#502,.F.);
#527=ADVANCED_FACE('',(#85),#503,.F.);
#528=ADVANCED_FACE('',(#86),#504,.F.);
#529=ADVANCED_FACE('',(#87),#28,.T.);
#530=ADVANCED_FACE('',(#88),#29,.F.);
#531=ADVANCED_FACE('',(#89),#30,.F.);
#532=ADVANCED_FACE('',(#90),#31,.F.);
#533=ADVANCED_FACE('',(#91),#32,.F.);
#534=ADVANCED_FACE('',(#92),#33,.F.);
#535=ADVANCED_FACE('',(#93),#34,.F.);
#536=CLOSED_SHELL('',(#505,#506,#507));
#537=CLOSED_SHELL('',(#508,#509,#510,#511,#512,#513,#514,#515,#516,#517,
#518,#519,#520,#521,#522,#523,#524,#525,#526,#527,#528,#529,#530,#531,#532,
#533,#534,#535));
#538=DERIVED_UNIT_ELEMENT(#542,1.);
#539=DERIVED_UNIT_ELEMENT(#991,-3.);
#540=DERIVED_UNIT_ELEMENT(#542,1.);
#541=DERIVED_UNIT_ELEMENT(#991,-3.);
#542=(
MASS_UNIT()
NAMED_UNIT(*)
SI_UNIT(.KILO.,.GRAM.)
);
#543=DERIVED_UNIT((#538,#539));
#544=DERIVED_UNIT((#540,#541));
#545=MEASURE_REPRESENTATION_ITEM('density measure',
POSITIVE_RATIO_MEASURE(7850.),#543);
#546=MEASURE_REPRESENTATION_ITEM('density measure',
POSITIVE_RATIO_MEASURE(7850.),#544);
#547=PROPERTY_DEFINITION_REPRESENTATION(#557,#551);
#548=PROPERTY_DEFINITION_REPRESENTATION(#558,#552);
#549=PROPERTY_DEFINITION_REPRESENTATION(#559,#553);
#550=PROPERTY_DEFINITION_REPRESENTATION(#560,#554);
#551=REPRESENTATION('material name',(#555),#987);
#552=REPRESENTATION('density',(#545),#987);
#553=REPRESENTATION('material name',(#556),#988);
#554=REPRESENTATION('density',(#546),#988);
#555=DESCRIPTIVE_REPRESENTATION_ITEM('Steel','Steel');
#556=DESCRIPTIVE_REPRESENTATION_ITEM('Steel','Steel');
#557=PROPERTY_DEFINITION('material property','material name',#1007);
#558=PROPERTY_DEFINITION('material property','density of part',#1007);
#559=PROPERTY_DEFINITION('material property','material name',#1008);
#560=PROPERTY_DEFINITION('material property','density of part',#1008);
#561=AXIS2_PLACEMENT_3D('',#830,#642,#643);
#562=AXIS2_PLACEMENT_3D('',#831,#644,#645);
#563=AXIS2_PLACEMENT_3D('',#832,#646,#647);
#564=AXIS2_PLACEMENT_3D('',#834,#648,#649);
#565=AXIS2_PLACEMENT_3D('',#837,#651,#652);
#566=AXIS2_PLACEMENT_3D('',#838,#653,#654);
#567=AXIS2_PLACEMENT_3D('',#839,#655,#656);
#568=AXIS2_PLACEMENT_3D('',#840,#657,#658);
#569=AXIS2_PLACEMENT_3D('',#841,#659,#660);
#570=AXIS2_PLACEMENT_3D('',#843,#661,#662);
#571=AXIS2_PLACEMENT_3D('',#846,#664,#665);
#572=AXIS2_PLACEMENT_3D('',#847,#666,#667);
#573=AXIS2_PLACEMENT_3D('',#849,#668,#669);
#574=AXIS2_PLACEMENT_3D('',#851,#670,#671);
#575=AXIS2_PLACEMENT_3D('',#853,#672,#673);
#576=AXIS2_PLACEMENT_3D('',#855,#674,#675);
#577=AXIS2_PLACEMENT_3D('',#857,#676,#677);
#578=AXIS2_PLACEMENT_3D('',#859,#678,#679);
#579=AXIS2_PLACEMENT_3D('',#861,#680,#681);
#580=AXIS2_PLACEMENT_3D('',#862,#682,#683);
#581=AXIS2_PLACEMENT_3D('',#864,#684,#685);
#582=AXIS2_PLACEMENT_3D('',#865,#686,#687);
#583=AXIS2_PLACEMENT_3D('',#869,#689,#690);
#584=AXIS2_PLACEMENT_3D('',#870,#691,#692);
#585=AXIS2_PLACEMENT_3D('',#871,#693,#694);
#586=AXIS2_PLACEMENT_3D('',#874,#695,#696);
#587=AXIS2_PLACEMENT_3D('',#876,#698,#699);
#588=AXIS2_PLACEMENT_3D('',#877,#700,#701);
#589=AXIS2_PLACEMENT_3D('',#880,#703,#704);
#590=AXIS2_PLACEMENT_3D('',#881,#705,#706);
#591=AXIS2_PLACEMENT_3D('',#883,#707,#708);
#592=AXIS2_PLACEMENT_3D('',#885,#709,#710);
#593=AXIS2_PLACEMENT_3D('',#887,#711,#712);
#594=AXIS2_PLACEMENT_3D('',#889,#713,#714);
#595=AXIS2_PLACEMENT_3D('',#891,#715,#716);
#596=AXIS2_PLACEMENT_3D('',#893,#717,#718);
#597=AXIS2_PLACEMENT_3D('',#895,#719,#720);
#598=AXIS2_PLACEMENT_3D('',#896,#721,#722);
#599=AXIS2_PLACEMENT_3D('',#899,#723,#724);
#600=AXIS2_PLACEMENT_3D('',#900,#725,#726);
#601=AXIS2_PLACEMENT_3D('',#902,#728,#729);
#602=AXIS2_PLACEMENT_3D('',#905,#730,#731);
#603=AXIS2_PLACEMENT_3D('',#906,#732,#733);
#604=AXIS2_PLACEMENT_3D('',#908,#735,#736);
#605=AXIS2_PLACEMENT_3D('',#911,#737,#738);
#606=AXIS2_PLACEMENT_3D('',#912,#739,#740);
#607=AXIS2_PLACEMENT_3D('',#914,#742,#743);
#608=AXIS2_PLACEMENT_3D('',#917,#744,#745);
#609=AXIS2_PLACEMENT_3D('',#918,#746,#747);
#610=AXIS2_PLACEMENT_3D('',#920,#749,#750);
#611=AXIS2_PLACEMENT_3D('',#923,#751,#752);
#612=AXIS2_PLACEMENT_3D('',#924,#753,#754);
#613=AXIS2_PLACEMENT_3D('',#926,#756,#757);
#614=AXIS2_PLACEMENT_3D('',#929,#758,#759);
#615=AXIS2_PLACEMENT_3D('',#930,#760,#761);
#616=AXIS2_PLACEMENT_3D('',#932,#763,#764);
#617=AXIS2_PLACEMENT_3D('',#935,#765,#766);
#618=AXIS2_PLACEMENT_3D('',#936,#767,#768);
#619=AXIS2_PLACEMENT_3D('',#938,#770,#771);
#620=AXIS2_PLACEMENT_3D('',#941,#773,#774);
#621=AXIS2_PLACEMENT_3D('',#942,#775,#776);
#622=AXIS2_PLACEMENT_3D('',#945,#778,#779);
#623=AXIS2_PLACEMENT_3D('',#946,#780,#781);
#624=AXIS2_PLACEMENT_3D('',#949,#783,#784);
#625=AXIS2_PLACEMENT_3D('',#950,#785,#786);
#626=AXIS2_PLACEMENT_3D('',#953,#788,#789);
#627=AXIS2_PLACEMENT_3D('',#954,#790,#791);
#628=AXIS2_PLACEMENT_3D('',#957,#793,#794);
#629=AXIS2_PLACEMENT_3D('',#958,#795,#796);
#630=AXIS2_PLACEMENT_3D('',#961,#798,#799);
#631=AXIS2_PLACEMENT_3D('',#962,#800,#801);
#632=AXIS2_PLACEMENT_3D('',#965,#803,#804);
#633=AXIS2_PLACEMENT_3D('',#966,#805,#806);
#634=AXIS2_PLACEMENT_3D('',#968,#808,#809);
#635=AXIS2_PLACEMENT_3D('',#970,#811,#812);
#636=AXIS2_PLACEMENT_3D('',#972,#814,#815);
#637=AXIS2_PLACEMENT_3D('',#974,#817,#818);
#638=AXIS2_PLACEMENT_3D('',#976,#820,#821);
#639=AXIS2_PLACEMENT_3D('',#978,#823,#824);
#640=AXIS2_PLACEMENT_3D('',#980,#826,#827);
#641=AXIS2_PLACEMENT_3D('',#981,#828,#829);
#642=DIRECTION('axis',(0.,0.,1.));
#643=DIRECTION('refdir',(1.,0.,0.));
#644=DIRECTION('axis',(0.,0.,1.));
#645=DIRECTION('refdir',(1.,0.,0.));
#646=DIRECTION('center_axis',(0.,0.,1.));
#647=DIRECTION('ref_axis',(-1.,0.,0.));
#648=DIRECTION('center_axis',(0.,-2.22044604925031E-16,1.));
#649=DIRECTION('ref_axis',(-1.,0.,0.));
#650=DIRECTION('',(0.,0.,-1.));
#651=DIRECTION('center_axis',(0.,-2.22044604925031E-16,1.));
#652=DIRECTION('ref_axis',(-1.,0.,0.));
#653=DIRECTION('center_axis',(0.,-2.22044604925031E-16,1.));
#654=DIRECTION('ref_axis',(-1.,0.,0.));
#655=DIRECTION('center_axis',(0.,-2.22044604925031E-16,1.));
#656=DIRECTION('ref_axis',(-1.,0.,0.));
#657=DIRECTION('axis',(0.,0.,1.));
#658=DIRECTION('refdir',(1.,0.,0.));
#659=DIRECTION('center_axis',(0.,2.22044604925031E-16,-1.));
#660=DIRECTION('ref_axis',(1.,0.,0.));
#661=DIRECTION('center_axis',(0.,2.22044604925031E-16,-1.));
#662=DIRECTION('ref_axis',(1.,0.,0.));
#663=DIRECTION('',(0.,2.22044604925031E-16,-1.));
#664=DIRECTION('center_axis',(0.,-2.22044604925031E-16,1.));
#665=DIRECTION('ref_axis',(1.,0.,0.));
#666=DIRECTION('center_axis',(0.,2.22044604925031E-16,-1.));
#667=DIRECTION('ref_axis',(0.,1.,2.22044604925031E-16));
#668=DIRECTION('center_axis',(0.,2.22044604925031E-16,-1.));
#669=DIRECTION('ref_axis',(0.,1.,2.22044604925031E-16));
#670=DIRECTION('center_axis',(0.,-2.22044604925031E-16,1.));
#671=DIRECTION('ref_axis',(0.,1.,2.22044604925031E-16));
#672=DIRECTION('center_axis',(0.,-2.22044604925031E-16,1.));
#673=DIRECTION('ref_axis',(0.,1.,2.22044604925031E-16));
#674=DIRECTION('center_axis',(0.,-2.22044604925031E-16,1.));
#675=DIRECTION('ref_axis',(0.,1.,2.22044604925031E-16));
#676=DIRECTION('center_axis',(0.,-2.22044604925031E-16,1.));
#677=DIRECTION('ref_axis',(0.,1.,2.22044604925031E-16));
#678=DIRECTION('center_axis',(0.,-2.22044604925031E-16,1.));
#679=DIRECTION('ref_axis',(0.,1.,2.22044604925031E-16));
#680=DIRECTION('center_axis',(0.,-2.22044604925031E-16,1.));
#681=DIRECTION('ref_axis',(0.,1.,2.22044604925031E-16));
#682=DIRECTION('center_axis',(0.,-2.22044604925031E-16,1.));
#683=DIRECTION('ref_axis',(0.,-1.,-2.22044604925031E-16));
#684=DIRECTION('center_axis',(0.,-2.22044604925031E-16,1.));
#685=DIRECTION('ref_axis',(0.,-1.,-2.22044604925031E-16));
#686=DIRECTION('center_axis',(0.,-2.22044604925031E-16,1.));
#687=DIRECTION('ref_axis',(0.,-1.,-2.22044604925031E-16));
#688=DIRECTION('',(-4.18853873767707E-17,0.342020143325675,0.939692620785906));
#689=DIRECTION('center_axis',(0.,-2.22044604925031E-16,1.));
#690=DIRECTION('ref_axis',(0.,-1.,-2.22044604925031E-16));
#691=DIRECTION('center_axis',(0.,-2.22044604925031E-16,1.));
#692=DIRECTION('ref_axis',(0.,-1.,-2.22044604925031E-16));
#693=DIRECTION('center_axis',(0.,2.22044604925031E-16,-1.));
#694=DIRECTION('ref_axis',(0.,1.,2.22044604925031E-16));
#695=DIRECTION('center_axis',(0.,-2.22044604925031E-16,1.));
#696=DIRECTION('ref_axis',(0.,-1.,-2.22044604925031E-16));
#697=DIRECTION('',(1.15079156022785E-16,0.939692620785906,0.342020143325675));
#698=DIRECTION('center_axis',(0.,-2.22044604925031E-16,1.));
#699=DIRECTION('ref_axis',(0.,-1.,-2.22044604925031E-16));
#700=DIRECTION('center_axis',(0.,-2.22044604925031E-16,1.));
#701=DIRECTION('ref_axis',(0.,-1.,-2.22044604925031E-16));
#702=DIRECTION('',(0.,-2.22044604925031E-16,1.));
#703=DIRECTION('center_axis',(0.,-2.22044604925031E-16,1.));
#704=DIRECTION('ref_axis',(0.,-1.,-2.22044604925031E-16));
#705=DIRECTION('center_axis',(0.,-2.22044604925031E-16,1.));
#706=DIRECTION('ref_axis',(0.,-1.,-2.22044604925031E-16));
#707=DIRECTION('center_axis',(0.,-2.22044604925031E-16,1.));
#708=DIRECTION('ref_axis',(0.,-1.,-2.22044604925031E-16));
#709=DIRECTION('center_axis',(0.,2.22044604925031E-16,-1.));
#710=DIRECTION('ref_axis',(0.,-1.,-2.22044604925031E-16));
#711=DIRECTION('center_axis',(0.,2.22044604925031E-16,-1.));
#712=DIRECTION('ref_axis',(0.,-1.,-2.22044604925031E-16));
#713=DIRECTION('center_axis',(0.,2.22044604925031E-16,-1.));
#714=DIRECTION('ref_axis',(0.,-1.,-2.22044604925031E-16));
#715=DIRECTION('center_axis',(0.,2.22044604925031E-16,-1.));
#716=DIRECTION('ref_axis',(0.,-1.,-2.22044604925031E-16));
#717=DIRECTION('center_axis',(0.,2.22044604925031E-16,-1.));
#718=DIRECTION('ref_axis',(0.,-1.,-2.22044604925031E-16));
#719=DIRECTION('center_axis',(0.,2.22044604925031E-16,-1.));
#720=DIRECTION('ref_axis',(0.,-1.,-2.22044604925031E-16));
#721=DIRECTION('center_axis',(0.,2.22044604925031E-16,-1.));
#722=DIRECTION('ref_axis',(0.,1.,2.22044604925031E-16));
#723=DIRECTION('center_axis',(0.,2.22044604925031E-16,-1.));
#724=DIRECTION('ref_axis',(0.,-1.,-2.22044604925031E-16));
#725=DIRECTION('center_axis',(0.,2.22044604925031E-16,-1.));
#726=DIRECTION('ref_axis',(0.,-1.,-2.22044604925031E-16));
#727=DIRECTION('',(8.65956056235501E-17,0.707106781186554,0.707106781186541));
#728=DIRECTION('center_axis',(0.,-2.22044604925031E-16,1.));
#729=DIRECTION('ref_axis',(0.,-1.,-2.22044604925031E-16));
#730=DIRECTION('center_axis',(0.,-2.22044604925031E-16,1.));
#731=DIRECTION('ref_axis',(0.,-1.,-2.22044604925031E-16));
#732=DIRECTION('center_axis',(0.,-2.22044604925031E-16,1.));
#733=DIRECTION('ref_axis',(0.,-1.,-2.22044604925031E-16));
#734=DIRECTION('',(-8.65956056235495E-17,0.707106781186549,0.707106781186546));
#735=DIRECTION('center_axis',(0.,-2.22044604925031E-16,1.));
#736=DIRECTION('ref_axis',(0.,-1.,-2.22044604925031E-16));
#737=DIRECTION('center_axis',(0.,-2.22044604925031E-16,1.));
#738=DIRECTION('ref_axis',(0.,-1.,-2.22044604925031E-16));
#739=DIRECTION('center_axis',(0.,-2.22044604925031E-16,1.));
#740=DIRECTION('ref_axis',(0.,-1.,-2.22044604925031E-16));
#741=DIRECTION('',(-8.65956056235491E-17,0.707106781186546,0.70710678118655));
#742=DIRECTION('center_axis',(0.,-2.22044604925031E-16,1.));
#743=DIRECTION('ref_axis',(0.,-1.,-2.22044604925031E-16));
#744=DIRECTION('center_axis',(0.,-2.22044604925031E-16,1.));
#745=DIRECTION('ref_axis',(0.,-1.,-2.22044604925031E-16));
#746=DIRECTION('center_axis',(0.,-2.22044604925031E-16,1.));
#747=DIRECTION('ref_axis',(0.,-1.,-2.22044604925031E-16));
#748=DIRECTION('',(-8.65956056235497E-17,0.707106781186551,0.707106781186544));
#749=DIRECTION('center_axis',(0.,-2.22044604925031E-16,1.));
#750=DIRECTION('ref_axis',(0.,-1.,-2.22044604925031E-16));
#751=DIRECTION('center_axis',(0.,-2.22044604925031E-16,1.));
#752=DIRECTION('ref_axis',(0.,-1.,-2.22044604925031E-16));
#753=DIRECTION('center_axis',(0.,-2.22044604925031E-16,1.));
#754=DIRECTION('ref_axis',(0.,-1.,-2.22044604925031E-16));
#755=DIRECTION('',(-8.65956056235496E-17,0.70710678118655,0.707106781186545));
#756=DIRECTION('center_axis',(0.,-2.22044604925031E-16,1.));
#757=DIRECTION('ref_axis',(0.,-1.,-2.22044604925031E-16));
#758=DIRECTION('center_axis',(0.,-2.22044604925031E-16,1.));
#759=DIRECTION('ref_axis',(0.,-1.,-2.22044604925031E-16));
#760=DIRECTION('center_axis',(0.,-2.22044604925031E-16,1.));
#761=DIRECTION('ref_axis',(0.,-1.,-2.22044604925031E-16));
#762=DIRECTION('',(-8.65956056235491E-17,0.707106781186546,0.70710678118655));
#763=DIRECTION('center_axis',(0.,-2.22044604925031E-16,1.));
#764=DIRECTION('ref_axis',(0.,-1.,-2.22044604925031E-16));
#765=DIRECTION('center_axis',(0.,-2.22044604925031E-16,1.));
#766=DIRECTION('ref_axis',(0.,-1.,-2.22044604925031E-16));
#767=DIRECTION('center_axis',(0.,-2.22044604925031E-16,1.));
#768=DIRECTION('ref_axis',(0.,-1.,-2.22044604925031E-16));
#769=DIRECTION('',(-8.65956056235494E-17,0.707106781186548,0.707106781186547));
#770=DIRECTION('center_axis',(0.,-2.22044604925031E-16,1.));
#771=DIRECTION('ref_axis',(0.,-1.,-2.22044604925031E-16));
#772=DIRECTION('',(0.,2.22044604925031E-16,-1.));
#773=DIRECTION('center_axis',(0.,-2.22044604925031E-16,1.));
#774=DIRECTION('ref_axis',(0.,1.,2.22044604925031E-16));
#775=DIRECTION('center_axis',(0.,2.22044604925031E-16,-1.));
#776=DIRECTION('ref_axis',(0.,1.,2.22044604925031E-16));
#777=DIRECTION('',(0.,2.22044604925031E-16,-1.));
#778=DIRECTION('center_axis',(0.,2.22044604925031E-16,-1.));
#779=DIRECTION('ref_axis',(0.,1.,2.22044604925031E-16));
#780=DIRECTION('center_axis',(0.,2.22044604925031E-16,-1.));
#781=DIRECTION('ref_axis',(0.,1.,2.22044604925031E-16));
#782=DIRECTION('',(0.,2.22044604925031E-16,-1.));
#783=DIRECTION('center_axis',(0.,2.22044604925031E-16,-1.));
#784=DIRECTION('ref_axis',(0.,1.,2.22044604925031E-16));
#785=DIRECTION('center_axis',(0.,2.22044604925031E-16,-1.));
#786=DIRECTION('ref_axis',(0.,1.,2.22044604925031E-16));
#787=DIRECTION('',(0.,2.22044604925031E-16,-1.));
#788=DIRECTION('center_axis',(0.,2.22044604925031E-16,-1.));
#789=DIRECTION('ref_axis',(0.,1.,2.22044604925031E-16));
#790=DIRECTION('center_axis',(0.,2.22044604925031E-16,-1.));
#791=DIRECTION('ref_axis',(0.,1.,2.22044604925031E-16));
#792=DIRECTION('',(0.,2.22044604925031E-16,-1.));
#793=DIRECTION('center_axis',(0.,2.22044604925031E-16,-1.));
#794=DIRECTION('ref_axis',(0.,1.,2.22044604925031E-16));
#795=DIRECTION('center_axis',(0.,2.22044604925031E-16,-1.));
#796=DIRECTION('ref_axis',(0.,1.,2.22044604925031E-16));
#797=DIRECTION('',(0.,2.22044604925031E-16,-1.));
#798=DIRECTION('center_axis',(0.,2.22044604925031E-16,-1.));
#799=DIRECTION('ref_axis',(0.,1.,2.22044604925031E-16));
#800=DIRECTION('center_axis',(0.,2.22044604925031E-16,-1.));
#801=DIRECTION('ref_axis',(0.,1.,2.22044604925031E-16));
#802=DIRECTION('',(0.,2.22044604925031E-16,-1.));
#803=DIRECTION('center_axis',(0.,2.22044604925031E-16,-1.));
#804=DIRECTION('ref_axis',(0.,1.,2.22044604925031E-16));
#805=DIRECTION('center_axis',(0.,-2.22044604925031E-16,1.));
#806=DIRECTION('ref_axis',(0.,-1.,-2.22044604925031E-16));
#807=DIRECTION('',(8.65956056235493E-17,-0.707106781186547,-0.707106781186548));
#808=DIRECTION('center_axis',(0.,2.22044604925031E-16,-1.));
#809=DIRECTION('ref_axis',(0.,1.,2.22044604925031E-16));
#810=DIRECTION('',(-8.65956056235494E-17,-0.707106781186548,-0.707106781186547));
#811=DIRECTION('center_axis',(0.,2.22044604925031E-16,-1.));
#812=DIRECTION('ref_axis',(0.,1.,2.22044604925031E-16));
#813=DIRECTION('',(-8.65956056235499E-17,-0.707106781186552,-0.707106781186543));
#814=DIRECTION('center_axis',(0.,2.22044604925031E-16,-1.));
#815=DIRECTION('ref_axis',(0.,1.,2.22044604925031E-16));
#816=DIRECTION('',(-8.65956056235496E-17,-0.70710678118655,-0.707106781186545));
#817=DIRECTION('center_axis',(0.,2.22044604925031E-16,-1.));
#818=DIRECTION('ref_axis',(0.,1.,2.22044604925031E-16));
#819=DIRECTION('',(-8.65956056235497E-17,-0.70710678118655,-0.707106781186545));
#820=DIRECTION('center_axis',(0.,2.22044604925031E-16,-1.));
#821=DIRECTION('ref_axis',(0.,1.,2.22044604925031E-16));
#822=DIRECTION('',(-8.65956056235499E-17,-0.707106781186552,-0.707106781186543));
#823=DIRECTION('center_axis',(0.,2.22044604925031E-16,-1.));
#824=DIRECTION('ref_axis',(0.,1.,2.22044604925031E-16));
#825=DIRECTION('',(-8.65956056235494E-17,-0.707106781186548,-0.707106781186547));
#826=DIRECTION('',(0.,2.46519032881566E-32,-1.));
#827=DIRECTION('',(1.,0.,0.));
#828=DIRECTION('',(0.,0.,1.));
#829=DIRECTION('',(1.,0.,0.));
#830=CARTESIAN_POINT('',(0.,0.,0.));
#831=CARTESIAN_POINT('',(0.,0.,0.));
#832=CARTESIAN_POINT('Origin',(0.,-17.,-10.6));
#833=CARTESIAN_POINT('',(8.5,-17.,-9.59999999999999));
#834=CARTESIAN_POINT('Origin',(0.,-17.,-9.59999999999999));
#835=CARTESIAN_POINT('',(8.5,-17.,-10.6));
#836=CARTESIAN_POINT('',(8.5,-17.,-10.6));
#837=CARTESIAN_POINT('Origin',(0.,-17.,-10.6));
#838=CARTESIAN_POINT('Origin',(0.,-17.,-9.59999999999999));
#839=CARTESIAN_POINT('Origin',(0.,-17.,-10.6));
#840=CARTESIAN_POINT('',(0.,0.,0.));
#841=CARTESIAN_POINT('Origin',(0.,-17.,-14.12));
#842=CARTESIAN_POINT('',(-6.,-17.,-10.6));
#843=CARTESIAN_POINT('Origin',(0.,-17.,-10.6));
#844=CARTESIAN_POINT('',(-6.,-17.,-17.));
#845=CARTESIAN_POINT('',(-6.,-17.,-14.12));
#846=CARTESIAN_POINT('Origin',(0.,-17.,-17.));
#847=CARTESIAN_POINT('Origin',(0.,-17.,-17.));
#848=CARTESIAN_POINT('',(-2.03291368658461E-15,-0.400000000000002,-17.));
#849=CARTESIAN_POINT('Origin',(0.,-17.,-17.));
#850=CARTESIAN_POINT('',(-11.6913429510899,-26.35,-17.));
#851=CARTESIAN_POINT('Origin',(-11.6913429510899,-23.75,-17.));
#852=CARTESIAN_POINT('',(-3.18408167778314E-16,-33.1,-17.));
#853=CARTESIAN_POINT('Origin',(0.,-30.5,-17.));
#854=CARTESIAN_POINT('',(11.6913429510898,-26.3500000000002,-17.));
#855=CARTESIAN_POINT('Origin',(11.6913429510898,-23.7500000000001,-17.));
#856=CARTESIAN_POINT('',(11.69134295109,-12.8500000000001,-17.));
#857=CARTESIAN_POINT('Origin',(11.69134295109,-10.2500000000001,-17.));
#858=CARTESIAN_POINT('',(9.3951642582175E-14,-6.10000000000001,-17.));
#859=CARTESIAN_POINT('Origin',(9.42700507499533E-14,-3.5,-17.));
#860=CARTESIAN_POINT('',(-11.6913429510899,-12.85,-17.));
#861=CARTESIAN_POINT('Origin',(-11.6913429510899,-10.2499999999999,-17.));
#862=CARTESIAN_POINT('Origin',(0.,-25.9316178594403,-10.6));
#863=CARTESIAN_POINT('',(-1.09380772227709E-15,-8.06838214055973,-10.6));
#864=CARTESIAN_POINT('Origin',(0.,-17.,-10.6));
#865=CARTESIAN_POINT('Origin',(0.,-17.,-10.6));
#866=CARTESIAN_POINT('',(-1.12055182121983E-15,-7.85,-9.99999999999999));
#867=CARTESIAN_POINT('',(-1.09380772227709E-15,-8.06838214055973,-10.6));
#868=CARTESIAN_POINT('',(1.21852356515162E-15,-26.15,-10.));
#869=CARTESIAN_POINT('Origin',(0.,-17.,-10.));
#870=CARTESIAN_POINT('Origin',(0.,-17.,-10.));
#871=CARTESIAN_POINT('Origin',(0.,-17.,-10.));
#872=CARTESIAN_POINT('',(1.3164953090834E-15,-6.25000000000001,-10.5823523748259));
#873=CARTESIAN_POINT('',(-1.3164953090834E-15,-27.75,-10.5823523748259));
#874=CARTESIAN_POINT('Origin',(0.,-17.,-10.5823523748259));
#875=CARTESIAN_POINT('',(-1.12055182121983E-15,-26.15,-10.));
#876=CARTESIAN_POINT('Origin',(0.,-17.,-10.5823523748259));
#877=CARTESIAN_POINT('Origin',(0.,-17.,36.8353387124258));
#878=CARTESIAN_POINT('',(-1.3164953090834E-15,-6.25000000000001,-9.39999999999999));
#879=CARTESIAN_POINT('',(-1.3164953090834E-15,-6.25000000000002,36.8353387124258));
#880=CARTESIAN_POINT('Origin',(0.,-17.,-9.4));
#881=CARTESIAN_POINT('Origin',(0.,-34.,-9.4));
#882=CARTESIAN_POINT('',(-2.0329136865846E-15,-33.6,-9.4));
#883=CARTESIAN_POINT('Origin',(0.,-17.,-9.4));
#884=CARTESIAN_POINT('',(-11.6913429510899,-7.64999999999997,-9.39999999999999));
#885=CARTESIAN_POINT('Origin',(-11.6913429510899,-10.2499999999999,-9.4));
#886=CARTESIAN_POINT('',(9.3951642582175E-14,-0.900000000000023,-9.39999999999999));
#887=CARTESIAN_POINT('Origin',(9.42700507499533E-14,-3.5,-9.39999999999999));
#888=CARTESIAN_POINT('',(11.69134295109,-7.65000000000014,-9.4));
#889=CARTESIAN_POINT('Origin',(11.69134295109,-10.2500000000001,-9.4));
#890=CARTESIAN_POINT('',(11.6913429510898,-21.1500000000002,-9.4));
#891=CARTESIAN_POINT('Origin',(11.6913429510898,-23.7500000000001,-9.4));
#892=CARTESIAN_POINT('',(-3.18408167778309E-16,-27.9,-9.4));
#893=CARTESIAN_POINT('Origin',(0.,-30.5,-9.4));
#894=CARTESIAN_POINT('',(-11.6913429510899,-21.15,-9.4));
#895=CARTESIAN_POINT('Origin',(-11.6913429510899,-23.75,-9.4));
#896=CARTESIAN_POINT('Origin',(0.,-17.,-9.4));
#897=CARTESIAN_POINT('',(2.0818995585505E-15,-6.66133814775094E-15,-9.8));
#898=CARTESIAN_POINT('',(-2.0818995585505E-15,-34.,-9.80000000000001));
#899=CARTESIAN_POINT('Origin',(0.,-17.,-9.8));
#900=CARTESIAN_POINT('Origin',(0.,-17.,-9.8));
#901=CARTESIAN_POINT('',(-2.0329136865846E-15,-33.6,-9.4));
#902=CARTESIAN_POINT('Origin',(-11.6913429510899,-10.2499999999999,-9.4));
#903=CARTESIAN_POINT('',(-11.6913429510899,-12.4499999999999,-9.79999999999997));
#904=CARTESIAN_POINT('',(-11.6913429510899,-8.04999999999994,-9.79999999999997));
#905=CARTESIAN_POINT('Origin',(-11.6913429510899,-10.2499999999999,-9.79999999999997));
#906=CARTESIAN_POINT('Origin',(-11.6913429510899,-10.2499999999999,-9.79999999999997));
#907=CARTESIAN_POINT('',(-11.6913429510899,-7.64999999999997,-9.4));
#908=CARTESIAN_POINT('Origin',(9.42700507499533E-14,-3.5,-9.39999999999999));
#909=CARTESIAN_POINT('',(9.45394730457657E-14,-5.7,-9.79999999999997));
#910=CARTESIAN_POINT('',(9.40006284541409E-14,-1.3,-9.79999999999997));
#911=CARTESIAN_POINT('Origin',(9.42700507499533E-14,-3.5,-9.79999999999997));
#912=CARTESIAN_POINT('Origin',(9.42700507499533E-14,-3.5,-9.79999999999997));
#913=CARTESIAN_POINT('',(9.3951642582175E-14,-0.900000000000023,-9.39999999999999));
#914=CARTESIAN_POINT('Origin',(11.69134295109,-10.2500000000001,-9.4));
#915=CARTESIAN_POINT('',(11.69134295109,-12.4500000000001,-9.79999999999996));
#916=CARTESIAN_POINT('',(11.69134295109,-8.05000000000011,-9.79999999999997));
#917=CARTESIAN_POINT('Origin',(11.69134295109,-10.2500000000001,-9.79999999999996));
#918=CARTESIAN_POINT('Origin',(11.69134295109,-10.2500000000001,-9.79999999999996));
#919=CARTESIAN_POINT('',(11.69134295109,-7.65000000000014,-9.4));
#920=CARTESIAN_POINT('Origin',(11.6913429510898,-23.7500000000001,-9.4));
#921=CARTESIAN_POINT('',(11.6913429510898,-25.9500000000001,-9.79999999999997));
#922=CARTESIAN_POINT('',(11.6913429510898,-21.5500000000001,-9.79999999999997));
#923=CARTESIAN_POINT('Origin',(11.6913429510898,-23.7500000000001,-9.79999999999997));
#924=CARTESIAN_POINT('Origin',(11.6913429510898,-23.7500000000001,-9.79999999999997));
#925=CARTESIAN_POINT('',(11.6913429510898,-21.1500000000002,-9.4));
#926=CARTESIAN_POINT('Origin',(0.,-30.5,-9.4));
#927=CARTESIAN_POINT('',(2.69422295812418E-16,-32.7,-9.79999999999998));
#928=CARTESIAN_POINT('',(-2.69422295812418E-16,-28.3,-9.79999999999998));
#929=CARTESIAN_POINT('Origin',(0.,-30.5,-9.79999999999998));
#930=CARTESIAN_POINT('Origin',(0.,-30.5,-9.79999999999998));
#931=CARTESIAN_POINT('',(-3.18408167778309E-16,-27.9,-9.4));
#932=CARTESIAN_POINT('Origin',(-11.6913429510899,-23.75,-9.4));
#933=CARTESIAN_POINT('',(-11.6913429510899,-25.95,-9.79999999999997));
#934=CARTESIAN_POINT('',(-11.6913429510899,-21.55,-9.79999999999997));
#935=CARTESIAN_POINT('Origin',(-11.6913429510899,-23.75,-9.79999999999997));
#936=CARTESIAN_POINT('Origin',(-11.6913429510899,-23.75,-9.79999999999997));
#937=CARTESIAN_POINT('',(-11.6913429510899,-21.15,-9.4));
#938=CARTESIAN_POINT('Origin',(0.,-17.,36.8353387124258));
#939=CARTESIAN_POINT('',(-2.0818995585505E-15,-3.67809367131638E-15,-16.6));
#940=CARTESIAN_POINT('',(-2.0818995585505E-15,-1.55431223447522E-14,36.8353387124258));
#941=CARTESIAN_POINT('Origin',(0.,-17.,-16.6));
#942=CARTESIAN_POINT('Origin',(-11.6913429510899,-10.2499999999999,-9.4));
#943=CARTESIAN_POINT('',(-11.6913429510899,-12.4499999999999,-16.6));
#944=CARTESIAN_POINT('',(-11.6913429510899,-12.4499999999999,-9.4));
#945=CARTESIAN_POINT('Origin',(-11.6913429510899,-10.2499999999999,-16.6));
#946=CARTESIAN_POINT('Origin',(9.42700507499533E-14,-3.5,-9.39999999999999));
#947=CARTESIAN_POINT('',(9.40006284541409E-14,-5.7,-16.6));
#948=CARTESIAN_POINT('',(9.40006284541409E-14,-5.7,-9.39999999999999));
#949=CARTESIAN_POINT('Origin',(9.42700507499533E-14,-3.5,-16.6));
#950=CARTESIAN_POINT('Origin',(11.69134295109,-10.2500000000001,-9.4));
#951=CARTESIAN_POINT('',(11.69134295109,-12.4500000000001,-16.6));
#952=CARTESIAN_POINT('',(11.69134295109,-12.4500000000001,-9.4));
#953=CARTESIAN_POINT('Origin',(11.69134295109,-10.2500000000001,-16.6));
#954=CARTESIAN_POINT('Origin',(11.6913429510898,-23.7500000000001,-9.4));
#955=CARTESIAN_POINT('',(11.6913429510898,-25.9500000000001,-16.6));
#956=CARTESIAN_POINT('',(11.6913429510898,-25.9500000000001,-9.4));
#957=CARTESIAN_POINT('Origin',(11.6913429510898,-23.7500000000001,-16.6));
#958=CARTESIAN_POINT('Origin',(0.,-30.5,-9.4));
#959=CARTESIAN_POINT('',(-2.69422295812418E-16,-32.7,-16.6));
#960=CARTESIAN_POINT('',(-2.69422295812418E-16,-32.7,-9.4));
#961=CARTESIAN_POINT('Origin',(0.,-30.5,-16.6));
#962=CARTESIAN_POINT('Origin',(-11.6913429510899,-23.75,-9.4));
#963=CARTESIAN_POINT('',(-11.6913429510899,-25.95,-16.6));
#964=CARTESIAN_POINT('',(-11.6913429510899,-25.95,-9.4));
#965=CARTESIAN_POINT('Origin',(-11.6913429510899,-23.75,-16.6));
#966=CARTESIAN_POINT('Origin',(0.,-17.,-16.6));
#967=CARTESIAN_POINT('',(-2.0818995585505E-15,-4.44089209850063E-15,-16.6));
#968=CARTESIAN_POINT('Origin',(-11.6913429510899,-10.2499999999999,-16.6));
#969=CARTESIAN_POINT('',(-11.6913429510899,-12.4499999999999,-16.6));
#970=CARTESIAN_POINT('Origin',(9.42700507499533E-14,-3.5,-16.6));
#971=CARTESIAN_POINT('',(9.40006284541409E-14,-5.69999999999999,-16.6));
#972=CARTESIAN_POINT('Origin',(11.69134295109,-10.2500000000001,-16.6));
#973=CARTESIAN_POINT('',(11.69134295109,-12.4500000000001,-16.6));
#974=CARTESIAN_POINT('Origin',(11.6913429510898,-23.7500000000001,-16.6));
#975=CARTESIAN_POINT('',(11.6913429510898,-25.9500000000001,-16.6));
#976=CARTESIAN_POINT('Origin',(0.,-30.5,-16.6));
#977=CARTESIAN_POINT('',(-2.69422295812418E-16,-32.7,-16.6));
#978=CARTESIAN_POINT('Origin',(-11.6913429510899,-23.75,-16.6));
#979=CARTESIAN_POINT('',(-11.6913429510899,-25.95,-16.6));
#980=CARTESIAN_POINT('',(0.,-34.,-20.2));
#981=CARTESIAN_POINT('',(0.,0.,0.));
#982=UNCERTAINTY_MEASURE_WITH_UNIT(LENGTH_MEASURE(0.01),#990,
'DISTANCE_ACCURACY_VALUE',
'Maximum model space distance between geometric entities at asserted c
onnectivities');
#983=UNCERTAINTY_MEASURE_WITH_UNIT(LENGTH_MEASURE(0.01),#990,
'DISTANCE_ACCURACY_VALUE',
'Maximum model space distance between geometric entities at asserted c
onnectivities');
#984=UNCERTAINTY_MEASURE_WITH_UNIT(LENGTH_MEASURE(0.01),#990,
'DISTANCE_ACCURACY_VALUE',
'Maximum model space distance between geometric entities at asserted c
onnectivities');
#985=UNCERTAINTY_MEASURE_WITH_UNIT(LENGTH_MEASURE(0.01),#990,
'DISTANCE_ACCURACY_VALUE',
'Maximum model space distance between geometric entities at asserted c
onnectivities');
#986=(
GEOMETRIC_REPRESENTATION_CONTEXT(3)
GLOBAL_UNCERTAINTY_ASSIGNED_CONTEXT((#982))
GLOBAL_UNIT_ASSIGNED_CONTEXT((#990,#992,#993))
REPRESENTATION_CONTEXT('','3D')
);
#987=(
GEOMETRIC_REPRESENTATION_CONTEXT(3)
GLOBAL_UNCERTAINTY_ASSIGNED_CONTEXT((#983))
GLOBAL_UNIT_ASSIGNED_CONTEXT((#990,#992,#993))
REPRESENTATION_CONTEXT('','3D')
);
#988=(
GEOMETRIC_REPRESENTATION_CONTEXT(3)
GLOBAL_UNCERTAINTY_ASSIGNED_CONTEXT((#984))
GLOBAL_UNIT_ASSIGNED_CONTEXT((#990,#992,#993))
REPRESENTATION_CONTEXT('','3D')
);
#989=(
GEOMETRIC_REPRESENTATION_CONTEXT(3)
GLOBAL_UNCERTAINTY_ASSIGNED_CONTEXT((#985))
GLOBAL_UNIT_ASSIGNED_CONTEXT((#990,#992,#993))
REPRESENTATION_CONTEXT('','3D')
);
#990=(
LENGTH_UNIT()
NAMED_UNIT(*)
SI_UNIT(.MILLI.,.METRE.)
);
#991=(
LENGTH_UNIT()
NAMED_UNIT(*)
SI_UNIT($,.METRE.)
);
#992=(
NAMED_UNIT(*)
PLANE_ANGLE_UNIT()
SI_UNIT($,.RADIAN.)
);
#993=(
NAMED_UNIT(*)
SI_UNIT($,.STERADIAN.)
SOLID_ANGLE_UNIT()
);
#994=SHAPE_DEFINITION_REPRESENTATION(#997,#1002);
#995=SHAPE_DEFINITION_REPRESENTATION(#998,#1003);
#996=SHAPE_DEFINITION_REPRESENTATION(#999,#1004);
#997=PRODUCT_DEFINITION_SHAPE('',$,#1006);
#998=PRODUCT_DEFINITION_SHAPE('',$,#1007);
#999=PRODUCT_DEFINITION_SHAPE('',$,#1008);
#1000=PRODUCT_DEFINITION_SHAPE($,$,#17);
#1001=PRODUCT_DEFINITION_SHAPE($,$,#18);
#1002=SHAPE_REPRESENTATION('',(#561,#640,#641),#986);
#1003=SHAPE_REPRESENTATION('',(#562),#987);
#1004=SHAPE_REPRESENTATION('',(#568),#988);
#1005=PRODUCT_DEFINITION_CONTEXT('part definition',#1016,'design');
#1006=PRODUCT_DEFINITION('Hositrad_CF16-B_RuptureDisc',
'Hositrad_CF16-B_RuptureDisc v18',#1009,#1005);
#1007=PRODUCT_DEFINITION('Rupture Disc','Rupture Disc',#1010,#1005);
#1008=PRODUCT_DEFINITION('Component2','Component2',#1011,#1005);
#1009=PRODUCT_DEFINITION_FORMATION('',$,#1018);
#1010=PRODUCT_DEFINITION_FORMATION('',$,#1019);
#1011=PRODUCT_DEFINITION_FORMATION('',$,#1020);
#1012=PRODUCT_RELATED_PRODUCT_CATEGORY(
'Hositrad_CF16-B_RuptureDisc v18','Hositrad_CF16-B_RuptureDisc v18',(#1018));
#1013=PRODUCT_RELATED_PRODUCT_CATEGORY('Rupture Disc','Rupture Disc',(#1019));
#1014=PRODUCT_RELATED_PRODUCT_CATEGORY('Component2','Component2',(#1020));
#1015=APPLICATION_PROTOCOL_DEFINITION('international standard',
'automotive_design',2009,#1016);
#1016=APPLICATION_CONTEXT(
'Core Data for Automotive Mechanical Design Process');
#1017=PRODUCT_CONTEXT('part definition',#1016,'mechanical');
#1018=PRODUCT('Hositrad_CF16-B_RuptureDisc',
'Hositrad_CF16-B_RuptureDisc v18',$,(#1017));
#1019=PRODUCT('Rupture Disc','Rupture Disc',$,(#1017));
#1020=PRODUCT('Component2','Component2',$,(#1017));
#1021=PRESENTATION_STYLE_ASSIGNMENT((#1023));
#1022=PRESENTATION_STYLE_ASSIGNMENT((#1024));
#1023=SURFACE_STYLE_USAGE(.BOTH.,#1025);
#1024=SURFACE_STYLE_USAGE(.BOTH.,#1026);
#1025=SURFACE_SIDE_STYLE('',(#1027));
#1026=SURFACE_SIDE_STYLE('',(#1028));
#1027=SURFACE_STYLE_FILL_AREA(#1029);
#1028=SURFACE_STYLE_FILL_AREA(#1030);
#1029=FILL_AREA_STYLE('Steel - Satin',(#1031));
#1030=FILL_AREA_STYLE('Opaque(165,158,150)',(#1032));
#1031=FILL_AREA_STYLE_COLOUR('Steel - Satin',#1033);
#1032=FILL_AREA_STYLE_COLOUR('Opaque(165,158,150)',#1034);
#1033=COLOUR_RGB('Steel - Satin',0.627450980392157,0.627450980392157,0.627450980392157);
#1034=COLOUR_RGB('Opaque(165,158,150)',0.647058823529412,0.619607843137255,
0.588235294117647);
ENDSEC;
END-ISO-10303-21;
