ISO-10303-21;
HEADER;
/* Generated by software containing ST-Developer
 * from STEP Tools, Inc. (www.steptools.com) 
 */

FILE_DESCRIPTION(
/* description */ (''),
/* implementation_level */ '2;1');

FILE_NAME(
/* name */ 'catridgeCase v5.step',
/* time_stamp */ '2024-06-17T11:04:15+02:00',
/* author */ (''),
/* organization */ (''),
/* preprocessor_version */ 'ST-DEVELOPER v20',
/* originating_system */ 'Autodesk Translation Framework v13.14.0.145',

/* authorisation */ '');

FILE_SCHEMA (('AUTOMOTIVE_DESIGN { 1 0 10303 214 3 1 1 }'));
ENDSEC;

DATA;
#10=MECHANICAL_DESIGN_GEOMETRIC_PRESENTATION_REPRESENTATION('',(#17),#537);
#11=ITEM_DEFINED_TRANSFORMATION($,$,#296,#330);
#12=(
REPRESENTATION_RELATIONSHIP($,$,#548,#547)
REPRESENTATION_RELATIONSHIP_WITH_TRANSFORMATION(#11)
SHAPE_REPRESENTATION_RELATIONSHIP()
);
#13=CONTEXT_DEPENDENT_SHAPE_REPRESENTATION(#12,#546);
#14=NEXT_ASSEMBLY_USAGE_OCCURRENCE('Component1:1','Component1:1',
'Component1:1',#550,#551,'Component1:1');
#15=SHAPE_REPRESENTATION_RELATIONSHIP('SRR','None',#548,#16);
#16=ADVANCED_BREP_SHAPE_REPRESENTATION('',(#18),#536);
#17=STYLED_ITEM('',(#562),#18);
#18=MANIFOLD_SOLID_BREP('Body1',#282);
#19=CONICAL_SURFACE('',#311,10.48,0.785398163397455);
#20=FACE_BOUND('',#56,.T.);
#21=FACE_BOUND('',#58,.T.);
#22=FACE_BOUND('',#60,.T.);
#23=FACE_BOUND('',#62,.T.);
#24=FACE_BOUND('',#69,.T.);
#25=FACE_BOUND('',#71,.T.);
#26=FACE_BOUND('',#73,.T.);
#27=PLANE('',#299);
#28=PLANE('',#302);
#29=PLANE('',#303);
#30=PLANE('',#306);
#31=PLANE('',#324);
#32=PLANE('',#325);
#33=PLANE('',#326);
#34=PLANE('',#327);
#35=PLANE('',#328);
#36=PLANE('',#329);
#37=FACE_OUTER_BOUND('',#54,.T.);
#38=FACE_OUTER_BOUND('',#55,.T.);
#39=FACE_OUTER_BOUND('',#57,.T.);
#40=FACE_OUTER_BOUND('',#59,.T.);
#41=FACE_OUTER_BOUND('',#61,.T.);
#42=FACE_OUTER_BOUND('',#63,.T.);
#43=FACE_OUTER_BOUND('',#64,.T.);
#44=FACE_OUTER_BOUND('',#65,.T.);
#45=FACE_OUTER_BOUND('',#66,.T.);
#46=FACE_OUTER_BOUND('',#67,.T.);
#47=FACE_OUTER_BOUND('',#68,.T.);
#48=FACE_OUTER_BOUND('',#70,.T.);
#49=FACE_OUTER_BOUND('',#72,.T.);
#50=FACE_OUTER_BOUND('',#74,.T.);
#51=FACE_OUTER_BOUND('',#75,.T.);
#52=FACE_OUTER_BOUND('',#76,.T.);
#53=FACE_OUTER_BOUND('',#77,.T.);
#54=EDGE_LOOP('',(#189,#190,#191,#192));
#55=EDGE_LOOP('',(#193));
#56=EDGE_LOOP('',(#194));
#57=EDGE_LOOP('',(#195,#196,#197,#198));
#58=EDGE_LOOP('',(#199));
#59=EDGE_LOOP('',(#200,#201));
#60=EDGE_LOOP('',(#202));
#61=EDGE_LOOP('',(#203,#204,#205,#206,#207,#208));
#62=EDGE_LOOP('',(#209));
#63=EDGE_LOOP('',(#210,#211,#212,#213));
#64=EDGE_LOOP('',(#214,#215,#216,#217));
#65=EDGE_LOOP('',(#218,#219,#220,#221,#222,#223,#224,#225,#226,#227,#228,
#229));
#66=EDGE_LOOP('',(#230,#231,#232,#233));
#67=EDGE_LOOP('',(#234,#235,#236,#237));
#68=EDGE_LOOP('',(#238,#239,#240,#241));
#69=EDGE_LOOP('',(#242));
#70=EDGE_LOOP('',(#243));
#71=EDGE_LOOP('',(#244));
#72=EDGE_LOOP('',(#245));
#73=EDGE_LOOP('',(#246));
#74=EDGE_LOOP('',(#247,#248));
#75=EDGE_LOOP('',(#249,#250,#251,#252));
#76=EDGE_LOOP('',(#253,#254,#255,#256));
#77=EDGE_LOOP('',(#257,#258));
#78=B_SPLINE_CURVE_WITH_KNOTS('',3,(#428,#429,#430,#431,#432,#433,#434,
#435,#436,#437,#438,#439,#440,#441,#442,#443,#444,#445,#446,#447,#448,#449,
#450,#451,#452,#453,#454,#455,#456,#457,#458,#459,#460,#461),
 .UNSPECIFIED.,.T.,.F.,(4,2,2,2,2,2,2,2,2,2,2,2,2,2,2,2,4),(0.,0.114270097902765,
0.22854019580553,0.342722789273836,0.456905382742141,0.571087976210446,
0.685270569678751,0.799540667581517,0.913810765484282,1.02808086338705,
1.14235096128981,1.25653355475812,1.37071614822642,1.48489874169473,1.59908133516303,
1.7133514330658,1.82762153096856),.UNSPECIFIED.);
#79=LINE('',#427,#97);
#80=LINE('',#470,#98);
#81=LINE('',#472,#99);
#82=LINE('',#474,#100);
#83=LINE('',#475,#101);
#84=LINE('',#484,#102);
#85=LINE('',#488,#103);
#86=LINE('',#496,#104);
#87=LINE('',#499,#105);
#88=LINE('',#502,#106);
#89=LINE('',#505,#107);
#90=LINE('',#507,#108);
#91=LINE('',#510,#109);
#92=LINE('',#513,#110);
#93=LINE('',#518,#111);
#94=LINE('',#522,#112);
#95=LINE('',#526,#113);
#96=LINE('',#529,#114);
#97=VECTOR('',#339,3.);
#98=VECTOR('',#348,10.);
#99=VECTOR('',#349,10.);
#100=VECTOR('',#350,10.);
#101=VECTOR('',#351,10.);
#102=VECTOR('',#362,1000.);
#103=VECTOR('',#365,1000.);
#104=VECTOR('',#374,10.48);
#105=VECTOR('',#379,10.);
#106=VECTOR('',#382,1000.);
#107=VECTOR('',#385,1000.);
#108=VECTOR('',#386,1000.);
#109=VECTOR('',#389,1000.);
#110=VECTOR('',#392,9.2);
#111=VECTOR('',#399,10.48);
#112=VECTOR('',#404,8.);
#113=VECTOR('',#411,1000.);
#114=VECTOR('',#416,1000.);
#115=CIRCLE('',#298,3.);
#116=CIRCLE('',#300,10.);
#117=CIRCLE('',#301,8.);
#118=CIRCLE('',#304,13.);
#119=CIRCLE('',#305,9.2);
#120=CIRCLE('',#307,13.);
#121=CIRCLE('',#308,13.);
#122=CIRCLE('',#309,13.);
#123=CIRCLE('',#310,10.);
#124=CIRCLE('',#312,10.4065);
#125=CIRCLE('',#313,9.47999999999997);
#126=CIRCLE('',#316,13.);
#127=CIRCLE('',#317,13.);
#128=CIRCLE('',#319,9.2);
#129=CIRCLE('',#321,10.4065);
#130=CIRCLE('',#323,8.);
#131=VERTEX_POINT('',#424);
#132=VERTEX_POINT('',#426);
#133=VERTEX_POINT('',#463);
#134=VERTEX_POINT('',#465);
#135=VERTEX_POINT('',#468);
#136=VERTEX_POINT('',#469);
#137=VERTEX_POINT('',#471);
#138=VERTEX_POINT('',#473);
#139=VERTEX_POINT('',#478);
#140=VERTEX_POINT('',#481);
#141=VERTEX_POINT('',#483);
#142=VERTEX_POINT('',#485);
#143=VERTEX_POINT('',#487);
#144=VERTEX_POINT('',#490);
#145=VERTEX_POINT('',#493);
#146=VERTEX_POINT('',#495);
#147=VERTEX_POINT('',#501);
#148=VERTEX_POINT('',#503);
#149=VERTEX_POINT('',#506);
#150=VERTEX_POINT('',#508);
#151=VERTEX_POINT('',#512);
#152=VERTEX_POINT('',#516);
#153=VERTEX_POINT('',#520);
#154=EDGE_CURVE('',#131,#131,#115,.T.);
#155=EDGE_CURVE('',#131,#132,#79,.T.);
#156=EDGE_CURVE('',#132,#132,#78,.T.);
#157=EDGE_CURVE('',#133,#133,#116,.T.);
#158=EDGE_CURVE('',#134,#134,#117,.T.);
#159=EDGE_CURVE('',#135,#136,#80,.T.);
#160=EDGE_CURVE('',#137,#135,#81,.T.);
#161=EDGE_CURVE('',#138,#137,#82,.T.);
#162=EDGE_CURVE('',#136,#138,#83,.T.);
#163=EDGE_CURVE('',#136,#138,#118,.T.);
#164=EDGE_CURVE('',#139,#139,#119,.T.);
#165=EDGE_CURVE('',#135,#140,#120,.T.);
#166=EDGE_CURVE('',#141,#140,#84,.T.);
#167=EDGE_CURVE('',#141,#142,#121,.T.);
#168=EDGE_CURVE('',#143,#142,#85,.T.);
#169=EDGE_CURVE('',#143,#137,#122,.T.);
#170=EDGE_CURVE('',#144,#144,#123,.T.);
#171=EDGE_CURVE('',#145,#145,#124,.T.);
#172=EDGE_CURVE('',#145,#146,#86,.T.);
#173=EDGE_CURVE('',#146,#146,#125,.T.);
#174=EDGE_CURVE('',#133,#144,#87,.T.);
#175=EDGE_CURVE('',#147,#143,#88,.T.);
#176=EDGE_CURVE('',#148,#147,#126,.T.);
#177=EDGE_CURVE('',#142,#148,#89,.T.);
#178=EDGE_CURVE('',#149,#141,#90,.T.);
#179=EDGE_CURVE('',#150,#149,#127,.T.);
#180=EDGE_CURVE('',#140,#150,#91,.T.);
#181=EDGE_CURVE('',#139,#151,#92,.T.);
#182=EDGE_CURVE('',#151,#151,#128,.T.);
#183=EDGE_CURVE('',#152,#152,#129,.F.);
#184=EDGE_CURVE('',#152,#145,#93,.T.);
#185=EDGE_CURVE('',#153,#153,#130,.T.);
#186=EDGE_CURVE('',#153,#134,#94,.T.);
#187=EDGE_CURVE('',#149,#150,#95,.T.);
#188=EDGE_CURVE('',#148,#147,#96,.T.);
#189=ORIENTED_EDGE('',*,*,#154,.F.);
#190=ORIENTED_EDGE('',*,*,#155,.T.);
#191=ORIENTED_EDGE('',*,*,#156,.F.);
#192=ORIENTED_EDGE('',*,*,#155,.F.);
#193=ORIENTED_EDGE('',*,*,#157,.F.);
#194=ORIENTED_EDGE('',*,*,#158,.F.);
#195=ORIENTED_EDGE('',*,*,#159,.F.);
#196=ORIENTED_EDGE('',*,*,#160,.F.);
#197=ORIENTED_EDGE('',*,*,#161,.F.);
#198=ORIENTED_EDGE('',*,*,#162,.F.);
#199=ORIENTED_EDGE('',*,*,#154,.T.);
#200=ORIENTED_EDGE('',*,*,#162,.T.);
#201=ORIENTED_EDGE('',*,*,#163,.F.);
#202=ORIENTED_EDGE('',*,*,#164,.T.);
#203=ORIENTED_EDGE('',*,*,#160,.T.);
#204=ORIENTED_EDGE('',*,*,#165,.T.);
#205=ORIENTED_EDGE('',*,*,#166,.F.);
#206=ORIENTED_EDGE('',*,*,#167,.T.);
#207=ORIENTED_EDGE('',*,*,#168,.F.);
#208=ORIENTED_EDGE('',*,*,#169,.T.);
#209=ORIENTED_EDGE('',*,*,#170,.F.);
#210=ORIENTED_EDGE('',*,*,#171,.F.);
#211=ORIENTED_EDGE('',*,*,#172,.T.);
#212=ORIENTED_EDGE('',*,*,#173,.F.);
#213=ORIENTED_EDGE('',*,*,#172,.F.);
#214=ORIENTED_EDGE('',*,*,#157,.T.);
#215=ORIENTED_EDGE('',*,*,#174,.T.);
#216=ORIENTED_EDGE('',*,*,#170,.T.);
#217=ORIENTED_EDGE('',*,*,#174,.F.);
#218=ORIENTED_EDGE('',*,*,#159,.T.);
#219=ORIENTED_EDGE('',*,*,#163,.T.);
#220=ORIENTED_EDGE('',*,*,#161,.T.);
#221=ORIENTED_EDGE('',*,*,#169,.F.);
#222=ORIENTED_EDGE('',*,*,#175,.F.);
#223=ORIENTED_EDGE('',*,*,#176,.F.);
#224=ORIENTED_EDGE('',*,*,#177,.F.);
#225=ORIENTED_EDGE('',*,*,#167,.F.);
#226=ORIENTED_EDGE('',*,*,#178,.F.);
#227=ORIENTED_EDGE('',*,*,#179,.F.);
#228=ORIENTED_EDGE('',*,*,#180,.F.);
#229=ORIENTED_EDGE('',*,*,#165,.F.);
#230=ORIENTED_EDGE('',*,*,#164,.F.);
#231=ORIENTED_EDGE('',*,*,#181,.T.);
#232=ORIENTED_EDGE('',*,*,#182,.T.);
#233=ORIENTED_EDGE('',*,*,#181,.F.);
#234=ORIENTED_EDGE('',*,*,#183,.F.);
#235=ORIENTED_EDGE('',*,*,#184,.T.);
#236=ORIENTED_EDGE('',*,*,#171,.T.);
#237=ORIENTED_EDGE('',*,*,#184,.F.);
#238=ORIENTED_EDGE('',*,*,#185,.F.);
#239=ORIENTED_EDGE('',*,*,#186,.T.);
#240=ORIENTED_EDGE('',*,*,#158,.T.);
#241=ORIENTED_EDGE('',*,*,#186,.F.);
#242=ORIENTED_EDGE('',*,*,#156,.T.);
#243=ORIENTED_EDGE('',*,*,#173,.T.);
#244=ORIENTED_EDGE('',*,*,#185,.T.);
#245=ORIENTED_EDGE('',*,*,#183,.T.);
#246=ORIENTED_EDGE('',*,*,#182,.F.);
#247=ORIENTED_EDGE('',*,*,#187,.T.);
#248=ORIENTED_EDGE('',*,*,#179,.T.);
#249=ORIENTED_EDGE('',*,*,#180,.T.);
#250=ORIENTED_EDGE('',*,*,#187,.F.);
#251=ORIENTED_EDGE('',*,*,#178,.T.);
#252=ORIENTED_EDGE('',*,*,#166,.T.);
#253=ORIENTED_EDGE('',*,*,#177,.T.);
#254=ORIENTED_EDGE('',*,*,#188,.T.);
#255=ORIENTED_EDGE('',*,*,#175,.T.);
#256=ORIENTED_EDGE('',*,*,#168,.T.);
#257=ORIENTED_EDGE('',*,*,#188,.F.);
#258=ORIENTED_EDGE('',*,*,#176,.T.);
#259=CYLINDRICAL_SURFACE('',#297,3.);
#260=CYLINDRICAL_SURFACE('',#314,10.);
#261=CYLINDRICAL_SURFACE('',#315,13.);
#262=CYLINDRICAL_SURFACE('',#318,9.2);
#263=CYLINDRICAL_SURFACE('',#320,10.4065);
#264=CYLINDRICAL_SURFACE('',#322,8.);
#265=ADVANCED_FACE('',(#37),#259,.F.);
#266=ADVANCED_FACE('',(#38,#20),#27,.F.);
#267=ADVANCED_FACE('',(#39,#21),#28,.F.);
#268=ADVANCED_FACE('',(#40,#22),#29,.T.);
#269=ADVANCED_FACE('',(#41,#23),#30,.T.);
#270=ADVANCED_FACE('',(#42),#19,.T.);
#271=ADVANCED_FACE('',(#43),#260,.T.);
#272=ADVANCED_FACE('',(#44),#261,.T.);
#273=ADVANCED_FACE('',(#45),#262,.T.);
#274=ADVANCED_FACE('',(#46),#263,.T.);
#275=ADVANCED_FACE('',(#47,#24),#264,.F.);
#276=ADVANCED_FACE('',(#48,#25),#31,.T.);
#277=ADVANCED_FACE('',(#49,#26),#32,.T.);
#278=ADVANCED_FACE('',(#50),#33,.F.);
#279=ADVANCED_FACE('',(#51),#34,.F.);
#280=ADVANCED_FACE('',(#52),#35,.F.);
#281=ADVANCED_FACE('',(#53),#36,.F.);
#282=CLOSED_SHELL('',(#265,#266,#267,#268,#269,#270,#271,#272,#273,#274,
#275,#276,#277,#278,#279,#280,#281));
#283=DERIVED_UNIT_ELEMENT(#285,1.);
#284=DERIVED_UNIT_ELEMENT(#539,-3.);
#285=(
MASS_UNIT()
NAMED_UNIT(*)
SI_UNIT(.KILO.,.GRAM.)
);
#286=DERIVED_UNIT((#283,#284));
#287=MEASURE_REPRESENTATION_ITEM('density measure',
POSITIVE_RATIO_MEASURE(7850.),#286);
#288=PROPERTY_DEFINITION_REPRESENTATION(#293,#290);
#289=PROPERTY_DEFINITION_REPRESENTATION(#294,#291);
#290=REPRESENTATION('material name',(#292),#536);
#291=REPRESENTATION('density',(#287),#536);
#292=DESCRIPTIVE_REPRESENTATION_ITEM('Steel','Steel');
#293=PROPERTY_DEFINITION('material property','material name',#551);
#294=PROPERTY_DEFINITION('material property','density of part',#551);
#295=AXIS2_PLACEMENT_3D('',#421,#331,#332);
#296=AXIS2_PLACEMENT_3D('',#422,#333,#334);
#297=AXIS2_PLACEMENT_3D('',#423,#335,#336);
#298=AXIS2_PLACEMENT_3D('',#425,#337,#338);
#299=AXIS2_PLACEMENT_3D('',#462,#340,#341);
#300=AXIS2_PLACEMENT_3D('',#464,#342,#343);
#301=AXIS2_PLACEMENT_3D('',#466,#344,#345);
#302=AXIS2_PLACEMENT_3D('',#467,#346,#347);
#303=AXIS2_PLACEMENT_3D('',#476,#352,#353);
#304=AXIS2_PLACEMENT_3D('',#477,#354,#355);
#305=AXIS2_PLACEMENT_3D('',#479,#356,#357);
#306=AXIS2_PLACEMENT_3D('',#480,#358,#359);
#307=AXIS2_PLACEMENT_3D('',#482,#360,#361);
#308=AXIS2_PLACEMENT_3D('',#486,#363,#364);
#309=AXIS2_PLACEMENT_3D('',#489,#366,#367);
#310=AXIS2_PLACEMENT_3D('',#491,#368,#369);
#311=AXIS2_PLACEMENT_3D('',#492,#370,#371);
#312=AXIS2_PLACEMENT_3D('',#494,#372,#373);
#313=AXIS2_PLACEMENT_3D('',#497,#375,#376);
#314=AXIS2_PLACEMENT_3D('',#498,#377,#378);
#315=AXIS2_PLACEMENT_3D('',#500,#380,#381);
#316=AXIS2_PLACEMENT_3D('',#504,#383,#384);
#317=AXIS2_PLACEMENT_3D('',#509,#387,#388);
#318=AXIS2_PLACEMENT_3D('',#511,#390,#391);
#319=AXIS2_PLACEMENT_3D('',#514,#393,#394);
#320=AXIS2_PLACEMENT_3D('',#515,#395,#396);
#321=AXIS2_PLACEMENT_3D('',#517,#397,#398);
#322=AXIS2_PLACEMENT_3D('',#519,#400,#401);
#323=AXIS2_PLACEMENT_3D('',#521,#402,#403);
#324=AXIS2_PLACEMENT_3D('',#523,#405,#406);
#325=AXIS2_PLACEMENT_3D('',#524,#407,#408);
#326=AXIS2_PLACEMENT_3D('',#525,#409,#410);
#327=AXIS2_PLACEMENT_3D('',#527,#412,#413);
#328=AXIS2_PLACEMENT_3D('',#528,#414,#415);
#329=AXIS2_PLACEMENT_3D('',#530,#417,#418);
#330=AXIS2_PLACEMENT_3D('',#531,#419,#420);
#331=DIRECTION('axis',(0.,0.,1.));
#332=DIRECTION('refdir',(1.,0.,0.));
#333=DIRECTION('axis',(0.,0.,1.));
#334=DIRECTION('refdir',(1.,0.,0.));
#335=DIRECTION('center_axis',(-1.,0.,0.));
#336=DIRECTION('ref_axis',(0.,1.,0.));
#337=DIRECTION('center_axis',(-1.,0.,0.));
#338=DIRECTION('ref_axis',(0.,1.,0.));
#339=DIRECTION('',(-1.,0.,0.));
#340=DIRECTION('center_axis',(0.,0.,-1.));
#341=DIRECTION('ref_axis',(-1.,0.,0.));
#342=DIRECTION('center_axis',(0.,0.,-1.));
#343=DIRECTION('ref_axis',(1.,0.,0.));
#344=DIRECTION('center_axis',(0.,0.,1.));
#345=DIRECTION('ref_axis',(1.,0.,0.));
#346=DIRECTION('center_axis',(-1.,0.,0.));
#347=DIRECTION('ref_axis',(0.,0.,1.));
#348=DIRECTION('',(0.,0.,-1.));
#349=DIRECTION('',(0.,1.,0.));
#350=DIRECTION('',(0.,0.,1.));
#351=DIRECTION('',(0.,-1.,0.));
#352=DIRECTION('center_axis',(0.,0.,-1.));
#353=DIRECTION('ref_axis',(-1.,0.,0.));
#354=DIRECTION('center_axis',(0.,0.,1.));
#355=DIRECTION('ref_axis',(1.,0.,0.));
#356=DIRECTION('center_axis',(0.,0.,1.));
#357=DIRECTION('ref_axis',(1.,0.,0.));
#358=DIRECTION('center_axis',(0.,0.,1.));
#359=DIRECTION('ref_axis',(1.,0.,0.));
#360=DIRECTION('center_axis',(0.,0.,1.));
#361=DIRECTION('ref_axis',(1.,0.,0.));
#362=DIRECTION('',(1.,0.,0.));
#363=DIRECTION('center_axis',(0.,0.,1.));
#364=DIRECTION('ref_axis',(1.,0.,0.));
#365=DIRECTION('',(-1.,0.,0.));
#366=DIRECTION('center_axis',(0.,0.,1.));
#367=DIRECTION('ref_axis',(1.,0.,0.));
#368=DIRECTION('center_axis',(0.,0.,1.));
#369=DIRECTION('ref_axis',(1.,0.,0.));
#370=DIRECTION('center_axis',(0.,0.,1.));
#371=DIRECTION('ref_axis',(1.,0.,0.));
#372=DIRECTION('center_axis',(0.,0.,1.));
#373=DIRECTION('ref_axis',(1.,0.,0.));
#374=DIRECTION('',(0.707106781186552,8.65956056235499E-17,-0.707106781186543));
#375=DIRECTION('center_axis',(0.,0.,-1.));
#376=DIRECTION('ref_axis',(-1.,0.,0.));
#377=DIRECTION('center_axis',(0.,0.,1.));
#378=DIRECTION('ref_axis',(1.,0.,0.));
#379=DIRECTION('',(0.,0.,-1.));
#380=DIRECTION('center_axis',(0.,0.,1.));
#381=DIRECTION('ref_axis',(-1.,1.22464679914735E-16,0.));
#382=DIRECTION('',(0.,0.,1.));
#383=DIRECTION('center_axis',(0.,0.,1.));
#384=DIRECTION('ref_axis',(-1.,0.,0.));
#385=DIRECTION('',(0.,0.,-1.));
#386=DIRECTION('',(0.,0.,1.));
#387=DIRECTION('center_axis',(0.,0.,1.));
#388=DIRECTION('ref_axis',(-1.,-1.77635683940025E-15,0.));
#389=DIRECTION('',(0.,0.,-1.));
#390=DIRECTION('center_axis',(0.,0.,1.));
#391=DIRECTION('ref_axis',(1.,0.,0.));
#392=DIRECTION('',(0.,0.,-1.));
#393=DIRECTION('center_axis',(0.,0.,1.));
#394=DIRECTION('ref_axis',(1.,0.,0.));
#395=DIRECTION('center_axis',(0.,0.,1.));
#396=DIRECTION('ref_axis',(1.,0.,0.));
#397=DIRECTION('center_axis',(0.,0.,-1.));
#398=DIRECTION('ref_axis',(1.,0.,0.));
#399=DIRECTION('',(0.,0.,-1.));
#400=DIRECTION('center_axis',(0.,0.,1.));
#401=DIRECTION('ref_axis',(1.,0.,0.));
#402=DIRECTION('center_axis',(0.,0.,1.));
#403=DIRECTION('ref_axis',(1.,0.,0.));
#404=DIRECTION('',(0.,0.,1.));
#405=DIRECTION('center_axis',(0.,0.,-1.));
#406=DIRECTION('ref_axis',(-1.,0.,0.));
#407=DIRECTION('center_axis',(0.,0.,1.));
#408=DIRECTION('ref_axis',(1.,0.,0.));
#409=DIRECTION('center_axis',(0.,0.,-1.));
#410=DIRECTION('ref_axis',(-1.,0.,0.));
#411=DIRECTION('',(1.,0.,0.));
#412=DIRECTION('center_axis',(0.,-1.,0.));
#413=DIRECTION('ref_axis',(0.,0.,-1.));
#414=DIRECTION('center_axis',(0.,1.,0.));
#415=DIRECTION('ref_axis',(0.,0.,1.));
#416=DIRECTION('',(1.,0.,0.));
#417=DIRECTION('center_axis',(0.,0.,-1.));
#418=DIRECTION('ref_axis',(-1.,0.,0.));
#419=DIRECTION('',(0.,0.,1.));
#420=DIRECTION('',(1.,0.,0.));
#421=CARTESIAN_POINT('',(0.,0.,0.));
#422=CARTESIAN_POINT('',(0.,0.,0.));
#423=CARTESIAN_POINT('Origin',(9.,0.,-15.0000002235174));
#424=CARTESIAN_POINT('',(12.,-3.,-15.0000002235174));
#425=CARTESIAN_POINT('Origin',(12.,0.,-15.0000002235174));
#426=CARTESIAN_POINT('',(7.41619848709566,-3.,-15.0000002235174));
#427=CARTESIAN_POINT('',(9.,-3.,-15.0000002235174));
#428=CARTESIAN_POINT('Ctrl Pts',(7.41619848709566,-3.,-15.0000002235174));
#429=CARTESIAN_POINT('Ctrl Pts',(7.41619848709566,-3.,-15.38090054986));
#430=CARTESIAN_POINT('Ctrl Pts',(7.44863976602663,-2.92311084715149,-15.7842944180038));
#431=CARTESIAN_POINT('Ctrl Pts',(7.56200851777587,-2.61588166954347,-16.5221235757913));
#432=CARTESIAN_POINT('Ctrl Pts',(7.64091598811147,-2.38570506181757,-16.8569358488191));
#433=CARTESIAN_POINT('Ctrl Pts',(7.78627695469169,-1.85713808277463,-17.3855028278621));
#434=CARTESIAN_POINT('Ctrl Pts',(7.86268789683119,-1.52224754945154,-17.6158339294828));
#435=CARTESIAN_POINT('Ctrl Pts',(7.97021049512602,-0.784119400961759,-17.9231801021212));
#436=CARTESIAN_POINT('Ctrl Pts',(8.,-0.380608644894351,-18.0000002235174));
#437=CARTESIAN_POINT('Ctrl Pts',(8.,0.380608644894351,-18.0000002235174));
#438=CARTESIAN_POINT('Ctrl Pts',(7.97021049512602,0.784119400961757,-17.9231801021212));
#439=CARTESIAN_POINT('Ctrl Pts',(7.86268789683118,1.52224754945154,-17.6158339294828));
#440=CARTESIAN_POINT('Ctrl Pts',(7.78627695469169,1.85713808277463,-17.3855028278621));
#441=CARTESIAN_POINT('Ctrl Pts',(7.64091598811147,2.38570506181757,-16.8569358488191));
#442=CARTESIAN_POINT('Ctrl Pts',(7.56200851777587,2.61588166954347,-16.5221235757913));
#443=CARTESIAN_POINT('Ctrl Pts',(7.44863976602663,2.92311084715149,-15.7842944180038));
#444=CARTESIAN_POINT('Ctrl Pts',(7.41619848709566,3.,-15.38090054986));
#445=CARTESIAN_POINT('Ctrl Pts',(7.41619848709566,3.,-14.6190998971749));
#446=CARTESIAN_POINT('Ctrl Pts',(7.44863976602663,2.92311084715149,-14.215706029031));
#447=CARTESIAN_POINT('Ctrl Pts',(7.56200851777587,2.61588166954347,-13.4778768712436));
#448=CARTESIAN_POINT('Ctrl Pts',(7.64091598811147,2.38570506181757,-13.1430645982157));
#449=CARTESIAN_POINT('Ctrl Pts',(7.78627695469169,1.85713808277463,-12.6144976191728));
#450=CARTESIAN_POINT('Ctrl Pts',(7.86268789683118,1.52224754945154,-12.3841665175521));
#451=CARTESIAN_POINT('Ctrl Pts',(7.97021049512602,0.784119400961757,-12.0768203449136));
#452=CARTESIAN_POINT('Ctrl Pts',(8.,0.380608644894351,-12.0000002235174));
#453=CARTESIAN_POINT('Ctrl Pts',(8.,-0.38060864489435,-12.0000002235174));
#454=CARTESIAN_POINT('Ctrl Pts',(7.97021049512602,-0.784119400961757,-12.0768203449136));
#455=CARTESIAN_POINT('Ctrl Pts',(7.86268789683118,-1.52224754945154,-12.3841665175521));
#456=CARTESIAN_POINT('Ctrl Pts',(7.78627695469169,-1.85713808277463,-12.6144976191728));
#457=CARTESIAN_POINT('Ctrl Pts',(7.64091598811147,-2.38570506181757,-13.1430645982157));
#458=CARTESIAN_POINT('Ctrl Pts',(7.56200851777587,-2.61588166954347,-13.4778768712436));
#459=CARTESIAN_POINT('Ctrl Pts',(7.44863976602663,-2.92311084715149,-14.215706029031));
#460=CARTESIAN_POINT('Ctrl Pts',(7.41619848709566,-3.,-14.6190998971749));
#461=CARTESIAN_POINT('Ctrl Pts',(7.41619848709566,-3.,-15.0000002235174));
#462=CARTESIAN_POINT('Origin',(0.,0.,-5.));
#463=CARTESIAN_POINT('',(-10.,1.22464679914735E-15,-5.));
#464=CARTESIAN_POINT('Origin',(0.,0.,-5.));
#465=CARTESIAN_POINT('',(-8.,-9.79717439317882E-16,-5.));
#466=CARTESIAN_POINT('Origin',(0.,0.,-5.));
#467=CARTESIAN_POINT('Origin',(12.,0.,-15.0000002235174));
#468=CARTESIAN_POINT('',(12.,5.,-10.0000001490116));
#469=CARTESIAN_POINT('',(12.,5.,-20.0000002980232));
#470=CARTESIAN_POINT('',(12.,5.,0.));
#471=CARTESIAN_POINT('',(12.,-5.,-10.0000001490116));
#472=CARTESIAN_POINT('',(12.,5.,-10.));
#473=CARTESIAN_POINT('',(12.,-5.,-20.0000002980232));
#474=CARTESIAN_POINT('',(12.,-5.,0.));
#475=CARTESIAN_POINT('',(12.,6.5,-20.));
#476=CARTESIAN_POINT('Origin',(0.,13.,-20.));
#477=CARTESIAN_POINT('Origin',(0.,0.,-20.));
#478=CARTESIAN_POINT('',(-9.2,-1.12667505521556E-15,-20.));
#479=CARTESIAN_POINT('Origin',(0.,0.,-20.));
#480=CARTESIAN_POINT('Origin',(0.,10.,-10.));
#481=CARTESIAN_POINT('',(6.92820323027551,11.,-10.));
#482=CARTESIAN_POINT('Origin',(0.,0.,-10.));
#483=CARTESIAN_POINT('',(-6.92820323027551,11.,-10.));
#484=CARTESIAN_POINT('',(0.,11.,-10.));
#485=CARTESIAN_POINT('',(-6.92820323027551,-11.,-10.));
#486=CARTESIAN_POINT('Origin',(0.,0.,-10.));
#487=CARTESIAN_POINT('',(6.92820323027551,-11.,-10.));
#488=CARTESIAN_POINT('',(0.,-11.,-10.));
#489=CARTESIAN_POINT('Origin',(0.,0.,-10.));
#490=CARTESIAN_POINT('',(-10.,-1.22464679914735E-15,-10.));
#491=CARTESIAN_POINT('Origin',(0.,0.,-10.));
#492=CARTESIAN_POINT('Origin',(0.,0.,-34.));
#493=CARTESIAN_POINT('',(-10.4065,-1.27442869153269E-15,-34.0735));
#494=CARTESIAN_POINT('Origin',(0.,0.,-34.0735));
#495=CARTESIAN_POINT('',(-9.47999999999998,-1.16096516559169E-15,-35.));
#496=CARTESIAN_POINT('',(-10.48,-1.28342984550643E-15,-34.));
#497=CARTESIAN_POINT('Origin',(0.,0.,-35.));
#498=CARTESIAN_POINT('Origin',(0.,0.,0.));
#499=CARTESIAN_POINT('',(-10.,-1.22464679914735E-15,0.));
#500=CARTESIAN_POINT('Origin',(0.,0.,0.));
#501=CARTESIAN_POINT('',(6.92820323027551,-11.,-18.));
#502=CARTESIAN_POINT('',(6.92820323027551,-11.,0.));
#503=CARTESIAN_POINT('',(-6.92820323027551,-11.,-18.));
#504=CARTESIAN_POINT('Origin',(0.,0.,-18.));
#505=CARTESIAN_POINT('',(-6.92820323027551,-11.,0.));
#506=CARTESIAN_POINT('',(-6.92820323027551,11.,-18.));
#507=CARTESIAN_POINT('',(-6.92820323027551,11.,0.));
#508=CARTESIAN_POINT('',(6.92820323027551,11.,-18.));
#509=CARTESIAN_POINT('Origin',(0.,0.,-18.));
#510=CARTESIAN_POINT('',(6.92820323027551,11.,0.));
#511=CARTESIAN_POINT('Origin',(0.,0.,0.));
#512=CARTESIAN_POINT('',(-9.2,-1.12667505521556E-15,-24.));
#513=CARTESIAN_POINT('',(-9.2,-1.12667505521556E-15,0.));
#514=CARTESIAN_POINT('Origin',(0.,0.,-24.));
#515=CARTESIAN_POINT('Origin',(0.,0.,0.));
#516=CARTESIAN_POINT('',(-10.4065,1.27442869153269E-15,-24.));
#517=CARTESIAN_POINT('Origin',(0.,0.,-24.));
#518=CARTESIAN_POINT('',(-10.4065,-1.27442869153269E-15,0.));
#519=CARTESIAN_POINT('Origin',(0.,0.,0.));
#520=CARTESIAN_POINT('',(-8.,-9.79717439317882E-16,-35.));
#521=CARTESIAN_POINT('Origin',(0.,0.,-35.));
#522=CARTESIAN_POINT('',(-8.,-9.79717439317882E-16,0.));
#523=CARTESIAN_POINT('Origin',(0.,8.,-35.));
#524=CARTESIAN_POINT('Origin',(0.,10.48,-24.));
#525=CARTESIAN_POINT('Origin',(-15.,13.,-18.));
#526=CARTESIAN_POINT('',(-15.,11.,-18.));
#527=CARTESIAN_POINT('Origin',(-15.,11.,-10.));
#528=CARTESIAN_POINT('Origin',(-15.,-11.,-10.));
#529=CARTESIAN_POINT('',(-15.,-11.,-18.));
#530=CARTESIAN_POINT('Origin',(-15.,-13.,-18.));
#531=CARTESIAN_POINT('',(0.,0.,0.));
#532=UNCERTAINTY_MEASURE_WITH_UNIT(LENGTH_MEASURE(0.01),#538,
'DISTANCE_ACCURACY_VALUE',
'Maximum model space distance between geometric entities at asserted c
onnectivities');
#533=UNCERTAINTY_MEASURE_WITH_UNIT(LENGTH_MEASURE(0.01),#538,
'DISTANCE_ACCURACY_VALUE',
'Maximum model space distance between geometric entities at asserted c
onnectivities');
#534=UNCERTAINTY_MEASURE_WITH_UNIT(LENGTH_MEASURE(0.01),#538,
'DISTANCE_ACCURACY_VALUE',
'Maximum model space distance between geometric entities at asserted c
onnectivities');
#535=(
GEOMETRIC_REPRESENTATION_CONTEXT(3)
GLOBAL_UNCERTAINTY_ASSIGNED_CONTEXT((#532))
GLOBAL_UNIT_ASSIGNED_CONTEXT((#538,#540,#541))
REPRESENTATION_CONTEXT('','3D')
);
#536=(
GEOMETRIC_REPRESENTATION_CONTEXT(3)
GLOBAL_UNCERTAINTY_ASSIGNED_CONTEXT((#533))
GLOBAL_UNIT_ASSIGNED_CONTEXT((#538,#540,#541))
REPRESENTATION_CONTEXT('','3D')
);
#537=(
GEOMETRIC_REPRESENTATION_CONTEXT(3)
GLOBAL_UNCERTAINTY_ASSIGNED_CONTEXT((#534))
GLOBAL_UNIT_ASSIGNED_CONTEXT((#538,#540,#541))
REPRESENTATION_CONTEXT('','3D')
);
#538=(
LENGTH_UNIT()
NAMED_UNIT(*)
SI_UNIT(.MILLI.,.METRE.)
);
#539=(
LENGTH_UNIT()
NAMED_UNIT(*)
SI_UNIT($,.METRE.)
);
#540=(
NAMED_UNIT(*)
PLANE_ANGLE_UNIT()
SI_UNIT($,.RADIAN.)
);
#541=(
NAMED_UNIT(*)
SI_UNIT($,.STERADIAN.)
SOLID_ANGLE_UNIT()
);
#542=SHAPE_DEFINITION_REPRESENTATION(#544,#547);
#543=SHAPE_DEFINITION_REPRESENTATION(#545,#548);
#544=PRODUCT_DEFINITION_SHAPE('',$,#550);
#545=PRODUCT_DEFINITION_SHAPE('',$,#551);
#546=PRODUCT_DEFINITION_SHAPE($,$,#14);
#547=SHAPE_REPRESENTATION('',(#295,#330),#535);
#548=SHAPE_REPRESENTATION('',(#296),#536);
#549=PRODUCT_DEFINITION_CONTEXT('part definition',#557,'design');
#550=PRODUCT_DEFINITION('catridgeCase','catridgeCase v5',#552,#549);
#551=PRODUCT_DEFINITION('Component1','Component1',#553,#549);
#552=PRODUCT_DEFINITION_FORMATION('',$,#559);
#553=PRODUCT_DEFINITION_FORMATION('',$,#560);
#554=PRODUCT_RELATED_PRODUCT_CATEGORY('catridgeCase v5',
'catridgeCase v5',(#559));
#555=PRODUCT_RELATED_PRODUCT_CATEGORY('Component1','Component1',(#560));
#556=APPLICATION_PROTOCOL_DEFINITION('international standard',
'automotive_design',2009,#557);
#557=APPLICATION_CONTEXT(
'Core Data for Automotive Mechanical Design Process');
#558=PRODUCT_CONTEXT('part definition',#557,'mechanical');
#559=PRODUCT('catridgeCase','catridgeCase v5',$,(#558));
#560=PRODUCT('Component1','Component1',$,(#558));
#561=PRESENTATION_STYLE_ASSIGNMENT((#563));
#562=PRESENTATION_STYLE_ASSIGNMENT((#564));
#563=SURFACE_STYLE_USAGE(.BOTH.,#565);
#564=SURFACE_STYLE_USAGE(.BOTH.,#566);
#565=SURFACE_SIDE_STYLE('',(#567));
#566=SURFACE_SIDE_STYLE('',(#568));
#567=SURFACE_STYLE_FILL_AREA(#569);
#568=SURFACE_STYLE_FILL_AREA(#570);
#569=FILL_AREA_STYLE('Steel - Satin',(#571));
#570=FILL_AREA_STYLE('Opaque(160,170,191)',(#572));
#571=FILL_AREA_STYLE_COLOUR('Steel - Satin',#573);
#572=FILL_AREA_STYLE_COLOUR('Opaque(160,170,191)',#574);
#573=COLOUR_RGB('Steel - Satin',0.627450980392157,0.627450980392157,0.627450980392157);
#574=COLOUR_RGB('Opaque(160,170,191)',0.627450980392157,0.666666666666667,
0.749019607843137);
ENDSEC;
END-ISO-10303-21;
