  0
SECTION
  2
HEADER
  9
$ACADVER
  1
AC1027
  9
$ACADMAINTVER
 70
   125
  9
$DWGCODEPAGE
  3
ANSI_1252
  9
$LASTSAVEDBY
  1
yatishkale
  9
$REQUIREDVERSIONS
160
                 0
  9
$INSBASE
 10
0.0
 20
0.0
 30
0.0
  9
$EXTMIN
 10
0.0
 20
0.0
 30
0.0
  9
$EXTMAX
 10
210.0
 20
297.0
 30
0.0
  9
$LIMMIN
 10
0.0
 20
0.0
  9
$LIMMAX
 10
210.0
 20
297.0
  9
$ORTHOMODE
 70
     0
  9
$REGENMODE
 70
     1
  9
$FILLMODE
 70
     1
  9
$QTEXTMODE
 70
     0
  9
$MIRRTEXT
 70
     0
  9
$LTSCALE
 40
0.75
  9
$ATTMODE
 70
     1
  9
$TEXTSIZE
 40
3.5
  9
$TRACEWID
 40
1.0
  9
$TEXTSTYLE
  7
Standard
  9
$CLAYER
  8
0
  9
$CELTYPE
  6
ByLayer
  9
$CECOLOR
 62
   256
  9
$CELTSCALE
 40
1.0
  9
$DISPSILH
 70
     0
  9
$DIMSCALE
 40
1.0
  9
$DIMASZ
 40
3.5
  9
$DIMEXO
 40
2.1
  9
$DIMDLI
 40
10.5
  9
$DIMRND
 40
0.0
  9
$DIMDLE
 40
0.0
  9
$DIMEXE
 40
2.1
  9
$DIMTP
 40
0.1
  9
$DIMTM
 40
0.1
  9
$DIMTXT
 40
3.5
  9
$DIMCEN
 40
0.0
  9
$DIMTSZ
 40
0.0
  9
$DIMTOL
 70
     0
  9
$DIMLIM
 70
     0
  9
$DIMTIH
 70
     0
  9
$DIMTOH
 70
     0
  9
$DIMSE1
 70
     0
  9
$DIMSE2
 70
     0
  9
$DIMTAD
 70
     1
  9
$DIMZIN
 70
    12
  9
$DIMBLK
  1

  9
$DIMASO
 70
     1
  9
$DIMSHO
 70
     1
  9
$DIMPOST
  1

  9
$DIMAPOST
  1

  9
$DIMALT
 70
     0
  9
$DIMALTD
 70
     2
  9
$DIMALTF
 40
0.03937
  9
$DIMLFAC
 40
1.0
  9
$DIMTOFL
 70
     1
  9
$DIMTVP
 40
0.0
  9
$DIMTIX
 70
     0
  9
$DIMSOXD
 70
     0
  9
$DIMSAH
 70
     0
  9
$DIMBLK1
  1

  9
$DIMBLK2
  1

  9
$DIMSTYLE
  2
Dim-ISO-25
  9
$DIMCLRD
 70
     0
  9
$DIMCLRE
 70
     0
  9
$DIMCLRT
 70
     0
  9
$DIMTFAC
 40
0.714286
  9
$DIMGAP
 40
1.4
  9
$DIMJUST
 70
     0
  9
$DIMSD1
 70
     0
  9
$DIMSD2
 70
     0
  9
$DIMTOLJ
 70
     0
  9
$DIMTZIN
 70
    12
  9
$DIMALTZ
 70
    12
  9
$DIMALTTZ
 70
    12
  9
$DIMUPT
 70
     0
  9
$DIMDEC
 70
     2
  9
$DIMTDEC
 70
     2
  9
$DIMALTU
 70
     2
  9
$DIMALTTD
 70
     4
  9
$DIMTXSTY
  7
Standard
  9
$DIMAUNIT
 70
     0
  9
$DIMADEC
 70
     2
  9
$DIMALTRND
 40
0.0
  9
$DIMAZIN
 70
     3
  9
$DIMDSEP
 70
    46
  9
$DIMATFIT
 70
     3
  9
$DIMFRAC
 70
     0
  9
$DIMLDRBLK
  1

  9
$DIMLUNIT
 70
     2
  9
$DIMLWD
 70
    -2
  9
$DIMLWE
 70
    -2
  9
$DIMTMOVE
 70
     0
  9
$DIMFXL
 40
1.0
  9
$DIMFXLON
 70
     0
  9
$DIMJOGANG
 40
0.785398
  9
$DIMTFILL
 70
     0
  9
$DIMTFILLCLR
 70
     0
  9
$DIMARCSYM
 70
     0
  9
$DIMLTYPE
  6

  9
$DIMLTEX1
  6

  9
$DIMLTEX2
  6

  9
$DIMTXTDIRECTION
 70
     0
  9
$LUNITS
 70
     2
  9
$LUPREC
 70
     4
  9
$SKETCHINC
 40
1.0
  9
$FILLETRAD
 40
0.0
  9
$AUNITS
 70
     0
  9
$AUPREC
 70
     0
  9
$MENU
  1
.
  9
$ELEVATION
 40
0.0
  9
$PELEVATION
 40
0.0
  9
$THICKNESS
 40
0.0
  9
$LIMCHECK
 70
     0
  9
$CHAMFERA
 40
0.0
  9
$CHAMFERB
 40
0.0
  9
$CHAMFERC
 40
0.0
  9
$CHAMFERD
 40
0.0
  9
$SKPOLY
 70
     0
  9
$TDCREATE
 40
2460479.465185185
  9
$TDUCREATE
 40
2460479.381851852
  9
$TDUPDATE
 40
2460479.465185185
  9
$TDUUPDATE
 40
2460479.381851852
  9
$TDINDWG
 40
0.0000000000
  9
$TDUSRTIMER
 40
0.0000000000
  9
$USRTIMER
 70
     1
  9
$ANGBASE
 50
0.0
  9
$ANGDIR
 70
     0
  9
$PDMODE
 70
     0
  9
$PDSIZE
 40
0.0
  9
$PLINEWID
 40
0.0
  9
$SPLFRAME
 70
     0
  9
$SPLINETYPE
 70
     6
  9
$SPLINESEGS
 70
     8
  9
$HANDSEED
  5
1FE
  9
$SURFTAB1
 70
     6
  9
$SURFTAB2
 70
     6
  9
$SURFTYPE
 70
     6
  9
$SURFU
 70
     6
  9
$SURFV
 70
     6
  9
$UCSBASE
  2

  9
$UCSNAME
  2

  9
$UCSORG
 10
0.0
 20
0.0
 30
0.0
  9
$UCSXDIR
 10
1.0
 20
0.0
 30
0.0
  9
$UCSYDIR
 10
0.0
 20
1.0
 30
0.0
  9
$UCSORTHOREF
  2

  9
$UCSORTHOVIEW
 70
     0
  9
$UCSORGTOP
 10
0.0
 20
0.0
 30
0.0
  9
$UCSORGBOTTOM
 10
0.0
 20
0.0
 30
0.0
  9
$UCSORGLEFT
 10
0.0
 20
0.0
 30
0.0
  9
$UCSORGRIGHT
 10
0.0
 20
0.0
 30
0.0
  9
$UCSORGFRONT
 10
0.0
 20
0.0
 30
0.0
  9
$UCSORGBACK
 10
0.0
 20
0.0
 30
0.0
  9
$PUCSBASE
  2

  9
$PUCSNAME
  2

  9
$PUCSORG
 10
0.0
 20
0.0
 30
0.0
  9
$PUCSXDIR
 10
1.0
 20
0.0
 30
0.0
  9
$PUCSYDIR
 10
0.0
 20
1.0
 30
0.0
  9
$PUCSORTHOREF
  2

  9
$PUCSORTHOVIEW
 70
     0
  9
$PUCSORGTOP
 10
0.0
 20
0.0
 30
0.0
  9
$PUCSORGBOTTOM
 10
0.0
 20
0.0
 30
0.0
  9
$PUCSORGLEFT
 10
0.0
 20
0.0
 30
0.0
  9
$PUCSORGRIGHT
 10
0.0
 20
0.0
 30
0.0
  9
$PUCSORGFRONT
 10
0.0
 20
0.0
 30
0.0
  9
$PUCSORGBACK
 10
0.0
 20
0.0
 30
0.0
  9
$USERI1
 70
     0
  9
$USERI2
 70
     0
  9
$USERI3
 70
     0
  9
$USERI4
 70
     0
  9
$USERI5
 70
     0
  9
$USERR1
 40
0.0
  9
$USERR2
 40
0.0
  9
$USERR3
 40
0.0
  9
$USERR4
 40
0.0
  9
$USERR5
 40
0.0
  9
$WORLDVIEW
 70
     1
  9
$SHADEDGE
 70
     3
  9
$SHADEDIF
 70
    70
  9
$TILEMODE
 70
     1
  9
$MAXACTVP
 70
    64
  9
$PINSBASE
 10
0.0
 20
0.0
 30
0.0
  9
$PLIMCHECK
 70
     0
  9
$PEXTMIN
 10
1.000000E+20
 20
1.000000E+20
 30
1.000000E+20
  9
$PEXTMAX
 10
-1.000000E+20
 20
-1.000000E+20
 30
-1.000000E+20
  9
$PLIMMIN
 10
0.0
 20
0.0
  9
$PLIMMAX
 10
12.0
 20
9.0
  9
$UNITMODE
 70
     0
  9
$VISRETAIN
 70
     1
  9
$PLINEGEN
 70
     0
  9
$PSLTSCALE
 70
     1
  9
$TREEDEPTH
 70
  3020
  9
$CMLSTYLE
  2
Standard
  9
$CMLJUST
 70
     0
  9
$CMLSCALE
 40
20.0
  9
$PROXYGRAPHICS
 70
     1
  9
$MEASUREMENT
 70
     1
  9
$CELWEIGHT
370
    -1
  9
$ENDCAPS
280
     0
  9
$JOINSTYLE
280
     0
  9
$LWDISPLAY
290
     0
  9
$INSUNITS
 70
     4
  9
$HYPERLINKBASE
  1

  9
$STYLESHEET
  1

  9
$XEDIT
290
     1
  9
$CEPSNTYPE
380
     0
  9
$PSTYLEMODE
290
     1
  9
$FINGERPRINTGUID
  2
{8EE10861-BDB3-5E42-96FE-FCE6B5F04F17}
  9
$VERSIONGUID
  2
{23E84CC8-8692-D74A-8AD3-F575E2F505FD}
  9
$EXTNAMES
290
     1
  9
$PSVPSCALE
 40
0.0
  9
$OLESTARTUP
290
     0
  9
$SORTENTS
280
   127
  9
$INDEXCTL
280
     0
  9
$HIDETEXT
280
     1
  9
$XCLIPFRAME
280
     0
  9
$HALOGAP
280
     0
  9
$OBSCOLOR
 70
   257
  9
$OBSLTYPE
280
     0
  9
$INTERSECTIONDISPLAY
280
     0
  9
$INTERSECTIONCOLOR
 70
   257
  9
$DIMASSOC
280
     2
  9
$PROJECTNAME
  1

  9
$CAMERADISPLAY
290
     0
  9
$LENSLENGTH
 40
50.0
  9
$CAMERAHEIGHT
 40
0.0
  9
$STEPSPERSEC
 40
2.0
  9
$STEPSIZE
 40
6.0
  9
$3DDWFPREC
 40
2.0
  9
$PSOLWIDTH
 40
5.0
  9
$PSOLHEIGHT
 40
80.0
  9
$LOFTANG1
 40
1.570796
  9
$LOFTANG2
 40
1.570796
  9
$LOFTMAG1
 40
0.0
  9
$LOFTMAG2
 40
0.0
  9
$LOFTPARAM
 70
     7
  9
$LOFTNORMALS
280
     1
  9
$LATITUDE
 40
37.795
  9
$LONGITUDE
 40
-122.394
  9
$NORTHDIRECTION
 40
0.0
  9
$TIMEZONE
 70
 -8000
  9
$LIGHTGLYPHDISPLAY
280
     1
  9
$TILEMODELIGHTSYNCH
280
     1
  9
$CMATERIAL
347
11
  9
$SOLIDHIST
280
     0
  9
$SHOWHIST
280
     1
  9
$DWFFRAME
280
     2
  9
$DGNFRAME
280
     0
  9
$REALWORLDSCALE
290
     1
  9
$INTERFERECOLOR
 62
     1
  9
$INTERFEREOBJVS
345
33
  9
$INTERFEREVPVS
346
30
  9
$CSHADOW
280
     0
  9
$SHADOWPLANELOCATION
 40
0.0
  0
ENDSEC
  0
SECTION
  2
CLASSES
  0
CLASS
  1
ACDBDICTIONARYWDFLT
  2
AcDbDictionaryWithDefault
  3
ObjectDBX Classes
 90
        0
 91
        1
280
     0
281
     0
  0
CLASS
  1
MATERIAL
  2
AcDbMaterial
  3
ObjectDBX Classes
 90
     1153
 91
        3
280
     0
281
     0
  0
CLASS
  1
VISUALSTYLE
  2
AcDbVisualStyle
  3
ObjectDBX Classes
 90
     4095
 91
       24
280
     0
281
     0
  0
CLASS
  1
SCALE
  2
AcDbScale
  3
ObjectDBX Classes
 90
     1153
 91
       17
280
     0
281
     0
  0
CLASS
  1
TABLESTYLE
  2
AcDbTableStyle
  3
ObjectDBX Classes
 90
     4095
 91
        1
280
     0
281
     0
  0
CLASS
  1
MLEADERSTYLE
  2
AcDbMLeaderStyle
  3
ACDB_MLEADERSTYLE_CLASS
 90
     4095
 91
        1
280
     0
281
     0
  0
CLASS
  1
ACDBSECTIONVIEWSTYLE
  2
AcDbSectionViewStyle
  3
ObjectDBX Classes
 90
     1025
 91
        1
280
     0
281
     0
  0
CLASS
  1
ACDBDETAILVIEWSTYLE
  2
AcDbDetailViewStyle
  3
ObjectDBX Classes
 90
     1025
 91
        1
280
     0
281
     0
  0
CLASS
  1
ACMESCOPE
  2
AcMeScope
  3
AcMeServices
 90
     1024
 91
        1
280
     0
281
     0
  0
CLASS
  1
ACMECOMMANDHISTORY
  2
AcMeCommandHistory
  3
AcMeServices
 90
     1024
 91
        1
280
     0
281
     0
  0
CLASS
  1
ACIMSYSVARMAN
  2
AcImSysVarManager
  3
AcMeServices
 90
     1024
 91
        1
280
     0
281
     0
  0
CLASS
  1
ACIMINTSYSVAR
  2
AcImIntSysVar
  3
AcMeServices
 90
     1024
 91
        1
280
     0
281
     0
  0
CLASS
  1
ACMESTATEMGR
  2
AcMeStateMgr
  3
AcMeServices
 90
     1024
 91
        1
280
     0
281
     0
  0
CLASS
  1
ACGREFMASTER
  2
AcGrefMaster
  3
AcAttribServices
 90
     1024
 91
        1
280
     0
281
     0
  0
CLASS
  1
SORTENTSTABLE
  2
AcDbSortentsTable
  3
ObjectDBX Classes
 90
        0
 91
        5
280
     0
281
     0
  0
CLASS
  1
DICTIONARYVAR
  2
AcDbDictionaryVar
  3
ObjectDBX Classes
 90
        0
 91
        6
280
     0
281
     0
  0
CLASS
  1
CELLSTYLEMAP
  2
AcDbCellStyleMap
  3
ObjectDBX Classes
 90
     1152
 91
        1
280
     0
281
     0
  0
ENDSEC
  0
SECTION
  2
TABLES
  0
TABLE
  2
VPORT
  5
8
330
0
100
AcDbSymbolTable
 70
     1
1001
ACAD
1000
DbSaveVer
1071
      298
  0
VPORT
  5
57
330
8
100
AcDbSymbolTableRecord
100
AcDbViewportTableRecord
  2
*Active
 70
     0
 10
0.0
 20
0.0
 11
1.0
 21
1.0
 12
105.0
 22
148.5
 13
0.0
 23
0.0
 14
0.5
 24
0.5
 15
0.0
 25
0.0
 16
0.0
 26
0.0
 36
1.0
 17
0.0
 27
0.0
 37
0.0
 40
297.0
 41
1.807372
 42
50.0
 43
0.0
 44
0.0
 50
0.0
 51
0.0
 71
     0
 72
 20000
 73
     1
 74
     0
 75
     0
 76
     0
 77
     0
 78
     0
281
     0
 65
     1
110
0.0
120
0.0
130
0.0
111
1.0
121
0.0
131
0.0
112
0.0
122
1.0
132
0.0
 79
     0
146
0.0
348
2F
 60
     3
 61
     5
292
     1
282
     1
141
0.0
142
0.0
 63
   250
421
  3355443
  0
ENDTAB
  0
TABLE
  2
LTYPE
  5
5
330
0
100
AcDbSymbolTable
 70
    15
  0
LTYPE
  5
5B
330
5
100
AcDbSymbolTableRecord
100
AcDbLinetypeTableRecord
  2
ByBlock
 70
     0
  3

 72
    65
 73
     0
 40
0.0
  0
LTYPE
  5
5C
330
5
100
AcDbSymbolTableRecord
100
AcDbLinetypeTableRecord
  2
ByLayer
 70
     0
  3

 72
    65
 73
     0
 40
0.0
  0
LTYPE
  5
5D
330
5
100
AcDbSymbolTableRecord
100
AcDbLinetypeTableRecord
  2
Continuous
 70
     0
  3
Solid line
 72
    65
 73
     0
 40
0.0
  0
LTYPE
  5
81
330
5
100
AcDbSymbolTableRecord
100
AcDbLinetypeTableRecord
  2
HIDDEN
 70
     0
  3
Hidden __ __ __ __ __ __ __ __ __ __ __ __ __ _
 72
    65
 73
     2
 40
9.525
 49
6.35
 74
     0
 49
-3.175
 74
     0
  0
LTYPE
  5
82
330
5
100
AcDbSymbolTableRecord
100
AcDbLinetypeTableRecord
  2
PHANTOM2
 70
     0
  3
Phantom (.5x) ___ _ _ ___ _ _ ___ _ _ ___ _ _
 72
    65
 73
     6
 40
31.75
 49
15.875
 74
     0
 49
-3.175
 74
     0
 49
3.175
 74
     0
 49
-3.175
 74
     0
 49
3.175
 74
     0
 49
-3.175
 74
     0
  0
LTYPE
  5
83
330
5
100
AcDbSymbolTableRecord
100
AcDbLinetypeTableRecord
  2
CENTER
 70
     0
  3
Center ____ _ ____ _ ____ _ ____ _ ____ _ ____
 72
    65
 73
     4
 40
50.8
 49
31.75
 74
     0
 49
-6.35
 74
     0
 49
6.35
 74
     0
 49
-6.35
 74
     0
  0
LTYPE
  5
96
330
5
100
AcDbSymbolTableRecord
100
AcDbLinetypeTableRecord
  2
HIDDEN2
 70
     0
  3
Hidden (.5x) _ _ _ _ _ _ _ _ _ _ _ _ _ _ _ _ _
 72
    65
 73
     2
 40
4.7625
 49
3.175
 74
     0
 49
-1.5875
 74
     0
  0
LTYPE
  5
97
330
5
100
AcDbSymbolTableRecord
100
AcDbLinetypeTableRecord
  2
AM_ISO02W050
 70
     0
  3
__ __ __ __ __ __ __ __ __ __ __ __ __ __ __
 72
    65
 73
     2
 40
7.5
 49
6.0
 74
     0
 49
-1.5
 74
     0
  0
LTYPE
  5
98
330
5
100
AcDbSymbolTableRecord
100
AcDbLinetypeTableRecord
  2
AM_ISO08W050
 70
     0
  3
____ . ____ . ____ . ____ . ____ . ____ . ____
 72
    65
 73
     4
 40
18.0
 49
12.0
 74
     0
 49
-1.5
 74
     0
 49
3.0
 74
     0
 49
-1.5
 74
     0
  0
LTYPE
  5
99
330
5
100
AcDbSymbolTableRecord
100
AcDbLinetypeTableRecord
  2
AM_ISO09W050
 70
     0
  3
_____ . . _____ . . _____ . . ____ .. ____
 72
    65
 73
     6
 40
22.5
 49
12.0
 74
     0
 49
-1.5
 74
     0
 49
3.0
 74
     0
 49
-1.5
 74
     0
 49
3.0
 74
     0
 49
-1.5
 74
     0
  0
LTYPE
  5
9A
330
5
100
AcDbSymbolTableRecord
100
AcDbLinetypeTableRecord
  2
Amconstr
 70
     0
  3
_______________________
 72
    65
 73
     2
 40
9999.0
 49
9999.0
 74
     0
 49
0.0
 74
     0
  0
LTYPE
  5
9B
330
5
100
AcDbSymbolTableRecord
100
AcDbLinetypeTableRecord
  2
AM_ISO08W050x2
 70
     0
  3
__ . __ . __ . __ . __ . __
 72
    65
 73
     4
 40
9.0
 49
6.0
 74
     0
 49
-0.75
 74
     0
 49
1.5
 74
     0
 49
-0.75
 74
     0
  0
LTYPE
  5
9C
330
5
100
AcDbSymbolTableRecord
100
AcDbLinetypeTableRecord
  2
AM_ISO02W050x2
 70
     0
  3
 _ _ _ _ _ _ _ _ _ _ _ _
 72
    65
 73
     2
 40
3.75
 49
3.0
 74
     0
 49
-0.75
 74
     0
  0
LTYPE
  5
9D
330
5
100
AcDbSymbolTableRecord
100
AcDbLinetypeTableRecord
  2
Amzigzag
 70
     0
  3
/\/-/\/-/\/-/\/-/\/-/\/
 72
    65
 73
     2
 40
11.0001
 49
0.0001
 74
     4
 75
   136
340
93
 46
0.04
 50
0.0
 44
0.0
 45
0.0
 49
-11.0
 74
     0
  0
LTYPE
  5
9E
330
5
100
AcDbSymbolTableRecord
100
AcDbLinetypeTableRecord
  2
ACISOWELD
 70
     0
  3
_ _ _ _ _
 72
    65
 73
     2
 40
2.0
 49
2.0
 74
     0
 49
-1.0
 74
     0
  0
LTYPE
  5
9F
330
5
100
AcDbSymbolTableRecord
100
AcDbLinetypeTableRecord
  2
ACISOTGL
 70
     0
  3
_ _ _ _ _
 72
    65
 73
     2
 40
3.0
 49
2.0
 74
     0
 49
-1.0
 74
     0
  0
LTYPE
  5
A0
330
5
100
AcDbSymbolTableRecord
100
AcDbLinetypeTableRecord
  2
ACISOTGB
 70
     0
  3
__ . . __ . .
 72
    65
 73
     6
 40
9.0
 49
4.0
 74
     0
 49
-1.0
 74
     0
 49
1.0
 74
     0
 49
-1.0
 74
     0
 49
1.0
 74
     0
 49
-1.0
 74
     0
  0
ENDTAB
  0
TABLE
  2
LAYER
  5
2
330
0
100
AcDbSymbolTable
 70
     7
  0
LAYER
  5
54
330
2
100
AcDbSymbolTableRecord
100
AcDbLayerTableRecord
  2
0
 70
     0
 62
     7
  6
Continuous
370
    -3
390
F
347
21
348
0
1001
AcAecLayerStandard
1000

1000

  0
LAYER
  5
79
330
2
100
AcDbSymbolTableRecord
100
AcDbLayerTableRecord
  2
Defpoints
 70
     0
 62
     7
  6
Continuous
290
     0
370
    -3
390
F
347
21
348
0
1001
AcAecLayerStandard
1000

1000

  0
LAYER
  5
AC
330
2
100
AcDbSymbolTableRecord
100
AcDbLayerTableRecord
  2
Hidden
 70
     0
 62
     7
  6
HIDDEN2
370
    18
390
F
347
21
348
0
  0
LAYER
  5
AE
330
2
100
AcDbSymbolTableRecord
100
AcDbLayerTableRecord
  2
Visible
 70
     0
 62
     7
  6
Continuous
370
    35
390
F
347
21
348
0
  0
LAYER
  5
11E
330
2
100
AcDbSymbolTableRecord
100
AcDbLayerTableRecord
  2
BORDER
 70
     0
 62
     7
  6
Continuous
370
    18
390
F
347
21
348
0
1001
AcAecLayerStandard
1000

1000

1001
AcCmTransparency
1071
        0
  0
LAYER
  5
134
330
2
100
AcDbSymbolTableRecord
100
AcDbLayerTableRecord
  2
TITLEBLOCK
 70
     0
 62
     7
  6
Continuous
370
    25
390
F
347
21
348
0
1001
AcAecLayerStandard
1000

1000

1001
AcCmTransparency
1071
        0
  0
ENDTAB
  0
TABLE
  2
STYLE
  5
3
330
0
100
AcDbSymbolTable
 70
     5
  0
STYLE
  5
55
330
3
100
AcDbSymbolTableRecord
100
AcDbTextStyleTableRecord
  2
Standard
 70
     0
 40
0.0
 41
1.0
 50
0.0
 71
     0
 42
3.5
  3
arial.ttf
  4

1001
ACAD
1000
Arial
1071
       34
  0
STYLE
  5
5A
330
3
100
AcDbSymbolTableRecord
100
AcDbTextStyleTableRecord
  2
Annotative
 70
     0
 40
0.0
 41
1.0
 50
0.0
 71
     0
 42
0.2
  3
txt
  4

1001
AcadAnnotative
1000
AnnotativeData
1002
{
1070
     1
1070
     1
1002
}
  0
STYLE
  5
92
330
3
100
AcDbSymbolTableRecord
100
AcDbTextStyleTableRecord
  2
FusionTitle
 70
     0
 40
0.0
 41
1.0
 50
0.0
 71
     0
 42
2.5
  3
arial.ttf
  4

1001
ACAD
1000
Arial
1071
       34
  0
STYLE
  5
93
330
3
100
AcDbSymbolTableRecord
100
AcDbTextStyleTableRecord
  2

 70
     1
 40
0.0
 41
1.0
 50
0.0
 71
     0
 42
10.0
  3
genltshp.shx
  4

  0
STYLE
  5
94
330
3
100
AcDbSymbolTableRecord
100
AcDbTextStyleTableRecord
  2
ACISOGDT
 70
     0
 40
0.0
 41
1.0
 50
0.0
 71
     0
 42
10.0
  3
amgdt.shx
  4

  0
ENDTAB
  0
TABLE
  2
VIEW
  5
6
330
0
100
AcDbSymbolTable
 70
     0
  0
ENDTAB
  0
TABLE
  2
UCS
  5
7
330
0
100
AcDbSymbolTable
 70
     0
  0
ENDTAB
  0
TABLE
  2
APPID
  5
9
330
0
100
AcDbSymbolTable
 70
    19
  0
APPID
  5
56
330
9
100
AcDbSymbolTableRecord
100
AcDbRegAppTableRecord
  2
ACAD
 70
     0
  0
APPID
  5
5E
330
9
100
AcDbSymbolTableRecord
100
AcDbRegAppTableRecord
  2
AcadAnnotative
 70
     0
  0
APPID
  5
78
330
9
100
AcDbSymbolTableRecord
100
AcDbRegAppTableRecord
  2
ACAD_PSEXT
 70
     0
  0
APPID
  5
7A
330
9
100
AcDbSymbolTableRecord
100
AcDbRegAppTableRecord
  2
MCAD_NO_VIS
 70
     0
  0
APPID
  5
7B
330
9
100
AcDbSymbolTableRecord
100
AcDbRegAppTableRecord
  2
ACAD_TEMP_GRAPHIC
 70
     0
  0
APPID
  5
84
330
9
100
AcDbSymbolTableRecord
100
AcDbRegAppTableRecord
  2
ACAD_DSTYLE_DIMJAG
 70
     0
  0
APPID
  5
85
330
9
100
AcDbSymbolTableRecord
100
AcDbRegAppTableRecord
  2
ACAD_DSTYLE_DIMTALN
 70
     0
  0
APPID
  5
86
330
9
100
AcDbSymbolTableRecord
100
AcDbRegAppTableRecord
  2
ACAD_NAV_VCDISPLAY
 70
     0
  0
APPID
  5
87
330
9
100
AcDbSymbolTableRecord
100
AcDbRegAppTableRecord
  2
AcAecLayerStandard
 70
     0
  0
APPID
  5
88
330
9
100
AcDbSymbolTableRecord
100
AcDbRegAppTableRecord
  2
AcCmTransparency
 70
     0
  0
APPID
  5
89
330
9
100
AcDbSymbolTableRecord
100
AcDbRegAppTableRecord
  2
AcDbDynamicBlockGUID
 70
     0
  0
APPID
  5
8A
330
9
100
AcDbSymbolTableRecord
100
AcDbRegAppTableRecord
  2
ACAD_DSTYLE_DIMBREAK
 70
     0
  0
APPID
  5
8B
330
9
100
AcDbSymbolTableRecord
100
AcDbRegAppTableRecord
  2
FUSIONTITLEBLOCK
 70
     0
  0
APPID
  5
8C
330
9
100
AcDbSymbolTableRecord
100
AcDbRegAppTableRecord
  2
FUSIONCURRENTTITLEBLOCK
 70
     0
  0
APPID
  5
8D
330
9
100
AcDbSymbolTableRecord
100
AcDbRegAppTableRecord
  2
AcSynergy
 70
     0
  0
APPID
  5
8E
330
9
100
AcDbSymbolTableRecord
100
AcDbRegAppTableRecord
  2
GENIUS_GENSCREG_15
 70
     0
  0
APPID
  5
8F
330
9
100
AcDbSymbolTableRecord
100
AcDbRegAppTableRecord
  2
GENIUS_GENOBJ-N-SDF_13
 70
     0
  0
APPID
  5
90
330
9
100
AcDbSymbolTableRecord
100
AcDbRegAppTableRecord
  2
GENIUS_GENODEF_13
 70
     0
  0
APPID
  5
91
330
9
100
AcDbSymbolTableRecord
100
AcDbRegAppTableRecord
  2
ACATTRIBSERVICES
 70
     0
  0
ENDTAB
  0
TABLE
  2
DIMSTYLE
  5
A
330
0
100
AcDbSymbolTable
 70
     4
100
AcDbDimStyleTable
 71
     1
340
A4
  0
DIMSTYLE
105
58
330
A
100
AcDbSymbolTableRecord
100
AcDbDimStyleTableRecord
  2
Standard
 70
     0
 41
3.5
 42
2.1
 43
10.5
 44
2.1
 78
    12
 79
     3
140
3.5
143
0.03937
146
0.714286
147
1.4
179
     2
271
     2
272
     2
284
    12
340
55
  0
DIMSTYLE
105
59
330
A
100
AcDbSymbolTableRecord
100
AcDbDimStyleTableRecord
  2
Annotative
 70
     0
 40
0.0
 41
3.5
 42
2.1
 43
10.5
 44
2.1
 73
     0
 74
     0
 77
     1
 78
    12
 79
     3
140
3.5
141
2.5
143
0.03937
146
0.714286
147
1.4
171
     3
172
     1
179
     2
271
     2
272
     2
274
     3
278
    44
283
     0
284
    12
340
55
1001
AcadAnnotative
1000
AnnotativeData
1002
{
1070
     1
1070
     1
1002
}
  0
DIMSTYLE
105
A3
330
A
100
AcDbSymbolTableRecord
100
AcDbDimStyleTableRecord
  2
ISO-25
 70
     0
  4
in
 41
3.5
 42
2.1
 43
10.5
 44
2.1
 47
0.1
 48
0.1
 73
     0
 74
     0
 77
     1
 78
    12
 79
     3
140
3.5
141
0.0
143
0.03937
146
0.714286
147
1.4
171
     4
172
     1
176
   256
177
   256
178
   256
179
     2
271
     2
272
     2
274
     4
283
     0
284
    12
285
     8
340
55
1001
ACAD_DSTYLE_DIMJAG
1070
   388
1040
1.5
1001
ACAD_DSTYLE_DIMTALN
1070
   392
1070
     1
1001
ACAD_DSTYLE_DIMBREAK
1070
   391
1040
3.5
  0
DIMSTYLE
105
A4
330
A
100
AcDbSymbolTableRecord
100
AcDbDimStyleTableRecord
  2
Dim-ISO-25
 70
     0
 41
3.5
 42
2.1
 43
10.5
 44
2.1
 47
0.1
 48
0.1
 73
     0
 74
     0
 77
     1
 78
    12
 79
     3
140
3.5
141
0.0
143
0.03937
146
0.714286
147
1.4
172
     1
179
     2
271
     2
272
     2
274
     4
283
     0
284
    12
285
    12
286
    12
340
55
1001
ACAD_DSTYLE_DIMJAG
1070
   388
1040
1.5
1001
ACAD_DSTYLE_DIMTALN
1070
   392
1070
     1
1001
ACAD_DSTYLE_DIMBREAK
1070
   391
1040
3.5
  0
ENDTAB
  0
TABLE
  2
BLOCK_RECORD
  5
1
330
0
100
AcDbSymbolTable
 70
     4
  0
BLOCK_RECORD
  5
70
102
{ACAD_XDICTIONARY
360
A5
102
}
330
1
100
AcDbSymbolTableRecord
100
AcDbBlockTableRecord
  2
*Model_Space
340
73
 70
     0
280
     1
281
     0
  0
BLOCK_RECORD
  5
6C
330
1
100
AcDbSymbolTableRecord
100
AcDbBlockTableRecord
  2
*Paper_Space
340
6F
 70
     0
280
     1
281
     0
  0
BLOCK_RECORD
  5
74
330
1
100
AcDbSymbolTableRecord
100
AcDbBlockTableRecord
  2
*Paper_Space0
340
77
 70
     0
280
     1
281
     0
  0
BLOCK_RECORD
  5
11F
102
{ACAD_XDICTIONARY
360
120
102
}
330
1
100
AcDbSymbolTableRecord
100
AcDbBlockTableRecord
  2
ISO_A4(P)_SHEET
340
0
310
2800000020000000200000000100080000000000000400000000000000000000000000000000000000000000000080000080000000808000800000008000800080800000C0C0C000C0DCC000F0CAA6000020400000206000002080000020A0000020C0000020E00000400000004020000040400000406000004080000040A0
310
000040C0000040E00000600000006020000060400000606000006080000060A0000060C0000060E00000800000008020000080400000806000008080000080A0000080C0000080E00000A0000000A0200000A0400000A0600000A0800000A0A00000A0C00000A0E00000C0000000C0200000C0400000C0600000C0800000C0
310
A00000C0C00000C0E00000E0000000E0200000E0400000E0600000E0800000E0A00000E0C00000E0E00040000000400020004000400040006000400080004000A0004000C0004000E00040200000402020004020400040206000402080004020A0004020C0004020E000404000004040200040404000404060004040800040
310
40A0004040C0004040E00040600000406020004060400040606000406080004060A0004060C0004060E00040800000408020004080400040806000408080004080A0004080C0004080E00040A0000040A0200040A0400040A0600040A0800040A0A00040A0C00040A0E00040C0000040C0200040C0400040C0600040C08000
310
40C0A00040C0C00040C0E00040E0000040E0200040E0400040E0600040E0800040E0A00040E0C00040E0E00080000000800020008000400080006000800080008000A0008000C0008000E00080200000802020008020400080206000802080008020A0008020C0008020E00080400000804020008040400080406000804080
310
008040A0008040C0008040E00080600000806020008060400080606000806080008060A0008060C0008060E00080800000808020008080400080806000808080008080A0008080C0008080E00080A0000080A0200080A0400080A0600080A0800080A0A00080A0C00080A0E00080C0000080C0200080C0400080C0600080C0
310
800080C0A00080C0C00080C0E00080E0000080E0200080E0400080E0600080E0800080E0A00080E0C00080E0E000C0000000C0002000C0004000C0006000C0008000C000A000C000C000C000E000C0200000C0202000C0204000C0206000C0208000C020A000C020C000C020E000C0400000C0402000C0404000C0406000C0
310
408000C040A000C040C000C040E000C0600000C0602000C0604000C0606000C0608000C060A000C060C000C060E000C0800000C0802000C0804000C0806000C0808000C080A000C080C000C080E000C0A00000C0A02000C0A04000C0A06000C0A08000C0A0A000C0A0C000C0A0E000C0C00000C0C02000C0C04000C0C06000
310
C0C08000C0C0A000F0FBFF00A4A0A000808080000000FF0000FF000000FFFF00FF000000FF00FF00FFFF0000FFFFFF004949494949494949494949494949494949494949494949494949494949494949494949494949FFFF49494949494949494949494949494949FFFF494949494949494949494949FFFFFFFFFFFFFFFFFF
310
FFFFFFFFFFFFFFFFFFFFFF494949494949494949494949FFFF4949494949494949FF4949494949494949FF49494949494949494949494949FF4949494949494949494949494949494949FF49494949494949494949494949FF4949494949494949494949494949494949FF49494949494949494949494949FF494949494949
310
4949494949494949494949FF49494949494949494949494949FF4949494949494949494949494949494949FF49494949494949494949494949FF4949494949494949494949494949494949FF49494949494949494949494949FF4949494949494949494949494949494949FF49494949494949494949494949FF4949494949
310
494949494949494949494949FF49494949494949494949494949FF4949494949494949494949494949494949FF49494949494949494949494949FF4949494949494949494949494949494949FF49494949494949494949494949FF4949494949494949494949494949494949FF49494949494949494949494949FF49494949
310
49494949494949494949494949FF49494949494949494949494949FF4949494949494949494949494949494949FF49494949494949494949494949FFFF494949494949494949494949494949FFFF49494949494949494949494949FF4949494949494949494949494949494949FF49494949494949494949494949FF494949
310
4949494949494949494949494949FF49494949494949494949494949FF4949494949494949494949494949494949FF49494949494949494949494949FF4949494949494949494949494949494949FF49494949494949494949494949FF4949494949494949494949494949494949FF49494949494949494949494949FF4949
310
494949494949494949494949494949FF49494949494949494949494949FF4949494949494949494949494949494949FF49494949494949494949494949FF4949494949494949494949494949494949FF49494949494949494949494949FF4949494949494949494949494949494949FF49494949494949494949494949FF49
310
49494949494949494949494949494949FF49494949494949494949494949FF4949494949494949494949494949494949FF494949494949494949494949FFFF4949494949494949FF4949494949494949FF494949494949494949494949FFFFFFFFFFFFFFFFFFFFFFFFFFFFFFFFFFFFFFFF494949494949494949494949FFFF
310
49494949494949494949494949494949FFFF4949494949494949494949494949494949494949494949494949494949494949494949494949
102
{BLKREFS
331
11D
102
}
 70
     4
280
     1
281
     0
1001
AcDbDynamicBlockGUID
1000
{30EDA5F0-D6FB-C340-B770-9DBB5438D37F}
  0
BLOCK_RECORD
  5
135
102
{ACAD_XDICTIONARY
360
136
102
}
330
1
100
AcDbSymbolTableRecord
100
AcDbBlockTableRecord
  2
ISO_TITLEBLOCK
340
0
310
2800000020000000200000000100080000000000000400000000000000000000000000000000000000000000000080000080000000808000800000008000800080800000C0C0C000C0DCC000F0CAA6000020400000206000002080000020A0000020C0000020E00000400000004020000040400000406000004080000040A0
310
000040C0000040E00000600000006020000060400000606000006080000060A0000060C0000060E00000800000008020000080400000806000008080000080A0000080C0000080E00000A0000000A0200000A0400000A0600000A0800000A0A00000A0C00000A0E00000C0000000C0200000C0400000C0600000C0800000C0
310
A00000C0C00000C0E00000E0000000E0200000E0400000E0600000E0800000E0A00000E0C00000E0E00040000000400020004000400040006000400080004000A0004000C0004000E00040200000402020004020400040206000402080004020A0004020C0004020E000404000004040200040404000404060004040800040
310
40A0004040C0004040E00040600000406020004060400040606000406080004060A0004060C0004060E00040800000408020004080400040806000408080004080A0004080C0004080E00040A0000040A0200040A0400040A0600040A0800040A0A00040A0C00040A0E00040C0000040C0200040C0400040C0600040C08000
310
40C0A00040C0C00040C0E00040E0000040E0200040E0400040E0600040E0800040E0A00040E0C00040E0E00080000000800020008000400080006000800080008000A0008000C0008000E00080200000802020008020400080206000802080008020A0008020C0008020E00080400000804020008040400080406000804080
310
008040A0008040C0008040E00080600000806020008060400080606000806080008060A0008060C0008060E00080800000808020008080400080806000808080008080A0008080C0008080E00080A0000080A0200080A0400080A0600080A0800080A0A00080A0C00080A0E00080C0000080C0200080C0400080C0600080C0
310
800080C0A00080C0C00080C0E00080E0000080E0200080E0400080E0600080E0800080E0A00080E0C00080E0E000C0000000C0002000C0004000C0006000C0008000C000A000C000C000C000E000C0200000C0202000C0204000C0206000C0208000C020A000C020C000C020E000C0400000C0402000C0404000C0406000C0
310
408000C040A000C040C000C040E000C0600000C0602000C0604000C0606000C0608000C060A000C060C000C060E000C0800000C0802000C0804000C0806000C0808000C080A000C080C000C080E000C0A00000C0A02000C0A04000C0A06000C0A08000C0A0A000C0A0C000C0A0E000C0C00000C0C02000C0C04000C0C06000
310
C0C08000C0C0A000F0FBFF00A4A0A000808080000000FF0000FF000000FFFF00FF000000FF00FF00FFFF0000FFFFFF0049494949494949494949494949494949494949494949494949494949494949494949494949494949494949494949494949494949494949494949494949494949494949494949494949494949494949
310
49494949494949494949494949494949494949494949494949494949494949494949494949494949494949494949494949494949494949494949494949494949494949494949494949494949494949494949494949494949494949494949494949494949494949494949494949494949494949494949494949494949494949
310
49494949494949494949494949494949494949494949494949494949494949494949494949494949494949494949494949494949494949494949494949494949494949494949494949494949494949494949494949494949494949494949494949494949494949494949494949494949494949494949494949494949494949
310
49494949494949494949494949494949494949494949494949494949494949494949494949494949494949494949494949494949FFFFFFFFFFFFFFFFFFFFFFFFFFFFFFFFFFFFFFFFFFFFFFFFFFFFFF4949494949FF4949494949494949FFFFFFFFFF49494949FFFFFFFFFFFFFFFFFFFF49494949FF4949494949494949FFFF
310
FFFFFF494949FFFFFFFFFFFFFFFFFFFF4949494949FF4949494949494949FFFFFFFFFF494949FFFFFFFFFFFFFFFFFFFF4949494949FF4949494949494949FFFFFFFFFFFFFFFFFFFFFFFFFFFFFFFFFFFF4949494949FFFFFFFFFFFFFFFFFFFFFFFFFFFFFFFFFFFFFFFFFFFFFFFFFFFFFF4949494949FFFFFF49FFFFFFFFFFFF
310
FFFFFFFFFFFFFFFFFFFFFFFFFFFFFFFFFFFFFFFF4949FFFFFFFFFFFFFFFFFFFFFFFFFFFFFFFFFFFFFFFFFFFFFFFFFFFFFF494949494949494949494949494949494949494949494949494949494949494949494949494949494949494949494949494949494949494949494949494949494949494949494949494949494949
310
49494949494949494949494949494949494949494949494949494949494949494949494949494949494949494949494949494949494949494949494949494949494949494949494949494949494949494949494949494949494949494949494949494949494949494949494949494949494949494949494949494949494949
310
49494949494949494949494949494949494949494949494949494949494949494949494949494949494949494949494949494949494949494949494949494949494949494949494949494949494949494949494949494949494949494949494949494949494949494949494949494949494949494949494949494949494949
310
4949494949494949494949494949494949494949494949494949494949494949494949494949494949494949494949494949494949494949
102
{BLKREFS
331
133
102
}
 70
     4
280
     1
281
     0
1001
AcDbDynamicBlockGUID
1000
{BCD52D05-323A-B54A-8A21-1B84008CF9CB}
1001
FUSIONTITLEBLOCK
1000
TitleBlock
  0
ENDTAB
  0
ENDSEC
  0
SECTION
  2
BLOCKS
  0
BLOCK
  5
71
330
70
100
AcDbEntity
  8
0
100
AcDbBlockBegin
  2
*Model_Space
 70
     0
 10
0.0
 20
0.0
 30
0.0
  3
*Model_Space
  1

  0
ENDBLK
  5
72
330
70
100
AcDbEntity
  8
0
100
AcDbBlockEnd
  0
BLOCK
  5
6D
330
6C
100
AcDbEntity
 67
     1
  8
0
100
AcDbBlockBegin
  2
*Paper_Space
 70
     0
 10
0.0
 20
0.0
 30
0.0
  3
*Paper_Space
  1

  0
ENDBLK
  5
6E
330
6C
100
AcDbEntity
 67
     1
  8
0
100
AcDbBlockEnd
  0
BLOCK
  5
75
330
74
100
AcDbEntity
 67
     1
  8
0
100
AcDbBlockBegin
  2
*Paper_Space0
 70
     0
 10
0.0
 20
0.0
 30
0.0
  3
*Paper_Space0
  1

  0
ENDBLK
  5
76
330
74
100
AcDbEntity
 67
     1
  8
0
100
AcDbBlockEnd
  0
BLOCK
  5
122
330
11F
100
AcDbEntity
  8
0
100
AcDbBlockBegin
  2
ISO_A4(P)_SHEET
 70
     0
 10
0.0
 20
0.0
 30
0.0
  3
ISO_A4(P)_SHEET
  1

  0
LINE
  5
123
330
11F
100
AcDbEntity
  8
Defpoints
100
AcDbLine
 10
0.0
 20
0.0
 30
0.0
 11
15.0
 21
0.0
 31
0.0
  0
LINE
  5
124
330
11F
100
AcDbEntity
  8
Defpoints
100
AcDbLine
 10
195.0
 20
0.0
 30
0.0
 11
210.0
 21
0.0
 31
0.0
  0
LINE
  5
125
330
11F
100
AcDbEntity
  8
BORDER
100
AcDbLine
 10
20.0
 20
10.0
 30
0.0
 11
200.0
 21
10.0
 31
0.0
  0
LINE
  5
126
330
11F
100
AcDbEntity
  8
Defpoints
100
AcDbLine
 10
210.0
 20
0.0
 30
0.0
 11
210.0
 21
15.0
 31
0.0
  0
LINE
  5
127
330
11F
100
AcDbEntity
  8
Defpoints
100
AcDbLine
 10
210.0
 20
282.0
 30
0.0
 11
210.0
 21
297.0
 31
0.0
  0
LINE
  5
128
330
11F
100
AcDbEntity
  8
Defpoints
100
AcDbLine
 10
210.0
 20
297.0
 30
0.0
 11
195.0
 21
297.0
 31
0.0
  0
LINE
  5
129
330
11F
100
AcDbEntity
  8
Defpoints
100
AcDbLine
 10
15.0
 20
297.0
 30
0.0
 11
0.0
 21
297.0
 31
0.0
  0
LINE
  5
12A
330
11F
100
AcDbEntity
  8
BORDER
100
AcDbLine
 10
200.0
 20
287.0
 30
0.0
 11
20.0
 21
287.0
 31
0.0
  0
LINE
  5
12B
330
11F
100
AcDbEntity
  8
Defpoints
100
AcDbLine
 10
0.0
 20
297.0
 30
0.0
 11
0.0
 21
282.0
 31
0.0
  0
LINE
  5
12C
330
11F
100
AcDbEntity
  8
Defpoints
100
AcDbLine
 10
0.0
 20
15.0
 30
0.0
 11
0.0
 21
0.0
 31
0.0
  0
LINE
  5
12D
330
11F
100
AcDbEntity
  8
BORDER
100
AcDbLine
 10
20.0
 20
287.0
 30
0.0
 11
20.0
 21
10.0
 31
0.0
  0
LINE
  5
12E
330
11F
100
AcDbEntity
  8
BORDER
100
AcDbLine
 10
200.0
 20
287.0
 30
0.0
 11
200.0
 21
10.0
 31
0.0
  0
LINE
  5
12F
330
11F
100
AcDbEntity
  8
BORDER
100
AcDbLine
 10
110.0
 20
292.0
 30
0.0
 11
110.0
 21
282.0
 31
0.0
  0
LINE
  5
130
330
11F
100
AcDbEntity
  8
BORDER
100
AcDbLine
 10
15.0
 20
148.5
 30
0.0
 11
25.0
 21
148.5
 31
0.0
  0
LINE
  5
131
330
11F
100
AcDbEntity
  8
BORDER
100
AcDbLine
 10
205.0
 20
148.5
 30
0.0
 11
195.0
 21
148.5
 31
0.0
  0
ENDBLK
  5
132
330
11F
100
AcDbEntity
  8
0
100
AcDbBlockEnd
  0
BLOCK
  5
138
330
135
100
AcDbEntity
  8
0
100
AcDbBlockBegin
  2
ISO_TITLEBLOCK
 70
     2
 10
0.0
 20
0.0
 30
0.0
  3
ISO_TITLEBLOCK
  1

  0
LINE
  5
139
330
135
100
AcDbEntity
  8
TITLEBLOCK
100
AcDbLine
 10
-180.0
 20
0.0
 30
0.0
 11
0.0
 21
0.0
 31
0.0
  0
LINE
  5
13A
330
135
100
AcDbEntity
  8
TITLEBLOCK
100
AcDbLine
 10
-61.0
 20
10.0
 30
0.0
 11
0.0
 21
10.0
 31
0.0
  0
LINE
  5
13B
330
135
100
AcDbEntity
  8
TITLEBLOCK
100
AcDbLine
 10
-122.0
 20
27.0
 30
0.0
 11
0.0
 21
27.0
 31
0.0
  0
LINE
  5
13C
330
135
100
AcDbEntity
  8
TITLEBLOCK
100
AcDbLine
 10
-180.0
 20
37.0
 30
0.0
 11
0.0
 21
37.0
 31
0.0
  0
LINE
  5
13D
330
135
100
AcDbEntity
  8
TITLEBLOCK
100
AcDbLine
 10
0.0
 20
0.0
 30
0.0
 11
0.0
 21
47.0
 31
0.0
  0
LINE
  5
13E
330
135
100
AcDbEntity
  8
TITLEBLOCK
100
AcDbLine
 10
-15.0
 20
0.0
 30
0.0
 11
-15.0
 21
10.0
 31
0.0
  0
LINE
  5
13F
330
135
100
AcDbEntity
  8
TITLEBLOCK
100
AcDbLine
 10
-51.0
 20
0.0
 30
0.0
 11
-51.0
 21
10.0
 31
0.0
  0
LINE
  5
140
330
135
100
AcDbEntity
  8
TITLEBLOCK
100
AcDbLine
 10
-61.0
 20
0.0
 30
0.0
 11
-61.0
 21
47.0
 31
0.0
  0
LINE
  5
141
330
135
100
AcDbEntity
  8
TITLEBLOCK
100
AcDbLine
 10
-122.0
 20
0.0
 30
0.0
 11
-122.0
 21
47.0
 31
0.0
  0
LINE
  5
142
330
135
100
AcDbEntity
  8
TITLEBLOCK
100
AcDbLine
 10
-156.0
 20
37.0
 30
0.0
 11
-156.0
 21
47.0
 31
0.0
  0
LINE
  5
143
330
135
100
AcDbEntity
  8
TITLEBLOCK
100
AcDbLine
 10
0.0
 20
47.0
 30
0.0
 11
-180.0
 21
47.0
 31
0.0
  0
LINE
  5
144
330
135
100
AcDbEntity
  8
TITLEBLOCK
100
AcDbLine
 10
-180.0
 20
47.0
 30
0.0
 11
-180.0
 21
0.0
 31
0.0
  0
TEXT
  5
145
330
135
100
AcDbEntity
  8
TITLEBLOCK
100
AcDbText
 10
-179.0
 20
44.2
 30
0.0
 40
1.8
  1
Dept.
  7
FusionTitle
 11
-179.0
 21
46.0
 31
0.0
100
AcDbText
 73
     3
  0
TEXT
  5
146
330
135
100
AcDbEntity
  8
TITLEBLOCK
100
AcDbText
 10
-155.0
 20
44.2
 30
0.0
 40
1.8
  1
Technical reference
  7
FusionTitle
 11
-155.0
 21
46.0
 31
0.0
100
AcDbText
 73
     3
  0
TEXT
  5
147
330
135
100
AcDbEntity
  8
TITLEBLOCK
100
AcDbText
 10
-121.0
 20
44.2
 30
0.0
 40
1.8
  1
Created by
  7
FusionTitle
 11
-121.0
 21
46.0
 31
0.0
100
AcDbText
 73
     3
  0
TEXT
  5
148
330
135
100
AcDbEntity
  8
TITLEBLOCK
100
AcDbText
 10
-60.0
 20
44.2
 30
0.0
 40
1.8
  1
Approved by
  7
FusionTitle
 11
-60.0
 21
46.0
 31
0.0
100
AcDbText
 73
     3
  0
TEXT
  5
149
330
135
100
AcDbEntity
  8
TITLEBLOCK
100
AcDbText
 10
-121.0
 20
34.2
 30
0.0
 40
1.8
  1
Document type
  7
FusionTitle
 11
-121.0
 21
36.0
 31
0.0
100
AcDbText
 73
     3
  0
TEXT
  5
14A
330
135
100
AcDbEntity
  8
TITLEBLOCK
100
AcDbText
 10
-60.0
 20
34.2
 30
0.0
 40
1.8
  1
Document status
  7
FusionTitle
 11
-60.0
 21
36.0
 31
0.0
100
AcDbText
 73
     3
  0
TEXT
  5
14B
330
135
100
AcDbEntity
  8
TITLEBLOCK
100
AcDbText
 10
-121.0
 20
24.2
 30
0.0
 40
1.8
  1
Title
  7
FusionTitle
 11
-121.0
 21
26.0
 31
0.0
100
AcDbText
 73
     3
  0
TEXT
  5
14C
330
135
100
AcDbEntity
  8
TITLEBLOCK
100
AcDbText
 10
-60.0
 20
24.2
 30
0.0
 40
1.8
  1
DWG No.
  7
FusionTitle
 11
-60.0
 21
26.0
 31
0.0
100
AcDbText
 73
     3
  0
TEXT
  5
14D
330
135
100
AcDbEntity
  8
TITLEBLOCK
100
AcDbText
 10
-60.0
 20
7.2
 30
0.0
 40
1.8
  1
Rev.
  7
FusionTitle
 11
-60.0
 21
9.0
 31
0.0
100
AcDbText
 73
     3
  0
TEXT
  5
14E
330
135
100
AcDbEntity
  8
TITLEBLOCK
100
AcDbText
 10
-50.0
 20
7.2
 30
0.0
 40
1.8
  1
Date of issue
  7
FusionTitle
 11
-50.0
 21
9.0
 31
0.0
100
AcDbText
 73
     3
  0
TEXT
  5
14F
330
135
100
AcDbEntity
  8
TITLEBLOCK
100
AcDbText
 10
-14.0
 20
7.2
 30
0.0
 40
1.8
  1
Sheet
  7
FusionTitle
 11
-14.0
 21
9.0
 31
0.0
100
AcDbText
 73
     3
  0
ATTDEF
  5
150
102
{ACAD_XDICTIONARY
360
151
102
}
330
135
100
AcDbEntity
  8
TITLEBLOCK
100
AcDbText
 10
-50.0
 20
1.5
 30
0.0
 40
3.5
  1

  7
FusionTitle
 11
-50.0
 21
5.0
 31
0.0
100
AcDbAttributeDefinition
280
     0
  3
Date of issue
  2
DATE_OF_ISSUE
 70
     0
 74
     3
280
     1
  0
ATTDEF
  5
152
102
{ACAD_XDICTIONARY
360
153
102
}
330
135
100
AcDbEntity
  8
TITLEBLOCK
100
AcDbText
 10
-61.026774
 20
1.35
 30
0.0
 40
3.5
  1

  7
FusionTitle
 72
     1
 11
-56.0
 21
4.85
 31
0.0
100
AcDbAttributeDefinition
280
     0
  3
Revision
  2
REV
 70
     0
 74
     3
280
     1
  0
ATTDEF
  5
154
102
{ACAD_XDICTIONARY
360
155
102
}
330
135
100
AcDbEntity
  8
TITLEBLOCK
100
AcDbText
 10
-121.0
 20
1.5
 30
0.0
 40
5.0
  1

  7
FusionTitle
 11
-121.0
 21
6.5
 31
0.0
100
AcDbAttributeDefinition
280
     0
  3
3rd Title
  2
TITLE_3
 70
     0
 74
     3
280
     1
  0
ATTDEF
  5
156
102
{ACAD_XDICTIONARY
360
157
102
}
330
135
100
AcDbEntity
  8
TITLEBLOCK
100
AcDbText
 10
-60.0
 20
28.5
 30
0.0
 40
3.5
  1

  7
FusionTitle
 11
-60.0
 21
32.0
 31
0.0
100
AcDbAttributeDefinition
280
     0
  3
Document status
  2
DOCUMENT_STATUS
 70
     0
 74
     3
280
     1
  0
ATTDEF
  5
158
102
{ACAD_XDICTIONARY
360
159
102
}
330
135
100
AcDbEntity
  8
TITLEBLOCK
100
AcDbText
 10
-121.0
 20
28.5
 30
0.0
 40
3.5
  1

  7
FusionTitle
 11
-121.0
 21
32.0
 31
0.0
100
AcDbAttributeDefinition
280
     0
  3
Document type
  2
DOCUMENT_TYPE
 70
     0
 74
     3
280
     1
  0
ATTDEF
  5
15A
102
{ACAD_XDICTIONARY
360
15B
102
}
330
135
100
AcDbEntity
  8
TITLEBLOCK
100
AcDbText
 10
-43.923943
 20
38.5
 30
0.0
 40
3.5
  1

  7
FusionTitle
 72
     2
 11
-0.992838
 21
42.0
 31
0.0
100
AcDbAttributeDefinition
280
     0
  3
Approved date
  2
APPROVED_DATE
 70
     0
 74
     3
280
     1
  0
ATTDEF
  5
15C
102
{ACAD_XDICTIONARY
360
15D
102
}
330
135
100
AcDbEntity
  8
TITLEBLOCK
100
AcDbText
 10
-101.123124
 20
38.5
 30
0.0
 40
3.5
  1

  7
FusionTitle
 72
     2
 11
-62.0
 21
42.0
 31
0.0
100
AcDbAttributeDefinition
280
     0
  3
Created date
  2
CREATED_DATE
 70
     0
 74
     3
280
     1
  0
ATTDEF
  5
15E
102
{ACAD_XDICTIONARY
360
15F
102
}
330
135
100
AcDbEntity
  8
TITLEBLOCK
100
AcDbText
 10
-15.65075
 20
1.35
 30
0.0
 40
3.5
  1

  7
FusionTitle
 72
     1
 11
-7.5
 21
4.85
 31
0.0
100
AcDbAttributeDefinition
280
     0
  3
Sheet
  2
SHEET
 70
     0
 74
     3
280
     1
  0
ATTDEF
  5
160
102
{ACAD_XDICTIONARY
360
161
102
}
330
135
100
AcDbEntity
  8
TITLEBLOCK
100
AcDbText
 10
-121.0
 20
9.0
 30
0.0
 40
5.0
  1

  7
FusionTitle
 11
-121.0
 21
14.0
 31
0.0
100
AcDbAttributeDefinition
280
     0
  3
2nd Title
  2
TITLE_2
 70
     0
 74
     3
280
     1
  0
ATTDEF
  5
162
102
{ACAD_XDICTIONARY
360
163
102
}
330
135
100
AcDbEntity
  8
TITLEBLOCK
100
AcDbText
 10
-64.456344
 20
14.751432
 30
0.0
 40
5.0
  1

  7
FusionTitle
 72
     1
 11
-30.5
 21
19.751432
 31
0.0
100
AcDbAttributeDefinition
280
     0
  3
Drawing number
  2
DRAWING_NUMBER
 70
     0
 74
     3
280
     1
  0
ATTDEF
  5
164
102
{ACAD_XDICTIONARY
360
165
102
}
330
135
100
AcDbEntity
  8
TITLEBLOCK
100
AcDbText
 10
-121.0
 20
16.5
 30
0.0
 40
5.0
  1

  7
FusionTitle
 11
-121.0
 21
21.5
 31
0.0
100
AcDbAttributeDefinition
280
     0
  3
1st Title
  2
TITLE_1
 70
     0
 74
     3
280
     1
  0
ATTDEF
  5
166
102
{ACAD_XDICTIONARY
360
167
102
}
330
135
100
AcDbEntity
  8
TITLEBLOCK
100
AcDbText
 10
-60.0
 20
38.5
 30
0.0
 40
3.5
  1

  7
FusionTitle
 11
-60.0
 21
42.0
 31
0.0
100
AcDbAttributeDefinition
280
     0
  3
Approved by
  2
APPROVED_BY
 70
     0
 74
     3
280
     1
  0
ATTDEF
  5
168
102
{ACAD_XDICTIONARY
360
169
102
}
330
135
100
AcDbEntity
  8
TITLEBLOCK
100
AcDbText
 10
-121.0
 20
38.5
 30
0.0
 40
3.5
  1

  7
FusionTitle
 11
-121.0
 21
42.0
 31
0.0
100
AcDbAttributeDefinition
280
     0
  3
Created by
  2
CREATED_BY
 70
     0
 74
     3
280
     1
  0
ATTDEF
  5
16A
102
{ACAD_XDICTIONARY
360
16B
102
}
330
135
100
AcDbEntity
  8
TITLEBLOCK
100
AcDbText
 10
-155.0
 20
38.5
 30
0.0
 40
3.5
  1

  7
FusionTitle
 11
-155.0
 21
42.0
 31
0.0
100
AcDbAttributeDefinition
280
     0
  3
Technical reference
  2
TECHNICAL_REFERENCE
 70
     0
 74
     3
280
     1
  0
ATTDEF
  5
16C
102
{ACAD_XDICTIONARY
360
16D
102
}
330
135
100
AcDbEntity
  8
TITLEBLOCK
100
AcDbText
 10
-179.0
 20
38.5
 30
0.0
 40
3.5
  1

  7
FusionTitle
 11
-179.0
 21
42.0
 31
0.0
100
AcDbAttributeDefinition
280
     0
  3
Department
  2
DEPT
 70
     0
 74
     3
280
     1
  0
ENDBLK
  5
16E
330
135
100
AcDbEntity
  8
0
100
AcDbBlockEnd
  0
ENDSEC
  0
SECTION
  2
ENTITIES
  0
INSERT
  5
11D
330
70
100
AcDbEntity
  8
BORDER
100
AcDbBlockReference
  2
ISO_A4(P)_SHEET
 10
0.0
 20
0.0
 30
0.0
  0
INSERT
  5
133
330
70
100
AcDbEntity
  8
TITLEBLOCK
100
AcDbBlockReference
 66
     1
  2
ISO_TITLEBLOCK
 10
200.0
 20
10.0
 30
0.0
  0
ATTRIB
  5
16F
330
133
100
AcDbEntity
  8
TITLEBLOCK
100
AcDbText
 10
150.0
 20
11.5
 30
0.0
 40
3.5
  1

  7
FusionTitle
 11
150.0
 21
15.0
 31
0.0
100
AcDbAttribute
280
     0
  2
DATE_OF_ISSUE
 70
     0
 74
     3
280
     1
  0
ATTRIB
  5
170
330
133
100
AcDbEntity
  8
TITLEBLOCK
100
AcDbText
 10
144.0
 20
11.35
 30
0.0
 40
3.5
  1

  7
FusionTitle
 72
     1
 11
144.0
 21
14.85
 31
0.0
100
AcDbAttribute
280
     0
  2
REV
 70
     0
 74
     3
280
     1
  0
ATTRIB
  5
171
330
133
100
AcDbEntity
  8
TITLEBLOCK
100
AcDbText
 10
79.0
 20
11.5
 30
0.0
 40
5.0
  1

  7
FusionTitle
 11
79.0
 21
16.5
 31
0.0
100
AcDbAttribute
280
     0
  2
TITLE_3
 70
     0
 74
     3
280
     1
  0
ATTRIB
  5
172
330
133
100
AcDbEntity
  8
TITLEBLOCK
100
AcDbText
 10
140.0
 20
38.5
 30
0.0
 40
3.5
  1

  7
FusionTitle
 11
140.0
 21
42.0
 31
0.0
100
AcDbAttribute
280
     0
  2
DOCUMENT_STATUS
 70
     0
 74
     3
280
     1
  0
ATTRIB
  5
173
330
133
100
AcDbEntity
  8
TITLEBLOCK
100
AcDbText
 10
79.0
 20
38.5
 30
0.0
 40
3.5
  1

  7
FusionTitle
 11
79.0
 21
42.0
 31
0.0
100
AcDbAttribute
280
     0
  2
DOCUMENT_TYPE
 70
     0
 74
     3
280
     1
  0
ATTRIB
  5
174
330
133
100
AcDbEntity
  8
TITLEBLOCK
100
AcDbText
 10
199.007162
 20
48.5
 30
0.0
 40
3.5
  1

  7
FusionTitle
 72
     2
 11
199.007162
 21
52.0
 31
0.0
100
AcDbAttribute
280
     0
  2
APPROVED_DATE
 70
     0
 74
     3
280
     1
  0
ATTRIB
  5
175
330
133
100
AcDbEntity
  8
TITLEBLOCK
100
AcDbText
 10
113.528649
 20
48.5
 30
0.0
 40
3.5
  1
24.07.2023
  7
FusionTitle
 72
     2
 11
138.0
 21
52.0
 31
0.0
100
AcDbAttribute
280
     0
  2
CREATED_DATE
 70
     0
 74
     3
280
     1
  0
ATTRIB
  5
176
330
133
100
AcDbEntity
  8
TITLEBLOCK
100
AcDbText
 10
189.101467
 20
11.35
 30
0.0
 40
3.5
  1
1/1
  7
FusionTitle
 72
     1
 11
192.5
 21
14.85
 31
0.0
100
AcDbAttribute
280
     0
  2
SHEET
 70
     0
 74
     3
280
     1
  0
ATTRIB
  5
177
330
133
100
AcDbEntity
  8
TITLEBLOCK
100
AcDbText
 10
79.0
 20
19.0
 30
0.0
 40
5.0
  1

  7
FusionTitle
 11
79.0
 21
24.0
 31
0.0
100
AcDbAttribute
280
     0
  2
TITLE_2
 70
     0
 74
     3
280
     1
  0
ATTRIB
  5
178
330
133
100
AcDbEntity
  8
TITLEBLOCK
100
AcDbText
 10
169.5
 20
24.751432
 30
0.0
 40
5.0
  1

  7
FusionTitle
 72
     1
 11
169.5
 21
29.751432
 31
0.0
100
AcDbAttribute
280
     0
  2
DRAWING_NUMBER
 70
     0
 74
     3
280
     1
  0
ATTRIB
  5
179
330
133
100
AcDbEntity
  8
TITLEBLOCK
100
AcDbText
 10
79.0
 20
26.5
 30
0.0
 40
5.0
  1
gasChargingCartridgeV2
 41
0.767506
  7
FusionTitle
 11
79.0
 21
31.5
 31
0.0
100
AcDbAttribute
280
     0
  2
TITLE_1
 70
     0
 74
     3
280
     1
  0
ATTRIB
  5
17A
330
133
100
AcDbEntity
  8
TITLEBLOCK
100
AcDbText
 10
140.0
 20
48.5
 30
0.0
 40
3.5
  1

  7
FusionTitle
 11
140.0
 21
52.0
 31
0.0
100
AcDbAttribute
280
     0
  2
APPROVED_BY
 70
     0
 74
     3
280
     1
  0
ATTRIB
  5
17B
330
133
100
AcDbEntity
  8
TITLEBLOCK
100
AcDbText
 10
79.0
 20
48.5
 30
0.0
 40
3.5
  1
Benedict Ott
  7
FusionTitle
 11
79.0
 21
52.0
 31
0.0
100
AcDbAttribute
280
     0
  2
CREATED_BY
 70
     0
 74
     3
280
     1
  0
ATTRIB
  5
17C
330
133
100
AcDbEntity
  8
TITLEBLOCK
100
AcDbText
 10
45.0
 20
48.5
 30
0.0
 40
3.5
  1

  7
FusionTitle
 11
45.0
 21
52.0
 31
0.0
100
AcDbAttribute
280
     0
  2
TECHNICAL_REFERENCE
 70
     0
 74
     3
280
     1
  0
ATTRIB
  5
17D
330
133
100
AcDbEntity
  8
TITLEBLOCK
100
AcDbText
 10
21.0
 20
48.5
 30
0.0
 40
3.5
  1

  7
FusionTitle
 11
21.0
 21
52.0
 31
0.0
100
AcDbAttribute
280
     0
  2
DEPT
 70
     0
 74
     3
280
     1
  0
SEQEND
  5
17E
330
133
100
AcDbEntity
  8
TITLEBLOCK
  0
ARC
  5
181
330
70
100
AcDbEntity
  8
Hidden
100
AcDbCircle
 10
105.909427
 20
170.780262
 30
0.0
 40
4.023146960821819
100
AcDbArc
 50
248.116097
 51
291.883903
  0
LINE
  5
182
330
70
100
AcDbEntity
  8
Visible
100
AcDbLine
 10
110.909427
 20
168.045863
 30
0.0
 11
110.909427
 21
158.045863
 31
0.0
210
-1.0
220
0.0000000000000002
230
0.0
  0
LINE
  5
183
330
70
100
AcDbEntity
  8
Visible
100
AcDbLine
 10
108.409427
 20
169.045863
 30
0.0
 11
103.409427
 21
169.045863
 31
0.0
210
-1.0
220
0.0000000000000002
230
0.0
  0
LINE
  5
184
330
70
100
AcDbEntity
  8
Visible
100
AcDbLine
 10
103.409427
 20
156.545863
 30
0.0
 11
103.409427
 21
169.045863
 31
0.0
210
-1.0
220
0.0000000000000002
230
0.0
  0
LINE
  5
185
330
70
100
AcDbEntity
  8
Visible
100
AcDbLine
 10
108.409427
 20
166.509965
 30
0.0
 11
108.409427
 21
169.045863
 31
0.0
210
-1.0
220
0.0000000000000002
230
0.0
  0
LINE
  5
186
330
70
100
AcDbEntity
  8
Visible
100
AcDbLine
 10
108.409427
 20
159.581762
 30
0.0
 11
108.409427
 21
166.509965
 31
0.0
210
-1.0
220
0.0000000000000002
230
0.0
  0
LINE
  5
187
330
70
100
AcDbEntity
  8
Visible
100
AcDbLine
 10
108.409427
 20
156.545863
 30
0.0
 11
108.409427
 21
159.581762
 31
0.0
210
-1.0
220
0.0000000000000002
230
0.0
  0
LINE
  5
188
330
70
100
AcDbEntity
  8
Visible
100
AcDbLine
 10
95.909427
 20
167.785863
 30
0.0
 11
95.909427
 21
158.305863
 31
0.0
210
-1.0
220
0.0000000000000002
230
0.0
  0
LINE
  5
189
330
70
100
AcDbEntity
  8
Visible
100
AcDbLine
 10
96.372677
 20
157.842613
 30
0.0
 11
96.372677
 21
168.249113
 31
0.0
210
-1.0
220
0.0000000000000002
230
0.0
  0
LINE
  5
18A
330
70
100
AcDbEntity
  8
Visible
100
AcDbLine
 10
104.409427
 20
159.581762
 30
0.0
 11
108.409427
 21
159.581762
 31
0.0
210
-1.0
220
0.0000000000000002
230
0.0
  0
LINE
  5
18B
330
70
100
AcDbEntity
  8
Visible
100
AcDbLine
 10
104.409427
 20
159.581762
 30
0.0
 11
104.409427
 21
166.509965
 31
0.0
210
-1.0
220
0.0000000000000002
230
0.0
  0
LINE
  5
18C
330
70
100
AcDbEntity
  8
Visible
100
AcDbLine
 10
108.409427
 20
166.509965
 30
0.0
 11
104.409427
 21
166.509965
 31
0.0
210
-1.0
220
0.0000000000000002
230
0.0
  0
LINE
  5
18D
330
70
100
AcDbEntity
  8
Visible
100
AcDbLine
 10
101.409427
 20
168.249113
 30
0.0
 11
101.409427
 21
157.842613
 31
0.0
210
-1.0
220
0.0000000000000002
230
0.0
  0
LINE
  5
18E
330
70
100
AcDbEntity
  8
Hidden
100
AcDbLine
 10
107.409427
 20
169.045863
 30
0.0
 11
107.409427
 21
167.045863
 31
0.0
210
-1.0
220
0.0000000000000002
230
0.0
  0
LINE
  5
18F
330
70
100
AcDbEntity
  8
Hidden
100
AcDbLine
 10
104.409427
 20
169.045863
 30
0.0
 11
104.409427
 21
167.045863
 31
0.0
210
-1.0
220
0.0000000000000002
230
0.0
  0
LINE
  5
190
330
70
100
AcDbEntity
  8
Visible
100
AcDbLine
 10
95.909427
 20
167.785863
 30
0.0
 11
96.372677
 21
168.249113
 31
0.0
210
-1.0
220
0.0000000000000002
230
0.0
  0
LINE
  5
191
330
70
100
AcDbEntity
  8
Visible
100
AcDbLine
 10
95.909427
 20
158.305863
 30
0.0
 11
96.372677
 21
157.842613
 31
0.0
210
-1.0
220
0.0000000000000002
230
0.0
  0
LINE
  5
192
330
70
100
AcDbEntity
  8
Visible
100
AcDbLine
 10
108.409427
 20
168.045863
 30
0.0
 11
110.909427
 21
168.045863
 31
0.0
210
-1.0
220
0.0000000000000002
230
0.0
  0
LINE
  5
193
330
70
100
AcDbEntity
  8
Visible
100
AcDbLine
 10
108.409427
 20
158.045863
 30
0.0
 11
110.909427
 21
158.045863
 31
0.0
210
-1.0
220
0.0000000000000002
230
0.0
  0
LINE
  5
194
330
70
100
AcDbEntity
  8
Visible
100
AcDbLine
 10
103.409427
 20
156.545863
 30
0.0
 11
108.409427
 21
156.545863
 31
0.0
210
-1.0
220
0.0000000000000002
230
0.0
  0
LINE
  5
195
330
70
100
AcDbEntity
  8
Visible
100
AcDbLine
 10
101.409427
 20
167.645863
 30
0.0
 11
103.409427
 21
167.645863
 31
0.0
210
-1.0
220
0.0000000000000002
230
0.0
  0
LINE
  5
196
330
70
100
AcDbEntity
  8
Visible
100
AcDbLine
 10
101.409427
 20
158.445863
 30
0.0
 11
103.409427
 21
158.445863
 31
0.0
210
-1.0
220
0.0000000000000002
230
0.0
  0
LINE
  5
197
330
70
100
AcDbEntity
  8
Visible
100
AcDbLine
 10
96.372677
 20
168.249113
 30
0.0
 11
101.409427
 21
168.249113
 31
0.0
210
-1.0
220
0.0000000000000002
230
0.0
  0
LINE
  5
198
330
70
100
AcDbEntity
  8
Visible
100
AcDbLine
 10
96.372677
 20
157.842613
 30
0.0
 11
101.409427
 21
157.842613
 31
0.0
210
-1.0
220
0.0000000000000002
230
0.0
  0
LINE
  5
199
330
70
100
AcDbEntity
  8
Hidden
100
AcDbLine
 10
95.909427
 20
167.045863
 30
0.0
 11
104.409427
 21
167.045863
 31
0.0
210
-1.0
220
0.0000000000000002
230
0.0
  0
LINE
  5
19A
330
70
100
AcDbEntity
  8
Hidden
100
AcDbLine
 10
107.409427
 20
167.045863
 30
0.0
 11
110.909427
 21
167.045863
 31
0.0
210
-1.0
220
0.0000000000000002
230
0.0
  0
LINE
  5
19B
330
70
100
AcDbEntity
  8
Hidden
100
AcDbLine
 10
95.909427
 20
159.045863
 30
0.0
 11
110.909427
 21
159.045863
 31
0.0
210
-1.0
220
0.0000000000000002
230
0.0
  0
LINE
  5
19C
330
70
100
AcDbEntity
  8
Visible
100
AcDbLine
 10
107.409427
 20
187.002968
 30
0.0
 11
104.409427
 21
187.002968
 31
0.0
210
-1.0
220
0.0000000000000002
230
0.0
  0
LINE
  5
19D
330
70
100
AcDbEntity
  8
Hidden
100
AcDbLine
 10
107.409427
 20
167.002968
 30
0.0
 11
104.409427
 21
167.002968
 31
0.0
210
-1.0
220
0.0000000000000002
230
0.0
  0
LINE
  5
19E
330
70
100
AcDbEntity
  8
Hidden
100
AcDbLine
 10
104.909427
 20
167.002968
 30
0.0
 11
104.909427
 21
187.002968
 31
0.0
210
-1.0
220
0.0000000000000002
230
0.0
  0
LINE
  5
19F
330
70
100
AcDbEntity
  8
Hidden
100
AcDbLine
 10
106.909427
 20
167.002968
 30
0.0
 11
106.909427
 21
187.002968
 31
0.0
210
-1.0
220
0.0000000000000002
230
0.0
  0
LINE
  5
1A0
330
70
100
AcDbEntity
  8
Hidden
100
AcDbLine
 10
104.409427
 20
167.002968
 30
0.0
 11
104.409427
 21
169.045863
 31
0.0
210
-1.0
220
0.0000000000000002
230
0.0
  0
LINE
  5
1A1
330
70
100
AcDbEntity
  8
Visible
100
AcDbLine
 10
104.409427
 20
169.045863
 30
0.0
 11
104.409427
 21
187.002968
 31
0.0
210
-1.0
220
0.0000000000000002
230
0.0
  0
LINE
  5
1A2
330
70
100
AcDbEntity
  8
Hidden
100
AcDbLine
 10
107.409427
 20
167.002968
 30
0.0
 11
107.409427
 21
169.045863
 31
0.0
210
-1.0
220
0.0000000000000002
230
0.0
  0
LINE
  5
1A3
330
70
100
AcDbEntity
  8
Visible
100
AcDbLine
 10
107.409427
 20
169.045863
 30
0.0
 11
107.409427
 21
187.002968
 31
0.0
210
-1.0
220
0.0000000000000002
230
0.0
  0
LINE
  5
1A4
330
70
100
AcDbEntity
  8
Hidden
100
AcDbLine
 10
113.003677
 20
165.045863
 30
0.0
 11
113.815177
 21
165.045863
 31
0.0
210
-1.0
220
0.0000000000000002
230
0.0
  0
ARC
  5
1A5
330
70
100
AcDbEntity
  8
Visible
100
AcDbCircle
 10
113.410339
 20
170.941836
 30
0.0
 40
3.966869214617421
100
AcDbArc
 50
264.116024
 51
269.986838
  0
ARC
  5
1A6
330
70
100
AcDbEntity
  8
Visible
100
AcDbCircle
 10
113.408516
 20
170.941836
 30
0.0
 40
3.96686921461743
100
AcDbArc
 50
270.013162
 51
275.883976
  0
LINE
  5
1A7
330
70
100
AcDbEntity
  8
Hidden
100
AcDbLine
 10
113.409427
 20
164.045863
 30
0.0
 11
113.409427
 21
162.045863
 31
0.0
210
-1.0
220
0.0000000000000002
230
0.0
  0
SPLINE
  5
1A8
330
70
100
AcDbEntity
  8
Hidden
100
AcDbSpline
210
0.0
220
0.0
230
1.0
 70
     8
 71
     3
 72
   116
 73
   112
 74
     0
 42
0.000000001
 43
0.0000000001
 40
14.39862685189237
 40
14.39862685189237
 40
14.39862685189237
 40
14.39862685189237
 40
15.45997142339751
 40
15.45997142339751
 40
15.45997142339751
 40
16.52077777233138
 40
16.52077777233138
 40
16.52077777233138
 40
17.58106146993048
 40
17.58106146993048
 40
17.58106146993048
 40
18.64153288738726
 40
18.64153288738726
 40
18.64153288738726
 40
19.73612670408656
 40
19.73612670408656
 40
19.73612670408656
 40
20.81795314744998
 40
20.81795314744998
 40
20.81795314744998
 40
21.89781078249283
 40
21.89781078249283
 40
21.89781078249283
 40
22.97577421380311
 40
22.97577421380311
 40
22.97577421380311
 40
24.05191675713801
 40
24.05191675713801
 40
24.05191675713801
 40
25.126310504127
 40
25.126310504127
 40
25.126310504127
 40
26.19902638425947
 40
26.19902638425947
 40
26.19902638425947
 40
27.2701342243382
 40
27.2701342243382
 40
27.2701342243382
 40
28.33970280556781
 40
28.33970280556781
 40
28.33970280556781
 40
29.40779991843629
 40
29.40779991843629
 40
29.40779991843629
 40
30.47449241553741
 40
30.47449241553741
 40
30.47449241553741
 40
31.53984626247239
 40
31.53984626247239
 40
31.53984626247239
 40
32.60392658696093
 40
32.60392658696093
 40
32.60392658696093
 40
33.66679772628339
 40
33.66679772628339
 40
33.66679772628339
 40
34.72852327316932
 40
34.72852327316932
 40
34.72852327316932
 40
35.78916612024042
 40
35.78916612024042
 40
35.78916612024042
 40
36.84878850311033
 40
36.84878850311033
 40
36.84878850311033
 40
37.930074795345
 40
37.930074795345
 40
37.930074795345
 40
39.00753503462153
 40
39.00753503462153
 40
39.00753503462153
 40
40.08146193890105
 40
40.08146193890105
 40
40.08146193890105
 40
41.15213872539412
 40
41.15213872539412
 40
41.15213872539412
 40
42.21984006126805
 40
42.21984006126805
 40
42.21984006126805
 40
43.284832941192
 40
43.284832941192
 40
43.284832941192
 40
44.34737750121853
 40
44.34737750121853
 40
44.34737750121853
 40
45.40772777734646
 40
45.40772777734646
 40
45.40772777734646
 40
46.48793077471014
 40
46.48793077471014
 40
46.48793077471014
 40
47.56092333978577
 40
47.56092333978577
 40
47.56092333978577
 40
48.62783471191509
 40
48.62783471191509
 40
48.62783471191509
 40
49.68972987765313
 40
49.68972987765313
 40
49.68972987765313
 40
50.76779621968857
 40
50.76779621968857
 40
50.76779621968857
 40
51.83316460957919
 40
51.83316460957919
 40
51.83316460957919
 40
52.90716079463127
 40
52.90716079463127
 40
52.90716079463127
 40
53.66853502176477
 40
53.66853502176477
 40
53.66853502176477
 40
53.66853502176477
 10
108.4094272291144
 20
164.2823607333948
 30
0.0
 10
108.4319496604316
 20
164.1653055237684
 30
0.0
 10
108.4544720917487
 20
163.7990359214191
 30
0.0
 10
108.4769945230659
 20
163.3600491829238
 30
0.0
 10
108.4995055329454
 20
162.9212850607
 30
0.0
 10
108.5220165428249
 20
162.4274458993513
 30
0.0
 10
108.5445275527044
 20
162.1162954108586
 30
0.0
 10
108.567027471578
 20
161.8052982238787
 30
0.0
 10
108.5895273904517
 20
161.6892223508866
 30
0.0
 10
108.6120273093254
 20
161.8239065358057
 30
0.0
 10
108.6345312117382
 20
161.9586145661305
 30
0.0
 10
108.657035114151
 20
162.3387969471041
 30
0.0
 10
108.6795390165638
 20
162.7815100533644
 30
0.0
 10
108.7027670187779
 20
163.2384681766161
 30
0.0
 10
108.7259950209919
 20
163.7425515397308
 30
0.0
 10
108.749223023206
 20
164.0377465360161
 30
0.0
 10
108.7721800933432
 20
164.3294983694895
 30
0.0
 10
108.7951371634803
 20
164.4047407680536
 30
0.0
 10
108.8180942336175
 20
164.2260138054862
 30
0.0
 10
108.8410095243445
 20
164.0476121068577
 30
0.0
 10
108.8639248150715
 20
163.6238960065902
 30
0.0
 10
108.8868401057986
 20
163.1651622595445
 30
0.0
 10
108.9097152002739
 20
162.7072331881772
 30
0.0
 10
108.9325902947493
 20
162.2339623792923
 30
0.0
 10
108.9554653892247
 20
161.9795400035009
 30
0.0
 10
108.9783018432571
 20
161.7255473961331
 30
0.0
 10
109.0011382972895
 20
161.7003818409439
 30
0.0
 10
109.023974751322
 20
161.9164602691608
 30
0.0
 10
109.0467740947434
 20
162.1321875569383
 30
0.0
 10
109.0695734381647
 20
162.5792334912467
 30
0.0
 10
109.0923727815861
 20
163.0376320114419
 30
0.0
 10
109.1151365195669
 20
163.4953146565813
 30
0.0
 10
109.1379002575478
 20
163.9451501785679
 30
0.0
 10
109.1606639955286
 20
164.166389194298
 30
0.0
 10
109.1833936098397
 20
164.3872965647115
 30
0.0
 10
109.2061232241507
 20
164.3711452846319
 30
0.0
 10
109.2288528384618
 20
164.125841064545
 30
0.0
 10
109.2515497886856
 20
163.8808893642299
 30
0.0
 10
109.2742467389094
 20
163.4176252339284
 30
0.0
 10
109.2969436891332
 20
162.9622506375908
 30
0.0
 10
109.3196094138286
 20
162.5075025268497
 30
0.0
 10
109.3422751385239
 20
162.0793380430341
 30
0.0
 10
109.3649408632193
 20
161.8863297497737
 30
0.0
 10
109.3875767810423
 20
161.6935752747195
 30
0.0
 10
109.4102126988653
 20
161.7432091039609
 30
0.0
 10
109.4328486166884
 20
162.011107318438
 30
0.0
 10
109.4554561274726
 20
162.2786693329426
 30
0.0
 10
109.4780636382568
 20
162.7530095130059
 30
0.0
 10
109.500671149041
 20
163.2040748867602
 30
0.0
 10
109.5232516348396
 20
163.6546010576194
 30
0.0
 10
109.5458321206381
 20
164.0636427372901
 30
0.0
 10
109.5684126064367
 20
164.2332217594148
 30
0.0
 10
109.5909674325291
 20
164.402608077632
 30
0.0
 10
109.6135222586215
 20
164.3262749115411
 30
0.0
 10
109.6360770847139
 20
164.0410961050575
 30
0.0
 10
109.6586076005797
 20
163.7562246723191
 30
0.0
 10
109.6811381164455
 20
163.274438863983
 30
0.0
 10
109.7036686323114
 20
162.8280432844913
 30
0.0
 10
109.7261761725736
 20
162.3821029190731
 30
0.0
 10
109.7486837128358
 20
161.9893282679413
 30
0.0
 10
109.7711912530979
 20
161.8387746551388
 30
0.0
 10
109.7936771384372
 20
161.6883658927663
 30
0.0
 10
109.8161630237765
 20
161.7856790606893
 30
0.0
 10
109.8386489091158
 20
162.083951263251
 30
0.0
 10
109.86159451689
 20
162.3883216212189
 30
0.0
 10
109.8845401246642
 20
162.8897761458411
 30
0.0
 10
109.9074857324384
 20
163.3388744974863
 30
0.0
 10
109.9303501488472
 20
163.786383747255
 30
0.0
 10
109.953214565256
 20
164.1628199548477
 30
0.0
 10
109.9760789816648
 20
164.282058060483
 30
0.0
 10
109.9988684183762
 20
164.4009051464263
 30
0.0
 10
110.0216578550876
 20
164.2593449857695
 30
0.0
 10
110.044447291799
 20
163.9269797316346
 30
0.0
 10
110.0671677588689
 20
163.5956203431888
 30
0.0
 10
110.0898882259387
 20
163.0884870227446
 30
0.0
 10
110.1126086930086
 20
162.6536403236141
 30
0.0
 10
110.1352660190553
 20
162.2200020796363
 30
0.0
 10
110.157923345102
 20
161.8760790516289
 30
0.0
 10
110.1805806711487
 20
161.7893010661209
 30
0.0
 10
110.203180521975
 20
161.7027432117884
 30
0.0
 10
110.2257803728013
 20
161.8754666735885
 30
0.0
 10
110.2483802236277
 20
162.2237498252943
 30
0.0
 10
110.2709281194922
 20
162.5712323063226
 30
0.0
 10
110.2934760153567
 20
163.0793802574008
 30
0.0
 10
110.3160239112211
 20
163.5028544515507
 30
0.0
 10
110.3385252429351
 20
163.9254541199252
 30
0.0
 10
110.3610265746491
 20
164.2468287087986
 30
0.0
 10
110.383527906363
 20
164.3123631207372
 30
0.0
 10
110.4064505259061
 20
164.3791245200591
 30
0.0
 10
110.4293731454492
 20
164.1769028324106
 30
0.0
 10
110.4522957649922
 20
163.8061184228809
 30
0.0
 10
110.4750653744099
 20
163.4378090258115
 30
0.0
 10
110.4978349838276
 20
162.9188797098641
 30
0.0
 10
110.5206045932453
 20
162.5040985697424
 30
0.0
 10
110.5432451557407
 20
162.0916682046636
 30
0.0
 10
110.565885718236
 20
161.799131590049
 30
0.0
 10
110.5885262807314
 20
161.7687224489182
 30
0.0
 10
110.6110603960211
 20
161.7384562798588
 30
0.0
 10
110.6335945113108
 20
161.9689148138695
 30
0.0
 10
110.6561286266005
 20
162.3489465515904
 30
0.0
 10
110.6790059049093
 20
162.7347656404799
 30
0.0
 10
110.7018831832181
 20
163.2589706936542
 30
0.0
 10
110.7247604615269
 20
163.6621253889325
 30
0.0
 10
110.7473682809222
 20
164.0605315461789
 30
0.0
 10
110.7699761003175
 20
164.3244415072577
 30
0.0
 10
110.7925839197128
 20
164.3258570754169
 30
0.0
 10
110.8153748266079
 20
164.327284107434
 30
0.0
 10
110.8381657335029
 20
164.0615925476322
 30
0.0
 10
110.860956640398
 20
163.6594317204663
 30
0.0
 10
110.8771135033034
 20
163.3743330457891
 30
0.0
 10
110.8932703662089
 20
163.0288070783235
 30
0.0
 10
110.9094272291144
 20
162.7149946479012
 30
0.0
  0
SPLINE
  5
1A9
330
70
100
AcDbEntity
  8
Hidden
100
AcDbSpline
210
0.0
220
0.0
230
1.0
 70
     8
 71
     3
 72
   116
 73
   112
 74
     0
 42
0.000000001
 43
0.0000000001
 40
13.87570703041572
 40
13.87570703041572
 40
13.87570703041572
 40
13.87570703041572
 40
14.93705160192087
 40
14.93705160192087
 40
14.93705160192087
 40
15.99785795085474
 40
15.99785795085474
 40
15.99785795085474
 40
17.05814164845383
 40
17.05814164845383
 40
17.05814164845383
 40
18.11861306591062
 40
18.11861306591062
 40
18.11861306591062
 40
19.21320688260992
 40
19.21320688260992
 40
19.21320688260992
 40
20.29503332597334
 40
20.29503332597334
 40
20.29503332597334
 40
21.37489096101619
 40
21.37489096101619
 40
21.37489096101619
 40
22.45285439232647
 40
22.45285439232647
 40
22.45285439232647
 40
23.52899693566137
 40
23.52899693566137
 40
23.52899693566137
 40
24.60339068265036
 40
24.60339068265036
 40
24.60339068265036
 40
25.67610656278283
 40
25.67610656278283
 40
25.67610656278283
 40
26.74721440286156
 40
26.74721440286156
 40
26.74721440286156
 40
27.81678298409117
 40
27.81678298409117
 40
27.81678298409117
 40
28.88488009695965
 40
28.88488009695965
 40
28.88488009695965
 40
29.95157259406076
 40
29.95157259406076
 40
29.95157259406076
 40
31.01692644099575
 40
31.01692644099575
 40
31.01692644099575
 40
32.08100676548428
 40
32.08100676548428
 40
32.08100676548428
 40
33.14387790480675
 40
33.14387790480675
 40
33.14387790480675
 40
34.20560345169267
 40
34.20560345169267
 40
34.20560345169267
 40
35.26624629876378
 40
35.26624629876378
 40
35.26624629876378
 40
36.32586868163369
 40
36.32586868163369
 40
36.32586868163369
 40
37.40715497386837
 40
37.40715497386837
 40
37.40715497386837
 40
38.48461521314489
 40
38.48461521314489
 40
38.48461521314489
 40
39.55854211742443
 40
39.55854211742443
 40
39.55854211742443
 40
40.62921890391749
 40
40.62921890391749
 40
40.62921890391749
 40
41.69692023979142
 40
41.69692023979142
 40
41.69692023979142
 40
42.76191311971537
 40
42.76191311971537
 40
42.76191311971537
 40
43.82445767974191
 40
43.82445767974191
 40
43.82445767974191
 40
44.88480795586982
 40
44.88480795586982
 40
44.88480795586982
 40
45.96501095323351
 40
45.96501095323351
 40
45.96501095323351
 40
47.03800351830916
 40
47.03800351830916
 40
47.03800351830916
 40
48.10491489043847
 40
48.10491489043847
 40
48.10491489043847
 40
49.16681005617651
 40
49.16681005617651
 40
49.16681005617651
 40
50.24487639821195
 40
50.24487639821195
 40
50.24487639821195
 40
51.31024478810258
 40
51.31024478810258
 40
51.31024478810258
 40
52.38424097315466
 40
52.38424097315466
 40
52.38424097315466
 40
53.14561520028813
 40
53.14561520028813
 40
53.14561520028813
 40
53.14561520028813
 10
108.4094272291144
 20
164.2823607333948
 30
0.0
 10
108.4319496604316
 20
164.3994159430213
 30
0.0
 10
108.4544720917487
 20
164.2625651628341
 30
0.0
 10
108.4769945230659
 20
163.937753770524
 30
0.0
 10
108.4995055329454
 20
163.6131070945812
 30
0.0
 10
108.5220165428249
 20
163.1136986810288
 30
0.0
 10
108.5445275527044
 20
162.6799736129906
 30
0.0
 10
108.567027471578
 20
162.2464622380421
 30
0.0
 10
108.5895273904517
 20
161.8958845930819
 30
0.0
 10
108.6120273093254
 20
161.7968873988875
 30
0.0
 10
108.6345312117382
 20
161.6978726775551
 30
0.0
 10
108.657035114151
 20
161.8544884296034
 30
0.0
 10
108.6795390165638
 20
162.191371211321
 30
0.0
 10
108.7027670187779
 20
162.5390937465536
 30
0.0
 10
108.7259950209919
 20
163.0646597198238
 30
0.0
 10
108.749223023206
 20
163.5011449471249
 30
0.0
 10
108.7721800933432
 20
163.9325389983496
 30
0.0
 10
108.7951371634803
 20
164.2581320064136
 30
0.0
 10
108.8180942336175
 20
164.3158253368556
 30
0.0
 10
108.8410095243445
 20
164.373413671612
 30
0.0
 10
108.8639248150715
 20
164.1616693899186
 30
0.0
 10
108.8868401057986
 20
163.7856844041971
 30
0.0
 10
108.9097152002739
 20
163.4103589426013
 30
0.0
 10
108.9325902947493
 20
162.8874275267198
 30
0.0
 10
108.9554653892247
 20
162.4756540507205
 30
0.0
 10
108.9783018432571
 20
162.0645761394771
 30
0.0
 10
109.0011382972895
 20
161.7816834417008
 30
0.0
 10
109.023974751322
 20
161.7665579831646
 30
0.0
 10
109.0467740947434
 20
161.7514571044075
 30
0.0
 10
109.0695734381647
 20
162.0038299104235
 30
0.0
 10
109.0923727815861
 20
162.3994979942681
 30
0.0
 10
109.1151365195669
 20
162.794548168371
 30
0.0
 10
109.1379002575478
 20
163.3158759507587
 30
0.0
 10
109.1606639955286
 20
163.7076483075088
 30
0.0
 10
109.1833936098397
 20
164.0988333832702
 30
0.0
 10
109.2061232241507
 20
164.3445968054484
 30
0.0
 10
109.2288528384618
 20
164.3246425693869
 30
0.0
 10
109.2515497886856
 20
164.3047170089958
 30
0.0
 10
109.2742467389094
 20
164.0207140125057
 30
0.0
 10
109.2969436891332
 20
163.6113061672649
 30
0.0
 10
109.3196094138286
 20
163.2024615684595
 30
0.0
 10
109.3422751385239
 20
162.6854084977358
 30
0.0
 10
109.3649408632193
 20
162.3120199818631
 30
0.0
 10
109.3875767810423
 20
161.9391224956825
 30
0.0
 10
109.4102126988653
 20
161.7247547683055
 30
0.0
 10
109.4328486166884
 20
161.7731076264936
 30
0.0
 10
109.4554561274726
 20
161.8213998040628
 30
0.0
 10
109.4780636382568
 20
162.1297409422623
 30
0.0
 10
109.500671149041
 20
162.5485868992009
 30
0.0
 10
109.5232516348396
 20
162.9669321682895
 30
0.0
 10
109.5458321206381
 20
163.4785360534561
 30
0.0
 10
109.5684126064367
 20
163.8357797810658
 30
0.0
 10
109.5909674325291
 20
164.1926175488943
 30
0.0
 10
109.6135222586215
 20
164.3810647604987
 30
0.0
 10
109.6360770847139
 20
164.3100892548609
 30
0.0
 10
109.6586076005797
 20
164.2391902486206
 30
0.0
 10
109.6811381164455
 20
163.9123153501978
 30
0.0
 10
109.7036686323114
 20
163.4870751464268
 30
0.0
 10
109.7261761725736
 20
163.0622685834314
 30
0.0
 10
109.7486837128358
 20
162.5563173333739
 30
0.0
 10
109.7711912530979
 20
162.2127523299705
 30
0.0
 10
109.7936771384372
 20
161.8695178768439
 30
0.0
 10
109.8161630237765
 20
161.7020245337316
 30
0.0
 10
109.8386489091158
 20
161.7907595963861
 30
0.0
 10
109.86159451689
 20
161.8813088415136
 30
0.0
 10
109.8845401246642
 20
162.2356192586367
 30
0.0
 10
109.9074857324384
 20
162.677444934231
 30
0.0
 10
109.9303501488472
 20
163.117707241784
 30
0.0
 10
109.953214565256
 20
163.6260208187113
 30
0.0
 10
109.9760789816648
 20
163.9510551793028
 30
0.0
 10
109.9988684183762
 20
164.2750236487927
 30
0.0
 10
110.0216578550876
 20
164.4033402060686
 30
0.0
 10
110.044447291799
 20
164.2729142991957
 30
0.0
 10
110.0671677588689
 20
164.1428831115154
 30
0.0
 10
110.0898882259387
 20
163.7611956094561
 30
0.0
 10
110.1126086930086
 20
163.3145514420748
 30
0.0
 10
110.1352660190553
 20
162.8691485154513
 30
0.0
 10
110.157923345102
 20
162.3775159483866
 30
0.0
 10
110.1805806711487
 20
162.078992048343
 30
0.0
 10
110.203180521975
 20
161.7812254189011
 30
0.0
 10
110.2257803728013
 20
161.6876595759022
 30
0.0
 10
110.2483802236277
 20
161.8436472725488
 30
0.0
 10
110.2709281194922
 20
161.9992763679411
 30
0.0
 10
110.2934760153567
 20
162.3969497975886
 30
0.0
 10
110.3160239112211
 20
162.8446666066274
 30
0.0
 10
110.3385252429351
 20
163.2914588259382
 30
0.0
 10
110.3610265746491
 20
163.7701806340274
 30
0.0
 10
110.383527906363
 20
164.0505163134603
 30
0.0
 10
110.4064505259061
 20
164.3361006604518
 30
0.0
 10
110.4293731454492
 20
164.4033213034072
 30
0.0
 10
110.4522957649922
 20
164.2187974433345
 30
0.0
 10
110.4750653744099
 20
164.0355052932282
 30
0.0
 10
110.4978349838276
 20
163.6117853140858
 30
0.0
 10
110.5206045932453
 20
163.1556626231158
 30
0.0
 10
110.5432451557407
 20
162.70212501072
 30
0.0
 10
110.5658857182361
 20
162.2352739663147
 30
0.0
 10
110.5885262807314
 20
161.9820963312841
 30
0.0
 10
110.6110603960211
 20
161.7301090399924
 30
0.0
 10
110.6335945113108
 20
161.6998406068378
 30
0.0
 10
110.6561286266005
 20
161.9058896742308
 30
0.0
 10
110.6790059049093
 20
162.1150765803695
 30
0.0
 10
110.7018831832181
 20
162.55961207176
 30
0.0
 10
110.7247604615269
 20
163.0194893929056
 30
0.0
 10
110.7473682809222
 20
163.4739500713176
 30
0.0
 10
110.7699761003175
 20
163.9245774133433
 30
0.0
 10
110.7925839197128
 20
164.1528139725269
 30
0.0
 10
110.8153748266079
 20
164.3828988860441
 30
0.0
 10
110.8381657335029
 20
164.3771745382155
 30
0.0
 10
110.860956640398
 20
164.1384557801302
 30
0.0
 10
110.8771135033034
 20
163.9692239779433
 30
0.0
 10
110.8932703662089
 20
163.6905443468922
 30
0.0
 10
110.9094272291144
 20
163.3767319164699
 30
0.0
  0
SPLINE
  5
1AA
330
70
100
AcDbEntity
  8
Hidden
100
AcDbSpline
210
0.0
220
0.0
230
1.0
 70
     8
 71
     3
 72
   110
 73
   106
 74
     0
 42
0.000000001
 43
0.0000000001
 40
-39.2699081698724
 40
-39.2699081698724
 40
-39.2699081698724
 40
-39.2699081698724
 40
-38.15693119506774
 40
-38.15693119506774
 40
-38.15693119506774
 40
-37.044545673702
 40
-37.044545673702
 40
-37.044545673702
 40
-35.88690362139881
 40
-35.88690362139881
 40
-35.88690362139881
 40
-34.76836638280403
 40
-34.76836638280403
 40
-34.76836638280403
 40
-33.63226407441008
 40
-33.63226407441008
 40
-33.63226407441008
 40
-32.49838916115404
 40
-32.49838916115404
 40
-32.49838916115404
 40
-31.36665447727059
 40
-31.36665447727059
 40
-31.36665447727059
 40
-30.23697447299251
 40
-30.23697447299251
 40
-30.23697447299251
 40
-29.10926512999671
 40
-29.10926512999671
 40
-29.10926512999671
 40
-27.98344388063103
 40
-27.98344388063103
 40
-27.98344388063103
 40
-26.85942953065699
 40
-26.85942953065699
 40
-26.85942953065699
 40
-25.73714218526294
 40
-25.73714218526294
 40
-25.73714218526294
 40
-24.61650317811859
 40
-24.61650317811859
 40
-24.61650317811859
 40
-23.49743500325827
 40
-23.49743500325827
 40
-23.49743500325827
 40
-22.37986124959392
 40
-22.37986124959392
 40
-22.37986124959392
 40
-21.26370653787222
 40
-21.26370653787222
 40
-21.26370653787222
 40
-20.14889645990172
 40
-20.14889645990172
 40
-20.14889645990172
 40
-19.03535751988714
 40
-19.03535751988714
 40
-19.03535751988714
 40
-17.92301707771725
 40
-17.92301707771725
 40
-17.92301707771725
 40
-16.808192516884
 40
-16.808192516884
 40
-16.808192516884
 40
-15.6743481446346
 40
-15.6743481446346
 40
-15.6743481446346
 40
-14.54470009243191
 40
-14.54470009243191
 40
-14.54470009243191
 40
-13.41891139888278
 40
-13.41891139888278
 40
-13.41891139888278
 40
-12.29665650272458
 40
-12.29665650272458
 40
-12.29665650272458
 40
-11.17762004660733
 40
-11.17762004660733
 40
-11.17762004660733
 40
-10.06149577658771
 40
-10.06149577658771
 40
-10.06149577658771
 40
-8.947985524330961
 40
-8.947985524330961
 40
-8.947985524330961
 40
-7.83557483031949
 40
-7.83557483031949
 40
-7.83557483031949
 40
-6.705938155015688
 40
-6.705938155015688
 40
-6.705938155015688
 40
-5.583704374476996
 40
-5.583704374476996
 40
-5.583704374476996
 40
-4.4676053282567
 40
-4.4676053282567
 40
-4.4676053282567
 40
-3.329529683033563
 40
-3.329529683033563
 40
-3.329529683033563
 40
-2.207576174404832
 40
-2.207576174404832
 40
-2.207576174404832
 40
-1.070359622496119
 40
-1.070359622496119
 40
-1.070359622496119
 40
0.0
 40
0.0
 40
0.0
 40
0.0
 10
110.9094272291144
 20
163.8558261293801
 30
0.0
 10
110.8858091241694
 20
163.6030111410728
 30
0.0
 10
110.8621910192244
 20
163.1738700908372
 30
0.0
 10
110.8385729142794
 20
162.7925825389066
 30
0.0
 10
110.8149673603661
 20
162.4114976091687
 30
0.0
 10
110.7913618064529
 20
162.0965581239224
 30
0.0
 10
110.7677562525397
 20
162.0121382413081
 30
0.0
 10
110.7431903252123
 20
161.9242838020991
 30
0.0
 10
110.718624397885
 20
162.0922489977001
 30
0.0
 10
110.6940584705576
 20
162.4223065409787
 30
0.0
 10
110.6703223731503
 20
162.7412148359062
 30
0.0
 10
110.646586275743
 20
163.1942331328728
 30
0.0
 10
110.6228501783357
 20
163.5427120076656
 30
0.0
 10
110.5987413385705
 20
163.8966632579395
 30
0.0
 10
110.5746324988053
 20
164.1244234575624
 30
0.0
 10
110.5505236590401
 20
164.1028257772786
 30
0.0
 10
110.5264620860678
 20
164.0812704405125
 30
0.0
 10
110.5024005130955
 20
163.812526277914
 30
0.0
 10
110.4783389401231
 20
163.4414457522552
 30
0.0
 10
110.4543227842286
 20
163.0710656543342
 30
0.0
 10
110.4303066283341
 20
162.6178637970424
 30
0.0
 10
110.4062904724397
 20
162.3253418069525
 30
0.0
 10
110.3823179182006
 20
162.0333508944877
 30
0.0
 10
110.3583453639616
 20
161.9163644256632
 30
0.0
 10
110.3343728097225
 20
162.0370468095425
 30
0.0
 10
110.3104420742147
 20
162.1575186700001
 30
0.0
 10
110.2865113387069
 20
162.508643758305
 30
0.0
 10
110.262580603199
 20
162.902890891859
 30
0.0
 10
110.2386899342824
 20
163.296477947968
 30
0.0
 10
110.2147992653658
 20
163.7131492467379
 30
0.0
 10
110.1909085964492
 20
163.9309920968817
 30
0.0
 10
110.1670562711286
 20
164.1484853177098
 30
0.0
 10
110.143203945808
 20
164.15691666168
 30
0.0
 10
110.1193516204874
 20
163.951807837424
 30
0.0
 10
110.0955359433422
 20
163.7470141549438
 30
0.0
 10
110.071720266197
 20
163.3396022659726
 30
0.0
 10
110.0479045890518
 20
162.9454091055395
 30
0.0
 10
110.0241238907307
 20
162.5517949088325
 30
0.0
 10
110.0003431924095
 20
162.1908839455018
 30
0.0
 10
109.9765624940884
 20
162.0534056493861
 30
0.0
 10
109.9528151298636
 20
161.9161200605958
 30
0.0
 10
109.9290677656388
 20
162.0083683459743
 30
0.0
 10
109.905320401414
 20
162.2815153724059
 30
0.0
 10
109.881604749792
 20
162.5542976340139
 30
0.0
 10
109.8578890981699
 20
162.9940741523487
 30
0.0
 10
109.8341734465479
 20
163.3695073699691
 30
0.0
 10
109.8104879079311
 20
163.7444638803663
 30
0.0
 10
109.7868023693143
 20
164.0369437771414
 30
0.0
 10
109.7631168306975
 20
164.0934216889354
 30
0.0
 10
109.7394598260952
 20
164.1498315616791
 30
0.0
 10
109.7158028214928
 20
163.9681076673305
 30
0.0
 10
109.6921458168905
 20
163.6434448719401
 30
0.0
 10
109.6685157866733
 20
163.3191522662437
 30
0.0
 10
109.6448857564562
 20
162.8679584856063
 30
0.0
 10
109.621255726239
 20
162.5257640567215
 30
0.0
 10
109.597651128936
 20
162.1839379304365
 30
0.0
 10
109.574046531633
 20
161.9673258343118
 30
0.0
 10
109.5504419343301
 20
161.9889748703108
 30
0.0
 10
109.5267846223918
 20
162.0106722537157
 30
0.0
 10
109.5031273104536
 20
162.2707240450145
 30
0.0
 10
109.4794699985153
 20
162.6329008404455
 30
0.0
 10
109.4554090736433
 20
163.0012566658242
 30
0.0
 10
109.4313481487712
 20
163.4568614081599
 30
0.0
 10
109.4072872238992
 20
163.7541562919978
 30
0.0
 10
109.3833153477042
 20
164.050350897427
 30
0.0
 10
109.3593434715092
 20
164.1742881098571
 30
0.0
 10
109.3353715953143
 20
164.0595834715314
 30
0.0
 10
109.3114816172536
 20
163.9452707130813
 30
0.0
 10
109.2875916391929
 20
163.5998513417135
 30
0.0
 10
109.2637016611321
 20
163.207281430773
 30
0.0
 10
109.2398866725811
 20
162.8159437781896
 30
0.0
 10
109.2160716840301
 20
162.3973395814046
 30
0.0
 10
109.1922566954791
 20
162.173224398588
 30
0.0
 10
109.1685100043469
 20
161.9497519407705
 30
0.0
 10
109.1447633132148
 20
161.9306191156347
 30
0.0
 10
109.1210166220827
 20
162.1259126480499
 30
0.0
 10
109.0973317294589
 20
162.3206979475953
 30
0.0
 10
109.0736468368351
 20
162.7191866183429
 30
0.0
 10
109.0499619442113
 20
163.1122179310268
 30
0.0
 10
109.0263325227672
 20
163.5043287451062
 30
0.0
 10
109.0027031013232
 20
163.8720109581791
 30
0.0
 10
108.9790736798792
 20
164.0230352844901
 30
0.0
 10
108.9554675917858
 20
164.1739104787721
 30
0.0
 10
108.9318615036925
 20
164.1013176860815
 30
0.0
 10
108.9082554155991
 20
163.8431462007211
 30
0.0
 10
108.8842837808295
 20
163.5809768598919
 30
0.0
 10
108.8603121460598
 20
163.1401193262882
 30
0.0
 10
108.8363405112901
 20
162.7567060155352
 30
0.0
 10
108.8125259708265
 20
162.3758053430965
 30
0.0
 10
108.7887114303628
 20
162.0706772969169
 30
0.0
 10
108.7648968898992
 20
162.0029583305195
 30
0.0
 10
108.741212532541
 20
161.9356095524672
 30
0.0
 10
108.7175281751828
 20
162.106200544933
 30
0.0
 10
108.6938438178247
 20
162.4251940645426
 30
0.0
 10
108.6696931025514
 20
162.7504687405498
 30
0.0
 10
108.6455423872781
 20
163.213837470701
 30
0.0
 10
108.6213916720048
 20
163.5639926468657
 30
0.0
 10
108.5975830790958
 20
163.9091874764999
 30
0.0
 10
108.5737744861868
 20
164.1270766501793
 30
0.0
 10
108.5499658932778
 20
164.1022855476367
 30
0.0
 10
108.5258334085308
 20
164.0771571872046
 30
0.0
 10
108.5017009237839
 20
163.8034960382547
 30
0.0
 10
108.4775684390369
 20
163.429534307591
 30
0.0
 10
108.4548547023961
 20
163.0775577766571
 30
0.0
 10
108.4321409657552
 20
162.6533910100097
 30
0.0
 10
108.4094272291144
 20
162.3644071675571
 30
0.0
  0
SPLINE
  5
1AB
330
70
100
AcDbEntity
  8
Hidden
100
AcDbSpline
210
0.0
220
0.0
230
1.0
 70
     8
 71
     3
 72
   110
 73
   106
 74
     0
 42
0.000000001
 43
0.0000000001
 40
2.008782795889394
 40
2.008782795889394
 40
2.008782795889394
 40
2.008782795889394
 40
3.121759770694053
 40
3.121759770694053
 40
3.121759770694053
 40
4.234145292059796
 40
4.234145292059796
 40
4.234145292059796
 40
5.391787344362984
 40
5.391787344362984
 40
5.391787344362984
 40
6.510324582957768
 40
6.510324582957768
 40
6.510324582957768
 40
7.64642689135171
 40
7.64642689135171
 40
7.64642689135171
 40
8.780301804607752
 40
8.780301804607752
 40
8.780301804607752
 40
9.9120364884912
 40
9.9120364884912
 40
9.9120364884912
 40
11.04171649276928
 40
11.04171649276928
 40
11.04171649276928
 40
12.16942583576507
 40
12.16942583576507
 40
12.16942583576507
 40
13.29524708513077
 40
13.29524708513077
 40
13.29524708513077
 40
14.4192614351048
 40
14.4192614351048
 40
14.4192614351048
 40
15.54154878049885
 40
15.54154878049885
 40
15.54154878049885
 40
16.6621877876432
 40
16.6621877876432
 40
16.6621877876432
 40
17.78125596250352
 40
17.78125596250352
 40
17.78125596250352
 40
18.89882971616787
 40
18.89882971616787
 40
18.89882971616787
 40
20.01498442788958
 40
20.01498442788958
 40
20.01498442788958
 40
21.12979450586007
 40
21.12979450586007
 40
21.12979450586007
 40
22.24333344587465
 40
22.24333344587465
 40
22.24333344587465
 40
23.35567388804454
 40
23.35567388804454
 40
23.35567388804454
 40
24.47049844887779
 40
24.47049844887779
 40
24.47049844887779
 40
25.60434282112719
 40
25.60434282112719
 40
25.60434282112719
 40
26.73399087332988
 40
26.73399087332988
 40
26.73399087332988
 40
27.85977956687901
 40
27.85977956687901
 40
27.85977956687901
 40
28.98203446303721
 40
28.98203446303721
 40
28.98203446303721
 40
30.10107091915446
 40
30.10107091915446
 40
30.10107091915446
 40
31.21719518917408
 40
31.21719518917408
 40
31.21719518917408
 40
32.33070544143083
 40
32.33070544143083
 40
32.33070544143083
 40
33.4431161354423
 40
33.4431161354423
 40
33.4431161354423
 40
34.5727528107461
 40
34.5727528107461
 40
34.5727528107461
 40
35.6949865912848
 40
35.6949865912848
 40
35.6949865912848
 40
36.81108563750509
 40
36.81108563750509
 40
36.81108563750509
 40
37.94916128272823
 40
37.94916128272823
 40
37.94916128272823
 40
39.07111479135696
 40
39.07111479135696
 40
39.07111479135696
 40
40.20833134326567
 40
40.20833134326567
 40
40.20833134326567
 40
41.27869096576179
 40
41.27869096576179
 40
41.27869096576179
 40
41.27869096576179
 10
108.4094272291144
 20
162.3644071675571
 30
0.0
 10
108.4330453340594
 20
162.0639171677658
 30
0.0
 10
108.4566634390044
 20
161.9241475582939
 30
0.0
 10
108.4802815439495
 20
162.0181127701034
 30
0.0
 10
108.5038870978627
 20
162.1120280473251
 30
0.0
 10
108.5274926517759
 20
162.4348904763555
 30
0.0
 10
108.5510982056891
 20
162.818190732537
 30
0.0
 10
108.5756641330165
 20
163.2170852584831
 30
0.0
 10
108.6002300603438
 20
163.6605805275467
 30
0.0
 10
108.6247959876712
 20
163.9011990294193
 30
0.0
 10
108.6485320850785
 20
164.1336895078912
 30
0.0
 10
108.6722681824858
 20
164.1657574560077
 30
0.0
 10
108.6960042798931
 20
163.9805095222082
 30
0.0
 10
108.7201131196583
 20
163.7923525275619
 30
0.0
 10
108.7442219594235
 20
163.3891048010855
 30
0.0
 10
108.7683307991887
 20
162.9888322908982
 30
0.0
 10
108.792392372161
 20
162.589344538419
 30
0.0
 10
108.8164539451334
 20
162.2135741509901
 30
0.0
 10
108.8405155181057
 20
162.0640604713453
 30
0.0
 10
108.8645316740002
 20
161.9148290041075
 30
0.0
 10
108.8885478298947
 20
161.9986335373505
 30
0.0
 10
108.9125639857892
 20
162.2704465853521
 30
0.0
 10
108.9365365400282
 20
162.5417661530928
 30
0.0
 10
108.9605090942673
 20
162.9864698152405
 30
0.0
 10
108.9844816485063
 20
163.3663497476173
 30
0.0
 10
109.0084123840141
 20
163.7455670014724
 30
0.0
 10
109.032343119522
 20
164.0409193750492
 30
0.0
 10
109.0562738550298
 20
164.0946631418364
 30
0.0
 10
109.0801645239464
 20
164.1483169268704
 30
0.0
 10
109.104055192863
 20
163.9585194008286
 30
0.0
 10
109.1279458617796
 20
163.626353791492
 30
0.0
 10
109.1517981871002
 20
163.2947212950603
 30
0.0
 10
109.1756505124208
 20
162.8378583502526
 30
0.0
 10
109.1995028377414
 20
162.49842679013
 30
0.0
 10
109.2233185148866
 20
162.1595167534724
 30
0.0
 10
109.2471341920318
 20
161.9545612503288
 30
0.0
 10
109.270949869177
 20
161.9921407340762
 30
0.0
 10
109.2947305674981
 20
162.0296650236696
 30
0.0
 10
109.3185112658193
 20
162.3070989137959
 30
0.0
 10
109.3422919641404
 20
162.6778278258807
 30
0.0
 10
109.3660393283652
 20
163.0480370764689
 30
0.0
 10
109.38978669259
 20
163.4929971876845
 30
0.0
 10
109.4135340568148
 20
163.7781163278032
 30
0.0
 10
109.4372497084368
 20
164.0628547153492
 30
0.0
 10
109.4609653600589
 20
164.1742365571353
 30
0.0
 10
109.484681011681
 20
164.0536711777895
 30
0.0
 10
109.5083665502977
 20
163.9332588866227
 30
0.0
 10
109.5320520889145
 20
163.5874103319156
 30
0.0
 10
109.5557376275313
 20
163.1976645814166
 30
0.0
 10
109.5793946321336
 20
162.8083883583813
 30
0.0
 10
109.603051636736
 20
162.3942456062186
 30
0.0
 10
109.6267086413383
 20
162.1721822799964
 30
0.0
 10
109.6503386715555
 20
161.9503721566534
 30
0.0
 10
109.6739687017726
 20
161.9309024944086
 30
0.0
 10
109.6975987319898
 20
162.1239527411499
 30
0.0
 10
109.7212033292928
 20
162.3167952086251
 30
0.0
 10
109.7448079265958
 20
162.7123778381147
 30
0.0
 10
109.7684125238987
 20
163.104251079244
 30
0.0
 10
109.792069835837
 20
163.4969994657831
 30
0.0
 10
109.8157271477752
 20
163.8670231232481
 30
0.0
 10
109.8393844597135
 20
164.0204833474991
 30
0.0
 10
109.8634453845855
 20
164.1765617276714
 30
0.0
 10
109.8875063094576
 20
164.1001636498667
 30
0.0
 10
109.9115672343297
 20
163.8324656355071
 30
0.0
 10
109.9355391105246
 20
163.5657583625334
 30
0.0
 10
109.9595109867196
 20
163.1229584962839
 30
0.0
 10
109.9834828629145
 20
162.7412428171592
 30
0.0
 10
110.0073728409752
 20
162.3608312412971
 30
0.0
 10
110.0312628190359
 20
162.0603178222018
 30
0.0
 10
110.0551527970967
 20
161.9997435799969
 30
0.0
 10
110.0789677856477
 20
161.9393594774701
 30
0.0
 10
110.1027827741987
 20
162.1203198430685
 30
0.0
 10
110.1265977627497
 20
162.4467609296334
 30
0.0
 10
110.1503444538819
 20
162.7722658375578
 30
0.0
 10
110.174091145014
 20
163.2262686132053
 30
0.0
 10
110.1978378361462
 20
163.5694213790138
 30
0.0
 10
110.22152272877
 20
163.9116811223393
 30
0.0
 10
110.2452076213938
 20
164.1269681115709
 30
0.0
 10
110.2688925140175
 20
164.1022814335711
 30
0.0
 10
110.2925219354616
 20
164.0776525729816
 30
0.0
 10
110.3161513569056
 20
163.8154474158209
 30
0.0
 10
110.3397807783496
 20
163.4527504015595
 30
0.0
 10
110.363386866443
 20
163.0904115398088
 30
0.0
 10
110.3869929545363
 20
162.6452499695251
 30
0.0
 10
110.4105990426297
 20
162.349614621281
 30
0.0
 10
110.4345706773994
 20
162.0494012794907
 30
0.0
 10
110.458542312169
 20
161.9187435627191
 30
0.0
 10
110.4825139469387
 20
162.0276244471652
 30
0.0
 10
110.5063284874024
 20
162.1357917980058
 30
0.0
 10
110.530143027866
 20
162.4747065242036
 30
0.0
 10
110.5539575683297
 20
162.8648342464203
 30
0.0
 10
110.5776419256878
 20
163.2528293203713
 30
0.0
 10
110.6013262830459
 20
163.6723872047414
 30
0.0
 10
110.6250106404041
 20
163.9032966453514
 30
0.0
 10
110.6491613556774
 20
164.1387528187979
 30
0.0
 10
110.6733120709507
 20
164.1654391601223
 30
0.0
 10
110.697462786224
 20
163.9688823564502
 30
0.0
 10
110.721271379133
 20
163.7751100035739
 30
0.0
 10
110.745079972042
 20
163.3746597207546
 30
0.0
 10
110.768888564951
 20
162.9795741649832
 30
0.0
 10
110.793021049698
 20
162.579113869624
 30
0.0
 10
110.817153534445
 20
162.2047837737036
 30
0.0
 10
110.8412860191919
 20
162.0593447601777
 30
0.0
 10
110.8639997558327
 20
161.9224561022056
 30
0.0
 10
110.8867134924736
 20
161.9927660651237
 30
0.0
 10
110.9094272291144
 20
162.235900434991
 30
0.0
  0
LINE
  5
1AC
330
70
100
AcDbEntity
  8
Visible
100
AcDbLine
 10
128.409427
 20
166.995863
 30
0.0
 11
128.409427
 21
159.095863
 31
0.0
210
-1.0
220
0.0000000000000002
230
0.0
  0
LINE
  5
1AD
330
70
100
AcDbEntity
  8
Hidden
100
AcDbLine
 10
113.409427
 20
164.802064
 30
0.0
 11
113.003677
 21
165.045863
 31
0.0
210
-1.0
220
0.0000000000000002
230
0.0
  0
LINE
  5
1AE
330
70
100
AcDbEntity
  8
Hidden
100
AcDbLine
 10
113.409427
 20
164.802064
 30
0.0
 11
113.815177
 21
165.045863
 31
0.0
210
-1.0
220
0.0000000000000002
230
0.0
  0
LINE
  5
1AF
330
70
100
AcDbEntity
  8
Hidden
100
AcDbLine
 10
113.815177
 20
166.995863
 30
0.0
 11
113.815177
 21
165.045863
 31
0.0
210
-1.0
220
0.0000000000000002
230
0.0
  0
LINE
  5
1B0
330
70
100
AcDbEntity
  8
Hidden
100
AcDbLine
 10
113.003677
 20
166.995863
 30
0.0
 11
113.003677
 21
165.045863
 31
0.0
210
-1.0
220
0.0000000000000002
230
0.0
  0
LINE
  5
1B1
330
70
100
AcDbEntity
  8
Hidden
100
AcDbLine
 10
112.808567
 20
163.045863
 30
0.0
 11
113.409427
 21
164.045863
 31
0.0
210
-1.0
220
0.0000000000000002
230
0.0
  0
LINE
  5
1B2
330
70
100
AcDbEntity
  8
Hidden
100
AcDbLine
 10
112.808567
 20
163.045863
 30
0.0
 11
113.409427
 21
162.045863
 31
0.0
210
-1.0
220
0.0000000000000002
230
0.0
  0
LINE
  5
1B3
330
70
100
AcDbEntity
  8
Hidden
100
AcDbLine
 10
128.409427
 20
162.045863
 30
0.0
 11
113.409427
 21
162.045863
 31
0.0
210
-1.0
220
0.0000000000000002
230
0.0
  0
LINE
  5
1B4
330
70
100
AcDbEntity
  8
Hidden
100
AcDbLine
 10
128.409427
 20
164.045863
 30
0.0
 11
113.409427
 21
164.045863
 31
0.0
210
-1.0
220
0.0000000000000002
230
0.0
  0
LINE
  5
1B5
330
70
100
AcDbEntity
  8
Hidden
100
AcDbLine
 10
108.409427
 20
164.325863
 30
0.0
 11
108.426072
 21
164.325863
 31
0.0
210
-1.0
220
0.0000000000000002
230
0.0
  0
LINE
  5
1B6
330
70
100
AcDbEntity
  8
Hidden
100
AcDbLine
 10
108.792782
 20
164.325863
 30
0.0
 11
108.826072
 21
164.325863
 31
0.0
210
-1.0
220
0.0000000000000002
230
0.0
  0
LINE
  5
1B7
330
70
100
AcDbEntity
  8
Hidden
100
AcDbLine
 10
109.192782
 20
164.325863
 30
0.0
 11
109.226072
 21
164.325863
 31
0.0
210
-1.0
220
0.0000000000000002
230
0.0
  0
LINE
  5
1B8
330
70
100
AcDbEntity
  8
Hidden
100
AcDbLine
 10
109.592782
 20
164.325863
 30
0.0
 11
109.626072
 21
164.325863
 31
0.0
210
-1.0
220
0.0000000000000002
230
0.0
  0
LINE
  5
1B9
330
70
100
AcDbEntity
  8
Hidden
100
AcDbLine
 10
109.992782
 20
164.325863
 30
0.0
 11
110.026072
 21
164.325863
 31
0.0
210
-1.0
220
0.0000000000000002
230
0.0
  0
LINE
  5
1BA
330
70
100
AcDbEntity
  8
Hidden
100
AcDbLine
 10
110.392782
 20
164.325863
 30
0.0
 11
110.426072
 21
164.325863
 31
0.0
210
-1.0
220
0.0000000000000002
230
0.0
  0
LINE
  5
1BB
330
70
100
AcDbEntity
  8
Hidden
100
AcDbLine
 10
110.792782
 20
164.325863
 30
0.0
 11
110.826072
 21
164.325863
 31
0.0
210
-1.0
220
0.0000000000000002
230
0.0
  0
LINE
  5
1BC
330
70
100
AcDbEntity
  8
Hidden
100
AcDbLine
 10
108.592782
 20
161.765863
 30
0.0
 11
108.626072
 21
161.765863
 31
0.0
210
-1.0
220
0.0000000000000002
230
0.0
  0
LINE
  5
1BD
330
70
100
AcDbEntity
  8
Hidden
100
AcDbLine
 10
108.992782
 20
161.765863
 30
0.0
 11
109.026072
 21
161.765863
 31
0.0
210
-1.0
220
0.0000000000000002
230
0.0
  0
LINE
  5
1BE
330
70
100
AcDbEntity
  8
Hidden
100
AcDbLine
 10
109.392782
 20
161.765863
 30
0.0
 11
109.426072
 21
161.765863
 31
0.0
210
-1.0
220
0.0000000000000002
230
0.0
  0
LINE
  5
1BF
330
70
100
AcDbEntity
  8
Hidden
100
AcDbLine
 10
109.792782
 20
161.765863
 30
0.0
 11
109.826072
 21
161.765863
 31
0.0
210
-1.0
220
0.0000000000000002
230
0.0
  0
LINE
  5
1C0
330
70
100
AcDbEntity
  8
Hidden
100
AcDbLine
 10
110.192782
 20
161.765863
 30
0.0
 11
110.226072
 21
161.765863
 31
0.0
210
-1.0
220
0.0000000000000002
230
0.0
  0
LINE
  5
1C1
330
70
100
AcDbEntity
  8
Hidden
100
AcDbLine
 10
110.592782
 20
161.765863
 30
0.0
 11
110.626072
 21
161.765863
 31
0.0
210
-1.0
220
0.0000000000000002
230
0.0
  0
SPLINE
  5
1C2
330
70
100
AcDbEntity
  8
Hidden
100
AcDbSpline
210
0.0
220
0.0
230
1.0
 70
     8
 71
     3
 72
     8
 73
     4
 74
     0
 42
0.000000001
 43
0.0000000001
 40
0.0
 40
0.0
 40
0.0
 40
0.0
 40
0.0514357398617395
 40
0.0514357398617395
 40
0.0514357398617395
 40
0.0514357398617395
 10
108.4315429480404
 20
164.3211401233739
 30
0.0
 10
108.4745249548738
 20
164.2469678108346
 30
0.0
 10
108.5175266125085
 20
164.1728068787806
 30
0.0
 10
108.5605633132941
 20
164.0986663183685
 30
0.0
  0
SPLINE
  5
1C3
330
70
100
AcDbEntity
  8
Hidden
100
AcDbSpline
210
0.0
220
0.0
230
1.0
 70
     8
 71
     3
 72
     8
 73
     4
 74
     0
 42
0.000000001
 43
0.0000000001
 40
0.0
 40
0.0
 40
0.0
 40
0.0
 40
0.0514357398617395
 40
0.0514357398617395
 40
0.0514357398617395
 40
0.0514357398617395
 10
108.8315429480404
 20
164.3211401233739
 30
0.0
 10
108.8745249548737
 20
164.2469678108346
 30
0.0
 10
108.9175266125085
 20
164.1728068787806
 30
0.0
 10
108.960563313294
 20
164.0986663183685
 30
0.0
  0
SPLINE
  5
1C4
330
70
100
AcDbEntity
  8
Hidden
100
AcDbSpline
210
0.0
220
0.0
230
1.0
 70
     8
 71
     3
 72
     8
 73
     4
 74
     0
 42
0.000000001
 43
0.0000000001
 40
0.0
 40
0.0
 40
0.0
 40
0.0
 40
0.0514357398617394
 40
0.0514357398617394
 40
0.0514357398617394
 40
0.0514357398617394
 10
109.2315429480404
 20
164.3211401233739
 30
0.0
 10
109.2745249548737
 20
164.2469678108346
 30
0.0
 10
109.3175266125086
 20
164.1728068787806
 30
0.0
 10
109.3605633132941
 20
164.0986663183685
 30
0.0
  0
SPLINE
  5
1C5
330
70
100
AcDbEntity
  8
Hidden
100
AcDbSpline
210
0.0
220
0.0
230
1.0
 70
     8
 71
     3
 72
     8
 73
     4
 74
     0
 42
0.000000001
 43
0.0000000001
 40
0.0
 40
0.0
 40
0.0
 40
0.0
 40
0.0514357398617394
 40
0.0514357398617394
 40
0.0514357398617394
 40
0.0514357398617394
 10
109.6315429480404
 20
164.3211401233739
 30
0.0
 10
109.6745249548738
 20
164.2469678108346
 30
0.0
 10
109.7175266125085
 20
164.1728068787806
 30
0.0
 10
109.7605633132941
 20
164.0986663183685
 30
0.0
  0
SPLINE
  5
1C6
330
70
100
AcDbEntity
  8
Hidden
100
AcDbSpline
210
0.0
220
0.0
230
1.0
 70
     8
 71
     3
 72
     8
 73
     4
 74
     0
 42
0.000000001
 43
0.0000000001
 40
0.0
 40
0.0
 40
0.0
 40
0.0
 40
0.0514357398617391
 40
0.0514357398617391
 40
0.0514357398617391
 40
0.0514357398617391
 10
110.0315429480404
 20
164.3211401233739
 30
0.0
 10
110.0745249548737
 20
164.2469678108346
 30
0.0
 10
110.1175266125085
 20
164.1728068787806
 30
0.0
 10
110.160563313294
 20
164.0986663183685
 30
0.0
  0
SPLINE
  5
1C7
330
70
100
AcDbEntity
  8
Hidden
100
AcDbSpline
210
0.0
220
0.0
230
1.0
 70
     8
 71
     3
 72
     8
 73
     4
 74
     0
 42
0.000000001
 43
0.0000000001
 40
0.0
 40
0.0
 40
0.0
 40
0.0
 40
0.0514357398617395
 40
0.0514357398617395
 40
0.0514357398617395
 40
0.0514357398617395
 10
110.4315429480404
 20
164.3211401233739
 30
0.0
 10
110.4745249548738
 20
164.2469678108346
 30
0.0
 10
110.5175266125086
 20
164.1728068787806
 30
0.0
 10
110.5605633132941
 20
164.0986663183685
 30
0.0
  0
SPLINE
  5
1C8
330
70
100
AcDbEntity
  8
Hidden
100
AcDbSpline
210
0.0
220
0.0
230
1.0
 70
     8
 71
     3
 72
     8
 73
     4
 74
     0
 42
0.000000001
 43
0.0000000001
 40
0.0
 40
0.0
 40
0.0
 40
0.0
 40
0.0310575483052858
 40
0.0310575483052858
 40
0.0310575483052858
 40
0.0310575483052858
 10
110.8315429480404
 20
164.3211401233739
 30
0.0
 10
110.8574960257462
 20
164.2763539457901
 30
0.0
 10
110.8834564872525
 20
164.2315720477218
 30
0.0
 10
110.9094272291139
 20
164.1867961191865
 30
0.0
  0
SPLINE
  5
1C9
330
70
100
AcDbEntity
  8
Hidden
100
AcDbSpline
210
0.0
220
0.0
230
1.0
 70
     8
 71
     3
 72
     8
 73
     4
 74
     0
 42
0.000000001
 43
0.0000000001
 40
0.0
 40
0.0
 40
0.0
 40
0.0
 40
0.0514357398617393
 40
0.0514357398617393
 40
0.0514357398617393
 40
0.0514357398617393
 10
110.7605633132941
 20
161.9930602460026
 30
0.0
 10
110.7175266125085
 20
161.9189196855905
 30
0.0
 10
110.6745249548738
 20
161.8447587535365
 30
0.0
 10
110.6315429480404
 20
161.7705864409972
 30
0.0
  0
SPLINE
  5
1CA
330
70
100
AcDbEntity
  8
Hidden
100
AcDbSpline
210
0.0
220
0.0
230
1.0
 70
     8
 71
     3
 72
     8
 73
     4
 74
     0
 42
0.000000001
 43
0.0000000001
 40
0.0
 40
0.0
 40
0.0
 40
0.0
 40
0.0514357398617392
 40
0.0514357398617392
 40
0.0514357398617392
 40
0.0514357398617392
 10
110.3605633132941
 20
161.9930602460026
 30
0.0
 10
110.3175266125086
 20
161.9189196855905
 30
0.0
 10
110.2745249548737
 20
161.8447587535365
 30
0.0
 10
110.2315429480404
 20
161.7705864409972
 30
0.0
  0
SPLINE
  5
1CB
330
70
100
AcDbEntity
  8
Hidden
100
AcDbSpline
210
0.0
220
0.0
230
1.0
 70
     8
 71
     3
 72
     8
 73
     4
 74
     0
 42
0.000000001
 43
0.0000000001
 40
0.0
 40
0.0
 40
0.0
 40
0.0
 40
0.0514357398617395
 40
0.0514357398617395
 40
0.0514357398617395
 40
0.0514357398617395
 10
109.960563313294
 20
161.9930602460026
 30
0.0
 10
109.9175266125085
 20
161.9189196855905
 30
0.0
 10
109.8745249548737
 20
161.8447587535365
 30
0.0
 10
109.8315429480404
 20
161.7705864409972
 30
0.0
  0
SPLINE
  5
1CC
330
70
100
AcDbEntity
  8
Hidden
100
AcDbSpline
210
0.0
220
0.0
230
1.0
 70
     8
 71
     3
 72
     8
 73
     4
 74
     0
 42
0.000000001
 43
0.0000000001
 40
0.0
 40
0.0
 40
0.0
 40
0.0
 40
0.0514357398617394
 40
0.0514357398617394
 40
0.0514357398617394
 40
0.0514357398617394
 10
109.5605633132941
 20
161.9930602460026
 30
0.0
 10
109.5175266125086
 20
161.9189196855905
 30
0.0
 10
109.4745249548738
 20
161.8447587535365
 30
0.0
 10
109.4315429480404
 20
161.7705864409972
 30
0.0
  0
SPLINE
  5
1CD
330
70
100
AcDbEntity
  8
Hidden
100
AcDbSpline
210
0.0
220
0.0
230
1.0
 70
     8
 71
     3
 72
     8
 73
     4
 74
     0
 42
0.000000001
 43
0.0000000001
 40
0.0
 40
0.0
 40
0.0
 40
0.0
 40
0.0514357398617393
 40
0.0514357398617393
 40
0.0514357398617393
 40
0.0514357398617393
 10
109.1605633132941
 20
161.9930602460026
 30
0.0
 10
109.1175266125086
 20
161.9189196855905
 30
0.0
 10
109.0745249548737
 20
161.8447587535365
 30
0.0
 10
109.0315429480404
 20
161.7705864409972
 30
0.0
  0
SPLINE
  5
1CE
330
70
100
AcDbEntity
  8
Hidden
100
AcDbSpline
210
0.0
220
0.0
230
1.0
 70
     8
 71
     3
 72
     8
 73
     4
 74
     0
 42
0.000000001
 43
0.0000000001
 40
0.0
 40
0.0
 40
0.0
 40
0.0
 40
0.0514357398617394
 40
0.0514357398617394
 40
0.0514357398617394
 40
0.0514357398617394
 10
108.760563313294
 20
161.9930602460026
 30
0.0
 10
108.7175266125085
 20
161.9189196855905
 30
0.0
 10
108.6745249548737
 20
161.8447587535365
 30
0.0
 10
108.6315429480404
 20
161.7705864409972
 30
0.0
  0
SPLINE
  5
1CF
330
70
100
AcDbEntity
  8
Hidden
100
AcDbSpline
210
0.0
220
0.0
230
1.0
 70
     8
 71
     3
 72
     8
 73
     4
 74
     0
 42
0.000000001
 43
0.0000000001
 40
0.0
 40
0.0
 40
0.0
 40
0.0
 40
0.0203781926788096
 40
0.0203781926788096
 40
0.0203781926788096
 40
0.0203781926788096
 10
110.9094272291144
 20
161.9049304451855
 30
0.0
 10
110.892386708837
 20
161.9343098569179
 30
0.0
 10
110.8753417440556
 20
161.9636866892215
 30
0.0
 10
110.8582911449348
 20
161.9930602460026
 30
0.0
  0
SPLINE
  5
1D0
330
70
100
AcDbEntity
  8
Hidden
100
AcDbSpline
210
0.0
220
0.0
230
1.0
 70
     8
 71
     3
 72
     8
 73
     4
 74
     0
 42
0.000000001
 43
0.0000000001
 40
0.0
 40
0.0
 40
0.0
 40
0.0
 40
0.0514357398617392
 40
0.0514357398617392
 40
0.0514357398617392
 40
0.0514357398617392
 10
108.6582911449347
 20
164.0986663183685
 30
0.0
 10
108.7013278457202
 20
164.1728068787806
 30
0.0
 10
108.7443295033551
 20
164.2469678108346
 30
0.0
 10
108.7873115101884
 20
164.3211401233739
 30
0.0
  0
SPLINE
  5
1D1
330
70
100
AcDbEntity
  8
Hidden
100
AcDbSpline
210
0.0
220
0.0
230
1.0
 70
     8
 71
     3
 72
     8
 73
     4
 74
     0
 42
0.000000001
 43
0.0000000001
 40
0.0
 40
0.0
 40
0.0
 40
0.0
 40
0.0514357398617395
 40
0.0514357398617395
 40
0.0514357398617395
 40
0.0514357398617395
 10
109.0582911449347
 20
164.0986663183685
 30
0.0
 10
109.1013278457203
 20
164.1728068787806
 30
0.0
 10
109.1443295033551
 20
164.2469678108346
 30
0.0
 10
109.1873115101884
 20
164.3211401233739
 30
0.0
  0
SPLINE
  5
1D2
330
70
100
AcDbEntity
  8
Hidden
100
AcDbSpline
210
0.0
220
0.0
230
1.0
 70
     8
 71
     3
 72
     8
 73
     4
 74
     0
 42
0.000000001
 43
0.0000000001
 40
0.0
 40
0.0
 40
0.0
 40
0.0
 40
0.0514357398617394
 40
0.0514357398617394
 40
0.0514357398617394
 40
0.0514357398617394
 10
109.4582911449347
 20
164.0986663183685
 30
0.0
 10
109.5013278457203
 20
164.1728068787806
 30
0.0
 10
109.544329503355
 20
164.2469678108346
 30
0.0
 10
109.5873115101884
 20
164.3211401233739
 30
0.0
  0
SPLINE
  5
1D3
330
70
100
AcDbEntity
  8
Hidden
100
AcDbSpline
210
0.0
220
0.0
230
1.0
 70
     8
 71
     3
 72
     8
 73
     4
 74
     0
 42
0.000000001
 43
0.0000000001
 40
0.0
 40
0.0
 40
0.0
 40
0.0
 40
0.0514357398617393
 40
0.0514357398617393
 40
0.0514357398617393
 40
0.0514357398617393
 10
109.8582911449348
 20
164.0986663183685
 30
0.0
 10
109.9013278457203
 20
164.1728068787806
 30
0.0
 10
109.9443295033551
 20
164.2469678108346
 30
0.0
 10
109.9873115101884
 20
164.3211401233739
 30
0.0
  0
SPLINE
  5
1D4
330
70
100
AcDbEntity
  8
Hidden
100
AcDbSpline
210
0.0
220
0.0
230
1.0
 70
     8
 71
     3
 72
     8
 73
     4
 74
     0
 42
0.000000001
 43
0.0000000001
 40
0.0
 40
0.0
 40
0.0
 40
0.0
 40
0.0514357398617395
 40
0.0514357398617395
 40
0.0514357398617395
 40
0.0514357398617395
 10
110.2582911449348
 20
164.0986663183685
 30
0.0
 10
110.3013278457203
 20
164.1728068787806
 30
0.0
 10
110.3443295033551
 20
164.2469678108346
 30
0.0
 10
110.3873115101884
 20
164.3211401233739
 30
0.0
  0
SPLINE
  5
1D5
330
70
100
AcDbEntity
  8
Hidden
100
AcDbSpline
210
0.0
220
0.0
230
1.0
 70
     8
 71
     3
 72
     8
 73
     4
 74
     0
 42
0.000000001
 43
0.0000000001
 40
0.0
 40
0.0
 40
0.0
 40
0.0
 40
0.0514357398617394
 40
0.0514357398617394
 40
0.0514357398617394
 40
0.0514357398617394
 10
110.6582911449347
 20
164.0986663183685
 30
0.0
 10
110.7013278457203
 20
164.1728068787806
 30
0.0
 10
110.7443295033551
 20
164.2469678108346
 30
0.0
 10
110.7873115101884
 20
164.3211401233739
 30
0.0
  0
SPLINE
  5
1D6
330
70
100
AcDbEntity
  8
Hidden
100
AcDbSpline
210
0.0
220
0.0
230
1.0
 70
     8
 71
     3
 72
     8
 73
     4
 74
     0
 42
0.000000001
 43
0.0000000001
 40
0.0
 40
0.0
 40
0.0
 40
0.0
 40
0.0514357398617393
 40
0.0514357398617393
 40
0.0514357398617393
 40
0.0514357398617393
 10
108.5873115101884
 20
161.7705864409972
 30
0.0
 10
108.5443295033551
 20
161.8447587535365
 30
0.0
 10
108.5013278457203
 20
161.9189196855905
 30
0.0
 10
108.4582911449347
 20
161.9930602460026
 30
0.0
  0
SPLINE
  5
1D7
330
70
100
AcDbEntity
  8
Hidden
100
AcDbSpline
210
0.0
220
0.0
230
1.0
 70
     8
 71
     3
 72
     8
 73
     4
 74
     0
 42
0.000000001
 43
0.0000000001
 40
0.0
 40
0.0
 40
0.0
 40
0.0
 40
0.0514357398617394
 40
0.0514357398617394
 40
0.0514357398617394
 40
0.0514357398617394
 10
108.9873115101884
 20
161.7705864409972
 30
0.0
 10
108.9443295033551
 20
161.8447587535365
 30
0.0
 10
108.9013278457203
 20
161.9189196855905
 30
0.0
 10
108.8582911449348
 20
161.9930602460026
 30
0.0
  0
SPLINE
  5
1D8
330
70
100
AcDbEntity
  8
Hidden
100
AcDbSpline
210
0.0
220
0.0
230
1.0
 70
     8
 71
     3
 72
     8
 73
     4
 74
     0
 42
0.000000001
 43
0.0000000001
 40
0.0
 40
0.0
 40
0.0
 40
0.0
 40
0.0514357398617396
 40
0.0514357398617396
 40
0.0514357398617396
 40
0.0514357398617396
 10
109.3873115101884
 20
161.7705864409972
 30
0.0
 10
109.3443295033551
 20
161.8447587535365
 30
0.0
 10
109.3013278457203
 20
161.9189196855905
 30
0.0
 10
109.2582911449348
 20
161.9930602460026
 30
0.0
  0
SPLINE
  5
1D9
330
70
100
AcDbEntity
  8
Hidden
100
AcDbSpline
210
0.0
220
0.0
230
1.0
 70
     8
 71
     3
 72
     8
 73
     4
 74
     0
 42
0.000000001
 43
0.0000000001
 40
0.0
 40
0.0
 40
0.0
 40
0.0
 40
0.0514357398617396
 40
0.0514357398617396
 40
0.0514357398617396
 40
0.0514357398617396
 10
109.7873115101884
 20
161.7705864409972
 30
0.0
 10
109.7443295033551
 20
161.8447587535365
 30
0.0
 10
109.7013278457202
 20
161.9189196855905
 30
0.0
 10
109.6582911449347
 20
161.9930602460026
 30
0.0
  0
SPLINE
  5
1DA
330
70
100
AcDbEntity
  8
Hidden
100
AcDbSpline
210
0.0
220
0.0
230
1.0
 70
     8
 71
     3
 72
     8
 73
     4
 74
     0
 42
0.000000001
 43
0.0000000001
 40
0.0
 40
0.0
 40
0.0
 40
0.0
 40
0.0514357398617393
 40
0.0514357398617393
 40
0.0514357398617393
 40
0.0514357398617393
 10
110.1873115101884
 20
161.7705864409972
 30
0.0
 10
110.1443295033551
 20
161.8447587535365
 30
0.0
 10
110.1013278457203
 20
161.9189196855905
 30
0.0
 10
110.0582911449348
 20
161.9930602460026
 30
0.0
  0
SPLINE
  5
1DB
330
70
100
AcDbEntity
  8
Hidden
100
AcDbSpline
210
0.0
220
0.0
230
1.0
 70
     8
 71
     3
 72
     8
 73
     4
 74
     0
 42
0.000000001
 43
0.0000000001
 40
0.0
 40
0.0
 40
0.0
 40
0.0
 40
0.0514357398617393
 40
0.0514357398617393
 40
0.0514357398617393
 40
0.0514357398617393
 10
110.5873115101884
 20
161.7705864409972
 30
0.0
 10
110.544329503355
 20
161.8447587535365
 30
0.0
 10
110.5013278457203
 20
161.9189196855905
 30
0.0
 10
110.4582911449348
 20
161.9930602460026
 30
0.0
  0
LINE
  5
1DC
330
70
100
AcDbEntity
  8
Hidden
100
AcDbLine
 10
111.545438
 20
163.045863
 30
0.0
 11
110.909427
 21
161.987363
 31
0.0
210
-1.0
220
0.0000000000000002
230
0.0
  0
LINE
  5
1DD
330
70
100
AcDbEntity
  8
Hidden
100
AcDbLine
 10
111.545438
 20
163.045863
 30
0.0
 11
110.909427
 21
164.104363
 31
0.0
210
-1.0
220
0.0000000000000002
230
0.0
  0
LINE
  5
1DE
330
70
100
AcDbEntity
  8
Hidden
100
AcDbLine
 10
108.553955
 20
164.104363
 30
0.0
 11
108.664899
 21
164.104363
 31
0.0
210
-1.0
220
0.0000000000000002
230
0.0
  0
LINE
  5
1DF
330
70
100
AcDbEntity
  8
Hidden
100
AcDbLine
 10
108.953955
 20
164.104363
 30
0.0
 11
109.064899
 21
164.104363
 31
0.0
210
-1.0
220
0.0000000000000002
230
0.0
  0
LINE
  5
1E0
330
70
100
AcDbEntity
  8
Hidden
100
AcDbLine
 10
109.353955
 20
164.104363
 30
0.0
 11
109.464899
 21
164.104363
 31
0.0
210
-1.0
220
0.0000000000000002
230
0.0
  0
LINE
  5
1E1
330
70
100
AcDbEntity
  8
Hidden
100
AcDbLine
 10
109.753955
 20
164.104363
 30
0.0
 11
109.864899
 21
164.104363
 31
0.0
210
-1.0
220
0.0000000000000002
230
0.0
  0
LINE
  5
1E2
330
70
100
AcDbEntity
  8
Hidden
100
AcDbLine
 10
110.153955
 20
164.104363
 30
0.0
 11
110.264899
 21
164.104363
 31
0.0
210
-1.0
220
0.0000000000000002
230
0.0
  0
LINE
  5
1E3
330
70
100
AcDbEntity
  8
Hidden
100
AcDbLine
 10
110.553955
 20
164.104363
 30
0.0
 11
110.664899
 21
164.104363
 31
0.0
210
-1.0
220
0.0000000000000002
230
0.0
  0
LINE
  5
1E4
330
70
100
AcDbEntity
  8
Hidden
100
AcDbLine
 10
108.409427
 20
161.987363
 30
0.0
 11
108.464899
 21
161.987363
 31
0.0
210
-1.0
220
0.0000000000000002
230
0.0
  0
LINE
  5
1E5
330
70
100
AcDbEntity
  8
Hidden
100
AcDbLine
 10
108.753955
 20
161.987363
 30
0.0
 11
108.864899
 21
161.987363
 31
0.0
210
-1.0
220
0.0000000000000002
230
0.0
  0
LINE
  5
1E6
330
70
100
AcDbEntity
  8
Hidden
100
AcDbLine
 10
109.153955
 20
161.987363
 30
0.0
 11
109.264899
 21
161.987363
 31
0.0
210
-1.0
220
0.0000000000000002
230
0.0
  0
LINE
  5
1E7
330
70
100
AcDbEntity
  8
Hidden
100
AcDbLine
 10
109.553955
 20
161.987363
 30
0.0
 11
109.664899
 21
161.987363
 31
0.0
210
-1.0
220
0.0000000000000002
230
0.0
  0
LINE
  5
1E8
330
70
100
AcDbEntity
  8
Hidden
100
AcDbLine
 10
109.953955
 20
161.987363
 30
0.0
 11
110.064899
 21
161.987363
 31
0.0
210
-1.0
220
0.0000000000000002
230
0.0
  0
LINE
  5
1E9
330
70
100
AcDbEntity
  8
Hidden
100
AcDbLine
 10
110.353955
 20
161.987363
 30
0.0
 11
110.464899
 21
161.987363
 31
0.0
210
-1.0
220
0.0000000000000002
230
0.0
  0
LINE
  5
1EA
330
70
100
AcDbEntity
  8
Hidden
100
AcDbLine
 10
110.753955
 20
161.987363
 30
0.0
 11
110.864899
 21
161.987363
 31
0.0
210
-1.0
220
0.0000000000000002
230
0.0
  0
LINE
  5
1EB
330
70
100
AcDbEntity
  8
Visible
100
AcDbLine
 10
128.409427
 20
159.095863
 30
0.0
 11
110.909427
 21
159.095863
 31
0.0
210
-1.0
220
0.0000000000000002
230
0.0
  0
LINE
  5
1EC
330
70
100
AcDbEntity
  8
Hidden
100
AcDbLine
 10
110.909427
 20
159.095863
 30
0.0
 11
108.409427
 21
159.095863
 31
0.0
210
-1.0
220
0.0000000000000002
230
0.0
  0
LINE
  5
1ED
330
70
100
AcDbEntity
  8
Visible
100
AcDbLine
 10
128.409427
 20
166.995863
 30
0.0
 11
113.815177
 21
166.995863
 31
0.0
210
-1.0
220
0.0000000000000002
230
0.0
  0
LINE
  5
1EE
330
70
100
AcDbEntity
  8
Visible
100
AcDbLine
 10
113.003677
 20
166.995863
 30
0.0
 11
110.909427
 21
166.995863
 31
0.0
210
-1.0
220
0.0000000000000002
230
0.0
  0
LINE
  5
1EF
330
70
100
AcDbEntity
  8
Hidden
100
AcDbLine
 10
110.909427
 20
166.995863
 30
0.0
 11
108.409427
 21
166.995863
 31
0.0
210
-1.0
220
0.0000000000000002
230
0.0
  0
ENDSEC
  0
SECTION
  2
OBJECTS
  0
DICTIONARY
  5
C
330
0
100
AcDbDictionary
281
     1
  3
ACAD_COLOR
350
63
  3
ACAD_DETAILVIEWSTYLE
350
6A
  3
ACAD_GROUP
350
D
  3
ACAD_LAYOUT
350
62
  3
ACAD_MATERIAL
350
10
  3
ACAD_MLEADERSTYLE
350
66
  3
ACAD_MLINESTYLE
350
5F
  3
ACAD_PLOTSETTINGS
350
61
  3
ACAD_PLOTSTYLENAME
350
E
  3
ACAD_SCALELIST
350
42
  3
ACAD_SECTIONVIEWSTYLE
350
68
  3
ACAD_TABLESTYLE
350
64
  3
ACAD_VISUALSTYLE
350
29
  3
ACDB_RECOMPOSE_DATA
350
1F9
  3
AcDbVariableDictionary
350
1F0
  0
DICTIONARY
  5
A5
330
70
100
AcDbDictionary
280
     1
281
     1
  3
ACAD_SORTENTS
360
A6
  0
DICTIONARY
  5
120
330
11F
100
AcDbDictionary
280
     1
281
     1
  3
ACAD_SORTENTS
360
17F
  0
DICTIONARY
  5
136
330
135
100
AcDbDictionary
280
     1
281
     1
  3
ACAD_SORTENTS
360
180
  0
DICTIONARY
  5
151
330
150
100
AcDbDictionary
280
     1
281
     1
  0
DICTIONARY
  5
153
330
152
100
AcDbDictionary
280
     1
281
     1
  0
DICTIONARY
  5
155
330
154
100
AcDbDictionary
280
     1
281
     1
  0
DICTIONARY
  5
157
330
156
100
AcDbDictionary
280
     1
281
     1
  0
DICTIONARY
  5
159
330
158
100
AcDbDictionary
280
     1
281
     1
  0
DICTIONARY
  5
15B
330
15A
100
AcDbDictionary
280
     1
281
     1
  0
DICTIONARY
  5
15D
330
15C
100
AcDbDictionary
280
     1
281
     1
  0
DICTIONARY
  5
15F
330
15E
100
AcDbDictionary
280
     1
281
     1
  0
DICTIONARY
  5
161
330
160
100
AcDbDictionary
280
     1
281
     1
  0
DICTIONARY
  5
163
330
162
100
AcDbDictionary
280
     1
281
     1
  0
DICTIONARY
  5
165
330
164
100
AcDbDictionary
280
     1
281
     1
  0
DICTIONARY
  5
167
330
166
100
AcDbDictionary
280
     1
281
     1
  0
DICTIONARY
  5
169
330
168
100
AcDbDictionary
280
     1
281
     1
  0
DICTIONARY
  5
16B
330
16A
100
AcDbDictionary
280
     1
281
     1
  0
DICTIONARY
  5
16D
330
16C
100
AcDbDictionary
280
     1
281
     1
  0
DICTIONARY
  5
63
102
{ACAD_REACTORS
330
C
102
}
330
C
100
AcDbDictionary
281
     1
  0
DICTIONARY
  5
6A
102
{ACAD_REACTORS
330
C
102
}
330
C
100
AcDbDictionary
281
     1
  3
Imperial24
350
6B
  0
DICTIONARY
  5
D
102
{ACAD_REACTORS
330
C
102
}
330
C
100
AcDbDictionary
281
     1
  0
DICTIONARY
  5
62
102
{ACAD_REACTORS
330
C
102
}
330
C
100
AcDbDictionary
281
     1
  3
Model
350
73
  3
Sheet1
350
6F
  3
Sheet2
350
77
  0
DICTIONARY
  5
10
102
{ACAD_REACTORS
330
C
102
}
330
C
100
AcDbDictionary
281
     1
  3
ByBlock
350
19
  3
ByLayer
350
11
  3
Global
350
21
  0
DICTIONARY
  5
66
102
{ACAD_REACTORS
330
C
102
}
330
C
100
AcDbDictionary
281
     1
  3
Standard
350
67
  0
DICTIONARY
  5
5F
102
{ACAD_REACTORS
330
C
102
}
330
C
100
AcDbDictionary
281
     1
  3
Standard
350
60
  0
DICTIONARY
  5
61
102
{ACAD_REACTORS
330
C
102
}
330
C
100
AcDbDictionary
281
     1
  0
ACDBDICTIONARYWDFLT
  5
E
102
{ACAD_REACTORS
330
C
102
}
330
C
100
AcDbDictionary
281
     1
  3
Normal
350
F
100
AcDbDictionaryWithDefault
340
F
  0
DICTIONARY
  5
42
102
{ACAD_REACTORS
330
C
102
}
330
C
100
AcDbDictionary
281
     1
  3
A0
350
43
  3
A1
350
44
  3
A2
350
45
  3
A3
350
46
  3
A4
350
47
  3
A5
350
48
  3
A6
350
49
  3
A7
350
4A
  3
A8
350
4B
  3
A9
350
4C
  3
B0
350
4D
  3
B1
350
4E
  3
B2
350
4F
  3
B3
350
50
  3
B4
350
51
  3
B5
350
52
  3
B6
350
53
  0
DICTIONARY
  5
68
102
{ACAD_REACTORS
330
C
102
}
330
C
100
AcDbDictionary
281
     1
  3
Imperial24
350
69
  0
DICTIONARY
  5
64
102
{ACAD_REACTORS
330
C
102
}
330
C
100
AcDbDictionary
281
     1
  3
Standard
350
65
  0
DICTIONARY
  5
29
102
{ACAD_REACTORS
330
C
102
}
330
C
100
AcDbDictionary
281
     1
  3
2dWireframe
350
2F
  3
Basic
350
2E
  3
Brighten
350
35
  3
ColorChange
350
39
  3
Conceptual
350
32
  3
Dim
350
34
  3
EdgeColorOff
350
41
  3
Facepattern
350
38
  3
Flat
350
2A
  3
FlatWithEdges
350
2B
  3
Gouraud
350
2C
  3
GouraudWithEdges
350
2D
  3
Hidden
350
31
  3
JitterOff
350
3F
  3
Linepattern
350
37
  3
OverhangOff
350
40
  3
Realistic
350
33
  3
Shaded
350
3E
  3
Shaded with edges
350
3D
  3
Shades of Gray
350
3A
  3
Sketchy
350
3B
  3
Thicken
350
36
  3
Wireframe
350
30
  3
X-Ray
350
3C
  0
XRECORD
  5
1F9
102
{ACAD_REACTORS
330
C
102
}
330
C
100
AcDbXrecord
280
     1
 90
        1
330
65
  0
DICTIONARY
  5
1F0
102
{ACAD_REACTORS
330
C
102
}
330
C
100
AcDbDictionary
281
     1
  3
ANNOALLVISIBLE
350
1F5
  3
CANNOSCALE
350
1F6
  3
CMLEADERSTYLE
350
1F2
  3
CTABLESTYLE
350
1F1
  3
CVIEWDETAILSTYLE
350
1F3
  3
CVIEWSECTIONSTYLE
350
1F4
  0
SORTENTSTABLE
  5
A6
102
{ACAD_REACTORS
330
A5
102
}
330
A5
100
AcDbSortentsTable
330
70
  0
SORTENTSTABLE
  5
17F
102
{ACAD_REACTORS
330
120
102
}
330
120
100
AcDbSortentsTable
330
11F
  0
SORTENTSTABLE
  5
180
102
{ACAD_REACTORS
330
136
102
}
330
136
100
AcDbSortentsTable
330
135
  0
ACDBDETAILVIEWSTYLE
  5
6B
102
{ACAD_XDICTIONARY
360
1FC
102
}
102
{ACAD_REACTORS
330
6A
102
}
330
6A
100
AcDbModelDocViewStyle
 70
     0
  3
Imperial24
290
     0
100
AcDbDetailViewStyle
 70
     0
 71
     0
 90
        3
 71
     1
340
55
 62
   256
 40
0.24
340
0
 62
   256
 40
0.24
300

 40
0.36
280
     3
 71
     2
340
5D
 90
       25
 62
   256
 71
     3
340
55
 62
   256
 40
0.24
 90
        1
 40
0.75
 90
        1
300
%<\AcVar ViewType \f "%tc1">% %<\AcVar ViewDetailId>%\PSCALE %<\AcVar ViewScale \f "%sn">%
 71
     4
340
5D
 90
       25
 62
   256
340
5D
 90
       25
 62
   256
280
     0
  0
LAYOUT
  5
73
102
{ACAD_REACTORS
330
62
102
}
330
62
100
AcDbPlotSettings
  1

  2
AutoCAD PDF (High Quality Print).pc3
  4
ISO_full_bleed_A4_(210.00_x_297.00_MM)
  6

 40
0.0
 41
0.0
 42
0.0
 43
0.0
 44
210.0
 45
297.0
 46
0.0
 47
0.0
 48
0.0
 49
0.0
140
0.0
141
0.0
142
1.0
143
2.759762
 70
 11952
 72
     1
 73
     0
 74
     0
  7

 75
     0
147
0.36235
 76
     0
 77
     2
 78
   300
148
184.772751
149
11.747108
100
AcDbLayout
  1
Model
 70
     1
 71
     0
 10
0.0
 20
0.0
 11
12.0
 21
9.0
 12
0.0
 22
0.0
 32
0.0
 14
0.0
 24
0.0
 34
0.0
 15
0.0
 25
0.0
 35
0.0
146
0.0
 13
0.0
 23
0.0
 33
0.0
 16
1.0
 26
0.0
 36
0.0
 17
0.0
 27
1.0
 37
0.0
 76
     0
330
70
1001
ACAD_PSEXT
1000
AutoCAD PDF (High Quality Print).pc3
1000
DWG To PDF
1000
File
1000

1070
     0
  0
LAYOUT
  5
6F
102
{ACAD_REACTORS
330
62
102
}
330
62
100
AcDbPlotSettings
  1

  2
None
  4

  6

 40
0.0
 41
0.0
 42
0.0
 43
0.0
 44
0.0
 45
0.0
 46
0.0
 47
0.0
 48
0.0
 49
0.0
140
0.0
141
0.0
142
1.0
143
1.0
 70
   688
 72
     0
 73
     0
 74
     5
  7

 75
    16
147
1.0
 76
     0
 77
     2
 78
   300
148
0.0
149
0.0
100
AcDbLayout
  1
Sheet1
 70
     1
 71
     1
 10
0.0
 20
0.0
 11
12.0
 21
9.0
 12
0.0
 22
0.0
 32
0.0
 14
0.0
 24
0.0
 34
0.0
 15
0.0
 25
0.0
 35
0.0
146
0.0
 13
0.0
 23
0.0
 33
0.0
 16
1.0
 26
0.0
 36
0.0
 17
0.0
 27
1.0
 37
0.0
 76
     0
330
6C
  0
LAYOUT
  5
77
102
{ACAD_REACTORS
330
62
102
}
330
62
100
AcDbPlotSettings
  1

  2
None
  4

  6

 40
0.0
 41
0.0
 42
0.0
 43
0.0
 44
0.0
 45
0.0
 46
0.0
 47
0.0
 48
0.0
 49
0.0
140
0.0
141
0.0
142
1.0
143
1.0
 70
   688
 72
     0
 73
     0
 74
     5
  7

 75
    16
147
1.0
 76
     0
 77
     2
 78
   300
148
0.0
149
0.0
100
AcDbLayout
  1
Sheet2
 70
     1
 71
     2
 10
0.0
 20
0.0
 11
12.0
 21
9.0
 12
0.0
 22
0.0
 32
0.0
 14
0.0
 24
0.0
 34
0.0
 15
0.0
 25
0.0
 35
0.0
146
0.0
 13
0.0
 23
0.0
 33
0.0
 16
1.0
 26
0.0
 36
0.0
 17
0.0
 27
1.0
 37
0.0
 76
     0
330
74
  0
MATERIAL
  5
19
102
{ACAD_XDICTIONARY
360
1A
102
}
102
{ACAD_REACTORS
330
10
102
}
330
10
100
AcDbMaterial
  1
ByBlock
 72
     0
 43
0.020833
 43
0.0
 43
0.0
 43
0.0
 43
0.0
 43
0.020833
 43
0.0
 43
0.0
 43
0.0
 43
0.0
 43
1.0
 43
0.0
 43
0.0
 43
0.0
 43
0.0
 43
1.0
 77
     0
 47
0.020833
 47
0.0
 47
0.0
 47
0.0
 47
0.0
 47
0.020833
 47
0.0
 47
0.0
 47
0.0
 47
0.0
 47
1.0
 47
0.0
 47
0.0
 47
0.0
 47
0.0
 47
1.0
171
     0
 49
0.020833
 49
0.0
 49
0.0
 49
0.0
 49
0.0
 49
0.020833
 49
0.0
 49
0.0
 49
0.0
 49
0.0
 49
1.0
 49
0.0
 49
0.0
 49
0.0
 49
0.0
 49
1.0
175
     0
142
0.020833
142
0.0
142
0.0
142
0.0
142
0.0
142
0.020833
142
0.0
142
0.0
142
0.0
142
0.0
142
1.0
142
0.0
142
0.0
142
0.0
142
0.0
142
1.0
179
     0
144
0.020833
144
0.0
144
0.0
144
0.0
144
0.0
144
0.020833
144
0.0
144
0.0
144
0.0
144
0.0
144
1.0
144
0.0
144
0.0
144
0.0
144
0.0
144
1.0
147
0.020833
147
0.0
147
0.0
147
0.0
147
0.0
147
0.020833
147
0.0
147
0.0
147
0.0
147
0.0
147
1.0
147
0.0
147
0.0
147
0.0
147
0.0
147
1.0
  0
MATERIAL
  5
11
102
{ACAD_XDICTIONARY
360
12
102
}
102
{ACAD_REACTORS
330
10
102
}
330
10
100
AcDbMaterial
  1
ByLayer
 72
     0
 43
0.020833
 43
0.0
 43
0.0
 43
0.0
 43
0.0
 43
0.020833
 43
0.0
 43
0.0
 43
0.0
 43
0.0
 43
1.0
 43
0.0
 43
0.0
 43
0.0
 43
0.0
 43
1.0
 77
     0
 47
0.020833
 47
0.0
 47
0.0
 47
0.0
 47
0.0
 47
0.020833
 47
0.0
 47
0.0
 47
0.0
 47
0.0
 47
1.0
 47
0.0
 47
0.0
 47
0.0
 47
0.0
 47
1.0
171
     0
 49
0.020833
 49
0.0
 49
0.0
 49
0.0
 49
0.0
 49
0.020833
 49
0.0
 49
0.0
 49
0.0
 49
0.0
 49
1.0
 49
0.0
 49
0.0
 49
0.0
 49
0.0
 49
1.0
175
     0
142
0.020833
142
0.0
142
0.0
142
0.0
142
0.0
142
0.020833
142
0.0
142
0.0
142
0.0
142
0.0
142
1.0
142
0.0
142
0.0
142
0.0
142
0.0
142
1.0
179
     0
144
0.020833
144
0.0
144
0.0
144
0.0
144
0.0
144
0.020833
144
0.0
144
0.0
144
0.0
144
0.0
144
1.0
144
0.0
144
0.0
144
0.0
144
0.0
144
1.0
147
0.020833
147
0.0
147
0.0
147
0.0
147
0.0
147
0.020833
147
0.0
147
0.0
147
0.0
147
0.0
147
1.0
147
0.0
147
0.0
147
0.0
147
0.0
147
1.0
  0
MATERIAL
  5
21
102
{ACAD_XDICTIONARY
360
22
102
}
102
{ACAD_REACTORS
330
10
102
}
330
10
100
AcDbMaterial
  1
Global
 72
     0
 43
0.020833
 43
0.0
 43
0.0
 43
0.0
 43
0.0
 43
0.020833
 43
0.0
 43
0.0
 43
0.0
 43
0.0
 43
1.0
 43
0.0
 43
0.0
 43
0.0
 43
0.0
 43
1.0
 77
     0
 47
0.020833
 47
0.0
 47
0.0
 47
0.0
 47
0.0
 47
0.020833
 47
0.0
 47
0.0
 47
0.0
 47
0.0
 47
1.0
 47
0.0
 47
0.0
 47
0.0
 47
0.0
 47
1.0
171
     0
 49
0.020833
 49
0.0
 49
0.0
 49
0.0
 49
0.0
 49
0.020833
 49
0.0
 49
0.0
 49
0.0
 49
0.0
 49
1.0
 49
0.0
 49
0.0
 49
0.0
 49
0.0
 49
1.0
175
     0
142
0.020833
142
0.0
142
0.0
142
0.0
142
0.0
142
0.020833
142
0.0
142
0.0
142
0.0
142
0.0
142
1.0
142
0.0
142
0.0
142
0.0
142
0.0
142
1.0
179
     0
144
0.020833
144
0.0
144
0.0
144
0.0
144
0.0
144
0.020833
144
0.0
144
0.0
144
0.0
144
0.0
144
1.0
144
0.0
144
0.0
144
0.0
144
0.0
144
1.0
147
0.020833
147
0.0
147
0.0
147
0.0
147
0.0
147
0.020833
147
0.0
147
0.0
147
0.0
147
0.0
147
1.0
147
0.0
147
0.0
147
0.0
147
0.0
147
1.0
  0
MLEADERSTYLE
  5
67
102
{ACAD_REACTORS
330
66
102
}
330
66
100
AcDbMLeaderStyle
179
     2
170
     2
171
     1
172
     0
 90
        2
 40
0.0
 41
0.0
173
     1
 91
-1056964608
340
5B
 92
       -2
290
     1
 42
0.09
291
     1
 43
0.36
  3
Standard
 44
0.18
300

342
55
174
     1
178
     6
175
     1
176
     0
 93
-1056964608
 45
0.18
292
     0
297
     0
 46
0.18
 94
-1056964608
 47
1.0
 49
1.0
140
1.0
293
     1
141
0.0
294
     1
177
     0
142
1.0
295
     0
296
     0
143
0.125
271
     0
272
     9
273
     9
298
     1
  0
MLINESTYLE
  5
60
102
{ACAD_REACTORS
330
5F
102
}
330
5F
100
AcDbMlineStyle
  2
STANDARD
 70
     0
  3

 62
   256
 51
90.0
 52
90.0
 71
     0
  0
ACDBPLACEHOLDER
  5
F
102
{ACAD_REACTORS
330
E
102
}
330
E
  0
SCALE
  5
43
102
{ACAD_REACTORS
330
42
102
}
330
42
100
AcDbScale
 70
     0
300
1:1
140
1.0
141
1.0
290
     1
  0
SCALE
  5
44
102
{ACAD_REACTORS
330
42
102
}
330
42
100
AcDbScale
 70
     0
300
1:2
140
1.0
141
2.0
290
     0
  0
SCALE
  5
45
102
{ACAD_REACTORS
330
42
102
}
330
42
100
AcDbScale
 70
     0
300
1:4
140
1.0
141
4.0
290
     0
  0
SCALE
  5
46
102
{ACAD_REACTORS
330
42
102
}
330
42
100
AcDbScale
 70
     0
300
1:5
140
1.0
141
5.0
290
     0
  0
SCALE
  5
47
102
{ACAD_REACTORS
330
42
102
}
330
42
100
AcDbScale
 70
     0
300
1:8
140
1.0
141
8.0
290
     0
  0
SCALE
  5
48
102
{ACAD_REACTORS
330
42
102
}
330
42
100
AcDbScale
 70
     0
300
1:10
140
1.0
141
10.0
290
     0
  0
SCALE
  5
49
102
{ACAD_REACTORS
330
42
102
}
330
42
100
AcDbScale
 70
     0
300
1:16
140
1.0
141
16.0
290
     0
  0
SCALE
  5
4A
102
{ACAD_REACTORS
330
42
102
}
330
42
100
AcDbScale
 70
     0
300
1:20
140
1.0
141
20.0
290
     0
  0
SCALE
  5
4B
102
{ACAD_REACTORS
330
42
102
}
330
42
100
AcDbScale
 70
     0
300
1:30
140
1.0
141
30.0
290
     0
  0
SCALE
  5
4C
102
{ACAD_REACTORS
330
42
102
}
330
42
100
AcDbScale
 70
     0
300
1:40
140
1.0
141
40.0
290
     0
  0
SCALE
  5
4D
102
{ACAD_REACTORS
330
42
102
}
330
42
100
AcDbScale
 70
     0
300
1:50
140
1.0
141
50.0
290
     0
  0
SCALE
  5
4E
102
{ACAD_REACTORS
330
42
102
}
330
42
100
AcDbScale
 70
     0
300
1:100
140
1.0
141
100.0
290
     0
  0
SCALE
  5
4F
102
{ACAD_REACTORS
330
42
102
}
330
42
100
AcDbScale
 70
     0
300
2:1
140
2.0
141
1.0
290
     0
  0
SCALE
  5
50
102
{ACAD_REACTORS
330
42
102
}
330
42
100
AcDbScale
 70
     0
300
4:1
140
4.0
141
1.0
290
     0
  0
SCALE
  5
51
102
{ACAD_REACTORS
330
42
102
}
330
42
100
AcDbScale
 70
     0
300
8:1
140
8.0
141
1.0
290
     0
  0
SCALE
  5
52
102
{ACAD_REACTORS
330
42
102
}
330
42
100
AcDbScale
 70
     0
300
10:1
140
10.0
141
1.0
290
     0
  0
SCALE
  5
53
102
{ACAD_REACTORS
330
42
102
}
330
42
100
AcDbScale
 70
     0
300
100:1
140
100.0
141
1.0
290
     0
  0
ACDBSECTIONVIEWSTYLE
  5
69
102
{ACAD_XDICTIONARY
360
1FA
102
}
102
{ACAD_REACTORS
330
68
102
}
330
68
100
AcDbModelDocViewStyle
 70
     0
  3
Imperial24
290
     0
100
AcDbSectionViewStyle
 70
     0
 71
     0
 90
       78
 71
     1
340
55
 62
   256
 40
0.24
340
0
340
0
 62
   256
 40
0.24
300
I, O, Q, S, X, Z
 40
0.48
 90
        3
 40
0.18
 90
        1
 71
     2
340
5D
 90
       25
 62
   256
340
5D
 90
       50
 62
   256
 40
0.24
 40
0.0
 40
0.24
 71
     3
340
55
 62
   256
 40
0.24
 90
        1
 40
0.75
 90
        1
300
%<\AcVar ViewType \f "%tc1">% %<\AcVar ViewSectionStartId>%-%<\AcVar ViewSectionEndId>%\PSCALE %<\AcVar ViewScale \f "%sn">%
 71
     4
 62
   256
 62
   257
300
ANSI31
 40
1.0
 90
        0
290
     0
290
     0
 90
        6
 40
0.0
 40
1.570796
 40
0.261799
 40
1.308997
 40
-0.261799
 40
1.832596
  0
TABLESTYLE
  5
65
102
{ACAD_XDICTIONARY
360
1F7
102
}
102
{ACAD_REACTORS
330
64
102
}
330
64
100
AcDbTableStyle
280
     0
  3
Standard
 70
     0
 71
     0
 40
1.5
 41
1.5
280
     0
281
     0
  7
Standard
140
0.18
170
     2
 62
     0
 63
     7
283
     0
 90
      512
 91
        0
  1

274
    -2
284
     1
 64
     0
275
    -2
285
     1
 65
     0
276
    -2
286
     1
 66
     0
277
    -2
287
     1
 67
     0
278
    -2
288
     1
 68
     0
279
    -2
289
     1
 69
     0
  7
Standard
140
0.25
170
     5
 62
     0
 63
     7
283
     0
 90
      512
 91
        0
  1

274
    -2
284
     1
 64
     0
275
    -2
285
     1
 65
     0
276
    -2
286
     1
 66
     0
277
    -2
287
     1
 67
     0
278
    -2
288
     1
 68
     0
279
    -2
289
     1
 69
     0
  7
Standard
140
0.18
170
     5
 62
     0
 63
     7
283
     0
 90
      512
 91
        0
  1

274
    -2
284
     1
 64
     0
275
    -2
285
     1
 65
     0
276
    -2
286
     1
 66
     0
277
    -2
287
     1
 67
     0
278
    -2
288
     1
 68
     0
279
    -2
289
     1
 69
     0
  0
VISUALSTYLE
  5
2F
102
{ACAD_REACTORS
330
29
102
}
330
29
100
AcDbVisualStyle
  2
2dWireframe
 70
     4
177
     3
291
     0
 70
    58
 90
        0
176
     1
 90
        2
176
     1
 90
        0
176
     1
 90
        0
176
     1
 40
0.6
176
     1
 40
30.0
176
     1
 62
     7
420
 16777215
176
     1
 90
        1
176
     1
 90
        4
176
     1
 62
     7
176
     1
 62
   257
176
     1
 90
        1
176
     1
 90
        1
176
     1
 40
1.0
176
     1
 90
        0
176
     1
 62
   257
176
     1
 40
1.0
176
     1
 90
        1
176
     1
 90
        6
176
     1
 90
        2
176
     1
 62
     7
176
     1
 90
        5
176
     1
 90
        0
176
     1
 90
        0
176
     1
290
     0
176
     1
 90
        1
176
     1
 40
0.0
176
     1
 90
        0
176
     1
290
     1
176
     1
290
     1
176
     1
290
     0
176
     1
290
     0
176
     1
290
     0
176
     1
290
     0
176
     1
290
     0
176
     1
290
     0
176
     1
290
     0
176
     1
 90
       50
176
     1
 40
0.0
176
     1
 40
1.0
176
     1
 90
        0
176
     1
 62
    18
420
        0
176
     1
 90
       50
176
     1
 90
        3
176
     1
 62
     5
420
      255
176
     1
290
     0
176
     1
 90
       50
176
     1
 90
       50
176
     1
 90
       50
176
     1
290
     0
176
     1
 90
       50
176
     1
 62
   256
176
     0
 40
1.0
176
     0
 90
        2
176
     1
  1
strokes_ogs.tif
176
     1
290
     0
176
     1
 40
1.0
176
     1
 40
1.0
176
     1
1001
ACAD
1000
AcDbSavedByObjectVersion
1070
     0
  0
VISUALSTYLE
  5
2E
102
{ACAD_REACTORS
330
29
102
}
330
29
100
AcDbVisualStyle
  2
Basic
 70
     7
177
     3
291
     1
 70
    58
 90
        1
176
     1
 90
        0
176
     1
 90
        1
176
     1
 90
        0
176
     1
 40
0.6
176
     1
 40
30.0
176
     1
 62
     7
420
 16777215
176
     1
 90
        0
176
     1
 90
        4
176
     1
 62
     7
176
     1
 62
   257
176
     1
 90
        1
176
     1
 90
        1
176
     1
 40
1.0
176
     1
 90
        8
176
     1
 62
     7
176
     1
 40
1.0
176
     1
 90
        1
176
     1
 90
        6
176
     1
 90
        2
176
     1
 62
     7
176
     1
 90
        5
176
     1
 90
        0
176
     1
 90
        0
176
     1
290
     0
176
     1
 90
        1
176
     1
 40
0.0
176
     1
 90
        0
176
     1
290
     0
176
     1
290
     1
176
     1
290
     1
176
     1
290
     0
176
     1
290
     0
176
     1
290
     0
176
     1
290
     0
176
     1
290
     0
176
     1
290
     0
176
     1
 90
       50
176
     1
 40
0.0
176
     1
 40
1.0
176
     1
 90
        0
176
     1
 62
    18
420
        0
176
     1
 90
       50
176
     1
 90
        3
176
     1
 62
     5
420
      255
176
     1
290
     0
176
     1
 90
       50
176
     1
 90
       50
176
     1
 90
       50
176
     1
290
     0
176
     1
 90
       50
176
     1
 62
   256
176
     0
 40
1.0
176
     0
 90
        2
176
     1
  1
strokes_ogs.tif
176
     1
290
     0
176
     1
 40
1.0
176
     1
 40
1.0
176
     1
1001
ACAD
1000
AcDbSavedByObjectVersion
1070
     0
  0
VISUALSTYLE
  5
35
102
{ACAD_REACTORS
330
29
102
}
330
29
100
AcDbVisualStyle
  2
Brighten
 70
    12
177
     3
291
     1
 70
    58
 90
        2
176
     1
 90
        2
176
     1
 90
        0
176
     1
 90
        0
176
     1
 40
0.6
176
     1
 40
30.0
176
     1
 62
     7
420
 16777215
176
     1
 90
        1
176
     1
 90
        4
176
     1
 62
     7
176
     1
 62
   257
176
     1
 90
        1
176
     1
 90
        1
176
     1
 40
1.0
176
     1
 90
        8
176
     1
 62
     7
176
     1
 40
1.0
176
     1
 90
        1
176
     1
 90
        6
176
     1
 90
        2
176
     1
 62
     7
176
     1
 90
        5
176
     1
 90
        0
176
     1
 90
        0
176
     1
290
     0
176
     1
 90
        1
176
     1
 40
50.0
176
     1
 90
        0
176
     1
290
     0
176
     1
290
     1
176
     1
290
     1
176
     1
290
     0
176
     1
290
     0
176
     1
290
     0
176
     1
290
     0
176
     1
290
     0
176
     1
290
     0
176
     1
 90
       50
176
     1
 40
0.0
176
     1
 40
1.0
176
     1
 90
        0
176
     1
 62
    18
420
        0
176
     1
 90
       50
176
     1
 90
        3
176
     1
 62
     5
420
      255
176
     1
290
     0
176
     1
 90
       50
176
     1
 90
       50
176
     1
 90
       50
176
     1
290
     0
176
     1
 90
       50
176
     1
 62
   256
176
     0
 40
1.0
176
     0
 90
        2
176
     1
  1
strokes_ogs.tif
176
     1
290
     0
176
     1
 40
1.0
176
     1
 40
1.0
176
     1
1001
ACAD
1000
AcDbSavedByObjectVersion
1070
     0
  0
VISUALSTYLE
  5
39
102
{ACAD_REACTORS
330
29
102
}
330
29
100
AcDbVisualStyle
  2
ColorChange
 70
    16
177
     3
291
     1
 70
    58
 90
        2
176
     1
 90
        2
176
     1
 90
        3
176
     1
 90
        0
176
     1
 40
0.6
176
     1
 40
30.0
176
     1
 62
     8
420
  8421504
176
     1
 90
        1
176
     1
 90
        4
176
     1
 62
     7
176
     1
 62
   257
176
     1
 90
        1
176
     1
 90
        1
176
     1
 40
1.0
176
     1
 90
        8
176
     1
 62
     8
420
  8421504
176
     1
 40
1.0
176
     1
 90
        1
176
     1
 90
        6
176
     1
 90
        2
176
     1
 62
     7
176
     1
 90
        5
176
     1
 90
        0
176
     1
 90
        0
176
     1
290
     0
176
     1
 90
        1
176
     1
 40
0.0
176
     1
 90
        0
176
     1
290
     0
176
     1
290
     1
176
     1
290
     1
176
     1
290
     0
176
     1
290
     0
176
     1
290
     0
176
     1
290
     0
176
     1
290
     0
176
     1
290
     0
176
     1
 90
       50
176
     1
 40
0.0
176
     1
 40
1.0
176
     1
 90
        0
176
     1
 62
    18
420
        0
176
     1
 90
       50
176
     1
 90
        3
176
     1
 62
     5
420
      255
176
     1
290
     0
176
     1
 90
       50
176
     1
 90
       50
176
     1
 90
       50
176
     1
290
     0
176
     1
 90
       50
176
     1
 62
   256
176
     0
 40
1.0
176
     0
 90
        2
176
     1
  1
strokes_ogs.tif
176
     1
290
     0
176
     1
 40
1.0
176
     1
 40
1.0
176
     1
1001
ACAD
1000
AcDbSavedByObjectVersion
1070
     0
  0
VISUALSTYLE
  5
32
102
{ACAD_REACTORS
330
29
102
}
330
29
100
AcDbVisualStyle
  2
Conceptual
 70
     9
177
     3
291
     0
 70
    58
 90
        3
176
     1
 90
        2
176
     1
 90
        0
176
     1
 90
        0
176
     1
 40
0.6
176
     1
 40
30.0
176
     1
 62
     7
420
 16777215
176
     1
 90
        2
176
     1
 90
        2
176
     1
 62
     7
176
     1
 62
   257
176
     1
 90
        1
176
     1
 90
        1
176
     1
 40
179.0
176
     1
 90
        8
176
     1
 62
     7
176
     1
 40
1.0
176
     1
 90
        1
176
     1
 90
        6
176
     1
 90
        2
176
     1
 62
     7
176
     1
 90
        3
176
     1
 90
        0
176
     1
 90
        0
176
     1
290
     0
176
     1
 90
        1
176
     1
 40
0.0
176
     1
 90
        0
176
     1
290
     0
176
     1
290
     1
176
     1
290
     1
176
     1
290
     0
176
     1
290
     0
176
     1
290
     0
176
     1
290
     0
176
     1
290
     0
176
     1
290
     0
176
     1
 90
       50
176
     1
 40
0.0
176
     1
 40
1.0
176
     1
 90
        0
176
     1
 62
    18
420
        0
176
     1
 90
       50
176
     1
 90
        3
176
     1
 62
     5
420
      255
176
     1
290
     0
176
     1
 90
       50
176
     1
 90
       50
176
     1
 90
       50
176
     1
290
     0
176
     1
 90
       50
176
     1
 62
   256
176
     0
 40
1.0
176
     0
 90
        2
176
     1
  1
strokes_ogs.tif
176
     1
290
     0
176
     1
 40
1.0
176
     1
 40
1.0
176
     1
1001
ACAD
1000
AcDbSavedByObjectVersion
1070
     0
  0
VISUALSTYLE
  5
34
102
{ACAD_REACTORS
330
29
102
}
330
29
100
AcDbVisualStyle
  2
Dim
 70
    11
177
     3
291
     1
 70
    58
 90
        2
176
     1
 90
        2
176
     1
 90
        0
176
     1
 90
        0
176
     1
 40
0.6
176
     1
 40
30.0
176
     1
 62
     7
420
 16777215
176
     1
 90
        1
176
     1
 90
        4
176
     1
 62
     7
176
     1
 62
   257
176
     1
 90
        1
176
     1
 90
        1
176
     1
 40
1.0
176
     1
 90
        8
176
     1
 62
     7
176
     1
 40
1.0
176
     1
 90
        1
176
     1
 90
        6
176
     1
 90
        2
176
     1
 62
     7
176
     1
 90
        5
176
     1
 90
        0
176
     1
 90
        0
176
     1
290
     0
176
     1
 90
        1
176
     1
 40
-50.0
176
     1
 90
        0
176
     1
290
     0
176
     1
290
     1
176
     1
290
     1
176
     1
290
     0
176
     1
290
     0
176
     1
290
     0
176
     1
290
     0
176
     1
290
     0
176
     1
290
     0
176
     1
 90
       50
176
     1
 40
0.0
176
     1
 40
1.0
176
     1
 90
        0
176
     1
 62
    18
420
        0
176
     1
 90
       50
176
     1
 90
        3
176
     1
 62
     5
420
      255
176
     1
290
     0
176
     1
 90
       50
176
     1
 90
       50
176
     1
 90
       50
176
     1
290
     0
176
     1
 90
       50
176
     1
 62
   256
176
     0
 40
1.0
176
     0
 90
        2
176
     1
  1
strokes_ogs.tif
176
     1
290
     0
176
     1
 40
1.0
176
     1
 40
1.0
176
     1
1001
ACAD
1000
AcDbSavedByObjectVersion
1070
     0
  0
VISUALSTYLE
  5
41
102
{ACAD_REACTORS
330
29
102
}
330
29
100
AcDbVisualStyle
  2
EdgeColorOff
 70
    22
177
     3
291
     1
 70
    58
 90
        2
176
     0
 90
        2
176
     0
 90
        0
176
     0
 90
        0
176
     0
 40
0.6
176
     0
 40
30.0
176
     0
 62
     7
420
 16777215
176
     0
 90
        1
176
     0
 90
        4
176
     0
 62
     7
176
     0
 62
   257
176
     0
 90
        1
176
     0
 90
        1
176
     0
 40
1.0
176
     0
 90
        8
176
     2
 62
     7
176
     0
 40
1.0
176
     0
 90
        1
176
     0
 90
        6
176
     0
 90
        2
176
     0
 62
     7
176
     0
 90
        5
176
     0
 90
        0
176
     0
 90
        0
176
     0
290
     0
176
     0
 90
        1
176
     0
 40
0.0
176
     0
 90
        0
176
     0
290
     0
176
     0
290
     1
176
     0
290
     1
176
     0
290
     0
176
     0
290
     0
176
     0
290
     0
176
     0
290
     0
176
     0
290
     0
176
     0
290
     0
176
     0
 90
       50
176
     0
 40
0.0
176
     0
 40
1.0
176
     0
 90
        0
176
     0
 62
    18
420
        0
176
     0
 90
       50
176
     0
 90
        3
176
     0
 62
     5
420
      255
176
     0
290
     0
176
     0
 90
       50
176
     0
 90
       50
176
     0
 90
       50
176
     0
290
     0
176
     0
 90
       50
176
     0
 62
   256
176
     0
 40
1.0
176
     0
 90
        2
176
     0
  1
strokes_ogs.tif
176
     0
290
     0
176
     0
 40
1.0
176
     0
 40
1.0
176
     0
1001
ACAD
1000
AcDbSavedByObjectVersion
1070
     0
  0
VISUALSTYLE
  5
38
102
{ACAD_REACTORS
330
29
102
}
330
29
100
AcDbVisualStyle
  2
Facepattern
 70
    15
177
     3
291
     1
 70
    58
 90
        2
176
     1
 90
        2
176
     1
 90
        0
176
     1
 90
        0
176
     1
 40
0.6
176
     1
 40
30.0
176
     1
 62
     7
420
 16777215
176
     1
 90
        1
176
     1
 90
        4
176
     1
 62
     7
176
     1
 62
   257
176
     1
 90
        1
176
     1
 90
        1
176
     1
 40
1.0
176
     1
 90
        8
176
     1
 62
     7
176
     1
 40
1.0
176
     1
 90
        1
176
     1
 90
        6
176
     1
 90
        2
176
     1
 62
     7
176
     1
 90
        5
176
     1
 90
        0
176
     1
 90
        0
176
     1
290
     0
176
     1
 90
        1
176
     1
 40
0.0
176
     1
 90
        0
176
     1
290
     0
176
     1
290
     1
176
     1
290
     1
176
     1
290
     0
176
     1
290
     0
176
     1
290
     0
176
     1
290
     0
176
     1
290
     0
176
     1
290
     0
176
     1
 90
       50
176
     1
 40
0.0
176
     1
 40
1.0
176
     1
 90
        0
176
     1
 62
    18
420
        0
176
     1
 90
       50
176
     1
 90
        3
176
     1
 62
     5
420
      255
176
     1
290
     0
176
     1
 90
       50
176
     1
 90
       50
176
     1
 90
       50
176
     1
290
     0
176
     1
 90
       50
176
     1
 62
   256
176
     0
 40
1.0
176
     0
 90
        2
176
     1
  1
strokes_ogs.tif
176
     1
290
     0
176
     1
 40
1.0
176
     1
 40
1.0
176
     1
1001
ACAD
1000
AcDbSavedByObjectVersion
1070
     0
  0
VISUALSTYLE
  5
2A
102
{ACAD_REACTORS
330
29
102
}
330
29
100
AcDbVisualStyle
  2
Flat
 70
     0
177
     3
291
     1
 70
    58
 90
        2
176
     1
 90
        1
176
     1
 90
        1
176
     1
 90
        2
176
     1
 40
0.6
176
     1
 40
30.0
176
     1
 62
     7
420
 16777215
176
     1
 90
        0
176
     1
 90
        0
176
     1
 62
     7
176
     1
 62
   257
176
     1
 90
        1
176
     1
 90
        1
176
     1
 40
1.0
176
     1
 90
        8
176
     1
 62
     7
176
     1
 40
1.0
176
     1
 90
        1
176
     1
 90
        6
176
     1
 90
        2
176
     1
 62
     7
176
     1
 90
        5
176
     1
 90
        0
176
     1
 90
        0
176
     1
290
     0
176
     1
 90
       13
176
     1
 40
0.0
176
     1
 90
        0
176
     1
290
     0
176
     1
290
     1
176
     1
290
     1
176
     1
290
     0
176
     1
290
     0
176
     1
290
     0
176
     1
290
     0
176
     1
290
     0
176
     1
290
     0
176
     1
 90
       50
176
     1
 40
0.0
176
     1
 40
1.0
176
     1
 90
        0
176
     1
 62
    18
420
        0
176
     1
 90
       50
176
     1
 90
        3
176
     1
 62
     5
420
      255
176
     1
290
     0
176
     1
 90
       50
176
     1
 90
       50
176
     1
 90
       50
176
     1
290
     0
176
     1
 90
       50
176
     1
 62
   256
176
     0
 40
1.0
176
     0
 90
        2
176
     1
  1
strokes_ogs.tif
176
     1
290
     0
176
     1
 40
1.0
176
     1
 40
1.0
176
     1
1001
ACAD
1000
AcDbSavedByObjectVersion
1070
     0
  0
VISUALSTYLE
  5
2B
102
{ACAD_REACTORS
330
29
102
}
330
29
100
AcDbVisualStyle
  2
FlatWithEdges
 70
     1
177
     3
291
     1
 70
    58
 90
        2
176
     1
 90
        1
176
     1
 90
        1
176
     1
 90
        2
176
     1
 40
0.6
176
     1
 40
30.0
176
     1
 62
     7
420
 16777215
176
     1
 90
        1
176
     1
 90
        0
176
     1
 62
     7
176
     1
 62
   257
176
     1
 90
        1
176
     1
 90
        1
176
     1
 40
1.0
176
     1
 90
        0
176
     1
 62
   257
176
     1
 40
1.0
176
     1
 90
        1
176
     1
 90
        6
176
     1
 90
        2
176
     1
 62
     7
176
     1
 90
        5
176
     1
 90
        0
176
     1
 90
        0
176
     1
290
     0
176
     1
 90
       13
176
     1
 40
0.0
176
     1
 90
        0
176
     1
290
     0
176
     1
290
     1
176
     1
290
     1
176
     1
290
     0
176
     1
290
     0
176
     1
290
     0
176
     1
290
     0
176
     1
290
     0
176
     1
290
     0
176
     1
 90
       50
176
     1
 40
0.0
176
     1
 40
1.0
176
     1
 90
        0
176
     1
 62
    18
420
        0
176
     1
 90
       50
176
     1
 90
        3
176
     1
 62
     5
420
      255
176
     1
290
     0
176
     1
 90
       50
176
     1
 90
       50
176
     1
 90
       50
176
     1
290
     0
176
     1
 90
       50
176
     1
 62
   256
176
     0
 40
1.0
176
     0
 90
        2
176
     1
  1
strokes_ogs.tif
176
     1
290
     0
176
     1
 40
1.0
176
     1
 40
1.0
176
     1
1001
ACAD
1000
AcDbSavedByObjectVersion
1070
     0
  0
VISUALSTYLE
  5
2C
102
{ACAD_REACTORS
330
29
102
}
330
29
100
AcDbVisualStyle
  2
Gouraud
 70
     2
177
     3
291
     1
 70
    58
 90
        2
176
     1
 90
        2
176
     1
 90
        1
176
     1
 90
        2
176
     1
 40
0.6
176
     1
 40
30.0
176
     1
 62
     7
420
 16777215
176
     1
 90
        0
176
     1
 90
        0
176
     1
 62
     7
176
     1
 62
   257
176
     1
 90
        1
176
     1
 90
        1
176
     1
 40
1.0
176
     1
 90
        0
176
     1
 62
     7
176
     1
 40
1.0
176
     1
 90
        1
176
     1
 90
        6
176
     1
 90
        2
176
     1
 62
     7
176
     1
 90
        5
176
     1
 90
        0
176
     1
 90
        0
176
     1
290
     0
176
     1
 90
       13
176
     1
 40
0.0
176
     1
 90
        0
176
     1
290
     0
176
     1
290
     1
176
     1
290
     1
176
     1
290
     0
176
     1
290
     0
176
     1
290
     0
176
     1
290
     0
176
     1
290
     0
176
     1
290
     0
176
     1
 90
       50
176
     1
 40
0.0
176
     1
 40
1.0
176
     1
 90
        0
176
     1
 62
    18
420
        0
176
     1
 90
       50
176
     1
 90
        3
176
     1
 62
     5
420
      255
176
     1
290
     0
176
     1
 90
       50
176
     1
 90
       50
176
     1
 90
       50
176
     1
290
     0
176
     1
 90
       50
176
     1
 62
   256
176
     0
 40
1.0
176
     0
 90
        2
176
     1
  1
strokes_ogs.tif
176
     1
290
     0
176
     1
 40
1.0
176
     1
 40
1.0
176
     1
1001
ACAD
1000
AcDbSavedByObjectVersion
1070
     0
  0
VISUALSTYLE
  5
2D
102
{ACAD_REACTORS
330
29
102
}
330
29
100
AcDbVisualStyle
  2
GouraudWithEdges
 70
     3
177
     3
291
     1
 70
    58
 90
        2
176
     1
 90
        2
176
     1
 90
        1
176
     1
 90
        2
176
     1
 40
0.6
176
     1
 40
30.0
176
     1
 62
     7
420
 16777215
176
     1
 90
        1
176
     1
 90
        0
176
     1
 62
     7
176
     1
 62
   257
176
     1
 90
        1
176
     1
 90
        1
176
     1
 40
1.0
176
     1
 90
        0
176
     1
 62
   257
176
     1
 40
1.0
176
     1
 90
        1
176
     1
 90
        6
176
     1
 90
        2
176
     1
 62
     7
176
     1
 90
        5
176
     1
 90
        0
176
     1
 90
        0
176
     1
290
     0
176
     1
 90
       13
176
     1
 40
0.0
176
     1
 90
        0
176
     1
290
     0
176
     1
290
     1
176
     1
290
     1
176
     1
290
     0
176
     1
290
     0
176
     1
290
     0
176
     1
290
     0
176
     1
290
     0
176
     1
290
     0
176
     1
 90
       50
176
     1
 40
0.0
176
     1
 40
1.0
176
     1
 90
        0
176
     1
 62
    18
420
        0
176
     1
 90
       50
176
     1
 90
        3
176
     1
 62
     5
420
      255
176
     1
290
     0
176
     1
 90
       50
176
     1
 90
       50
176
     1
 90
       50
176
     1
290
     0
176
     1
 90
       50
176
     1
 62
   256
176
     0
 40
1.0
176
     0
 90
        2
176
     1
  1
strokes_ogs.tif
176
     1
290
     0
176
     1
 40
1.0
176
     1
 40
1.0
176
     1
1001
ACAD
1000
AcDbSavedByObjectVersion
1070
     0
  0
VISUALSTYLE
  5
31
102
{ACAD_REACTORS
330
29
102
}
330
29
100
AcDbVisualStyle
  2
Hidden
 70
     6
177
     3
291
     0
 70
    58
 90
        1
176
     1
 90
        2
176
     1
 90
        2
176
     1
 90
        0
176
     1
 40
0.6
176
     1
 40
30.0
176
     1
 62
     7
420
 16777215
176
     1
 90
        2
176
     1
 90
        2
176
     1
 62
     7
176
     1
 62
   257
176
     1
 90
        2
176
     1
 90
        1
176
     1
 40
40.0
176
     1
 90
        0
176
     1
 62
   257
176
     1
 40
1.0
176
     1
 90
        1
176
     1
 90
        6
176
     1
 90
        2
176
     1
 62
     7
176
     1
 90
        3
176
     1
 90
        0
176
     1
 90
        0
176
     1
290
     0
176
     1
 90
        1
176
     1
 40
0.0
176
     1
 90
        0
176
     1
290
     0
176
     1
290
     1
176
     1
290
     1
176
     1
290
     0
176
     1
290
     0
176
     1
290
     0
176
     1
290
     0
176
     1
290
     0
176
     1
290
     0
176
     1
 90
       50
176
     1
 40
0.0
176
     1
 40
1.0
176
     1
 90
        0
176
     1
 62
    18
420
        0
176
     1
 90
       50
176
     1
 90
        3
176
     1
 62
     5
420
      255
176
     1
290
     0
176
     1
 90
       50
176
     1
 90
       50
176
     1
 90
       50
176
     1
290
     0
176
     1
 90
       50
176
     1
 62
   256
176
     0
 40
1.0
176
     0
 90
        2
176
     1
  1
strokes_ogs.tif
176
     1
290
     0
176
     1
 40
1.0
176
     1
 40
1.0
176
     1
1001
ACAD
1000
AcDbSavedByObjectVersion
1070
     0
  0
VISUALSTYLE
  5
3F
102
{ACAD_REACTORS
330
29
102
}
330
29
100
AcDbVisualStyle
  2
JitterOff
 70
    20
177
     3
291
     1
 70
    58
 90
        2
176
     0
 90
        2
176
     0
 90
        0
176
     0
 90
        0
176
     0
 40
0.6
176
     0
 40
30.0
176
     0
 62
     7
420
 16777215
176
     0
 90
        1
176
     0
 90
        4
176
     0
 62
     7
176
     0
 62
   257
176
     0
 90
        1
176
     0
 90
        1
176
     0
 40
1.0
176
     0
 90
       10
176
     2
 62
     7
176
     0
 40
1.0
176
     0
 90
        1
176
     0
 90
        6
176
     0
 90
        2
176
     0
 62
     7
176
     0
 90
        5
176
     0
 90
        0
176
     0
 90
        0
176
     0
290
     0
176
     0
 90
        1
176
     0
 40
0.0
176
     0
 90
        0
176
     0
290
     0
176
     0
290
     1
176
     0
290
     1
176
     0
290
     0
176
     0
290
     0
176
     0
290
     0
176
     0
290
     0
176
     0
290
     0
176
     0
290
     0
176
     0
 90
       50
176
     0
 40
0.0
176
     0
 40
1.0
176
     0
 90
        0
176
     0
 62
    18
420
        0
176
     0
 90
       50
176
     0
 90
        3
176
     0
 62
     5
420
      255
176
     0
290
     0
176
     0
 90
       50
176
     0
 90
       50
176
     0
 90
       50
176
     0
290
     0
176
     0
 90
       50
176
     0
 62
   256
176
     0
 40
1.0
176
     0
 90
        2
176
     0
  1
strokes_ogs.tif
176
     0
290
     0
176
     0
 40
1.0
176
     0
 40
1.0
176
     0
1001
ACAD
1000
AcDbSavedByObjectVersion
1070
     0
  0
VISUALSTYLE
  5
37
102
{ACAD_REACTORS
330
29
102
}
330
29
100
AcDbVisualStyle
  2
Linepattern
 70
    14
177
     3
291
     1
 70
    58
 90
        2
176
     1
 90
        2
176
     1
 90
        0
176
     1
 90
        0
176
     1
 40
0.6
176
     1
 40
30.0
176
     1
 62
     7
420
 16777215
176
     1
 90
        1
176
     1
 90
        4
176
     1
 62
     7
176
     1
 62
   257
176
     1
 90
        7
176
     1
 90
        7
176
     1
 40
1.0
176
     1
 90
        8
176
     1
 62
     7
176
     1
 40
1.0
176
     1
 90
        1
176
     1
 90
        6
176
     1
 90
        2
176
     1
 62
     7
176
     1
 90
        5
176
     1
 90
        0
176
     1
 90
        0
176
     1
290
     0
176
     1
 90
        1
176
     1
 40
0.0
176
     1
 90
        0
176
     1
290
     0
176
     1
290
     1
176
     1
290
     1
176
     1
290
     0
176
     1
290
     0
176
     1
290
     0
176
     1
290
     0
176
     1
290
     0
176
     1
290
     0
176
     1
 90
       50
176
     1
 40
0.0
176
     1
 40
1.0
176
     1
 90
        0
176
     1
 62
    18
420
        0
176
     1
 90
       50
176
     1
 90
        3
176
     1
 62
     5
420
      255
176
     1
290
     0
176
     1
 90
       50
176
     1
 90
       50
176
     1
 90
       50
176
     1
290
     0
176
     1
 90
       50
176
     1
 62
   256
176
     0
 40
1.0
176
     0
 90
        2
176
     1
  1
strokes_ogs.tif
176
     1
290
     0
176
     1
 40
1.0
176
     1
 40
1.0
176
     1
1001
ACAD
1000
AcDbSavedByObjectVersion
1070
     0
  0
VISUALSTYLE
  5
40
102
{ACAD_REACTORS
330
29
102
}
330
29
100
AcDbVisualStyle
  2
OverhangOff
 70
    21
177
     3
291
     1
 70
    58
 90
        2
176
     0
 90
        2
176
     0
 90
        0
176
     0
 90
        0
176
     0
 40
0.6
176
     0
 40
30.0
176
     0
 62
     7
420
 16777215
176
     0
 90
        1
176
     0
 90
        4
176
     0
 62
     7
176
     0
 62
   257
176
     0
 90
        1
176
     0
 90
        1
176
     0
 40
1.0
176
     0
 90
        9
176
     2
 62
     7
176
     0
 40
1.0
176
     0
 90
        1
176
     0
 90
        6
176
     0
 90
        2
176
     0
 62
     7
176
     0
 90
        5
176
     0
 90
        0
176
     0
 90
        0
176
     0
290
     0
176
     0
 90
        1
176
     0
 40
0.0
176
     0
 90
        0
176
     0
290
     0
176
     0
290
     1
176
     0
290
     1
176
     0
290
     0
176
     0
290
     0
176
     0
290
     0
176
     0
290
     0
176
     0
290
     0
176
     0
290
     0
176
     0
 90
       50
176
     0
 40
0.0
176
     0
 40
1.0
176
     0
 90
        0
176
     0
 62
    18
420
        0
176
     0
 90
       50
176
     0
 90
        3
176
     0
 62
     5
420
      255
176
     0
290
     0
176
     0
 90
       50
176
     0
 90
       50
176
     0
 90
       50
176
     0
290
     0
176
     0
 90
       50
176
     0
 62
   256
176
     0
 40
1.0
176
     0
 90
        2
176
     0
  1
strokes_ogs.tif
176
     0
290
     0
176
     0
 40
1.0
176
     0
 40
1.0
176
     0
1001
ACAD
1000
AcDbSavedByObjectVersion
1070
     0
  0
VISUALSTYLE
  5
33
102
{ACAD_REACTORS
330
29
102
}
330
29
100
AcDbVisualStyle
  2
Realistic
 70
     8
177
     3
291
     0
 70
    58
 90
        2
176
     1
 90
        3
176
     1
 90
        0
176
     1
 90
        2
176
     1
 40
0.6
176
     1
 40
30.0
176
     1
 62
     7
420
 16777215
176
     1
 90
        0
176
     1
 90
        0
176
     1
 62
     7
176
     1
 62
   257
176
     1
 90
        1
176
     1
 90
        1
176
     1
 40
1.0
176
     1
 90
        8
176
     1
 62
   257
176
     1
 40
1.0
176
     1
 90
        1
176
     1
 90
        6
176
     1
 90
        2
176
     1
 62
     7
176
     1
 90
        3
176
     1
 90
        0
176
     1
 90
        0
176
     1
290
     0
176
     1
 90
       13
176
     1
 40
0.0
176
     1
 90
        0
176
     1
290
     0
176
     1
290
     1
176
     1
290
     1
176
     1
290
     0
176
     1
290
     0
176
     1
290
     0
176
     1
290
     0
176
     1
290
     0
176
     1
290
     0
176
     1
 90
       50
176
     1
 40
0.0
176
     1
 40
1.0
176
     1
 90
        0
176
     1
 62
    18
420
        0
176
     1
 90
       50
176
     1
 90
        3
176
     1
 62
     5
420
      255
176
     1
290
     0
176
     1
 90
       50
176
     1
 90
       50
176
     1
 90
       50
176
     1
290
     0
176
     1
 90
       50
176
     1
 62
   256
176
     0
 40
1.0
176
     0
 90
        2
176
     1
  1
strokes_ogs.tif
176
     1
290
     0
176
     1
 40
1.0
176
     1
 40
1.0
176
     1
1001
ACAD
1000
AcDbSavedByObjectVersion
1070
     0
  0
VISUALSTYLE
  5
3E
102
{ACAD_REACTORS
330
29
102
}
330
29
100
AcDbVisualStyle
  2
Shaded
 70
    27
177
     3
291
     0
 70
    58
 90
        2
176
     1
 90
        2
176
     1
 90
        1
176
     1
 90
        2
176
     1
 40
0.6
176
     1
 40
30.0
176
     1
 62
     7
420
 16777215
176
     1
 90
        0
176
     1
 90
        4
176
     1
 62
     7
176
     1
 62
   257
176
     1
 90
        1
176
     1
 90
        1
176
     1
 40
1.0
176
     1
 90
        8
176
     1
 62
   257
176
     1
 40
1.0
176
     1
 90
        1
176
     1
 90
        6
176
     1
 90
        2
176
     1
 62
     8
420
  7895160
176
     1
 90
        3
176
     1
 90
        0
176
     1
 90
        0
176
     1
290
     0
176
     1
 90
        5
176
     1
 40
0.0
176
     1
 90
        0
176
     1
290
     0
176
     1
290
     1
176
     1
290
     1
176
     1
290
     0
176
     1
290
     0
176
     1
290
     0
176
     1
290
     0
176
     1
290
     0
176
     1
290
     0
176
     1
 90
       50
176
     1
 40
0.0
176
     1
 40
1.0
176
     1
 90
        0
176
     1
 62
    18
420
        0
176
     1
 90
       50
176
     1
 90
        3
176
     1
 62
     5
420
      255
176
     1
290
     0
176
     1
 90
       50
176
     1
 90
       50
176
     1
 90
       50
176
     1
290
     0
176
     1
 90
       50
176
     1
 62
   256
176
     0
 40
1.0
176
     0
 90
        2
176
     1
  1
strokes_ogs.tif
176
     1
290
     0
176
     1
 40
1.0
176
     1
 40
1.0
176
     1
1001
ACAD
1000
AcDbSavedByObjectVersion
1070
     0
  0
VISUALSTYLE
  5
3D
102
{ACAD_REACTORS
330
29
102
}
330
29
100
AcDbVisualStyle
  2
Shaded with edges
 70
    26
177
     3
291
     0
 70
    58
 90
        2
176
     1
 90
        2
176
     1
 90
        1
176
     1
 90
        2
176
     1
 40
0.6
176
     1
 40
30.0
176
     1
 62
     7
420
 16777215
176
     1
 90
        1
176
     1
 90
        2
176
     1
 62
     7
176
     1
 62
   257
176
     1
 90
        2
176
     1
 90
        1
176
     1
 40
1.0
176
     1
 90
        8
176
     1
 62
   257
176
     1
 40
1.0
176
     1
 90
        1
176
     1
 90
        6
176
     1
 90
        2
176
     1
 62
     7
176
     1
 90
        3
176
     1
 90
        0
176
     1
 90
        0
176
     1
290
     0
176
     1
 90
        5
176
     1
 40
0.0
176
     1
 90
        0
176
     1
290
     0
176
     1
290
     1
176
     1
290
     1
176
     1
290
     0
176
     1
290
     0
176
     1
290
     0
176
     1
290
     0
176
     1
290
     0
176
     1
290
     0
176
     1
 90
       50
176
     1
 40
0.0
176
     1
 40
1.0
176
     1
 90
        0
176
     1
 62
    18
420
        0
176
     1
 90
       50
176
     1
 90
        3
176
     1
 62
     5
420
      255
176
     1
290
     0
176
     1
 90
       50
176
     1
 90
       50
176
     1
 90
       50
176
     1
290
     0
176
     1
 90
       50
176
     1
 62
   256
176
     0
 40
1.0
176
     0
 90
        2
176
     1
  1
strokes_ogs.tif
176
     1
290
     0
176
     1
 40
1.0
176
     1
 40
1.0
176
     1
1001
ACAD
1000
AcDbSavedByObjectVersion
1070
     0
  0
VISUALSTYLE
  5
3A
102
{ACAD_REACTORS
330
29
102
}
330
29
100
AcDbVisualStyle
  2
Shades of Gray
 70
    23
177
     3
291
     0
 70
    58
 90
        2
176
     1
 90
        2
176
     1
 90
        3
176
     1
 90
        0
176
     1
 40
0.6
176
     1
 40
30.0
176
     1
 62
     7
420
 16777215
176
     1
 90
        2
176
     1
 90
        2
176
     1
 62
     7
176
     1
 62
     7
176
     1
 90
        1
176
     1
 90
        1
176
     1
 40
40.0
176
     1
 90
        8
176
     1
 62
     7
176
     1
 40
1.0
176
     1
 90
        1
176
     1
 90
        6
176
     1
 90
        2
176
     1
 62
     7
176
     1
 90
        3
176
     1
 90
        0
176
     1
 90
        0
176
     1
290
     0
176
     1
 90
        1
176
     1
 40
0.0
176
     1
 90
        0
176
     1
290
     0
176
     1
290
     1
176
     1
290
     1
176
     1
290
     0
176
     1
290
     0
176
     1
290
     0
176
     1
290
     0
176
     1
290
     0
176
     1
290
     0
176
     1
 90
       50
176
     1
 40
0.0
176
     1
 40
1.0
176
     1
 90
        0
176
     1
 62
    18
420
        0
176
     1
 90
       50
176
     1
 90
        3
176
     1
 62
     5
420
      255
176
     1
290
     0
176
     1
 90
       50
176
     1
 90
       50
176
     1
 90
       50
176
     1
290
     0
176
     1
 90
       50
176
     1
 62
   256
176
     0
 40
1.0
176
     0
 90
        2
176
     1
  1
strokes_ogs.tif
176
     1
290
     0
176
     1
 40
1.0
176
     1
 40
1.0
176
     1
1001
ACAD
1000
AcDbSavedByObjectVersion
1070
     0
  0
VISUALSTYLE
  5
3B
102
{ACAD_REACTORS
330
29
102
}
330
29
100
AcDbVisualStyle
  2
Sketchy
 70
    24
177
     3
291
     0
 70
    58
 90
        1
176
     1
 90
        2
176
     1
 90
        2
176
     1
 90
        0
176
     1
 40
0.6
176
     1
 40
30.0
176
     1
 62
     7
420
 16777215
176
     1
 90
        2
176
     1
 90
        2
176
     1
 62
     7
176
     1
 62
     7
176
     1
 90
        1
176
     1
 90
        1
176
     1
 40
40.0
176
     1
 90
       11
176
     1
 62
     7
176
     1
 40
1.0
176
     1
 90
        1
176
     1
 90
        6
176
     1
 90
        2
176
     1
 62
     7
176
     1
 90
        6
176
     1
 90
        0
176
     1
 90
        0
176
     1
290
     0
176
     1
 90
        1
176
     1
 40
0.0
176
     1
 90
        0
176
     1
290
     0
176
     1
290
     1
176
     1
290
     1
176
     1
290
     0
176
     1
290
     0
176
     1
290
     0
176
     1
290
     0
176
     1
290
     0
176
     1
290
     0
176
     1
 90
       50
176
     1
 40
0.0
176
     1
 40
1.0
176
     1
 90
        0
176
     1
 62
    18
420
        0
176
     1
 90
       50
176
     1
 90
        3
176
     1
 62
     5
420
      255
176
     1
290
     0
176
     1
 90
       50
176
     1
 90
       50
176
     1
 90
       50
176
     1
290
     0
176
     1
 90
       50
176
     1
 62
   256
176
     0
 40
1.0
176
     0
 90
        2
176
     1
  1
strokes_ogs.tif
176
     1
290
     0
176
     1
 40
1.0
176
     1
 40
1.0
176
     1
1001
ACAD
1000
AcDbSavedByObjectVersion
1070
     0
  0
VISUALSTYLE
  5
36
102
{ACAD_REACTORS
330
29
102
}
330
29
100
AcDbVisualStyle
  2
Thicken
 70
    13
177
     3
291
     1
 70
    58
 90
        2
176
     1
 90
        2
176
     1
 90
        0
176
     1
 90
        0
176
     1
 40
0.6
176
     1
 40
30.0
176
     1
 62
     7
420
 16777215
176
     1
 90
        1
176
     1
 90
        4
176
     1
 62
     7
176
     1
 62
   257
176
     1
 90
        1
176
     1
 90
        1
176
     1
 40
1.0
176
     1
 90
       12
176
     1
 62
     7
176
     1
 40
1.0
176
     1
 90
        1
176
     1
 90
        6
176
     1
 90
        2
176
     1
 62
     7
176
     1
 90
        5
176
     1
 90
        0
176
     1
 90
        0
176
     1
290
     0
176
     1
 90
        1
176
     1
 40
0.0
176
     1
 90
        0
176
     1
290
     0
176
     1
290
     1
176
     1
290
     1
176
     1
290
     0
176
     1
290
     0
176
     1
290
     0
176
     1
290
     0
176
     1
290
     0
176
     1
290
     0
176
     1
 90
       50
176
     1
 40
0.0
176
     1
 40
1.0
176
     1
 90
        0
176
     1
 62
    18
420
        0
176
     1
 90
       50
176
     1
 90
        3
176
     1
 62
     5
420
      255
176
     1
290
     0
176
     1
 90
       50
176
     1
 90
       50
176
     1
 90
       50
176
     1
290
     0
176
     1
 90
       50
176
     1
 62
   256
176
     0
 40
1.0
176
     0
 90
        2
176
     1
  1
strokes_ogs.tif
176
     1
290
     0
176
     1
 40
1.0
176
     1
 40
1.0
176
     1
1001
ACAD
1000
AcDbSavedByObjectVersion
1070
     0
  0
VISUALSTYLE
  5
30
102
{ACAD_REACTORS
330
29
102
}
330
29
100
AcDbVisualStyle
  2
Wireframe
 70
     5
177
     3
291
     0
 70
    58
 90
        0
176
     1
 90
        2
176
     1
 90
        0
176
     1
 90
        0
176
     1
 40
0.6
176
     1
 40
30.0
176
     1
 62
     7
420
 16777215
176
     1
 90
        1
176
     1
 90
        4
176
     1
 62
     7
176
     1
 62
   257
176
     1
 90
        1
176
     1
 90
        1
176
     1
 40
1.0
176
     1
 90
        0
176
     1
 62
   257
176
     1
 40
1.0
176
     1
 90
        1
176
     1
 90
        6
176
     1
 90
        2
176
     1
 62
     7
176
     1
 90
        3
176
     1
 90
        0
176
     1
 90
        0
176
     1
290
     0
176
     1
 90
        1
176
     1
 40
0.0
176
     1
 90
        0
176
     1
290
     0
176
     1
290
     1
176
     1
290
     1
176
     1
290
     0
176
     1
290
     0
176
     1
290
     0
176
     1
290
     0
176
     1
290
     0
176
     1
290
     0
176
     1
 90
       50
176
     1
 40
0.0
176
     1
 40
1.0
176
     1
 90
        0
176
     1
 62
    18
420
        0
176
     1
 90
       50
176
     1
 90
        3
176
     1
 62
     5
420
      255
176
     1
290
     0
176
     1
 90
       50
176
     1
 90
       50
176
     1
 90
       50
176
     1
290
     0
176
     1
 90
       50
176
     1
 62
   256
176
     0
 40
1.0
176
     0
 90
        2
176
     1
  1
strokes_ogs.tif
176
     1
290
     0
176
     1
 40
1.0
176
     1
 40
1.0
176
     1
1001
ACAD
1000
AcDbSavedByObjectVersion
1070
     0
  0
VISUALSTYLE
  5
3C
102
{ACAD_REACTORS
330
29
102
}
330
29
100
AcDbVisualStyle
  2
X-Ray
 70
    25
177
     3
291
     0
 70
    58
 90
        2
176
     1
 90
        2
176
     1
 90
        1
176
     1
 90
        1
176
     1
 40
0.5
176
     1
 40
30.0
176
     1
 62
     7
420
 16777215
176
     1
 90
        1
176
     1
 90
        0
176
     1
 62
     7
176
     1
 62
   257
176
     1
 90
        1
176
     1
 90
        1
176
     1
 40
1.0
176
     1
 90
        8
176
     1
 62
     7
176
     1
 40
1.0
176
     1
 90
        1
176
     1
 90
        6
176
     1
 90
        2
176
     1
 62
     7
176
     1
 90
        3
176
     1
 90
        0
176
     1
 90
        0
176
     1
290
     0
176
     1
 90
       13
176
     1
 40
0.0
176
     1
 90
        0
176
     1
290
     0
176
     1
290
     1
176
     1
290
     1
176
     1
290
     0
176
     1
290
     0
176
     1
290
     0
176
     1
290
     0
176
     1
290
     0
176
     1
290
     0
176
     1
 90
       50
176
     1
 40
0.0
176
     1
 40
1.0
176
     1
 90
        0
176
     1
 62
    18
420
        0
176
     1
 90
       50
176
     1
 90
        3
176
     1
 62
     5
420
      255
176
     1
290
     0
176
     1
 90
       50
176
     1
 90
       50
176
     1
 90
       50
176
     1
290
     0
176
     1
 90
       50
176
     1
 62
   256
176
     0
 40
1.0
176
     0
 90
        2
176
     1
  1
strokes_ogs.tif
176
     1
290
     0
176
     1
 40
1.0
176
     1
 40
1.0
176
     1
1001
ACAD
1000
AcDbSavedByObjectVersion
1070
     0
  0
DICTIONARYVAR
  5
1F5
102
{ACAD_REACTORS
330
1F0
102
}
330
1F0
100
DictionaryVariables
280
     0
  1
0
  0
DICTIONARYVAR
  5
1F6
102
{ACAD_REACTORS
330
1F0
102
}
330
1F0
100
DictionaryVariables
280
     0
  1
1:1
  0
DICTIONARYVAR
  5
1F2
102
{ACAD_REACTORS
330
1F0
102
}
330
1F0
100
DictionaryVariables
280
     0
  1
STANDARD
  0
DICTIONARYVAR
  5
1F1
102
{ACAD_REACTORS
330
1F0
102
}
330
1F0
100
DictionaryVariables
280
     0
  1
STANDARD
  0
DICTIONARYVAR
  5
1F3
102
{ACAD_REACTORS
330
1F0
102
}
330
1F0
100
DictionaryVariables
280
     0
  1
Imperial24
  0
DICTIONARYVAR
  5
1F4
102
{ACAD_REACTORS
330
1F0
102
}
330
1F0
100
DictionaryVariables
280
     0
  1
Imperial24
  0
DICTIONARY
  5
1FC
330
6B
100
AcDbDictionary
280
     1
281
     1
  3
ACAD_XREC_ROUNDTRIP
360
1FD
  0
DICTIONARY
  5
1A
330
19
100
AcDbDictionary
280
     1
281
     1
  3
BUMPTILE
360
1C
  3
DIFFUSETILE
360
1B
  3
OPACITYTILE
360
1F
  3
REFLECTIONTILE
360
1E
  3
REFRACTIONTILE
360
20
  3
SPECULARTILE
360
1D
  0
DICTIONARY
  5
12
330
11
100
AcDbDictionary
280
     1
281
     1
  3
BUMPTILE
360
14
  3
DIFFUSETILE
360
13
  3
OPACITYTILE
360
17
  3
REFLECTIONTILE
360
16
  3
REFRACTIONTILE
360
18
  3
SPECULARTILE
360
15
  0
DICTIONARY
  5
22
330
21
100
AcDbDictionary
280
     1
281
     1
  3
BUMPTILE
360
24
  3
DIFFUSETILE
360
23
  3
OPACITYTILE
360
27
  3
REFLECTIONTILE
360
26
  3
REFRACTIONTILE
360
28
  3
SPECULARTILE
360
25
  0
DICTIONARY
  5
1FA
330
69
100
AcDbDictionary
280
     1
281
     1
  3
ACAD_XREC_ROUNDTRIP
360
1FB
  0
DICTIONARY
  5
1F7
330
65
100
AcDbDictionary
280
     1
281
     1
  3
ACAD_ROUNDTRIP_2008_TABLESTYLE_CELLSTYLEMAP
360
1F8
  0
XRECORD
  5
1FD
102
{ACAD_REACTORS
330
1FC
102
}
330
1FC
100
AcDbXrecord
280
     1
102
DISPLAYNAME
  1
Imperial24
102
FLAGS
 90
        0
  0
XRECORD
  5
1C
102
{ACAD_REACTORS
330
1A
102
}
330
1A
100
AcDbXrecord
280
     1
270
     1
271
     1
  0
XRECORD
  5
1B
102
{ACAD_REACTORS
330
1A
102
}
330
1A
100
AcDbXrecord
280
     1
270
     1
271
     1
  0
XRECORD
  5
1F
102
{ACAD_REACTORS
330
1A
102
}
330
1A
100
AcDbXrecord
280
     1
270
     1
271
     1
  0
XRECORD
  5
1E
102
{ACAD_REACTORS
330
1A
102
}
330
1A
100
AcDbXrecord
280
     1
270
     1
271
     1
  0
XRECORD
  5
20
102
{ACAD_REACTORS
330
1A
102
}
330
1A
100
AcDbXrecord
280
     1
270
     1
271
     1
  0
XRECORD
  5
1D
102
{ACAD_REACTORS
330
1A
102
}
330
1A
100
AcDbXrecord
280
     1
270
     1
271
     1
  0
XRECORD
  5
14
102
{ACAD_REACTORS
330
12
102
}
330
12
100
AcDbXrecord
280
     1
270
     1
271
     1
  0
XRECORD
  5
13
102
{ACAD_REACTORS
330
12
102
}
330
12
100
AcDbXrecord
280
     1
270
     1
271
     1
  0
XRECORD
  5
17
102
{ACAD_REACTORS
330
12
102
}
330
12
100
AcDbXrecord
280
     1
270
     1
271
     1
  0
XRECORD
  5
16
102
{ACAD_REACTORS
330
12
102
}
330
12
100
AcDbXrecord
280
     1
270
     1
271
     1
  0
XRECORD
  5
18
102
{ACAD_REACTORS
330
12
102
}
330
12
100
AcDbXrecord
280
     1
270
     1
271
     1
  0
XRECORD
  5
15
102
{ACAD_REACTORS
330
12
102
}
330
12
100
AcDbXrecord
280
     1
270
     1
271
     1
  0
XRECORD
  5
24
102
{ACAD_REACTORS
330
22
102
}
330
22
100
AcDbXrecord
280
     1
270
     1
271
     1
  0
XRECORD
  5
23
102
{ACAD_REACTORS
330
22
102
}
330
22
100
AcDbXrecord
280
     1
270
     1
271
     1
  0
XRECORD
  5
27
102
{ACAD_REACTORS
330
22
102
}
330
22
100
AcDbXrecord
280
     1
270
     1
271
     1
  0
XRECORD
  5
26
102
{ACAD_REACTORS
330
22
102
}
330
22
100
AcDbXrecord
280
     1
270
     1
271
     1
  0
XRECORD
  5
28
102
{ACAD_REACTORS
330
22
102
}
330
22
100
AcDbXrecord
280
     1
270
     1
271
     1
  0
XRECORD
  5
25
102
{ACAD_REACTORS
330
22
102
}
330
22
100
AcDbXrecord
280
     1
270
     1
271
     1
  0
XRECORD
  5
1FB
102
{ACAD_REACTORS
330
1FA
102
}
330
1FA
100
AcDbXrecord
280
     1
102
DISPLAYNAME
  1
Imperial24
102
FLAGS
 90
        0
  0
CELLSTYLEMAP
  5
1F8
102
{ACAD_REACTORS
330
1F7
102
}
330
1F7
100
AcDbCellStyleMap
 90
        3
300
CELLSTYLE
  1
TABLEFORMAT_BEGIN
 90
        5
170
     1
 91
        0
 92
    32768
 62
   257
 93
        1
300
CONTENTFORMAT
  1
CONTENTFORMAT_BEGIN
 90
        0
 91
        0
 92
      512
 93
        0
300

 40
0.0
140
1.0
 94
        5
 62
     0
340
55
144
0.25
309
CONTENTFORMAT_END
171
     1
301
MARGIN
  1
CELLMARGIN_BEGIN
 40
1.5
 40
1.5
 40
1.5
 40
1.5
 40
0.18
 40
0.18
309
CELLMARGIN_END
 94
        0
309
TABLEFORMAT_END
  1
CELLSTYLE_BEGIN
 90
        1
 91
        1
300
_TITLE
309
CELLSTYLE_END
300
CELLSTYLE
  1
TABLEFORMAT_BEGIN
 90
        5
170
     1
 91
        0
 92
        0
 62
   257
 93
        1
300
CONTENTFORMAT
  1
CONTENTFORMAT_BEGIN
 90
        0
 91
        0
 92
      512
 93
        0
300

 40
0.0
140
1.0
 94
        5
 62
     0
340
55
144
0.18
309
CONTENTFORMAT_END
171
     1
301
MARGIN
  1
CELLMARGIN_BEGIN
 40
1.5
 40
1.5
 40
1.5
 40
1.5
 40
0.18
 40
0.18
309
CELLMARGIN_END
 94
        0
309
TABLEFORMAT_END
  1
CELLSTYLE_BEGIN
 90
        2
 91
        1
300
_HEADER
309
CELLSTYLE_END
300
CELLSTYLE
  1
TABLEFORMAT_BEGIN
 90
        5
170
     1
 91
        0
 92
        0
 62
   257
 93
        1
300
CONTENTFORMAT
  1
CONTENTFORMAT_BEGIN
 90
        0
 91
        0
 92
      512
 93
        0
300

 40
0.0
140
1.0
 94
        2
 62
     0
340
55
144
0.18
309
CONTENTFORMAT_END
171
     1
301
MARGIN
  1
CELLMARGIN_BEGIN
 40
1.5
 40
1.5
 40
1.5
 40
1.5
 40
0.18
 40
0.18
309
CELLMARGIN_END
 94
        0
309
TABLEFORMAT_END
  1
CELLSTYLE_BEGIN
 90
        3
 91
        2
300
_DATA
309
CELLSTYLE_END
  0
ENDSEC
  0
EOF
