ISO-10303-21;
HEADER;
/* Generated by software containing ST-Developer
 * from STEP Tools, Inc. (www.steptools.com) 
 */

FILE_DESCRIPTION(
/* description */ (''),
/* implementation_level */ '2;1');

FILE_NAME(
/* name */ 'din_en_iso_2009_-_ke_m1_6_x_4_-_st v1.step',
/* time_stamp */ '2024-06-17T10:20:48+02:00',
/* author */ (''),
/* organization */ (''),
/* preprocessor_version */ 'ST-DEVELOPER v20',
/* originating_system */ 'Autodesk Translation Framework v13.14.0.145',

/* authorisation */ '');

FILE_SCHEMA (('AUTOMOTIVE_DESIGN { 1 0 10303 214 3 1 1 }'));
ENDSEC;

DATA;
#10=MECHANICAL_DESIGN_GEOMETRIC_PRESENTATION_REPRESENTATION('',(#13),#456);
#11=SHAPE_REPRESENTATION_RELATIONSHIP('SRR','None',#463,#12);
#12=ADVANCED_BREP_SHAPE_REPRESENTATION('',(#14),#455);
#13=STYLED_ITEM('',(#472),#14);
#14=MANIFOLD_SOLID_BREP('Body1',#248);
#15=FACE_BOUND('',#68,.T.);
#16=TOROIDAL_SURFACE('',#279,1.2,0.4);
#17=CONICAL_SURFACE('',#276,1.20857864376269,0.845041362160946);
#18=CONICAL_SURFACE('',#285,0.705281250000001,0.785398163397449);
#19=CONICAL_SURFACE('',#291,0.70528125,0.785398163397448);
#20=CYLINDRICAL_SURFACE('',#267,1.5);
#21=CYLINDRICAL_SURFACE('',#273,1.5);
#22=CYLINDRICAL_SURFACE('',#283,0.8);
#23=CYLINDRICAL_SURFACE('',#289,0.8);
#24=CIRCLE('',#265,1.36475850348813);
#25=CIRCLE('',#266,1.36475850348813);
#26=CIRCLE('',#268,1.5);
#27=CIRCLE('',#269,1.5);
#28=CIRCLE('',#272,1.5);
#29=CIRCLE('',#274,1.5);
#30=CIRCLE('',#275,1.5);
#31=CIRCLE('',#277,0.917157287525381);
#32=CIRCLE('',#278,0.917157287525381);
#33=CIRCLE('',#280,0.4);
#34=CIRCLE('',#281,0.8);
#35=CIRCLE('',#282,0.8);
#36=CIRCLE('',#284,0.800000000000001);
#37=CIRCLE('',#286,0.610562500000001);
#38=CIRCLE('',#288,0.800000000000001);
#39=CIRCLE('',#290,0.8);
#40=CIRCLE('',#292,0.6105625);
#41=FACE_OUTER_BOUND('',#56,.T.);
#42=FACE_OUTER_BOUND('',#57,.T.);
#43=FACE_OUTER_BOUND('',#58,.T.);
#44=FACE_OUTER_BOUND('',#59,.T.);
#45=FACE_OUTER_BOUND('',#60,.T.);
#46=FACE_OUTER_BOUND('',#61,.T.);
#47=FACE_OUTER_BOUND('',#62,.T.);
#48=FACE_OUTER_BOUND('',#63,.T.);
#49=FACE_OUTER_BOUND('',#64,.T.);
#50=FACE_OUTER_BOUND('',#65,.T.);
#51=FACE_OUTER_BOUND('',#66,.T.);
#52=FACE_OUTER_BOUND('',#67,.T.);
#53=FACE_OUTER_BOUND('',#69,.T.);
#54=FACE_OUTER_BOUND('',#70,.T.);
#55=FACE_OUTER_BOUND('',#71,.T.);
#56=EDGE_LOOP('',(#158,#159,#160,#161,#162,#163));
#57=EDGE_LOOP('',(#164,#165,#166,#167,#168,#169));
#58=EDGE_LOOP('',(#170,#171,#172,#173));
#59=EDGE_LOOP('',(#174,#175,#176,#177));
#60=EDGE_LOOP('',(#178,#179));
#61=EDGE_LOOP('',(#180,#181));
#62=EDGE_LOOP('',(#182,#183,#184,#185,#186));
#63=EDGE_LOOP('',(#187,#188,#189,#190,#191,#192,#193,#194,#195,#196,#197,
#198,#199));
#64=EDGE_LOOP('',(#200,#201,#202,#203,#204,#205));
#65=EDGE_LOOP('',(#206,#207,#208,#209,#210));
#66=EDGE_LOOP('',(#211,#212,#213,#214));
#67=EDGE_LOOP('',(#215));
#68=EDGE_LOOP('',(#216));
#69=EDGE_LOOP('',(#217,#218,#219,#220));
#70=EDGE_LOOP('',(#221,#222,#223,#224));
#71=EDGE_LOOP('',(#225));
#72=LINE('',#381,#85);
#73=LINE('',#387,#86);
#74=LINE('',#389,#87);
#75=LINE('',#390,#88);
#76=LINE('',#398,#89);
#77=LINE('',#400,#90);
#78=LINE('',#402,#91);
#79=LINE('',#407,#92);
#80=LINE('',#425,#93);
#81=LINE('',#436,#94);
#82=LINE('',#440,#95);
#83=LINE('',#447,#96);
#84=LINE('',#451,#97);
#85=VECTOR('',#298,1.);
#86=VECTOR('',#299,1.);
#87=VECTOR('',#300,1.);
#88=VECTOR('',#301,1.);
#89=VECTOR('',#304,1.);
#90=VECTOR('',#305,1.);
#91=VECTOR('',#306,1.);
#92=VECTOR('',#307,1.);
#93=VECTOR('',#336,1.20857864376269);
#94=VECTOR('',#351,0.8);
#95=VECTOR('',#356,0.705281250000001);
#96=VECTOR('',#365,0.8);
#97=VECTOR('',#370,0.70528125);
#98=(
BOUNDED_CURVE()
B_SPLINE_CURVE(2,(#377,#378,#379),.UNSPECIFIED.,.F.,.F.)
B_SPLINE_CURVE_WITH_KNOTS((3,3),(0.,0.181809749757175),.UNSPECIFIED.)
CURVE()
GEOMETRIC_REPRESENTATION_ITEM()
RATIONAL_B_SPLINE_CURVE((1.,1.00113847982703,1.))
REPRESENTATION_ITEM('')
);
#99=(
BOUNDED_CURVE()
B_SPLINE_CURVE(2,(#383,#384,#385),.UNSPECIFIED.,.F.,.F.)
B_SPLINE_CURVE_WITH_KNOTS((3,3),(0.,0.181809749757175),.UNSPECIFIED.)
CURVE()
GEOMETRIC_REPRESENTATION_ITEM()
RATIONAL_B_SPLINE_CURVE((1.,1.00113847982703,1.))
REPRESENTATION_ITEM('')
);
#100=(
BOUNDED_CURVE()
B_SPLINE_CURVE(2,(#394,#395,#396),.UNSPECIFIED.,.F.,.F.)
B_SPLINE_CURVE_WITH_KNOTS((3,3),(0.,0.181809749757175),.UNSPECIFIED.)
CURVE()
GEOMETRIC_REPRESENTATION_ITEM()
RATIONAL_B_SPLINE_CURVE((1.,1.00113847982703,1.))
REPRESENTATION_ITEM('')
);
#101=(
BOUNDED_CURVE()
B_SPLINE_CURVE(2,(#404,#405,#406),.UNSPECIFIED.,.F.,.F.)
B_SPLINE_CURVE_WITH_KNOTS((3,3),(0.,0.181809749757175),.UNSPECIFIED.)
CURVE()
GEOMETRIC_REPRESENTATION_ITEM()
RATIONAL_B_SPLINE_CURVE((1.,1.00113847982703,1.))
REPRESENTATION_ITEM('')
);
#102=VERTEX_POINT('',#375);
#103=VERTEX_POINT('',#376);
#104=VERTEX_POINT('',#380);
#105=VERTEX_POINT('',#382);
#106=VERTEX_POINT('',#386);
#107=VERTEX_POINT('',#388);
#108=VERTEX_POINT('',#392);
#109=VERTEX_POINT('',#393);
#110=VERTEX_POINT('',#397);
#111=VERTEX_POINT('',#399);
#112=VERTEX_POINT('',#401);
#113=VERTEX_POINT('',#403);
#114=VERTEX_POINT('',#418);
#115=VERTEX_POINT('',#422);
#116=VERTEX_POINT('',#423);
#117=VERTEX_POINT('',#428);
#118=VERTEX_POINT('',#430);
#119=VERTEX_POINT('',#434);
#120=VERTEX_POINT('',#438);
#121=VERTEX_POINT('',#442);
#122=VERTEX_POINT('',#445);
#123=VERTEX_POINT('',#449);
#124=EDGE_CURVE('',#102,#103,#98,.T.);
#125=EDGE_CURVE('',#102,#104,#72,.T.);
#126=EDGE_CURVE('',#105,#104,#99,.T.);
#127=EDGE_CURVE('',#106,#105,#73,.T.);
#128=EDGE_CURVE('',#107,#106,#74,.T.);
#129=EDGE_CURVE('',#103,#107,#75,.T.);
#130=EDGE_CURVE('',#108,#109,#100,.T.);
#131=EDGE_CURVE('',#110,#108,#76,.T.);
#132=EDGE_CURVE('',#111,#110,#77,.T.);
#133=EDGE_CURVE('',#112,#111,#78,.T.);
#134=EDGE_CURVE('',#113,#112,#101,.T.);
#135=EDGE_CURVE('',#109,#113,#79,.T.);
#136=EDGE_CURVE('',#109,#102,#24,.T.);
#137=EDGE_CURVE('',#104,#113,#25,.T.);
#138=EDGE_CURVE('',#112,#108,#26,.T.);
#139=EDGE_CURVE('',#111,#110,#27,.T.);
#140=EDGE_CURVE('',#107,#106,#28,.T.);
#141=EDGE_CURVE('',#114,#105,#29,.T.);
#142=EDGE_CURVE('',#103,#114,#30,.T.);
#143=EDGE_CURVE('',#115,#116,#31,.T.);
#144=EDGE_CURVE('',#115,#114,#80,.T.);
#145=EDGE_CURVE('',#116,#115,#32,.T.);
#146=EDGE_CURVE('',#116,#117,#33,.T.);
#147=EDGE_CURVE('',#118,#117,#34,.T.);
#148=EDGE_CURVE('',#117,#118,#35,.T.);
#149=EDGE_CURVE('',#119,#119,#36,.T.);
#150=EDGE_CURVE('',#119,#118,#81,.T.);
#151=EDGE_CURVE('',#120,#120,#37,.T.);
#152=EDGE_CURVE('',#120,#119,#82,.T.);
#153=EDGE_CURVE('',#121,#121,#38,.T.);
#154=EDGE_CURVE('',#122,#122,#39,.T.);
#155=EDGE_CURVE('',#122,#121,#83,.T.);
#156=EDGE_CURVE('',#123,#123,#40,.T.);
#157=EDGE_CURVE('',#123,#122,#84,.T.);
#158=ORIENTED_EDGE('',*,*,#124,.F.);
#159=ORIENTED_EDGE('',*,*,#125,.T.);
#160=ORIENTED_EDGE('',*,*,#126,.F.);
#161=ORIENTED_EDGE('',*,*,#127,.F.);
#162=ORIENTED_EDGE('',*,*,#128,.F.);
#163=ORIENTED_EDGE('',*,*,#129,.F.);
#164=ORIENTED_EDGE('',*,*,#130,.F.);
#165=ORIENTED_EDGE('',*,*,#131,.F.);
#166=ORIENTED_EDGE('',*,*,#132,.F.);
#167=ORIENTED_EDGE('',*,*,#133,.F.);
#168=ORIENTED_EDGE('',*,*,#134,.F.);
#169=ORIENTED_EDGE('',*,*,#135,.F.);
#170=ORIENTED_EDGE('',*,*,#136,.F.);
#171=ORIENTED_EDGE('',*,*,#135,.T.);
#172=ORIENTED_EDGE('',*,*,#137,.F.);
#173=ORIENTED_EDGE('',*,*,#125,.F.);
#174=ORIENTED_EDGE('',*,*,#131,.T.);
#175=ORIENTED_EDGE('',*,*,#138,.F.);
#176=ORIENTED_EDGE('',*,*,#133,.T.);
#177=ORIENTED_EDGE('',*,*,#139,.T.);
#178=ORIENTED_EDGE('',*,*,#132,.T.);
#179=ORIENTED_EDGE('',*,*,#139,.F.);
#180=ORIENTED_EDGE('',*,*,#128,.T.);
#181=ORIENTED_EDGE('',*,*,#140,.F.);
#182=ORIENTED_EDGE('',*,*,#129,.T.);
#183=ORIENTED_EDGE('',*,*,#140,.T.);
#184=ORIENTED_EDGE('',*,*,#127,.T.);
#185=ORIENTED_EDGE('',*,*,#141,.F.);
#186=ORIENTED_EDGE('',*,*,#142,.F.);
#187=ORIENTED_EDGE('',*,*,#143,.F.);
#188=ORIENTED_EDGE('',*,*,#144,.T.);
#189=ORIENTED_EDGE('',*,*,#141,.T.);
#190=ORIENTED_EDGE('',*,*,#126,.T.);
#191=ORIENTED_EDGE('',*,*,#137,.T.);
#192=ORIENTED_EDGE('',*,*,#134,.T.);
#193=ORIENTED_EDGE('',*,*,#138,.T.);
#194=ORIENTED_EDGE('',*,*,#130,.T.);
#195=ORIENTED_EDGE('',*,*,#136,.T.);
#196=ORIENTED_EDGE('',*,*,#124,.T.);
#197=ORIENTED_EDGE('',*,*,#142,.T.);
#198=ORIENTED_EDGE('',*,*,#144,.F.);
#199=ORIENTED_EDGE('',*,*,#145,.F.);
#200=ORIENTED_EDGE('',*,*,#143,.T.);
#201=ORIENTED_EDGE('',*,*,#146,.T.);
#202=ORIENTED_EDGE('',*,*,#147,.F.);
#203=ORIENTED_EDGE('',*,*,#148,.F.);
#204=ORIENTED_EDGE('',*,*,#146,.F.);
#205=ORIENTED_EDGE('',*,*,#145,.T.);
#206=ORIENTED_EDGE('',*,*,#149,.F.);
#207=ORIENTED_EDGE('',*,*,#150,.T.);
#208=ORIENTED_EDGE('',*,*,#147,.T.);
#209=ORIENTED_EDGE('',*,*,#148,.T.);
#210=ORIENTED_EDGE('',*,*,#150,.F.);
#211=ORIENTED_EDGE('',*,*,#151,.F.);
#212=ORIENTED_EDGE('',*,*,#152,.T.);
#213=ORIENTED_EDGE('',*,*,#149,.T.);
#214=ORIENTED_EDGE('',*,*,#152,.F.);
#215=ORIENTED_EDGE('',*,*,#153,.F.);
#216=ORIENTED_EDGE('',*,*,#151,.T.);
#217=ORIENTED_EDGE('',*,*,#154,.F.);
#218=ORIENTED_EDGE('',*,*,#155,.T.);
#219=ORIENTED_EDGE('',*,*,#153,.T.);
#220=ORIENTED_EDGE('',*,*,#155,.F.);
#221=ORIENTED_EDGE('',*,*,#156,.F.);
#222=ORIENTED_EDGE('',*,*,#157,.T.);
#223=ORIENTED_EDGE('',*,*,#154,.T.);
#224=ORIENTED_EDGE('',*,*,#157,.F.);
#225=ORIENTED_EDGE('',*,*,#156,.T.);
#226=PLANE('',#262);
#227=PLANE('',#263);
#228=PLANE('',#264);
#229=PLANE('',#270);
#230=PLANE('',#271);
#231=PLANE('',#287);
#232=PLANE('',#293);
#233=ADVANCED_FACE('',(#41),#226,.T.);
#234=ADVANCED_FACE('',(#42),#227,.T.);
#235=ADVANCED_FACE('',(#43),#228,.T.);
#236=ADVANCED_FACE('',(#44),#20,.T.);
#237=ADVANCED_FACE('',(#45),#229,.T.);
#238=ADVANCED_FACE('',(#46),#230,.T.);
#239=ADVANCED_FACE('',(#47),#21,.T.);
#240=ADVANCED_FACE('',(#48),#17,.T.);
#241=ADVANCED_FACE('',(#49),#16,.F.);
#242=ADVANCED_FACE('',(#50),#22,.T.);
#243=ADVANCED_FACE('',(#51),#18,.T.);
#244=ADVANCED_FACE('',(#52,#15),#231,.T.);
#245=ADVANCED_FACE('',(#53),#23,.T.);
#246=ADVANCED_FACE('',(#54),#19,.T.);
#247=ADVANCED_FACE('',(#55),#232,.T.);
#248=CLOSED_SHELL('',(#233,#234,#235,#236,#237,#238,#239,#240,#241,#242,
#243,#244,#245,#246,#247));
#249=DERIVED_UNIT_ELEMENT(#251,1.);
#250=DERIVED_UNIT_ELEMENT(#458,-3.);
#251=(
MASS_UNIT()
NAMED_UNIT(*)
SI_UNIT(.KILO.,.GRAM.)
);
#252=DERIVED_UNIT((#249,#250));
#253=MEASURE_REPRESENTATION_ITEM('density measure',
POSITIVE_RATIO_MEASURE(1000.),#252);
#254=PROPERTY_DEFINITION_REPRESENTATION(#259,#256);
#255=PROPERTY_DEFINITION_REPRESENTATION(#260,#257);
#256=REPRESENTATION('material name',(#258),#455);
#257=REPRESENTATION('density',(#253),#455);
#258=DESCRIPTIVE_REPRESENTATION_ITEM('Generic','Generic');
#259=PROPERTY_DEFINITION('material property','material name',#465);
#260=PROPERTY_DEFINITION('material property','density of part',#465);
#261=AXIS2_PLACEMENT_3D('',#373,#294,#295);
#262=AXIS2_PLACEMENT_3D('',#374,#296,#297);
#263=AXIS2_PLACEMENT_3D('',#391,#302,#303);
#264=AXIS2_PLACEMENT_3D('',#408,#308,#309);
#265=AXIS2_PLACEMENT_3D('',#409,#310,#311);
#266=AXIS2_PLACEMENT_3D('',#410,#312,#313);
#267=AXIS2_PLACEMENT_3D('',#411,#314,#315);
#268=AXIS2_PLACEMENT_3D('',#412,#316,#317);
#269=AXIS2_PLACEMENT_3D('',#413,#318,#319);
#270=AXIS2_PLACEMENT_3D('',#414,#320,#321);
#271=AXIS2_PLACEMENT_3D('',#415,#322,#323);
#272=AXIS2_PLACEMENT_3D('',#416,#324,#325);
#273=AXIS2_PLACEMENT_3D('',#417,#326,#327);
#274=AXIS2_PLACEMENT_3D('',#419,#328,#329);
#275=AXIS2_PLACEMENT_3D('',#420,#330,#331);
#276=AXIS2_PLACEMENT_3D('',#421,#332,#333);
#277=AXIS2_PLACEMENT_3D('',#424,#334,#335);
#278=AXIS2_PLACEMENT_3D('',#426,#337,#338);
#279=AXIS2_PLACEMENT_3D('',#427,#339,#340);
#280=AXIS2_PLACEMENT_3D('',#429,#341,#342);
#281=AXIS2_PLACEMENT_3D('',#431,#343,#344);
#282=AXIS2_PLACEMENT_3D('',#432,#345,#346);
#283=AXIS2_PLACEMENT_3D('',#433,#347,#348);
#284=AXIS2_PLACEMENT_3D('',#435,#349,#350);
#285=AXIS2_PLACEMENT_3D('',#437,#352,#353);
#286=AXIS2_PLACEMENT_3D('',#439,#354,#355);
#287=AXIS2_PLACEMENT_3D('',#441,#357,#358);
#288=AXIS2_PLACEMENT_3D('',#443,#359,#360);
#289=AXIS2_PLACEMENT_3D('',#444,#361,#362);
#290=AXIS2_PLACEMENT_3D('',#446,#363,#364);
#291=AXIS2_PLACEMENT_3D('',#448,#366,#367);
#292=AXIS2_PLACEMENT_3D('',#450,#368,#369);
#293=AXIS2_PLACEMENT_3D('',#452,#371,#372);
#294=DIRECTION('axis',(0.,0.,1.));
#295=DIRECTION('refdir',(1.,0.,0.));
#296=DIRECTION('center_axis',(0.,1.,0.));
#297=DIRECTION('ref_axis',(-1.,0.,6.12303176911189E-17));
#298=DIRECTION('',(1.,0.,-6.12303176911189E-17));
#299=DIRECTION('',(6.12303176911189E-17,0.,1.));
#300=DIRECTION('',(1.,0.,-6.12303176911189E-17));
#301=DIRECTION('',(-6.12303176911189E-17,0.,-1.));
#302=DIRECTION('center_axis',(0.,-1.,0.));
#303=DIRECTION('ref_axis',(1.,0.,-6.12303176911189E-17));
#304=DIRECTION('',(6.12303176911189E-17,0.,1.));
#305=DIRECTION('',(-1.,0.,6.12303176911189E-17));
#306=DIRECTION('',(-6.12303176911189E-17,0.,-1.));
#307=DIRECTION('',(1.,0.,-6.12303176911189E-17));
#308=DIRECTION('center_axis',(-6.12303176911189E-17,0.,-1.));
#309=DIRECTION('ref_axis',(-1.,0.,6.12303176911189E-17));
#310=DIRECTION('center_axis',(6.12303176911189E-17,0.,1.));
#311=DIRECTION('ref_axis',(0.,1.,0.));
#312=DIRECTION('center_axis',(6.12303176911189E-17,0.,1.));
#313=DIRECTION('ref_axis',(0.,1.,0.));
#314=DIRECTION('center_axis',(6.12303176911189E-17,0.,1.));
#315=DIRECTION('ref_axis',(0.,1.,0.));
#316=DIRECTION('center_axis',(6.12303176911189E-17,0.,1.));
#317=DIRECTION('ref_axis',(0.,1.,0.));
#318=DIRECTION('center_axis',(6.12303176911189E-17,0.,1.));
#319=DIRECTION('ref_axis',(0.,1.,0.));
#320=DIRECTION('center_axis',(-6.12303176911189E-17,-5.55111512312578E-17,
-1.));
#321=DIRECTION('ref_axis',(3.74915180455534E-33,-1.,6.12303176911189E-17));
#322=DIRECTION('center_axis',(-6.12303176911189E-17,-5.55111512312578E-17,
-1.));
#323=DIRECTION('ref_axis',(3.74915180455534E-33,-1.,6.12303176911189E-17));
#324=DIRECTION('center_axis',(6.12303176911189E-17,0.,1.));
#325=DIRECTION('ref_axis',(0.,1.,0.));
#326=DIRECTION('center_axis',(6.12303176911189E-17,0.,1.));
#327=DIRECTION('ref_axis',(-1.22464679914735E-16,-1.,7.49855125712043E-33));
#328=DIRECTION('center_axis',(6.12303176911189E-17,0.,1.));
#329=DIRECTION('ref_axis',(0.,1.,0.));
#330=DIRECTION('center_axis',(6.12303176911189E-17,0.,1.));
#331=DIRECTION('ref_axis',(0.,1.,0.));
#332=DIRECTION('center_axis',(-6.12303176911189E-17,0.,-1.));
#333=DIRECTION('ref_axis',(0.,1.,0.));
#334=DIRECTION('center_axis',(6.12303176911189E-17,0.,1.));
#335=DIRECTION('ref_axis',(0.,1.,0.));
#336=DIRECTION('',(5.09648218984349E-17,-0.747998564895298,-0.66370034421761));
#337=DIRECTION('center_axis',(6.12303176911189E-17,0.,1.));
#338=DIRECTION('ref_axis',(0.,1.,0.));
#339=DIRECTION('center_axis',(6.12303176911189E-17,0.,1.));
#340=DIRECTION('ref_axis',(1.,0.,0.));
#341=DIRECTION('center_axis',(1.22464679914735E-16,-1.,-7.49855125712043E-33));
#342=DIRECTION('ref_axis',(-1.,-1.22464679914735E-16,8.67361737988403E-17));
#343=DIRECTION('center_axis',(6.12303176911189E-17,0.,1.));
#344=DIRECTION('ref_axis',(0.,1.,0.));
#345=DIRECTION('center_axis',(6.12303176911189E-17,0.,1.));
#346=DIRECTION('ref_axis',(0.,1.,0.));
#347=DIRECTION('center_axis',(6.12303176911189E-17,0.,1.));
#348=DIRECTION('ref_axis',(0.,1.,0.));
#349=DIRECTION('center_axis',(6.12303176911189E-17,0.,1.));
#350=DIRECTION('ref_axis',(0.,1.,0.));
#351=DIRECTION('',(-6.12303176911189E-17,0.,-1.));
#352=DIRECTION('center_axis',(-6.12303176911189E-17,0.,-1.));
#353=DIRECTION('ref_axis',(0.,1.,0.));
#354=DIRECTION('center_axis',(6.12303176911189E-17,0.,1.));
#355=DIRECTION('ref_axis',(0.,1.,0.));
#356=DIRECTION('',(4.32992327699526E-17,-0.707106781186548,-0.707106781186547));
#357=DIRECTION('center_axis',(-6.12303176911189E-17,0.,-1.));
#358=DIRECTION('ref_axis',(0.,-1.,0.));
#359=DIRECTION('center_axis',(6.12303176911189E-17,0.,1.));
#360=DIRECTION('ref_axis',(0.,1.,0.));
#361=DIRECTION('center_axis',(6.12303176911189E-17,0.,1.));
#362=DIRECTION('ref_axis',(0.,1.,0.));
#363=DIRECTION('center_axis',(6.12303176911189E-17,0.,1.));
#364=DIRECTION('ref_axis',(0.,1.,0.));
#365=DIRECTION('',(-6.12303176911189E-17,0.,-1.));
#366=DIRECTION('center_axis',(-6.12303176911189E-17,0.,-1.));
#367=DIRECTION('ref_axis',(0.,1.,0.));
#368=DIRECTION('center_axis',(6.12303176911189E-17,0.,1.));
#369=DIRECTION('ref_axis',(0.,1.,0.));
#370=DIRECTION('',(4.32992327699526E-17,-0.707106781186547,-0.707106781186547));
#371=DIRECTION('center_axis',(6.12303176911189E-17,0.,1.));
#372=DIRECTION('ref_axis',(0.,1.,0.));
#373=CARTESIAN_POINT('',(0.,0.,0.));
#374=CARTESIAN_POINT('Origin',(-2.08183080149804E-17,-0.2,-0.34));
#375=CARTESIAN_POINT('',(-1.35002436009249,-0.2,0.32));
#376=CARTESIAN_POINT('',(-1.48660687473185,-0.2,0.2));
#377=CARTESIAN_POINT('Ctrl Pts',(-1.35002436009249,-0.2,0.32));
#378=CARTESIAN_POINT('Ctrl Pts',(-1.41509167660881,-0.2,0.262888972937795));
#379=CARTESIAN_POINT('Ctrl Pts',(-1.48660687473185,-0.2,0.2));
#380=CARTESIAN_POINT('',(1.35002436009249,-0.2,0.32));
#381=CARTESIAN_POINT('',(1.9593701661158E-17,-0.2,0.32));
#382=CARTESIAN_POINT('',(1.48660687473185,-0.2,0.2));
#383=CARTESIAN_POINT('Ctrl Pts',(1.48660687473185,-0.2,0.2));
#384=CARTESIAN_POINT('Ctrl Pts',(1.41509167660881,-0.2,0.262888972937795));
#385=CARTESIAN_POINT('Ctrl Pts',(1.35002436009249,-0.2,0.32));
#386=CARTESIAN_POINT('',(1.48660687473185,-0.2,-9.10254112216326E-17));
#387=CARTESIAN_POINT('',(1.48660687473185,-0.2,0.1));
#388=CARTESIAN_POINT('',(-1.48660687473185,-0.2,9.10254112216326E-17));
#389=CARTESIAN_POINT('',(1.69948271264483E-33,-0.2,2.77555756156289E-17));
#390=CARTESIAN_POINT('',(-1.48660687473185,-0.2,0.1));
#391=CARTESIAN_POINT('Origin',(-2.08183080149804E-17,0.2,-0.34));
#392=CARTESIAN_POINT('',(-1.48660687473185,0.2,0.2));
#393=CARTESIAN_POINT('',(-1.35002436009249,0.2,0.32));
#394=CARTESIAN_POINT('Ctrl Pts',(-1.48660687473185,0.2,0.2));
#395=CARTESIAN_POINT('Ctrl Pts',(-1.41509167660881,0.2,0.262888972937795));
#396=CARTESIAN_POINT('Ctrl Pts',(-1.35002436009249,0.2,0.32));
#397=CARTESIAN_POINT('',(-1.48660687473185,0.2,9.10254112216326E-17));
#398=CARTESIAN_POINT('',(-1.48660687473185,0.2,0.1));
#399=CARTESIAN_POINT('',(1.48660687473185,0.2,-9.10254112216326E-17));
#400=CARTESIAN_POINT('',(0.,0.2,0.));
#401=CARTESIAN_POINT('',(1.48660687473185,0.2,0.2));
#402=CARTESIAN_POINT('',(1.48660687473185,0.2,0.1));
#403=CARTESIAN_POINT('',(1.35002436009249,0.2,0.32));
#404=CARTESIAN_POINT('Ctrl Pts',(1.35002436009249,0.2,0.32));
#405=CARTESIAN_POINT('Ctrl Pts',(1.41509167660881,0.2,0.262888972937795));
#406=CARTESIAN_POINT('Ctrl Pts',(1.48660687473185,0.2,0.2));
#407=CARTESIAN_POINT('',(1.9593701661158E-17,0.2,0.32));
#408=CARTESIAN_POINT('Origin',(1.9593701661158E-17,0.,0.32));
#409=CARTESIAN_POINT('Origin',(1.9593701661158E-17,0.,0.32));
#410=CARTESIAN_POINT('Origin',(1.9593701661158E-17,0.,0.32));
#411=CARTESIAN_POINT('Origin',(6.12303176911189E-18,0.,0.1));
#412=CARTESIAN_POINT('Origin',(1.22460635382238E-17,0.,0.2));
#413=CARTESIAN_POINT('Origin',(0.,0.,0.));
#414=CARTESIAN_POINT('Origin',(-2.54922406896725E-33,0.75,-4.16333634234434E-17));
#415=CARTESIAN_POINT('Origin',(-2.54922406896725E-33,0.75,-4.16333634234434E-17));
#416=CARTESIAN_POINT('Origin',(0.,0.,0.));
#417=CARTESIAN_POINT('Origin',(6.12303176911189E-18,0.,0.1));
#418=CARTESIAN_POINT('',(1.95943083410327E-16,-1.5,0.2));
#419=CARTESIAN_POINT('Origin',(1.22460635382238E-17,0.,0.2));
#420=CARTESIAN_POINT('Origin',(1.22460635382238E-17,0.,0.2));
#421=CARTESIAN_POINT('Origin',(2.8078916043952E-17,0.,0.45857864376269));
#422=CARTESIAN_POINT('',(1.56231142197943E-16,-0.917157287525381,0.717157287525381));
#423=CARTESIAN_POINT('',(-0.917157287525381,-1.12319373648263E-16,0.717157287525381));
#424=CARTESIAN_POINT('Origin',(4.39117685496802E-17,0.,0.717157287525381));
#425=CARTESIAN_POINT('',(1.76087112804135E-16,-1.20857864376269,0.45857864376269));
#426=CARTESIAN_POINT('Origin',(4.39117685496802E-17,0.,0.717157287525381));
#427=CARTESIAN_POINT('Origin',(6.12303176911189E-17,0.,1.));
#428=CARTESIAN_POINT('',(-0.8,-9.79717439317883E-17,1.));
#429=CARTESIAN_POINT('Origin',(-1.2,-1.46957615897682E-16,1.));
#430=CARTESIAN_POINT('',(1.59202061622907E-16,-0.8,1.));
#431=CARTESIAN_POINT('Origin',(6.12303176911189E-17,0.,1.));
#432=CARTESIAN_POINT('Origin',(6.12303176911189E-17,0.,1.));
#433=CARTESIAN_POINT('Origin',(6.15364692795745E-17,0.,1.005));
#434=CARTESIAN_POINT('',(1.59814364799818E-16,-0.8,1.01));
#435=CARTESIAN_POINT('Origin',(6.18426208680301E-17,0.,1.01));
#436=CARTESIAN_POINT('',(1.59508213211363E-16,-0.8,1.005));
#437=CARTESIAN_POINT('Origin',(6.76422800218357E-17,0.,1.10471875));
#438=CARTESIAN_POINT('',(1.48214280306082E-16,-0.610562500000001,1.1994375));
#439=CARTESIAN_POINT('Origin',(7.34419391756414E-17,0.,1.1994375));
#440=CARTESIAN_POINT('',(1.5401432255295E-16,-0.705281250000001,1.10471875));
#441=CARTESIAN_POINT('Origin',(7.34419391756414E-17,0.705281250000001,1.1994375));
#442=CARTESIAN_POINT('',(1.7141368310743E-16,-0.8,1.1994375));
#443=CARTESIAN_POINT('Origin',(7.34419391756414E-17,0.,1.1994375));
#444=CARTESIAN_POINT('Origin',(1.53381945816253E-16,0.,2.505));
#445=CARTESIAN_POINT('',(3.31293696388652E-16,-0.8,3.8105625));
#446=CARTESIAN_POINT('Origin',(2.33321952456864E-16,0.,3.8105625));
#447=CARTESIAN_POINT('',(2.51353689748041E-16,-0.8,2.505));
#448=CARTESIAN_POINT('Origin',(2.3912161161067E-16,0.,3.90528125));
#449=CARTESIAN_POINT('',(3.19693611894916E-16,-0.6105625,4.));
#450=CARTESIAN_POINT('Origin',(2.44921270764476E-16,0.,4.));
#451=CARTESIAN_POINT('',(3.25493654141784E-16,-0.70528125,3.90528125));
#452=CARTESIAN_POINT('Origin',(2.44921270764476E-16,0.30528125,4.));
#453=UNCERTAINTY_MEASURE_WITH_UNIT(LENGTH_MEASURE(0.01),#457,
'DISTANCE_ACCURACY_VALUE',
'Maximum model space distance between geometric entities at asserted c
onnectivities');
#454=UNCERTAINTY_MEASURE_WITH_UNIT(LENGTH_MEASURE(0.01),#457,
'DISTANCE_ACCURACY_VALUE',
'Maximum model space distance between geometric entities at asserted c
onnectivities');
#455=(
GEOMETRIC_REPRESENTATION_CONTEXT(3)
GLOBAL_UNCERTAINTY_ASSIGNED_CONTEXT((#453))
GLOBAL_UNIT_ASSIGNED_CONTEXT((#457,#459,#460))
REPRESENTATION_CONTEXT('','3D')
);
#456=(
GEOMETRIC_REPRESENTATION_CONTEXT(3)
GLOBAL_UNCERTAINTY_ASSIGNED_CONTEXT((#454))
GLOBAL_UNIT_ASSIGNED_CONTEXT((#457,#459,#460))
REPRESENTATION_CONTEXT('','3D')
);
#457=(
LENGTH_UNIT()
NAMED_UNIT(*)
SI_UNIT(.MILLI.,.METRE.)
);
#458=(
LENGTH_UNIT()
NAMED_UNIT(*)
SI_UNIT($,.METRE.)
);
#459=(
NAMED_UNIT(*)
PLANE_ANGLE_UNIT()
SI_UNIT($,.RADIAN.)
);
#460=(
NAMED_UNIT(*)
SI_UNIT($,.STERADIAN.)
SOLID_ANGLE_UNIT()
);
#461=SHAPE_DEFINITION_REPRESENTATION(#462,#463);
#462=PRODUCT_DEFINITION_SHAPE('',$,#465);
#463=SHAPE_REPRESENTATION('',(#261),#455);
#464=PRODUCT_DEFINITION_CONTEXT('part definition',#469,'design');
#465=PRODUCT_DEFINITION('din_en_iso_2009_-_ke_m1_6_x_4_-_st',
'din_en_iso_2009_-_ke_m1_6_x_4_-_st v1',#466,#464);
#466=PRODUCT_DEFINITION_FORMATION('',$,#471);
#467=PRODUCT_RELATED_PRODUCT_CATEGORY(
'din_en_iso_2009_-_ke_m1_6_x_4_-_st v1',
'din_en_iso_2009_-_ke_m1_6_x_4_-_st v1',(#471));
#468=APPLICATION_PROTOCOL_DEFINITION('international standard',
'automotive_design',2009,#469);
#469=APPLICATION_CONTEXT(
'Core Data for Automotive Mechanical Design Process');
#470=PRODUCT_CONTEXT('part definition',#469,'mechanical');
#471=PRODUCT('din_en_iso_2009_-_ke_m1_6_x_4_-_st',
'din_en_iso_2009_-_ke_m1_6_x_4_-_st v1',$,(#470));
#472=PRESENTATION_STYLE_ASSIGNMENT((#473));
#473=SURFACE_STYLE_USAGE(.BOTH.,#474);
#474=SURFACE_SIDE_STYLE('',(#475));
#475=SURFACE_STYLE_FILL_AREA(#476);
#476=FILL_AREA_STYLE('Default',(#477));
#477=FILL_AREA_STYLE_COLOUR('Default',#478);
#478=COLOUR_RGB('Default',0.749019607843137,0.749019607843137,0.749019607843137);
ENDSEC;
END-ISO-10303-21;
