ISO-10303-21;
HEADER;
/* Generated by software containing ST-Developer
 * from STEP Tools, Inc. (www.steptools.com) 
 */

FILE_DESCRIPTION(
/* description */ (''),
/* implementation_level */ '2;1');

FILE_NAME(
/* name */ 'fhc4x10efa2 v1.step',
/* time_stamp */ '2024-06-17T10:21:05+02:00',
/* author */ (''),
/* organization */ (''),
/* preprocessor_version */ 'ST-DEVELOPER v20',
/* originating_system */ 'Autodesk Translation Framework v13.14.0.145',

/* authorisation */ '');

FILE_SCHEMA (('AUTOMOTIVE_DESIGN { 1 0 10303 214 3 1 1 }'));
ENDSEC;

DATA;
#10=MECHANICAL_DESIGN_GEOMETRIC_PRESENTATION_REPRESENTATION('',(#342,#343,
#344,#345,#346,#347,#348,#349,#350,#351,#352,#353,#354,#355,#356,#357,#358,
#359,#360,#361,#362,#363,#364,#365),#676);
#11=SHAPE_REPRESENTATION_RELATIONSHIP('SRR','None',#683,#12);
#12=ADVANCED_BREP_SHAPE_REPRESENTATION('',(#13),#675);
#13=MANIFOLD_SOLID_BREP('Body1',#389);
#14=FACE_BOUND('',#76,.T.);
#15=FACE_BOUND('',#84,.T.);
#16=PLANE('',#420);
#17=PLANE('',#421);
#18=PLANE('',#422);
#19=PLANE('',#423);
#20=PLANE('',#424);
#21=PLANE('',#425);
#22=PLANE('',#426);
#23=PLANE('',#428);
#24=PLANE('',#440);
#25=TOROIDAL_SURFACE('',#412,2.2,0.200000000000002);
#26=TOROIDAL_SURFACE('',#434,2.2,0.200000000000002);
#27=CYLINDRICAL_SURFACE('',#407,4.);
#28=CYLINDRICAL_SURFACE('',#416,2.);
#29=CYLINDRICAL_SURFACE('',#432,2.);
#30=CYLINDRICAL_SURFACE('',#438,4.);
#31=(
BOUNDED_CURVE()
B_SPLINE_CURVE(2,(#565,#566,#567),.UNSPECIFIED.,.F.,.F.)
B_SPLINE_CURVE_WITH_KNOTS((3,3),(0.894629379556068,1.67294229529731),
 .UNSPECIFIED.)
CURVE()
GEOMETRIC_REPRESENTATION_ITEM()
RATIONAL_B_SPLINE_CURVE((1.10621694021567,1.1064764493775,1.02679491924315))
REPRESENTATION_ITEM('')
);
#32=(
BOUNDED_CURVE()
B_SPLINE_CURVE(2,(#569,#570,#571),.UNSPECIFIED.,.F.,.F.)
B_SPLINE_CURVE_WITH_KNOTS((3,3),(0.121369671383048,1.67294229529731),
 .UNSPECIFIED.)
CURVE()
GEOMETRIC_REPRESENTATION_ITEM()
RATIONAL_B_SPLINE_CURVE((1.02679491924315,1.18564064605507,1.02679491924315))
REPRESENTATION_ITEM('')
);
#33=(
BOUNDED_CURVE()
B_SPLINE_CURVE(2,(#573,#574,#575),.UNSPECIFIED.,.F.,.F.)
B_SPLINE_CURVE_WITH_KNOTS((3,3),(0.121369671383048,1.67294229529731),
 .UNSPECIFIED.)
CURVE()
GEOMETRIC_REPRESENTATION_ITEM()
RATIONAL_B_SPLINE_CURVE((1.02679491924315,1.18564064605507,1.02679491924315))
REPRESENTATION_ITEM('')
);
#34=(
BOUNDED_CURVE()
B_SPLINE_CURVE(2,(#577,#578,#579),.UNSPECIFIED.,.F.,.F.)
B_SPLINE_CURVE_WITH_KNOTS((3,3),(0.121369671383048,0.894629379555644),
 .UNSPECIFIED.)
CURVE()
GEOMETRIC_REPRESENTATION_ITEM()
RATIONAL_B_SPLINE_CURVE((1.02679491924315,1.10595911592072,1.10621694021567))
REPRESENTATION_ITEM('')
);
#35=(
BOUNDED_CURVE()
B_SPLINE_CURVE(2,(#619,#620,#621),.UNSPECIFIED.,.F.,.F.)
B_SPLINE_CURVE_WITH_KNOTS((3,3),(0.121369671383048,1.67294229529731),
 .UNSPECIFIED.)
CURVE()
GEOMETRIC_REPRESENTATION_ITEM()
RATIONAL_B_SPLINE_CURVE((1.02679491924315,1.18564064605507,1.02679491924315))
REPRESENTATION_ITEM('')
);
#36=(
BOUNDED_CURVE()
B_SPLINE_CURVE(2,(#628,#629,#630),.UNSPECIFIED.,.F.,.F.)
B_SPLINE_CURVE_WITH_KNOTS((3,3),(0.121369671383048,0.894629379555644),
 .UNSPECIFIED.)
CURVE()
GEOMETRIC_REPRESENTATION_ITEM()
RATIONAL_B_SPLINE_CURVE((1.02679491924315,1.10595911592072,1.10621694021567))
REPRESENTATION_ITEM('')
);
#37=(
BOUNDED_CURVE()
B_SPLINE_CURVE(2,(#644,#645,#646),.UNSPECIFIED.,.F.,.F.)
B_SPLINE_CURVE_WITH_KNOTS((3,3),(0.121369671383048,1.67294229529731),
 .UNSPECIFIED.)
CURVE()
GEOMETRIC_REPRESENTATION_ITEM()
RATIONAL_B_SPLINE_CURVE((1.02679491924315,1.18564064605507,1.02679491924315))
REPRESENTATION_ITEM('')
);
#38=(
BOUNDED_CURVE()
B_SPLINE_CURVE(2,(#652,#653,#654),.UNSPECIFIED.,.F.,.F.)
B_SPLINE_CURVE_WITH_KNOTS((3,3),(0.894629379556066,1.67294229529731),
 .UNSPECIFIED.)
CURVE()
GEOMETRIC_REPRESENTATION_ITEM()
RATIONAL_B_SPLINE_CURVE((1.10621694021567,1.1064764493775,1.02679491924315))
REPRESENTATION_ITEM('')
);
#39=FACE_OUTER_BOUND('',#62,.T.);
#40=FACE_OUTER_BOUND('',#63,.T.);
#41=FACE_OUTER_BOUND('',#64,.T.);
#42=FACE_OUTER_BOUND('',#65,.T.);
#43=FACE_OUTER_BOUND('',#66,.T.);
#44=FACE_OUTER_BOUND('',#67,.T.);
#45=FACE_OUTER_BOUND('',#68,.T.);
#46=FACE_OUTER_BOUND('',#69,.T.);
#47=FACE_OUTER_BOUND('',#70,.T.);
#48=FACE_OUTER_BOUND('',#71,.T.);
#49=FACE_OUTER_BOUND('',#72,.T.);
#50=FACE_OUTER_BOUND('',#73,.T.);
#51=FACE_OUTER_BOUND('',#74,.T.);
#52=FACE_OUTER_BOUND('',#75,.T.);
#53=FACE_OUTER_BOUND('',#77,.T.);
#54=FACE_OUTER_BOUND('',#78,.T.);
#55=FACE_OUTER_BOUND('',#79,.T.);
#56=FACE_OUTER_BOUND('',#80,.T.);
#57=FACE_OUTER_BOUND('',#81,.T.);
#58=FACE_OUTER_BOUND('',#82,.T.);
#59=FACE_OUTER_BOUND('',#83,.T.);
#60=FACE_OUTER_BOUND('',#85,.T.);
#61=FACE_OUTER_BOUND('',#86,.T.);
#62=EDGE_LOOP('',(#234,#235,#236));
#63=EDGE_LOOP('',(#237,#238,#239,#240,#241,#242,#243));
#64=EDGE_LOOP('',(#244,#245,#246,#247));
#65=EDGE_LOOP('',(#248,#249,#250,#251));
#66=EDGE_LOOP('',(#252,#253,#254,#255));
#67=EDGE_LOOP('',(#256,#257,#258,#259));
#68=EDGE_LOOP('',(#260,#261,#262,#263));
#69=EDGE_LOOP('',(#264,#265,#266,#267));
#70=EDGE_LOOP('',(#268,#269,#270,#271,#272));
#71=EDGE_LOOP('',(#273,#274,#275,#276));
#72=EDGE_LOOP('',(#277,#278,#279,#280));
#73=EDGE_LOOP('',(#281,#282,#283,#284));
#74=EDGE_LOOP('',(#285,#286,#287,#288,#289));
#75=EDGE_LOOP('',(#290,#291,#292,#293,#294,#295));
#76=EDGE_LOOP('',(#296,#297));
#77=EDGE_LOOP('',(#298,#299));
#78=EDGE_LOOP('',(#300,#301,#302,#303));
#79=EDGE_LOOP('',(#304,#305,#306,#307));
#80=EDGE_LOOP('',(#308,#309,#310,#311));
#81=EDGE_LOOP('',(#312,#313,#314,#315));
#82=EDGE_LOOP('',(#316,#317,#318,#319));
#83=EDGE_LOOP('',(#320,#321));
#84=EDGE_LOOP('',(#322,#323));
#85=EDGE_LOOP('',(#324,#325,#326,#327,#328,#329,#330));
#86=EDGE_LOOP('',(#331,#332,#333));
#87=CIRCLE('',#404,1.2375);
#88=CIRCLE('',#406,1.51554445662277);
#89=CIRCLE('',#408,4.);
#90=CIRCLE('',#409,4.);
#91=CIRCLE('',#411,2.05857864376269);
#92=CIRCLE('',#413,0.200000000000002);
#93=CIRCLE('',#414,2.);
#94=CIRCLE('',#415,0.200000000000002);
#95=CIRCLE('',#417,2.);
#96=CIRCLE('',#419,1.5705);
#97=CIRCLE('',#427,1.2375);
#98=CIRCLE('',#429,1.5705);
#99=CIRCLE('',#431,2.);
#100=CIRCLE('',#433,2.);
#101=CIRCLE('',#435,2.05857864376269);
#102=CIRCLE('',#437,4.);
#103=CIRCLE('',#439,4.);
#104=CIRCLE('',#441,1.51554445662277);
#105=LINE('',#556,#129);
#106=LINE('',#558,#130);
#107=LINE('',#563,#131);
#108=LINE('',#581,#132);
#109=LINE('',#586,#133);
#110=LINE('',#590,#134);
#111=LINE('',#594,#135);
#112=LINE('',#597,#136);
#113=LINE('',#606,#137);
#114=LINE('',#609,#138);
#115=LINE('',#612,#139);
#116=LINE('',#615,#140);
#117=LINE('',#623,#141);
#118=LINE('',#625,#142);
#119=LINE('',#626,#143);
#120=LINE('',#632,#144);
#121=LINE('',#633,#145);
#122=LINE('',#636,#146);
#123=LINE('',#637,#147);
#124=LINE('',#640,#148);
#125=LINE('',#641,#149);
#126=LINE('',#648,#150);
#127=LINE('',#649,#151);
#128=LINE('',#651,#152);
#129=VECTOR('',#448,1.);
#130=VECTOR('',#449,1.);
#131=VECTOR('',#454,1.);
#132=VECTOR('',#455,1.);
#133=VECTOR('',#460,1.);
#134=VECTOR('',#463,1.);
#135=VECTOR('',#468,1.);
#136=VECTOR('',#471,1.);
#137=VECTOR('',#482,1.);
#138=VECTOR('',#485,1.);
#139=VECTOR('',#488,1.);
#140=VECTOR('',#491,1.);
#141=VECTOR('',#494,1.);
#142=VECTOR('',#495,1.);
#143=VECTOR('',#496,1.);
#144=VECTOR('',#499,1.);
#145=VECTOR('',#500,1.);
#146=VECTOR('',#503,1.);
#147=VECTOR('',#504,1.);
#148=VECTOR('',#507,1.);
#149=VECTOR('',#508,1.);
#150=VECTOR('',#511,1.);
#151=VECTOR('',#512,1.);
#152=VECTOR('',#515,1.);
#153=VERTEX_POINT('',#554);
#154=VERTEX_POINT('',#555);
#155=VERTEX_POINT('',#557);
#156=VERTEX_POINT('',#561);
#157=VERTEX_POINT('',#562);
#158=VERTEX_POINT('',#564);
#159=VERTEX_POINT('',#568);
#160=VERTEX_POINT('',#572);
#161=VERTEX_POINT('',#576);
#162=VERTEX_POINT('',#580);
#163=VERTEX_POINT('',#584);
#164=VERTEX_POINT('',#585);
#165=VERTEX_POINT('',#587);
#166=VERTEX_POINT('',#589);
#167=VERTEX_POINT('',#593);
#168=VERTEX_POINT('',#595);
#169=VERTEX_POINT('',#599);
#170=VERTEX_POINT('',#601);
#171=VERTEX_POINT('',#605);
#172=VERTEX_POINT('',#607);
#173=VERTEX_POINT('',#611);
#174=VERTEX_POINT('',#613);
#175=VERTEX_POINT('',#617);
#176=VERTEX_POINT('',#618);
#177=VERTEX_POINT('',#622);
#178=VERTEX_POINT('',#624);
#179=VERTEX_POINT('',#631);
#180=VERTEX_POINT('',#635);
#181=VERTEX_POINT('',#639);
#182=VERTEX_POINT('',#643);
#183=VERTEX_POINT('',#647);
#184=EDGE_CURVE('',#153,#154,#105,.T.);
#185=EDGE_CURVE('',#154,#155,#106,.T.);
#186=EDGE_CURVE('',#155,#153,#87,.T.);
#187=EDGE_CURVE('',#156,#157,#107,.T.);
#188=EDGE_CURVE('',#156,#158,#31,.T.);
#189=EDGE_CURVE('',#158,#159,#32,.T.);
#190=EDGE_CURVE('',#159,#160,#33,.T.);
#191=EDGE_CURVE('',#160,#161,#34,.T.);
#192=EDGE_CURVE('',#162,#161,#108,.T.);
#193=EDGE_CURVE('',#162,#157,#88,.T.);
#194=EDGE_CURVE('',#163,#164,#109,.T.);
#195=EDGE_CURVE('',#163,#165,#89,.T.);
#196=EDGE_CURVE('',#166,#165,#110,.T.);
#197=EDGE_CURVE('',#164,#166,#90,.T.);
#198=EDGE_CURVE('',#167,#163,#111,.T.);
#199=EDGE_CURVE('',#167,#168,#91,.T.);
#200=EDGE_CURVE('',#165,#168,#112,.T.);
#201=EDGE_CURVE('',#169,#167,#92,.T.);
#202=EDGE_CURVE('',#169,#170,#93,.T.);
#203=EDGE_CURVE('',#168,#170,#94,.T.);
#204=EDGE_CURVE('',#171,#169,#113,.T.);
#205=EDGE_CURVE('',#171,#172,#95,.T.);
#206=EDGE_CURVE('',#170,#172,#114,.T.);
#207=EDGE_CURVE('',#173,#171,#115,.T.);
#208=EDGE_CURVE('',#173,#174,#96,.T.);
#209=EDGE_CURVE('',#172,#174,#116,.T.);
#210=EDGE_CURVE('',#175,#176,#35,.T.);
#211=EDGE_CURVE('',#175,#177,#117,.T.);
#212=EDGE_CURVE('',#178,#177,#118,.T.);
#213=EDGE_CURVE('',#176,#178,#119,.T.);
#214=EDGE_CURVE('',#176,#156,#36,.T.);
#215=EDGE_CURVE('',#179,#178,#120,.T.);
#216=EDGE_CURVE('',#158,#179,#121,.T.);
#217=EDGE_CURVE('',#180,#179,#122,.T.);
#218=EDGE_CURVE('',#159,#180,#123,.T.);
#219=EDGE_CURVE('',#181,#180,#124,.T.);
#220=EDGE_CURVE('',#160,#181,#125,.T.);
#221=EDGE_CURVE('',#182,#175,#37,.T.);
#222=EDGE_CURVE('',#182,#183,#126,.T.);
#223=EDGE_CURVE('',#177,#183,#127,.T.);
#224=EDGE_CURVE('',#183,#181,#128,.T.);
#225=EDGE_CURVE('',#161,#182,#38,.T.);
#226=EDGE_CURVE('',#153,#155,#97,.T.);
#227=EDGE_CURVE('',#174,#173,#98,.T.);
#228=EDGE_CURVE('',#172,#171,#99,.T.);
#229=EDGE_CURVE('',#170,#169,#100,.T.);
#230=EDGE_CURVE('',#168,#167,#101,.T.);
#231=EDGE_CURVE('',#165,#163,#102,.T.);
#232=EDGE_CURVE('',#166,#164,#103,.T.);
#233=EDGE_CURVE('',#157,#162,#104,.T.);
#234=ORIENTED_EDGE('',*,*,#184,.T.);
#235=ORIENTED_EDGE('',*,*,#185,.T.);
#236=ORIENTED_EDGE('',*,*,#186,.T.);
#237=ORIENTED_EDGE('',*,*,#187,.F.);
#238=ORIENTED_EDGE('',*,*,#188,.T.);
#239=ORIENTED_EDGE('',*,*,#189,.T.);
#240=ORIENTED_EDGE('',*,*,#190,.T.);
#241=ORIENTED_EDGE('',*,*,#191,.T.);
#242=ORIENTED_EDGE('',*,*,#192,.F.);
#243=ORIENTED_EDGE('',*,*,#193,.T.);
#244=ORIENTED_EDGE('',*,*,#194,.F.);
#245=ORIENTED_EDGE('',*,*,#195,.T.);
#246=ORIENTED_EDGE('',*,*,#196,.F.);
#247=ORIENTED_EDGE('',*,*,#197,.F.);
#248=ORIENTED_EDGE('',*,*,#198,.F.);
#249=ORIENTED_EDGE('',*,*,#199,.T.);
#250=ORIENTED_EDGE('',*,*,#200,.F.);
#251=ORIENTED_EDGE('',*,*,#195,.F.);
#252=ORIENTED_EDGE('',*,*,#201,.F.);
#253=ORIENTED_EDGE('',*,*,#202,.T.);
#254=ORIENTED_EDGE('',*,*,#203,.F.);
#255=ORIENTED_EDGE('',*,*,#199,.F.);
#256=ORIENTED_EDGE('',*,*,#204,.F.);
#257=ORIENTED_EDGE('',*,*,#205,.T.);
#258=ORIENTED_EDGE('',*,*,#206,.F.);
#259=ORIENTED_EDGE('',*,*,#202,.F.);
#260=ORIENTED_EDGE('',*,*,#207,.F.);
#261=ORIENTED_EDGE('',*,*,#208,.T.);
#262=ORIENTED_EDGE('',*,*,#209,.F.);
#263=ORIENTED_EDGE('',*,*,#205,.F.);
#264=ORIENTED_EDGE('',*,*,#210,.F.);
#265=ORIENTED_EDGE('',*,*,#211,.T.);
#266=ORIENTED_EDGE('',*,*,#212,.F.);
#267=ORIENTED_EDGE('',*,*,#213,.F.);
#268=ORIENTED_EDGE('',*,*,#214,.F.);
#269=ORIENTED_EDGE('',*,*,#213,.T.);
#270=ORIENTED_EDGE('',*,*,#215,.F.);
#271=ORIENTED_EDGE('',*,*,#216,.F.);
#272=ORIENTED_EDGE('',*,*,#188,.F.);
#273=ORIENTED_EDGE('',*,*,#189,.F.);
#274=ORIENTED_EDGE('',*,*,#216,.T.);
#275=ORIENTED_EDGE('',*,*,#217,.F.);
#276=ORIENTED_EDGE('',*,*,#218,.F.);
#277=ORIENTED_EDGE('',*,*,#190,.F.);
#278=ORIENTED_EDGE('',*,*,#218,.T.);
#279=ORIENTED_EDGE('',*,*,#219,.F.);
#280=ORIENTED_EDGE('',*,*,#220,.F.);
#281=ORIENTED_EDGE('',*,*,#221,.F.);
#282=ORIENTED_EDGE('',*,*,#222,.T.);
#283=ORIENTED_EDGE('',*,*,#223,.F.);
#284=ORIENTED_EDGE('',*,*,#211,.F.);
#285=ORIENTED_EDGE('',*,*,#191,.F.);
#286=ORIENTED_EDGE('',*,*,#220,.T.);
#287=ORIENTED_EDGE('',*,*,#224,.F.);
#288=ORIENTED_EDGE('',*,*,#222,.F.);
#289=ORIENTED_EDGE('',*,*,#225,.F.);
#290=ORIENTED_EDGE('',*,*,#219,.T.);
#291=ORIENTED_EDGE('',*,*,#217,.T.);
#292=ORIENTED_EDGE('',*,*,#215,.T.);
#293=ORIENTED_EDGE('',*,*,#212,.T.);
#294=ORIENTED_EDGE('',*,*,#223,.T.);
#295=ORIENTED_EDGE('',*,*,#224,.T.);
#296=ORIENTED_EDGE('',*,*,#186,.F.);
#297=ORIENTED_EDGE('',*,*,#226,.F.);
#298=ORIENTED_EDGE('',*,*,#208,.F.);
#299=ORIENTED_EDGE('',*,*,#227,.F.);
#300=ORIENTED_EDGE('',*,*,#207,.T.);
#301=ORIENTED_EDGE('',*,*,#228,.F.);
#302=ORIENTED_EDGE('',*,*,#209,.T.);
#303=ORIENTED_EDGE('',*,*,#227,.T.);
#304=ORIENTED_EDGE('',*,*,#204,.T.);
#305=ORIENTED_EDGE('',*,*,#229,.F.);
#306=ORIENTED_EDGE('',*,*,#206,.T.);
#307=ORIENTED_EDGE('',*,*,#228,.T.);
#308=ORIENTED_EDGE('',*,*,#201,.T.);
#309=ORIENTED_EDGE('',*,*,#230,.F.);
#310=ORIENTED_EDGE('',*,*,#203,.T.);
#311=ORIENTED_EDGE('',*,*,#229,.T.);
#312=ORIENTED_EDGE('',*,*,#198,.T.);
#313=ORIENTED_EDGE('',*,*,#231,.F.);
#314=ORIENTED_EDGE('',*,*,#200,.T.);
#315=ORIENTED_EDGE('',*,*,#230,.T.);
#316=ORIENTED_EDGE('',*,*,#194,.T.);
#317=ORIENTED_EDGE('',*,*,#232,.F.);
#318=ORIENTED_EDGE('',*,*,#196,.T.);
#319=ORIENTED_EDGE('',*,*,#231,.T.);
#320=ORIENTED_EDGE('',*,*,#197,.T.);
#321=ORIENTED_EDGE('',*,*,#232,.T.);
#322=ORIENTED_EDGE('',*,*,#233,.F.);
#323=ORIENTED_EDGE('',*,*,#193,.F.);
#324=ORIENTED_EDGE('',*,*,#187,.T.);
#325=ORIENTED_EDGE('',*,*,#233,.T.);
#326=ORIENTED_EDGE('',*,*,#192,.T.);
#327=ORIENTED_EDGE('',*,*,#225,.T.);
#328=ORIENTED_EDGE('',*,*,#221,.T.);
#329=ORIENTED_EDGE('',*,*,#210,.T.);
#330=ORIENTED_EDGE('',*,*,#214,.T.);
#331=ORIENTED_EDGE('',*,*,#184,.F.);
#332=ORIENTED_EDGE('',*,*,#226,.T.);
#333=ORIENTED_EDGE('',*,*,#185,.F.);
#334=CONICAL_SURFACE('',#403,0.61875,1.0471975511966);
#335=CONICAL_SURFACE('',#405,1.37652222831138,0.785398163397448);
#336=CONICAL_SURFACE('',#410,3.02928932188135,0.785398163397448);
#337=CONICAL_SURFACE('',#418,1.78525,0.955316618124509);
#338=CONICAL_SURFACE('',#430,1.78525,0.955316618124509);
#339=CONICAL_SURFACE('',#436,3.02928932188135,0.785398163397448);
#340=CONICAL_SURFACE('',#442,1.37652222831138,0.785398163397448);
#341=CONICAL_SURFACE('',#443,0.61875,1.0471975511966);
#342=STYLED_ITEM('',(#694),#366);
#343=STYLED_ITEM('',(#694),#367);
#344=STYLED_ITEM('',(#694),#368);
#345=STYLED_ITEM('',(#694),#369);
#346=STYLED_ITEM('',(#694),#370);
#347=STYLED_ITEM('',(#694),#371);
#348=STYLED_ITEM('',(#694),#372);
#349=STYLED_ITEM('',(#694),#373);
#350=STYLED_ITEM('',(#694),#374);
#351=STYLED_ITEM('',(#694),#375);
#352=STYLED_ITEM('',(#694),#376);
#353=STYLED_ITEM('',(#694),#377);
#354=STYLED_ITEM('',(#694),#378);
#355=STYLED_ITEM('',(#694),#379);
#356=STYLED_ITEM('',(#694),#380);
#357=STYLED_ITEM('',(#694),#381);
#358=STYLED_ITEM('',(#694),#382);
#359=STYLED_ITEM('',(#694),#383);
#360=STYLED_ITEM('',(#694),#384);
#361=STYLED_ITEM('',(#694),#385);
#362=STYLED_ITEM('',(#694),#386);
#363=STYLED_ITEM('',(#694),#387);
#364=STYLED_ITEM('',(#694),#388);
#365=STYLED_ITEM('',(#693),#13);
#366=ADVANCED_FACE('',(#39),#334,.F.);
#367=ADVANCED_FACE('',(#40),#335,.F.);
#368=ADVANCED_FACE('',(#41),#27,.T.);
#369=ADVANCED_FACE('',(#42),#336,.T.);
#370=ADVANCED_FACE('',(#43),#25,.F.);
#371=ADVANCED_FACE('',(#44),#28,.T.);
#372=ADVANCED_FACE('',(#45),#337,.T.);
#373=ADVANCED_FACE('',(#46),#16,.F.);
#374=ADVANCED_FACE('',(#47),#17,.F.);
#375=ADVANCED_FACE('',(#48),#18,.F.);
#376=ADVANCED_FACE('',(#49),#19,.F.);
#377=ADVANCED_FACE('',(#50),#20,.F.);
#378=ADVANCED_FACE('',(#51),#21,.F.);
#379=ADVANCED_FACE('',(#52,#14),#22,.F.);
#380=ADVANCED_FACE('',(#53),#23,.T.);
#381=ADVANCED_FACE('',(#54),#338,.T.);
#382=ADVANCED_FACE('',(#55),#29,.T.);
#383=ADVANCED_FACE('',(#56),#26,.F.);
#384=ADVANCED_FACE('',(#57),#339,.T.);
#385=ADVANCED_FACE('',(#58),#30,.T.);
#386=ADVANCED_FACE('',(#59,#15),#24,.T.);
#387=ADVANCED_FACE('',(#60),#340,.F.);
#388=ADVANCED_FACE('',(#61),#341,.F.);
#389=CLOSED_SHELL('',(#366,#367,#368,#369,#370,#371,#372,#373,#374,#375,
#376,#377,#378,#379,#380,#381,#382,#383,#384,#385,#386,#387,#388));
#390=DERIVED_UNIT_ELEMENT(#392,1.);
#391=DERIVED_UNIT_ELEMENT(#678,-3.);
#392=(
MASS_UNIT()
NAMED_UNIT(*)
SI_UNIT(.KILO.,.GRAM.)
);
#393=DERIVED_UNIT((#390,#391));
#394=MEASURE_REPRESENTATION_ITEM('density measure',
POSITIVE_RATIO_MEASURE(1000.),#393);
#395=PROPERTY_DEFINITION_REPRESENTATION(#400,#397);
#396=PROPERTY_DEFINITION_REPRESENTATION(#401,#398);
#397=REPRESENTATION('material name',(#399),#675);
#398=REPRESENTATION('density',(#394),#675);
#399=DESCRIPTIVE_REPRESENTATION_ITEM('Generic','Generic');
#400=PROPERTY_DEFINITION('material property','material name',#685);
#401=PROPERTY_DEFINITION('material property','density of part',#685);
#402=AXIS2_PLACEMENT_3D('',#552,#444,#445);
#403=AXIS2_PLACEMENT_3D('',#553,#446,#447);
#404=AXIS2_PLACEMENT_3D('',#559,#450,#451);
#405=AXIS2_PLACEMENT_3D('',#560,#452,#453);
#406=AXIS2_PLACEMENT_3D('',#582,#456,#457);
#407=AXIS2_PLACEMENT_3D('',#583,#458,#459);
#408=AXIS2_PLACEMENT_3D('',#588,#461,#462);
#409=AXIS2_PLACEMENT_3D('',#591,#464,#465);
#410=AXIS2_PLACEMENT_3D('',#592,#466,#467);
#411=AXIS2_PLACEMENT_3D('',#596,#469,#470);
#412=AXIS2_PLACEMENT_3D('',#598,#472,#473);
#413=AXIS2_PLACEMENT_3D('',#600,#474,#475);
#414=AXIS2_PLACEMENT_3D('',#602,#476,#477);
#415=AXIS2_PLACEMENT_3D('',#603,#478,#479);
#416=AXIS2_PLACEMENT_3D('',#604,#480,#481);
#417=AXIS2_PLACEMENT_3D('',#608,#483,#484);
#418=AXIS2_PLACEMENT_3D('',#610,#486,#487);
#419=AXIS2_PLACEMENT_3D('',#614,#489,#490);
#420=AXIS2_PLACEMENT_3D('',#616,#492,#493);
#421=AXIS2_PLACEMENT_3D('',#627,#497,#498);
#422=AXIS2_PLACEMENT_3D('',#634,#501,#502);
#423=AXIS2_PLACEMENT_3D('',#638,#505,#506);
#424=AXIS2_PLACEMENT_3D('',#642,#509,#510);
#425=AXIS2_PLACEMENT_3D('',#650,#513,#514);
#426=AXIS2_PLACEMENT_3D('',#655,#516,#517);
#427=AXIS2_PLACEMENT_3D('',#656,#518,#519);
#428=AXIS2_PLACEMENT_3D('',#657,#520,#521);
#429=AXIS2_PLACEMENT_3D('',#658,#522,#523);
#430=AXIS2_PLACEMENT_3D('',#659,#524,#525);
#431=AXIS2_PLACEMENT_3D('',#660,#526,#527);
#432=AXIS2_PLACEMENT_3D('',#661,#528,#529);
#433=AXIS2_PLACEMENT_3D('',#662,#530,#531);
#434=AXIS2_PLACEMENT_3D('',#663,#532,#533);
#435=AXIS2_PLACEMENT_3D('',#664,#534,#535);
#436=AXIS2_PLACEMENT_3D('',#665,#536,#537);
#437=AXIS2_PLACEMENT_3D('',#666,#538,#539);
#438=AXIS2_PLACEMENT_3D('',#667,#540,#541);
#439=AXIS2_PLACEMENT_3D('',#668,#542,#543);
#440=AXIS2_PLACEMENT_3D('',#669,#544,#545);
#441=AXIS2_PLACEMENT_3D('',#670,#546,#547);
#442=AXIS2_PLACEMENT_3D('',#671,#548,#549);
#443=AXIS2_PLACEMENT_3D('',#672,#550,#551);
#444=DIRECTION('axis',(0.,0.,1.));
#445=DIRECTION('refdir',(1.,0.,0.));
#446=DIRECTION('center_axis',(-1.,0.,0.));
#447=DIRECTION('ref_axis',(0.,-2.44921270764475E-16,-1.));
#448=DIRECTION('',(0.5,-1.06054021204601E-16,-0.866025403784439));
#449=DIRECTION('',(-0.5,-1.06054021204601E-16,-0.866025403784439));
#450=DIRECTION('center_axis',(-1.,0.,0.));
#451=DIRECTION('ref_axis',(0.,-2.44921270764475E-16,-1.));
#452=DIRECTION('center_axis',(-1.,0.,0.));
#453=DIRECTION('ref_axis',(0.,-2.44921270764475E-16,-1.));
#454=DIRECTION('',(-0.707106781186548,-8.65927457071936E-17,-0.707106781186547));
#455=DIRECTION('',(0.707106781186548,-8.65927457071936E-17,-0.707106781186547));
#456=DIRECTION('center_axis',(-1.,0.,0.));
#457=DIRECTION('ref_axis',(0.,-2.44921270764475E-16,-1.));
#458=DIRECTION('center_axis',(1.,0.,0.));
#459=DIRECTION('ref_axis',(0.,-2.44921270764475E-16,-1.));
#460=DIRECTION('',(-1.,0.,0.));
#461=DIRECTION('center_axis',(-1.,0.,0.));
#462=DIRECTION('ref_axis',(0.,-2.44921270764475E-16,-1.));
#463=DIRECTION('',(1.,0.,0.));
#464=DIRECTION('center_axis',(-1.,0.,0.));
#465=DIRECTION('ref_axis',(0.,-2.44921270764475E-16,-1.));
#466=DIRECTION('center_axis',(-1.,0.,0.));
#467=DIRECTION('ref_axis',(0.,-2.44921270764475E-16,-1.));
#468=DIRECTION('',(-0.707106781186548,-8.65927457071935E-17,-0.707106781186547));
#469=DIRECTION('center_axis',(-1.,0.,0.));
#470=DIRECTION('ref_axis',(0.,-2.44921270764475E-16,-1.));
#471=DIRECTION('',(0.707106781186548,-8.65927457071935E-17,-0.707106781186547));
#472=DIRECTION('center_axis',(-1.,0.,0.));
#473=DIRECTION('ref_axis',(0.,0.,1.));
#474=DIRECTION('center_axis',(0.,-1.,-1.22460635382238E-16));
#475=DIRECTION('ref_axis',(0.,1.22460635382238E-16,-1.));
#476=DIRECTION('center_axis',(-1.,0.,0.));
#477=DIRECTION('ref_axis',(0.,-2.44921270764475E-16,-1.));
#478=DIRECTION('center_axis',(0.,-1.,-1.22460635382238E-16));
#479=DIRECTION('ref_axis',(0.,-1.22460635382238E-16,1.));
#480=DIRECTION('center_axis',(1.,0.,0.));
#481=DIRECTION('ref_axis',(0.,-2.44921270764475E-16,-1.));
#482=DIRECTION('',(-1.,0.,0.));
#483=DIRECTION('center_axis',(-1.,0.,0.));
#484=DIRECTION('ref_axis',(0.,-2.44921270764475E-16,-1.));
#485=DIRECTION('',(1.,0.,0.));
#486=DIRECTION('center_axis',(-1.,0.,0.));
#487=DIRECTION('ref_axis',(0.,-2.44921270764475E-16,-1.));
#488=DIRECTION('',(-0.577350269189626,-9.9988690087834E-17,-0.816496580927726));
#489=DIRECTION('center_axis',(-1.,0.,0.));
#490=DIRECTION('ref_axis',(0.,-2.44921270764475E-16,-1.));
#491=DIRECTION('',(0.577350269189626,-9.9988690087834E-17,-0.816496580927726));
#492=DIRECTION('center_axis',(0.,-0.865151420569705,-0.501510737159457));
#493=DIRECTION('ref_axis',(0.,0.501510737159457,-0.865151420569705));
#494=DIRECTION('',(1.,0.,0.));
#495=DIRECTION('',(0.,-0.501510737159457,0.865151420569705));
#496=DIRECTION('',(1.,0.,0.));
#497=DIRECTION('center_axis',(0.,0.00174532836589827,-0.999998476913288));
#498=DIRECTION('ref_axis',(-1.,0.,0.));
#499=DIRECTION('',(0.,-0.999998476913288,-0.00174532836589827));
#500=DIRECTION('',(1.,0.,0.));
#501=DIRECTION('center_axis',(0.,0.866896748935603,-0.49848773975383));
#502=DIRECTION('ref_axis',(-1.,0.,0.));
#503=DIRECTION('',(0.,-0.49848773975383,-0.866896748935603));
#504=DIRECTION('',(1.,0.,0.));
#505=DIRECTION('center_axis',(0.,0.865151420569705,0.501510737159457));
#506=DIRECTION('ref_axis',(1.,0.,0.));
#507=DIRECTION('',(0.,0.501510737159457,-0.865151420569705));
#508=DIRECTION('',(1.,0.,0.));
#509=DIRECTION('center_axis',(0.,-0.866896748935603,0.49848773975383));
#510=DIRECTION('ref_axis',(-1.,0.,0.));
#511=DIRECTION('',(1.,0.,0.));
#512=DIRECTION('',(0.,0.49848773975383,0.866896748935603));
#513=DIRECTION('center_axis',(0.,-0.00174532836589827,0.999998476913288));
#514=DIRECTION('ref_axis',(-1.,0.,0.));
#515=DIRECTION('',(0.,0.999998476913288,0.00174532836589827));
#516=DIRECTION('center_axis',(1.,0.,0.));
#517=DIRECTION('ref_axis',(0.,1.,0.));
#518=DIRECTION('center_axis',(-1.,0.,0.));
#519=DIRECTION('ref_axis',(0.,-2.44921270764475E-16,-1.));
#520=DIRECTION('center_axis',(1.,0.,0.));
#521=DIRECTION('ref_axis',(0.,1.,0.));
#522=DIRECTION('center_axis',(-1.,0.,0.));
#523=DIRECTION('ref_axis',(0.,-2.44921270764475E-16,-1.));
#524=DIRECTION('center_axis',(-1.,0.,0.));
#525=DIRECTION('ref_axis',(0.,-2.44921270764475E-16,-1.));
#526=DIRECTION('center_axis',(-1.,0.,0.));
#527=DIRECTION('ref_axis',(0.,-2.44921270764475E-16,-1.));
#528=DIRECTION('center_axis',(1.,0.,0.));
#529=DIRECTION('ref_axis',(0.,-2.44921270764475E-16,-1.));
#530=DIRECTION('center_axis',(-1.,0.,0.));
#531=DIRECTION('ref_axis',(0.,-2.44921270764475E-16,-1.));
#532=DIRECTION('center_axis',(-1.,0.,0.));
#533=DIRECTION('ref_axis',(0.,0.,1.));
#534=DIRECTION('center_axis',(-1.,0.,0.));
#535=DIRECTION('ref_axis',(0.,-2.44921270764475E-16,-1.));
#536=DIRECTION('center_axis',(-1.,0.,0.));
#537=DIRECTION('ref_axis',(0.,-2.44921270764475E-16,-1.));
#538=DIRECTION('center_axis',(-1.,0.,0.));
#539=DIRECTION('ref_axis',(0.,-2.44921270764475E-16,-1.));
#540=DIRECTION('center_axis',(1.,0.,0.));
#541=DIRECTION('ref_axis',(0.,-2.44921270764475E-16,-1.));
#542=DIRECTION('center_axis',(-1.,0.,0.));
#543=DIRECTION('ref_axis',(0.,-2.44921270764475E-16,-1.));
#544=DIRECTION('center_axis',(-1.,0.,0.));
#545=DIRECTION('ref_axis',(0.,0.,1.));
#546=DIRECTION('center_axis',(-1.,0.,0.));
#547=DIRECTION('ref_axis',(0.,-2.44921270764475E-16,-1.));
#548=DIRECTION('center_axis',(-1.,0.,0.));
#549=DIRECTION('ref_axis',(0.,-2.44921270764475E-16,-1.));
#550=DIRECTION('center_axis',(-1.,0.,0.));
#551=DIRECTION('ref_axis',(0.,-2.44921270764475E-16,-1.));
#552=CARTESIAN_POINT('',(0.,0.,0.));
#553=CARTESIAN_POINT('Origin',(2.15723547906108,0.,0.));
#554=CARTESIAN_POINT('',(1.8,1.51545036285519E-16,1.2375));
#555=CARTESIAN_POINT('',(2.51447095812216,0.,0.));
#556=CARTESIAN_POINT('',(2.15723547906108,7.57725181427596E-17,0.61875));
#557=CARTESIAN_POINT('',(1.8,-3.03090072571038E-16,-1.2375));
#558=CARTESIAN_POINT('',(2.15723547906108,-7.57725181427596E-17,-0.61875));
#559=CARTESIAN_POINT('Origin',(1.8,0.,0.));
#560=CARTESIAN_POINT('Origin',(0.139022228311384,0.,0.));
#561=CARTESIAN_POINT('',(0.265542552761432,-1.51809620747802E-16,-1.25000190386129));
#562=CARTESIAN_POINT('',(0.,-3.71189074216105E-16,-1.51554445662277));
#563=CARTESIAN_POINT('',(0.139022228311384,-1.68569786696786E-16,-1.37652222831138));
#564=CARTESIAN_POINT('',(0.0721687836487032,0.723868397751251,-1.24873851388927));
#565=CARTESIAN_POINT('Ctrl Pts',(0.265542552761469,9.13852327144582E-14,
-1.2500019038613));
#566=CARTESIAN_POINT('Ctrl Pts',(0.26612889456659,0.335948766751595,-1.24941556205615));
#567=CARTESIAN_POINT('Ctrl Pts',(0.0721687836486969,0.723868397751248,-1.24873851388927));
#568=CARTESIAN_POINT('',(0.0721687836487031,1.44337347458776,0.00251916450468892));
#569=CARTESIAN_POINT('Ctrl Pts',(0.0721687836486959,0.723868397751254,-1.24873851388927));
#570=CARTESIAN_POINT('Ctrl Pts',(0.433012701892222,1.0836209361695,-0.623109674692309));
#571=CARTESIAN_POINT('Ctrl Pts',(0.0721687836486971,1.44337347458776,0.00251916450468653));
#572=CARTESIAN_POINT('',(0.0721687836487032,0.719505076836505,1.25125767839395));
#573=CARTESIAN_POINT('Ctrl Pts',(0.0721687836487015,1.44337347458775,0.00251916450468646));
#574=CARTESIAN_POINT('Ctrl Pts',(0.43301270189223,1.08143927571214,0.626888421449299));
#575=CARTESIAN_POINT('Ctrl Pts',(0.0721687836487034,0.719505076836505,1.25125767839395));
#576=CARTESIAN_POINT('',(0.265542552761432,1.01628549374554E-16,1.25000190386129));
#577=CARTESIAN_POINT('Ctrl Pts',(0.0721687836486971,0.719505076836502,1.25125767839396));
#578=CARTESIAN_POINT('Ctrl Pts',(0.264959745296936,0.333923740814752,1.25058471132585));
#579=CARTESIAN_POINT('Ctrl Pts',(0.265542552761469,-9.06913433240675E-14,
1.2500019038613));
#580=CARTESIAN_POINT('',(0.,1.85594537108052E-16,1.51554445662277));
#581=CARTESIAN_POINT('',(0.139022228311384,1.68569786696786E-16,1.37652222831138));
#582=CARTESIAN_POINT('Origin',(0.,0.,0.));
#583=CARTESIAN_POINT('Origin',(0.149999999999999,0.,0.));
#584=CARTESIAN_POINT('',(0.299999999999999,-9.79685083057902E-16,-4.));
#585=CARTESIAN_POINT('',(0.,-9.79685083057902E-16,-4.));
#586=CARTESIAN_POINT('',(0.149999999999999,-4.89842541528951E-16,-4.));
#587=CARTESIAN_POINT('',(0.299999999999999,4.89842541528951E-16,4.));
#588=CARTESIAN_POINT('Origin',(0.299999999999999,0.,0.));
#589=CARTESIAN_POINT('',(0.,4.89842541528951E-16,4.));
#590=CARTESIAN_POINT('',(0.149999999999999,4.89842541528951E-16,4.));
#591=CARTESIAN_POINT('Origin',(0.,0.,0.));
#592=CARTESIAN_POINT('Origin',(1.27071067811865,0.,0.));
#593=CARTESIAN_POINT('',(2.24142135623731,-5.04189697398969E-16,-2.05857864376269));
#594=CARTESIAN_POINT('',(1.27071067811865,-3.70968695114218E-16,-3.02928932188135));
#595=CARTESIAN_POINT('',(2.24142135623731,-2.52094848699484E-16,2.05857864376269));
#596=CARTESIAN_POINT('Origin',(2.24142135623731,0.,0.));
#597=CARTESIAN_POINT('',(1.27071067811865,3.70968695114218E-16,3.02928932188135));
#598=CARTESIAN_POINT('Origin',(2.38284271247462,0.,0.));
#599=CARTESIAN_POINT('',(2.38284271247462,-4.89842541528951E-16,-2.));
#600=CARTESIAN_POINT('Origin',(2.38284271247462,2.69413397840923E-16,-2.2));
#601=CARTESIAN_POINT('',(2.38284271247462,2.44921270764475E-16,2.));
#602=CARTESIAN_POINT('Origin',(2.38284271247462,0.,0.));
#603=CARTESIAN_POINT('Origin',(2.38284271247462,-2.69413397840923E-16,2.2));
#604=CARTESIAN_POINT('Origin',(6.0395701749775,0.,0.));
#605=CARTESIAN_POINT('',(9.69629763748038,-4.89842541528951E-16,-2.));
#606=CARTESIAN_POINT('',(6.0395701749775,-2.44921270764475E-16,-2.));
#607=CARTESIAN_POINT('',(9.69629763748038,2.44921270764475E-16,2.));
#608=CARTESIAN_POINT('Origin',(9.69629763748038,0.,0.));
#609=CARTESIAN_POINT('',(6.0395701749775,2.44921270764475E-16,2.));
#610=CARTESIAN_POINT('Origin',(9.84814881874019,0.,0.));
#611=CARTESIAN_POINT('',(10.,-3.84648855735609E-16,-1.5705));
#612=CARTESIAN_POINT('',(9.84814881874019,-2.1862284931614E-16,-1.78525));
#613=CARTESIAN_POINT('',(10.,1.92324427867804E-16,1.5705));
#614=CARTESIAN_POINT('Origin',(10.,0.,0.));
#615=CARTESIAN_POINT('',(9.84814881874019,2.1862284931614E-16,1.78525));
#616=CARTESIAN_POINT('Origin',(0.,-0.719505076836505,-1.25125767839395));
#617=CARTESIAN_POINT('',(0.0721687836487031,-1.44337347458776,-0.00251916450468914));
#618=CARTESIAN_POINT('',(0.0721687836487032,-0.719505076836505,-1.25125767839395));
#619=CARTESIAN_POINT('Ctrl Pts',(0.0721687836487016,-1.44337347458775,-0.0025191645046866));
#620=CARTESIAN_POINT('Ctrl Pts',(0.43301270189223,-1.08143927571214,-0.626888421449299));
#621=CARTESIAN_POINT('Ctrl Pts',(0.0721687836487034,-0.719505076836505,
-1.25125767839395));
#622=CARTESIAN_POINT('',(1.8,-1.44337347458776,-0.00251916450468914));
#623=CARTESIAN_POINT('',(0.,-1.44337347458776,-0.00251916450468914));
#624=CARTESIAN_POINT('',(1.8,-0.719505076836505,-1.25125767839395));
#625=CARTESIAN_POINT('',(1.8,-1.44337347458776,-0.00251916450468914));
#626=CARTESIAN_POINT('',(0.,-0.719505076836505,-1.25125767839395));
#627=CARTESIAN_POINT('Origin',(0.,0.723868397751251,-1.24873851388927));
#628=CARTESIAN_POINT('Ctrl Pts',(0.0721687836486972,-0.719505076836502,
-1.25125767839396));
#629=CARTESIAN_POINT('Ctrl Pts',(0.264959745296936,-0.333923740814752,-1.25058471132585));
#630=CARTESIAN_POINT('Ctrl Pts',(0.265542552761469,9.1177065897341E-14,
-1.2500019038613));
#631=CARTESIAN_POINT('',(1.8,0.723868397751251,-1.24873851388927));
#632=CARTESIAN_POINT('',(1.8,-0.719505076836505,-1.25125767839395));
#633=CARTESIAN_POINT('',(0.,0.723868397751251,-1.24873851388927));
#634=CARTESIAN_POINT('Origin',(0.,1.44337347458776,0.00251916450468892));
#635=CARTESIAN_POINT('',(1.8,1.44337347458776,0.00251916450468892));
#636=CARTESIAN_POINT('',(1.8,0.723868397751251,-1.24873851388927));
#637=CARTESIAN_POINT('',(0.,1.44337347458776,0.00251916450468892));
#638=CARTESIAN_POINT('Origin',(0.,0.719505076836505,1.25125767839395));
#639=CARTESIAN_POINT('',(1.8,0.719505076836505,1.25125767839395));
#640=CARTESIAN_POINT('',(1.8,1.44337347458776,0.00251916450468892));
#641=CARTESIAN_POINT('',(0.,0.719505076836505,1.25125767839395));
#642=CARTESIAN_POINT('Origin',(0.,-1.44337347458776,-0.00251916450468914));
#643=CARTESIAN_POINT('',(0.0721687836487032,-0.723868397751251,1.24873851388927));
#644=CARTESIAN_POINT('Ctrl Pts',(0.0721687836486959,-0.723868397751254,
1.24873851388927));
#645=CARTESIAN_POINT('Ctrl Pts',(0.433012701892223,-1.0836209361695,0.623109674692309));
#646=CARTESIAN_POINT('Ctrl Pts',(0.0721687836486972,-1.44337347458776,-0.00251916450468674));
#647=CARTESIAN_POINT('',(1.8,-0.723868397751251,1.24873851388927));
#648=CARTESIAN_POINT('',(0.,-0.723868397751251,1.24873851388927));
#649=CARTESIAN_POINT('',(1.8,-0.723868397751251,1.24873851388927));
#650=CARTESIAN_POINT('Origin',(0.,-0.723868397751251,1.24873851388927));
#651=CARTESIAN_POINT('',(1.8,0.719505076836505,1.25125767839395));
#652=CARTESIAN_POINT('Ctrl Pts',(0.265542552761469,-9.08301212021456E-14,
1.2500019038613));
#653=CARTESIAN_POINT('Ctrl Pts',(0.26612889456659,-0.335948766751594,1.24941556205615));
#654=CARTESIAN_POINT('Ctrl Pts',(0.0721687836486969,-0.723868397751248,
1.24873851388927));
#655=CARTESIAN_POINT('Origin',(1.8,0.,0.));
#656=CARTESIAN_POINT('Origin',(1.8,0.,0.));
#657=CARTESIAN_POINT('Origin',(10.,-1.92324427867804E-16,-0.78525));
#658=CARTESIAN_POINT('Origin',(10.,0.,0.));
#659=CARTESIAN_POINT('Origin',(9.84814881874019,0.,0.));
#660=CARTESIAN_POINT('Origin',(9.69629763748038,0.,0.));
#661=CARTESIAN_POINT('Origin',(6.0395701749775,0.,0.));
#662=CARTESIAN_POINT('Origin',(2.38284271247462,0.,0.));
#663=CARTESIAN_POINT('Origin',(2.38284271247462,0.,0.));
#664=CARTESIAN_POINT('Origin',(2.24142135623731,0.,0.));
#665=CARTESIAN_POINT('Origin',(1.27071067811865,0.,0.));
#666=CARTESIAN_POINT('Origin',(0.299999999999999,0.,0.));
#667=CARTESIAN_POINT('Origin',(0.149999999999999,0.,0.));
#668=CARTESIAN_POINT('Origin',(0.,0.,0.));
#669=CARTESIAN_POINT('Origin',(0.,-6.75437078637003E-16,-2.75777222831138));
#670=CARTESIAN_POINT('Origin',(0.,0.,0.));
#671=CARTESIAN_POINT('Origin',(0.139022228311384,0.,0.));
#672=CARTESIAN_POINT('Origin',(2.15723547906108,0.,0.));
#673=UNCERTAINTY_MEASURE_WITH_UNIT(LENGTH_MEASURE(0.01),#677,
'DISTANCE_ACCURACY_VALUE',
'Maximum model space distance between geometric entities at asserted c
onnectivities');
#674=UNCERTAINTY_MEASURE_WITH_UNIT(LENGTH_MEASURE(0.01),#677,
'DISTANCE_ACCURACY_VALUE',
'Maximum model space distance between geometric entities at asserted c
onnectivities');
#675=(
GEOMETRIC_REPRESENTATION_CONTEXT(3)
GLOBAL_UNCERTAINTY_ASSIGNED_CONTEXT((#673))
GLOBAL_UNIT_ASSIGNED_CONTEXT((#677,#679,#680))
REPRESENTATION_CONTEXT('','3D')
);
#676=(
GEOMETRIC_REPRESENTATION_CONTEXT(3)
GLOBAL_UNCERTAINTY_ASSIGNED_CONTEXT((#674))
GLOBAL_UNIT_ASSIGNED_CONTEXT((#677,#679,#680))
REPRESENTATION_CONTEXT('','3D')
);
#677=(
LENGTH_UNIT()
NAMED_UNIT(*)
SI_UNIT(.MILLI.,.METRE.)
);
#678=(
LENGTH_UNIT()
NAMED_UNIT(*)
SI_UNIT($,.METRE.)
);
#679=(
NAMED_UNIT(*)
PLANE_ANGLE_UNIT()
SI_UNIT($,.RADIAN.)
);
#680=(
NAMED_UNIT(*)
SI_UNIT($,.STERADIAN.)
SOLID_ANGLE_UNIT()
);
#681=SHAPE_DEFINITION_REPRESENTATION(#682,#683);
#682=PRODUCT_DEFINITION_SHAPE('',$,#685);
#683=SHAPE_REPRESENTATION('',(#402),#675);
#684=PRODUCT_DEFINITION_CONTEXT('part definition',#689,'design');
#685=PRODUCT_DEFINITION('fhc4x10efa2','fhc4x10efa2 v1',#686,#684);
#686=PRODUCT_DEFINITION_FORMATION('',$,#691);
#687=PRODUCT_RELATED_PRODUCT_CATEGORY('fhc4x10efa2 v1','fhc4x10efa2 v1',
(#691));
#688=APPLICATION_PROTOCOL_DEFINITION('international standard',
'automotive_design',2009,#689);
#689=APPLICATION_CONTEXT(
'Core Data for Automotive Mechanical Design Process');
#690=PRODUCT_CONTEXT('part definition',#689,'mechanical');
#691=PRODUCT('fhc4x10efa2','fhc4x10efa2 v1',$,(#690));
#692=PRESENTATION_STYLE_ASSIGNMENT((#695));
#693=PRESENTATION_STYLE_ASSIGNMENT((#696));
#694=PRESENTATION_STYLE_ASSIGNMENT((#697));
#695=SURFACE_STYLE_USAGE(.BOTH.,#698);
#696=SURFACE_STYLE_USAGE(.BOTH.,#699);
#697=SURFACE_STYLE_USAGE(.BOTH.,#700);
#698=SURFACE_SIDE_STYLE('',(#701));
#699=SURFACE_SIDE_STYLE('',(#702));
#700=SURFACE_SIDE_STYLE('',(#703));
#701=SURFACE_STYLE_FILL_AREA(#704);
#702=SURFACE_STYLE_FILL_AREA(#705);
#703=SURFACE_STYLE_FILL_AREA(#706);
#704=FILL_AREA_STYLE('Default',(#707));
#705=FILL_AREA_STYLE('176,176,176',(#708));
#706=FILL_AREA_STYLE('207,207,207',(#709));
#707=FILL_AREA_STYLE_COLOUR('Default',#710);
#708=FILL_AREA_STYLE_COLOUR('176,176,176',#711);
#709=FILL_AREA_STYLE_COLOUR('207,207,207',#712);
#710=COLOUR_RGB('Default',0.749019607843137,0.749019607843137,0.749019607843137);
#711=COLOUR_RGB('176,176,176',0.690196078431373,0.690196078431373,0.690196078431373);
#712=COLOUR_RGB('207,207,207',0.811764705882353,0.811764705882353,0.811764705882353);
ENDSEC;
END-ISO-10303-21;
