ISO-10303-21;
HEADER;
/* Generated by software containing ST-Developer
 * from STEP Tools, Inc. (www.steptools.com) 
 */

FILE_DESCRIPTION(
/* description */ (''),
/* implementation_level */ '2;1');

FILE_NAME(
/* name */ 'Hositrad_CF16-PN-PlateNut v1.step',
/* time_stamp */ '2024-06-17T10:21:26+02:00',
/* author */ (''),
/* organization */ (''),
/* preprocessor_version */ 'ST-DEVELOPER v20',
/* originating_system */ 'Autodesk Translation Framework v13.14.0.145',

/* authorisation */ '');

FILE_SCHEMA (('AUTOMOTIVE_DESIGN { 1 0 10303 214 3 1 1 }'));
ENDSEC;

DATA;
#10=MECHANICAL_DESIGN_GEOMETRIC_PRESENTATION_REPRESENTATION('',(#13),#634);
#11=SHAPE_REPRESENTATION_RELATIONSHIP('SRR','None',#641,#12);
#12=ADVANCED_BREP_SHAPE_REPRESENTATION('',(#14),#633);
#13=STYLED_ITEM('',(#651),#14);
#14=MANIFOLD_SOLID_BREP('Body1',#340);
#15=FACE_BOUND('',#98,.T.);
#16=FACE_BOUND('',#99,.T.);
#17=FACE_BOUND('',#103,.T.);
#18=FACE_BOUND('',#104,.T.);
#19=FACE_BOUND('',#106,.T.);
#20=FACE_BOUND('',#108,.T.);
#21=PLANE('',#395);
#22=PLANE('',#398);
#23=PLANE('',#401);
#24=PLANE('',#402);
#25=PLANE('',#403);
#26=CYLINDRICAL_SURFACE('',#383,1.64999999999999);
#27=CYLINDRICAL_SURFACE('',#384,1.64999999999999);
#28=CYLINDRICAL_SURFACE('',#385,2.65);
#29=CYLINDRICAL_SURFACE('',#387,2.65);
#30=CYLINDRICAL_SURFACE('',#389,3.5);
#31=CYLINDRICAL_SURFACE('',#392,3.5);
#32=CYLINDRICAL_SURFACE('',#399,11.53828125);
#33=CYLINDRICAL_SURFACE('',#406,0.3);
#34=LINE('',#548,#47);
#35=LINE('',#554,#48);
#36=LINE('',#585,#49);
#37=LINE('',#587,#50);
#38=LINE('',#590,#51);
#39=LINE('',#594,#52);
#40=LINE('',#600,#53);
#41=LINE('',#603,#54);
#42=LINE('',#608,#55);
#43=LINE('',#611,#56);
#44=LINE('',#616,#57);
#45=LINE('',#619,#58);
#46=LINE('',#620,#59);
#47=VECTOR('',#425,1.64999999999999);
#48=VECTOR('',#432,1.64999999999999);
#49=VECTOR('',#473,1.64999999999999);
#50=VECTOR('',#476,1.64999999999999);
#51=VECTOR('',#479,2.65);
#52=VECTOR('',#484,2.65);
#53=VECTOR('',#491,1000.);
#54=VECTOR('',#494,1000.);
#55=VECTOR('',#499,1000.);
#56=VECTOR('',#502,1000.);
#57=VECTOR('',#507,1000.);
#58=VECTOR('',#512,1000.);
#59=VECTOR('',#513,1000.);
#60=CONICAL_SURFACE('',#359,1.64999999999999,0.785398163397452);
#61=CONICAL_SURFACE('',#362,1.64999999999999,0.78539816339745);
#62=FACE_OUTER_BOUND('',#84,.T.);
#63=FACE_OUTER_BOUND('',#85,.T.);
#64=FACE_OUTER_BOUND('',#86,.T.);
#65=FACE_OUTER_BOUND('',#87,.T.);
#66=FACE_OUTER_BOUND('',#88,.T.);
#67=FACE_OUTER_BOUND('',#89,.T.);
#68=FACE_OUTER_BOUND('',#90,.T.);
#69=FACE_OUTER_BOUND('',#91,.T.);
#70=FACE_OUTER_BOUND('',#92,.T.);
#71=FACE_OUTER_BOUND('',#93,.T.);
#72=FACE_OUTER_BOUND('',#94,.T.);
#73=FACE_OUTER_BOUND('',#95,.T.);
#74=FACE_OUTER_BOUND('',#96,.T.);
#75=FACE_OUTER_BOUND('',#97,.T.);
#76=FACE_OUTER_BOUND('',#100,.T.);
#77=FACE_OUTER_BOUND('',#101,.T.);
#78=FACE_OUTER_BOUND('',#102,.T.);
#79=FACE_OUTER_BOUND('',#105,.T.);
#80=FACE_OUTER_BOUND('',#107,.T.);
#81=FACE_OUTER_BOUND('',#109,.T.);
#82=FACE_OUTER_BOUND('',#110,.T.);
#83=FACE_OUTER_BOUND('',#111,.T.);
#84=EDGE_LOOP('',(#219,#220,#221,#222));
#85=EDGE_LOOP('',(#223,#224,#225,#226));
#86=EDGE_LOOP('',(#227,#228,#229,#230));
#87=EDGE_LOOP('',(#231,#232,#233,#234,#235));
#88=EDGE_LOOP('',(#236,#237,#238,#239,#240));
#89=EDGE_LOOP('',(#241,#242,#243,#244));
#90=EDGE_LOOP('',(#245,#246,#247,#248));
#91=EDGE_LOOP('',(#249,#250,#251,#252));
#92=EDGE_LOOP('',(#253,#254,#255,#256));
#93=EDGE_LOOP('',(#257,#258,#259,#260,#261));
#94=EDGE_LOOP('',(#262,#263,#264,#265,#266));
#95=EDGE_LOOP('',(#267,#268,#269,#270));
#96=EDGE_LOOP('',(#271,#272,#273,#274));
#97=EDGE_LOOP('',(#275,#276,#277,#278));
#98=EDGE_LOOP('',(#279));
#99=EDGE_LOOP('',(#280));
#100=EDGE_LOOP('',(#281,#282,#283,#284));
#101=EDGE_LOOP('',(#285,#286,#287,#288));
#102=EDGE_LOOP('',(#289,#290,#291,#292));
#103=EDGE_LOOP('',(#293));
#104=EDGE_LOOP('',(#294));
#105=EDGE_LOOP('',(#295));
#106=EDGE_LOOP('',(#296));
#107=EDGE_LOOP('',(#297));
#108=EDGE_LOOP('',(#298));
#109=EDGE_LOOP('',(#299,#300,#301,#302));
#110=EDGE_LOOP('',(#303,#304,#305,#306));
#111=EDGE_LOOP('',(#307,#308,#309,#310));
#112=CIRCLE('',#355,11.83828125);
#113=CIRCLE('',#356,0.3);
#114=CIRCLE('',#357,11.53828125);
#115=CIRCLE('',#358,0.3);
#116=CIRCLE('',#360,1.64999999999999);
#117=CIRCLE('',#361,2.04999999999999);
#118=CIRCLE('',#363,1.64999999999999);
#119=CIRCLE('',#364,2.04999999999999);
#120=CIRCLE('',#366,2.65);
#121=CIRCLE('',#367,2.65);
#122=CIRCLE('',#368,0.4);
#123=CIRCLE('',#369,3.05);
#124=CIRCLE('',#371,2.65);
#125=CIRCLE('',#372,2.65);
#126=CIRCLE('',#373,0.4);
#127=CIRCLE('',#374,3.05);
#128=CIRCLE('',#376,2.14999999999999);
#129=CIRCLE('',#377,0.5);
#130=CIRCLE('',#378,1.64999999999999);
#131=CIRCLE('',#380,2.14999999999999);
#132=CIRCLE('',#381,0.5);
#133=CIRCLE('',#382,1.64999999999999);
#134=CIRCLE('',#386,2.65);
#135=CIRCLE('',#388,2.65);
#136=CIRCLE('',#390,3.5);
#137=CIRCLE('',#391,3.5);
#138=CIRCLE('',#393,3.5);
#139=CIRCLE('',#394,3.5);
#140=CIRCLE('',#396,3.2);
#141=CIRCLE('',#397,3.2);
#142=CIRCLE('',#400,11.53828125);
#143=CIRCLE('',#405,0.3);
#144=CIRCLE('',#407,0.3);
#145=VERTEX_POINT('',#536);
#146=VERTEX_POINT('',#537);
#147=VERTEX_POINT('',#539);
#148=VERTEX_POINT('',#541);
#149=VERTEX_POINT('',#545);
#150=VERTEX_POINT('',#547);
#151=VERTEX_POINT('',#551);
#152=VERTEX_POINT('',#553);
#153=VERTEX_POINT('',#557);
#154=VERTEX_POINT('',#558);
#155=VERTEX_POINT('',#561);
#156=VERTEX_POINT('',#565);
#157=VERTEX_POINT('',#566);
#158=VERTEX_POINT('',#569);
#159=VERTEX_POINT('',#573);
#160=VERTEX_POINT('',#575);
#161=VERTEX_POINT('',#579);
#162=VERTEX_POINT('',#581);
#163=VERTEX_POINT('',#589);
#164=VERTEX_POINT('',#593);
#165=VERTEX_POINT('',#597);
#166=VERTEX_POINT('',#599);
#167=VERTEX_POINT('',#601);
#168=VERTEX_POINT('',#605);
#169=VERTEX_POINT('',#607);
#170=VERTEX_POINT('',#609);
#171=VERTEX_POINT('',#613);
#172=VERTEX_POINT('',#615);
#173=EDGE_CURVE('',#145,#146,#112,.T.);
#174=EDGE_CURVE('',#145,#147,#113,.T.);
#175=EDGE_CURVE('',#148,#147,#114,.T.);
#176=EDGE_CURVE('',#146,#148,#115,.T.);
#177=EDGE_CURVE('',#149,#149,#116,.T.);
#178=EDGE_CURVE('',#149,#150,#34,.T.);
#179=EDGE_CURVE('',#150,#150,#117,.T.);
#180=EDGE_CURVE('',#151,#151,#118,.T.);
#181=EDGE_CURVE('',#151,#152,#35,.T.);
#182=EDGE_CURVE('',#152,#152,#119,.T.);
#183=EDGE_CURVE('',#153,#154,#120,.T.);
#184=EDGE_CURVE('',#154,#153,#121,.T.);
#185=EDGE_CURVE('',#154,#155,#122,.T.);
#186=EDGE_CURVE('',#155,#155,#123,.T.);
#187=EDGE_CURVE('',#156,#157,#124,.T.);
#188=EDGE_CURVE('',#157,#156,#125,.T.);
#189=EDGE_CURVE('',#157,#158,#126,.T.);
#190=EDGE_CURVE('',#158,#158,#127,.T.);
#191=EDGE_CURVE('',#159,#159,#128,.T.);
#192=EDGE_CURVE('',#159,#160,#129,.T.);
#193=EDGE_CURVE('',#160,#160,#130,.T.);
#194=EDGE_CURVE('',#161,#161,#131,.T.);
#195=EDGE_CURVE('',#161,#162,#132,.T.);
#196=EDGE_CURVE('',#162,#162,#133,.T.);
#197=EDGE_CURVE('',#160,#149,#36,.T.);
#198=EDGE_CURVE('',#162,#151,#37,.T.);
#199=EDGE_CURVE('',#156,#163,#38,.T.);
#200=EDGE_CURVE('',#163,#163,#134,.T.);
#201=EDGE_CURVE('',#153,#164,#39,.T.);
#202=EDGE_CURVE('',#164,#164,#135,.T.);
#203=EDGE_CURVE('',#147,#165,#136,.T.);
#204=EDGE_CURVE('',#165,#166,#40,.T.);
#205=EDGE_CURVE('',#166,#167,#137,.T.);
#206=EDGE_CURVE('',#147,#167,#41,.T.);
#207=EDGE_CURVE('',#168,#148,#138,.T.);
#208=EDGE_CURVE('',#148,#169,#42,.T.);
#209=EDGE_CURVE('',#169,#170,#139,.T.);
#210=EDGE_CURVE('',#168,#170,#43,.T.);
#211=EDGE_CURVE('',#146,#171,#140,.T.);
#212=EDGE_CURVE('',#171,#172,#44,.T.);
#213=EDGE_CURVE('',#172,#145,#141,.T.);
#214=EDGE_CURVE('',#165,#168,#45,.T.);
#215=EDGE_CURVE('',#170,#166,#46,.T.);
#216=EDGE_CURVE('',#167,#169,#142,.T.);
#217=EDGE_CURVE('',#165,#172,#143,.T.);
#218=EDGE_CURVE('',#168,#171,#144,.T.);
#219=ORIENTED_EDGE('',*,*,#173,.F.);
#220=ORIENTED_EDGE('',*,*,#174,.T.);
#221=ORIENTED_EDGE('',*,*,#175,.F.);
#222=ORIENTED_EDGE('',*,*,#176,.F.);
#223=ORIENTED_EDGE('',*,*,#177,.F.);
#224=ORIENTED_EDGE('',*,*,#178,.T.);
#225=ORIENTED_EDGE('',*,*,#179,.F.);
#226=ORIENTED_EDGE('',*,*,#178,.F.);
#227=ORIENTED_EDGE('',*,*,#180,.F.);
#228=ORIENTED_EDGE('',*,*,#181,.T.);
#229=ORIENTED_EDGE('',*,*,#182,.F.);
#230=ORIENTED_EDGE('',*,*,#181,.F.);
#231=ORIENTED_EDGE('',*,*,#183,.F.);
#232=ORIENTED_EDGE('',*,*,#184,.F.);
#233=ORIENTED_EDGE('',*,*,#185,.T.);
#234=ORIENTED_EDGE('',*,*,#186,.F.);
#235=ORIENTED_EDGE('',*,*,#185,.F.);
#236=ORIENTED_EDGE('',*,*,#187,.F.);
#237=ORIENTED_EDGE('',*,*,#188,.F.);
#238=ORIENTED_EDGE('',*,*,#189,.T.);
#239=ORIENTED_EDGE('',*,*,#190,.F.);
#240=ORIENTED_EDGE('',*,*,#189,.F.);
#241=ORIENTED_EDGE('',*,*,#191,.F.);
#242=ORIENTED_EDGE('',*,*,#192,.T.);
#243=ORIENTED_EDGE('',*,*,#193,.F.);
#244=ORIENTED_EDGE('',*,*,#192,.F.);
#245=ORIENTED_EDGE('',*,*,#194,.F.);
#246=ORIENTED_EDGE('',*,*,#195,.T.);
#247=ORIENTED_EDGE('',*,*,#196,.F.);
#248=ORIENTED_EDGE('',*,*,#195,.F.);
#249=ORIENTED_EDGE('',*,*,#193,.T.);
#250=ORIENTED_EDGE('',*,*,#197,.T.);
#251=ORIENTED_EDGE('',*,*,#177,.T.);
#252=ORIENTED_EDGE('',*,*,#197,.F.);
#253=ORIENTED_EDGE('',*,*,#196,.T.);
#254=ORIENTED_EDGE('',*,*,#198,.T.);
#255=ORIENTED_EDGE('',*,*,#180,.T.);
#256=ORIENTED_EDGE('',*,*,#198,.F.);
#257=ORIENTED_EDGE('',*,*,#187,.T.);
#258=ORIENTED_EDGE('',*,*,#188,.T.);
#259=ORIENTED_EDGE('',*,*,#199,.T.);
#260=ORIENTED_EDGE('',*,*,#200,.F.);
#261=ORIENTED_EDGE('',*,*,#199,.F.);
#262=ORIENTED_EDGE('',*,*,#183,.T.);
#263=ORIENTED_EDGE('',*,*,#184,.T.);
#264=ORIENTED_EDGE('',*,*,#201,.T.);
#265=ORIENTED_EDGE('',*,*,#202,.F.);
#266=ORIENTED_EDGE('',*,*,#201,.F.);
#267=ORIENTED_EDGE('',*,*,#203,.T.);
#268=ORIENTED_EDGE('',*,*,#204,.T.);
#269=ORIENTED_EDGE('',*,*,#205,.T.);
#270=ORIENTED_EDGE('',*,*,#206,.F.);
#271=ORIENTED_EDGE('',*,*,#207,.T.);
#272=ORIENTED_EDGE('',*,*,#208,.T.);
#273=ORIENTED_EDGE('',*,*,#209,.T.);
#274=ORIENTED_EDGE('',*,*,#210,.F.);
#275=ORIENTED_EDGE('',*,*,#173,.T.);
#276=ORIENTED_EDGE('',*,*,#211,.T.);
#277=ORIENTED_EDGE('',*,*,#212,.T.);
#278=ORIENTED_EDGE('',*,*,#213,.T.);
#279=ORIENTED_EDGE('',*,*,#190,.T.);
#280=ORIENTED_EDGE('',*,*,#186,.T.);
#281=ORIENTED_EDGE('',*,*,#204,.F.);
#282=ORIENTED_EDGE('',*,*,#214,.T.);
#283=ORIENTED_EDGE('',*,*,#210,.T.);
#284=ORIENTED_EDGE('',*,*,#215,.T.);
#285=ORIENTED_EDGE('',*,*,#208,.F.);
#286=ORIENTED_EDGE('',*,*,#175,.T.);
#287=ORIENTED_EDGE('',*,*,#206,.T.);
#288=ORIENTED_EDGE('',*,*,#216,.T.);
#289=ORIENTED_EDGE('',*,*,#209,.F.);
#290=ORIENTED_EDGE('',*,*,#216,.F.);
#291=ORIENTED_EDGE('',*,*,#205,.F.);
#292=ORIENTED_EDGE('',*,*,#215,.F.);
#293=ORIENTED_EDGE('',*,*,#194,.T.);
#294=ORIENTED_EDGE('',*,*,#191,.T.);
#295=ORIENTED_EDGE('',*,*,#202,.T.);
#296=ORIENTED_EDGE('',*,*,#179,.T.);
#297=ORIENTED_EDGE('',*,*,#200,.T.);
#298=ORIENTED_EDGE('',*,*,#182,.T.);
#299=ORIENTED_EDGE('',*,*,#217,.F.);
#300=ORIENTED_EDGE('',*,*,#203,.F.);
#301=ORIENTED_EDGE('',*,*,#174,.F.);
#302=ORIENTED_EDGE('',*,*,#213,.F.);
#303=ORIENTED_EDGE('',*,*,#217,.T.);
#304=ORIENTED_EDGE('',*,*,#212,.F.);
#305=ORIENTED_EDGE('',*,*,#218,.F.);
#306=ORIENTED_EDGE('',*,*,#214,.F.);
#307=ORIENTED_EDGE('',*,*,#176,.T.);
#308=ORIENTED_EDGE('',*,*,#207,.F.);
#309=ORIENTED_EDGE('',*,*,#218,.T.);
#310=ORIENTED_EDGE('',*,*,#211,.F.);
#311=TOROIDAL_SURFACE('',#354,11.83828125,0.3);
#312=TOROIDAL_SURFACE('',#365,3.05,0.4);
#313=TOROIDAL_SURFACE('',#370,3.05,0.4);
#314=TOROIDAL_SURFACE('',#375,2.14999999999999,0.5);
#315=TOROIDAL_SURFACE('',#379,2.14999999999999,0.5);
#316=TOROIDAL_SURFACE('',#404,3.2,0.3);
#317=TOROIDAL_SURFACE('',#408,3.2,0.3);
#318=ADVANCED_FACE('',(#62),#311,.T.);
#319=ADVANCED_FACE('',(#63),#60,.F.);
#320=ADVANCED_FACE('',(#64),#61,.F.);
#321=ADVANCED_FACE('',(#65),#312,.F.);
#322=ADVANCED_FACE('',(#66),#313,.F.);
#323=ADVANCED_FACE('',(#67),#314,.T.);
#324=ADVANCED_FACE('',(#68),#315,.T.);
#325=ADVANCED_FACE('',(#69),#26,.F.);
#326=ADVANCED_FACE('',(#70),#27,.F.);
#327=ADVANCED_FACE('',(#71),#28,.T.);
#328=ADVANCED_FACE('',(#72),#29,.T.);
#329=ADVANCED_FACE('',(#73),#30,.T.);
#330=ADVANCED_FACE('',(#74),#31,.T.);
#331=ADVANCED_FACE('',(#75,#15,#16),#21,.T.);
#332=ADVANCED_FACE('',(#76),#22,.F.);
#333=ADVANCED_FACE('',(#77),#32,.F.);
#334=ADVANCED_FACE('',(#78,#17,#18),#23,.F.);
#335=ADVANCED_FACE('',(#79,#19),#24,.T.);
#336=ADVANCED_FACE('',(#80,#20),#25,.T.);
#337=ADVANCED_FACE('',(#81),#316,.T.);
#338=ADVANCED_FACE('',(#82),#33,.T.);
#339=ADVANCED_FACE('',(#83),#317,.T.);
#340=CLOSED_SHELL('',(#318,#319,#320,#321,#322,#323,#324,#325,#326,#327,
#328,#329,#330,#331,#332,#333,#334,#335,#336,#337,#338,#339));
#341=DERIVED_UNIT_ELEMENT(#343,1.);
#342=DERIVED_UNIT_ELEMENT(#636,-3.);
#343=(
MASS_UNIT()
NAMED_UNIT(*)
SI_UNIT(.KILO.,.GRAM.)
);
#344=DERIVED_UNIT((#341,#342));
#345=MEASURE_REPRESENTATION_ITEM('density measure',
POSITIVE_RATIO_MEASURE(7850.),#344);
#346=PROPERTY_DEFINITION_REPRESENTATION(#351,#348);
#347=PROPERTY_DEFINITION_REPRESENTATION(#352,#349);
#348=REPRESENTATION('material name',(#350),#633);
#349=REPRESENTATION('density',(#345),#633);
#350=DESCRIPTIVE_REPRESENTATION_ITEM('Steel','Steel');
#351=PROPERTY_DEFINITION('material property','material name',#643);
#352=PROPERTY_DEFINITION('material property','density of part',#643);
#353=AXIS2_PLACEMENT_3D('',#534,#409,#410);
#354=AXIS2_PLACEMENT_3D('',#535,#411,#412);
#355=AXIS2_PLACEMENT_3D('',#538,#413,#414);
#356=AXIS2_PLACEMENT_3D('',#540,#415,#416);
#357=AXIS2_PLACEMENT_3D('',#542,#417,#418);
#358=AXIS2_PLACEMENT_3D('',#543,#419,#420);
#359=AXIS2_PLACEMENT_3D('',#544,#421,#422);
#360=AXIS2_PLACEMENT_3D('',#546,#423,#424);
#361=AXIS2_PLACEMENT_3D('',#549,#426,#427);
#362=AXIS2_PLACEMENT_3D('',#550,#428,#429);
#363=AXIS2_PLACEMENT_3D('',#552,#430,#431);
#364=AXIS2_PLACEMENT_3D('',#555,#433,#434);
#365=AXIS2_PLACEMENT_3D('',#556,#435,#436);
#366=AXIS2_PLACEMENT_3D('',#559,#437,#438);
#367=AXIS2_PLACEMENT_3D('',#560,#439,#440);
#368=AXIS2_PLACEMENT_3D('',#562,#441,#442);
#369=AXIS2_PLACEMENT_3D('',#563,#443,#444);
#370=AXIS2_PLACEMENT_3D('',#564,#445,#446);
#371=AXIS2_PLACEMENT_3D('',#567,#447,#448);
#372=AXIS2_PLACEMENT_3D('',#568,#449,#450);
#373=AXIS2_PLACEMENT_3D('',#570,#451,#452);
#374=AXIS2_PLACEMENT_3D('',#571,#453,#454);
#375=AXIS2_PLACEMENT_3D('',#572,#455,#456);
#376=AXIS2_PLACEMENT_3D('',#574,#457,#458);
#377=AXIS2_PLACEMENT_3D('',#576,#459,#460);
#378=AXIS2_PLACEMENT_3D('',#577,#461,#462);
#379=AXIS2_PLACEMENT_3D('',#578,#463,#464);
#380=AXIS2_PLACEMENT_3D('',#580,#465,#466);
#381=AXIS2_PLACEMENT_3D('',#582,#467,#468);
#382=AXIS2_PLACEMENT_3D('',#583,#469,#470);
#383=AXIS2_PLACEMENT_3D('',#584,#471,#472);
#384=AXIS2_PLACEMENT_3D('',#586,#474,#475);
#385=AXIS2_PLACEMENT_3D('',#588,#477,#478);
#386=AXIS2_PLACEMENT_3D('',#591,#480,#481);
#387=AXIS2_PLACEMENT_3D('',#592,#482,#483);
#388=AXIS2_PLACEMENT_3D('',#595,#485,#486);
#389=AXIS2_PLACEMENT_3D('',#596,#487,#488);
#390=AXIS2_PLACEMENT_3D('',#598,#489,#490);
#391=AXIS2_PLACEMENT_3D('',#602,#492,#493);
#392=AXIS2_PLACEMENT_3D('',#604,#495,#496);
#393=AXIS2_PLACEMENT_3D('',#606,#497,#498);
#394=AXIS2_PLACEMENT_3D('',#610,#500,#501);
#395=AXIS2_PLACEMENT_3D('',#612,#503,#504);
#396=AXIS2_PLACEMENT_3D('',#614,#505,#506);
#397=AXIS2_PLACEMENT_3D('',#617,#508,#509);
#398=AXIS2_PLACEMENT_3D('',#618,#510,#511);
#399=AXIS2_PLACEMENT_3D('',#621,#514,#515);
#400=AXIS2_PLACEMENT_3D('',#622,#516,#517);
#401=AXIS2_PLACEMENT_3D('',#623,#518,#519);
#402=AXIS2_PLACEMENT_3D('',#624,#520,#521);
#403=AXIS2_PLACEMENT_3D('',#625,#522,#523);
#404=AXIS2_PLACEMENT_3D('',#626,#524,#525);
#405=AXIS2_PLACEMENT_3D('',#627,#526,#527);
#406=AXIS2_PLACEMENT_3D('',#628,#528,#529);
#407=AXIS2_PLACEMENT_3D('',#629,#530,#531);
#408=AXIS2_PLACEMENT_3D('',#630,#532,#533);
#409=DIRECTION('axis',(0.,0.,1.));
#410=DIRECTION('refdir',(1.,0.,0.));
#411=DIRECTION('center_axis',(0.,1.,0.));
#412=DIRECTION('ref_axis',(0.,0.,1.));
#413=DIRECTION('center_axis',(0.,-1.,0.));
#414=DIRECTION('ref_axis',(0.,0.,1.));
#415=DIRECTION('center_axis',(-0.893604862590264,0.,0.448854485947323));
#416=DIRECTION('ref_axis',(0.448854485947323,0.,0.893604862590264));
#417=DIRECTION('center_axis',(0.,1.,0.));
#418=DIRECTION('ref_axis',(0.,0.,1.));
#419=DIRECTION('center_axis',(-0.893604862590266,0.,-0.44885448594732));
#420=DIRECTION('ref_axis',(-0.44885448594732,0.,0.893604862590266));
#421=DIRECTION('center_axis',(0.,1.,0.));
#422=DIRECTION('ref_axis',(0.,0.,1.));
#423=DIRECTION('center_axis',(0.,1.,0.));
#424=DIRECTION('ref_axis',(0.,0.,1.));
#425=DIRECTION('',(-8.65956056235496E-17,0.707106781186545,-0.70710678118655));
#426=DIRECTION('center_axis',(0.,-1.,0.));
#427=DIRECTION('ref_axis',(0.,0.,1.));
#428=DIRECTION('center_axis',(0.,1.,0.));
#429=DIRECTION('ref_axis',(0.,0.,1.));
#430=DIRECTION('center_axis',(0.,1.,0.));
#431=DIRECTION('ref_axis',(0.,0.,1.));
#432=DIRECTION('',(-8.65956056235495E-17,0.707106781186546,-0.707106781186549));
#433=DIRECTION('center_axis',(0.,-1.,0.));
#434=DIRECTION('ref_axis',(0.,0.,1.));
#435=DIRECTION('center_axis',(0.,1.,0.));
#436=DIRECTION('ref_axis',(0.,0.,1.));
#437=DIRECTION('center_axis',(0.,1.,0.));
#438=DIRECTION('ref_axis',(0.,0.,1.));
#439=DIRECTION('center_axis',(0.,1.,0.));
#440=DIRECTION('ref_axis',(0.,0.,1.));
#441=DIRECTION('center_axis',(1.,0.,0.));
#442=DIRECTION('ref_axis',(0.,0.,-1.));
#443=DIRECTION('center_axis',(0.,-1.,0.));
#444=DIRECTION('ref_axis',(0.,0.,1.));
#445=DIRECTION('center_axis',(0.,1.,0.));
#446=DIRECTION('ref_axis',(0.,0.,1.));
#447=DIRECTION('center_axis',(0.,1.,0.));
#448=DIRECTION('ref_axis',(0.,0.,1.));
#449=DIRECTION('center_axis',(0.,1.,0.));
#450=DIRECTION('ref_axis',(0.,0.,1.));
#451=DIRECTION('center_axis',(1.,0.,0.));
#452=DIRECTION('ref_axis',(0.,0.,-1.));
#453=DIRECTION('center_axis',(0.,-1.,0.));
#454=DIRECTION('ref_axis',(0.,0.,1.));
#455=DIRECTION('center_axis',(0.,1.,0.));
#456=DIRECTION('ref_axis',(0.,0.,1.));
#457=DIRECTION('center_axis',(0.,1.,0.));
#458=DIRECTION('ref_axis',(0.,0.,1.));
#459=DIRECTION('center_axis',(-1.,0.,0.));
#460=DIRECTION('ref_axis',(0.,0.,-1.));
#461=DIRECTION('center_axis',(0.,-1.,0.));
#462=DIRECTION('ref_axis',(0.,0.,1.));
#463=DIRECTION('center_axis',(0.,1.,0.));
#464=DIRECTION('ref_axis',(0.,0.,1.));
#465=DIRECTION('center_axis',(0.,1.,0.));
#466=DIRECTION('ref_axis',(0.,0.,1.));
#467=DIRECTION('center_axis',(-1.,0.,0.));
#468=DIRECTION('ref_axis',(0.,0.,-1.));
#469=DIRECTION('center_axis',(0.,-1.,0.));
#470=DIRECTION('ref_axis',(0.,0.,1.));
#471=DIRECTION('center_axis',(0.,1.,0.));
#472=DIRECTION('ref_axis',(0.,0.,1.));
#473=DIRECTION('',(0.,1.,0.));
#474=DIRECTION('center_axis',(0.,1.,0.));
#475=DIRECTION('ref_axis',(0.,0.,1.));
#476=DIRECTION('',(0.,1.,0.));
#477=DIRECTION('center_axis',(0.,-1.,0.));
#478=DIRECTION('ref_axis',(0.,0.,-1.));
#479=DIRECTION('',(0.,1.,0.));
#480=DIRECTION('center_axis',(0.,1.,0.));
#481=DIRECTION('ref_axis',(0.,0.,1.));
#482=DIRECTION('center_axis',(0.,-1.,0.));
#483=DIRECTION('ref_axis',(0.,0.,-1.));
#484=DIRECTION('',(0.,1.,0.));
#485=DIRECTION('center_axis',(0.,1.,0.));
#486=DIRECTION('ref_axis',(0.,0.,1.));
#487=DIRECTION('center_axis',(0.,-1.,0.));
#488=DIRECTION('ref_axis',(0.,0.,-1.));
#489=DIRECTION('center_axis',(0.,-1.,0.));
#490=DIRECTION('ref_axis',(0.,0.,1.));
#491=DIRECTION('',(0.,-1.,0.));
#492=DIRECTION('center_axis',(0.,1.,0.));
#493=DIRECTION('ref_axis',(0.,0.,1.));
#494=DIRECTION('',(0.,-1.,0.));
#495=DIRECTION('center_axis',(0.,-1.,0.));
#496=DIRECTION('ref_axis',(0.,0.,-1.));
#497=DIRECTION('center_axis',(0.,-1.,0.));
#498=DIRECTION('ref_axis',(0.,0.,1.));
#499=DIRECTION('',(0.,-1.,0.));
#500=DIRECTION('center_axis',(0.,1.,0.));
#501=DIRECTION('ref_axis',(0.,0.,1.));
#502=DIRECTION('',(0.,-1.,0.));
#503=DIRECTION('center_axis',(0.,1.,0.));
#504=DIRECTION('ref_axis',(0.,0.,1.));
#505=DIRECTION('center_axis',(0.,1.,0.));
#506=DIRECTION('ref_axis',(0.,0.,1.));
#507=DIRECTION('',(1.,0.,3.21245088143853E-17));
#508=DIRECTION('center_axis',(0.,1.,0.));
#509=DIRECTION('ref_axis',(0.,0.,1.));
#510=DIRECTION('center_axis',(3.21245088143853E-17,0.,-1.));
#511=DIRECTION('ref_axis',(-1.,0.,-3.21245088143853E-17));
#512=DIRECTION('',(-1.,0.,-3.21245088143853E-17));
#513=DIRECTION('',(1.,0.,3.21245088143853E-17));
#514=DIRECTION('center_axis',(0.,-1.,0.));
#515=DIRECTION('ref_axis',(-1.22464679914735E-16,0.,1.));
#516=DIRECTION('center_axis',(0.,-1.,0.));
#517=DIRECTION('ref_axis',(0.,0.,1.));
#518=DIRECTION('center_axis',(0.,1.,0.));
#519=DIRECTION('ref_axis',(0.,0.,1.));
#520=DIRECTION('center_axis',(0.,1.,0.));
#521=DIRECTION('ref_axis',(0.,0.,1.));
#522=DIRECTION('center_axis',(0.,1.,0.));
#523=DIRECTION('ref_axis',(0.,0.,1.));
#524=DIRECTION('center_axis',(0.,1.,0.));
#525=DIRECTION('ref_axis',(0.973037733746812,0.,-0.230645981332577));
#526=DIRECTION('center_axis',(-1.,0.,0.));
#527=DIRECTION('ref_axis',(0.,0.,1.));
#528=DIRECTION('center_axis',(-1.,0.,-3.21245088143853E-17));
#529=DIRECTION('ref_axis',(-3.21245088143853E-17,0.,1.));
#530=DIRECTION('center_axis',(-1.,0.,0.));
#531=DIRECTION('ref_axis',(0.,0.,1.));
#532=DIRECTION('center_axis',(0.,1.,0.));
#533=DIRECTION('ref_axis',(-0.973037733746812,0.,-0.230645981332577));
#534=CARTESIAN_POINT('',(0.,0.,0.));
#535=CARTESIAN_POINT('Origin',(0.,1.7,-13.43828125));
#536=CARTESIAN_POINT('',(5.31366564496857,2.,-2.85953556028885));
#537=CARTESIAN_POINT('',(-5.31366564496857,2.,-2.85953556028885));
#538=CARTESIAN_POINT('Origin',(0.,2.,-13.43828125));
#539=CARTESIAN_POINT('',(5.17900929918437,1.7,-3.12761701906593));
#540=CARTESIAN_POINT('Origin',(5.31366564496857,1.7,-2.85953556028885));
#541=CARTESIAN_POINT('',(-5.17900929918438,1.7,-3.12761701906593));
#542=CARTESIAN_POINT('Origin',(0.,1.7,-13.43828125));
#543=CARTESIAN_POINT('Origin',(-5.31366564496857,1.7,-2.85953556028885));
#544=CARTESIAN_POINT('Origin',(-6.75,2.9,0.));
#545=CARTESIAN_POINT('',(-6.75,2.9,-1.64999999999999));
#546=CARTESIAN_POINT('Origin',(-6.75,2.9,0.));
#547=CARTESIAN_POINT('',(-6.75,3.3,-2.04999999999999));
#548=CARTESIAN_POINT('',(-6.75,2.9,-1.64999999999999));
#549=CARTESIAN_POINT('Origin',(-6.75,3.3,0.));
#550=CARTESIAN_POINT('Origin',(6.75,2.9,0.));
#551=CARTESIAN_POINT('',(6.75,2.9,-1.64999999999999));
#552=CARTESIAN_POINT('Origin',(6.75,2.9,0.));
#553=CARTESIAN_POINT('',(6.75,3.3,-2.04999999999999));
#554=CARTESIAN_POINT('',(6.75,2.9,-1.64999999999999));
#555=CARTESIAN_POINT('Origin',(6.75,3.3,0.));
#556=CARTESIAN_POINT('Origin',(-6.75,2.4,0.));
#557=CARTESIAN_POINT('',(-6.75,2.4,2.65));
#558=CARTESIAN_POINT('',(-6.75,2.4,-2.65));
#559=CARTESIAN_POINT('Origin',(-6.75,2.4,0.));
#560=CARTESIAN_POINT('Origin',(-6.75,2.4,0.));
#561=CARTESIAN_POINT('',(-6.75,2.,-3.05));
#562=CARTESIAN_POINT('Origin',(-6.75,2.4,-3.05));
#563=CARTESIAN_POINT('Origin',(-6.75,2.,0.));
#564=CARTESIAN_POINT('Origin',(6.75,2.4,0.));
#565=CARTESIAN_POINT('',(6.75,2.4,2.65));
#566=CARTESIAN_POINT('',(6.75,2.4,-2.65));
#567=CARTESIAN_POINT('Origin',(6.75,2.4,0.));
#568=CARTESIAN_POINT('Origin',(6.75,2.4,0.));
#569=CARTESIAN_POINT('',(6.75,2.,-3.05));
#570=CARTESIAN_POINT('Origin',(6.75,2.4,-3.05));
#571=CARTESIAN_POINT('Origin',(6.75,2.,0.));
#572=CARTESIAN_POINT('Origin',(-6.75,0.5,0.));
#573=CARTESIAN_POINT('',(-6.75,0.,-2.14999999999999));
#574=CARTESIAN_POINT('Origin',(-6.75,0.,0.));
#575=CARTESIAN_POINT('',(-6.75,0.5,-1.64999999999999));
#576=CARTESIAN_POINT('Origin',(-6.75,0.5,-2.14999999999999));
#577=CARTESIAN_POINT('Origin',(-6.75,0.5,0.));
#578=CARTESIAN_POINT('Origin',(6.75,0.5,0.));
#579=CARTESIAN_POINT('',(6.75,0.,-2.14999999999999));
#580=CARTESIAN_POINT('Origin',(6.75,0.,0.));
#581=CARTESIAN_POINT('',(6.75,0.5,-1.64999999999999));
#582=CARTESIAN_POINT('Origin',(6.75,0.5,-2.14999999999999));
#583=CARTESIAN_POINT('Origin',(6.75,0.5,0.));
#584=CARTESIAN_POINT('Origin',(-6.75,3.3,0.));
#585=CARTESIAN_POINT('',(-6.75,3.3,-1.64999999999999));
#586=CARTESIAN_POINT('Origin',(6.75,3.3,0.));
#587=CARTESIAN_POINT('',(6.75,3.3,-1.64999999999999));
#588=CARTESIAN_POINT('Origin',(6.75,3.3,0.));
#589=CARTESIAN_POINT('',(6.75,3.3,2.65));
#590=CARTESIAN_POINT('',(6.75,3.3,2.65));
#591=CARTESIAN_POINT('Origin',(6.75,3.3,0.));
#592=CARTESIAN_POINT('Origin',(-6.75,3.3,0.));
#593=CARTESIAN_POINT('',(-6.75,3.3,2.65));
#594=CARTESIAN_POINT('',(-6.75,3.3,2.65));
#595=CARTESIAN_POINT('Origin',(-6.75,3.3,0.));
#596=CARTESIAN_POINT('Origin',(6.75,2.,0.));
#597=CARTESIAN_POINT('',(6.75,1.7,3.5));
#598=CARTESIAN_POINT('Origin',(6.75,1.7,0.));
#599=CARTESIAN_POINT('',(6.75,0.,3.5));
#600=CARTESIAN_POINT('',(6.75,2.,3.5));
#601=CARTESIAN_POINT('',(5.17900929918437,0.,-3.12761701906593));
#602=CARTESIAN_POINT('Origin',(6.75,0.,0.));
#603=CARTESIAN_POINT('',(5.17900929918437,2.,-3.12761701906593));
#604=CARTESIAN_POINT('Origin',(-6.75,2.,0.));
#605=CARTESIAN_POINT('',(-6.75,1.7,3.5));
#606=CARTESIAN_POINT('Origin',(-6.75,1.7,0.));
#607=CARTESIAN_POINT('',(-5.17900929918438,0.,-3.12761701906593));
#608=CARTESIAN_POINT('',(-5.17900929918438,2.,-3.12761701906593));
#609=CARTESIAN_POINT('',(-6.75,0.,3.5));
#610=CARTESIAN_POINT('Origin',(-6.75,0.,0.));
#611=CARTESIAN_POINT('',(-6.75,2.,3.5));
#612=CARTESIAN_POINT('Origin',(-6.75,2.,0.));
#613=CARTESIAN_POINT('',(-6.75,2.,3.2));
#614=CARTESIAN_POINT('Origin',(-6.75,2.,0.));
#615=CARTESIAN_POINT('',(6.75,2.,3.2));
#616=CARTESIAN_POINT('',(6.75,2.,3.2));
#617=CARTESIAN_POINT('Origin',(6.75,2.,0.));
#618=CARTESIAN_POINT('Origin',(-6.75,2.,3.5));
#619=CARTESIAN_POINT('',(-6.75,1.7,3.5));
#620=CARTESIAN_POINT('',(-6.75,0.,3.5));
#621=CARTESIAN_POINT('Origin',(0.,2.,-13.43828125));
#622=CARTESIAN_POINT('Origin',(0.,0.,-13.43828125));
#623=CARTESIAN_POINT('Origin',(-6.75,0.,0.));
#624=CARTESIAN_POINT('Origin',(-6.75,3.3,0.));
#625=CARTESIAN_POINT('Origin',(6.75,3.3,0.));
#626=CARTESIAN_POINT('Origin',(6.75,1.7,0.));
#627=CARTESIAN_POINT('Origin',(6.75,1.7,3.2));
#628=CARTESIAN_POINT('Origin',(-6.75,1.7,3.2));
#629=CARTESIAN_POINT('Origin',(-6.75,1.7,3.2));
#630=CARTESIAN_POINT('Origin',(-6.75,1.7,0.));
#631=UNCERTAINTY_MEASURE_WITH_UNIT(LENGTH_MEASURE(0.01),#635,
'DISTANCE_ACCURACY_VALUE',
'Maximum model space distance between geometric entities at asserted c
onnectivities');
#632=UNCERTAINTY_MEASURE_WITH_UNIT(LENGTH_MEASURE(0.01),#635,
'DISTANCE_ACCURACY_VALUE',
'Maximum model space distance between geometric entities at asserted c
onnectivities');
#633=(
GEOMETRIC_REPRESENTATION_CONTEXT(3)
GLOBAL_UNCERTAINTY_ASSIGNED_CONTEXT((#631))
GLOBAL_UNIT_ASSIGNED_CONTEXT((#635,#637,#638))
REPRESENTATION_CONTEXT('','3D')
);
#634=(
GEOMETRIC_REPRESENTATION_CONTEXT(3)
GLOBAL_UNCERTAINTY_ASSIGNED_CONTEXT((#632))
GLOBAL_UNIT_ASSIGNED_CONTEXT((#635,#637,#638))
REPRESENTATION_CONTEXT('','3D')
);
#635=(
LENGTH_UNIT()
NAMED_UNIT(*)
SI_UNIT(.MILLI.,.METRE.)
);
#636=(
LENGTH_UNIT()
NAMED_UNIT(*)
SI_UNIT($,.METRE.)
);
#637=(
NAMED_UNIT(*)
PLANE_ANGLE_UNIT()
SI_UNIT($,.RADIAN.)
);
#638=(
NAMED_UNIT(*)
SI_UNIT($,.STERADIAN.)
SOLID_ANGLE_UNIT()
);
#639=SHAPE_DEFINITION_REPRESENTATION(#640,#641);
#640=PRODUCT_DEFINITION_SHAPE('',$,#643);
#641=SHAPE_REPRESENTATION('',(#353),#633);
#642=PRODUCT_DEFINITION_CONTEXT('part definition',#647,'design');
#643=PRODUCT_DEFINITION('Hositrad_CF16-PN-PlateNut',
'Hositrad_CF16-PN-PlateNut v1',#644,#642);
#644=PRODUCT_DEFINITION_FORMATION('',$,#649);
#645=PRODUCT_RELATED_PRODUCT_CATEGORY('Hositrad_CF16-PN-PlateNut v1',
'Hositrad_CF16-PN-PlateNut v1',(#649));
#646=APPLICATION_PROTOCOL_DEFINITION('international standard',
'automotive_design',2009,#647);
#647=APPLICATION_CONTEXT(
'Core Data for Automotive Mechanical Design Process');
#648=PRODUCT_CONTEXT('part definition',#647,'mechanical');
#649=PRODUCT('Hositrad_CF16-PN-PlateNut','Hositrad_CF16-PN-PlateNut v1',
$,(#648));
#650=PRESENTATION_STYLE_ASSIGNMENT((#652));
#651=PRESENTATION_STYLE_ASSIGNMENT((#653));
#652=SURFACE_STYLE_USAGE(.BOTH.,#654);
#653=SURFACE_STYLE_USAGE(.BOTH.,#655);
#654=SURFACE_SIDE_STYLE('',(#656));
#655=SURFACE_SIDE_STYLE('',(#657));
#656=SURFACE_STYLE_FILL_AREA(#658);
#657=SURFACE_STYLE_FILL_AREA(#659);
#658=FILL_AREA_STYLE('Steel - Satin',(#660));
#659=FILL_AREA_STYLE('Opaque(165,158,150)',(#661));
#660=FILL_AREA_STYLE_COLOUR('Steel - Satin',#662);
#661=FILL_AREA_STYLE_COLOUR('Opaque(165,158,150)',#663);
#662=COLOUR_RGB('Steel - Satin',0.627450980392157,0.627450980392157,0.627450980392157);
#663=COLOUR_RGB('Opaque(165,158,150)',0.647058823529412,0.619607843137255,
0.588235294117647);
ENDSEC;
END-ISO-10303-21;
