ISO-10303-21;
HEADER;
/* Generated by software containing ST-Developer
 * from STEP Tools, Inc. (www.steptools.com) 
 */

FILE_DESCRIPTION(
/* description */ (''),
/* implementation_level */ '2;1');

FILE_NAME(
/* name */ 'mutter_din934_m3-10 v1.step',
/* time_stamp */ '2024-06-17T10:28:25+02:00',
/* author */ (''),
/* organization */ (''),
/* preprocessor_version */ 'ST-DEVELOPER v20',
/* originating_system */ 'Autodesk Translation Framework v13.14.0.145',

/* authorisation */ '');

FILE_SCHEMA (('AUTOMOTIVE_DESIGN { 1 0 10303 214 3 1 1 }'));
ENDSEC;

DATA;
#10=MECHANICAL_DESIGN_GEOMETRIC_PRESENTATION_REPRESENTATION('',(#13),#388);
#11=SHAPE_REPRESENTATION_RELATIONSHIP('SRR','None',#395,#12);
#12=ADVANCED_BREP_SHAPE_REPRESENTATION('',(#14),#387);
#13=STYLED_ITEM('',(#404),#14);
#14=MANIFOLD_SOLID_BREP('Body1',#216);
#15=FACE_BOUND('',#49,.T.);
#16=FACE_BOUND('',#51,.T.);
#17=PLANE('',#241);
#18=PLANE('',#242);
#19=PLANE('',#243);
#20=PLANE('',#244);
#21=PLANE('',#245);
#22=PLANE('',#246);
#23=PLANE('',#247);
#24=PLANE('',#248);
#25=CYLINDRICAL_SURFACE('',#237,1.229375);
#26=FACE_OUTER_BOUND('',#39,.T.);
#27=FACE_OUTER_BOUND('',#40,.T.);
#28=FACE_OUTER_BOUND('',#41,.T.);
#29=FACE_OUTER_BOUND('',#42,.T.);
#30=FACE_OUTER_BOUND('',#43,.T.);
#31=FACE_OUTER_BOUND('',#44,.T.);
#32=FACE_OUTER_BOUND('',#45,.T.);
#33=FACE_OUTER_BOUND('',#46,.T.);
#34=FACE_OUTER_BOUND('',#47,.T.);
#35=FACE_OUTER_BOUND('',#48,.T.);
#36=FACE_OUTER_BOUND('',#50,.T.);
#37=FACE_OUTER_BOUND('',#52,.T.);
#38=FACE_OUTER_BOUND('',#53,.T.);
#39=EDGE_LOOP('',(#141,#142,#143,#144,#145,#146,#147,#148,#149));
#40=EDGE_LOOP('',(#150,#151,#152,#153,#154,#155,#156,#157,#158));
#41=EDGE_LOOP('',(#159,#160,#161,#162));
#42=EDGE_LOOP('',(#163,#164,#165,#166));
#43=EDGE_LOOP('',(#167,#168,#169,#170));
#44=EDGE_LOOP('',(#171,#172,#173,#174));
#45=EDGE_LOOP('',(#175,#176,#177,#178));
#46=EDGE_LOOP('',(#179,#180,#181,#182));
#47=EDGE_LOOP('',(#183,#184,#185,#186));
#48=EDGE_LOOP('',(#187));
#49=EDGE_LOOP('',(#188));
#50=EDGE_LOOP('',(#189));
#51=EDGE_LOOP('',(#190));
#52=EDGE_LOOP('',(#191,#192,#193,#194));
#53=EDGE_LOOP('',(#195,#196,#197,#198));
#54=CIRCLE('',#231,2.63540605016372);
#55=CIRCLE('',#233,2.63540605016372);
#56=CIRCLE('',#235,1.5);
#57=CIRCLE('',#236,1.229375);
#58=CIRCLE('',#238,1.229375);
#59=CIRCLE('',#240,1.5);
#60=LINE('',#316,#71);
#61=LINE('',#333,#72);
#62=LINE('',#361,#73);
#63=LINE('',#365,#74);
#64=LINE('',#369,#75);
#65=LINE('',#372,#76);
#66=LINE('',#373,#77);
#67=LINE('',#375,#78);
#68=LINE('',#377,#79);
#69=LINE('',#379,#80);
#70=LINE('',#383,#81);
#71=VECTOR('',#253,2.90541552508186);
#72=VECTOR('',#260,2.90541552508186);
#73=VECTOR('',#265,1.3646875);
#74=VECTOR('',#270,1.229375);
#75=VECTOR('',#275,1.3646875);
#76=VECTOR('',#280,1.);
#77=VECTOR('',#281,1.);
#78=VECTOR('',#284,1.);
#79=VECTOR('',#287,1.);
#80=VECTOR('',#290,1.);
#81=VECTOR('',#297,1.);
#82=(
BOUNDED_CURVE()
B_SPLINE_CURVE(2,(#304,#305,#306),.UNSPECIFIED.,.F.,.F.)
B_SPLINE_CURVE_WITH_KNOTS((3,3),(0.,3.19397863318703),.UNSPECIFIED.)
CURVE()
GEOMETRIC_REPRESENTATION_ITEM()
RATIONAL_B_SPLINE_CURVE((1.,1.15470053837925,1.))
REPRESENTATION_ITEM('')
);
#83=(
BOUNDED_CURVE()
B_SPLINE_CURVE(2,(#308,#309,#310),.UNSPECIFIED.,.F.,.F.)
B_SPLINE_CURVE_WITH_KNOTS((3,3),(0.,3.19397863318703),.UNSPECIFIED.)
CURVE()
GEOMETRIC_REPRESENTATION_ITEM()
RATIONAL_B_SPLINE_CURVE((1.,1.15470053837925,1.))
REPRESENTATION_ITEM('')
);
#84=(
BOUNDED_CURVE()
B_SPLINE_CURVE(2,(#312,#313,#314),.UNSPECIFIED.,.F.,.F.)
B_SPLINE_CURVE_WITH_KNOTS((3,3),(0.,3.19397863318702),.UNSPECIFIED.)
CURVE()
GEOMETRIC_REPRESENTATION_ITEM()
RATIONAL_B_SPLINE_CURVE((1.,1.15470053837925,1.))
REPRESENTATION_ITEM('')
);
#85=(
BOUNDED_CURVE()
B_SPLINE_CURVE(2,(#319,#320,#321),.UNSPECIFIED.,.F.,.F.)
B_SPLINE_CURVE_WITH_KNOTS((3,3),(0.,3.19397863318703),.UNSPECIFIED.)
CURVE()
GEOMETRIC_REPRESENTATION_ITEM()
RATIONAL_B_SPLINE_CURVE((1.,1.15470053837925,1.))
REPRESENTATION_ITEM('')
);
#86=(
BOUNDED_CURVE()
B_SPLINE_CURVE(2,(#323,#324,#325),.UNSPECIFIED.,.F.,.F.)
B_SPLINE_CURVE_WITH_KNOTS((3,3),(0.,3.19397863318703),.UNSPECIFIED.)
CURVE()
GEOMETRIC_REPRESENTATION_ITEM()
RATIONAL_B_SPLINE_CURVE((1.,1.15470053837925,1.))
REPRESENTATION_ITEM('')
);
#87=(
BOUNDED_CURVE()
B_SPLINE_CURVE(2,(#326,#327,#328),.UNSPECIFIED.,.F.,.F.)
B_SPLINE_CURVE_WITH_KNOTS((3,3),(0.,3.19397863318703),.UNSPECIFIED.)
CURVE()
GEOMETRIC_REPRESENTATION_ITEM()
RATIONAL_B_SPLINE_CURVE((1.,1.15470053837925,1.))
REPRESENTATION_ITEM('')
);
#88=(
BOUNDED_CURVE()
B_SPLINE_CURVE(2,(#335,#336,#337),.UNSPECIFIED.,.F.,.F.)
B_SPLINE_CURVE_WITH_KNOTS((3,3),(0.,3.19397863318703),.UNSPECIFIED.)
CURVE()
GEOMETRIC_REPRESENTATION_ITEM()
RATIONAL_B_SPLINE_CURVE((1.,1.15470053837925,1.))
REPRESENTATION_ITEM('')
);
#89=(
BOUNDED_CURVE()
B_SPLINE_CURVE(2,(#339,#340,#341),.UNSPECIFIED.,.F.,.F.)
B_SPLINE_CURVE_WITH_KNOTS((3,3),(0.,3.19397863318703),.UNSPECIFIED.)
CURVE()
GEOMETRIC_REPRESENTATION_ITEM()
RATIONAL_B_SPLINE_CURVE((1.,1.15470053837925,1.))
REPRESENTATION_ITEM('')
);
#90=(
BOUNDED_CURVE()
B_SPLINE_CURVE(2,(#343,#344,#345),.UNSPECIFIED.,.F.,.F.)
B_SPLINE_CURVE_WITH_KNOTS((3,3),(0.,3.19397863318703),.UNSPECIFIED.)
CURVE()
GEOMETRIC_REPRESENTATION_ITEM()
RATIONAL_B_SPLINE_CURVE((1.,1.15470053837926,1.))
REPRESENTATION_ITEM('')
);
#91=(
BOUNDED_CURVE()
B_SPLINE_CURVE(2,(#347,#348,#349),.UNSPECIFIED.,.F.,.F.)
B_SPLINE_CURVE_WITH_KNOTS((3,3),(0.,3.19397863318703),.UNSPECIFIED.)
CURVE()
GEOMETRIC_REPRESENTATION_ITEM()
RATIONAL_B_SPLINE_CURVE((1.,1.15470053837925,1.))
REPRESENTATION_ITEM('')
);
#92=(
BOUNDED_CURVE()
B_SPLINE_CURVE(2,(#351,#352,#353),.UNSPECIFIED.,.F.,.F.)
B_SPLINE_CURVE_WITH_KNOTS((3,3),(0.,3.19397863318703),.UNSPECIFIED.)
CURVE()
GEOMETRIC_REPRESENTATION_ITEM()
RATIONAL_B_SPLINE_CURVE((1.,1.15470053837925,1.))
REPRESENTATION_ITEM('')
);
#93=(
BOUNDED_CURVE()
B_SPLINE_CURVE(2,(#354,#355,#356),.UNSPECIFIED.,.F.,.F.)
B_SPLINE_CURVE_WITH_KNOTS((3,3),(0.,3.19397863318703),.UNSPECIFIED.)
CURVE()
GEOMETRIC_REPRESENTATION_ITEM()
RATIONAL_B_SPLINE_CURVE((1.,1.15470053837926,1.))
REPRESENTATION_ITEM('')
);
#94=VERTEX_POINT('',#302);
#95=VERTEX_POINT('',#303);
#96=VERTEX_POINT('',#307);
#97=VERTEX_POINT('',#311);
#98=VERTEX_POINT('',#315);
#99=VERTEX_POINT('',#318);
#100=VERTEX_POINT('',#322);
#101=VERTEX_POINT('',#330);
#102=VERTEX_POINT('',#332);
#103=VERTEX_POINT('',#334);
#104=VERTEX_POINT('',#338);
#105=VERTEX_POINT('',#342);
#106=VERTEX_POINT('',#346);
#107=VERTEX_POINT('',#350);
#108=VERTEX_POINT('',#358);
#109=VERTEX_POINT('',#360);
#110=VERTEX_POINT('',#364);
#111=VERTEX_POINT('',#368);
#112=EDGE_CURVE('',#94,#95,#82,.T.);
#113=EDGE_CURVE('',#95,#96,#83,.T.);
#114=EDGE_CURVE('',#96,#97,#84,.T.);
#115=EDGE_CURVE('',#97,#98,#60,.T.);
#116=EDGE_CURVE('',#98,#98,#54,.T.);
#117=EDGE_CURVE('',#97,#99,#85,.T.);
#118=EDGE_CURVE('',#99,#100,#86,.T.);
#119=EDGE_CURVE('',#100,#94,#87,.T.);
#120=EDGE_CURVE('',#101,#101,#55,.T.);
#121=EDGE_CURVE('',#101,#102,#61,.T.);
#122=EDGE_CURVE('',#102,#103,#88,.T.);
#123=EDGE_CURVE('',#103,#104,#89,.T.);
#124=EDGE_CURVE('',#104,#105,#90,.T.);
#125=EDGE_CURVE('',#105,#106,#91,.T.);
#126=EDGE_CURVE('',#106,#107,#92,.T.);
#127=EDGE_CURVE('',#107,#102,#93,.T.);
#128=EDGE_CURVE('',#108,#108,#56,.T.);
#129=EDGE_CURVE('',#108,#109,#62,.T.);
#130=EDGE_CURVE('',#109,#109,#57,.T.);
#131=EDGE_CURVE('',#109,#110,#63,.T.);
#132=EDGE_CURVE('',#110,#110,#58,.T.);
#133=EDGE_CURVE('',#110,#111,#64,.T.);
#134=EDGE_CURVE('',#111,#111,#59,.T.);
#135=EDGE_CURVE('',#99,#107,#65,.T.);
#136=EDGE_CURVE('',#97,#102,#66,.T.);
#137=EDGE_CURVE('',#100,#106,#67,.T.);
#138=EDGE_CURVE('',#94,#105,#68,.T.);
#139=EDGE_CURVE('',#95,#104,#69,.T.);
#140=EDGE_CURVE('',#96,#103,#70,.T.);
#141=ORIENTED_EDGE('',*,*,#112,.T.);
#142=ORIENTED_EDGE('',*,*,#113,.T.);
#143=ORIENTED_EDGE('',*,*,#114,.T.);
#144=ORIENTED_EDGE('',*,*,#115,.T.);
#145=ORIENTED_EDGE('',*,*,#116,.T.);
#146=ORIENTED_EDGE('',*,*,#115,.F.);
#147=ORIENTED_EDGE('',*,*,#117,.T.);
#148=ORIENTED_EDGE('',*,*,#118,.T.);
#149=ORIENTED_EDGE('',*,*,#119,.T.);
#150=ORIENTED_EDGE('',*,*,#120,.T.);
#151=ORIENTED_EDGE('',*,*,#121,.T.);
#152=ORIENTED_EDGE('',*,*,#122,.T.);
#153=ORIENTED_EDGE('',*,*,#123,.T.);
#154=ORIENTED_EDGE('',*,*,#124,.T.);
#155=ORIENTED_EDGE('',*,*,#125,.T.);
#156=ORIENTED_EDGE('',*,*,#126,.T.);
#157=ORIENTED_EDGE('',*,*,#127,.T.);
#158=ORIENTED_EDGE('',*,*,#121,.F.);
#159=ORIENTED_EDGE('',*,*,#128,.T.);
#160=ORIENTED_EDGE('',*,*,#129,.T.);
#161=ORIENTED_EDGE('',*,*,#130,.F.);
#162=ORIENTED_EDGE('',*,*,#129,.F.);
#163=ORIENTED_EDGE('',*,*,#130,.T.);
#164=ORIENTED_EDGE('',*,*,#131,.T.);
#165=ORIENTED_EDGE('',*,*,#132,.F.);
#166=ORIENTED_EDGE('',*,*,#131,.F.);
#167=ORIENTED_EDGE('',*,*,#132,.T.);
#168=ORIENTED_EDGE('',*,*,#133,.T.);
#169=ORIENTED_EDGE('',*,*,#134,.T.);
#170=ORIENTED_EDGE('',*,*,#133,.F.);
#171=ORIENTED_EDGE('',*,*,#127,.F.);
#172=ORIENTED_EDGE('',*,*,#135,.F.);
#173=ORIENTED_EDGE('',*,*,#117,.F.);
#174=ORIENTED_EDGE('',*,*,#136,.T.);
#175=ORIENTED_EDGE('',*,*,#126,.F.);
#176=ORIENTED_EDGE('',*,*,#137,.F.);
#177=ORIENTED_EDGE('',*,*,#118,.F.);
#178=ORIENTED_EDGE('',*,*,#135,.T.);
#179=ORIENTED_EDGE('',*,*,#125,.F.);
#180=ORIENTED_EDGE('',*,*,#138,.F.);
#181=ORIENTED_EDGE('',*,*,#119,.F.);
#182=ORIENTED_EDGE('',*,*,#137,.T.);
#183=ORIENTED_EDGE('',*,*,#124,.F.);
#184=ORIENTED_EDGE('',*,*,#139,.F.);
#185=ORIENTED_EDGE('',*,*,#112,.F.);
#186=ORIENTED_EDGE('',*,*,#138,.T.);
#187=ORIENTED_EDGE('',*,*,#120,.F.);
#188=ORIENTED_EDGE('',*,*,#128,.F.);
#189=ORIENTED_EDGE('',*,*,#116,.F.);
#190=ORIENTED_EDGE('',*,*,#134,.F.);
#191=ORIENTED_EDGE('',*,*,#123,.F.);
#192=ORIENTED_EDGE('',*,*,#140,.F.);
#193=ORIENTED_EDGE('',*,*,#113,.F.);
#194=ORIENTED_EDGE('',*,*,#139,.T.);
#195=ORIENTED_EDGE('',*,*,#122,.F.);
#196=ORIENTED_EDGE('',*,*,#136,.F.);
#197=ORIENTED_EDGE('',*,*,#114,.F.);
#198=ORIENTED_EDGE('',*,*,#140,.T.);
#199=CONICAL_SURFACE('',#230,2.90541552508186,1.18682389135614);
#200=CONICAL_SURFACE('',#232,2.90541552508186,1.18682389135614);
#201=CONICAL_SURFACE('',#234,1.3646875,0.785398163397448);
#202=CONICAL_SURFACE('',#239,1.3646875,0.785398163397448);
#203=ADVANCED_FACE('',(#26),#199,.T.);
#204=ADVANCED_FACE('',(#27),#200,.T.);
#205=ADVANCED_FACE('',(#28),#201,.F.);
#206=ADVANCED_FACE('',(#29),#25,.F.);
#207=ADVANCED_FACE('',(#30),#202,.F.);
#208=ADVANCED_FACE('',(#31),#17,.T.);
#209=ADVANCED_FACE('',(#32),#18,.T.);
#210=ADVANCED_FACE('',(#33),#19,.T.);
#211=ADVANCED_FACE('',(#34),#20,.T.);
#212=ADVANCED_FACE('',(#35,#15),#21,.T.);
#213=ADVANCED_FACE('',(#36,#16),#22,.F.);
#214=ADVANCED_FACE('',(#37),#23,.T.);
#215=ADVANCED_FACE('',(#38),#24,.T.);
#216=CLOSED_SHELL('',(#203,#204,#205,#206,#207,#208,#209,#210,#211,#212,
#213,#214,#215));
#217=DERIVED_UNIT_ELEMENT(#219,1.);
#218=DERIVED_UNIT_ELEMENT(#390,-3.);
#219=(
MASS_UNIT()
NAMED_UNIT(*)
SI_UNIT(.KILO.,.GRAM.)
);
#220=DERIVED_UNIT((#217,#218));
#221=MEASURE_REPRESENTATION_ITEM('density measure',
POSITIVE_RATIO_MEASURE(1000.),#220);
#222=PROPERTY_DEFINITION_REPRESENTATION(#227,#224);
#223=PROPERTY_DEFINITION_REPRESENTATION(#228,#225);
#224=REPRESENTATION('material name',(#226),#387);
#225=REPRESENTATION('density',(#221),#387);
#226=DESCRIPTIVE_REPRESENTATION_ITEM('Generic','Generic');
#227=PROPERTY_DEFINITION('material property','material name',#397);
#228=PROPERTY_DEFINITION('material property','density of part',#397);
#229=AXIS2_PLACEMENT_3D('',#300,#249,#250);
#230=AXIS2_PLACEMENT_3D('',#301,#251,#252);
#231=AXIS2_PLACEMENT_3D('',#317,#254,#255);
#232=AXIS2_PLACEMENT_3D('',#329,#256,#257);
#233=AXIS2_PLACEMENT_3D('',#331,#258,#259);
#234=AXIS2_PLACEMENT_3D('',#357,#261,#262);
#235=AXIS2_PLACEMENT_3D('',#359,#263,#264);
#236=AXIS2_PLACEMENT_3D('',#362,#266,#267);
#237=AXIS2_PLACEMENT_3D('',#363,#268,#269);
#238=AXIS2_PLACEMENT_3D('',#366,#271,#272);
#239=AXIS2_PLACEMENT_3D('',#367,#273,#274);
#240=AXIS2_PLACEMENT_3D('',#370,#276,#277);
#241=AXIS2_PLACEMENT_3D('',#371,#278,#279);
#242=AXIS2_PLACEMENT_3D('',#374,#282,#283);
#243=AXIS2_PLACEMENT_3D('',#376,#285,#286);
#244=AXIS2_PLACEMENT_3D('',#378,#288,#289);
#245=AXIS2_PLACEMENT_3D('',#380,#291,#292);
#246=AXIS2_PLACEMENT_3D('',#381,#293,#294);
#247=AXIS2_PLACEMENT_3D('',#382,#295,#296);
#248=AXIS2_PLACEMENT_3D('',#384,#298,#299);
#249=DIRECTION('axis',(0.,0.,1.));
#250=DIRECTION('refdir',(1.,0.,0.));
#251=DIRECTION('center_axis',(0.,6.12303176911189E-17,1.));
#252=DIRECTION('ref_axis',(1.,0.,0.));
#253=DIRECTION('',(0.927183854566787,9.0609993247588E-17,-0.374606593415912));
#254=DIRECTION('center_axis',(0.,0.,1.));
#255=DIRECTION('ref_axis',(1.,0.,0.));
#256=DIRECTION('center_axis',(0.,-6.12303176911189E-17,-1.));
#257=DIRECTION('ref_axis',(1.,0.,0.));
#258=DIRECTION('center_axis',(0.,0.,-1.));
#259=DIRECTION('ref_axis',(1.,0.,0.));
#260=DIRECTION('',(-0.927183854566787,-1.36484554695676E-16,-0.374606593415912));
#261=DIRECTION('center_axis',(0.,6.12303176911189E-17,1.));
#262=DIRECTION('ref_axis',(1.,0.,0.));
#263=DIRECTION('center_axis',(0.,0.,1.));
#264=DIRECTION('ref_axis',(1.,0.,0.));
#265=DIRECTION('',(0.707106781186547,4.32992327699526E-17,-0.707106781186547));
#266=DIRECTION('center_axis',(0.,6.12303176911189E-17,1.));
#267=DIRECTION('ref_axis',(1.,0.,0.));
#268=DIRECTION('center_axis',(0.,6.12303176911189E-17,1.));
#269=DIRECTION('ref_axis',(1.,0.,0.));
#270=DIRECTION('',(0.,-6.12303176911189E-17,-1.));
#271=DIRECTION('center_axis',(0.,6.12303176911189E-17,1.));
#272=DIRECTION('ref_axis',(1.,0.,0.));
#273=DIRECTION('center_axis',(0.,-6.12303176911189E-17,-1.));
#274=DIRECTION('ref_axis',(1.,0.,0.));
#275=DIRECTION('',(-0.707106781186547,-1.29891978477146E-16,-0.707106781186547));
#276=DIRECTION('center_axis',(0.,0.,-1.));
#277=DIRECTION('ref_axis',(1.,0.,0.));
#278=DIRECTION('center_axis',(-0.866025403784438,0.5,0.));
#279=DIRECTION('ref_axis',(-0.5,-0.866025403784438,0.));
#280=DIRECTION('',(0.,0.,1.));
#281=DIRECTION('',(0.,0.,1.));
#282=DIRECTION('center_axis',(0.,1.,0.));
#283=DIRECTION('ref_axis',(-1.,0.,0.));
#284=DIRECTION('',(0.,0.,1.));
#285=DIRECTION('center_axis',(0.866025403784439,0.5,0.));
#286=DIRECTION('ref_axis',(-0.5,0.866025403784439,0.));
#287=DIRECTION('',(0.,0.,1.));
#288=DIRECTION('center_axis',(0.866025403784439,-0.5,0.));
#289=DIRECTION('ref_axis',(0.5,0.866025403784439,0.));
#290=DIRECTION('',(0.,0.,1.));
#291=DIRECTION('center_axis',(0.,0.,1.));
#292=DIRECTION('ref_axis',(1.,0.,0.));
#293=DIRECTION('center_axis',(0.,0.,1.));
#294=DIRECTION('ref_axis',(1.,0.,0.));
#295=DIRECTION('center_axis',(-1.39851896942949E-16,-1.,0.));
#296=DIRECTION('ref_axis',(1.,-1.39851896942949E-16,0.));
#297=DIRECTION('',(0.,0.,1.));
#298=DIRECTION('center_axis',(-0.866025403784439,-0.5,0.));
#299=DIRECTION('ref_axis',(0.5,-0.866025403784439,0.));
#300=CARTESIAN_POINT('',(0.,0.,0.));
#301=CARTESIAN_POINT('Origin',(0.,6.67967102084933E-18,0.109090909090909));
#302=CARTESIAN_POINT('',(3.175425,1.33593420416987E-17,0.218181818181818));
#303=CARTESIAN_POINT('',(1.5877125,-2.7499987178122,0.218181818181818));
#304=CARTESIAN_POINT('Ctrl Pts',(3.175425,-9.64660747751686E-16,0.218181818181818));
#305=CARTESIAN_POINT('Ctrl Pts',(2.38156875,-1.3749993589061,-0.102556926361332));
#306=CARTESIAN_POINT('Ctrl Pts',(1.5877125,-2.7499987178122,0.218181818181818));
#307=CARTESIAN_POINT('',(-1.5877125,-2.7499987178122,0.218181818181818));
#308=CARTESIAN_POINT('Ctrl Pts',(1.5877125,-2.7499987178122,0.218181818181818));
#309=CARTESIAN_POINT('Ctrl Pts',(-8.39453001048736E-16,-2.7499987178122,
-0.102556926361333));
#310=CARTESIAN_POINT('Ctrl Pts',(-1.5877125,-2.7499987178122,0.218181818181818));
#311=CARTESIAN_POINT('',(-3.175425,-8.88178419700125E-16,0.218181818181818));
#312=CARTESIAN_POINT('Ctrl Pts',(-1.5877125,-2.7499987178122,0.218181818181818));
#313=CARTESIAN_POINT('Ctrl Pts',(-2.38156875,-1.3749993589061,-0.102556926361332));
#314=CARTESIAN_POINT('Ctrl Pts',(-3.175425,-1.20734066169418E-15,0.218181818181818));
#315=CARTESIAN_POINT('',(-2.63540605016372,-3.22744158378657E-16,-1.73472347597681E-17));
#316=CARTESIAN_POINT('',(-2.90541552508186,-3.49131111277603E-16,0.109090909090909));
#317=CARTESIAN_POINT('Origin',(0.,0.,0.));
#318=CARTESIAN_POINT('',(-1.5877125,2.7499987178122,0.218181818181818));
#319=CARTESIAN_POINT('Ctrl Pts',(-3.175425,1.46213839167331E-15,0.218181818181818));
#320=CARTESIAN_POINT('Ctrl Pts',(-2.38156875,1.3749993589061,-0.102556926361332));
#321=CARTESIAN_POINT('Ctrl Pts',(-1.5877125,2.7499987178122,0.218181818181818));
#322=CARTESIAN_POINT('',(1.5877125,2.7499987178122,0.218181818181818));
#323=CARTESIAN_POINT('Ctrl Pts',(-1.5877125,2.7499987178122,0.218181818181819));
#324=CARTESIAN_POINT('Ctrl Pts',(0.,2.7499987178122,-0.102556926361333));
#325=CARTESIAN_POINT('Ctrl Pts',(1.5877125,2.7499987178122,0.218181818181819));
#326=CARTESIAN_POINT('Ctrl Pts',(1.5877125,2.7499987178122,0.218181818181818));
#327=CARTESIAN_POINT('Ctrl Pts',(2.38156875,1.3749993589061,-0.102556926361333));
#328=CARTESIAN_POINT('Ctrl Pts',(3.175425,-4.79300919866686E-16,0.218181818181819));
#329=CARTESIAN_POINT('Origin',(0.,1.40273091437836E-16,2.29090909090909));
#330=CARTESIAN_POINT('',(-2.63540605016372,-1.75791395919971E-16,2.4));
#331=CARTESIAN_POINT('Origin',(0.,1.46952762458685E-16,2.4));
#332=CARTESIAN_POINT('',(-3.175425,-6.66133814775094E-16,2.18181818181818));
#333=CARTESIAN_POINT('',(-2.90541552508186,-2.15537690860617E-16,2.29090909090909));
#334=CARTESIAN_POINT('',(-1.5877125,-2.7499987178122,2.18181818181818));
#335=CARTESIAN_POINT('Ctrl Pts',(-3.175425,9.51003961695887E-16,2.18181818181818));
#336=CARTESIAN_POINT('Ctrl Pts',(-2.38156875,-1.3749993589061,2.50255692636133));
#337=CARTESIAN_POINT('Ctrl Pts',(-1.5877125,-2.7499987178122,2.18181818181818));
#338=CARTESIAN_POINT('',(1.5877125,-2.7499987178122,2.18181818181818));
#339=CARTESIAN_POINT('Ctrl Pts',(-1.5877125,-2.7499987178122,2.18181818181818));
#340=CARTESIAN_POINT('Ctrl Pts',(1.78487266758465E-15,-2.7499987178122,
2.50255692636133));
#341=CARTESIAN_POINT('Ctrl Pts',(1.5877125,-2.7499987178122,2.18181818181818));
#342=CARTESIAN_POINT('',(3.175425,1.33593420416987E-16,2.18181818181818));
#343=CARTESIAN_POINT('Ctrl Pts',(1.5877125,-2.7499987178122,2.18181818181818));
#344=CARTESIAN_POINT('Ctrl Pts',(2.38156875,-1.3749993589061,2.50255692636133));
#345=CARTESIAN_POINT('Ctrl Pts',(3.175425,-7.47755435901611E-16,2.18181818181818));
#346=CARTESIAN_POINT('',(1.5877125,2.7499987178122,2.18181818181818));
#347=CARTESIAN_POINT('Ctrl Pts',(3.175425,2.22964219868388E-16,2.18181818181818));
#348=CARTESIAN_POINT('Ctrl Pts',(2.38156875,1.3749993589061,2.50255692636133));
#349=CARTESIAN_POINT('Ctrl Pts',(1.5877125,2.7499987178122,2.18181818181818));
#350=CARTESIAN_POINT('',(-1.5877125,2.7499987178122,2.18181818181818));
#351=CARTESIAN_POINT('Ctrl Pts',(1.5877125,2.7499987178122,2.18181818181818));
#352=CARTESIAN_POINT('Ctrl Pts',(0.,2.7499987178122,2.50255692636133));
#353=CARTESIAN_POINT('Ctrl Pts',(-1.5877125,2.7499987178122,2.18181818181818));
#354=CARTESIAN_POINT('Ctrl Pts',(-1.5877125,2.7499987178122,2.18181818181818));
#355=CARTESIAN_POINT('Ctrl Pts',(-2.38156875,1.3749993589061,2.50255692636133));
#356=CARTESIAN_POINT('Ctrl Pts',(-3.175425,1.43636378958089E-15,2.18181818181818));
#357=CARTESIAN_POINT('Origin',(0.,1.38667535096106E-16,2.2646875));
#358=CARTESIAN_POINT('',(-1.5,-3.67442574134177E-17,2.4));
#359=CARTESIAN_POINT('Origin',(0.,1.46952762458685E-16,2.4));
#360=CARTESIAN_POINT('',(-1.229375,-2.01727081366515E-17,2.129375));
#361=CARTESIAN_POINT('',(-1.3646875,-2.84584827750346E-17,2.2646875));
#362=CARTESIAN_POINT('Origin',(0.,1.30382307733526E-16,2.129375));
#363=CARTESIAN_POINT('Origin',(0.,7.34763812293426E-17,1.2));
#364=CARTESIAN_POINT('',(-1.229375,-1.33984561145019E-16,0.270625));
#365=CARTESIAN_POINT('',(-1.229375,-7.70786346408351E-17,1.2));
#366=CARTESIAN_POINT('Origin',(0.,1.6570454725159E-17,0.270625));
#367=CARTESIAN_POINT('Origin',(0.,8.28522736257952E-18,0.1353125));
#368=CARTESIAN_POINT('',(-1.5,-1.83697019872103E-16,-2.94902990916057E-16));
#369=CARTESIAN_POINT('',(-1.3646875,-1.58840790508561E-16,0.1353125));
#370=CARTESIAN_POINT('Origin',(0.,0.,0.));
#371=CARTESIAN_POINT('Origin',(-2.38156875,1.3749993589061,0.));
#372=CARTESIAN_POINT('',(-1.5877125,2.7499987178122,0.));
#373=CARTESIAN_POINT('',(-3.175425,3.88864563108642E-16,0.));
#374=CARTESIAN_POINT('Origin',(2.22044604925031E-16,2.7499987178122,0.));
#375=CARTESIAN_POINT('',(1.5877125,2.7499987178122,0.));
#376=CARTESIAN_POINT('Origin',(2.38156875,1.3749993589061,0.));
#377=CARTESIAN_POINT('',(3.175425,0.,0.));
#378=CARTESIAN_POINT('Origin',(2.38156875,-1.3749993589061,0.));
#379=CARTESIAN_POINT('',(1.5877125,-2.7499987178122,0.));
#380=CARTESIAN_POINT('Origin',(-1.194330829521E-16,1.11022302462516E-16,
2.4));
#381=CARTESIAN_POINT('Origin',(-1.194330829521E-16,1.11022302462516E-16,
0.));
#382=CARTESIAN_POINT('Origin',(-6.66133814775094E-16,-2.7499987178122,0.));
#383=CARTESIAN_POINT('',(-1.5877125,-2.7499987178122,0.));
#384=CARTESIAN_POINT('Origin',(-2.38156875,-1.3749993589061,0.));
#385=UNCERTAINTY_MEASURE_WITH_UNIT(LENGTH_MEASURE(0.01),#389,
'DISTANCE_ACCURACY_VALUE',
'Maximum model space distance between geometric entities at asserted c
onnectivities');
#386=UNCERTAINTY_MEASURE_WITH_UNIT(LENGTH_MEASURE(0.01),#389,
'DISTANCE_ACCURACY_VALUE',
'Maximum model space distance between geometric entities at asserted c
onnectivities');
#387=(
GEOMETRIC_REPRESENTATION_CONTEXT(3)
GLOBAL_UNCERTAINTY_ASSIGNED_CONTEXT((#385))
GLOBAL_UNIT_ASSIGNED_CONTEXT((#389,#391,#392))
REPRESENTATION_CONTEXT('','3D')
);
#388=(
GEOMETRIC_REPRESENTATION_CONTEXT(3)
GLOBAL_UNCERTAINTY_ASSIGNED_CONTEXT((#386))
GLOBAL_UNIT_ASSIGNED_CONTEXT((#389,#391,#392))
REPRESENTATION_CONTEXT('','3D')
);
#389=(
LENGTH_UNIT()
NAMED_UNIT(*)
SI_UNIT(.MILLI.,.METRE.)
);
#390=(
LENGTH_UNIT()
NAMED_UNIT(*)
SI_UNIT($,.METRE.)
);
#391=(
NAMED_UNIT(*)
PLANE_ANGLE_UNIT()
SI_UNIT($,.RADIAN.)
);
#392=(
NAMED_UNIT(*)
SI_UNIT($,.STERADIAN.)
SOLID_ANGLE_UNIT()
);
#393=SHAPE_DEFINITION_REPRESENTATION(#394,#395);
#394=PRODUCT_DEFINITION_SHAPE('',$,#397);
#395=SHAPE_REPRESENTATION('',(#229),#387);
#396=PRODUCT_DEFINITION_CONTEXT('part definition',#401,'design');
#397=PRODUCT_DEFINITION('mutter_din934_m3-10','mutter_din934_m3-10 v1',
#398,#396);
#398=PRODUCT_DEFINITION_FORMATION('',$,#403);
#399=PRODUCT_RELATED_PRODUCT_CATEGORY('mutter_din934_m3-10 v1',
'mutter_din934_m3-10 v1',(#403));
#400=APPLICATION_PROTOCOL_DEFINITION('international standard',
'automotive_design',2009,#401);
#401=APPLICATION_CONTEXT(
'Core Data for Automotive Mechanical Design Process');
#402=PRODUCT_CONTEXT('part definition',#401,'mechanical');
#403=PRODUCT('mutter_din934_m3-10','mutter_din934_m3-10 v1',$,(#402));
#404=PRESENTATION_STYLE_ASSIGNMENT((#405));
#405=SURFACE_STYLE_USAGE(.BOTH.,#406);
#406=SURFACE_SIDE_STYLE('',(#407));
#407=SURFACE_STYLE_FILL_AREA(#408);
#408=FILL_AREA_STYLE('Default',(#409));
#409=FILL_AREA_STYLE_COLOUR('Default',#410);
#410=COLOUR_RGB('Default',0.749019607843137,0.749019607843137,0.749019607843137);
ENDSEC;
END-ISO-10303-21;
