ISO-10303-21;
HEADER;
/* Generated by software containing ST-Developer
 * from STEP Tools, Inc. (www.steptools.com) 
 */

FILE_DESCRIPTION(
/* description */ (''),
/* implementation_level */ '2;1');

FILE_NAME(
/* name */ 'Hositrad_CFA35-16D v1.step',
/* time_stamp */ '2024-06-14T14:20:31+02:00',
/* author */ (''),
/* organization */ (''),
/* preprocessor_version */ 'ST-DEVELOPER v20',
/* originating_system */ 'Autodesk Translation Framework v13.14.0.145',

/* authorisation */ '');

FILE_SCHEMA (('AUTOMOTIVE_DESIGN { 1 0 10303 214 3 1 1 }'));
ENDSEC;

DATA;
#10=MECHANICAL_DESIGN_GEOMETRIC_PRESENTATION_REPRESENTATION('',(#768,#769,
#770,#771,#772,#773,#774,#775,#776,#777,#778,#779,#780),#1460);
#11=SHAPE_REPRESENTATION_RELATIONSHIP('SRR','None',#1467,#12);
#12=ADVANCED_BREP_SHAPE_REPRESENTATION('',(#13),#1459);
#13=MANIFOLD_SOLID_BREP('Body1',#828);
#14=FACE_BOUND('',#154,.T.);
#15=FACE_BOUND('',#155,.T.);
#16=FACE_BOUND('',#156,.T.);
#17=FACE_BOUND('',#157,.T.);
#18=FACE_BOUND('',#158,.T.);
#19=FACE_BOUND('',#159,.T.);
#20=FACE_BOUND('',#160,.T.);
#21=FACE_BOUND('',#161,.T.);
#22=FACE_BOUND('',#162,.T.);
#23=FACE_BOUND('',#163,.T.);
#24=FACE_BOUND('',#164,.T.);
#25=FACE_BOUND('',#165,.T.);
#26=FACE_BOUND('',#166,.T.);
#27=FACE_BOUND('',#168,.T.);
#28=FACE_BOUND('',#169,.T.);
#29=FACE_BOUND('',#170,.T.);
#30=FACE_BOUND('',#171,.T.);
#31=FACE_BOUND('',#172,.T.);
#32=FACE_BOUND('',#173,.T.);
#33=FACE_BOUND('',#175,.T.);
#34=FACE_BOUND('',#180,.T.);
#35=PLANE('',#945);
#36=PLANE('',#946);
#37=PLANE('',#947);
#38=PLANE('',#948);
#39=PLANE('',#949);
#40=PLANE('',#950);
#41=PLANE('',#951);
#42=CONICAL_SURFACE('',#845,1.65,1.02974425867665);
#43=CONICAL_SURFACE('',#849,1.65,1.02974425867665);
#44=CONICAL_SURFACE('',#853,1.65,1.02974425867665);
#45=CONICAL_SURFACE('',#857,1.65,1.02974425867665);
#46=CONICAL_SURFACE('',#861,1.65,1.02974425867665);
#47=CONICAL_SURFACE('',#865,1.65,1.02974425867665);
#48=CONICAL_SURFACE('',#869,8.93161785944027,0.349065850398871);
#49=CONICAL_SURFACE('',#873,9.15,1.22173047639603);
#50=CONICAL_SURFACE('',#877,3.64999999999998,0.785398163397448);
#51=CONICAL_SURFACE('',#881,3.35,0.785398163397469);
#52=CONICAL_SURFACE('',#884,3.65,0.785398163397447);
#53=CONICAL_SURFACE('',#888,3.35,0.785398163397463);
#54=CONICAL_SURFACE('',#891,3.64999999999997,0.78539816339743);
#55=CONICAL_SURFACE('',#895,3.35,0.785398163397453);
#56=CONICAL_SURFACE('',#898,3.64999999999999,0.785398163397442);
#57=CONICAL_SURFACE('',#902,3.35,0.785398163397453);
#58=CONICAL_SURFACE('',#905,3.64999999999998,0.785398163397434);
#59=CONICAL_SURFACE('',#909,3.35,0.785398163397444);
#60=CONICAL_SURFACE('',#912,3.64999999999997,0.78539816339743);
#61=CONICAL_SURFACE('',#916,3.35,0.785398163397453);
#62=CONICAL_SURFACE('',#919,35.,0.785398163397443);
#63=CONICAL_SURFACE('',#922,34.7,0.785398163397414);
#64=CONICAL_SURFACE('',#932,20.7316178594403,0.349065850398869);
#65=CONICAL_SURFACE('',#936,20.95,1.22173047639603);
#66=FACE_OUTER_BOUND('',#113,.T.);
#67=FACE_OUTER_BOUND('',#114,.T.);
#68=FACE_OUTER_BOUND('',#115,.T.);
#69=FACE_OUTER_BOUND('',#116,.T.);
#70=FACE_OUTER_BOUND('',#117,.T.);
#71=FACE_OUTER_BOUND('',#118,.T.);
#72=FACE_OUTER_BOUND('',#119,.T.);
#73=FACE_OUTER_BOUND('',#120,.T.);
#74=FACE_OUTER_BOUND('',#121,.T.);
#75=FACE_OUTER_BOUND('',#122,.T.);
#76=FACE_OUTER_BOUND('',#123,.T.);
#77=FACE_OUTER_BOUND('',#124,.T.);
#78=FACE_OUTER_BOUND('',#125,.T.);
#79=FACE_OUTER_BOUND('',#126,.T.);
#80=FACE_OUTER_BOUND('',#127,.T.);
#81=FACE_OUTER_BOUND('',#128,.T.);
#82=FACE_OUTER_BOUND('',#129,.T.);
#83=FACE_OUTER_BOUND('',#130,.T.);
#84=FACE_OUTER_BOUND('',#131,.T.);
#85=FACE_OUTER_BOUND('',#132,.T.);
#86=FACE_OUTER_BOUND('',#133,.T.);
#87=FACE_OUTER_BOUND('',#134,.T.);
#88=FACE_OUTER_BOUND('',#135,.T.);
#89=FACE_OUTER_BOUND('',#136,.T.);
#90=FACE_OUTER_BOUND('',#137,.T.);
#91=FACE_OUTER_BOUND('',#138,.T.);
#92=FACE_OUTER_BOUND('',#139,.T.);
#93=FACE_OUTER_BOUND('',#140,.T.);
#94=FACE_OUTER_BOUND('',#141,.T.);
#95=FACE_OUTER_BOUND('',#142,.T.);
#96=FACE_OUTER_BOUND('',#143,.T.);
#97=FACE_OUTER_BOUND('',#144,.T.);
#98=FACE_OUTER_BOUND('',#145,.T.);
#99=FACE_OUTER_BOUND('',#146,.T.);
#100=FACE_OUTER_BOUND('',#147,.T.);
#101=FACE_OUTER_BOUND('',#148,.T.);
#102=FACE_OUTER_BOUND('',#149,.T.);
#103=FACE_OUTER_BOUND('',#150,.T.);
#104=FACE_OUTER_BOUND('',#151,.T.);
#105=FACE_OUTER_BOUND('',#152,.T.);
#106=FACE_OUTER_BOUND('',#153,.T.);
#107=FACE_OUTER_BOUND('',#167,.T.);
#108=FACE_OUTER_BOUND('',#174,.T.);
#109=FACE_OUTER_BOUND('',#176,.T.);
#110=FACE_OUTER_BOUND('',#177,.T.);
#111=FACE_OUTER_BOUND('',#178,.T.);
#112=FACE_OUTER_BOUND('',#179,.T.);
#113=EDGE_LOOP('',(#528,#529,#530,#531));
#114=EDGE_LOOP('',(#532,#533,#534));
#115=EDGE_LOOP('',(#535,#536,#537,#538));
#116=EDGE_LOOP('',(#539,#540,#541));
#117=EDGE_LOOP('',(#542,#543,#544,#545));
#118=EDGE_LOOP('',(#546,#547,#548));
#119=EDGE_LOOP('',(#549,#550,#551,#552));
#120=EDGE_LOOP('',(#553,#554,#555));
#121=EDGE_LOOP('',(#556,#557,#558,#559));
#122=EDGE_LOOP('',(#560,#561,#562));
#123=EDGE_LOOP('',(#563,#564,#565,#566));
#124=EDGE_LOOP('',(#567,#568,#569));
#125=EDGE_LOOP('',(#570,#571,#572,#573));
#126=EDGE_LOOP('',(#574,#575,#576,#577,#578));
#127=EDGE_LOOP('',(#579,#580,#581,#582,#583));
#128=EDGE_LOOP('',(#584,#585,#586,#587));
#129=EDGE_LOOP('',(#588,#589,#590,#591,#592));
#130=EDGE_LOOP('',(#593,#594,#595,#596));
#131=EDGE_LOOP('',(#597,#598,#599,#600,#601));
#132=EDGE_LOOP('',(#602,#603,#604,#605));
#133=EDGE_LOOP('',(#606,#607,#608,#609,#610));
#134=EDGE_LOOP('',(#611,#612,#613,#614));
#135=EDGE_LOOP('',(#615,#616,#617,#618,#619));
#136=EDGE_LOOP('',(#620,#621,#622,#623));
#137=EDGE_LOOP('',(#624,#625,#626,#627,#628));
#138=EDGE_LOOP('',(#629,#630,#631,#632));
#139=EDGE_LOOP('',(#633,#634,#635,#636,#637));
#140=EDGE_LOOP('',(#638,#639,#640,#641));
#141=EDGE_LOOP('',(#642,#643,#644,#645));
#142=EDGE_LOOP('',(#646,#647,#648,#649,#650));
#143=EDGE_LOOP('',(#651,#652,#653,#654,#655));
#144=EDGE_LOOP('',(#656,#657,#658,#659,#660));
#145=EDGE_LOOP('',(#661,#662,#663,#664,#665));
#146=EDGE_LOOP('',(#666,#667,#668,#669,#670));
#147=EDGE_LOOP('',(#671,#672,#673,#674,#675));
#148=EDGE_LOOP('',(#676,#677,#678,#679,#680));
#149=EDGE_LOOP('',(#681,#682,#683,#684,#685));
#150=EDGE_LOOP('',(#686,#687,#688,#689,#690,#691));
#151=EDGE_LOOP('',(#692,#693,#694,#695,#696,#697,#698,#699,#700));
#152=EDGE_LOOP('',(#701,#702,#703,#704,#705,#706,#707,#708));
#153=EDGE_LOOP('',(#709));
#154=EDGE_LOOP('',(#710));
#155=EDGE_LOOP('',(#711));
#156=EDGE_LOOP('',(#712));
#157=EDGE_LOOP('',(#713));
#158=EDGE_LOOP('',(#714));
#159=EDGE_LOOP('',(#715));
#160=EDGE_LOOP('',(#716));
#161=EDGE_LOOP('',(#717));
#162=EDGE_LOOP('',(#718));
#163=EDGE_LOOP('',(#719));
#164=EDGE_LOOP('',(#720));
#165=EDGE_LOOP('',(#721));
#166=EDGE_LOOP('',(#722));
#167=EDGE_LOOP('',(#723,#724,#725,#726,#727));
#168=EDGE_LOOP('',(#728));
#169=EDGE_LOOP('',(#729));
#170=EDGE_LOOP('',(#730));
#171=EDGE_LOOP('',(#731));
#172=EDGE_LOOP('',(#732));
#173=EDGE_LOOP('',(#733));
#174=EDGE_LOOP('',(#734));
#175=EDGE_LOOP('',(#735));
#176=EDGE_LOOP('',(#736,#737,#738,#739,#740));
#177=EDGE_LOOP('',(#741,#742,#743,#744,#745));
#178=EDGE_LOOP('',(#746,#747,#748,#749));
#179=EDGE_LOOP('',(#750));
#180=EDGE_LOOP('',(#751));
#181=LINE('',#1228,#230);
#182=LINE('',#1232,#231);
#183=LINE('',#1237,#232);
#184=LINE('',#1241,#233);
#185=LINE('',#1246,#234);
#186=LINE('',#1250,#235);
#187=LINE('',#1255,#236);
#188=LINE('',#1259,#237);
#189=LINE('',#1264,#238);
#190=LINE('',#1268,#239);
#191=LINE('',#1273,#240);
#192=LINE('',#1277,#241);
#193=LINE('',#1282,#242);
#194=LINE('',#1288,#243);
#195=LINE('',#1295,#244);
#196=LINE('',#1299,#245);
#197=LINE('',#1306,#246);
#198=LINE('',#1312,#247);
#199=LINE('',#1320,#248);
#200=LINE('',#1326,#249);
#201=LINE('',#1334,#250);
#202=LINE('',#1340,#251);
#203=LINE('',#1348,#252);
#204=LINE('',#1354,#253);
#205=LINE('',#1362,#254);
#206=LINE('',#1368,#255);
#207=LINE('',#1376,#256);
#208=LINE('',#1382,#257);
#209=LINE('',#1388,#258);
#210=LINE('',#1395,#259);
#211=LINE('',#1400,#260);
#212=LINE('',#1402,#261);
#213=LINE('',#1404,#262);
#214=LINE('',#1406,#263);
#215=LINE('',#1408,#264);
#216=LINE('',#1410,#265);
#217=LINE('',#1412,#266);
#218=LINE('',#1417,#267);
#219=LINE('',#1425,#268);
#220=LINE('',#1429,#269);
#221=LINE('',#1433,#270);
#222=LINE('',#1437,#271);
#223=LINE('',#1440,#272);
#224=LINE('',#1442,#273);
#225=LINE('',#1445,#274);
#226=LINE('',#1448,#275);
#227=LINE('',#1449,#276);
#228=LINE('',#1452,#277);
#229=LINE('',#1454,#278);
#230=VECTOR('',#958,1.65);
#231=VECTOR('',#963,1.65);
#232=VECTOR('',#968,1.65);
#233=VECTOR('',#973,1.65);
#234=VECTOR('',#978,1.65);
#235=VECTOR('',#983,1.65);
#236=VECTOR('',#988,1.65);
#237=VECTOR('',#993,1.65);
#238=VECTOR('',#998,1.65);
#239=VECTOR('',#1003,1.65);
#240=VECTOR('',#1008,1.65);
#241=VECTOR('',#1013,1.65);
#242=VECTOR('',#1018,8.);
#243=VECTOR('',#1025,8.93161785944027);
#244=VECTOR('',#1034,9.15);
#245=VECTOR('',#1039,10.75);
#246=VECTOR('',#1046,3.64999999999999);
#247=VECTOR('',#1053,3.35);
#248=VECTOR('',#1062,3.65);
#249=VECTOR('',#1069,3.35);
#250=VECTOR('',#1078,3.64999999999997);
#251=VECTOR('',#1085,3.35);
#252=VECTOR('',#1094,3.64999999999999);
#253=VECTOR('',#1101,3.35);
#254=VECTOR('',#1110,3.64999999999998);
#255=VECTOR('',#1117,3.35);
#256=VECTOR('',#1126,3.64999999999997);
#257=VECTOR('',#1133,3.35);
#258=VECTOR('',#1140,35.);
#259=VECTOR('',#1147,10.);
#260=VECTOR('',#1152,10.);
#261=VECTOR('',#1155,3.35);
#262=VECTOR('',#1158,3.35);
#263=VECTOR('',#1161,3.35);
#264=VECTOR('',#1164,3.35);
#265=VECTOR('',#1167,3.35);
#266=VECTOR('',#1170,3.35);
#267=VECTOR('',#1175,20.7316178594403);
#268=VECTOR('',#1184,20.95);
#269=VECTOR('',#1189,24.175);
#270=VECTOR('',#1192,1000.);
#271=VECTOR('',#1195,1000.);
#272=VECTOR('',#1200,35.);
#273=VECTOR('',#1201,1000.);
#274=VECTOR('',#1204,1000.);
#275=VECTOR('',#1209,1000.);
#276=VECTOR('',#1210,1000.);
#277=VECTOR('',#1215,1000.);
#278=VECTOR('',#1218,1000.);
#279=CIRCLE('',#843,1.65);
#280=CIRCLE('',#844,1.65);
#281=CIRCLE('',#847,1.65);
#282=CIRCLE('',#848,1.65);
#283=CIRCLE('',#851,1.65);
#284=CIRCLE('',#852,1.65);
#285=CIRCLE('',#855,1.65);
#286=CIRCLE('',#856,1.65);
#287=CIRCLE('',#859,1.65);
#288=CIRCLE('',#860,1.65);
#289=CIRCLE('',#863,1.65);
#290=CIRCLE('',#864,1.65);
#291=CIRCLE('',#867,8.);
#292=CIRCLE('',#868,8.);
#293=CIRCLE('',#870,8.93161785944027);
#294=CIRCLE('',#871,9.15);
#295=CIRCLE('',#872,9.15);
#296=CIRCLE('',#874,10.75);
#297=CIRCLE('',#876,10.75);
#298=CIRCLE('',#878,3.35);
#299=CIRCLE('',#879,3.35);
#300=CIRCLE('',#880,3.64999999999998);
#301=CIRCLE('',#882,3.35);
#302=CIRCLE('',#883,3.65000000000003);
#303=CIRCLE('',#885,3.35);
#304=CIRCLE('',#886,3.35);
#305=CIRCLE('',#887,3.65);
#306=CIRCLE('',#889,3.35);
#307=CIRCLE('',#890,3.65000000000002);
#308=CIRCLE('',#892,3.35);
#309=CIRCLE('',#893,3.35);
#310=CIRCLE('',#894,3.64999999999997);
#311=CIRCLE('',#896,3.35);
#312=CIRCLE('',#897,3.65000000000002);
#313=CIRCLE('',#899,3.35);
#314=CIRCLE('',#900,3.35);
#315=CIRCLE('',#901,3.64999999999999);
#316=CIRCLE('',#903,3.35);
#317=CIRCLE('',#904,3.65000000000002);
#318=CIRCLE('',#906,3.35);
#319=CIRCLE('',#907,3.35);
#320=CIRCLE('',#908,3.64999999999998);
#321=CIRCLE('',#910,3.35);
#322=CIRCLE('',#911,3.64999999999999);
#323=CIRCLE('',#913,3.35);
#324=CIRCLE('',#914,3.35);
#325=CIRCLE('',#915,3.64999999999997);
#326=CIRCLE('',#917,3.35);
#327=CIRCLE('',#918,3.65000000000002);
#328=CIRCLE('',#920,35.);
#329=CIRCLE('',#921,34.7);
#330=CIRCLE('',#923,34.7);
#331=CIRCLE('',#924,35.);
#332=CIRCLE('',#925,35.);
#333=CIRCLE('',#933,20.7316178594403);
#334=CIRCLE('',#934,20.95);
#335=CIRCLE('',#935,20.95);
#336=CIRCLE('',#937,24.175);
#337=CIRCLE('',#938,24.175);
#338=CIRCLE('',#940,24.175);
#339=CIRCLE('',#941,24.175);
#340=CIRCLE('',#942,24.175);
#341=CIRCLE('',#944,35.);
#342=VERTEX_POINT('',#1225);
#343=VERTEX_POINT('',#1227);
#344=VERTEX_POINT('',#1231);
#345=VERTEX_POINT('',#1234);
#346=VERTEX_POINT('',#1236);
#347=VERTEX_POINT('',#1240);
#348=VERTEX_POINT('',#1243);
#349=VERTEX_POINT('',#1245);
#350=VERTEX_POINT('',#1249);
#351=VERTEX_POINT('',#1252);
#352=VERTEX_POINT('',#1254);
#353=VERTEX_POINT('',#1258);
#354=VERTEX_POINT('',#1261);
#355=VERTEX_POINT('',#1263);
#356=VERTEX_POINT('',#1267);
#357=VERTEX_POINT('',#1270);
#358=VERTEX_POINT('',#1272);
#359=VERTEX_POINT('',#1276);
#360=VERTEX_POINT('',#1279);
#361=VERTEX_POINT('',#1281);
#362=VERTEX_POINT('',#1285);
#363=VERTEX_POINT('',#1287);
#364=VERTEX_POINT('',#1289);
#365=VERTEX_POINT('',#1293);
#366=VERTEX_POINT('',#1297);
#367=VERTEX_POINT('',#1301);
#368=VERTEX_POINT('',#1302);
#369=VERTEX_POINT('',#1305);
#370=VERTEX_POINT('',#1309);
#371=VERTEX_POINT('',#1311);
#372=VERTEX_POINT('',#1315);
#373=VERTEX_POINT('',#1316);
#374=VERTEX_POINT('',#1319);
#375=VERTEX_POINT('',#1323);
#376=VERTEX_POINT('',#1325);
#377=VERTEX_POINT('',#1329);
#378=VERTEX_POINT('',#1330);
#379=VERTEX_POINT('',#1333);
#380=VERTEX_POINT('',#1337);
#381=VERTEX_POINT('',#1339);
#382=VERTEX_POINT('',#1343);
#383=VERTEX_POINT('',#1344);
#384=VERTEX_POINT('',#1347);
#385=VERTEX_POINT('',#1351);
#386=VERTEX_POINT('',#1353);
#387=VERTEX_POINT('',#1357);
#388=VERTEX_POINT('',#1358);
#389=VERTEX_POINT('',#1361);
#390=VERTEX_POINT('',#1365);
#391=VERTEX_POINT('',#1367);
#392=VERTEX_POINT('',#1371);
#393=VERTEX_POINT('',#1372);
#394=VERTEX_POINT('',#1375);
#395=VERTEX_POINT('',#1379);
#396=VERTEX_POINT('',#1381);
#397=VERTEX_POINT('',#1385);
#398=VERTEX_POINT('',#1387);
#399=VERTEX_POINT('',#1391);
#400=VERTEX_POINT('',#1392);
#401=VERTEX_POINT('',#1394);
#402=VERTEX_POINT('',#1396);
#403=VERTEX_POINT('',#1398);
#404=VERTEX_POINT('',#1414);
#405=VERTEX_POINT('',#1416);
#406=VERTEX_POINT('',#1418);
#407=VERTEX_POINT('',#1422);
#408=VERTEX_POINT('',#1423);
#409=VERTEX_POINT('',#1428);
#410=VERTEX_POINT('',#1430);
#411=VERTEX_POINT('',#1432);
#412=VERTEX_POINT('',#1434);
#413=VERTEX_POINT('',#1436);
#414=VERTEX_POINT('',#1441);
#415=VERTEX_POINT('',#1443);
#416=EDGE_CURVE('',#342,#342,#279,.T.);
#417=EDGE_CURVE('',#342,#343,#181,.T.);
#418=EDGE_CURVE('',#343,#343,#280,.T.);
#419=EDGE_CURVE('',#344,#342,#182,.T.);
#420=EDGE_CURVE('',#345,#345,#281,.T.);
#421=EDGE_CURVE('',#345,#346,#183,.T.);
#422=EDGE_CURVE('',#346,#346,#282,.T.);
#423=EDGE_CURVE('',#347,#345,#184,.T.);
#424=EDGE_CURVE('',#348,#348,#283,.T.);
#425=EDGE_CURVE('',#348,#349,#185,.T.);
#426=EDGE_CURVE('',#349,#349,#284,.T.);
#427=EDGE_CURVE('',#350,#348,#186,.T.);
#428=EDGE_CURVE('',#351,#351,#285,.T.);
#429=EDGE_CURVE('',#351,#352,#187,.T.);
#430=EDGE_CURVE('',#352,#352,#286,.T.);
#431=EDGE_CURVE('',#353,#351,#188,.T.);
#432=EDGE_CURVE('',#354,#354,#287,.T.);
#433=EDGE_CURVE('',#354,#355,#189,.T.);
#434=EDGE_CURVE('',#355,#355,#288,.T.);
#435=EDGE_CURVE('',#356,#354,#190,.T.);
#436=EDGE_CURVE('',#357,#357,#289,.T.);
#437=EDGE_CURVE('',#357,#358,#191,.T.);
#438=EDGE_CURVE('',#358,#358,#290,.T.);
#439=EDGE_CURVE('',#359,#357,#192,.T.);
#440=EDGE_CURVE('',#360,#360,#291,.T.);
#441=EDGE_CURVE('',#360,#361,#193,.T.);
#442=EDGE_CURVE('',#361,#361,#292,.T.);
#443=EDGE_CURVE('',#362,#362,#293,.T.);
#444=EDGE_CURVE('',#362,#363,#194,.T.);
#445=EDGE_CURVE('',#364,#363,#294,.T.);
#446=EDGE_CURVE('',#363,#364,#295,.T.);
#447=EDGE_CURVE('',#365,#365,#296,.T.);
#448=EDGE_CURVE('',#365,#364,#195,.T.);
#449=EDGE_CURVE('',#366,#366,#297,.T.);
#450=EDGE_CURVE('',#366,#365,#196,.T.);
#451=EDGE_CURVE('',#367,#368,#298,.T.);
#452=EDGE_CURVE('',#368,#367,#299,.T.);
#453=EDGE_CURVE('',#368,#369,#197,.T.);
#454=EDGE_CURVE('',#369,#369,#300,.T.);
#455=EDGE_CURVE('',#370,#370,#301,.T.);
#456=EDGE_CURVE('',#370,#371,#198,.T.);
#457=EDGE_CURVE('',#371,#371,#302,.T.);
#458=EDGE_CURVE('',#372,#373,#303,.T.);
#459=EDGE_CURVE('',#373,#372,#304,.T.);
#460=EDGE_CURVE('',#373,#374,#199,.T.);
#461=EDGE_CURVE('',#374,#374,#305,.T.);
#462=EDGE_CURVE('',#375,#375,#306,.T.);
#463=EDGE_CURVE('',#375,#376,#200,.T.);
#464=EDGE_CURVE('',#376,#376,#307,.T.);
#465=EDGE_CURVE('',#377,#378,#308,.T.);
#466=EDGE_CURVE('',#378,#377,#309,.T.);
#467=EDGE_CURVE('',#378,#379,#201,.T.);
#468=EDGE_CURVE('',#379,#379,#310,.T.);
#469=EDGE_CURVE('',#380,#380,#311,.T.);
#470=EDGE_CURVE('',#380,#381,#202,.T.);
#471=EDGE_CURVE('',#381,#381,#312,.T.);
#472=EDGE_CURVE('',#382,#383,#313,.T.);
#473=EDGE_CURVE('',#383,#382,#314,.T.);
#474=EDGE_CURVE('',#383,#384,#203,.T.);
#475=EDGE_CURVE('',#384,#384,#315,.T.);
#476=EDGE_CURVE('',#385,#385,#316,.T.);
#477=EDGE_CURVE('',#385,#386,#204,.T.);
#478=EDGE_CURVE('',#386,#386,#317,.T.);
#479=EDGE_CURVE('',#387,#388,#318,.T.);
#480=EDGE_CURVE('',#388,#387,#319,.T.);
#481=EDGE_CURVE('',#388,#389,#205,.T.);
#482=EDGE_CURVE('',#389,#389,#320,.T.);
#483=EDGE_CURVE('',#390,#390,#321,.T.);
#484=EDGE_CURVE('',#390,#391,#206,.T.);
#485=EDGE_CURVE('',#391,#391,#322,.T.);
#486=EDGE_CURVE('',#392,#393,#323,.T.);
#487=EDGE_CURVE('',#393,#392,#324,.T.);
#488=EDGE_CURVE('',#393,#394,#207,.T.);
#489=EDGE_CURVE('',#394,#394,#325,.T.);
#490=EDGE_CURVE('',#395,#395,#326,.T.);
#491=EDGE_CURVE('',#395,#396,#208,.T.);
#492=EDGE_CURVE('',#396,#396,#327,.T.);
#493=EDGE_CURVE('',#397,#397,#328,.T.);
#494=EDGE_CURVE('',#397,#398,#209,.T.);
#495=EDGE_CURVE('',#398,#398,#329,.T.);
#496=EDGE_CURVE('',#399,#400,#330,.T.);
#497=EDGE_CURVE('',#401,#399,#210,.T.);
#498=EDGE_CURVE('',#402,#401,#331,.T.);
#499=EDGE_CURVE('',#403,#402,#332,.T.);
#500=EDGE_CURVE('',#400,#403,#211,.T.);
#501=EDGE_CURVE('',#367,#370,#212,.T.);
#502=EDGE_CURVE('',#372,#375,#213,.T.);
#503=EDGE_CURVE('',#377,#380,#214,.T.);
#504=EDGE_CURVE('',#382,#385,#215,.T.);
#505=EDGE_CURVE('',#387,#390,#216,.T.);
#506=EDGE_CURVE('',#392,#395,#217,.T.);
#507=EDGE_CURVE('',#404,#404,#333,.T.);
#508=EDGE_CURVE('',#404,#405,#218,.T.);
#509=EDGE_CURVE('',#405,#406,#334,.T.);
#510=EDGE_CURVE('',#406,#405,#335,.T.);
#511=EDGE_CURVE('',#407,#408,#336,.T.);
#512=EDGE_CURVE('',#408,#406,#219,.T.);
#513=EDGE_CURVE('',#408,#407,#337,.T.);
#514=EDGE_CURVE('',#407,#409,#220,.T.);
#515=EDGE_CURVE('',#409,#410,#338,.T.);
#516=EDGE_CURVE('',#411,#410,#221,.T.);
#517=EDGE_CURVE('',#412,#411,#339,.T.);
#518=EDGE_CURVE('',#413,#412,#222,.T.);
#519=EDGE_CURVE('',#413,#409,#340,.T.);
#520=EDGE_CURVE('',#402,#397,#223,.T.);
#521=EDGE_CURVE('',#414,#401,#224,.T.);
#522=EDGE_CURVE('',#415,#414,#341,.T.);
#523=EDGE_CURVE('',#403,#415,#225,.T.);
#524=EDGE_CURVE('',#399,#413,#226,.T.);
#525=EDGE_CURVE('',#410,#400,#227,.T.);
#526=EDGE_CURVE('',#414,#412,#228,.T.);
#527=EDGE_CURVE('',#411,#415,#229,.T.);
#528=ORIENTED_EDGE('',*,*,#416,.F.);
#529=ORIENTED_EDGE('',*,*,#417,.T.);
#530=ORIENTED_EDGE('',*,*,#418,.T.);
#531=ORIENTED_EDGE('',*,*,#417,.F.);
#532=ORIENTED_EDGE('',*,*,#419,.T.);
#533=ORIENTED_EDGE('',*,*,#416,.T.);
#534=ORIENTED_EDGE('',*,*,#419,.F.);
#535=ORIENTED_EDGE('',*,*,#420,.F.);
#536=ORIENTED_EDGE('',*,*,#421,.T.);
#537=ORIENTED_EDGE('',*,*,#422,.T.);
#538=ORIENTED_EDGE('',*,*,#421,.F.);
#539=ORIENTED_EDGE('',*,*,#423,.T.);
#540=ORIENTED_EDGE('',*,*,#420,.T.);
#541=ORIENTED_EDGE('',*,*,#423,.F.);
#542=ORIENTED_EDGE('',*,*,#424,.F.);
#543=ORIENTED_EDGE('',*,*,#425,.T.);
#544=ORIENTED_EDGE('',*,*,#426,.T.);
#545=ORIENTED_EDGE('',*,*,#425,.F.);
#546=ORIENTED_EDGE('',*,*,#427,.T.);
#547=ORIENTED_EDGE('',*,*,#424,.T.);
#548=ORIENTED_EDGE('',*,*,#427,.F.);
#549=ORIENTED_EDGE('',*,*,#428,.F.);
#550=ORIENTED_EDGE('',*,*,#429,.T.);
#551=ORIENTED_EDGE('',*,*,#430,.T.);
#552=ORIENTED_EDGE('',*,*,#429,.F.);
#553=ORIENTED_EDGE('',*,*,#431,.T.);
#554=ORIENTED_EDGE('',*,*,#428,.T.);
#555=ORIENTED_EDGE('',*,*,#431,.F.);
#556=ORIENTED_EDGE('',*,*,#432,.F.);
#557=ORIENTED_EDGE('',*,*,#433,.T.);
#558=ORIENTED_EDGE('',*,*,#434,.T.);
#559=ORIENTED_EDGE('',*,*,#433,.F.);
#560=ORIENTED_EDGE('',*,*,#435,.T.);
#561=ORIENTED_EDGE('',*,*,#432,.T.);
#562=ORIENTED_EDGE('',*,*,#435,.F.);
#563=ORIENTED_EDGE('',*,*,#436,.F.);
#564=ORIENTED_EDGE('',*,*,#437,.T.);
#565=ORIENTED_EDGE('',*,*,#438,.T.);
#566=ORIENTED_EDGE('',*,*,#437,.F.);
#567=ORIENTED_EDGE('',*,*,#439,.T.);
#568=ORIENTED_EDGE('',*,*,#436,.T.);
#569=ORIENTED_EDGE('',*,*,#439,.F.);
#570=ORIENTED_EDGE('',*,*,#440,.F.);
#571=ORIENTED_EDGE('',*,*,#441,.T.);
#572=ORIENTED_EDGE('',*,*,#442,.T.);
#573=ORIENTED_EDGE('',*,*,#441,.F.);
#574=ORIENTED_EDGE('',*,*,#443,.T.);
#575=ORIENTED_EDGE('',*,*,#444,.T.);
#576=ORIENTED_EDGE('',*,*,#445,.F.);
#577=ORIENTED_EDGE('',*,*,#446,.F.);
#578=ORIENTED_EDGE('',*,*,#444,.F.);
#579=ORIENTED_EDGE('',*,*,#447,.F.);
#580=ORIENTED_EDGE('',*,*,#448,.T.);
#581=ORIENTED_EDGE('',*,*,#445,.T.);
#582=ORIENTED_EDGE('',*,*,#446,.T.);
#583=ORIENTED_EDGE('',*,*,#448,.F.);
#584=ORIENTED_EDGE('',*,*,#449,.F.);
#585=ORIENTED_EDGE('',*,*,#450,.T.);
#586=ORIENTED_EDGE('',*,*,#447,.T.);
#587=ORIENTED_EDGE('',*,*,#450,.F.);
#588=ORIENTED_EDGE('',*,*,#451,.F.);
#589=ORIENTED_EDGE('',*,*,#452,.F.);
#590=ORIENTED_EDGE('',*,*,#453,.T.);
#591=ORIENTED_EDGE('',*,*,#454,.F.);
#592=ORIENTED_EDGE('',*,*,#453,.F.);
#593=ORIENTED_EDGE('',*,*,#455,.F.);
#594=ORIENTED_EDGE('',*,*,#456,.T.);
#595=ORIENTED_EDGE('',*,*,#457,.F.);
#596=ORIENTED_EDGE('',*,*,#456,.F.);
#597=ORIENTED_EDGE('',*,*,#458,.F.);
#598=ORIENTED_EDGE('',*,*,#459,.F.);
#599=ORIENTED_EDGE('',*,*,#460,.T.);
#600=ORIENTED_EDGE('',*,*,#461,.F.);
#601=ORIENTED_EDGE('',*,*,#460,.F.);
#602=ORIENTED_EDGE('',*,*,#462,.F.);
#603=ORIENTED_EDGE('',*,*,#463,.T.);
#604=ORIENTED_EDGE('',*,*,#464,.F.);
#605=ORIENTED_EDGE('',*,*,#463,.F.);
#606=ORIENTED_EDGE('',*,*,#465,.F.);
#607=ORIENTED_EDGE('',*,*,#466,.F.);
#608=ORIENTED_EDGE('',*,*,#467,.T.);
#609=ORIENTED_EDGE('',*,*,#468,.F.);
#610=ORIENTED_EDGE('',*,*,#467,.F.);
#611=ORIENTED_EDGE('',*,*,#469,.F.);
#612=ORIENTED_EDGE('',*,*,#470,.T.);
#613=ORIENTED_EDGE('',*,*,#471,.F.);
#614=ORIENTED_EDGE('',*,*,#470,.F.);
#615=ORIENTED_EDGE('',*,*,#472,.F.);
#616=ORIENTED_EDGE('',*,*,#473,.F.);
#617=ORIENTED_EDGE('',*,*,#474,.T.);
#618=ORIENTED_EDGE('',*,*,#475,.F.);
#619=ORIENTED_EDGE('',*,*,#474,.F.);
#620=ORIENTED_EDGE('',*,*,#476,.F.);
#621=ORIENTED_EDGE('',*,*,#477,.T.);
#622=ORIENTED_EDGE('',*,*,#478,.F.);
#623=ORIENTED_EDGE('',*,*,#477,.F.);
#624=ORIENTED_EDGE('',*,*,#479,.F.);
#625=ORIENTED_EDGE('',*,*,#480,.F.);
#626=ORIENTED_EDGE('',*,*,#481,.T.);
#627=ORIENTED_EDGE('',*,*,#482,.F.);
#628=ORIENTED_EDGE('',*,*,#481,.F.);
#629=ORIENTED_EDGE('',*,*,#483,.F.);
#630=ORIENTED_EDGE('',*,*,#484,.T.);
#631=ORIENTED_EDGE('',*,*,#485,.F.);
#632=ORIENTED_EDGE('',*,*,#484,.F.);
#633=ORIENTED_EDGE('',*,*,#486,.F.);
#634=ORIENTED_EDGE('',*,*,#487,.F.);
#635=ORIENTED_EDGE('',*,*,#488,.T.);
#636=ORIENTED_EDGE('',*,*,#489,.F.);
#637=ORIENTED_EDGE('',*,*,#488,.F.);
#638=ORIENTED_EDGE('',*,*,#490,.F.);
#639=ORIENTED_EDGE('',*,*,#491,.T.);
#640=ORIENTED_EDGE('',*,*,#492,.F.);
#641=ORIENTED_EDGE('',*,*,#491,.F.);
#642=ORIENTED_EDGE('',*,*,#493,.F.);
#643=ORIENTED_EDGE('',*,*,#494,.T.);
#644=ORIENTED_EDGE('',*,*,#495,.F.);
#645=ORIENTED_EDGE('',*,*,#494,.F.);
#646=ORIENTED_EDGE('',*,*,#496,.F.);
#647=ORIENTED_EDGE('',*,*,#497,.F.);
#648=ORIENTED_EDGE('',*,*,#498,.F.);
#649=ORIENTED_EDGE('',*,*,#499,.F.);
#650=ORIENTED_EDGE('',*,*,#500,.F.);
#651=ORIENTED_EDGE('',*,*,#451,.T.);
#652=ORIENTED_EDGE('',*,*,#452,.T.);
#653=ORIENTED_EDGE('',*,*,#501,.T.);
#654=ORIENTED_EDGE('',*,*,#455,.T.);
#655=ORIENTED_EDGE('',*,*,#501,.F.);
#656=ORIENTED_EDGE('',*,*,#458,.T.);
#657=ORIENTED_EDGE('',*,*,#459,.T.);
#658=ORIENTED_EDGE('',*,*,#502,.T.);
#659=ORIENTED_EDGE('',*,*,#462,.T.);
#660=ORIENTED_EDGE('',*,*,#502,.F.);
#661=ORIENTED_EDGE('',*,*,#465,.T.);
#662=ORIENTED_EDGE('',*,*,#466,.T.);
#663=ORIENTED_EDGE('',*,*,#503,.T.);
#664=ORIENTED_EDGE('',*,*,#469,.T.);
#665=ORIENTED_EDGE('',*,*,#503,.F.);
#666=ORIENTED_EDGE('',*,*,#472,.T.);
#667=ORIENTED_EDGE('',*,*,#473,.T.);
#668=ORIENTED_EDGE('',*,*,#504,.T.);
#669=ORIENTED_EDGE('',*,*,#476,.T.);
#670=ORIENTED_EDGE('',*,*,#504,.F.);
#671=ORIENTED_EDGE('',*,*,#479,.T.);
#672=ORIENTED_EDGE('',*,*,#480,.T.);
#673=ORIENTED_EDGE('',*,*,#505,.T.);
#674=ORIENTED_EDGE('',*,*,#483,.T.);
#675=ORIENTED_EDGE('',*,*,#505,.F.);
#676=ORIENTED_EDGE('',*,*,#486,.T.);
#677=ORIENTED_EDGE('',*,*,#487,.T.);
#678=ORIENTED_EDGE('',*,*,#506,.T.);
#679=ORIENTED_EDGE('',*,*,#490,.T.);
#680=ORIENTED_EDGE('',*,*,#506,.F.);
#681=ORIENTED_EDGE('',*,*,#507,.F.);
#682=ORIENTED_EDGE('',*,*,#508,.T.);
#683=ORIENTED_EDGE('',*,*,#509,.T.);
#684=ORIENTED_EDGE('',*,*,#510,.T.);
#685=ORIENTED_EDGE('',*,*,#508,.F.);
#686=ORIENTED_EDGE('',*,*,#511,.T.);
#687=ORIENTED_EDGE('',*,*,#512,.T.);
#688=ORIENTED_EDGE('',*,*,#509,.F.);
#689=ORIENTED_EDGE('',*,*,#510,.F.);
#690=ORIENTED_EDGE('',*,*,#512,.F.);
#691=ORIENTED_EDGE('',*,*,#513,.T.);
#692=ORIENTED_EDGE('',*,*,#511,.F.);
#693=ORIENTED_EDGE('',*,*,#514,.T.);
#694=ORIENTED_EDGE('',*,*,#515,.T.);
#695=ORIENTED_EDGE('',*,*,#516,.F.);
#696=ORIENTED_EDGE('',*,*,#517,.F.);
#697=ORIENTED_EDGE('',*,*,#518,.F.);
#698=ORIENTED_EDGE('',*,*,#519,.T.);
#699=ORIENTED_EDGE('',*,*,#514,.F.);
#700=ORIENTED_EDGE('',*,*,#513,.F.);
#701=ORIENTED_EDGE('',*,*,#499,.T.);
#702=ORIENTED_EDGE('',*,*,#520,.T.);
#703=ORIENTED_EDGE('',*,*,#493,.T.);
#704=ORIENTED_EDGE('',*,*,#520,.F.);
#705=ORIENTED_EDGE('',*,*,#498,.T.);
#706=ORIENTED_EDGE('',*,*,#521,.F.);
#707=ORIENTED_EDGE('',*,*,#522,.F.);
#708=ORIENTED_EDGE('',*,*,#523,.F.);
#709=ORIENTED_EDGE('',*,*,#495,.T.);
#710=ORIENTED_EDGE('',*,*,#418,.F.);
#711=ORIENTED_EDGE('',*,*,#422,.F.);
#712=ORIENTED_EDGE('',*,*,#426,.F.);
#713=ORIENTED_EDGE('',*,*,#430,.F.);
#714=ORIENTED_EDGE('',*,*,#434,.F.);
#715=ORIENTED_EDGE('',*,*,#438,.F.);
#716=ORIENTED_EDGE('',*,*,#449,.T.);
#717=ORIENTED_EDGE('',*,*,#492,.T.);
#718=ORIENTED_EDGE('',*,*,#485,.T.);
#719=ORIENTED_EDGE('',*,*,#478,.T.);
#720=ORIENTED_EDGE('',*,*,#471,.T.);
#721=ORIENTED_EDGE('',*,*,#464,.T.);
#722=ORIENTED_EDGE('',*,*,#457,.T.);
#723=ORIENTED_EDGE('',*,*,#524,.F.);
#724=ORIENTED_EDGE('',*,*,#496,.T.);
#725=ORIENTED_EDGE('',*,*,#525,.F.);
#726=ORIENTED_EDGE('',*,*,#515,.F.);
#727=ORIENTED_EDGE('',*,*,#519,.F.);
#728=ORIENTED_EDGE('',*,*,#489,.T.);
#729=ORIENTED_EDGE('',*,*,#482,.T.);
#730=ORIENTED_EDGE('',*,*,#475,.T.);
#731=ORIENTED_EDGE('',*,*,#468,.T.);
#732=ORIENTED_EDGE('',*,*,#461,.T.);
#733=ORIENTED_EDGE('',*,*,#454,.T.);
#734=ORIENTED_EDGE('',*,*,#507,.T.);
#735=ORIENTED_EDGE('',*,*,#442,.F.);
#736=ORIENTED_EDGE('',*,*,#518,.T.);
#737=ORIENTED_EDGE('',*,*,#526,.F.);
#738=ORIENTED_EDGE('',*,*,#521,.T.);
#739=ORIENTED_EDGE('',*,*,#497,.T.);
#740=ORIENTED_EDGE('',*,*,#524,.T.);
#741=ORIENTED_EDGE('',*,*,#516,.T.);
#742=ORIENTED_EDGE('',*,*,#525,.T.);
#743=ORIENTED_EDGE('',*,*,#500,.T.);
#744=ORIENTED_EDGE('',*,*,#523,.T.);
#745=ORIENTED_EDGE('',*,*,#527,.F.);
#746=ORIENTED_EDGE('',*,*,#522,.T.);
#747=ORIENTED_EDGE('',*,*,#526,.T.);
#748=ORIENTED_EDGE('',*,*,#517,.T.);
#749=ORIENTED_EDGE('',*,*,#527,.T.);
#750=ORIENTED_EDGE('',*,*,#443,.F.);
#751=ORIENTED_EDGE('',*,*,#440,.T.);
#752=CYLINDRICAL_SURFACE('',#842,1.65);
#753=CYLINDRICAL_SURFACE('',#846,1.65);
#754=CYLINDRICAL_SURFACE('',#850,1.65);
#755=CYLINDRICAL_SURFACE('',#854,1.65);
#756=CYLINDRICAL_SURFACE('',#858,1.65);
#757=CYLINDRICAL_SURFACE('',#862,1.65);
#758=CYLINDRICAL_SURFACE('',#866,8.);
#759=CYLINDRICAL_SURFACE('',#875,10.75);
#760=CYLINDRICAL_SURFACE('',#926,3.35);
#761=CYLINDRICAL_SURFACE('',#927,3.35);
#762=CYLINDRICAL_SURFACE('',#928,3.35);
#763=CYLINDRICAL_SURFACE('',#929,3.35);
#764=CYLINDRICAL_SURFACE('',#930,3.35);
#765=CYLINDRICAL_SURFACE('',#931,3.35);
#766=CYLINDRICAL_SURFACE('',#939,24.175);
#767=CYLINDRICAL_SURFACE('',#943,35.);
#768=STYLED_ITEM('',(#1478),#781);
#769=STYLED_ITEM('',(#1478),#782);
#770=STYLED_ITEM('',(#1478),#783);
#771=STYLED_ITEM('',(#1478),#784);
#772=STYLED_ITEM('',(#1478),#785);
#773=STYLED_ITEM('',(#1478),#786);
#774=STYLED_ITEM('',(#1478),#787);
#775=STYLED_ITEM('',(#1478),#788);
#776=STYLED_ITEM('',(#1478),#789);
#777=STYLED_ITEM('',(#1478),#790);
#778=STYLED_ITEM('',(#1478),#791);
#779=STYLED_ITEM('',(#1478),#792);
#780=STYLED_ITEM('',(#1477),#13);
#781=ADVANCED_FACE('',(#66),#752,.F.);
#782=ADVANCED_FACE('',(#67),#42,.F.);
#783=ADVANCED_FACE('',(#68),#753,.F.);
#784=ADVANCED_FACE('',(#69),#43,.F.);
#785=ADVANCED_FACE('',(#70),#754,.F.);
#786=ADVANCED_FACE('',(#71),#44,.F.);
#787=ADVANCED_FACE('',(#72),#755,.F.);
#788=ADVANCED_FACE('',(#73),#45,.F.);
#789=ADVANCED_FACE('',(#74),#756,.F.);
#790=ADVANCED_FACE('',(#75),#46,.F.);
#791=ADVANCED_FACE('',(#76),#757,.F.);
#792=ADVANCED_FACE('',(#77),#47,.F.);
#793=ADVANCED_FACE('',(#78),#758,.F.);
#794=ADVANCED_FACE('',(#79),#48,.F.);
#795=ADVANCED_FACE('',(#80),#49,.T.);
#796=ADVANCED_FACE('',(#81),#759,.F.);
#797=ADVANCED_FACE('',(#82),#50,.F.);
#798=ADVANCED_FACE('',(#83),#51,.F.);
#799=ADVANCED_FACE('',(#84),#52,.F.);
#800=ADVANCED_FACE('',(#85),#53,.F.);
#801=ADVANCED_FACE('',(#86),#54,.F.);
#802=ADVANCED_FACE('',(#87),#55,.F.);
#803=ADVANCED_FACE('',(#88),#56,.F.);
#804=ADVANCED_FACE('',(#89),#57,.F.);
#805=ADVANCED_FACE('',(#90),#58,.F.);
#806=ADVANCED_FACE('',(#91),#59,.F.);
#807=ADVANCED_FACE('',(#92),#60,.F.);
#808=ADVANCED_FACE('',(#93),#61,.F.);
#809=ADVANCED_FACE('',(#94),#62,.T.);
#810=ADVANCED_FACE('',(#95),#63,.T.);
#811=ADVANCED_FACE('',(#96),#760,.F.);
#812=ADVANCED_FACE('',(#97),#761,.F.);
#813=ADVANCED_FACE('',(#98),#762,.F.);
#814=ADVANCED_FACE('',(#99),#763,.F.);
#815=ADVANCED_FACE('',(#100),#764,.F.);
#816=ADVANCED_FACE('',(#101),#765,.F.);
#817=ADVANCED_FACE('',(#102),#64,.F.);
#818=ADVANCED_FACE('',(#103),#65,.T.);
#819=ADVANCED_FACE('',(#104),#766,.F.);
#820=ADVANCED_FACE('',(#105),#767,.T.);
#821=ADVANCED_FACE('',(#106,#14,#15,#16,#17,#18,#19,#20,#21,#22,#23,#24,
#25,#26),#35,.T.);
#822=ADVANCED_FACE('',(#107,#27,#28,#29,#30,#31,#32),#36,.T.);
#823=ADVANCED_FACE('',(#108,#33),#37,.T.);
#824=ADVANCED_FACE('',(#109),#38,.F.);
#825=ADVANCED_FACE('',(#110),#39,.F.);
#826=ADVANCED_FACE('',(#111),#40,.F.);
#827=ADVANCED_FACE('',(#112,#34),#41,.F.);
#828=CLOSED_SHELL('',(#781,#782,#783,#784,#785,#786,#787,#788,#789,#790,
#791,#792,#793,#794,#795,#796,#797,#798,#799,#800,#801,#802,#803,#804,#805,
#806,#807,#808,#809,#810,#811,#812,#813,#814,#815,#816,#817,#818,#819,#820,
#821,#822,#823,#824,#825,#826,#827));
#829=DERIVED_UNIT_ELEMENT(#831,1.);
#830=DERIVED_UNIT_ELEMENT(#1462,-3.);
#831=(
MASS_UNIT()
NAMED_UNIT(*)
SI_UNIT(.KILO.,.GRAM.)
);
#832=DERIVED_UNIT((#829,#830));
#833=MEASURE_REPRESENTATION_ITEM('density measure',
POSITIVE_RATIO_MEASURE(7850.),#832);
#834=PROPERTY_DEFINITION_REPRESENTATION(#839,#836);
#835=PROPERTY_DEFINITION_REPRESENTATION(#840,#837);
#836=REPRESENTATION('material name',(#838),#1459);
#837=REPRESENTATION('density',(#833),#1459);
#838=DESCRIPTIVE_REPRESENTATION_ITEM('Steel','Steel');
#839=PROPERTY_DEFINITION('material property','material name',#1469);
#840=PROPERTY_DEFINITION('material property','density of part',#1469);
#841=AXIS2_PLACEMENT_3D('',#1223,#952,#953);
#842=AXIS2_PLACEMENT_3D('',#1224,#954,#955);
#843=AXIS2_PLACEMENT_3D('',#1226,#956,#957);
#844=AXIS2_PLACEMENT_3D('',#1229,#959,#960);
#845=AXIS2_PLACEMENT_3D('',#1230,#961,#962);
#846=AXIS2_PLACEMENT_3D('',#1233,#964,#965);
#847=AXIS2_PLACEMENT_3D('',#1235,#966,#967);
#848=AXIS2_PLACEMENT_3D('',#1238,#969,#970);
#849=AXIS2_PLACEMENT_3D('',#1239,#971,#972);
#850=AXIS2_PLACEMENT_3D('',#1242,#974,#975);
#851=AXIS2_PLACEMENT_3D('',#1244,#976,#977);
#852=AXIS2_PLACEMENT_3D('',#1247,#979,#980);
#853=AXIS2_PLACEMENT_3D('',#1248,#981,#982);
#854=AXIS2_PLACEMENT_3D('',#1251,#984,#985);
#855=AXIS2_PLACEMENT_3D('',#1253,#986,#987);
#856=AXIS2_PLACEMENT_3D('',#1256,#989,#990);
#857=AXIS2_PLACEMENT_3D('',#1257,#991,#992);
#858=AXIS2_PLACEMENT_3D('',#1260,#994,#995);
#859=AXIS2_PLACEMENT_3D('',#1262,#996,#997);
#860=AXIS2_PLACEMENT_3D('',#1265,#999,#1000);
#861=AXIS2_PLACEMENT_3D('',#1266,#1001,#1002);
#862=AXIS2_PLACEMENT_3D('',#1269,#1004,#1005);
#863=AXIS2_PLACEMENT_3D('',#1271,#1006,#1007);
#864=AXIS2_PLACEMENT_3D('',#1274,#1009,#1010);
#865=AXIS2_PLACEMENT_3D('',#1275,#1011,#1012);
#866=AXIS2_PLACEMENT_3D('',#1278,#1014,#1015);
#867=AXIS2_PLACEMENT_3D('',#1280,#1016,#1017);
#868=AXIS2_PLACEMENT_3D('',#1283,#1019,#1020);
#869=AXIS2_PLACEMENT_3D('',#1284,#1021,#1022);
#870=AXIS2_PLACEMENT_3D('',#1286,#1023,#1024);
#871=AXIS2_PLACEMENT_3D('',#1290,#1026,#1027);
#872=AXIS2_PLACEMENT_3D('',#1291,#1028,#1029);
#873=AXIS2_PLACEMENT_3D('',#1292,#1030,#1031);
#874=AXIS2_PLACEMENT_3D('',#1294,#1032,#1033);
#875=AXIS2_PLACEMENT_3D('',#1296,#1035,#1036);
#876=AXIS2_PLACEMENT_3D('',#1298,#1037,#1038);
#877=AXIS2_PLACEMENT_3D('',#1300,#1040,#1041);
#878=AXIS2_PLACEMENT_3D('',#1303,#1042,#1043);
#879=AXIS2_PLACEMENT_3D('',#1304,#1044,#1045);
#880=AXIS2_PLACEMENT_3D('',#1307,#1047,#1048);
#881=AXIS2_PLACEMENT_3D('',#1308,#1049,#1050);
#882=AXIS2_PLACEMENT_3D('',#1310,#1051,#1052);
#883=AXIS2_PLACEMENT_3D('',#1313,#1054,#1055);
#884=AXIS2_PLACEMENT_3D('',#1314,#1056,#1057);
#885=AXIS2_PLACEMENT_3D('',#1317,#1058,#1059);
#886=AXIS2_PLACEMENT_3D('',#1318,#1060,#1061);
#887=AXIS2_PLACEMENT_3D('',#1321,#1063,#1064);
#888=AXIS2_PLACEMENT_3D('',#1322,#1065,#1066);
#889=AXIS2_PLACEMENT_3D('',#1324,#1067,#1068);
#890=AXIS2_PLACEMENT_3D('',#1327,#1070,#1071);
#891=AXIS2_PLACEMENT_3D('',#1328,#1072,#1073);
#892=AXIS2_PLACEMENT_3D('',#1331,#1074,#1075);
#893=AXIS2_PLACEMENT_3D('',#1332,#1076,#1077);
#894=AXIS2_PLACEMENT_3D('',#1335,#1079,#1080);
#895=AXIS2_PLACEMENT_3D('',#1336,#1081,#1082);
#896=AXIS2_PLACEMENT_3D('',#1338,#1083,#1084);
#897=AXIS2_PLACEMENT_3D('',#1341,#1086,#1087);
#898=AXIS2_PLACEMENT_3D('',#1342,#1088,#1089);
#899=AXIS2_PLACEMENT_3D('',#1345,#1090,#1091);
#900=AXIS2_PLACEMENT_3D('',#1346,#1092,#1093);
#901=AXIS2_PLACEMENT_3D('',#1349,#1095,#1096);
#902=AXIS2_PLACEMENT_3D('',#1350,#1097,#1098);
#903=AXIS2_PLACEMENT_3D('',#1352,#1099,#1100);
#904=AXIS2_PLACEMENT_3D('',#1355,#1102,#1103);
#905=AXIS2_PLACEMENT_3D('',#1356,#1104,#1105);
#906=AXIS2_PLACEMENT_3D('',#1359,#1106,#1107);
#907=AXIS2_PLACEMENT_3D('',#1360,#1108,#1109);
#908=AXIS2_PLACEMENT_3D('',#1363,#1111,#1112);
#909=AXIS2_PLACEMENT_3D('',#1364,#1113,#1114);
#910=AXIS2_PLACEMENT_3D('',#1366,#1115,#1116);
#911=AXIS2_PLACEMENT_3D('',#1369,#1118,#1119);
#912=AXIS2_PLACEMENT_3D('',#1370,#1120,#1121);
#913=AXIS2_PLACEMENT_3D('',#1373,#1122,#1123);
#914=AXIS2_PLACEMENT_3D('',#1374,#1124,#1125);
#915=AXIS2_PLACEMENT_3D('',#1377,#1127,#1128);
#916=AXIS2_PLACEMENT_3D('',#1378,#1129,#1130);
#917=AXIS2_PLACEMENT_3D('',#1380,#1131,#1132);
#918=AXIS2_PLACEMENT_3D('',#1383,#1134,#1135);
#919=AXIS2_PLACEMENT_3D('',#1384,#1136,#1137);
#920=AXIS2_PLACEMENT_3D('',#1386,#1138,#1139);
#921=AXIS2_PLACEMENT_3D('',#1389,#1141,#1142);
#922=AXIS2_PLACEMENT_3D('',#1390,#1143,#1144);
#923=AXIS2_PLACEMENT_3D('',#1393,#1145,#1146);
#924=AXIS2_PLACEMENT_3D('',#1397,#1148,#1149);
#925=AXIS2_PLACEMENT_3D('',#1399,#1150,#1151);
#926=AXIS2_PLACEMENT_3D('',#1401,#1153,#1154);
#927=AXIS2_PLACEMENT_3D('',#1403,#1156,#1157);
#928=AXIS2_PLACEMENT_3D('',#1405,#1159,#1160);
#929=AXIS2_PLACEMENT_3D('',#1407,#1162,#1163);
#930=AXIS2_PLACEMENT_3D('',#1409,#1165,#1166);
#931=AXIS2_PLACEMENT_3D('',#1411,#1168,#1169);
#932=AXIS2_PLACEMENT_3D('',#1413,#1171,#1172);
#933=AXIS2_PLACEMENT_3D('',#1415,#1173,#1174);
#934=AXIS2_PLACEMENT_3D('',#1419,#1176,#1177);
#935=AXIS2_PLACEMENT_3D('',#1420,#1178,#1179);
#936=AXIS2_PLACEMENT_3D('',#1421,#1180,#1181);
#937=AXIS2_PLACEMENT_3D('',#1424,#1182,#1183);
#938=AXIS2_PLACEMENT_3D('',#1426,#1185,#1186);
#939=AXIS2_PLACEMENT_3D('',#1427,#1187,#1188);
#940=AXIS2_PLACEMENT_3D('',#1431,#1190,#1191);
#941=AXIS2_PLACEMENT_3D('',#1435,#1193,#1194);
#942=AXIS2_PLACEMENT_3D('',#1438,#1196,#1197);
#943=AXIS2_PLACEMENT_3D('',#1439,#1198,#1199);
#944=AXIS2_PLACEMENT_3D('',#1444,#1202,#1203);
#945=AXIS2_PLACEMENT_3D('',#1446,#1205,#1206);
#946=AXIS2_PLACEMENT_3D('',#1447,#1207,#1208);
#947=AXIS2_PLACEMENT_3D('',#1450,#1211,#1212);
#948=AXIS2_PLACEMENT_3D('',#1451,#1213,#1214);
#949=AXIS2_PLACEMENT_3D('',#1453,#1216,#1217);
#950=AXIS2_PLACEMENT_3D('',#1455,#1219,#1220);
#951=AXIS2_PLACEMENT_3D('',#1456,#1221,#1222);
#952=DIRECTION('axis',(0.,0.,1.));
#953=DIRECTION('refdir',(1.,0.,0.));
#954=DIRECTION('center_axis',(0.,-1.,0.));
#955=DIRECTION('ref_axis',(0.,0.,-1.));
#956=DIRECTION('center_axis',(0.,-1.,0.));
#957=DIRECTION('ref_axis',(0.,0.,-1.));
#958=DIRECTION('',(0.,-1.,0.));
#959=DIRECTION('center_axis',(0.,-1.,0.));
#960=DIRECTION('ref_axis',(0.,0.,-1.));
#961=DIRECTION('center_axis',(0.,-1.,0.));
#962=DIRECTION('ref_axis',(0.,0.,-1.));
#963=DIRECTION('',(-1.04972719113862E-16,-0.515038074910056,0.857167300702112));
#964=DIRECTION('center_axis',(0.,-1.,0.));
#965=DIRECTION('ref_axis',(0.,0.,-1.));
#966=DIRECTION('center_axis',(0.,-1.,0.));
#967=DIRECTION('ref_axis',(0.,0.,-1.));
#968=DIRECTION('',(0.,-1.,0.));
#969=DIRECTION('center_axis',(0.,-1.,0.));
#970=DIRECTION('ref_axis',(0.,0.,-1.));
#971=DIRECTION('center_axis',(0.,-1.,0.));
#972=DIRECTION('ref_axis',(0.,0.,-1.));
#973=DIRECTION('',(-1.04972719113862E-16,-0.515038074910056,0.857167300702112));
#974=DIRECTION('center_axis',(0.,-1.,0.));
#975=DIRECTION('ref_axis',(0.,0.,-1.));
#976=DIRECTION('center_axis',(0.,-1.,0.));
#977=DIRECTION('ref_axis',(0.,0.,-1.));
#978=DIRECTION('',(0.,-1.,0.));
#979=DIRECTION('center_axis',(0.,-1.,0.));
#980=DIRECTION('ref_axis',(0.,0.,-1.));
#981=DIRECTION('center_axis',(0.,-1.,0.));
#982=DIRECTION('ref_axis',(0.,0.,-1.));
#983=DIRECTION('',(-1.04972719113862E-16,-0.515038074910056,0.857167300702112));
#984=DIRECTION('center_axis',(0.,-1.,0.));
#985=DIRECTION('ref_axis',(0.,0.,-1.));
#986=DIRECTION('center_axis',(0.,-1.,0.));
#987=DIRECTION('ref_axis',(0.,0.,-1.));
#988=DIRECTION('',(0.,-1.,0.));
#989=DIRECTION('center_axis',(0.,-1.,0.));
#990=DIRECTION('ref_axis',(0.,0.,-1.));
#991=DIRECTION('center_axis',(0.,-1.,0.));
#992=DIRECTION('ref_axis',(0.,0.,-1.));
#993=DIRECTION('',(-1.04972719113862E-16,-0.515038074910056,0.857167300702112));
#994=DIRECTION('center_axis',(0.,-1.,0.));
#995=DIRECTION('ref_axis',(0.,0.,-1.));
#996=DIRECTION('center_axis',(0.,-1.,0.));
#997=DIRECTION('ref_axis',(0.,0.,-1.));
#998=DIRECTION('',(0.,-1.,0.));
#999=DIRECTION('center_axis',(0.,-1.,0.));
#1000=DIRECTION('ref_axis',(0.,0.,-1.));
#1001=DIRECTION('center_axis',(0.,-1.,0.));
#1002=DIRECTION('ref_axis',(0.,0.,-1.));
#1003=DIRECTION('',(-1.04972719113862E-16,-0.515038074910056,0.857167300702112));
#1004=DIRECTION('center_axis',(0.,-1.,0.));
#1005=DIRECTION('ref_axis',(0.,0.,-1.));
#1006=DIRECTION('center_axis',(0.,-1.,0.));
#1007=DIRECTION('ref_axis',(0.,0.,-1.));
#1008=DIRECTION('',(0.,-1.,0.));
#1009=DIRECTION('center_axis',(0.,-1.,0.));
#1010=DIRECTION('ref_axis',(0.,0.,-1.));
#1011=DIRECTION('center_axis',(0.,-1.,0.));
#1012=DIRECTION('ref_axis',(0.,0.,-1.));
#1013=DIRECTION('',(-1.04972719113862E-16,-0.515038074910056,0.857167300702112));
#1014=DIRECTION('center_axis',(0.,1.,0.));
#1015=DIRECTION('ref_axis',(0.,0.,1.));
#1016=DIRECTION('center_axis',(0.,1.,0.));
#1017=DIRECTION('ref_axis',(0.,0.,1.));
#1018=DIRECTION('',(0.,1.,0.));
#1019=DIRECTION('center_axis',(0.,1.,-1.54420742354709E-17));
#1020=DIRECTION('ref_axis',(0.,1.54420742354709E-17,1.));
#1021=DIRECTION('center_axis',(0.,-1.,0.));
#1022=DIRECTION('ref_axis',(0.,0.,-1.));
#1023=DIRECTION('center_axis',(0.,1.,0.));
#1024=DIRECTION('ref_axis',(0.,0.,1.));
#1025=DIRECTION('',(-4.18853873767705E-17,-0.939692620785907,0.342020143325674));
#1026=DIRECTION('center_axis',(0.,1.,0.));
#1027=DIRECTION('ref_axis',(0.,0.,1.));
#1028=DIRECTION('center_axis',(0.,1.,0.));
#1029=DIRECTION('ref_axis',(0.,0.,1.));
#1030=DIRECTION('center_axis',(0.,1.,0.));
#1031=DIRECTION('ref_axis',(0.,0.,1.));
#1032=DIRECTION('center_axis',(0.,1.,0.));
#1033=DIRECTION('ref_axis',(0.,0.,1.));
#1034=DIRECTION('',(1.15079156022785E-16,-0.342020143325672,0.939692620785907));
#1035=DIRECTION('center_axis',(0.,1.,0.));
#1036=DIRECTION('ref_axis',(0.,0.,1.));
#1037=DIRECTION('center_axis',(0.,1.,0.));
#1038=DIRECTION('ref_axis',(0.,0.,1.));
#1039=DIRECTION('',(0.,1.,0.));
#1040=DIRECTION('center_axis',(0.,1.,0.));
#1041=DIRECTION('ref_axis',(0.,0.,1.));
#1042=DIRECTION('center_axis',(0.,1.,0.));
#1043=DIRECTION('ref_axis',(0.,0.,1.));
#1044=DIRECTION('center_axis',(0.,1.,0.));
#1045=DIRECTION('ref_axis',(0.,0.,1.));
#1046=DIRECTION('',(-8.65956056235493E-17,0.707106781186548,-0.707106781186547));
#1047=DIRECTION('center_axis',(0.,-1.,1.54420742354709E-17));
#1048=DIRECTION('ref_axis',(0.,1.54420742354709E-17,1.));
#1049=DIRECTION('center_axis',(0.,-1.,0.));
#1050=DIRECTION('ref_axis',(0.,0.,-1.));
#1051=DIRECTION('center_axis',(0.,-1.,0.));
#1052=DIRECTION('ref_axis',(0.,0.,-1.));
#1053=DIRECTION('',(-8.65956056235511E-17,-0.707106781186533,0.707106781186562));
#1054=DIRECTION('center_axis',(0.,1.,-1.54420742354709E-17));
#1055=DIRECTION('ref_axis',(0.,-1.54420742354709E-17,-1.));
#1056=DIRECTION('center_axis',(0.,1.,0.));
#1057=DIRECTION('ref_axis',(0.,0.,1.));
#1058=DIRECTION('center_axis',(0.,1.,0.));
#1059=DIRECTION('ref_axis',(0.,0.,1.));
#1060=DIRECTION('center_axis',(0.,1.,0.));
#1061=DIRECTION('ref_axis',(0.,0.,1.));
#1062=DIRECTION('',(-8.65956056235492E-17,0.707106781186548,-0.707106781186547));
#1063=DIRECTION('center_axis',(0.,-1.,1.54420742354709E-17));
#1064=DIRECTION('ref_axis',(0.,1.54420742354709E-17,1.));
#1065=DIRECTION('center_axis',(0.,-1.,0.));
#1066=DIRECTION('ref_axis',(0.,0.,-1.));
#1067=DIRECTION('center_axis',(0.,-1.,0.));
#1068=DIRECTION('ref_axis',(0.,0.,-1.));
#1069=DIRECTION('',(-8.65956056235506E-17,-0.707106781186537,0.707106781186558));
#1070=DIRECTION('center_axis',(0.,1.,-1.54420742354709E-17));
#1071=DIRECTION('ref_axis',(0.,-1.54420742354709E-17,-1.));
#1072=DIRECTION('center_axis',(0.,1.,0.));
#1073=DIRECTION('ref_axis',(0.,0.,1.));
#1074=DIRECTION('center_axis',(0.,1.,0.));
#1075=DIRECTION('ref_axis',(0.,0.,1.));
#1076=DIRECTION('center_axis',(0.,1.,0.));
#1077=DIRECTION('ref_axis',(0.,0.,1.));
#1078=DIRECTION('',(-8.65956056235477E-17,0.707106781186561,-0.707106781186534));
#1079=DIRECTION('center_axis',(0.,-1.,1.54420742354709E-17));
#1080=DIRECTION('ref_axis',(0.,1.54420742354709E-17,1.));
#1081=DIRECTION('center_axis',(0.,-1.,0.));
#1082=DIRECTION('ref_axis',(0.,0.,-1.));
#1083=DIRECTION('center_axis',(0.,-1.,0.));
#1084=DIRECTION('ref_axis',(0.,0.,-1.));
#1085=DIRECTION('',(-8.65956056235497E-17,-0.707106781186545,0.707106781186551));
#1086=DIRECTION('center_axis',(0.,1.,-1.54420742354709E-17));
#1087=DIRECTION('ref_axis',(0.,-1.54420742354709E-17,-1.));
#1088=DIRECTION('center_axis',(0.,1.,0.));
#1089=DIRECTION('ref_axis',(0.,0.,1.));
#1090=DIRECTION('center_axis',(0.,1.,0.));
#1091=DIRECTION('ref_axis',(0.,0.,1.));
#1092=DIRECTION('center_axis',(0.,1.,0.));
#1093=DIRECTION('ref_axis',(0.,0.,1.));
#1094=DIRECTION('',(-8.65956056235488E-17,0.707106781186552,-0.707106781186543));
#1095=DIRECTION('center_axis',(0.,-1.,1.54420742354709E-17));
#1096=DIRECTION('ref_axis',(0.,1.54420742354709E-17,1.));
#1097=DIRECTION('center_axis',(0.,-1.,0.));
#1098=DIRECTION('ref_axis',(0.,0.,-1.));
#1099=DIRECTION('center_axis',(0.,-1.,0.));
#1100=DIRECTION('ref_axis',(0.,0.,-1.));
#1101=DIRECTION('',(-8.65956056235497E-17,-0.707106781186545,0.707106781186551));
#1102=DIRECTION('center_axis',(0.,1.,-1.54420742354709E-17));
#1103=DIRECTION('ref_axis',(0.,-1.54420742354709E-17,-1.));
#1104=DIRECTION('center_axis',(0.,1.,0.));
#1105=DIRECTION('ref_axis',(0.,0.,1.));
#1106=DIRECTION('center_axis',(0.,1.,0.));
#1107=DIRECTION('ref_axis',(0.,0.,1.));
#1108=DIRECTION('center_axis',(0.,1.,0.));
#1109=DIRECTION('ref_axis',(0.,0.,1.));
#1110=DIRECTION('',(-8.65956056235481E-17,0.707106781186558,-0.707106781186537));
#1111=DIRECTION('center_axis',(0.,-1.,1.54420742354709E-17));
#1112=DIRECTION('ref_axis',(0.,1.54420742354709E-17,1.));
#1113=DIRECTION('center_axis',(0.,-1.,0.));
#1114=DIRECTION('ref_axis',(0.,0.,-1.));
#1115=DIRECTION('center_axis',(0.,-1.,0.));
#1116=DIRECTION('ref_axis',(0.,0.,-1.));
#1117=DIRECTION('',(-8.6595605623549E-17,-0.707106781186551,0.707106781186545));
#1118=DIRECTION('center_axis',(0.,1.,-1.54420742354709E-17));
#1119=DIRECTION('ref_axis',(0.,-1.54420742354709E-17,-1.));
#1120=DIRECTION('center_axis',(0.,1.,0.));
#1121=DIRECTION('ref_axis',(0.,0.,1.));
#1122=DIRECTION('center_axis',(0.,1.,0.));
#1123=DIRECTION('ref_axis',(0.,0.,1.));
#1124=DIRECTION('center_axis',(0.,1.,0.));
#1125=DIRECTION('ref_axis',(0.,0.,1.));
#1126=DIRECTION('',(-8.65956056235477E-17,0.707106781186561,-0.707106781186534));
#1127=DIRECTION('center_axis',(0.,-1.,1.54420742354709E-17));
#1128=DIRECTION('ref_axis',(0.,1.54420742354709E-17,1.));
#1129=DIRECTION('center_axis',(0.,-1.,0.));
#1130=DIRECTION('ref_axis',(0.,0.,-1.));
#1131=DIRECTION('center_axis',(0.,-1.,0.));
#1132=DIRECTION('ref_axis',(0.,0.,-1.));
#1133=DIRECTION('',(-8.65956056235497E-17,-0.707106781186545,0.707106781186551));
#1134=DIRECTION('center_axis',(0.,1.,-1.54420742354709E-17));
#1135=DIRECTION('ref_axis',(0.,-1.54420742354709E-17,-1.));
#1136=DIRECTION('center_axis',(0.,1.,-1.54420742354708E-17));
#1137=DIRECTION('ref_axis',(0.,1.54420742354708E-17,1.));
#1138=DIRECTION('center_axis',(0.,1.,-1.54420742354708E-17));
#1139=DIRECTION('ref_axis',(0.,-1.54420742354708E-17,-1.));
#1140=DIRECTION('',(8.65956056235488E-17,-0.707106781186552,0.707106781186543));
#1141=DIRECTION('center_axis',(0.,-1.,1.54420742354709E-17));
#1142=DIRECTION('ref_axis',(0.,-1.54420742354709E-17,-1.));
#1143=DIRECTION('center_axis',(0.,-1.,1.54420742354712E-17));
#1144=DIRECTION('ref_axis',(0.500000000000002,1.33732285750432E-17,0.866025403784438));
#1145=DIRECTION('center_axis',(0.,1.,-1.54420742354709E-17));
#1146=DIRECTION('ref_axis',(0.,1.54420742354709E-17,1.));
#1147=DIRECTION('',(0.353626190634397,0.706961151117687,0.612498529065793));
#1148=DIRECTION('center_axis',(0.,-1.,1.54420742354712E-17));
#1149=DIRECTION('ref_axis',(0.,1.54420742354712E-17,1.));
#1150=DIRECTION('center_axis',(0.,-1.,1.54420742354712E-17));
#1151=DIRECTION('ref_axis',(0.,1.54420742354712E-17,1.));
#1152=DIRECTION('',(-0.353626190634393,-0.706961151117678,-0.612498529065806));
#1153=DIRECTION('center_axis',(0.,-1.,1.54420742354709E-17));
#1154=DIRECTION('ref_axis',(0.,-1.54420742354709E-17,-1.));
#1155=DIRECTION('',(0.,-1.,1.54420742354709E-17));
#1156=DIRECTION('center_axis',(0.,-1.,1.54420742354709E-17));
#1157=DIRECTION('ref_axis',(0.,-1.54420742354709E-17,-1.));
#1158=DIRECTION('',(0.,-1.,1.54420742354709E-17));
#1159=DIRECTION('center_axis',(0.,-1.,1.54420742354709E-17));
#1160=DIRECTION('ref_axis',(0.,-1.54420742354709E-17,-1.));
#1161=DIRECTION('',(0.,-1.,1.54420742354709E-17));
#1162=DIRECTION('center_axis',(3.08148791101958E-33,-1.,1.54420742354709E-17));
#1163=DIRECTION('ref_axis',(4.75845650776704E-50,-1.54420742354709E-17,
-1.));
#1164=DIRECTION('',(3.08148791101958E-33,-1.,1.54420742354709E-17));
#1165=DIRECTION('center_axis',(0.,-1.,1.54420742354709E-17));
#1166=DIRECTION('ref_axis',(0.,-1.54420742354709E-17,-1.));
#1167=DIRECTION('',(0.,-1.,1.54420742354709E-17));
#1168=DIRECTION('center_axis',(0.,-1.,1.54420742354709E-17));
#1169=DIRECTION('ref_axis',(0.,-1.54420742354709E-17,-1.));
#1170=DIRECTION('',(0.,-1.,1.54420742354709E-17));
#1171=DIRECTION('center_axis',(0.,1.,-1.54420742354709E-17));
#1172=DIRECTION('ref_axis',(0.,1.54420742354709E-17,1.));
#1173=DIRECTION('center_axis',(0.,1.,-1.54420742354709E-17));
#1174=DIRECTION('ref_axis',(0.,1.54420742354709E-17,1.));
#1175=DIRECTION('',(-4.18853873767702E-17,0.939692620785907,-0.342020143325671));
#1176=DIRECTION('center_axis',(0.,1.,-1.54420742354709E-17));
#1177=DIRECTION('ref_axis',(0.,1.54420742354709E-17,1.));
#1178=DIRECTION('center_axis',(0.,1.,-1.54420742354709E-17));
#1179=DIRECTION('ref_axis',(0.,1.54420742354709E-17,1.));
#1180=DIRECTION('center_axis',(0.,-1.,1.54420742354709E-17));
#1181=DIRECTION('ref_axis',(0.,-1.54420742354709E-17,-1.));
#1182=DIRECTION('center_axis',(0.,1.,-1.54420742354709E-17));
#1183=DIRECTION('ref_axis',(0.,1.54420742354709E-17,1.));
#1184=DIRECTION('',(1.15079156022785E-16,0.342020143325673,-0.939692620785907));
#1185=DIRECTION('center_axis',(0.,1.,-1.54420742354709E-17));
#1186=DIRECTION('ref_axis',(0.,1.54420742354709E-17,1.));
#1187=DIRECTION('center_axis',(0.,1.,-1.54420742354709E-17));
#1188=DIRECTION('ref_axis',(0.,1.54420742354709E-17,1.));
#1189=DIRECTION('',(0.,1.,-1.54420742354709E-17));
#1190=DIRECTION('center_axis',(0.,1.,-1.54420742354709E-17));
#1191=DIRECTION('ref_axis',(0.,1.54420742354709E-17,1.));
#1192=DIRECTION('',(0.,1.,-1.54420742354709E-17));
#1193=DIRECTION('center_axis',(0.,-1.,0.));
#1194=DIRECTION('ref_axis',(0.,0.,-1.));
#1195=DIRECTION('',(0.,-1.,1.54420742354709E-17));
#1196=DIRECTION('center_axis',(0.,1.,-1.54420742354709E-17));
#1197=DIRECTION('ref_axis',(0.,1.54420742354709E-17,1.));
#1198=DIRECTION('center_axis',(0.,1.,-1.54420742354709E-17));
#1199=DIRECTION('ref_axis',(0.,1.54420742354709E-17,1.));
#1200=DIRECTION('',(0.,-1.,1.54420742354709E-17));
#1201=DIRECTION('',(0.,1.,-1.54420742354709E-17));
#1202=DIRECTION('center_axis',(0.,1.,0.));
#1203=DIRECTION('ref_axis',(8.88178419700125E-16,0.,-1.));
#1204=DIRECTION('',(0.,-1.,1.54420742354709E-17));
#1205=DIRECTION('center_axis',(0.,-1.,1.54420742354709E-17));
#1206=DIRECTION('ref_axis',(0.,-1.54420742354709E-17,-1.));
#1207=DIRECTION('center_axis',(0.,1.,-1.54420742354709E-17));
#1208=DIRECTION('ref_axis',(0.,1.54420742354709E-17,1.));
#1209=DIRECTION('',(0.5,0.,0.866025403784439));
#1210=DIRECTION('',(-0.5,0.,-0.866025403784439));
#1211=DIRECTION('center_axis',(0.,1.,-1.54420742354709E-17));
#1212=DIRECTION('ref_axis',(0.,1.54420742354709E-17,1.));
#1213=DIRECTION('center_axis',(-0.866025403784439,7.72103711773545E-18,
0.5));
#1214=DIRECTION('ref_axis',(0.5,-3.85185988877447E-34,0.866025403784439));
#1215=DIRECTION('',(0.5,0.,0.866025403784439));
#1216=DIRECTION('center_axis',(0.866025403784439,-7.72103711773545E-18,
-0.5));
#1217=DIRECTION('ref_axis',(-0.5,3.85185988877447E-34,-0.866025403784439));
#1218=DIRECTION('',(-0.5,0.,-0.866025403784439));
#1219=DIRECTION('center_axis',(0.,-1.,0.));
#1220=DIRECTION('ref_axis',(0.,0.,-1.));
#1221=DIRECTION('center_axis',(0.,1.,0.));
#1222=DIRECTION('ref_axis',(0.,0.,1.));
#1223=CARTESIAN_POINT('',(0.,0.,0.));
#1224=CARTESIAN_POINT('Origin',(11.6913429510898,-1.04234001089431E-16,
-6.75000000000014));
#1225=CARTESIAN_POINT('',(11.6913429510898,9.,-5.10000000000014));
#1226=CARTESIAN_POINT('Origin',(11.6913429510898,9.,-6.75000000000014));
#1227=CARTESIAN_POINT('',(11.6913429510898,-1.24927875829221E-15,-5.10000000000014));
#1228=CARTESIAN_POINT('',(11.6913429510898,-1.04234001089431E-16,-5.10000000000014));
#1229=CARTESIAN_POINT('Origin',(11.6913429510898,-1.24927875829221E-15,
-6.75000000000014));
#1230=CARTESIAN_POINT('Origin',(11.6913429510898,9.,-6.75000000000014));
#1231=CARTESIAN_POINT('',(11.6913429510898,9.99142002139548,-6.75000000000014));
#1232=CARTESIAN_POINT('',(11.6913429510898,9.,-5.10000000000014));
#1233=CARTESIAN_POINT('Origin',(11.69134295109,1.04234001089426E-16,6.74999999999989));
#1234=CARTESIAN_POINT('',(11.69134295109,9.,8.39999999999989));
#1235=CARTESIAN_POINT('Origin',(11.69134295109,9.,6.74999999999989));
#1236=CARTESIAN_POINT('',(11.69134295109,-1.04081075611335E-15,8.39999999999989));
#1237=CARTESIAN_POINT('',(11.69134295109,1.04234001089426E-16,8.39999999999989));
#1238=CARTESIAN_POINT('Origin',(11.69134295109,-1.04081075611335E-15,6.74999999999989));
#1239=CARTESIAN_POINT('Origin',(11.69134295109,9.,6.74999999999989));
#1240=CARTESIAN_POINT('',(11.69134295109,9.99142002139548,6.74999999999989));
#1241=CARTESIAN_POINT('',(11.69134295109,9.,8.39999999999989));
#1242=CARTESIAN_POINT('Origin',(9.0417944175079E-17,2.08468002178856E-16,
13.5));
#1243=CARTESIAN_POINT('',(-1.11648777684234E-16,9.,15.15));
#1244=CARTESIAN_POINT('Origin',(9.0417944175079E-17,9.,13.5));
#1245=CARTESIAN_POINT('',(-1.11648777684234E-16,-9.36576755023918E-16,15.15));
#1246=CARTESIAN_POINT('',(-1.11648777684234E-16,2.08468002178856E-16,15.15));
#1247=CARTESIAN_POINT('Origin',(9.0417944175079E-17,-9.36576755023918E-16,
13.5));
#1248=CARTESIAN_POINT('Origin',(9.0417944175079E-17,9.,13.5));
#1249=CARTESIAN_POINT('',(-2.35677416545267E-15,9.99142002139548,13.5));
#1250=CARTESIAN_POINT('',(-1.11648777684234E-16,9.,15.15));
#1251=CARTESIAN_POINT('Origin',(-11.6913429510899,1.04234001089429E-16,
6.75000000000006));
#1252=CARTESIAN_POINT('',(-11.6913429510899,9.,8.40000000000005));
#1253=CARTESIAN_POINT('Origin',(-11.6913429510899,9.,6.75000000000006));
#1254=CARTESIAN_POINT('',(-11.6913429510899,-1.04081075611335E-15,8.40000000000005));
#1255=CARTESIAN_POINT('',(-11.6913429510899,1.04234001089429E-16,8.40000000000005));
#1256=CARTESIAN_POINT('Origin',(-11.6913429510899,-1.04081075611335E-15,
6.75000000000006));
#1257=CARTESIAN_POINT('Origin',(-11.6913429510899,9.,6.75000000000006));
#1258=CARTESIAN_POINT('',(-11.6913429510899,9.99142002139548,6.75000000000006));
#1259=CARTESIAN_POINT('',(-11.6913429510899,9.,8.40000000000005));
#1260=CARTESIAN_POINT('Origin',(-11.6913429510899,-1.04234001089428E-16,
-6.74999999999997));
#1261=CARTESIAN_POINT('',(-11.6913429510899,9.,-5.09999999999998));
#1262=CARTESIAN_POINT('Origin',(-11.6913429510899,9.,-6.74999999999997));
#1263=CARTESIAN_POINT('',(-11.6913429510899,-1.2492787582922E-15,-5.09999999999998));
#1264=CARTESIAN_POINT('',(-11.6913429510899,-1.04234001089428E-16,-5.09999999999998));
#1265=CARTESIAN_POINT('Origin',(-11.6913429510899,-1.2492787582922E-15,
-6.74999999999997));
#1266=CARTESIAN_POINT('Origin',(-11.6913429510899,9.,-6.74999999999997));
#1267=CARTESIAN_POINT('',(-11.6913429510899,9.99142002139548,-6.74999999999997));
#1268=CARTESIAN_POINT('',(-11.6913429510899,9.,-5.09999999999998));
#1269=CARTESIAN_POINT('Origin',(-9.0417944175079E-17,-2.08468002178857E-16,
-13.5));
#1270=CARTESIAN_POINT('',(-2.92484666034392E-16,9.,-11.85));
#1271=CARTESIAN_POINT('Origin',(-9.0417944175079E-17,9.,-13.5));
#1272=CARTESIAN_POINT('',(-2.92484666034392E-16,-1.35351275938163E-15,-11.85));
#1273=CARTESIAN_POINT('',(-2.92484666034392E-16,-2.08468002178857E-16,-11.85));
#1274=CARTESIAN_POINT('Origin',(-9.0417944175079E-17,-1.35351275938163E-15,
-13.5));
#1275=CARTESIAN_POINT('Origin',(-9.0417944175079E-17,9.,-13.5));
#1276=CARTESIAN_POINT('',(-2.53761005380283E-15,9.99142002139548,-13.5));
#1277=CARTESIAN_POINT('',(-2.92484666034392E-16,9.,-11.85));
#1278=CARTESIAN_POINT('Origin',(0.,16.7735853432704,0.));
#1279=CARTESIAN_POINT('',(-9.79717439317883E-16,1.2,-8.));
#1280=CARTESIAN_POINT('Origin',(0.,1.2,0.));
#1281=CARTESIAN_POINT('',(-9.79717439317883E-16,11.5,-8.));
#1282=CARTESIAN_POINT('',(-9.79717439317883E-16,16.7735853432704,-8.));
#1283=CARTESIAN_POINT('Origin',(0.,11.5,0.));
#1284=CARTESIAN_POINT('Origin',(0.,1.2,0.));
#1285=CARTESIAN_POINT('',(-1.09380772227709E-15,1.2,8.93161785944027));
#1286=CARTESIAN_POINT('Origin',(0.,1.2,0.));
#1287=CARTESIAN_POINT('',(-1.12055182121983E-15,0.599999999999999,9.15));
#1288=CARTESIAN_POINT('',(-1.09380772227709E-15,1.2,8.93161785944027));
#1289=CARTESIAN_POINT('',(1.21852356515162E-15,0.6,-9.15));
#1290=CARTESIAN_POINT('Origin',(0.,0.6,0.));
#1291=CARTESIAN_POINT('Origin',(0.,0.6,0.));
#1292=CARTESIAN_POINT('Origin',(0.,0.6,0.));
#1293=CARTESIAN_POINT('',(-1.3164953090834E-15,1.18235237482593,-10.75));
#1294=CARTESIAN_POINT('Origin',(0.,1.18235237482593,0.));
#1295=CARTESIAN_POINT('',(-1.12055182121983E-15,0.6,-9.15));
#1296=CARTESIAN_POINT('Origin',(0.,16.7735853432704,0.));
#1297=CARTESIAN_POINT('',(-1.3164953090834E-15,-4.44089209850063E-15,-10.75));
#1298=CARTESIAN_POINT('Origin',(0.,-3.46944695195361E-15,0.));
#1299=CARTESIAN_POINT('',(-1.3164953090834E-15,16.7735853432704,-10.75));
#1300=CARTESIAN_POINT('Origin',(-25.4178456010731,12.7,14.6750000000003));
#1301=CARTESIAN_POINT('',(-25.4178456010731,12.4,18.0250000000003));
#1302=CARTESIAN_POINT('',(-25.4178456010731,12.4,11.3250000000003));
#1303=CARTESIAN_POINT('Origin',(-25.4178456010731,12.4,14.6750000000003));
#1304=CARTESIAN_POINT('Origin',(-25.4178456010731,12.4,14.6750000000003));
#1305=CARTESIAN_POINT('',(-25.4178456010731,12.7,11.0250000000003));
#1306=CARTESIAN_POINT('',(-25.4178456010731,12.7,11.0250000000003));
#1307=CARTESIAN_POINT('Origin',(-25.4178456010731,12.7,14.6750000000003));
#1308=CARTESIAN_POINT('Origin',(-25.4178456010731,0.30000000000001,14.6750000000003));
#1309=CARTESIAN_POINT('',(-25.4178456010731,0.300000000000011,18.0250000000003));
#1310=CARTESIAN_POINT('Origin',(-25.4178456010731,0.30000000000001,14.6750000000003));
#1311=CARTESIAN_POINT('',(-25.4178456010731,-2.81025203108243E-15,18.3250000000003));
#1312=CARTESIAN_POINT('',(-25.4178456010731,0.30000000000001,18.0250000000003));
#1313=CARTESIAN_POINT('Origin',(-25.4178456010731,-2.21202820468621E-15,
14.6750000000003));
#1314=CARTESIAN_POINT('Origin',(-25.4178456010734,12.7,-14.6749999999998));
#1315=CARTESIAN_POINT('',(-25.4178456010734,12.4,-11.3249999999998));
#1316=CARTESIAN_POINT('',(-25.4178456010734,12.4,-18.0249999999998));
#1317=CARTESIAN_POINT('Origin',(-25.4178456010734,12.4,-14.6749999999998));
#1318=CARTESIAN_POINT('Origin',(-25.4178456010734,12.4,-14.6749999999998));
#1319=CARTESIAN_POINT('',(-25.4178456010734,12.7,-18.3249999999998));
#1320=CARTESIAN_POINT('',(-25.4178456010734,12.7,-18.3249999999998));
#1321=CARTESIAN_POINT('Origin',(-25.4178456010734,12.7,-14.6749999999998));
#1322=CARTESIAN_POINT('Origin',(-25.4178456010734,0.30000000000001,-14.6749999999998));
#1323=CARTESIAN_POINT('',(-25.4178456010734,0.300000000000011,-11.3249999999998));
#1324=CARTESIAN_POINT('Origin',(-25.4178456010734,0.30000000000001,-14.6749999999998));
#1325=CARTESIAN_POINT('',(-25.4178456010734,-3.40005801291454E-15,-11.0249999999997));
#1326=CARTESIAN_POINT('',(-25.4178456010734,0.30000000000001,-11.3249999999998));
#1327=CARTESIAN_POINT('Origin',(-25.4178456010734,-2.66525308349728E-15,
-14.6749999999998));
#1328=CARTESIAN_POINT('Origin',(-2.04950073297121E-13,12.7,-29.35));
#1329=CARTESIAN_POINT('',(-2.04539816619406E-13,12.4,-26.));
#1330=CARTESIAN_POINT('',(-2.05360329974835E-13,12.4,-32.7));
#1331=CARTESIAN_POINT('Origin',(-2.04950073297121E-13,12.4,-29.35));
#1332=CARTESIAN_POINT('Origin',(-2.04950073297121E-13,12.4,-29.35));
#1333=CARTESIAN_POINT('',(-2.0539706937881E-13,12.7,-33.));
#1334=CARTESIAN_POINT('',(-2.0539706937881E-13,12.7,-33.));
#1335=CARTESIAN_POINT('Origin',(-2.04950073297121E-13,12.7,-29.35));
#1336=CARTESIAN_POINT('Origin',(-2.04950073297121E-13,0.30000000000001,
-29.35));
#1337=CARTESIAN_POINT('',(-2.05360329974835E-13,0.300000000000011,-26.));
#1338=CARTESIAN_POINT('Origin',(-2.04950073297121E-13,0.30000000000001,
-29.35));
#1339=CARTESIAN_POINT('',(-2.0539706937881E-13,-3.15719672627779E-15,-25.7));
#1340=CARTESIAN_POINT('',(-2.05360329974835E-13,0.30000000000001,-26.));
#1341=CARTESIAN_POINT('Origin',(-2.04950073297121E-13,-2.89186552290282E-15,
-29.35));
#1342=CARTESIAN_POINT('Origin',(25.4178456010732,12.7,-14.6750000000001));
#1343=CARTESIAN_POINT('',(25.4178456010732,12.4,-11.3250000000001));
#1344=CARTESIAN_POINT('',(25.4178456010732,12.4,-18.0250000000001));
#1345=CARTESIAN_POINT('Origin',(25.4178456010732,12.4,-14.6750000000001));
#1346=CARTESIAN_POINT('Origin',(25.4178456010732,12.4,-14.6750000000001));
#1347=CARTESIAN_POINT('',(25.4178456010732,12.7,-18.3250000000001));
#1348=CARTESIAN_POINT('',(25.4178456010732,12.7,-18.3250000000001));
#1349=CARTESIAN_POINT('Origin',(25.4178456010732,12.7,-14.6750000000001));
#1350=CARTESIAN_POINT('Origin',(25.4178456010732,0.30000000000001,-14.6750000000001));
#1351=CARTESIAN_POINT('',(25.4178456010732,0.300000000000011,-11.3250000000001));
#1352=CARTESIAN_POINT('Origin',(25.4178456010732,0.30000000000001,-14.6750000000001));
#1353=CARTESIAN_POINT('',(25.4178456010732,-3.12250225675825E-15,-11.0250000000001));
#1354=CARTESIAN_POINT('',(25.4178456010732,0.30000000000001,-11.3250000000001));
#1355=CARTESIAN_POINT('Origin',(25.4178456010732,-2.66525308349729E-15,
-14.6750000000001));
#1356=CARTESIAN_POINT('Origin',(25.4178456010733,12.7,14.6749999999999));
#1357=CARTESIAN_POINT('',(25.4178456010733,12.4,18.0249999999999));
#1358=CARTESIAN_POINT('',(25.4178456010733,12.4,11.3249999999999));
#1359=CARTESIAN_POINT('Origin',(25.4178456010733,12.4,14.6749999999999));
#1360=CARTESIAN_POINT('Origin',(25.4178456010733,12.4,14.6749999999999));
#1361=CARTESIAN_POINT('',(25.4178456010733,12.7,11.025));
#1362=CARTESIAN_POINT('',(25.4178456010733,12.7,11.025));
#1363=CARTESIAN_POINT('Origin',(25.4178456010733,12.7,14.6749999999999));
#1364=CARTESIAN_POINT('Origin',(25.4178456010733,0.299999999999996,14.6749999999999));
#1365=CARTESIAN_POINT('',(25.4178456010733,0.299999999999997,18.0249999999999));
#1366=CARTESIAN_POINT('Origin',(25.4178456010733,0.299999999999996,14.6749999999999));
#1367=CARTESIAN_POINT('',(25.4178456010733,-1.42247325030098E-15,18.3249999999999));
#1368=CARTESIAN_POINT('',(25.4178456010733,0.299999999999996,18.0249999999999));
#1369=CARTESIAN_POINT('Origin',(25.4178456010733,-2.21202820468622E-15,
14.6749999999999));
#1370=CARTESIAN_POINT('Origin',(0.,12.7,29.35));
#1371=CARTESIAN_POINT('',(4.10256677714363E-16,12.4,32.7));
#1372=CARTESIAN_POINT('',(-4.10256677714363E-16,12.4,26.));
#1373=CARTESIAN_POINT('Origin',(0.,12.4,29.35));
#1374=CARTESIAN_POINT('Origin',(0.,12.4,29.35));
#1375=CARTESIAN_POINT('',(-4.46996081688781E-16,12.7,25.7));
#1376=CARTESIAN_POINT('',(-4.46996081688781E-16,12.7,25.7));
#1377=CARTESIAN_POINT('Origin',(0.,12.7,29.35));
#1378=CARTESIAN_POINT('Origin',(0.,0.30000000000001,29.35));
#1379=CARTESIAN_POINT('',(-4.10256677714363E-16,0.300000000000011,32.7));
#1380=CARTESIAN_POINT('Origin',(0.,0.30000000000001,29.35));
#1381=CARTESIAN_POINT('',(-4.46996081688786E-16,-2.70616862252382E-15,33.));
#1382=CARTESIAN_POINT('',(-4.10256677714363E-16,0.30000000000001,32.7));
#1383=CARTESIAN_POINT('Origin',(0.,-1.98541576528068E-15,29.35));
#1384=CARTESIAN_POINT('Origin',(0.,0.300000000000012,-4.89391922039688E-16));
#1385=CARTESIAN_POINT('',(-4.28626379701574E-15,0.300000000000013,-35.));
#1386=CARTESIAN_POINT('Origin',(0.,0.300000000000012,-4.89391922039688E-16));
#1387=CARTESIAN_POINT('',(-4.24952439304131E-15,-2.25514051876985E-15,-34.7));
#1388=CARTESIAN_POINT('',(-4.28626379701574E-15,0.300000000000011,-35.));
#1389=CARTESIAN_POINT('Origin',(0.,-2.43864064409175E-15,-4.84759299769047E-16));
#1390=CARTESIAN_POINT('Origin',(0.,12.7,-6.80873642559527E-16));
#1391=CARTESIAN_POINT('',(-18.2088192963498,12.7,-29.5386001671183));
#1392=CARTESIAN_POINT('',(-16.4767684887809,12.7,-30.5386001671183));
#1393=CARTESIAN_POINT('Origin',(0.,12.7,-6.80873642559527E-16));
#1394=CARTESIAN_POINT('',(-18.3588810883204,12.4,-29.7985148150862));
#1395=CARTESIAN_POINT('',(-18.3588810883204,12.4,-29.7985148150862));
#1396=CARTESIAN_POINT('',(-4.28626379701574E-15,12.4,-35.));
#1397=CARTESIAN_POINT('Origin',(0.,12.4,-6.76241020288886E-16));
#1398=CARTESIAN_POINT('',(-16.6268302807515,12.4,-30.7985148150862));
#1399=CARTESIAN_POINT('Origin',(0.,12.4,-6.76241020288886E-16));
#1400=CARTESIAN_POINT('',(-16.4767684887809,12.7,-30.5386001671183));
#1401=CARTESIAN_POINT('Origin',(-25.4178456010731,12.7,14.6750000000003));
#1402=CARTESIAN_POINT('',(-25.4178456010731,12.7,18.0250000000003));
#1403=CARTESIAN_POINT('Origin',(-25.4178456010734,12.7,-14.6749999999998));
#1404=CARTESIAN_POINT('',(-25.4178456010734,12.7,-11.3249999999998));
#1405=CARTESIAN_POINT('Origin',(-2.04950073297121E-13,12.7,-29.35));
#1406=CARTESIAN_POINT('',(-2.05360329974835E-13,12.7,-26.));
#1407=CARTESIAN_POINT('Origin',(25.4178456010732,12.7,-14.6750000000001));
#1408=CARTESIAN_POINT('',(25.4178456010732,12.7,-11.3250000000001));
#1409=CARTESIAN_POINT('Origin',(25.4178456010733,12.7,14.6749999999999));
#1410=CARTESIAN_POINT('',(25.4178456010733,12.7,18.0249999999999));
#1411=CARTESIAN_POINT('Origin',(0.,12.7,29.35));
#1412=CARTESIAN_POINT('',(-4.10256677714363E-16,12.7,32.7));
#1413=CARTESIAN_POINT('Origin',(0.,11.5,-6.62343153476962E-16));
#1414=CARTESIAN_POINT('',(-2.53889094527096E-15,11.5,-20.7316178594403));
#1415=CARTESIAN_POINT('Origin',(0.,11.5,-6.62343153476962E-16));
#1416=CARTESIAN_POINT('',(-2.5656350442137E-15,12.1,-20.95));
#1417=CARTESIAN_POINT('',(-2.53889094527096E-15,11.5,-20.7316178594403));
#1418=CARTESIAN_POINT('',(2.76310934057622E-15,12.1,20.95));
#1419=CARTESIAN_POINT('Origin',(0.,12.1,-6.71608398018245E-16));
#1420=CARTESIAN_POINT('Origin',(0.,12.1,-6.71608398018245E-16));
#1421=CARTESIAN_POINT('Origin',(0.,12.1,-6.71608398018245E-16));
#1422=CARTESIAN_POINT('',(2.96058363693873E-15,10.9261959944915,-24.175));
#1423=CARTESIAN_POINT('',(-2.96058363693873E-15,10.9261959944915,24.175));
#1424=CARTESIAN_POINT('Origin',(0.,10.9261959944915,-6.53482429427289E-16));
#1425=CARTESIAN_POINT('',(-2.5656350442137E-15,12.1,20.95));
#1426=CARTESIAN_POINT('Origin',(0.,10.9261959944915,-6.53482429427289E-16));
#1427=CARTESIAN_POINT('Origin',(0.,31.3921104365332,-9.69518599538093E-16));
#1428=CARTESIAN_POINT('',(-2.96058363693873E-15,12.7,-24.175));
#1429=CARTESIAN_POINT('',(-2.96058363693873E-15,31.3921104365332,-24.175));
#1430=CARTESIAN_POINT('',(-11.211128907145,12.7,-21.4182448773792));
#1431=CARTESIAN_POINT('Origin',(0.,12.7,-6.80873642559527E-16));
#1432=CARTESIAN_POINT('',(-11.211128907145,11.2,-21.4182448773792));
#1433=CARTESIAN_POINT('',(-11.211128907145,31.3921104365332,-21.4182448773792));
#1434=CARTESIAN_POINT('',(-12.9431797147139,11.2,-20.4182448773791));
#1435=CARTESIAN_POINT('Origin',(0.,11.2,-6.57710531206321E-16));
#1436=CARTESIAN_POINT('',(-12.9431797147139,12.7,-20.4182448773791));
#1437=CARTESIAN_POINT('',(-12.9431797147139,31.3921104365332,-20.4182448773792));
#1438=CARTESIAN_POINT('Origin',(0.,12.7,-6.80873642559527E-16));
#1439=CARTESIAN_POINT('Origin',(0.,31.3921104365332,-9.69518599538093E-16));
#1440=CARTESIAN_POINT('',(-4.28626379701574E-15,31.3921104365332,-35.));
#1441=CARTESIAN_POINT('',(-18.3588810883204,11.2,-29.7985148150862));
#1442=CARTESIAN_POINT('',(-18.3588810883204,31.3921104365332,-29.7985148150862));
#1443=CARTESIAN_POINT('',(-16.6268302807515,11.2,-30.7985148150862));
#1444=CARTESIAN_POINT('Origin',(0.,11.2,-6.57710531206321E-16));
#1445=CARTESIAN_POINT('',(-16.6268302807515,31.3921104365332,-30.7985148150862));
#1446=CARTESIAN_POINT('Origin',(0.,-2.43864064409175E-15,3.76576698597013E-32));
#1447=CARTESIAN_POINT('Origin',(0.,12.7,35.));
#1448=CARTESIAN_POINT('',(-18.7780777094355,12.7,-30.5245846612189));
#1449=CARTESIAN_POINT('',(-17.0460269018667,12.7,-31.5245846612189));
#1450=CARTESIAN_POINT('Origin',(0.,11.5,20.7316178594403));
#1451=CARTESIAN_POINT('Origin',(-18.7780777094355,11.2,-30.5245846612189));
#1452=CARTESIAN_POINT('',(-18.7780777094355,11.2,-30.5245846612189));
#1453=CARTESIAN_POINT('Origin',(-17.0460269018667,11.2,-31.5245846612189));
#1454=CARTESIAN_POINT('',(-17.0460269018667,11.2,-31.5245846612189));
#1455=CARTESIAN_POINT('Origin',(-12.7260463016631,11.2,-20.0421587739544));
#1456=CARTESIAN_POINT('Origin',(-8.93161785944027,1.2,0.));
#1457=UNCERTAINTY_MEASURE_WITH_UNIT(LENGTH_MEASURE(0.01),#1461,
'DISTANCE_ACCURACY_VALUE',
'Maximum model space distance between geometric entities at asserted c
onnectivities');
#1458=UNCERTAINTY_MEASURE_WITH_UNIT(LENGTH_MEASURE(0.01),#1461,
'DISTANCE_ACCURACY_VALUE',
'Maximum model space distance between geometric entities at asserted c
onnectivities');
#1459=(
GEOMETRIC_REPRESENTATION_CONTEXT(3)
GLOBAL_UNCERTAINTY_ASSIGNED_CONTEXT((#1457))
GLOBAL_UNIT_ASSIGNED_CONTEXT((#1461,#1463,#1464))
REPRESENTATION_CONTEXT('','3D')
);
#1460=(
GEOMETRIC_REPRESENTATION_CONTEXT(3)
GLOBAL_UNCERTAINTY_ASSIGNED_CONTEXT((#1458))
GLOBAL_UNIT_ASSIGNED_CONTEXT((#1461,#1463,#1464))
REPRESENTATION_CONTEXT('','3D')
);
#1461=(
LENGTH_UNIT()
NAMED_UNIT(*)
SI_UNIT(.MILLI.,.METRE.)
);
#1462=(
LENGTH_UNIT()
NAMED_UNIT(*)
SI_UNIT($,.METRE.)
);
#1463=(
NAMED_UNIT(*)
PLANE_ANGLE_UNIT()
SI_UNIT($,.RADIAN.)
);
#1464=(
NAMED_UNIT(*)
SI_UNIT($,.STERADIAN.)
SOLID_ANGLE_UNIT()
);
#1465=SHAPE_DEFINITION_REPRESENTATION(#1466,#1467);
#1466=PRODUCT_DEFINITION_SHAPE('',$,#1469);
#1467=SHAPE_REPRESENTATION('',(#841),#1459);
#1468=PRODUCT_DEFINITION_CONTEXT('part definition',#1473,'design');
#1469=PRODUCT_DEFINITION('Hositrad_CFA35-16D','Hositrad_CFA35-16D v1',#1470,
#1468);
#1470=PRODUCT_DEFINITION_FORMATION('',$,#1475);
#1471=PRODUCT_RELATED_PRODUCT_CATEGORY('Hositrad_CFA35-16D v1',
'Hositrad_CFA35-16D v1',(#1475));
#1472=APPLICATION_PROTOCOL_DEFINITION('international standard',
'automotive_design',2009,#1473);
#1473=APPLICATION_CONTEXT(
'Core Data for Automotive Mechanical Design Process');
#1474=PRODUCT_CONTEXT('part definition',#1473,'mechanical');
#1475=PRODUCT('Hositrad_CFA35-16D','Hositrad_CFA35-16D v1',$,(#1474));
#1476=PRESENTATION_STYLE_ASSIGNMENT((#1479));
#1477=PRESENTATION_STYLE_ASSIGNMENT((#1480));
#1478=PRESENTATION_STYLE_ASSIGNMENT((#1481));
#1479=SURFACE_STYLE_USAGE(.BOTH.,#1482);
#1480=SURFACE_STYLE_USAGE(.BOTH.,#1483);
#1481=SURFACE_STYLE_USAGE(.BOTH.,#1484);
#1482=SURFACE_SIDE_STYLE('',(#1485));
#1483=SURFACE_SIDE_STYLE('',(#1486));
#1484=SURFACE_SIDE_STYLE('',(#1487));
#1485=SURFACE_STYLE_FILL_AREA(#1488);
#1486=SURFACE_STYLE_FILL_AREA(#1489);
#1487=SURFACE_STYLE_FILL_AREA(#1490);
#1488=FILL_AREA_STYLE('Steel - Satin',(#1491));
#1489=FILL_AREA_STYLE('Opaque(165,158,150)',(#1492));
#1490=FILL_AREA_STYLE('Opaque(0,255,0)',(#1493));
#1491=FILL_AREA_STYLE_COLOUR('Steel - Satin',#1494);
#1492=FILL_AREA_STYLE_COLOUR('Opaque(165,158,150)',#1495);
#1493=FILL_AREA_STYLE_COLOUR('Opaque(0,255,0)',#1496);
#1494=COLOUR_RGB('Steel - Satin',0.627450980392157,0.627450980392157,0.627450980392157);
#1495=COLOUR_RGB('Opaque(165,158,150)',0.647058823529412,0.619607843137255,
0.588235294117647);
#1496=COLOUR_RGB('Opaque(0,255,0)',0.,1.,0.);
ENDSEC;
END-ISO-10303-21;
