ISO-10303-21;
HEADER;
/* Generated by software containing ST-Developer
 * from STEP Tools, Inc. (www.steptools.com) 
 */

FILE_DESCRIPTION(
/* description */ (''),
/* implementation_level */ '2;1');

FILE_NAME(
/* name */ 'Hositrad_CF16-19-XT v1.step',
/* time_stamp */ '2024-06-14T14:19:50+02:00',
/* author */ (''),
/* organization */ (''),
/* preprocessor_version */ 'ST-DEVELOPER v20',
/* originating_system */ 'Autodesk Translation Framework v13.14.0.145',

/* authorisation */ '');

FILE_SCHEMA (('AUTOMOTIVE_DESIGN { 1 0 10303 214 3 1 1 }'));
ENDSEC;

DATA;
#10=MECHANICAL_DESIGN_GEOMETRIC_PRESENTATION_REPRESENTATION('',(#13),#999);
#11=SHAPE_REPRESENTATION_RELATIONSHIP('SRR','None',#1006,#12);
#12=ADVANCED_BREP_SHAPE_REPRESENTATION('',(#14),#998);
#13=STYLED_ITEM('',(#1016),#14);
#14=MANIFOLD_SOLID_BREP('Body1',#555);
#15=FACE_BOUND('',#106,.T.);
#16=FACE_BOUND('',#107,.T.);
#17=FACE_BOUND('',#108,.T.);
#18=FACE_BOUND('',#109,.T.);
#19=FACE_BOUND('',#110,.T.);
#20=FACE_BOUND('',#111,.T.);
#21=FACE_BOUND('',#112,.T.);
#22=FACE_BOUND('',#114,.T.);
#23=FACE_BOUND('',#116,.T.);
#24=FACE_BOUND('',#118,.T.);
#25=FACE_BOUND('',#119,.T.);
#26=FACE_BOUND('',#120,.T.);
#27=FACE_BOUND('',#121,.T.);
#28=FACE_BOUND('',#122,.T.);
#29=FACE_BOUND('',#123,.T.);
#30=FACE_BOUND('',#124,.T.);
#31=PLANE('',#645);
#32=PLANE('',#646);
#33=PLANE('',#647);
#34=PLANE('',#648);
#35=CYLINDRICAL_SURFACE('',#572,1.64999999999999);
#36=CYLINDRICAL_SURFACE('',#580,1.64999999999999);
#37=CYLINDRICAL_SURFACE('',#588,1.64999999999999);
#38=CYLINDRICAL_SURFACE('',#596,1.64999999999999);
#39=CYLINDRICAL_SURFACE('',#604,1.64999999999999);
#40=CYLINDRICAL_SURFACE('',#612,1.64999999999999);
#41=CYLINDRICAL_SURFACE('',#631,9.525);
#42=CYLINDRICAL_SURFACE('',#633,7.9);
#43=CYLINDRICAL_SURFACE('',#642,10.75);
#44=CYLINDRICAL_SURFACE('',#644,17.);
#45=FACE_OUTER_BOUND('',#77,.T.);
#46=FACE_OUTER_BOUND('',#78,.T.);
#47=FACE_OUTER_BOUND('',#79,.T.);
#48=FACE_OUTER_BOUND('',#80,.T.);
#49=FACE_OUTER_BOUND('',#81,.T.);
#50=FACE_OUTER_BOUND('',#82,.T.);
#51=FACE_OUTER_BOUND('',#83,.T.);
#52=FACE_OUTER_BOUND('',#84,.T.);
#53=FACE_OUTER_BOUND('',#85,.T.);
#54=FACE_OUTER_BOUND('',#86,.T.);
#55=FACE_OUTER_BOUND('',#87,.T.);
#56=FACE_OUTER_BOUND('',#88,.T.);
#57=FACE_OUTER_BOUND('',#89,.T.);
#58=FACE_OUTER_BOUND('',#90,.T.);
#59=FACE_OUTER_BOUND('',#91,.T.);
#60=FACE_OUTER_BOUND('',#92,.T.);
#61=FACE_OUTER_BOUND('',#93,.T.);
#62=FACE_OUTER_BOUND('',#94,.T.);
#63=FACE_OUTER_BOUND('',#95,.T.);
#64=FACE_OUTER_BOUND('',#96,.T.);
#65=FACE_OUTER_BOUND('',#97,.T.);
#66=FACE_OUTER_BOUND('',#98,.T.);
#67=FACE_OUTER_BOUND('',#99,.T.);
#68=FACE_OUTER_BOUND('',#100,.T.);
#69=FACE_OUTER_BOUND('',#101,.T.);
#70=FACE_OUTER_BOUND('',#102,.T.);
#71=FACE_OUTER_BOUND('',#103,.T.);
#72=FACE_OUTER_BOUND('',#104,.T.);
#73=FACE_OUTER_BOUND('',#105,.T.);
#74=FACE_OUTER_BOUND('',#113,.T.);
#75=FACE_OUTER_BOUND('',#115,.T.);
#76=FACE_OUTER_BOUND('',#117,.T.);
#77=EDGE_LOOP('',(#353,#354,#355,#356));
#78=EDGE_LOOP('',(#357,#358,#359,#360,#361));
#79=EDGE_LOOP('',(#362,#363,#364,#365,#366));
#80=EDGE_LOOP('',(#367,#368,#369,#370));
#81=EDGE_LOOP('',(#371,#372,#373,#374,#375));
#82=EDGE_LOOP('',(#376,#377,#378,#379,#380));
#83=EDGE_LOOP('',(#381,#382,#383,#384));
#84=EDGE_LOOP('',(#385,#386,#387,#388,#389));
#85=EDGE_LOOP('',(#390,#391,#392,#393,#394));
#86=EDGE_LOOP('',(#395,#396,#397,#398));
#87=EDGE_LOOP('',(#399,#400,#401,#402,#403));
#88=EDGE_LOOP('',(#404,#405,#406,#407,#408));
#89=EDGE_LOOP('',(#409,#410,#411,#412));
#90=EDGE_LOOP('',(#413,#414,#415,#416,#417));
#91=EDGE_LOOP('',(#418,#419,#420,#421,#422));
#92=EDGE_LOOP('',(#423,#424,#425,#426));
#93=EDGE_LOOP('',(#427,#428,#429,#430,#431));
#94=EDGE_LOOP('',(#432,#433,#434,#435,#436));
#95=EDGE_LOOP('',(#437,#438,#439,#440));
#96=EDGE_LOOP('',(#441,#442,#443,#444,#445));
#97=EDGE_LOOP('',(#446,#447,#448,#449));
#98=EDGE_LOOP('',(#450,#451,#452,#453,#454));
#99=EDGE_LOOP('',(#455,#456,#457,#458));
#100=EDGE_LOOP('',(#459,#460,#461,#462,#463));
#101=EDGE_LOOP('',(#464,#465,#466,#467,#468));
#102=EDGE_LOOP('',(#469,#470,#471,#472,#473,#474));
#103=EDGE_LOOP('',(#475,#476,#477,#478,#479));
#104=EDGE_LOOP('',(#480,#481,#482,#483,#484));
#105=EDGE_LOOP('',(#485));
#106=EDGE_LOOP('',(#486));
#107=EDGE_LOOP('',(#487));
#108=EDGE_LOOP('',(#488));
#109=EDGE_LOOP('',(#489));
#110=EDGE_LOOP('',(#490));
#111=EDGE_LOOP('',(#491));
#112=EDGE_LOOP('',(#492));
#113=EDGE_LOOP('',(#493));
#114=EDGE_LOOP('',(#494));
#115=EDGE_LOOP('',(#495));
#116=EDGE_LOOP('',(#496));
#117=EDGE_LOOP('',(#497));
#118=EDGE_LOOP('',(#498));
#119=EDGE_LOOP('',(#499));
#120=EDGE_LOOP('',(#500));
#121=EDGE_LOOP('',(#501));
#122=EDGE_LOOP('',(#502));
#123=EDGE_LOOP('',(#503));
#124=EDGE_LOOP('',(#504));
#125=LINE('',#844,#153);
#126=LINE('',#851,#154);
#127=LINE('',#854,#155);
#128=LINE('',#860,#156);
#129=LINE('',#867,#157);
#130=LINE('',#870,#158);
#131=LINE('',#876,#159);
#132=LINE('',#883,#160);
#133=LINE('',#886,#161);
#134=LINE('',#892,#162);
#135=LINE('',#899,#163);
#136=LINE('',#902,#164);
#137=LINE('',#908,#165);
#138=LINE('',#915,#166);
#139=LINE('',#918,#167);
#140=LINE('',#924,#168);
#141=LINE('',#931,#169);
#142=LINE('',#934,#170);
#143=LINE('',#940,#171);
#144=LINE('',#948,#172);
#145=LINE('',#954,#173);
#146=LINE('',#962,#174);
#147=LINE('',#967,#175);
#148=LINE('',#970,#176);
#149=LINE('',#976,#177);
#150=LINE('',#984,#178);
#151=LINE('',#988,#179);
#152=LINE('',#991,#180);
#153=VECTOR('',#655,2.01);
#154=VECTOR('',#664,1.64999999999999);
#155=VECTOR('',#667,1.65);
#156=VECTOR('',#674,2.01);
#157=VECTOR('',#683,1.64999999999999);
#158=VECTOR('',#686,1.65);
#159=VECTOR('',#693,2.01);
#160=VECTOR('',#702,1.64999999999999);
#161=VECTOR('',#705,1.65);
#162=VECTOR('',#712,2.01);
#163=VECTOR('',#721,1.64999999999999);
#164=VECTOR('',#724,1.65);
#165=VECTOR('',#731,2.01);
#166=VECTOR('',#740,1.64999999999999);
#167=VECTOR('',#743,1.65);
#168=VECTOR('',#750,2.01);
#169=VECTOR('',#759,1.64999999999999);
#170=VECTOR('',#762,1.65);
#171=VECTOR('',#769,9.525);
#172=VECTOR('',#778,7.99999999999999);
#173=VECTOR('',#785,17.);
#174=VECTOR('',#794,16.6);
#175=VECTOR('',#801,9.525);
#176=VECTOR('',#804,7.9);
#177=VECTOR('',#811,8.93161785944027);
#178=VECTOR('',#820,9.15);
#179=VECTOR('',#825,10.75);
#180=VECTOR('',#830,17.);
#181=CIRCLE('',#570,1.64999999999999);
#182=CIRCLE('',#571,2.01);
#183=CIRCLE('',#573,1.65);
#184=CIRCLE('',#574,1.65);
#185=CIRCLE('',#576,2.01);
#186=CIRCLE('',#578,1.64999999999999);
#187=CIRCLE('',#579,2.01);
#188=CIRCLE('',#581,1.65);
#189=CIRCLE('',#582,1.65);
#190=CIRCLE('',#584,2.01);
#191=CIRCLE('',#586,1.64999999999999);
#192=CIRCLE('',#587,2.01);
#193=CIRCLE('',#589,1.65);
#194=CIRCLE('',#590,1.65);
#195=CIRCLE('',#592,2.01);
#196=CIRCLE('',#594,1.64999999999999);
#197=CIRCLE('',#595,2.01);
#198=CIRCLE('',#597,1.65);
#199=CIRCLE('',#598,1.65);
#200=CIRCLE('',#600,2.01);
#201=CIRCLE('',#602,1.64999999999999);
#202=CIRCLE('',#603,2.01);
#203=CIRCLE('',#605,1.65);
#204=CIRCLE('',#606,1.65);
#205=CIRCLE('',#608,2.01);
#206=CIRCLE('',#610,1.64999999999999);
#207=CIRCLE('',#611,2.01);
#208=CIRCLE('',#613,1.65);
#209=CIRCLE('',#614,1.65);
#210=CIRCLE('',#616,2.01);
#211=CIRCLE('',#618,9.525);
#212=CIRCLE('',#619,9.42500000000001);
#213=CIRCLE('',#621,7.9);
#214=CIRCLE('',#622,7.9);
#215=CIRCLE('',#623,7.99999999999999);
#216=CIRCLE('',#625,17.);
#217=CIRCLE('',#626,16.6);
#218=CIRCLE('',#628,17.);
#219=CIRCLE('',#629,17.);
#220=CIRCLE('',#630,16.6);
#221=CIRCLE('',#632,9.525);
#222=CIRCLE('',#634,7.9);
#223=CIRCLE('',#636,8.93161785944027);
#224=CIRCLE('',#637,9.15);
#225=CIRCLE('',#638,9.15);
#226=CIRCLE('',#640,10.75);
#227=CIRCLE('',#641,10.75);
#228=CIRCLE('',#643,10.75);
#229=VERTEX_POINT('',#841);
#230=VERTEX_POINT('',#843);
#231=VERTEX_POINT('',#847);
#232=VERTEX_POINT('',#848);
#233=VERTEX_POINT('',#853);
#234=VERTEX_POINT('',#857);
#235=VERTEX_POINT('',#859);
#236=VERTEX_POINT('',#863);
#237=VERTEX_POINT('',#864);
#238=VERTEX_POINT('',#869);
#239=VERTEX_POINT('',#873);
#240=VERTEX_POINT('',#875);
#241=VERTEX_POINT('',#879);
#242=VERTEX_POINT('',#880);
#243=VERTEX_POINT('',#885);
#244=VERTEX_POINT('',#889);
#245=VERTEX_POINT('',#891);
#246=VERTEX_POINT('',#895);
#247=VERTEX_POINT('',#896);
#248=VERTEX_POINT('',#901);
#249=VERTEX_POINT('',#905);
#250=VERTEX_POINT('',#907);
#251=VERTEX_POINT('',#911);
#252=VERTEX_POINT('',#912);
#253=VERTEX_POINT('',#917);
#254=VERTEX_POINT('',#921);
#255=VERTEX_POINT('',#923);
#256=VERTEX_POINT('',#927);
#257=VERTEX_POINT('',#928);
#258=VERTEX_POINT('',#933);
#259=VERTEX_POINT('',#937);
#260=VERTEX_POINT('',#939);
#261=VERTEX_POINT('',#943);
#262=VERTEX_POINT('',#944);
#263=VERTEX_POINT('',#947);
#264=VERTEX_POINT('',#951);
#265=VERTEX_POINT('',#953);
#266=VERTEX_POINT('',#957);
#267=VERTEX_POINT('',#958);
#268=VERTEX_POINT('',#961);
#269=VERTEX_POINT('',#965);
#270=VERTEX_POINT('',#969);
#271=VERTEX_POINT('',#973);
#272=VERTEX_POINT('',#975);
#273=VERTEX_POINT('',#977);
#274=VERTEX_POINT('',#981);
#275=VERTEX_POINT('',#982);
#276=VERTEX_POINT('',#987);
#277=EDGE_CURVE('',#229,#229,#181,.T.);
#278=EDGE_CURVE('',#229,#230,#125,.T.);
#279=EDGE_CURVE('',#230,#230,#182,.T.);
#280=EDGE_CURVE('',#231,#232,#183,.T.);
#281=EDGE_CURVE('',#232,#231,#184,.T.);
#282=EDGE_CURVE('',#232,#229,#126,.T.);
#283=EDGE_CURVE('',#231,#233,#127,.T.);
#284=EDGE_CURVE('',#233,#233,#185,.T.);
#285=EDGE_CURVE('',#234,#234,#186,.T.);
#286=EDGE_CURVE('',#234,#235,#128,.T.);
#287=EDGE_CURVE('',#235,#235,#187,.T.);
#288=EDGE_CURVE('',#236,#237,#188,.T.);
#289=EDGE_CURVE('',#237,#236,#189,.T.);
#290=EDGE_CURVE('',#237,#234,#129,.T.);
#291=EDGE_CURVE('',#236,#238,#130,.T.);
#292=EDGE_CURVE('',#238,#238,#190,.T.);
#293=EDGE_CURVE('',#239,#239,#191,.T.);
#294=EDGE_CURVE('',#239,#240,#131,.T.);
#295=EDGE_CURVE('',#240,#240,#192,.T.);
#296=EDGE_CURVE('',#241,#242,#193,.T.);
#297=EDGE_CURVE('',#242,#241,#194,.T.);
#298=EDGE_CURVE('',#242,#239,#132,.T.);
#299=EDGE_CURVE('',#241,#243,#133,.T.);
#300=EDGE_CURVE('',#243,#243,#195,.T.);
#301=EDGE_CURVE('',#244,#244,#196,.T.);
#302=EDGE_CURVE('',#244,#245,#134,.T.);
#303=EDGE_CURVE('',#245,#245,#197,.T.);
#304=EDGE_CURVE('',#246,#247,#198,.T.);
#305=EDGE_CURVE('',#247,#246,#199,.T.);
#306=EDGE_CURVE('',#247,#244,#135,.T.);
#307=EDGE_CURVE('',#246,#248,#136,.T.);
#308=EDGE_CURVE('',#248,#248,#200,.T.);
#309=EDGE_CURVE('',#249,#249,#201,.T.);
#310=EDGE_CURVE('',#249,#250,#137,.T.);
#311=EDGE_CURVE('',#250,#250,#202,.T.);
#312=EDGE_CURVE('',#251,#252,#203,.T.);
#313=EDGE_CURVE('',#252,#251,#204,.T.);
#314=EDGE_CURVE('',#252,#249,#138,.T.);
#315=EDGE_CURVE('',#251,#253,#139,.T.);
#316=EDGE_CURVE('',#253,#253,#205,.T.);
#317=EDGE_CURVE('',#254,#254,#206,.T.);
#318=EDGE_CURVE('',#254,#255,#140,.T.);
#319=EDGE_CURVE('',#255,#255,#207,.T.);
#320=EDGE_CURVE('',#256,#257,#208,.T.);
#321=EDGE_CURVE('',#257,#256,#209,.T.);
#322=EDGE_CURVE('',#257,#254,#141,.T.);
#323=EDGE_CURVE('',#256,#258,#142,.T.);
#324=EDGE_CURVE('',#258,#258,#210,.T.);
#325=EDGE_CURVE('',#259,#259,#211,.T.);
#326=EDGE_CURVE('',#259,#260,#143,.T.);
#327=EDGE_CURVE('',#260,#260,#212,.T.);
#328=EDGE_CURVE('',#261,#262,#213,.T.);
#329=EDGE_CURVE('',#262,#261,#214,.T.);
#330=EDGE_CURVE('',#262,#263,#144,.T.);
#331=EDGE_CURVE('',#263,#263,#215,.T.);
#332=EDGE_CURVE('',#264,#264,#216,.T.);
#333=EDGE_CURVE('',#264,#265,#145,.T.);
#334=EDGE_CURVE('',#265,#265,#217,.T.);
#335=EDGE_CURVE('',#266,#267,#218,.T.);
#336=EDGE_CURVE('',#267,#266,#219,.T.);
#337=EDGE_CURVE('',#267,#268,#146,.T.);
#338=EDGE_CURVE('',#268,#268,#220,.T.);
#339=EDGE_CURVE('',#269,#269,#221,.T.);
#340=EDGE_CURVE('',#269,#259,#147,.T.);
#341=EDGE_CURVE('',#261,#270,#148,.T.);
#342=EDGE_CURVE('',#270,#270,#222,.T.);
#343=EDGE_CURVE('',#271,#271,#223,.T.);
#344=EDGE_CURVE('',#271,#272,#149,.T.);
#345=EDGE_CURVE('',#272,#273,#224,.T.);
#346=EDGE_CURVE('',#273,#272,#225,.T.);
#347=EDGE_CURVE('',#274,#275,#226,.T.);
#348=EDGE_CURVE('',#275,#273,#150,.T.);
#349=EDGE_CURVE('',#275,#274,#227,.T.);
#350=EDGE_CURVE('',#274,#276,#151,.T.);
#351=EDGE_CURVE('',#276,#276,#228,.T.);
#352=EDGE_CURVE('',#266,#264,#152,.T.);
#353=ORIENTED_EDGE('',*,*,#277,.F.);
#354=ORIENTED_EDGE('',*,*,#278,.T.);
#355=ORIENTED_EDGE('',*,*,#279,.T.);
#356=ORIENTED_EDGE('',*,*,#278,.F.);
#357=ORIENTED_EDGE('',*,*,#280,.F.);
#358=ORIENTED_EDGE('',*,*,#281,.F.);
#359=ORIENTED_EDGE('',*,*,#282,.T.);
#360=ORIENTED_EDGE('',*,*,#277,.T.);
#361=ORIENTED_EDGE('',*,*,#282,.F.);
#362=ORIENTED_EDGE('',*,*,#280,.T.);
#363=ORIENTED_EDGE('',*,*,#281,.T.);
#364=ORIENTED_EDGE('',*,*,#283,.T.);
#365=ORIENTED_EDGE('',*,*,#284,.F.);
#366=ORIENTED_EDGE('',*,*,#283,.F.);
#367=ORIENTED_EDGE('',*,*,#285,.F.);
#368=ORIENTED_EDGE('',*,*,#286,.T.);
#369=ORIENTED_EDGE('',*,*,#287,.T.);
#370=ORIENTED_EDGE('',*,*,#286,.F.);
#371=ORIENTED_EDGE('',*,*,#288,.F.);
#372=ORIENTED_EDGE('',*,*,#289,.F.);
#373=ORIENTED_EDGE('',*,*,#290,.T.);
#374=ORIENTED_EDGE('',*,*,#285,.T.);
#375=ORIENTED_EDGE('',*,*,#290,.F.);
#376=ORIENTED_EDGE('',*,*,#288,.T.);
#377=ORIENTED_EDGE('',*,*,#289,.T.);
#378=ORIENTED_EDGE('',*,*,#291,.T.);
#379=ORIENTED_EDGE('',*,*,#292,.F.);
#380=ORIENTED_EDGE('',*,*,#291,.F.);
#381=ORIENTED_EDGE('',*,*,#293,.F.);
#382=ORIENTED_EDGE('',*,*,#294,.T.);
#383=ORIENTED_EDGE('',*,*,#295,.T.);
#384=ORIENTED_EDGE('',*,*,#294,.F.);
#385=ORIENTED_EDGE('',*,*,#296,.F.);
#386=ORIENTED_EDGE('',*,*,#297,.F.);
#387=ORIENTED_EDGE('',*,*,#298,.T.);
#388=ORIENTED_EDGE('',*,*,#293,.T.);
#389=ORIENTED_EDGE('',*,*,#298,.F.);
#390=ORIENTED_EDGE('',*,*,#296,.T.);
#391=ORIENTED_EDGE('',*,*,#297,.T.);
#392=ORIENTED_EDGE('',*,*,#299,.T.);
#393=ORIENTED_EDGE('',*,*,#300,.F.);
#394=ORIENTED_EDGE('',*,*,#299,.F.);
#395=ORIENTED_EDGE('',*,*,#301,.F.);
#396=ORIENTED_EDGE('',*,*,#302,.T.);
#397=ORIENTED_EDGE('',*,*,#303,.T.);
#398=ORIENTED_EDGE('',*,*,#302,.F.);
#399=ORIENTED_EDGE('',*,*,#304,.F.);
#400=ORIENTED_EDGE('',*,*,#305,.F.);
#401=ORIENTED_EDGE('',*,*,#306,.T.);
#402=ORIENTED_EDGE('',*,*,#301,.T.);
#403=ORIENTED_EDGE('',*,*,#306,.F.);
#404=ORIENTED_EDGE('',*,*,#304,.T.);
#405=ORIENTED_EDGE('',*,*,#305,.T.);
#406=ORIENTED_EDGE('',*,*,#307,.T.);
#407=ORIENTED_EDGE('',*,*,#308,.F.);
#408=ORIENTED_EDGE('',*,*,#307,.F.);
#409=ORIENTED_EDGE('',*,*,#309,.F.);
#410=ORIENTED_EDGE('',*,*,#310,.T.);
#411=ORIENTED_EDGE('',*,*,#311,.T.);
#412=ORIENTED_EDGE('',*,*,#310,.F.);
#413=ORIENTED_EDGE('',*,*,#312,.F.);
#414=ORIENTED_EDGE('',*,*,#313,.F.);
#415=ORIENTED_EDGE('',*,*,#314,.T.);
#416=ORIENTED_EDGE('',*,*,#309,.T.);
#417=ORIENTED_EDGE('',*,*,#314,.F.);
#418=ORIENTED_EDGE('',*,*,#312,.T.);
#419=ORIENTED_EDGE('',*,*,#313,.T.);
#420=ORIENTED_EDGE('',*,*,#315,.T.);
#421=ORIENTED_EDGE('',*,*,#316,.F.);
#422=ORIENTED_EDGE('',*,*,#315,.F.);
#423=ORIENTED_EDGE('',*,*,#317,.F.);
#424=ORIENTED_EDGE('',*,*,#318,.T.);
#425=ORIENTED_EDGE('',*,*,#319,.T.);
#426=ORIENTED_EDGE('',*,*,#318,.F.);
#427=ORIENTED_EDGE('',*,*,#320,.F.);
#428=ORIENTED_EDGE('',*,*,#321,.F.);
#429=ORIENTED_EDGE('',*,*,#322,.T.);
#430=ORIENTED_EDGE('',*,*,#317,.T.);
#431=ORIENTED_EDGE('',*,*,#322,.F.);
#432=ORIENTED_EDGE('',*,*,#320,.T.);
#433=ORIENTED_EDGE('',*,*,#321,.T.);
#434=ORIENTED_EDGE('',*,*,#323,.T.);
#435=ORIENTED_EDGE('',*,*,#324,.F.);
#436=ORIENTED_EDGE('',*,*,#323,.F.);
#437=ORIENTED_EDGE('',*,*,#325,.F.);
#438=ORIENTED_EDGE('',*,*,#326,.T.);
#439=ORIENTED_EDGE('',*,*,#327,.F.);
#440=ORIENTED_EDGE('',*,*,#326,.F.);
#441=ORIENTED_EDGE('',*,*,#328,.F.);
#442=ORIENTED_EDGE('',*,*,#329,.F.);
#443=ORIENTED_EDGE('',*,*,#330,.T.);
#444=ORIENTED_EDGE('',*,*,#331,.F.);
#445=ORIENTED_EDGE('',*,*,#330,.F.);
#446=ORIENTED_EDGE('',*,*,#332,.F.);
#447=ORIENTED_EDGE('',*,*,#333,.T.);
#448=ORIENTED_EDGE('',*,*,#334,.F.);
#449=ORIENTED_EDGE('',*,*,#333,.F.);
#450=ORIENTED_EDGE('',*,*,#335,.F.);
#451=ORIENTED_EDGE('',*,*,#336,.F.);
#452=ORIENTED_EDGE('',*,*,#337,.T.);
#453=ORIENTED_EDGE('',*,*,#338,.F.);
#454=ORIENTED_EDGE('',*,*,#337,.F.);
#455=ORIENTED_EDGE('',*,*,#339,.F.);
#456=ORIENTED_EDGE('',*,*,#340,.T.);
#457=ORIENTED_EDGE('',*,*,#325,.T.);
#458=ORIENTED_EDGE('',*,*,#340,.F.);
#459=ORIENTED_EDGE('',*,*,#328,.T.);
#460=ORIENTED_EDGE('',*,*,#329,.T.);
#461=ORIENTED_EDGE('',*,*,#341,.T.);
#462=ORIENTED_EDGE('',*,*,#342,.T.);
#463=ORIENTED_EDGE('',*,*,#341,.F.);
#464=ORIENTED_EDGE('',*,*,#343,.F.);
#465=ORIENTED_EDGE('',*,*,#344,.T.);
#466=ORIENTED_EDGE('',*,*,#345,.T.);
#467=ORIENTED_EDGE('',*,*,#346,.T.);
#468=ORIENTED_EDGE('',*,*,#344,.F.);
#469=ORIENTED_EDGE('',*,*,#347,.T.);
#470=ORIENTED_EDGE('',*,*,#348,.T.);
#471=ORIENTED_EDGE('',*,*,#345,.F.);
#472=ORIENTED_EDGE('',*,*,#346,.F.);
#473=ORIENTED_EDGE('',*,*,#348,.F.);
#474=ORIENTED_EDGE('',*,*,#349,.T.);
#475=ORIENTED_EDGE('',*,*,#347,.F.);
#476=ORIENTED_EDGE('',*,*,#350,.T.);
#477=ORIENTED_EDGE('',*,*,#351,.T.);
#478=ORIENTED_EDGE('',*,*,#350,.F.);
#479=ORIENTED_EDGE('',*,*,#349,.F.);
#480=ORIENTED_EDGE('',*,*,#335,.T.);
#481=ORIENTED_EDGE('',*,*,#336,.T.);
#482=ORIENTED_EDGE('',*,*,#352,.T.);
#483=ORIENTED_EDGE('',*,*,#332,.T.);
#484=ORIENTED_EDGE('',*,*,#352,.F.);
#485=ORIENTED_EDGE('',*,*,#338,.T.);
#486=ORIENTED_EDGE('',*,*,#351,.F.);
#487=ORIENTED_EDGE('',*,*,#284,.T.);
#488=ORIENTED_EDGE('',*,*,#292,.T.);
#489=ORIENTED_EDGE('',*,*,#300,.T.);
#490=ORIENTED_EDGE('',*,*,#308,.T.);
#491=ORIENTED_EDGE('',*,*,#316,.T.);
#492=ORIENTED_EDGE('',*,*,#324,.T.);
#493=ORIENTED_EDGE('',*,*,#343,.T.);
#494=ORIENTED_EDGE('',*,*,#342,.F.);
#495=ORIENTED_EDGE('',*,*,#327,.T.);
#496=ORIENTED_EDGE('',*,*,#331,.T.);
#497=ORIENTED_EDGE('',*,*,#334,.T.);
#498=ORIENTED_EDGE('',*,*,#339,.T.);
#499=ORIENTED_EDGE('',*,*,#279,.F.);
#500=ORIENTED_EDGE('',*,*,#287,.F.);
#501=ORIENTED_EDGE('',*,*,#295,.F.);
#502=ORIENTED_EDGE('',*,*,#303,.F.);
#503=ORIENTED_EDGE('',*,*,#311,.F.);
#504=ORIENTED_EDGE('',*,*,#319,.F.);
#505=CONICAL_SURFACE('',#569,2.01,0.785398163397463);
#506=CONICAL_SURFACE('',#575,1.65,0.785398163397446);
#507=CONICAL_SURFACE('',#577,2.01,0.785398163397463);
#508=CONICAL_SURFACE('',#583,1.65,0.785398163397446);
#509=CONICAL_SURFACE('',#585,2.01,0.785398163397463);
#510=CONICAL_SURFACE('',#591,1.65,0.785398163397446);
#511=CONICAL_SURFACE('',#593,2.01,0.785398163397463);
#512=CONICAL_SURFACE('',#599,1.65,0.785398163397446);
#513=CONICAL_SURFACE('',#601,2.01,0.785398163397463);
#514=CONICAL_SURFACE('',#607,1.65,0.785398163397446);
#515=CONICAL_SURFACE('',#609,2.01,0.785398163397463);
#516=CONICAL_SURFACE('',#615,1.65,0.785398163397446);
#517=CONICAL_SURFACE('',#617,9.525,0.785398163397457);
#518=CONICAL_SURFACE('',#620,7.99999999999999,0.785398163397466);
#519=CONICAL_SURFACE('',#624,17.,0.785398163397461);
#520=CONICAL_SURFACE('',#627,16.6,0.785398163397444);
#521=CONICAL_SURFACE('',#635,8.93161785944027,0.349065850398873);
#522=CONICAL_SURFACE('',#639,9.15,1.22173047639603);
#523=ADVANCED_FACE('',(#45),#505,.F.);
#524=ADVANCED_FACE('',(#46),#35,.F.);
#525=ADVANCED_FACE('',(#47),#506,.F.);
#526=ADVANCED_FACE('',(#48),#507,.F.);
#527=ADVANCED_FACE('',(#49),#36,.F.);
#528=ADVANCED_FACE('',(#50),#508,.F.);
#529=ADVANCED_FACE('',(#51),#509,.F.);
#530=ADVANCED_FACE('',(#52),#37,.F.);
#531=ADVANCED_FACE('',(#53),#510,.F.);
#532=ADVANCED_FACE('',(#54),#511,.F.);
#533=ADVANCED_FACE('',(#55),#38,.F.);
#534=ADVANCED_FACE('',(#56),#512,.F.);
#535=ADVANCED_FACE('',(#57),#513,.F.);
#536=ADVANCED_FACE('',(#58),#39,.F.);
#537=ADVANCED_FACE('',(#59),#514,.F.);
#538=ADVANCED_FACE('',(#60),#515,.F.);
#539=ADVANCED_FACE('',(#61),#40,.F.);
#540=ADVANCED_FACE('',(#62),#516,.F.);
#541=ADVANCED_FACE('',(#63),#517,.T.);
#542=ADVANCED_FACE('',(#64),#518,.F.);
#543=ADVANCED_FACE('',(#65),#519,.T.);
#544=ADVANCED_FACE('',(#66),#520,.T.);
#545=ADVANCED_FACE('',(#67),#41,.T.);
#546=ADVANCED_FACE('',(#68),#42,.F.);
#547=ADVANCED_FACE('',(#69),#521,.F.);
#548=ADVANCED_FACE('',(#70),#522,.T.);
#549=ADVANCED_FACE('',(#71),#43,.F.);
#550=ADVANCED_FACE('',(#72),#44,.T.);
#551=ADVANCED_FACE('',(#73,#15,#16,#17,#18,#19,#20,#21),#31,.T.);
#552=ADVANCED_FACE('',(#74,#22),#32,.T.);
#553=ADVANCED_FACE('',(#75,#23),#33,.T.);
#554=ADVANCED_FACE('',(#76,#24,#25,#26,#27,#28,#29,#30),#34,.T.);
#555=CLOSED_SHELL('',(#523,#524,#525,#526,#527,#528,#529,#530,#531,#532,
#533,#534,#535,#536,#537,#538,#539,#540,#541,#542,#543,#544,#545,#546,#547,
#548,#549,#550,#551,#552,#553,#554));
#556=DERIVED_UNIT_ELEMENT(#558,1.);
#557=DERIVED_UNIT_ELEMENT(#1001,-3.);
#558=(
MASS_UNIT()
NAMED_UNIT(*)
SI_UNIT(.KILO.,.GRAM.)
);
#559=DERIVED_UNIT((#556,#557));
#560=MEASURE_REPRESENTATION_ITEM('density measure',
POSITIVE_RATIO_MEASURE(7850.),#559);
#561=PROPERTY_DEFINITION_REPRESENTATION(#566,#563);
#562=PROPERTY_DEFINITION_REPRESENTATION(#567,#564);
#563=REPRESENTATION('material name',(#565),#998);
#564=REPRESENTATION('density',(#560),#998);
#565=DESCRIPTIVE_REPRESENTATION_ITEM('Steel','Steel');
#566=PROPERTY_DEFINITION('material property','material name',#1008);
#567=PROPERTY_DEFINITION('material property','density of part',#1008);
#568=AXIS2_PLACEMENT_3D('',#839,#649,#650);
#569=AXIS2_PLACEMENT_3D('',#840,#651,#652);
#570=AXIS2_PLACEMENT_3D('',#842,#653,#654);
#571=AXIS2_PLACEMENT_3D('',#845,#656,#657);
#572=AXIS2_PLACEMENT_3D('',#846,#658,#659);
#573=AXIS2_PLACEMENT_3D('',#849,#660,#661);
#574=AXIS2_PLACEMENT_3D('',#850,#662,#663);
#575=AXIS2_PLACEMENT_3D('',#852,#665,#666);
#576=AXIS2_PLACEMENT_3D('',#855,#668,#669);
#577=AXIS2_PLACEMENT_3D('',#856,#670,#671);
#578=AXIS2_PLACEMENT_3D('',#858,#672,#673);
#579=AXIS2_PLACEMENT_3D('',#861,#675,#676);
#580=AXIS2_PLACEMENT_3D('',#862,#677,#678);
#581=AXIS2_PLACEMENT_3D('',#865,#679,#680);
#582=AXIS2_PLACEMENT_3D('',#866,#681,#682);
#583=AXIS2_PLACEMENT_3D('',#868,#684,#685);
#584=AXIS2_PLACEMENT_3D('',#871,#687,#688);
#585=AXIS2_PLACEMENT_3D('',#872,#689,#690);
#586=AXIS2_PLACEMENT_3D('',#874,#691,#692);
#587=AXIS2_PLACEMENT_3D('',#877,#694,#695);
#588=AXIS2_PLACEMENT_3D('',#878,#696,#697);
#589=AXIS2_PLACEMENT_3D('',#881,#698,#699);
#590=AXIS2_PLACEMENT_3D('',#882,#700,#701);
#591=AXIS2_PLACEMENT_3D('',#884,#703,#704);
#592=AXIS2_PLACEMENT_3D('',#887,#706,#707);
#593=AXIS2_PLACEMENT_3D('',#888,#708,#709);
#594=AXIS2_PLACEMENT_3D('',#890,#710,#711);
#595=AXIS2_PLACEMENT_3D('',#893,#713,#714);
#596=AXIS2_PLACEMENT_3D('',#894,#715,#716);
#597=AXIS2_PLACEMENT_3D('',#897,#717,#718);
#598=AXIS2_PLACEMENT_3D('',#898,#719,#720);
#599=AXIS2_PLACEMENT_3D('',#900,#722,#723);
#600=AXIS2_PLACEMENT_3D('',#903,#725,#726);
#601=AXIS2_PLACEMENT_3D('',#904,#727,#728);
#602=AXIS2_PLACEMENT_3D('',#906,#729,#730);
#603=AXIS2_PLACEMENT_3D('',#909,#732,#733);
#604=AXIS2_PLACEMENT_3D('',#910,#734,#735);
#605=AXIS2_PLACEMENT_3D('',#913,#736,#737);
#606=AXIS2_PLACEMENT_3D('',#914,#738,#739);
#607=AXIS2_PLACEMENT_3D('',#916,#741,#742);
#608=AXIS2_PLACEMENT_3D('',#919,#744,#745);
#609=AXIS2_PLACEMENT_3D('',#920,#746,#747);
#610=AXIS2_PLACEMENT_3D('',#922,#748,#749);
#611=AXIS2_PLACEMENT_3D('',#925,#751,#752);
#612=AXIS2_PLACEMENT_3D('',#926,#753,#754);
#613=AXIS2_PLACEMENT_3D('',#929,#755,#756);
#614=AXIS2_PLACEMENT_3D('',#930,#757,#758);
#615=AXIS2_PLACEMENT_3D('',#932,#760,#761);
#616=AXIS2_PLACEMENT_3D('',#935,#763,#764);
#617=AXIS2_PLACEMENT_3D('',#936,#765,#766);
#618=AXIS2_PLACEMENT_3D('',#938,#767,#768);
#619=AXIS2_PLACEMENT_3D('',#941,#770,#771);
#620=AXIS2_PLACEMENT_3D('',#942,#772,#773);
#621=AXIS2_PLACEMENT_3D('',#945,#774,#775);
#622=AXIS2_PLACEMENT_3D('',#946,#776,#777);
#623=AXIS2_PLACEMENT_3D('',#949,#779,#780);
#624=AXIS2_PLACEMENT_3D('',#950,#781,#782);
#625=AXIS2_PLACEMENT_3D('',#952,#783,#784);
#626=AXIS2_PLACEMENT_3D('',#955,#786,#787);
#627=AXIS2_PLACEMENT_3D('',#956,#788,#789);
#628=AXIS2_PLACEMENT_3D('',#959,#790,#791);
#629=AXIS2_PLACEMENT_3D('',#960,#792,#793);
#630=AXIS2_PLACEMENT_3D('',#963,#795,#796);
#631=AXIS2_PLACEMENT_3D('',#964,#797,#798);
#632=AXIS2_PLACEMENT_3D('',#966,#799,#800);
#633=AXIS2_PLACEMENT_3D('',#968,#802,#803);
#634=AXIS2_PLACEMENT_3D('',#971,#805,#806);
#635=AXIS2_PLACEMENT_3D('',#972,#807,#808);
#636=AXIS2_PLACEMENT_3D('',#974,#809,#810);
#637=AXIS2_PLACEMENT_3D('',#978,#812,#813);
#638=AXIS2_PLACEMENT_3D('',#979,#814,#815);
#639=AXIS2_PLACEMENT_3D('',#980,#816,#817);
#640=AXIS2_PLACEMENT_3D('',#983,#818,#819);
#641=AXIS2_PLACEMENT_3D('',#985,#821,#822);
#642=AXIS2_PLACEMENT_3D('',#986,#823,#824);
#643=AXIS2_PLACEMENT_3D('',#989,#826,#827);
#644=AXIS2_PLACEMENT_3D('',#990,#828,#829);
#645=AXIS2_PLACEMENT_3D('',#992,#831,#832);
#646=AXIS2_PLACEMENT_3D('',#993,#833,#834);
#647=AXIS2_PLACEMENT_3D('',#994,#835,#836);
#648=AXIS2_PLACEMENT_3D('',#995,#837,#838);
#649=DIRECTION('axis',(0.,0.,1.));
#650=DIRECTION('refdir',(1.,0.,0.));
#651=DIRECTION('center_axis',(0.,-1.,0.));
#652=DIRECTION('ref_axis',(0.,0.,-1.));
#653=DIRECTION('center_axis',(0.,-1.,0.));
#654=DIRECTION('ref_axis',(0.,0.,-1.));
#655=DIRECTION('',(-8.65956056235506E-17,-0.707106781186537,0.707106781186558));
#656=DIRECTION('center_axis',(0.,-1.,0.));
#657=DIRECTION('ref_axis',(0.,0.,-1.));
#658=DIRECTION('center_axis',(0.,-1.,0.));
#659=DIRECTION('ref_axis',(0.,0.,-1.));
#660=DIRECTION('center_axis',(0.,-1.,0.));
#661=DIRECTION('ref_axis',(0.,0.,-1.));
#662=DIRECTION('center_axis',(0.,-1.,0.));
#663=DIRECTION('ref_axis',(0.,0.,-1.));
#664=DIRECTION('',(0.,-1.,0.));
#665=DIRECTION('center_axis',(0.,1.,0.));
#666=DIRECTION('ref_axis',(0.,0.,1.));
#667=DIRECTION('',(-8.65956056235491E-17,0.707106781186549,-0.707106781186546));
#668=DIRECTION('center_axis',(0.,-1.,0.));
#669=DIRECTION('ref_axis',(0.,0.,-1.));
#670=DIRECTION('center_axis',(0.,-1.,0.));
#671=DIRECTION('ref_axis',(0.,0.,-1.));
#672=DIRECTION('center_axis',(0.,-1.,0.));
#673=DIRECTION('ref_axis',(0.,0.,-1.));
#674=DIRECTION('',(-8.65956056235506E-17,-0.707106781186537,0.707106781186558));
#675=DIRECTION('center_axis',(0.,-1.,0.));
#676=DIRECTION('ref_axis',(0.,0.,-1.));
#677=DIRECTION('center_axis',(0.,-1.,0.));
#678=DIRECTION('ref_axis',(0.,0.,-1.));
#679=DIRECTION('center_axis',(0.,-1.,0.));
#680=DIRECTION('ref_axis',(0.,0.,-1.));
#681=DIRECTION('center_axis',(0.,-1.,0.));
#682=DIRECTION('ref_axis',(0.,0.,-1.));
#683=DIRECTION('',(0.,-1.,0.));
#684=DIRECTION('center_axis',(0.,1.,0.));
#685=DIRECTION('ref_axis',(0.,0.,1.));
#686=DIRECTION('',(-8.65956056235491E-17,0.707106781186549,-0.707106781186546));
#687=DIRECTION('center_axis',(0.,-1.,0.));
#688=DIRECTION('ref_axis',(0.,0.,-1.));
#689=DIRECTION('center_axis',(0.,-1.,0.));
#690=DIRECTION('ref_axis',(0.,0.,-1.));
#691=DIRECTION('center_axis',(0.,-1.,0.));
#692=DIRECTION('ref_axis',(0.,0.,-1.));
#693=DIRECTION('',(-8.65956056235506E-17,-0.707106781186537,0.707106781186558));
#694=DIRECTION('center_axis',(0.,-1.,0.));
#695=DIRECTION('ref_axis',(0.,0.,-1.));
#696=DIRECTION('center_axis',(0.,-1.,0.));
#697=DIRECTION('ref_axis',(0.,0.,-1.));
#698=DIRECTION('center_axis',(0.,-1.,0.));
#699=DIRECTION('ref_axis',(0.,0.,-1.));
#700=DIRECTION('center_axis',(0.,-1.,0.));
#701=DIRECTION('ref_axis',(0.,0.,-1.));
#702=DIRECTION('',(0.,-1.,0.));
#703=DIRECTION('center_axis',(0.,1.,0.));
#704=DIRECTION('ref_axis',(0.,0.,1.));
#705=DIRECTION('',(-8.65956056235491E-17,0.707106781186549,-0.707106781186546));
#706=DIRECTION('center_axis',(0.,-1.,0.));
#707=DIRECTION('ref_axis',(0.,0.,-1.));
#708=DIRECTION('center_axis',(0.,-1.,0.));
#709=DIRECTION('ref_axis',(0.,0.,-1.));
#710=DIRECTION('center_axis',(0.,-1.,0.));
#711=DIRECTION('ref_axis',(0.,0.,-1.));
#712=DIRECTION('',(-8.65956056235506E-17,-0.707106781186537,0.707106781186558));
#713=DIRECTION('center_axis',(0.,-1.,0.));
#714=DIRECTION('ref_axis',(0.,0.,-1.));
#715=DIRECTION('center_axis',(0.,-1.,0.));
#716=DIRECTION('ref_axis',(0.,0.,-1.));
#717=DIRECTION('center_axis',(0.,-1.,0.));
#718=DIRECTION('ref_axis',(0.,0.,-1.));
#719=DIRECTION('center_axis',(0.,-1.,0.));
#720=DIRECTION('ref_axis',(0.,0.,-1.));
#721=DIRECTION('',(0.,-1.,0.));
#722=DIRECTION('center_axis',(0.,1.,0.));
#723=DIRECTION('ref_axis',(0.,0.,1.));
#724=DIRECTION('',(-8.65956056235491E-17,0.707106781186549,-0.707106781186546));
#725=DIRECTION('center_axis',(0.,-1.,0.));
#726=DIRECTION('ref_axis',(0.,0.,-1.));
#727=DIRECTION('center_axis',(0.,-1.,0.));
#728=DIRECTION('ref_axis',(0.,0.,-1.));
#729=DIRECTION('center_axis',(0.,-1.,0.));
#730=DIRECTION('ref_axis',(0.,0.,-1.));
#731=DIRECTION('',(-8.65956056235506E-17,-0.707106781186537,0.707106781186558));
#732=DIRECTION('center_axis',(0.,-1.,0.));
#733=DIRECTION('ref_axis',(0.,0.,-1.));
#734=DIRECTION('center_axis',(0.,-1.,0.));
#735=DIRECTION('ref_axis',(0.,0.,-1.));
#736=DIRECTION('center_axis',(0.,-1.,0.));
#737=DIRECTION('ref_axis',(0.,0.,-1.));
#738=DIRECTION('center_axis',(0.,-1.,0.));
#739=DIRECTION('ref_axis',(0.,0.,-1.));
#740=DIRECTION('',(0.,-1.,0.));
#741=DIRECTION('center_axis',(0.,1.,0.));
#742=DIRECTION('ref_axis',(0.,0.,1.));
#743=DIRECTION('',(-8.65956056235491E-17,0.707106781186549,-0.707106781186546));
#744=DIRECTION('center_axis',(0.,-1.,0.));
#745=DIRECTION('ref_axis',(0.,0.,-1.));
#746=DIRECTION('center_axis',(0.,-1.,0.));
#747=DIRECTION('ref_axis',(0.,0.,-1.));
#748=DIRECTION('center_axis',(0.,-1.,0.));
#749=DIRECTION('ref_axis',(0.,0.,-1.));
#750=DIRECTION('',(-8.65956056235506E-17,-0.707106781186537,0.707106781186558));
#751=DIRECTION('center_axis',(0.,-1.,0.));
#752=DIRECTION('ref_axis',(0.,0.,-1.));
#753=DIRECTION('center_axis',(0.,-1.,0.));
#754=DIRECTION('ref_axis',(0.,0.,-1.));
#755=DIRECTION('center_axis',(0.,-1.,0.));
#756=DIRECTION('ref_axis',(0.,0.,-1.));
#757=DIRECTION('center_axis',(0.,-1.,0.));
#758=DIRECTION('ref_axis',(0.,0.,-1.));
#759=DIRECTION('',(0.,-1.,0.));
#760=DIRECTION('center_axis',(0.,1.,0.));
#761=DIRECTION('ref_axis',(0.,0.,1.));
#762=DIRECTION('',(-8.65956056235491E-17,0.707106781186549,-0.707106781186546));
#763=DIRECTION('center_axis',(0.,-1.,0.));
#764=DIRECTION('ref_axis',(0.,0.,-1.));
#765=DIRECTION('center_axis',(0.,1.,1.09710830979415E-16));
#766=DIRECTION('ref_axis',(0.,-1.09710830979415E-16,1.));
#767=DIRECTION('center_axis',(0.,1.,1.09710830979415E-16));
#768=DIRECTION('ref_axis',(0.,1.09710830979415E-16,-1.));
#769=DIRECTION('',(8.65956056235501E-17,-0.707106781186542,0.707106781186553));
#770=DIRECTION('center_axis',(0.,-1.,-1.09710830979419E-16));
#771=DIRECTION('ref_axis',(0.,1.09710830979419E-16,-1.));
#772=DIRECTION('center_axis',(0.,-1.,-1.09710830979415E-16));
#773=DIRECTION('ref_axis',(0.,1.09710830979415E-16,-1.));
#774=DIRECTION('center_axis',(0.,-1.,-1.09710830979415E-16));
#775=DIRECTION('ref_axis',(0.,1.09710830979415E-16,-1.));
#776=DIRECTION('center_axis',(0.,-1.,-1.09710830979415E-16));
#777=DIRECTION('ref_axis',(0.,1.09710830979415E-16,-1.));
#778=DIRECTION('',(-8.65956056235508E-17,-0.707106781186535,0.70710678118656));
#779=DIRECTION('center_axis',(0.,1.,1.09710830979419E-16));
#780=DIRECTION('ref_axis',(0.,1.09710830979419E-16,-1.));
#781=DIRECTION('center_axis',(0.,1.,1.09710830979419E-16));
#782=DIRECTION('ref_axis',(0.,-1.09710830979419E-16,1.));
#783=DIRECTION('center_axis',(0.,1.,1.09710830979419E-16));
#784=DIRECTION('ref_axis',(0.,1.09710830979419E-16,-1.));
#785=DIRECTION('',(8.65956056235505E-17,-0.707106781186539,0.707106781186557));
#786=DIRECTION('center_axis',(0.,-1.,-1.09710830979419E-16));
#787=DIRECTION('ref_axis',(0.,1.09710830979419E-16,-1.));
#788=DIRECTION('center_axis',(0.,-1.,-1.09710830979417E-16));
#789=DIRECTION('ref_axis',(0.,1.09710830979417E-16,-1.));
#790=DIRECTION('center_axis',(0.,-1.,-1.09710830979417E-16));
#791=DIRECTION('ref_axis',(0.,-1.09710830979417E-16,1.));
#792=DIRECTION('center_axis',(0.,-1.,-1.09710830979417E-16));
#793=DIRECTION('ref_axis',(0.,-1.09710830979417E-16,1.));
#794=DIRECTION('',(8.6595605623549E-17,0.707106781186551,-0.707106781186544));
#795=DIRECTION('center_axis',(0.,1.,1.09710830979419E-16));
#796=DIRECTION('ref_axis',(0.,-1.09710830979419E-16,1.));
#797=DIRECTION('center_axis',(0.,1.,1.09710830979419E-16));
#798=DIRECTION('ref_axis',(0.,-1.09710830979419E-16,1.));
#799=DIRECTION('center_axis',(0.,1.,1.09710830979419E-16));
#800=DIRECTION('ref_axis',(0.,-1.09710830979419E-16,1.));
#801=DIRECTION('',(0.,-1.,-1.09710830979419E-16));
#802=DIRECTION('center_axis',(0.,1.,1.09710830979419E-16));
#803=DIRECTION('ref_axis',(0.,-1.09710830979419E-16,1.));
#804=DIRECTION('',(0.,1.,1.09710830979419E-16));
#805=DIRECTION('center_axis',(0.,1.,1.09710830979419E-16));
#806=DIRECTION('ref_axis',(0.,-1.09710830979419E-16,1.));
#807=DIRECTION('center_axis',(0.,1.,1.09710830979419E-16));
#808=DIRECTION('ref_axis',(0.,-1.09710830979419E-16,1.));
#809=DIRECTION('center_axis',(0.,1.,1.09710830979419E-16));
#810=DIRECTION('ref_axis',(0.,-1.09710830979419E-16,1.));
#811=DIRECTION('',(-4.18853873767707E-17,0.939692620785906,-0.342020143325675));
#812=DIRECTION('center_axis',(0.,1.,1.09710830979419E-16));
#813=DIRECTION('ref_axis',(0.,-1.09710830979419E-16,1.));
#814=DIRECTION('center_axis',(0.,1.,1.09710830979419E-16));
#815=DIRECTION('ref_axis',(0.,-1.09710830979419E-16,1.));
#816=DIRECTION('center_axis',(0.,-1.,-1.09710830979419E-16));
#817=DIRECTION('ref_axis',(0.,1.09710830979419E-16,-1.));
#818=DIRECTION('center_axis',(0.,1.,1.09710830979419E-16));
#819=DIRECTION('ref_axis',(0.,-1.09710830979419E-16,1.));
#820=DIRECTION('',(1.15079156022785E-16,0.342020143325671,-0.939692620785907));
#821=DIRECTION('center_axis',(0.,1.,1.09710830979419E-16));
#822=DIRECTION('ref_axis',(0.,-1.09710830979419E-16,1.));
#823=DIRECTION('center_axis',(0.,1.,1.09710830979419E-16));
#824=DIRECTION('ref_axis',(0.,-1.09710830979419E-16,1.));
#825=DIRECTION('',(0.,1.,1.09710830979419E-16));
#826=DIRECTION('center_axis',(0.,1.,1.09710830979419E-16));
#827=DIRECTION('ref_axis',(0.,-1.09710830979419E-16,1.));
#828=DIRECTION('center_axis',(0.,1.,1.09710830979419E-16));
#829=DIRECTION('ref_axis',(0.,-1.09710830979419E-16,1.));
#830=DIRECTION('',(0.,-1.,-1.09710830979419E-16));
#831=DIRECTION('center_axis',(0.,1.,1.09710830979419E-16));
#832=DIRECTION('ref_axis',(0.,-1.09710830979419E-16,1.));
#833=DIRECTION('center_axis',(0.,1.,1.09710830979419E-16));
#834=DIRECTION('ref_axis',(0.,-1.09710830979419E-16,1.));
#835=DIRECTION('center_axis',(0.,-1.,-1.09710830979419E-16));
#836=DIRECTION('ref_axis',(0.,1.09710830979419E-16,-1.));
#837=DIRECTION('center_axis',(0.,-1.,-1.09710830979419E-16));
#838=DIRECTION('ref_axis',(0.,1.09710830979419E-16,-1.));
#839=CARTESIAN_POINT('',(0.,0.,0.));
#840=CARTESIAN_POINT('Origin',(11.6913429510898,-7.6,6.75000000000014));
#841=CARTESIAN_POINT('',(11.6913429510898,-7.24,8.40000000000012));
#842=CARTESIAN_POINT('Origin',(11.6913429510898,-7.24,6.75000000000014));
#843=CARTESIAN_POINT('',(11.6913429510898,-7.6,8.76000000000013));
#844=CARTESIAN_POINT('',(11.6913429510898,-7.6,8.76000000000013));
#845=CARTESIAN_POINT('Origin',(11.6913429510898,-7.6,6.75000000000014));
#846=CARTESIAN_POINT('Origin',(11.6913429510898,-7.6,6.75000000000014));
#847=CARTESIAN_POINT('',(11.6913429510898,-0.360000000000003,5.10000000000014));
#848=CARTESIAN_POINT('',(11.6913429510898,-0.360000000000003,8.40000000000013));
#849=CARTESIAN_POINT('Origin',(11.6913429510898,-0.360000000000003,6.75000000000014));
#850=CARTESIAN_POINT('Origin',(11.6913429510898,-0.360000000000003,6.75000000000014));
#851=CARTESIAN_POINT('',(11.6913429510898,-7.6,8.40000000000013));
#852=CARTESIAN_POINT('Origin',(11.6913429510898,-0.360000000000003,6.75000000000014));
#853=CARTESIAN_POINT('',(11.6913429510898,2.77555756156289E-16,4.74000000000014));
#854=CARTESIAN_POINT('',(11.6913429510898,-0.360000000000003,5.10000000000014));
#855=CARTESIAN_POINT('Origin',(11.6913429510898,0.,6.75000000000014));
#856=CARTESIAN_POINT('Origin',(11.69134295109,-7.6,-6.74999999999989));
#857=CARTESIAN_POINT('',(11.69134295109,-7.24,-5.0999999999999));
#858=CARTESIAN_POINT('Origin',(11.69134295109,-7.24,-6.74999999999989));
#859=CARTESIAN_POINT('',(11.69134295109,-7.6,-4.73999999999989));
#860=CARTESIAN_POINT('',(11.69134295109,-7.6,-4.73999999999989));
#861=CARTESIAN_POINT('Origin',(11.69134295109,-7.6,-6.74999999999989));
#862=CARTESIAN_POINT('Origin',(11.69134295109,-7.6,-6.74999999999989));
#863=CARTESIAN_POINT('',(11.69134295109,-0.360000000000001,-8.39999999999989));
#864=CARTESIAN_POINT('',(11.69134295109,-0.360000000000001,-5.0999999999999));
#865=CARTESIAN_POINT('Origin',(11.69134295109,-0.360000000000001,-6.74999999999989));
#866=CARTESIAN_POINT('Origin',(11.69134295109,-0.360000000000001,-6.74999999999989));
#867=CARTESIAN_POINT('',(11.69134295109,-7.6,-5.0999999999999));
#868=CARTESIAN_POINT('Origin',(11.69134295109,-0.360000000000001,-6.74999999999989));
#869=CARTESIAN_POINT('',(11.69134295109,2.0122792321331E-15,-8.75999999999989));
#870=CARTESIAN_POINT('',(11.69134295109,-0.360000000000001,-8.39999999999989));
#871=CARTESIAN_POINT('Origin',(11.69134295109,1.73472347597681E-15,-6.74999999999989));
#872=CARTESIAN_POINT('Origin',(0.,-7.6,-13.5));
#873=CARTESIAN_POINT('',(-2.02066721859312E-16,-7.24,-11.85));
#874=CARTESIAN_POINT('Origin',(0.,-7.24,-13.5));
#875=CARTESIAN_POINT('',(-2.46154006628618E-16,-7.6,-11.49));
#876=CARTESIAN_POINT('',(-2.46154006628618E-16,-7.6,-11.49));
#877=CARTESIAN_POINT('Origin',(0.,-7.6,-13.5));
#878=CARTESIAN_POINT('Origin',(0.,-7.6,-13.5));
#879=CARTESIAN_POINT('',(2.24110364243965E-16,-0.360000000000001,-15.15));
#880=CARTESIAN_POINT('',(-2.02066721859312E-16,-0.360000000000003,-11.85));
#881=CARTESIAN_POINT('Origin',(0.,-0.360000000000001,-13.5));
#882=CARTESIAN_POINT('Origin',(0.,-0.360000000000001,-13.5));
#883=CARTESIAN_POINT('',(-2.02066721859312E-16,-7.6,-11.85));
#884=CARTESIAN_POINT('Origin',(0.,-0.360000000000001,-13.5));
#885=CARTESIAN_POINT('',(-2.46154006628618E-16,2.08166817117217E-15,-15.51));
#886=CARTESIAN_POINT('',(-2.02066721859313E-16,-0.360000000000001,-15.15));
#887=CARTESIAN_POINT('Origin',(0.,1.73472347597681E-15,-13.5));
#888=CARTESIAN_POINT('Origin',(-11.6913429510899,-7.6,-6.75000000000006));
#889=CARTESIAN_POINT('',(-11.6913429510899,-7.24,-5.10000000000007));
#890=CARTESIAN_POINT('Origin',(-11.6913429510899,-7.24,-6.75000000000006));
#891=CARTESIAN_POINT('',(-11.6913429510899,-7.6,-4.74000000000006));
#892=CARTESIAN_POINT('',(-11.6913429510899,-7.6,-4.74000000000006));
#893=CARTESIAN_POINT('Origin',(-11.6913429510899,-7.6,-6.75000000000006));
#894=CARTESIAN_POINT('Origin',(-11.6913429510899,-7.6,-6.75000000000006));
#895=CARTESIAN_POINT('',(-11.6913429510899,-0.360000000000001,-8.40000000000005));
#896=CARTESIAN_POINT('',(-11.6913429510899,-0.360000000000001,-5.10000000000006));
#897=CARTESIAN_POINT('Origin',(-11.6913429510899,-0.360000000000001,-6.75000000000006));
#898=CARTESIAN_POINT('Origin',(-11.6913429510899,-0.360000000000001,-6.75000000000006));
#899=CARTESIAN_POINT('',(-11.6913429510899,-7.6,-5.10000000000006));
#900=CARTESIAN_POINT('Origin',(-11.6913429510899,-0.360000000000001,-6.75000000000006));
#901=CARTESIAN_POINT('',(-11.6913429510899,2.63677968348475E-15,-8.76000000000005));
#902=CARTESIAN_POINT('',(-11.6913429510899,-0.360000000000001,-8.40000000000005));
#903=CARTESIAN_POINT('Origin',(-11.6913429510899,1.73472347597681E-15,-6.75000000000006));
#904=CARTESIAN_POINT('Origin',(-11.6913429510899,-7.6,6.74999999999997));
#905=CARTESIAN_POINT('',(-11.6913429510899,-7.24,8.39999999999996));
#906=CARTESIAN_POINT('Origin',(-11.6913429510899,-7.24,6.74999999999997));
#907=CARTESIAN_POINT('',(-11.6913429510899,-7.6,8.75999999999997));
#908=CARTESIAN_POINT('',(-11.6913429510899,-7.6,8.75999999999997));
#909=CARTESIAN_POINT('Origin',(-11.6913429510899,-7.6,6.74999999999997));
#910=CARTESIAN_POINT('Origin',(-11.6913429510899,-7.6,6.74999999999997));
#911=CARTESIAN_POINT('',(-11.6913429510899,-0.360000000000003,5.09999999999998));
#912=CARTESIAN_POINT('',(-11.6913429510899,-0.360000000000003,8.39999999999997));
#913=CARTESIAN_POINT('Origin',(-11.6913429510899,-0.360000000000003,6.74999999999997));
#914=CARTESIAN_POINT('Origin',(-11.6913429510899,-0.360000000000003,6.74999999999997));
#915=CARTESIAN_POINT('',(-11.6913429510899,-7.6,8.39999999999997));
#916=CARTESIAN_POINT('Origin',(-11.6913429510899,-0.360000000000003,6.74999999999997));
#917=CARTESIAN_POINT('',(-11.6913429510899,9.0205620750794E-16,4.73999999999997));
#918=CARTESIAN_POINT('',(-11.6913429510899,-0.360000000000003,5.09999999999998));
#919=CARTESIAN_POINT('Origin',(-11.6913429510899,0.,6.74999999999997));
#920=CARTESIAN_POINT('Origin',(0.,-7.6,13.5));
#921=CARTESIAN_POINT('',(-2.02066721859312E-16,-7.24,15.15));
#922=CARTESIAN_POINT('Origin',(0.,-7.24,13.5));
#923=CARTESIAN_POINT('',(-2.46154006628618E-16,-7.6,15.51));
#924=CARTESIAN_POINT('',(-2.46154006628618E-16,-7.6,15.51));
#925=CARTESIAN_POINT('Origin',(0.,-7.6,13.5));
#926=CARTESIAN_POINT('Origin',(0.,-7.6,13.5));
#927=CARTESIAN_POINT('',(2.24110364243965E-16,-0.360000000000004,11.85));
#928=CARTESIAN_POINT('',(-2.02066721859312E-16,-0.360000000000004,15.15));
#929=CARTESIAN_POINT('Origin',(0.,-0.360000000000004,13.5));
#930=CARTESIAN_POINT('Origin',(0.,-0.360000000000004,13.5));
#931=CARTESIAN_POINT('',(-2.02066721859312E-16,-7.6,15.15));
#932=CARTESIAN_POINT('Origin',(0.,-0.360000000000004,13.5));
#933=CARTESIAN_POINT('',(-2.46154006628618E-16,6.93889390390723E-17,11.49));
#934=CARTESIAN_POINT('',(-2.02066721859313E-16,-0.360000000000004,11.85));
#935=CARTESIAN_POINT('Origin',(0.,-8.67361737988404E-16,13.5));
#936=CARTESIAN_POINT('Origin',(0.,-14.9,-7.54101112779204E-15));
#937=CARTESIAN_POINT('',(-1.16647607618785E-15,-14.9,-9.52500000000001));
#938=CARTESIAN_POINT('Origin',(0.,-14.9,-7.54101112779204E-15));
#939=CARTESIAN_POINT('',(-1.15422960819638E-15,-15.,-9.42500000000002));
#940=CARTESIAN_POINT('',(-1.16647607618785E-15,-14.9,-9.52500000000001));
#941=CARTESIAN_POINT('Origin',(0.,-15.,-7.55198221088998E-15));
#942=CARTESIAN_POINT('Origin',(0.,-15.,-7.55198221088998E-15));
#943=CARTESIAN_POINT('',(9.67470971326409E-16,-14.9,-7.9));
#944=CARTESIAN_POINT('',(-9.67470971326409E-16,-14.9,7.89999999999999));
#945=CARTESIAN_POINT('Origin',(0.,-14.9,-7.54101112779204E-15));
#946=CARTESIAN_POINT('Origin',(0.,-14.9,-7.54101112779204E-15));
#947=CARTESIAN_POINT('',(-9.79717439317881E-16,-15.,7.99999999999998));
#948=CARTESIAN_POINT('',(-9.79717439317881E-16,-15.,7.99999999999998));
#949=CARTESIAN_POINT('Origin',(0.,-15.,-7.55198221088998E-15));
#950=CARTESIAN_POINT('Origin',(0.,-7.2,-6.69623772925052E-15));
#951=CARTESIAN_POINT('',(-2.0818995585505E-15,-7.2,-17.));
#952=CARTESIAN_POINT('Origin',(0.,-7.2,-6.69623772925052E-15));
#953=CARTESIAN_POINT('',(-2.03291368658461E-15,-7.6,-16.6));
#954=CARTESIAN_POINT('',(-2.0818995585505E-15,-7.2,-17.));
#955=CARTESIAN_POINT('Origin',(0.,-7.6,-6.74012206164228E-15));
#956=CARTESIAN_POINT('Origin',(0.,0.,-5.9063197461987E-15));
#957=CARTESIAN_POINT('',(2.0818995585505E-15,-0.400000000000003,-17.));
#958=CARTESIAN_POINT('',(-2.0818995585505E-15,-0.400000000000007,17.));
#959=CARTESIAN_POINT('Origin',(0.,-0.400000000000005,-5.95020407859047E-15));
#960=CARTESIAN_POINT('Origin',(0.,-0.400000000000005,-5.95020407859047E-15));
#961=CARTESIAN_POINT('',(-2.03291368658461E-15,-5.27865345742234E-16,16.6));
#962=CARTESIAN_POINT('',(-2.03291368658461E-15,-1.82119979425833E-15,16.6));
#963=CARTESIAN_POINT('Origin',(0.,1.52223777983944E-15,-5.9063197461987E-15));
#964=CARTESIAN_POINT('Origin',(0.,53.8353387124258,0.));
#965=CARTESIAN_POINT('',(-1.16647607618785E-15,-7.6,-9.52500000000001));
#966=CARTESIAN_POINT('Origin',(0.,-7.6,-6.74012206164228E-15));
#967=CARTESIAN_POINT('',(-1.16647607618785E-15,53.8353387124258,-9.525));
#968=CARTESIAN_POINT('Origin',(0.,53.8353387124258,0.));
#969=CARTESIAN_POINT('',(-9.67470971326409E-16,-1.2,-7.9));
#970=CARTESIAN_POINT('',(-9.67470971326409E-16,53.8353387124258,-7.9));
#971=CARTESIAN_POINT('Origin',(0.,-1.2,-6.037972743374E-15));
#972=CARTESIAN_POINT('Origin',(0.,-1.2,-6.037972743374E-15));
#973=CARTESIAN_POINT('',(-1.09380772227709E-15,-1.2,-8.93161785944028));
#974=CARTESIAN_POINT('Origin',(0.,-1.2,-6.037972743374E-15));
#975=CARTESIAN_POINT('',(-1.12055182121983E-15,-0.600000000000001,-9.15));
#976=CARTESIAN_POINT('',(-1.09380772227709E-15,-1.2,-8.93161785944028));
#977=CARTESIAN_POINT('',(1.21852356515162E-15,-0.600000000000004,9.14999999999999));
#978=CARTESIAN_POINT('Origin',(0.,-0.600000000000003,-5.97214624478635E-15));
#979=CARTESIAN_POINT('Origin',(0.,-0.600000000000003,-5.97214624478635E-15));
#980=CARTESIAN_POINT('Origin',(0.,-0.600000000000003,-5.97214624478635E-15));
#981=CARTESIAN_POINT('',(1.3164953090834E-15,-1.18235237482593,-10.75));
#982=CARTESIAN_POINT('',(-1.3164953090834E-15,-1.18235237482593,10.75));
#983=CARTESIAN_POINT('Origin',(0.,-1.18235237482593,-6.03603660775134E-15));
#984=CARTESIAN_POINT('',(-1.12055182121983E-15,-0.600000000000004,9.14999999999999));
#985=CARTESIAN_POINT('Origin',(0.,-1.18235237482593,-6.03603660775134E-15));
#986=CARTESIAN_POINT('Origin',(0.,53.8353387124258,0.));
#987=CARTESIAN_POINT('',(-1.3164953090834E-15,0.,-10.75));
#988=CARTESIAN_POINT('',(-1.3164953090834E-15,53.8353387124258,-10.75));
#989=CARTESIAN_POINT('Origin',(0.,0.,-5.9063197461987E-15));
#990=CARTESIAN_POINT('Origin',(0.,53.8353387124258,0.));
#991=CARTESIAN_POINT('',(-2.0818995585505E-15,53.8353387124258,-17.));
#992=CARTESIAN_POINT('Origin',(0.,-3.42846346810684E-16,17.));
#993=CARTESIAN_POINT('Origin',(0.,-1.2,8.93161785944027));
#994=CARTESIAN_POINT('Origin',(0.,-15.,9.52499999999999));
#995=CARTESIAN_POINT('Origin',(0.,-7.6,9.52499999999999));
#996=UNCERTAINTY_MEASURE_WITH_UNIT(LENGTH_MEASURE(0.01),#1000,
'DISTANCE_ACCURACY_VALUE',
'Maximum model space distance between geometric entities at asserted c
onnectivities');
#997=UNCERTAINTY_MEASURE_WITH_UNIT(LENGTH_MEASURE(0.01),#1000,
'DISTANCE_ACCURACY_VALUE',
'Maximum model space distance between geometric entities at asserted c
onnectivities');
#998=(
GEOMETRIC_REPRESENTATION_CONTEXT(3)
GLOBAL_UNCERTAINTY_ASSIGNED_CONTEXT((#996))
GLOBAL_UNIT_ASSIGNED_CONTEXT((#1000,#1002,#1003))
REPRESENTATION_CONTEXT('','3D')
);
#999=(
GEOMETRIC_REPRESENTATION_CONTEXT(3)
GLOBAL_UNCERTAINTY_ASSIGNED_CONTEXT((#997))
GLOBAL_UNIT_ASSIGNED_CONTEXT((#1000,#1002,#1003))
REPRESENTATION_CONTEXT('','3D')
);
#1000=(
LENGTH_UNIT()
NAMED_UNIT(*)
SI_UNIT(.MILLI.,.METRE.)
);
#1001=(
LENGTH_UNIT()
NAMED_UNIT(*)
SI_UNIT($,.METRE.)
);
#1002=(
NAMED_UNIT(*)
PLANE_ANGLE_UNIT()
SI_UNIT($,.RADIAN.)
);
#1003=(
NAMED_UNIT(*)
SI_UNIT($,.STERADIAN.)
SOLID_ANGLE_UNIT()
);
#1004=SHAPE_DEFINITION_REPRESENTATION(#1005,#1006);
#1005=PRODUCT_DEFINITION_SHAPE('',$,#1008);
#1006=SHAPE_REPRESENTATION('',(#568),#998);
#1007=PRODUCT_DEFINITION_CONTEXT('part definition',#1012,'design');
#1008=PRODUCT_DEFINITION('Hositrad_CF16-19-XT','Hositrad_CF16-19-XT v1',
#1009,#1007);
#1009=PRODUCT_DEFINITION_FORMATION('',$,#1014);
#1010=PRODUCT_RELATED_PRODUCT_CATEGORY('Hositrad_CF16-19-XT v1',
'Hositrad_CF16-19-XT v1',(#1014));
#1011=APPLICATION_PROTOCOL_DEFINITION('international standard',
'automotive_design',2009,#1012);
#1012=APPLICATION_CONTEXT(
'Core Data for Automotive Mechanical Design Process');
#1013=PRODUCT_CONTEXT('part definition',#1012,'mechanical');
#1014=PRODUCT('Hositrad_CF16-19-XT','Hositrad_CF16-19-XT v1',$,(#1013));
#1015=PRESENTATION_STYLE_ASSIGNMENT((#1017));
#1016=PRESENTATION_STYLE_ASSIGNMENT((#1018));
#1017=SURFACE_STYLE_USAGE(.BOTH.,#1019);
#1018=SURFACE_STYLE_USAGE(.BOTH.,#1020);
#1019=SURFACE_SIDE_STYLE('',(#1021));
#1020=SURFACE_SIDE_STYLE('',(#1022));
#1021=SURFACE_STYLE_FILL_AREA(#1023);
#1022=SURFACE_STYLE_FILL_AREA(#1024);
#1023=FILL_AREA_STYLE('Steel - Satin',(#1025));
#1024=FILL_AREA_STYLE('Opaque(165,158,150)',(#1026));
#1025=FILL_AREA_STYLE_COLOUR('Steel - Satin',#1027);
#1026=FILL_AREA_STYLE_COLOUR('Opaque(165,158,150)',#1028);
#1027=COLOUR_RGB('Steel - Satin',0.627450980392157,0.627450980392157,0.627450980392157);
#1028=COLOUR_RGB('Opaque(165,158,150)',0.647058823529412,0.619607843137255,
0.588235294117647);
ENDSEC;
END-ISO-10303-21;
