ISO-10303-21;
HEADER;
/* Generated by software containing ST-Developer
 * from STEP Tools, Inc. (www.steptools.com) 
 */

FILE_DESCRIPTION(
/* description */ (''),
/* implementation_level */ '2;1');

FILE_NAME(
/* name */ 'KF16Flange v1.step',
/* time_stamp */ '2024-06-14T14:22:18+02:00',
/* author */ (''),
/* organization */ (''),
/* preprocessor_version */ 'ST-DEVELOPER v20',
/* originating_system */ 'Autodesk Translation Framework v13.14.0.145',

/* authorisation */ '');

FILE_SCHEMA (('AUTOMOTIVE_DESIGN { 1 0 10303 214 3 1 1 }'));
ENDSEC;

DATA;
#10=MECHANICAL_DESIGN_GEOMETRIC_PRESENTATION_REPRESENTATION('',(#39,#40),
#525);
#11=ITEM_DEFINED_TRANSFORMATION($,$,#333,#335);
#12=ITEM_DEFINED_TRANSFORMATION($,$,#334,#336);
#13=ITEM_DEFINED_TRANSFORMATION($,$,#295,#337);
#14=ITEM_DEFINED_TRANSFORMATION($,$,#304,#338);
#15=ITEM_DEFINED_TRANSFORMATION($,$,#332,#339);
#16=(
REPRESENTATION_RELATIONSHIP($,$,#551,#550)
REPRESENTATION_RELATIONSHIP_WITH_TRANSFORMATION(#11)
SHAPE_REPRESENTATION_RELATIONSHIP()
);
#17=(
REPRESENTATION_RELATIONSHIP($,$,#552,#550)
REPRESENTATION_RELATIONSHIP_WITH_TRANSFORMATION(#12)
SHAPE_REPRESENTATION_RELATIONSHIP()
);
#18=(
REPRESENTATION_RELATIONSHIP($,$,#548,#547)
REPRESENTATION_RELATIONSHIP_WITH_TRANSFORMATION(#13)
SHAPE_REPRESENTATION_RELATIONSHIP()
);
#19=(
REPRESENTATION_RELATIONSHIP($,$,#549,#547)
REPRESENTATION_RELATIONSHIP_WITH_TRANSFORMATION(#14)
SHAPE_REPRESENTATION_RELATIONSHIP()
);
#20=(
REPRESENTATION_RELATIONSHIP($,$,#550,#547)
REPRESENTATION_RELATIONSHIP_WITH_TRANSFORMATION(#15)
SHAPE_REPRESENTATION_RELATIONSHIP()
);
#21=CONTEXT_DEPENDENT_SHAPE_REPRESENTATION(#16,#542);
#22=CONTEXT_DEPENDENT_SHAPE_REPRESENTATION(#17,#543);
#23=CONTEXT_DEPENDENT_SHAPE_REPRESENTATION(#18,#544);
#24=CONTEXT_DEPENDENT_SHAPE_REPRESENTATION(#19,#545);
#25=CONTEXT_DEPENDENT_SHAPE_REPRESENTATION(#20,#546);
#26=NEXT_ASSEMBLY_USAGE_OCCURRENCE('NW16CF-Outerring:1',
'NW16CF-Outerring:1','NW16CF-Outerring:1',#557,#558,
'NW16CF-Outerring:1');
#27=NEXT_ASSEMBLY_USAGE_OCCURRENCE('NW16CF-Innerring_CF16-19-R:1',
'NW16CF-Innerring_CF16-19-R:1','NW16CF-Innerring_CF16-19-R:1',#557,#559,
'NW16CF-Innerring_CF16-19-R:1');
#28=NEXT_ASSEMBLY_USAGE_OCCURRENCE('CF-To-KF-Adaptors-All_CFA16-KF16:1',
'CF-To-KF-Adaptors-All_CFA16-KF16:1',
'CF-To-KF-Adaptors-All_CFA16-KF16:1',#554,#555,
'CF-To-KF-Adaptors-All_CFA16-KF16:1');
#29=NEXT_ASSEMBLY_USAGE_OCCURRENCE('KF16-19WS_KF16-19:1',
'KF16-19WS_KF16-19:1','KF16-19WS_KF16-19:1',#554,#556,
'KF16-19WS_KF16-19:1');
#30=NEXT_ASSEMBLY_USAGE_OCCURRENCE('CF16-19-R:1','CF16-19-R:1',
'CF16-19-R:1',#554,#557,'CF16-19-R:1');
#31=CONICAL_SURFACE('',#310,8.79999999999999,0.785398163397448);
#32=CONICAL_SURFACE('',#328,7.23733432025675,1.30899693899575);
#33=TOROIDAL_SURFACE('',#305,14.8,0.2);
#34=TOROIDAL_SURFACE('',#317,13.5,1.5);
#35=SHAPE_REPRESENTATION_RELATIONSHIP('SRR','None',#548,#37);
#36=SHAPE_REPRESENTATION_RELATIONSHIP('SRR','None',#549,#38);
#37=ADVANCED_BREP_SHAPE_REPRESENTATION('',(#41),#520);
#38=ADVANCED_BREP_SHAPE_REPRESENTATION('',(#42),#521);
#39=STYLED_ITEM('',(#582),#41);
#40=STYLED_ITEM('',(#582),#42);
#41=MANIFOLD_SOLID_BREP('Body1',#247);
#42=MANIFOLD_SOLID_BREP('Body1',#248);
#43=LINE('',#449,#51);
#44=LINE('',#454,#52);
#45=LINE('',#471,#53);
#46=LINE('',#477,#54);
#47=LINE('',#488,#55);
#48=LINE('',#491,#56);
#49=LINE('',#497,#57);
#50=LINE('',#500,#58);
#51=VECTOR('',#352,8.525);
#52=VECTOR('',#359,9.525);
#53=VECTOR('',#380,8.79999999999999);
#54=VECTOR('',#387,9.6);
#55=VECTOR('',#402,15.);
#56=VECTOR('',#405,8.59999999999999);
#57=VECTOR('',#412,8.2);
#58=VECTOR('',#417,7.23733432025675);
#59=CYLINDRICAL_SURFACE('',#299,8.525);
#60=CYLINDRICAL_SURFACE('',#301,9.525);
#61=CYLINDRICAL_SURFACE('',#314,9.6);
#62=CYLINDRICAL_SURFACE('',#322,15.);
#63=CYLINDRICAL_SURFACE('',#323,8.59999999999999);
#64=CYLINDRICAL_SURFACE('',#325,8.2);
#65=FACE_BOUND('',#86,.T.);
#66=FACE_BOUND('',#90,.T.);
#67=FACE_BOUND('',#100,.T.);
#68=FACE_BOUND('',#102,.T.);
#69=FACE_BOUND('',#104,.T.);
#70=FACE_OUTER_BOUND('',#85,.T.);
#71=FACE_OUTER_BOUND('',#87,.T.);
#72=FACE_OUTER_BOUND('',#88,.T.);
#73=FACE_OUTER_BOUND('',#89,.T.);
#74=FACE_OUTER_BOUND('',#91,.T.);
#75=FACE_OUTER_BOUND('',#92,.T.);
#76=FACE_OUTER_BOUND('',#93,.T.);
#77=FACE_OUTER_BOUND('',#94,.T.);
#78=FACE_OUTER_BOUND('',#95,.T.);
#79=FACE_OUTER_BOUND('',#96,.T.);
#80=FACE_OUTER_BOUND('',#97,.T.);
#81=FACE_OUTER_BOUND('',#98,.T.);
#82=FACE_OUTER_BOUND('',#99,.T.);
#83=FACE_OUTER_BOUND('',#101,.T.);
#84=FACE_OUTER_BOUND('',#103,.T.);
#85=EDGE_LOOP('',(#171));
#86=EDGE_LOOP('',(#172));
#87=EDGE_LOOP('',(#173,#174,#175,#176));
#88=EDGE_LOOP('',(#177,#178,#179,#180));
#89=EDGE_LOOP('',(#181));
#90=EDGE_LOOP('',(#182));
#91=EDGE_LOOP('',(#183,#184,#185,#186,#187));
#92=EDGE_LOOP('',(#188,#189,#190,#191,#192));
#93=EDGE_LOOP('',(#193,#194,#195,#196));
#94=EDGE_LOOP('',(#197,#198,#199,#200,#201));
#95=EDGE_LOOP('',(#202,#203,#204,#205,#206,#207));
#96=EDGE_LOOP('',(#208,#209,#210,#211,#212));
#97=EDGE_LOOP('',(#213,#214,#215,#216));
#98=EDGE_LOOP('',(#217,#218,#219,#220));
#99=EDGE_LOOP('',(#221));
#100=EDGE_LOOP('',(#222));
#101=EDGE_LOOP('',(#223));
#102=EDGE_LOOP('',(#224));
#103=EDGE_LOOP('',(#225));
#104=EDGE_LOOP('',(#226));
#105=CIRCLE('',#297,9.525);
#106=CIRCLE('',#298,8.525);
#107=CIRCLE('',#300,8.525);
#108=CIRCLE('',#302,9.525);
#109=CIRCLE('',#306,14.8);
#110=CIRCLE('',#307,0.2);
#111=CIRCLE('',#308,15.);
#112=CIRCLE('',#309,15.);
#113=CIRCLE('',#311,8.59999999999999);
#114=CIRCLE('',#312,8.59999999999999);
#115=CIRCLE('',#313,8.79999999999999);
#116=CIRCLE('',#315,9.6);
#117=CIRCLE('',#316,9.6);
#118=CIRCLE('',#318,15.);
#119=CIRCLE('',#319,15.);
#120=CIRCLE('',#320,1.5);
#121=CIRCLE('',#321,13.8882285676538);
#122=CIRCLE('',#324,8.59999999999999);
#123=CIRCLE('',#326,8.2);
#124=CIRCLE('',#327,8.2);
#125=VERTEX_POINT('',#443);
#126=VERTEX_POINT('',#445);
#127=VERTEX_POINT('',#448);
#128=VERTEX_POINT('',#452);
#129=VERTEX_POINT('',#458);
#130=VERTEX_POINT('',#460);
#131=VERTEX_POINT('',#462);
#132=VERTEX_POINT('',#466);
#133=VERTEX_POINT('',#467);
#134=VERTEX_POINT('',#470);
#135=VERTEX_POINT('',#474);
#136=VERTEX_POINT('',#476);
#137=VERTEX_POINT('',#480);
#138=VERTEX_POINT('',#481);
#139=VERTEX_POINT('',#484);
#140=VERTEX_POINT('',#490);
#141=VERTEX_POINT('',#494);
#142=VERTEX_POINT('',#496);
#143=EDGE_CURVE('',#125,#125,#105,.T.);
#144=EDGE_CURVE('',#126,#126,#106,.T.);
#145=EDGE_CURVE('',#126,#127,#43,.T.);
#146=EDGE_CURVE('',#127,#127,#107,.T.);
#147=EDGE_CURVE('',#128,#128,#108,.T.);
#148=EDGE_CURVE('',#128,#125,#44,.T.);
#149=EDGE_CURVE('',#129,#129,#109,.T.);
#150=EDGE_CURVE('',#129,#130,#110,.T.);
#151=EDGE_CURVE('',#131,#130,#111,.T.);
#152=EDGE_CURVE('',#130,#131,#112,.T.);
#153=EDGE_CURVE('',#132,#133,#113,.T.);
#154=EDGE_CURVE('',#133,#132,#114,.T.);
#155=EDGE_CURVE('',#133,#134,#45,.T.);
#156=EDGE_CURVE('',#134,#134,#115,.T.);
#157=EDGE_CURVE('',#135,#135,#116,.T.);
#158=EDGE_CURVE('',#135,#136,#46,.T.);
#159=EDGE_CURVE('',#136,#136,#117,.T.);
#160=EDGE_CURVE('',#137,#138,#118,.T.);
#161=EDGE_CURVE('',#138,#137,#119,.T.);
#162=EDGE_CURVE('',#138,#139,#120,.T.);
#163=EDGE_CURVE('',#139,#139,#121,.T.);
#164=EDGE_CURVE('',#137,#131,#47,.T.);
#165=EDGE_CURVE('',#132,#140,#48,.T.);
#166=EDGE_CURVE('',#140,#140,#122,.T.);
#167=EDGE_CURVE('',#141,#141,#123,.T.);
#168=EDGE_CURVE('',#141,#142,#49,.T.);
#169=EDGE_CURVE('',#142,#142,#124,.T.);
#170=EDGE_CURVE('',#139,#135,#50,.T.);
#171=ORIENTED_EDGE('',*,*,#143,.F.);
#172=ORIENTED_EDGE('',*,*,#144,.F.);
#173=ORIENTED_EDGE('',*,*,#144,.T.);
#174=ORIENTED_EDGE('',*,*,#145,.T.);
#175=ORIENTED_EDGE('',*,*,#146,.F.);
#176=ORIENTED_EDGE('',*,*,#145,.F.);
#177=ORIENTED_EDGE('',*,*,#147,.T.);
#178=ORIENTED_EDGE('',*,*,#148,.T.);
#179=ORIENTED_EDGE('',*,*,#143,.T.);
#180=ORIENTED_EDGE('',*,*,#148,.F.);
#181=ORIENTED_EDGE('',*,*,#147,.F.);
#182=ORIENTED_EDGE('',*,*,#146,.T.);
#183=ORIENTED_EDGE('',*,*,#149,.F.);
#184=ORIENTED_EDGE('',*,*,#150,.T.);
#185=ORIENTED_EDGE('',*,*,#151,.F.);
#186=ORIENTED_EDGE('',*,*,#152,.F.);
#187=ORIENTED_EDGE('',*,*,#150,.F.);
#188=ORIENTED_EDGE('',*,*,#153,.F.);
#189=ORIENTED_EDGE('',*,*,#154,.F.);
#190=ORIENTED_EDGE('',*,*,#155,.T.);
#191=ORIENTED_EDGE('',*,*,#156,.F.);
#192=ORIENTED_EDGE('',*,*,#155,.F.);
#193=ORIENTED_EDGE('',*,*,#157,.F.);
#194=ORIENTED_EDGE('',*,*,#158,.T.);
#195=ORIENTED_EDGE('',*,*,#159,.F.);
#196=ORIENTED_EDGE('',*,*,#158,.F.);
#197=ORIENTED_EDGE('',*,*,#160,.F.);
#198=ORIENTED_EDGE('',*,*,#161,.F.);
#199=ORIENTED_EDGE('',*,*,#162,.T.);
#200=ORIENTED_EDGE('',*,*,#163,.F.);
#201=ORIENTED_EDGE('',*,*,#162,.F.);
#202=ORIENTED_EDGE('',*,*,#160,.T.);
#203=ORIENTED_EDGE('',*,*,#161,.T.);
#204=ORIENTED_EDGE('',*,*,#164,.T.);
#205=ORIENTED_EDGE('',*,*,#151,.T.);
#206=ORIENTED_EDGE('',*,*,#152,.T.);
#207=ORIENTED_EDGE('',*,*,#164,.F.);
#208=ORIENTED_EDGE('',*,*,#153,.T.);
#209=ORIENTED_EDGE('',*,*,#154,.T.);
#210=ORIENTED_EDGE('',*,*,#165,.T.);
#211=ORIENTED_EDGE('',*,*,#166,.T.);
#212=ORIENTED_EDGE('',*,*,#165,.F.);
#213=ORIENTED_EDGE('',*,*,#167,.T.);
#214=ORIENTED_EDGE('',*,*,#168,.T.);
#215=ORIENTED_EDGE('',*,*,#169,.F.);
#216=ORIENTED_EDGE('',*,*,#168,.F.);
#217=ORIENTED_EDGE('',*,*,#163,.T.);
#218=ORIENTED_EDGE('',*,*,#170,.T.);
#219=ORIENTED_EDGE('',*,*,#157,.T.);
#220=ORIENTED_EDGE('',*,*,#170,.F.);
#221=ORIENTED_EDGE('',*,*,#166,.F.);
#222=ORIENTED_EDGE('',*,*,#169,.T.);
#223=ORIENTED_EDGE('',*,*,#149,.T.);
#224=ORIENTED_EDGE('',*,*,#156,.T.);
#225=ORIENTED_EDGE('',*,*,#159,.T.);
#226=ORIENTED_EDGE('',*,*,#167,.F.);
#227=PLANE('',#296);
#228=PLANE('',#303);
#229=PLANE('',#329);
#230=PLANE('',#330);
#231=PLANE('',#331);
#232=ADVANCED_FACE('',(#70,#65),#227,.F.);
#233=ADVANCED_FACE('',(#71),#59,.F.);
#234=ADVANCED_FACE('',(#72),#60,.T.);
#235=ADVANCED_FACE('',(#73,#66),#228,.F.);
#236=ADVANCED_FACE('',(#74),#33,.T.);
#237=ADVANCED_FACE('',(#75),#31,.F.);
#238=ADVANCED_FACE('',(#76),#61,.F.);
#239=ADVANCED_FACE('',(#77),#34,.T.);
#240=ADVANCED_FACE('',(#78),#62,.T.);
#241=ADVANCED_FACE('',(#79),#63,.F.);
#242=ADVANCED_FACE('',(#80),#64,.F.);
#243=ADVANCED_FACE('',(#81),#32,.T.);
#244=ADVANCED_FACE('',(#82,#67),#229,.T.);
#245=ADVANCED_FACE('',(#83,#68),#230,.T.);
#246=ADVANCED_FACE('',(#84,#69),#231,.T.);
#247=CLOSED_SHELL('',(#232,#233,#234,#235));
#248=CLOSED_SHELL('',(#236,#237,#238,#239,#240,#241,#242,#243,#244,#245,
#246));
#249=DERIVED_UNIT_ELEMENT(#257,1.);
#250=DERIVED_UNIT_ELEMENT(#527,-3.);
#251=DERIVED_UNIT_ELEMENT(#257,1.);
#252=DERIVED_UNIT_ELEMENT(#527,-3.);
#253=DERIVED_UNIT_ELEMENT(#257,1.);
#254=DERIVED_UNIT_ELEMENT(#527,-3.);
#255=DERIVED_UNIT_ELEMENT(#257,1.);
#256=DERIVED_UNIT_ELEMENT(#527,-3.);
#257=(
MASS_UNIT()
NAMED_UNIT(*)
SI_UNIT(.KILO.,.GRAM.)
);
#258=DERIVED_UNIT((#249,#250));
#259=DERIVED_UNIT((#251,#252));
#260=DERIVED_UNIT((#253,#254));
#261=DERIVED_UNIT((#255,#256));
#262=MEASURE_REPRESENTATION_ITEM('density measure',
POSITIVE_RATIO_MEASURE(7850.),#258);
#263=MEASURE_REPRESENTATION_ITEM('density measure',
POSITIVE_RATIO_MEASURE(7850.),#259);
#264=MEASURE_REPRESENTATION_ITEM('density measure',
POSITIVE_RATIO_MEASURE(7850.),#260);
#265=MEASURE_REPRESENTATION_ITEM('density measure',
POSITIVE_RATIO_MEASURE(7850.),#261);
#266=PROPERTY_DEFINITION_REPRESENTATION(#286,#274);
#267=PROPERTY_DEFINITION_REPRESENTATION(#287,#275);
#268=PROPERTY_DEFINITION_REPRESENTATION(#288,#276);
#269=PROPERTY_DEFINITION_REPRESENTATION(#289,#277);
#270=PROPERTY_DEFINITION_REPRESENTATION(#290,#278);
#271=PROPERTY_DEFINITION_REPRESENTATION(#291,#279);
#272=PROPERTY_DEFINITION_REPRESENTATION(#292,#280);
#273=PROPERTY_DEFINITION_REPRESENTATION(#293,#281);
#274=REPRESENTATION('material name',(#282),#520);
#275=REPRESENTATION('density',(#262),#520);
#276=REPRESENTATION('material name',(#283),#521);
#277=REPRESENTATION('density',(#263),#521);
#278=REPRESENTATION('material name',(#284),#523);
#279=REPRESENTATION('density',(#264),#523);
#280=REPRESENTATION('material name',(#285),#524);
#281=REPRESENTATION('density',(#265),#524);
#282=DESCRIPTIVE_REPRESENTATION_ITEM('Steel','Steel');
#283=DESCRIPTIVE_REPRESENTATION_ITEM('Steel','Steel');
#284=DESCRIPTIVE_REPRESENTATION_ITEM('Steel','Steel');
#285=DESCRIPTIVE_REPRESENTATION_ITEM('Steel','Steel');
#286=PROPERTY_DEFINITION('material property','material name',#555);
#287=PROPERTY_DEFINITION('material property','density of part',#555);
#288=PROPERTY_DEFINITION('material property','material name',#556);
#289=PROPERTY_DEFINITION('material property','density of part',#556);
#290=PROPERTY_DEFINITION('material property','material name',#558);
#291=PROPERTY_DEFINITION('material property','density of part',#558);
#292=PROPERTY_DEFINITION('material property','material name',#559);
#293=PROPERTY_DEFINITION('material property','density of part',#559);
#294=AXIS2_PLACEMENT_3D('',#440,#340,#341);
#295=AXIS2_PLACEMENT_3D('',#441,#342,#343);
#296=AXIS2_PLACEMENT_3D('',#442,#344,#345);
#297=AXIS2_PLACEMENT_3D('',#444,#346,#347);
#298=AXIS2_PLACEMENT_3D('',#446,#348,#349);
#299=AXIS2_PLACEMENT_3D('',#447,#350,#351);
#300=AXIS2_PLACEMENT_3D('',#450,#353,#354);
#301=AXIS2_PLACEMENT_3D('',#451,#355,#356);
#302=AXIS2_PLACEMENT_3D('',#453,#357,#358);
#303=AXIS2_PLACEMENT_3D('',#455,#360,#361);
#304=AXIS2_PLACEMENT_3D('',#456,#362,#363);
#305=AXIS2_PLACEMENT_3D('',#457,#364,#365);
#306=AXIS2_PLACEMENT_3D('',#459,#366,#367);
#307=AXIS2_PLACEMENT_3D('',#461,#368,#369);
#308=AXIS2_PLACEMENT_3D('',#463,#370,#371);
#309=AXIS2_PLACEMENT_3D('',#464,#372,#373);
#310=AXIS2_PLACEMENT_3D('',#465,#374,#375);
#311=AXIS2_PLACEMENT_3D('',#468,#376,#377);
#312=AXIS2_PLACEMENT_3D('',#469,#378,#379);
#313=AXIS2_PLACEMENT_3D('',#472,#381,#382);
#314=AXIS2_PLACEMENT_3D('',#473,#383,#384);
#315=AXIS2_PLACEMENT_3D('',#475,#385,#386);
#316=AXIS2_PLACEMENT_3D('',#478,#388,#389);
#317=AXIS2_PLACEMENT_3D('',#479,#390,#391);
#318=AXIS2_PLACEMENT_3D('',#482,#392,#393);
#319=AXIS2_PLACEMENT_3D('',#483,#394,#395);
#320=AXIS2_PLACEMENT_3D('',#485,#396,#397);
#321=AXIS2_PLACEMENT_3D('',#486,#398,#399);
#322=AXIS2_PLACEMENT_3D('',#487,#400,#401);
#323=AXIS2_PLACEMENT_3D('',#489,#403,#404);
#324=AXIS2_PLACEMENT_3D('',#492,#406,#407);
#325=AXIS2_PLACEMENT_3D('',#493,#408,#409);
#326=AXIS2_PLACEMENT_3D('',#495,#410,#411);
#327=AXIS2_PLACEMENT_3D('',#498,#413,#414);
#328=AXIS2_PLACEMENT_3D('',#499,#415,#416);
#329=AXIS2_PLACEMENT_3D('',#501,#418,#419);
#330=AXIS2_PLACEMENT_3D('',#502,#420,#421);
#331=AXIS2_PLACEMENT_3D('',#503,#422,#423);
#332=AXIS2_PLACEMENT_3D('',#504,#424,#425);
#333=AXIS2_PLACEMENT_3D('',#505,#426,#427);
#334=AXIS2_PLACEMENT_3D('',#506,#428,#429);
#335=AXIS2_PLACEMENT_3D('',#507,#430,#431);
#336=AXIS2_PLACEMENT_3D('',#508,#432,#433);
#337=AXIS2_PLACEMENT_3D('',#509,#434,#435);
#338=AXIS2_PLACEMENT_3D('',#510,#436,#437);
#339=AXIS2_PLACEMENT_3D('',#511,#438,#439);
#340=DIRECTION('axis',(0.,0.,1.));
#341=DIRECTION('refdir',(1.,0.,0.));
#342=DIRECTION('axis',(0.,0.,1.));
#343=DIRECTION('refdir',(1.,0.,0.));
#344=DIRECTION('center_axis',(0.,0.,-1.));
#345=DIRECTION('ref_axis',(-1.,0.,0.));
#346=DIRECTION('center_axis',(0.,0.,-1.));
#347=DIRECTION('ref_axis',(-1.,0.,0.));
#348=DIRECTION('center_axis',(0.,0.,1.));
#349=DIRECTION('ref_axis',(-1.,0.,0.));
#350=DIRECTION('center_axis',(0.,0.,-1.));
#351=DIRECTION('ref_axis',(-1.,0.,0.));
#352=DIRECTION('',(0.,0.,-1.));
#353=DIRECTION('center_axis',(0.,0.,1.));
#354=DIRECTION('ref_axis',(1.,0.,0.));
#355=DIRECTION('center_axis',(0.,0.,-1.));
#356=DIRECTION('ref_axis',(-1.,0.,0.));
#357=DIRECTION('center_axis',(0.,0.,1.));
#358=DIRECTION('ref_axis',(1.,0.,0.));
#359=DIRECTION('',(0.,0.,1.));
#360=DIRECTION('center_axis',(0.,0.,1.));
#361=DIRECTION('ref_axis',(1.,0.,0.));
#362=DIRECTION('axis',(0.,0.,1.));
#363=DIRECTION('refdir',(1.,0.,0.));
#364=DIRECTION('center_axis',(0.,-1.,0.));
#365=DIRECTION('ref_axis',(0.,0.,-1.));
#366=DIRECTION('center_axis',(0.,-1.,0.));
#367=DIRECTION('ref_axis',(0.,0.,-1.));
#368=DIRECTION('center_axis',(-1.,0.,-1.22464679914735E-16));
#369=DIRECTION('ref_axis',(-1.22464679914735E-16,0.,1.));
#370=DIRECTION('center_axis',(0.,1.,0.));
#371=DIRECTION('ref_axis',(0.,0.,-1.));
#372=DIRECTION('center_axis',(0.,1.,0.));
#373=DIRECTION('ref_axis',(0.,0.,-1.));
#374=DIRECTION('center_axis',(0.,-1.,0.));
#375=DIRECTION('ref_axis',(0.,0.,-1.));
#376=DIRECTION('center_axis',(0.,-1.,0.));
#377=DIRECTION('ref_axis',(0.,0.,-1.));
#378=DIRECTION('center_axis',(0.,-1.,0.));
#379=DIRECTION('ref_axis',(0.,0.,-1.));
#380=DIRECTION('',(-8.65956056235493E-17,-0.707106781186548,0.707106781186548));
#381=DIRECTION('center_axis',(0.,1.,0.));
#382=DIRECTION('ref_axis',(0.,0.,-1.));
#383=DIRECTION('center_axis',(0.,-1.,0.));
#384=DIRECTION('ref_axis',(0.,0.,-1.));
#385=DIRECTION('center_axis',(0.,-1.,0.));
#386=DIRECTION('ref_axis',(0.,0.,-1.));
#387=DIRECTION('',(0.,-1.,0.));
#388=DIRECTION('center_axis',(0.,1.,0.));
#389=DIRECTION('ref_axis',(0.,0.,1.));
#390=DIRECTION('center_axis',(0.,-1.,0.));
#391=DIRECTION('ref_axis',(0.,0.,-1.));
#392=DIRECTION('center_axis',(0.,-1.,0.));
#393=DIRECTION('ref_axis',(0.,0.,-1.));
#394=DIRECTION('center_axis',(0.,-1.,0.));
#395=DIRECTION('ref_axis',(0.,0.,-1.));
#396=DIRECTION('center_axis',(-1.,0.,-1.22464679914735E-16));
#397=DIRECTION('ref_axis',(-1.22464679914735E-16,0.,1.));
#398=DIRECTION('center_axis',(0.,1.,0.));
#399=DIRECTION('ref_axis',(0.,0.,1.));
#400=DIRECTION('center_axis',(0.,1.,0.));
#401=DIRECTION('ref_axis',(0.,0.,1.));
#402=DIRECTION('',(0.,-1.,0.));
#403=DIRECTION('center_axis',(0.,1.,0.));
#404=DIRECTION('ref_axis',(0.,0.,1.));
#405=DIRECTION('',(0.,1.,0.));
#406=DIRECTION('center_axis',(0.,1.,0.));
#407=DIRECTION('ref_axis',(0.,0.,1.));
#408=DIRECTION('center_axis',(0.,-1.,0.));
#409=DIRECTION('ref_axis',(0.,0.,-1.));
#410=DIRECTION('center_axis',(0.,1.,0.));
#411=DIRECTION('ref_axis',(0.,0.,1.));
#412=DIRECTION('',(0.,-1.,0.));
#413=DIRECTION('center_axis',(0.,1.,0.));
#414=DIRECTION('ref_axis',(0.,0.,-1.));
#415=DIRECTION('center_axis',(0.,-1.,0.));
#416=DIRECTION('ref_axis',(0.,0.,-1.));
#417=DIRECTION('',(1.18291797137867E-16,0.258819045102522,-0.965925826289068));
#418=DIRECTION('center_axis',(0.,-1.,0.));
#419=DIRECTION('ref_axis',(0.,0.,-1.));
#420=DIRECTION('center_axis',(0.,-1.,0.));
#421=DIRECTION('ref_axis',(0.,0.,-1.));
#422=DIRECTION('center_axis',(0.,1.,0.));
#423=DIRECTION('ref_axis',(0.,0.,1.));
#424=DIRECTION('axis',(0.,0.,1.));
#425=DIRECTION('refdir',(1.,0.,0.));
#426=DIRECTION('axis',(0.,0.,1.));
#427=DIRECTION('refdir',(1.,0.,0.));
#428=DIRECTION('axis',(0.,0.,1.));
#429=DIRECTION('refdir',(1.,0.,0.));
#430=DIRECTION('',(0.,0.,1.));
#431=DIRECTION('',(1.,0.,0.));
#432=DIRECTION('',(0.,0.,1.));
#433=DIRECTION('',(1.,0.,0.));
#434=DIRECTION('',(0.,0.,1.));
#435=DIRECTION('',(1.,0.,0.));
#436=DIRECTION('',(0.,-1.,0.));
#437=DIRECTION('',(1.,0.,0.));
#438=DIRECTION('',(0.,-1.,0.));
#439=DIRECTION('',(1.,0.,0.));
#440=CARTESIAN_POINT('',(0.,0.,0.));
#441=CARTESIAN_POINT('',(0.,0.,0.));
#442=CARTESIAN_POINT('Origin',(0.500000007450581,0.,13.55));
#443=CARTESIAN_POINT('',(9.525,-1.16647607618785E-15,13.55));
#444=CARTESIAN_POINT('Origin',(0.,0.,13.55));
#445=CARTESIAN_POINT('',(8.525,1.04401139627312E-15,13.55));
#446=CARTESIAN_POINT('Origin',(0.,0.,13.55));
#447=CARTESIAN_POINT('Origin',(0.,0.,16.85));
#448=CARTESIAN_POINT('',(8.525,-1.04401139627312E-15,-16.85));
#449=CARTESIAN_POINT('',(8.525,-1.04401139627312E-15,16.85));
#450=CARTESIAN_POINT('Origin',(0.,0.,-16.85));
#451=CARTESIAN_POINT('Origin',(0.,0.,16.85));
#452=CARTESIAN_POINT('',(9.525,-1.16647607618785E-15,-16.85));
#453=CARTESIAN_POINT('Origin',(0.,0.,-16.85));
#454=CARTESIAN_POINT('',(9.525,-1.16647607618785E-15,16.85));
#455=CARTESIAN_POINT('Origin',(0.,0.,-16.85));
#456=CARTESIAN_POINT('',(0.,0.,0.));
#457=CARTESIAN_POINT('Origin',(0.,0.199999999999999,0.));
#458=CARTESIAN_POINT('',(-1.81247726273808E-15,-1.42247325030098E-15,14.8));
#459=CARTESIAN_POINT('Origin',(0.,-1.43656787854329E-15,0.));
#460=CARTESIAN_POINT('',(-1.83697019872103E-15,0.199999999999999,15.));
#461=CARTESIAN_POINT('Origin',(-1.81247726273808E-15,0.199999999999999,
14.8));
#462=CARTESIAN_POINT('',(1.83697019872103E-15,0.199999999999999,-15.));
#463=CARTESIAN_POINT('Origin',(0.,0.199999999999999,0.));
#464=CARTESIAN_POINT('Origin',(0.,0.199999999999999,0.));
#465=CARTESIAN_POINT('Origin',(0.,0.,0.));
#466=CARTESIAN_POINT('',(1.05319624726672E-15,0.199999999999999,-8.59999999999999));
#467=CARTESIAN_POINT('',(-1.05319624726672E-15,0.2,8.59999999999999));
#468=CARTESIAN_POINT('Origin',(0.,0.199999999999999,0.));
#469=CARTESIAN_POINT('Origin',(0.,0.199999999999999,0.));
#470=CARTESIAN_POINT('',(-1.07768918324967E-15,-2.78383327156294E-15,8.8));
#471=CARTESIAN_POINT('',(-1.07768918324967E-15,0.,8.79999999999999));
#472=CARTESIAN_POINT('Origin',(0.,-1.44508322299388E-15,0.));
#473=CARTESIAN_POINT('Origin',(0.,4.82205450853164,0.));
#474=CARTESIAN_POINT('',(-1.17566092718146E-15,4.44692563912806,9.6));
#475=CARTESIAN_POINT('Origin',(0.,4.44692563912806,0.));
#476=CARTESIAN_POINT('',(-1.17566092718146E-15,3.5,9.6));
#477=CARTESIAN_POINT('',(-1.17566092718146E-15,4.82205450853164,9.6));
#478=CARTESIAN_POINT('Origin',(0.,3.5,0.));
#479=CARTESIAN_POINT('Origin',(0.,1.84900951803155,0.));
#480=CARTESIAN_POINT('',(1.83697019872103E-15,1.84900951803155,-15.));
#481=CARTESIAN_POINT('',(-1.83697019872103E-15,1.84900951803155,15.));
#482=CARTESIAN_POINT('Origin',(0.,1.84900951803155,0.));
#483=CARTESIAN_POINT('Origin',(0.,1.84900951803155,0.));
#484=CARTESIAN_POINT('',(-1.7008174661204E-15,3.29789825746516,13.8882285676538));
#485=CARTESIAN_POINT('Origin',(-1.65327317884893E-15,1.84900951803155,13.5));
#486=CARTESIAN_POINT('Origin',(0.,3.29789825746516,0.));
#487=CARTESIAN_POINT('Origin',(0.,55.2557961982418,0.));
#488=CARTESIAN_POINT('',(-1.83697019872103E-15,55.2557961982418,-15.));
#489=CARTESIAN_POINT('Origin',(0.,55.2557961982418,0.));
#490=CARTESIAN_POINT('',(-1.05319624726672E-15,2.5,-8.59999999999999));
#491=CARTESIAN_POINT('',(-1.05319624726672E-15,55.2557961982418,-8.59999999999999));
#492=CARTESIAN_POINT('Origin',(0.,2.5,0.));
#493=CARTESIAN_POINT('Origin',(0.,5.08,0.));
#494=CARTESIAN_POINT('',(-1.00421037530083E-15,3.5,8.2));
#495=CARTESIAN_POINT('Origin',(0.,3.5,0.));
#496=CARTESIAN_POINT('',(-1.00421037530083E-15,2.5,8.2));
#497=CARTESIAN_POINT('',(-1.00421037530083E-15,5.08,8.2));
#498=CARTESIAN_POINT('Origin',(0.,2.5,0.));
#499=CARTESIAN_POINT('Origin',(0.,5.08,0.));
#500=CARTESIAN_POINT('',(-8.86317830966171E-16,5.08,7.23733432025675));
#501=CARTESIAN_POINT('Origin',(-8.59999999999999,2.5,0.));
#502=CARTESIAN_POINT('Origin',(-8.59999999999999,-1.44508322299388E-15,
0.));
#503=CARTESIAN_POINT('Origin',(0.,3.5,0.));
#504=CARTESIAN_POINT('',(0.,0.,0.));
#505=CARTESIAN_POINT('',(0.,0.,0.));
#506=CARTESIAN_POINT('',(0.,0.,0.));
#507=CARTESIAN_POINT('',(0.,0.,0.));
#508=CARTESIAN_POINT('',(0.,0.,0.));
#509=CARTESIAN_POINT('',(0.,0.,0.));
#510=CARTESIAN_POINT('',(-3.46944695195361E-15,0.,-20.35));
#511=CARTESIAN_POINT('',(0.,0.,13.95));
#512=UNCERTAINTY_MEASURE_WITH_UNIT(LENGTH_MEASURE(0.01),#526,
'DISTANCE_ACCURACY_VALUE',
'Maximum model space distance between geometric entities at asserted c
onnectivities');
#513=UNCERTAINTY_MEASURE_WITH_UNIT(LENGTH_MEASURE(0.01),#526,
'DISTANCE_ACCURACY_VALUE',
'Maximum model space distance between geometric entities at asserted c
onnectivities');
#514=UNCERTAINTY_MEASURE_WITH_UNIT(LENGTH_MEASURE(0.01),#526,
'DISTANCE_ACCURACY_VALUE',
'Maximum model space distance between geometric entities at asserted c
onnectivities');
#515=UNCERTAINTY_MEASURE_WITH_UNIT(LENGTH_MEASURE(0.01),#526,
'DISTANCE_ACCURACY_VALUE',
'Maximum model space distance between geometric entities at asserted c
onnectivities');
#516=UNCERTAINTY_MEASURE_WITH_UNIT(LENGTH_MEASURE(0.01),#526,
'DISTANCE_ACCURACY_VALUE',
'Maximum model space distance between geometric entities at asserted c
onnectivities');
#517=UNCERTAINTY_MEASURE_WITH_UNIT(LENGTH_MEASURE(0.01),#526,
'DISTANCE_ACCURACY_VALUE',
'Maximum model space distance between geometric entities at asserted c
onnectivities');
#518=UNCERTAINTY_MEASURE_WITH_UNIT(LENGTH_MEASURE(0.01),#526,
'DISTANCE_ACCURACY_VALUE',
'Maximum model space distance between geometric entities at asserted c
onnectivities');
#519=(
GEOMETRIC_REPRESENTATION_CONTEXT(3)
GLOBAL_UNCERTAINTY_ASSIGNED_CONTEXT((#512))
GLOBAL_UNIT_ASSIGNED_CONTEXT((#526,#528,#529))
REPRESENTATION_CONTEXT('','3D')
);
#520=(
GEOMETRIC_REPRESENTATION_CONTEXT(3)
GLOBAL_UNCERTAINTY_ASSIGNED_CONTEXT((#513))
GLOBAL_UNIT_ASSIGNED_CONTEXT((#526,#528,#529))
REPRESENTATION_CONTEXT('','3D')
);
#521=(
GEOMETRIC_REPRESENTATION_CONTEXT(3)
GLOBAL_UNCERTAINTY_ASSIGNED_CONTEXT((#514))
GLOBAL_UNIT_ASSIGNED_CONTEXT((#526,#528,#529))
REPRESENTATION_CONTEXT('','3D')
);
#522=(
GEOMETRIC_REPRESENTATION_CONTEXT(3)
GLOBAL_UNCERTAINTY_ASSIGNED_CONTEXT((#515))
GLOBAL_UNIT_ASSIGNED_CONTEXT((#526,#528,#529))
REPRESENTATION_CONTEXT('','3D')
);
#523=(
GEOMETRIC_REPRESENTATION_CONTEXT(3)
GLOBAL_UNCERTAINTY_ASSIGNED_CONTEXT((#516))
GLOBAL_UNIT_ASSIGNED_CONTEXT((#526,#528,#529))
REPRESENTATION_CONTEXT('','3D')
);
#524=(
GEOMETRIC_REPRESENTATION_CONTEXT(3)
GLOBAL_UNCERTAINTY_ASSIGNED_CONTEXT((#517))
GLOBAL_UNIT_ASSIGNED_CONTEXT((#526,#528,#529))
REPRESENTATION_CONTEXT('','3D')
);
#525=(
GEOMETRIC_REPRESENTATION_CONTEXT(3)
GLOBAL_UNCERTAINTY_ASSIGNED_CONTEXT((#518))
GLOBAL_UNIT_ASSIGNED_CONTEXT((#526,#528,#529))
REPRESENTATION_CONTEXT('','3D')
);
#526=(
LENGTH_UNIT()
NAMED_UNIT(*)
SI_UNIT(.MILLI.,.METRE.)
);
#527=(
LENGTH_UNIT()
NAMED_UNIT(*)
SI_UNIT($,.METRE.)
);
#528=(
NAMED_UNIT(*)
PLANE_ANGLE_UNIT()
SI_UNIT($,.RADIAN.)
);
#529=(
NAMED_UNIT(*)
SI_UNIT($,.STERADIAN.)
SOLID_ANGLE_UNIT()
);
#530=SHAPE_DEFINITION_REPRESENTATION(#536,#547);
#531=SHAPE_DEFINITION_REPRESENTATION(#537,#548);
#532=SHAPE_DEFINITION_REPRESENTATION(#538,#549);
#533=SHAPE_DEFINITION_REPRESENTATION(#539,#550);
#534=SHAPE_DEFINITION_REPRESENTATION(#540,#551);
#535=SHAPE_DEFINITION_REPRESENTATION(#541,#552);
#536=PRODUCT_DEFINITION_SHAPE('',$,#554);
#537=PRODUCT_DEFINITION_SHAPE('',$,#555);
#538=PRODUCT_DEFINITION_SHAPE('',$,#556);
#539=PRODUCT_DEFINITION_SHAPE('',$,#557);
#540=PRODUCT_DEFINITION_SHAPE('',$,#558);
#541=PRODUCT_DEFINITION_SHAPE('',$,#559);
#542=PRODUCT_DEFINITION_SHAPE($,$,#26);
#543=PRODUCT_DEFINITION_SHAPE($,$,#27);
#544=PRODUCT_DEFINITION_SHAPE($,$,#28);
#545=PRODUCT_DEFINITION_SHAPE($,$,#29);
#546=PRODUCT_DEFINITION_SHAPE($,$,#30);
#547=SHAPE_REPRESENTATION('',(#294,#337,#338,#339),#519);
#548=SHAPE_REPRESENTATION('',(#295),#520);
#549=SHAPE_REPRESENTATION('',(#304),#521);
#550=SHAPE_REPRESENTATION('',(#332,#335,#336),#522);
#551=SHAPE_REPRESENTATION('',(#333),#523);
#552=SHAPE_REPRESENTATION('',(#334),#524);
#553=PRODUCT_DEFINITION_CONTEXT('part definition',#573,'design');
#554=PRODUCT_DEFINITION('KF16Flange','KF16Flange v1',#560,#553);
#555=PRODUCT_DEFINITION('CF-To-KF-Adaptors-All_CFA16-KF16',
'CF-To-KF-Adaptors-All_CFA16-KF16',#561,#553);
#556=PRODUCT_DEFINITION('KF16-19WS_KF16-19','KF16-19WS_KF16-19',#562,#553);
#557=PRODUCT_DEFINITION('CF16-19-R','CF16-19-R',#563,#553);
#558=PRODUCT_DEFINITION('NW16CF-Outerring','NW16CF-Outerring',#564,#553);
#559=PRODUCT_DEFINITION('NW16CF-Innerring_CF16-19-R',
'NW16CF-Innerring_CF16-19-R',#565,#553);
#560=PRODUCT_DEFINITION_FORMATION('',$,#575);
#561=PRODUCT_DEFINITION_FORMATION('',$,#576);
#562=PRODUCT_DEFINITION_FORMATION('',$,#577);
#563=PRODUCT_DEFINITION_FORMATION('',$,#578);
#564=PRODUCT_DEFINITION_FORMATION('',$,#579);
#565=PRODUCT_DEFINITION_FORMATION('',$,#580);
#566=PRODUCT_RELATED_PRODUCT_CATEGORY('KF16Flange v1','KF16Flange v1',(#575));
#567=PRODUCT_RELATED_PRODUCT_CATEGORY(
'CF-To-KF-Adaptors-All_CFA16-KF16','CF-To-KF-Adaptors-All_CFA16-KF16',(#576));
#568=PRODUCT_RELATED_PRODUCT_CATEGORY('KF16-19WS_KF16-19',
'KF16-19WS_KF16-19',(#577));
#569=PRODUCT_RELATED_PRODUCT_CATEGORY('CF16-19-R','CF16-19-R',(#578));
#570=PRODUCT_RELATED_PRODUCT_CATEGORY('NW16CF-Outerring',
'NW16CF-Outerring',(#579));
#571=PRODUCT_RELATED_PRODUCT_CATEGORY('NW16CF-Innerring_CF16-19-R',
'NW16CF-Innerring_CF16-19-R',(#580));
#572=APPLICATION_PROTOCOL_DEFINITION('international standard',
'automotive_design',2009,#573);
#573=APPLICATION_CONTEXT(
'Core Data for Automotive Mechanical Design Process');
#574=PRODUCT_CONTEXT('part definition',#573,'mechanical');
#575=PRODUCT('KF16Flange','KF16Flange v1',$,(#574));
#576=PRODUCT('CF-To-KF-Adaptors-All_CFA16-KF16',
'CF-To-KF-Adaptors-All_CFA16-KF16',$,(#574));
#577=PRODUCT('KF16-19WS_KF16-19','KF16-19WS_KF16-19',$,(#574));
#578=PRODUCT('CF16-19-R','CF16-19-R',$,(#574));
#579=PRODUCT('NW16CF-Outerring','NW16CF-Outerring',$,(#574));
#580=PRODUCT('NW16CF-Innerring_CF16-19-R','NW16CF-Innerring_CF16-19-R',
$,(#574));
#581=PRESENTATION_STYLE_ASSIGNMENT((#583));
#582=PRESENTATION_STYLE_ASSIGNMENT((#584));
#583=SURFACE_STYLE_USAGE(.BOTH.,#585);
#584=SURFACE_STYLE_USAGE(.BOTH.,#586);
#585=SURFACE_SIDE_STYLE('',(#587));
#586=SURFACE_SIDE_STYLE('',(#588));
#587=SURFACE_STYLE_FILL_AREA(#589);
#588=SURFACE_STYLE_FILL_AREA(#590);
#589=FILL_AREA_STYLE('Steel - Satin',(#591));
#590=FILL_AREA_STYLE('Opaque(165,158,150)',(#592));
#591=FILL_AREA_STYLE_COLOUR('Steel - Satin',#593);
#592=FILL_AREA_STYLE_COLOUR('Opaque(165,158,150)',#594);
#593=COLOUR_RGB('Steel - Satin',0.627450980392157,0.627450980392157,0.627450980392157);
#594=COLOUR_RGB('Opaque(165,158,150)',0.647058823529412,0.619607843137255,
0.588235294117647);
ENDSEC;
END-ISO-10303-21;
