ISO-10303-21;
HEADER;
/* Generated by software containing ST-Developer
 * from STEP Tools, Inc. (www.steptools.com) 
 */

FILE_DESCRIPTION(
/* description */ (''),
/* implementation_level */ '2;1');

FILE_NAME(
/* name */ 'lamp holder v5.step',
/* time_stamp */ '2024-06-17T13:44:47+02:00',
/* author */ (''),
/* organization */ (''),
/* preprocessor_version */ 'ST-DEVELOPER v20',
/* originating_system */ 'Autodesk Translation Framework v13.14.0.145',

/* authorisation */ '');

FILE_SCHEMA (('AUTOMOTIVE_DESIGN { 1 0 10303 214 3 1 1 }'));
ENDSEC;

DATA;
#10=MECHANICAL_DESIGN_GEOMETRIC_PRESENTATION_REPRESENTATION('',(#13),#1252);
#11=SHAPE_REPRESENTATION_RELATIONSHIP('SRR','None',#1259,#12);
#12=ADVANCED_BREP_SHAPE_REPRESENTATION('',(#14),#1251);
#13=STYLED_ITEM('',(#1268),#14);
#14=MANIFOLD_SOLID_BREP('Body1',#724);
#15=FACE_BOUND('',#91,.T.);
#16=FACE_BOUND('',#92,.T.);
#17=FACE_BOUND('',#93,.T.);
#18=FACE_BOUND('',#103,.T.);
#19=FACE_BOUND('',#104,.T.);
#20=FACE_BOUND('',#105,.T.);
#21=PLANE('',#741);
#22=PLANE('',#745);
#23=PLANE('',#749);
#24=PLANE('',#756);
#25=PLANE('',#763);
#26=PLANE('',#767);
#27=PLANE('',#768);
#28=PLANE('',#769);
#29=PLANE('',#770);
#30=PLANE('',#797);
#31=PLANE('',#803);
#32=PLANE('',#809);
#33=PLANE('',#810);
#34=PLANE('',#814);
#35=PLANE('',#815);
#36=PLANE('',#816);
#37=FACE_OUTER_BOUND('',#74,.T.);
#38=FACE_OUTER_BOUND('',#75,.T.);
#39=FACE_OUTER_BOUND('',#76,.T.);
#40=FACE_OUTER_BOUND('',#77,.T.);
#41=FACE_OUTER_BOUND('',#78,.T.);
#42=FACE_OUTER_BOUND('',#79,.T.);
#43=FACE_OUTER_BOUND('',#80,.T.);
#44=FACE_OUTER_BOUND('',#81,.T.);
#45=FACE_OUTER_BOUND('',#82,.T.);
#46=FACE_OUTER_BOUND('',#83,.T.);
#47=FACE_OUTER_BOUND('',#84,.T.);
#48=FACE_OUTER_BOUND('',#85,.T.);
#49=FACE_OUTER_BOUND('',#86,.T.);
#50=FACE_OUTER_BOUND('',#87,.T.);
#51=FACE_OUTER_BOUND('',#88,.T.);
#52=FACE_OUTER_BOUND('',#89,.T.);
#53=FACE_OUTER_BOUND('',#90,.T.);
#54=FACE_OUTER_BOUND('',#94,.T.);
#55=FACE_OUTER_BOUND('',#95,.T.);
#56=FACE_OUTER_BOUND('',#96,.T.);
#57=FACE_OUTER_BOUND('',#97,.T.);
#58=FACE_OUTER_BOUND('',#98,.T.);
#59=FACE_OUTER_BOUND('',#99,.T.);
#60=FACE_OUTER_BOUND('',#100,.T.);
#61=FACE_OUTER_BOUND('',#101,.T.);
#62=FACE_OUTER_BOUND('',#102,.T.);
#63=FACE_OUTER_BOUND('',#106,.T.);
#64=FACE_OUTER_BOUND('',#107,.T.);
#65=FACE_OUTER_BOUND('',#108,.T.);
#66=FACE_OUTER_BOUND('',#109,.T.);
#67=FACE_OUTER_BOUND('',#110,.T.);
#68=FACE_OUTER_BOUND('',#111,.T.);
#69=FACE_OUTER_BOUND('',#112,.T.);
#70=FACE_OUTER_BOUND('',#113,.T.);
#71=FACE_OUTER_BOUND('',#114,.T.);
#72=FACE_OUTER_BOUND('',#115,.T.);
#73=FACE_OUTER_BOUND('',#116,.T.);
#74=EDGE_LOOP('',(#456,#457,#458,#459));
#75=EDGE_LOOP('',(#460,#461,#462,#463,#464,#465));
#76=EDGE_LOOP('',(#466,#467,#468,#469));
#77=EDGE_LOOP('',(#470,#471,#472,#473,#474,#475));
#78=EDGE_LOOP('',(#476,#477,#478,#479));
#79=EDGE_LOOP('',(#480,#481,#482,#483,#484,#485));
#80=EDGE_LOOP('',(#486,#487,#488,#489));
#81=EDGE_LOOP('',(#490,#491,#492,#493));
#82=EDGE_LOOP('',(#494,#495,#496,#497,#498,#499));
#83=EDGE_LOOP('',(#500,#501,#502,#503));
#84=EDGE_LOOP('',(#504,#505,#506,#507));
#85=EDGE_LOOP('',(#508,#509,#510,#511,#512,#513));
#86=EDGE_LOOP('',(#514,#515,#516,#517));
#87=EDGE_LOOP('',(#518,#519,#520,#521,#522,#523));
#88=EDGE_LOOP('',(#524,#525,#526,#527));
#89=EDGE_LOOP('',(#528,#529,#530,#531,#532,#533,#534,#535));
#90=EDGE_LOOP('',(#536,#537,#538,#539,#540,#541,#542,#543,#544,#545,#546,
#547,#548,#549,#550,#551));
#91=EDGE_LOOP('',(#552));
#92=EDGE_LOOP('',(#553));
#93=EDGE_LOOP('',(#554));
#94=EDGE_LOOP('',(#555,#556,#557,#558));
#95=EDGE_LOOP('',(#559,#560,#561,#562));
#96=EDGE_LOOP('',(#563,#564,#565,#566));
#97=EDGE_LOOP('',(#567,#568,#569,#570));
#98=EDGE_LOOP('',(#571,#572,#573,#574));
#99=EDGE_LOOP('',(#575,#576,#577,#578));
#100=EDGE_LOOP('',(#579,#580,#581,#582));
#101=EDGE_LOOP('',(#583,#584,#585,#586));
#102=EDGE_LOOP('',(#587,#588,#589,#590,#591,#592,#593,#594,#595,#596,#597,
#598,#599,#600,#601,#602));
#103=EDGE_LOOP('',(#603));
#104=EDGE_LOOP('',(#604));
#105=EDGE_LOOP('',(#605));
#106=EDGE_LOOP('',(#606,#607,#608,#609));
#107=EDGE_LOOP('',(#610,#611,#612,#613));
#108=EDGE_LOOP('',(#614,#615,#616,#617));
#109=EDGE_LOOP('',(#618,#619,#620,#621));
#110=EDGE_LOOP('',(#622,#623,#624,#625));
#111=EDGE_LOOP('',(#626,#627,#628,#629,#630,#631,#632,#633,#634,#635));
#112=EDGE_LOOP('',(#636,#637,#638,#639,#640,#641,#642,#643,#644,#645));
#113=EDGE_LOOP('',(#646,#647,#648,#649));
#114=EDGE_LOOP('',(#650,#651,#652,#653));
#115=EDGE_LOOP('',(#654,#655,#656,#657));
#116=EDGE_LOOP('',(#658,#659,#660,#661,#662,#663,#664,#665));
#117=LINE('',#1046,#180);
#118=LINE('',#1049,#181);
#119=LINE('',#1053,#182);
#120=LINE('',#1055,#183);
#121=LINE('',#1056,#184);
#122=LINE('',#1058,#185);
#123=LINE('',#1059,#186);
#124=LINE('',#1065,#187);
#125=LINE('',#1068,#188);
#126=LINE('',#1070,#189);
#127=LINE('',#1071,#190);
#128=LINE('',#1072,#191);
#129=LINE('',#1076,#192);
#130=LINE('',#1080,#193);
#131=LINE('',#1085,#194);
#132=LINE('',#1087,#195);
#133=LINE('',#1088,#196);
#134=LINE('',#1090,#197);
#135=LINE('',#1091,#198);
#136=LINE('',#1095,#199);
#137=LINE('',#1101,#200);
#138=LINE('',#1105,#201);
#139=LINE('',#1109,#202);
#140=LINE('',#1111,#203);
#141=LINE('',#1113,#204);
#142=LINE('',#1115,#205);
#143=LINE('',#1116,#206);
#144=LINE('',#1120,#207);
#145=LINE('',#1128,#208);
#146=LINE('',#1131,#209);
#147=LINE('',#1135,#210);
#148=LINE('',#1137,#211);
#149=LINE('',#1138,#212);
#150=LINE('',#1140,#213);
#151=LINE('',#1141,#214);
#152=LINE('',#1147,#215);
#153=LINE('',#1150,#216);
#154=LINE('',#1152,#217);
#155=LINE('',#1153,#218);
#156=LINE('',#1154,#219);
#157=LINE('',#1157,#220);
#158=LINE('',#1159,#221);
#159=LINE('',#1160,#222);
#160=LINE('',#1163,#223);
#161=LINE('',#1165,#224);
#162=LINE('',#1167,#225);
#163=LINE('',#1169,#226);
#164=LINE('',#1171,#227);
#165=LINE('',#1173,#228);
#166=LINE('',#1174,#229);
#167=LINE('',#1180,#230);
#168=LINE('',#1204,#231);
#169=LINE('',#1208,#232);
#170=LINE('',#1212,#233);
#171=LINE('',#1217,#234);
#172=LINE('',#1222,#235);
#173=LINE('',#1226,#236);
#174=LINE('',#1230,#237);
#175=LINE('',#1233,#238);
#176=LINE('',#1236,#239);
#177=LINE('',#1239,#240);
#178=LINE('',#1243,#241);
#179=LINE('',#1246,#242);
#180=VECTOR('',#823,10.);
#181=VECTOR('',#826,10.);
#182=VECTOR('',#829,10.);
#183=VECTOR('',#830,10.);
#184=VECTOR('',#831,10.);
#185=VECTOR('',#832,10.);
#186=VECTOR('',#833,10.);
#187=VECTOR('',#840,10.);
#188=VECTOR('',#843,10.);
#189=VECTOR('',#844,10.);
#190=VECTOR('',#845,10.);
#191=VECTOR('',#846,10.);
#192=VECTOR('',#849,10.);
#193=VECTOR('',#852,10.);
#194=VECTOR('',#857,10.);
#195=VECTOR('',#858,10.);
#196=VECTOR('',#859,10.);
#197=VECTOR('',#860,10.);
#198=VECTOR('',#861,10.);
#199=VECTOR('',#864,10.);
#200=VECTOR('',#871,10.);
#201=VECTOR('',#874,10.);
#202=VECTOR('',#879,10.);
#203=VECTOR('',#880,10.);
#204=VECTOR('',#881,10.);
#205=VECTOR('',#882,10.);
#206=VECTOR('',#883,10.);
#207=VECTOR('',#886,10.);
#208=VECTOR('',#895,10.);
#209=VECTOR('',#898,10.);
#210=VECTOR('',#901,10.);
#211=VECTOR('',#902,10.);
#212=VECTOR('',#903,10.);
#213=VECTOR('',#904,10.);
#214=VECTOR('',#905,10.);
#215=VECTOR('',#912,10.);
#216=VECTOR('',#915,10.);
#217=VECTOR('',#916,10.);
#218=VECTOR('',#917,10.);
#219=VECTOR('',#918,10.);
#220=VECTOR('',#921,10.);
#221=VECTOR('',#922,10.);
#222=VECTOR('',#923,10.);
#223=VECTOR('',#926,10.);
#224=VECTOR('',#927,10.);
#225=VECTOR('',#928,10.);
#226=VECTOR('',#929,10.);
#227=VECTOR('',#930,10.);
#228=VECTOR('',#931,10.);
#229=VECTOR('',#932,10.);
#230=VECTOR('',#941,10.);
#231=VECTOR('',#980,2.);
#232=VECTOR('',#985,2.);
#233=VECTOR('',#990,2.);
#234=VECTOR('',#997,10.);
#235=VECTOR('',#1004,10.);
#236=VECTOR('',#1009,10.);
#237=VECTOR('',#1014,10.);
#238=VECTOR('',#1017,10.);
#239=VECTOR('',#1022,10.);
#240=VECTOR('',#1025,10.);
#241=VECTOR('',#1030,10.);
#242=VECTOR('',#1035,10.);
#243=CIRCLE('',#739,35.);
#244=CIRCLE('',#740,35.);
#245=CIRCLE('',#743,35.);
#246=CIRCLE('',#744,35.);
#247=CIRCLE('',#747,35.);
#248=CIRCLE('',#748,35.);
#249=CIRCLE('',#751,35.);
#250=CIRCLE('',#752,35.);
#251=CIRCLE('',#754,35.);
#252=CIRCLE('',#755,35.);
#253=CIRCLE('',#758,35.);
#254=CIRCLE('',#759,35.);
#255=CIRCLE('',#761,35.);
#256=CIRCLE('',#762,35.);
#257=CIRCLE('',#765,35.);
#258=CIRCLE('',#766,35.);
#259=CIRCLE('',#771,45.);
#260=CIRCLE('',#772,45.);
#261=CIRCLE('',#773,23.5);
#262=CIRCLE('',#774,45.);
#263=CIRCLE('',#775,2.);
#264=CIRCLE('',#776,2.);
#265=CIRCLE('',#777,2.);
#266=CIRCLE('',#779,45.);
#267=CIRCLE('',#781,45.);
#268=CIRCLE('',#783,35.);
#269=CIRCLE('',#784,35.);
#270=CIRCLE('',#786,35.);
#271=CIRCLE('',#787,35.);
#272=CIRCLE('',#789,35.);
#273=CIRCLE('',#790,35.);
#274=CIRCLE('',#792,2.);
#275=CIRCLE('',#794,2.);
#276=CIRCLE('',#796,2.);
#277=CIRCLE('',#798,45.);
#278=CIRCLE('',#799,30.);
#279=CIRCLE('',#802,23.5);
#280=CIRCLE('',#804,25.);
#281=CIRCLE('',#806,25.);
#282=CIRCLE('',#808,30.);
#283=CIRCLE('',#811,20.);
#284=CIRCLE('',#813,20.);
#285=VERTEX_POINT('',#1042);
#286=VERTEX_POINT('',#1043);
#287=VERTEX_POINT('',#1045);
#288=VERTEX_POINT('',#1047);
#289=VERTEX_POINT('',#1051);
#290=VERTEX_POINT('',#1052);
#291=VERTEX_POINT('',#1054);
#292=VERTEX_POINT('',#1057);
#293=VERTEX_POINT('',#1061);
#294=VERTEX_POINT('',#1063);
#295=VERTEX_POINT('',#1067);
#296=VERTEX_POINT('',#1069);
#297=VERTEX_POINT('',#1074);
#298=VERTEX_POINT('',#1075);
#299=VERTEX_POINT('',#1077);
#300=VERTEX_POINT('',#1079);
#301=VERTEX_POINT('',#1083);
#302=VERTEX_POINT('',#1084);
#303=VERTEX_POINT('',#1086);
#304=VERTEX_POINT('',#1089);
#305=VERTEX_POINT('',#1093);
#306=VERTEX_POINT('',#1094);
#307=VERTEX_POINT('',#1099);
#308=VERTEX_POINT('',#1100);
#309=VERTEX_POINT('',#1102);
#310=VERTEX_POINT('',#1104);
#311=VERTEX_POINT('',#1108);
#312=VERTEX_POINT('',#1110);
#313=VERTEX_POINT('',#1112);
#314=VERTEX_POINT('',#1114);
#315=VERTEX_POINT('',#1118);
#316=VERTEX_POINT('',#1119);
#317=VERTEX_POINT('',#1124);
#318=VERTEX_POINT('',#1125);
#319=VERTEX_POINT('',#1127);
#320=VERTEX_POINT('',#1129);
#321=VERTEX_POINT('',#1133);
#322=VERTEX_POINT('',#1134);
#323=VERTEX_POINT('',#1136);
#324=VERTEX_POINT('',#1139);
#325=VERTEX_POINT('',#1143);
#326=VERTEX_POINT('',#1145);
#327=VERTEX_POINT('',#1149);
#328=VERTEX_POINT('',#1151);
#329=VERTEX_POINT('',#1156);
#330=VERTEX_POINT('',#1158);
#331=VERTEX_POINT('',#1162);
#332=VERTEX_POINT('',#1164);
#333=VERTEX_POINT('',#1166);
#334=VERTEX_POINT('',#1168);
#335=VERTEX_POINT('',#1170);
#336=VERTEX_POINT('',#1172);
#337=VERTEX_POINT('',#1178);
#338=VERTEX_POINT('',#1182);
#339=VERTEX_POINT('',#1184);
#340=VERTEX_POINT('',#1186);
#341=VERTEX_POINT('',#1202);
#342=VERTEX_POINT('',#1206);
#343=VERTEX_POINT('',#1210);
#344=VERTEX_POINT('',#1215);
#345=VERTEX_POINT('',#1220);
#346=VERTEX_POINT('',#1224);
#347=VERTEX_POINT('',#1228);
#348=VERTEX_POINT('',#1232);
#349=VERTEX_POINT('',#1238);
#350=VERTEX_POINT('',#1242);
#351=EDGE_CURVE('',#285,#286,#243,.T.);
#352=EDGE_CURVE('',#287,#285,#117,.T.);
#353=EDGE_CURVE('',#288,#287,#244,.T.);
#354=EDGE_CURVE('',#286,#288,#118,.T.);
#355=EDGE_CURVE('',#289,#290,#119,.T.);
#356=EDGE_CURVE('',#289,#291,#120,.T.);
#357=EDGE_CURVE('',#286,#291,#121,.T.);
#358=EDGE_CURVE('',#292,#288,#122,.T.);
#359=EDGE_CURVE('',#290,#292,#123,.T.);
#360=EDGE_CURVE('',#291,#293,#245,.T.);
#361=EDGE_CURVE('',#294,#289,#246,.T.);
#362=EDGE_CURVE('',#293,#294,#124,.T.);
#363=EDGE_CURVE('',#295,#294,#125,.T.);
#364=EDGE_CURVE('',#296,#295,#126,.T.);
#365=EDGE_CURVE('',#287,#296,#127,.T.);
#366=EDGE_CURVE('',#293,#285,#128,.T.);
#367=EDGE_CURVE('',#297,#298,#129,.T.);
#368=EDGE_CURVE('',#299,#297,#247,.T.);
#369=EDGE_CURVE('',#299,#300,#130,.T.);
#370=EDGE_CURVE('',#298,#300,#248,.T.);
#371=EDGE_CURVE('',#301,#302,#131,.T.);
#372=EDGE_CURVE('',#303,#301,#132,.T.);
#373=EDGE_CURVE('',#300,#303,#133,.T.);
#374=EDGE_CURVE('',#304,#299,#134,.T.);
#375=EDGE_CURVE('',#302,#304,#135,.T.);
#376=EDGE_CURVE('',#305,#306,#136,.T.);
#377=EDGE_CURVE('',#303,#305,#249,.T.);
#378=EDGE_CURVE('',#306,#301,#250,.T.);
#379=EDGE_CURVE('',#307,#308,#137,.T.);
#380=EDGE_CURVE('',#309,#307,#251,.T.);
#381=EDGE_CURVE('',#309,#310,#138,.T.);
#382=EDGE_CURVE('',#308,#310,#252,.T.);
#383=EDGE_CURVE('',#311,#309,#139,.T.);
#384=EDGE_CURVE('',#312,#311,#140,.T.);
#385=EDGE_CURVE('',#313,#312,#141,.T.);
#386=EDGE_CURVE('',#314,#313,#142,.T.);
#387=EDGE_CURVE('',#310,#314,#143,.T.);
#388=EDGE_CURVE('',#315,#316,#144,.T.);
#389=EDGE_CURVE('',#314,#315,#253,.T.);
#390=EDGE_CURVE('',#316,#313,#254,.T.);
#391=EDGE_CURVE('',#317,#318,#255,.T.);
#392=EDGE_CURVE('',#319,#317,#145,.T.);
#393=EDGE_CURVE('',#320,#319,#256,.T.);
#394=EDGE_CURVE('',#318,#320,#146,.T.);
#395=EDGE_CURVE('',#321,#322,#147,.T.);
#396=EDGE_CURVE('',#321,#323,#148,.T.);
#397=EDGE_CURVE('',#318,#323,#149,.T.);
#398=EDGE_CURVE('',#324,#320,#150,.T.);
#399=EDGE_CURVE('',#322,#324,#151,.T.);
#400=EDGE_CURVE('',#323,#325,#257,.T.);
#401=EDGE_CURVE('',#326,#321,#258,.T.);
#402=EDGE_CURVE('',#325,#326,#152,.T.);
#403=EDGE_CURVE('',#327,#326,#153,.T.);
#404=EDGE_CURVE('',#328,#327,#154,.T.);
#405=EDGE_CURVE('',#319,#328,#155,.T.);
#406=EDGE_CURVE('',#325,#317,#156,.T.);
#407=EDGE_CURVE('',#298,#329,#157,.T.);
#408=EDGE_CURVE('',#329,#330,#158,.T.);
#409=EDGE_CURVE('',#330,#297,#159,.T.);
#410=EDGE_CURVE('',#308,#331,#160,.T.);
#411=EDGE_CURVE('',#331,#332,#161,.T.);
#412=EDGE_CURVE('',#332,#333,#162,.T.);
#413=EDGE_CURVE('',#333,#334,#163,.T.);
#414=EDGE_CURVE('',#334,#335,#164,.T.);
#415=EDGE_CURVE('',#335,#336,#165,.T.);
#416=EDGE_CURVE('',#336,#307,#166,.T.);
#417=EDGE_CURVE('',#290,#327,#259,.T.);
#418=EDGE_CURVE('',#322,#311,#260,.T.);
#419=EDGE_CURVE('',#336,#337,#261,.T.);
#420=EDGE_CURVE('',#306,#337,#167,.T.);
#421=EDGE_CURVE('',#302,#295,#262,.T.);
#422=EDGE_CURVE('',#338,#338,#263,.T.);
#423=EDGE_CURVE('',#339,#339,#264,.T.);
#424=EDGE_CURVE('',#340,#340,#265,.T.);
#425=EDGE_CURVE('',#328,#292,#266,.T.);
#426=EDGE_CURVE('',#312,#324,#267,.T.);
#427=EDGE_CURVE('',#318,#314,#268,.T.);
#428=EDGE_CURVE('',#310,#323,#269,.T.);
#429=EDGE_CURVE('',#325,#291,#270,.T.);
#430=EDGE_CURVE('',#286,#317,#271,.T.);
#431=EDGE_CURVE('',#300,#285,#272,.T.);
#432=EDGE_CURVE('',#293,#303,#273,.T.);
#433=EDGE_CURVE('',#341,#341,#274,.T.);
#434=EDGE_CURVE('',#341,#340,#168,.T.);
#435=EDGE_CURVE('',#342,#342,#275,.T.);
#436=EDGE_CURVE('',#342,#339,#169,.T.);
#437=EDGE_CURVE('',#343,#343,#276,.T.);
#438=EDGE_CURVE('',#343,#338,#170,.T.);
#439=EDGE_CURVE('',#296,#304,#277,.T.);
#440=EDGE_CURVE('',#330,#344,#278,.T.);
#441=EDGE_CURVE('',#316,#344,#171,.T.);
#442=EDGE_CURVE('',#335,#345,#279,.T.);
#443=EDGE_CURVE('',#337,#345,#172,.T.);
#444=EDGE_CURVE('',#346,#334,#280,.T.);
#445=EDGE_CURVE('',#345,#346,#173,.T.);
#446=EDGE_CURVE('',#347,#333,#281,.T.);
#447=EDGE_CURVE('',#346,#347,#174,.T.);
#448=EDGE_CURVE('',#344,#348,#175,.T.);
#449=EDGE_CURVE('',#348,#329,#282,.T.);
#450=EDGE_CURVE('',#348,#315,#176,.T.);
#451=EDGE_CURVE('',#349,#305,#177,.T.);
#452=EDGE_CURVE('',#331,#349,#283,.T.);
#453=EDGE_CURVE('',#350,#349,#178,.T.);
#454=EDGE_CURVE('',#350,#332,#284,.T.);
#455=EDGE_CURVE('',#347,#350,#179,.T.);
#456=ORIENTED_EDGE('',*,*,#351,.F.);
#457=ORIENTED_EDGE('',*,*,#352,.F.);
#458=ORIENTED_EDGE('',*,*,#353,.F.);
#459=ORIENTED_EDGE('',*,*,#354,.F.);
#460=ORIENTED_EDGE('',*,*,#355,.F.);
#461=ORIENTED_EDGE('',*,*,#356,.T.);
#462=ORIENTED_EDGE('',*,*,#357,.F.);
#463=ORIENTED_EDGE('',*,*,#354,.T.);
#464=ORIENTED_EDGE('',*,*,#358,.F.);
#465=ORIENTED_EDGE('',*,*,#359,.F.);
#466=ORIENTED_EDGE('',*,*,#360,.F.);
#467=ORIENTED_EDGE('',*,*,#356,.F.);
#468=ORIENTED_EDGE('',*,*,#361,.F.);
#469=ORIENTED_EDGE('',*,*,#362,.F.);
#470=ORIENTED_EDGE('',*,*,#363,.F.);
#471=ORIENTED_EDGE('',*,*,#364,.F.);
#472=ORIENTED_EDGE('',*,*,#365,.F.);
#473=ORIENTED_EDGE('',*,*,#352,.T.);
#474=ORIENTED_EDGE('',*,*,#366,.F.);
#475=ORIENTED_EDGE('',*,*,#362,.T.);
#476=ORIENTED_EDGE('',*,*,#367,.F.);
#477=ORIENTED_EDGE('',*,*,#368,.F.);
#478=ORIENTED_EDGE('',*,*,#369,.T.);
#479=ORIENTED_EDGE('',*,*,#370,.F.);
#480=ORIENTED_EDGE('',*,*,#371,.F.);
#481=ORIENTED_EDGE('',*,*,#372,.F.);
#482=ORIENTED_EDGE('',*,*,#373,.F.);
#483=ORIENTED_EDGE('',*,*,#369,.F.);
#484=ORIENTED_EDGE('',*,*,#374,.F.);
#485=ORIENTED_EDGE('',*,*,#375,.F.);
#486=ORIENTED_EDGE('',*,*,#376,.F.);
#487=ORIENTED_EDGE('',*,*,#377,.F.);
#488=ORIENTED_EDGE('',*,*,#372,.T.);
#489=ORIENTED_EDGE('',*,*,#378,.F.);
#490=ORIENTED_EDGE('',*,*,#379,.F.);
#491=ORIENTED_EDGE('',*,*,#380,.F.);
#492=ORIENTED_EDGE('',*,*,#381,.T.);
#493=ORIENTED_EDGE('',*,*,#382,.F.);
#494=ORIENTED_EDGE('',*,*,#383,.F.);
#495=ORIENTED_EDGE('',*,*,#384,.F.);
#496=ORIENTED_EDGE('',*,*,#385,.F.);
#497=ORIENTED_EDGE('',*,*,#386,.F.);
#498=ORIENTED_EDGE('',*,*,#387,.F.);
#499=ORIENTED_EDGE('',*,*,#381,.F.);
#500=ORIENTED_EDGE('',*,*,#388,.F.);
#501=ORIENTED_EDGE('',*,*,#389,.F.);
#502=ORIENTED_EDGE('',*,*,#386,.T.);
#503=ORIENTED_EDGE('',*,*,#390,.F.);
#504=ORIENTED_EDGE('',*,*,#391,.F.);
#505=ORIENTED_EDGE('',*,*,#392,.F.);
#506=ORIENTED_EDGE('',*,*,#393,.F.);
#507=ORIENTED_EDGE('',*,*,#394,.F.);
#508=ORIENTED_EDGE('',*,*,#395,.F.);
#509=ORIENTED_EDGE('',*,*,#396,.T.);
#510=ORIENTED_EDGE('',*,*,#397,.F.);
#511=ORIENTED_EDGE('',*,*,#394,.T.);
#512=ORIENTED_EDGE('',*,*,#398,.F.);
#513=ORIENTED_EDGE('',*,*,#399,.F.);
#514=ORIENTED_EDGE('',*,*,#400,.F.);
#515=ORIENTED_EDGE('',*,*,#396,.F.);
#516=ORIENTED_EDGE('',*,*,#401,.F.);
#517=ORIENTED_EDGE('',*,*,#402,.F.);
#518=ORIENTED_EDGE('',*,*,#403,.F.);
#519=ORIENTED_EDGE('',*,*,#404,.F.);
#520=ORIENTED_EDGE('',*,*,#405,.F.);
#521=ORIENTED_EDGE('',*,*,#392,.T.);
#522=ORIENTED_EDGE('',*,*,#406,.F.);
#523=ORIENTED_EDGE('',*,*,#402,.T.);
#524=ORIENTED_EDGE('',*,*,#367,.T.);
#525=ORIENTED_EDGE('',*,*,#407,.T.);
#526=ORIENTED_EDGE('',*,*,#408,.T.);
#527=ORIENTED_EDGE('',*,*,#409,.T.);
#528=ORIENTED_EDGE('',*,*,#379,.T.);
#529=ORIENTED_EDGE('',*,*,#410,.T.);
#530=ORIENTED_EDGE('',*,*,#411,.T.);
#531=ORIENTED_EDGE('',*,*,#412,.T.);
#532=ORIENTED_EDGE('',*,*,#413,.T.);
#533=ORIENTED_EDGE('',*,*,#414,.T.);
#534=ORIENTED_EDGE('',*,*,#415,.T.);
#535=ORIENTED_EDGE('',*,*,#416,.T.);
#536=ORIENTED_EDGE('',*,*,#363,.T.);
#537=ORIENTED_EDGE('',*,*,#361,.T.);
#538=ORIENTED_EDGE('',*,*,#355,.T.);
#539=ORIENTED_EDGE('',*,*,#417,.T.);
#540=ORIENTED_EDGE('',*,*,#403,.T.);
#541=ORIENTED_EDGE('',*,*,#401,.T.);
#542=ORIENTED_EDGE('',*,*,#395,.T.);
#543=ORIENTED_EDGE('',*,*,#418,.T.);
#544=ORIENTED_EDGE('',*,*,#383,.T.);
#545=ORIENTED_EDGE('',*,*,#380,.T.);
#546=ORIENTED_EDGE('',*,*,#416,.F.);
#547=ORIENTED_EDGE('',*,*,#419,.T.);
#548=ORIENTED_EDGE('',*,*,#420,.F.);
#549=ORIENTED_EDGE('',*,*,#378,.T.);
#550=ORIENTED_EDGE('',*,*,#371,.T.);
#551=ORIENTED_EDGE('',*,*,#421,.T.);
#552=ORIENTED_EDGE('',*,*,#422,.T.);
#553=ORIENTED_EDGE('',*,*,#423,.T.);
#554=ORIENTED_EDGE('',*,*,#424,.T.);
#555=ORIENTED_EDGE('',*,*,#359,.T.);
#556=ORIENTED_EDGE('',*,*,#425,.F.);
#557=ORIENTED_EDGE('',*,*,#404,.T.);
#558=ORIENTED_EDGE('',*,*,#417,.F.);
#559=ORIENTED_EDGE('',*,*,#384,.T.);
#560=ORIENTED_EDGE('',*,*,#418,.F.);
#561=ORIENTED_EDGE('',*,*,#399,.T.);
#562=ORIENTED_EDGE('',*,*,#426,.F.);
#563=ORIENTED_EDGE('',*,*,#387,.T.);
#564=ORIENTED_EDGE('',*,*,#427,.F.);
#565=ORIENTED_EDGE('',*,*,#397,.T.);
#566=ORIENTED_EDGE('',*,*,#428,.F.);
#567=ORIENTED_EDGE('',*,*,#357,.T.);
#568=ORIENTED_EDGE('',*,*,#429,.F.);
#569=ORIENTED_EDGE('',*,*,#406,.T.);
#570=ORIENTED_EDGE('',*,*,#430,.F.);
#571=ORIENTED_EDGE('',*,*,#366,.T.);
#572=ORIENTED_EDGE('',*,*,#431,.F.);
#573=ORIENTED_EDGE('',*,*,#373,.T.);
#574=ORIENTED_EDGE('',*,*,#432,.F.);
#575=ORIENTED_EDGE('',*,*,#433,.F.);
#576=ORIENTED_EDGE('',*,*,#434,.T.);
#577=ORIENTED_EDGE('',*,*,#424,.F.);
#578=ORIENTED_EDGE('',*,*,#434,.F.);
#579=ORIENTED_EDGE('',*,*,#435,.F.);
#580=ORIENTED_EDGE('',*,*,#436,.T.);
#581=ORIENTED_EDGE('',*,*,#423,.F.);
#582=ORIENTED_EDGE('',*,*,#436,.F.);
#583=ORIENTED_EDGE('',*,*,#437,.F.);
#584=ORIENTED_EDGE('',*,*,#438,.T.);
#585=ORIENTED_EDGE('',*,*,#422,.F.);
#586=ORIENTED_EDGE('',*,*,#438,.F.);
#587=ORIENTED_EDGE('',*,*,#365,.T.);
#588=ORIENTED_EDGE('',*,*,#439,.T.);
#589=ORIENTED_EDGE('',*,*,#374,.T.);
#590=ORIENTED_EDGE('',*,*,#368,.T.);
#591=ORIENTED_EDGE('',*,*,#409,.F.);
#592=ORIENTED_EDGE('',*,*,#440,.T.);
#593=ORIENTED_EDGE('',*,*,#441,.F.);
#594=ORIENTED_EDGE('',*,*,#390,.T.);
#595=ORIENTED_EDGE('',*,*,#385,.T.);
#596=ORIENTED_EDGE('',*,*,#426,.T.);
#597=ORIENTED_EDGE('',*,*,#398,.T.);
#598=ORIENTED_EDGE('',*,*,#393,.T.);
#599=ORIENTED_EDGE('',*,*,#405,.T.);
#600=ORIENTED_EDGE('',*,*,#425,.T.);
#601=ORIENTED_EDGE('',*,*,#358,.T.);
#602=ORIENTED_EDGE('',*,*,#353,.T.);
#603=ORIENTED_EDGE('',*,*,#433,.T.);
#604=ORIENTED_EDGE('',*,*,#435,.T.);
#605=ORIENTED_EDGE('',*,*,#437,.T.);
#606=ORIENTED_EDGE('',*,*,#364,.T.);
#607=ORIENTED_EDGE('',*,*,#421,.F.);
#608=ORIENTED_EDGE('',*,*,#375,.T.);
#609=ORIENTED_EDGE('',*,*,#439,.F.);
#610=ORIENTED_EDGE('',*,*,#415,.F.);
#611=ORIENTED_EDGE('',*,*,#442,.T.);
#612=ORIENTED_EDGE('',*,*,#443,.F.);
#613=ORIENTED_EDGE('',*,*,#419,.F.);
#614=ORIENTED_EDGE('',*,*,#414,.F.);
#615=ORIENTED_EDGE('',*,*,#444,.F.);
#616=ORIENTED_EDGE('',*,*,#445,.F.);
#617=ORIENTED_EDGE('',*,*,#442,.F.);
#618=ORIENTED_EDGE('',*,*,#413,.F.);
#619=ORIENTED_EDGE('',*,*,#446,.F.);
#620=ORIENTED_EDGE('',*,*,#447,.F.);
#621=ORIENTED_EDGE('',*,*,#444,.T.);
#622=ORIENTED_EDGE('',*,*,#448,.F.);
#623=ORIENTED_EDGE('',*,*,#440,.F.);
#624=ORIENTED_EDGE('',*,*,#408,.F.);
#625=ORIENTED_EDGE('',*,*,#449,.F.);
#626=ORIENTED_EDGE('',*,*,#450,.F.);
#627=ORIENTED_EDGE('',*,*,#449,.T.);
#628=ORIENTED_EDGE('',*,*,#407,.F.);
#629=ORIENTED_EDGE('',*,*,#370,.T.);
#630=ORIENTED_EDGE('',*,*,#431,.T.);
#631=ORIENTED_EDGE('',*,*,#351,.T.);
#632=ORIENTED_EDGE('',*,*,#430,.T.);
#633=ORIENTED_EDGE('',*,*,#391,.T.);
#634=ORIENTED_EDGE('',*,*,#427,.T.);
#635=ORIENTED_EDGE('',*,*,#389,.T.);
#636=ORIENTED_EDGE('',*,*,#410,.F.);
#637=ORIENTED_EDGE('',*,*,#382,.T.);
#638=ORIENTED_EDGE('',*,*,#428,.T.);
#639=ORIENTED_EDGE('',*,*,#400,.T.);
#640=ORIENTED_EDGE('',*,*,#429,.T.);
#641=ORIENTED_EDGE('',*,*,#360,.T.);
#642=ORIENTED_EDGE('',*,*,#432,.T.);
#643=ORIENTED_EDGE('',*,*,#377,.T.);
#644=ORIENTED_EDGE('',*,*,#451,.F.);
#645=ORIENTED_EDGE('',*,*,#452,.F.);
#646=ORIENTED_EDGE('',*,*,#411,.F.);
#647=ORIENTED_EDGE('',*,*,#452,.T.);
#648=ORIENTED_EDGE('',*,*,#453,.F.);
#649=ORIENTED_EDGE('',*,*,#454,.T.);
#650=ORIENTED_EDGE('',*,*,#412,.F.);
#651=ORIENTED_EDGE('',*,*,#454,.F.);
#652=ORIENTED_EDGE('',*,*,#455,.F.);
#653=ORIENTED_EDGE('',*,*,#446,.T.);
#654=ORIENTED_EDGE('',*,*,#388,.T.);
#655=ORIENTED_EDGE('',*,*,#441,.T.);
#656=ORIENTED_EDGE('',*,*,#448,.T.);
#657=ORIENTED_EDGE('',*,*,#450,.T.);
#658=ORIENTED_EDGE('',*,*,#376,.T.);
#659=ORIENTED_EDGE('',*,*,#420,.T.);
#660=ORIENTED_EDGE('',*,*,#443,.T.);
#661=ORIENTED_EDGE('',*,*,#445,.T.);
#662=ORIENTED_EDGE('',*,*,#447,.T.);
#663=ORIENTED_EDGE('',*,*,#455,.T.);
#664=ORIENTED_EDGE('',*,*,#453,.T.);
#665=ORIENTED_EDGE('',*,*,#451,.T.);
#666=CYLINDRICAL_SURFACE('',#738,35.);
#667=CYLINDRICAL_SURFACE('',#742,35.);
#668=CYLINDRICAL_SURFACE('',#746,35.);
#669=CYLINDRICAL_SURFACE('',#750,35.);
#670=CYLINDRICAL_SURFACE('',#753,35.);
#671=CYLINDRICAL_SURFACE('',#757,35.);
#672=CYLINDRICAL_SURFACE('',#760,35.);
#673=CYLINDRICAL_SURFACE('',#764,35.);
#674=CYLINDRICAL_SURFACE('',#778,45.);
#675=CYLINDRICAL_SURFACE('',#780,45.);
#676=CYLINDRICAL_SURFACE('',#782,35.);
#677=CYLINDRICAL_SURFACE('',#785,35.);
#678=CYLINDRICAL_SURFACE('',#788,35.);
#679=CYLINDRICAL_SURFACE('',#791,2.);
#680=CYLINDRICAL_SURFACE('',#793,2.);
#681=CYLINDRICAL_SURFACE('',#795,2.);
#682=CYLINDRICAL_SURFACE('',#800,45.);
#683=CYLINDRICAL_SURFACE('',#801,23.5);
#684=CYLINDRICAL_SURFACE('',#805,25.);
#685=CYLINDRICAL_SURFACE('',#807,30.);
#686=CYLINDRICAL_SURFACE('',#812,20.);
#687=ADVANCED_FACE('',(#37),#666,.T.);
#688=ADVANCED_FACE('',(#38),#21,.F.);
#689=ADVANCED_FACE('',(#39),#667,.T.);
#690=ADVANCED_FACE('',(#40),#22,.F.);
#691=ADVANCED_FACE('',(#41),#668,.T.);
#692=ADVANCED_FACE('',(#42),#23,.F.);
#693=ADVANCED_FACE('',(#43),#669,.T.);
#694=ADVANCED_FACE('',(#44),#670,.T.);
#695=ADVANCED_FACE('',(#45),#24,.F.);
#696=ADVANCED_FACE('',(#46),#671,.T.);
#697=ADVANCED_FACE('',(#47),#672,.T.);
#698=ADVANCED_FACE('',(#48),#25,.F.);
#699=ADVANCED_FACE('',(#49),#673,.T.);
#700=ADVANCED_FACE('',(#50),#26,.F.);
#701=ADVANCED_FACE('',(#51),#27,.T.);
#702=ADVANCED_FACE('',(#52),#28,.T.);
#703=ADVANCED_FACE('',(#53,#15,#16,#17),#29,.T.);
#704=ADVANCED_FACE('',(#54),#674,.T.);
#705=ADVANCED_FACE('',(#55),#675,.T.);
#706=ADVANCED_FACE('',(#56),#676,.F.);
#707=ADVANCED_FACE('',(#57),#677,.F.);
#708=ADVANCED_FACE('',(#58),#678,.F.);
#709=ADVANCED_FACE('',(#59),#679,.F.);
#710=ADVANCED_FACE('',(#60),#680,.F.);
#711=ADVANCED_FACE('',(#61),#681,.F.);
#712=ADVANCED_FACE('',(#62,#18,#19,#20),#30,.F.);
#713=ADVANCED_FACE('',(#63),#682,.T.);
#714=ADVANCED_FACE('',(#64),#683,.F.);
#715=ADVANCED_FACE('',(#65),#31,.F.);
#716=ADVANCED_FACE('',(#66),#684,.F.);
#717=ADVANCED_FACE('',(#67),#685,.F.);
#718=ADVANCED_FACE('',(#68),#32,.T.);
#719=ADVANCED_FACE('',(#69),#33,.F.);
#720=ADVANCED_FACE('',(#70),#686,.F.);
#721=ADVANCED_FACE('',(#71),#34,.T.);
#722=ADVANCED_FACE('',(#72),#35,.T.);
#723=ADVANCED_FACE('',(#73),#36,.T.);
#724=CLOSED_SHELL('',(#687,#688,#689,#690,#691,#692,#693,#694,#695,#696,
#697,#698,#699,#700,#701,#702,#703,#704,#705,#706,#707,#708,#709,#710,#711,
#712,#713,#714,#715,#716,#717,#718,#719,#720,#721,#722,#723));
#725=DERIVED_UNIT_ELEMENT(#727,1.);
#726=DERIVED_UNIT_ELEMENT(#1254,-3.);
#727=(
MASS_UNIT()
NAMED_UNIT(*)
SI_UNIT(.KILO.,.GRAM.)
);
#728=DERIVED_UNIT((#725,#726));
#729=MEASURE_REPRESENTATION_ITEM('density measure',
POSITIVE_RATIO_MEASURE(7850.),#728);
#730=PROPERTY_DEFINITION_REPRESENTATION(#735,#732);
#731=PROPERTY_DEFINITION_REPRESENTATION(#736,#733);
#732=REPRESENTATION('material name',(#734),#1251);
#733=REPRESENTATION('density',(#729),#1251);
#734=DESCRIPTIVE_REPRESENTATION_ITEM('Steel','Steel');
#735=PROPERTY_DEFINITION('material property','material name',#1261);
#736=PROPERTY_DEFINITION('material property','density of part',#1261);
#737=AXIS2_PLACEMENT_3D('',#1040,#817,#818);
#738=AXIS2_PLACEMENT_3D('',#1041,#819,#820);
#739=AXIS2_PLACEMENT_3D('',#1044,#821,#822);
#740=AXIS2_PLACEMENT_3D('',#1048,#824,#825);
#741=AXIS2_PLACEMENT_3D('',#1050,#827,#828);
#742=AXIS2_PLACEMENT_3D('',#1060,#834,#835);
#743=AXIS2_PLACEMENT_3D('',#1062,#836,#837);
#744=AXIS2_PLACEMENT_3D('',#1064,#838,#839);
#745=AXIS2_PLACEMENT_3D('',#1066,#841,#842);
#746=AXIS2_PLACEMENT_3D('',#1073,#847,#848);
#747=AXIS2_PLACEMENT_3D('',#1078,#850,#851);
#748=AXIS2_PLACEMENT_3D('',#1081,#853,#854);
#749=AXIS2_PLACEMENT_3D('',#1082,#855,#856);
#750=AXIS2_PLACEMENT_3D('',#1092,#862,#863);
#751=AXIS2_PLACEMENT_3D('',#1096,#865,#866);
#752=AXIS2_PLACEMENT_3D('',#1097,#867,#868);
#753=AXIS2_PLACEMENT_3D('',#1098,#869,#870);
#754=AXIS2_PLACEMENT_3D('',#1103,#872,#873);
#755=AXIS2_PLACEMENT_3D('',#1106,#875,#876);
#756=AXIS2_PLACEMENT_3D('',#1107,#877,#878);
#757=AXIS2_PLACEMENT_3D('',#1117,#884,#885);
#758=AXIS2_PLACEMENT_3D('',#1121,#887,#888);
#759=AXIS2_PLACEMENT_3D('',#1122,#889,#890);
#760=AXIS2_PLACEMENT_3D('',#1123,#891,#892);
#761=AXIS2_PLACEMENT_3D('',#1126,#893,#894);
#762=AXIS2_PLACEMENT_3D('',#1130,#896,#897);
#763=AXIS2_PLACEMENT_3D('',#1132,#899,#900);
#764=AXIS2_PLACEMENT_3D('',#1142,#906,#907);
#765=AXIS2_PLACEMENT_3D('',#1144,#908,#909);
#766=AXIS2_PLACEMENT_3D('',#1146,#910,#911);
#767=AXIS2_PLACEMENT_3D('',#1148,#913,#914);
#768=AXIS2_PLACEMENT_3D('',#1155,#919,#920);
#769=AXIS2_PLACEMENT_3D('',#1161,#924,#925);
#770=AXIS2_PLACEMENT_3D('',#1175,#933,#934);
#771=AXIS2_PLACEMENT_3D('',#1176,#935,#936);
#772=AXIS2_PLACEMENT_3D('',#1177,#937,#938);
#773=AXIS2_PLACEMENT_3D('',#1179,#939,#940);
#774=AXIS2_PLACEMENT_3D('',#1181,#942,#943);
#775=AXIS2_PLACEMENT_3D('',#1183,#944,#945);
#776=AXIS2_PLACEMENT_3D('',#1185,#946,#947);
#777=AXIS2_PLACEMENT_3D('',#1187,#948,#949);
#778=AXIS2_PLACEMENT_3D('',#1188,#950,#951);
#779=AXIS2_PLACEMENT_3D('',#1189,#952,#953);
#780=AXIS2_PLACEMENT_3D('',#1190,#954,#955);
#781=AXIS2_PLACEMENT_3D('',#1191,#956,#957);
#782=AXIS2_PLACEMENT_3D('',#1192,#958,#959);
#783=AXIS2_PLACEMENT_3D('',#1193,#960,#961);
#784=AXIS2_PLACEMENT_3D('',#1194,#962,#963);
#785=AXIS2_PLACEMENT_3D('',#1195,#964,#965);
#786=AXIS2_PLACEMENT_3D('',#1196,#966,#967);
#787=AXIS2_PLACEMENT_3D('',#1197,#968,#969);
#788=AXIS2_PLACEMENT_3D('',#1198,#970,#971);
#789=AXIS2_PLACEMENT_3D('',#1199,#972,#973);
#790=AXIS2_PLACEMENT_3D('',#1200,#974,#975);
#791=AXIS2_PLACEMENT_3D('',#1201,#976,#977);
#792=AXIS2_PLACEMENT_3D('',#1203,#978,#979);
#793=AXIS2_PLACEMENT_3D('',#1205,#981,#982);
#794=AXIS2_PLACEMENT_3D('',#1207,#983,#984);
#795=AXIS2_PLACEMENT_3D('',#1209,#986,#987);
#796=AXIS2_PLACEMENT_3D('',#1211,#988,#989);
#797=AXIS2_PLACEMENT_3D('',#1213,#991,#992);
#798=AXIS2_PLACEMENT_3D('',#1214,#993,#994);
#799=AXIS2_PLACEMENT_3D('',#1216,#995,#996);
#800=AXIS2_PLACEMENT_3D('',#1218,#998,#999);
#801=AXIS2_PLACEMENT_3D('',#1219,#1000,#1001);
#802=AXIS2_PLACEMENT_3D('',#1221,#1002,#1003);
#803=AXIS2_PLACEMENT_3D('',#1223,#1005,#1006);
#804=AXIS2_PLACEMENT_3D('',#1225,#1007,#1008);
#805=AXIS2_PLACEMENT_3D('',#1227,#1010,#1011);
#806=AXIS2_PLACEMENT_3D('',#1229,#1012,#1013);
#807=AXIS2_PLACEMENT_3D('',#1231,#1015,#1016);
#808=AXIS2_PLACEMENT_3D('',#1234,#1018,#1019);
#809=AXIS2_PLACEMENT_3D('',#1235,#1020,#1021);
#810=AXIS2_PLACEMENT_3D('',#1237,#1023,#1024);
#811=AXIS2_PLACEMENT_3D('',#1240,#1026,#1027);
#812=AXIS2_PLACEMENT_3D('',#1241,#1028,#1029);
#813=AXIS2_PLACEMENT_3D('',#1244,#1031,#1032);
#814=AXIS2_PLACEMENT_3D('',#1245,#1033,#1034);
#815=AXIS2_PLACEMENT_3D('',#1247,#1036,#1037);
#816=AXIS2_PLACEMENT_3D('',#1248,#1038,#1039);
#817=DIRECTION('axis',(0.,0.,1.));
#818=DIRECTION('refdir',(1.,0.,0.));
#819=DIRECTION('center_axis',(0.,1.,0.));
#820=DIRECTION('ref_axis',(1.,0.,0.));
#821=DIRECTION('center_axis',(0.,1.,0.));
#822=DIRECTION('ref_axis',(1.,0.,0.));
#823=DIRECTION('',(0.,1.,0.));
#824=DIRECTION('center_axis',(0.,-1.,0.));
#825=DIRECTION('ref_axis',(1.,0.,0.));
#826=DIRECTION('',(0.,-1.,0.));
#827=DIRECTION('center_axis',(-0.216439613938103,0.,0.976296007119933));
#828=DIRECTION('ref_axis',(0.976296007119933,0.,0.216439613938103));
#829=DIRECTION('',(-0.976296007119933,0.,-0.216439613938103));
#830=DIRECTION('',(0.,-1.,0.));
#831=DIRECTION('',(0.,1.,0.));
#832=DIRECTION('',(0.976296007119933,0.,0.216439613938103));
#833=DIRECTION('',(0.,-1.,0.));
#834=DIRECTION('center_axis',(0.,1.,0.));
#835=DIRECTION('ref_axis',(1.,0.,0.));
#836=DIRECTION('center_axis',(0.,-1.,0.));
#837=DIRECTION('ref_axis',(1.,0.,0.));
#838=DIRECTION('center_axis',(0.,1.,0.));
#839=DIRECTION('ref_axis',(1.,0.,0.));
#840=DIRECTION('',(0.,1.,0.));
#841=DIRECTION('center_axis',(0.737277336810124,0.,-0.675590207615661));
#842=DIRECTION('ref_axis',(-0.675590207615661,0.,-0.737277336810124));
#843=DIRECTION('',(0.675590207615661,0.,0.737277336810124));
#844=DIRECTION('',(0.,1.,0.));
#845=DIRECTION('',(-0.675590207615661,0.,-0.737277336810124));
#846=DIRECTION('',(0.,-1.,0.));
#847=DIRECTION('center_axis',(0.,1.,0.));
#848=DIRECTION('ref_axis',(1.,0.,0.));
#849=DIRECTION('',(0.,1.,0.));
#850=DIRECTION('center_axis',(0.,-1.,0.));
#851=DIRECTION('ref_axis',(1.,0.,0.));
#852=DIRECTION('',(0.,1.,0.));
#853=DIRECTION('center_axis',(0.,1.,0.));
#854=DIRECTION('ref_axis',(1.,0.,0.));
#855=DIRECTION('center_axis',(-0.953716950748227,0.,0.300705799504273));
#856=DIRECTION('ref_axis',(0.300705799504273,0.,0.953716950748227));
#857=DIRECTION('',(-0.300705799504273,0.,-0.953716950748227));
#858=DIRECTION('',(0.,1.,0.));
#859=DIRECTION('',(0.,1.,0.));
#860=DIRECTION('',(0.300705799504273,0.,0.953716950748227));
#861=DIRECTION('',(0.,-1.,0.));
#862=DIRECTION('center_axis',(0.,1.,0.));
#863=DIRECTION('ref_axis',(1.,0.,0.));
#864=DIRECTION('',(0.,1.,0.));
#865=DIRECTION('center_axis',(0.,-1.,0.));
#866=DIRECTION('ref_axis',(1.,0.,0.));
#867=DIRECTION('center_axis',(0.,1.,0.));
#868=DIRECTION('ref_axis',(1.,0.,0.));
#869=DIRECTION('center_axis',(0.,1.,0.));
#870=DIRECTION('ref_axis',(1.,0.,0.));
#871=DIRECTION('',(0.,-1.,0.));
#872=DIRECTION('center_axis',(0.,1.,0.));
#873=DIRECTION('ref_axis',(1.,0.,0.));
#874=DIRECTION('',(0.,-1.,0.));
#875=DIRECTION('center_axis',(0.,-1.,0.));
#876=DIRECTION('ref_axis',(1.,0.,0.));
#877=DIRECTION('center_axis',(-0.953716950748227,0.,-0.300705799504273));
#878=DIRECTION('ref_axis',(-0.300705799504273,0.,0.953716950748227));
#879=DIRECTION('',(0.300705799504273,0.,-0.953716950748227));
#880=DIRECTION('',(0.,1.,0.));
#881=DIRECTION('',(-0.300705799504273,0.,0.953716950748227));
#882=DIRECTION('',(0.,-1.,0.));
#883=DIRECTION('',(0.,-1.,0.));
#884=DIRECTION('center_axis',(0.,1.,0.));
#885=DIRECTION('ref_axis',(1.,0.,0.));
#886=DIRECTION('',(0.,-1.,0.));
#887=DIRECTION('center_axis',(0.,1.,0.));
#888=DIRECTION('ref_axis',(1.,0.,0.));
#889=DIRECTION('center_axis',(0.,-1.,0.));
#890=DIRECTION('ref_axis',(1.,0.,0.));
#891=DIRECTION('center_axis',(0.,1.,0.));
#892=DIRECTION('ref_axis',(1.,0.,0.));
#893=DIRECTION('center_axis',(0.,1.,0.));
#894=DIRECTION('ref_axis',(1.,0.,0.));
#895=DIRECTION('',(0.,1.,0.));
#896=DIRECTION('center_axis',(0.,-1.,0.));
#897=DIRECTION('ref_axis',(1.,0.,0.));
#898=DIRECTION('',(0.,-1.,0.));
#899=DIRECTION('center_axis',(0.737277336810124,0.,0.67559020761566));
#900=DIRECTION('ref_axis',(0.67559020761566,0.,-0.737277336810124));
#901=DIRECTION('',(-0.67559020761566,0.,0.737277336810124));
#902=DIRECTION('',(0.,-1.,0.));
#903=DIRECTION('',(0.,1.,0.));
#904=DIRECTION('',(0.67559020761566,0.,-0.737277336810124));
#905=DIRECTION('',(0.,-1.,0.));
#906=DIRECTION('center_axis',(0.,1.,0.));
#907=DIRECTION('ref_axis',(1.,0.,0.));
#908=DIRECTION('center_axis',(0.,-1.,0.));
#909=DIRECTION('ref_axis',(1.,0.,0.));
#910=DIRECTION('center_axis',(0.,1.,0.));
#911=DIRECTION('ref_axis',(1.,0.,0.));
#912=DIRECTION('',(0.,1.,0.));
#913=DIRECTION('center_axis',(-0.216439613938103,0.,-0.976296007119933));
#914=DIRECTION('ref_axis',(-0.976296007119933,0.,0.216439613938103));
#915=DIRECTION('',(0.976296007119933,0.,-0.216439613938103));
#916=DIRECTION('',(0.,1.,0.));
#917=DIRECTION('',(-0.976296007119933,0.,0.216439613938103));
#918=DIRECTION('',(0.,-1.,0.));
#919=DIRECTION('center_axis',(1.,0.,0.));
#920=DIRECTION('ref_axis',(0.,0.,-1.));
#921=DIRECTION('',(0.,0.,1.));
#922=DIRECTION('',(0.,-1.,0.));
#923=DIRECTION('',(0.,0.,-1.));
#924=DIRECTION('center_axis',(1.,0.,0.));
#925=DIRECTION('ref_axis',(0.,0.,-1.));
#926=DIRECTION('',(0.,0.,-1.));
#927=DIRECTION('',(0.,1.,0.));
#928=DIRECTION('',(0.,0.,1.));
#929=DIRECTION('',(0.,1.,0.));
#930=DIRECTION('',(0.,0.,-1.));
#931=DIRECTION('',(0.,1.,0.));
#932=DIRECTION('',(0.,0.,1.));
#933=DIRECTION('center_axis',(0.,1.,0.));
#934=DIRECTION('ref_axis',(1.,0.,0.));
#935=DIRECTION('center_axis',(0.,1.,0.));
#936=DIRECTION('ref_axis',(1.,0.,0.));
#937=DIRECTION('center_axis',(0.,1.,0.));
#938=DIRECTION('ref_axis',(1.,0.,0.));
#939=DIRECTION('center_axis',(0.,-1.,0.));
#940=DIRECTION('ref_axis',(1.,0.,0.));
#941=DIRECTION('',(0.,0.,1.));
#942=DIRECTION('center_axis',(0.,1.,0.));
#943=DIRECTION('ref_axis',(1.,0.,0.));
#944=DIRECTION('center_axis',(0.,-1.,0.));
#945=DIRECTION('ref_axis',(1.,0.,0.));
#946=DIRECTION('center_axis',(0.,-1.,0.));
#947=DIRECTION('ref_axis',(1.,0.,0.));
#948=DIRECTION('center_axis',(0.,-1.,0.));
#949=DIRECTION('ref_axis',(1.,0.,0.));
#950=DIRECTION('center_axis',(0.,-1.,0.));
#951=DIRECTION('ref_axis',(-1.,0.,-1.22464679914735E-16));
#952=DIRECTION('center_axis',(0.,-1.,0.));
#953=DIRECTION('ref_axis',(1.,0.,0.));
#954=DIRECTION('center_axis',(0.,-1.,0.));
#955=DIRECTION('ref_axis',(1.,0.,0.));
#956=DIRECTION('center_axis',(0.,-1.,0.));
#957=DIRECTION('ref_axis',(1.,0.,0.));
#958=DIRECTION('center_axis',(0.,1.,0.));
#959=DIRECTION('ref_axis',(1.,0.,0.));
#960=DIRECTION('center_axis',(0.,1.,0.));
#961=DIRECTION('ref_axis',(1.,0.,0.));
#962=DIRECTION('center_axis',(0.,-1.,0.));
#963=DIRECTION('ref_axis',(1.,0.,0.));
#964=DIRECTION('center_axis',(0.,1.,0.));
#965=DIRECTION('ref_axis',(-1.,0.,-1.22464679914735E-16));
#966=DIRECTION('center_axis',(0.,-1.,0.));
#967=DIRECTION('ref_axis',(1.,0.,0.));
#968=DIRECTION('center_axis',(0.,1.,0.));
#969=DIRECTION('ref_axis',(1.,0.,0.));
#970=DIRECTION('center_axis',(0.,1.,0.));
#971=DIRECTION('ref_axis',(1.,0.,0.));
#972=DIRECTION('center_axis',(0.,1.,0.));
#973=DIRECTION('ref_axis',(1.,0.,0.));
#974=DIRECTION('center_axis',(0.,-1.,0.));
#975=DIRECTION('ref_axis',(1.,0.,0.));
#976=DIRECTION('center_axis',(0.,1.,0.));
#977=DIRECTION('ref_axis',(1.,0.,0.));
#978=DIRECTION('center_axis',(0.,1.,0.));
#979=DIRECTION('ref_axis',(1.,0.,0.));
#980=DIRECTION('',(0.,1.,0.));
#981=DIRECTION('center_axis',(0.,1.,0.));
#982=DIRECTION('ref_axis',(1.,0.,0.));
#983=DIRECTION('center_axis',(0.,1.,0.));
#984=DIRECTION('ref_axis',(1.,0.,0.));
#985=DIRECTION('',(0.,1.,0.));
#986=DIRECTION('center_axis',(0.,1.,0.));
#987=DIRECTION('ref_axis',(1.,0.,0.));
#988=DIRECTION('center_axis',(0.,1.,0.));
#989=DIRECTION('ref_axis',(1.,0.,0.));
#990=DIRECTION('',(0.,1.,0.));
#991=DIRECTION('center_axis',(0.,1.,0.));
#992=DIRECTION('ref_axis',(1.,0.,0.));
#993=DIRECTION('center_axis',(0.,-1.,0.));
#994=DIRECTION('ref_axis',(1.,0.,0.));
#995=DIRECTION('center_axis',(0.,1.,0.));
#996=DIRECTION('ref_axis',(1.,0.,0.));
#997=DIRECTION('',(0.,0.,-1.));
#998=DIRECTION('center_axis',(0.,-1.,0.));
#999=DIRECTION('ref_axis',(1.,0.,0.));
#1000=DIRECTION('center_axis',(0.,1.,0.));
#1001=DIRECTION('ref_axis',(-1.,0.,1.22464679914735E-16));
#1002=DIRECTION('center_axis',(0.,-1.,0.));
#1003=DIRECTION('ref_axis',(1.,0.,0.));
#1004=DIRECTION('',(0.,-1.,0.));
#1005=DIRECTION('center_axis',(0.,1.,0.));
#1006=DIRECTION('ref_axis',(1.,0.,0.));
#1007=DIRECTION('center_axis',(0.,1.,0.));
#1008=DIRECTION('ref_axis',(1.,0.,0.));
#1009=DIRECTION('',(0.,0.,-1.));
#1010=DIRECTION('center_axis',(0.,1.,0.));
#1011=DIRECTION('ref_axis',(-1.,0.,1.22464679914735E-16));
#1012=DIRECTION('center_axis',(0.,1.,0.));
#1013=DIRECTION('ref_axis',(1.,0.,0.));
#1014=DIRECTION('',(0.,-1.,0.));
#1015=DIRECTION('center_axis',(0.,-1.,0.));
#1016=DIRECTION('ref_axis',(-1.,0.,1.22464679914735E-16));
#1017=DIRECTION('',(0.,1.,0.));
#1018=DIRECTION('center_axis',(0.,-1.,0.));
#1019=DIRECTION('ref_axis',(1.,0.,0.));
#1020=DIRECTION('center_axis',(0.,1.,0.));
#1021=DIRECTION('ref_axis',(1.,0.,0.));
#1022=DIRECTION('',(0.,0.,1.));
#1023=DIRECTION('center_axis',(0.,1.,0.));
#1024=DIRECTION('ref_axis',(1.,0.,0.));
#1025=DIRECTION('',(0.,0.,-1.));
#1026=DIRECTION('center_axis',(0.,-1.,0.));
#1027=DIRECTION('ref_axis',(1.,0.,0.));
#1028=DIRECTION('center_axis',(0.,1.,0.));
#1029=DIRECTION('ref_axis',(-1.,0.,1.22464679914735E-16));
#1030=DIRECTION('',(0.,-1.,0.));
#1031=DIRECTION('center_axis',(0.,1.,0.));
#1032=DIRECTION('ref_axis',(1.,0.,0.));
#1033=DIRECTION('center_axis',(0.,1.,0.));
#1034=DIRECTION('ref_axis',(1.,0.,0.));
#1035=DIRECTION('',(0.,0.,1.));
#1036=DIRECTION('center_axis',(1.,0.,0.));
#1037=DIRECTION('ref_axis',(0.,0.,-1.));
#1038=DIRECTION('center_axis',(1.,0.,0.));
#1039=DIRECTION('ref_axis',(0.,0.,-1.));
#1040=CARTESIAN_POINT('',(0.,0.,0.));
#1041=CARTESIAN_POINT('Origin',(0.,0.,0.));
#1042=CARTESIAN_POINT('',(-23.6456572665481,0.,-25.8047067883543));
#1043=CARTESIAN_POINT('',(-34.1703602491977,0.,-7.5753864878336));
#1044=CARTESIAN_POINT('Origin',(0.,0.,0.));
#1045=CARTESIAN_POINT('',(-23.6456572665481,-5.,-25.8047067883543));
#1046=CARTESIAN_POINT('',(-23.6456572665481,0.,-25.8047067883543));
#1047=CARTESIAN_POINT('',(-34.1703602491977,-5.,-7.5753864878336));
#1048=CARTESIAN_POINT('Origin',(0.,-5.,0.));
#1049=CARTESIAN_POINT('',(-34.1703602491977,0.,-7.5753864878336));
#1050=CARTESIAN_POINT('Origin',(-43.933320320397,0.,-9.73978262721464));
#1051=CARTESIAN_POINT('',(-34.1703602491977,45.,-7.5753864878336));
#1052=CARTESIAN_POINT('',(-43.933320320397,45.,-9.73978262721463));
#1053=CARTESIAN_POINT('',(-21.9666601601985,45.,-4.86989131360732));
#1054=CARTESIAN_POINT('',(-34.1703602491977,35.,-7.5753864878336));
#1055=CARTESIAN_POINT('',(-34.1703602491977,0.,-7.5753864878336));
#1056=CARTESIAN_POINT('',(-34.1703602491977,0.,-7.5753864878336));
#1057=CARTESIAN_POINT('',(-43.933320320397,-5.,-9.73978262721464));
#1058=CARTESIAN_POINT('',(-21.9666601601985,-5.,-4.86989131360732));
#1059=CARTESIAN_POINT('',(-43.933320320397,0.,-9.73978262721463));
#1060=CARTESIAN_POINT('Origin',(0.,0.,0.));
#1061=CARTESIAN_POINT('',(-23.6456572665481,35.,-25.8047067883543));
#1062=CARTESIAN_POINT('Origin',(0.,35.,0.));
#1063=CARTESIAN_POINT('',(-23.6456572665481,45.,-25.8047067883543));
#1064=CARTESIAN_POINT('Origin',(0.,45.,0.));
#1065=CARTESIAN_POINT('',(-23.6456572665481,0.,-25.8047067883543));
#1066=CARTESIAN_POINT('Origin',(-23.6456572665481,0.,-25.8047067883543));
#1067=CARTESIAN_POINT('',(-30.4015593427047,45.,-33.1774801564556));
#1068=CARTESIAN_POINT('',(-11.8228286332741,45.,-12.9023533941772));
#1069=CARTESIAN_POINT('',(-30.4015593427047,-5.,-33.1774801564556));
#1070=CARTESIAN_POINT('',(-30.4015593427047,0.,-33.1774801564556));
#1071=CARTESIAN_POINT('',(-11.8228286332741,-5.,-12.9023533941772));
#1072=CARTESIAN_POINT('',(-23.6456572665481,0.,-25.8047067883543));
#1073=CARTESIAN_POINT('Origin',(0.,0.,0.));
#1074=CARTESIAN_POINT('',(0.,-5.,-35.));
#1075=CARTESIAN_POINT('',(0.,0.,-35.));
#1076=CARTESIAN_POINT('',(0.,0.,-35.));
#1077=CARTESIAN_POINT('',(-10.5247029826496,-5.,-33.3800932761879));
#1078=CARTESIAN_POINT('Origin',(0.,-5.,0.));
#1079=CARTESIAN_POINT('',(-10.5247029826496,0.,-33.3800932761879));
#1080=CARTESIAN_POINT('',(-10.5247029826496,0.,-33.3800932761879));
#1081=CARTESIAN_POINT('Origin',(0.,0.,0.));
#1082=CARTESIAN_POINT('Origin',(-13.5317609776923,0.,-42.9172627836702));
#1083=CARTESIAN_POINT('',(-10.5247029826496,45.,-33.3800932761879));
#1084=CARTESIAN_POINT('',(-13.5317609776923,45.,-42.9172627836702));
#1085=CARTESIAN_POINT('',(-6.76588048884615,45.,-21.4586313918351));
#1086=CARTESIAN_POINT('',(-10.5247029826496,35.,-33.3800932761879));
#1087=CARTESIAN_POINT('',(-10.5247029826496,0.,-33.3800932761879));
#1088=CARTESIAN_POINT('',(-10.5247029826496,0.,-33.3800932761879));
#1089=CARTESIAN_POINT('',(-13.5317609776923,-5.,-42.9172627836702));
#1090=CARTESIAN_POINT('',(-6.76588048884615,-5.,-21.4586313918351));
#1091=CARTESIAN_POINT('',(-13.5317609776923,0.,-42.9172627836702));
#1092=CARTESIAN_POINT('Origin',(0.,0.,0.));
#1093=CARTESIAN_POINT('',(0.,35.,-35.));
#1094=CARTESIAN_POINT('',(0.,45.,-35.));
#1095=CARTESIAN_POINT('',(0.,0.,-35.));
#1096=CARTESIAN_POINT('Origin',(0.,35.,0.));
#1097=CARTESIAN_POINT('Origin',(0.,45.,0.));
#1098=CARTESIAN_POINT('Origin',(0.,0.,0.));
#1099=CARTESIAN_POINT('',(0.,45.,35.));
#1100=CARTESIAN_POINT('',(0.,35.,35.));
#1101=CARTESIAN_POINT('',(0.,0.,35.));
#1102=CARTESIAN_POINT('',(-10.5247029826495,45.,33.3800932761879));
#1103=CARTESIAN_POINT('Origin',(0.,45.,0.));
#1104=CARTESIAN_POINT('',(-10.5247029826495,35.,33.3800932761879));
#1105=CARTESIAN_POINT('',(-10.5247029826495,0.,33.3800932761879));
#1106=CARTESIAN_POINT('Origin',(0.,35.,0.));
#1107=CARTESIAN_POINT('Origin',(-10.5247029826495,0.,33.3800932761879));
#1108=CARTESIAN_POINT('',(-13.5317609776923,45.,42.9172627836702));
#1109=CARTESIAN_POINT('',(-5.26235149132477,45.,16.690046638094));
#1110=CARTESIAN_POINT('',(-13.5317609776923,-5.,42.9172627836702));
#1111=CARTESIAN_POINT('',(-13.5317609776923,0.,42.9172627836702));
#1112=CARTESIAN_POINT('',(-10.5247029826495,-5.,33.3800932761879));
#1113=CARTESIAN_POINT('',(-5.26235149132477,-5.,16.690046638094));
#1114=CARTESIAN_POINT('',(-10.5247029826495,0.,33.3800932761879));
#1115=CARTESIAN_POINT('',(-10.5247029826495,0.,33.3800932761879));
#1116=CARTESIAN_POINT('',(-10.5247029826495,0.,33.3800932761879));
#1117=CARTESIAN_POINT('Origin',(0.,0.,0.));
#1118=CARTESIAN_POINT('',(0.,0.,35.));
#1119=CARTESIAN_POINT('',(0.,-5.,35.));
#1120=CARTESIAN_POINT('',(0.,0.,35.));
#1121=CARTESIAN_POINT('Origin',(0.,0.,0.));
#1122=CARTESIAN_POINT('Origin',(0.,-5.,0.));
#1123=CARTESIAN_POINT('Origin',(0.,0.,0.));
#1124=CARTESIAN_POINT('',(-34.1703602491977,0.,7.57538648783362));
#1125=CARTESIAN_POINT('',(-23.6456572665481,0.,25.8047067883543));
#1126=CARTESIAN_POINT('Origin',(0.,0.,0.));
#1127=CARTESIAN_POINT('',(-34.1703602491977,-5.,7.57538648783362));
#1128=CARTESIAN_POINT('',(-34.1703602491977,0.,7.57538648783362));
#1129=CARTESIAN_POINT('',(-23.6456572665481,-5.,25.8047067883543));
#1130=CARTESIAN_POINT('Origin',(0.,-5.,0.));
#1131=CARTESIAN_POINT('',(-23.6456572665481,0.,25.8047067883543));
#1132=CARTESIAN_POINT('Origin',(-30.4015593427047,0.,33.1774801564556));
#1133=CARTESIAN_POINT('',(-23.6456572665481,45.,25.8047067883543));
#1134=CARTESIAN_POINT('',(-30.4015593427047,45.,33.1774801564556));
#1135=CARTESIAN_POINT('',(-15.2007796713524,45.,16.5887400782278));
#1136=CARTESIAN_POINT('',(-23.6456572665481,35.,25.8047067883543));
#1137=CARTESIAN_POINT('',(-23.6456572665481,0.,25.8047067883543));
#1138=CARTESIAN_POINT('',(-23.6456572665481,0.,25.8047067883543));
#1139=CARTESIAN_POINT('',(-30.4015593427047,-5.,33.1774801564556));
#1140=CARTESIAN_POINT('',(-15.2007796713524,-5.,16.5887400782278));
#1141=CARTESIAN_POINT('',(-30.4015593427047,0.,33.1774801564556));
#1142=CARTESIAN_POINT('Origin',(0.,0.,0.));
#1143=CARTESIAN_POINT('',(-34.1703602491977,35.,7.57538648783362));
#1144=CARTESIAN_POINT('Origin',(0.,35.,0.));
#1145=CARTESIAN_POINT('',(-34.1703602491977,45.,7.57538648783362));
#1146=CARTESIAN_POINT('Origin',(0.,45.,0.));
#1147=CARTESIAN_POINT('',(-34.1703602491977,0.,7.57538648783362));
#1148=CARTESIAN_POINT('Origin',(-34.1703602491977,0.,7.57538648783362));
#1149=CARTESIAN_POINT('',(-43.933320320397,45.,9.73978262721466));
#1150=CARTESIAN_POINT('',(-17.0851801245988,45.,3.78769324391681));
#1151=CARTESIAN_POINT('',(-43.933320320397,-5.,9.73978262721466));
#1152=CARTESIAN_POINT('',(-43.933320320397,0.,9.73978262721466));
#1153=CARTESIAN_POINT('',(-17.0851801245988,-5.,3.78769324391681));
#1154=CARTESIAN_POINT('',(-34.1703602491977,0.,7.57538648783362));
#1155=CARTESIAN_POINT('Origin',(0.,20.,0.));
#1156=CARTESIAN_POINT('',(0.,0.,-30.));
#1157=CARTESIAN_POINT('',(0.,0.,0.));
#1158=CARTESIAN_POINT('',(0.,-5.,-30.));
#1159=CARTESIAN_POINT('',(0.,0.,-30.));
#1160=CARTESIAN_POINT('',(0.,-5.,0.));
#1161=CARTESIAN_POINT('Origin',(0.,20.,0.));
#1162=CARTESIAN_POINT('',(0.,35.,20.));
#1163=CARTESIAN_POINT('',(0.,35.,0.));
#1164=CARTESIAN_POINT('',(0.,40.,20.));
#1165=CARTESIAN_POINT('',(0.,35.,20.));
#1166=CARTESIAN_POINT('',(0.,40.,25.));
#1167=CARTESIAN_POINT('',(0.,40.,0.));
#1168=CARTESIAN_POINT('',(0.,43.,25.));
#1169=CARTESIAN_POINT('',(0.,40.,25.));
#1170=CARTESIAN_POINT('',(0.,43.,23.5));
#1171=CARTESIAN_POINT('',(0.,43.,0.));
#1172=CARTESIAN_POINT('',(0.,45.,23.5));
#1173=CARTESIAN_POINT('',(0.,40.,23.5));
#1174=CARTESIAN_POINT('',(0.,45.,0.));
#1175=CARTESIAN_POINT('Origin',(0.,45.,0.));
#1176=CARTESIAN_POINT('Origin',(0.,45.,0.));
#1177=CARTESIAN_POINT('Origin',(0.,45.,0.));
#1178=CARTESIAN_POINT('',(0.,45.,-23.5));
#1179=CARTESIAN_POINT('Origin',(0.,45.,0.));
#1180=CARTESIAN_POINT('',(0.,45.,0.));
#1181=CARTESIAN_POINT('Origin',(0.,45.,0.));
#1182=CARTESIAN_POINT('',(-22.,45.,-34.6410161513775));
#1183=CARTESIAN_POINT('Origin',(-20.,45.,-34.6410161513775));
#1184=CARTESIAN_POINT('',(-22.,45.,34.6410161513775));
#1185=CARTESIAN_POINT('Origin',(-20.,45.,34.6410161513775));
#1186=CARTESIAN_POINT('',(-42.,45.,6.41640878792147E-15));
#1187=CARTESIAN_POINT('Origin',(-40.,45.,6.66133814775094E-15));
#1188=CARTESIAN_POINT('Origin',(0.,0.,0.));
#1189=CARTESIAN_POINT('Origin',(0.,-5.,0.));
#1190=CARTESIAN_POINT('Origin',(0.,0.,0.));
#1191=CARTESIAN_POINT('Origin',(0.,-5.,0.));
#1192=CARTESIAN_POINT('Origin',(0.,0.,0.));
#1193=CARTESIAN_POINT('Origin',(0.,0.,0.));
#1194=CARTESIAN_POINT('Origin',(0.,35.,0.));
#1195=CARTESIAN_POINT('Origin',(0.,0.,0.));
#1196=CARTESIAN_POINT('Origin',(0.,35.,0.));
#1197=CARTESIAN_POINT('Origin',(0.,0.,0.));
#1198=CARTESIAN_POINT('Origin',(0.,0.,0.));
#1199=CARTESIAN_POINT('Origin',(0.,0.,0.));
#1200=CARTESIAN_POINT('Origin',(0.,35.,0.));
#1201=CARTESIAN_POINT('Origin',(-40.,0.,6.66133814775094E-15));
#1202=CARTESIAN_POINT('',(-42.,-5.,6.90626750758041E-15));
#1203=CARTESIAN_POINT('Origin',(-40.,-5.,6.66133814775094E-15));
#1204=CARTESIAN_POINT('',(-42.,0.,6.90626750758041E-15));
#1205=CARTESIAN_POINT('Origin',(-20.,0.,34.6410161513775));
#1206=CARTESIAN_POINT('',(-22.,-5.,34.6410161513775));
#1207=CARTESIAN_POINT('Origin',(-20.,-5.,34.6410161513775));
#1208=CARTESIAN_POINT('',(-22.,0.,34.6410161513775));
#1209=CARTESIAN_POINT('Origin',(-20.,0.,-34.6410161513775));
#1210=CARTESIAN_POINT('',(-22.,-5.,-34.6410161513775));
#1211=CARTESIAN_POINT('Origin',(-20.,-5.,-34.6410161513775));
#1212=CARTESIAN_POINT('',(-22.,0.,-34.6410161513775));
#1213=CARTESIAN_POINT('Origin',(0.,-5.,0.));
#1214=CARTESIAN_POINT('Origin',(0.,-5.,0.));
#1215=CARTESIAN_POINT('',(0.,-5.,30.));
#1216=CARTESIAN_POINT('Origin',(0.,-5.,0.));
#1217=CARTESIAN_POINT('',(0.,-5.,0.));
#1218=CARTESIAN_POINT('Origin',(0.,0.,0.));
#1219=CARTESIAN_POINT('Origin',(0.,40.,0.));
#1220=CARTESIAN_POINT('',(0.,43.,-23.5));
#1221=CARTESIAN_POINT('Origin',(0.,43.,0.));
#1222=CARTESIAN_POINT('',(0.,40.,-23.5));
#1223=CARTESIAN_POINT('Origin',(0.,43.,0.));
#1224=CARTESIAN_POINT('',(0.,43.,-25.));
#1225=CARTESIAN_POINT('Origin',(0.,43.,0.));
#1226=CARTESIAN_POINT('',(0.,43.,0.));
#1227=CARTESIAN_POINT('Origin',(0.,40.,0.));
#1228=CARTESIAN_POINT('',(0.,40.,-25.));
#1229=CARTESIAN_POINT('Origin',(0.,40.,0.));
#1230=CARTESIAN_POINT('',(0.,40.,-25.));
#1231=CARTESIAN_POINT('Origin',(0.,0.,0.));
#1232=CARTESIAN_POINT('',(0.,0.,30.));
#1233=CARTESIAN_POINT('',(0.,0.,30.));
#1234=CARTESIAN_POINT('Origin',(0.,0.,0.));
#1235=CARTESIAN_POINT('Origin',(0.,0.,0.));
#1236=CARTESIAN_POINT('',(0.,0.,0.));
#1237=CARTESIAN_POINT('Origin',(0.,35.,0.));
#1238=CARTESIAN_POINT('',(0.,35.,-20.));
#1239=CARTESIAN_POINT('',(0.,35.,0.));
#1240=CARTESIAN_POINT('Origin',(0.,35.,0.));
#1241=CARTESIAN_POINT('Origin',(0.,35.,0.));
#1242=CARTESIAN_POINT('',(0.,40.,-20.));
#1243=CARTESIAN_POINT('',(0.,35.,-20.));
#1244=CARTESIAN_POINT('Origin',(0.,40.,0.));
#1245=CARTESIAN_POINT('Origin',(0.,40.,0.));
#1246=CARTESIAN_POINT('',(0.,40.,0.));
#1247=CARTESIAN_POINT('Origin',(0.,20.,0.));
#1248=CARTESIAN_POINT('Origin',(0.,20.,0.));
#1249=UNCERTAINTY_MEASURE_WITH_UNIT(LENGTH_MEASURE(0.01),#1253,
'DISTANCE_ACCURACY_VALUE',
'Maximum model space distance between geometric entities at asserted c
onnectivities');
#1250=UNCERTAINTY_MEASURE_WITH_UNIT(LENGTH_MEASURE(0.01),#1253,
'DISTANCE_ACCURACY_VALUE',
'Maximum model space distance between geometric entities at asserted c
onnectivities');
#1251=(
GEOMETRIC_REPRESENTATION_CONTEXT(3)
GLOBAL_UNCERTAINTY_ASSIGNED_CONTEXT((#1249))
GLOBAL_UNIT_ASSIGNED_CONTEXT((#1253,#1255,#1256))
REPRESENTATION_CONTEXT('','3D')
);
#1252=(
GEOMETRIC_REPRESENTATION_CONTEXT(3)
GLOBAL_UNCERTAINTY_ASSIGNED_CONTEXT((#1250))
GLOBAL_UNIT_ASSIGNED_CONTEXT((#1253,#1255,#1256))
REPRESENTATION_CONTEXT('','3D')
);
#1253=(
LENGTH_UNIT()
NAMED_UNIT(*)
SI_UNIT(.MILLI.,.METRE.)
);
#1254=(
LENGTH_UNIT()
NAMED_UNIT(*)
SI_UNIT($,.METRE.)
);
#1255=(
NAMED_UNIT(*)
PLANE_ANGLE_UNIT()
SI_UNIT($,.RADIAN.)
);
#1256=(
NAMED_UNIT(*)
SI_UNIT($,.STERADIAN.)
SOLID_ANGLE_UNIT()
);
#1257=SHAPE_DEFINITION_REPRESENTATION(#1258,#1259);
#1258=PRODUCT_DEFINITION_SHAPE('',$,#1261);
#1259=SHAPE_REPRESENTATION('',(#737),#1251);
#1260=PRODUCT_DEFINITION_CONTEXT('part definition',#1265,'design');
#1261=PRODUCT_DEFINITION('lamp holder','lamp holder v5',#1262,#1260);
#1262=PRODUCT_DEFINITION_FORMATION('',$,#1267);
#1263=PRODUCT_RELATED_PRODUCT_CATEGORY('lamp holder v5',
'lamp holder v5',(#1267));
#1264=APPLICATION_PROTOCOL_DEFINITION('international standard',
'automotive_design',2009,#1265);
#1265=APPLICATION_CONTEXT(
'Core Data for Automotive Mechanical Design Process');
#1266=PRODUCT_CONTEXT('part definition',#1265,'mechanical');
#1267=PRODUCT('lamp holder','lamp holder v5',$,(#1266));
#1268=PRESENTATION_STYLE_ASSIGNMENT((#1269));
#1269=SURFACE_STYLE_USAGE(.BOTH.,#1270);
#1270=SURFACE_SIDE_STYLE('',(#1271));
#1271=SURFACE_STYLE_FILL_AREA(#1272);
#1272=FILL_AREA_STYLE('Steel - Satin',(#1273));
#1273=FILL_AREA_STYLE_COLOUR('Steel - Satin',#1274);
#1274=COLOUR_RGB('Steel - Satin',0.627450980392157,0.627450980392157,0.627450980392157);
ENDSEC;
END-ISO-10303-21;
