ISO-10303-21;
HEADER;
/* Generated by software containing ST-Developer
 * from STEP Tools, Inc. (www.steptools.com) 
 */

FILE_DESCRIPTION(
/* description */ (''),
/* implementation_level */ '2;1');

FILE_NAME(
/* name */ 'Minitrans_CF16_Hub300_Rotation&Linear v1.step',
/* time_stamp */ '2024-06-25T14:50:12+02:00',
/* author */ (''),
/* organization */ (''),
/* preprocessor_version */ 'ST-DEVELOPER v20',
/* originating_system */ 'Autodesk Translation Framework v13.14.0.145',

/* authorisation */ '');

FILE_SCHEMA (('AUTOMOTIVE_DESIGN { 1 0 10303 214 3 1 1 }'));
ENDSEC;

DATA;
#10=MECHANICAL_DESIGN_GEOMETRIC_PRESENTATION_REPRESENTATION('',(#450,#451,
#452,#453,#454,#455,#456,#457,#458,#459,#460,#461,#462,#463,#464,#465,#466,
#467,#468,#469,#470,#471,#472,#473,#474,#475,#476,#477,#478,#479),#1186);
#11=ITEM_DEFINED_TRANSFORMATION($,$,#523,#589);
#12=(
REPRESENTATION_RELATIONSHIP($,$,#1197,#1196)
REPRESENTATION_RELATIONSHIP_WITH_TRANSFORMATION(#11)
SHAPE_REPRESENTATION_RELATIONSHIP()
);
#13=CONTEXT_DEPENDENT_SHAPE_REPRESENTATION(#12,#1195);
#14=NEXT_ASSEMBLY_USAGE_OCCURRENCE('MTransCF40:1','MTransCF40:1',
'MTransCF40:1',#1199,#1200,'MTransCF40:1');
#15=SHAPE_REPRESENTATION_RELATIONSHIP('SRR','None',#1197,#16);
#16=ADVANCED_BREP_SHAPE_REPRESENTATION('',(#17),#1185);
#17=MANIFOLD_SOLID_BREP('Body1',#509);
#18=CONICAL_SURFACE('',#554,1.2295,1.02974425867665);
#19=CONICAL_SURFACE('',#573,0.7835,1.02974425867665);
#20=CONICAL_SURFACE('',#577,0.7835,1.02974425867665);
#21=FACE_BOUND('',#88,.T.);
#22=FACE_BOUND('',#91,.T.);
#23=FACE_BOUND('',#95,.T.);
#24=FACE_BOUND('',#96,.T.);
#25=FACE_BOUND('',#97,.T.);
#26=FACE_BOUND('',#99,.T.);
#27=FACE_BOUND('',#101,.T.);
#28=FACE_BOUND('',#102,.T.);
#29=FACE_BOUND('',#103,.T.);
#30=FACE_BOUND('',#104,.T.);
#31=FACE_BOUND('',#105,.T.);
#32=FACE_BOUND('',#106,.T.);
#33=FACE_BOUND('',#107,.T.);
#34=FACE_BOUND('',#110,.T.);
#35=FACE_BOUND('',#111,.T.);
#36=FACE_BOUND('',#112,.T.);
#37=FACE_BOUND('',#113,.T.);
#38=FACE_BOUND('',#114,.T.);
#39=FACE_BOUND('',#115,.T.);
#40=FACE_BOUND('',#116,.T.);
#41=FACE_BOUND('',#125,.T.);
#42=PLANE('',#545);
#43=PLANE('',#549);
#44=PLANE('',#555);
#45=PLANE('',#558);
#46=PLANE('',#560);
#47=PLANE('',#566);
#48=PLANE('',#581);
#49=PLANE('',#585);
#50=PLANE('',#588);
#51=FACE_OUTER_BOUND('',#80,.T.);
#52=FACE_OUTER_BOUND('',#81,.T.);
#53=FACE_OUTER_BOUND('',#82,.T.);
#54=FACE_OUTER_BOUND('',#83,.T.);
#55=FACE_OUTER_BOUND('',#84,.T.);
#56=FACE_OUTER_BOUND('',#85,.T.);
#57=FACE_OUTER_BOUND('',#86,.T.);
#58=FACE_OUTER_BOUND('',#87,.T.);
#59=FACE_OUTER_BOUND('',#89,.T.);
#60=FACE_OUTER_BOUND('',#90,.T.);
#61=FACE_OUTER_BOUND('',#92,.T.);
#62=FACE_OUTER_BOUND('',#93,.T.);
#63=FACE_OUTER_BOUND('',#94,.T.);
#64=FACE_OUTER_BOUND('',#98,.T.);
#65=FACE_OUTER_BOUND('',#100,.T.);
#66=FACE_OUTER_BOUND('',#108,.T.);
#67=FACE_OUTER_BOUND('',#109,.T.);
#68=FACE_OUTER_BOUND('',#117,.T.);
#69=FACE_OUTER_BOUND('',#118,.T.);
#70=FACE_OUTER_BOUND('',#119,.T.);
#71=FACE_OUTER_BOUND('',#120,.T.);
#72=FACE_OUTER_BOUND('',#121,.T.);
#73=FACE_OUTER_BOUND('',#122,.T.);
#74=FACE_OUTER_BOUND('',#123,.T.);
#75=FACE_OUTER_BOUND('',#124,.T.);
#76=FACE_OUTER_BOUND('',#126,.T.);
#77=FACE_OUTER_BOUND('',#127,.T.);
#78=FACE_OUTER_BOUND('',#128,.T.);
#79=FACE_OUTER_BOUND('',#129,.T.);
#80=EDGE_LOOP('',(#313,#314,#315,#316,#317,#318,#319,#320,#321));
#81=EDGE_LOOP('',(#322,#323,#324,#325));
#82=EDGE_LOOP('',(#326,#327,#328,#329));
#83=EDGE_LOOP('',(#330,#331,#332,#333));
#84=EDGE_LOOP('',(#334,#335,#336,#337));
#85=EDGE_LOOP('',(#338,#339,#340,#341));
#86=EDGE_LOOP('',(#342,#343,#344,#345));
#87=EDGE_LOOP('',(#346));
#88=EDGE_LOOP('',(#347));
#89=EDGE_LOOP('',(#348,#349,#350,#351));
#90=EDGE_LOOP('',(#352));
#91=EDGE_LOOP('',(#353));
#92=EDGE_LOOP('',(#354,#355,#356,#357,#358));
#93=EDGE_LOOP('',(#359,#360,#361,#362));
#94=EDGE_LOOP('',(#363));
#95=EDGE_LOOP('',(#364));
#96=EDGE_LOOP('',(#365));
#97=EDGE_LOOP('',(#366));
#98=EDGE_LOOP('',(#367));
#99=EDGE_LOOP('',(#368));
#100=EDGE_LOOP('',(#369));
#101=EDGE_LOOP('',(#370));
#102=EDGE_LOOP('',(#371));
#103=EDGE_LOOP('',(#372));
#104=EDGE_LOOP('',(#373));
#105=EDGE_LOOP('',(#374));
#106=EDGE_LOOP('',(#375));
#107=EDGE_LOOP('',(#376));
#108=EDGE_LOOP('',(#377,#378,#379,#380));
#109=EDGE_LOOP('',(#381));
#110=EDGE_LOOP('',(#382));
#111=EDGE_LOOP('',(#383));
#112=EDGE_LOOP('',(#384));
#113=EDGE_LOOP('',(#385));
#114=EDGE_LOOP('',(#386));
#115=EDGE_LOOP('',(#387));
#116=EDGE_LOOP('',(#388));
#117=EDGE_LOOP('',(#389,#390,#391,#392));
#118=EDGE_LOOP('',(#393,#394,#395,#396,#397));
#119=EDGE_LOOP('',(#398,#399,#400,#401));
#120=EDGE_LOOP('',(#402,#403,#404,#405,#406));
#121=EDGE_LOOP('',(#407,#408,#409,#410));
#122=EDGE_LOOP('',(#411,#412,#413,#414));
#123=EDGE_LOOP('',(#415,#416,#417,#418,#419,#420));
#124=EDGE_LOOP('',(#421));
#125=EDGE_LOOP('',(#422));
#126=EDGE_LOOP('',(#423,#424,#425,#426));
#127=EDGE_LOOP('',(#427));
#128=EDGE_LOOP('',(#428,#429,#430,#431));
#129=EDGE_LOOP('',(#432));
#130=B_SPLINE_CURVE_WITH_KNOTS('',3,(#755,#756,#757,#758,#759,#760,#761,
#762,#763,#764,#765,#766,#767,#768,#769,#770,#771,#772,#773,#774,#775,#776,
#777,#778,#779,#780,#781,#782,#783,#784,#785,#786,#787,#788,#789,#790,#791,
#792,#793,#794,#795,#796,#797,#798,#799,#800,#801,#802,#803,#804,#805,#806,
#807,#808,#809,#810,#811,#812,#813,#814,#815,#816,#817,#818,#819,#820,#821,
#822,#823,#824,#825,#826,#827,#828,#829,#830,#831,#832,#833),
 .UNSPECIFIED.,.F.,.F.,(4,3,3,3,3,3,3,3,3,3,3,3,3,3,3,3,3,3,3,3,3,3,3,3,
3,3,4),(0.750157872662902,0.753906249999362,0.757812499999372,0.765624999999393,
0.781249999999435,0.796874999999477,0.804687499999495,0.808593749999499,
0.812499999999503,0.82812499999952,0.843749999999536,0.851562499999537,
0.85546874999953,0.859374999999523,0.874999999999493,0.890624999999464,
0.906249999999435,0.910156249999438,0.914062499999442,0.921874999999472,
0.937499999999531,0.953124999999591,0.96093749999962,0.964843749999648,
0.968749999999676,0.984374999999838,1.),.UNSPECIFIED.);
#131=B_SPLINE_CURVE_WITH_KNOTS('',3,(#835,#836,#837,#838,#839,#840,#841,
#842,#843,#844,#845,#846,#847,#848,#849,#850,#851,#852,#853,#854,#855,#856,
#857,#858,#859,#860,#861,#862,#863,#864,#865,#866,#867,#868,#869,#870,#871,
#872,#873,#874,#875,#876,#877,#878,#879,#880,#881,#882,#883,#884,#885,#886,
#887,#888,#889,#890,#891,#892,#893,#894,#895,#896,#897,#898,#899,#900,#901,
#902,#903,#904,#905,#906,#907),.UNSPECIFIED.,.F.,.F.,(4,3,3,3,3,3,3,3,3,
3,3,3,3,3,3,3,3,3,3,3,3,3,3,3,4),(0.,0.0156249999998701,0.0312499999997403,
0.0468749999996104,0.0507812499995842,0.0546874999995581,0.0624999999995305,
0.0781249999994754,0.0937499999994202,0.101562499999393,0.105468749999368,
0.109374999999344,0.124999999999246,0.140624999999149,0.156249999999051,
0.160156249999027,0.164062499999002,0.171874999998967,0.187499999998896,
0.203124999998826,0.210937499998795,0.218749999998763,0.234374999998706,
0.249999999998648,0.250085598981885),.UNSPECIFIED.);
#132=B_SPLINE_CURVE_WITH_KNOTS('',3,(#911,#912,#913,#914,#915,#916,#917,
#918,#919,#920,#921,#922,#923,#924,#925,#926,#927,#928,#929,#930,#931,#932,
#933,#934,#935,#936,#937,#938,#939,#940,#941,#942,#943,#944,#945,#946,#947,
#948,#949,#950,#951,#952,#953,#954,#955,#956,#957,#958,#959,#960,#961,#962,
#963,#964,#965,#966,#967,#968,#969,#970,#971,#972,#973,#974,#975,#976,#977,
#978,#979,#980,#981,#982,#983,#984,#985,#986,#987,#988,#989,#990,#991,#992,
#993,#994,#995,#996,#997,#998,#999,#1000,#1001,#1002,#1003,#1004,#1005,
#1006,#1007,#1008,#1009,#1010,#1011,#1012,#1013,#1014,#1015,#1016,#1017,
#1018,#1019,#1020,#1021,#1022,#1023,#1024,#1025,#1026,#1027,#1028,#1029,
#1030,#1031,#1032,#1033,#1034,#1035,#1036,#1037,#1038,#1039,#1040,#1041,
#1042,#1043,#1044,#1045,#1046,#1047,#1048,#1049,#1050,#1051,#1052,#1053,
#1054,#1055,#1056,#1057,#1058,#1059,#1060,#1061),.UNSPECIFIED.,.F.,.F.,
(4,3,3,3,3,3,3,3,3,3,3,3,3,3,3,3,3,3,3,3,3,3,3,3,3,3,3,3,3,3,3,3,3,3,3,
3,3,3,3,3,3,3,3,3,3,3,3,3,3,3,4),(0.250085598981885,0.265624999998591,0.269531249998576,
0.273437499998562,0.281249999998533,0.296874999998475,0.312499999998418,
0.320312499998384,0.324218749998361,0.328124999998339,0.343749999998248,
0.359374999998158,0.374999999998068,0.37890624999805,0.382812499998032,
0.390624999998016,0.406249999998004,0.421874999997992,0.429687499997997,
0.437499999998003,0.453124999998039,0.468749999998075,0.476562499998093,
0.480468749998115,0.484374999998137,0.499999999998277,0.515624999998417,
0.531249999998558,0.535156249998593,0.539062499998628,0.546874999998672,
0.562499999998736,0.5781249999988,0.585937499998832,0.589843749998848,0.593749999998864,
0.609374999998928,0.624999999998991,0.640624999999055,0.644531249999067,
0.648437499999079,0.656249999999102,0.671874999999149,0.687499999999196,
0.695312499999215,0.69921874999922,0.703124999999224,0.718749999999267,
0.734374999999309,0.749999999999351,0.750157872662902),.UNSPECIFIED.);
#133=LINE('',#753,#154);
#134=LINE('',#909,#155);
#135=LINE('',#1066,#156);
#136=LINE('',#1072,#157);
#137=LINE('',#1078,#158);
#138=LINE('',#1084,#159);
#139=LINE('',#1090,#160);
#140=LINE('',#1096,#161);
#141=LINE('',#1103,#162);
#142=LINE('',#1110,#163);
#143=LINE('',#1116,#164);
#144=LINE('',#1134,#165);
#145=LINE('',#1142,#166);
#146=LINE('',#1145,#167);
#147=LINE('',#1151,#168);
#148=LINE('',#1154,#169);
#149=LINE('',#1160,#170);
#150=LINE('',#1162,#171);
#151=LINE('',#1166,#172);
#152=LINE('',#1173,#173);
#153=LINE('',#1178,#174);
#154=VECTOR('',#598,17.5);
#155=VECTOR('',#599,17.5);
#156=VECTOR('',#606,2.2);
#157=VECTOR('',#613,2.2);
#158=VECTOR('',#620,2.2);
#159=VECTOR('',#627,2.2);
#160=VECTOR('',#634,2.2);
#161=VECTOR('',#641,9.575);
#162=VECTOR('',#650,3.);
#163=VECTOR('',#659,1.2295);
#164=VECTOR('',#666,1.2295);
#165=VECTOR('',#687,17.);
#166=VECTOR('',#698,9.575);
#167=VECTOR('',#701,0.7835);
#168=VECTOR('',#708,0.7835);
#169=VECTOR('',#711,0.7835);
#170=VECTOR('',#718,0.7835);
#171=VECTOR('',#721,2.2);
#172=VECTOR('',#726,0.999999999999989);
#173=VECTOR('',#735,2.5);
#174=VECTOR('',#742,2.);
#175=CIRCLE('',#525,17.5);
#176=CIRCLE('',#526,17.5);
#177=CIRCLE('',#528,2.2);
#178=CIRCLE('',#529,2.2);
#179=CIRCLE('',#531,2.2);
#180=CIRCLE('',#532,2.2);
#181=CIRCLE('',#534,2.2);
#182=CIRCLE('',#535,2.2);
#183=CIRCLE('',#537,2.2);
#184=CIRCLE('',#538,2.2);
#185=CIRCLE('',#540,2.2);
#186=CIRCLE('',#541,2.2);
#187=CIRCLE('',#543,9.575);
#188=CIRCLE('',#544,9.575);
#189=CIRCLE('',#546,3.);
#190=CIRCLE('',#548,3.);
#191=CIRCLE('',#550,1.2295);
#192=CIRCLE('',#552,1.2295);
#193=CIRCLE('',#553,1.2295);
#194=CIRCLE('',#556,0.7835);
#195=CIRCLE('',#557,0.7835);
#196=CIRCLE('',#559,9.575);
#197=CIRCLE('',#561,17.);
#198=CIRCLE('',#562,2.);
#199=CIRCLE('',#563,2.2);
#200=CIRCLE('',#565,17.);
#201=CIRCLE('',#567,2.2);
#202=CIRCLE('',#568,9.575);
#203=CIRCLE('',#571,0.7835);
#204=CIRCLE('',#572,0.7835);
#205=CIRCLE('',#575,0.7835);
#206=CIRCLE('',#576,0.7835);
#207=CIRCLE('',#580,0.99999999999999);
#208=CIRCLE('',#582,2.5);
#209=CIRCLE('',#584,2.5);
#210=CIRCLE('',#587,2.);
#211=VERTEX_POINT('',#750);
#212=VERTEX_POINT('',#752);
#213=VERTEX_POINT('',#754);
#214=VERTEX_POINT('',#834);
#215=VERTEX_POINT('',#908);
#216=VERTEX_POINT('',#1063);
#217=VERTEX_POINT('',#1065);
#218=VERTEX_POINT('',#1069);
#219=VERTEX_POINT('',#1071);
#220=VERTEX_POINT('',#1075);
#221=VERTEX_POINT('',#1077);
#222=VERTEX_POINT('',#1081);
#223=VERTEX_POINT('',#1083);
#224=VERTEX_POINT('',#1087);
#225=VERTEX_POINT('',#1089);
#226=VERTEX_POINT('',#1093);
#227=VERTEX_POINT('',#1095);
#228=VERTEX_POINT('',#1099);
#229=VERTEX_POINT('',#1102);
#230=VERTEX_POINT('',#1106);
#231=VERTEX_POINT('',#1109);
#232=VERTEX_POINT('',#1111);
#233=VERTEX_POINT('',#1115);
#234=VERTEX_POINT('',#1118);
#235=VERTEX_POINT('',#1120);
#236=VERTEX_POINT('',#1123);
#237=VERTEX_POINT('',#1126);
#238=VERTEX_POINT('',#1128);
#239=VERTEX_POINT('',#1130);
#240=VERTEX_POINT('',#1133);
#241=VERTEX_POINT('',#1137);
#242=VERTEX_POINT('',#1139);
#243=VERTEX_POINT('',#1144);
#244=VERTEX_POINT('',#1146);
#245=VERTEX_POINT('',#1150);
#246=VERTEX_POINT('',#1153);
#247=VERTEX_POINT('',#1155);
#248=VERTEX_POINT('',#1159);
#249=VERTEX_POINT('',#1164);
#250=VERTEX_POINT('',#1168);
#251=VERTEX_POINT('',#1171);
#252=VERTEX_POINT('',#1176);
#253=EDGE_CURVE('',#211,#211,#175,.T.);
#254=EDGE_CURVE('',#211,#212,#133,.T.);
#255=EDGE_CURVE('',#212,#213,#130,.T.);
#256=EDGE_CURVE('',#213,#214,#131,.T.);
#257=EDGE_CURVE('',#214,#215,#134,.T.);
#258=EDGE_CURVE('',#215,#215,#176,.T.);
#259=EDGE_CURVE('',#214,#212,#132,.T.);
#260=EDGE_CURVE('',#216,#216,#177,.T.);
#261=EDGE_CURVE('',#216,#217,#135,.T.);
#262=EDGE_CURVE('',#217,#217,#178,.T.);
#263=EDGE_CURVE('',#218,#218,#179,.T.);
#264=EDGE_CURVE('',#218,#219,#136,.T.);
#265=EDGE_CURVE('',#219,#219,#180,.T.);
#266=EDGE_CURVE('',#220,#220,#181,.T.);
#267=EDGE_CURVE('',#220,#221,#137,.T.);
#268=EDGE_CURVE('',#221,#221,#182,.T.);
#269=EDGE_CURVE('',#222,#222,#183,.T.);
#270=EDGE_CURVE('',#222,#223,#138,.T.);
#271=EDGE_CURVE('',#223,#223,#184,.T.);
#272=EDGE_CURVE('',#224,#224,#185,.T.);
#273=EDGE_CURVE('',#224,#225,#139,.T.);
#274=EDGE_CURVE('',#225,#225,#186,.T.);
#275=EDGE_CURVE('',#226,#226,#187,.F.);
#276=EDGE_CURVE('',#226,#227,#140,.T.);
#277=EDGE_CURVE('',#227,#227,#188,.T.);
#278=EDGE_CURVE('',#228,#228,#189,.T.);
#279=EDGE_CURVE('',#228,#229,#141,.T.);
#280=EDGE_CURVE('',#229,#229,#190,.T.);
#281=EDGE_CURVE('',#230,#230,#191,.T.);
#282=EDGE_CURVE('',#230,#231,#142,.T.);
#283=EDGE_CURVE('',#231,#232,#192,.T.);
#284=EDGE_CURVE('',#232,#231,#193,.T.);
#285=EDGE_CURVE('',#233,#232,#143,.T.);
#286=EDGE_CURVE('',#234,#234,#194,.T.);
#287=EDGE_CURVE('',#235,#235,#195,.T.);
#288=EDGE_CURVE('',#236,#236,#196,.F.);
#289=EDGE_CURVE('',#237,#237,#197,.T.);
#290=EDGE_CURVE('',#238,#238,#198,.T.);
#291=EDGE_CURVE('',#239,#239,#199,.T.);
#292=EDGE_CURVE('',#237,#240,#144,.T.);
#293=EDGE_CURVE('',#240,#240,#200,.T.);
#294=EDGE_CURVE('',#241,#241,#201,.T.);
#295=EDGE_CURVE('',#242,#242,#202,.T.);
#296=EDGE_CURVE('',#242,#236,#145,.T.);
#297=EDGE_CURVE('',#235,#243,#146,.T.);
#298=EDGE_CURVE('',#243,#244,#203,.T.);
#299=EDGE_CURVE('',#244,#243,#204,.T.);
#300=EDGE_CURVE('',#245,#244,#147,.T.);
#301=EDGE_CURVE('',#234,#246,#148,.T.);
#302=EDGE_CURVE('',#246,#247,#205,.T.);
#303=EDGE_CURVE('',#247,#246,#206,.T.);
#304=EDGE_CURVE('',#248,#247,#149,.T.);
#305=EDGE_CURVE('',#241,#239,#150,.T.);
#306=EDGE_CURVE('',#249,#249,#207,.T.);
#307=EDGE_CURVE('',#249,#214,#151,.T.);
#308=EDGE_CURVE('',#250,#250,#208,.T.);
#309=EDGE_CURVE('',#251,#251,#209,.T.);
#310=EDGE_CURVE('',#251,#250,#152,.T.);
#311=EDGE_CURVE('',#252,#252,#210,.T.);
#312=EDGE_CURVE('',#252,#238,#153,.T.);
#313=ORIENTED_EDGE('',*,*,#253,.F.);
#314=ORIENTED_EDGE('',*,*,#254,.T.);
#315=ORIENTED_EDGE('',*,*,#255,.T.);
#316=ORIENTED_EDGE('',*,*,#256,.T.);
#317=ORIENTED_EDGE('',*,*,#257,.T.);
#318=ORIENTED_EDGE('',*,*,#258,.T.);
#319=ORIENTED_EDGE('',*,*,#257,.F.);
#320=ORIENTED_EDGE('',*,*,#259,.T.);
#321=ORIENTED_EDGE('',*,*,#254,.F.);
#322=ORIENTED_EDGE('',*,*,#260,.T.);
#323=ORIENTED_EDGE('',*,*,#261,.T.);
#324=ORIENTED_EDGE('',*,*,#262,.T.);
#325=ORIENTED_EDGE('',*,*,#261,.F.);
#326=ORIENTED_EDGE('',*,*,#263,.T.);
#327=ORIENTED_EDGE('',*,*,#264,.T.);
#328=ORIENTED_EDGE('',*,*,#265,.T.);
#329=ORIENTED_EDGE('',*,*,#264,.F.);
#330=ORIENTED_EDGE('',*,*,#266,.T.);
#331=ORIENTED_EDGE('',*,*,#267,.T.);
#332=ORIENTED_EDGE('',*,*,#268,.T.);
#333=ORIENTED_EDGE('',*,*,#267,.F.);
#334=ORIENTED_EDGE('',*,*,#269,.T.);
#335=ORIENTED_EDGE('',*,*,#270,.T.);
#336=ORIENTED_EDGE('',*,*,#271,.T.);
#337=ORIENTED_EDGE('',*,*,#270,.F.);
#338=ORIENTED_EDGE('',*,*,#272,.T.);
#339=ORIENTED_EDGE('',*,*,#273,.T.);
#340=ORIENTED_EDGE('',*,*,#274,.T.);
#341=ORIENTED_EDGE('',*,*,#273,.F.);
#342=ORIENTED_EDGE('',*,*,#275,.F.);
#343=ORIENTED_EDGE('',*,*,#276,.T.);
#344=ORIENTED_EDGE('',*,*,#277,.T.);
#345=ORIENTED_EDGE('',*,*,#276,.F.);
#346=ORIENTED_EDGE('',*,*,#277,.F.);
#347=ORIENTED_EDGE('',*,*,#278,.T.);
#348=ORIENTED_EDGE('',*,*,#278,.F.);
#349=ORIENTED_EDGE('',*,*,#279,.T.);
#350=ORIENTED_EDGE('',*,*,#280,.T.);
#351=ORIENTED_EDGE('',*,*,#279,.F.);
#352=ORIENTED_EDGE('',*,*,#280,.F.);
#353=ORIENTED_EDGE('',*,*,#281,.T.);
#354=ORIENTED_EDGE('',*,*,#281,.F.);
#355=ORIENTED_EDGE('',*,*,#282,.T.);
#356=ORIENTED_EDGE('',*,*,#283,.T.);
#357=ORIENTED_EDGE('',*,*,#284,.T.);
#358=ORIENTED_EDGE('',*,*,#282,.F.);
#359=ORIENTED_EDGE('',*,*,#285,.T.);
#360=ORIENTED_EDGE('',*,*,#283,.F.);
#361=ORIENTED_EDGE('',*,*,#284,.F.);
#362=ORIENTED_EDGE('',*,*,#285,.F.);
#363=ORIENTED_EDGE('',*,*,#258,.F.);
#364=ORIENTED_EDGE('',*,*,#286,.T.);
#365=ORIENTED_EDGE('',*,*,#287,.T.);
#366=ORIENTED_EDGE('',*,*,#275,.T.);
#367=ORIENTED_EDGE('',*,*,#253,.T.);
#368=ORIENTED_EDGE('',*,*,#288,.T.);
#369=ORIENTED_EDGE('',*,*,#289,.T.);
#370=ORIENTED_EDGE('',*,*,#290,.F.);
#371=ORIENTED_EDGE('',*,*,#262,.F.);
#372=ORIENTED_EDGE('',*,*,#265,.F.);
#373=ORIENTED_EDGE('',*,*,#268,.F.);
#374=ORIENTED_EDGE('',*,*,#271,.F.);
#375=ORIENTED_EDGE('',*,*,#274,.F.);
#376=ORIENTED_EDGE('',*,*,#291,.F.);
#377=ORIENTED_EDGE('',*,*,#289,.F.);
#378=ORIENTED_EDGE('',*,*,#292,.T.);
#379=ORIENTED_EDGE('',*,*,#293,.T.);
#380=ORIENTED_EDGE('',*,*,#292,.F.);
#381=ORIENTED_EDGE('',*,*,#293,.F.);
#382=ORIENTED_EDGE('',*,*,#260,.F.);
#383=ORIENTED_EDGE('',*,*,#263,.F.);
#384=ORIENTED_EDGE('',*,*,#266,.F.);
#385=ORIENTED_EDGE('',*,*,#269,.F.);
#386=ORIENTED_EDGE('',*,*,#272,.F.);
#387=ORIENTED_EDGE('',*,*,#294,.F.);
#388=ORIENTED_EDGE('',*,*,#295,.T.);
#389=ORIENTED_EDGE('',*,*,#295,.F.);
#390=ORIENTED_EDGE('',*,*,#296,.T.);
#391=ORIENTED_EDGE('',*,*,#288,.F.);
#392=ORIENTED_EDGE('',*,*,#296,.F.);
#393=ORIENTED_EDGE('',*,*,#287,.F.);
#394=ORIENTED_EDGE('',*,*,#297,.T.);
#395=ORIENTED_EDGE('',*,*,#298,.T.);
#396=ORIENTED_EDGE('',*,*,#299,.T.);
#397=ORIENTED_EDGE('',*,*,#297,.F.);
#398=ORIENTED_EDGE('',*,*,#300,.T.);
#399=ORIENTED_EDGE('',*,*,#298,.F.);
#400=ORIENTED_EDGE('',*,*,#299,.F.);
#401=ORIENTED_EDGE('',*,*,#300,.F.);
#402=ORIENTED_EDGE('',*,*,#286,.F.);
#403=ORIENTED_EDGE('',*,*,#301,.T.);
#404=ORIENTED_EDGE('',*,*,#302,.T.);
#405=ORIENTED_EDGE('',*,*,#303,.T.);
#406=ORIENTED_EDGE('',*,*,#301,.F.);
#407=ORIENTED_EDGE('',*,*,#304,.T.);
#408=ORIENTED_EDGE('',*,*,#302,.F.);
#409=ORIENTED_EDGE('',*,*,#303,.F.);
#410=ORIENTED_EDGE('',*,*,#304,.F.);
#411=ORIENTED_EDGE('',*,*,#294,.T.);
#412=ORIENTED_EDGE('',*,*,#305,.T.);
#413=ORIENTED_EDGE('',*,*,#291,.T.);
#414=ORIENTED_EDGE('',*,*,#305,.F.);
#415=ORIENTED_EDGE('',*,*,#306,.F.);
#416=ORIENTED_EDGE('',*,*,#307,.T.);
#417=ORIENTED_EDGE('',*,*,#256,.F.);
#418=ORIENTED_EDGE('',*,*,#255,.F.);
#419=ORIENTED_EDGE('',*,*,#259,.F.);
#420=ORIENTED_EDGE('',*,*,#307,.F.);
#421=ORIENTED_EDGE('',*,*,#308,.F.);
#422=ORIENTED_EDGE('',*,*,#306,.T.);
#423=ORIENTED_EDGE('',*,*,#309,.F.);
#424=ORIENTED_EDGE('',*,*,#310,.T.);
#425=ORIENTED_EDGE('',*,*,#308,.T.);
#426=ORIENTED_EDGE('',*,*,#310,.F.);
#427=ORIENTED_EDGE('',*,*,#309,.T.);
#428=ORIENTED_EDGE('',*,*,#311,.F.);
#429=ORIENTED_EDGE('',*,*,#312,.T.);
#430=ORIENTED_EDGE('',*,*,#290,.T.);
#431=ORIENTED_EDGE('',*,*,#312,.F.);
#432=ORIENTED_EDGE('',*,*,#311,.T.);
#433=CYLINDRICAL_SURFACE('',#524,17.5);
#434=CYLINDRICAL_SURFACE('',#527,2.2);
#435=CYLINDRICAL_SURFACE('',#530,2.2);
#436=CYLINDRICAL_SURFACE('',#533,2.2);
#437=CYLINDRICAL_SURFACE('',#536,2.2);
#438=CYLINDRICAL_SURFACE('',#539,2.2);
#439=CYLINDRICAL_SURFACE('',#542,9.575);
#440=CYLINDRICAL_SURFACE('',#547,3.);
#441=CYLINDRICAL_SURFACE('',#551,1.2295);
#442=CYLINDRICAL_SURFACE('',#564,17.);
#443=CYLINDRICAL_SURFACE('',#569,9.575);
#444=CYLINDRICAL_SURFACE('',#570,0.7835);
#445=CYLINDRICAL_SURFACE('',#574,0.7835);
#446=CYLINDRICAL_SURFACE('',#578,2.2);
#447=CYLINDRICAL_SURFACE('',#579,0.999999999999989);
#448=CYLINDRICAL_SURFACE('',#583,2.5);
#449=CYLINDRICAL_SURFACE('',#586,2.);
#450=STYLED_ITEM('',(#1211),#480);
#451=STYLED_ITEM('',(#1211),#481);
#452=STYLED_ITEM('',(#1211),#482);
#453=STYLED_ITEM('',(#1211),#483);
#454=STYLED_ITEM('',(#1211),#484);
#455=STYLED_ITEM('',(#1211),#485);
#456=STYLED_ITEM('',(#1211),#486);
#457=STYLED_ITEM('',(#1211),#487);
#458=STYLED_ITEM('',(#1211),#488);
#459=STYLED_ITEM('',(#1211),#489);
#460=STYLED_ITEM('',(#1212),#490);
#461=STYLED_ITEM('',(#1211),#491);
#462=STYLED_ITEM('',(#1211),#492);
#463=STYLED_ITEM('',(#1211),#493);
#464=STYLED_ITEM('',(#1211),#494);
#465=STYLED_ITEM('',(#1211),#495);
#466=STYLED_ITEM('',(#1211),#496);
#467=STYLED_ITEM('',(#1211),#497);
#468=STYLED_ITEM('',(#1212),#498);
#469=STYLED_ITEM('',(#1211),#499);
#470=STYLED_ITEM('',(#1212),#500);
#471=STYLED_ITEM('',(#1211),#501);
#472=STYLED_ITEM('',(#1211),#502);
#473=STYLED_ITEM('',(#1211),#503);
#474=STYLED_ITEM('',(#1211),#504);
#475=STYLED_ITEM('',(#1211),#505);
#476=STYLED_ITEM('',(#1211),#506);
#477=STYLED_ITEM('',(#1211),#507);
#478=STYLED_ITEM('',(#1211),#508);
#479=STYLED_ITEM('',(#1210),#17);
#480=ADVANCED_FACE('',(#51),#433,.T.);
#481=ADVANCED_FACE('',(#52),#434,.F.);
#482=ADVANCED_FACE('',(#53),#435,.F.);
#483=ADVANCED_FACE('',(#54),#436,.F.);
#484=ADVANCED_FACE('',(#55),#437,.F.);
#485=ADVANCED_FACE('',(#56),#438,.F.);
#486=ADVANCED_FACE('',(#57),#439,.T.);
#487=ADVANCED_FACE('',(#58,#21),#42,.T.);
#488=ADVANCED_FACE('',(#59),#440,.T.);
#489=ADVANCED_FACE('',(#60,#22),#43,.T.);
#490=ADVANCED_FACE('',(#61),#441,.F.);
#491=ADVANCED_FACE('',(#62),#18,.F.);
#492=ADVANCED_FACE('',(#63,#23,#24,#25),#44,.T.);
#493=ADVANCED_FACE('',(#64,#26),#45,.T.);
#494=ADVANCED_FACE('',(#65,#27,#28,#29,#30,#31,#32,#33),#46,.T.);
#495=ADVANCED_FACE('',(#66),#442,.T.);
#496=ADVANCED_FACE('',(#67,#34,#35,#36,#37,#38,#39,#40),#47,.T.);
#497=ADVANCED_FACE('',(#68),#443,.T.);
#498=ADVANCED_FACE('',(#69),#444,.F.);
#499=ADVANCED_FACE('',(#70),#19,.F.);
#500=ADVANCED_FACE('',(#71),#445,.F.);
#501=ADVANCED_FACE('',(#72),#20,.F.);
#502=ADVANCED_FACE('',(#73),#446,.F.);
#503=ADVANCED_FACE('',(#74),#447,.T.);
#504=ADVANCED_FACE('',(#75,#41),#48,.F.);
#505=ADVANCED_FACE('',(#76),#448,.T.);
#506=ADVANCED_FACE('',(#77),#49,.F.);
#507=ADVANCED_FACE('',(#78),#449,.T.);
#508=ADVANCED_FACE('',(#79),#50,.F.);
#509=CLOSED_SHELL('',(#480,#481,#482,#483,#484,#485,#486,#487,#488,#489,
#490,#491,#492,#493,#494,#495,#496,#497,#498,#499,#500,#501,#502,#503,#504,
#505,#506,#507,#508));
#510=DERIVED_UNIT_ELEMENT(#512,1.);
#511=DERIVED_UNIT_ELEMENT(#1188,-3.);
#512=(
MASS_UNIT()
NAMED_UNIT(*)
SI_UNIT(.KILO.,.GRAM.)
);
#513=DERIVED_UNIT((#510,#511));
#514=MEASURE_REPRESENTATION_ITEM('density measure',
POSITIVE_RATIO_MEASURE(7850.),#513);
#515=PROPERTY_DEFINITION_REPRESENTATION(#520,#517);
#516=PROPERTY_DEFINITION_REPRESENTATION(#521,#518);
#517=REPRESENTATION('material name',(#519),#1185);
#518=REPRESENTATION('density',(#514),#1185);
#519=DESCRIPTIVE_REPRESENTATION_ITEM('Steel','Steel');
#520=PROPERTY_DEFINITION('material property','material name',#1200);
#521=PROPERTY_DEFINITION('material property','density of part',#1200);
#522=AXIS2_PLACEMENT_3D('',#747,#590,#591);
#523=AXIS2_PLACEMENT_3D('',#748,#592,#593);
#524=AXIS2_PLACEMENT_3D('',#749,#594,#595);
#525=AXIS2_PLACEMENT_3D('',#751,#596,#597);
#526=AXIS2_PLACEMENT_3D('',#910,#600,#601);
#527=AXIS2_PLACEMENT_3D('',#1062,#602,#603);
#528=AXIS2_PLACEMENT_3D('',#1064,#604,#605);
#529=AXIS2_PLACEMENT_3D('',#1067,#607,#608);
#530=AXIS2_PLACEMENT_3D('',#1068,#609,#610);
#531=AXIS2_PLACEMENT_3D('',#1070,#611,#612);
#532=AXIS2_PLACEMENT_3D('',#1073,#614,#615);
#533=AXIS2_PLACEMENT_3D('',#1074,#616,#617);
#534=AXIS2_PLACEMENT_3D('',#1076,#618,#619);
#535=AXIS2_PLACEMENT_3D('',#1079,#621,#622);
#536=AXIS2_PLACEMENT_3D('',#1080,#623,#624);
#537=AXIS2_PLACEMENT_3D('',#1082,#625,#626);
#538=AXIS2_PLACEMENT_3D('',#1085,#628,#629);
#539=AXIS2_PLACEMENT_3D('',#1086,#630,#631);
#540=AXIS2_PLACEMENT_3D('',#1088,#632,#633);
#541=AXIS2_PLACEMENT_3D('',#1091,#635,#636);
#542=AXIS2_PLACEMENT_3D('',#1092,#637,#638);
#543=AXIS2_PLACEMENT_3D('',#1094,#639,#640);
#544=AXIS2_PLACEMENT_3D('',#1097,#642,#643);
#545=AXIS2_PLACEMENT_3D('',#1098,#644,#645);
#546=AXIS2_PLACEMENT_3D('',#1100,#646,#647);
#547=AXIS2_PLACEMENT_3D('',#1101,#648,#649);
#548=AXIS2_PLACEMENT_3D('',#1104,#651,#652);
#549=AXIS2_PLACEMENT_3D('',#1105,#653,#654);
#550=AXIS2_PLACEMENT_3D('',#1107,#655,#656);
#551=AXIS2_PLACEMENT_3D('',#1108,#657,#658);
#552=AXIS2_PLACEMENT_3D('',#1112,#660,#661);
#553=AXIS2_PLACEMENT_3D('',#1113,#662,#663);
#554=AXIS2_PLACEMENT_3D('',#1114,#664,#665);
#555=AXIS2_PLACEMENT_3D('',#1117,#667,#668);
#556=AXIS2_PLACEMENT_3D('',#1119,#669,#670);
#557=AXIS2_PLACEMENT_3D('',#1121,#671,#672);
#558=AXIS2_PLACEMENT_3D('',#1122,#673,#674);
#559=AXIS2_PLACEMENT_3D('',#1124,#675,#676);
#560=AXIS2_PLACEMENT_3D('',#1125,#677,#678);
#561=AXIS2_PLACEMENT_3D('',#1127,#679,#680);
#562=AXIS2_PLACEMENT_3D('',#1129,#681,#682);
#563=AXIS2_PLACEMENT_3D('',#1131,#683,#684);
#564=AXIS2_PLACEMENT_3D('',#1132,#685,#686);
#565=AXIS2_PLACEMENT_3D('',#1135,#688,#689);
#566=AXIS2_PLACEMENT_3D('',#1136,#690,#691);
#567=AXIS2_PLACEMENT_3D('',#1138,#692,#693);
#568=AXIS2_PLACEMENT_3D('',#1140,#694,#695);
#569=AXIS2_PLACEMENT_3D('',#1141,#696,#697);
#570=AXIS2_PLACEMENT_3D('',#1143,#699,#700);
#571=AXIS2_PLACEMENT_3D('',#1147,#702,#703);
#572=AXIS2_PLACEMENT_3D('',#1148,#704,#705);
#573=AXIS2_PLACEMENT_3D('',#1149,#706,#707);
#574=AXIS2_PLACEMENT_3D('',#1152,#709,#710);
#575=AXIS2_PLACEMENT_3D('',#1156,#712,#713);
#576=AXIS2_PLACEMENT_3D('',#1157,#714,#715);
#577=AXIS2_PLACEMENT_3D('',#1158,#716,#717);
#578=AXIS2_PLACEMENT_3D('',#1161,#719,#720);
#579=AXIS2_PLACEMENT_3D('',#1163,#722,#723);
#580=AXIS2_PLACEMENT_3D('',#1165,#724,#725);
#581=AXIS2_PLACEMENT_3D('',#1167,#727,#728);
#582=AXIS2_PLACEMENT_3D('',#1169,#729,#730);
#583=AXIS2_PLACEMENT_3D('',#1170,#731,#732);
#584=AXIS2_PLACEMENT_3D('',#1172,#733,#734);
#585=AXIS2_PLACEMENT_3D('',#1174,#736,#737);
#586=AXIS2_PLACEMENT_3D('',#1175,#738,#739);
#587=AXIS2_PLACEMENT_3D('',#1177,#740,#741);
#588=AXIS2_PLACEMENT_3D('',#1179,#743,#744);
#589=AXIS2_PLACEMENT_3D('',#1180,#745,#746);
#590=DIRECTION('axis',(0.,0.,1.));
#591=DIRECTION('refdir',(1.,0.,0.));
#592=DIRECTION('axis',(0.,0.,1.));
#593=DIRECTION('refdir',(1.,0.,0.));
#594=DIRECTION('center_axis',(-1.,0.,0.));
#595=DIRECTION('ref_axis',(0.,0.,1.));
#596=DIRECTION('center_axis',(-1.,0.,0.));
#597=DIRECTION('ref_axis',(0.,0.,1.));
#598=DIRECTION('',(1.,0.,0.));
#599=DIRECTION('',(1.,0.,0.));
#600=DIRECTION('center_axis',(-1.,0.,0.));
#601=DIRECTION('ref_axis',(0.,0.,1.));
#602=DIRECTION('center_axis',(-1.,0.,0.));
#603=DIRECTION('ref_axis',(0.,0.866025403784439,0.499999999999999));
#604=DIRECTION('center_axis',(1.,0.,0.));
#605=DIRECTION('ref_axis',(0.,-0.866025403784439,-0.499999999999999));
#606=DIRECTION('',(-1.,0.,0.));
#607=DIRECTION('center_axis',(-1.,0.,0.));
#608=DIRECTION('ref_axis',(0.,-0.499999999999999,0.866025403784439));
#609=DIRECTION('center_axis',(-1.,0.,0.));
#610=DIRECTION('ref_axis',(0.,0.866025403784438,-0.500000000000001));
#611=DIRECTION('center_axis',(1.,0.,0.));
#612=DIRECTION('ref_axis',(0.,-0.866025403784438,0.500000000000001));
#613=DIRECTION('',(-1.,0.,0.));
#614=DIRECTION('center_axis',(-1.,0.,0.));
#615=DIRECTION('ref_axis',(0.,0.500000000000001,0.866025403784438));
#616=DIRECTION('center_axis',(-1.,0.,0.));
#617=DIRECTION('ref_axis',(0.,-3.21624529935327E-16,-1.));
#618=DIRECTION('center_axis',(1.,0.,0.));
#619=DIRECTION('ref_axis',(0.,3.21624529935327E-16,1.));
#620=DIRECTION('',(-1.,0.,0.));
#621=DIRECTION('center_axis',(-1.,0.,0.));
#622=DIRECTION('ref_axis',(0.,1.,-3.21624529935327E-16));
#623=DIRECTION('center_axis',(-1.,0.,0.));
#624=DIRECTION('ref_axis',(0.,-0.866025403784439,-0.5));
#625=DIRECTION('center_axis',(1.,0.,0.));
#626=DIRECTION('ref_axis',(0.,0.866025403784439,0.5));
#627=DIRECTION('',(-1.,0.,0.));
#628=DIRECTION('center_axis',(-1.,0.,0.));
#629=DIRECTION('ref_axis',(0.,0.5,-0.866025403784439));
#630=DIRECTION('center_axis',(-1.,0.,0.));
#631=DIRECTION('ref_axis',(0.,-0.866025403784439,0.5));
#632=DIRECTION('center_axis',(1.,0.,0.));
#633=DIRECTION('ref_axis',(0.,0.866025403784439,-0.5));
#634=DIRECTION('',(-1.,0.,0.));
#635=DIRECTION('center_axis',(-1.,0.,0.));
#636=DIRECTION('ref_axis',(0.,-0.5,-0.866025403784439));
#637=DIRECTION('center_axis',(-1.,0.,0.));
#638=DIRECTION('ref_axis',(0.,0.,1.));
#639=DIRECTION('center_axis',(1.,0.,0.));
#640=DIRECTION('ref_axis',(0.,0.,-1.));
#641=DIRECTION('',(1.,0.,0.));
#642=DIRECTION('center_axis',(-1.,0.,0.));
#643=DIRECTION('ref_axis',(0.,0.,1.));
#644=DIRECTION('center_axis',(1.,0.,0.));
#645=DIRECTION('ref_axis',(0.,0.,-1.));
#646=DIRECTION('center_axis',(-1.,0.,0.));
#647=DIRECTION('ref_axis',(0.,0.,1.));
#648=DIRECTION('center_axis',(-1.,0.,0.));
#649=DIRECTION('ref_axis',(0.,0.,1.));
#650=DIRECTION('',(1.,0.,0.));
#651=DIRECTION('center_axis',(-1.,0.,0.));
#652=DIRECTION('ref_axis',(0.,0.,1.));
#653=DIRECTION('center_axis',(1.,0.,0.));
#654=DIRECTION('ref_axis',(0.,0.,-1.));
#655=DIRECTION('center_axis',(-1.,0.,0.));
#656=DIRECTION('ref_axis',(0.,0.,-1.));
#657=DIRECTION('center_axis',(-1.,0.,0.));
#658=DIRECTION('ref_axis',(0.,0.,-1.));
#659=DIRECTION('',(-1.,0.,0.));
#660=DIRECTION('center_axis',(-1.,0.,0.));
#661=DIRECTION('ref_axis',(0.,0.,1.));
#662=DIRECTION('center_axis',(-1.,0.,0.));
#663=DIRECTION('ref_axis',(0.,0.,1.));
#664=DIRECTION('center_axis',(1.,0.,0.));
#665=DIRECTION('ref_axis',(0.,0.,1.));
#666=DIRECTION('',(0.515038074910058,1.04972719113862E-16,-0.85716730070211));
#667=DIRECTION('center_axis',(1.,0.,0.));
#668=DIRECTION('ref_axis',(0.,0.,-1.));
#669=DIRECTION('center_axis',(-1.,0.,0.));
#670=DIRECTION('ref_axis',(0.,0.,-1.));
#671=DIRECTION('center_axis',(-1.,0.,0.));
#672=DIRECTION('ref_axis',(0.,0.,-1.));
#673=DIRECTION('center_axis',(-1.,0.,0.));
#674=DIRECTION('ref_axis',(0.,0.,1.));
#675=DIRECTION('center_axis',(-1.,0.,0.));
#676=DIRECTION('ref_axis',(0.,0.,1.));
#677=DIRECTION('center_axis',(-1.,0.,0.));
#678=DIRECTION('ref_axis',(0.,0.,1.));
#679=DIRECTION('center_axis',(-1.,0.,0.));
#680=DIRECTION('ref_axis',(0.,0.,1.));
#681=DIRECTION('center_axis',(-1.,0.,0.));
#682=DIRECTION('ref_axis',(0.,0.,1.));
#683=DIRECTION('center_axis',(-1.,0.,0.));
#684=DIRECTION('ref_axis',(0.,-1.,0.));
#685=DIRECTION('center_axis',(-1.,0.,0.));
#686=DIRECTION('ref_axis',(0.,0.,1.));
#687=DIRECTION('',(1.,0.,0.));
#688=DIRECTION('center_axis',(-1.,0.,0.));
#689=DIRECTION('ref_axis',(0.,0.,1.));
#690=DIRECTION('center_axis',(1.,0.,0.));
#691=DIRECTION('ref_axis',(0.,0.,-1.));
#692=DIRECTION('center_axis',(1.,0.,0.));
#693=DIRECTION('ref_axis',(0.,0.,-1.));
#694=DIRECTION('center_axis',(-1.,0.,0.));
#695=DIRECTION('ref_axis',(0.,0.,1.));
#696=DIRECTION('center_axis',(-1.,0.,0.));
#697=DIRECTION('ref_axis',(0.,0.,1.));
#698=DIRECTION('',(1.,0.,0.));
#699=DIRECTION('center_axis',(-1.,0.,0.));
#700=DIRECTION('ref_axis',(0.,0.,-1.));
#701=DIRECTION('',(-1.,0.,0.));
#702=DIRECTION('center_axis',(-1.,0.,0.));
#703=DIRECTION('ref_axis',(0.,0.,1.));
#704=DIRECTION('center_axis',(-1.,0.,0.));
#705=DIRECTION('ref_axis',(0.,0.,1.));
#706=DIRECTION('center_axis',(1.,0.,0.));
#707=DIRECTION('ref_axis',(0.,0.,1.));
#708=DIRECTION('',(0.515038074910058,1.04972719113862E-16,-0.85716730070211));
#709=DIRECTION('center_axis',(-1.,0.,0.));
#710=DIRECTION('ref_axis',(0.,0.,-1.));
#711=DIRECTION('',(-1.,0.,0.));
#712=DIRECTION('center_axis',(-1.,0.,0.));
#713=DIRECTION('ref_axis',(0.,0.,1.));
#714=DIRECTION('center_axis',(-1.,0.,0.));
#715=DIRECTION('ref_axis',(0.,0.,1.));
#716=DIRECTION('center_axis',(1.,0.,0.));
#717=DIRECTION('ref_axis',(0.,0.,1.));
#718=DIRECTION('',(0.515038074910058,1.04972719113862E-16,-0.85716730070211));
#719=DIRECTION('center_axis',(-1.,0.,0.));
#720=DIRECTION('ref_axis',(0.,0.,1.));
#721=DIRECTION('',(-1.,0.,0.));
#722=DIRECTION('center_axis',(0.,0.,-1.));
#723=DIRECTION('ref_axis',(-1.,0.,0.));
#724=DIRECTION('center_axis',(0.,0.,-1.));
#725=DIRECTION('ref_axis',(-1.,0.,0.));
#726=DIRECTION('',(0.,0.,1.));
#727=DIRECTION('center_axis',(0.,0.,-1.));
#728=DIRECTION('ref_axis',(-1.,0.,0.));
#729=DIRECTION('center_axis',(0.,0.,-1.));
#730=DIRECTION('ref_axis',(-1.,0.,0.));
#731=DIRECTION('center_axis',(0.,0.,-1.));
#732=DIRECTION('ref_axis',(-1.,0.,0.));
#733=DIRECTION('center_axis',(0.,0.,-1.));
#734=DIRECTION('ref_axis',(-1.,0.,0.));
#735=DIRECTION('',(0.,0.,1.));
#736=DIRECTION('center_axis',(0.,0.,1.));
#737=DIRECTION('ref_axis',(1.,0.,0.));
#738=DIRECTION('center_axis',(-1.,0.,0.));
#739=DIRECTION('ref_axis',(0.,0.,1.));
#740=DIRECTION('center_axis',(-1.,0.,0.));
#741=DIRECTION('ref_axis',(0.,0.,1.));
#742=DIRECTION('',(1.,0.,0.));
#743=DIRECTION('center_axis',(1.,0.,0.));
#744=DIRECTION('ref_axis',(0.,0.,-1.));
#745=DIRECTION('',(0.,0.,1.));
#746=DIRECTION('',(1.,0.,0.));
#747=CARTESIAN_POINT('',(0.,0.,0.));
#748=CARTESIAN_POINT('',(0.,0.,0.));
#749=CARTESIAN_POINT('Origin',(-60.,0.,0.));
#750=CARTESIAN_POINT('',(330.,-2.14313189850787E-15,-17.5));
#751=CARTESIAN_POINT('Origin',(330.,0.,0.));
#752=CARTESIAN_POINT('',(354.,-2.28136889888303E-15,-17.4999999998964));
#753=CARTESIAN_POINT('',(-60.,-2.14313189850787E-15,-17.5));
#754=CARTESIAN_POINT('',(354.999999972436,-0.999999999999989,-17.4714052170858));
#755=CARTESIAN_POINT('Ctrl Pts',(354.,-2.41960589927088E-15,-17.4999999998964));
#756=CARTESIAN_POINT('Ctrl Pts',(354.,-0.00791537790589291,-17.4999999983249));
#757=CARTESIAN_POINT('Ctrl Pts',(354.000094307529,-0.0158465115661566,-17.4999946102511));
#758=CARTESIAN_POINT('Ctrl Pts',(354.000282079113,-0.0237503401462578,-17.4999838835814));
#759=CARTESIAN_POINT('Ctrl Pts',(354.000477759185,-0.0319870590301297,-17.49997270513));
#760=CARTESIAN_POINT('Ctrl Pts',(354.000774843747,-0.040205657344709,-17.4999557363399));
#761=CARTESIAN_POINT('Ctrl Pts',(354.001172269936,-0.0484062563711967,-17.4999330519396));
#762=CARTESIAN_POINT('Ctrl Pts',(354.001967122316,-0.0648074544241749,-17.4998876831392));
#763=CARTESIAN_POINT('Ctrl Pts',(354.003163148655,-0.0811367059767604,-17.4998194518983));
#764=CARTESIAN_POINT('Ctrl Pts',(354.004754223126,-0.097395295652819,-17.4997289624243));
#765=CARTESIAN_POINT('Ctrl Pts',(354.007936372069,-0.129912475004934,-17.4995479834764));
#766=CARTESIAN_POINT('Ctrl Pts',(354.012695903659,-0.162147183161459,-17.499277971596));
#767=CARTESIAN_POINT('Ctrl Pts',(354.019018648421,-0.194102003736307,-17.498923521524));
#768=CARTESIAN_POINT('Ctrl Pts',(354.025341393183,-0.226056824311155,-17.4985690714519));
#769=CARTESIAN_POINT('Ctrl Pts',(354.03322726862,-0.257731767452003,-17.4981301831883));
#770=CARTESIAN_POINT('Ctrl Pts',(354.042707529563,-0.289121299881304,-17.4976115191176));
#771=CARTESIAN_POINT('Ctrl Pts',(354.047447660035,-0.304816066095948,-17.4973521870822));
#772=CARTESIAN_POINT('Ctrl Pts',(354.052587099062,-0.320439352517187,-17.4970729129858));
#773=CARTESIAN_POINT('Ctrl Pts',(354.058134322874,-0.335989652000985,-17.4967743013891));
#774=CARTESIAN_POINT('Ctrl Pts',(354.06090793478,-0.343764801742874,-17.4966249955907));
#775=CARTESIAN_POINT('Ctrl Pts',(354.063776274706,-0.351500861101065,-17.4964712485856));
#776=CARTESIAN_POINT('Ctrl Pts',(354.066732033446,-0.359180877280988,-17.4963135873778));
#777=CARTESIAN_POINT('Ctrl Pts',(354.069687792186,-0.36686089346091,-17.49615592617));
#778=CARTESIAN_POINT('Ctrl Pts',(354.072732911416,-0.374490339405007,-17.4959942310919));
#779=CARTESIAN_POINT('Ctrl Pts',(354.075866533247,-0.382069804652575,-17.495828706909));
#780=CARTESIAN_POINT('Ctrl Pts',(354.088401020573,-0.412387665642849,-17.4951666101778));
#781=CARTESIAN_POINT('Ctrl Pts',(354.102348092653,-0.441907166989395,-17.4944432477717));
#782=CARTESIAN_POINT('Ctrl Pts',(354.117677641017,-0.470645572420034,-17.4936700764923));
#783=CARTESIAN_POINT('Ctrl Pts',(354.133007189381,-0.499383977850672,-17.4928969052129));
#784=CARTESIAN_POINT('Ctrl Pts',(354.149719313617,-0.527341244655267,-17.4920739250602));
#785=CARTESIAN_POINT('Ctrl Pts',(354.167824225352,-0.554511929618009,-17.4912125514474));
#786=CARTESIAN_POINT('Ctrl Pts',(354.176876681219,-0.568097272099368,-17.490781864641));
#787=CARTESIAN_POINT('Ctrl Pts',(354.186277946541,-0.58148561516459,-17.4903415800193));
#788=CARTESIAN_POINT('Ctrl Pts',(354.196033156953,-0.594674125282589,-17.4898931578814));
#789=CARTESIAN_POINT('Ctrl Pts',(354.200910762159,-0.601268380341576,-17.4896689468125));
#790=CARTESIAN_POINT('Ctrl Pts',(354.205876891846,-0.607812649542016,-17.4894427013645));
#791=CARTESIAN_POINT('Ctrl Pts',(354.210932445211,-0.614306433287617,-17.4892146080383));
#792=CARTESIAN_POINT('Ctrl Pts',(354.215987998575,-0.620800217033218,-17.4889865147122));
#793=CARTESIAN_POINT('Ctrl Pts',(354.221138660417,-0.627250415999159,-17.4887563225506));
#794=CARTESIAN_POINT('Ctrl Pts',(354.226366448626,-0.633633275790453,-17.4885250535949));
#795=CARTESIAN_POINT('Ctrl Pts',(354.247277601465,-0.659164714955627,-17.4875999777719));
#796=CARTESIAN_POINT('Ctrl Pts',(354.269278031129,-0.683454461776237,-17.4866641336473));
#797=CARTESIAN_POINT('Ctrl Pts',(354.292331277756,-0.706544393197018,-17.4857311406953));
#798=CARTESIAN_POINT('Ctrl Pts',(354.315384524384,-0.729634324617801,-17.4847981477432));
#799=CARTESIAN_POINT('Ctrl Pts',(354.339490833181,-0.751524261772838,-17.4838680059638));
#800=CARTESIAN_POINT('Ctrl Pts',(354.364645259285,-0.772220404710134,-17.4829538593039));
#801=CARTESIAN_POINT('Ctrl Pts',(354.389799685389,-0.79291654764743,-17.4820397126441));
#802=CARTESIAN_POINT('Ctrl Pts',(354.416002129095,-0.812419002614416,-17.4811415611038));
#803=CARTESIAN_POINT('Ctrl Pts',(354.443278282076,-0.830699060304867,-17.4802728545984));
#804=CARTESIAN_POINT('Ctrl Pts',(354.450097320321,-0.835269074727493,-17.480055677972));
#805=CARTESIAN_POINT('Ctrl Pts',(354.456983621349,-0.839762511711199,-17.4798403445471));
#806=CARTESIAN_POINT('Ctrl Pts',(354.463937908686,-0.844178555908422,-17.4796270717011));
#807=CARTESIAN_POINT('Ctrl Pts',(354.470892196022,-0.848594600105646,-17.479413798855));
#808=CARTESIAN_POINT('Ctrl Pts',(354.47792372289,-0.852938628502192,-17.4792023205387));
#809=CARTESIAN_POINT('Ctrl Pts',(354.484989283782,-0.857183738868329,-17.4789941389788));
#810=CARTESIAN_POINT('Ctrl Pts',(354.499120405566,-0.865673959600628,-17.4785777758591));
#811=CARTESIAN_POINT('Ctrl Pts',(354.513405676785,-0.873781537516768,-17.4781739678074));
#812=CARTESIAN_POINT('Ctrl Pts',(354.527842356443,-0.881514129002067,-17.4777839598335));
#813=CARTESIAN_POINT('Ctrl Pts',(354.556715715759,-0.896979311972663,-17.4770039438856));
#814=CARTESIAN_POINT('Ctrl Pts',(354.586193252515,-0.910946991362535,-17.4762791282491));
#815=CARTESIAN_POINT('Ctrl Pts',(354.616264697612,-0.923443131817471,-17.4756188097103));
#816=CARTESIAN_POINT('Ctrl Pts',(354.646336142708,-0.935939272272408,-17.4749584911714));
#817=CARTESIAN_POINT('Ctrl Pts',(354.677001517586,-0.946963831577471,-17.4743626697304));
#818=CARTESIAN_POINT('Ctrl Pts',(354.708267775141,-0.956500030830433,-17.4738406680106));
#819=CARTESIAN_POINT('Ctrl Pts',(354.723900903918,-0.961268130456913,-17.4735796671507));
#820=CARTESIAN_POINT('Ctrl Pts',(354.739684059587,-0.965663359695868,-17.4733371608829));
#821=CARTESIAN_POINT('Ctrl Pts',(354.755620860515,-0.969679759603378,-17.4731142588112));
#822=CARTESIAN_POINT('Ctrl Pts',(354.763589260979,-0.97168795955714,-17.4730028077754));
#823=CARTESIAN_POINT('Ctrl Pts',(354.771596077065,-0.973601395985517,-17.4728962577885));
#824=CARTESIAN_POINT('Ctrl Pts',(354.779641378063,-0.975418924225904,-17.4727947942584));
#825=CARTESIAN_POINT('Ctrl Pts',(354.787686679061,-0.97723645246629,-17.4726933307283));
#826=CARTESIAN_POINT('Ctrl Pts',(354.795770537553,-0.978957771829974,-17.4725969536548));
#827=CARTESIAN_POINT('Ctrl Pts',(354.803856112797,-0.98057512486956,-17.4725061840901));
#828=CARTESIAN_POINT('Ctrl Pts',(354.836198413776,-0.987044537027926,-17.4721431058313));
#829=CARTESIAN_POINT('Ctrl Pts',(354.86871594501,-0.991888932967381,-17.4718678700605));
#830=CARTESIAN_POINT('Ctrl Pts',(354.901406437092,-0.995127785439182,-17.4716833960168));
#831=CARTESIAN_POINT('Ctrl Pts',(354.934096929175,-0.998366637910984,-17.471498921973));
#832=CARTESIAN_POINT('Ctrl Pts',(354.966960366515,-0.99999999908928,-17.4714052096561));
#833=CARTESIAN_POINT('Ctrl Pts',(354.999999972436,-0.999999999999989,-17.4714052170858));
#834=CARTESIAN_POINT('',(356.,-2.02097670891145E-15,-17.5000000000006));
#835=CARTESIAN_POINT('Ctrl Pts',(354.999999972436,-0.999999999999989,-17.4714052170858));
#836=CARTESIAN_POINT('Ctrl Pts',(355.033039578356,-1.00000000091069,-17.4714052245155));
#837=CARTESIAN_POINT('Ctrl Pts',(355.065800520312,-0.998366823093938,-17.4714989200649));
#838=CARTESIAN_POINT('Ctrl Pts',(355.09829240648,-0.995157576883376,-17.4716817133334));
#839=CARTESIAN_POINT('Ctrl Pts',(355.130784292648,-0.991948330672814,-17.4718645066019));
#840=CARTESIAN_POINT('Ctrl Pts',(355.163007133927,-0.987162691480804,-17.4721363975896));
#841=CARTESIAN_POINT('Ctrl Pts',(355.194962679266,-0.980810661490544,-17.4724929659825));
#842=CARTESIAN_POINT('Ctrl Pts',(355.226918224604,-0.974458631500283,-17.4728495343753));
#843=CARTESIAN_POINT('Ctrl Pts',(355.258606490258,-0.966540334083397,-17.4732907801735));
#844=CARTESIAN_POINT('Ctrl Pts',(355.290021457636,-0.957020143001407,-17.4738121898425));
#845=CARTESIAN_POINT('Ctrl Pts',(355.297875199481,-0.954640095230905,-17.4739425422598));
#846=CARTESIAN_POINT('Ctrl Pts',(355.305711820833,-0.952159697765851,-17.4740779040047));
#847=CARTESIAN_POINT('Ctrl Pts',(355.313531146502,-0.949577916851903,-17.4742182022495));
#848=CARTESIAN_POINT('Ctrl Pts',(355.321350472172,-0.946996135937955,-17.4743585004942));
#849=CARTESIAN_POINT('Ctrl Pts',(355.329162991673,-0.944309153562914,-17.4745039405882));
#850=CARTESIAN_POINT('Ctrl Pts',(355.336930046022,-0.941529683062362,-17.474653695447));
#851=CARTESIAN_POINT('Ctrl Pts',(355.352464154721,-0.935970742061241,-17.4749532051646));
#852=CARTESIAN_POINT('Ctrl Pts',(355.367797485141,-0.93005027269575,-17.4752695719263));
#853=CARTESIAN_POINT('Ctrl Pts',(355.382934437633,-0.923775522772955,-17.4756012667563));
#854=CARTESIAN_POINT('Ctrl Pts',(355.413208342618,-0.911226022927367,-17.4762646564164));
#855=CARTESIAN_POINT('Ctrl Pts',(355.442697703543,-0.897262084950413,-17.4769893583501));
#856=CARTESIAN_POINT('Ctrl Pts',(355.471417468645,-0.881910182646783,-17.4777639997153));
#857=CARTESIAN_POINT('Ctrl Pts',(355.500137233747,-0.866558280343152,-17.4785386410804));
#858=CARTESIAN_POINT('Ctrl Pts',(355.528087375522,-0.849818351242803,-17.479363221877));
#859=CARTESIAN_POINT('Ctrl Pts',(355.555260504091,-0.831676483133276,-17.4802263780365));
#860=CARTESIAN_POINT('Ctrl Pts',(355.568847068375,-0.822605549078511,-17.4806579561162));
#861=CARTESIAN_POINT('Ctrl Pts',(355.582239029005,-0.813183513824623,-17.4810991769192));
#862=CARTESIAN_POINT('Ctrl Pts',(355.595433323422,-0.803404728240037,-17.4815485828355));
#863=CARTESIAN_POINT('Ctrl Pts',(355.602030470631,-0.798515335447758,-17.4817732857936));
#864=CARTESIAN_POINT('Ctrl Pts',(355.608578173305,-0.793536716442279,-17.4820000350301));
#865=CARTESIAN_POINT('Ctrl Pts',(355.615075903044,-0.788467902640278,-17.4822286441548));
#866=CARTESIAN_POINT('Ctrl Pts',(355.621573632784,-0.783399088838276,-17.4824572532795));
#867=CARTESIAN_POINT('Ctrl Pts',(355.628026924914,-0.778235219381749,-17.4826879316072));
#868=CARTESIAN_POINT('Ctrl Pts',(355.634395460987,-0.77300866688461,-17.482919033105));
#869=CARTESIAN_POINT('Ctrl Pts',(355.659869605282,-0.752102456896058,-17.4838434390964));
#870=CARTESIAN_POINT('Ctrl Pts',(355.684116016788,-0.73010185356336,-17.484778679662));
#871=CARTESIAN_POINT('Ctrl Pts',(355.707172925092,-0.707040631093145,-17.4857111681498));
#872=CARTESIAN_POINT('Ctrl Pts',(355.730229833396,-0.683979408622928,-17.4866436566377));
#873=CARTESIAN_POINT('Ctrl Pts',(355.752097089958,-0.65985735042447,-17.4875733930478));
#874=CARTESIAN_POINT('Ctrl Pts',(355.772777771318,-0.634676702075084,-17.4884872268542));
#875=CARTESIAN_POINT('Ctrl Pts',(355.793458452678,-0.609496053725699,-17.4894010606606));
#876=CARTESIAN_POINT('Ctrl Pts',(355.812952695046,-0.583256942822575,-17.4902989918632));
#877=CARTESIAN_POINT('Ctrl Pts',(355.831228743665,-0.555930549353697,-17.4911675203314));
#878=CARTESIAN_POINT('Ctrl Pts',(355.83579775582,-0.549098950986477,-17.4913846524484));
#879=CARTESIAN_POINT('Ctrl Pts',(355.84029045238,-0.542199238197796,-17.4915999437745));
#880=CARTESIAN_POINT('Ctrl Pts',(355.844705967634,-0.535230630890828,-17.4918131756475));
#881=CARTESIAN_POINT('Ctrl Pts',(355.849121482888,-0.528262023583862,-17.4920264075205));
#882=CARTESIAN_POINT('Ctrl Pts',(355.853454209235,-0.521232834796949,-17.4922373130371));
#883=CARTESIAN_POINT('Ctrl Pts',(355.857686552914,-0.514172905693954,-17.4924448308127));
#884=CARTESIAN_POINT('Ctrl Pts',(355.866151240273,-0.500053047487938,-17.4928598663639));
#885=CARTESIAN_POINT('Ctrl Pts',(355.874236107097,-0.485776637321624,-17.4932624166124));
#886=CARTESIAN_POINT('Ctrl Pts',(355.881948235577,-0.47134627373306,-17.4936512311895));
#887=CARTESIAN_POINT('Ctrl Pts',(355.897372492539,-0.442485546555936,-17.4944288603435));
#888=CARTESIAN_POINT('Ctrl Pts',(355.911308231818,-0.413010448904561,-17.4951515468118));
#889=CARTESIAN_POINT('Ctrl Pts',(355.923777430875,-0.382929834573412,-17.495809919572));
#890=CARTESIAN_POINT('Ctrl Pts',(355.936246629931,-0.35284922024226,-17.4964682923323));
#891=CARTESIAN_POINT('Ctrl Pts',(355.947249282089,-0.322163085847503,-17.4970623513845));
#892=CARTESIAN_POINT('Ctrl Pts',(355.956764790413,-0.290862743962997,-17.4975826577323));
#893=CARTESIAN_POINT('Ctrl Pts',(355.961522544575,-0.275212573020736,-17.4978428109062));
#894=CARTESIAN_POINT('Ctrl Pts',(355.965907852766,-0.259408578257165,-17.4980845231822));
#895=CARTESIAN_POINT('Ctrl Pts',(355.969913962531,-0.24344795190634,-17.4983065779153));
#896=CARTESIAN_POINT('Ctrl Pts',(355.973920072296,-0.227487325555518,-17.4985286326483));
#897=CARTESIAN_POINT('Ctrl Pts',(355.977551571336,-0.211337663872507,-17.4987312909744));
#898=CARTESIAN_POINT('Ctrl Pts',(355.98076311594,-0.195201717237688,-17.4989112903637));
#899=CARTESIAN_POINT('Ctrl Pts',(355.987186205147,-0.162929823968033,-17.4992712891423));
#900=CARTESIAN_POINT('Ctrl Pts',(355.991974941523,-0.130570304964672,-17.4995429724503));
#901=CARTESIAN_POINT('Ctrl Pts',(355.99517403241,-0.0981256603392335,-17.4997248983561));
#902=CARTESIAN_POINT('Ctrl Pts',(355.998373123297,-0.0656810157137974,-17.4999068242618));
#903=CARTESIAN_POINT('Ctrl Pts',(355.99998237339,-0.0331511765435854,-17.4999989927653));
#904=CARTESIAN_POINT('Ctrl Pts',(355.999999856332,-0.000536037566092957,
-17.4999999917904));
#905=CARTESIAN_POINT('Ctrl Pts',(355.999999952109,-0.000357360911077607,
-17.4999999972634));
#906=CARTESIAN_POINT('Ctrl Pts',(356.,-0.000178681774548222,-17.5000000000002));
#907=CARTESIAN_POINT('Ctrl Pts',(356.,-1.89882151931497E-15,-17.5000000000006));
#908=CARTESIAN_POINT('',(365.,-2.14313189850787E-15,-17.5));
#909=CARTESIAN_POINT('',(-60.,-2.14313189850787E-15,-17.5));
#910=CARTESIAN_POINT('Origin',(365.,0.,0.));
#911=CARTESIAN_POINT('Ctrl Pts',(356.,-1.89882151931497E-15,-17.5000000000006));
#912=CARTESIAN_POINT('Ctrl Pts',(356.,0.032437391707872,-17.5000000000674));
#913=CARTESIAN_POINT('Ctrl Pts',(355.998425688522,0.0649591495912847,-17.4999098188803));
#914=CARTESIAN_POINT('Ctrl Pts',(355.995228876015,0.0975678448365738,-17.4997280126194));
#915=CARTESIAN_POINT('Ctrl Pts',(355.994425270468,0.105764924998446,-17.4996823106836));
#916=CARTESIAN_POINT('Ctrl Pts',(355.993517425537,0.113978874609889,-17.4996307350281));
#917=CARTESIAN_POINT('Ctrl Pts',(355.992509577132,0.122166850256856,-17.4995735739034));
#918=CARTESIAN_POINT('Ctrl Pts',(355.991501728726,0.130354825903824,-17.4995164127786));
#919=CARTESIAN_POINT('Ctrl Pts',(355.990394606529,0.138513815582314,-17.499453707814));
#920=CARTESIAN_POINT('Ctrl Pts',(355.989189322959,0.146644070265722,-17.4993855753992));
#921=CARTESIAN_POINT('Ctrl Pts',(355.986778755818,0.162904579632536,-17.4992493105695));
#922=CARTESIAN_POINT('Ctrl Pts',(355.983975732364,0.179050219350294,-17.4990913359388));
#923=CARTESIAN_POINT('Ctrl Pts',(355.980786717824,0.195083095476233,-17.4989125938967));
#924=CARTESIAN_POINT('Ctrl Pts',(355.974408688743,0.227148847728111,-17.4985551098124));
#925=CARTESIAN_POINT('Ctrl Pts',(355.966489481071,0.258763994939903,-17.4981145560821));
#926=CARTESIAN_POINT('Ctrl Pts',(355.957046706099,0.289933789587407,-17.4975980750975));
#927=CARTESIAN_POINT('Ctrl Pts',(355.947603931128,0.321103584234914,-17.4970815941129));
#928=CARTESIAN_POINT('Ctrl Pts',(355.93663763307,0.351828036260496,-17.4964891858738));
#929=CARTESIAN_POINT('Ctrl Pts',(355.924121189691,0.382099498514021,-17.4958280733789));
#930=CARTESIAN_POINT('Ctrl Pts',(355.917862968001,0.397235229640774,-17.4954975171315));
#931=CARTESIAN_POINT('Ctrl Pts',(355.911216519687,0.412257512126728,-17.4951497873762));
#932=CARTESIAN_POINT('Ctrl Pts',(355.904174112672,0.427164106607562,-17.4947858182381));
#933=CARTESIAN_POINT('Ctrl Pts',(355.900652909164,0.434617403847967,-17.4946038336691));
#934=CARTESIAN_POINT('Ctrl Pts',(355.897029766221,0.442046915893661,-17.4944176447482));
#935=CARTESIAN_POINT('Ctrl Pts',(355.893327206518,0.449406833609881,-17.4942285785881));
#936=CARTESIAN_POINT('Ctrl Pts',(355.889624646815,0.456766751326104,-17.494039512428));
#937=CARTESIAN_POINT('Ctrl Pts',(355.885838333851,0.464066636570173,-17.4938473257463));
#938=CARTESIAN_POINT('Ctrl Pts',(355.881969108322,0.471307216119432,-17.4936522447623));
#939=CARTESIAN_POINT('Ctrl Pts',(355.866492206202,0.500269534316464,-17.4928719208264));
#940=CARTESIAN_POINT('Ctrl Pts',(355.849692051054,0.528284621035685,-17.4920452880542));
#941=CARTESIAN_POINT('Ctrl Pts',(355.83159992247,0.555375160543027,-17.4911851189941));
#942=CARTESIAN_POINT('Ctrl Pts',(355.813507793885,0.582465700050371,-17.4903249499339));
#943=CARTESIAN_POINT('Ctrl Pts',(355.794123545187,0.608631652303303,-17.4894312445856));
#944=CARTESIAN_POINT('Ctrl Pts',(355.773440638358,0.633868739516015,-17.488516530028));
#945=CARTESIAN_POINT('Ctrl Pts',(355.75275773153,0.659105826728726,-17.4876018154705));
#946=CARTESIAN_POINT('Ctrl Pts',(355.730776414943,0.683414227401216,-17.4866660917035));
#947=CARTESIAN_POINT('Ctrl Pts',(355.707451396699,0.706761997640422,-17.4857223893865));
#948=CARTESIAN_POINT('Ctrl Pts',(355.701620142138,0.71259894020023,-17.4854864638072));
#949=CARTESIAN_POINT('Ctrl Pts',(355.695714876568,0.718365178748566,-17.4852504627164));
#950=CARTESIAN_POINT('Ctrl Pts',(355.689756605271,0.724041314763662,-17.4850154185776));
#951=CARTESIAN_POINT('Ctrl Pts',(355.683798333974,0.729717450778758,-17.4847803744387));
#952=CARTESIAN_POINT('Ctrl Pts',(355.677780936718,0.735309640752911,-17.4845460394421));
#953=CARTESIAN_POINT('Ctrl Pts',(355.671705050824,0.740818685439925,-17.4843126162181));
#954=CARTESIAN_POINT('Ctrl Pts',(355.659553279037,0.751836774813981,-17.4838457697701));
#955=CARTESIAN_POINT('Ctrl Pts',(355.647167652288,0.762522453866185,-17.4833825704124));
#956=CARTESIAN_POINT('Ctrl Pts',(355.634551388641,0.772880673308352,-17.4829246520446));
#957=CARTESIAN_POINT('Ctrl Pts',(355.609318861347,0.793597112192711,-17.482008815309));
#958=CARTESIAN_POINT('Ctrl Pts',(355.583165646166,0.813005827478625,-17.4811141025331));
#959=CARTESIAN_POINT('Ctrl Pts',(355.556098201334,0.831116592586895,-17.4802530075948));
#960=CARTESIAN_POINT('Ctrl Pts',(355.529030756502,0.849227357695165,-17.4793919126564));
#961=CARTESIAN_POINT('Ctrl Pts',(355.501049148475,0.86604025779702,-17.4785644355556));
#962=CARTESIAN_POINT('Ctrl Pts',(355.472133210674,0.881527215336151,-17.4777833196496));
#963=CARTESIAN_POINT('Ctrl Pts',(355.457675241774,0.889270694105727,-17.4773927616966));
#964=CARTESIAN_POINT('Ctrl Pts',(355.442973532076,0.896686693315942,-17.4770135623129));
#965=CARTESIAN_POINT('Ctrl Pts',(355.428052666739,0.903753790862132,-17.4766481107075));
#966=CARTESIAN_POINT('Ctrl Pts',(355.413131801401,0.910820888408322,-17.4762826591021));
#967=CARTESIAN_POINT('Ctrl Pts',(355.398098116627,0.917489323857177,-17.4759335221428));
#968=CARTESIAN_POINT('Ctrl Pts',(355.382953685054,0.923767543867864,-17.4756016490826));
#969=CARTESIAN_POINT('Ctrl Pts',(355.352664821907,0.936323983889256,-17.4749379029621));
#970=CARTESIAN_POINT('Ctrl Pts',(355.321934183946,0.947322150690433,-17.4743432124376));
#971=CARTESIAN_POINT('Ctrl Pts',(355.29077039645,0.956792859791739,-17.473824636394));
#972=CARTESIAN_POINT('Ctrl Pts',(355.259606608953,0.966263568893045,-17.4733060603505));
#973=CARTESIAN_POINT('Ctrl Pts',(355.228009640896,0.974206740590744,-17.4728635987879));
#974=CARTESIAN_POINT('Ctrl Pts',(355.195975540436,0.98060878414931,-17.4725042971078));
#975=CARTESIAN_POINT('Ctrl Pts',(355.179958490206,0.983809805928594,-17.4723246462677));
#976=CARTESIAN_POINT('Ctrl Pts',(355.163831971709,0.986624862731638,-17.4721657859758));
#977=CARTESIAN_POINT('Ctrl Pts',(355.147594263985,0.989047993395018,-17.4720286189314));
#978=CARTESIAN_POINT('Ctrl Pts',(355.139475410123,0.990259558726711,-17.4719600354092));
#979=CARTESIAN_POINT('Ctrl Pts',(355.131328748728,0.991373094994267,-17.4718968751989));
#980=CARTESIAN_POINT('Ctrl Pts',(355.123154117972,0.992387556968811,-17.4718392436609));
#981=CARTESIAN_POINT('Ctrl Pts',(355.114979487216,0.993402018943356,-17.4717816121229));
#982=CARTESIAN_POINT('Ctrl Pts',(355.106764781918,0.994318520524967,-17.4717294904591));
#983=CARTESIAN_POINT('Ctrl Pts',(355.098556369736,0.995131469698585,-17.4716831884975));
#984=CARTESIAN_POINT('Ctrl Pts',(355.065722721009,0.998383266393064,-17.4714979806509));
#985=CARTESIAN_POINT('Ctrl Pts',(355.032991012128,0.999988251193542,-17.4714058880387));
#986=CARTESIAN_POINT('Ctrl Pts',(355.000358064516,0.999999935894888,-17.4714052189337));
#987=CARTESIAN_POINT('Ctrl Pts',(354.967725116904,1.00001162059623,-17.4714045498286));
#988=CARTESIAN_POINT('Ctrl Pts',(354.935190887202,0.998429722608325,-17.4714953042307));
#989=CARTESIAN_POINT('Ctrl Pts',(354.902754982128,0.995260471685244,-17.471675838153));
#990=CARTESIAN_POINT('Ctrl Pts',(354.870319077054,0.992091220762163,-17.4718563720754));
#991=CARTESIAN_POINT('Ctrl Pts',(354.837981491088,0.987334779200268,-17.4721266855179));
#992=CARTESIAN_POINT('Ctrl Pts',(354.805744696966,0.980951006545852,-17.4724850872094));
#993=CARTESIAN_POINT('Ctrl Pts',(354.797685498436,0.979355063382248,-17.4725746876323));
#994=CARTESIAN_POINT('Ctrl Pts',(354.789632614009,0.97765717535136,-17.4726697931661));
#995=CARTESIAN_POINT('Ctrl Pts',(354.781586112531,0.975856225968188,-17.4727703763953));
#996=CARTESIAN_POINT('Ctrl Pts',(354.773539611054,0.974055276585016,-17.4728709596246));
#997=CARTESIAN_POINT('Ctrl Pts',(354.765495255119,0.972149891636234,-17.4729770958542));
#998=CARTESIAN_POINT('Ctrl Pts',(354.757501817214,0.970151859940243,-17.4730880302255));
#999=CARTESIAN_POINT('Ctrl Pts',(354.741514941405,0.966155796548273,-17.4733098989682));
#1000=CARTESIAN_POINT('Ctrl Pts',(354.725688496334,0.961780260806289,-17.4735514957634));
#1001=CARTESIAN_POINT('Ctrl Pts',(354.71001912136,0.957032439378832,-17.4738115368158));
#1002=CARTESIAN_POINT('Ctrl Pts',(354.678680371414,0.947536796523933,-17.4743316189204));
#1003=CARTESIAN_POINT('Ctrl Pts',(354.64796920219,0.936554762974019,-17.4749254780534));
#1004=CARTESIAN_POINT('Ctrl Pts',(354.617875147829,0.92411070622147,-17.4755835210916));
#1005=CARTESIAN_POINT('Ctrl Pts',(354.587781093468,0.911666649468921,-17.4762415641297));
#1006=CARTESIAN_POINT('Ctrl Pts',(354.558304163834,0.897760539344863,-17.476963791073));
#1007=CARTESIAN_POINT('Ctrl Pts',(354.529451770449,0.882374276408083,-17.4777405758391));
#1008=CARTESIAN_POINT('Ctrl Pts',(354.515025573757,0.874681144939692,-17.4781289682222));
#1009=CARTESIAN_POINT('Ctrl Pts',(354.50075579501,0.866617323386484,-17.4785309985551));
#1010=CARTESIAN_POINT('Ctrl Pts',(354.486645083354,0.858176397691609,-17.478945428175));
#1011=CARTESIAN_POINT('Ctrl Pts',(354.479589727526,0.853955934844172,-17.4791526429849));
#1012=CARTESIAN_POINT('Ctrl Pts',(354.47257416278,0.849641154294488,-17.4793629576166));
#1013=CARTESIAN_POINT('Ctrl Pts',(354.465598838765,0.845230973681509,-17.4795762134306));
#1014=CARTESIAN_POINT('Ctrl Pts',(354.45862351475,0.84082079306853,-17.4797894692446));
#1015=CARTESIAN_POINT('Ctrl Pts',(354.451704284178,0.836325007362901,-17.4800051886854));
#1016=CARTESIAN_POINT('Ctrl Pts',(354.444860085057,0.831756980636305,-17.4802225568721));
#1017=CARTESIAN_POINT('Ctrl Pts',(354.417483288575,0.813484873729922,-17.481092029619));
#1018=CARTESIAN_POINT('Ctrl Pts',(354.391206581795,0.793998199541877,-17.4819906279872));
#1019=CARTESIAN_POINT('Ctrl Pts',(354.365998261109,0.773331620382717,-17.4829047851543));
#1020=CARTESIAN_POINT('Ctrl Pts',(354.340789940424,0.752665041223559,-17.4838189423215));
#1021=CARTESIAN_POINT('Ctrl Pts',(354.316650107255,0.730818355124119,-17.4847486582875));
#1022=CARTESIAN_POINT('Ctrl Pts',(354.29357845304,0.707791352017617,-17.4856807531766));
#1023=CARTESIAN_POINT('Ctrl Pts',(354.270506798825,0.684764348911113,-17.4866128480657));
#1024=CARTESIAN_POINT('Ctrl Pts',(354.248503175509,0.660557197857057,-17.4875473218777));
#1025=CARTESIAN_POINT('Ctrl Pts',(354.227598756386,0.635134882417387,-17.4884705929689));
#1026=CARTESIAN_POINT('Ctrl Pts',(354.222372651605,0.628779303557476,-17.4887014107417));
#1027=CARTESIAN_POINT('Ctrl Pts',(354.217210882851,0.622341781895074,-17.4889317291913));
#1028=CARTESIAN_POINT('Ctrl Pts',(354.212128972056,0.615840274200308,-17.4891606643092));
#1029=CARTESIAN_POINT('Ctrl Pts',(354.207047061262,0.609338766505542,-17.4893895994271));
#1030=CARTESIAN_POINT('Ctrl Pts',(354.202056063416,0.602787735250056,-17.4896166469448));
#1031=CARTESIAN_POINT('Ctrl Pts',(354.197154989979,0.596187797497356,-17.4898416251735));
#1032=CARTESIAN_POINT('Ctrl Pts',(354.187352843106,0.582987921991957,-17.4902915816309));
#1033=CARTESIAN_POINT('Ctrl Pts',(354.177910209297,0.569592505172765,-17.4907332609321));
#1034=CARTESIAN_POINT('Ctrl Pts',(354.168820834983,0.556004672319236,-17.4911651917851));
#1035=CARTESIAN_POINT('Ctrl Pts',(354.150642086354,0.528829006612178,-17.492029053491));
#1036=CARTESIAN_POINT('Ctrl Pts',(354.133874086919,0.500885333659587,-17.4928539214043));
#1037=CARTESIAN_POINT('Ctrl Pts',(354.118499369835,0.472182844900373,-17.4936286504825));
#1038=CARTESIAN_POINT('Ctrl Pts',(354.103124652751,0.443480356141159,-17.4944033795606));
#1039=CARTESIAN_POINT('Ctrl Pts',(354.089143192416,0.414019067794771,-17.4951279698037));
#1040=CARTESIAN_POINT('Ctrl Pts',(354.076578005168,0.383786163717887,-17.4957911561764));
#1041=CARTESIAN_POINT('Ctrl Pts',(354.070295411545,0.368669711679453,-17.4961227493627));
#1042=CARTESIAN_POINT('Ctrl Pts',(354.064367516703,0.353360012823223,-17.4964389876826));
#1043=CARTESIAN_POINT('Ctrl Pts',(354.058801211249,0.337853281846336,-17.4967384149145));
#1044=CARTESIAN_POINT('Ctrl Pts',(354.056018058522,0.330099916357902,-17.4968881285305));
#1045=CARTESIAN_POINT('Ctrl Pts',(354.053321861958,0.322286360120312,-17.4970338284057));
#1046=CARTESIAN_POINT('Ctrl Pts',(354.050728864585,0.314458759566841,-17.4971745050816));
#1047=CARTESIAN_POINT('Ctrl Pts',(354.048135867212,0.306631159013373,-17.4973151817574));
#1048=CARTESIAN_POINT('Ctrl Pts',(354.04564483099,0.298787067947769,-17.4974509062492));
#1049=CARTESIAN_POINT('Ctrl Pts',(354.04325461491,0.290926568242019,-17.4975816029207));
#1050=CARTESIAN_POINT('Ctrl Pts',(354.033693750589,0.259484569418962,-17.4981043896068));
#1051=CARTESIAN_POINT('Ctrl Pts',(354.025742457203,0.227781233240443,-17.498546731169));
#1052=CARTESIAN_POINT('Ctrl Pts',(354.019360757976,0.195823075767743,-17.4989043611741));
#1053=CARTESIAN_POINT('Ctrl Pts',(354.01297905875,0.163864918295047,-17.4992619911791));
#1054=CARTESIAN_POINT('Ctrl Pts',(354.00816710421,0.131651861233101,-17.4995349096271));
#1055=CARTESIAN_POINT('Ctrl Pts',(354.004930782402,0.0991829228659341,-17.4997189333947));
#1056=CARTESIAN_POINT('Ctrl Pts',(354.001694460593,0.0667139844987673,-17.4999029571623));
#1057=CARTESIAN_POINT('Ctrl Pts',(354.000033490651,0.0339892109461337,-17.4999980862495));
#1058=CARTESIAN_POINT('Ctrl Pts',(354.000000500043,0.00100004315243387,
-17.4999999714261));
#1059=CARTESIAN_POINT('Ctrl Pts',(354.000000166711,0.000666725534008562,
-17.4999999904737));
#1060=CARTESIAN_POINT('Ctrl Pts',(354.,0.000333376733673113,-17.4999999999626));
#1061=CARTESIAN_POINT('Ctrl Pts',(354.,-2.41960589927088E-15,-17.4999999998964));
#1062=CARTESIAN_POINT('Origin',(388.16877772433,6.75000000000001,11.6913429510899));
#1063=CARTESIAN_POINT('',(7.6,4.84474411167425,10.5913429510899));
#1064=CARTESIAN_POINT('Origin',(7.6,6.75000000000001,11.6913429510899));
#1065=CARTESIAN_POINT('',(0.,4.84474411167424,10.5913429510899));
#1066=CARTESIAN_POINT('',(388.16877772433,4.84474411167424,10.5913429510899));
#1067=CARTESIAN_POINT('Origin',(0.,6.75000000000001,11.6913429510899));
#1068=CARTESIAN_POINT('Origin',(388.16877772433,13.5,-2.42861286636753E-14));
#1069=CARTESIAN_POINT('',(7.6,11.5947441116742,1.09999999999998));
#1070=CARTESIAN_POINT('Origin',(7.6,13.5,-2.42861286636753E-14));
#1071=CARTESIAN_POINT('',(0.,11.5947441116742,1.09999999999998));
#1072=CARTESIAN_POINT('',(388.16877772433,11.5947441116742,1.09999999999998));
#1073=CARTESIAN_POINT('Origin',(0.,13.5,-2.42861286636753E-14));
#1074=CARTESIAN_POINT('Origin',(388.16877772433,6.74999999999999,-11.6913429510899));
#1075=CARTESIAN_POINT('',(7.6,6.74999999999999,-9.49134295108992));
#1076=CARTESIAN_POINT('Origin',(7.6,6.74999999999999,-11.6913429510899));
#1077=CARTESIAN_POINT('',(0.,6.74999999999999,-9.4913429510899));
#1078=CARTESIAN_POINT('',(388.16877772433,6.74999999999999,-9.4913429510899));
#1079=CARTESIAN_POINT('Origin',(0.,6.74999999999999,-11.6913429510899));
#1080=CARTESIAN_POINT('Origin',(388.16877772433,-6.75000000000001,-11.6913429510899));
#1081=CARTESIAN_POINT('',(7.6,-4.84474411167424,-10.5913429510899));
#1082=CARTESIAN_POINT('Origin',(7.6,-6.75000000000001,-11.6913429510899));
#1083=CARTESIAN_POINT('',(0.,-4.84474411167425,-10.5913429510899));
#1084=CARTESIAN_POINT('',(388.16877772433,-4.84474411167425,-10.5913429510899));
#1085=CARTESIAN_POINT('Origin',(0.,-6.75000000000001,-11.6913429510899));
#1086=CARTESIAN_POINT('Origin',(388.16877772433,-13.5,5.20417042793042E-15));
#1087=CARTESIAN_POINT('',(7.6,-11.5947441116742,-1.1));
#1088=CARTESIAN_POINT('Origin',(7.6,-13.5,5.20417042793042E-15));
#1089=CARTESIAN_POINT('',(0.,-11.5947441116742,-1.09999999999999));
#1090=CARTESIAN_POINT('',(388.16877772433,-11.5947441116742,-1.09999999999999));
#1091=CARTESIAN_POINT('Origin',(0.,-13.5,5.20417042793042E-15));
#1092=CARTESIAN_POINT('Origin',(-60.,0.,0.));
#1093=CARTESIAN_POINT('',(365.,0.,-9.575));
#1094=CARTESIAN_POINT('Origin',(365.,0.,0.));
#1095=CARTESIAN_POINT('',(380.,-1.17259931018359E-15,-9.575));
#1096=CARTESIAN_POINT('',(-60.,-1.17259931018359E-15,-9.575));
#1097=CARTESIAN_POINT('Origin',(380.,0.,0.));
#1098=CARTESIAN_POINT('Origin',(380.,0.,9.575));
#1099=CARTESIAN_POINT('',(380.,-3.67394039744206E-16,-3.));
#1100=CARTESIAN_POINT('Origin',(380.,0.,0.));
#1101=CARTESIAN_POINT('Origin',(-60.,0.,0.));
#1102=CARTESIAN_POINT('',(385.,-3.67394039744206E-16,-3.));
#1103=CARTESIAN_POINT('',(-60.,-3.67394039744206E-16,-3.));
#1104=CARTESIAN_POINT('Origin',(385.,0.,0.));
#1105=CARTESIAN_POINT('Origin',(385.,0.,3.));
#1106=CARTESIAN_POINT('',(385.,1.50570323955167E-16,1.2295));
#1107=CARTESIAN_POINT('Origin',(385.,0.,3.67273485929465E-15));
#1108=CARTESIAN_POINT('Origin',(385.,0.,3.67273485929465E-15));
#1109=CARTESIAN_POINT('',(381.,0.,1.2295));
#1110=CARTESIAN_POINT('',(385.,1.50570323955167E-16,1.2295));
#1111=CARTESIAN_POINT('',(381.,1.50570323955167E-16,-1.2295));
#1112=CARTESIAN_POINT('Origin',(381.,0.,3.67273485929465E-15));
#1113=CARTESIAN_POINT('Origin',(381.,0.,3.67273485929465E-15));
#1114=CARTESIAN_POINT('Origin',(381.,0.,3.67273485929465E-15));
#1115=CARTESIAN_POINT('',(380.261241868906,0.,3.67273485929465E-15));
#1116=CARTESIAN_POINT('',(381.,1.50570323955167E-16,-1.2295));
#1117=CARTESIAN_POINT('Origin',(365.,0.,17.5));
#1118=CARTESIAN_POINT('',(365.,14.,0.783500000000005));
#1119=CARTESIAN_POINT('Origin',(365.,14.,4.5310435091428E-15));
#1120=CARTESIAN_POINT('',(365.,-14.,0.7835));
#1121=CARTESIAN_POINT('Origin',(365.,-14.,0.));
#1122=CARTESIAN_POINT('Origin',(330.,0.,9.575));
#1123=CARTESIAN_POINT('',(330.,-1.17259931018359E-15,-9.575));
#1124=CARTESIAN_POINT('Origin',(330.,0.,0.));
#1125=CARTESIAN_POINT('Origin',(0.,0.,0.));
#1126=CARTESIAN_POINT('',(0.,-2.0818995585505E-15,-17.));
#1127=CARTESIAN_POINT('Origin',(0.,0.,0.));
#1128=CARTESIAN_POINT('',(0.,-2.44929359829471E-16,-2.));
#1129=CARTESIAN_POINT('Origin',(0.,0.,0.));
#1130=CARTESIAN_POINT('',(0.,-6.75,9.4913429510899));
#1131=CARTESIAN_POINT('Origin',(0.,-6.75,11.6913429510899));
#1132=CARTESIAN_POINT('Origin',(-60.,0.,0.));
#1133=CARTESIAN_POINT('',(7.6,-2.0818995585505E-15,-17.));
#1134=CARTESIAN_POINT('',(-60.,-2.0818995585505E-15,-17.));
#1135=CARTESIAN_POINT('Origin',(7.6,0.,0.));
#1136=CARTESIAN_POINT('Origin',(7.6,0.,17.));
#1137=CARTESIAN_POINT('',(7.6,-6.75,9.49134295108992));
#1138=CARTESIAN_POINT('Origin',(7.6,-6.75,11.6913429510899));
#1139=CARTESIAN_POINT('',(7.6,-1.17259931018359E-15,-9.575));
#1140=CARTESIAN_POINT('Origin',(7.6,0.,0.));
#1141=CARTESIAN_POINT('Origin',(-60.,0.,0.));
#1142=CARTESIAN_POINT('',(-60.,-1.17259931018359E-15,-9.575));
#1143=CARTESIAN_POINT('Origin',(365.,-14.,0.));
#1144=CARTESIAN_POINT('',(361.,-14.,0.7835));
#1145=CARTESIAN_POINT('',(365.,-14.,0.7835));
#1146=CARTESIAN_POINT('',(361.,-14.,-0.7835));
#1147=CARTESIAN_POINT('Origin',(361.,-14.,0.));
#1148=CARTESIAN_POINT('Origin',(361.,-14.,0.));
#1149=CARTESIAN_POINT('Origin',(361.,-14.,0.));
#1150=CARTESIAN_POINT('',(360.529225704992,-14.,0.));
#1151=CARTESIAN_POINT('',(361.,-14.,-0.7835));
#1152=CARTESIAN_POINT('Origin',(365.,14.,4.5310435091428E-15));
#1153=CARTESIAN_POINT('',(361.,14.,0.783500000000005));
#1154=CARTESIAN_POINT('',(365.,14.,0.783500000000005));
#1155=CARTESIAN_POINT('',(361.,14.,-0.783499999999996));
#1156=CARTESIAN_POINT('Origin',(361.,14.,4.5310435091428E-15));
#1157=CARTESIAN_POINT('Origin',(361.,14.,4.5310435091428E-15));
#1158=CARTESIAN_POINT('Origin',(361.,14.,4.5310435091428E-15));
#1159=CARTESIAN_POINT('',(360.529225704992,14.,4.5310435091428E-15));
#1160=CARTESIAN_POINT('',(361.,14.,-0.783499999999995));
#1161=CARTESIAN_POINT('Origin',(388.16877772433,-6.75,11.6913429510899));
#1162=CARTESIAN_POINT('',(388.16877772433,-6.75,9.4913429510899));
#1163=CARTESIAN_POINT('Origin',(355.,0.,-57.));
#1164=CARTESIAN_POINT('',(356.,-1.22464679914734E-16,-20.4714052096561));
#1165=CARTESIAN_POINT('Origin',(355.,0.,-20.4714052096561));
#1166=CARTESIAN_POINT('',(356.,-1.22464679914734E-16,-57.));
#1167=CARTESIAN_POINT('Origin',(355.,-0.99999999999999,-20.4714052096561));
#1168=CARTESIAN_POINT('',(357.5,-3.06161699786838E-16,-20.4714052096561));
#1169=CARTESIAN_POINT('Origin',(355.,0.,-20.4714052096561));
#1170=CARTESIAN_POINT('Origin',(355.,0.,-57.));
#1171=CARTESIAN_POINT('',(357.5,-3.06161699786838E-16,-21.4714052096561));
#1172=CARTESIAN_POINT('Origin',(355.,0.,-21.4714052096561));
#1173=CARTESIAN_POINT('',(357.5,-3.06161699786838E-16,-57.));
#1174=CARTESIAN_POINT('Origin',(355.,-2.5,-21.4714052096561));
#1175=CARTESIAN_POINT('Origin',(-60.,0.,0.));
#1176=CARTESIAN_POINT('',(-15.,-2.44929359829471E-16,-2.));
#1177=CARTESIAN_POINT('Origin',(-15.,0.,0.));
#1178=CARTESIAN_POINT('',(-60.,-2.44929359829471E-16,-2.));
#1179=CARTESIAN_POINT('Origin',(-15.,0.,2.));
#1180=CARTESIAN_POINT('',(0.,0.,0.));
#1181=UNCERTAINTY_MEASURE_WITH_UNIT(LENGTH_MEASURE(0.01),#1187,
'DISTANCE_ACCURACY_VALUE',
'Maximum model space distance between geometric entities at asserted c
onnectivities');
#1182=UNCERTAINTY_MEASURE_WITH_UNIT(LENGTH_MEASURE(0.01),#1187,
'DISTANCE_ACCURACY_VALUE',
'Maximum model space distance between geometric entities at asserted c
onnectivities');
#1183=UNCERTAINTY_MEASURE_WITH_UNIT(LENGTH_MEASURE(0.01),#1187,
'DISTANCE_ACCURACY_VALUE',
'Maximum model space distance between geometric entities at asserted c
onnectivities');
#1184=(
GEOMETRIC_REPRESENTATION_CONTEXT(3)
GLOBAL_UNCERTAINTY_ASSIGNED_CONTEXT((#1181))
GLOBAL_UNIT_ASSIGNED_CONTEXT((#1187,#1189,#1190))
REPRESENTATION_CONTEXT('','3D')
);
#1185=(
GEOMETRIC_REPRESENTATION_CONTEXT(3)
GLOBAL_UNCERTAINTY_ASSIGNED_CONTEXT((#1182))
GLOBAL_UNIT_ASSIGNED_CONTEXT((#1187,#1189,#1190))
REPRESENTATION_CONTEXT('','3D')
);
#1186=(
GEOMETRIC_REPRESENTATION_CONTEXT(3)
GLOBAL_UNCERTAINTY_ASSIGNED_CONTEXT((#1183))
GLOBAL_UNIT_ASSIGNED_CONTEXT((#1187,#1189,#1190))
REPRESENTATION_CONTEXT('','3D')
);
#1187=(
LENGTH_UNIT()
NAMED_UNIT(*)
SI_UNIT(.MILLI.,.METRE.)
);
#1188=(
LENGTH_UNIT()
NAMED_UNIT(*)
SI_UNIT($,.METRE.)
);
#1189=(
NAMED_UNIT(*)
PLANE_ANGLE_UNIT()
SI_UNIT($,.RADIAN.)
);
#1190=(
NAMED_UNIT(*)
SI_UNIT($,.STERADIAN.)
SOLID_ANGLE_UNIT()
);
#1191=SHAPE_DEFINITION_REPRESENTATION(#1193,#1196);
#1192=SHAPE_DEFINITION_REPRESENTATION(#1194,#1197);
#1193=PRODUCT_DEFINITION_SHAPE('',$,#1199);
#1194=PRODUCT_DEFINITION_SHAPE('',$,#1200);
#1195=PRODUCT_DEFINITION_SHAPE($,$,#14);
#1196=SHAPE_REPRESENTATION('',(#522,#589),#1184);
#1197=SHAPE_REPRESENTATION('',(#523),#1185);
#1198=PRODUCT_DEFINITION_CONTEXT('part definition',#1206,'design');
#1199=PRODUCT_DEFINITION('Minitrans_CF16_Hub300_Rotation&Linear',
'Minitrans_CF16_Hub300_Rotation&Linear v1',#1201,#1198);
#1200=PRODUCT_DEFINITION('MTransCF40','MTransCF40',#1202,#1198);
#1201=PRODUCT_DEFINITION_FORMATION('',$,#1208);
#1202=PRODUCT_DEFINITION_FORMATION('',$,#1209);
#1203=PRODUCT_RELATED_PRODUCT_CATEGORY(
'Minitrans_CF16_Hub300_Rotation&Linear v1',
'Minitrans_CF16_Hub300_Rotation&Linear v1',(#1208));
#1204=PRODUCT_RELATED_PRODUCT_CATEGORY('MTransCF40','MTransCF40',(#1209));
#1205=APPLICATION_PROTOCOL_DEFINITION('international standard',
'automotive_design',2009,#1206);
#1206=APPLICATION_CONTEXT(
'Core Data for Automotive Mechanical Design Process');
#1207=PRODUCT_CONTEXT('part definition',#1206,'mechanical');
#1208=PRODUCT('Minitrans_CF16_Hub300_Rotation&Linear',
'Minitrans_CF16_Hub300_Rotation&Linear v1',$,(#1207));
#1209=PRODUCT('MTransCF40','MTransCF40',$,(#1207));
#1210=PRESENTATION_STYLE_ASSIGNMENT((#1213));
#1211=PRESENTATION_STYLE_ASSIGNMENT((#1214));
#1212=PRESENTATION_STYLE_ASSIGNMENT((#1215));
#1213=SURFACE_STYLE_USAGE(.BOTH.,#1216);
#1214=SURFACE_STYLE_USAGE(.BOTH.,#1217);
#1215=SURFACE_STYLE_USAGE(.BOTH.,#1218);
#1216=SURFACE_SIDE_STYLE('',(#1219));
#1217=SURFACE_SIDE_STYLE('',(#1220));
#1218=SURFACE_SIDE_STYLE('',(#1221));
#1219=SURFACE_STYLE_FILL_AREA(#1222);
#1220=SURFACE_STYLE_FILL_AREA(#1223);
#1221=SURFACE_STYLE_FILL_AREA(#1224);
#1222=FILL_AREA_STYLE('Steel - Satin',(#1225));
#1223=FILL_AREA_STYLE('Opaque(192,192,192)',(#1226));
#1224=FILL_AREA_STYLE('Opaque(101,240,115)',(#1227));
#1225=FILL_AREA_STYLE_COLOUR('Steel - Satin',#1228);
#1226=FILL_AREA_STYLE_COLOUR('Opaque(192,192,192)',#1229);
#1227=FILL_AREA_STYLE_COLOUR('Opaque(101,240,115)',#1230);
#1228=COLOUR_RGB('Steel - Satin',0.627450980392157,0.627450980392157,0.627450980392157);
#1229=COLOUR_RGB('Opaque(192,192,192)',0.752941176470588,0.752941176470588,
0.752941176470588);
#1230=COLOUR_RGB('Opaque(101,240,115)',0.396078431372549,0.941176470588235,
0.450980392156863);
ENDSEC;
END-ISO-10303-21;
