ISO-10303-21;
HEADER;
/* Generated by software containing ST-Developer
 * from STEP Tools, Inc. (www.steptools.com) 
 */

FILE_DESCRIPTION(
/* description */ (''),
/* implementation_level */ '2;1');

FILE_NAME(
/* name */ '420BMH063 (1) v1.step',
/* time_stamp */ '2024-06-25T13:37:18+02:00',
/* author */ (''),
/* organization */ (''),
/* preprocessor_version */ 'ST-DEVELOPER v20',
/* originating_system */ 'Autodesk Translation Framework v13.14.0.145',

/* authorisation */ '');

FILE_SCHEMA (('AUTOMOTIVE_DESIGN { 1 0 10303 214 3 1 1 }'));
ENDSEC;

DATA;
#10=MECHANICAL_DESIGN_GEOMETRIC_PRESENTATION_REPRESENTATION('',(#13,#14),
#654);
#11=SHAPE_REPRESENTATION_RELATIONSHIP('SRR','None',#661,#12);
#12=ADVANCED_BREP_SHAPE_REPRESENTATION('',(#15,#16),#653);
#13=STYLED_ITEM('',(#671),#15);
#14=STYLED_ITEM('',(#671),#16);
#15=MANIFOLD_SOLID_BREP('Body1',#377);
#16=MANIFOLD_SOLID_BREP('Body2',#378);
#17=FACE_BOUND('',#70,.T.);
#18=FACE_BOUND('',#71,.T.);
#19=FACE_BOUND('',#72,.T.);
#20=FACE_BOUND('',#73,.T.);
#21=FACE_BOUND('',#75,.T.);
#22=FACE_BOUND('',#76,.T.);
#23=FACE_BOUND('',#77,.T.);
#24=FACE_BOUND('',#78,.T.);
#25=FACE_BOUND('',#88,.T.);
#26=FACE_BOUND('',#89,.T.);
#27=FACE_BOUND('',#90,.T.);
#28=FACE_BOUND('',#91,.T.);
#29=FACE_BOUND('',#93,.T.);
#30=FACE_BOUND('',#94,.T.);
#31=FACE_BOUND('',#95,.T.);
#32=FACE_BOUND('',#96,.T.);
#33=PLANE('',#407);
#34=PLANE('',#411);
#35=PLANE('',#412);
#36=PLANE('',#413);
#37=PLANE('',#429);
#38=PLANE('',#433);
#39=PLANE('',#434);
#40=PLANE('',#435);
#41=FACE_OUTER_BOUND('',#61,.T.);
#42=FACE_OUTER_BOUND('',#62,.T.);
#43=FACE_OUTER_BOUND('',#63,.T.);
#44=FACE_OUTER_BOUND('',#64,.T.);
#45=FACE_OUTER_BOUND('',#65,.T.);
#46=FACE_OUTER_BOUND('',#66,.T.);
#47=FACE_OUTER_BOUND('',#67,.T.);
#48=FACE_OUTER_BOUND('',#68,.T.);
#49=FACE_OUTER_BOUND('',#69,.T.);
#50=FACE_OUTER_BOUND('',#74,.T.);
#51=FACE_OUTER_BOUND('',#79,.T.);
#52=FACE_OUTER_BOUND('',#80,.T.);
#53=FACE_OUTER_BOUND('',#81,.T.);
#54=FACE_OUTER_BOUND('',#82,.T.);
#55=FACE_OUTER_BOUND('',#83,.T.);
#56=FACE_OUTER_BOUND('',#84,.T.);
#57=FACE_OUTER_BOUND('',#85,.T.);
#58=FACE_OUTER_BOUND('',#86,.T.);
#59=FACE_OUTER_BOUND('',#87,.T.);
#60=FACE_OUTER_BOUND('',#92,.T.);
#61=EDGE_LOOP('',(#249,#250,#251,#252));
#62=EDGE_LOOP('',(#253,#254,#255,#256));
#63=EDGE_LOOP('',(#257,#258,#259,#260));
#64=EDGE_LOOP('',(#261,#262,#263,#264));
#65=EDGE_LOOP('',(#265,#266,#267,#268));
#66=EDGE_LOOP('',(#269,#270,#271,#272));
#67=EDGE_LOOP('',(#273,#274,#275,#276));
#68=EDGE_LOOP('',(#277,#278,#279,#280));
#69=EDGE_LOOP('',(#281,#282,#283,#284));
#70=EDGE_LOOP('',(#285));
#71=EDGE_LOOP('',(#286));
#72=EDGE_LOOP('',(#287));
#73=EDGE_LOOP('',(#288));
#74=EDGE_LOOP('',(#289,#290,#291,#292));
#75=EDGE_LOOP('',(#293));
#76=EDGE_LOOP('',(#294));
#77=EDGE_LOOP('',(#295));
#78=EDGE_LOOP('',(#296));
#79=EDGE_LOOP('',(#297,#298,#299,#300));
#80=EDGE_LOOP('',(#301,#302,#303,#304));
#81=EDGE_LOOP('',(#305,#306,#307,#308));
#82=EDGE_LOOP('',(#309,#310,#311,#312));
#83=EDGE_LOOP('',(#313,#314,#315,#316));
#84=EDGE_LOOP('',(#317,#318,#319,#320));
#85=EDGE_LOOP('',(#321,#322,#323,#324));
#86=EDGE_LOOP('',(#325,#326,#327,#328));
#87=EDGE_LOOP('',(#329,#330,#331,#332));
#88=EDGE_LOOP('',(#333));
#89=EDGE_LOOP('',(#334));
#90=EDGE_LOOP('',(#335));
#91=EDGE_LOOP('',(#336));
#92=EDGE_LOOP('',(#337,#338,#339,#340));
#93=EDGE_LOOP('',(#341));
#94=EDGE_LOOP('',(#342));
#95=EDGE_LOOP('',(#343));
#96=EDGE_LOOP('',(#344));
#97=LINE('',#555,#121);
#98=LINE('',#561,#122);
#99=LINE('',#567,#123);
#100=LINE('',#573,#124);
#101=LINE('',#580,#125);
#102=LINE('',#583,#126);
#103=LINE('',#586,#127);
#104=LINE('',#588,#128);
#105=LINE('',#589,#129);
#106=LINE('',#594,#130);
#107=LINE('',#597,#131);
#108=LINE('',#598,#132);
#109=LINE('',#605,#133);
#110=LINE('',#611,#134);
#111=LINE('',#617,#135);
#112=LINE('',#623,#136);
#113=LINE('',#630,#137);
#114=LINE('',#633,#138);
#115=LINE('',#636,#139);
#116=LINE('',#638,#140);
#117=LINE('',#639,#141);
#118=LINE('',#644,#142);
#119=LINE('',#647,#143);
#120=LINE('',#648,#144);
#121=VECTOR('',#442,3.39999999999999);
#122=VECTOR('',#449,3.39999999999999);
#123=VECTOR('',#456,3.39999999999999);
#124=VECTOR('',#463,3.39999999999999);
#125=VECTOR('',#470,1000.);
#126=VECTOR('',#473,1000.);
#127=VECTOR('',#476,1000.);
#128=VECTOR('',#477,1000.);
#129=VECTOR('',#478,1000.);
#130=VECTOR('',#483,1000.);
#131=VECTOR('',#488,1000.);
#132=VECTOR('',#489,1000.);
#133=VECTOR('',#498,3.39999999999999);
#134=VECTOR('',#505,3.39999999999999);
#135=VECTOR('',#512,3.39999999999999);
#136=VECTOR('',#519,3.39999999999999);
#137=VECTOR('',#526,1000.);
#138=VECTOR('',#529,1000.);
#139=VECTOR('',#532,1000.);
#140=VECTOR('',#533,1000.);
#141=VECTOR('',#534,1000.);
#142=VECTOR('',#539,1000.);
#143=VECTOR('',#544,1000.);
#144=VECTOR('',#545,1000.);
#145=CIRCLE('',#393,3.39999999999999);
#146=CIRCLE('',#394,3.39999999999999);
#147=CIRCLE('',#396,3.4);
#148=CIRCLE('',#397,3.39999999999999);
#149=CIRCLE('',#399,3.4);
#150=CIRCLE('',#400,3.39999999999999);
#151=CIRCLE('',#402,3.39999999999999);
#152=CIRCLE('',#403,3.39999999999999);
#153=CIRCLE('',#405,56.75);
#154=CIRCLE('',#406,56.75);
#155=CIRCLE('',#409,40.);
#156=CIRCLE('',#410,40.);
#157=CIRCLE('',#415,3.39999999999999);
#158=CIRCLE('',#416,3.39999999999999);
#159=CIRCLE('',#418,3.4);
#160=CIRCLE('',#419,3.39999999999999);
#161=CIRCLE('',#421,3.4);
#162=CIRCLE('',#422,3.39999999999999);
#163=CIRCLE('',#424,3.39999999999999);
#164=CIRCLE('',#425,3.39999999999999);
#165=CIRCLE('',#427,56.75);
#166=CIRCLE('',#428,56.75);
#167=CIRCLE('',#431,40.);
#168=CIRCLE('',#432,40.);
#169=VERTEX_POINT('',#552);
#170=VERTEX_POINT('',#554);
#171=VERTEX_POINT('',#558);
#172=VERTEX_POINT('',#560);
#173=VERTEX_POINT('',#564);
#174=VERTEX_POINT('',#566);
#175=VERTEX_POINT('',#570);
#176=VERTEX_POINT('',#572);
#177=VERTEX_POINT('',#576);
#178=VERTEX_POINT('',#577);
#179=VERTEX_POINT('',#579);
#180=VERTEX_POINT('',#581);
#181=VERTEX_POINT('',#585);
#182=VERTEX_POINT('',#587);
#183=VERTEX_POINT('',#591);
#184=VERTEX_POINT('',#593);
#185=VERTEX_POINT('',#602);
#186=VERTEX_POINT('',#604);
#187=VERTEX_POINT('',#608);
#188=VERTEX_POINT('',#610);
#189=VERTEX_POINT('',#614);
#190=VERTEX_POINT('',#616);
#191=VERTEX_POINT('',#620);
#192=VERTEX_POINT('',#622);
#193=VERTEX_POINT('',#626);
#194=VERTEX_POINT('',#627);
#195=VERTEX_POINT('',#629);
#196=VERTEX_POINT('',#631);
#197=VERTEX_POINT('',#635);
#198=VERTEX_POINT('',#637);
#199=VERTEX_POINT('',#641);
#200=VERTEX_POINT('',#643);
#201=EDGE_CURVE('',#169,#169,#145,.T.);
#202=EDGE_CURVE('',#169,#170,#97,.T.);
#203=EDGE_CURVE('',#170,#170,#146,.T.);
#204=EDGE_CURVE('',#171,#171,#147,.T.);
#205=EDGE_CURVE('',#171,#172,#98,.T.);
#206=EDGE_CURVE('',#172,#172,#148,.T.);
#207=EDGE_CURVE('',#173,#173,#149,.T.);
#208=EDGE_CURVE('',#173,#174,#99,.T.);
#209=EDGE_CURVE('',#174,#174,#150,.T.);
#210=EDGE_CURVE('',#175,#175,#151,.T.);
#211=EDGE_CURVE('',#175,#176,#100,.T.);
#212=EDGE_CURVE('',#176,#176,#152,.T.);
#213=EDGE_CURVE('',#177,#178,#153,.T.);
#214=EDGE_CURVE('',#179,#177,#101,.T.);
#215=EDGE_CURVE('',#179,#180,#154,.T.);
#216=EDGE_CURVE('',#180,#178,#102,.T.);
#217=EDGE_CURVE('',#181,#177,#103,.T.);
#218=EDGE_CURVE('',#182,#181,#104,.T.);
#219=EDGE_CURVE('',#182,#179,#105,.T.);
#220=EDGE_CURVE('',#183,#181,#155,.T.);
#221=EDGE_CURVE('',#184,#183,#106,.T.);
#222=EDGE_CURVE('',#184,#182,#156,.T.);
#223=EDGE_CURVE('',#178,#183,#107,.T.);
#224=EDGE_CURVE('',#180,#184,#108,.T.);
#225=EDGE_CURVE('',#185,#185,#157,.T.);
#226=EDGE_CURVE('',#185,#186,#109,.T.);
#227=EDGE_CURVE('',#186,#186,#158,.T.);
#228=EDGE_CURVE('',#187,#187,#159,.T.);
#229=EDGE_CURVE('',#187,#188,#110,.T.);
#230=EDGE_CURVE('',#188,#188,#160,.T.);
#231=EDGE_CURVE('',#189,#189,#161,.T.);
#232=EDGE_CURVE('',#189,#190,#111,.T.);
#233=EDGE_CURVE('',#190,#190,#162,.T.);
#234=EDGE_CURVE('',#191,#191,#163,.T.);
#235=EDGE_CURVE('',#191,#192,#112,.T.);
#236=EDGE_CURVE('',#192,#192,#164,.T.);
#237=EDGE_CURVE('',#193,#194,#165,.T.);
#238=EDGE_CURVE('',#195,#193,#113,.T.);
#239=EDGE_CURVE('',#195,#196,#166,.T.);
#240=EDGE_CURVE('',#196,#194,#114,.T.);
#241=EDGE_CURVE('',#197,#193,#115,.T.);
#242=EDGE_CURVE('',#198,#197,#116,.T.);
#243=EDGE_CURVE('',#198,#195,#117,.T.);
#244=EDGE_CURVE('',#199,#197,#167,.T.);
#245=EDGE_CURVE('',#200,#199,#118,.T.);
#246=EDGE_CURVE('',#200,#198,#168,.T.);
#247=EDGE_CURVE('',#194,#199,#119,.T.);
#248=EDGE_CURVE('',#196,#200,#120,.T.);
#249=ORIENTED_EDGE('',*,*,#201,.F.);
#250=ORIENTED_EDGE('',*,*,#202,.T.);
#251=ORIENTED_EDGE('',*,*,#203,.T.);
#252=ORIENTED_EDGE('',*,*,#202,.F.);
#253=ORIENTED_EDGE('',*,*,#204,.F.);
#254=ORIENTED_EDGE('',*,*,#205,.T.);
#255=ORIENTED_EDGE('',*,*,#206,.T.);
#256=ORIENTED_EDGE('',*,*,#205,.F.);
#257=ORIENTED_EDGE('',*,*,#207,.F.);
#258=ORIENTED_EDGE('',*,*,#208,.T.);
#259=ORIENTED_EDGE('',*,*,#209,.T.);
#260=ORIENTED_EDGE('',*,*,#208,.F.);
#261=ORIENTED_EDGE('',*,*,#210,.F.);
#262=ORIENTED_EDGE('',*,*,#211,.T.);
#263=ORIENTED_EDGE('',*,*,#212,.T.);
#264=ORIENTED_EDGE('',*,*,#211,.F.);
#265=ORIENTED_EDGE('',*,*,#213,.F.);
#266=ORIENTED_EDGE('',*,*,#214,.F.);
#267=ORIENTED_EDGE('',*,*,#215,.T.);
#268=ORIENTED_EDGE('',*,*,#216,.T.);
#269=ORIENTED_EDGE('',*,*,#217,.F.);
#270=ORIENTED_EDGE('',*,*,#218,.F.);
#271=ORIENTED_EDGE('',*,*,#219,.T.);
#272=ORIENTED_EDGE('',*,*,#214,.T.);
#273=ORIENTED_EDGE('',*,*,#220,.F.);
#274=ORIENTED_EDGE('',*,*,#221,.F.);
#275=ORIENTED_EDGE('',*,*,#222,.T.);
#276=ORIENTED_EDGE('',*,*,#218,.T.);
#277=ORIENTED_EDGE('',*,*,#223,.F.);
#278=ORIENTED_EDGE('',*,*,#216,.F.);
#279=ORIENTED_EDGE('',*,*,#224,.T.);
#280=ORIENTED_EDGE('',*,*,#221,.T.);
#281=ORIENTED_EDGE('',*,*,#215,.F.);
#282=ORIENTED_EDGE('',*,*,#219,.F.);
#283=ORIENTED_EDGE('',*,*,#222,.F.);
#284=ORIENTED_EDGE('',*,*,#224,.F.);
#285=ORIENTED_EDGE('',*,*,#201,.T.);
#286=ORIENTED_EDGE('',*,*,#204,.T.);
#287=ORIENTED_EDGE('',*,*,#207,.T.);
#288=ORIENTED_EDGE('',*,*,#210,.T.);
#289=ORIENTED_EDGE('',*,*,#213,.T.);
#290=ORIENTED_EDGE('',*,*,#223,.T.);
#291=ORIENTED_EDGE('',*,*,#220,.T.);
#292=ORIENTED_EDGE('',*,*,#217,.T.);
#293=ORIENTED_EDGE('',*,*,#203,.F.);
#294=ORIENTED_EDGE('',*,*,#206,.F.);
#295=ORIENTED_EDGE('',*,*,#209,.F.);
#296=ORIENTED_EDGE('',*,*,#212,.F.);
#297=ORIENTED_EDGE('',*,*,#225,.F.);
#298=ORIENTED_EDGE('',*,*,#226,.T.);
#299=ORIENTED_EDGE('',*,*,#227,.T.);
#300=ORIENTED_EDGE('',*,*,#226,.F.);
#301=ORIENTED_EDGE('',*,*,#228,.F.);
#302=ORIENTED_EDGE('',*,*,#229,.T.);
#303=ORIENTED_EDGE('',*,*,#230,.T.);
#304=ORIENTED_EDGE('',*,*,#229,.F.);
#305=ORIENTED_EDGE('',*,*,#231,.F.);
#306=ORIENTED_EDGE('',*,*,#232,.T.);
#307=ORIENTED_EDGE('',*,*,#233,.T.);
#308=ORIENTED_EDGE('',*,*,#232,.F.);
#309=ORIENTED_EDGE('',*,*,#234,.F.);
#310=ORIENTED_EDGE('',*,*,#235,.T.);
#311=ORIENTED_EDGE('',*,*,#236,.T.);
#312=ORIENTED_EDGE('',*,*,#235,.F.);
#313=ORIENTED_EDGE('',*,*,#237,.F.);
#314=ORIENTED_EDGE('',*,*,#238,.F.);
#315=ORIENTED_EDGE('',*,*,#239,.T.);
#316=ORIENTED_EDGE('',*,*,#240,.T.);
#317=ORIENTED_EDGE('',*,*,#241,.F.);
#318=ORIENTED_EDGE('',*,*,#242,.F.);
#319=ORIENTED_EDGE('',*,*,#243,.T.);
#320=ORIENTED_EDGE('',*,*,#238,.T.);
#321=ORIENTED_EDGE('',*,*,#244,.F.);
#322=ORIENTED_EDGE('',*,*,#245,.F.);
#323=ORIENTED_EDGE('',*,*,#246,.T.);
#324=ORIENTED_EDGE('',*,*,#242,.T.);
#325=ORIENTED_EDGE('',*,*,#247,.F.);
#326=ORIENTED_EDGE('',*,*,#240,.F.);
#327=ORIENTED_EDGE('',*,*,#248,.T.);
#328=ORIENTED_EDGE('',*,*,#245,.T.);
#329=ORIENTED_EDGE('',*,*,#239,.F.);
#330=ORIENTED_EDGE('',*,*,#243,.F.);
#331=ORIENTED_EDGE('',*,*,#246,.F.);
#332=ORIENTED_EDGE('',*,*,#248,.F.);
#333=ORIENTED_EDGE('',*,*,#225,.T.);
#334=ORIENTED_EDGE('',*,*,#228,.T.);
#335=ORIENTED_EDGE('',*,*,#231,.T.);
#336=ORIENTED_EDGE('',*,*,#234,.T.);
#337=ORIENTED_EDGE('',*,*,#237,.T.);
#338=ORIENTED_EDGE('',*,*,#247,.T.);
#339=ORIENTED_EDGE('',*,*,#244,.T.);
#340=ORIENTED_EDGE('',*,*,#241,.T.);
#341=ORIENTED_EDGE('',*,*,#227,.F.);
#342=ORIENTED_EDGE('',*,*,#230,.F.);
#343=ORIENTED_EDGE('',*,*,#233,.F.);
#344=ORIENTED_EDGE('',*,*,#236,.F.);
#345=CYLINDRICAL_SURFACE('',#392,3.39999999999999);
#346=CYLINDRICAL_SURFACE('',#395,3.39999999999999);
#347=CYLINDRICAL_SURFACE('',#398,3.39999999999999);
#348=CYLINDRICAL_SURFACE('',#401,3.39999999999999);
#349=CYLINDRICAL_SURFACE('',#404,56.75);
#350=CYLINDRICAL_SURFACE('',#408,40.);
#351=CYLINDRICAL_SURFACE('',#414,3.39999999999999);
#352=CYLINDRICAL_SURFACE('',#417,3.39999999999999);
#353=CYLINDRICAL_SURFACE('',#420,3.39999999999999);
#354=CYLINDRICAL_SURFACE('',#423,3.39999999999999);
#355=CYLINDRICAL_SURFACE('',#426,56.75);
#356=CYLINDRICAL_SURFACE('',#430,40.);
#357=ADVANCED_FACE('',(#41),#345,.F.);
#358=ADVANCED_FACE('',(#42),#346,.F.);
#359=ADVANCED_FACE('',(#43),#347,.F.);
#360=ADVANCED_FACE('',(#44),#348,.F.);
#361=ADVANCED_FACE('',(#45),#349,.T.);
#362=ADVANCED_FACE('',(#46),#33,.T.);
#363=ADVANCED_FACE('',(#47),#350,.F.);
#364=ADVANCED_FACE('',(#48),#34,.T.);
#365=ADVANCED_FACE('',(#49,#17,#18,#19,#20),#35,.F.);
#366=ADVANCED_FACE('',(#50,#21,#22,#23,#24),#36,.T.);
#367=ADVANCED_FACE('',(#51),#351,.F.);
#368=ADVANCED_FACE('',(#52),#352,.F.);
#369=ADVANCED_FACE('',(#53),#353,.F.);
#370=ADVANCED_FACE('',(#54),#354,.F.);
#371=ADVANCED_FACE('',(#55),#355,.T.);
#372=ADVANCED_FACE('',(#56),#37,.T.);
#373=ADVANCED_FACE('',(#57),#356,.F.);
#374=ADVANCED_FACE('',(#58),#38,.T.);
#375=ADVANCED_FACE('',(#59,#25,#26,#27,#28),#39,.F.);
#376=ADVANCED_FACE('',(#60,#29,#30,#31,#32),#40,.T.);
#377=CLOSED_SHELL('',(#357,#358,#359,#360,#361,#362,#363,#364,#365,#366));
#378=CLOSED_SHELL('',(#367,#368,#369,#370,#371,#372,#373,#374,#375,#376));
#379=DERIVED_UNIT_ELEMENT(#381,1.);
#380=DERIVED_UNIT_ELEMENT(#656,-3.);
#381=(
MASS_UNIT()
NAMED_UNIT(*)
SI_UNIT(.KILO.,.GRAM.)
);
#382=DERIVED_UNIT((#379,#380));
#383=MEASURE_REPRESENTATION_ITEM('density measure',
POSITIVE_RATIO_MEASURE(7850.),#382);
#384=PROPERTY_DEFINITION_REPRESENTATION(#389,#386);
#385=PROPERTY_DEFINITION_REPRESENTATION(#390,#387);
#386=REPRESENTATION('material name',(#388),#653);
#387=REPRESENTATION('density',(#383),#653);
#388=DESCRIPTIVE_REPRESENTATION_ITEM('Steel','Steel');
#389=PROPERTY_DEFINITION('material property','material name',#663);
#390=PROPERTY_DEFINITION('material property','density of part',#663);
#391=AXIS2_PLACEMENT_3D('',#550,#436,#437);
#392=AXIS2_PLACEMENT_3D('',#551,#438,#439);
#393=AXIS2_PLACEMENT_3D('',#553,#440,#441);
#394=AXIS2_PLACEMENT_3D('',#556,#443,#444);
#395=AXIS2_PLACEMENT_3D('',#557,#445,#446);
#396=AXIS2_PLACEMENT_3D('',#559,#447,#448);
#397=AXIS2_PLACEMENT_3D('',#562,#450,#451);
#398=AXIS2_PLACEMENT_3D('',#563,#452,#453);
#399=AXIS2_PLACEMENT_3D('',#565,#454,#455);
#400=AXIS2_PLACEMENT_3D('',#568,#457,#458);
#401=AXIS2_PLACEMENT_3D('',#569,#459,#460);
#402=AXIS2_PLACEMENT_3D('',#571,#461,#462);
#403=AXIS2_PLACEMENT_3D('',#574,#464,#465);
#404=AXIS2_PLACEMENT_3D('',#575,#466,#467);
#405=AXIS2_PLACEMENT_3D('',#578,#468,#469);
#406=AXIS2_PLACEMENT_3D('',#582,#471,#472);
#407=AXIS2_PLACEMENT_3D('',#584,#474,#475);
#408=AXIS2_PLACEMENT_3D('',#590,#479,#480);
#409=AXIS2_PLACEMENT_3D('',#592,#481,#482);
#410=AXIS2_PLACEMENT_3D('',#595,#484,#485);
#411=AXIS2_PLACEMENT_3D('',#596,#486,#487);
#412=AXIS2_PLACEMENT_3D('',#599,#490,#491);
#413=AXIS2_PLACEMENT_3D('',#600,#492,#493);
#414=AXIS2_PLACEMENT_3D('',#601,#494,#495);
#415=AXIS2_PLACEMENT_3D('',#603,#496,#497);
#416=AXIS2_PLACEMENT_3D('',#606,#499,#500);
#417=AXIS2_PLACEMENT_3D('',#607,#501,#502);
#418=AXIS2_PLACEMENT_3D('',#609,#503,#504);
#419=AXIS2_PLACEMENT_3D('',#612,#506,#507);
#420=AXIS2_PLACEMENT_3D('',#613,#508,#509);
#421=AXIS2_PLACEMENT_3D('',#615,#510,#511);
#422=AXIS2_PLACEMENT_3D('',#618,#513,#514);
#423=AXIS2_PLACEMENT_3D('',#619,#515,#516);
#424=AXIS2_PLACEMENT_3D('',#621,#517,#518);
#425=AXIS2_PLACEMENT_3D('',#624,#520,#521);
#426=AXIS2_PLACEMENT_3D('',#625,#522,#523);
#427=AXIS2_PLACEMENT_3D('',#628,#524,#525);
#428=AXIS2_PLACEMENT_3D('',#632,#527,#528);
#429=AXIS2_PLACEMENT_3D('',#634,#530,#531);
#430=AXIS2_PLACEMENT_3D('',#640,#535,#536);
#431=AXIS2_PLACEMENT_3D('',#642,#537,#538);
#432=AXIS2_PLACEMENT_3D('',#645,#540,#541);
#433=AXIS2_PLACEMENT_3D('',#646,#542,#543);
#434=AXIS2_PLACEMENT_3D('',#649,#546,#547);
#435=AXIS2_PLACEMENT_3D('',#650,#548,#549);
#436=DIRECTION('axis',(0.,0.,1.));
#437=DIRECTION('refdir',(1.,0.,0.));
#438=DIRECTION('center_axis',(-1.,0.,0.));
#439=DIRECTION('ref_axis',(0.,0.,1.));
#440=DIRECTION('center_axis',(-1.,0.,0.));
#441=DIRECTION('ref_axis',(0.,0.,1.));
#442=DIRECTION('',(-1.,0.,0.));
#443=DIRECTION('center_axis',(-1.,0.,0.));
#444=DIRECTION('ref_axis',(0.,0.,1.));
#445=DIRECTION('center_axis',(-1.,0.,0.));
#446=DIRECTION('ref_axis',(0.,0.,1.));
#447=DIRECTION('center_axis',(-1.,0.,0.));
#448=DIRECTION('ref_axis',(0.,0.,1.));
#449=DIRECTION('',(-1.,0.,0.));
#450=DIRECTION('center_axis',(-1.,0.,0.));
#451=DIRECTION('ref_axis',(0.,0.,1.));
#452=DIRECTION('center_axis',(-1.,0.,0.));
#453=DIRECTION('ref_axis',(0.,0.,1.));
#454=DIRECTION('center_axis',(-1.,0.,0.));
#455=DIRECTION('ref_axis',(0.,0.,1.));
#456=DIRECTION('',(-1.,0.,0.));
#457=DIRECTION('center_axis',(-1.,0.,0.));
#458=DIRECTION('ref_axis',(0.,0.,1.));
#459=DIRECTION('center_axis',(-1.,0.,0.));
#460=DIRECTION('ref_axis',(0.,0.,1.));
#461=DIRECTION('center_axis',(-1.,0.,0.));
#462=DIRECTION('ref_axis',(0.,0.,1.));
#463=DIRECTION('',(-1.,0.,0.));
#464=DIRECTION('center_axis',(-1.,0.,0.));
#465=DIRECTION('ref_axis',(0.,0.,1.));
#466=DIRECTION('center_axis',(-1.,0.,0.));
#467=DIRECTION('ref_axis',(0.,0.,1.));
#468=DIRECTION('center_axis',(-1.,0.,0.));
#469=DIRECTION('ref_axis',(0.,0.,1.));
#470=DIRECTION('',(-1.,0.,0.));
#471=DIRECTION('center_axis',(-1.,0.,0.));
#472=DIRECTION('ref_axis',(0.,0.,1.));
#473=DIRECTION('',(-1.,0.,0.));
#474=DIRECTION('center_axis',(0.,-1.,0.));
#475=DIRECTION('ref_axis',(1.,0.,0.));
#476=DIRECTION('',(0.,0.,1.));
#477=DIRECTION('',(-1.,0.,0.));
#478=DIRECTION('',(0.,0.,1.));
#479=DIRECTION('center_axis',(-1.,0.,0.));
#480=DIRECTION('ref_axis',(0.,0.,1.));
#481=DIRECTION('center_axis',(1.,0.,0.));
#482=DIRECTION('ref_axis',(0.,0.,1.));
#483=DIRECTION('',(-1.,0.,0.));
#484=DIRECTION('center_axis',(1.,0.,0.));
#485=DIRECTION('ref_axis',(0.,0.,1.));
#486=DIRECTION('center_axis',(0.,-1.,0.));
#487=DIRECTION('ref_axis',(1.,0.,0.));
#488=DIRECTION('',(0.,0.,1.));
#489=DIRECTION('',(0.,0.,1.));
#490=DIRECTION('center_axis',(-1.,0.,0.));
#491=DIRECTION('ref_axis',(0.,0.,1.));
#492=DIRECTION('center_axis',(-1.,0.,0.));
#493=DIRECTION('ref_axis',(0.,0.,1.));
#494=DIRECTION('center_axis',(-1.,1.38666955995881E-32,-1.38777878078145E-17));
#495=DIRECTION('ref_axis',(1.38777878078145E-17,3.79822709830392E-65,-1.));
#496=DIRECTION('center_axis',(-1.,1.38666955995881E-32,-1.38777878078145E-17));
#497=DIRECTION('ref_axis',(1.38777878078145E-17,-1.92439059126638E-49,-1.));
#498=DIRECTION('',(-1.,1.38666955995881E-32,-1.38777878078145E-17));
#499=DIRECTION('center_axis',(-1.,1.38666955995881E-32,-1.38777878078145E-17));
#500=DIRECTION('ref_axis',(1.38777878078145E-17,3.79822709830392E-65,-1.));
#501=DIRECTION('center_axis',(-1.,1.38666955995881E-32,-1.38777878078145E-17));
#502=DIRECTION('ref_axis',(1.38777878078145E-17,-1.51929083932157E-64,-1.));
#503=DIRECTION('center_axis',(-1.,1.38666955995881E-32,-1.38777878078145E-17));
#504=DIRECTION('ref_axis',(1.38777878078145E-17,-1.92439059126638E-49,-1.));
#505=DIRECTION('',(-1.,1.38666955995881E-32,-1.38777878078145E-17));
#506=DIRECTION('center_axis',(-1.,1.38666955995881E-32,-1.38777878078145E-17));
#507=DIRECTION('ref_axis',(1.38777878078145E-17,3.79822709830392E-65,-1.));
#508=DIRECTION('center_axis',(-1.,1.38666955995881E-32,-1.38777878078145E-17));
#509=DIRECTION('ref_axis',(1.38777878078145E-17,3.79822709830392E-65,-1.));
#510=DIRECTION('center_axis',(-1.,1.38666955995881E-32,-1.38777878078145E-17));
#511=DIRECTION('ref_axis',(1.38777878078145E-17,-1.92439059126638E-49,-1.));
#512=DIRECTION('',(-1.,1.38666955995881E-32,-1.38777878078145E-17));
#513=DIRECTION('center_axis',(-1.,1.38666955995881E-32,-1.38777878078145E-17));
#514=DIRECTION('ref_axis',(1.38777878078145E-17,-1.51929083932157E-64,-1.));
#515=DIRECTION('center_axis',(-1.,1.38666955995881E-32,-1.38777878078145E-17));
#516=DIRECTION('ref_axis',(1.38777878078145E-17,-3.79822709830392E-64,-1.));
#517=DIRECTION('center_axis',(-1.,1.38666955995881E-32,-1.38777878078145E-17));
#518=DIRECTION('ref_axis',(1.38777878078145E-17,-1.92439059126638E-49,-1.));
#519=DIRECTION('',(-1.,1.38666955995881E-32,-1.38777878078145E-17));
#520=DIRECTION('center_axis',(-1.,1.38666955995881E-32,-1.38777878078145E-17));
#521=DIRECTION('ref_axis',(1.38777878078145E-17,3.79822709830392E-65,-1.));
#522=DIRECTION('center_axis',(-1.,1.38666955995881E-32,-1.38777878078145E-17));
#523=DIRECTION('ref_axis',(1.38777878078145E-17,2.46519032881566E-32,-1.));
#524=DIRECTION('center_axis',(-1.,1.38666955995881E-32,-1.38777878078145E-17));
#525=DIRECTION('ref_axis',(1.38777878078145E-17,2.46519032881566E-32,-1.));
#526=DIRECTION('',(-1.,1.38666955995881E-32,-1.38777878078145E-17));
#527=DIRECTION('center_axis',(-1.,1.38666955995881E-32,-1.38777878078145E-17));
#528=DIRECTION('ref_axis',(1.38777878078145E-17,2.46519032881566E-32,-1.));
#529=DIRECTION('',(-1.,1.38666955995881E-32,-1.38777878078145E-17));
#530=DIRECTION('center_axis',(1.38666955995881E-32,1.,-6.16297582203915E-32));
#531=DIRECTION('ref_axis',(1.,-1.38666955995881E-32,1.38777878078145E-17));
#532=DIRECTION('',(1.38777878078145E-17,2.46519032881566E-32,-1.));
#533=DIRECTION('',(-1.,1.38666955995881E-32,-1.38777878078145E-17));
#534=DIRECTION('',(1.38777878078145E-17,2.46519032881566E-32,-1.));
#535=DIRECTION('center_axis',(-1.,1.38666955995881E-32,-1.38777878078145E-17));
#536=DIRECTION('ref_axis',(1.38777878078145E-17,2.46519032881566E-32,-1.));
#537=DIRECTION('center_axis',(1.,-1.38666955995881E-32,1.38777878078145E-17));
#538=DIRECTION('ref_axis',(1.38777878078145E-17,2.46519032881566E-32,-1.));
#539=DIRECTION('',(-1.,1.38666955995881E-32,-1.38777878078145E-17));
#540=DIRECTION('center_axis',(1.,-1.38666955995881E-32,1.38777878078145E-17));
#541=DIRECTION('ref_axis',(1.38777878078145E-17,2.46519032881566E-32,-1.));
#542=DIRECTION('center_axis',(1.38666955995881E-32,1.,-6.16297582203915E-32));
#543=DIRECTION('ref_axis',(1.,-1.38666955995881E-32,1.38777878078145E-17));
#544=DIRECTION('',(1.38777878078145E-17,2.46519032881566E-32,-1.));
#545=DIRECTION('',(1.38777878078145E-17,2.46519032881566E-32,-1.));
#546=DIRECTION('center_axis',(-1.,1.38666955995881E-32,-1.38777878078145E-17));
#547=DIRECTION('ref_axis',(1.38777878078145E-17,2.46519032881566E-32,-1.));
#548=DIRECTION('center_axis',(-1.,1.38666955995881E-32,-1.38777878078145E-17));
#549=DIRECTION('ref_axis',(1.38777878078145E-17,2.46519032881566E-32,-1.));
#550=CARTESIAN_POINT('',(0.,0.,0.));
#551=CARTESIAN_POINT('Origin',(0.,17.6225720604124,42.5446524721447));
#552=CARTESIAN_POINT('',(12.,17.6225720604124,39.1446524721447));
#553=CARTESIAN_POINT('Origin',(12.,17.6225720604124,42.5446524721447));
#554=CARTESIAN_POINT('',(-1.13888390905481E-15,17.6225720604124,39.1446524721447));
#555=CARTESIAN_POINT('',(0.,17.6225720604124,39.1446524721447));
#556=CARTESIAN_POINT('Origin',(-1.13888390905481E-15,17.6225720604124,42.5446524721447));
#557=CARTESIAN_POINT('Origin',(0.,42.5446524721448,17.6225720604123));
#558=CARTESIAN_POINT('',(12.,42.5446524721448,14.2225720604123));
#559=CARTESIAN_POINT('Origin',(12.,42.5446524721448,17.6225720604123));
#560=CARTESIAN_POINT('',(-1.13888390905481E-15,42.5446524721448,14.2225720604123));
#561=CARTESIAN_POINT('',(0.,42.5446524721448,14.2225720604123));
#562=CARTESIAN_POINT('Origin',(-1.13888390905481E-15,42.5446524721448,17.6225720604123));
#563=CARTESIAN_POINT('Origin',(0.,42.5446524721447,-17.6225720604126));
#564=CARTESIAN_POINT('',(12.,42.5446524721447,-21.0225720604126));
#565=CARTESIAN_POINT('Origin',(12.,42.5446524721447,-17.6225720604126));
#566=CARTESIAN_POINT('',(-1.13888390905481E-15,42.5446524721447,-21.0225720604126));
#567=CARTESIAN_POINT('',(0.,42.5446524721447,-21.0225720604126));
#568=CARTESIAN_POINT('Origin',(-1.13888390905481E-15,42.5446524721447,-17.6225720604126));
#569=CARTESIAN_POINT('Origin',(0.,17.6225720604121,-42.5446524721449));
#570=CARTESIAN_POINT('',(12.,17.6225720604121,-45.9446524721449));
#571=CARTESIAN_POINT('Origin',(12.,17.6225720604121,-42.5446524721449));
#572=CARTESIAN_POINT('',(-1.13888390905481E-15,17.6225720604121,-45.9446524721449));
#573=CARTESIAN_POINT('',(0.,17.6225720604121,-45.9446524721449));
#574=CARTESIAN_POINT('Origin',(-1.13888390905481E-15,17.6225720604121,-42.5446524721449));
#575=CARTESIAN_POINT('Origin',(12.,0.,0.));
#576=CARTESIAN_POINT('',(0.,2.,56.714746759551));
#577=CARTESIAN_POINT('',(0.,2.,-56.714746759551));
#578=CARTESIAN_POINT('Origin',(0.,0.,0.));
#579=CARTESIAN_POINT('',(12.,2.,56.714746759551));
#580=CARTESIAN_POINT('',(12.,2.,56.714746759551));
#581=CARTESIAN_POINT('',(12.,2.,-56.714746759551));
#582=CARTESIAN_POINT('Origin',(12.,0.,0.));
#583=CARTESIAN_POINT('',(12.,2.,-56.714746759551));
#584=CARTESIAN_POINT('Origin',(12.,2.,39.9499687108764));
#585=CARTESIAN_POINT('',(0.,2.,39.9499687108764));
#586=CARTESIAN_POINT('',(0.,2.,39.9499687108764));
#587=CARTESIAN_POINT('',(12.,2.,39.9499687108764));
#588=CARTESIAN_POINT('',(12.,2.,39.9499687108764));
#589=CARTESIAN_POINT('',(12.,2.,39.9499687108764));
#590=CARTESIAN_POINT('Origin',(12.,0.,0.));
#591=CARTESIAN_POINT('',(0.,2.,-39.9499687108764));
#592=CARTESIAN_POINT('Origin',(0.,0.,0.));
#593=CARTESIAN_POINT('',(12.,2.,-39.9499687108764));
#594=CARTESIAN_POINT('',(12.,2.,-39.9499687108764));
#595=CARTESIAN_POINT('Origin',(12.,0.,0.));
#596=CARTESIAN_POINT('Origin',(12.,2.,-56.714746759551));
#597=CARTESIAN_POINT('',(0.,2.,-56.714746759551));
#598=CARTESIAN_POINT('',(12.,2.,-56.714746759551));
#599=CARTESIAN_POINT('Origin',(12.,0.,0.));
#600=CARTESIAN_POINT('Origin',(0.,0.,0.));
#601=CARTESIAN_POINT('Origin',(5.90425659365633E-16,-17.6225720604124,-42.5446524721447));
#602=CARTESIAN_POINT('',(12.,-17.6225720604124,-39.1446524721447));
#603=CARTESIAN_POINT('Origin',(12.,-17.6225720604124,-42.5446524721447));
#604=CARTESIAN_POINT('',(-5.95642728235744E-16,-17.6225720604124,-39.1446524721447));
#605=CARTESIAN_POINT('',(5.43241180819064E-16,-17.6225720604124,-39.1446524721447));
#606=CARTESIAN_POINT('Origin',(-5.48458249689175E-16,-17.6225720604124,
-42.5446524721447));
#607=CARTESIAN_POINT('Origin',(2.44562315682321E-16,-42.5446524721448,-17.6225720604123));
#608=CARTESIAN_POINT('',(12.,-42.5446524721448,-14.2225720604123));
#609=CARTESIAN_POINT('Origin',(12.,-42.5446524721448,-17.6225720604123));
#610=CARTESIAN_POINT('',(-9.41506071919056E-16,-42.5446524721448,-14.2225720604123));
#611=CARTESIAN_POINT('',(1.97377837135752E-16,-42.5446524721448,-14.2225720604123));
#612=CARTESIAN_POINT('Origin',(-8.94321593372487E-16,-42.5446524721448,
-17.6225720604123));
#613=CARTESIAN_POINT('Origin',(-2.44562315682325E-16,-42.5446524721447,
17.6225720604126));
#614=CARTESIAN_POINT('',(12.,-42.5446524721447,21.0225720604126));
#615=CARTESIAN_POINT('Origin',(12.,-42.5446524721447,17.6225720604126));
#616=CARTESIAN_POINT('',(-1.4306307032837E-15,-42.5446524721447,21.0225720604126));
#617=CARTESIAN_POINT('',(-2.91746794228894E-16,-42.5446524721447,21.0225720604126));
#618=CARTESIAN_POINT('Origin',(-1.38344622473713E-15,-42.5446524721447,
17.6225720604126));
#619=CARTESIAN_POINT('Origin',(-5.90425659365635E-16,-17.6225720604121,
42.5446524721449));
#620=CARTESIAN_POINT('',(12.,-17.6225720604121,45.9446524721449));
#621=CARTESIAN_POINT('Origin',(12.,-17.6225720604121,42.5446524721449));
#622=CARTESIAN_POINT('',(-1.77649404696701E-15,-17.6225720604121,45.9446524721449));
#623=CARTESIAN_POINT('',(-6.37610137912204E-16,-17.6225720604121,45.9446524721449));
#624=CARTESIAN_POINT('Origin',(-1.72930956842044E-15,-17.6225720604121,
42.5446524721449));
#625=CARTESIAN_POINT('Origin',(12.,-1.66400347195057E-31,1.66533453693774E-16));
#626=CARTESIAN_POINT('',(7.87075221102981E-16,-2.,-56.714746759551));
#627=CARTESIAN_POINT('',(-7.87075221102981E-16,-2.,56.714746759551));
#628=CARTESIAN_POINT('Origin',(0.,0.,0.));
#629=CARTESIAN_POINT('',(12.,-2.,-56.714746759551));
#630=CARTESIAN_POINT('',(12.,-2.,-56.714746759551));
#631=CARTESIAN_POINT('',(12.,-2.,56.714746759551));
#632=CARTESIAN_POINT('Origin',(12.,-1.66400347195057E-31,1.66533453693774E-16));
#633=CARTESIAN_POINT('',(12.,-2.,56.714746759551));
#634=CARTESIAN_POINT('Origin',(12.,-2.,-39.9499687108764));
#635=CARTESIAN_POINT('',(5.54417188698369E-16,-2.,-39.9499687108764));
#636=CARTESIAN_POINT('',(5.54417188698369E-16,-2.,-39.9499687108764));
#637=CARTESIAN_POINT('',(12.,-2.,-39.9499687108764));
#638=CARTESIAN_POINT('',(12.,-2.,-39.9499687108764));
#639=CARTESIAN_POINT('',(12.,-2.,-39.9499687108764));
#640=CARTESIAN_POINT('Origin',(12.,-1.66400347195057E-31,1.66533453693774E-16));
#641=CARTESIAN_POINT('',(-5.54417188698369E-16,-2.,39.9499687108764));
#642=CARTESIAN_POINT('Origin',(0.,0.,0.));
#643=CARTESIAN_POINT('',(12.,-2.,39.9499687108764));
#644=CARTESIAN_POINT('',(12.,-2.,39.9499687108764));
#645=CARTESIAN_POINT('Origin',(12.,-1.66400347195057E-31,1.66533453693774E-16));
#646=CARTESIAN_POINT('Origin',(12.,-2.,56.714746759551));
#647=CARTESIAN_POINT('',(-7.87075221102981E-16,-2.,56.714746759551));
#648=CARTESIAN_POINT('',(12.,-2.,56.714746759551));
#649=CARTESIAN_POINT('Origin',(12.,-1.66400347195057E-31,1.66533453693774E-16));
#650=CARTESIAN_POINT('Origin',(0.,0.,0.));
#651=UNCERTAINTY_MEASURE_WITH_UNIT(LENGTH_MEASURE(0.01),#655,
'DISTANCE_ACCURACY_VALUE',
'Maximum model space distance between geometric entities at asserted c
onnectivities');
#652=UNCERTAINTY_MEASURE_WITH_UNIT(LENGTH_MEASURE(0.01),#655,
'DISTANCE_ACCURACY_VALUE',
'Maximum model space distance between geometric entities at asserted c
onnectivities');
#653=(
GEOMETRIC_REPRESENTATION_CONTEXT(3)
GLOBAL_UNCERTAINTY_ASSIGNED_CONTEXT((#651))
GLOBAL_UNIT_ASSIGNED_CONTEXT((#655,#657,#658))
REPRESENTATION_CONTEXT('','3D')
);
#654=(
GEOMETRIC_REPRESENTATION_CONTEXT(3)
GLOBAL_UNCERTAINTY_ASSIGNED_CONTEXT((#652))
GLOBAL_UNIT_ASSIGNED_CONTEXT((#655,#657,#658))
REPRESENTATION_CONTEXT('','3D')
);
#655=(
LENGTH_UNIT()
NAMED_UNIT(*)
SI_UNIT(.MILLI.,.METRE.)
);
#656=(
LENGTH_UNIT()
NAMED_UNIT(*)
SI_UNIT($,.METRE.)
);
#657=(
NAMED_UNIT(*)
PLANE_ANGLE_UNIT()
SI_UNIT($,.RADIAN.)
);
#658=(
NAMED_UNIT(*)
SI_UNIT($,.STERADIAN.)
SOLID_ANGLE_UNIT()
);
#659=SHAPE_DEFINITION_REPRESENTATION(#660,#661);
#660=PRODUCT_DEFINITION_SHAPE('',$,#663);
#661=SHAPE_REPRESENTATION('',(#391),#653);
#662=PRODUCT_DEFINITION_CONTEXT('part definition',#667,'design');
#663=PRODUCT_DEFINITION('420BMH063 (1)','420BMH063 (1) v1',#664,#662);
#664=PRODUCT_DEFINITION_FORMATION('',$,#669);
#665=PRODUCT_RELATED_PRODUCT_CATEGORY('420BMH063 (1) v1',
'420BMH063 (1) v1',(#669));
#666=APPLICATION_PROTOCOL_DEFINITION('international standard',
'automotive_design',2009,#667);
#667=APPLICATION_CONTEXT(
'Core Data for Automotive Mechanical Design Process');
#668=PRODUCT_CONTEXT('part definition',#667,'mechanical');
#669=PRODUCT('420BMH063 (1)','420BMH063 (1) v1',$,(#668));
#670=PRESENTATION_STYLE_ASSIGNMENT((#672));
#671=PRESENTATION_STYLE_ASSIGNMENT((#673));
#672=SURFACE_STYLE_USAGE(.BOTH.,#674);
#673=SURFACE_STYLE_USAGE(.BOTH.,#675);
#674=SURFACE_SIDE_STYLE('',(#676));
#675=SURFACE_SIDE_STYLE('',(#677));
#676=SURFACE_STYLE_FILL_AREA(#678);
#677=SURFACE_STYLE_FILL_AREA(#679);
#678=FILL_AREA_STYLE('Steel - Satin',(#680));
#679=FILL_AREA_STYLE('Opaque(202,209,238)',(#681));
#680=FILL_AREA_STYLE_COLOUR('Steel - Satin',#682);
#681=FILL_AREA_STYLE_COLOUR('Opaque(202,209,238)',#683);
#682=COLOUR_RGB('Steel - Satin',0.627450980392157,0.627450980392157,0.627450980392157);
#683=COLOUR_RGB('Opaque(202,209,238)',0.792156862745098,0.819607843137255,
0.933333333333333);
ENDSEC;
END-ISO-10303-21;
