ISO-10303-21;
HEADER;
/* Generated by software containing ST-Developer
 * from STEP Tools, Inc. (www.steptools.com) 
 */

FILE_DESCRIPTION(
/* description */ (''),
/* implementation_level */ '2;1');

FILE_NAME(
/* name */ 'Hositrad_ISO-K63B v1.step',
/* time_stamp */ '2024-06-25T14:26:38+02:00',
/* author */ (''),
/* organization */ (''),
/* preprocessor_version */ 'ST-DEVELOPER v20',
/* originating_system */ 'Autodesk Translation Framework v13.14.0.145',

/* authorisation */ '');

FILE_SCHEMA (('AUTOMOTIVE_DESIGN { 1 0 10303 214 3 1 1 }'));
ENDSEC;

DATA;
#10=MECHANICAL_DESIGN_GEOMETRIC_PRESENTATION_REPRESENTATION('',(#13),#497);
#11=SHAPE_REPRESENTATION_RELATIONSHIP('SRR','None',#504,#12);
#12=ADVANCED_BREP_SHAPE_REPRESENTATION('',(#14),#496);
#13=STYLED_ITEM('',(#514),#14);
#14=MANIFOLD_SOLID_BREP('Body1',#268);
#15=FACE_BOUND('',#95,.T.);
#16=FACE_BOUND('',#97,.T.);
#17=FACE_BOUND('',#99,.T.);
#18=FACE_BOUND('',#101,.T.);
#19=PLANE('',#317);
#20=PLANE('',#318);
#21=PLANE('',#319);
#22=PLANE('',#320);
#23=PLANE('',#321);
#24=PLANE('',#322);
#25=CYLINDRICAL_SURFACE('',#307,31.5);
#26=CYLINDRICAL_SURFACE('',#309,35.);
#27=CYLINDRICAL_SURFACE('',#311,47.5);
#28=CYLINDRICAL_SURFACE('',#312,47.5);
#29=CYLINDRICAL_SURFACE('',#313,45.);
#30=CYLINDRICAL_SURFACE('',#315,40.);
#31=LINE('',#430,#43);
#32=LINE('',#438,#44);
#33=LINE('',#444,#45);
#34=LINE('',#452,#46);
#35=LINE('',#460,#47);
#36=LINE('',#466,#48);
#37=LINE('',#471,#49);
#38=LINE('',#474,#50);
#39=LINE('',#477,#51);
#40=LINE('',#479,#52);
#41=LINE('',#483,#53);
#42=LINE('',#486,#54);
#43=VECTOR('',#337,45.);
#44=VECTOR('',#346,39.6);
#45=VECTOR('',#353,31.5);
#46=VECTOR('',#362,35.4);
#47=VECTOR('',#371,47.1);
#48=VECTOR('',#378,47.5);
#49=VECTOR('',#385,31.5);
#50=VECTOR('',#388,35.);
#51=VECTOR('',#393,47.5);
#52=VECTOR('',#396,47.5);
#53=VECTOR('',#401,45.);
#54=VECTOR('',#404,40.);
#55=CONICAL_SURFACE('',#286,45.,0.785398163397448);
#56=CONICAL_SURFACE('',#289,39.6,0.785398163397448);
#57=CONICAL_SURFACE('',#293,31.5,0.78539816339744);
#58=CONICAL_SURFACE('',#296,35.4,0.785398163397448);
#59=CONICAL_SURFACE('',#300,47.1,0.785398163397431);
#60=CONICAL_SURFACE('',#304,47.5,0.78539816339744);
#61=FACE_OUTER_BOUND('',#80,.T.);
#62=FACE_OUTER_BOUND('',#81,.T.);
#63=FACE_OUTER_BOUND('',#82,.T.);
#64=FACE_OUTER_BOUND('',#83,.T.);
#65=FACE_OUTER_BOUND('',#84,.T.);
#66=FACE_OUTER_BOUND('',#85,.T.);
#67=FACE_OUTER_BOUND('',#86,.T.);
#68=FACE_OUTER_BOUND('',#87,.T.);
#69=FACE_OUTER_BOUND('',#88,.T.);
#70=FACE_OUTER_BOUND('',#89,.T.);
#71=FACE_OUTER_BOUND('',#90,.T.);
#72=FACE_OUTER_BOUND('',#91,.T.);
#73=FACE_OUTER_BOUND('',#92,.T.);
#74=FACE_OUTER_BOUND('',#93,.T.);
#75=FACE_OUTER_BOUND('',#94,.T.);
#76=FACE_OUTER_BOUND('',#96,.T.);
#77=FACE_OUTER_BOUND('',#98,.T.);
#78=FACE_OUTER_BOUND('',#100,.T.);
#79=FACE_OUTER_BOUND('',#102,.T.);
#80=EDGE_LOOP('',(#180,#181,#182,#183));
#81=EDGE_LOOP('',(#184,#185,#186,#187));
#82=EDGE_LOOP('',(#188,#189,#190,#191,#192));
#83=EDGE_LOOP('',(#193,#194,#195,#196));
#84=EDGE_LOOP('',(#197,#198,#199,#200,#201));
#85=EDGE_LOOP('',(#202,#203,#204,#205,#206));
#86=EDGE_LOOP('',(#207,#208,#209,#210));
#87=EDGE_LOOP('',(#211,#212,#213,#214));
#88=EDGE_LOOP('',(#215,#216,#217,#218,#219));
#89=EDGE_LOOP('',(#220,#221,#222,#223));
#90=EDGE_LOOP('',(#224,#225,#226,#227,#228));
#91=EDGE_LOOP('',(#229,#230,#231,#232));
#92=EDGE_LOOP('',(#233,#234,#235,#236,#237));
#93=EDGE_LOOP('',(#238));
#94=EDGE_LOOP('',(#239));
#95=EDGE_LOOP('',(#240));
#96=EDGE_LOOP('',(#241));
#97=EDGE_LOOP('',(#242));
#98=EDGE_LOOP('',(#243));
#99=EDGE_LOOP('',(#244));
#100=EDGE_LOOP('',(#245));
#101=EDGE_LOOP('',(#246));
#102=EDGE_LOOP('',(#247));
#103=CIRCLE('',#283,47.5);
#104=CIRCLE('',#284,1.5);
#105=CIRCLE('',#285,47.5);
#106=CIRCLE('',#287,45.);
#107=CIRCLE('',#288,45.3999999999999);
#108=CIRCLE('',#290,40.);
#109=CIRCLE('',#291,40.);
#110=CIRCLE('',#292,39.6);
#111=CIRCLE('',#294,31.5);
#112=CIRCLE('',#295,31.1);
#113=CIRCLE('',#297,35.);
#114=CIRCLE('',#298,35.);
#115=CIRCLE('',#299,35.4);
#116=CIRCLE('',#301,47.5);
#117=CIRCLE('',#302,47.5);
#118=CIRCLE('',#303,47.1);
#119=CIRCLE('',#305,47.5);
#120=CIRCLE('',#306,47.1);
#121=CIRCLE('',#308,31.5);
#122=CIRCLE('',#310,35.);
#123=CIRCLE('',#314,45.);
#124=CIRCLE('',#316,40.);
#125=VERTEX_POINT('',#421);
#126=VERTEX_POINT('',#423);
#127=VERTEX_POINT('',#427);
#128=VERTEX_POINT('',#429);
#129=VERTEX_POINT('',#433);
#130=VERTEX_POINT('',#434);
#131=VERTEX_POINT('',#437);
#132=VERTEX_POINT('',#441);
#133=VERTEX_POINT('',#443);
#134=VERTEX_POINT('',#447);
#135=VERTEX_POINT('',#448);
#136=VERTEX_POINT('',#451);
#137=VERTEX_POINT('',#455);
#138=VERTEX_POINT('',#456);
#139=VERTEX_POINT('',#459);
#140=VERTEX_POINT('',#463);
#141=VERTEX_POINT('',#465);
#142=VERTEX_POINT('',#469);
#143=VERTEX_POINT('',#473);
#144=VERTEX_POINT('',#481);
#145=VERTEX_POINT('',#485);
#146=EDGE_CURVE('',#125,#125,#103,.T.);
#147=EDGE_CURVE('',#125,#126,#104,.T.);
#148=EDGE_CURVE('',#126,#126,#105,.T.);
#149=EDGE_CURVE('',#127,#127,#106,.T.);
#150=EDGE_CURVE('',#127,#128,#31,.T.);
#151=EDGE_CURVE('',#128,#128,#107,.T.);
#152=EDGE_CURVE('',#129,#130,#108,.T.);
#153=EDGE_CURVE('',#130,#129,#109,.T.);
#154=EDGE_CURVE('',#130,#131,#32,.T.);
#155=EDGE_CURVE('',#131,#131,#110,.T.);
#156=EDGE_CURVE('',#132,#132,#111,.T.);
#157=EDGE_CURVE('',#132,#133,#33,.T.);
#158=EDGE_CURVE('',#133,#133,#112,.T.);
#159=EDGE_CURVE('',#134,#135,#113,.T.);
#160=EDGE_CURVE('',#135,#134,#114,.T.);
#161=EDGE_CURVE('',#135,#136,#34,.T.);
#162=EDGE_CURVE('',#136,#136,#115,.T.);
#163=EDGE_CURVE('',#137,#138,#116,.T.);
#164=EDGE_CURVE('',#138,#137,#117,.T.);
#165=EDGE_CURVE('',#138,#139,#35,.T.);
#166=EDGE_CURVE('',#139,#139,#118,.T.);
#167=EDGE_CURVE('',#140,#140,#119,.T.);
#168=EDGE_CURVE('',#140,#141,#36,.T.);
#169=EDGE_CURVE('',#141,#141,#120,.T.);
#170=EDGE_CURVE('',#142,#142,#121,.T.);
#171=EDGE_CURVE('',#142,#132,#37,.T.);
#172=EDGE_CURVE('',#134,#143,#38,.T.);
#173=EDGE_CURVE('',#143,#143,#122,.T.);
#174=EDGE_CURVE('',#126,#140,#39,.T.);
#175=EDGE_CURVE('',#137,#125,#40,.T.);
#176=EDGE_CURVE('',#144,#144,#123,.T.);
#177=EDGE_CURVE('',#144,#127,#41,.T.);
#178=EDGE_CURVE('',#129,#145,#42,.T.);
#179=EDGE_CURVE('',#145,#145,#124,.T.);
#180=ORIENTED_EDGE('',*,*,#146,.F.);
#181=ORIENTED_EDGE('',*,*,#147,.T.);
#182=ORIENTED_EDGE('',*,*,#148,.T.);
#183=ORIENTED_EDGE('',*,*,#147,.F.);
#184=ORIENTED_EDGE('',*,*,#149,.F.);
#185=ORIENTED_EDGE('',*,*,#150,.T.);
#186=ORIENTED_EDGE('',*,*,#151,.F.);
#187=ORIENTED_EDGE('',*,*,#150,.F.);
#188=ORIENTED_EDGE('',*,*,#152,.F.);
#189=ORIENTED_EDGE('',*,*,#153,.F.);
#190=ORIENTED_EDGE('',*,*,#154,.T.);
#191=ORIENTED_EDGE('',*,*,#155,.F.);
#192=ORIENTED_EDGE('',*,*,#154,.F.);
#193=ORIENTED_EDGE('',*,*,#156,.F.);
#194=ORIENTED_EDGE('',*,*,#157,.T.);
#195=ORIENTED_EDGE('',*,*,#158,.F.);
#196=ORIENTED_EDGE('',*,*,#157,.F.);
#197=ORIENTED_EDGE('',*,*,#159,.F.);
#198=ORIENTED_EDGE('',*,*,#160,.F.);
#199=ORIENTED_EDGE('',*,*,#161,.T.);
#200=ORIENTED_EDGE('',*,*,#162,.F.);
#201=ORIENTED_EDGE('',*,*,#161,.F.);
#202=ORIENTED_EDGE('',*,*,#163,.F.);
#203=ORIENTED_EDGE('',*,*,#164,.F.);
#204=ORIENTED_EDGE('',*,*,#165,.T.);
#205=ORIENTED_EDGE('',*,*,#166,.F.);
#206=ORIENTED_EDGE('',*,*,#165,.F.);
#207=ORIENTED_EDGE('',*,*,#167,.F.);
#208=ORIENTED_EDGE('',*,*,#168,.T.);
#209=ORIENTED_EDGE('',*,*,#169,.F.);
#210=ORIENTED_EDGE('',*,*,#168,.F.);
#211=ORIENTED_EDGE('',*,*,#170,.F.);
#212=ORIENTED_EDGE('',*,*,#171,.T.);
#213=ORIENTED_EDGE('',*,*,#156,.T.);
#214=ORIENTED_EDGE('',*,*,#171,.F.);
#215=ORIENTED_EDGE('',*,*,#159,.T.);
#216=ORIENTED_EDGE('',*,*,#160,.T.);
#217=ORIENTED_EDGE('',*,*,#172,.T.);
#218=ORIENTED_EDGE('',*,*,#173,.T.);
#219=ORIENTED_EDGE('',*,*,#172,.F.);
#220=ORIENTED_EDGE('',*,*,#148,.F.);
#221=ORIENTED_EDGE('',*,*,#174,.T.);
#222=ORIENTED_EDGE('',*,*,#167,.T.);
#223=ORIENTED_EDGE('',*,*,#174,.F.);
#224=ORIENTED_EDGE('',*,*,#163,.T.);
#225=ORIENTED_EDGE('',*,*,#164,.T.);
#226=ORIENTED_EDGE('',*,*,#175,.T.);
#227=ORIENTED_EDGE('',*,*,#146,.T.);
#228=ORIENTED_EDGE('',*,*,#175,.F.);
#229=ORIENTED_EDGE('',*,*,#176,.F.);
#230=ORIENTED_EDGE('',*,*,#177,.T.);
#231=ORIENTED_EDGE('',*,*,#149,.T.);
#232=ORIENTED_EDGE('',*,*,#177,.F.);
#233=ORIENTED_EDGE('',*,*,#152,.T.);
#234=ORIENTED_EDGE('',*,*,#153,.T.);
#235=ORIENTED_EDGE('',*,*,#178,.T.);
#236=ORIENTED_EDGE('',*,*,#179,.T.);
#237=ORIENTED_EDGE('',*,*,#178,.F.);
#238=ORIENTED_EDGE('',*,*,#155,.T.);
#239=ORIENTED_EDGE('',*,*,#176,.T.);
#240=ORIENTED_EDGE('',*,*,#179,.F.);
#241=ORIENTED_EDGE('',*,*,#166,.T.);
#242=ORIENTED_EDGE('',*,*,#151,.T.);
#243=ORIENTED_EDGE('',*,*,#169,.T.);
#244=ORIENTED_EDGE('',*,*,#162,.T.);
#245=ORIENTED_EDGE('',*,*,#173,.F.);
#246=ORIENTED_EDGE('',*,*,#170,.T.);
#247=ORIENTED_EDGE('',*,*,#158,.T.);
#248=TOROIDAL_SURFACE('',#282,47.5,1.5);
#249=ADVANCED_FACE('',(#61),#248,.F.);
#250=ADVANCED_FACE('',(#62),#55,.F.);
#251=ADVANCED_FACE('',(#63),#56,.T.);
#252=ADVANCED_FACE('',(#64),#57,.T.);
#253=ADVANCED_FACE('',(#65),#58,.F.);
#254=ADVANCED_FACE('',(#66),#59,.T.);
#255=ADVANCED_FACE('',(#67),#60,.T.);
#256=ADVANCED_FACE('',(#68),#25,.T.);
#257=ADVANCED_FACE('',(#69),#26,.F.);
#258=ADVANCED_FACE('',(#70),#27,.T.);
#259=ADVANCED_FACE('',(#71),#28,.T.);
#260=ADVANCED_FACE('',(#72),#29,.F.);
#261=ADVANCED_FACE('',(#73),#30,.T.);
#262=ADVANCED_FACE('',(#74),#19,.T.);
#263=ADVANCED_FACE('',(#75,#15),#20,.T.);
#264=ADVANCED_FACE('',(#76,#16),#21,.T.);
#265=ADVANCED_FACE('',(#77,#17),#22,.T.);
#266=ADVANCED_FACE('',(#78,#18),#23,.T.);
#267=ADVANCED_FACE('',(#79),#24,.T.);
#268=CLOSED_SHELL('',(#249,#250,#251,#252,#253,#254,#255,#256,#257,#258,
#259,#260,#261,#262,#263,#264,#265,#266,#267));
#269=DERIVED_UNIT_ELEMENT(#271,1.);
#270=DERIVED_UNIT_ELEMENT(#499,-3.);
#271=(
MASS_UNIT()
NAMED_UNIT(*)
SI_UNIT(.KILO.,.GRAM.)
);
#272=DERIVED_UNIT((#269,#270));
#273=MEASURE_REPRESENTATION_ITEM('density measure',
POSITIVE_RATIO_MEASURE(7850.),#272);
#274=PROPERTY_DEFINITION_REPRESENTATION(#279,#276);
#275=PROPERTY_DEFINITION_REPRESENTATION(#280,#277);
#276=REPRESENTATION('material name',(#278),#496);
#277=REPRESENTATION('density',(#273),#496);
#278=DESCRIPTIVE_REPRESENTATION_ITEM('Steel','Steel');
#279=PROPERTY_DEFINITION('material property','material name',#506);
#280=PROPERTY_DEFINITION('material property','density of part',#506);
#281=AXIS2_PLACEMENT_3D('',#419,#323,#324);
#282=AXIS2_PLACEMENT_3D('',#420,#325,#326);
#283=AXIS2_PLACEMENT_3D('',#422,#327,#328);
#284=AXIS2_PLACEMENT_3D('',#424,#329,#330);
#285=AXIS2_PLACEMENT_3D('',#425,#331,#332);
#286=AXIS2_PLACEMENT_3D('',#426,#333,#334);
#287=AXIS2_PLACEMENT_3D('',#428,#335,#336);
#288=AXIS2_PLACEMENT_3D('',#431,#338,#339);
#289=AXIS2_PLACEMENT_3D('',#432,#340,#341);
#290=AXIS2_PLACEMENT_3D('',#435,#342,#343);
#291=AXIS2_PLACEMENT_3D('',#436,#344,#345);
#292=AXIS2_PLACEMENT_3D('',#439,#347,#348);
#293=AXIS2_PLACEMENT_3D('',#440,#349,#350);
#294=AXIS2_PLACEMENT_3D('',#442,#351,#352);
#295=AXIS2_PLACEMENT_3D('',#445,#354,#355);
#296=AXIS2_PLACEMENT_3D('',#446,#356,#357);
#297=AXIS2_PLACEMENT_3D('',#449,#358,#359);
#298=AXIS2_PLACEMENT_3D('',#450,#360,#361);
#299=AXIS2_PLACEMENT_3D('',#453,#363,#364);
#300=AXIS2_PLACEMENT_3D('',#454,#365,#366);
#301=AXIS2_PLACEMENT_3D('',#457,#367,#368);
#302=AXIS2_PLACEMENT_3D('',#458,#369,#370);
#303=AXIS2_PLACEMENT_3D('',#461,#372,#373);
#304=AXIS2_PLACEMENT_3D('',#462,#374,#375);
#305=AXIS2_PLACEMENT_3D('',#464,#376,#377);
#306=AXIS2_PLACEMENT_3D('',#467,#379,#380);
#307=AXIS2_PLACEMENT_3D('',#468,#381,#382);
#308=AXIS2_PLACEMENT_3D('',#470,#383,#384);
#309=AXIS2_PLACEMENT_3D('',#472,#386,#387);
#310=AXIS2_PLACEMENT_3D('',#475,#389,#390);
#311=AXIS2_PLACEMENT_3D('',#476,#391,#392);
#312=AXIS2_PLACEMENT_3D('',#478,#394,#395);
#313=AXIS2_PLACEMENT_3D('',#480,#397,#398);
#314=AXIS2_PLACEMENT_3D('',#482,#399,#400);
#315=AXIS2_PLACEMENT_3D('',#484,#402,#403);
#316=AXIS2_PLACEMENT_3D('',#487,#405,#406);
#317=AXIS2_PLACEMENT_3D('',#488,#407,#408);
#318=AXIS2_PLACEMENT_3D('',#489,#409,#410);
#319=AXIS2_PLACEMENT_3D('',#490,#411,#412);
#320=AXIS2_PLACEMENT_3D('',#491,#413,#414);
#321=AXIS2_PLACEMENT_3D('',#492,#415,#416);
#322=AXIS2_PLACEMENT_3D('',#493,#417,#418);
#323=DIRECTION('axis',(0.,0.,1.));
#324=DIRECTION('refdir',(1.,0.,0.));
#325=DIRECTION('center_axis',(0.,1.,0.));
#326=DIRECTION('ref_axis',(0.,0.,1.));
#327=DIRECTION('center_axis',(0.,1.,0.));
#328=DIRECTION('ref_axis',(0.,0.,1.));
#329=DIRECTION('center_axis',(1.,0.,-1.22464679914735E-16));
#330=DIRECTION('ref_axis',(-1.22464679914735E-16,0.,-1.));
#331=DIRECTION('center_axis',(0.,1.,0.));
#332=DIRECTION('ref_axis',(0.,0.,1.));
#333=DIRECTION('center_axis',(0.,1.,0.));
#334=DIRECTION('ref_axis',(0.,0.,1.));
#335=DIRECTION('center_axis',(0.,1.,0.));
#336=DIRECTION('ref_axis',(0.,0.,1.));
#337=DIRECTION('',(-8.65956056235494E-17,0.707106781186548,-0.707106781186548));
#338=DIRECTION('center_axis',(0.,-1.,0.));
#339=DIRECTION('ref_axis',(0.,0.,1.));
#340=DIRECTION('center_axis',(0.,-1.,0.));
#341=DIRECTION('ref_axis',(0.,0.,-1.));
#342=DIRECTION('center_axis',(0.,-1.,0.));
#343=DIRECTION('ref_axis',(0.,0.,1.));
#344=DIRECTION('center_axis',(0.,-1.,0.));
#345=DIRECTION('ref_axis',(0.,0.,1.));
#346=DIRECTION('',(8.65956056235493E-17,0.707106781186547,-0.707106781186547));
#347=DIRECTION('center_axis',(0.,1.,0.));
#348=DIRECTION('ref_axis',(0.,0.,1.));
#349=DIRECTION('center_axis',(0.,1.,0.));
#350=DIRECTION('ref_axis',(0.,0.,1.));
#351=DIRECTION('center_axis',(0.,1.,0.));
#352=DIRECTION('ref_axis',(0.,0.,-1.));
#353=DIRECTION('',(8.65956056235486E-17,-0.707106781186554,0.707106781186541));
#354=DIRECTION('center_axis',(0.,-1.,0.));
#355=DIRECTION('ref_axis',(0.,0.,-1.));
#356=DIRECTION('center_axis',(0.,-1.,0.));
#357=DIRECTION('ref_axis',(0.,0.,-1.));
#358=DIRECTION('center_axis',(0.,-1.,0.));
#359=DIRECTION('ref_axis',(0.,0.,-1.));
#360=DIRECTION('center_axis',(0.,-1.,0.));
#361=DIRECTION('ref_axis',(0.,0.,-1.));
#362=DIRECTION('',(-8.65956056235493E-17,-0.707106781186547,0.707106781186547));
#363=DIRECTION('center_axis',(0.,1.,0.));
#364=DIRECTION('ref_axis',(0.,0.,-1.));
#365=DIRECTION('center_axis',(0.,-1.,0.));
#366=DIRECTION('ref_axis',(0.,0.,-1.));
#367=DIRECTION('center_axis',(0.,-1.,0.));
#368=DIRECTION('ref_axis',(0.,0.,1.));
#369=DIRECTION('center_axis',(0.,-1.,0.));
#370=DIRECTION('ref_axis',(0.,0.,1.));
#371=DIRECTION('',(8.65956056235478E-17,0.70710678118656,-0.707106781186535));
#372=DIRECTION('center_axis',(0.,1.,0.));
#373=DIRECTION('ref_axis',(0.,0.,1.));
#374=DIRECTION('center_axis',(0.,1.,0.));
#375=DIRECTION('ref_axis',(0.,0.,1.));
#376=DIRECTION('center_axis',(0.,1.,0.));
#377=DIRECTION('ref_axis',(0.,0.,-1.));
#378=DIRECTION('',(8.65956056235486E-17,-0.707106781186554,0.707106781186541));
#379=DIRECTION('center_axis',(0.,-1.,0.));
#380=DIRECTION('ref_axis',(0.,0.,-1.));
#381=DIRECTION('center_axis',(0.,1.,0.));
#382=DIRECTION('ref_axis',(0.,0.,1.));
#383=DIRECTION('center_axis',(0.,1.,0.));
#384=DIRECTION('ref_axis',(0.,0.,1.));
#385=DIRECTION('',(0.,-1.,0.));
#386=DIRECTION('center_axis',(0.,1.,0.));
#387=DIRECTION('ref_axis',(0.,0.,1.));
#388=DIRECTION('',(0.,1.,0.));
#389=DIRECTION('center_axis',(0.,1.,0.));
#390=DIRECTION('ref_axis',(0.,0.,1.));
#391=DIRECTION('center_axis',(0.,1.,0.));
#392=DIRECTION('ref_axis',(0.,0.,1.));
#393=DIRECTION('',(0.,-1.,0.));
#394=DIRECTION('center_axis',(0.,1.,0.));
#395=DIRECTION('ref_axis',(0.,0.,1.));
#396=DIRECTION('',(0.,-1.,0.));
#397=DIRECTION('center_axis',(0.,1.,0.));
#398=DIRECTION('ref_axis',(0.,0.,1.));
#399=DIRECTION('center_axis',(0.,1.,0.));
#400=DIRECTION('ref_axis',(0.,0.,1.));
#401=DIRECTION('',(0.,1.,0.));
#402=DIRECTION('center_axis',(0.,1.,0.));
#403=DIRECTION('ref_axis',(0.,0.,1.));
#404=DIRECTION('',(0.,-1.,0.));
#405=DIRECTION('center_axis',(0.,1.,0.));
#406=DIRECTION('ref_axis',(0.,0.,1.));
#407=DIRECTION('center_axis',(0.,1.,0.));
#408=DIRECTION('ref_axis',(0.,0.,1.));
#409=DIRECTION('center_axis',(0.,1.,0.));
#410=DIRECTION('ref_axis',(0.,0.,1.));
#411=DIRECTION('center_axis',(0.,1.,0.));
#412=DIRECTION('ref_axis',(0.,0.,1.));
#413=DIRECTION('center_axis',(0.,-1.,0.));
#414=DIRECTION('ref_axis',(0.,0.,-1.));
#415=DIRECTION('center_axis',(0.,-1.,0.));
#416=DIRECTION('ref_axis',(0.,0.,-1.));
#417=DIRECTION('center_axis',(0.,-1.,0.));
#418=DIRECTION('ref_axis',(0.,0.,-1.));
#419=CARTESIAN_POINT('',(0.,0.,0.));
#420=CARTESIAN_POINT('Origin',(0.,4.99999999999999,0.));
#421=CARTESIAN_POINT('',(5.81707229594993E-15,6.49999999999999,-47.5));
#422=CARTESIAN_POINT('Origin',(0.,6.49999999999999,0.));
#423=CARTESIAN_POINT('',(-5.81707229594993E-15,3.5,-47.5));
#424=CARTESIAN_POINT('Origin',(-5.81707229594993E-15,4.99999999999999,-47.5));
#425=CARTESIAN_POINT('Origin',(0.,3.5,0.));
#426=CARTESIAN_POINT('Origin',(0.,11.6,0.));
#427=CARTESIAN_POINT('',(-5.51091059616309E-15,11.6,-45.));
#428=CARTESIAN_POINT('Origin',(0.,11.6,0.));
#429=CARTESIAN_POINT('',(-5.55989646812898E-15,12.,-45.4));
#430=CARTESIAN_POINT('',(-5.51091059616309E-15,11.6,-45.));
#431=CARTESIAN_POINT('Origin',(0.,12.,0.));
#432=CARTESIAN_POINT('Origin',(0.,12.,0.));
#433=CARTESIAN_POINT('',(4.89858719658941E-15,11.6,-40.));
#434=CARTESIAN_POINT('',(-4.89858719658941E-15,11.6,40.));
#435=CARTESIAN_POINT('Origin',(0.,11.6,0.));
#436=CARTESIAN_POINT('Origin',(0.,11.6,0.));
#437=CARTESIAN_POINT('',(-4.84960132462352E-15,12.,39.6));
#438=CARTESIAN_POINT('',(-4.84960132462352E-15,12.,39.6));
#439=CARTESIAN_POINT('Origin',(0.,12.,0.));
#440=CARTESIAN_POINT('Origin',(0.,0.399999999999998,0.));
#441=CARTESIAN_POINT('',(-3.85763741731416E-15,0.399999999999999,-31.5));
#442=CARTESIAN_POINT('Origin',(0.,0.399999999999998,0.));
#443=CARTESIAN_POINT('',(-3.80865154534827E-15,-4.71844785465692E-15,-31.1));
#444=CARTESIAN_POINT('',(-3.85763741731416E-15,0.399999999999998,-31.5));
#445=CARTESIAN_POINT('Origin',(0.,-1.73472347597681E-15,0.));
#446=CARTESIAN_POINT('Origin',(0.,-6.93889390390723E-15,0.));
#447=CARTESIAN_POINT('',(4.28626379701573E-15,0.399999999999984,-35.));
#448=CARTESIAN_POINT('',(-4.28626379701573E-15,0.399999999999985,35.));
#449=CARTESIAN_POINT('Origin',(0.,0.399999999999984,0.));
#450=CARTESIAN_POINT('Origin',(0.,0.399999999999984,0.));
#451=CARTESIAN_POINT('',(-4.33524966898163E-15,-8.26521239378674E-15,35.4));
#452=CARTESIAN_POINT('',(-4.33524966898163E-15,-6.93889390390723E-15,35.4));
#453=CARTESIAN_POINT('Origin',(0.,-5.05166804648283E-15,0.));
#454=CARTESIAN_POINT('Origin',(0.,12.,0.));
#455=CARTESIAN_POINT('',(5.81707229594993E-15,11.6,-47.5));
#456=CARTESIAN_POINT('',(-5.81707229594993E-15,11.6,47.5));
#457=CARTESIAN_POINT('Origin',(0.,11.6,0.));
#458=CARTESIAN_POINT('Origin',(0.,11.6,0.));
#459=CARTESIAN_POINT('',(-5.76808642398403E-15,12.,47.1));
#460=CARTESIAN_POINT('',(-5.76808642398403E-15,12.,47.1));
#461=CARTESIAN_POINT('Origin',(0.,12.,0.));
#462=CARTESIAN_POINT('Origin',(0.,0.400000000000011,0.));
#463=CARTESIAN_POINT('',(-5.81707229594993E-15,0.400000000000013,-47.5));
#464=CARTESIAN_POINT('Origin',(0.,0.400000000000011,0.));
#465=CARTESIAN_POINT('',(-5.76808642398403E-15,-1.11716191852906E-14,-47.1));
#466=CARTESIAN_POINT('',(-5.81707229594993E-15,0.400000000000011,-47.5));
#467=CARTESIAN_POINT('Origin',(0.,-5.05166804648283E-15,0.));
#468=CARTESIAN_POINT('Origin',(0.,54.4035217067522,0.));
#469=CARTESIAN_POINT('',(-3.85763741731416E-15,4.49999999999999,-31.5));
#470=CARTESIAN_POINT('Origin',(0.,4.5,0.));
#471=CARTESIAN_POINT('',(-3.85763741731416E-15,54.4035217067522,-31.5));
#472=CARTESIAN_POINT('Origin',(0.,54.4035217067522,0.));
#473=CARTESIAN_POINT('',(-4.28626379701573E-15,4.49999999999999,-35.));
#474=CARTESIAN_POINT('',(-4.28626379701573E-15,54.4035217067522,-35.));
#475=CARTESIAN_POINT('Origin',(0.,4.5,0.));
#476=CARTESIAN_POINT('Origin',(0.,54.4035217067522,0.));
#477=CARTESIAN_POINT('',(-5.81707229594993E-15,54.4035217067522,-47.5));
#478=CARTESIAN_POINT('Origin',(0.,54.4035217067522,0.));
#479=CARTESIAN_POINT('',(-5.81707229594993E-15,54.4035217067522,-47.5));
#480=CARTESIAN_POINT('Origin',(0.,54.4035217067522,0.));
#481=CARTESIAN_POINT('',(-5.51091059616309E-15,10.,-45.));
#482=CARTESIAN_POINT('Origin',(0.,10.,0.));
#483=CARTESIAN_POINT('',(-5.51091059616309E-15,54.4035217067522,-45.));
#484=CARTESIAN_POINT('Origin',(0.,54.4035217067522,0.));
#485=CARTESIAN_POINT('',(-4.89858719658941E-15,10.,-40.));
#486=CARTESIAN_POINT('',(-4.89858719658941E-15,54.4035217067522,-40.));
#487=CARTESIAN_POINT('Origin',(0.,10.,0.));
#488=CARTESIAN_POINT('Origin',(-40.,12.,0.));
#489=CARTESIAN_POINT('Origin',(-45.,9.99999999999999,0.));
#490=CARTESIAN_POINT('Origin',(-47.5,12.,0.));
#491=CARTESIAN_POINT('Origin',(-35.,-5.05166804648283E-15,0.));
#492=CARTESIAN_POINT('Origin',(-35.,4.5,0.));
#493=CARTESIAN_POINT('Origin',(0.,-1.73472347597681E-15,0.));
#494=UNCERTAINTY_MEASURE_WITH_UNIT(LENGTH_MEASURE(0.01),#498,
'DISTANCE_ACCURACY_VALUE',
'Maximum model space distance between geometric entities at asserted c
onnectivities');
#495=UNCERTAINTY_MEASURE_WITH_UNIT(LENGTH_MEASURE(0.01),#498,
'DISTANCE_ACCURACY_VALUE',
'Maximum model space distance between geometric entities at asserted c
onnectivities');
#496=(
GEOMETRIC_REPRESENTATION_CONTEXT(3)
GLOBAL_UNCERTAINTY_ASSIGNED_CONTEXT((#494))
GLOBAL_UNIT_ASSIGNED_CONTEXT((#498,#500,#501))
REPRESENTATION_CONTEXT('','3D')
);
#497=(
GEOMETRIC_REPRESENTATION_CONTEXT(3)
GLOBAL_UNCERTAINTY_ASSIGNED_CONTEXT((#495))
GLOBAL_UNIT_ASSIGNED_CONTEXT((#498,#500,#501))
REPRESENTATION_CONTEXT('','3D')
);
#498=(
LENGTH_UNIT()
NAMED_UNIT(*)
SI_UNIT(.MILLI.,.METRE.)
);
#499=(
LENGTH_UNIT()
NAMED_UNIT(*)
SI_UNIT($,.METRE.)
);
#500=(
NAMED_UNIT(*)
PLANE_ANGLE_UNIT()
SI_UNIT($,.RADIAN.)
);
#501=(
NAMED_UNIT(*)
SI_UNIT($,.STERADIAN.)
SOLID_ANGLE_UNIT()
);
#502=SHAPE_DEFINITION_REPRESENTATION(#503,#504);
#503=PRODUCT_DEFINITION_SHAPE('',$,#506);
#504=SHAPE_REPRESENTATION('',(#281),#496);
#505=PRODUCT_DEFINITION_CONTEXT('part definition',#510,'design');
#506=PRODUCT_DEFINITION('Hositrad_ISO-K63B','Hositrad_ISO-K63B v1',#507,
#505);
#507=PRODUCT_DEFINITION_FORMATION('',$,#512);
#508=PRODUCT_RELATED_PRODUCT_CATEGORY('Hositrad_ISO-K63B v1',
'Hositrad_ISO-K63B v1',(#512));
#509=APPLICATION_PROTOCOL_DEFINITION('international standard',
'automotive_design',2009,#510);
#510=APPLICATION_CONTEXT(
'Core Data for Automotive Mechanical Design Process');
#511=PRODUCT_CONTEXT('part definition',#510,'mechanical');
#512=PRODUCT('Hositrad_ISO-K63B','Hositrad_ISO-K63B v1',$,(#511));
#513=PRESENTATION_STYLE_ASSIGNMENT((#515));
#514=PRESENTATION_STYLE_ASSIGNMENT((#516));
#515=SURFACE_STYLE_USAGE(.BOTH.,#517);
#516=SURFACE_STYLE_USAGE(.BOTH.,#518);
#517=SURFACE_SIDE_STYLE('',(#519));
#518=SURFACE_SIDE_STYLE('',(#520));
#519=SURFACE_STYLE_FILL_AREA(#521);
#520=SURFACE_STYLE_FILL_AREA(#522);
#521=FILL_AREA_STYLE('Steel - Satin',(#523));
#522=FILL_AREA_STYLE('Opaque(203,210,239)',(#524));
#523=FILL_AREA_STYLE_COLOUR('Steel - Satin',#525);
#524=FILL_AREA_STYLE_COLOUR('Opaque(203,210,239)',#526);
#525=COLOUR_RGB('Steel - Satin',0.627450980392157,0.627450980392157,0.627450980392157);
#526=COLOUR_RGB('Opaque(203,210,239)',0.796078431372549,0.823529411764706,
0.937254901960784);
ENDSEC;
END-ISO-10303-21;
