ISO-10303-21;
HEADER;
/* Generated by software containing ST-Developer
 * from STEP Tools, Inc. (www.steptools.com) 
 */

FILE_DESCRIPTION(
/* description */ (''),
/* implementation_level */ '2;1');

FILE_NAME(
/* name */ 'Hositrad_FO35-38T-HalfNipple v1.step',
/* time_stamp */ '2024-06-25T14:17:57+02:00',
/* author */ (''),
/* organization */ (''),
/* preprocessor_version */ 'ST-DEVELOPER v20',
/* originating_system */ 'Autodesk Translation Framework v13.14.0.145',

/* authorisation */ '');

FILE_SCHEMA (('AUTOMOTIVE_DESIGN { 1 0 10303 214 3 1 1 }'));
ENDSEC;

DATA;
#10=MECHANICAL_DESIGN_GEOMETRIC_PRESENTATION_REPRESENTATION('',(#51,#52,
#53,#54,#55,#56,#57,#58),#1254);
#11=ITEM_DEFINED_TRANSFORMATION($,$,#719,#814);
#12=ITEM_DEFINED_TRANSFORMATION($,$,#805,#815);
#13=(
REPRESENTATION_RELATIONSHIP($,$,#1268,#1267)
REPRESENTATION_RELATIONSHIP_WITH_TRANSFORMATION(#11)
SHAPE_REPRESENTATION_RELATIONSHIP()
);
#14=(
REPRESENTATION_RELATIONSHIP($,$,#1269,#1267)
REPRESENTATION_RELATIONSHIP_WITH_TRANSFORMATION(#12)
SHAPE_REPRESENTATION_RELATIONSHIP()
);
#15=CONTEXT_DEPENDENT_SHAPE_REPRESENTATION(#13,#1265);
#16=CONTEXT_DEPENDENT_SHAPE_REPRESENTATION(#14,#1266);
#17=NEXT_ASSEMBLY_USAGE_OCCURRENCE('CF35-38T:1','CF35-38T:1',
'CF35-38T:1',#1271,#1272,'CF35-38T:1');
#18=NEXT_ASSEMBLY_USAGE_OCCURRENCE('Tube38:1','Tube38:1','Tube38:1',#1271,
#1273,'Tube38:1');
#19=SHAPE_REPRESENTATION_RELATIONSHIP('SRR','None',#1268,#21);
#20=SHAPE_REPRESENTATION_RELATIONSHIP('SRR','None',#1269,#22);
#21=ADVANCED_BREP_SHAPE_REPRESENTATION('',(#23),#1252);
#22=ADVANCED_BREP_SHAPE_REPRESENTATION('',(#24),#1253);
#23=MANIFOLD_SOLID_BREP('Body1',#693);
#24=MANIFOLD_SOLID_BREP('Body1',#694);
#25=FACE_BOUND('',#139,.T.);
#26=FACE_BOUND('',#140,.T.);
#27=FACE_BOUND('',#141,.T.);
#28=FACE_BOUND('',#142,.T.);
#29=FACE_BOUND('',#143,.T.);
#30=FACE_BOUND('',#144,.T.);
#31=FACE_BOUND('',#145,.T.);
#32=FACE_BOUND('',#147,.T.);
#33=FACE_BOUND('',#148,.T.);
#34=FACE_BOUND('',#149,.T.);
#35=FACE_BOUND('',#150,.T.);
#36=FACE_BOUND('',#151,.T.);
#37=FACE_BOUND('',#152,.T.);
#38=FACE_BOUND('',#154,.T.);
#39=FACE_BOUND('',#159,.T.);
#40=FACE_BOUND('',#163,.T.);
#41=FACE_BOUND('',#165,.T.);
#42=PLANE('',#798);
#43=PLANE('',#799);
#44=PLANE('',#800);
#45=PLANE('',#801);
#46=PLANE('',#802);
#47=PLANE('',#803);
#48=PLANE('',#804);
#49=PLANE('',#812);
#50=PLANE('',#813);
#51=STYLED_ITEM('',(#1288),#671);
#52=STYLED_ITEM('',(#1288),#672);
#53=STYLED_ITEM('',(#1288),#673);
#54=STYLED_ITEM('',(#1288),#674);
#55=STYLED_ITEM('',(#1288),#675);
#56=STYLED_ITEM('',(#1288),#676);
#57=STYLED_ITEM('',(#1287),#23);
#58=STYLED_ITEM('',(#1287),#24);
#59=CYLINDRICAL_SURFACE('',#768,19.2);
#60=CYLINDRICAL_SURFACE('',#777,2.49999999999999);
#61=CYLINDRICAL_SURFACE('',#778,2.49999999999999);
#62=CYLINDRICAL_SURFACE('',#779,2.49999999999999);
#63=CYLINDRICAL_SURFACE('',#780,2.49999999999999);
#64=CYLINDRICAL_SURFACE('',#781,2.49999999999999);
#65=CYLINDRICAL_SURFACE('',#782,2.5);
#66=CYLINDRICAL_SURFACE('',#790,24.175);
#67=CYLINDRICAL_SURFACE('',#794,35.);
#68=CYLINDRICAL_SURFACE('',#796,17.55);
#69=CYLINDRICAL_SURFACE('',#806,17.4);
#70=CYLINDRICAL_SURFACE('',#809,19.05);
#71=FACE_OUTER_BOUND('',#110,.T.);
#72=FACE_OUTER_BOUND('',#111,.T.);
#73=FACE_OUTER_BOUND('',#112,.T.);
#74=FACE_OUTER_BOUND('',#113,.T.);
#75=FACE_OUTER_BOUND('',#114,.T.);
#76=FACE_OUTER_BOUND('',#115,.T.);
#77=FACE_OUTER_BOUND('',#116,.T.);
#78=FACE_OUTER_BOUND('',#117,.T.);
#79=FACE_OUTER_BOUND('',#118,.T.);
#80=FACE_OUTER_BOUND('',#119,.T.);
#81=FACE_OUTER_BOUND('',#120,.T.);
#82=FACE_OUTER_BOUND('',#121,.T.);
#83=FACE_OUTER_BOUND('',#122,.T.);
#84=FACE_OUTER_BOUND('',#123,.T.);
#85=FACE_OUTER_BOUND('',#124,.T.);
#86=FACE_OUTER_BOUND('',#125,.T.);
#87=FACE_OUTER_BOUND('',#126,.T.);
#88=FACE_OUTER_BOUND('',#127,.T.);
#89=FACE_OUTER_BOUND('',#128,.T.);
#90=FACE_OUTER_BOUND('',#129,.T.);
#91=FACE_OUTER_BOUND('',#130,.T.);
#92=FACE_OUTER_BOUND('',#131,.T.);
#93=FACE_OUTER_BOUND('',#132,.T.);
#94=FACE_OUTER_BOUND('',#133,.T.);
#95=FACE_OUTER_BOUND('',#134,.T.);
#96=FACE_OUTER_BOUND('',#135,.T.);
#97=FACE_OUTER_BOUND('',#136,.T.);
#98=FACE_OUTER_BOUND('',#137,.T.);
#99=FACE_OUTER_BOUND('',#138,.T.);
#100=FACE_OUTER_BOUND('',#146,.T.);
#101=FACE_OUTER_BOUND('',#153,.T.);
#102=FACE_OUTER_BOUND('',#155,.T.);
#103=FACE_OUTER_BOUND('',#156,.T.);
#104=FACE_OUTER_BOUND('',#157,.T.);
#105=FACE_OUTER_BOUND('',#158,.T.);
#106=FACE_OUTER_BOUND('',#160,.T.);
#107=FACE_OUTER_BOUND('',#161,.T.);
#108=FACE_OUTER_BOUND('',#162,.T.);
#109=FACE_OUTER_BOUND('',#164,.T.);
#110=EDGE_LOOP('',(#450,#451,#452,#453,#454));
#111=EDGE_LOOP('',(#455,#456,#457,#458));
#112=EDGE_LOOP('',(#459,#460,#461,#462,#463));
#113=EDGE_LOOP('',(#464,#465,#466,#467));
#114=EDGE_LOOP('',(#468,#469,#470,#471,#472));
#115=EDGE_LOOP('',(#473,#474,#475,#476));
#116=EDGE_LOOP('',(#477,#478,#479,#480,#481));
#117=EDGE_LOOP('',(#482,#483,#484,#485));
#118=EDGE_LOOP('',(#486,#487,#488,#489,#490));
#119=EDGE_LOOP('',(#491,#492,#493,#494));
#120=EDGE_LOOP('',(#495,#496,#497,#498,#499));
#121=EDGE_LOOP('',(#500,#501,#502,#503));
#122=EDGE_LOOP('',(#504,#505,#506,#507));
#123=EDGE_LOOP('',(#508,#509,#510,#511));
#124=EDGE_LOOP('',(#512,#513,#514,#515));
#125=EDGE_LOOP('',(#516,#517,#518,#519));
#126=EDGE_LOOP('',(#520,#521,#522,#523,#524));
#127=EDGE_LOOP('',(#525,#526,#527,#528,#529));
#128=EDGE_LOOP('',(#530,#531,#532,#533,#534));
#129=EDGE_LOOP('',(#535,#536,#537,#538,#539));
#130=EDGE_LOOP('',(#540,#541,#542,#543,#544));
#131=EDGE_LOOP('',(#545,#546,#547,#548,#549));
#132=EDGE_LOOP('',(#550,#551,#552,#553,#554));
#133=EDGE_LOOP('',(#555,#556,#557,#558,#559));
#134=EDGE_LOOP('',(#560,#561,#562,#563,#564,#565));
#135=EDGE_LOOP('',(#566,#567,#568,#569,#570,#571,#572,#573,#574));
#136=EDGE_LOOP('',(#575,#576,#577,#578,#579,#580,#581,#582));
#137=EDGE_LOOP('',(#583,#584,#585,#586));
#138=EDGE_LOOP('',(#587));
#139=EDGE_LOOP('',(#588));
#140=EDGE_LOOP('',(#589));
#141=EDGE_LOOP('',(#590));
#142=EDGE_LOOP('',(#591));
#143=EDGE_LOOP('',(#592));
#144=EDGE_LOOP('',(#593));
#145=EDGE_LOOP('',(#594));
#146=EDGE_LOOP('',(#595,#596,#597,#598,#599));
#147=EDGE_LOOP('',(#600));
#148=EDGE_LOOP('',(#601));
#149=EDGE_LOOP('',(#602));
#150=EDGE_LOOP('',(#603));
#151=EDGE_LOOP('',(#604));
#152=EDGE_LOOP('',(#605));
#153=EDGE_LOOP('',(#606));
#154=EDGE_LOOP('',(#607));
#155=EDGE_LOOP('',(#608,#609,#610,#611,#612));
#156=EDGE_LOOP('',(#613,#614,#615,#616,#617));
#157=EDGE_LOOP('',(#618,#619,#620,#621));
#158=EDGE_LOOP('',(#622));
#159=EDGE_LOOP('',(#623));
#160=EDGE_LOOP('',(#624,#625,#626,#627));
#161=EDGE_LOOP('',(#628,#629,#630,#631));
#162=EDGE_LOOP('',(#632));
#163=EDGE_LOOP('',(#633));
#164=EDGE_LOOP('',(#634));
#165=EDGE_LOOP('',(#635));
#166=LINE('',#1059,#205);
#167=LINE('',#1065,#206);
#168=LINE('',#1073,#207);
#169=LINE('',#1079,#208);
#170=LINE('',#1087,#209);
#171=LINE('',#1093,#210);
#172=LINE('',#1101,#211);
#173=LINE('',#1107,#212);
#174=LINE('',#1115,#213);
#175=LINE('',#1121,#214);
#176=LINE('',#1129,#215);
#177=LINE('',#1135,#216);
#178=LINE('',#1141,#217);
#179=LINE('',#1147,#218);
#180=LINE('',#1152,#219);
#181=LINE('',#1157,#220);
#182=LINE('',#1164,#221);
#183=LINE('',#1169,#222);
#184=LINE('',#1171,#223);
#185=LINE('',#1173,#224);
#186=LINE('',#1175,#225);
#187=LINE('',#1177,#226);
#188=LINE('',#1179,#227);
#189=LINE('',#1181,#228);
#190=LINE('',#1186,#229);
#191=LINE('',#1194,#230);
#192=LINE('',#1198,#231);
#193=LINE('',#1202,#232);
#194=LINE('',#1206,#233);
#195=LINE('',#1209,#234);
#196=LINE('',#1211,#235);
#197=LINE('',#1214,#236);
#198=LINE('',#1218,#237);
#199=LINE('',#1221,#238);
#200=LINE('',#1222,#239);
#201=LINE('',#1225,#240);
#202=LINE('',#1227,#241);
#203=LINE('',#1235,#242);
#204=LINE('',#1241,#243);
#205=VECTOR('',#826,3.);
#206=VECTOR('',#833,2.5);
#207=VECTOR('',#842,3.);
#208=VECTOR('',#849,2.49999999999999);
#209=VECTOR('',#858,3.);
#210=VECTOR('',#865,2.49999999999999);
#211=VECTOR('',#874,2.99999999999998);
#212=VECTOR('',#881,2.49999999999999);
#213=VECTOR('',#890,3.);
#214=VECTOR('',#897,2.49999999999999);
#215=VECTOR('',#906,3.);
#216=VECTOR('',#913,2.49999999999999);
#217=VECTOR('',#920,17.55);
#218=VECTOR('',#927,19.2);
#219=VECTOR('',#934,19.2);
#220=VECTOR('',#939,35.);
#221=VECTOR('',#946,10.);
#222=VECTOR('',#951,10.);
#223=VECTOR('',#954,2.49999999999999);
#224=VECTOR('',#957,2.49999999999999);
#225=VECTOR('',#960,2.49999999999999);
#226=VECTOR('',#963,2.49999999999999);
#227=VECTOR('',#966,2.49999999999999);
#228=VECTOR('',#969,2.5);
#229=VECTOR('',#974,20.7316178594403);
#230=VECTOR('',#983,20.95);
#231=VECTOR('',#988,24.175);
#232=VECTOR('',#991,1000.);
#233=VECTOR('',#994,1000.);
#234=VECTOR('',#999,35.);
#235=VECTOR('',#1000,1000.);
#236=VECTOR('',#1003,1000.);
#237=VECTOR('',#1008,17.55);
#238=VECTOR('',#1013,1000.);
#239=VECTOR('',#1014,1000.);
#240=VECTOR('',#1019,1000.);
#241=VECTOR('',#1022,1000.);
#242=VECTOR('',#1033,17.4);
#243=VECTOR('',#1040,19.05);
#244=CIRCLE('',#721,2.49999999999999);
#245=CIRCLE('',#722,2.49999999999999);
#246=CIRCLE('',#723,3.);
#247=CIRCLE('',#725,2.5);
#248=CIRCLE('',#726,3.);
#249=CIRCLE('',#728,2.49999999999999);
#250=CIRCLE('',#729,2.49999999999999);
#251=CIRCLE('',#730,3.);
#252=CIRCLE('',#732,2.49999999999999);
#253=CIRCLE('',#733,3.);
#254=CIRCLE('',#735,2.49999999999999);
#255=CIRCLE('',#736,2.49999999999999);
#256=CIRCLE('',#737,3.00000000000001);
#257=CIRCLE('',#739,2.49999999999999);
#258=CIRCLE('',#740,3.);
#259=CIRCLE('',#742,2.5);
#260=CIRCLE('',#743,2.5);
#261=CIRCLE('',#744,2.99999999999998);
#262=CIRCLE('',#746,2.49999999999999);
#263=CIRCLE('',#747,3.);
#264=CIRCLE('',#749,2.49999999999999);
#265=CIRCLE('',#750,2.49999999999999);
#266=CIRCLE('',#751,3.);
#267=CIRCLE('',#753,2.49999999999999);
#268=CIRCLE('',#754,2.99999999999998);
#269=CIRCLE('',#756,2.49999999999999);
#270=CIRCLE('',#757,2.49999999999999);
#271=CIRCLE('',#758,3.);
#272=CIRCLE('',#760,2.49999999999999);
#273=CIRCLE('',#761,3.);
#274=CIRCLE('',#763,17.55);
#275=CIRCLE('',#764,17.85);
#276=CIRCLE('',#766,19.2);
#277=CIRCLE('',#767,19.5);
#278=CIRCLE('',#769,19.2);
#279=CIRCLE('',#771,35.);
#280=CIRCLE('',#772,34.6);
#281=CIRCLE('',#774,34.6);
#282=CIRCLE('',#775,35.);
#283=CIRCLE('',#776,35.);
#284=CIRCLE('',#784,20.7316178594403);
#285=CIRCLE('',#785,20.95);
#286=CIRCLE('',#786,20.95);
#287=CIRCLE('',#788,24.175);
#288=CIRCLE('',#789,24.175);
#289=CIRCLE('',#791,24.175);
#290=CIRCLE('',#792,24.175);
#291=CIRCLE('',#793,24.175);
#292=CIRCLE('',#795,35.);
#293=CIRCLE('',#797,17.55);
#294=CIRCLE('',#807,17.4);
#295=CIRCLE('',#808,17.4);
#296=CIRCLE('',#810,19.05);
#297=CIRCLE('',#811,19.05);
#298=VERTEX_POINT('',#1054);
#299=VERTEX_POINT('',#1055);
#300=VERTEX_POINT('',#1058);
#301=VERTEX_POINT('',#1062);
#302=VERTEX_POINT('',#1064);
#303=VERTEX_POINT('',#1068);
#304=VERTEX_POINT('',#1069);
#305=VERTEX_POINT('',#1072);
#306=VERTEX_POINT('',#1076);
#307=VERTEX_POINT('',#1078);
#308=VERTEX_POINT('',#1082);
#309=VERTEX_POINT('',#1083);
#310=VERTEX_POINT('',#1086);
#311=VERTEX_POINT('',#1090);
#312=VERTEX_POINT('',#1092);
#313=VERTEX_POINT('',#1096);
#314=VERTEX_POINT('',#1097);
#315=VERTEX_POINT('',#1100);
#316=VERTEX_POINT('',#1104);
#317=VERTEX_POINT('',#1106);
#318=VERTEX_POINT('',#1110);
#319=VERTEX_POINT('',#1111);
#320=VERTEX_POINT('',#1114);
#321=VERTEX_POINT('',#1118);
#322=VERTEX_POINT('',#1120);
#323=VERTEX_POINT('',#1124);
#324=VERTEX_POINT('',#1125);
#325=VERTEX_POINT('',#1128);
#326=VERTEX_POINT('',#1132);
#327=VERTEX_POINT('',#1134);
#328=VERTEX_POINT('',#1138);
#329=VERTEX_POINT('',#1140);
#330=VERTEX_POINT('',#1144);
#331=VERTEX_POINT('',#1146);
#332=VERTEX_POINT('',#1150);
#333=VERTEX_POINT('',#1154);
#334=VERTEX_POINT('',#1156);
#335=VERTEX_POINT('',#1160);
#336=VERTEX_POINT('',#1161);
#337=VERTEX_POINT('',#1163);
#338=VERTEX_POINT('',#1165);
#339=VERTEX_POINT('',#1167);
#340=VERTEX_POINT('',#1183);
#341=VERTEX_POINT('',#1185);
#342=VERTEX_POINT('',#1187);
#343=VERTEX_POINT('',#1191);
#344=VERTEX_POINT('',#1192);
#345=VERTEX_POINT('',#1197);
#346=VERTEX_POINT('',#1199);
#347=VERTEX_POINT('',#1201);
#348=VERTEX_POINT('',#1203);
#349=VERTEX_POINT('',#1205);
#350=VERTEX_POINT('',#1210);
#351=VERTEX_POINT('',#1212);
#352=VERTEX_POINT('',#1216);
#353=VERTEX_POINT('',#1232);
#354=VERTEX_POINT('',#1234);
#355=VERTEX_POINT('',#1238);
#356=VERTEX_POINT('',#1240);
#357=EDGE_CURVE('',#298,#299,#244,.T.);
#358=EDGE_CURVE('',#299,#298,#245,.T.);
#359=EDGE_CURVE('',#299,#300,#166,.T.);
#360=EDGE_CURVE('',#300,#300,#246,.T.);
#361=EDGE_CURVE('',#301,#301,#247,.T.);
#362=EDGE_CURVE('',#301,#302,#167,.T.);
#363=EDGE_CURVE('',#302,#302,#248,.T.);
#364=EDGE_CURVE('',#303,#304,#249,.T.);
#365=EDGE_CURVE('',#304,#303,#250,.T.);
#366=EDGE_CURVE('',#304,#305,#168,.T.);
#367=EDGE_CURVE('',#305,#305,#251,.T.);
#368=EDGE_CURVE('',#306,#306,#252,.T.);
#369=EDGE_CURVE('',#306,#307,#169,.T.);
#370=EDGE_CURVE('',#307,#307,#253,.T.);
#371=EDGE_CURVE('',#308,#309,#254,.T.);
#372=EDGE_CURVE('',#309,#308,#255,.T.);
#373=EDGE_CURVE('',#309,#310,#170,.T.);
#374=EDGE_CURVE('',#310,#310,#256,.T.);
#375=EDGE_CURVE('',#311,#311,#257,.T.);
#376=EDGE_CURVE('',#311,#312,#171,.T.);
#377=EDGE_CURVE('',#312,#312,#258,.T.);
#378=EDGE_CURVE('',#313,#314,#259,.T.);
#379=EDGE_CURVE('',#314,#313,#260,.T.);
#380=EDGE_CURVE('',#314,#315,#172,.T.);
#381=EDGE_CURVE('',#315,#315,#261,.T.);
#382=EDGE_CURVE('',#316,#316,#262,.T.);
#383=EDGE_CURVE('',#316,#317,#173,.T.);
#384=EDGE_CURVE('',#317,#317,#263,.T.);
#385=EDGE_CURVE('',#318,#319,#264,.T.);
#386=EDGE_CURVE('',#319,#318,#265,.T.);
#387=EDGE_CURVE('',#319,#320,#174,.T.);
#388=EDGE_CURVE('',#320,#320,#266,.T.);
#389=EDGE_CURVE('',#321,#321,#267,.T.);
#390=EDGE_CURVE('',#321,#322,#175,.T.);
#391=EDGE_CURVE('',#322,#322,#268,.T.);
#392=EDGE_CURVE('',#323,#324,#269,.T.);
#393=EDGE_CURVE('',#324,#323,#270,.T.);
#394=EDGE_CURVE('',#324,#325,#176,.T.);
#395=EDGE_CURVE('',#325,#325,#271,.T.);
#396=EDGE_CURVE('',#326,#326,#272,.T.);
#397=EDGE_CURVE('',#326,#327,#177,.T.);
#398=EDGE_CURVE('',#327,#327,#273,.T.);
#399=EDGE_CURVE('',#328,#328,#274,.T.);
#400=EDGE_CURVE('',#328,#329,#178,.T.);
#401=EDGE_CURVE('',#329,#329,#275,.T.);
#402=EDGE_CURVE('',#330,#330,#276,.T.);
#403=EDGE_CURVE('',#330,#331,#179,.T.);
#404=EDGE_CURVE('',#331,#331,#277,.T.);
#405=EDGE_CURVE('',#332,#332,#278,.T.);
#406=EDGE_CURVE('',#332,#330,#180,.T.);
#407=EDGE_CURVE('',#333,#333,#279,.T.);
#408=EDGE_CURVE('',#333,#334,#181,.T.);
#409=EDGE_CURVE('',#334,#334,#280,.T.);
#410=EDGE_CURVE('',#335,#336,#281,.T.);
#411=EDGE_CURVE('',#337,#335,#182,.T.);
#412=EDGE_CURVE('',#338,#337,#282,.T.);
#413=EDGE_CURVE('',#339,#338,#283,.T.);
#414=EDGE_CURVE('',#336,#339,#183,.T.);
#415=EDGE_CURVE('',#323,#326,#184,.T.);
#416=EDGE_CURVE('',#318,#321,#185,.T.);
#417=EDGE_CURVE('',#313,#316,#186,.T.);
#418=EDGE_CURVE('',#308,#311,#187,.T.);
#419=EDGE_CURVE('',#303,#306,#188,.T.);
#420=EDGE_CURVE('',#298,#301,#189,.T.);
#421=EDGE_CURVE('',#340,#340,#284,.T.);
#422=EDGE_CURVE('',#340,#341,#190,.T.);
#423=EDGE_CURVE('',#341,#342,#285,.T.);
#424=EDGE_CURVE('',#342,#341,#286,.T.);
#425=EDGE_CURVE('',#343,#344,#287,.T.);
#426=EDGE_CURVE('',#344,#342,#191,.T.);
#427=EDGE_CURVE('',#344,#343,#288,.T.);
#428=EDGE_CURVE('',#343,#345,#192,.T.);
#429=EDGE_CURVE('',#345,#346,#289,.T.);
#430=EDGE_CURVE('',#347,#346,#193,.T.);
#431=EDGE_CURVE('',#348,#347,#290,.T.);
#432=EDGE_CURVE('',#349,#348,#194,.T.);
#433=EDGE_CURVE('',#349,#345,#291,.T.);
#434=EDGE_CURVE('',#338,#333,#195,.T.);
#435=EDGE_CURVE('',#350,#337,#196,.T.);
#436=EDGE_CURVE('',#351,#350,#292,.T.);
#437=EDGE_CURVE('',#339,#351,#197,.T.);
#438=EDGE_CURVE('',#352,#352,#293,.T.);
#439=EDGE_CURVE('',#352,#328,#198,.T.);
#440=EDGE_CURVE('',#335,#349,#199,.T.);
#441=EDGE_CURVE('',#346,#336,#200,.T.);
#442=EDGE_CURVE('',#350,#348,#201,.T.);
#443=EDGE_CURVE('',#347,#351,#202,.T.);
#444=EDGE_CURVE('',#353,#353,#294,.T.);
#445=EDGE_CURVE('',#353,#354,#203,.T.);
#446=EDGE_CURVE('',#354,#354,#295,.T.);
#447=EDGE_CURVE('',#355,#355,#296,.T.);
#448=EDGE_CURVE('',#355,#356,#204,.T.);
#449=EDGE_CURVE('',#356,#356,#297,.T.);
#450=ORIENTED_EDGE('',*,*,#357,.F.);
#451=ORIENTED_EDGE('',*,*,#358,.F.);
#452=ORIENTED_EDGE('',*,*,#359,.T.);
#453=ORIENTED_EDGE('',*,*,#360,.F.);
#454=ORIENTED_EDGE('',*,*,#359,.F.);
#455=ORIENTED_EDGE('',*,*,#361,.F.);
#456=ORIENTED_EDGE('',*,*,#362,.T.);
#457=ORIENTED_EDGE('',*,*,#363,.F.);
#458=ORIENTED_EDGE('',*,*,#362,.F.);
#459=ORIENTED_EDGE('',*,*,#364,.F.);
#460=ORIENTED_EDGE('',*,*,#365,.F.);
#461=ORIENTED_EDGE('',*,*,#366,.T.);
#462=ORIENTED_EDGE('',*,*,#367,.F.);
#463=ORIENTED_EDGE('',*,*,#366,.F.);
#464=ORIENTED_EDGE('',*,*,#368,.F.);
#465=ORIENTED_EDGE('',*,*,#369,.T.);
#466=ORIENTED_EDGE('',*,*,#370,.F.);
#467=ORIENTED_EDGE('',*,*,#369,.F.);
#468=ORIENTED_EDGE('',*,*,#371,.F.);
#469=ORIENTED_EDGE('',*,*,#372,.F.);
#470=ORIENTED_EDGE('',*,*,#373,.T.);
#471=ORIENTED_EDGE('',*,*,#374,.F.);
#472=ORIENTED_EDGE('',*,*,#373,.F.);
#473=ORIENTED_EDGE('',*,*,#375,.F.);
#474=ORIENTED_EDGE('',*,*,#376,.T.);
#475=ORIENTED_EDGE('',*,*,#377,.F.);
#476=ORIENTED_EDGE('',*,*,#376,.F.);
#477=ORIENTED_EDGE('',*,*,#378,.F.);
#478=ORIENTED_EDGE('',*,*,#379,.F.);
#479=ORIENTED_EDGE('',*,*,#380,.T.);
#480=ORIENTED_EDGE('',*,*,#381,.F.);
#481=ORIENTED_EDGE('',*,*,#380,.F.);
#482=ORIENTED_EDGE('',*,*,#382,.F.);
#483=ORIENTED_EDGE('',*,*,#383,.T.);
#484=ORIENTED_EDGE('',*,*,#384,.F.);
#485=ORIENTED_EDGE('',*,*,#383,.F.);
#486=ORIENTED_EDGE('',*,*,#385,.F.);
#487=ORIENTED_EDGE('',*,*,#386,.F.);
#488=ORIENTED_EDGE('',*,*,#387,.T.);
#489=ORIENTED_EDGE('',*,*,#388,.F.);
#490=ORIENTED_EDGE('',*,*,#387,.F.);
#491=ORIENTED_EDGE('',*,*,#389,.F.);
#492=ORIENTED_EDGE('',*,*,#390,.T.);
#493=ORIENTED_EDGE('',*,*,#391,.F.);
#494=ORIENTED_EDGE('',*,*,#390,.F.);
#495=ORIENTED_EDGE('',*,*,#392,.F.);
#496=ORIENTED_EDGE('',*,*,#393,.F.);
#497=ORIENTED_EDGE('',*,*,#394,.T.);
#498=ORIENTED_EDGE('',*,*,#395,.F.);
#499=ORIENTED_EDGE('',*,*,#394,.F.);
#500=ORIENTED_EDGE('',*,*,#396,.F.);
#501=ORIENTED_EDGE('',*,*,#397,.T.);
#502=ORIENTED_EDGE('',*,*,#398,.F.);
#503=ORIENTED_EDGE('',*,*,#397,.F.);
#504=ORIENTED_EDGE('',*,*,#399,.F.);
#505=ORIENTED_EDGE('',*,*,#400,.T.);
#506=ORIENTED_EDGE('',*,*,#401,.F.);
#507=ORIENTED_EDGE('',*,*,#400,.F.);
#508=ORIENTED_EDGE('',*,*,#402,.F.);
#509=ORIENTED_EDGE('',*,*,#403,.T.);
#510=ORIENTED_EDGE('',*,*,#404,.F.);
#511=ORIENTED_EDGE('',*,*,#403,.F.);
#512=ORIENTED_EDGE('',*,*,#405,.F.);
#513=ORIENTED_EDGE('',*,*,#406,.T.);
#514=ORIENTED_EDGE('',*,*,#402,.T.);
#515=ORIENTED_EDGE('',*,*,#406,.F.);
#516=ORIENTED_EDGE('',*,*,#407,.F.);
#517=ORIENTED_EDGE('',*,*,#408,.T.);
#518=ORIENTED_EDGE('',*,*,#409,.F.);
#519=ORIENTED_EDGE('',*,*,#408,.F.);
#520=ORIENTED_EDGE('',*,*,#410,.F.);
#521=ORIENTED_EDGE('',*,*,#411,.F.);
#522=ORIENTED_EDGE('',*,*,#412,.F.);
#523=ORIENTED_EDGE('',*,*,#413,.F.);
#524=ORIENTED_EDGE('',*,*,#414,.F.);
#525=ORIENTED_EDGE('',*,*,#392,.T.);
#526=ORIENTED_EDGE('',*,*,#393,.T.);
#527=ORIENTED_EDGE('',*,*,#415,.T.);
#528=ORIENTED_EDGE('',*,*,#396,.T.);
#529=ORIENTED_EDGE('',*,*,#415,.F.);
#530=ORIENTED_EDGE('',*,*,#385,.T.);
#531=ORIENTED_EDGE('',*,*,#386,.T.);
#532=ORIENTED_EDGE('',*,*,#416,.T.);
#533=ORIENTED_EDGE('',*,*,#389,.T.);
#534=ORIENTED_EDGE('',*,*,#416,.F.);
#535=ORIENTED_EDGE('',*,*,#378,.T.);
#536=ORIENTED_EDGE('',*,*,#379,.T.);
#537=ORIENTED_EDGE('',*,*,#417,.T.);
#538=ORIENTED_EDGE('',*,*,#382,.T.);
#539=ORIENTED_EDGE('',*,*,#417,.F.);
#540=ORIENTED_EDGE('',*,*,#371,.T.);
#541=ORIENTED_EDGE('',*,*,#372,.T.);
#542=ORIENTED_EDGE('',*,*,#418,.T.);
#543=ORIENTED_EDGE('',*,*,#375,.T.);
#544=ORIENTED_EDGE('',*,*,#418,.F.);
#545=ORIENTED_EDGE('',*,*,#364,.T.);
#546=ORIENTED_EDGE('',*,*,#365,.T.);
#547=ORIENTED_EDGE('',*,*,#419,.T.);
#548=ORIENTED_EDGE('',*,*,#368,.T.);
#549=ORIENTED_EDGE('',*,*,#419,.F.);
#550=ORIENTED_EDGE('',*,*,#357,.T.);
#551=ORIENTED_EDGE('',*,*,#358,.T.);
#552=ORIENTED_EDGE('',*,*,#420,.T.);
#553=ORIENTED_EDGE('',*,*,#361,.T.);
#554=ORIENTED_EDGE('',*,*,#420,.F.);
#555=ORIENTED_EDGE('',*,*,#421,.F.);
#556=ORIENTED_EDGE('',*,*,#422,.T.);
#557=ORIENTED_EDGE('',*,*,#423,.T.);
#558=ORIENTED_EDGE('',*,*,#424,.T.);
#559=ORIENTED_EDGE('',*,*,#422,.F.);
#560=ORIENTED_EDGE('',*,*,#425,.T.);
#561=ORIENTED_EDGE('',*,*,#426,.T.);
#562=ORIENTED_EDGE('',*,*,#423,.F.);
#563=ORIENTED_EDGE('',*,*,#424,.F.);
#564=ORIENTED_EDGE('',*,*,#426,.F.);
#565=ORIENTED_EDGE('',*,*,#427,.T.);
#566=ORIENTED_EDGE('',*,*,#425,.F.);
#567=ORIENTED_EDGE('',*,*,#428,.T.);
#568=ORIENTED_EDGE('',*,*,#429,.T.);
#569=ORIENTED_EDGE('',*,*,#430,.F.);
#570=ORIENTED_EDGE('',*,*,#431,.F.);
#571=ORIENTED_EDGE('',*,*,#432,.F.);
#572=ORIENTED_EDGE('',*,*,#433,.T.);
#573=ORIENTED_EDGE('',*,*,#428,.F.);
#574=ORIENTED_EDGE('',*,*,#427,.F.);
#575=ORIENTED_EDGE('',*,*,#413,.T.);
#576=ORIENTED_EDGE('',*,*,#434,.T.);
#577=ORIENTED_EDGE('',*,*,#407,.T.);
#578=ORIENTED_EDGE('',*,*,#434,.F.);
#579=ORIENTED_EDGE('',*,*,#412,.T.);
#580=ORIENTED_EDGE('',*,*,#435,.F.);
#581=ORIENTED_EDGE('',*,*,#436,.F.);
#582=ORIENTED_EDGE('',*,*,#437,.F.);
#583=ORIENTED_EDGE('',*,*,#438,.F.);
#584=ORIENTED_EDGE('',*,*,#439,.T.);
#585=ORIENTED_EDGE('',*,*,#399,.T.);
#586=ORIENTED_EDGE('',*,*,#439,.F.);
#587=ORIENTED_EDGE('',*,*,#409,.T.);
#588=ORIENTED_EDGE('',*,*,#395,.T.);
#589=ORIENTED_EDGE('',*,*,#388,.T.);
#590=ORIENTED_EDGE('',*,*,#381,.T.);
#591=ORIENTED_EDGE('',*,*,#374,.T.);
#592=ORIENTED_EDGE('',*,*,#367,.T.);
#593=ORIENTED_EDGE('',*,*,#360,.T.);
#594=ORIENTED_EDGE('',*,*,#404,.T.);
#595=ORIENTED_EDGE('',*,*,#440,.F.);
#596=ORIENTED_EDGE('',*,*,#410,.T.);
#597=ORIENTED_EDGE('',*,*,#441,.F.);
#598=ORIENTED_EDGE('',*,*,#429,.F.);
#599=ORIENTED_EDGE('',*,*,#433,.F.);
#600=ORIENTED_EDGE('',*,*,#398,.T.);
#601=ORIENTED_EDGE('',*,*,#391,.T.);
#602=ORIENTED_EDGE('',*,*,#384,.T.);
#603=ORIENTED_EDGE('',*,*,#377,.T.);
#604=ORIENTED_EDGE('',*,*,#370,.T.);
#605=ORIENTED_EDGE('',*,*,#363,.T.);
#606=ORIENTED_EDGE('',*,*,#421,.T.);
#607=ORIENTED_EDGE('',*,*,#401,.T.);
#608=ORIENTED_EDGE('',*,*,#432,.T.);
#609=ORIENTED_EDGE('',*,*,#442,.F.);
#610=ORIENTED_EDGE('',*,*,#435,.T.);
#611=ORIENTED_EDGE('',*,*,#411,.T.);
#612=ORIENTED_EDGE('',*,*,#440,.T.);
#613=ORIENTED_EDGE('',*,*,#430,.T.);
#614=ORIENTED_EDGE('',*,*,#441,.T.);
#615=ORIENTED_EDGE('',*,*,#414,.T.);
#616=ORIENTED_EDGE('',*,*,#437,.T.);
#617=ORIENTED_EDGE('',*,*,#443,.F.);
#618=ORIENTED_EDGE('',*,*,#436,.T.);
#619=ORIENTED_EDGE('',*,*,#442,.T.);
#620=ORIENTED_EDGE('',*,*,#431,.T.);
#621=ORIENTED_EDGE('',*,*,#443,.T.);
#622=ORIENTED_EDGE('',*,*,#405,.T.);
#623=ORIENTED_EDGE('',*,*,#438,.T.);
#624=ORIENTED_EDGE('',*,*,#444,.T.);
#625=ORIENTED_EDGE('',*,*,#445,.T.);
#626=ORIENTED_EDGE('',*,*,#446,.F.);
#627=ORIENTED_EDGE('',*,*,#445,.F.);
#628=ORIENTED_EDGE('',*,*,#447,.T.);
#629=ORIENTED_EDGE('',*,*,#448,.T.);
#630=ORIENTED_EDGE('',*,*,#449,.F.);
#631=ORIENTED_EDGE('',*,*,#448,.F.);
#632=ORIENTED_EDGE('',*,*,#449,.T.);
#633=ORIENTED_EDGE('',*,*,#444,.F.);
#634=ORIENTED_EDGE('',*,*,#447,.F.);
#635=ORIENTED_EDGE('',*,*,#446,.T.);
#636=CONICAL_SURFACE('',#720,3.,0.785398163397447);
#637=CONICAL_SURFACE('',#724,2.5,0.785398163397454);
#638=CONICAL_SURFACE('',#727,3.,0.785398163397443);
#639=CONICAL_SURFACE('',#731,2.49999999999999,0.785398163397453);
#640=CONICAL_SURFACE('',#734,3.,0.785398163397447);
#641=CONICAL_SURFACE('',#738,2.49999999999999,0.785398163397453);
#642=CONICAL_SURFACE('',#741,2.99999999999998,0.785398163397441);
#643=CONICAL_SURFACE('',#745,2.49999999999999,0.785398163397454);
#644=CONICAL_SURFACE('',#748,3.,0.785398163397447);
#645=CONICAL_SURFACE('',#752,2.49999999999999,0.78539816339744);
#646=CONICAL_SURFACE('',#755,3.,0.785398163397443);
#647=CONICAL_SURFACE('',#759,2.49999999999999,0.785398163397453);
#648=CONICAL_SURFACE('',#762,17.55,0.785398163397443);
#649=CONICAL_SURFACE('',#765,19.2,0.785398163397431);
#650=CONICAL_SURFACE('',#770,35.,0.785398163397435);
#651=CONICAL_SURFACE('',#773,34.6,0.78539816339744);
#652=CONICAL_SURFACE('',#783,20.7316178594403,0.349065850398869);
#653=CONICAL_SURFACE('',#787,20.95,1.22173047639603);
#654=ADVANCED_FACE('',(#71),#636,.F.);
#655=ADVANCED_FACE('',(#72),#637,.F.);
#656=ADVANCED_FACE('',(#73),#638,.F.);
#657=ADVANCED_FACE('',(#74),#639,.F.);
#658=ADVANCED_FACE('',(#75),#640,.F.);
#659=ADVANCED_FACE('',(#76),#641,.F.);
#660=ADVANCED_FACE('',(#77),#642,.F.);
#661=ADVANCED_FACE('',(#78),#643,.F.);
#662=ADVANCED_FACE('',(#79),#644,.F.);
#663=ADVANCED_FACE('',(#80),#645,.F.);
#664=ADVANCED_FACE('',(#81),#646,.F.);
#665=ADVANCED_FACE('',(#82),#647,.F.);
#666=ADVANCED_FACE('',(#83),#648,.F.);
#667=ADVANCED_FACE('',(#84),#649,.F.);
#668=ADVANCED_FACE('',(#85),#59,.F.);
#669=ADVANCED_FACE('',(#86),#650,.T.);
#670=ADVANCED_FACE('',(#87),#651,.T.);
#671=ADVANCED_FACE('',(#88),#60,.F.);
#672=ADVANCED_FACE('',(#89),#61,.F.);
#673=ADVANCED_FACE('',(#90),#62,.F.);
#674=ADVANCED_FACE('',(#91),#63,.F.);
#675=ADVANCED_FACE('',(#92),#64,.F.);
#676=ADVANCED_FACE('',(#93),#65,.F.);
#677=ADVANCED_FACE('',(#94),#652,.F.);
#678=ADVANCED_FACE('',(#95),#653,.T.);
#679=ADVANCED_FACE('',(#96),#66,.F.);
#680=ADVANCED_FACE('',(#97),#67,.T.);
#681=ADVANCED_FACE('',(#98),#68,.F.);
#682=ADVANCED_FACE('',(#99,#25,#26,#27,#28,#29,#30,#31),#42,.T.);
#683=ADVANCED_FACE('',(#100,#32,#33,#34,#35,#36,#37),#43,.T.);
#684=ADVANCED_FACE('',(#101,#38),#44,.T.);
#685=ADVANCED_FACE('',(#102),#45,.F.);
#686=ADVANCED_FACE('',(#103),#46,.F.);
#687=ADVANCED_FACE('',(#104),#47,.F.);
#688=ADVANCED_FACE('',(#105,#39),#48,.T.);
#689=ADVANCED_FACE('',(#106),#69,.F.);
#690=ADVANCED_FACE('',(#107),#70,.T.);
#691=ADVANCED_FACE('',(#108,#40),#49,.T.);
#692=ADVANCED_FACE('',(#109,#41),#50,.F.);
#693=CLOSED_SHELL('',(#654,#655,#656,#657,#658,#659,#660,#661,#662,#663,
#664,#665,#666,#667,#668,#669,#670,#671,#672,#673,#674,#675,#676,#677,#678,
#679,#680,#681,#682,#683,#684,#685,#686,#687,#688));
#694=CLOSED_SHELL('',(#689,#690,#691,#692));
#695=DERIVED_UNIT_ELEMENT(#699,1.);
#696=DERIVED_UNIT_ELEMENT(#1256,-3.);
#697=DERIVED_UNIT_ELEMENT(#699,1.);
#698=DERIVED_UNIT_ELEMENT(#1256,-3.);
#699=(
MASS_UNIT()
NAMED_UNIT(*)
SI_UNIT(.KILO.,.GRAM.)
);
#700=DERIVED_UNIT((#695,#696));
#701=DERIVED_UNIT((#697,#698));
#702=MEASURE_REPRESENTATION_ITEM('density measure',
POSITIVE_RATIO_MEASURE(7850.),#700);
#703=MEASURE_REPRESENTATION_ITEM('density measure',
POSITIVE_RATIO_MEASURE(7850.),#701);
#704=PROPERTY_DEFINITION_REPRESENTATION(#714,#708);
#705=PROPERTY_DEFINITION_REPRESENTATION(#715,#709);
#706=PROPERTY_DEFINITION_REPRESENTATION(#716,#710);
#707=PROPERTY_DEFINITION_REPRESENTATION(#717,#711);
#708=REPRESENTATION('material name',(#712),#1252);
#709=REPRESENTATION('density',(#702),#1252);
#710=REPRESENTATION('material name',(#713),#1253);
#711=REPRESENTATION('density',(#703),#1253);
#712=DESCRIPTIVE_REPRESENTATION_ITEM('Steel','Steel');
#713=DESCRIPTIVE_REPRESENTATION_ITEM('Steel','Steel');
#714=PROPERTY_DEFINITION('material property','material name',#1272);
#715=PROPERTY_DEFINITION('material property','density of part',#1272);
#716=PROPERTY_DEFINITION('material property','material name',#1273);
#717=PROPERTY_DEFINITION('material property','density of part',#1273);
#718=AXIS2_PLACEMENT_3D('',#1051,#816,#817);
#719=AXIS2_PLACEMENT_3D('',#1052,#818,#819);
#720=AXIS2_PLACEMENT_3D('',#1053,#820,#821);
#721=AXIS2_PLACEMENT_3D('',#1056,#822,#823);
#722=AXIS2_PLACEMENT_3D('',#1057,#824,#825);
#723=AXIS2_PLACEMENT_3D('',#1060,#827,#828);
#724=AXIS2_PLACEMENT_3D('',#1061,#829,#830);
#725=AXIS2_PLACEMENT_3D('',#1063,#831,#832);
#726=AXIS2_PLACEMENT_3D('',#1066,#834,#835);
#727=AXIS2_PLACEMENT_3D('',#1067,#836,#837);
#728=AXIS2_PLACEMENT_3D('',#1070,#838,#839);
#729=AXIS2_PLACEMENT_3D('',#1071,#840,#841);
#730=AXIS2_PLACEMENT_3D('',#1074,#843,#844);
#731=AXIS2_PLACEMENT_3D('',#1075,#845,#846);
#732=AXIS2_PLACEMENT_3D('',#1077,#847,#848);
#733=AXIS2_PLACEMENT_3D('',#1080,#850,#851);
#734=AXIS2_PLACEMENT_3D('',#1081,#852,#853);
#735=AXIS2_PLACEMENT_3D('',#1084,#854,#855);
#736=AXIS2_PLACEMENT_3D('',#1085,#856,#857);
#737=AXIS2_PLACEMENT_3D('',#1088,#859,#860);
#738=AXIS2_PLACEMENT_3D('',#1089,#861,#862);
#739=AXIS2_PLACEMENT_3D('',#1091,#863,#864);
#740=AXIS2_PLACEMENT_3D('',#1094,#866,#867);
#741=AXIS2_PLACEMENT_3D('',#1095,#868,#869);
#742=AXIS2_PLACEMENT_3D('',#1098,#870,#871);
#743=AXIS2_PLACEMENT_3D('',#1099,#872,#873);
#744=AXIS2_PLACEMENT_3D('',#1102,#875,#876);
#745=AXIS2_PLACEMENT_3D('',#1103,#877,#878);
#746=AXIS2_PLACEMENT_3D('',#1105,#879,#880);
#747=AXIS2_PLACEMENT_3D('',#1108,#882,#883);
#748=AXIS2_PLACEMENT_3D('',#1109,#884,#885);
#749=AXIS2_PLACEMENT_3D('',#1112,#886,#887);
#750=AXIS2_PLACEMENT_3D('',#1113,#888,#889);
#751=AXIS2_PLACEMENT_3D('',#1116,#891,#892);
#752=AXIS2_PLACEMENT_3D('',#1117,#893,#894);
#753=AXIS2_PLACEMENT_3D('',#1119,#895,#896);
#754=AXIS2_PLACEMENT_3D('',#1122,#898,#899);
#755=AXIS2_PLACEMENT_3D('',#1123,#900,#901);
#756=AXIS2_PLACEMENT_3D('',#1126,#902,#903);
#757=AXIS2_PLACEMENT_3D('',#1127,#904,#905);
#758=AXIS2_PLACEMENT_3D('',#1130,#907,#908);
#759=AXIS2_PLACEMENT_3D('',#1131,#909,#910);
#760=AXIS2_PLACEMENT_3D('',#1133,#911,#912);
#761=AXIS2_PLACEMENT_3D('',#1136,#914,#915);
#762=AXIS2_PLACEMENT_3D('',#1137,#916,#917);
#763=AXIS2_PLACEMENT_3D('',#1139,#918,#919);
#764=AXIS2_PLACEMENT_3D('',#1142,#921,#922);
#765=AXIS2_PLACEMENT_3D('',#1143,#923,#924);
#766=AXIS2_PLACEMENT_3D('',#1145,#925,#926);
#767=AXIS2_PLACEMENT_3D('',#1148,#928,#929);
#768=AXIS2_PLACEMENT_3D('',#1149,#930,#931);
#769=AXIS2_PLACEMENT_3D('',#1151,#932,#933);
#770=AXIS2_PLACEMENT_3D('',#1153,#935,#936);
#771=AXIS2_PLACEMENT_3D('',#1155,#937,#938);
#772=AXIS2_PLACEMENT_3D('',#1158,#940,#941);
#773=AXIS2_PLACEMENT_3D('',#1159,#942,#943);
#774=AXIS2_PLACEMENT_3D('',#1162,#944,#945);
#775=AXIS2_PLACEMENT_3D('',#1166,#947,#948);
#776=AXIS2_PLACEMENT_3D('',#1168,#949,#950);
#777=AXIS2_PLACEMENT_3D('',#1170,#952,#953);
#778=AXIS2_PLACEMENT_3D('',#1172,#955,#956);
#779=AXIS2_PLACEMENT_3D('',#1174,#958,#959);
#780=AXIS2_PLACEMENT_3D('',#1176,#961,#962);
#781=AXIS2_PLACEMENT_3D('',#1178,#964,#965);
#782=AXIS2_PLACEMENT_3D('',#1180,#967,#968);
#783=AXIS2_PLACEMENT_3D('',#1182,#970,#971);
#784=AXIS2_PLACEMENT_3D('',#1184,#972,#973);
#785=AXIS2_PLACEMENT_3D('',#1188,#975,#976);
#786=AXIS2_PLACEMENT_3D('',#1189,#977,#978);
#787=AXIS2_PLACEMENT_3D('',#1190,#979,#980);
#788=AXIS2_PLACEMENT_3D('',#1193,#981,#982);
#789=AXIS2_PLACEMENT_3D('',#1195,#984,#985);
#790=AXIS2_PLACEMENT_3D('',#1196,#986,#987);
#791=AXIS2_PLACEMENT_3D('',#1200,#989,#990);
#792=AXIS2_PLACEMENT_3D('',#1204,#992,#993);
#793=AXIS2_PLACEMENT_3D('',#1207,#995,#996);
#794=AXIS2_PLACEMENT_3D('',#1208,#997,#998);
#795=AXIS2_PLACEMENT_3D('',#1213,#1001,#1002);
#796=AXIS2_PLACEMENT_3D('',#1215,#1004,#1005);
#797=AXIS2_PLACEMENT_3D('',#1217,#1006,#1007);
#798=AXIS2_PLACEMENT_3D('',#1219,#1009,#1010);
#799=AXIS2_PLACEMENT_3D('',#1220,#1011,#1012);
#800=AXIS2_PLACEMENT_3D('',#1223,#1015,#1016);
#801=AXIS2_PLACEMENT_3D('',#1224,#1017,#1018);
#802=AXIS2_PLACEMENT_3D('',#1226,#1020,#1021);
#803=AXIS2_PLACEMENT_3D('',#1228,#1023,#1024);
#804=AXIS2_PLACEMENT_3D('',#1229,#1025,#1026);
#805=AXIS2_PLACEMENT_3D('',#1230,#1027,#1028);
#806=AXIS2_PLACEMENT_3D('',#1231,#1029,#1030);
#807=AXIS2_PLACEMENT_3D('',#1233,#1031,#1032);
#808=AXIS2_PLACEMENT_3D('',#1236,#1034,#1035);
#809=AXIS2_PLACEMENT_3D('',#1237,#1036,#1037);
#810=AXIS2_PLACEMENT_3D('',#1239,#1038,#1039);
#811=AXIS2_PLACEMENT_3D('',#1242,#1041,#1042);
#812=AXIS2_PLACEMENT_3D('',#1243,#1043,#1044);
#813=AXIS2_PLACEMENT_3D('',#1244,#1045,#1046);
#814=AXIS2_PLACEMENT_3D('',#1245,#1047,#1048);
#815=AXIS2_PLACEMENT_3D('',#1246,#1049,#1050);
#816=DIRECTION('axis',(0.,0.,1.));
#817=DIRECTION('refdir',(1.,0.,0.));
#818=DIRECTION('axis',(0.,0.,1.));
#819=DIRECTION('refdir',(1.,0.,0.));
#820=DIRECTION('center_axis',(0.,-1.,0.));
#821=DIRECTION('ref_axis',(0.,0.,-1.));
#822=DIRECTION('center_axis',(0.,-1.,0.));
#823=DIRECTION('ref_axis',(0.,0.,-1.));
#824=DIRECTION('center_axis',(0.,-1.,0.));
#825=DIRECTION('ref_axis',(0.,0.,-1.));
#826=DIRECTION('',(-8.65956056235492E-17,-0.707106781186548,0.707106781186547));
#827=DIRECTION('center_axis',(0.,1.,-1.54420742354709E-17));
#828=DIRECTION('ref_axis',(0.,-1.54420742354709E-17,-1.));
#829=DIRECTION('center_axis',(0.,1.,0.));
#830=DIRECTION('ref_axis',(0.,0.,1.));
#831=DIRECTION('center_axis',(0.,1.,0.));
#832=DIRECTION('ref_axis',(0.,0.,1.));
#833=DIRECTION('',(-8.65956056235499E-17,0.707106781186543,-0.707106781186552));
#834=DIRECTION('center_axis',(0.,-1.,1.54420742354709E-17));
#835=DIRECTION('ref_axis',(0.,1.54420742354709E-17,1.));
#836=DIRECTION('center_axis',(0.,-1.,0.));
#837=DIRECTION('ref_axis',(0.,0.,-1.));
#838=DIRECTION('center_axis',(0.,-1.,0.));
#839=DIRECTION('ref_axis',(0.,0.,-1.));
#840=DIRECTION('center_axis',(0.,-1.,0.));
#841=DIRECTION('ref_axis',(0.,0.,-1.));
#842=DIRECTION('',(-8.65956056235489E-17,-0.707106781186551,0.707106781186544));
#843=DIRECTION('center_axis',(0.,1.,-1.54420742354709E-17));
#844=DIRECTION('ref_axis',(0.,-1.54420742354709E-17,-1.));
#845=DIRECTION('center_axis',(0.,1.,0.));
#846=DIRECTION('ref_axis',(0.,0.,1.));
#847=DIRECTION('center_axis',(0.,1.,0.));
#848=DIRECTION('ref_axis',(0.,0.,1.));
#849=DIRECTION('',(-8.65956056235498E-17,0.707106781186544,-0.707106781186551));
#850=DIRECTION('center_axis',(0.,-1.,1.54420742354709E-17));
#851=DIRECTION('ref_axis',(0.,1.54420742354709E-17,1.));
#852=DIRECTION('center_axis',(0.,-1.,0.));
#853=DIRECTION('ref_axis',(0.,0.,-1.));
#854=DIRECTION('center_axis',(0.,-1.,0.));
#855=DIRECTION('ref_axis',(0.,0.,-1.));
#856=DIRECTION('center_axis',(0.,-1.,0.));
#857=DIRECTION('ref_axis',(0.,0.,-1.));
#858=DIRECTION('',(-8.65956056235492E-17,-0.707106781186549,0.707106781186546));
#859=DIRECTION('center_axis',(0.,1.,-1.54420742354709E-17));
#860=DIRECTION('ref_axis',(0.,-1.54420742354709E-17,-1.));
#861=DIRECTION('center_axis',(0.,1.,0.));
#862=DIRECTION('ref_axis',(0.,0.,1.));
#863=DIRECTION('center_axis',(0.,1.,0.));
#864=DIRECTION('ref_axis',(0.,0.,1.));
#865=DIRECTION('',(-8.65956056235498E-17,0.707106781186544,-0.707106781186551));
#866=DIRECTION('center_axis',(0.,-1.,1.54420742354709E-17));
#867=DIRECTION('ref_axis',(0.,1.54420742354709E-17,1.));
#868=DIRECTION('center_axis',(0.,-1.,0.));
#869=DIRECTION('ref_axis',(0.,0.,-1.));
#870=DIRECTION('center_axis',(0.,-1.,0.));
#871=DIRECTION('ref_axis',(0.,0.,-1.));
#872=DIRECTION('center_axis',(0.,-1.,0.));
#873=DIRECTION('ref_axis',(0.,0.,-1.));
#874=DIRECTION('',(-8.65956056235487E-17,-0.707106781186553,0.707106781186542));
#875=DIRECTION('center_axis',(0.,1.,-1.54420742354709E-17));
#876=DIRECTION('ref_axis',(0.,-1.54420742354709E-17,-1.));
#877=DIRECTION('center_axis',(0.,1.,0.));
#878=DIRECTION('ref_axis',(0.,0.,1.));
#879=DIRECTION('center_axis',(0.,1.,0.));
#880=DIRECTION('ref_axis',(0.,0.,1.));
#881=DIRECTION('',(-8.65956056235499E-17,0.707106781186543,-0.707106781186552));
#882=DIRECTION('center_axis',(0.,-1.,1.54420742354709E-17));
#883=DIRECTION('ref_axis',(0.,1.54420742354709E-17,1.));
#884=DIRECTION('center_axis',(0.,-1.,0.));
#885=DIRECTION('ref_axis',(0.,0.,-1.));
#886=DIRECTION('center_axis',(0.,-1.,0.));
#887=DIRECTION('ref_axis',(0.,0.,-1.));
#888=DIRECTION('center_axis',(0.,-1.,0.));
#889=DIRECTION('ref_axis',(0.,0.,-1.));
#890=DIRECTION('',(-8.65956056235492E-17,-0.707106781186549,0.707106781186546));
#891=DIRECTION('center_axis',(0.,1.,-1.54420742354709E-17));
#892=DIRECTION('ref_axis',(0.,-1.54420742354709E-17,-1.));
#893=DIRECTION('center_axis',(0.,1.,0.));
#894=DIRECTION('ref_axis',(0.,0.,1.));
#895=DIRECTION('center_axis',(0.,1.,0.));
#896=DIRECTION('ref_axis',(0.,0.,1.));
#897=DIRECTION('',(-8.65956056235486E-17,0.707106781186554,-0.707106781186541));
#898=DIRECTION('center_axis',(0.,-1.,1.54420742354709E-17));
#899=DIRECTION('ref_axis',(0.,1.54420742354709E-17,1.));
#900=DIRECTION('center_axis',(0.,-1.,0.));
#901=DIRECTION('ref_axis',(0.,0.,-1.));
#902=DIRECTION('center_axis',(0.,-1.,0.));
#903=DIRECTION('ref_axis',(0.,0.,-1.));
#904=DIRECTION('center_axis',(0.,-1.,0.));
#905=DIRECTION('ref_axis',(0.,0.,-1.));
#906=DIRECTION('',(-8.65956056235489E-17,-0.707106781186551,0.707106781186544));
#907=DIRECTION('center_axis',(0.,1.,-1.54420742354709E-17));
#908=DIRECTION('ref_axis',(0.,-1.54420742354709E-17,-1.));
#909=DIRECTION('center_axis',(0.,1.,0.));
#910=DIRECTION('ref_axis',(0.,0.,1.));
#911=DIRECTION('center_axis',(0.,1.,0.));
#912=DIRECTION('ref_axis',(0.,0.,1.));
#913=DIRECTION('',(-8.65956056235498E-17,0.707106781186544,-0.707106781186551));
#914=DIRECTION('center_axis',(0.,-1.,1.54420742354709E-17));
#915=DIRECTION('ref_axis',(0.,1.54420742354709E-17,1.));
#916=DIRECTION('center_axis',(0.,1.,-1.54420742354709E-17));
#917=DIRECTION('ref_axis',(0.,1.54420742354709E-17,1.));
#918=DIRECTION('center_axis',(0.,1.,-1.54420742354709E-17));
#919=DIRECTION('ref_axis',(0.,1.54420742354709E-17,1.));
#920=DIRECTION('',(-8.65956056235488E-17,0.707106781186552,-0.707106781186543));
#921=DIRECTION('center_axis',(0.,-1.,1.54420742354709E-17));
#922=DIRECTION('ref_axis',(0.,1.54420742354709E-17,1.));
#923=DIRECTION('center_axis',(0.,-1.,1.54420742354709E-17));
#924=DIRECTION('ref_axis',(0.,-1.54420742354709E-17,-1.));
#925=DIRECTION('center_axis',(0.,-1.,1.54420742354709E-17));
#926=DIRECTION('ref_axis',(0.,-1.54420742354709E-17,-1.));
#927=DIRECTION('',(-8.65956056235478E-17,-0.70710678118656,0.707106781186535));
#928=DIRECTION('center_axis',(0.,1.,-1.54420742354709E-17));
#929=DIRECTION('ref_axis',(0.,-1.54420742354709E-17,-1.));
#930=DIRECTION('center_axis',(0.,-1.,1.54420742354709E-17));
#931=DIRECTION('ref_axis',(0.,-1.54420742354709E-17,-1.));
#932=DIRECTION('center_axis',(0.,-1.,1.54420742354709E-17));
#933=DIRECTION('ref_axis',(0.,-1.54420742354709E-17,-1.));
#934=DIRECTION('',(0.,-1.,1.54420742354709E-17));
#935=DIRECTION('center_axis',(0.,1.,-1.54420742354709E-17));
#936=DIRECTION('ref_axis',(0.,1.54420742354709E-17,1.));
#937=DIRECTION('center_axis',(0.,1.,-1.54420742354709E-17));
#938=DIRECTION('ref_axis',(0.,-1.54420742354709E-17,-1.));
#939=DIRECTION('',(8.65956056235482E-17,-0.707106781186557,0.707106781186538));
#940=DIRECTION('center_axis',(0.,-1.,1.54420742354709E-17));
#941=DIRECTION('ref_axis',(0.,-1.54420742354709E-17,-1.));
#942=DIRECTION('center_axis',(0.,-1.,1.54420742354711E-17));
#943=DIRECTION('ref_axis',(0.500000000000001,1.33732285750431E-17,0.866025403784438));
#944=DIRECTION('center_axis',(0.,1.,-1.54420742354709E-17));
#945=DIRECTION('ref_axis',(0.,1.54420742354709E-17,1.));
#946=DIRECTION('',(0.353626401105208,0.70696073000241,0.61249889361193));
#947=DIRECTION('center_axis',(0.,-1.,1.54420742354711E-17));
#948=DIRECTION('ref_axis',(0.,1.54420742354711E-17,1.));
#949=DIRECTION('center_axis',(0.,-1.,1.54420742354711E-17));
#950=DIRECTION('ref_axis',(0.,1.54420742354711E-17,1.));
#951=DIRECTION('',(-0.353626401105202,-0.7069607300024,-0.612498893611945));
#952=DIRECTION('center_axis',(0.,1.,-1.54420742354709E-17));
#953=DIRECTION('ref_axis',(0.,1.54420742354709E-17,1.));
#954=DIRECTION('',(0.,1.,-1.54420742354709E-17));
#955=DIRECTION('center_axis',(0.,1.,-1.54420742354709E-17));
#956=DIRECTION('ref_axis',(0.,1.54420742354709E-17,1.));
#957=DIRECTION('',(0.,1.,-1.54420742354709E-17));
#958=DIRECTION('center_axis',(0.,1.,-1.54420742354709E-17));
#959=DIRECTION('ref_axis',(0.,1.54420742354709E-17,1.));
#960=DIRECTION('',(0.,1.,-1.54420742354709E-17));
#961=DIRECTION('center_axis',(0.,1.,-1.54420742354709E-17));
#962=DIRECTION('ref_axis',(0.,1.54420742354709E-17,1.));
#963=DIRECTION('',(0.,1.,-1.54420742354709E-17));
#964=DIRECTION('center_axis',(0.,1.,-1.54420742354709E-17));
#965=DIRECTION('ref_axis',(0.,1.54420742354709E-17,1.));
#966=DIRECTION('',(0.,1.,-1.54420742354709E-17));
#967=DIRECTION('center_axis',(0.,1.,-1.54420742354709E-17));
#968=DIRECTION('ref_axis',(0.,1.54420742354709E-17,1.));
#969=DIRECTION('',(0.,1.,-1.54420742354709E-17));
#970=DIRECTION('center_axis',(0.,1.,-1.54420742354709E-17));
#971=DIRECTION('ref_axis',(0.,1.54420742354709E-17,1.));
#972=DIRECTION('center_axis',(0.,1.,-1.54420742354709E-17));
#973=DIRECTION('ref_axis',(0.,1.54420742354709E-17,1.));
#974=DIRECTION('',(-4.18853873767702E-17,0.939692620785907,-0.342020143325671));
#975=DIRECTION('center_axis',(0.,1.,-1.54420742354709E-17));
#976=DIRECTION('ref_axis',(0.,1.54420742354709E-17,1.));
#977=DIRECTION('center_axis',(0.,1.,-1.54420742354709E-17));
#978=DIRECTION('ref_axis',(0.,1.54420742354709E-17,1.));
#979=DIRECTION('center_axis',(0.,-1.,1.54420742354709E-17));
#980=DIRECTION('ref_axis',(0.,-1.54420742354709E-17,-1.));
#981=DIRECTION('center_axis',(0.,1.,-1.54420742354709E-17));
#982=DIRECTION('ref_axis',(0.,1.54420742354709E-17,1.));
#983=DIRECTION('',(1.15079156022785E-16,0.342020143325673,-0.939692620785907));
#984=DIRECTION('center_axis',(0.,1.,-1.54420742354709E-17));
#985=DIRECTION('ref_axis',(0.,1.54420742354709E-17,1.));
#986=DIRECTION('center_axis',(0.,1.,-1.54420742354709E-17));
#987=DIRECTION('ref_axis',(0.,1.54420742354709E-17,1.));
#988=DIRECTION('',(0.,1.,-1.54420742354709E-17));
#989=DIRECTION('center_axis',(0.,1.,-1.54420742354709E-17));
#990=DIRECTION('ref_axis',(0.,1.54420742354709E-17,1.));
#991=DIRECTION('',(0.,1.,-1.54420742354709E-17));
#992=DIRECTION('center_axis',(0.,-1.,0.));
#993=DIRECTION('ref_axis',(0.,0.,-1.));
#994=DIRECTION('',(0.,-1.,1.54420742354709E-17));
#995=DIRECTION('center_axis',(0.,1.,-1.54420742354709E-17));
#996=DIRECTION('ref_axis',(0.,1.54420742354709E-17,1.));
#997=DIRECTION('center_axis',(0.,1.,-1.54420742354709E-17));
#998=DIRECTION('ref_axis',(0.,1.54420742354709E-17,1.));
#999=DIRECTION('',(0.,-1.,1.54420742354709E-17));
#1000=DIRECTION('',(0.,1.,-1.54420742354709E-17));
#1001=DIRECTION('center_axis',(0.,1.,0.));
#1002=DIRECTION('ref_axis',(8.88178419700125E-16,0.,-1.));
#1003=DIRECTION('',(0.,-1.,1.54420742354709E-17));
#1004=DIRECTION('center_axis',(0.,1.,-1.54420742354709E-17));
#1005=DIRECTION('ref_axis',(0.,1.54420742354709E-17,1.));
#1006=DIRECTION('center_axis',(0.,1.,-1.54420742354709E-17));
#1007=DIRECTION('ref_axis',(0.,-1.54420742354709E-17,-1.));
#1008=DIRECTION('',(0.,1.,-1.54420742354709E-17));
#1009=DIRECTION('center_axis',(0.,-1.,1.54420742354709E-17));
#1010=DIRECTION('ref_axis',(0.,-1.54420742354709E-17,-1.));
#1011=DIRECTION('center_axis',(0.,1.,-1.54420742354709E-17));
#1012=DIRECTION('ref_axis',(0.,1.54420742354709E-17,1.));
#1013=DIRECTION('',(0.5,0.,0.866025403784439));
#1014=DIRECTION('',(-0.5,0.,-0.866025403784439));
#1015=DIRECTION('center_axis',(0.,1.,-1.54420742354709E-17));
#1016=DIRECTION('ref_axis',(0.,1.54420742354709E-17,1.));
#1017=DIRECTION('center_axis',(-0.866025403784439,7.72103711773545E-18,
0.5));
#1018=DIRECTION('ref_axis',(0.5,-3.85185988877447E-34,0.866025403784439));
#1019=DIRECTION('',(0.5,0.,0.866025403784439));
#1020=DIRECTION('center_axis',(0.866025403784439,-7.72103711773545E-18,
-0.5));
#1021=DIRECTION('ref_axis',(-0.5,3.85185988877447E-34,-0.866025403784439));
#1022=DIRECTION('',(-0.5,0.,-0.866025403784439));
#1023=DIRECTION('center_axis',(0.,-1.,0.));
#1024=DIRECTION('ref_axis',(0.,0.,-1.));
#1025=DIRECTION('center_axis',(0.,-1.,1.54420742354709E-17));
#1026=DIRECTION('ref_axis',(0.,-1.54420742354709E-17,-1.));
#1027=DIRECTION('axis',(0.,0.,1.));
#1028=DIRECTION('refdir',(1.,0.,0.));
#1029=DIRECTION('center_axis',(0.,-1.,0.));
#1030=DIRECTION('ref_axis',(0.,0.,-1.));
#1031=DIRECTION('center_axis',(0.,1.,0.));
#1032=DIRECTION('ref_axis',(0.,0.,1.));
#1033=DIRECTION('',(0.,-1.,0.));
#1034=DIRECTION('center_axis',(0.,1.,0.));
#1035=DIRECTION('ref_axis',(0.,0.,1.));
#1036=DIRECTION('center_axis',(0.,-1.,0.));
#1037=DIRECTION('ref_axis',(0.,0.,-1.));
#1038=DIRECTION('center_axis',(0.,1.,0.));
#1039=DIRECTION('ref_axis',(0.,0.,1.));
#1040=DIRECTION('',(0.,1.,0.));
#1041=DIRECTION('center_axis',(0.,1.,0.));
#1042=DIRECTION('ref_axis',(0.,0.,1.));
#1043=DIRECTION('center_axis',(0.,1.,0.));
#1044=DIRECTION('ref_axis',(0.,0.,1.));
#1045=DIRECTION('center_axis',(0.,1.,0.));
#1046=DIRECTION('ref_axis',(0.,0.,1.));
#1047=DIRECTION('',(0.,0.,1.));
#1048=DIRECTION('',(1.,0.,0.));
#1049=DIRECTION('',(0.,0.,1.));
#1050=DIRECTION('',(1.,0.,0.));
#1051=CARTESIAN_POINT('',(0.,0.,0.));
#1052=CARTESIAN_POINT('',(0.,0.,0.));
#1053=CARTESIAN_POINT('Origin',(0.,-1.73472347597681E-15,29.35));
#1054=CARTESIAN_POINT('',(3.06161699786838E-16,0.500000000000009,26.85));
#1055=CARTESIAN_POINT('',(-3.06161699786837E-16,0.50000000000001,31.85));
#1056=CARTESIAN_POINT('Origin',(0.,0.500000000000009,29.35));
#1057=CARTESIAN_POINT('Origin',(0.,0.500000000000009,29.35));
#1058=CARTESIAN_POINT('',(-3.67394039744206E-16,-2.11121558090663E-15,32.35));
#1059=CARTESIAN_POINT('',(-3.67394039744206E-16,-1.73472347597681E-15,32.35));
#1060=CARTESIAN_POINT('Origin',(0.,-1.98541576528068E-15,29.35));
#1061=CARTESIAN_POINT('Origin',(0.,12.2,29.35));
#1062=CARTESIAN_POINT('',(-3.06161699786838E-16,12.2,26.85));
#1063=CARTESIAN_POINT('Origin',(0.,12.2,29.35));
#1064=CARTESIAN_POINT('',(-3.67394039744206E-16,12.7,26.35));
#1065=CARTESIAN_POINT('',(-3.06161699786838E-16,12.2,26.85));
#1066=CARTESIAN_POINT('Origin',(0.,12.7,29.35));
#1067=CARTESIAN_POINT('Origin',(25.4178456010733,-1.73472347597681E-15,
14.6749999999999));
#1068=CARTESIAN_POINT('',(25.4178456010733,0.500000000000014,12.1749999999999));
#1069=CARTESIAN_POINT('',(25.4178456010733,0.500000000000015,17.1749999999999));
#1070=CARTESIAN_POINT('Origin',(25.4178456010733,0.500000000000014,14.6749999999999));
#1071=CARTESIAN_POINT('Origin',(25.4178456010733,0.500000000000014,14.6749999999999));
#1072=CARTESIAN_POINT('',(25.4178456010733,-2.2245218006094E-15,17.6749999999999));
#1073=CARTESIAN_POINT('',(25.4178456010733,-1.73472347597681E-15,17.6749999999999));
#1074=CARTESIAN_POINT('Origin',(25.4178456010733,-2.21202820468622E-15,
14.6749999999999));
#1075=CARTESIAN_POINT('Origin',(25.4178456010733,12.2,14.6749999999999));
#1076=CARTESIAN_POINT('',(25.4178456010733,12.2,12.1749999999999));
#1077=CARTESIAN_POINT('Origin',(25.4178456010733,12.2,14.6749999999999));
#1078=CARTESIAN_POINT('',(25.4178456010733,12.7,11.6749999999999));
#1079=CARTESIAN_POINT('',(25.4178456010733,12.2,12.1749999999999));
#1080=CARTESIAN_POINT('Origin',(25.4178456010733,12.7,14.6749999999999));
#1081=CARTESIAN_POINT('Origin',(25.4178456010732,-1.73472347597681E-15,
-14.6750000000001));
#1082=CARTESIAN_POINT('',(25.4178456010732,0.500000000000011,-17.1750000000001));
#1083=CARTESIAN_POINT('',(25.4178456010732,0.500000000000011,-12.1750000000001));
#1084=CARTESIAN_POINT('Origin',(25.4178456010732,0.500000000000011,-14.6750000000001));
#1085=CARTESIAN_POINT('Origin',(25.4178456010732,0.500000000000011,-14.6750000000001));
#1086=CARTESIAN_POINT('',(25.4178456010732,-4.67158028926525E-15,-11.6750000000001));
#1087=CARTESIAN_POINT('',(25.4178456010732,-1.73472347597681E-15,-11.6750000000001));
#1088=CARTESIAN_POINT('Origin',(25.4178456010732,-2.66525308349729E-15,
-14.6750000000001));
#1089=CARTESIAN_POINT('Origin',(25.4178456010732,12.2,-14.6750000000001));
#1090=CARTESIAN_POINT('',(25.4178456010732,12.2,-17.1750000000001));
#1091=CARTESIAN_POINT('Origin',(25.4178456010732,12.2,-14.6750000000001));
#1092=CARTESIAN_POINT('',(25.4178456010732,12.7,-17.6750000000001));
#1093=CARTESIAN_POINT('',(25.4178456010732,12.2,-17.1750000000001));
#1094=CARTESIAN_POINT('Origin',(25.4178456010732,12.7,-14.6750000000001));
#1095=CARTESIAN_POINT('Origin',(0.,-1.73472347597681E-15,-29.35));
#1096=CARTESIAN_POINT('',(3.06161699786837E-16,0.499999999999988,-31.85));
#1097=CARTESIAN_POINT('',(-3.06161699786838E-16,0.499999999999988,-26.85));
#1098=CARTESIAN_POINT('Origin',(0.,0.499999999999988,-29.35));
#1099=CARTESIAN_POINT('Origin',(0.,0.499999999999988,-29.35));
#1100=CARTESIAN_POINT('',(-3.67394039744203E-16,-2.61401336694932E-15,-26.35));
#1101=CARTESIAN_POINT('',(-3.67394039744203E-16,-1.73472347597681E-15,-26.35));
#1102=CARTESIAN_POINT('Origin',(0.,-2.89186552290282E-15,-29.35));
#1103=CARTESIAN_POINT('Origin',(0.,12.2,-29.35));
#1104=CARTESIAN_POINT('',(-3.06161699786837E-16,12.2,-31.85));
#1105=CARTESIAN_POINT('Origin',(0.,12.2,-29.35));
#1106=CARTESIAN_POINT('',(-3.67394039744206E-16,12.7,-32.35));
#1107=CARTESIAN_POINT('',(-3.06161699786837E-16,12.2,-31.85));
#1108=CARTESIAN_POINT('Origin',(0.,12.7,-29.35));
#1109=CARTESIAN_POINT('Origin',(-25.4178456010734,-1.73472347597681E-15,
-14.6749999999998));
#1110=CARTESIAN_POINT('',(-25.4178456010734,0.500000000000011,-17.1749999999998));
#1111=CARTESIAN_POINT('',(-25.4178456010734,0.500000000000011,-12.1749999999998));
#1112=CARTESIAN_POINT('Origin',(-25.4178456010734,0.500000000000011,-14.6749999999998));
#1113=CARTESIAN_POINT('Origin',(-25.4178456010734,0.500000000000011,-14.6749999999998));
#1114=CARTESIAN_POINT('',(-25.4178456010734,-2.41689217110859E-15,-11.6749999999998));
#1115=CARTESIAN_POINT('',(-25.4178456010734,-1.73472347597681E-15,-11.6749999999998));
#1116=CARTESIAN_POINT('Origin',(-25.4178456010734,-2.66525308349728E-15,
-14.6749999999998));
#1117=CARTESIAN_POINT('Origin',(-25.4178456010734,12.2,-14.6749999999998));
#1118=CARTESIAN_POINT('',(-25.4178456010734,12.2,-17.1749999999998));
#1119=CARTESIAN_POINT('Origin',(-25.4178456010734,12.2,-14.6749999999998));
#1120=CARTESIAN_POINT('',(-25.4178456010734,12.7,-17.6749999999997));
#1121=CARTESIAN_POINT('',(-25.4178456010734,12.2,-17.1749999999998));
#1122=CARTESIAN_POINT('Origin',(-25.4178456010734,12.7,-14.6749999999998));
#1123=CARTESIAN_POINT('Origin',(-25.4178456010731,-1.73472347597681E-15,
14.6750000000003));
#1124=CARTESIAN_POINT('',(-25.4178456010731,0.500000000000014,12.1750000000003));
#1125=CARTESIAN_POINT('',(-25.4178456010731,0.500000000000015,17.1750000000003));
#1126=CARTESIAN_POINT('Origin',(-25.4178456010731,0.500000000000014,14.6750000000003));
#1127=CARTESIAN_POINT('Origin',(-25.4178456010731,0.500000000000014,14.6750000000003));
#1128=CARTESIAN_POINT('',(-25.4178456010731,-3.36898689414091E-15,17.6750000000003));
#1129=CARTESIAN_POINT('',(-25.4178456010731,-1.73472347597681E-15,17.6750000000003));
#1130=CARTESIAN_POINT('Origin',(-25.4178456010731,-2.21202820468621E-15,
14.6750000000003));
#1131=CARTESIAN_POINT('Origin',(-25.4178456010731,12.2,14.6750000000003));
#1132=CARTESIAN_POINT('',(-25.4178456010731,12.2,12.1750000000003));
#1133=CARTESIAN_POINT('Origin',(-25.4178456010731,12.2,14.6750000000003));
#1134=CARTESIAN_POINT('',(-25.4178456010731,12.7,11.6750000000003));
#1135=CARTESIAN_POINT('',(-25.4178456010731,12.2,12.1750000000003));
#1136=CARTESIAN_POINT('Origin',(-25.4178456010731,12.7,14.6750000000003));
#1137=CARTESIAN_POINT('Origin',(0.,11.2,-6.5771053120632E-16));
#1138=CARTESIAN_POINT('',(-2.1492551325036E-15,11.2,-17.55));
#1139=CARTESIAN_POINT('Origin',(0.,11.2,-6.5771053120632E-16));
#1140=CARTESIAN_POINT('',(-2.18599453647803E-15,11.5,-17.85));
#1141=CARTESIAN_POINT('',(-2.1492551325036E-15,11.2,-17.55));
#1142=CARTESIAN_POINT('Origin',(0.,11.5,-6.62343153476962E-16));
#1143=CARTESIAN_POINT('Origin',(0.,0.300000000000041,-4.63262227064189E-18));
#1144=CARTESIAN_POINT('',(-2.35132185436292E-15,0.300000000000043,19.2));
#1145=CARTESIAN_POINT('Origin',(0.,0.300000000000041,-4.63262227064189E-18));
#1146=CARTESIAN_POINT('',(-2.38806125833734E-15,-4.05925293378573E-15,19.5));
#1147=CARTESIAN_POINT('',(-2.35132185436292E-15,0.300000000000041,19.2));
#1148=CARTESIAN_POINT('Origin',(0.,-2.43864064409175E-15,4.59331500894903E-32));
#1149=CARTESIAN_POINT('Origin',(0.,7.4,-1.14271349342485E-16));
#1150=CARTESIAN_POINT('',(-2.35132185436292E-15,7.4,19.2));
#1151=CARTESIAN_POINT('Origin',(0.,7.4,-1.14271349342485E-16));
#1152=CARTESIAN_POINT('',(-2.35132185436292E-15,7.4,19.2));
#1153=CARTESIAN_POINT('Origin',(0.,0.400000000000001,-4.90936129463235E-16));
#1154=CARTESIAN_POINT('',(-4.28626379701574E-15,0.400000000000002,-35.));
#1155=CARTESIAN_POINT('Origin',(0.,0.400000000000001,-4.90936129463235E-16));
#1156=CARTESIAN_POINT('',(-4.23727792504984E-15,-1.38777878078145E-15,-34.6));
#1157=CARTESIAN_POINT('',(-4.28626379701574E-15,0.4,-35.));
#1158=CARTESIAN_POINT('Origin',(0.,-2.43864064409175E-15,-4.84759299769047E-16));
#1159=CARTESIAN_POINT('Origin',(0.,12.7,-6.80873642559527E-16));
#1160=CARTESIAN_POINT('',(-18.1587984607583,12.7,-29.4519615384368));
#1161=CARTESIAN_POINT('',(-16.4267476531894,12.7,-30.4519615384368));
#1162=CARTESIAN_POINT('Origin',(0.,12.7,-6.80873642559527E-16));
#1163=CARTESIAN_POINT('',(-18.3588810883204,12.3,-29.7985148150862));
#1164=CARTESIAN_POINT('',(-18.3588810883204,12.3,-29.7985148150862));
#1165=CARTESIAN_POINT('',(-4.28626379701574E-15,12.3,-35.));
#1166=CARTESIAN_POINT('Origin',(0.,12.3,-6.74696812865339E-16));
#1167=CARTESIAN_POINT('',(-16.6268302807515,12.3,-30.7985148150862));
#1168=CARTESIAN_POINT('Origin',(0.,12.3,-6.74696812865339E-16));
#1169=CARTESIAN_POINT('',(-16.4267476531894,12.7,-30.4519615384368));
#1170=CARTESIAN_POINT('Origin',(-25.4178456010731,12.7,14.6750000000003));
#1171=CARTESIAN_POINT('',(-25.4178456010731,12.7,12.1750000000003));
#1172=CARTESIAN_POINT('Origin',(-25.4178456010734,12.7,-14.6749999999998));
#1173=CARTESIAN_POINT('',(-25.4178456010734,12.7,-17.1749999999998));
#1174=CARTESIAN_POINT('Origin',(0.,12.7,-29.35));
#1175=CARTESIAN_POINT('',(-3.06161699786837E-16,12.7,-31.85));
#1176=CARTESIAN_POINT('Origin',(25.4178456010732,12.7,-14.6750000000001));
#1177=CARTESIAN_POINT('',(25.4178456010732,12.7,-17.1750000000001));
#1178=CARTESIAN_POINT('Origin',(25.4178456010733,12.7,14.6749999999999));
#1179=CARTESIAN_POINT('',(25.4178456010733,12.7,12.1749999999999));
#1180=CARTESIAN_POINT('Origin',(0.,12.7,29.35));
#1181=CARTESIAN_POINT('',(-3.06161699786838E-16,12.7,26.85));
#1182=CARTESIAN_POINT('Origin',(0.,11.5,-6.62343153476962E-16));
#1183=CARTESIAN_POINT('',(-2.53889094527096E-15,11.5,-20.7316178594403));
#1184=CARTESIAN_POINT('Origin',(0.,11.5,-6.62343153476962E-16));
#1185=CARTESIAN_POINT('',(-2.5656350442137E-15,12.1,-20.95));
#1186=CARTESIAN_POINT('',(-2.53889094527096E-15,11.5,-20.7316178594403));
#1187=CARTESIAN_POINT('',(2.76310934057622E-15,12.1,20.95));
#1188=CARTESIAN_POINT('Origin',(0.,12.1,-6.71608398018245E-16));
#1189=CARTESIAN_POINT('Origin',(0.,12.1,-6.71608398018245E-16));
#1190=CARTESIAN_POINT('Origin',(0.,12.1,-6.71608398018245E-16));
#1191=CARTESIAN_POINT('',(2.96058363693873E-15,10.9261959944915,-24.175));
#1192=CARTESIAN_POINT('',(-2.96058363693873E-15,10.9261959944915,24.175));
#1193=CARTESIAN_POINT('Origin',(0.,10.9261959944915,-6.53482429427289E-16));
#1194=CARTESIAN_POINT('',(-2.5656350442137E-15,12.1,20.95));
#1195=CARTESIAN_POINT('Origin',(0.,10.9261959944915,-6.53482429427289E-16));
#1196=CARTESIAN_POINT('Origin',(0.,31.3921104365332,-9.69518599538093E-16));
#1197=CARTESIAN_POINT('',(-2.96058363693873E-15,12.7,-24.175));
#1198=CARTESIAN_POINT('',(-2.96058363693873E-15,31.3921104365332,-24.175));
#1199=CARTESIAN_POINT('',(-11.211128907145,12.7,-21.4182448773792));
#1200=CARTESIAN_POINT('Origin',(0.,12.7,-6.80873642559527E-16));
#1201=CARTESIAN_POINT('',(-11.211128907145,11.2,-21.4182448773792));
#1202=CARTESIAN_POINT('',(-11.211128907145,31.3921104365332,-21.4182448773792));
#1203=CARTESIAN_POINT('',(-12.9431797147139,11.2,-20.4182448773791));
#1204=CARTESIAN_POINT('Origin',(0.,11.2,-6.57710531206321E-16));
#1205=CARTESIAN_POINT('',(-12.9431797147139,12.7,-20.4182448773791));
#1206=CARTESIAN_POINT('',(-12.9431797147139,31.3921104365332,-20.4182448773792));
#1207=CARTESIAN_POINT('Origin',(0.,12.7,-6.80873642559527E-16));
#1208=CARTESIAN_POINT('Origin',(0.,31.3921104365332,-9.69518599538093E-16));
#1209=CARTESIAN_POINT('',(-4.28626379701574E-15,31.3921104365332,-35.));
#1210=CARTESIAN_POINT('',(-18.3588810883204,11.2,-29.7985148150862));
#1211=CARTESIAN_POINT('',(-18.3588810883204,31.3921104365332,-29.7985148150862));
#1212=CARTESIAN_POINT('',(-16.6268302807515,11.2,-30.7985148150862));
#1213=CARTESIAN_POINT('Origin',(0.,11.2,-6.57710531206321E-16));
#1214=CARTESIAN_POINT('',(-16.6268302807515,31.3921104365332,-30.7985148150862));
#1215=CARTESIAN_POINT('Origin',(0.,-3.46944695195361E-15,-4.84759299769047E-16));
#1216=CARTESIAN_POINT('',(-2.1492551325036E-15,7.4,-17.55));
#1217=CARTESIAN_POINT('Origin',(0.,7.4,-5.99030649111531E-16));
#1218=CARTESIAN_POINT('',(-2.1492551325036E-15,-3.74045535478613E-15,-17.55));
#1219=CARTESIAN_POINT('Origin',(0.,-2.43864064409175E-15,3.76576698597013E-32));
#1220=CARTESIAN_POINT('Origin',(0.,12.7,35.));
#1221=CARTESIAN_POINT('',(-18.7780777094355,12.7,-30.5245846612189));
#1222=CARTESIAN_POINT('',(-17.0460269018667,12.7,-31.5245846612189));
#1223=CARTESIAN_POINT('Origin',(0.,11.5,20.7316178594403));
#1224=CARTESIAN_POINT('Origin',(-18.7780777094355,11.2,-30.5245846612189));
#1225=CARTESIAN_POINT('',(-18.7780777094355,11.2,-30.5245846612189));
#1226=CARTESIAN_POINT('Origin',(-17.0460269018667,11.2,-31.5245846612189));
#1227=CARTESIAN_POINT('',(-17.0460269018667,11.2,-31.5245846612189));
#1228=CARTESIAN_POINT('Origin',(-12.7260463016631,11.2,-20.0421587739544));
#1229=CARTESIAN_POINT('Origin',(0.,7.4,-1.14271349342485E-16));
#1230=CARTESIAN_POINT('',(0.,0.,0.));
#1231=CARTESIAN_POINT('Origin',(0.,28.7,0.));
#1232=CARTESIAN_POINT('',(-2.13088543051639E-15,28.7,17.4));
#1233=CARTESIAN_POINT('Origin',(0.,28.7,0.));
#1234=CARTESIAN_POINT('',(-2.13088543051639E-15,-28.7,17.4));
#1235=CARTESIAN_POINT('',(-2.13088543051639E-15,28.7,17.4));
#1236=CARTESIAN_POINT('Origin',(0.,-28.7,0.));
#1237=CARTESIAN_POINT('Origin',(0.,28.7,0.));
#1238=CARTESIAN_POINT('',(-2.33295215237571E-15,-28.7,19.05));
#1239=CARTESIAN_POINT('Origin',(0.,-28.7,0.));
#1240=CARTESIAN_POINT('',(-2.33295215237571E-15,28.7,19.05));
#1241=CARTESIAN_POINT('',(-2.33295215237571E-15,28.7,19.05));
#1242=CARTESIAN_POINT('Origin',(0.,28.7,0.));
#1243=CARTESIAN_POINT('Origin',(0.,28.7,0.));
#1244=CARTESIAN_POINT('Origin',(0.,-28.7,0.));
#1245=CARTESIAN_POINT('',(0.,0.,0.));
#1246=CARTESIAN_POINT('',(0.,-21.3,-5.99030649111531E-16));
#1247=UNCERTAINTY_MEASURE_WITH_UNIT(LENGTH_MEASURE(0.01),#1255,
'DISTANCE_ACCURACY_VALUE',
'Maximum model space distance between geometric entities at asserted c
onnectivities');
#1248=UNCERTAINTY_MEASURE_WITH_UNIT(LENGTH_MEASURE(0.01),#1255,
'DISTANCE_ACCURACY_VALUE',
'Maximum model space distance between geometric entities at asserted c
onnectivities');
#1249=UNCERTAINTY_MEASURE_WITH_UNIT(LENGTH_MEASURE(0.01),#1255,
'DISTANCE_ACCURACY_VALUE',
'Maximum model space distance between geometric entities at asserted c
onnectivities');
#1250=UNCERTAINTY_MEASURE_WITH_UNIT(LENGTH_MEASURE(0.01),#1255,
'DISTANCE_ACCURACY_VALUE',
'Maximum model space distance between geometric entities at asserted c
onnectivities');
#1251=(
GEOMETRIC_REPRESENTATION_CONTEXT(3)
GLOBAL_UNCERTAINTY_ASSIGNED_CONTEXT((#1247))
GLOBAL_UNIT_ASSIGNED_CONTEXT((#1255,#1257,#1258))
REPRESENTATION_CONTEXT('','3D')
);
#1252=(
GEOMETRIC_REPRESENTATION_CONTEXT(3)
GLOBAL_UNCERTAINTY_ASSIGNED_CONTEXT((#1248))
GLOBAL_UNIT_ASSIGNED_CONTEXT((#1255,#1257,#1258))
REPRESENTATION_CONTEXT('','3D')
);
#1253=(
GEOMETRIC_REPRESENTATION_CONTEXT(3)
GLOBAL_UNCERTAINTY_ASSIGNED_CONTEXT((#1249))
GLOBAL_UNIT_ASSIGNED_CONTEXT((#1255,#1257,#1258))
REPRESENTATION_CONTEXT('','3D')
);
#1254=(
GEOMETRIC_REPRESENTATION_CONTEXT(3)
GLOBAL_UNCERTAINTY_ASSIGNED_CONTEXT((#1250))
GLOBAL_UNIT_ASSIGNED_CONTEXT((#1255,#1257,#1258))
REPRESENTATION_CONTEXT('','3D')
);
#1255=(
LENGTH_UNIT()
NAMED_UNIT(*)
SI_UNIT(.MILLI.,.METRE.)
);
#1256=(
LENGTH_UNIT()
NAMED_UNIT(*)
SI_UNIT($,.METRE.)
);
#1257=(
NAMED_UNIT(*)
PLANE_ANGLE_UNIT()
SI_UNIT($,.RADIAN.)
);
#1258=(
NAMED_UNIT(*)
SI_UNIT($,.STERADIAN.)
SOLID_ANGLE_UNIT()
);
#1259=SHAPE_DEFINITION_REPRESENTATION(#1262,#1267);
#1260=SHAPE_DEFINITION_REPRESENTATION(#1263,#1268);
#1261=SHAPE_DEFINITION_REPRESENTATION(#1264,#1269);
#1262=PRODUCT_DEFINITION_SHAPE('',$,#1271);
#1263=PRODUCT_DEFINITION_SHAPE('',$,#1272);
#1264=PRODUCT_DEFINITION_SHAPE('',$,#1273);
#1265=PRODUCT_DEFINITION_SHAPE($,$,#17);
#1266=PRODUCT_DEFINITION_SHAPE($,$,#18);
#1267=SHAPE_REPRESENTATION('',(#718,#814,#815),#1251);
#1268=SHAPE_REPRESENTATION('',(#719),#1252);
#1269=SHAPE_REPRESENTATION('',(#805),#1253);
#1270=PRODUCT_DEFINITION_CONTEXT('part definition',#1281,'design');
#1271=PRODUCT_DEFINITION('Hositrad_FO35-38T-HalfNipple',
'Hositrad_FO35-38T-HalfNipple v1',#1274,#1270);
#1272=PRODUCT_DEFINITION('CF35-38T','CF35-38T',#1275,#1270);
#1273=PRODUCT_DEFINITION('Tube38','Tube38',#1276,#1270);
#1274=PRODUCT_DEFINITION_FORMATION('',$,#1283);
#1275=PRODUCT_DEFINITION_FORMATION('',$,#1284);
#1276=PRODUCT_DEFINITION_FORMATION('',$,#1285);
#1277=PRODUCT_RELATED_PRODUCT_CATEGORY(
'Hositrad_FO35-38T-HalfNipple v1','Hositrad_FO35-38T-HalfNipple v1',(#1283));
#1278=PRODUCT_RELATED_PRODUCT_CATEGORY('CF35-38T','CF35-38T',(#1284));
#1279=PRODUCT_RELATED_PRODUCT_CATEGORY('Tube38','Tube38',(#1285));
#1280=APPLICATION_PROTOCOL_DEFINITION('international standard',
'automotive_design',2009,#1281);
#1281=APPLICATION_CONTEXT(
'Core Data for Automotive Mechanical Design Process');
#1282=PRODUCT_CONTEXT('part definition',#1281,'mechanical');
#1283=PRODUCT('Hositrad_FO35-38T-HalfNipple',
'Hositrad_FO35-38T-HalfNipple v1',$,(#1282));
#1284=PRODUCT('CF35-38T','CF35-38T',$,(#1282));
#1285=PRODUCT('Tube38','Tube38',$,(#1282));
#1286=PRESENTATION_STYLE_ASSIGNMENT((#1289));
#1287=PRESENTATION_STYLE_ASSIGNMENT((#1290));
#1288=PRESENTATION_STYLE_ASSIGNMENT((#1291));
#1289=SURFACE_STYLE_USAGE(.BOTH.,#1292);
#1290=SURFACE_STYLE_USAGE(.BOTH.,#1293);
#1291=SURFACE_STYLE_USAGE(.BOTH.,#1294);
#1292=SURFACE_SIDE_STYLE('',(#1295));
#1293=SURFACE_SIDE_STYLE('',(#1296));
#1294=SURFACE_SIDE_STYLE('',(#1297));
#1295=SURFACE_STYLE_FILL_AREA(#1298);
#1296=SURFACE_STYLE_FILL_AREA(#1299);
#1297=SURFACE_STYLE_FILL_AREA(#1300);
#1298=FILL_AREA_STYLE('Steel - Satin',(#1301));
#1299=FILL_AREA_STYLE('Opaque(165,158,150)',(#1302));
#1300=FILL_AREA_STYLE('Opaque(0,255,0)',(#1303));
#1301=FILL_AREA_STYLE_COLOUR('Steel - Satin',#1304);
#1302=FILL_AREA_STYLE_COLOUR('Opaque(165,158,150)',#1305);
#1303=FILL_AREA_STYLE_COLOUR('Opaque(0,255,0)',#1306);
#1304=COLOUR_RGB('Steel - Satin',0.627450980392157,0.627450980392157,0.627450980392157);
#1305=COLOUR_RGB('Opaque(165,158,150)',0.647058823529412,0.619607843137255,
0.588235294117647);
#1306=COLOUR_RGB('Opaque(0,255,0)',0.,1.,0.);
ENDSEC;
END-ISO-10303-21;
