ISO-10303-21;
HEADER;
/* Generated by software containing ST-Developer
 * from STEP Tools, Inc. (www.steptools.com) 
 */

FILE_DESCRIPTION(
/* description */ (''),
/* implementation_level */ '2;1');

FILE_NAME(
/* name */ 'Hositrad_CF100-108-T v1.step',
/* time_stamp */ '2024-06-25T13:49:43+02:00',
/* author */ (''),
/* organization */ (''),
/* preprocessor_version */ 'ST-DEVELOPER v20',
/* originating_system */ 'Autodesk Translation Framework v13.14.0.145',

/* authorisation */ '');

FILE_SCHEMA (('AUTOMOTIVE_DESIGN { 1 0 10303 214 3 1 1 }'));
ENDSEC;

DATA;
#10=MECHANICAL_DESIGN_GEOMETRIC_PRESENTATION_REPRESENTATION('',(#60,#61,
#62,#63,#64,#65,#66,#67,#68,#69,#70,#71,#72,#73,#74,#75,#76),#1340);
#11=SHAPE_REPRESENTATION_RELATIONSHIP('SRR','None',#1347,#12);
#12=ADVANCED_BREP_SHAPE_REPRESENTATION('',(#13),#1339);
#13=MANIFOLD_SOLID_BREP('Body1',#778);
#14=FACE_BOUND('',#162,.T.);
#15=FACE_BOUND('',#163,.T.);
#16=FACE_BOUND('',#164,.T.);
#17=FACE_BOUND('',#165,.T.);
#18=FACE_BOUND('',#166,.T.);
#19=FACE_BOUND('',#167,.T.);
#20=FACE_BOUND('',#168,.T.);
#21=FACE_BOUND('',#169,.T.);
#22=FACE_BOUND('',#172,.T.);
#23=FACE_BOUND('',#173,.T.);
#24=FACE_BOUND('',#174,.T.);
#25=FACE_BOUND('',#175,.T.);
#26=FACE_BOUND('',#176,.T.);
#27=FACE_BOUND('',#177,.T.);
#28=FACE_BOUND('',#178,.T.);
#29=FACE_BOUND('',#179,.T.);
#30=FACE_BOUND('',#180,.T.);
#31=FACE_BOUND('',#181,.T.);
#32=FACE_BOUND('',#182,.T.);
#33=FACE_BOUND('',#183,.T.);
#34=FACE_BOUND('',#184,.T.);
#35=FACE_BOUND('',#185,.T.);
#36=FACE_BOUND('',#186,.T.);
#37=FACE_BOUND('',#187,.T.);
#38=FACE_BOUND('',#188,.T.);
#39=FACE_BOUND('',#190,.T.);
#40=FACE_BOUND('',#192,.T.);
#41=FACE_BOUND('',#193,.T.);
#42=FACE_BOUND('',#194,.T.);
#43=FACE_BOUND('',#195,.T.);
#44=FACE_BOUND('',#196,.T.);
#45=FACE_BOUND('',#197,.T.);
#46=FACE_BOUND('',#198,.T.);
#47=FACE_BOUND('',#199,.T.);
#48=FACE_BOUND('',#207,.T.);
#49=PLANE('',#875);
#50=PLANE('',#878);
#51=PLANE('',#879);
#52=PLANE('',#880);
#53=PLANE('',#881);
#54=PLANE('',#882);
#55=PLANE('',#883);
#56=PLANE('',#884);
#57=PLANE('',#885);
#58=PLANE('',#886);
#59=PLANE('',#887);
#60=STYLED_ITEM('',(#1358),#744);
#61=STYLED_ITEM('',(#1358),#745);
#62=STYLED_ITEM('',(#1358),#746);
#63=STYLED_ITEM('',(#1358),#747);
#64=STYLED_ITEM('',(#1358),#748);
#65=STYLED_ITEM('',(#1358),#749);
#66=STYLED_ITEM('',(#1358),#750);
#67=STYLED_ITEM('',(#1358),#751);
#68=STYLED_ITEM('',(#1358),#752);
#69=STYLED_ITEM('',(#1358),#753);
#70=STYLED_ITEM('',(#1358),#754);
#71=STYLED_ITEM('',(#1358),#755);
#72=STYLED_ITEM('',(#1358),#756);
#73=STYLED_ITEM('',(#1358),#757);
#74=STYLED_ITEM('',(#1358),#758);
#75=STYLED_ITEM('',(#1358),#759);
#76=STYLED_ITEM('',(#1357),#13);
#77=CYLINDRICAL_SURFACE('',#799,54.15);
#78=CYLINDRICAL_SURFACE('',#801,52.5);
#79=CYLINDRICAL_SURFACE('',#803,3.39999999999999);
#80=CYLINDRICAL_SURFACE('',#806,3.39999999999999);
#81=CYLINDRICAL_SURFACE('',#809,3.39999999999999);
#82=CYLINDRICAL_SURFACE('',#812,3.39999999999999);
#83=CYLINDRICAL_SURFACE('',#815,3.39999999999999);
#84=CYLINDRICAL_SURFACE('',#818,3.39999999999999);
#85=CYLINDRICAL_SURFACE('',#821,3.39999999999999);
#86=CYLINDRICAL_SURFACE('',#824,3.39999999999999);
#87=CYLINDRICAL_SURFACE('',#827,3.39999999999999);
#88=CYLINDRICAL_SURFACE('',#830,3.39999999999999);
#89=CYLINDRICAL_SURFACE('',#833,3.39999999999999);
#90=CYLINDRICAL_SURFACE('',#836,3.39999999999999);
#91=CYLINDRICAL_SURFACE('',#839,3.39999999999999);
#92=CYLINDRICAL_SURFACE('',#842,3.39999999999999);
#93=CYLINDRICAL_SURFACE('',#845,3.39999999999999);
#94=CYLINDRICAL_SURFACE('',#848,3.39999999999999);
#95=CYLINDRICAL_SURFACE('',#858,75.8);
#96=CYLINDRICAL_SURFACE('',#862,60.35);
#97=FACE_OUTER_BOUND('',#135,.T.);
#98=FACE_OUTER_BOUND('',#136,.T.);
#99=FACE_OUTER_BOUND('',#137,.T.);
#100=FACE_OUTER_BOUND('',#138,.T.);
#101=FACE_OUTER_BOUND('',#139,.T.);
#102=FACE_OUTER_BOUND('',#140,.T.);
#103=FACE_OUTER_BOUND('',#141,.T.);
#104=FACE_OUTER_BOUND('',#142,.T.);
#105=FACE_OUTER_BOUND('',#143,.T.);
#106=FACE_OUTER_BOUND('',#144,.T.);
#107=FACE_OUTER_BOUND('',#145,.T.);
#108=FACE_OUTER_BOUND('',#146,.T.);
#109=FACE_OUTER_BOUND('',#147,.T.);
#110=FACE_OUTER_BOUND('',#148,.T.);
#111=FACE_OUTER_BOUND('',#149,.T.);
#112=FACE_OUTER_BOUND('',#150,.T.);
#113=FACE_OUTER_BOUND('',#151,.T.);
#114=FACE_OUTER_BOUND('',#152,.T.);
#115=FACE_OUTER_BOUND('',#153,.T.);
#116=FACE_OUTER_BOUND('',#154,.T.);
#117=FACE_OUTER_BOUND('',#155,.T.);
#118=FACE_OUTER_BOUND('',#156,.T.);
#119=FACE_OUTER_BOUND('',#157,.T.);
#120=FACE_OUTER_BOUND('',#158,.T.);
#121=FACE_OUTER_BOUND('',#159,.T.);
#122=FACE_OUTER_BOUND('',#160,.T.);
#123=FACE_OUTER_BOUND('',#161,.T.);
#124=FACE_OUTER_BOUND('',#170,.T.);
#125=FACE_OUTER_BOUND('',#171,.T.);
#126=FACE_OUTER_BOUND('',#189,.T.);
#127=FACE_OUTER_BOUND('',#191,.T.);
#128=FACE_OUTER_BOUND('',#200,.T.);
#129=FACE_OUTER_BOUND('',#201,.T.);
#130=FACE_OUTER_BOUND('',#202,.T.);
#131=FACE_OUTER_BOUND('',#203,.T.);
#132=FACE_OUTER_BOUND('',#204,.T.);
#133=FACE_OUTER_BOUND('',#205,.T.);
#134=FACE_OUTER_BOUND('',#206,.T.);
#135=EDGE_LOOP('',(#527,#528,#529,#530,#531));
#136=EDGE_LOOP('',(#532,#533,#534,#535));
#137=EDGE_LOOP('',(#536,#537,#538,#539,#540));
#138=EDGE_LOOP('',(#541,#542,#543,#544));
#139=EDGE_LOOP('',(#545,#546,#547,#548));
#140=EDGE_LOOP('',(#549,#550,#551,#552));
#141=EDGE_LOOP('',(#553,#554,#555,#556));
#142=EDGE_LOOP('',(#557,#558,#559,#560));
#143=EDGE_LOOP('',(#561,#562,#563,#564));
#144=EDGE_LOOP('',(#565,#566,#567,#568));
#145=EDGE_LOOP('',(#569,#570,#571,#572));
#146=EDGE_LOOP('',(#573,#574,#575,#576));
#147=EDGE_LOOP('',(#577,#578,#579,#580));
#148=EDGE_LOOP('',(#581,#582,#583,#584));
#149=EDGE_LOOP('',(#585,#586,#587,#588));
#150=EDGE_LOOP('',(#589,#590,#591,#592));
#151=EDGE_LOOP('',(#593,#594,#595,#596));
#152=EDGE_LOOP('',(#597,#598,#599,#600));
#153=EDGE_LOOP('',(#601,#602,#603,#604));
#154=EDGE_LOOP('',(#605,#606,#607,#608));
#155=EDGE_LOOP('',(#609,#610,#611,#612,#613));
#156=EDGE_LOOP('',(#614,#615,#616,#617));
#157=EDGE_LOOP('',(#618,#619,#620,#621,#622,#623,#624,#625,#626,#627,#628,
#629));
#158=EDGE_LOOP('',(#630,#631,#632,#633,#634,#635,#636,#637,#638,#639,#640,
#641,#642));
#159=EDGE_LOOP('',(#643,#644,#645,#646,#647,#648));
#160=EDGE_LOOP('',(#649,#650,#651,#652,#653));
#161=EDGE_LOOP('',(#654,#655,#656,#657));
#162=EDGE_LOOP('',(#658));
#163=EDGE_LOOP('',(#659));
#164=EDGE_LOOP('',(#660));
#165=EDGE_LOOP('',(#661));
#166=EDGE_LOOP('',(#662));
#167=EDGE_LOOP('',(#663));
#168=EDGE_LOOP('',(#664));
#169=EDGE_LOOP('',(#665));
#170=EDGE_LOOP('',(#666,#667,#668,#669));
#171=EDGE_LOOP('',(#670));
#172=EDGE_LOOP('',(#671));
#173=EDGE_LOOP('',(#672));
#174=EDGE_LOOP('',(#673));
#175=EDGE_LOOP('',(#674));
#176=EDGE_LOOP('',(#675));
#177=EDGE_LOOP('',(#676));
#178=EDGE_LOOP('',(#677));
#179=EDGE_LOOP('',(#678));
#180=EDGE_LOOP('',(#679));
#181=EDGE_LOOP('',(#680));
#182=EDGE_LOOP('',(#681));
#183=EDGE_LOOP('',(#682));
#184=EDGE_LOOP('',(#683));
#185=EDGE_LOOP('',(#684));
#186=EDGE_LOOP('',(#685));
#187=EDGE_LOOP('',(#686));
#188=EDGE_LOOP('',(#687));
#189=EDGE_LOOP('',(#688));
#190=EDGE_LOOP('',(#689));
#191=EDGE_LOOP('',(#690,#691,#692,#693,#694));
#192=EDGE_LOOP('',(#695));
#193=EDGE_LOOP('',(#696));
#194=EDGE_LOOP('',(#697));
#195=EDGE_LOOP('',(#698));
#196=EDGE_LOOP('',(#699));
#197=EDGE_LOOP('',(#700));
#198=EDGE_LOOP('',(#701));
#199=EDGE_LOOP('',(#702));
#200=EDGE_LOOP('',(#703,#704,#705,#706,#707));
#201=EDGE_LOOP('',(#708,#709,#710,#711,#712));
#202=EDGE_LOOP('',(#713,#714,#715,#716));
#203=EDGE_LOOP('',(#717,#718,#719,#720,#721));
#204=EDGE_LOOP('',(#722,#723,#724,#725,#726));
#205=EDGE_LOOP('',(#727,#728,#729,#730));
#206=EDGE_LOOP('',(#731));
#207=EDGE_LOOP('',(#732));
#208=LINE('',#1134,#253);
#209=LINE('',#1140,#254);
#210=LINE('',#1144,#255);
#211=LINE('',#1149,#256);
#212=LINE('',#1154,#257);
#213=LINE('',#1160,#258);
#214=LINE('',#1166,#259);
#215=LINE('',#1172,#260);
#216=LINE('',#1178,#261);
#217=LINE('',#1184,#262);
#218=LINE('',#1190,#263);
#219=LINE('',#1196,#264);
#220=LINE('',#1202,#265);
#221=LINE('',#1208,#266);
#222=LINE('',#1214,#267);
#223=LINE('',#1220,#268);
#224=LINE('',#1226,#269);
#225=LINE('',#1232,#270);
#226=LINE('',#1238,#271);
#227=LINE('',#1244,#272);
#228=LINE('',#1251,#273);
#229=LINE('',#1256,#274);
#230=LINE('',#1261,#275);
#231=LINE('',#1268,#276);
#232=LINE('',#1271,#277);
#233=LINE('',#1272,#278);
#234=LINE('',#1274,#279);
#235=LINE('',#1277,#280);
#236=LINE('',#1284,#281);
#237=LINE('',#1288,#282);
#238=LINE('',#1292,#283);
#239=LINE('',#1296,#284);
#240=LINE('',#1300,#285);
#241=LINE('',#1304,#286);
#242=LINE('',#1311,#287);
#243=LINE('',#1316,#288);
#244=LINE('',#1317,#289);
#245=LINE('',#1319,#290);
#246=LINE('',#1320,#291);
#247=LINE('',#1324,#292);
#248=LINE('',#1325,#293);
#249=LINE('',#1327,#294);
#250=LINE('',#1329,#295);
#251=LINE('',#1332,#296);
#252=LINE('',#1334,#297);
#253=VECTOR('',#896,54.55);
#254=VECTOR('',#903,52.5);
#255=VECTOR('',#908,54.15);
#256=VECTOR('',#915,52.5);
#257=VECTOR('',#920,3.39999999999999);
#258=VECTOR('',#927,3.39999999999999);
#259=VECTOR('',#934,3.39999999999999);
#260=VECTOR('',#941,3.39999999999999);
#261=VECTOR('',#948,3.39999999999999);
#262=VECTOR('',#955,3.39999999999999);
#263=VECTOR('',#962,3.39999999999999);
#264=VECTOR('',#969,3.39999999999999);
#265=VECTOR('',#976,3.39999999999999);
#266=VECTOR('',#983,3.39999999999999);
#267=VECTOR('',#990,3.39999999999999);
#268=VECTOR('',#997,3.39999999999999);
#269=VECTOR('',#1004,3.39999999999999);
#270=VECTOR('',#1011,3.39999999999999);
#271=VECTOR('',#1018,3.39999999999999);
#272=VECTOR('',#1025,3.39999999999999);
#273=VECTOR('',#1032,10.);
#274=VECTOR('',#1037,10.);
#275=VECTOR('',#1042,75.8);
#276=VECTOR('',#1049,1000.);
#277=VECTOR('',#1052,1000.);
#278=VECTOR('',#1053,75.8);
#279=VECTOR('',#1054,1000.);
#280=VECTOR('',#1057,1000.);
#281=VECTOR('',#1064,60.35);
#282=VECTOR('',#1067,1000.);
#283=VECTOR('',#1070,1000.);
#284=VECTOR('',#1073,1000.);
#285=VECTOR('',#1076,1000.);
#286=VECTOR('',#1081,57.65);
#287=VECTOR('',#1090,57.4316178594403);
#288=VECTOR('',#1095,1000.);
#289=VECTOR('',#1096,1000.);
#290=VECTOR('',#1099,10.);
#291=VECTOR('',#1100,10.);
#292=VECTOR('',#1107,1000.);
#293=VECTOR('',#1108,1000.);
#294=VECTOR('',#1111,1000.);
#295=VECTOR('',#1114,1000.);
#296=VECTOR('',#1119,1000.);
#297=VECTOR('',#1122,1000.);
#298=CIRCLE('',#793,54.15);
#299=CIRCLE('',#794,54.15);
#300=CIRCLE('',#795,54.55);
#301=CIRCLE('',#797,52.5);
#302=CIRCLE('',#798,52.9);
#303=CIRCLE('',#800,54.15);
#304=CIRCLE('',#802,52.5);
#305=CIRCLE('',#804,3.39999999999999);
#306=CIRCLE('',#805,3.39999999999999);
#307=CIRCLE('',#807,3.39999999999999);
#308=CIRCLE('',#808,3.39999999999999);
#309=CIRCLE('',#810,3.39999999999999);
#310=CIRCLE('',#811,3.39999999999999);
#311=CIRCLE('',#813,3.4);
#312=CIRCLE('',#814,3.39999999999999);
#313=CIRCLE('',#816,3.4);
#314=CIRCLE('',#817,3.39999999999999);
#315=CIRCLE('',#819,3.39999999999999);
#316=CIRCLE('',#820,3.39999999999999);
#317=CIRCLE('',#822,3.39999999999999);
#318=CIRCLE('',#823,3.39999999999999);
#319=CIRCLE('',#825,3.4);
#320=CIRCLE('',#826,3.39999999999999);
#321=CIRCLE('',#828,3.39999999999999);
#322=CIRCLE('',#829,3.39999999999999);
#323=CIRCLE('',#831,3.39999999999999);
#324=CIRCLE('',#832,3.39999999999999);
#325=CIRCLE('',#834,3.39999999999999);
#326=CIRCLE('',#835,3.39999999999999);
#327=CIRCLE('',#837,3.39999999999999);
#328=CIRCLE('',#838,3.39999999999999);
#329=CIRCLE('',#840,3.39999999999999);
#330=CIRCLE('',#841,3.39999999999999);
#331=CIRCLE('',#843,3.39999999999999);
#332=CIRCLE('',#844,3.39999999999999);
#333=CIRCLE('',#846,3.39999999999999);
#334=CIRCLE('',#847,3.39999999999999);
#335=CIRCLE('',#849,3.39999999999999);
#336=CIRCLE('',#850,3.39999999999999);
#337=CIRCLE('',#852,75.3);
#338=CIRCLE('',#853,75.8);
#339=CIRCLE('',#854,75.8);
#340=CIRCLE('',#856,75.8);
#341=CIRCLE('',#857,75.3);
#342=CIRCLE('',#859,75.8);
#343=CIRCLE('',#860,75.8);
#344=CIRCLE('',#861,75.8);
#345=CIRCLE('',#863,60.35);
#346=CIRCLE('',#864,60.35);
#347=CIRCLE('',#865,60.35);
#348=CIRCLE('',#866,60.35);
#349=CIRCLE('',#867,60.35);
#350=CIRCLE('',#868,60.35);
#351=CIRCLE('',#869,60.35);
#352=CIRCLE('',#871,57.65);
#353=CIRCLE('',#872,57.65);
#354=CIRCLE('',#874,57.4316178594403);
#355=CIRCLE('',#876,75.3);
#356=VERTEX_POINT('',#1129);
#357=VERTEX_POINT('',#1130);
#358=VERTEX_POINT('',#1133);
#359=VERTEX_POINT('',#1137);
#360=VERTEX_POINT('',#1139);
#361=VERTEX_POINT('',#1143);
#362=VERTEX_POINT('',#1147);
#363=VERTEX_POINT('',#1151);
#364=VERTEX_POINT('',#1153);
#365=VERTEX_POINT('',#1157);
#366=VERTEX_POINT('',#1159);
#367=VERTEX_POINT('',#1163);
#368=VERTEX_POINT('',#1165);
#369=VERTEX_POINT('',#1169);
#370=VERTEX_POINT('',#1171);
#371=VERTEX_POINT('',#1175);
#372=VERTEX_POINT('',#1177);
#373=VERTEX_POINT('',#1181);
#374=VERTEX_POINT('',#1183);
#375=VERTEX_POINT('',#1187);
#376=VERTEX_POINT('',#1189);
#377=VERTEX_POINT('',#1193);
#378=VERTEX_POINT('',#1195);
#379=VERTEX_POINT('',#1199);
#380=VERTEX_POINT('',#1201);
#381=VERTEX_POINT('',#1205);
#382=VERTEX_POINT('',#1207);
#383=VERTEX_POINT('',#1211);
#384=VERTEX_POINT('',#1213);
#385=VERTEX_POINT('',#1217);
#386=VERTEX_POINT('',#1219);
#387=VERTEX_POINT('',#1223);
#388=VERTEX_POINT('',#1225);
#389=VERTEX_POINT('',#1229);
#390=VERTEX_POINT('',#1231);
#391=VERTEX_POINT('',#1235);
#392=VERTEX_POINT('',#1237);
#393=VERTEX_POINT('',#1241);
#394=VERTEX_POINT('',#1243);
#395=VERTEX_POINT('',#1247);
#396=VERTEX_POINT('',#1248);
#397=VERTEX_POINT('',#1250);
#398=VERTEX_POINT('',#1252);
#399=VERTEX_POINT('',#1254);
#400=VERTEX_POINT('',#1258);
#401=VERTEX_POINT('',#1260);
#402=VERTEX_POINT('',#1264);
#403=VERTEX_POINT('',#1265);
#404=VERTEX_POINT('',#1267);
#405=VERTEX_POINT('',#1269);
#406=VERTEX_POINT('',#1273);
#407=VERTEX_POINT('',#1275);
#408=VERTEX_POINT('',#1279);
#409=VERTEX_POINT('',#1280);
#410=VERTEX_POINT('',#1283);
#411=VERTEX_POINT('',#1285);
#412=VERTEX_POINT('',#1287);
#413=VERTEX_POINT('',#1289);
#414=VERTEX_POINT('',#1291);
#415=VERTEX_POINT('',#1293);
#416=VERTEX_POINT('',#1295);
#417=VERTEX_POINT('',#1297);
#418=VERTEX_POINT('',#1299);
#419=VERTEX_POINT('',#1303);
#420=VERTEX_POINT('',#1305);
#421=VERTEX_POINT('',#1309);
#422=VERTEX_POINT('',#1313);
#423=VERTEX_POINT('',#1314);
#424=EDGE_CURVE('',#356,#357,#298,.T.);
#425=EDGE_CURVE('',#357,#356,#299,.T.);
#426=EDGE_CURVE('',#357,#358,#208,.T.);
#427=EDGE_CURVE('',#358,#358,#300,.T.);
#428=EDGE_CURVE('',#359,#359,#301,.T.);
#429=EDGE_CURVE('',#359,#360,#209,.T.);
#430=EDGE_CURVE('',#360,#360,#302,.T.);
#431=EDGE_CURVE('',#356,#361,#210,.T.);
#432=EDGE_CURVE('',#361,#361,#303,.T.);
#433=EDGE_CURVE('',#362,#362,#304,.T.);
#434=EDGE_CURVE('',#362,#359,#211,.T.);
#435=EDGE_CURVE('',#363,#363,#305,.T.);
#436=EDGE_CURVE('',#363,#364,#212,.T.);
#437=EDGE_CURVE('',#364,#364,#306,.T.);
#438=EDGE_CURVE('',#365,#365,#307,.T.);
#439=EDGE_CURVE('',#365,#366,#213,.T.);
#440=EDGE_CURVE('',#366,#366,#308,.T.);
#441=EDGE_CURVE('',#367,#367,#309,.T.);
#442=EDGE_CURVE('',#367,#368,#214,.T.);
#443=EDGE_CURVE('',#368,#368,#310,.T.);
#444=EDGE_CURVE('',#369,#369,#311,.T.);
#445=EDGE_CURVE('',#369,#370,#215,.T.);
#446=EDGE_CURVE('',#370,#370,#312,.T.);
#447=EDGE_CURVE('',#371,#371,#313,.T.);
#448=EDGE_CURVE('',#371,#372,#216,.T.);
#449=EDGE_CURVE('',#372,#372,#314,.T.);
#450=EDGE_CURVE('',#373,#373,#315,.T.);
#451=EDGE_CURVE('',#373,#374,#217,.T.);
#452=EDGE_CURVE('',#374,#374,#316,.T.);
#453=EDGE_CURVE('',#375,#375,#317,.T.);
#454=EDGE_CURVE('',#375,#376,#218,.T.);
#455=EDGE_CURVE('',#376,#376,#318,.T.);
#456=EDGE_CURVE('',#377,#377,#319,.T.);
#457=EDGE_CURVE('',#377,#378,#219,.T.);
#458=EDGE_CURVE('',#378,#378,#320,.T.);
#459=EDGE_CURVE('',#379,#379,#321,.T.);
#460=EDGE_CURVE('',#379,#380,#220,.T.);
#461=EDGE_CURVE('',#380,#380,#322,.T.);
#462=EDGE_CURVE('',#381,#381,#323,.T.);
#463=EDGE_CURVE('',#381,#382,#221,.T.);
#464=EDGE_CURVE('',#382,#382,#324,.T.);
#465=EDGE_CURVE('',#383,#383,#325,.T.);
#466=EDGE_CURVE('',#383,#384,#222,.T.);
#467=EDGE_CURVE('',#384,#384,#326,.T.);
#468=EDGE_CURVE('',#385,#385,#327,.T.);
#469=EDGE_CURVE('',#385,#386,#223,.T.);
#470=EDGE_CURVE('',#386,#386,#328,.T.);
#471=EDGE_CURVE('',#387,#387,#329,.T.);
#472=EDGE_CURVE('',#387,#388,#224,.T.);
#473=EDGE_CURVE('',#388,#388,#330,.T.);
#474=EDGE_CURVE('',#389,#389,#331,.T.);
#475=EDGE_CURVE('',#389,#390,#225,.T.);
#476=EDGE_CURVE('',#390,#390,#332,.T.);
#477=EDGE_CURVE('',#391,#391,#333,.T.);
#478=EDGE_CURVE('',#391,#392,#226,.T.);
#479=EDGE_CURVE('',#392,#392,#334,.T.);
#480=EDGE_CURVE('',#393,#393,#335,.T.);
#481=EDGE_CURVE('',#393,#394,#227,.T.);
#482=EDGE_CURVE('',#394,#394,#336,.T.);
#483=EDGE_CURVE('',#395,#396,#337,.T.);
#484=EDGE_CURVE('',#397,#395,#228,.T.);
#485=EDGE_CURVE('',#398,#397,#338,.T.);
#486=EDGE_CURVE('',#399,#398,#339,.T.);
#487=EDGE_CURVE('',#399,#396,#229,.T.);
#488=EDGE_CURVE('',#400,#400,#340,.T.);
#489=EDGE_CURVE('',#400,#401,#230,.T.);
#490=EDGE_CURVE('',#401,#401,#341,.T.);
#491=EDGE_CURVE('',#402,#403,#342,.T.);
#492=EDGE_CURVE('',#404,#403,#231,.T.);
#493=EDGE_CURVE('',#404,#405,#343,.T.);
#494=EDGE_CURVE('',#405,#399,#232,.T.);
#495=EDGE_CURVE('',#398,#400,#233,.T.);
#496=EDGE_CURVE('',#406,#397,#234,.T.);
#497=EDGE_CURVE('',#406,#407,#344,.T.);
#498=EDGE_CURVE('',#407,#402,#235,.T.);
#499=EDGE_CURVE('',#408,#409,#345,.T.);
#500=EDGE_CURVE('',#409,#408,#346,.T.);
#501=EDGE_CURVE('',#409,#410,#236,.T.);
#502=EDGE_CURVE('',#410,#411,#347,.T.);
#503=EDGE_CURVE('',#411,#412,#237,.T.);
#504=EDGE_CURVE('',#412,#413,#348,.T.);
#505=EDGE_CURVE('',#414,#413,#238,.T.);
#506=EDGE_CURVE('',#414,#415,#349,.T.);
#507=EDGE_CURVE('',#415,#416,#239,.T.);
#508=EDGE_CURVE('',#416,#417,#350,.T.);
#509=EDGE_CURVE('',#418,#417,#240,.T.);
#510=EDGE_CURVE('',#418,#410,#351,.T.);
#511=EDGE_CURVE('',#408,#419,#241,.T.);
#512=EDGE_CURVE('',#420,#419,#352,.T.);
#513=EDGE_CURVE('',#419,#420,#353,.T.);
#514=EDGE_CURVE('',#421,#421,#354,.T.);
#515=EDGE_CURVE('',#421,#420,#242,.T.);
#516=EDGE_CURVE('',#422,#423,#355,.T.);
#517=EDGE_CURVE('',#423,#415,#243,.T.);
#518=EDGE_CURVE('',#422,#414,#244,.T.);
#519=EDGE_CURVE('',#402,#423,#245,.T.);
#520=EDGE_CURVE('',#403,#422,#246,.T.);
#521=EDGE_CURVE('',#395,#418,#247,.T.);
#522=EDGE_CURVE('',#396,#411,#248,.T.);
#523=EDGE_CURVE('',#404,#413,#249,.T.);
#524=EDGE_CURVE('',#405,#412,#250,.T.);
#525=EDGE_CURVE('',#406,#417,#251,.T.);
#526=EDGE_CURVE('',#407,#416,#252,.T.);
#527=ORIENTED_EDGE('',*,*,#424,.F.);
#528=ORIENTED_EDGE('',*,*,#425,.F.);
#529=ORIENTED_EDGE('',*,*,#426,.T.);
#530=ORIENTED_EDGE('',*,*,#427,.F.);
#531=ORIENTED_EDGE('',*,*,#426,.F.);
#532=ORIENTED_EDGE('',*,*,#428,.F.);
#533=ORIENTED_EDGE('',*,*,#429,.T.);
#534=ORIENTED_EDGE('',*,*,#430,.F.);
#535=ORIENTED_EDGE('',*,*,#429,.F.);
#536=ORIENTED_EDGE('',*,*,#424,.T.);
#537=ORIENTED_EDGE('',*,*,#425,.T.);
#538=ORIENTED_EDGE('',*,*,#431,.T.);
#539=ORIENTED_EDGE('',*,*,#432,.T.);
#540=ORIENTED_EDGE('',*,*,#431,.F.);
#541=ORIENTED_EDGE('',*,*,#433,.T.);
#542=ORIENTED_EDGE('',*,*,#434,.T.);
#543=ORIENTED_EDGE('',*,*,#428,.T.);
#544=ORIENTED_EDGE('',*,*,#434,.F.);
#545=ORIENTED_EDGE('',*,*,#435,.F.);
#546=ORIENTED_EDGE('',*,*,#436,.T.);
#547=ORIENTED_EDGE('',*,*,#437,.T.);
#548=ORIENTED_EDGE('',*,*,#436,.F.);
#549=ORIENTED_EDGE('',*,*,#438,.F.);
#550=ORIENTED_EDGE('',*,*,#439,.T.);
#551=ORIENTED_EDGE('',*,*,#440,.T.);
#552=ORIENTED_EDGE('',*,*,#439,.F.);
#553=ORIENTED_EDGE('',*,*,#441,.F.);
#554=ORIENTED_EDGE('',*,*,#442,.T.);
#555=ORIENTED_EDGE('',*,*,#443,.T.);
#556=ORIENTED_EDGE('',*,*,#442,.F.);
#557=ORIENTED_EDGE('',*,*,#444,.F.);
#558=ORIENTED_EDGE('',*,*,#445,.T.);
#559=ORIENTED_EDGE('',*,*,#446,.T.);
#560=ORIENTED_EDGE('',*,*,#445,.F.);
#561=ORIENTED_EDGE('',*,*,#447,.F.);
#562=ORIENTED_EDGE('',*,*,#448,.T.);
#563=ORIENTED_EDGE('',*,*,#449,.T.);
#564=ORIENTED_EDGE('',*,*,#448,.F.);
#565=ORIENTED_EDGE('',*,*,#450,.F.);
#566=ORIENTED_EDGE('',*,*,#451,.T.);
#567=ORIENTED_EDGE('',*,*,#452,.T.);
#568=ORIENTED_EDGE('',*,*,#451,.F.);
#569=ORIENTED_EDGE('',*,*,#453,.F.);
#570=ORIENTED_EDGE('',*,*,#454,.T.);
#571=ORIENTED_EDGE('',*,*,#455,.T.);
#572=ORIENTED_EDGE('',*,*,#454,.F.);
#573=ORIENTED_EDGE('',*,*,#456,.F.);
#574=ORIENTED_EDGE('',*,*,#457,.T.);
#575=ORIENTED_EDGE('',*,*,#458,.T.);
#576=ORIENTED_EDGE('',*,*,#457,.F.);
#577=ORIENTED_EDGE('',*,*,#459,.F.);
#578=ORIENTED_EDGE('',*,*,#460,.T.);
#579=ORIENTED_EDGE('',*,*,#461,.T.);
#580=ORIENTED_EDGE('',*,*,#460,.F.);
#581=ORIENTED_EDGE('',*,*,#462,.F.);
#582=ORIENTED_EDGE('',*,*,#463,.T.);
#583=ORIENTED_EDGE('',*,*,#464,.T.);
#584=ORIENTED_EDGE('',*,*,#463,.F.);
#585=ORIENTED_EDGE('',*,*,#465,.F.);
#586=ORIENTED_EDGE('',*,*,#466,.T.);
#587=ORIENTED_EDGE('',*,*,#467,.T.);
#588=ORIENTED_EDGE('',*,*,#466,.F.);
#589=ORIENTED_EDGE('',*,*,#468,.F.);
#590=ORIENTED_EDGE('',*,*,#469,.T.);
#591=ORIENTED_EDGE('',*,*,#470,.T.);
#592=ORIENTED_EDGE('',*,*,#469,.F.);
#593=ORIENTED_EDGE('',*,*,#471,.F.);
#594=ORIENTED_EDGE('',*,*,#472,.T.);
#595=ORIENTED_EDGE('',*,*,#473,.T.);
#596=ORIENTED_EDGE('',*,*,#472,.F.);
#597=ORIENTED_EDGE('',*,*,#474,.F.);
#598=ORIENTED_EDGE('',*,*,#475,.T.);
#599=ORIENTED_EDGE('',*,*,#476,.T.);
#600=ORIENTED_EDGE('',*,*,#475,.F.);
#601=ORIENTED_EDGE('',*,*,#477,.F.);
#602=ORIENTED_EDGE('',*,*,#478,.T.);
#603=ORIENTED_EDGE('',*,*,#479,.T.);
#604=ORIENTED_EDGE('',*,*,#478,.F.);
#605=ORIENTED_EDGE('',*,*,#480,.F.);
#606=ORIENTED_EDGE('',*,*,#481,.T.);
#607=ORIENTED_EDGE('',*,*,#482,.T.);
#608=ORIENTED_EDGE('',*,*,#481,.F.);
#609=ORIENTED_EDGE('',*,*,#483,.F.);
#610=ORIENTED_EDGE('',*,*,#484,.F.);
#611=ORIENTED_EDGE('',*,*,#485,.F.);
#612=ORIENTED_EDGE('',*,*,#486,.F.);
#613=ORIENTED_EDGE('',*,*,#487,.T.);
#614=ORIENTED_EDGE('',*,*,#488,.F.);
#615=ORIENTED_EDGE('',*,*,#489,.T.);
#616=ORIENTED_EDGE('',*,*,#490,.F.);
#617=ORIENTED_EDGE('',*,*,#489,.F.);
#618=ORIENTED_EDGE('',*,*,#491,.T.);
#619=ORIENTED_EDGE('',*,*,#492,.F.);
#620=ORIENTED_EDGE('',*,*,#493,.T.);
#621=ORIENTED_EDGE('',*,*,#494,.T.);
#622=ORIENTED_EDGE('',*,*,#486,.T.);
#623=ORIENTED_EDGE('',*,*,#495,.T.);
#624=ORIENTED_EDGE('',*,*,#488,.T.);
#625=ORIENTED_EDGE('',*,*,#495,.F.);
#626=ORIENTED_EDGE('',*,*,#485,.T.);
#627=ORIENTED_EDGE('',*,*,#496,.F.);
#628=ORIENTED_EDGE('',*,*,#497,.T.);
#629=ORIENTED_EDGE('',*,*,#498,.T.);
#630=ORIENTED_EDGE('',*,*,#499,.F.);
#631=ORIENTED_EDGE('',*,*,#500,.F.);
#632=ORIENTED_EDGE('',*,*,#501,.T.);
#633=ORIENTED_EDGE('',*,*,#502,.T.);
#634=ORIENTED_EDGE('',*,*,#503,.T.);
#635=ORIENTED_EDGE('',*,*,#504,.T.);
#636=ORIENTED_EDGE('',*,*,#505,.F.);
#637=ORIENTED_EDGE('',*,*,#506,.T.);
#638=ORIENTED_EDGE('',*,*,#507,.T.);
#639=ORIENTED_EDGE('',*,*,#508,.T.);
#640=ORIENTED_EDGE('',*,*,#509,.F.);
#641=ORIENTED_EDGE('',*,*,#510,.T.);
#642=ORIENTED_EDGE('',*,*,#501,.F.);
#643=ORIENTED_EDGE('',*,*,#499,.T.);
#644=ORIENTED_EDGE('',*,*,#500,.T.);
#645=ORIENTED_EDGE('',*,*,#511,.T.);
#646=ORIENTED_EDGE('',*,*,#512,.F.);
#647=ORIENTED_EDGE('',*,*,#513,.F.);
#648=ORIENTED_EDGE('',*,*,#511,.F.);
#649=ORIENTED_EDGE('',*,*,#514,.F.);
#650=ORIENTED_EDGE('',*,*,#515,.T.);
#651=ORIENTED_EDGE('',*,*,#512,.T.);
#652=ORIENTED_EDGE('',*,*,#513,.T.);
#653=ORIENTED_EDGE('',*,*,#515,.F.);
#654=ORIENTED_EDGE('',*,*,#516,.T.);
#655=ORIENTED_EDGE('',*,*,#517,.T.);
#656=ORIENTED_EDGE('',*,*,#506,.F.);
#657=ORIENTED_EDGE('',*,*,#518,.F.);
#658=ORIENTED_EDGE('',*,*,#479,.F.);
#659=ORIENTED_EDGE('',*,*,#476,.F.);
#660=ORIENTED_EDGE('',*,*,#473,.F.);
#661=ORIENTED_EDGE('',*,*,#470,.F.);
#662=ORIENTED_EDGE('',*,*,#467,.F.);
#663=ORIENTED_EDGE('',*,*,#464,.F.);
#664=ORIENTED_EDGE('',*,*,#461,.F.);
#665=ORIENTED_EDGE('',*,*,#458,.F.);
#666=ORIENTED_EDGE('',*,*,#491,.F.);
#667=ORIENTED_EDGE('',*,*,#519,.T.);
#668=ORIENTED_EDGE('',*,*,#516,.F.);
#669=ORIENTED_EDGE('',*,*,#520,.F.);
#670=ORIENTED_EDGE('',*,*,#490,.T.);
#671=ORIENTED_EDGE('',*,*,#480,.T.);
#672=ORIENTED_EDGE('',*,*,#477,.T.);
#673=ORIENTED_EDGE('',*,*,#474,.T.);
#674=ORIENTED_EDGE('',*,*,#471,.T.);
#675=ORIENTED_EDGE('',*,*,#468,.T.);
#676=ORIENTED_EDGE('',*,*,#465,.T.);
#677=ORIENTED_EDGE('',*,*,#462,.T.);
#678=ORIENTED_EDGE('',*,*,#459,.T.);
#679=ORIENTED_EDGE('',*,*,#456,.T.);
#680=ORIENTED_EDGE('',*,*,#453,.T.);
#681=ORIENTED_EDGE('',*,*,#450,.T.);
#682=ORIENTED_EDGE('',*,*,#447,.T.);
#683=ORIENTED_EDGE('',*,*,#444,.T.);
#684=ORIENTED_EDGE('',*,*,#441,.T.);
#685=ORIENTED_EDGE('',*,*,#438,.T.);
#686=ORIENTED_EDGE('',*,*,#427,.T.);
#687=ORIENTED_EDGE('',*,*,#435,.T.);
#688=ORIENTED_EDGE('',*,*,#514,.T.);
#689=ORIENTED_EDGE('',*,*,#430,.T.);
#690=ORIENTED_EDGE('',*,*,#521,.F.);
#691=ORIENTED_EDGE('',*,*,#483,.T.);
#692=ORIENTED_EDGE('',*,*,#522,.T.);
#693=ORIENTED_EDGE('',*,*,#502,.F.);
#694=ORIENTED_EDGE('',*,*,#510,.F.);
#695=ORIENTED_EDGE('',*,*,#437,.F.);
#696=ORIENTED_EDGE('',*,*,#440,.F.);
#697=ORIENTED_EDGE('',*,*,#443,.F.);
#698=ORIENTED_EDGE('',*,*,#446,.F.);
#699=ORIENTED_EDGE('',*,*,#449,.F.);
#700=ORIENTED_EDGE('',*,*,#452,.F.);
#701=ORIENTED_EDGE('',*,*,#455,.F.);
#702=ORIENTED_EDGE('',*,*,#482,.F.);
#703=ORIENTED_EDGE('',*,*,#505,.T.);
#704=ORIENTED_EDGE('',*,*,#523,.F.);
#705=ORIENTED_EDGE('',*,*,#492,.T.);
#706=ORIENTED_EDGE('',*,*,#520,.T.);
#707=ORIENTED_EDGE('',*,*,#518,.T.);
#708=ORIENTED_EDGE('',*,*,#522,.F.);
#709=ORIENTED_EDGE('',*,*,#487,.F.);
#710=ORIENTED_EDGE('',*,*,#494,.F.);
#711=ORIENTED_EDGE('',*,*,#524,.T.);
#712=ORIENTED_EDGE('',*,*,#503,.F.);
#713=ORIENTED_EDGE('',*,*,#524,.F.);
#714=ORIENTED_EDGE('',*,*,#493,.F.);
#715=ORIENTED_EDGE('',*,*,#523,.T.);
#716=ORIENTED_EDGE('',*,*,#504,.F.);
#717=ORIENTED_EDGE('',*,*,#509,.T.);
#718=ORIENTED_EDGE('',*,*,#525,.F.);
#719=ORIENTED_EDGE('',*,*,#496,.T.);
#720=ORIENTED_EDGE('',*,*,#484,.T.);
#721=ORIENTED_EDGE('',*,*,#521,.T.);
#722=ORIENTED_EDGE('',*,*,#517,.F.);
#723=ORIENTED_EDGE('',*,*,#519,.F.);
#724=ORIENTED_EDGE('',*,*,#498,.F.);
#725=ORIENTED_EDGE('',*,*,#526,.T.);
#726=ORIENTED_EDGE('',*,*,#507,.F.);
#727=ORIENTED_EDGE('',*,*,#526,.F.);
#728=ORIENTED_EDGE('',*,*,#497,.F.);
#729=ORIENTED_EDGE('',*,*,#525,.T.);
#730=ORIENTED_EDGE('',*,*,#508,.F.);
#731=ORIENTED_EDGE('',*,*,#432,.F.);
#732=ORIENTED_EDGE('',*,*,#433,.F.);
#733=CONICAL_SURFACE('',#792,54.55,0.78539816339744);
#734=CONICAL_SURFACE('',#796,52.5,0.785398163397448);
#735=CONICAL_SURFACE('',#851,75.3,0.785398163397435);
#736=CONICAL_SURFACE('',#855,75.8,0.785398163397448);
#737=CONICAL_SURFACE('',#870,57.65,1.22173047639603);
#738=CONICAL_SURFACE('',#873,57.4316178594403,0.349065850398874);
#739=CONICAL_SURFACE('',#877,75.3,0.785398163397435);
#740=ADVANCED_FACE('',(#97),#733,.F.);
#741=ADVANCED_FACE('',(#98),#734,.F.);
#742=ADVANCED_FACE('',(#99),#77,.F.);
#743=ADVANCED_FACE('',(#100),#78,.F.);
#744=ADVANCED_FACE('',(#101),#79,.F.);
#745=ADVANCED_FACE('',(#102),#80,.F.);
#746=ADVANCED_FACE('',(#103),#81,.F.);
#747=ADVANCED_FACE('',(#104),#82,.F.);
#748=ADVANCED_FACE('',(#105),#83,.F.);
#749=ADVANCED_FACE('',(#106),#84,.F.);
#750=ADVANCED_FACE('',(#107),#85,.F.);
#751=ADVANCED_FACE('',(#108),#86,.F.);
#752=ADVANCED_FACE('',(#109),#87,.F.);
#753=ADVANCED_FACE('',(#110),#88,.F.);
#754=ADVANCED_FACE('',(#111),#89,.F.);
#755=ADVANCED_FACE('',(#112),#90,.F.);
#756=ADVANCED_FACE('',(#113),#91,.F.);
#757=ADVANCED_FACE('',(#114),#92,.F.);
#758=ADVANCED_FACE('',(#115),#93,.F.);
#759=ADVANCED_FACE('',(#116),#94,.F.);
#760=ADVANCED_FACE('',(#117),#735,.T.);
#761=ADVANCED_FACE('',(#118),#736,.T.);
#762=ADVANCED_FACE('',(#119),#95,.T.);
#763=ADVANCED_FACE('',(#120),#96,.F.);
#764=ADVANCED_FACE('',(#121),#737,.T.);
#765=ADVANCED_FACE('',(#122),#738,.F.);
#766=ADVANCED_FACE('',(#123,#14,#15,#16,#17,#18,#19,#20,#21),#49,.T.);
#767=ADVANCED_FACE('',(#124),#739,.T.);
#768=ADVANCED_FACE('',(#125,#22,#23,#24,#25,#26,#27,#28,#29,#30,#31,#32,
#33,#34,#35,#36,#37,#38),#50,.T.);
#769=ADVANCED_FACE('',(#126,#39),#51,.T.);
#770=ADVANCED_FACE('',(#127,#40,#41,#42,#43,#44,#45,#46,#47),#52,.T.);
#771=ADVANCED_FACE('',(#128),#53,.F.);
#772=ADVANCED_FACE('',(#129),#54,.T.);
#773=ADVANCED_FACE('',(#130),#55,.T.);
#774=ADVANCED_FACE('',(#131),#56,.F.);
#775=ADVANCED_FACE('',(#132),#57,.T.);
#776=ADVANCED_FACE('',(#133),#58,.T.);
#777=ADVANCED_FACE('',(#134,#48),#59,.F.);
#778=CLOSED_SHELL('',(#740,#741,#742,#743,#744,#745,#746,#747,#748,#749,
#750,#751,#752,#753,#754,#755,#756,#757,#758,#759,#760,#761,#762,#763,#764,
#765,#766,#767,#768,#769,#770,#771,#772,#773,#774,#775,#776,#777));
#779=DERIVED_UNIT_ELEMENT(#781,1.);
#780=DERIVED_UNIT_ELEMENT(#1342,-3.);
#781=(
MASS_UNIT()
NAMED_UNIT(*)
SI_UNIT(.KILO.,.GRAM.)
);
#782=DERIVED_UNIT((#779,#780));
#783=MEASURE_REPRESENTATION_ITEM('density measure',
POSITIVE_RATIO_MEASURE(7850.),#782);
#784=PROPERTY_DEFINITION_REPRESENTATION(#789,#786);
#785=PROPERTY_DEFINITION_REPRESENTATION(#790,#787);
#786=REPRESENTATION('material name',(#788),#1339);
#787=REPRESENTATION('density',(#783),#1339);
#788=DESCRIPTIVE_REPRESENTATION_ITEM('Steel','Steel');
#789=PROPERTY_DEFINITION('material property','material name',#1349);
#790=PROPERTY_DEFINITION('material property','density of part',#1349);
#791=AXIS2_PLACEMENT_3D('',#1127,#888,#889);
#792=AXIS2_PLACEMENT_3D('',#1128,#890,#891);
#793=AXIS2_PLACEMENT_3D('',#1131,#892,#893);
#794=AXIS2_PLACEMENT_3D('',#1132,#894,#895);
#795=AXIS2_PLACEMENT_3D('',#1135,#897,#898);
#796=AXIS2_PLACEMENT_3D('',#1136,#899,#900);
#797=AXIS2_PLACEMENT_3D('',#1138,#901,#902);
#798=AXIS2_PLACEMENT_3D('',#1141,#904,#905);
#799=AXIS2_PLACEMENT_3D('',#1142,#906,#907);
#800=AXIS2_PLACEMENT_3D('',#1145,#909,#910);
#801=AXIS2_PLACEMENT_3D('',#1146,#911,#912);
#802=AXIS2_PLACEMENT_3D('',#1148,#913,#914);
#803=AXIS2_PLACEMENT_3D('',#1150,#916,#917);
#804=AXIS2_PLACEMENT_3D('',#1152,#918,#919);
#805=AXIS2_PLACEMENT_3D('',#1155,#921,#922);
#806=AXIS2_PLACEMENT_3D('',#1156,#923,#924);
#807=AXIS2_PLACEMENT_3D('',#1158,#925,#926);
#808=AXIS2_PLACEMENT_3D('',#1161,#928,#929);
#809=AXIS2_PLACEMENT_3D('',#1162,#930,#931);
#810=AXIS2_PLACEMENT_3D('',#1164,#932,#933);
#811=AXIS2_PLACEMENT_3D('',#1167,#935,#936);
#812=AXIS2_PLACEMENT_3D('',#1168,#937,#938);
#813=AXIS2_PLACEMENT_3D('',#1170,#939,#940);
#814=AXIS2_PLACEMENT_3D('',#1173,#942,#943);
#815=AXIS2_PLACEMENT_3D('',#1174,#944,#945);
#816=AXIS2_PLACEMENT_3D('',#1176,#946,#947);
#817=AXIS2_PLACEMENT_3D('',#1179,#949,#950);
#818=AXIS2_PLACEMENT_3D('',#1180,#951,#952);
#819=AXIS2_PLACEMENT_3D('',#1182,#953,#954);
#820=AXIS2_PLACEMENT_3D('',#1185,#956,#957);
#821=AXIS2_PLACEMENT_3D('',#1186,#958,#959);
#822=AXIS2_PLACEMENT_3D('',#1188,#960,#961);
#823=AXIS2_PLACEMENT_3D('',#1191,#963,#964);
#824=AXIS2_PLACEMENT_3D('',#1192,#965,#966);
#825=AXIS2_PLACEMENT_3D('',#1194,#967,#968);
#826=AXIS2_PLACEMENT_3D('',#1197,#970,#971);
#827=AXIS2_PLACEMENT_3D('',#1198,#972,#973);
#828=AXIS2_PLACEMENT_3D('',#1200,#974,#975);
#829=AXIS2_PLACEMENT_3D('',#1203,#977,#978);
#830=AXIS2_PLACEMENT_3D('',#1204,#979,#980);
#831=AXIS2_PLACEMENT_3D('',#1206,#981,#982);
#832=AXIS2_PLACEMENT_3D('',#1209,#984,#985);
#833=AXIS2_PLACEMENT_3D('',#1210,#986,#987);
#834=AXIS2_PLACEMENT_3D('',#1212,#988,#989);
#835=AXIS2_PLACEMENT_3D('',#1215,#991,#992);
#836=AXIS2_PLACEMENT_3D('',#1216,#993,#994);
#837=AXIS2_PLACEMENT_3D('',#1218,#995,#996);
#838=AXIS2_PLACEMENT_3D('',#1221,#998,#999);
#839=AXIS2_PLACEMENT_3D('',#1222,#1000,#1001);
#840=AXIS2_PLACEMENT_3D('',#1224,#1002,#1003);
#841=AXIS2_PLACEMENT_3D('',#1227,#1005,#1006);
#842=AXIS2_PLACEMENT_3D('',#1228,#1007,#1008);
#843=AXIS2_PLACEMENT_3D('',#1230,#1009,#1010);
#844=AXIS2_PLACEMENT_3D('',#1233,#1012,#1013);
#845=AXIS2_PLACEMENT_3D('',#1234,#1014,#1015);
#846=AXIS2_PLACEMENT_3D('',#1236,#1016,#1017);
#847=AXIS2_PLACEMENT_3D('',#1239,#1019,#1020);
#848=AXIS2_PLACEMENT_3D('',#1240,#1021,#1022);
#849=AXIS2_PLACEMENT_3D('',#1242,#1023,#1024);
#850=AXIS2_PLACEMENT_3D('',#1245,#1026,#1027);
#851=AXIS2_PLACEMENT_3D('',#1246,#1028,#1029);
#852=AXIS2_PLACEMENT_3D('',#1249,#1030,#1031);
#853=AXIS2_PLACEMENT_3D('',#1253,#1033,#1034);
#854=AXIS2_PLACEMENT_3D('',#1255,#1035,#1036);
#855=AXIS2_PLACEMENT_3D('',#1257,#1038,#1039);
#856=AXIS2_PLACEMENT_3D('',#1259,#1040,#1041);
#857=AXIS2_PLACEMENT_3D('',#1262,#1043,#1044);
#858=AXIS2_PLACEMENT_3D('',#1263,#1045,#1046);
#859=AXIS2_PLACEMENT_3D('',#1266,#1047,#1048);
#860=AXIS2_PLACEMENT_3D('',#1270,#1050,#1051);
#861=AXIS2_PLACEMENT_3D('',#1276,#1055,#1056);
#862=AXIS2_PLACEMENT_3D('',#1278,#1058,#1059);
#863=AXIS2_PLACEMENT_3D('',#1281,#1060,#1061);
#864=AXIS2_PLACEMENT_3D('',#1282,#1062,#1063);
#865=AXIS2_PLACEMENT_3D('',#1286,#1065,#1066);
#866=AXIS2_PLACEMENT_3D('',#1290,#1068,#1069);
#867=AXIS2_PLACEMENT_3D('',#1294,#1071,#1072);
#868=AXIS2_PLACEMENT_3D('',#1298,#1074,#1075);
#869=AXIS2_PLACEMENT_3D('',#1301,#1077,#1078);
#870=AXIS2_PLACEMENT_3D('',#1302,#1079,#1080);
#871=AXIS2_PLACEMENT_3D('',#1306,#1082,#1083);
#872=AXIS2_PLACEMENT_3D('',#1307,#1084,#1085);
#873=AXIS2_PLACEMENT_3D('',#1308,#1086,#1087);
#874=AXIS2_PLACEMENT_3D('',#1310,#1088,#1089);
#875=AXIS2_PLACEMENT_3D('',#1312,#1091,#1092);
#876=AXIS2_PLACEMENT_3D('',#1315,#1093,#1094);
#877=AXIS2_PLACEMENT_3D('',#1318,#1097,#1098);
#878=AXIS2_PLACEMENT_3D('',#1321,#1101,#1102);
#879=AXIS2_PLACEMENT_3D('',#1322,#1103,#1104);
#880=AXIS2_PLACEMENT_3D('',#1323,#1105,#1106);
#881=AXIS2_PLACEMENT_3D('',#1326,#1109,#1110);
#882=AXIS2_PLACEMENT_3D('',#1328,#1112,#1113);
#883=AXIS2_PLACEMENT_3D('',#1330,#1115,#1116);
#884=AXIS2_PLACEMENT_3D('',#1331,#1117,#1118);
#885=AXIS2_PLACEMENT_3D('',#1333,#1120,#1121);
#886=AXIS2_PLACEMENT_3D('',#1335,#1123,#1124);
#887=AXIS2_PLACEMENT_3D('',#1336,#1125,#1126);
#888=DIRECTION('axis',(0.,0.,1.));
#889=DIRECTION('refdir',(1.,0.,0.));
#890=DIRECTION('center_axis',(1.22464679914737E-16,-1.,0.));
#891=DIRECTION('ref_axis',(1.,1.22464679914737E-16,0.));
#892=DIRECTION('center_axis',(1.22464679914737E-16,-1.,0.));
#893=DIRECTION('ref_axis',(1.,1.22464679914737E-16,0.));
#894=DIRECTION('center_axis',(1.22464679914737E-16,-1.,0.));
#895=DIRECTION('ref_axis',(1.,1.22464679914737E-16,0.));
#896=DIRECTION('',(-0.707106781186541,-0.707106781186554,-8.65956056235486E-17));
#897=DIRECTION('center_axis',(0.,1.,0.));
#898=DIRECTION('ref_axis',(0.,0.,-1.));
#899=DIRECTION('center_axis',(-1.22464679914735E-16,1.,0.));
#900=DIRECTION('ref_axis',(-1.,-1.22464679914735E-16,0.));
#901=DIRECTION('center_axis',(-1.22464679914735E-16,1.,0.));
#902=DIRECTION('ref_axis',(-1.,-1.22464679914735E-16,0.));
#903=DIRECTION('',(0.707106781186547,0.707106781186548,-8.65956056235493E-17));
#904=DIRECTION('center_axis',(0.,-1.,0.));
#905=DIRECTION('ref_axis',(0.,0.,1.));
#906=DIRECTION('center_axis',(-1.22464679914735E-16,1.,0.));
#907=DIRECTION('ref_axis',(-1.,-1.22464679914735E-16,0.));
#908=DIRECTION('',(-1.22464679914735E-16,1.,0.));
#909=DIRECTION('center_axis',(-1.22464679914735E-16,1.,0.));
#910=DIRECTION('ref_axis',(-1.,-1.22464679914735E-16,0.));
#911=DIRECTION('center_axis',(-1.22464679914735E-16,1.,0.));
#912=DIRECTION('ref_axis',(-1.,-1.22464679914735E-16,0.));
#913=DIRECTION('center_axis',(1.22464679914735E-16,-1.,0.));
#914=DIRECTION('ref_axis',(-1.,-1.22464679914735E-16,0.));
#915=DIRECTION('',(-1.22464679914735E-16,1.,0.));
#916=DIRECTION('center_axis',(0.,1.,-4.68652040532615E-17));
#917=DIRECTION('ref_axis',(0.,4.68652040532615E-17,1.));
#918=DIRECTION('center_axis',(0.,1.,-4.68652040532615E-17));
#919=DIRECTION('ref_axis',(0.,4.68652040532615E-17,1.));
#920=DIRECTION('',(0.,1.,-4.68652040532615E-17));
#921=DIRECTION('center_axis',(0.,1.,-4.68652040532615E-17));
#922=DIRECTION('ref_axis',(0.,4.68652040532615E-17,1.));
#923=DIRECTION('center_axis',(0.,1.,-8.65956056235483E-17));
#924=DIRECTION('ref_axis',(0.,8.65956056235483E-17,1.));
#925=DIRECTION('center_axis',(0.,1.,-8.65956056235483E-17));
#926=DIRECTION('ref_axis',(0.,8.65956056235483E-17,1.));
#927=DIRECTION('',(0.,1.,-8.65956056235483E-17));
#928=DIRECTION('center_axis',(0.,1.,-8.65956056235483E-17));
#929=DIRECTION('ref_axis',(0.,8.65956056235483E-17,1.));
#930=DIRECTION('center_axis',(0.,1.,-1.1314261122877E-16));
#931=DIRECTION('ref_axis',(0.,1.1314261122877E-16,1.));
#932=DIRECTION('center_axis',(0.,1.,-1.1314261122877E-16));
#933=DIRECTION('ref_axis',(0.,1.1314261122877E-16,1.));
#934=DIRECTION('',(0.,1.,-1.1314261122877E-16));
#935=DIRECTION('center_axis',(0.,1.,-1.1314261122877E-16));
#936=DIRECTION('ref_axis',(0.,1.1314261122877E-16,1.));
#937=DIRECTION('center_axis',(0.,1.,-1.22464679914735E-16));
#938=DIRECTION('ref_axis',(0.,1.22464679914735E-16,1.));
#939=DIRECTION('center_axis',(0.,1.,-1.22464679914735E-16));
#940=DIRECTION('ref_axis',(0.,1.22464679914735E-16,1.));
#941=DIRECTION('',(0.,1.,-1.22464679914735E-16));
#942=DIRECTION('center_axis',(0.,1.,-1.22464679914735E-16));
#943=DIRECTION('ref_axis',(0.,1.22464679914735E-16,1.));
#944=DIRECTION('center_axis',(0.,1.,-1.13142611228771E-16));
#945=DIRECTION('ref_axis',(0.,1.13142611228771E-16,1.));
#946=DIRECTION('center_axis',(0.,1.,-1.13142611228771E-16));
#947=DIRECTION('ref_axis',(0.,1.13142611228771E-16,1.));
#948=DIRECTION('',(0.,1.,-1.13142611228771E-16));
#949=DIRECTION('center_axis',(0.,1.,-1.13142611228771E-16));
#950=DIRECTION('ref_axis',(0.,1.13142611228771E-16,1.));
#951=DIRECTION('center_axis',(0.,1.,-8.65956056235501E-17));
#952=DIRECTION('ref_axis',(0.,8.65956056235501E-17,1.));
#953=DIRECTION('center_axis',(0.,1.,-8.65956056235501E-17));
#954=DIRECTION('ref_axis',(0.,8.65956056235501E-17,1.));
#955=DIRECTION('',(0.,1.,-8.65956056235501E-17));
#956=DIRECTION('center_axis',(0.,1.,-8.65956056235501E-17));
#957=DIRECTION('ref_axis',(0.,8.65956056235501E-17,1.));
#958=DIRECTION('center_axis',(0.,1.,-4.68652040532639E-17));
#959=DIRECTION('ref_axis',(0.,4.68652040532639E-17,1.));
#960=DIRECTION('center_axis',(0.,1.,-4.68652040532639E-17));
#961=DIRECTION('ref_axis',(0.,4.68652040532639E-17,1.));
#962=DIRECTION('',(0.,1.,-4.68652040532639E-17));
#963=DIRECTION('center_axis',(0.,1.,-4.68652040532639E-17));
#964=DIRECTION('ref_axis',(0.,4.68652040532639E-17,1.));
#965=DIRECTION('center_axis',(0.,1.,0.));
#966=DIRECTION('ref_axis',(0.,0.,1.));
#967=DIRECTION('center_axis',(0.,1.,0.));
#968=DIRECTION('ref_axis',(0.,0.,1.));
#969=DIRECTION('',(0.,1.,0.));
#970=DIRECTION('center_axis',(0.,1.,0.));
#971=DIRECTION('ref_axis',(0.,0.,1.));
#972=DIRECTION('center_axis',(0.,1.,4.68652040532623E-17));
#973=DIRECTION('ref_axis',(0.,-4.68652040532623E-17,1.));
#974=DIRECTION('center_axis',(0.,1.,4.68652040532623E-17));
#975=DIRECTION('ref_axis',(0.,-4.68652040532623E-17,1.));
#976=DIRECTION('',(0.,1.,4.68652040532623E-17));
#977=DIRECTION('center_axis',(0.,1.,4.68652040532623E-17));
#978=DIRECTION('ref_axis',(0.,-4.68652040532623E-17,1.));
#979=DIRECTION('center_axis',(0.,1.,8.65956056235489E-17));
#980=DIRECTION('ref_axis',(0.,-8.65956056235489E-17,1.));
#981=DIRECTION('center_axis',(0.,1.,8.65956056235489E-17));
#982=DIRECTION('ref_axis',(0.,-8.65956056235489E-17,1.));
#983=DIRECTION('',(0.,1.,8.65956056235489E-17));
#984=DIRECTION('center_axis',(0.,1.,8.65956056235489E-17));
#985=DIRECTION('ref_axis',(0.,-8.65956056235489E-17,1.));
#986=DIRECTION('center_axis',(0.,1.,1.1314261122877E-16));
#987=DIRECTION('ref_axis',(0.,-1.1314261122877E-16,1.));
#988=DIRECTION('center_axis',(0.,1.,1.1314261122877E-16));
#989=DIRECTION('ref_axis',(0.,-1.1314261122877E-16,1.));
#990=DIRECTION('',(0.,1.,1.1314261122877E-16));
#991=DIRECTION('center_axis',(0.,1.,1.1314261122877E-16));
#992=DIRECTION('ref_axis',(0.,-1.1314261122877E-16,1.));
#993=DIRECTION('center_axis',(0.,1.,1.22464679914735E-16));
#994=DIRECTION('ref_axis',(0.,-1.22464679914735E-16,1.));
#995=DIRECTION('center_axis',(0.,1.,1.22464679914735E-16));
#996=DIRECTION('ref_axis',(0.,-1.22464679914735E-16,1.));
#997=DIRECTION('',(0.,1.,1.22464679914735E-16));
#998=DIRECTION('center_axis',(0.,1.,1.22464679914735E-16));
#999=DIRECTION('ref_axis',(0.,-1.22464679914735E-16,1.));
#1000=DIRECTION('center_axis',(0.,1.,1.1314261122877E-16));
#1001=DIRECTION('ref_axis',(0.,-1.1314261122877E-16,1.));
#1002=DIRECTION('center_axis',(0.,1.,1.1314261122877E-16));
#1003=DIRECTION('ref_axis',(0.,-1.1314261122877E-16,1.));
#1004=DIRECTION('',(0.,1.,1.1314261122877E-16));
#1005=DIRECTION('center_axis',(0.,1.,1.1314261122877E-16));
#1006=DIRECTION('ref_axis',(0.,-1.1314261122877E-16,1.));
#1007=DIRECTION('center_axis',(0.,1.,8.65956056235495E-17));
#1008=DIRECTION('ref_axis',(0.,-8.65956056235495E-17,1.));
#1009=DIRECTION('center_axis',(0.,1.,8.65956056235495E-17));
#1010=DIRECTION('ref_axis',(0.,-8.65956056235495E-17,1.));
#1011=DIRECTION('',(0.,1.,8.65956056235495E-17));
#1012=DIRECTION('center_axis',(0.,1.,8.65956056235495E-17));
#1013=DIRECTION('ref_axis',(0.,-8.65956056235495E-17,1.));
#1014=DIRECTION('center_axis',(0.,1.,4.68652040532631E-17));
#1015=DIRECTION('ref_axis',(0.,-4.68652040532631E-17,1.));
#1016=DIRECTION('center_axis',(0.,1.,4.68652040532631E-17));
#1017=DIRECTION('ref_axis',(0.,-4.68652040532631E-17,1.));
#1018=DIRECTION('',(0.,1.,4.68652040532631E-17));
#1019=DIRECTION('center_axis',(0.,1.,4.68652040532631E-17));
#1020=DIRECTION('ref_axis',(0.,-4.68652040532631E-17,1.));
#1021=DIRECTION('center_axis',(0.,1.,0.));
#1022=DIRECTION('ref_axis',(0.,0.,1.));
#1023=DIRECTION('center_axis',(0.,1.,0.));
#1024=DIRECTION('ref_axis',(0.,0.,1.));
#1025=DIRECTION('',(0.,1.,0.));
#1026=DIRECTION('center_axis',(0.,1.,0.));
#1027=DIRECTION('ref_axis',(0.,0.,1.));
#1028=DIRECTION('center_axis',(0.,-1.,0.));
#1029=DIRECTION('ref_axis',(0.,0.,-1.));
#1030=DIRECTION('center_axis',(0.,1.,0.));
#1031=DIRECTION('ref_axis',(0.,0.,1.));
#1032=DIRECTION('',(-0.137955732258771,0.707075806395308,-0.693550300949665));
#1033=DIRECTION('center_axis',(0.,-1.,0.));
#1034=DIRECTION('ref_axis',(7.105427357601E-15,0.,1.));
#1035=DIRECTION('center_axis',(0.,-1.,0.));
#1036=DIRECTION('ref_axis',(7.105427357601E-15,0.,1.));
#1037=DIRECTION('',(0.137955732258774,0.707075806395328,0.693550300949645));
#1038=DIRECTION('center_axis',(0.,1.,0.));
#1039=DIRECTION('ref_axis',(0.,0.,1.));
#1040=DIRECTION('center_axis',(0.,1.,0.));
#1041=DIRECTION('ref_axis',(0.,0.,-1.));
#1042=DIRECTION('',(8.65956056235494E-17,-0.707106781186548,0.707106781186548));
#1043=DIRECTION('center_axis',(0.,-1.,0.));
#1044=DIRECTION('ref_axis',(0.,0.,-1.));
#1045=DIRECTION('center_axis',(0.,1.,0.));
#1046=DIRECTION('ref_axis',(0.,0.,1.));
#1047=DIRECTION('center_axis',(0.,-1.,0.));
#1048=DIRECTION('ref_axis',(-1.77635683940025E-15,0.,1.));
#1049=DIRECTION('',(0.,1.,0.));
#1050=DIRECTION('center_axis',(0.,-1.,0.));
#1051=DIRECTION('ref_axis',(-4.9737991503207E-14,0.,1.));
#1052=DIRECTION('',(0.,1.,0.));
#1053=DIRECTION('',(0.,-1.,0.));
#1054=DIRECTION('',(0.,1.,0.));
#1055=DIRECTION('center_axis',(0.,-1.,0.));
#1056=DIRECTION('ref_axis',(9.59232693276135E-14,0.,1.));
#1057=DIRECTION('',(0.,1.,0.));
#1058=DIRECTION('center_axis',(0.,1.,0.));
#1059=DIRECTION('ref_axis',(0.,0.,1.));
#1060=DIRECTION('center_axis',(0.,1.,0.));
#1061=DIRECTION('ref_axis',(0.,0.,1.));
#1062=DIRECTION('center_axis',(0.,1.,0.));
#1063=DIRECTION('ref_axis',(0.,0.,1.));
#1064=DIRECTION('',(0.,1.,0.));
#1065=DIRECTION('center_axis',(0.,1.,0.));
#1066=DIRECTION('ref_axis',(0.,0.,1.));
#1067=DIRECTION('',(0.,-1.,0.));
#1068=DIRECTION('center_axis',(0.,1.,0.));
#1069=DIRECTION('ref_axis',(0.,0.,1.));
#1070=DIRECTION('',(0.,-1.,0.));
#1071=DIRECTION('center_axis',(0.,1.,0.));
#1072=DIRECTION('ref_axis',(0.,0.,1.));
#1073=DIRECTION('',(0.,-1.,0.));
#1074=DIRECTION('center_axis',(0.,1.,0.));
#1075=DIRECTION('ref_axis',(0.,0.,1.));
#1076=DIRECTION('',(0.,-1.,0.));
#1077=DIRECTION('center_axis',(0.,1.,0.));
#1078=DIRECTION('ref_axis',(0.,0.,1.));
#1079=DIRECTION('center_axis',(0.,-1.,0.));
#1080=DIRECTION('ref_axis',(0.,0.,-1.));
#1081=DIRECTION('',(1.15079156022785E-16,0.342020143325673,-0.939692620785907));
#1082=DIRECTION('center_axis',(0.,1.,0.));
#1083=DIRECTION('ref_axis',(0.,0.,1.));
#1084=DIRECTION('center_axis',(0.,1.,0.));
#1085=DIRECTION('ref_axis',(0.,0.,1.));
#1086=DIRECTION('center_axis',(0.,1.,0.));
#1087=DIRECTION('ref_axis',(0.,0.,1.));
#1088=DIRECTION('center_axis',(0.,1.,0.));
#1089=DIRECTION('ref_axis',(0.,0.,1.));
#1090=DIRECTION('',(-4.18853873767708E-17,0.939692620785906,-0.342020143325676));
#1091=DIRECTION('center_axis',(0.,1.,0.));
#1092=DIRECTION('ref_axis',(0.,0.,1.));
#1093=DIRECTION('center_axis',(0.,1.,0.));
#1094=DIRECTION('ref_axis',(0.,0.,1.));
#1095=DIRECTION('',(-0.195090322016136,0.,-0.980785280403229));
#1096=DIRECTION('',(0.195090322016129,0.,0.98078528040323));
#1097=DIRECTION('center_axis',(0.,-1.,0.));
#1098=DIRECTION('ref_axis',(-0.98078528040323,0.,0.195090322016133));
#1099=DIRECTION('',(-0.137955732258777,0.707075806395307,-0.693550300949665));
#1100=DIRECTION('',(0.137955732258769,0.707075806395304,0.69355030094967));
#1101=DIRECTION('center_axis',(0.,-1.,0.));
#1102=DIRECTION('ref_axis',(0.,0.,-1.));
#1103=DIRECTION('center_axis',(0.,1.,0.));
#1104=DIRECTION('ref_axis',(0.,0.,1.));
#1105=DIRECTION('center_axis',(0.,1.,0.));
#1106=DIRECTION('ref_axis',(0.,0.,1.));
#1107=DIRECTION('',(-0.195090322016136,0.,-0.980785280403229));
#1108=DIRECTION('',(0.195090322016129,0.,0.98078528040323));
#1109=DIRECTION('center_axis',(-0.98078528040323,0.,0.195090322016129));
#1110=DIRECTION('ref_axis',(0.195090322016129,0.,0.98078528040323));
#1111=DIRECTION('',(0.195090322016129,0.,0.98078528040323));
#1112=DIRECTION('center_axis',(-0.98078528040323,0.,0.195090322016129));
#1113=DIRECTION('ref_axis',(0.195090322016129,0.,0.98078528040323));
#1114=DIRECTION('',(0.195090322016129,0.,0.98078528040323));
#1115=DIRECTION('center_axis',(0.,1.,0.));
#1116=DIRECTION('ref_axis',(0.,0.,1.));
#1117=DIRECTION('center_axis',(0.980785280403229,0.,-0.195090322016136));
#1118=DIRECTION('ref_axis',(-0.195090322016136,0.,-0.980785280403229));
#1119=DIRECTION('',(-0.195090322016136,0.,-0.980785280403229));
#1120=DIRECTION('center_axis',(0.980785280403229,0.,-0.195090322016136));
#1121=DIRECTION('ref_axis',(-0.195090322016136,0.,-0.980785280403229));
#1122=DIRECTION('',(-0.195090322016136,0.,-0.980785280403229));
#1123=DIRECTION('center_axis',(0.,1.,0.));
#1124=DIRECTION('ref_axis',(-6.98296267768627E-15,0.,-1.));
#1125=DIRECTION('center_axis',(-1.22464679914735E-16,1.,0.));
#1126=DIRECTION('ref_axis',(-1.,-1.22464679914735E-16,0.));
#1127=CARTESIAN_POINT('',(0.,0.,0.));
#1128=CARTESIAN_POINT('Origin',(4.858917120392E-15,-19.9,0.));
#1129=CARTESIAN_POINT('',(54.15,-19.5,6.63146241738292E-15));
#1130=CARTESIAN_POINT('',(-54.15,-19.5,-6.63146241738292E-15));
#1131=CARTESIAN_POINT('Origin',(4.8099312484261E-15,-19.5,0.));
#1132=CARTESIAN_POINT('Origin',(4.8099312484261E-15,-19.5,0.));
#1133=CARTESIAN_POINT('',(-54.55,-19.9,-6.68044828934881E-15));
#1134=CARTESIAN_POINT('',(-54.55,-19.9,-6.68044828934881E-15));
#1135=CARTESIAN_POINT('Origin',(4.858917120392E-15,-19.9,0.));
#1136=CARTESIAN_POINT('Origin',(4.89858719658919E-17,-1.59999999999998,
0.));
#1137=CARTESIAN_POINT('',(52.5,-1.59999999999998,-6.4293956955236E-15));
#1138=CARTESIAN_POINT('Origin',(4.89858719658919E-17,-1.59999999999998,
0.));
#1139=CARTESIAN_POINT('',(52.9,-1.19999999999998,-6.4783815674895E-15));
#1140=CARTESIAN_POINT('',(52.5,-1.59999999999997,-6.4293956955236E-15));
#1141=CARTESIAN_POINT('Origin',(1.53229692220886E-32,-1.2,0.));
#1142=CARTESIAN_POINT('Origin',(4.858917120392E-15,-19.9,0.));
#1143=CARTESIAN_POINT('',(54.15,-11.,-6.63146241738292E-15));
#1144=CARTESIAN_POINT('',(54.15,-19.9,-6.63146241738292E-15));
#1145=CARTESIAN_POINT('Origin',(3.76898146915085E-15,-11.,0.));
#1146=CARTESIAN_POINT('Origin',(2.29008951440555E-15,-19.9,0.));
#1147=CARTESIAN_POINT('',(52.5,-11.,-6.4293956955236E-15));
#1148=CARTESIAN_POINT('Origin',(1.20015386316441E-15,-11.,0.));
#1149=CARTESIAN_POINT('',(52.5,-19.9,-6.4293956955236E-15));
#1150=CARTESIAN_POINT('Origin',(24.9318256185848,-9.82545892920605E-31,
-60.1907515431107));
#1151=CARTESIAN_POINT('',(24.9318256185848,-19.9,-63.5907515431107));
#1152=CARTESIAN_POINT('Origin',(24.9318256185848,-19.9,-60.1907515431107));
#1153=CARTESIAN_POINT('',(24.9318256185848,9.79579829425947E-16,-63.5907515431107));
#1154=CARTESIAN_POINT('',(24.9318256185848,-1.5934169378109E-16,-63.5907515431107));
#1155=CARTESIAN_POINT('Origin',(24.9318256185848,1.13892152320704E-15,-60.1907515431107));
#1156=CARTESIAN_POINT('Origin',(46.068006794303,-9.82545892920605E-31,-46.0680067943041));
#1157=CARTESIAN_POINT('',(46.068006794303,-19.9,-49.4680067943041));
#1158=CARTESIAN_POINT('Origin',(46.068006794303,-19.9,-46.0680067943041));
#1159=CARTESIAN_POINT('',(46.068006794303,8.44496464086972E-16,-49.4680067943041));
#1160=CARTESIAN_POINT('',(46.068006794303,-2.94425059120065E-16,-49.4680067943041));
#1161=CARTESIAN_POINT('Origin',(46.068006794303,1.13892152320704E-15,-46.0680067943041));
#1162=CARTESIAN_POINT('Origin',(60.1907515431101,-9.82545892920605E-31,
-24.9318256185863));
#1163=CARTESIAN_POINT('',(60.1907515431101,-19.9,-28.3318256185863));
#1164=CARTESIAN_POINT('Origin',(60.1907515431101,-19.9,-24.9318256185863));
#1165=CARTESIAN_POINT('',(60.1907515431101,7.54236645029219E-16,-28.3318256185863));
#1166=CARTESIAN_POINT('',(60.1907515431101,-3.84684878177817E-16,-28.3318256185863));
#1167=CARTESIAN_POINT('Origin',(60.1907515431101,1.13892152320704E-15,-24.9318256185863));
#1168=CARTESIAN_POINT('Origin',(65.15,-9.82545892920605E-31,-6.90433123753283E-13));
#1169=CARTESIAN_POINT('',(65.15,-19.9,-3.40000000000068));
#1170=CARTESIAN_POINT('Origin',(65.15,-19.9,-6.8799607662298E-13));
#1171=CARTESIAN_POINT('',(65.15,7.22541611496936E-16,-3.40000000000068));
#1172=CARTESIAN_POINT('',(65.15,-4.163799117101E-16,-3.40000000000068));
#1173=CARTESIAN_POINT('Origin',(65.15,1.13892152320704E-15,-6.90433123753283E-13));
#1174=CARTESIAN_POINT('Origin',(60.1907515431106,-9.82545892920605E-31,
24.931825618585));
#1175=CARTESIAN_POINT('',(60.1907515431106,-19.9,21.531825618585));
#1176=CARTESIAN_POINT('Origin',(60.1907515431106,-19.9,24.931825618585));
#1177=CARTESIAN_POINT('',(60.1907515431106,7.54236645029216E-16,21.531825618585));
#1178=CARTESIAN_POINT('',(60.1907515431106,-3.8468487817782E-16,21.531825618585));
#1179=CARTESIAN_POINT('Origin',(60.1907515431106,1.13892152320704E-15,24.931825618585));
#1180=CARTESIAN_POINT('Origin',(46.068006794304,-9.82545892920605E-31,46.0680067943032));
#1181=CARTESIAN_POINT('',(46.068006794304,-19.9,42.6680067943032));
#1182=CARTESIAN_POINT('Origin',(46.068006794304,-19.9,46.0680067943032));
#1183=CARTESIAN_POINT('',(46.068006794304,8.44496464086967E-16,42.6680067943032));
#1184=CARTESIAN_POINT('',(46.068006794304,-2.9442505912007E-16,42.6680067943032));
#1185=CARTESIAN_POINT('Origin',(46.068006794304,1.13892152320704E-15,46.0680067943032));
#1186=CARTESIAN_POINT('Origin',(24.9318256185861,-9.82545892920605E-31,
60.1907515431101));
#1187=CARTESIAN_POINT('',(24.9318256185861,-19.9,56.7907515431101));
#1188=CARTESIAN_POINT('Origin',(24.9318256185861,-19.9,60.1907515431101));
#1189=CARTESIAN_POINT('',(24.9318256185861,9.79579829425938E-16,56.7907515431101));
#1190=CARTESIAN_POINT('',(24.9318256185861,-1.59341693781098E-16,56.7907515431101));
#1191=CARTESIAN_POINT('Origin',(24.9318256185861,1.13892152320704E-15,60.1907515431101));
#1192=CARTESIAN_POINT('Origin',(8.02309607639273E-15,-9.82545892920605E-31,
65.15));
#1193=CARTESIAN_POINT('',(7.60671616468263E-15,-19.9,61.75));
#1194=CARTESIAN_POINT('Origin',(8.02309607639273E-15,-19.9,65.15));
#1195=CARTESIAN_POINT('',(7.60671616468263E-15,1.13892152320704E-15,61.75));
#1196=CARTESIAN_POINT('',(7.60671616468263E-15,-9.82545892920605E-31,61.75));
#1197=CARTESIAN_POINT('Origin',(8.02309607639273E-15,1.13892152320704E-15,
65.15));
#1198=CARTESIAN_POINT('Origin',(-24.9318256185852,-9.82545892920605E-31,
60.1907515431105));
#1199=CARTESIAN_POINT('',(-24.9318256185852,-19.9,56.7907515431105));
#1200=CARTESIAN_POINT('Origin',(-24.9318256185852,-19.9,60.1907515431105));
#1201=CARTESIAN_POINT('',(-24.9318256185852,1.29826321698813E-15,56.7907515431105));
#1202=CARTESIAN_POINT('',(-24.9318256185852,1.59341693781091E-16,56.7907515431105));
#1203=CARTESIAN_POINT('Origin',(-24.9318256185852,1.13892152320704E-15,
60.1907515431105));
#1204=CARTESIAN_POINT('Origin',(-46.0680067943033,-9.82545892920605E-31,
46.0680067943038));
#1205=CARTESIAN_POINT('',(-46.0680067943033,-19.9,42.6680067943038));
#1206=CARTESIAN_POINT('Origin',(-46.0680067943033,-19.9,46.0680067943038));
#1207=CARTESIAN_POINT('',(-46.0680067943033,1.4333465823271E-15,42.6680067943038));
#1208=CARTESIAN_POINT('',(-46.0680067943033,2.94425059120065E-16,42.6680067943038));
#1209=CARTESIAN_POINT('Origin',(-46.0680067943033,1.13892152320704E-15,
46.0680067943038));
#1210=CARTESIAN_POINT('Origin',(-60.1907515431102,-9.82545892920605E-31,
24.9318256185859));
#1211=CARTESIAN_POINT('',(-60.1907515431102,-19.9,21.5318256185859));
#1212=CARTESIAN_POINT('Origin',(-60.1907515431102,-19.9,24.9318256185859));
#1213=CARTESIAN_POINT('',(-60.1907515431102,1.52360640138485E-15,21.5318256185859));
#1214=CARTESIAN_POINT('',(-60.1907515431102,3.84684878177816E-16,21.5318256185859));
#1215=CARTESIAN_POINT('Origin',(-60.1907515431102,1.13892152320704E-15,
24.9318256185859));
#1216=CARTESIAN_POINT('Origin',(-65.15,-9.82545892920605E-31,2.35493105302023E-13));
#1217=CARTESIAN_POINT('',(-65.15,-19.9,-3.39999999999976));
#1218=CARTESIAN_POINT('Origin',(-65.15,-19.9,2.3305605817172E-13));
#1219=CARTESIAN_POINT('',(-65.15,1.55530143491713E-15,-3.39999999999975));
#1220=CARTESIAN_POINT('',(-65.15,4.16379911710098E-16,-3.39999999999975));
#1221=CARTESIAN_POINT('Origin',(-65.15,1.13892152320704E-15,2.35493105302023E-13));
#1222=CARTESIAN_POINT('Origin',(-60.1907515431104,-9.82545892920605E-31,
-24.9318256185854));
#1223=CARTESIAN_POINT('',(-60.1907515431104,-19.9,-28.3318256185854));
#1224=CARTESIAN_POINT('Origin',(-60.1907515431104,-19.9,-24.9318256185854));
#1225=CARTESIAN_POINT('',(-60.1907515431104,1.52360640138485E-15,-28.3318256185854));
#1226=CARTESIAN_POINT('',(-60.1907515431104,3.84684878177816E-16,-28.3318256185854));
#1227=CARTESIAN_POINT('Origin',(-60.1907515431104,1.13892152320704E-15,
-24.9318256185854));
#1228=CARTESIAN_POINT('Origin',(-46.0680067943037,-9.82545892920605E-31,
-46.0680067943035));
#1229=CARTESIAN_POINT('',(-46.0680067943037,-19.9,-49.4680067943035));
#1230=CARTESIAN_POINT('Origin',(-46.0680067943037,-19.9,-46.0680067943035));
#1231=CARTESIAN_POINT('',(-46.0680067943037,1.4333465823271E-15,-49.4680067943035));
#1232=CARTESIAN_POINT('',(-46.0680067943037,2.94425059120067E-16,-49.4680067943035));
#1233=CARTESIAN_POINT('Origin',(-46.0680067943037,1.13892152320704E-15,
-46.0680067943035));
#1234=CARTESIAN_POINT('Origin',(-24.9318256185857,-9.82545892920605E-31,
-60.1907515431103));
#1235=CARTESIAN_POINT('',(-24.9318256185857,-19.9,-63.5907515431103));
#1236=CARTESIAN_POINT('Origin',(-24.9318256185857,-19.9,-60.1907515431103));
#1237=CARTESIAN_POINT('',(-24.9318256185857,1.29826321698813E-15,-63.5907515431103));
#1238=CARTESIAN_POINT('',(-24.9318256185857,1.59341693781093E-16,-63.5907515431103));
#1239=CARTESIAN_POINT('Origin',(-24.9318256185857,1.13892152320704E-15,
-60.1907515431103));
#1240=CARTESIAN_POINT('Origin',(-8.02309607639273E-15,-9.82545892920605E-31,
-65.15));
#1241=CARTESIAN_POINT('',(-8.43947598810283E-15,-19.9,-68.55));
#1242=CARTESIAN_POINT('Origin',(-8.02309607639273E-15,-19.9,-65.15));
#1243=CARTESIAN_POINT('',(-8.43947598810283E-15,1.13892152320704E-15,-68.55));
#1244=CARTESIAN_POINT('',(-8.43947598810283E-15,-9.82545892920605E-31,-68.55));
#1245=CARTESIAN_POINT('Origin',(-8.02309607639273E-15,1.13892152320704E-15,
-65.15));
#1246=CARTESIAN_POINT('Origin',(0.,0.,0.));
#1247=CARTESIAN_POINT('',(15.6697910506319,0.,73.6515284867159));
#1248=CARTESIAN_POINT('',(-13.7082204898249,-8.67361737988404E-16,-74.0417091307483));
#1249=CARTESIAN_POINT('Origin',(0.,-8.67361737988404E-16,0.));
#1250=CARTESIAN_POINT('',(15.7673447577528,-0.500000000000063,74.1419640911283));
#1251=CARTESIAN_POINT('',(15.7673447577528,-0.500000000000063,74.1419640911283));
#1252=CARTESIAN_POINT('',(-9.28282273753694E-15,-0.500000000000056,-75.8));
#1253=CARTESIAN_POINT('Origin',(0.,-0.500000000000056,0.));
#1254=CARTESIAN_POINT('',(-13.8057741969459,-0.500000000000056,-74.5321447351607));
#1255=CARTESIAN_POINT('Origin',(0.,-0.500000000000056,0.));
#1256=CARTESIAN_POINT('',(-13.8057741969459,-0.500000000000056,-74.5321447351607));
#1257=CARTESIAN_POINT('Origin',(0.,-19.4,0.));
#1258=CARTESIAN_POINT('',(-9.28282273753694E-15,-19.4,-75.8));
#1259=CARTESIAN_POINT('Origin',(0.,-19.4,0.));
#1260=CARTESIAN_POINT('',(-9.22159039757957E-15,-19.9,-75.3));
#1261=CARTESIAN_POINT('',(-9.28282273753694E-15,-19.4,-75.8));
#1262=CARTESIAN_POINT('Origin',(0.,-19.9,0.));
#1263=CARTESIAN_POINT('Origin',(0.,19.7760692452302,0.));
#1264=CARTESIAN_POINT('',(13.8057741969464,-0.500000000000063,74.5321447351606));
#1265=CARTESIAN_POINT('',(-15.7673447577523,-0.500000000000056,-74.1419640911284));
#1266=CARTESIAN_POINT('Origin',(0.,-0.500000000000056,0.));
#1267=CARTESIAN_POINT('',(-15.7673447577523,-1.,-74.1419640911284));
#1268=CARTESIAN_POINT('',(-15.7673447577523,19.7760692452302,-74.1419640911284));
#1269=CARTESIAN_POINT('',(-13.8057741969458,-1.,-74.5321447351607));
#1270=CARTESIAN_POINT('Origin',(0.,-1.,0.));
#1271=CARTESIAN_POINT('',(-13.8057741969459,19.7760692452302,-74.5321447351607));
#1272=CARTESIAN_POINT('',(-9.28282273753694E-15,19.7760692452302,-75.8));
#1273=CARTESIAN_POINT('',(15.7673447577528,-1.,74.1419640911283));
#1274=CARTESIAN_POINT('',(15.7673447577528,19.7760692452302,74.1419640911283));
#1275=CARTESIAN_POINT('',(13.8057741969464,-1.,74.5321447351606));
#1276=CARTESIAN_POINT('Origin',(0.,-1.,0.));
#1277=CARTESIAN_POINT('',(13.8057741969464,19.7760692452302,74.5321447351606));
#1278=CARTESIAN_POINT('Origin',(0.,19.7760692452302,0.));
#1279=CARTESIAN_POINT('',(7.39074343285428E-15,-1.58271963251876,60.35));
#1280=CARTESIAN_POINT('',(-7.39074343285428E-15,-1.58271963251876,-60.35));
#1281=CARTESIAN_POINT('Origin',(0.,-1.58271963251876,0.));
#1282=CARTESIAN_POINT('Origin',(0.,-1.58271963251876,0.));
#1283=CARTESIAN_POINT('',(-7.39074343285428E-15,0.,-60.35));
#1284=CARTESIAN_POINT('',(-7.39074343285428E-15,19.7760692452302,-60.35));
#1285=CARTESIAN_POINT('',(-10.7912992181823,0.,-59.3773556263973));
#1286=CARTESIAN_POINT('Origin',(0.,0.,0.));
#1287=CARTESIAN_POINT('',(-10.7912992181823,-1.,-59.3773556263973));
#1288=CARTESIAN_POINT('',(-10.7912992181823,19.7760692452302,-59.3773556263973));
#1289=CARTESIAN_POINT('',(-12.7528697789887,-1.,-58.9871749823651));
#1290=CARTESIAN_POINT('Origin',(0.,-1.,0.));
#1291=CARTESIAN_POINT('',(-12.7528697789887,0.,-58.9871749823651));
#1292=CARTESIAN_POINT('',(-12.7528697789887,19.7760692452302,-58.9871749823651));
#1293=CARTESIAN_POINT('',(10.7912992181827,0.,59.3773556263973));
#1294=CARTESIAN_POINT('Origin',(0.,0.,0.));
#1295=CARTESIAN_POINT('',(10.7912992181827,-1.,59.3773556263973));
#1296=CARTESIAN_POINT('',(10.7912992181827,19.7760692452302,59.3773556263973));
#1297=CARTESIAN_POINT('',(12.7528697789891,-1.,58.987174982365));
#1298=CARTESIAN_POINT('Origin',(0.,-1.,0.));
#1299=CARTESIAN_POINT('',(12.7528697789891,0.,58.987174982365));
#1300=CARTESIAN_POINT('',(12.7528697789891,19.7760692452302,58.987174982365));
#1301=CARTESIAN_POINT('Origin',(0.,0.,0.));
#1302=CARTESIAN_POINT('Origin',(0.,-0.6,0.));
#1303=CARTESIAN_POINT('',(-7.06008879708449E-15,-0.599999999999998,57.65));
#1304=CARTESIAN_POINT('',(-7.06008879708449E-15,-0.6,57.65));
#1305=CARTESIAN_POINT('',(7.06008879708449E-15,-0.6,-57.65));
#1306=CARTESIAN_POINT('Origin',(0.,-0.6,0.));
#1307=CARTESIAN_POINT('Origin',(0.,-0.6,0.));
#1308=CARTESIAN_POINT('Origin',(0.,-1.2,0.));
#1309=CARTESIAN_POINT('',(-7.03334469814175E-15,-1.2,-57.4316178594403));
#1310=CARTESIAN_POINT('Origin',(0.,-1.2,0.));
#1311=CARTESIAN_POINT('',(-7.03334469814175E-15,-1.2,-57.4316178594403));
#1312=CARTESIAN_POINT('Origin',(-60.35,-8.67361737988404E-16,0.));
#1313=CARTESIAN_POINT('',(-15.6697910506314,0.,-73.651528486716));
#1314=CARTESIAN_POINT('',(13.7082204898254,-8.67361737988404E-16,74.0417091307482));
#1315=CARTESIAN_POINT('Origin',(0.,-8.67361737988404E-16,0.));
#1316=CARTESIAN_POINT('',(14.1593470837329,0.,76.3096756722473));
#1317=CARTESIAN_POINT('',(-16.1209176445388,0.,-75.9194950282151));
#1318=CARTESIAN_POINT('Origin',(0.,0.,0.));
#1319=CARTESIAN_POINT('',(13.8057741969464,-0.500000000000063,74.5321447351606));
#1320=CARTESIAN_POINT('',(-15.7673447577523,-0.500000000000056,-74.1419640911284));
#1321=CARTESIAN_POINT('Origin',(-75.8,-19.9,0.));
#1322=CARTESIAN_POINT('Origin',(3.64039355524038E-15,-1.2,0.));
#1323=CARTESIAN_POINT('Origin',(-60.35,-8.67361737988404E-16,0.));
#1324=CARTESIAN_POINT('',(16.1209176445393,0.,75.919495028215));
#1325=CARTESIAN_POINT('',(-14.1593470837323,0.,-76.3096756722474));
#1326=CARTESIAN_POINT('Origin',(-16.1209176445388,-1.,-75.9194950282151));
#1327=CARTESIAN_POINT('',(-16.1209176445388,-1.,-75.9194950282151));
#1328=CARTESIAN_POINT('Origin',(-14.1593470837323,-1.,-76.3096756722474));
#1329=CARTESIAN_POINT('',(-14.1593470837323,-1.,-76.3096756722474));
#1330=CARTESIAN_POINT('Origin',(-12.6116277480143,-1.,-58.2771033420991));
#1331=CARTESIAN_POINT('Origin',(16.1209176445393,-1.,75.919495028215));
#1332=CARTESIAN_POINT('',(16.1209176445393,-1.,75.919495028215));
#1333=CARTESIAN_POINT('Origin',(14.1593470837329,-1.,76.3096756722473));
#1334=CARTESIAN_POINT('',(14.1593470837329,-1.,76.3096756722473));
#1335=CARTESIAN_POINT('Origin',(12.6116277480147,-1.,58.277103342099));
#1336=CARTESIAN_POINT('Origin',(3.76898146915085E-15,-11.,0.));
#1337=UNCERTAINTY_MEASURE_WITH_UNIT(LENGTH_MEASURE(0.01),#1341,
'DISTANCE_ACCURACY_VALUE',
'Maximum model space distance between geometric entities at asserted c
onnectivities');
#1338=UNCERTAINTY_MEASURE_WITH_UNIT(LENGTH_MEASURE(0.01),#1341,
'DISTANCE_ACCURACY_VALUE',
'Maximum model space distance between geometric entities at asserted c
onnectivities');
#1339=(
GEOMETRIC_REPRESENTATION_CONTEXT(3)
GLOBAL_UNCERTAINTY_ASSIGNED_CONTEXT((#1337))
GLOBAL_UNIT_ASSIGNED_CONTEXT((#1341,#1343,#1344))
REPRESENTATION_CONTEXT('','3D')
);
#1340=(
GEOMETRIC_REPRESENTATION_CONTEXT(3)
GLOBAL_UNCERTAINTY_ASSIGNED_CONTEXT((#1338))
GLOBAL_UNIT_ASSIGNED_CONTEXT((#1341,#1343,#1344))
REPRESENTATION_CONTEXT('','3D')
);
#1341=(
LENGTH_UNIT()
NAMED_UNIT(*)
SI_UNIT(.MILLI.,.METRE.)
);
#1342=(
LENGTH_UNIT()
NAMED_UNIT(*)
SI_UNIT($,.METRE.)
);
#1343=(
NAMED_UNIT(*)
PLANE_ANGLE_UNIT()
SI_UNIT($,.RADIAN.)
);
#1344=(
NAMED_UNIT(*)
SI_UNIT($,.STERADIAN.)
SOLID_ANGLE_UNIT()
);
#1345=SHAPE_DEFINITION_REPRESENTATION(#1346,#1347);
#1346=PRODUCT_DEFINITION_SHAPE('',$,#1349);
#1347=SHAPE_REPRESENTATION('',(#791),#1339);
#1348=PRODUCT_DEFINITION_CONTEXT('part definition',#1353,'design');
#1349=PRODUCT_DEFINITION('Hositrad_CF100-108-T',
'Hositrad_CF100-108-T v1',#1350,#1348);
#1350=PRODUCT_DEFINITION_FORMATION('',$,#1355);
#1351=PRODUCT_RELATED_PRODUCT_CATEGORY('Hositrad_CF100-108-T v1',
'Hositrad_CF100-108-T v1',(#1355));
#1352=APPLICATION_PROTOCOL_DEFINITION('international standard',
'automotive_design',2009,#1353);
#1353=APPLICATION_CONTEXT(
'Core Data for Automotive Mechanical Design Process');
#1354=PRODUCT_CONTEXT('part definition',#1353,'mechanical');
#1355=PRODUCT('Hositrad_CF100-108-T','Hositrad_CF100-108-T v1',$,(#1354));
#1356=PRESENTATION_STYLE_ASSIGNMENT((#1359));
#1357=PRESENTATION_STYLE_ASSIGNMENT((#1360));
#1358=PRESENTATION_STYLE_ASSIGNMENT((#1361));
#1359=SURFACE_STYLE_USAGE(.BOTH.,#1362);
#1360=SURFACE_STYLE_USAGE(.BOTH.,#1363);
#1361=SURFACE_STYLE_USAGE(.BOTH.,#1364);
#1362=SURFACE_SIDE_STYLE('',(#1365));
#1363=SURFACE_SIDE_STYLE('',(#1366));
#1364=SURFACE_SIDE_STYLE('',(#1367));
#1365=SURFACE_STYLE_FILL_AREA(#1368);
#1366=SURFACE_STYLE_FILL_AREA(#1369);
#1367=SURFACE_STYLE_FILL_AREA(#1370);
#1368=FILL_AREA_STYLE('Steel - Satin',(#1371));
#1369=FILL_AREA_STYLE('Opaque(165,158,150)',(#1372));
#1370=FILL_AREA_STYLE('Opaque(0,255,0)',(#1373));
#1371=FILL_AREA_STYLE_COLOUR('Steel - Satin',#1374);
#1372=FILL_AREA_STYLE_COLOUR('Opaque(165,158,150)',#1375);
#1373=FILL_AREA_STYLE_COLOUR('Opaque(0,255,0)',#1376);
#1374=COLOUR_RGB('Steel - Satin',0.627450980392157,0.627450980392157,0.627450980392157);
#1375=COLOUR_RGB('Opaque(165,158,150)',0.647058823529412,0.619607843137255,
0.588235294117647);
#1376=COLOUR_RGB('Opaque(0,255,0)',0.,1.,0.);
ENDSEC;
END-ISO-10303-21;
