ISO-10303-21;
HEADER;
/* Generated by software containing ST-Developer
 * from STEP Tools, Inc. (www.steptools.com) 
 */

FILE_DESCRIPTION(
/* description */ (''),
/* implementation_level */ '2;1');

FILE_NAME(
/* name */ 'Hositrad_FO35-45-HalfNipple v1.step',
/* time_stamp */ '2024-06-25T14:18:14+02:00',
/* author */ (''),
/* organization */ (''),
/* preprocessor_version */ 'ST-DEVELOPER v20',
/* originating_system */ 'Autodesk Translation Framework v13.14.0.145',

/* authorisation */ '');

FILE_SCHEMA (('AUTOMOTIVE_DESIGN { 1 0 10303 214 3 1 1 }'));
ENDSEC;

DATA;
#10=MECHANICAL_DESIGN_GEOMETRIC_PRESENTATION_REPRESENTATION('',(#40,#41),
#1223);
#11=ITEM_DEFINED_TRANSFORMATION($,$,#699,#792);
#12=ITEM_DEFINED_TRANSFORMATION($,$,#708,#793);
#13=(
REPRESENTATION_RELATIONSHIP($,$,#1237,#1236)
REPRESENTATION_RELATIONSHIP_WITH_TRANSFORMATION(#11)
SHAPE_REPRESENTATION_RELATIONSHIP()
);
#14=(
REPRESENTATION_RELATIONSHIP($,$,#1238,#1236)
REPRESENTATION_RELATIONSHIP_WITH_TRANSFORMATION(#12)
SHAPE_REPRESENTATION_RELATIONSHIP()
);
#15=CONTEXT_DEPENDENT_SHAPE_REPRESENTATION(#13,#1234);
#16=CONTEXT_DEPENDENT_SHAPE_REPRESENTATION(#14,#1235);
#17=NEXT_ASSEMBLY_USAGE_OCCURRENCE('Tube44:1','Tube44:1','Tube44:1',#1240,
#1241,'Tube44:1');
#18=NEXT_ASSEMBLY_USAGE_OCCURRENCE('NW35CF-Weld-44:1',
'NW35CF-Weld-44:1','NW35CF-Weld-44:1',#1240,#1242,'NW35CF-Weld-44:1');
#19=CONICAL_SURFACE('',#709,22.35,0.785398163397431);
#20=CONICAL_SURFACE('',#714,3.64999999999998,0.785398163397448);
#21=CONICAL_SURFACE('',#718,3.35,0.785398163397469);
#22=CONICAL_SURFACE('',#721,3.65,0.785398163397447);
#23=CONICAL_SURFACE('',#725,3.35,0.785398163397463);
#24=CONICAL_SURFACE('',#728,3.64999999999997,0.78539816339743);
#25=CONICAL_SURFACE('',#732,3.35,0.785398163397453);
#26=CONICAL_SURFACE('',#735,3.64999999999999,0.785398163397442);
#27=CONICAL_SURFACE('',#739,3.35,0.785398163397453);
#28=CONICAL_SURFACE('',#742,3.64999999999998,0.785398163397434);
#29=CONICAL_SURFACE('',#746,3.35,0.785398163397444);
#30=CONICAL_SURFACE('',#749,3.64999999999997,0.78539816339743);
#31=CONICAL_SURFACE('',#753,3.35,0.785398163397453);
#32=CONICAL_SURFACE('',#756,35.,0.785398163397435);
#33=CONICAL_SURFACE('',#759,34.6,0.78539816339744);
#34=CONICAL_SURFACE('',#769,20.7316178594403,0.349065850398869);
#35=CONICAL_SURFACE('',#773,20.95,1.22173047639603);
#36=SHAPE_REPRESENTATION_RELATIONSHIP('SRR','None',#1237,#38);
#37=SHAPE_REPRESENTATION_RELATIONSHIP('SRR','None',#1238,#39);
#38=ADVANCED_BREP_SHAPE_REPRESENTATION('',(#42),#1221);
#39=ADVANCED_BREP_SHAPE_REPRESENTATION('',(#43),#1222);
#40=STYLED_ITEM('',(#1256),#42);
#41=STYLED_ITEM('',(#1256),#43);
#42=MANIFOLD_SOLID_BREP('Body1',#673);
#43=MANIFOLD_SOLID_BREP('Body1',#674);
#44=FACE_BOUND('',#111,.T.);
#45=FACE_BOUND('',#113,.T.);
#46=FACE_BOUND('',#142,.T.);
#47=FACE_BOUND('',#143,.T.);
#48=FACE_BOUND('',#144,.T.);
#49=FACE_BOUND('',#145,.T.);
#50=FACE_BOUND('',#146,.T.);
#51=FACE_BOUND('',#147,.T.);
#52=FACE_BOUND('',#148,.T.);
#53=FACE_BOUND('',#150,.T.);
#54=FACE_BOUND('',#151,.T.);
#55=FACE_BOUND('',#152,.T.);
#56=FACE_BOUND('',#153,.T.);
#57=FACE_BOUND('',#154,.T.);
#58=FACE_BOUND('',#155,.T.);
#59=FACE_BOUND('',#157,.T.);
#60=FACE_BOUND('',#162,.T.);
#61=PLANE('',#706);
#62=PLANE('',#707);
#63=PLANE('',#785);
#64=PLANE('',#786);
#65=PLANE('',#787);
#66=PLANE('',#788);
#67=PLANE('',#789);
#68=PLANE('',#790);
#69=PLANE('',#791);
#70=FACE_OUTER_BOUND('',#108,.T.);
#71=FACE_OUTER_BOUND('',#109,.T.);
#72=FACE_OUTER_BOUND('',#110,.T.);
#73=FACE_OUTER_BOUND('',#112,.T.);
#74=FACE_OUTER_BOUND('',#114,.T.);
#75=FACE_OUTER_BOUND('',#115,.T.);
#76=FACE_OUTER_BOUND('',#116,.T.);
#77=FACE_OUTER_BOUND('',#117,.T.);
#78=FACE_OUTER_BOUND('',#118,.T.);
#79=FACE_OUTER_BOUND('',#119,.T.);
#80=FACE_OUTER_BOUND('',#120,.T.);
#81=FACE_OUTER_BOUND('',#121,.T.);
#82=FACE_OUTER_BOUND('',#122,.T.);
#83=FACE_OUTER_BOUND('',#123,.T.);
#84=FACE_OUTER_BOUND('',#124,.T.);
#85=FACE_OUTER_BOUND('',#125,.T.);
#86=FACE_OUTER_BOUND('',#126,.T.);
#87=FACE_OUTER_BOUND('',#127,.T.);
#88=FACE_OUTER_BOUND('',#128,.T.);
#89=FACE_OUTER_BOUND('',#129,.T.);
#90=FACE_OUTER_BOUND('',#130,.T.);
#91=FACE_OUTER_BOUND('',#131,.T.);
#92=FACE_OUTER_BOUND('',#132,.T.);
#93=FACE_OUTER_BOUND('',#133,.T.);
#94=FACE_OUTER_BOUND('',#134,.T.);
#95=FACE_OUTER_BOUND('',#135,.T.);
#96=FACE_OUTER_BOUND('',#136,.T.);
#97=FACE_OUTER_BOUND('',#137,.T.);
#98=FACE_OUTER_BOUND('',#138,.T.);
#99=FACE_OUTER_BOUND('',#139,.T.);
#100=FACE_OUTER_BOUND('',#140,.T.);
#101=FACE_OUTER_BOUND('',#141,.T.);
#102=FACE_OUTER_BOUND('',#149,.T.);
#103=FACE_OUTER_BOUND('',#156,.T.);
#104=FACE_OUTER_BOUND('',#158,.T.);
#105=FACE_OUTER_BOUND('',#159,.T.);
#106=FACE_OUTER_BOUND('',#160,.T.);
#107=FACE_OUTER_BOUND('',#161,.T.);
#108=EDGE_LOOP('',(#441,#442,#443,#444));
#109=EDGE_LOOP('',(#445,#446,#447,#448));
#110=EDGE_LOOP('',(#449));
#111=EDGE_LOOP('',(#450));
#112=EDGE_LOOP('',(#451));
#113=EDGE_LOOP('',(#452));
#114=EDGE_LOOP('',(#453,#454,#455,#456));
#115=EDGE_LOOP('',(#457,#458,#459,#460));
#116=EDGE_LOOP('',(#461,#462,#463,#464,#465));
#117=EDGE_LOOP('',(#466,#467,#468,#469));
#118=EDGE_LOOP('',(#470,#471,#472,#473,#474));
#119=EDGE_LOOP('',(#475,#476,#477,#478));
#120=EDGE_LOOP('',(#479,#480,#481,#482,#483));
#121=EDGE_LOOP('',(#484,#485,#486,#487));
#122=EDGE_LOOP('',(#488,#489,#490,#491,#492));
#123=EDGE_LOOP('',(#493,#494,#495,#496));
#124=EDGE_LOOP('',(#497,#498,#499,#500,#501));
#125=EDGE_LOOP('',(#502,#503,#504,#505));
#126=EDGE_LOOP('',(#506,#507,#508,#509,#510));
#127=EDGE_LOOP('',(#511,#512,#513,#514));
#128=EDGE_LOOP('',(#515,#516,#517,#518));
#129=EDGE_LOOP('',(#519,#520,#521,#522,#523));
#130=EDGE_LOOP('',(#524,#525,#526,#527,#528));
#131=EDGE_LOOP('',(#529,#530,#531,#532,#533));
#132=EDGE_LOOP('',(#534,#535,#536,#537,#538));
#133=EDGE_LOOP('',(#539,#540,#541,#542,#543));
#134=EDGE_LOOP('',(#544,#545,#546,#547,#548));
#135=EDGE_LOOP('',(#549,#550,#551,#552,#553));
#136=EDGE_LOOP('',(#554,#555,#556,#557,#558));
#137=EDGE_LOOP('',(#559,#560,#561,#562,#563,#564));
#138=EDGE_LOOP('',(#565,#566,#567,#568,#569,#570,#571,#572,#573));
#139=EDGE_LOOP('',(#574,#575,#576,#577,#578,#579,#580,#581));
#140=EDGE_LOOP('',(#582,#583,#584,#585));
#141=EDGE_LOOP('',(#586));
#142=EDGE_LOOP('',(#587));
#143=EDGE_LOOP('',(#588));
#144=EDGE_LOOP('',(#589));
#145=EDGE_LOOP('',(#590));
#146=EDGE_LOOP('',(#591));
#147=EDGE_LOOP('',(#592));
#148=EDGE_LOOP('',(#593));
#149=EDGE_LOOP('',(#594,#595,#596,#597,#598));
#150=EDGE_LOOP('',(#599));
#151=EDGE_LOOP('',(#600));
#152=EDGE_LOOP('',(#601));
#153=EDGE_LOOP('',(#602));
#154=EDGE_LOOP('',(#603));
#155=EDGE_LOOP('',(#604));
#156=EDGE_LOOP('',(#605));
#157=EDGE_LOOP('',(#606));
#158=EDGE_LOOP('',(#607,#608,#609,#610,#611));
#159=EDGE_LOOP('',(#612,#613,#614,#615,#616));
#160=EDGE_LOOP('',(#617,#618,#619,#620));
#161=EDGE_LOOP('',(#621));
#162=EDGE_LOOP('',(#622));
#163=LINE('',#1030,#201);
#164=LINE('',#1036,#202);
#165=LINE('',#1045,#203);
#166=LINE('',#1050,#204);
#167=LINE('',#1057,#205);
#168=LINE('',#1063,#206);
#169=LINE('',#1071,#207);
#170=LINE('',#1077,#208);
#171=LINE('',#1085,#209);
#172=LINE('',#1091,#210);
#173=LINE('',#1099,#211);
#174=LINE('',#1105,#212);
#175=LINE('',#1113,#213);
#176=LINE('',#1119,#214);
#177=LINE('',#1127,#215);
#178=LINE('',#1133,#216);
#179=LINE('',#1139,#217);
#180=LINE('',#1146,#218);
#181=LINE('',#1151,#219);
#182=LINE('',#1153,#220);
#183=LINE('',#1155,#221);
#184=LINE('',#1157,#222);
#185=LINE('',#1159,#223);
#186=LINE('',#1161,#224);
#187=LINE('',#1163,#225);
#188=LINE('',#1168,#226);
#189=LINE('',#1176,#227);
#190=LINE('',#1180,#228);
#191=LINE('',#1184,#229);
#192=LINE('',#1188,#230);
#193=LINE('',#1191,#231);
#194=LINE('',#1193,#232);
#195=LINE('',#1196,#233);
#196=LINE('',#1201,#234);
#197=LINE('',#1205,#235);
#198=LINE('',#1206,#236);
#199=LINE('',#1209,#237);
#200=LINE('',#1211,#238);
#201=VECTOR('',#802,20.25);
#202=VECTOR('',#809,22.25);
#203=VECTOR('',#822,22.35);
#204=VECTOR('',#829,22.35);
#205=VECTOR('',#836,3.64999999999999);
#206=VECTOR('',#843,3.35);
#207=VECTOR('',#852,3.65);
#208=VECTOR('',#859,3.35);
#209=VECTOR('',#868,3.64999999999997);
#210=VECTOR('',#875,3.35);
#211=VECTOR('',#884,3.64999999999999);
#212=VECTOR('',#891,3.35);
#213=VECTOR('',#900,3.64999999999998);
#214=VECTOR('',#907,3.35);
#215=VECTOR('',#916,3.64999999999997);
#216=VECTOR('',#923,3.35);
#217=VECTOR('',#930,35.);
#218=VECTOR('',#937,10.);
#219=VECTOR('',#942,10.);
#220=VECTOR('',#945,3.35);
#221=VECTOR('',#948,3.35);
#222=VECTOR('',#951,3.35);
#223=VECTOR('',#954,3.35);
#224=VECTOR('',#957,3.35);
#225=VECTOR('',#960,3.35);
#226=VECTOR('',#965,20.7316178594403);
#227=VECTOR('',#974,20.95);
#228=VECTOR('',#979,24.175);
#229=VECTOR('',#982,1000.);
#230=VECTOR('',#985,1000.);
#231=VECTOR('',#990,35.);
#232=VECTOR('',#991,1000.);
#233=VECTOR('',#994,1000.);
#234=VECTOR('',#999,20.25);
#235=VECTOR('',#1006,1000.);
#236=VECTOR('',#1007,1000.);
#237=VECTOR('',#1012,1000.);
#238=VECTOR('',#1015,1000.);
#239=CIRCLE('',#701,20.25);
#240=CIRCLE('',#702,20.25);
#241=CIRCLE('',#704,22.25);
#242=CIRCLE('',#705,22.25);
#243=CIRCLE('',#710,22.35);
#244=CIRCLE('',#711,22.65);
#245=CIRCLE('',#713,22.35);
#246=CIRCLE('',#715,3.35);
#247=CIRCLE('',#716,3.35);
#248=CIRCLE('',#717,3.64999999999998);
#249=CIRCLE('',#719,3.35);
#250=CIRCLE('',#720,3.65000000000003);
#251=CIRCLE('',#722,3.35);
#252=CIRCLE('',#723,3.35);
#253=CIRCLE('',#724,3.65);
#254=CIRCLE('',#726,3.35);
#255=CIRCLE('',#727,3.65000000000002);
#256=CIRCLE('',#729,3.35);
#257=CIRCLE('',#730,3.35);
#258=CIRCLE('',#731,3.64999999999997);
#259=CIRCLE('',#733,3.35);
#260=CIRCLE('',#734,3.65000000000002);
#261=CIRCLE('',#736,3.35);
#262=CIRCLE('',#737,3.35);
#263=CIRCLE('',#738,3.64999999999999);
#264=CIRCLE('',#740,3.35);
#265=CIRCLE('',#741,3.65000000000002);
#266=CIRCLE('',#743,3.35);
#267=CIRCLE('',#744,3.35);
#268=CIRCLE('',#745,3.64999999999998);
#269=CIRCLE('',#747,3.35);
#270=CIRCLE('',#748,3.64999999999999);
#271=CIRCLE('',#750,3.35);
#272=CIRCLE('',#751,3.35);
#273=CIRCLE('',#752,3.64999999999997);
#274=CIRCLE('',#754,3.35);
#275=CIRCLE('',#755,3.65000000000002);
#276=CIRCLE('',#757,35.);
#277=CIRCLE('',#758,34.6);
#278=CIRCLE('',#760,34.6);
#279=CIRCLE('',#761,35.);
#280=CIRCLE('',#762,35.);
#281=CIRCLE('',#770,20.7316178594403);
#282=CIRCLE('',#771,20.95);
#283=CIRCLE('',#772,20.95);
#284=CIRCLE('',#774,24.175);
#285=CIRCLE('',#775,24.175);
#286=CIRCLE('',#777,24.175);
#287=CIRCLE('',#778,24.175);
#288=CIRCLE('',#779,24.175);
#289=CIRCLE('',#781,35.);
#290=CIRCLE('',#783,20.25);
#291=CIRCLE('',#784,20.25);
#292=VERTEX_POINT('',#1027);
#293=VERTEX_POINT('',#1029);
#294=VERTEX_POINT('',#1033);
#295=VERTEX_POINT('',#1035);
#296=VERTEX_POINT('',#1042);
#297=VERTEX_POINT('',#1044);
#298=VERTEX_POINT('',#1048);
#299=VERTEX_POINT('',#1052);
#300=VERTEX_POINT('',#1053);
#301=VERTEX_POINT('',#1056);
#302=VERTEX_POINT('',#1060);
#303=VERTEX_POINT('',#1062);
#304=VERTEX_POINT('',#1066);
#305=VERTEX_POINT('',#1067);
#306=VERTEX_POINT('',#1070);
#307=VERTEX_POINT('',#1074);
#308=VERTEX_POINT('',#1076);
#309=VERTEX_POINT('',#1080);
#310=VERTEX_POINT('',#1081);
#311=VERTEX_POINT('',#1084);
#312=VERTEX_POINT('',#1088);
#313=VERTEX_POINT('',#1090);
#314=VERTEX_POINT('',#1094);
#315=VERTEX_POINT('',#1095);
#316=VERTEX_POINT('',#1098);
#317=VERTEX_POINT('',#1102);
#318=VERTEX_POINT('',#1104);
#319=VERTEX_POINT('',#1108);
#320=VERTEX_POINT('',#1109);
#321=VERTEX_POINT('',#1112);
#322=VERTEX_POINT('',#1116);
#323=VERTEX_POINT('',#1118);
#324=VERTEX_POINT('',#1122);
#325=VERTEX_POINT('',#1123);
#326=VERTEX_POINT('',#1126);
#327=VERTEX_POINT('',#1130);
#328=VERTEX_POINT('',#1132);
#329=VERTEX_POINT('',#1136);
#330=VERTEX_POINT('',#1138);
#331=VERTEX_POINT('',#1142);
#332=VERTEX_POINT('',#1143);
#333=VERTEX_POINT('',#1145);
#334=VERTEX_POINT('',#1147);
#335=VERTEX_POINT('',#1149);
#336=VERTEX_POINT('',#1165);
#337=VERTEX_POINT('',#1167);
#338=VERTEX_POINT('',#1169);
#339=VERTEX_POINT('',#1173);
#340=VERTEX_POINT('',#1174);
#341=VERTEX_POINT('',#1179);
#342=VERTEX_POINT('',#1181);
#343=VERTEX_POINT('',#1183);
#344=VERTEX_POINT('',#1185);
#345=VERTEX_POINT('',#1187);
#346=VERTEX_POINT('',#1192);
#347=VERTEX_POINT('',#1194);
#348=VERTEX_POINT('',#1198);
#349=VERTEX_POINT('',#1200);
#350=EDGE_CURVE('',#292,#292,#239,.T.);
#351=EDGE_CURVE('',#292,#293,#163,.T.);
#352=EDGE_CURVE('',#293,#293,#240,.T.);
#353=EDGE_CURVE('',#294,#294,#241,.T.);
#354=EDGE_CURVE('',#294,#295,#164,.T.);
#355=EDGE_CURVE('',#295,#295,#242,.T.);
#356=EDGE_CURVE('',#296,#296,#243,.T.);
#357=EDGE_CURVE('',#296,#297,#165,.T.);
#358=EDGE_CURVE('',#297,#297,#244,.T.);
#359=EDGE_CURVE('',#298,#298,#245,.T.);
#360=EDGE_CURVE('',#298,#296,#166,.T.);
#361=EDGE_CURVE('',#299,#300,#246,.T.);
#362=EDGE_CURVE('',#300,#299,#247,.T.);
#363=EDGE_CURVE('',#300,#301,#167,.T.);
#364=EDGE_CURVE('',#301,#301,#248,.T.);
#365=EDGE_CURVE('',#302,#302,#249,.T.);
#366=EDGE_CURVE('',#302,#303,#168,.T.);
#367=EDGE_CURVE('',#303,#303,#250,.T.);
#368=EDGE_CURVE('',#304,#305,#251,.T.);
#369=EDGE_CURVE('',#305,#304,#252,.T.);
#370=EDGE_CURVE('',#305,#306,#169,.T.);
#371=EDGE_CURVE('',#306,#306,#253,.T.);
#372=EDGE_CURVE('',#307,#307,#254,.T.);
#373=EDGE_CURVE('',#307,#308,#170,.T.);
#374=EDGE_CURVE('',#308,#308,#255,.T.);
#375=EDGE_CURVE('',#309,#310,#256,.T.);
#376=EDGE_CURVE('',#310,#309,#257,.T.);
#377=EDGE_CURVE('',#310,#311,#171,.T.);
#378=EDGE_CURVE('',#311,#311,#258,.T.);
#379=EDGE_CURVE('',#312,#312,#259,.T.);
#380=EDGE_CURVE('',#312,#313,#172,.T.);
#381=EDGE_CURVE('',#313,#313,#260,.T.);
#382=EDGE_CURVE('',#314,#315,#261,.T.);
#383=EDGE_CURVE('',#315,#314,#262,.T.);
#384=EDGE_CURVE('',#315,#316,#173,.T.);
#385=EDGE_CURVE('',#316,#316,#263,.T.);
#386=EDGE_CURVE('',#317,#317,#264,.T.);
#387=EDGE_CURVE('',#317,#318,#174,.T.);
#388=EDGE_CURVE('',#318,#318,#265,.T.);
#389=EDGE_CURVE('',#319,#320,#266,.T.);
#390=EDGE_CURVE('',#320,#319,#267,.T.);
#391=EDGE_CURVE('',#320,#321,#175,.T.);
#392=EDGE_CURVE('',#321,#321,#268,.T.);
#393=EDGE_CURVE('',#322,#322,#269,.T.);
#394=EDGE_CURVE('',#322,#323,#176,.T.);
#395=EDGE_CURVE('',#323,#323,#270,.T.);
#396=EDGE_CURVE('',#324,#325,#271,.T.);
#397=EDGE_CURVE('',#325,#324,#272,.T.);
#398=EDGE_CURVE('',#325,#326,#177,.T.);
#399=EDGE_CURVE('',#326,#326,#273,.T.);
#400=EDGE_CURVE('',#327,#327,#274,.T.);
#401=EDGE_CURVE('',#327,#328,#178,.T.);
#402=EDGE_CURVE('',#328,#328,#275,.T.);
#403=EDGE_CURVE('',#329,#329,#276,.T.);
#404=EDGE_CURVE('',#329,#330,#179,.T.);
#405=EDGE_CURVE('',#330,#330,#277,.T.);
#406=EDGE_CURVE('',#331,#332,#278,.T.);
#407=EDGE_CURVE('',#333,#331,#180,.T.);
#408=EDGE_CURVE('',#334,#333,#279,.T.);
#409=EDGE_CURVE('',#335,#334,#280,.T.);
#410=EDGE_CURVE('',#332,#335,#181,.T.);
#411=EDGE_CURVE('',#299,#302,#182,.T.);
#412=EDGE_CURVE('',#304,#307,#183,.T.);
#413=EDGE_CURVE('',#309,#312,#184,.T.);
#414=EDGE_CURVE('',#314,#317,#185,.T.);
#415=EDGE_CURVE('',#319,#322,#186,.T.);
#416=EDGE_CURVE('',#324,#327,#187,.T.);
#417=EDGE_CURVE('',#336,#336,#281,.T.);
#418=EDGE_CURVE('',#336,#337,#188,.T.);
#419=EDGE_CURVE('',#337,#338,#282,.T.);
#420=EDGE_CURVE('',#338,#337,#283,.T.);
#421=EDGE_CURVE('',#339,#340,#284,.T.);
#422=EDGE_CURVE('',#340,#338,#189,.T.);
#423=EDGE_CURVE('',#340,#339,#285,.T.);
#424=EDGE_CURVE('',#339,#341,#190,.T.);
#425=EDGE_CURVE('',#341,#342,#286,.T.);
#426=EDGE_CURVE('',#343,#342,#191,.T.);
#427=EDGE_CURVE('',#344,#343,#287,.T.);
#428=EDGE_CURVE('',#345,#344,#192,.T.);
#429=EDGE_CURVE('',#345,#341,#288,.T.);
#430=EDGE_CURVE('',#334,#329,#193,.T.);
#431=EDGE_CURVE('',#346,#333,#194,.T.);
#432=EDGE_CURVE('',#347,#346,#289,.T.);
#433=EDGE_CURVE('',#335,#347,#195,.T.);
#434=EDGE_CURVE('',#348,#348,#290,.T.);
#435=EDGE_CURVE('',#348,#349,#196,.T.);
#436=EDGE_CURVE('',#349,#349,#291,.T.);
#437=EDGE_CURVE('',#331,#345,#197,.T.);
#438=EDGE_CURVE('',#342,#332,#198,.T.);
#439=EDGE_CURVE('',#346,#344,#199,.T.);
#440=EDGE_CURVE('',#343,#347,#200,.T.);
#441=ORIENTED_EDGE('',*,*,#350,.F.);
#442=ORIENTED_EDGE('',*,*,#351,.T.);
#443=ORIENTED_EDGE('',*,*,#352,.T.);
#444=ORIENTED_EDGE('',*,*,#351,.F.);
#445=ORIENTED_EDGE('',*,*,#353,.T.);
#446=ORIENTED_EDGE('',*,*,#354,.T.);
#447=ORIENTED_EDGE('',*,*,#355,.F.);
#448=ORIENTED_EDGE('',*,*,#354,.F.);
#449=ORIENTED_EDGE('',*,*,#355,.T.);
#450=ORIENTED_EDGE('',*,*,#352,.F.);
#451=ORIENTED_EDGE('',*,*,#353,.F.);
#452=ORIENTED_EDGE('',*,*,#350,.T.);
#453=ORIENTED_EDGE('',*,*,#356,.F.);
#454=ORIENTED_EDGE('',*,*,#357,.T.);
#455=ORIENTED_EDGE('',*,*,#358,.F.);
#456=ORIENTED_EDGE('',*,*,#357,.F.);
#457=ORIENTED_EDGE('',*,*,#359,.F.);
#458=ORIENTED_EDGE('',*,*,#360,.T.);
#459=ORIENTED_EDGE('',*,*,#356,.T.);
#460=ORIENTED_EDGE('',*,*,#360,.F.);
#461=ORIENTED_EDGE('',*,*,#361,.F.);
#462=ORIENTED_EDGE('',*,*,#362,.F.);
#463=ORIENTED_EDGE('',*,*,#363,.T.);
#464=ORIENTED_EDGE('',*,*,#364,.F.);
#465=ORIENTED_EDGE('',*,*,#363,.F.);
#466=ORIENTED_EDGE('',*,*,#365,.F.);
#467=ORIENTED_EDGE('',*,*,#366,.T.);
#468=ORIENTED_EDGE('',*,*,#367,.F.);
#469=ORIENTED_EDGE('',*,*,#366,.F.);
#470=ORIENTED_EDGE('',*,*,#368,.F.);
#471=ORIENTED_EDGE('',*,*,#369,.F.);
#472=ORIENTED_EDGE('',*,*,#370,.T.);
#473=ORIENTED_EDGE('',*,*,#371,.F.);
#474=ORIENTED_EDGE('',*,*,#370,.F.);
#475=ORIENTED_EDGE('',*,*,#372,.F.);
#476=ORIENTED_EDGE('',*,*,#373,.T.);
#477=ORIENTED_EDGE('',*,*,#374,.F.);
#478=ORIENTED_EDGE('',*,*,#373,.F.);
#479=ORIENTED_EDGE('',*,*,#375,.F.);
#480=ORIENTED_EDGE('',*,*,#376,.F.);
#481=ORIENTED_EDGE('',*,*,#377,.T.);
#482=ORIENTED_EDGE('',*,*,#378,.F.);
#483=ORIENTED_EDGE('',*,*,#377,.F.);
#484=ORIENTED_EDGE('',*,*,#379,.F.);
#485=ORIENTED_EDGE('',*,*,#380,.T.);
#486=ORIENTED_EDGE('',*,*,#381,.F.);
#487=ORIENTED_EDGE('',*,*,#380,.F.);
#488=ORIENTED_EDGE('',*,*,#382,.F.);
#489=ORIENTED_EDGE('',*,*,#383,.F.);
#490=ORIENTED_EDGE('',*,*,#384,.T.);
#491=ORIENTED_EDGE('',*,*,#385,.F.);
#492=ORIENTED_EDGE('',*,*,#384,.F.);
#493=ORIENTED_EDGE('',*,*,#386,.F.);
#494=ORIENTED_EDGE('',*,*,#387,.T.);
#495=ORIENTED_EDGE('',*,*,#388,.F.);
#496=ORIENTED_EDGE('',*,*,#387,.F.);
#497=ORIENTED_EDGE('',*,*,#389,.F.);
#498=ORIENTED_EDGE('',*,*,#390,.F.);
#499=ORIENTED_EDGE('',*,*,#391,.T.);
#500=ORIENTED_EDGE('',*,*,#392,.F.);
#501=ORIENTED_EDGE('',*,*,#391,.F.);
#502=ORIENTED_EDGE('',*,*,#393,.F.);
#503=ORIENTED_EDGE('',*,*,#394,.T.);
#504=ORIENTED_EDGE('',*,*,#395,.F.);
#505=ORIENTED_EDGE('',*,*,#394,.F.);
#506=ORIENTED_EDGE('',*,*,#396,.F.);
#507=ORIENTED_EDGE('',*,*,#397,.F.);
#508=ORIENTED_EDGE('',*,*,#398,.T.);
#509=ORIENTED_EDGE('',*,*,#399,.F.);
#510=ORIENTED_EDGE('',*,*,#398,.F.);
#511=ORIENTED_EDGE('',*,*,#400,.F.);
#512=ORIENTED_EDGE('',*,*,#401,.T.);
#513=ORIENTED_EDGE('',*,*,#402,.F.);
#514=ORIENTED_EDGE('',*,*,#401,.F.);
#515=ORIENTED_EDGE('',*,*,#403,.F.);
#516=ORIENTED_EDGE('',*,*,#404,.T.);
#517=ORIENTED_EDGE('',*,*,#405,.F.);
#518=ORIENTED_EDGE('',*,*,#404,.F.);
#519=ORIENTED_EDGE('',*,*,#406,.F.);
#520=ORIENTED_EDGE('',*,*,#407,.F.);
#521=ORIENTED_EDGE('',*,*,#408,.F.);
#522=ORIENTED_EDGE('',*,*,#409,.F.);
#523=ORIENTED_EDGE('',*,*,#410,.F.);
#524=ORIENTED_EDGE('',*,*,#361,.T.);
#525=ORIENTED_EDGE('',*,*,#362,.T.);
#526=ORIENTED_EDGE('',*,*,#411,.T.);
#527=ORIENTED_EDGE('',*,*,#365,.T.);
#528=ORIENTED_EDGE('',*,*,#411,.F.);
#529=ORIENTED_EDGE('',*,*,#368,.T.);
#530=ORIENTED_EDGE('',*,*,#369,.T.);
#531=ORIENTED_EDGE('',*,*,#412,.T.);
#532=ORIENTED_EDGE('',*,*,#372,.T.);
#533=ORIENTED_EDGE('',*,*,#412,.F.);
#534=ORIENTED_EDGE('',*,*,#375,.T.);
#535=ORIENTED_EDGE('',*,*,#376,.T.);
#536=ORIENTED_EDGE('',*,*,#413,.T.);
#537=ORIENTED_EDGE('',*,*,#379,.T.);
#538=ORIENTED_EDGE('',*,*,#413,.F.);
#539=ORIENTED_EDGE('',*,*,#382,.T.);
#540=ORIENTED_EDGE('',*,*,#383,.T.);
#541=ORIENTED_EDGE('',*,*,#414,.T.);
#542=ORIENTED_EDGE('',*,*,#386,.T.);
#543=ORIENTED_EDGE('',*,*,#414,.F.);
#544=ORIENTED_EDGE('',*,*,#389,.T.);
#545=ORIENTED_EDGE('',*,*,#390,.T.);
#546=ORIENTED_EDGE('',*,*,#415,.T.);
#547=ORIENTED_EDGE('',*,*,#393,.T.);
#548=ORIENTED_EDGE('',*,*,#415,.F.);
#549=ORIENTED_EDGE('',*,*,#396,.T.);
#550=ORIENTED_EDGE('',*,*,#397,.T.);
#551=ORIENTED_EDGE('',*,*,#416,.T.);
#552=ORIENTED_EDGE('',*,*,#400,.T.);
#553=ORIENTED_EDGE('',*,*,#416,.F.);
#554=ORIENTED_EDGE('',*,*,#417,.F.);
#555=ORIENTED_EDGE('',*,*,#418,.T.);
#556=ORIENTED_EDGE('',*,*,#419,.T.);
#557=ORIENTED_EDGE('',*,*,#420,.T.);
#558=ORIENTED_EDGE('',*,*,#418,.F.);
#559=ORIENTED_EDGE('',*,*,#421,.T.);
#560=ORIENTED_EDGE('',*,*,#422,.T.);
#561=ORIENTED_EDGE('',*,*,#419,.F.);
#562=ORIENTED_EDGE('',*,*,#420,.F.);
#563=ORIENTED_EDGE('',*,*,#422,.F.);
#564=ORIENTED_EDGE('',*,*,#423,.T.);
#565=ORIENTED_EDGE('',*,*,#421,.F.);
#566=ORIENTED_EDGE('',*,*,#424,.T.);
#567=ORIENTED_EDGE('',*,*,#425,.T.);
#568=ORIENTED_EDGE('',*,*,#426,.F.);
#569=ORIENTED_EDGE('',*,*,#427,.F.);
#570=ORIENTED_EDGE('',*,*,#428,.F.);
#571=ORIENTED_EDGE('',*,*,#429,.T.);
#572=ORIENTED_EDGE('',*,*,#424,.F.);
#573=ORIENTED_EDGE('',*,*,#423,.F.);
#574=ORIENTED_EDGE('',*,*,#409,.T.);
#575=ORIENTED_EDGE('',*,*,#430,.T.);
#576=ORIENTED_EDGE('',*,*,#403,.T.);
#577=ORIENTED_EDGE('',*,*,#430,.F.);
#578=ORIENTED_EDGE('',*,*,#408,.T.);
#579=ORIENTED_EDGE('',*,*,#431,.F.);
#580=ORIENTED_EDGE('',*,*,#432,.F.);
#581=ORIENTED_EDGE('',*,*,#433,.F.);
#582=ORIENTED_EDGE('',*,*,#434,.F.);
#583=ORIENTED_EDGE('',*,*,#435,.T.);
#584=ORIENTED_EDGE('',*,*,#436,.T.);
#585=ORIENTED_EDGE('',*,*,#435,.F.);
#586=ORIENTED_EDGE('',*,*,#405,.T.);
#587=ORIENTED_EDGE('',*,*,#358,.T.);
#588=ORIENTED_EDGE('',*,*,#402,.T.);
#589=ORIENTED_EDGE('',*,*,#395,.T.);
#590=ORIENTED_EDGE('',*,*,#388,.T.);
#591=ORIENTED_EDGE('',*,*,#381,.T.);
#592=ORIENTED_EDGE('',*,*,#374,.T.);
#593=ORIENTED_EDGE('',*,*,#367,.T.);
#594=ORIENTED_EDGE('',*,*,#437,.F.);
#595=ORIENTED_EDGE('',*,*,#406,.T.);
#596=ORIENTED_EDGE('',*,*,#438,.F.);
#597=ORIENTED_EDGE('',*,*,#425,.F.);
#598=ORIENTED_EDGE('',*,*,#429,.F.);
#599=ORIENTED_EDGE('',*,*,#399,.T.);
#600=ORIENTED_EDGE('',*,*,#392,.T.);
#601=ORIENTED_EDGE('',*,*,#385,.T.);
#602=ORIENTED_EDGE('',*,*,#378,.T.);
#603=ORIENTED_EDGE('',*,*,#371,.T.);
#604=ORIENTED_EDGE('',*,*,#364,.T.);
#605=ORIENTED_EDGE('',*,*,#417,.T.);
#606=ORIENTED_EDGE('',*,*,#436,.F.);
#607=ORIENTED_EDGE('',*,*,#428,.T.);
#608=ORIENTED_EDGE('',*,*,#439,.F.);
#609=ORIENTED_EDGE('',*,*,#431,.T.);
#610=ORIENTED_EDGE('',*,*,#407,.T.);
#611=ORIENTED_EDGE('',*,*,#437,.T.);
#612=ORIENTED_EDGE('',*,*,#426,.T.);
#613=ORIENTED_EDGE('',*,*,#438,.T.);
#614=ORIENTED_EDGE('',*,*,#410,.T.);
#615=ORIENTED_EDGE('',*,*,#433,.T.);
#616=ORIENTED_EDGE('',*,*,#440,.F.);
#617=ORIENTED_EDGE('',*,*,#432,.T.);
#618=ORIENTED_EDGE('',*,*,#439,.T.);
#619=ORIENTED_EDGE('',*,*,#427,.T.);
#620=ORIENTED_EDGE('',*,*,#440,.T.);
#621=ORIENTED_EDGE('',*,*,#359,.T.);
#622=ORIENTED_EDGE('',*,*,#434,.T.);
#623=CYLINDRICAL_SURFACE('',#700,20.25);
#624=CYLINDRICAL_SURFACE('',#703,22.25);
#625=CYLINDRICAL_SURFACE('',#712,22.35);
#626=CYLINDRICAL_SURFACE('',#763,3.35);
#627=CYLINDRICAL_SURFACE('',#764,3.35);
#628=CYLINDRICAL_SURFACE('',#765,3.35);
#629=CYLINDRICAL_SURFACE('',#766,3.35);
#630=CYLINDRICAL_SURFACE('',#767,3.35);
#631=CYLINDRICAL_SURFACE('',#768,3.35);
#632=CYLINDRICAL_SURFACE('',#776,24.175);
#633=CYLINDRICAL_SURFACE('',#780,35.);
#634=CYLINDRICAL_SURFACE('',#782,20.25);
#635=ADVANCED_FACE('',(#70),#623,.F.);
#636=ADVANCED_FACE('',(#71),#624,.T.);
#637=ADVANCED_FACE('',(#72,#44),#61,.T.);
#638=ADVANCED_FACE('',(#73,#45),#62,.F.);
#639=ADVANCED_FACE('',(#74),#19,.F.);
#640=ADVANCED_FACE('',(#75),#625,.F.);
#641=ADVANCED_FACE('',(#76),#20,.F.);
#642=ADVANCED_FACE('',(#77),#21,.F.);
#643=ADVANCED_FACE('',(#78),#22,.F.);
#644=ADVANCED_FACE('',(#79),#23,.F.);
#645=ADVANCED_FACE('',(#80),#24,.F.);
#646=ADVANCED_FACE('',(#81),#25,.F.);
#647=ADVANCED_FACE('',(#82),#26,.F.);
#648=ADVANCED_FACE('',(#83),#27,.F.);
#649=ADVANCED_FACE('',(#84),#28,.F.);
#650=ADVANCED_FACE('',(#85),#29,.F.);
#651=ADVANCED_FACE('',(#86),#30,.F.);
#652=ADVANCED_FACE('',(#87),#31,.F.);
#653=ADVANCED_FACE('',(#88),#32,.T.);
#654=ADVANCED_FACE('',(#89),#33,.T.);
#655=ADVANCED_FACE('',(#90),#626,.F.);
#656=ADVANCED_FACE('',(#91),#627,.F.);
#657=ADVANCED_FACE('',(#92),#628,.F.);
#658=ADVANCED_FACE('',(#93),#629,.F.);
#659=ADVANCED_FACE('',(#94),#630,.F.);
#660=ADVANCED_FACE('',(#95),#631,.F.);
#661=ADVANCED_FACE('',(#96),#34,.F.);
#662=ADVANCED_FACE('',(#97),#35,.T.);
#663=ADVANCED_FACE('',(#98),#632,.F.);
#664=ADVANCED_FACE('',(#99),#633,.T.);
#665=ADVANCED_FACE('',(#100),#634,.F.);
#666=ADVANCED_FACE('',(#101,#46,#47,#48,#49,#50,#51,#52),#63,.T.);
#667=ADVANCED_FACE('',(#102,#53,#54,#55,#56,#57,#58),#64,.T.);
#668=ADVANCED_FACE('',(#103,#59),#65,.T.);
#669=ADVANCED_FACE('',(#104),#66,.F.);
#670=ADVANCED_FACE('',(#105),#67,.F.);
#671=ADVANCED_FACE('',(#106),#68,.F.);
#672=ADVANCED_FACE('',(#107,#60),#69,.T.);
#673=CLOSED_SHELL('',(#635,#636,#637,#638));
#674=CLOSED_SHELL('',(#639,#640,#641,#642,#643,#644,#645,#646,#647,#648,
#649,#650,#651,#652,#653,#654,#655,#656,#657,#658,#659,#660,#661,#662,#663,
#664,#665,#666,#667,#668,#669,#670,#671,#672));
#675=DERIVED_UNIT_ELEMENT(#679,1.);
#676=DERIVED_UNIT_ELEMENT(#1225,-3.);
#677=DERIVED_UNIT_ELEMENT(#679,1.);
#678=DERIVED_UNIT_ELEMENT(#1225,-3.);
#679=(
MASS_UNIT()
NAMED_UNIT(*)
SI_UNIT(.KILO.,.GRAM.)
);
#680=DERIVED_UNIT((#675,#676));
#681=DERIVED_UNIT((#677,#678));
#682=MEASURE_REPRESENTATION_ITEM('density measure',
POSITIVE_RATIO_MEASURE(7850.),#680);
#683=MEASURE_REPRESENTATION_ITEM('density measure',
POSITIVE_RATIO_MEASURE(7850.),#681);
#684=PROPERTY_DEFINITION_REPRESENTATION(#694,#688);
#685=PROPERTY_DEFINITION_REPRESENTATION(#695,#689);
#686=PROPERTY_DEFINITION_REPRESENTATION(#696,#690);
#687=PROPERTY_DEFINITION_REPRESENTATION(#697,#691);
#688=REPRESENTATION('material name',(#692),#1221);
#689=REPRESENTATION('density',(#682),#1221);
#690=REPRESENTATION('material name',(#693),#1222);
#691=REPRESENTATION('density',(#683),#1222);
#692=DESCRIPTIVE_REPRESENTATION_ITEM('Steel','Steel');
#693=DESCRIPTIVE_REPRESENTATION_ITEM('Steel','Steel');
#694=PROPERTY_DEFINITION('material property','material name',#1241);
#695=PROPERTY_DEFINITION('material property','density of part',#1241);
#696=PROPERTY_DEFINITION('material property','material name',#1242);
#697=PROPERTY_DEFINITION('material property','density of part',#1242);
#698=AXIS2_PLACEMENT_3D('',#1024,#794,#795);
#699=AXIS2_PLACEMENT_3D('',#1025,#796,#797);
#700=AXIS2_PLACEMENT_3D('',#1026,#798,#799);
#701=AXIS2_PLACEMENT_3D('',#1028,#800,#801);
#702=AXIS2_PLACEMENT_3D('',#1031,#803,#804);
#703=AXIS2_PLACEMENT_3D('',#1032,#805,#806);
#704=AXIS2_PLACEMENT_3D('',#1034,#807,#808);
#705=AXIS2_PLACEMENT_3D('',#1037,#810,#811);
#706=AXIS2_PLACEMENT_3D('',#1038,#812,#813);
#707=AXIS2_PLACEMENT_3D('',#1039,#814,#815);
#708=AXIS2_PLACEMENT_3D('',#1040,#816,#817);
#709=AXIS2_PLACEMENT_3D('',#1041,#818,#819);
#710=AXIS2_PLACEMENT_3D('',#1043,#820,#821);
#711=AXIS2_PLACEMENT_3D('',#1046,#823,#824);
#712=AXIS2_PLACEMENT_3D('',#1047,#825,#826);
#713=AXIS2_PLACEMENT_3D('',#1049,#827,#828);
#714=AXIS2_PLACEMENT_3D('',#1051,#830,#831);
#715=AXIS2_PLACEMENT_3D('',#1054,#832,#833);
#716=AXIS2_PLACEMENT_3D('',#1055,#834,#835);
#717=AXIS2_PLACEMENT_3D('',#1058,#837,#838);
#718=AXIS2_PLACEMENT_3D('',#1059,#839,#840);
#719=AXIS2_PLACEMENT_3D('',#1061,#841,#842);
#720=AXIS2_PLACEMENT_3D('',#1064,#844,#845);
#721=AXIS2_PLACEMENT_3D('',#1065,#846,#847);
#722=AXIS2_PLACEMENT_3D('',#1068,#848,#849);
#723=AXIS2_PLACEMENT_3D('',#1069,#850,#851);
#724=AXIS2_PLACEMENT_3D('',#1072,#853,#854);
#725=AXIS2_PLACEMENT_3D('',#1073,#855,#856);
#726=AXIS2_PLACEMENT_3D('',#1075,#857,#858);
#727=AXIS2_PLACEMENT_3D('',#1078,#860,#861);
#728=AXIS2_PLACEMENT_3D('',#1079,#862,#863);
#729=AXIS2_PLACEMENT_3D('',#1082,#864,#865);
#730=AXIS2_PLACEMENT_3D('',#1083,#866,#867);
#731=AXIS2_PLACEMENT_3D('',#1086,#869,#870);
#732=AXIS2_PLACEMENT_3D('',#1087,#871,#872);
#733=AXIS2_PLACEMENT_3D('',#1089,#873,#874);
#734=AXIS2_PLACEMENT_3D('',#1092,#876,#877);
#735=AXIS2_PLACEMENT_3D('',#1093,#878,#879);
#736=AXIS2_PLACEMENT_3D('',#1096,#880,#881);
#737=AXIS2_PLACEMENT_3D('',#1097,#882,#883);
#738=AXIS2_PLACEMENT_3D('',#1100,#885,#886);
#739=AXIS2_PLACEMENT_3D('',#1101,#887,#888);
#740=AXIS2_PLACEMENT_3D('',#1103,#889,#890);
#741=AXIS2_PLACEMENT_3D('',#1106,#892,#893);
#742=AXIS2_PLACEMENT_3D('',#1107,#894,#895);
#743=AXIS2_PLACEMENT_3D('',#1110,#896,#897);
#744=AXIS2_PLACEMENT_3D('',#1111,#898,#899);
#745=AXIS2_PLACEMENT_3D('',#1114,#901,#902);
#746=AXIS2_PLACEMENT_3D('',#1115,#903,#904);
#747=AXIS2_PLACEMENT_3D('',#1117,#905,#906);
#748=AXIS2_PLACEMENT_3D('',#1120,#908,#909);
#749=AXIS2_PLACEMENT_3D('',#1121,#910,#911);
#750=AXIS2_PLACEMENT_3D('',#1124,#912,#913);
#751=AXIS2_PLACEMENT_3D('',#1125,#914,#915);
#752=AXIS2_PLACEMENT_3D('',#1128,#917,#918);
#753=AXIS2_PLACEMENT_3D('',#1129,#919,#920);
#754=AXIS2_PLACEMENT_3D('',#1131,#921,#922);
#755=AXIS2_PLACEMENT_3D('',#1134,#924,#925);
#756=AXIS2_PLACEMENT_3D('',#1135,#926,#927);
#757=AXIS2_PLACEMENT_3D('',#1137,#928,#929);
#758=AXIS2_PLACEMENT_3D('',#1140,#931,#932);
#759=AXIS2_PLACEMENT_3D('',#1141,#933,#934);
#760=AXIS2_PLACEMENT_3D('',#1144,#935,#936);
#761=AXIS2_PLACEMENT_3D('',#1148,#938,#939);
#762=AXIS2_PLACEMENT_3D('',#1150,#940,#941);
#763=AXIS2_PLACEMENT_3D('',#1152,#943,#944);
#764=AXIS2_PLACEMENT_3D('',#1154,#946,#947);
#765=AXIS2_PLACEMENT_3D('',#1156,#949,#950);
#766=AXIS2_PLACEMENT_3D('',#1158,#952,#953);
#767=AXIS2_PLACEMENT_3D('',#1160,#955,#956);
#768=AXIS2_PLACEMENT_3D('',#1162,#958,#959);
#769=AXIS2_PLACEMENT_3D('',#1164,#961,#962);
#770=AXIS2_PLACEMENT_3D('',#1166,#963,#964);
#771=AXIS2_PLACEMENT_3D('',#1170,#966,#967);
#772=AXIS2_PLACEMENT_3D('',#1171,#968,#969);
#773=AXIS2_PLACEMENT_3D('',#1172,#970,#971);
#774=AXIS2_PLACEMENT_3D('',#1175,#972,#973);
#775=AXIS2_PLACEMENT_3D('',#1177,#975,#976);
#776=AXIS2_PLACEMENT_3D('',#1178,#977,#978);
#777=AXIS2_PLACEMENT_3D('',#1182,#980,#981);
#778=AXIS2_PLACEMENT_3D('',#1186,#983,#984);
#779=AXIS2_PLACEMENT_3D('',#1189,#986,#987);
#780=AXIS2_PLACEMENT_3D('',#1190,#988,#989);
#781=AXIS2_PLACEMENT_3D('',#1195,#992,#993);
#782=AXIS2_PLACEMENT_3D('',#1197,#995,#996);
#783=AXIS2_PLACEMENT_3D('',#1199,#997,#998);
#784=AXIS2_PLACEMENT_3D('',#1202,#1000,#1001);
#785=AXIS2_PLACEMENT_3D('',#1203,#1002,#1003);
#786=AXIS2_PLACEMENT_3D('',#1204,#1004,#1005);
#787=AXIS2_PLACEMENT_3D('',#1207,#1008,#1009);
#788=AXIS2_PLACEMENT_3D('',#1208,#1010,#1011);
#789=AXIS2_PLACEMENT_3D('',#1210,#1013,#1014);
#790=AXIS2_PLACEMENT_3D('',#1212,#1016,#1017);
#791=AXIS2_PLACEMENT_3D('',#1213,#1018,#1019);
#792=AXIS2_PLACEMENT_3D('',#1214,#1020,#1021);
#793=AXIS2_PLACEMENT_3D('',#1215,#1022,#1023);
#794=DIRECTION('axis',(0.,0.,1.));
#795=DIRECTION('refdir',(1.,0.,0.));
#796=DIRECTION('axis',(0.,0.,1.));
#797=DIRECTION('refdir',(1.,0.,0.));
#798=DIRECTION('center_axis',(0.,1.,0.));
#799=DIRECTION('ref_axis',(0.,0.,1.));
#800=DIRECTION('center_axis',(0.,1.,0.));
#801=DIRECTION('ref_axis',(0.,0.,1.));
#802=DIRECTION('',(0.,1.,0.));
#803=DIRECTION('center_axis',(0.,1.,0.));
#804=DIRECTION('ref_axis',(0.,0.,1.));
#805=DIRECTION('center_axis',(0.,-1.,0.));
#806=DIRECTION('ref_axis',(0.,0.,-1.));
#807=DIRECTION('center_axis',(0.,1.,0.));
#808=DIRECTION('ref_axis',(0.,0.,1.));
#809=DIRECTION('',(0.,1.,0.));
#810=DIRECTION('center_axis',(0.,1.,0.));
#811=DIRECTION('ref_axis',(0.,0.,1.));
#812=DIRECTION('center_axis',(0.,1.,0.));
#813=DIRECTION('ref_axis',(0.,0.,1.));
#814=DIRECTION('center_axis',(0.,1.,0.));
#815=DIRECTION('ref_axis',(0.,0.,1.));
#816=DIRECTION('axis',(0.,0.,1.));
#817=DIRECTION('refdir',(1.,0.,0.));
#818=DIRECTION('center_axis',(0.,-1.,1.54420742354709E-17));
#819=DIRECTION('ref_axis',(0.,-1.54420742354709E-17,-1.));
#820=DIRECTION('center_axis',(0.,-1.,1.54420742354709E-17));
#821=DIRECTION('ref_axis',(0.,-1.54420742354709E-17,-1.));
#822=DIRECTION('',(-8.65956056235478E-17,-0.70710678118656,0.707106781186535));
#823=DIRECTION('center_axis',(0.,1.,-1.54420742354709E-17));
#824=DIRECTION('ref_axis',(0.,-1.54420742354709E-17,-1.));
#825=DIRECTION('center_axis',(0.,-1.,1.54420742354709E-17));
#826=DIRECTION('ref_axis',(0.,-1.54420742354709E-17,-1.));
#827=DIRECTION('center_axis',(0.,-1.,1.54420742354709E-17));
#828=DIRECTION('ref_axis',(0.,-1.54420742354709E-17,-1.));
#829=DIRECTION('',(0.,-1.,1.54420742354709E-17));
#830=DIRECTION('center_axis',(0.,1.,0.));
#831=DIRECTION('ref_axis',(0.,0.,1.));
#832=DIRECTION('center_axis',(0.,1.,0.));
#833=DIRECTION('ref_axis',(0.,0.,1.));
#834=DIRECTION('center_axis',(0.,1.,0.));
#835=DIRECTION('ref_axis',(0.,0.,1.));
#836=DIRECTION('',(-8.65956056235493E-17,0.707106781186548,-0.707106781186547));
#837=DIRECTION('center_axis',(0.,-1.,1.54420742354709E-17));
#838=DIRECTION('ref_axis',(0.,1.54420742354709E-17,1.));
#839=DIRECTION('center_axis',(0.,-1.,0.));
#840=DIRECTION('ref_axis',(0.,0.,-1.));
#841=DIRECTION('center_axis',(0.,-1.,0.));
#842=DIRECTION('ref_axis',(0.,0.,-1.));
#843=DIRECTION('',(-8.65956056235511E-17,-0.707106781186533,0.707106781186562));
#844=DIRECTION('center_axis',(0.,1.,-1.54420742354709E-17));
#845=DIRECTION('ref_axis',(0.,-1.54420742354709E-17,-1.));
#846=DIRECTION('center_axis',(0.,1.,0.));
#847=DIRECTION('ref_axis',(0.,0.,1.));
#848=DIRECTION('center_axis',(0.,1.,0.));
#849=DIRECTION('ref_axis',(0.,0.,1.));
#850=DIRECTION('center_axis',(0.,1.,0.));
#851=DIRECTION('ref_axis',(0.,0.,1.));
#852=DIRECTION('',(-8.65956056235492E-17,0.707106781186548,-0.707106781186547));
#853=DIRECTION('center_axis',(0.,-1.,1.54420742354709E-17));
#854=DIRECTION('ref_axis',(0.,1.54420742354709E-17,1.));
#855=DIRECTION('center_axis',(0.,-1.,0.));
#856=DIRECTION('ref_axis',(0.,0.,-1.));
#857=DIRECTION('center_axis',(0.,-1.,0.));
#858=DIRECTION('ref_axis',(0.,0.,-1.));
#859=DIRECTION('',(-8.65956056235506E-17,-0.707106781186537,0.707106781186558));
#860=DIRECTION('center_axis',(0.,1.,-1.54420742354709E-17));
#861=DIRECTION('ref_axis',(0.,-1.54420742354709E-17,-1.));
#862=DIRECTION('center_axis',(0.,1.,0.));
#863=DIRECTION('ref_axis',(0.,0.,1.));
#864=DIRECTION('center_axis',(0.,1.,0.));
#865=DIRECTION('ref_axis',(0.,0.,1.));
#866=DIRECTION('center_axis',(0.,1.,0.));
#867=DIRECTION('ref_axis',(0.,0.,1.));
#868=DIRECTION('',(-8.65956056235477E-17,0.707106781186561,-0.707106781186534));
#869=DIRECTION('center_axis',(0.,-1.,1.54420742354709E-17));
#870=DIRECTION('ref_axis',(0.,1.54420742354709E-17,1.));
#871=DIRECTION('center_axis',(0.,-1.,0.));
#872=DIRECTION('ref_axis',(0.,0.,-1.));
#873=DIRECTION('center_axis',(0.,-1.,0.));
#874=DIRECTION('ref_axis',(0.,0.,-1.));
#875=DIRECTION('',(-8.65956056235497E-17,-0.707106781186545,0.707106781186551));
#876=DIRECTION('center_axis',(0.,1.,-1.54420742354709E-17));
#877=DIRECTION('ref_axis',(0.,-1.54420742354709E-17,-1.));
#878=DIRECTION('center_axis',(0.,1.,0.));
#879=DIRECTION('ref_axis',(0.,0.,1.));
#880=DIRECTION('center_axis',(0.,1.,0.));
#881=DIRECTION('ref_axis',(0.,0.,1.));
#882=DIRECTION('center_axis',(0.,1.,0.));
#883=DIRECTION('ref_axis',(0.,0.,1.));
#884=DIRECTION('',(-8.65956056235488E-17,0.707106781186552,-0.707106781186543));
#885=DIRECTION('center_axis',(0.,-1.,1.54420742354709E-17));
#886=DIRECTION('ref_axis',(0.,1.54420742354709E-17,1.));
#887=DIRECTION('center_axis',(0.,-1.,0.));
#888=DIRECTION('ref_axis',(0.,0.,-1.));
#889=DIRECTION('center_axis',(0.,-1.,0.));
#890=DIRECTION('ref_axis',(0.,0.,-1.));
#891=DIRECTION('',(-8.65956056235497E-17,-0.707106781186545,0.707106781186551));
#892=DIRECTION('center_axis',(0.,1.,-1.54420742354709E-17));
#893=DIRECTION('ref_axis',(0.,-1.54420742354709E-17,-1.));
#894=DIRECTION('center_axis',(0.,1.,0.));
#895=DIRECTION('ref_axis',(0.,0.,1.));
#896=DIRECTION('center_axis',(0.,1.,0.));
#897=DIRECTION('ref_axis',(0.,0.,1.));
#898=DIRECTION('center_axis',(0.,1.,0.));
#899=DIRECTION('ref_axis',(0.,0.,1.));
#900=DIRECTION('',(-8.65956056235481E-17,0.707106781186558,-0.707106781186537));
#901=DIRECTION('center_axis',(0.,-1.,1.54420742354709E-17));
#902=DIRECTION('ref_axis',(0.,1.54420742354709E-17,1.));
#903=DIRECTION('center_axis',(0.,-1.,0.));
#904=DIRECTION('ref_axis',(0.,0.,-1.));
#905=DIRECTION('center_axis',(0.,-1.,0.));
#906=DIRECTION('ref_axis',(0.,0.,-1.));
#907=DIRECTION('',(-8.6595605623549E-17,-0.707106781186551,0.707106781186545));
#908=DIRECTION('center_axis',(0.,1.,-1.54420742354709E-17));
#909=DIRECTION('ref_axis',(0.,-1.54420742354709E-17,-1.));
#910=DIRECTION('center_axis',(0.,1.,0.));
#911=DIRECTION('ref_axis',(0.,0.,1.));
#912=DIRECTION('center_axis',(0.,1.,0.));
#913=DIRECTION('ref_axis',(0.,0.,1.));
#914=DIRECTION('center_axis',(0.,1.,0.));
#915=DIRECTION('ref_axis',(0.,0.,1.));
#916=DIRECTION('',(-8.65956056235477E-17,0.707106781186561,-0.707106781186534));
#917=DIRECTION('center_axis',(0.,-1.,1.54420742354709E-17));
#918=DIRECTION('ref_axis',(0.,1.54420742354709E-17,1.));
#919=DIRECTION('center_axis',(0.,-1.,0.));
#920=DIRECTION('ref_axis',(0.,0.,-1.));
#921=DIRECTION('center_axis',(0.,-1.,0.));
#922=DIRECTION('ref_axis',(0.,0.,-1.));
#923=DIRECTION('',(-8.65956056235497E-17,-0.707106781186545,0.707106781186551));
#924=DIRECTION('center_axis',(0.,1.,-1.54420742354709E-17));
#925=DIRECTION('ref_axis',(0.,-1.54420742354709E-17,-1.));
#926=DIRECTION('center_axis',(0.,1.,-1.54420742354709E-17));
#927=DIRECTION('ref_axis',(0.,1.54420742354709E-17,1.));
#928=DIRECTION('center_axis',(0.,1.,-1.54420742354709E-17));
#929=DIRECTION('ref_axis',(0.,-1.54420742354709E-17,-1.));
#930=DIRECTION('',(8.65956056235482E-17,-0.707106781186557,0.707106781186538));
#931=DIRECTION('center_axis',(0.,-1.,1.54420742354709E-17));
#932=DIRECTION('ref_axis',(0.,-1.54420742354709E-17,-1.));
#933=DIRECTION('center_axis',(0.,-1.,1.54420742354711E-17));
#934=DIRECTION('ref_axis',(0.500000000000001,1.33732285750431E-17,0.866025403784438));
#935=DIRECTION('center_axis',(0.,1.,-1.54420742354709E-17));
#936=DIRECTION('ref_axis',(0.,1.54420742354709E-17,1.));
#937=DIRECTION('',(0.353626401105209,0.706960730002408,0.612498893611932));
#938=DIRECTION('center_axis',(0.,-1.,1.54420742354711E-17));
#939=DIRECTION('ref_axis',(0.,1.54420742354711E-17,1.));
#940=DIRECTION('center_axis',(0.,-1.,1.54420742354711E-17));
#941=DIRECTION('ref_axis',(0.,1.54420742354711E-17,1.));
#942=DIRECTION('',(-0.353626401105202,-0.7069607300024,-0.612498893611945));
#943=DIRECTION('center_axis',(0.,-1.,1.54420742354709E-17));
#944=DIRECTION('ref_axis',(0.,-1.54420742354709E-17,-1.));
#945=DIRECTION('',(0.,-1.,1.54420742354709E-17));
#946=DIRECTION('center_axis',(0.,-1.,1.54420742354709E-17));
#947=DIRECTION('ref_axis',(0.,-1.54420742354709E-17,-1.));
#948=DIRECTION('',(0.,-1.,1.54420742354709E-17));
#949=DIRECTION('center_axis',(0.,-1.,1.54420742354709E-17));
#950=DIRECTION('ref_axis',(0.,-1.54420742354709E-17,-1.));
#951=DIRECTION('',(0.,-1.,1.54420742354709E-17));
#952=DIRECTION('center_axis',(3.08148791101958E-33,-1.,1.54420742354709E-17));
#953=DIRECTION('ref_axis',(4.75845650776704E-50,-1.54420742354709E-17,-1.));
#954=DIRECTION('',(3.08148791101958E-33,-1.,1.54420742354709E-17));
#955=DIRECTION('center_axis',(0.,-1.,1.54420742354709E-17));
#956=DIRECTION('ref_axis',(0.,-1.54420742354709E-17,-1.));
#957=DIRECTION('',(0.,-1.,1.54420742354709E-17));
#958=DIRECTION('center_axis',(0.,-1.,1.54420742354709E-17));
#959=DIRECTION('ref_axis',(0.,-1.54420742354709E-17,-1.));
#960=DIRECTION('',(0.,-1.,1.54420742354709E-17));
#961=DIRECTION('center_axis',(0.,1.,-1.54420742354709E-17));
#962=DIRECTION('ref_axis',(0.,1.54420742354709E-17,1.));
#963=DIRECTION('center_axis',(0.,1.,-1.54420742354709E-17));
#964=DIRECTION('ref_axis',(0.,1.54420742354709E-17,1.));
#965=DIRECTION('',(-4.18853873767702E-17,0.939692620785907,-0.342020143325671));
#966=DIRECTION('center_axis',(0.,1.,-1.54420742354709E-17));
#967=DIRECTION('ref_axis',(0.,1.54420742354709E-17,1.));
#968=DIRECTION('center_axis',(0.,1.,-1.54420742354709E-17));
#969=DIRECTION('ref_axis',(0.,1.54420742354709E-17,1.));
#970=DIRECTION('center_axis',(0.,-1.,1.54420742354709E-17));
#971=DIRECTION('ref_axis',(0.,-1.54420742354709E-17,-1.));
#972=DIRECTION('center_axis',(0.,1.,-1.54420742354709E-17));
#973=DIRECTION('ref_axis',(0.,1.54420742354709E-17,1.));
#974=DIRECTION('',(1.15079156022785E-16,0.342020143325673,-0.939692620785907));
#975=DIRECTION('center_axis',(0.,1.,-1.54420742354709E-17));
#976=DIRECTION('ref_axis',(0.,1.54420742354709E-17,1.));
#977=DIRECTION('center_axis',(0.,1.,-1.54420742354709E-17));
#978=DIRECTION('ref_axis',(0.,1.54420742354709E-17,1.));
#979=DIRECTION('',(0.,1.,-1.54420742354709E-17));
#980=DIRECTION('center_axis',(0.,1.,-1.54420742354709E-17));
#981=DIRECTION('ref_axis',(0.,1.54420742354709E-17,1.));
#982=DIRECTION('',(0.,1.,-1.54420742354709E-17));
#983=DIRECTION('center_axis',(0.,-1.,0.));
#984=DIRECTION('ref_axis',(0.,0.,-1.));
#985=DIRECTION('',(0.,-1.,1.54420742354709E-17));
#986=DIRECTION('center_axis',(0.,1.,-1.54420742354709E-17));
#987=DIRECTION('ref_axis',(0.,1.54420742354709E-17,1.));
#988=DIRECTION('center_axis',(0.,1.,-1.54420742354709E-17));
#989=DIRECTION('ref_axis',(0.,1.54420742354709E-17,1.));
#990=DIRECTION('',(0.,-1.,1.54420742354709E-17));
#991=DIRECTION('',(0.,1.,-1.54420742354709E-17));
#992=DIRECTION('center_axis',(0.,1.,0.));
#993=DIRECTION('ref_axis',(8.88178419700125E-16,0.,-1.));
#994=DIRECTION('',(0.,-1.,1.54420742354709E-17));
#995=DIRECTION('center_axis',(0.,1.,-1.54420742354709E-17));
#996=DIRECTION('ref_axis',(0.,1.54420742354709E-17,1.));
#997=DIRECTION('center_axis',(0.,1.,-1.54420742354709E-17));
#998=DIRECTION('ref_axis',(0.,-1.54420742354709E-17,-1.));
#999=DIRECTION('',(0.,1.,-1.54420742354709E-17));
#1000=DIRECTION('center_axis',(0.,1.,-1.54420742354709E-17));
#1001=DIRECTION('ref_axis',(0.,1.54420742354709E-17,1.));
#1002=DIRECTION('center_axis',(0.,-1.,1.54420742354709E-17));
#1003=DIRECTION('ref_axis',(0.,-1.54420742354709E-17,-1.));
#1004=DIRECTION('center_axis',(0.,1.,-1.54420742354709E-17));
#1005=DIRECTION('ref_axis',(0.,1.54420742354709E-17,1.));
#1006=DIRECTION('',(0.5,0.,0.866025403784439));
#1007=DIRECTION('',(-0.5,0.,-0.866025403784439));
#1008=DIRECTION('center_axis',(0.,1.,-1.54420742354709E-17));
#1009=DIRECTION('ref_axis',(0.,1.54420742354709E-17,1.));
#1010=DIRECTION('center_axis',(-0.866025403784439,7.72103711773544E-18,
0.5));
#1011=DIRECTION('ref_axis',(0.5,-3.85185988877447E-34,0.866025403784439));
#1012=DIRECTION('',(0.5,0.,0.866025403784439));
#1013=DIRECTION('center_axis',(0.866025403784439,-7.72103711773544E-18,
-0.5));
#1014=DIRECTION('ref_axis',(-0.5,3.85185988877447E-34,-0.866025403784439));
#1015=DIRECTION('',(-0.5,0.,-0.866025403784439));
#1016=DIRECTION('center_axis',(0.,-1.,0.));
#1017=DIRECTION('ref_axis',(0.,0.,-1.));
#1018=DIRECTION('center_axis',(0.,-1.,1.54420742354709E-17));
#1019=DIRECTION('ref_axis',(0.,-1.54420742354709E-17,-1.));
#1020=DIRECTION('',(0.,0.,1.));
#1021=DIRECTION('',(1.,0.,0.));
#1022=DIRECTION('',(0.,0.,1.));
#1023=DIRECTION('',(1.,0.,0.));
#1024=CARTESIAN_POINT('',(0.,0.,0.));
#1025=CARTESIAN_POINT('',(0.,0.,0.));
#1026=CARTESIAN_POINT('Origin',(0.,0.,0.));
#1027=CARTESIAN_POINT('',(-2.47990976827339E-15,0.,-20.25));
#1028=CARTESIAN_POINT('Origin',(0.,0.,0.));
#1029=CARTESIAN_POINT('',(-2.47990976827339E-15,57.4,-20.25));
#1030=CARTESIAN_POINT('',(-2.47990976827339E-15,0.,-20.25));
#1031=CARTESIAN_POINT('Origin',(0.,57.4,0.));
#1032=CARTESIAN_POINT('Origin',(0.,57.4,0.));
#1033=CARTESIAN_POINT('',(-2.72483912810286E-15,0.,22.25));
#1034=CARTESIAN_POINT('Origin',(0.,0.,0.));
#1035=CARTESIAN_POINT('',(-2.72483912810286E-15,57.4,22.25));
#1036=CARTESIAN_POINT('',(-2.72483912810286E-15,57.4,22.25));
#1037=CARTESIAN_POINT('Origin',(0.,57.4,0.));
#1038=CARTESIAN_POINT('Origin',(0.,57.4,0.));
#1039=CARTESIAN_POINT('Origin',(0.,0.,0.));
#1040=CARTESIAN_POINT('',(0.,0.,0.));
#1041=CARTESIAN_POINT('Origin',(0.,0.299999999999996,-4.63262227064119E-18));
#1042=CARTESIAN_POINT('',(-2.73708559609433E-15,0.299999999999998,22.35));
#1043=CARTESIAN_POINT('Origin',(0.,0.299999999999996,-4.63262227064119E-18));
#1044=CARTESIAN_POINT('',(-2.77382500006875E-15,-2.15105711021124E-15,22.65));
#1045=CARTESIAN_POINT('',(-2.73708559609433E-15,0.299999999999996,22.35));
#1046=CARTESIAN_POINT('Origin',(0.,-2.43864064409175E-15,4.59331500894903E-32));
#1047=CARTESIAN_POINT('Origin',(0.,7.4,-1.14271349342485E-16));
#1048=CARTESIAN_POINT('',(-2.73708559609433E-15,7.4,22.35));
#1049=CARTESIAN_POINT('Origin',(0.,7.4,-1.14271349342485E-16));
#1050=CARTESIAN_POINT('',(-2.73708559609433E-15,7.4,22.35));
#1051=CARTESIAN_POINT('Origin',(-25.4178456010731,12.7,14.6750000000003));
#1052=CARTESIAN_POINT('',(-25.4178456010731,12.4,18.0250000000003));
#1053=CARTESIAN_POINT('',(-25.4178456010731,12.4,11.3250000000003));
#1054=CARTESIAN_POINT('Origin',(-25.4178456010731,12.4,14.6750000000003));
#1055=CARTESIAN_POINT('Origin',(-25.4178456010731,12.4,14.6750000000003));
#1056=CARTESIAN_POINT('',(-25.4178456010731,12.7,11.0250000000003));
#1057=CARTESIAN_POINT('',(-25.4178456010731,12.7,11.0250000000003));
#1058=CARTESIAN_POINT('Origin',(-25.4178456010731,12.7,14.6750000000003));
#1059=CARTESIAN_POINT('Origin',(-25.4178456010731,0.30000000000001,14.6750000000003));
#1060=CARTESIAN_POINT('',(-25.4178456010731,0.300000000000011,18.0250000000003));
#1061=CARTESIAN_POINT('Origin',(-25.4178456010731,0.30000000000001,14.6750000000003));
#1062=CARTESIAN_POINT('',(-25.4178456010731,-2.8796409701215E-15,18.3250000000003));
#1063=CARTESIAN_POINT('',(-25.4178456010731,0.30000000000001,18.0250000000003));
#1064=CARTESIAN_POINT('Origin',(-25.4178456010731,-2.21202820468621E-15,
14.6750000000003));
#1065=CARTESIAN_POINT('Origin',(-25.4178456010734,12.7,-14.6749999999998));
#1066=CARTESIAN_POINT('',(-25.4178456010734,12.4,-11.3249999999998));
#1067=CARTESIAN_POINT('',(-25.4178456010734,12.4,-18.0249999999998));
#1068=CARTESIAN_POINT('Origin',(-25.4178456010734,12.4,-14.6749999999998));
#1069=CARTESIAN_POINT('Origin',(-25.4178456010734,12.4,-14.6749999999998));
#1070=CARTESIAN_POINT('',(-25.4178456010734,12.7,-18.3249999999998));
#1071=CARTESIAN_POINT('',(-25.4178456010734,12.7,-18.3249999999998));
#1072=CARTESIAN_POINT('Origin',(-25.4178456010734,12.7,-14.6749999999998));
#1073=CARTESIAN_POINT('Origin',(-25.4178456010734,0.30000000000001,-14.6749999999998));
#1074=CARTESIAN_POINT('',(-25.4178456010734,0.300000000000011,-11.3249999999998));
#1075=CARTESIAN_POINT('Origin',(-25.4178456010734,0.30000000000001,-14.6749999999998));
#1076=CARTESIAN_POINT('',(-25.4178456010734,-3.40005801291454E-15,-11.0249999999997));
#1077=CARTESIAN_POINT('',(-25.4178456010734,0.30000000000001,-11.3249999999998));
#1078=CARTESIAN_POINT('Origin',(-25.4178456010734,-2.66525308349728E-15,
-14.6749999999998));
#1079=CARTESIAN_POINT('Origin',(-2.04950073297121E-13,12.7,-29.35));
#1080=CARTESIAN_POINT('',(-2.04539816619406E-13,12.4,-26.));
#1081=CARTESIAN_POINT('',(-2.05360329974835E-13,12.4,-32.7));
#1082=CARTESIAN_POINT('Origin',(-2.04950073297121E-13,12.4,-29.35));
#1083=CARTESIAN_POINT('Origin',(-2.04950073297121E-13,12.4,-29.35));
#1084=CARTESIAN_POINT('',(-2.0539706937881E-13,12.7,-33.));
#1085=CARTESIAN_POINT('',(-2.0539706937881E-13,12.7,-33.));
#1086=CARTESIAN_POINT('Origin',(-2.04950073297121E-13,12.7,-29.35));
#1087=CARTESIAN_POINT('Origin',(-2.04950073297121E-13,0.30000000000001,
-29.35));
#1088=CARTESIAN_POINT('',(-2.05360329974835E-13,0.300000000000011,-26.));
#1089=CARTESIAN_POINT('Origin',(-2.04950073297121E-13,0.30000000000001,
-29.35));
#1090=CARTESIAN_POINT('',(-2.0539706937881E-13,-3.15719672627779E-15,-25.7));
#1091=CARTESIAN_POINT('',(-2.05360329974835E-13,0.30000000000001,-26.));
#1092=CARTESIAN_POINT('Origin',(-2.04950073297121E-13,-2.89186552290282E-15,
-29.35));
#1093=CARTESIAN_POINT('Origin',(25.4178456010732,12.7,-14.6750000000001));
#1094=CARTESIAN_POINT('',(25.4178456010732,12.4,-11.3250000000001));
#1095=CARTESIAN_POINT('',(25.4178456010732,12.4,-18.0250000000001));
#1096=CARTESIAN_POINT('Origin',(25.4178456010732,12.4,-14.6750000000001));
#1097=CARTESIAN_POINT('Origin',(25.4178456010732,12.4,-14.6750000000001));
#1098=CARTESIAN_POINT('',(25.4178456010732,12.7,-18.3250000000001));
#1099=CARTESIAN_POINT('',(25.4178456010732,12.7,-18.3250000000001));
#1100=CARTESIAN_POINT('Origin',(25.4178456010732,12.7,-14.6750000000001));
#1101=CARTESIAN_POINT('Origin',(25.4178456010732,0.30000000000001,-14.6750000000001));
#1102=CARTESIAN_POINT('',(25.4178456010732,0.300000000000011,-11.3250000000001));
#1103=CARTESIAN_POINT('Origin',(25.4178456010732,0.30000000000001,-14.6750000000001));
#1104=CARTESIAN_POINT('',(25.4178456010732,-3.12250225675825E-15,-11.0250000000001));
#1105=CARTESIAN_POINT('',(25.4178456010732,0.30000000000001,-11.3250000000001));
#1106=CARTESIAN_POINT('Origin',(25.4178456010732,-2.66525308349729E-15,
-14.6750000000001));
#1107=CARTESIAN_POINT('Origin',(25.4178456010733,12.7,14.6749999999999));
#1108=CARTESIAN_POINT('',(25.4178456010733,12.4,18.0249999999999));
#1109=CARTESIAN_POINT('',(25.4178456010733,12.4,11.3249999999999));
#1110=CARTESIAN_POINT('Origin',(25.4178456010733,12.4,14.6749999999999));
#1111=CARTESIAN_POINT('Origin',(25.4178456010733,12.4,14.6749999999999));
#1112=CARTESIAN_POINT('',(25.4178456010733,12.7,11.025));
#1113=CARTESIAN_POINT('',(25.4178456010733,12.7,11.025));
#1114=CARTESIAN_POINT('Origin',(25.4178456010733,12.7,14.6749999999999));
#1115=CARTESIAN_POINT('Origin',(25.4178456010733,0.299999999999996,14.6749999999999));
#1116=CARTESIAN_POINT('',(25.4178456010733,0.299999999999997,18.0249999999999));
#1117=CARTESIAN_POINT('Origin',(25.4178456010733,0.299999999999996,14.6749999999999));
#1118=CARTESIAN_POINT('',(25.4178456010733,-1.42247325030098E-15,18.3249999999999));
#1119=CARTESIAN_POINT('',(25.4178456010733,0.299999999999996,18.0249999999999));
#1120=CARTESIAN_POINT('Origin',(25.4178456010733,-2.21202820468622E-15,
14.6749999999999));
#1121=CARTESIAN_POINT('Origin',(0.,12.7,29.35));
#1122=CARTESIAN_POINT('',(4.10256677714363E-16,12.4,32.7));
#1123=CARTESIAN_POINT('',(-4.10256677714363E-16,12.4,26.));
#1124=CARTESIAN_POINT('Origin',(0.,12.4,29.35));
#1125=CARTESIAN_POINT('Origin',(0.,12.4,29.35));
#1126=CARTESIAN_POINT('',(-4.46996081688781E-16,12.7,25.7));
#1127=CARTESIAN_POINT('',(-4.46996081688781E-16,12.7,25.7));
#1128=CARTESIAN_POINT('Origin',(0.,12.7,29.35));
#1129=CARTESIAN_POINT('Origin',(0.,0.30000000000001,29.35));
#1130=CARTESIAN_POINT('',(-4.10256677714363E-16,0.300000000000011,32.7));
#1131=CARTESIAN_POINT('Origin',(0.,0.30000000000001,29.35));
#1132=CARTESIAN_POINT('',(-4.46996081688786E-16,-2.70616862252382E-15,33.));
#1133=CARTESIAN_POINT('',(-4.10256677714363E-16,0.30000000000001,32.7));
#1134=CARTESIAN_POINT('Origin',(0.,-1.98541576528068E-15,29.35));
#1135=CARTESIAN_POINT('Origin',(0.,0.400000000000001,-4.90936129463235E-16));
#1136=CARTESIAN_POINT('',(-4.28626379701574E-15,0.400000000000002,-35.));
#1137=CARTESIAN_POINT('Origin',(0.,0.400000000000001,-4.90936129463235E-16));
#1138=CARTESIAN_POINT('',(-4.23727792504984E-15,-1.38777878078145E-15,-34.6));
#1139=CARTESIAN_POINT('',(-4.28626379701574E-15,0.4,-35.));
#1140=CARTESIAN_POINT('Origin',(0.,-2.43864064409175E-15,-4.84759299769047E-16));
#1141=CARTESIAN_POINT('Origin',(0.,12.7,-6.80873642559527E-16));
#1142=CARTESIAN_POINT('',(-18.1587984607583,12.7,-29.4519615384368));
#1143=CARTESIAN_POINT('',(-16.4267476531894,12.7,-30.4519615384368));
#1144=CARTESIAN_POINT('Origin',(0.,12.7,-6.80873642559527E-16));
#1145=CARTESIAN_POINT('',(-18.3588810883204,12.3,-29.7985148150862));
#1146=CARTESIAN_POINT('',(-18.3588810883204,12.3,-29.7985148150862));
#1147=CARTESIAN_POINT('',(-4.28626379701574E-15,12.3,-35.));
#1148=CARTESIAN_POINT('Origin',(0.,12.3,-6.74696812865339E-16));
#1149=CARTESIAN_POINT('',(-16.6268302807515,12.3,-30.7985148150862));
#1150=CARTESIAN_POINT('Origin',(0.,12.3,-6.74696812865339E-16));
#1151=CARTESIAN_POINT('',(-16.4267476531894,12.7,-30.4519615384368));
#1152=CARTESIAN_POINT('Origin',(-25.4178456010731,12.7,14.6750000000003));
#1153=CARTESIAN_POINT('',(-25.4178456010731,12.7,18.0250000000003));
#1154=CARTESIAN_POINT('Origin',(-25.4178456010734,12.7,-14.6749999999998));
#1155=CARTESIAN_POINT('',(-25.4178456010734,12.7,-11.3249999999998));
#1156=CARTESIAN_POINT('Origin',(-2.04950073297121E-13,12.7,-29.35));
#1157=CARTESIAN_POINT('',(-2.05360329974835E-13,12.7,-26.));
#1158=CARTESIAN_POINT('Origin',(25.4178456010732,12.7,-14.6750000000001));
#1159=CARTESIAN_POINT('',(25.4178456010732,12.7,-11.3250000000001));
#1160=CARTESIAN_POINT('Origin',(25.4178456010733,12.7,14.6749999999999));
#1161=CARTESIAN_POINT('',(25.4178456010733,12.7,18.0249999999999));
#1162=CARTESIAN_POINT('Origin',(0.,12.7,29.35));
#1163=CARTESIAN_POINT('',(-4.10256677714363E-16,12.7,32.7));
#1164=CARTESIAN_POINT('Origin',(0.,11.5,-6.62343153476962E-16));
#1165=CARTESIAN_POINT('',(-2.53889094527096E-15,11.5,-20.7316178594403));
#1166=CARTESIAN_POINT('Origin',(0.,11.5,-6.62343153476962E-16));
#1167=CARTESIAN_POINT('',(-2.5656350442137E-15,12.1,-20.95));
#1168=CARTESIAN_POINT('',(-2.53889094527096E-15,11.5,-20.7316178594403));
#1169=CARTESIAN_POINT('',(2.76310934057622E-15,12.1,20.95));
#1170=CARTESIAN_POINT('Origin',(0.,12.1,-6.71608398018245E-16));
#1171=CARTESIAN_POINT('Origin',(0.,12.1,-6.71608398018245E-16));
#1172=CARTESIAN_POINT('Origin',(0.,12.1,-6.71608398018245E-16));
#1173=CARTESIAN_POINT('',(2.96058363693873E-15,10.9261959944915,-24.175));
#1174=CARTESIAN_POINT('',(-2.96058363693873E-15,10.9261959944915,24.175));
#1175=CARTESIAN_POINT('Origin',(0.,10.9261959944915,-6.53482429427289E-16));
#1176=CARTESIAN_POINT('',(-2.5656350442137E-15,12.1,20.95));
#1177=CARTESIAN_POINT('Origin',(0.,10.9261959944915,-6.53482429427289E-16));
#1178=CARTESIAN_POINT('Origin',(0.,31.3921104365332,-9.69518599538093E-16));
#1179=CARTESIAN_POINT('',(-2.96058363693873E-15,12.7,-24.175));
#1180=CARTESIAN_POINT('',(-2.96058363693873E-15,31.3921104365332,-24.175));
#1181=CARTESIAN_POINT('',(-11.211128907145,12.7,-21.4182448773792));
#1182=CARTESIAN_POINT('Origin',(0.,12.7,-6.80873642559527E-16));
#1183=CARTESIAN_POINT('',(-11.211128907145,11.4,-21.4182448773792));
#1184=CARTESIAN_POINT('',(-11.211128907145,31.3921104365332,-21.4182448773792));
#1185=CARTESIAN_POINT('',(-12.9431797147139,11.4,-20.4182448773791));
#1186=CARTESIAN_POINT('Origin',(0.,11.4,-6.60798946053415E-16));
#1187=CARTESIAN_POINT('',(-12.9431797147139,12.7,-20.4182448773791));
#1188=CARTESIAN_POINT('',(-12.9431797147139,31.3921104365332,-20.4182448773792));
#1189=CARTESIAN_POINT('Origin',(0.,12.7,-6.80873642559527E-16));
#1190=CARTESIAN_POINT('Origin',(0.,31.3921104365332,-9.69518599538093E-16));
#1191=CARTESIAN_POINT('',(-4.28626379701574E-15,31.3921104365332,-35.));
#1192=CARTESIAN_POINT('',(-18.3588810883204,11.4,-29.7985148150862));
#1193=CARTESIAN_POINT('',(-18.3588810883204,31.3921104365332,-29.7985148150862));
#1194=CARTESIAN_POINT('',(-16.6268302807515,11.4,-30.7985148150862));
#1195=CARTESIAN_POINT('Origin',(0.,11.4,-6.60798946053415E-16));
#1196=CARTESIAN_POINT('',(-16.6268302807515,31.3921104365332,-30.7985148150862));
#1197=CARTESIAN_POINT('Origin',(0.,-3.46944695195361E-15,-4.84759299769047E-16));
#1198=CARTESIAN_POINT('',(-2.47990976827339E-15,7.4,-20.25));
#1199=CARTESIAN_POINT('Origin',(0.,7.4,-5.99030649111531E-16));
#1200=CARTESIAN_POINT('',(-2.47990976827339E-15,11.5,-20.25));
#1201=CARTESIAN_POINT('',(-2.47990976827339E-15,-3.7821489552219E-15,-20.25));
#1202=CARTESIAN_POINT('Origin',(0.,11.5,-6.62343153476962E-16));
#1203=CARTESIAN_POINT('Origin',(0.,-2.43864064409175E-15,3.76576698597013E-32));
#1204=CARTESIAN_POINT('Origin',(0.,12.7,35.));
#1205=CARTESIAN_POINT('',(-18.7780777094355,12.7,-30.5245846612189));
#1206=CARTESIAN_POINT('',(-17.0460269018667,12.7,-31.5245846612189));
#1207=CARTESIAN_POINT('Origin',(0.,11.5,20.7316178594403));
#1208=CARTESIAN_POINT('Origin',(-18.7780777094355,11.4,-30.5245846612189));
#1209=CARTESIAN_POINT('',(-18.7780777094355,11.4,-30.5245846612189));
#1210=CARTESIAN_POINT('Origin',(-17.0460269018667,11.4,-31.5245846612189));
#1211=CARTESIAN_POINT('',(-17.0460269018667,11.4,-31.5245846612189));
#1212=CARTESIAN_POINT('Origin',(-12.7260463016631,11.4,-20.0421587739544));
#1213=CARTESIAN_POINT('Origin',(0.,7.4,-1.14271349342485E-16));
#1214=CARTESIAN_POINT('',(0.,0.,0.));
#1215=CARTESIAN_POINT('',(0.,50.,0.));
#1216=UNCERTAINTY_MEASURE_WITH_UNIT(LENGTH_MEASURE(0.01),#1224,
'DISTANCE_ACCURACY_VALUE',
'Maximum model space distance between geometric entities at asserted c
onnectivities');
#1217=UNCERTAINTY_MEASURE_WITH_UNIT(LENGTH_MEASURE(0.01),#1224,
'DISTANCE_ACCURACY_VALUE',
'Maximum model space distance between geometric entities at asserted c
onnectivities');
#1218=UNCERTAINTY_MEASURE_WITH_UNIT(LENGTH_MEASURE(0.01),#1224,
'DISTANCE_ACCURACY_VALUE',
'Maximum model space distance between geometric entities at asserted c
onnectivities');
#1219=UNCERTAINTY_MEASURE_WITH_UNIT(LENGTH_MEASURE(0.01),#1224,
'DISTANCE_ACCURACY_VALUE',
'Maximum model space distance between geometric entities at asserted c
onnectivities');
#1220=(
GEOMETRIC_REPRESENTATION_CONTEXT(3)
GLOBAL_UNCERTAINTY_ASSIGNED_CONTEXT((#1216))
GLOBAL_UNIT_ASSIGNED_CONTEXT((#1224,#1226,#1227))
REPRESENTATION_CONTEXT('','3D')
);
#1221=(
GEOMETRIC_REPRESENTATION_CONTEXT(3)
GLOBAL_UNCERTAINTY_ASSIGNED_CONTEXT((#1217))
GLOBAL_UNIT_ASSIGNED_CONTEXT((#1224,#1226,#1227))
REPRESENTATION_CONTEXT('','3D')
);
#1222=(
GEOMETRIC_REPRESENTATION_CONTEXT(3)
GLOBAL_UNCERTAINTY_ASSIGNED_CONTEXT((#1218))
GLOBAL_UNIT_ASSIGNED_CONTEXT((#1224,#1226,#1227))
REPRESENTATION_CONTEXT('','3D')
);
#1223=(
GEOMETRIC_REPRESENTATION_CONTEXT(3)
GLOBAL_UNCERTAINTY_ASSIGNED_CONTEXT((#1219))
GLOBAL_UNIT_ASSIGNED_CONTEXT((#1224,#1226,#1227))
REPRESENTATION_CONTEXT('','3D')
);
#1224=(
LENGTH_UNIT()
NAMED_UNIT(*)
SI_UNIT(.MILLI.,.METRE.)
);
#1225=(
LENGTH_UNIT()
NAMED_UNIT(*)
SI_UNIT($,.METRE.)
);
#1226=(
NAMED_UNIT(*)
PLANE_ANGLE_UNIT()
SI_UNIT($,.RADIAN.)
);
#1227=(
NAMED_UNIT(*)
SI_UNIT($,.STERADIAN.)
SOLID_ANGLE_UNIT()
);
#1228=SHAPE_DEFINITION_REPRESENTATION(#1231,#1236);
#1229=SHAPE_DEFINITION_REPRESENTATION(#1232,#1237);
#1230=SHAPE_DEFINITION_REPRESENTATION(#1233,#1238);
#1231=PRODUCT_DEFINITION_SHAPE('',$,#1240);
#1232=PRODUCT_DEFINITION_SHAPE('',$,#1241);
#1233=PRODUCT_DEFINITION_SHAPE('',$,#1242);
#1234=PRODUCT_DEFINITION_SHAPE($,$,#17);
#1235=PRODUCT_DEFINITION_SHAPE($,$,#18);
#1236=SHAPE_REPRESENTATION('',(#698,#792,#793),#1220);
#1237=SHAPE_REPRESENTATION('',(#699),#1221);
#1238=SHAPE_REPRESENTATION('',(#708),#1222);
#1239=PRODUCT_DEFINITION_CONTEXT('part definition',#1250,'design');
#1240=PRODUCT_DEFINITION('Hositrad_FO35-45-HalfNipple',
'Hositrad_FO35-45-HalfNipple v1',#1243,#1239);
#1241=PRODUCT_DEFINITION('Tube44','Tube44',#1244,#1239);
#1242=PRODUCT_DEFINITION('NW35CF-Weld-44','NW35CF-Weld-44',#1245,#1239);
#1243=PRODUCT_DEFINITION_FORMATION('',$,#1252);
#1244=PRODUCT_DEFINITION_FORMATION('',$,#1253);
#1245=PRODUCT_DEFINITION_FORMATION('',$,#1254);
#1246=PRODUCT_RELATED_PRODUCT_CATEGORY('Hositrad_FO35-45-HalfNipple v1',
'Hositrad_FO35-45-HalfNipple v1',(#1252));
#1247=PRODUCT_RELATED_PRODUCT_CATEGORY('Tube44','Tube44',(#1253));
#1248=PRODUCT_RELATED_PRODUCT_CATEGORY('NW35CF-Weld-44',
'NW35CF-Weld-44',(#1254));
#1249=APPLICATION_PROTOCOL_DEFINITION('international standard',
'automotive_design',2009,#1250);
#1250=APPLICATION_CONTEXT(
'Core Data for Automotive Mechanical Design Process');
#1251=PRODUCT_CONTEXT('part definition',#1250,'mechanical');
#1252=PRODUCT('Hositrad_FO35-45-HalfNipple',
'Hositrad_FO35-45-HalfNipple v1',$,(#1251));
#1253=PRODUCT('Tube44','Tube44',$,(#1251));
#1254=PRODUCT('NW35CF-Weld-44','NW35CF-Weld-44',$,(#1251));
#1255=PRESENTATION_STYLE_ASSIGNMENT((#1257));
#1256=PRESENTATION_STYLE_ASSIGNMENT((#1258));
#1257=SURFACE_STYLE_USAGE(.BOTH.,#1259);
#1258=SURFACE_STYLE_USAGE(.BOTH.,#1260);
#1259=SURFACE_SIDE_STYLE('',(#1261));
#1260=SURFACE_SIDE_STYLE('',(#1262));
#1261=SURFACE_STYLE_FILL_AREA(#1263);
#1262=SURFACE_STYLE_FILL_AREA(#1264);
#1263=FILL_AREA_STYLE('Steel - Satin',(#1265));
#1264=FILL_AREA_STYLE('Opaque(165,158,150)',(#1266));
#1265=FILL_AREA_STYLE_COLOUR('Steel - Satin',#1267);
#1266=FILL_AREA_STYLE_COLOUR('Opaque(165,158,150)',#1268);
#1267=COLOUR_RGB('Steel - Satin',0.627450980392157,0.627450980392157,0.627450980392157);
#1268=COLOUR_RGB('Opaque(165,158,150)',0.647058823529412,0.619607843137255,
0.588235294117647);
ENDSEC;
END-ISO-10303-21;
