ISO-10303-21;
HEADER;
/* Generated by software containing ST-Developer
 * from STEP Tools, Inc. (www.steptools.com) 
 */

FILE_DESCRIPTION(
/* description */ (''),
/* implementation_level */ '2;1');

FILE_NAME(
/* name */ 'Hositrad_HVP-ISO63 v1.step',
/* time_stamp */ '2024-06-25T14:23:11+02:00',
/* author */ (''),
/* organization */ (''),
/* preprocessor_version */ 'ST-DEVELOPER v20',
/* originating_system */ 'Autodesk Translation Framework v13.14.0.145',

/* authorisation */ '');

FILE_SCHEMA (('AUTOMOTIVE_DESIGN { 1 0 10303 214 3 1 1 }'));
ENDSEC;

DATA;
#10=MECHANICAL_DESIGN_GEOMETRIC_PRESENTATION_REPRESENTATION('',(#23,#24,
#25),#926);
#11=ITEM_DEFINED_TRANSFORMATION($,$,#387,#442);
#12=ITEM_DEFINED_TRANSFORMATION($,$,#427,#443);
#13=(
REPRESENTATION_RELATIONSHIP($,$,#940,#939)
REPRESENTATION_RELATIONSHIP_WITH_TRANSFORMATION(#11)
SHAPE_REPRESENTATION_RELATIONSHIP()
);
#14=(
REPRESENTATION_RELATIONSHIP($,$,#941,#939)
REPRESENTATION_RELATIONSHIP_WITH_TRANSFORMATION(#12)
SHAPE_REPRESENTATION_RELATIONSHIP()
);
#15=CONTEXT_DEPENDENT_SHAPE_REPRESENTATION(#13,#937);
#16=CONTEXT_DEPENDENT_SHAPE_REPRESENTATION(#14,#938);
#17=NEXT_ASSEMBLY_USAGE_OCCURRENCE('ISO63-HVP2500:1','ISO63-HVP2500:1',
'ISO63-HVP2500:1',#943,#944,'ISO63-HVP2500:1');
#18=NEXT_ASSEMBLY_USAGE_OCCURRENCE('Glass-76:1','Glass-76:1',
'Glass-76:1',#943,#945,'Glass-76:1');
#19=SHAPE_REPRESENTATION_RELATIONSHIP('SRR','None',#940,#21);
#20=SHAPE_REPRESENTATION_RELATIONSHIP('SRR','None',#941,#22);
#21=ADVANCED_BREP_SHAPE_REPRESENTATION('',(#26,#27),#924);
#22=ADVANCED_BREP_SHAPE_REPRESENTATION('',(#28),#925);
#23=STYLED_ITEM('',(#959),#26);
#24=STYLED_ITEM('',(#960),#27);
#25=STYLED_ITEM('',(#961),#28);
#26=MANIFOLD_SOLID_BREP('Body1',#360);
#27=MANIFOLD_SOLID_BREP('Body2',#361);
#28=MANIFOLD_SOLID_BREP('Body1',#362);
#29=FACE_BOUND('',#122,.T.);
#30=FACE_BOUND('',#124,.T.);
#31=FACE_BOUND('',#126,.T.);
#32=FACE_BOUND('',#128,.T.);
#33=FACE_BOUND('',#131,.T.);
#34=FACE_BOUND('',#133,.T.);
#35=FACE_BOUND('',#135,.T.);
#36=FACE_BOUND('',#143,.T.);
#37=PLANE('',#416);
#38=PLANE('',#417);
#39=PLANE('',#418);
#40=PLANE('',#419);
#41=PLANE('',#421);
#42=PLANE('',#422);
#43=PLANE('',#423);
#44=PLANE('',#439);
#45=PLANE('',#440);
#46=PLANE('',#441);
#47=CONICAL_SURFACE('',#409,36.,0.785398163397444);
#48=CONICAL_SURFACE('',#428,37.75,0.785398163397437);
#49=CONICAL_SURFACE('',#432,38.05,0.785398163397448);
#50=LINE('',#752,#62);
#51=LINE('',#758,#63);
#52=LINE('',#763,#64);
#53=LINE('',#769,#65);
#54=LINE('',#775,#66);
#55=LINE('',#779,#67);
#56=LINE('',#785,#68);
#57=LINE('',#790,#69);
#58=LINE('',#898,#70);
#59=LINE('',#904,#71);
#60=LINE('',#910,#72);
#61=LINE('',#913,#73);
#62=VECTOR('',#464,49.);
#63=VECTOR('',#471,47.5);
#64=VECTOR('',#478,43.);
#65=VECTOR('',#485,38.5);
#66=VECTOR('',#492,36.);
#67=VECTOR('',#497,36.);
#68=VECTOR('',#504,46.);
#69=VECTOR('',#511,47.5);
#70=VECTOR('',#542,37.75);
#71=VECTOR('',#549,38.05);
#72=VECTOR('',#556,35.9);
#73=VECTOR('',#561,38.05);
#74=CYLINDRICAL_SURFACE('',#394,49.);
#75=CYLINDRICAL_SURFACE('',#397,47.5);
#76=CYLINDRICAL_SURFACE('',#400,43.);
#77=CYLINDRICAL_SURFACE('',#403,38.5);
#78=CYLINDRICAL_SURFACE('',#406,36.);
#79=CYLINDRICAL_SURFACE('',#411,46.);
#80=CYLINDRICAL_SURFACE('',#414,47.5);
#81=CYLINDRICAL_SURFACE('',#435,35.9);
#82=CYLINDRICAL_SURFACE('',#438,38.05);
#83=TOROIDAL_SURFACE('',#390,47.5,1.5);
#84=TOROIDAL_SURFACE('',#424,41.,2.4);
#85=FACE_OUTER_BOUND('',#111,.T.);
#86=FACE_OUTER_BOUND('',#112,.T.);
#87=FACE_OUTER_BOUND('',#113,.T.);
#88=FACE_OUTER_BOUND('',#114,.T.);
#89=FACE_OUTER_BOUND('',#115,.T.);
#90=FACE_OUTER_BOUND('',#116,.T.);
#91=FACE_OUTER_BOUND('',#117,.T.);
#92=FACE_OUTER_BOUND('',#118,.T.);
#93=FACE_OUTER_BOUND('',#119,.T.);
#94=FACE_OUTER_BOUND('',#120,.T.);
#95=FACE_OUTER_BOUND('',#121,.T.);
#96=FACE_OUTER_BOUND('',#123,.T.);
#97=FACE_OUTER_BOUND('',#125,.T.);
#98=FACE_OUTER_BOUND('',#127,.T.);
#99=FACE_OUTER_BOUND('',#129,.T.);
#100=FACE_OUTER_BOUND('',#130,.T.);
#101=FACE_OUTER_BOUND('',#132,.T.);
#102=FACE_OUTER_BOUND('',#134,.T.);
#103=FACE_OUTER_BOUND('',#136,.T.);
#104=FACE_OUTER_BOUND('',#137,.T.);
#105=FACE_OUTER_BOUND('',#138,.T.);
#106=FACE_OUTER_BOUND('',#139,.T.);
#107=FACE_OUTER_BOUND('',#140,.T.);
#108=FACE_OUTER_BOUND('',#141,.T.);
#109=FACE_OUTER_BOUND('',#142,.T.);
#110=FACE_OUTER_BOUND('',#144,.T.);
#111=EDGE_LOOP('',(#246,#247,#248,#249));
#112=EDGE_LOOP('',(#250,#251,#252,#253));
#113=EDGE_LOOP('',(#254,#255,#256,#257));
#114=EDGE_LOOP('',(#258,#259,#260,#261));
#115=EDGE_LOOP('',(#262,#263,#264,#265,#266));
#116=EDGE_LOOP('',(#267,#268,#269,#270));
#117=EDGE_LOOP('',(#271,#272,#273,#274));
#118=EDGE_LOOP('',(#275,#276,#277,#278));
#119=EDGE_LOOP('',(#279,#280,#281,#282));
#120=EDGE_LOOP('',(#283,#284,#285,#286));
#121=EDGE_LOOP('',(#287));
#122=EDGE_LOOP('',(#288));
#123=EDGE_LOOP('',(#289));
#124=EDGE_LOOP('',(#290));
#125=EDGE_LOOP('',(#291));
#126=EDGE_LOOP('',(#292));
#127=EDGE_LOOP('',(#293,#294));
#128=EDGE_LOOP('',(#295));
#129=EDGE_LOOP('',(#296,#297,#298,#299));
#130=EDGE_LOOP('',(#300));
#131=EDGE_LOOP('',(#301));
#132=EDGE_LOOP('',(#302));
#133=EDGE_LOOP('',(#303));
#134=EDGE_LOOP('',(#304));
#135=EDGE_LOOP('',(#305));
#136=EDGE_LOOP('',(#306,#307,#308,#309));
#137=EDGE_LOOP('',(#310,#311,#312,#313,#314));
#138=EDGE_LOOP('',(#315,#316,#317,#318));
#139=EDGE_LOOP('',(#319,#320,#321,#322));
#140=EDGE_LOOP('',(#323,#324,#325,#326,#327));
#141=EDGE_LOOP('',(#328));
#142=EDGE_LOOP('',(#329));
#143=EDGE_LOOP('',(#330));
#144=EDGE_LOOP('',(#331));
#145=B_SPLINE_CURVE_WITH_KNOTS('',3,(#666,#667,#668,#669,#670,#671,#672,
#673,#674,#675,#676,#677,#678,#679,#680,#681,#682,#683,#684,#685,#686,#687,
#688,#689,#690,#691,#692,#693,#694,#695,#696,#697,#698,#699,#700,#701,#702),
 .UNSPECIFIED.,.F.,.F.,(4,3,3,3,3,3,3,3,3,3,3,3,4),(0.,0.000839428429947022,
0.00167885685989405,0.00251828528984107,0.00335771371978809,0.00419714214973512,
0.00457078893117029,0.0049276614049494,0.00503558795946072,0.00506711637275344,
0.00524027625079562,0.00541390044048336,0.00550644933320252),
 .UNSPECIFIED.);
#146=B_SPLINE_CURVE_WITH_KNOTS('',3,(#705,#706,#707,#708,#709,#710,#711,
#712,#713,#714,#715,#716,#717,#718,#719,#720,#721,#722,#723,#724,#725,#726,
#727,#728,#729,#730,#731,#732,#733,#734,#735,#736,#737,#738,#739,#740,#741),
 .UNSPECIFIED.,.F.,.F.,(4,3,3,3,3,3,3,3,3,3,3,3,4),(0.,0.000839428429947022,
0.00167885685989405,0.00251828528984107,0.00335771371978809,0.00419714214973512,
0.00457078893116718,0.00492766140494489,0.00503558795946073,0.00506711637275349,
0.0052402762507967,0.00541390044048501,0.00550644933320252),
 .UNSPECIFIED.);
#147=CIRCLE('',#388,43.);
#148=CIRCLE('',#389,41.);
#149=CIRCLE('',#391,47.5);
#150=CIRCLE('',#392,1.5);
#151=CIRCLE('',#393,47.5);
#152=CIRCLE('',#395,49.);
#153=CIRCLE('',#396,49.);
#154=CIRCLE('',#398,47.5);
#155=CIRCLE('',#399,47.5);
#156=CIRCLE('',#401,43.);
#157=CIRCLE('',#402,43.);
#158=CIRCLE('',#404,38.5);
#159=CIRCLE('',#405,38.5);
#160=CIRCLE('',#407,36.);
#161=CIRCLE('',#408,36.);
#162=CIRCLE('',#410,38.);
#163=CIRCLE('',#412,46.);
#164=CIRCLE('',#413,46.);
#165=CIRCLE('',#415,47.5);
#166=CIRCLE('',#420,41.);
#167=CIRCLE('',#425,2.4);
#168=CIRCLE('',#426,38.6);
#169=CIRCLE('',#429,38.05);
#170=CIRCLE('',#430,38.05);
#171=CIRCLE('',#431,37.75);
#172=CIRCLE('',#433,38.05);
#173=CIRCLE('',#434,37.75);
#174=CIRCLE('',#436,35.9);
#175=CIRCLE('',#437,35.9);
#176=VERTEX_POINT('',#662);
#177=VERTEX_POINT('',#663);
#178=VERTEX_POINT('',#665);
#179=VERTEX_POINT('',#703);
#180=VERTEX_POINT('',#743);
#181=VERTEX_POINT('',#745);
#182=VERTEX_POINT('',#749);
#183=VERTEX_POINT('',#751);
#184=VERTEX_POINT('',#755);
#185=VERTEX_POINT('',#757);
#186=VERTEX_POINT('',#761);
#187=VERTEX_POINT('',#766);
#188=VERTEX_POINT('',#768);
#189=VERTEX_POINT('',#772);
#190=VERTEX_POINT('',#774);
#191=VERTEX_POINT('',#778);
#192=VERTEX_POINT('',#782);
#193=VERTEX_POINT('',#784);
#194=VERTEX_POINT('',#788);
#195=VERTEX_POINT('',#888);
#196=VERTEX_POINT('',#893);
#197=VERTEX_POINT('',#894);
#198=VERTEX_POINT('',#897);
#199=VERTEX_POINT('',#901);
#200=VERTEX_POINT('',#903);
#201=VERTEX_POINT('',#907);
#202=VERTEX_POINT('',#909);
#203=EDGE_CURVE('',#176,#177,#147,.T.);
#204=EDGE_CURVE('',#176,#178,#145,.T.);
#205=EDGE_CURVE('',#178,#179,#148,.T.);
#206=EDGE_CURVE('',#177,#179,#146,.T.);
#207=EDGE_CURVE('',#180,#180,#149,.T.);
#208=EDGE_CURVE('',#180,#181,#150,.T.);
#209=EDGE_CURVE('',#181,#181,#151,.T.);
#210=EDGE_CURVE('',#182,#182,#152,.T.);
#211=EDGE_CURVE('',#182,#183,#50,.T.);
#212=EDGE_CURVE('',#183,#183,#153,.T.);
#213=EDGE_CURVE('',#184,#184,#154,.T.);
#214=EDGE_CURVE('',#184,#185,#51,.T.);
#215=EDGE_CURVE('',#185,#185,#155,.T.);
#216=EDGE_CURVE('',#186,#186,#156,.T.);
#217=EDGE_CURVE('',#186,#177,#52,.T.);
#218=EDGE_CURVE('',#177,#176,#157,.T.);
#219=EDGE_CURVE('',#187,#187,#158,.T.);
#220=EDGE_CURVE('',#187,#188,#53,.T.);
#221=EDGE_CURVE('',#188,#188,#159,.T.);
#222=EDGE_CURVE('',#189,#189,#160,.T.);
#223=EDGE_CURVE('',#189,#190,#54,.T.);
#224=EDGE_CURVE('',#190,#190,#161,.T.);
#225=EDGE_CURVE('',#190,#191,#55,.T.);
#226=EDGE_CURVE('',#191,#191,#162,.T.);
#227=EDGE_CURVE('',#192,#192,#163,.T.);
#228=EDGE_CURVE('',#192,#193,#56,.T.);
#229=EDGE_CURVE('',#193,#193,#164,.T.);
#230=EDGE_CURVE('',#194,#194,#165,.T.);
#231=EDGE_CURVE('',#194,#180,#57,.T.);
#232=EDGE_CURVE('',#179,#178,#166,.T.);
#233=EDGE_CURVE('',#195,#195,#167,.T.);
#234=EDGE_CURVE('',#195,#195,#168,.T.);
#235=EDGE_CURVE('',#196,#197,#169,.T.);
#236=EDGE_CURVE('',#197,#196,#170,.T.);
#237=EDGE_CURVE('',#197,#198,#58,.T.);
#238=EDGE_CURVE('',#198,#198,#171,.T.);
#239=EDGE_CURVE('',#199,#199,#172,.T.);
#240=EDGE_CURVE('',#199,#200,#59,.T.);
#241=EDGE_CURVE('',#200,#200,#173,.T.);
#242=EDGE_CURVE('',#201,#201,#174,.T.);
#243=EDGE_CURVE('',#201,#202,#60,.T.);
#244=EDGE_CURVE('',#202,#202,#175,.T.);
#245=EDGE_CURVE('',#196,#199,#61,.T.);
#246=ORIENTED_EDGE('',*,*,#203,.F.);
#247=ORIENTED_EDGE('',*,*,#204,.T.);
#248=ORIENTED_EDGE('',*,*,#205,.T.);
#249=ORIENTED_EDGE('',*,*,#206,.F.);
#250=ORIENTED_EDGE('',*,*,#207,.F.);
#251=ORIENTED_EDGE('',*,*,#208,.T.);
#252=ORIENTED_EDGE('',*,*,#209,.T.);
#253=ORIENTED_EDGE('',*,*,#208,.F.);
#254=ORIENTED_EDGE('',*,*,#210,.F.);
#255=ORIENTED_EDGE('',*,*,#211,.T.);
#256=ORIENTED_EDGE('',*,*,#212,.T.);
#257=ORIENTED_EDGE('',*,*,#211,.F.);
#258=ORIENTED_EDGE('',*,*,#213,.F.);
#259=ORIENTED_EDGE('',*,*,#214,.T.);
#260=ORIENTED_EDGE('',*,*,#215,.T.);
#261=ORIENTED_EDGE('',*,*,#214,.F.);
#262=ORIENTED_EDGE('',*,*,#216,.F.);
#263=ORIENTED_EDGE('',*,*,#217,.T.);
#264=ORIENTED_EDGE('',*,*,#218,.T.);
#265=ORIENTED_EDGE('',*,*,#203,.T.);
#266=ORIENTED_EDGE('',*,*,#217,.F.);
#267=ORIENTED_EDGE('',*,*,#219,.F.);
#268=ORIENTED_EDGE('',*,*,#220,.T.);
#269=ORIENTED_EDGE('',*,*,#221,.T.);
#270=ORIENTED_EDGE('',*,*,#220,.F.);
#271=ORIENTED_EDGE('',*,*,#222,.F.);
#272=ORIENTED_EDGE('',*,*,#223,.T.);
#273=ORIENTED_EDGE('',*,*,#224,.T.);
#274=ORIENTED_EDGE('',*,*,#223,.F.);
#275=ORIENTED_EDGE('',*,*,#224,.F.);
#276=ORIENTED_EDGE('',*,*,#225,.T.);
#277=ORIENTED_EDGE('',*,*,#226,.T.);
#278=ORIENTED_EDGE('',*,*,#225,.F.);
#279=ORIENTED_EDGE('',*,*,#227,.F.);
#280=ORIENTED_EDGE('',*,*,#228,.T.);
#281=ORIENTED_EDGE('',*,*,#229,.T.);
#282=ORIENTED_EDGE('',*,*,#228,.F.);
#283=ORIENTED_EDGE('',*,*,#230,.F.);
#284=ORIENTED_EDGE('',*,*,#231,.T.);
#285=ORIENTED_EDGE('',*,*,#207,.T.);
#286=ORIENTED_EDGE('',*,*,#231,.F.);
#287=ORIENTED_EDGE('',*,*,#230,.T.);
#288=ORIENTED_EDGE('',*,*,#229,.F.);
#289=ORIENTED_EDGE('',*,*,#227,.T.);
#290=ORIENTED_EDGE('',*,*,#226,.F.);
#291=ORIENTED_EDGE('',*,*,#221,.F.);
#292=ORIENTED_EDGE('',*,*,#222,.T.);
#293=ORIENTED_EDGE('',*,*,#232,.F.);
#294=ORIENTED_EDGE('',*,*,#205,.F.);
#295=ORIENTED_EDGE('',*,*,#219,.T.);
#296=ORIENTED_EDGE('',*,*,#204,.F.);
#297=ORIENTED_EDGE('',*,*,#218,.F.);
#298=ORIENTED_EDGE('',*,*,#206,.T.);
#299=ORIENTED_EDGE('',*,*,#232,.T.);
#300=ORIENTED_EDGE('',*,*,#215,.F.);
#301=ORIENTED_EDGE('',*,*,#216,.T.);
#302=ORIENTED_EDGE('',*,*,#212,.F.);
#303=ORIENTED_EDGE('',*,*,#213,.T.);
#304=ORIENTED_EDGE('',*,*,#210,.T.);
#305=ORIENTED_EDGE('',*,*,#209,.F.);
#306=ORIENTED_EDGE('',*,*,#233,.F.);
#307=ORIENTED_EDGE('',*,*,#234,.T.);
#308=ORIENTED_EDGE('',*,*,#233,.T.);
#309=ORIENTED_EDGE('',*,*,#234,.F.);
#310=ORIENTED_EDGE('',*,*,#235,.F.);
#311=ORIENTED_EDGE('',*,*,#236,.F.);
#312=ORIENTED_EDGE('',*,*,#237,.T.);
#313=ORIENTED_EDGE('',*,*,#238,.F.);
#314=ORIENTED_EDGE('',*,*,#237,.F.);
#315=ORIENTED_EDGE('',*,*,#239,.F.);
#316=ORIENTED_EDGE('',*,*,#240,.T.);
#317=ORIENTED_EDGE('',*,*,#241,.F.);
#318=ORIENTED_EDGE('',*,*,#240,.F.);
#319=ORIENTED_EDGE('',*,*,#242,.F.);
#320=ORIENTED_EDGE('',*,*,#243,.T.);
#321=ORIENTED_EDGE('',*,*,#244,.T.);
#322=ORIENTED_EDGE('',*,*,#243,.F.);
#323=ORIENTED_EDGE('',*,*,#235,.T.);
#324=ORIENTED_EDGE('',*,*,#236,.T.);
#325=ORIENTED_EDGE('',*,*,#245,.T.);
#326=ORIENTED_EDGE('',*,*,#239,.T.);
#327=ORIENTED_EDGE('',*,*,#245,.F.);
#328=ORIENTED_EDGE('',*,*,#238,.T.);
#329=ORIENTED_EDGE('',*,*,#241,.T.);
#330=ORIENTED_EDGE('',*,*,#242,.T.);
#331=ORIENTED_EDGE('',*,*,#244,.F.);
#332=(
BOUNDED_SURFACE()
B_SPLINE_SURFACE(3,3,((#574,#575,#576,#577),(#578,#579,#580,#581),(#582,
#583,#584,#585),(#586,#587,#588,#589),(#590,#591,#592,#593),(#594,#595,
#596,#597),(#598,#599,#600,#601),(#602,#603,#604,#605),(#606,#607,#608,
#609),(#610,#611,#612,#613),(#614,#615,#616,#617),(#618,#619,#620,#621),
(#622,#623,#624,#625),(#626,#627,#628,#629),(#630,#631,#632,#633),(#634,
#635,#636,#637),(#638,#639,#640,#641),(#642,#643,#644,#645),(#646,#647,
#648,#649),(#650,#651,#652,#653),(#654,#655,#656,#657),(#658,#659,#660,
#661)),.UNSPECIFIED.,.F.,.F.,.F.)
B_SPLINE_SURFACE_WITH_KNOTS((4,3,3,3,3,3,3,4),(4,4),(0.,0.000839428429947022,
0.00167885685989405,0.00251828528984107,0.00335771371978809,0.00419714214973512,
0.00503657057968214,0.00550644933320252),(0.,1.),.UNSPECIFIED.)
GEOMETRIC_REPRESENTATION_ITEM()
RATIONAL_B_SPLINE_SURFACE(((1.,0.333333333333333,0.333333333333333,1.),
(1.,0.333333333333333,0.333333333333333,1.),(1.,0.333333333333333,0.333333333333333,
1.),(1.,0.333333333333333,0.333333333333333,1.),(1.,0.333333333333333,0.333333333333333,
1.),(1.,0.333333333333333,0.333333333333333,1.),(1.,0.333333333333333,0.333333333333333,
1.),(1.,0.333333333333333,0.333333333333333,1.),(1.,0.333333333333333,0.333333333333333,
1.),(1.,0.333333333333333,0.333333333333333,1.),(1.,0.333333333333333,0.333333333333333,
1.),(1.,0.333333333333333,0.333333333333333,1.),(1.,0.333333333333333,0.333333333333333,
1.),(1.,0.333333333333333,0.333333333333333,1.),(1.,0.333333333333333,0.333333333333333,
1.),(1.,0.333333333333333,0.333333333333333,1.),(1.,0.333333333333333,0.333333333333333,
1.),(1.,0.333333333333333,0.333333333333333,1.),(1.,0.333333333333333,0.333333333333333,
1.),(1.,0.333333333333333,0.333333333333333,1.),(1.,0.333333333333333,0.333333333333333,
1.),(1.,0.333333333333333,0.333333333333333,1.)))
REPRESENTATION_ITEM('')
SURFACE()
);
#333=(
BOUNDED_SURFACE()
B_SPLINE_SURFACE(3,3,((#796,#797,#798,#799),(#800,#801,#802,#803),(#804,
#805,#806,#807),(#808,#809,#810,#811),(#812,#813,#814,#815),(#816,#817,
#818,#819),(#820,#821,#822,#823),(#824,#825,#826,#827),(#828,#829,#830,
#831),(#832,#833,#834,#835),(#836,#837,#838,#839),(#840,#841,#842,#843),
(#844,#845,#846,#847),(#848,#849,#850,#851),(#852,#853,#854,#855),(#856,
#857,#858,#859),(#860,#861,#862,#863),(#864,#865,#866,#867),(#868,#869,
#870,#871),(#872,#873,#874,#875),(#876,#877,#878,#879),(#880,#881,#882,
#883)),.UNSPECIFIED.,.F.,.F.,.F.)
B_SPLINE_SURFACE_WITH_KNOTS((4,3,3,3,3,3,3,4),(4,4),(0.,0.000839428429947022,
0.00167885685989405,0.00251828528984107,0.00335771371978809,0.00419714214973512,
0.00503657057968214,0.00550644933320252),(0.,1.),.UNSPECIFIED.)
GEOMETRIC_REPRESENTATION_ITEM()
RATIONAL_B_SPLINE_SURFACE(((1.,0.333333333333333,0.333333333333333,1.),
(1.,0.333333333333333,0.333333333333333,1.),(1.,0.333333333333333,0.333333333333333,
1.),(1.,0.333333333333333,0.333333333333333,1.),(1.,0.333333333333333,0.333333333333333,
1.),(1.,0.333333333333333,0.333333333333333,1.),(1.,0.333333333333333,0.333333333333333,
1.),(1.,0.333333333333333,0.333333333333333,1.),(1.,0.333333333333333,0.333333333333333,
1.),(1.,0.333333333333333,0.333333333333333,1.),(1.,0.333333333333333,0.333333333333333,
1.),(1.,0.333333333333333,0.333333333333333,1.),(1.,0.333333333333333,0.333333333333333,
1.),(1.,0.333333333333333,0.333333333333333,1.),(1.,0.333333333333333,0.333333333333333,
1.),(1.,0.333333333333333,0.333333333333333,1.),(1.,0.333333333333333,0.333333333333333,
1.),(1.,0.333333333333333,0.333333333333333,1.),(1.,0.333333333333333,0.333333333333333,
1.),(1.,0.333333333333333,0.333333333333333,1.),(1.,0.333333333333333,0.333333333333333,
1.),(1.,0.333333333333333,0.333333333333333,1.)))
REPRESENTATION_ITEM('')
SURFACE()
);
#334=ADVANCED_FACE('',(#85),#332,.T.);
#335=ADVANCED_FACE('',(#86),#83,.F.);
#336=ADVANCED_FACE('',(#87),#74,.T.);
#337=ADVANCED_FACE('',(#88),#75,.F.);
#338=ADVANCED_FACE('',(#89),#76,.F.);
#339=ADVANCED_FACE('',(#90),#77,.F.);
#340=ADVANCED_FACE('',(#91),#78,.F.);
#341=ADVANCED_FACE('',(#92),#47,.F.);
#342=ADVANCED_FACE('',(#93),#79,.F.);
#343=ADVANCED_FACE('',(#94),#80,.T.);
#344=ADVANCED_FACE('',(#95,#29),#37,.T.);
#345=ADVANCED_FACE('',(#96,#30),#38,.T.);
#346=ADVANCED_FACE('',(#97,#31),#39,.T.);
#347=ADVANCED_FACE('',(#98,#32),#40,.T.);
#348=ADVANCED_FACE('',(#99),#333,.T.);
#349=ADVANCED_FACE('',(#100,#33),#41,.T.);
#350=ADVANCED_FACE('',(#101,#34),#42,.T.);
#351=ADVANCED_FACE('',(#102,#35),#43,.T.);
#352=ADVANCED_FACE('',(#103),#84,.T.);
#353=ADVANCED_FACE('',(#104),#48,.T.);
#354=ADVANCED_FACE('',(#105),#49,.T.);
#355=ADVANCED_FACE('',(#106),#81,.T.);
#356=ADVANCED_FACE('',(#107),#82,.T.);
#357=ADVANCED_FACE('',(#108),#44,.F.);
#358=ADVANCED_FACE('',(#109,#36),#45,.F.);
#359=ADVANCED_FACE('',(#110),#46,.F.);
#360=CLOSED_SHELL('',(#334,#335,#336,#337,#338,#339,#340,#341,#342,#343,
#344,#345,#346,#347,#348,#349,#350,#351));
#361=CLOSED_SHELL('',(#352));
#362=CLOSED_SHELL('',(#353,#354,#355,#356,#357,#358,#359));
#363=DERIVED_UNIT_ELEMENT(#367,1.);
#364=DERIVED_UNIT_ELEMENT(#928,-3.);
#365=DERIVED_UNIT_ELEMENT(#367,1.);
#366=DERIVED_UNIT_ELEMENT(#928,-3.);
#367=(
MASS_UNIT()
NAMED_UNIT(*)
SI_UNIT(.KILO.,.GRAM.)
);
#368=DERIVED_UNIT((#363,#364));
#369=DERIVED_UNIT((#365,#366));
#370=MEASURE_REPRESENTATION_ITEM('density measure',
POSITIVE_RATIO_MEASURE(7850.),#368);
#371=MEASURE_REPRESENTATION_ITEM('density measure',
POSITIVE_RATIO_MEASURE(7850.),#369);
#372=PROPERTY_DEFINITION_REPRESENTATION(#382,#376);
#373=PROPERTY_DEFINITION_REPRESENTATION(#383,#377);
#374=PROPERTY_DEFINITION_REPRESENTATION(#384,#378);
#375=PROPERTY_DEFINITION_REPRESENTATION(#385,#379);
#376=REPRESENTATION('material name',(#380),#924);
#377=REPRESENTATION('density',(#370),#924);
#378=REPRESENTATION('material name',(#381),#925);
#379=REPRESENTATION('density',(#371),#925);
#380=DESCRIPTIVE_REPRESENTATION_ITEM('Steel','Steel');
#381=DESCRIPTIVE_REPRESENTATION_ITEM('Steel','Steel');
#382=PROPERTY_DEFINITION('material property','material name',#944);
#383=PROPERTY_DEFINITION('material property','density of part',#944);
#384=PROPERTY_DEFINITION('material property','material name',#945);
#385=PROPERTY_DEFINITION('material property','density of part',#945);
#386=AXIS2_PLACEMENT_3D('',#572,#444,#445);
#387=AXIS2_PLACEMENT_3D('',#573,#446,#447);
#388=AXIS2_PLACEMENT_3D('',#664,#448,#449);
#389=AXIS2_PLACEMENT_3D('',#704,#450,#451);
#390=AXIS2_PLACEMENT_3D('',#742,#452,#453);
#391=AXIS2_PLACEMENT_3D('',#744,#454,#455);
#392=AXIS2_PLACEMENT_3D('',#746,#456,#457);
#393=AXIS2_PLACEMENT_3D('',#747,#458,#459);
#394=AXIS2_PLACEMENT_3D('',#748,#460,#461);
#395=AXIS2_PLACEMENT_3D('',#750,#462,#463);
#396=AXIS2_PLACEMENT_3D('',#753,#465,#466);
#397=AXIS2_PLACEMENT_3D('',#754,#467,#468);
#398=AXIS2_PLACEMENT_3D('',#756,#469,#470);
#399=AXIS2_PLACEMENT_3D('',#759,#472,#473);
#400=AXIS2_PLACEMENT_3D('',#760,#474,#475);
#401=AXIS2_PLACEMENT_3D('',#762,#476,#477);
#402=AXIS2_PLACEMENT_3D('',#764,#479,#480);
#403=AXIS2_PLACEMENT_3D('',#765,#481,#482);
#404=AXIS2_PLACEMENT_3D('',#767,#483,#484);
#405=AXIS2_PLACEMENT_3D('',#770,#486,#487);
#406=AXIS2_PLACEMENT_3D('',#771,#488,#489);
#407=AXIS2_PLACEMENT_3D('',#773,#490,#491);
#408=AXIS2_PLACEMENT_3D('',#776,#493,#494);
#409=AXIS2_PLACEMENT_3D('',#777,#495,#496);
#410=AXIS2_PLACEMENT_3D('',#780,#498,#499);
#411=AXIS2_PLACEMENT_3D('',#781,#500,#501);
#412=AXIS2_PLACEMENT_3D('',#783,#502,#503);
#413=AXIS2_PLACEMENT_3D('',#786,#505,#506);
#414=AXIS2_PLACEMENT_3D('',#787,#507,#508);
#415=AXIS2_PLACEMENT_3D('',#789,#509,#510);
#416=AXIS2_PLACEMENT_3D('',#791,#512,#513);
#417=AXIS2_PLACEMENT_3D('',#792,#514,#515);
#418=AXIS2_PLACEMENT_3D('',#793,#516,#517);
#419=AXIS2_PLACEMENT_3D('',#794,#518,#519);
#420=AXIS2_PLACEMENT_3D('',#795,#520,#521);
#421=AXIS2_PLACEMENT_3D('',#884,#522,#523);
#422=AXIS2_PLACEMENT_3D('',#885,#524,#525);
#423=AXIS2_PLACEMENT_3D('',#886,#526,#527);
#424=AXIS2_PLACEMENT_3D('',#887,#528,#529);
#425=AXIS2_PLACEMENT_3D('',#889,#530,#531);
#426=AXIS2_PLACEMENT_3D('',#890,#532,#533);
#427=AXIS2_PLACEMENT_3D('',#891,#534,#535);
#428=AXIS2_PLACEMENT_3D('',#892,#536,#537);
#429=AXIS2_PLACEMENT_3D('',#895,#538,#539);
#430=AXIS2_PLACEMENT_3D('',#896,#540,#541);
#431=AXIS2_PLACEMENT_3D('',#899,#543,#544);
#432=AXIS2_PLACEMENT_3D('',#900,#545,#546);
#433=AXIS2_PLACEMENT_3D('',#902,#547,#548);
#434=AXIS2_PLACEMENT_3D('',#905,#550,#551);
#435=AXIS2_PLACEMENT_3D('',#906,#552,#553);
#436=AXIS2_PLACEMENT_3D('',#908,#554,#555);
#437=AXIS2_PLACEMENT_3D('',#911,#557,#558);
#438=AXIS2_PLACEMENT_3D('',#912,#559,#560);
#439=AXIS2_PLACEMENT_3D('',#914,#562,#563);
#440=AXIS2_PLACEMENT_3D('',#915,#564,#565);
#441=AXIS2_PLACEMENT_3D('',#916,#566,#567);
#442=AXIS2_PLACEMENT_3D('',#917,#568,#569);
#443=AXIS2_PLACEMENT_3D('',#918,#570,#571);
#444=DIRECTION('axis',(0.,0.,1.));
#445=DIRECTION('refdir',(1.,0.,0.));
#446=DIRECTION('axis',(0.,0.,1.));
#447=DIRECTION('refdir',(1.,0.,0.));
#448=DIRECTION('center_axis',(-1.22464679914735E-16,1.,0.));
#449=DIRECTION('ref_axis',(-1.,-1.22464679914735E-16,0.));
#450=DIRECTION('center_axis',(-1.22464679914735E-16,1.,0.));
#451=DIRECTION('ref_axis',(-1.,-1.22464679914735E-16,0.));
#452=DIRECTION('center_axis',(-1.22464679914735E-16,1.,0.));
#453=DIRECTION('ref_axis',(-1.,-1.26882631385732E-16,0.));
#454=DIRECTION('center_axis',(-1.22464679914735E-16,1.,0.));
#455=DIRECTION('ref_axis',(-1.,-1.22464679914735E-16,0.));
#456=DIRECTION('center_axis',(1.22464679914735E-16,1.49975978266186E-32,
1.));
#457=DIRECTION('ref_axis',(1.,1.13288063737261E-16,-1.22464679914735E-16));
#458=DIRECTION('center_axis',(-1.22464679914735E-16,1.,0.));
#459=DIRECTION('ref_axis',(-1.,-1.22464679914735E-16,0.));
#460=DIRECTION('center_axis',(-1.22464679914735E-16,1.,0.));
#461=DIRECTION('ref_axis',(-1.,-1.22464679914735E-16,0.));
#462=DIRECTION('center_axis',(-1.22464679914735E-16,1.,0.));
#463=DIRECTION('ref_axis',(-1.,-1.22464679914735E-16,0.));
#464=DIRECTION('',(1.22464679914735E-16,-1.,0.));
#465=DIRECTION('center_axis',(-1.22464679914735E-16,1.,0.));
#466=DIRECTION('ref_axis',(-1.,-1.22464679914735E-16,0.));
#467=DIRECTION('center_axis',(-1.22464679914735E-16,1.,0.));
#468=DIRECTION('ref_axis',(-1.,-1.22464679914735E-16,0.));
#469=DIRECTION('center_axis',(-1.22464679914735E-16,1.,0.));
#470=DIRECTION('ref_axis',(-1.,-1.22464679914735E-16,0.));
#471=DIRECTION('',(-1.22464679914735E-16,1.,0.));
#472=DIRECTION('center_axis',(-1.22464679914735E-16,1.,0.));
#473=DIRECTION('ref_axis',(-1.,-1.22464679914735E-16,0.));
#474=DIRECTION('center_axis',(-1.22464679914735E-16,1.,0.));
#475=DIRECTION('ref_axis',(-1.,-1.22464679914735E-16,0.));
#476=DIRECTION('center_axis',(-1.22464679914735E-16,1.,0.));
#477=DIRECTION('ref_axis',(-1.,-1.22464679914735E-16,0.));
#478=DIRECTION('',(-1.22464679914735E-16,1.,0.));
#479=DIRECTION('center_axis',(-1.22464679914735E-16,1.,0.));
#480=DIRECTION('ref_axis',(-1.,-1.22464679914735E-16,0.));
#481=DIRECTION('center_axis',(-1.22464679914735E-16,1.,0.));
#482=DIRECTION('ref_axis',(-1.,-1.22464679914735E-16,0.));
#483=DIRECTION('center_axis',(-1.22464679914735E-16,1.,0.));
#484=DIRECTION('ref_axis',(-1.,-1.22464679914735E-16,0.));
#485=DIRECTION('',(-1.22464679914735E-16,1.,0.));
#486=DIRECTION('center_axis',(-1.22464679914735E-16,1.,0.));
#487=DIRECTION('ref_axis',(-1.,-1.22464679914735E-16,0.));
#488=DIRECTION('center_axis',(-1.22464679914735E-16,1.,0.));
#489=DIRECTION('ref_axis',(-1.,-1.22464679914735E-16,0.));
#490=DIRECTION('center_axis',(-1.22464679914735E-16,1.,0.));
#491=DIRECTION('ref_axis',(-1.,-1.22464679914735E-16,0.));
#492=DIRECTION('',(-1.22464679914735E-16,1.,0.));
#493=DIRECTION('center_axis',(-1.22464679914735E-16,1.,0.));
#494=DIRECTION('ref_axis',(-1.,-1.22464679914735E-16,0.));
#495=DIRECTION('center_axis',(-1.22464679914735E-16,1.,0.));
#496=DIRECTION('ref_axis',(-1.,-1.22464679914735E-16,0.));
#497=DIRECTION('',(0.707106781186544,0.707106781186551,-8.65956056235489E-17));
#498=DIRECTION('center_axis',(-1.22464679914735E-16,1.,0.));
#499=DIRECTION('ref_axis',(-1.,-1.22464679914735E-16,0.));
#500=DIRECTION('center_axis',(-1.22464679914735E-16,1.,0.));
#501=DIRECTION('ref_axis',(-1.,-1.22464679914735E-16,0.));
#502=DIRECTION('center_axis',(-1.22464679914735E-16,1.,0.));
#503=DIRECTION('ref_axis',(-1.,-1.22464679914735E-16,0.));
#504=DIRECTION('',(-1.22464679914735E-16,1.,0.));
#505=DIRECTION('center_axis',(-1.22464679914735E-16,1.,0.));
#506=DIRECTION('ref_axis',(-1.,-1.22464679914735E-16,0.));
#507=DIRECTION('center_axis',(-1.22464679914735E-16,1.,0.));
#508=DIRECTION('ref_axis',(-1.,-1.22464679914735E-16,0.));
#509=DIRECTION('center_axis',(-1.22464679914735E-16,1.,0.));
#510=DIRECTION('ref_axis',(-1.,-1.22464679914735E-16,0.));
#511=DIRECTION('',(1.22464679914735E-16,-1.,0.));
#512=DIRECTION('center_axis',(-1.22464679914735E-16,1.,0.));
#513=DIRECTION('ref_axis',(-1.,-1.22464679914735E-16,0.));
#514=DIRECTION('center_axis',(-1.22464679914735E-16,1.,0.));
#515=DIRECTION('ref_axis',(-1.,-1.22464679914735E-16,0.));
#516=DIRECTION('center_axis',(1.22464679914735E-16,-1.,0.));
#517=DIRECTION('ref_axis',(1.,1.22464679914735E-16,0.));
#518=DIRECTION('center_axis',(1.22464679914735E-16,-1.,0.));
#519=DIRECTION('ref_axis',(1.,1.22464679914735E-16,0.));
#520=DIRECTION('center_axis',(-1.22464679914735E-16,1.,0.));
#521=DIRECTION('ref_axis',(-1.,-1.22464679914735E-16,0.));
#522=DIRECTION('center_axis',(1.22464679914735E-16,-1.,0.));
#523=DIRECTION('ref_axis',(1.,1.22464679914735E-16,0.));
#524=DIRECTION('center_axis',(1.22464679914735E-16,-1.,0.));
#525=DIRECTION('ref_axis',(1.,1.22464679914735E-16,0.));
#526=DIRECTION('center_axis',(-1.22464679914735E-16,1.,0.));
#527=DIRECTION('ref_axis',(-1.,-1.22464679914735E-16,0.));
#528=DIRECTION('center_axis',(-1.22464679914735E-16,1.,0.));
#529=DIRECTION('ref_axis',(-1.,-1.22789643276515E-16,0.));
#530=DIRECTION('center_axis',(-1.22464679914735E-16,-1.49975978266186E-32,
-1.));
#531=DIRECTION('ref_axis',(1.,1.27905878413036E-16,-1.22464679914735E-16));
#532=DIRECTION('center_axis',(1.22464679914735E-16,-1.,0.));
#533=DIRECTION('ref_axis',(-1.,-1.22464679914735E-16,0.));
#534=DIRECTION('axis',(0.,0.,1.));
#535=DIRECTION('refdir',(1.,0.,0.));
#536=DIRECTION('center_axis',(0.,1.,0.));
#537=DIRECTION('ref_axis',(0.,0.,1.));
#538=DIRECTION('center_axis',(0.,1.,0.));
#539=DIRECTION('ref_axis',(0.,0.,1.));
#540=DIRECTION('center_axis',(0.,1.,0.));
#541=DIRECTION('ref_axis',(0.,0.,1.));
#542=DIRECTION('',(8.65956056235483E-17,-0.707106781186556,0.707106781186539));
#543=DIRECTION('center_axis',(0.,-1.,0.));
#544=DIRECTION('ref_axis',(0.,0.,1.));
#545=DIRECTION('center_axis',(0.,-1.,0.));
#546=DIRECTION('ref_axis',(0.,0.,-1.));
#547=DIRECTION('center_axis',(0.,-1.,0.));
#548=DIRECTION('ref_axis',(0.,0.,-1.));
#549=DIRECTION('',(8.65956056235493E-17,0.707106781186548,-0.707106781186548));
#550=DIRECTION('center_axis',(0.,1.,0.));
#551=DIRECTION('ref_axis',(0.,0.,-1.));
#552=DIRECTION('center_axis',(0.,-1.,0.));
#553=DIRECTION('ref_axis',(0.,0.,-1.));
#554=DIRECTION('center_axis',(0.,-1.,0.));
#555=DIRECTION('ref_axis',(0.,0.,-1.));
#556=DIRECTION('',(0.,1.,0.));
#557=DIRECTION('center_axis',(0.,-1.,0.));
#558=DIRECTION('ref_axis',(0.,0.,-1.));
#559=DIRECTION('center_axis',(0.,-1.,0.));
#560=DIRECTION('ref_axis',(0.,0.,-1.));
#561=DIRECTION('',(0.,1.,0.));
#562=DIRECTION('center_axis',(0.,1.,0.));
#563=DIRECTION('ref_axis',(0.,0.,1.));
#564=DIRECTION('center_axis',(0.,-1.,0.));
#565=DIRECTION('ref_axis',(0.,0.,-1.));
#566=DIRECTION('center_axis',(0.,-1.,0.));
#567=DIRECTION('ref_axis',(0.,0.,-1.));
#568=DIRECTION('',(0.,0.,1.));
#569=DIRECTION('',(1.,0.,0.));
#570=DIRECTION('',(0.,0.,1.));
#571=DIRECTION('',(1.,0.,0.));
#572=CARTESIAN_POINT('',(0.,0.,0.));
#573=CARTESIAN_POINT('',(0.,0.,0.));
#574=CARTESIAN_POINT('Ctrl Pts',(-43.,1.70000000000002,-5.26598123633362E-15));
#575=CARTESIAN_POINT('Ctrl Pts',(-43.,1.70000000000002,86.));
#576=CARTESIAN_POINT('Ctrl Pts',(43.,1.70000000000003,86.));
#577=CARTESIAN_POINT('Ctrl Pts',(43.,1.70000000000003,1.05319624726672E-14));
#578=CARTESIAN_POINT('Ctrl Pts',(-43.1678856859894,1.92384758131923,-5.28654130313058E-15));
#579=CARTESIAN_POINT('Ctrl Pts',(-43.1678856859894,1.92384758131923,86.3357713719788));
#580=CARTESIAN_POINT('Ctrl Pts',(43.1678856859894,1.92384758131924,86.3357713719788));
#581=CARTESIAN_POINT('Ctrl Pts',(43.1678856859894,1.92384758131924,1.05730826062612E-14));
#582=CARTESIAN_POINT('Ctrl Pts',(-43.2994390059311,2.17976786895079,-5.30265193834896E-15));
#583=CARTESIAN_POINT('Ctrl Pts',(-43.2994390059311,2.17976786895079,86.5988780118622));
#584=CARTESIAN_POINT('Ctrl Pts',(43.2994390059311,2.1797678689508,86.5988780118622));
#585=CARTESIAN_POINT('Ctrl Pts',(43.2994390059311,2.1797678689508,1.06053038766979E-14));
#586=CARTESIAN_POINT('Ctrl Pts',(-43.383765972203,2.44656799260512,-5.31297901328163E-15));
#587=CARTESIAN_POINT('Ctrl Pts',(-43.383765972203,2.44656799260512,86.767531944406));
#588=CARTESIAN_POINT('Ctrl Pts',(43.383765972203,2.44656799260513,86.767531944406));
#589=CARTESIAN_POINT('Ctrl Pts',(43.383765972203,2.44656799260513,1.06259580265633E-14));
#590=CARTESIAN_POINT('Ctrl Pts',(-43.4680929384749,2.71336811625946,-5.3233060882143E-15));
#591=CARTESIAN_POINT('Ctrl Pts',(-43.4680929384749,2.71336811625946,86.9361858769498));
#592=CARTESIAN_POINT('Ctrl Pts',(43.4680929384749,2.71336811625947,86.9361858769498));
#593=CARTESIAN_POINT('Ctrl Pts',(43.4680929384749,2.71336811625947,1.06466121764286E-14));
#594=CARTESIAN_POINT('Ctrl Pts',(-43.5075193929241,2.99840675276102,-5.32813443633858E-15));
#595=CARTESIAN_POINT('Ctrl Pts',(-43.5075193929241,2.99840675276102,87.0150387858481));
#596=CARTESIAN_POINT('Ctrl Pts',(43.507519392924,2.99840675276103,87.0150387858481));
#597=CARTESIAN_POINT('Ctrl Pts',(43.5075193929241,2.99840675276103,1.06562688726772E-14));
#598=CARTESIAN_POINT('Ctrl Pts',(-43.4987804137154,3.27807972869002,-5.32706422004701E-15));
#599=CARTESIAN_POINT('Ctrl Pts',(-43.4987804137154,3.27807972869002,86.9975608274308));
#600=CARTESIAN_POINT('Ctrl Pts',(43.4987804137154,3.27807972869003,86.9975608274308));
#601=CARTESIAN_POINT('Ctrl Pts',(43.4987804137154,3.27807972869003,1.0654128440094E-14));
#602=CARTESIAN_POINT('Ctrl Pts',(-43.4900414345067,3.55775270461902,-5.32599400375544E-15));
#603=CARTESIAN_POINT('Ctrl Pts',(-43.4900414345068,3.55775270461902,86.9800828690135));
#604=CARTESIAN_POINT('Ctrl Pts',(43.4900414345067,3.55775270461903,86.9800828690135));
#605=CARTESIAN_POINT('Ctrl Pts',(43.4900414345067,3.55775270461903,1.06519880075109E-14));
#606=CARTESIAN_POINT('Ctrl Pts',(-43.4328959898038,3.83977374595956,-5.31899570516131E-15));
#607=CARTESIAN_POINT('Ctrl Pts',(-43.4328959898038,3.83977374595956,86.8657919796076));
#608=CARTESIAN_POINT('Ctrl Pts',(43.4328959898038,3.83977374595958,86.8657919796076));
#609=CARTESIAN_POINT('Ctrl Pts',(43.4328959898038,3.83977374595958,1.06379914103226E-14));
#610=CARTESIAN_POINT('Ctrl Pts',(-43.3320763187286,4.10078856765916,-5.30664885641398E-15));
#611=CARTESIAN_POINT('Ctrl Pts',(-43.3320763187286,4.10078856765916,86.6641526374571));
#612=CARTESIAN_POINT('Ctrl Pts',(43.3320763187286,4.10078856765917,86.6641526374571));
#613=CARTESIAN_POINT('Ctrl Pts',(43.3320763187286,4.10078856765917,1.0613297712828E-14));
#614=CARTESIAN_POINT('Ctrl Pts',(-43.2312566476533,4.36180338935875,-5.29430200766664E-15));
#615=CARTESIAN_POINT('Ctrl Pts',(-43.2312566476533,4.36180338935875,86.4625132953066));
#616=CARTESIAN_POINT('Ctrl Pts',(43.2312566476533,4.36180338935876,86.4625132953066));
#617=CARTESIAN_POINT('Ctrl Pts',(43.2312566476533,4.36180338935876,1.05886040153333E-14));
#618=CARTESIAN_POINT('Ctrl Pts',(-43.083982019197,4.60901110247092,-5.27626606743317E-15));
#619=CARTESIAN_POINT('Ctrl Pts',(-43.083982019197,4.60901110247092,86.1679640383939));
#620=CARTESIAN_POINT('Ctrl Pts',(43.083982019197,4.60901110247093,86.1679640383939));
#621=CARTESIAN_POINT('Ctrl Pts',(43.083982019197,4.60901110247093,1.05525321348663E-14));
#622=CARTESIAN_POINT('Ctrl Pts',(-42.9024483093751,4.82194032879013,-5.2540345997661E-15));
#623=CARTESIAN_POINT('Ctrl Pts',(-42.9024483093751,4.82194032879013,85.8048966187502));
#624=CARTESIAN_POINT('Ctrl Pts',(42.9024483093751,4.82194032879014,85.8048966187502));
#625=CARTESIAN_POINT('Ctrl Pts',(42.9024483093751,4.82194032879014,1.05080691995322E-14));
#626=CARTESIAN_POINT('Ctrl Pts',(-42.7209145995532,5.03486955510935,-5.23180313209903E-15));
#627=CARTESIAN_POINT('Ctrl Pts',(-42.7209145995532,5.03486955510935,85.4418291991065));
#628=CARTESIAN_POINT('Ctrl Pts',(42.7209145995532,5.03486955510936,85.4418291991065));
#629=CARTESIAN_POINT('Ctrl Pts',(42.7209145995532,5.03486955510936,1.04636062641981E-14));
#630=CARTESIAN_POINT('Ctrl Pts',(-42.500114884512,5.21939314559799,-5.20476296567124E-15));
#631=CARTESIAN_POINT('Ctrl Pts',(-42.500114884512,5.21939314559799,85.000229769024));
#632=CARTESIAN_POINT('Ctrl Pts',(42.500114884512,5.219393145598,85.000229769024));
#633=CARTESIAN_POINT('Ctrl Pts',(42.500114884512,5.219393145598,1.04095259313425E-14));
#634=CARTESIAN_POINT('Ctrl Pts',(-42.2583336846549,5.36023062149922,-5.17515330842134E-15));
#635=CARTESIAN_POINT('Ctrl Pts',(-42.2583336846549,5.36023062149922,84.5166673693097));
#636=CARTESIAN_POINT('Ctrl Pts',(42.2583336846548,5.36023062149923,84.5166673693097));
#637=CARTESIAN_POINT('Ctrl Pts',(42.2583336846549,5.36023062149923,1.03503066168427E-14));
#638=CARTESIAN_POINT('Ctrl Pts',(-42.0165524847977,5.50106809740046,-5.14554365117143E-15));
#639=CARTESIAN_POINT('Ctrl Pts',(-42.0165524847977,5.50106809740046,84.0331049695955));
#640=CARTESIAN_POINT('Ctrl Pts',(42.0165524847977,5.50106809740047,84.0331049695955));
#641=CARTESIAN_POINT('Ctrl Pts',(42.0165524847977,5.50106809740047,1.02910873023429E-14));
#642=CARTESIAN_POINT('Ctrl Pts',(-41.747121176109,5.60210393018955,-5.11254783219386E-15));
#643=CARTESIAN_POINT('Ctrl Pts',(-41.747121176109,5.60210393018955,83.494242352218));
#644=CARTESIAN_POINT('Ctrl Pts',(41.747121176109,5.60210393018956,83.494242352218));
#645=CARTESIAN_POINT('Ctrl Pts',(41.747121176109,5.60210393018956,1.02250956643877E-14));
#646=CARTESIAN_POINT('Ctrl Pts',(-41.4723514824065,5.65497129862417,-5.07889824960431E-15));
#647=CARTESIAN_POINT('Ctrl Pts',(-41.4723514824065,5.65497129862417,82.9447029648129));
#648=CARTESIAN_POINT('Ctrl Pts',(41.4723514824065,5.65497129862418,82.9447029648129));
#649=CARTESIAN_POINT('Ctrl Pts',(41.4723514824065,5.65497129862418,1.01577964992086E-14));
#650=CARTESIAN_POINT('Ctrl Pts',(-41.3170359574379,5.68485495490185,-5.05987758355324E-15));
#651=CARTESIAN_POINT('Ctrl Pts',(-41.3170359574379,5.68485495490185,82.6340719148757));
#652=CARTESIAN_POINT('Ctrl Pts',(41.3170359574378,5.68485495490186,82.6340719148757));
#653=CARTESIAN_POINT('Ctrl Pts',(41.3170359574379,5.68485495490186,1.01197551671065E-14));
#654=CARTESIAN_POINT('Ctrl Pts',(-41.1581642981485,5.7,-5.04042141665084E-15));
#655=CARTESIAN_POINT('Ctrl Pts',(-41.1581642981485,5.7,82.3163285962969));
#656=CARTESIAN_POINT('Ctrl Pts',(41.1581642981484,5.70000000000001,82.316328596297));
#657=CARTESIAN_POINT('Ctrl Pts',(41.1581642981485,5.70000000000001,1.00808428333017E-14));
#658=CARTESIAN_POINT('Ctrl Pts',(-41.,5.7,-5.02105187650415E-15));
#659=CARTESIAN_POINT('Ctrl Pts',(-41.,5.7,82.));
#660=CARTESIAN_POINT('Ctrl Pts',(41.,5.70000000000001,82.));
#661=CARTESIAN_POINT('Ctrl Pts',(41.,5.70000000000001,1.00421037530083E-14));
#662=CARTESIAN_POINT('',(-43.,1.70000000000002,0.));
#663=CARTESIAN_POINT('',(43.,1.70000000000003,5.26598123633362E-15));
#664=CARTESIAN_POINT('Origin',(3.94935536900231E-15,1.70000000000003,0.));
#665=CARTESIAN_POINT('',(-41.,5.7,-5.17432560234847E-15));
#666=CARTESIAN_POINT('Ctrl Pts',(-43.,1.70000000000002,2.36658271566303E-30));
#667=CARTESIAN_POINT('Ctrl Pts',(-43.1678856859894,1.92384758131923,-5.26598123633362E-15));
#668=CARTESIAN_POINT('Ctrl Pts',(-43.2994390059311,2.17976786895079,-5.30265193834896E-15));
#669=CARTESIAN_POINT('Ctrl Pts',(-43.383765972203,2.44656799260513,-5.31297901328162E-15));
#670=CARTESIAN_POINT('Ctrl Pts',(-43.4680929384749,2.71336811625946,-5.32330608821429E-15));
#671=CARTESIAN_POINT('Ctrl Pts',(-43.5075193929241,2.99840675276102,-5.32813443633858E-15));
#672=CARTESIAN_POINT('Ctrl Pts',(-43.4987804137154,3.27807972869002,-5.32706422004701E-15));
#673=CARTESIAN_POINT('Ctrl Pts',(-43.4900414345067,3.55775270461902,-5.32599400375544E-15));
#674=CARTESIAN_POINT('Ctrl Pts',(-43.4328959898038,3.83977374595956,-5.31899570516131E-15));
#675=CARTESIAN_POINT('Ctrl Pts',(-43.3320763187286,4.10078856765916,-5.30664885641397E-15));
#676=CARTESIAN_POINT('Ctrl Pts',(-43.2312566476533,4.36180338935875,-5.29430200766663E-15));
#677=CARTESIAN_POINT('Ctrl Pts',(-43.083982019197,4.60901110247092,-5.27626606743317E-15));
#678=CARTESIAN_POINT('Ctrl Pts',(-42.9024483093751,4.82194032879013,-5.2540345997661E-15));
#679=CARTESIAN_POINT('Ctrl Pts',(-42.7209145995532,5.03486955510934,-5.23180313209903E-15));
#680=CARTESIAN_POINT('Ctrl Pts',(-42.500114884512,5.21939314559799,-5.20476296567124E-15));
#681=CARTESIAN_POINT('Ctrl Pts',(-42.2583336846549,5.36023062149922,-5.17515330842134E-15));
#682=CARTESIAN_POINT('Ctrl Pts',(-42.1507119221374,5.42292026566492,-5.16197344372278E-15));
#683=CARTESIAN_POINT('Ctrl Pts',(-42.0376134163428,5.47772793703351,-5.14812287141181E-15));
#684=CARTESIAN_POINT('Ctrl Pts',(-41.9209195720126,5.5239359386682,-5.13383199711789E-15));
#685=CARTESIAN_POINT('Ctrl Pts',(-41.8094645214942,5.56806950189179,-5.12018269003127E-15));
#686=CARTESIAN_POINT('Ctrl Pts',(-41.6947281143506,5.60435843634025,-5.10613153265586E-15));
#687=CARTESIAN_POINT('Ctrl Pts',(-41.578346598063,5.63213116225211,-5.09187890751571E-15));
#688=CARTESIAN_POINT('Ctrl Pts',(-41.5431501147682,5.64053028193011,-5.08756858145489E-15));
#689=CARTESIAN_POINT('Ctrl Pts',(-41.507803235045,5.64815016473876,-5.08323983714361E-15));
#690=CARTESIAN_POINT('Ctrl Pts',(-41.4723514824065,5.65497129862417,-5.07889824960431E-15));
#691=CARTESIAN_POINT('Ctrl Pts',(-41.4618933191324,5.6569835131574,-5.07761749398645E-15));
#692=CARTESIAN_POINT('Ctrl Pts',(-41.4514270915332,5.65892734859158,-5.07633337000295E-15));
#693=CARTESIAN_POINT('Ctrl Pts',(-41.4409550311815,5.66080284724516,-5.07504620892686E-15));
#694=CARTESIAN_POINT('Ctrl Pts',(-41.3834405385711,5.67110343278706,-5.06797688219334E-15));
#695=CARTESIAN_POINT('Ctrl Pts',(-41.3257322330648,5.67935044200629,-5.06081871760346E-15));
#696=CARTESIAN_POINT('Ctrl Pts',(-41.2678665719499,5.68558331937369,-5.05366598250645E-15));
#697=CARTESIAN_POINT('Ctrl Pts',(-41.209845749601,5.69183290960541,-5.04649406803464E-15));
#698=CARTESIAN_POINT('Ctrl Pts',(-41.1516658283478,5.69605763982393,-5.03932750419436E-15));
#699=CARTESIAN_POINT('Ctrl Pts',(-41.0933545806917,5.6982462120157,-5.03225869791542E-15));
#700=CARTESIAN_POINT('Ctrl Pts',(-41.0622722677182,5.6994128117467,-5.02849073104894E-15));
#701=CARTESIAN_POINT('Ctrl Pts',(-41.0311525697889,5.7,-5.0247505057372E-15));
#702=CARTESIAN_POINT('Ctrl Pts',(-41.,5.7,-5.02105187650415E-15));
#703=CARTESIAN_POINT('',(41.,5.70000000000001,0.));
#704=CARTESIAN_POINT('Origin',(3.45949664934337E-15,5.70000000000001,0.));
#705=CARTESIAN_POINT('Ctrl Pts',(43.,1.70000000000003,8.94487347886838E-15));
#706=CARTESIAN_POINT('Ctrl Pts',(43.1678856859894,1.92384758131923,8.99832828037977E-15));
#707=CARTESIAN_POINT('Ctrl Pts',(43.2994390059311,2.1797678689508,9.04698065493119E-15));
#708=CARTESIAN_POINT('Ctrl Pts',(43.383765972203,2.44656799260513,9.08869528427783E-15));
#709=CARTESIAN_POINT('Ctrl Pts',(43.4680929384749,2.71336811625947,8.92455606114188E-15));
#710=CARTESIAN_POINT('Ctrl Pts',(43.5075193929241,2.99840675276103,8.93823143009467E-15));
#711=CARTESIAN_POINT('Ctrl Pts',(43.4987804137154,3.27807972869003,8.93756692291027E-15));
#712=CARTESIAN_POINT('Ctrl Pts',(43.4900414345067,3.55775270461903,8.88254774681192E-15));
#713=CARTESIAN_POINT('Ctrl Pts',(43.4328959898038,3.83977374595957,8.86872936369433E-15));
#714=CARTESIAN_POINT('Ctrl Pts',(43.3320763187286,4.10078856765916,8.84349053712884E-15));
#715=CARTESIAN_POINT('Ctrl Pts',(43.2312566476533,4.36180338935876,8.8795452733812E-15));
#716=CARTESIAN_POINT('Ctrl Pts',(43.083982019197,4.60901110247092,8.84207006238341E-15));
#717=CARTESIAN_POINT('Ctrl Pts',(42.9024483093751,4.82194032879014,8.79722555564604E-15));
#718=CARTESIAN_POINT('Ctrl Pts',(42.7209145995532,5.03486955510935,8.90503671479463E-15));
#719=CARTESIAN_POINT('Ctrl Pts',(42.500114884512,5.219393145598,8.84881015437553E-15));
#720=CARTESIAN_POINT('Ctrl Pts',(42.2583336846549,5.36023062149924,8.79284012014391E-15));
#721=CARTESIAN_POINT('Ctrl Pts',(42.1507119221383,5.42292026566442,9.01593573814368E-15));
#722=CARTESIAN_POINT('Ctrl Pts',(42.0376134163447,5.47772793703261,8.99500825428185E-15));
#723=CARTESIAN_POINT('Ctrl Pts',(41.9209195720155,5.52393593866706,8.97327366702917E-15));
#724=CARTESIAN_POINT('Ctrl Pts',(41.8094645214976,5.56806950189061,8.95251482122921E-15));
#725=CARTESIAN_POINT('Ctrl Pts',(41.6947281143546,5.6043584363391,8.93101940895364E-15));
#726=CARTESIAN_POINT('Ctrl Pts',(41.5783465980674,5.63213116225106,8.90909530468521E-15));
#727=CARTESIAN_POINT('Ctrl Pts',(41.5431501147712,5.64053028192948,8.90246494451904E-15));
#728=CARTESIAN_POINT('Ctrl Pts',(41.5078032350465,5.64815016473849,8.89579538432276E-15));
#729=CARTESIAN_POINT('Ctrl Pts',(41.4723514824065,5.65497129862418,8.88909517896094E-15));
#730=CARTESIAN_POINT('Ctrl Pts',(41.4618933191324,5.65698351315742,9.13074532744758E-15));
#731=CARTESIAN_POINT('Ctrl Pts',(41.4514270915332,5.65892734859159,9.12953185379187E-15));
#732=CARTESIAN_POINT('Ctrl Pts',(41.4409550311815,5.66080284724517,9.12831652839359E-15));
#733=CARTESIAN_POINT('Ctrl Pts',(41.3834405385707,5.67110343278714,9.12164173649099E-15));
#734=CARTESIAN_POINT('Ctrl Pts',(41.3257322330641,5.6793504420064,9.11490916632057E-15));
#735=CARTESIAN_POINT('Ctrl Pts',(41.2678665719488,5.68558331937381,9.10815905536362E-15));
#736=CARTESIAN_POINT('Ctrl Pts',(41.2098457495998,5.69183290960553,9.10139084462999E-15));
#737=CARTESIAN_POINT('Ctrl Pts',(41.1516658283464,5.69605763982404,9.09460474338796E-15));
#738=CARTESIAN_POINT('Ctrl Pts',(41.09335458069,5.69824621201577,9.08783976000075E-15));
#739=CARTESIAN_POINT('Ctrl Pts',(41.0622722677171,5.69941281174673,9.08423374333417E-15));
#740=CARTESIAN_POINT('Ctrl Pts',(41.0311525697883,5.70000000000001,9.08063372373978E-15));
#741=CARTESIAN_POINT('Ctrl Pts',(41.,5.70000000000001,9.07704581275936E-15));
#742=CARTESIAN_POINT('Origin',(6.93889390390723E-15,6.00000000000001,0.));
#743=CARTESIAN_POINT('',(47.5,7.50000000000001,5.81707229594993E-15));
#744=CARTESIAN_POINT('Origin',(3.23906022549685E-15,7.5,0.));
#745=CARTESIAN_POINT('',(47.5,4.50000000000001,-5.81707229594993E-15));
#746=CARTESIAN_POINT('Origin',(47.5,6.00000000000001,-5.81707229594993E-15));
#747=CARTESIAN_POINT('Origin',(3.60645426524105E-15,4.50000000000001,0.));
#748=CARTESIAN_POINT('Origin',(4.15754532485736E-15,-4.40872847693046E-15,
0.));
#749=CARTESIAN_POINT('',(49.,4.50000000000002,-6.00076931582203E-15));
#750=CARTESIAN_POINT('Origin',(3.60645426524105E-15,4.50000000000001,0.));
#751=CARTESIAN_POINT('',(49.,-1.97215226305253E-30,-6.00076931582203E-15));
#752=CARTESIAN_POINT('',(49.,1.59204083889156E-15,-6.00076931582203E-15));
#753=CARTESIAN_POINT('Origin',(4.15754532485736E-15,-6.00076931582203E-15,
0.));
#754=CARTESIAN_POINT('Origin',(4.15754532485736E-15,-4.40872847693046E-15,
0.));
#755=CARTESIAN_POINT('',(47.5,1.27559661998572E-14,-5.81707229594993E-15));
#756=CARTESIAN_POINT('Origin',(4.15754532485736E-15,6.93889390390723E-15,
0.));
#757=CARTESIAN_POINT('',(47.5,1.50000000000001,-5.81707229594993E-15));
#758=CARTESIAN_POINT('',(47.5,1.40834381901946E-15,-5.81707229594993E-15));
#759=CARTESIAN_POINT('Origin',(3.97384830498526E-15,1.50000000000001,0.));
#760=CARTESIAN_POINT('Origin',(4.15754532485736E-15,-4.40872847693046E-15,
0.));
#761=CARTESIAN_POINT('',(43.,1.5,-5.26598123633362E-15));
#762=CARTESIAN_POINT('Origin',(3.97384830498526E-15,1.5,0.));
#763=CARTESIAN_POINT('',(43.,8.57252759403149E-16,-5.26598123633362E-15));
#764=CARTESIAN_POINT('Origin',(3.94935536900231E-15,1.70000000000003,0.));
#765=CARTESIAN_POINT('Origin',(4.15754532485736E-15,-4.40872847693046E-15,
0.));
#766=CARTESIAN_POINT('',(38.5,5.70000000000001,-4.71489017671731E-15));
#767=CARTESIAN_POINT('Origin',(3.45949664934337E-15,5.70000000000001,0.));
#768=CARTESIAN_POINT('',(38.5,8.00000000000001,-4.71489017671731E-15));
#769=CARTESIAN_POINT('',(38.5,3.0616169978684E-16,-4.71489017671731E-15));
#770=CARTESIAN_POINT('Origin',(3.17782788553948E-15,8.00000000000001,0.));
#771=CARTESIAN_POINT('Origin',(4.15754532485736E-15,-4.40872847693046E-15,
0.));
#772=CARTESIAN_POINT('',(36.,8.,-4.40872847693047E-15));
#773=CARTESIAN_POINT('Origin',(3.17782788553948E-15,7.99999999999999,0.));
#774=CARTESIAN_POINT('',(36.,9.99999999999999,-4.40872847693047E-15));
#775=CARTESIAN_POINT('',(36.,1.4791141972894E-30,-4.40872847693047E-15));
#776=CARTESIAN_POINT('Origin',(2.93289852571001E-15,9.99999999999998,0.));
#777=CARTESIAN_POINT('Origin',(2.93289852571001E-15,9.99999999999998,0.));
#778=CARTESIAN_POINT('',(38.,12.,-4.65365783675994E-15));
#779=CARTESIAN_POINT('',(36.,9.99999999999999,-4.40872847693047E-15));
#780=CARTESIAN_POINT('Origin',(2.68796916588054E-15,12.,0.));
#781=CARTESIAN_POINT('Origin',(4.15754532485736E-15,-4.40872847693046E-15,
0.));
#782=CARTESIAN_POINT('',(46.,12.,-5.63337527607782E-15));
#783=CARTESIAN_POINT('Origin',(2.68796916588054E-15,12.,0.));
#784=CARTESIAN_POINT('',(46.,13.5,-5.63337527607782E-15));
#785=CARTESIAN_POINT('',(46.,1.22464679914735E-15,-5.63337527607782E-15));
#786=CARTESIAN_POINT('Origin',(2.50427214600843E-15,13.5,0.));
#787=CARTESIAN_POINT('Origin',(4.15754532485736E-15,-4.40872847693046E-15,
0.));
#788=CARTESIAN_POINT('',(47.5,13.5,-5.81707229594993E-15));
#789=CARTESIAN_POINT('Origin',(2.50427214600844E-15,13.5,0.));
#790=CARTESIAN_POINT('',(47.5,1.40834381901946E-15,-5.81707229594993E-15));
#791=CARTESIAN_POINT('Origin',(46.,13.5,0.));
#792=CARTESIAN_POINT('Origin',(38.,12.,0.));
#793=CARTESIAN_POINT('Origin',(38.5,8.00000000000001,0.));
#794=CARTESIAN_POINT('Origin',(41.,5.70000000000001,0.));
#795=CARTESIAN_POINT('Origin',(3.45949664934337E-15,5.70000000000001,0.));
#796=CARTESIAN_POINT('Ctrl Pts',(43.,1.70000000000003,5.26598123633362E-15));
#797=CARTESIAN_POINT('Ctrl Pts',(43.,1.70000000000003,-86.));
#798=CARTESIAN_POINT('Ctrl Pts',(-43.,1.70000000000002,-86.));
#799=CARTESIAN_POINT('Ctrl Pts',(-43.,1.70000000000002,-1.05319624726672E-14));
#800=CARTESIAN_POINT('Ctrl Pts',(43.1678856859894,1.92384758131924,5.28654130313058E-15));
#801=CARTESIAN_POINT('Ctrl Pts',(43.1678856859894,1.92384758131924,-86.3357713719788));
#802=CARTESIAN_POINT('Ctrl Pts',(-43.1678856859894,1.92384758131923,-86.3357713719788));
#803=CARTESIAN_POINT('Ctrl Pts',(-43.1678856859894,1.92384758131923,-1.05730826062612E-14));
#804=CARTESIAN_POINT('Ctrl Pts',(43.2994390059311,2.1797678689508,5.30265193834896E-15));
#805=CARTESIAN_POINT('Ctrl Pts',(43.2994390059311,2.1797678689508,-86.5988780118622));
#806=CARTESIAN_POINT('Ctrl Pts',(-43.2994390059311,2.17976786895079,-86.5988780118622));
#807=CARTESIAN_POINT('Ctrl Pts',(-43.2994390059311,2.17976786895079,-1.06053038766979E-14));
#808=CARTESIAN_POINT('Ctrl Pts',(43.383765972203,2.44656799260513,5.31297901328163E-15));
#809=CARTESIAN_POINT('Ctrl Pts',(43.383765972203,2.44656799260513,-86.767531944406));
#810=CARTESIAN_POINT('Ctrl Pts',(-43.383765972203,2.44656799260512,-86.767531944406));
#811=CARTESIAN_POINT('Ctrl Pts',(-43.383765972203,2.44656799260512,-1.06259580265633E-14));
#812=CARTESIAN_POINT('Ctrl Pts',(43.4680929384749,2.71336811625947,5.3233060882143E-15));
#813=CARTESIAN_POINT('Ctrl Pts',(43.4680929384749,2.71336811625947,-86.9361858769498));
#814=CARTESIAN_POINT('Ctrl Pts',(-43.4680929384749,2.71336811625946,-86.9361858769498));
#815=CARTESIAN_POINT('Ctrl Pts',(-43.4680929384749,2.71336811625946,-1.06466121764286E-14));
#816=CARTESIAN_POINT('Ctrl Pts',(43.5075193929241,2.99840675276103,5.32813443633858E-15));
#817=CARTESIAN_POINT('Ctrl Pts',(43.5075193929241,2.99840675276103,-87.0150387858481));
#818=CARTESIAN_POINT('Ctrl Pts',(-43.507519392924,2.99840675276102,-87.0150387858481));
#819=CARTESIAN_POINT('Ctrl Pts',(-43.5075193929241,2.99840675276102,-1.06562688726772E-14));
#820=CARTESIAN_POINT('Ctrl Pts',(43.4987804137154,3.27807972869003,5.32706422004701E-15));
#821=CARTESIAN_POINT('Ctrl Pts',(43.4987804137154,3.27807972869003,-86.9975608274308));
#822=CARTESIAN_POINT('Ctrl Pts',(-43.4987804137154,3.27807972869002,-86.9975608274308));
#823=CARTESIAN_POINT('Ctrl Pts',(-43.4987804137154,3.27807972869002,-1.0654128440094E-14));
#824=CARTESIAN_POINT('Ctrl Pts',(43.4900414345067,3.55775270461903,5.32599400375544E-15));
#825=CARTESIAN_POINT('Ctrl Pts',(43.4900414345068,3.55775270461903,-86.9800828690135));
#826=CARTESIAN_POINT('Ctrl Pts',(-43.4900414345067,3.55775270461902,-86.9800828690135));
#827=CARTESIAN_POINT('Ctrl Pts',(-43.4900414345067,3.55775270461902,-1.06519880075109E-14));
#828=CARTESIAN_POINT('Ctrl Pts',(43.4328959898038,3.83977374595958,5.31899570516131E-15));
#829=CARTESIAN_POINT('Ctrl Pts',(43.4328959898038,3.83977374595958,-86.8657919796076));
#830=CARTESIAN_POINT('Ctrl Pts',(-43.4328959898038,3.83977374595956,-86.8657919796076));
#831=CARTESIAN_POINT('Ctrl Pts',(-43.4328959898038,3.83977374595956,-1.06379914103226E-14));
#832=CARTESIAN_POINT('Ctrl Pts',(43.3320763187286,4.10078856765917,5.30664885641398E-15));
#833=CARTESIAN_POINT('Ctrl Pts',(43.3320763187286,4.10078856765917,-86.6641526374571));
#834=CARTESIAN_POINT('Ctrl Pts',(-43.3320763187285,4.10078856765916,-86.6641526374571));
#835=CARTESIAN_POINT('Ctrl Pts',(-43.3320763187286,4.10078856765916,-1.0613297712828E-14));
#836=CARTESIAN_POINT('Ctrl Pts',(43.2312566476533,4.36180338935876,5.29430200766664E-15));
#837=CARTESIAN_POINT('Ctrl Pts',(43.2312566476533,4.36180338935876,-86.4625132953066));
#838=CARTESIAN_POINT('Ctrl Pts',(-43.2312566476533,4.36180338935875,-86.4625132953066));
#839=CARTESIAN_POINT('Ctrl Pts',(-43.2312566476533,4.36180338935875,-1.05886040153333E-14));
#840=CARTESIAN_POINT('Ctrl Pts',(43.083982019197,4.60901110247093,5.27626606743317E-15));
#841=CARTESIAN_POINT('Ctrl Pts',(43.083982019197,4.60901110247093,-86.1679640383939));
#842=CARTESIAN_POINT('Ctrl Pts',(-43.0839820191969,4.60901110247092,-86.1679640383939));
#843=CARTESIAN_POINT('Ctrl Pts',(-43.083982019197,4.60901110247092,-1.05525321348663E-14));
#844=CARTESIAN_POINT('Ctrl Pts',(42.9024483093751,4.82194032879014,5.2540345997661E-15));
#845=CARTESIAN_POINT('Ctrl Pts',(42.9024483093751,4.82194032879014,-85.8048966187502));
#846=CARTESIAN_POINT('Ctrl Pts',(-42.9024483093751,4.82194032879013,-85.8048966187502));
#847=CARTESIAN_POINT('Ctrl Pts',(-42.9024483093751,4.82194032879013,-1.05080691995322E-14));
#848=CARTESIAN_POINT('Ctrl Pts',(42.7209145995532,5.03486955510936,5.23180313209903E-15));
#849=CARTESIAN_POINT('Ctrl Pts',(42.7209145995533,5.03486955510936,-85.4418291991065));
#850=CARTESIAN_POINT('Ctrl Pts',(-42.7209145995532,5.03486955510935,-85.4418291991065));
#851=CARTESIAN_POINT('Ctrl Pts',(-42.7209145995532,5.03486955510935,-1.04636062641981E-14));
#852=CARTESIAN_POINT('Ctrl Pts',(42.500114884512,5.219393145598,5.20476296567124E-15));
#853=CARTESIAN_POINT('Ctrl Pts',(42.500114884512,5.219393145598,-85.000229769024));
#854=CARTESIAN_POINT('Ctrl Pts',(-42.500114884512,5.21939314559799,-85.000229769024));
#855=CARTESIAN_POINT('Ctrl Pts',(-42.500114884512,5.21939314559799,-1.04095259313425E-14));
#856=CARTESIAN_POINT('Ctrl Pts',(42.2583336846549,5.36023062149923,5.17515330842134E-15));
#857=CARTESIAN_POINT('Ctrl Pts',(42.2583336846549,5.36023062149923,-84.5166673693097));
#858=CARTESIAN_POINT('Ctrl Pts',(-42.2583336846548,5.36023062149922,-84.5166673693097));
#859=CARTESIAN_POINT('Ctrl Pts',(-42.2583336846549,5.36023062149922,-1.03503066168427E-14));
#860=CARTESIAN_POINT('Ctrl Pts',(42.0165524847977,5.50106809740047,5.14554365117143E-15));
#861=CARTESIAN_POINT('Ctrl Pts',(42.0165524847977,5.50106809740047,-84.0331049695954));
#862=CARTESIAN_POINT('Ctrl Pts',(-42.0165524847977,5.50106809740046,-84.0331049695955));
#863=CARTESIAN_POINT('Ctrl Pts',(-42.0165524847977,5.50106809740046,-1.02910873023429E-14));
#864=CARTESIAN_POINT('Ctrl Pts',(41.747121176109,5.60210393018956,5.11254783219386E-15));
#865=CARTESIAN_POINT('Ctrl Pts',(41.747121176109,5.60210393018956,-83.494242352218));
#866=CARTESIAN_POINT('Ctrl Pts',(-41.747121176109,5.60210393018955,-83.494242352218));
#867=CARTESIAN_POINT('Ctrl Pts',(-41.747121176109,5.60210393018955,-1.02250956643877E-14));
#868=CARTESIAN_POINT('Ctrl Pts',(41.4723514824065,5.65497129862418,5.07889824960431E-15));
#869=CARTESIAN_POINT('Ctrl Pts',(41.4723514824065,5.65497129862418,-82.9447029648129));
#870=CARTESIAN_POINT('Ctrl Pts',(-41.4723514824064,5.65497129862417,-82.9447029648129));
#871=CARTESIAN_POINT('Ctrl Pts',(-41.4723514824065,5.65497129862417,-1.01577964992086E-14));
#872=CARTESIAN_POINT('Ctrl Pts',(41.3170359574379,5.68485495490186,5.05987758355324E-15));
#873=CARTESIAN_POINT('Ctrl Pts',(41.3170359574379,5.68485495490186,-82.6340719148757));
#874=CARTESIAN_POINT('Ctrl Pts',(-41.3170359574378,5.68485495490185,-82.6340719148757));
#875=CARTESIAN_POINT('Ctrl Pts',(-41.3170359574379,5.68485495490185,-1.01197551671065E-14));
#876=CARTESIAN_POINT('Ctrl Pts',(41.1581642981485,5.70000000000001,5.04042141665084E-15));
#877=CARTESIAN_POINT('Ctrl Pts',(41.1581642981485,5.70000000000001,-82.3163285962969));
#878=CARTESIAN_POINT('Ctrl Pts',(-41.1581642981484,5.7,-82.3163285962969));
#879=CARTESIAN_POINT('Ctrl Pts',(-41.1581642981485,5.7,-1.00808428333017E-14));
#880=CARTESIAN_POINT('Ctrl Pts',(41.,5.70000000000001,5.02105187650415E-15));
#881=CARTESIAN_POINT('Ctrl Pts',(41.,5.70000000000001,-82.));
#882=CARTESIAN_POINT('Ctrl Pts',(-41.,5.7,-82.));
#883=CARTESIAN_POINT('Ctrl Pts',(-41.,5.7,-1.00421037530083E-14));
#884=CARTESIAN_POINT('Origin',(47.5,1.50000000000001,0.));
#885=CARTESIAN_POINT('Origin',(49.,6.46983160986463E-15,0.));
#886=CARTESIAN_POINT('Origin',(47.5,4.50000000000001,0.));
#887=CARTESIAN_POINT('Origin',(6.93889390390723E-15,3.20000000000001,0.));
#888=CARTESIAN_POINT('',(38.6,3.20000000000002,-4.72713664470878E-15));
#889=CARTESIAN_POINT('Origin',(41.,3.20000000000002,-5.02105187650415E-15));
#890=CARTESIAN_POINT('Origin',(6.93889390390723E-15,3.20000000000001,0.));
#891=CARTESIAN_POINT('',(0.,0.,0.));
#892=CARTESIAN_POINT('Origin',(0.,2.2,0.));
#893=CARTESIAN_POINT('',(4.65978107075568E-15,2.50000000000003,38.05));
#894=CARTESIAN_POINT('',(-4.65978107075568E-15,2.50000000000003,-38.05));
#895=CARTESIAN_POINT('Origin',(0.,2.50000000000003,0.));
#896=CARTESIAN_POINT('Origin',(0.,2.50000000000003,0.));
#897=CARTESIAN_POINT('',(-4.62304166678126E-15,2.2,-37.75));
#898=CARTESIAN_POINT('',(-4.62304166678126E-15,2.2,-37.75));
#899=CARTESIAN_POINT('Origin',(0.,2.2,0.));
#900=CARTESIAN_POINT('Origin',(0.,7.7,0.));
#901=CARTESIAN_POINT('',(-4.65978107075568E-15,7.7,38.05));
#902=CARTESIAN_POINT('Origin',(0.,7.7,0.));
#903=CARTESIAN_POINT('',(-4.62304166678126E-15,8.,37.75));
#904=CARTESIAN_POINT('',(-4.65978107075568E-15,7.7,38.05));
#905=CARTESIAN_POINT('Origin',(0.,8.,0.));
#906=CARTESIAN_POINT('Origin',(0.,-2.98413207101093,0.));
#907=CARTESIAN_POINT('',(-4.396482008939E-15,8.,35.9));
#908=CARTESIAN_POINT('Origin',(0.,8.,0.));
#909=CARTESIAN_POINT('',(-4.396482008939E-15,8.3,35.9));
#910=CARTESIAN_POINT('',(-4.396482008939E-15,-2.98413207101093,35.9));
#911=CARTESIAN_POINT('Origin',(0.,8.3,0.));
#912=CARTESIAN_POINT('Origin',(0.,-2.98413207101093,0.));
#913=CARTESIAN_POINT('',(-4.65978107075568E-15,-2.98413207101093,38.05));
#914=CARTESIAN_POINT('Origin',(4.81482486096809E-32,2.2,0.));
#915=CARTESIAN_POINT('Origin',(-35.9,8.,0.));
#916=CARTESIAN_POINT('Origin',(-35.9,8.3,0.));
#917=CARTESIAN_POINT('',(0.,0.,0.));
#918=CARTESIAN_POINT('',(0.,0.,0.));
#919=UNCERTAINTY_MEASURE_WITH_UNIT(LENGTH_MEASURE(0.01),#927,
'DISTANCE_ACCURACY_VALUE',
'Maximum model space distance between geometric entities at asserted c
onnectivities');
#920=UNCERTAINTY_MEASURE_WITH_UNIT(LENGTH_MEASURE(0.01),#927,
'DISTANCE_ACCURACY_VALUE',
'Maximum model space distance between geometric entities at asserted c
onnectivities');
#921=UNCERTAINTY_MEASURE_WITH_UNIT(LENGTH_MEASURE(0.01),#927,
'DISTANCE_ACCURACY_VALUE',
'Maximum model space distance between geometric entities at asserted c
onnectivities');
#922=UNCERTAINTY_MEASURE_WITH_UNIT(LENGTH_MEASURE(0.01),#927,
'DISTANCE_ACCURACY_VALUE',
'Maximum model space distance between geometric entities at asserted c
onnectivities');
#923=(
GEOMETRIC_REPRESENTATION_CONTEXT(3)
GLOBAL_UNCERTAINTY_ASSIGNED_CONTEXT((#919))
GLOBAL_UNIT_ASSIGNED_CONTEXT((#927,#929,#930))
REPRESENTATION_CONTEXT('','3D')
);
#924=(
GEOMETRIC_REPRESENTATION_CONTEXT(3)
GLOBAL_UNCERTAINTY_ASSIGNED_CONTEXT((#920))
GLOBAL_UNIT_ASSIGNED_CONTEXT((#927,#929,#930))
REPRESENTATION_CONTEXT('','3D')
);
#925=(
GEOMETRIC_REPRESENTATION_CONTEXT(3)
GLOBAL_UNCERTAINTY_ASSIGNED_CONTEXT((#921))
GLOBAL_UNIT_ASSIGNED_CONTEXT((#927,#929,#930))
REPRESENTATION_CONTEXT('','3D')
);
#926=(
GEOMETRIC_REPRESENTATION_CONTEXT(3)
GLOBAL_UNCERTAINTY_ASSIGNED_CONTEXT((#922))
GLOBAL_UNIT_ASSIGNED_CONTEXT((#927,#929,#930))
REPRESENTATION_CONTEXT('','3D')
);
#927=(
LENGTH_UNIT()
NAMED_UNIT(*)
SI_UNIT(.MILLI.,.METRE.)
);
#928=(
LENGTH_UNIT()
NAMED_UNIT(*)
SI_UNIT($,.METRE.)
);
#929=(
NAMED_UNIT(*)
PLANE_ANGLE_UNIT()
SI_UNIT($,.RADIAN.)
);
#930=(
NAMED_UNIT(*)
SI_UNIT($,.STERADIAN.)
SOLID_ANGLE_UNIT()
);
#931=SHAPE_DEFINITION_REPRESENTATION(#934,#939);
#932=SHAPE_DEFINITION_REPRESENTATION(#935,#940);
#933=SHAPE_DEFINITION_REPRESENTATION(#936,#941);
#934=PRODUCT_DEFINITION_SHAPE('',$,#943);
#935=PRODUCT_DEFINITION_SHAPE('',$,#944);
#936=PRODUCT_DEFINITION_SHAPE('',$,#945);
#937=PRODUCT_DEFINITION_SHAPE($,$,#17);
#938=PRODUCT_DEFINITION_SHAPE($,$,#18);
#939=SHAPE_REPRESENTATION('',(#386,#442,#443),#923);
#940=SHAPE_REPRESENTATION('',(#387),#924);
#941=SHAPE_REPRESENTATION('',(#427),#925);
#942=PRODUCT_DEFINITION_CONTEXT('part definition',#953,'design');
#943=PRODUCT_DEFINITION('Hositrad_HVP-ISO63','Hositrad_HVP-ISO63 v1',#946,
#942);
#944=PRODUCT_DEFINITION('ISO63-HVP2500','ISO63-HVP2500',#947,#942);
#945=PRODUCT_DEFINITION('Glass-76','Glass-76',#948,#942);
#946=PRODUCT_DEFINITION_FORMATION('',$,#955);
#947=PRODUCT_DEFINITION_FORMATION('',$,#956);
#948=PRODUCT_DEFINITION_FORMATION('',$,#957);
#949=PRODUCT_RELATED_PRODUCT_CATEGORY('Hositrad_HVP-ISO63 v1',
'Hositrad_HVP-ISO63 v1',(#955));
#950=PRODUCT_RELATED_PRODUCT_CATEGORY('ISO63-HVP2500','ISO63-HVP2500',(#956));
#951=PRODUCT_RELATED_PRODUCT_CATEGORY('Glass-76','Glass-76',(#957));
#952=APPLICATION_PROTOCOL_DEFINITION('international standard',
'automotive_design',2009,#953);
#953=APPLICATION_CONTEXT(
'Core Data for Automotive Mechanical Design Process');
#954=PRODUCT_CONTEXT('part definition',#953,'mechanical');
#955=PRODUCT('Hositrad_HVP-ISO63','Hositrad_HVP-ISO63 v1',$,(#954));
#956=PRODUCT('ISO63-HVP2500','ISO63-HVP2500',$,(#954));
#957=PRODUCT('Glass-76','Glass-76',$,(#954));
#958=PRESENTATION_STYLE_ASSIGNMENT((#962));
#959=PRESENTATION_STYLE_ASSIGNMENT((#963));
#960=PRESENTATION_STYLE_ASSIGNMENT((#964));
#961=PRESENTATION_STYLE_ASSIGNMENT((#965));
#962=SURFACE_STYLE_USAGE(.BOTH.,#966);
#963=SURFACE_STYLE_USAGE(.BOTH.,#967);
#964=SURFACE_STYLE_USAGE(.BOTH.,#968);
#965=SURFACE_STYLE_USAGE(.BOTH.,#969);
#966=SURFACE_SIDE_STYLE('',(#970));
#967=SURFACE_SIDE_STYLE('',(#971));
#968=SURFACE_SIDE_STYLE('',(#972));
#969=SURFACE_SIDE_STYLE('',(#973));
#970=SURFACE_STYLE_FILL_AREA(#974);
#971=SURFACE_STYLE_FILL_AREA(#975);
#972=SURFACE_STYLE_FILL_AREA(#976);
#973=SURFACE_STYLE_FILL_AREA(#977);
#974=FILL_AREA_STYLE('Steel - Satin',(#978));
#975=FILL_AREA_STYLE('Opaque(165,158,150)',(#979));
#976=FILL_AREA_STYLE('Opaque(0,192,0)',(#980));
#977=FILL_AREA_STYLE('Opaque(192,255,255)',(#981));
#978=FILL_AREA_STYLE_COLOUR('Steel - Satin',#982);
#979=FILL_AREA_STYLE_COLOUR('Opaque(165,158,150)',#983);
#980=FILL_AREA_STYLE_COLOUR('Opaque(0,192,0)',#984);
#981=FILL_AREA_STYLE_COLOUR('Opaque(192,255,255)',#985);
#982=COLOUR_RGB('Steel - Satin',0.627450980392157,0.627450980392157,0.627450980392157);
#983=COLOUR_RGB('Opaque(165,158,150)',0.647058823529412,0.619607843137255,
0.588235294117647);
#984=COLOUR_RGB('Opaque(0,192,0)',0.,0.752941176470588,0.);
#985=COLOUR_RGB('Opaque(192,255,255)',0.752941176470588,1.,1.);
ENDSEC;
END-ISO-10303-21;
