ISO-10303-21;
HEADER;
/* Generated by software containing ST-Developer
 * from STEP Tools, Inc. (www.steptools.com) 
 */

FILE_DESCRIPTION(
/* description */ (''),
/* implementation_level */ '2;1');

FILE_NAME(
/* name */ 'Hositrad_CF35-Blank v2.step',
/* time_stamp */ '2024-06-25T13:44:54+02:00',
/* author */ (''),
/* organization */ (''),
/* preprocessor_version */ 'ST-DEVELOPER v20',
/* originating_system */ 'Autodesk Translation Framework v13.14.0.145',

/* authorisation */ '');

FILE_SCHEMA (('AUTOMOTIVE_DESIGN { 1 0 10303 214 3 1 1 }'));
ENDSEC;

DATA;
#10=MECHANICAL_DESIGN_GEOMETRIC_PRESENTATION_REPRESENTATION('',(#13),#1017);
#11=SHAPE_REPRESENTATION_RELATIONSHIP('SRR','None',#1024,#12);
#12=ADVANCED_BREP_SHAPE_REPRESENTATION('',(#14),#1016);
#13=STYLED_ITEM('',(#1034),#14);
#14=MANIFOLD_SOLID_BREP('Body1',#566);
#15=FACE_BOUND('',#101,.T.);
#16=FACE_BOUND('',#102,.T.);
#17=FACE_BOUND('',#103,.T.);
#18=FACE_BOUND('',#104,.T.);
#19=FACE_BOUND('',#105,.T.);
#20=FACE_BOUND('',#106,.T.);
#21=FACE_BOUND('',#108,.T.);
#22=FACE_BOUND('',#109,.T.);
#23=FACE_BOUND('',#110,.T.);
#24=FACE_BOUND('',#111,.T.);
#25=FACE_BOUND('',#112,.T.);
#26=FACE_BOUND('',#113,.T.);
#27=PLANE('',#653);
#28=PLANE('',#654);
#29=PLANE('',#655);
#30=PLANE('',#656);
#31=PLANE('',#657);
#32=PLANE('',#658);
#33=CYLINDRICAL_SURFACE('',#638,3.35);
#34=CYLINDRICAL_SURFACE('',#639,3.35);
#35=CYLINDRICAL_SURFACE('',#640,3.35);
#36=CYLINDRICAL_SURFACE('',#641,3.35);
#37=CYLINDRICAL_SURFACE('',#642,3.35);
#38=CYLINDRICAL_SURFACE('',#643,3.35);
#39=CYLINDRICAL_SURFACE('',#649,24.175);
#40=CYLINDRICAL_SURFACE('',#651,35.);
#41=ELLIPSE('',#627,0.199835935098418,0.199825855324089);
#42=ELLIPSE('',#629,0.199835952617481,0.199825871462866);
#43=TOROIDAL_SURFACE('',#622,23.975,0.2);
#44=FACE_OUTER_BOUND('',#75,.T.);
#45=FACE_OUTER_BOUND('',#76,.T.);
#46=FACE_OUTER_BOUND('',#77,.T.);
#47=FACE_OUTER_BOUND('',#78,.T.);
#48=FACE_OUTER_BOUND('',#79,.T.);
#49=FACE_OUTER_BOUND('',#80,.T.);
#50=FACE_OUTER_BOUND('',#81,.T.);
#51=FACE_OUTER_BOUND('',#82,.T.);
#52=FACE_OUTER_BOUND('',#83,.T.);
#53=FACE_OUTER_BOUND('',#84,.T.);
#54=FACE_OUTER_BOUND('',#85,.T.);
#55=FACE_OUTER_BOUND('',#86,.T.);
#56=FACE_OUTER_BOUND('',#87,.T.);
#57=FACE_OUTER_BOUND('',#88,.T.);
#58=FACE_OUTER_BOUND('',#89,.T.);
#59=FACE_OUTER_BOUND('',#90,.T.);
#60=FACE_OUTER_BOUND('',#91,.T.);
#61=FACE_OUTER_BOUND('',#92,.T.);
#62=FACE_OUTER_BOUND('',#93,.T.);
#63=FACE_OUTER_BOUND('',#94,.T.);
#64=FACE_OUTER_BOUND('',#95,.T.);
#65=FACE_OUTER_BOUND('',#96,.T.);
#66=FACE_OUTER_BOUND('',#97,.T.);
#67=FACE_OUTER_BOUND('',#98,.T.);
#68=FACE_OUTER_BOUND('',#99,.T.);
#69=FACE_OUTER_BOUND('',#100,.T.);
#70=FACE_OUTER_BOUND('',#107,.T.);
#71=FACE_OUTER_BOUND('',#114,.T.);
#72=FACE_OUTER_BOUND('',#115,.T.);
#73=FACE_OUTER_BOUND('',#116,.T.);
#74=FACE_OUTER_BOUND('',#117,.T.);
#75=EDGE_LOOP('',(#359,#360,#361,#362,#363));
#76=EDGE_LOOP('',(#364,#365,#366,#367));
#77=EDGE_LOOP('',(#368,#369,#370,#371,#372));
#78=EDGE_LOOP('',(#373,#374,#375,#376));
#79=EDGE_LOOP('',(#377,#378,#379,#380,#381));
#80=EDGE_LOOP('',(#382,#383,#384,#385));
#81=EDGE_LOOP('',(#386,#387,#388,#389,#390));
#82=EDGE_LOOP('',(#391,#392,#393,#394));
#83=EDGE_LOOP('',(#395,#396,#397,#398,#399));
#84=EDGE_LOOP('',(#400,#401,#402,#403));
#85=EDGE_LOOP('',(#404,#405,#406,#407,#408));
#86=EDGE_LOOP('',(#409,#410,#411,#412));
#87=EDGE_LOOP('',(#413,#414,#415,#416,#417,#418,#419,#420,#421));
#88=EDGE_LOOP('',(#422,#423,#424,#425));
#89=EDGE_LOOP('',(#426,#427,#428,#429,#430));
#90=EDGE_LOOP('',(#431,#432,#433,#434,#435));
#91=EDGE_LOOP('',(#436,#437,#438,#439,#440));
#92=EDGE_LOOP('',(#441,#442,#443,#444,#445));
#93=EDGE_LOOP('',(#446,#447,#448,#449,#450));
#94=EDGE_LOOP('',(#451,#452,#453,#454,#455));
#95=EDGE_LOOP('',(#456,#457,#458,#459,#460));
#96=EDGE_LOOP('',(#461,#462,#463,#464,#465));
#97=EDGE_LOOP('',(#466,#467,#468,#469,#470,#471));
#98=EDGE_LOOP('',(#472,#473,#474,#475,#476));
#99=EDGE_LOOP('',(#477,#478,#479,#480,#481,#482,#483,#484));
#100=EDGE_LOOP('',(#485));
#101=EDGE_LOOP('',(#486));
#102=EDGE_LOOP('',(#487));
#103=EDGE_LOOP('',(#488));
#104=EDGE_LOOP('',(#489));
#105=EDGE_LOOP('',(#490));
#106=EDGE_LOOP('',(#491));
#107=EDGE_LOOP('',(#492,#493,#494,#495));
#108=EDGE_LOOP('',(#496));
#109=EDGE_LOOP('',(#497));
#110=EDGE_LOOP('',(#498));
#111=EDGE_LOOP('',(#499));
#112=EDGE_LOOP('',(#500));
#113=EDGE_LOOP('',(#501));
#114=EDGE_LOOP('',(#502));
#115=EDGE_LOOP('',(#503,#504,#505,#506));
#116=EDGE_LOOP('',(#507,#508,#509,#510,#511,#512));
#117=EDGE_LOOP('',(#513,#514,#515,#516,#517,#518));
#118=LINE('',#858,#150);
#119=LINE('',#864,#151);
#120=LINE('',#872,#152);
#121=LINE('',#878,#153);
#122=LINE('',#886,#154);
#123=LINE('',#892,#155);
#124=LINE('',#900,#156);
#125=LINE('',#906,#157);
#126=LINE('',#914,#158);
#127=LINE('',#920,#159);
#128=LINE('',#928,#160);
#129=LINE('',#934,#161);
#130=LINE('',#956,#162);
#131=LINE('',#963,#163);
#132=LINE('',#968,#164);
#133=LINE('',#970,#165);
#134=LINE('',#972,#166);
#135=LINE('',#974,#167);
#136=LINE('',#976,#168);
#137=LINE('',#978,#169);
#138=LINE('',#980,#170);
#139=LINE('',#985,#171);
#140=LINE('',#990,#172);
#141=LINE('',#993,#173);
#142=LINE('',#996,#174);
#143=LINE('',#998,#175);
#144=LINE('',#1000,#176);
#145=LINE('',#1003,#177);
#146=LINE('',#1006,#178);
#147=LINE('',#1007,#179);
#148=LINE('',#1010,#180);
#149=LINE('',#1011,#181);
#150=VECTOR('',#667,3.64999999999997);
#151=VECTOR('',#674,3.35);
#152=VECTOR('',#683,3.65);
#153=VECTOR('',#690,3.35);
#154=VECTOR('',#699,3.64999999999999);
#155=VECTOR('',#706,3.35);
#156=VECTOR('',#715,3.64999999999999);
#157=VECTOR('',#722,3.35);
#158=VECTOR('',#731,3.65);
#159=VECTOR('',#738,3.35);
#160=VECTOR('',#747,3.64999999999999);
#161=VECTOR('',#754,3.35);
#162=VECTOR('',#779,35.);
#163=VECTOR('',#786,10.);
#164=VECTOR('',#791,10.);
#165=VECTOR('',#794,3.35);
#166=VECTOR('',#797,3.35);
#167=VECTOR('',#800,3.35);
#168=VECTOR('',#803,3.35);
#169=VECTOR('',#806,3.35);
#170=VECTOR('',#809,3.35);
#171=VECTOR('',#814,20.7316178594403);
#172=VECTOR('',#821,20.95);
#173=VECTOR('',#824,1000.);
#174=VECTOR('',#827,1000.);
#175=VECTOR('',#830,35.);
#176=VECTOR('',#831,1000.);
#177=VECTOR('',#834,1000.);
#178=VECTOR('',#839,1000.);
#179=VECTOR('',#840,1000.);
#180=VECTOR('',#845,1000.);
#181=VECTOR('',#846,1000.);
#182=CIRCLE('',#581,3.35);
#183=CIRCLE('',#582,3.35);
#184=CIRCLE('',#583,3.64999999999998);
#185=CIRCLE('',#585,3.35);
#186=CIRCLE('',#586,3.65);
#187=CIRCLE('',#588,3.35);
#188=CIRCLE('',#589,3.35);
#189=CIRCLE('',#590,3.65);
#190=CIRCLE('',#592,3.35);
#191=CIRCLE('',#593,3.65);
#192=CIRCLE('',#595,3.35);
#193=CIRCLE('',#596,3.35);
#194=CIRCLE('',#597,3.64999999999999);
#195=CIRCLE('',#599,3.35);
#196=CIRCLE('',#600,3.65);
#197=CIRCLE('',#602,3.35);
#198=CIRCLE('',#603,3.35);
#199=CIRCLE('',#604,3.64999999999998);
#200=CIRCLE('',#606,3.35);
#201=CIRCLE('',#607,3.64999999999999);
#202=CIRCLE('',#609,3.35);
#203=CIRCLE('',#610,3.35);
#204=CIRCLE('',#611,3.65);
#205=CIRCLE('',#613,3.35);
#206=CIRCLE('',#614,3.64999999999997);
#207=CIRCLE('',#616,3.35);
#208=CIRCLE('',#617,3.35);
#209=CIRCLE('',#618,3.64999999999999);
#210=CIRCLE('',#620,3.35);
#211=CIRCLE('',#621,3.65);
#212=CIRCLE('',#623,23.9065959713349);
#213=CIRCLE('',#624,23.9065959713349);
#214=CIRCLE('',#625,0.2);
#215=CIRCLE('',#626,24.175);
#216=CIRCLE('',#628,24.1746500821012);
#217=CIRCLE('',#630,24.175);
#218=CIRCLE('',#632,35.);
#219=CIRCLE('',#633,34.6);
#220=CIRCLE('',#635,34.6);
#221=CIRCLE('',#636,35.);
#222=CIRCLE('',#637,35.);
#223=CIRCLE('',#645,20.7316178594403);
#224=CIRCLE('',#646,20.95);
#225=CIRCLE('',#647,20.95);
#226=CIRCLE('',#650,24.175);
#227=CIRCLE('',#652,35.);
#228=VERTEX_POINT('',#853);
#229=VERTEX_POINT('',#854);
#230=VERTEX_POINT('',#857);
#231=VERTEX_POINT('',#861);
#232=VERTEX_POINT('',#863);
#233=VERTEX_POINT('',#867);
#234=VERTEX_POINT('',#868);
#235=VERTEX_POINT('',#871);
#236=VERTEX_POINT('',#875);
#237=VERTEX_POINT('',#877);
#238=VERTEX_POINT('',#881);
#239=VERTEX_POINT('',#882);
#240=VERTEX_POINT('',#885);
#241=VERTEX_POINT('',#889);
#242=VERTEX_POINT('',#891);
#243=VERTEX_POINT('',#895);
#244=VERTEX_POINT('',#896);
#245=VERTEX_POINT('',#899);
#246=VERTEX_POINT('',#903);
#247=VERTEX_POINT('',#905);
#248=VERTEX_POINT('',#909);
#249=VERTEX_POINT('',#910);
#250=VERTEX_POINT('',#913);
#251=VERTEX_POINT('',#917);
#252=VERTEX_POINT('',#919);
#253=VERTEX_POINT('',#923);
#254=VERTEX_POINT('',#924);
#255=VERTEX_POINT('',#927);
#256=VERTEX_POINT('',#931);
#257=VERTEX_POINT('',#933);
#258=VERTEX_POINT('',#937);
#259=VERTEX_POINT('',#938);
#260=VERTEX_POINT('',#941);
#261=VERTEX_POINT('',#943);
#262=VERTEX_POINT('',#945);
#263=VERTEX_POINT('',#947);
#264=VERTEX_POINT('',#949);
#265=VERTEX_POINT('',#953);
#266=VERTEX_POINT('',#955);
#267=VERTEX_POINT('',#959);
#268=VERTEX_POINT('',#960);
#269=VERTEX_POINT('',#962);
#270=VERTEX_POINT('',#964);
#271=VERTEX_POINT('',#966);
#272=VERTEX_POINT('',#982);
#273=VERTEX_POINT('',#984);
#274=VERTEX_POINT('',#986);
#275=VERTEX_POINT('',#992);
#276=VERTEX_POINT('',#994);
#277=VERTEX_POINT('',#999);
#278=VERTEX_POINT('',#1001);
#279=EDGE_CURVE('',#228,#229,#182,.T.);
#280=EDGE_CURVE('',#229,#228,#183,.T.);
#281=EDGE_CURVE('',#229,#230,#118,.T.);
#282=EDGE_CURVE('',#230,#230,#184,.T.);
#283=EDGE_CURVE('',#231,#231,#185,.T.);
#284=EDGE_CURVE('',#231,#232,#119,.T.);
#285=EDGE_CURVE('',#232,#232,#186,.T.);
#286=EDGE_CURVE('',#233,#234,#187,.T.);
#287=EDGE_CURVE('',#234,#233,#188,.T.);
#288=EDGE_CURVE('',#234,#235,#120,.T.);
#289=EDGE_CURVE('',#235,#235,#189,.T.);
#290=EDGE_CURVE('',#236,#236,#190,.T.);
#291=EDGE_CURVE('',#236,#237,#121,.T.);
#292=EDGE_CURVE('',#237,#237,#191,.T.);
#293=EDGE_CURVE('',#238,#239,#192,.T.);
#294=EDGE_CURVE('',#239,#238,#193,.T.);
#295=EDGE_CURVE('',#239,#240,#122,.T.);
#296=EDGE_CURVE('',#240,#240,#194,.T.);
#297=EDGE_CURVE('',#241,#241,#195,.T.);
#298=EDGE_CURVE('',#241,#242,#123,.T.);
#299=EDGE_CURVE('',#242,#242,#196,.T.);
#300=EDGE_CURVE('',#243,#244,#197,.T.);
#301=EDGE_CURVE('',#244,#243,#198,.T.);
#302=EDGE_CURVE('',#244,#245,#124,.T.);
#303=EDGE_CURVE('',#245,#245,#199,.T.);
#304=EDGE_CURVE('',#246,#246,#200,.T.);
#305=EDGE_CURVE('',#246,#247,#125,.T.);
#306=EDGE_CURVE('',#247,#247,#201,.T.);
#307=EDGE_CURVE('',#248,#249,#202,.T.);
#308=EDGE_CURVE('',#249,#248,#203,.T.);
#309=EDGE_CURVE('',#249,#250,#126,.T.);
#310=EDGE_CURVE('',#250,#250,#204,.T.);
#311=EDGE_CURVE('',#251,#251,#205,.T.);
#312=EDGE_CURVE('',#251,#252,#127,.T.);
#313=EDGE_CURVE('',#252,#252,#206,.T.);
#314=EDGE_CURVE('',#253,#254,#207,.T.);
#315=EDGE_CURVE('',#254,#253,#208,.T.);
#316=EDGE_CURVE('',#254,#255,#128,.T.);
#317=EDGE_CURVE('',#255,#255,#209,.T.);
#318=EDGE_CURVE('',#256,#256,#210,.T.);
#319=EDGE_CURVE('',#256,#257,#129,.T.);
#320=EDGE_CURVE('',#257,#257,#211,.T.);
#321=EDGE_CURVE('',#258,#259,#212,.T.);
#322=EDGE_CURVE('',#259,#258,#213,.T.);
#323=EDGE_CURVE('',#259,#260,#214,.T.);
#324=EDGE_CURVE('',#261,#260,#215,.T.);
#325=EDGE_CURVE('',#261,#262,#41,.T.);
#326=EDGE_CURVE('',#262,#263,#216,.T.);
#327=EDGE_CURVE('',#263,#264,#42,.T.);
#328=EDGE_CURVE('',#260,#264,#217,.T.);
#329=EDGE_CURVE('',#265,#265,#218,.T.);
#330=EDGE_CURVE('',#265,#266,#130,.T.);
#331=EDGE_CURVE('',#266,#266,#219,.T.);
#332=EDGE_CURVE('',#267,#268,#220,.T.);
#333=EDGE_CURVE('',#269,#267,#131,.T.);
#334=EDGE_CURVE('',#270,#269,#221,.T.);
#335=EDGE_CURVE('',#271,#270,#222,.T.);
#336=EDGE_CURVE('',#268,#271,#132,.T.);
#337=EDGE_CURVE('',#228,#231,#133,.T.);
#338=EDGE_CURVE('',#233,#236,#134,.T.);
#339=EDGE_CURVE('',#238,#241,#135,.T.);
#340=EDGE_CURVE('',#243,#246,#136,.T.);
#341=EDGE_CURVE('',#248,#251,#137,.T.);
#342=EDGE_CURVE('',#253,#256,#138,.T.);
#343=EDGE_CURVE('',#272,#272,#223,.T.);
#344=EDGE_CURVE('',#272,#273,#139,.T.);
#345=EDGE_CURVE('',#273,#274,#224,.T.);
#346=EDGE_CURVE('',#274,#273,#225,.T.);
#347=EDGE_CURVE('',#258,#274,#140,.T.);
#348=EDGE_CURVE('',#275,#264,#141,.T.);
#349=EDGE_CURVE('',#275,#276,#226,.T.);
#350=EDGE_CURVE('',#261,#276,#142,.T.);
#351=EDGE_CURVE('',#270,#265,#143,.T.);
#352=EDGE_CURVE('',#277,#269,#144,.T.);
#353=EDGE_CURVE('',#278,#277,#227,.T.);
#354=EDGE_CURVE('',#271,#278,#145,.T.);
#355=EDGE_CURVE('',#267,#275,#146,.T.);
#356=EDGE_CURVE('',#276,#268,#147,.T.);
#357=EDGE_CURVE('',#277,#263,#148,.T.);
#358=EDGE_CURVE('',#262,#278,#149,.T.);
#359=ORIENTED_EDGE('',*,*,#279,.F.);
#360=ORIENTED_EDGE('',*,*,#280,.F.);
#361=ORIENTED_EDGE('',*,*,#281,.T.);
#362=ORIENTED_EDGE('',*,*,#282,.F.);
#363=ORIENTED_EDGE('',*,*,#281,.F.);
#364=ORIENTED_EDGE('',*,*,#283,.F.);
#365=ORIENTED_EDGE('',*,*,#284,.T.);
#366=ORIENTED_EDGE('',*,*,#285,.F.);
#367=ORIENTED_EDGE('',*,*,#284,.F.);
#368=ORIENTED_EDGE('',*,*,#286,.F.);
#369=ORIENTED_EDGE('',*,*,#287,.F.);
#370=ORIENTED_EDGE('',*,*,#288,.T.);
#371=ORIENTED_EDGE('',*,*,#289,.F.);
#372=ORIENTED_EDGE('',*,*,#288,.F.);
#373=ORIENTED_EDGE('',*,*,#290,.F.);
#374=ORIENTED_EDGE('',*,*,#291,.T.);
#375=ORIENTED_EDGE('',*,*,#292,.F.);
#376=ORIENTED_EDGE('',*,*,#291,.F.);
#377=ORIENTED_EDGE('',*,*,#293,.F.);
#378=ORIENTED_EDGE('',*,*,#294,.F.);
#379=ORIENTED_EDGE('',*,*,#295,.T.);
#380=ORIENTED_EDGE('',*,*,#296,.F.);
#381=ORIENTED_EDGE('',*,*,#295,.F.);
#382=ORIENTED_EDGE('',*,*,#297,.F.);
#383=ORIENTED_EDGE('',*,*,#298,.T.);
#384=ORIENTED_EDGE('',*,*,#299,.F.);
#385=ORIENTED_EDGE('',*,*,#298,.F.);
#386=ORIENTED_EDGE('',*,*,#300,.F.);
#387=ORIENTED_EDGE('',*,*,#301,.F.);
#388=ORIENTED_EDGE('',*,*,#302,.T.);
#389=ORIENTED_EDGE('',*,*,#303,.F.);
#390=ORIENTED_EDGE('',*,*,#302,.F.);
#391=ORIENTED_EDGE('',*,*,#304,.F.);
#392=ORIENTED_EDGE('',*,*,#305,.T.);
#393=ORIENTED_EDGE('',*,*,#306,.F.);
#394=ORIENTED_EDGE('',*,*,#305,.F.);
#395=ORIENTED_EDGE('',*,*,#307,.F.);
#396=ORIENTED_EDGE('',*,*,#308,.F.);
#397=ORIENTED_EDGE('',*,*,#309,.T.);
#398=ORIENTED_EDGE('',*,*,#310,.F.);
#399=ORIENTED_EDGE('',*,*,#309,.F.);
#400=ORIENTED_EDGE('',*,*,#311,.F.);
#401=ORIENTED_EDGE('',*,*,#312,.T.);
#402=ORIENTED_EDGE('',*,*,#313,.F.);
#403=ORIENTED_EDGE('',*,*,#312,.F.);
#404=ORIENTED_EDGE('',*,*,#314,.F.);
#405=ORIENTED_EDGE('',*,*,#315,.F.);
#406=ORIENTED_EDGE('',*,*,#316,.T.);
#407=ORIENTED_EDGE('',*,*,#317,.F.);
#408=ORIENTED_EDGE('',*,*,#316,.F.);
#409=ORIENTED_EDGE('',*,*,#318,.F.);
#410=ORIENTED_EDGE('',*,*,#319,.T.);
#411=ORIENTED_EDGE('',*,*,#320,.F.);
#412=ORIENTED_EDGE('',*,*,#319,.F.);
#413=ORIENTED_EDGE('',*,*,#321,.F.);
#414=ORIENTED_EDGE('',*,*,#322,.F.);
#415=ORIENTED_EDGE('',*,*,#323,.T.);
#416=ORIENTED_EDGE('',*,*,#324,.F.);
#417=ORIENTED_EDGE('',*,*,#325,.T.);
#418=ORIENTED_EDGE('',*,*,#326,.T.);
#419=ORIENTED_EDGE('',*,*,#327,.T.);
#420=ORIENTED_EDGE('',*,*,#328,.F.);
#421=ORIENTED_EDGE('',*,*,#323,.F.);
#422=ORIENTED_EDGE('',*,*,#329,.F.);
#423=ORIENTED_EDGE('',*,*,#330,.T.);
#424=ORIENTED_EDGE('',*,*,#331,.F.);
#425=ORIENTED_EDGE('',*,*,#330,.F.);
#426=ORIENTED_EDGE('',*,*,#332,.F.);
#427=ORIENTED_EDGE('',*,*,#333,.F.);
#428=ORIENTED_EDGE('',*,*,#334,.F.);
#429=ORIENTED_EDGE('',*,*,#335,.F.);
#430=ORIENTED_EDGE('',*,*,#336,.F.);
#431=ORIENTED_EDGE('',*,*,#279,.T.);
#432=ORIENTED_EDGE('',*,*,#280,.T.);
#433=ORIENTED_EDGE('',*,*,#337,.T.);
#434=ORIENTED_EDGE('',*,*,#283,.T.);
#435=ORIENTED_EDGE('',*,*,#337,.F.);
#436=ORIENTED_EDGE('',*,*,#286,.T.);
#437=ORIENTED_EDGE('',*,*,#287,.T.);
#438=ORIENTED_EDGE('',*,*,#338,.T.);
#439=ORIENTED_EDGE('',*,*,#290,.T.);
#440=ORIENTED_EDGE('',*,*,#338,.F.);
#441=ORIENTED_EDGE('',*,*,#293,.T.);
#442=ORIENTED_EDGE('',*,*,#294,.T.);
#443=ORIENTED_EDGE('',*,*,#339,.T.);
#444=ORIENTED_EDGE('',*,*,#297,.T.);
#445=ORIENTED_EDGE('',*,*,#339,.F.);
#446=ORIENTED_EDGE('',*,*,#300,.T.);
#447=ORIENTED_EDGE('',*,*,#301,.T.);
#448=ORIENTED_EDGE('',*,*,#340,.T.);
#449=ORIENTED_EDGE('',*,*,#304,.T.);
#450=ORIENTED_EDGE('',*,*,#340,.F.);
#451=ORIENTED_EDGE('',*,*,#307,.T.);
#452=ORIENTED_EDGE('',*,*,#308,.T.);
#453=ORIENTED_EDGE('',*,*,#341,.T.);
#454=ORIENTED_EDGE('',*,*,#311,.T.);
#455=ORIENTED_EDGE('',*,*,#341,.F.);
#456=ORIENTED_EDGE('',*,*,#314,.T.);
#457=ORIENTED_EDGE('',*,*,#315,.T.);
#458=ORIENTED_EDGE('',*,*,#342,.T.);
#459=ORIENTED_EDGE('',*,*,#318,.T.);
#460=ORIENTED_EDGE('',*,*,#342,.F.);
#461=ORIENTED_EDGE('',*,*,#343,.F.);
#462=ORIENTED_EDGE('',*,*,#344,.T.);
#463=ORIENTED_EDGE('',*,*,#345,.T.);
#464=ORIENTED_EDGE('',*,*,#346,.T.);
#465=ORIENTED_EDGE('',*,*,#344,.F.);
#466=ORIENTED_EDGE('',*,*,#321,.T.);
#467=ORIENTED_EDGE('',*,*,#322,.T.);
#468=ORIENTED_EDGE('',*,*,#347,.T.);
#469=ORIENTED_EDGE('',*,*,#345,.F.);
#470=ORIENTED_EDGE('',*,*,#346,.F.);
#471=ORIENTED_EDGE('',*,*,#347,.F.);
#472=ORIENTED_EDGE('',*,*,#324,.T.);
#473=ORIENTED_EDGE('',*,*,#328,.T.);
#474=ORIENTED_EDGE('',*,*,#348,.F.);
#475=ORIENTED_EDGE('',*,*,#349,.T.);
#476=ORIENTED_EDGE('',*,*,#350,.F.);
#477=ORIENTED_EDGE('',*,*,#335,.T.);
#478=ORIENTED_EDGE('',*,*,#351,.T.);
#479=ORIENTED_EDGE('',*,*,#329,.T.);
#480=ORIENTED_EDGE('',*,*,#351,.F.);
#481=ORIENTED_EDGE('',*,*,#334,.T.);
#482=ORIENTED_EDGE('',*,*,#352,.F.);
#483=ORIENTED_EDGE('',*,*,#353,.F.);
#484=ORIENTED_EDGE('',*,*,#354,.F.);
#485=ORIENTED_EDGE('',*,*,#331,.T.);
#486=ORIENTED_EDGE('',*,*,#320,.T.);
#487=ORIENTED_EDGE('',*,*,#313,.T.);
#488=ORIENTED_EDGE('',*,*,#306,.T.);
#489=ORIENTED_EDGE('',*,*,#299,.T.);
#490=ORIENTED_EDGE('',*,*,#292,.T.);
#491=ORIENTED_EDGE('',*,*,#285,.T.);
#492=ORIENTED_EDGE('',*,*,#355,.F.);
#493=ORIENTED_EDGE('',*,*,#332,.T.);
#494=ORIENTED_EDGE('',*,*,#356,.F.);
#495=ORIENTED_EDGE('',*,*,#349,.F.);
#496=ORIENTED_EDGE('',*,*,#317,.T.);
#497=ORIENTED_EDGE('',*,*,#310,.T.);
#498=ORIENTED_EDGE('',*,*,#303,.T.);
#499=ORIENTED_EDGE('',*,*,#296,.T.);
#500=ORIENTED_EDGE('',*,*,#289,.T.);
#501=ORIENTED_EDGE('',*,*,#282,.T.);
#502=ORIENTED_EDGE('',*,*,#343,.T.);
#503=ORIENTED_EDGE('',*,*,#353,.T.);
#504=ORIENTED_EDGE('',*,*,#357,.T.);
#505=ORIENTED_EDGE('',*,*,#326,.F.);
#506=ORIENTED_EDGE('',*,*,#358,.T.);
#507=ORIENTED_EDGE('',*,*,#352,.T.);
#508=ORIENTED_EDGE('',*,*,#333,.T.);
#509=ORIENTED_EDGE('',*,*,#355,.T.);
#510=ORIENTED_EDGE('',*,*,#348,.T.);
#511=ORIENTED_EDGE('',*,*,#327,.F.);
#512=ORIENTED_EDGE('',*,*,#357,.F.);
#513=ORIENTED_EDGE('',*,*,#354,.T.);
#514=ORIENTED_EDGE('',*,*,#358,.F.);
#515=ORIENTED_EDGE('',*,*,#325,.F.);
#516=ORIENTED_EDGE('',*,*,#350,.T.);
#517=ORIENTED_EDGE('',*,*,#356,.T.);
#518=ORIENTED_EDGE('',*,*,#336,.T.);
#519=CONICAL_SURFACE('',#580,3.64999999999997,0.785398163397474);
#520=CONICAL_SURFACE('',#584,3.35,0.785398163397453);
#521=CONICAL_SURFACE('',#587,3.65,0.785398163397455);
#522=CONICAL_SURFACE('',#591,3.35,0.785398163397444);
#523=CONICAL_SURFACE('',#594,3.64999999999999,0.785398163397453);
#524=CONICAL_SURFACE('',#598,3.35,0.785398163397453);
#525=CONICAL_SURFACE('',#601,3.64999999999998,0.785398163397449);
#526=CONICAL_SURFACE('',#605,3.35,0.785398163397434);
#527=CONICAL_SURFACE('',#608,3.65,0.785398163397452);
#528=CONICAL_SURFACE('',#612,3.35,0.785398163397421);
#529=CONICAL_SURFACE('',#615,3.64999999999999,0.785398163397453);
#530=CONICAL_SURFACE('',#619,3.35,0.785398163397453);
#531=CONICAL_SURFACE('',#631,35.,0.785398163397453);
#532=CONICAL_SURFACE('',#634,34.6,0.785398163397448);
#533=CONICAL_SURFACE('',#644,20.7316178594403,0.349065850398869);
#534=CONICAL_SURFACE('',#648,20.95,1.22173047639603);
#535=ADVANCED_FACE('',(#44),#519,.F.);
#536=ADVANCED_FACE('',(#45),#520,.F.);
#537=ADVANCED_FACE('',(#46),#521,.F.);
#538=ADVANCED_FACE('',(#47),#522,.F.);
#539=ADVANCED_FACE('',(#48),#523,.F.);
#540=ADVANCED_FACE('',(#49),#524,.F.);
#541=ADVANCED_FACE('',(#50),#525,.F.);
#542=ADVANCED_FACE('',(#51),#526,.F.);
#543=ADVANCED_FACE('',(#52),#527,.F.);
#544=ADVANCED_FACE('',(#53),#528,.F.);
#545=ADVANCED_FACE('',(#54),#529,.F.);
#546=ADVANCED_FACE('',(#55),#530,.F.);
#547=ADVANCED_FACE('',(#56),#43,.F.);
#548=ADVANCED_FACE('',(#57),#531,.T.);
#549=ADVANCED_FACE('',(#58),#532,.T.);
#550=ADVANCED_FACE('',(#59),#33,.F.);
#551=ADVANCED_FACE('',(#60),#34,.F.);
#552=ADVANCED_FACE('',(#61),#35,.F.);
#553=ADVANCED_FACE('',(#62),#36,.F.);
#554=ADVANCED_FACE('',(#63),#37,.F.);
#555=ADVANCED_FACE('',(#64),#38,.F.);
#556=ADVANCED_FACE('',(#65),#533,.F.);
#557=ADVANCED_FACE('',(#66),#534,.T.);
#558=ADVANCED_FACE('',(#67),#39,.F.);
#559=ADVANCED_FACE('',(#68),#40,.T.);
#560=ADVANCED_FACE('',(#69,#15,#16,#17,#18,#19,#20),#27,.T.);
#561=ADVANCED_FACE('',(#70,#21,#22,#23,#24,#25,#26),#28,.T.);
#562=ADVANCED_FACE('',(#71),#29,.T.);
#563=ADVANCED_FACE('',(#72),#30,.F.);
#564=ADVANCED_FACE('',(#73),#31,.F.);
#565=ADVANCED_FACE('',(#74),#32,.F.);
#566=CLOSED_SHELL('',(#535,#536,#537,#538,#539,#540,#541,#542,#543,#544,
#545,#546,#547,#548,#549,#550,#551,#552,#553,#554,#555,#556,#557,#558,#559,
#560,#561,#562,#563,#564,#565));
#567=DERIVED_UNIT_ELEMENT(#569,1.);
#568=DERIVED_UNIT_ELEMENT(#1019,-3.);
#569=(
MASS_UNIT()
NAMED_UNIT(*)
SI_UNIT(.KILO.,.GRAM.)
);
#570=DERIVED_UNIT((#567,#568));
#571=MEASURE_REPRESENTATION_ITEM('density measure',
POSITIVE_RATIO_MEASURE(7850.),#570);
#572=PROPERTY_DEFINITION_REPRESENTATION(#577,#574);
#573=PROPERTY_DEFINITION_REPRESENTATION(#578,#575);
#574=REPRESENTATION('material name',(#576),#1016);
#575=REPRESENTATION('density',(#571),#1016);
#576=DESCRIPTIVE_REPRESENTATION_ITEM('Steel','Steel');
#577=PROPERTY_DEFINITION('material property','material name',#1026);
#578=PROPERTY_DEFINITION('material property','density of part',#1026);
#579=AXIS2_PLACEMENT_3D('',#851,#659,#660);
#580=AXIS2_PLACEMENT_3D('',#852,#661,#662);
#581=AXIS2_PLACEMENT_3D('',#855,#663,#664);
#582=AXIS2_PLACEMENT_3D('',#856,#665,#666);
#583=AXIS2_PLACEMENT_3D('',#859,#668,#669);
#584=AXIS2_PLACEMENT_3D('',#860,#670,#671);
#585=AXIS2_PLACEMENT_3D('',#862,#672,#673);
#586=AXIS2_PLACEMENT_3D('',#865,#675,#676);
#587=AXIS2_PLACEMENT_3D('',#866,#677,#678);
#588=AXIS2_PLACEMENT_3D('',#869,#679,#680);
#589=AXIS2_PLACEMENT_3D('',#870,#681,#682);
#590=AXIS2_PLACEMENT_3D('',#873,#684,#685);
#591=AXIS2_PLACEMENT_3D('',#874,#686,#687);
#592=AXIS2_PLACEMENT_3D('',#876,#688,#689);
#593=AXIS2_PLACEMENT_3D('',#879,#691,#692);
#594=AXIS2_PLACEMENT_3D('',#880,#693,#694);
#595=AXIS2_PLACEMENT_3D('',#883,#695,#696);
#596=AXIS2_PLACEMENT_3D('',#884,#697,#698);
#597=AXIS2_PLACEMENT_3D('',#887,#700,#701);
#598=AXIS2_PLACEMENT_3D('',#888,#702,#703);
#599=AXIS2_PLACEMENT_3D('',#890,#704,#705);
#600=AXIS2_PLACEMENT_3D('',#893,#707,#708);
#601=AXIS2_PLACEMENT_3D('',#894,#709,#710);
#602=AXIS2_PLACEMENT_3D('',#897,#711,#712);
#603=AXIS2_PLACEMENT_3D('',#898,#713,#714);
#604=AXIS2_PLACEMENT_3D('',#901,#716,#717);
#605=AXIS2_PLACEMENT_3D('',#902,#718,#719);
#606=AXIS2_PLACEMENT_3D('',#904,#720,#721);
#607=AXIS2_PLACEMENT_3D('',#907,#723,#724);
#608=AXIS2_PLACEMENT_3D('',#908,#725,#726);
#609=AXIS2_PLACEMENT_3D('',#911,#727,#728);
#610=AXIS2_PLACEMENT_3D('',#912,#729,#730);
#611=AXIS2_PLACEMENT_3D('',#915,#732,#733);
#612=AXIS2_PLACEMENT_3D('',#916,#734,#735);
#613=AXIS2_PLACEMENT_3D('',#918,#736,#737);
#614=AXIS2_PLACEMENT_3D('',#921,#739,#740);
#615=AXIS2_PLACEMENT_3D('',#922,#741,#742);
#616=AXIS2_PLACEMENT_3D('',#925,#743,#744);
#617=AXIS2_PLACEMENT_3D('',#926,#745,#746);
#618=AXIS2_PLACEMENT_3D('',#929,#748,#749);
#619=AXIS2_PLACEMENT_3D('',#930,#750,#751);
#620=AXIS2_PLACEMENT_3D('',#932,#752,#753);
#621=AXIS2_PLACEMENT_3D('',#935,#755,#756);
#622=AXIS2_PLACEMENT_3D('',#936,#757,#758);
#623=AXIS2_PLACEMENT_3D('',#939,#759,#760);
#624=AXIS2_PLACEMENT_3D('',#940,#761,#762);
#625=AXIS2_PLACEMENT_3D('',#942,#763,#764);
#626=AXIS2_PLACEMENT_3D('',#944,#765,#766);
#627=AXIS2_PLACEMENT_3D('',#946,#767,#768);
#628=AXIS2_PLACEMENT_3D('',#948,#769,#770);
#629=AXIS2_PLACEMENT_3D('',#950,#771,#772);
#630=AXIS2_PLACEMENT_3D('',#951,#773,#774);
#631=AXIS2_PLACEMENT_3D('',#952,#775,#776);
#632=AXIS2_PLACEMENT_3D('',#954,#777,#778);
#633=AXIS2_PLACEMENT_3D('',#957,#780,#781);
#634=AXIS2_PLACEMENT_3D('',#958,#782,#783);
#635=AXIS2_PLACEMENT_3D('',#961,#784,#785);
#636=AXIS2_PLACEMENT_3D('',#965,#787,#788);
#637=AXIS2_PLACEMENT_3D('',#967,#789,#790);
#638=AXIS2_PLACEMENT_3D('',#969,#792,#793);
#639=AXIS2_PLACEMENT_3D('',#971,#795,#796);
#640=AXIS2_PLACEMENT_3D('',#973,#798,#799);
#641=AXIS2_PLACEMENT_3D('',#975,#801,#802);
#642=AXIS2_PLACEMENT_3D('',#977,#804,#805);
#643=AXIS2_PLACEMENT_3D('',#979,#807,#808);
#644=AXIS2_PLACEMENT_3D('',#981,#810,#811);
#645=AXIS2_PLACEMENT_3D('',#983,#812,#813);
#646=AXIS2_PLACEMENT_3D('',#987,#815,#816);
#647=AXIS2_PLACEMENT_3D('',#988,#817,#818);
#648=AXIS2_PLACEMENT_3D('',#989,#819,#820);
#649=AXIS2_PLACEMENT_3D('',#991,#822,#823);
#650=AXIS2_PLACEMENT_3D('',#995,#825,#826);
#651=AXIS2_PLACEMENT_3D('',#997,#828,#829);
#652=AXIS2_PLACEMENT_3D('',#1002,#832,#833);
#653=AXIS2_PLACEMENT_3D('',#1004,#835,#836);
#654=AXIS2_PLACEMENT_3D('',#1005,#837,#838);
#655=AXIS2_PLACEMENT_3D('',#1008,#841,#842);
#656=AXIS2_PLACEMENT_3D('',#1009,#843,#844);
#657=AXIS2_PLACEMENT_3D('',#1012,#847,#848);
#658=AXIS2_PLACEMENT_3D('',#1013,#849,#850);
#659=DIRECTION('axis',(0.,0.,1.));
#660=DIRECTION('refdir',(1.,0.,0.));
#661=DIRECTION('center_axis',(0.,1.,0.));
#662=DIRECTION('ref_axis',(0.,0.,1.));
#663=DIRECTION('center_axis',(0.,1.,0.));
#664=DIRECTION('ref_axis',(0.,0.,1.));
#665=DIRECTION('center_axis',(0.,1.,0.));
#666=DIRECTION('ref_axis',(0.,0.,1.));
#667=DIRECTION('',(-8.65956056235515E-17,0.70710678118653,-0.707106781186565));
#668=DIRECTION('center_axis',(0.,-1.,1.54420742354709E-17));
#669=DIRECTION('ref_axis',(0.,1.54420742354709E-17,1.));
#670=DIRECTION('center_axis',(0.,-1.,0.));
#671=DIRECTION('ref_axis',(0.,0.,-1.));
#672=DIRECTION('center_axis',(0.,-1.,0.));
#673=DIRECTION('ref_axis',(0.,0.,-1.));
#674=DIRECTION('',(-8.65956056235498E-17,-0.707106781186544,0.707106781186551));
#675=DIRECTION('center_axis',(0.,1.,-1.54420742354709E-17));
#676=DIRECTION('ref_axis',(0.,-1.54420742354709E-17,-1.));
#677=DIRECTION('center_axis',(0.,1.,0.));
#678=DIRECTION('ref_axis',(0.,0.,1.));
#679=DIRECTION('center_axis',(0.,1.,0.));
#680=DIRECTION('ref_axis',(0.,0.,1.));
#681=DIRECTION('center_axis',(0.,1.,0.));
#682=DIRECTION('ref_axis',(0.,0.,1.));
#683=DIRECTION('',(-8.65956056235499E-17,0.707106781186543,-0.707106781186552));
#684=DIRECTION('center_axis',(0.,-1.,1.54420742354709E-17));
#685=DIRECTION('ref_axis',(0.,1.54420742354709E-17,1.));
#686=DIRECTION('center_axis',(0.,-1.,0.));
#687=DIRECTION('ref_axis',(0.,0.,-1.));
#688=DIRECTION('center_axis',(0.,-1.,0.));
#689=DIRECTION('ref_axis',(0.,0.,-1.));
#690=DIRECTION('',(-8.6595605623549E-17,-0.707106781186551,0.707106781186545));
#691=DIRECTION('center_axis',(0.,1.,-1.54420742354709E-17));
#692=DIRECTION('ref_axis',(0.,-1.54420742354709E-17,-1.));
#693=DIRECTION('center_axis',(0.,1.,0.));
#694=DIRECTION('ref_axis',(0.,0.,1.));
#695=DIRECTION('center_axis',(0.,1.,0.));
#696=DIRECTION('ref_axis',(0.,0.,1.));
#697=DIRECTION('center_axis',(0.,1.,0.));
#698=DIRECTION('ref_axis',(0.,0.,1.));
#699=DIRECTION('',(-8.65956056235497E-17,0.707106781186544,-0.707106781186551));
#700=DIRECTION('center_axis',(0.,-1.,1.54420742354709E-17));
#701=DIRECTION('ref_axis',(0.,1.54420742354709E-17,1.));
#702=DIRECTION('center_axis',(0.,-1.,0.));
#703=DIRECTION('ref_axis',(0.,0.,-1.));
#704=DIRECTION('center_axis',(0.,-1.,0.));
#705=DIRECTION('ref_axis',(0.,0.,-1.));
#706=DIRECTION('',(-8.65956056235497E-17,-0.707106781186544,0.707106781186551));
#707=DIRECTION('center_axis',(0.,1.,-1.54420742354709E-17));
#708=DIRECTION('ref_axis',(0.,-1.54420742354709E-17,-1.));
#709=DIRECTION('center_axis',(0.,1.,0.));
#710=DIRECTION('ref_axis',(0.,0.,1.));
#711=DIRECTION('center_axis',(0.,1.,0.));
#712=DIRECTION('ref_axis',(0.,0.,1.));
#713=DIRECTION('center_axis',(0.,1.,0.));
#714=DIRECTION('ref_axis',(0.,0.,1.));
#715=DIRECTION('',(-8.65956056235494E-17,0.707106781186547,-0.707106781186548));
#716=DIRECTION('center_axis',(0.,-1.,1.54420742354709E-17));
#717=DIRECTION('ref_axis',(0.,1.54420742354709E-17,1.));
#718=DIRECTION('center_axis',(0.,-1.,0.));
#719=DIRECTION('ref_axis',(0.,0.,-1.));
#720=DIRECTION('center_axis',(0.,-1.,0.));
#721=DIRECTION('ref_axis',(0.,0.,-1.));
#722=DIRECTION('',(-8.65956056235481E-17,-0.707106781186558,0.707106781186537));
#723=DIRECTION('center_axis',(0.,1.,-1.54420742354709E-17));
#724=DIRECTION('ref_axis',(0.,-1.54420742354709E-17,-1.));
#725=DIRECTION('center_axis',(0.,1.,0.));
#726=DIRECTION('ref_axis',(0.,0.,1.));
#727=DIRECTION('center_axis',(0.,1.,0.));
#728=DIRECTION('ref_axis',(0.,0.,1.));
#729=DIRECTION('center_axis',(0.,1.,0.));
#730=DIRECTION('ref_axis',(0.,0.,1.));
#731=DIRECTION('',(-8.65956056235496E-17,0.707106781186545,-0.70710678118655));
#732=DIRECTION('center_axis',(0.,-1.,1.54420742354709E-17));
#733=DIRECTION('ref_axis',(0.,1.54420742354709E-17,1.));
#734=DIRECTION('center_axis',(0.,-1.,0.));
#735=DIRECTION('ref_axis',(0.,0.,-1.));
#736=DIRECTION('center_axis',(0.,-1.,0.));
#737=DIRECTION('ref_axis',(0.,0.,-1.));
#738=DIRECTION('',(-8.6595605623547E-17,-0.707106781186567,0.707106781186528));
#739=DIRECTION('center_axis',(0.,1.,-1.54420742354709E-17));
#740=DIRECTION('ref_axis',(0.,-1.54420742354709E-17,-1.));
#741=DIRECTION('center_axis',(0.,1.,0.));
#742=DIRECTION('ref_axis',(0.,0.,1.));
#743=DIRECTION('center_axis',(0.,1.,0.));
#744=DIRECTION('ref_axis',(0.,0.,1.));
#745=DIRECTION('center_axis',(0.,1.,0.));
#746=DIRECTION('ref_axis',(0.,0.,1.));
#747=DIRECTION('',(-8.65956056235497E-17,0.707106781186544,-0.707106781186551));
#748=DIRECTION('center_axis',(0.,-1.,1.54420742354709E-17));
#749=DIRECTION('ref_axis',(0.,1.54420742354709E-17,1.));
#750=DIRECTION('center_axis',(0.,-1.,0.));
#751=DIRECTION('ref_axis',(0.,0.,-1.));
#752=DIRECTION('center_axis',(0.,-1.,0.));
#753=DIRECTION('ref_axis',(0.,0.,-1.));
#754=DIRECTION('',(-8.65956056235497E-17,-0.707106781186544,0.707106781186551));
#755=DIRECTION('center_axis',(0.,1.,-1.54420742354709E-17));
#756=DIRECTION('ref_axis',(0.,-1.54420742354709E-17,-1.));
#757=DIRECTION('center_axis',(0.,1.,-1.54420742354709E-17));
#758=DIRECTION('ref_axis',(0.,0.,1.));
#759=DIRECTION('center_axis',(0.,1.,-1.54420742354709E-17));
#760=DIRECTION('ref_axis',(0.,-1.54420742354709E-17,-1.));
#761=DIRECTION('center_axis',(0.,1.,-1.54420742354709E-17));
#762=DIRECTION('ref_axis',(0.,-1.54420742354709E-17,-1.));
#763=DIRECTION('center_axis',(1.,-1.89110867846652E-33,-1.22464679914735E-16));
#764=DIRECTION('ref_axis',(-1.22464679914735E-16,0.,-1.));
#765=DIRECTION('center_axis',(0.,-1.,1.54420742354709E-17));
#766=DIRECTION('ref_axis',(0.,1.54420742354709E-17,1.));
#767=DIRECTION('center_axis',(-0.866029860989339,-2.64004406659527E-7,0.499992279815115));
#768=DIRECTION('ref_axis',(0.380242613811425,-0.649341828534159,0.658612742328731));
#769=DIRECTION('center_axis',(0.,1.,0.));
#770=DIRECTION('ref_axis',(0.,0.,-1.));
#771=DIRECTION('center_axis',(0.86602094649502,-2.64005550147051E-7,-0.500007720172199));
#772=DIRECTION('ref_axis',(0.38043359548729,-0.648921060812438,0.658917093615481));
#773=DIRECTION('center_axis',(0.,-1.,1.54420742354709E-17));
#774=DIRECTION('ref_axis',(0.,1.54420742354709E-17,1.));
#775=DIRECTION('center_axis',(0.,1.,-1.5442074235471E-17));
#776=DIRECTION('ref_axis',(0.,1.5442074235471E-17,1.));
#777=DIRECTION('center_axis',(0.,1.,-1.5442074235471E-17));
#778=DIRECTION('ref_axis',(0.,-1.5442074235471E-17,-1.));
#779=DIRECTION('',(8.65956056235497E-17,-0.707106781186544,0.707106781186551));
#780=DIRECTION('center_axis',(0.,-1.,1.54420742354709E-17));
#781=DIRECTION('ref_axis',(0.,-1.54420742354709E-17,-1.));
#782=DIRECTION('center_axis',(0.,-1.,1.54420742354709E-17));
#783=DIRECTION('ref_axis',(0.500000000000001,1.3373228575043E-17,0.866025403784438));
#784=DIRECTION('center_axis',(0.,1.,-1.54420742354709E-17));
#785=DIRECTION('ref_axis',(0.,1.54420742354709E-17,1.));
#786=DIRECTION('',(0.353626401105215,0.706960730002401,0.612498893611937));
#787=DIRECTION('center_axis',(0.,-1.,1.54420742354709E-17));
#788=DIRECTION('ref_axis',(0.,1.54420742354709E-17,1.));
#789=DIRECTION('center_axis',(0.,-1.,1.54420742354709E-17));
#790=DIRECTION('ref_axis',(0.,1.54420742354709E-17,1.));
#791=DIRECTION('',(-0.35362640110521,-0.70696073000239,-0.612498893611952));
#792=DIRECTION('center_axis',(0.,-1.,1.54420742354709E-17));
#793=DIRECTION('ref_axis',(0.,-1.54420742354709E-17,-1.));
#794=DIRECTION('',(0.,-1.,1.54420742354709E-17));
#795=DIRECTION('center_axis',(0.,-1.,1.54420742354709E-17));
#796=DIRECTION('ref_axis',(0.,-1.54420742354709E-17,-1.));
#797=DIRECTION('',(0.,-1.,1.54420742354709E-17));
#798=DIRECTION('center_axis',(0.,-1.,1.54420742354709E-17));
#799=DIRECTION('ref_axis',(0.,-1.54420742354709E-17,-1.));
#800=DIRECTION('',(0.,-1.,1.54420742354709E-17));
#801=DIRECTION('center_axis',(3.08148791101958E-33,-1.,1.54420742354709E-17));
#802=DIRECTION('ref_axis',(4.75845650776704E-50,-1.54420742354709E-17,-1.));
#803=DIRECTION('',(3.08148791101958E-33,-1.,1.54420742354709E-17));
#804=DIRECTION('center_axis',(0.,-1.,1.54420742354709E-17));
#805=DIRECTION('ref_axis',(0.,-1.54420742354709E-17,-1.));
#806=DIRECTION('',(0.,-1.,1.54420742354709E-17));
#807=DIRECTION('center_axis',(0.,-1.,1.54420742354709E-17));
#808=DIRECTION('ref_axis',(0.,-1.54420742354709E-17,-1.));
#809=DIRECTION('',(0.,-1.,1.54420742354709E-17));
#810=DIRECTION('center_axis',(0.,1.,-1.54420742354709E-17));
#811=DIRECTION('ref_axis',(0.,1.54420742354709E-17,1.));
#812=DIRECTION('center_axis',(0.,1.,-1.54420742354709E-17));
#813=DIRECTION('ref_axis',(0.,1.54420742354709E-17,1.));
#814=DIRECTION('',(-4.18853873767702E-17,0.939692620785907,-0.342020143325671));
#815=DIRECTION('center_axis',(0.,1.,-1.54420742354709E-17));
#816=DIRECTION('ref_axis',(0.,1.54420742354709E-17,1.));
#817=DIRECTION('center_axis',(0.,1.,-1.54420742354709E-17));
#818=DIRECTION('ref_axis',(0.,1.54420742354709E-17,1.));
#819=DIRECTION('center_axis',(0.,-1.,1.54420742354709E-17));
#820=DIRECTION('ref_axis',(0.,-1.54420742354709E-17,-1.));
#821=DIRECTION('',(1.15079156022785E-16,0.342020143325673,-0.939692620785907));
#822=DIRECTION('center_axis',(0.,1.,-1.54420742354709E-17));
#823=DIRECTION('ref_axis',(0.500000000000003,1.33732285750429E-17,0.866025403784437));
#824=DIRECTION('',(0.,-1.,1.54420742354709E-17));
#825=DIRECTION('center_axis',(0.,1.,-1.54420742354709E-17));
#826=DIRECTION('ref_axis',(0.,1.54420742354709E-17,1.));
#827=DIRECTION('',(0.,1.,-1.54420742354709E-17));
#828=DIRECTION('center_axis',(0.,1.,-1.54420742354709E-17));
#829=DIRECTION('ref_axis',(0.,1.54420742354709E-17,1.));
#830=DIRECTION('',(0.,-1.,1.54420742354709E-17));
#831=DIRECTION('',(0.,1.,-1.54420742354709E-17));
#832=DIRECTION('center_axis',(0.,1.,0.));
#833=DIRECTION('ref_axis',(8.88178419700125E-16,0.,-1.));
#834=DIRECTION('',(0.,-1.,1.54420742354709E-17));
#835=DIRECTION('center_axis',(0.,-1.,1.54420742354709E-17));
#836=DIRECTION('ref_axis',(0.,-1.54420742354709E-17,-1.));
#837=DIRECTION('center_axis',(0.,1.,-1.54420742354709E-17));
#838=DIRECTION('ref_axis',(0.,1.54420742354709E-17,1.));
#839=DIRECTION('',(0.5,0.,0.866025403784439));
#840=DIRECTION('',(-0.5,0.,-0.866025403784439));
#841=DIRECTION('center_axis',(0.,1.,-1.54420742354709E-17));
#842=DIRECTION('ref_axis',(0.,1.54420742354709E-17,1.));
#843=DIRECTION('center_axis',(0.,-1.,0.));
#844=DIRECTION('ref_axis',(0.,0.,-1.));
#845=DIRECTION('',(0.5,0.,0.866025403784439));
#846=DIRECTION('',(-0.5,0.,-0.866025403784439));
#847=DIRECTION('center_axis',(-0.866025403784439,7.72103711773545E-18,0.5));
#848=DIRECTION('ref_axis',(0.5,-3.85185988877447E-34,0.866025403784439));
#849=DIRECTION('center_axis',(0.866025403784439,-7.72103711773545E-18,-0.5));
#850=DIRECTION('ref_axis',(-0.5,3.85185988877447E-34,-0.866025403784439));
#851=CARTESIAN_POINT('',(0.,0.,0.));
#852=CARTESIAN_POINT('Origin',(-25.4178456010731,12.7,14.6750000000003));
#853=CARTESIAN_POINT('',(-25.4178456010731,12.4,18.0250000000003));
#854=CARTESIAN_POINT('',(-25.4178456010731,12.4,11.3250000000003));
#855=CARTESIAN_POINT('Origin',(-25.4178456010731,12.4,14.6750000000003));
#856=CARTESIAN_POINT('Origin',(-25.4178456010731,12.4,14.6750000000003));
#857=CARTESIAN_POINT('',(-25.4178456010731,12.7,11.0250000000003));
#858=CARTESIAN_POINT('',(-25.4178456010731,12.7,11.0250000000003));
#859=CARTESIAN_POINT('Origin',(-25.4178456010731,12.7,14.6750000000003));
#860=CARTESIAN_POINT('Origin',(-25.4178456010731,0.299999999999996,14.6750000000003));
#861=CARTESIAN_POINT('',(-25.4178456010731,0.299999999999997,18.0250000000003));
#862=CARTESIAN_POINT('Origin',(-25.4178456010731,0.299999999999996,14.6750000000003));
#863=CARTESIAN_POINT('',(-25.4178456010731,-2.91433543964104E-15,18.3250000000003));
#864=CARTESIAN_POINT('',(-25.4178456010731,0.299999999999996,18.0250000000003));
#865=CARTESIAN_POINT('Origin',(-25.4178456010731,-2.21202820468621E-15,
14.6750000000003));
#866=CARTESIAN_POINT('Origin',(-25.4178456010734,12.7,-14.6749999999998));
#867=CARTESIAN_POINT('',(-25.4178456010734,12.4,-11.3249999999998));
#868=CARTESIAN_POINT('',(-25.4178456010734,12.4,-18.0249999999998));
#869=CARTESIAN_POINT('Origin',(-25.4178456010734,12.4,-14.6749999999998));
#870=CARTESIAN_POINT('Origin',(-25.4178456010734,12.4,-14.6749999999998));
#871=CARTESIAN_POINT('',(-25.4178456010734,12.7,-18.3249999999998));
#872=CARTESIAN_POINT('',(-25.4178456010734,12.7,-18.3249999999998));
#873=CARTESIAN_POINT('Origin',(-25.4178456010734,12.7,-14.6749999999998));
#874=CARTESIAN_POINT('Origin',(-25.4178456010734,0.299999999999996,-14.6749999999998));
#875=CARTESIAN_POINT('',(-25.4178456010734,0.299999999999997,-11.3249999999998));
#876=CARTESIAN_POINT('Origin',(-25.4178456010734,0.299999999999996,-14.6749999999998));
#877=CARTESIAN_POINT('',(-25.4178456010734,-3.78169717762944E-15,-11.0249999999998));
#878=CARTESIAN_POINT('',(-25.4178456010734,0.299999999999996,-11.3249999999998));
#879=CARTESIAN_POINT('Origin',(-25.4178456010734,-2.66525308349728E-15,
-14.6749999999998));
#880=CARTESIAN_POINT('Origin',(-2.04950073297121E-13,12.7,-29.35));
#881=CARTESIAN_POINT('',(-2.04539816619406E-13,12.4,-26.));
#882=CARTESIAN_POINT('',(-2.05360329974835E-13,12.4,-32.7));
#883=CARTESIAN_POINT('Origin',(-2.04950073297121E-13,12.4,-29.35));
#884=CARTESIAN_POINT('Origin',(-2.04950073297121E-13,12.4,-29.35));
#885=CARTESIAN_POINT('',(-2.0539706937881E-13,12.7,-33.));
#886=CARTESIAN_POINT('',(-2.0539706937881E-13,12.7,-33.));
#887=CARTESIAN_POINT('Origin',(-2.04950073297121E-13,12.7,-29.35));
#888=CARTESIAN_POINT('Origin',(-2.04950073297121E-13,0.299999999999996,
-29.35));
#889=CARTESIAN_POINT('',(-2.05360329974835E-13,0.299999999999997,-26.));
#890=CARTESIAN_POINT('Origin',(-2.04950073297121E-13,0.299999999999996,
-29.35));
#891=CARTESIAN_POINT('',(-2.0539706937881E-13,-3.43475248243408E-15,-25.7));
#892=CARTESIAN_POINT('',(-2.05360329974835E-13,0.299999999999996,-26.));
#893=CARTESIAN_POINT('Origin',(-2.04950073297121E-13,-2.89186552290282E-15,
-29.35));
#894=CARTESIAN_POINT('Origin',(25.4178456010732,12.7,-14.6750000000001));
#895=CARTESIAN_POINT('',(25.4178456010732,12.4,-11.3250000000001));
#896=CARTESIAN_POINT('',(25.4178456010732,12.4,-18.0250000000001));
#897=CARTESIAN_POINT('Origin',(25.4178456010732,12.4,-14.6750000000001));
#898=CARTESIAN_POINT('Origin',(25.4178456010732,12.4,-14.6750000000001));
#899=CARTESIAN_POINT('',(25.4178456010732,12.7,-18.3250000000001));
#900=CARTESIAN_POINT('',(25.4178456010732,12.7,-18.3250000000001));
#901=CARTESIAN_POINT('Origin',(25.4178456010732,12.7,-14.6750000000001));
#902=CARTESIAN_POINT('Origin',(25.4178456010732,0.299999999999996,-14.6750000000001));
#903=CARTESIAN_POINT('',(25.4178456010732,0.299999999999997,-11.3250000000001));
#904=CARTESIAN_POINT('Origin',(25.4178456010732,0.299999999999996,-14.6750000000001));
#905=CARTESIAN_POINT('',(25.4178456010732,-3.46944695195361E-15,-11.0250000000001));
#906=CARTESIAN_POINT('',(25.4178456010732,0.299999999999996,-11.3250000000001));
#907=CARTESIAN_POINT('Origin',(25.4178456010732,-2.66525308349729E-15,-14.6750000000001));
#908=CARTESIAN_POINT('Origin',(25.4178456010733,12.7,14.6749999999999));
#909=CARTESIAN_POINT('',(25.4178456010733,12.4,18.0249999999999));
#910=CARTESIAN_POINT('',(25.4178456010733,12.4,11.3249999999999));
#911=CARTESIAN_POINT('Origin',(25.4178456010733,12.4,14.6749999999999));
#912=CARTESIAN_POINT('Origin',(25.4178456010733,12.4,14.6749999999999));
#913=CARTESIAN_POINT('',(25.4178456010733,12.7,11.0249999999999));
#914=CARTESIAN_POINT('',(25.4178456010733,12.7,11.0249999999999));
#915=CARTESIAN_POINT('Origin',(25.4178456010733,12.7,14.6749999999999));
#916=CARTESIAN_POINT('Origin',(25.4178456010733,0.299999999999983,14.6749999999999));
#917=CARTESIAN_POINT('',(25.4178456010733,0.299999999999983,18.0249999999999));
#918=CARTESIAN_POINT('Origin',(25.4178456010733,0.299999999999983,14.6749999999999));
#919=CARTESIAN_POINT('',(25.4178456010733,-2.8796409701215E-15,18.3249999999999));
#920=CARTESIAN_POINT('',(25.4178456010733,0.299999999999983,18.0249999999999));
#921=CARTESIAN_POINT('Origin',(25.4178456010733,-2.21202820468622E-15,14.6749999999999));
#922=CARTESIAN_POINT('Origin',(0.,12.7,29.35));
#923=CARTESIAN_POINT('',(4.10256677714363E-16,12.4,32.7));
#924=CARTESIAN_POINT('',(-4.10256677714363E-16,12.4,26.));
#925=CARTESIAN_POINT('Origin',(0.,12.4,29.35));
#926=CARTESIAN_POINT('Origin',(0.,12.4,29.35));
#927=CARTESIAN_POINT('',(-4.46996081688782E-16,12.7,25.7));
#928=CARTESIAN_POINT('',(-4.46996081688782E-16,12.7,25.7));
#929=CARTESIAN_POINT('Origin',(0.,12.7,29.35));
#930=CARTESIAN_POINT('Origin',(0.,0.299999999999996,29.35));
#931=CARTESIAN_POINT('',(-4.10256677714363E-16,0.299999999999997,32.7));
#932=CARTESIAN_POINT('Origin',(0.,0.299999999999996,29.35));
#933=CARTESIAN_POINT('',(-4.46996081688784E-16,-3.01841884819964E-15,33.));
#934=CARTESIAN_POINT('',(-4.10256677714363E-16,0.299999999999996,32.7));
#935=CARTESIAN_POINT('Origin',(0.,-1.98541576528068E-15,29.35));
#936=CARTESIAN_POINT('Origin',(0.,11.2118255958399,-6.57893142935159E-16));
#937=CARTESIAN_POINT('',(2.92771362348042E-15,11.0238870716827,23.9065959713348));
#938=CARTESIAN_POINT('',(-2.92771362348043E-15,11.0238870716827,-23.9065959713349));
#939=CARTESIAN_POINT('Origin',(0.,11.0238870716827,-6.54990982293419E-16));
#940=CARTESIAN_POINT('Origin',(0.,11.0238870716827,-6.54990982293419E-16));
#941=CARTESIAN_POINT('',(-2.96058363693873E-15,11.2118255958399,-24.175));
#942=CARTESIAN_POINT('Origin',(-2.93609070095578E-15,11.2118255958399,-23.975));
#943=CARTESIAN_POINT('',(-11.211128907145,11.2118255958399,-21.4182448773792));
#944=CARTESIAN_POINT('Origin',(0.,11.2118255958399,-6.57893142935159E-16));
#945=CARTESIAN_POINT('',(-11.2109537983178,11.2,-21.4179415799936));
#946=CARTESIAN_POINT('Origin',(-11.1112146073423,11.2118156406471,-21.2451846709329));
#947=CARTESIAN_POINT('',(-12.9430046058867,11.2,-20.4179415799936));
#948=CARTESIAN_POINT('Origin',(0.,11.2,-6.57893142935159E-16));
#949=CARTESIAN_POINT('',(-12.9431797147139,11.2118255958399,-20.4182448773791));
#950=CARTESIAN_POINT('Origin',(-12.843262318221,11.2118156410374,-20.2451864328917));
#951=CARTESIAN_POINT('Origin',(0.,11.2118255958399,-6.57893142935159E-16));
#952=CARTESIAN_POINT('Origin',(0.,0.399999999999987,-4.90936129463235E-16));
#953=CARTESIAN_POINT('',(-4.28626379701574E-15,0.399999999999988,-35.));
#954=CARTESIAN_POINT('Origin',(0.,0.399999999999987,-4.90936129463235E-16));
#955=CARTESIAN_POINT('',(-4.23727792504984E-15,-1.38777878078145E-15,-34.6));
#956=CARTESIAN_POINT('',(-4.28626379701574E-15,0.399999999999987,-35.));
#957=CARTESIAN_POINT('Origin',(0.,-2.43864064409175E-15,-4.84759299769047E-16));
#958=CARTESIAN_POINT('Origin',(0.,12.7,-6.80873642559527E-16));
#959=CARTESIAN_POINT('',(-18.1587984607583,12.7,-29.4519615384368));
#960=CARTESIAN_POINT('',(-16.4267476531894,12.7,-30.4519615384368));
#961=CARTESIAN_POINT('Origin',(0.,12.7,-6.80873642559527E-16));
#962=CARTESIAN_POINT('',(-18.3588810883204,12.3,-29.7985148150862));
#963=CARTESIAN_POINT('',(-18.3588810883204,12.3,-29.7985148150862));
#964=CARTESIAN_POINT('',(-4.28626379701574E-15,12.3,-35.));
#965=CARTESIAN_POINT('Origin',(0.,12.3,-6.74696812865339E-16));
#966=CARTESIAN_POINT('',(-16.6268302807515,12.3,-30.7985148150862));
#967=CARTESIAN_POINT('Origin',(0.,12.3,-6.74696812865339E-16));
#968=CARTESIAN_POINT('',(-16.4267476531894,12.7,-30.4519615384368));
#969=CARTESIAN_POINT('Origin',(-25.4178456010731,12.7,14.6750000000003));
#970=CARTESIAN_POINT('',(-25.4178456010731,12.7,18.0250000000003));
#971=CARTESIAN_POINT('Origin',(-25.4178456010734,12.7,-14.6749999999998));
#972=CARTESIAN_POINT('',(-25.4178456010734,12.7,-11.3249999999998));
#973=CARTESIAN_POINT('Origin',(-2.04950073297121E-13,12.7,-29.35));
#974=CARTESIAN_POINT('',(-2.05360329974835E-13,12.7,-26.));
#975=CARTESIAN_POINT('Origin',(25.4178456010732,12.7,-14.6750000000001));
#976=CARTESIAN_POINT('',(25.4178456010732,12.7,-11.3250000000001));
#977=CARTESIAN_POINT('Origin',(25.4178456010733,12.7,14.6749999999999));
#978=CARTESIAN_POINT('',(25.4178456010733,12.7,18.0249999999999));
#979=CARTESIAN_POINT('Origin',(0.,12.7,29.35));
#980=CARTESIAN_POINT('',(-4.10256677714363E-16,12.7,32.7));
#981=CARTESIAN_POINT('Origin',(0.,11.5,-6.62343153476962E-16));
#982=CARTESIAN_POINT('',(-2.53889094527096E-15,11.5,-20.7316178594403));
#983=CARTESIAN_POINT('Origin',(0.,11.5,-6.62343153476962E-16));
#984=CARTESIAN_POINT('',(-2.5656350442137E-15,12.1,-20.95));
#985=CARTESIAN_POINT('',(-2.53889094527096E-15,11.5,-20.7316178594403));
#986=CARTESIAN_POINT('',(2.74667433384707E-15,12.1,20.95));
#987=CARTESIAN_POINT('Origin',(0.,12.1,-6.71608398018245E-16));
#988=CARTESIAN_POINT('Origin',(0.,12.1,-6.71608398018245E-16));
#989=CARTESIAN_POINT('Origin',(0.,12.1,-6.71608398018245E-16));
#990=CARTESIAN_POINT('',(-2.5656350442137E-15,12.1,20.95));
#991=CARTESIAN_POINT('Origin',(0.,31.3921104365332,-9.69518599538093E-16));
#992=CARTESIAN_POINT('',(-12.9431797147139,12.7,-20.4182448773791));
#993=CARTESIAN_POINT('',(-12.9431797147139,31.3921104365332,-20.4182448773792));
#994=CARTESIAN_POINT('',(-11.211128907145,12.7,-21.4182448773792));
#995=CARTESIAN_POINT('Origin',(0.,12.7,-6.80873642559527E-16));
#996=CARTESIAN_POINT('',(-11.211128907145,31.3921104365332,-21.4182448773792));
#997=CARTESIAN_POINT('Origin',(0.,31.3921104365332,-9.69518599538093E-16));
#998=CARTESIAN_POINT('',(-4.28626379701574E-15,31.3921104365332,-35.));
#999=CARTESIAN_POINT('',(-18.3588810883204,11.2,-29.7985148150862));
#1000=CARTESIAN_POINT('',(-18.3588810883204,31.3921104365332,-29.7985148150862));
#1001=CARTESIAN_POINT('',(-16.6268302807515,11.2,-30.7985148150862));
#1002=CARTESIAN_POINT('Origin',(0.,11.2,-6.57710531206321E-16));
#1003=CARTESIAN_POINT('',(-16.6268302807515,31.3921104365332,-30.7985148150862));
#1004=CARTESIAN_POINT('Origin',(0.,-2.43864064409175E-15,3.76576698597013E-32));
#1005=CARTESIAN_POINT('Origin',(0.,12.7,35.));
#1006=CARTESIAN_POINT('',(-18.7780777094355,12.7,-30.5245846612189));
#1007=CARTESIAN_POINT('',(-17.0460269018667,12.7,-31.5245846612189));
#1008=CARTESIAN_POINT('Origin',(0.,11.5,20.7316178594403));
#1009=CARTESIAN_POINT('Origin',(-12.7260463016631,11.2,-20.0421587739544));
#1010=CARTESIAN_POINT('',(-18.7780777094355,11.2,-30.5245846612189));
#1011=CARTESIAN_POINT('',(-17.0460269018667,11.2,-31.5245846612189));
#1012=CARTESIAN_POINT('Origin',(-18.7780777094355,11.2,-30.5245846612189));
#1013=CARTESIAN_POINT('Origin',(-17.0460269018667,11.2,-31.5245846612189));
#1014=UNCERTAINTY_MEASURE_WITH_UNIT(LENGTH_MEASURE(0.01),#1018,
'DISTANCE_ACCURACY_VALUE',
'Maximum model space distance between geometric entities at asserted c
onnectivities');
#1015=UNCERTAINTY_MEASURE_WITH_UNIT(LENGTH_MEASURE(0.01),#1018,
'DISTANCE_ACCURACY_VALUE',
'Maximum model space distance between geometric entities at asserted c
onnectivities');
#1016=(
GEOMETRIC_REPRESENTATION_CONTEXT(3)
GLOBAL_UNCERTAINTY_ASSIGNED_CONTEXT((#1014))
GLOBAL_UNIT_ASSIGNED_CONTEXT((#1018,#1020,#1021))
REPRESENTATION_CONTEXT('','3D')
);
#1017=(
GEOMETRIC_REPRESENTATION_CONTEXT(3)
GLOBAL_UNCERTAINTY_ASSIGNED_CONTEXT((#1015))
GLOBAL_UNIT_ASSIGNED_CONTEXT((#1018,#1020,#1021))
REPRESENTATION_CONTEXT('','3D')
);
#1018=(
LENGTH_UNIT()
NAMED_UNIT(*)
SI_UNIT(.MILLI.,.METRE.)
);
#1019=(
LENGTH_UNIT()
NAMED_UNIT(*)
SI_UNIT($,.METRE.)
);
#1020=(
NAMED_UNIT(*)
PLANE_ANGLE_UNIT()
SI_UNIT($,.RADIAN.)
);
#1021=(
NAMED_UNIT(*)
SI_UNIT($,.STERADIAN.)
SOLID_ANGLE_UNIT()
);
#1022=SHAPE_DEFINITION_REPRESENTATION(#1023,#1024);
#1023=PRODUCT_DEFINITION_SHAPE('',$,#1026);
#1024=SHAPE_REPRESENTATION('',(#579),#1016);
#1025=PRODUCT_DEFINITION_CONTEXT('part definition',#1030,'design');
#1026=PRODUCT_DEFINITION('Hositrad_CF35-Blank','Hositrad_CF35-Blank v2',
#1027,#1025);
#1027=PRODUCT_DEFINITION_FORMATION('',$,#1032);
#1028=PRODUCT_RELATED_PRODUCT_CATEGORY('Hositrad_CF35-Blank v2',
'Hositrad_CF35-Blank v2',(#1032));
#1029=APPLICATION_PROTOCOL_DEFINITION('international standard',
'automotive_design',2009,#1030);
#1030=APPLICATION_CONTEXT(
'Core Data for Automotive Mechanical Design Process');
#1031=PRODUCT_CONTEXT('part definition',#1030,'mechanical');
#1032=PRODUCT('Hositrad_CF35-Blank','Hositrad_CF35-Blank v2',$,(#1031));
#1033=PRESENTATION_STYLE_ASSIGNMENT((#1035));
#1034=PRESENTATION_STYLE_ASSIGNMENT((#1036));
#1035=SURFACE_STYLE_USAGE(.BOTH.,#1037);
#1036=SURFACE_STYLE_USAGE(.BOTH.,#1038);
#1037=SURFACE_SIDE_STYLE('',(#1039));
#1038=SURFACE_SIDE_STYLE('',(#1040));
#1039=SURFACE_STYLE_FILL_AREA(#1041);
#1040=SURFACE_STYLE_FILL_AREA(#1042);
#1041=FILL_AREA_STYLE('Steel - Satin',(#1043));
#1042=FILL_AREA_STYLE('Opaque(165,158,150)',(#1044));
#1043=FILL_AREA_STYLE_COLOUR('Steel - Satin',#1045);
#1044=FILL_AREA_STYLE_COLOUR('Opaque(165,158,150)',#1046);
#1045=COLOUR_RGB('Steel - Satin',0.627450980392157,0.627450980392157,0.627450980392157);
#1046=COLOUR_RGB('Opaque(165,158,150)',0.647058823529412,0.619607843137255,
0.588235294117647);
ENDSEC;
END-ISO-10303-21;
