ISO-10303-21;
HEADER;
/* Generated by software containing ST-Developer
 * from STEP Tools, Inc. (www.steptools.com) 
 */

FILE_DESCRIPTION(
/* description */ (''),
/* implementation_level */ '2;1');

FILE_NAME(
/* name */ 'Hositrad_CFA35-KF16 v2.step',
/* time_stamp */ '2024-06-25T14:10:38+02:00',
/* author */ (''),
/* organization */ (''),
/* preprocessor_version */ 'ST-DEVELOPER v20',
/* originating_system */ 'Autodesk Translation Framework v13.14.0.145',

/* authorisation */ '');

FILE_SCHEMA (('AUTOMOTIVE_DESIGN { 1 0 10303 214 3 1 1 }'));
ENDSEC;

DATA;
#10=MECHANICAL_DESIGN_GEOMETRIC_PRESENTATION_REPRESENTATION('',(#24,#25),
#1379);
#11=ITEM_DEFINED_TRANSFORMATION($,$,#784,#891);
#12=ITEM_DEFINED_TRANSFORMATION($,$,#866,#892);
#13=(
REPRESENTATION_RELATIONSHIP($,$,#1393,#1392)
REPRESENTATION_RELATIONSHIP_WITH_TRANSFORMATION(#11)
SHAPE_REPRESENTATION_RELATIONSHIP()
);
#14=(
REPRESENTATION_RELATIONSHIP($,$,#1394,#1392)
REPRESENTATION_RELATIONSHIP_WITH_TRANSFORMATION(#12)
SHAPE_REPRESENTATION_RELATIONSHIP()
);
#15=CONTEXT_DEPENDENT_SHAPE_REPRESENTATION(#13,#1390);
#16=CONTEXT_DEPENDENT_SHAPE_REPRESENTATION(#14,#1391);
#17=NEXT_ASSEMBLY_USAGE_OCCURRENCE(
'NW35CF-Straight Hole_CF35-Hole 19,05:1',
'NW35CF-Straight Hole_CF35-Hole 19,05:1',
'NW35CF-Straight Hole_CF35-Hole 19,05:1',#1396,#1397,
'NW35CF-Straight Hole_CF35-Hole 19,05:1');
#18=NEXT_ASSEMBLY_USAGE_OCCURRENCE('KF-Weld Stub-All_KF16-19-39:1',
'KF-Weld Stub-All_KF16-19-39:1','KF-Weld Stub-All_KF16-19-39:1',#1396,#1398,
'KF-Weld Stub-All_KF16-19-39:1');
#19=TOROIDAL_SURFACE('',#879,14.,1.);
#20=SHAPE_REPRESENTATION_RELATIONSHIP('SRR','None',#1393,#22);
#21=SHAPE_REPRESENTATION_RELATIONSHIP('SRR','None',#1394,#23);
#22=ADVANCED_BREP_SHAPE_REPRESENTATION('',(#26),#1377);
#23=ADVANCED_BREP_SHAPE_REPRESENTATION('',(#27),#1378);
#24=STYLED_ITEM('',(#1412),#26);
#25=STYLED_ITEM('',(#1412),#27);
#26=MANIFOLD_SOLID_BREP('Body1',#758);
#27=MANIFOLD_SOLID_BREP('Body1',#759);
#28=FACE_BOUND('',#146,.T.);
#29=FACE_BOUND('',#147,.T.);
#30=FACE_BOUND('',#148,.T.);
#31=FACE_BOUND('',#149,.T.);
#32=FACE_BOUND('',#150,.T.);
#33=FACE_BOUND('',#151,.T.);
#34=FACE_BOUND('',#152,.T.);
#35=FACE_BOUND('',#154,.T.);
#36=FACE_BOUND('',#155,.T.);
#37=FACE_BOUND('',#156,.T.);
#38=FACE_BOUND('',#157,.T.);
#39=FACE_BOUND('',#158,.T.);
#40=FACE_BOUND('',#159,.T.);
#41=FACE_BOUND('',#161,.T.);
#42=FACE_BOUND('',#166,.T.);
#43=FACE_BOUND('',#176,.T.);
#44=FACE_BOUND('',#178,.T.);
#45=FACE_BOUND('',#180,.T.);
#46=PLANE('',#859);
#47=PLANE('',#860);
#48=PLANE('',#861);
#49=PLANE('',#862);
#50=PLANE('',#863);
#51=PLANE('',#864);
#52=PLANE('',#865);
#53=PLANE('',#888);
#54=PLANE('',#889);
#55=PLANE('',#890);
#56=CONICAL_SURFACE('',#788,3.64999999999998,0.785398163397448);
#57=CONICAL_SURFACE('',#792,3.35,0.785398163397469);
#58=CONICAL_SURFACE('',#795,3.65,0.785398163397447);
#59=CONICAL_SURFACE('',#799,3.35,0.785398163397463);
#60=CONICAL_SURFACE('',#802,3.64999999999997,0.78539816339743);
#61=CONICAL_SURFACE('',#806,3.35,0.785398163397453);
#62=CONICAL_SURFACE('',#809,3.64999999999999,0.785398163397442);
#63=CONICAL_SURFACE('',#813,3.35,0.785398163397453);
#64=CONICAL_SURFACE('',#816,3.64999999999998,0.785398163397434);
#65=CONICAL_SURFACE('',#820,3.35,0.785398163397444);
#66=CONICAL_SURFACE('',#823,3.64999999999997,0.78539816339743);
#67=CONICAL_SURFACE('',#827,3.35,0.785398163397453);
#68=CONICAL_SURFACE('',#830,35.,0.785398163397443);
#69=CONICAL_SURFACE('',#833,34.7,0.785398163397414);
#70=CONICAL_SURFACE('',#843,20.7316178594403,0.349065850398869);
#71=CONICAL_SURFACE('',#847,20.95,1.22173047639603);
#72=CONICAL_SURFACE('',#867,14.8,0.785398163397444);
#73=CONICAL_SURFACE('',#871,8.6,0.785398163397444);
#74=CONICAL_SURFACE('',#877,14.2588190451025,1.30899693899575);
#75=FACE_OUTER_BOUND('',#119,.T.);
#76=FACE_OUTER_BOUND('',#120,.T.);
#77=FACE_OUTER_BOUND('',#121,.T.);
#78=FACE_OUTER_BOUND('',#122,.T.);
#79=FACE_OUTER_BOUND('',#123,.T.);
#80=FACE_OUTER_BOUND('',#124,.T.);
#81=FACE_OUTER_BOUND('',#125,.T.);
#82=FACE_OUTER_BOUND('',#126,.T.);
#83=FACE_OUTER_BOUND('',#127,.T.);
#84=FACE_OUTER_BOUND('',#128,.T.);
#85=FACE_OUTER_BOUND('',#129,.T.);
#86=FACE_OUTER_BOUND('',#130,.T.);
#87=FACE_OUTER_BOUND('',#131,.T.);
#88=FACE_OUTER_BOUND('',#132,.T.);
#89=FACE_OUTER_BOUND('',#133,.T.);
#90=FACE_OUTER_BOUND('',#134,.T.);
#91=FACE_OUTER_BOUND('',#135,.T.);
#92=FACE_OUTER_BOUND('',#136,.T.);
#93=FACE_OUTER_BOUND('',#137,.T.);
#94=FACE_OUTER_BOUND('',#138,.T.);
#95=FACE_OUTER_BOUND('',#139,.T.);
#96=FACE_OUTER_BOUND('',#140,.T.);
#97=FACE_OUTER_BOUND('',#141,.T.);
#98=FACE_OUTER_BOUND('',#142,.T.);
#99=FACE_OUTER_BOUND('',#143,.T.);
#100=FACE_OUTER_BOUND('',#144,.T.);
#101=FACE_OUTER_BOUND('',#145,.T.);
#102=FACE_OUTER_BOUND('',#153,.T.);
#103=FACE_OUTER_BOUND('',#160,.T.);
#104=FACE_OUTER_BOUND('',#162,.T.);
#105=FACE_OUTER_BOUND('',#163,.T.);
#106=FACE_OUTER_BOUND('',#164,.T.);
#107=FACE_OUTER_BOUND('',#165,.T.);
#108=FACE_OUTER_BOUND('',#167,.T.);
#109=FACE_OUTER_BOUND('',#168,.T.);
#110=FACE_OUTER_BOUND('',#169,.T.);
#111=FACE_OUTER_BOUND('',#170,.T.);
#112=FACE_OUTER_BOUND('',#171,.T.);
#113=FACE_OUTER_BOUND('',#172,.T.);
#114=FACE_OUTER_BOUND('',#173,.T.);
#115=FACE_OUTER_BOUND('',#174,.T.);
#116=FACE_OUTER_BOUND('',#175,.T.);
#117=FACE_OUTER_BOUND('',#177,.T.);
#118=FACE_OUTER_BOUND('',#179,.T.);
#119=EDGE_LOOP('',(#494,#495,#496,#497));
#120=EDGE_LOOP('',(#498,#499,#500,#501,#502));
#121=EDGE_LOOP('',(#503,#504,#505,#506));
#122=EDGE_LOOP('',(#507,#508,#509,#510,#511));
#123=EDGE_LOOP('',(#512,#513,#514,#515));
#124=EDGE_LOOP('',(#516,#517,#518,#519,#520));
#125=EDGE_LOOP('',(#521,#522,#523,#524));
#126=EDGE_LOOP('',(#525,#526,#527,#528,#529));
#127=EDGE_LOOP('',(#530,#531,#532,#533));
#128=EDGE_LOOP('',(#534,#535,#536,#537,#538));
#129=EDGE_LOOP('',(#539,#540,#541,#542));
#130=EDGE_LOOP('',(#543,#544,#545,#546,#547));
#131=EDGE_LOOP('',(#548,#549,#550,#551));
#132=EDGE_LOOP('',(#552,#553,#554,#555));
#133=EDGE_LOOP('',(#556,#557,#558,#559,#560));
#134=EDGE_LOOP('',(#561,#562,#563,#564,#565));
#135=EDGE_LOOP('',(#566,#567,#568,#569,#570));
#136=EDGE_LOOP('',(#571,#572,#573,#574,#575));
#137=EDGE_LOOP('',(#576,#577,#578,#579,#580));
#138=EDGE_LOOP('',(#581,#582,#583,#584,#585));
#139=EDGE_LOOP('',(#586,#587,#588,#589,#590));
#140=EDGE_LOOP('',(#591,#592,#593,#594,#595));
#141=EDGE_LOOP('',(#596,#597,#598,#599,#600,#601));
#142=EDGE_LOOP('',(#602,#603,#604,#605,#606,#607,#608,#609,#610));
#143=EDGE_LOOP('',(#611,#612,#613,#614,#615,#616,#617,#618));
#144=EDGE_LOOP('',(#619,#620,#621,#622));
#145=EDGE_LOOP('',(#623));
#146=EDGE_LOOP('',(#624));
#147=EDGE_LOOP('',(#625));
#148=EDGE_LOOP('',(#626));
#149=EDGE_LOOP('',(#627));
#150=EDGE_LOOP('',(#628));
#151=EDGE_LOOP('',(#629));
#152=EDGE_LOOP('',(#630));
#153=EDGE_LOOP('',(#631,#632,#633,#634,#635));
#154=EDGE_LOOP('',(#636));
#155=EDGE_LOOP('',(#637));
#156=EDGE_LOOP('',(#638));
#157=EDGE_LOOP('',(#639));
#158=EDGE_LOOP('',(#640));
#159=EDGE_LOOP('',(#641));
#160=EDGE_LOOP('',(#642));
#161=EDGE_LOOP('',(#643));
#162=EDGE_LOOP('',(#644,#645,#646,#647,#648));
#163=EDGE_LOOP('',(#649,#650,#651,#652,#653));
#164=EDGE_LOOP('',(#654,#655,#656,#657));
#165=EDGE_LOOP('',(#658));
#166=EDGE_LOOP('',(#659));
#167=EDGE_LOOP('',(#660,#661,#662,#663,#664));
#168=EDGE_LOOP('',(#665,#666,#667,#668));
#169=EDGE_LOOP('',(#669,#670,#671,#672));
#170=EDGE_LOOP('',(#673,#674,#675,#676));
#171=EDGE_LOOP('',(#677,#678,#679,#680));
#172=EDGE_LOOP('',(#681,#682,#683,#684,#685));
#173=EDGE_LOOP('',(#686,#687,#688,#689));
#174=EDGE_LOOP('',(#690,#691,#692,#693));
#175=EDGE_LOOP('',(#694));
#176=EDGE_LOOP('',(#695));
#177=EDGE_LOOP('',(#696));
#178=EDGE_LOOP('',(#697));
#179=EDGE_LOOP('',(#698));
#180=EDGE_LOOP('',(#699));
#181=LINE('',#1161,#223);
#182=LINE('',#1169,#224);
#183=LINE('',#1175,#225);
#184=LINE('',#1183,#226);
#185=LINE('',#1189,#227);
#186=LINE('',#1197,#228);
#187=LINE('',#1203,#229);
#188=LINE('',#1211,#230);
#189=LINE('',#1217,#231);
#190=LINE('',#1225,#232);
#191=LINE('',#1231,#233);
#192=LINE('',#1239,#234);
#193=LINE('',#1245,#235);
#194=LINE('',#1251,#236);
#195=LINE('',#1258,#237);
#196=LINE('',#1263,#238);
#197=LINE('',#1265,#239);
#198=LINE('',#1267,#240);
#199=LINE('',#1269,#241);
#200=LINE('',#1271,#242);
#201=LINE('',#1273,#243);
#202=LINE('',#1275,#244);
#203=LINE('',#1280,#245);
#204=LINE('',#1288,#246);
#205=LINE('',#1292,#247);
#206=LINE('',#1296,#248);
#207=LINE('',#1300,#249);
#208=LINE('',#1303,#250);
#209=LINE('',#1305,#251);
#210=LINE('',#1308,#252);
#211=LINE('',#1313,#253);
#212=LINE('',#1317,#254);
#213=LINE('',#1318,#255);
#214=LINE('',#1321,#256);
#215=LINE('',#1323,#257);
#216=LINE('',#1333,#258);
#217=LINE('',#1339,#259);
#218=LINE('',#1345,#260);
#219=LINE('',#1350,#261);
#220=LINE('',#1356,#262);
#221=LINE('',#1360,#263);
#222=LINE('',#1365,#264);
#223=VECTOR('',#901,7.8);
#224=VECTOR('',#910,3.64999999999999);
#225=VECTOR('',#917,3.35);
#226=VECTOR('',#926,3.65);
#227=VECTOR('',#933,3.35);
#228=VECTOR('',#942,3.64999999999997);
#229=VECTOR('',#949,3.35);
#230=VECTOR('',#958,3.64999999999999);
#231=VECTOR('',#965,3.35);
#232=VECTOR('',#974,3.64999999999998);
#233=VECTOR('',#981,3.35);
#234=VECTOR('',#990,3.64999999999997);
#235=VECTOR('',#997,3.35);
#236=VECTOR('',#1004,35.);
#237=VECTOR('',#1011,10.);
#238=VECTOR('',#1016,10.);
#239=VECTOR('',#1019,3.35);
#240=VECTOR('',#1022,3.35);
#241=VECTOR('',#1025,3.35);
#242=VECTOR('',#1028,3.35);
#243=VECTOR('',#1031,3.35);
#244=VECTOR('',#1034,3.35);
#245=VECTOR('',#1039,20.7316178594403);
#246=VECTOR('',#1048,20.95);
#247=VECTOR('',#1053,24.175);
#248=VECTOR('',#1056,1000.);
#249=VECTOR('',#1059,1000.);
#250=VECTOR('',#1064,35.);
#251=VECTOR('',#1065,1000.);
#252=VECTOR('',#1068,1000.);
#253=VECTOR('',#1073,9.55);
#254=VECTOR('',#1080,1000.);
#255=VECTOR('',#1081,1000.);
#256=VECTOR('',#1086,1000.);
#257=VECTOR('',#1089,1000.);
#258=VECTOR('',#1102,14.8);
#259=VECTOR('',#1109,8.6);
#260=VECTOR('',#1116,9.525);
#261=VECTOR('',#1123,14.2588190451025);
#262=VECTOR('',#1132,15.);
#263=VECTOR('',#1137,8.6);
#264=VECTOR('',#1142,7.87499999999999);
#265=CIRCLE('',#786,7.8);
#266=CIRCLE('',#787,7.8);
#267=CIRCLE('',#789,3.35);
#268=CIRCLE('',#790,3.35);
#269=CIRCLE('',#791,3.64999999999998);
#270=CIRCLE('',#793,3.35);
#271=CIRCLE('',#794,3.65000000000003);
#272=CIRCLE('',#796,3.35);
#273=CIRCLE('',#797,3.35);
#274=CIRCLE('',#798,3.65);
#275=CIRCLE('',#800,3.35);
#276=CIRCLE('',#801,3.65000000000002);
#277=CIRCLE('',#803,3.35);
#278=CIRCLE('',#804,3.35);
#279=CIRCLE('',#805,3.64999999999997);
#280=CIRCLE('',#807,3.35);
#281=CIRCLE('',#808,3.65000000000002);
#282=CIRCLE('',#810,3.35);
#283=CIRCLE('',#811,3.35);
#284=CIRCLE('',#812,3.64999999999999);
#285=CIRCLE('',#814,3.35);
#286=CIRCLE('',#815,3.65000000000002);
#287=CIRCLE('',#817,3.35);
#288=CIRCLE('',#818,3.35);
#289=CIRCLE('',#819,3.64999999999998);
#290=CIRCLE('',#821,3.35);
#291=CIRCLE('',#822,3.64999999999999);
#292=CIRCLE('',#824,3.35);
#293=CIRCLE('',#825,3.35);
#294=CIRCLE('',#826,3.64999999999997);
#295=CIRCLE('',#828,3.35);
#296=CIRCLE('',#829,3.65000000000002);
#297=CIRCLE('',#831,35.);
#298=CIRCLE('',#832,34.7);
#299=CIRCLE('',#834,34.7);
#300=CIRCLE('',#835,35.);
#301=CIRCLE('',#836,35.);
#302=CIRCLE('',#844,20.7316178594403);
#303=CIRCLE('',#845,20.95);
#304=CIRCLE('',#846,20.95);
#305=CIRCLE('',#848,24.175);
#306=CIRCLE('',#849,24.175);
#307=CIRCLE('',#851,24.175);
#308=CIRCLE('',#852,24.175);
#309=CIRCLE('',#853,24.175);
#310=CIRCLE('',#855,35.);
#311=CIRCLE('',#857,9.55);
#312=CIRCLE('',#858,9.55);
#313=CIRCLE('',#868,15.);
#314=CIRCLE('',#869,15.);
#315=CIRCLE('',#870,14.8);
#316=CIRCLE('',#872,8.6);
#317=CIRCLE('',#873,8.79999999999998);
#318=CIRCLE('',#875,9.525);
#319=CIRCLE('',#876,9.52499999999999);
#320=CIRCLE('',#878,14.2588190451025);
#321=CIRCLE('',#880,15.);
#322=CIRCLE('',#881,1.);
#323=CIRCLE('',#884,8.6);
#324=CIRCLE('',#886,7.87499999999999);
#325=CIRCLE('',#887,7.87499999999999);
#326=VERTEX_POINT('',#1158);
#327=VERTEX_POINT('',#1160);
#328=VERTEX_POINT('',#1164);
#329=VERTEX_POINT('',#1165);
#330=VERTEX_POINT('',#1168);
#331=VERTEX_POINT('',#1172);
#332=VERTEX_POINT('',#1174);
#333=VERTEX_POINT('',#1178);
#334=VERTEX_POINT('',#1179);
#335=VERTEX_POINT('',#1182);
#336=VERTEX_POINT('',#1186);
#337=VERTEX_POINT('',#1188);
#338=VERTEX_POINT('',#1192);
#339=VERTEX_POINT('',#1193);
#340=VERTEX_POINT('',#1196);
#341=VERTEX_POINT('',#1200);
#342=VERTEX_POINT('',#1202);
#343=VERTEX_POINT('',#1206);
#344=VERTEX_POINT('',#1207);
#345=VERTEX_POINT('',#1210);
#346=VERTEX_POINT('',#1214);
#347=VERTEX_POINT('',#1216);
#348=VERTEX_POINT('',#1220);
#349=VERTEX_POINT('',#1221);
#350=VERTEX_POINT('',#1224);
#351=VERTEX_POINT('',#1228);
#352=VERTEX_POINT('',#1230);
#353=VERTEX_POINT('',#1234);
#354=VERTEX_POINT('',#1235);
#355=VERTEX_POINT('',#1238);
#356=VERTEX_POINT('',#1242);
#357=VERTEX_POINT('',#1244);
#358=VERTEX_POINT('',#1248);
#359=VERTEX_POINT('',#1250);
#360=VERTEX_POINT('',#1254);
#361=VERTEX_POINT('',#1255);
#362=VERTEX_POINT('',#1257);
#363=VERTEX_POINT('',#1259);
#364=VERTEX_POINT('',#1261);
#365=VERTEX_POINT('',#1277);
#366=VERTEX_POINT('',#1279);
#367=VERTEX_POINT('',#1281);
#368=VERTEX_POINT('',#1285);
#369=VERTEX_POINT('',#1286);
#370=VERTEX_POINT('',#1291);
#371=VERTEX_POINT('',#1293);
#372=VERTEX_POINT('',#1295);
#373=VERTEX_POINT('',#1297);
#374=VERTEX_POINT('',#1299);
#375=VERTEX_POINT('',#1304);
#376=VERTEX_POINT('',#1306);
#377=VERTEX_POINT('',#1310);
#378=VERTEX_POINT('',#1312);
#379=VERTEX_POINT('',#1328);
#380=VERTEX_POINT('',#1329);
#381=VERTEX_POINT('',#1332);
#382=VERTEX_POINT('',#1336);
#383=VERTEX_POINT('',#1338);
#384=VERTEX_POINT('',#1342);
#385=VERTEX_POINT('',#1344);
#386=VERTEX_POINT('',#1348);
#387=VERTEX_POINT('',#1352);
#388=VERTEX_POINT('',#1358);
#389=VERTEX_POINT('',#1362);
#390=VERTEX_POINT('',#1364);
#391=EDGE_CURVE('',#326,#326,#265,.T.);
#392=EDGE_CURVE('',#326,#327,#181,.T.);
#393=EDGE_CURVE('',#327,#327,#266,.T.);
#394=EDGE_CURVE('',#328,#329,#267,.T.);
#395=EDGE_CURVE('',#329,#328,#268,.T.);
#396=EDGE_CURVE('',#329,#330,#182,.T.);
#397=EDGE_CURVE('',#330,#330,#269,.T.);
#398=EDGE_CURVE('',#331,#331,#270,.T.);
#399=EDGE_CURVE('',#331,#332,#183,.T.);
#400=EDGE_CURVE('',#332,#332,#271,.T.);
#401=EDGE_CURVE('',#333,#334,#272,.T.);
#402=EDGE_CURVE('',#334,#333,#273,.T.);
#403=EDGE_CURVE('',#334,#335,#184,.T.);
#404=EDGE_CURVE('',#335,#335,#274,.T.);
#405=EDGE_CURVE('',#336,#336,#275,.T.);
#406=EDGE_CURVE('',#336,#337,#185,.T.);
#407=EDGE_CURVE('',#337,#337,#276,.T.);
#408=EDGE_CURVE('',#338,#339,#277,.T.);
#409=EDGE_CURVE('',#339,#338,#278,.T.);
#410=EDGE_CURVE('',#339,#340,#186,.T.);
#411=EDGE_CURVE('',#340,#340,#279,.T.);
#412=EDGE_CURVE('',#341,#341,#280,.T.);
#413=EDGE_CURVE('',#341,#342,#187,.T.);
#414=EDGE_CURVE('',#342,#342,#281,.T.);
#415=EDGE_CURVE('',#343,#344,#282,.T.);
#416=EDGE_CURVE('',#344,#343,#283,.T.);
#417=EDGE_CURVE('',#344,#345,#188,.T.);
#418=EDGE_CURVE('',#345,#345,#284,.T.);
#419=EDGE_CURVE('',#346,#346,#285,.T.);
#420=EDGE_CURVE('',#346,#347,#189,.T.);
#421=EDGE_CURVE('',#347,#347,#286,.T.);
#422=EDGE_CURVE('',#348,#349,#287,.T.);
#423=EDGE_CURVE('',#349,#348,#288,.T.);
#424=EDGE_CURVE('',#349,#350,#190,.T.);
#425=EDGE_CURVE('',#350,#350,#289,.T.);
#426=EDGE_CURVE('',#351,#351,#290,.T.);
#427=EDGE_CURVE('',#351,#352,#191,.T.);
#428=EDGE_CURVE('',#352,#352,#291,.T.);
#429=EDGE_CURVE('',#353,#354,#292,.T.);
#430=EDGE_CURVE('',#354,#353,#293,.T.);
#431=EDGE_CURVE('',#354,#355,#192,.T.);
#432=EDGE_CURVE('',#355,#355,#294,.T.);
#433=EDGE_CURVE('',#356,#356,#295,.T.);
#434=EDGE_CURVE('',#356,#357,#193,.T.);
#435=EDGE_CURVE('',#357,#357,#296,.T.);
#436=EDGE_CURVE('',#358,#358,#297,.T.);
#437=EDGE_CURVE('',#358,#359,#194,.T.);
#438=EDGE_CURVE('',#359,#359,#298,.T.);
#439=EDGE_CURVE('',#360,#361,#299,.T.);
#440=EDGE_CURVE('',#362,#360,#195,.T.);
#441=EDGE_CURVE('',#363,#362,#300,.T.);
#442=EDGE_CURVE('',#364,#363,#301,.T.);
#443=EDGE_CURVE('',#361,#364,#196,.T.);
#444=EDGE_CURVE('',#328,#331,#197,.T.);
#445=EDGE_CURVE('',#333,#336,#198,.T.);
#446=EDGE_CURVE('',#338,#341,#199,.T.);
#447=EDGE_CURVE('',#343,#346,#200,.T.);
#448=EDGE_CURVE('',#348,#351,#201,.T.);
#449=EDGE_CURVE('',#353,#356,#202,.T.);
#450=EDGE_CURVE('',#365,#365,#302,.T.);
#451=EDGE_CURVE('',#365,#366,#203,.T.);
#452=EDGE_CURVE('',#366,#367,#303,.T.);
#453=EDGE_CURVE('',#367,#366,#304,.T.);
#454=EDGE_CURVE('',#368,#369,#305,.T.);
#455=EDGE_CURVE('',#369,#367,#204,.T.);
#456=EDGE_CURVE('',#369,#368,#306,.T.);
#457=EDGE_CURVE('',#368,#370,#205,.T.);
#458=EDGE_CURVE('',#370,#371,#307,.T.);
#459=EDGE_CURVE('',#372,#371,#206,.T.);
#460=EDGE_CURVE('',#373,#372,#308,.T.);
#461=EDGE_CURVE('',#374,#373,#207,.T.);
#462=EDGE_CURVE('',#374,#370,#309,.T.);
#463=EDGE_CURVE('',#363,#358,#208,.T.);
#464=EDGE_CURVE('',#375,#362,#209,.T.);
#465=EDGE_CURVE('',#376,#375,#310,.T.);
#466=EDGE_CURVE('',#364,#376,#210,.T.);
#467=EDGE_CURVE('',#377,#377,#311,.T.);
#468=EDGE_CURVE('',#377,#378,#211,.T.);
#469=EDGE_CURVE('',#378,#378,#312,.T.);
#470=EDGE_CURVE('',#360,#374,#212,.T.);
#471=EDGE_CURVE('',#371,#361,#213,.T.);
#472=EDGE_CURVE('',#375,#373,#214,.T.);
#473=EDGE_CURVE('',#372,#376,#215,.T.);
#474=EDGE_CURVE('',#379,#380,#313,.T.);
#475=EDGE_CURVE('',#380,#379,#314,.T.);
#476=EDGE_CURVE('',#380,#381,#216,.T.);
#477=EDGE_CURVE('',#381,#381,#315,.T.);
#478=EDGE_CURVE('',#382,#382,#316,.T.);
#479=EDGE_CURVE('',#382,#383,#217,.T.);
#480=EDGE_CURVE('',#383,#383,#317,.T.);
#481=EDGE_CURVE('',#384,#384,#318,.T.);
#482=EDGE_CURVE('',#384,#385,#218,.T.);
#483=EDGE_CURVE('',#385,#385,#319,.T.);
#484=EDGE_CURVE('',#386,#386,#320,.T.);
#485=EDGE_CURVE('',#386,#384,#219,.T.);
#486=EDGE_CURVE('',#387,#387,#321,.T.);
#487=EDGE_CURVE('',#387,#386,#322,.T.);
#488=EDGE_CURVE('',#379,#387,#220,.T.);
#489=EDGE_CURVE('',#388,#388,#323,.T.);
#490=EDGE_CURVE('',#388,#382,#221,.T.);
#491=EDGE_CURVE('',#389,#389,#324,.T.);
#492=EDGE_CURVE('',#389,#390,#222,.T.);
#493=EDGE_CURVE('',#390,#390,#325,.T.);
#494=ORIENTED_EDGE('',*,*,#391,.F.);
#495=ORIENTED_EDGE('',*,*,#392,.T.);
#496=ORIENTED_EDGE('',*,*,#393,.T.);
#497=ORIENTED_EDGE('',*,*,#392,.F.);
#498=ORIENTED_EDGE('',*,*,#394,.F.);
#499=ORIENTED_EDGE('',*,*,#395,.F.);
#500=ORIENTED_EDGE('',*,*,#396,.T.);
#501=ORIENTED_EDGE('',*,*,#397,.F.);
#502=ORIENTED_EDGE('',*,*,#396,.F.);
#503=ORIENTED_EDGE('',*,*,#398,.F.);
#504=ORIENTED_EDGE('',*,*,#399,.T.);
#505=ORIENTED_EDGE('',*,*,#400,.F.);
#506=ORIENTED_EDGE('',*,*,#399,.F.);
#507=ORIENTED_EDGE('',*,*,#401,.F.);
#508=ORIENTED_EDGE('',*,*,#402,.F.);
#509=ORIENTED_EDGE('',*,*,#403,.T.);
#510=ORIENTED_EDGE('',*,*,#404,.F.);
#511=ORIENTED_EDGE('',*,*,#403,.F.);
#512=ORIENTED_EDGE('',*,*,#405,.F.);
#513=ORIENTED_EDGE('',*,*,#406,.T.);
#514=ORIENTED_EDGE('',*,*,#407,.F.);
#515=ORIENTED_EDGE('',*,*,#406,.F.);
#516=ORIENTED_EDGE('',*,*,#408,.F.);
#517=ORIENTED_EDGE('',*,*,#409,.F.);
#518=ORIENTED_EDGE('',*,*,#410,.T.);
#519=ORIENTED_EDGE('',*,*,#411,.F.);
#520=ORIENTED_EDGE('',*,*,#410,.F.);
#521=ORIENTED_EDGE('',*,*,#412,.F.);
#522=ORIENTED_EDGE('',*,*,#413,.T.);
#523=ORIENTED_EDGE('',*,*,#414,.F.);
#524=ORIENTED_EDGE('',*,*,#413,.F.);
#525=ORIENTED_EDGE('',*,*,#415,.F.);
#526=ORIENTED_EDGE('',*,*,#416,.F.);
#527=ORIENTED_EDGE('',*,*,#417,.T.);
#528=ORIENTED_EDGE('',*,*,#418,.F.);
#529=ORIENTED_EDGE('',*,*,#417,.F.);
#530=ORIENTED_EDGE('',*,*,#419,.F.);
#531=ORIENTED_EDGE('',*,*,#420,.T.);
#532=ORIENTED_EDGE('',*,*,#421,.F.);
#533=ORIENTED_EDGE('',*,*,#420,.F.);
#534=ORIENTED_EDGE('',*,*,#422,.F.);
#535=ORIENTED_EDGE('',*,*,#423,.F.);
#536=ORIENTED_EDGE('',*,*,#424,.T.);
#537=ORIENTED_EDGE('',*,*,#425,.F.);
#538=ORIENTED_EDGE('',*,*,#424,.F.);
#539=ORIENTED_EDGE('',*,*,#426,.F.);
#540=ORIENTED_EDGE('',*,*,#427,.T.);
#541=ORIENTED_EDGE('',*,*,#428,.F.);
#542=ORIENTED_EDGE('',*,*,#427,.F.);
#543=ORIENTED_EDGE('',*,*,#429,.F.);
#544=ORIENTED_EDGE('',*,*,#430,.F.);
#545=ORIENTED_EDGE('',*,*,#431,.T.);
#546=ORIENTED_EDGE('',*,*,#432,.F.);
#547=ORIENTED_EDGE('',*,*,#431,.F.);
#548=ORIENTED_EDGE('',*,*,#433,.F.);
#549=ORIENTED_EDGE('',*,*,#434,.T.);
#550=ORIENTED_EDGE('',*,*,#435,.F.);
#551=ORIENTED_EDGE('',*,*,#434,.F.);
#552=ORIENTED_EDGE('',*,*,#436,.F.);
#553=ORIENTED_EDGE('',*,*,#437,.T.);
#554=ORIENTED_EDGE('',*,*,#438,.F.);
#555=ORIENTED_EDGE('',*,*,#437,.F.);
#556=ORIENTED_EDGE('',*,*,#439,.F.);
#557=ORIENTED_EDGE('',*,*,#440,.F.);
#558=ORIENTED_EDGE('',*,*,#441,.F.);
#559=ORIENTED_EDGE('',*,*,#442,.F.);
#560=ORIENTED_EDGE('',*,*,#443,.F.);
#561=ORIENTED_EDGE('',*,*,#394,.T.);
#562=ORIENTED_EDGE('',*,*,#395,.T.);
#563=ORIENTED_EDGE('',*,*,#444,.T.);
#564=ORIENTED_EDGE('',*,*,#398,.T.);
#565=ORIENTED_EDGE('',*,*,#444,.F.);
#566=ORIENTED_EDGE('',*,*,#401,.T.);
#567=ORIENTED_EDGE('',*,*,#402,.T.);
#568=ORIENTED_EDGE('',*,*,#445,.T.);
#569=ORIENTED_EDGE('',*,*,#405,.T.);
#570=ORIENTED_EDGE('',*,*,#445,.F.);
#571=ORIENTED_EDGE('',*,*,#408,.T.);
#572=ORIENTED_EDGE('',*,*,#409,.T.);
#573=ORIENTED_EDGE('',*,*,#446,.T.);
#574=ORIENTED_EDGE('',*,*,#412,.T.);
#575=ORIENTED_EDGE('',*,*,#446,.F.);
#576=ORIENTED_EDGE('',*,*,#415,.T.);
#577=ORIENTED_EDGE('',*,*,#416,.T.);
#578=ORIENTED_EDGE('',*,*,#447,.T.);
#579=ORIENTED_EDGE('',*,*,#419,.T.);
#580=ORIENTED_EDGE('',*,*,#447,.F.);
#581=ORIENTED_EDGE('',*,*,#422,.T.);
#582=ORIENTED_EDGE('',*,*,#423,.T.);
#583=ORIENTED_EDGE('',*,*,#448,.T.);
#584=ORIENTED_EDGE('',*,*,#426,.T.);
#585=ORIENTED_EDGE('',*,*,#448,.F.);
#586=ORIENTED_EDGE('',*,*,#429,.T.);
#587=ORIENTED_EDGE('',*,*,#430,.T.);
#588=ORIENTED_EDGE('',*,*,#449,.T.);
#589=ORIENTED_EDGE('',*,*,#433,.T.);
#590=ORIENTED_EDGE('',*,*,#449,.F.);
#591=ORIENTED_EDGE('',*,*,#450,.F.);
#592=ORIENTED_EDGE('',*,*,#451,.T.);
#593=ORIENTED_EDGE('',*,*,#452,.T.);
#594=ORIENTED_EDGE('',*,*,#453,.T.);
#595=ORIENTED_EDGE('',*,*,#451,.F.);
#596=ORIENTED_EDGE('',*,*,#454,.T.);
#597=ORIENTED_EDGE('',*,*,#455,.T.);
#598=ORIENTED_EDGE('',*,*,#452,.F.);
#599=ORIENTED_EDGE('',*,*,#453,.F.);
#600=ORIENTED_EDGE('',*,*,#455,.F.);
#601=ORIENTED_EDGE('',*,*,#456,.T.);
#602=ORIENTED_EDGE('',*,*,#454,.F.);
#603=ORIENTED_EDGE('',*,*,#457,.T.);
#604=ORIENTED_EDGE('',*,*,#458,.T.);
#605=ORIENTED_EDGE('',*,*,#459,.F.);
#606=ORIENTED_EDGE('',*,*,#460,.F.);
#607=ORIENTED_EDGE('',*,*,#461,.F.);
#608=ORIENTED_EDGE('',*,*,#462,.T.);
#609=ORIENTED_EDGE('',*,*,#457,.F.);
#610=ORIENTED_EDGE('',*,*,#456,.F.);
#611=ORIENTED_EDGE('',*,*,#442,.T.);
#612=ORIENTED_EDGE('',*,*,#463,.T.);
#613=ORIENTED_EDGE('',*,*,#436,.T.);
#614=ORIENTED_EDGE('',*,*,#463,.F.);
#615=ORIENTED_EDGE('',*,*,#441,.T.);
#616=ORIENTED_EDGE('',*,*,#464,.F.);
#617=ORIENTED_EDGE('',*,*,#465,.F.);
#618=ORIENTED_EDGE('',*,*,#466,.F.);
#619=ORIENTED_EDGE('',*,*,#467,.F.);
#620=ORIENTED_EDGE('',*,*,#468,.T.);
#621=ORIENTED_EDGE('',*,*,#469,.T.);
#622=ORIENTED_EDGE('',*,*,#468,.F.);
#623=ORIENTED_EDGE('',*,*,#438,.T.);
#624=ORIENTED_EDGE('',*,*,#469,.F.);
#625=ORIENTED_EDGE('',*,*,#435,.T.);
#626=ORIENTED_EDGE('',*,*,#428,.T.);
#627=ORIENTED_EDGE('',*,*,#421,.T.);
#628=ORIENTED_EDGE('',*,*,#414,.T.);
#629=ORIENTED_EDGE('',*,*,#407,.T.);
#630=ORIENTED_EDGE('',*,*,#400,.T.);
#631=ORIENTED_EDGE('',*,*,#470,.F.);
#632=ORIENTED_EDGE('',*,*,#439,.T.);
#633=ORIENTED_EDGE('',*,*,#471,.F.);
#634=ORIENTED_EDGE('',*,*,#458,.F.);
#635=ORIENTED_EDGE('',*,*,#462,.F.);
#636=ORIENTED_EDGE('',*,*,#432,.T.);
#637=ORIENTED_EDGE('',*,*,#425,.T.);
#638=ORIENTED_EDGE('',*,*,#418,.T.);
#639=ORIENTED_EDGE('',*,*,#411,.T.);
#640=ORIENTED_EDGE('',*,*,#404,.T.);
#641=ORIENTED_EDGE('',*,*,#397,.T.);
#642=ORIENTED_EDGE('',*,*,#450,.T.);
#643=ORIENTED_EDGE('',*,*,#393,.F.);
#644=ORIENTED_EDGE('',*,*,#461,.T.);
#645=ORIENTED_EDGE('',*,*,#472,.F.);
#646=ORIENTED_EDGE('',*,*,#464,.T.);
#647=ORIENTED_EDGE('',*,*,#440,.T.);
#648=ORIENTED_EDGE('',*,*,#470,.T.);
#649=ORIENTED_EDGE('',*,*,#459,.T.);
#650=ORIENTED_EDGE('',*,*,#471,.T.);
#651=ORIENTED_EDGE('',*,*,#443,.T.);
#652=ORIENTED_EDGE('',*,*,#466,.T.);
#653=ORIENTED_EDGE('',*,*,#473,.F.);
#654=ORIENTED_EDGE('',*,*,#465,.T.);
#655=ORIENTED_EDGE('',*,*,#472,.T.);
#656=ORIENTED_EDGE('',*,*,#460,.T.);
#657=ORIENTED_EDGE('',*,*,#473,.T.);
#658=ORIENTED_EDGE('',*,*,#467,.T.);
#659=ORIENTED_EDGE('',*,*,#391,.T.);
#660=ORIENTED_EDGE('',*,*,#474,.F.);
#661=ORIENTED_EDGE('',*,*,#475,.F.);
#662=ORIENTED_EDGE('',*,*,#476,.T.);
#663=ORIENTED_EDGE('',*,*,#477,.F.);
#664=ORIENTED_EDGE('',*,*,#476,.F.);
#665=ORIENTED_EDGE('',*,*,#478,.F.);
#666=ORIENTED_EDGE('',*,*,#479,.T.);
#667=ORIENTED_EDGE('',*,*,#480,.F.);
#668=ORIENTED_EDGE('',*,*,#479,.F.);
#669=ORIENTED_EDGE('',*,*,#481,.F.);
#670=ORIENTED_EDGE('',*,*,#482,.T.);
#671=ORIENTED_EDGE('',*,*,#483,.T.);
#672=ORIENTED_EDGE('',*,*,#482,.F.);
#673=ORIENTED_EDGE('',*,*,#484,.F.);
#674=ORIENTED_EDGE('',*,*,#485,.T.);
#675=ORIENTED_EDGE('',*,*,#481,.T.);
#676=ORIENTED_EDGE('',*,*,#485,.F.);
#677=ORIENTED_EDGE('',*,*,#486,.F.);
#678=ORIENTED_EDGE('',*,*,#487,.T.);
#679=ORIENTED_EDGE('',*,*,#484,.T.);
#680=ORIENTED_EDGE('',*,*,#487,.F.);
#681=ORIENTED_EDGE('',*,*,#474,.T.);
#682=ORIENTED_EDGE('',*,*,#475,.T.);
#683=ORIENTED_EDGE('',*,*,#488,.T.);
#684=ORIENTED_EDGE('',*,*,#486,.T.);
#685=ORIENTED_EDGE('',*,*,#488,.F.);
#686=ORIENTED_EDGE('',*,*,#489,.F.);
#687=ORIENTED_EDGE('',*,*,#490,.T.);
#688=ORIENTED_EDGE('',*,*,#478,.T.);
#689=ORIENTED_EDGE('',*,*,#490,.F.);
#690=ORIENTED_EDGE('',*,*,#491,.F.);
#691=ORIENTED_EDGE('',*,*,#492,.T.);
#692=ORIENTED_EDGE('',*,*,#493,.T.);
#693=ORIENTED_EDGE('',*,*,#492,.F.);
#694=ORIENTED_EDGE('',*,*,#483,.F.);
#695=ORIENTED_EDGE('',*,*,#491,.T.);
#696=ORIENTED_EDGE('',*,*,#489,.T.);
#697=ORIENTED_EDGE('',*,*,#493,.F.);
#698=ORIENTED_EDGE('',*,*,#477,.T.);
#699=ORIENTED_EDGE('',*,*,#480,.T.);
#700=CYLINDRICAL_SURFACE('',#785,7.8);
#701=CYLINDRICAL_SURFACE('',#837,3.35);
#702=CYLINDRICAL_SURFACE('',#838,3.35);
#703=CYLINDRICAL_SURFACE('',#839,3.35);
#704=CYLINDRICAL_SURFACE('',#840,3.35);
#705=CYLINDRICAL_SURFACE('',#841,3.35);
#706=CYLINDRICAL_SURFACE('',#842,3.35);
#707=CYLINDRICAL_SURFACE('',#850,24.175);
#708=CYLINDRICAL_SURFACE('',#854,35.);
#709=CYLINDRICAL_SURFACE('',#856,9.55);
#710=CYLINDRICAL_SURFACE('',#874,9.525);
#711=CYLINDRICAL_SURFACE('',#882,15.);
#712=CYLINDRICAL_SURFACE('',#883,8.6);
#713=CYLINDRICAL_SURFACE('',#885,7.87499999999999);
#714=ADVANCED_FACE('',(#75),#700,.F.);
#715=ADVANCED_FACE('',(#76),#56,.F.);
#716=ADVANCED_FACE('',(#77),#57,.F.);
#717=ADVANCED_FACE('',(#78),#58,.F.);
#718=ADVANCED_FACE('',(#79),#59,.F.);
#719=ADVANCED_FACE('',(#80),#60,.F.);
#720=ADVANCED_FACE('',(#81),#61,.F.);
#721=ADVANCED_FACE('',(#82),#62,.F.);
#722=ADVANCED_FACE('',(#83),#63,.F.);
#723=ADVANCED_FACE('',(#84),#64,.F.);
#724=ADVANCED_FACE('',(#85),#65,.F.);
#725=ADVANCED_FACE('',(#86),#66,.F.);
#726=ADVANCED_FACE('',(#87),#67,.F.);
#727=ADVANCED_FACE('',(#88),#68,.T.);
#728=ADVANCED_FACE('',(#89),#69,.T.);
#729=ADVANCED_FACE('',(#90),#701,.F.);
#730=ADVANCED_FACE('',(#91),#702,.F.);
#731=ADVANCED_FACE('',(#92),#703,.F.);
#732=ADVANCED_FACE('',(#93),#704,.F.);
#733=ADVANCED_FACE('',(#94),#705,.F.);
#734=ADVANCED_FACE('',(#95),#706,.F.);
#735=ADVANCED_FACE('',(#96),#70,.F.);
#736=ADVANCED_FACE('',(#97),#71,.T.);
#737=ADVANCED_FACE('',(#98),#707,.F.);
#738=ADVANCED_FACE('',(#99),#708,.T.);
#739=ADVANCED_FACE('',(#100),#709,.F.);
#740=ADVANCED_FACE('',(#101,#28,#29,#30,#31,#32,#33,#34),#46,.T.);
#741=ADVANCED_FACE('',(#102,#35,#36,#37,#38,#39,#40),#47,.T.);
#742=ADVANCED_FACE('',(#103,#41),#48,.T.);
#743=ADVANCED_FACE('',(#104),#49,.F.);
#744=ADVANCED_FACE('',(#105),#50,.F.);
#745=ADVANCED_FACE('',(#106),#51,.F.);
#746=ADVANCED_FACE('',(#107,#42),#52,.F.);
#747=ADVANCED_FACE('',(#108),#72,.T.);
#748=ADVANCED_FACE('',(#109),#73,.F.);
#749=ADVANCED_FACE('',(#110),#710,.T.);
#750=ADVANCED_FACE('',(#111),#74,.T.);
#751=ADVANCED_FACE('',(#112),#19,.T.);
#752=ADVANCED_FACE('',(#113),#711,.T.);
#753=ADVANCED_FACE('',(#114),#712,.F.);
#754=ADVANCED_FACE('',(#115),#713,.F.);
#755=ADVANCED_FACE('',(#116,#43),#53,.T.);
#756=ADVANCED_FACE('',(#117,#44),#54,.T.);
#757=ADVANCED_FACE('',(#118,#45),#55,.T.);
#758=CLOSED_SHELL('',(#714,#715,#716,#717,#718,#719,#720,#721,#722,#723,
#724,#725,#726,#727,#728,#729,#730,#731,#732,#733,#734,#735,#736,#737,#738,
#739,#740,#741,#742,#743,#744,#745,#746));
#759=CLOSED_SHELL('',(#747,#748,#749,#750,#751,#752,#753,#754,#755,#756,
#757));
#760=DERIVED_UNIT_ELEMENT(#764,1.);
#761=DERIVED_UNIT_ELEMENT(#1381,-3.);
#762=DERIVED_UNIT_ELEMENT(#764,1.);
#763=DERIVED_UNIT_ELEMENT(#1381,-3.);
#764=(
MASS_UNIT()
NAMED_UNIT(*)
SI_UNIT(.KILO.,.GRAM.)
);
#765=DERIVED_UNIT((#760,#761));
#766=DERIVED_UNIT((#762,#763));
#767=MEASURE_REPRESENTATION_ITEM('density measure',
POSITIVE_RATIO_MEASURE(7850.),#765);
#768=MEASURE_REPRESENTATION_ITEM('density measure',
POSITIVE_RATIO_MEASURE(7850.),#766);
#769=PROPERTY_DEFINITION_REPRESENTATION(#779,#773);
#770=PROPERTY_DEFINITION_REPRESENTATION(#780,#774);
#771=PROPERTY_DEFINITION_REPRESENTATION(#781,#775);
#772=PROPERTY_DEFINITION_REPRESENTATION(#782,#776);
#773=REPRESENTATION('material name',(#777),#1377);
#774=REPRESENTATION('density',(#767),#1377);
#775=REPRESENTATION('material name',(#778),#1378);
#776=REPRESENTATION('density',(#768),#1378);
#777=DESCRIPTIVE_REPRESENTATION_ITEM('Steel','Steel');
#778=DESCRIPTIVE_REPRESENTATION_ITEM('Steel','Steel');
#779=PROPERTY_DEFINITION('material property','material name',#1397);
#780=PROPERTY_DEFINITION('material property','density of part',#1397);
#781=PROPERTY_DEFINITION('material property','material name',#1398);
#782=PROPERTY_DEFINITION('material property','density of part',#1398);
#783=AXIS2_PLACEMENT_3D('',#1155,#893,#894);
#784=AXIS2_PLACEMENT_3D('',#1156,#895,#896);
#785=AXIS2_PLACEMENT_3D('',#1157,#897,#898);
#786=AXIS2_PLACEMENT_3D('',#1159,#899,#900);
#787=AXIS2_PLACEMENT_3D('',#1162,#902,#903);
#788=AXIS2_PLACEMENT_3D('',#1163,#904,#905);
#789=AXIS2_PLACEMENT_3D('',#1166,#906,#907);
#790=AXIS2_PLACEMENT_3D('',#1167,#908,#909);
#791=AXIS2_PLACEMENT_3D('',#1170,#911,#912);
#792=AXIS2_PLACEMENT_3D('',#1171,#913,#914);
#793=AXIS2_PLACEMENT_3D('',#1173,#915,#916);
#794=AXIS2_PLACEMENT_3D('',#1176,#918,#919);
#795=AXIS2_PLACEMENT_3D('',#1177,#920,#921);
#796=AXIS2_PLACEMENT_3D('',#1180,#922,#923);
#797=AXIS2_PLACEMENT_3D('',#1181,#924,#925);
#798=AXIS2_PLACEMENT_3D('',#1184,#927,#928);
#799=AXIS2_PLACEMENT_3D('',#1185,#929,#930);
#800=AXIS2_PLACEMENT_3D('',#1187,#931,#932);
#801=AXIS2_PLACEMENT_3D('',#1190,#934,#935);
#802=AXIS2_PLACEMENT_3D('',#1191,#936,#937);
#803=AXIS2_PLACEMENT_3D('',#1194,#938,#939);
#804=AXIS2_PLACEMENT_3D('',#1195,#940,#941);
#805=AXIS2_PLACEMENT_3D('',#1198,#943,#944);
#806=AXIS2_PLACEMENT_3D('',#1199,#945,#946);
#807=AXIS2_PLACEMENT_3D('',#1201,#947,#948);
#808=AXIS2_PLACEMENT_3D('',#1204,#950,#951);
#809=AXIS2_PLACEMENT_3D('',#1205,#952,#953);
#810=AXIS2_PLACEMENT_3D('',#1208,#954,#955);
#811=AXIS2_PLACEMENT_3D('',#1209,#956,#957);
#812=AXIS2_PLACEMENT_3D('',#1212,#959,#960);
#813=AXIS2_PLACEMENT_3D('',#1213,#961,#962);
#814=AXIS2_PLACEMENT_3D('',#1215,#963,#964);
#815=AXIS2_PLACEMENT_3D('',#1218,#966,#967);
#816=AXIS2_PLACEMENT_3D('',#1219,#968,#969);
#817=AXIS2_PLACEMENT_3D('',#1222,#970,#971);
#818=AXIS2_PLACEMENT_3D('',#1223,#972,#973);
#819=AXIS2_PLACEMENT_3D('',#1226,#975,#976);
#820=AXIS2_PLACEMENT_3D('',#1227,#977,#978);
#821=AXIS2_PLACEMENT_3D('',#1229,#979,#980);
#822=AXIS2_PLACEMENT_3D('',#1232,#982,#983);
#823=AXIS2_PLACEMENT_3D('',#1233,#984,#985);
#824=AXIS2_PLACEMENT_3D('',#1236,#986,#987);
#825=AXIS2_PLACEMENT_3D('',#1237,#988,#989);
#826=AXIS2_PLACEMENT_3D('',#1240,#991,#992);
#827=AXIS2_PLACEMENT_3D('',#1241,#993,#994);
#828=AXIS2_PLACEMENT_3D('',#1243,#995,#996);
#829=AXIS2_PLACEMENT_3D('',#1246,#998,#999);
#830=AXIS2_PLACEMENT_3D('',#1247,#1000,#1001);
#831=AXIS2_PLACEMENT_3D('',#1249,#1002,#1003);
#832=AXIS2_PLACEMENT_3D('',#1252,#1005,#1006);
#833=AXIS2_PLACEMENT_3D('',#1253,#1007,#1008);
#834=AXIS2_PLACEMENT_3D('',#1256,#1009,#1010);
#835=AXIS2_PLACEMENT_3D('',#1260,#1012,#1013);
#836=AXIS2_PLACEMENT_3D('',#1262,#1014,#1015);
#837=AXIS2_PLACEMENT_3D('',#1264,#1017,#1018);
#838=AXIS2_PLACEMENT_3D('',#1266,#1020,#1021);
#839=AXIS2_PLACEMENT_3D('',#1268,#1023,#1024);
#840=AXIS2_PLACEMENT_3D('',#1270,#1026,#1027);
#841=AXIS2_PLACEMENT_3D('',#1272,#1029,#1030);
#842=AXIS2_PLACEMENT_3D('',#1274,#1032,#1033);
#843=AXIS2_PLACEMENT_3D('',#1276,#1035,#1036);
#844=AXIS2_PLACEMENT_3D('',#1278,#1037,#1038);
#845=AXIS2_PLACEMENT_3D('',#1282,#1040,#1041);
#846=AXIS2_PLACEMENT_3D('',#1283,#1042,#1043);
#847=AXIS2_PLACEMENT_3D('',#1284,#1044,#1045);
#848=AXIS2_PLACEMENT_3D('',#1287,#1046,#1047);
#849=AXIS2_PLACEMENT_3D('',#1289,#1049,#1050);
#850=AXIS2_PLACEMENT_3D('',#1290,#1051,#1052);
#851=AXIS2_PLACEMENT_3D('',#1294,#1054,#1055);
#852=AXIS2_PLACEMENT_3D('',#1298,#1057,#1058);
#853=AXIS2_PLACEMENT_3D('',#1301,#1060,#1061);
#854=AXIS2_PLACEMENT_3D('',#1302,#1062,#1063);
#855=AXIS2_PLACEMENT_3D('',#1307,#1066,#1067);
#856=AXIS2_PLACEMENT_3D('',#1309,#1069,#1070);
#857=AXIS2_PLACEMENT_3D('',#1311,#1071,#1072);
#858=AXIS2_PLACEMENT_3D('',#1314,#1074,#1075);
#859=AXIS2_PLACEMENT_3D('',#1315,#1076,#1077);
#860=AXIS2_PLACEMENT_3D('',#1316,#1078,#1079);
#861=AXIS2_PLACEMENT_3D('',#1319,#1082,#1083);
#862=AXIS2_PLACEMENT_3D('',#1320,#1084,#1085);
#863=AXIS2_PLACEMENT_3D('',#1322,#1087,#1088);
#864=AXIS2_PLACEMENT_3D('',#1324,#1090,#1091);
#865=AXIS2_PLACEMENT_3D('',#1325,#1092,#1093);
#866=AXIS2_PLACEMENT_3D('',#1326,#1094,#1095);
#867=AXIS2_PLACEMENT_3D('',#1327,#1096,#1097);
#868=AXIS2_PLACEMENT_3D('',#1330,#1098,#1099);
#869=AXIS2_PLACEMENT_3D('',#1331,#1100,#1101);
#870=AXIS2_PLACEMENT_3D('',#1334,#1103,#1104);
#871=AXIS2_PLACEMENT_3D('',#1335,#1105,#1106);
#872=AXIS2_PLACEMENT_3D('',#1337,#1107,#1108);
#873=AXIS2_PLACEMENT_3D('',#1340,#1110,#1111);
#874=AXIS2_PLACEMENT_3D('',#1341,#1112,#1113);
#875=AXIS2_PLACEMENT_3D('',#1343,#1114,#1115);
#876=AXIS2_PLACEMENT_3D('',#1346,#1117,#1118);
#877=AXIS2_PLACEMENT_3D('',#1347,#1119,#1120);
#878=AXIS2_PLACEMENT_3D('',#1349,#1121,#1122);
#879=AXIS2_PLACEMENT_3D('',#1351,#1124,#1125);
#880=AXIS2_PLACEMENT_3D('',#1353,#1126,#1127);
#881=AXIS2_PLACEMENT_3D('',#1354,#1128,#1129);
#882=AXIS2_PLACEMENT_3D('',#1355,#1130,#1131);
#883=AXIS2_PLACEMENT_3D('',#1357,#1133,#1134);
#884=AXIS2_PLACEMENT_3D('',#1359,#1135,#1136);
#885=AXIS2_PLACEMENT_3D('',#1361,#1138,#1139);
#886=AXIS2_PLACEMENT_3D('',#1363,#1140,#1141);
#887=AXIS2_PLACEMENT_3D('',#1366,#1143,#1144);
#888=AXIS2_PLACEMENT_3D('',#1367,#1145,#1146);
#889=AXIS2_PLACEMENT_3D('',#1368,#1147,#1148);
#890=AXIS2_PLACEMENT_3D('',#1369,#1149,#1150);
#891=AXIS2_PLACEMENT_3D('',#1370,#1151,#1152);
#892=AXIS2_PLACEMENT_3D('',#1371,#1153,#1154);
#893=DIRECTION('axis',(0.,0.,1.));
#894=DIRECTION('refdir',(1.,0.,0.));
#895=DIRECTION('axis',(0.,0.,1.));
#896=DIRECTION('refdir',(1.,0.,0.));
#897=DIRECTION('center_axis',(0.,1.,-1.54420742354709E-17));
#898=DIRECTION('ref_axis',(0.,1.54420742354709E-17,1.));
#899=DIRECTION('center_axis',(0.,1.,-1.54420742354709E-17));
#900=DIRECTION('ref_axis',(0.,1.54420742354709E-17,1.));
#901=DIRECTION('',(0.,1.,-1.54420742354709E-17));
#902=DIRECTION('center_axis',(0.,1.,-1.54420742354709E-17));
#903=DIRECTION('ref_axis',(0.,1.54420742354709E-17,1.));
#904=DIRECTION('center_axis',(0.,1.,0.));
#905=DIRECTION('ref_axis',(0.,0.,1.));
#906=DIRECTION('center_axis',(0.,1.,0.));
#907=DIRECTION('ref_axis',(0.,0.,1.));
#908=DIRECTION('center_axis',(0.,1.,0.));
#909=DIRECTION('ref_axis',(0.,0.,1.));
#910=DIRECTION('',(-8.65956056235493E-17,0.707106781186548,-0.707106781186547));
#911=DIRECTION('center_axis',(0.,-1.,1.54420742354709E-17));
#912=DIRECTION('ref_axis',(0.,1.54420742354709E-17,1.));
#913=DIRECTION('center_axis',(0.,-1.,0.));
#914=DIRECTION('ref_axis',(0.,0.,-1.));
#915=DIRECTION('center_axis',(0.,-1.,0.));
#916=DIRECTION('ref_axis',(0.,0.,-1.));
#917=DIRECTION('',(-8.65956056235511E-17,-0.707106781186533,0.707106781186562));
#918=DIRECTION('center_axis',(0.,1.,-1.54420742354709E-17));
#919=DIRECTION('ref_axis',(0.,-1.54420742354709E-17,-1.));
#920=DIRECTION('center_axis',(0.,1.,0.));
#921=DIRECTION('ref_axis',(0.,0.,1.));
#922=DIRECTION('center_axis',(0.,1.,0.));
#923=DIRECTION('ref_axis',(0.,0.,1.));
#924=DIRECTION('center_axis',(0.,1.,0.));
#925=DIRECTION('ref_axis',(0.,0.,1.));
#926=DIRECTION('',(-8.65956056235492E-17,0.707106781186548,-0.707106781186547));
#927=DIRECTION('center_axis',(0.,-1.,1.54420742354709E-17));
#928=DIRECTION('ref_axis',(0.,1.54420742354709E-17,1.));
#929=DIRECTION('center_axis',(0.,-1.,0.));
#930=DIRECTION('ref_axis',(0.,0.,-1.));
#931=DIRECTION('center_axis',(0.,-1.,0.));
#932=DIRECTION('ref_axis',(0.,0.,-1.));
#933=DIRECTION('',(-8.65956056235506E-17,-0.707106781186537,0.707106781186558));
#934=DIRECTION('center_axis',(0.,1.,-1.54420742354709E-17));
#935=DIRECTION('ref_axis',(0.,-1.54420742354709E-17,-1.));
#936=DIRECTION('center_axis',(0.,1.,0.));
#937=DIRECTION('ref_axis',(0.,0.,1.));
#938=DIRECTION('center_axis',(0.,1.,0.));
#939=DIRECTION('ref_axis',(0.,0.,1.));
#940=DIRECTION('center_axis',(0.,1.,0.));
#941=DIRECTION('ref_axis',(0.,0.,1.));
#942=DIRECTION('',(-8.65956056235477E-17,0.707106781186561,-0.707106781186534));
#943=DIRECTION('center_axis',(0.,-1.,1.54420742354709E-17));
#944=DIRECTION('ref_axis',(0.,1.54420742354709E-17,1.));
#945=DIRECTION('center_axis',(0.,-1.,0.));
#946=DIRECTION('ref_axis',(0.,0.,-1.));
#947=DIRECTION('center_axis',(0.,-1.,0.));
#948=DIRECTION('ref_axis',(0.,0.,-1.));
#949=DIRECTION('',(-8.65956056235497E-17,-0.707106781186545,0.707106781186551));
#950=DIRECTION('center_axis',(0.,1.,-1.54420742354709E-17));
#951=DIRECTION('ref_axis',(0.,-1.54420742354709E-17,-1.));
#952=DIRECTION('center_axis',(0.,1.,0.));
#953=DIRECTION('ref_axis',(0.,0.,1.));
#954=DIRECTION('center_axis',(0.,1.,0.));
#955=DIRECTION('ref_axis',(0.,0.,1.));
#956=DIRECTION('center_axis',(0.,1.,0.));
#957=DIRECTION('ref_axis',(0.,0.,1.));
#958=DIRECTION('',(-8.65956056235488E-17,0.707106781186552,-0.707106781186543));
#959=DIRECTION('center_axis',(0.,-1.,1.54420742354709E-17));
#960=DIRECTION('ref_axis',(0.,1.54420742354709E-17,1.));
#961=DIRECTION('center_axis',(0.,-1.,0.));
#962=DIRECTION('ref_axis',(0.,0.,-1.));
#963=DIRECTION('center_axis',(0.,-1.,0.));
#964=DIRECTION('ref_axis',(0.,0.,-1.));
#965=DIRECTION('',(-8.65956056235497E-17,-0.707106781186545,0.707106781186551));
#966=DIRECTION('center_axis',(0.,1.,-1.54420742354709E-17));
#967=DIRECTION('ref_axis',(0.,-1.54420742354709E-17,-1.));
#968=DIRECTION('center_axis',(0.,1.,0.));
#969=DIRECTION('ref_axis',(0.,0.,1.));
#970=DIRECTION('center_axis',(0.,1.,0.));
#971=DIRECTION('ref_axis',(0.,0.,1.));
#972=DIRECTION('center_axis',(0.,1.,0.));
#973=DIRECTION('ref_axis',(0.,0.,1.));
#974=DIRECTION('',(-8.65956056235481E-17,0.707106781186558,-0.707106781186537));
#975=DIRECTION('center_axis',(0.,-1.,1.54420742354709E-17));
#976=DIRECTION('ref_axis',(0.,1.54420742354709E-17,1.));
#977=DIRECTION('center_axis',(0.,-1.,0.));
#978=DIRECTION('ref_axis',(0.,0.,-1.));
#979=DIRECTION('center_axis',(0.,-1.,0.));
#980=DIRECTION('ref_axis',(0.,0.,-1.));
#981=DIRECTION('',(-8.6595605623549E-17,-0.707106781186551,0.707106781186545));
#982=DIRECTION('center_axis',(0.,1.,-1.54420742354709E-17));
#983=DIRECTION('ref_axis',(0.,-1.54420742354709E-17,-1.));
#984=DIRECTION('center_axis',(0.,1.,0.));
#985=DIRECTION('ref_axis',(0.,0.,1.));
#986=DIRECTION('center_axis',(0.,1.,0.));
#987=DIRECTION('ref_axis',(0.,0.,1.));
#988=DIRECTION('center_axis',(0.,1.,0.));
#989=DIRECTION('ref_axis',(0.,0.,1.));
#990=DIRECTION('',(-8.65956056235477E-17,0.707106781186561,-0.707106781186534));
#991=DIRECTION('center_axis',(0.,-1.,1.54420742354709E-17));
#992=DIRECTION('ref_axis',(0.,1.54420742354709E-17,1.));
#993=DIRECTION('center_axis',(0.,-1.,0.));
#994=DIRECTION('ref_axis',(0.,0.,-1.));
#995=DIRECTION('center_axis',(0.,-1.,0.));
#996=DIRECTION('ref_axis',(0.,0.,-1.));
#997=DIRECTION('',(-8.65956056235497E-17,-0.707106781186545,0.707106781186551));
#998=DIRECTION('center_axis',(0.,1.,-1.54420742354709E-17));
#999=DIRECTION('ref_axis',(0.,-1.54420742354709E-17,-1.));
#1000=DIRECTION('center_axis',(0.,1.,-1.54420742354708E-17));
#1001=DIRECTION('ref_axis',(0.,1.54420742354708E-17,1.));
#1002=DIRECTION('center_axis',(0.,1.,-1.54420742354708E-17));
#1003=DIRECTION('ref_axis',(0.,-1.54420742354708E-17,-1.));
#1004=DIRECTION('',(8.65956056235488E-17,-0.707106781186552,0.707106781186543));
#1005=DIRECTION('center_axis',(0.,-1.,1.54420742354709E-17));
#1006=DIRECTION('ref_axis',(0.,-1.54420742354709E-17,-1.));
#1007=DIRECTION('center_axis',(0.,-1.,1.54420742354712E-17));
#1008=DIRECTION('ref_axis',(0.500000000000002,1.33732285750432E-17,0.866025403784438));
#1009=DIRECTION('center_axis',(0.,1.,-1.54420742354709E-17));
#1010=DIRECTION('ref_axis',(0.,1.54420742354709E-17,1.));
#1011=DIRECTION('',(0.353626190634397,0.706961151117687,0.612498529065793));
#1012=DIRECTION('center_axis',(0.,-1.,1.54420742354712E-17));
#1013=DIRECTION('ref_axis',(0.,1.54420742354712E-17,1.));
#1014=DIRECTION('center_axis',(0.,-1.,1.54420742354712E-17));
#1015=DIRECTION('ref_axis',(0.,1.54420742354712E-17,1.));
#1016=DIRECTION('',(-0.353626190634393,-0.706961151117678,-0.612498529065806));
#1017=DIRECTION('center_axis',(0.,-1.,1.54420742354709E-17));
#1018=DIRECTION('ref_axis',(0.,-1.54420742354709E-17,-1.));
#1019=DIRECTION('',(0.,-1.,1.54420742354709E-17));
#1020=DIRECTION('center_axis',(0.,-1.,1.54420742354709E-17));
#1021=DIRECTION('ref_axis',(0.,-1.54420742354709E-17,-1.));
#1022=DIRECTION('',(0.,-1.,1.54420742354709E-17));
#1023=DIRECTION('center_axis',(0.,-1.,1.54420742354709E-17));
#1024=DIRECTION('ref_axis',(0.,-1.54420742354709E-17,-1.));
#1025=DIRECTION('',(0.,-1.,1.54420742354709E-17));
#1026=DIRECTION('center_axis',(3.08148791101958E-33,-1.,1.54420742354709E-17));
#1027=DIRECTION('ref_axis',(4.75845650776704E-50,-1.54420742354709E-17,
-1.));
#1028=DIRECTION('',(3.08148791101958E-33,-1.,1.54420742354709E-17));
#1029=DIRECTION('center_axis',(0.,-1.,1.54420742354709E-17));
#1030=DIRECTION('ref_axis',(0.,-1.54420742354709E-17,-1.));
#1031=DIRECTION('',(0.,-1.,1.54420742354709E-17));
#1032=DIRECTION('center_axis',(0.,-1.,1.54420742354709E-17));
#1033=DIRECTION('ref_axis',(0.,-1.54420742354709E-17,-1.));
#1034=DIRECTION('',(0.,-1.,1.54420742354709E-17));
#1035=DIRECTION('center_axis',(0.,1.,-1.54420742354709E-17));
#1036=DIRECTION('ref_axis',(0.,1.54420742354709E-17,1.));
#1037=DIRECTION('center_axis',(0.,1.,-1.54420742354709E-17));
#1038=DIRECTION('ref_axis',(0.,1.54420742354709E-17,1.));
#1039=DIRECTION('',(-4.18853873767702E-17,0.939692620785907,-0.342020143325671));
#1040=DIRECTION('center_axis',(0.,1.,-1.54420742354709E-17));
#1041=DIRECTION('ref_axis',(0.,1.54420742354709E-17,1.));
#1042=DIRECTION('center_axis',(0.,1.,-1.54420742354709E-17));
#1043=DIRECTION('ref_axis',(0.,1.54420742354709E-17,1.));
#1044=DIRECTION('center_axis',(0.,-1.,1.54420742354709E-17));
#1045=DIRECTION('ref_axis',(0.,-1.54420742354709E-17,-1.));
#1046=DIRECTION('center_axis',(0.,1.,-1.54420742354709E-17));
#1047=DIRECTION('ref_axis',(0.,1.54420742354709E-17,1.));
#1048=DIRECTION('',(1.15079156022785E-16,0.342020143325673,-0.939692620785907));
#1049=DIRECTION('center_axis',(0.,1.,-1.54420742354709E-17));
#1050=DIRECTION('ref_axis',(0.,1.54420742354709E-17,1.));
#1051=DIRECTION('center_axis',(0.,1.,-1.54420742354709E-17));
#1052=DIRECTION('ref_axis',(0.,1.54420742354709E-17,1.));
#1053=DIRECTION('',(0.,1.,-1.54420742354709E-17));
#1054=DIRECTION('center_axis',(0.,1.,-1.54420742354709E-17));
#1055=DIRECTION('ref_axis',(0.,1.54420742354709E-17,1.));
#1056=DIRECTION('',(0.,1.,-1.54420742354709E-17));
#1057=DIRECTION('center_axis',(0.,-1.,0.));
#1058=DIRECTION('ref_axis',(0.,0.,-1.));
#1059=DIRECTION('',(0.,-1.,1.54420742354709E-17));
#1060=DIRECTION('center_axis',(0.,1.,-1.54420742354709E-17));
#1061=DIRECTION('ref_axis',(0.,1.54420742354709E-17,1.));
#1062=DIRECTION('center_axis',(0.,1.,-1.54420742354709E-17));
#1063=DIRECTION('ref_axis',(0.,1.54420742354709E-17,1.));
#1064=DIRECTION('',(0.,-1.,1.54420742354709E-17));
#1065=DIRECTION('',(0.,1.,-1.54420742354709E-17));
#1066=DIRECTION('center_axis',(0.,1.,0.));
#1067=DIRECTION('ref_axis',(8.88178419700125E-16,0.,-1.));
#1068=DIRECTION('',(0.,-1.,1.54420742354709E-17));
#1069=DIRECTION('center_axis',(0.,-1.,1.54420742354709E-17));
#1070=DIRECTION('ref_axis',(0.,-1.54420742354709E-17,-1.));
#1071=DIRECTION('center_axis',(0.,-1.,1.54420742354709E-17));
#1072=DIRECTION('ref_axis',(0.,1.54420742354709E-17,1.));
#1073=DIRECTION('',(0.,-1.,1.54420742354709E-17));
#1074=DIRECTION('center_axis',(0.,-1.,1.54420742354709E-17));
#1075=DIRECTION('ref_axis',(0.,-1.54420742354709E-17,-1.));
#1076=DIRECTION('center_axis',(0.,-1.,1.54420742354709E-17));
#1077=DIRECTION('ref_axis',(0.,-1.54420742354709E-17,-1.));
#1078=DIRECTION('center_axis',(0.,1.,-1.54420742354709E-17));
#1079=DIRECTION('ref_axis',(0.,1.54420742354709E-17,1.));
#1080=DIRECTION('',(0.5,0.,0.866025403784439));
#1081=DIRECTION('',(-0.5,0.,-0.866025403784439));
#1082=DIRECTION('center_axis',(0.,1.,-1.54420742354709E-17));
#1083=DIRECTION('ref_axis',(0.,1.54420742354709E-17,1.));
#1084=DIRECTION('center_axis',(-0.866025403784439,7.72103711773545E-18,
0.5));
#1085=DIRECTION('ref_axis',(0.5,-3.85185988877447E-34,0.866025403784439));
#1086=DIRECTION('',(0.5,0.,0.866025403784439));
#1087=DIRECTION('center_axis',(0.866025403784439,-7.72103711773545E-18,
-0.5));
#1088=DIRECTION('ref_axis',(-0.5,3.85185988877447E-34,-0.866025403784439));
#1089=DIRECTION('',(-0.5,0.,-0.866025403784439));
#1090=DIRECTION('center_axis',(0.,-1.,0.));
#1091=DIRECTION('ref_axis',(0.,0.,-1.));
#1092=DIRECTION('center_axis',(0.,1.,-1.54420742354709E-17));
#1093=DIRECTION('ref_axis',(0.,1.54420742354709E-17,1.));
#1094=DIRECTION('axis',(0.,0.,1.));
#1095=DIRECTION('refdir',(1.,0.,0.));
#1096=DIRECTION('center_axis',(0.,-1.,0.));
#1097=DIRECTION('ref_axis',(0.,0.,-1.));
#1098=DIRECTION('center_axis',(0.,-1.,0.));
#1099=DIRECTION('ref_axis',(0.,0.,1.));
#1100=DIRECTION('center_axis',(0.,-1.,0.));
#1101=DIRECTION('ref_axis',(0.,0.,1.));
#1102=DIRECTION('',(8.6595605623549E-17,0.707106781186551,-0.707106781186545));
#1103=DIRECTION('center_axis',(0.,1.,0.));
#1104=DIRECTION('ref_axis',(0.,0.,1.));
#1105=DIRECTION('center_axis',(0.,1.,0.));
#1106=DIRECTION('ref_axis',(0.,0.,1.));
#1107=DIRECTION('center_axis',(0.,1.,0.));
#1108=DIRECTION('ref_axis',(0.,0.,1.));
#1109=DIRECTION('',(-8.6595605623549E-17,0.70710678118655,-0.707106781186544));
#1110=DIRECTION('center_axis',(0.,-1.,0.));
#1111=DIRECTION('ref_axis',(0.,0.,1.));
#1112=DIRECTION('center_axis',(0.,1.,0.));
#1113=DIRECTION('ref_axis',(0.,0.,1.));
#1114=DIRECTION('center_axis',(0.,1.,0.));
#1115=DIRECTION('ref_axis',(0.,0.,1.));
#1116=DIRECTION('',(0.,-1.,0.));
#1117=DIRECTION('center_axis',(0.,1.,0.));
#1118=DIRECTION('ref_axis',(0.,0.,1.));
#1119=DIRECTION('center_axis',(0.,1.,0.));
#1120=DIRECTION('ref_axis',(0.,0.,1.));
#1121=DIRECTION('center_axis',(0.,1.,0.));
#1122=DIRECTION('ref_axis',(0.,0.,1.));
#1123=DIRECTION('',(1.18291797137867E-16,-0.258819045102515,0.96592582628907));
#1124=DIRECTION('center_axis',(0.,1.,0.));
#1125=DIRECTION('ref_axis',(0.,0.,1.));
#1126=DIRECTION('center_axis',(0.,1.,0.));
#1127=DIRECTION('ref_axis',(0.,0.,1.));
#1128=DIRECTION('center_axis',(-1.,0.,1.22464679914735E-16));
#1129=DIRECTION('ref_axis',(-1.22464679914735E-16,0.,-1.));
#1130=DIRECTION('center_axis',(0.,1.,0.));
#1131=DIRECTION('ref_axis',(0.,0.,1.));
#1132=DIRECTION('',(0.,-1.,0.));
#1133=DIRECTION('center_axis',(0.,1.,0.));
#1134=DIRECTION('ref_axis',(0.,0.,1.));
#1135=DIRECTION('center_axis',(0.,1.,0.));
#1136=DIRECTION('ref_axis',(0.,0.,1.));
#1137=DIRECTION('',(0.,1.,0.));
#1138=DIRECTION('center_axis',(0.,1.,0.));
#1139=DIRECTION('ref_axis',(0.,0.,1.));
#1140=DIRECTION('center_axis',(0.,1.,0.));
#1141=DIRECTION('ref_axis',(0.,0.,1.));
#1142=DIRECTION('',(0.,1.,0.));
#1143=DIRECTION('center_axis',(0.,1.,0.));
#1144=DIRECTION('ref_axis',(0.,0.,1.));
#1145=DIRECTION('center_axis',(0.,-1.,0.));
#1146=DIRECTION('ref_axis',(0.,0.,-1.));
#1147=DIRECTION('center_axis',(0.,1.,0.));
#1148=DIRECTION('ref_axis',(0.,0.,1.));
#1149=DIRECTION('center_axis',(0.,1.,0.));
#1150=DIRECTION('ref_axis',(0.,0.,1.));
#1151=DIRECTION('',(0.,0.,1.));
#1152=DIRECTION('',(1.,0.,0.));
#1153=DIRECTION('',(-0.346796928758258,-2.9727686526417E-34,0.937940238076947));
#1154=DIRECTION('',(-0.937940238076947,-8.04009236122751E-34,-0.346796928758258));
#1155=CARTESIAN_POINT('',(0.,0.,0.));
#1156=CARTESIAN_POINT('',(0.,0.,0.));
#1157=CARTESIAN_POINT('Origin',(0.,7.4,-1.14271349342485E-16));
#1158=CARTESIAN_POINT('',(-9.55224503334935E-16,7.4,-7.8));
#1159=CARTESIAN_POINT('Origin',(0.,7.4,-1.14271349342485E-16));
#1160=CARTESIAN_POINT('',(-9.55224503334935E-16,11.5,-7.8));
#1161=CARTESIAN_POINT('',(-9.55224503334935E-16,7.4,-7.8));
#1162=CARTESIAN_POINT('Origin',(0.,11.5,-1.77583853707915E-16));
#1163=CARTESIAN_POINT('Origin',(-25.4178456010731,12.7,14.6750000000003));
#1164=CARTESIAN_POINT('',(-25.4178456010731,12.4,18.0250000000003));
#1165=CARTESIAN_POINT('',(-25.4178456010731,12.4,11.3250000000003));
#1166=CARTESIAN_POINT('Origin',(-25.4178456010731,12.4,14.6750000000003));
#1167=CARTESIAN_POINT('Origin',(-25.4178456010731,12.4,14.6750000000003));
#1168=CARTESIAN_POINT('',(-25.4178456010731,12.7,11.0250000000003));
#1169=CARTESIAN_POINT('',(-25.4178456010731,12.7,11.0250000000003));
#1170=CARTESIAN_POINT('Origin',(-25.4178456010731,12.7,14.6750000000003));
#1171=CARTESIAN_POINT('Origin',(-25.4178456010731,0.30000000000001,14.6750000000003));
#1172=CARTESIAN_POINT('',(-25.4178456010731,0.300000000000011,18.0250000000003));
#1173=CARTESIAN_POINT('Origin',(-25.4178456010731,0.30000000000001,14.6750000000003));
#1174=CARTESIAN_POINT('',(-25.4178456010731,-2.8796409701215E-15,18.3250000000003));
#1175=CARTESIAN_POINT('',(-25.4178456010731,0.30000000000001,18.0250000000003));
#1176=CARTESIAN_POINT('Origin',(-25.4178456010731,-2.21202820468621E-15,
14.6750000000003));
#1177=CARTESIAN_POINT('Origin',(-25.4178456010734,12.7,-14.6749999999998));
#1178=CARTESIAN_POINT('',(-25.4178456010734,12.4,-11.3249999999998));
#1179=CARTESIAN_POINT('',(-25.4178456010734,12.4,-18.0249999999998));
#1180=CARTESIAN_POINT('Origin',(-25.4178456010734,12.4,-14.6749999999998));
#1181=CARTESIAN_POINT('Origin',(-25.4178456010734,12.4,-14.6749999999998));
#1182=CARTESIAN_POINT('',(-25.4178456010734,12.7,-18.3249999999998));
#1183=CARTESIAN_POINT('',(-25.4178456010734,12.7,-18.3249999999998));
#1184=CARTESIAN_POINT('Origin',(-25.4178456010734,12.7,-14.6749999999998));
#1185=CARTESIAN_POINT('Origin',(-25.4178456010734,0.30000000000001,-14.6749999999998));
#1186=CARTESIAN_POINT('',(-25.4178456010734,0.300000000000011,-11.3249999999998));
#1187=CARTESIAN_POINT('Origin',(-25.4178456010734,0.30000000000001,-14.6749999999998));
#1188=CARTESIAN_POINT('',(-25.4178456010734,-3.40005801291454E-15,-11.0249999999997));
#1189=CARTESIAN_POINT('',(-25.4178456010734,0.30000000000001,-11.3249999999998));
#1190=CARTESIAN_POINT('Origin',(-25.4178456010734,-2.66525308349728E-15,
-14.6749999999998));
#1191=CARTESIAN_POINT('Origin',(-2.04949954590092E-13,12.7,-29.35));
#1192=CARTESIAN_POINT('',(-2.04539697912378E-13,12.4,-26.));
#1193=CARTESIAN_POINT('',(-2.05360211267806E-13,12.4,-32.7));
#1194=CARTESIAN_POINT('Origin',(-2.04949954590092E-13,12.4,-29.35));
#1195=CARTESIAN_POINT('Origin',(-2.04949954590092E-13,12.4,-29.35));
#1196=CARTESIAN_POINT('',(-2.05396950671781E-13,12.7,-33.));
#1197=CARTESIAN_POINT('',(-2.05396950671781E-13,12.7,-33.));
#1198=CARTESIAN_POINT('Origin',(-2.04949954590092E-13,12.7,-29.35));
#1199=CARTESIAN_POINT('Origin',(-2.04949954590092E-13,0.30000000000001,
-29.35));
#1200=CARTESIAN_POINT('',(-2.05360211267806E-13,0.300000000000011,-26.));
#1201=CARTESIAN_POINT('Origin',(-2.04949954590092E-13,0.30000000000001,
-29.35));
#1202=CARTESIAN_POINT('',(-2.05396950671781E-13,-3.15719672627779E-15,-25.7));
#1203=CARTESIAN_POINT('',(-2.05360211267806E-13,0.30000000000001,-26.));
#1204=CARTESIAN_POINT('Origin',(-2.04949954590092E-13,-2.89186552290282E-15,
-29.35));
#1205=CARTESIAN_POINT('Origin',(25.4178456010732,12.7,-14.6750000000001));
#1206=CARTESIAN_POINT('',(25.4178456010732,12.4,-11.3250000000001));
#1207=CARTESIAN_POINT('',(25.4178456010732,12.4,-18.0250000000001));
#1208=CARTESIAN_POINT('Origin',(25.4178456010732,12.4,-14.6750000000001));
#1209=CARTESIAN_POINT('Origin',(25.4178456010732,12.4,-14.6750000000001));
#1210=CARTESIAN_POINT('',(25.4178456010732,12.7,-18.3250000000001));
#1211=CARTESIAN_POINT('',(25.4178456010732,12.7,-18.3250000000001));
#1212=CARTESIAN_POINT('Origin',(25.4178456010732,12.7,-14.6750000000001));
#1213=CARTESIAN_POINT('Origin',(25.4178456010732,0.30000000000001,-14.6750000000001));
#1214=CARTESIAN_POINT('',(25.4178456010732,0.300000000000011,-11.3250000000001));
#1215=CARTESIAN_POINT('Origin',(25.4178456010732,0.30000000000001,-14.6750000000001));
#1216=CARTESIAN_POINT('',(25.4178456010732,-3.12250225675825E-15,-11.0250000000001));
#1217=CARTESIAN_POINT('',(25.4178456010732,0.30000000000001,-11.3250000000001));
#1218=CARTESIAN_POINT('Origin',(25.4178456010732,-2.66525308349729E-15,
-14.6750000000001));
#1219=CARTESIAN_POINT('Origin',(25.4178456010733,12.7,14.6749999999999));
#1220=CARTESIAN_POINT('',(25.4178456010733,12.4,18.0249999999999));
#1221=CARTESIAN_POINT('',(25.4178456010733,12.4,11.3249999999999));
#1222=CARTESIAN_POINT('Origin',(25.4178456010733,12.4,14.6749999999999));
#1223=CARTESIAN_POINT('Origin',(25.4178456010733,12.4,14.6749999999999));
#1224=CARTESIAN_POINT('',(25.4178456010733,12.7,11.025));
#1225=CARTESIAN_POINT('',(25.4178456010733,12.7,11.025));
#1226=CARTESIAN_POINT('Origin',(25.4178456010733,12.7,14.6749999999999));
#1227=CARTESIAN_POINT('Origin',(25.4178456010733,0.299999999999996,14.6749999999999));
#1228=CARTESIAN_POINT('',(25.4178456010733,0.299999999999997,18.0249999999999));
#1229=CARTESIAN_POINT('Origin',(25.4178456010733,0.299999999999996,14.6749999999999));
#1230=CARTESIAN_POINT('',(25.4178456010733,-1.42247325030098E-15,18.3249999999999));
#1231=CARTESIAN_POINT('',(25.4178456010733,0.299999999999996,18.0249999999999));
#1232=CARTESIAN_POINT('Origin',(25.4178456010733,-2.21202820468622E-15,
14.6749999999999));
#1233=CARTESIAN_POINT('Origin',(0.,12.7,29.35));
#1234=CARTESIAN_POINT('',(4.10256677714363E-16,12.4,32.7));
#1235=CARTESIAN_POINT('',(-4.10256677714363E-16,12.4,26.));
#1236=CARTESIAN_POINT('Origin',(0.,12.4,29.35));
#1237=CARTESIAN_POINT('Origin',(0.,12.4,29.35));
#1238=CARTESIAN_POINT('',(-4.46996081688781E-16,12.7,25.7));
#1239=CARTESIAN_POINT('',(-4.46996081688781E-16,12.7,25.7));
#1240=CARTESIAN_POINT('Origin',(0.,12.7,29.35));
#1241=CARTESIAN_POINT('Origin',(0.,0.30000000000001,29.35));
#1242=CARTESIAN_POINT('',(-4.10256677714363E-16,0.300000000000011,32.7));
#1243=CARTESIAN_POINT('Origin',(0.,0.30000000000001,29.35));
#1244=CARTESIAN_POINT('',(-4.46996081688786E-16,-2.70616862252382E-15,33.));
#1245=CARTESIAN_POINT('',(-4.10256677714363E-16,0.30000000000001,32.7));
#1246=CARTESIAN_POINT('Origin',(0.,-1.98541576528068E-15,29.35));
#1247=CARTESIAN_POINT('Origin',(0.,0.300000000000012,-4.89391922039688E-16));
#1248=CARTESIAN_POINT('',(-4.28626379701574E-15,0.300000000000013,-35.));
#1249=CARTESIAN_POINT('Origin',(0.,0.300000000000012,-4.89391922039688E-16));
#1250=CARTESIAN_POINT('',(-4.24952439304131E-15,-2.25514051876985E-15,-34.7));
#1251=CARTESIAN_POINT('',(-4.28626379701574E-15,0.300000000000011,-35.));
#1252=CARTESIAN_POINT('Origin',(0.,-2.43864064409175E-15,-4.84759299769047E-16));
#1253=CARTESIAN_POINT('Origin',(0.,12.7,-6.80873642559527E-16));
#1254=CARTESIAN_POINT('',(-18.2088192963498,12.7,-29.5386001671183));
#1255=CARTESIAN_POINT('',(-16.4767684887809,12.7,-30.5386001671183));
#1256=CARTESIAN_POINT('Origin',(0.,12.7,-6.80873642559527E-16));
#1257=CARTESIAN_POINT('',(-18.3588810883204,12.4,-29.7985148150862));
#1258=CARTESIAN_POINT('',(-18.3588810883204,12.4,-29.7985148150862));
#1259=CARTESIAN_POINT('',(-4.28626379701574E-15,12.4,-35.));
#1260=CARTESIAN_POINT('Origin',(0.,12.4,-6.76241020288886E-16));
#1261=CARTESIAN_POINT('',(-16.6268302807515,12.4,-30.7985148150862));
#1262=CARTESIAN_POINT('Origin',(0.,12.4,-6.76241020288886E-16));
#1263=CARTESIAN_POINT('',(-16.4767684887809,12.7,-30.5386001671183));
#1264=CARTESIAN_POINT('Origin',(-25.4178456010731,12.7,14.6750000000003));
#1265=CARTESIAN_POINT('',(-25.4178456010731,12.7,18.0250000000003));
#1266=CARTESIAN_POINT('Origin',(-25.4178456010734,12.7,-14.6749999999998));
#1267=CARTESIAN_POINT('',(-25.4178456010734,12.7,-11.3249999999998));
#1268=CARTESIAN_POINT('Origin',(-2.04949954590092E-13,12.7,-29.35));
#1269=CARTESIAN_POINT('',(-2.05360211267806E-13,12.7,-26.));
#1270=CARTESIAN_POINT('Origin',(25.4178456010732,12.7,-14.6750000000001));
#1271=CARTESIAN_POINT('',(25.4178456010732,12.7,-11.3250000000001));
#1272=CARTESIAN_POINT('Origin',(25.4178456010733,12.7,14.6749999999999));
#1273=CARTESIAN_POINT('',(25.4178456010733,12.7,18.0249999999999));
#1274=CARTESIAN_POINT('Origin',(0.,12.7,29.35));
#1275=CARTESIAN_POINT('',(-4.10256677714363E-16,12.7,32.7));
#1276=CARTESIAN_POINT('Origin',(0.,11.5,-6.62343153476962E-16));
#1277=CARTESIAN_POINT('',(-2.53889094527096E-15,11.5,-20.7316178594403));
#1278=CARTESIAN_POINT('Origin',(0.,11.5,-6.62343153476962E-16));
#1279=CARTESIAN_POINT('',(-2.5656350442137E-15,12.1,-20.95));
#1280=CARTESIAN_POINT('',(-2.53889094527096E-15,11.5,-20.7316178594403));
#1281=CARTESIAN_POINT('',(2.76310934057622E-15,12.1,20.95));
#1282=CARTESIAN_POINT('Origin',(0.,12.1,-6.71608398018245E-16));
#1283=CARTESIAN_POINT('Origin',(0.,12.1,-6.71608398018245E-16));
#1284=CARTESIAN_POINT('Origin',(0.,12.1,-6.71608398018245E-16));
#1285=CARTESIAN_POINT('',(2.96058363693873E-15,10.9261959944915,-24.175));
#1286=CARTESIAN_POINT('',(-2.96058363693873E-15,10.9261959944915,24.175));
#1287=CARTESIAN_POINT('Origin',(0.,10.9261959944915,-6.53482429427289E-16));
#1288=CARTESIAN_POINT('',(-2.5656350442137E-15,12.1,20.95));
#1289=CARTESIAN_POINT('Origin',(0.,10.9261959944915,-6.53482429427289E-16));
#1290=CARTESIAN_POINT('Origin',(0.,31.3921104365332,-9.69518599538093E-16));
#1291=CARTESIAN_POINT('',(-2.96058363693873E-15,12.7,-24.175));
#1292=CARTESIAN_POINT('',(-2.96058363693873E-15,31.3921104365332,-24.175));
#1293=CARTESIAN_POINT('',(-11.211128907145,12.7,-21.4182448773792));
#1294=CARTESIAN_POINT('Origin',(0.,12.7,-6.80873642559527E-16));
#1295=CARTESIAN_POINT('',(-11.211128907145,11.2,-21.4182448773792));
#1296=CARTESIAN_POINT('',(-11.211128907145,31.3921104365332,-21.4182448773792));
#1297=CARTESIAN_POINT('',(-12.9431797147139,11.2,-20.4182448773791));
#1298=CARTESIAN_POINT('Origin',(0.,11.2,-6.57710531206321E-16));
#1299=CARTESIAN_POINT('',(-12.9431797147139,12.7,-20.4182448773791));
#1300=CARTESIAN_POINT('',(-12.9431797147139,31.3921104365332,-20.4182448773792));
#1301=CARTESIAN_POINT('Origin',(0.,12.7,-6.80873642559527E-16));
#1302=CARTESIAN_POINT('Origin',(0.,31.3921104365332,-9.69518599538093E-16));
#1303=CARTESIAN_POINT('',(-4.28626379701574E-15,31.3921104365332,-35.));
#1304=CARTESIAN_POINT('',(-18.3588810883204,11.2,-29.7985148150862));
#1305=CARTESIAN_POINT('',(-18.3588810883204,31.3921104365332,-29.7985148150862));
#1306=CARTESIAN_POINT('',(-16.6268302807515,11.2,-30.7985148150862));
#1307=CARTESIAN_POINT('Origin',(0.,11.2,-6.57710531206321E-16));
#1308=CARTESIAN_POINT('',(-16.6268302807515,31.3921104365332,-30.7985148150862));
#1309=CARTESIAN_POINT('Origin',(0.,12.7,-1.9611434279048E-16));
#1310=CARTESIAN_POINT('',(-1.16953769318572E-15,7.4,9.55));
#1311=CARTESIAN_POINT('Origin',(0.,7.4,-1.14271349342485E-16));
#1312=CARTESIAN_POINT('',(-1.16953769318572E-15,0.,9.55));
#1313=CARTESIAN_POINT('',(-1.16953769318572E-15,12.7,9.55));
#1314=CARTESIAN_POINT('Origin',(0.,0.,0.));
#1315=CARTESIAN_POINT('Origin',(0.,-2.43864064409175E-15,3.76576698597013E-32));
#1316=CARTESIAN_POINT('Origin',(0.,12.7,35.));
#1317=CARTESIAN_POINT('',(-18.7780777094355,12.7,-30.5245846612189));
#1318=CARTESIAN_POINT('',(-17.0460269018667,12.7,-31.5245846612189));
#1319=CARTESIAN_POINT('Origin',(0.,11.5,20.7316178594403));
#1320=CARTESIAN_POINT('Origin',(-18.7780777094355,11.2,-30.5245846612189));
#1321=CARTESIAN_POINT('',(-18.7780777094355,11.2,-30.5245846612189));
#1322=CARTESIAN_POINT('Origin',(-17.0460269018667,11.2,-31.5245846612189));
#1323=CARTESIAN_POINT('',(-17.0460269018667,11.2,-31.5245846612189));
#1324=CARTESIAN_POINT('Origin',(-12.7260463016631,11.2,-20.0421587739544));
#1325=CARTESIAN_POINT('Origin',(0.,7.4,-1.14271349342485E-16));
#1326=CARTESIAN_POINT('',(0.,0.,0.));
#1327=CARTESIAN_POINT('Origin',(0.,39.7,0.));
#1328=CARTESIAN_POINT('',(1.83697019872103E-15,39.5,-15.));
#1329=CARTESIAN_POINT('',(-1.83697019872103E-15,39.5,15.));
#1330=CARTESIAN_POINT('Origin',(0.,39.5,0.));
#1331=CARTESIAN_POINT('Origin',(0.,39.5,0.));
#1332=CARTESIAN_POINT('',(-1.81247726273808E-15,39.7,14.8));
#1333=CARTESIAN_POINT('',(-1.81247726273808E-15,39.7,14.8));
#1334=CARTESIAN_POINT('Origin',(0.,39.7,0.));
#1335=CARTESIAN_POINT('Origin',(0.,39.5,0.));
#1336=CARTESIAN_POINT('',(-1.05319624726672E-15,39.5,-8.6));
#1337=CARTESIAN_POINT('Origin',(0.,39.5,0.));
#1338=CARTESIAN_POINT('',(-1.07768918324967E-15,39.7,-8.79999999999998));
#1339=CARTESIAN_POINT('',(-1.05319624726672E-15,39.5,-8.6));
#1340=CARTESIAN_POINT('Origin',(0.,39.7,0.));
#1341=CARTESIAN_POINT('Origin',(0.,50.9056777596584,0.));
#1342=CARTESIAN_POINT('',(-1.16647607618785E-15,35.2329781714396,-9.525));
#1343=CARTESIAN_POINT('Origin',(0.,35.2329781714396,0.));
#1344=CARTESIAN_POINT('',(-1.16647607618785E-15,0.,-9.525));
#1345=CARTESIAN_POINT('',(-1.16647607618785E-15,50.9056777596584,-9.525));
#1346=CARTESIAN_POINT('Origin',(0.,0.,0.));
#1347=CARTESIAN_POINT('Origin',(0.,36.5014011616899,0.));
#1348=CARTESIAN_POINT('',(-1.74620171032061E-15,36.5014011616899,-14.2588190451025));
#1349=CARTESIAN_POINT('Origin',(0.,36.5014011616899,0.));
#1350=CARTESIAN_POINT('',(-1.74620171032061E-15,36.5014011616899,-14.2588190451025));
#1351=CARTESIAN_POINT('Origin',(0.,37.467326987979,0.));
#1352=CARTESIAN_POINT('',(-1.83697019872103E-15,37.467326987979,-15.));
#1353=CARTESIAN_POINT('Origin',(0.,37.467326987979,0.));
#1354=CARTESIAN_POINT('Origin',(-1.71450551880629E-15,37.467326987979,-14.));
#1355=CARTESIAN_POINT('Origin',(0.,50.9056777596584,0.));
#1356=CARTESIAN_POINT('',(-1.83697019872103E-15,50.9056777596584,-15.));
#1357=CARTESIAN_POINT('Origin',(0.,50.9056777596584,0.));
#1358=CARTESIAN_POINT('',(-1.05319624726672E-15,37.2,-8.6));
#1359=CARTESIAN_POINT('Origin',(0.,37.2,0.));
#1360=CARTESIAN_POINT('',(-1.05319624726672E-15,50.9056777596584,-8.6));
#1361=CARTESIAN_POINT('Origin',(0.,50.9056777596584,0.));
#1362=CARTESIAN_POINT('',(-9.6440935432854E-16,0.,-7.87499999999999));
#1363=CARTESIAN_POINT('Origin',(0.,0.,0.));
#1364=CARTESIAN_POINT('',(-9.6440935432854E-16,37.2,-7.87499999999999));
#1365=CARTESIAN_POINT('',(-9.6440935432854E-16,50.9056777596584,-7.87499999999999));
#1366=CARTESIAN_POINT('Origin',(0.,37.2,0.));
#1367=CARTESIAN_POINT('Origin',(-9.52499999999999,0.,0.));
#1368=CARTESIAN_POINT('Origin',(-7.87499999999999,37.2,0.));
#1369=CARTESIAN_POINT('Origin',(-8.6,39.7,0.));
#1370=CARTESIAN_POINT('',(0.,0.,0.));
#1371=CARTESIAN_POINT('',(1.92592994438724E-31,7.4,-5.99030649111531E-16));
#1372=UNCERTAINTY_MEASURE_WITH_UNIT(LENGTH_MEASURE(0.01),#1380,
'DISTANCE_ACCURACY_VALUE',
'Maximum model space distance between geometric entities at asserted c
onnectivities');
#1373=UNCERTAINTY_MEASURE_WITH_UNIT(LENGTH_MEASURE(0.01),#1380,
'DISTANCE_ACCURACY_VALUE',
'Maximum model space distance between geometric entities at asserted c
onnectivities');
#1374=UNCERTAINTY_MEASURE_WITH_UNIT(LENGTH_MEASURE(0.01),#1380,
'DISTANCE_ACCURACY_VALUE',
'Maximum model space distance between geometric entities at asserted c
onnectivities');
#1375=UNCERTAINTY_MEASURE_WITH_UNIT(LENGTH_MEASURE(0.01),#1380,
'DISTANCE_ACCURACY_VALUE',
'Maximum model space distance between geometric entities at asserted c
onnectivities');
#1376=(
GEOMETRIC_REPRESENTATION_CONTEXT(3)
GLOBAL_UNCERTAINTY_ASSIGNED_CONTEXT((#1372))
GLOBAL_UNIT_ASSIGNED_CONTEXT((#1380,#1382,#1383))
REPRESENTATION_CONTEXT('','3D')
);
#1377=(
GEOMETRIC_REPRESENTATION_CONTEXT(3)
GLOBAL_UNCERTAINTY_ASSIGNED_CONTEXT((#1373))
GLOBAL_UNIT_ASSIGNED_CONTEXT((#1380,#1382,#1383))
REPRESENTATION_CONTEXT('','3D')
);
#1378=(
GEOMETRIC_REPRESENTATION_CONTEXT(3)
GLOBAL_UNCERTAINTY_ASSIGNED_CONTEXT((#1374))
GLOBAL_UNIT_ASSIGNED_CONTEXT((#1380,#1382,#1383))
REPRESENTATION_CONTEXT('','3D')
);
#1379=(
GEOMETRIC_REPRESENTATION_CONTEXT(3)
GLOBAL_UNCERTAINTY_ASSIGNED_CONTEXT((#1375))
GLOBAL_UNIT_ASSIGNED_CONTEXT((#1380,#1382,#1383))
REPRESENTATION_CONTEXT('','3D')
);
#1380=(
LENGTH_UNIT()
NAMED_UNIT(*)
SI_UNIT(.MILLI.,.METRE.)
);
#1381=(
LENGTH_UNIT()
NAMED_UNIT(*)
SI_UNIT($,.METRE.)
);
#1382=(
NAMED_UNIT(*)
PLANE_ANGLE_UNIT()
SI_UNIT($,.RADIAN.)
);
#1383=(
NAMED_UNIT(*)
SI_UNIT($,.STERADIAN.)
SOLID_ANGLE_UNIT()
);
#1384=SHAPE_DEFINITION_REPRESENTATION(#1387,#1392);
#1385=SHAPE_DEFINITION_REPRESENTATION(#1388,#1393);
#1386=SHAPE_DEFINITION_REPRESENTATION(#1389,#1394);
#1387=PRODUCT_DEFINITION_SHAPE('',$,#1396);
#1388=PRODUCT_DEFINITION_SHAPE('',$,#1397);
#1389=PRODUCT_DEFINITION_SHAPE('',$,#1398);
#1390=PRODUCT_DEFINITION_SHAPE($,$,#17);
#1391=PRODUCT_DEFINITION_SHAPE($,$,#18);
#1392=SHAPE_REPRESENTATION('',(#783,#891,#892),#1376);
#1393=SHAPE_REPRESENTATION('',(#784),#1377);
#1394=SHAPE_REPRESENTATION('',(#866),#1378);
#1395=PRODUCT_DEFINITION_CONTEXT('part definition',#1406,'design');
#1396=PRODUCT_DEFINITION('Hositrad_CFA35-KF16','Hositrad_CFA35-KF16 v2',
#1399,#1395);
#1397=PRODUCT_DEFINITION('NW35CF-Straight Hole_CF35-Hole 19,05',
'NW35CF-Straight Hole_CF35-Hole 19,05',#1400,#1395);
#1398=PRODUCT_DEFINITION('KF-Weld Stub-All_KF16-19-39',
'KF-Weld Stub-All_KF16-19-39',#1401,#1395);
#1399=PRODUCT_DEFINITION_FORMATION('',$,#1408);
#1400=PRODUCT_DEFINITION_FORMATION('',$,#1409);
#1401=PRODUCT_DEFINITION_FORMATION('',$,#1410);
#1402=PRODUCT_RELATED_PRODUCT_CATEGORY('Hositrad_CFA35-KF16 v2',
'Hositrad_CFA35-KF16 v2',(#1408));
#1403=PRODUCT_RELATED_PRODUCT_CATEGORY(
'NW35CF-Straight Hole_CF35-Hole 19,05',
'NW35CF-Straight Hole_CF35-Hole 19,05',(#1409));
#1404=PRODUCT_RELATED_PRODUCT_CATEGORY('KF-Weld Stub-All_KF16-19-39',
'KF-Weld Stub-All_KF16-19-39',(#1410));
#1405=APPLICATION_PROTOCOL_DEFINITION('international standard',
'automotive_design',2009,#1406);
#1406=APPLICATION_CONTEXT(
'Core Data for Automotive Mechanical Design Process');
#1407=PRODUCT_CONTEXT('part definition',#1406,'mechanical');
#1408=PRODUCT('Hositrad_CFA35-KF16','Hositrad_CFA35-KF16 v2',$,(#1407));
#1409=PRODUCT('NW35CF-Straight Hole_CF35-Hole 19,05',
'NW35CF-Straight Hole_CF35-Hole 19,05',$,(#1407));
#1410=PRODUCT('KF-Weld Stub-All_KF16-19-39',
'KF-Weld Stub-All_KF16-19-39',$,(#1407));
#1411=PRESENTATION_STYLE_ASSIGNMENT((#1413));
#1412=PRESENTATION_STYLE_ASSIGNMENT((#1414));
#1413=SURFACE_STYLE_USAGE(.BOTH.,#1415);
#1414=SURFACE_STYLE_USAGE(.BOTH.,#1416);
#1415=SURFACE_SIDE_STYLE('',(#1417));
#1416=SURFACE_SIDE_STYLE('',(#1418));
#1417=SURFACE_STYLE_FILL_AREA(#1419);
#1418=SURFACE_STYLE_FILL_AREA(#1420);
#1419=FILL_AREA_STYLE('Steel - Satin',(#1421));
#1420=FILL_AREA_STYLE('Opaque(165,158,150)',(#1422));
#1421=FILL_AREA_STYLE_COLOUR('Steel - Satin',#1423);
#1422=FILL_AREA_STYLE_COLOUR('Opaque(165,158,150)',#1424);
#1423=COLOUR_RGB('Steel - Satin',0.627450980392157,0.627450980392157,0.627450980392157);
#1424=COLOUR_RGB('Opaque(165,158,150)',0.647058823529412,0.619607843137255,
0.588235294117647);
ENDSEC;
END-ISO-10303-21;
