ISO-10303-21;
HEADER;
/* Generated by software containing ST-Developer
 * from STEP Tools, Inc. (www.steptools.com) 
 */

FILE_DESCRIPTION(
/* description */ (''),
/* implementation_level */ '2;1');

FILE_NAME(
/* name */ 'Hositrad_CFA63-38D v1.step',
/* time_stamp */ '2024-06-25T14:11:33+02:00',
/* author */ (''),
/* organization */ (''),
/* preprocessor_version */ 'ST-DEVELOPER v20',
/* originating_system */ 'Autodesk Translation Framework v13.14.0.145',

/* authorisation */ '');

FILE_SCHEMA (('AUTOMOTIVE_DESIGN { 1 0 10303 214 3 1 1 }'));
ENDSEC;

DATA;
#10=MECHANICAL_DESIGN_GEOMETRIC_PRESENTATION_REPRESENTATION('',(#13),#1876);
#11=SHAPE_REPRESENTATION_RELATIONSHIP('SRR','None',#1883,#12);
#12=ADVANCED_BREP_SHAPE_REPRESENTATION('',(#14),#1875);
#13=STYLED_ITEM('',(#1893),#14);
#14=MANIFOLD_SOLID_BREP('Body1',#1061);
#15=FACE_BOUND('',#178,.T.);
#16=FACE_BOUND('',#179,.T.);
#17=FACE_BOUND('',#180,.T.);
#18=FACE_BOUND('',#181,.T.);
#19=FACE_BOUND('',#184,.T.);
#20=FACE_BOUND('',#185,.T.);
#21=FACE_BOUND('',#186,.T.);
#22=FACE_BOUND('',#187,.T.);
#23=FACE_BOUND('',#189,.T.);
#24=FACE_BOUND('',#191,.T.);
#25=FACE_BOUND('',#192,.T.);
#26=FACE_BOUND('',#193,.T.);
#27=FACE_BOUND('',#194,.T.);
#28=FACE_BOUND('',#195,.T.);
#29=FACE_BOUND('',#196,.T.);
#30=FACE_BOUND('',#197,.T.);
#31=FACE_BOUND('',#198,.T.);
#32=FACE_BOUND('',#199,.T.);
#33=FACE_BOUND('',#200,.T.);
#34=FACE_BOUND('',#201,.T.);
#35=FACE_BOUND('',#202,.T.);
#36=FACE_BOUND('',#203,.T.);
#37=FACE_BOUND('',#204,.T.);
#38=FACE_BOUND('',#205,.T.);
#39=FACE_BOUND('',#213,.T.);
#40=PLANE('',#1203);
#41=PLANE('',#1206);
#42=PLANE('',#1207);
#43=PLANE('',#1208);
#44=PLANE('',#1209);
#45=PLANE('',#1210);
#46=PLANE('',#1211);
#47=PLANE('',#1212);
#48=PLANE('',#1213);
#49=PLANE('',#1214);
#50=PLANE('',#1215);
#51=CYLINDRICAL_SURFACE('',#1082,2.5);
#52=CYLINDRICAL_SURFACE('',#1086,2.5);
#53=CYLINDRICAL_SURFACE('',#1090,2.5);
#54=CYLINDRICAL_SURFACE('',#1094,2.5);
#55=CYLINDRICAL_SURFACE('',#1098,2.5);
#56=CYLINDRICAL_SURFACE('',#1102,2.5);
#57=CYLINDRICAL_SURFACE('',#1112,24.175);
#58=CYLINDRICAL_SURFACE('',#1114,19.05);
#59=CYLINDRICAL_SURFACE('',#1175,4.2);
#60=CYLINDRICAL_SURFACE('',#1176,4.2);
#61=CYLINDRICAL_SURFACE('',#1177,4.2);
#62=CYLINDRICAL_SURFACE('',#1178,4.2);
#63=CYLINDRICAL_SURFACE('',#1179,4.2);
#64=CYLINDRICAL_SURFACE('',#1180,4.2);
#65=CYLINDRICAL_SURFACE('',#1181,4.2);
#66=CYLINDRICAL_SURFACE('',#1182,4.2);
#67=CYLINDRICAL_SURFACE('',#1192,41.275);
#68=CYLINDRICAL_SURFACE('',#1198,56.75);
#69=FACE_OUTER_BOUND('',#129,.T.);
#70=FACE_OUTER_BOUND('',#130,.T.);
#71=FACE_OUTER_BOUND('',#131,.T.);
#72=FACE_OUTER_BOUND('',#132,.T.);
#73=FACE_OUTER_BOUND('',#133,.T.);
#74=FACE_OUTER_BOUND('',#134,.T.);
#75=FACE_OUTER_BOUND('',#135,.T.);
#76=FACE_OUTER_BOUND('',#136,.T.);
#77=FACE_OUTER_BOUND('',#137,.T.);
#78=FACE_OUTER_BOUND('',#138,.T.);
#79=FACE_OUTER_BOUND('',#139,.T.);
#80=FACE_OUTER_BOUND('',#140,.T.);
#81=FACE_OUTER_BOUND('',#141,.T.);
#82=FACE_OUTER_BOUND('',#142,.T.);
#83=FACE_OUTER_BOUND('',#143,.T.);
#84=FACE_OUTER_BOUND('',#144,.T.);
#85=FACE_OUTER_BOUND('',#145,.T.);
#86=FACE_OUTER_BOUND('',#146,.T.);
#87=FACE_OUTER_BOUND('',#147,.T.);
#88=FACE_OUTER_BOUND('',#148,.T.);
#89=FACE_OUTER_BOUND('',#149,.T.);
#90=FACE_OUTER_BOUND('',#150,.T.);
#91=FACE_OUTER_BOUND('',#151,.T.);
#92=FACE_OUTER_BOUND('',#152,.T.);
#93=FACE_OUTER_BOUND('',#153,.T.);
#94=FACE_OUTER_BOUND('',#154,.T.);
#95=FACE_OUTER_BOUND('',#155,.T.);
#96=FACE_OUTER_BOUND('',#156,.T.);
#97=FACE_OUTER_BOUND('',#157,.T.);
#98=FACE_OUTER_BOUND('',#158,.T.);
#99=FACE_OUTER_BOUND('',#159,.T.);
#100=FACE_OUTER_BOUND('',#160,.T.);
#101=FACE_OUTER_BOUND('',#161,.T.);
#102=FACE_OUTER_BOUND('',#162,.T.);
#103=FACE_OUTER_BOUND('',#163,.T.);
#104=FACE_OUTER_BOUND('',#164,.T.);
#105=FACE_OUTER_BOUND('',#165,.T.);
#106=FACE_OUTER_BOUND('',#166,.T.);
#107=FACE_OUTER_BOUND('',#167,.T.);
#108=FACE_OUTER_BOUND('',#168,.T.);
#109=FACE_OUTER_BOUND('',#169,.T.);
#110=FACE_OUTER_BOUND('',#170,.T.);
#111=FACE_OUTER_BOUND('',#171,.T.);
#112=FACE_OUTER_BOUND('',#172,.T.);
#113=FACE_OUTER_BOUND('',#173,.T.);
#114=FACE_OUTER_BOUND('',#174,.T.);
#115=FACE_OUTER_BOUND('',#175,.T.);
#116=FACE_OUTER_BOUND('',#176,.T.);
#117=FACE_OUTER_BOUND('',#177,.T.);
#118=FACE_OUTER_BOUND('',#182,.T.);
#119=FACE_OUTER_BOUND('',#183,.T.);
#120=FACE_OUTER_BOUND('',#188,.T.);
#121=FACE_OUTER_BOUND('',#190,.T.);
#122=FACE_OUTER_BOUND('',#206,.T.);
#123=FACE_OUTER_BOUND('',#207,.T.);
#124=FACE_OUTER_BOUND('',#208,.T.);
#125=FACE_OUTER_BOUND('',#209,.T.);
#126=FACE_OUTER_BOUND('',#210,.T.);
#127=FACE_OUTER_BOUND('',#211,.T.);
#128=FACE_OUTER_BOUND('',#212,.T.);
#129=EDGE_LOOP('',(#674,#675,#676,#677,#678));
#130=EDGE_LOOP('',(#679,#680,#681,#682));
#131=EDGE_LOOP('',(#683,#684,#685,#686));
#132=EDGE_LOOP('',(#687,#688,#689));
#133=EDGE_LOOP('',(#690,#691,#692,#693));
#134=EDGE_LOOP('',(#694,#695,#696));
#135=EDGE_LOOP('',(#697,#698,#699,#700));
#136=EDGE_LOOP('',(#701,#702,#703));
#137=EDGE_LOOP('',(#704,#705,#706,#707));
#138=EDGE_LOOP('',(#708,#709,#710));
#139=EDGE_LOOP('',(#711,#712,#713,#714));
#140=EDGE_LOOP('',(#715,#716,#717));
#141=EDGE_LOOP('',(#718,#719,#720,#721));
#142=EDGE_LOOP('',(#722,#723,#724));
#143=EDGE_LOOP('',(#725,#726,#727,#728,#729));
#144=EDGE_LOOP('',(#730,#731,#732,#733,#734));
#145=EDGE_LOOP('',(#735,#736,#737,#738));
#146=EDGE_LOOP('',(#739,#740,#741,#742,#743));
#147=EDGE_LOOP('',(#744,#745,#746,#747,#748));
#148=EDGE_LOOP('',(#749,#750,#751,#752));
#149=EDGE_LOOP('',(#753,#754,#755,#756,#757));
#150=EDGE_LOOP('',(#758,#759,#760,#761));
#151=EDGE_LOOP('',(#762,#763,#764,#765,#766));
#152=EDGE_LOOP('',(#767,#768,#769,#770));
#153=EDGE_LOOP('',(#771,#772,#773,#774,#775));
#154=EDGE_LOOP('',(#776,#777,#778,#779));
#155=EDGE_LOOP('',(#780,#781,#782,#783,#784));
#156=EDGE_LOOP('',(#785,#786,#787,#788));
#157=EDGE_LOOP('',(#789,#790,#791,#792,#793));
#158=EDGE_LOOP('',(#794,#795,#796,#797));
#159=EDGE_LOOP('',(#798,#799,#800,#801,#802));
#160=EDGE_LOOP('',(#803,#804,#805,#806));
#161=EDGE_LOOP('',(#807,#808,#809,#810,#811));
#162=EDGE_LOOP('',(#812,#813,#814,#815));
#163=EDGE_LOOP('',(#816,#817,#818,#819,#820));
#164=EDGE_LOOP('',(#821,#822,#823,#824,#825));
#165=EDGE_LOOP('',(#826,#827,#828,#829,#830));
#166=EDGE_LOOP('',(#831,#832,#833,#834,#835));
#167=EDGE_LOOP('',(#836,#837,#838,#839,#840));
#168=EDGE_LOOP('',(#841,#842,#843,#844,#845));
#169=EDGE_LOOP('',(#846,#847,#848,#849,#850));
#170=EDGE_LOOP('',(#851,#852,#853,#854,#855));
#171=EDGE_LOOP('',(#856,#857,#858,#859,#860));
#172=EDGE_LOOP('',(#861,#862,#863,#864,#865));
#173=EDGE_LOOP('',(#866,#867,#868,#869,#870));
#174=EDGE_LOOP('',(#871,#872,#873,#874));
#175=EDGE_LOOP('',(#875,#876,#877,#878,#879,#880,#881,#882,#883,#884,#885,
#886));
#176=EDGE_LOOP('',(#887,#888,#889,#890,#891,#892,#893,#894,#895,#896,#897,
#898,#899));
#177=EDGE_LOOP('',(#900,#901,#902,#903,#904));
#178=EDGE_LOOP('',(#905));
#179=EDGE_LOOP('',(#906));
#180=EDGE_LOOP('',(#907));
#181=EDGE_LOOP('',(#908));
#182=EDGE_LOOP('',(#909,#910,#911,#912,#913));
#183=EDGE_LOOP('',(#914,#915,#916,#917));
#184=EDGE_LOOP('',(#918));
#185=EDGE_LOOP('',(#919));
#186=EDGE_LOOP('',(#920));
#187=EDGE_LOOP('',(#921));
#188=EDGE_LOOP('',(#922));
#189=EDGE_LOOP('',(#923));
#190=EDGE_LOOP('',(#924));
#191=EDGE_LOOP('',(#925));
#192=EDGE_LOOP('',(#926));
#193=EDGE_LOOP('',(#927));
#194=EDGE_LOOP('',(#928));
#195=EDGE_LOOP('',(#929));
#196=EDGE_LOOP('',(#930));
#197=EDGE_LOOP('',(#931));
#198=EDGE_LOOP('',(#932));
#199=EDGE_LOOP('',(#933));
#200=EDGE_LOOP('',(#934));
#201=EDGE_LOOP('',(#935));
#202=EDGE_LOOP('',(#936));
#203=EDGE_LOOP('',(#937));
#204=EDGE_LOOP('',(#938));
#205=EDGE_LOOP('',(#939));
#206=EDGE_LOOP('',(#940,#941,#942,#943));
#207=EDGE_LOOP('',(#944,#945,#946,#947,#948));
#208=EDGE_LOOP('',(#949,#950,#951,#952,#953));
#209=EDGE_LOOP('',(#954,#955,#956,#957));
#210=EDGE_LOOP('',(#958,#959,#960,#961,#962));
#211=EDGE_LOOP('',(#963,#964,#965,#966,#967));
#212=EDGE_LOOP('',(#968));
#213=EDGE_LOOP('',(#969));
#214=LINE('',#1574,#281);
#215=LINE('',#1580,#282);
#216=LINE('',#1586,#283);
#217=LINE('',#1590,#284);
#218=LINE('',#1595,#285);
#219=LINE('',#1599,#286);
#220=LINE('',#1604,#287);
#221=LINE('',#1608,#288);
#222=LINE('',#1613,#289);
#223=LINE('',#1617,#290);
#224=LINE('',#1622,#291);
#225=LINE('',#1626,#292);
#226=LINE('',#1631,#293);
#227=LINE('',#1635,#294);
#228=LINE('',#1640,#295);
#229=LINE('',#1647,#296);
#230=LINE('',#1651,#297);
#231=LINE('',#1653,#298);
#232=LINE('',#1660,#299);
#233=LINE('',#1666,#300);
#234=LINE('',#1674,#301);
#235=LINE('',#1680,#302);
#236=LINE('',#1688,#303);
#237=LINE('',#1694,#304);
#238=LINE('',#1702,#305);
#239=LINE('',#1708,#306);
#240=LINE('',#1716,#307);
#241=LINE('',#1722,#308);
#242=LINE('',#1730,#309);
#243=LINE('',#1736,#310);
#244=LINE('',#1744,#311);
#245=LINE('',#1750,#312);
#246=LINE('',#1758,#313);
#247=LINE('',#1764,#314);
#248=LINE('',#1772,#315);
#249=LINE('',#1775,#316);
#250=LINE('',#1777,#317);
#251=LINE('',#1779,#318);
#252=LINE('',#1781,#319);
#253=LINE('',#1783,#320);
#254=LINE('',#1785,#321);
#255=LINE('',#1787,#322);
#256=LINE('',#1789,#323);
#257=LINE('',#1794,#324);
#258=LINE('',#1801,#325);
#259=LINE('',#1807,#326);
#260=LINE('',#1810,#327);
#261=LINE('',#1816,#328);
#262=LINE('',#1820,#329);
#263=LINE('',#1823,#330);
#264=LINE('',#1827,#331);
#265=LINE('',#1830,#332);
#266=LINE('',#1833,#333);
#267=LINE('',#1837,#334);
#268=LINE('',#1840,#335);
#269=LINE('',#1842,#336);
#270=LINE('',#1846,#337);
#271=LINE('',#1850,#338);
#272=LINE('',#1852,#339);
#273=LINE('',#1855,#340);
#274=LINE('',#1856,#341);
#275=LINE('',#1858,#342);
#276=LINE('',#1859,#343);
#277=LINE('',#1863,#344);
#278=LINE('',#1864,#345);
#279=LINE('',#1868,#346);
#280=LINE('',#1869,#347);
#281=VECTOR('',#1224,19.35);
#282=VECTOR('',#1231,19.35);
#283=VECTOR('',#1238,2.5);
#284=VECTOR('',#1243,2.5);
#285=VECTOR('',#1248,2.5);
#286=VECTOR('',#1253,2.5);
#287=VECTOR('',#1258,2.5);
#288=VECTOR('',#1263,2.5);
#289=VECTOR('',#1268,2.5);
#290=VECTOR('',#1273,2.5);
#291=VECTOR('',#1278,2.5);
#292=VECTOR('',#1283,2.5);
#293=VECTOR('',#1288,2.5);
#294=VECTOR('',#1293,2.5);
#295=VECTOR('',#1298,20.7316178594403);
#296=VECTOR('',#1307,20.95);
#297=VECTOR('',#1312,24.175);
#298=VECTOR('',#1315,19.05);
#299=VECTOR('',#1322,4.59999999999998);
#300=VECTOR('',#1329,4.2);
#301=VECTOR('',#1338,4.60000000000003);
#302=VECTOR('',#1345,4.2);
#303=VECTOR('',#1354,4.60000000000001);
#304=VECTOR('',#1361,4.2);
#305=VECTOR('',#1370,4.60000000000003);
#306=VECTOR('',#1377,4.2);
#307=VECTOR('',#1386,4.59999999999999);
#308=VECTOR('',#1393,4.2);
#309=VECTOR('',#1402,4.60000000000003);
#310=VECTOR('',#1409,4.2);
#311=VECTOR('',#1418,4.60000000000001);
#312=VECTOR('',#1425,4.2);
#313=VECTOR('',#1434,4.60000000000003);
#314=VECTOR('',#1441,4.2);
#315=VECTOR('',#1450,56.25);
#316=VECTOR('',#1455,4.2);
#317=VECTOR('',#1458,4.2);
#318=VECTOR('',#1461,4.2);
#319=VECTOR('',#1464,4.2);
#320=VECTOR('',#1467,4.2);
#321=VECTOR('',#1470,4.2);
#322=VECTOR('',#1473,4.2);
#323=VECTOR('',#1476,4.2);
#324=VECTOR('',#1481,38.3816178594403);
#325=VECTOR('',#1490,38.6);
#326=VECTOR('',#1495,10.);
#327=VECTOR('',#1498,10.);
#328=VECTOR('',#1503,1000.);
#329=VECTOR('',#1506,1000.);
#330=VECTOR('',#1509,41.275);
#331=VECTOR('',#1512,1000.);
#332=VECTOR('',#1515,1000.);
#333=VECTOR('',#1518,56.75);
#334=VECTOR('',#1521,1000.);
#335=VECTOR('',#1524,1000.);
#336=VECTOR('',#1525,1000.);
#337=VECTOR('',#1528,1000.);
#338=VECTOR('',#1533,1000.);
#339=VECTOR('',#1534,1000.);
#340=VECTOR('',#1539,10.);
#341=VECTOR('',#1540,10.);
#342=VECTOR('',#1543,1000.);
#343=VECTOR('',#1544,1000.);
#344=VECTOR('',#1551,1000.);
#345=VECTOR('',#1552,1000.);
#346=VECTOR('',#1559,1000.);
#347=VECTOR('',#1560,1000.);
#348=CIRCLE('',#1076,19.05);
#349=CIRCLE('',#1077,19.05);
#350=CIRCLE('',#1078,19.35);
#351=CIRCLE('',#1080,19.05);
#352=CIRCLE('',#1081,19.35);
#353=CIRCLE('',#1083,2.5);
#354=CIRCLE('',#1084,2.5);
#355=CIRCLE('',#1087,2.5);
#356=CIRCLE('',#1088,2.5);
#357=CIRCLE('',#1091,2.5);
#358=CIRCLE('',#1092,2.5);
#359=CIRCLE('',#1095,2.5);
#360=CIRCLE('',#1096,2.5);
#361=CIRCLE('',#1099,2.5);
#362=CIRCLE('',#1100,2.5);
#363=CIRCLE('',#1103,2.5);
#364=CIRCLE('',#1104,2.5);
#365=CIRCLE('',#1107,20.7316178594403);
#366=CIRCLE('',#1108,20.95);
#367=CIRCLE('',#1109,20.95);
#368=CIRCLE('',#1111,24.175);
#369=CIRCLE('',#1113,24.175);
#370=CIRCLE('',#1116,4.2);
#371=CIRCLE('',#1117,4.2);
#372=CIRCLE('',#1118,4.59999999999998);
#373=CIRCLE('',#1120,4.2);
#374=CIRCLE('',#1121,4.59999999999998);
#375=CIRCLE('',#1123,4.2);
#376=CIRCLE('',#1124,4.2);
#377=CIRCLE('',#1125,4.60000000000003);
#378=CIRCLE('',#1127,4.2);
#379=CIRCLE('',#1128,4.59999999999998);
#380=CIRCLE('',#1130,4.2);
#381=CIRCLE('',#1131,4.2);
#382=CIRCLE('',#1132,4.60000000000001);
#383=CIRCLE('',#1134,4.2);
#384=CIRCLE('',#1135,4.60000000000001);
#385=CIRCLE('',#1137,4.2);
#386=CIRCLE('',#1138,4.2);
#387=CIRCLE('',#1139,4.60000000000003);
#388=CIRCLE('',#1141,4.2);
#389=CIRCLE('',#1142,4.59999999999998);
#390=CIRCLE('',#1144,4.2);
#391=CIRCLE('',#1145,4.2);
#392=CIRCLE('',#1146,4.59999999999999);
#393=CIRCLE('',#1148,4.2);
#394=CIRCLE('',#1149,4.59999999999999);
#395=CIRCLE('',#1151,4.2);
#396=CIRCLE('',#1152,4.2);
#397=CIRCLE('',#1153,4.60000000000003);
#398=CIRCLE('',#1155,4.2);
#399=CIRCLE('',#1156,4.59999999999998);
#400=CIRCLE('',#1158,4.2);
#401=CIRCLE('',#1159,4.2);
#402=CIRCLE('',#1160,4.60000000000001);
#403=CIRCLE('',#1162,4.2);
#404=CIRCLE('',#1163,4.60000000000001);
#405=CIRCLE('',#1165,4.2);
#406=CIRCLE('',#1166,4.2);
#407=CIRCLE('',#1167,4.60000000000003);
#408=CIRCLE('',#1169,4.2);
#409=CIRCLE('',#1170,4.59999999999998);
#410=CIRCLE('',#1172,56.75);
#411=CIRCLE('',#1173,56.75);
#412=CIRCLE('',#1174,56.25);
#413=CIRCLE('',#1184,38.3816178594403);
#414=CIRCLE('',#1185,38.6);
#415=CIRCLE('',#1186,38.6);
#416=CIRCLE('',#1188,41.275);
#417=CIRCLE('',#1190,56.25);
#418=CIRCLE('',#1191,56.75);
#419=CIRCLE('',#1193,41.275);
#420=CIRCLE('',#1194,41.275);
#421=CIRCLE('',#1195,41.275);
#422=CIRCLE('',#1196,41.275);
#423=CIRCLE('',#1197,41.275);
#424=CIRCLE('',#1199,56.75);
#425=CIRCLE('',#1200,56.75);
#426=CIRCLE('',#1201,56.75);
#427=CIRCLE('',#1202,56.75);
#428=CIRCLE('',#1204,56.25);
#429=VERTEX_POINT('',#1569);
#430=VERTEX_POINT('',#1570);
#431=VERTEX_POINT('',#1573);
#432=VERTEX_POINT('',#1577);
#433=VERTEX_POINT('',#1579);
#434=VERTEX_POINT('',#1583);
#435=VERTEX_POINT('',#1585);
#436=VERTEX_POINT('',#1589);
#437=VERTEX_POINT('',#1592);
#438=VERTEX_POINT('',#1594);
#439=VERTEX_POINT('',#1598);
#440=VERTEX_POINT('',#1601);
#441=VERTEX_POINT('',#1603);
#442=VERTEX_POINT('',#1607);
#443=VERTEX_POINT('',#1610);
#444=VERTEX_POINT('',#1612);
#445=VERTEX_POINT('',#1616);
#446=VERTEX_POINT('',#1619);
#447=VERTEX_POINT('',#1621);
#448=VERTEX_POINT('',#1625);
#449=VERTEX_POINT('',#1628);
#450=VERTEX_POINT('',#1630);
#451=VERTEX_POINT('',#1634);
#452=VERTEX_POINT('',#1637);
#453=VERTEX_POINT('',#1639);
#454=VERTEX_POINT('',#1641);
#455=VERTEX_POINT('',#1645);
#456=VERTEX_POINT('',#1649);
#457=VERTEX_POINT('',#1655);
#458=VERTEX_POINT('',#1656);
#459=VERTEX_POINT('',#1659);
#460=VERTEX_POINT('',#1663);
#461=VERTEX_POINT('',#1665);
#462=VERTEX_POINT('',#1669);
#463=VERTEX_POINT('',#1670);
#464=VERTEX_POINT('',#1673);
#465=VERTEX_POINT('',#1677);
#466=VERTEX_POINT('',#1679);
#467=VERTEX_POINT('',#1683);
#468=VERTEX_POINT('',#1684);
#469=VERTEX_POINT('',#1687);
#470=VERTEX_POINT('',#1691);
#471=VERTEX_POINT('',#1693);
#472=VERTEX_POINT('',#1697);
#473=VERTEX_POINT('',#1698);
#474=VERTEX_POINT('',#1701);
#475=VERTEX_POINT('',#1705);
#476=VERTEX_POINT('',#1707);
#477=VERTEX_POINT('',#1711);
#478=VERTEX_POINT('',#1712);
#479=VERTEX_POINT('',#1715);
#480=VERTEX_POINT('',#1719);
#481=VERTEX_POINT('',#1721);
#482=VERTEX_POINT('',#1725);
#483=VERTEX_POINT('',#1726);
#484=VERTEX_POINT('',#1729);
#485=VERTEX_POINT('',#1733);
#486=VERTEX_POINT('',#1735);
#487=VERTEX_POINT('',#1739);
#488=VERTEX_POINT('',#1740);
#489=VERTEX_POINT('',#1743);
#490=VERTEX_POINT('',#1747);
#491=VERTEX_POINT('',#1749);
#492=VERTEX_POINT('',#1753);
#493=VERTEX_POINT('',#1754);
#494=VERTEX_POINT('',#1757);
#495=VERTEX_POINT('',#1761);
#496=VERTEX_POINT('',#1763);
#497=VERTEX_POINT('',#1767);
#498=VERTEX_POINT('',#1768);
#499=VERTEX_POINT('',#1771);
#500=VERTEX_POINT('',#1791);
#501=VERTEX_POINT('',#1793);
#502=VERTEX_POINT('',#1795);
#503=VERTEX_POINT('',#1799);
#504=VERTEX_POINT('',#1803);
#505=VERTEX_POINT('',#1804);
#506=VERTEX_POINT('',#1806);
#507=VERTEX_POINT('',#1808);
#508=VERTEX_POINT('',#1812);
#509=VERTEX_POINT('',#1813);
#510=VERTEX_POINT('',#1815);
#511=VERTEX_POINT('',#1817);
#512=VERTEX_POINT('',#1819);
#513=VERTEX_POINT('',#1821);
#514=VERTEX_POINT('',#1824);
#515=VERTEX_POINT('',#1826);
#516=VERTEX_POINT('',#1828);
#517=VERTEX_POINT('',#1832);
#518=VERTEX_POINT('',#1834);
#519=VERTEX_POINT('',#1836);
#520=VERTEX_POINT('',#1838);
#521=VERTEX_POINT('',#1841);
#522=VERTEX_POINT('',#1843);
#523=VERTEX_POINT('',#1845);
#524=VERTEX_POINT('',#1849);
#525=VERTEX_POINT('',#1851);
#526=EDGE_CURVE('',#429,#430,#348,.T.);
#527=EDGE_CURVE('',#430,#429,#349,.T.);
#528=EDGE_CURVE('',#430,#431,#214,.T.);
#529=EDGE_CURVE('',#431,#431,#350,.T.);
#530=EDGE_CURVE('',#432,#432,#351,.T.);
#531=EDGE_CURVE('',#432,#433,#215,.T.);
#532=EDGE_CURVE('',#433,#433,#352,.T.);
#533=EDGE_CURVE('',#434,#434,#353,.T.);
#534=EDGE_CURVE('',#434,#435,#216,.T.);
#535=EDGE_CURVE('',#435,#435,#354,.T.);
#536=EDGE_CURVE('',#436,#434,#217,.T.);
#537=EDGE_CURVE('',#437,#437,#355,.T.);
#538=EDGE_CURVE('',#437,#438,#218,.T.);
#539=EDGE_CURVE('',#438,#438,#356,.T.);
#540=EDGE_CURVE('',#439,#437,#219,.T.);
#541=EDGE_CURVE('',#440,#440,#357,.T.);
#542=EDGE_CURVE('',#440,#441,#220,.T.);
#543=EDGE_CURVE('',#441,#441,#358,.T.);
#544=EDGE_CURVE('',#442,#440,#221,.T.);
#545=EDGE_CURVE('',#443,#443,#359,.T.);
#546=EDGE_CURVE('',#443,#444,#222,.T.);
#547=EDGE_CURVE('',#444,#444,#360,.T.);
#548=EDGE_CURVE('',#445,#443,#223,.T.);
#549=EDGE_CURVE('',#446,#446,#361,.T.);
#550=EDGE_CURVE('',#446,#447,#224,.T.);
#551=EDGE_CURVE('',#447,#447,#362,.T.);
#552=EDGE_CURVE('',#448,#446,#225,.T.);
#553=EDGE_CURVE('',#449,#449,#363,.T.);
#554=EDGE_CURVE('',#449,#450,#226,.T.);
#555=EDGE_CURVE('',#450,#450,#364,.T.);
#556=EDGE_CURVE('',#451,#449,#227,.T.);
#557=EDGE_CURVE('',#452,#452,#365,.T.);
#558=EDGE_CURVE('',#452,#453,#228,.T.);
#559=EDGE_CURVE('',#454,#453,#366,.T.);
#560=EDGE_CURVE('',#453,#454,#367,.T.);
#561=EDGE_CURVE('',#455,#455,#368,.T.);
#562=EDGE_CURVE('',#455,#454,#229,.T.);
#563=EDGE_CURVE('',#456,#456,#369,.T.);
#564=EDGE_CURVE('',#456,#455,#230,.T.);
#565=EDGE_CURVE('',#429,#432,#231,.T.);
#566=EDGE_CURVE('',#457,#458,#370,.T.);
#567=EDGE_CURVE('',#458,#457,#371,.T.);
#568=EDGE_CURVE('',#458,#459,#232,.T.);
#569=EDGE_CURVE('',#459,#459,#372,.T.);
#570=EDGE_CURVE('',#460,#460,#373,.T.);
#571=EDGE_CURVE('',#460,#461,#233,.T.);
#572=EDGE_CURVE('',#461,#461,#374,.T.);
#573=EDGE_CURVE('',#462,#463,#375,.T.);
#574=EDGE_CURVE('',#463,#462,#376,.T.);
#575=EDGE_CURVE('',#463,#464,#234,.T.);
#576=EDGE_CURVE('',#464,#464,#377,.T.);
#577=EDGE_CURVE('',#465,#465,#378,.T.);
#578=EDGE_CURVE('',#465,#466,#235,.T.);
#579=EDGE_CURVE('',#466,#466,#379,.T.);
#580=EDGE_CURVE('',#467,#468,#380,.T.);
#581=EDGE_CURVE('',#468,#467,#381,.T.);
#582=EDGE_CURVE('',#468,#469,#236,.T.);
#583=EDGE_CURVE('',#469,#469,#382,.T.);
#584=EDGE_CURVE('',#470,#470,#383,.T.);
#585=EDGE_CURVE('',#470,#471,#237,.T.);
#586=EDGE_CURVE('',#471,#471,#384,.T.);
#587=EDGE_CURVE('',#472,#473,#385,.T.);
#588=EDGE_CURVE('',#473,#472,#386,.T.);
#589=EDGE_CURVE('',#473,#474,#238,.T.);
#590=EDGE_CURVE('',#474,#474,#387,.T.);
#591=EDGE_CURVE('',#475,#475,#388,.T.);
#592=EDGE_CURVE('',#475,#476,#239,.T.);
#593=EDGE_CURVE('',#476,#476,#389,.T.);
#594=EDGE_CURVE('',#477,#478,#390,.T.);
#595=EDGE_CURVE('',#478,#477,#391,.T.);
#596=EDGE_CURVE('',#478,#479,#240,.T.);
#597=EDGE_CURVE('',#479,#479,#392,.T.);
#598=EDGE_CURVE('',#480,#480,#393,.T.);
#599=EDGE_CURVE('',#480,#481,#241,.T.);
#600=EDGE_CURVE('',#481,#481,#394,.T.);
#601=EDGE_CURVE('',#482,#483,#395,.T.);
#602=EDGE_CURVE('',#483,#482,#396,.T.);
#603=EDGE_CURVE('',#483,#484,#242,.T.);
#604=EDGE_CURVE('',#484,#484,#397,.T.);
#605=EDGE_CURVE('',#485,#485,#398,.T.);
#606=EDGE_CURVE('',#485,#486,#243,.T.);
#607=EDGE_CURVE('',#486,#486,#399,.T.);
#608=EDGE_CURVE('',#487,#488,#400,.T.);
#609=EDGE_CURVE('',#488,#487,#401,.T.);
#610=EDGE_CURVE('',#488,#489,#244,.T.);
#611=EDGE_CURVE('',#489,#489,#402,.T.);
#612=EDGE_CURVE('',#490,#490,#403,.T.);
#613=EDGE_CURVE('',#490,#491,#245,.T.);
#614=EDGE_CURVE('',#491,#491,#404,.T.);
#615=EDGE_CURVE('',#492,#493,#405,.T.);
#616=EDGE_CURVE('',#493,#492,#406,.T.);
#617=EDGE_CURVE('',#493,#494,#246,.T.);
#618=EDGE_CURVE('',#494,#494,#407,.T.);
#619=EDGE_CURVE('',#495,#495,#408,.T.);
#620=EDGE_CURVE('',#495,#496,#247,.T.);
#621=EDGE_CURVE('',#496,#496,#409,.T.);
#622=EDGE_CURVE('',#497,#498,#410,.T.);
#623=EDGE_CURVE('',#498,#497,#411,.T.);
#624=EDGE_CURVE('',#498,#499,#248,.T.);
#625=EDGE_CURVE('',#499,#499,#412,.T.);
#626=EDGE_CURVE('',#477,#480,#249,.T.);
#627=EDGE_CURVE('',#472,#475,#250,.T.);
#628=EDGE_CURVE('',#467,#470,#251,.T.);
#629=EDGE_CURVE('',#462,#465,#252,.T.);
#630=EDGE_CURVE('',#457,#460,#253,.T.);
#631=EDGE_CURVE('',#492,#495,#254,.T.);
#632=EDGE_CURVE('',#487,#490,#255,.T.);
#633=EDGE_CURVE('',#482,#485,#256,.T.);
#634=EDGE_CURVE('',#500,#500,#413,.T.);
#635=EDGE_CURVE('',#500,#501,#257,.T.);
#636=EDGE_CURVE('',#502,#501,#414,.T.);
#637=EDGE_CURVE('',#501,#502,#415,.T.);
#638=EDGE_CURVE('',#503,#503,#416,.T.);
#639=EDGE_CURVE('',#503,#502,#258,.T.);
#640=EDGE_CURVE('',#504,#505,#417,.T.);
#641=EDGE_CURVE('',#506,#504,#259,.T.);
#642=EDGE_CURVE('',#507,#506,#418,.T.);
#643=EDGE_CURVE('',#507,#505,#260,.T.);
#644=EDGE_CURVE('',#508,#509,#419,.T.);
#645=EDGE_CURVE('',#510,#508,#261,.T.);
#646=EDGE_CURVE('',#510,#511,#420,.T.);
#647=EDGE_CURVE('',#511,#512,#262,.T.);
#648=EDGE_CURVE('',#513,#512,#421,.T.);
#649=EDGE_CURVE('',#513,#503,#263,.T.);
#650=EDGE_CURVE('',#514,#513,#422,.T.);
#651=EDGE_CURVE('',#515,#514,#264,.T.);
#652=EDGE_CURVE('',#515,#516,#423,.T.);
#653=EDGE_CURVE('',#516,#509,#265,.T.);
#654=EDGE_CURVE('',#497,#517,#266,.T.);
#655=EDGE_CURVE('',#517,#518,#424,.T.);
#656=EDGE_CURVE('',#518,#519,#267,.T.);
#657=EDGE_CURVE('',#519,#520,#425,.T.);
#658=EDGE_CURVE('',#507,#520,#268,.T.);
#659=EDGE_CURVE('',#506,#521,#269,.T.);
#660=EDGE_CURVE('',#521,#522,#426,.T.);
#661=EDGE_CURVE('',#523,#522,#270,.T.);
#662=EDGE_CURVE('',#523,#517,#427,.T.);
#663=EDGE_CURVE('',#524,#514,#271,.T.);
#664=EDGE_CURVE('',#525,#512,#272,.T.);
#665=EDGE_CURVE('',#525,#524,#428,.T.);
#666=EDGE_CURVE('',#523,#524,#273,.T.);
#667=EDGE_CURVE('',#518,#525,#274,.T.);
#668=EDGE_CURVE('',#504,#509,#275,.T.);
#669=EDGE_CURVE('',#505,#508,#276,.T.);
#670=EDGE_CURVE('',#519,#511,#277,.T.);
#671=EDGE_CURVE('',#520,#510,#278,.T.);
#672=EDGE_CURVE('',#521,#516,#279,.T.);
#673=EDGE_CURVE('',#522,#515,#280,.T.);
#674=ORIENTED_EDGE('',*,*,#526,.F.);
#675=ORIENTED_EDGE('',*,*,#527,.F.);
#676=ORIENTED_EDGE('',*,*,#528,.T.);
#677=ORIENTED_EDGE('',*,*,#529,.F.);
#678=ORIENTED_EDGE('',*,*,#528,.F.);
#679=ORIENTED_EDGE('',*,*,#530,.F.);
#680=ORIENTED_EDGE('',*,*,#531,.T.);
#681=ORIENTED_EDGE('',*,*,#532,.F.);
#682=ORIENTED_EDGE('',*,*,#531,.F.);
#683=ORIENTED_EDGE('',*,*,#533,.F.);
#684=ORIENTED_EDGE('',*,*,#534,.T.);
#685=ORIENTED_EDGE('',*,*,#535,.T.);
#686=ORIENTED_EDGE('',*,*,#534,.F.);
#687=ORIENTED_EDGE('',*,*,#536,.T.);
#688=ORIENTED_EDGE('',*,*,#533,.T.);
#689=ORIENTED_EDGE('',*,*,#536,.F.);
#690=ORIENTED_EDGE('',*,*,#537,.F.);
#691=ORIENTED_EDGE('',*,*,#538,.T.);
#692=ORIENTED_EDGE('',*,*,#539,.T.);
#693=ORIENTED_EDGE('',*,*,#538,.F.);
#694=ORIENTED_EDGE('',*,*,#540,.T.);
#695=ORIENTED_EDGE('',*,*,#537,.T.);
#696=ORIENTED_EDGE('',*,*,#540,.F.);
#697=ORIENTED_EDGE('',*,*,#541,.F.);
#698=ORIENTED_EDGE('',*,*,#542,.T.);
#699=ORIENTED_EDGE('',*,*,#543,.T.);
#700=ORIENTED_EDGE('',*,*,#542,.F.);
#701=ORIENTED_EDGE('',*,*,#544,.T.);
#702=ORIENTED_EDGE('',*,*,#541,.T.);
#703=ORIENTED_EDGE('',*,*,#544,.F.);
#704=ORIENTED_EDGE('',*,*,#545,.F.);
#705=ORIENTED_EDGE('',*,*,#546,.T.);
#706=ORIENTED_EDGE('',*,*,#547,.T.);
#707=ORIENTED_EDGE('',*,*,#546,.F.);
#708=ORIENTED_EDGE('',*,*,#548,.T.);
#709=ORIENTED_EDGE('',*,*,#545,.T.);
#710=ORIENTED_EDGE('',*,*,#548,.F.);
#711=ORIENTED_EDGE('',*,*,#549,.F.);
#712=ORIENTED_EDGE('',*,*,#550,.T.);
#713=ORIENTED_EDGE('',*,*,#551,.T.);
#714=ORIENTED_EDGE('',*,*,#550,.F.);
#715=ORIENTED_EDGE('',*,*,#552,.T.);
#716=ORIENTED_EDGE('',*,*,#549,.T.);
#717=ORIENTED_EDGE('',*,*,#552,.F.);
#718=ORIENTED_EDGE('',*,*,#553,.F.);
#719=ORIENTED_EDGE('',*,*,#554,.T.);
#720=ORIENTED_EDGE('',*,*,#555,.T.);
#721=ORIENTED_EDGE('',*,*,#554,.F.);
#722=ORIENTED_EDGE('',*,*,#556,.T.);
#723=ORIENTED_EDGE('',*,*,#553,.T.);
#724=ORIENTED_EDGE('',*,*,#556,.F.);
#725=ORIENTED_EDGE('',*,*,#557,.T.);
#726=ORIENTED_EDGE('',*,*,#558,.T.);
#727=ORIENTED_EDGE('',*,*,#559,.F.);
#728=ORIENTED_EDGE('',*,*,#560,.F.);
#729=ORIENTED_EDGE('',*,*,#558,.F.);
#730=ORIENTED_EDGE('',*,*,#561,.F.);
#731=ORIENTED_EDGE('',*,*,#562,.T.);
#732=ORIENTED_EDGE('',*,*,#559,.T.);
#733=ORIENTED_EDGE('',*,*,#560,.T.);
#734=ORIENTED_EDGE('',*,*,#562,.F.);
#735=ORIENTED_EDGE('',*,*,#563,.F.);
#736=ORIENTED_EDGE('',*,*,#564,.T.);
#737=ORIENTED_EDGE('',*,*,#561,.T.);
#738=ORIENTED_EDGE('',*,*,#564,.F.);
#739=ORIENTED_EDGE('',*,*,#526,.T.);
#740=ORIENTED_EDGE('',*,*,#527,.T.);
#741=ORIENTED_EDGE('',*,*,#565,.T.);
#742=ORIENTED_EDGE('',*,*,#530,.T.);
#743=ORIENTED_EDGE('',*,*,#565,.F.);
#744=ORIENTED_EDGE('',*,*,#566,.F.);
#745=ORIENTED_EDGE('',*,*,#567,.F.);
#746=ORIENTED_EDGE('',*,*,#568,.T.);
#747=ORIENTED_EDGE('',*,*,#569,.F.);
#748=ORIENTED_EDGE('',*,*,#568,.F.);
#749=ORIENTED_EDGE('',*,*,#570,.F.);
#750=ORIENTED_EDGE('',*,*,#571,.T.);
#751=ORIENTED_EDGE('',*,*,#572,.F.);
#752=ORIENTED_EDGE('',*,*,#571,.F.);
#753=ORIENTED_EDGE('',*,*,#573,.F.);
#754=ORIENTED_EDGE('',*,*,#574,.F.);
#755=ORIENTED_EDGE('',*,*,#575,.T.);
#756=ORIENTED_EDGE('',*,*,#576,.F.);
#757=ORIENTED_EDGE('',*,*,#575,.F.);
#758=ORIENTED_EDGE('',*,*,#577,.F.);
#759=ORIENTED_EDGE('',*,*,#578,.T.);
#760=ORIENTED_EDGE('',*,*,#579,.F.);
#761=ORIENTED_EDGE('',*,*,#578,.F.);
#762=ORIENTED_EDGE('',*,*,#580,.F.);
#763=ORIENTED_EDGE('',*,*,#581,.F.);
#764=ORIENTED_EDGE('',*,*,#582,.T.);
#765=ORIENTED_EDGE('',*,*,#583,.F.);
#766=ORIENTED_EDGE('',*,*,#582,.F.);
#767=ORIENTED_EDGE('',*,*,#584,.F.);
#768=ORIENTED_EDGE('',*,*,#585,.T.);
#769=ORIENTED_EDGE('',*,*,#586,.F.);
#770=ORIENTED_EDGE('',*,*,#585,.F.);
#771=ORIENTED_EDGE('',*,*,#587,.F.);
#772=ORIENTED_EDGE('',*,*,#588,.F.);
#773=ORIENTED_EDGE('',*,*,#589,.T.);
#774=ORIENTED_EDGE('',*,*,#590,.F.);
#775=ORIENTED_EDGE('',*,*,#589,.F.);
#776=ORIENTED_EDGE('',*,*,#591,.F.);
#777=ORIENTED_EDGE('',*,*,#592,.T.);
#778=ORIENTED_EDGE('',*,*,#593,.F.);
#779=ORIENTED_EDGE('',*,*,#592,.F.);
#780=ORIENTED_EDGE('',*,*,#594,.F.);
#781=ORIENTED_EDGE('',*,*,#595,.F.);
#782=ORIENTED_EDGE('',*,*,#596,.T.);
#783=ORIENTED_EDGE('',*,*,#597,.F.);
#784=ORIENTED_EDGE('',*,*,#596,.F.);
#785=ORIENTED_EDGE('',*,*,#598,.F.);
#786=ORIENTED_EDGE('',*,*,#599,.T.);
#787=ORIENTED_EDGE('',*,*,#600,.F.);
#788=ORIENTED_EDGE('',*,*,#599,.F.);
#789=ORIENTED_EDGE('',*,*,#601,.F.);
#790=ORIENTED_EDGE('',*,*,#602,.F.);
#791=ORIENTED_EDGE('',*,*,#603,.T.);
#792=ORIENTED_EDGE('',*,*,#604,.F.);
#793=ORIENTED_EDGE('',*,*,#603,.F.);
#794=ORIENTED_EDGE('',*,*,#605,.F.);
#795=ORIENTED_EDGE('',*,*,#606,.T.);
#796=ORIENTED_EDGE('',*,*,#607,.F.);
#797=ORIENTED_EDGE('',*,*,#606,.F.);
#798=ORIENTED_EDGE('',*,*,#608,.F.);
#799=ORIENTED_EDGE('',*,*,#609,.F.);
#800=ORIENTED_EDGE('',*,*,#610,.T.);
#801=ORIENTED_EDGE('',*,*,#611,.F.);
#802=ORIENTED_EDGE('',*,*,#610,.F.);
#803=ORIENTED_EDGE('',*,*,#612,.F.);
#804=ORIENTED_EDGE('',*,*,#613,.T.);
#805=ORIENTED_EDGE('',*,*,#614,.F.);
#806=ORIENTED_EDGE('',*,*,#613,.F.);
#807=ORIENTED_EDGE('',*,*,#615,.F.);
#808=ORIENTED_EDGE('',*,*,#616,.F.);
#809=ORIENTED_EDGE('',*,*,#617,.T.);
#810=ORIENTED_EDGE('',*,*,#618,.F.);
#811=ORIENTED_EDGE('',*,*,#617,.F.);
#812=ORIENTED_EDGE('',*,*,#619,.F.);
#813=ORIENTED_EDGE('',*,*,#620,.T.);
#814=ORIENTED_EDGE('',*,*,#621,.F.);
#815=ORIENTED_EDGE('',*,*,#620,.F.);
#816=ORIENTED_EDGE('',*,*,#622,.F.);
#817=ORIENTED_EDGE('',*,*,#623,.F.);
#818=ORIENTED_EDGE('',*,*,#624,.T.);
#819=ORIENTED_EDGE('',*,*,#625,.F.);
#820=ORIENTED_EDGE('',*,*,#624,.F.);
#821=ORIENTED_EDGE('',*,*,#594,.T.);
#822=ORIENTED_EDGE('',*,*,#595,.T.);
#823=ORIENTED_EDGE('',*,*,#626,.T.);
#824=ORIENTED_EDGE('',*,*,#598,.T.);
#825=ORIENTED_EDGE('',*,*,#626,.F.);
#826=ORIENTED_EDGE('',*,*,#587,.T.);
#827=ORIENTED_EDGE('',*,*,#588,.T.);
#828=ORIENTED_EDGE('',*,*,#627,.T.);
#829=ORIENTED_EDGE('',*,*,#591,.T.);
#830=ORIENTED_EDGE('',*,*,#627,.F.);
#831=ORIENTED_EDGE('',*,*,#580,.T.);
#832=ORIENTED_EDGE('',*,*,#581,.T.);
#833=ORIENTED_EDGE('',*,*,#628,.T.);
#834=ORIENTED_EDGE('',*,*,#584,.T.);
#835=ORIENTED_EDGE('',*,*,#628,.F.);
#836=ORIENTED_EDGE('',*,*,#573,.T.);
#837=ORIENTED_EDGE('',*,*,#574,.T.);
#838=ORIENTED_EDGE('',*,*,#629,.T.);
#839=ORIENTED_EDGE('',*,*,#577,.T.);
#840=ORIENTED_EDGE('',*,*,#629,.F.);
#841=ORIENTED_EDGE('',*,*,#566,.T.);
#842=ORIENTED_EDGE('',*,*,#567,.T.);
#843=ORIENTED_EDGE('',*,*,#630,.T.);
#844=ORIENTED_EDGE('',*,*,#570,.T.);
#845=ORIENTED_EDGE('',*,*,#630,.F.);
#846=ORIENTED_EDGE('',*,*,#615,.T.);
#847=ORIENTED_EDGE('',*,*,#616,.T.);
#848=ORIENTED_EDGE('',*,*,#631,.T.);
#849=ORIENTED_EDGE('',*,*,#619,.T.);
#850=ORIENTED_EDGE('',*,*,#631,.F.);
#851=ORIENTED_EDGE('',*,*,#608,.T.);
#852=ORIENTED_EDGE('',*,*,#609,.T.);
#853=ORIENTED_EDGE('',*,*,#632,.T.);
#854=ORIENTED_EDGE('',*,*,#612,.T.);
#855=ORIENTED_EDGE('',*,*,#632,.F.);
#856=ORIENTED_EDGE('',*,*,#601,.T.);
#857=ORIENTED_EDGE('',*,*,#602,.T.);
#858=ORIENTED_EDGE('',*,*,#633,.T.);
#859=ORIENTED_EDGE('',*,*,#605,.T.);
#860=ORIENTED_EDGE('',*,*,#633,.F.);
#861=ORIENTED_EDGE('',*,*,#634,.T.);
#862=ORIENTED_EDGE('',*,*,#635,.T.);
#863=ORIENTED_EDGE('',*,*,#636,.F.);
#864=ORIENTED_EDGE('',*,*,#637,.F.);
#865=ORIENTED_EDGE('',*,*,#635,.F.);
#866=ORIENTED_EDGE('',*,*,#638,.F.);
#867=ORIENTED_EDGE('',*,*,#639,.T.);
#868=ORIENTED_EDGE('',*,*,#636,.T.);
#869=ORIENTED_EDGE('',*,*,#637,.T.);
#870=ORIENTED_EDGE('',*,*,#639,.F.);
#871=ORIENTED_EDGE('',*,*,#640,.F.);
#872=ORIENTED_EDGE('',*,*,#641,.F.);
#873=ORIENTED_EDGE('',*,*,#642,.F.);
#874=ORIENTED_EDGE('',*,*,#643,.T.);
#875=ORIENTED_EDGE('',*,*,#644,.F.);
#876=ORIENTED_EDGE('',*,*,#645,.F.);
#877=ORIENTED_EDGE('',*,*,#646,.T.);
#878=ORIENTED_EDGE('',*,*,#647,.T.);
#879=ORIENTED_EDGE('',*,*,#648,.F.);
#880=ORIENTED_EDGE('',*,*,#649,.T.);
#881=ORIENTED_EDGE('',*,*,#638,.T.);
#882=ORIENTED_EDGE('',*,*,#649,.F.);
#883=ORIENTED_EDGE('',*,*,#650,.F.);
#884=ORIENTED_EDGE('',*,*,#651,.F.);
#885=ORIENTED_EDGE('',*,*,#652,.T.);
#886=ORIENTED_EDGE('',*,*,#653,.T.);
#887=ORIENTED_EDGE('',*,*,#622,.T.);
#888=ORIENTED_EDGE('',*,*,#623,.T.);
#889=ORIENTED_EDGE('',*,*,#654,.T.);
#890=ORIENTED_EDGE('',*,*,#655,.T.);
#891=ORIENTED_EDGE('',*,*,#656,.T.);
#892=ORIENTED_EDGE('',*,*,#657,.T.);
#893=ORIENTED_EDGE('',*,*,#658,.F.);
#894=ORIENTED_EDGE('',*,*,#642,.T.);
#895=ORIENTED_EDGE('',*,*,#659,.T.);
#896=ORIENTED_EDGE('',*,*,#660,.T.);
#897=ORIENTED_EDGE('',*,*,#661,.F.);
#898=ORIENTED_EDGE('',*,*,#662,.T.);
#899=ORIENTED_EDGE('',*,*,#654,.F.);
#900=ORIENTED_EDGE('',*,*,#663,.T.);
#901=ORIENTED_EDGE('',*,*,#650,.T.);
#902=ORIENTED_EDGE('',*,*,#648,.T.);
#903=ORIENTED_EDGE('',*,*,#664,.F.);
#904=ORIENTED_EDGE('',*,*,#665,.T.);
#905=ORIENTED_EDGE('',*,*,#579,.T.);
#906=ORIENTED_EDGE('',*,*,#586,.T.);
#907=ORIENTED_EDGE('',*,*,#593,.T.);
#908=ORIENTED_EDGE('',*,*,#600,.T.);
#909=ORIENTED_EDGE('',*,*,#662,.F.);
#910=ORIENTED_EDGE('',*,*,#666,.T.);
#911=ORIENTED_EDGE('',*,*,#665,.F.);
#912=ORIENTED_EDGE('',*,*,#667,.F.);
#913=ORIENTED_EDGE('',*,*,#655,.F.);
#914=ORIENTED_EDGE('',*,*,#644,.T.);
#915=ORIENTED_EDGE('',*,*,#668,.F.);
#916=ORIENTED_EDGE('',*,*,#640,.T.);
#917=ORIENTED_EDGE('',*,*,#669,.T.);
#918=ORIENTED_EDGE('',*,*,#572,.T.);
#919=ORIENTED_EDGE('',*,*,#607,.T.);
#920=ORIENTED_EDGE('',*,*,#614,.T.);
#921=ORIENTED_EDGE('',*,*,#621,.T.);
#922=ORIENTED_EDGE('',*,*,#634,.F.);
#923=ORIENTED_EDGE('',*,*,#532,.T.);
#924=ORIENTED_EDGE('',*,*,#625,.T.);
#925=ORIENTED_EDGE('',*,*,#535,.F.);
#926=ORIENTED_EDGE('',*,*,#539,.F.);
#927=ORIENTED_EDGE('',*,*,#543,.F.);
#928=ORIENTED_EDGE('',*,*,#547,.F.);
#929=ORIENTED_EDGE('',*,*,#551,.F.);
#930=ORIENTED_EDGE('',*,*,#555,.F.);
#931=ORIENTED_EDGE('',*,*,#563,.T.);
#932=ORIENTED_EDGE('',*,*,#618,.T.);
#933=ORIENTED_EDGE('',*,*,#611,.T.);
#934=ORIENTED_EDGE('',*,*,#604,.T.);
#935=ORIENTED_EDGE('',*,*,#597,.T.);
#936=ORIENTED_EDGE('',*,*,#590,.T.);
#937=ORIENTED_EDGE('',*,*,#583,.T.);
#938=ORIENTED_EDGE('',*,*,#576,.T.);
#939=ORIENTED_EDGE('',*,*,#569,.T.);
#940=ORIENTED_EDGE('',*,*,#670,.T.);
#941=ORIENTED_EDGE('',*,*,#646,.F.);
#942=ORIENTED_EDGE('',*,*,#671,.F.);
#943=ORIENTED_EDGE('',*,*,#657,.F.);
#944=ORIENTED_EDGE('',*,*,#645,.T.);
#945=ORIENTED_EDGE('',*,*,#669,.F.);
#946=ORIENTED_EDGE('',*,*,#643,.F.);
#947=ORIENTED_EDGE('',*,*,#658,.T.);
#948=ORIENTED_EDGE('',*,*,#671,.T.);
#949=ORIENTED_EDGE('',*,*,#670,.F.);
#950=ORIENTED_EDGE('',*,*,#656,.F.);
#951=ORIENTED_EDGE('',*,*,#667,.T.);
#952=ORIENTED_EDGE('',*,*,#664,.T.);
#953=ORIENTED_EDGE('',*,*,#647,.F.);
#954=ORIENTED_EDGE('',*,*,#672,.T.);
#955=ORIENTED_EDGE('',*,*,#652,.F.);
#956=ORIENTED_EDGE('',*,*,#673,.F.);
#957=ORIENTED_EDGE('',*,*,#660,.F.);
#958=ORIENTED_EDGE('',*,*,#651,.T.);
#959=ORIENTED_EDGE('',*,*,#663,.F.);
#960=ORIENTED_EDGE('',*,*,#666,.F.);
#961=ORIENTED_EDGE('',*,*,#661,.T.);
#962=ORIENTED_EDGE('',*,*,#673,.T.);
#963=ORIENTED_EDGE('',*,*,#672,.F.);
#964=ORIENTED_EDGE('',*,*,#659,.F.);
#965=ORIENTED_EDGE('',*,*,#641,.T.);
#966=ORIENTED_EDGE('',*,*,#668,.T.);
#967=ORIENTED_EDGE('',*,*,#653,.F.);
#968=ORIENTED_EDGE('',*,*,#557,.F.);
#969=ORIENTED_EDGE('',*,*,#529,.T.);
#970=CONICAL_SURFACE('',#1075,19.35,0.785398163397431);
#971=CONICAL_SURFACE('',#1079,19.35,0.785398163397431);
#972=CONICAL_SURFACE('',#1085,2.5,1.02974425867665);
#973=CONICAL_SURFACE('',#1089,2.5,1.02974425867665);
#974=CONICAL_SURFACE('',#1093,2.5,1.02974425867665);
#975=CONICAL_SURFACE('',#1097,2.5,1.02974425867665);
#976=CONICAL_SURFACE('',#1101,2.5,1.02974425867665);
#977=CONICAL_SURFACE('',#1105,2.5,1.02974425867665);
#978=CONICAL_SURFACE('',#1106,20.7316178594403,0.349065850398869);
#979=CONICAL_SURFACE('',#1110,20.95,1.22173047639603);
#980=CONICAL_SURFACE('',#1115,4.59999999999998,0.785398163397469);
#981=CONICAL_SURFACE('',#1119,4.2,0.785398163397452);
#982=CONICAL_SURFACE('',#1122,4.60000000000003,0.785398163397431);
#983=CONICAL_SURFACE('',#1126,4.2,0.785398163397448);
#984=CONICAL_SURFACE('',#1129,4.60000000000001,0.785398163397454);
#985=CONICAL_SURFACE('',#1133,4.2,0.785398163397436);
#986=CONICAL_SURFACE('',#1136,4.60000000000003,0.785398163397431);
#987=CONICAL_SURFACE('',#1140,4.2,0.785398163397448);
#988=CONICAL_SURFACE('',#1143,4.59999999999999,0.785398163397475);
#989=CONICAL_SURFACE('',#1147,4.2,0.785398163397458);
#990=CONICAL_SURFACE('',#1150,4.60000000000003,0.785398163397431);
#991=CONICAL_SURFACE('',#1154,4.2,0.785398163397448);
#992=CONICAL_SURFACE('',#1157,4.60000000000001,0.785398163397464);
#993=CONICAL_SURFACE('',#1161,4.2,0.785398163397464);
#994=CONICAL_SURFACE('',#1164,4.60000000000003,0.785398163397431);
#995=CONICAL_SURFACE('',#1168,4.2,0.785398163397448);
#996=CONICAL_SURFACE('',#1171,56.25,0.785398163397428);
#997=CONICAL_SURFACE('',#1183,38.3816178594403,0.349065850398874);
#998=CONICAL_SURFACE('',#1187,38.6,1.22173047639603);
#999=CONICAL_SURFACE('',#1189,56.75,0.785398163397462);
#1000=CONICAL_SURFACE('',#1205,56.75,0.785398163397462);
#1001=ADVANCED_FACE('',(#69),#970,.F.);
#1002=ADVANCED_FACE('',(#70),#971,.F.);
#1003=ADVANCED_FACE('',(#71),#51,.F.);
#1004=ADVANCED_FACE('',(#72),#972,.F.);
#1005=ADVANCED_FACE('',(#73),#52,.F.);
#1006=ADVANCED_FACE('',(#74),#973,.F.);
#1007=ADVANCED_FACE('',(#75),#53,.F.);
#1008=ADVANCED_FACE('',(#76),#974,.F.);
#1009=ADVANCED_FACE('',(#77),#54,.F.);
#1010=ADVANCED_FACE('',(#78),#975,.F.);
#1011=ADVANCED_FACE('',(#79),#55,.F.);
#1012=ADVANCED_FACE('',(#80),#976,.F.);
#1013=ADVANCED_FACE('',(#81),#56,.F.);
#1014=ADVANCED_FACE('',(#82),#977,.F.);
#1015=ADVANCED_FACE('',(#83),#978,.F.);
#1016=ADVANCED_FACE('',(#84),#979,.T.);
#1017=ADVANCED_FACE('',(#85),#57,.F.);
#1018=ADVANCED_FACE('',(#86),#58,.F.);
#1019=ADVANCED_FACE('',(#87),#980,.F.);
#1020=ADVANCED_FACE('',(#88),#981,.F.);
#1021=ADVANCED_FACE('',(#89),#982,.F.);
#1022=ADVANCED_FACE('',(#90),#983,.F.);
#1023=ADVANCED_FACE('',(#91),#984,.F.);
#1024=ADVANCED_FACE('',(#92),#985,.F.);
#1025=ADVANCED_FACE('',(#93),#986,.F.);
#1026=ADVANCED_FACE('',(#94),#987,.F.);
#1027=ADVANCED_FACE('',(#95),#988,.F.);
#1028=ADVANCED_FACE('',(#96),#989,.F.);
#1029=ADVANCED_FACE('',(#97),#990,.F.);
#1030=ADVANCED_FACE('',(#98),#991,.F.);
#1031=ADVANCED_FACE('',(#99),#992,.F.);
#1032=ADVANCED_FACE('',(#100),#993,.F.);
#1033=ADVANCED_FACE('',(#101),#994,.F.);
#1034=ADVANCED_FACE('',(#102),#995,.F.);
#1035=ADVANCED_FACE('',(#103),#996,.T.);
#1036=ADVANCED_FACE('',(#104),#59,.F.);
#1037=ADVANCED_FACE('',(#105),#60,.F.);
#1038=ADVANCED_FACE('',(#106),#61,.F.);
#1039=ADVANCED_FACE('',(#107),#62,.F.);
#1040=ADVANCED_FACE('',(#108),#63,.F.);
#1041=ADVANCED_FACE('',(#109),#64,.F.);
#1042=ADVANCED_FACE('',(#110),#65,.F.);
#1043=ADVANCED_FACE('',(#111),#66,.F.);
#1044=ADVANCED_FACE('',(#112),#997,.F.);
#1045=ADVANCED_FACE('',(#113),#998,.T.);
#1046=ADVANCED_FACE('',(#114),#999,.T.);
#1047=ADVANCED_FACE('',(#115),#67,.F.);
#1048=ADVANCED_FACE('',(#116),#68,.T.);
#1049=ADVANCED_FACE('',(#117,#15,#16,#17,#18),#40,.F.);
#1050=ADVANCED_FACE('',(#118),#1000,.T.);
#1051=ADVANCED_FACE('',(#119,#19,#20,#21,#22),#41,.F.);
#1052=ADVANCED_FACE('',(#120,#23),#42,.F.);
#1053=ADVANCED_FACE('',(#121,#24,#25,#26,#27,#28,#29,#30,#31,#32,#33,#34,
#35,#36,#37,#38),#43,.F.);
#1054=ADVANCED_FACE('',(#122),#44,.F.);
#1055=ADVANCED_FACE('',(#123),#45,.T.);
#1056=ADVANCED_FACE('',(#124),#46,.F.);
#1057=ADVANCED_FACE('',(#125),#47,.F.);
#1058=ADVANCED_FACE('',(#126),#48,.T.);
#1059=ADVANCED_FACE('',(#127),#49,.F.);
#1060=ADVANCED_FACE('',(#128,#39),#50,.F.);
#1061=CLOSED_SHELL('',(#1001,#1002,#1003,#1004,#1005,#1006,#1007,#1008,
#1009,#1010,#1011,#1012,#1013,#1014,#1015,#1016,#1017,#1018,#1019,#1020,
#1021,#1022,#1023,#1024,#1025,#1026,#1027,#1028,#1029,#1030,#1031,#1032,
#1033,#1034,#1035,#1036,#1037,#1038,#1039,#1040,#1041,#1042,#1043,#1044,
#1045,#1046,#1047,#1048,#1049,#1050,#1051,#1052,#1053,#1054,#1055,#1056,
#1057,#1058,#1059,#1060));
#1062=DERIVED_UNIT_ELEMENT(#1064,1.);
#1063=DERIVED_UNIT_ELEMENT(#1878,-3.);
#1064=(
MASS_UNIT()
NAMED_UNIT(*)
SI_UNIT(.KILO.,.GRAM.)
);
#1065=DERIVED_UNIT((#1062,#1063));
#1066=MEASURE_REPRESENTATION_ITEM('density measure',
POSITIVE_RATIO_MEASURE(7850.),#1065);
#1067=PROPERTY_DEFINITION_REPRESENTATION(#1072,#1069);
#1068=PROPERTY_DEFINITION_REPRESENTATION(#1073,#1070);
#1069=REPRESENTATION('material name',(#1071),#1875);
#1070=REPRESENTATION('density',(#1066),#1875);
#1071=DESCRIPTIVE_REPRESENTATION_ITEM('Steel','Steel');
#1072=PROPERTY_DEFINITION('material property','material name',#1885);
#1073=PROPERTY_DEFINITION('material property','density of part',#1885);
#1074=AXIS2_PLACEMENT_3D('',#1567,#1216,#1217);
#1075=AXIS2_PLACEMENT_3D('',#1568,#1218,#1219);
#1076=AXIS2_PLACEMENT_3D('',#1571,#1220,#1221);
#1077=AXIS2_PLACEMENT_3D('',#1572,#1222,#1223);
#1078=AXIS2_PLACEMENT_3D('',#1575,#1225,#1226);
#1079=AXIS2_PLACEMENT_3D('',#1576,#1227,#1228);
#1080=AXIS2_PLACEMENT_3D('',#1578,#1229,#1230);
#1081=AXIS2_PLACEMENT_3D('',#1581,#1232,#1233);
#1082=AXIS2_PLACEMENT_3D('',#1582,#1234,#1235);
#1083=AXIS2_PLACEMENT_3D('',#1584,#1236,#1237);
#1084=AXIS2_PLACEMENT_3D('',#1587,#1239,#1240);
#1085=AXIS2_PLACEMENT_3D('',#1588,#1241,#1242);
#1086=AXIS2_PLACEMENT_3D('',#1591,#1244,#1245);
#1087=AXIS2_PLACEMENT_3D('',#1593,#1246,#1247);
#1088=AXIS2_PLACEMENT_3D('',#1596,#1249,#1250);
#1089=AXIS2_PLACEMENT_3D('',#1597,#1251,#1252);
#1090=AXIS2_PLACEMENT_3D('',#1600,#1254,#1255);
#1091=AXIS2_PLACEMENT_3D('',#1602,#1256,#1257);
#1092=AXIS2_PLACEMENT_3D('',#1605,#1259,#1260);
#1093=AXIS2_PLACEMENT_3D('',#1606,#1261,#1262);
#1094=AXIS2_PLACEMENT_3D('',#1609,#1264,#1265);
#1095=AXIS2_PLACEMENT_3D('',#1611,#1266,#1267);
#1096=AXIS2_PLACEMENT_3D('',#1614,#1269,#1270);
#1097=AXIS2_PLACEMENT_3D('',#1615,#1271,#1272);
#1098=AXIS2_PLACEMENT_3D('',#1618,#1274,#1275);
#1099=AXIS2_PLACEMENT_3D('',#1620,#1276,#1277);
#1100=AXIS2_PLACEMENT_3D('',#1623,#1279,#1280);
#1101=AXIS2_PLACEMENT_3D('',#1624,#1281,#1282);
#1102=AXIS2_PLACEMENT_3D('',#1627,#1284,#1285);
#1103=AXIS2_PLACEMENT_3D('',#1629,#1286,#1287);
#1104=AXIS2_PLACEMENT_3D('',#1632,#1289,#1290);
#1105=AXIS2_PLACEMENT_3D('',#1633,#1291,#1292);
#1106=AXIS2_PLACEMENT_3D('',#1636,#1294,#1295);
#1107=AXIS2_PLACEMENT_3D('',#1638,#1296,#1297);
#1108=AXIS2_PLACEMENT_3D('',#1642,#1299,#1300);
#1109=AXIS2_PLACEMENT_3D('',#1643,#1301,#1302);
#1110=AXIS2_PLACEMENT_3D('',#1644,#1303,#1304);
#1111=AXIS2_PLACEMENT_3D('',#1646,#1305,#1306);
#1112=AXIS2_PLACEMENT_3D('',#1648,#1308,#1309);
#1113=AXIS2_PLACEMENT_3D('',#1650,#1310,#1311);
#1114=AXIS2_PLACEMENT_3D('',#1652,#1313,#1314);
#1115=AXIS2_PLACEMENT_3D('',#1654,#1316,#1317);
#1116=AXIS2_PLACEMENT_3D('',#1657,#1318,#1319);
#1117=AXIS2_PLACEMENT_3D('',#1658,#1320,#1321);
#1118=AXIS2_PLACEMENT_3D('',#1661,#1323,#1324);
#1119=AXIS2_PLACEMENT_3D('',#1662,#1325,#1326);
#1120=AXIS2_PLACEMENT_3D('',#1664,#1327,#1328);
#1121=AXIS2_PLACEMENT_3D('',#1667,#1330,#1331);
#1122=AXIS2_PLACEMENT_3D('',#1668,#1332,#1333);
#1123=AXIS2_PLACEMENT_3D('',#1671,#1334,#1335);
#1124=AXIS2_PLACEMENT_3D('',#1672,#1336,#1337);
#1125=AXIS2_PLACEMENT_3D('',#1675,#1339,#1340);
#1126=AXIS2_PLACEMENT_3D('',#1676,#1341,#1342);
#1127=AXIS2_PLACEMENT_3D('',#1678,#1343,#1344);
#1128=AXIS2_PLACEMENT_3D('',#1681,#1346,#1347);
#1129=AXIS2_PLACEMENT_3D('',#1682,#1348,#1349);
#1130=AXIS2_PLACEMENT_3D('',#1685,#1350,#1351);
#1131=AXIS2_PLACEMENT_3D('',#1686,#1352,#1353);
#1132=AXIS2_PLACEMENT_3D('',#1689,#1355,#1356);
#1133=AXIS2_PLACEMENT_3D('',#1690,#1357,#1358);
#1134=AXIS2_PLACEMENT_3D('',#1692,#1359,#1360);
#1135=AXIS2_PLACEMENT_3D('',#1695,#1362,#1363);
#1136=AXIS2_PLACEMENT_3D('',#1696,#1364,#1365);
#1137=AXIS2_PLACEMENT_3D('',#1699,#1366,#1367);
#1138=AXIS2_PLACEMENT_3D('',#1700,#1368,#1369);
#1139=AXIS2_PLACEMENT_3D('',#1703,#1371,#1372);
#1140=AXIS2_PLACEMENT_3D('',#1704,#1373,#1374);
#1141=AXIS2_PLACEMENT_3D('',#1706,#1375,#1376);
#1142=AXIS2_PLACEMENT_3D('',#1709,#1378,#1379);
#1143=AXIS2_PLACEMENT_3D('',#1710,#1380,#1381);
#1144=AXIS2_PLACEMENT_3D('',#1713,#1382,#1383);
#1145=AXIS2_PLACEMENT_3D('',#1714,#1384,#1385);
#1146=AXIS2_PLACEMENT_3D('',#1717,#1387,#1388);
#1147=AXIS2_PLACEMENT_3D('',#1718,#1389,#1390);
#1148=AXIS2_PLACEMENT_3D('',#1720,#1391,#1392);
#1149=AXIS2_PLACEMENT_3D('',#1723,#1394,#1395);
#1150=AXIS2_PLACEMENT_3D('',#1724,#1396,#1397);
#1151=AXIS2_PLACEMENT_3D('',#1727,#1398,#1399);
#1152=AXIS2_PLACEMENT_3D('',#1728,#1400,#1401);
#1153=AXIS2_PLACEMENT_3D('',#1731,#1403,#1404);
#1154=AXIS2_PLACEMENT_3D('',#1732,#1405,#1406);
#1155=AXIS2_PLACEMENT_3D('',#1734,#1407,#1408);
#1156=AXIS2_PLACEMENT_3D('',#1737,#1410,#1411);
#1157=AXIS2_PLACEMENT_3D('',#1738,#1412,#1413);
#1158=AXIS2_PLACEMENT_3D('',#1741,#1414,#1415);
#1159=AXIS2_PLACEMENT_3D('',#1742,#1416,#1417);
#1160=AXIS2_PLACEMENT_3D('',#1745,#1419,#1420);
#1161=AXIS2_PLACEMENT_3D('',#1746,#1421,#1422);
#1162=AXIS2_PLACEMENT_3D('',#1748,#1423,#1424);
#1163=AXIS2_PLACEMENT_3D('',#1751,#1426,#1427);
#1164=AXIS2_PLACEMENT_3D('',#1752,#1428,#1429);
#1165=AXIS2_PLACEMENT_3D('',#1755,#1430,#1431);
#1166=AXIS2_PLACEMENT_3D('',#1756,#1432,#1433);
#1167=AXIS2_PLACEMENT_3D('',#1759,#1435,#1436);
#1168=AXIS2_PLACEMENT_3D('',#1760,#1437,#1438);
#1169=AXIS2_PLACEMENT_3D('',#1762,#1439,#1440);
#1170=AXIS2_PLACEMENT_3D('',#1765,#1442,#1443);
#1171=AXIS2_PLACEMENT_3D('',#1766,#1444,#1445);
#1172=AXIS2_PLACEMENT_3D('',#1769,#1446,#1447);
#1173=AXIS2_PLACEMENT_3D('',#1770,#1448,#1449);
#1174=AXIS2_PLACEMENT_3D('',#1773,#1451,#1452);
#1175=AXIS2_PLACEMENT_3D('',#1774,#1453,#1454);
#1176=AXIS2_PLACEMENT_3D('',#1776,#1456,#1457);
#1177=AXIS2_PLACEMENT_3D('',#1778,#1459,#1460);
#1178=AXIS2_PLACEMENT_3D('',#1780,#1462,#1463);
#1179=AXIS2_PLACEMENT_3D('',#1782,#1465,#1466);
#1180=AXIS2_PLACEMENT_3D('',#1784,#1468,#1469);
#1181=AXIS2_PLACEMENT_3D('',#1786,#1471,#1472);
#1182=AXIS2_PLACEMENT_3D('',#1788,#1474,#1475);
#1183=AXIS2_PLACEMENT_3D('',#1790,#1477,#1478);
#1184=AXIS2_PLACEMENT_3D('',#1792,#1479,#1480);
#1185=AXIS2_PLACEMENT_3D('',#1796,#1482,#1483);
#1186=AXIS2_PLACEMENT_3D('',#1797,#1484,#1485);
#1187=AXIS2_PLACEMENT_3D('',#1798,#1486,#1487);
#1188=AXIS2_PLACEMENT_3D('',#1800,#1488,#1489);
#1189=AXIS2_PLACEMENT_3D('',#1802,#1491,#1492);
#1190=AXIS2_PLACEMENT_3D('',#1805,#1493,#1494);
#1191=AXIS2_PLACEMENT_3D('',#1809,#1496,#1497);
#1192=AXIS2_PLACEMENT_3D('',#1811,#1499,#1500);
#1193=AXIS2_PLACEMENT_3D('',#1814,#1501,#1502);
#1194=AXIS2_PLACEMENT_3D('',#1818,#1504,#1505);
#1195=AXIS2_PLACEMENT_3D('',#1822,#1507,#1508);
#1196=AXIS2_PLACEMENT_3D('',#1825,#1510,#1511);
#1197=AXIS2_PLACEMENT_3D('',#1829,#1513,#1514);
#1198=AXIS2_PLACEMENT_3D('',#1831,#1516,#1517);
#1199=AXIS2_PLACEMENT_3D('',#1835,#1519,#1520);
#1200=AXIS2_PLACEMENT_3D('',#1839,#1522,#1523);
#1201=AXIS2_PLACEMENT_3D('',#1844,#1526,#1527);
#1202=AXIS2_PLACEMENT_3D('',#1847,#1529,#1530);
#1203=AXIS2_PLACEMENT_3D('',#1848,#1531,#1532);
#1204=AXIS2_PLACEMENT_3D('',#1853,#1535,#1536);
#1205=AXIS2_PLACEMENT_3D('',#1854,#1537,#1538);
#1206=AXIS2_PLACEMENT_3D('',#1857,#1541,#1542);
#1207=AXIS2_PLACEMENT_3D('',#1860,#1545,#1546);
#1208=AXIS2_PLACEMENT_3D('',#1861,#1547,#1548);
#1209=AXIS2_PLACEMENT_3D('',#1862,#1549,#1550);
#1210=AXIS2_PLACEMENT_3D('',#1865,#1553,#1554);
#1211=AXIS2_PLACEMENT_3D('',#1866,#1555,#1556);
#1212=AXIS2_PLACEMENT_3D('',#1867,#1557,#1558);
#1213=AXIS2_PLACEMENT_3D('',#1870,#1561,#1562);
#1214=AXIS2_PLACEMENT_3D('',#1871,#1563,#1564);
#1215=AXIS2_PLACEMENT_3D('',#1872,#1565,#1566);
#1216=DIRECTION('axis',(0.,0.,1.));
#1217=DIRECTION('refdir',(1.,0.,0.));
#1218=DIRECTION('center_axis',(0.,-1.,0.));
#1219=DIRECTION('ref_axis',(0.,0.,-1.));
#1220=DIRECTION('center_axis',(0.,-1.,0.));
#1221=DIRECTION('ref_axis',(0.,0.,1.));
#1222=DIRECTION('center_axis',(0.,-1.,0.));
#1223=DIRECTION('ref_axis',(0.,0.,1.));
#1224=DIRECTION('',(-8.65956056235478E-17,-0.70710678118656,0.707106781186535));
#1225=DIRECTION('center_axis',(0.,1.,0.));
#1226=DIRECTION('ref_axis',(0.,0.,1.));
#1227=DIRECTION('center_axis',(0.,1.,0.));
#1228=DIRECTION('ref_axis',(0.,0.,1.));
#1229=DIRECTION('center_axis',(0.,1.,0.));
#1230=DIRECTION('ref_axis',(0.,0.,-1.));
#1231=DIRECTION('',(-8.65956056235478E-17,0.70710678118656,-0.707106781186535));
#1232=DIRECTION('center_axis',(0.,-1.,0.));
#1233=DIRECTION('ref_axis',(0.,0.,-1.));
#1234=DIRECTION('center_axis',(0.,-1.,0.));
#1235=DIRECTION('ref_axis',(0.,0.,-1.));
#1236=DIRECTION('center_axis',(0.,-1.,0.));
#1237=DIRECTION('ref_axis',(0.,0.,-1.));
#1238=DIRECTION('',(0.,-1.,0.));
#1239=DIRECTION('center_axis',(0.,-1.,0.));
#1240=DIRECTION('ref_axis',(0.,0.,-1.));
#1241=DIRECTION('center_axis',(0.,-1.,0.));
#1242=DIRECTION('ref_axis',(0.,0.,-1.));
#1243=DIRECTION('',(-1.04972719113862E-16,-0.515038074910055,0.857167300702112));
#1244=DIRECTION('center_axis',(0.,-1.,0.));
#1245=DIRECTION('ref_axis',(0.,0.,-1.));
#1246=DIRECTION('center_axis',(0.,-1.,0.));
#1247=DIRECTION('ref_axis',(0.,0.,-1.));
#1248=DIRECTION('',(0.,-1.,0.));
#1249=DIRECTION('center_axis',(0.,-1.,0.));
#1250=DIRECTION('ref_axis',(0.,0.,-1.));
#1251=DIRECTION('center_axis',(0.,-1.,0.));
#1252=DIRECTION('ref_axis',(0.,0.,-1.));
#1253=DIRECTION('',(-1.04972719113862E-16,-0.515038074910055,0.857167300702112));
#1254=DIRECTION('center_axis',(0.,-1.,0.));
#1255=DIRECTION('ref_axis',(0.,0.,-1.));
#1256=DIRECTION('center_axis',(0.,-1.,0.));
#1257=DIRECTION('ref_axis',(0.,0.,-1.));
#1258=DIRECTION('',(0.,-1.,0.));
#1259=DIRECTION('center_axis',(0.,-1.,0.));
#1260=DIRECTION('ref_axis',(0.,0.,-1.));
#1261=DIRECTION('center_axis',(0.,-1.,0.));
#1262=DIRECTION('ref_axis',(0.,0.,-1.));
#1263=DIRECTION('',(-1.04972719113862E-16,-0.515038074910055,0.857167300702112));
#1264=DIRECTION('center_axis',(0.,-1.,0.));
#1265=DIRECTION('ref_axis',(0.,0.,-1.));
#1266=DIRECTION('center_axis',(0.,-1.,0.));
#1267=DIRECTION('ref_axis',(0.,0.,-1.));
#1268=DIRECTION('',(0.,-1.,0.));
#1269=DIRECTION('center_axis',(0.,-1.,0.));
#1270=DIRECTION('ref_axis',(0.,0.,-1.));
#1271=DIRECTION('center_axis',(0.,-1.,0.));
#1272=DIRECTION('ref_axis',(0.,0.,-1.));
#1273=DIRECTION('',(-1.04972719113862E-16,-0.515038074910055,0.857167300702112));
#1274=DIRECTION('center_axis',(0.,-1.,0.));
#1275=DIRECTION('ref_axis',(0.,0.,-1.));
#1276=DIRECTION('center_axis',(0.,-1.,0.));
#1277=DIRECTION('ref_axis',(0.,0.,-1.));
#1278=DIRECTION('',(0.,-1.,0.));
#1279=DIRECTION('center_axis',(0.,-1.,0.));
#1280=DIRECTION('ref_axis',(0.,0.,-1.));
#1281=DIRECTION('center_axis',(0.,-1.,0.));
#1282=DIRECTION('ref_axis',(0.,0.,-1.));
#1283=DIRECTION('',(-1.04972719113862E-16,-0.515038074910055,0.857167300702112));
#1284=DIRECTION('center_axis',(0.,-1.,0.));
#1285=DIRECTION('ref_axis',(0.,0.,-1.));
#1286=DIRECTION('center_axis',(0.,-1.,0.));
#1287=DIRECTION('ref_axis',(0.,0.,-1.));
#1288=DIRECTION('',(0.,-1.,0.));
#1289=DIRECTION('center_axis',(0.,-1.,0.));
#1290=DIRECTION('ref_axis',(0.,0.,-1.));
#1291=DIRECTION('center_axis',(0.,-1.,0.));
#1292=DIRECTION('ref_axis',(0.,0.,-1.));
#1293=DIRECTION('',(-1.04972719113862E-16,-0.515038074910055,0.857167300702112));
#1294=DIRECTION('center_axis',(0.,-1.,0.));
#1295=DIRECTION('ref_axis',(0.,0.,-1.));
#1296=DIRECTION('center_axis',(0.,1.,0.));
#1297=DIRECTION('ref_axis',(0.,0.,1.));
#1298=DIRECTION('',(-4.18853873767702E-17,-0.939692620785907,0.342020143325671));
#1299=DIRECTION('center_axis',(0.,1.,0.));
#1300=DIRECTION('ref_axis',(0.,0.,1.));
#1301=DIRECTION('center_axis',(0.,1.,0.));
#1302=DIRECTION('ref_axis',(0.,0.,1.));
#1303=DIRECTION('center_axis',(0.,1.,0.));
#1304=DIRECTION('ref_axis',(0.,0.,1.));
#1305=DIRECTION('center_axis',(0.,1.,0.));
#1306=DIRECTION('ref_axis',(0.,0.,1.));
#1307=DIRECTION('',(1.15079156022785E-16,-0.342020143325672,0.939692620785907));
#1308=DIRECTION('center_axis',(0.,1.,0.));
#1309=DIRECTION('ref_axis',(0.,0.,1.));
#1310=DIRECTION('center_axis',(0.,1.,0.));
#1311=DIRECTION('ref_axis',(0.,0.,1.));
#1312=DIRECTION('',(0.,1.,0.));
#1313=DIRECTION('center_axis',(0.,1.,0.));
#1314=DIRECTION('ref_axis',(0.,0.,1.));
#1315=DIRECTION('',(0.,1.,0.));
#1316=DIRECTION('center_axis',(0.,-1.,0.));
#1317=DIRECTION('ref_axis',(0.,0.,-1.));
#1318=DIRECTION('center_axis',(0.,-1.,0.));
#1319=DIRECTION('ref_axis',(0.,0.,1.));
#1320=DIRECTION('center_axis',(0.,-1.,0.));
#1321=DIRECTION('ref_axis',(0.,0.,1.));
#1322=DIRECTION('',(-8.65956056235511E-17,-0.707106781186533,0.707106781186562));
#1323=DIRECTION('center_axis',(0.,1.,0.));
#1324=DIRECTION('ref_axis',(0.,0.,1.));
#1325=DIRECTION('center_axis',(0.,1.,0.));
#1326=DIRECTION('ref_axis',(0.,0.,1.));
#1327=DIRECTION('center_axis',(0.,1.,0.));
#1328=DIRECTION('ref_axis',(0.,0.,-1.));
#1329=DIRECTION('',(-8.65956056235496E-17,0.707106781186545,-0.70710678118655));
#1330=DIRECTION('center_axis',(0.,-1.,0.));
#1331=DIRECTION('ref_axis',(0.,0.,-1.));
#1332=DIRECTION('center_axis',(0.,-1.,0.));
#1333=DIRECTION('ref_axis',(0.,0.,-1.));
#1334=DIRECTION('center_axis',(0.,-1.,0.));
#1335=DIRECTION('ref_axis',(0.,0.,1.));
#1336=DIRECTION('center_axis',(0.,-1.,0.));
#1337=DIRECTION('ref_axis',(0.,0.,1.));
#1338=DIRECTION('',(-8.65956056235478E-17,-0.70710678118656,0.707106781186535));
#1339=DIRECTION('center_axis',(0.,1.,0.));
#1340=DIRECTION('ref_axis',(0.,0.,1.));
#1341=DIRECTION('center_axis',(0.,1.,0.));
#1342=DIRECTION('ref_axis',(0.,0.,1.));
#1343=DIRECTION('center_axis',(0.,1.,0.));
#1344=DIRECTION('ref_axis',(0.,0.,-1.));
#1345=DIRECTION('',(-8.65956056235494E-17,0.707106781186548,-0.707106781186548));
#1346=DIRECTION('center_axis',(0.,-1.,0.));
#1347=DIRECTION('ref_axis',(0.,0.,-1.));
#1348=DIRECTION('center_axis',(0.,-1.,0.));
#1349=DIRECTION('ref_axis',(0.,0.,-1.));
#1350=DIRECTION('center_axis',(0.,-1.,0.));
#1351=DIRECTION('ref_axis',(0.,0.,1.));
#1352=DIRECTION('center_axis',(0.,-1.,0.));
#1353=DIRECTION('ref_axis',(0.,0.,1.));
#1354=DIRECTION('',(-8.65956056235498E-17,-0.707106781186544,0.707106781186551));
#1355=DIRECTION('center_axis',(0.,1.,0.));
#1356=DIRECTION('ref_axis',(0.,0.,1.));
#1357=DIRECTION('center_axis',(0.,1.,0.));
#1358=DIRECTION('ref_axis',(0.,0.,1.));
#1359=DIRECTION('center_axis',(0.,1.,0.));
#1360=DIRECTION('ref_axis',(0.,0.,-1.));
#1361=DIRECTION('',(-8.65956056235483E-17,0.707106781186556,-0.707106781186539));
#1362=DIRECTION('center_axis',(0.,-1.,0.));
#1363=DIRECTION('ref_axis',(0.,0.,-1.));
#1364=DIRECTION('center_axis',(0.,-1.,0.));
#1365=DIRECTION('ref_axis',(0.,0.,-1.));
#1366=DIRECTION('center_axis',(0.,-1.,0.));
#1367=DIRECTION('ref_axis',(0.,0.,1.));
#1368=DIRECTION('center_axis',(0.,-1.,0.));
#1369=DIRECTION('ref_axis',(0.,0.,1.));
#1370=DIRECTION('',(-8.65956056235478E-17,-0.70710678118656,0.707106781186535));
#1371=DIRECTION('center_axis',(0.,1.,0.));
#1372=DIRECTION('ref_axis',(0.,0.,1.));
#1373=DIRECTION('center_axis',(0.,1.,0.));
#1374=DIRECTION('ref_axis',(0.,0.,1.));
#1375=DIRECTION('center_axis',(0.,1.,0.));
#1376=DIRECTION('ref_axis',(0.,0.,-1.));
#1377=DIRECTION('',(-8.65956056235494E-17,0.707106781186548,-0.707106781186548));
#1378=DIRECTION('center_axis',(0.,-1.,0.));
#1379=DIRECTION('ref_axis',(0.,0.,-1.));
#1380=DIRECTION('center_axis',(0.,-1.,0.));
#1381=DIRECTION('ref_axis',(0.,0.,-1.));
#1382=DIRECTION('center_axis',(0.,-1.,0.));
#1383=DIRECTION('ref_axis',(0.,0.,1.));
#1384=DIRECTION('center_axis',(0.,-1.,0.));
#1385=DIRECTION('ref_axis',(0.,0.,1.));
#1386=DIRECTION('',(-8.65956056235517E-17,-0.707106781186528,0.707106781186567));
#1387=DIRECTION('center_axis',(0.,1.,0.));
#1388=DIRECTION('ref_axis',(0.,0.,1.));
#1389=DIRECTION('center_axis',(0.,1.,0.));
#1390=DIRECTION('ref_axis',(0.,0.,1.));
#1391=DIRECTION('center_axis',(0.,1.,0.));
#1392=DIRECTION('ref_axis',(0.,0.,-1.));
#1393=DIRECTION('',(-8.65956056235502E-17,0.707106781186541,-0.707106781186554));
#1394=DIRECTION('center_axis',(0.,-1.,0.));
#1395=DIRECTION('ref_axis',(0.,0.,-1.));
#1396=DIRECTION('center_axis',(0.,-1.,0.));
#1397=DIRECTION('ref_axis',(0.,0.,-1.));
#1398=DIRECTION('center_axis',(0.,-1.,0.));
#1399=DIRECTION('ref_axis',(0.,0.,1.));
#1400=DIRECTION('center_axis',(0.,-1.,0.));
#1401=DIRECTION('ref_axis',(0.,0.,1.));
#1402=DIRECTION('',(-8.65956056235478E-17,-0.70710678118656,0.707106781186535));
#1403=DIRECTION('center_axis',(0.,1.,0.));
#1404=DIRECTION('ref_axis',(0.,0.,1.));
#1405=DIRECTION('center_axis',(0.,1.,0.));
#1406=DIRECTION('ref_axis',(0.,0.,1.));
#1407=DIRECTION('center_axis',(0.,1.,0.));
#1408=DIRECTION('ref_axis',(0.,0.,-1.));
#1409=DIRECTION('',(-8.65956056235494E-17,0.707106781186548,-0.707106781186548));
#1410=DIRECTION('center_axis',(0.,-1.,0.));
#1411=DIRECTION('ref_axis',(0.,0.,-1.));
#1412=DIRECTION('center_axis',(0.,-1.,0.));
#1413=DIRECTION('ref_axis',(0.,0.,-1.));
#1414=DIRECTION('center_axis',(0.,-1.,0.));
#1415=DIRECTION('ref_axis',(0.,0.,1.));
#1416=DIRECTION('center_axis',(0.,-1.,0.));
#1417=DIRECTION('ref_axis',(0.,0.,1.));
#1418=DIRECTION('',(-8.65956056235507E-17,-0.707106781186536,0.707106781186559));
#1419=DIRECTION('center_axis',(0.,1.,0.));
#1420=DIRECTION('ref_axis',(0.,0.,1.));
#1421=DIRECTION('center_axis',(0.,1.,0.));
#1422=DIRECTION('ref_axis',(0.,0.,1.));
#1423=DIRECTION('center_axis',(0.,1.,0.));
#1424=DIRECTION('ref_axis',(0.,0.,-1.));
#1425=DIRECTION('',(-8.65956056235507E-17,0.707106781186536,-0.707106781186559));
#1426=DIRECTION('center_axis',(0.,-1.,0.));
#1427=DIRECTION('ref_axis',(0.,0.,-1.));
#1428=DIRECTION('center_axis',(0.,-1.,0.));
#1429=DIRECTION('ref_axis',(0.,0.,-1.));
#1430=DIRECTION('center_axis',(0.,-1.,0.));
#1431=DIRECTION('ref_axis',(0.,0.,1.));
#1432=DIRECTION('center_axis',(0.,-1.,0.));
#1433=DIRECTION('ref_axis',(0.,0.,1.));
#1434=DIRECTION('',(-8.65956056235478E-17,-0.70710678118656,0.707106781186535));
#1435=DIRECTION('center_axis',(0.,1.,0.));
#1436=DIRECTION('ref_axis',(0.,0.,1.));
#1437=DIRECTION('center_axis',(0.,1.,0.));
#1438=DIRECTION('ref_axis',(0.,0.,1.));
#1439=DIRECTION('center_axis',(0.,1.,0.));
#1440=DIRECTION('ref_axis',(0.,0.,-1.));
#1441=DIRECTION('',(-8.65956056235494E-17,0.707106781186548,-0.707106781186548));
#1442=DIRECTION('center_axis',(0.,-1.,0.));
#1443=DIRECTION('ref_axis',(0.,0.,-1.));
#1444=DIRECTION('center_axis',(0.,1.,0.));
#1445=DIRECTION('ref_axis',(0.,0.,1.));
#1446=DIRECTION('center_axis',(0.,1.,0.));
#1447=DIRECTION('ref_axis',(0.,0.,1.));
#1448=DIRECTION('center_axis',(0.,1.,0.));
#1449=DIRECTION('ref_axis',(0.,0.,1.));
#1450=DIRECTION('',(8.65956056235475E-17,-0.707106781186562,0.707106781186533));
#1451=DIRECTION('center_axis',(0.,-1.,0.));
#1452=DIRECTION('ref_axis',(0.,0.,1.));
#1453=DIRECTION('center_axis',(0.,1.,0.));
#1454=DIRECTION('ref_axis',(0.,0.,1.));
#1455=DIRECTION('',(0.,1.,0.));
#1456=DIRECTION('center_axis',(0.,1.,0.));
#1457=DIRECTION('ref_axis',(0.,0.,1.));
#1458=DIRECTION('',(0.,1.,0.));
#1459=DIRECTION('center_axis',(0.,1.,0.));
#1460=DIRECTION('ref_axis',(0.,0.,1.));
#1461=DIRECTION('',(0.,1.,0.));
#1462=DIRECTION('center_axis',(0.,1.,0.));
#1463=DIRECTION('ref_axis',(0.,0.,1.));
#1464=DIRECTION('',(0.,1.,0.));
#1465=DIRECTION('center_axis',(0.,1.,0.));
#1466=DIRECTION('ref_axis',(0.,0.,1.));
#1467=DIRECTION('',(0.,1.,0.));
#1468=DIRECTION('center_axis',(0.,1.,0.));
#1469=DIRECTION('ref_axis',(0.,0.,1.));
#1470=DIRECTION('',(0.,1.,0.));
#1471=DIRECTION('center_axis',(0.,1.,0.));
#1472=DIRECTION('ref_axis',(0.,0.,1.));
#1473=DIRECTION('',(0.,1.,0.));
#1474=DIRECTION('center_axis',(0.,1.,0.));
#1475=DIRECTION('ref_axis',(0.,0.,1.));
#1476=DIRECTION('',(0.,1.,0.));
#1477=DIRECTION('center_axis',(0.,1.,0.));
#1478=DIRECTION('ref_axis',(0.,0.,1.));
#1479=DIRECTION('center_axis',(0.,-1.,0.));
#1480=DIRECTION('ref_axis',(0.,0.,-1.));
#1481=DIRECTION('',(-4.18853873767708E-17,0.939692620785906,-0.342020143325676));
#1482=DIRECTION('center_axis',(0.,-1.,0.));
#1483=DIRECTION('ref_axis',(0.,0.,-1.));
#1484=DIRECTION('center_axis',(0.,-1.,0.));
#1485=DIRECTION('ref_axis',(0.,0.,-1.));
#1486=DIRECTION('center_axis',(0.,-1.,0.));
#1487=DIRECTION('ref_axis',(0.,0.,-1.));
#1488=DIRECTION('center_axis',(0.,-1.,0.));
#1489=DIRECTION('ref_axis',(0.,0.,-1.));
#1490=DIRECTION('',(1.15079156022785E-16,0.342020143325674,-0.939692620785907));
#1491=DIRECTION('center_axis',(0.,-1.,0.));
#1492=DIRECTION('ref_axis',(0.,0.,-1.));
#1493=DIRECTION('center_axis',(0.,1.,0.));
#1494=DIRECTION('ref_axis',(0.,0.,-1.));
#1495=DIRECTION('',(-0.270619244774561,0.707051392424245,-0.653332650973899));
#1496=DIRECTION('center_axis',(0.,-1.,0.));
#1497=DIRECTION('ref_axis',(0.,0.,-1.));
#1498=DIRECTION('',(0.270619244774561,0.707051392424236,0.653332650973909));
#1499=DIRECTION('center_axis',(0.,-1.,0.));
#1500=DIRECTION('ref_axis',(0.,0.,-1.));
#1501=DIRECTION('center_axis',(0.,-1.,0.));
#1502=DIRECTION('ref_axis',(0.,0.,-1.));
#1503=DIRECTION('',(0.,1.,0.));
#1504=DIRECTION('center_axis',(0.,1.,0.));
#1505=DIRECTION('ref_axis',(0.,0.,-1.));
#1506=DIRECTION('',(0.,1.,0.));
#1507=DIRECTION('center_axis',(0.,-1.,0.));
#1508=DIRECTION('ref_axis',(0.,0.,-1.));
#1509=DIRECTION('',(0.,-1.,0.));
#1510=DIRECTION('center_axis',(0.,-1.,0.));
#1511=DIRECTION('ref_axis',(0.,0.,-1.));
#1512=DIRECTION('',(0.,1.,0.));
#1513=DIRECTION('center_axis',(0.,1.,0.));
#1514=DIRECTION('ref_axis',(0.,0.,-1.));
#1515=DIRECTION('',(0.,1.,0.));
#1516=DIRECTION('center_axis',(0.,-1.,0.));
#1517=DIRECTION('ref_axis',(0.,0.,-1.));
#1518=DIRECTION('',(0.,1.,0.));
#1519=DIRECTION('center_axis',(0.,-1.,0.));
#1520=DIRECTION('ref_axis',(0.,0.,-1.));
#1521=DIRECTION('',(0.,-1.,0.));
#1522=DIRECTION('center_axis',(0.,-1.,0.));
#1523=DIRECTION('ref_axis',(0.,0.,-1.));
#1524=DIRECTION('',(0.,-1.,0.));
#1525=DIRECTION('',(0.,-1.,0.));
#1526=DIRECTION('center_axis',(0.,-1.,0.));
#1527=DIRECTION('ref_axis',(0.,0.,-1.));
#1528=DIRECTION('',(0.,-1.,0.));
#1529=DIRECTION('center_axis',(0.,-1.,0.));
#1530=DIRECTION('ref_axis',(0.,0.,-1.));
#1531=DIRECTION('center_axis',(0.,-1.,0.));
#1532=DIRECTION('ref_axis',(0.,0.,-1.));
#1533=DIRECTION('',(-0.382683432365084,0.,-0.923879532511289));
#1534=DIRECTION('',(0.382683432365091,0.,0.923879532511287));
#1535=DIRECTION('center_axis',(0.,1.,0.));
#1536=DIRECTION('ref_axis',(0.,0.,-1.));
#1537=DIRECTION('center_axis',(0.,-1.,0.));
#1538=DIRECTION('ref_axis',(-0.923879532511288,0.,0.382683432365087));
#1539=DIRECTION('',(-0.270619244774561,0.707051392424244,-0.6533326509739));
#1540=DIRECTION('',(0.270619244774558,0.707051392424239,0.653332650973906));
#1541=DIRECTION('center_axis',(0.,-1.,0.));
#1542=DIRECTION('ref_axis',(0.,0.,-1.));
#1543=DIRECTION('',(-0.382683432365084,0.,-0.923879532511289));
#1544=DIRECTION('',(0.38268343236509,0.,0.923879532511287));
#1545=DIRECTION('center_axis',(0.,-1.,0.));
#1546=DIRECTION('ref_axis',(0.,0.,-1.));
#1547=DIRECTION('center_axis',(0.,1.,0.));
#1548=DIRECTION('ref_axis',(0.,0.,1.));
#1549=DIRECTION('center_axis',(0.,-1.,0.));
#1550=DIRECTION('ref_axis',(0.,0.,-1.));
#1551=DIRECTION('',(0.382683432365091,0.,0.923879532511287));
#1552=DIRECTION('',(0.38268343236509,0.,0.923879532511287));
#1553=DIRECTION('center_axis',(-0.923879532511287,0.,0.38268343236509));
#1554=DIRECTION('ref_axis',(0.38268343236509,0.,0.923879532511287));
#1555=DIRECTION('center_axis',(-0.923879532511287,0.,0.382683432365091));
#1556=DIRECTION('ref_axis',(0.382683432365091,0.,0.923879532511287));
#1557=DIRECTION('center_axis',(0.,-1.,0.));
#1558=DIRECTION('ref_axis',(-6.98296672221876E-15,0.,1.));
#1559=DIRECTION('',(-0.382683432365084,0.,-0.923879532511289));
#1560=DIRECTION('',(-0.382683432365084,0.,-0.923879532511289));
#1561=DIRECTION('center_axis',(0.923879532511289,0.,-0.382683432365084));
#1562=DIRECTION('ref_axis',(-0.382683432365084,0.,-0.923879532511289));
#1563=DIRECTION('center_axis',(0.923879532511289,0.,-0.382683432365084));
#1564=DIRECTION('ref_axis',(-0.382683432365084,0.,-0.923879532511289));
#1565=DIRECTION('center_axis',(0.,1.,0.));
#1566=DIRECTION('ref_axis',(0.,0.,1.));
#1567=CARTESIAN_POINT('',(0.,0.,0.));
#1568=CARTESIAN_POINT('Origin',(0.,-16.3,0.));
#1569=CARTESIAN_POINT('',(2.33295215237571E-15,-16.,-19.05));
#1570=CARTESIAN_POINT('',(-2.33295215237571E-15,-16.,19.05));
#1571=CARTESIAN_POINT('Origin',(0.,-16.,0.));
#1572=CARTESIAN_POINT('Origin',(0.,-16.,0.));
#1573=CARTESIAN_POINT('',(-2.36969155635013E-15,-16.3,19.35));
#1574=CARTESIAN_POINT('',(-2.36969155635013E-15,-16.3,19.35));
#1575=CARTESIAN_POINT('Origin',(0.,-16.3,0.));
#1576=CARTESIAN_POINT('Origin',(0.,-1.2,0.));
#1577=CARTESIAN_POINT('',(-2.33295215237571E-15,-1.50000000000003,-19.05));
#1578=CARTESIAN_POINT('Origin',(0.,-1.50000000000003,0.));
#1579=CARTESIAN_POINT('',(-2.36969155635013E-15,-1.2,-19.35));
#1580=CARTESIAN_POINT('',(-2.36969155635013E-15,-1.2,-19.35));
#1581=CARTESIAN_POINT('Origin',(0.,-1.2,0.));
#1582=CARTESIAN_POINT('Origin',(-25.4178456010731,-17.5,14.6750000000003));
#1583=CARTESIAN_POINT('',(-25.4178456010731,-5.5,17.1750000000003));
#1584=CARTESIAN_POINT('Origin',(-25.4178456010731,-5.5,14.6750000000003));
#1585=CARTESIAN_POINT('',(-25.4178456010731,-17.5,17.1750000000003));
#1586=CARTESIAN_POINT('',(-25.4178456010731,-17.5,17.1750000000003));
#1587=CARTESIAN_POINT('Origin',(-25.4178456010731,-17.5,14.6750000000003));
#1588=CARTESIAN_POINT('Origin',(-25.4178456010731,-5.5,14.6750000000003));
#1589=CARTESIAN_POINT('',(-25.4178456010731,-3.9978484524311,14.6750000000003));
#1590=CARTESIAN_POINT('',(-25.4178456010731,-5.5,17.1750000000003));
#1591=CARTESIAN_POINT('Origin',(-25.4178456010734,-17.5,-14.6749999999998));
#1592=CARTESIAN_POINT('',(-25.4178456010734,-5.5,-12.1749999999998));
#1593=CARTESIAN_POINT('Origin',(-25.4178456010734,-5.5,-14.6749999999998));
#1594=CARTESIAN_POINT('',(-25.4178456010734,-17.5,-12.1749999999998));
#1595=CARTESIAN_POINT('',(-25.4178456010734,-17.5,-12.1749999999998));
#1596=CARTESIAN_POINT('Origin',(-25.4178456010734,-17.5,-14.6749999999998));
#1597=CARTESIAN_POINT('Origin',(-25.4178456010734,-5.5,-14.6749999999998));
#1598=CARTESIAN_POINT('',(-25.4178456010734,-3.9978484524311,-14.6749999999998));
#1599=CARTESIAN_POINT('',(-25.4178456010734,-5.5,-12.1749999999998));
#1600=CARTESIAN_POINT('Origin',(3.59433835549748E-15,-17.5,-29.35));
#1601=CARTESIAN_POINT('',(3.28817665571064E-15,-5.5,-26.85));
#1602=CARTESIAN_POINT('Origin',(3.59433835549748E-15,-5.5,-29.35));
#1603=CARTESIAN_POINT('',(3.28817665571064E-15,-17.5,-26.85));
#1604=CARTESIAN_POINT('',(3.28817665571064E-15,-17.5,-26.85));
#1605=CARTESIAN_POINT('Origin',(3.59433835549748E-15,-17.5,-29.35));
#1606=CARTESIAN_POINT('Origin',(3.59433835549748E-15,-5.5,-29.35));
#1607=CARTESIAN_POINT('',(2.87265020630935E-16,-3.9978484524311,-29.35));
#1608=CARTESIAN_POINT('',(3.28817665571064E-15,-5.5,-26.85));
#1609=CARTESIAN_POINT('Origin',(25.4178456010732,-17.5,-14.6750000000001));
#1610=CARTESIAN_POINT('',(25.4178456010732,-5.5,-12.1750000000001));
#1611=CARTESIAN_POINT('Origin',(25.4178456010732,-5.5,-14.6750000000001));
#1612=CARTESIAN_POINT('',(25.4178456010732,-17.5,-12.1750000000001));
#1613=CARTESIAN_POINT('',(25.4178456010732,-17.5,-12.1750000000001));
#1614=CARTESIAN_POINT('Origin',(25.4178456010732,-17.5,-14.6750000000001));
#1615=CARTESIAN_POINT('Origin',(25.4178456010732,-5.5,-14.6750000000001));
#1616=CARTESIAN_POINT('',(25.4178456010732,-3.9978484524311,-14.6750000000001));
#1617=CARTESIAN_POINT('',(25.4178456010732,-5.5,-12.1750000000001));
#1618=CARTESIAN_POINT('Origin',(25.4178456010733,-17.5,14.6749999999999));
#1619=CARTESIAN_POINT('',(25.4178456010733,-5.5,17.1749999999999));
#1620=CARTESIAN_POINT('Origin',(25.4178456010733,-5.5,14.6749999999999));
#1621=CARTESIAN_POINT('',(25.4178456010733,-17.5,17.1749999999999));
#1622=CARTESIAN_POINT('',(25.4178456010733,-17.5,17.1749999999999));
#1623=CARTESIAN_POINT('Origin',(25.4178456010733,-17.5,14.6749999999999));
#1624=CARTESIAN_POINT('Origin',(25.4178456010733,-5.5,14.6749999999999));
#1625=CARTESIAN_POINT('',(25.4178456010733,-3.9978484524311,14.6749999999999));
#1626=CARTESIAN_POINT('',(25.4178456010733,-5.5,17.1749999999999));
#1627=CARTESIAN_POINT('Origin',(-3.59433835549748E-15,-17.5,29.35));
#1628=CARTESIAN_POINT('',(-3.90050005528432E-15,-5.5,31.85));
#1629=CARTESIAN_POINT('Origin',(-3.59433835549748E-15,-5.5,29.35));
#1630=CARTESIAN_POINT('',(-3.90050005528432E-15,-17.5,31.85));
#1631=CARTESIAN_POINT('',(-3.90050005528432E-15,-17.5,31.85));
#1632=CARTESIAN_POINT('Origin',(-3.59433835549748E-15,-17.5,29.35));
#1633=CARTESIAN_POINT('Origin',(-3.59433835549748E-15,-5.5,29.35));
#1634=CARTESIAN_POINT('',(-6.90141169036403E-15,-3.9978484524311,29.35));
#1635=CARTESIAN_POINT('',(-3.90050005528432E-15,-5.5,31.85));
#1636=CARTESIAN_POINT('Origin',(0.,-16.3,0.));
#1637=CARTESIAN_POINT('',(-2.53889094527096E-15,-16.3,20.7316178594403));
#1638=CARTESIAN_POINT('Origin',(0.,-16.3,0.));
#1639=CARTESIAN_POINT('',(-2.5656350442137E-15,-16.9,20.95));
#1640=CARTESIAN_POINT('',(-2.53889094527096E-15,-16.3,20.7316178594403));
#1641=CARTESIAN_POINT('',(2.76310934057622E-15,-16.9,-20.95));
#1642=CARTESIAN_POINT('Origin',(0.,-16.9,0.));
#1643=CARTESIAN_POINT('Origin',(0.,-16.9,0.));
#1644=CARTESIAN_POINT('Origin',(0.,-16.9,0.));
#1645=CARTESIAN_POINT('',(-2.96058363693873E-15,-15.7261959944915,-24.175));
#1646=CARTESIAN_POINT('Origin',(0.,-15.7261959944915,0.));
#1647=CARTESIAN_POINT('',(-2.5656350442137E-15,-16.9,-20.95));
#1648=CARTESIAN_POINT('Origin',(0.,8.34713668652933,0.));
#1649=CARTESIAN_POINT('',(-2.96058363693873E-15,-17.5,-24.175));
#1650=CARTESIAN_POINT('Origin',(0.,-17.5,0.));
#1651=CARTESIAN_POINT('',(-2.96058363693873E-15,8.34713668652933,-24.175));
#1652=CARTESIAN_POINT('Origin',(0.,8.34713668652933,0.));
#1653=CARTESIAN_POINT('',(-2.33295215237571E-15,8.34713668652933,-19.05));
#1654=CARTESIAN_POINT('Origin',(32.5622672736403,-17.5,32.5622672736407));
#1655=CARTESIAN_POINT('',(32.5622672736403,-17.1,28.3622672736407));
#1656=CARTESIAN_POINT('',(32.5622672736403,-17.1,36.7622672736407));
#1657=CARTESIAN_POINT('Origin',(32.5622672736403,-17.1,32.5622672736407));
#1658=CARTESIAN_POINT('Origin',(32.5622672736403,-17.1,32.5622672736407));
#1659=CARTESIAN_POINT('',(32.5622672736403,-17.5,37.1622672736407));
#1660=CARTESIAN_POINT('',(32.5622672736403,-17.5,37.1622672736407));
#1661=CARTESIAN_POINT('Origin',(32.5622672736403,-17.5,32.5622672736407));
#1662=CARTESIAN_POINT('Origin',(32.5622672736403,-0.399999999999977,32.5622672736407));
#1663=CARTESIAN_POINT('',(32.5622672736403,-0.399999999999977,28.3622672736407));
#1664=CARTESIAN_POINT('Origin',(32.5622672736403,-0.399999999999977,32.5622672736407));
#1665=CARTESIAN_POINT('',(32.5622672736403,2.77555756156289E-16,27.9622672736407));
#1666=CARTESIAN_POINT('',(32.5622672736403,-0.399999999999977,28.3622672736407));
#1667=CARTESIAN_POINT('Origin',(32.5622672736403,0.,32.5622672736407));
#1668=CARTESIAN_POINT('Origin',(-3.21565617558174E-13,-17.5,46.05));
#1669=CARTESIAN_POINT('',(-3.21051265902532E-13,-17.1,41.85));
#1670=CARTESIAN_POINT('',(-3.22079969213816E-13,-17.1,50.25));
#1671=CARTESIAN_POINT('Origin',(-3.21565617558174E-13,-17.1,46.05));
#1672=CARTESIAN_POINT('Origin',(-3.21565617558174E-13,-17.1,46.05));
#1673=CARTESIAN_POINT('',(-3.22128955085782E-13,-17.5,50.65));
#1674=CARTESIAN_POINT('',(-3.22128955085782E-13,-17.5,50.65));
#1675=CARTESIAN_POINT('Origin',(-3.21565617558174E-13,-17.5,46.05));
#1676=CARTESIAN_POINT('Origin',(-3.21565617558174E-13,-0.399999999999977,
46.05));
#1677=CARTESIAN_POINT('',(-3.22079969213816E-13,-0.399999999999978,41.85));
#1678=CARTESIAN_POINT('Origin',(-3.21565617558174E-13,-0.399999999999977,
46.05));
#1679=CARTESIAN_POINT('',(-3.22128955085782E-13,3.12250225675825E-15,41.45));
#1680=CARTESIAN_POINT('',(-3.22079969213816E-13,-0.399999999999977,41.85));
#1681=CARTESIAN_POINT('Origin',(-3.21565617558174E-13,0.,46.05));
#1682=CARTESIAN_POINT('Origin',(-32.5622672736408,-17.5,32.5622672736402));
#1683=CARTESIAN_POINT('',(-32.5622672736408,-17.1,28.3622672736402));
#1684=CARTESIAN_POINT('',(-32.5622672736408,-17.1,36.7622672736402));
#1685=CARTESIAN_POINT('Origin',(-32.5622672736408,-17.1,32.5622672736402));
#1686=CARTESIAN_POINT('Origin',(-32.5622672736408,-17.1,32.5622672736402));
#1687=CARTESIAN_POINT('',(-32.5622672736408,-17.5,37.1622672736402));
#1688=CARTESIAN_POINT('',(-32.5622672736408,-17.5,37.1622672736402));
#1689=CARTESIAN_POINT('Origin',(-32.5622672736408,-17.5,32.5622672736402));
#1690=CARTESIAN_POINT('Origin',(-32.5622672736408,-0.400000000000018,32.5622672736402));
#1691=CARTESIAN_POINT('',(-32.5622672736408,-0.400000000000019,28.3622672736402));
#1692=CARTESIAN_POINT('Origin',(-32.5622672736408,-0.400000000000018,32.5622672736402));
#1693=CARTESIAN_POINT('',(-32.5622672736408,9.0205620750794E-16,27.9622672736402));
#1694=CARTESIAN_POINT('',(-32.5622672736408,-0.400000000000018,28.3622672736402));
#1695=CARTESIAN_POINT('Origin',(-32.5622672736408,0.,32.5622672736402));
#1696=CARTESIAN_POINT('Origin',(-46.05,-17.5,-4.82348426337261E-13));
#1697=CARTESIAN_POINT('',(-46.05,-17.1,-4.20000000000048));
#1698=CARTESIAN_POINT('',(-46.05,-17.1,4.19999999999952));
#1699=CARTESIAN_POINT('Origin',(-46.05,-17.1,-4.82348426337261E-13));
#1700=CARTESIAN_POINT('Origin',(-46.05,-17.1,-4.82348426337261E-13));
#1701=CARTESIAN_POINT('',(-46.05,-17.5,4.59999999999955));
#1702=CARTESIAN_POINT('',(-46.05,-17.5,4.59999999999955));
#1703=CARTESIAN_POINT('Origin',(-46.05,-17.5,-4.82348426337261E-13));
#1704=CARTESIAN_POINT('Origin',(-46.05,-0.399999999999977,-4.82348426337261E-13));
#1705=CARTESIAN_POINT('',(-46.05,-0.399999999999977,-4.20000000000048));
#1706=CARTESIAN_POINT('Origin',(-46.05,-0.399999999999977,-4.82348426337261E-13));
#1707=CARTESIAN_POINT('',(-46.05,3.12250225675825E-15,-4.60000000000046));
#1708=CARTESIAN_POINT('',(-46.05,-0.399999999999977,-4.20000000000048));
#1709=CARTESIAN_POINT('Origin',(-46.05,0.,-4.82348426337261E-13));
#1710=CARTESIAN_POINT('Origin',(-32.5622672736401,-17.5,-32.5622672736409));
#1711=CARTESIAN_POINT('',(-32.5622672736401,-17.1,-36.7622672736409));
#1712=CARTESIAN_POINT('',(-32.5622672736401,-17.1,-28.3622672736409));
#1713=CARTESIAN_POINT('Origin',(-32.5622672736401,-17.1,-32.5622672736409));
#1714=CARTESIAN_POINT('Origin',(-32.5622672736401,-17.1,-32.5622672736409));
#1715=CARTESIAN_POINT('',(-32.5622672736401,-17.5,-27.9622672736409));
#1716=CARTESIAN_POINT('',(-32.5622672736401,-17.5,-27.9622672736409));
#1717=CARTESIAN_POINT('Origin',(-32.5622672736401,-17.5,-32.5622672736409));
#1718=CARTESIAN_POINT('Origin',(-32.5622672736401,-0.399999999999977,-32.5622672736409));
#1719=CARTESIAN_POINT('',(-32.5622672736401,-0.399999999999977,-36.7622672736409));
#1720=CARTESIAN_POINT('Origin',(-32.5622672736401,-0.399999999999977,-32.5622672736409));
#1721=CARTESIAN_POINT('',(-32.5622672736401,-1.38777878078145E-16,-37.1622672736409));
#1722=CARTESIAN_POINT('',(-32.5622672736401,-0.399999999999977,-36.7622672736409));
#1723=CARTESIAN_POINT('Origin',(-32.5622672736401,0.,-32.5622672736409));
#1724=CARTESIAN_POINT('Origin',(0.,-17.5,-46.05));
#1725=CARTESIAN_POINT('',(5.14351655641889E-16,-17.1,-50.25));
#1726=CARTESIAN_POINT('',(-5.14351655641889E-16,-17.1,-41.85));
#1727=CARTESIAN_POINT('Origin',(0.,-17.1,-46.05));
#1728=CARTESIAN_POINT('Origin',(0.,-17.1,-46.05));
#1729=CARTESIAN_POINT('',(-5.63337527607787E-16,-17.5,-41.45));
#1730=CARTESIAN_POINT('',(-5.63337527607787E-16,-17.5,-41.45));
#1731=CARTESIAN_POINT('Origin',(0.,-17.5,-46.05));
#1732=CARTESIAN_POINT('Origin',(0.,-0.399999999999977,-46.05));
#1733=CARTESIAN_POINT('',(-5.14351655641888E-16,-0.399999999999978,-50.25));
#1734=CARTESIAN_POINT('Origin',(0.,-0.399999999999977,-46.05));
#1735=CARTESIAN_POINT('',(-5.6333752760778E-16,3.12250225675825E-15,-50.65));
#1736=CARTESIAN_POINT('',(-5.14351655641889E-16,-0.399999999999977,-50.25));
#1737=CARTESIAN_POINT('Origin',(0.,0.,-46.05));
#1738=CARTESIAN_POINT('Origin',(32.5622672736406,-17.5,-32.5622672736405));
#1739=CARTESIAN_POINT('',(32.5622672736406,-17.1,-36.7622672736405));
#1740=CARTESIAN_POINT('',(32.5622672736406,-17.1,-28.3622672736404));
#1741=CARTESIAN_POINT('Origin',(32.5622672736406,-17.1,-32.5622672736405));
#1742=CARTESIAN_POINT('Origin',(32.5622672736406,-17.1,-32.5622672736405));
#1743=CARTESIAN_POINT('',(32.5622672736406,-17.5,-27.9622672736404));
#1744=CARTESIAN_POINT('',(32.5622672736406,-17.5,-27.9622672736404));
#1745=CARTESIAN_POINT('Origin',(32.5622672736406,-17.5,-32.5622672736405));
#1746=CARTESIAN_POINT('Origin',(32.5622672736406,-0.399999999999991,-32.5622672736405));
#1747=CARTESIAN_POINT('',(32.5622672736406,-0.399999999999991,-36.7622672736405));
#1748=CARTESIAN_POINT('Origin',(32.5622672736406,-0.399999999999991,-32.5622672736405));
#1749=CARTESIAN_POINT('',(32.5622672736406,1.45716771982052E-15,-37.1622672736405));
#1750=CARTESIAN_POINT('',(32.5622672736406,-0.399999999999991,-36.7622672736405));
#1751=CARTESIAN_POINT('Origin',(32.5622672736406,0.,-32.5622672736405));
#1752=CARTESIAN_POINT('Origin',(46.05,-17.5,1.60782808779087E-13));
#1753=CARTESIAN_POINT('',(46.05,-17.1,-4.19999999999984));
#1754=CARTESIAN_POINT('',(46.05,-17.1,4.20000000000016));
#1755=CARTESIAN_POINT('Origin',(46.05,-17.1,1.60782808779087E-13));
#1756=CARTESIAN_POINT('Origin',(46.05,-17.1,1.60782808779087E-13));
#1757=CARTESIAN_POINT('',(46.05,-17.5,4.6000000000002));
#1758=CARTESIAN_POINT('',(46.05,-17.5,4.6000000000002));
#1759=CARTESIAN_POINT('Origin',(46.05,-17.5,1.60782808779087E-13));
#1760=CARTESIAN_POINT('Origin',(46.05,-0.399999999999977,1.60782808779087E-13));
#1761=CARTESIAN_POINT('',(46.05,-0.399999999999977,-4.19999999999984));
#1762=CARTESIAN_POINT('Origin',(46.05,-0.399999999999977,1.60782808779087E-13));
#1763=CARTESIAN_POINT('',(46.05,3.12250225675825E-15,-4.59999999999982));
#1764=CARTESIAN_POINT('',(46.05,-0.399999999999977,-4.19999999999984));
#1765=CARTESIAN_POINT('Origin',(46.05,0.,1.60782808779087E-13));
#1766=CARTESIAN_POINT('Origin',(0.,-17.5,0.));
#1767=CARTESIAN_POINT('',(6.94987058516123E-15,-17.,56.75));
#1768=CARTESIAN_POINT('',(-6.94987058516123E-15,-17.,-56.75));
#1769=CARTESIAN_POINT('Origin',(0.,-17.,0.));
#1770=CARTESIAN_POINT('Origin',(0.,-17.,0.));
#1771=CARTESIAN_POINT('',(-6.88863824520386E-15,-17.5,-56.25));
#1772=CARTESIAN_POINT('',(-6.88863824520386E-15,-17.5,-56.25));
#1773=CARTESIAN_POINT('Origin',(0.,-17.5,0.));
#1774=CARTESIAN_POINT('Origin',(-32.5622672736401,-17.5,-32.5622672736409));
#1775=CARTESIAN_POINT('',(-32.5622672736401,-17.5,-36.7622672736409));
#1776=CARTESIAN_POINT('Origin',(-46.05,-17.5,-4.82348426337261E-13));
#1777=CARTESIAN_POINT('',(-46.05,-17.5,-4.20000000000048));
#1778=CARTESIAN_POINT('Origin',(-32.5622672736408,-17.5,32.5622672736402));
#1779=CARTESIAN_POINT('',(-32.5622672736408,-17.5,28.3622672736402));
#1780=CARTESIAN_POINT('Origin',(-3.21565617558174E-13,-17.5,46.05));
#1781=CARTESIAN_POINT('',(-3.22079969213816E-13,-17.5,41.85));
#1782=CARTESIAN_POINT('Origin',(32.5622672736403,-17.5,32.5622672736407));
#1783=CARTESIAN_POINT('',(32.5622672736403,-17.5,28.3622672736407));
#1784=CARTESIAN_POINT('Origin',(46.05,-17.5,1.60782808779087E-13));
#1785=CARTESIAN_POINT('',(46.05,-17.5,-4.19999999999984));
#1786=CARTESIAN_POINT('Origin',(32.5622672736406,-17.5,-32.5622672736405));
#1787=CARTESIAN_POINT('',(32.5622672736406,-17.5,-36.7622672736405));
#1788=CARTESIAN_POINT('Origin',(0.,-17.5,-46.05));
#1789=CARTESIAN_POINT('',(-5.14351655641889E-16,-17.5,-50.25));
#1790=CARTESIAN_POINT('Origin',(0.,-1.2,0.));
#1791=CARTESIAN_POINT('',(-4.70039254576604E-15,-1.2,-38.3816178594403));
#1792=CARTESIAN_POINT('Origin',(0.,-1.2,0.));
#1793=CARTESIAN_POINT('',(-4.72713664470878E-15,-0.599999999999999,-38.6));
#1794=CARTESIAN_POINT('',(-4.70039254576604E-15,-1.2,-38.3816178594403));
#1795=CARTESIAN_POINT('',(4.89093315409474E-15,-0.6,38.6));
#1796=CARTESIAN_POINT('Origin',(0.,-0.6,0.));
#1797=CARTESIAN_POINT('Origin',(0.,-0.6,0.));
#1798=CARTESIAN_POINT('Origin',(0.,-0.6,0.));
#1799=CARTESIAN_POINT('',(-5.0547296634807E-15,-1.57362037666211,41.275));
#1800=CARTESIAN_POINT('Origin',(0.,-1.57362037666211,0.));
#1801=CARTESIAN_POINT('',(-4.72713664470878E-15,-0.6,38.6));
#1802=CARTESIAN_POINT('Origin',(0.,-0.499999999999973,0.));
#1803=CARTESIAN_POINT('',(22.4464207037241,0.,51.5773273599111));
#1804=CARTESIAN_POINT('',(-20.5986616387018,0.,-52.3426942246411));
#1805=CARTESIAN_POINT('Origin',(0.,0.,0.));
#1806=CARTESIAN_POINT('',(22.637792397263,-0.499999999999973,52.039339497907));
#1807=CARTESIAN_POINT('',(22.637792397263,-0.499999999999973,52.039339497907));
#1808=CARTESIAN_POINT('',(-20.7900333322408,-0.499999999999977,-52.804706362637));
#1809=CARTESIAN_POINT('Origin',(0.,-0.499999999999973,0.));
#1810=CARTESIAN_POINT('',(-20.7900333322408,-0.499999999999977,-52.804706362637));
#1811=CARTESIAN_POINT('Origin',(0.,-24.5739145046165,0.));
#1812=CARTESIAN_POINT('',(-14.8667426803801,0.,-38.5046177370373));
#1813=CARTESIAN_POINT('',(16.7145017454024,0.,37.7392508723072));
#1814=CARTESIAN_POINT('Origin',(0.,0.,0.));
#1815=CARTESIAN_POINT('',(-14.8667426803801,-0.999999999999998,-38.5046177370373));
#1816=CARTESIAN_POINT('',(-14.8667426803801,-24.5739145046165,-38.5046177370373));
#1817=CARTESIAN_POINT('',(-16.7145017454027,-0.999999999999998,-37.7392508723071));
#1818=CARTESIAN_POINT('Origin',(0.,-0.999999999999998,0.));
#1819=CARTESIAN_POINT('',(-16.7145017454027,0.,-37.7392508723071));
#1820=CARTESIAN_POINT('',(-16.7145017454027,-24.5739145046165,-37.7392508723071));
#1821=CARTESIAN_POINT('',(-5.0547296634807E-15,0.,41.275));
#1822=CARTESIAN_POINT('Origin',(0.,0.,0.));
#1823=CARTESIAN_POINT('',(-5.0547296634807E-15,-24.5739145046165,41.275));
#1824=CARTESIAN_POINT('',(14.8667426803798,0.,38.5046177370374));
#1825=CARTESIAN_POINT('Origin',(0.,0.,0.));
#1826=CARTESIAN_POINT('',(14.8667426803798,-0.999999999999998,38.5046177370374));
#1827=CARTESIAN_POINT('',(14.8667426803798,-24.5739145046165,38.5046177370374));
#1828=CARTESIAN_POINT('',(16.7145017454024,-0.999999999999998,37.7392508723072));
#1829=CARTESIAN_POINT('Origin',(0.,-0.999999999999998,0.));
#1830=CARTESIAN_POINT('',(16.7145017454024,-24.5739145046165,37.7392508723072));
#1831=CARTESIAN_POINT('Origin',(0.,-24.5739145046165,0.));
#1832=CARTESIAN_POINT('',(-6.94987058516123E-15,-0.499999999999972,56.75));
#1833=CARTESIAN_POINT('',(-6.94987058516123E-15,-24.5739145046165,56.75));
#1834=CARTESIAN_POINT('',(-22.6377923972633,-0.499999999999973,-52.0393394979068));
#1835=CARTESIAN_POINT('Origin',(0.,-0.499999999999973,0.));
#1836=CARTESIAN_POINT('',(-22.6377923972633,-0.999999999999998,-52.0393394979068));
#1837=CARTESIAN_POINT('',(-22.6377923972633,-24.5739145046165,-52.0393394979068));
#1838=CARTESIAN_POINT('',(-20.7900333322408,-0.999999999999998,-52.804706362637));
#1839=CARTESIAN_POINT('Origin',(0.,-0.999999999999998,0.));
#1840=CARTESIAN_POINT('',(-20.7900333322408,-24.5739145046165,-52.804706362637));
#1841=CARTESIAN_POINT('',(22.637792397263,-0.999999999999998,52.039339497907));
#1842=CARTESIAN_POINT('',(22.637792397263,-24.5739145046165,52.039339497907));
#1843=CARTESIAN_POINT('',(20.7900333322404,-0.999999999999998,52.8047063626372));
#1844=CARTESIAN_POINT('Origin',(0.,-0.999999999999998,0.));
#1845=CARTESIAN_POINT('',(20.7900333322404,-0.499999999999971,52.8047063626372));
#1846=CARTESIAN_POINT('',(20.7900333322404,-24.5739145046165,52.8047063626372));
#1847=CARTESIAN_POINT('Origin',(0.,-0.499999999999973,0.));
#1848=CARTESIAN_POINT('Origin',(-56.75,0.,0.));
#1849=CARTESIAN_POINT('',(20.5986616387015,0.,52.3426942246412));
#1850=CARTESIAN_POINT('',(21.1911792617209,0.,53.7731583060798));
#1851=CARTESIAN_POINT('',(-22.4464207037244,0.,-51.5773273599109));
#1852=CARTESIAN_POINT('',(-23.0389383267439,0.,-53.0077914413495));
#1853=CARTESIAN_POINT('Origin',(0.,0.,0.));
#1854=CARTESIAN_POINT('Origin',(0.,-0.499999999999973,0.));
#1855=CARTESIAN_POINT('',(20.7900333322404,-0.499999999999971,52.8047063626372));
#1856=CARTESIAN_POINT('',(-22.6377923972633,-0.499999999999973,-52.0393394979068));
#1857=CARTESIAN_POINT('Origin',(-56.75,0.,0.));
#1858=CARTESIAN_POINT('',(23.0389383267435,0.,53.0077914413496));
#1859=CARTESIAN_POINT('',(-21.1911792617213,0.,-53.7731583060797));
#1860=CARTESIAN_POINT('Origin',(-38.3816178594403,-1.2,0.));
#1861=CARTESIAN_POINT('Origin',(0.,-17.5,0.));
#1862=CARTESIAN_POINT('Origin',(-21.1911792617213,-0.999999999999997,-53.7731583060797));
#1863=CARTESIAN_POINT('',(-23.0389383267439,-0.999999999999997,-53.0077914413495));
#1864=CARTESIAN_POINT('',(-21.1911792617213,-0.999999999999997,-53.7731583060797));
#1865=CARTESIAN_POINT('Origin',(-21.1911792617213,-0.999999999999997,-53.7731583060797));
#1866=CARTESIAN_POINT('Origin',(-23.0389383267439,-0.999999999999997,-53.0077914413495));
#1867=CARTESIAN_POINT('Origin',(21.1911792617209,-0.999999999999997,53.7731583060798));
#1868=CARTESIAN_POINT('',(23.0389383267435,-0.999999999999997,53.0077914413496));
#1869=CARTESIAN_POINT('',(21.1911792617209,-0.999999999999997,53.7731583060798));
#1870=CARTESIAN_POINT('Origin',(21.1911792617209,-0.999999999999997,53.7731583060798));
#1871=CARTESIAN_POINT('Origin',(23.0389383267435,-0.999999999999997,53.0077914413496));
#1872=CARTESIAN_POINT('Origin',(-20.7316178594403,-16.3,0.));
#1873=UNCERTAINTY_MEASURE_WITH_UNIT(LENGTH_MEASURE(0.01),#1877,
'DISTANCE_ACCURACY_VALUE',
'Maximum model space distance between geometric entities at asserted c
onnectivities');
#1874=UNCERTAINTY_MEASURE_WITH_UNIT(LENGTH_MEASURE(0.01),#1877,
'DISTANCE_ACCURACY_VALUE',
'Maximum model space distance between geometric entities at asserted c
onnectivities');
#1875=(
GEOMETRIC_REPRESENTATION_CONTEXT(3)
GLOBAL_UNCERTAINTY_ASSIGNED_CONTEXT((#1873))
GLOBAL_UNIT_ASSIGNED_CONTEXT((#1877,#1879,#1880))
REPRESENTATION_CONTEXT('','3D')
);
#1876=(
GEOMETRIC_REPRESENTATION_CONTEXT(3)
GLOBAL_UNCERTAINTY_ASSIGNED_CONTEXT((#1874))
GLOBAL_UNIT_ASSIGNED_CONTEXT((#1877,#1879,#1880))
REPRESENTATION_CONTEXT('','3D')
);
#1877=(
LENGTH_UNIT()
NAMED_UNIT(*)
SI_UNIT(.MILLI.,.METRE.)
);
#1878=(
LENGTH_UNIT()
NAMED_UNIT(*)
SI_UNIT($,.METRE.)
);
#1879=(
NAMED_UNIT(*)
PLANE_ANGLE_UNIT()
SI_UNIT($,.RADIAN.)
);
#1880=(
NAMED_UNIT(*)
SI_UNIT($,.STERADIAN.)
SOLID_ANGLE_UNIT()
);
#1881=SHAPE_DEFINITION_REPRESENTATION(#1882,#1883);
#1882=PRODUCT_DEFINITION_SHAPE('',$,#1885);
#1883=SHAPE_REPRESENTATION('',(#1074),#1875);
#1884=PRODUCT_DEFINITION_CONTEXT('part definition',#1889,'design');
#1885=PRODUCT_DEFINITION('Hositrad_CFA63-38D','Hositrad_CFA63-38D v1',#1886,
#1884);
#1886=PRODUCT_DEFINITION_FORMATION('',$,#1891);
#1887=PRODUCT_RELATED_PRODUCT_CATEGORY('Hositrad_CFA63-38D v1',
'Hositrad_CFA63-38D v1',(#1891));
#1888=APPLICATION_PROTOCOL_DEFINITION('international standard',
'automotive_design',2009,#1889);
#1889=APPLICATION_CONTEXT(
'Core Data for Automotive Mechanical Design Process');
#1890=PRODUCT_CONTEXT('part definition',#1889,'mechanical');
#1891=PRODUCT('Hositrad_CFA63-38D','Hositrad_CFA63-38D v1',$,(#1890));
#1892=PRESENTATION_STYLE_ASSIGNMENT((#1894));
#1893=PRESENTATION_STYLE_ASSIGNMENT((#1895));
#1894=SURFACE_STYLE_USAGE(.BOTH.,#1896);
#1895=SURFACE_STYLE_USAGE(.BOTH.,#1897);
#1896=SURFACE_SIDE_STYLE('',(#1898));
#1897=SURFACE_SIDE_STYLE('',(#1899));
#1898=SURFACE_STYLE_FILL_AREA(#1900);
#1899=SURFACE_STYLE_FILL_AREA(#1901);
#1900=FILL_AREA_STYLE('Steel - Satin',(#1902));
#1901=FILL_AREA_STYLE('Opaque(165,158,150)',(#1903));
#1902=FILL_AREA_STYLE_COLOUR('Steel - Satin',#1904);
#1903=FILL_AREA_STYLE_COLOUR('Opaque(165,158,150)',#1905);
#1904=COLOUR_RGB('Steel - Satin',0.627450980392157,0.627450980392157,0.627450980392157);
#1905=COLOUR_RGB('Opaque(165,158,150)',0.647058823529412,0.619607843137255,
0.588235294117647);
ENDSEC;
END-ISO-10303-21;
