ISO-10303-21;
HEADER;
/* Generated by software containing ST-Developer
 * from STEP Tools, Inc. (www.steptools.com) 
 */

FILE_DESCRIPTION(
/* description */ (''),
/* implementation_level */ '2;1');

FILE_NAME(
/* name */ 'Hositrad_FO16-19T-HalfNipple v2.step',
/* time_stamp */ '2024-06-25T14:17:22+02:00',
/* author */ (''),
/* organization */ (''),
/* preprocessor_version */ 'ST-DEVELOPER v20',
/* originating_system */ 'Autodesk Translation Framework v13.14.0.145',

/* authorisation */ '');

FILE_SCHEMA (('AUTOMOTIVE_DESIGN { 1 0 10303 214 3 1 1 }'));
ENDSEC;

DATA;
#10=MECHANICAL_DESIGN_GEOMETRIC_PRESENTATION_REPRESENTATION('',(#49,#50,
#51,#52,#53,#54,#55,#56),#1114);
#11=ITEM_DEFINED_TRANSFORMATION($,$,#635,#723);
#12=ITEM_DEFINED_TRANSFORMATION($,$,#714,#724);
#13=(
REPRESENTATION_RELATIONSHIP($,$,#1128,#1127)
REPRESENTATION_RELATIONSHIP_WITH_TRANSFORMATION(#11)
SHAPE_REPRESENTATION_RELATIONSHIP()
);
#14=(
REPRESENTATION_RELATIONSHIP($,$,#1129,#1127)
REPRESENTATION_RELATIONSHIP_WITH_TRANSFORMATION(#12)
SHAPE_REPRESENTATION_RELATIONSHIP()
);
#15=CONTEXT_DEPENDENT_SHAPE_REPRESENTATION(#13,#1125);
#16=CONTEXT_DEPENDENT_SHAPE_REPRESENTATION(#14,#1126);
#17=NEXT_ASSEMBLY_USAGE_OCCURRENCE('NW16CF-Weld-Tapped:1',
'NW16CF-Weld-Tapped:1','NW16CF-Weld-Tapped:1',#1131,#1132,
'NW16CF-Weld-Tapped:1');
#18=NEXT_ASSEMBLY_USAGE_OCCURRENCE('Tube 19-All_Tube 19L33,4:1',
'Tube 19-All_Tube 19L33,4:1','Tube 19-All_Tube 19L33,4:1',#1131,#1133,
'Tube 19-All_Tube 19L33,4:1');
#19=SHAPE_REPRESENTATION_RELATIONSHIP('SRR','None',#1128,#21);
#20=SHAPE_REPRESENTATION_RELATIONSHIP('SRR','None',#1129,#22);
#21=ADVANCED_BREP_SHAPE_REPRESENTATION('',(#23),#1112);
#22=ADVANCED_BREP_SHAPE_REPRESENTATION('',(#24),#1113);
#23=MANIFOLD_SOLID_BREP('Body1',#609);
#24=MANIFOLD_SOLID_BREP('Body1',#610);
#25=FACE_BOUND('',#132,.T.);
#26=FACE_BOUND('',#133,.T.);
#27=FACE_BOUND('',#134,.T.);
#28=FACE_BOUND('',#135,.T.);
#29=FACE_BOUND('',#136,.T.);
#30=FACE_BOUND('',#137,.T.);
#31=FACE_BOUND('',#138,.T.);
#32=FACE_BOUND('',#140,.T.);
#33=FACE_BOUND('',#141,.T.);
#34=FACE_BOUND('',#142,.T.);
#35=FACE_BOUND('',#143,.T.);
#36=FACE_BOUND('',#144,.T.);
#37=FACE_BOUND('',#145,.T.);
#38=FACE_BOUND('',#146,.T.);
#39=FACE_BOUND('',#148,.T.);
#40=FACE_BOUND('',#150,.T.);
#41=FACE_BOUND('',#154,.T.);
#42=FACE_BOUND('',#156,.T.);
#43=PLANE('',#710);
#44=PLANE('',#711);
#45=PLANE('',#712);
#46=PLANE('',#713);
#47=PLANE('',#721);
#48=PLANE('',#722);
#49=STYLED_ITEM('',(#1148),#589);
#50=STYLED_ITEM('',(#1148),#590);
#51=STYLED_ITEM('',(#1148),#591);
#52=STYLED_ITEM('',(#1148),#592);
#53=STYLED_ITEM('',(#1148),#593);
#54=STYLED_ITEM('',(#1148),#594);
#55=STYLED_ITEM('',(#1147),#23);
#56=STYLED_ITEM('',(#1149),#24);
#57=CYLINDRICAL_SURFACE('',#640,9.65);
#58=CYLINDRICAL_SURFACE('',#642,8.2);
#59=CYLINDRICAL_SURFACE('',#687,1.64999999999999);
#60=CYLINDRICAL_SURFACE('',#688,1.64999999999999);
#61=CYLINDRICAL_SURFACE('',#689,1.64999999999999);
#62=CYLINDRICAL_SURFACE('',#690,1.64999999999999);
#63=CYLINDRICAL_SURFACE('',#691,1.64999999999999);
#64=CYLINDRICAL_SURFACE('',#692,1.64999999999999);
#65=CYLINDRICAL_SURFACE('',#707,10.75);
#66=CYLINDRICAL_SURFACE('',#709,17.);
#67=CYLINDRICAL_SURFACE('',#715,7.875);
#68=CYLINDRICAL_SURFACE('',#718,9.525);
#69=FACE_OUTER_BOUND('',#104,.T.);
#70=FACE_OUTER_BOUND('',#105,.T.);
#71=FACE_OUTER_BOUND('',#106,.T.);
#72=FACE_OUTER_BOUND('',#107,.T.);
#73=FACE_OUTER_BOUND('',#108,.T.);
#74=FACE_OUTER_BOUND('',#109,.T.);
#75=FACE_OUTER_BOUND('',#110,.T.);
#76=FACE_OUTER_BOUND('',#111,.T.);
#77=FACE_OUTER_BOUND('',#112,.T.);
#78=FACE_OUTER_BOUND('',#113,.T.);
#79=FACE_OUTER_BOUND('',#114,.T.);
#80=FACE_OUTER_BOUND('',#115,.T.);
#81=FACE_OUTER_BOUND('',#116,.T.);
#82=FACE_OUTER_BOUND('',#117,.T.);
#83=FACE_OUTER_BOUND('',#118,.T.);
#84=FACE_OUTER_BOUND('',#119,.T.);
#85=FACE_OUTER_BOUND('',#120,.T.);
#86=FACE_OUTER_BOUND('',#121,.T.);
#87=FACE_OUTER_BOUND('',#122,.T.);
#88=FACE_OUTER_BOUND('',#123,.T.);
#89=FACE_OUTER_BOUND('',#124,.T.);
#90=FACE_OUTER_BOUND('',#125,.T.);
#91=FACE_OUTER_BOUND('',#126,.T.);
#92=FACE_OUTER_BOUND('',#127,.T.);
#93=FACE_OUTER_BOUND('',#128,.T.);
#94=FACE_OUTER_BOUND('',#129,.T.);
#95=FACE_OUTER_BOUND('',#130,.T.);
#96=FACE_OUTER_BOUND('',#131,.T.);
#97=FACE_OUTER_BOUND('',#139,.T.);
#98=FACE_OUTER_BOUND('',#147,.T.);
#99=FACE_OUTER_BOUND('',#149,.T.);
#100=FACE_OUTER_BOUND('',#151,.T.);
#101=FACE_OUTER_BOUND('',#152,.T.);
#102=FACE_OUTER_BOUND('',#153,.T.);
#103=FACE_OUTER_BOUND('',#155,.T.);
#104=EDGE_LOOP('',(#397,#398,#399,#400,#401));
#105=EDGE_LOOP('',(#402,#403,#404,#405,#406));
#106=EDGE_LOOP('',(#407,#408,#409,#410));
#107=EDGE_LOOP('',(#411,#412,#413,#414,#415));
#108=EDGE_LOOP('',(#416,#417,#418,#419));
#109=EDGE_LOOP('',(#420,#421,#422,#423,#424));
#110=EDGE_LOOP('',(#425,#426,#427,#428));
#111=EDGE_LOOP('',(#429,#430,#431,#432,#433));
#112=EDGE_LOOP('',(#434,#435,#436,#437));
#113=EDGE_LOOP('',(#438,#439,#440,#441,#442));
#114=EDGE_LOOP('',(#443,#444,#445,#446));
#115=EDGE_LOOP('',(#447,#448,#449,#450,#451));
#116=EDGE_LOOP('',(#452,#453,#454,#455));
#117=EDGE_LOOP('',(#456,#457,#458,#459,#460));
#118=EDGE_LOOP('',(#461,#462,#463,#464));
#119=EDGE_LOOP('',(#465,#466,#467,#468,#469));
#120=EDGE_LOOP('',(#470,#471,#472,#473,#474));
#121=EDGE_LOOP('',(#475,#476,#477,#478,#479));
#122=EDGE_LOOP('',(#480,#481,#482,#483,#484));
#123=EDGE_LOOP('',(#485,#486,#487,#488,#489));
#124=EDGE_LOOP('',(#490,#491,#492,#493,#494));
#125=EDGE_LOOP('',(#495,#496,#497,#498));
#126=EDGE_LOOP('',(#499,#500,#501,#502,#503));
#127=EDGE_LOOP('',(#504,#505,#506,#507,#508));
#128=EDGE_LOOP('',(#509,#510,#511,#512,#513,#514));
#129=EDGE_LOOP('',(#515,#516,#517,#518,#519));
#130=EDGE_LOOP('',(#520,#521,#522,#523,#524));
#131=EDGE_LOOP('',(#525));
#132=EDGE_LOOP('',(#526));
#133=EDGE_LOOP('',(#527));
#134=EDGE_LOOP('',(#528));
#135=EDGE_LOOP('',(#529));
#136=EDGE_LOOP('',(#530));
#137=EDGE_LOOP('',(#531));
#138=EDGE_LOOP('',(#532));
#139=EDGE_LOOP('',(#533));
#140=EDGE_LOOP('',(#534));
#141=EDGE_LOOP('',(#535));
#142=EDGE_LOOP('',(#536));
#143=EDGE_LOOP('',(#537));
#144=EDGE_LOOP('',(#538));
#145=EDGE_LOOP('',(#539));
#146=EDGE_LOOP('',(#540));
#147=EDGE_LOOP('',(#541));
#148=EDGE_LOOP('',(#542));
#149=EDGE_LOOP('',(#543));
#150=EDGE_LOOP('',(#544));
#151=EDGE_LOOP('',(#545,#546,#547,#548));
#152=EDGE_LOOP('',(#549,#550,#551,#552));
#153=EDGE_LOOP('',(#553));
#154=EDGE_LOOP('',(#554));
#155=EDGE_LOOP('',(#555));
#156=EDGE_LOOP('',(#556));
#157=LINE('',#944,#186);
#158=LINE('',#948,#187);
#159=LINE('',#954,#188);
#160=LINE('',#962,#189);
#161=LINE('',#968,#190);
#162=LINE('',#976,#191);
#163=LINE('',#982,#192);
#164=LINE('',#990,#193);
#165=LINE('',#996,#194);
#166=LINE('',#1004,#195);
#167=LINE('',#1010,#196);
#168=LINE('',#1018,#197);
#169=LINE('',#1024,#198);
#170=LINE('',#1032,#199);
#171=LINE('',#1038,#200);
#172=LINE('',#1041,#201);
#173=LINE('',#1043,#202);
#174=LINE('',#1045,#203);
#175=LINE('',#1047,#204);
#176=LINE('',#1049,#205);
#177=LINE('',#1051,#206);
#178=LINE('',#1056,#207);
#179=LINE('',#1064,#208);
#180=LINE('',#1070,#209);
#181=LINE('',#1078,#210);
#182=LINE('',#1082,#211);
#183=LINE('',#1085,#212);
#184=LINE('',#1095,#213);
#185=LINE('',#1101,#214);
#186=VECTOR('',#735,9.95);
#187=VECTOR('',#740,9.65);
#188=VECTOR('',#747,8.2);
#189=VECTOR('',#756,1.95000000000001);
#190=VECTOR('',#763,1.64999999999999);
#191=VECTOR('',#772,1.95);
#192=VECTOR('',#779,1.64999999999999);
#193=VECTOR('',#788,1.94999999999999);
#194=VECTOR('',#795,1.64999999999999);
#195=VECTOR('',#804,1.95000000000001);
#196=VECTOR('',#811,1.64999999999999);
#197=VECTOR('',#820,1.95);
#198=VECTOR('',#827,1.64999999999999);
#199=VECTOR('',#836,1.95);
#200=VECTOR('',#843,1.64999999999999);
#201=VECTOR('',#848,1.64999999999999);
#202=VECTOR('',#851,1.64999999999999);
#203=VECTOR('',#854,1.64999999999999);
#204=VECTOR('',#857,1.64999999999999);
#205=VECTOR('',#860,1.64999999999999);
#206=VECTOR('',#863,1.64999999999999);
#207=VECTOR('',#868,17.);
#208=VECTOR('',#877,16.6);
#209=VECTOR('',#884,8.93161785944027);
#210=VECTOR('',#893,9.15);
#211=VECTOR('',#898,10.75);
#212=VECTOR('',#903,17.);
#213=VECTOR('',#918,7.875);
#214=VECTOR('',#925,9.525);
#215=CIRCLE('',#637,9.65);
#216=CIRCLE('',#638,9.65);
#217=CIRCLE('',#639,9.95000000000001);
#218=CIRCLE('',#641,9.65);
#219=CIRCLE('',#643,8.2);
#220=CIRCLE('',#644,8.2);
#221=CIRCLE('',#646,1.64999999999999);
#222=CIRCLE('',#647,1.64999999999999);
#223=CIRCLE('',#648,1.95000000000001);
#224=CIRCLE('',#650,1.64999999999999);
#225=CIRCLE('',#651,1.94999999999999);
#226=CIRCLE('',#653,1.64999999999999);
#227=CIRCLE('',#654,1.64999999999999);
#228=CIRCLE('',#655,1.95);
#229=CIRCLE('',#657,1.64999999999999);
#230=CIRCLE('',#658,1.95);
#231=CIRCLE('',#660,1.64999999999999);
#232=CIRCLE('',#661,1.64999999999999);
#233=CIRCLE('',#662,1.94999999999999);
#234=CIRCLE('',#664,1.64999999999999);
#235=CIRCLE('',#665,1.94999999999999);
#236=CIRCLE('',#667,1.64999999999999);
#237=CIRCLE('',#668,1.64999999999999);
#238=CIRCLE('',#669,1.95000000000001);
#239=CIRCLE('',#671,1.64999999999999);
#240=CIRCLE('',#672,1.94999999999999);
#241=CIRCLE('',#674,1.64999999999999);
#242=CIRCLE('',#675,1.64999999999999);
#243=CIRCLE('',#676,1.95);
#244=CIRCLE('',#678,1.64999999999999);
#245=CIRCLE('',#679,1.94999999999999);
#246=CIRCLE('',#681,1.64999999999999);
#247=CIRCLE('',#682,1.64999999999999);
#248=CIRCLE('',#683,1.95);
#249=CIRCLE('',#685,1.64999999999999);
#250=CIRCLE('',#686,1.95);
#251=CIRCLE('',#694,17.);
#252=CIRCLE('',#695,16.6);
#253=CIRCLE('',#697,17.);
#254=CIRCLE('',#698,17.);
#255=CIRCLE('',#699,16.6);
#256=CIRCLE('',#701,8.93161785944027);
#257=CIRCLE('',#702,9.15);
#258=CIRCLE('',#703,9.15);
#259=CIRCLE('',#705,10.75);
#260=CIRCLE('',#706,10.75);
#261=CIRCLE('',#708,10.75);
#262=CIRCLE('',#716,7.875);
#263=CIRCLE('',#717,7.875);
#264=CIRCLE('',#719,9.525);
#265=CIRCLE('',#720,9.525);
#266=VERTEX_POINT('',#939);
#267=VERTEX_POINT('',#940);
#268=VERTEX_POINT('',#943);
#269=VERTEX_POINT('',#947);
#270=VERTEX_POINT('',#951);
#271=VERTEX_POINT('',#953);
#272=VERTEX_POINT('',#957);
#273=VERTEX_POINT('',#958);
#274=VERTEX_POINT('',#961);
#275=VERTEX_POINT('',#965);
#276=VERTEX_POINT('',#967);
#277=VERTEX_POINT('',#971);
#278=VERTEX_POINT('',#972);
#279=VERTEX_POINT('',#975);
#280=VERTEX_POINT('',#979);
#281=VERTEX_POINT('',#981);
#282=VERTEX_POINT('',#985);
#283=VERTEX_POINT('',#986);
#284=VERTEX_POINT('',#989);
#285=VERTEX_POINT('',#993);
#286=VERTEX_POINT('',#995);
#287=VERTEX_POINT('',#999);
#288=VERTEX_POINT('',#1000);
#289=VERTEX_POINT('',#1003);
#290=VERTEX_POINT('',#1007);
#291=VERTEX_POINT('',#1009);
#292=VERTEX_POINT('',#1013);
#293=VERTEX_POINT('',#1014);
#294=VERTEX_POINT('',#1017);
#295=VERTEX_POINT('',#1021);
#296=VERTEX_POINT('',#1023);
#297=VERTEX_POINT('',#1027);
#298=VERTEX_POINT('',#1028);
#299=VERTEX_POINT('',#1031);
#300=VERTEX_POINT('',#1035);
#301=VERTEX_POINT('',#1037);
#302=VERTEX_POINT('',#1053);
#303=VERTEX_POINT('',#1055);
#304=VERTEX_POINT('',#1059);
#305=VERTEX_POINT('',#1060);
#306=VERTEX_POINT('',#1063);
#307=VERTEX_POINT('',#1067);
#308=VERTEX_POINT('',#1069);
#309=VERTEX_POINT('',#1071);
#310=VERTEX_POINT('',#1075);
#311=VERTEX_POINT('',#1076);
#312=VERTEX_POINT('',#1081);
#313=VERTEX_POINT('',#1092);
#314=VERTEX_POINT('',#1094);
#315=VERTEX_POINT('',#1098);
#316=VERTEX_POINT('',#1100);
#317=EDGE_CURVE('',#266,#267,#215,.T.);
#318=EDGE_CURVE('',#267,#266,#216,.T.);
#319=EDGE_CURVE('',#267,#268,#157,.T.);
#320=EDGE_CURVE('',#268,#268,#217,.T.);
#321=EDGE_CURVE('',#266,#269,#158,.T.);
#322=EDGE_CURVE('',#269,#269,#218,.T.);
#323=EDGE_CURVE('',#270,#270,#219,.T.);
#324=EDGE_CURVE('',#270,#271,#159,.T.);
#325=EDGE_CURVE('',#271,#271,#220,.T.);
#326=EDGE_CURVE('',#272,#273,#221,.T.);
#327=EDGE_CURVE('',#273,#272,#222,.T.);
#328=EDGE_CURVE('',#273,#274,#160,.T.);
#329=EDGE_CURVE('',#274,#274,#223,.T.);
#330=EDGE_CURVE('',#275,#275,#224,.T.);
#331=EDGE_CURVE('',#275,#276,#161,.T.);
#332=EDGE_CURVE('',#276,#276,#225,.T.);
#333=EDGE_CURVE('',#277,#278,#226,.T.);
#334=EDGE_CURVE('',#278,#277,#227,.T.);
#335=EDGE_CURVE('',#278,#279,#162,.T.);
#336=EDGE_CURVE('',#279,#279,#228,.T.);
#337=EDGE_CURVE('',#280,#280,#229,.T.);
#338=EDGE_CURVE('',#280,#281,#163,.T.);
#339=EDGE_CURVE('',#281,#281,#230,.T.);
#340=EDGE_CURVE('',#282,#283,#231,.T.);
#341=EDGE_CURVE('',#283,#282,#232,.T.);
#342=EDGE_CURVE('',#283,#284,#164,.T.);
#343=EDGE_CURVE('',#284,#284,#233,.T.);
#344=EDGE_CURVE('',#285,#285,#234,.T.);
#345=EDGE_CURVE('',#285,#286,#165,.T.);
#346=EDGE_CURVE('',#286,#286,#235,.T.);
#347=EDGE_CURVE('',#287,#288,#236,.T.);
#348=EDGE_CURVE('',#288,#287,#237,.T.);
#349=EDGE_CURVE('',#288,#289,#166,.T.);
#350=EDGE_CURVE('',#289,#289,#238,.T.);
#351=EDGE_CURVE('',#290,#290,#239,.T.);
#352=EDGE_CURVE('',#290,#291,#167,.T.);
#353=EDGE_CURVE('',#291,#291,#240,.T.);
#354=EDGE_CURVE('',#292,#293,#241,.T.);
#355=EDGE_CURVE('',#293,#292,#242,.T.);
#356=EDGE_CURVE('',#293,#294,#168,.T.);
#357=EDGE_CURVE('',#294,#294,#243,.T.);
#358=EDGE_CURVE('',#295,#295,#244,.T.);
#359=EDGE_CURVE('',#295,#296,#169,.T.);
#360=EDGE_CURVE('',#296,#296,#245,.T.);
#361=EDGE_CURVE('',#297,#298,#246,.T.);
#362=EDGE_CURVE('',#298,#297,#247,.T.);
#363=EDGE_CURVE('',#298,#299,#170,.T.);
#364=EDGE_CURVE('',#299,#299,#248,.T.);
#365=EDGE_CURVE('',#300,#300,#249,.T.);
#366=EDGE_CURVE('',#300,#301,#171,.T.);
#367=EDGE_CURVE('',#301,#301,#250,.T.);
#368=EDGE_CURVE('',#277,#280,#172,.T.);
#369=EDGE_CURVE('',#282,#285,#173,.T.);
#370=EDGE_CURVE('',#287,#290,#174,.T.);
#371=EDGE_CURVE('',#292,#295,#175,.T.);
#372=EDGE_CURVE('',#297,#300,#176,.T.);
#373=EDGE_CURVE('',#272,#275,#177,.T.);
#374=EDGE_CURVE('',#302,#302,#251,.T.);
#375=EDGE_CURVE('',#302,#303,#178,.T.);
#376=EDGE_CURVE('',#303,#303,#252,.T.);
#377=EDGE_CURVE('',#304,#305,#253,.T.);
#378=EDGE_CURVE('',#305,#304,#254,.T.);
#379=EDGE_CURVE('',#305,#306,#179,.T.);
#380=EDGE_CURVE('',#306,#306,#255,.T.);
#381=EDGE_CURVE('',#307,#307,#256,.T.);
#382=EDGE_CURVE('',#307,#308,#180,.T.);
#383=EDGE_CURVE('',#308,#309,#257,.T.);
#384=EDGE_CURVE('',#309,#308,#258,.T.);
#385=EDGE_CURVE('',#310,#311,#259,.T.);
#386=EDGE_CURVE('',#311,#309,#181,.T.);
#387=EDGE_CURVE('',#311,#310,#260,.T.);
#388=EDGE_CURVE('',#310,#312,#182,.T.);
#389=EDGE_CURVE('',#312,#312,#261,.T.);
#390=EDGE_CURVE('',#304,#302,#183,.T.);
#391=EDGE_CURVE('',#313,#313,#262,.T.);
#392=EDGE_CURVE('',#313,#314,#184,.T.);
#393=EDGE_CURVE('',#314,#314,#263,.T.);
#394=EDGE_CURVE('',#315,#315,#264,.T.);
#395=EDGE_CURVE('',#315,#316,#185,.T.);
#396=EDGE_CURVE('',#316,#316,#265,.T.);
#397=ORIENTED_EDGE('',*,*,#317,.F.);
#398=ORIENTED_EDGE('',*,*,#318,.F.);
#399=ORIENTED_EDGE('',*,*,#319,.T.);
#400=ORIENTED_EDGE('',*,*,#320,.F.);
#401=ORIENTED_EDGE('',*,*,#319,.F.);
#402=ORIENTED_EDGE('',*,*,#317,.T.);
#403=ORIENTED_EDGE('',*,*,#318,.T.);
#404=ORIENTED_EDGE('',*,*,#321,.T.);
#405=ORIENTED_EDGE('',*,*,#322,.T.);
#406=ORIENTED_EDGE('',*,*,#321,.F.);
#407=ORIENTED_EDGE('',*,*,#323,.T.);
#408=ORIENTED_EDGE('',*,*,#324,.T.);
#409=ORIENTED_EDGE('',*,*,#325,.T.);
#410=ORIENTED_EDGE('',*,*,#324,.F.);
#411=ORIENTED_EDGE('',*,*,#326,.F.);
#412=ORIENTED_EDGE('',*,*,#327,.F.);
#413=ORIENTED_EDGE('',*,*,#328,.T.);
#414=ORIENTED_EDGE('',*,*,#329,.F.);
#415=ORIENTED_EDGE('',*,*,#328,.F.);
#416=ORIENTED_EDGE('',*,*,#330,.F.);
#417=ORIENTED_EDGE('',*,*,#331,.T.);
#418=ORIENTED_EDGE('',*,*,#332,.F.);
#419=ORIENTED_EDGE('',*,*,#331,.F.);
#420=ORIENTED_EDGE('',*,*,#333,.F.);
#421=ORIENTED_EDGE('',*,*,#334,.F.);
#422=ORIENTED_EDGE('',*,*,#335,.T.);
#423=ORIENTED_EDGE('',*,*,#336,.F.);
#424=ORIENTED_EDGE('',*,*,#335,.F.);
#425=ORIENTED_EDGE('',*,*,#337,.F.);
#426=ORIENTED_EDGE('',*,*,#338,.T.);
#427=ORIENTED_EDGE('',*,*,#339,.F.);
#428=ORIENTED_EDGE('',*,*,#338,.F.);
#429=ORIENTED_EDGE('',*,*,#340,.F.);
#430=ORIENTED_EDGE('',*,*,#341,.F.);
#431=ORIENTED_EDGE('',*,*,#342,.T.);
#432=ORIENTED_EDGE('',*,*,#343,.F.);
#433=ORIENTED_EDGE('',*,*,#342,.F.);
#434=ORIENTED_EDGE('',*,*,#344,.F.);
#435=ORIENTED_EDGE('',*,*,#345,.T.);
#436=ORIENTED_EDGE('',*,*,#346,.F.);
#437=ORIENTED_EDGE('',*,*,#345,.F.);
#438=ORIENTED_EDGE('',*,*,#347,.F.);
#439=ORIENTED_EDGE('',*,*,#348,.F.);
#440=ORIENTED_EDGE('',*,*,#349,.T.);
#441=ORIENTED_EDGE('',*,*,#350,.F.);
#442=ORIENTED_EDGE('',*,*,#349,.F.);
#443=ORIENTED_EDGE('',*,*,#351,.F.);
#444=ORIENTED_EDGE('',*,*,#352,.T.);
#445=ORIENTED_EDGE('',*,*,#353,.F.);
#446=ORIENTED_EDGE('',*,*,#352,.F.);
#447=ORIENTED_EDGE('',*,*,#354,.F.);
#448=ORIENTED_EDGE('',*,*,#355,.F.);
#449=ORIENTED_EDGE('',*,*,#356,.T.);
#450=ORIENTED_EDGE('',*,*,#357,.F.);
#451=ORIENTED_EDGE('',*,*,#356,.F.);
#452=ORIENTED_EDGE('',*,*,#358,.F.);
#453=ORIENTED_EDGE('',*,*,#359,.T.);
#454=ORIENTED_EDGE('',*,*,#360,.F.);
#455=ORIENTED_EDGE('',*,*,#359,.F.);
#456=ORIENTED_EDGE('',*,*,#361,.F.);
#457=ORIENTED_EDGE('',*,*,#362,.F.);
#458=ORIENTED_EDGE('',*,*,#363,.T.);
#459=ORIENTED_EDGE('',*,*,#364,.F.);
#460=ORIENTED_EDGE('',*,*,#363,.F.);
#461=ORIENTED_EDGE('',*,*,#365,.F.);
#462=ORIENTED_EDGE('',*,*,#366,.T.);
#463=ORIENTED_EDGE('',*,*,#367,.F.);
#464=ORIENTED_EDGE('',*,*,#366,.F.);
#465=ORIENTED_EDGE('',*,*,#333,.T.);
#466=ORIENTED_EDGE('',*,*,#334,.T.);
#467=ORIENTED_EDGE('',*,*,#368,.T.);
#468=ORIENTED_EDGE('',*,*,#337,.T.);
#469=ORIENTED_EDGE('',*,*,#368,.F.);
#470=ORIENTED_EDGE('',*,*,#340,.T.);
#471=ORIENTED_EDGE('',*,*,#341,.T.);
#472=ORIENTED_EDGE('',*,*,#369,.T.);
#473=ORIENTED_EDGE('',*,*,#344,.T.);
#474=ORIENTED_EDGE('',*,*,#369,.F.);
#475=ORIENTED_EDGE('',*,*,#347,.T.);
#476=ORIENTED_EDGE('',*,*,#348,.T.);
#477=ORIENTED_EDGE('',*,*,#370,.T.);
#478=ORIENTED_EDGE('',*,*,#351,.T.);
#479=ORIENTED_EDGE('',*,*,#370,.F.);
#480=ORIENTED_EDGE('',*,*,#354,.T.);
#481=ORIENTED_EDGE('',*,*,#355,.T.);
#482=ORIENTED_EDGE('',*,*,#371,.T.);
#483=ORIENTED_EDGE('',*,*,#358,.T.);
#484=ORIENTED_EDGE('',*,*,#371,.F.);
#485=ORIENTED_EDGE('',*,*,#361,.T.);
#486=ORIENTED_EDGE('',*,*,#362,.T.);
#487=ORIENTED_EDGE('',*,*,#372,.T.);
#488=ORIENTED_EDGE('',*,*,#365,.T.);
#489=ORIENTED_EDGE('',*,*,#372,.F.);
#490=ORIENTED_EDGE('',*,*,#326,.T.);
#491=ORIENTED_EDGE('',*,*,#327,.T.);
#492=ORIENTED_EDGE('',*,*,#373,.T.);
#493=ORIENTED_EDGE('',*,*,#330,.T.);
#494=ORIENTED_EDGE('',*,*,#373,.F.);
#495=ORIENTED_EDGE('',*,*,#374,.F.);
#496=ORIENTED_EDGE('',*,*,#375,.T.);
#497=ORIENTED_EDGE('',*,*,#376,.F.);
#498=ORIENTED_EDGE('',*,*,#375,.F.);
#499=ORIENTED_EDGE('',*,*,#377,.F.);
#500=ORIENTED_EDGE('',*,*,#378,.F.);
#501=ORIENTED_EDGE('',*,*,#379,.T.);
#502=ORIENTED_EDGE('',*,*,#380,.F.);
#503=ORIENTED_EDGE('',*,*,#379,.F.);
#504=ORIENTED_EDGE('',*,*,#381,.F.);
#505=ORIENTED_EDGE('',*,*,#382,.T.);
#506=ORIENTED_EDGE('',*,*,#383,.T.);
#507=ORIENTED_EDGE('',*,*,#384,.T.);
#508=ORIENTED_EDGE('',*,*,#382,.F.);
#509=ORIENTED_EDGE('',*,*,#385,.T.);
#510=ORIENTED_EDGE('',*,*,#386,.T.);
#511=ORIENTED_EDGE('',*,*,#383,.F.);
#512=ORIENTED_EDGE('',*,*,#384,.F.);
#513=ORIENTED_EDGE('',*,*,#386,.F.);
#514=ORIENTED_EDGE('',*,*,#387,.T.);
#515=ORIENTED_EDGE('',*,*,#385,.F.);
#516=ORIENTED_EDGE('',*,*,#388,.T.);
#517=ORIENTED_EDGE('',*,*,#389,.T.);
#518=ORIENTED_EDGE('',*,*,#388,.F.);
#519=ORIENTED_EDGE('',*,*,#387,.F.);
#520=ORIENTED_EDGE('',*,*,#377,.T.);
#521=ORIENTED_EDGE('',*,*,#378,.T.);
#522=ORIENTED_EDGE('',*,*,#390,.T.);
#523=ORIENTED_EDGE('',*,*,#374,.T.);
#524=ORIENTED_EDGE('',*,*,#390,.F.);
#525=ORIENTED_EDGE('',*,*,#376,.T.);
#526=ORIENTED_EDGE('',*,*,#320,.T.);
#527=ORIENTED_EDGE('',*,*,#367,.T.);
#528=ORIENTED_EDGE('',*,*,#360,.T.);
#529=ORIENTED_EDGE('',*,*,#353,.T.);
#530=ORIENTED_EDGE('',*,*,#346,.T.);
#531=ORIENTED_EDGE('',*,*,#339,.T.);
#532=ORIENTED_EDGE('',*,*,#332,.T.);
#533=ORIENTED_EDGE('',*,*,#380,.T.);
#534=ORIENTED_EDGE('',*,*,#389,.F.);
#535=ORIENTED_EDGE('',*,*,#364,.T.);
#536=ORIENTED_EDGE('',*,*,#357,.T.);
#537=ORIENTED_EDGE('',*,*,#350,.T.);
#538=ORIENTED_EDGE('',*,*,#343,.T.);
#539=ORIENTED_EDGE('',*,*,#336,.T.);
#540=ORIENTED_EDGE('',*,*,#329,.T.);
#541=ORIENTED_EDGE('',*,*,#381,.T.);
#542=ORIENTED_EDGE('',*,*,#325,.F.);
#543=ORIENTED_EDGE('',*,*,#322,.F.);
#544=ORIENTED_EDGE('',*,*,#323,.F.);
#545=ORIENTED_EDGE('',*,*,#391,.T.);
#546=ORIENTED_EDGE('',*,*,#392,.T.);
#547=ORIENTED_EDGE('',*,*,#393,.F.);
#548=ORIENTED_EDGE('',*,*,#392,.F.);
#549=ORIENTED_EDGE('',*,*,#394,.T.);
#550=ORIENTED_EDGE('',*,*,#395,.T.);
#551=ORIENTED_EDGE('',*,*,#396,.F.);
#552=ORIENTED_EDGE('',*,*,#395,.F.);
#553=ORIENTED_EDGE('',*,*,#396,.T.);
#554=ORIENTED_EDGE('',*,*,#391,.F.);
#555=ORIENTED_EDGE('',*,*,#394,.F.);
#556=ORIENTED_EDGE('',*,*,#393,.T.);
#557=CONICAL_SURFACE('',#636,9.95000000000001,0.78539816339744);
#558=CONICAL_SURFACE('',#645,1.95000000000001,0.785398163397436);
#559=CONICAL_SURFACE('',#649,1.64999999999999,0.785398163397438);
#560=CONICAL_SURFACE('',#652,1.95,0.78539816339744);
#561=CONICAL_SURFACE('',#656,1.64999999999999,0.785398163397442);
#562=CONICAL_SURFACE('',#659,1.94999999999999,0.785398163397456);
#563=CONICAL_SURFACE('',#663,1.64999999999999,0.785398163397439);
#564=CONICAL_SURFACE('',#666,1.95000000000001,0.785398163397436);
#565=CONICAL_SURFACE('',#670,1.64999999999999,0.785398163397438);
#566=CONICAL_SURFACE('',#673,1.95,0.785398163397444);
#567=CONICAL_SURFACE('',#677,1.64999999999999,0.785398163397439);
#568=CONICAL_SURFACE('',#680,1.95,0.78539816339744);
#569=CONICAL_SURFACE('',#684,1.64999999999999,0.785398163397442);
#570=CONICAL_SURFACE('',#693,17.,0.785398163397457);
#571=CONICAL_SURFACE('',#696,16.6,0.785398163397457);
#572=CONICAL_SURFACE('',#700,8.93161785944027,0.349065850398873);
#573=CONICAL_SURFACE('',#704,9.15,1.22173047639602);
#574=ADVANCED_FACE('',(#69),#557,.F.);
#575=ADVANCED_FACE('',(#70),#57,.F.);
#576=ADVANCED_FACE('',(#71),#58,.F.);
#577=ADVANCED_FACE('',(#72),#558,.F.);
#578=ADVANCED_FACE('',(#73),#559,.F.);
#579=ADVANCED_FACE('',(#74),#560,.F.);
#580=ADVANCED_FACE('',(#75),#561,.F.);
#581=ADVANCED_FACE('',(#76),#562,.F.);
#582=ADVANCED_FACE('',(#77),#563,.F.);
#583=ADVANCED_FACE('',(#78),#564,.F.);
#584=ADVANCED_FACE('',(#79),#565,.F.);
#585=ADVANCED_FACE('',(#80),#566,.F.);
#586=ADVANCED_FACE('',(#81),#567,.F.);
#587=ADVANCED_FACE('',(#82),#568,.F.);
#588=ADVANCED_FACE('',(#83),#569,.F.);
#589=ADVANCED_FACE('',(#84),#59,.F.);
#590=ADVANCED_FACE('',(#85),#60,.F.);
#591=ADVANCED_FACE('',(#86),#61,.F.);
#592=ADVANCED_FACE('',(#87),#62,.F.);
#593=ADVANCED_FACE('',(#88),#63,.F.);
#594=ADVANCED_FACE('',(#89),#64,.F.);
#595=ADVANCED_FACE('',(#90),#570,.T.);
#596=ADVANCED_FACE('',(#91),#571,.T.);
#597=ADVANCED_FACE('',(#92),#572,.F.);
#598=ADVANCED_FACE('',(#93),#573,.T.);
#599=ADVANCED_FACE('',(#94),#65,.F.);
#600=ADVANCED_FACE('',(#95),#66,.T.);
#601=ADVANCED_FACE('',(#96,#25,#26,#27,#28,#29,#30,#31),#43,.T.);
#602=ADVANCED_FACE('',(#97,#32,#33,#34,#35,#36,#37,#38),#44,.T.);
#603=ADVANCED_FACE('',(#98,#39),#45,.T.);
#604=ADVANCED_FACE('',(#99,#40),#46,.F.);
#605=ADVANCED_FACE('',(#100),#67,.F.);
#606=ADVANCED_FACE('',(#101),#68,.T.);
#607=ADVANCED_FACE('',(#102,#41),#47,.T.);
#608=ADVANCED_FACE('',(#103,#42),#48,.F.);
#609=CLOSED_SHELL('',(#574,#575,#576,#577,#578,#579,#580,#581,#582,#583,
#584,#585,#586,#587,#588,#589,#590,#591,#592,#593,#594,#595,#596,#597,#598,
#599,#600,#601,#602,#603,#604));
#610=CLOSED_SHELL('',(#605,#606,#607,#608));
#611=DERIVED_UNIT_ELEMENT(#615,1.);
#612=DERIVED_UNIT_ELEMENT(#1116,-3.);
#613=DERIVED_UNIT_ELEMENT(#615,1.);
#614=DERIVED_UNIT_ELEMENT(#1116,-3.);
#615=(
MASS_UNIT()
NAMED_UNIT(*)
SI_UNIT(.KILO.,.GRAM.)
);
#616=DERIVED_UNIT((#611,#612));
#617=DERIVED_UNIT((#613,#614));
#618=MEASURE_REPRESENTATION_ITEM('density measure',
POSITIVE_RATIO_MEASURE(7850.),#616);
#619=MEASURE_REPRESENTATION_ITEM('density measure',
POSITIVE_RATIO_MEASURE(7850.),#617);
#620=PROPERTY_DEFINITION_REPRESENTATION(#630,#624);
#621=PROPERTY_DEFINITION_REPRESENTATION(#631,#625);
#622=PROPERTY_DEFINITION_REPRESENTATION(#632,#626);
#623=PROPERTY_DEFINITION_REPRESENTATION(#633,#627);
#624=REPRESENTATION('material name',(#628),#1112);
#625=REPRESENTATION('density',(#618),#1112);
#626=REPRESENTATION('material name',(#629),#1113);
#627=REPRESENTATION('density',(#619),#1113);
#628=DESCRIPTIVE_REPRESENTATION_ITEM('Steel','Steel');
#629=DESCRIPTIVE_REPRESENTATION_ITEM('Steel','Steel');
#630=PROPERTY_DEFINITION('material property','material name',#1132);
#631=PROPERTY_DEFINITION('material property','density of part',#1132);
#632=PROPERTY_DEFINITION('material property','material name',#1133);
#633=PROPERTY_DEFINITION('material property','density of part',#1133);
#634=AXIS2_PLACEMENT_3D('',#936,#725,#726);
#635=AXIS2_PLACEMENT_3D('',#937,#727,#728);
#636=AXIS2_PLACEMENT_3D('',#938,#729,#730);
#637=AXIS2_PLACEMENT_3D('',#941,#731,#732);
#638=AXIS2_PLACEMENT_3D('',#942,#733,#734);
#639=AXIS2_PLACEMENT_3D('',#945,#736,#737);
#640=AXIS2_PLACEMENT_3D('',#946,#738,#739);
#641=AXIS2_PLACEMENT_3D('',#949,#741,#742);
#642=AXIS2_PLACEMENT_3D('',#950,#743,#744);
#643=AXIS2_PLACEMENT_3D('',#952,#745,#746);
#644=AXIS2_PLACEMENT_3D('',#955,#748,#749);
#645=AXIS2_PLACEMENT_3D('',#956,#750,#751);
#646=AXIS2_PLACEMENT_3D('',#959,#752,#753);
#647=AXIS2_PLACEMENT_3D('',#960,#754,#755);
#648=AXIS2_PLACEMENT_3D('',#963,#757,#758);
#649=AXIS2_PLACEMENT_3D('',#964,#759,#760);
#650=AXIS2_PLACEMENT_3D('',#966,#761,#762);
#651=AXIS2_PLACEMENT_3D('',#969,#764,#765);
#652=AXIS2_PLACEMENT_3D('',#970,#766,#767);
#653=AXIS2_PLACEMENT_3D('',#973,#768,#769);
#654=AXIS2_PLACEMENT_3D('',#974,#770,#771);
#655=AXIS2_PLACEMENT_3D('',#977,#773,#774);
#656=AXIS2_PLACEMENT_3D('',#978,#775,#776);
#657=AXIS2_PLACEMENT_3D('',#980,#777,#778);
#658=AXIS2_PLACEMENT_3D('',#983,#780,#781);
#659=AXIS2_PLACEMENT_3D('',#984,#782,#783);
#660=AXIS2_PLACEMENT_3D('',#987,#784,#785);
#661=AXIS2_PLACEMENT_3D('',#988,#786,#787);
#662=AXIS2_PLACEMENT_3D('',#991,#789,#790);
#663=AXIS2_PLACEMENT_3D('',#992,#791,#792);
#664=AXIS2_PLACEMENT_3D('',#994,#793,#794);
#665=AXIS2_PLACEMENT_3D('',#997,#796,#797);
#666=AXIS2_PLACEMENT_3D('',#998,#798,#799);
#667=AXIS2_PLACEMENT_3D('',#1001,#800,#801);
#668=AXIS2_PLACEMENT_3D('',#1002,#802,#803);
#669=AXIS2_PLACEMENT_3D('',#1005,#805,#806);
#670=AXIS2_PLACEMENT_3D('',#1006,#807,#808);
#671=AXIS2_PLACEMENT_3D('',#1008,#809,#810);
#672=AXIS2_PLACEMENT_3D('',#1011,#812,#813);
#673=AXIS2_PLACEMENT_3D('',#1012,#814,#815);
#674=AXIS2_PLACEMENT_3D('',#1015,#816,#817);
#675=AXIS2_PLACEMENT_3D('',#1016,#818,#819);
#676=AXIS2_PLACEMENT_3D('',#1019,#821,#822);
#677=AXIS2_PLACEMENT_3D('',#1020,#823,#824);
#678=AXIS2_PLACEMENT_3D('',#1022,#825,#826);
#679=AXIS2_PLACEMENT_3D('',#1025,#828,#829);
#680=AXIS2_PLACEMENT_3D('',#1026,#830,#831);
#681=AXIS2_PLACEMENT_3D('',#1029,#832,#833);
#682=AXIS2_PLACEMENT_3D('',#1030,#834,#835);
#683=AXIS2_PLACEMENT_3D('',#1033,#837,#838);
#684=AXIS2_PLACEMENT_3D('',#1034,#839,#840);
#685=AXIS2_PLACEMENT_3D('',#1036,#841,#842);
#686=AXIS2_PLACEMENT_3D('',#1039,#844,#845);
#687=AXIS2_PLACEMENT_3D('',#1040,#846,#847);
#688=AXIS2_PLACEMENT_3D('',#1042,#849,#850);
#689=AXIS2_PLACEMENT_3D('',#1044,#852,#853);
#690=AXIS2_PLACEMENT_3D('',#1046,#855,#856);
#691=AXIS2_PLACEMENT_3D('',#1048,#858,#859);
#692=AXIS2_PLACEMENT_3D('',#1050,#861,#862);
#693=AXIS2_PLACEMENT_3D('',#1052,#864,#865);
#694=AXIS2_PLACEMENT_3D('',#1054,#866,#867);
#695=AXIS2_PLACEMENT_3D('',#1057,#869,#870);
#696=AXIS2_PLACEMENT_3D('',#1058,#871,#872);
#697=AXIS2_PLACEMENT_3D('',#1061,#873,#874);
#698=AXIS2_PLACEMENT_3D('',#1062,#875,#876);
#699=AXIS2_PLACEMENT_3D('',#1065,#878,#879);
#700=AXIS2_PLACEMENT_3D('',#1066,#880,#881);
#701=AXIS2_PLACEMENT_3D('',#1068,#882,#883);
#702=AXIS2_PLACEMENT_3D('',#1072,#885,#886);
#703=AXIS2_PLACEMENT_3D('',#1073,#887,#888);
#704=AXIS2_PLACEMENT_3D('',#1074,#889,#890);
#705=AXIS2_PLACEMENT_3D('',#1077,#891,#892);
#706=AXIS2_PLACEMENT_3D('',#1079,#894,#895);
#707=AXIS2_PLACEMENT_3D('',#1080,#896,#897);
#708=AXIS2_PLACEMENT_3D('',#1083,#899,#900);
#709=AXIS2_PLACEMENT_3D('',#1084,#901,#902);
#710=AXIS2_PLACEMENT_3D('',#1086,#904,#905);
#711=AXIS2_PLACEMENT_3D('',#1087,#906,#907);
#712=AXIS2_PLACEMENT_3D('',#1088,#908,#909);
#713=AXIS2_PLACEMENT_3D('',#1089,#910,#911);
#714=AXIS2_PLACEMENT_3D('',#1090,#912,#913);
#715=AXIS2_PLACEMENT_3D('',#1091,#914,#915);
#716=AXIS2_PLACEMENT_3D('',#1093,#916,#917);
#717=AXIS2_PLACEMENT_3D('',#1096,#919,#920);
#718=AXIS2_PLACEMENT_3D('',#1097,#921,#922);
#719=AXIS2_PLACEMENT_3D('',#1099,#923,#924);
#720=AXIS2_PLACEMENT_3D('',#1102,#926,#927);
#721=AXIS2_PLACEMENT_3D('',#1103,#928,#929);
#722=AXIS2_PLACEMENT_3D('',#1104,#930,#931);
#723=AXIS2_PLACEMENT_3D('',#1105,#932,#933);
#724=AXIS2_PLACEMENT_3D('',#1106,#934,#935);
#725=DIRECTION('axis',(0.,0.,1.));
#726=DIRECTION('refdir',(1.,0.,0.));
#727=DIRECTION('axis',(0.,0.,1.));
#728=DIRECTION('refdir',(1.,0.,0.));
#729=DIRECTION('center_axis',(0.,-1.,0.));
#730=DIRECTION('ref_axis',(0.,0.,-1.));
#731=DIRECTION('center_axis',(0.,-1.,0.));
#732=DIRECTION('ref_axis',(0.,0.,-1.));
#733=DIRECTION('center_axis',(0.,-1.,0.));
#734=DIRECTION('ref_axis',(0.,0.,-1.));
#735=DIRECTION('',(-8.65956056235486E-17,-0.707106781186554,0.707106781186541));
#736=DIRECTION('center_axis',(0.,1.,0.));
#737=DIRECTION('ref_axis',(0.,0.,-1.));
#738=DIRECTION('center_axis',(0.,1.,0.));
#739=DIRECTION('ref_axis',(0.,0.,1.));
#740=DIRECTION('',(0.,1.,0.));
#741=DIRECTION('center_axis',(0.,1.,0.));
#742=DIRECTION('ref_axis',(0.,0.,1.));
#743=DIRECTION('center_axis',(0.,1.,0.));
#744=DIRECTION('ref_axis',(0.,0.,1.));
#745=DIRECTION('center_axis',(0.,-1.,0.));
#746=DIRECTION('ref_axis',(0.,0.,1.));
#747=DIRECTION('',(0.,1.,0.));
#748=DIRECTION('center_axis',(0.,1.,0.));
#749=DIRECTION('ref_axis',(0.,0.,1.));
#750=DIRECTION('center_axis',(0.,1.,0.));
#751=DIRECTION('ref_axis',(0.,0.,1.));
#752=DIRECTION('center_axis',(0.,1.,0.));
#753=DIRECTION('ref_axis',(0.,0.,1.));
#754=DIRECTION('center_axis',(0.,1.,0.));
#755=DIRECTION('ref_axis',(0.,0.,1.));
#756=DIRECTION('',(-8.65956056235483E-17,0.707106781186556,-0.707106781186539));
#757=DIRECTION('center_axis',(0.,-1.,0.));
#758=DIRECTION('ref_axis',(0.,0.,1.));
#759=DIRECTION('center_axis',(0.,-1.,0.));
#760=DIRECTION('ref_axis',(0.,0.,-1.));
#761=DIRECTION('center_axis',(0.,-1.,0.));
#762=DIRECTION('ref_axis',(0.,0.,-1.));
#763=DIRECTION('',(-8.65956056235484E-17,-0.707106781186555,0.70710678118654));
#764=DIRECTION('center_axis',(0.,1.,0.));
#765=DIRECTION('ref_axis',(0.,0.,-1.));
#766=DIRECTION('center_axis',(0.,1.,0.));
#767=DIRECTION('ref_axis',(0.,0.,1.));
#768=DIRECTION('center_axis',(0.,1.,0.));
#769=DIRECTION('ref_axis',(0.,0.,1.));
#770=DIRECTION('center_axis',(0.,1.,0.));
#771=DIRECTION('ref_axis',(0.,0.,1.));
#772=DIRECTION('',(-8.65956056235486E-17,0.707106781186554,-0.707106781186541));
#773=DIRECTION('center_axis',(0.,-1.,0.));
#774=DIRECTION('ref_axis',(0.,0.,1.));
#775=DIRECTION('center_axis',(0.,-1.,0.));
#776=DIRECTION('ref_axis',(0.,0.,-1.));
#777=DIRECTION('center_axis',(0.,-1.,0.));
#778=DIRECTION('ref_axis',(0.,0.,-1.));
#779=DIRECTION('',(-8.65956056235487E-17,-0.707106781186552,0.707106781186543));
#780=DIRECTION('center_axis',(0.,1.,0.));
#781=DIRECTION('ref_axis',(0.,0.,-1.));
#782=DIRECTION('center_axis',(0.,1.,0.));
#783=DIRECTION('ref_axis',(0.,0.,1.));
#784=DIRECTION('center_axis',(0.,1.,0.));
#785=DIRECTION('ref_axis',(0.,0.,1.));
#786=DIRECTION('center_axis',(0.,1.,0.));
#787=DIRECTION('ref_axis',(0.,0.,1.));
#788=DIRECTION('',(-8.65956056235499E-17,0.707106781186542,-0.707106781186553));
#789=DIRECTION('center_axis',(0.,-1.,0.));
#790=DIRECTION('ref_axis',(0.,0.,1.));
#791=DIRECTION('center_axis',(0.,-1.,0.));
#792=DIRECTION('ref_axis',(0.,0.,-1.));
#793=DIRECTION('center_axis',(0.,-1.,0.));
#794=DIRECTION('ref_axis',(0.,0.,-1.));
#795=DIRECTION('',(-8.65956056235485E-17,-0.707106781186554,0.707106781186541));
#796=DIRECTION('center_axis',(0.,1.,0.));
#797=DIRECTION('ref_axis',(0.,0.,-1.));
#798=DIRECTION('center_axis',(0.,1.,0.));
#799=DIRECTION('ref_axis',(0.,0.,1.));
#800=DIRECTION('center_axis',(0.,1.,0.));
#801=DIRECTION('ref_axis',(0.,0.,1.));
#802=DIRECTION('center_axis',(0.,1.,0.));
#803=DIRECTION('ref_axis',(0.,0.,1.));
#804=DIRECTION('',(-8.65956056235483E-17,0.707106781186556,-0.707106781186539));
#805=DIRECTION('center_axis',(0.,-1.,0.));
#806=DIRECTION('ref_axis',(0.,0.,1.));
#807=DIRECTION('center_axis',(0.,-1.,0.));
#808=DIRECTION('ref_axis',(0.,0.,-1.));
#809=DIRECTION('center_axis',(0.,-1.,0.));
#810=DIRECTION('ref_axis',(0.,0.,-1.));
#811=DIRECTION('',(-8.65956056235484E-17,-0.707106781186555,0.70710678118654));
#812=DIRECTION('center_axis',(0.,1.,0.));
#813=DIRECTION('ref_axis',(0.,0.,-1.));
#814=DIRECTION('center_axis',(0.,1.,0.));
#815=DIRECTION('ref_axis',(0.,0.,1.));
#816=DIRECTION('center_axis',(0.,1.,0.));
#817=DIRECTION('ref_axis',(0.,0.,1.));
#818=DIRECTION('center_axis',(0.,1.,0.));
#819=DIRECTION('ref_axis',(0.,0.,1.));
#820=DIRECTION('',(-8.65956056235489E-17,0.707106781186551,-0.707106781186544));
#821=DIRECTION('center_axis',(0.,-1.,0.));
#822=DIRECTION('ref_axis',(0.,0.,1.));
#823=DIRECTION('center_axis',(0.,-1.,0.));
#824=DIRECTION('ref_axis',(0.,0.,-1.));
#825=DIRECTION('center_axis',(0.,-1.,0.));
#826=DIRECTION('ref_axis',(0.,0.,-1.));
#827=DIRECTION('',(-8.65956056235485E-17,-0.707106781186554,0.707106781186541));
#828=DIRECTION('center_axis',(0.,1.,0.));
#829=DIRECTION('ref_axis',(0.,0.,-1.));
#830=DIRECTION('center_axis',(0.,1.,0.));
#831=DIRECTION('ref_axis',(0.,0.,1.));
#832=DIRECTION('center_axis',(0.,1.,0.));
#833=DIRECTION('ref_axis',(0.,0.,1.));
#834=DIRECTION('center_axis',(0.,1.,0.));
#835=DIRECTION('ref_axis',(0.,0.,1.));
#836=DIRECTION('',(-8.65956056235486E-17,0.707106781186554,-0.707106781186541));
#837=DIRECTION('center_axis',(0.,-1.,0.));
#838=DIRECTION('ref_axis',(0.,0.,1.));
#839=DIRECTION('center_axis',(0.,-1.,0.));
#840=DIRECTION('ref_axis',(0.,0.,-1.));
#841=DIRECTION('center_axis',(0.,-1.,0.));
#842=DIRECTION('ref_axis',(0.,0.,-1.));
#843=DIRECTION('',(-8.65956056235487E-17,-0.707106781186552,0.707106781186543));
#844=DIRECTION('center_axis',(0.,1.,0.));
#845=DIRECTION('ref_axis',(0.,0.,-1.));
#846=DIRECTION('center_axis',(0.,-1.,0.));
#847=DIRECTION('ref_axis',(0.,0.,-1.));
#848=DIRECTION('',(0.,-1.,0.));
#849=DIRECTION('center_axis',(0.,-1.,0.));
#850=DIRECTION('ref_axis',(0.,0.,-1.));
#851=DIRECTION('',(0.,-1.,0.));
#852=DIRECTION('center_axis',(0.,-1.,0.));
#853=DIRECTION('ref_axis',(0.,0.,-1.));
#854=DIRECTION('',(0.,-1.,0.));
#855=DIRECTION('center_axis',(0.,-1.,0.));
#856=DIRECTION('ref_axis',(0.,0.,-1.));
#857=DIRECTION('',(0.,-1.,0.));
#858=DIRECTION('center_axis',(0.,-1.,0.));
#859=DIRECTION('ref_axis',(0.,0.,-1.));
#860=DIRECTION('',(0.,-1.,0.));
#861=DIRECTION('center_axis',(0.,-1.,0.));
#862=DIRECTION('ref_axis',(0.,0.,-1.));
#863=DIRECTION('',(0.,-1.,0.));
#864=DIRECTION('center_axis',(0.,1.,0.));
#865=DIRECTION('ref_axis',(0.,0.,1.));
#866=DIRECTION('center_axis',(0.,1.,0.));
#867=DIRECTION('ref_axis',(0.,0.,-1.));
#868=DIRECTION('',(8.65956056235501E-17,-0.707106781186541,0.707106781186554));
#869=DIRECTION('center_axis',(0.,-1.,0.));
#870=DIRECTION('ref_axis',(0.,0.,-1.));
#871=DIRECTION('center_axis',(0.,-1.,0.));
#872=DIRECTION('ref_axis',(0.,0.,-1.));
#873=DIRECTION('center_axis',(0.,-1.,0.));
#874=DIRECTION('ref_axis',(0.,0.,1.));
#875=DIRECTION('center_axis',(0.,-1.,0.));
#876=DIRECTION('ref_axis',(0.,0.,1.));
#877=DIRECTION('',(8.65956056235501E-17,0.707106781186541,-0.707106781186554));
#878=DIRECTION('center_axis',(0.,1.,0.));
#879=DIRECTION('ref_axis',(0.,0.,1.));
#880=DIRECTION('center_axis',(0.,1.,0.));
#881=DIRECTION('ref_axis',(0.,0.,1.));
#882=DIRECTION('center_axis',(0.,1.,0.));
#883=DIRECTION('ref_axis',(0.,0.,1.));
#884=DIRECTION('',(-4.18853873767707E-17,0.939692620785906,-0.342020143325675));
#885=DIRECTION('center_axis',(0.,1.,0.));
#886=DIRECTION('ref_axis',(0.,0.,1.));
#887=DIRECTION('center_axis',(0.,1.,0.));
#888=DIRECTION('ref_axis',(0.,0.,1.));
#889=DIRECTION('center_axis',(0.,-1.,0.));
#890=DIRECTION('ref_axis',(0.,0.,-1.));
#891=DIRECTION('center_axis',(0.,1.,0.));
#892=DIRECTION('ref_axis',(0.,0.,1.));
#893=DIRECTION('',(1.15079156022785E-16,0.342020143325675,-0.939692620785906));
#894=DIRECTION('center_axis',(0.,1.,0.));
#895=DIRECTION('ref_axis',(0.,0.,1.));
#896=DIRECTION('center_axis',(0.,1.,0.));
#897=DIRECTION('ref_axis',(0.,0.,1.));
#898=DIRECTION('',(0.,1.,0.));
#899=DIRECTION('center_axis',(0.,1.,0.));
#900=DIRECTION('ref_axis',(0.,0.,1.));
#901=DIRECTION('center_axis',(0.,1.,0.));
#902=DIRECTION('ref_axis',(0.,0.,1.));
#903=DIRECTION('',(0.,-1.,0.));
#904=DIRECTION('center_axis',(0.,-1.,0.));
#905=DIRECTION('ref_axis',(0.,0.,-1.));
#906=DIRECTION('center_axis',(0.,1.,0.));
#907=DIRECTION('ref_axis',(0.,0.,1.));
#908=DIRECTION('center_axis',(0.,1.,0.));
#909=DIRECTION('ref_axis',(0.,0.,1.));
#910=DIRECTION('center_axis',(0.,1.,0.));
#911=DIRECTION('ref_axis',(0.,0.,1.));
#912=DIRECTION('axis',(0.,0.,1.));
#913=DIRECTION('refdir',(1.,0.,0.));
#914=DIRECTION('center_axis',(0.,-1.,0.));
#915=DIRECTION('ref_axis',(0.,0.,-1.));
#916=DIRECTION('center_axis',(0.,1.,0.));
#917=DIRECTION('ref_axis',(0.,0.,1.));
#918=DIRECTION('',(0.,-1.,0.));
#919=DIRECTION('center_axis',(0.,1.,0.));
#920=DIRECTION('ref_axis',(0.,0.,1.));
#921=DIRECTION('center_axis',(0.,-1.,0.));
#922=DIRECTION('ref_axis',(0.,0.,-1.));
#923=DIRECTION('center_axis',(0.,1.,0.));
#924=DIRECTION('ref_axis',(0.,0.,1.));
#925=DIRECTION('',(0.,1.,0.));
#926=DIRECTION('center_axis',(0.,1.,0.));
#927=DIRECTION('ref_axis',(0.,0.,1.));
#928=DIRECTION('center_axis',(0.,1.,0.));
#929=DIRECTION('ref_axis',(0.,0.,1.));
#930=DIRECTION('center_axis',(0.,1.,0.));
#931=DIRECTION('ref_axis',(0.,0.,1.));
#932=DIRECTION('',(0.,0.,1.));
#933=DIRECTION('',(1.,0.,0.));
#934=DIRECTION('',(0.183256473767793,0.,0.983065137629341));
#935=DIRECTION('',(0.983065137629341,0.,-0.183256473767793));
#936=CARTESIAN_POINT('',(0.,0.,0.));
#937=CARTESIAN_POINT('',(0.,0.,0.));
#938=CARTESIAN_POINT('Origin',(0.,-1.04094977927525E-15,0.));
#939=CARTESIAN_POINT('',(1.1817841611772E-15,0.300000000000008,-9.65));
#940=CARTESIAN_POINT('',(-1.1817841611772E-15,0.300000000000009,9.65));
#941=CARTESIAN_POINT('Origin',(0.,0.300000000000008,0.));
#942=CARTESIAN_POINT('Origin',(0.,0.300000000000008,0.));
#943=CARTESIAN_POINT('',(-1.21852356515162E-15,-1.80657071537652E-15,9.95000000000001));
#944=CARTESIAN_POINT('',(-1.21852356515162E-15,-1.04094977927525E-15,9.95000000000001));
#945=CARTESIAN_POINT('Origin',(0.,-1.04094977927525E-15,0.));
#946=CARTESIAN_POINT('Origin',(0.,-8.67361737988404E-16,0.));
#947=CARTESIAN_POINT('',(-1.1817841611772E-15,2.9,-9.65));
#948=CARTESIAN_POINT('',(-1.1817841611772E-15,-8.67361737988404E-16,-9.65));
#949=CARTESIAN_POINT('Origin',(0.,2.9,0.));
#950=CARTESIAN_POINT('Origin',(0.,-8.67361737988404E-16,0.));
#951=CARTESIAN_POINT('',(-1.00421037530083E-15,2.9,-8.2));
#952=CARTESIAN_POINT('Origin',(0.,2.9,0.));
#953=CARTESIAN_POINT('',(-1.00421037530083E-15,6.4,-8.2));
#954=CARTESIAN_POINT('',(-1.00421037530083E-15,-8.67361737988404E-16,-8.2));
#955=CARTESIAN_POINT('Origin',(0.,6.4,0.));
#956=CARTESIAN_POINT('Origin',(0.,7.6,13.5));
#957=CARTESIAN_POINT('',(2.02066721859312E-16,7.29999999999998,15.15));
#958=CARTESIAN_POINT('',(-2.02066721859313E-16,7.29999999999998,11.85));
#959=CARTESIAN_POINT('Origin',(0.,7.29999999999998,13.5));
#960=CARTESIAN_POINT('Origin',(0.,7.29999999999998,13.5));
#961=CARTESIAN_POINT('',(-2.38806125833735E-16,7.6,11.55));
#962=CARTESIAN_POINT('',(-2.38806125833735E-16,7.6,11.55));
#963=CARTESIAN_POINT('Origin',(0.,7.6,13.5));
#964=CARTESIAN_POINT('Origin',(0.,0.300000000000005,13.5));
#965=CARTESIAN_POINT('',(-2.02066721859312E-16,0.300000000000005,15.15));
#966=CARTESIAN_POINT('Origin',(0.,0.300000000000005,13.5));
#967=CARTESIAN_POINT('',(-2.38806125833733E-16,-1.07552855510562E-15,15.45));
#968=CARTESIAN_POINT('',(-2.02066721859312E-16,0.300000000000005,15.15));
#969=CARTESIAN_POINT('Origin',(0.,-1.04094977927525E-15,13.5));
#970=CARTESIAN_POINT('Origin',(-11.6913429510898,7.6,6.75000000000014));
#971=CARTESIAN_POINT('',(-11.6913429510898,7.29999999999999,8.40000000000013));
#972=CARTESIAN_POINT('',(-11.6913429510898,7.29999999999999,5.10000000000014));
#973=CARTESIAN_POINT('Origin',(-11.6913429510898,7.29999999999999,6.75000000000014));
#974=CARTESIAN_POINT('Origin',(-11.6913429510898,7.29999999999999,6.75000000000014));
#975=CARTESIAN_POINT('',(-11.6913429510898,7.6,4.80000000000014));
#976=CARTESIAN_POINT('',(-11.6913429510898,7.6,4.80000000000014));
#977=CARTESIAN_POINT('Origin',(-11.6913429510898,7.6,6.75000000000014));
#978=CARTESIAN_POINT('Origin',(-11.6913429510898,0.300000000000006,6.75000000000014));
#979=CARTESIAN_POINT('',(-11.6913429510898,0.300000000000006,8.40000000000013));
#980=CARTESIAN_POINT('Origin',(-11.6913429510898,0.300000000000006,6.75000000000014));
#981=CARTESIAN_POINT('',(-11.6913429510898,-1.21430643318376E-15,8.70000000000013));
#982=CARTESIAN_POINT('',(-11.6913429510898,0.300000000000006,8.40000000000013));
#983=CARTESIAN_POINT('Origin',(-11.6913429510898,-1.04094977927525E-15,
6.75000000000014));
#984=CARTESIAN_POINT('Origin',(-11.69134295109,7.6,-6.74999999999989));
#985=CARTESIAN_POINT('',(-11.69134295109,7.3,-5.0999999999999));
#986=CARTESIAN_POINT('',(-11.69134295109,7.3,-8.39999999999988));
#987=CARTESIAN_POINT('Origin',(-11.69134295109,7.3,-6.74999999999989));
#988=CARTESIAN_POINT('Origin',(-11.69134295109,7.3,-6.74999999999989));
#989=CARTESIAN_POINT('',(-11.69134295109,7.6,-8.69999999999989));
#990=CARTESIAN_POINT('',(-11.69134295109,7.6,-8.69999999999989));
#991=CARTESIAN_POINT('Origin',(-11.69134295109,7.6,-6.74999999999989));
#992=CARTESIAN_POINT('Origin',(-11.69134295109,0.300000000000006,-6.74999999999989));
#993=CARTESIAN_POINT('',(-11.69134295109,0.300000000000006,-5.0999999999999));
#994=CARTESIAN_POINT('Origin',(-11.69134295109,0.300000000000006,-6.74999999999989));
#995=CARTESIAN_POINT('',(-11.69134295109,-2.0122792321331E-15,-4.7999999999999));
#996=CARTESIAN_POINT('',(-11.69134295109,0.300000000000006,-5.0999999999999));
#997=CARTESIAN_POINT('Origin',(-11.69134295109,-1.04094977927525E-15,-6.74999999999989));
#998=CARTESIAN_POINT('Origin',(0.,7.6,-13.5));
#999=CARTESIAN_POINT('',(2.02066721859312E-16,7.29999999999998,-11.85));
#1000=CARTESIAN_POINT('',(-2.02066721859313E-16,7.29999999999998,-15.15));
#1001=CARTESIAN_POINT('Origin',(0.,7.29999999999998,-13.5));
#1002=CARTESIAN_POINT('Origin',(0.,7.29999999999998,-13.5));
#1003=CARTESIAN_POINT('',(-2.38806125833735E-16,7.6,-15.45));
#1004=CARTESIAN_POINT('',(-2.38806125833735E-16,7.6,-15.45));
#1005=CARTESIAN_POINT('Origin',(0.,7.6,-13.5));
#1006=CARTESIAN_POINT('Origin',(0.,0.300000000000005,-13.5));
#1007=CARTESIAN_POINT('',(-2.02066721859312E-16,0.300000000000005,-11.85));
#1008=CARTESIAN_POINT('Origin',(0.,0.300000000000005,-13.5));
#1009=CARTESIAN_POINT('',(-2.38806125833733E-16,-1.07552855510562E-15,-11.55));
#1010=CARTESIAN_POINT('',(-2.02066721859312E-16,0.300000000000005,-11.85));
#1011=CARTESIAN_POINT('Origin',(0.,-1.04094977927525E-15,-13.5));
#1012=CARTESIAN_POINT('Origin',(11.6913429510899,7.6,-6.75000000000006));
#1013=CARTESIAN_POINT('',(11.6913429510899,7.29999999999999,-5.10000000000006));
#1014=CARTESIAN_POINT('',(11.6913429510899,7.29999999999999,-8.40000000000005));
#1015=CARTESIAN_POINT('Origin',(11.6913429510899,7.29999999999999,-6.75000000000006));
#1016=CARTESIAN_POINT('Origin',(11.6913429510899,7.29999999999999,-6.75000000000006));
#1017=CARTESIAN_POINT('',(11.6913429510899,7.6,-8.70000000000006));
#1018=CARTESIAN_POINT('',(11.6913429510899,7.6,-8.70000000000006));
#1019=CARTESIAN_POINT('Origin',(11.6913429510899,7.6,-6.75000000000006));
#1020=CARTESIAN_POINT('Origin',(11.6913429510899,0.300000000000006,-6.75000000000006));
#1021=CARTESIAN_POINT('',(11.6913429510899,0.300000000000006,-5.10000000000006));
#1022=CARTESIAN_POINT('Origin',(11.6913429510899,0.300000000000006,-6.75000000000006));
#1023=CARTESIAN_POINT('',(11.6913429510899,-1.90819582357449E-15,-4.80000000000006));
#1024=CARTESIAN_POINT('',(11.6913429510899,0.300000000000006,-5.10000000000006));
#1025=CARTESIAN_POINT('Origin',(11.6913429510899,-1.04094977927525E-15,
-6.75000000000006));
#1026=CARTESIAN_POINT('Origin',(11.6913429510899,7.6,6.74999999999997));
#1027=CARTESIAN_POINT('',(11.6913429510899,7.29999999999999,8.39999999999997));
#1028=CARTESIAN_POINT('',(11.6913429510899,7.29999999999999,5.09999999999998));
#1029=CARTESIAN_POINT('Origin',(11.6913429510899,7.29999999999999,6.74999999999997));
#1030=CARTESIAN_POINT('Origin',(11.6913429510899,7.29999999999999,6.74999999999997));
#1031=CARTESIAN_POINT('',(11.6913429510899,7.6,4.79999999999998));
#1032=CARTESIAN_POINT('',(11.6913429510899,7.6,4.79999999999998));
#1033=CARTESIAN_POINT('Origin',(11.6913429510899,7.6,6.74999999999997));
#1034=CARTESIAN_POINT('Origin',(11.6913429510899,0.300000000000006,6.74999999999997));
#1035=CARTESIAN_POINT('',(11.6913429510899,0.300000000000006,8.39999999999997));
#1036=CARTESIAN_POINT('Origin',(11.6913429510899,0.300000000000006,6.74999999999997));
#1037=CARTESIAN_POINT('',(11.6913429510899,-1.70002900645727E-15,8.69999999999997));
#1038=CARTESIAN_POINT('',(11.6913429510899,0.300000000000006,8.39999999999997));
#1039=CARTESIAN_POINT('Origin',(11.6913429510899,-1.04094977927525E-15,
6.74999999999997));
#1040=CARTESIAN_POINT('Origin',(-11.6913429510898,0.,6.75000000000014));
#1041=CARTESIAN_POINT('',(-11.6913429510898,0.,8.40000000000013));
#1042=CARTESIAN_POINT('Origin',(-11.69134295109,0.,-6.74999999999989));
#1043=CARTESIAN_POINT('',(-11.69134295109,0.,-5.0999999999999));
#1044=CARTESIAN_POINT('Origin',(0.,0.,-13.5));
#1045=CARTESIAN_POINT('',(-2.02066721859312E-16,0.,-11.85));
#1046=CARTESIAN_POINT('Origin',(11.6913429510899,0.,-6.75000000000006));
#1047=CARTESIAN_POINT('',(11.6913429510899,0.,-5.10000000000006));
#1048=CARTESIAN_POINT('Origin',(11.6913429510899,0.,6.74999999999997));
#1049=CARTESIAN_POINT('',(11.6913429510899,0.,8.39999999999997));
#1050=CARTESIAN_POINT('Origin',(0.,0.,13.5));
#1051=CARTESIAN_POINT('',(-2.02066721859312E-16,0.,15.15));
#1052=CARTESIAN_POINT('Origin',(0.,0.400000000000005,0.));
#1053=CARTESIAN_POINT('',(-2.0818995585505E-15,0.400000000000005,-17.));
#1054=CARTESIAN_POINT('Origin',(0.,0.400000000000005,0.));
#1055=CARTESIAN_POINT('',(-2.0329136865846E-15,-6.93889390390723E-17,-16.6));
#1056=CARTESIAN_POINT('',(-2.0818995585505E-15,0.400000000000005,-17.));
#1057=CARTESIAN_POINT('Origin',(0.,-1.04094977927525E-15,0.));
#1058=CARTESIAN_POINT('Origin',(0.,7.6,0.));
#1059=CARTESIAN_POINT('',(2.0818995585505E-15,7.19999999999999,-17.));
#1060=CARTESIAN_POINT('',(-2.0818995585505E-15,7.19999999999999,17.));
#1061=CARTESIAN_POINT('Origin',(0.,7.19999999999999,0.));
#1062=CARTESIAN_POINT('Origin',(0.,7.19999999999999,0.));
#1063=CARTESIAN_POINT('',(-2.0329136865846E-15,7.6,16.6));
#1064=CARTESIAN_POINT('',(-2.0329136865846E-15,7.6,16.6));
#1065=CARTESIAN_POINT('Origin',(0.,7.6,0.));
#1066=CARTESIAN_POINT('Origin',(0.,6.4,0.));
#1067=CARTESIAN_POINT('',(-1.09380772227709E-15,6.4,-8.93161785944027));
#1068=CARTESIAN_POINT('Origin',(0.,6.4,0.));
#1069=CARTESIAN_POINT('',(-1.12055182121983E-15,7.,-9.15));
#1070=CARTESIAN_POINT('',(-1.09380772227709E-15,6.4,-8.93161785944027));
#1071=CARTESIAN_POINT('',(1.21852356515162E-15,7.,9.15));
#1072=CARTESIAN_POINT('Origin',(0.,7.,0.));
#1073=CARTESIAN_POINT('Origin',(0.,7.,0.));
#1074=CARTESIAN_POINT('Origin',(0.,7.,0.));
#1075=CARTESIAN_POINT('',(1.3164953090834E-15,6.41764762517406,-10.75));
#1076=CARTESIAN_POINT('',(-1.3164953090834E-15,6.41764762517406,10.75));
#1077=CARTESIAN_POINT('Origin',(0.,6.41764762517406,0.));
#1078=CARTESIAN_POINT('',(-1.12055182121983E-15,7.,9.15));
#1079=CARTESIAN_POINT('Origin',(0.,6.41764762517406,0.));
#1080=CARTESIAN_POINT('Origin',(0.,53.8353387124258,0.));
#1081=CARTESIAN_POINT('',(-1.3164953090834E-15,7.6,-10.75));
#1082=CARTESIAN_POINT('',(-1.3164953090834E-15,53.8353387124258,-10.75));
#1083=CARTESIAN_POINT('Origin',(0.,7.6,0.));
#1084=CARTESIAN_POINT('Origin',(0.,53.8353387124258,0.));
#1085=CARTESIAN_POINT('',(-2.0818995585505E-15,53.8353387124258,-17.));
#1086=CARTESIAN_POINT('Origin',(0.,-1.04094977927525E-15,0.));
#1087=CARTESIAN_POINT('Origin',(0.,7.6,17.));
#1088=CARTESIAN_POINT('Origin',(0.,6.4,8.93161785944027));
#1089=CARTESIAN_POINT('Origin',(0.,2.9,0.));
#1090=CARTESIAN_POINT('',(0.,0.,0.));
#1091=CARTESIAN_POINT('Origin',(0.,33.4,0.));
#1092=CARTESIAN_POINT('',(-9.64409354328541E-16,33.4,7.875));
#1093=CARTESIAN_POINT('Origin',(0.,33.4,0.));
#1094=CARTESIAN_POINT('',(-9.64409354328541E-16,0.,7.875));
#1095=CARTESIAN_POINT('',(-9.64409354328541E-16,33.4,7.875));
#1096=CARTESIAN_POINT('Origin',(0.,0.,0.));
#1097=CARTESIAN_POINT('Origin',(0.,33.4,0.));
#1098=CARTESIAN_POINT('',(-1.16647607618785E-15,0.,9.525));
#1099=CARTESIAN_POINT('Origin',(0.,0.,0.));
#1100=CARTESIAN_POINT('',(-1.16647607618785E-15,33.4,9.525));
#1101=CARTESIAN_POINT('',(-1.16647607618785E-15,33.4,9.525));
#1102=CARTESIAN_POINT('Origin',(0.,33.4,0.));
#1103=CARTESIAN_POINT('Origin',(0.,33.4,0.));
#1104=CARTESIAN_POINT('Origin',(0.,0.,0.));
#1105=CARTESIAN_POINT('',(0.,0.,0.));
#1106=CARTESIAN_POINT('',(0.,-30.5,0.));
#1107=UNCERTAINTY_MEASURE_WITH_UNIT(LENGTH_MEASURE(0.01),#1115,
'DISTANCE_ACCURACY_VALUE',
'Maximum model space distance between geometric entities at asserted c
onnectivities');
#1108=UNCERTAINTY_MEASURE_WITH_UNIT(LENGTH_MEASURE(0.01),#1115,
'DISTANCE_ACCURACY_VALUE',
'Maximum model space distance between geometric entities at asserted c
onnectivities');
#1109=UNCERTAINTY_MEASURE_WITH_UNIT(LENGTH_MEASURE(0.01),#1115,
'DISTANCE_ACCURACY_VALUE',
'Maximum model space distance between geometric entities at asserted c
onnectivities');
#1110=UNCERTAINTY_MEASURE_WITH_UNIT(LENGTH_MEASURE(0.01),#1115,
'DISTANCE_ACCURACY_VALUE',
'Maximum model space distance between geometric entities at asserted c
onnectivities');
#1111=(
GEOMETRIC_REPRESENTATION_CONTEXT(3)
GLOBAL_UNCERTAINTY_ASSIGNED_CONTEXT((#1107))
GLOBAL_UNIT_ASSIGNED_CONTEXT((#1115,#1117,#1118))
REPRESENTATION_CONTEXT('','3D')
);
#1112=(
GEOMETRIC_REPRESENTATION_CONTEXT(3)
GLOBAL_UNCERTAINTY_ASSIGNED_CONTEXT((#1108))
GLOBAL_UNIT_ASSIGNED_CONTEXT((#1115,#1117,#1118))
REPRESENTATION_CONTEXT('','3D')
);
#1113=(
GEOMETRIC_REPRESENTATION_CONTEXT(3)
GLOBAL_UNCERTAINTY_ASSIGNED_CONTEXT((#1109))
GLOBAL_UNIT_ASSIGNED_CONTEXT((#1115,#1117,#1118))
REPRESENTATION_CONTEXT('','3D')
);
#1114=(
GEOMETRIC_REPRESENTATION_CONTEXT(3)
GLOBAL_UNCERTAINTY_ASSIGNED_CONTEXT((#1110))
GLOBAL_UNIT_ASSIGNED_CONTEXT((#1115,#1117,#1118))
REPRESENTATION_CONTEXT('','3D')
);
#1115=(
LENGTH_UNIT()
NAMED_UNIT(*)
SI_UNIT(.MILLI.,.METRE.)
);
#1116=(
LENGTH_UNIT()
NAMED_UNIT(*)
SI_UNIT($,.METRE.)
);
#1117=(
NAMED_UNIT(*)
PLANE_ANGLE_UNIT()
SI_UNIT($,.RADIAN.)
);
#1118=(
NAMED_UNIT(*)
SI_UNIT($,.STERADIAN.)
SOLID_ANGLE_UNIT()
);
#1119=SHAPE_DEFINITION_REPRESENTATION(#1122,#1127);
#1120=SHAPE_DEFINITION_REPRESENTATION(#1123,#1128);
#1121=SHAPE_DEFINITION_REPRESENTATION(#1124,#1129);
#1122=PRODUCT_DEFINITION_SHAPE('',$,#1131);
#1123=PRODUCT_DEFINITION_SHAPE('',$,#1132);
#1124=PRODUCT_DEFINITION_SHAPE('',$,#1133);
#1125=PRODUCT_DEFINITION_SHAPE($,$,#17);
#1126=PRODUCT_DEFINITION_SHAPE($,$,#18);
#1127=SHAPE_REPRESENTATION('',(#634,#723,#724),#1111);
#1128=SHAPE_REPRESENTATION('',(#635),#1112);
#1129=SHAPE_REPRESENTATION('',(#714),#1113);
#1130=PRODUCT_DEFINITION_CONTEXT('part definition',#1141,'design');
#1131=PRODUCT_DEFINITION('Hositrad_FO16-19T-HalfNipple',
'Hositrad_FO16-19T-HalfNipple v2',#1134,#1130);
#1132=PRODUCT_DEFINITION('NW16CF-Weld-Tapped','NW16CF-Weld-Tapped',#1135,
#1130);
#1133=PRODUCT_DEFINITION('Tube 19-All_Tube 19L33,4',
'Tube 19-All_Tube 19L33,4',#1136,#1130);
#1134=PRODUCT_DEFINITION_FORMATION('',$,#1143);
#1135=PRODUCT_DEFINITION_FORMATION('',$,#1144);
#1136=PRODUCT_DEFINITION_FORMATION('',$,#1145);
#1137=PRODUCT_RELATED_PRODUCT_CATEGORY(
'Hositrad_FO16-19T-HalfNipple v2','Hositrad_FO16-19T-HalfNipple v2',(#1143));
#1138=PRODUCT_RELATED_PRODUCT_CATEGORY('NW16CF-Weld-Tapped',
'NW16CF-Weld-Tapped',(#1144));
#1139=PRODUCT_RELATED_PRODUCT_CATEGORY('Tube 19-All_Tube 19L33,4',
'Tube 19-All_Tube 19L33,4',(#1145));
#1140=APPLICATION_PROTOCOL_DEFINITION('international standard',
'automotive_design',2009,#1141);
#1141=APPLICATION_CONTEXT(
'Core Data for Automotive Mechanical Design Process');
#1142=PRODUCT_CONTEXT('part definition',#1141,'mechanical');
#1143=PRODUCT('Hositrad_FO16-19T-HalfNipple',
'Hositrad_FO16-19T-HalfNipple v2',$,(#1142));
#1144=PRODUCT('NW16CF-Weld-Tapped','NW16CF-Weld-Tapped',$,(#1142));
#1145=PRODUCT('Tube 19-All_Tube 19L33,4','Tube 19-All_Tube 19L33,4',$,(#1142));
#1146=PRESENTATION_STYLE_ASSIGNMENT((#1150));
#1147=PRESENTATION_STYLE_ASSIGNMENT((#1151));
#1148=PRESENTATION_STYLE_ASSIGNMENT((#1152));
#1149=PRESENTATION_STYLE_ASSIGNMENT((#1153));
#1150=SURFACE_STYLE_USAGE(.BOTH.,#1154);
#1151=SURFACE_STYLE_USAGE(.BOTH.,#1155);
#1152=SURFACE_STYLE_USAGE(.BOTH.,#1156);
#1153=SURFACE_STYLE_USAGE(.BOTH.,#1157);
#1154=SURFACE_SIDE_STYLE('',(#1158));
#1155=SURFACE_SIDE_STYLE('',(#1159));
#1156=SURFACE_SIDE_STYLE('',(#1160));
#1157=SURFACE_SIDE_STYLE('',(#1161));
#1158=SURFACE_STYLE_FILL_AREA(#1162);
#1159=SURFACE_STYLE_FILL_AREA(#1163);
#1160=SURFACE_STYLE_FILL_AREA(#1164);
#1161=SURFACE_STYLE_FILL_AREA(#1165);
#1162=FILL_AREA_STYLE('Steel - Satin',(#1166));
#1163=FILL_AREA_STYLE('Opaque(165,158,150)',(#1167));
#1164=FILL_AREA_STYLE('Opaque(0,255,0)',(#1168));
#1165=FILL_AREA_STYLE('Opaque(165,158,149)',(#1169));
#1166=FILL_AREA_STYLE_COLOUR('Steel - Satin',#1170);
#1167=FILL_AREA_STYLE_COLOUR('Opaque(165,158,150)',#1171);
#1168=FILL_AREA_STYLE_COLOUR('Opaque(0,255,0)',#1172);
#1169=FILL_AREA_STYLE_COLOUR('Opaque(165,158,149)',#1173);
#1170=COLOUR_RGB('Steel - Satin',0.627450980392157,0.627450980392157,0.627450980392157);
#1171=COLOUR_RGB('Opaque(165,158,150)',0.647058823529412,0.619607843137255,
0.588235294117647);
#1172=COLOUR_RGB('Opaque(0,255,0)',0.,1.,0.);
#1173=COLOUR_RGB('Opaque(165,158,149)',0.647058823529412,0.619607843137255,
0.584313725490196);
ENDSEC;
END-ISO-10303-21;
