ISO-10303-21;
HEADER;
/* Generated by software containing ST-Developer
 * from STEP Tools, Inc. (www.steptools.com) 
 */

FILE_DESCRIPTION(
/* description */ (''),
/* implementation_level */ '2;1');

FILE_NAME(
/* name */ 'Hositrad_KF25-25-20 v1.step',
/* time_stamp */ '2024-06-25T14:31:52+02:00',
/* author */ (''),
/* organization */ (''),
/* preprocessor_version */ 'ST-DEVELOPER v20',
/* originating_system */ 'Autodesk Translation Framework v13.14.0.145',

/* authorisation */ '');

FILE_SCHEMA (('AUTOMOTIVE_DESIGN { 1 0 10303 214 3 1 1 }'));
ENDSEC;

DATA;
#10=MECHANICAL_DESIGN_GEOMETRIC_PRESENTATION_REPRESENTATION('',(#167,#168),
#337);
#11=SHAPE_REPRESENTATION_RELATIONSHIP('SRR','None',#344,#12);
#12=ADVANCED_BREP_SHAPE_REPRESENTATION('',(#13),#336);
#13=MANIFOLD_SOLID_BREP('Body1',#181);
#14=FACE_BOUND('',#48,.T.);
#15=FACE_BOUND('',#50,.T.);
#16=FACE_BOUND('',#52,.T.);
#17=FACE_BOUND('',#54,.T.);
#18=PLANE('',#218);
#19=PLANE('',#219);
#20=PLANE('',#220);
#21=PLANE('',#221);
#22=TOROIDAL_SURFACE('',#208,18.5,1.5);
#23=CYLINDRICAL_SURFACE('',#199,11.05);
#24=CYLINDRICAL_SURFACE('',#202,12.7);
#25=CYLINDRICAL_SURFACE('',#215,20.);
#26=CYLINDRICAL_SURFACE('',#216,13.15);
#27=FACE_OUTER_BOUND('',#39,.T.);
#28=FACE_OUTER_BOUND('',#40,.T.);
#29=FACE_OUTER_BOUND('',#41,.T.);
#30=FACE_OUTER_BOUND('',#42,.T.);
#31=FACE_OUTER_BOUND('',#43,.T.);
#32=FACE_OUTER_BOUND('',#44,.T.);
#33=FACE_OUTER_BOUND('',#45,.T.);
#34=FACE_OUTER_BOUND('',#46,.T.);
#35=FACE_OUTER_BOUND('',#47,.T.);
#36=FACE_OUTER_BOUND('',#49,.T.);
#37=FACE_OUTER_BOUND('',#51,.T.);
#38=FACE_OUTER_BOUND('',#53,.T.);
#39=EDGE_LOOP('',(#120,#121,#122,#123,#124));
#40=EDGE_LOOP('',(#125,#126,#127,#128));
#41=EDGE_LOOP('',(#129,#130,#131,#132));
#42=EDGE_LOOP('',(#133,#134,#135,#136));
#43=EDGE_LOOP('',(#137,#138,#139,#140,#141));
#44=EDGE_LOOP('',(#142,#143,#144,#145));
#45=EDGE_LOOP('',(#146,#147,#148,#149,#150));
#46=EDGE_LOOP('',(#151,#152,#153,#154,#155));
#47=EDGE_LOOP('',(#156));
#48=EDGE_LOOP('',(#157));
#49=EDGE_LOOP('',(#158));
#50=EDGE_LOOP('',(#159));
#51=EDGE_LOOP('',(#160));
#52=EDGE_LOOP('',(#161));
#53=EDGE_LOOP('',(#162));
#54=EDGE_LOOP('',(#163));
#55=LINE('',#292,#62);
#56=LINE('',#298,#63);
#57=LINE('',#304,#64);
#58=LINE('',#310,#65);
#59=LINE('',#322,#66);
#60=LINE('',#325,#67);
#61=LINE('',#328,#68);
#62=VECTOR('',#230,13.45);
#63=VECTOR('',#237,11.05);
#64=VECTOR('',#244,12.7);
#65=VECTOR('',#251,20.);
#66=VECTOR('',#266,12.2373343202568);
#67=VECTOR('',#271,20.);
#68=VECTOR('',#274,13.15);
#69=CIRCLE('',#196,13.15);
#70=CIRCLE('',#197,13.15);
#71=CIRCLE('',#198,13.45);
#72=CIRCLE('',#200,11.05);
#73=CIRCLE('',#201,11.05);
#74=CIRCLE('',#203,12.7);
#75=CIRCLE('',#204,12.7);
#76=CIRCLE('',#206,20.);
#77=CIRCLE('',#207,19.75);
#78=CIRCLE('',#209,20.);
#79=CIRCLE('',#210,20.);
#80=CIRCLE('',#211,1.5);
#81=CIRCLE('',#212,18.8882285676538);
#82=CIRCLE('',#214,12.2373343202567);
#83=CIRCLE('',#217,13.15);
#84=VERTEX_POINT('',#287);
#85=VERTEX_POINT('',#288);
#86=VERTEX_POINT('',#291);
#87=VERTEX_POINT('',#295);
#88=VERTEX_POINT('',#297);
#89=VERTEX_POINT('',#301);
#90=VERTEX_POINT('',#303);
#91=VERTEX_POINT('',#307);
#92=VERTEX_POINT('',#309);
#93=VERTEX_POINT('',#313);
#94=VERTEX_POINT('',#314);
#95=VERTEX_POINT('',#317);
#96=VERTEX_POINT('',#321);
#97=VERTEX_POINT('',#327);
#98=EDGE_CURVE('',#84,#85,#69,.T.);
#99=EDGE_CURVE('',#85,#84,#70,.T.);
#100=EDGE_CURVE('',#85,#86,#55,.T.);
#101=EDGE_CURVE('',#86,#86,#71,.T.);
#102=EDGE_CURVE('',#87,#87,#72,.T.);
#103=EDGE_CURVE('',#87,#88,#56,.T.);
#104=EDGE_CURVE('',#88,#88,#73,.T.);
#105=EDGE_CURVE('',#89,#89,#74,.T.);
#106=EDGE_CURVE('',#89,#90,#57,.T.);
#107=EDGE_CURVE('',#90,#90,#75,.T.);
#108=EDGE_CURVE('',#91,#91,#76,.T.);
#109=EDGE_CURVE('',#91,#92,#58,.T.);
#110=EDGE_CURVE('',#92,#92,#77,.T.);
#111=EDGE_CURVE('',#93,#94,#78,.T.);
#112=EDGE_CURVE('',#94,#93,#79,.T.);
#113=EDGE_CURVE('',#94,#95,#80,.T.);
#114=EDGE_CURVE('',#95,#95,#81,.T.);
#115=EDGE_CURVE('',#95,#96,#59,.T.);
#116=EDGE_CURVE('',#96,#96,#82,.T.);
#117=EDGE_CURVE('',#93,#91,#60,.T.);
#118=EDGE_CURVE('',#84,#97,#61,.T.);
#119=EDGE_CURVE('',#97,#97,#83,.T.);
#120=ORIENTED_EDGE('',*,*,#98,.F.);
#121=ORIENTED_EDGE('',*,*,#99,.F.);
#122=ORIENTED_EDGE('',*,*,#100,.T.);
#123=ORIENTED_EDGE('',*,*,#101,.F.);
#124=ORIENTED_EDGE('',*,*,#100,.F.);
#125=ORIENTED_EDGE('',*,*,#102,.T.);
#126=ORIENTED_EDGE('',*,*,#103,.T.);
#127=ORIENTED_EDGE('',*,*,#104,.T.);
#128=ORIENTED_EDGE('',*,*,#103,.F.);
#129=ORIENTED_EDGE('',*,*,#105,.T.);
#130=ORIENTED_EDGE('',*,*,#106,.T.);
#131=ORIENTED_EDGE('',*,*,#107,.F.);
#132=ORIENTED_EDGE('',*,*,#106,.F.);
#133=ORIENTED_EDGE('',*,*,#108,.F.);
#134=ORIENTED_EDGE('',*,*,#109,.T.);
#135=ORIENTED_EDGE('',*,*,#110,.F.);
#136=ORIENTED_EDGE('',*,*,#109,.F.);
#137=ORIENTED_EDGE('',*,*,#111,.F.);
#138=ORIENTED_EDGE('',*,*,#112,.F.);
#139=ORIENTED_EDGE('',*,*,#113,.T.);
#140=ORIENTED_EDGE('',*,*,#114,.F.);
#141=ORIENTED_EDGE('',*,*,#113,.F.);
#142=ORIENTED_EDGE('',*,*,#114,.T.);
#143=ORIENTED_EDGE('',*,*,#115,.T.);
#144=ORIENTED_EDGE('',*,*,#116,.F.);
#145=ORIENTED_EDGE('',*,*,#115,.F.);
#146=ORIENTED_EDGE('',*,*,#111,.T.);
#147=ORIENTED_EDGE('',*,*,#112,.T.);
#148=ORIENTED_EDGE('',*,*,#117,.T.);
#149=ORIENTED_EDGE('',*,*,#108,.T.);
#150=ORIENTED_EDGE('',*,*,#117,.F.);
#151=ORIENTED_EDGE('',*,*,#98,.T.);
#152=ORIENTED_EDGE('',*,*,#99,.T.);
#153=ORIENTED_EDGE('',*,*,#118,.T.);
#154=ORIENTED_EDGE('',*,*,#119,.T.);
#155=ORIENTED_EDGE('',*,*,#118,.F.);
#156=ORIENTED_EDGE('',*,*,#119,.F.);
#157=ORIENTED_EDGE('',*,*,#102,.F.);
#158=ORIENTED_EDGE('',*,*,#110,.T.);
#159=ORIENTED_EDGE('',*,*,#101,.T.);
#160=ORIENTED_EDGE('',*,*,#107,.T.);
#161=ORIENTED_EDGE('',*,*,#104,.F.);
#162=ORIENTED_EDGE('',*,*,#105,.F.);
#163=ORIENTED_EDGE('',*,*,#116,.T.);
#164=CONICAL_SURFACE('',#195,13.45,0.785398163397445);
#165=CONICAL_SURFACE('',#205,20.,0.785398163397455);
#166=CONICAL_SURFACE('',#213,12.2373343202567,1.30899693899575);
#167=STYLED_ITEM('',(#355),#169);
#168=STYLED_ITEM('',(#354),#13);
#169=ADVANCED_FACE('',(#27),#164,.F.);
#170=ADVANCED_FACE('',(#28),#23,.F.);
#171=ADVANCED_FACE('',(#29),#24,.T.);
#172=ADVANCED_FACE('',(#30),#165,.T.);
#173=ADVANCED_FACE('',(#31),#22,.T.);
#174=ADVANCED_FACE('',(#32),#166,.T.);
#175=ADVANCED_FACE('',(#33),#25,.T.);
#176=ADVANCED_FACE('',(#34),#26,.F.);
#177=ADVANCED_FACE('',(#35,#14),#18,.T.);
#178=ADVANCED_FACE('',(#36,#15),#19,.T.);
#179=ADVANCED_FACE('',(#37,#16),#20,.T.);
#180=ADVANCED_FACE('',(#38,#17),#21,.F.);
#181=CLOSED_SHELL('',(#169,#170,#171,#172,#173,#174,#175,#176,#177,#178,
#179,#180));
#182=DERIVED_UNIT_ELEMENT(#184,1.);
#183=DERIVED_UNIT_ELEMENT(#339,-3.);
#184=(
MASS_UNIT()
NAMED_UNIT(*)
SI_UNIT(.KILO.,.GRAM.)
);
#185=DERIVED_UNIT((#182,#183));
#186=MEASURE_REPRESENTATION_ITEM('density measure',
POSITIVE_RATIO_MEASURE(7850.),#185);
#187=PROPERTY_DEFINITION_REPRESENTATION(#192,#189);
#188=PROPERTY_DEFINITION_REPRESENTATION(#193,#190);
#189=REPRESENTATION('material name',(#191),#336);
#190=REPRESENTATION('density',(#186),#336);
#191=DESCRIPTIVE_REPRESENTATION_ITEM('Steel','Steel');
#192=PROPERTY_DEFINITION('material property','material name',#346);
#193=PROPERTY_DEFINITION('material property','density of part',#346);
#194=AXIS2_PLACEMENT_3D('',#285,#222,#223);
#195=AXIS2_PLACEMENT_3D('',#286,#224,#225);
#196=AXIS2_PLACEMENT_3D('',#289,#226,#227);
#197=AXIS2_PLACEMENT_3D('',#290,#228,#229);
#198=AXIS2_PLACEMENT_3D('',#293,#231,#232);
#199=AXIS2_PLACEMENT_3D('',#294,#233,#234);
#200=AXIS2_PLACEMENT_3D('',#296,#235,#236);
#201=AXIS2_PLACEMENT_3D('',#299,#238,#239);
#202=AXIS2_PLACEMENT_3D('',#300,#240,#241);
#203=AXIS2_PLACEMENT_3D('',#302,#242,#243);
#204=AXIS2_PLACEMENT_3D('',#305,#245,#246);
#205=AXIS2_PLACEMENT_3D('',#306,#247,#248);
#206=AXIS2_PLACEMENT_3D('',#308,#249,#250);
#207=AXIS2_PLACEMENT_3D('',#311,#252,#253);
#208=AXIS2_PLACEMENT_3D('',#312,#254,#255);
#209=AXIS2_PLACEMENT_3D('',#315,#256,#257);
#210=AXIS2_PLACEMENT_3D('',#316,#258,#259);
#211=AXIS2_PLACEMENT_3D('',#318,#260,#261);
#212=AXIS2_PLACEMENT_3D('',#319,#262,#263);
#213=AXIS2_PLACEMENT_3D('',#320,#264,#265);
#214=AXIS2_PLACEMENT_3D('',#323,#267,#268);
#215=AXIS2_PLACEMENT_3D('',#324,#269,#270);
#216=AXIS2_PLACEMENT_3D('',#326,#272,#273);
#217=AXIS2_PLACEMENT_3D('',#329,#275,#276);
#218=AXIS2_PLACEMENT_3D('',#330,#277,#278);
#219=AXIS2_PLACEMENT_3D('',#331,#279,#280);
#220=AXIS2_PLACEMENT_3D('',#332,#281,#282);
#221=AXIS2_PLACEMENT_3D('',#333,#283,#284);
#222=DIRECTION('axis',(0.,0.,1.));
#223=DIRECTION('refdir',(1.,0.,0.));
#224=DIRECTION('center_axis',(0.,-1.,0.));
#225=DIRECTION('ref_axis',(0.,0.,-1.));
#226=DIRECTION('center_axis',(0.,-1.,0.));
#227=DIRECTION('ref_axis',(0.,0.,-1.));
#228=DIRECTION('center_axis',(0.,-1.,0.));
#229=DIRECTION('ref_axis',(0.,0.,-1.));
#230=DIRECTION('',(-8.65956056235491E-17,-0.70710678118655,0.707106781186546));
#231=DIRECTION('center_axis',(0.,1.,0.));
#232=DIRECTION('ref_axis',(0.,0.,-1.));
#233=DIRECTION('center_axis',(0.,1.,0.));
#234=DIRECTION('ref_axis',(0.,0.,1.));
#235=DIRECTION('center_axis',(0.,-1.,0.));
#236=DIRECTION('ref_axis',(0.,0.,-1.));
#237=DIRECTION('',(0.,1.,0.));
#238=DIRECTION('center_axis',(0.,1.,0.));
#239=DIRECTION('ref_axis',(0.,0.,1.));
#240=DIRECTION('center_axis',(0.,-1.,0.));
#241=DIRECTION('ref_axis',(0.,0.,-1.));
#242=DIRECTION('center_axis',(0.,1.,0.));
#243=DIRECTION('ref_axis',(0.,0.,1.));
#244=DIRECTION('',(0.,1.,0.));
#245=DIRECTION('center_axis',(0.,1.,0.));
#246=DIRECTION('ref_axis',(0.,0.,1.));
#247=DIRECTION('center_axis',(0.,1.,0.));
#248=DIRECTION('ref_axis',(0.,0.,1.));
#249=DIRECTION('center_axis',(0.,1.,0.));
#250=DIRECTION('ref_axis',(0.,0.,-1.));
#251=DIRECTION('',(8.65956056235499E-17,-0.707106781186543,0.707106781186552));
#252=DIRECTION('center_axis',(0.,-1.,0.));
#253=DIRECTION('ref_axis',(0.,0.,-1.));
#254=DIRECTION('center_axis',(0.,-1.,0.));
#255=DIRECTION('ref_axis',(0.,0.,-1.));
#256=DIRECTION('center_axis',(0.,-1.,0.));
#257=DIRECTION('ref_axis',(0.,0.,-1.));
#258=DIRECTION('center_axis',(0.,-1.,0.));
#259=DIRECTION('ref_axis',(0.,0.,-1.));
#260=DIRECTION('center_axis',(-1.,0.,-1.22464679914735E-16));
#261=DIRECTION('ref_axis',(-1.22464679914735E-16,0.,1.));
#262=DIRECTION('center_axis',(0.,1.,0.));
#263=DIRECTION('ref_axis',(0.,0.,1.));
#264=DIRECTION('center_axis',(0.,-1.,0.));
#265=DIRECTION('ref_axis',(0.,0.,-1.));
#266=DIRECTION('',(1.18291797137867E-16,0.258819045102522,-0.965925826289068));
#267=DIRECTION('center_axis',(0.,1.,0.));
#268=DIRECTION('ref_axis',(0.,0.,1.));
#269=DIRECTION('center_axis',(0.,1.,0.));
#270=DIRECTION('ref_axis',(0.,0.,1.));
#271=DIRECTION('',(0.,-1.,0.));
#272=DIRECTION('center_axis',(0.,1.,0.));
#273=DIRECTION('ref_axis',(0.,0.,1.));
#274=DIRECTION('',(0.,1.,0.));
#275=DIRECTION('center_axis',(0.,1.,0.));
#276=DIRECTION('ref_axis',(0.,0.,1.));
#277=DIRECTION('center_axis',(0.,-1.,0.));
#278=DIRECTION('ref_axis',(0.,0.,-1.));
#279=DIRECTION('center_axis',(0.,-1.,0.));
#280=DIRECTION('ref_axis',(0.,0.,-1.));
#281=DIRECTION('center_axis',(0.,1.,0.));
#282=DIRECTION('ref_axis',(0.,0.,1.));
#283=DIRECTION('center_axis',(0.,1.,0.));
#284=DIRECTION('ref_axis',(0.,0.,1.));
#285=CARTESIAN_POINT('',(0.,0.,0.));
#286=CARTESIAN_POINT('Origin',(0.,0.,0.));
#287=CARTESIAN_POINT('',(1.61041054087877E-15,0.300000000000002,-13.15));
#288=CARTESIAN_POINT('',(-1.61041054087877E-15,0.300000000000003,13.15));
#289=CARTESIAN_POINT('Origin',(0.,0.300000000000002,0.));
#290=CARTESIAN_POINT('Origin',(0.,0.300000000000002,0.));
#291=CARTESIAN_POINT('',(-1.64714994485319E-15,-3.16008389264085E-15,13.45));
#292=CARTESIAN_POINT('',(-1.64714994485319E-15,0.,13.45));
#293=CARTESIAN_POINT('Origin',(0.,-2.02985206958674E-15,0.));
#294=CARTESIAN_POINT('Origin',(0.,-3.46944695195361E-15,0.));
#295=CARTESIAN_POINT('',(-1.35323471305783E-15,2.5,-11.05));
#296=CARTESIAN_POINT('Origin',(0.,2.5,0.));
#297=CARTESIAN_POINT('',(-1.35323471305783E-15,20.,-11.05));
#298=CARTESIAN_POINT('',(-1.35323471305783E-15,-3.46944695195361E-15,-11.05));
#299=CARTESIAN_POINT('Origin',(0.,20.,0.));
#300=CARTESIAN_POINT('Origin',(0.,20.,0.));
#301=CARTESIAN_POINT('',(-1.55530143491714E-15,5.08,12.7));
#302=CARTESIAN_POINT('Origin',(0.,5.08,0.));
#303=CARTESIAN_POINT('',(-1.55530143491714E-15,20.,12.7));
#304=CARTESIAN_POINT('',(-1.55530143491714E-15,20.,12.7));
#305=CARTESIAN_POINT('Origin',(0.,20.,0.));
#306=CARTESIAN_POINT('Origin',(0.,0.25,0.));
#307=CARTESIAN_POINT('',(-2.44929359829471E-15,0.250000000000001,-20.));
#308=CARTESIAN_POINT('Origin',(0.,0.25,0.));
#309=CARTESIAN_POINT('',(-2.41867742831602E-15,-2.77555756156289E-15,-19.75));
#310=CARTESIAN_POINT('',(-2.44929359829471E-15,0.25,-20.));
#311=CARTESIAN_POINT('Origin',(0.,-2.02985206958674E-15,0.));
#312=CARTESIAN_POINT('Origin',(0.,1.84900951803155,0.));
#313=CARTESIAN_POINT('',(2.44929359829471E-15,1.84900951803155,-20.));
#314=CARTESIAN_POINT('',(-2.44929359829471E-15,1.84900951803155,20.));
#315=CARTESIAN_POINT('Origin',(0.,1.84900951803155,0.));
#316=CARTESIAN_POINT('Origin',(0.,1.84900951803155,0.));
#317=CARTESIAN_POINT('',(-2.31314086569408E-15,3.29789825746516,18.8882285676538));
#318=CARTESIAN_POINT('Origin',(-2.2655965784226E-15,1.84900951803155,18.5));
#319=CARTESIAN_POINT('Origin',(0.,3.29789825746516,0.));
#320=CARTESIAN_POINT('Origin',(0.,5.08,0.));
#321=CARTESIAN_POINT('',(-1.49864123053985E-15,5.08,12.2373343202567));
#322=CARTESIAN_POINT('',(-1.49864123053985E-15,5.08,12.2373343202567));
#323=CARTESIAN_POINT('Origin',(0.,5.08,0.));
#324=CARTESIAN_POINT('Origin',(0.,55.2557961982418,0.));
#325=CARTESIAN_POINT('',(-2.44929359829471E-15,55.2557961982418,-20.));
#326=CARTESIAN_POINT('Origin',(0.,55.2557961982418,0.));
#327=CARTESIAN_POINT('',(-1.61041054087877E-15,2.5,-13.15));
#328=CARTESIAN_POINT('',(-1.61041054087877E-15,55.2557961982418,-13.15));
#329=CARTESIAN_POINT('Origin',(0.,2.5,0.));
#330=CARTESIAN_POINT('Origin',(-13.15,2.5,0.));
#331=CARTESIAN_POINT('Origin',(-13.15,-2.02985206958674E-15,0.));
#332=CARTESIAN_POINT('Origin',(0.,20.,0.));
#333=CARTESIAN_POINT('Origin',(0.,5.08,0.));
#334=UNCERTAINTY_MEASURE_WITH_UNIT(LENGTH_MEASURE(0.01),#338,
'DISTANCE_ACCURACY_VALUE',
'Maximum model space distance between geometric entities at asserted c
onnectivities');
#335=UNCERTAINTY_MEASURE_WITH_UNIT(LENGTH_MEASURE(0.01),#338,
'DISTANCE_ACCURACY_VALUE',
'Maximum model space distance between geometric entities at asserted c
onnectivities');
#336=(
GEOMETRIC_REPRESENTATION_CONTEXT(3)
GLOBAL_UNCERTAINTY_ASSIGNED_CONTEXT((#334))
GLOBAL_UNIT_ASSIGNED_CONTEXT((#338,#340,#341))
REPRESENTATION_CONTEXT('','3D')
);
#337=(
GEOMETRIC_REPRESENTATION_CONTEXT(3)
GLOBAL_UNCERTAINTY_ASSIGNED_CONTEXT((#335))
GLOBAL_UNIT_ASSIGNED_CONTEXT((#338,#340,#341))
REPRESENTATION_CONTEXT('','3D')
);
#338=(
LENGTH_UNIT()
NAMED_UNIT(*)
SI_UNIT(.MILLI.,.METRE.)
);
#339=(
LENGTH_UNIT()
NAMED_UNIT(*)
SI_UNIT($,.METRE.)
);
#340=(
NAMED_UNIT(*)
PLANE_ANGLE_UNIT()
SI_UNIT($,.RADIAN.)
);
#341=(
NAMED_UNIT(*)
SI_UNIT($,.STERADIAN.)
SOLID_ANGLE_UNIT()
);
#342=SHAPE_DEFINITION_REPRESENTATION(#343,#344);
#343=PRODUCT_DEFINITION_SHAPE('',$,#346);
#344=SHAPE_REPRESENTATION('',(#194),#336);
#345=PRODUCT_DEFINITION_CONTEXT('part definition',#350,'design');
#346=PRODUCT_DEFINITION('Hositrad_KF25-25-20','Hositrad_KF25-25-20 v1',
#347,#345);
#347=PRODUCT_DEFINITION_FORMATION('',$,#352);
#348=PRODUCT_RELATED_PRODUCT_CATEGORY('Hositrad_KF25-25-20 v1',
'Hositrad_KF25-25-20 v1',(#352));
#349=APPLICATION_PROTOCOL_DEFINITION('international standard',
'automotive_design',2009,#350);
#350=APPLICATION_CONTEXT(
'Core Data for Automotive Mechanical Design Process');
#351=PRODUCT_CONTEXT('part definition',#350,'mechanical');
#352=PRODUCT('Hositrad_KF25-25-20','Hositrad_KF25-25-20 v1',$,(#351));
#353=PRESENTATION_STYLE_ASSIGNMENT((#356));
#354=PRESENTATION_STYLE_ASSIGNMENT((#357));
#355=PRESENTATION_STYLE_ASSIGNMENT((#358));
#356=SURFACE_STYLE_USAGE(.BOTH.,#359);
#357=SURFACE_STYLE_USAGE(.BOTH.,#360);
#358=SURFACE_STYLE_USAGE(.BOTH.,#361);
#359=SURFACE_SIDE_STYLE('',(#362));
#360=SURFACE_SIDE_STYLE('',(#363));
#361=SURFACE_SIDE_STYLE('',(#364));
#362=SURFACE_STYLE_FILL_AREA(#365);
#363=SURFACE_STYLE_FILL_AREA(#366);
#364=SURFACE_STYLE_FILL_AREA(#367);
#365=FILL_AREA_STYLE('Steel - Satin',(#368));
#366=FILL_AREA_STYLE('Opaque(165,158,150)',(#369));
#367=FILL_AREA_STYLE('Opaque(163,170,173)',(#370));
#368=FILL_AREA_STYLE_COLOUR('Steel - Satin',#371);
#369=FILL_AREA_STYLE_COLOUR('Opaque(165,158,150)',#372);
#370=FILL_AREA_STYLE_COLOUR('Opaque(163,170,173)',#373);
#371=COLOUR_RGB('Steel - Satin',0.627450980392157,0.627450980392157,0.627450980392157);
#372=COLOUR_RGB('Opaque(165,158,150)',0.647058823529412,0.619607843137255,
0.588235294117647);
#373=COLOUR_RGB('Opaque(163,170,173)',0.63921568627451,0.666666666666667,
0.67843137254902);
ENDSEC;
END-ISO-10303-21;
