ISO-10303-21;
HEADER;
/* Generated by software containing ST-Developer
 * from STEP Tools, Inc. (www.steptools.com) 
 */

FILE_DESCRIPTION(
/* description */ (''),
/* implementation_level */ '2;1');

FILE_NAME(
/* name */ 'Hositrad_KF40-R v2.step',
/* time_stamp */ '2024-06-25T14:37:16+02:00',
/* author */ (''),
/* organization */ (''),
/* preprocessor_version */ 'ST-DEVELOPER v20',
/* originating_system */ 'Autodesk Translation Framework v13.14.0.145',

/* authorisation */ '');

FILE_SCHEMA (('AUTOMOTIVE_DESIGN { 1 0 10303 214 3 1 1 }'));
ENDSEC;

DATA;
#10=MECHANICAL_DESIGN_GEOMETRIC_PRESENTATION_REPRESENTATION('',(#23,#24),
#468);
#11=ITEM_DEFINED_TRANSFORMATION($,$,#262,#301);
#12=ITEM_DEFINED_TRANSFORMATION($,$,#297,#302);
#13=(
REPRESENTATION_RELATIONSHIP($,$,#482,#481)
REPRESENTATION_RELATIONSHIP_WITH_TRANSFORMATION(#11)
SHAPE_REPRESENTATION_RELATIONSHIP()
);
#14=(
REPRESENTATION_RELATIONSHIP($,$,#483,#481)
REPRESENTATION_RELATIONSHIP_WITH_TRANSFORMATION(#12)
SHAPE_REPRESENTATION_RELATIONSHIP()
);
#15=CONTEXT_DEPENDENT_SHAPE_REPRESENTATION(#13,#479);
#16=CONTEXT_DEPENDENT_SHAPE_REPRESENTATION(#14,#480);
#17=NEXT_ASSEMBLY_USAGE_OCCURRENCE('KF-Ring-All_KF40:1',
'KF-Ring-All_KF40:1','KF-Ring-All_KF40:1',#485,#486,
'KF-Ring-All_KF40:1');
#18=NEXT_ASSEMBLY_USAGE_OCCURRENCE('KF-Oring-All_KF40:1',
'KF-Oring-All_KF40:1','KF-Oring-All_KF40:1',#485,#487,
'KF-Oring-All_KF40:1');
#19=SHAPE_REPRESENTATION_RELATIONSHIP('SRR','None',#482,#21);
#20=SHAPE_REPRESENTATION_RELATIONSHIP('SRR','None',#483,#22);
#21=ADVANCED_BREP_SHAPE_REPRESENTATION('',(#25),#466);
#22=ADVANCED_BREP_SHAPE_REPRESENTATION('',(#26),#467);
#23=STYLED_ITEM('',(#501),#25);
#24=STYLED_ITEM('',(#502),#26);
#25=MANIFOLD_SOLID_BREP('Body1',#236);
#26=MANIFOLD_SOLID_BREP('Body1',#237);
#27=FACE_BOUND('',#82,.T.);
#28=FACE_BOUND('',#84,.T.);
#29=FACE_BOUND('',#86,.T.);
#30=FACE_BOUND('',#88,.T.);
#31=PLANE('',#293);
#32=PLANE('',#294);
#33=PLANE('',#295);
#34=PLANE('',#296);
#35=CYLINDRICAL_SURFACE('',#288,20.5);
#36=CYLINDRICAL_SURFACE('',#290,20.);
#37=CYLINDRICAL_SURFACE('',#291,20.5);
#38=LINE('',#410,#45);
#39=LINE('',#416,#46);
#40=LINE('',#430,#47);
#41=LINE('',#438,#48);
#42=LINE('',#442,#49);
#43=LINE('',#445,#50);
#44=LINE('',#449,#51);
#45=VECTOR('',#323,20.4);
#46=VECTOR('',#330,20.5);
#47=VECTOR('',#349,20.);
#48=VECTOR('',#358,20.1);
#49=VECTOR('',#363,20.5);
#50=VECTOR('',#368,20.);
#51=VECTOR('',#373,20.5);
#52=CONICAL_SURFACE('',#268,20.4,0.78539816339745);
#53=CONICAL_SURFACE('',#272,20.5,0.785398163397448);
#54=CONICAL_SURFACE('',#281,20.,0.785398163397468);
#55=CONICAL_SURFACE('',#284,20.1,0.785398163397448);
#56=FACE_OUTER_BOUND('',#71,.T.);
#57=FACE_OUTER_BOUND('',#72,.T.);
#58=FACE_OUTER_BOUND('',#73,.T.);
#59=FACE_OUTER_BOUND('',#74,.T.);
#60=FACE_OUTER_BOUND('',#75,.T.);
#61=FACE_OUTER_BOUND('',#76,.T.);
#62=FACE_OUTER_BOUND('',#77,.T.);
#63=FACE_OUTER_BOUND('',#78,.T.);
#64=FACE_OUTER_BOUND('',#79,.T.);
#65=FACE_OUTER_BOUND('',#80,.T.);
#66=FACE_OUTER_BOUND('',#81,.T.);
#67=FACE_OUTER_BOUND('',#83,.T.);
#68=FACE_OUTER_BOUND('',#85,.T.);
#69=FACE_OUTER_BOUND('',#87,.T.);
#70=FACE_OUTER_BOUND('',#89,.T.);
#71=EDGE_LOOP('',(#159,#160,#161,#162,#163));
#72=EDGE_LOOP('',(#164,#165,#166,#167,#168));
#73=EDGE_LOOP('',(#169,#170,#171,#172));
#74=EDGE_LOOP('',(#173,#174,#175,#176));
#75=EDGE_LOOP('',(#177,#178,#179,#180,#181));
#76=EDGE_LOOP('',(#182,#183,#184,#185));
#77=EDGE_LOOP('',(#186,#187,#188,#189,#190));
#78=EDGE_LOOP('',(#191,#192,#193,#194,#195));
#79=EDGE_LOOP('',(#196,#197,#198,#199,#200));
#80=EDGE_LOOP('',(#201,#202,#203,#204));
#81=EDGE_LOOP('',(#205));
#82=EDGE_LOOP('',(#206));
#83=EDGE_LOOP('',(#207));
#84=EDGE_LOOP('',(#208));
#85=EDGE_LOOP('',(#209));
#86=EDGE_LOOP('',(#210));
#87=EDGE_LOOP('',(#211));
#88=EDGE_LOOP('',(#212));
#89=EDGE_LOOP('',(#213,#214,#215,#216));
#90=CIRCLE('',#264,21.7934385241059);
#91=CIRCLE('',#265,21.7934385241059);
#92=CIRCLE('',#266,2.5);
#93=CIRCLE('',#267,21.7934385241059);
#94=CIRCLE('',#269,20.5);
#95=CIRCLE('',#270,20.5);
#96=CIRCLE('',#271,20.4);
#97=CIRCLE('',#273,20.5);
#98=CIRCLE('',#274,20.4);
#99=CIRCLE('',#276,0.1);
#100=CIRCLE('',#277,21.7251760650701);
#101=CIRCLE('',#279,0.1);
#102=CIRCLE('',#280,21.7251760650701);
#103=CIRCLE('',#282,20.);
#104=CIRCLE('',#283,20.1);
#105=CIRCLE('',#285,20.);
#106=CIRCLE('',#286,20.);
#107=CIRCLE('',#287,20.1);
#108=CIRCLE('',#289,20.5);
#109=CIRCLE('',#292,20.5);
#110=CIRCLE('',#299,2.5);
#111=CIRCLE('',#300,21.);
#112=VERTEX_POINT('',#397);
#113=VERTEX_POINT('',#398);
#114=VERTEX_POINT('',#401);
#115=VERTEX_POINT('',#405);
#116=VERTEX_POINT('',#406);
#117=VERTEX_POINT('',#409);
#118=VERTEX_POINT('',#413);
#119=VERTEX_POINT('',#415);
#120=VERTEX_POINT('',#419);
#121=VERTEX_POINT('',#423);
#122=VERTEX_POINT('',#427);
#123=VERTEX_POINT('',#429);
#124=VERTEX_POINT('',#433);
#125=VERTEX_POINT('',#434);
#126=VERTEX_POINT('',#437);
#127=VERTEX_POINT('',#441);
#128=VERTEX_POINT('',#447);
#129=VERTEX_POINT('',#456);
#130=EDGE_CURVE('',#112,#113,#90,.T.);
#131=EDGE_CURVE('',#113,#112,#91,.T.);
#132=EDGE_CURVE('',#112,#114,#92,.T.);
#133=EDGE_CURVE('',#114,#114,#93,.T.);
#134=EDGE_CURVE('',#115,#116,#94,.T.);
#135=EDGE_CURVE('',#116,#115,#95,.T.);
#136=EDGE_CURVE('',#116,#117,#38,.T.);
#137=EDGE_CURVE('',#117,#117,#96,.T.);
#138=EDGE_CURVE('',#118,#118,#97,.T.);
#139=EDGE_CURVE('',#118,#119,#39,.T.);
#140=EDGE_CURVE('',#119,#119,#98,.T.);
#141=EDGE_CURVE('',#114,#120,#99,.T.);
#142=EDGE_CURVE('',#120,#120,#100,.T.);
#143=EDGE_CURVE('',#113,#121,#101,.T.);
#144=EDGE_CURVE('',#121,#121,#102,.T.);
#145=EDGE_CURVE('',#122,#122,#103,.T.);
#146=EDGE_CURVE('',#122,#123,#40,.T.);
#147=EDGE_CURVE('',#123,#123,#104,.T.);
#148=EDGE_CURVE('',#124,#125,#105,.T.);
#149=EDGE_CURVE('',#125,#124,#106,.T.);
#150=EDGE_CURVE('',#125,#126,#41,.T.);
#151=EDGE_CURVE('',#126,#126,#107,.T.);
#152=EDGE_CURVE('',#115,#127,#42,.T.);
#153=EDGE_CURVE('',#127,#127,#108,.T.);
#154=EDGE_CURVE('',#124,#122,#43,.T.);
#155=EDGE_CURVE('',#128,#128,#109,.T.);
#156=EDGE_CURVE('',#128,#118,#44,.T.);
#157=EDGE_CURVE('',#129,#129,#110,.T.);
#158=EDGE_CURVE('',#129,#129,#111,.T.);
#159=ORIENTED_EDGE('',*,*,#130,.T.);
#160=ORIENTED_EDGE('',*,*,#131,.T.);
#161=ORIENTED_EDGE('',*,*,#132,.T.);
#162=ORIENTED_EDGE('',*,*,#133,.T.);
#163=ORIENTED_EDGE('',*,*,#132,.F.);
#164=ORIENTED_EDGE('',*,*,#134,.F.);
#165=ORIENTED_EDGE('',*,*,#135,.F.);
#166=ORIENTED_EDGE('',*,*,#136,.T.);
#167=ORIENTED_EDGE('',*,*,#137,.F.);
#168=ORIENTED_EDGE('',*,*,#136,.F.);
#169=ORIENTED_EDGE('',*,*,#138,.F.);
#170=ORIENTED_EDGE('',*,*,#139,.T.);
#171=ORIENTED_EDGE('',*,*,#140,.F.);
#172=ORIENTED_EDGE('',*,*,#139,.F.);
#173=ORIENTED_EDGE('',*,*,#133,.F.);
#174=ORIENTED_EDGE('',*,*,#141,.T.);
#175=ORIENTED_EDGE('',*,*,#142,.F.);
#176=ORIENTED_EDGE('',*,*,#141,.F.);
#177=ORIENTED_EDGE('',*,*,#130,.F.);
#178=ORIENTED_EDGE('',*,*,#131,.F.);
#179=ORIENTED_EDGE('',*,*,#143,.T.);
#180=ORIENTED_EDGE('',*,*,#144,.F.);
#181=ORIENTED_EDGE('',*,*,#143,.F.);
#182=ORIENTED_EDGE('',*,*,#145,.F.);
#183=ORIENTED_EDGE('',*,*,#146,.T.);
#184=ORIENTED_EDGE('',*,*,#147,.F.);
#185=ORIENTED_EDGE('',*,*,#146,.F.);
#186=ORIENTED_EDGE('',*,*,#148,.F.);
#187=ORIENTED_EDGE('',*,*,#149,.F.);
#188=ORIENTED_EDGE('',*,*,#150,.T.);
#189=ORIENTED_EDGE('',*,*,#151,.F.);
#190=ORIENTED_EDGE('',*,*,#150,.F.);
#191=ORIENTED_EDGE('',*,*,#134,.T.);
#192=ORIENTED_EDGE('',*,*,#135,.T.);
#193=ORIENTED_EDGE('',*,*,#152,.T.);
#194=ORIENTED_EDGE('',*,*,#153,.T.);
#195=ORIENTED_EDGE('',*,*,#152,.F.);
#196=ORIENTED_EDGE('',*,*,#148,.T.);
#197=ORIENTED_EDGE('',*,*,#149,.T.);
#198=ORIENTED_EDGE('',*,*,#154,.T.);
#199=ORIENTED_EDGE('',*,*,#145,.T.);
#200=ORIENTED_EDGE('',*,*,#154,.F.);
#201=ORIENTED_EDGE('',*,*,#155,.F.);
#202=ORIENTED_EDGE('',*,*,#156,.T.);
#203=ORIENTED_EDGE('',*,*,#138,.T.);
#204=ORIENTED_EDGE('',*,*,#156,.F.);
#205=ORIENTED_EDGE('',*,*,#140,.T.);
#206=ORIENTED_EDGE('',*,*,#151,.T.);
#207=ORIENTED_EDGE('',*,*,#137,.T.);
#208=ORIENTED_EDGE('',*,*,#147,.T.);
#209=ORIENTED_EDGE('',*,*,#144,.T.);
#210=ORIENTED_EDGE('',*,*,#153,.F.);
#211=ORIENTED_EDGE('',*,*,#142,.T.);
#212=ORIENTED_EDGE('',*,*,#155,.T.);
#213=ORIENTED_EDGE('',*,*,#157,.F.);
#214=ORIENTED_EDGE('',*,*,#158,.T.);
#215=ORIENTED_EDGE('',*,*,#157,.T.);
#216=ORIENTED_EDGE('',*,*,#158,.F.);
#217=TOROIDAL_SURFACE('',#263,23.5,2.5);
#218=TOROIDAL_SURFACE('',#275,21.7251760650701,0.1);
#219=TOROIDAL_SURFACE('',#278,21.7251760650701,0.1);
#220=TOROIDAL_SURFACE('',#298,23.5,2.5);
#221=ADVANCED_FACE('',(#56),#217,.F.);
#222=ADVANCED_FACE('',(#57),#52,.T.);
#223=ADVANCED_FACE('',(#58),#53,.T.);
#224=ADVANCED_FACE('',(#59),#218,.T.);
#225=ADVANCED_FACE('',(#60),#219,.T.);
#226=ADVANCED_FACE('',(#61),#54,.F.);
#227=ADVANCED_FACE('',(#62),#55,.F.);
#228=ADVANCED_FACE('',(#63),#35,.T.);
#229=ADVANCED_FACE('',(#64),#36,.F.);
#230=ADVANCED_FACE('',(#65),#37,.T.);
#231=ADVANCED_FACE('',(#66,#27),#31,.T.);
#232=ADVANCED_FACE('',(#67,#28),#32,.T.);
#233=ADVANCED_FACE('',(#68,#29),#33,.T.);
#234=ADVANCED_FACE('',(#69,#30),#34,.T.);
#235=ADVANCED_FACE('',(#70),#220,.T.);
#236=CLOSED_SHELL('',(#221,#222,#223,#224,#225,#226,#227,#228,#229,#230,
#231,#232,#233,#234));
#237=CLOSED_SHELL('',(#235));
#238=DERIVED_UNIT_ELEMENT(#242,1.);
#239=DERIVED_UNIT_ELEMENT(#470,-3.);
#240=DERIVED_UNIT_ELEMENT(#242,1.);
#241=DERIVED_UNIT_ELEMENT(#470,-3.);
#242=(
MASS_UNIT()
NAMED_UNIT(*)
SI_UNIT(.KILO.,.GRAM.)
);
#243=DERIVED_UNIT((#238,#239));
#244=DERIVED_UNIT((#240,#241));
#245=MEASURE_REPRESENTATION_ITEM('density measure',
POSITIVE_RATIO_MEASURE(7850.),#243);
#246=MEASURE_REPRESENTATION_ITEM('density measure',
POSITIVE_RATIO_MEASURE(7850.),#244);
#247=PROPERTY_DEFINITION_REPRESENTATION(#257,#251);
#248=PROPERTY_DEFINITION_REPRESENTATION(#258,#252);
#249=PROPERTY_DEFINITION_REPRESENTATION(#259,#253);
#250=PROPERTY_DEFINITION_REPRESENTATION(#260,#254);
#251=REPRESENTATION('material name',(#255),#466);
#252=REPRESENTATION('density',(#245),#466);
#253=REPRESENTATION('material name',(#256),#467);
#254=REPRESENTATION('density',(#246),#467);
#255=DESCRIPTIVE_REPRESENTATION_ITEM('Steel','Steel');
#256=DESCRIPTIVE_REPRESENTATION_ITEM('Steel','Steel');
#257=PROPERTY_DEFINITION('material property','material name',#486);
#258=PROPERTY_DEFINITION('material property','density of part',#486);
#259=PROPERTY_DEFINITION('material property','material name',#487);
#260=PROPERTY_DEFINITION('material property','density of part',#487);
#261=AXIS2_PLACEMENT_3D('',#394,#303,#304);
#262=AXIS2_PLACEMENT_3D('',#395,#305,#306);
#263=AXIS2_PLACEMENT_3D('',#396,#307,#308);
#264=AXIS2_PLACEMENT_3D('',#399,#309,#310);
#265=AXIS2_PLACEMENT_3D('',#400,#311,#312);
#266=AXIS2_PLACEMENT_3D('',#402,#313,#314);
#267=AXIS2_PLACEMENT_3D('',#403,#315,#316);
#268=AXIS2_PLACEMENT_3D('',#404,#317,#318);
#269=AXIS2_PLACEMENT_3D('',#407,#319,#320);
#270=AXIS2_PLACEMENT_3D('',#408,#321,#322);
#271=AXIS2_PLACEMENT_3D('',#411,#324,#325);
#272=AXIS2_PLACEMENT_3D('',#412,#326,#327);
#273=AXIS2_PLACEMENT_3D('',#414,#328,#329);
#274=AXIS2_PLACEMENT_3D('',#417,#331,#332);
#275=AXIS2_PLACEMENT_3D('',#418,#333,#334);
#276=AXIS2_PLACEMENT_3D('',#420,#335,#336);
#277=AXIS2_PLACEMENT_3D('',#421,#337,#338);
#278=AXIS2_PLACEMENT_3D('',#422,#339,#340);
#279=AXIS2_PLACEMENT_3D('',#424,#341,#342);
#280=AXIS2_PLACEMENT_3D('',#425,#343,#344);
#281=AXIS2_PLACEMENT_3D('',#426,#345,#346);
#282=AXIS2_PLACEMENT_3D('',#428,#347,#348);
#283=AXIS2_PLACEMENT_3D('',#431,#350,#351);
#284=AXIS2_PLACEMENT_3D('',#432,#352,#353);
#285=AXIS2_PLACEMENT_3D('',#435,#354,#355);
#286=AXIS2_PLACEMENT_3D('',#436,#356,#357);
#287=AXIS2_PLACEMENT_3D('',#439,#359,#360);
#288=AXIS2_PLACEMENT_3D('',#440,#361,#362);
#289=AXIS2_PLACEMENT_3D('',#443,#364,#365);
#290=AXIS2_PLACEMENT_3D('',#444,#366,#367);
#291=AXIS2_PLACEMENT_3D('',#446,#369,#370);
#292=AXIS2_PLACEMENT_3D('',#448,#371,#372);
#293=AXIS2_PLACEMENT_3D('',#450,#374,#375);
#294=AXIS2_PLACEMENT_3D('',#451,#376,#377);
#295=AXIS2_PLACEMENT_3D('',#452,#378,#379);
#296=AXIS2_PLACEMENT_3D('',#453,#380,#381);
#297=AXIS2_PLACEMENT_3D('',#454,#382,#383);
#298=AXIS2_PLACEMENT_3D('',#455,#384,#385);
#299=AXIS2_PLACEMENT_3D('',#457,#386,#387);
#300=AXIS2_PLACEMENT_3D('',#458,#388,#389);
#301=AXIS2_PLACEMENT_3D('',#459,#390,#391);
#302=AXIS2_PLACEMENT_3D('',#460,#392,#393);
#303=DIRECTION('axis',(0.,0.,1.));
#304=DIRECTION('refdir',(1.,0.,0.));
#305=DIRECTION('axis',(0.,0.,1.));
#306=DIRECTION('refdir',(1.,0.,0.));
#307=DIRECTION('center_axis',(-9.63583962632714E-17,1.,0.));
#308=DIRECTION('ref_axis',(-1.,-9.63583962632714E-17,0.));
#309=DIRECTION('center_axis',(9.63583962632714E-17,-1.,0.));
#310=DIRECTION('ref_axis',(1.,9.63583962632715E-17,0.));
#311=DIRECTION('center_axis',(9.63583962632714E-17,-1.,0.));
#312=DIRECTION('ref_axis',(1.,9.63583962632715E-17,0.));
#313=DIRECTION('center_axis',(1.22464679914735E-16,1.18005001554788E-32,
1.));
#314=DIRECTION('ref_axis',(1.,9.63583962632714E-17,-1.22464679914735E-16));
#315=DIRECTION('center_axis',(-9.63583962632714E-17,1.,0.));
#316=DIRECTION('ref_axis',(-1.,-9.63583962632715E-17,0.));
#317=DIRECTION('center_axis',(9.63583962632719E-17,-1.,0.));
#318=DIRECTION('ref_axis',(1.,9.63583962632719E-17,0.));
#319=DIRECTION('center_axis',(9.63583962632719E-17,-1.,0.));
#320=DIRECTION('ref_axis',(-1.,-9.63583962632719E-17,0.));
#321=DIRECTION('center_axis',(9.63583962632719E-17,-1.,0.));
#322=DIRECTION('ref_axis',(-1.,-9.63583962632719E-17,0.));
#323=DIRECTION('',(0.707106781186549,0.707106781186546,8.65956056235495E-17));
#324=DIRECTION('center_axis',(-9.63583962632714E-17,1.,0.));
#325=DIRECTION('ref_axis',(-1.,-9.63583962632714E-17,0.));
#326=DIRECTION('center_axis',(-9.63583962632718E-17,1.,0.));
#327=DIRECTION('ref_axis',(-1.,-9.63583962632718E-17,0.));
#328=DIRECTION('center_axis',(-9.63583962632718E-17,1.,0.));
#329=DIRECTION('ref_axis',(1.,9.63583962632718E-17,0.));
#330=DIRECTION('',(-0.707106781186547,-0.707106781186548,8.65956056235493E-17));
#331=DIRECTION('center_axis',(9.63583962632714E-17,-1.,0.));
#332=DIRECTION('ref_axis',(1.,9.63583962632714E-17,0.));
#333=DIRECTION('center_axis',(-9.63583962632714E-17,1.,0.));
#334=DIRECTION('ref_axis',(-1.,-9.15640468772026E-17,0.));
#335=DIRECTION('center_axis',(-1.22464679914735E-16,-1.18005001554788E-32,
-1.));
#336=DIRECTION('ref_axis',(1.,1.01737829863559E-16,-1.22464679914735E-16));
#337=DIRECTION('center_axis',(9.63583962632714E-17,-1.,0.));
#338=DIRECTION('ref_axis',(1.,9.63583962632714E-17,0.));
#339=DIRECTION('center_axis',(9.63583962632714E-17,-1.,0.));
#340=DIRECTION('ref_axis',(1.,9.15640468772026E-17,0.));
#341=DIRECTION('center_axis',(1.22464679914735E-16,1.18005001554788E-32,
-1.));
#342=DIRECTION('ref_axis',(-1.,-1.01737829863559E-16,-1.22464679914735E-16));
#343=DIRECTION('center_axis',(-9.63583962632714E-17,1.,0.));
#344=DIRECTION('ref_axis',(-1.,-9.63583962632714E-17,0.));
#345=DIRECTION('center_axis',(-9.63583962632719E-17,1.,0.));
#346=DIRECTION('ref_axis',(-1.,-9.63583962632719E-17,0.));
#347=DIRECTION('center_axis',(-9.63583962632719E-17,1.,0.));
#348=DIRECTION('ref_axis',(-1.,-9.63583962632719E-17,0.));
#349=DIRECTION('',(0.707106781186561,0.707106781186534,-8.6595605623551E-17));
#350=DIRECTION('center_axis',(9.63583962632714E-17,-1.,0.));
#351=DIRECTION('ref_axis',(-1.,-9.63583962632714E-17,0.));
#352=DIRECTION('center_axis',(9.63583962632718E-17,-1.,0.));
#353=DIRECTION('ref_axis',(1.,9.63583962632718E-17,0.));
#354=DIRECTION('center_axis',(9.63583962632718E-17,-1.,0.));
#355=DIRECTION('ref_axis',(1.,9.63583962632718E-17,0.));
#356=DIRECTION('center_axis',(9.63583962632718E-17,-1.,0.));
#357=DIRECTION('ref_axis',(1.,9.63583962632718E-17,0.));
#358=DIRECTION('',(-0.707106781186547,-0.707106781186548,-8.65956056235493E-17));
#359=DIRECTION('center_axis',(-9.63583962632714E-17,1.,0.));
#360=DIRECTION('ref_axis',(1.,9.63583962632715E-17,0.));
#361=DIRECTION('center_axis',(-9.63583962632714E-17,1.,0.));
#362=DIRECTION('ref_axis',(-1.,-9.63583962632714E-17,0.));
#363=DIRECTION('',(9.63583962632714E-17,-1.,0.));
#364=DIRECTION('center_axis',(-9.63583962632714E-17,1.,0.));
#365=DIRECTION('ref_axis',(-1.,-9.63583962632714E-17,0.));
#366=DIRECTION('center_axis',(-9.63583962632714E-17,1.,0.));
#367=DIRECTION('ref_axis',(-1.,-9.63583962632714E-17,0.));
#368=DIRECTION('',(-9.63583962632714E-17,1.,0.));
#369=DIRECTION('center_axis',(-9.63583962632714E-17,1.,0.));
#370=DIRECTION('ref_axis',(-1.,-9.63583962632714E-17,0.));
#371=DIRECTION('center_axis',(-9.63583962632714E-17,1.,0.));
#372=DIRECTION('ref_axis',(-1.,-9.63583962632714E-17,0.));
#373=DIRECTION('',(9.63583962632714E-17,-1.,0.));
#374=DIRECTION('center_axis',(9.63583962632714E-17,-1.,0.));
#375=DIRECTION('ref_axis',(1.,9.63583962632714E-17,0.));
#376=DIRECTION('center_axis',(-9.63583962632714E-17,1.,0.));
#377=DIRECTION('ref_axis',(-1.,-9.63583962632714E-17,0.));
#378=DIRECTION('center_axis',(-9.63583962632714E-17,1.,0.));
#379=DIRECTION('ref_axis',(-1.,-9.63583962632714E-17,0.));
#380=DIRECTION('center_axis',(9.63583962632714E-17,-1.,0.));
#381=DIRECTION('ref_axis',(1.,9.63583962632714E-17,0.));
#382=DIRECTION('axis',(0.,0.,1.));
#383=DIRECTION('refdir',(1.,0.,0.));
#384=DIRECTION('center_axis',(0.,1.,0.));
#385=DIRECTION('ref_axis',(0.,0.,1.));
#386=DIRECTION('center_axis',(-1.,0.,1.22464679914735E-16));
#387=DIRECTION('ref_axis',(-1.22464679914735E-16,0.,-1.));
#388=DIRECTION('center_axis',(0.,-1.,0.));
#389=DIRECTION('ref_axis',(0.,0.,1.));
#390=DIRECTION('',(0.,0.,1.));
#391=DIRECTION('',(1.,0.,0.));
#392=DIRECTION('',(0.,0.,1.));
#393=DIRECTION('',(1.,0.,0.));
#394=CARTESIAN_POINT('',(0.,0.,0.));
#395=CARTESIAN_POINT('',(0.,0.,0.));
#396=CARTESIAN_POINT('Origin',(0.,2.60208521396521E-15,0.));
#397=CARTESIAN_POINT('',(21.7934385241059,1.82692307692308,2.66892647309609E-15));
#398=CARTESIAN_POINT('',(-21.7934385241059,1.82692307692308,-2.66892647309609E-15));
#399=CARTESIAN_POINT('Origin',(-1.76039377788669E-16,1.82692307692308,0.));
#400=CARTESIAN_POINT('Origin',(-1.76039377788669E-16,1.82692307692308,0.));
#401=CARTESIAN_POINT('',(21.7934385241059,-1.82692307692308,-2.66892647309609E-15));
#402=CARTESIAN_POINT('Origin',(23.5,4.86650752615209E-15,-2.87791997799628E-15));
#403=CARTESIAN_POINT('Origin',(1.76039377788669E-16,-1.82692307692308,0.));
#404=CARTESIAN_POINT('Origin',(-1.06277602315105E-17,4.,0.));
#405=CARTESIAN_POINT('',(20.5,3.90000000000001,2.51052593825207E-15));
#406=CARTESIAN_POINT('',(-20.5,3.9,-2.51052593825207E-15));
#407=CARTESIAN_POINT('Origin',(-9.91920605183698E-19,3.90000000000001,0.));
#408=CARTESIAN_POINT('Origin',(-9.91920605183698E-19,3.90000000000001,0.));
#409=CARTESIAN_POINT('',(-20.4,4.,-2.4982794702606E-15));
#410=CARTESIAN_POINT('',(-20.4,4.,-2.4982794702606E-15));
#411=CARTESIAN_POINT('Origin',(-1.06277602315105E-17,4.,0.));
#412=CARTESIAN_POINT('Origin',(7.50603570248334E-16,-3.9,0.));
#413=CARTESIAN_POINT('',(20.5,-3.9,-2.51052593825207E-15));
#414=CARTESIAN_POINT('Origin',(7.50603570248334E-16,-3.9,0.));
#415=CARTESIAN_POINT('',(20.4,-4.,-2.4982794702606E-15));
#416=CARTESIAN_POINT('',(20.5,-3.9,-2.51052593825207E-15));
#417=CARTESIAN_POINT('Origin',(7.60239409874661E-16,-4.,0.));
#418=CARTESIAN_POINT('Origin',(1.83080952900216E-16,-1.9,0.));
#419=CARTESIAN_POINT('',(21.7251760650701,-2.,-2.66056673290008E-15));
#420=CARTESIAN_POINT('Origin',(21.7251760650701,-1.9,-2.66056673290008E-15));
#421=CARTESIAN_POINT('Origin',(1.92716792526543E-16,-2.,0.));
#422=CARTESIAN_POINT('Origin',(-1.83080952900216E-16,1.9,0.));
#423=CARTESIAN_POINT('',(-21.7251760650701,2.,-2.66056673290008E-15));
#424=CARTESIAN_POINT('Origin',(-21.7251760650701,1.9,-2.66056673290008E-15));
#425=CARTESIAN_POINT('Origin',(-1.92716792526543E-16,2.,0.));
#426=CARTESIAN_POINT('Origin',(-9.91920605184701E-19,3.90000000000002,0.));
#427=CARTESIAN_POINT('',(20.,3.90000000000002,-2.44929359829471E-15));
#428=CARTESIAN_POINT('Origin',(-9.91920605184738E-19,3.90000000000002,0.));
#429=CARTESIAN_POINT('',(20.1,4.00000000000001,-2.46154006628618E-15));
#430=CARTESIAN_POINT('',(20.,3.90000000000002,-2.44929359829471E-15));
#431=CARTESIAN_POINT('Origin',(-1.06277602315105E-17,4.,0.));
#432=CARTESIAN_POINT('Origin',(7.60239409874661E-16,-4.,0.));
#433=CARTESIAN_POINT('',(20.,-3.9,2.44929359829471E-15));
#434=CARTESIAN_POINT('',(-20.,-3.9,-2.44929359829471E-15));
#435=CARTESIAN_POINT('Origin',(7.50603570248334E-16,-3.9,0.));
#436=CARTESIAN_POINT('Origin',(7.50603570248334E-16,-3.9,0.));
#437=CARTESIAN_POINT('',(-20.1,-4.,-2.46154006628618E-15));
#438=CARTESIAN_POINT('',(-20.1,-4.,-2.46154006628618E-15));
#439=CARTESIAN_POINT('Origin',(7.60239409874661E-16,-4.,0.));
#440=CARTESIAN_POINT('Origin',(-6.7762635780344E-18,3.96002946496792,0.));
#441=CARTESIAN_POINT('',(20.5,2.00000000000001,-2.51052593825207E-15));
#442=CARTESIAN_POINT('',(20.5,3.96002946496793,-2.51052593825207E-15));
#443=CARTESIAN_POINT('Origin',(1.82089032295032E-16,2.,0.));
#444=CARTESIAN_POINT('Origin',(-6.7762635780344E-18,3.96002946496792,0.));
#445=CARTESIAN_POINT('',(20.,3.96002946496792,-2.44929359829471E-15));
#446=CARTESIAN_POINT('Origin',(-6.7762635780344E-18,3.96002946496792,0.));
#447=CARTESIAN_POINT('',(20.5,-2.,-2.51052593825207E-15));
#448=CARTESIAN_POINT('Origin',(5.67522617348118E-16,-2.,0.));
#449=CARTESIAN_POINT('',(20.5,3.96002946496793,-2.51052593825207E-15));
#450=CARTESIAN_POINT('Origin',(-20.5,-4.,0.));
#451=CARTESIAN_POINT('Origin',(-20.5,4.,0.));
#452=CARTESIAN_POINT('Origin',(-22.,2.,0.));
#453=CARTESIAN_POINT('Origin',(-20.5,-2.,0.));
#454=CARTESIAN_POINT('',(0.,0.,0.));
#455=CARTESIAN_POINT('Origin',(0.,0.,0.));
#456=CARTESIAN_POINT('',(-2.57175827820944E-15,3.06161699786838E-16,-21.));
#457=CARTESIAN_POINT('Origin',(-2.87791997799628E-15,0.,-23.5));
#458=CARTESIAN_POINT('Origin',(0.,-3.06161699786838E-16,0.));
#459=CARTESIAN_POINT('',(0.,0.,0.));
#460=CARTESIAN_POINT('',(0.,0.,0.));
#461=UNCERTAINTY_MEASURE_WITH_UNIT(LENGTH_MEASURE(0.01),#469,
'DISTANCE_ACCURACY_VALUE',
'Maximum model space distance between geometric entities at asserted c
onnectivities');
#462=UNCERTAINTY_MEASURE_WITH_UNIT(LENGTH_MEASURE(0.01),#469,
'DISTANCE_ACCURACY_VALUE',
'Maximum model space distance between geometric entities at asserted c
onnectivities');
#463=UNCERTAINTY_MEASURE_WITH_UNIT(LENGTH_MEASURE(0.01),#469,
'DISTANCE_ACCURACY_VALUE',
'Maximum model space distance between geometric entities at asserted c
onnectivities');
#464=UNCERTAINTY_MEASURE_WITH_UNIT(LENGTH_MEASURE(0.01),#469,
'DISTANCE_ACCURACY_VALUE',
'Maximum model space distance between geometric entities at asserted c
onnectivities');
#465=(
GEOMETRIC_REPRESENTATION_CONTEXT(3)
GLOBAL_UNCERTAINTY_ASSIGNED_CONTEXT((#461))
GLOBAL_UNIT_ASSIGNED_CONTEXT((#469,#471,#472))
REPRESENTATION_CONTEXT('','3D')
);
#466=(
GEOMETRIC_REPRESENTATION_CONTEXT(3)
GLOBAL_UNCERTAINTY_ASSIGNED_CONTEXT((#462))
GLOBAL_UNIT_ASSIGNED_CONTEXT((#469,#471,#472))
REPRESENTATION_CONTEXT('','3D')
);
#467=(
GEOMETRIC_REPRESENTATION_CONTEXT(3)
GLOBAL_UNCERTAINTY_ASSIGNED_CONTEXT((#463))
GLOBAL_UNIT_ASSIGNED_CONTEXT((#469,#471,#472))
REPRESENTATION_CONTEXT('','3D')
);
#468=(
GEOMETRIC_REPRESENTATION_CONTEXT(3)
GLOBAL_UNCERTAINTY_ASSIGNED_CONTEXT((#464))
GLOBAL_UNIT_ASSIGNED_CONTEXT((#469,#471,#472))
REPRESENTATION_CONTEXT('','3D')
);
#469=(
LENGTH_UNIT()
NAMED_UNIT(*)
SI_UNIT(.MILLI.,.METRE.)
);
#470=(
LENGTH_UNIT()
NAMED_UNIT(*)
SI_UNIT($,.METRE.)
);
#471=(
NAMED_UNIT(*)
PLANE_ANGLE_UNIT()
SI_UNIT($,.RADIAN.)
);
#472=(
NAMED_UNIT(*)
SI_UNIT($,.STERADIAN.)
SOLID_ANGLE_UNIT()
);
#473=SHAPE_DEFINITION_REPRESENTATION(#476,#481);
#474=SHAPE_DEFINITION_REPRESENTATION(#477,#482);
#475=SHAPE_DEFINITION_REPRESENTATION(#478,#483);
#476=PRODUCT_DEFINITION_SHAPE('',$,#485);
#477=PRODUCT_DEFINITION_SHAPE('',$,#486);
#478=PRODUCT_DEFINITION_SHAPE('',$,#487);
#479=PRODUCT_DEFINITION_SHAPE($,$,#17);
#480=PRODUCT_DEFINITION_SHAPE($,$,#18);
#481=SHAPE_REPRESENTATION('',(#261,#301,#302),#465);
#482=SHAPE_REPRESENTATION('',(#262),#466);
#483=SHAPE_REPRESENTATION('',(#297),#467);
#484=PRODUCT_DEFINITION_CONTEXT('part definition',#495,'design');
#485=PRODUCT_DEFINITION('Hositrad_KF40-R','Hositrad_KF40-R v2',#488,#484);
#486=PRODUCT_DEFINITION('KF-Ring-All_KF40','KF-Ring-All_KF40',#489,#484);
#487=PRODUCT_DEFINITION('KF-Oring-All_KF40','KF-Oring-All_KF40',#490,#484);
#488=PRODUCT_DEFINITION_FORMATION('',$,#497);
#489=PRODUCT_DEFINITION_FORMATION('',$,#498);
#490=PRODUCT_DEFINITION_FORMATION('',$,#499);
#491=PRODUCT_RELATED_PRODUCT_CATEGORY('Hositrad_KF40-R v2',
'Hositrad_KF40-R v2',(#497));
#492=PRODUCT_RELATED_PRODUCT_CATEGORY('KF-Ring-All_KF40',
'KF-Ring-All_KF40',(#498));
#493=PRODUCT_RELATED_PRODUCT_CATEGORY('KF-Oring-All_KF40',
'KF-Oring-All_KF40',(#499));
#494=APPLICATION_PROTOCOL_DEFINITION('international standard',
'automotive_design',2009,#495);
#495=APPLICATION_CONTEXT(
'Core Data for Automotive Mechanical Design Process');
#496=PRODUCT_CONTEXT('part definition',#495,'mechanical');
#497=PRODUCT('Hositrad_KF40-R','Hositrad_KF40-R v2',$,(#496));
#498=PRODUCT('KF-Ring-All_KF40','KF-Ring-All_KF40',$,(#496));
#499=PRODUCT('KF-Oring-All_KF40','KF-Oring-All_KF40',$,(#496));
#500=PRESENTATION_STYLE_ASSIGNMENT((#503));
#501=PRESENTATION_STYLE_ASSIGNMENT((#504));
#502=PRESENTATION_STYLE_ASSIGNMENT((#505));
#503=SURFACE_STYLE_USAGE(.BOTH.,#506);
#504=SURFACE_STYLE_USAGE(.BOTH.,#507);
#505=SURFACE_STYLE_USAGE(.BOTH.,#508);
#506=SURFACE_SIDE_STYLE('',(#509));
#507=SURFACE_SIDE_STYLE('',(#510));
#508=SURFACE_SIDE_STYLE('',(#511));
#509=SURFACE_STYLE_FILL_AREA(#512);
#510=SURFACE_STYLE_FILL_AREA(#513);
#511=SURFACE_STYLE_FILL_AREA(#514);
#512=FILL_AREA_STYLE('Steel - Satin',(#515));
#513=FILL_AREA_STYLE('Opaque(221,232,255)',(#516));
#514=FILL_AREA_STYLE('Opaque(63,63,63)',(#517));
#515=FILL_AREA_STYLE_COLOUR('Steel - Satin',#518);
#516=FILL_AREA_STYLE_COLOUR('Opaque(221,232,255)',#519);
#517=FILL_AREA_STYLE_COLOUR('Opaque(63,63,63)',#520);
#518=COLOUR_RGB('Steel - Satin',0.627450980392157,0.627450980392157,0.627450980392157);
#519=COLOUR_RGB('Opaque(221,232,255)',0.866666666666667,0.909803921568627,
1.);
#520=COLOUR_RGB('Opaque(63,63,63)',0.250980392156863,0.250980392156863,
0.250980392156863);
ENDSEC;
END-ISO-10303-21;
