ISO-10303-21;
HEADER;
/* Generated by software containing ST-Developer
 * from STEP Tools, Inc. (www.steptools.com) 
 */

FILE_DESCRIPTION(
/* description */ (''),
/* implementation_level */ '2;1');

FILE_NAME(
/* name */ 'Hositrad_FO63-64T-HalfNipple v1.step',
/* time_stamp */ '2024-06-25T14:18:51+02:00',
/* author */ (''),
/* organization */ (''),
/* preprocessor_version */ 'ST-DEVELOPER v20',
/* originating_system */ 'Autodesk Translation Framework v13.14.0.145',

/* authorisation */ '');

FILE_SCHEMA (('AUTOMOTIVE_DESIGN { 1 0 10303 214 3 1 1 }'));
ENDSEC;

DATA;
#10=MECHANICAL_DESIGN_GEOMETRIC_PRESENTATION_REPRESENTATION('',(#73,#74,
#75,#76,#77,#78,#79,#80,#81,#82),#1634);
#11=ITEM_DEFINED_TRANSFORMATION($,$,#938,#1060);
#12=ITEM_DEFINED_TRANSFORMATION($,$,#1051,#1061);
#13=(
REPRESENTATION_RELATIONSHIP($,$,#1648,#1647)
REPRESENTATION_RELATIONSHIP_WITH_TRANSFORMATION(#11)
SHAPE_REPRESENTATION_RELATIONSHIP()
);
#14=(
REPRESENTATION_RELATIONSHIP($,$,#1649,#1647)
REPRESENTATION_RELATIONSHIP_WITH_TRANSFORMATION(#12)
SHAPE_REPRESENTATION_RELATIONSHIP()
);
#15=CONTEXT_DEPENDENT_SHAPE_REPRESENTATION(#13,#1645);
#16=CONTEXT_DEPENDENT_SHAPE_REPRESENTATION(#14,#1646);
#17=NEXT_ASSEMBLY_USAGE_OCCURRENCE('NW63CF-T-weld:1','NW63CF-T-weld:1',
'NW63CF-T-weld:1',#1651,#1652,'NW63CF-T-weld:1');
#18=NEXT_ASSEMBLY_USAGE_OCCURRENCE('Tube 63.5-All_Tube63:1',
'Tube 63.5-All_Tube63:1','Tube 63.5-All_Tube63:1',#1651,#1653,
'Tube 63.5-All_Tube63:1');
#19=SHAPE_REPRESENTATION_RELATIONSHIP('SRR','None',#1648,#21);
#20=SHAPE_REPRESENTATION_RELATIONSHIP('SRR','None',#1649,#22);
#21=ADVANCED_BREP_SHAPE_REPRESENTATION('',(#23),#1632);
#22=ADVANCED_BREP_SHAPE_REPRESENTATION('',(#24),#1633);
#23=MANIFOLD_SOLID_BREP('Body1',#912);
#24=MANIFOLD_SOLID_BREP('Body1',#913);
#25=FACE_BOUND('',#168,.T.);
#26=FACE_BOUND('',#169,.T.);
#27=FACE_BOUND('',#170,.T.);
#28=FACE_BOUND('',#171,.T.);
#29=FACE_BOUND('',#174,.T.);
#30=FACE_BOUND('',#175,.T.);
#31=FACE_BOUND('',#176,.T.);
#32=FACE_BOUND('',#177,.T.);
#33=FACE_BOUND('',#179,.T.);
#34=FACE_BOUND('',#181,.T.);
#35=FACE_BOUND('',#183,.T.);
#36=FACE_BOUND('',#184,.T.);
#37=FACE_BOUND('',#185,.T.);
#38=FACE_BOUND('',#186,.T.);
#39=FACE_BOUND('',#187,.T.);
#40=FACE_BOUND('',#188,.T.);
#41=FACE_BOUND('',#189,.T.);
#42=FACE_BOUND('',#190,.T.);
#43=FACE_BOUND('',#191,.T.);
#44=FACE_BOUND('',#201,.T.);
#45=FACE_BOUND('',#203,.T.);
#46=PLANE('',#1038);
#47=PLANE('',#1041);
#48=PLANE('',#1042);
#49=PLANE('',#1043);
#50=PLANE('',#1044);
#51=PLANE('',#1045);
#52=PLANE('',#1046);
#53=PLANE('',#1047);
#54=PLANE('',#1048);
#55=PLANE('',#1049);
#56=PLANE('',#1050);
#57=PLANE('',#1058);
#58=PLANE('',#1059);
#59=CYLINDRICAL_SURFACE('',#942,3.39999999999999);
#60=CYLINDRICAL_SURFACE('',#950,3.4);
#61=CYLINDRICAL_SURFACE('',#958,3.39999999999999);
#62=CYLINDRICAL_SURFACE('',#966,3.4);
#63=CYLINDRICAL_SURFACE('',#974,3.39999999999999);
#64=CYLINDRICAL_SURFACE('',#982,3.4);
#65=CYLINDRICAL_SURFACE('',#990,3.4);
#66=CYLINDRICAL_SURFACE('',#998,3.4);
#67=CYLINDRICAL_SURFACE('',#1017,31.9);
#68=CYLINDRICAL_SURFACE('',#1019,30.15);
#69=CYLINDRICAL_SURFACE('',#1027,41.275);
#70=CYLINDRICAL_SURFACE('',#1033,56.75);
#71=CYLINDRICAL_SURFACE('',#1052,29.75);
#72=CYLINDRICAL_SURFACE('',#1055,31.75);
#73=STYLED_ITEM('',(#1668),#863);
#74=STYLED_ITEM('',(#1668),#866);
#75=STYLED_ITEM('',(#1668),#869);
#76=STYLED_ITEM('',(#1668),#872);
#77=STYLED_ITEM('',(#1668),#875);
#78=STYLED_ITEM('',(#1668),#878);
#79=STYLED_ITEM('',(#1668),#881);
#80=STYLED_ITEM('',(#1668),#884);
#81=STYLED_ITEM('',(#1667),#23);
#82=STYLED_ITEM('',(#1669),#24);
#83=FACE_OUTER_BOUND('',#133,.T.);
#84=FACE_OUTER_BOUND('',#134,.T.);
#85=FACE_OUTER_BOUND('',#135,.T.);
#86=FACE_OUTER_BOUND('',#136,.T.);
#87=FACE_OUTER_BOUND('',#137,.T.);
#88=FACE_OUTER_BOUND('',#138,.T.);
#89=FACE_OUTER_BOUND('',#139,.T.);
#90=FACE_OUTER_BOUND('',#140,.T.);
#91=FACE_OUTER_BOUND('',#141,.T.);
#92=FACE_OUTER_BOUND('',#142,.T.);
#93=FACE_OUTER_BOUND('',#143,.T.);
#94=FACE_OUTER_BOUND('',#144,.T.);
#95=FACE_OUTER_BOUND('',#145,.T.);
#96=FACE_OUTER_BOUND('',#146,.T.);
#97=FACE_OUTER_BOUND('',#147,.T.);
#98=FACE_OUTER_BOUND('',#148,.T.);
#99=FACE_OUTER_BOUND('',#149,.T.);
#100=FACE_OUTER_BOUND('',#150,.T.);
#101=FACE_OUTER_BOUND('',#151,.T.);
#102=FACE_OUTER_BOUND('',#152,.T.);
#103=FACE_OUTER_BOUND('',#153,.T.);
#104=FACE_OUTER_BOUND('',#154,.T.);
#105=FACE_OUTER_BOUND('',#155,.T.);
#106=FACE_OUTER_BOUND('',#156,.T.);
#107=FACE_OUTER_BOUND('',#157,.T.);
#108=FACE_OUTER_BOUND('',#158,.T.);
#109=FACE_OUTER_BOUND('',#159,.T.);
#110=FACE_OUTER_BOUND('',#160,.T.);
#111=FACE_OUTER_BOUND('',#161,.T.);
#112=FACE_OUTER_BOUND('',#162,.T.);
#113=FACE_OUTER_BOUND('',#163,.T.);
#114=FACE_OUTER_BOUND('',#164,.T.);
#115=FACE_OUTER_BOUND('',#165,.T.);
#116=FACE_OUTER_BOUND('',#166,.T.);
#117=FACE_OUTER_BOUND('',#167,.T.);
#118=FACE_OUTER_BOUND('',#172,.T.);
#119=FACE_OUTER_BOUND('',#173,.T.);
#120=FACE_OUTER_BOUND('',#178,.T.);
#121=FACE_OUTER_BOUND('',#180,.T.);
#122=FACE_OUTER_BOUND('',#182,.T.);
#123=FACE_OUTER_BOUND('',#192,.T.);
#124=FACE_OUTER_BOUND('',#193,.T.);
#125=FACE_OUTER_BOUND('',#194,.T.);
#126=FACE_OUTER_BOUND('',#195,.T.);
#127=FACE_OUTER_BOUND('',#196,.T.);
#128=FACE_OUTER_BOUND('',#197,.T.);
#129=FACE_OUTER_BOUND('',#198,.T.);
#130=FACE_OUTER_BOUND('',#199,.T.);
#131=FACE_OUTER_BOUND('',#200,.T.);
#132=FACE_OUTER_BOUND('',#202,.T.);
#133=EDGE_LOOP('',(#589,#590,#591,#592));
#134=EDGE_LOOP('',(#593,#594,#595,#596,#597));
#135=EDGE_LOOP('',(#598,#599,#600,#601,#602));
#136=EDGE_LOOP('',(#603,#604,#605,#606));
#137=EDGE_LOOP('',(#607,#608,#609,#610,#611));
#138=EDGE_LOOP('',(#612,#613,#614,#615,#616));
#139=EDGE_LOOP('',(#617,#618,#619,#620));
#140=EDGE_LOOP('',(#621,#622,#623,#624,#625));
#141=EDGE_LOOP('',(#626,#627,#628,#629,#630));
#142=EDGE_LOOP('',(#631,#632,#633,#634));
#143=EDGE_LOOP('',(#635,#636,#637,#638,#639));
#144=EDGE_LOOP('',(#640,#641,#642,#643,#644));
#145=EDGE_LOOP('',(#645,#646,#647,#648));
#146=EDGE_LOOP('',(#649,#650,#651,#652,#653));
#147=EDGE_LOOP('',(#654,#655,#656,#657,#658));
#148=EDGE_LOOP('',(#659,#660,#661,#662));
#149=EDGE_LOOP('',(#663,#664,#665,#666,#667));
#150=EDGE_LOOP('',(#668,#669,#670,#671,#672));
#151=EDGE_LOOP('',(#673,#674,#675,#676));
#152=EDGE_LOOP('',(#677,#678,#679,#680,#681));
#153=EDGE_LOOP('',(#682,#683,#684,#685,#686));
#154=EDGE_LOOP('',(#687,#688,#689,#690));
#155=EDGE_LOOP('',(#691,#692,#693,#694,#695));
#156=EDGE_LOOP('',(#696,#697,#698,#699,#700));
#157=EDGE_LOOP('',(#701,#702,#703,#704,#705));
#158=EDGE_LOOP('',(#706,#707,#708,#709));
#159=EDGE_LOOP('',(#710,#711,#712,#713,#714));
#160=EDGE_LOOP('',(#715,#716,#717,#718));
#161=EDGE_LOOP('',(#719,#720,#721,#722));
#162=EDGE_LOOP('',(#723,#724,#725,#726,#727));
#163=EDGE_LOOP('',(#728,#729,#730,#731,#732));
#164=EDGE_LOOP('',(#733,#734,#735,#736,#737));
#165=EDGE_LOOP('',(#738,#739,#740,#741,#742,#743,#744,#745,#746,#747,#748,
#749));
#166=EDGE_LOOP('',(#750,#751,#752,#753,#754,#755,#756,#757,#758,#759,#760,
#761,#762));
#167=EDGE_LOOP('',(#763,#764,#765,#766,#767));
#168=EDGE_LOOP('',(#768));
#169=EDGE_LOOP('',(#769));
#170=EDGE_LOOP('',(#770));
#171=EDGE_LOOP('',(#771));
#172=EDGE_LOOP('',(#772,#773,#774,#775,#776));
#173=EDGE_LOOP('',(#777,#778,#779,#780));
#174=EDGE_LOOP('',(#781));
#175=EDGE_LOOP('',(#782));
#176=EDGE_LOOP('',(#783));
#177=EDGE_LOOP('',(#784));
#178=EDGE_LOOP('',(#785));
#179=EDGE_LOOP('',(#786));
#180=EDGE_LOOP('',(#787));
#181=EDGE_LOOP('',(#788));
#182=EDGE_LOOP('',(#789));
#183=EDGE_LOOP('',(#790));
#184=EDGE_LOOP('',(#791));
#185=EDGE_LOOP('',(#792));
#186=EDGE_LOOP('',(#793));
#187=EDGE_LOOP('',(#794));
#188=EDGE_LOOP('',(#795));
#189=EDGE_LOOP('',(#796));
#190=EDGE_LOOP('',(#797));
#191=EDGE_LOOP('',(#798));
#192=EDGE_LOOP('',(#799,#800,#801,#802));
#193=EDGE_LOOP('',(#803,#804,#805,#806,#807));
#194=EDGE_LOOP('',(#808,#809,#810,#811,#812));
#195=EDGE_LOOP('',(#813,#814,#815,#816));
#196=EDGE_LOOP('',(#817,#818,#819,#820,#821));
#197=EDGE_LOOP('',(#822,#823,#824,#825,#826));
#198=EDGE_LOOP('',(#827,#828,#829,#830));
#199=EDGE_LOOP('',(#831,#832,#833,#834));
#200=EDGE_LOOP('',(#835));
#201=EDGE_LOOP('',(#836));
#202=EDGE_LOOP('',(#837));
#203=EDGE_LOOP('',(#838));
#204=LINE('',#1373,#259);
#205=LINE('',#1380,#260);
#206=LINE('',#1383,#261);
#207=LINE('',#1389,#262);
#208=LINE('',#1396,#263);
#209=LINE('',#1399,#264);
#210=LINE('',#1405,#265);
#211=LINE('',#1412,#266);
#212=LINE('',#1415,#267);
#213=LINE('',#1421,#268);
#214=LINE('',#1428,#269);
#215=LINE('',#1431,#270);
#216=LINE('',#1437,#271);
#217=LINE('',#1444,#272);
#218=LINE('',#1447,#273);
#219=LINE('',#1453,#274);
#220=LINE('',#1460,#275);
#221=LINE('',#1463,#276);
#222=LINE('',#1469,#277);
#223=LINE('',#1476,#278);
#224=LINE('',#1479,#279);
#225=LINE('',#1485,#280);
#226=LINE('',#1492,#281);
#227=LINE('',#1495,#282);
#228=LINE('',#1503,#283);
#229=LINE('',#1509,#284);
#230=LINE('',#1517,#285);
#231=LINE('',#1524,#286);
#232=LINE('',#1527,#287);
#233=LINE('',#1531,#288);
#234=LINE('',#1534,#289);
#235=LINE('',#1540,#290);
#236=LINE('',#1547,#291);
#237=LINE('',#1553,#292);
#238=LINE('',#1557,#293);
#239=LINE('',#1560,#294);
#240=LINE('',#1564,#295);
#241=LINE('',#1567,#296);
#242=LINE('',#1570,#297);
#243=LINE('',#1574,#298);
#244=LINE('',#1577,#299);
#245=LINE('',#1579,#300);
#246=LINE('',#1583,#301);
#247=LINE('',#1589,#302);
#248=LINE('',#1590,#303);
#249=LINE('',#1592,#304);
#250=LINE('',#1593,#305);
#251=LINE('',#1595,#306);
#252=LINE('',#1596,#307);
#253=LINE('',#1601,#308);
#254=LINE('',#1602,#309);
#255=LINE('',#1606,#310);
#256=LINE('',#1607,#311);
#257=LINE('',#1615,#312);
#258=LINE('',#1621,#313);
#259=VECTOR('',#1070,4.2);
#260=VECTOR('',#1079,3.39999999999999);
#261=VECTOR('',#1082,3.39999999999999);
#262=VECTOR('',#1089,4.2);
#263=VECTOR('',#1098,3.4);
#264=VECTOR('',#1101,3.39999999999999);
#265=VECTOR('',#1108,4.2);
#266=VECTOR('',#1117,3.39999999999999);
#267=VECTOR('',#1120,3.39999999999999);
#268=VECTOR('',#1127,4.2);
#269=VECTOR('',#1136,3.4);
#270=VECTOR('',#1139,3.39999999999999);
#271=VECTOR('',#1146,4.2);
#272=VECTOR('',#1155,3.39999999999999);
#273=VECTOR('',#1158,3.39999999999999);
#274=VECTOR('',#1165,4.2);
#275=VECTOR('',#1174,3.4);
#276=VECTOR('',#1177,3.39999999999999);
#277=VECTOR('',#1184,4.2);
#278=VECTOR('',#1193,3.4);
#279=VECTOR('',#1196,3.39999999999999);
#280=VECTOR('',#1203,4.2);
#281=VECTOR('',#1212,3.4);
#282=VECTOR('',#1215,3.39999999999999);
#283=VECTOR('',#1224,30.65);
#284=VECTOR('',#1231,31.9);
#285=VECTOR('',#1240,56.25);
#286=VECTOR('',#1247,10.);
#287=VECTOR('',#1250,10.);
#288=VECTOR('',#1255,31.9);
#289=VECTOR('',#1258,30.15);
#290=VECTOR('',#1265,38.3816178594403);
#291=VECTOR('',#1274,38.6);
#292=VECTOR('',#1279,1000.);
#293=VECTOR('',#1282,1000.);
#294=VECTOR('',#1285,41.275);
#295=VECTOR('',#1288,1000.);
#296=VECTOR('',#1291,1000.);
#297=VECTOR('',#1294,56.75);
#298=VECTOR('',#1297,1000.);
#299=VECTOR('',#1300,1000.);
#300=VECTOR('',#1301,1000.);
#301=VECTOR('',#1304,1000.);
#302=VECTOR('',#1311,1000.);
#303=VECTOR('',#1312,1000.);
#304=VECTOR('',#1315,10.);
#305=VECTOR('',#1316,10.);
#306=VECTOR('',#1319,1000.);
#307=VECTOR('',#1320,1000.);
#308=VECTOR('',#1329,1000.);
#309=VECTOR('',#1330,1000.);
#310=VECTOR('',#1337,1000.);
#311=VECTOR('',#1338,1000.);
#312=VECTOR('',#1349,29.75);
#313=VECTOR('',#1356,31.75);
#314=CIRCLE('',#940,3.4);
#315=CIRCLE('',#941,4.2);
#316=CIRCLE('',#943,3.39999999999999);
#317=CIRCLE('',#944,3.39999999999999);
#318=CIRCLE('',#946,4.2);
#319=CIRCLE('',#948,3.4);
#320=CIRCLE('',#949,4.2);
#321=CIRCLE('',#951,3.39999999999999);
#322=CIRCLE('',#952,3.39999999999999);
#323=CIRCLE('',#954,4.2);
#324=CIRCLE('',#956,3.4);
#325=CIRCLE('',#957,4.2);
#326=CIRCLE('',#959,3.39999999999999);
#327=CIRCLE('',#960,3.39999999999999);
#328=CIRCLE('',#962,4.2);
#329=CIRCLE('',#964,3.4);
#330=CIRCLE('',#965,4.2);
#331=CIRCLE('',#967,3.39999999999999);
#332=CIRCLE('',#968,3.39999999999999);
#333=CIRCLE('',#970,4.2);
#334=CIRCLE('',#972,3.4);
#335=CIRCLE('',#973,4.2);
#336=CIRCLE('',#975,3.39999999999999);
#337=CIRCLE('',#976,3.39999999999999);
#338=CIRCLE('',#978,4.2);
#339=CIRCLE('',#980,3.4);
#340=CIRCLE('',#981,4.2);
#341=CIRCLE('',#983,3.39999999999999);
#342=CIRCLE('',#984,3.39999999999999);
#343=CIRCLE('',#986,4.2);
#344=CIRCLE('',#988,3.4);
#345=CIRCLE('',#989,4.2);
#346=CIRCLE('',#991,3.39999999999999);
#347=CIRCLE('',#992,3.39999999999999);
#348=CIRCLE('',#994,4.2);
#349=CIRCLE('',#996,3.4);
#350=CIRCLE('',#997,4.2);
#351=CIRCLE('',#999,3.39999999999999);
#352=CIRCLE('',#1000,3.39999999999999);
#353=CIRCLE('',#1002,4.2);
#354=CIRCLE('',#1004,30.15);
#355=CIRCLE('',#1005,30.15);
#356=CIRCLE('',#1006,30.65);
#357=CIRCLE('',#1008,31.9);
#358=CIRCLE('',#1009,32.4);
#359=CIRCLE('',#1011,56.75);
#360=CIRCLE('',#1012,56.75);
#361=CIRCLE('',#1013,56.25);
#362=CIRCLE('',#1015,56.25);
#363=CIRCLE('',#1016,56.75);
#364=CIRCLE('',#1018,31.9);
#365=CIRCLE('',#1020,30.15);
#366=CIRCLE('',#1022,38.3816178594403);
#367=CIRCLE('',#1023,38.6);
#368=CIRCLE('',#1024,38.6);
#369=CIRCLE('',#1026,41.275);
#370=CIRCLE('',#1028,41.275);
#371=CIRCLE('',#1029,41.275);
#372=CIRCLE('',#1030,41.275);
#373=CIRCLE('',#1031,41.275);
#374=CIRCLE('',#1032,41.275);
#375=CIRCLE('',#1034,56.75);
#376=CIRCLE('',#1035,56.75);
#377=CIRCLE('',#1036,56.75);
#378=CIRCLE('',#1037,56.75);
#379=CIRCLE('',#1039,56.25);
#380=CIRCLE('',#1053,29.75);
#381=CIRCLE('',#1054,29.75);
#382=CIRCLE('',#1056,31.75);
#383=CIRCLE('',#1057,31.75);
#384=VERTEX_POINT('',#1370);
#385=VERTEX_POINT('',#1372);
#386=VERTEX_POINT('',#1376);
#387=VERTEX_POINT('',#1377);
#388=VERTEX_POINT('',#1382);
#389=VERTEX_POINT('',#1386);
#390=VERTEX_POINT('',#1388);
#391=VERTEX_POINT('',#1392);
#392=VERTEX_POINT('',#1393);
#393=VERTEX_POINT('',#1398);
#394=VERTEX_POINT('',#1402);
#395=VERTEX_POINT('',#1404);
#396=VERTEX_POINT('',#1408);
#397=VERTEX_POINT('',#1409);
#398=VERTEX_POINT('',#1414);
#399=VERTEX_POINT('',#1418);
#400=VERTEX_POINT('',#1420);
#401=VERTEX_POINT('',#1424);
#402=VERTEX_POINT('',#1425);
#403=VERTEX_POINT('',#1430);
#404=VERTEX_POINT('',#1434);
#405=VERTEX_POINT('',#1436);
#406=VERTEX_POINT('',#1440);
#407=VERTEX_POINT('',#1441);
#408=VERTEX_POINT('',#1446);
#409=VERTEX_POINT('',#1450);
#410=VERTEX_POINT('',#1452);
#411=VERTEX_POINT('',#1456);
#412=VERTEX_POINT('',#1457);
#413=VERTEX_POINT('',#1462);
#414=VERTEX_POINT('',#1466);
#415=VERTEX_POINT('',#1468);
#416=VERTEX_POINT('',#1472);
#417=VERTEX_POINT('',#1473);
#418=VERTEX_POINT('',#1478);
#419=VERTEX_POINT('',#1482);
#420=VERTEX_POINT('',#1484);
#421=VERTEX_POINT('',#1488);
#422=VERTEX_POINT('',#1489);
#423=VERTEX_POINT('',#1494);
#424=VERTEX_POINT('',#1498);
#425=VERTEX_POINT('',#1499);
#426=VERTEX_POINT('',#1502);
#427=VERTEX_POINT('',#1506);
#428=VERTEX_POINT('',#1508);
#429=VERTEX_POINT('',#1512);
#430=VERTEX_POINT('',#1513);
#431=VERTEX_POINT('',#1516);
#432=VERTEX_POINT('',#1520);
#433=VERTEX_POINT('',#1521);
#434=VERTEX_POINT('',#1523);
#435=VERTEX_POINT('',#1525);
#436=VERTEX_POINT('',#1529);
#437=VERTEX_POINT('',#1533);
#438=VERTEX_POINT('',#1537);
#439=VERTEX_POINT('',#1539);
#440=VERTEX_POINT('',#1541);
#441=VERTEX_POINT('',#1545);
#442=VERTEX_POINT('',#1549);
#443=VERTEX_POINT('',#1550);
#444=VERTEX_POINT('',#1552);
#445=VERTEX_POINT('',#1554);
#446=VERTEX_POINT('',#1556);
#447=VERTEX_POINT('',#1558);
#448=VERTEX_POINT('',#1561);
#449=VERTEX_POINT('',#1563);
#450=VERTEX_POINT('',#1565);
#451=VERTEX_POINT('',#1569);
#452=VERTEX_POINT('',#1571);
#453=VERTEX_POINT('',#1573);
#454=VERTEX_POINT('',#1575);
#455=VERTEX_POINT('',#1578);
#456=VERTEX_POINT('',#1580);
#457=VERTEX_POINT('',#1582);
#458=VERTEX_POINT('',#1586);
#459=VERTEX_POINT('',#1587);
#460=VERTEX_POINT('',#1612);
#461=VERTEX_POINT('',#1614);
#462=VERTEX_POINT('',#1618);
#463=VERTEX_POINT('',#1620);
#464=EDGE_CURVE('',#384,#384,#314,.T.);
#465=EDGE_CURVE('',#384,#385,#204,.T.);
#466=EDGE_CURVE('',#385,#385,#315,.T.);
#467=EDGE_CURVE('',#386,#387,#316,.T.);
#468=EDGE_CURVE('',#387,#386,#317,.T.);
#469=EDGE_CURVE('',#387,#384,#205,.T.);
#470=EDGE_CURVE('',#386,#388,#206,.T.);
#471=EDGE_CURVE('',#388,#388,#318,.T.);
#472=EDGE_CURVE('',#389,#389,#319,.T.);
#473=EDGE_CURVE('',#389,#390,#207,.T.);
#474=EDGE_CURVE('',#390,#390,#320,.T.);
#475=EDGE_CURVE('',#391,#392,#321,.T.);
#476=EDGE_CURVE('',#392,#391,#322,.T.);
#477=EDGE_CURVE('',#392,#389,#208,.T.);
#478=EDGE_CURVE('',#391,#393,#209,.T.);
#479=EDGE_CURVE('',#393,#393,#323,.T.);
#480=EDGE_CURVE('',#394,#394,#324,.T.);
#481=EDGE_CURVE('',#394,#395,#210,.T.);
#482=EDGE_CURVE('',#395,#395,#325,.T.);
#483=EDGE_CURVE('',#396,#397,#326,.T.);
#484=EDGE_CURVE('',#397,#396,#327,.T.);
#485=EDGE_CURVE('',#397,#394,#211,.T.);
#486=EDGE_CURVE('',#396,#398,#212,.T.);
#487=EDGE_CURVE('',#398,#398,#328,.T.);
#488=EDGE_CURVE('',#399,#399,#329,.T.);
#489=EDGE_CURVE('',#399,#400,#213,.T.);
#490=EDGE_CURVE('',#400,#400,#330,.T.);
#491=EDGE_CURVE('',#401,#402,#331,.T.);
#492=EDGE_CURVE('',#402,#401,#332,.T.);
#493=EDGE_CURVE('',#402,#399,#214,.T.);
#494=EDGE_CURVE('',#401,#403,#215,.T.);
#495=EDGE_CURVE('',#403,#403,#333,.T.);
#496=EDGE_CURVE('',#404,#404,#334,.T.);
#497=EDGE_CURVE('',#404,#405,#216,.T.);
#498=EDGE_CURVE('',#405,#405,#335,.T.);
#499=EDGE_CURVE('',#406,#407,#336,.T.);
#500=EDGE_CURVE('',#407,#406,#337,.T.);
#501=EDGE_CURVE('',#407,#404,#217,.T.);
#502=EDGE_CURVE('',#406,#408,#218,.T.);
#503=EDGE_CURVE('',#408,#408,#338,.T.);
#504=EDGE_CURVE('',#409,#409,#339,.T.);
#505=EDGE_CURVE('',#409,#410,#219,.T.);
#506=EDGE_CURVE('',#410,#410,#340,.T.);
#507=EDGE_CURVE('',#411,#412,#341,.T.);
#508=EDGE_CURVE('',#412,#411,#342,.T.);
#509=EDGE_CURVE('',#412,#409,#220,.T.);
#510=EDGE_CURVE('',#411,#413,#221,.T.);
#511=EDGE_CURVE('',#413,#413,#343,.T.);
#512=EDGE_CURVE('',#414,#414,#344,.T.);
#513=EDGE_CURVE('',#414,#415,#222,.T.);
#514=EDGE_CURVE('',#415,#415,#345,.T.);
#515=EDGE_CURVE('',#416,#417,#346,.T.);
#516=EDGE_CURVE('',#417,#416,#347,.T.);
#517=EDGE_CURVE('',#417,#414,#223,.T.);
#518=EDGE_CURVE('',#416,#418,#224,.T.);
#519=EDGE_CURVE('',#418,#418,#348,.T.);
#520=EDGE_CURVE('',#419,#419,#349,.T.);
#521=EDGE_CURVE('',#419,#420,#225,.T.);
#522=EDGE_CURVE('',#420,#420,#350,.T.);
#523=EDGE_CURVE('',#421,#422,#351,.T.);
#524=EDGE_CURVE('',#422,#421,#352,.T.);
#525=EDGE_CURVE('',#422,#419,#226,.T.);
#526=EDGE_CURVE('',#421,#423,#227,.T.);
#527=EDGE_CURVE('',#423,#423,#353,.T.);
#528=EDGE_CURVE('',#424,#425,#354,.T.);
#529=EDGE_CURVE('',#425,#424,#355,.T.);
#530=EDGE_CURVE('',#425,#426,#228,.T.);
#531=EDGE_CURVE('',#426,#426,#356,.T.);
#532=EDGE_CURVE('',#427,#427,#357,.T.);
#533=EDGE_CURVE('',#427,#428,#229,.T.);
#534=EDGE_CURVE('',#428,#428,#358,.T.);
#535=EDGE_CURVE('',#429,#430,#359,.T.);
#536=EDGE_CURVE('',#430,#429,#360,.T.);
#537=EDGE_CURVE('',#430,#431,#230,.T.);
#538=EDGE_CURVE('',#431,#431,#361,.T.);
#539=EDGE_CURVE('',#432,#433,#362,.T.);
#540=EDGE_CURVE('',#434,#432,#231,.T.);
#541=EDGE_CURVE('',#435,#434,#363,.T.);
#542=EDGE_CURVE('',#433,#435,#232,.T.);
#543=EDGE_CURVE('',#436,#436,#364,.T.);
#544=EDGE_CURVE('',#436,#427,#233,.T.);
#545=EDGE_CURVE('',#424,#437,#234,.T.);
#546=EDGE_CURVE('',#437,#437,#365,.T.);
#547=EDGE_CURVE('',#438,#438,#366,.T.);
#548=EDGE_CURVE('',#438,#439,#235,.T.);
#549=EDGE_CURVE('',#440,#439,#367,.T.);
#550=EDGE_CURVE('',#439,#440,#368,.T.);
#551=EDGE_CURVE('',#441,#441,#369,.T.);
#552=EDGE_CURVE('',#441,#440,#236,.T.);
#553=EDGE_CURVE('',#442,#443,#370,.T.);
#554=EDGE_CURVE('',#442,#444,#237,.T.);
#555=EDGE_CURVE('',#445,#444,#371,.T.);
#556=EDGE_CURVE('',#445,#446,#238,.T.);
#557=EDGE_CURVE('',#447,#446,#372,.T.);
#558=EDGE_CURVE('',#447,#441,#239,.T.);
#559=EDGE_CURVE('',#448,#447,#373,.T.);
#560=EDGE_CURVE('',#448,#449,#240,.T.);
#561=EDGE_CURVE('',#450,#449,#374,.T.);
#562=EDGE_CURVE('',#450,#443,#241,.T.);
#563=EDGE_CURVE('',#429,#451,#242,.T.);
#564=EDGE_CURVE('',#451,#452,#375,.T.);
#565=EDGE_CURVE('',#452,#453,#243,.T.);
#566=EDGE_CURVE('',#454,#453,#376,.T.);
#567=EDGE_CURVE('',#454,#435,#244,.T.);
#568=EDGE_CURVE('',#434,#455,#245,.T.);
#569=EDGE_CURVE('',#456,#455,#377,.T.);
#570=EDGE_CURVE('',#456,#457,#246,.T.);
#571=EDGE_CURVE('',#457,#451,#378,.T.);
#572=EDGE_CURVE('',#458,#459,#379,.T.);
#573=EDGE_CURVE('',#448,#459,#247,.T.);
#574=EDGE_CURVE('',#458,#446,#248,.T.);
#575=EDGE_CURVE('',#459,#457,#249,.T.);
#576=EDGE_CURVE('',#452,#458,#250,.T.);
#577=EDGE_CURVE('',#432,#443,#251,.T.);
#578=EDGE_CURVE('',#442,#433,#252,.T.);
#579=EDGE_CURVE('',#453,#445,#253,.T.);
#580=EDGE_CURVE('',#444,#454,#254,.T.);
#581=EDGE_CURVE('',#455,#450,#255,.T.);
#582=EDGE_CURVE('',#449,#456,#256,.T.);
#583=EDGE_CURVE('',#460,#460,#380,.T.);
#584=EDGE_CURVE('',#460,#461,#257,.T.);
#585=EDGE_CURVE('',#461,#461,#381,.T.);
#586=EDGE_CURVE('',#462,#462,#382,.T.);
#587=EDGE_CURVE('',#462,#463,#258,.T.);
#588=EDGE_CURVE('',#463,#463,#383,.T.);
#589=ORIENTED_EDGE('',*,*,#464,.F.);
#590=ORIENTED_EDGE('',*,*,#465,.T.);
#591=ORIENTED_EDGE('',*,*,#466,.T.);
#592=ORIENTED_EDGE('',*,*,#465,.F.);
#593=ORIENTED_EDGE('',*,*,#467,.F.);
#594=ORIENTED_EDGE('',*,*,#468,.F.);
#595=ORIENTED_EDGE('',*,*,#469,.T.);
#596=ORIENTED_EDGE('',*,*,#464,.T.);
#597=ORIENTED_EDGE('',*,*,#469,.F.);
#598=ORIENTED_EDGE('',*,*,#467,.T.);
#599=ORIENTED_EDGE('',*,*,#468,.T.);
#600=ORIENTED_EDGE('',*,*,#470,.T.);
#601=ORIENTED_EDGE('',*,*,#471,.F.);
#602=ORIENTED_EDGE('',*,*,#470,.F.);
#603=ORIENTED_EDGE('',*,*,#472,.F.);
#604=ORIENTED_EDGE('',*,*,#473,.T.);
#605=ORIENTED_EDGE('',*,*,#474,.T.);
#606=ORIENTED_EDGE('',*,*,#473,.F.);
#607=ORIENTED_EDGE('',*,*,#475,.F.);
#608=ORIENTED_EDGE('',*,*,#476,.F.);
#609=ORIENTED_EDGE('',*,*,#477,.T.);
#610=ORIENTED_EDGE('',*,*,#472,.T.);
#611=ORIENTED_EDGE('',*,*,#477,.F.);
#612=ORIENTED_EDGE('',*,*,#475,.T.);
#613=ORIENTED_EDGE('',*,*,#476,.T.);
#614=ORIENTED_EDGE('',*,*,#478,.T.);
#615=ORIENTED_EDGE('',*,*,#479,.F.);
#616=ORIENTED_EDGE('',*,*,#478,.F.);
#617=ORIENTED_EDGE('',*,*,#480,.F.);
#618=ORIENTED_EDGE('',*,*,#481,.T.);
#619=ORIENTED_EDGE('',*,*,#482,.T.);
#620=ORIENTED_EDGE('',*,*,#481,.F.);
#621=ORIENTED_EDGE('',*,*,#483,.F.);
#622=ORIENTED_EDGE('',*,*,#484,.F.);
#623=ORIENTED_EDGE('',*,*,#485,.T.);
#624=ORIENTED_EDGE('',*,*,#480,.T.);
#625=ORIENTED_EDGE('',*,*,#485,.F.);
#626=ORIENTED_EDGE('',*,*,#483,.T.);
#627=ORIENTED_EDGE('',*,*,#484,.T.);
#628=ORIENTED_EDGE('',*,*,#486,.T.);
#629=ORIENTED_EDGE('',*,*,#487,.F.);
#630=ORIENTED_EDGE('',*,*,#486,.F.);
#631=ORIENTED_EDGE('',*,*,#488,.F.);
#632=ORIENTED_EDGE('',*,*,#489,.T.);
#633=ORIENTED_EDGE('',*,*,#490,.T.);
#634=ORIENTED_EDGE('',*,*,#489,.F.);
#635=ORIENTED_EDGE('',*,*,#491,.F.);
#636=ORIENTED_EDGE('',*,*,#492,.F.);
#637=ORIENTED_EDGE('',*,*,#493,.T.);
#638=ORIENTED_EDGE('',*,*,#488,.T.);
#639=ORIENTED_EDGE('',*,*,#493,.F.);
#640=ORIENTED_EDGE('',*,*,#491,.T.);
#641=ORIENTED_EDGE('',*,*,#492,.T.);
#642=ORIENTED_EDGE('',*,*,#494,.T.);
#643=ORIENTED_EDGE('',*,*,#495,.F.);
#644=ORIENTED_EDGE('',*,*,#494,.F.);
#645=ORIENTED_EDGE('',*,*,#496,.F.);
#646=ORIENTED_EDGE('',*,*,#497,.T.);
#647=ORIENTED_EDGE('',*,*,#498,.T.);
#648=ORIENTED_EDGE('',*,*,#497,.F.);
#649=ORIENTED_EDGE('',*,*,#499,.F.);
#650=ORIENTED_EDGE('',*,*,#500,.F.);
#651=ORIENTED_EDGE('',*,*,#501,.T.);
#652=ORIENTED_EDGE('',*,*,#496,.T.);
#653=ORIENTED_EDGE('',*,*,#501,.F.);
#654=ORIENTED_EDGE('',*,*,#499,.T.);
#655=ORIENTED_EDGE('',*,*,#500,.T.);
#656=ORIENTED_EDGE('',*,*,#502,.T.);
#657=ORIENTED_EDGE('',*,*,#503,.F.);
#658=ORIENTED_EDGE('',*,*,#502,.F.);
#659=ORIENTED_EDGE('',*,*,#504,.F.);
#660=ORIENTED_EDGE('',*,*,#505,.T.);
#661=ORIENTED_EDGE('',*,*,#506,.T.);
#662=ORIENTED_EDGE('',*,*,#505,.F.);
#663=ORIENTED_EDGE('',*,*,#507,.F.);
#664=ORIENTED_EDGE('',*,*,#508,.F.);
#665=ORIENTED_EDGE('',*,*,#509,.T.);
#666=ORIENTED_EDGE('',*,*,#504,.T.);
#667=ORIENTED_EDGE('',*,*,#509,.F.);
#668=ORIENTED_EDGE('',*,*,#507,.T.);
#669=ORIENTED_EDGE('',*,*,#508,.T.);
#670=ORIENTED_EDGE('',*,*,#510,.T.);
#671=ORIENTED_EDGE('',*,*,#511,.F.);
#672=ORIENTED_EDGE('',*,*,#510,.F.);
#673=ORIENTED_EDGE('',*,*,#512,.F.);
#674=ORIENTED_EDGE('',*,*,#513,.T.);
#675=ORIENTED_EDGE('',*,*,#514,.T.);
#676=ORIENTED_EDGE('',*,*,#513,.F.);
#677=ORIENTED_EDGE('',*,*,#515,.F.);
#678=ORIENTED_EDGE('',*,*,#516,.F.);
#679=ORIENTED_EDGE('',*,*,#517,.T.);
#680=ORIENTED_EDGE('',*,*,#512,.T.);
#681=ORIENTED_EDGE('',*,*,#517,.F.);
#682=ORIENTED_EDGE('',*,*,#515,.T.);
#683=ORIENTED_EDGE('',*,*,#516,.T.);
#684=ORIENTED_EDGE('',*,*,#518,.T.);
#685=ORIENTED_EDGE('',*,*,#519,.F.);
#686=ORIENTED_EDGE('',*,*,#518,.F.);
#687=ORIENTED_EDGE('',*,*,#520,.F.);
#688=ORIENTED_EDGE('',*,*,#521,.T.);
#689=ORIENTED_EDGE('',*,*,#522,.T.);
#690=ORIENTED_EDGE('',*,*,#521,.F.);
#691=ORIENTED_EDGE('',*,*,#523,.F.);
#692=ORIENTED_EDGE('',*,*,#524,.F.);
#693=ORIENTED_EDGE('',*,*,#525,.T.);
#694=ORIENTED_EDGE('',*,*,#520,.T.);
#695=ORIENTED_EDGE('',*,*,#525,.F.);
#696=ORIENTED_EDGE('',*,*,#523,.T.);
#697=ORIENTED_EDGE('',*,*,#524,.T.);
#698=ORIENTED_EDGE('',*,*,#526,.T.);
#699=ORIENTED_EDGE('',*,*,#527,.F.);
#700=ORIENTED_EDGE('',*,*,#526,.F.);
#701=ORIENTED_EDGE('',*,*,#528,.F.);
#702=ORIENTED_EDGE('',*,*,#529,.F.);
#703=ORIENTED_EDGE('',*,*,#530,.T.);
#704=ORIENTED_EDGE('',*,*,#531,.F.);
#705=ORIENTED_EDGE('',*,*,#530,.F.);
#706=ORIENTED_EDGE('',*,*,#532,.F.);
#707=ORIENTED_EDGE('',*,*,#533,.T.);
#708=ORIENTED_EDGE('',*,*,#534,.F.);
#709=ORIENTED_EDGE('',*,*,#533,.F.);
#710=ORIENTED_EDGE('',*,*,#535,.F.);
#711=ORIENTED_EDGE('',*,*,#536,.F.);
#712=ORIENTED_EDGE('',*,*,#537,.T.);
#713=ORIENTED_EDGE('',*,*,#538,.F.);
#714=ORIENTED_EDGE('',*,*,#537,.F.);
#715=ORIENTED_EDGE('',*,*,#539,.F.);
#716=ORIENTED_EDGE('',*,*,#540,.F.);
#717=ORIENTED_EDGE('',*,*,#541,.F.);
#718=ORIENTED_EDGE('',*,*,#542,.F.);
#719=ORIENTED_EDGE('',*,*,#543,.F.);
#720=ORIENTED_EDGE('',*,*,#544,.T.);
#721=ORIENTED_EDGE('',*,*,#532,.T.);
#722=ORIENTED_EDGE('',*,*,#544,.F.);
#723=ORIENTED_EDGE('',*,*,#528,.T.);
#724=ORIENTED_EDGE('',*,*,#529,.T.);
#725=ORIENTED_EDGE('',*,*,#545,.T.);
#726=ORIENTED_EDGE('',*,*,#546,.T.);
#727=ORIENTED_EDGE('',*,*,#545,.F.);
#728=ORIENTED_EDGE('',*,*,#547,.T.);
#729=ORIENTED_EDGE('',*,*,#548,.T.);
#730=ORIENTED_EDGE('',*,*,#549,.F.);
#731=ORIENTED_EDGE('',*,*,#550,.F.);
#732=ORIENTED_EDGE('',*,*,#548,.F.);
#733=ORIENTED_EDGE('',*,*,#551,.F.);
#734=ORIENTED_EDGE('',*,*,#552,.T.);
#735=ORIENTED_EDGE('',*,*,#549,.T.);
#736=ORIENTED_EDGE('',*,*,#550,.T.);
#737=ORIENTED_EDGE('',*,*,#552,.F.);
#738=ORIENTED_EDGE('',*,*,#553,.F.);
#739=ORIENTED_EDGE('',*,*,#554,.T.);
#740=ORIENTED_EDGE('',*,*,#555,.F.);
#741=ORIENTED_EDGE('',*,*,#556,.T.);
#742=ORIENTED_EDGE('',*,*,#557,.F.);
#743=ORIENTED_EDGE('',*,*,#558,.T.);
#744=ORIENTED_EDGE('',*,*,#551,.T.);
#745=ORIENTED_EDGE('',*,*,#558,.F.);
#746=ORIENTED_EDGE('',*,*,#559,.F.);
#747=ORIENTED_EDGE('',*,*,#560,.T.);
#748=ORIENTED_EDGE('',*,*,#561,.F.);
#749=ORIENTED_EDGE('',*,*,#562,.T.);
#750=ORIENTED_EDGE('',*,*,#535,.T.);
#751=ORIENTED_EDGE('',*,*,#536,.T.);
#752=ORIENTED_EDGE('',*,*,#563,.T.);
#753=ORIENTED_EDGE('',*,*,#564,.T.);
#754=ORIENTED_EDGE('',*,*,#565,.T.);
#755=ORIENTED_EDGE('',*,*,#566,.F.);
#756=ORIENTED_EDGE('',*,*,#567,.T.);
#757=ORIENTED_EDGE('',*,*,#541,.T.);
#758=ORIENTED_EDGE('',*,*,#568,.T.);
#759=ORIENTED_EDGE('',*,*,#569,.F.);
#760=ORIENTED_EDGE('',*,*,#570,.T.);
#761=ORIENTED_EDGE('',*,*,#571,.T.);
#762=ORIENTED_EDGE('',*,*,#563,.F.);
#763=ORIENTED_EDGE('',*,*,#572,.T.);
#764=ORIENTED_EDGE('',*,*,#573,.F.);
#765=ORIENTED_EDGE('',*,*,#559,.T.);
#766=ORIENTED_EDGE('',*,*,#557,.T.);
#767=ORIENTED_EDGE('',*,*,#574,.F.);
#768=ORIENTED_EDGE('',*,*,#490,.F.);
#769=ORIENTED_EDGE('',*,*,#482,.F.);
#770=ORIENTED_EDGE('',*,*,#474,.F.);
#771=ORIENTED_EDGE('',*,*,#466,.F.);
#772=ORIENTED_EDGE('',*,*,#575,.F.);
#773=ORIENTED_EDGE('',*,*,#572,.F.);
#774=ORIENTED_EDGE('',*,*,#576,.F.);
#775=ORIENTED_EDGE('',*,*,#564,.F.);
#776=ORIENTED_EDGE('',*,*,#571,.F.);
#777=ORIENTED_EDGE('',*,*,#553,.T.);
#778=ORIENTED_EDGE('',*,*,#577,.F.);
#779=ORIENTED_EDGE('',*,*,#539,.T.);
#780=ORIENTED_EDGE('',*,*,#578,.F.);
#781=ORIENTED_EDGE('',*,*,#522,.F.);
#782=ORIENTED_EDGE('',*,*,#514,.F.);
#783=ORIENTED_EDGE('',*,*,#498,.F.);
#784=ORIENTED_EDGE('',*,*,#506,.F.);
#785=ORIENTED_EDGE('',*,*,#547,.F.);
#786=ORIENTED_EDGE('',*,*,#531,.T.);
#787=ORIENTED_EDGE('',*,*,#543,.T.);
#788=ORIENTED_EDGE('',*,*,#546,.F.);
#789=ORIENTED_EDGE('',*,*,#538,.T.);
#790=ORIENTED_EDGE('',*,*,#534,.T.);
#791=ORIENTED_EDGE('',*,*,#471,.T.);
#792=ORIENTED_EDGE('',*,*,#479,.T.);
#793=ORIENTED_EDGE('',*,*,#487,.T.);
#794=ORIENTED_EDGE('',*,*,#495,.T.);
#795=ORIENTED_EDGE('',*,*,#503,.T.);
#796=ORIENTED_EDGE('',*,*,#511,.T.);
#797=ORIENTED_EDGE('',*,*,#519,.T.);
#798=ORIENTED_EDGE('',*,*,#527,.T.);
#799=ORIENTED_EDGE('',*,*,#566,.T.);
#800=ORIENTED_EDGE('',*,*,#579,.T.);
#801=ORIENTED_EDGE('',*,*,#555,.T.);
#802=ORIENTED_EDGE('',*,*,#580,.T.);
#803=ORIENTED_EDGE('',*,*,#578,.T.);
#804=ORIENTED_EDGE('',*,*,#542,.T.);
#805=ORIENTED_EDGE('',*,*,#567,.F.);
#806=ORIENTED_EDGE('',*,*,#580,.F.);
#807=ORIENTED_EDGE('',*,*,#554,.F.);
#808=ORIENTED_EDGE('',*,*,#579,.F.);
#809=ORIENTED_EDGE('',*,*,#565,.F.);
#810=ORIENTED_EDGE('',*,*,#576,.T.);
#811=ORIENTED_EDGE('',*,*,#574,.T.);
#812=ORIENTED_EDGE('',*,*,#556,.F.);
#813=ORIENTED_EDGE('',*,*,#569,.T.);
#814=ORIENTED_EDGE('',*,*,#581,.T.);
#815=ORIENTED_EDGE('',*,*,#561,.T.);
#816=ORIENTED_EDGE('',*,*,#582,.T.);
#817=ORIENTED_EDGE('',*,*,#573,.T.);
#818=ORIENTED_EDGE('',*,*,#575,.T.);
#819=ORIENTED_EDGE('',*,*,#570,.F.);
#820=ORIENTED_EDGE('',*,*,#582,.F.);
#821=ORIENTED_EDGE('',*,*,#560,.F.);
#822=ORIENTED_EDGE('',*,*,#581,.F.);
#823=ORIENTED_EDGE('',*,*,#568,.F.);
#824=ORIENTED_EDGE('',*,*,#540,.T.);
#825=ORIENTED_EDGE('',*,*,#577,.T.);
#826=ORIENTED_EDGE('',*,*,#562,.F.);
#827=ORIENTED_EDGE('',*,*,#583,.T.);
#828=ORIENTED_EDGE('',*,*,#584,.T.);
#829=ORIENTED_EDGE('',*,*,#585,.F.);
#830=ORIENTED_EDGE('',*,*,#584,.F.);
#831=ORIENTED_EDGE('',*,*,#586,.T.);
#832=ORIENTED_EDGE('',*,*,#587,.T.);
#833=ORIENTED_EDGE('',*,*,#588,.F.);
#834=ORIENTED_EDGE('',*,*,#587,.F.);
#835=ORIENTED_EDGE('',*,*,#588,.T.);
#836=ORIENTED_EDGE('',*,*,#583,.F.);
#837=ORIENTED_EDGE('',*,*,#586,.F.);
#838=ORIENTED_EDGE('',*,*,#585,.T.);
#839=CONICAL_SURFACE('',#939,4.2,0.785398163397453);
#840=CONICAL_SURFACE('',#945,3.39999999999999,0.785398163397448);
#841=CONICAL_SURFACE('',#947,4.2,0.785398163397451);
#842=CONICAL_SURFACE('',#953,3.39999999999999,0.785398163397448);
#843=CONICAL_SURFACE('',#955,4.2,0.785398163397453);
#844=CONICAL_SURFACE('',#961,3.39999999999999,0.785398163397448);
#845=CONICAL_SURFACE('',#963,4.2,0.785398163397451);
#846=CONICAL_SURFACE('',#969,3.39999999999999,0.785398163397448);
#847=CONICAL_SURFACE('',#971,4.2,0.785398163397451);
#848=CONICAL_SURFACE('',#977,3.39999999999999,0.785398163397448);
#849=CONICAL_SURFACE('',#979,4.2,0.785398163397451);
#850=CONICAL_SURFACE('',#985,3.39999999999999,0.785398163397448);
#851=CONICAL_SURFACE('',#987,4.2,0.785398163397451);
#852=CONICAL_SURFACE('',#993,3.39999999999999,0.785398163397448);
#853=CONICAL_SURFACE('',#995,4.2,0.785398163397451);
#854=CONICAL_SURFACE('',#1001,3.39999999999999,0.785398163397448);
#855=CONICAL_SURFACE('',#1003,30.65,0.785398163397455);
#856=CONICAL_SURFACE('',#1007,31.9,0.785398163397435);
#857=CONICAL_SURFACE('',#1010,56.25,0.785398163397428);
#858=CONICAL_SURFACE('',#1014,56.75,0.785398163397462);
#859=CONICAL_SURFACE('',#1021,38.3816178594403,0.349065850398874);
#860=CONICAL_SURFACE('',#1025,38.6,1.22173047639603);
#861=CONICAL_SURFACE('',#1040,56.75,0.785398163397462);
#862=ADVANCED_FACE('',(#83),#839,.F.);
#863=ADVANCED_FACE('',(#84),#59,.F.);
#864=ADVANCED_FACE('',(#85),#840,.F.);
#865=ADVANCED_FACE('',(#86),#841,.F.);
#866=ADVANCED_FACE('',(#87),#60,.F.);
#867=ADVANCED_FACE('',(#88),#842,.F.);
#868=ADVANCED_FACE('',(#89),#843,.F.);
#869=ADVANCED_FACE('',(#90),#61,.F.);
#870=ADVANCED_FACE('',(#91),#844,.F.);
#871=ADVANCED_FACE('',(#92),#845,.F.);
#872=ADVANCED_FACE('',(#93),#62,.F.);
#873=ADVANCED_FACE('',(#94),#846,.F.);
#874=ADVANCED_FACE('',(#95),#847,.F.);
#875=ADVANCED_FACE('',(#96),#63,.F.);
#876=ADVANCED_FACE('',(#97),#848,.F.);
#877=ADVANCED_FACE('',(#98),#849,.F.);
#878=ADVANCED_FACE('',(#99),#64,.F.);
#879=ADVANCED_FACE('',(#100),#850,.F.);
#880=ADVANCED_FACE('',(#101),#851,.F.);
#881=ADVANCED_FACE('',(#102),#65,.F.);
#882=ADVANCED_FACE('',(#103),#852,.F.);
#883=ADVANCED_FACE('',(#104),#853,.F.);
#884=ADVANCED_FACE('',(#105),#66,.F.);
#885=ADVANCED_FACE('',(#106),#854,.F.);
#886=ADVANCED_FACE('',(#107),#855,.F.);
#887=ADVANCED_FACE('',(#108),#856,.F.);
#888=ADVANCED_FACE('',(#109),#857,.T.);
#889=ADVANCED_FACE('',(#110),#858,.T.);
#890=ADVANCED_FACE('',(#111),#67,.F.);
#891=ADVANCED_FACE('',(#112),#68,.F.);
#892=ADVANCED_FACE('',(#113),#859,.F.);
#893=ADVANCED_FACE('',(#114),#860,.T.);
#894=ADVANCED_FACE('',(#115),#69,.F.);
#895=ADVANCED_FACE('',(#116),#70,.T.);
#896=ADVANCED_FACE('',(#117,#25,#26,#27,#28),#46,.F.);
#897=ADVANCED_FACE('',(#118),#861,.T.);
#898=ADVANCED_FACE('',(#119,#29,#30,#31,#32),#47,.F.);
#899=ADVANCED_FACE('',(#120,#33),#48,.F.);
#900=ADVANCED_FACE('',(#121,#34),#49,.F.);
#901=ADVANCED_FACE('',(#122,#35,#36,#37,#38,#39,#40,#41,#42,#43),#50,.F.);
#902=ADVANCED_FACE('',(#123),#51,.T.);
#903=ADVANCED_FACE('',(#124),#52,.F.);
#904=ADVANCED_FACE('',(#125),#53,.F.);
#905=ADVANCED_FACE('',(#126),#54,.T.);
#906=ADVANCED_FACE('',(#127),#55,.F.);
#907=ADVANCED_FACE('',(#128),#56,.F.);
#908=ADVANCED_FACE('',(#129),#71,.F.);
#909=ADVANCED_FACE('',(#130),#72,.T.);
#910=ADVANCED_FACE('',(#131,#44),#57,.T.);
#911=ADVANCED_FACE('',(#132,#45),#58,.F.);
#912=CLOSED_SHELL('',(#862,#863,#864,#865,#866,#867,#868,#869,#870,#871,
#872,#873,#874,#875,#876,#877,#878,#879,#880,#881,#882,#883,#884,#885,#886,
#887,#888,#889,#890,#891,#892,#893,#894,#895,#896,#897,#898,#899,#900,#901,
#902,#903,#904,#905,#906,#907));
#913=CLOSED_SHELL('',(#908,#909,#910,#911));
#914=DERIVED_UNIT_ELEMENT(#918,1.);
#915=DERIVED_UNIT_ELEMENT(#1636,-3.);
#916=DERIVED_UNIT_ELEMENT(#918,1.);
#917=DERIVED_UNIT_ELEMENT(#1636,-3.);
#918=(
MASS_UNIT()
NAMED_UNIT(*)
SI_UNIT(.KILO.,.GRAM.)
);
#919=DERIVED_UNIT((#914,#915));
#920=DERIVED_UNIT((#916,#917));
#921=MEASURE_REPRESENTATION_ITEM('density measure',
POSITIVE_RATIO_MEASURE(7850.),#919);
#922=MEASURE_REPRESENTATION_ITEM('density measure',
POSITIVE_RATIO_MEASURE(7850.),#920);
#923=PROPERTY_DEFINITION_REPRESENTATION(#933,#927);
#924=PROPERTY_DEFINITION_REPRESENTATION(#934,#928);
#925=PROPERTY_DEFINITION_REPRESENTATION(#935,#929);
#926=PROPERTY_DEFINITION_REPRESENTATION(#936,#930);
#927=REPRESENTATION('material name',(#931),#1632);
#928=REPRESENTATION('density',(#921),#1632);
#929=REPRESENTATION('material name',(#932),#1633);
#930=REPRESENTATION('density',(#922),#1633);
#931=DESCRIPTIVE_REPRESENTATION_ITEM('Steel','Steel');
#932=DESCRIPTIVE_REPRESENTATION_ITEM('Steel','Steel');
#933=PROPERTY_DEFINITION('material property','material name',#1652);
#934=PROPERTY_DEFINITION('material property','density of part',#1652);
#935=PROPERTY_DEFINITION('material property','material name',#1653);
#936=PROPERTY_DEFINITION('material property','density of part',#1653);
#937=AXIS2_PLACEMENT_3D('',#1367,#1062,#1063);
#938=AXIS2_PLACEMENT_3D('',#1368,#1064,#1065);
#939=AXIS2_PLACEMENT_3D('',#1369,#1066,#1067);
#940=AXIS2_PLACEMENT_3D('',#1371,#1068,#1069);
#941=AXIS2_PLACEMENT_3D('',#1374,#1071,#1072);
#942=AXIS2_PLACEMENT_3D('',#1375,#1073,#1074);
#943=AXIS2_PLACEMENT_3D('',#1378,#1075,#1076);
#944=AXIS2_PLACEMENT_3D('',#1379,#1077,#1078);
#945=AXIS2_PLACEMENT_3D('',#1381,#1080,#1081);
#946=AXIS2_PLACEMENT_3D('',#1384,#1083,#1084);
#947=AXIS2_PLACEMENT_3D('',#1385,#1085,#1086);
#948=AXIS2_PLACEMENT_3D('',#1387,#1087,#1088);
#949=AXIS2_PLACEMENT_3D('',#1390,#1090,#1091);
#950=AXIS2_PLACEMENT_3D('',#1391,#1092,#1093);
#951=AXIS2_PLACEMENT_3D('',#1394,#1094,#1095);
#952=AXIS2_PLACEMENT_3D('',#1395,#1096,#1097);
#953=AXIS2_PLACEMENT_3D('',#1397,#1099,#1100);
#954=AXIS2_PLACEMENT_3D('',#1400,#1102,#1103);
#955=AXIS2_PLACEMENT_3D('',#1401,#1104,#1105);
#956=AXIS2_PLACEMENT_3D('',#1403,#1106,#1107);
#957=AXIS2_PLACEMENT_3D('',#1406,#1109,#1110);
#958=AXIS2_PLACEMENT_3D('',#1407,#1111,#1112);
#959=AXIS2_PLACEMENT_3D('',#1410,#1113,#1114);
#960=AXIS2_PLACEMENT_3D('',#1411,#1115,#1116);
#961=AXIS2_PLACEMENT_3D('',#1413,#1118,#1119);
#962=AXIS2_PLACEMENT_3D('',#1416,#1121,#1122);
#963=AXIS2_PLACEMENT_3D('',#1417,#1123,#1124);
#964=AXIS2_PLACEMENT_3D('',#1419,#1125,#1126);
#965=AXIS2_PLACEMENT_3D('',#1422,#1128,#1129);
#966=AXIS2_PLACEMENT_3D('',#1423,#1130,#1131);
#967=AXIS2_PLACEMENT_3D('',#1426,#1132,#1133);
#968=AXIS2_PLACEMENT_3D('',#1427,#1134,#1135);
#969=AXIS2_PLACEMENT_3D('',#1429,#1137,#1138);
#970=AXIS2_PLACEMENT_3D('',#1432,#1140,#1141);
#971=AXIS2_PLACEMENT_3D('',#1433,#1142,#1143);
#972=AXIS2_PLACEMENT_3D('',#1435,#1144,#1145);
#973=AXIS2_PLACEMENT_3D('',#1438,#1147,#1148);
#974=AXIS2_PLACEMENT_3D('',#1439,#1149,#1150);
#975=AXIS2_PLACEMENT_3D('',#1442,#1151,#1152);
#976=AXIS2_PLACEMENT_3D('',#1443,#1153,#1154);
#977=AXIS2_PLACEMENT_3D('',#1445,#1156,#1157);
#978=AXIS2_PLACEMENT_3D('',#1448,#1159,#1160);
#979=AXIS2_PLACEMENT_3D('',#1449,#1161,#1162);
#980=AXIS2_PLACEMENT_3D('',#1451,#1163,#1164);
#981=AXIS2_PLACEMENT_3D('',#1454,#1166,#1167);
#982=AXIS2_PLACEMENT_3D('',#1455,#1168,#1169);
#983=AXIS2_PLACEMENT_3D('',#1458,#1170,#1171);
#984=AXIS2_PLACEMENT_3D('',#1459,#1172,#1173);
#985=AXIS2_PLACEMENT_3D('',#1461,#1175,#1176);
#986=AXIS2_PLACEMENT_3D('',#1464,#1178,#1179);
#987=AXIS2_PLACEMENT_3D('',#1465,#1180,#1181);
#988=AXIS2_PLACEMENT_3D('',#1467,#1182,#1183);
#989=AXIS2_PLACEMENT_3D('',#1470,#1185,#1186);
#990=AXIS2_PLACEMENT_3D('',#1471,#1187,#1188);
#991=AXIS2_PLACEMENT_3D('',#1474,#1189,#1190);
#992=AXIS2_PLACEMENT_3D('',#1475,#1191,#1192);
#993=AXIS2_PLACEMENT_3D('',#1477,#1194,#1195);
#994=AXIS2_PLACEMENT_3D('',#1480,#1197,#1198);
#995=AXIS2_PLACEMENT_3D('',#1481,#1199,#1200);
#996=AXIS2_PLACEMENT_3D('',#1483,#1201,#1202);
#997=AXIS2_PLACEMENT_3D('',#1486,#1204,#1205);
#998=AXIS2_PLACEMENT_3D('',#1487,#1206,#1207);
#999=AXIS2_PLACEMENT_3D('',#1490,#1208,#1209);
#1000=AXIS2_PLACEMENT_3D('',#1491,#1210,#1211);
#1001=AXIS2_PLACEMENT_3D('',#1493,#1213,#1214);
#1002=AXIS2_PLACEMENT_3D('',#1496,#1216,#1217);
#1003=AXIS2_PLACEMENT_3D('',#1497,#1218,#1219);
#1004=AXIS2_PLACEMENT_3D('',#1500,#1220,#1221);
#1005=AXIS2_PLACEMENT_3D('',#1501,#1222,#1223);
#1006=AXIS2_PLACEMENT_3D('',#1504,#1225,#1226);
#1007=AXIS2_PLACEMENT_3D('',#1505,#1227,#1228);
#1008=AXIS2_PLACEMENT_3D('',#1507,#1229,#1230);
#1009=AXIS2_PLACEMENT_3D('',#1510,#1232,#1233);
#1010=AXIS2_PLACEMENT_3D('',#1511,#1234,#1235);
#1011=AXIS2_PLACEMENT_3D('',#1514,#1236,#1237);
#1012=AXIS2_PLACEMENT_3D('',#1515,#1238,#1239);
#1013=AXIS2_PLACEMENT_3D('',#1518,#1241,#1242);
#1014=AXIS2_PLACEMENT_3D('',#1519,#1243,#1244);
#1015=AXIS2_PLACEMENT_3D('',#1522,#1245,#1246);
#1016=AXIS2_PLACEMENT_3D('',#1526,#1248,#1249);
#1017=AXIS2_PLACEMENT_3D('',#1528,#1251,#1252);
#1018=AXIS2_PLACEMENT_3D('',#1530,#1253,#1254);
#1019=AXIS2_PLACEMENT_3D('',#1532,#1256,#1257);
#1020=AXIS2_PLACEMENT_3D('',#1535,#1259,#1260);
#1021=AXIS2_PLACEMENT_3D('',#1536,#1261,#1262);
#1022=AXIS2_PLACEMENT_3D('',#1538,#1263,#1264);
#1023=AXIS2_PLACEMENT_3D('',#1542,#1266,#1267);
#1024=AXIS2_PLACEMENT_3D('',#1543,#1268,#1269);
#1025=AXIS2_PLACEMENT_3D('',#1544,#1270,#1271);
#1026=AXIS2_PLACEMENT_3D('',#1546,#1272,#1273);
#1027=AXIS2_PLACEMENT_3D('',#1548,#1275,#1276);
#1028=AXIS2_PLACEMENT_3D('',#1551,#1277,#1278);
#1029=AXIS2_PLACEMENT_3D('',#1555,#1280,#1281);
#1030=AXIS2_PLACEMENT_3D('',#1559,#1283,#1284);
#1031=AXIS2_PLACEMENT_3D('',#1562,#1286,#1287);
#1032=AXIS2_PLACEMENT_3D('',#1566,#1289,#1290);
#1033=AXIS2_PLACEMENT_3D('',#1568,#1292,#1293);
#1034=AXIS2_PLACEMENT_3D('',#1572,#1295,#1296);
#1035=AXIS2_PLACEMENT_3D('',#1576,#1298,#1299);
#1036=AXIS2_PLACEMENT_3D('',#1581,#1302,#1303);
#1037=AXIS2_PLACEMENT_3D('',#1584,#1305,#1306);
#1038=AXIS2_PLACEMENT_3D('',#1585,#1307,#1308);
#1039=AXIS2_PLACEMENT_3D('',#1588,#1309,#1310);
#1040=AXIS2_PLACEMENT_3D('',#1591,#1313,#1314);
#1041=AXIS2_PLACEMENT_3D('',#1594,#1317,#1318);
#1042=AXIS2_PLACEMENT_3D('',#1597,#1321,#1322);
#1043=AXIS2_PLACEMENT_3D('',#1598,#1323,#1324);
#1044=AXIS2_PLACEMENT_3D('',#1599,#1325,#1326);
#1045=AXIS2_PLACEMENT_3D('',#1600,#1327,#1328);
#1046=AXIS2_PLACEMENT_3D('',#1603,#1331,#1332);
#1047=AXIS2_PLACEMENT_3D('',#1604,#1333,#1334);
#1048=AXIS2_PLACEMENT_3D('',#1605,#1335,#1336);
#1049=AXIS2_PLACEMENT_3D('',#1608,#1339,#1340);
#1050=AXIS2_PLACEMENT_3D('',#1609,#1341,#1342);
#1051=AXIS2_PLACEMENT_3D('',#1610,#1343,#1344);
#1052=AXIS2_PLACEMENT_3D('',#1611,#1345,#1346);
#1053=AXIS2_PLACEMENT_3D('',#1613,#1347,#1348);
#1054=AXIS2_PLACEMENT_3D('',#1616,#1350,#1351);
#1055=AXIS2_PLACEMENT_3D('',#1617,#1352,#1353);
#1056=AXIS2_PLACEMENT_3D('',#1619,#1354,#1355);
#1057=AXIS2_PLACEMENT_3D('',#1622,#1357,#1358);
#1058=AXIS2_PLACEMENT_3D('',#1623,#1359,#1360);
#1059=AXIS2_PLACEMENT_3D('',#1624,#1361,#1362);
#1060=AXIS2_PLACEMENT_3D('',#1625,#1363,#1364);
#1061=AXIS2_PLACEMENT_3D('',#1626,#1365,#1366);
#1062=DIRECTION('axis',(0.,0.,1.));
#1063=DIRECTION('refdir',(1.,0.,0.));
#1064=DIRECTION('axis',(0.,0.,1.));
#1065=DIRECTION('refdir',(1.,0.,0.));
#1066=DIRECTION('center_axis',(0.,1.,0.));
#1067=DIRECTION('ref_axis',(0.,0.,1.));
#1068=DIRECTION('center_axis',(0.,1.,0.));
#1069=DIRECTION('ref_axis',(0.,0.,1.));
#1070=DIRECTION('',(-8.65956056235497E-17,0.707106781186544,-0.707106781186551));
#1071=DIRECTION('center_axis',(0.,1.,0.));
#1072=DIRECTION('ref_axis',(0.,0.,1.));
#1073=DIRECTION('center_axis',(0.,1.,0.));
#1074=DIRECTION('ref_axis',(0.,0.,1.));
#1075=DIRECTION('center_axis',(0.,1.,0.));
#1076=DIRECTION('ref_axis',(0.,0.,1.));
#1077=DIRECTION('center_axis',(0.,1.,0.));
#1078=DIRECTION('ref_axis',(0.,0.,1.));
#1079=DIRECTION('',(0.,1.,0.));
#1080=DIRECTION('center_axis',(0.,-1.,0.));
#1081=DIRECTION('ref_axis',(0.,0.,-1.));
#1082=DIRECTION('',(-8.65956056235493E-17,-0.707106781186548,0.707106781186548));
#1083=DIRECTION('center_axis',(0.,1.,0.));
#1084=DIRECTION('ref_axis',(0.,0.,1.));
#1085=DIRECTION('center_axis',(0.,1.,0.));
#1086=DIRECTION('ref_axis',(0.,0.,1.));
#1087=DIRECTION('center_axis',(0.,1.,0.));
#1088=DIRECTION('ref_axis',(0.,0.,1.));
#1089=DIRECTION('',(-8.65956056235495E-17,0.707106781186546,-0.707106781186549));
#1090=DIRECTION('center_axis',(0.,1.,0.));
#1091=DIRECTION('ref_axis',(0.,0.,1.));
#1092=DIRECTION('center_axis',(0.,1.,0.));
#1093=DIRECTION('ref_axis',(0.,0.,1.));
#1094=DIRECTION('center_axis',(0.,1.,0.));
#1095=DIRECTION('ref_axis',(0.,0.,1.));
#1096=DIRECTION('center_axis',(0.,1.,0.));
#1097=DIRECTION('ref_axis',(0.,0.,1.));
#1098=DIRECTION('',(0.,1.,0.));
#1099=DIRECTION('center_axis',(0.,-1.,0.));
#1100=DIRECTION('ref_axis',(0.,0.,-1.));
#1101=DIRECTION('',(-8.65956056235493E-17,-0.707106781186548,0.707106781186548));
#1102=DIRECTION('center_axis',(0.,1.,0.));
#1103=DIRECTION('ref_axis',(0.,0.,1.));
#1104=DIRECTION('center_axis',(0.,1.,0.));
#1105=DIRECTION('ref_axis',(0.,0.,1.));
#1106=DIRECTION('center_axis',(0.,1.,0.));
#1107=DIRECTION('ref_axis',(0.,0.,1.));
#1108=DIRECTION('',(-8.65956056235497E-17,0.707106781186544,-0.707106781186551));
#1109=DIRECTION('center_axis',(0.,1.,0.));
#1110=DIRECTION('ref_axis',(0.,0.,1.));
#1111=DIRECTION('center_axis',(0.,1.,0.));
#1112=DIRECTION('ref_axis',(0.,0.,1.));
#1113=DIRECTION('center_axis',(0.,1.,0.));
#1114=DIRECTION('ref_axis',(0.,0.,1.));
#1115=DIRECTION('center_axis',(0.,1.,0.));
#1116=DIRECTION('ref_axis',(0.,0.,1.));
#1117=DIRECTION('',(0.,1.,0.));
#1118=DIRECTION('center_axis',(0.,-1.,0.));
#1119=DIRECTION('ref_axis',(0.,0.,-1.));
#1120=DIRECTION('',(-8.65956056235493E-17,-0.707106781186548,0.707106781186548));
#1121=DIRECTION('center_axis',(0.,1.,0.));
#1122=DIRECTION('ref_axis',(0.,0.,1.));
#1123=DIRECTION('center_axis',(0.,1.,0.));
#1124=DIRECTION('ref_axis',(0.,0.,1.));
#1125=DIRECTION('center_axis',(0.,1.,0.));
#1126=DIRECTION('ref_axis',(0.,0.,1.));
#1127=DIRECTION('',(-8.65956056235495E-17,0.707106781186546,-0.707106781186549));
#1128=DIRECTION('center_axis',(0.,1.,0.));
#1129=DIRECTION('ref_axis',(0.,0.,1.));
#1130=DIRECTION('center_axis',(0.,1.,0.));
#1131=DIRECTION('ref_axis',(0.,0.,1.));
#1132=DIRECTION('center_axis',(0.,1.,0.));
#1133=DIRECTION('ref_axis',(0.,0.,1.));
#1134=DIRECTION('center_axis',(0.,1.,0.));
#1135=DIRECTION('ref_axis',(0.,0.,1.));
#1136=DIRECTION('',(0.,1.,0.));
#1137=DIRECTION('center_axis',(0.,-1.,0.));
#1138=DIRECTION('ref_axis',(0.,0.,-1.));
#1139=DIRECTION('',(-8.65956056235493E-17,-0.707106781186548,0.707106781186547));
#1140=DIRECTION('center_axis',(0.,1.,0.));
#1141=DIRECTION('ref_axis',(0.,0.,1.));
#1142=DIRECTION('center_axis',(0.,1.,0.));
#1143=DIRECTION('ref_axis',(0.,0.,1.));
#1144=DIRECTION('center_axis',(0.,1.,0.));
#1145=DIRECTION('ref_axis',(0.,0.,1.));
#1146=DIRECTION('',(-8.65956056235495E-17,0.707106781186546,-0.707106781186549));
#1147=DIRECTION('center_axis',(0.,1.,0.));
#1148=DIRECTION('ref_axis',(0.,0.,1.));
#1149=DIRECTION('center_axis',(0.,1.,0.));
#1150=DIRECTION('ref_axis',(0.,0.,1.));
#1151=DIRECTION('center_axis',(0.,1.,0.));
#1152=DIRECTION('ref_axis',(0.,0.,1.));
#1153=DIRECTION('center_axis',(0.,1.,0.));
#1154=DIRECTION('ref_axis',(0.,0.,1.));
#1155=DIRECTION('',(0.,1.,0.));
#1156=DIRECTION('center_axis',(0.,-1.,0.));
#1157=DIRECTION('ref_axis',(0.,0.,-1.));
#1158=DIRECTION('',(-8.65956056235493E-17,-0.707106781186548,0.707106781186548));
#1159=DIRECTION('center_axis',(0.,1.,0.));
#1160=DIRECTION('ref_axis',(0.,0.,1.));
#1161=DIRECTION('center_axis',(0.,1.,0.));
#1162=DIRECTION('ref_axis',(0.,0.,1.));
#1163=DIRECTION('center_axis',(0.,1.,0.));
#1164=DIRECTION('ref_axis',(0.,0.,1.));
#1165=DIRECTION('',(-8.65956056235495E-17,0.707106781186546,-0.707106781186549));
#1166=DIRECTION('center_axis',(0.,1.,0.));
#1167=DIRECTION('ref_axis',(0.,0.,1.));
#1168=DIRECTION('center_axis',(0.,1.,0.));
#1169=DIRECTION('ref_axis',(0.,0.,1.));
#1170=DIRECTION('center_axis',(0.,1.,0.));
#1171=DIRECTION('ref_axis',(0.,0.,1.));
#1172=DIRECTION('center_axis',(0.,1.,0.));
#1173=DIRECTION('ref_axis',(0.,0.,1.));
#1174=DIRECTION('',(0.,1.,0.));
#1175=DIRECTION('center_axis',(0.,-1.,0.));
#1176=DIRECTION('ref_axis',(0.,0.,-1.));
#1177=DIRECTION('',(-8.65956056235493E-17,-0.707106781186548,0.707106781186548));
#1178=DIRECTION('center_axis',(0.,1.,0.));
#1179=DIRECTION('ref_axis',(0.,0.,1.));
#1180=DIRECTION('center_axis',(0.,1.,0.));
#1181=DIRECTION('ref_axis',(0.,0.,1.));
#1182=DIRECTION('center_axis',(0.,1.,0.));
#1183=DIRECTION('ref_axis',(0.,0.,1.));
#1184=DIRECTION('',(-8.65956056235495E-17,0.707106781186546,-0.707106781186549));
#1185=DIRECTION('center_axis',(0.,1.,0.));
#1186=DIRECTION('ref_axis',(0.,0.,1.));
#1187=DIRECTION('center_axis',(0.,1.,0.));
#1188=DIRECTION('ref_axis',(0.,0.,1.));
#1189=DIRECTION('center_axis',(0.,1.,0.));
#1190=DIRECTION('ref_axis',(0.,0.,1.));
#1191=DIRECTION('center_axis',(0.,1.,0.));
#1192=DIRECTION('ref_axis',(0.,0.,1.));
#1193=DIRECTION('',(0.,1.,0.));
#1194=DIRECTION('center_axis',(0.,-1.,0.));
#1195=DIRECTION('ref_axis',(0.,0.,-1.));
#1196=DIRECTION('',(-8.65956056235493E-17,-0.707106781186548,0.707106781186548));
#1197=DIRECTION('center_axis',(0.,1.,0.));
#1198=DIRECTION('ref_axis',(0.,0.,1.));
#1199=DIRECTION('center_axis',(0.,1.,0.));
#1200=DIRECTION('ref_axis',(0.,0.,1.));
#1201=DIRECTION('center_axis',(0.,1.,0.));
#1202=DIRECTION('ref_axis',(0.,0.,1.));
#1203=DIRECTION('',(-8.65956056235495E-17,0.707106781186546,-0.707106781186549));
#1204=DIRECTION('center_axis',(0.,1.,0.));
#1205=DIRECTION('ref_axis',(0.,0.,1.));
#1206=DIRECTION('center_axis',(0.,1.,0.));
#1207=DIRECTION('ref_axis',(0.,0.,1.));
#1208=DIRECTION('center_axis',(0.,1.,0.));
#1209=DIRECTION('ref_axis',(0.,0.,1.));
#1210=DIRECTION('center_axis',(0.,1.,0.));
#1211=DIRECTION('ref_axis',(0.,0.,1.));
#1212=DIRECTION('',(0.,1.,0.));
#1213=DIRECTION('center_axis',(0.,-1.,0.));
#1214=DIRECTION('ref_axis',(0.,0.,-1.));
#1215=DIRECTION('',(-8.65956056235493E-17,-0.707106781186548,0.707106781186547));
#1216=DIRECTION('center_axis',(0.,1.,0.));
#1217=DIRECTION('ref_axis',(0.,0.,1.));
#1218=DIRECTION('center_axis',(0.,1.,0.));
#1219=DIRECTION('ref_axis',(0.,0.,1.));
#1220=DIRECTION('center_axis',(0.,1.,0.));
#1221=DIRECTION('ref_axis',(0.,0.,-1.));
#1222=DIRECTION('center_axis',(0.,1.,0.));
#1223=DIRECTION('ref_axis',(0.,0.,-1.));
#1224=DIRECTION('',(-8.65956056235499E-17,0.707106781186543,-0.707106781186552));
#1225=DIRECTION('center_axis',(0.,-1.,0.));
#1226=DIRECTION('ref_axis',(0.,0.,-1.));
#1227=DIRECTION('center_axis',(0.,-1.,0.));
#1228=DIRECTION('ref_axis',(0.,0.,-1.));
#1229=DIRECTION('center_axis',(0.,-1.,0.));
#1230=DIRECTION('ref_axis',(0.,0.,1.));
#1231=DIRECTION('',(-8.65956056235481E-17,-0.707106781186557,0.707106781186538));
#1232=DIRECTION('center_axis',(0.,1.,0.));
#1233=DIRECTION('ref_axis',(0.,0.,1.));
#1234=DIRECTION('center_axis',(0.,1.,0.));
#1235=DIRECTION('ref_axis',(0.,0.,1.));
#1236=DIRECTION('center_axis',(0.,1.,0.));
#1237=DIRECTION('ref_axis',(0.,0.,1.));
#1238=DIRECTION('center_axis',(0.,1.,0.));
#1239=DIRECTION('ref_axis',(0.,0.,1.));
#1240=DIRECTION('',(8.65956056235475E-17,-0.707106781186562,0.707106781186533));
#1241=DIRECTION('center_axis',(0.,-1.,0.));
#1242=DIRECTION('ref_axis',(0.,0.,1.));
#1243=DIRECTION('center_axis',(0.,-1.,0.));
#1244=DIRECTION('ref_axis',(0.,0.,-1.));
#1245=DIRECTION('center_axis',(0.,1.,0.));
#1246=DIRECTION('ref_axis',(0.,0.,-1.));
#1247=DIRECTION('',(-0.270645745156538,0.706982125955777,-0.653396628555514));
#1248=DIRECTION('center_axis',(0.,-1.,0.));
#1249=DIRECTION('ref_axis',(0.,0.,-1.));
#1250=DIRECTION('',(-0.270645745156538,-0.706982125955787,-0.653396628555502));
#1251=DIRECTION('center_axis',(0.,-1.,0.));
#1252=DIRECTION('ref_axis',(0.,0.,-1.));
#1253=DIRECTION('center_axis',(0.,-1.,0.));
#1254=DIRECTION('ref_axis',(0.,0.,-1.));
#1255=DIRECTION('',(0.,-1.,0.));
#1256=DIRECTION('center_axis',(0.,-1.,0.));
#1257=DIRECTION('ref_axis',(0.,0.,-1.));
#1258=DIRECTION('',(0.,-1.,0.));
#1259=DIRECTION('center_axis',(0.,-1.,0.));
#1260=DIRECTION('ref_axis',(0.,0.,-1.));
#1261=DIRECTION('center_axis',(0.,1.,0.));
#1262=DIRECTION('ref_axis',(0.,0.,1.));
#1263=DIRECTION('center_axis',(0.,-1.,0.));
#1264=DIRECTION('ref_axis',(0.,0.,-1.));
#1265=DIRECTION('',(-4.18853873767708E-17,0.939692620785906,-0.342020143325676));
#1266=DIRECTION('center_axis',(0.,-1.,0.));
#1267=DIRECTION('ref_axis',(0.,0.,-1.));
#1268=DIRECTION('center_axis',(0.,-1.,0.));
#1269=DIRECTION('ref_axis',(0.,0.,-1.));
#1270=DIRECTION('center_axis',(0.,-1.,0.));
#1271=DIRECTION('ref_axis',(0.,0.,-1.));
#1272=DIRECTION('center_axis',(0.,-1.,0.));
#1273=DIRECTION('ref_axis',(0.,0.,-1.));
#1274=DIRECTION('',(1.15079156022785E-16,0.342020143325674,-0.939692620785907));
#1275=DIRECTION('center_axis',(0.,-1.,0.));
#1276=DIRECTION('ref_axis',(0.,0.,-1.));
#1277=DIRECTION('center_axis',(0.,-1.,0.));
#1278=DIRECTION('ref_axis',(0.,0.,-1.));
#1279=DIRECTION('',(0.,-1.,0.));
#1280=DIRECTION('center_axis',(0.,-1.,0.));
#1281=DIRECTION('ref_axis',(0.,0.,1.));
#1282=DIRECTION('',(0.,1.,0.));
#1283=DIRECTION('center_axis',(0.,-1.,0.));
#1284=DIRECTION('ref_axis',(0.,0.,-1.));
#1285=DIRECTION('',(0.,-1.,0.));
#1286=DIRECTION('center_axis',(0.,-1.,0.));
#1287=DIRECTION('ref_axis',(0.,0.,-1.));
#1288=DIRECTION('',(0.,-1.,0.));
#1289=DIRECTION('center_axis',(0.,-1.,0.));
#1290=DIRECTION('ref_axis',(-1.33226762955019E-14,0.,1.));
#1291=DIRECTION('',(0.,1.,0.));
#1292=DIRECTION('center_axis',(0.,-1.,0.));
#1293=DIRECTION('ref_axis',(0.,0.,-1.));
#1294=DIRECTION('',(0.,1.,0.));
#1295=DIRECTION('center_axis',(0.,-1.,0.));
#1296=DIRECTION('ref_axis',(0.,0.,-1.));
#1297=DIRECTION('',(0.,-1.,0.));
#1298=DIRECTION('center_axis',(0.,1.,0.));
#1299=DIRECTION('ref_axis',(0.,0.,1.));
#1300=DIRECTION('',(0.,1.,0.));
#1301=DIRECTION('',(0.,-1.,0.));
#1302=DIRECTION('center_axis',(0.,1.,0.));
#1303=DIRECTION('ref_axis',(0.,0.,1.));
#1304=DIRECTION('',(0.,1.,0.));
#1305=DIRECTION('center_axis',(0.,-1.,0.));
#1306=DIRECTION('ref_axis',(0.,0.,-1.));
#1307=DIRECTION('center_axis',(0.,-1.,0.));
#1308=DIRECTION('ref_axis',(0.,0.,-1.));
#1309=DIRECTION('center_axis',(0.,1.,0.));
#1310=DIRECTION('ref_axis',(0.,0.,-1.));
#1311=DIRECTION('',(0.382683432365085,0.,0.923879532511289));
#1312=DIRECTION('',(0.382683432365084,0.,0.923879532511289));
#1313=DIRECTION('center_axis',(0.,-1.,0.));
#1314=DIRECTION('ref_axis',(-0.923879532511289,0.,0.382683432365085));
#1315=DIRECTION('',(0.270645745156538,-0.706982125955787,0.653396628555502));
#1316=DIRECTION('',(0.270645745156538,0.706982125955777,0.653396628555514));
#1317=DIRECTION('center_axis',(0.,-1.,0.));
#1318=DIRECTION('ref_axis',(0.,0.,-1.));
#1319=DIRECTION('',(-0.382683432365084,0.,-0.923879532511289));
#1320=DIRECTION('',(-0.382683432365085,0.,-0.923879532511289));
#1321=DIRECTION('center_axis',(0.,-1.,0.));
#1322=DIRECTION('ref_axis',(0.,0.,-1.));
#1323=DIRECTION('center_axis',(0.,1.,0.));
#1324=DIRECTION('ref_axis',(0.,0.,1.));
#1325=DIRECTION('center_axis',(0.,1.,0.));
#1326=DIRECTION('ref_axis',(0.,0.,1.));
#1327=DIRECTION('center_axis',(0.,1.,0.));
#1328=DIRECTION('ref_axis',(0.,0.,1.));
#1329=DIRECTION('',(0.382683432365084,0.,0.923879532511289));
#1330=DIRECTION('',(-0.382683432365085,0.,-0.923879532511289));
#1331=DIRECTION('center_axis',(0.923879532511289,0.,-0.382683432365085));
#1332=DIRECTION('ref_axis',(-0.382683432365085,0.,-0.923879532511289));
#1333=DIRECTION('center_axis',(-0.923879532511289,0.,0.382683432365084));
#1334=DIRECTION('ref_axis',(0.382683432365084,0.,0.923879532511289));
#1335=DIRECTION('center_axis',(0.,1.,0.));
#1336=DIRECTION('ref_axis',(0.,0.,-1.));
#1337=DIRECTION('',(-0.382683432365084,0.,-0.923879532511289));
#1338=DIRECTION('',(0.382683432365085,0.,0.923879532511289));
#1339=DIRECTION('center_axis',(-0.923879532511289,0.,0.382683432365085));
#1340=DIRECTION('ref_axis',(0.382683432365085,0.,0.923879532511289));
#1341=DIRECTION('center_axis',(0.923879532511289,0.,-0.382683432365084));
#1342=DIRECTION('ref_axis',(-0.382683432365084,0.,-0.923879532511289));
#1343=DIRECTION('axis',(0.,0.,1.));
#1344=DIRECTION('refdir',(1.,0.,0.));
#1345=DIRECTION('center_axis',(0.,-1.,0.));
#1346=DIRECTION('ref_axis',(0.,0.,-1.));
#1347=DIRECTION('center_axis',(0.,1.,0.));
#1348=DIRECTION('ref_axis',(0.,0.,1.));
#1349=DIRECTION('',(0.,-1.,0.));
#1350=DIRECTION('center_axis',(0.,1.,0.));
#1351=DIRECTION('ref_axis',(0.,0.,1.));
#1352=DIRECTION('center_axis',(0.,-1.,0.));
#1353=DIRECTION('ref_axis',(0.,0.,-1.));
#1354=DIRECTION('center_axis',(0.,1.,0.));
#1355=DIRECTION('ref_axis',(0.,0.,1.));
#1356=DIRECTION('',(0.,1.,0.));
#1357=DIRECTION('center_axis',(0.,1.,0.));
#1358=DIRECTION('ref_axis',(0.,0.,1.));
#1359=DIRECTION('center_axis',(0.,1.,0.));
#1360=DIRECTION('ref_axis',(0.,0.,1.));
#1361=DIRECTION('center_axis',(0.,1.,0.));
#1362=DIRECTION('ref_axis',(0.,0.,1.));
#1363=DIRECTION('',(0.,0.,1.));
#1364=DIRECTION('',(1.,0.,0.));
#1365=DIRECTION('',(0.,0.,1.));
#1366=DIRECTION('',(1.,0.,0.));
#1367=CARTESIAN_POINT('',(0.,0.,0.));
#1368=CARTESIAN_POINT('',(0.,0.,0.));
#1369=CARTESIAN_POINT('Origin',(-32.5622672736401,0.,-32.5622672736409));
#1370=CARTESIAN_POINT('',(-32.5622672736401,-0.799999999999999,-35.9622672736409));
#1371=CARTESIAN_POINT('Origin',(-32.5622672736401,-0.799999999999999,-32.5622672736409));
#1372=CARTESIAN_POINT('',(-32.5622672736401,8.32667268468867E-16,-36.7622672736409));
#1373=CARTESIAN_POINT('',(-32.5622672736401,0.,-36.7622672736409));
#1374=CARTESIAN_POINT('Origin',(-32.5622672736401,0.,-32.5622672736409));
#1375=CARTESIAN_POINT('Origin',(-32.5622672736401,0.,-32.5622672736409));
#1376=CARTESIAN_POINT('',(-32.5622672736401,-16.7,-29.1622672736409));
#1377=CARTESIAN_POINT('',(-32.5622672736401,-16.7,-35.9622672736409));
#1378=CARTESIAN_POINT('Origin',(-32.5622672736401,-16.7,-32.5622672736409));
#1379=CARTESIAN_POINT('Origin',(-32.5622672736401,-16.7,-32.5622672736409));
#1380=CARTESIAN_POINT('',(-32.5622672736401,0.,-35.9622672736409));
#1381=CARTESIAN_POINT('Origin',(-32.5622672736401,-16.7,-32.5622672736409));
#1382=CARTESIAN_POINT('',(-32.5622672736401,-17.5,-28.3622672736409));
#1383=CARTESIAN_POINT('',(-32.5622672736401,-16.7,-29.1622672736409));
#1384=CARTESIAN_POINT('Origin',(-32.5622672736401,-17.5,-32.5622672736409));
#1385=CARTESIAN_POINT('Origin',(-46.05,0.,-4.82348146961179E-13));
#1386=CARTESIAN_POINT('',(-46.05,-0.799999999999998,-3.40000000000048));
#1387=CARTESIAN_POINT('Origin',(-46.05,-0.799999999999999,-4.82348146961179E-13));
#1388=CARTESIAN_POINT('',(-46.05,3.23176676545261E-16,-4.20000000000049));
#1389=CARTESIAN_POINT('',(-46.05,0.,-4.20000000000048));
#1390=CARTESIAN_POINT('Origin',(-46.05,0.,-4.82348146961179E-13));
#1391=CARTESIAN_POINT('Origin',(-46.05,0.,-4.82348146961179E-13));
#1392=CARTESIAN_POINT('',(-46.05,-16.7,3.39999999999951));
#1393=CARTESIAN_POINT('',(-46.05,-16.7,-3.40000000000048));
#1394=CARTESIAN_POINT('Origin',(-46.05,-16.7,-4.82348146961179E-13));
#1395=CARTESIAN_POINT('Origin',(-46.05,-16.7,-4.82348146961179E-13));
#1396=CARTESIAN_POINT('',(-46.05,0.,-3.40000000000048));
#1397=CARTESIAN_POINT('Origin',(-46.05,-16.7,-4.82348146961179E-13));
#1398=CARTESIAN_POINT('',(-46.05,-17.5,4.19999999999952));
#1399=CARTESIAN_POINT('',(-46.05,-16.7,3.39999999999951));
#1400=CARTESIAN_POINT('Origin',(-46.05,-17.5,-4.82348146961179E-13));
#1401=CARTESIAN_POINT('Origin',(-32.5622672736408,0.,32.5622672736402));
#1402=CARTESIAN_POINT('',(-32.5622672736408,-0.799999999999998,29.1622672736402));
#1403=CARTESIAN_POINT('Origin',(-32.5622672736408,-0.799999999999999,32.5622672736402));
#1404=CARTESIAN_POINT('',(-32.5622672736408,8.32667268468867E-16,28.3622672736402));
#1405=CARTESIAN_POINT('',(-32.5622672736408,0.,28.3622672736402));
#1406=CARTESIAN_POINT('Origin',(-32.5622672736408,0.,32.5622672736402));
#1407=CARTESIAN_POINT('Origin',(-32.5622672736408,0.,32.5622672736402));
#1408=CARTESIAN_POINT('',(-32.5622672736408,-16.7,35.9622672736402));
#1409=CARTESIAN_POINT('',(-32.5622672736408,-16.7,29.1622672736402));
#1410=CARTESIAN_POINT('Origin',(-32.5622672736408,-16.7,32.5622672736402));
#1411=CARTESIAN_POINT('Origin',(-32.5622672736408,-16.7,32.5622672736402));
#1412=CARTESIAN_POINT('',(-32.5622672736408,0.,29.1622672736402));
#1413=CARTESIAN_POINT('Origin',(-32.5622672736408,-16.7,32.5622672736402));
#1414=CARTESIAN_POINT('',(-32.5622672736408,-17.5,36.7622672736402));
#1415=CARTESIAN_POINT('',(-32.5622672736408,-16.7,35.9622672736402));
#1416=CARTESIAN_POINT('Origin',(-32.5622672736408,-17.5,32.5622672736402));
#1417=CARTESIAN_POINT('Origin',(-3.21565431307453E-13,0.,46.05));
#1418=CARTESIAN_POINT('',(-3.21981811219163E-13,-0.799999999999999,42.65));
#1419=CARTESIAN_POINT('Origin',(-3.21565431307453E-13,-0.799999999999999,
46.05));
#1420=CARTESIAN_POINT('',(-3.22079782963094E-13,2.69313897121051E-16,41.85));
#1421=CARTESIAN_POINT('',(-3.22079782963094E-13,0.,41.85));
#1422=CARTESIAN_POINT('Origin',(-3.21565431307453E-13,0.,46.05));
#1423=CARTESIAN_POINT('Origin',(-3.21565431307453E-13,0.,46.05));
#1424=CARTESIAN_POINT('',(-3.21100065523777E-13,-16.7,49.45));
#1425=CARTESIAN_POINT('',(-3.21981811219163E-13,-16.7,42.65));
#1426=CARTESIAN_POINT('Origin',(-3.21565431307453E-13,-16.7,46.05));
#1427=CARTESIAN_POINT('Origin',(-3.21565431307453E-13,-16.7,46.05));
#1428=CARTESIAN_POINT('',(-3.21981811219163E-13,0.,42.65));
#1429=CARTESIAN_POINT('Origin',(-3.21565431307453E-13,-16.7,46.05));
#1430=CARTESIAN_POINT('',(-3.22079782963094E-13,-17.5,50.25));
#1431=CARTESIAN_POINT('',(-3.21981811219163E-13,-16.7,49.45));
#1432=CARTESIAN_POINT('Origin',(-3.21565431307453E-13,-17.5,46.05));
#1433=CARTESIAN_POINT('Origin',(32.5622672736403,0.,32.5622672736407));
#1434=CARTESIAN_POINT('',(32.5622672736403,-0.8,29.1622672736407));
#1435=CARTESIAN_POINT('Origin',(32.5622672736403,-0.799999999999999,32.5622672736407));
#1436=CARTESIAN_POINT('',(32.5622672736403,8.32667268468867E-16,28.3622672736407));
#1437=CARTESIAN_POINT('',(32.5622672736403,0.,28.3622672736407));
#1438=CARTESIAN_POINT('Origin',(32.5622672736403,0.,32.5622672736407));
#1439=CARTESIAN_POINT('Origin',(32.5622672736403,0.,32.5622672736407));
#1440=CARTESIAN_POINT('',(32.5622672736403,-16.7,35.9622672736407));
#1441=CARTESIAN_POINT('',(32.5622672736403,-16.7,29.1622672736407));
#1442=CARTESIAN_POINT('Origin',(32.5622672736403,-16.7,32.5622672736407));
#1443=CARTESIAN_POINT('Origin',(32.5622672736403,-16.7,32.5622672736407));
#1444=CARTESIAN_POINT('',(32.5622672736403,0.,29.1622672736407));
#1445=CARTESIAN_POINT('Origin',(32.5622672736403,-16.7,32.5622672736407));
#1446=CARTESIAN_POINT('',(32.5622672736403,-17.5,36.7622672736407));
#1447=CARTESIAN_POINT('',(32.5622672736403,-16.7,35.9622672736407));
#1448=CARTESIAN_POINT('Origin',(32.5622672736403,-17.5,32.5622672736407));
#1449=CARTESIAN_POINT('Origin',(46.05,0.,1.60782715653726E-13));
#1450=CARTESIAN_POINT('',(46.05,-0.799999999999998,-3.39999999999984));
#1451=CARTESIAN_POINT('Origin',(46.05,-0.799999999999999,1.60782715653726E-13));
#1452=CARTESIAN_POINT('',(46.05,3.23176676545261E-16,-4.19999999999984));
#1453=CARTESIAN_POINT('',(46.05,0.,-4.19999999999984));
#1454=CARTESIAN_POINT('Origin',(46.05,0.,1.60782715653726E-13));
#1455=CARTESIAN_POINT('Origin',(46.05,0.,1.60782715653726E-13));
#1456=CARTESIAN_POINT('',(46.05,-16.7,3.40000000000015));
#1457=CARTESIAN_POINT('',(46.05,-16.7,-3.39999999999984));
#1458=CARTESIAN_POINT('Origin',(46.05,-16.7,1.60782715653726E-13));
#1459=CARTESIAN_POINT('Origin',(46.05,-16.7,1.60782715653726E-13));
#1460=CARTESIAN_POINT('',(46.05,0.,-3.39999999999984));
#1461=CARTESIAN_POINT('Origin',(46.05,-16.7,1.60782715653726E-13));
#1462=CARTESIAN_POINT('',(46.05,-17.5,4.20000000000016));
#1463=CARTESIAN_POINT('',(46.05,-16.7,3.40000000000015));
#1464=CARTESIAN_POINT('Origin',(46.05,-17.5,1.60782715653726E-13));
#1465=CARTESIAN_POINT('Origin',(32.5622672736406,0.,-32.5622672736405));
#1466=CARTESIAN_POINT('',(32.5622672736406,-0.8,-35.9622672736405));
#1467=CARTESIAN_POINT('Origin',(32.5622672736406,-0.799999999999999,-32.5622672736405));
#1468=CARTESIAN_POINT('',(32.5622672736406,8.32667268468867E-16,-36.7622672736405));
#1469=CARTESIAN_POINT('',(32.5622672736406,0.,-36.7622672736405));
#1470=CARTESIAN_POINT('Origin',(32.5622672736406,0.,-32.5622672736405));
#1471=CARTESIAN_POINT('Origin',(32.5622672736406,0.,-32.5622672736405));
#1472=CARTESIAN_POINT('',(32.5622672736406,-16.7,-29.1622672736405));
#1473=CARTESIAN_POINT('',(32.5622672736406,-16.7,-35.9622672736405));
#1474=CARTESIAN_POINT('Origin',(32.5622672736406,-16.7,-32.5622672736405));
#1475=CARTESIAN_POINT('Origin',(32.5622672736406,-16.7,-32.5622672736405));
#1476=CARTESIAN_POINT('',(32.5622672736406,0.,-35.9622672736405));
#1477=CARTESIAN_POINT('Origin',(32.5622672736406,-16.7,-32.5622672736405));
#1478=CARTESIAN_POINT('',(32.5622672736406,-17.5,-28.3622672736405));
#1479=CARTESIAN_POINT('',(32.5622672736406,-16.7,-29.1622672736405));
#1480=CARTESIAN_POINT('Origin',(32.5622672736406,-17.5,-32.5622672736405));
#1481=CARTESIAN_POINT('Origin',(0.,0.,-46.05));
#1482=CARTESIAN_POINT('',(-4.163799117101E-16,-0.799999999999999,-49.45));
#1483=CARTESIAN_POINT('Origin',(0.,-0.799999999999999,-46.05));
#1484=CARTESIAN_POINT('',(-5.14351655641889E-16,2.69313897121051E-16,-50.25));
#1485=CARTESIAN_POINT('',(-5.14351655641889E-16,0.,-50.25));
#1486=CARTESIAN_POINT('Origin',(0.,0.,-46.05));
#1487=CARTESIAN_POINT('Origin',(0.,0.,-46.05));
#1488=CARTESIAN_POINT('',(4.65365783675994E-16,-16.7,-42.65));
#1489=CARTESIAN_POINT('',(-4.163799117101E-16,-16.7,-49.45));
#1490=CARTESIAN_POINT('Origin',(0.,-16.7,-46.05));
#1491=CARTESIAN_POINT('Origin',(0.,-16.7,-46.05));
#1492=CARTESIAN_POINT('',(-4.163799117101E-16,0.,-49.45));
#1493=CARTESIAN_POINT('Origin',(0.,-16.7,-46.05));
#1494=CARTESIAN_POINT('',(-5.14351655641888E-16,-17.5,-41.85));
#1495=CARTESIAN_POINT('',(-4.16379911710099E-16,-16.7,-42.65));
#1496=CARTESIAN_POINT('Origin',(0.,-17.5,-46.05));
#1497=CARTESIAN_POINT('Origin',(0.,-1.2,0.));
#1498=CARTESIAN_POINT('',(3.69231009942927E-15,-1.69999999999996,30.15));
#1499=CARTESIAN_POINT('',(-3.69231009942927E-15,-1.69999999999996,-30.15));
#1500=CARTESIAN_POINT('Origin',(0.,-1.69999999999996,0.));
#1501=CARTESIAN_POINT('Origin',(0.,-1.69999999999996,0.));
#1502=CARTESIAN_POINT('',(-3.75354243938663E-15,-1.2,-30.65));
#1503=CARTESIAN_POINT('',(-3.75354243938663E-15,-1.2,-30.65));
#1504=CARTESIAN_POINT('Origin',(0.,-1.2,0.));
#1505=CARTESIAN_POINT('Origin',(0.,-17.,0.));
#1506=CARTESIAN_POINT('',(-3.90662328928006E-15,-17.,31.9));
#1507=CARTESIAN_POINT('Origin',(0.,-17.,0.));
#1508=CARTESIAN_POINT('',(-3.96785562923742E-15,-17.5,32.4));
#1509=CARTESIAN_POINT('',(-3.90662328928006E-15,-17.,31.9));
#1510=CARTESIAN_POINT('Origin',(0.,-17.5,0.));
#1511=CARTESIAN_POINT('Origin',(0.,-17.5,0.));
#1512=CARTESIAN_POINT('',(6.94987058516123E-15,-17.,56.75));
#1513=CARTESIAN_POINT('',(-6.94987058516123E-15,-17.,-56.75));
#1514=CARTESIAN_POINT('Origin',(0.,-17.,0.));
#1515=CARTESIAN_POINT('Origin',(0.,-17.,0.));
#1516=CARTESIAN_POINT('',(-6.88863824520386E-15,-17.5,-56.25));
#1517=CARTESIAN_POINT('',(-6.88863824520386E-15,-17.5,-56.25));
#1518=CARTESIAN_POINT('Origin',(0.,-17.5,0.));
#1519=CARTESIAN_POINT('Origin',(0.,-0.499999999999994,0.));
#1520=CARTESIAN_POINT('',(22.9041073395194,0.,51.3757176784887));
#1521=CARTESIAN_POINT('',(-20.1324687419856,0.,-52.5237679755839));
#1522=CARTESIAN_POINT('Origin',(0.,0.,0.));
#1523=CARTESIAN_POINT('',(23.0955165245753,-0.499999999999994,51.8378203290134));
#1524=CARTESIAN_POINT('',(23.0955165245753,-0.499999999999994,51.8378203290134));
#1525=CARTESIAN_POINT('',(-20.3238779270414,-0.499999999999999,-52.9858706261086));
#1526=CARTESIAN_POINT('Origin',(0.,-0.499999999999994,0.));
#1527=CARTESIAN_POINT('',(-20.1324687419856,0.,-52.5237679755839));
#1528=CARTESIAN_POINT('Origin',(0.,-24.5739145046165,0.));
#1529=CARTESIAN_POINT('',(-3.90662328928006E-15,-9.5,31.9));
#1530=CARTESIAN_POINT('Origin',(0.,-9.5,0.));
#1531=CARTESIAN_POINT('',(-3.90662328928006E-15,-24.5739145046165,31.9));
#1532=CARTESIAN_POINT('Origin',(0.,-24.5739145046165,0.));
#1533=CARTESIAN_POINT('',(-3.69231009942927E-15,-9.5,30.15));
#1534=CARTESIAN_POINT('',(-3.69231009942927E-15,-24.5739145046165,30.15));
#1535=CARTESIAN_POINT('Origin',(0.,-9.5,0.));
#1536=CARTESIAN_POINT('Origin',(0.,-1.2,0.));
#1537=CARTESIAN_POINT('',(-4.70039254576604E-15,-1.2,-38.3816178594403));
#1538=CARTESIAN_POINT('Origin',(0.,-1.2,0.));
#1539=CARTESIAN_POINT('',(-4.72713664470878E-15,-0.599999999999999,-38.6));
#1540=CARTESIAN_POINT('',(-4.70039254576604E-15,-1.2,-38.3816178594403));
#1541=CARTESIAN_POINT('',(4.89093315409474E-15,-0.6,38.6));
#1542=CARTESIAN_POINT('Origin',(0.,-0.6,0.));
#1543=CARTESIAN_POINT('Origin',(0.,-0.6,0.));
#1544=CARTESIAN_POINT('Origin',(0.,-0.6,0.));
#1545=CARTESIAN_POINT('',(-5.0547296634807E-15,-1.57362037666211,41.275));
#1546=CARTESIAN_POINT('Origin',(0.,-1.57362037666211,0.));
#1547=CARTESIAN_POINT('',(-4.72713664470878E-15,-0.6,38.6));
#1548=CARTESIAN_POINT('Origin',(0.,-24.5739145046165,0.));
#1549=CARTESIAN_POINT('',(-14.3990054265347,0.,-38.6819630800535));
#1550=CARTESIAN_POINT('',(17.1706440240685,0.,37.5339127829583));
#1551=CARTESIAN_POINT('Origin',(0.,0.,0.));
#1552=CARTESIAN_POINT('',(-14.3990054265347,-1.3,-38.6819630800535));
#1553=CARTESIAN_POINT('',(-14.3990054265347,-24.5739145046165,-38.6819630800535));
#1554=CARTESIAN_POINT('',(-17.1706440240685,-1.3,-37.5339127829583));
#1555=CARTESIAN_POINT('Origin',(0.,-1.3,0.));
#1556=CARTESIAN_POINT('',(-17.1706440240685,0.,-37.5339127829583));
#1557=CARTESIAN_POINT('',(-17.1706440240685,-24.5739145046165,-37.5339127829583));
#1558=CARTESIAN_POINT('',(-5.0547296634807E-15,0.,41.275));
#1559=CARTESIAN_POINT('Origin',(0.,0.,0.));
#1560=CARTESIAN_POINT('',(-5.0547296634807E-15,-24.5739145046165,41.275));
#1561=CARTESIAN_POINT('',(14.3990054265347,0.,38.6819630800535));
#1562=CARTESIAN_POINT('Origin',(0.,0.,0.));
#1563=CARTESIAN_POINT('',(14.3990054265347,-1.3,38.6819630800535));
#1564=CARTESIAN_POINT('',(14.3990054265347,-24.5739145046165,38.6819630800535));
#1565=CARTESIAN_POINT('',(17.1706440240685,-1.3,37.5339127829583));
#1566=CARTESIAN_POINT('Origin',(0.,-1.3,0.));
#1567=CARTESIAN_POINT('',(17.1706440240685,-24.5739145046165,37.5339127829583));
#1568=CARTESIAN_POINT('Origin',(0.,-24.5739145046165,0.));
#1569=CARTESIAN_POINT('',(-6.94987058516123E-15,-0.499999999999994,56.75));
#1570=CARTESIAN_POINT('',(-6.94987058516123E-15,-24.5739145046165,56.75));
#1571=CARTESIAN_POINT('',(-23.0955165245753,-0.499999999999994,-51.8378203290134));
#1572=CARTESIAN_POINT('Origin',(0.,-0.499999999999994,0.));
#1573=CARTESIAN_POINT('',(-23.0955165245753,-1.3,-51.8378203290134));
#1574=CARTESIAN_POINT('',(-23.0955165245753,-24.5739145046165,-51.8378203290134));
#1575=CARTESIAN_POINT('',(-20.3238779270414,-1.3,-52.9858706261086));
#1576=CARTESIAN_POINT('Origin',(0.,-1.3,0.));
#1577=CARTESIAN_POINT('',(-20.3238779270414,-24.5739145046165,-52.9858706261086));
#1578=CARTESIAN_POINT('',(23.0955165245753,-1.3,51.8378203290134));
#1579=CARTESIAN_POINT('',(23.0955165245753,-24.5739145046165,51.8378203290134));
#1580=CARTESIAN_POINT('',(20.3238779270414,-1.3,52.9858706261086));
#1581=CARTESIAN_POINT('Origin',(0.,-1.3,0.));
#1582=CARTESIAN_POINT('',(20.3238779270414,-0.499999999999999,52.9858706261086));
#1583=CARTESIAN_POINT('',(20.3238779270414,-24.5739145046165,52.9858706261086));
#1584=CARTESIAN_POINT('Origin',(0.,-0.499999999999994,0.));
#1585=CARTESIAN_POINT('Origin',(-56.75,0.,0.));
#1586=CARTESIAN_POINT('',(-22.9041073395194,0.,-51.3757176784887));
#1587=CARTESIAN_POINT('',(20.1324687419856,0.,52.5237679755839));
#1588=CARTESIAN_POINT('Origin',(0.,0.,0.));
#1589=CARTESIAN_POINT('',(14.2180976559194,0.,38.2452130866954));
#1590=CARTESIAN_POINT('',(-23.4953546036597,0.,-52.8031148422921));
#1591=CARTESIAN_POINT('Origin',(0.,-0.499999999999994,0.));
#1592=CARTESIAN_POINT('',(20.1324687419856,0.,52.5237679755839));
#1593=CARTESIAN_POINT('',(-23.0955165245753,-0.499999999999994,-51.8378203290134));
#1594=CARTESIAN_POINT('Origin',(-56.75,0.,0.));
#1595=CARTESIAN_POINT('',(23.4953546036597,0.,52.8031148422921));
#1596=CARTESIAN_POINT('',(-14.2180976559194,0.,-38.2452130866954));
#1597=CARTESIAN_POINT('Origin',(-38.3816178594403,-1.2,0.));
#1598=CARTESIAN_POINT('Origin',(-30.15,-9.5,0.));
#1599=CARTESIAN_POINT('Origin',(-31.9,-17.5,0.));
#1600=CARTESIAN_POINT('Origin',(0.,-1.3,0.));
#1601=CARTESIAN_POINT('',(-23.4953546036597,-1.3,-52.8031148422921));
#1602=CARTESIAN_POINT('',(-14.2180976559194,-1.3,-38.2452130866954));
#1603=CARTESIAN_POINT('Origin',(-14.2180976559194,-1.3,-38.2452130866954));
#1604=CARTESIAN_POINT('Origin',(-23.4953546036597,-1.3,-52.8031148422921));
#1605=CARTESIAN_POINT('Origin',(0.,-1.3,0.));
#1606=CARTESIAN_POINT('',(23.4953546036597,-1.3,52.8031148422921));
#1607=CARTESIAN_POINT('',(14.2180976559194,-1.3,38.2452130866954));
#1608=CARTESIAN_POINT('Origin',(14.2180976559194,-1.3,38.2452130866954));
#1609=CARTESIAN_POINT('Origin',(23.4953546036597,-1.3,52.8031148422921));
#1610=CARTESIAN_POINT('',(0.,0.,0.));
#1611=CARTESIAN_POINT('Origin',(0.,95.3,0.));
#1612=CARTESIAN_POINT('',(-3.64332422746338E-15,95.3,29.75));
#1613=CARTESIAN_POINT('Origin',(0.,95.3,0.));
#1614=CARTESIAN_POINT('',(-3.64332422746338E-15,0.,29.75));
#1615=CARTESIAN_POINT('',(-3.64332422746338E-15,95.3,29.75));
#1616=CARTESIAN_POINT('Origin',(0.,0.,0.));
#1617=CARTESIAN_POINT('Origin',(0.,95.3,0.));
#1618=CARTESIAN_POINT('',(-3.88825358729285E-15,0.,31.75));
#1619=CARTESIAN_POINT('Origin',(0.,0.,0.));
#1620=CARTESIAN_POINT('',(-3.88825358729285E-15,95.3,31.75));
#1621=CARTESIAN_POINT('',(-3.88825358729285E-15,95.3,31.75));
#1622=CARTESIAN_POINT('Origin',(0.,95.3,0.));
#1623=CARTESIAN_POINT('Origin',(0.,95.3,0.));
#1624=CARTESIAN_POINT('Origin',(0.,0.,0.));
#1625=CARTESIAN_POINT('',(0.,0.,0.));
#1626=CARTESIAN_POINT('',(0.,-104.8,0.));
#1627=UNCERTAINTY_MEASURE_WITH_UNIT(LENGTH_MEASURE(0.01),#1635,
'DISTANCE_ACCURACY_VALUE',
'Maximum model space distance between geometric entities at asserted c
onnectivities');
#1628=UNCERTAINTY_MEASURE_WITH_UNIT(LENGTH_MEASURE(0.01),#1635,
'DISTANCE_ACCURACY_VALUE',
'Maximum model space distance between geometric entities at asserted c
onnectivities');
#1629=UNCERTAINTY_MEASURE_WITH_UNIT(LENGTH_MEASURE(0.01),#1635,
'DISTANCE_ACCURACY_VALUE',
'Maximum model space distance between geometric entities at asserted c
onnectivities');
#1630=UNCERTAINTY_MEASURE_WITH_UNIT(LENGTH_MEASURE(0.01),#1635,
'DISTANCE_ACCURACY_VALUE',
'Maximum model space distance between geometric entities at asserted c
onnectivities');
#1631=(
GEOMETRIC_REPRESENTATION_CONTEXT(3)
GLOBAL_UNCERTAINTY_ASSIGNED_CONTEXT((#1627))
GLOBAL_UNIT_ASSIGNED_CONTEXT((#1635,#1637,#1638))
REPRESENTATION_CONTEXT('','3D')
);
#1632=(
GEOMETRIC_REPRESENTATION_CONTEXT(3)
GLOBAL_UNCERTAINTY_ASSIGNED_CONTEXT((#1628))
GLOBAL_UNIT_ASSIGNED_CONTEXT((#1635,#1637,#1638))
REPRESENTATION_CONTEXT('','3D')
);
#1633=(
GEOMETRIC_REPRESENTATION_CONTEXT(3)
GLOBAL_UNCERTAINTY_ASSIGNED_CONTEXT((#1629))
GLOBAL_UNIT_ASSIGNED_CONTEXT((#1635,#1637,#1638))
REPRESENTATION_CONTEXT('','3D')
);
#1634=(
GEOMETRIC_REPRESENTATION_CONTEXT(3)
GLOBAL_UNCERTAINTY_ASSIGNED_CONTEXT((#1630))
GLOBAL_UNIT_ASSIGNED_CONTEXT((#1635,#1637,#1638))
REPRESENTATION_CONTEXT('','3D')
);
#1635=(
LENGTH_UNIT()
NAMED_UNIT(*)
SI_UNIT(.MILLI.,.METRE.)
);
#1636=(
LENGTH_UNIT()
NAMED_UNIT(*)
SI_UNIT($,.METRE.)
);
#1637=(
NAMED_UNIT(*)
PLANE_ANGLE_UNIT()
SI_UNIT($,.RADIAN.)
);
#1638=(
NAMED_UNIT(*)
SI_UNIT($,.STERADIAN.)
SOLID_ANGLE_UNIT()
);
#1639=SHAPE_DEFINITION_REPRESENTATION(#1642,#1647);
#1640=SHAPE_DEFINITION_REPRESENTATION(#1643,#1648);
#1641=SHAPE_DEFINITION_REPRESENTATION(#1644,#1649);
#1642=PRODUCT_DEFINITION_SHAPE('',$,#1651);
#1643=PRODUCT_DEFINITION_SHAPE('',$,#1652);
#1644=PRODUCT_DEFINITION_SHAPE('',$,#1653);
#1645=PRODUCT_DEFINITION_SHAPE($,$,#17);
#1646=PRODUCT_DEFINITION_SHAPE($,$,#18);
#1647=SHAPE_REPRESENTATION('',(#937,#1060,#1061),#1631);
#1648=SHAPE_REPRESENTATION('',(#938),#1632);
#1649=SHAPE_REPRESENTATION('',(#1051),#1633);
#1650=PRODUCT_DEFINITION_CONTEXT('part definition',#1661,'design');
#1651=PRODUCT_DEFINITION('Hositrad_FO63-64T-HalfNipple',
'Hositrad_FO63-64T-HalfNipple v1',#1654,#1650);
#1652=PRODUCT_DEFINITION('NW63CF-T-weld','NW63CF-T-weld',#1655,#1650);
#1653=PRODUCT_DEFINITION('Tube 63.5-All_Tube63','Tube 63.5-All_Tube63',
#1656,#1650);
#1654=PRODUCT_DEFINITION_FORMATION('',$,#1663);
#1655=PRODUCT_DEFINITION_FORMATION('',$,#1664);
#1656=PRODUCT_DEFINITION_FORMATION('',$,#1665);
#1657=PRODUCT_RELATED_PRODUCT_CATEGORY(
'Hositrad_FO63-64T-HalfNipple v1','Hositrad_FO63-64T-HalfNipple v1',(#1663));
#1658=PRODUCT_RELATED_PRODUCT_CATEGORY('NW63CF-T-weld','NW63CF-T-weld',
(#1664));
#1659=PRODUCT_RELATED_PRODUCT_CATEGORY('Tube 63.5-All_Tube63',
'Tube 63.5-All_Tube63',(#1665));
#1660=APPLICATION_PROTOCOL_DEFINITION('international standard',
'automotive_design',2009,#1661);
#1661=APPLICATION_CONTEXT(
'Core Data for Automotive Mechanical Design Process');
#1662=PRODUCT_CONTEXT('part definition',#1661,'mechanical');
#1663=PRODUCT('Hositrad_FO63-64T-HalfNipple',
'Hositrad_FO63-64T-HalfNipple v1',$,(#1662));
#1664=PRODUCT('NW63CF-T-weld','NW63CF-T-weld',$,(#1662));
#1665=PRODUCT('Tube 63.5-All_Tube63','Tube 63.5-All_Tube63',$,(#1662));
#1666=PRESENTATION_STYLE_ASSIGNMENT((#1670));
#1667=PRESENTATION_STYLE_ASSIGNMENT((#1671));
#1668=PRESENTATION_STYLE_ASSIGNMENT((#1672));
#1669=PRESENTATION_STYLE_ASSIGNMENT((#1673));
#1670=SURFACE_STYLE_USAGE(.BOTH.,#1674);
#1671=SURFACE_STYLE_USAGE(.BOTH.,#1675);
#1672=SURFACE_STYLE_USAGE(.BOTH.,#1676);
#1673=SURFACE_STYLE_USAGE(.BOTH.,#1677);
#1674=SURFACE_SIDE_STYLE('',(#1678));
#1675=SURFACE_SIDE_STYLE('',(#1679));
#1676=SURFACE_SIDE_STYLE('',(#1680));
#1677=SURFACE_SIDE_STYLE('',(#1681));
#1678=SURFACE_STYLE_FILL_AREA(#1682);
#1679=SURFACE_STYLE_FILL_AREA(#1683);
#1680=SURFACE_STYLE_FILL_AREA(#1684);
#1681=SURFACE_STYLE_FILL_AREA(#1685);
#1682=FILL_AREA_STYLE('Steel - Satin',(#1686));
#1683=FILL_AREA_STYLE('Opaque(255,242,232)',(#1687));
#1684=FILL_AREA_STYLE('Opaque(0,255,0)',(#1688));
#1685=FILL_AREA_STYLE('Opaque(165,158,150)',(#1689));
#1686=FILL_AREA_STYLE_COLOUR('Steel - Satin',#1690);
#1687=FILL_AREA_STYLE_COLOUR('Opaque(255,242,232)',#1691);
#1688=FILL_AREA_STYLE_COLOUR('Opaque(0,255,0)',#1692);
#1689=FILL_AREA_STYLE_COLOUR('Opaque(165,158,150)',#1693);
#1690=COLOUR_RGB('Steel - Satin',0.627450980392157,0.627450980392157,0.627450980392157);
#1691=COLOUR_RGB('Opaque(255,242,232)',1.,0.949019607843137,0.909803921568627);
#1692=COLOUR_RGB('Opaque(0,255,0)',0.,1.,0.);
#1693=COLOUR_RGB('Opaque(165,158,150)',0.647058823529412,0.619607843137255,
0.588235294117647);
ENDSEC;
END-ISO-10303-21;
