ISO-10303-21;
HEADER;
/* Generated by software containing ST-Developer
 * from STEP Tools, Inc. (www.steptools.com) 
 */

FILE_DESCRIPTION(
/* description */ (''),
/* implementation_level */ '2;1');

FILE_NAME(
/* name */ 'Hositrad_CF63-BD_DoubleSided v1.step',
/* time_stamp */ '2024-06-25T13:47:26+02:00',
/* author */ (''),
/* organization */ (''),
/* preprocessor_version */ 'ST-DEVELOPER v20',
/* originating_system */ 'Autodesk Translation Framework v13.14.0.145',

/* authorisation */ '');

FILE_SCHEMA (('AUTOMOTIVE_DESIGN { 1 0 10303 214 3 1 1 }'));
ENDSEC;

DATA;
#10=MECHANICAL_DESIGN_GEOMETRIC_PRESENTATION_REPRESENTATION('',(#13),#1418);
#11=SHAPE_REPRESENTATION_RELATIONSHIP('SRR','None',#1425,#12);
#12=ADVANCED_BREP_SHAPE_REPRESENTATION('',(#14),#1417);
#13=STYLED_ITEM('',(#1435),#14);
#14=MANIFOLD_SOLID_BREP('Body1',#799);
#15=FACE_BOUND('',#129,.T.);
#16=FACE_BOUND('',#130,.T.);
#17=FACE_BOUND('',#131,.T.);
#18=FACE_BOUND('',#132,.T.);
#19=FACE_BOUND('',#133,.T.);
#20=FACE_BOUND('',#134,.T.);
#21=FACE_BOUND('',#135,.T.);
#22=FACE_BOUND('',#136,.T.);
#23=FACE_BOUND('',#138,.T.);
#24=FACE_BOUND('',#139,.T.);
#25=FACE_BOUND('',#140,.T.);
#26=FACE_BOUND('',#141,.T.);
#27=FACE_BOUND('',#142,.T.);
#28=FACE_BOUND('',#143,.T.);
#29=FACE_BOUND('',#144,.T.);
#30=FACE_BOUND('',#145,.T.);
#31=PLANE('',#909);
#32=PLANE('',#910);
#33=PLANE('',#911);
#34=PLANE('',#912);
#35=PLANE('',#913);
#36=PLANE('',#914);
#37=PLANE('',#915);
#38=PLANE('',#916);
#39=PLANE('',#917);
#40=PLANE('',#918);
#41=CYLINDRICAL_SURFACE('',#869,4.2);
#42=CYLINDRICAL_SURFACE('',#870,4.2);
#43=CYLINDRICAL_SURFACE('',#871,4.2);
#44=CYLINDRICAL_SURFACE('',#872,4.2);
#45=CYLINDRICAL_SURFACE('',#873,4.2);
#46=CYLINDRICAL_SURFACE('',#874,4.2);
#47=CYLINDRICAL_SURFACE('',#875,4.2);
#48=CYLINDRICAL_SURFACE('',#876,4.2);
#49=CYLINDRICAL_SURFACE('',#894,41.275);
#50=CYLINDRICAL_SURFACE('',#902,41.275);
#51=CYLINDRICAL_SURFACE('',#906,56.75);
#52=FACE_OUTER_BOUND('',#95,.T.);
#53=FACE_OUTER_BOUND('',#96,.T.);
#54=FACE_OUTER_BOUND('',#97,.T.);
#55=FACE_OUTER_BOUND('',#98,.T.);
#56=FACE_OUTER_BOUND('',#99,.T.);
#57=FACE_OUTER_BOUND('',#100,.T.);
#58=FACE_OUTER_BOUND('',#101,.T.);
#59=FACE_OUTER_BOUND('',#102,.T.);
#60=FACE_OUTER_BOUND('',#103,.T.);
#61=FACE_OUTER_BOUND('',#104,.T.);
#62=FACE_OUTER_BOUND('',#105,.T.);
#63=FACE_OUTER_BOUND('',#106,.T.);
#64=FACE_OUTER_BOUND('',#107,.T.);
#65=FACE_OUTER_BOUND('',#108,.T.);
#66=FACE_OUTER_BOUND('',#109,.T.);
#67=FACE_OUTER_BOUND('',#110,.T.);
#68=FACE_OUTER_BOUND('',#111,.T.);
#69=FACE_OUTER_BOUND('',#112,.T.);
#70=FACE_OUTER_BOUND('',#113,.T.);
#71=FACE_OUTER_BOUND('',#114,.T.);
#72=FACE_OUTER_BOUND('',#115,.T.);
#73=FACE_OUTER_BOUND('',#116,.T.);
#74=FACE_OUTER_BOUND('',#117,.T.);
#75=FACE_OUTER_BOUND('',#118,.T.);
#76=FACE_OUTER_BOUND('',#119,.T.);
#77=FACE_OUTER_BOUND('',#120,.T.);
#78=FACE_OUTER_BOUND('',#121,.T.);
#79=FACE_OUTER_BOUND('',#122,.T.);
#80=FACE_OUTER_BOUND('',#123,.T.);
#81=FACE_OUTER_BOUND('',#124,.T.);
#82=FACE_OUTER_BOUND('',#125,.T.);
#83=FACE_OUTER_BOUND('',#126,.T.);
#84=FACE_OUTER_BOUND('',#127,.T.);
#85=FACE_OUTER_BOUND('',#128,.T.);
#86=FACE_OUTER_BOUND('',#137,.T.);
#87=FACE_OUTER_BOUND('',#146,.T.);
#88=FACE_OUTER_BOUND('',#147,.T.);
#89=FACE_OUTER_BOUND('',#148,.T.);
#90=FACE_OUTER_BOUND('',#149,.T.);
#91=FACE_OUTER_BOUND('',#150,.T.);
#92=FACE_OUTER_BOUND('',#151,.T.);
#93=FACE_OUTER_BOUND('',#152,.T.);
#94=FACE_OUTER_BOUND('',#153,.T.);
#95=EDGE_LOOP('',(#506,#507,#508,#509,#510));
#96=EDGE_LOOP('',(#511,#512,#513,#514));
#97=EDGE_LOOP('',(#515,#516,#517,#518,#519));
#98=EDGE_LOOP('',(#520,#521,#522,#523));
#99=EDGE_LOOP('',(#524,#525,#526,#527,#528));
#100=EDGE_LOOP('',(#529,#530,#531,#532));
#101=EDGE_LOOP('',(#533,#534,#535,#536,#537));
#102=EDGE_LOOP('',(#538,#539,#540,#541));
#103=EDGE_LOOP('',(#542,#543,#544,#545,#546));
#104=EDGE_LOOP('',(#547,#548,#549,#550));
#105=EDGE_LOOP('',(#551,#552,#553,#554,#555));
#106=EDGE_LOOP('',(#556,#557,#558,#559));
#107=EDGE_LOOP('',(#560,#561,#562,#563,#564));
#108=EDGE_LOOP('',(#565,#566,#567,#568));
#109=EDGE_LOOP('',(#569,#570,#571,#572,#573));
#110=EDGE_LOOP('',(#574,#575,#576,#577));
#111=EDGE_LOOP('',(#578,#579,#580,#581,#582));
#112=EDGE_LOOP('',(#583,#584,#585,#586,#587));
#113=EDGE_LOOP('',(#588,#589,#590,#591,#592));
#114=EDGE_LOOP('',(#593,#594,#595,#596,#597));
#115=EDGE_LOOP('',(#598,#599,#600,#601,#602));
#116=EDGE_LOOP('',(#603,#604,#605,#606,#607));
#117=EDGE_LOOP('',(#608,#609,#610,#611,#612));
#118=EDGE_LOOP('',(#613,#614,#615,#616,#617));
#119=EDGE_LOOP('',(#618,#619,#620,#621,#622,#623));
#120=EDGE_LOOP('',(#624,#625,#626,#627,#628));
#121=EDGE_LOOP('',(#629,#630,#631,#632,#633));
#122=EDGE_LOOP('',(#634,#635,#636,#637,#638));
#123=EDGE_LOOP('',(#639,#640,#641,#642,#643));
#124=EDGE_LOOP('',(#644,#645,#646,#647,#648,#649,#650,#651));
#125=EDGE_LOOP('',(#652,#653,#654,#655,#656));
#126=EDGE_LOOP('',(#657,#658,#659,#660,#661,#662,#663,#664,#665));
#127=EDGE_LOOP('',(#666,#667,#668,#669,#670,#671,#672,#673,#674,#675,#676,
#677));
#128=EDGE_LOOP('',(#678,#679,#680,#681,#682));
#129=EDGE_LOOP('',(#683));
#130=EDGE_LOOP('',(#684));
#131=EDGE_LOOP('',(#685));
#132=EDGE_LOOP('',(#686));
#133=EDGE_LOOP('',(#687));
#134=EDGE_LOOP('',(#688));
#135=EDGE_LOOP('',(#689));
#136=EDGE_LOOP('',(#690));
#137=EDGE_LOOP('',(#691,#692,#693,#694,#695));
#138=EDGE_LOOP('',(#696));
#139=EDGE_LOOP('',(#697));
#140=EDGE_LOOP('',(#698));
#141=EDGE_LOOP('',(#699));
#142=EDGE_LOOP('',(#700));
#143=EDGE_LOOP('',(#701));
#144=EDGE_LOOP('',(#702));
#145=EDGE_LOOP('',(#703));
#146=EDGE_LOOP('',(#704));
#147=EDGE_LOOP('',(#705));
#148=EDGE_LOOP('',(#706,#707,#708,#709));
#149=EDGE_LOOP('',(#710,#711,#712,#713,#714));
#150=EDGE_LOOP('',(#715,#716,#717,#718,#719));
#151=EDGE_LOOP('',(#720,#721,#722,#723));
#152=EDGE_LOOP('',(#724,#725,#726,#727,#728));
#153=EDGE_LOOP('',(#729,#730,#731,#732,#733));
#154=LINE('',#1191,#205);
#155=LINE('',#1197,#206);
#156=LINE('',#1205,#207);
#157=LINE('',#1211,#208);
#158=LINE('',#1219,#209);
#159=LINE('',#1225,#210);
#160=LINE('',#1233,#211);
#161=LINE('',#1239,#212);
#162=LINE('',#1247,#213);
#163=LINE('',#1253,#214);
#164=LINE('',#1261,#215);
#165=LINE('',#1267,#216);
#166=LINE('',#1275,#217);
#167=LINE('',#1281,#218);
#168=LINE('',#1289,#219);
#169=LINE('',#1295,#220);
#170=LINE('',#1298,#221);
#171=LINE('',#1300,#222);
#172=LINE('',#1302,#223);
#173=LINE('',#1304,#224);
#174=LINE('',#1306,#225);
#175=LINE('',#1308,#226);
#176=LINE('',#1310,#227);
#177=LINE('',#1312,#228);
#178=LINE('',#1318,#229);
#179=LINE('',#1326,#230);
#180=LINE('',#1331,#231);
#181=LINE('',#1338,#232);
#182=LINE('',#1344,#233);
#183=LINE('',#1349,#234);
#184=LINE('',#1355,#235);
#185=LINE('',#1359,#236);
#186=LINE('',#1361,#237);
#187=LINE('',#1367,#238);
#188=LINE('',#1372,#239);
#189=LINE('',#1375,#240);
#190=LINE('',#1379,#241);
#191=LINE('',#1383,#242);
#192=LINE('',#1386,#243);
#193=LINE('',#1388,#244);
#194=LINE('',#1391,#245);
#195=LINE('',#1393,#246);
#196=LINE('',#1396,#247);
#197=LINE('',#1398,#248);
#198=LINE('',#1399,#249);
#199=LINE('',#1401,#250);
#200=LINE('',#1402,#251);
#201=LINE('',#1406,#252);
#202=LINE('',#1407,#253);
#203=LINE('',#1411,#254);
#204=LINE('',#1412,#255);
#205=VECTOR('',#927,4.50000000000004);
#206=VECTOR('',#934,4.2);
#207=VECTOR('',#943,4.49999999999999);
#208=VECTOR('',#950,4.2);
#209=VECTOR('',#959,4.5);
#210=VECTOR('',#966,4.2);
#211=VECTOR('',#975,4.49999999999999);
#212=VECTOR('',#982,4.2);
#213=VECTOR('',#991,4.49999999999998);
#214=VECTOR('',#998,4.2);
#215=VECTOR('',#1007,4.49999999999999);
#216=VECTOR('',#1014,4.2);
#217=VECTOR('',#1023,4.50000000000002);
#218=VECTOR('',#1030,4.2);
#219=VECTOR('',#1039,4.49999999999999);
#220=VECTOR('',#1046,4.2);
#221=VECTOR('',#1051,4.2);
#222=VECTOR('',#1054,4.2);
#223=VECTOR('',#1057,4.2);
#224=VECTOR('',#1060,4.2);
#225=VECTOR('',#1063,4.2);
#226=VECTOR('',#1066,4.2);
#227=VECTOR('',#1069,4.2);
#228=VECTOR('',#1072,4.2);
#229=VECTOR('',#1077,41.275);
#230=VECTOR('',#1088,38.6);
#231=VECTOR('',#1093,38.3816178594403);
#232=VECTOR('',#1102,38.6);
#233=VECTOR('',#1107,10.);
#234=VECTOR('',#1112,10.);
#235=VECTOR('',#1117,1000.);
#236=VECTOR('',#1120,1000.);
#237=VECTOR('',#1123,41.275);
#238=VECTOR('',#1128,10.);
#239=VECTOR('',#1133,10.);
#240=VECTOR('',#1136,41.275);
#241=VECTOR('',#1139,1000.);
#242=VECTOR('',#1142,1000.);
#243=VECTOR('',#1147,56.75);
#244=VECTOR('',#1148,1000.);
#245=VECTOR('',#1151,1000.);
#246=VECTOR('',#1152,1000.);
#247=VECTOR('',#1155,1000.);
#248=VECTOR('',#1158,1000.);
#249=VECTOR('',#1159,1000.);
#250=VECTOR('',#1162,1000.);
#251=VECTOR('',#1163,1000.);
#252=VECTOR('',#1170,1000.);
#253=VECTOR('',#1171,1000.);
#254=VECTOR('',#1178,1000.);
#255=VECTOR('',#1179,1000.);
#256=CIRCLE('',#814,4.2);
#257=CIRCLE('',#815,4.2);
#258=CIRCLE('',#816,4.50000000000005);
#259=CIRCLE('',#818,4.2);
#260=CIRCLE('',#819,4.50000000000005);
#261=CIRCLE('',#821,4.2);
#262=CIRCLE('',#822,4.2);
#263=CIRCLE('',#823,4.49999999999999);
#264=CIRCLE('',#825,4.2);
#265=CIRCLE('',#826,4.5);
#266=CIRCLE('',#828,4.2);
#267=CIRCLE('',#829,4.2);
#268=CIRCLE('',#830,4.5);
#269=CIRCLE('',#832,4.2);
#270=CIRCLE('',#833,4.50000000000002);
#271=CIRCLE('',#835,4.2);
#272=CIRCLE('',#836,4.2);
#273=CIRCLE('',#837,4.49999999999999);
#274=CIRCLE('',#839,4.2);
#275=CIRCLE('',#840,4.5);
#276=CIRCLE('',#842,4.2);
#277=CIRCLE('',#843,4.2);
#278=CIRCLE('',#844,4.49999999999998);
#279=CIRCLE('',#846,4.2);
#280=CIRCLE('',#847,4.49999999999996);
#281=CIRCLE('',#849,4.2);
#282=CIRCLE('',#850,4.2);
#283=CIRCLE('',#851,4.49999999999999);
#284=CIRCLE('',#853,4.2);
#285=CIRCLE('',#854,4.5);
#286=CIRCLE('',#856,4.2);
#287=CIRCLE('',#857,4.2);
#288=CIRCLE('',#858,4.50000000000002);
#289=CIRCLE('',#860,4.2);
#290=CIRCLE('',#861,4.50000000000003);
#291=CIRCLE('',#863,4.2);
#292=CIRCLE('',#864,4.2);
#293=CIRCLE('',#865,4.49999999999999);
#294=CIRCLE('',#867,4.2);
#295=CIRCLE('',#868,4.5);
#296=CIRCLE('',#878,41.275);
#297=CIRCLE('',#879,38.6);
#298=CIRCLE('',#880,38.6);
#299=CIRCLE('',#881,41.275);
#300=CIRCLE('',#883,38.3816178594403);
#301=CIRCLE('',#885,38.3816178594403);
#302=CIRCLE('',#886,38.6);
#303=CIRCLE('',#887,38.6);
#304=CIRCLE('',#889,41.275);
#305=CIRCLE('',#891,56.45);
#306=CIRCLE('',#892,56.75);
#307=CIRCLE('',#893,56.75);
#308=CIRCLE('',#895,41.275);
#309=CIRCLE('',#896,41.275);
#310=CIRCLE('',#897,41.275);
#311=CIRCLE('',#899,56.45);
#312=CIRCLE('',#900,56.75);
#313=CIRCLE('',#901,56.75);
#314=CIRCLE('',#903,41.275);
#315=CIRCLE('',#904,41.275);
#316=CIRCLE('',#905,41.275);
#317=CIRCLE('',#907,56.75);
#318=CIRCLE('',#908,56.75);
#319=VERTEX_POINT('',#1186);
#320=VERTEX_POINT('',#1187);
#321=VERTEX_POINT('',#1190);
#322=VERTEX_POINT('',#1194);
#323=VERTEX_POINT('',#1196);
#324=VERTEX_POINT('',#1200);
#325=VERTEX_POINT('',#1201);
#326=VERTEX_POINT('',#1204);
#327=VERTEX_POINT('',#1208);
#328=VERTEX_POINT('',#1210);
#329=VERTEX_POINT('',#1214);
#330=VERTEX_POINT('',#1215);
#331=VERTEX_POINT('',#1218);
#332=VERTEX_POINT('',#1222);
#333=VERTEX_POINT('',#1224);
#334=VERTEX_POINT('',#1228);
#335=VERTEX_POINT('',#1229);
#336=VERTEX_POINT('',#1232);
#337=VERTEX_POINT('',#1236);
#338=VERTEX_POINT('',#1238);
#339=VERTEX_POINT('',#1242);
#340=VERTEX_POINT('',#1243);
#341=VERTEX_POINT('',#1246);
#342=VERTEX_POINT('',#1250);
#343=VERTEX_POINT('',#1252);
#344=VERTEX_POINT('',#1256);
#345=VERTEX_POINT('',#1257);
#346=VERTEX_POINT('',#1260);
#347=VERTEX_POINT('',#1264);
#348=VERTEX_POINT('',#1266);
#349=VERTEX_POINT('',#1270);
#350=VERTEX_POINT('',#1271);
#351=VERTEX_POINT('',#1274);
#352=VERTEX_POINT('',#1278);
#353=VERTEX_POINT('',#1280);
#354=VERTEX_POINT('',#1284);
#355=VERTEX_POINT('',#1285);
#356=VERTEX_POINT('',#1288);
#357=VERTEX_POINT('',#1292);
#358=VERTEX_POINT('',#1294);
#359=VERTEX_POINT('',#1314);
#360=VERTEX_POINT('',#1315);
#361=VERTEX_POINT('',#1317);
#362=VERTEX_POINT('',#1319);
#363=VERTEX_POINT('',#1324);
#364=VERTEX_POINT('',#1328);
#365=VERTEX_POINT('',#1330);
#366=VERTEX_POINT('',#1332);
#367=VERTEX_POINT('',#1336);
#368=VERTEX_POINT('',#1340);
#369=VERTEX_POINT('',#1341);
#370=VERTEX_POINT('',#1343);
#371=VERTEX_POINT('',#1345);
#372=VERTEX_POINT('',#1347);
#373=VERTEX_POINT('',#1351);
#374=VERTEX_POINT('',#1352);
#375=VERTEX_POINT('',#1354);
#376=VERTEX_POINT('',#1356);
#377=VERTEX_POINT('',#1358);
#378=VERTEX_POINT('',#1363);
#379=VERTEX_POINT('',#1364);
#380=VERTEX_POINT('',#1366);
#381=VERTEX_POINT('',#1368);
#382=VERTEX_POINT('',#1370);
#383=VERTEX_POINT('',#1374);
#384=VERTEX_POINT('',#1376);
#385=VERTEX_POINT('',#1378);
#386=VERTEX_POINT('',#1380);
#387=VERTEX_POINT('',#1382);
#388=VERTEX_POINT('',#1387);
#389=VERTEX_POINT('',#1389);
#390=VERTEX_POINT('',#1392);
#391=VERTEX_POINT('',#1394);
#392=EDGE_CURVE('',#319,#320,#256,.T.);
#393=EDGE_CURVE('',#320,#319,#257,.T.);
#394=EDGE_CURVE('',#320,#321,#154,.T.);
#395=EDGE_CURVE('',#321,#321,#258,.T.);
#396=EDGE_CURVE('',#322,#322,#259,.T.);
#397=EDGE_CURVE('',#322,#323,#155,.T.);
#398=EDGE_CURVE('',#323,#323,#260,.T.);
#399=EDGE_CURVE('',#324,#325,#261,.T.);
#400=EDGE_CURVE('',#325,#324,#262,.T.);
#401=EDGE_CURVE('',#325,#326,#156,.T.);
#402=EDGE_CURVE('',#326,#326,#263,.T.);
#403=EDGE_CURVE('',#327,#327,#264,.T.);
#404=EDGE_CURVE('',#327,#328,#157,.T.);
#405=EDGE_CURVE('',#328,#328,#265,.T.);
#406=EDGE_CURVE('',#329,#330,#266,.T.);
#407=EDGE_CURVE('',#330,#329,#267,.T.);
#408=EDGE_CURVE('',#330,#331,#158,.T.);
#409=EDGE_CURVE('',#331,#331,#268,.T.);
#410=EDGE_CURVE('',#332,#332,#269,.T.);
#411=EDGE_CURVE('',#332,#333,#159,.T.);
#412=EDGE_CURVE('',#333,#333,#270,.T.);
#413=EDGE_CURVE('',#334,#335,#271,.T.);
#414=EDGE_CURVE('',#335,#334,#272,.T.);
#415=EDGE_CURVE('',#335,#336,#160,.T.);
#416=EDGE_CURVE('',#336,#336,#273,.T.);
#417=EDGE_CURVE('',#337,#337,#274,.T.);
#418=EDGE_CURVE('',#337,#338,#161,.T.);
#419=EDGE_CURVE('',#338,#338,#275,.T.);
#420=EDGE_CURVE('',#339,#340,#276,.T.);
#421=EDGE_CURVE('',#340,#339,#277,.T.);
#422=EDGE_CURVE('',#340,#341,#162,.T.);
#423=EDGE_CURVE('',#341,#341,#278,.T.);
#424=EDGE_CURVE('',#342,#342,#279,.T.);
#425=EDGE_CURVE('',#342,#343,#163,.T.);
#426=EDGE_CURVE('',#343,#343,#280,.T.);
#427=EDGE_CURVE('',#344,#345,#281,.T.);
#428=EDGE_CURVE('',#345,#344,#282,.T.);
#429=EDGE_CURVE('',#345,#346,#164,.T.);
#430=EDGE_CURVE('',#346,#346,#283,.T.);
#431=EDGE_CURVE('',#347,#347,#284,.T.);
#432=EDGE_CURVE('',#347,#348,#165,.T.);
#433=EDGE_CURVE('',#348,#348,#285,.T.);
#434=EDGE_CURVE('',#349,#350,#286,.T.);
#435=EDGE_CURVE('',#350,#349,#287,.T.);
#436=EDGE_CURVE('',#350,#351,#166,.T.);
#437=EDGE_CURVE('',#351,#351,#288,.T.);
#438=EDGE_CURVE('',#352,#352,#289,.T.);
#439=EDGE_CURVE('',#352,#353,#167,.T.);
#440=EDGE_CURVE('',#353,#353,#290,.T.);
#441=EDGE_CURVE('',#354,#355,#291,.T.);
#442=EDGE_CURVE('',#355,#354,#292,.T.);
#443=EDGE_CURVE('',#355,#356,#168,.T.);
#444=EDGE_CURVE('',#356,#356,#293,.T.);
#445=EDGE_CURVE('',#357,#357,#294,.T.);
#446=EDGE_CURVE('',#357,#358,#169,.T.);
#447=EDGE_CURVE('',#358,#358,#295,.T.);
#448=EDGE_CURVE('',#339,#342,#170,.T.);
#449=EDGE_CURVE('',#334,#337,#171,.T.);
#450=EDGE_CURVE('',#329,#332,#172,.T.);
#451=EDGE_CURVE('',#324,#327,#173,.T.);
#452=EDGE_CURVE('',#319,#322,#174,.T.);
#453=EDGE_CURVE('',#354,#357,#175,.T.);
#454=EDGE_CURVE('',#349,#352,#176,.T.);
#455=EDGE_CURVE('',#344,#347,#177,.T.);
#456=EDGE_CURVE('',#359,#360,#296,.T.);
#457=EDGE_CURVE('',#360,#361,#178,.T.);
#458=EDGE_CURVE('',#362,#361,#297,.T.);
#459=EDGE_CURVE('',#361,#362,#298,.T.);
#460=EDGE_CURVE('',#360,#359,#299,.T.);
#461=EDGE_CURVE('',#363,#363,#300,.T.);
#462=EDGE_CURVE('',#363,#362,#179,.T.);
#463=EDGE_CURVE('',#364,#364,#301,.T.);
#464=EDGE_CURVE('',#364,#365,#180,.T.);
#465=EDGE_CURVE('',#366,#365,#302,.T.);
#466=EDGE_CURVE('',#365,#366,#303,.T.);
#467=EDGE_CURVE('',#367,#367,#304,.T.);
#468=EDGE_CURVE('',#367,#366,#181,.T.);
#469=EDGE_CURVE('',#368,#369,#305,.T.);
#470=EDGE_CURVE('',#370,#368,#182,.T.);
#471=EDGE_CURVE('',#371,#370,#306,.T.);
#472=EDGE_CURVE('',#372,#371,#307,.T.);
#473=EDGE_CURVE('',#372,#369,#183,.T.);
#474=EDGE_CURVE('',#373,#374,#308,.T.);
#475=EDGE_CURVE('',#375,#373,#184,.T.);
#476=EDGE_CURVE('',#375,#376,#309,.T.);
#477=EDGE_CURVE('',#376,#377,#185,.T.);
#478=EDGE_CURVE('',#374,#377,#310,.T.);
#479=EDGE_CURVE('',#374,#367,#186,.T.);
#480=EDGE_CURVE('',#378,#379,#311,.T.);
#481=EDGE_CURVE('',#380,#378,#187,.T.);
#482=EDGE_CURVE('',#381,#380,#312,.T.);
#483=EDGE_CURVE('',#382,#381,#313,.T.);
#484=EDGE_CURVE('',#382,#379,#188,.T.);
#485=EDGE_CURVE('',#359,#383,#189,.T.);
#486=EDGE_CURVE('',#383,#384,#314,.T.);
#487=EDGE_CURVE('',#385,#384,#190,.T.);
#488=EDGE_CURVE('',#385,#386,#315,.T.);
#489=EDGE_CURVE('',#386,#387,#191,.T.);
#490=EDGE_CURVE('',#387,#383,#316,.T.);
#491=EDGE_CURVE('',#381,#371,#192,.T.);
#492=EDGE_CURVE('',#370,#388,#193,.T.);
#493=EDGE_CURVE('',#388,#389,#317,.T.);
#494=EDGE_CURVE('',#372,#389,#194,.T.);
#495=EDGE_CURVE('',#380,#390,#195,.T.);
#496=EDGE_CURVE('',#390,#391,#318,.T.);
#497=EDGE_CURVE('',#382,#391,#196,.T.);
#498=EDGE_CURVE('',#384,#379,#197,.T.);
#499=EDGE_CURVE('',#387,#378,#198,.T.);
#500=EDGE_CURVE('',#369,#373,#199,.T.);
#501=EDGE_CURVE('',#368,#377,#200,.T.);
#502=EDGE_CURVE('',#388,#376,#201,.T.);
#503=EDGE_CURVE('',#389,#375,#202,.T.);
#504=EDGE_CURVE('',#390,#386,#203,.T.);
#505=EDGE_CURVE('',#391,#385,#204,.T.);
#506=ORIENTED_EDGE('',*,*,#392,.F.);
#507=ORIENTED_EDGE('',*,*,#393,.F.);
#508=ORIENTED_EDGE('',*,*,#394,.T.);
#509=ORIENTED_EDGE('',*,*,#395,.F.);
#510=ORIENTED_EDGE('',*,*,#394,.F.);
#511=ORIENTED_EDGE('',*,*,#396,.F.);
#512=ORIENTED_EDGE('',*,*,#397,.T.);
#513=ORIENTED_EDGE('',*,*,#398,.F.);
#514=ORIENTED_EDGE('',*,*,#397,.F.);
#515=ORIENTED_EDGE('',*,*,#399,.F.);
#516=ORIENTED_EDGE('',*,*,#400,.F.);
#517=ORIENTED_EDGE('',*,*,#401,.T.);
#518=ORIENTED_EDGE('',*,*,#402,.F.);
#519=ORIENTED_EDGE('',*,*,#401,.F.);
#520=ORIENTED_EDGE('',*,*,#403,.F.);
#521=ORIENTED_EDGE('',*,*,#404,.T.);
#522=ORIENTED_EDGE('',*,*,#405,.F.);
#523=ORIENTED_EDGE('',*,*,#404,.F.);
#524=ORIENTED_EDGE('',*,*,#406,.F.);
#525=ORIENTED_EDGE('',*,*,#407,.F.);
#526=ORIENTED_EDGE('',*,*,#408,.T.);
#527=ORIENTED_EDGE('',*,*,#409,.F.);
#528=ORIENTED_EDGE('',*,*,#408,.F.);
#529=ORIENTED_EDGE('',*,*,#410,.F.);
#530=ORIENTED_EDGE('',*,*,#411,.T.);
#531=ORIENTED_EDGE('',*,*,#412,.F.);
#532=ORIENTED_EDGE('',*,*,#411,.F.);
#533=ORIENTED_EDGE('',*,*,#413,.F.);
#534=ORIENTED_EDGE('',*,*,#414,.F.);
#535=ORIENTED_EDGE('',*,*,#415,.T.);
#536=ORIENTED_EDGE('',*,*,#416,.F.);
#537=ORIENTED_EDGE('',*,*,#415,.F.);
#538=ORIENTED_EDGE('',*,*,#417,.F.);
#539=ORIENTED_EDGE('',*,*,#418,.T.);
#540=ORIENTED_EDGE('',*,*,#419,.F.);
#541=ORIENTED_EDGE('',*,*,#418,.F.);
#542=ORIENTED_EDGE('',*,*,#420,.F.);
#543=ORIENTED_EDGE('',*,*,#421,.F.);
#544=ORIENTED_EDGE('',*,*,#422,.T.);
#545=ORIENTED_EDGE('',*,*,#423,.F.);
#546=ORIENTED_EDGE('',*,*,#422,.F.);
#547=ORIENTED_EDGE('',*,*,#424,.F.);
#548=ORIENTED_EDGE('',*,*,#425,.T.);
#549=ORIENTED_EDGE('',*,*,#426,.F.);
#550=ORIENTED_EDGE('',*,*,#425,.F.);
#551=ORIENTED_EDGE('',*,*,#427,.F.);
#552=ORIENTED_EDGE('',*,*,#428,.F.);
#553=ORIENTED_EDGE('',*,*,#429,.T.);
#554=ORIENTED_EDGE('',*,*,#430,.F.);
#555=ORIENTED_EDGE('',*,*,#429,.F.);
#556=ORIENTED_EDGE('',*,*,#431,.F.);
#557=ORIENTED_EDGE('',*,*,#432,.T.);
#558=ORIENTED_EDGE('',*,*,#433,.F.);
#559=ORIENTED_EDGE('',*,*,#432,.F.);
#560=ORIENTED_EDGE('',*,*,#434,.F.);
#561=ORIENTED_EDGE('',*,*,#435,.F.);
#562=ORIENTED_EDGE('',*,*,#436,.T.);
#563=ORIENTED_EDGE('',*,*,#437,.F.);
#564=ORIENTED_EDGE('',*,*,#436,.F.);
#565=ORIENTED_EDGE('',*,*,#438,.F.);
#566=ORIENTED_EDGE('',*,*,#439,.T.);
#567=ORIENTED_EDGE('',*,*,#440,.F.);
#568=ORIENTED_EDGE('',*,*,#439,.F.);
#569=ORIENTED_EDGE('',*,*,#441,.F.);
#570=ORIENTED_EDGE('',*,*,#442,.F.);
#571=ORIENTED_EDGE('',*,*,#443,.T.);
#572=ORIENTED_EDGE('',*,*,#444,.F.);
#573=ORIENTED_EDGE('',*,*,#443,.F.);
#574=ORIENTED_EDGE('',*,*,#445,.F.);
#575=ORIENTED_EDGE('',*,*,#446,.T.);
#576=ORIENTED_EDGE('',*,*,#447,.F.);
#577=ORIENTED_EDGE('',*,*,#446,.F.);
#578=ORIENTED_EDGE('',*,*,#420,.T.);
#579=ORIENTED_EDGE('',*,*,#421,.T.);
#580=ORIENTED_EDGE('',*,*,#448,.T.);
#581=ORIENTED_EDGE('',*,*,#424,.T.);
#582=ORIENTED_EDGE('',*,*,#448,.F.);
#583=ORIENTED_EDGE('',*,*,#413,.T.);
#584=ORIENTED_EDGE('',*,*,#414,.T.);
#585=ORIENTED_EDGE('',*,*,#449,.T.);
#586=ORIENTED_EDGE('',*,*,#417,.T.);
#587=ORIENTED_EDGE('',*,*,#449,.F.);
#588=ORIENTED_EDGE('',*,*,#406,.T.);
#589=ORIENTED_EDGE('',*,*,#407,.T.);
#590=ORIENTED_EDGE('',*,*,#450,.T.);
#591=ORIENTED_EDGE('',*,*,#410,.T.);
#592=ORIENTED_EDGE('',*,*,#450,.F.);
#593=ORIENTED_EDGE('',*,*,#399,.T.);
#594=ORIENTED_EDGE('',*,*,#400,.T.);
#595=ORIENTED_EDGE('',*,*,#451,.T.);
#596=ORIENTED_EDGE('',*,*,#403,.T.);
#597=ORIENTED_EDGE('',*,*,#451,.F.);
#598=ORIENTED_EDGE('',*,*,#392,.T.);
#599=ORIENTED_EDGE('',*,*,#393,.T.);
#600=ORIENTED_EDGE('',*,*,#452,.T.);
#601=ORIENTED_EDGE('',*,*,#396,.T.);
#602=ORIENTED_EDGE('',*,*,#452,.F.);
#603=ORIENTED_EDGE('',*,*,#441,.T.);
#604=ORIENTED_EDGE('',*,*,#442,.T.);
#605=ORIENTED_EDGE('',*,*,#453,.T.);
#606=ORIENTED_EDGE('',*,*,#445,.T.);
#607=ORIENTED_EDGE('',*,*,#453,.F.);
#608=ORIENTED_EDGE('',*,*,#434,.T.);
#609=ORIENTED_EDGE('',*,*,#435,.T.);
#610=ORIENTED_EDGE('',*,*,#454,.T.);
#611=ORIENTED_EDGE('',*,*,#438,.T.);
#612=ORIENTED_EDGE('',*,*,#454,.F.);
#613=ORIENTED_EDGE('',*,*,#427,.T.);
#614=ORIENTED_EDGE('',*,*,#428,.T.);
#615=ORIENTED_EDGE('',*,*,#455,.T.);
#616=ORIENTED_EDGE('',*,*,#431,.T.);
#617=ORIENTED_EDGE('',*,*,#455,.F.);
#618=ORIENTED_EDGE('',*,*,#456,.T.);
#619=ORIENTED_EDGE('',*,*,#457,.T.);
#620=ORIENTED_EDGE('',*,*,#458,.F.);
#621=ORIENTED_EDGE('',*,*,#459,.F.);
#622=ORIENTED_EDGE('',*,*,#457,.F.);
#623=ORIENTED_EDGE('',*,*,#460,.T.);
#624=ORIENTED_EDGE('',*,*,#461,.F.);
#625=ORIENTED_EDGE('',*,*,#462,.T.);
#626=ORIENTED_EDGE('',*,*,#458,.T.);
#627=ORIENTED_EDGE('',*,*,#459,.T.);
#628=ORIENTED_EDGE('',*,*,#462,.F.);
#629=ORIENTED_EDGE('',*,*,#463,.T.);
#630=ORIENTED_EDGE('',*,*,#464,.T.);
#631=ORIENTED_EDGE('',*,*,#465,.F.);
#632=ORIENTED_EDGE('',*,*,#466,.F.);
#633=ORIENTED_EDGE('',*,*,#464,.F.);
#634=ORIENTED_EDGE('',*,*,#467,.F.);
#635=ORIENTED_EDGE('',*,*,#468,.T.);
#636=ORIENTED_EDGE('',*,*,#465,.T.);
#637=ORIENTED_EDGE('',*,*,#466,.T.);
#638=ORIENTED_EDGE('',*,*,#468,.F.);
#639=ORIENTED_EDGE('',*,*,#469,.F.);
#640=ORIENTED_EDGE('',*,*,#470,.F.);
#641=ORIENTED_EDGE('',*,*,#471,.F.);
#642=ORIENTED_EDGE('',*,*,#472,.F.);
#643=ORIENTED_EDGE('',*,*,#473,.T.);
#644=ORIENTED_EDGE('',*,*,#474,.F.);
#645=ORIENTED_EDGE('',*,*,#475,.F.);
#646=ORIENTED_EDGE('',*,*,#476,.T.);
#647=ORIENTED_EDGE('',*,*,#477,.T.);
#648=ORIENTED_EDGE('',*,*,#478,.F.);
#649=ORIENTED_EDGE('',*,*,#479,.T.);
#650=ORIENTED_EDGE('',*,*,#467,.T.);
#651=ORIENTED_EDGE('',*,*,#479,.F.);
#652=ORIENTED_EDGE('',*,*,#480,.F.);
#653=ORIENTED_EDGE('',*,*,#481,.F.);
#654=ORIENTED_EDGE('',*,*,#482,.F.);
#655=ORIENTED_EDGE('',*,*,#483,.F.);
#656=ORIENTED_EDGE('',*,*,#484,.T.);
#657=ORIENTED_EDGE('',*,*,#456,.F.);
#658=ORIENTED_EDGE('',*,*,#485,.T.);
#659=ORIENTED_EDGE('',*,*,#486,.T.);
#660=ORIENTED_EDGE('',*,*,#487,.F.);
#661=ORIENTED_EDGE('',*,*,#488,.T.);
#662=ORIENTED_EDGE('',*,*,#489,.T.);
#663=ORIENTED_EDGE('',*,*,#490,.T.);
#664=ORIENTED_EDGE('',*,*,#485,.F.);
#665=ORIENTED_EDGE('',*,*,#460,.F.);
#666=ORIENTED_EDGE('',*,*,#483,.T.);
#667=ORIENTED_EDGE('',*,*,#491,.T.);
#668=ORIENTED_EDGE('',*,*,#471,.T.);
#669=ORIENTED_EDGE('',*,*,#492,.T.);
#670=ORIENTED_EDGE('',*,*,#493,.T.);
#671=ORIENTED_EDGE('',*,*,#494,.F.);
#672=ORIENTED_EDGE('',*,*,#472,.T.);
#673=ORIENTED_EDGE('',*,*,#491,.F.);
#674=ORIENTED_EDGE('',*,*,#482,.T.);
#675=ORIENTED_EDGE('',*,*,#495,.T.);
#676=ORIENTED_EDGE('',*,*,#496,.T.);
#677=ORIENTED_EDGE('',*,*,#497,.F.);
#678=ORIENTED_EDGE('',*,*,#498,.F.);
#679=ORIENTED_EDGE('',*,*,#486,.F.);
#680=ORIENTED_EDGE('',*,*,#490,.F.);
#681=ORIENTED_EDGE('',*,*,#499,.T.);
#682=ORIENTED_EDGE('',*,*,#480,.T.);
#683=ORIENTED_EDGE('',*,*,#395,.T.);
#684=ORIENTED_EDGE('',*,*,#402,.T.);
#685=ORIENTED_EDGE('',*,*,#409,.T.);
#686=ORIENTED_EDGE('',*,*,#416,.T.);
#687=ORIENTED_EDGE('',*,*,#423,.T.);
#688=ORIENTED_EDGE('',*,*,#430,.T.);
#689=ORIENTED_EDGE('',*,*,#437,.T.);
#690=ORIENTED_EDGE('',*,*,#444,.T.);
#691=ORIENTED_EDGE('',*,*,#500,.T.);
#692=ORIENTED_EDGE('',*,*,#474,.T.);
#693=ORIENTED_EDGE('',*,*,#478,.T.);
#694=ORIENTED_EDGE('',*,*,#501,.F.);
#695=ORIENTED_EDGE('',*,*,#469,.T.);
#696=ORIENTED_EDGE('',*,*,#398,.T.);
#697=ORIENTED_EDGE('',*,*,#405,.T.);
#698=ORIENTED_EDGE('',*,*,#412,.T.);
#699=ORIENTED_EDGE('',*,*,#419,.T.);
#700=ORIENTED_EDGE('',*,*,#426,.T.);
#701=ORIENTED_EDGE('',*,*,#433,.T.);
#702=ORIENTED_EDGE('',*,*,#440,.T.);
#703=ORIENTED_EDGE('',*,*,#447,.T.);
#704=ORIENTED_EDGE('',*,*,#463,.F.);
#705=ORIENTED_EDGE('',*,*,#461,.T.);
#706=ORIENTED_EDGE('',*,*,#502,.T.);
#707=ORIENTED_EDGE('',*,*,#476,.F.);
#708=ORIENTED_EDGE('',*,*,#503,.F.);
#709=ORIENTED_EDGE('',*,*,#493,.F.);
#710=ORIENTED_EDGE('',*,*,#475,.T.);
#711=ORIENTED_EDGE('',*,*,#500,.F.);
#712=ORIENTED_EDGE('',*,*,#473,.F.);
#713=ORIENTED_EDGE('',*,*,#494,.T.);
#714=ORIENTED_EDGE('',*,*,#503,.T.);
#715=ORIENTED_EDGE('',*,*,#502,.F.);
#716=ORIENTED_EDGE('',*,*,#492,.F.);
#717=ORIENTED_EDGE('',*,*,#470,.T.);
#718=ORIENTED_EDGE('',*,*,#501,.T.);
#719=ORIENTED_EDGE('',*,*,#477,.F.);
#720=ORIENTED_EDGE('',*,*,#504,.T.);
#721=ORIENTED_EDGE('',*,*,#488,.F.);
#722=ORIENTED_EDGE('',*,*,#505,.F.);
#723=ORIENTED_EDGE('',*,*,#496,.F.);
#724=ORIENTED_EDGE('',*,*,#497,.T.);
#725=ORIENTED_EDGE('',*,*,#505,.T.);
#726=ORIENTED_EDGE('',*,*,#487,.T.);
#727=ORIENTED_EDGE('',*,*,#498,.T.);
#728=ORIENTED_EDGE('',*,*,#484,.F.);
#729=ORIENTED_EDGE('',*,*,#481,.T.);
#730=ORIENTED_EDGE('',*,*,#499,.F.);
#731=ORIENTED_EDGE('',*,*,#489,.F.);
#732=ORIENTED_EDGE('',*,*,#504,.F.);
#733=ORIENTED_EDGE('',*,*,#495,.F.);
#734=CONICAL_SURFACE('',#813,4.50000000000004,0.785398163397467);
#735=CONICAL_SURFACE('',#817,4.2,0.78539816339746);
#736=CONICAL_SURFACE('',#820,4.49999999999999,0.785398163397448);
#737=CONICAL_SURFACE('',#824,4.2,0.785398163397425);
#738=CONICAL_SURFACE('',#827,4.5,0.78539816339747);
#739=CONICAL_SURFACE('',#831,4.2,0.78539816339745);
#740=CONICAL_SURFACE('',#834,4.49999999999999,0.785398163397448);
#741=CONICAL_SURFACE('',#838,4.2,0.785398163397425);
#742=CONICAL_SURFACE('',#841,4.49999999999998,0.785398163397431);
#743=CONICAL_SURFACE('',#845,4.2,0.785398163397428);
#744=CONICAL_SURFACE('',#848,4.49999999999999,0.785398163397448);
#745=CONICAL_SURFACE('',#852,4.2,0.785398163397425);
#746=CONICAL_SURFACE('',#855,4.50000000000002,0.785398163397473);
#747=CONICAL_SURFACE('',#859,4.2,0.785398163397451);
#748=CONICAL_SURFACE('',#862,4.49999999999999,0.785398163397448);
#749=CONICAL_SURFACE('',#866,4.2,0.785398163397425);
#750=CONICAL_SURFACE('',#877,41.275,1.22173047639603);
#751=CONICAL_SURFACE('',#882,38.6,0.349065850398874);
#752=CONICAL_SURFACE('',#884,38.3816178594403,0.349065850398874);
#753=CONICAL_SURFACE('',#888,38.6,1.22173047639603);
#754=CONICAL_SURFACE('',#890,56.75,0.785398163397448);
#755=CONICAL_SURFACE('',#898,56.45,0.78539816339746);
#756=ADVANCED_FACE('',(#52),#734,.F.);
#757=ADVANCED_FACE('',(#53),#735,.F.);
#758=ADVANCED_FACE('',(#54),#736,.F.);
#759=ADVANCED_FACE('',(#55),#737,.F.);
#760=ADVANCED_FACE('',(#56),#738,.F.);
#761=ADVANCED_FACE('',(#57),#739,.F.);
#762=ADVANCED_FACE('',(#58),#740,.F.);
#763=ADVANCED_FACE('',(#59),#741,.F.);
#764=ADVANCED_FACE('',(#60),#742,.F.);
#765=ADVANCED_FACE('',(#61),#743,.F.);
#766=ADVANCED_FACE('',(#62),#744,.F.);
#767=ADVANCED_FACE('',(#63),#745,.F.);
#768=ADVANCED_FACE('',(#64),#746,.F.);
#769=ADVANCED_FACE('',(#65),#747,.F.);
#770=ADVANCED_FACE('',(#66),#748,.F.);
#771=ADVANCED_FACE('',(#67),#749,.F.);
#772=ADVANCED_FACE('',(#68),#41,.F.);
#773=ADVANCED_FACE('',(#69),#42,.F.);
#774=ADVANCED_FACE('',(#70),#43,.F.);
#775=ADVANCED_FACE('',(#71),#44,.F.);
#776=ADVANCED_FACE('',(#72),#45,.F.);
#777=ADVANCED_FACE('',(#73),#46,.F.);
#778=ADVANCED_FACE('',(#74),#47,.F.);
#779=ADVANCED_FACE('',(#75),#48,.F.);
#780=ADVANCED_FACE('',(#76),#750,.T.);
#781=ADVANCED_FACE('',(#77),#751,.F.);
#782=ADVANCED_FACE('',(#78),#752,.F.);
#783=ADVANCED_FACE('',(#79),#753,.T.);
#784=ADVANCED_FACE('',(#80),#754,.T.);
#785=ADVANCED_FACE('',(#81),#49,.F.);
#786=ADVANCED_FACE('',(#82),#755,.T.);
#787=ADVANCED_FACE('',(#83),#50,.F.);
#788=ADVANCED_FACE('',(#84),#51,.T.);
#789=ADVANCED_FACE('',(#85,#15,#16,#17,#18,#19,#20,#21,#22),#31,.F.);
#790=ADVANCED_FACE('',(#86,#23,#24,#25,#26,#27,#28,#29,#30),#32,.F.);
#791=ADVANCED_FACE('',(#87),#33,.F.);
#792=ADVANCED_FACE('',(#88),#34,.F.);
#793=ADVANCED_FACE('',(#89),#35,.F.);
#794=ADVANCED_FACE('',(#90),#36,.T.);
#795=ADVANCED_FACE('',(#91),#37,.F.);
#796=ADVANCED_FACE('',(#92),#38,.F.);
#797=ADVANCED_FACE('',(#93),#39,.T.);
#798=ADVANCED_FACE('',(#94),#40,.F.);
#799=CLOSED_SHELL('',(#756,#757,#758,#759,#760,#761,#762,#763,#764,#765,
#766,#767,#768,#769,#770,#771,#772,#773,#774,#775,#776,#777,#778,#779,#780,
#781,#782,#783,#784,#785,#786,#787,#788,#789,#790,#791,#792,#793,#794,#795,
#796,#797,#798));
#800=DERIVED_UNIT_ELEMENT(#802,1.);
#801=DERIVED_UNIT_ELEMENT(#1420,-3.);
#802=(
MASS_UNIT()
NAMED_UNIT(*)
SI_UNIT(.KILO.,.GRAM.)
);
#803=DERIVED_UNIT((#800,#801));
#804=MEASURE_REPRESENTATION_ITEM('density measure',
POSITIVE_RATIO_MEASURE(7850.),#803);
#805=PROPERTY_DEFINITION_REPRESENTATION(#810,#807);
#806=PROPERTY_DEFINITION_REPRESENTATION(#811,#808);
#807=REPRESENTATION('material name',(#809),#1417);
#808=REPRESENTATION('density',(#804),#1417);
#809=DESCRIPTIVE_REPRESENTATION_ITEM('Steel','Steel');
#810=PROPERTY_DEFINITION('material property','material name',#1427);
#811=PROPERTY_DEFINITION('material property','density of part',#1427);
#812=AXIS2_PLACEMENT_3D('',#1184,#919,#920);
#813=AXIS2_PLACEMENT_3D('',#1185,#921,#922);
#814=AXIS2_PLACEMENT_3D('',#1188,#923,#924);
#815=AXIS2_PLACEMENT_3D('',#1189,#925,#926);
#816=AXIS2_PLACEMENT_3D('',#1192,#928,#929);
#817=AXIS2_PLACEMENT_3D('',#1193,#930,#931);
#818=AXIS2_PLACEMENT_3D('',#1195,#932,#933);
#819=AXIS2_PLACEMENT_3D('',#1198,#935,#936);
#820=AXIS2_PLACEMENT_3D('',#1199,#937,#938);
#821=AXIS2_PLACEMENT_3D('',#1202,#939,#940);
#822=AXIS2_PLACEMENT_3D('',#1203,#941,#942);
#823=AXIS2_PLACEMENT_3D('',#1206,#944,#945);
#824=AXIS2_PLACEMENT_3D('',#1207,#946,#947);
#825=AXIS2_PLACEMENT_3D('',#1209,#948,#949);
#826=AXIS2_PLACEMENT_3D('',#1212,#951,#952);
#827=AXIS2_PLACEMENT_3D('',#1213,#953,#954);
#828=AXIS2_PLACEMENT_3D('',#1216,#955,#956);
#829=AXIS2_PLACEMENT_3D('',#1217,#957,#958);
#830=AXIS2_PLACEMENT_3D('',#1220,#960,#961);
#831=AXIS2_PLACEMENT_3D('',#1221,#962,#963);
#832=AXIS2_PLACEMENT_3D('',#1223,#964,#965);
#833=AXIS2_PLACEMENT_3D('',#1226,#967,#968);
#834=AXIS2_PLACEMENT_3D('',#1227,#969,#970);
#835=AXIS2_PLACEMENT_3D('',#1230,#971,#972);
#836=AXIS2_PLACEMENT_3D('',#1231,#973,#974);
#837=AXIS2_PLACEMENT_3D('',#1234,#976,#977);
#838=AXIS2_PLACEMENT_3D('',#1235,#978,#979);
#839=AXIS2_PLACEMENT_3D('',#1237,#980,#981);
#840=AXIS2_PLACEMENT_3D('',#1240,#983,#984);
#841=AXIS2_PLACEMENT_3D('',#1241,#985,#986);
#842=AXIS2_PLACEMENT_3D('',#1244,#987,#988);
#843=AXIS2_PLACEMENT_3D('',#1245,#989,#990);
#844=AXIS2_PLACEMENT_3D('',#1248,#992,#993);
#845=AXIS2_PLACEMENT_3D('',#1249,#994,#995);
#846=AXIS2_PLACEMENT_3D('',#1251,#996,#997);
#847=AXIS2_PLACEMENT_3D('',#1254,#999,#1000);
#848=AXIS2_PLACEMENT_3D('',#1255,#1001,#1002);
#849=AXIS2_PLACEMENT_3D('',#1258,#1003,#1004);
#850=AXIS2_PLACEMENT_3D('',#1259,#1005,#1006);
#851=AXIS2_PLACEMENT_3D('',#1262,#1008,#1009);
#852=AXIS2_PLACEMENT_3D('',#1263,#1010,#1011);
#853=AXIS2_PLACEMENT_3D('',#1265,#1012,#1013);
#854=AXIS2_PLACEMENT_3D('',#1268,#1015,#1016);
#855=AXIS2_PLACEMENT_3D('',#1269,#1017,#1018);
#856=AXIS2_PLACEMENT_3D('',#1272,#1019,#1020);
#857=AXIS2_PLACEMENT_3D('',#1273,#1021,#1022);
#858=AXIS2_PLACEMENT_3D('',#1276,#1024,#1025);
#859=AXIS2_PLACEMENT_3D('',#1277,#1026,#1027);
#860=AXIS2_PLACEMENT_3D('',#1279,#1028,#1029);
#861=AXIS2_PLACEMENT_3D('',#1282,#1031,#1032);
#862=AXIS2_PLACEMENT_3D('',#1283,#1033,#1034);
#863=AXIS2_PLACEMENT_3D('',#1286,#1035,#1036);
#864=AXIS2_PLACEMENT_3D('',#1287,#1037,#1038);
#865=AXIS2_PLACEMENT_3D('',#1290,#1040,#1041);
#866=AXIS2_PLACEMENT_3D('',#1291,#1042,#1043);
#867=AXIS2_PLACEMENT_3D('',#1293,#1044,#1045);
#868=AXIS2_PLACEMENT_3D('',#1296,#1047,#1048);
#869=AXIS2_PLACEMENT_3D('',#1297,#1049,#1050);
#870=AXIS2_PLACEMENT_3D('',#1299,#1052,#1053);
#871=AXIS2_PLACEMENT_3D('',#1301,#1055,#1056);
#872=AXIS2_PLACEMENT_3D('',#1303,#1058,#1059);
#873=AXIS2_PLACEMENT_3D('',#1305,#1061,#1062);
#874=AXIS2_PLACEMENT_3D('',#1307,#1064,#1065);
#875=AXIS2_PLACEMENT_3D('',#1309,#1067,#1068);
#876=AXIS2_PLACEMENT_3D('',#1311,#1070,#1071);
#877=AXIS2_PLACEMENT_3D('',#1313,#1073,#1074);
#878=AXIS2_PLACEMENT_3D('',#1316,#1075,#1076);
#879=AXIS2_PLACEMENT_3D('',#1320,#1078,#1079);
#880=AXIS2_PLACEMENT_3D('',#1321,#1080,#1081);
#881=AXIS2_PLACEMENT_3D('',#1322,#1082,#1083);
#882=AXIS2_PLACEMENT_3D('',#1323,#1084,#1085);
#883=AXIS2_PLACEMENT_3D('',#1325,#1086,#1087);
#884=AXIS2_PLACEMENT_3D('',#1327,#1089,#1090);
#885=AXIS2_PLACEMENT_3D('',#1329,#1091,#1092);
#886=AXIS2_PLACEMENT_3D('',#1333,#1094,#1095);
#887=AXIS2_PLACEMENT_3D('',#1334,#1096,#1097);
#888=AXIS2_PLACEMENT_3D('',#1335,#1098,#1099);
#889=AXIS2_PLACEMENT_3D('',#1337,#1100,#1101);
#890=AXIS2_PLACEMENT_3D('',#1339,#1103,#1104);
#891=AXIS2_PLACEMENT_3D('',#1342,#1105,#1106);
#892=AXIS2_PLACEMENT_3D('',#1346,#1108,#1109);
#893=AXIS2_PLACEMENT_3D('',#1348,#1110,#1111);
#894=AXIS2_PLACEMENT_3D('',#1350,#1113,#1114);
#895=AXIS2_PLACEMENT_3D('',#1353,#1115,#1116);
#896=AXIS2_PLACEMENT_3D('',#1357,#1118,#1119);
#897=AXIS2_PLACEMENT_3D('',#1360,#1121,#1122);
#898=AXIS2_PLACEMENT_3D('',#1362,#1124,#1125);
#899=AXIS2_PLACEMENT_3D('',#1365,#1126,#1127);
#900=AXIS2_PLACEMENT_3D('',#1369,#1129,#1130);
#901=AXIS2_PLACEMENT_3D('',#1371,#1131,#1132);
#902=AXIS2_PLACEMENT_3D('',#1373,#1134,#1135);
#903=AXIS2_PLACEMENT_3D('',#1377,#1137,#1138);
#904=AXIS2_PLACEMENT_3D('',#1381,#1140,#1141);
#905=AXIS2_PLACEMENT_3D('',#1384,#1143,#1144);
#906=AXIS2_PLACEMENT_3D('',#1385,#1145,#1146);
#907=AXIS2_PLACEMENT_3D('',#1390,#1149,#1150);
#908=AXIS2_PLACEMENT_3D('',#1395,#1153,#1154);
#909=AXIS2_PLACEMENT_3D('',#1397,#1156,#1157);
#910=AXIS2_PLACEMENT_3D('',#1400,#1160,#1161);
#911=AXIS2_PLACEMENT_3D('',#1403,#1164,#1165);
#912=AXIS2_PLACEMENT_3D('',#1404,#1166,#1167);
#913=AXIS2_PLACEMENT_3D('',#1405,#1168,#1169);
#914=AXIS2_PLACEMENT_3D('',#1408,#1172,#1173);
#915=AXIS2_PLACEMENT_3D('',#1409,#1174,#1175);
#916=AXIS2_PLACEMENT_3D('',#1410,#1176,#1177);
#917=AXIS2_PLACEMENT_3D('',#1413,#1180,#1181);
#918=AXIS2_PLACEMENT_3D('',#1414,#1182,#1183);
#919=DIRECTION('axis',(0.,0.,1.));
#920=DIRECTION('refdir',(1.,0.,0.));
#921=DIRECTION('center_axis',(0.,-1.,0.));
#922=DIRECTION('ref_axis',(0.,0.,-1.));
#923=DIRECTION('center_axis',(0.,-1.,0.));
#924=DIRECTION('ref_axis',(0.,0.,1.));
#925=DIRECTION('center_axis',(0.,-1.,0.));
#926=DIRECTION('ref_axis',(0.,0.,1.));
#927=DIRECTION('',(-8.6595605623551E-17,-0.707106781186534,0.707106781186561));
#928=DIRECTION('center_axis',(0.,1.,0.));
#929=DIRECTION('ref_axis',(0.,0.,1.));
#930=DIRECTION('center_axis',(0.,1.,0.));
#931=DIRECTION('ref_axis',(0.,0.,1.));
#932=DIRECTION('center_axis',(0.,1.,0.));
#933=DIRECTION('ref_axis',(0.,0.,-1.));
#934=DIRECTION('',(-8.65956056235503E-17,0.707106781186539,-0.707106781186556));
#935=DIRECTION('center_axis',(0.,-1.,0.));
#936=DIRECTION('ref_axis',(0.,0.,-1.));
#937=DIRECTION('center_axis',(0.,-1.,0.));
#938=DIRECTION('ref_axis',(0.,0.,-1.));
#939=DIRECTION('center_axis',(0.,-1.,0.));
#940=DIRECTION('ref_axis',(0.,0.,1.));
#941=DIRECTION('center_axis',(0.,-1.,0.));
#942=DIRECTION('ref_axis',(0.,0.,1.));
#943=DIRECTION('',(-8.65956056235493E-17,-0.707106781186548,0.707106781186548));
#944=DIRECTION('center_axis',(0.,1.,0.));
#945=DIRECTION('ref_axis',(0.,0.,1.));
#946=DIRECTION('center_axis',(0.,1.,0.));
#947=DIRECTION('ref_axis',(0.,0.,1.));
#948=DIRECTION('center_axis',(0.,1.,0.));
#949=DIRECTION('ref_axis',(0.,0.,-1.));
#950=DIRECTION('',(-8.65956056235473E-17,0.707106781186564,-0.707106781186531));
#951=DIRECTION('center_axis',(0.,-1.,0.));
#952=DIRECTION('ref_axis',(0.,0.,-1.));
#953=DIRECTION('center_axis',(0.,-1.,0.));
#954=DIRECTION('ref_axis',(0.,0.,-1.));
#955=DIRECTION('center_axis',(0.,-1.,0.));
#956=DIRECTION('ref_axis',(0.,0.,1.));
#957=DIRECTION('center_axis',(0.,-1.,0.));
#958=DIRECTION('ref_axis',(0.,0.,1.));
#959=DIRECTION('',(-8.65956056235512E-17,-0.707106781186532,0.707106781186563));
#960=DIRECTION('center_axis',(0.,1.,0.));
#961=DIRECTION('ref_axis',(0.,0.,1.));
#962=DIRECTION('center_axis',(0.,1.,0.));
#963=DIRECTION('ref_axis',(0.,0.,1.));
#964=DIRECTION('center_axis',(0.,1.,0.));
#965=DIRECTION('ref_axis',(0.,0.,-1.));
#966=DIRECTION('',(-8.65956056235495E-17,0.707106781186546,-0.707106781186548));
#967=DIRECTION('center_axis',(0.,-1.,0.));
#968=DIRECTION('ref_axis',(0.,0.,-1.));
#969=DIRECTION('center_axis',(0.,-1.,0.));
#970=DIRECTION('ref_axis',(0.,0.,-1.));
#971=DIRECTION('center_axis',(0.,-1.,0.));
#972=DIRECTION('ref_axis',(0.,0.,1.));
#973=DIRECTION('center_axis',(0.,-1.,0.));
#974=DIRECTION('ref_axis',(0.,0.,1.));
#975=DIRECTION('',(-8.65956056235493E-17,-0.707106781186548,0.707106781186548));
#976=DIRECTION('center_axis',(0.,1.,0.));
#977=DIRECTION('ref_axis',(0.,0.,1.));
#978=DIRECTION('center_axis',(0.,1.,0.));
#979=DIRECTION('ref_axis',(0.,0.,1.));
#980=DIRECTION('center_axis',(0.,1.,0.));
#981=DIRECTION('ref_axis',(0.,0.,-1.));
#982=DIRECTION('',(-8.65956056235473E-17,0.707106781186564,-0.707106781186531));
#983=DIRECTION('center_axis',(0.,-1.,0.));
#984=DIRECTION('ref_axis',(0.,0.,-1.));
#985=DIRECTION('center_axis',(0.,-1.,0.));
#986=DIRECTION('ref_axis',(0.,0.,-1.));
#987=DIRECTION('center_axis',(0.,-1.,0.));
#988=DIRECTION('ref_axis',(0.,0.,1.));
#989=DIRECTION('center_axis',(0.,-1.,0.));
#990=DIRECTION('ref_axis',(0.,0.,1.));
#991=DIRECTION('',(-8.65956056235478E-17,-0.70710678118656,0.707106781186535));
#992=DIRECTION('center_axis',(0.,1.,0.));
#993=DIRECTION('ref_axis',(0.,0.,1.));
#994=DIRECTION('center_axis',(0.,1.,0.));
#995=DIRECTION('ref_axis',(0.,0.,1.));
#996=DIRECTION('center_axis',(0.,1.,0.));
#997=DIRECTION('ref_axis',(0.,0.,-1.));
#998=DIRECTION('',(-8.65956056235476E-17,0.707106781186562,-0.707106781186533));
#999=DIRECTION('center_axis',(0.,-1.,0.));
#1000=DIRECTION('ref_axis',(0.,0.,-1.));
#1001=DIRECTION('center_axis',(0.,-1.,0.));
#1002=DIRECTION('ref_axis',(0.,0.,-1.));
#1003=DIRECTION('center_axis',(0.,-1.,0.));
#1004=DIRECTION('ref_axis',(0.,0.,1.));
#1005=DIRECTION('center_axis',(0.,-1.,0.));
#1006=DIRECTION('ref_axis',(0.,0.,1.));
#1007=DIRECTION('',(-8.65956056235493E-17,-0.707106781186548,0.707106781186548));
#1008=DIRECTION('center_axis',(0.,1.,0.));
#1009=DIRECTION('ref_axis',(0.,0.,1.));
#1010=DIRECTION('center_axis',(0.,1.,0.));
#1011=DIRECTION('ref_axis',(0.,0.,1.));
#1012=DIRECTION('center_axis',(0.,1.,0.));
#1013=DIRECTION('ref_axis',(0.,0.,-1.));
#1014=DIRECTION('',(-8.65956056235473E-17,0.707106781186564,-0.707106781186531));
#1015=DIRECTION('center_axis',(0.,-1.,0.));
#1016=DIRECTION('ref_axis',(0.,0.,-1.));
#1017=DIRECTION('center_axis',(0.,-1.,0.));
#1018=DIRECTION('ref_axis',(0.,0.,-1.));
#1019=DIRECTION('center_axis',(0.,-1.,0.));
#1020=DIRECTION('ref_axis',(0.,0.,1.));
#1021=DIRECTION('center_axis',(0.,-1.,0.));
#1022=DIRECTION('ref_axis',(0.,0.,1.));
#1023=DIRECTION('',(-8.65956056235514E-17,-0.70710678118653,0.707106781186565));
#1024=DIRECTION('center_axis',(0.,1.,0.));
#1025=DIRECTION('ref_axis',(0.,0.,1.));
#1026=DIRECTION('center_axis',(0.,1.,0.));
#1027=DIRECTION('ref_axis',(0.,0.,1.));
#1028=DIRECTION('center_axis',(0.,1.,0.));
#1029=DIRECTION('ref_axis',(0.,0.,-1.));
#1030=DIRECTION('',(-8.65956056235496E-17,0.707106781186545,-0.70710678118655));
#1031=DIRECTION('center_axis',(0.,-1.,0.));
#1032=DIRECTION('ref_axis',(0.,0.,-1.));
#1033=DIRECTION('center_axis',(0.,-1.,0.));
#1034=DIRECTION('ref_axis',(0.,0.,-1.));
#1035=DIRECTION('center_axis',(0.,-1.,0.));
#1036=DIRECTION('ref_axis',(0.,0.,1.));
#1037=DIRECTION('center_axis',(0.,-1.,0.));
#1038=DIRECTION('ref_axis',(0.,0.,1.));
#1039=DIRECTION('',(-8.65956056235493E-17,-0.707106781186548,0.707106781186548));
#1040=DIRECTION('center_axis',(0.,1.,0.));
#1041=DIRECTION('ref_axis',(0.,0.,1.));
#1042=DIRECTION('center_axis',(0.,1.,0.));
#1043=DIRECTION('ref_axis',(0.,0.,1.));
#1044=DIRECTION('center_axis',(0.,1.,0.));
#1045=DIRECTION('ref_axis',(0.,0.,-1.));
#1046=DIRECTION('',(-8.65956056235473E-17,0.707106781186564,-0.707106781186531));
#1047=DIRECTION('center_axis',(0.,-1.,0.));
#1048=DIRECTION('ref_axis',(0.,0.,-1.));
#1049=DIRECTION('center_axis',(0.,1.,0.));
#1050=DIRECTION('ref_axis',(0.,0.,1.));
#1051=DIRECTION('',(0.,1.,0.));
#1052=DIRECTION('center_axis',(0.,1.,0.));
#1053=DIRECTION('ref_axis',(0.,0.,1.));
#1054=DIRECTION('',(0.,1.,0.));
#1055=DIRECTION('center_axis',(0.,1.,0.));
#1056=DIRECTION('ref_axis',(0.,0.,1.));
#1057=DIRECTION('',(0.,1.,0.));
#1058=DIRECTION('center_axis',(0.,1.,0.));
#1059=DIRECTION('ref_axis',(0.,0.,1.));
#1060=DIRECTION('',(0.,1.,0.));
#1061=DIRECTION('center_axis',(0.,1.,0.));
#1062=DIRECTION('ref_axis',(0.,0.,1.));
#1063=DIRECTION('',(0.,1.,0.));
#1064=DIRECTION('center_axis',(0.,1.,0.));
#1065=DIRECTION('ref_axis',(0.,0.,1.));
#1066=DIRECTION('',(0.,1.,0.));
#1067=DIRECTION('center_axis',(0.,1.,0.));
#1068=DIRECTION('ref_axis',(0.,0.,1.));
#1069=DIRECTION('',(0.,1.,0.));
#1070=DIRECTION('center_axis',(0.,1.,0.));
#1071=DIRECTION('ref_axis',(0.,0.,1.));
#1072=DIRECTION('',(0.,1.,0.));
#1073=DIRECTION('center_axis',(0.,1.,0.));
#1074=DIRECTION('ref_axis',(0.,0.,1.));
#1075=DIRECTION('center_axis',(0.,-1.,0.));
#1076=DIRECTION('ref_axis',(0.,0.,-1.));
#1077=DIRECTION('',(1.15079156022785E-16,-0.342020143325674,0.939692620785907));
#1078=DIRECTION('center_axis',(0.,-1.,0.));
#1079=DIRECTION('ref_axis',(0.,0.,-1.));
#1080=DIRECTION('center_axis',(0.,-1.,0.));
#1081=DIRECTION('ref_axis',(0.,0.,-1.));
#1082=DIRECTION('center_axis',(0.,-1.,0.));
#1083=DIRECTION('ref_axis',(0.,0.,-1.));
#1084=DIRECTION('center_axis',(0.,-1.,0.));
#1085=DIRECTION('ref_axis',(0.,0.,-1.));
#1086=DIRECTION('center_axis',(0.,-1.,0.));
#1087=DIRECTION('ref_axis',(0.,0.,-1.));
#1088=DIRECTION('',(-4.18853873767708E-17,-0.939692620785906,0.342020143325676));
#1089=DIRECTION('center_axis',(0.,1.,0.));
#1090=DIRECTION('ref_axis',(0.,0.,1.));
#1091=DIRECTION('center_axis',(0.,-1.,0.));
#1092=DIRECTION('ref_axis',(0.,0.,-1.));
#1093=DIRECTION('',(-4.18853873767708E-17,0.939692620785906,-0.342020143325676));
#1094=DIRECTION('center_axis',(0.,-1.,0.));
#1095=DIRECTION('ref_axis',(0.,0.,-1.));
#1096=DIRECTION('center_axis',(0.,-1.,0.));
#1097=DIRECTION('ref_axis',(0.,0.,-1.));
#1098=DIRECTION('center_axis',(0.,-1.,0.));
#1099=DIRECTION('ref_axis',(0.,0.,-1.));
#1100=DIRECTION('center_axis',(0.,-1.,0.));
#1101=DIRECTION('ref_axis',(0.,0.,-1.));
#1102=DIRECTION('',(1.15079156022785E-16,0.342020143325674,-0.939692620785907));
#1103=DIRECTION('center_axis',(0.,-1.,0.));
#1104=DIRECTION('ref_axis',(0.382683432365091,0.,0.923879532511286));
#1105=DIRECTION('center_axis',(0.,1.,0.));
#1106=DIRECTION('ref_axis',(0.,0.,-1.));
#1107=DIRECTION('',(0.270619169673738,0.707051588702831,0.653332469664488));
#1108=DIRECTION('center_axis',(0.,-1.,0.));
#1109=DIRECTION('ref_axis',(0.,0.,-1.));
#1110=DIRECTION('center_axis',(0.,-1.,0.));
#1111=DIRECTION('ref_axis',(0.,0.,-1.));
#1112=DIRECTION('',(0.270619169673742,0.707051588702825,0.653332469664493));
#1113=DIRECTION('center_axis',(0.,-1.,0.));
#1114=DIRECTION('ref_axis',(0.,0.,-1.));
#1115=DIRECTION('center_axis',(0.,-1.,0.));
#1116=DIRECTION('ref_axis',(0.,0.,-1.));
#1117=DIRECTION('',(0.,1.,0.));
#1118=DIRECTION('center_axis',(0.,1.,0.));
#1119=DIRECTION('ref_axis',(0.,0.,-1.));
#1120=DIRECTION('',(0.,1.,0.));
#1121=DIRECTION('center_axis',(0.,-1.,0.));
#1122=DIRECTION('ref_axis',(0.,0.,-1.));
#1123=DIRECTION('',(0.,-1.,0.));
#1124=DIRECTION('center_axis',(0.,1.,0.));
#1125=DIRECTION('ref_axis',(0.38268343236509,0.,0.923879532511287));
#1126=DIRECTION('center_axis',(0.,-1.,0.));
#1127=DIRECTION('ref_axis',(0.,0.,1.));
#1128=DIRECTION('',(0.270619169673723,-0.707051588702816,0.65333246966451));
#1129=DIRECTION('center_axis',(0.,1.,0.));
#1130=DIRECTION('ref_axis',(0.,0.,1.));
#1131=DIRECTION('center_axis',(0.,1.,0.));
#1132=DIRECTION('ref_axis',(0.,0.,1.));
#1133=DIRECTION('',(0.270619169673749,-0.707051588702834,0.65333246966448));
#1134=DIRECTION('center_axis',(0.,-1.,0.));
#1135=DIRECTION('ref_axis',(0.,0.,-1.));
#1136=DIRECTION('',(0.,-1.,0.));
#1137=DIRECTION('center_axis',(0.,-1.,0.));
#1138=DIRECTION('ref_axis',(0.,0.,-1.));
#1139=DIRECTION('',(0.,-1.,0.));
#1140=DIRECTION('center_axis',(0.,-1.,0.));
#1141=DIRECTION('ref_axis',(0.,0.,1.));
#1142=DIRECTION('',(0.,-1.,0.));
#1143=DIRECTION('center_axis',(0.,-1.,0.));
#1144=DIRECTION('ref_axis',(0.,0.,-1.));
#1145=DIRECTION('center_axis',(0.,-1.,0.));
#1146=DIRECTION('ref_axis',(0.,0.,-1.));
#1147=DIRECTION('',(0.,1.,0.));
#1148=DIRECTION('',(0.,-1.,0.));
#1149=DIRECTION('center_axis',(0.,-1.,0.));
#1150=DIRECTION('ref_axis',(0.,0.,-1.));
#1151=DIRECTION('',(0.,-1.,0.));
#1152=DIRECTION('',(0.,1.,0.));
#1153=DIRECTION('center_axis',(0.,1.,0.));
#1154=DIRECTION('ref_axis',(0.,0.,1.));
#1155=DIRECTION('',(0.,1.,0.));
#1156=DIRECTION('center_axis',(0.,1.,0.));
#1157=DIRECTION('ref_axis',(0.,0.,1.));
#1158=DIRECTION('',(-0.382683432365091,0.,-0.923879532511287));
#1159=DIRECTION('',(-0.38268343236509,0.,-0.923879532511287));
#1160=DIRECTION('center_axis',(0.,-1.,0.));
#1161=DIRECTION('ref_axis',(0.,0.,-1.));
#1162=DIRECTION('',(0.38268343236509,0.,0.923879532511287));
#1163=DIRECTION('',(0.382683432365091,0.,0.923879532511287));
#1164=DIRECTION('center_axis',(0.,-1.,0.));
#1165=DIRECTION('ref_axis',(0.,0.,-1.));
#1166=DIRECTION('center_axis',(0.,1.,0.));
#1167=DIRECTION('ref_axis',(0.,0.,1.));
#1168=DIRECTION('center_axis',(0.,-1.,0.));
#1169=DIRECTION('ref_axis',(0.,0.,-1.));
#1170=DIRECTION('',(0.382683432365091,0.,0.923879532511287));
#1171=DIRECTION('',(0.38268343236509,0.,0.923879532511287));
#1172=DIRECTION('center_axis',(-0.923879532511287,0.,0.38268343236509));
#1173=DIRECTION('ref_axis',(0.38268343236509,0.,0.923879532511287));
#1174=DIRECTION('center_axis',(-0.923879532511287,0.,0.382683432365091));
#1175=DIRECTION('ref_axis',(0.382683432365091,0.,0.923879532511287));
#1176=DIRECTION('center_axis',(0.,1.,0.));
#1177=DIRECTION('ref_axis',(0.,0.,-1.));
#1178=DIRECTION('',(0.38268343236509,0.,0.923879532511287));
#1179=DIRECTION('',(0.382683432365091,0.,0.923879532511287));
#1180=DIRECTION('center_axis',(0.923879532511287,0.,-0.382683432365091));
#1181=DIRECTION('ref_axis',(-0.382683432365091,0.,-0.923879532511287));
#1182=DIRECTION('center_axis',(0.923879532511287,0.,-0.38268343236509));
#1183=DIRECTION('ref_axis',(-0.38268343236509,0.,-0.923879532511287));
#1184=CARTESIAN_POINT('',(0.,0.,0.));
#1185=CARTESIAN_POINT('Origin',(32.5622672736403,-17.4,32.5622672736407));
#1186=CARTESIAN_POINT('',(32.5622672736403,-17.1,28.3622672736407));
#1187=CARTESIAN_POINT('',(32.5622672736403,-17.1,36.7622672736407));
#1188=CARTESIAN_POINT('Origin',(32.5622672736403,-17.1,32.5622672736407));
#1189=CARTESIAN_POINT('Origin',(32.5622672736403,-17.1,32.5622672736407));
#1190=CARTESIAN_POINT('',(32.5622672736403,-17.4,37.0622672736407));
#1191=CARTESIAN_POINT('',(32.5622672736403,-17.4,37.0622672736407));
#1192=CARTESIAN_POINT('Origin',(32.5622672736403,-17.4,32.5622672736407));
#1193=CARTESIAN_POINT('Origin',(32.5622672736403,-0.300000000000043,32.5622672736407));
#1194=CARTESIAN_POINT('',(32.5622672736403,-0.300000000000043,28.3622672736407));
#1195=CARTESIAN_POINT('Origin',(32.5622672736403,-0.300000000000043,32.5622672736407));
#1196=CARTESIAN_POINT('',(32.5622672736403,-7.97972798949331E-16,28.0622672736406));
#1197=CARTESIAN_POINT('',(32.5622672736403,-0.300000000000043,28.3622672736407));
#1198=CARTESIAN_POINT('Origin',(32.5622672736403,0.,32.5622672736407));
#1199=CARTESIAN_POINT('Origin',(-3.21565431307453E-13,-17.4,46.05));
#1200=CARTESIAN_POINT('',(-3.21051079651811E-13,-17.1,41.85));
#1201=CARTESIAN_POINT('',(-3.22079782963094E-13,-17.1,50.25));
#1202=CARTESIAN_POINT('Origin',(-3.21565431307453E-13,-17.1,46.05));
#1203=CARTESIAN_POINT('Origin',(-3.21565431307453E-13,-17.1,46.05));
#1204=CARTESIAN_POINT('',(-3.22116522367069E-13,-17.4,50.55));
#1205=CARTESIAN_POINT('',(-3.22116522367069E-13,-17.4,50.55));
#1206=CARTESIAN_POINT('Origin',(-3.21565431307453E-13,-17.4,46.05));
#1207=CARTESIAN_POINT('Origin',(-3.21565431307453E-13,-0.300000000000016,
46.05));
#1208=CARTESIAN_POINT('',(-3.22079782963094E-13,-0.300000000000017,41.85));
#1209=CARTESIAN_POINT('Origin',(-3.21565431307453E-13,-0.300000000000016,
46.05));
#1210=CARTESIAN_POINT('',(-3.22116522367069E-13,6.93889390390723E-16,41.55));
#1211=CARTESIAN_POINT('',(-3.22079782963094E-13,-0.300000000000016,41.85));
#1212=CARTESIAN_POINT('Origin',(-3.21565431307453E-13,0.,46.05));
#1213=CARTESIAN_POINT('Origin',(-32.5622672736408,-17.4,32.5622672736402));
#1214=CARTESIAN_POINT('',(-32.5622672736408,-17.1,28.3622672736402));
#1215=CARTESIAN_POINT('',(-32.5622672736408,-17.1,36.7622672736402));
#1216=CARTESIAN_POINT('Origin',(-32.5622672736408,-17.1,32.5622672736402));
#1217=CARTESIAN_POINT('Origin',(-32.5622672736408,-17.1,32.5622672736402));
#1218=CARTESIAN_POINT('',(-32.5622672736408,-17.4,37.0622672736402));
#1219=CARTESIAN_POINT('',(-32.5622672736408,-17.4,37.0622672736402));
#1220=CARTESIAN_POINT('Origin',(-32.5622672736408,-17.4,32.5622672736402));
#1221=CARTESIAN_POINT('Origin',(-32.5622672736408,-0.300000000000016,32.5622672736402));
#1222=CARTESIAN_POINT('',(-32.5622672736408,-0.300000000000016,28.3622672736402));
#1223=CARTESIAN_POINT('Origin',(-32.5622672736408,-0.300000000000016,32.5622672736402));
#1224=CARTESIAN_POINT('',(-32.5622672736408,5.55111512312578E-16,28.0622672736402));
#1225=CARTESIAN_POINT('',(-32.5622672736408,-0.300000000000016,28.3622672736402));
#1226=CARTESIAN_POINT('Origin',(-32.5622672736408,0.,32.5622672736402));
#1227=CARTESIAN_POINT('Origin',(-46.05,-17.4,-4.82348146961179E-13));
#1228=CARTESIAN_POINT('',(-46.05,-17.1,-4.20000000000048));
#1229=CARTESIAN_POINT('',(-46.05,-17.1,4.19999999999952));
#1230=CARTESIAN_POINT('Origin',(-46.05,-17.1,-4.82348146961179E-13));
#1231=CARTESIAN_POINT('Origin',(-46.05,-17.1,-4.82348146961179E-13));
#1232=CARTESIAN_POINT('',(-46.05,-17.4,4.49999999999951));
#1233=CARTESIAN_POINT('',(-46.05,-17.4,4.49999999999951));
#1234=CARTESIAN_POINT('Origin',(-46.05,-17.4,-4.82348146961179E-13));
#1235=CARTESIAN_POINT('Origin',(-46.05,-0.300000000000016,-4.82348146961179E-13));
#1236=CARTESIAN_POINT('',(-46.05,-0.300000000000016,-4.20000000000048));
#1237=CARTESIAN_POINT('Origin',(-46.05,-0.300000000000016,-4.82348146961179E-13));
#1238=CARTESIAN_POINT('',(-46.05,6.93889390390723E-16,-4.50000000000049));
#1239=CARTESIAN_POINT('',(-46.05,-0.300000000000016,-4.20000000000048));
#1240=CARTESIAN_POINT('Origin',(-46.05,0.,-4.82348146961179E-13));
#1241=CARTESIAN_POINT('Origin',(-32.5622672736401,-17.4,-32.5622672736409));
#1242=CARTESIAN_POINT('',(-32.5622672736401,-17.1,-36.7622672736409));
#1243=CARTESIAN_POINT('',(-32.5622672736401,-17.1,-28.3622672736409));
#1244=CARTESIAN_POINT('Origin',(-32.5622672736401,-17.1,-32.5622672736409));
#1245=CARTESIAN_POINT('Origin',(-32.5622672736401,-17.1,-32.5622672736409));
#1246=CARTESIAN_POINT('',(-32.5622672736401,-17.4,-28.0622672736409));
#1247=CARTESIAN_POINT('',(-32.5622672736401,-17.4,-28.0622672736409));
#1248=CARTESIAN_POINT('Origin',(-32.5622672736401,-17.4,-32.5622672736409));
#1249=CARTESIAN_POINT('Origin',(-32.5622672736401,-0.299999999999974,-32.5622672736409));
#1250=CARTESIAN_POINT('',(-32.5622672736401,-0.299999999999974,-36.7622672736409));
#1251=CARTESIAN_POINT('Origin',(-32.5622672736401,-0.299999999999974,-32.5622672736409));
#1252=CARTESIAN_POINT('',(-32.5622672736401,-1.04083408558608E-15,-37.0622672736409));
#1253=CARTESIAN_POINT('',(-32.5622672736401,-0.299999999999974,-36.7622672736409));
#1254=CARTESIAN_POINT('Origin',(-32.5622672736401,0.,-32.5622672736409));
#1255=CARTESIAN_POINT('Origin',(0.,-17.4,-46.05));
#1256=CARTESIAN_POINT('',(5.14351655641889E-16,-17.1,-50.25));
#1257=CARTESIAN_POINT('',(-5.14351655641888E-16,-17.1,-41.85));
#1258=CARTESIAN_POINT('Origin',(0.,-17.1,-46.05));
#1259=CARTESIAN_POINT('Origin',(0.,-17.1,-46.05));
#1260=CARTESIAN_POINT('',(-5.51091059616308E-16,-17.4,-41.55));
#1261=CARTESIAN_POINT('',(-5.51091059616308E-16,-17.4,-41.55));
#1262=CARTESIAN_POINT('Origin',(0.,-17.4,-46.05));
#1263=CARTESIAN_POINT('Origin',(0.,-0.300000000000016,-46.05));
#1264=CARTESIAN_POINT('',(-5.14351655641888E-16,-0.300000000000017,-50.25));
#1265=CARTESIAN_POINT('Origin',(0.,-0.300000000000016,-46.05));
#1266=CARTESIAN_POINT('',(-5.5109105961631E-16,6.93889390390723E-16,-50.55));
#1267=CARTESIAN_POINT('',(-5.14351655641889E-16,-0.300000000000016,-50.25));
#1268=CARTESIAN_POINT('Origin',(0.,0.,-46.05));
#1269=CARTESIAN_POINT('Origin',(32.5622672736406,-17.4,-32.5622672736405));
#1270=CARTESIAN_POINT('',(32.5622672736406,-17.1,-36.7622672736405));
#1271=CARTESIAN_POINT('',(32.5622672736406,-17.1,-28.3622672736405));
#1272=CARTESIAN_POINT('Origin',(32.5622672736406,-17.1,-32.5622672736405));
#1273=CARTESIAN_POINT('Origin',(32.5622672736406,-17.1,-32.5622672736405));
#1274=CARTESIAN_POINT('',(32.5622672736406,-17.4,-28.0622672736404));
#1275=CARTESIAN_POINT('',(32.5622672736406,-17.4,-28.0622672736404));
#1276=CARTESIAN_POINT('Origin',(32.5622672736406,-17.4,-32.5622672736405));
#1277=CARTESIAN_POINT('Origin',(32.5622672736406,-0.300000000000029,-32.5622672736405));
#1278=CARTESIAN_POINT('',(32.5622672736406,-0.30000000000003,-36.7622672736405));
#1279=CARTESIAN_POINT('Origin',(32.5622672736406,-0.300000000000029,-32.5622672736405));
#1280=CARTESIAN_POINT('',(32.5622672736406,-1.73472347597681E-16,-37.0622672736405));
#1281=CARTESIAN_POINT('',(32.5622672736406,-0.300000000000029,-36.7622672736405));
#1282=CARTESIAN_POINT('Origin',(32.5622672736406,0.,-32.5622672736405));
#1283=CARTESIAN_POINT('Origin',(46.05,-17.4,1.60782715653726E-13));
#1284=CARTESIAN_POINT('',(46.05,-17.1,-4.19999999999984));
#1285=CARTESIAN_POINT('',(46.05,-17.1,4.20000000000016));
#1286=CARTESIAN_POINT('Origin',(46.05,-17.1,1.60782715653726E-13));
#1287=CARTESIAN_POINT('Origin',(46.05,-17.1,1.60782715653726E-13));
#1288=CARTESIAN_POINT('',(46.05,-17.4,4.50000000000015));
#1289=CARTESIAN_POINT('',(46.05,-17.4,4.50000000000015));
#1290=CARTESIAN_POINT('Origin',(46.05,-17.4,1.60782715653726E-13));
#1291=CARTESIAN_POINT('Origin',(46.05,-0.300000000000016,1.60782715653726E-13));
#1292=CARTESIAN_POINT('',(46.05,-0.300000000000016,-4.19999999999984));
#1293=CARTESIAN_POINT('Origin',(46.05,-0.300000000000016,1.60782715653726E-13));
#1294=CARTESIAN_POINT('',(46.05,6.93889390390723E-16,-4.49999999999984));
#1295=CARTESIAN_POINT('',(46.05,-0.300000000000016,-4.19999999999984));
#1296=CARTESIAN_POINT('Origin',(46.05,0.,1.60782715653726E-13));
#1297=CARTESIAN_POINT('Origin',(-32.5622672736401,-17.4,-32.5622672736409));
#1298=CARTESIAN_POINT('',(-32.5622672736401,-17.4,-36.7622672736409));
#1299=CARTESIAN_POINT('Origin',(-46.05,-17.4,-4.82348146961179E-13));
#1300=CARTESIAN_POINT('',(-46.05,-17.4,-4.20000000000048));
#1301=CARTESIAN_POINT('Origin',(-32.5622672736408,-17.4,32.5622672736402));
#1302=CARTESIAN_POINT('',(-32.5622672736408,-17.4,28.3622672736402));
#1303=CARTESIAN_POINT('Origin',(-3.21565431307453E-13,-17.4,46.05));
#1304=CARTESIAN_POINT('',(-3.22079782963094E-13,-17.4,41.85));
#1305=CARTESIAN_POINT('Origin',(32.5622672736403,-17.4,32.5622672736407));
#1306=CARTESIAN_POINT('',(32.5622672736403,-17.4,28.3622672736407));
#1307=CARTESIAN_POINT('Origin',(46.05,-17.4,1.60782715653726E-13));
#1308=CARTESIAN_POINT('',(46.05,-17.4,-4.19999999999984));
#1309=CARTESIAN_POINT('Origin',(32.5622672736406,-17.4,-32.5622672736405));
#1310=CARTESIAN_POINT('',(32.5622672736406,-17.4,-36.7622672736405));
#1311=CARTESIAN_POINT('Origin',(0.,-17.4,-46.05));
#1312=CARTESIAN_POINT('',(-5.14351655641889E-16,-17.4,-50.25));
#1313=CARTESIAN_POINT('Origin',(0.,-15.8263796233379,0.));
#1314=CARTESIAN_POINT('',(5.0547296634807E-15,-15.8263796233379,41.275));
#1315=CARTESIAN_POINT('',(-5.0547296634807E-15,-15.8263796233379,-41.275));
#1316=CARTESIAN_POINT('Origin',(0.,-15.8263796233379,0.));
#1317=CARTESIAN_POINT('',(-4.72713664470878E-15,-16.8,-38.6));
#1318=CARTESIAN_POINT('',(-5.0547296634807E-15,-15.8263796233379,-41.275));
#1319=CARTESIAN_POINT('',(4.72713664470878E-15,-16.8,38.6));
#1320=CARTESIAN_POINT('Origin',(0.,-16.8,0.));
#1321=CARTESIAN_POINT('Origin',(0.,-16.8,0.));
#1322=CARTESIAN_POINT('Origin',(0.,-15.8263796233379,0.));
#1323=CARTESIAN_POINT('Origin',(0.,-16.8,0.));
#1324=CARTESIAN_POINT('',(-4.70039254576604E-15,-16.2,38.3816178594403));
#1325=CARTESIAN_POINT('Origin',(0.,-16.2,0.));
#1326=CARTESIAN_POINT('',(-4.72713664470878E-15,-16.8,38.6));
#1327=CARTESIAN_POINT('Origin',(0.,-1.2,0.));
#1328=CARTESIAN_POINT('',(-4.70039254576604E-15,-1.2,-38.3816178594403));
#1329=CARTESIAN_POINT('Origin',(0.,-1.2,0.));
#1330=CARTESIAN_POINT('',(-4.72713664470878E-15,-0.599999999999999,-38.6));
#1331=CARTESIAN_POINT('',(-4.70039254576604E-15,-1.2,-38.3816178594403));
#1332=CARTESIAN_POINT('',(4.89093315409474E-15,-0.6,38.6));
#1333=CARTESIAN_POINT('Origin',(0.,-0.6,0.));
#1334=CARTESIAN_POINT('Origin',(0.,-0.6,0.));
#1335=CARTESIAN_POINT('Origin',(0.,-0.6,0.));
#1336=CARTESIAN_POINT('',(-5.0547296634807E-15,-1.57362037666211,41.275));
#1337=CARTESIAN_POINT('Origin',(0.,-1.57362037666211,0.));
#1338=CARTESIAN_POINT('',(-4.72713664470878E-15,-0.6,38.6));
#1339=CARTESIAN_POINT('Origin',(0.,-0.299999999999981,0.));
#1340=CARTESIAN_POINT('',(-22.5229694448801,0.,-51.7621323689915));
#1341=CARTESIAN_POINT('',(-20.6752103798575,0.,-52.5274992337217));
#1342=CARTESIAN_POINT('Origin',(0.,0.,0.));
#1343=CARTESIAN_POINT('',(-22.6377923972633,-0.299999999999981,-52.0393394979068));
#1344=CARTESIAN_POINT('',(-22.6377923972633,-0.299999999999981,-52.0393394979068));
#1345=CARTESIAN_POINT('',(-6.94987058516123E-15,-0.29999999999998,56.75));
#1346=CARTESIAN_POINT('Origin',(0.,-0.299999999999981,0.));
#1347=CARTESIAN_POINT('',(-20.7900333322408,-0.299999999999985,-52.804706362637));
#1348=CARTESIAN_POINT('Origin',(0.,-0.299999999999981,0.));
#1349=CARTESIAN_POINT('',(-20.7900333322408,-0.299999999999985,-52.804706362637));
#1350=CARTESIAN_POINT('Origin',(0.,-24.5739145046165,0.));
#1351=CARTESIAN_POINT('',(-14.8667426803801,0.,-38.5046177370373));
#1352=CARTESIAN_POINT('',(-5.0547296634807E-15,0.,41.275));
#1353=CARTESIAN_POINT('Origin',(0.,0.,0.));
#1354=CARTESIAN_POINT('',(-14.8667426803801,-0.999999999999998,-38.5046177370373));
#1355=CARTESIAN_POINT('',(-14.8667426803801,-24.5739145046165,-38.5046177370373));
#1356=CARTESIAN_POINT('',(-16.7145017454027,-0.999999999999998,-37.7392508723071));
#1357=CARTESIAN_POINT('Origin',(0.,-0.999999999999998,0.));
#1358=CARTESIAN_POINT('',(-16.7145017454027,0.,-37.7392508723071));
#1359=CARTESIAN_POINT('',(-16.7145017454027,-24.5739145046165,-37.7392508723071));
#1360=CARTESIAN_POINT('Origin',(0.,0.,0.));
#1361=CARTESIAN_POINT('',(-5.0547296634807E-15,-24.5739145046165,41.275));
#1362=CARTESIAN_POINT('Origin',(0.,-17.4,0.));
#1363=CARTESIAN_POINT('',(-20.6752103798575,-17.4,-52.5274992337217));
#1364=CARTESIAN_POINT('',(-22.5229694448801,-17.4,-51.7621323689915));
#1365=CARTESIAN_POINT('Origin',(0.,-17.4,0.));
#1366=CARTESIAN_POINT('',(-20.7900333322408,-17.1,-52.804706362637));
#1367=CARTESIAN_POINT('',(-20.7900333322408,-17.1,-52.804706362637));
#1368=CARTESIAN_POINT('',(-6.94987058516123E-15,-17.1,56.75));
#1369=CARTESIAN_POINT('Origin',(0.,-17.1,0.));
#1370=CARTESIAN_POINT('',(-22.6377923972633,-17.1,-52.0393394979068));
#1371=CARTESIAN_POINT('Origin',(0.,-17.1,0.));
#1372=CARTESIAN_POINT('',(-22.6377923972633,-17.1,-52.0393394979068));
#1373=CARTESIAN_POINT('Origin',(0.,-24.5739145046165,0.));
#1374=CARTESIAN_POINT('',(-5.0547296634807E-15,-17.4,41.275));
#1375=CARTESIAN_POINT('',(-5.0547296634807E-15,-24.5739145046165,41.275));
#1376=CARTESIAN_POINT('',(-16.7145017454027,-17.4,-37.7392508723071));
#1377=CARTESIAN_POINT('Origin',(0.,-17.4,0.));
#1378=CARTESIAN_POINT('',(-16.7145017454027,-16.5,-37.7392508723071));
#1379=CARTESIAN_POINT('',(-16.7145017454027,-24.5739145046165,-37.7392508723071));
#1380=CARTESIAN_POINT('',(-14.8667426803801,-16.5,-38.5046177370373));
#1381=CARTESIAN_POINT('Origin',(0.,-16.5,0.));
#1382=CARTESIAN_POINT('',(-14.8667426803801,-17.4,-38.5046177370373));
#1383=CARTESIAN_POINT('',(-14.8667426803801,-24.5739145046165,-38.5046177370373));
#1384=CARTESIAN_POINT('Origin',(0.,-17.4,0.));
#1385=CARTESIAN_POINT('Origin',(0.,-24.5739145046165,0.));
#1386=CARTESIAN_POINT('',(-6.94987058516123E-15,-24.5739145046165,56.75));
#1387=CARTESIAN_POINT('',(-22.6377923972633,-0.999999999999998,-52.0393394979068));
#1388=CARTESIAN_POINT('',(-22.6377923972633,-24.5739145046165,-52.0393394979068));
#1389=CARTESIAN_POINT('',(-20.7900333322408,-0.999999999999998,-52.804706362637));
#1390=CARTESIAN_POINT('Origin',(0.,-0.999999999999998,0.));
#1391=CARTESIAN_POINT('',(-20.7900333322408,-24.5739145046165,-52.804706362637));
#1392=CARTESIAN_POINT('',(-20.7900333322408,-16.5,-52.804706362637));
#1393=CARTESIAN_POINT('',(-20.7900333322408,-24.5739145046165,-52.804706362637));
#1394=CARTESIAN_POINT('',(-22.6377923972633,-16.5,-52.0393394979068));
#1395=CARTESIAN_POINT('Origin',(0.,-16.5,0.));
#1396=CARTESIAN_POINT('',(-22.6377923972633,-24.5739145046165,-52.0393394979068));
#1397=CARTESIAN_POINT('Origin',(-41.275,-17.4,0.));
#1398=CARTESIAN_POINT('',(-6.96846333577392,-17.4,-14.2102327643723));
#1399=CARTESIAN_POINT('',(-5.12070427075135,-17.4,-14.9755996291025));
#1400=CARTESIAN_POINT('Origin',(-56.75,0.,0.));
#1401=CARTESIAN_POINT('',(-21.1911792617213,0.,-53.7731583060797));
#1402=CARTESIAN_POINT('',(-23.0389383267439,0.,-53.0077914413495));
#1403=CARTESIAN_POINT('Origin',(-38.3816178594403,-1.2,0.));
#1404=CARTESIAN_POINT('Origin',(-38.3816178594403,-16.2,0.));
#1405=CARTESIAN_POINT('Origin',(-21.1911792617213,-0.999999999999997,-53.7731583060797));
#1406=CARTESIAN_POINT('',(-23.0389383267439,-0.999999999999997,-53.0077914413495));
#1407=CARTESIAN_POINT('',(-21.1911792617213,-0.999999999999997,-53.7731583060797));
#1408=CARTESIAN_POINT('Origin',(-21.1911792617213,-0.999999999999997,-53.7731583060797));
#1409=CARTESIAN_POINT('Origin',(-23.0389383267439,-0.999999999999997,-53.0077914413495));
#1410=CARTESIAN_POINT('Origin',(0.,-16.5,0.));
#1411=CARTESIAN_POINT('',(-21.1911792617213,-16.5,-53.7731583060797));
#1412=CARTESIAN_POINT('',(-23.0389383267439,-16.5,-53.0077914413495));
#1413=CARTESIAN_POINT('Origin',(-23.0389383267439,-16.5,-53.0077914413495));
#1414=CARTESIAN_POINT('Origin',(-21.1911792617213,-16.5,-53.7731583060797));
#1415=UNCERTAINTY_MEASURE_WITH_UNIT(LENGTH_MEASURE(0.01),#1419,
'DISTANCE_ACCURACY_VALUE',
'Maximum model space distance between geometric entities at asserted c
onnectivities');
#1416=UNCERTAINTY_MEASURE_WITH_UNIT(LENGTH_MEASURE(0.01),#1419,
'DISTANCE_ACCURACY_VALUE',
'Maximum model space distance between geometric entities at asserted c
onnectivities');
#1417=(
GEOMETRIC_REPRESENTATION_CONTEXT(3)
GLOBAL_UNCERTAINTY_ASSIGNED_CONTEXT((#1415))
GLOBAL_UNIT_ASSIGNED_CONTEXT((#1419,#1421,#1422))
REPRESENTATION_CONTEXT('','3D')
);
#1418=(
GEOMETRIC_REPRESENTATION_CONTEXT(3)
GLOBAL_UNCERTAINTY_ASSIGNED_CONTEXT((#1416))
GLOBAL_UNIT_ASSIGNED_CONTEXT((#1419,#1421,#1422))
REPRESENTATION_CONTEXT('','3D')
);
#1419=(
LENGTH_UNIT()
NAMED_UNIT(*)
SI_UNIT(.MILLI.,.METRE.)
);
#1420=(
LENGTH_UNIT()
NAMED_UNIT(*)
SI_UNIT($,.METRE.)
);
#1421=(
NAMED_UNIT(*)
PLANE_ANGLE_UNIT()
SI_UNIT($,.RADIAN.)
);
#1422=(
NAMED_UNIT(*)
SI_UNIT($,.STERADIAN.)
SOLID_ANGLE_UNIT()
);
#1423=SHAPE_DEFINITION_REPRESENTATION(#1424,#1425);
#1424=PRODUCT_DEFINITION_SHAPE('',$,#1427);
#1425=SHAPE_REPRESENTATION('',(#812),#1417);
#1426=PRODUCT_DEFINITION_CONTEXT('part definition',#1431,'design');
#1427=PRODUCT_DEFINITION('Hositrad_CF63-BD_DoubleSided',
'Hositrad_CF63-BD_DoubleSided v1',#1428,#1426);
#1428=PRODUCT_DEFINITION_FORMATION('',$,#1433);
#1429=PRODUCT_RELATED_PRODUCT_CATEGORY(
'Hositrad_CF63-BD_DoubleSided v1','Hositrad_CF63-BD_DoubleSided v1',(#1433));
#1430=APPLICATION_PROTOCOL_DEFINITION('international standard',
'automotive_design',2009,#1431);
#1431=APPLICATION_CONTEXT(
'Core Data for Automotive Mechanical Design Process');
#1432=PRODUCT_CONTEXT('part definition',#1431,'mechanical');
#1433=PRODUCT('Hositrad_CF63-BD_DoubleSided',
'Hositrad_CF63-BD_DoubleSided v1',$,(#1432));
#1434=PRESENTATION_STYLE_ASSIGNMENT((#1436));
#1435=PRESENTATION_STYLE_ASSIGNMENT((#1437));
#1436=SURFACE_STYLE_USAGE(.BOTH.,#1438);
#1437=SURFACE_STYLE_USAGE(.BOTH.,#1439);
#1438=SURFACE_SIDE_STYLE('',(#1440));
#1439=SURFACE_SIDE_STYLE('',(#1441));
#1440=SURFACE_STYLE_FILL_AREA(#1442);
#1441=SURFACE_STYLE_FILL_AREA(#1443);
#1442=FILL_AREA_STYLE('Steel - Satin',(#1444));
#1443=FILL_AREA_STYLE('Opaque(165,158,150)',(#1445));
#1444=FILL_AREA_STYLE_COLOUR('Steel - Satin',#1446);
#1445=FILL_AREA_STYLE_COLOUR('Opaque(165,158,150)',#1447);
#1446=COLOUR_RGB('Steel - Satin',0.627450980392157,0.627450980392157,0.627450980392157);
#1447=COLOUR_RGB('Opaque(165,158,150)',0.647058823529412,0.619607843137255,
0.588235294117647);
ENDSEC;
END-ISO-10303-21;
