ISO-10303-21;
HEADER;
/* Generated by software containing ST-Developer
 * from STEP Tools, Inc. (www.steptools.com) 
 */

FILE_DESCRIPTION(
/* description */ (''),
/* implementation_level */ '2;1');

FILE_NAME(
/* name */ 'Hositrad_ISO-F80-89 v1.step',
/* time_stamp */ '2024-06-25T14:25:19+02:00',
/* author */ (''),
/* organization */ (''),
/* preprocessor_version */ 'ST-DEVELOPER v20',
/* originating_system */ 'Autodesk Translation Framework v13.14.0.145',

/* authorisation */ '');

FILE_SCHEMA (('AUTOMOTIVE_DESIGN { 1 0 10303 214 3 1 1 }'));
ENDSEC;

DATA;
#10=MECHANICAL_DESIGN_GEOMETRIC_PRESENTATION_REPRESENTATION('',(#13),#1057);
#11=SHAPE_REPRESENTATION_RELATIONSHIP('SRR','None',#1064,#12);
#12=ADVANCED_BREP_SHAPE_REPRESENTATION('',(#14),#1056);
#13=STYLED_ITEM('',(#1074),#14);
#14=MANIFOLD_SOLID_BREP('Body1',#590);
#15=FACE_BOUND('',#112,.T.);
#16=FACE_BOUND('',#113,.T.);
#17=FACE_BOUND('',#114,.T.);
#18=FACE_BOUND('',#115,.T.);
#19=FACE_BOUND('',#116,.T.);
#20=FACE_BOUND('',#117,.T.);
#21=FACE_BOUND('',#118,.T.);
#22=FACE_BOUND('',#119,.T.);
#23=FACE_BOUND('',#120,.T.);
#24=FACE_BOUND('',#122,.T.);
#25=FACE_BOUND('',#123,.T.);
#26=FACE_BOUND('',#124,.T.);
#27=FACE_BOUND('',#125,.T.);
#28=FACE_BOUND('',#126,.T.);
#29=FACE_BOUND('',#127,.T.);
#30=FACE_BOUND('',#128,.T.);
#31=FACE_BOUND('',#129,.T.);
#32=FACE_BOUND('',#130,.T.);
#33=FACE_BOUND('',#132,.T.);
#34=PLANE('',#685);
#35=PLANE('',#686);
#36=PLANE('',#687);
#37=CYLINDRICAL_SURFACE('',#608,42.95);
#38=CYLINDRICAL_SURFACE('',#610,44.6);
#39=CYLINDRICAL_SURFACE('',#669,4.5);
#40=CYLINDRICAL_SURFACE('',#670,4.5);
#41=CYLINDRICAL_SURFACE('',#671,4.5);
#42=CYLINDRICAL_SURFACE('',#672,4.5);
#43=CYLINDRICAL_SURFACE('',#673,4.5);
#44=CYLINDRICAL_SURFACE('',#674,4.5);
#45=CYLINDRICAL_SURFACE('',#675,4.5);
#46=CYLINDRICAL_SURFACE('',#683,4.5);
#47=CYLINDRICAL_SURFACE('',#684,72.5);
#48=FACE_OUTER_BOUND('',#81,.T.);
#49=FACE_OUTER_BOUND('',#82,.T.);
#50=FACE_OUTER_BOUND('',#83,.T.);
#51=FACE_OUTER_BOUND('',#84,.T.);
#52=FACE_OUTER_BOUND('',#85,.T.);
#53=FACE_OUTER_BOUND('',#86,.T.);
#54=FACE_OUTER_BOUND('',#87,.T.);
#55=FACE_OUTER_BOUND('',#88,.T.);
#56=FACE_OUTER_BOUND('',#89,.T.);
#57=FACE_OUTER_BOUND('',#90,.T.);
#58=FACE_OUTER_BOUND('',#91,.T.);
#59=FACE_OUTER_BOUND('',#92,.T.);
#60=FACE_OUTER_BOUND('',#93,.T.);
#61=FACE_OUTER_BOUND('',#94,.T.);
#62=FACE_OUTER_BOUND('',#95,.T.);
#63=FACE_OUTER_BOUND('',#96,.T.);
#64=FACE_OUTER_BOUND('',#97,.T.);
#65=FACE_OUTER_BOUND('',#98,.T.);
#66=FACE_OUTER_BOUND('',#99,.T.);
#67=FACE_OUTER_BOUND('',#100,.T.);
#68=FACE_OUTER_BOUND('',#101,.T.);
#69=FACE_OUTER_BOUND('',#102,.T.);
#70=FACE_OUTER_BOUND('',#103,.T.);
#71=FACE_OUTER_BOUND('',#104,.T.);
#72=FACE_OUTER_BOUND('',#105,.T.);
#73=FACE_OUTER_BOUND('',#106,.T.);
#74=FACE_OUTER_BOUND('',#107,.T.);
#75=FACE_OUTER_BOUND('',#108,.T.);
#76=FACE_OUTER_BOUND('',#109,.T.);
#77=FACE_OUTER_BOUND('',#110,.T.);
#78=FACE_OUTER_BOUND('',#111,.T.);
#79=FACE_OUTER_BOUND('',#121,.T.);
#80=FACE_OUTER_BOUND('',#131,.T.);
#81=EDGE_LOOP('',(#376,#377,#378,#379,#380));
#82=EDGE_LOOP('',(#381,#382,#383,#384,#385));
#83=EDGE_LOOP('',(#386,#387,#388,#389));
#84=EDGE_LOOP('',(#390,#391,#392,#393));
#85=EDGE_LOOP('',(#394,#395,#396,#397,#398));
#86=EDGE_LOOP('',(#399,#400,#401,#402,#403));
#87=EDGE_LOOP('',(#404,#405,#406,#407));
#88=EDGE_LOOP('',(#408,#409,#410,#411,#412));
#89=EDGE_LOOP('',(#413,#414,#415,#416));
#90=EDGE_LOOP('',(#417,#418,#419,#420,#421));
#91=EDGE_LOOP('',(#422,#423,#424,#425));
#92=EDGE_LOOP('',(#426,#427,#428,#429,#430));
#93=EDGE_LOOP('',(#431,#432,#433,#434));
#94=EDGE_LOOP('',(#435,#436,#437,#438,#439));
#95=EDGE_LOOP('',(#440,#441,#442,#443));
#96=EDGE_LOOP('',(#444,#445,#446,#447,#448));
#97=EDGE_LOOP('',(#449,#450,#451,#452));
#98=EDGE_LOOP('',(#453,#454,#455,#456,#457));
#99=EDGE_LOOP('',(#458,#459,#460,#461));
#100=EDGE_LOOP('',(#462,#463,#464,#465,#466));
#101=EDGE_LOOP('',(#467,#468,#469,#470,#471));
#102=EDGE_LOOP('',(#472,#473,#474,#475,#476));
#103=EDGE_LOOP('',(#477,#478,#479,#480,#481));
#104=EDGE_LOOP('',(#482,#483,#484,#485,#486));
#105=EDGE_LOOP('',(#487,#488,#489,#490,#491));
#106=EDGE_LOOP('',(#492,#493,#494,#495,#496));
#107=EDGE_LOOP('',(#497,#498,#499,#500,#501));
#108=EDGE_LOOP('',(#502,#503,#504,#505));
#109=EDGE_LOOP('',(#506,#507,#508,#509,#510));
#110=EDGE_LOOP('',(#511,#512,#513,#514,#515));
#111=EDGE_LOOP('',(#516));
#112=EDGE_LOOP('',(#517));
#113=EDGE_LOOP('',(#518));
#114=EDGE_LOOP('',(#519));
#115=EDGE_LOOP('',(#520));
#116=EDGE_LOOP('',(#521));
#117=EDGE_LOOP('',(#522));
#118=EDGE_LOOP('',(#523));
#119=EDGE_LOOP('',(#524));
#120=EDGE_LOOP('',(#525));
#121=EDGE_LOOP('',(#526));
#122=EDGE_LOOP('',(#527));
#123=EDGE_LOOP('',(#528));
#124=EDGE_LOOP('',(#529));
#125=EDGE_LOOP('',(#530));
#126=EDGE_LOOP('',(#531));
#127=EDGE_LOOP('',(#532));
#128=EDGE_LOOP('',(#533));
#129=EDGE_LOOP('',(#534));
#130=EDGE_LOOP('',(#535));
#131=EDGE_LOOP('',(#536));
#132=EDGE_LOOP('',(#537));
#133=LINE('',#895,#163);
#134=LINE('',#899,#164);
#135=LINE('',#905,#165);
#136=LINE('',#911,#166);
#137=LINE('',#919,#167);
#138=LINE('',#927,#168);
#139=LINE('',#933,#169);
#140=LINE('',#941,#170);
#141=LINE('',#947,#171);
#142=LINE('',#955,#172);
#143=LINE('',#961,#173);
#144=LINE('',#969,#174);
#145=LINE('',#975,#175);
#146=LINE('',#983,#176);
#147=LINE('',#989,#177);
#148=LINE('',#997,#178);
#149=LINE('',#1003,#179);
#150=LINE('',#1011,#180);
#151=LINE('',#1017,#181);
#152=LINE('',#1020,#182);
#153=LINE('',#1022,#183);
#154=LINE('',#1024,#184);
#155=LINE('',#1026,#185);
#156=LINE('',#1028,#186);
#157=LINE('',#1030,#187);
#158=LINE('',#1032,#188);
#159=LINE('',#1039,#189);
#160=LINE('',#1045,#190);
#161=LINE('',#1048,#191);
#162=LINE('',#1050,#192);
#163=VECTOR('',#696,43.45);
#164=VECTOR('',#701,42.95);
#165=VECTOR('',#708,44.6);
#166=VECTOR('',#715,72.1);
#167=VECTOR('',#724,72.5);
#168=VECTOR('',#733,5.00000000000002);
#169=VECTOR('',#740,4.5);
#170=VECTOR('',#749,4.99999999999998);
#171=VECTOR('',#756,4.5);
#172=VECTOR('',#765,5.00000000000002);
#173=VECTOR('',#772,4.5);
#174=VECTOR('',#781,4.99999999999998);
#175=VECTOR('',#788,4.5);
#176=VECTOR('',#797,5.);
#177=VECTOR('',#804,4.5);
#178=VECTOR('',#813,4.99999999999998);
#179=VECTOR('',#820,4.5);
#180=VECTOR('',#829,5.00000000000001);
#181=VECTOR('',#836,4.5);
#182=VECTOR('',#841,4.5);
#183=VECTOR('',#844,4.5);
#184=VECTOR('',#847,4.5);
#185=VECTOR('',#850,4.5);
#186=VECTOR('',#853,4.5);
#187=VECTOR('',#856,4.5);
#188=VECTOR('',#859,4.5);
#189=VECTOR('',#866,4.99999999999998);
#190=VECTOR('',#873,4.5);
#191=VECTOR('',#878,4.5);
#192=VECTOR('',#881,72.5);
#193=CIRCLE('',#605,42.95);
#194=CIRCLE('',#606,42.95);
#195=CIRCLE('',#607,43.45);
#196=CIRCLE('',#609,42.95);
#197=CIRCLE('',#611,44.6);
#198=CIRCLE('',#612,44.6);
#199=CIRCLE('',#614,72.5);
#200=CIRCLE('',#615,72.1);
#201=CIRCLE('',#617,72.5);
#202=CIRCLE('',#618,72.5);
#203=CIRCLE('',#619,72.1);
#204=CIRCLE('',#621,4.5);
#205=CIRCLE('',#622,4.5);
#206=CIRCLE('',#623,5.00000000000002);
#207=CIRCLE('',#625,4.5);
#208=CIRCLE('',#626,5.00000000000003);
#209=CIRCLE('',#628,4.5);
#210=CIRCLE('',#629,4.5);
#211=CIRCLE('',#630,4.99999999999998);
#212=CIRCLE('',#632,4.5);
#213=CIRCLE('',#633,5.);
#214=CIRCLE('',#635,4.5);
#215=CIRCLE('',#636,4.5);
#216=CIRCLE('',#637,5.00000000000002);
#217=CIRCLE('',#639,4.5);
#218=CIRCLE('',#640,5.00000000000003);
#219=CIRCLE('',#642,4.5);
#220=CIRCLE('',#643,4.5);
#221=CIRCLE('',#644,4.99999999999998);
#222=CIRCLE('',#646,4.5);
#223=CIRCLE('',#647,5.);
#224=CIRCLE('',#649,4.5);
#225=CIRCLE('',#650,4.5);
#226=CIRCLE('',#651,5.);
#227=CIRCLE('',#653,4.5);
#228=CIRCLE('',#654,4.99999999999999);
#229=CIRCLE('',#656,4.5);
#230=CIRCLE('',#657,4.5);
#231=CIRCLE('',#658,4.99999999999998);
#232=CIRCLE('',#660,4.5);
#233=CIRCLE('',#661,5.);
#234=CIRCLE('',#663,4.5);
#235=CIRCLE('',#664,4.5);
#236=CIRCLE('',#665,5.00000000000001);
#237=CIRCLE('',#667,4.5);
#238=CIRCLE('',#668,4.99999999999994);
#239=CIRCLE('',#677,4.5);
#240=CIRCLE('',#678,4.5);
#241=CIRCLE('',#679,4.99999999999998);
#242=CIRCLE('',#681,4.5);
#243=CIRCLE('',#682,5.);
#244=VERTEX_POINT('',#890);
#245=VERTEX_POINT('',#891);
#246=VERTEX_POINT('',#894);
#247=VERTEX_POINT('',#898);
#248=VERTEX_POINT('',#902);
#249=VERTEX_POINT('',#904);
#250=VERTEX_POINT('',#908);
#251=VERTEX_POINT('',#910);
#252=VERTEX_POINT('',#914);
#253=VERTEX_POINT('',#915);
#254=VERTEX_POINT('',#918);
#255=VERTEX_POINT('',#922);
#256=VERTEX_POINT('',#923);
#257=VERTEX_POINT('',#926);
#258=VERTEX_POINT('',#930);
#259=VERTEX_POINT('',#932);
#260=VERTEX_POINT('',#936);
#261=VERTEX_POINT('',#937);
#262=VERTEX_POINT('',#940);
#263=VERTEX_POINT('',#944);
#264=VERTEX_POINT('',#946);
#265=VERTEX_POINT('',#950);
#266=VERTEX_POINT('',#951);
#267=VERTEX_POINT('',#954);
#268=VERTEX_POINT('',#958);
#269=VERTEX_POINT('',#960);
#270=VERTEX_POINT('',#964);
#271=VERTEX_POINT('',#965);
#272=VERTEX_POINT('',#968);
#273=VERTEX_POINT('',#972);
#274=VERTEX_POINT('',#974);
#275=VERTEX_POINT('',#978);
#276=VERTEX_POINT('',#979);
#277=VERTEX_POINT('',#982);
#278=VERTEX_POINT('',#986);
#279=VERTEX_POINT('',#988);
#280=VERTEX_POINT('',#992);
#281=VERTEX_POINT('',#993);
#282=VERTEX_POINT('',#996);
#283=VERTEX_POINT('',#1000);
#284=VERTEX_POINT('',#1002);
#285=VERTEX_POINT('',#1006);
#286=VERTEX_POINT('',#1007);
#287=VERTEX_POINT('',#1010);
#288=VERTEX_POINT('',#1014);
#289=VERTEX_POINT('',#1016);
#290=VERTEX_POINT('',#1034);
#291=VERTEX_POINT('',#1035);
#292=VERTEX_POINT('',#1038);
#293=VERTEX_POINT('',#1042);
#294=VERTEX_POINT('',#1044);
#295=EDGE_CURVE('',#244,#245,#193,.T.);
#296=EDGE_CURVE('',#245,#244,#194,.T.);
#297=EDGE_CURVE('',#245,#246,#133,.T.);
#298=EDGE_CURVE('',#246,#246,#195,.T.);
#299=EDGE_CURVE('',#244,#247,#134,.T.);
#300=EDGE_CURVE('',#247,#247,#196,.T.);
#301=EDGE_CURVE('',#248,#248,#197,.T.);
#302=EDGE_CURVE('',#248,#249,#135,.T.);
#303=EDGE_CURVE('',#249,#249,#198,.T.);
#304=EDGE_CURVE('',#250,#250,#199,.T.);
#305=EDGE_CURVE('',#250,#251,#136,.T.);
#306=EDGE_CURVE('',#251,#251,#200,.T.);
#307=EDGE_CURVE('',#252,#253,#201,.T.);
#308=EDGE_CURVE('',#253,#252,#202,.T.);
#309=EDGE_CURVE('',#253,#254,#137,.T.);
#310=EDGE_CURVE('',#254,#254,#203,.T.);
#311=EDGE_CURVE('',#255,#256,#204,.T.);
#312=EDGE_CURVE('',#256,#255,#205,.T.);
#313=EDGE_CURVE('',#256,#257,#138,.T.);
#314=EDGE_CURVE('',#257,#257,#206,.T.);
#315=EDGE_CURVE('',#258,#258,#207,.T.);
#316=EDGE_CURVE('',#258,#259,#139,.T.);
#317=EDGE_CURVE('',#259,#259,#208,.T.);
#318=EDGE_CURVE('',#260,#261,#209,.T.);
#319=EDGE_CURVE('',#261,#260,#210,.T.);
#320=EDGE_CURVE('',#261,#262,#140,.T.);
#321=EDGE_CURVE('',#262,#262,#211,.T.);
#322=EDGE_CURVE('',#263,#263,#212,.T.);
#323=EDGE_CURVE('',#263,#264,#141,.T.);
#324=EDGE_CURVE('',#264,#264,#213,.T.);
#325=EDGE_CURVE('',#265,#266,#214,.T.);
#326=EDGE_CURVE('',#266,#265,#215,.T.);
#327=EDGE_CURVE('',#266,#267,#142,.T.);
#328=EDGE_CURVE('',#267,#267,#216,.T.);
#329=EDGE_CURVE('',#268,#268,#217,.T.);
#330=EDGE_CURVE('',#268,#269,#143,.T.);
#331=EDGE_CURVE('',#269,#269,#218,.T.);
#332=EDGE_CURVE('',#270,#271,#219,.T.);
#333=EDGE_CURVE('',#271,#270,#220,.T.);
#334=EDGE_CURVE('',#271,#272,#144,.T.);
#335=EDGE_CURVE('',#272,#272,#221,.T.);
#336=EDGE_CURVE('',#273,#273,#222,.T.);
#337=EDGE_CURVE('',#273,#274,#145,.T.);
#338=EDGE_CURVE('',#274,#274,#223,.T.);
#339=EDGE_CURVE('',#275,#276,#224,.T.);
#340=EDGE_CURVE('',#276,#275,#225,.T.);
#341=EDGE_CURVE('',#276,#277,#146,.T.);
#342=EDGE_CURVE('',#277,#277,#226,.T.);
#343=EDGE_CURVE('',#278,#278,#227,.T.);
#344=EDGE_CURVE('',#278,#279,#147,.T.);
#345=EDGE_CURVE('',#279,#279,#228,.T.);
#346=EDGE_CURVE('',#280,#281,#229,.T.);
#347=EDGE_CURVE('',#281,#280,#230,.T.);
#348=EDGE_CURVE('',#281,#282,#148,.T.);
#349=EDGE_CURVE('',#282,#282,#231,.T.);
#350=EDGE_CURVE('',#283,#283,#232,.T.);
#351=EDGE_CURVE('',#283,#284,#149,.T.);
#352=EDGE_CURVE('',#284,#284,#233,.T.);
#353=EDGE_CURVE('',#285,#286,#234,.T.);
#354=EDGE_CURVE('',#286,#285,#235,.T.);
#355=EDGE_CURVE('',#286,#287,#150,.T.);
#356=EDGE_CURVE('',#287,#287,#236,.T.);
#357=EDGE_CURVE('',#288,#288,#237,.T.);
#358=EDGE_CURVE('',#288,#289,#151,.T.);
#359=EDGE_CURVE('',#289,#289,#238,.T.);
#360=EDGE_CURVE('',#255,#258,#152,.T.);
#361=EDGE_CURVE('',#260,#263,#153,.T.);
#362=EDGE_CURVE('',#265,#268,#154,.T.);
#363=EDGE_CURVE('',#270,#273,#155,.T.);
#364=EDGE_CURVE('',#275,#278,#156,.T.);
#365=EDGE_CURVE('',#280,#283,#157,.T.);
#366=EDGE_CURVE('',#285,#288,#158,.T.);
#367=EDGE_CURVE('',#290,#291,#239,.T.);
#368=EDGE_CURVE('',#291,#290,#240,.T.);
#369=EDGE_CURVE('',#291,#292,#159,.T.);
#370=EDGE_CURVE('',#292,#292,#241,.T.);
#371=EDGE_CURVE('',#293,#293,#242,.T.);
#372=EDGE_CURVE('',#293,#294,#160,.T.);
#373=EDGE_CURVE('',#294,#294,#243,.T.);
#374=EDGE_CURVE('',#290,#293,#161,.T.);
#375=EDGE_CURVE('',#252,#250,#162,.T.);
#376=ORIENTED_EDGE('',*,*,#295,.F.);
#377=ORIENTED_EDGE('',*,*,#296,.F.);
#378=ORIENTED_EDGE('',*,*,#297,.T.);
#379=ORIENTED_EDGE('',*,*,#298,.F.);
#380=ORIENTED_EDGE('',*,*,#297,.F.);
#381=ORIENTED_EDGE('',*,*,#295,.T.);
#382=ORIENTED_EDGE('',*,*,#296,.T.);
#383=ORIENTED_EDGE('',*,*,#299,.T.);
#384=ORIENTED_EDGE('',*,*,#300,.T.);
#385=ORIENTED_EDGE('',*,*,#299,.F.);
#386=ORIENTED_EDGE('',*,*,#301,.F.);
#387=ORIENTED_EDGE('',*,*,#302,.T.);
#388=ORIENTED_EDGE('',*,*,#303,.T.);
#389=ORIENTED_EDGE('',*,*,#302,.F.);
#390=ORIENTED_EDGE('',*,*,#304,.F.);
#391=ORIENTED_EDGE('',*,*,#305,.T.);
#392=ORIENTED_EDGE('',*,*,#306,.F.);
#393=ORIENTED_EDGE('',*,*,#305,.F.);
#394=ORIENTED_EDGE('',*,*,#307,.F.);
#395=ORIENTED_EDGE('',*,*,#308,.F.);
#396=ORIENTED_EDGE('',*,*,#309,.T.);
#397=ORIENTED_EDGE('',*,*,#310,.F.);
#398=ORIENTED_EDGE('',*,*,#309,.F.);
#399=ORIENTED_EDGE('',*,*,#311,.F.);
#400=ORIENTED_EDGE('',*,*,#312,.F.);
#401=ORIENTED_EDGE('',*,*,#313,.T.);
#402=ORIENTED_EDGE('',*,*,#314,.F.);
#403=ORIENTED_EDGE('',*,*,#313,.F.);
#404=ORIENTED_EDGE('',*,*,#315,.F.);
#405=ORIENTED_EDGE('',*,*,#316,.T.);
#406=ORIENTED_EDGE('',*,*,#317,.F.);
#407=ORIENTED_EDGE('',*,*,#316,.F.);
#408=ORIENTED_EDGE('',*,*,#318,.F.);
#409=ORIENTED_EDGE('',*,*,#319,.F.);
#410=ORIENTED_EDGE('',*,*,#320,.T.);
#411=ORIENTED_EDGE('',*,*,#321,.F.);
#412=ORIENTED_EDGE('',*,*,#320,.F.);
#413=ORIENTED_EDGE('',*,*,#322,.F.);
#414=ORIENTED_EDGE('',*,*,#323,.T.);
#415=ORIENTED_EDGE('',*,*,#324,.F.);
#416=ORIENTED_EDGE('',*,*,#323,.F.);
#417=ORIENTED_EDGE('',*,*,#325,.F.);
#418=ORIENTED_EDGE('',*,*,#326,.F.);
#419=ORIENTED_EDGE('',*,*,#327,.T.);
#420=ORIENTED_EDGE('',*,*,#328,.F.);
#421=ORIENTED_EDGE('',*,*,#327,.F.);
#422=ORIENTED_EDGE('',*,*,#329,.F.);
#423=ORIENTED_EDGE('',*,*,#330,.T.);
#424=ORIENTED_EDGE('',*,*,#331,.F.);
#425=ORIENTED_EDGE('',*,*,#330,.F.);
#426=ORIENTED_EDGE('',*,*,#332,.F.);
#427=ORIENTED_EDGE('',*,*,#333,.F.);
#428=ORIENTED_EDGE('',*,*,#334,.T.);
#429=ORIENTED_EDGE('',*,*,#335,.F.);
#430=ORIENTED_EDGE('',*,*,#334,.F.);
#431=ORIENTED_EDGE('',*,*,#336,.F.);
#432=ORIENTED_EDGE('',*,*,#337,.T.);
#433=ORIENTED_EDGE('',*,*,#338,.F.);
#434=ORIENTED_EDGE('',*,*,#337,.F.);
#435=ORIENTED_EDGE('',*,*,#339,.F.);
#436=ORIENTED_EDGE('',*,*,#340,.F.);
#437=ORIENTED_EDGE('',*,*,#341,.T.);
#438=ORIENTED_EDGE('',*,*,#342,.F.);
#439=ORIENTED_EDGE('',*,*,#341,.F.);
#440=ORIENTED_EDGE('',*,*,#343,.F.);
#441=ORIENTED_EDGE('',*,*,#344,.T.);
#442=ORIENTED_EDGE('',*,*,#345,.F.);
#443=ORIENTED_EDGE('',*,*,#344,.F.);
#444=ORIENTED_EDGE('',*,*,#346,.F.);
#445=ORIENTED_EDGE('',*,*,#347,.F.);
#446=ORIENTED_EDGE('',*,*,#348,.T.);
#447=ORIENTED_EDGE('',*,*,#349,.F.);
#448=ORIENTED_EDGE('',*,*,#348,.F.);
#449=ORIENTED_EDGE('',*,*,#350,.F.);
#450=ORIENTED_EDGE('',*,*,#351,.T.);
#451=ORIENTED_EDGE('',*,*,#352,.F.);
#452=ORIENTED_EDGE('',*,*,#351,.F.);
#453=ORIENTED_EDGE('',*,*,#353,.F.);
#454=ORIENTED_EDGE('',*,*,#354,.F.);
#455=ORIENTED_EDGE('',*,*,#355,.T.);
#456=ORIENTED_EDGE('',*,*,#356,.F.);
#457=ORIENTED_EDGE('',*,*,#355,.F.);
#458=ORIENTED_EDGE('',*,*,#357,.F.);
#459=ORIENTED_EDGE('',*,*,#358,.T.);
#460=ORIENTED_EDGE('',*,*,#359,.F.);
#461=ORIENTED_EDGE('',*,*,#358,.F.);
#462=ORIENTED_EDGE('',*,*,#311,.T.);
#463=ORIENTED_EDGE('',*,*,#312,.T.);
#464=ORIENTED_EDGE('',*,*,#360,.T.);
#465=ORIENTED_EDGE('',*,*,#315,.T.);
#466=ORIENTED_EDGE('',*,*,#360,.F.);
#467=ORIENTED_EDGE('',*,*,#318,.T.);
#468=ORIENTED_EDGE('',*,*,#319,.T.);
#469=ORIENTED_EDGE('',*,*,#361,.T.);
#470=ORIENTED_EDGE('',*,*,#322,.T.);
#471=ORIENTED_EDGE('',*,*,#361,.F.);
#472=ORIENTED_EDGE('',*,*,#325,.T.);
#473=ORIENTED_EDGE('',*,*,#326,.T.);
#474=ORIENTED_EDGE('',*,*,#362,.T.);
#475=ORIENTED_EDGE('',*,*,#329,.T.);
#476=ORIENTED_EDGE('',*,*,#362,.F.);
#477=ORIENTED_EDGE('',*,*,#332,.T.);
#478=ORIENTED_EDGE('',*,*,#333,.T.);
#479=ORIENTED_EDGE('',*,*,#363,.T.);
#480=ORIENTED_EDGE('',*,*,#336,.T.);
#481=ORIENTED_EDGE('',*,*,#363,.F.);
#482=ORIENTED_EDGE('',*,*,#339,.T.);
#483=ORIENTED_EDGE('',*,*,#340,.T.);
#484=ORIENTED_EDGE('',*,*,#364,.T.);
#485=ORIENTED_EDGE('',*,*,#343,.T.);
#486=ORIENTED_EDGE('',*,*,#364,.F.);
#487=ORIENTED_EDGE('',*,*,#346,.T.);
#488=ORIENTED_EDGE('',*,*,#347,.T.);
#489=ORIENTED_EDGE('',*,*,#365,.T.);
#490=ORIENTED_EDGE('',*,*,#350,.T.);
#491=ORIENTED_EDGE('',*,*,#365,.F.);
#492=ORIENTED_EDGE('',*,*,#353,.T.);
#493=ORIENTED_EDGE('',*,*,#354,.T.);
#494=ORIENTED_EDGE('',*,*,#366,.T.);
#495=ORIENTED_EDGE('',*,*,#357,.T.);
#496=ORIENTED_EDGE('',*,*,#366,.F.);
#497=ORIENTED_EDGE('',*,*,#367,.F.);
#498=ORIENTED_EDGE('',*,*,#368,.F.);
#499=ORIENTED_EDGE('',*,*,#369,.T.);
#500=ORIENTED_EDGE('',*,*,#370,.F.);
#501=ORIENTED_EDGE('',*,*,#369,.F.);
#502=ORIENTED_EDGE('',*,*,#371,.F.);
#503=ORIENTED_EDGE('',*,*,#372,.T.);
#504=ORIENTED_EDGE('',*,*,#373,.F.);
#505=ORIENTED_EDGE('',*,*,#372,.F.);
#506=ORIENTED_EDGE('',*,*,#367,.T.);
#507=ORIENTED_EDGE('',*,*,#368,.T.);
#508=ORIENTED_EDGE('',*,*,#374,.T.);
#509=ORIENTED_EDGE('',*,*,#371,.T.);
#510=ORIENTED_EDGE('',*,*,#374,.F.);
#511=ORIENTED_EDGE('',*,*,#307,.T.);
#512=ORIENTED_EDGE('',*,*,#308,.T.);
#513=ORIENTED_EDGE('',*,*,#375,.T.);
#514=ORIENTED_EDGE('',*,*,#304,.T.);
#515=ORIENTED_EDGE('',*,*,#375,.F.);
#516=ORIENTED_EDGE('',*,*,#306,.T.);
#517=ORIENTED_EDGE('',*,*,#317,.T.);
#518=ORIENTED_EDGE('',*,*,#324,.T.);
#519=ORIENTED_EDGE('',*,*,#331,.T.);
#520=ORIENTED_EDGE('',*,*,#338,.T.);
#521=ORIENTED_EDGE('',*,*,#345,.T.);
#522=ORIENTED_EDGE('',*,*,#352,.T.);
#523=ORIENTED_EDGE('',*,*,#359,.T.);
#524=ORIENTED_EDGE('',*,*,#373,.T.);
#525=ORIENTED_EDGE('',*,*,#303,.F.);
#526=ORIENTED_EDGE('',*,*,#310,.T.);
#527=ORIENTED_EDGE('',*,*,#314,.T.);
#528=ORIENTED_EDGE('',*,*,#321,.T.);
#529=ORIENTED_EDGE('',*,*,#328,.T.);
#530=ORIENTED_EDGE('',*,*,#335,.T.);
#531=ORIENTED_EDGE('',*,*,#342,.T.);
#532=ORIENTED_EDGE('',*,*,#349,.T.);
#533=ORIENTED_EDGE('',*,*,#356,.T.);
#534=ORIENTED_EDGE('',*,*,#370,.T.);
#535=ORIENTED_EDGE('',*,*,#298,.T.);
#536=ORIENTED_EDGE('',*,*,#301,.T.);
#537=ORIENTED_EDGE('',*,*,#300,.F.);
#538=CONICAL_SURFACE('',#604,43.45,0.785398163397455);
#539=CONICAL_SURFACE('',#613,72.1,0.785398163397448);
#540=CONICAL_SURFACE('',#616,72.5,0.785398163397448);
#541=CONICAL_SURFACE('',#620,5.00000000000002,0.785398163397445);
#542=CONICAL_SURFACE('',#624,4.5,0.785398163397459);
#543=CONICAL_SURFACE('',#627,4.99999999999998,0.78539816339746);
#544=CONICAL_SURFACE('',#631,4.5,0.78539816339746);
#545=CONICAL_SURFACE('',#634,5.00000000000002,0.785398163397445);
#546=CONICAL_SURFACE('',#638,4.5,0.785398163397453);
#547=CONICAL_SURFACE('',#641,4.99999999999998,0.78539816339746);
#548=CONICAL_SURFACE('',#645,4.5,0.78539816339746);
#549=CONICAL_SURFACE('',#648,5.,0.785398163397455);
#550=CONICAL_SURFACE('',#652,4.5,0.785398163397447);
#551=CONICAL_SURFACE('',#655,4.99999999999998,0.78539816339746);
#552=CONICAL_SURFACE('',#659,4.5,0.78539816339746);
#553=CONICAL_SURFACE('',#662,5.00000000000001,0.78539816339744);
#554=CONICAL_SURFACE('',#666,4.5,0.785398163397454);
#555=CONICAL_SURFACE('',#676,4.99999999999998,0.78539816339746);
#556=CONICAL_SURFACE('',#680,4.5,0.78539816339746);
#557=ADVANCED_FACE('',(#48),#538,.F.);
#558=ADVANCED_FACE('',(#49),#37,.F.);
#559=ADVANCED_FACE('',(#50),#38,.F.);
#560=ADVANCED_FACE('',(#51),#539,.T.);
#561=ADVANCED_FACE('',(#52),#540,.T.);
#562=ADVANCED_FACE('',(#53),#541,.F.);
#563=ADVANCED_FACE('',(#54),#542,.F.);
#564=ADVANCED_FACE('',(#55),#543,.F.);
#565=ADVANCED_FACE('',(#56),#544,.F.);
#566=ADVANCED_FACE('',(#57),#545,.F.);
#567=ADVANCED_FACE('',(#58),#546,.F.);
#568=ADVANCED_FACE('',(#59),#547,.F.);
#569=ADVANCED_FACE('',(#60),#548,.F.);
#570=ADVANCED_FACE('',(#61),#549,.F.);
#571=ADVANCED_FACE('',(#62),#550,.F.);
#572=ADVANCED_FACE('',(#63),#551,.F.);
#573=ADVANCED_FACE('',(#64),#552,.F.);
#574=ADVANCED_FACE('',(#65),#553,.F.);
#575=ADVANCED_FACE('',(#66),#554,.F.);
#576=ADVANCED_FACE('',(#67),#39,.F.);
#577=ADVANCED_FACE('',(#68),#40,.F.);
#578=ADVANCED_FACE('',(#69),#41,.F.);
#579=ADVANCED_FACE('',(#70),#42,.F.);
#580=ADVANCED_FACE('',(#71),#43,.F.);
#581=ADVANCED_FACE('',(#72),#44,.F.);
#582=ADVANCED_FACE('',(#73),#45,.F.);
#583=ADVANCED_FACE('',(#74),#555,.F.);
#584=ADVANCED_FACE('',(#75),#556,.F.);
#585=ADVANCED_FACE('',(#76),#46,.F.);
#586=ADVANCED_FACE('',(#77),#47,.T.);
#587=ADVANCED_FACE('',(#78,#15,#16,#17,#18,#19,#20,#21,#22,#23),#34,.T.);
#588=ADVANCED_FACE('',(#79,#24,#25,#26,#27,#28,#29,#30,#31,#32),#35,.F.);
#589=ADVANCED_FACE('',(#80,#33),#36,.F.);
#590=CLOSED_SHELL('',(#557,#558,#559,#560,#561,#562,#563,#564,#565,#566,
#567,#568,#569,#570,#571,#572,#573,#574,#575,#576,#577,#578,#579,#580,#581,
#582,#583,#584,#585,#586,#587,#588,#589));
#591=DERIVED_UNIT_ELEMENT(#593,1.);
#592=DERIVED_UNIT_ELEMENT(#1059,-3.);
#593=(
MASS_UNIT()
NAMED_UNIT(*)
SI_UNIT(.KILO.,.GRAM.)
);
#594=DERIVED_UNIT((#591,#592));
#595=MEASURE_REPRESENTATION_ITEM('density measure',
POSITIVE_RATIO_MEASURE(7850.),#594);
#596=PROPERTY_DEFINITION_REPRESENTATION(#601,#598);
#597=PROPERTY_DEFINITION_REPRESENTATION(#602,#599);
#598=REPRESENTATION('material name',(#600),#1056);
#599=REPRESENTATION('density',(#595),#1056);
#600=DESCRIPTIVE_REPRESENTATION_ITEM('Steel','Steel');
#601=PROPERTY_DEFINITION('material property','material name',#1066);
#602=PROPERTY_DEFINITION('material property','density of part',#1066);
#603=AXIS2_PLACEMENT_3D('',#888,#688,#689);
#604=AXIS2_PLACEMENT_3D('',#889,#690,#691);
#605=AXIS2_PLACEMENT_3D('',#892,#692,#693);
#606=AXIS2_PLACEMENT_3D('',#893,#694,#695);
#607=AXIS2_PLACEMENT_3D('',#896,#697,#698);
#608=AXIS2_PLACEMENT_3D('',#897,#699,#700);
#609=AXIS2_PLACEMENT_3D('',#900,#702,#703);
#610=AXIS2_PLACEMENT_3D('',#901,#704,#705);
#611=AXIS2_PLACEMENT_3D('',#903,#706,#707);
#612=AXIS2_PLACEMENT_3D('',#906,#709,#710);
#613=AXIS2_PLACEMENT_3D('',#907,#711,#712);
#614=AXIS2_PLACEMENT_3D('',#909,#713,#714);
#615=AXIS2_PLACEMENT_3D('',#912,#716,#717);
#616=AXIS2_PLACEMENT_3D('',#913,#718,#719);
#617=AXIS2_PLACEMENT_3D('',#916,#720,#721);
#618=AXIS2_PLACEMENT_3D('',#917,#722,#723);
#619=AXIS2_PLACEMENT_3D('',#920,#725,#726);
#620=AXIS2_PLACEMENT_3D('',#921,#727,#728);
#621=AXIS2_PLACEMENT_3D('',#924,#729,#730);
#622=AXIS2_PLACEMENT_3D('',#925,#731,#732);
#623=AXIS2_PLACEMENT_3D('',#928,#734,#735);
#624=AXIS2_PLACEMENT_3D('',#929,#736,#737);
#625=AXIS2_PLACEMENT_3D('',#931,#738,#739);
#626=AXIS2_PLACEMENT_3D('',#934,#741,#742);
#627=AXIS2_PLACEMENT_3D('',#935,#743,#744);
#628=AXIS2_PLACEMENT_3D('',#938,#745,#746);
#629=AXIS2_PLACEMENT_3D('',#939,#747,#748);
#630=AXIS2_PLACEMENT_3D('',#942,#750,#751);
#631=AXIS2_PLACEMENT_3D('',#943,#752,#753);
#632=AXIS2_PLACEMENT_3D('',#945,#754,#755);
#633=AXIS2_PLACEMENT_3D('',#948,#757,#758);
#634=AXIS2_PLACEMENT_3D('',#949,#759,#760);
#635=AXIS2_PLACEMENT_3D('',#952,#761,#762);
#636=AXIS2_PLACEMENT_3D('',#953,#763,#764);
#637=AXIS2_PLACEMENT_3D('',#956,#766,#767);
#638=AXIS2_PLACEMENT_3D('',#957,#768,#769);
#639=AXIS2_PLACEMENT_3D('',#959,#770,#771);
#640=AXIS2_PLACEMENT_3D('',#962,#773,#774);
#641=AXIS2_PLACEMENT_3D('',#963,#775,#776);
#642=AXIS2_PLACEMENT_3D('',#966,#777,#778);
#643=AXIS2_PLACEMENT_3D('',#967,#779,#780);
#644=AXIS2_PLACEMENT_3D('',#970,#782,#783);
#645=AXIS2_PLACEMENT_3D('',#971,#784,#785);
#646=AXIS2_PLACEMENT_3D('',#973,#786,#787);
#647=AXIS2_PLACEMENT_3D('',#976,#789,#790);
#648=AXIS2_PLACEMENT_3D('',#977,#791,#792);
#649=AXIS2_PLACEMENT_3D('',#980,#793,#794);
#650=AXIS2_PLACEMENT_3D('',#981,#795,#796);
#651=AXIS2_PLACEMENT_3D('',#984,#798,#799);
#652=AXIS2_PLACEMENT_3D('',#985,#800,#801);
#653=AXIS2_PLACEMENT_3D('',#987,#802,#803);
#654=AXIS2_PLACEMENT_3D('',#990,#805,#806);
#655=AXIS2_PLACEMENT_3D('',#991,#807,#808);
#656=AXIS2_PLACEMENT_3D('',#994,#809,#810);
#657=AXIS2_PLACEMENT_3D('',#995,#811,#812);
#658=AXIS2_PLACEMENT_3D('',#998,#814,#815);
#659=AXIS2_PLACEMENT_3D('',#999,#816,#817);
#660=AXIS2_PLACEMENT_3D('',#1001,#818,#819);
#661=AXIS2_PLACEMENT_3D('',#1004,#821,#822);
#662=AXIS2_PLACEMENT_3D('',#1005,#823,#824);
#663=AXIS2_PLACEMENT_3D('',#1008,#825,#826);
#664=AXIS2_PLACEMENT_3D('',#1009,#827,#828);
#665=AXIS2_PLACEMENT_3D('',#1012,#830,#831);
#666=AXIS2_PLACEMENT_3D('',#1013,#832,#833);
#667=AXIS2_PLACEMENT_3D('',#1015,#834,#835);
#668=AXIS2_PLACEMENT_3D('',#1018,#837,#838);
#669=AXIS2_PLACEMENT_3D('',#1019,#839,#840);
#670=AXIS2_PLACEMENT_3D('',#1021,#842,#843);
#671=AXIS2_PLACEMENT_3D('',#1023,#845,#846);
#672=AXIS2_PLACEMENT_3D('',#1025,#848,#849);
#673=AXIS2_PLACEMENT_3D('',#1027,#851,#852);
#674=AXIS2_PLACEMENT_3D('',#1029,#854,#855);
#675=AXIS2_PLACEMENT_3D('',#1031,#857,#858);
#676=AXIS2_PLACEMENT_3D('',#1033,#860,#861);
#677=AXIS2_PLACEMENT_3D('',#1036,#862,#863);
#678=AXIS2_PLACEMENT_3D('',#1037,#864,#865);
#679=AXIS2_PLACEMENT_3D('',#1040,#867,#868);
#680=AXIS2_PLACEMENT_3D('',#1041,#869,#870);
#681=AXIS2_PLACEMENT_3D('',#1043,#871,#872);
#682=AXIS2_PLACEMENT_3D('',#1046,#874,#875);
#683=AXIS2_PLACEMENT_3D('',#1047,#876,#877);
#684=AXIS2_PLACEMENT_3D('',#1049,#879,#880);
#685=AXIS2_PLACEMENT_3D('',#1051,#882,#883);
#686=AXIS2_PLACEMENT_3D('',#1052,#884,#885);
#687=AXIS2_PLACEMENT_3D('',#1053,#886,#887);
#688=DIRECTION('axis',(0.,0.,1.));
#689=DIRECTION('refdir',(1.,0.,0.));
#690=DIRECTION('center_axis',(0.,-1.,0.));
#691=DIRECTION('ref_axis',(0.,0.,-1.));
#692=DIRECTION('center_axis',(0.,-1.,0.));
#693=DIRECTION('ref_axis',(0.,0.,1.));
#694=DIRECTION('center_axis',(0.,-1.,0.));
#695=DIRECTION('ref_axis',(0.,0.,1.));
#696=DIRECTION('',(-8.659560562355E-17,-0.707106781186543,0.707106781186553));
#697=DIRECTION('center_axis',(0.,1.,0.));
#698=DIRECTION('ref_axis',(0.,0.,1.));
#699=DIRECTION('center_axis',(0.,1.,0.));
#700=DIRECTION('ref_axis',(0.,0.,1.));
#701=DIRECTION('',(0.,1.,0.));
#702=DIRECTION('center_axis',(0.,1.,0.));
#703=DIRECTION('ref_axis',(0.,0.,1.));
#704=DIRECTION('center_axis',(0.,1.,0.));
#705=DIRECTION('ref_axis',(0.,0.,1.));
#706=DIRECTION('center_axis',(0.,1.,0.));
#707=DIRECTION('ref_axis',(0.,0.,1.));
#708=DIRECTION('',(0.,1.,0.));
#709=DIRECTION('center_axis',(0.,1.,0.));
#710=DIRECTION('ref_axis',(0.,0.,1.));
#711=DIRECTION('center_axis',(0.,-1.,0.));
#712=DIRECTION('ref_axis',(0.,0.,-1.));
#713=DIRECTION('center_axis',(0.,-1.,0.));
#714=DIRECTION('ref_axis',(0.,0.,1.));
#715=DIRECTION('',(8.65956056235493E-17,0.707106781186547,-0.707106781186547));
#716=DIRECTION('center_axis',(0.,1.,0.));
#717=DIRECTION('ref_axis',(0.,0.,1.));
#718=DIRECTION('center_axis',(0.,1.,0.));
#719=DIRECTION('ref_axis',(0.,0.,1.));
#720=DIRECTION('center_axis',(0.,1.,0.));
#721=DIRECTION('ref_axis',(0.,0.,1.));
#722=DIRECTION('center_axis',(0.,1.,0.));
#723=DIRECTION('ref_axis',(0.,0.,1.));
#724=DIRECTION('',(8.65956056235493E-17,-0.707106781186548,0.707106781186548));
#725=DIRECTION('center_axis',(0.,-1.,0.));
#726=DIRECTION('ref_axis',(0.,0.,1.));
#727=DIRECTION('center_axis',(0.,-1.,0.));
#728=DIRECTION('ref_axis',(0.,0.,-1.));
#729=DIRECTION('center_axis',(0.,-1.,0.));
#730=DIRECTION('ref_axis',(0.,0.,1.));
#731=DIRECTION('center_axis',(0.,-1.,0.));
#732=DIRECTION('ref_axis',(0.,0.,1.));
#733=DIRECTION('',(-8.6595605623549E-17,-0.70710678118655,0.707106781186545));
#734=DIRECTION('center_axis',(0.,1.,0.));
#735=DIRECTION('ref_axis',(0.,0.,1.));
#736=DIRECTION('center_axis',(0.,1.,0.));
#737=DIRECTION('ref_axis',(0.,0.,1.));
#738=DIRECTION('center_axis',(0.,1.,0.));
#739=DIRECTION('ref_axis',(0.,0.,1.));
#740=DIRECTION('',(-8.65956056235502E-17,0.70710678118654,-0.707106781186555));
#741=DIRECTION('center_axis',(0.,-1.,0.));
#742=DIRECTION('ref_axis',(0.,0.,1.));
#743=DIRECTION('center_axis',(0.,-1.,0.));
#744=DIRECTION('ref_axis',(0.,0.,-1.));
#745=DIRECTION('center_axis',(0.,-1.,0.));
#746=DIRECTION('ref_axis',(0.,0.,1.));
#747=DIRECTION('center_axis',(0.,-1.,0.));
#748=DIRECTION('ref_axis',(0.,0.,1.));
#749=DIRECTION('',(-8.65956056235504E-17,-0.707106781186539,0.707106781186556));
#750=DIRECTION('center_axis',(0.,1.,0.));
#751=DIRECTION('ref_axis',(0.,0.,1.));
#752=DIRECTION('center_axis',(0.,1.,0.));
#753=DIRECTION('ref_axis',(0.,0.,1.));
#754=DIRECTION('center_axis',(0.,1.,0.));
#755=DIRECTION('ref_axis',(0.,0.,1.));
#756=DIRECTION('',(-8.65956056235503E-17,0.707106781186539,-0.707106781186555));
#757=DIRECTION('center_axis',(0.,-1.,0.));
#758=DIRECTION('ref_axis',(0.,0.,1.));
#759=DIRECTION('center_axis',(0.,-1.,0.));
#760=DIRECTION('ref_axis',(0.,0.,-1.));
#761=DIRECTION('center_axis',(0.,-1.,0.));
#762=DIRECTION('ref_axis',(0.,0.,1.));
#763=DIRECTION('center_axis',(0.,-1.,0.));
#764=DIRECTION('ref_axis',(0.,0.,1.));
#765=DIRECTION('',(-8.6595605623549E-17,-0.70710678118655,0.707106781186545));
#766=DIRECTION('center_axis',(0.,1.,0.));
#767=DIRECTION('ref_axis',(0.,0.,1.));
#768=DIRECTION('center_axis',(0.,1.,0.));
#769=DIRECTION('ref_axis',(0.,0.,1.));
#770=DIRECTION('center_axis',(0.,1.,0.));
#771=DIRECTION('ref_axis',(0.,0.,1.));
#772=DIRECTION('',(-8.65956056235498E-17,0.707106781186544,-0.707106781186551));
#773=DIRECTION('center_axis',(0.,-1.,0.));
#774=DIRECTION('ref_axis',(0.,0.,1.));
#775=DIRECTION('center_axis',(0.,-1.,0.));
#776=DIRECTION('ref_axis',(0.,0.,-1.));
#777=DIRECTION('center_axis',(0.,-1.,0.));
#778=DIRECTION('ref_axis',(0.,0.,1.));
#779=DIRECTION('center_axis',(0.,-1.,0.));
#780=DIRECTION('ref_axis',(0.,0.,1.));
#781=DIRECTION('',(-8.65956056235504E-17,-0.707106781186539,0.707106781186556));
#782=DIRECTION('center_axis',(0.,1.,0.));
#783=DIRECTION('ref_axis',(0.,0.,1.));
#784=DIRECTION('center_axis',(0.,1.,0.));
#785=DIRECTION('ref_axis',(0.,0.,1.));
#786=DIRECTION('center_axis',(0.,1.,0.));
#787=DIRECTION('ref_axis',(0.,0.,1.));
#788=DIRECTION('',(-8.65956056235503E-17,0.707106781186539,-0.707106781186555));
#789=DIRECTION('center_axis',(0.,-1.,0.));
#790=DIRECTION('ref_axis',(0.,0.,1.));
#791=DIRECTION('center_axis',(0.,-1.,0.));
#792=DIRECTION('ref_axis',(0.,0.,-1.));
#793=DIRECTION('center_axis',(0.,-1.,0.));
#794=DIRECTION('ref_axis',(0.,0.,1.));
#795=DIRECTION('center_axis',(0.,-1.,0.));
#796=DIRECTION('ref_axis',(0.,0.,1.));
#797=DIRECTION('',(-8.65956056235499E-17,-0.707106781186543,0.707106781186553));
#798=DIRECTION('center_axis',(0.,1.,0.));
#799=DIRECTION('ref_axis',(0.,0.,1.));
#800=DIRECTION('center_axis',(0.,1.,0.));
#801=DIRECTION('ref_axis',(0.,0.,1.));
#802=DIRECTION('center_axis',(0.,1.,0.));
#803=DIRECTION('ref_axis',(0.,0.,1.));
#804=DIRECTION('',(-8.65956056235493E-17,0.707106781186548,-0.707106781186547));
#805=DIRECTION('center_axis',(0.,-1.,0.));
#806=DIRECTION('ref_axis',(0.,0.,1.));
#807=DIRECTION('center_axis',(0.,-1.,0.));
#808=DIRECTION('ref_axis',(0.,0.,-1.));
#809=DIRECTION('center_axis',(0.,-1.,0.));
#810=DIRECTION('ref_axis',(0.,0.,1.));
#811=DIRECTION('center_axis',(0.,-1.,0.));
#812=DIRECTION('ref_axis',(0.,0.,1.));
#813=DIRECTION('',(-8.65956056235504E-17,-0.707106781186539,0.707106781186556));
#814=DIRECTION('center_axis',(0.,1.,0.));
#815=DIRECTION('ref_axis',(0.,0.,1.));
#816=DIRECTION('center_axis',(0.,1.,0.));
#817=DIRECTION('ref_axis',(0.,0.,1.));
#818=DIRECTION('center_axis',(0.,1.,0.));
#819=DIRECTION('ref_axis',(0.,0.,1.));
#820=DIRECTION('',(-8.65956056235503E-17,0.707106781186539,-0.707106781186555));
#821=DIRECTION('center_axis',(0.,-1.,0.));
#822=DIRECTION('ref_axis',(0.,0.,1.));
#823=DIRECTION('center_axis',(0.,-1.,0.));
#824=DIRECTION('ref_axis',(0.,0.,-1.));
#825=DIRECTION('center_axis',(0.,-1.,0.));
#826=DIRECTION('ref_axis',(0.,0.,1.));
#827=DIRECTION('center_axis',(0.,-1.,0.));
#828=DIRECTION('ref_axis',(0.,0.,1.));
#829=DIRECTION('',(-8.65956056235486E-17,-0.707106781186554,0.707106781186541));
#830=DIRECTION('center_axis',(0.,1.,0.));
#831=DIRECTION('ref_axis',(0.,0.,1.));
#832=DIRECTION('center_axis',(0.,1.,0.));
#833=DIRECTION('ref_axis',(0.,0.,1.));
#834=DIRECTION('center_axis',(0.,1.,0.));
#835=DIRECTION('ref_axis',(0.,0.,1.));
#836=DIRECTION('',(-8.65956056235498E-17,0.707106781186544,-0.707106781186551));
#837=DIRECTION('center_axis',(0.,-1.,0.));
#838=DIRECTION('ref_axis',(0.,0.,1.));
#839=DIRECTION('center_axis',(0.,1.,0.));
#840=DIRECTION('ref_axis',(0.,0.,1.));
#841=DIRECTION('',(0.,1.,0.));
#842=DIRECTION('center_axis',(0.,1.,0.));
#843=DIRECTION('ref_axis',(0.,0.,1.));
#844=DIRECTION('',(0.,1.,0.));
#845=DIRECTION('center_axis',(0.,1.,0.));
#846=DIRECTION('ref_axis',(0.,0.,1.));
#847=DIRECTION('',(0.,1.,0.));
#848=DIRECTION('center_axis',(0.,1.,0.));
#849=DIRECTION('ref_axis',(0.,0.,1.));
#850=DIRECTION('',(0.,1.,0.));
#851=DIRECTION('center_axis',(0.,1.,0.));
#852=DIRECTION('ref_axis',(0.,0.,1.));
#853=DIRECTION('',(0.,1.,0.));
#854=DIRECTION('center_axis',(0.,1.,0.));
#855=DIRECTION('ref_axis',(0.,0.,1.));
#856=DIRECTION('',(0.,1.,0.));
#857=DIRECTION('center_axis',(0.,1.,0.));
#858=DIRECTION('ref_axis',(0.,0.,1.));
#859=DIRECTION('',(0.,1.,0.));
#860=DIRECTION('center_axis',(0.,-1.,0.));
#861=DIRECTION('ref_axis',(0.,0.,-1.));
#862=DIRECTION('center_axis',(0.,-1.,0.));
#863=DIRECTION('ref_axis',(0.,0.,1.));
#864=DIRECTION('center_axis',(0.,-1.,0.));
#865=DIRECTION('ref_axis',(0.,0.,1.));
#866=DIRECTION('',(-8.65956056235504E-17,-0.707106781186539,0.707106781186556));
#867=DIRECTION('center_axis',(0.,1.,0.));
#868=DIRECTION('ref_axis',(0.,0.,1.));
#869=DIRECTION('center_axis',(0.,1.,0.));
#870=DIRECTION('ref_axis',(0.,0.,1.));
#871=DIRECTION('center_axis',(0.,1.,0.));
#872=DIRECTION('ref_axis',(0.,0.,1.));
#873=DIRECTION('',(-8.65956056235503E-17,0.707106781186539,-0.707106781186555));
#874=DIRECTION('center_axis',(0.,-1.,0.));
#875=DIRECTION('ref_axis',(0.,0.,1.));
#876=DIRECTION('center_axis',(0.,1.,0.));
#877=DIRECTION('ref_axis',(0.,0.,1.));
#878=DIRECTION('',(0.,1.,0.));
#879=DIRECTION('center_axis',(0.,-1.,0.));
#880=DIRECTION('ref_axis',(0.,0.,-1.));
#881=DIRECTION('',(0.,1.,0.));
#882=DIRECTION('center_axis',(0.,1.,0.));
#883=DIRECTION('ref_axis',(0.,0.,1.));
#884=DIRECTION('center_axis',(0.,1.,0.));
#885=DIRECTION('ref_axis',(0.,0.,1.));
#886=DIRECTION('center_axis',(0.,-1.,0.));
#887=DIRECTION('ref_axis',(0.,0.,-1.));
#888=CARTESIAN_POINT('',(0.,0.,0.));
#889=CARTESIAN_POINT('Origin',(0.,0.,0.));
#890=CARTESIAN_POINT('',(5.25985800233788E-15,0.500000000000014,-42.95));
#891=CARTESIAN_POINT('',(-5.25985800233788E-15,0.500000000000013,42.95));
#892=CARTESIAN_POINT('Origin',(0.,0.500000000000014,0.));
#893=CARTESIAN_POINT('Origin',(0.,0.500000000000014,0.));
#894=CARTESIAN_POINT('',(-5.32109034229525E-15,-1.67166983284424E-15,43.45));
#895=CARTESIAN_POINT('',(-5.32109034229525E-15,0.,43.45));
#896=CARTESIAN_POINT('Origin',(0.,0.,0.));
#897=CARTESIAN_POINT('Origin',(0.,32.7403206588699,0.));
#898=CARTESIAN_POINT('',(-5.25985800233788E-15,5.5,-42.95));
#899=CARTESIAN_POINT('',(-5.25985800233788E-15,32.7403206588699,-42.95));
#900=CARTESIAN_POINT('Origin',(0.,5.5,0.));
#901=CARTESIAN_POINT('Origin',(0.,32.7403206588699,0.));
#902=CARTESIAN_POINT('',(-5.4619247241972E-15,5.5,-44.6));
#903=CARTESIAN_POINT('Origin',(0.,5.5,0.));
#904=CARTESIAN_POINT('',(-5.4619247241972E-15,12.,-44.6));
#905=CARTESIAN_POINT('',(-5.4619247241972E-15,32.7403206588699,-44.6));
#906=CARTESIAN_POINT('Origin',(0.,12.,0.));
#907=CARTESIAN_POINT('Origin',(0.,12.,0.));
#908=CARTESIAN_POINT('',(-8.87868929381831E-15,11.6,72.5));
#909=CARTESIAN_POINT('Origin',(0.,11.6,0.));
#910=CARTESIAN_POINT('',(-8.82970342185242E-15,12.,72.1));
#911=CARTESIAN_POINT('',(-8.82970342185242E-15,12.,72.1));
#912=CARTESIAN_POINT('Origin',(0.,12.,0.));
#913=CARTESIAN_POINT('Origin',(0.,0.400000000000011,0.));
#914=CARTESIAN_POINT('',(8.87868929381831E-15,0.400000000000011,72.5));
#915=CARTESIAN_POINT('',(-8.87868929381831E-15,0.400000000000011,-72.5));
#916=CARTESIAN_POINT('Origin',(0.,0.400000000000011,0.));
#917=CARTESIAN_POINT('Origin',(0.,0.400000000000011,0.));
#918=CARTESIAN_POINT('',(-8.82970342185241E-15,-4.44089209850063E-15,-72.1));
#919=CARTESIAN_POINT('',(-8.87868929381831E-15,0.400000000000011,-72.5));
#920=CARTESIAN_POINT('Origin',(0.,0.,0.));
#921=CARTESIAN_POINT('Origin',(-44.1941738241587,0.,-44.1941738241598));
#922=CARTESIAN_POINT('',(-44.1941738241587,0.500000000000017,-48.6941738241598));
#923=CARTESIAN_POINT('',(-44.1941738241587,0.500000000000019,-39.6941738241598));
#924=CARTESIAN_POINT('Origin',(-44.1941738241587,0.500000000000017,-44.1941738241598));
#925=CARTESIAN_POINT('Origin',(-44.1941738241587,0.500000000000017,-44.1941738241598));
#926=CARTESIAN_POINT('',(-44.1941738241587,-1.9236706937218E-16,-39.1941738241597));
#927=CARTESIAN_POINT('',(-44.1941738241587,0.,-39.1941738241597));
#928=CARTESIAN_POINT('Origin',(-44.1941738241587,0.,-44.1941738241598));
#929=CARTESIAN_POINT('Origin',(-44.1941738241587,11.5,-44.1941738241598));
#930=CARTESIAN_POINT('',(-44.1941738241587,11.5,-48.6941738241598));
#931=CARTESIAN_POINT('Origin',(-44.1941738241587,11.5,-44.1941738241598));
#932=CARTESIAN_POINT('',(-44.1941738241587,12.,-49.1941738241598));
#933=CARTESIAN_POINT('',(-44.1941738241587,11.5,-48.6941738241598));
#934=CARTESIAN_POINT('Origin',(-44.1941738241587,12.,-44.1941738241598));
#935=CARTESIAN_POINT('Origin',(-62.5,0.,-6.54652751033088E-13));
#936=CARTESIAN_POINT('',(-62.5,0.499999999999961,-4.50000000000066));
#937=CARTESIAN_POINT('',(-62.5,0.499999999999961,4.49999999999935));
#938=CARTESIAN_POINT('Origin',(-62.5,0.499999999999961,-6.54652751033088E-13));
#939=CARTESIAN_POINT('Origin',(-62.5,0.499999999999961,-6.54652751033088E-13));
#940=CARTESIAN_POINT('',(-62.5,-1.92367069372178E-16,4.99999999999932));
#941=CARTESIAN_POINT('',(-62.5,0.,4.99999999999932));
#942=CARTESIAN_POINT('Origin',(-62.5,0.,-6.54652751033088E-13));
#943=CARTESIAN_POINT('Origin',(-62.5,11.5,-6.54652751033088E-13));
#944=CARTESIAN_POINT('',(-62.5,11.5,-4.50000000000066));
#945=CARTESIAN_POINT('Origin',(-62.5,11.5,-6.54652751033088E-13));
#946=CARTESIAN_POINT('',(-62.5,12.,-5.00000000000066));
#947=CARTESIAN_POINT('',(-62.5,11.5,-4.50000000000066));
#948=CARTESIAN_POINT('Origin',(-62.5,12.,-6.54652751033088E-13));
#949=CARTESIAN_POINT('Origin',(-44.1941738241596,0.,44.1941738241588));
#950=CARTESIAN_POINT('',(-44.1941738241596,0.500000000000017,39.6941738241588));
#951=CARTESIAN_POINT('',(-44.1941738241596,0.500000000000019,48.6941738241588));
#952=CARTESIAN_POINT('Origin',(-44.1941738241596,0.500000000000017,44.1941738241588));
#953=CARTESIAN_POINT('Origin',(-44.1941738241596,0.500000000000017,44.1941738241588));
#954=CARTESIAN_POINT('',(-44.1941738241596,-1.9236706937218E-16,49.1941738241589));
#955=CARTESIAN_POINT('',(-44.1941738241596,0.,49.1941738241589));
#956=CARTESIAN_POINT('Origin',(-44.1941738241596,0.,44.1941738241588));
#957=CARTESIAN_POINT('Origin',(-44.1941738241596,11.5,44.1941738241588));
#958=CARTESIAN_POINT('',(-44.1941738241596,11.5,39.6941738241588));
#959=CARTESIAN_POINT('Origin',(-44.1941738241596,11.5,44.1941738241588));
#960=CARTESIAN_POINT('',(-44.1941738241596,12.,39.1941738241588));
#961=CARTESIAN_POINT('',(-44.1941738241596,11.5,39.6941738241588));
#962=CARTESIAN_POINT('Origin',(-44.1941738241596,12.,44.1941738241588));
#963=CARTESIAN_POINT('Origin',(-4.36435167355392E-13,0.,62.5));
#964=CARTESIAN_POINT('',(-4.35884076295775E-13,0.499999999999961,58.));
#965=CARTESIAN_POINT('',(-4.36986258415008E-13,0.499999999999962,67.));
#966=CARTESIAN_POINT('Origin',(-4.36435167355392E-13,0.499999999999961,
62.5));
#967=CARTESIAN_POINT('Origin',(-4.36435167355392E-13,0.499999999999961,
62.5));
#968=CARTESIAN_POINT('',(-4.37047490754965E-13,-1.92367069372178E-16,67.5));
#969=CARTESIAN_POINT('',(-4.37047490754965E-13,0.,67.5));
#970=CARTESIAN_POINT('Origin',(-4.36435167355392E-13,0.,62.5));
#971=CARTESIAN_POINT('Origin',(-4.36435167355392E-13,11.5,62.5));
#972=CARTESIAN_POINT('',(-4.36986258415008E-13,11.5,58.));
#973=CARTESIAN_POINT('Origin',(-4.36435167355392E-13,11.5,62.5));
#974=CARTESIAN_POINT('',(-4.37047490754965E-13,12.,57.5));
#975=CARTESIAN_POINT('',(-4.36986258415008E-13,11.5,58.));
#976=CARTESIAN_POINT('Origin',(-4.36435167355392E-13,12.,62.5));
#977=CARTESIAN_POINT('Origin',(44.194173824159,0.,44.1941738241594));
#978=CARTESIAN_POINT('',(44.194173824159,0.499999999999987,39.6941738241594));
#979=CARTESIAN_POINT('',(44.194173824159,0.499999999999989,48.6941738241595));
#980=CARTESIAN_POINT('Origin',(44.194173824159,0.499999999999987,44.1941738241594));
#981=CARTESIAN_POINT('Origin',(44.194173824159,0.499999999999987,44.1941738241594));
#982=CARTESIAN_POINT('',(44.194173824159,-1.11022302462516E-15,49.1941738241594));
#983=CARTESIAN_POINT('',(44.194173824159,0.,49.1941738241594));
#984=CARTESIAN_POINT('Origin',(44.194173824159,0.,44.1941738241594));
#985=CARTESIAN_POINT('Origin',(44.194173824159,11.5,44.1941738241594));
#986=CARTESIAN_POINT('',(44.194173824159,11.5,39.6941738241594));
#987=CARTESIAN_POINT('Origin',(44.194173824159,11.5,44.1941738241594));
#988=CARTESIAN_POINT('',(44.194173824159,12.,39.1941738241595));
#989=CARTESIAN_POINT('',(44.194173824159,11.5,39.6941738241594));
#990=CARTESIAN_POINT('Origin',(44.194173824159,12.,44.1941738241594));
#991=CARTESIAN_POINT('Origin',(62.5,0.,2.18217583677696E-13));
#992=CARTESIAN_POINT('',(62.5,0.499999999999961,-4.49999999999978));
#993=CARTESIAN_POINT('',(62.5,0.499999999999961,4.50000000000022));
#994=CARTESIAN_POINT('Origin',(62.5,0.499999999999961,2.18217583677696E-13));
#995=CARTESIAN_POINT('Origin',(62.5,0.499999999999961,2.18217583677696E-13));
#996=CARTESIAN_POINT('',(62.5,-1.92367069372178E-16,5.0000000000002));
#997=CARTESIAN_POINT('',(62.5,0.,5.0000000000002));
#998=CARTESIAN_POINT('Origin',(62.5,0.,2.18217583677696E-13));
#999=CARTESIAN_POINT('Origin',(62.5,11.5,2.18217583677696E-13));
#1000=CARTESIAN_POINT('',(62.5,11.5,-4.49999999999979));
#1001=CARTESIAN_POINT('Origin',(62.5,11.5,2.18217583677696E-13));
#1002=CARTESIAN_POINT('',(62.5,12.,-4.99999999999979));
#1003=CARTESIAN_POINT('',(62.5,11.5,-4.49999999999979));
#1004=CARTESIAN_POINT('Origin',(62.5,12.,2.18217583677696E-13));
#1005=CARTESIAN_POINT('Origin',(44.1941738241593,0.,-44.1941738241591));
#1006=CARTESIAN_POINT('',(44.1941738241593,0.500000000000017,-48.6941738241592));
#1007=CARTESIAN_POINT('',(44.1941738241593,0.500000000000019,-39.6941738241591));
#1008=CARTESIAN_POINT('Origin',(44.1941738241593,0.500000000000017,-44.1941738241591));
#1009=CARTESIAN_POINT('Origin',(44.1941738241593,0.500000000000017,-44.1941738241591));
#1010=CARTESIAN_POINT('',(44.1941738241593,-1.92367069372179E-16,-39.1941738241591));
#1011=CARTESIAN_POINT('',(44.1941738241593,0.,-39.1941738241591));
#1012=CARTESIAN_POINT('Origin',(44.1941738241593,0.,-44.1941738241591));
#1013=CARTESIAN_POINT('Origin',(44.1941738241593,11.5000000000001,-44.1941738241591));
#1014=CARTESIAN_POINT('',(44.1941738241593,11.5000000000001,-48.6941738241591));
#1015=CARTESIAN_POINT('Origin',(44.1941738241593,11.5000000000001,-44.1941738241591));
#1016=CARTESIAN_POINT('',(44.1941738241593,12.,-49.1941738241591));
#1017=CARTESIAN_POINT('',(44.1941738241593,11.5000000000001,-48.6941738241591));
#1018=CARTESIAN_POINT('Origin',(44.1941738241593,12.,-44.1941738241591));
#1019=CARTESIAN_POINT('Origin',(-44.1941738241587,0.,-44.1941738241598));
#1020=CARTESIAN_POINT('',(-44.1941738241587,0.,-48.6941738241598));
#1021=CARTESIAN_POINT('Origin',(-62.5,0.,-6.54652751033088E-13));
#1022=CARTESIAN_POINT('',(-62.5,0.,-4.50000000000066));
#1023=CARTESIAN_POINT('Origin',(-44.1941738241596,0.,44.1941738241588));
#1024=CARTESIAN_POINT('',(-44.1941738241596,0.,39.6941738241588));
#1025=CARTESIAN_POINT('Origin',(-4.36435167355392E-13,0.,62.5));
#1026=CARTESIAN_POINT('',(-4.36986258415008E-13,0.,58.));
#1027=CARTESIAN_POINT('Origin',(44.194173824159,0.,44.1941738241594));
#1028=CARTESIAN_POINT('',(44.194173824159,0.,39.6941738241594));
#1029=CARTESIAN_POINT('Origin',(62.5,0.,2.18217583677696E-13));
#1030=CARTESIAN_POINT('',(62.5,0.,-4.49999999999979));
#1031=CARTESIAN_POINT('Origin',(44.1941738241593,0.,-44.1941738241591));
#1032=CARTESIAN_POINT('',(44.1941738241593,0.,-48.6941738241591));
#1033=CARTESIAN_POINT('Origin',(0.,0.,-62.5));
#1034=CARTESIAN_POINT('',(5.51091059616309E-16,0.499999999999961,-67.));
#1035=CARTESIAN_POINT('',(-5.51091059616309E-16,0.499999999999962,-58.));
#1036=CARTESIAN_POINT('Origin',(0.,0.499999999999961,-62.5));
#1037=CARTESIAN_POINT('Origin',(0.,0.499999999999961,-62.5));
#1038=CARTESIAN_POINT('',(-6.12323399573674E-16,-1.92367069372178E-16,-57.5));
#1039=CARTESIAN_POINT('',(-6.12323399573674E-16,0.,-57.5));
#1040=CARTESIAN_POINT('Origin',(0.,0.,-62.5));
#1041=CARTESIAN_POINT('Origin',(0.,11.5,-62.5));
#1042=CARTESIAN_POINT('',(-5.51091059616309E-16,11.5,-67.));
#1043=CARTESIAN_POINT('Origin',(0.,11.5,-62.5));
#1044=CARTESIAN_POINT('',(-6.12323399573677E-16,12.,-67.5));
#1045=CARTESIAN_POINT('',(-5.51091059616309E-16,11.5,-67.));
#1046=CARTESIAN_POINT('Origin',(0.,12.,-62.5));
#1047=CARTESIAN_POINT('Origin',(0.,0.,-62.5));
#1048=CARTESIAN_POINT('',(-5.51091059616309E-16,0.,-67.));
#1049=CARTESIAN_POINT('Origin',(0.,12.,0.));
#1050=CARTESIAN_POINT('',(-8.87868929381831E-15,12.,72.5));
#1051=CARTESIAN_POINT('Origin',(0.,12.,0.));
#1052=CARTESIAN_POINT('Origin',(0.,0.,0.));
#1053=CARTESIAN_POINT('Origin',(-44.6,5.5,0.));
#1054=UNCERTAINTY_MEASURE_WITH_UNIT(LENGTH_MEASURE(0.01),#1058,
'DISTANCE_ACCURACY_VALUE',
'Maximum model space distance between geometric entities at asserted c
onnectivities');
#1055=UNCERTAINTY_MEASURE_WITH_UNIT(LENGTH_MEASURE(0.01),#1058,
'DISTANCE_ACCURACY_VALUE',
'Maximum model space distance between geometric entities at asserted c
onnectivities');
#1056=(
GEOMETRIC_REPRESENTATION_CONTEXT(3)
GLOBAL_UNCERTAINTY_ASSIGNED_CONTEXT((#1054))
GLOBAL_UNIT_ASSIGNED_CONTEXT((#1058,#1060,#1061))
REPRESENTATION_CONTEXT('','3D')
);
#1057=(
GEOMETRIC_REPRESENTATION_CONTEXT(3)
GLOBAL_UNCERTAINTY_ASSIGNED_CONTEXT((#1055))
GLOBAL_UNIT_ASSIGNED_CONTEXT((#1058,#1060,#1061))
REPRESENTATION_CONTEXT('','3D')
);
#1058=(
LENGTH_UNIT()
NAMED_UNIT(*)
SI_UNIT(.MILLI.,.METRE.)
);
#1059=(
LENGTH_UNIT()
NAMED_UNIT(*)
SI_UNIT($,.METRE.)
);
#1060=(
NAMED_UNIT(*)
PLANE_ANGLE_UNIT()
SI_UNIT($,.RADIAN.)
);
#1061=(
NAMED_UNIT(*)
SI_UNIT($,.STERADIAN.)
SOLID_ANGLE_UNIT()
);
#1062=SHAPE_DEFINITION_REPRESENTATION(#1063,#1064);
#1063=PRODUCT_DEFINITION_SHAPE('',$,#1066);
#1064=SHAPE_REPRESENTATION('',(#603),#1056);
#1065=PRODUCT_DEFINITION_CONTEXT('part definition',#1070,'design');
#1066=PRODUCT_DEFINITION('Hositrad_ISO-F80-89','Hositrad_ISO-F80-89 v1',
#1067,#1065);
#1067=PRODUCT_DEFINITION_FORMATION('',$,#1072);
#1068=PRODUCT_RELATED_PRODUCT_CATEGORY('Hositrad_ISO-F80-89 v1',
'Hositrad_ISO-F80-89 v1',(#1072));
#1069=APPLICATION_PROTOCOL_DEFINITION('international standard',
'automotive_design',2009,#1070);
#1070=APPLICATION_CONTEXT(
'Core Data for Automotive Mechanical Design Process');
#1071=PRODUCT_CONTEXT('part definition',#1070,'mechanical');
#1072=PRODUCT('Hositrad_ISO-F80-89','Hositrad_ISO-F80-89 v1',$,(#1071));
#1073=PRESENTATION_STYLE_ASSIGNMENT((#1075));
#1074=PRESENTATION_STYLE_ASSIGNMENT((#1076));
#1075=SURFACE_STYLE_USAGE(.BOTH.,#1077);
#1076=SURFACE_STYLE_USAGE(.BOTH.,#1078);
#1077=SURFACE_SIDE_STYLE('',(#1079));
#1078=SURFACE_SIDE_STYLE('',(#1080));
#1079=SURFACE_STYLE_FILL_AREA(#1081);
#1080=SURFACE_STYLE_FILL_AREA(#1082);
#1081=FILL_AREA_STYLE('Steel - Satin',(#1083));
#1082=FILL_AREA_STYLE('Opaque(165,158,150)',(#1084));
#1083=FILL_AREA_STYLE_COLOUR('Steel - Satin',#1085);
#1084=FILL_AREA_STYLE_COLOUR('Opaque(165,158,150)',#1086);
#1085=COLOUR_RGB('Steel - Satin',0.627450980392157,0.627450980392157,0.627450980392157);
#1086=COLOUR_RGB('Opaque(165,158,150)',0.647058823529412,0.619607843137255,
0.588235294117647);
ENDSEC;
END-ISO-10303-21;
