ISO-10303-21;
HEADER;
/* Generated by software containing ST-Developer
 * from STEP Tools, Inc. (www.steptools.com) 
 */

FILE_DESCRIPTION(
/* description */ (''),
/* implementation_level */ '2;1');

FILE_NAME(
/* name */ 'Hositrad_CF63-64D_DoubleSided v1.step',
/* time_stamp */ '2024-06-25T13:46:51+02:00',
/* author */ (''),
/* organization */ (''),
/* preprocessor_version */ 'ST-DEVELOPER v20',
/* originating_system */ 'Autodesk Translation Framework v13.14.0.145',

/* authorisation */ '');

FILE_SCHEMA (('AUTOMOTIVE_DESIGN { 1 0 10303 214 3 1 1 }'));
ENDSEC;

DATA;
#10=MECHANICAL_DESIGN_GEOMETRIC_PRESENTATION_REPRESENTATION('',(#13),#1197);
#11=SHAPE_REPRESENTATION_RELATIONSHIP('SRR','None',#1204,#12);
#12=ADVANCED_BREP_SHAPE_REPRESENTATION('',(#14),#1196);
#13=STYLED_ITEM('',(#1214),#14);
#14=MANIFOLD_SOLID_BREP('Body1',#667);
#15=FACE_BOUND('',#124,.T.);
#16=FACE_BOUND('',#125,.T.);
#17=FACE_BOUND('',#126,.T.);
#18=FACE_BOUND('',#127,.T.);
#19=FACE_BOUND('',#128,.T.);
#20=FACE_BOUND('',#129,.T.);
#21=FACE_BOUND('',#130,.T.);
#22=FACE_BOUND('',#131,.T.);
#23=FACE_BOUND('',#132,.T.);
#24=FACE_BOUND('',#134,.T.);
#25=FACE_BOUND('',#136,.T.);
#26=FACE_BOUND('',#138,.T.);
#27=FACE_BOUND('',#139,.T.);
#28=FACE_BOUND('',#140,.T.);
#29=FACE_BOUND('',#141,.T.);
#30=FACE_BOUND('',#142,.T.);
#31=FACE_BOUND('',#143,.T.);
#32=FACE_BOUND('',#144,.T.);
#33=FACE_BOUND('',#145,.T.);
#34=FACE_BOUND('',#146,.T.);
#35=PLANE('',#773);
#36=PLANE('',#774);
#37=PLANE('',#775);
#38=PLANE('',#776);
#39=CYLINDRICAL_SURFACE('',#730,4.2);
#40=CYLINDRICAL_SURFACE('',#731,4.2);
#41=CYLINDRICAL_SURFACE('',#732,4.2);
#42=CYLINDRICAL_SURFACE('',#733,4.2);
#43=CYLINDRICAL_SURFACE('',#734,4.2);
#44=CYLINDRICAL_SURFACE('',#735,4.2);
#45=CYLINDRICAL_SURFACE('',#736,4.2);
#46=CYLINDRICAL_SURFACE('',#751,4.2);
#47=CYLINDRICAL_SURFACE('',#752,41.275);
#48=CYLINDRICAL_SURFACE('',#761,32.);
#49=CYLINDRICAL_SURFACE('',#770,41.275);
#50=CYLINDRICAL_SURFACE('',#772,56.75);
#51=FACE_OUTER_BOUND('',#89,.T.);
#52=FACE_OUTER_BOUND('',#90,.T.);
#53=FACE_OUTER_BOUND('',#91,.T.);
#54=FACE_OUTER_BOUND('',#92,.T.);
#55=FACE_OUTER_BOUND('',#93,.T.);
#56=FACE_OUTER_BOUND('',#94,.T.);
#57=FACE_OUTER_BOUND('',#95,.T.);
#58=FACE_OUTER_BOUND('',#96,.T.);
#59=FACE_OUTER_BOUND('',#97,.T.);
#60=FACE_OUTER_BOUND('',#98,.T.);
#61=FACE_OUTER_BOUND('',#99,.T.);
#62=FACE_OUTER_BOUND('',#100,.T.);
#63=FACE_OUTER_BOUND('',#101,.T.);
#64=FACE_OUTER_BOUND('',#102,.T.);
#65=FACE_OUTER_BOUND('',#103,.T.);
#66=FACE_OUTER_BOUND('',#104,.T.);
#67=FACE_OUTER_BOUND('',#105,.T.);
#68=FACE_OUTER_BOUND('',#106,.T.);
#69=FACE_OUTER_BOUND('',#107,.T.);
#70=FACE_OUTER_BOUND('',#108,.T.);
#71=FACE_OUTER_BOUND('',#109,.T.);
#72=FACE_OUTER_BOUND('',#110,.T.);
#73=FACE_OUTER_BOUND('',#111,.T.);
#74=FACE_OUTER_BOUND('',#112,.T.);
#75=FACE_OUTER_BOUND('',#113,.T.);
#76=FACE_OUTER_BOUND('',#114,.T.);
#77=FACE_OUTER_BOUND('',#115,.T.);
#78=FACE_OUTER_BOUND('',#116,.T.);
#79=FACE_OUTER_BOUND('',#117,.T.);
#80=FACE_OUTER_BOUND('',#118,.T.);
#81=FACE_OUTER_BOUND('',#119,.T.);
#82=FACE_OUTER_BOUND('',#120,.T.);
#83=FACE_OUTER_BOUND('',#121,.T.);
#84=FACE_OUTER_BOUND('',#122,.T.);
#85=FACE_OUTER_BOUND('',#123,.T.);
#86=FACE_OUTER_BOUND('',#133,.T.);
#87=FACE_OUTER_BOUND('',#135,.T.);
#88=FACE_OUTER_BOUND('',#137,.T.);
#89=EDGE_LOOP('',(#423,#424,#425,#426,#427));
#90=EDGE_LOOP('',(#428,#429,#430,#431));
#91=EDGE_LOOP('',(#432,#433,#434,#435,#436));
#92=EDGE_LOOP('',(#437,#438,#439,#440));
#93=EDGE_LOOP('',(#441,#442,#443,#444,#445));
#94=EDGE_LOOP('',(#446,#447,#448,#449));
#95=EDGE_LOOP('',(#450,#451,#452,#453,#454));
#96=EDGE_LOOP('',(#455,#456,#457,#458));
#97=EDGE_LOOP('',(#459,#460,#461,#462,#463));
#98=EDGE_LOOP('',(#464,#465,#466,#467));
#99=EDGE_LOOP('',(#468,#469,#470,#471,#472));
#100=EDGE_LOOP('',(#473,#474,#475,#476));
#101=EDGE_LOOP('',(#477,#478,#479,#480,#481));
#102=EDGE_LOOP('',(#482,#483,#484,#485));
#103=EDGE_LOOP('',(#486,#487,#488,#489,#490));
#104=EDGE_LOOP('',(#491,#492,#493,#494,#495));
#105=EDGE_LOOP('',(#496,#497,#498,#499,#500));
#106=EDGE_LOOP('',(#501,#502,#503,#504,#505));
#107=EDGE_LOOP('',(#506,#507,#508,#509,#510));
#108=EDGE_LOOP('',(#511,#512,#513,#514,#515));
#109=EDGE_LOOP('',(#516,#517,#518,#519,#520));
#110=EDGE_LOOP('',(#521,#522,#523,#524,#525));
#111=EDGE_LOOP('',(#526,#527,#528,#529));
#112=EDGE_LOOP('',(#530,#531,#532,#533,#534));
#113=EDGE_LOOP('',(#535,#536,#537,#538));
#114=EDGE_LOOP('',(#539,#540,#541,#542,#543));
#115=EDGE_LOOP('',(#544,#545,#546,#547,#548));
#116=EDGE_LOOP('',(#549,#550,#551,#552,#553,#554));
#117=EDGE_LOOP('',(#555,#556,#557,#558,#559));
#118=EDGE_LOOP('',(#560,#561,#562,#563));
#119=EDGE_LOOP('',(#564,#565,#566,#567,#568));
#120=EDGE_LOOP('',(#569,#570,#571,#572,#573));
#121=EDGE_LOOP('',(#574,#575,#576,#577));
#122=EDGE_LOOP('',(#578,#579,#580,#581,#582));
#123=EDGE_LOOP('',(#583));
#124=EDGE_LOOP('',(#584));
#125=EDGE_LOOP('',(#585));
#126=EDGE_LOOP('',(#586));
#127=EDGE_LOOP('',(#587));
#128=EDGE_LOOP('',(#588));
#129=EDGE_LOOP('',(#589));
#130=EDGE_LOOP('',(#590));
#131=EDGE_LOOP('',(#591));
#132=EDGE_LOOP('',(#592));
#133=EDGE_LOOP('',(#593));
#134=EDGE_LOOP('',(#594));
#135=EDGE_LOOP('',(#595));
#136=EDGE_LOOP('',(#596));
#137=EDGE_LOOP('',(#597));
#138=EDGE_LOOP('',(#598));
#139=EDGE_LOOP('',(#599));
#140=EDGE_LOOP('',(#600));
#141=EDGE_LOOP('',(#601));
#142=EDGE_LOOP('',(#602));
#143=EDGE_LOOP('',(#603));
#144=EDGE_LOOP('',(#604));
#145=EDGE_LOOP('',(#605));
#146=EDGE_LOOP('',(#606));
#147=LINE('',#1012,#181);
#148=LINE('',#1018,#182);
#149=LINE('',#1026,#183);
#150=LINE('',#1032,#184);
#151=LINE('',#1040,#185);
#152=LINE('',#1046,#186);
#153=LINE('',#1054,#187);
#154=LINE('',#1060,#188);
#155=LINE('',#1068,#189);
#156=LINE('',#1074,#190);
#157=LINE('',#1082,#191);
#158=LINE('',#1088,#192);
#159=LINE('',#1096,#193);
#160=LINE('',#1102,#194);
#161=LINE('',#1105,#195);
#162=LINE('',#1107,#196);
#163=LINE('',#1109,#197);
#164=LINE('',#1111,#198);
#165=LINE('',#1113,#199);
#166=LINE('',#1115,#200);
#167=LINE('',#1117,#201);
#168=LINE('',#1124,#202);
#169=LINE('',#1130,#203);
#170=LINE('',#1138,#204);
#171=LINE('',#1144,#205);
#172=LINE('',#1147,#206);
#173=LINE('',#1154,#207);
#174=LINE('',#1158,#208);
#175=LINE('',#1165,#209);
#176=LINE('',#1170,#210);
#177=LINE('',#1176,#211);
#178=LINE('',#1183,#212);
#179=LINE('',#1187,#213);
#180=LINE('',#1189,#214);
#181=VECTOR('',#785,4.50000000000004);
#182=VECTOR('',#792,4.2);
#183=VECTOR('',#801,4.49999999999999);
#184=VECTOR('',#808,4.2);
#185=VECTOR('',#817,4.5);
#186=VECTOR('',#824,4.2);
#187=VECTOR('',#833,4.49999999999999);
#188=VECTOR('',#840,4.2);
#189=VECTOR('',#849,4.49999999999998);
#190=VECTOR('',#856,4.2);
#191=VECTOR('',#865,4.49999999999999);
#192=VECTOR('',#872,4.2);
#193=VECTOR('',#881,4.50000000000001);
#194=VECTOR('',#888,4.2);
#195=VECTOR('',#893,4.2);
#196=VECTOR('',#896,4.2);
#197=VECTOR('',#899,4.2);
#198=VECTOR('',#902,4.2);
#199=VECTOR('',#905,4.2);
#200=VECTOR('',#908,4.2);
#201=VECTOR('',#911,4.2);
#202=VECTOR('',#918,56.45);
#203=VECTOR('',#925,56.75);
#204=VECTOR('',#934,4.49999999999999);
#205=VECTOR('',#941,4.2);
#206=VECTOR('',#946,4.2);
#207=VECTOR('',#953,41.275);
#208=VECTOR('',#958,41.275);
#209=VECTOR('',#967,38.6);
#210=VECTOR('',#972,32.);
#211=VECTOR('',#979,38.3816178594403);
#212=VECTOR('',#988,38.6);
#213=VECTOR('',#993,41.275);
#214=VECTOR('',#996,56.75);
#215=CIRCLE('',#682,4.2);
#216=CIRCLE('',#683,4.2);
#217=CIRCLE('',#684,4.50000000000003);
#218=CIRCLE('',#686,4.2);
#219=CIRCLE('',#687,4.49999999999999);
#220=CIRCLE('',#689,4.2);
#221=CIRCLE('',#690,4.2);
#222=CIRCLE('',#691,4.49999999999999);
#223=CIRCLE('',#693,4.2);
#224=CIRCLE('',#694,4.5);
#225=CIRCLE('',#696,4.2);
#226=CIRCLE('',#697,4.2);
#227=CIRCLE('',#698,4.5);
#228=CIRCLE('',#700,4.2);
#229=CIRCLE('',#701,4.5);
#230=CIRCLE('',#703,4.2);
#231=CIRCLE('',#704,4.2);
#232=CIRCLE('',#705,4.49999999999999);
#233=CIRCLE('',#707,4.2);
#234=CIRCLE('',#708,4.5);
#235=CIRCLE('',#710,4.2);
#236=CIRCLE('',#711,4.2);
#237=CIRCLE('',#712,4.49999999999998);
#238=CIRCLE('',#714,4.2);
#239=CIRCLE('',#715,4.50000000000002);
#240=CIRCLE('',#717,4.2);
#241=CIRCLE('',#718,4.2);
#242=CIRCLE('',#719,4.49999999999999);
#243=CIRCLE('',#721,4.2);
#244=CIRCLE('',#722,4.5);
#245=CIRCLE('',#724,4.2);
#246=CIRCLE('',#725,4.2);
#247=CIRCLE('',#726,4.50000000000001);
#248=CIRCLE('',#728,4.2);
#249=CIRCLE('',#729,4.49999999999999);
#250=CIRCLE('',#738,56.75);
#251=CIRCLE('',#739,56.75);
#252=CIRCLE('',#740,56.45);
#253=CIRCLE('',#742,56.75);
#254=CIRCLE('',#743,56.45);
#255=CIRCLE('',#745,4.2);
#256=CIRCLE('',#746,4.2);
#257=CIRCLE('',#747,4.49999999999999);
#258=CIRCLE('',#749,4.2);
#259=CIRCLE('',#750,4.5);
#260=CIRCLE('',#753,41.275);
#261=CIRCLE('',#754,41.275);
#262=CIRCLE('',#755,41.275);
#263=CIRCLE('',#757,38.6);
#264=CIRCLE('',#758,38.6);
#265=CIRCLE('',#760,38.3816178594403);
#266=CIRCLE('',#762,32.);
#267=CIRCLE('',#763,32.);
#268=CIRCLE('',#765,38.3816178594403);
#269=CIRCLE('',#766,38.6);
#270=CIRCLE('',#767,38.6);
#271=CIRCLE('',#769,41.275);
#272=CIRCLE('',#771,41.275);
#273=VERTEX_POINT('',#1007);
#274=VERTEX_POINT('',#1008);
#275=VERTEX_POINT('',#1011);
#276=VERTEX_POINT('',#1015);
#277=VERTEX_POINT('',#1017);
#278=VERTEX_POINT('',#1021);
#279=VERTEX_POINT('',#1022);
#280=VERTEX_POINT('',#1025);
#281=VERTEX_POINT('',#1029);
#282=VERTEX_POINT('',#1031);
#283=VERTEX_POINT('',#1035);
#284=VERTEX_POINT('',#1036);
#285=VERTEX_POINT('',#1039);
#286=VERTEX_POINT('',#1043);
#287=VERTEX_POINT('',#1045);
#288=VERTEX_POINT('',#1049);
#289=VERTEX_POINT('',#1050);
#290=VERTEX_POINT('',#1053);
#291=VERTEX_POINT('',#1057);
#292=VERTEX_POINT('',#1059);
#293=VERTEX_POINT('',#1063);
#294=VERTEX_POINT('',#1064);
#295=VERTEX_POINT('',#1067);
#296=VERTEX_POINT('',#1071);
#297=VERTEX_POINT('',#1073);
#298=VERTEX_POINT('',#1077);
#299=VERTEX_POINT('',#1078);
#300=VERTEX_POINT('',#1081);
#301=VERTEX_POINT('',#1085);
#302=VERTEX_POINT('',#1087);
#303=VERTEX_POINT('',#1091);
#304=VERTEX_POINT('',#1092);
#305=VERTEX_POINT('',#1095);
#306=VERTEX_POINT('',#1099);
#307=VERTEX_POINT('',#1101);
#308=VERTEX_POINT('',#1119);
#309=VERTEX_POINT('',#1120);
#310=VERTEX_POINT('',#1123);
#311=VERTEX_POINT('',#1127);
#312=VERTEX_POINT('',#1129);
#313=VERTEX_POINT('',#1133);
#314=VERTEX_POINT('',#1134);
#315=VERTEX_POINT('',#1137);
#316=VERTEX_POINT('',#1141);
#317=VERTEX_POINT('',#1143);
#318=VERTEX_POINT('',#1149);
#319=VERTEX_POINT('',#1150);
#320=VERTEX_POINT('',#1153);
#321=VERTEX_POINT('',#1157);
#322=VERTEX_POINT('',#1159);
#323=VERTEX_POINT('',#1163);
#324=VERTEX_POINT('',#1167);
#325=VERTEX_POINT('',#1169);
#326=VERTEX_POINT('',#1173);
#327=VERTEX_POINT('',#1175);
#328=VERTEX_POINT('',#1177);
#329=VERTEX_POINT('',#1181);
#330=VERTEX_POINT('',#1185);
#331=EDGE_CURVE('',#273,#274,#215,.T.);
#332=EDGE_CURVE('',#274,#273,#216,.T.);
#333=EDGE_CURVE('',#274,#275,#147,.T.);
#334=EDGE_CURVE('',#275,#275,#217,.T.);
#335=EDGE_CURVE('',#276,#276,#218,.T.);
#336=EDGE_CURVE('',#276,#277,#148,.T.);
#337=EDGE_CURVE('',#277,#277,#219,.T.);
#338=EDGE_CURVE('',#278,#279,#220,.T.);
#339=EDGE_CURVE('',#279,#278,#221,.T.);
#340=EDGE_CURVE('',#279,#280,#149,.T.);
#341=EDGE_CURVE('',#280,#280,#222,.T.);
#342=EDGE_CURVE('',#281,#281,#223,.T.);
#343=EDGE_CURVE('',#281,#282,#150,.T.);
#344=EDGE_CURVE('',#282,#282,#224,.T.);
#345=EDGE_CURVE('',#283,#284,#225,.T.);
#346=EDGE_CURVE('',#284,#283,#226,.T.);
#347=EDGE_CURVE('',#284,#285,#151,.T.);
#348=EDGE_CURVE('',#285,#285,#227,.T.);
#349=EDGE_CURVE('',#286,#286,#228,.T.);
#350=EDGE_CURVE('',#286,#287,#152,.T.);
#351=EDGE_CURVE('',#287,#287,#229,.T.);
#352=EDGE_CURVE('',#288,#289,#230,.T.);
#353=EDGE_CURVE('',#289,#288,#231,.T.);
#354=EDGE_CURVE('',#289,#290,#153,.T.);
#355=EDGE_CURVE('',#290,#290,#232,.T.);
#356=EDGE_CURVE('',#291,#291,#233,.T.);
#357=EDGE_CURVE('',#291,#292,#154,.T.);
#358=EDGE_CURVE('',#292,#292,#234,.T.);
#359=EDGE_CURVE('',#293,#294,#235,.T.);
#360=EDGE_CURVE('',#294,#293,#236,.T.);
#361=EDGE_CURVE('',#294,#295,#155,.T.);
#362=EDGE_CURVE('',#295,#295,#237,.T.);
#363=EDGE_CURVE('',#296,#296,#238,.T.);
#364=EDGE_CURVE('',#296,#297,#156,.T.);
#365=EDGE_CURVE('',#297,#297,#239,.T.);
#366=EDGE_CURVE('',#298,#299,#240,.T.);
#367=EDGE_CURVE('',#299,#298,#241,.T.);
#368=EDGE_CURVE('',#299,#300,#157,.T.);
#369=EDGE_CURVE('',#300,#300,#242,.T.);
#370=EDGE_CURVE('',#301,#301,#243,.T.);
#371=EDGE_CURVE('',#301,#302,#158,.T.);
#372=EDGE_CURVE('',#302,#302,#244,.T.);
#373=EDGE_CURVE('',#303,#304,#245,.T.);
#374=EDGE_CURVE('',#304,#303,#246,.T.);
#375=EDGE_CURVE('',#304,#305,#159,.T.);
#376=EDGE_CURVE('',#305,#305,#247,.T.);
#377=EDGE_CURVE('',#306,#306,#248,.T.);
#378=EDGE_CURVE('',#306,#307,#160,.T.);
#379=EDGE_CURVE('',#307,#307,#249,.T.);
#380=EDGE_CURVE('',#273,#276,#161,.T.);
#381=EDGE_CURVE('',#278,#281,#162,.T.);
#382=EDGE_CURVE('',#283,#286,#163,.T.);
#383=EDGE_CURVE('',#288,#291,#164,.T.);
#384=EDGE_CURVE('',#293,#296,#165,.T.);
#385=EDGE_CURVE('',#298,#301,#166,.T.);
#386=EDGE_CURVE('',#303,#306,#167,.T.);
#387=EDGE_CURVE('',#308,#309,#250,.T.);
#388=EDGE_CURVE('',#309,#308,#251,.T.);
#389=EDGE_CURVE('',#309,#310,#168,.T.);
#390=EDGE_CURVE('',#310,#310,#252,.T.);
#391=EDGE_CURVE('',#311,#311,#253,.T.);
#392=EDGE_CURVE('',#311,#312,#169,.T.);
#393=EDGE_CURVE('',#312,#312,#254,.T.);
#394=EDGE_CURVE('',#313,#314,#255,.T.);
#395=EDGE_CURVE('',#314,#313,#256,.T.);
#396=EDGE_CURVE('',#314,#315,#170,.T.);
#397=EDGE_CURVE('',#315,#315,#257,.T.);
#398=EDGE_CURVE('',#316,#316,#258,.T.);
#399=EDGE_CURVE('',#316,#317,#171,.T.);
#400=EDGE_CURVE('',#317,#317,#259,.T.);
#401=EDGE_CURVE('',#313,#316,#172,.T.);
#402=EDGE_CURVE('',#318,#319,#260,.T.);
#403=EDGE_CURVE('',#319,#318,#261,.T.);
#404=EDGE_CURVE('',#319,#320,#173,.T.);
#405=EDGE_CURVE('',#320,#320,#262,.T.);
#406=EDGE_CURVE('',#318,#321,#174,.T.);
#407=EDGE_CURVE('',#322,#321,#263,.T.);
#408=EDGE_CURVE('',#321,#322,#264,.T.);
#409=EDGE_CURVE('',#323,#323,#265,.T.);
#410=EDGE_CURVE('',#323,#322,#175,.T.);
#411=EDGE_CURVE('',#324,#324,#266,.T.);
#412=EDGE_CURVE('',#324,#325,#176,.T.);
#413=EDGE_CURVE('',#325,#325,#267,.T.);
#414=EDGE_CURVE('',#326,#326,#268,.T.);
#415=EDGE_CURVE('',#326,#327,#177,.T.);
#416=EDGE_CURVE('',#328,#327,#269,.T.);
#417=EDGE_CURVE('',#327,#328,#270,.T.);
#418=EDGE_CURVE('',#329,#329,#271,.T.);
#419=EDGE_CURVE('',#329,#328,#178,.T.);
#420=EDGE_CURVE('',#330,#330,#272,.T.);
#421=EDGE_CURVE('',#330,#329,#179,.T.);
#422=EDGE_CURVE('',#308,#311,#180,.T.);
#423=ORIENTED_EDGE('',*,*,#331,.F.);
#424=ORIENTED_EDGE('',*,*,#332,.F.);
#425=ORIENTED_EDGE('',*,*,#333,.T.);
#426=ORIENTED_EDGE('',*,*,#334,.F.);
#427=ORIENTED_EDGE('',*,*,#333,.F.);
#428=ORIENTED_EDGE('',*,*,#335,.F.);
#429=ORIENTED_EDGE('',*,*,#336,.T.);
#430=ORIENTED_EDGE('',*,*,#337,.F.);
#431=ORIENTED_EDGE('',*,*,#336,.F.);
#432=ORIENTED_EDGE('',*,*,#338,.F.);
#433=ORIENTED_EDGE('',*,*,#339,.F.);
#434=ORIENTED_EDGE('',*,*,#340,.T.);
#435=ORIENTED_EDGE('',*,*,#341,.F.);
#436=ORIENTED_EDGE('',*,*,#340,.F.);
#437=ORIENTED_EDGE('',*,*,#342,.F.);
#438=ORIENTED_EDGE('',*,*,#343,.T.);
#439=ORIENTED_EDGE('',*,*,#344,.F.);
#440=ORIENTED_EDGE('',*,*,#343,.F.);
#441=ORIENTED_EDGE('',*,*,#345,.F.);
#442=ORIENTED_EDGE('',*,*,#346,.F.);
#443=ORIENTED_EDGE('',*,*,#347,.T.);
#444=ORIENTED_EDGE('',*,*,#348,.F.);
#445=ORIENTED_EDGE('',*,*,#347,.F.);
#446=ORIENTED_EDGE('',*,*,#349,.F.);
#447=ORIENTED_EDGE('',*,*,#350,.T.);
#448=ORIENTED_EDGE('',*,*,#351,.F.);
#449=ORIENTED_EDGE('',*,*,#350,.F.);
#450=ORIENTED_EDGE('',*,*,#352,.F.);
#451=ORIENTED_EDGE('',*,*,#353,.F.);
#452=ORIENTED_EDGE('',*,*,#354,.T.);
#453=ORIENTED_EDGE('',*,*,#355,.F.);
#454=ORIENTED_EDGE('',*,*,#354,.F.);
#455=ORIENTED_EDGE('',*,*,#356,.F.);
#456=ORIENTED_EDGE('',*,*,#357,.T.);
#457=ORIENTED_EDGE('',*,*,#358,.F.);
#458=ORIENTED_EDGE('',*,*,#357,.F.);
#459=ORIENTED_EDGE('',*,*,#359,.F.);
#460=ORIENTED_EDGE('',*,*,#360,.F.);
#461=ORIENTED_EDGE('',*,*,#361,.T.);
#462=ORIENTED_EDGE('',*,*,#362,.F.);
#463=ORIENTED_EDGE('',*,*,#361,.F.);
#464=ORIENTED_EDGE('',*,*,#363,.F.);
#465=ORIENTED_EDGE('',*,*,#364,.T.);
#466=ORIENTED_EDGE('',*,*,#365,.F.);
#467=ORIENTED_EDGE('',*,*,#364,.F.);
#468=ORIENTED_EDGE('',*,*,#366,.F.);
#469=ORIENTED_EDGE('',*,*,#367,.F.);
#470=ORIENTED_EDGE('',*,*,#368,.T.);
#471=ORIENTED_EDGE('',*,*,#369,.F.);
#472=ORIENTED_EDGE('',*,*,#368,.F.);
#473=ORIENTED_EDGE('',*,*,#370,.F.);
#474=ORIENTED_EDGE('',*,*,#371,.T.);
#475=ORIENTED_EDGE('',*,*,#372,.F.);
#476=ORIENTED_EDGE('',*,*,#371,.F.);
#477=ORIENTED_EDGE('',*,*,#373,.F.);
#478=ORIENTED_EDGE('',*,*,#374,.F.);
#479=ORIENTED_EDGE('',*,*,#375,.T.);
#480=ORIENTED_EDGE('',*,*,#376,.F.);
#481=ORIENTED_EDGE('',*,*,#375,.F.);
#482=ORIENTED_EDGE('',*,*,#377,.F.);
#483=ORIENTED_EDGE('',*,*,#378,.T.);
#484=ORIENTED_EDGE('',*,*,#379,.F.);
#485=ORIENTED_EDGE('',*,*,#378,.F.);
#486=ORIENTED_EDGE('',*,*,#331,.T.);
#487=ORIENTED_EDGE('',*,*,#332,.T.);
#488=ORIENTED_EDGE('',*,*,#380,.T.);
#489=ORIENTED_EDGE('',*,*,#335,.T.);
#490=ORIENTED_EDGE('',*,*,#380,.F.);
#491=ORIENTED_EDGE('',*,*,#338,.T.);
#492=ORIENTED_EDGE('',*,*,#339,.T.);
#493=ORIENTED_EDGE('',*,*,#381,.T.);
#494=ORIENTED_EDGE('',*,*,#342,.T.);
#495=ORIENTED_EDGE('',*,*,#381,.F.);
#496=ORIENTED_EDGE('',*,*,#345,.T.);
#497=ORIENTED_EDGE('',*,*,#346,.T.);
#498=ORIENTED_EDGE('',*,*,#382,.T.);
#499=ORIENTED_EDGE('',*,*,#349,.T.);
#500=ORIENTED_EDGE('',*,*,#382,.F.);
#501=ORIENTED_EDGE('',*,*,#352,.T.);
#502=ORIENTED_EDGE('',*,*,#353,.T.);
#503=ORIENTED_EDGE('',*,*,#383,.T.);
#504=ORIENTED_EDGE('',*,*,#356,.T.);
#505=ORIENTED_EDGE('',*,*,#383,.F.);
#506=ORIENTED_EDGE('',*,*,#359,.T.);
#507=ORIENTED_EDGE('',*,*,#360,.T.);
#508=ORIENTED_EDGE('',*,*,#384,.T.);
#509=ORIENTED_EDGE('',*,*,#363,.T.);
#510=ORIENTED_EDGE('',*,*,#384,.F.);
#511=ORIENTED_EDGE('',*,*,#366,.T.);
#512=ORIENTED_EDGE('',*,*,#367,.T.);
#513=ORIENTED_EDGE('',*,*,#385,.T.);
#514=ORIENTED_EDGE('',*,*,#370,.T.);
#515=ORIENTED_EDGE('',*,*,#385,.F.);
#516=ORIENTED_EDGE('',*,*,#373,.T.);
#517=ORIENTED_EDGE('',*,*,#374,.T.);
#518=ORIENTED_EDGE('',*,*,#386,.T.);
#519=ORIENTED_EDGE('',*,*,#377,.T.);
#520=ORIENTED_EDGE('',*,*,#386,.F.);
#521=ORIENTED_EDGE('',*,*,#387,.F.);
#522=ORIENTED_EDGE('',*,*,#388,.F.);
#523=ORIENTED_EDGE('',*,*,#389,.T.);
#524=ORIENTED_EDGE('',*,*,#390,.F.);
#525=ORIENTED_EDGE('',*,*,#389,.F.);
#526=ORIENTED_EDGE('',*,*,#391,.F.);
#527=ORIENTED_EDGE('',*,*,#392,.T.);
#528=ORIENTED_EDGE('',*,*,#393,.F.);
#529=ORIENTED_EDGE('',*,*,#392,.F.);
#530=ORIENTED_EDGE('',*,*,#394,.F.);
#531=ORIENTED_EDGE('',*,*,#395,.F.);
#532=ORIENTED_EDGE('',*,*,#396,.T.);
#533=ORIENTED_EDGE('',*,*,#397,.F.);
#534=ORIENTED_EDGE('',*,*,#396,.F.);
#535=ORIENTED_EDGE('',*,*,#398,.F.);
#536=ORIENTED_EDGE('',*,*,#399,.T.);
#537=ORIENTED_EDGE('',*,*,#400,.F.);
#538=ORIENTED_EDGE('',*,*,#399,.F.);
#539=ORIENTED_EDGE('',*,*,#394,.T.);
#540=ORIENTED_EDGE('',*,*,#395,.T.);
#541=ORIENTED_EDGE('',*,*,#401,.T.);
#542=ORIENTED_EDGE('',*,*,#398,.T.);
#543=ORIENTED_EDGE('',*,*,#401,.F.);
#544=ORIENTED_EDGE('',*,*,#402,.F.);
#545=ORIENTED_EDGE('',*,*,#403,.F.);
#546=ORIENTED_EDGE('',*,*,#404,.T.);
#547=ORIENTED_EDGE('',*,*,#405,.T.);
#548=ORIENTED_EDGE('',*,*,#404,.F.);
#549=ORIENTED_EDGE('',*,*,#402,.T.);
#550=ORIENTED_EDGE('',*,*,#403,.T.);
#551=ORIENTED_EDGE('',*,*,#406,.T.);
#552=ORIENTED_EDGE('',*,*,#407,.F.);
#553=ORIENTED_EDGE('',*,*,#408,.F.);
#554=ORIENTED_EDGE('',*,*,#406,.F.);
#555=ORIENTED_EDGE('',*,*,#409,.F.);
#556=ORIENTED_EDGE('',*,*,#410,.T.);
#557=ORIENTED_EDGE('',*,*,#407,.T.);
#558=ORIENTED_EDGE('',*,*,#408,.T.);
#559=ORIENTED_EDGE('',*,*,#410,.F.);
#560=ORIENTED_EDGE('',*,*,#411,.F.);
#561=ORIENTED_EDGE('',*,*,#412,.T.);
#562=ORIENTED_EDGE('',*,*,#413,.T.);
#563=ORIENTED_EDGE('',*,*,#412,.F.);
#564=ORIENTED_EDGE('',*,*,#414,.T.);
#565=ORIENTED_EDGE('',*,*,#415,.T.);
#566=ORIENTED_EDGE('',*,*,#416,.F.);
#567=ORIENTED_EDGE('',*,*,#417,.F.);
#568=ORIENTED_EDGE('',*,*,#415,.F.);
#569=ORIENTED_EDGE('',*,*,#418,.F.);
#570=ORIENTED_EDGE('',*,*,#419,.T.);
#571=ORIENTED_EDGE('',*,*,#416,.T.);
#572=ORIENTED_EDGE('',*,*,#417,.T.);
#573=ORIENTED_EDGE('',*,*,#419,.F.);
#574=ORIENTED_EDGE('',*,*,#420,.F.);
#575=ORIENTED_EDGE('',*,*,#421,.T.);
#576=ORIENTED_EDGE('',*,*,#418,.T.);
#577=ORIENTED_EDGE('',*,*,#421,.F.);
#578=ORIENTED_EDGE('',*,*,#387,.T.);
#579=ORIENTED_EDGE('',*,*,#388,.T.);
#580=ORIENTED_EDGE('',*,*,#422,.T.);
#581=ORIENTED_EDGE('',*,*,#391,.T.);
#582=ORIENTED_EDGE('',*,*,#422,.F.);
#583=ORIENTED_EDGE('',*,*,#393,.T.);
#584=ORIENTED_EDGE('',*,*,#397,.T.);
#585=ORIENTED_EDGE('',*,*,#420,.T.);
#586=ORIENTED_EDGE('',*,*,#334,.T.);
#587=ORIENTED_EDGE('',*,*,#341,.T.);
#588=ORIENTED_EDGE('',*,*,#348,.T.);
#589=ORIENTED_EDGE('',*,*,#355,.T.);
#590=ORIENTED_EDGE('',*,*,#362,.T.);
#591=ORIENTED_EDGE('',*,*,#369,.T.);
#592=ORIENTED_EDGE('',*,*,#376,.T.);
#593=ORIENTED_EDGE('',*,*,#414,.F.);
#594=ORIENTED_EDGE('',*,*,#411,.T.);
#595=ORIENTED_EDGE('',*,*,#409,.T.);
#596=ORIENTED_EDGE('',*,*,#413,.F.);
#597=ORIENTED_EDGE('',*,*,#390,.T.);
#598=ORIENTED_EDGE('',*,*,#400,.T.);
#599=ORIENTED_EDGE('',*,*,#405,.F.);
#600=ORIENTED_EDGE('',*,*,#337,.T.);
#601=ORIENTED_EDGE('',*,*,#344,.T.);
#602=ORIENTED_EDGE('',*,*,#351,.T.);
#603=ORIENTED_EDGE('',*,*,#358,.T.);
#604=ORIENTED_EDGE('',*,*,#365,.T.);
#605=ORIENTED_EDGE('',*,*,#372,.T.);
#606=ORIENTED_EDGE('',*,*,#379,.T.);
#607=CONICAL_SURFACE('',#681,4.50000000000004,0.785398163397456);
#608=CONICAL_SURFACE('',#685,4.2,0.785398163397453);
#609=CONICAL_SURFACE('',#688,4.49999999999999,0.78539816339745);
#610=CONICAL_SURFACE('',#692,4.2,0.785398163397427);
#611=CONICAL_SURFACE('',#695,4.5,0.785398163397471);
#612=CONICAL_SURFACE('',#699,4.2,0.785398163397456);
#613=CONICAL_SURFACE('',#702,4.49999999999999,0.78539816339745);
#614=CONICAL_SURFACE('',#706,4.2,0.785398163397427);
#615=CONICAL_SURFACE('',#709,4.49999999999998,0.78539816339744);
#616=CONICAL_SURFACE('',#713,4.2,0.785398163397435);
#617=CONICAL_SURFACE('',#716,4.49999999999999,0.78539816339745);
#618=CONICAL_SURFACE('',#720,4.2,0.785398163397427);
#619=CONICAL_SURFACE('',#723,4.50000000000001,0.785398163397466);
#620=CONICAL_SURFACE('',#727,4.2,0.785398163397453);
#621=CONICAL_SURFACE('',#737,56.45,0.78539816339746);
#622=CONICAL_SURFACE('',#741,56.75,0.785398163397483);
#623=CONICAL_SURFACE('',#744,4.49999999999999,0.78539816339745);
#624=CONICAL_SURFACE('',#748,4.2,0.785398163397427);
#625=CONICAL_SURFACE('',#756,41.275,1.22173047639603);
#626=CONICAL_SURFACE('',#759,38.6,0.349065850398864);
#627=CONICAL_SURFACE('',#764,38.3816178594403,0.349065850398864);
#628=CONICAL_SURFACE('',#768,38.6,1.22173047639603);
#629=ADVANCED_FACE('',(#51),#607,.F.);
#630=ADVANCED_FACE('',(#52),#608,.F.);
#631=ADVANCED_FACE('',(#53),#609,.F.);
#632=ADVANCED_FACE('',(#54),#610,.F.);
#633=ADVANCED_FACE('',(#55),#611,.F.);
#634=ADVANCED_FACE('',(#56),#612,.F.);
#635=ADVANCED_FACE('',(#57),#613,.F.);
#636=ADVANCED_FACE('',(#58),#614,.F.);
#637=ADVANCED_FACE('',(#59),#615,.F.);
#638=ADVANCED_FACE('',(#60),#616,.F.);
#639=ADVANCED_FACE('',(#61),#617,.F.);
#640=ADVANCED_FACE('',(#62),#618,.F.);
#641=ADVANCED_FACE('',(#63),#619,.F.);
#642=ADVANCED_FACE('',(#64),#620,.F.);
#643=ADVANCED_FACE('',(#65),#39,.F.);
#644=ADVANCED_FACE('',(#66),#40,.F.);
#645=ADVANCED_FACE('',(#67),#41,.F.);
#646=ADVANCED_FACE('',(#68),#42,.F.);
#647=ADVANCED_FACE('',(#69),#43,.F.);
#648=ADVANCED_FACE('',(#70),#44,.F.);
#649=ADVANCED_FACE('',(#71),#45,.F.);
#650=ADVANCED_FACE('',(#72),#621,.T.);
#651=ADVANCED_FACE('',(#73),#622,.T.);
#652=ADVANCED_FACE('',(#74),#623,.F.);
#653=ADVANCED_FACE('',(#75),#624,.F.);
#654=ADVANCED_FACE('',(#76),#46,.F.);
#655=ADVANCED_FACE('',(#77),#47,.F.);
#656=ADVANCED_FACE('',(#78),#625,.T.);
#657=ADVANCED_FACE('',(#79),#626,.F.);
#658=ADVANCED_FACE('',(#80),#48,.F.);
#659=ADVANCED_FACE('',(#81),#627,.F.);
#660=ADVANCED_FACE('',(#82),#628,.T.);
#661=ADVANCED_FACE('',(#83),#49,.F.);
#662=ADVANCED_FACE('',(#84),#50,.T.);
#663=ADVANCED_FACE('',(#85,#15,#16,#17,#18,#19,#20,#21,#22,#23),#35,.F.);
#664=ADVANCED_FACE('',(#86,#24),#36,.F.);
#665=ADVANCED_FACE('',(#87,#25),#37,.F.);
#666=ADVANCED_FACE('',(#88,#26,#27,#28,#29,#30,#31,#32,#33,#34),#38,.F.);
#667=CLOSED_SHELL('',(#629,#630,#631,#632,#633,#634,#635,#636,#637,#638,
#639,#640,#641,#642,#643,#644,#645,#646,#647,#648,#649,#650,#651,#652,#653,
#654,#655,#656,#657,#658,#659,#660,#661,#662,#663,#664,#665,#666));
#668=DERIVED_UNIT_ELEMENT(#670,1.);
#669=DERIVED_UNIT_ELEMENT(#1199,-3.);
#670=(
MASS_UNIT()
NAMED_UNIT(*)
SI_UNIT(.KILO.,.GRAM.)
);
#671=DERIVED_UNIT((#668,#669));
#672=MEASURE_REPRESENTATION_ITEM('density measure',
POSITIVE_RATIO_MEASURE(7850.),#671);
#673=PROPERTY_DEFINITION_REPRESENTATION(#678,#675);
#674=PROPERTY_DEFINITION_REPRESENTATION(#679,#676);
#675=REPRESENTATION('material name',(#677),#1196);
#676=REPRESENTATION('density',(#672),#1196);
#677=DESCRIPTIVE_REPRESENTATION_ITEM('Steel','Steel');
#678=PROPERTY_DEFINITION('material property','material name',#1206);
#679=PROPERTY_DEFINITION('material property','density of part',#1206);
#680=AXIS2_PLACEMENT_3D('',#1005,#777,#778);
#681=AXIS2_PLACEMENT_3D('',#1006,#779,#780);
#682=AXIS2_PLACEMENT_3D('',#1009,#781,#782);
#683=AXIS2_PLACEMENT_3D('',#1010,#783,#784);
#684=AXIS2_PLACEMENT_3D('',#1013,#786,#787);
#685=AXIS2_PLACEMENT_3D('',#1014,#788,#789);
#686=AXIS2_PLACEMENT_3D('',#1016,#790,#791);
#687=AXIS2_PLACEMENT_3D('',#1019,#793,#794);
#688=AXIS2_PLACEMENT_3D('',#1020,#795,#796);
#689=AXIS2_PLACEMENT_3D('',#1023,#797,#798);
#690=AXIS2_PLACEMENT_3D('',#1024,#799,#800);
#691=AXIS2_PLACEMENT_3D('',#1027,#802,#803);
#692=AXIS2_PLACEMENT_3D('',#1028,#804,#805);
#693=AXIS2_PLACEMENT_3D('',#1030,#806,#807);
#694=AXIS2_PLACEMENT_3D('',#1033,#809,#810);
#695=AXIS2_PLACEMENT_3D('',#1034,#811,#812);
#696=AXIS2_PLACEMENT_3D('',#1037,#813,#814);
#697=AXIS2_PLACEMENT_3D('',#1038,#815,#816);
#698=AXIS2_PLACEMENT_3D('',#1041,#818,#819);
#699=AXIS2_PLACEMENT_3D('',#1042,#820,#821);
#700=AXIS2_PLACEMENT_3D('',#1044,#822,#823);
#701=AXIS2_PLACEMENT_3D('',#1047,#825,#826);
#702=AXIS2_PLACEMENT_3D('',#1048,#827,#828);
#703=AXIS2_PLACEMENT_3D('',#1051,#829,#830);
#704=AXIS2_PLACEMENT_3D('',#1052,#831,#832);
#705=AXIS2_PLACEMENT_3D('',#1055,#834,#835);
#706=AXIS2_PLACEMENT_3D('',#1056,#836,#837);
#707=AXIS2_PLACEMENT_3D('',#1058,#838,#839);
#708=AXIS2_PLACEMENT_3D('',#1061,#841,#842);
#709=AXIS2_PLACEMENT_3D('',#1062,#843,#844);
#710=AXIS2_PLACEMENT_3D('',#1065,#845,#846);
#711=AXIS2_PLACEMENT_3D('',#1066,#847,#848);
#712=AXIS2_PLACEMENT_3D('',#1069,#850,#851);
#713=AXIS2_PLACEMENT_3D('',#1070,#852,#853);
#714=AXIS2_PLACEMENT_3D('',#1072,#854,#855);
#715=AXIS2_PLACEMENT_3D('',#1075,#857,#858);
#716=AXIS2_PLACEMENT_3D('',#1076,#859,#860);
#717=AXIS2_PLACEMENT_3D('',#1079,#861,#862);
#718=AXIS2_PLACEMENT_3D('',#1080,#863,#864);
#719=AXIS2_PLACEMENT_3D('',#1083,#866,#867);
#720=AXIS2_PLACEMENT_3D('',#1084,#868,#869);
#721=AXIS2_PLACEMENT_3D('',#1086,#870,#871);
#722=AXIS2_PLACEMENT_3D('',#1089,#873,#874);
#723=AXIS2_PLACEMENT_3D('',#1090,#875,#876);
#724=AXIS2_PLACEMENT_3D('',#1093,#877,#878);
#725=AXIS2_PLACEMENT_3D('',#1094,#879,#880);
#726=AXIS2_PLACEMENT_3D('',#1097,#882,#883);
#727=AXIS2_PLACEMENT_3D('',#1098,#884,#885);
#728=AXIS2_PLACEMENT_3D('',#1100,#886,#887);
#729=AXIS2_PLACEMENT_3D('',#1103,#889,#890);
#730=AXIS2_PLACEMENT_3D('',#1104,#891,#892);
#731=AXIS2_PLACEMENT_3D('',#1106,#894,#895);
#732=AXIS2_PLACEMENT_3D('',#1108,#897,#898);
#733=AXIS2_PLACEMENT_3D('',#1110,#900,#901);
#734=AXIS2_PLACEMENT_3D('',#1112,#903,#904);
#735=AXIS2_PLACEMENT_3D('',#1114,#906,#907);
#736=AXIS2_PLACEMENT_3D('',#1116,#909,#910);
#737=AXIS2_PLACEMENT_3D('',#1118,#912,#913);
#738=AXIS2_PLACEMENT_3D('',#1121,#914,#915);
#739=AXIS2_PLACEMENT_3D('',#1122,#916,#917);
#740=AXIS2_PLACEMENT_3D('',#1125,#919,#920);
#741=AXIS2_PLACEMENT_3D('',#1126,#921,#922);
#742=AXIS2_PLACEMENT_3D('',#1128,#923,#924);
#743=AXIS2_PLACEMENT_3D('',#1131,#926,#927);
#744=AXIS2_PLACEMENT_3D('',#1132,#928,#929);
#745=AXIS2_PLACEMENT_3D('',#1135,#930,#931);
#746=AXIS2_PLACEMENT_3D('',#1136,#932,#933);
#747=AXIS2_PLACEMENT_3D('',#1139,#935,#936);
#748=AXIS2_PLACEMENT_3D('',#1140,#937,#938);
#749=AXIS2_PLACEMENT_3D('',#1142,#939,#940);
#750=AXIS2_PLACEMENT_3D('',#1145,#942,#943);
#751=AXIS2_PLACEMENT_3D('',#1146,#944,#945);
#752=AXIS2_PLACEMENT_3D('',#1148,#947,#948);
#753=AXIS2_PLACEMENT_3D('',#1151,#949,#950);
#754=AXIS2_PLACEMENT_3D('',#1152,#951,#952);
#755=AXIS2_PLACEMENT_3D('',#1155,#954,#955);
#756=AXIS2_PLACEMENT_3D('',#1156,#956,#957);
#757=AXIS2_PLACEMENT_3D('',#1160,#959,#960);
#758=AXIS2_PLACEMENT_3D('',#1161,#961,#962);
#759=AXIS2_PLACEMENT_3D('',#1162,#963,#964);
#760=AXIS2_PLACEMENT_3D('',#1164,#965,#966);
#761=AXIS2_PLACEMENT_3D('',#1166,#968,#969);
#762=AXIS2_PLACEMENT_3D('',#1168,#970,#971);
#763=AXIS2_PLACEMENT_3D('',#1171,#973,#974);
#764=AXIS2_PLACEMENT_3D('',#1172,#975,#976);
#765=AXIS2_PLACEMENT_3D('',#1174,#977,#978);
#766=AXIS2_PLACEMENT_3D('',#1178,#980,#981);
#767=AXIS2_PLACEMENT_3D('',#1179,#982,#983);
#768=AXIS2_PLACEMENT_3D('',#1180,#984,#985);
#769=AXIS2_PLACEMENT_3D('',#1182,#986,#987);
#770=AXIS2_PLACEMENT_3D('',#1184,#989,#990);
#771=AXIS2_PLACEMENT_3D('',#1186,#991,#992);
#772=AXIS2_PLACEMENT_3D('',#1188,#994,#995);
#773=AXIS2_PLACEMENT_3D('',#1190,#997,#998);
#774=AXIS2_PLACEMENT_3D('',#1191,#999,#1000);
#775=AXIS2_PLACEMENT_3D('',#1192,#1001,#1002);
#776=AXIS2_PLACEMENT_3D('',#1193,#1003,#1004);
#777=DIRECTION('axis',(0.,0.,1.));
#778=DIRECTION('refdir',(1.,0.,0.));
#779=DIRECTION('center_axis',(0.,1.,0.));
#780=DIRECTION('ref_axis',(0.,0.,1.));
#781=DIRECTION('center_axis',(0.,1.,0.));
#782=DIRECTION('ref_axis',(0.,0.,-1.));
#783=DIRECTION('center_axis',(0.,1.,0.));
#784=DIRECTION('ref_axis',(0.,0.,-1.));
#785=DIRECTION('',(-8.659560562355E-17,0.707106781186542,-0.707106781186553));
#786=DIRECTION('center_axis',(0.,-1.,0.));
#787=DIRECTION('ref_axis',(0.,0.,-1.));
#788=DIRECTION('center_axis',(0.,-1.,0.));
#789=DIRECTION('ref_axis',(0.,0.,-1.));
#790=DIRECTION('center_axis',(0.,-1.,0.));
#791=DIRECTION('ref_axis',(0.,0.,1.));
#792=DIRECTION('',(-8.65956056235497E-17,-0.707106781186544,0.707106781186551));
#793=DIRECTION('center_axis',(0.,1.,0.));
#794=DIRECTION('ref_axis',(0.,0.,1.));
#795=DIRECTION('center_axis',(0.,1.,0.));
#796=DIRECTION('ref_axis',(0.,0.,1.));
#797=DIRECTION('center_axis',(0.,1.,0.));
#798=DIRECTION('ref_axis',(0.,0.,-1.));
#799=DIRECTION('center_axis',(0.,1.,0.));
#800=DIRECTION('ref_axis',(0.,0.,-1.));
#801=DIRECTION('',(-8.65956056235495E-17,0.707106781186547,-0.707106781186548));
#802=DIRECTION('center_axis',(0.,-1.,0.));
#803=DIRECTION('ref_axis',(0.,0.,-1.));
#804=DIRECTION('center_axis',(0.,-1.,0.));
#805=DIRECTION('ref_axis',(0.,0.,-1.));
#806=DIRECTION('center_axis',(0.,-1.,0.));
#807=DIRECTION('ref_axis',(0.,0.,1.));
#808=DIRECTION('',(-8.65956056235474E-17,-0.707106781186563,0.707106781186532));
#809=DIRECTION('center_axis',(0.,1.,0.));
#810=DIRECTION('ref_axis',(0.,0.,1.));
#811=DIRECTION('center_axis',(0.,1.,0.));
#812=DIRECTION('ref_axis',(0.,0.,1.));
#813=DIRECTION('center_axis',(0.,1.,0.));
#814=DIRECTION('ref_axis',(0.,0.,-1.));
#815=DIRECTION('center_axis',(0.,1.,0.));
#816=DIRECTION('ref_axis',(0.,0.,-1.));
#817=DIRECTION('',(-8.65956056235513E-17,0.707106781186531,-0.707106781186564));
#818=DIRECTION('center_axis',(0.,-1.,0.));
#819=DIRECTION('ref_axis',(0.,0.,-1.));
#820=DIRECTION('center_axis',(0.,-1.,0.));
#821=DIRECTION('ref_axis',(0.,0.,-1.));
#822=DIRECTION('center_axis',(0.,-1.,0.));
#823=DIRECTION('ref_axis',(0.,0.,1.));
#824=DIRECTION('',(-8.659560562355E-17,-0.707106781186542,0.707106781186553));
#825=DIRECTION('center_axis',(0.,1.,0.));
#826=DIRECTION('ref_axis',(0.,0.,1.));
#827=DIRECTION('center_axis',(0.,1.,0.));
#828=DIRECTION('ref_axis',(0.,0.,1.));
#829=DIRECTION('center_axis',(0.,1.,0.));
#830=DIRECTION('ref_axis',(0.,0.,-1.));
#831=DIRECTION('center_axis',(0.,1.,0.));
#832=DIRECTION('ref_axis',(0.,0.,-1.));
#833=DIRECTION('',(-8.65956056235495E-17,0.707106781186547,-0.707106781186548));
#834=DIRECTION('center_axis',(0.,-1.,0.));
#835=DIRECTION('ref_axis',(0.,0.,-1.));
#836=DIRECTION('center_axis',(0.,-1.,0.));
#837=DIRECTION('ref_axis',(0.,0.,-1.));
#838=DIRECTION('center_axis',(0.,-1.,0.));
#839=DIRECTION('ref_axis',(0.,0.,1.));
#840=DIRECTION('',(-8.65956056235475E-17,-0.707106781186563,0.707106781186532));
#841=DIRECTION('center_axis',(0.,1.,0.));
#842=DIRECTION('ref_axis',(0.,0.,1.));
#843=DIRECTION('center_axis',(0.,1.,0.));
#844=DIRECTION('ref_axis',(0.,0.,1.));
#845=DIRECTION('center_axis',(0.,1.,0.));
#846=DIRECTION('ref_axis',(0.,0.,-1.));
#847=DIRECTION('center_axis',(0.,1.,0.));
#848=DIRECTION('ref_axis',(0.,0.,-1.));
#849=DIRECTION('',(-8.65956056235486E-17,0.707106781186554,-0.707106781186541));
#850=DIRECTION('center_axis',(0.,-1.,0.));
#851=DIRECTION('ref_axis',(0.,0.,-1.));
#852=DIRECTION('center_axis',(0.,-1.,0.));
#853=DIRECTION('ref_axis',(0.,0.,-1.));
#854=DIRECTION('center_axis',(0.,-1.,0.));
#855=DIRECTION('ref_axis',(0.,0.,1.));
#856=DIRECTION('',(-8.65956056235482E-17,-0.707106781186557,0.707106781186538));
#857=DIRECTION('center_axis',(0.,1.,0.));
#858=DIRECTION('ref_axis',(0.,0.,1.));
#859=DIRECTION('center_axis',(0.,1.,0.));
#860=DIRECTION('ref_axis',(0.,0.,1.));
#861=DIRECTION('center_axis',(0.,1.,0.));
#862=DIRECTION('ref_axis',(0.,0.,-1.));
#863=DIRECTION('center_axis',(0.,1.,0.));
#864=DIRECTION('ref_axis',(0.,0.,-1.));
#865=DIRECTION('',(-8.65956056235495E-17,0.707106781186547,-0.707106781186548));
#866=DIRECTION('center_axis',(0.,-1.,0.));
#867=DIRECTION('ref_axis',(0.,0.,-1.));
#868=DIRECTION('center_axis',(0.,-1.,0.));
#869=DIRECTION('ref_axis',(0.,0.,-1.));
#870=DIRECTION('center_axis',(0.,-1.,0.));
#871=DIRECTION('ref_axis',(0.,0.,1.));
#872=DIRECTION('',(-8.65956056235474E-17,-0.707106781186563,0.707106781186532));
#873=DIRECTION('center_axis',(0.,1.,0.));
#874=DIRECTION('ref_axis',(0.,0.,1.));
#875=DIRECTION('center_axis',(0.,1.,0.));
#876=DIRECTION('ref_axis',(0.,0.,1.));
#877=DIRECTION('center_axis',(0.,1.,0.));
#878=DIRECTION('ref_axis',(0.,0.,-1.));
#879=DIRECTION('center_axis',(0.,1.,0.));
#880=DIRECTION('ref_axis',(0.,0.,-1.));
#881=DIRECTION('',(-8.65956056235508E-17,0.707106781186535,-0.70710678118656));
#882=DIRECTION('center_axis',(0.,-1.,0.));
#883=DIRECTION('ref_axis',(0.,0.,-1.));
#884=DIRECTION('center_axis',(0.,-1.,0.));
#885=DIRECTION('ref_axis',(0.,0.,-1.));
#886=DIRECTION('center_axis',(0.,-1.,0.));
#887=DIRECTION('ref_axis',(0.,0.,1.));
#888=DIRECTION('',(-8.65956056235497E-17,-0.707106781186544,0.707106781186551));
#889=DIRECTION('center_axis',(0.,1.,0.));
#890=DIRECTION('ref_axis',(0.,0.,1.));
#891=DIRECTION('center_axis',(0.,-1.,0.));
#892=DIRECTION('ref_axis',(0.,0.,-1.));
#893=DIRECTION('',(0.,-1.,0.));
#894=DIRECTION('center_axis',(0.,-1.,0.));
#895=DIRECTION('ref_axis',(0.,0.,-1.));
#896=DIRECTION('',(0.,-1.,0.));
#897=DIRECTION('center_axis',(0.,-1.,0.));
#898=DIRECTION('ref_axis',(0.,0.,-1.));
#899=DIRECTION('',(0.,-1.,0.));
#900=DIRECTION('center_axis',(0.,-1.,0.));
#901=DIRECTION('ref_axis',(0.,0.,-1.));
#902=DIRECTION('',(0.,-1.,0.));
#903=DIRECTION('center_axis',(0.,-1.,0.));
#904=DIRECTION('ref_axis',(0.,0.,-1.));
#905=DIRECTION('',(0.,-1.,0.));
#906=DIRECTION('center_axis',(0.,-1.,0.));
#907=DIRECTION('ref_axis',(0.,0.,-1.));
#908=DIRECTION('',(0.,-1.,0.));
#909=DIRECTION('center_axis',(0.,-1.,0.));
#910=DIRECTION('ref_axis',(0.,0.,-1.));
#911=DIRECTION('',(0.,-1.,0.));
#912=DIRECTION('center_axis',(0.,1.,0.));
#913=DIRECTION('ref_axis',(0.,0.,1.));
#914=DIRECTION('center_axis',(0.,1.,0.));
#915=DIRECTION('ref_axis',(0.,0.,1.));
#916=DIRECTION('center_axis',(0.,1.,0.));
#917=DIRECTION('ref_axis',(0.,0.,1.));
#918=DIRECTION('',(8.65956056235503E-17,-0.707106781186539,0.707106781186556));
#919=DIRECTION('center_axis',(0.,-1.,0.));
#920=DIRECTION('ref_axis',(0.,0.,1.));
#921=DIRECTION('center_axis',(0.,-1.,0.));
#922=DIRECTION('ref_axis',(0.,0.,-1.));
#923=DIRECTION('center_axis',(0.,-1.,0.));
#924=DIRECTION('ref_axis',(0.,0.,-1.));
#925=DIRECTION('',(8.65956056235523E-17,0.707106781186523,-0.707106781186572));
#926=DIRECTION('center_axis',(0.,1.,0.));
#927=DIRECTION('ref_axis',(0.,0.,-1.));
#928=DIRECTION('center_axis',(0.,1.,0.));
#929=DIRECTION('ref_axis',(0.,0.,1.));
#930=DIRECTION('center_axis',(0.,1.,0.));
#931=DIRECTION('ref_axis',(0.,0.,-1.));
#932=DIRECTION('center_axis',(0.,1.,0.));
#933=DIRECTION('ref_axis',(0.,0.,-1.));
#934=DIRECTION('',(-8.65956056235495E-17,0.707106781186547,-0.707106781186548));
#935=DIRECTION('center_axis',(0.,-1.,0.));
#936=DIRECTION('ref_axis',(0.,0.,-1.));
#937=DIRECTION('center_axis',(0.,-1.,0.));
#938=DIRECTION('ref_axis',(0.,0.,-1.));
#939=DIRECTION('center_axis',(0.,-1.,0.));
#940=DIRECTION('ref_axis',(0.,0.,1.));
#941=DIRECTION('',(-8.65956056235475E-17,-0.707106781186563,0.707106781186532));
#942=DIRECTION('center_axis',(0.,1.,0.));
#943=DIRECTION('ref_axis',(0.,0.,1.));
#944=DIRECTION('center_axis',(0.,-1.,0.));
#945=DIRECTION('ref_axis',(0.,0.,-1.));
#946=DIRECTION('',(0.,-1.,0.));
#947=DIRECTION('center_axis',(0.,-1.,0.));
#948=DIRECTION('ref_axis',(0.,0.,-1.));
#949=DIRECTION('center_axis',(0.,-1.,0.));
#950=DIRECTION('ref_axis',(0.,0.,-1.));
#951=DIRECTION('center_axis',(0.,-1.,0.));
#952=DIRECTION('ref_axis',(0.,0.,-1.));
#953=DIRECTION('',(0.,-1.,0.));
#954=DIRECTION('center_axis',(0.,-1.,0.));
#955=DIRECTION('ref_axis',(0.,0.,-1.));
#956=DIRECTION('center_axis',(0.,1.,0.));
#957=DIRECTION('ref_axis',(0.,0.,1.));
#958=DIRECTION('',(1.15079156022785E-16,-0.342020143325671,0.939692620785907));
#959=DIRECTION('center_axis',(0.,-1.,0.));
#960=DIRECTION('ref_axis',(0.,0.,-1.));
#961=DIRECTION('center_axis',(0.,-1.,0.));
#962=DIRECTION('ref_axis',(0.,0.,-1.));
#963=DIRECTION('center_axis',(0.,-1.,0.));
#964=DIRECTION('ref_axis',(0.,0.,-1.));
#965=DIRECTION('center_axis',(0.,-1.,0.));
#966=DIRECTION('ref_axis',(0.,0.,-1.));
#967=DIRECTION('',(-4.18853873767696E-17,-0.939692620785909,0.342020143325666));
#968=DIRECTION('center_axis',(0.,-1.,0.));
#969=DIRECTION('ref_axis',(0.,0.,-1.));
#970=DIRECTION('center_axis',(0.,-1.,0.));
#971=DIRECTION('ref_axis',(0.,0.,-1.));
#972=DIRECTION('',(0.,-1.,0.));
#973=DIRECTION('center_axis',(0.,-1.,0.));
#974=DIRECTION('ref_axis',(0.,0.,-1.));
#975=DIRECTION('center_axis',(0.,1.,0.));
#976=DIRECTION('ref_axis',(0.,0.,1.));
#977=DIRECTION('center_axis',(0.,-1.,0.));
#978=DIRECTION('ref_axis',(0.,0.,-1.));
#979=DIRECTION('',(-4.18853873767696E-17,0.939692620785909,-0.342020143325666));
#980=DIRECTION('center_axis',(0.,-1.,0.));
#981=DIRECTION('ref_axis',(0.,0.,-1.));
#982=DIRECTION('center_axis',(0.,-1.,0.));
#983=DIRECTION('ref_axis',(0.,0.,-1.));
#984=DIRECTION('center_axis',(0.,-1.,0.));
#985=DIRECTION('ref_axis',(0.,0.,-1.));
#986=DIRECTION('center_axis',(0.,-1.,0.));
#987=DIRECTION('ref_axis',(0.,0.,-1.));
#988=DIRECTION('',(1.15079156022785E-16,0.342020143325671,-0.939692620785907));
#989=DIRECTION('center_axis',(0.,-1.,0.));
#990=DIRECTION('ref_axis',(0.,0.,-1.));
#991=DIRECTION('center_axis',(0.,-1.,0.));
#992=DIRECTION('ref_axis',(0.,0.,-1.));
#993=DIRECTION('',(0.,-1.,0.));
#994=DIRECTION('center_axis',(0.,-1.,0.));
#995=DIRECTION('ref_axis',(0.,0.,-1.));
#996=DIRECTION('',(0.,1.,0.));
#997=DIRECTION('center_axis',(0.,-1.,0.));
#998=DIRECTION('ref_axis',(0.,0.,-1.));
#999=DIRECTION('center_axis',(0.,-1.,0.));
#1000=DIRECTION('ref_axis',(0.,0.,-1.));
#1001=DIRECTION('center_axis',(0.,1.,0.));
#1002=DIRECTION('ref_axis',(0.,0.,1.));
#1003=DIRECTION('center_axis',(0.,1.,0.));
#1004=DIRECTION('ref_axis',(0.,0.,1.));
#1005=CARTESIAN_POINT('',(0.,0.,0.));
#1006=CARTESIAN_POINT('Origin',(-32.5622672736401,17.4,-32.5622672736409));
#1007=CARTESIAN_POINT('',(-32.5622672736401,17.1,-28.3622672736409));
#1008=CARTESIAN_POINT('',(-32.5622672736401,17.1,-36.7622672736409));
#1009=CARTESIAN_POINT('Origin',(-32.5622672736401,17.1,-32.5622672736409));
#1010=CARTESIAN_POINT('Origin',(-32.5622672736401,17.1,-32.5622672736409));
#1011=CARTESIAN_POINT('',(-32.5622672736401,17.4,-37.062267273641));
#1012=CARTESIAN_POINT('',(-32.5622672736401,17.4,-37.062267273641));
#1013=CARTESIAN_POINT('Origin',(-32.5622672736401,17.4,-32.5622672736409));
#1014=CARTESIAN_POINT('Origin',(-32.5622672736401,0.299999999999984,-32.5622672736409));
#1015=CARTESIAN_POINT('',(-32.5622672736401,0.299999999999984,-28.3622672736409));
#1016=CARTESIAN_POINT('Origin',(-32.5622672736401,0.299999999999984,-32.5622672736409));
#1017=CARTESIAN_POINT('',(-32.5622672736401,-3.78169717762944E-15,-28.0622672736409));
#1018=CARTESIAN_POINT('',(-32.5622672736401,0.299999999999984,-28.3622672736409));
#1019=CARTESIAN_POINT('Origin',(-32.5622672736401,-3.64290981456602E-15,
-32.5622672736409));
#1020=CARTESIAN_POINT('Origin',(-46.05,17.4,-4.87987924847335E-13));
#1021=CARTESIAN_POINT('',(-46.05,17.1,4.19999999999951));
#1022=CARTESIAN_POINT('',(-46.05,17.1,-4.20000000000049));
#1023=CARTESIAN_POINT('Origin',(-46.05,17.1,-4.87987924847335E-13));
#1024=CARTESIAN_POINT('Origin',(-46.05,17.1,-4.87987924847335E-13));
#1025=CARTESIAN_POINT('',(-46.05,17.4,-4.50000000000048));
#1026=CARTESIAN_POINT('',(-46.05,17.4,-4.50000000000048));
#1027=CARTESIAN_POINT('Origin',(-46.05,17.4,-4.87987924847335E-13));
#1028=CARTESIAN_POINT('Origin',(-46.05,0.300000000000012,-4.87987924847335E-13));
#1029=CARTESIAN_POINT('',(-46.05,0.300000000000012,4.19999999999951));
#1030=CARTESIAN_POINT('Origin',(-46.05,0.300000000000012,-4.87987924847335E-13));
#1031=CARTESIAN_POINT('',(-46.05,-3.78169717762944E-15,4.49999999999952));
#1032=CARTESIAN_POINT('',(-46.05,0.300000000000012,4.19999999999951));
#1033=CARTESIAN_POINT('Origin',(-46.05,-3.64290981456602E-15,-4.87987924847335E-13));
#1034=CARTESIAN_POINT('Origin',(-32.5622672736408,17.4,32.5622672736402));
#1035=CARTESIAN_POINT('',(-32.5622672736408,17.1,36.7622672736402));
#1036=CARTESIAN_POINT('',(-32.5622672736408,17.1,28.3622672736402));
#1037=CARTESIAN_POINT('Origin',(-32.5622672736408,17.1,32.5622672736402));
#1038=CARTESIAN_POINT('Origin',(-32.5622672736408,17.1,32.5622672736402));
#1039=CARTESIAN_POINT('',(-32.5622672736408,17.4,28.0622672736402));
#1040=CARTESIAN_POINT('',(-32.5622672736408,17.4,28.0622672736402));
#1041=CARTESIAN_POINT('Origin',(-32.5622672736408,17.4,32.5622672736402));
#1042=CARTESIAN_POINT('Origin',(-32.5622672736408,0.299999999999984,32.5622672736402));
#1043=CARTESIAN_POINT('',(-32.5622672736408,0.299999999999985,36.7622672736402));
#1044=CARTESIAN_POINT('Origin',(-32.5622672736408,0.299999999999984,32.5622672736402));
#1045=CARTESIAN_POINT('',(-32.5622672736408,-5.16947595841089E-15,37.0622672736402));
#1046=CARTESIAN_POINT('',(-32.5622672736408,0.299999999999984,36.7622672736402));
#1047=CARTESIAN_POINT('Origin',(-32.5622672736408,-3.64290981456602E-15,
32.5622672736402));
#1048=CARTESIAN_POINT('Origin',(-5.63949851007356E-15,17.4,46.05));
#1049=CARTESIAN_POINT('',(-5.12514685443167E-15,17.1,50.25));
#1050=CARTESIAN_POINT('',(-6.15385016571545E-15,17.1,41.85));
#1051=CARTESIAN_POINT('Origin',(-5.63949851007356E-15,17.1,46.05));
#1052=CARTESIAN_POINT('Origin',(-5.63949851007356E-15,17.1,46.05));
#1053=CARTESIAN_POINT('',(-6.19058956968987E-15,17.4,41.55));
#1054=CARTESIAN_POINT('',(-6.19058956968987E-15,17.4,41.55));
#1055=CARTESIAN_POINT('Origin',(-5.63949851007356E-15,17.4,46.05));
#1056=CARTESIAN_POINT('Origin',(-5.63949851007356E-15,0.300000000000012,
46.05));
#1057=CARTESIAN_POINT('',(-6.15385016571545E-15,0.300000000000013,50.25));
#1058=CARTESIAN_POINT('Origin',(-5.63949851007356E-15,0.300000000000012,
46.05));
#1059=CARTESIAN_POINT('',(-6.19058956968987E-15,-3.78169717762944E-15,50.55));
#1060=CARTESIAN_POINT('',(-6.15385016571545E-15,0.300000000000012,50.25));
#1061=CARTESIAN_POINT('Origin',(-5.63949851007356E-15,-3.64290981456602E-15,
46.05));
#1062=CARTESIAN_POINT('Origin',(32.5622672736403,17.4,32.5622672736407));
#1063=CARTESIAN_POINT('',(32.5622672736403,17.1,36.7622672736407));
#1064=CARTESIAN_POINT('',(32.5622672736403,17.1,28.3622672736407));
#1065=CARTESIAN_POINT('Origin',(32.5622672736403,17.1,32.5622672736407));
#1066=CARTESIAN_POINT('Origin',(32.5622672736403,17.1,32.5622672736407));
#1067=CARTESIAN_POINT('',(32.5622672736403,17.4,28.0622672736407));
#1068=CARTESIAN_POINT('',(32.5622672736403,17.4,28.0622672736407));
#1069=CARTESIAN_POINT('Origin',(32.5622672736403,17.4,32.5622672736407));
#1070=CARTESIAN_POINT('Origin',(32.5622672736403,0.300000000000026,32.5622672736407));
#1071=CARTESIAN_POINT('',(32.5622672736403,0.300000000000026,36.7622672736407));
#1072=CARTESIAN_POINT('Origin',(32.5622672736403,0.300000000000026,32.5622672736407));
#1073=CARTESIAN_POINT('',(32.5622672736403,-3.67761376907083E-15,37.0622672736407));
#1074=CARTESIAN_POINT('',(32.5622672736403,0.300000000000026,36.7622672736407));
#1075=CARTESIAN_POINT('Origin',(32.5622672736403,-3.64290981456602E-15,
32.5622672736407));
#1076=CARTESIAN_POINT('Origin',(46.05,17.4,1.66422307289161E-13));
#1077=CARTESIAN_POINT('',(46.05,17.1,4.20000000000017));
#1078=CARTESIAN_POINT('',(46.05,17.1,-4.19999999999983));
#1079=CARTESIAN_POINT('Origin',(46.05,17.1,1.66422307289161E-13));
#1080=CARTESIAN_POINT('Origin',(46.05,17.1,1.66422307289161E-13));
#1081=CARTESIAN_POINT('',(46.05,17.4,-4.49999999999982));
#1082=CARTESIAN_POINT('',(46.05,17.4,-4.49999999999982));
#1083=CARTESIAN_POINT('Origin',(46.05,17.4,1.66422307289161E-13));
#1084=CARTESIAN_POINT('Origin',(46.05,0.300000000000012,1.66422307289161E-13));
#1085=CARTESIAN_POINT('',(46.05,0.300000000000012,4.20000000000017));
#1086=CARTESIAN_POINT('Origin',(46.05,0.300000000000012,1.66422307289161E-13));
#1087=CARTESIAN_POINT('',(46.05,-3.78169717762944E-15,4.50000000000017));
#1088=CARTESIAN_POINT('',(46.05,0.300000000000012,4.20000000000017));
#1089=CARTESIAN_POINT('Origin',(46.05,-3.64290981456602E-15,1.66422307289161E-13));
#1090=CARTESIAN_POINT('Origin',(32.5622672736406,17.4,-32.5622672736404));
#1091=CARTESIAN_POINT('',(32.5622672736406,17.1,-28.3622672736404));
#1092=CARTESIAN_POINT('',(32.5622672736406,17.1,-36.7622672736404));
#1093=CARTESIAN_POINT('Origin',(32.5622672736406,17.1,-32.5622672736404));
#1094=CARTESIAN_POINT('Origin',(32.5622672736406,17.1,-32.5622672736404));
#1095=CARTESIAN_POINT('',(32.5622672736406,17.4,-37.0622672736405));
#1096=CARTESIAN_POINT('',(32.5622672736406,17.4,-37.0622672736405));
#1097=CARTESIAN_POINT('Origin',(32.5622672736406,17.4,-32.5622672736404));
#1098=CARTESIAN_POINT('Origin',(32.5622672736406,0.299999999999984,-32.5622672736404));
#1099=CARTESIAN_POINT('',(32.5622672736406,0.299999999999984,-28.3622672736404));
#1100=CARTESIAN_POINT('Origin',(32.5622672736406,0.299999999999984,-32.5622672736404));
#1101=CARTESIAN_POINT('',(32.5622672736406,-3.78169717762944E-15,-28.0622672736405));
#1102=CARTESIAN_POINT('',(32.5622672736406,0.299999999999984,-28.3622672736404));
#1103=CARTESIAN_POINT('Origin',(32.5622672736406,-3.64290981456602E-15,
-32.5622672736404));
#1104=CARTESIAN_POINT('Origin',(-32.5622672736401,17.4,-32.5622672736409));
#1105=CARTESIAN_POINT('',(-32.5622672736401,17.4,-28.3622672736409));
#1106=CARTESIAN_POINT('Origin',(-46.05,17.4,-4.87987924847335E-13));
#1107=CARTESIAN_POINT('',(-46.05,17.4,4.19999999999951));
#1108=CARTESIAN_POINT('Origin',(-32.5622672736408,17.4,32.5622672736402));
#1109=CARTESIAN_POINT('',(-32.5622672736408,17.4,36.7622672736402));
#1110=CARTESIAN_POINT('Origin',(-5.63949851007356E-15,17.4,46.05));
#1111=CARTESIAN_POINT('',(-6.15385016571545E-15,17.4,50.25));
#1112=CARTESIAN_POINT('Origin',(32.5622672736403,17.4,32.5622672736407));
#1113=CARTESIAN_POINT('',(32.5622672736403,17.4,36.7622672736407));
#1114=CARTESIAN_POINT('Origin',(46.05,17.4,1.66422307289161E-13));
#1115=CARTESIAN_POINT('',(46.05,17.4,4.20000000000017));
#1116=CARTESIAN_POINT('Origin',(32.5622672736406,17.4,-32.5622672736404));
#1117=CARTESIAN_POINT('',(32.5622672736406,17.4,-28.3622672736404));
#1118=CARTESIAN_POINT('Origin',(0.,-3.46944695195361E-15,0.));
#1119=CARTESIAN_POINT('',(6.94987058516123E-15,0.299999999999977,56.75));
#1120=CARTESIAN_POINT('',(-6.94987058516123E-15,0.299999999999976,-56.75));
#1121=CARTESIAN_POINT('Origin',(0.,0.299999999999977,0.));
#1122=CARTESIAN_POINT('Origin',(0.,0.299999999999977,0.));
#1123=CARTESIAN_POINT('',(-6.91313118118681E-15,-3.55617838325982E-15,-56.45));
#1124=CARTESIAN_POINT('',(-6.91313118118681E-15,-3.46944695195361E-15,-56.45));
#1125=CARTESIAN_POINT('Origin',(0.,-3.64290981456602E-15,0.));
#1126=CARTESIAN_POINT('Origin',(0.,17.1,0.));
#1127=CARTESIAN_POINT('',(-6.94987058516123E-15,17.1,56.75));
#1128=CARTESIAN_POINT('Origin',(0.,17.1,0.));
#1129=CARTESIAN_POINT('',(-6.91313118118681E-15,17.4,56.45));
#1130=CARTESIAN_POINT('',(-6.94987058516123E-15,17.1,56.75));
#1131=CARTESIAN_POINT('Origin',(0.,17.4,0.));
#1132=CARTESIAN_POINT('Origin',(5.63949851007356E-15,17.4,-46.05));
#1133=CARTESIAN_POINT('',(6.15385016571545E-15,17.1,-41.85));
#1134=CARTESIAN_POINT('',(5.12514685443167E-15,17.1,-50.25));
#1135=CARTESIAN_POINT('Origin',(5.63949851007356E-15,17.1,-46.05));
#1136=CARTESIAN_POINT('Origin',(5.63949851007356E-15,17.1,-46.05));
#1137=CARTESIAN_POINT('',(5.08840745045725E-15,17.4,-50.55));
#1138=CARTESIAN_POINT('',(5.08840745045725E-15,17.4,-50.55));
#1139=CARTESIAN_POINT('Origin',(5.63949851007356E-15,17.4,-46.05));
#1140=CARTESIAN_POINT('Origin',(5.63949851007356E-15,0.300000000000012,
-46.05));
#1141=CARTESIAN_POINT('',(5.12514685443167E-15,0.300000000000013,-41.85));
#1142=CARTESIAN_POINT('Origin',(5.63949851007356E-15,0.300000000000012,
-46.05));
#1143=CARTESIAN_POINT('',(5.08840745045725E-15,-3.78169717762944E-15,-41.55));
#1144=CARTESIAN_POINT('',(5.12514685443167E-15,0.300000000000012,-41.85));
#1145=CARTESIAN_POINT('Origin',(5.63949851007356E-15,-3.64290981456602E-15,
-46.05));
#1146=CARTESIAN_POINT('Origin',(5.63949851007356E-15,17.4,-46.05));
#1147=CARTESIAN_POINT('',(5.12514685443167E-15,17.4,-41.85));
#1148=CARTESIAN_POINT('Origin',(0.,-10.1374781146852,0.));
#1149=CARTESIAN_POINT('',(5.0547296634807E-15,1.5736203766621,-41.275));
#1150=CARTESIAN_POINT('',(-5.0547296634807E-15,1.57362037666209,41.275));
#1151=CARTESIAN_POINT('Origin',(0.,1.5736203766621,0.));
#1152=CARTESIAN_POINT('Origin',(0.,1.5736203766621,0.));
#1153=CARTESIAN_POINT('',(-5.0547296634807E-15,-4.44089209850063E-15,41.275));
#1154=CARTESIAN_POINT('',(-5.0547296634807E-15,-10.1374781146852,41.275));
#1155=CARTESIAN_POINT('Origin',(0.,-3.46944695195361E-15,0.));
#1156=CARTESIAN_POINT('Origin',(0.,1.5736203766621,0.));
#1157=CARTESIAN_POINT('',(-4.72713664470878E-15,0.599999999999994,-38.6));
#1158=CARTESIAN_POINT('',(-5.0547296634807E-15,1.5736203766621,-41.275));
#1159=CARTESIAN_POINT('',(4.72713664470878E-15,0.599999999999996,38.6));
#1160=CARTESIAN_POINT('Origin',(0.,0.599999999999996,0.));
#1161=CARTESIAN_POINT('Origin',(0.,0.599999999999996,0.));
#1162=CARTESIAN_POINT('Origin',(0.,0.599999999999996,0.));
#1163=CARTESIAN_POINT('',(-4.70039254576604E-15,1.2,38.3816178594403));
#1164=CARTESIAN_POINT('Origin',(0.,1.2,0.));
#1165=CARTESIAN_POINT('',(-4.72713664470878E-15,0.599999999999996,38.6));
#1166=CARTESIAN_POINT('Origin',(0.,-10.1374781146852,0.));
#1167=CARTESIAN_POINT('',(-3.91886975727153E-15,16.2,32.));
#1168=CARTESIAN_POINT('Origin',(0.,16.2,0.));
#1169=CARTESIAN_POINT('',(-3.91886975727153E-15,1.2,32.));
#1170=CARTESIAN_POINT('',(-3.91886975727153E-15,-10.1374781146852,32.));
#1171=CARTESIAN_POINT('Origin',(0.,1.2,0.));
#1172=CARTESIAN_POINT('Origin',(0.,16.2,0.));
#1173=CARTESIAN_POINT('',(-4.70039254576604E-15,16.2,-38.3816178594403));
#1174=CARTESIAN_POINT('Origin',(0.,16.2,0.));
#1175=CARTESIAN_POINT('',(-4.72713664470878E-15,16.8,-38.6));
#1176=CARTESIAN_POINT('',(-4.70039254576604E-15,16.2,-38.3816178594403));
#1177=CARTESIAN_POINT('',(4.89093315409474E-15,16.8,38.6));
#1178=CARTESIAN_POINT('Origin',(0.,16.8,0.));
#1179=CARTESIAN_POINT('Origin',(0.,16.8,0.));
#1180=CARTESIAN_POINT('Origin',(0.,16.8,0.));
#1181=CARTESIAN_POINT('',(-5.0547296634807E-15,15.8263796233379,41.275));
#1182=CARTESIAN_POINT('Origin',(0.,15.8263796233379,0.));
#1183=CARTESIAN_POINT('',(-4.72713664470878E-15,16.8,38.6));
#1184=CARTESIAN_POINT('Origin',(0.,-10.1374781146852,0.));
#1185=CARTESIAN_POINT('',(-5.0547296634807E-15,17.4,41.275));
#1186=CARTESIAN_POINT('Origin',(0.,17.4,0.));
#1187=CARTESIAN_POINT('',(-5.0547296634807E-15,-10.1374781146852,41.275));
#1188=CARTESIAN_POINT('Origin',(0.,-10.1374781146852,0.));
#1189=CARTESIAN_POINT('',(-6.94987058516123E-15,-10.1374781146852,56.75));
#1190=CARTESIAN_POINT('Origin',(-56.75,17.4,0.));
#1191=CARTESIAN_POINT('Origin',(-38.3816178594403,16.2,0.));
#1192=CARTESIAN_POINT('Origin',(-38.3816178594403,1.2,0.));
#1193=CARTESIAN_POINT('Origin',(-41.275,-3.64290981456602E-15,0.));
#1194=UNCERTAINTY_MEASURE_WITH_UNIT(LENGTH_MEASURE(0.01),#1198,
'DISTANCE_ACCURACY_VALUE',
'Maximum model space distance between geometric entities at asserted c
onnectivities');
#1195=UNCERTAINTY_MEASURE_WITH_UNIT(LENGTH_MEASURE(0.01),#1198,
'DISTANCE_ACCURACY_VALUE',
'Maximum model space distance between geometric entities at asserted c
onnectivities');
#1196=(
GEOMETRIC_REPRESENTATION_CONTEXT(3)
GLOBAL_UNCERTAINTY_ASSIGNED_CONTEXT((#1194))
GLOBAL_UNIT_ASSIGNED_CONTEXT((#1198,#1200,#1201))
REPRESENTATION_CONTEXT('','3D')
);
#1197=(
GEOMETRIC_REPRESENTATION_CONTEXT(3)
GLOBAL_UNCERTAINTY_ASSIGNED_CONTEXT((#1195))
GLOBAL_UNIT_ASSIGNED_CONTEXT((#1198,#1200,#1201))
REPRESENTATION_CONTEXT('','3D')
);
#1198=(
LENGTH_UNIT()
NAMED_UNIT(*)
SI_UNIT(.MILLI.,.METRE.)
);
#1199=(
LENGTH_UNIT()
NAMED_UNIT(*)
SI_UNIT($,.METRE.)
);
#1200=(
NAMED_UNIT(*)
PLANE_ANGLE_UNIT()
SI_UNIT($,.RADIAN.)
);
#1201=(
NAMED_UNIT(*)
SI_UNIT($,.STERADIAN.)
SOLID_ANGLE_UNIT()
);
#1202=SHAPE_DEFINITION_REPRESENTATION(#1203,#1204);
#1203=PRODUCT_DEFINITION_SHAPE('',$,#1206);
#1204=SHAPE_REPRESENTATION('',(#680),#1196);
#1205=PRODUCT_DEFINITION_CONTEXT('part definition',#1210,'design');
#1206=PRODUCT_DEFINITION('Hositrad_CF63-64D_DoubleSided',
'Hositrad_CF63-64D_DoubleSided v1',#1207,#1205);
#1207=PRODUCT_DEFINITION_FORMATION('',$,#1212);
#1208=PRODUCT_RELATED_PRODUCT_CATEGORY(
'Hositrad_CF63-64D_DoubleSided v1','Hositrad_CF63-64D_DoubleSided v1',(#1212));
#1209=APPLICATION_PROTOCOL_DEFINITION('international standard',
'automotive_design',2009,#1210);
#1210=APPLICATION_CONTEXT(
'Core Data for Automotive Mechanical Design Process');
#1211=PRODUCT_CONTEXT('part definition',#1210,'mechanical');
#1212=PRODUCT('Hositrad_CF63-64D_DoubleSided',
'Hositrad_CF63-64D_DoubleSided v1',$,(#1211));
#1213=PRESENTATION_STYLE_ASSIGNMENT((#1215));
#1214=PRESENTATION_STYLE_ASSIGNMENT((#1216));
#1215=SURFACE_STYLE_USAGE(.BOTH.,#1217);
#1216=SURFACE_STYLE_USAGE(.BOTH.,#1218);
#1217=SURFACE_SIDE_STYLE('',(#1219));
#1218=SURFACE_SIDE_STYLE('',(#1220));
#1219=SURFACE_STYLE_FILL_AREA(#1221);
#1220=SURFACE_STYLE_FILL_AREA(#1222);
#1221=FILL_AREA_STYLE('Steel - Satin',(#1223));
#1222=FILL_AREA_STYLE('Opaque(165,158,150)',(#1224));
#1223=FILL_AREA_STYLE_COLOUR('Steel - Satin',#1225);
#1224=FILL_AREA_STYLE_COLOUR('Opaque(165,158,150)',#1226);
#1225=COLOUR_RGB('Steel - Satin',0.627450980392157,0.627450980392157,0.627450980392157);
#1226=COLOUR_RGB('Opaque(165,158,150)',0.647058823529412,0.619607843137255,
0.588235294117647);
ENDSEC;
END-ISO-10303-21;
