ISO-10303-21;
HEADER;
/* Generated by software containing ST-Developer
 * from STEP Tools, Inc. (www.steptools.com) 
 */

FILE_DESCRIPTION(
/* description */ (''),
/* implementation_level */ '2;1');

FILE_NAME(
/* name */ 'Hositrad_KFA25-40A v1.step',
/* time_stamp */ '2024-06-25T14:37:58+02:00',
/* author */ (''),
/* organization */ (''),
/* preprocessor_version */ 'ST-DEVELOPER v20',
/* originating_system */ 'Autodesk Translation Framework v13.14.0.145',

/* authorisation */ '');

FILE_SCHEMA (('AUTOMOTIVE_DESIGN { 1 0 10303 214 3 1 1 }'));
ENDSEC;

DATA;
#10=MECHANICAL_DESIGN_GEOMETRIC_PRESENTATION_REPRESENTATION('',(#13),#467);
#11=SHAPE_REPRESENTATION_RELATIONSHIP('SRR','None',#474,#12);
#12=ADVANCED_BREP_SHAPE_REPRESENTATION('',(#14),#466);
#13=STYLED_ITEM('',(#484),#14);
#14=MANIFOLD_SOLID_BREP('Body1',#250);
#15=FACE_BOUND('',#82,.T.);
#16=FACE_BOUND('',#84,.T.);
#17=FACE_BOUND('',#86,.T.);
#18=FACE_BOUND('',#88,.T.);
#19=PLANE('',#299);
#20=PLANE('',#300);
#21=PLANE('',#301);
#22=PLANE('',#302);
#23=CONICAL_SURFACE('',#278,19.0419852594148,0.273378434649989);
#24=CONICAL_SURFACE('',#289,20.,1.30899693899575);
#25=CONICAL_SURFACE('',#294,12.7,0.273378434649989);
#26=CONICAL_SURFACE('',#296,20.,1.30899693899575);
#27=LINE('',#416,#37);
#28=LINE('',#423,#38);
#29=LINE('',#428,#39);
#30=LINE('',#434,#40);
#31=LINE('',#439,#41);
#32=LINE('',#442,#42);
#33=LINE('',#446,#43);
#34=LINE('',#453,#44);
#35=LINE('',#455,#45);
#36=LINE('',#458,#46);
#37=VECTOR('',#331,20.65);
#38=VECTOR('',#338,19.0419852594148);
#39=VECTOR('',#345,11.1);
#40=VECTOR('',#352,13.15);
#41=VECTOR('',#359,20.);
#42=VECTOR('',#362,20.);
#43=VECTOR('',#367,12.7);
#44=VECTOR('',#376,12.7);
#45=VECTOR('',#379,20.);
#46=VECTOR('',#382,27.5);
#47=CYLINDRICAL_SURFACE('',#275,20.65);
#48=CYLINDRICAL_SURFACE('',#282,11.1);
#49=CYLINDRICAL_SURFACE('',#284,13.15);
#50=CYLINDRICAL_SURFACE('',#287,20.);
#51=CYLINDRICAL_SURFACE('',#291,12.7);
#52=CYLINDRICAL_SURFACE('',#297,27.5);
#53=FACE_OUTER_BOUND('',#69,.T.);
#54=FACE_OUTER_BOUND('',#70,.T.);
#55=FACE_OUTER_BOUND('',#71,.T.);
#56=FACE_OUTER_BOUND('',#72,.T.);
#57=FACE_OUTER_BOUND('',#73,.T.);
#58=FACE_OUTER_BOUND('',#74,.T.);
#59=FACE_OUTER_BOUND('',#75,.T.);
#60=FACE_OUTER_BOUND('',#76,.T.);
#61=FACE_OUTER_BOUND('',#77,.T.);
#62=FACE_OUTER_BOUND('',#78,.T.);
#63=FACE_OUTER_BOUND('',#79,.T.);
#64=FACE_OUTER_BOUND('',#80,.T.);
#65=FACE_OUTER_BOUND('',#81,.T.);
#66=FACE_OUTER_BOUND('',#83,.T.);
#67=FACE_OUTER_BOUND('',#85,.T.);
#68=FACE_OUTER_BOUND('',#87,.T.);
#69=EDGE_LOOP('',(#166,#167,#168,#169,#170));
#70=EDGE_LOOP('',(#171,#172,#173,#174,#175,#176));
#71=EDGE_LOOP('',(#177,#178,#179,#180));
#72=EDGE_LOOP('',(#181,#182,#183,#184,#185));
#73=EDGE_LOOP('',(#186,#187,#188,#189,#190));
#74=EDGE_LOOP('',(#191,#192,#193,#194));
#75=EDGE_LOOP('',(#195,#196,#197,#198,#199));
#76=EDGE_LOOP('',(#200,#201,#202,#203,#204));
#77=EDGE_LOOP('',(#205,#206,#207,#208,#209));
#78=EDGE_LOOP('',(#210,#211,#212,#213,#214));
#79=EDGE_LOOP('',(#215,#216,#217,#218));
#80=EDGE_LOOP('',(#219,#220,#221,#222,#223));
#81=EDGE_LOOP('',(#224));
#82=EDGE_LOOP('',(#225));
#83=EDGE_LOOP('',(#226));
#84=EDGE_LOOP('',(#227));
#85=EDGE_LOOP('',(#228));
#86=EDGE_LOOP('',(#229));
#87=EDGE_LOOP('',(#230));
#88=EDGE_LOOP('',(#231));
#89=CIRCLE('',#265,27.5);
#90=CIRCLE('',#266,27.5);
#91=CIRCLE('',#267,1.5);
#92=CIRCLE('',#268,26.3882285676538);
#93=CIRCLE('',#270,18.8882285676538);
#94=CIRCLE('',#271,18.8882285676538);
#95=CIRCLE('',#272,1.5);
#96=CIRCLE('',#273,20.);
#97=CIRCLE('',#274,20.);
#98=CIRCLE('',#276,20.65);
#99=CIRCLE('',#277,20.65);
#100=CIRCLE('',#279,11.1);
#101=CIRCLE('',#280,19.0419852594148);
#102=CIRCLE('',#281,11.1);
#103=CIRCLE('',#283,11.1);
#104=CIRCLE('',#285,13.15);
#105=CIRCLE('',#286,13.15);
#106=CIRCLE('',#288,20.);
#107=CIRCLE('',#290,12.7);
#108=CIRCLE('',#292,12.7);
#109=CIRCLE('',#293,12.7);
#110=CIRCLE('',#295,20.);
#111=CIRCLE('',#298,27.5);
#112=VERTEX_POINT('',#395);
#113=VERTEX_POINT('',#396);
#114=VERTEX_POINT('',#399);
#115=VERTEX_POINT('',#403);
#116=VERTEX_POINT('',#404);
#117=VERTEX_POINT('',#407);
#118=VERTEX_POINT('',#409);
#119=VERTEX_POINT('',#413);
#120=VERTEX_POINT('',#415);
#121=VERTEX_POINT('',#419);
#122=VERTEX_POINT('',#420);
#123=VERTEX_POINT('',#422);
#124=VERTEX_POINT('',#427);
#125=VERTEX_POINT('',#431);
#126=VERTEX_POINT('',#433);
#127=VERTEX_POINT('',#437);
#128=VERTEX_POINT('',#441);
#129=VERTEX_POINT('',#445);
#130=VERTEX_POINT('',#447);
#131=VERTEX_POINT('',#451);
#132=VERTEX_POINT('',#457);
#133=EDGE_CURVE('',#112,#113,#89,.T.);
#134=EDGE_CURVE('',#113,#112,#90,.T.);
#135=EDGE_CURVE('',#113,#114,#91,.T.);
#136=EDGE_CURVE('',#114,#114,#92,.T.);
#137=EDGE_CURVE('',#115,#116,#93,.T.);
#138=EDGE_CURVE('',#116,#115,#94,.T.);
#139=EDGE_CURVE('',#116,#117,#95,.T.);
#140=EDGE_CURVE('',#118,#117,#96,.T.);
#141=EDGE_CURVE('',#117,#118,#97,.T.);
#142=EDGE_CURVE('',#119,#119,#98,.T.);
#143=EDGE_CURVE('',#119,#120,#27,.T.);
#144=EDGE_CURVE('',#120,#120,#99,.T.);
#145=EDGE_CURVE('',#121,#122,#100,.T.);
#146=EDGE_CURVE('',#122,#123,#28,.T.);
#147=EDGE_CURVE('',#123,#123,#101,.T.);
#148=EDGE_CURVE('',#122,#121,#102,.T.);
#149=EDGE_CURVE('',#121,#124,#29,.T.);
#150=EDGE_CURVE('',#124,#124,#103,.T.);
#151=EDGE_CURVE('',#125,#125,#104,.T.);
#152=EDGE_CURVE('',#125,#126,#30,.T.);
#153=EDGE_CURVE('',#126,#126,#105,.T.);
#154=EDGE_CURVE('',#127,#127,#106,.T.);
#155=EDGE_CURVE('',#127,#118,#31,.T.);
#156=EDGE_CURVE('',#115,#128,#32,.T.);
#157=EDGE_CURVE('',#128,#128,#107,.T.);
#158=EDGE_CURVE('',#128,#129,#33,.T.);
#159=EDGE_CURVE('',#129,#130,#108,.T.);
#160=EDGE_CURVE('',#130,#129,#109,.T.);
#161=EDGE_CURVE('',#131,#131,#110,.T.);
#162=EDGE_CURVE('',#131,#130,#34,.T.);
#163=EDGE_CURVE('',#114,#131,#35,.T.);
#164=EDGE_CURVE('',#112,#132,#36,.T.);
#165=EDGE_CURVE('',#132,#132,#111,.T.);
#166=ORIENTED_EDGE('',*,*,#133,.F.);
#167=ORIENTED_EDGE('',*,*,#134,.F.);
#168=ORIENTED_EDGE('',*,*,#135,.T.);
#169=ORIENTED_EDGE('',*,*,#136,.F.);
#170=ORIENTED_EDGE('',*,*,#135,.F.);
#171=ORIENTED_EDGE('',*,*,#137,.F.);
#172=ORIENTED_EDGE('',*,*,#138,.F.);
#173=ORIENTED_EDGE('',*,*,#139,.T.);
#174=ORIENTED_EDGE('',*,*,#140,.F.);
#175=ORIENTED_EDGE('',*,*,#141,.F.);
#176=ORIENTED_EDGE('',*,*,#139,.F.);
#177=ORIENTED_EDGE('',*,*,#142,.F.);
#178=ORIENTED_EDGE('',*,*,#143,.T.);
#179=ORIENTED_EDGE('',*,*,#144,.T.);
#180=ORIENTED_EDGE('',*,*,#143,.F.);
#181=ORIENTED_EDGE('',*,*,#145,.T.);
#182=ORIENTED_EDGE('',*,*,#146,.T.);
#183=ORIENTED_EDGE('',*,*,#147,.F.);
#184=ORIENTED_EDGE('',*,*,#146,.F.);
#185=ORIENTED_EDGE('',*,*,#148,.T.);
#186=ORIENTED_EDGE('',*,*,#145,.F.);
#187=ORIENTED_EDGE('',*,*,#149,.T.);
#188=ORIENTED_EDGE('',*,*,#150,.T.);
#189=ORIENTED_EDGE('',*,*,#149,.F.);
#190=ORIENTED_EDGE('',*,*,#148,.F.);
#191=ORIENTED_EDGE('',*,*,#151,.F.);
#192=ORIENTED_EDGE('',*,*,#152,.T.);
#193=ORIENTED_EDGE('',*,*,#153,.T.);
#194=ORIENTED_EDGE('',*,*,#152,.F.);
#195=ORIENTED_EDGE('',*,*,#154,.F.);
#196=ORIENTED_EDGE('',*,*,#155,.T.);
#197=ORIENTED_EDGE('',*,*,#140,.T.);
#198=ORIENTED_EDGE('',*,*,#141,.T.);
#199=ORIENTED_EDGE('',*,*,#155,.F.);
#200=ORIENTED_EDGE('',*,*,#137,.T.);
#201=ORIENTED_EDGE('',*,*,#138,.T.);
#202=ORIENTED_EDGE('',*,*,#156,.T.);
#203=ORIENTED_EDGE('',*,*,#157,.T.);
#204=ORIENTED_EDGE('',*,*,#156,.F.);
#205=ORIENTED_EDGE('',*,*,#157,.F.);
#206=ORIENTED_EDGE('',*,*,#158,.T.);
#207=ORIENTED_EDGE('',*,*,#159,.T.);
#208=ORIENTED_EDGE('',*,*,#160,.T.);
#209=ORIENTED_EDGE('',*,*,#158,.F.);
#210=ORIENTED_EDGE('',*,*,#161,.T.);
#211=ORIENTED_EDGE('',*,*,#162,.T.);
#212=ORIENTED_EDGE('',*,*,#159,.F.);
#213=ORIENTED_EDGE('',*,*,#160,.F.);
#214=ORIENTED_EDGE('',*,*,#162,.F.);
#215=ORIENTED_EDGE('',*,*,#136,.T.);
#216=ORIENTED_EDGE('',*,*,#163,.T.);
#217=ORIENTED_EDGE('',*,*,#161,.F.);
#218=ORIENTED_EDGE('',*,*,#163,.F.);
#219=ORIENTED_EDGE('',*,*,#133,.T.);
#220=ORIENTED_EDGE('',*,*,#134,.T.);
#221=ORIENTED_EDGE('',*,*,#164,.T.);
#222=ORIENTED_EDGE('',*,*,#165,.T.);
#223=ORIENTED_EDGE('',*,*,#164,.F.);
#224=ORIENTED_EDGE('',*,*,#154,.T.);
#225=ORIENTED_EDGE('',*,*,#153,.F.);
#226=ORIENTED_EDGE('',*,*,#151,.T.);
#227=ORIENTED_EDGE('',*,*,#150,.F.);
#228=ORIENTED_EDGE('',*,*,#144,.F.);
#229=ORIENTED_EDGE('',*,*,#147,.T.);
#230=ORIENTED_EDGE('',*,*,#165,.F.);
#231=ORIENTED_EDGE('',*,*,#142,.T.);
#232=TOROIDAL_SURFACE('',#264,26.,1.5);
#233=TOROIDAL_SURFACE('',#269,18.5,1.5);
#234=ADVANCED_FACE('',(#53),#232,.T.);
#235=ADVANCED_FACE('',(#54),#233,.T.);
#236=ADVANCED_FACE('',(#55),#47,.F.);
#237=ADVANCED_FACE('',(#56),#23,.F.);
#238=ADVANCED_FACE('',(#57),#48,.F.);
#239=ADVANCED_FACE('',(#58),#49,.F.);
#240=ADVANCED_FACE('',(#59),#50,.T.);
#241=ADVANCED_FACE('',(#60),#24,.T.);
#242=ADVANCED_FACE('',(#61),#51,.T.);
#243=ADVANCED_FACE('',(#62),#25,.T.);
#244=ADVANCED_FACE('',(#63),#26,.T.);
#245=ADVANCED_FACE('',(#64),#52,.T.);
#246=ADVANCED_FACE('',(#65,#15),#19,.T.);
#247=ADVANCED_FACE('',(#66,#16),#20,.T.);
#248=ADVANCED_FACE('',(#67,#17),#21,.T.);
#249=ADVANCED_FACE('',(#68,#18),#22,.T.);
#250=CLOSED_SHELL('',(#234,#235,#236,#237,#238,#239,#240,#241,#242,#243,
#244,#245,#246,#247,#248,#249));
#251=DERIVED_UNIT_ELEMENT(#253,1.);
#252=DERIVED_UNIT_ELEMENT(#469,-3.);
#253=(
MASS_UNIT()
NAMED_UNIT(*)
SI_UNIT(.KILO.,.GRAM.)
);
#254=DERIVED_UNIT((#251,#252));
#255=MEASURE_REPRESENTATION_ITEM('density measure',
POSITIVE_RATIO_MEASURE(7850.),#254);
#256=PROPERTY_DEFINITION_REPRESENTATION(#261,#258);
#257=PROPERTY_DEFINITION_REPRESENTATION(#262,#259);
#258=REPRESENTATION('material name',(#260),#466);
#259=REPRESENTATION('density',(#255),#466);
#260=DESCRIPTIVE_REPRESENTATION_ITEM('Steel','Steel');
#261=PROPERTY_DEFINITION('material property','material name',#476);
#262=PROPERTY_DEFINITION('material property','density of part',#476);
#263=AXIS2_PLACEMENT_3D('',#393,#303,#304);
#264=AXIS2_PLACEMENT_3D('',#394,#305,#306);
#265=AXIS2_PLACEMENT_3D('',#397,#307,#308);
#266=AXIS2_PLACEMENT_3D('',#398,#309,#310);
#267=AXIS2_PLACEMENT_3D('',#400,#311,#312);
#268=AXIS2_PLACEMENT_3D('',#401,#313,#314);
#269=AXIS2_PLACEMENT_3D('',#402,#315,#316);
#270=AXIS2_PLACEMENT_3D('',#405,#317,#318);
#271=AXIS2_PLACEMENT_3D('',#406,#319,#320);
#272=AXIS2_PLACEMENT_3D('',#408,#321,#322);
#273=AXIS2_PLACEMENT_3D('',#410,#323,#324);
#274=AXIS2_PLACEMENT_3D('',#411,#325,#326);
#275=AXIS2_PLACEMENT_3D('',#412,#327,#328);
#276=AXIS2_PLACEMENT_3D('',#414,#329,#330);
#277=AXIS2_PLACEMENT_3D('',#417,#332,#333);
#278=AXIS2_PLACEMENT_3D('',#418,#334,#335);
#279=AXIS2_PLACEMENT_3D('',#421,#336,#337);
#280=AXIS2_PLACEMENT_3D('',#424,#339,#340);
#281=AXIS2_PLACEMENT_3D('',#425,#341,#342);
#282=AXIS2_PLACEMENT_3D('',#426,#343,#344);
#283=AXIS2_PLACEMENT_3D('',#429,#346,#347);
#284=AXIS2_PLACEMENT_3D('',#430,#348,#349);
#285=AXIS2_PLACEMENT_3D('',#432,#350,#351);
#286=AXIS2_PLACEMENT_3D('',#435,#353,#354);
#287=AXIS2_PLACEMENT_3D('',#436,#355,#356);
#288=AXIS2_PLACEMENT_3D('',#438,#357,#358);
#289=AXIS2_PLACEMENT_3D('',#440,#360,#361);
#290=AXIS2_PLACEMENT_3D('',#443,#363,#364);
#291=AXIS2_PLACEMENT_3D('',#444,#365,#366);
#292=AXIS2_PLACEMENT_3D('',#448,#368,#369);
#293=AXIS2_PLACEMENT_3D('',#449,#370,#371);
#294=AXIS2_PLACEMENT_3D('',#450,#372,#373);
#295=AXIS2_PLACEMENT_3D('',#452,#374,#375);
#296=AXIS2_PLACEMENT_3D('',#454,#377,#378);
#297=AXIS2_PLACEMENT_3D('',#456,#380,#381);
#298=AXIS2_PLACEMENT_3D('',#459,#383,#384);
#299=AXIS2_PLACEMENT_3D('',#460,#385,#386);
#300=AXIS2_PLACEMENT_3D('',#461,#387,#388);
#301=AXIS2_PLACEMENT_3D('',#462,#389,#390);
#302=AXIS2_PLACEMENT_3D('',#463,#391,#392);
#303=DIRECTION('axis',(0.,0.,1.));
#304=DIRECTION('refdir',(1.,0.,0.));
#305=DIRECTION('center_axis',(0.,-1.,0.));
#306=DIRECTION('ref_axis',(0.,0.,-1.));
#307=DIRECTION('center_axis',(0.,-1.,0.));
#308=DIRECTION('ref_axis',(0.,0.,-1.));
#309=DIRECTION('center_axis',(0.,-1.,0.));
#310=DIRECTION('ref_axis',(0.,0.,-1.));
#311=DIRECTION('center_axis',(-1.,0.,-1.22464679914735E-16));
#312=DIRECTION('ref_axis',(-1.22464679914735E-16,0.,1.));
#313=DIRECTION('center_axis',(0.,1.,0.));
#314=DIRECTION('ref_axis',(0.,0.,1.));
#315=DIRECTION('center_axis',(0.,-1.,0.));
#316=DIRECTION('ref_axis',(0.,0.,-1.));
#317=DIRECTION('center_axis',(0.,-1.,0.));
#318=DIRECTION('ref_axis',(0.,0.,-1.));
#319=DIRECTION('center_axis',(0.,-1.,0.));
#320=DIRECTION('ref_axis',(0.,0.,-1.));
#321=DIRECTION('center_axis',(-1.,0.,-1.22464679914735E-16));
#322=DIRECTION('ref_axis',(-1.22464679914735E-16,0.,1.));
#323=DIRECTION('center_axis',(0.,1.,0.));
#324=DIRECTION('ref_axis',(0.,0.,-1.));
#325=DIRECTION('center_axis',(0.,1.,0.));
#326=DIRECTION('ref_axis',(0.,0.,-1.));
#327=DIRECTION('center_axis',(0.,1.,0.));
#328=DIRECTION('ref_axis',(0.,0.,1.));
#329=DIRECTION('center_axis',(0.,1.,0.));
#330=DIRECTION('ref_axis',(0.,0.,1.));
#331=DIRECTION('',(0.,1.,0.));
#332=DIRECTION('center_axis',(0.,1.,0.));
#333=DIRECTION('ref_axis',(0.,0.,1.));
#334=DIRECTION('center_axis',(0.,-1.,0.));
#335=DIRECTION('ref_axis',(0.,0.,-1.));
#336=DIRECTION('center_axis',(0.,1.,0.));
#337=DIRECTION('ref_axis',(0.,0.,1.));
#338=DIRECTION('',(-3.30637423695618E-17,-0.962864263203306,0.269985945274851));
#339=DIRECTION('center_axis',(0.,1.,0.));
#340=DIRECTION('ref_axis',(0.,0.,1.));
#341=DIRECTION('center_axis',(0.,1.,0.));
#342=DIRECTION('ref_axis',(0.,0.,1.));
#343=DIRECTION('center_axis',(0.,1.,0.));
#344=DIRECTION('ref_axis',(0.,0.,1.));
#345=DIRECTION('',(0.,1.,0.));
#346=DIRECTION('center_axis',(0.,1.,0.));
#347=DIRECTION('ref_axis',(0.,0.,1.));
#348=DIRECTION('center_axis',(0.,1.,0.));
#349=DIRECTION('ref_axis',(0.,0.,1.));
#350=DIRECTION('center_axis',(0.,1.,0.));
#351=DIRECTION('ref_axis',(0.,0.,1.));
#352=DIRECTION('',(0.,1.,0.));
#353=DIRECTION('center_axis',(0.,1.,0.));
#354=DIRECTION('ref_axis',(0.,0.,1.));
#355=DIRECTION('center_axis',(0.,1.,0.));
#356=DIRECTION('ref_axis',(0.,0.,1.));
#357=DIRECTION('center_axis',(0.,1.,0.));
#358=DIRECTION('ref_axis',(0.,0.,1.));
#359=DIRECTION('',(0.,-1.,0.));
#360=DIRECTION('center_axis',(0.,1.,0.));
#361=DIRECTION('ref_axis',(0.,0.,1.));
#362=DIRECTION('',(1.18291797137867E-16,-0.258819045102514,0.96592582628907));
#363=DIRECTION('center_axis',(0.,1.,0.));
#364=DIRECTION('ref_axis',(0.,0.,1.));
#365=DIRECTION('center_axis',(0.,1.,0.));
#366=DIRECTION('ref_axis',(0.,0.,1.));
#367=DIRECTION('',(0.,-1.,0.));
#368=DIRECTION('center_axis',(0.,1.,0.));
#369=DIRECTION('ref_axis',(0.,0.,1.));
#370=DIRECTION('center_axis',(0.,1.,0.));
#371=DIRECTION('ref_axis',(0.,0.,1.));
#372=DIRECTION('center_axis',(0.,-1.,0.));
#373=DIRECTION('ref_axis',(0.,0.,-1.));
#374=DIRECTION('center_axis',(0.,1.,0.));
#375=DIRECTION('ref_axis',(0.,0.,1.));
#376=DIRECTION('',(3.30637423695618E-17,0.962864263203306,-0.269985945274851));
#377=DIRECTION('center_axis',(0.,-1.,0.));
#378=DIRECTION('ref_axis',(0.,0.,-1.));
#379=DIRECTION('',(1.18291797137867E-16,0.258819045102514,-0.96592582628907));
#380=DIRECTION('center_axis',(0.,1.,0.));
#381=DIRECTION('ref_axis',(0.,0.,1.));
#382=DIRECTION('',(0.,-1.,0.));
#383=DIRECTION('center_axis',(0.,1.,0.));
#384=DIRECTION('ref_axis',(0.,0.,1.));
#385=DIRECTION('center_axis',(0.,1.,0.));
#386=DIRECTION('ref_axis',(0.,0.,1.));
#387=DIRECTION('center_axis',(0.,1.,0.));
#388=DIRECTION('ref_axis',(0.,0.,1.));
#389=DIRECTION('center_axis',(0.,-1.,0.));
#390=DIRECTION('ref_axis',(0.,0.,-1.));
#391=DIRECTION('center_axis',(0.,-1.,0.));
#392=DIRECTION('ref_axis',(0.,0.,-1.));
#393=CARTESIAN_POINT('',(0.,0.,0.));
#394=CARTESIAN_POINT('Origin',(0.,1.84900951803155,0.));
#395=CARTESIAN_POINT('',(3.36777869765522E-15,1.84900951803155,-27.5));
#396=CARTESIAN_POINT('',(-3.36777869765522E-15,1.84900951803155,27.5));
#397=CARTESIAN_POINT('Origin',(0.,1.84900951803155,0.));
#398=CARTESIAN_POINT('Origin',(0.,1.84900951803155,0.));
#399=CARTESIAN_POINT('',(-3.23162596505459E-15,3.29789825746515,26.3882285676538));
#400=CARTESIAN_POINT('Origin',(-3.18408167778312E-15,1.84900951803155,26.));
#401=CARTESIAN_POINT('Origin',(0.,3.29789825746515,0.));
#402=CARTESIAN_POINT('Origin',(0.,38.1509904819684,0.));
#403=CARTESIAN_POINT('',(2.31314086569408E-15,36.7021017425349,-18.8882285676538));
#404=CARTESIAN_POINT('',(-2.31314086569408E-15,36.7021017425349,18.8882285676538));
#405=CARTESIAN_POINT('Origin',(0.,36.7021017425349,0.));
#406=CARTESIAN_POINT('Origin',(0.,36.7021017425349,0.));
#407=CARTESIAN_POINT('',(-2.44929359829471E-15,38.1509904819684,20.));
#408=CARTESIAN_POINT('Origin',(-2.2655965784226E-15,38.1509904819684,18.5));
#409=CARTESIAN_POINT('',(2.44929359829471E-15,38.1509904819684,-20.));
#410=CARTESIAN_POINT('Origin',(0.,38.1509904819684,0.));
#411=CARTESIAN_POINT('Origin',(0.,38.1509904819684,0.));
#412=CARTESIAN_POINT('Origin',(0.,42.3025701776669,0.));
#413=CARTESIAN_POINT('',(-2.52889564023928E-15,0.,-20.65));
#414=CARTESIAN_POINT('Origin',(0.,0.,0.));
#415=CARTESIAN_POINT('',(-2.52889564023928E-15,2.5,-20.65));
#416=CARTESIAN_POINT('',(-2.52889564023928E-15,42.3025701776669,-20.65));
#417=CARTESIAN_POINT('Origin',(0.,2.5,0.));
#418=CARTESIAN_POINT('Origin',(0.,2.5,0.));
#419=CARTESIAN_POINT('',(1.35935794705356E-15,30.8238958138844,-11.1));
#420=CARTESIAN_POINT('',(-1.35935794705356E-15,30.8238958138844,11.1));
#421=CARTESIAN_POINT('Origin',(0.,30.8238958138844,0.));
#422=CARTESIAN_POINT('',(-2.33197062973534E-15,2.5,19.0419852594148));
#423=CARTESIAN_POINT('',(-2.33197062973534E-15,2.5,19.0419852594148));
#424=CARTESIAN_POINT('Origin',(0.,2.5,0.));
#425=CARTESIAN_POINT('Origin',(0.,30.8238958138844,0.));
#426=CARTESIAN_POINT('Origin',(0.,42.3025701776669,0.));
#427=CARTESIAN_POINT('',(-1.35935794705356E-15,37.5,-11.1));
#428=CARTESIAN_POINT('',(-1.35935794705356E-15,42.3025701776669,-11.1));
#429=CARTESIAN_POINT('Origin',(0.,37.5,0.));
#430=CARTESIAN_POINT('Origin',(0.,42.3025701776669,0.));
#431=CARTESIAN_POINT('',(-1.61041054087877E-15,37.5,-13.15));
#432=CARTESIAN_POINT('Origin',(0.,37.5,0.));
#433=CARTESIAN_POINT('',(-1.61041054087877E-15,40.,-13.15));
#434=CARTESIAN_POINT('',(-1.61041054087877E-15,42.3025701776669,-13.15));
#435=CARTESIAN_POINT('Origin',(0.,40.,0.));
#436=CARTESIAN_POINT('Origin',(0.,42.3025701776669,0.));
#437=CARTESIAN_POINT('',(-2.44929359829471E-15,40.,-20.));
#438=CARTESIAN_POINT('Origin',(0.,40.,0.));
#439=CARTESIAN_POINT('',(-2.44929359829471E-15,42.3025701776669,-20.));
#440=CARTESIAN_POINT('Origin',(0.,37.,0.));
#441=CARTESIAN_POINT('',(-1.55530143491714E-15,35.0439708952529,-12.7));
#442=CARTESIAN_POINT('',(-2.44929359829471E-15,37.,-20.));
#443=CARTESIAN_POINT('Origin',(0.,35.0439708952529,0.));
#444=CARTESIAN_POINT('Origin',(0.,42.3025701776669,0.));
#445=CARTESIAN_POINT('',(-1.55530143491714E-15,31.0439708952529,-12.7));
#446=CARTESIAN_POINT('',(-1.55530143491714E-15,42.3025701776669,-12.7));
#447=CARTESIAN_POINT('',(2.00229751660592E-15,31.0439708952529,12.7));
#448=CARTESIAN_POINT('Origin',(0.,31.0439708952529,0.));
#449=CARTESIAN_POINT('Origin',(0.,31.0439708952529,0.));
#450=CARTESIAN_POINT('Origin',(0.,31.0439708952529,0.));
#451=CARTESIAN_POINT('',(-2.44929359829471E-15,5.00961894323336,20.));
#452=CARTESIAN_POINT('Origin',(0.,5.00961894323336,0.));
#453=CARTESIAN_POINT('',(-1.55530143491714E-15,31.0439708952529,12.7));
#454=CARTESIAN_POINT('Origin',(0.,5.00961894323336,0.));
#455=CARTESIAN_POINT('',(-2.44929359829471E-15,5.00961894323336,20.));
#456=CARTESIAN_POINT('Origin',(0.,42.3025701776669,0.));
#457=CARTESIAN_POINT('',(-3.36777869765522E-15,0.,-27.5));
#458=CARTESIAN_POINT('',(-3.36777869765522E-15,42.3025701776669,-27.5));
#459=CARTESIAN_POINT('Origin',(0.,0.,0.));
#460=CARTESIAN_POINT('Origin',(-20.,40.,0.));
#461=CARTESIAN_POINT('Origin',(-13.15,37.5,0.));
#462=CARTESIAN_POINT('Origin',(-20.65,2.5,0.));
#463=CARTESIAN_POINT('Origin',(-20.65,-1.92157430517873E-15,0.));
#464=UNCERTAINTY_MEASURE_WITH_UNIT(LENGTH_MEASURE(0.01),#468,
'DISTANCE_ACCURACY_VALUE',
'Maximum model space distance between geometric entities at asserted c
onnectivities');
#465=UNCERTAINTY_MEASURE_WITH_UNIT(LENGTH_MEASURE(0.01),#468,
'DISTANCE_ACCURACY_VALUE',
'Maximum model space distance between geometric entities at asserted c
onnectivities');
#466=(
GEOMETRIC_REPRESENTATION_CONTEXT(3)
GLOBAL_UNCERTAINTY_ASSIGNED_CONTEXT((#464))
GLOBAL_UNIT_ASSIGNED_CONTEXT((#468,#470,#471))
REPRESENTATION_CONTEXT('','3D')
);
#467=(
GEOMETRIC_REPRESENTATION_CONTEXT(3)
GLOBAL_UNCERTAINTY_ASSIGNED_CONTEXT((#465))
GLOBAL_UNIT_ASSIGNED_CONTEXT((#468,#470,#471))
REPRESENTATION_CONTEXT('','3D')
);
#468=(
LENGTH_UNIT()
NAMED_UNIT(*)
SI_UNIT(.MILLI.,.METRE.)
);
#469=(
LENGTH_UNIT()
NAMED_UNIT(*)
SI_UNIT($,.METRE.)
);
#470=(
NAMED_UNIT(*)
PLANE_ANGLE_UNIT()
SI_UNIT($,.RADIAN.)
);
#471=(
NAMED_UNIT(*)
SI_UNIT($,.STERADIAN.)
SOLID_ANGLE_UNIT()
);
#472=SHAPE_DEFINITION_REPRESENTATION(#473,#474);
#473=PRODUCT_DEFINITION_SHAPE('',$,#476);
#474=SHAPE_REPRESENTATION('',(#263),#466);
#475=PRODUCT_DEFINITION_CONTEXT('part definition',#480,'design');
#476=PRODUCT_DEFINITION('Hositrad_KFA25-40A','Hositrad_KFA25-40A v1',#477,
#475);
#477=PRODUCT_DEFINITION_FORMATION('',$,#482);
#478=PRODUCT_RELATED_PRODUCT_CATEGORY('Hositrad_KFA25-40A v1',
'Hositrad_KFA25-40A v1',(#482));
#479=APPLICATION_PROTOCOL_DEFINITION('international standard',
'automotive_design',2009,#480);
#480=APPLICATION_CONTEXT(
'Core Data for Automotive Mechanical Design Process');
#481=PRODUCT_CONTEXT('part definition',#480,'mechanical');
#482=PRODUCT('Hositrad_KFA25-40A','Hositrad_KFA25-40A v1',$,(#481));
#483=PRESENTATION_STYLE_ASSIGNMENT((#485));
#484=PRESENTATION_STYLE_ASSIGNMENT((#486));
#485=SURFACE_STYLE_USAGE(.BOTH.,#487);
#486=SURFACE_STYLE_USAGE(.BOTH.,#488);
#487=SURFACE_SIDE_STYLE('',(#489));
#488=SURFACE_SIDE_STYLE('',(#490));
#489=SURFACE_STYLE_FILL_AREA(#491);
#490=SURFACE_STYLE_FILL_AREA(#492);
#491=FILL_AREA_STYLE('Steel - Satin',(#493));
#492=FILL_AREA_STYLE('Opaque(165,158,150)',(#494));
#493=FILL_AREA_STYLE_COLOUR('Steel - Satin',#495);
#494=FILL_AREA_STYLE_COLOUR('Opaque(165,158,150)',#496);
#495=COLOUR_RGB('Steel - Satin',0.627450980392157,0.627450980392157,0.627450980392157);
#496=COLOUR_RGB('Opaque(165,158,150)',0.647058823529412,0.619607843137255,
0.588235294117647);
ENDSEC;
END-ISO-10303-21;
