ISO-10303-21;
HEADER;
/* Generated by software containing ST-Developer
 * from STEP Tools, Inc. (www.steptools.com) 
 */

FILE_DESCRIPTION(
/* description */ (''),
/* implementation_level */ '2;1');

FILE_NAME(
/* name */ 'Hositrad_KF16-19WS v1.step',
/* time_stamp */ '2024-06-25T14:30:44+02:00',
/* author */ (''),
/* organization */ (''),
/* preprocessor_version */ 'ST-DEVELOPER v20',
/* originating_system */ 'Autodesk Translation Framework v13.14.0.145',

/* authorisation */ '');

FILE_SCHEMA (('AUTOMOTIVE_DESIGN { 1 0 10303 214 3 1 1 }'));
ENDSEC;

DATA;
#10=MECHANICAL_DESIGN_GEOMETRIC_PRESENTATION_REPRESENTATION('',(#13),#326);
#11=SHAPE_REPRESENTATION_RELATIONSHIP('SRR','None',#333,#12);
#12=ADVANCED_BREP_SHAPE_REPRESENTATION('',(#14),#325);
#13=STYLED_ITEM('',(#343),#14);
#14=MANIFOLD_SOLID_BREP('Body1',#174);
#15=FACE_BOUND('',#46,.T.);
#16=FACE_BOUND('',#48,.T.);
#17=FACE_BOUND('',#50,.T.);
#18=PLANE('',#211);
#19=PLANE('',#212);
#20=PLANE('',#213);
#21=TOROIDAL_SURFACE('',#202,13.5,1.5);
#22=CYLINDRICAL_SURFACE('',#192,8.1);
#23=CYLINDRICAL_SURFACE('',#195,9.6);
#24=CYLINDRICAL_SURFACE('',#208,15.);
#25=CYLINDRICAL_SURFACE('',#209,8.59999999999999);
#26=FACE_OUTER_BOUND('',#37,.T.);
#27=FACE_OUTER_BOUND('',#38,.T.);
#28=FACE_OUTER_BOUND('',#39,.T.);
#29=FACE_OUTER_BOUND('',#40,.T.);
#30=FACE_OUTER_BOUND('',#41,.T.);
#31=FACE_OUTER_BOUND('',#42,.T.);
#32=FACE_OUTER_BOUND('',#43,.T.);
#33=FACE_OUTER_BOUND('',#44,.T.);
#34=FACE_OUTER_BOUND('',#45,.T.);
#35=FACE_OUTER_BOUND('',#47,.T.);
#36=FACE_OUTER_BOUND('',#49,.T.);
#37=EDGE_LOOP('',(#116,#117,#118,#119,#120));
#38=EDGE_LOOP('',(#121,#122,#123,#124));
#39=EDGE_LOOP('',(#125,#126,#127,#128,#129));
#40=EDGE_LOOP('',(#130,#131,#132,#133));
#41=EDGE_LOOP('',(#134,#135,#136,#137,#138));
#42=EDGE_LOOP('',(#139,#140,#141,#142,#143));
#43=EDGE_LOOP('',(#144,#145,#146,#147,#148));
#44=EDGE_LOOP('',(#149,#150,#151,#152,#153));
#45=EDGE_LOOP('',(#154));
#46=EDGE_LOOP('',(#155));
#47=EDGE_LOOP('',(#156));
#48=EDGE_LOOP('',(#157));
#49=EDGE_LOOP('',(#158));
#50=EDGE_LOOP('',(#159));
#51=LINE('',#282,#58);
#52=LINE('',#288,#59);
#53=LINE('',#294,#60);
#54=LINE('',#302,#61);
#55=LINE('',#313,#62);
#56=LINE('',#315,#63);
#57=LINE('',#318,#64);
#58=VECTOR('',#222,8.9);
#59=VECTOR('',#229,8.1);
#60=VECTOR('',#236,9.6);
#61=VECTOR('',#245,15.);
#62=VECTOR('',#260,7.23733432025675);
#63=VECTOR('',#263,15.);
#64=VECTOR('',#266,8.59999999999999);
#65=CIRCLE('',#189,8.59999999999999);
#66=CIRCLE('',#190,8.59999999999999);
#67=CIRCLE('',#191,8.9);
#68=CIRCLE('',#193,8.1);
#69=CIRCLE('',#194,8.1);
#70=CIRCLE('',#196,9.6);
#71=CIRCLE('',#197,9.6);
#72=CIRCLE('',#198,9.6);
#73=CIRCLE('',#200,15.);
#74=CIRCLE('',#201,14.75);
#75=CIRCLE('',#203,15.);
#76=CIRCLE('',#204,15.);
#77=CIRCLE('',#205,1.5);
#78=CIRCLE('',#206,13.8882285676538);
#79=CIRCLE('',#210,8.59999999999999);
#80=VERTEX_POINT('',#277);
#81=VERTEX_POINT('',#278);
#82=VERTEX_POINT('',#281);
#83=VERTEX_POINT('',#285);
#84=VERTEX_POINT('',#287);
#85=VERTEX_POINT('',#291);
#86=VERTEX_POINT('',#293);
#87=VERTEX_POINT('',#295);
#88=VERTEX_POINT('',#299);
#89=VERTEX_POINT('',#301);
#90=VERTEX_POINT('',#305);
#91=VERTEX_POINT('',#306);
#92=VERTEX_POINT('',#309);
#93=VERTEX_POINT('',#317);
#94=EDGE_CURVE('',#80,#81,#65,.T.);
#95=EDGE_CURVE('',#81,#80,#66,.T.);
#96=EDGE_CURVE('',#81,#82,#51,.T.);
#97=EDGE_CURVE('',#82,#82,#67,.T.);
#98=EDGE_CURVE('',#83,#83,#68,.T.);
#99=EDGE_CURVE('',#83,#84,#52,.T.);
#100=EDGE_CURVE('',#84,#84,#69,.T.);
#101=EDGE_CURVE('',#85,#85,#70,.T.);
#102=EDGE_CURVE('',#85,#86,#53,.T.);
#103=EDGE_CURVE('',#86,#87,#71,.T.);
#104=EDGE_CURVE('',#87,#86,#72,.T.);
#105=EDGE_CURVE('',#88,#88,#73,.T.);
#106=EDGE_CURVE('',#88,#89,#54,.T.);
#107=EDGE_CURVE('',#89,#89,#74,.T.);
#108=EDGE_CURVE('',#90,#91,#75,.T.);
#109=EDGE_CURVE('',#91,#90,#76,.T.);
#110=EDGE_CURVE('',#91,#92,#77,.T.);
#111=EDGE_CURVE('',#92,#92,#78,.T.);
#112=EDGE_CURVE('',#92,#87,#55,.T.);
#113=EDGE_CURVE('',#90,#88,#56,.T.);
#114=EDGE_CURVE('',#80,#93,#57,.T.);
#115=EDGE_CURVE('',#93,#93,#79,.T.);
#116=ORIENTED_EDGE('',*,*,#94,.F.);
#117=ORIENTED_EDGE('',*,*,#95,.F.);
#118=ORIENTED_EDGE('',*,*,#96,.T.);
#119=ORIENTED_EDGE('',*,*,#97,.F.);
#120=ORIENTED_EDGE('',*,*,#96,.F.);
#121=ORIENTED_EDGE('',*,*,#98,.T.);
#122=ORIENTED_EDGE('',*,*,#99,.T.);
#123=ORIENTED_EDGE('',*,*,#100,.T.);
#124=ORIENTED_EDGE('',*,*,#99,.F.);
#125=ORIENTED_EDGE('',*,*,#101,.F.);
#126=ORIENTED_EDGE('',*,*,#102,.T.);
#127=ORIENTED_EDGE('',*,*,#103,.T.);
#128=ORIENTED_EDGE('',*,*,#104,.T.);
#129=ORIENTED_EDGE('',*,*,#102,.F.);
#130=ORIENTED_EDGE('',*,*,#105,.F.);
#131=ORIENTED_EDGE('',*,*,#106,.T.);
#132=ORIENTED_EDGE('',*,*,#107,.F.);
#133=ORIENTED_EDGE('',*,*,#106,.F.);
#134=ORIENTED_EDGE('',*,*,#108,.F.);
#135=ORIENTED_EDGE('',*,*,#109,.F.);
#136=ORIENTED_EDGE('',*,*,#110,.T.);
#137=ORIENTED_EDGE('',*,*,#111,.F.);
#138=ORIENTED_EDGE('',*,*,#110,.F.);
#139=ORIENTED_EDGE('',*,*,#111,.T.);
#140=ORIENTED_EDGE('',*,*,#112,.T.);
#141=ORIENTED_EDGE('',*,*,#103,.F.);
#142=ORIENTED_EDGE('',*,*,#104,.F.);
#143=ORIENTED_EDGE('',*,*,#112,.F.);
#144=ORIENTED_EDGE('',*,*,#108,.T.);
#145=ORIENTED_EDGE('',*,*,#109,.T.);
#146=ORIENTED_EDGE('',*,*,#113,.T.);
#147=ORIENTED_EDGE('',*,*,#105,.T.);
#148=ORIENTED_EDGE('',*,*,#113,.F.);
#149=ORIENTED_EDGE('',*,*,#94,.T.);
#150=ORIENTED_EDGE('',*,*,#95,.T.);
#151=ORIENTED_EDGE('',*,*,#114,.T.);
#152=ORIENTED_EDGE('',*,*,#115,.T.);
#153=ORIENTED_EDGE('',*,*,#114,.F.);
#154=ORIENTED_EDGE('',*,*,#115,.F.);
#155=ORIENTED_EDGE('',*,*,#98,.F.);
#156=ORIENTED_EDGE('',*,*,#107,.T.);
#157=ORIENTED_EDGE('',*,*,#97,.T.);
#158=ORIENTED_EDGE('',*,*,#101,.T.);
#159=ORIENTED_EDGE('',*,*,#100,.F.);
#160=CONICAL_SURFACE('',#188,8.9,0.785398163397448);
#161=CONICAL_SURFACE('',#199,15.,0.785398163397452);
#162=CONICAL_SURFACE('',#207,7.23733432025675,1.30899693899575);
#163=ADVANCED_FACE('',(#26),#160,.F.);
#164=ADVANCED_FACE('',(#27),#22,.F.);
#165=ADVANCED_FACE('',(#28),#23,.F.);
#166=ADVANCED_FACE('',(#29),#161,.T.);
#167=ADVANCED_FACE('',(#30),#21,.T.);
#168=ADVANCED_FACE('',(#31),#162,.T.);
#169=ADVANCED_FACE('',(#32),#24,.T.);
#170=ADVANCED_FACE('',(#33),#25,.F.);
#171=ADVANCED_FACE('',(#34,#15),#18,.T.);
#172=ADVANCED_FACE('',(#35,#16),#19,.T.);
#173=ADVANCED_FACE('',(#36,#17),#20,.T.);
#174=CLOSED_SHELL('',(#163,#164,#165,#166,#167,#168,#169,#170,#171,#172,
#173));
#175=DERIVED_UNIT_ELEMENT(#177,1.);
#176=DERIVED_UNIT_ELEMENT(#328,-3.);
#177=(
MASS_UNIT()
NAMED_UNIT(*)
SI_UNIT(.KILO.,.GRAM.)
);
#178=DERIVED_UNIT((#175,#176));
#179=MEASURE_REPRESENTATION_ITEM('density measure',
POSITIVE_RATIO_MEASURE(7850.),#178);
#180=PROPERTY_DEFINITION_REPRESENTATION(#185,#182);
#181=PROPERTY_DEFINITION_REPRESENTATION(#186,#183);
#182=REPRESENTATION('material name',(#184),#325);
#183=REPRESENTATION('density',(#179),#325);
#184=DESCRIPTIVE_REPRESENTATION_ITEM('Steel','Steel');
#185=PROPERTY_DEFINITION('material property','material name',#335);
#186=PROPERTY_DEFINITION('material property','density of part',#335);
#187=AXIS2_PLACEMENT_3D('',#275,#214,#215);
#188=AXIS2_PLACEMENT_3D('',#276,#216,#217);
#189=AXIS2_PLACEMENT_3D('',#279,#218,#219);
#190=AXIS2_PLACEMENT_3D('',#280,#220,#221);
#191=AXIS2_PLACEMENT_3D('',#283,#223,#224);
#192=AXIS2_PLACEMENT_3D('',#284,#225,#226);
#193=AXIS2_PLACEMENT_3D('',#286,#227,#228);
#194=AXIS2_PLACEMENT_3D('',#289,#230,#231);
#195=AXIS2_PLACEMENT_3D('',#290,#232,#233);
#196=AXIS2_PLACEMENT_3D('',#292,#234,#235);
#197=AXIS2_PLACEMENT_3D('',#296,#237,#238);
#198=AXIS2_PLACEMENT_3D('',#297,#239,#240);
#199=AXIS2_PLACEMENT_3D('',#298,#241,#242);
#200=AXIS2_PLACEMENT_3D('',#300,#243,#244);
#201=AXIS2_PLACEMENT_3D('',#303,#246,#247);
#202=AXIS2_PLACEMENT_3D('',#304,#248,#249);
#203=AXIS2_PLACEMENT_3D('',#307,#250,#251);
#204=AXIS2_PLACEMENT_3D('',#308,#252,#253);
#205=AXIS2_PLACEMENT_3D('',#310,#254,#255);
#206=AXIS2_PLACEMENT_3D('',#311,#256,#257);
#207=AXIS2_PLACEMENT_3D('',#312,#258,#259);
#208=AXIS2_PLACEMENT_3D('',#314,#261,#262);
#209=AXIS2_PLACEMENT_3D('',#316,#264,#265);
#210=AXIS2_PLACEMENT_3D('',#319,#267,#268);
#211=AXIS2_PLACEMENT_3D('',#320,#269,#270);
#212=AXIS2_PLACEMENT_3D('',#321,#271,#272);
#213=AXIS2_PLACEMENT_3D('',#322,#273,#274);
#214=DIRECTION('axis',(0.,0.,1.));
#215=DIRECTION('refdir',(1.,0.,0.));
#216=DIRECTION('center_axis',(0.,-1.,0.));
#217=DIRECTION('ref_axis',(0.,0.,-1.));
#218=DIRECTION('center_axis',(0.,-1.,0.));
#219=DIRECTION('ref_axis',(0.,0.,-1.));
#220=DIRECTION('center_axis',(0.,-1.,0.));
#221=DIRECTION('ref_axis',(0.,0.,-1.));
#222=DIRECTION('',(-8.65956056235493E-17,-0.707106781186547,0.707106781186547));
#223=DIRECTION('center_axis',(0.,1.,0.));
#224=DIRECTION('ref_axis',(0.,0.,-1.));
#225=DIRECTION('center_axis',(0.,1.,0.));
#226=DIRECTION('ref_axis',(0.,0.,1.));
#227=DIRECTION('center_axis',(0.,-1.,0.));
#228=DIRECTION('ref_axis',(0.,0.,-1.));
#229=DIRECTION('',(0.,1.,0.));
#230=DIRECTION('center_axis',(0.,1.,0.));
#231=DIRECTION('ref_axis',(0.,0.,1.));
#232=DIRECTION('center_axis',(0.,1.,0.));
#233=DIRECTION('ref_axis',(0.,0.,1.));
#234=DIRECTION('center_axis',(0.,1.,0.));
#235=DIRECTION('ref_axis',(0.,0.,1.));
#236=DIRECTION('',(0.,1.,0.));
#237=DIRECTION('center_axis',(0.,1.,0.));
#238=DIRECTION('ref_axis',(0.,0.,-1.));
#239=DIRECTION('center_axis',(0.,1.,0.));
#240=DIRECTION('ref_axis',(0.,0.,-1.));
#241=DIRECTION('center_axis',(0.,1.,0.));
#242=DIRECTION('ref_axis',(0.,0.,1.));
#243=DIRECTION('center_axis',(0.,1.,0.));
#244=DIRECTION('ref_axis',(0.,0.,-1.));
#245=DIRECTION('',(8.65956056235496E-17,-0.707106781186545,0.70710678118655));
#246=DIRECTION('center_axis',(0.,-1.,0.));
#247=DIRECTION('ref_axis',(0.,0.,-1.));
#248=DIRECTION('center_axis',(0.,-1.,0.));
#249=DIRECTION('ref_axis',(0.,0.,-1.));
#250=DIRECTION('center_axis',(0.,-1.,0.));
#251=DIRECTION('ref_axis',(0.,0.,-1.));
#252=DIRECTION('center_axis',(0.,-1.,0.));
#253=DIRECTION('ref_axis',(0.,0.,-1.));
#254=DIRECTION('center_axis',(-1.,0.,-1.22464679914735E-16));
#255=DIRECTION('ref_axis',(-1.22464679914735E-16,0.,1.));
#256=DIRECTION('center_axis',(0.,1.,0.));
#257=DIRECTION('ref_axis',(0.,0.,1.));
#258=DIRECTION('center_axis',(0.,-1.,0.));
#259=DIRECTION('ref_axis',(0.,0.,-1.));
#260=DIRECTION('',(1.18291797137867E-16,0.258819045102522,-0.965925826289068));
#261=DIRECTION('center_axis',(0.,1.,0.));
#262=DIRECTION('ref_axis',(0.,0.,1.));
#263=DIRECTION('',(0.,-1.,0.));
#264=DIRECTION('center_axis',(0.,1.,0.));
#265=DIRECTION('ref_axis',(0.,0.,1.));
#266=DIRECTION('',(0.,1.,0.));
#267=DIRECTION('center_axis',(0.,1.,0.));
#268=DIRECTION('ref_axis',(0.,0.,1.));
#269=DIRECTION('center_axis',(0.,-1.,0.));
#270=DIRECTION('ref_axis',(0.,0.,-1.));
#271=DIRECTION('center_axis',(0.,-1.,0.));
#272=DIRECTION('ref_axis',(0.,0.,-1.));
#273=DIRECTION('center_axis',(0.,1.,0.));
#274=DIRECTION('ref_axis',(0.,0.,1.));
#275=CARTESIAN_POINT('',(0.,0.,0.));
#276=CARTESIAN_POINT('Origin',(0.,0.,0.));
#277=CARTESIAN_POINT('',(1.05319624726672E-15,0.300000000000002,-8.59999999999999));
#278=CARTESIAN_POINT('',(-1.05319624726672E-15,0.300000000000003,8.59999999999999));
#279=CARTESIAN_POINT('Origin',(0.,0.300000000000002,0.));
#280=CARTESIAN_POINT('Origin',(0.,0.300000000000002,0.));
#281=CARTESIAN_POINT('',(-1.08993565124114E-15,-2.03096402858717E-15,8.9));
#282=CARTESIAN_POINT('',(-1.08993565124114E-15,0.,8.9));
#283=CARTESIAN_POINT('Origin',(0.,-1.44508322299388E-15,0.));
#284=CARTESIAN_POINT('Origin',(0.,-1.30104260698261E-15,0.));
#285=CARTESIAN_POINT('',(-9.91963907309356E-16,2.5,-8.1));
#286=CARTESIAN_POINT('Origin',(0.,2.5,0.));
#287=CARTESIAN_POINT('',(-9.91963907309356E-16,3.5,-8.1));
#288=CARTESIAN_POINT('',(-9.91963907309356E-16,-1.30104260698261E-15,-8.1));
#289=CARTESIAN_POINT('Origin',(0.,3.5,0.));
#290=CARTESIAN_POINT('Origin',(0.,3.5,0.));
#291=CARTESIAN_POINT('',(-1.17566092718146E-15,3.5,-9.6));
#292=CARTESIAN_POINT('Origin',(0.,3.5,0.));
#293=CARTESIAN_POINT('',(-1.17566092718146E-15,4.44692563912806,-9.6));
#294=CARTESIAN_POINT('',(-1.17566092718146E-15,3.5,-9.6));
#295=CARTESIAN_POINT('',(1.43823919665093E-15,4.44692563912806,9.6));
#296=CARTESIAN_POINT('Origin',(0.,4.44692563912806,0.));
#297=CARTESIAN_POINT('Origin',(0.,4.44692563912806,0.));
#298=CARTESIAN_POINT('Origin',(0.,0.249999999999993,0.));
#299=CARTESIAN_POINT('',(-1.83697019872103E-15,0.249999999999994,-15.));
#300=CARTESIAN_POINT('Origin',(0.,0.249999999999993,0.));
#301=CARTESIAN_POINT('',(-1.80635402874235E-15,-2.08166817117217E-15,-14.75));
#302=CARTESIAN_POINT('',(-1.83697019872103E-15,0.249999999999993,-15.));
#303=CARTESIAN_POINT('Origin',(0.,-1.44508322299388E-15,0.));
#304=CARTESIAN_POINT('Origin',(0.,1.84900951803155,0.));
#305=CARTESIAN_POINT('',(1.83697019872103E-15,1.84900951803155,-15.));
#306=CARTESIAN_POINT('',(-1.83697019872103E-15,1.84900951803155,15.));
#307=CARTESIAN_POINT('Origin',(0.,1.84900951803155,0.));
#308=CARTESIAN_POINT('Origin',(0.,1.84900951803155,0.));
#309=CARTESIAN_POINT('',(-1.7008174661204E-15,3.29789825746516,13.8882285676538));
#310=CARTESIAN_POINT('Origin',(-1.65327317884893E-15,1.84900951803155,13.5));
#311=CARTESIAN_POINT('Origin',(0.,3.29789825746516,0.));
#312=CARTESIAN_POINT('Origin',(0.,5.08,0.));
#313=CARTESIAN_POINT('',(-8.86317830966171E-16,5.08,7.23733432025675));
#314=CARTESIAN_POINT('Origin',(0.,55.2557961982418,0.));
#315=CARTESIAN_POINT('',(-1.83697019872103E-15,55.2557961982418,-15.));
#316=CARTESIAN_POINT('Origin',(0.,55.2557961982418,0.));
#317=CARTESIAN_POINT('',(-1.05319624726672E-15,2.49999999999999,-8.59999999999999));
#318=CARTESIAN_POINT('',(-1.05319624726672E-15,55.2557961982418,-8.59999999999999));
#319=CARTESIAN_POINT('Origin',(0.,2.5,0.));
#320=CARTESIAN_POINT('Origin',(-8.59999999999999,2.5,0.));
#321=CARTESIAN_POINT('Origin',(-8.59999999999999,-1.44508322299388E-15,
0.));
#322=CARTESIAN_POINT('Origin',(0.,3.5,0.));
#323=UNCERTAINTY_MEASURE_WITH_UNIT(LENGTH_MEASURE(0.01),#327,
'DISTANCE_ACCURACY_VALUE',
'Maximum model space distance between geometric entities at asserted c
onnectivities');
#324=UNCERTAINTY_MEASURE_WITH_UNIT(LENGTH_MEASURE(0.01),#327,
'DISTANCE_ACCURACY_VALUE',
'Maximum model space distance between geometric entities at asserted c
onnectivities');
#325=(
GEOMETRIC_REPRESENTATION_CONTEXT(3)
GLOBAL_UNCERTAINTY_ASSIGNED_CONTEXT((#323))
GLOBAL_UNIT_ASSIGNED_CONTEXT((#327,#329,#330))
REPRESENTATION_CONTEXT('','3D')
);
#326=(
GEOMETRIC_REPRESENTATION_CONTEXT(3)
GLOBAL_UNCERTAINTY_ASSIGNED_CONTEXT((#324))
GLOBAL_UNIT_ASSIGNED_CONTEXT((#327,#329,#330))
REPRESENTATION_CONTEXT('','3D')
);
#327=(
LENGTH_UNIT()
NAMED_UNIT(*)
SI_UNIT(.MILLI.,.METRE.)
);
#328=(
LENGTH_UNIT()
NAMED_UNIT(*)
SI_UNIT($,.METRE.)
);
#329=(
NAMED_UNIT(*)
PLANE_ANGLE_UNIT()
SI_UNIT($,.RADIAN.)
);
#330=(
NAMED_UNIT(*)
SI_UNIT($,.STERADIAN.)
SOLID_ANGLE_UNIT()
);
#331=SHAPE_DEFINITION_REPRESENTATION(#332,#333);
#332=PRODUCT_DEFINITION_SHAPE('',$,#335);
#333=SHAPE_REPRESENTATION('',(#187),#325);
#334=PRODUCT_DEFINITION_CONTEXT('part definition',#339,'design');
#335=PRODUCT_DEFINITION('Hositrad_KF16-19WS','Hositrad_KF16-19WS v1',#336,
#334);
#336=PRODUCT_DEFINITION_FORMATION('',$,#341);
#337=PRODUCT_RELATED_PRODUCT_CATEGORY('Hositrad_KF16-19WS v1',
'Hositrad_KF16-19WS v1',(#341));
#338=APPLICATION_PROTOCOL_DEFINITION('international standard',
'automotive_design',2009,#339);
#339=APPLICATION_CONTEXT(
'Core Data for Automotive Mechanical Design Process');
#340=PRODUCT_CONTEXT('part definition',#339,'mechanical');
#341=PRODUCT('Hositrad_KF16-19WS','Hositrad_KF16-19WS v1',$,(#340));
#342=PRESENTATION_STYLE_ASSIGNMENT((#344));
#343=PRESENTATION_STYLE_ASSIGNMENT((#345));
#344=SURFACE_STYLE_USAGE(.BOTH.,#346);
#345=SURFACE_STYLE_USAGE(.BOTH.,#347);
#346=SURFACE_SIDE_STYLE('',(#348));
#347=SURFACE_SIDE_STYLE('',(#349));
#348=SURFACE_STYLE_FILL_AREA(#350);
#349=SURFACE_STYLE_FILL_AREA(#351);
#350=FILL_AREA_STYLE('Steel - Satin',(#352));
#351=FILL_AREA_STYLE('Opaque(165,158,150)',(#353));
#352=FILL_AREA_STYLE_COLOUR('Steel - Satin',#354);
#353=FILL_AREA_STYLE_COLOUR('Opaque(165,158,150)',#355);
#354=COLOUR_RGB('Steel - Satin',0.627450980392157,0.627450980392157,0.627450980392157);
#355=COLOUR_RGB('Opaque(165,158,150)',0.647058823529412,0.619607843137255,
0.588235294117647);
ENDSEC;
END-ISO-10303-21;
