ISO-10303-21;
HEADER;
/* Generated by software containing ST-Developer
 * from STEP Tools, Inc. (www.steptools.com) 
 */

FILE_DESCRIPTION(
/* description */ (''),
/* implementation_level */ '2;1');

FILE_NAME(
/* name */ 'Hositrad_ISO-F63-76 v1.step',
/* time_stamp */ '2024-06-25T14:25:03+02:00',
/* author */ (''),
/* organization */ (''),
/* preprocessor_version */ 'ST-DEVELOPER v20',
/* originating_system */ 'Autodesk Translation Framework v13.14.0.145',

/* authorisation */ '');

FILE_SCHEMA (('AUTOMOTIVE_DESIGN { 1 0 10303 214 3 1 1 }'));
ENDSEC;

DATA;
#10=MECHANICAL_DESIGN_GEOMETRIC_PRESENTATION_REPRESENTATION('',(#13),#661);
#11=SHAPE_REPRESENTATION_RELATIONSHIP('SRR','None',#668,#12);
#12=ADVANCED_BREP_SHAPE_REPRESENTATION('',(#14),#660);
#13=STYLED_ITEM('',(#678),#14);
#14=MANIFOLD_SOLID_BREP('Body1',#366);
#15=FACE_BOUND('',#76,.T.);
#16=FACE_BOUND('',#77,.T.);
#17=FACE_BOUND('',#78,.T.);
#18=FACE_BOUND('',#79,.T.);
#19=FACE_BOUND('',#80,.T.);
#20=FACE_BOUND('',#82,.T.);
#21=FACE_BOUND('',#83,.T.);
#22=FACE_BOUND('',#84,.T.);
#23=FACE_BOUND('',#85,.T.);
#24=FACE_BOUND('',#86,.T.);
#25=FACE_BOUND('',#88,.T.);
#26=PLANE('',#429);
#27=PLANE('',#430);
#28=PLANE('',#431);
#29=CYLINDRICAL_SURFACE('',#384,38.2);
#30=CYLINDRICAL_SURFACE('',#386,36.);
#31=CYLINDRICAL_SURFACE('',#417,4.5);
#32=CYLINDRICAL_SURFACE('',#418,4.5);
#33=CYLINDRICAL_SURFACE('',#419,4.5);
#34=CYLINDRICAL_SURFACE('',#427,4.5);
#35=CYLINDRICAL_SURFACE('',#428,65.);
#36=FACE_OUTER_BOUND('',#57,.T.);
#37=FACE_OUTER_BOUND('',#58,.T.);
#38=FACE_OUTER_BOUND('',#59,.T.);
#39=FACE_OUTER_BOUND('',#60,.T.);
#40=FACE_OUTER_BOUND('',#61,.T.);
#41=FACE_OUTER_BOUND('',#62,.T.);
#42=FACE_OUTER_BOUND('',#63,.T.);
#43=FACE_OUTER_BOUND('',#64,.T.);
#44=FACE_OUTER_BOUND('',#65,.T.);
#45=FACE_OUTER_BOUND('',#66,.T.);
#46=FACE_OUTER_BOUND('',#67,.T.);
#47=FACE_OUTER_BOUND('',#68,.T.);
#48=FACE_OUTER_BOUND('',#69,.T.);
#49=FACE_OUTER_BOUND('',#70,.T.);
#50=FACE_OUTER_BOUND('',#71,.T.);
#51=FACE_OUTER_BOUND('',#72,.T.);
#52=FACE_OUTER_BOUND('',#73,.T.);
#53=FACE_OUTER_BOUND('',#74,.T.);
#54=FACE_OUTER_BOUND('',#75,.T.);
#55=FACE_OUTER_BOUND('',#81,.T.);
#56=FACE_OUTER_BOUND('',#87,.T.);
#57=EDGE_LOOP('',(#236,#237,#238,#239,#240));
#58=EDGE_LOOP('',(#241,#242,#243,#244,#245));
#59=EDGE_LOOP('',(#246,#247,#248,#249));
#60=EDGE_LOOP('',(#250,#251,#252,#253));
#61=EDGE_LOOP('',(#254,#255,#256,#257,#258));
#62=EDGE_LOOP('',(#259,#260,#261,#262,#263));
#63=EDGE_LOOP('',(#264,#265,#266,#267));
#64=EDGE_LOOP('',(#268,#269,#270,#271,#272));
#65=EDGE_LOOP('',(#273,#274,#275,#276));
#66=EDGE_LOOP('',(#277,#278,#279,#280,#281));
#67=EDGE_LOOP('',(#282,#283,#284,#285));
#68=EDGE_LOOP('',(#286,#287,#288,#289,#290));
#69=EDGE_LOOP('',(#291,#292,#293,#294,#295));
#70=EDGE_LOOP('',(#296,#297,#298,#299,#300));
#71=EDGE_LOOP('',(#301,#302,#303,#304,#305));
#72=EDGE_LOOP('',(#306,#307,#308,#309));
#73=EDGE_LOOP('',(#310,#311,#312,#313,#314));
#74=EDGE_LOOP('',(#315,#316,#317,#318,#319));
#75=EDGE_LOOP('',(#320));
#76=EDGE_LOOP('',(#321));
#77=EDGE_LOOP('',(#322));
#78=EDGE_LOOP('',(#323));
#79=EDGE_LOOP('',(#324));
#80=EDGE_LOOP('',(#325));
#81=EDGE_LOOP('',(#326));
#82=EDGE_LOOP('',(#327));
#83=EDGE_LOOP('',(#328));
#84=EDGE_LOOP('',(#329));
#85=EDGE_LOOP('',(#330));
#86=EDGE_LOOP('',(#331));
#87=EDGE_LOOP('',(#332));
#88=EDGE_LOOP('',(#333));
#89=LINE('',#563,#107);
#90=LINE('',#567,#108);
#91=LINE('',#573,#109);
#92=LINE('',#579,#110);
#93=LINE('',#587,#111);
#94=LINE('',#595,#112);
#95=LINE('',#601,#113);
#96=LINE('',#609,#114);
#97=LINE('',#615,#115);
#98=LINE('',#623,#116);
#99=LINE('',#629,#117);
#100=LINE('',#632,#118);
#101=LINE('',#634,#119);
#102=LINE('',#636,#120);
#103=LINE('',#643,#121);
#104=LINE('',#649,#122);
#105=LINE('',#652,#123);
#106=LINE('',#654,#124);
#107=VECTOR('',#440,38.7);
#108=VECTOR('',#445,38.2);
#109=VECTOR('',#452,36.);
#110=VECTOR('',#459,64.6);
#111=VECTOR('',#468,65.);
#112=VECTOR('',#477,5.);
#113=VECTOR('',#484,4.5);
#114=VECTOR('',#493,5.);
#115=VECTOR('',#500,4.5);
#116=VECTOR('',#509,5.);
#117=VECTOR('',#516,4.5);
#118=VECTOR('',#521,4.5);
#119=VECTOR('',#524,4.5);
#120=VECTOR('',#527,4.5);
#121=VECTOR('',#534,5.);
#122=VECTOR('',#541,4.5);
#123=VECTOR('',#546,4.5);
#124=VECTOR('',#549,65.);
#125=CIRCLE('',#381,38.2);
#126=CIRCLE('',#382,38.2);
#127=CIRCLE('',#383,38.7);
#128=CIRCLE('',#385,38.2);
#129=CIRCLE('',#387,36.);
#130=CIRCLE('',#388,36.);
#131=CIRCLE('',#390,65.);
#132=CIRCLE('',#391,64.6);
#133=CIRCLE('',#393,65.);
#134=CIRCLE('',#394,65.);
#135=CIRCLE('',#395,64.6000000000001);
#136=CIRCLE('',#397,4.5);
#137=CIRCLE('',#398,4.5);
#138=CIRCLE('',#399,5.);
#139=CIRCLE('',#401,4.5);
#140=CIRCLE('',#402,5.);
#141=CIRCLE('',#404,4.5);
#142=CIRCLE('',#405,4.5);
#143=CIRCLE('',#406,5.);
#144=CIRCLE('',#408,4.5);
#145=CIRCLE('',#409,5.);
#146=CIRCLE('',#411,4.5);
#147=CIRCLE('',#412,4.5);
#148=CIRCLE('',#413,5.);
#149=CIRCLE('',#415,4.5);
#150=CIRCLE('',#416,5.);
#151=CIRCLE('',#421,4.5);
#152=CIRCLE('',#422,4.5);
#153=CIRCLE('',#423,5.);
#154=CIRCLE('',#425,4.5);
#155=CIRCLE('',#426,5.);
#156=VERTEX_POINT('',#558);
#157=VERTEX_POINT('',#559);
#158=VERTEX_POINT('',#562);
#159=VERTEX_POINT('',#566);
#160=VERTEX_POINT('',#570);
#161=VERTEX_POINT('',#572);
#162=VERTEX_POINT('',#576);
#163=VERTEX_POINT('',#578);
#164=VERTEX_POINT('',#582);
#165=VERTEX_POINT('',#583);
#166=VERTEX_POINT('',#586);
#167=VERTEX_POINT('',#590);
#168=VERTEX_POINT('',#591);
#169=VERTEX_POINT('',#594);
#170=VERTEX_POINT('',#598);
#171=VERTEX_POINT('',#600);
#172=VERTEX_POINT('',#604);
#173=VERTEX_POINT('',#605);
#174=VERTEX_POINT('',#608);
#175=VERTEX_POINT('',#612);
#176=VERTEX_POINT('',#614);
#177=VERTEX_POINT('',#618);
#178=VERTEX_POINT('',#619);
#179=VERTEX_POINT('',#622);
#180=VERTEX_POINT('',#626);
#181=VERTEX_POINT('',#628);
#182=VERTEX_POINT('',#638);
#183=VERTEX_POINT('',#639);
#184=VERTEX_POINT('',#642);
#185=VERTEX_POINT('',#646);
#186=VERTEX_POINT('',#648);
#187=EDGE_CURVE('',#156,#157,#125,.T.);
#188=EDGE_CURVE('',#157,#156,#126,.T.);
#189=EDGE_CURVE('',#157,#158,#89,.T.);
#190=EDGE_CURVE('',#158,#158,#127,.T.);
#191=EDGE_CURVE('',#156,#159,#90,.T.);
#192=EDGE_CURVE('',#159,#159,#128,.T.);
#193=EDGE_CURVE('',#160,#160,#129,.T.);
#194=EDGE_CURVE('',#160,#161,#91,.T.);
#195=EDGE_CURVE('',#161,#161,#130,.T.);
#196=EDGE_CURVE('',#162,#162,#131,.T.);
#197=EDGE_CURVE('',#162,#163,#92,.T.);
#198=EDGE_CURVE('',#163,#163,#132,.T.);
#199=EDGE_CURVE('',#164,#165,#133,.T.);
#200=EDGE_CURVE('',#165,#164,#134,.T.);
#201=EDGE_CURVE('',#165,#166,#93,.T.);
#202=EDGE_CURVE('',#166,#166,#135,.T.);
#203=EDGE_CURVE('',#167,#168,#136,.T.);
#204=EDGE_CURVE('',#168,#167,#137,.T.);
#205=EDGE_CURVE('',#168,#169,#94,.T.);
#206=EDGE_CURVE('',#169,#169,#138,.T.);
#207=EDGE_CURVE('',#170,#170,#139,.T.);
#208=EDGE_CURVE('',#170,#171,#95,.T.);
#209=EDGE_CURVE('',#171,#171,#140,.T.);
#210=EDGE_CURVE('',#172,#173,#141,.T.);
#211=EDGE_CURVE('',#173,#172,#142,.T.);
#212=EDGE_CURVE('',#173,#174,#96,.T.);
#213=EDGE_CURVE('',#174,#174,#143,.T.);
#214=EDGE_CURVE('',#175,#175,#144,.T.);
#215=EDGE_CURVE('',#175,#176,#97,.T.);
#216=EDGE_CURVE('',#176,#176,#145,.T.);
#217=EDGE_CURVE('',#177,#178,#146,.T.);
#218=EDGE_CURVE('',#178,#177,#147,.T.);
#219=EDGE_CURVE('',#178,#179,#98,.T.);
#220=EDGE_CURVE('',#179,#179,#148,.T.);
#221=EDGE_CURVE('',#180,#180,#149,.T.);
#222=EDGE_CURVE('',#180,#181,#99,.T.);
#223=EDGE_CURVE('',#181,#181,#150,.T.);
#224=EDGE_CURVE('',#167,#170,#100,.T.);
#225=EDGE_CURVE('',#172,#175,#101,.T.);
#226=EDGE_CURVE('',#177,#180,#102,.T.);
#227=EDGE_CURVE('',#182,#183,#151,.T.);
#228=EDGE_CURVE('',#183,#182,#152,.T.);
#229=EDGE_CURVE('',#183,#184,#103,.T.);
#230=EDGE_CURVE('',#184,#184,#153,.T.);
#231=EDGE_CURVE('',#185,#185,#154,.T.);
#232=EDGE_CURVE('',#185,#186,#104,.T.);
#233=EDGE_CURVE('',#186,#186,#155,.T.);
#234=EDGE_CURVE('',#182,#185,#105,.T.);
#235=EDGE_CURVE('',#164,#162,#106,.T.);
#236=ORIENTED_EDGE('',*,*,#187,.F.);
#237=ORIENTED_EDGE('',*,*,#188,.F.);
#238=ORIENTED_EDGE('',*,*,#189,.T.);
#239=ORIENTED_EDGE('',*,*,#190,.F.);
#240=ORIENTED_EDGE('',*,*,#189,.F.);
#241=ORIENTED_EDGE('',*,*,#187,.T.);
#242=ORIENTED_EDGE('',*,*,#188,.T.);
#243=ORIENTED_EDGE('',*,*,#191,.T.);
#244=ORIENTED_EDGE('',*,*,#192,.T.);
#245=ORIENTED_EDGE('',*,*,#191,.F.);
#246=ORIENTED_EDGE('',*,*,#193,.F.);
#247=ORIENTED_EDGE('',*,*,#194,.T.);
#248=ORIENTED_EDGE('',*,*,#195,.T.);
#249=ORIENTED_EDGE('',*,*,#194,.F.);
#250=ORIENTED_EDGE('',*,*,#196,.F.);
#251=ORIENTED_EDGE('',*,*,#197,.T.);
#252=ORIENTED_EDGE('',*,*,#198,.F.);
#253=ORIENTED_EDGE('',*,*,#197,.F.);
#254=ORIENTED_EDGE('',*,*,#199,.F.);
#255=ORIENTED_EDGE('',*,*,#200,.F.);
#256=ORIENTED_EDGE('',*,*,#201,.T.);
#257=ORIENTED_EDGE('',*,*,#202,.F.);
#258=ORIENTED_EDGE('',*,*,#201,.F.);
#259=ORIENTED_EDGE('',*,*,#203,.F.);
#260=ORIENTED_EDGE('',*,*,#204,.F.);
#261=ORIENTED_EDGE('',*,*,#205,.T.);
#262=ORIENTED_EDGE('',*,*,#206,.F.);
#263=ORIENTED_EDGE('',*,*,#205,.F.);
#264=ORIENTED_EDGE('',*,*,#207,.F.);
#265=ORIENTED_EDGE('',*,*,#208,.T.);
#266=ORIENTED_EDGE('',*,*,#209,.F.);
#267=ORIENTED_EDGE('',*,*,#208,.F.);
#268=ORIENTED_EDGE('',*,*,#210,.F.);
#269=ORIENTED_EDGE('',*,*,#211,.F.);
#270=ORIENTED_EDGE('',*,*,#212,.T.);
#271=ORIENTED_EDGE('',*,*,#213,.F.);
#272=ORIENTED_EDGE('',*,*,#212,.F.);
#273=ORIENTED_EDGE('',*,*,#214,.F.);
#274=ORIENTED_EDGE('',*,*,#215,.T.);
#275=ORIENTED_EDGE('',*,*,#216,.F.);
#276=ORIENTED_EDGE('',*,*,#215,.F.);
#277=ORIENTED_EDGE('',*,*,#217,.F.);
#278=ORIENTED_EDGE('',*,*,#218,.F.);
#279=ORIENTED_EDGE('',*,*,#219,.T.);
#280=ORIENTED_EDGE('',*,*,#220,.F.);
#281=ORIENTED_EDGE('',*,*,#219,.F.);
#282=ORIENTED_EDGE('',*,*,#221,.F.);
#283=ORIENTED_EDGE('',*,*,#222,.T.);
#284=ORIENTED_EDGE('',*,*,#223,.F.);
#285=ORIENTED_EDGE('',*,*,#222,.F.);
#286=ORIENTED_EDGE('',*,*,#203,.T.);
#287=ORIENTED_EDGE('',*,*,#204,.T.);
#288=ORIENTED_EDGE('',*,*,#224,.T.);
#289=ORIENTED_EDGE('',*,*,#207,.T.);
#290=ORIENTED_EDGE('',*,*,#224,.F.);
#291=ORIENTED_EDGE('',*,*,#210,.T.);
#292=ORIENTED_EDGE('',*,*,#211,.T.);
#293=ORIENTED_EDGE('',*,*,#225,.T.);
#294=ORIENTED_EDGE('',*,*,#214,.T.);
#295=ORIENTED_EDGE('',*,*,#225,.F.);
#296=ORIENTED_EDGE('',*,*,#217,.T.);
#297=ORIENTED_EDGE('',*,*,#218,.T.);
#298=ORIENTED_EDGE('',*,*,#226,.T.);
#299=ORIENTED_EDGE('',*,*,#221,.T.);
#300=ORIENTED_EDGE('',*,*,#226,.F.);
#301=ORIENTED_EDGE('',*,*,#227,.F.);
#302=ORIENTED_EDGE('',*,*,#228,.F.);
#303=ORIENTED_EDGE('',*,*,#229,.T.);
#304=ORIENTED_EDGE('',*,*,#230,.F.);
#305=ORIENTED_EDGE('',*,*,#229,.F.);
#306=ORIENTED_EDGE('',*,*,#231,.F.);
#307=ORIENTED_EDGE('',*,*,#232,.T.);
#308=ORIENTED_EDGE('',*,*,#233,.F.);
#309=ORIENTED_EDGE('',*,*,#232,.F.);
#310=ORIENTED_EDGE('',*,*,#227,.T.);
#311=ORIENTED_EDGE('',*,*,#228,.T.);
#312=ORIENTED_EDGE('',*,*,#234,.T.);
#313=ORIENTED_EDGE('',*,*,#231,.T.);
#314=ORIENTED_EDGE('',*,*,#234,.F.);
#315=ORIENTED_EDGE('',*,*,#199,.T.);
#316=ORIENTED_EDGE('',*,*,#200,.T.);
#317=ORIENTED_EDGE('',*,*,#235,.T.);
#318=ORIENTED_EDGE('',*,*,#196,.T.);
#319=ORIENTED_EDGE('',*,*,#235,.F.);
#320=ORIENTED_EDGE('',*,*,#198,.T.);
#321=ORIENTED_EDGE('',*,*,#209,.T.);
#322=ORIENTED_EDGE('',*,*,#216,.T.);
#323=ORIENTED_EDGE('',*,*,#223,.T.);
#324=ORIENTED_EDGE('',*,*,#233,.T.);
#325=ORIENTED_EDGE('',*,*,#195,.F.);
#326=ORIENTED_EDGE('',*,*,#202,.T.);
#327=ORIENTED_EDGE('',*,*,#206,.T.);
#328=ORIENTED_EDGE('',*,*,#213,.T.);
#329=ORIENTED_EDGE('',*,*,#220,.T.);
#330=ORIENTED_EDGE('',*,*,#230,.T.);
#331=ORIENTED_EDGE('',*,*,#190,.T.);
#332=ORIENTED_EDGE('',*,*,#192,.F.);
#333=ORIENTED_EDGE('',*,*,#193,.T.);
#334=CONICAL_SURFACE('',#380,38.7,0.785398163397441);
#335=CONICAL_SURFACE('',#389,64.6,0.785398163397483);
#336=CONICAL_SURFACE('',#392,65.,0.785398163397414);
#337=CONICAL_SURFACE('',#396,5.,0.78539816339746);
#338=CONICAL_SURFACE('',#400,4.5,0.785398163397434);
#339=CONICAL_SURFACE('',#403,5.,0.78539816339746);
#340=CONICAL_SURFACE('',#407,4.5,0.785398163397434);
#341=CONICAL_SURFACE('',#410,5.,0.78539816339746);
#342=CONICAL_SURFACE('',#414,4.5,0.785398163397434);
#343=CONICAL_SURFACE('',#420,5.,0.78539816339746);
#344=CONICAL_SURFACE('',#424,4.5,0.785398163397434);
#345=ADVANCED_FACE('',(#36),#334,.F.);
#346=ADVANCED_FACE('',(#37),#29,.F.);
#347=ADVANCED_FACE('',(#38),#30,.F.);
#348=ADVANCED_FACE('',(#39),#335,.T.);
#349=ADVANCED_FACE('',(#40),#336,.T.);
#350=ADVANCED_FACE('',(#41),#337,.F.);
#351=ADVANCED_FACE('',(#42),#338,.F.);
#352=ADVANCED_FACE('',(#43),#339,.F.);
#353=ADVANCED_FACE('',(#44),#340,.F.);
#354=ADVANCED_FACE('',(#45),#341,.F.);
#355=ADVANCED_FACE('',(#46),#342,.F.);
#356=ADVANCED_FACE('',(#47),#31,.F.);
#357=ADVANCED_FACE('',(#48),#32,.F.);
#358=ADVANCED_FACE('',(#49),#33,.F.);
#359=ADVANCED_FACE('',(#50),#343,.F.);
#360=ADVANCED_FACE('',(#51),#344,.F.);
#361=ADVANCED_FACE('',(#52),#34,.F.);
#362=ADVANCED_FACE('',(#53),#35,.T.);
#363=ADVANCED_FACE('',(#54,#15,#16,#17,#18,#19),#26,.T.);
#364=ADVANCED_FACE('',(#55,#20,#21,#22,#23,#24),#27,.F.);
#365=ADVANCED_FACE('',(#56,#25),#28,.F.);
#366=CLOSED_SHELL('',(#345,#346,#347,#348,#349,#350,#351,#352,#353,#354,
#355,#356,#357,#358,#359,#360,#361,#362,#363,#364,#365));
#367=DERIVED_UNIT_ELEMENT(#369,1.);
#368=DERIVED_UNIT_ELEMENT(#663,-3.);
#369=(
MASS_UNIT()
NAMED_UNIT(*)
SI_UNIT(.KILO.,.GRAM.)
);
#370=DERIVED_UNIT((#367,#368));
#371=MEASURE_REPRESENTATION_ITEM('density measure',
POSITIVE_RATIO_MEASURE(7850.),#370);
#372=PROPERTY_DEFINITION_REPRESENTATION(#377,#374);
#373=PROPERTY_DEFINITION_REPRESENTATION(#378,#375);
#374=REPRESENTATION('material name',(#376),#660);
#375=REPRESENTATION('density',(#371),#660);
#376=DESCRIPTIVE_REPRESENTATION_ITEM('Steel','Steel');
#377=PROPERTY_DEFINITION('material property','material name',#670);
#378=PROPERTY_DEFINITION('material property','density of part',#670);
#379=AXIS2_PLACEMENT_3D('',#556,#432,#433);
#380=AXIS2_PLACEMENT_3D('',#557,#434,#435);
#381=AXIS2_PLACEMENT_3D('',#560,#436,#437);
#382=AXIS2_PLACEMENT_3D('',#561,#438,#439);
#383=AXIS2_PLACEMENT_3D('',#564,#441,#442);
#384=AXIS2_PLACEMENT_3D('',#565,#443,#444);
#385=AXIS2_PLACEMENT_3D('',#568,#446,#447);
#386=AXIS2_PLACEMENT_3D('',#569,#448,#449);
#387=AXIS2_PLACEMENT_3D('',#571,#450,#451);
#388=AXIS2_PLACEMENT_3D('',#574,#453,#454);
#389=AXIS2_PLACEMENT_3D('',#575,#455,#456);
#390=AXIS2_PLACEMENT_3D('',#577,#457,#458);
#391=AXIS2_PLACEMENT_3D('',#580,#460,#461);
#392=AXIS2_PLACEMENT_3D('',#581,#462,#463);
#393=AXIS2_PLACEMENT_3D('',#584,#464,#465);
#394=AXIS2_PLACEMENT_3D('',#585,#466,#467);
#395=AXIS2_PLACEMENT_3D('',#588,#469,#470);
#396=AXIS2_PLACEMENT_3D('',#589,#471,#472);
#397=AXIS2_PLACEMENT_3D('',#592,#473,#474);
#398=AXIS2_PLACEMENT_3D('',#593,#475,#476);
#399=AXIS2_PLACEMENT_3D('',#596,#478,#479);
#400=AXIS2_PLACEMENT_3D('',#597,#480,#481);
#401=AXIS2_PLACEMENT_3D('',#599,#482,#483);
#402=AXIS2_PLACEMENT_3D('',#602,#485,#486);
#403=AXIS2_PLACEMENT_3D('',#603,#487,#488);
#404=AXIS2_PLACEMENT_3D('',#606,#489,#490);
#405=AXIS2_PLACEMENT_3D('',#607,#491,#492);
#406=AXIS2_PLACEMENT_3D('',#610,#494,#495);
#407=AXIS2_PLACEMENT_3D('',#611,#496,#497);
#408=AXIS2_PLACEMENT_3D('',#613,#498,#499);
#409=AXIS2_PLACEMENT_3D('',#616,#501,#502);
#410=AXIS2_PLACEMENT_3D('',#617,#503,#504);
#411=AXIS2_PLACEMENT_3D('',#620,#505,#506);
#412=AXIS2_PLACEMENT_3D('',#621,#507,#508);
#413=AXIS2_PLACEMENT_3D('',#624,#510,#511);
#414=AXIS2_PLACEMENT_3D('',#625,#512,#513);
#415=AXIS2_PLACEMENT_3D('',#627,#514,#515);
#416=AXIS2_PLACEMENT_3D('',#630,#517,#518);
#417=AXIS2_PLACEMENT_3D('',#631,#519,#520);
#418=AXIS2_PLACEMENT_3D('',#633,#522,#523);
#419=AXIS2_PLACEMENT_3D('',#635,#525,#526);
#420=AXIS2_PLACEMENT_3D('',#637,#528,#529);
#421=AXIS2_PLACEMENT_3D('',#640,#530,#531);
#422=AXIS2_PLACEMENT_3D('',#641,#532,#533);
#423=AXIS2_PLACEMENT_3D('',#644,#535,#536);
#424=AXIS2_PLACEMENT_3D('',#645,#537,#538);
#425=AXIS2_PLACEMENT_3D('',#647,#539,#540);
#426=AXIS2_PLACEMENT_3D('',#650,#542,#543);
#427=AXIS2_PLACEMENT_3D('',#651,#544,#545);
#428=AXIS2_PLACEMENT_3D('',#653,#547,#548);
#429=AXIS2_PLACEMENT_3D('',#655,#550,#551);
#430=AXIS2_PLACEMENT_3D('',#656,#552,#553);
#431=AXIS2_PLACEMENT_3D('',#657,#554,#555);
#432=DIRECTION('axis',(0.,0.,1.));
#433=DIRECTION('refdir',(1.,0.,0.));
#434=DIRECTION('center_axis',(0.,-1.,0.));
#435=DIRECTION('ref_axis',(0.,0.,-1.));
#436=DIRECTION('center_axis',(0.,-1.,0.));
#437=DIRECTION('ref_axis',(0.,0.,1.));
#438=DIRECTION('center_axis',(0.,-1.,0.));
#439=DIRECTION('ref_axis',(0.,0.,1.));
#440=DIRECTION('',(-8.65956056235487E-17,-0.707106781186552,0.707106781186542));
#441=DIRECTION('center_axis',(0.,1.,0.));
#442=DIRECTION('ref_axis',(0.,0.,1.));
#443=DIRECTION('center_axis',(0.,1.,0.));
#444=DIRECTION('ref_axis',(0.,0.,1.));
#445=DIRECTION('',(0.,1.,0.));
#446=DIRECTION('center_axis',(0.,1.,0.));
#447=DIRECTION('ref_axis',(0.,0.,1.));
#448=DIRECTION('center_axis',(0.,1.,0.));
#449=DIRECTION('ref_axis',(0.,0.,1.));
#450=DIRECTION('center_axis',(0.,1.,0.));
#451=DIRECTION('ref_axis',(0.,0.,1.));
#452=DIRECTION('',(0.,1.,0.));
#453=DIRECTION('center_axis',(0.,1.,0.));
#454=DIRECTION('ref_axis',(0.,0.,1.));
#455=DIRECTION('center_axis',(0.,-1.,0.));
#456=DIRECTION('ref_axis',(0.,0.,-1.));
#457=DIRECTION('center_axis',(0.,-1.,0.));
#458=DIRECTION('ref_axis',(0.,0.,1.));
#459=DIRECTION('',(8.65956056235523E-17,0.707106781186523,-0.707106781186572));
#460=DIRECTION('center_axis',(0.,1.,0.));
#461=DIRECTION('ref_axis',(0.,0.,1.));
#462=DIRECTION('center_axis',(0.,1.,0.));
#463=DIRECTION('ref_axis',(0.,0.,1.));
#464=DIRECTION('center_axis',(0.,1.,0.));
#465=DIRECTION('ref_axis',(0.,0.,1.));
#466=DIRECTION('center_axis',(0.,1.,0.));
#467=DIRECTION('ref_axis',(0.,0.,1.));
#468=DIRECTION('',(8.65956056235463E-17,-0.707106781186572,0.707106781186523));
#469=DIRECTION('center_axis',(0.,-1.,0.));
#470=DIRECTION('ref_axis',(0.,0.,1.));
#471=DIRECTION('center_axis',(0.,-1.,0.));
#472=DIRECTION('ref_axis',(0.,0.,-1.));
#473=DIRECTION('center_axis',(0.,-1.,0.));
#474=DIRECTION('ref_axis',(0.,0.,1.));
#475=DIRECTION('center_axis',(0.,-1.,0.));
#476=DIRECTION('ref_axis',(0.,0.,1.));
#477=DIRECTION('',(-8.65956056235504E-17,-0.707106781186539,0.707106781186556));
#478=DIRECTION('center_axis',(0.,1.,0.));
#479=DIRECTION('ref_axis',(0.,0.,1.));
#480=DIRECTION('center_axis',(0.,1.,0.));
#481=DIRECTION('ref_axis',(0.,0.,1.));
#482=DIRECTION('center_axis',(0.,1.,0.));
#483=DIRECTION('ref_axis',(0.,0.,1.));
#484=DIRECTION('',(-8.65956056235481E-17,0.707106781186558,-0.707106781186537));
#485=DIRECTION('center_axis',(0.,-1.,0.));
#486=DIRECTION('ref_axis',(0.,0.,1.));
#487=DIRECTION('center_axis',(0.,-1.,0.));
#488=DIRECTION('ref_axis',(0.,0.,-1.));
#489=DIRECTION('center_axis',(0.,-1.,0.));
#490=DIRECTION('ref_axis',(0.,0.,1.));
#491=DIRECTION('center_axis',(0.,-1.,0.));
#492=DIRECTION('ref_axis',(0.,0.,1.));
#493=DIRECTION('',(-8.65956056235504E-17,-0.707106781186539,0.707106781186556));
#494=DIRECTION('center_axis',(0.,1.,0.));
#495=DIRECTION('ref_axis',(0.,0.,1.));
#496=DIRECTION('center_axis',(0.,1.,0.));
#497=DIRECTION('ref_axis',(0.,0.,1.));
#498=DIRECTION('center_axis',(0.,1.,0.));
#499=DIRECTION('ref_axis',(0.,0.,1.));
#500=DIRECTION('',(-8.65956056235481E-17,0.707106781186558,-0.707106781186537));
#501=DIRECTION('center_axis',(0.,-1.,0.));
#502=DIRECTION('ref_axis',(0.,0.,1.));
#503=DIRECTION('center_axis',(0.,-1.,0.));
#504=DIRECTION('ref_axis',(0.,0.,-1.));
#505=DIRECTION('center_axis',(0.,-1.,0.));
#506=DIRECTION('ref_axis',(0.,0.,1.));
#507=DIRECTION('center_axis',(0.,-1.,0.));
#508=DIRECTION('ref_axis',(0.,0.,1.));
#509=DIRECTION('',(-8.65956056235504E-17,-0.707106781186539,0.707106781186556));
#510=DIRECTION('center_axis',(0.,1.,0.));
#511=DIRECTION('ref_axis',(0.,0.,1.));
#512=DIRECTION('center_axis',(0.,1.,0.));
#513=DIRECTION('ref_axis',(0.,0.,1.));
#514=DIRECTION('center_axis',(0.,1.,0.));
#515=DIRECTION('ref_axis',(0.,0.,1.));
#516=DIRECTION('',(-8.65956056235481E-17,0.707106781186558,-0.707106781186537));
#517=DIRECTION('center_axis',(0.,-1.,0.));
#518=DIRECTION('ref_axis',(0.,0.,1.));
#519=DIRECTION('center_axis',(0.,1.,0.));
#520=DIRECTION('ref_axis',(0.,0.,1.));
#521=DIRECTION('',(0.,1.,0.));
#522=DIRECTION('center_axis',(0.,1.,0.));
#523=DIRECTION('ref_axis',(0.,0.,1.));
#524=DIRECTION('',(0.,1.,0.));
#525=DIRECTION('center_axis',(0.,1.,0.));
#526=DIRECTION('ref_axis',(0.,0.,1.));
#527=DIRECTION('',(0.,1.,0.));
#528=DIRECTION('center_axis',(0.,-1.,0.));
#529=DIRECTION('ref_axis',(0.,0.,-1.));
#530=DIRECTION('center_axis',(0.,-1.,0.));
#531=DIRECTION('ref_axis',(0.,0.,1.));
#532=DIRECTION('center_axis',(0.,-1.,0.));
#533=DIRECTION('ref_axis',(0.,0.,1.));
#534=DIRECTION('',(-8.65956056235504E-17,-0.707106781186539,0.707106781186556));
#535=DIRECTION('center_axis',(0.,1.,0.));
#536=DIRECTION('ref_axis',(0.,0.,1.));
#537=DIRECTION('center_axis',(0.,1.,0.));
#538=DIRECTION('ref_axis',(0.,0.,1.));
#539=DIRECTION('center_axis',(0.,1.,0.));
#540=DIRECTION('ref_axis',(0.,0.,1.));
#541=DIRECTION('',(-8.65956056235481E-17,0.707106781186558,-0.707106781186537));
#542=DIRECTION('center_axis',(0.,-1.,0.));
#543=DIRECTION('ref_axis',(0.,0.,1.));
#544=DIRECTION('center_axis',(0.,1.,0.));
#545=DIRECTION('ref_axis',(0.,0.,1.));
#546=DIRECTION('',(0.,1.,0.));
#547=DIRECTION('center_axis',(0.,-1.,0.));
#548=DIRECTION('ref_axis',(0.,0.,-1.));
#549=DIRECTION('',(0.,1.,0.));
#550=DIRECTION('center_axis',(0.,1.,0.));
#551=DIRECTION('ref_axis',(0.,0.,1.));
#552=DIRECTION('center_axis',(0.,1.,0.));
#553=DIRECTION('ref_axis',(0.,0.,1.));
#554=DIRECTION('center_axis',(0.,1.,0.));
#555=DIRECTION('ref_axis',(0.,0.,1.));
#556=CARTESIAN_POINT('',(0.,0.,0.));
#557=CARTESIAN_POINT('Origin',(0.,0.,0.));
#558=CARTESIAN_POINT('',(4.67815077274289E-15,0.49999999999998,-38.2));
#559=CARTESIAN_POINT('',(-4.67815077274289E-15,0.499999999999981,38.2));
#560=CARTESIAN_POINT('Origin',(0.,0.49999999999998,0.));
#561=CARTESIAN_POINT('Origin',(0.,0.49999999999998,0.));
#562=CARTESIAN_POINT('',(-4.73938311270025E-15,-1.48892111694066E-15,38.7));
#563=CARTESIAN_POINT('',(-4.73938311270025E-15,0.,38.7));
#564=CARTESIAN_POINT('Origin',(0.,0.,0.));
#565=CARTESIAN_POINT('Origin',(0.,32.7403206588699,0.));
#566=CARTESIAN_POINT('',(-4.67815077274289E-15,5.5,-38.2));
#567=CARTESIAN_POINT('',(-4.67815077274289E-15,32.7403206588699,-38.2));
#568=CARTESIAN_POINT('Origin',(0.,5.5,0.));
#569=CARTESIAN_POINT('Origin',(0.,32.7403206588699,0.));
#570=CARTESIAN_POINT('',(-4.40872847693047E-15,5.5,-36.));
#571=CARTESIAN_POINT('Origin',(0.,5.5,0.));
#572=CARTESIAN_POINT('',(-4.40872847693047E-15,12.,-36.));
#573=CARTESIAN_POINT('',(-4.40872847693047E-15,32.7403206588699,-36.));
#574=CARTESIAN_POINT('Origin',(0.,12.,0.));
#575=CARTESIAN_POINT('Origin',(0.,12.,0.));
#576=CARTESIAN_POINT('',(-7.9602041944578E-15,11.6,65.));
#577=CARTESIAN_POINT('Origin',(0.,11.6,0.));
#578=CARTESIAN_POINT('',(-7.9112183224919E-15,12.,64.6));
#579=CARTESIAN_POINT('',(-7.9112183224919E-15,12.,64.6));
#580=CARTESIAN_POINT('Origin',(0.,12.,0.));
#581=CARTESIAN_POINT('Origin',(0.,0.399999999999984,0.));
#582=CARTESIAN_POINT('',(7.9602041944578E-15,0.399999999999984,65.));
#583=CARTESIAN_POINT('',(-7.9602041944578E-15,0.399999999999984,-65.));
#584=CARTESIAN_POINT('Origin',(0.,0.399999999999984,0.));
#585=CARTESIAN_POINT('Origin',(0.,0.399999999999984,0.));
#586=CARTESIAN_POINT('',(-7.91121832249191E-15,4.44089209850063E-15,-64.6000000000001));
#587=CARTESIAN_POINT('',(-7.9602041944578E-15,0.399999999999984,-65.));
#588=CARTESIAN_POINT('Origin',(0.,0.,0.));
#589=CARTESIAN_POINT('Origin',(-55.,0.,-5.76094420909117E-13));
#590=CARTESIAN_POINT('',(-55.,0.499999999999991,-4.50000000000058));
#591=CARTESIAN_POINT('',(-55.,0.499999999999991,4.49999999999943));
#592=CARTESIAN_POINT('Origin',(-55.,0.499999999999991,-5.76094420909117E-13));
#593=CARTESIAN_POINT('Origin',(-55.,0.499999999999991,-5.76094420909117E-13));
#594=CARTESIAN_POINT('',(-55.,-1.92367069372179E-16,4.99999999999943));
#595=CARTESIAN_POINT('',(-55.,0.,4.99999999999943));
#596=CARTESIAN_POINT('Origin',(-55.,0.,-5.76094420909117E-13));
#597=CARTESIAN_POINT('Origin',(-55.,11.5,-5.76094420909117E-13));
#598=CARTESIAN_POINT('',(-55.,11.5,-4.50000000000058));
#599=CARTESIAN_POINT('Origin',(-55.,11.5,-5.76094420909117E-13));
#600=CARTESIAN_POINT('',(-55.,12.,-5.00000000000058));
#601=CARTESIAN_POINT('',(-55.,11.5,-4.50000000000058));
#602=CARTESIAN_POINT('Origin',(-55.,12.,-5.76094420909117E-13));
#603=CARTESIAN_POINT('Origin',(-3.84062947272745E-13,0.,55.));
#604=CARTESIAN_POINT('',(-3.83511856213128E-13,0.499999999999991,50.5));
#605=CARTESIAN_POINT('',(-3.84614038332361E-13,0.499999999999991,59.5));
#606=CARTESIAN_POINT('Origin',(-3.84062947272745E-13,0.499999999999991,
55.));
#607=CARTESIAN_POINT('Origin',(-3.84062947272745E-13,0.499999999999991,
55.));
#608=CARTESIAN_POINT('',(-3.84675270672318E-13,-1.92367069372179E-16,60.));
#609=CARTESIAN_POINT('',(-3.84675270672318E-13,0.,60.));
#610=CARTESIAN_POINT('Origin',(-3.84062947272745E-13,0.,55.));
#611=CARTESIAN_POINT('Origin',(-3.84062947272745E-13,11.5,55.));
#612=CARTESIAN_POINT('',(-3.84614038332361E-13,11.5,50.5));
#613=CARTESIAN_POINT('Origin',(-3.84062947272745E-13,11.5,55.));
#614=CARTESIAN_POINT('',(-3.84675270672318E-13,12.,50.));
#615=CARTESIAN_POINT('',(-3.84614038332361E-13,11.5,50.5));
#616=CARTESIAN_POINT('Origin',(-3.84062947272745E-13,12.,55.));
#617=CARTESIAN_POINT('Origin',(55.,0.,1.92031473636372E-13));
#618=CARTESIAN_POINT('',(55.,0.499999999999991,-4.49999999999981));
#619=CARTESIAN_POINT('',(55.,0.499999999999991,4.50000000000019));
#620=CARTESIAN_POINT('Origin',(55.,0.499999999999991,1.92031473636372E-13));
#621=CARTESIAN_POINT('Origin',(55.,0.499999999999991,1.92031473636372E-13));
#622=CARTESIAN_POINT('',(55.,-1.92367069372179E-16,5.0000000000002));
#623=CARTESIAN_POINT('',(55.,0.,5.0000000000002));
#624=CARTESIAN_POINT('Origin',(55.,0.,1.92031473636372E-13));
#625=CARTESIAN_POINT('Origin',(55.,11.5,1.92031473636372E-13));
#626=CARTESIAN_POINT('',(55.,11.5,-4.49999999999981));
#627=CARTESIAN_POINT('Origin',(55.,11.5,1.92031473636372E-13));
#628=CARTESIAN_POINT('',(55.,12.,-4.99999999999981));
#629=CARTESIAN_POINT('',(55.,11.5,-4.49999999999981));
#630=CARTESIAN_POINT('Origin',(55.,12.,1.92031473636372E-13));
#631=CARTESIAN_POINT('Origin',(-55.,0.,-5.76094420909117E-13));
#632=CARTESIAN_POINT('',(-55.,0.,-4.50000000000058));
#633=CARTESIAN_POINT('Origin',(-3.84062947272745E-13,0.,55.));
#634=CARTESIAN_POINT('',(-3.84614038332361E-13,0.,50.5));
#635=CARTESIAN_POINT('Origin',(55.,0.,1.92031473636372E-13));
#636=CARTESIAN_POINT('',(55.,0.,-4.49999999999981));
#637=CARTESIAN_POINT('Origin',(0.,0.,-55.));
#638=CARTESIAN_POINT('',(5.51091059616309E-16,0.499999999999991,-59.5));
#639=CARTESIAN_POINT('',(-5.51091059616309E-16,0.499999999999991,-50.5));
#640=CARTESIAN_POINT('Origin',(0.,0.499999999999991,-55.));
#641=CARTESIAN_POINT('Origin',(0.,0.499999999999991,-55.));
#642=CARTESIAN_POINT('',(-6.12323399573677E-16,-1.92367069372179E-16,-50.));
#643=CARTESIAN_POINT('',(-6.12323399573677E-16,0.,-50.));
#644=CARTESIAN_POINT('Origin',(0.,0.,-55.));
#645=CARTESIAN_POINT('Origin',(0.,11.5,-55.));
#646=CARTESIAN_POINT('',(-5.51091059616309E-16,11.5,-59.5));
#647=CARTESIAN_POINT('Origin',(0.,11.5,-55.));
#648=CARTESIAN_POINT('',(-6.12323399573678E-16,12.,-60.));
#649=CARTESIAN_POINT('',(-5.51091059616309E-16,11.5,-59.5));
#650=CARTESIAN_POINT('Origin',(0.,12.,-55.));
#651=CARTESIAN_POINT('Origin',(0.,0.,-55.));
#652=CARTESIAN_POINT('',(-5.51091059616309E-16,0.,-59.5));
#653=CARTESIAN_POINT('Origin',(0.,12.,0.));
#654=CARTESIAN_POINT('',(-7.9602041944578E-15,12.,65.));
#655=CARTESIAN_POINT('Origin',(0.,12.,0.));
#656=CARTESIAN_POINT('Origin',(0.,0.,0.));
#657=CARTESIAN_POINT('Origin',(-36.,5.5,0.));
#658=UNCERTAINTY_MEASURE_WITH_UNIT(LENGTH_MEASURE(0.01),#662,
'DISTANCE_ACCURACY_VALUE',
'Maximum model space distance between geometric entities at asserted c
onnectivities');
#659=UNCERTAINTY_MEASURE_WITH_UNIT(LENGTH_MEASURE(0.01),#662,
'DISTANCE_ACCURACY_VALUE',
'Maximum model space distance between geometric entities at asserted c
onnectivities');
#660=(
GEOMETRIC_REPRESENTATION_CONTEXT(3)
GLOBAL_UNCERTAINTY_ASSIGNED_CONTEXT((#658))
GLOBAL_UNIT_ASSIGNED_CONTEXT((#662,#664,#665))
REPRESENTATION_CONTEXT('','3D')
);
#661=(
GEOMETRIC_REPRESENTATION_CONTEXT(3)
GLOBAL_UNCERTAINTY_ASSIGNED_CONTEXT((#659))
GLOBAL_UNIT_ASSIGNED_CONTEXT((#662,#664,#665))
REPRESENTATION_CONTEXT('','3D')
);
#662=(
LENGTH_UNIT()
NAMED_UNIT(*)
SI_UNIT(.MILLI.,.METRE.)
);
#663=(
LENGTH_UNIT()
NAMED_UNIT(*)
SI_UNIT($,.METRE.)
);
#664=(
NAMED_UNIT(*)
PLANE_ANGLE_UNIT()
SI_UNIT($,.RADIAN.)
);
#665=(
NAMED_UNIT(*)
SI_UNIT($,.STERADIAN.)
SOLID_ANGLE_UNIT()
);
#666=SHAPE_DEFINITION_REPRESENTATION(#667,#668);
#667=PRODUCT_DEFINITION_SHAPE('',$,#670);
#668=SHAPE_REPRESENTATION('',(#379),#660);
#669=PRODUCT_DEFINITION_CONTEXT('part definition',#674,'design');
#670=PRODUCT_DEFINITION('Hositrad_ISO-F63-76','Hositrad_ISO-F63-76 v1',
#671,#669);
#671=PRODUCT_DEFINITION_FORMATION('',$,#676);
#672=PRODUCT_RELATED_PRODUCT_CATEGORY('Hositrad_ISO-F63-76 v1',
'Hositrad_ISO-F63-76 v1',(#676));
#673=APPLICATION_PROTOCOL_DEFINITION('international standard',
'automotive_design',2009,#674);
#674=APPLICATION_CONTEXT(
'Core Data for Automotive Mechanical Design Process');
#675=PRODUCT_CONTEXT('part definition',#674,'mechanical');
#676=PRODUCT('Hositrad_ISO-F63-76','Hositrad_ISO-F63-76 v1',$,(#675));
#677=PRESENTATION_STYLE_ASSIGNMENT((#679));
#678=PRESENTATION_STYLE_ASSIGNMENT((#680));
#679=SURFACE_STYLE_USAGE(.BOTH.,#681);
#680=SURFACE_STYLE_USAGE(.BOTH.,#682);
#681=SURFACE_SIDE_STYLE('',(#683));
#682=SURFACE_SIDE_STYLE('',(#684));
#683=SURFACE_STYLE_FILL_AREA(#685);
#684=SURFACE_STYLE_FILL_AREA(#686);
#685=FILL_AREA_STYLE('Steel - Satin',(#687));
#686=FILL_AREA_STYLE('Opaque(165,158,150)',(#688));
#687=FILL_AREA_STYLE_COLOUR('Steel - Satin',#689);
#688=FILL_AREA_STYLE_COLOUR('Opaque(165,158,150)',#690);
#689=COLOUR_RGB('Steel - Satin',0.627450980392157,0.627450980392157,0.627450980392157);
#690=COLOUR_RGB('Opaque(165,158,150)',0.647058823529412,0.619607843137255,
0.588235294117647);
ENDSEC;
END-ISO-10303-21;
