ISO-10303-21;
HEADER;
/* Generated by software containing ST-Developer
 * from STEP Tools, Inc. (www.steptools.com) 
 */

FILE_DESCRIPTION(
/* description */ (''),
/* implementation_level */ '2;1');

FILE_NAME(
/* name */ 'Hositrad_ISO-F63-64 v1.step',
/* time_stamp */ '2024-06-25T14:24:47+02:00',
/* author */ (''),
/* organization */ (''),
/* preprocessor_version */ 'ST-DEVELOPER v20',
/* originating_system */ 'Autodesk Translation Framework v13.14.0.145',

/* authorisation */ '');

FILE_SCHEMA (('AUTOMOTIVE_DESIGN { 1 0 10303 214 3 1 1 }'));
ENDSEC;

DATA;
#10=MECHANICAL_DESIGN_GEOMETRIC_PRESENTATION_REPRESENTATION('',(#13),#742);
#11=SHAPE_REPRESENTATION_RELATIONSHIP('SRR','None',#749,#12);
#12=ADVANCED_BREP_SHAPE_REPRESENTATION('',(#14),#741);
#13=STYLED_ITEM('',(#759),#14);
#14=MANIFOLD_SOLID_BREP('Body1',#409);
#15=FACE_BOUND('',#85,.T.);
#16=FACE_BOUND('',#86,.T.);
#17=FACE_BOUND('',#87,.T.);
#18=FACE_BOUND('',#88,.T.);
#19=FACE_BOUND('',#89,.T.);
#20=FACE_BOUND('',#91,.T.);
#21=FACE_BOUND('',#92,.T.);
#22=FACE_BOUND('',#93,.T.);
#23=FACE_BOUND('',#94,.T.);
#24=FACE_BOUND('',#95,.T.);
#25=FACE_BOUND('',#97,.T.);
#26=FACE_BOUND('',#99,.T.);
#27=PLANE('',#479);
#28=PLANE('',#480);
#29=PLANE('',#481);
#30=PLANE('',#482);
#31=CYLINDRICAL_SURFACE('',#432,31.9);
#32=CYLINDRICAL_SURFACE('',#434,30.15);
#33=CYLINDRICAL_SURFACE('',#448,4.5);
#34=CYLINDRICAL_SURFACE('',#456,4.5);
#35=CYLINDRICAL_SURFACE('',#464,4.5);
#36=CYLINDRICAL_SURFACE('',#475,4.5);
#37=CYLINDRICAL_SURFACE('',#476,65.);
#38=CYLINDRICAL_SURFACE('',#477,35.);
#39=TOROIDAL_SURFACE('',#427,35.3,0.3);
#40=FACE_OUTER_BOUND('',#64,.T.);
#41=FACE_OUTER_BOUND('',#65,.T.);
#42=FACE_OUTER_BOUND('',#66,.T.);
#43=FACE_OUTER_BOUND('',#67,.T.);
#44=FACE_OUTER_BOUND('',#68,.T.);
#45=FACE_OUTER_BOUND('',#69,.T.);
#46=FACE_OUTER_BOUND('',#70,.T.);
#47=FACE_OUTER_BOUND('',#71,.T.);
#48=FACE_OUTER_BOUND('',#72,.T.);
#49=FACE_OUTER_BOUND('',#73,.T.);
#50=FACE_OUTER_BOUND('',#74,.T.);
#51=FACE_OUTER_BOUND('',#75,.T.);
#52=FACE_OUTER_BOUND('',#76,.T.);
#53=FACE_OUTER_BOUND('',#77,.T.);
#54=FACE_OUTER_BOUND('',#78,.T.);
#55=FACE_OUTER_BOUND('',#79,.T.);
#56=FACE_OUTER_BOUND('',#80,.T.);
#57=FACE_OUTER_BOUND('',#81,.T.);
#58=FACE_OUTER_BOUND('',#82,.T.);
#59=FACE_OUTER_BOUND('',#83,.T.);
#60=FACE_OUTER_BOUND('',#84,.T.);
#61=FACE_OUTER_BOUND('',#90,.T.);
#62=FACE_OUTER_BOUND('',#96,.T.);
#63=FACE_OUTER_BOUND('',#98,.T.);
#64=EDGE_LOOP('',(#264,#265,#266,#267,#268));
#65=EDGE_LOOP('',(#269,#270,#271,#272,#273));
#66=EDGE_LOOP('',(#274,#275,#276,#277,#278));
#67=EDGE_LOOP('',(#279,#280,#281,#282));
#68=EDGE_LOOP('',(#283,#284,#285,#286,#287));
#69=EDGE_LOOP('',(#288,#289,#290,#291));
#70=EDGE_LOOP('',(#292,#293,#294,#295,#296));
#71=EDGE_LOOP('',(#297,#298,#299,#300,#301));
#72=EDGE_LOOP('',(#302,#303,#304,#305));
#73=EDGE_LOOP('',(#306,#307,#308,#309,#310));
#74=EDGE_LOOP('',(#311,#312,#313,#314,#315));
#75=EDGE_LOOP('',(#316,#317,#318,#319));
#76=EDGE_LOOP('',(#320,#321,#322,#323,#324));
#77=EDGE_LOOP('',(#325,#326,#327,#328,#329));
#78=EDGE_LOOP('',(#330,#331,#332,#333));
#79=EDGE_LOOP('',(#334,#335,#336,#337,#338));
#80=EDGE_LOOP('',(#339,#340,#341,#342));
#81=EDGE_LOOP('',(#343,#344,#345,#346,#347));
#82=EDGE_LOOP('',(#348,#349,#350,#351,#352));
#83=EDGE_LOOP('',(#353,#354,#355,#356,#357));
#84=EDGE_LOOP('',(#358));
#85=EDGE_LOOP('',(#359));
#86=EDGE_LOOP('',(#360));
#87=EDGE_LOOP('',(#361));
#88=EDGE_LOOP('',(#362));
#89=EDGE_LOOP('',(#363));
#90=EDGE_LOOP('',(#364));
#91=EDGE_LOOP('',(#365));
#92=EDGE_LOOP('',(#366));
#93=EDGE_LOOP('',(#367));
#94=EDGE_LOOP('',(#368));
#95=EDGE_LOOP('',(#369));
#96=EDGE_LOOP('',(#370));
#97=EDGE_LOOP('',(#371));
#98=EDGE_LOOP('',(#372));
#99=EDGE_LOOP('',(#373));
#100=LINE('',#631,#119);
#101=LINE('',#643,#120);
#102=LINE('',#649,#121);
#103=LINE('',#657,#122);
#104=LINE('',#663,#123);
#105=LINE('',#671,#124);
#106=LINE('',#675,#125);
#107=LINE('',#679,#126);
#108=LINE('',#687,#127);
#109=LINE('',#691,#128);
#110=LINE('',#695,#129);
#111=LINE('',#703,#130);
#112=LINE('',#707,#131);
#113=LINE('',#711,#132);
#114=LINE('',#719,#133);
#115=LINE('',#725,#134);
#116=LINE('',#728,#135);
#117=LINE('',#730,#136);
#118=LINE('',#734,#137);
#119=VECTOR('',#491,32.2464101615138);
#120=VECTOR('',#506,31.9);
#121=VECTOR('',#513,30.15);
#122=VECTOR('',#522,64.7);
#123=VECTOR('',#529,65.);
#124=VECTOR('',#538,4.8);
#125=VECTOR('',#543,4.5);
#126=VECTOR('',#548,4.5);
#127=VECTOR('',#557,4.8);
#128=VECTOR('',#562,4.5);
#129=VECTOR('',#567,4.5);
#130=VECTOR('',#576,4.8);
#131=VECTOR('',#581,4.5);
#132=VECTOR('',#586,4.5);
#133=VECTOR('',#595,4.8);
#134=VECTOR('',#602,4.5);
#135=VECTOR('',#607,4.5);
#136=VECTOR('',#610,65.);
#137=VECTOR('',#615,35.);
#138=CIRCLE('',#424,31.9);
#139=CIRCLE('',#425,31.9);
#140=CIRCLE('',#426,32.2464101615138);
#141=CIRCLE('',#428,35.3);
#142=CIRCLE('',#429,0.3);
#143=CIRCLE('',#430,35.);
#144=CIRCLE('',#431,35.);
#145=CIRCLE('',#433,31.9);
#146=CIRCLE('',#435,30.15);
#147=CIRCLE('',#436,30.15);
#148=CIRCLE('',#438,65.);
#149=CIRCLE('',#439,65.);
#150=CIRCLE('',#440,64.7);
#151=CIRCLE('',#442,65.);
#152=CIRCLE('',#443,64.7);
#153=CIRCLE('',#445,4.5);
#154=CIRCLE('',#446,4.5);
#155=CIRCLE('',#447,4.8);
#156=CIRCLE('',#449,4.5);
#157=CIRCLE('',#451,4.80000000000003);
#158=CIRCLE('',#453,4.5);
#159=CIRCLE('',#454,4.5);
#160=CIRCLE('',#455,4.8);
#161=CIRCLE('',#457,4.5);
#162=CIRCLE('',#459,4.80000000000003);
#163=CIRCLE('',#461,4.5);
#164=CIRCLE('',#462,4.5);
#165=CIRCLE('',#463,4.8);
#166=CIRCLE('',#465,4.5);
#167=CIRCLE('',#467,4.80000000000003);
#168=CIRCLE('',#469,4.5);
#169=CIRCLE('',#470,4.5);
#170=CIRCLE('',#471,4.8);
#171=CIRCLE('',#473,4.5);
#172=CIRCLE('',#474,4.80000000000003);
#173=CIRCLE('',#478,35.);
#174=VERTEX_POINT('',#626);
#175=VERTEX_POINT('',#627);
#176=VERTEX_POINT('',#630);
#177=VERTEX_POINT('',#634);
#178=VERTEX_POINT('',#636);
#179=VERTEX_POINT('',#638);
#180=VERTEX_POINT('',#642);
#181=VERTEX_POINT('',#646);
#182=VERTEX_POINT('',#648);
#183=VERTEX_POINT('',#652);
#184=VERTEX_POINT('',#653);
#185=VERTEX_POINT('',#656);
#186=VERTEX_POINT('',#660);
#187=VERTEX_POINT('',#662);
#188=VERTEX_POINT('',#666);
#189=VERTEX_POINT('',#667);
#190=VERTEX_POINT('',#670);
#191=VERTEX_POINT('',#674);
#192=VERTEX_POINT('',#678);
#193=VERTEX_POINT('',#682);
#194=VERTEX_POINT('',#683);
#195=VERTEX_POINT('',#686);
#196=VERTEX_POINT('',#690);
#197=VERTEX_POINT('',#694);
#198=VERTEX_POINT('',#698);
#199=VERTEX_POINT('',#699);
#200=VERTEX_POINT('',#702);
#201=VERTEX_POINT('',#706);
#202=VERTEX_POINT('',#710);
#203=VERTEX_POINT('',#714);
#204=VERTEX_POINT('',#715);
#205=VERTEX_POINT('',#718);
#206=VERTEX_POINT('',#722);
#207=VERTEX_POINT('',#724);
#208=VERTEX_POINT('',#732);
#209=EDGE_CURVE('',#174,#175,#138,.T.);
#210=EDGE_CURVE('',#175,#174,#139,.T.);
#211=EDGE_CURVE('',#175,#176,#100,.T.);
#212=EDGE_CURVE('',#176,#176,#140,.T.);
#213=EDGE_CURVE('',#177,#177,#141,.T.);
#214=EDGE_CURVE('',#177,#178,#142,.T.);
#215=EDGE_CURVE('',#179,#178,#143,.T.);
#216=EDGE_CURVE('',#178,#179,#144,.T.);
#217=EDGE_CURVE('',#174,#180,#101,.T.);
#218=EDGE_CURVE('',#180,#180,#145,.T.);
#219=EDGE_CURVE('',#181,#181,#146,.T.);
#220=EDGE_CURVE('',#181,#182,#102,.T.);
#221=EDGE_CURVE('',#182,#182,#147,.T.);
#222=EDGE_CURVE('',#183,#184,#148,.T.);
#223=EDGE_CURVE('',#184,#183,#149,.T.);
#224=EDGE_CURVE('',#184,#185,#103,.T.);
#225=EDGE_CURVE('',#185,#185,#150,.T.);
#226=EDGE_CURVE('',#186,#186,#151,.T.);
#227=EDGE_CURVE('',#186,#187,#104,.T.);
#228=EDGE_CURVE('',#187,#187,#152,.T.);
#229=EDGE_CURVE('',#188,#189,#153,.T.);
#230=EDGE_CURVE('',#189,#188,#154,.T.);
#231=EDGE_CURVE('',#189,#190,#105,.T.);
#232=EDGE_CURVE('',#190,#190,#155,.T.);
#233=EDGE_CURVE('',#188,#191,#106,.T.);
#234=EDGE_CURVE('',#191,#191,#156,.T.);
#235=EDGE_CURVE('',#191,#192,#107,.T.);
#236=EDGE_CURVE('',#192,#192,#157,.T.);
#237=EDGE_CURVE('',#193,#194,#158,.T.);
#238=EDGE_CURVE('',#194,#193,#159,.T.);
#239=EDGE_CURVE('',#194,#195,#108,.T.);
#240=EDGE_CURVE('',#195,#195,#160,.T.);
#241=EDGE_CURVE('',#193,#196,#109,.T.);
#242=EDGE_CURVE('',#196,#196,#161,.T.);
#243=EDGE_CURVE('',#196,#197,#110,.T.);
#244=EDGE_CURVE('',#197,#197,#162,.T.);
#245=EDGE_CURVE('',#198,#199,#163,.T.);
#246=EDGE_CURVE('',#199,#198,#164,.T.);
#247=EDGE_CURVE('',#199,#200,#111,.T.);
#248=EDGE_CURVE('',#200,#200,#165,.T.);
#249=EDGE_CURVE('',#198,#201,#112,.T.);
#250=EDGE_CURVE('',#201,#201,#166,.T.);
#251=EDGE_CURVE('',#201,#202,#113,.T.);
#252=EDGE_CURVE('',#202,#202,#167,.T.);
#253=EDGE_CURVE('',#203,#204,#168,.T.);
#254=EDGE_CURVE('',#204,#203,#169,.T.);
#255=EDGE_CURVE('',#204,#205,#114,.T.);
#256=EDGE_CURVE('',#205,#205,#170,.T.);
#257=EDGE_CURVE('',#206,#206,#171,.T.);
#258=EDGE_CURVE('',#206,#207,#115,.T.);
#259=EDGE_CURVE('',#207,#207,#172,.T.);
#260=EDGE_CURVE('',#203,#206,#116,.T.);
#261=EDGE_CURVE('',#183,#186,#117,.T.);
#262=EDGE_CURVE('',#208,#208,#173,.T.);
#263=EDGE_CURVE('',#208,#179,#118,.T.);
#264=ORIENTED_EDGE('',*,*,#209,.F.);
#265=ORIENTED_EDGE('',*,*,#210,.F.);
#266=ORIENTED_EDGE('',*,*,#211,.T.);
#267=ORIENTED_EDGE('',*,*,#212,.F.);
#268=ORIENTED_EDGE('',*,*,#211,.F.);
#269=ORIENTED_EDGE('',*,*,#213,.F.);
#270=ORIENTED_EDGE('',*,*,#214,.T.);
#271=ORIENTED_EDGE('',*,*,#215,.F.);
#272=ORIENTED_EDGE('',*,*,#216,.F.);
#273=ORIENTED_EDGE('',*,*,#214,.F.);
#274=ORIENTED_EDGE('',*,*,#209,.T.);
#275=ORIENTED_EDGE('',*,*,#210,.T.);
#276=ORIENTED_EDGE('',*,*,#217,.T.);
#277=ORIENTED_EDGE('',*,*,#218,.T.);
#278=ORIENTED_EDGE('',*,*,#217,.F.);
#279=ORIENTED_EDGE('',*,*,#219,.F.);
#280=ORIENTED_EDGE('',*,*,#220,.T.);
#281=ORIENTED_EDGE('',*,*,#221,.T.);
#282=ORIENTED_EDGE('',*,*,#220,.F.);
#283=ORIENTED_EDGE('',*,*,#222,.F.);
#284=ORIENTED_EDGE('',*,*,#223,.F.);
#285=ORIENTED_EDGE('',*,*,#224,.T.);
#286=ORIENTED_EDGE('',*,*,#225,.F.);
#287=ORIENTED_EDGE('',*,*,#224,.F.);
#288=ORIENTED_EDGE('',*,*,#226,.F.);
#289=ORIENTED_EDGE('',*,*,#227,.T.);
#290=ORIENTED_EDGE('',*,*,#228,.F.);
#291=ORIENTED_EDGE('',*,*,#227,.F.);
#292=ORIENTED_EDGE('',*,*,#229,.F.);
#293=ORIENTED_EDGE('',*,*,#230,.F.);
#294=ORIENTED_EDGE('',*,*,#231,.T.);
#295=ORIENTED_EDGE('',*,*,#232,.F.);
#296=ORIENTED_EDGE('',*,*,#231,.F.);
#297=ORIENTED_EDGE('',*,*,#229,.T.);
#298=ORIENTED_EDGE('',*,*,#230,.T.);
#299=ORIENTED_EDGE('',*,*,#233,.T.);
#300=ORIENTED_EDGE('',*,*,#234,.T.);
#301=ORIENTED_EDGE('',*,*,#233,.F.);
#302=ORIENTED_EDGE('',*,*,#234,.F.);
#303=ORIENTED_EDGE('',*,*,#235,.T.);
#304=ORIENTED_EDGE('',*,*,#236,.F.);
#305=ORIENTED_EDGE('',*,*,#235,.F.);
#306=ORIENTED_EDGE('',*,*,#237,.F.);
#307=ORIENTED_EDGE('',*,*,#238,.F.);
#308=ORIENTED_EDGE('',*,*,#239,.T.);
#309=ORIENTED_EDGE('',*,*,#240,.F.);
#310=ORIENTED_EDGE('',*,*,#239,.F.);
#311=ORIENTED_EDGE('',*,*,#237,.T.);
#312=ORIENTED_EDGE('',*,*,#238,.T.);
#313=ORIENTED_EDGE('',*,*,#241,.T.);
#314=ORIENTED_EDGE('',*,*,#242,.T.);
#315=ORIENTED_EDGE('',*,*,#241,.F.);
#316=ORIENTED_EDGE('',*,*,#242,.F.);
#317=ORIENTED_EDGE('',*,*,#243,.T.);
#318=ORIENTED_EDGE('',*,*,#244,.F.);
#319=ORIENTED_EDGE('',*,*,#243,.F.);
#320=ORIENTED_EDGE('',*,*,#245,.F.);
#321=ORIENTED_EDGE('',*,*,#246,.F.);
#322=ORIENTED_EDGE('',*,*,#247,.T.);
#323=ORIENTED_EDGE('',*,*,#248,.F.);
#324=ORIENTED_EDGE('',*,*,#247,.F.);
#325=ORIENTED_EDGE('',*,*,#245,.T.);
#326=ORIENTED_EDGE('',*,*,#246,.T.);
#327=ORIENTED_EDGE('',*,*,#249,.T.);
#328=ORIENTED_EDGE('',*,*,#250,.T.);
#329=ORIENTED_EDGE('',*,*,#249,.F.);
#330=ORIENTED_EDGE('',*,*,#250,.F.);
#331=ORIENTED_EDGE('',*,*,#251,.T.);
#332=ORIENTED_EDGE('',*,*,#252,.F.);
#333=ORIENTED_EDGE('',*,*,#251,.F.);
#334=ORIENTED_EDGE('',*,*,#253,.F.);
#335=ORIENTED_EDGE('',*,*,#254,.F.);
#336=ORIENTED_EDGE('',*,*,#255,.T.);
#337=ORIENTED_EDGE('',*,*,#256,.F.);
#338=ORIENTED_EDGE('',*,*,#255,.F.);
#339=ORIENTED_EDGE('',*,*,#257,.F.);
#340=ORIENTED_EDGE('',*,*,#258,.T.);
#341=ORIENTED_EDGE('',*,*,#259,.F.);
#342=ORIENTED_EDGE('',*,*,#258,.F.);
#343=ORIENTED_EDGE('',*,*,#253,.T.);
#344=ORIENTED_EDGE('',*,*,#254,.T.);
#345=ORIENTED_EDGE('',*,*,#260,.T.);
#346=ORIENTED_EDGE('',*,*,#257,.T.);
#347=ORIENTED_EDGE('',*,*,#260,.F.);
#348=ORIENTED_EDGE('',*,*,#222,.T.);
#349=ORIENTED_EDGE('',*,*,#223,.T.);
#350=ORIENTED_EDGE('',*,*,#261,.T.);
#351=ORIENTED_EDGE('',*,*,#226,.T.);
#352=ORIENTED_EDGE('',*,*,#261,.F.);
#353=ORIENTED_EDGE('',*,*,#262,.F.);
#354=ORIENTED_EDGE('',*,*,#263,.T.);
#355=ORIENTED_EDGE('',*,*,#215,.T.);
#356=ORIENTED_EDGE('',*,*,#216,.T.);
#357=ORIENTED_EDGE('',*,*,#263,.F.);
#358=ORIENTED_EDGE('',*,*,#225,.T.);
#359=ORIENTED_EDGE('',*,*,#240,.T.);
#360=ORIENTED_EDGE('',*,*,#256,.T.);
#361=ORIENTED_EDGE('',*,*,#248,.T.);
#362=ORIENTED_EDGE('',*,*,#232,.T.);
#363=ORIENTED_EDGE('',*,*,#213,.T.);
#364=ORIENTED_EDGE('',*,*,#228,.T.);
#365=ORIENTED_EDGE('',*,*,#244,.T.);
#366=ORIENTED_EDGE('',*,*,#259,.T.);
#367=ORIENTED_EDGE('',*,*,#252,.T.);
#368=ORIENTED_EDGE('',*,*,#236,.T.);
#369=ORIENTED_EDGE('',*,*,#212,.T.);
#370=ORIENTED_EDGE('',*,*,#262,.T.);
#371=ORIENTED_EDGE('',*,*,#219,.T.);
#372=ORIENTED_EDGE('',*,*,#218,.F.);
#373=ORIENTED_EDGE('',*,*,#221,.F.);
#374=CONICAL_SURFACE('',#423,32.2464101615138,0.523598775598298);
#375=CONICAL_SURFACE('',#437,64.7,0.785398163397448);
#376=CONICAL_SURFACE('',#441,65.,0.785398163397448);
#377=CONICAL_SURFACE('',#444,4.8,0.785398163397469);
#378=CONICAL_SURFACE('',#450,4.5,0.785398163397481);
#379=CONICAL_SURFACE('',#452,4.8,0.785398163397469);
#380=CONICAL_SURFACE('',#458,4.5,0.785398163397481);
#381=CONICAL_SURFACE('',#460,4.8,0.785398163397469);
#382=CONICAL_SURFACE('',#466,4.5,0.785398163397481);
#383=CONICAL_SURFACE('',#468,4.8,0.785398163397469);
#384=CONICAL_SURFACE('',#472,4.5,0.785398163397481);
#385=ADVANCED_FACE('',(#40),#374,.F.);
#386=ADVANCED_FACE('',(#41),#39,.T.);
#387=ADVANCED_FACE('',(#42),#31,.F.);
#388=ADVANCED_FACE('',(#43),#32,.F.);
#389=ADVANCED_FACE('',(#44),#375,.T.);
#390=ADVANCED_FACE('',(#45),#376,.T.);
#391=ADVANCED_FACE('',(#46),#377,.F.);
#392=ADVANCED_FACE('',(#47),#33,.F.);
#393=ADVANCED_FACE('',(#48),#378,.F.);
#394=ADVANCED_FACE('',(#49),#379,.F.);
#395=ADVANCED_FACE('',(#50),#34,.F.);
#396=ADVANCED_FACE('',(#51),#380,.F.);
#397=ADVANCED_FACE('',(#52),#381,.F.);
#398=ADVANCED_FACE('',(#53),#35,.F.);
#399=ADVANCED_FACE('',(#54),#382,.F.);
#400=ADVANCED_FACE('',(#55),#383,.F.);
#401=ADVANCED_FACE('',(#56),#384,.F.);
#402=ADVANCED_FACE('',(#57),#36,.F.);
#403=ADVANCED_FACE('',(#58),#37,.T.);
#404=ADVANCED_FACE('',(#59),#38,.F.);
#405=ADVANCED_FACE('',(#60,#15,#16,#17,#18,#19),#27,.F.);
#406=ADVANCED_FACE('',(#61,#20,#21,#22,#23,#24),#28,.F.);
#407=ADVANCED_FACE('',(#62,#25),#29,.F.);
#408=ADVANCED_FACE('',(#63,#26),#30,.F.);
#409=CLOSED_SHELL('',(#385,#386,#387,#388,#389,#390,#391,#392,#393,#394,
#395,#396,#397,#398,#399,#400,#401,#402,#403,#404,#405,#406,#407,#408));
#410=DERIVED_UNIT_ELEMENT(#412,1.);
#411=DERIVED_UNIT_ELEMENT(#744,-3.);
#412=(
MASS_UNIT()
NAMED_UNIT(*)
SI_UNIT(.KILO.,.GRAM.)
);
#413=DERIVED_UNIT((#410,#411));
#414=MEASURE_REPRESENTATION_ITEM('density measure',
POSITIVE_RATIO_MEASURE(7850.),#413);
#415=PROPERTY_DEFINITION_REPRESENTATION(#420,#417);
#416=PROPERTY_DEFINITION_REPRESENTATION(#421,#418);
#417=REPRESENTATION('material name',(#419),#741);
#418=REPRESENTATION('density',(#414),#741);
#419=DESCRIPTIVE_REPRESENTATION_ITEM('Steel','Steel');
#420=PROPERTY_DEFINITION('material property','material name',#751);
#421=PROPERTY_DEFINITION('material property','density of part',#751);
#422=AXIS2_PLACEMENT_3D('',#624,#483,#484);
#423=AXIS2_PLACEMENT_3D('',#625,#485,#486);
#424=AXIS2_PLACEMENT_3D('',#628,#487,#488);
#425=AXIS2_PLACEMENT_3D('',#629,#489,#490);
#426=AXIS2_PLACEMENT_3D('',#632,#492,#493);
#427=AXIS2_PLACEMENT_3D('',#633,#494,#495);
#428=AXIS2_PLACEMENT_3D('',#635,#496,#497);
#429=AXIS2_PLACEMENT_3D('',#637,#498,#499);
#430=AXIS2_PLACEMENT_3D('',#639,#500,#501);
#431=AXIS2_PLACEMENT_3D('',#640,#502,#503);
#432=AXIS2_PLACEMENT_3D('',#641,#504,#505);
#433=AXIS2_PLACEMENT_3D('',#644,#507,#508);
#434=AXIS2_PLACEMENT_3D('',#645,#509,#510);
#435=AXIS2_PLACEMENT_3D('',#647,#511,#512);
#436=AXIS2_PLACEMENT_3D('',#650,#514,#515);
#437=AXIS2_PLACEMENT_3D('',#651,#516,#517);
#438=AXIS2_PLACEMENT_3D('',#654,#518,#519);
#439=AXIS2_PLACEMENT_3D('',#655,#520,#521);
#440=AXIS2_PLACEMENT_3D('',#658,#523,#524);
#441=AXIS2_PLACEMENT_3D('',#659,#525,#526);
#442=AXIS2_PLACEMENT_3D('',#661,#527,#528);
#443=AXIS2_PLACEMENT_3D('',#664,#530,#531);
#444=AXIS2_PLACEMENT_3D('',#665,#532,#533);
#445=AXIS2_PLACEMENT_3D('',#668,#534,#535);
#446=AXIS2_PLACEMENT_3D('',#669,#536,#537);
#447=AXIS2_PLACEMENT_3D('',#672,#539,#540);
#448=AXIS2_PLACEMENT_3D('',#673,#541,#542);
#449=AXIS2_PLACEMENT_3D('',#676,#544,#545);
#450=AXIS2_PLACEMENT_3D('',#677,#546,#547);
#451=AXIS2_PLACEMENT_3D('',#680,#549,#550);
#452=AXIS2_PLACEMENT_3D('',#681,#551,#552);
#453=AXIS2_PLACEMENT_3D('',#684,#553,#554);
#454=AXIS2_PLACEMENT_3D('',#685,#555,#556);
#455=AXIS2_PLACEMENT_3D('',#688,#558,#559);
#456=AXIS2_PLACEMENT_3D('',#689,#560,#561);
#457=AXIS2_PLACEMENT_3D('',#692,#563,#564);
#458=AXIS2_PLACEMENT_3D('',#693,#565,#566);
#459=AXIS2_PLACEMENT_3D('',#696,#568,#569);
#460=AXIS2_PLACEMENT_3D('',#697,#570,#571);
#461=AXIS2_PLACEMENT_3D('',#700,#572,#573);
#462=AXIS2_PLACEMENT_3D('',#701,#574,#575);
#463=AXIS2_PLACEMENT_3D('',#704,#577,#578);
#464=AXIS2_PLACEMENT_3D('',#705,#579,#580);
#465=AXIS2_PLACEMENT_3D('',#708,#582,#583);
#466=AXIS2_PLACEMENT_3D('',#709,#584,#585);
#467=AXIS2_PLACEMENT_3D('',#712,#587,#588);
#468=AXIS2_PLACEMENT_3D('',#713,#589,#590);
#469=AXIS2_PLACEMENT_3D('',#716,#591,#592);
#470=AXIS2_PLACEMENT_3D('',#717,#593,#594);
#471=AXIS2_PLACEMENT_3D('',#720,#596,#597);
#472=AXIS2_PLACEMENT_3D('',#721,#598,#599);
#473=AXIS2_PLACEMENT_3D('',#723,#600,#601);
#474=AXIS2_PLACEMENT_3D('',#726,#603,#604);
#475=AXIS2_PLACEMENT_3D('',#727,#605,#606);
#476=AXIS2_PLACEMENT_3D('',#729,#608,#609);
#477=AXIS2_PLACEMENT_3D('',#731,#611,#612);
#478=AXIS2_PLACEMENT_3D('',#733,#613,#614);
#479=AXIS2_PLACEMENT_3D('',#735,#616,#617);
#480=AXIS2_PLACEMENT_3D('',#736,#618,#619);
#481=AXIS2_PLACEMENT_3D('',#737,#620,#621);
#482=AXIS2_PLACEMENT_3D('',#738,#622,#623);
#483=DIRECTION('axis',(0.,0.,1.));
#484=DIRECTION('refdir',(1.,0.,0.));
#485=DIRECTION('center_axis',(0.,1.,0.));
#486=DIRECTION('ref_axis',(0.,0.,1.));
#487=DIRECTION('center_axis',(0.,1.,0.));
#488=DIRECTION('ref_axis',(0.,0.,-1.));
#489=DIRECTION('center_axis',(0.,1.,0.));
#490=DIRECTION('ref_axis',(0.,0.,-1.));
#491=DIRECTION('',(-6.12323399573676E-17,0.866025403784439,-0.5));
#492=DIRECTION('center_axis',(0.,-1.,0.));
#493=DIRECTION('ref_axis',(0.,0.,-1.));
#494=DIRECTION('center_axis',(0.,1.,0.));
#495=DIRECTION('ref_axis',(0.,0.,1.));
#496=DIRECTION('center_axis',(0.,1.,0.));
#497=DIRECTION('ref_axis',(0.,0.,1.));
#498=DIRECTION('center_axis',(-1.,0.,1.22464679914735E-16));
#499=DIRECTION('ref_axis',(-1.22464679914735E-16,0.,-1.));
#500=DIRECTION('center_axis',(0.,-1.,0.));
#501=DIRECTION('ref_axis',(0.,0.,1.));
#502=DIRECTION('center_axis',(0.,-1.,0.));
#503=DIRECTION('ref_axis',(0.,0.,1.));
#504=DIRECTION('center_axis',(0.,-1.,0.));
#505=DIRECTION('ref_axis',(0.,0.,-1.));
#506=DIRECTION('',(0.,-1.,0.));
#507=DIRECTION('center_axis',(0.,-1.,0.));
#508=DIRECTION('ref_axis',(0.,0.,-1.));
#509=DIRECTION('center_axis',(0.,1.,0.));
#510=DIRECTION('ref_axis',(0.,0.,1.));
#511=DIRECTION('center_axis',(0.,1.,0.));
#512=DIRECTION('ref_axis',(0.,0.,1.));
#513=DIRECTION('',(0.,1.,0.));
#514=DIRECTION('center_axis',(0.,1.,0.));
#515=DIRECTION('ref_axis',(0.,0.,-1.));
#516=DIRECTION('center_axis',(0.,1.,0.));
#517=DIRECTION('ref_axis',(0.,0.,1.));
#518=DIRECTION('center_axis',(0.,1.,0.));
#519=DIRECTION('ref_axis',(0.,0.,1.));
#520=DIRECTION('center_axis',(0.,1.,0.));
#521=DIRECTION('ref_axis',(0.,0.,1.));
#522=DIRECTION('',(8.65956056235493E-17,-0.707106781186548,0.707106781186548));
#523=DIRECTION('center_axis',(0.,-1.,0.));
#524=DIRECTION('ref_axis',(0.,0.,1.));
#525=DIRECTION('center_axis',(0.,-1.,0.));
#526=DIRECTION('ref_axis',(0.,0.,-1.));
#527=DIRECTION('center_axis',(0.,-1.,0.));
#528=DIRECTION('ref_axis',(0.,0.,-1.));
#529=DIRECTION('',(8.65956056235493E-17,0.707106781186547,-0.707106781186547));
#530=DIRECTION('center_axis',(0.,1.,0.));
#531=DIRECTION('ref_axis',(0.,0.,-1.));
#532=DIRECTION('center_axis',(0.,-1.,0.));
#533=DIRECTION('ref_axis',(-1.,0.,-1.04744440165294E-14));
#534=DIRECTION('center_axis',(0.,-1.,0.));
#535=DIRECTION('ref_axis',(1.,0.,1.04744440165294E-14));
#536=DIRECTION('center_axis',(0.,-1.,0.));
#537=DIRECTION('ref_axis',(1.,0.,1.04744440165294E-14));
#538=DIRECTION('',(0.707106781186562,-0.707106781186533,7.49314599887049E-15));
#539=DIRECTION('center_axis',(0.,1.,0.));
#540=DIRECTION('ref_axis',(1.,0.,1.04744440165294E-14));
#541=DIRECTION('center_axis',(0.,1.,0.));
#542=DIRECTION('ref_axis',(1.,0.,1.04744440165294E-14));
#543=DIRECTION('',(0.,1.,0.));
#544=DIRECTION('center_axis',(0.,1.,0.));
#545=DIRECTION('ref_axis',(-1.,0.,-1.04744440165294E-14));
#546=DIRECTION('center_axis',(0.,1.,0.));
#547=DIRECTION('ref_axis',(1.,0.,1.04744440165294E-14));
#548=DIRECTION('',(-0.707106781186571,0.707106781186524,-7.31995478762349E-15));
#549=DIRECTION('center_axis',(0.,-1.,0.));
#550=DIRECTION('ref_axis',(-1.,0.,-1.04744440165294E-14));
#551=DIRECTION('center_axis',(0.,-1.,0.));
#552=DIRECTION('ref_axis',(0.,0.,1.));
#553=DIRECTION('center_axis',(0.,-1.,0.));
#554=DIRECTION('ref_axis',(0.,0.,-1.));
#555=DIRECTION('center_axis',(0.,-1.,0.));
#556=DIRECTION('ref_axis',(0.,0.,-1.));
#557=DIRECTION('',(8.65956056235511E-17,-0.707106781186533,-0.707106781186562));
#558=DIRECTION('center_axis',(0.,1.,0.));
#559=DIRECTION('ref_axis',(0.,0.,-1.));
#560=DIRECTION('center_axis',(0.,1.,0.));
#561=DIRECTION('ref_axis',(0.,0.,-1.));
#562=DIRECTION('',(0.,1.,0.));
#563=DIRECTION('center_axis',(0.,1.,0.));
#564=DIRECTION('ref_axis',(0.,0.,1.));
#565=DIRECTION('center_axis',(0.,1.,0.));
#566=DIRECTION('ref_axis',(0.,0.,-1.));
#567=DIRECTION('',(8.65956056235522E-17,0.707106781186524,0.707106781186571));
#568=DIRECTION('center_axis',(0.,-1.,0.));
#569=DIRECTION('ref_axis',(0.,0.,1.));
#570=DIRECTION('center_axis',(0.,-1.,0.));
#571=DIRECTION('ref_axis',(1.,0.,3.49148133884313E-15));
#572=DIRECTION('center_axis',(0.,-1.,0.));
#573=DIRECTION('ref_axis',(-1.,0.,-3.49148133884314E-15));
#574=DIRECTION('center_axis',(0.,-1.,0.));
#575=DIRECTION('ref_axis',(-1.,0.,-3.49148133884314E-15));
#576=DIRECTION('',(-0.707106781186562,-0.707106781186533,-2.55544573670587E-15));
#577=DIRECTION('center_axis',(0.,1.,0.));
#578=DIRECTION('ref_axis',(-1.,0.,-3.49148133884313E-15));
#579=DIRECTION('center_axis',(0.,1.,0.));
#580=DIRECTION('ref_axis',(-1.,0.,-3.49148133884314E-15));
#581=DIRECTION('',(0.,1.,0.));
#582=DIRECTION('center_axis',(0.,1.,0.));
#583=DIRECTION('ref_axis',(1.,0.,3.49148133884314E-15));
#584=DIRECTION('center_axis',(0.,1.,0.));
#585=DIRECTION('ref_axis',(-1.,0.,-3.49148133884314E-15));
#586=DIRECTION('',(0.707106781186571,0.707106781186524,2.3822545254588E-15));
#587=DIRECTION('center_axis',(0.,-1.,0.));
#588=DIRECTION('ref_axis',(1.,0.,3.49148133884313E-15));
#589=DIRECTION('center_axis',(0.,-1.,0.));
#590=DIRECTION('ref_axis',(0.,0.,-1.));
#591=DIRECTION('center_axis',(0.,-1.,0.));
#592=DIRECTION('ref_axis',(0.,0.,1.));
#593=DIRECTION('center_axis',(0.,-1.,0.));
#594=DIRECTION('ref_axis',(0.,0.,1.));
#595=DIRECTION('',(-8.65956056235511E-17,-0.707106781186533,0.707106781186562));
#596=DIRECTION('center_axis',(0.,1.,0.));
#597=DIRECTION('ref_axis',(0.,0.,1.));
#598=DIRECTION('center_axis',(0.,1.,0.));
#599=DIRECTION('ref_axis',(0.,0.,1.));
#600=DIRECTION('center_axis',(0.,1.,0.));
#601=DIRECTION('ref_axis',(0.,0.,-1.));
#602=DIRECTION('',(-8.65956056235522E-17,0.707106781186524,-0.707106781186571));
#603=DIRECTION('center_axis',(0.,-1.,0.));
#604=DIRECTION('ref_axis',(0.,0.,-1.));
#605=DIRECTION('center_axis',(0.,1.,0.));
#606=DIRECTION('ref_axis',(0.,0.,1.));
#607=DIRECTION('',(0.,1.,0.));
#608=DIRECTION('center_axis',(0.,-1.,0.));
#609=DIRECTION('ref_axis',(0.,0.,-1.));
#610=DIRECTION('',(0.,1.,0.));
#611=DIRECTION('center_axis',(0.,-1.,0.));
#612=DIRECTION('ref_axis',(0.,0.,-1.));
#613=DIRECTION('center_axis',(0.,-1.,0.));
#614=DIRECTION('ref_axis',(0.,0.,-1.));
#615=DIRECTION('',(0.,-1.,0.));
#616=DIRECTION('center_axis',(0.,1.,0.));
#617=DIRECTION('ref_axis',(0.,0.,1.));
#618=DIRECTION('center_axis',(0.,-1.,0.));
#619=DIRECTION('ref_axis',(0.,0.,-1.));
#620=DIRECTION('center_axis',(0.,1.,0.));
#621=DIRECTION('ref_axis',(0.,0.,1.));
#622=DIRECTION('center_axis',(0.,-1.,0.));
#623=DIRECTION('ref_axis',(0.,0.,-1.));
#624=CARTESIAN_POINT('',(0.,0.,0.));
#625=CARTESIAN_POINT('Origin',(0.,12.,0.));
#626=CARTESIAN_POINT('',(3.90662328928006E-15,11.4,31.9));
#627=CARTESIAN_POINT('',(-3.90662328928006E-15,11.4,-31.9));
#628=CARTESIAN_POINT('Origin',(0.,11.4,0.));
#629=CARTESIAN_POINT('Origin',(0.,11.4,0.));
#630=CARTESIAN_POINT('',(-3.94904629882905E-15,12.,-32.2464101615138));
#631=CARTESIAN_POINT('',(-3.94904629882905E-15,12.,-32.2464101615138));
#632=CARTESIAN_POINT('Origin',(0.,12.,0.));
#633=CARTESIAN_POINT('Origin',(0.,0.299999999999995,0.));
#634=CARTESIAN_POINT('',(-4.32300320099016E-15,-6.1409211049579E-15,-35.3));
#635=CARTESIAN_POINT('Origin',(0.,-6.1257422745431E-15,0.));
#636=CARTESIAN_POINT('',(-4.28626379701574E-15,0.299999999999995,-35.));
#637=CARTESIAN_POINT('Origin',(-4.32300320099016E-15,0.299999999999995,
-35.3));
#638=CARTESIAN_POINT('',(4.28626379701574E-15,0.299999999999995,35.));
#639=CARTESIAN_POINT('Origin',(0.,0.299999999999995,0.));
#640=CARTESIAN_POINT('Origin',(0.,0.299999999999995,0.));
#641=CARTESIAN_POINT('Origin',(0.,12.,0.));
#642=CARTESIAN_POINT('',(-3.90662328928006E-15,6.5,31.9));
#643=CARTESIAN_POINT('',(-3.90662328928006E-15,12.,31.9));
#644=CARTESIAN_POINT('Origin',(0.,6.5,0.));
#645=CARTESIAN_POINT('Origin',(0.,-6.93889390390723E-15,0.));
#646=CARTESIAN_POINT('',(-3.69231009942927E-15,4.49999999999999,-30.15));
#647=CARTESIAN_POINT('Origin',(0.,4.49999999999999,0.));
#648=CARTESIAN_POINT('',(-3.69231009942927E-15,6.5,-30.15));
#649=CARTESIAN_POINT('',(-3.69231009942927E-15,-6.93889390390723E-15,-30.15));
#650=CARTESIAN_POINT('Origin',(0.,6.5,0.));
#651=CARTESIAN_POINT('Origin',(0.,-6.93889390390723E-15,0.));
#652=CARTESIAN_POINT('',(7.9602041944578E-15,0.29999999999996,65.));
#653=CARTESIAN_POINT('',(-7.9602041944578E-15,0.29999999999996,-65.));
#654=CARTESIAN_POINT('Origin',(0.,0.29999999999996,0.));
#655=CARTESIAN_POINT('Origin',(0.,0.29999999999996,0.));
#656=CARTESIAN_POINT('',(-7.92346479048338E-15,-7.62681015482512E-15,-64.7));
#657=CARTESIAN_POINT('',(-7.92346479048338E-15,-6.93889390390723E-15,-64.7));
#658=CARTESIAN_POINT('Origin',(0.,-6.12323399573677E-15,0.));
#659=CARTESIAN_POINT('Origin',(0.,11.7,0.));
#660=CARTESIAN_POINT('',(-7.9602041944578E-15,11.7,65.));
#661=CARTESIAN_POINT('Origin',(0.,11.7,0.));
#662=CARTESIAN_POINT('',(-7.92346479048337E-15,12.,64.7));
#663=CARTESIAN_POINT('',(-7.9602041944578E-15,11.7,65.));
#664=CARTESIAN_POINT('Origin',(0.,12.,0.));
#665=CARTESIAN_POINT('Origin',(-55.,-6.12323399573677E-15,-5.76094420909117E-13));
#666=CARTESIAN_POINT('',(-59.5,0.299999999999983,-6.23780510043116E-13));
#667=CARTESIAN_POINT('',(-50.5,0.299999999999986,-5.28408331775118E-13));
#668=CARTESIAN_POINT('Origin',(-55.,0.299999999999983,-5.76094420909117E-13));
#669=CARTESIAN_POINT('Origin',(-55.,0.299999999999983,-5.76094420909117E-13));
#670=CARTESIAN_POINT('',(-50.2,-7.27790311237479E-15,-5.25229259166185E-13));
#671=CARTESIAN_POINT('',(-50.2,-6.12323399573677E-15,-5.25229259166185E-13));
#672=CARTESIAN_POINT('Origin',(-55.,-6.12323399573677E-15,-5.76094420909117E-13));
#673=CARTESIAN_POINT('Origin',(-55.,-8.67361737988404E-15,-5.76094420909117E-13));
#674=CARTESIAN_POINT('',(-59.5,11.7,-6.22678327923883E-13));
#675=CARTESIAN_POINT('',(-59.5,-8.67361737988404E-15,-6.22678327923883E-13));
#676=CARTESIAN_POINT('Origin',(-55.,11.7,-5.76094420909117E-13));
#677=CARTESIAN_POINT('Origin',(-55.,11.7,-5.76094420909117E-13));
#678=CARTESIAN_POINT('',(-59.8,12.,-6.25783921724868E-13));
#679=CARTESIAN_POINT('',(-59.5,11.7,-6.22678327923883E-13));
#680=CARTESIAN_POINT('Origin',(-55.,12.,-5.76094420909117E-13));
#681=CARTESIAN_POINT('Origin',(0.,-6.12323399573677E-15,55.));
#682=CARTESIAN_POINT('',(-5.51091059616309E-16,0.299999999999983,59.5));
#683=CARTESIAN_POINT('',(5.51091059616308E-16,0.299999999999985,50.5));
#684=CARTESIAN_POINT('Origin',(0.,0.299999999999983,55.));
#685=CARTESIAN_POINT('Origin',(0.,0.299999999999983,55.));
#686=CARTESIAN_POINT('',(5.87830463590729E-16,-6.30790638233406E-15,50.2));
#687=CARTESIAN_POINT('',(5.87830463590729E-16,-6.12323399573677E-15,50.2));
#688=CARTESIAN_POINT('Origin',(0.,-6.12323399573677E-15,55.));
#689=CARTESIAN_POINT('Origin',(0.,-8.67361737988404E-15,55.));
#690=CARTESIAN_POINT('',(5.51091059616309E-16,11.7,59.5));
#691=CARTESIAN_POINT('',(5.51091059616309E-16,-8.67361737988404E-15,59.5));
#692=CARTESIAN_POINT('Origin',(0.,11.7,55.));
#693=CARTESIAN_POINT('Origin',(0.,11.7,55.));
#694=CARTESIAN_POINT('',(5.87830463590733E-16,12.,59.8));
#695=CARTESIAN_POINT('',(5.51091059616309E-16,11.7,59.5));
#696=CARTESIAN_POINT('Origin',(0.,12.,55.));
#697=CARTESIAN_POINT('Origin',(55.,-6.12323399573677E-15,1.92031473636372E-13));
#698=CARTESIAN_POINT('',(59.5,0.299999999999983,2.08294230720783E-13));
#699=CARTESIAN_POINT('',(50.5,0.299999999999985,1.75768716551962E-13));
#700=CARTESIAN_POINT('Origin',(55.,0.299999999999983,1.92031473636372E-13));
#701=CARTESIAN_POINT('Origin',(55.,0.299999999999983,1.92031473636372E-13));
#702=CARTESIAN_POINT('',(50.2,-6.30790638233406E-15,1.74684532746335E-13));
#703=CARTESIAN_POINT('',(50.2,-6.12323399573677E-15,1.74684532746335E-13));
#704=CARTESIAN_POINT('Origin',(55.,-6.12323399573677E-15,1.92031473636372E-13));
#705=CARTESIAN_POINT('Origin',(55.,-8.67361737988404E-15,1.92031473636372E-13));
#706=CARTESIAN_POINT('',(59.5,11.7,2.0719204860155E-13));
#707=CARTESIAN_POINT('',(59.5,-8.67361737988404E-15,2.0719204860155E-13));
#708=CARTESIAN_POINT('Origin',(55.,11.7,1.92031473636372E-13));
#709=CARTESIAN_POINT('Origin',(55.,11.7,1.92031473636372E-13));
#710=CARTESIAN_POINT('',(59.8,12.,2.08202753599229E-13));
#711=CARTESIAN_POINT('',(59.5,11.7,2.0719204860155E-13));
#712=CARTESIAN_POINT('Origin',(55.,12.,1.92031473636372E-13));
#713=CARTESIAN_POINT('Origin',(0.,-6.12323399573677E-15,-55.));
#714=CARTESIAN_POINT('',(5.51091059616309E-16,0.299999999999983,-59.5));
#715=CARTESIAN_POINT('',(-5.51091059616308E-16,0.299999999999985,-50.5));
#716=CARTESIAN_POINT('Origin',(0.,0.299999999999983,-55.));
#717=CARTESIAN_POINT('Origin',(0.,0.299999999999983,-55.));
#718=CARTESIAN_POINT('',(-5.87830463590729E-16,-6.30790638233406E-15,-50.2));
#719=CARTESIAN_POINT('',(-5.87830463590729E-16,-6.12323399573677E-15,-50.2));
#720=CARTESIAN_POINT('Origin',(0.,-6.12323399573677E-15,-55.));
#721=CARTESIAN_POINT('Origin',(0.,11.7,-55.));
#722=CARTESIAN_POINT('',(-5.51091059616308E-16,11.7,-59.5));
#723=CARTESIAN_POINT('Origin',(0.,11.7,-55.));
#724=CARTESIAN_POINT('',(-5.87830463590733E-16,12.,-59.8));
#725=CARTESIAN_POINT('',(-5.51091059616309E-16,11.7,-59.5));
#726=CARTESIAN_POINT('Origin',(0.,12.,-55.));
#727=CARTESIAN_POINT('Origin',(0.,-8.67361737988404E-15,-55.));
#728=CARTESIAN_POINT('',(-5.51091059616309E-16,-8.67361737988404E-15,-59.5));
#729=CARTESIAN_POINT('Origin',(0.,-18.1579199897316,0.));
#730=CARTESIAN_POINT('',(-7.9602041944578E-15,-18.1579199897316,65.));
#731=CARTESIAN_POINT('Origin',(0.,-18.1579199897316,0.));
#732=CARTESIAN_POINT('',(-4.28626379701574E-15,4.49999999999999,35.));
#733=CARTESIAN_POINT('Origin',(0.,4.49999999999999,0.));
#734=CARTESIAN_POINT('',(-4.28626379701574E-15,-18.1579199897316,35.));
#735=CARTESIAN_POINT('Origin',(-35.,-6.12323399573677E-15,0.));
#736=CARTESIAN_POINT('Origin',(-65.,12.,0.));
#737=CARTESIAN_POINT('Origin',(-35.,4.49999999999999,0.));
#738=CARTESIAN_POINT('Origin',(0.,6.5,0.));
#739=UNCERTAINTY_MEASURE_WITH_UNIT(LENGTH_MEASURE(0.01),#743,
'DISTANCE_ACCURACY_VALUE',
'Maximum model space distance between geometric entities at asserted c
onnectivities');
#740=UNCERTAINTY_MEASURE_WITH_UNIT(LENGTH_MEASURE(0.01),#743,
'DISTANCE_ACCURACY_VALUE',
'Maximum model space distance between geometric entities at asserted c
onnectivities');
#741=(
GEOMETRIC_REPRESENTATION_CONTEXT(3)
GLOBAL_UNCERTAINTY_ASSIGNED_CONTEXT((#739))
GLOBAL_UNIT_ASSIGNED_CONTEXT((#743,#745,#746))
REPRESENTATION_CONTEXT('','3D')
);
#742=(
GEOMETRIC_REPRESENTATION_CONTEXT(3)
GLOBAL_UNCERTAINTY_ASSIGNED_CONTEXT((#740))
GLOBAL_UNIT_ASSIGNED_CONTEXT((#743,#745,#746))
REPRESENTATION_CONTEXT('','3D')
);
#743=(
LENGTH_UNIT()
NAMED_UNIT(*)
SI_UNIT(.MILLI.,.METRE.)
);
#744=(
LENGTH_UNIT()
NAMED_UNIT(*)
SI_UNIT($,.METRE.)
);
#745=(
NAMED_UNIT(*)
PLANE_ANGLE_UNIT()
SI_UNIT($,.RADIAN.)
);
#746=(
NAMED_UNIT(*)
SI_UNIT($,.STERADIAN.)
SOLID_ANGLE_UNIT()
);
#747=SHAPE_DEFINITION_REPRESENTATION(#748,#749);
#748=PRODUCT_DEFINITION_SHAPE('',$,#751);
#749=SHAPE_REPRESENTATION('',(#422),#741);
#750=PRODUCT_DEFINITION_CONTEXT('part definition',#755,'design');
#751=PRODUCT_DEFINITION('Hositrad_ISO-F63-64','Hositrad_ISO-F63-64 v1',
#752,#750);
#752=PRODUCT_DEFINITION_FORMATION('',$,#757);
#753=PRODUCT_RELATED_PRODUCT_CATEGORY('Hositrad_ISO-F63-64 v1',
'Hositrad_ISO-F63-64 v1',(#757));
#754=APPLICATION_PROTOCOL_DEFINITION('international standard',
'automotive_design',2009,#755);
#755=APPLICATION_CONTEXT(
'Core Data for Automotive Mechanical Design Process');
#756=PRODUCT_CONTEXT('part definition',#755,'mechanical');
#757=PRODUCT('Hositrad_ISO-F63-64','Hositrad_ISO-F63-64 v1',$,(#756));
#758=PRESENTATION_STYLE_ASSIGNMENT((#760));
#759=PRESENTATION_STYLE_ASSIGNMENT((#761));
#760=SURFACE_STYLE_USAGE(.BOTH.,#762);
#761=SURFACE_STYLE_USAGE(.BOTH.,#763);
#762=SURFACE_SIDE_STYLE('',(#764));
#763=SURFACE_SIDE_STYLE('',(#765));
#764=SURFACE_STYLE_FILL_AREA(#766);
#765=SURFACE_STYLE_FILL_AREA(#767);
#766=FILL_AREA_STYLE('Steel - Satin',(#768));
#767=FILL_AREA_STYLE('Opaque(165,158,149)',(#769));
#768=FILL_AREA_STYLE_COLOUR('Steel - Satin',#770);
#769=FILL_AREA_STYLE_COLOUR('Opaque(165,158,149)',#771);
#770=COLOUR_RGB('Steel - Satin',0.627450980392157,0.627450980392157,0.627450980392157);
#771=COLOUR_RGB('Opaque(165,158,149)',0.647058823529412,0.619607843137255,
0.584313725490196);
ENDSEC;
END-ISO-10303-21;
