ISO-10303-21;
HEADER;
/* Generated by software containing ST-Developer
 * from STEP Tools, Inc. (www.steptools.com) 
 */

FILE_DESCRIPTION(
/* description */ (''),
/* implementation_level */ '2;1');

FILE_NAME(
/* name */ 'Hositrad_ISO-F160-154 v1.step',
/* time_stamp */ '2024-06-25T14:25:49+02:00',
/* author */ (''),
/* organization */ (''),
/* preprocessor_version */ 'ST-DEVELOPER v20',
/* originating_system */ 'Autodesk Translation Framework v13.14.0.145',

/* authorisation */ '');

FILE_SCHEMA (('AUTOMOTIVE_DESIGN { 1 0 10303 214 3 1 1 }'));
ENDSEC;

DATA;
#10=MECHANICAL_DESIGN_GEOMETRIC_PRESENTATION_REPRESENTATION('',(#13),#1127);
#11=SHAPE_REPRESENTATION_RELATIONSHIP('SRR','None',#1134,#12);
#12=ADVANCED_BREP_SHAPE_REPRESENTATION('',(#14),#1126);
#13=STYLED_ITEM('',(#1144),#14);
#14=MANIFOLD_SOLID_BREP('Body1',#629);
#15=FACE_BOUND('',#120,.T.);
#16=FACE_BOUND('',#121,.T.);
#17=FACE_BOUND('',#122,.T.);
#18=FACE_BOUND('',#123,.T.);
#19=FACE_BOUND('',#124,.T.);
#20=FACE_BOUND('',#125,.T.);
#21=FACE_BOUND('',#126,.T.);
#22=FACE_BOUND('',#127,.T.);
#23=FACE_BOUND('',#128,.T.);
#24=FACE_BOUND('',#130,.T.);
#25=FACE_BOUND('',#131,.T.);
#26=FACE_BOUND('',#132,.T.);
#27=FACE_BOUND('',#133,.T.);
#28=FACE_BOUND('',#134,.T.);
#29=FACE_BOUND('',#135,.T.);
#30=FACE_BOUND('',#136,.T.);
#31=FACE_BOUND('',#137,.T.);
#32=FACE_BOUND('',#138,.T.);
#33=FACE_BOUND('',#140,.T.);
#34=FACE_BOUND('',#142,.T.);
#35=PLANE('',#729);
#36=PLANE('',#730);
#37=PLANE('',#731);
#38=PLANE('',#732);
#39=CYLINDRICAL_SURFACE('',#647,77.2);
#40=CYLINDRICAL_SURFACE('',#649,75.5);
#41=CYLINDRICAL_SURFACE('',#662,76.5);
#42=CYLINDRICAL_SURFACE('',#713,5.50000000000001);
#43=CYLINDRICAL_SURFACE('',#714,5.5);
#44=CYLINDRICAL_SURFACE('',#715,5.50000000000001);
#45=CYLINDRICAL_SURFACE('',#716,5.50000000000001);
#46=CYLINDRICAL_SURFACE('',#717,5.50000000000001);
#47=CYLINDRICAL_SURFACE('',#718,5.5);
#48=CYLINDRICAL_SURFACE('',#719,5.50000000000001);
#49=CYLINDRICAL_SURFACE('',#727,5.50000000000001);
#50=CYLINDRICAL_SURFACE('',#728,112.5);
#51=FACE_OUTER_BOUND('',#87,.T.);
#52=FACE_OUTER_BOUND('',#88,.T.);
#53=FACE_OUTER_BOUND('',#89,.T.);
#54=FACE_OUTER_BOUND('',#90,.T.);
#55=FACE_OUTER_BOUND('',#91,.T.);
#56=FACE_OUTER_BOUND('',#92,.T.);
#57=FACE_OUTER_BOUND('',#93,.T.);
#58=FACE_OUTER_BOUND('',#94,.T.);
#59=FACE_OUTER_BOUND('',#95,.T.);
#60=FACE_OUTER_BOUND('',#96,.T.);
#61=FACE_OUTER_BOUND('',#97,.T.);
#62=FACE_OUTER_BOUND('',#98,.T.);
#63=FACE_OUTER_BOUND('',#99,.T.);
#64=FACE_OUTER_BOUND('',#100,.T.);
#65=FACE_OUTER_BOUND('',#101,.T.);
#66=FACE_OUTER_BOUND('',#102,.T.);
#67=FACE_OUTER_BOUND('',#103,.T.);
#68=FACE_OUTER_BOUND('',#104,.T.);
#69=FACE_OUTER_BOUND('',#105,.T.);
#70=FACE_OUTER_BOUND('',#106,.T.);
#71=FACE_OUTER_BOUND('',#107,.T.);
#72=FACE_OUTER_BOUND('',#108,.T.);
#73=FACE_OUTER_BOUND('',#109,.T.);
#74=FACE_OUTER_BOUND('',#110,.T.);
#75=FACE_OUTER_BOUND('',#111,.T.);
#76=FACE_OUTER_BOUND('',#112,.T.);
#77=FACE_OUTER_BOUND('',#113,.T.);
#78=FACE_OUTER_BOUND('',#114,.T.);
#79=FACE_OUTER_BOUND('',#115,.T.);
#80=FACE_OUTER_BOUND('',#116,.T.);
#81=FACE_OUTER_BOUND('',#117,.T.);
#82=FACE_OUTER_BOUND('',#118,.T.);
#83=FACE_OUTER_BOUND('',#119,.T.);
#84=FACE_OUTER_BOUND('',#129,.T.);
#85=FACE_OUTER_BOUND('',#139,.T.);
#86=FACE_OUTER_BOUND('',#141,.T.);
#87=EDGE_LOOP('',(#401,#402,#403,#404,#405));
#88=EDGE_LOOP('',(#406,#407,#408,#409,#410));
#89=EDGE_LOOP('',(#411,#412,#413,#414));
#90=EDGE_LOOP('',(#415,#416,#417,#418));
#91=EDGE_LOOP('',(#419,#420,#421,#422));
#92=EDGE_LOOP('',(#423,#424,#425,#426,#427));
#93=EDGE_LOOP('',(#428,#429,#430,#431));
#94=EDGE_LOOP('',(#432,#433,#434,#435,#436));
#95=EDGE_LOOP('',(#437,#438,#439,#440));
#96=EDGE_LOOP('',(#441,#442,#443,#444,#445));
#97=EDGE_LOOP('',(#446,#447,#448,#449));
#98=EDGE_LOOP('',(#450,#451,#452,#453,#454));
#99=EDGE_LOOP('',(#455,#456,#457,#458));
#100=EDGE_LOOP('',(#459,#460,#461,#462,#463));
#101=EDGE_LOOP('',(#464,#465,#466,#467));
#102=EDGE_LOOP('',(#468,#469,#470,#471,#472));
#103=EDGE_LOOP('',(#473,#474,#475,#476));
#104=EDGE_LOOP('',(#477,#478,#479,#480,#481));
#105=EDGE_LOOP('',(#482,#483,#484,#485));
#106=EDGE_LOOP('',(#486,#487,#488,#489,#490));
#107=EDGE_LOOP('',(#491,#492,#493,#494));
#108=EDGE_LOOP('',(#495,#496,#497,#498,#499));
#109=EDGE_LOOP('',(#500,#501,#502,#503,#504));
#110=EDGE_LOOP('',(#505,#506,#507,#508,#509));
#111=EDGE_LOOP('',(#510,#511,#512,#513,#514));
#112=EDGE_LOOP('',(#515,#516,#517,#518,#519));
#113=EDGE_LOOP('',(#520,#521,#522,#523,#524));
#114=EDGE_LOOP('',(#525,#526,#527,#528,#529));
#115=EDGE_LOOP('',(#530,#531,#532,#533,#534));
#116=EDGE_LOOP('',(#535,#536,#537,#538));
#117=EDGE_LOOP('',(#539,#540,#541,#542,#543));
#118=EDGE_LOOP('',(#544,#545,#546,#547,#548));
#119=EDGE_LOOP('',(#549));
#120=EDGE_LOOP('',(#550));
#121=EDGE_LOOP('',(#551));
#122=EDGE_LOOP('',(#552));
#123=EDGE_LOOP('',(#553));
#124=EDGE_LOOP('',(#554));
#125=EDGE_LOOP('',(#555));
#126=EDGE_LOOP('',(#556));
#127=EDGE_LOOP('',(#557));
#128=EDGE_LOOP('',(#558));
#129=EDGE_LOOP('',(#559));
#130=EDGE_LOOP('',(#560));
#131=EDGE_LOOP('',(#561));
#132=EDGE_LOOP('',(#562));
#133=EDGE_LOOP('',(#563));
#134=EDGE_LOOP('',(#564));
#135=EDGE_LOOP('',(#565));
#136=EDGE_LOOP('',(#566));
#137=EDGE_LOOP('',(#567));
#138=EDGE_LOOP('',(#568));
#139=EDGE_LOOP('',(#569));
#140=EDGE_LOOP('',(#570));
#141=EDGE_LOOP('',(#571));
#142=EDGE_LOOP('',(#572));
#143=LINE('',#954,#175);
#144=LINE('',#958,#176);
#145=LINE('',#964,#177);
#146=LINE('',#970,#178);
#147=LINE('',#976,#179);
#148=LINE('',#984,#180);
#149=LINE('',#989,#181);
#150=LINE('',#996,#182);
#151=LINE('',#1002,#183);
#152=LINE('',#1010,#184);
#153=LINE('',#1016,#185);
#154=LINE('',#1024,#186);
#155=LINE('',#1030,#187);
#156=LINE('',#1038,#188);
#157=LINE('',#1044,#189);
#158=LINE('',#1052,#190);
#159=LINE('',#1058,#191);
#160=LINE('',#1066,#192);
#161=LINE('',#1072,#193);
#162=LINE('',#1080,#194);
#163=LINE('',#1086,#195);
#164=LINE('',#1089,#196);
#165=LINE('',#1091,#197);
#166=LINE('',#1093,#198);
#167=LINE('',#1095,#199);
#168=LINE('',#1097,#200);
#169=LINE('',#1099,#201);
#170=LINE('',#1101,#202);
#171=LINE('',#1108,#203);
#172=LINE('',#1114,#204);
#173=LINE('',#1117,#205);
#174=LINE('',#1119,#206);
#175=VECTOR('',#741,77.7);
#176=VECTOR('',#746,77.2);
#177=VECTOR('',#753,75.5);
#178=VECTOR('',#760,76.5);
#179=VECTOR('',#767,112.1);
#180=VECTOR('',#776,112.5);
#181=VECTOR('',#783,76.5);
#182=VECTOR('',#790,5.99999999999994);
#183=VECTOR('',#797,5.50000000000001);
#184=VECTOR('',#806,5.99999999999995);
#185=VECTOR('',#813,5.5);
#186=VECTOR('',#822,5.99999999999994);
#187=VECTOR('',#829,5.50000000000001);
#188=VECTOR('',#838,5.99999999999995);
#189=VECTOR('',#845,5.50000000000001);
#190=VECTOR('',#854,5.99999999999996);
#191=VECTOR('',#861,5.50000000000001);
#192=VECTOR('',#870,5.99999999999995);
#193=VECTOR('',#877,5.5);
#194=VECTOR('',#886,6.);
#195=VECTOR('',#893,5.50000000000001);
#196=VECTOR('',#898,5.50000000000001);
#197=VECTOR('',#901,5.5);
#198=VECTOR('',#904,5.50000000000001);
#199=VECTOR('',#907,5.50000000000001);
#200=VECTOR('',#910,5.50000000000001);
#201=VECTOR('',#913,5.5);
#202=VECTOR('',#916,5.50000000000001);
#203=VECTOR('',#923,5.99999999999995);
#204=VECTOR('',#930,5.50000000000001);
#205=VECTOR('',#935,5.50000000000001);
#206=VECTOR('',#938,112.5);
#207=CIRCLE('',#644,77.2);
#208=CIRCLE('',#645,77.2);
#209=CIRCLE('',#646,77.7);
#210=CIRCLE('',#648,77.2);
#211=CIRCLE('',#650,75.5);
#212=CIRCLE('',#651,75.5);
#213=CIRCLE('',#653,76.5);
#214=CIRCLE('',#654,76.8);
#215=CIRCLE('',#656,112.5);
#216=CIRCLE('',#657,112.1);
#217=CIRCLE('',#659,112.5);
#218=CIRCLE('',#660,112.5);
#219=CIRCLE('',#661,112.1);
#220=CIRCLE('',#663,76.5);
#221=CIRCLE('',#665,5.50000000000001);
#222=CIRCLE('',#666,5.50000000000001);
#223=CIRCLE('',#667,5.99999999999994);
#224=CIRCLE('',#669,5.50000000000001);
#225=CIRCLE('',#670,6.00000000000003);
#226=CIRCLE('',#672,5.5);
#227=CIRCLE('',#673,5.5);
#228=CIRCLE('',#674,5.99999999999995);
#229=CIRCLE('',#676,5.5);
#230=CIRCLE('',#677,6.00000000000009);
#231=CIRCLE('',#679,5.50000000000001);
#232=CIRCLE('',#680,5.50000000000001);
#233=CIRCLE('',#681,5.99999999999994);
#234=CIRCLE('',#683,5.50000000000001);
#235=CIRCLE('',#684,6.00000000000003);
#236=CIRCLE('',#686,5.50000000000001);
#237=CIRCLE('',#687,5.50000000000001);
#238=CIRCLE('',#688,5.99999999999995);
#239=CIRCLE('',#690,5.50000000000001);
#240=CIRCLE('',#691,6.00000000000009);
#241=CIRCLE('',#693,5.50000000000001);
#242=CIRCLE('',#694,5.50000000000001);
#243=CIRCLE('',#695,5.99999999999996);
#244=CIRCLE('',#697,5.50000000000001);
#245=CIRCLE('',#698,6.0000000000001);
#246=CIRCLE('',#700,5.5);
#247=CIRCLE('',#701,5.5);
#248=CIRCLE('',#702,5.99999999999995);
#249=CIRCLE('',#704,5.5);
#250=CIRCLE('',#705,6.00000000000009);
#251=CIRCLE('',#707,5.50000000000001);
#252=CIRCLE('',#708,5.50000000000001);
#253=CIRCLE('',#709,6.00000000000001);
#254=CIRCLE('',#711,5.50000000000001);
#255=CIRCLE('',#712,6.00000000000003);
#256=CIRCLE('',#721,5.50000000000001);
#257=CIRCLE('',#722,5.50000000000001);
#258=CIRCLE('',#723,5.99999999999995);
#259=CIRCLE('',#725,5.50000000000001);
#260=CIRCLE('',#726,6.00000000000009);
#261=VERTEX_POINT('',#949);
#262=VERTEX_POINT('',#950);
#263=VERTEX_POINT('',#953);
#264=VERTEX_POINT('',#957);
#265=VERTEX_POINT('',#961);
#266=VERTEX_POINT('',#963);
#267=VERTEX_POINT('',#967);
#268=VERTEX_POINT('',#969);
#269=VERTEX_POINT('',#973);
#270=VERTEX_POINT('',#975);
#271=VERTEX_POINT('',#979);
#272=VERTEX_POINT('',#980);
#273=VERTEX_POINT('',#983);
#274=VERTEX_POINT('',#987);
#275=VERTEX_POINT('',#991);
#276=VERTEX_POINT('',#992);
#277=VERTEX_POINT('',#995);
#278=VERTEX_POINT('',#999);
#279=VERTEX_POINT('',#1001);
#280=VERTEX_POINT('',#1005);
#281=VERTEX_POINT('',#1006);
#282=VERTEX_POINT('',#1009);
#283=VERTEX_POINT('',#1013);
#284=VERTEX_POINT('',#1015);
#285=VERTEX_POINT('',#1019);
#286=VERTEX_POINT('',#1020);
#287=VERTEX_POINT('',#1023);
#288=VERTEX_POINT('',#1027);
#289=VERTEX_POINT('',#1029);
#290=VERTEX_POINT('',#1033);
#291=VERTEX_POINT('',#1034);
#292=VERTEX_POINT('',#1037);
#293=VERTEX_POINT('',#1041);
#294=VERTEX_POINT('',#1043);
#295=VERTEX_POINT('',#1047);
#296=VERTEX_POINT('',#1048);
#297=VERTEX_POINT('',#1051);
#298=VERTEX_POINT('',#1055);
#299=VERTEX_POINT('',#1057);
#300=VERTEX_POINT('',#1061);
#301=VERTEX_POINT('',#1062);
#302=VERTEX_POINT('',#1065);
#303=VERTEX_POINT('',#1069);
#304=VERTEX_POINT('',#1071);
#305=VERTEX_POINT('',#1075);
#306=VERTEX_POINT('',#1076);
#307=VERTEX_POINT('',#1079);
#308=VERTEX_POINT('',#1083);
#309=VERTEX_POINT('',#1085);
#310=VERTEX_POINT('',#1103);
#311=VERTEX_POINT('',#1104);
#312=VERTEX_POINT('',#1107);
#313=VERTEX_POINT('',#1111);
#314=VERTEX_POINT('',#1113);
#315=EDGE_CURVE('',#261,#262,#207,.T.);
#316=EDGE_CURVE('',#262,#261,#208,.T.);
#317=EDGE_CURVE('',#262,#263,#143,.T.);
#318=EDGE_CURVE('',#263,#263,#209,.T.);
#319=EDGE_CURVE('',#261,#264,#144,.T.);
#320=EDGE_CURVE('',#264,#264,#210,.T.);
#321=EDGE_CURVE('',#265,#265,#211,.T.);
#322=EDGE_CURVE('',#265,#266,#145,.T.);
#323=EDGE_CURVE('',#266,#266,#212,.T.);
#324=EDGE_CURVE('',#267,#267,#213,.T.);
#325=EDGE_CURVE('',#267,#268,#146,.T.);
#326=EDGE_CURVE('',#268,#268,#214,.T.);
#327=EDGE_CURVE('',#269,#269,#215,.T.);
#328=EDGE_CURVE('',#269,#270,#147,.T.);
#329=EDGE_CURVE('',#270,#270,#216,.T.);
#330=EDGE_CURVE('',#271,#272,#217,.T.);
#331=EDGE_CURVE('',#272,#271,#218,.T.);
#332=EDGE_CURVE('',#272,#273,#148,.T.);
#333=EDGE_CURVE('',#273,#273,#219,.T.);
#334=EDGE_CURVE('',#274,#274,#220,.T.);
#335=EDGE_CURVE('',#274,#267,#149,.T.);
#336=EDGE_CURVE('',#275,#276,#221,.T.);
#337=EDGE_CURVE('',#276,#275,#222,.T.);
#338=EDGE_CURVE('',#276,#277,#150,.T.);
#339=EDGE_CURVE('',#277,#277,#223,.T.);
#340=EDGE_CURVE('',#278,#278,#224,.T.);
#341=EDGE_CURVE('',#278,#279,#151,.T.);
#342=EDGE_CURVE('',#279,#279,#225,.T.);
#343=EDGE_CURVE('',#280,#281,#226,.T.);
#344=EDGE_CURVE('',#281,#280,#227,.T.);
#345=EDGE_CURVE('',#281,#282,#152,.T.);
#346=EDGE_CURVE('',#282,#282,#228,.T.);
#347=EDGE_CURVE('',#283,#283,#229,.T.);
#348=EDGE_CURVE('',#283,#284,#153,.T.);
#349=EDGE_CURVE('',#284,#284,#230,.T.);
#350=EDGE_CURVE('',#285,#286,#231,.T.);
#351=EDGE_CURVE('',#286,#285,#232,.T.);
#352=EDGE_CURVE('',#286,#287,#154,.T.);
#353=EDGE_CURVE('',#287,#287,#233,.T.);
#354=EDGE_CURVE('',#288,#288,#234,.T.);
#355=EDGE_CURVE('',#288,#289,#155,.T.);
#356=EDGE_CURVE('',#289,#289,#235,.T.);
#357=EDGE_CURVE('',#290,#291,#236,.T.);
#358=EDGE_CURVE('',#291,#290,#237,.T.);
#359=EDGE_CURVE('',#291,#292,#156,.T.);
#360=EDGE_CURVE('',#292,#292,#238,.T.);
#361=EDGE_CURVE('',#293,#293,#239,.T.);
#362=EDGE_CURVE('',#293,#294,#157,.T.);
#363=EDGE_CURVE('',#294,#294,#240,.T.);
#364=EDGE_CURVE('',#295,#296,#241,.T.);
#365=EDGE_CURVE('',#296,#295,#242,.T.);
#366=EDGE_CURVE('',#296,#297,#158,.T.);
#367=EDGE_CURVE('',#297,#297,#243,.T.);
#368=EDGE_CURVE('',#298,#298,#244,.T.);
#369=EDGE_CURVE('',#298,#299,#159,.T.);
#370=EDGE_CURVE('',#299,#299,#245,.T.);
#371=EDGE_CURVE('',#300,#301,#246,.T.);
#372=EDGE_CURVE('',#301,#300,#247,.T.);
#373=EDGE_CURVE('',#301,#302,#160,.T.);
#374=EDGE_CURVE('',#302,#302,#248,.T.);
#375=EDGE_CURVE('',#303,#303,#249,.T.);
#376=EDGE_CURVE('',#303,#304,#161,.T.);
#377=EDGE_CURVE('',#304,#304,#250,.T.);
#378=EDGE_CURVE('',#305,#306,#251,.T.);
#379=EDGE_CURVE('',#306,#305,#252,.T.);
#380=EDGE_CURVE('',#306,#307,#162,.T.);
#381=EDGE_CURVE('',#307,#307,#253,.T.);
#382=EDGE_CURVE('',#308,#308,#254,.T.);
#383=EDGE_CURVE('',#308,#309,#163,.T.);
#384=EDGE_CURVE('',#309,#309,#255,.T.);
#385=EDGE_CURVE('',#275,#278,#164,.T.);
#386=EDGE_CURVE('',#280,#283,#165,.T.);
#387=EDGE_CURVE('',#285,#288,#166,.T.);
#388=EDGE_CURVE('',#290,#293,#167,.T.);
#389=EDGE_CURVE('',#295,#298,#168,.T.);
#390=EDGE_CURVE('',#300,#303,#169,.T.);
#391=EDGE_CURVE('',#305,#308,#170,.T.);
#392=EDGE_CURVE('',#310,#311,#256,.T.);
#393=EDGE_CURVE('',#311,#310,#257,.T.);
#394=EDGE_CURVE('',#311,#312,#171,.T.);
#395=EDGE_CURVE('',#312,#312,#258,.T.);
#396=EDGE_CURVE('',#313,#313,#259,.T.);
#397=EDGE_CURVE('',#313,#314,#172,.T.);
#398=EDGE_CURVE('',#314,#314,#260,.T.);
#399=EDGE_CURVE('',#310,#313,#173,.T.);
#400=EDGE_CURVE('',#271,#269,#174,.T.);
#401=ORIENTED_EDGE('',*,*,#315,.F.);
#402=ORIENTED_EDGE('',*,*,#316,.F.);
#403=ORIENTED_EDGE('',*,*,#317,.T.);
#404=ORIENTED_EDGE('',*,*,#318,.F.);
#405=ORIENTED_EDGE('',*,*,#317,.F.);
#406=ORIENTED_EDGE('',*,*,#315,.T.);
#407=ORIENTED_EDGE('',*,*,#316,.T.);
#408=ORIENTED_EDGE('',*,*,#319,.T.);
#409=ORIENTED_EDGE('',*,*,#320,.T.);
#410=ORIENTED_EDGE('',*,*,#319,.F.);
#411=ORIENTED_EDGE('',*,*,#321,.F.);
#412=ORIENTED_EDGE('',*,*,#322,.T.);
#413=ORIENTED_EDGE('',*,*,#323,.T.);
#414=ORIENTED_EDGE('',*,*,#322,.F.);
#415=ORIENTED_EDGE('',*,*,#324,.F.);
#416=ORIENTED_EDGE('',*,*,#325,.T.);
#417=ORIENTED_EDGE('',*,*,#326,.F.);
#418=ORIENTED_EDGE('',*,*,#325,.F.);
#419=ORIENTED_EDGE('',*,*,#327,.F.);
#420=ORIENTED_EDGE('',*,*,#328,.T.);
#421=ORIENTED_EDGE('',*,*,#329,.F.);
#422=ORIENTED_EDGE('',*,*,#328,.F.);
#423=ORIENTED_EDGE('',*,*,#330,.F.);
#424=ORIENTED_EDGE('',*,*,#331,.F.);
#425=ORIENTED_EDGE('',*,*,#332,.T.);
#426=ORIENTED_EDGE('',*,*,#333,.F.);
#427=ORIENTED_EDGE('',*,*,#332,.F.);
#428=ORIENTED_EDGE('',*,*,#334,.F.);
#429=ORIENTED_EDGE('',*,*,#335,.T.);
#430=ORIENTED_EDGE('',*,*,#324,.T.);
#431=ORIENTED_EDGE('',*,*,#335,.F.);
#432=ORIENTED_EDGE('',*,*,#336,.F.);
#433=ORIENTED_EDGE('',*,*,#337,.F.);
#434=ORIENTED_EDGE('',*,*,#338,.T.);
#435=ORIENTED_EDGE('',*,*,#339,.F.);
#436=ORIENTED_EDGE('',*,*,#338,.F.);
#437=ORIENTED_EDGE('',*,*,#340,.F.);
#438=ORIENTED_EDGE('',*,*,#341,.T.);
#439=ORIENTED_EDGE('',*,*,#342,.F.);
#440=ORIENTED_EDGE('',*,*,#341,.F.);
#441=ORIENTED_EDGE('',*,*,#343,.F.);
#442=ORIENTED_EDGE('',*,*,#344,.F.);
#443=ORIENTED_EDGE('',*,*,#345,.T.);
#444=ORIENTED_EDGE('',*,*,#346,.F.);
#445=ORIENTED_EDGE('',*,*,#345,.F.);
#446=ORIENTED_EDGE('',*,*,#347,.F.);
#447=ORIENTED_EDGE('',*,*,#348,.T.);
#448=ORIENTED_EDGE('',*,*,#349,.F.);
#449=ORIENTED_EDGE('',*,*,#348,.F.);
#450=ORIENTED_EDGE('',*,*,#350,.F.);
#451=ORIENTED_EDGE('',*,*,#351,.F.);
#452=ORIENTED_EDGE('',*,*,#352,.T.);
#453=ORIENTED_EDGE('',*,*,#353,.F.);
#454=ORIENTED_EDGE('',*,*,#352,.F.);
#455=ORIENTED_EDGE('',*,*,#354,.F.);
#456=ORIENTED_EDGE('',*,*,#355,.T.);
#457=ORIENTED_EDGE('',*,*,#356,.F.);
#458=ORIENTED_EDGE('',*,*,#355,.F.);
#459=ORIENTED_EDGE('',*,*,#357,.F.);
#460=ORIENTED_EDGE('',*,*,#358,.F.);
#461=ORIENTED_EDGE('',*,*,#359,.T.);
#462=ORIENTED_EDGE('',*,*,#360,.F.);
#463=ORIENTED_EDGE('',*,*,#359,.F.);
#464=ORIENTED_EDGE('',*,*,#361,.F.);
#465=ORIENTED_EDGE('',*,*,#362,.T.);
#466=ORIENTED_EDGE('',*,*,#363,.F.);
#467=ORIENTED_EDGE('',*,*,#362,.F.);
#468=ORIENTED_EDGE('',*,*,#364,.F.);
#469=ORIENTED_EDGE('',*,*,#365,.F.);
#470=ORIENTED_EDGE('',*,*,#366,.T.);
#471=ORIENTED_EDGE('',*,*,#367,.F.);
#472=ORIENTED_EDGE('',*,*,#366,.F.);
#473=ORIENTED_EDGE('',*,*,#368,.F.);
#474=ORIENTED_EDGE('',*,*,#369,.T.);
#475=ORIENTED_EDGE('',*,*,#370,.F.);
#476=ORIENTED_EDGE('',*,*,#369,.F.);
#477=ORIENTED_EDGE('',*,*,#371,.F.);
#478=ORIENTED_EDGE('',*,*,#372,.F.);
#479=ORIENTED_EDGE('',*,*,#373,.T.);
#480=ORIENTED_EDGE('',*,*,#374,.F.);
#481=ORIENTED_EDGE('',*,*,#373,.F.);
#482=ORIENTED_EDGE('',*,*,#375,.F.);
#483=ORIENTED_EDGE('',*,*,#376,.T.);
#484=ORIENTED_EDGE('',*,*,#377,.F.);
#485=ORIENTED_EDGE('',*,*,#376,.F.);
#486=ORIENTED_EDGE('',*,*,#378,.F.);
#487=ORIENTED_EDGE('',*,*,#379,.F.);
#488=ORIENTED_EDGE('',*,*,#380,.T.);
#489=ORIENTED_EDGE('',*,*,#381,.F.);
#490=ORIENTED_EDGE('',*,*,#380,.F.);
#491=ORIENTED_EDGE('',*,*,#382,.F.);
#492=ORIENTED_EDGE('',*,*,#383,.T.);
#493=ORIENTED_EDGE('',*,*,#384,.F.);
#494=ORIENTED_EDGE('',*,*,#383,.F.);
#495=ORIENTED_EDGE('',*,*,#336,.T.);
#496=ORIENTED_EDGE('',*,*,#337,.T.);
#497=ORIENTED_EDGE('',*,*,#385,.T.);
#498=ORIENTED_EDGE('',*,*,#340,.T.);
#499=ORIENTED_EDGE('',*,*,#385,.F.);
#500=ORIENTED_EDGE('',*,*,#343,.T.);
#501=ORIENTED_EDGE('',*,*,#344,.T.);
#502=ORIENTED_EDGE('',*,*,#386,.T.);
#503=ORIENTED_EDGE('',*,*,#347,.T.);
#504=ORIENTED_EDGE('',*,*,#386,.F.);
#505=ORIENTED_EDGE('',*,*,#350,.T.);
#506=ORIENTED_EDGE('',*,*,#351,.T.);
#507=ORIENTED_EDGE('',*,*,#387,.T.);
#508=ORIENTED_EDGE('',*,*,#354,.T.);
#509=ORIENTED_EDGE('',*,*,#387,.F.);
#510=ORIENTED_EDGE('',*,*,#357,.T.);
#511=ORIENTED_EDGE('',*,*,#358,.T.);
#512=ORIENTED_EDGE('',*,*,#388,.T.);
#513=ORIENTED_EDGE('',*,*,#361,.T.);
#514=ORIENTED_EDGE('',*,*,#388,.F.);
#515=ORIENTED_EDGE('',*,*,#364,.T.);
#516=ORIENTED_EDGE('',*,*,#365,.T.);
#517=ORIENTED_EDGE('',*,*,#389,.T.);
#518=ORIENTED_EDGE('',*,*,#368,.T.);
#519=ORIENTED_EDGE('',*,*,#389,.F.);
#520=ORIENTED_EDGE('',*,*,#371,.T.);
#521=ORIENTED_EDGE('',*,*,#372,.T.);
#522=ORIENTED_EDGE('',*,*,#390,.T.);
#523=ORIENTED_EDGE('',*,*,#375,.T.);
#524=ORIENTED_EDGE('',*,*,#390,.F.);
#525=ORIENTED_EDGE('',*,*,#378,.T.);
#526=ORIENTED_EDGE('',*,*,#379,.T.);
#527=ORIENTED_EDGE('',*,*,#391,.T.);
#528=ORIENTED_EDGE('',*,*,#382,.T.);
#529=ORIENTED_EDGE('',*,*,#391,.F.);
#530=ORIENTED_EDGE('',*,*,#392,.F.);
#531=ORIENTED_EDGE('',*,*,#393,.F.);
#532=ORIENTED_EDGE('',*,*,#394,.T.);
#533=ORIENTED_EDGE('',*,*,#395,.F.);
#534=ORIENTED_EDGE('',*,*,#394,.F.);
#535=ORIENTED_EDGE('',*,*,#396,.F.);
#536=ORIENTED_EDGE('',*,*,#397,.T.);
#537=ORIENTED_EDGE('',*,*,#398,.F.);
#538=ORIENTED_EDGE('',*,*,#397,.F.);
#539=ORIENTED_EDGE('',*,*,#392,.T.);
#540=ORIENTED_EDGE('',*,*,#393,.T.);
#541=ORIENTED_EDGE('',*,*,#399,.T.);
#542=ORIENTED_EDGE('',*,*,#396,.T.);
#543=ORIENTED_EDGE('',*,*,#399,.F.);
#544=ORIENTED_EDGE('',*,*,#330,.T.);
#545=ORIENTED_EDGE('',*,*,#331,.T.);
#546=ORIENTED_EDGE('',*,*,#400,.T.);
#547=ORIENTED_EDGE('',*,*,#327,.T.);
#548=ORIENTED_EDGE('',*,*,#400,.F.);
#549=ORIENTED_EDGE('',*,*,#329,.T.);
#550=ORIENTED_EDGE('',*,*,#342,.T.);
#551=ORIENTED_EDGE('',*,*,#349,.T.);
#552=ORIENTED_EDGE('',*,*,#356,.T.);
#553=ORIENTED_EDGE('',*,*,#363,.T.);
#554=ORIENTED_EDGE('',*,*,#370,.T.);
#555=ORIENTED_EDGE('',*,*,#377,.T.);
#556=ORIENTED_EDGE('',*,*,#384,.T.);
#557=ORIENTED_EDGE('',*,*,#398,.T.);
#558=ORIENTED_EDGE('',*,*,#326,.T.);
#559=ORIENTED_EDGE('',*,*,#333,.T.);
#560=ORIENTED_EDGE('',*,*,#339,.T.);
#561=ORIENTED_EDGE('',*,*,#346,.T.);
#562=ORIENTED_EDGE('',*,*,#353,.T.);
#563=ORIENTED_EDGE('',*,*,#360,.T.);
#564=ORIENTED_EDGE('',*,*,#367,.T.);
#565=ORIENTED_EDGE('',*,*,#374,.T.);
#566=ORIENTED_EDGE('',*,*,#381,.T.);
#567=ORIENTED_EDGE('',*,*,#395,.T.);
#568=ORIENTED_EDGE('',*,*,#318,.T.);
#569=ORIENTED_EDGE('',*,*,#334,.T.);
#570=ORIENTED_EDGE('',*,*,#323,.F.);
#571=ORIENTED_EDGE('',*,*,#320,.F.);
#572=ORIENTED_EDGE('',*,*,#321,.T.);
#573=CONICAL_SURFACE('',#643,77.7,0.785398163397462);
#574=CONICAL_SURFACE('',#652,76.5,0.785398163397518);
#575=CONICAL_SURFACE('',#655,112.1,0.785398163397448);
#576=CONICAL_SURFACE('',#658,112.5,0.785398163397448);
#577=CONICAL_SURFACE('',#664,5.99999999999994,0.785398163397447);
#578=CONICAL_SURFACE('',#668,5.50000000000001,0.785398163397453);
#579=CONICAL_SURFACE('',#671,5.99999999999995,0.785398163397457);
#580=CONICAL_SURFACE('',#675,5.5,0.785398163397475);
#581=CONICAL_SURFACE('',#678,5.99999999999994,0.785398163397437);
#582=CONICAL_SURFACE('',#682,5.50000000000001,0.785398163397453);
#583=CONICAL_SURFACE('',#685,5.99999999999995,0.785398163397457);
#584=CONICAL_SURFACE('',#689,5.50000000000001,0.785398163397475);
#585=CONICAL_SURFACE('',#692,5.99999999999996,0.785398163397476);
#586=CONICAL_SURFACE('',#696,5.50000000000001,0.785398163397473);
#587=CONICAL_SURFACE('',#699,5.99999999999995,0.785398163397457);
#588=CONICAL_SURFACE('',#703,5.5,0.785398163397475);
#589=CONICAL_SURFACE('',#706,6.00000000000001,0.785398163397432);
#590=CONICAL_SURFACE('',#710,5.50000000000001,0.78539816339747);
#591=CONICAL_SURFACE('',#720,5.99999999999995,0.785398163397457);
#592=CONICAL_SURFACE('',#724,5.50000000000001,0.785398163397475);
#593=ADVANCED_FACE('',(#51),#573,.F.);
#594=ADVANCED_FACE('',(#52),#39,.F.);
#595=ADVANCED_FACE('',(#53),#40,.F.);
#596=ADVANCED_FACE('',(#54),#574,.F.);
#597=ADVANCED_FACE('',(#55),#575,.T.);
#598=ADVANCED_FACE('',(#56),#576,.T.);
#599=ADVANCED_FACE('',(#57),#41,.F.);
#600=ADVANCED_FACE('',(#58),#577,.F.);
#601=ADVANCED_FACE('',(#59),#578,.F.);
#602=ADVANCED_FACE('',(#60),#579,.F.);
#603=ADVANCED_FACE('',(#61),#580,.F.);
#604=ADVANCED_FACE('',(#62),#581,.F.);
#605=ADVANCED_FACE('',(#63),#582,.F.);
#606=ADVANCED_FACE('',(#64),#583,.F.);
#607=ADVANCED_FACE('',(#65),#584,.F.);
#608=ADVANCED_FACE('',(#66),#585,.F.);
#609=ADVANCED_FACE('',(#67),#586,.F.);
#610=ADVANCED_FACE('',(#68),#587,.F.);
#611=ADVANCED_FACE('',(#69),#588,.F.);
#612=ADVANCED_FACE('',(#70),#589,.F.);
#613=ADVANCED_FACE('',(#71),#590,.F.);
#614=ADVANCED_FACE('',(#72),#42,.F.);
#615=ADVANCED_FACE('',(#73),#43,.F.);
#616=ADVANCED_FACE('',(#74),#44,.F.);
#617=ADVANCED_FACE('',(#75),#45,.F.);
#618=ADVANCED_FACE('',(#76),#46,.F.);
#619=ADVANCED_FACE('',(#77),#47,.F.);
#620=ADVANCED_FACE('',(#78),#48,.F.);
#621=ADVANCED_FACE('',(#79),#591,.F.);
#622=ADVANCED_FACE('',(#80),#592,.F.);
#623=ADVANCED_FACE('',(#81),#49,.F.);
#624=ADVANCED_FACE('',(#82),#50,.T.);
#625=ADVANCED_FACE('',(#83,#15,#16,#17,#18,#19,#20,#21,#22,#23),#35,.T.);
#626=ADVANCED_FACE('',(#84,#24,#25,#26,#27,#28,#29,#30,#31,#32),#36,.F.);
#627=ADVANCED_FACE('',(#85,#33),#37,.T.);
#628=ADVANCED_FACE('',(#86,#34),#38,.F.);
#629=CLOSED_SHELL('',(#593,#594,#595,#596,#597,#598,#599,#600,#601,#602,
#603,#604,#605,#606,#607,#608,#609,#610,#611,#612,#613,#614,#615,#616,#617,
#618,#619,#620,#621,#622,#623,#624,#625,#626,#627,#628));
#630=DERIVED_UNIT_ELEMENT(#632,1.);
#631=DERIVED_UNIT_ELEMENT(#1129,-3.);
#632=(
MASS_UNIT()
NAMED_UNIT(*)
SI_UNIT(.KILO.,.GRAM.)
);
#633=DERIVED_UNIT((#630,#631));
#634=MEASURE_REPRESENTATION_ITEM('density measure',
POSITIVE_RATIO_MEASURE(7850.),#633);
#635=PROPERTY_DEFINITION_REPRESENTATION(#640,#637);
#636=PROPERTY_DEFINITION_REPRESENTATION(#641,#638);
#637=REPRESENTATION('material name',(#639),#1126);
#638=REPRESENTATION('density',(#634),#1126);
#639=DESCRIPTIVE_REPRESENTATION_ITEM('Steel','Steel');
#640=PROPERTY_DEFINITION('material property','material name',#1136);
#641=PROPERTY_DEFINITION('material property','density of part',#1136);
#642=AXIS2_PLACEMENT_3D('',#947,#733,#734);
#643=AXIS2_PLACEMENT_3D('',#948,#735,#736);
#644=AXIS2_PLACEMENT_3D('',#951,#737,#738);
#645=AXIS2_PLACEMENT_3D('',#952,#739,#740);
#646=AXIS2_PLACEMENT_3D('',#955,#742,#743);
#647=AXIS2_PLACEMENT_3D('',#956,#744,#745);
#648=AXIS2_PLACEMENT_3D('',#959,#747,#748);
#649=AXIS2_PLACEMENT_3D('',#960,#749,#750);
#650=AXIS2_PLACEMENT_3D('',#962,#751,#752);
#651=AXIS2_PLACEMENT_3D('',#965,#754,#755);
#652=AXIS2_PLACEMENT_3D('',#966,#756,#757);
#653=AXIS2_PLACEMENT_3D('',#968,#758,#759);
#654=AXIS2_PLACEMENT_3D('',#971,#761,#762);
#655=AXIS2_PLACEMENT_3D('',#972,#763,#764);
#656=AXIS2_PLACEMENT_3D('',#974,#765,#766);
#657=AXIS2_PLACEMENT_3D('',#977,#768,#769);
#658=AXIS2_PLACEMENT_3D('',#978,#770,#771);
#659=AXIS2_PLACEMENT_3D('',#981,#772,#773);
#660=AXIS2_PLACEMENT_3D('',#982,#774,#775);
#661=AXIS2_PLACEMENT_3D('',#985,#777,#778);
#662=AXIS2_PLACEMENT_3D('',#986,#779,#780);
#663=AXIS2_PLACEMENT_3D('',#988,#781,#782);
#664=AXIS2_PLACEMENT_3D('',#990,#784,#785);
#665=AXIS2_PLACEMENT_3D('',#993,#786,#787);
#666=AXIS2_PLACEMENT_3D('',#994,#788,#789);
#667=AXIS2_PLACEMENT_3D('',#997,#791,#792);
#668=AXIS2_PLACEMENT_3D('',#998,#793,#794);
#669=AXIS2_PLACEMENT_3D('',#1000,#795,#796);
#670=AXIS2_PLACEMENT_3D('',#1003,#798,#799);
#671=AXIS2_PLACEMENT_3D('',#1004,#800,#801);
#672=AXIS2_PLACEMENT_3D('',#1007,#802,#803);
#673=AXIS2_PLACEMENT_3D('',#1008,#804,#805);
#674=AXIS2_PLACEMENT_3D('',#1011,#807,#808);
#675=AXIS2_PLACEMENT_3D('',#1012,#809,#810);
#676=AXIS2_PLACEMENT_3D('',#1014,#811,#812);
#677=AXIS2_PLACEMENT_3D('',#1017,#814,#815);
#678=AXIS2_PLACEMENT_3D('',#1018,#816,#817);
#679=AXIS2_PLACEMENT_3D('',#1021,#818,#819);
#680=AXIS2_PLACEMENT_3D('',#1022,#820,#821);
#681=AXIS2_PLACEMENT_3D('',#1025,#823,#824);
#682=AXIS2_PLACEMENT_3D('',#1026,#825,#826);
#683=AXIS2_PLACEMENT_3D('',#1028,#827,#828);
#684=AXIS2_PLACEMENT_3D('',#1031,#830,#831);
#685=AXIS2_PLACEMENT_3D('',#1032,#832,#833);
#686=AXIS2_PLACEMENT_3D('',#1035,#834,#835);
#687=AXIS2_PLACEMENT_3D('',#1036,#836,#837);
#688=AXIS2_PLACEMENT_3D('',#1039,#839,#840);
#689=AXIS2_PLACEMENT_3D('',#1040,#841,#842);
#690=AXIS2_PLACEMENT_3D('',#1042,#843,#844);
#691=AXIS2_PLACEMENT_3D('',#1045,#846,#847);
#692=AXIS2_PLACEMENT_3D('',#1046,#848,#849);
#693=AXIS2_PLACEMENT_3D('',#1049,#850,#851);
#694=AXIS2_PLACEMENT_3D('',#1050,#852,#853);
#695=AXIS2_PLACEMENT_3D('',#1053,#855,#856);
#696=AXIS2_PLACEMENT_3D('',#1054,#857,#858);
#697=AXIS2_PLACEMENT_3D('',#1056,#859,#860);
#698=AXIS2_PLACEMENT_3D('',#1059,#862,#863);
#699=AXIS2_PLACEMENT_3D('',#1060,#864,#865);
#700=AXIS2_PLACEMENT_3D('',#1063,#866,#867);
#701=AXIS2_PLACEMENT_3D('',#1064,#868,#869);
#702=AXIS2_PLACEMENT_3D('',#1067,#871,#872);
#703=AXIS2_PLACEMENT_3D('',#1068,#873,#874);
#704=AXIS2_PLACEMENT_3D('',#1070,#875,#876);
#705=AXIS2_PLACEMENT_3D('',#1073,#878,#879);
#706=AXIS2_PLACEMENT_3D('',#1074,#880,#881);
#707=AXIS2_PLACEMENT_3D('',#1077,#882,#883);
#708=AXIS2_PLACEMENT_3D('',#1078,#884,#885);
#709=AXIS2_PLACEMENT_3D('',#1081,#887,#888);
#710=AXIS2_PLACEMENT_3D('',#1082,#889,#890);
#711=AXIS2_PLACEMENT_3D('',#1084,#891,#892);
#712=AXIS2_PLACEMENT_3D('',#1087,#894,#895);
#713=AXIS2_PLACEMENT_3D('',#1088,#896,#897);
#714=AXIS2_PLACEMENT_3D('',#1090,#899,#900);
#715=AXIS2_PLACEMENT_3D('',#1092,#902,#903);
#716=AXIS2_PLACEMENT_3D('',#1094,#905,#906);
#717=AXIS2_PLACEMENT_3D('',#1096,#908,#909);
#718=AXIS2_PLACEMENT_3D('',#1098,#911,#912);
#719=AXIS2_PLACEMENT_3D('',#1100,#914,#915);
#720=AXIS2_PLACEMENT_3D('',#1102,#917,#918);
#721=AXIS2_PLACEMENT_3D('',#1105,#919,#920);
#722=AXIS2_PLACEMENT_3D('',#1106,#921,#922);
#723=AXIS2_PLACEMENT_3D('',#1109,#924,#925);
#724=AXIS2_PLACEMENT_3D('',#1110,#926,#927);
#725=AXIS2_PLACEMENT_3D('',#1112,#928,#929);
#726=AXIS2_PLACEMENT_3D('',#1115,#931,#932);
#727=AXIS2_PLACEMENT_3D('',#1116,#933,#934);
#728=AXIS2_PLACEMENT_3D('',#1118,#936,#937);
#729=AXIS2_PLACEMENT_3D('',#1120,#939,#940);
#730=AXIS2_PLACEMENT_3D('',#1121,#941,#942);
#731=AXIS2_PLACEMENT_3D('',#1122,#943,#944);
#732=AXIS2_PLACEMENT_3D('',#1123,#945,#946);
#733=DIRECTION('axis',(0.,0.,1.));
#734=DIRECTION('refdir',(1.,0.,0.));
#735=DIRECTION('center_axis',(0.,-1.,0.));
#736=DIRECTION('ref_axis',(0.,0.,-1.));
#737=DIRECTION('center_axis',(0.,-1.,0.));
#738=DIRECTION('ref_axis',(0.,0.,1.));
#739=DIRECTION('center_axis',(0.,-1.,0.));
#740=DIRECTION('ref_axis',(0.,0.,1.));
#741=DIRECTION('',(-8.65956056235505E-17,-0.707106781186538,0.707106781186557));
#742=DIRECTION('center_axis',(0.,1.,0.));
#743=DIRECTION('ref_axis',(0.,0.,1.));
#744=DIRECTION('center_axis',(0.,1.,0.));
#745=DIRECTION('ref_axis',(0.,0.,1.));
#746=DIRECTION('',(0.,1.,0.));
#747=DIRECTION('center_axis',(0.,1.,0.));
#748=DIRECTION('ref_axis',(0.,0.,1.));
#749=DIRECTION('center_axis',(0.,1.,0.));
#750=DIRECTION('ref_axis',(0.,0.,1.));
#751=DIRECTION('center_axis',(0.,1.,0.));
#752=DIRECTION('ref_axis',(0.,0.,1.));
#753=DIRECTION('',(0.,1.,0.));
#754=DIRECTION('center_axis',(0.,1.,0.));
#755=DIRECTION('ref_axis',(0.,0.,1.));
#756=DIRECTION('center_axis',(0.,1.,0.));
#757=DIRECTION('ref_axis',(0.,0.,1.));
#758=DIRECTION('center_axis',(0.,1.,0.));
#759=DIRECTION('ref_axis',(0.,0.,1.));
#760=DIRECTION('',(-8.65956056235553E-17,0.707106781186499,-0.707106781186597));
#761=DIRECTION('center_axis',(0.,-1.,0.));
#762=DIRECTION('ref_axis',(0.,0.,1.));
#763=DIRECTION('center_axis',(0.,-1.,0.));
#764=DIRECTION('ref_axis',(0.,0.,-1.));
#765=DIRECTION('center_axis',(0.,-1.,0.));
#766=DIRECTION('ref_axis',(0.,0.,1.));
#767=DIRECTION('',(8.65956056235493E-17,0.707106781186547,-0.707106781186547));
#768=DIRECTION('center_axis',(0.,1.,0.));
#769=DIRECTION('ref_axis',(0.,0.,1.));
#770=DIRECTION('center_axis',(0.,1.,0.));
#771=DIRECTION('ref_axis',(0.,0.,1.));
#772=DIRECTION('center_axis',(0.,1.,0.));
#773=DIRECTION('ref_axis',(0.,0.,1.));
#774=DIRECTION('center_axis',(0.,1.,0.));
#775=DIRECTION('ref_axis',(0.,0.,1.));
#776=DIRECTION('',(8.65956056235493E-17,-0.707106781186547,0.707106781186547));
#777=DIRECTION('center_axis',(0.,-1.,0.));
#778=DIRECTION('ref_axis',(0.,0.,1.));
#779=DIRECTION('center_axis',(0.,1.,0.));
#780=DIRECTION('ref_axis',(0.,0.,1.));
#781=DIRECTION('center_axis',(0.,1.,0.));
#782=DIRECTION('ref_axis',(0.,0.,1.));
#783=DIRECTION('',(0.,1.,0.));
#784=DIRECTION('center_axis',(0.,-1.,0.));
#785=DIRECTION('ref_axis',(0.,0.,-1.));
#786=DIRECTION('center_axis',(0.,-1.,0.));
#787=DIRECTION('ref_axis',(0.,0.,1.));
#788=DIRECTION('center_axis',(0.,-1.,0.));
#789=DIRECTION('ref_axis',(0.,0.,1.));
#790=DIRECTION('',(-8.65956056235492E-17,-0.707106781186549,0.707106781186546));
#791=DIRECTION('center_axis',(0.,1.,0.));
#792=DIRECTION('ref_axis',(0.,0.,1.));
#793=DIRECTION('center_axis',(0.,1.,0.));
#794=DIRECTION('ref_axis',(0.,0.,1.));
#795=DIRECTION('center_axis',(0.,1.,0.));
#796=DIRECTION('ref_axis',(0.,0.,1.));
#797=DIRECTION('',(-8.65956056235497E-17,0.707106781186544,-0.707106781186551));
#798=DIRECTION('center_axis',(0.,-1.,0.));
#799=DIRECTION('ref_axis',(0.,0.,1.));
#800=DIRECTION('center_axis',(0.,-1.,0.));
#801=DIRECTION('ref_axis',(0.,0.,-1.));
#802=DIRECTION('center_axis',(0.,-1.,0.));
#803=DIRECTION('ref_axis',(0.,0.,1.));
#804=DIRECTION('center_axis',(0.,-1.,0.));
#805=DIRECTION('ref_axis',(0.,0.,1.));
#806=DIRECTION('',(-8.65956056235501E-17,-0.707106781186541,0.707106781186554));
#807=DIRECTION('center_axis',(0.,1.,0.));
#808=DIRECTION('ref_axis',(0.,0.,1.));
#809=DIRECTION('center_axis',(0.,1.,0.));
#810=DIRECTION('ref_axis',(0.,0.,1.));
#811=DIRECTION('center_axis',(0.,1.,0.));
#812=DIRECTION('ref_axis',(0.,0.,1.));
#813=DIRECTION('',(-8.65956056235517E-17,0.707106781186529,-0.707106781186566));
#814=DIRECTION('center_axis',(0.,-1.,0.));
#815=DIRECTION('ref_axis',(0.,0.,1.));
#816=DIRECTION('center_axis',(0.,-1.,0.));
#817=DIRECTION('ref_axis',(0.,0.,-1.));
#818=DIRECTION('center_axis',(0.,-1.,0.));
#819=DIRECTION('ref_axis',(0.,0.,1.));
#820=DIRECTION('center_axis',(0.,-1.,0.));
#821=DIRECTION('ref_axis',(0.,0.,1.));
#822=DIRECTION('',(-8.65956056235483E-17,-0.707106781186556,0.707106781186539));
#823=DIRECTION('center_axis',(0.,1.,0.));
#824=DIRECTION('ref_axis',(0.,0.,1.));
#825=DIRECTION('center_axis',(0.,1.,0.));
#826=DIRECTION('ref_axis',(0.,0.,1.));
#827=DIRECTION('center_axis',(0.,1.,0.));
#828=DIRECTION('ref_axis',(0.,0.,1.));
#829=DIRECTION('',(-8.65956056235497E-17,0.707106781186544,-0.707106781186551));
#830=DIRECTION('center_axis',(0.,-1.,0.));
#831=DIRECTION('ref_axis',(0.,0.,1.));
#832=DIRECTION('center_axis',(0.,-1.,0.));
#833=DIRECTION('ref_axis',(0.,0.,-1.));
#834=DIRECTION('center_axis',(0.,-1.,0.));
#835=DIRECTION('ref_axis',(0.,0.,1.));
#836=DIRECTION('center_axis',(0.,-1.,0.));
#837=DIRECTION('ref_axis',(0.,0.,1.));
#838=DIRECTION('',(-8.65956056235501E-17,-0.707106781186541,0.707106781186554));
#839=DIRECTION('center_axis',(0.,1.,0.));
#840=DIRECTION('ref_axis',(0.,0.,1.));
#841=DIRECTION('center_axis',(0.,1.,0.));
#842=DIRECTION('ref_axis',(0.,0.,1.));
#843=DIRECTION('center_axis',(0.,1.,0.));
#844=DIRECTION('ref_axis',(0.,0.,1.));
#845=DIRECTION('',(-8.65956056235516E-17,0.707106781186529,-0.707106781186566));
#846=DIRECTION('center_axis',(0.,-1.,0.));
#847=DIRECTION('ref_axis',(0.,0.,1.));
#848=DIRECTION('center_axis',(0.,-1.,0.));
#849=DIRECTION('ref_axis',(0.,0.,-1.));
#850=DIRECTION('center_axis',(0.,-1.,0.));
#851=DIRECTION('ref_axis',(0.,0.,1.));
#852=DIRECTION('center_axis',(0.,-1.,0.));
#853=DIRECTION('ref_axis',(0.,0.,1.));
#854=DIRECTION('',(-8.65956056235517E-17,-0.707106781186528,0.707106781186567));
#855=DIRECTION('center_axis',(0.,1.,0.));
#856=DIRECTION('ref_axis',(0.,0.,1.));
#857=DIRECTION('center_axis',(0.,1.,0.));
#858=DIRECTION('ref_axis',(0.,0.,1.));
#859=DIRECTION('center_axis',(0.,1.,0.));
#860=DIRECTION('ref_axis',(0.,0.,1.));
#861=DIRECTION('',(-8.65956056235515E-17,0.70710678118653,-0.707106781186565));
#862=DIRECTION('center_axis',(0.,-1.,0.));
#863=DIRECTION('ref_axis',(0.,0.,1.));
#864=DIRECTION('center_axis',(0.,-1.,0.));
#865=DIRECTION('ref_axis',(0.,0.,-1.));
#866=DIRECTION('center_axis',(0.,-1.,0.));
#867=DIRECTION('ref_axis',(0.,0.,1.));
#868=DIRECTION('center_axis',(0.,-1.,0.));
#869=DIRECTION('ref_axis',(0.,0.,1.));
#870=DIRECTION('',(-8.65956056235501E-17,-0.707106781186541,0.707106781186554));
#871=DIRECTION('center_axis',(0.,1.,0.));
#872=DIRECTION('ref_axis',(0.,0.,1.));
#873=DIRECTION('center_axis',(0.,1.,0.));
#874=DIRECTION('ref_axis',(0.,0.,1.));
#875=DIRECTION('center_axis',(0.,1.,0.));
#876=DIRECTION('ref_axis',(0.,0.,1.));
#877=DIRECTION('',(-8.65956056235517E-17,0.707106781186529,-0.707106781186566));
#878=DIRECTION('center_axis',(0.,-1.,0.));
#879=DIRECTION('ref_axis',(0.,0.,1.));
#880=DIRECTION('center_axis',(0.,-1.,0.));
#881=DIRECTION('ref_axis',(0.,0.,-1.));
#882=DIRECTION('center_axis',(0.,-1.,0.));
#883=DIRECTION('ref_axis',(0.,0.,1.));
#884=DIRECTION('center_axis',(0.,-1.,0.));
#885=DIRECTION('ref_axis',(0.,0.,1.));
#886=DIRECTION('',(-8.65956056235479E-17,-0.707106781186559,0.707106781186536));
#887=DIRECTION('center_axis',(0.,1.,0.));
#888=DIRECTION('ref_axis',(0.,0.,1.));
#889=DIRECTION('center_axis',(0.,1.,0.));
#890=DIRECTION('ref_axis',(0.,0.,1.));
#891=DIRECTION('center_axis',(0.,1.,0.));
#892=DIRECTION('ref_axis',(0.,0.,1.));
#893=DIRECTION('',(-8.65956056235512E-17,0.707106781186532,-0.707106781186563));
#894=DIRECTION('center_axis',(0.,-1.,0.));
#895=DIRECTION('ref_axis',(0.,0.,1.));
#896=DIRECTION('center_axis',(0.,1.,0.));
#897=DIRECTION('ref_axis',(0.,0.,1.));
#898=DIRECTION('',(0.,1.,0.));
#899=DIRECTION('center_axis',(0.,1.,0.));
#900=DIRECTION('ref_axis',(0.,0.,1.));
#901=DIRECTION('',(0.,1.,0.));
#902=DIRECTION('center_axis',(0.,1.,0.));
#903=DIRECTION('ref_axis',(0.,0.,1.));
#904=DIRECTION('',(0.,1.,0.));
#905=DIRECTION('center_axis',(0.,1.,0.));
#906=DIRECTION('ref_axis',(0.,0.,1.));
#907=DIRECTION('',(0.,1.,0.));
#908=DIRECTION('center_axis',(0.,1.,0.));
#909=DIRECTION('ref_axis',(0.,0.,1.));
#910=DIRECTION('',(0.,1.,0.));
#911=DIRECTION('center_axis',(0.,1.,0.));
#912=DIRECTION('ref_axis',(0.,0.,1.));
#913=DIRECTION('',(0.,1.,0.));
#914=DIRECTION('center_axis',(0.,1.,0.));
#915=DIRECTION('ref_axis',(0.,0.,1.));
#916=DIRECTION('',(0.,1.,0.));
#917=DIRECTION('center_axis',(0.,-1.,0.));
#918=DIRECTION('ref_axis',(0.,0.,-1.));
#919=DIRECTION('center_axis',(0.,-1.,0.));
#920=DIRECTION('ref_axis',(0.,0.,1.));
#921=DIRECTION('center_axis',(0.,-1.,0.));
#922=DIRECTION('ref_axis',(0.,0.,1.));
#923=DIRECTION('',(-8.65956056235501E-17,-0.707106781186541,0.707106781186554));
#924=DIRECTION('center_axis',(0.,1.,0.));
#925=DIRECTION('ref_axis',(0.,0.,1.));
#926=DIRECTION('center_axis',(0.,1.,0.));
#927=DIRECTION('ref_axis',(0.,0.,1.));
#928=DIRECTION('center_axis',(0.,1.,0.));
#929=DIRECTION('ref_axis',(0.,0.,1.));
#930=DIRECTION('',(-8.65956056235516E-17,0.707106781186529,-0.707106781186566));
#931=DIRECTION('center_axis',(0.,-1.,0.));
#932=DIRECTION('ref_axis',(0.,0.,1.));
#933=DIRECTION('center_axis',(0.,1.,0.));
#934=DIRECTION('ref_axis',(0.,0.,1.));
#935=DIRECTION('',(0.,1.,0.));
#936=DIRECTION('center_axis',(0.,-1.,0.));
#937=DIRECTION('ref_axis',(0.,0.,-1.));
#938=DIRECTION('',(0.,1.,0.));
#939=DIRECTION('center_axis',(0.,1.,0.));
#940=DIRECTION('ref_axis',(0.,0.,1.));
#941=DIRECTION('center_axis',(0.,1.,0.));
#942=DIRECTION('ref_axis',(0.,0.,1.));
#943=DIRECTION('center_axis',(0.,1.,0.));
#944=DIRECTION('ref_axis',(0.,0.,1.));
#945=DIRECTION('center_axis',(0.,1.,0.));
#946=DIRECTION('ref_axis',(0.,0.,1.));
#947=CARTESIAN_POINT('',(0.,0.,0.));
#948=CARTESIAN_POINT('Origin',(0.,0.,0.));
#949=CARTESIAN_POINT('',(9.45427328941757E-15,0.499999999999959,-77.2));
#950=CARTESIAN_POINT('',(-9.45427328941757E-15,0.499999999999962,77.2));
#951=CARTESIAN_POINT('Origin',(0.,0.499999999999959,0.));
#952=CARTESIAN_POINT('Origin',(0.,0.499999999999959,0.));
#953=CARTESIAN_POINT('',(-9.51550562937493E-15,-2.98938425804366E-15,77.7));
#954=CARTESIAN_POINT('',(-9.51550562937493E-15,0.,77.7));
#955=CARTESIAN_POINT('Origin',(0.,0.,0.));
#956=CARTESIAN_POINT('Origin',(0.,32.7403206588699,0.));
#957=CARTESIAN_POINT('',(-9.45427328941757E-15,9.50000000000001,-77.2));
#958=CARTESIAN_POINT('',(-9.45427328941757E-15,32.7403206588699,-77.2));
#959=CARTESIAN_POINT('Origin',(0.,9.50000000000002,0.));
#960=CARTESIAN_POINT('Origin',(0.,32.7403206588699,0.));
#961=CARTESIAN_POINT('',(-9.24608333356252E-15,9.50000000000001,-75.5));
#962=CARTESIAN_POINT('Origin',(0.,9.50000000000002,0.));
#963=CARTESIAN_POINT('',(-9.24608333356252E-15,11.5,-75.5));
#964=CARTESIAN_POINT('',(-9.24608333356252E-15,32.7403206588699,-75.5));
#965=CARTESIAN_POINT('Origin',(0.,11.5,0.));
#966=CARTESIAN_POINT('Origin',(0.,15.7,0.));
#967=CARTESIAN_POINT('',(-9.36854801347725E-15,15.7,-76.5));
#968=CARTESIAN_POINT('Origin',(0.,15.7,0.));
#969=CARTESIAN_POINT('',(-9.40528741745168E-15,16.,-76.8000000000001));
#970=CARTESIAN_POINT('',(-9.36854801347725E-15,15.7,-76.5));
#971=CARTESIAN_POINT('Origin',(0.,16.,0.));
#972=CARTESIAN_POINT('Origin',(0.,16.,0.));
#973=CARTESIAN_POINT('',(-1.37772764904077E-14,15.6,112.5));
#974=CARTESIAN_POINT('Origin',(0.,15.6,0.));
#975=CARTESIAN_POINT('',(-1.37282906184418E-14,16.,112.1));
#976=CARTESIAN_POINT('',(-1.37282906184418E-14,16.,112.1));
#977=CARTESIAN_POINT('Origin',(0.,16.,0.));
#978=CARTESIAN_POINT('Origin',(0.,0.400000000000011,0.));
#979=CARTESIAN_POINT('',(1.37772764904077E-14,0.400000000000011,112.5));
#980=CARTESIAN_POINT('',(-1.37772764904077E-14,0.400000000000011,-112.5));
#981=CARTESIAN_POINT('Origin',(0.,0.400000000000011,0.));
#982=CARTESIAN_POINT('Origin',(0.,0.400000000000011,0.));
#983=CARTESIAN_POINT('',(-1.37282906184418E-14,7.70217223333702E-15,-112.1));
#984=CARTESIAN_POINT('',(-1.37772764904077E-14,0.400000000000011,-112.5));
#985=CARTESIAN_POINT('Origin',(0.,0.,0.));
#986=CARTESIAN_POINT('Origin',(0.,11.5,0.));
#987=CARTESIAN_POINT('',(-9.36854801347725E-15,11.5,-76.5));
#988=CARTESIAN_POINT('Origin',(0.,11.5,0.));
#989=CARTESIAN_POINT('',(-9.36854801347725E-15,11.5,-76.5));
#990=CARTESIAN_POINT('Origin',(-70.7106781186539,0.,-70.7106781186556));
#991=CARTESIAN_POINT('',(-70.7106781186539,0.499999999999941,-76.2106781186556));
#992=CARTESIAN_POINT('',(-70.7106781186539,0.499999999999936,-65.2106781186556));
#993=CARTESIAN_POINT('Origin',(-70.7106781186539,0.499999999999941,-70.7106781186556));
#994=CARTESIAN_POINT('Origin',(-70.7106781186539,0.499999999999941,-70.7106781186556));
#995=CARTESIAN_POINT('',(-70.7106781186539,-2.30840483246612E-16,-64.7106781186557));
#996=CARTESIAN_POINT('',(-70.7106781186539,0.,-64.7106781186557));
#997=CARTESIAN_POINT('Origin',(-70.7106781186539,0.,-70.7106781186556));
#998=CARTESIAN_POINT('Origin',(-70.7106781186539,15.5,-70.7106781186556));
#999=CARTESIAN_POINT('',(-70.7106781186539,15.5,-76.2106781186556));
#1000=CARTESIAN_POINT('Origin',(-70.7106781186539,15.5,-70.7106781186556));
#1001=CARTESIAN_POINT('',(-70.7106781186539,16.,-76.7106781186557));
#1002=CARTESIAN_POINT('',(-70.7106781186539,15.5,-76.2106781186556));
#1003=CARTESIAN_POINT('Origin',(-70.7106781186539,16.,-70.7106781186556));
#1004=CARTESIAN_POINT('Origin',(-100.,0.,-1.04744440165294E-12));
#1005=CARTESIAN_POINT('',(-100.,0.49999999999994,-5.50000000000105));
#1006=CARTESIAN_POINT('',(-100.,0.499999999999941,5.49999999999895));
#1007=CARTESIAN_POINT('Origin',(-100.,0.49999999999994,-1.04744440165294E-12));
#1008=CARTESIAN_POINT('Origin',(-100.,0.49999999999994,-1.04744440165294E-12));
#1009=CARTESIAN_POINT('',(-100.,-2.30840483246613E-16,5.9999999999989));
#1010=CARTESIAN_POINT('',(-100.,0.,5.9999999999989));
#1011=CARTESIAN_POINT('Origin',(-100.,0.,-1.04744440165294E-12));
#1012=CARTESIAN_POINT('Origin',(-100.,15.4999999999999,-1.04744440165294E-12));
#1013=CARTESIAN_POINT('',(-100.,15.4999999999999,-5.50000000000105));
#1014=CARTESIAN_POINT('Origin',(-100.,15.4999999999999,-1.04744440165294E-12));
#1015=CARTESIAN_POINT('',(-100.,16.,-6.00000000000114));
#1016=CARTESIAN_POINT('',(-100.,15.4999999999999,-5.50000000000105));
#1017=CARTESIAN_POINT('Origin',(-100.,16.,-1.04744440165294E-12));
#1018=CARTESIAN_POINT('Origin',(-70.7106781186554,0.,70.7106781186542));
#1019=CARTESIAN_POINT('',(-70.7106781186554,0.499999999999941,65.2106781186541));
#1020=CARTESIAN_POINT('',(-70.7106781186554,0.499999999999941,76.2106781186542));
#1021=CARTESIAN_POINT('Origin',(-70.7106781186554,0.499999999999941,70.7106781186542));
#1022=CARTESIAN_POINT('Origin',(-70.7106781186554,0.499999999999941,70.7106781186542));
#1023=CARTESIAN_POINT('',(-70.7106781186554,-2.30840483246612E-16,76.7106781186541));
#1024=CARTESIAN_POINT('',(-70.7106781186554,0.,76.7106781186541));
#1025=CARTESIAN_POINT('Origin',(-70.7106781186554,0.,70.7106781186542));
#1026=CARTESIAN_POINT('Origin',(-70.7106781186554,15.5,70.7106781186542));
#1027=CARTESIAN_POINT('',(-70.7106781186554,15.5,65.2106781186541));
#1028=CARTESIAN_POINT('Origin',(-70.7106781186554,15.5,70.7106781186542));
#1029=CARTESIAN_POINT('',(-70.7106781186554,16.,64.7106781186541));
#1030=CARTESIAN_POINT('',(-70.7106781186554,15.5,65.2106781186541));
#1031=CARTESIAN_POINT('Origin',(-70.7106781186554,16.,70.7106781186542));
#1032=CARTESIAN_POINT('Origin',(-6.98296267768627E-13,0.,100.));
#1033=CARTESIAN_POINT('',(-6.97622712029096E-13,0.49999999999994,94.5));
#1034=CARTESIAN_POINT('',(-6.98969823508158E-13,0.499999999999939,105.5));
#1035=CARTESIAN_POINT('Origin',(-6.98296267768627E-13,0.49999999999994,
100.));
#1036=CARTESIAN_POINT('Origin',(-6.98296267768627E-13,0.49999999999994,
100.));
#1037=CARTESIAN_POINT('',(-6.99031055848115E-13,-2.30840483246613E-16,106.));
#1038=CARTESIAN_POINT('',(-6.99031055848115E-13,0.,106.));
#1039=CARTESIAN_POINT('Origin',(-6.98296267768627E-13,0.,100.));
#1040=CARTESIAN_POINT('Origin',(-6.98296267768627E-13,15.4999999999999,
100.));
#1041=CARTESIAN_POINT('',(-6.98969823508158E-13,15.4999999999999,94.5));
#1042=CARTESIAN_POINT('Origin',(-6.98296267768627E-13,15.4999999999999,
100.));
#1043=CARTESIAN_POINT('',(-6.99031055848115E-13,16.,93.9999999999999));
#1044=CARTESIAN_POINT('',(-6.98969823508158E-13,15.4999999999999,94.5));
#1045=CARTESIAN_POINT('Origin',(-6.98296267768627E-13,16.,100.));
#1046=CARTESIAN_POINT('Origin',(70.7106781186544,0.,70.7106781186551));
#1047=CARTESIAN_POINT('',(70.7106781186544,0.49999999999994,65.2106781186551));
#1048=CARTESIAN_POINT('',(70.7106781186544,0.499999999999935,76.2106781186551));
#1049=CARTESIAN_POINT('Origin',(70.7106781186544,0.49999999999994,70.7106781186551));
#1050=CARTESIAN_POINT('Origin',(70.7106781186544,0.49999999999994,70.7106781186551));
#1051=CARTESIAN_POINT('',(70.7106781186544,-2.30840483246613E-16,76.7106781186551));
#1052=CARTESIAN_POINT('',(70.7106781186544,0.,76.7106781186551));
#1053=CARTESIAN_POINT('Origin',(70.7106781186544,0.,70.7106781186551));
#1054=CARTESIAN_POINT('Origin',(70.7106781186544,15.4999999999999,70.7106781186551));
#1055=CARTESIAN_POINT('',(70.7106781186544,15.4999999999999,65.2106781186551));
#1056=CARTESIAN_POINT('Origin',(70.7106781186544,15.4999999999999,70.7106781186551));
#1057=CARTESIAN_POINT('',(70.7106781186544,16.,64.710678118655));
#1058=CARTESIAN_POINT('',(70.7106781186544,15.4999999999999,65.2106781186551));
#1059=CARTESIAN_POINT('Origin',(70.7106781186544,16.,70.7106781186551));
#1060=CARTESIAN_POINT('Origin',(100.,0.,3.49148133884313E-13));
#1061=CARTESIAN_POINT('',(100.,0.49999999999994,-5.49999999999965));
#1062=CARTESIAN_POINT('',(100.,0.499999999999941,5.50000000000035));
#1063=CARTESIAN_POINT('Origin',(100.,0.49999999999994,3.49148133884313E-13));
#1064=CARTESIAN_POINT('Origin',(100.,0.49999999999994,3.49148133884313E-13));
#1065=CARTESIAN_POINT('',(100.,-2.30840483246613E-16,6.0000000000003));
#1066=CARTESIAN_POINT('',(100.,0.,6.0000000000003));
#1067=CARTESIAN_POINT('Origin',(100.,0.,3.49148133884313E-13));
#1068=CARTESIAN_POINT('Origin',(100.,15.4999999999999,3.49148133884313E-13));
#1069=CARTESIAN_POINT('',(100.,15.4999999999999,-5.49999999999965));
#1070=CARTESIAN_POINT('Origin',(100.,15.4999999999999,3.49148133884313E-13));
#1071=CARTESIAN_POINT('',(100.,16.,-5.99999999999974));
#1072=CARTESIAN_POINT('',(100.,15.4999999999999,-5.49999999999965));
#1073=CARTESIAN_POINT('Origin',(100.,16.,3.49148133884313E-13));
#1074=CARTESIAN_POINT('Origin',(70.7106781186549,0.,-70.7106781186546));
#1075=CARTESIAN_POINT('',(70.7106781186549,0.500000000000025,-76.2106781186546));
#1076=CARTESIAN_POINT('',(70.7106781186549,0.50000000000002,-65.2106781186547));
#1077=CARTESIAN_POINT('Origin',(70.7106781186549,0.500000000000025,-70.7106781186546));
#1078=CARTESIAN_POINT('Origin',(70.7106781186549,0.500000000000025,-70.7106781186546));
#1079=CARTESIAN_POINT('',(70.7106781186549,-2.30840483246615E-16,-64.7106781186546));
#1080=CARTESIAN_POINT('',(70.7106781186549,0.,-64.7106781186546));
#1081=CARTESIAN_POINT('Origin',(70.7106781186549,0.,-70.7106781186546));
#1082=CARTESIAN_POINT('Origin',(70.7106781186549,15.5,-70.7106781186546));
#1083=CARTESIAN_POINT('',(70.7106781186549,15.5,-76.2106781186547));
#1084=CARTESIAN_POINT('Origin',(70.7106781186549,15.5,-70.7106781186546));
#1085=CARTESIAN_POINT('',(70.7106781186549,16.,-76.7106781186547));
#1086=CARTESIAN_POINT('',(70.7106781186549,15.5,-76.2106781186547));
#1087=CARTESIAN_POINT('Origin',(70.7106781186549,16.,-70.7106781186546));
#1088=CARTESIAN_POINT('Origin',(-70.7106781186539,0.,-70.7106781186556));
#1089=CARTESIAN_POINT('',(-70.7106781186539,0.,-76.2106781186556));
#1090=CARTESIAN_POINT('Origin',(-100.,0.,-1.04744440165294E-12));
#1091=CARTESIAN_POINT('',(-100.,0.,-5.50000000000105));
#1092=CARTESIAN_POINT('Origin',(-70.7106781186554,0.,70.7106781186542));
#1093=CARTESIAN_POINT('',(-70.7106781186554,0.,65.2106781186541));
#1094=CARTESIAN_POINT('Origin',(-6.98296267768627E-13,0.,100.));
#1095=CARTESIAN_POINT('',(-6.98969823508158E-13,0.,94.5));
#1096=CARTESIAN_POINT('Origin',(70.7106781186544,0.,70.7106781186551));
#1097=CARTESIAN_POINT('',(70.7106781186544,0.,65.2106781186551));
#1098=CARTESIAN_POINT('Origin',(100.,0.,3.49148133884313E-13));
#1099=CARTESIAN_POINT('',(100.,0.,-5.49999999999965));
#1100=CARTESIAN_POINT('Origin',(70.7106781186549,0.,-70.7106781186546));
#1101=CARTESIAN_POINT('',(70.7106781186549,0.,-76.2106781186547));
#1102=CARTESIAN_POINT('Origin',(0.,0.,-100.));
#1103=CARTESIAN_POINT('',(6.73555739531044E-16,0.49999999999994,-105.5));
#1104=CARTESIAN_POINT('',(-6.73555739531045E-16,0.499999999999939,-94.5));
#1105=CARTESIAN_POINT('Origin',(0.,0.49999999999994,-100.));
#1106=CARTESIAN_POINT('Origin',(0.,0.49999999999994,-100.));
#1107=CARTESIAN_POINT('',(-7.34788079488406E-16,-2.30840483246613E-16,-94.0000000000001));
#1108=CARTESIAN_POINT('',(-7.34788079488406E-16,0.,-94.0000000000001));
#1109=CARTESIAN_POINT('Origin',(0.,0.,-100.));
#1110=CARTESIAN_POINT('Origin',(0.,15.4999999999999,-100.));
#1111=CARTESIAN_POINT('',(-6.73555739531045E-16,15.4999999999999,-105.5));
#1112=CARTESIAN_POINT('Origin',(0.,15.4999999999999,-100.));
#1113=CARTESIAN_POINT('',(-7.34788079488423E-16,16.,-106.));
#1114=CARTESIAN_POINT('',(-6.73555739531045E-16,15.4999999999999,-105.5));
#1115=CARTESIAN_POINT('Origin',(0.,16.,-100.));
#1116=CARTESIAN_POINT('Origin',(0.,0.,-100.));
#1117=CARTESIAN_POINT('',(-6.73555739531045E-16,0.,-105.5));
#1118=CARTESIAN_POINT('Origin',(0.,16.,0.));
#1119=CARTESIAN_POINT('',(-1.37772764904077E-14,16.,112.5));
#1120=CARTESIAN_POINT('Origin',(0.,16.,0.));
#1121=CARTESIAN_POINT('Origin',(0.,0.,0.));
#1122=CARTESIAN_POINT('Origin',(0.,11.5,0.));
#1123=CARTESIAN_POINT('Origin',(-75.5,9.50000000000002,0.));
#1124=UNCERTAINTY_MEASURE_WITH_UNIT(LENGTH_MEASURE(0.01),#1128,
'DISTANCE_ACCURACY_VALUE',
'Maximum model space distance between geometric entities at asserted c
onnectivities');
#1125=UNCERTAINTY_MEASURE_WITH_UNIT(LENGTH_MEASURE(0.01),#1128,
'DISTANCE_ACCURACY_VALUE',
'Maximum model space distance between geometric entities at asserted c
onnectivities');
#1126=(
GEOMETRIC_REPRESENTATION_CONTEXT(3)
GLOBAL_UNCERTAINTY_ASSIGNED_CONTEXT((#1124))
GLOBAL_UNIT_ASSIGNED_CONTEXT((#1128,#1130,#1131))
REPRESENTATION_CONTEXT('','3D')
);
#1127=(
GEOMETRIC_REPRESENTATION_CONTEXT(3)
GLOBAL_UNCERTAINTY_ASSIGNED_CONTEXT((#1125))
GLOBAL_UNIT_ASSIGNED_CONTEXT((#1128,#1130,#1131))
REPRESENTATION_CONTEXT('','3D')
);
#1128=(
LENGTH_UNIT()
NAMED_UNIT(*)
SI_UNIT(.MILLI.,.METRE.)
);
#1129=(
LENGTH_UNIT()
NAMED_UNIT(*)
SI_UNIT($,.METRE.)
);
#1130=(
NAMED_UNIT(*)
PLANE_ANGLE_UNIT()
SI_UNIT($,.RADIAN.)
);
#1131=(
NAMED_UNIT(*)
SI_UNIT($,.STERADIAN.)
SOLID_ANGLE_UNIT()
);
#1132=SHAPE_DEFINITION_REPRESENTATION(#1133,#1134);
#1133=PRODUCT_DEFINITION_SHAPE('',$,#1136);
#1134=SHAPE_REPRESENTATION('',(#642),#1126);
#1135=PRODUCT_DEFINITION_CONTEXT('part definition',#1140,'design');
#1136=PRODUCT_DEFINITION('Hositrad_ISO-F160-154',
'Hositrad_ISO-F160-154 v1',#1137,#1135);
#1137=PRODUCT_DEFINITION_FORMATION('',$,#1142);
#1138=PRODUCT_RELATED_PRODUCT_CATEGORY('Hositrad_ISO-F160-154 v1',
'Hositrad_ISO-F160-154 v1',(#1142));
#1139=APPLICATION_PROTOCOL_DEFINITION('international standard',
'automotive_design',2009,#1140);
#1140=APPLICATION_CONTEXT(
'Core Data for Automotive Mechanical Design Process');
#1141=PRODUCT_CONTEXT('part definition',#1140,'mechanical');
#1142=PRODUCT('Hositrad_ISO-F160-154','Hositrad_ISO-F160-154 v1',$,(#1141));
#1143=PRESENTATION_STYLE_ASSIGNMENT((#1145));
#1144=PRESENTATION_STYLE_ASSIGNMENT((#1146));
#1145=SURFACE_STYLE_USAGE(.BOTH.,#1147);
#1146=SURFACE_STYLE_USAGE(.BOTH.,#1148);
#1147=SURFACE_SIDE_STYLE('',(#1149));
#1148=SURFACE_SIDE_STYLE('',(#1150));
#1149=SURFACE_STYLE_FILL_AREA(#1151);
#1150=SURFACE_STYLE_FILL_AREA(#1152);
#1151=FILL_AREA_STYLE('Steel - Satin',(#1153));
#1152=FILL_AREA_STYLE('Opaque(165,158,150)',(#1154));
#1153=FILL_AREA_STYLE_COLOUR('Steel - Satin',#1155);
#1154=FILL_AREA_STYLE_COLOUR('Opaque(165,158,150)',#1156);
#1155=COLOUR_RGB('Steel - Satin',0.627450980392157,0.627450980392157,0.627450980392157);
#1156=COLOUR_RGB('Opaque(165,158,150)',0.647058823529412,0.619607843137255,
0.588235294117647);
ENDSEC;
END-ISO-10303-21;
