ISO-10303-21;
HEADER;
/* Generated by software containing ST-Developer
 * from STEP Tools, Inc. (www.steptools.com) 
 */

FILE_DESCRIPTION(
/* description */ (''),
/* implementation_level */ '2;1');

FILE_NAME(
/* name */ 'Hositrad_KF40-44WS v1.step',
/* time_stamp */ '2024-06-25T14:35:34+02:00',
/* author */ (''),
/* organization */ (''),
/* preprocessor_version */ 'ST-DEVELOPER v20',
/* originating_system */ 'Autodesk Translation Framework v13.14.0.145',

/* authorisation */ '');

FILE_SCHEMA (('AUTOMOTIVE_DESIGN { 1 0 10303 214 3 1 1 }'));
ENDSEC;

DATA;
#10=MECHANICAL_DESIGN_GEOMETRIC_PRESENTATION_REPRESENTATION('',(#13),#201);
#11=SHAPE_REPRESENTATION_RELATIONSHIP('SRR','None',#208,#12);
#12=ADVANCED_BREP_SHAPE_REPRESENTATION('',(#14),#200);
#13=STYLED_ITEM('',(#218),#14);
#14=MANIFOLD_SOLID_BREP('Body1',#106);
#15=FACE_BOUND('',#34,.T.);
#16=FACE_BOUND('',#36,.T.);
#17=PLANE('',#133);
#18=PLANE('',#134);
#19=CONICAL_SURFACE('',#129,22.35,1.30899693899575);
#20=TOROIDAL_SURFACE('',#126,26.5,1.);
#21=FACE_OUTER_BOUND('',#28,.T.);
#22=FACE_OUTER_BOUND('',#29,.T.);
#23=FACE_OUTER_BOUND('',#30,.T.);
#24=FACE_OUTER_BOUND('',#31,.T.);
#25=FACE_OUTER_BOUND('',#32,.T.);
#26=FACE_OUTER_BOUND('',#33,.T.);
#27=FACE_OUTER_BOUND('',#35,.T.);
#28=EDGE_LOOP('',(#72,#73,#74,#75));
#29=EDGE_LOOP('',(#76,#77,#78,#79));
#30=EDGE_LOOP('',(#80,#81,#82,#83));
#31=EDGE_LOOP('',(#84,#85,#86,#87));
#32=EDGE_LOOP('',(#88,#89,#90,#91));
#33=EDGE_LOOP('',(#92));
#34=EDGE_LOOP('',(#93));
#35=EDGE_LOOP('',(#94));
#36=EDGE_LOOP('',(#95));
#37=LINE('',#176,#41);
#38=LINE('',#182,#42);
#39=LINE('',#190,#43);
#40=LINE('',#194,#44);
#41=VECTOR('',#141,20.6);
#42=VECTOR('',#148,27.5);
#43=VECTOR('',#159,22.35);
#44=VECTOR('',#164,22.35);
#45=CIRCLE('',#121,20.6);
#46=CIRCLE('',#122,20.6);
#47=CIRCLE('',#124,27.5);
#48=CIRCLE('',#125,27.5);
#49=CIRCLE('',#127,1.);
#50=CIRCLE('',#128,26.7588190451025);
#51=CIRCLE('',#130,22.35);
#52=CIRCLE('',#132,22.35);
#53=VERTEX_POINT('',#173);
#54=VERTEX_POINT('',#175);
#55=VERTEX_POINT('',#179);
#56=VERTEX_POINT('',#181);
#57=VERTEX_POINT('',#185);
#58=VERTEX_POINT('',#189);
#59=VERTEX_POINT('',#193);
#60=EDGE_CURVE('',#53,#53,#45,.T.);
#61=EDGE_CURVE('',#53,#54,#37,.T.);
#62=EDGE_CURVE('',#54,#54,#46,.T.);
#63=EDGE_CURVE('',#55,#55,#47,.T.);
#64=EDGE_CURVE('',#55,#56,#38,.T.);
#65=EDGE_CURVE('',#56,#56,#48,.T.);
#66=EDGE_CURVE('',#56,#57,#49,.T.);
#67=EDGE_CURVE('',#57,#57,#50,.T.);
#68=EDGE_CURVE('',#57,#58,#39,.T.);
#69=EDGE_CURVE('',#58,#58,#51,.T.);
#70=EDGE_CURVE('',#58,#59,#40,.T.);
#71=EDGE_CURVE('',#59,#59,#52,.T.);
#72=ORIENTED_EDGE('',*,*,#60,.F.);
#73=ORIENTED_EDGE('',*,*,#61,.T.);
#74=ORIENTED_EDGE('',*,*,#62,.T.);
#75=ORIENTED_EDGE('',*,*,#61,.F.);
#76=ORIENTED_EDGE('',*,*,#63,.F.);
#77=ORIENTED_EDGE('',*,*,#64,.T.);
#78=ORIENTED_EDGE('',*,*,#65,.T.);
#79=ORIENTED_EDGE('',*,*,#64,.F.);
#80=ORIENTED_EDGE('',*,*,#65,.F.);
#81=ORIENTED_EDGE('',*,*,#66,.T.);
#82=ORIENTED_EDGE('',*,*,#67,.T.);
#83=ORIENTED_EDGE('',*,*,#66,.F.);
#84=ORIENTED_EDGE('',*,*,#67,.F.);
#85=ORIENTED_EDGE('',*,*,#68,.T.);
#86=ORIENTED_EDGE('',*,*,#69,.T.);
#87=ORIENTED_EDGE('',*,*,#68,.F.);
#88=ORIENTED_EDGE('',*,*,#69,.F.);
#89=ORIENTED_EDGE('',*,*,#70,.T.);
#90=ORIENTED_EDGE('',*,*,#71,.T.);
#91=ORIENTED_EDGE('',*,*,#70,.F.);
#92=ORIENTED_EDGE('',*,*,#63,.T.);
#93=ORIENTED_EDGE('',*,*,#62,.F.);
#94=ORIENTED_EDGE('',*,*,#71,.F.);
#95=ORIENTED_EDGE('',*,*,#60,.T.);
#96=CYLINDRICAL_SURFACE('',#120,20.6);
#97=CYLINDRICAL_SURFACE('',#123,27.5);
#98=CYLINDRICAL_SURFACE('',#131,22.35);
#99=ADVANCED_FACE('',(#21),#96,.F.);
#100=ADVANCED_FACE('',(#22),#97,.T.);
#101=ADVANCED_FACE('',(#23),#20,.T.);
#102=ADVANCED_FACE('',(#24),#19,.T.);
#103=ADVANCED_FACE('',(#25),#98,.F.);
#104=ADVANCED_FACE('',(#26,#15),#17,.F.);
#105=ADVANCED_FACE('',(#27,#16),#18,.F.);
#106=CLOSED_SHELL('',(#99,#100,#101,#102,#103,#104,#105));
#107=DERIVED_UNIT_ELEMENT(#109,1.);
#108=DERIVED_UNIT_ELEMENT(#203,-3.);
#109=(
MASS_UNIT()
NAMED_UNIT(*)
SI_UNIT(.KILO.,.GRAM.)
);
#110=DERIVED_UNIT((#107,#108));
#111=MEASURE_REPRESENTATION_ITEM('density measure',
POSITIVE_RATIO_MEASURE(7850.),#110);
#112=PROPERTY_DEFINITION_REPRESENTATION(#117,#114);
#113=PROPERTY_DEFINITION_REPRESENTATION(#118,#115);
#114=REPRESENTATION('material name',(#116),#200);
#115=REPRESENTATION('density',(#111),#200);
#116=DESCRIPTIVE_REPRESENTATION_ITEM('Steel','Steel');
#117=PROPERTY_DEFINITION('material property','material name',#210);
#118=PROPERTY_DEFINITION('material property','density of part',#210);
#119=AXIS2_PLACEMENT_3D('',#171,#135,#136);
#120=AXIS2_PLACEMENT_3D('',#172,#137,#138);
#121=AXIS2_PLACEMENT_3D('',#174,#139,#140);
#122=AXIS2_PLACEMENT_3D('',#177,#142,#143);
#123=AXIS2_PLACEMENT_3D('',#178,#144,#145);
#124=AXIS2_PLACEMENT_3D('',#180,#146,#147);
#125=AXIS2_PLACEMENT_3D('',#183,#149,#150);
#126=AXIS2_PLACEMENT_3D('',#184,#151,#152);
#127=AXIS2_PLACEMENT_3D('',#186,#153,#154);
#128=AXIS2_PLACEMENT_3D('',#187,#155,#156);
#129=AXIS2_PLACEMENT_3D('',#188,#157,#158);
#130=AXIS2_PLACEMENT_3D('',#191,#160,#161);
#131=AXIS2_PLACEMENT_3D('',#192,#162,#163);
#132=AXIS2_PLACEMENT_3D('',#195,#165,#166);
#133=AXIS2_PLACEMENT_3D('',#196,#167,#168);
#134=AXIS2_PLACEMENT_3D('',#197,#169,#170);
#135=DIRECTION('axis',(0.,0.,1.));
#136=DIRECTION('refdir',(1.,0.,0.));
#137=DIRECTION('center_axis',(0.,-1.,0.));
#138=DIRECTION('ref_axis',(0.,0.,-1.));
#139=DIRECTION('center_axis',(0.,-1.,0.));
#140=DIRECTION('ref_axis',(0.,0.,-1.));
#141=DIRECTION('',(0.,-1.,0.));
#142=DIRECTION('center_axis',(0.,-1.,0.));
#143=DIRECTION('ref_axis',(0.,0.,-1.));
#144=DIRECTION('center_axis',(0.,-1.,0.));
#145=DIRECTION('ref_axis',(0.,0.,-1.));
#146=DIRECTION('center_axis',(0.,-1.,0.));
#147=DIRECTION('ref_axis',(0.,0.,-1.));
#148=DIRECTION('',(0.,1.,0.));
#149=DIRECTION('center_axis',(0.,-1.,0.));
#150=DIRECTION('ref_axis',(0.,0.,-1.));
#151=DIRECTION('center_axis',(0.,-1.,0.));
#152=DIRECTION('ref_axis',(0.,0.,-1.));
#153=DIRECTION('center_axis',(-1.,0.,-1.22464679914735E-16));
#154=DIRECTION('ref_axis',(-1.22464679914735E-16,0.,1.));
#155=DIRECTION('center_axis',(0.,-1.,0.));
#156=DIRECTION('ref_axis',(0.,0.,-1.));
#157=DIRECTION('center_axis',(0.,-1.,0.));
#158=DIRECTION('ref_axis',(0.,0.,-1.));
#159=DIRECTION('',(1.18291797137867E-16,0.258819045102518,-0.965925826289069));
#160=DIRECTION('center_axis',(0.,-1.,0.));
#161=DIRECTION('ref_axis',(0.,0.,-1.));
#162=DIRECTION('center_axis',(0.,-1.,0.));
#163=DIRECTION('ref_axis',(0.,0.,-1.));
#164=DIRECTION('',(0.,-1.,0.));
#165=DIRECTION('center_axis',(0.,-1.,0.));
#166=DIRECTION('ref_axis',(0.,0.,-1.));
#167=DIRECTION('center_axis',(0.,1.,0.));
#168=DIRECTION('ref_axis',(0.,0.,1.));
#169=DIRECTION('center_axis',(0.,-1.,0.));
#170=DIRECTION('ref_axis',(0.,0.,-1.));
#171=CARTESIAN_POINT('',(0.,0.,0.));
#172=CARTESIAN_POINT('Origin',(0.,-16.4688111534775,0.));
#173=CARTESIAN_POINT('',(-2.52277240624355E-15,3.5,20.6));
#174=CARTESIAN_POINT('Origin',(0.,3.5,0.));
#175=CARTESIAN_POINT('',(-2.52277240624355E-15,0.,20.6));
#176=CARTESIAN_POINT('',(-2.52277240624355E-15,-16.4688111534775,20.6));
#177=CARTESIAN_POINT('Origin',(0.,0.,0.));
#178=CARTESIAN_POINT('Origin',(0.,-16.4688111534775,0.));
#179=CARTESIAN_POINT('',(-3.36777869765522E-15,-4.44089209850063E-15,27.5));
#180=CARTESIAN_POINT('Origin',(0.,-3.46944695195361E-15,0.));
#181=CARTESIAN_POINT('',(-3.36777869765522E-15,2.23267301202103,27.5));
#182=CARTESIAN_POINT('',(-3.36777869765522E-15,-16.4688111534775,27.5));
#183=CARTESIAN_POINT('Origin',(0.,2.23267301202103,0.));
#184=CARTESIAN_POINT('Origin',(0.,2.23267301202103,0.));
#185=CARTESIAN_POINT('',(-3.2770102092548E-15,3.19859883831011,26.7588190451025));
#186=CARTESIAN_POINT('Origin',(-3.24531401774049E-15,2.23267301202103,26.5));
#187=CARTESIAN_POINT('Origin',(0.,3.19859883831011,0.));
#188=CARTESIAN_POINT('Origin',(0.,4.37993834102026,0.));
#189=CARTESIAN_POINT('',(-2.73708559609433E-15,4.37993834102026,22.35));
#190=CARTESIAN_POINT('',(-2.73708559609433E-15,4.37993834102026,22.35));
#191=CARTESIAN_POINT('Origin',(0.,4.37993834102026,0.));
#192=CARTESIAN_POINT('Origin',(0.,-16.4688111534775,0.));
#193=CARTESIAN_POINT('',(-2.73708559609433E-15,3.5,22.35));
#194=CARTESIAN_POINT('',(-2.73708559609433E-15,-16.4688111534775,22.35));
#195=CARTESIAN_POINT('Origin',(0.,3.5,0.));
#196=CARTESIAN_POINT('Origin',(0.,-1.68388934882761E-15,20.6));
#197=CARTESIAN_POINT('Origin',(0.,3.5,22.35));
#198=UNCERTAINTY_MEASURE_WITH_UNIT(LENGTH_MEASURE(0.01),#202,
'DISTANCE_ACCURACY_VALUE',
'Maximum model space distance between geometric entities at asserted c
onnectivities');
#199=UNCERTAINTY_MEASURE_WITH_UNIT(LENGTH_MEASURE(0.01),#202,
'DISTANCE_ACCURACY_VALUE',
'Maximum model space distance between geometric entities at asserted c
onnectivities');
#200=(
GEOMETRIC_REPRESENTATION_CONTEXT(3)
GLOBAL_UNCERTAINTY_ASSIGNED_CONTEXT((#198))
GLOBAL_UNIT_ASSIGNED_CONTEXT((#202,#204,#205))
REPRESENTATION_CONTEXT('','3D')
);
#201=(
GEOMETRIC_REPRESENTATION_CONTEXT(3)
GLOBAL_UNCERTAINTY_ASSIGNED_CONTEXT((#199))
GLOBAL_UNIT_ASSIGNED_CONTEXT((#202,#204,#205))
REPRESENTATION_CONTEXT('','3D')
);
#202=(
LENGTH_UNIT()
NAMED_UNIT(*)
SI_UNIT(.MILLI.,.METRE.)
);
#203=(
LENGTH_UNIT()
NAMED_UNIT(*)
SI_UNIT($,.METRE.)
);
#204=(
NAMED_UNIT(*)
PLANE_ANGLE_UNIT()
SI_UNIT($,.RADIAN.)
);
#205=(
NAMED_UNIT(*)
SI_UNIT($,.STERADIAN.)
SOLID_ANGLE_UNIT()
);
#206=SHAPE_DEFINITION_REPRESENTATION(#207,#208);
#207=PRODUCT_DEFINITION_SHAPE('',$,#210);
#208=SHAPE_REPRESENTATION('',(#119),#200);
#209=PRODUCT_DEFINITION_CONTEXT('part definition',#214,'design');
#210=PRODUCT_DEFINITION('Hositrad_KF40-44WS','Hositrad_KF40-44WS v1',#211,
#209);
#211=PRODUCT_DEFINITION_FORMATION('',$,#216);
#212=PRODUCT_RELATED_PRODUCT_CATEGORY('Hositrad_KF40-44WS v1',
'Hositrad_KF40-44WS v1',(#216));
#213=APPLICATION_PROTOCOL_DEFINITION('international standard',
'automotive_design',2009,#214);
#214=APPLICATION_CONTEXT(
'Core Data for Automotive Mechanical Design Process');
#215=PRODUCT_CONTEXT('part definition',#214,'mechanical');
#216=PRODUCT('Hositrad_KF40-44WS','Hositrad_KF40-44WS v1',$,(#215));
#217=PRESENTATION_STYLE_ASSIGNMENT((#219));
#218=PRESENTATION_STYLE_ASSIGNMENT((#220));
#219=SURFACE_STYLE_USAGE(.BOTH.,#221);
#220=SURFACE_STYLE_USAGE(.BOTH.,#222);
#221=SURFACE_SIDE_STYLE('',(#223));
#222=SURFACE_SIDE_STYLE('',(#224));
#223=SURFACE_STYLE_FILL_AREA(#225);
#224=SURFACE_STYLE_FILL_AREA(#226);
#225=FILL_AREA_STYLE('Steel - Satin',(#227));
#226=FILL_AREA_STYLE('Opaque(165,158,150)',(#228));
#227=FILL_AREA_STYLE_COLOUR('Steel - Satin',#229);
#228=FILL_AREA_STYLE_COLOUR('Opaque(165,158,150)',#230);
#229=COLOUR_RGB('Steel - Satin',0.627450980392157,0.627450980392157,0.627450980392157);
#230=COLOUR_RGB('Opaque(165,158,150)',0.647058823529412,0.619607843137255,
0.588235294117647);
ENDSEC;
END-ISO-10303-21;
