ISO-10303-21;
HEADER;
/* Generated by software containing ST-Developer
 * from STEP Tools, Inc. (www.steptools.com) 
 */

FILE_DESCRIPTION(
/* description */ (''),
/* implementation_level */ '2;1');

FILE_NAME(
/* name */ 'Hositrad_CF16-6-T v1.step',
/* time_stamp */ '2024-06-25T13:40:52+02:00',
/* author */ (''),
/* organization */ (''),
/* preprocessor_version */ 'ST-DEVELOPER v20',
/* originating_system */ 'Autodesk Translation Framework v13.14.0.145',

/* authorisation */ '');

FILE_SCHEMA (('AUTOMOTIVE_DESIGN { 1 0 10303 214 3 1 1 }'));
ENDSEC;

DATA;
#10=MECHANICAL_DESIGN_GEOMETRIC_PRESENTATION_REPRESENTATION('',(#13),#894);
#11=SHAPE_REPRESENTATION_RELATIONSHIP('SRR','None',#901,#12);
#12=ADVANCED_BREP_SHAPE_REPRESENTATION('',(#14),#893);
#13=STYLED_ITEM('',(#911),#14);
#14=MANIFOLD_SOLID_BREP('Body1',#497);
#15=FACE_BOUND('',#96,.T.);
#16=FACE_BOUND('',#97,.T.);
#17=FACE_BOUND('',#98,.T.);
#18=FACE_BOUND('',#99,.T.);
#19=FACE_BOUND('',#100,.T.);
#20=FACE_BOUND('',#101,.T.);
#21=FACE_BOUND('',#102,.T.);
#22=FACE_BOUND('',#104,.T.);
#23=FACE_BOUND('',#105,.T.);
#24=FACE_BOUND('',#106,.T.);
#25=FACE_BOUND('',#107,.T.);
#26=FACE_BOUND('',#108,.T.);
#27=FACE_BOUND('',#109,.T.);
#28=FACE_BOUND('',#110,.T.);
#29=FACE_BOUND('',#112,.T.);
#30=PLANE('',#579);
#31=PLANE('',#580);
#32=PLANE('',#581);
#33=CYLINDRICAL_SURFACE('',#514,1.65);
#34=CYLINDRICAL_SURFACE('',#522,1.65);
#35=CYLINDRICAL_SURFACE('',#530,1.65);
#36=CYLINDRICAL_SURFACE('',#538,1.65);
#37=CYLINDRICAL_SURFACE('',#546,1.65);
#38=CYLINDRICAL_SURFACE('',#554,1.65);
#39=CYLINDRICAL_SURFACE('',#559,3.175);
#40=CYLINDRICAL_SURFACE('',#576,10.75);
#41=CYLINDRICAL_SURFACE('',#578,17.);
#42=FACE_OUTER_BOUND('',#70,.T.);
#43=FACE_OUTER_BOUND('',#71,.T.);
#44=FACE_OUTER_BOUND('',#72,.T.);
#45=FACE_OUTER_BOUND('',#73,.T.);
#46=FACE_OUTER_BOUND('',#74,.T.);
#47=FACE_OUTER_BOUND('',#75,.T.);
#48=FACE_OUTER_BOUND('',#76,.T.);
#49=FACE_OUTER_BOUND('',#77,.T.);
#50=FACE_OUTER_BOUND('',#78,.T.);
#51=FACE_OUTER_BOUND('',#79,.T.);
#52=FACE_OUTER_BOUND('',#80,.T.);
#53=FACE_OUTER_BOUND('',#81,.T.);
#54=FACE_OUTER_BOUND('',#82,.T.);
#55=FACE_OUTER_BOUND('',#83,.T.);
#56=FACE_OUTER_BOUND('',#84,.T.);
#57=FACE_OUTER_BOUND('',#85,.T.);
#58=FACE_OUTER_BOUND('',#86,.T.);
#59=FACE_OUTER_BOUND('',#87,.T.);
#60=FACE_OUTER_BOUND('',#88,.T.);
#61=FACE_OUTER_BOUND('',#89,.T.);
#62=FACE_OUTER_BOUND('',#90,.T.);
#63=FACE_OUTER_BOUND('',#91,.T.);
#64=FACE_OUTER_BOUND('',#92,.T.);
#65=FACE_OUTER_BOUND('',#93,.T.);
#66=FACE_OUTER_BOUND('',#94,.T.);
#67=FACE_OUTER_BOUND('',#95,.T.);
#68=FACE_OUTER_BOUND('',#103,.T.);
#69=FACE_OUTER_BOUND('',#111,.T.);
#70=EDGE_LOOP('',(#317,#318,#319,#320));
#71=EDGE_LOOP('',(#321,#322,#323,#324,#325));
#72=EDGE_LOOP('',(#326,#327,#328,#329,#330));
#73=EDGE_LOOP('',(#331,#332,#333,#334));
#74=EDGE_LOOP('',(#335,#336,#337,#338,#339));
#75=EDGE_LOOP('',(#340,#341,#342,#343,#344));
#76=EDGE_LOOP('',(#345,#346,#347,#348));
#77=EDGE_LOOP('',(#349,#350,#351,#352,#353));
#78=EDGE_LOOP('',(#354,#355,#356,#357,#358));
#79=EDGE_LOOP('',(#359,#360,#361,#362));
#80=EDGE_LOOP('',(#363,#364,#365,#366,#367));
#81=EDGE_LOOP('',(#368,#369,#370,#371,#372));
#82=EDGE_LOOP('',(#373,#374,#375,#376));
#83=EDGE_LOOP('',(#377,#378,#379,#380,#381));
#84=EDGE_LOOP('',(#382,#383,#384,#385,#386));
#85=EDGE_LOOP('',(#387,#388,#389,#390));
#86=EDGE_LOOP('',(#391,#392,#393,#394,#395));
#87=EDGE_LOOP('',(#396,#397,#398,#399,#400));
#88=EDGE_LOOP('',(#401,#402,#403,#404));
#89=EDGE_LOOP('',(#405,#406,#407,#408));
#90=EDGE_LOOP('',(#409,#410,#411,#412,#413));
#91=EDGE_LOOP('',(#414,#415,#416,#417,#418));
#92=EDGE_LOOP('',(#419,#420,#421,#422,#423,#424));
#93=EDGE_LOOP('',(#425,#426,#427,#428,#429));
#94=EDGE_LOOP('',(#430,#431,#432,#433,#434));
#95=EDGE_LOOP('',(#435));
#96=EDGE_LOOP('',(#436));
#97=EDGE_LOOP('',(#437));
#98=EDGE_LOOP('',(#438));
#99=EDGE_LOOP('',(#439));
#100=EDGE_LOOP('',(#440));
#101=EDGE_LOOP('',(#441));
#102=EDGE_LOOP('',(#442));
#103=EDGE_LOOP('',(#443));
#104=EDGE_LOOP('',(#444));
#105=EDGE_LOOP('',(#445));
#106=EDGE_LOOP('',(#446));
#107=EDGE_LOOP('',(#447));
#108=EDGE_LOOP('',(#448));
#109=EDGE_LOOP('',(#449));
#110=EDGE_LOOP('',(#450));
#111=EDGE_LOOP('',(#451));
#112=EDGE_LOOP('',(#452));
#113=LINE('',#756,#138);
#114=LINE('',#763,#139);
#115=LINE('',#766,#140);
#116=LINE('',#772,#141);
#117=LINE('',#779,#142);
#118=LINE('',#782,#143);
#119=LINE('',#788,#144);
#120=LINE('',#795,#145);
#121=LINE('',#798,#146);
#122=LINE('',#804,#147);
#123=LINE('',#811,#148);
#124=LINE('',#814,#149);
#125=LINE('',#820,#150);
#126=LINE('',#827,#151);
#127=LINE('',#830,#152);
#128=LINE('',#836,#153);
#129=LINE('',#843,#154);
#130=LINE('',#846,#155);
#131=LINE('',#852,#156);
#132=LINE('',#858,#157);
#133=LINE('',#866,#158);
#134=LINE('',#872,#159);
#135=LINE('',#880,#160);
#136=LINE('',#884,#161);
#137=LINE('',#887,#162);
#138=VECTOR('',#588,2.01);
#139=VECTOR('',#597,1.65);
#140=VECTOR('',#600,1.65);
#141=VECTOR('',#607,2.01);
#142=VECTOR('',#616,1.65);
#143=VECTOR('',#619,1.65);
#144=VECTOR('',#626,2.01);
#145=VECTOR('',#635,1.65);
#146=VECTOR('',#638,1.65);
#147=VECTOR('',#645,2.01);
#148=VECTOR('',#654,1.65);
#149=VECTOR('',#657,1.65);
#150=VECTOR('',#664,2.01);
#151=VECTOR('',#673,1.65);
#152=VECTOR('',#676,1.65);
#153=VECTOR('',#683,2.01);
#154=VECTOR('',#692,1.65);
#155=VECTOR('',#695,1.65);
#156=VECTOR('',#702,3.175);
#157=VECTOR('',#709,17.);
#158=VECTOR('',#718,16.6);
#159=VECTOR('',#725,8.93161785944027);
#160=VECTOR('',#734,9.15);
#161=VECTOR('',#739,10.75);
#162=VECTOR('',#744,17.);
#163=CIRCLE('',#512,1.65);
#164=CIRCLE('',#513,2.01);
#165=CIRCLE('',#515,1.65);
#166=CIRCLE('',#516,1.65);
#167=CIRCLE('',#518,2.01);
#168=CIRCLE('',#520,1.65);
#169=CIRCLE('',#521,2.01);
#170=CIRCLE('',#523,1.65);
#171=CIRCLE('',#524,1.65);
#172=CIRCLE('',#526,2.01);
#173=CIRCLE('',#528,1.65);
#174=CIRCLE('',#529,2.01);
#175=CIRCLE('',#531,1.65);
#176=CIRCLE('',#532,1.65);
#177=CIRCLE('',#534,2.01);
#178=CIRCLE('',#536,1.65);
#179=CIRCLE('',#537,2.01);
#180=CIRCLE('',#539,1.65);
#181=CIRCLE('',#540,1.65);
#182=CIRCLE('',#542,2.01);
#183=CIRCLE('',#544,1.65);
#184=CIRCLE('',#545,2.01);
#185=CIRCLE('',#547,1.65);
#186=CIRCLE('',#548,1.65);
#187=CIRCLE('',#550,2.01);
#188=CIRCLE('',#552,1.65);
#189=CIRCLE('',#553,2.01);
#190=CIRCLE('',#555,1.65);
#191=CIRCLE('',#556,1.65);
#192=CIRCLE('',#558,2.01);
#193=CIRCLE('',#560,3.175);
#194=CIRCLE('',#561,3.175);
#195=CIRCLE('',#563,17.);
#196=CIRCLE('',#564,16.6);
#197=CIRCLE('',#566,17.);
#198=CIRCLE('',#567,17.);
#199=CIRCLE('',#568,16.6);
#200=CIRCLE('',#570,8.93161785944027);
#201=CIRCLE('',#571,9.15);
#202=CIRCLE('',#572,9.15);
#203=CIRCLE('',#574,10.75);
#204=CIRCLE('',#575,10.75);
#205=CIRCLE('',#577,10.75);
#206=VERTEX_POINT('',#753);
#207=VERTEX_POINT('',#755);
#208=VERTEX_POINT('',#759);
#209=VERTEX_POINT('',#760);
#210=VERTEX_POINT('',#765);
#211=VERTEX_POINT('',#769);
#212=VERTEX_POINT('',#771);
#213=VERTEX_POINT('',#775);
#214=VERTEX_POINT('',#776);
#215=VERTEX_POINT('',#781);
#216=VERTEX_POINT('',#785);
#217=VERTEX_POINT('',#787);
#218=VERTEX_POINT('',#791);
#219=VERTEX_POINT('',#792);
#220=VERTEX_POINT('',#797);
#221=VERTEX_POINT('',#801);
#222=VERTEX_POINT('',#803);
#223=VERTEX_POINT('',#807);
#224=VERTEX_POINT('',#808);
#225=VERTEX_POINT('',#813);
#226=VERTEX_POINT('',#817);
#227=VERTEX_POINT('',#819);
#228=VERTEX_POINT('',#823);
#229=VERTEX_POINT('',#824);
#230=VERTEX_POINT('',#829);
#231=VERTEX_POINT('',#833);
#232=VERTEX_POINT('',#835);
#233=VERTEX_POINT('',#839);
#234=VERTEX_POINT('',#840);
#235=VERTEX_POINT('',#845);
#236=VERTEX_POINT('',#849);
#237=VERTEX_POINT('',#851);
#238=VERTEX_POINT('',#855);
#239=VERTEX_POINT('',#857);
#240=VERTEX_POINT('',#861);
#241=VERTEX_POINT('',#862);
#242=VERTEX_POINT('',#865);
#243=VERTEX_POINT('',#869);
#244=VERTEX_POINT('',#871);
#245=VERTEX_POINT('',#873);
#246=VERTEX_POINT('',#877);
#247=VERTEX_POINT('',#878);
#248=VERTEX_POINT('',#883);
#249=EDGE_CURVE('',#206,#206,#163,.T.);
#250=EDGE_CURVE('',#206,#207,#113,.T.);
#251=EDGE_CURVE('',#207,#207,#164,.T.);
#252=EDGE_CURVE('',#208,#209,#165,.T.);
#253=EDGE_CURVE('',#209,#208,#166,.T.);
#254=EDGE_CURVE('',#209,#206,#114,.T.);
#255=EDGE_CURVE('',#208,#210,#115,.T.);
#256=EDGE_CURVE('',#210,#210,#167,.T.);
#257=EDGE_CURVE('',#211,#211,#168,.T.);
#258=EDGE_CURVE('',#211,#212,#116,.T.);
#259=EDGE_CURVE('',#212,#212,#169,.T.);
#260=EDGE_CURVE('',#213,#214,#170,.T.);
#261=EDGE_CURVE('',#214,#213,#171,.T.);
#262=EDGE_CURVE('',#214,#211,#117,.T.);
#263=EDGE_CURVE('',#213,#215,#118,.T.);
#264=EDGE_CURVE('',#215,#215,#172,.T.);
#265=EDGE_CURVE('',#216,#216,#173,.T.);
#266=EDGE_CURVE('',#216,#217,#119,.T.);
#267=EDGE_CURVE('',#217,#217,#174,.T.);
#268=EDGE_CURVE('',#218,#219,#175,.T.);
#269=EDGE_CURVE('',#219,#218,#176,.T.);
#270=EDGE_CURVE('',#219,#216,#120,.T.);
#271=EDGE_CURVE('',#218,#220,#121,.T.);
#272=EDGE_CURVE('',#220,#220,#177,.T.);
#273=EDGE_CURVE('',#221,#221,#178,.T.);
#274=EDGE_CURVE('',#221,#222,#122,.T.);
#275=EDGE_CURVE('',#222,#222,#179,.T.);
#276=EDGE_CURVE('',#223,#224,#180,.T.);
#277=EDGE_CURVE('',#224,#223,#181,.T.);
#278=EDGE_CURVE('',#224,#221,#123,.T.);
#279=EDGE_CURVE('',#223,#225,#124,.T.);
#280=EDGE_CURVE('',#225,#225,#182,.T.);
#281=EDGE_CURVE('',#226,#226,#183,.T.);
#282=EDGE_CURVE('',#226,#227,#125,.T.);
#283=EDGE_CURVE('',#227,#227,#184,.T.);
#284=EDGE_CURVE('',#228,#229,#185,.T.);
#285=EDGE_CURVE('',#229,#228,#186,.T.);
#286=EDGE_CURVE('',#229,#226,#126,.T.);
#287=EDGE_CURVE('',#228,#230,#127,.T.);
#288=EDGE_CURVE('',#230,#230,#187,.T.);
#289=EDGE_CURVE('',#231,#231,#188,.T.);
#290=EDGE_CURVE('',#231,#232,#128,.T.);
#291=EDGE_CURVE('',#232,#232,#189,.T.);
#292=EDGE_CURVE('',#233,#234,#190,.T.);
#293=EDGE_CURVE('',#234,#233,#191,.T.);
#294=EDGE_CURVE('',#234,#231,#129,.T.);
#295=EDGE_CURVE('',#233,#235,#130,.T.);
#296=EDGE_CURVE('',#235,#235,#192,.T.);
#297=EDGE_CURVE('',#236,#236,#193,.T.);
#298=EDGE_CURVE('',#236,#237,#131,.T.);
#299=EDGE_CURVE('',#237,#237,#194,.T.);
#300=EDGE_CURVE('',#238,#238,#195,.T.);
#301=EDGE_CURVE('',#238,#239,#132,.T.);
#302=EDGE_CURVE('',#239,#239,#196,.T.);
#303=EDGE_CURVE('',#240,#241,#197,.T.);
#304=EDGE_CURVE('',#241,#240,#198,.T.);
#305=EDGE_CURVE('',#241,#242,#133,.T.);
#306=EDGE_CURVE('',#242,#242,#199,.T.);
#307=EDGE_CURVE('',#243,#243,#200,.T.);
#308=EDGE_CURVE('',#243,#244,#134,.T.);
#309=EDGE_CURVE('',#244,#245,#201,.T.);
#310=EDGE_CURVE('',#245,#244,#202,.T.);
#311=EDGE_CURVE('',#246,#247,#203,.T.);
#312=EDGE_CURVE('',#247,#245,#135,.T.);
#313=EDGE_CURVE('',#247,#246,#204,.T.);
#314=EDGE_CURVE('',#246,#248,#136,.T.);
#315=EDGE_CURVE('',#248,#248,#205,.T.);
#316=EDGE_CURVE('',#240,#238,#137,.T.);
#317=ORIENTED_EDGE('',*,*,#249,.F.);
#318=ORIENTED_EDGE('',*,*,#250,.T.);
#319=ORIENTED_EDGE('',*,*,#251,.T.);
#320=ORIENTED_EDGE('',*,*,#250,.F.);
#321=ORIENTED_EDGE('',*,*,#252,.F.);
#322=ORIENTED_EDGE('',*,*,#253,.F.);
#323=ORIENTED_EDGE('',*,*,#254,.T.);
#324=ORIENTED_EDGE('',*,*,#249,.T.);
#325=ORIENTED_EDGE('',*,*,#254,.F.);
#326=ORIENTED_EDGE('',*,*,#252,.T.);
#327=ORIENTED_EDGE('',*,*,#253,.T.);
#328=ORIENTED_EDGE('',*,*,#255,.T.);
#329=ORIENTED_EDGE('',*,*,#256,.F.);
#330=ORIENTED_EDGE('',*,*,#255,.F.);
#331=ORIENTED_EDGE('',*,*,#257,.F.);
#332=ORIENTED_EDGE('',*,*,#258,.T.);
#333=ORIENTED_EDGE('',*,*,#259,.T.);
#334=ORIENTED_EDGE('',*,*,#258,.F.);
#335=ORIENTED_EDGE('',*,*,#260,.F.);
#336=ORIENTED_EDGE('',*,*,#261,.F.);
#337=ORIENTED_EDGE('',*,*,#262,.T.);
#338=ORIENTED_EDGE('',*,*,#257,.T.);
#339=ORIENTED_EDGE('',*,*,#262,.F.);
#340=ORIENTED_EDGE('',*,*,#260,.T.);
#341=ORIENTED_EDGE('',*,*,#261,.T.);
#342=ORIENTED_EDGE('',*,*,#263,.T.);
#343=ORIENTED_EDGE('',*,*,#264,.F.);
#344=ORIENTED_EDGE('',*,*,#263,.F.);
#345=ORIENTED_EDGE('',*,*,#265,.F.);
#346=ORIENTED_EDGE('',*,*,#266,.T.);
#347=ORIENTED_EDGE('',*,*,#267,.T.);
#348=ORIENTED_EDGE('',*,*,#266,.F.);
#349=ORIENTED_EDGE('',*,*,#268,.F.);
#350=ORIENTED_EDGE('',*,*,#269,.F.);
#351=ORIENTED_EDGE('',*,*,#270,.T.);
#352=ORIENTED_EDGE('',*,*,#265,.T.);
#353=ORIENTED_EDGE('',*,*,#270,.F.);
#354=ORIENTED_EDGE('',*,*,#268,.T.);
#355=ORIENTED_EDGE('',*,*,#269,.T.);
#356=ORIENTED_EDGE('',*,*,#271,.T.);
#357=ORIENTED_EDGE('',*,*,#272,.F.);
#358=ORIENTED_EDGE('',*,*,#271,.F.);
#359=ORIENTED_EDGE('',*,*,#273,.F.);
#360=ORIENTED_EDGE('',*,*,#274,.T.);
#361=ORIENTED_EDGE('',*,*,#275,.T.);
#362=ORIENTED_EDGE('',*,*,#274,.F.);
#363=ORIENTED_EDGE('',*,*,#276,.F.);
#364=ORIENTED_EDGE('',*,*,#277,.F.);
#365=ORIENTED_EDGE('',*,*,#278,.T.);
#366=ORIENTED_EDGE('',*,*,#273,.T.);
#367=ORIENTED_EDGE('',*,*,#278,.F.);
#368=ORIENTED_EDGE('',*,*,#276,.T.);
#369=ORIENTED_EDGE('',*,*,#277,.T.);
#370=ORIENTED_EDGE('',*,*,#279,.T.);
#371=ORIENTED_EDGE('',*,*,#280,.F.);
#372=ORIENTED_EDGE('',*,*,#279,.F.);
#373=ORIENTED_EDGE('',*,*,#281,.F.);
#374=ORIENTED_EDGE('',*,*,#282,.T.);
#375=ORIENTED_EDGE('',*,*,#283,.T.);
#376=ORIENTED_EDGE('',*,*,#282,.F.);
#377=ORIENTED_EDGE('',*,*,#284,.F.);
#378=ORIENTED_EDGE('',*,*,#285,.F.);
#379=ORIENTED_EDGE('',*,*,#286,.T.);
#380=ORIENTED_EDGE('',*,*,#281,.T.);
#381=ORIENTED_EDGE('',*,*,#286,.F.);
#382=ORIENTED_EDGE('',*,*,#284,.T.);
#383=ORIENTED_EDGE('',*,*,#285,.T.);
#384=ORIENTED_EDGE('',*,*,#287,.T.);
#385=ORIENTED_EDGE('',*,*,#288,.F.);
#386=ORIENTED_EDGE('',*,*,#287,.F.);
#387=ORIENTED_EDGE('',*,*,#289,.F.);
#388=ORIENTED_EDGE('',*,*,#290,.T.);
#389=ORIENTED_EDGE('',*,*,#291,.T.);
#390=ORIENTED_EDGE('',*,*,#290,.F.);
#391=ORIENTED_EDGE('',*,*,#292,.F.);
#392=ORIENTED_EDGE('',*,*,#293,.F.);
#393=ORIENTED_EDGE('',*,*,#294,.T.);
#394=ORIENTED_EDGE('',*,*,#289,.T.);
#395=ORIENTED_EDGE('',*,*,#294,.F.);
#396=ORIENTED_EDGE('',*,*,#292,.T.);
#397=ORIENTED_EDGE('',*,*,#293,.T.);
#398=ORIENTED_EDGE('',*,*,#295,.T.);
#399=ORIENTED_EDGE('',*,*,#296,.F.);
#400=ORIENTED_EDGE('',*,*,#295,.F.);
#401=ORIENTED_EDGE('',*,*,#297,.T.);
#402=ORIENTED_EDGE('',*,*,#298,.T.);
#403=ORIENTED_EDGE('',*,*,#299,.T.);
#404=ORIENTED_EDGE('',*,*,#298,.F.);
#405=ORIENTED_EDGE('',*,*,#300,.F.);
#406=ORIENTED_EDGE('',*,*,#301,.T.);
#407=ORIENTED_EDGE('',*,*,#302,.F.);
#408=ORIENTED_EDGE('',*,*,#301,.F.);
#409=ORIENTED_EDGE('',*,*,#303,.F.);
#410=ORIENTED_EDGE('',*,*,#304,.F.);
#411=ORIENTED_EDGE('',*,*,#305,.T.);
#412=ORIENTED_EDGE('',*,*,#306,.F.);
#413=ORIENTED_EDGE('',*,*,#305,.F.);
#414=ORIENTED_EDGE('',*,*,#307,.F.);
#415=ORIENTED_EDGE('',*,*,#308,.T.);
#416=ORIENTED_EDGE('',*,*,#309,.T.);
#417=ORIENTED_EDGE('',*,*,#310,.T.);
#418=ORIENTED_EDGE('',*,*,#308,.F.);
#419=ORIENTED_EDGE('',*,*,#311,.T.);
#420=ORIENTED_EDGE('',*,*,#312,.T.);
#421=ORIENTED_EDGE('',*,*,#309,.F.);
#422=ORIENTED_EDGE('',*,*,#310,.F.);
#423=ORIENTED_EDGE('',*,*,#312,.F.);
#424=ORIENTED_EDGE('',*,*,#313,.T.);
#425=ORIENTED_EDGE('',*,*,#311,.F.);
#426=ORIENTED_EDGE('',*,*,#314,.T.);
#427=ORIENTED_EDGE('',*,*,#315,.T.);
#428=ORIENTED_EDGE('',*,*,#314,.F.);
#429=ORIENTED_EDGE('',*,*,#313,.F.);
#430=ORIENTED_EDGE('',*,*,#303,.T.);
#431=ORIENTED_EDGE('',*,*,#304,.T.);
#432=ORIENTED_EDGE('',*,*,#316,.T.);
#433=ORIENTED_EDGE('',*,*,#300,.T.);
#434=ORIENTED_EDGE('',*,*,#316,.F.);
#435=ORIENTED_EDGE('',*,*,#302,.T.);
#436=ORIENTED_EDGE('',*,*,#256,.T.);
#437=ORIENTED_EDGE('',*,*,#264,.T.);
#438=ORIENTED_EDGE('',*,*,#272,.T.);
#439=ORIENTED_EDGE('',*,*,#280,.T.);
#440=ORIENTED_EDGE('',*,*,#288,.T.);
#441=ORIENTED_EDGE('',*,*,#296,.T.);
#442=ORIENTED_EDGE('',*,*,#299,.F.);
#443=ORIENTED_EDGE('',*,*,#306,.T.);
#444=ORIENTED_EDGE('',*,*,#315,.F.);
#445=ORIENTED_EDGE('',*,*,#251,.F.);
#446=ORIENTED_EDGE('',*,*,#259,.F.);
#447=ORIENTED_EDGE('',*,*,#267,.F.);
#448=ORIENTED_EDGE('',*,*,#275,.F.);
#449=ORIENTED_EDGE('',*,*,#283,.F.);
#450=ORIENTED_EDGE('',*,*,#291,.F.);
#451=ORIENTED_EDGE('',*,*,#307,.T.);
#452=ORIENTED_EDGE('',*,*,#297,.F.);
#453=CONICAL_SURFACE('',#511,2.01,0.785398163397446);
#454=CONICAL_SURFACE('',#517,1.65,0.785398163397446);
#455=CONICAL_SURFACE('',#519,2.01,0.785398163397446);
#456=CONICAL_SURFACE('',#525,1.65,0.785398163397446);
#457=CONICAL_SURFACE('',#527,2.01,0.785398163397447);
#458=CONICAL_SURFACE('',#533,1.65,0.785398163397446);
#459=CONICAL_SURFACE('',#535,2.01,0.785398163397446);
#460=CONICAL_SURFACE('',#541,1.65,0.785398163397446);
#461=CONICAL_SURFACE('',#543,2.01,0.785398163397446);
#462=CONICAL_SURFACE('',#549,1.65,0.785398163397446);
#463=CONICAL_SURFACE('',#551,2.01,0.785398163397447);
#464=CONICAL_SURFACE('',#557,1.65,0.785398163397446);
#465=CONICAL_SURFACE('',#562,17.,0.785398163397457);
#466=CONICAL_SURFACE('',#565,16.6,0.785398163397457);
#467=CONICAL_SURFACE('',#569,8.93161785944027,0.349065850398873);
#468=CONICAL_SURFACE('',#573,9.15,1.22173047639602);
#469=ADVANCED_FACE('',(#42),#453,.F.);
#470=ADVANCED_FACE('',(#43),#33,.F.);
#471=ADVANCED_FACE('',(#44),#454,.F.);
#472=ADVANCED_FACE('',(#45),#455,.F.);
#473=ADVANCED_FACE('',(#46),#34,.F.);
#474=ADVANCED_FACE('',(#47),#456,.F.);
#475=ADVANCED_FACE('',(#48),#457,.F.);
#476=ADVANCED_FACE('',(#49),#35,.F.);
#477=ADVANCED_FACE('',(#50),#458,.F.);
#478=ADVANCED_FACE('',(#51),#459,.F.);
#479=ADVANCED_FACE('',(#52),#36,.F.);
#480=ADVANCED_FACE('',(#53),#460,.F.);
#481=ADVANCED_FACE('',(#54),#461,.F.);
#482=ADVANCED_FACE('',(#55),#37,.F.);
#483=ADVANCED_FACE('',(#56),#462,.F.);
#484=ADVANCED_FACE('',(#57),#463,.F.);
#485=ADVANCED_FACE('',(#58),#38,.F.);
#486=ADVANCED_FACE('',(#59),#464,.F.);
#487=ADVANCED_FACE('',(#60),#39,.F.);
#488=ADVANCED_FACE('',(#61),#465,.T.);
#489=ADVANCED_FACE('',(#62),#466,.T.);
#490=ADVANCED_FACE('',(#63),#467,.F.);
#491=ADVANCED_FACE('',(#64),#468,.T.);
#492=ADVANCED_FACE('',(#65),#40,.F.);
#493=ADVANCED_FACE('',(#66),#41,.T.);
#494=ADVANCED_FACE('',(#67,#15,#16,#17,#18,#19,#20,#21),#30,.T.);
#495=ADVANCED_FACE('',(#68,#22,#23,#24,#25,#26,#27,#28),#31,.T.);
#496=ADVANCED_FACE('',(#69,#29),#32,.T.);
#497=CLOSED_SHELL('',(#469,#470,#471,#472,#473,#474,#475,#476,#477,#478,
#479,#480,#481,#482,#483,#484,#485,#486,#487,#488,#489,#490,#491,#492,#493,
#494,#495,#496));
#498=DERIVED_UNIT_ELEMENT(#500,1.);
#499=DERIVED_UNIT_ELEMENT(#896,-3.);
#500=(
MASS_UNIT()
NAMED_UNIT(*)
SI_UNIT(.KILO.,.GRAM.)
);
#501=DERIVED_UNIT((#498,#499));
#502=MEASURE_REPRESENTATION_ITEM('density measure',
POSITIVE_RATIO_MEASURE(7850.),#501);
#503=PROPERTY_DEFINITION_REPRESENTATION(#508,#505);
#504=PROPERTY_DEFINITION_REPRESENTATION(#509,#506);
#505=REPRESENTATION('material name',(#507),#893);
#506=REPRESENTATION('density',(#502),#893);
#507=DESCRIPTIVE_REPRESENTATION_ITEM('Steel','Steel');
#508=PROPERTY_DEFINITION('material property','material name',#903);
#509=PROPERTY_DEFINITION('material property','density of part',#903);
#510=AXIS2_PLACEMENT_3D('',#751,#582,#583);
#511=AXIS2_PLACEMENT_3D('',#752,#584,#585);
#512=AXIS2_PLACEMENT_3D('',#754,#586,#587);
#513=AXIS2_PLACEMENT_3D('',#757,#589,#590);
#514=AXIS2_PLACEMENT_3D('',#758,#591,#592);
#515=AXIS2_PLACEMENT_3D('',#761,#593,#594);
#516=AXIS2_PLACEMENT_3D('',#762,#595,#596);
#517=AXIS2_PLACEMENT_3D('',#764,#598,#599);
#518=AXIS2_PLACEMENT_3D('',#767,#601,#602);
#519=AXIS2_PLACEMENT_3D('',#768,#603,#604);
#520=AXIS2_PLACEMENT_3D('',#770,#605,#606);
#521=AXIS2_PLACEMENT_3D('',#773,#608,#609);
#522=AXIS2_PLACEMENT_3D('',#774,#610,#611);
#523=AXIS2_PLACEMENT_3D('',#777,#612,#613);
#524=AXIS2_PLACEMENT_3D('',#778,#614,#615);
#525=AXIS2_PLACEMENT_3D('',#780,#617,#618);
#526=AXIS2_PLACEMENT_3D('',#783,#620,#621);
#527=AXIS2_PLACEMENT_3D('',#784,#622,#623);
#528=AXIS2_PLACEMENT_3D('',#786,#624,#625);
#529=AXIS2_PLACEMENT_3D('',#789,#627,#628);
#530=AXIS2_PLACEMENT_3D('',#790,#629,#630);
#531=AXIS2_PLACEMENT_3D('',#793,#631,#632);
#532=AXIS2_PLACEMENT_3D('',#794,#633,#634);
#533=AXIS2_PLACEMENT_3D('',#796,#636,#637);
#534=AXIS2_PLACEMENT_3D('',#799,#639,#640);
#535=AXIS2_PLACEMENT_3D('',#800,#641,#642);
#536=AXIS2_PLACEMENT_3D('',#802,#643,#644);
#537=AXIS2_PLACEMENT_3D('',#805,#646,#647);
#538=AXIS2_PLACEMENT_3D('',#806,#648,#649);
#539=AXIS2_PLACEMENT_3D('',#809,#650,#651);
#540=AXIS2_PLACEMENT_3D('',#810,#652,#653);
#541=AXIS2_PLACEMENT_3D('',#812,#655,#656);
#542=AXIS2_PLACEMENT_3D('',#815,#658,#659);
#543=AXIS2_PLACEMENT_3D('',#816,#660,#661);
#544=AXIS2_PLACEMENT_3D('',#818,#662,#663);
#545=AXIS2_PLACEMENT_3D('',#821,#665,#666);
#546=AXIS2_PLACEMENT_3D('',#822,#667,#668);
#547=AXIS2_PLACEMENT_3D('',#825,#669,#670);
#548=AXIS2_PLACEMENT_3D('',#826,#671,#672);
#549=AXIS2_PLACEMENT_3D('',#828,#674,#675);
#550=AXIS2_PLACEMENT_3D('',#831,#677,#678);
#551=AXIS2_PLACEMENT_3D('',#832,#679,#680);
#552=AXIS2_PLACEMENT_3D('',#834,#681,#682);
#553=AXIS2_PLACEMENT_3D('',#837,#684,#685);
#554=AXIS2_PLACEMENT_3D('',#838,#686,#687);
#555=AXIS2_PLACEMENT_3D('',#841,#688,#689);
#556=AXIS2_PLACEMENT_3D('',#842,#690,#691);
#557=AXIS2_PLACEMENT_3D('',#844,#693,#694);
#558=AXIS2_PLACEMENT_3D('',#847,#696,#697);
#559=AXIS2_PLACEMENT_3D('',#848,#698,#699);
#560=AXIS2_PLACEMENT_3D('',#850,#700,#701);
#561=AXIS2_PLACEMENT_3D('',#853,#703,#704);
#562=AXIS2_PLACEMENT_3D('',#854,#705,#706);
#563=AXIS2_PLACEMENT_3D('',#856,#707,#708);
#564=AXIS2_PLACEMENT_3D('',#859,#710,#711);
#565=AXIS2_PLACEMENT_3D('',#860,#712,#713);
#566=AXIS2_PLACEMENT_3D('',#863,#714,#715);
#567=AXIS2_PLACEMENT_3D('',#864,#716,#717);
#568=AXIS2_PLACEMENT_3D('',#867,#719,#720);
#569=AXIS2_PLACEMENT_3D('',#868,#721,#722);
#570=AXIS2_PLACEMENT_3D('',#870,#723,#724);
#571=AXIS2_PLACEMENT_3D('',#874,#726,#727);
#572=AXIS2_PLACEMENT_3D('',#875,#728,#729);
#573=AXIS2_PLACEMENT_3D('',#876,#730,#731);
#574=AXIS2_PLACEMENT_3D('',#879,#732,#733);
#575=AXIS2_PLACEMENT_3D('',#881,#735,#736);
#576=AXIS2_PLACEMENT_3D('',#882,#737,#738);
#577=AXIS2_PLACEMENT_3D('',#885,#740,#741);
#578=AXIS2_PLACEMENT_3D('',#886,#742,#743);
#579=AXIS2_PLACEMENT_3D('',#888,#745,#746);
#580=AXIS2_PLACEMENT_3D('',#889,#747,#748);
#581=AXIS2_PLACEMENT_3D('',#890,#749,#750);
#582=DIRECTION('axis',(0.,0.,1.));
#583=DIRECTION('refdir',(1.,0.,0.));
#584=DIRECTION('center_axis',(0.,1.,0.));
#585=DIRECTION('ref_axis',(0.,0.,1.));
#586=DIRECTION('center_axis',(0.,1.,0.));
#587=DIRECTION('ref_axis',(0.,0.,1.));
#588=DIRECTION('',(-8.65956056235491E-17,0.707106781186549,-0.707106781186546));
#589=DIRECTION('center_axis',(0.,1.,0.));
#590=DIRECTION('ref_axis',(0.,0.,1.));
#591=DIRECTION('center_axis',(0.,1.,0.));
#592=DIRECTION('ref_axis',(0.,0.,1.));
#593=DIRECTION('center_axis',(0.,1.,0.));
#594=DIRECTION('ref_axis',(0.,0.,1.));
#595=DIRECTION('center_axis',(0.,1.,0.));
#596=DIRECTION('ref_axis',(0.,0.,1.));
#597=DIRECTION('',(0.,1.,0.));
#598=DIRECTION('center_axis',(0.,-1.,0.));
#599=DIRECTION('ref_axis',(0.,0.,-1.));
#600=DIRECTION('',(-8.65956056235491E-17,-0.707106781186549,0.707106781186546));
#601=DIRECTION('center_axis',(0.,1.,0.));
#602=DIRECTION('ref_axis',(0.,0.,1.));
#603=DIRECTION('center_axis',(0.,1.,0.));
#604=DIRECTION('ref_axis',(0.,0.,1.));
#605=DIRECTION('center_axis',(0.,1.,0.));
#606=DIRECTION('ref_axis',(0.,0.,1.));
#607=DIRECTION('',(-8.65956056235491E-17,0.707106781186549,-0.707106781186546));
#608=DIRECTION('center_axis',(0.,1.,0.));
#609=DIRECTION('ref_axis',(0.,0.,1.));
#610=DIRECTION('center_axis',(0.,1.,0.));
#611=DIRECTION('ref_axis',(0.,0.,1.));
#612=DIRECTION('center_axis',(0.,1.,0.));
#613=DIRECTION('ref_axis',(0.,0.,1.));
#614=DIRECTION('center_axis',(0.,1.,0.));
#615=DIRECTION('ref_axis',(0.,0.,1.));
#616=DIRECTION('',(0.,1.,0.));
#617=DIRECTION('center_axis',(0.,-1.,0.));
#618=DIRECTION('ref_axis',(0.,0.,-1.));
#619=DIRECTION('',(-8.65956056235491E-17,-0.707106781186549,0.707106781186546));
#620=DIRECTION('center_axis',(0.,1.,0.));
#621=DIRECTION('ref_axis',(0.,0.,1.));
#622=DIRECTION('center_axis',(0.,1.,0.));
#623=DIRECTION('ref_axis',(0.,0.,1.));
#624=DIRECTION('center_axis',(0.,1.,0.));
#625=DIRECTION('ref_axis',(0.,0.,1.));
#626=DIRECTION('',(-8.65956056235492E-17,0.707106781186549,-0.707106781186546));
#627=DIRECTION('center_axis',(0.,1.,0.));
#628=DIRECTION('ref_axis',(0.,0.,1.));
#629=DIRECTION('center_axis',(0.,1.,0.));
#630=DIRECTION('ref_axis',(0.,0.,1.));
#631=DIRECTION('center_axis',(0.,1.,0.));
#632=DIRECTION('ref_axis',(0.,0.,1.));
#633=DIRECTION('center_axis',(0.,1.,0.));
#634=DIRECTION('ref_axis',(0.,0.,1.));
#635=DIRECTION('',(0.,1.,0.));
#636=DIRECTION('center_axis',(0.,-1.,0.));
#637=DIRECTION('ref_axis',(0.,0.,-1.));
#638=DIRECTION('',(-8.65956056235491E-17,-0.707106781186549,0.707106781186546));
#639=DIRECTION('center_axis',(0.,1.,0.));
#640=DIRECTION('ref_axis',(0.,0.,1.));
#641=DIRECTION('center_axis',(0.,1.,0.));
#642=DIRECTION('ref_axis',(0.,0.,1.));
#643=DIRECTION('center_axis',(0.,1.,0.));
#644=DIRECTION('ref_axis',(0.,0.,1.));
#645=DIRECTION('',(-8.65956056235491E-17,0.707106781186549,-0.707106781186546));
#646=DIRECTION('center_axis',(0.,1.,0.));
#647=DIRECTION('ref_axis',(0.,0.,1.));
#648=DIRECTION('center_axis',(0.,1.,0.));
#649=DIRECTION('ref_axis',(0.,0.,1.));
#650=DIRECTION('center_axis',(0.,1.,0.));
#651=DIRECTION('ref_axis',(0.,0.,1.));
#652=DIRECTION('center_axis',(0.,1.,0.));
#653=DIRECTION('ref_axis',(0.,0.,1.));
#654=DIRECTION('',(0.,1.,0.));
#655=DIRECTION('center_axis',(0.,-1.,0.));
#656=DIRECTION('ref_axis',(0.,0.,-1.));
#657=DIRECTION('',(-8.65956056235491E-17,-0.707106781186549,0.707106781186546));
#658=DIRECTION('center_axis',(0.,1.,0.));
#659=DIRECTION('ref_axis',(0.,0.,1.));
#660=DIRECTION('center_axis',(0.,1.,0.));
#661=DIRECTION('ref_axis',(0.,0.,1.));
#662=DIRECTION('center_axis',(0.,1.,0.));
#663=DIRECTION('ref_axis',(0.,0.,1.));
#664=DIRECTION('',(-8.65956056235491E-17,0.707106781186549,-0.707106781186546));
#665=DIRECTION('center_axis',(0.,1.,0.));
#666=DIRECTION('ref_axis',(0.,0.,1.));
#667=DIRECTION('center_axis',(0.,1.,0.));
#668=DIRECTION('ref_axis',(0.,0.,1.));
#669=DIRECTION('center_axis',(0.,1.,0.));
#670=DIRECTION('ref_axis',(0.,0.,1.));
#671=DIRECTION('center_axis',(0.,1.,0.));
#672=DIRECTION('ref_axis',(0.,0.,1.));
#673=DIRECTION('',(0.,1.,0.));
#674=DIRECTION('center_axis',(0.,-1.,0.));
#675=DIRECTION('ref_axis',(0.,0.,-1.));
#676=DIRECTION('',(-8.65956056235491E-17,-0.707106781186549,0.707106781186546));
#677=DIRECTION('center_axis',(0.,1.,0.));
#678=DIRECTION('ref_axis',(0.,0.,1.));
#679=DIRECTION('center_axis',(0.,1.,0.));
#680=DIRECTION('ref_axis',(0.,0.,1.));
#681=DIRECTION('center_axis',(0.,1.,0.));
#682=DIRECTION('ref_axis',(0.,0.,1.));
#683=DIRECTION('',(-8.65956056235492E-17,0.707106781186549,-0.707106781186546));
#684=DIRECTION('center_axis',(0.,1.,0.));
#685=DIRECTION('ref_axis',(0.,0.,1.));
#686=DIRECTION('center_axis',(0.,1.,0.));
#687=DIRECTION('ref_axis',(0.,0.,1.));
#688=DIRECTION('center_axis',(0.,1.,0.));
#689=DIRECTION('ref_axis',(0.,0.,1.));
#690=DIRECTION('center_axis',(0.,1.,0.));
#691=DIRECTION('ref_axis',(0.,0.,1.));
#692=DIRECTION('',(0.,1.,0.));
#693=DIRECTION('center_axis',(0.,-1.,0.));
#694=DIRECTION('ref_axis',(0.,0.,-1.));
#695=DIRECTION('',(-8.65956056235491E-17,-0.707106781186549,0.707106781186546));
#696=DIRECTION('center_axis',(0.,1.,0.));
#697=DIRECTION('ref_axis',(0.,0.,1.));
#698=DIRECTION('center_axis',(0.,-1.,0.));
#699=DIRECTION('ref_axis',(0.,0.,-1.));
#700=DIRECTION('center_axis',(0.,1.,0.));
#701=DIRECTION('ref_axis',(0.,0.,1.));
#702=DIRECTION('',(0.,-1.,0.));
#703=DIRECTION('center_axis',(0.,-1.,0.));
#704=DIRECTION('ref_axis',(0.,0.,-1.));
#705=DIRECTION('center_axis',(0.,1.,0.));
#706=DIRECTION('ref_axis',(0.,0.,1.));
#707=DIRECTION('center_axis',(0.,1.,0.));
#708=DIRECTION('ref_axis',(0.,0.,-1.));
#709=DIRECTION('',(8.65956056235501E-17,-0.707106781186541,0.707106781186554));
#710=DIRECTION('center_axis',(0.,-1.,0.));
#711=DIRECTION('ref_axis',(0.,0.,-1.));
#712=DIRECTION('center_axis',(0.,-1.,0.));
#713=DIRECTION('ref_axis',(0.,0.,-1.));
#714=DIRECTION('center_axis',(0.,-1.,0.));
#715=DIRECTION('ref_axis',(0.,0.,1.));
#716=DIRECTION('center_axis',(0.,-1.,0.));
#717=DIRECTION('ref_axis',(0.,0.,1.));
#718=DIRECTION('',(8.65956056235501E-17,0.707106781186541,-0.707106781186554));
#719=DIRECTION('center_axis',(0.,1.,0.));
#720=DIRECTION('ref_axis',(0.,0.,1.));
#721=DIRECTION('center_axis',(0.,1.,0.));
#722=DIRECTION('ref_axis',(0.,0.,1.));
#723=DIRECTION('center_axis',(0.,1.,0.));
#724=DIRECTION('ref_axis',(0.,0.,1.));
#725=DIRECTION('',(-4.18853873767707E-17,0.939692620785906,-0.342020143325675));
#726=DIRECTION('center_axis',(0.,1.,0.));
#727=DIRECTION('ref_axis',(0.,0.,1.));
#728=DIRECTION('center_axis',(0.,1.,0.));
#729=DIRECTION('ref_axis',(0.,0.,1.));
#730=DIRECTION('center_axis',(0.,-1.,0.));
#731=DIRECTION('ref_axis',(0.,0.,-1.));
#732=DIRECTION('center_axis',(0.,1.,0.));
#733=DIRECTION('ref_axis',(0.,0.,1.));
#734=DIRECTION('',(1.15079156022785E-16,0.342020143325675,-0.939692620785906));
#735=DIRECTION('center_axis',(0.,1.,0.));
#736=DIRECTION('ref_axis',(0.,0.,1.));
#737=DIRECTION('center_axis',(0.,1.,0.));
#738=DIRECTION('ref_axis',(0.,0.,1.));
#739=DIRECTION('',(0.,1.,0.));
#740=DIRECTION('center_axis',(0.,1.,0.));
#741=DIRECTION('ref_axis',(0.,0.,1.));
#742=DIRECTION('center_axis',(0.,1.,0.));
#743=DIRECTION('ref_axis',(0.,0.,1.));
#744=DIRECTION('',(0.,-1.,0.));
#745=DIRECTION('center_axis',(0.,-1.,0.));
#746=DIRECTION('ref_axis',(0.,0.,-1.));
#747=DIRECTION('center_axis',(0.,1.,0.));
#748=DIRECTION('ref_axis',(0.,0.,1.));
#749=DIRECTION('center_axis',(0.,1.,0.));
#750=DIRECTION('ref_axis',(0.,0.,1.));
#751=CARTESIAN_POINT('',(0.,0.,0.));
#752=CARTESIAN_POINT('Origin',(-11.6913429510898,7.6,6.75000000000014));
#753=CARTESIAN_POINT('',(-11.6913429510898,7.23999999999999,5.10000000000014));
#754=CARTESIAN_POINT('Origin',(-11.6913429510898,7.24,6.75000000000014));
#755=CARTESIAN_POINT('',(-11.6913429510898,7.6,4.74000000000014));
#756=CARTESIAN_POINT('',(-11.6913429510898,7.6,4.74000000000014));
#757=CARTESIAN_POINT('Origin',(-11.6913429510898,7.6,6.75000000000014));
#758=CARTESIAN_POINT('Origin',(-11.6913429510898,7.6,6.75000000000014));
#759=CARTESIAN_POINT('',(-11.6913429510898,0.360000000000002,8.40000000000013));
#760=CARTESIAN_POINT('',(-11.6913429510898,0.360000000000001,5.10000000000014));
#761=CARTESIAN_POINT('Origin',(-11.6913429510898,0.360000000000002,6.75000000000014));
#762=CARTESIAN_POINT('Origin',(-11.6913429510898,0.360000000000002,6.75000000000014));
#763=CARTESIAN_POINT('',(-11.6913429510898,7.6,5.10000000000014));
#764=CARTESIAN_POINT('Origin',(-11.6913429510898,0.360000000000002,6.75000000000014));
#765=CARTESIAN_POINT('',(-11.6913429510898,-1.11022302462516E-15,8.76000000000013));
#766=CARTESIAN_POINT('',(-11.6913429510898,0.360000000000002,8.40000000000013));
#767=CARTESIAN_POINT('Origin',(-11.6913429510898,-8.67361737988404E-16,
6.75000000000014));
#768=CARTESIAN_POINT('Origin',(-11.69134295109,7.6,-6.74999999999989));
#769=CARTESIAN_POINT('',(-11.69134295109,7.23999999999999,-8.39999999999989));
#770=CARTESIAN_POINT('Origin',(-11.69134295109,7.24,-6.74999999999989));
#771=CARTESIAN_POINT('',(-11.69134295109,7.6,-8.75999999999989));
#772=CARTESIAN_POINT('',(-11.69134295109,7.6,-8.75999999999989));
#773=CARTESIAN_POINT('Origin',(-11.69134295109,7.6,-6.74999999999989));
#774=CARTESIAN_POINT('Origin',(-11.69134295109,7.6,-6.74999999999989));
#775=CARTESIAN_POINT('',(-11.69134295109,0.360000000000002,-5.09999999999989));
#776=CARTESIAN_POINT('',(-11.69134295109,0.360000000000001,-8.39999999999989));
#777=CARTESIAN_POINT('Origin',(-11.69134295109,0.360000000000002,-6.74999999999989));
#778=CARTESIAN_POINT('Origin',(-11.69134295109,0.360000000000002,-6.74999999999989));
#779=CARTESIAN_POINT('',(-11.69134295109,7.6,-8.39999999999989));
#780=CARTESIAN_POINT('Origin',(-11.69134295109,0.360000000000002,-6.74999999999989));
#781=CARTESIAN_POINT('',(-11.69134295109,-1.73472347597681E-15,-4.73999999999989));
#782=CARTESIAN_POINT('',(-11.69134295109,0.360000000000002,-5.09999999999989));
#783=CARTESIAN_POINT('Origin',(-11.69134295109,-8.67361737988404E-16,-6.74999999999989));
#784=CARTESIAN_POINT('Origin',(0.,7.6,-13.5));
#785=CARTESIAN_POINT('',(-2.02066721859313E-16,7.23999999999999,-15.15));
#786=CARTESIAN_POINT('Origin',(0.,7.24,-13.5));
#787=CARTESIAN_POINT('',(-2.46154006628618E-16,7.6,-15.51));
#788=CARTESIAN_POINT('',(-2.46154006628618E-16,7.6,-15.51));
#789=CARTESIAN_POINT('Origin',(0.,7.6,-13.5));
#790=CARTESIAN_POINT('Origin',(0.,7.6,-13.5));
#791=CARTESIAN_POINT('',(2.24110364243965E-16,0.360000000000002,-11.85));
#792=CARTESIAN_POINT('',(-2.02066721859313E-16,0.360000000000001,-15.15));
#793=CARTESIAN_POINT('Origin',(0.,0.360000000000002,-13.5));
#794=CARTESIAN_POINT('Origin',(0.,0.360000000000002,-13.5));
#795=CARTESIAN_POINT('',(-2.02066721859313E-16,7.6,-15.15));
#796=CARTESIAN_POINT('Origin',(0.,0.360000000000002,-13.5));
#797=CARTESIAN_POINT('',(-2.46154006628618E-16,-1.80411241501588E-15,-11.49));
#798=CARTESIAN_POINT('',(-2.02066721859313E-16,0.360000000000002,-11.85));
#799=CARTESIAN_POINT('Origin',(0.,-8.67361737988404E-16,-13.5));
#800=CARTESIAN_POINT('Origin',(11.6913429510899,7.6,-6.75000000000006));
#801=CARTESIAN_POINT('',(11.6913429510899,7.23999999999999,-8.40000000000005));
#802=CARTESIAN_POINT('Origin',(11.6913429510899,7.24,-6.75000000000006));
#803=CARTESIAN_POINT('',(11.6913429510899,7.6,-8.76000000000005));
#804=CARTESIAN_POINT('',(11.6913429510899,7.6,-8.76000000000005));
#805=CARTESIAN_POINT('Origin',(11.6913429510899,7.6,-6.75000000000006));
#806=CARTESIAN_POINT('Origin',(11.6913429510899,7.6,-6.75000000000006));
#807=CARTESIAN_POINT('',(11.6913429510899,0.360000000000002,-5.10000000000006));
#808=CARTESIAN_POINT('',(11.6913429510899,0.360000000000001,-8.40000000000005));
#809=CARTESIAN_POINT('Origin',(11.6913429510899,0.360000000000002,-6.75000000000006));
#810=CARTESIAN_POINT('Origin',(11.6913429510899,0.360000000000002,-6.75000000000006));
#811=CARTESIAN_POINT('',(11.6913429510899,7.6,-8.40000000000005));
#812=CARTESIAN_POINT('Origin',(11.6913429510899,0.360000000000002,-6.75000000000006));
#813=CARTESIAN_POINT('',(11.6913429510899,-5.55111512312578E-16,-4.74000000000006));
#814=CARTESIAN_POINT('',(11.6913429510899,0.360000000000002,-5.10000000000006));
#815=CARTESIAN_POINT('Origin',(11.6913429510899,-8.67361737988404E-16,-6.75000000000006));
#816=CARTESIAN_POINT('Origin',(11.6913429510899,7.6,6.74999999999997));
#817=CARTESIAN_POINT('',(11.6913429510899,7.23999999999999,5.09999999999998));
#818=CARTESIAN_POINT('Origin',(11.6913429510899,7.24,6.74999999999997));
#819=CARTESIAN_POINT('',(11.6913429510899,7.6,4.73999999999997));
#820=CARTESIAN_POINT('',(11.6913429510899,7.6,4.73999999999997));
#821=CARTESIAN_POINT('Origin',(11.6913429510899,7.6,6.74999999999997));
#822=CARTESIAN_POINT('Origin',(11.6913429510899,7.6,6.74999999999997));
#823=CARTESIAN_POINT('',(11.6913429510899,0.360000000000002,8.39999999999997));
#824=CARTESIAN_POINT('',(11.6913429510899,0.360000000000001,5.09999999999998));
#825=CARTESIAN_POINT('Origin',(11.6913429510899,0.360000000000002,6.74999999999997));
#826=CARTESIAN_POINT('Origin',(11.6913429510899,0.360000000000002,6.74999999999997));
#827=CARTESIAN_POINT('',(11.6913429510899,7.6,5.09999999999998));
#828=CARTESIAN_POINT('Origin',(11.6913429510899,0.360000000000002,6.74999999999997));
#829=CARTESIAN_POINT('',(11.6913429510899,-1.73472347597681E-15,8.75999999999997));
#830=CARTESIAN_POINT('',(11.6913429510899,0.360000000000002,8.39999999999997));
#831=CARTESIAN_POINT('Origin',(11.6913429510899,-8.67361737988404E-16,6.74999999999997));
#832=CARTESIAN_POINT('Origin',(0.,7.6,13.5));
#833=CARTESIAN_POINT('',(-2.02066721859313E-16,7.23999999999999,11.85));
#834=CARTESIAN_POINT('Origin',(0.,7.24,13.5));
#835=CARTESIAN_POINT('',(-2.46154006628618E-16,7.6,11.49));
#836=CARTESIAN_POINT('',(-2.46154006628618E-16,7.6,11.49));
#837=CARTESIAN_POINT('Origin',(0.,7.6,13.5));
#838=CARTESIAN_POINT('Origin',(0.,7.6,13.5));
#839=CARTESIAN_POINT('',(2.24110364243965E-16,0.360000000000002,15.15));
#840=CARTESIAN_POINT('',(-2.02066721859313E-16,0.360000000000001,11.85));
#841=CARTESIAN_POINT('Origin',(0.,0.360000000000002,13.5));
#842=CARTESIAN_POINT('Origin',(0.,0.360000000000002,13.5));
#843=CARTESIAN_POINT('',(-2.02066721859313E-16,7.6,11.85));
#844=CARTESIAN_POINT('Origin',(0.,0.360000000000002,13.5));
#845=CARTESIAN_POINT('',(-2.46154006628618E-16,-1.80411241501588E-15,15.51));
#846=CARTESIAN_POINT('',(-2.02066721859313E-16,0.360000000000002,15.15));
#847=CARTESIAN_POINT('Origin',(0.,-8.67361737988404E-16,13.5));
#848=CARTESIAN_POINT('Origin',(0.,7.6,0.));
#849=CARTESIAN_POINT('',(-3.88825358729285E-16,6.4,3.175));
#850=CARTESIAN_POINT('Origin',(0.,6.4,0.));
#851=CARTESIAN_POINT('',(-3.88825358729285E-16,0.,3.175));
#852=CARTESIAN_POINT('',(-3.88825358729285E-16,7.6,3.175));
#853=CARTESIAN_POINT('Origin',(0.,0.,0.));
#854=CARTESIAN_POINT('Origin',(0.,0.400000000000005,0.));
#855=CARTESIAN_POINT('',(-2.0818995585505E-15,0.400000000000005,-17.));
#856=CARTESIAN_POINT('Origin',(0.,0.400000000000005,0.));
#857=CARTESIAN_POINT('',(-2.0329136865846E-15,-6.93889390390723E-17,-16.6));
#858=CARTESIAN_POINT('',(-2.0818995585505E-15,0.400000000000005,-17.));
#859=CARTESIAN_POINT('Origin',(0.,-1.04094977927525E-15,0.));
#860=CARTESIAN_POINT('Origin',(0.,7.6,0.));
#861=CARTESIAN_POINT('',(2.0818995585505E-15,7.19999999999999,-17.));
#862=CARTESIAN_POINT('',(-2.0818995585505E-15,7.19999999999999,17.));
#863=CARTESIAN_POINT('Origin',(0.,7.19999999999999,0.));
#864=CARTESIAN_POINT('Origin',(0.,7.19999999999999,0.));
#865=CARTESIAN_POINT('',(-2.0329136865846E-15,7.6,16.6));
#866=CARTESIAN_POINT('',(-2.0329136865846E-15,7.6,16.6));
#867=CARTESIAN_POINT('Origin',(0.,7.6,0.));
#868=CARTESIAN_POINT('Origin',(0.,6.4,0.));
#869=CARTESIAN_POINT('',(-1.09380772227709E-15,6.4,-8.93161785944027));
#870=CARTESIAN_POINT('Origin',(0.,6.4,0.));
#871=CARTESIAN_POINT('',(-1.12055182121983E-15,7.,-9.15));
#872=CARTESIAN_POINT('',(-1.09380772227709E-15,6.4,-8.93161785944027));
#873=CARTESIAN_POINT('',(1.21852356515162E-15,7.,9.15));
#874=CARTESIAN_POINT('Origin',(0.,7.,0.));
#875=CARTESIAN_POINT('Origin',(0.,7.,0.));
#876=CARTESIAN_POINT('Origin',(0.,7.,0.));
#877=CARTESIAN_POINT('',(1.3164953090834E-15,6.41764762517406,-10.75));
#878=CARTESIAN_POINT('',(-1.3164953090834E-15,6.41764762517406,10.75));
#879=CARTESIAN_POINT('Origin',(0.,6.41764762517406,0.));
#880=CARTESIAN_POINT('',(-1.12055182121983E-15,7.,9.15));
#881=CARTESIAN_POINT('Origin',(0.,6.41764762517406,0.));
#882=CARTESIAN_POINT('Origin',(0.,53.8353387124258,0.));
#883=CARTESIAN_POINT('',(-1.3164953090834E-15,7.6,-10.75));
#884=CARTESIAN_POINT('',(-1.3164953090834E-15,53.8353387124258,-10.75));
#885=CARTESIAN_POINT('Origin',(0.,7.6,0.));
#886=CARTESIAN_POINT('Origin',(0.,53.8353387124258,0.));
#887=CARTESIAN_POINT('',(-2.0818995585505E-15,53.8353387124258,-17.));
#888=CARTESIAN_POINT('Origin',(0.,-1.04094977927525E-15,0.));
#889=CARTESIAN_POINT('Origin',(0.,7.6,17.));
#890=CARTESIAN_POINT('Origin',(0.,6.4,8.93161785944027));
#891=UNCERTAINTY_MEASURE_WITH_UNIT(LENGTH_MEASURE(0.01),#895,
'DISTANCE_ACCURACY_VALUE',
'Maximum model space distance between geometric entities at asserted c
onnectivities');
#892=UNCERTAINTY_MEASURE_WITH_UNIT(LENGTH_MEASURE(0.01),#895,
'DISTANCE_ACCURACY_VALUE',
'Maximum model space distance between geometric entities at asserted c
onnectivities');
#893=(
GEOMETRIC_REPRESENTATION_CONTEXT(3)
GLOBAL_UNCERTAINTY_ASSIGNED_CONTEXT((#891))
GLOBAL_UNIT_ASSIGNED_CONTEXT((#895,#897,#898))
REPRESENTATION_CONTEXT('','3D')
);
#894=(
GEOMETRIC_REPRESENTATION_CONTEXT(3)
GLOBAL_UNCERTAINTY_ASSIGNED_CONTEXT((#892))
GLOBAL_UNIT_ASSIGNED_CONTEXT((#895,#897,#898))
REPRESENTATION_CONTEXT('','3D')
);
#895=(
LENGTH_UNIT()
NAMED_UNIT(*)
SI_UNIT(.MILLI.,.METRE.)
);
#896=(
LENGTH_UNIT()
NAMED_UNIT(*)
SI_UNIT($,.METRE.)
);
#897=(
NAMED_UNIT(*)
PLANE_ANGLE_UNIT()
SI_UNIT($,.RADIAN.)
);
#898=(
NAMED_UNIT(*)
SI_UNIT($,.STERADIAN.)
SOLID_ANGLE_UNIT()
);
#899=SHAPE_DEFINITION_REPRESENTATION(#900,#901);
#900=PRODUCT_DEFINITION_SHAPE('',$,#903);
#901=SHAPE_REPRESENTATION('',(#510),#893);
#902=PRODUCT_DEFINITION_CONTEXT('part definition',#907,'design');
#903=PRODUCT_DEFINITION('Hositrad_CF16-6-T','Hositrad_CF16-6-T v1',#904,
#902);
#904=PRODUCT_DEFINITION_FORMATION('',$,#909);
#905=PRODUCT_RELATED_PRODUCT_CATEGORY('Hositrad_CF16-6-T v1',
'Hositrad_CF16-6-T v1',(#909));
#906=APPLICATION_PROTOCOL_DEFINITION('international standard',
'automotive_design',2009,#907);
#907=APPLICATION_CONTEXT(
'Core Data for Automotive Mechanical Design Process');
#908=PRODUCT_CONTEXT('part definition',#907,'mechanical');
#909=PRODUCT('Hositrad_CF16-6-T','Hositrad_CF16-6-T v1',$,(#908));
#910=PRESENTATION_STYLE_ASSIGNMENT((#912));
#911=PRESENTATION_STYLE_ASSIGNMENT((#913));
#912=SURFACE_STYLE_USAGE(.BOTH.,#914);
#913=SURFACE_STYLE_USAGE(.BOTH.,#915);
#914=SURFACE_SIDE_STYLE('',(#916));
#915=SURFACE_SIDE_STYLE('',(#917));
#916=SURFACE_STYLE_FILL_AREA(#918);
#917=SURFACE_STYLE_FILL_AREA(#919);
#918=FILL_AREA_STYLE('Steel - Satin',(#920));
#919=FILL_AREA_STYLE('Opaque(165,158,150)',(#921));
#920=FILL_AREA_STYLE_COLOUR('Steel - Satin',#922);
#921=FILL_AREA_STYLE_COLOUR('Opaque(165,158,150)',#923);
#922=COLOUR_RGB('Steel - Satin',0.627450980392157,0.627450980392157,0.627450980392157);
#923=COLOUR_RGB('Opaque(165,158,150)',0.647058823529412,0.619607843137255,
0.588235294117647);
ENDSEC;
END-ISO-10303-21;
