ISO-10303-21;
HEADER;
/* Generated by software containing ST-Developer
 * from STEP Tools, Inc. (www.steptools.com) 
 */

FILE_DESCRIPTION(
/* description */ (''),
/* implementation_level */ '2;1');

FILE_NAME(
/* name */ 'Hositrad_KF40-38-40 v1.step',
/* time_stamp */ '2024-06-25T14:34:30+02:00',
/* author */ (''),
/* organization */ (''),
/* preprocessor_version */ 'ST-DEVELOPER v20',
/* originating_system */ 'Autodesk Translation Framework v13.14.0.145',

/* authorisation */ '');

FILE_SCHEMA (('AUTOMOTIVE_DESIGN { 1 0 10303 214 3 1 1 }'));
ENDSEC;

DATA;
#10=MECHANICAL_DESIGN_GEOMETRIC_PRESENTATION_REPRESENTATION('',(#13),#336);
#11=SHAPE_REPRESENTATION_RELATIONSHIP('SRR','None',#343,#12);
#12=ADVANCED_BREP_SHAPE_REPRESENTATION('',(#14),#335);
#13=STYLED_ITEM('',(#353),#14);
#14=MANIFOLD_SOLID_BREP('Body1',#180);
#15=FACE_BOUND('',#49,.T.);
#16=FACE_BOUND('',#51,.T.);
#17=FACE_BOUND('',#53,.T.);
#18=FACE_BOUND('',#55,.T.);
#19=PLANE('',#217);
#20=PLANE('',#218);
#21=PLANE('',#219);
#22=PLANE('',#220);
#23=TOROIDAL_SURFACE('',#207,26.,1.5);
#24=CYLINDRICAL_SURFACE('',#198,16.95);
#25=CYLINDRICAL_SURFACE('',#201,19.05);
#26=CYLINDRICAL_SURFACE('',#214,27.5);
#27=CYLINDRICAL_SURFACE('',#215,20.65);
#28=FACE_OUTER_BOUND('',#40,.T.);
#29=FACE_OUTER_BOUND('',#41,.T.);
#30=FACE_OUTER_BOUND('',#42,.T.);
#31=FACE_OUTER_BOUND('',#43,.T.);
#32=FACE_OUTER_BOUND('',#44,.T.);
#33=FACE_OUTER_BOUND('',#45,.T.);
#34=FACE_OUTER_BOUND('',#46,.T.);
#35=FACE_OUTER_BOUND('',#47,.T.);
#36=FACE_OUTER_BOUND('',#48,.T.);
#37=FACE_OUTER_BOUND('',#50,.T.);
#38=FACE_OUTER_BOUND('',#52,.T.);
#39=FACE_OUTER_BOUND('',#54,.T.);
#40=EDGE_LOOP('',(#121,#122,#123,#124,#125));
#41=EDGE_LOOP('',(#126,#127,#128,#129));
#42=EDGE_LOOP('',(#130,#131,#132,#133));
#43=EDGE_LOOP('',(#134,#135,#136,#137));
#44=EDGE_LOOP('',(#138,#139,#140,#141,#142));
#45=EDGE_LOOP('',(#143,#144,#145,#146));
#46=EDGE_LOOP('',(#147,#148,#149,#150,#151));
#47=EDGE_LOOP('',(#152,#153,#154,#155,#156));
#48=EDGE_LOOP('',(#157));
#49=EDGE_LOOP('',(#158));
#50=EDGE_LOOP('',(#159));
#51=EDGE_LOOP('',(#160));
#52=EDGE_LOOP('',(#161));
#53=EDGE_LOOP('',(#162));
#54=EDGE_LOOP('',(#163));
#55=EDGE_LOOP('',(#164));
#56=LINE('',#291,#63);
#57=LINE('',#297,#64);
#58=LINE('',#303,#65);
#59=LINE('',#309,#66);
#60=LINE('',#321,#67);
#61=LINE('',#324,#68);
#62=LINE('',#327,#69);
#63=VECTOR('',#229,20.95);
#64=VECTOR('',#236,16.95);
#65=VECTOR('',#243,19.05);
#66=VECTOR('',#250,27.5);
#67=VECTOR('',#265,19.7373343202567);
#68=VECTOR('',#270,27.5);
#69=VECTOR('',#273,20.65);
#70=CIRCLE('',#195,20.65);
#71=CIRCLE('',#196,20.65);
#72=CIRCLE('',#197,20.95);
#73=CIRCLE('',#199,16.95);
#74=CIRCLE('',#200,16.95);
#75=CIRCLE('',#202,19.05);
#76=CIRCLE('',#203,19.05);
#77=CIRCLE('',#205,27.5);
#78=CIRCLE('',#206,27.25);
#79=CIRCLE('',#208,27.5);
#80=CIRCLE('',#209,27.5);
#81=CIRCLE('',#210,1.5);
#82=CIRCLE('',#211,26.3882285676538);
#83=CIRCLE('',#213,19.7373343202567);
#84=CIRCLE('',#216,20.65);
#85=VERTEX_POINT('',#286);
#86=VERTEX_POINT('',#287);
#87=VERTEX_POINT('',#290);
#88=VERTEX_POINT('',#294);
#89=VERTEX_POINT('',#296);
#90=VERTEX_POINT('',#300);
#91=VERTEX_POINT('',#302);
#92=VERTEX_POINT('',#306);
#93=VERTEX_POINT('',#308);
#94=VERTEX_POINT('',#312);
#95=VERTEX_POINT('',#313);
#96=VERTEX_POINT('',#316);
#97=VERTEX_POINT('',#320);
#98=VERTEX_POINT('',#326);
#99=EDGE_CURVE('',#85,#86,#70,.T.);
#100=EDGE_CURVE('',#86,#85,#71,.T.);
#101=EDGE_CURVE('',#86,#87,#56,.T.);
#102=EDGE_CURVE('',#87,#87,#72,.T.);
#103=EDGE_CURVE('',#88,#88,#73,.T.);
#104=EDGE_CURVE('',#88,#89,#57,.T.);
#105=EDGE_CURVE('',#89,#89,#74,.T.);
#106=EDGE_CURVE('',#90,#90,#75,.T.);
#107=EDGE_CURVE('',#90,#91,#58,.T.);
#108=EDGE_CURVE('',#91,#91,#76,.T.);
#109=EDGE_CURVE('',#92,#92,#77,.T.);
#110=EDGE_CURVE('',#92,#93,#59,.T.);
#111=EDGE_CURVE('',#93,#93,#78,.T.);
#112=EDGE_CURVE('',#94,#95,#79,.T.);
#113=EDGE_CURVE('',#95,#94,#80,.T.);
#114=EDGE_CURVE('',#95,#96,#81,.T.);
#115=EDGE_CURVE('',#96,#96,#82,.T.);
#116=EDGE_CURVE('',#96,#97,#60,.T.);
#117=EDGE_CURVE('',#97,#97,#83,.T.);
#118=EDGE_CURVE('',#94,#92,#61,.T.);
#119=EDGE_CURVE('',#85,#98,#62,.T.);
#120=EDGE_CURVE('',#98,#98,#84,.T.);
#121=ORIENTED_EDGE('',*,*,#99,.F.);
#122=ORIENTED_EDGE('',*,*,#100,.F.);
#123=ORIENTED_EDGE('',*,*,#101,.T.);
#124=ORIENTED_EDGE('',*,*,#102,.F.);
#125=ORIENTED_EDGE('',*,*,#101,.F.);
#126=ORIENTED_EDGE('',*,*,#103,.T.);
#127=ORIENTED_EDGE('',*,*,#104,.T.);
#128=ORIENTED_EDGE('',*,*,#105,.T.);
#129=ORIENTED_EDGE('',*,*,#104,.F.);
#130=ORIENTED_EDGE('',*,*,#106,.F.);
#131=ORIENTED_EDGE('',*,*,#107,.T.);
#132=ORIENTED_EDGE('',*,*,#108,.F.);
#133=ORIENTED_EDGE('',*,*,#107,.F.);
#134=ORIENTED_EDGE('',*,*,#109,.F.);
#135=ORIENTED_EDGE('',*,*,#110,.T.);
#136=ORIENTED_EDGE('',*,*,#111,.F.);
#137=ORIENTED_EDGE('',*,*,#110,.F.);
#138=ORIENTED_EDGE('',*,*,#112,.F.);
#139=ORIENTED_EDGE('',*,*,#113,.F.);
#140=ORIENTED_EDGE('',*,*,#114,.T.);
#141=ORIENTED_EDGE('',*,*,#115,.F.);
#142=ORIENTED_EDGE('',*,*,#114,.F.);
#143=ORIENTED_EDGE('',*,*,#115,.T.);
#144=ORIENTED_EDGE('',*,*,#116,.T.);
#145=ORIENTED_EDGE('',*,*,#117,.F.);
#146=ORIENTED_EDGE('',*,*,#116,.F.);
#147=ORIENTED_EDGE('',*,*,#112,.T.);
#148=ORIENTED_EDGE('',*,*,#113,.T.);
#149=ORIENTED_EDGE('',*,*,#118,.T.);
#150=ORIENTED_EDGE('',*,*,#109,.T.);
#151=ORIENTED_EDGE('',*,*,#118,.F.);
#152=ORIENTED_EDGE('',*,*,#99,.T.);
#153=ORIENTED_EDGE('',*,*,#100,.T.);
#154=ORIENTED_EDGE('',*,*,#119,.T.);
#155=ORIENTED_EDGE('',*,*,#120,.T.);
#156=ORIENTED_EDGE('',*,*,#119,.F.);
#157=ORIENTED_EDGE('',*,*,#117,.T.);
#158=ORIENTED_EDGE('',*,*,#106,.T.);
#159=ORIENTED_EDGE('',*,*,#120,.F.);
#160=ORIENTED_EDGE('',*,*,#103,.F.);
#161=ORIENTED_EDGE('',*,*,#111,.T.);
#162=ORIENTED_EDGE('',*,*,#102,.T.);
#163=ORIENTED_EDGE('',*,*,#108,.T.);
#164=ORIENTED_EDGE('',*,*,#105,.F.);
#165=CONICAL_SURFACE('',#194,20.95,0.785398163397454);
#166=CONICAL_SURFACE('',#204,27.5,0.785398163397455);
#167=CONICAL_SURFACE('',#212,19.7373343202567,1.30899693899575);
#168=ADVANCED_FACE('',(#28),#165,.F.);
#169=ADVANCED_FACE('',(#29),#24,.F.);
#170=ADVANCED_FACE('',(#30),#25,.T.);
#171=ADVANCED_FACE('',(#31),#166,.T.);
#172=ADVANCED_FACE('',(#32),#23,.T.);
#173=ADVANCED_FACE('',(#33),#167,.T.);
#174=ADVANCED_FACE('',(#34),#26,.T.);
#175=ADVANCED_FACE('',(#35),#27,.F.);
#176=ADVANCED_FACE('',(#36,#15),#19,.T.);
#177=ADVANCED_FACE('',(#37,#16),#20,.T.);
#178=ADVANCED_FACE('',(#38,#17),#21,.T.);
#179=ADVANCED_FACE('',(#39,#18),#22,.T.);
#180=CLOSED_SHELL('',(#168,#169,#170,#171,#172,#173,#174,#175,#176,#177,
#178,#179));
#181=DERIVED_UNIT_ELEMENT(#183,1.);
#182=DERIVED_UNIT_ELEMENT(#338,-3.);
#183=(
MASS_UNIT()
NAMED_UNIT(*)
SI_UNIT(.KILO.,.GRAM.)
);
#184=DERIVED_UNIT((#181,#182));
#185=MEASURE_REPRESENTATION_ITEM('density measure',
POSITIVE_RATIO_MEASURE(7850.),#184);
#186=PROPERTY_DEFINITION_REPRESENTATION(#191,#188);
#187=PROPERTY_DEFINITION_REPRESENTATION(#192,#189);
#188=REPRESENTATION('material name',(#190),#335);
#189=REPRESENTATION('density',(#185),#335);
#190=DESCRIPTIVE_REPRESENTATION_ITEM('Steel','Steel');
#191=PROPERTY_DEFINITION('material property','material name',#345);
#192=PROPERTY_DEFINITION('material property','density of part',#345);
#193=AXIS2_PLACEMENT_3D('',#284,#221,#222);
#194=AXIS2_PLACEMENT_3D('',#285,#223,#224);
#195=AXIS2_PLACEMENT_3D('',#288,#225,#226);
#196=AXIS2_PLACEMENT_3D('',#289,#227,#228);
#197=AXIS2_PLACEMENT_3D('',#292,#230,#231);
#198=AXIS2_PLACEMENT_3D('',#293,#232,#233);
#199=AXIS2_PLACEMENT_3D('',#295,#234,#235);
#200=AXIS2_PLACEMENT_3D('',#298,#237,#238);
#201=AXIS2_PLACEMENT_3D('',#299,#239,#240);
#202=AXIS2_PLACEMENT_3D('',#301,#241,#242);
#203=AXIS2_PLACEMENT_3D('',#304,#244,#245);
#204=AXIS2_PLACEMENT_3D('',#305,#246,#247);
#205=AXIS2_PLACEMENT_3D('',#307,#248,#249);
#206=AXIS2_PLACEMENT_3D('',#310,#251,#252);
#207=AXIS2_PLACEMENT_3D('',#311,#253,#254);
#208=AXIS2_PLACEMENT_3D('',#314,#255,#256);
#209=AXIS2_PLACEMENT_3D('',#315,#257,#258);
#210=AXIS2_PLACEMENT_3D('',#317,#259,#260);
#211=AXIS2_PLACEMENT_3D('',#318,#261,#262);
#212=AXIS2_PLACEMENT_3D('',#319,#263,#264);
#213=AXIS2_PLACEMENT_3D('',#322,#266,#267);
#214=AXIS2_PLACEMENT_3D('',#323,#268,#269);
#215=AXIS2_PLACEMENT_3D('',#325,#271,#272);
#216=AXIS2_PLACEMENT_3D('',#328,#274,#275);
#217=AXIS2_PLACEMENT_3D('',#329,#276,#277);
#218=AXIS2_PLACEMENT_3D('',#330,#278,#279);
#219=AXIS2_PLACEMENT_3D('',#331,#280,#281);
#220=AXIS2_PLACEMENT_3D('',#332,#282,#283);
#221=DIRECTION('axis',(0.,0.,1.));
#222=DIRECTION('refdir',(1.,0.,0.));
#223=DIRECTION('center_axis',(0.,-1.,0.));
#224=DIRECTION('ref_axis',(0.,0.,-1.));
#225=DIRECTION('center_axis',(0.,-1.,0.));
#226=DIRECTION('ref_axis',(0.,0.,-1.));
#227=DIRECTION('center_axis',(0.,-1.,0.));
#228=DIRECTION('ref_axis',(0.,0.,-1.));
#229=DIRECTION('',(-8.65956056235498E-17,-0.707106781186543,0.707106781186552));
#230=DIRECTION('center_axis',(0.,1.,0.));
#231=DIRECTION('ref_axis',(0.,0.,-1.));
#232=DIRECTION('center_axis',(0.,1.,0.));
#233=DIRECTION('ref_axis',(0.,0.,1.));
#234=DIRECTION('center_axis',(0.,-1.,0.));
#235=DIRECTION('ref_axis',(0.,0.,-1.));
#236=DIRECTION('',(0.,1.,0.));
#237=DIRECTION('center_axis',(0.,1.,0.));
#238=DIRECTION('ref_axis',(0.,0.,1.));
#239=DIRECTION('center_axis',(0.,-1.,0.));
#240=DIRECTION('ref_axis',(0.,0.,-1.));
#241=DIRECTION('center_axis',(0.,-1.,0.));
#242=DIRECTION('ref_axis',(0.,0.,1.));
#243=DIRECTION('',(0.,1.,0.));
#244=DIRECTION('center_axis',(0.,1.,0.));
#245=DIRECTION('ref_axis',(0.,0.,1.));
#246=DIRECTION('center_axis',(0.,1.,0.));
#247=DIRECTION('ref_axis',(0.,0.,1.));
#248=DIRECTION('center_axis',(0.,1.,0.));
#249=DIRECTION('ref_axis',(0.,0.,-1.));
#250=DIRECTION('',(8.65956056235499E-17,-0.707106781186543,0.707106781186552));
#251=DIRECTION('center_axis',(0.,-1.,0.));
#252=DIRECTION('ref_axis',(0.,0.,-1.));
#253=DIRECTION('center_axis',(0.,-1.,0.));
#254=DIRECTION('ref_axis',(0.,0.,-1.));
#255=DIRECTION('center_axis',(0.,-1.,0.));
#256=DIRECTION('ref_axis',(0.,0.,-1.));
#257=DIRECTION('center_axis',(0.,-1.,0.));
#258=DIRECTION('ref_axis',(0.,0.,-1.));
#259=DIRECTION('center_axis',(-1.,0.,-1.22464679914735E-16));
#260=DIRECTION('ref_axis',(-1.22464679914735E-16,0.,1.));
#261=DIRECTION('center_axis',(0.,1.,0.));
#262=DIRECTION('ref_axis',(0.,0.,1.));
#263=DIRECTION('center_axis',(0.,-1.,0.));
#264=DIRECTION('ref_axis',(0.,0.,-1.));
#265=DIRECTION('',(1.18291797137867E-16,0.258819045102522,-0.965925826289068));
#266=DIRECTION('center_axis',(0.,1.,0.));
#267=DIRECTION('ref_axis',(0.,0.,1.));
#268=DIRECTION('center_axis',(0.,1.,0.));
#269=DIRECTION('ref_axis',(0.,0.,1.));
#270=DIRECTION('',(0.,-1.,0.));
#271=DIRECTION('center_axis',(0.,1.,0.));
#272=DIRECTION('ref_axis',(0.,0.,1.));
#273=DIRECTION('',(0.,1.,0.));
#274=DIRECTION('center_axis',(0.,1.,0.));
#275=DIRECTION('ref_axis',(0.,0.,1.));
#276=DIRECTION('center_axis',(0.,1.,0.));
#277=DIRECTION('ref_axis',(0.,0.,1.));
#278=DIRECTION('center_axis',(0.,-1.,0.));
#279=DIRECTION('ref_axis',(0.,0.,-1.));
#280=DIRECTION('center_axis',(0.,-1.,0.));
#281=DIRECTION('ref_axis',(0.,0.,-1.));
#282=DIRECTION('center_axis',(0.,1.,0.));
#283=DIRECTION('ref_axis',(0.,0.,1.));
#284=CARTESIAN_POINT('',(0.,0.,0.));
#285=CARTESIAN_POINT('Origin',(0.,0.,0.));
#286=CARTESIAN_POINT('',(2.52889564023928E-15,0.300000000000009,-20.65));
#287=CARTESIAN_POINT('',(-2.52889564023928E-15,0.30000000000001,20.65));
#288=CARTESIAN_POINT('Origin',(0.,0.300000000000009,0.));
#289=CARTESIAN_POINT('Origin',(0.,0.300000000000009,0.));
#290=CARTESIAN_POINT('',(-2.56563504421371E-15,-5.30665067506278E-15,20.95));
#291=CARTESIAN_POINT('',(-2.5656350442137E-15,0.,20.95));
#292=CARTESIAN_POINT('Origin',(0.,-2.94833716894725E-15,0.));
#293=CARTESIAN_POINT('Origin',(0.,0.,0.));
#294=CARTESIAN_POINT('',(-2.07577632455476E-15,2.5,-16.95));
#295=CARTESIAN_POINT('Origin',(0.,2.5,0.));
#296=CARTESIAN_POINT('',(-2.07577632455476E-15,40.,-16.95));
#297=CARTESIAN_POINT('',(-2.07577632455476E-15,0.,-16.95));
#298=CARTESIAN_POINT('Origin',(0.,40.,0.));
#299=CARTESIAN_POINT('Origin',(0.,40.,0.));
#300=CARTESIAN_POINT('',(-2.33295215237571E-15,5.08,19.05));
#301=CARTESIAN_POINT('Origin',(0.,5.08,0.));
#302=CARTESIAN_POINT('',(-2.33295215237571E-15,40.,19.05));
#303=CARTESIAN_POINT('',(-2.33295215237571E-15,40.,19.05));
#304=CARTESIAN_POINT('Origin',(0.,40.,0.));
#305=CARTESIAN_POINT('Origin',(0.,0.249999999999993,0.));
#306=CARTESIAN_POINT('',(-3.36777869765522E-15,0.249999999999995,-27.5));
#307=CARTESIAN_POINT('Origin',(0.,0.249999999999993,0.));
#308=CARTESIAN_POINT('',(-3.33716252767654E-15,-3.92047505570758E-15,-27.25));
#309=CARTESIAN_POINT('',(-3.36777869765522E-15,0.249999999999993,-27.5));
#310=CARTESIAN_POINT('Origin',(0.,-2.94833716894725E-15,0.));
#311=CARTESIAN_POINT('Origin',(0.,1.84900951803155,0.));
#312=CARTESIAN_POINT('',(3.36777869765522E-15,1.84900951803155,-27.5));
#313=CARTESIAN_POINT('',(-3.36777869765522E-15,1.84900951803155,27.5));
#314=CARTESIAN_POINT('Origin',(0.,1.84900951803155,0.));
#315=CARTESIAN_POINT('Origin',(0.,1.84900951803155,0.));
#316=CARTESIAN_POINT('',(-3.23162596505459E-15,3.29789825746516,26.3882285676538));
#317=CARTESIAN_POINT('Origin',(-3.18408167778312E-15,1.84900951803155,26.));
#318=CARTESIAN_POINT('Origin',(0.,3.29789825746516,0.));
#319=CARTESIAN_POINT('Origin',(0.,5.08,0.));
#320=CARTESIAN_POINT('',(-2.41712632990036E-15,5.08,19.7373343202567));
#321=CARTESIAN_POINT('',(-2.41712632990036E-15,5.08,19.7373343202567));
#322=CARTESIAN_POINT('Origin',(0.,5.08,0.));
#323=CARTESIAN_POINT('Origin',(0.,55.2557961982418,0.));
#324=CARTESIAN_POINT('',(-3.36777869765522E-15,55.2557961982418,-27.5));
#325=CARTESIAN_POINT('Origin',(0.,55.2557961982418,0.));
#326=CARTESIAN_POINT('',(-2.52889564023928E-15,2.49999999999999,-20.65));
#327=CARTESIAN_POINT('',(-2.52889564023928E-15,55.2557961982418,-20.65));
#328=CARTESIAN_POINT('Origin',(0.,2.5,0.));
#329=CARTESIAN_POINT('Origin',(-19.7373343202567,5.08,0.));
#330=CARTESIAN_POINT('Origin',(-20.65,2.5,0.));
#331=CARTESIAN_POINT('Origin',(-20.65,-2.94833716894725E-15,0.));
#332=CARTESIAN_POINT('Origin',(0.,40.,0.));
#333=UNCERTAINTY_MEASURE_WITH_UNIT(LENGTH_MEASURE(0.01),#337,
'DISTANCE_ACCURACY_VALUE',
'Maximum model space distance between geometric entities at asserted c
onnectivities');
#334=UNCERTAINTY_MEASURE_WITH_UNIT(LENGTH_MEASURE(0.01),#337,
'DISTANCE_ACCURACY_VALUE',
'Maximum model space distance between geometric entities at asserted c
onnectivities');
#335=(
GEOMETRIC_REPRESENTATION_CONTEXT(3)
GLOBAL_UNCERTAINTY_ASSIGNED_CONTEXT((#333))
GLOBAL_UNIT_ASSIGNED_CONTEXT((#337,#339,#340))
REPRESENTATION_CONTEXT('','3D')
);
#336=(
GEOMETRIC_REPRESENTATION_CONTEXT(3)
GLOBAL_UNCERTAINTY_ASSIGNED_CONTEXT((#334))
GLOBAL_UNIT_ASSIGNED_CONTEXT((#337,#339,#340))
REPRESENTATION_CONTEXT('','3D')
);
#337=(
LENGTH_UNIT()
NAMED_UNIT(*)
SI_UNIT(.MILLI.,.METRE.)
);
#338=(
LENGTH_UNIT()
NAMED_UNIT(*)
SI_UNIT($,.METRE.)
);
#339=(
NAMED_UNIT(*)
PLANE_ANGLE_UNIT()
SI_UNIT($,.RADIAN.)
);
#340=(
NAMED_UNIT(*)
SI_UNIT($,.STERADIAN.)
SOLID_ANGLE_UNIT()
);
#341=SHAPE_DEFINITION_REPRESENTATION(#342,#343);
#342=PRODUCT_DEFINITION_SHAPE('',$,#345);
#343=SHAPE_REPRESENTATION('',(#193),#335);
#344=PRODUCT_DEFINITION_CONTEXT('part definition',#349,'design');
#345=PRODUCT_DEFINITION('Hositrad_KF40-38-40','Hositrad_KF40-38-40 v1',
#346,#344);
#346=PRODUCT_DEFINITION_FORMATION('',$,#351);
#347=PRODUCT_RELATED_PRODUCT_CATEGORY('Hositrad_KF40-38-40 v1',
'Hositrad_KF40-38-40 v1',(#351));
#348=APPLICATION_PROTOCOL_DEFINITION('international standard',
'automotive_design',2009,#349);
#349=APPLICATION_CONTEXT(
'Core Data for Automotive Mechanical Design Process');
#350=PRODUCT_CONTEXT('part definition',#349,'mechanical');
#351=PRODUCT('Hositrad_KF40-38-40','Hositrad_KF40-38-40 v1',$,(#350));
#352=PRESENTATION_STYLE_ASSIGNMENT((#354));
#353=PRESENTATION_STYLE_ASSIGNMENT((#355));
#354=SURFACE_STYLE_USAGE(.BOTH.,#356);
#355=SURFACE_STYLE_USAGE(.BOTH.,#357);
#356=SURFACE_SIDE_STYLE('',(#358));
#357=SURFACE_SIDE_STYLE('',(#359));
#358=SURFACE_STYLE_FILL_AREA(#360);
#359=SURFACE_STYLE_FILL_AREA(#361);
#360=FILL_AREA_STYLE('Steel - Satin',(#362));
#361=FILL_AREA_STYLE('Opaque(165,158,150)',(#363));
#362=FILL_AREA_STYLE_COLOUR('Steel - Satin',#364);
#363=FILL_AREA_STYLE_COLOUR('Opaque(165,158,150)',#365);
#364=COLOUR_RGB('Steel - Satin',0.627450980392157,0.627450980392157,0.627450980392157);
#365=COLOUR_RGB('Opaque(165,158,150)',0.647058823529412,0.619607843137255,
0.588235294117647);
ENDSEC;
END-ISO-10303-21;
