ISO-10303-21;
HEADER;
/* Generated by software containing ST-Developer
 * from STEP Tools, Inc. (www.steptools.com) 
 */

FILE_DESCRIPTION(
/* description */ (''),
/* implementation_level */ '2;1');

FILE_NAME(
/* name */ 'Hositrad_KF16-R v2.step',
/* time_stamp */ '2024-06-25T14:31:20+02:00',
/* author */ (''),
/* organization */ (''),
/* preprocessor_version */ 'ST-DEVELOPER v20',
/* originating_system */ 'Autodesk Translation Framework v13.14.0.145',

/* authorisation */ '');

FILE_SCHEMA (('AUTOMOTIVE_DESIGN { 1 0 10303 214 3 1 1 }'));
ENDSEC;

DATA;
#10=MECHANICAL_DESIGN_GEOMETRIC_PRESENTATION_REPRESENTATION('',(#219,#220,
#221),#469);
#11=ITEM_DEFINED_TRANSFORMATION($,$,#263,#302);
#12=ITEM_DEFINED_TRANSFORMATION($,$,#267,#303);
#13=(
REPRESENTATION_RELATIONSHIP($,$,#483,#482)
REPRESENTATION_RELATIONSHIP_WITH_TRANSFORMATION(#11)
SHAPE_REPRESENTATION_RELATIONSHIP()
);
#14=(
REPRESENTATION_RELATIONSHIP($,$,#484,#482)
REPRESENTATION_RELATIONSHIP_WITH_TRANSFORMATION(#12)
SHAPE_REPRESENTATION_RELATIONSHIP()
);
#15=CONTEXT_DEPENDENT_SHAPE_REPRESENTATION(#13,#480);
#16=CONTEXT_DEPENDENT_SHAPE_REPRESENTATION(#14,#481);
#17=NEXT_ASSEMBLY_USAGE_OCCURRENCE('KF-Oring-All_KF16:1',
'KF-Oring-All_KF16:1','KF-Oring-All_KF16:1',#486,#487,
'KF-Oring-All_KF16:1');
#18=NEXT_ASSEMBLY_USAGE_OCCURRENCE('KF-Ring-All_KF16:1',
'KF-Ring-All_KF16:1','KF-Ring-All_KF16:1',#486,#488,
'KF-Ring-All_KF16:1');
#19=FACE_BOUND('',#81,.T.);
#20=FACE_BOUND('',#83,.T.);
#21=FACE_BOUND('',#85,.T.);
#22=FACE_BOUND('',#87,.T.);
#23=PLANE('',#298);
#24=PLANE('',#299);
#25=PLANE('',#300);
#26=PLANE('',#301);
#27=CYLINDRICAL_SURFACE('',#293,8.5);
#28=CYLINDRICAL_SURFACE('',#295,8.);
#29=CYLINDRICAL_SURFACE('',#296,8.5);
#30=LINE('',#416,#37);
#31=LINE('',#422,#38);
#32=LINE('',#436,#39);
#33=LINE('',#444,#40);
#34=LINE('',#448,#41);
#35=LINE('',#451,#42);
#36=LINE('',#455,#43);
#37=VECTOR('',#332,8.4);
#38=VECTOR('',#339,8.5);
#39=VECTOR('',#358,8.);
#40=VECTOR('',#367,8.1);
#41=VECTOR('',#372,8.5);
#42=VECTOR('',#377,8.);
#43=VECTOR('',#382,8.5);
#44=CONICAL_SURFACE('',#273,8.4,0.785398163397466);
#45=CONICAL_SURFACE('',#277,8.5,0.785398163397466);
#46=CONICAL_SURFACE('',#286,8.,0.78539816339744);
#47=CONICAL_SURFACE('',#289,8.1,0.785398163397466);
#48=SHAPE_REPRESENTATION_RELATIONSHIP('SRR','None',#483,#50);
#49=SHAPE_REPRESENTATION_RELATIONSHIP('SRR','None',#484,#51);
#50=ADVANCED_BREP_SHAPE_REPRESENTATION('',(#52),#467);
#51=ADVANCED_BREP_SHAPE_REPRESENTATION('',(#53),#468);
#52=MANIFOLD_SOLID_BREP('Body1',#237);
#53=MANIFOLD_SOLID_BREP('Body1',#238);
#54=FACE_OUTER_BOUND('',#69,.T.);
#55=FACE_OUTER_BOUND('',#70,.T.);
#56=FACE_OUTER_BOUND('',#71,.T.);
#57=FACE_OUTER_BOUND('',#72,.T.);
#58=FACE_OUTER_BOUND('',#73,.T.);
#59=FACE_OUTER_BOUND('',#74,.T.);
#60=FACE_OUTER_BOUND('',#75,.T.);
#61=FACE_OUTER_BOUND('',#76,.T.);
#62=FACE_OUTER_BOUND('',#77,.T.);
#63=FACE_OUTER_BOUND('',#78,.T.);
#64=FACE_OUTER_BOUND('',#79,.T.);
#65=FACE_OUTER_BOUND('',#80,.T.);
#66=FACE_OUTER_BOUND('',#82,.T.);
#67=FACE_OUTER_BOUND('',#84,.T.);
#68=FACE_OUTER_BOUND('',#86,.T.);
#69=EDGE_LOOP('',(#157,#158,#159,#160));
#70=EDGE_LOOP('',(#161,#162,#163,#164,#165));
#71=EDGE_LOOP('',(#166,#167,#168,#169,#170));
#72=EDGE_LOOP('',(#171,#172,#173,#174));
#73=EDGE_LOOP('',(#175,#176,#177,#178));
#74=EDGE_LOOP('',(#179,#180,#181,#182,#183));
#75=EDGE_LOOP('',(#184,#185,#186,#187));
#76=EDGE_LOOP('',(#188,#189,#190,#191,#192));
#77=EDGE_LOOP('',(#193,#194,#195,#196,#197));
#78=EDGE_LOOP('',(#198,#199,#200,#201,#202));
#79=EDGE_LOOP('',(#203,#204,#205,#206));
#80=EDGE_LOOP('',(#207));
#81=EDGE_LOOP('',(#208));
#82=EDGE_LOOP('',(#209));
#83=EDGE_LOOP('',(#210));
#84=EDGE_LOOP('',(#211));
#85=EDGE_LOOP('',(#212));
#86=EDGE_LOOP('',(#213));
#87=EDGE_LOOP('',(#214));
#88=CIRCLE('',#265,2.5);
#89=CIRCLE('',#266,9.);
#90=CIRCLE('',#269,9.79343852410588);
#91=CIRCLE('',#270,9.79343852410588);
#92=CIRCLE('',#271,2.5);
#93=CIRCLE('',#272,9.79343852410587);
#94=CIRCLE('',#274,8.5);
#95=CIRCLE('',#275,8.5);
#96=CIRCLE('',#276,8.4);
#97=CIRCLE('',#278,8.5);
#98=CIRCLE('',#279,8.39999999999999);
#99=CIRCLE('',#281,0.1);
#100=CIRCLE('',#282,9.72517606507011);
#101=CIRCLE('',#284,0.1);
#102=CIRCLE('',#285,9.72517606507011);
#103=CIRCLE('',#287,8.);
#104=CIRCLE('',#288,8.09999999999999);
#105=CIRCLE('',#290,8.);
#106=CIRCLE('',#291,8.);
#107=CIRCLE('',#292,8.1);
#108=CIRCLE('',#294,8.5);
#109=CIRCLE('',#297,8.5);
#110=VERTEX_POINT('',#398);
#111=VERTEX_POINT('',#403);
#112=VERTEX_POINT('',#404);
#113=VERTEX_POINT('',#407);
#114=VERTEX_POINT('',#411);
#115=VERTEX_POINT('',#412);
#116=VERTEX_POINT('',#415);
#117=VERTEX_POINT('',#419);
#118=VERTEX_POINT('',#421);
#119=VERTEX_POINT('',#425);
#120=VERTEX_POINT('',#429);
#121=VERTEX_POINT('',#433);
#122=VERTEX_POINT('',#435);
#123=VERTEX_POINT('',#439);
#124=VERTEX_POINT('',#440);
#125=VERTEX_POINT('',#443);
#126=VERTEX_POINT('',#447);
#127=VERTEX_POINT('',#453);
#128=EDGE_CURVE('',#110,#110,#88,.T.);
#129=EDGE_CURVE('',#110,#110,#89,.T.);
#130=EDGE_CURVE('',#111,#112,#90,.T.);
#131=EDGE_CURVE('',#112,#111,#91,.T.);
#132=EDGE_CURVE('',#111,#113,#92,.T.);
#133=EDGE_CURVE('',#113,#113,#93,.T.);
#134=EDGE_CURVE('',#114,#115,#94,.T.);
#135=EDGE_CURVE('',#115,#114,#95,.T.);
#136=EDGE_CURVE('',#115,#116,#30,.T.);
#137=EDGE_CURVE('',#116,#116,#96,.T.);
#138=EDGE_CURVE('',#117,#117,#97,.T.);
#139=EDGE_CURVE('',#117,#118,#31,.T.);
#140=EDGE_CURVE('',#118,#118,#98,.T.);
#141=EDGE_CURVE('',#113,#119,#99,.T.);
#142=EDGE_CURVE('',#119,#119,#100,.T.);
#143=EDGE_CURVE('',#112,#120,#101,.T.);
#144=EDGE_CURVE('',#120,#120,#102,.T.);
#145=EDGE_CURVE('',#121,#121,#103,.T.);
#146=EDGE_CURVE('',#121,#122,#32,.T.);
#147=EDGE_CURVE('',#122,#122,#104,.T.);
#148=EDGE_CURVE('',#123,#124,#105,.T.);
#149=EDGE_CURVE('',#124,#123,#106,.T.);
#150=EDGE_CURVE('',#124,#125,#33,.T.);
#151=EDGE_CURVE('',#125,#125,#107,.T.);
#152=EDGE_CURVE('',#114,#126,#34,.T.);
#153=EDGE_CURVE('',#126,#126,#108,.T.);
#154=EDGE_CURVE('',#123,#121,#35,.T.);
#155=EDGE_CURVE('',#127,#127,#109,.T.);
#156=EDGE_CURVE('',#127,#117,#36,.T.);
#157=ORIENTED_EDGE('',*,*,#128,.F.);
#158=ORIENTED_EDGE('',*,*,#129,.T.);
#159=ORIENTED_EDGE('',*,*,#128,.T.);
#160=ORIENTED_EDGE('',*,*,#129,.F.);
#161=ORIENTED_EDGE('',*,*,#130,.T.);
#162=ORIENTED_EDGE('',*,*,#131,.T.);
#163=ORIENTED_EDGE('',*,*,#132,.T.);
#164=ORIENTED_EDGE('',*,*,#133,.T.);
#165=ORIENTED_EDGE('',*,*,#132,.F.);
#166=ORIENTED_EDGE('',*,*,#134,.F.);
#167=ORIENTED_EDGE('',*,*,#135,.F.);
#168=ORIENTED_EDGE('',*,*,#136,.T.);
#169=ORIENTED_EDGE('',*,*,#137,.F.);
#170=ORIENTED_EDGE('',*,*,#136,.F.);
#171=ORIENTED_EDGE('',*,*,#138,.F.);
#172=ORIENTED_EDGE('',*,*,#139,.T.);
#173=ORIENTED_EDGE('',*,*,#140,.F.);
#174=ORIENTED_EDGE('',*,*,#139,.F.);
#175=ORIENTED_EDGE('',*,*,#133,.F.);
#176=ORIENTED_EDGE('',*,*,#141,.T.);
#177=ORIENTED_EDGE('',*,*,#142,.F.);
#178=ORIENTED_EDGE('',*,*,#141,.F.);
#179=ORIENTED_EDGE('',*,*,#130,.F.);
#180=ORIENTED_EDGE('',*,*,#131,.F.);
#181=ORIENTED_EDGE('',*,*,#143,.T.);
#182=ORIENTED_EDGE('',*,*,#144,.F.);
#183=ORIENTED_EDGE('',*,*,#143,.F.);
#184=ORIENTED_EDGE('',*,*,#145,.F.);
#185=ORIENTED_EDGE('',*,*,#146,.T.);
#186=ORIENTED_EDGE('',*,*,#147,.F.);
#187=ORIENTED_EDGE('',*,*,#146,.F.);
#188=ORIENTED_EDGE('',*,*,#148,.F.);
#189=ORIENTED_EDGE('',*,*,#149,.F.);
#190=ORIENTED_EDGE('',*,*,#150,.T.);
#191=ORIENTED_EDGE('',*,*,#151,.F.);
#192=ORIENTED_EDGE('',*,*,#150,.F.);
#193=ORIENTED_EDGE('',*,*,#134,.T.);
#194=ORIENTED_EDGE('',*,*,#135,.T.);
#195=ORIENTED_EDGE('',*,*,#152,.T.);
#196=ORIENTED_EDGE('',*,*,#153,.T.);
#197=ORIENTED_EDGE('',*,*,#152,.F.);
#198=ORIENTED_EDGE('',*,*,#148,.T.);
#199=ORIENTED_EDGE('',*,*,#149,.T.);
#200=ORIENTED_EDGE('',*,*,#154,.T.);
#201=ORIENTED_EDGE('',*,*,#145,.T.);
#202=ORIENTED_EDGE('',*,*,#154,.F.);
#203=ORIENTED_EDGE('',*,*,#155,.F.);
#204=ORIENTED_EDGE('',*,*,#156,.T.);
#205=ORIENTED_EDGE('',*,*,#138,.T.);
#206=ORIENTED_EDGE('',*,*,#156,.F.);
#207=ORIENTED_EDGE('',*,*,#140,.T.);
#208=ORIENTED_EDGE('',*,*,#151,.T.);
#209=ORIENTED_EDGE('',*,*,#137,.T.);
#210=ORIENTED_EDGE('',*,*,#147,.T.);
#211=ORIENTED_EDGE('',*,*,#144,.T.);
#212=ORIENTED_EDGE('',*,*,#153,.F.);
#213=ORIENTED_EDGE('',*,*,#142,.T.);
#214=ORIENTED_EDGE('',*,*,#155,.T.);
#215=TOROIDAL_SURFACE('',#264,11.5,2.5);
#216=TOROIDAL_SURFACE('',#268,11.5,2.5);
#217=TOROIDAL_SURFACE('',#280,9.72517606507011,0.1);
#218=TOROIDAL_SURFACE('',#283,9.72517606507011,0.1);
#219=STYLED_ITEM('',(#503),#222);
#220=STYLED_ITEM('',(#502),#52);
#221=STYLED_ITEM('',(#504),#53);
#222=ADVANCED_FACE('',(#54),#215,.T.);
#223=ADVANCED_FACE('',(#55),#216,.F.);
#224=ADVANCED_FACE('',(#56),#44,.T.);
#225=ADVANCED_FACE('',(#57),#45,.T.);
#226=ADVANCED_FACE('',(#58),#217,.T.);
#227=ADVANCED_FACE('',(#59),#218,.T.);
#228=ADVANCED_FACE('',(#60),#46,.F.);
#229=ADVANCED_FACE('',(#61),#47,.F.);
#230=ADVANCED_FACE('',(#62),#27,.T.);
#231=ADVANCED_FACE('',(#63),#28,.F.);
#232=ADVANCED_FACE('',(#64),#29,.T.);
#233=ADVANCED_FACE('',(#65,#19),#23,.T.);
#234=ADVANCED_FACE('',(#66,#20),#24,.T.);
#235=ADVANCED_FACE('',(#67,#21),#25,.T.);
#236=ADVANCED_FACE('',(#68,#22),#26,.T.);
#237=CLOSED_SHELL('',(#222));
#238=CLOSED_SHELL('',(#223,#224,#225,#226,#227,#228,#229,#230,#231,#232,
#233,#234,#235,#236));
#239=DERIVED_UNIT_ELEMENT(#243,1.);
#240=DERIVED_UNIT_ELEMENT(#471,-3.);
#241=DERIVED_UNIT_ELEMENT(#243,1.);
#242=DERIVED_UNIT_ELEMENT(#471,-3.);
#243=(
MASS_UNIT()
NAMED_UNIT(*)
SI_UNIT(.KILO.,.GRAM.)
);
#244=DERIVED_UNIT((#239,#240));
#245=DERIVED_UNIT((#241,#242));
#246=MEASURE_REPRESENTATION_ITEM('density measure',
POSITIVE_RATIO_MEASURE(7850.),#244);
#247=MEASURE_REPRESENTATION_ITEM('density measure',
POSITIVE_RATIO_MEASURE(7850.),#245);
#248=PROPERTY_DEFINITION_REPRESENTATION(#258,#252);
#249=PROPERTY_DEFINITION_REPRESENTATION(#259,#253);
#250=PROPERTY_DEFINITION_REPRESENTATION(#260,#254);
#251=PROPERTY_DEFINITION_REPRESENTATION(#261,#255);
#252=REPRESENTATION('material name',(#256),#467);
#253=REPRESENTATION('density',(#246),#467);
#254=REPRESENTATION('material name',(#257),#468);
#255=REPRESENTATION('density',(#247),#468);
#256=DESCRIPTIVE_REPRESENTATION_ITEM('Steel','Steel');
#257=DESCRIPTIVE_REPRESENTATION_ITEM('Steel','Steel');
#258=PROPERTY_DEFINITION('material property','material name',#487);
#259=PROPERTY_DEFINITION('material property','density of part',#487);
#260=PROPERTY_DEFINITION('material property','material name',#488);
#261=PROPERTY_DEFINITION('material property','density of part',#488);
#262=AXIS2_PLACEMENT_3D('',#395,#304,#305);
#263=AXIS2_PLACEMENT_3D('',#396,#306,#307);
#264=AXIS2_PLACEMENT_3D('',#397,#308,#309);
#265=AXIS2_PLACEMENT_3D('',#399,#310,#311);
#266=AXIS2_PLACEMENT_3D('',#400,#312,#313);
#267=AXIS2_PLACEMENT_3D('',#401,#314,#315);
#268=AXIS2_PLACEMENT_3D('',#402,#316,#317);
#269=AXIS2_PLACEMENT_3D('',#405,#318,#319);
#270=AXIS2_PLACEMENT_3D('',#406,#320,#321);
#271=AXIS2_PLACEMENT_3D('',#408,#322,#323);
#272=AXIS2_PLACEMENT_3D('',#409,#324,#325);
#273=AXIS2_PLACEMENT_3D('',#410,#326,#327);
#274=AXIS2_PLACEMENT_3D('',#413,#328,#329);
#275=AXIS2_PLACEMENT_3D('',#414,#330,#331);
#276=AXIS2_PLACEMENT_3D('',#417,#333,#334);
#277=AXIS2_PLACEMENT_3D('',#418,#335,#336);
#278=AXIS2_PLACEMENT_3D('',#420,#337,#338);
#279=AXIS2_PLACEMENT_3D('',#423,#340,#341);
#280=AXIS2_PLACEMENT_3D('',#424,#342,#343);
#281=AXIS2_PLACEMENT_3D('',#426,#344,#345);
#282=AXIS2_PLACEMENT_3D('',#427,#346,#347);
#283=AXIS2_PLACEMENT_3D('',#428,#348,#349);
#284=AXIS2_PLACEMENT_3D('',#430,#350,#351);
#285=AXIS2_PLACEMENT_3D('',#431,#352,#353);
#286=AXIS2_PLACEMENT_3D('',#432,#354,#355);
#287=AXIS2_PLACEMENT_3D('',#434,#356,#357);
#288=AXIS2_PLACEMENT_3D('',#437,#359,#360);
#289=AXIS2_PLACEMENT_3D('',#438,#361,#362);
#290=AXIS2_PLACEMENT_3D('',#441,#363,#364);
#291=AXIS2_PLACEMENT_3D('',#442,#365,#366);
#292=AXIS2_PLACEMENT_3D('',#445,#368,#369);
#293=AXIS2_PLACEMENT_3D('',#446,#370,#371);
#294=AXIS2_PLACEMENT_3D('',#449,#373,#374);
#295=AXIS2_PLACEMENT_3D('',#450,#375,#376);
#296=AXIS2_PLACEMENT_3D('',#452,#378,#379);
#297=AXIS2_PLACEMENT_3D('',#454,#380,#381);
#298=AXIS2_PLACEMENT_3D('',#456,#383,#384);
#299=AXIS2_PLACEMENT_3D('',#457,#385,#386);
#300=AXIS2_PLACEMENT_3D('',#458,#387,#388);
#301=AXIS2_PLACEMENT_3D('',#459,#389,#390);
#302=AXIS2_PLACEMENT_3D('',#460,#391,#392);
#303=AXIS2_PLACEMENT_3D('',#461,#393,#394);
#304=DIRECTION('axis',(0.,0.,1.));
#305=DIRECTION('refdir',(1.,0.,0.));
#306=DIRECTION('axis',(0.,0.,1.));
#307=DIRECTION('refdir',(1.,0.,0.));
#308=DIRECTION('center_axis',(0.,1.,0.));
#309=DIRECTION('ref_axis',(0.,0.,1.));
#310=DIRECTION('center_axis',(-1.,0.,1.22464679914735E-16));
#311=DIRECTION('ref_axis',(-1.22464679914735E-16,0.,-1.));
#312=DIRECTION('center_axis',(0.,-1.,0.));
#313=DIRECTION('ref_axis',(0.,0.,1.));
#314=DIRECTION('axis',(0.,0.,1.));
#315=DIRECTION('refdir',(1.,0.,0.));
#316=DIRECTION('center_axis',(-9.63583962632714E-17,1.,0.));
#317=DIRECTION('ref_axis',(-1.,-9.63583962632714E-17,0.));
#318=DIRECTION('center_axis',(9.63583962632714E-17,-1.,0.));
#319=DIRECTION('ref_axis',(1.,9.63583962632714E-17,0.));
#320=DIRECTION('center_axis',(9.63583962632714E-17,-1.,0.));
#321=DIRECTION('ref_axis',(1.,9.63583962632714E-17,0.));
#322=DIRECTION('center_axis',(1.22464679914735E-16,1.18005001554788E-32,
1.));
#323=DIRECTION('ref_axis',(1.,9.63583962632715E-17,-1.22464679914735E-16));
#324=DIRECTION('center_axis',(-9.63583962632714E-17,1.,0.));
#325=DIRECTION('ref_axis',(-1.,-9.63583962632714E-17,0.));
#326=DIRECTION('center_axis',(9.63583962632714E-17,-1.,0.));
#327=DIRECTION('ref_axis',(1.,9.63583962632715E-17,0.));
#328=DIRECTION('center_axis',(9.63583962632714E-17,-1.,0.));
#329=DIRECTION('ref_axis',(-1.,-9.63583962632714E-17,0.));
#330=DIRECTION('center_axis',(9.63583962632714E-17,-1.,0.));
#331=DIRECTION('ref_axis',(-1.,-9.63583962632714E-17,0.));
#332=DIRECTION('',(0.70710678118656,0.707106781186535,8.65956056235508E-17));
#333=DIRECTION('center_axis',(-9.63583962632714E-17,1.,0.));
#334=DIRECTION('ref_axis',(-1.,-9.63583962632715E-17,0.));
#335=DIRECTION('center_axis',(-9.63583962632724E-17,1.,0.));
#336=DIRECTION('ref_axis',(-1.,-9.63583962632724E-17,0.));
#337=DIRECTION('center_axis',(-9.63583962632724E-17,1.,0.));
#338=DIRECTION('ref_axis',(1.,9.63583962632724E-17,0.));
#339=DIRECTION('',(-0.70710678118656,-0.707106781186535,8.65956056235508E-17));
#340=DIRECTION('center_axis',(9.63583962632714E-17,-1.,0.));
#341=DIRECTION('ref_axis',(1.,9.63583962632714E-17,0.));
#342=DIRECTION('center_axis',(-9.63583962632714E-17,1.,0.));
#343=DIRECTION('ref_axis',(-1.,-9.03982192092949E-17,0.));
#344=DIRECTION('center_axis',(-1.22464679914735E-16,-1.18005001554788E-32,
-1.));
#345=DIRECTION('ref_axis',(1.,8.47483305087139E-17,-1.22464679914735E-16));
#346=DIRECTION('center_axis',(9.63583962632714E-17,-1.,0.));
#347=DIRECTION('ref_axis',(1.,9.63583962632714E-17,0.));
#348=DIRECTION('center_axis',(9.63583962632714E-17,-1.,0.));
#349=DIRECTION('ref_axis',(1.,9.03982192092949E-17,0.));
#350=DIRECTION('center_axis',(1.22464679914735E-16,1.18005001554788E-32,
-1.));
#351=DIRECTION('ref_axis',(-1.,-8.47483305087139E-17,-1.22464679914735E-16));
#352=DIRECTION('center_axis',(-9.63583962632714E-17,1.,0.));
#353=DIRECTION('ref_axis',(-1.,-9.63583962632714E-17,0.));
#354=DIRECTION('center_axis',(-9.63583962632714E-17,1.,0.));
#355=DIRECTION('ref_axis',(-1.,-9.63583962632714E-17,0.));
#356=DIRECTION('center_axis',(-9.63583962632714E-17,1.,0.));
#357=DIRECTION('ref_axis',(-1.,-9.63583962632714E-17,0.));
#358=DIRECTION('',(0.707106781186541,0.707106781186554,-8.65956056235486E-17));
#359=DIRECTION('center_axis',(9.63583962632714E-17,-1.,0.));
#360=DIRECTION('ref_axis',(-1.,-9.63583962632715E-17,0.));
#361=DIRECTION('center_axis',(9.63583962632723E-17,-1.,0.));
#362=DIRECTION('ref_axis',(1.,9.63583962632723E-17,0.));
#363=DIRECTION('center_axis',(9.63583962632723E-17,-1.,0.));
#364=DIRECTION('ref_axis',(1.,9.63583962632723E-17,0.));
#365=DIRECTION('center_axis',(9.63583962632723E-17,-1.,0.));
#366=DIRECTION('ref_axis',(1.,9.63583962632723E-17,0.));
#367=DIRECTION('',(-0.70710678118656,-0.707106781186535,-8.65956056235508E-17));
#368=DIRECTION('center_axis',(-9.63583962632714E-17,1.,0.));
#369=DIRECTION('ref_axis',(1.,9.63583962632715E-17,0.));
#370=DIRECTION('center_axis',(-9.63583962632714E-17,1.,0.));
#371=DIRECTION('ref_axis',(-1.,-9.63583962632714E-17,0.));
#372=DIRECTION('',(9.63583962632715E-17,-1.,0.));
#373=DIRECTION('center_axis',(-9.63583962632714E-17,1.,0.));
#374=DIRECTION('ref_axis',(-1.,-9.63583962632714E-17,0.));
#375=DIRECTION('center_axis',(-9.63583962632714E-17,1.,0.));
#376=DIRECTION('ref_axis',(-1.,-9.63583962632714E-17,0.));
#377=DIRECTION('',(-9.63583962632714E-17,1.,0.));
#378=DIRECTION('center_axis',(-9.63583962632714E-17,1.,0.));
#379=DIRECTION('ref_axis',(-1.,-9.63583962632714E-17,0.));
#380=DIRECTION('center_axis',(-9.63583962632714E-17,1.,0.));
#381=DIRECTION('ref_axis',(-1.,-9.63583962632714E-17,0.));
#382=DIRECTION('',(9.63583962632715E-17,-1.,0.));
#383=DIRECTION('center_axis',(9.63583962632714E-17,-1.,0.));
#384=DIRECTION('ref_axis',(1.,9.63583962632714E-17,0.));
#385=DIRECTION('center_axis',(-9.63583962632714E-17,1.,0.));
#386=DIRECTION('ref_axis',(-1.,-9.63583962632714E-17,0.));
#387=DIRECTION('center_axis',(-9.63583962632714E-17,1.,0.));
#388=DIRECTION('ref_axis',(-1.,-9.63583962632714E-17,0.));
#389=DIRECTION('center_axis',(9.63583962632714E-17,-1.,0.));
#390=DIRECTION('ref_axis',(1.,9.63583962632714E-17,0.));
#391=DIRECTION('',(0.,0.,1.));
#392=DIRECTION('',(1.,0.,0.));
#393=DIRECTION('',(0.,0.,1.));
#394=DIRECTION('',(1.,0.,0.));
#395=CARTESIAN_POINT('',(0.,0.,0.));
#396=CARTESIAN_POINT('',(0.,0.,0.));
#397=CARTESIAN_POINT('Origin',(0.,0.,0.));
#398=CARTESIAN_POINT('',(-1.10218211923262E-15,3.06161699786838E-16,-9.));
#399=CARTESIAN_POINT('Origin',(-1.40834381901946E-15,0.,-11.5));
#400=CARTESIAN_POINT('Origin',(0.,-3.06161699786838E-16,0.));
#401=CARTESIAN_POINT('',(0.,0.,0.));
#402=CARTESIAN_POINT('Origin',(0.,8.67361737988404E-16,0.));
#403=CARTESIAN_POINT('',(9.79343852410588,1.82692307692307,1.19935031411926E-15));
#404=CARTESIAN_POINT('',(-9.79343852410588,1.82692307692307,-1.19935031411927E-15));
#405=CARTESIAN_POINT('Origin',(-1.76039377788669E-16,1.82692307692307,0.));
#406=CARTESIAN_POINT('Origin',(-1.76039377788669E-16,1.82692307692307,0.));
#407=CARTESIAN_POINT('',(9.79343852410587,-1.82692307692308,-1.19935031411926E-15));
#408=CARTESIAN_POINT('Origin',(11.5,1.97548329501603E-15,-1.40834381901946E-15));
#409=CARTESIAN_POINT('Origin',(1.7603937778867E-16,-1.82692307692309,0.));
#410=CARTESIAN_POINT('Origin',(-1.06277602315103E-17,4.,0.));
#411=CARTESIAN_POINT('',(8.5,3.9,1.04094977927525E-15));
#412=CARTESIAN_POINT('',(-8.5,3.9,-1.04094977927525E-15));
#413=CARTESIAN_POINT('Origin',(-9.91920605183085E-19,3.9,0.));
#414=CARTESIAN_POINT('Origin',(-9.91920605183085E-19,3.9,0.));
#415=CARTESIAN_POINT('',(-8.4,4.,-1.02870331128378E-15));
#416=CARTESIAN_POINT('',(-8.4,4.,-1.02870331128378E-15));
#417=CARTESIAN_POINT('Origin',(-1.06277602315103E-17,4.,0.));
#418=CARTESIAN_POINT('Origin',(7.50603570248333E-16,-3.89999999999999,0.));
#419=CARTESIAN_POINT('',(8.5,-3.89999999999999,-1.04094977927525E-15));
#420=CARTESIAN_POINT('Origin',(7.50603570248333E-16,-3.89999999999999,0.));
#421=CARTESIAN_POINT('',(8.39999999999999,-4.,-1.02870331128378E-15));
#422=CARTESIAN_POINT('',(8.5,-3.89999999999999,-1.04094977927525E-15));
#423=CARTESIAN_POINT('Origin',(7.60239409874661E-16,-4.,0.));
#424=CARTESIAN_POINT('Origin',(1.83080952900216E-16,-1.9,0.));
#425=CARTESIAN_POINT('',(9.72517606507011,-2.,-1.19099057392326E-15));
#426=CARTESIAN_POINT('Origin',(9.72517606507011,-1.9,-1.19099057392326E-15));
#427=CARTESIAN_POINT('Origin',(1.92716792526543E-16,-2.,0.));
#428=CARTESIAN_POINT('Origin',(-1.83080952900216E-16,1.9,0.));
#429=CARTESIAN_POINT('',(-9.72517606507011,2.,-1.19099057392326E-15));
#430=CARTESIAN_POINT('Origin',(-9.72517606507011,1.9,-1.19099057392326E-15));
#431=CARTESIAN_POINT('Origin',(-1.92716792526543E-16,2.,0.));
#432=CARTESIAN_POINT('Origin',(-9.91920605183587E-19,3.90000000000001,0.));
#433=CARTESIAN_POINT('',(8.,3.90000000000001,-9.79717439317883E-16));
#434=CARTESIAN_POINT('Origin',(-9.91920605183582E-19,3.90000000000001,0.));
#435=CARTESIAN_POINT('',(8.09999999999999,4.,-9.91963907309356E-16));
#436=CARTESIAN_POINT('',(8.,3.90000000000001,-9.79717439317883E-16));
#437=CARTESIAN_POINT('Origin',(-1.06277602315103E-17,4.,0.));
#438=CARTESIAN_POINT('Origin',(7.60239409874661E-16,-4.,0.));
#439=CARTESIAN_POINT('',(8.,-3.90000000000001,9.79717439317883E-16));
#440=CARTESIAN_POINT('',(-8.,-3.90000000000001,-9.79717439317883E-16));
#441=CARTESIAN_POINT('Origin',(7.50603570248335E-16,-3.90000000000001,0.));
#442=CARTESIAN_POINT('Origin',(7.50603570248335E-16,-3.90000000000001,0.));
#443=CARTESIAN_POINT('',(-8.1,-4.,-9.91963907309356E-16));
#444=CARTESIAN_POINT('',(-8.09999999999999,-4.,-9.91963907309356E-16));
#445=CARTESIAN_POINT('Origin',(7.60239409874661E-16,-4.,0.));
#446=CARTESIAN_POINT('Origin',(-6.7762635780344E-18,3.96002946496792,0.));
#447=CARTESIAN_POINT('',(8.5,2.,-1.04094977927525E-15));
#448=CARTESIAN_POINT('',(8.5,3.96002946496792,-1.04094977927525E-15));
#449=CARTESIAN_POINT('Origin',(1.82089032295033E-16,2.,0.));
#450=CARTESIAN_POINT('Origin',(-6.7762635780344E-18,3.96002946496792,0.));
#451=CARTESIAN_POINT('',(8.,3.96002946496792,-9.79717439317883E-16));
#452=CARTESIAN_POINT('Origin',(-6.7762635780344E-18,3.96002946496792,0.));
#453=CARTESIAN_POINT('',(8.5,-2.,-1.04094977927525E-15));
#454=CARTESIAN_POINT('Origin',(5.67522617348118E-16,-2.,0.));
#455=CARTESIAN_POINT('',(8.5,3.96002946496792,-1.04094977927525E-15));
#456=CARTESIAN_POINT('Origin',(-8.5,-4.,0.));
#457=CARTESIAN_POINT('Origin',(-8.5,4.,0.));
#458=CARTESIAN_POINT('Origin',(-10.,2.,0.));
#459=CARTESIAN_POINT('Origin',(-8.5,-2.,0.));
#460=CARTESIAN_POINT('',(0.,0.,0.));
#461=CARTESIAN_POINT('',(0.,0.,0.));
#462=UNCERTAINTY_MEASURE_WITH_UNIT(LENGTH_MEASURE(0.01),#470,
'DISTANCE_ACCURACY_VALUE',
'Maximum model space distance between geometric entities at asserted c
onnectivities');
#463=UNCERTAINTY_MEASURE_WITH_UNIT(LENGTH_MEASURE(0.01),#470,
'DISTANCE_ACCURACY_VALUE',
'Maximum model space distance between geometric entities at asserted c
onnectivities');
#464=UNCERTAINTY_MEASURE_WITH_UNIT(LENGTH_MEASURE(0.01),#470,
'DISTANCE_ACCURACY_VALUE',
'Maximum model space distance between geometric entities at asserted c
onnectivities');
#465=UNCERTAINTY_MEASURE_WITH_UNIT(LENGTH_MEASURE(0.01),#470,
'DISTANCE_ACCURACY_VALUE',
'Maximum model space distance between geometric entities at asserted c
onnectivities');
#466=(
GEOMETRIC_REPRESENTATION_CONTEXT(3)
GLOBAL_UNCERTAINTY_ASSIGNED_CONTEXT((#462))
GLOBAL_UNIT_ASSIGNED_CONTEXT((#470,#472,#473))
REPRESENTATION_CONTEXT('','3D')
);
#467=(
GEOMETRIC_REPRESENTATION_CONTEXT(3)
GLOBAL_UNCERTAINTY_ASSIGNED_CONTEXT((#463))
GLOBAL_UNIT_ASSIGNED_CONTEXT((#470,#472,#473))
REPRESENTATION_CONTEXT('','3D')
);
#468=(
GEOMETRIC_REPRESENTATION_CONTEXT(3)
GLOBAL_UNCERTAINTY_ASSIGNED_CONTEXT((#464))
GLOBAL_UNIT_ASSIGNED_CONTEXT((#470,#472,#473))
REPRESENTATION_CONTEXT('','3D')
);
#469=(
GEOMETRIC_REPRESENTATION_CONTEXT(3)
GLOBAL_UNCERTAINTY_ASSIGNED_CONTEXT((#465))
GLOBAL_UNIT_ASSIGNED_CONTEXT((#470,#472,#473))
REPRESENTATION_CONTEXT('','3D')
);
#470=(
LENGTH_UNIT()
NAMED_UNIT(*)
SI_UNIT(.MILLI.,.METRE.)
);
#471=(
LENGTH_UNIT()
NAMED_UNIT(*)
SI_UNIT($,.METRE.)
);
#472=(
NAMED_UNIT(*)
PLANE_ANGLE_UNIT()
SI_UNIT($,.RADIAN.)
);
#473=(
NAMED_UNIT(*)
SI_UNIT($,.STERADIAN.)
SOLID_ANGLE_UNIT()
);
#474=SHAPE_DEFINITION_REPRESENTATION(#477,#482);
#475=SHAPE_DEFINITION_REPRESENTATION(#478,#483);
#476=SHAPE_DEFINITION_REPRESENTATION(#479,#484);
#477=PRODUCT_DEFINITION_SHAPE('',$,#486);
#478=PRODUCT_DEFINITION_SHAPE('',$,#487);
#479=PRODUCT_DEFINITION_SHAPE('',$,#488);
#480=PRODUCT_DEFINITION_SHAPE($,$,#17);
#481=PRODUCT_DEFINITION_SHAPE($,$,#18);
#482=SHAPE_REPRESENTATION('',(#262,#302,#303),#466);
#483=SHAPE_REPRESENTATION('',(#263),#467);
#484=SHAPE_REPRESENTATION('',(#267),#468);
#485=PRODUCT_DEFINITION_CONTEXT('part definition',#496,'design');
#486=PRODUCT_DEFINITION('Hositrad_KF16-R','Hositrad_KF16-R v2',#489,#485);
#487=PRODUCT_DEFINITION('KF-Oring-All_KF16','KF-Oring-All_KF16',#490,#485);
#488=PRODUCT_DEFINITION('KF-Ring-All_KF16','KF-Ring-All_KF16',#491,#485);
#489=PRODUCT_DEFINITION_FORMATION('',$,#498);
#490=PRODUCT_DEFINITION_FORMATION('',$,#499);
#491=PRODUCT_DEFINITION_FORMATION('',$,#500);
#492=PRODUCT_RELATED_PRODUCT_CATEGORY('Hositrad_KF16-R v2',
'Hositrad_KF16-R v2',(#498));
#493=PRODUCT_RELATED_PRODUCT_CATEGORY('KF-Oring-All_KF16',
'KF-Oring-All_KF16',(#499));
#494=PRODUCT_RELATED_PRODUCT_CATEGORY('KF-Ring-All_KF16',
'KF-Ring-All_KF16',(#500));
#495=APPLICATION_PROTOCOL_DEFINITION('international standard',
'automotive_design',2009,#496);
#496=APPLICATION_CONTEXT(
'Core Data for Automotive Mechanical Design Process');
#497=PRODUCT_CONTEXT('part definition',#496,'mechanical');
#498=PRODUCT('Hositrad_KF16-R','Hositrad_KF16-R v2',$,(#497));
#499=PRODUCT('KF-Oring-All_KF16','KF-Oring-All_KF16',$,(#497));
#500=PRODUCT('KF-Ring-All_KF16','KF-Ring-All_KF16',$,(#497));
#501=PRESENTATION_STYLE_ASSIGNMENT((#505));
#502=PRESENTATION_STYLE_ASSIGNMENT((#506));
#503=PRESENTATION_STYLE_ASSIGNMENT((#507));
#504=PRESENTATION_STYLE_ASSIGNMENT((#508));
#505=SURFACE_STYLE_USAGE(.BOTH.,#509);
#506=SURFACE_STYLE_USAGE(.BOTH.,#510);
#507=SURFACE_STYLE_USAGE(.BOTH.,#511);
#508=SURFACE_STYLE_USAGE(.BOTH.,#512);
#509=SURFACE_SIDE_STYLE('',(#513));
#510=SURFACE_SIDE_STYLE('',(#514));
#511=SURFACE_SIDE_STYLE('',(#515));
#512=SURFACE_SIDE_STYLE('',(#516));
#513=SURFACE_STYLE_FILL_AREA(#517);
#514=SURFACE_STYLE_FILL_AREA(#518);
#515=SURFACE_STYLE_FILL_AREA(#519);
#516=SURFACE_STYLE_FILL_AREA(#520);
#517=FILL_AREA_STYLE('Steel - Satin',(#521));
#518=FILL_AREA_STYLE('Opaque(63,63,63)',(#522));
#519=FILL_AREA_STYLE('Opaque(64,64,64)',(#523));
#520=FILL_AREA_STYLE('Opaque(165,158,150)',(#524));
#521=FILL_AREA_STYLE_COLOUR('Steel - Satin',#525);
#522=FILL_AREA_STYLE_COLOUR('Opaque(63,63,63)',#526);
#523=FILL_AREA_STYLE_COLOUR('Opaque(64,64,64)',#527);
#524=FILL_AREA_STYLE_COLOUR('Opaque(165,158,150)',#528);
#525=COLOUR_RGB('Steel - Satin',0.627450980392157,0.627450980392157,0.627450980392157);
#526=COLOUR_RGB('Opaque(63,63,63)',0.250980392156863,0.250980392156863,
0.250980392156863);
#527=COLOUR_RGB('Opaque(64,64,64)',0.250980392156863,0.250980392156863,
0.250980392156863);
#528=COLOUR_RGB('Opaque(165,158,150)',0.647058823529412,0.619607843137255,
0.588235294117647);
ENDSEC;
END-ISO-10303-21;
