ISO-10303-21;
HEADER;
/* Generated by software containing ST-Developer
 * from STEP Tools, Inc. (www.steptools.com) 
 */

FILE_DESCRIPTION(
/* description */ (''),
/* implementation_level */ '2;1');

FILE_NAME(
/* name */ 'Hositrad_KO40-42 v1.step',
/* time_stamp */ '2024-06-25T14:38:34+02:00',
/* author */ (''),
/* organization */ (''),
/* preprocessor_version */ 'ST-DEVELOPER v20',
/* originating_system */ 'Autodesk Translation Framework v13.14.0.145',

/* authorisation */ '');

FILE_SCHEMA (('AUTOMOTIVE_DESIGN { 1 0 10303 214 3 1 1 }'));
ENDSEC;

DATA;
#10=MECHANICAL_DESIGN_GEOMETRIC_PRESENTATION_REPRESENTATION('',(#27,#28),
#460);
#11=ITEM_DEFINED_TRANSFORMATION($,$,#262,#298);
#12=ITEM_DEFINED_TRANSFORMATION($,$,#271,#299);
#13=(
REPRESENTATION_RELATIONSHIP($,$,#474,#473)
REPRESENTATION_RELATIONSHIP_WITH_TRANSFORMATION(#11)
SHAPE_REPRESENTATION_RELATIONSHIP()
);
#14=(
REPRESENTATION_RELATIONSHIP($,$,#475,#473)
REPRESENTATION_RELATIONSHIP_WITH_TRANSFORMATION(#12)
SHAPE_REPRESENTATION_RELATIONSHIP()
);
#15=CONTEXT_DEPENDENT_SHAPE_REPRESENTATION(#13,#471);
#16=CONTEXT_DEPENDENT_SHAPE_REPRESENTATION(#14,#472);
#17=NEXT_ASSEMBLY_USAGE_OCCURRENCE('Tube-KF40-All_D42-L61,5:1',
'Tube-KF40-All_D42-L61,5:1','Tube-KF40-All_D42-L61,5:1',#477,#478,
'Tube-KF40-All_D42-L61,5:1');
#18=NEXT_ASSEMBLY_USAGE_OCCURRENCE('KF40-42:1','KF40-42:1','KF40-42:1',
#477,#479,'KF40-42:1');
#19=TOROIDAL_SURFACE('',#286,26.,1.5);
#20=CONICAL_SURFACE('',#272,20.95,0.785398163397454);
#21=CONICAL_SURFACE('',#283,27.5,0.785398163397469);
#22=CONICAL_SURFACE('',#291,19.7373343202567,1.30899693899575);
#23=SHAPE_REPRESENTATION_RELATIONSHIP('SRR','None',#474,#25);
#24=SHAPE_REPRESENTATION_RELATIONSHIP('SRR','None',#475,#26);
#25=ADVANCED_BREP_SHAPE_REPRESENTATION('',(#29),#458);
#26=ADVANCED_BREP_SHAPE_REPRESENTATION('',(#30),#459);
#27=STYLED_ITEM('',(#493),#29);
#28=STYLED_ITEM('',(#493),#30);
#29=MANIFOLD_SOLID_BREP('Body1',#236);
#30=MANIFOLD_SOLID_BREP('Body1',#237);
#31=FACE_BOUND('',#59,.T.);
#32=FACE_BOUND('',#61,.T.);
#33=FACE_BOUND('',#71,.T.);
#34=FACE_BOUND('',#73,.T.);
#35=FACE_BOUND('',#75,.T.);
#36=PLANE('',#269);
#37=PLANE('',#270);
#38=PLANE('',#295);
#39=PLANE('',#296);
#40=PLANE('',#297);
#41=FACE_OUTER_BOUND('',#56,.T.);
#42=FACE_OUTER_BOUND('',#57,.T.);
#43=FACE_OUTER_BOUND('',#58,.T.);
#44=FACE_OUTER_BOUND('',#60,.T.);
#45=FACE_OUTER_BOUND('',#62,.T.);
#46=FACE_OUTER_BOUND('',#63,.T.);
#47=FACE_OUTER_BOUND('',#64,.T.);
#48=FACE_OUTER_BOUND('',#65,.T.);
#49=FACE_OUTER_BOUND('',#66,.T.);
#50=FACE_OUTER_BOUND('',#67,.T.);
#51=FACE_OUTER_BOUND('',#68,.T.);
#52=FACE_OUTER_BOUND('',#69,.T.);
#53=FACE_OUTER_BOUND('',#70,.T.);
#54=FACE_OUTER_BOUND('',#72,.T.);
#55=FACE_OUTER_BOUND('',#74,.T.);
#56=EDGE_LOOP('',(#159,#160,#161,#162));
#57=EDGE_LOOP('',(#163,#164,#165,#166));
#58=EDGE_LOOP('',(#167));
#59=EDGE_LOOP('',(#168));
#60=EDGE_LOOP('',(#169));
#61=EDGE_LOOP('',(#170));
#62=EDGE_LOOP('',(#171,#172,#173,#174,#175));
#63=EDGE_LOOP('',(#176,#177,#178,#179));
#64=EDGE_LOOP('',(#180,#181,#182,#183,#184));
#65=EDGE_LOOP('',(#185,#186,#187,#188));
#66=EDGE_LOOP('',(#189,#190,#191,#192,#193));
#67=EDGE_LOOP('',(#194,#195,#196,#197,#198));
#68=EDGE_LOOP('',(#199,#200,#201,#202,#203));
#69=EDGE_LOOP('',(#204,#205,#206,#207,#208));
#70=EDGE_LOOP('',(#209));
#71=EDGE_LOOP('',(#210));
#72=EDGE_LOOP('',(#211));
#73=EDGE_LOOP('',(#212));
#74=EDGE_LOOP('',(#213));
#75=EDGE_LOOP('',(#214));
#76=LINE('',#393,#85);
#77=LINE('',#399,#86);
#78=LINE('',#410,#87);
#79=LINE('',#416,#88);
#80=LINE('',#422,#89);
#81=LINE('',#430,#90);
#82=LINE('',#441,#91);
#83=LINE('',#443,#92);
#84=LINE('',#446,#93);
#85=VECTOR('',#308,19.2);
#86=VECTOR('',#315,21.2);
#87=VECTOR('',#330,20.95);
#88=VECTOR('',#337,19.6);
#89=VECTOR('',#344,21.3);
#90=VECTOR('',#353,27.5);
#91=VECTOR('',#368,19.7373343202567);
#92=VECTOR('',#371,27.5);
#93=VECTOR('',#374,20.65);
#94=CIRCLE('',#264,19.2);
#95=CIRCLE('',#265,19.2);
#96=CIRCLE('',#267,21.2);
#97=CIRCLE('',#268,21.2);
#98=CIRCLE('',#273,20.65);
#99=CIRCLE('',#274,20.65);
#100=CIRCLE('',#275,20.95);
#101=CIRCLE('',#277,19.6);
#102=CIRCLE('',#278,19.6);
#103=CIRCLE('',#280,21.3);
#104=CIRCLE('',#281,21.3);
#105=CIRCLE('',#282,21.3);
#106=CIRCLE('',#284,27.5);
#107=CIRCLE('',#285,27.25);
#108=CIRCLE('',#287,27.5);
#109=CIRCLE('',#288,27.5);
#110=CIRCLE('',#289,1.5);
#111=CIRCLE('',#290,26.3882285676538);
#112=CIRCLE('',#294,20.65);
#113=VERTEX_POINT('',#390);
#114=VERTEX_POINT('',#392);
#115=VERTEX_POINT('',#396);
#116=VERTEX_POINT('',#398);
#117=VERTEX_POINT('',#405);
#118=VERTEX_POINT('',#406);
#119=VERTEX_POINT('',#409);
#120=VERTEX_POINT('',#413);
#121=VERTEX_POINT('',#415);
#122=VERTEX_POINT('',#419);
#123=VERTEX_POINT('',#421);
#124=VERTEX_POINT('',#423);
#125=VERTEX_POINT('',#427);
#126=VERTEX_POINT('',#429);
#127=VERTEX_POINT('',#433);
#128=VERTEX_POINT('',#434);
#129=VERTEX_POINT('',#437);
#130=VERTEX_POINT('',#445);
#131=EDGE_CURVE('',#113,#113,#94,.T.);
#132=EDGE_CURVE('',#113,#114,#76,.T.);
#133=EDGE_CURVE('',#114,#114,#95,.T.);
#134=EDGE_CURVE('',#115,#115,#96,.T.);
#135=EDGE_CURVE('',#115,#116,#77,.T.);
#136=EDGE_CURVE('',#116,#116,#97,.T.);
#137=EDGE_CURVE('',#117,#118,#98,.T.);
#138=EDGE_CURVE('',#118,#117,#99,.T.);
#139=EDGE_CURVE('',#118,#119,#78,.T.);
#140=EDGE_CURVE('',#119,#119,#100,.T.);
#141=EDGE_CURVE('',#120,#120,#101,.T.);
#142=EDGE_CURVE('',#120,#121,#79,.T.);
#143=EDGE_CURVE('',#121,#121,#102,.T.);
#144=EDGE_CURVE('',#122,#122,#103,.T.);
#145=EDGE_CURVE('',#122,#123,#80,.T.);
#146=EDGE_CURVE('',#123,#124,#104,.T.);
#147=EDGE_CURVE('',#124,#123,#105,.T.);
#148=EDGE_CURVE('',#125,#125,#106,.T.);
#149=EDGE_CURVE('',#125,#126,#81,.T.);
#150=EDGE_CURVE('',#126,#126,#107,.T.);
#151=EDGE_CURVE('',#127,#128,#108,.T.);
#152=EDGE_CURVE('',#128,#127,#109,.T.);
#153=EDGE_CURVE('',#128,#129,#110,.T.);
#154=EDGE_CURVE('',#129,#129,#111,.T.);
#155=EDGE_CURVE('',#129,#124,#82,.T.);
#156=EDGE_CURVE('',#127,#125,#83,.T.);
#157=EDGE_CURVE('',#117,#130,#84,.T.);
#158=EDGE_CURVE('',#130,#130,#112,.T.);
#159=ORIENTED_EDGE('',*,*,#131,.T.);
#160=ORIENTED_EDGE('',*,*,#132,.T.);
#161=ORIENTED_EDGE('',*,*,#133,.F.);
#162=ORIENTED_EDGE('',*,*,#132,.F.);
#163=ORIENTED_EDGE('',*,*,#134,.T.);
#164=ORIENTED_EDGE('',*,*,#135,.T.);
#165=ORIENTED_EDGE('',*,*,#136,.F.);
#166=ORIENTED_EDGE('',*,*,#135,.F.);
#167=ORIENTED_EDGE('',*,*,#136,.T.);
#168=ORIENTED_EDGE('',*,*,#131,.F.);
#169=ORIENTED_EDGE('',*,*,#134,.F.);
#170=ORIENTED_EDGE('',*,*,#133,.T.);
#171=ORIENTED_EDGE('',*,*,#137,.F.);
#172=ORIENTED_EDGE('',*,*,#138,.F.);
#173=ORIENTED_EDGE('',*,*,#139,.T.);
#174=ORIENTED_EDGE('',*,*,#140,.F.);
#175=ORIENTED_EDGE('',*,*,#139,.F.);
#176=ORIENTED_EDGE('',*,*,#141,.T.);
#177=ORIENTED_EDGE('',*,*,#142,.T.);
#178=ORIENTED_EDGE('',*,*,#143,.T.);
#179=ORIENTED_EDGE('',*,*,#142,.F.);
#180=ORIENTED_EDGE('',*,*,#144,.F.);
#181=ORIENTED_EDGE('',*,*,#145,.T.);
#182=ORIENTED_EDGE('',*,*,#146,.T.);
#183=ORIENTED_EDGE('',*,*,#147,.T.);
#184=ORIENTED_EDGE('',*,*,#145,.F.);
#185=ORIENTED_EDGE('',*,*,#148,.F.);
#186=ORIENTED_EDGE('',*,*,#149,.T.);
#187=ORIENTED_EDGE('',*,*,#150,.F.);
#188=ORIENTED_EDGE('',*,*,#149,.F.);
#189=ORIENTED_EDGE('',*,*,#151,.F.);
#190=ORIENTED_EDGE('',*,*,#152,.F.);
#191=ORIENTED_EDGE('',*,*,#153,.T.);
#192=ORIENTED_EDGE('',*,*,#154,.F.);
#193=ORIENTED_EDGE('',*,*,#153,.F.);
#194=ORIENTED_EDGE('',*,*,#154,.T.);
#195=ORIENTED_EDGE('',*,*,#155,.T.);
#196=ORIENTED_EDGE('',*,*,#146,.F.);
#197=ORIENTED_EDGE('',*,*,#147,.F.);
#198=ORIENTED_EDGE('',*,*,#155,.F.);
#199=ORIENTED_EDGE('',*,*,#151,.T.);
#200=ORIENTED_EDGE('',*,*,#152,.T.);
#201=ORIENTED_EDGE('',*,*,#156,.T.);
#202=ORIENTED_EDGE('',*,*,#148,.T.);
#203=ORIENTED_EDGE('',*,*,#156,.F.);
#204=ORIENTED_EDGE('',*,*,#137,.T.);
#205=ORIENTED_EDGE('',*,*,#138,.T.);
#206=ORIENTED_EDGE('',*,*,#157,.T.);
#207=ORIENTED_EDGE('',*,*,#158,.T.);
#208=ORIENTED_EDGE('',*,*,#157,.F.);
#209=ORIENTED_EDGE('',*,*,#158,.F.);
#210=ORIENTED_EDGE('',*,*,#141,.F.);
#211=ORIENTED_EDGE('',*,*,#150,.T.);
#212=ORIENTED_EDGE('',*,*,#140,.T.);
#213=ORIENTED_EDGE('',*,*,#144,.T.);
#214=ORIENTED_EDGE('',*,*,#143,.F.);
#215=CYLINDRICAL_SURFACE('',#263,19.2);
#216=CYLINDRICAL_SURFACE('',#266,21.2);
#217=CYLINDRICAL_SURFACE('',#276,19.6);
#218=CYLINDRICAL_SURFACE('',#279,21.3);
#219=CYLINDRICAL_SURFACE('',#292,27.5);
#220=CYLINDRICAL_SURFACE('',#293,20.65);
#221=ADVANCED_FACE('',(#41),#215,.F.);
#222=ADVANCED_FACE('',(#42),#216,.T.);
#223=ADVANCED_FACE('',(#43,#31),#36,.T.);
#224=ADVANCED_FACE('',(#44,#32),#37,.F.);
#225=ADVANCED_FACE('',(#45),#20,.F.);
#226=ADVANCED_FACE('',(#46),#217,.F.);
#227=ADVANCED_FACE('',(#47),#218,.F.);
#228=ADVANCED_FACE('',(#48),#21,.T.);
#229=ADVANCED_FACE('',(#49),#19,.T.);
#230=ADVANCED_FACE('',(#50),#22,.T.);
#231=ADVANCED_FACE('',(#51),#219,.T.);
#232=ADVANCED_FACE('',(#52),#220,.F.);
#233=ADVANCED_FACE('',(#53,#33),#38,.T.);
#234=ADVANCED_FACE('',(#54,#34),#39,.T.);
#235=ADVANCED_FACE('',(#55,#35),#40,.T.);
#236=CLOSED_SHELL('',(#221,#222,#223,#224));
#237=CLOSED_SHELL('',(#225,#226,#227,#228,#229,#230,#231,#232,#233,#234,
#235));
#238=DERIVED_UNIT_ELEMENT(#242,1.);
#239=DERIVED_UNIT_ELEMENT(#462,-3.);
#240=DERIVED_UNIT_ELEMENT(#242,1.);
#241=DERIVED_UNIT_ELEMENT(#462,-3.);
#242=(
MASS_UNIT()
NAMED_UNIT(*)
SI_UNIT(.KILO.,.GRAM.)
);
#243=DERIVED_UNIT((#238,#239));
#244=DERIVED_UNIT((#240,#241));
#245=MEASURE_REPRESENTATION_ITEM('density measure',
POSITIVE_RATIO_MEASURE(7850.),#243);
#246=MEASURE_REPRESENTATION_ITEM('density measure',
POSITIVE_RATIO_MEASURE(7850.),#244);
#247=PROPERTY_DEFINITION_REPRESENTATION(#257,#251);
#248=PROPERTY_DEFINITION_REPRESENTATION(#258,#252);
#249=PROPERTY_DEFINITION_REPRESENTATION(#259,#253);
#250=PROPERTY_DEFINITION_REPRESENTATION(#260,#254);
#251=REPRESENTATION('material name',(#255),#458);
#252=REPRESENTATION('density',(#245),#458);
#253=REPRESENTATION('material name',(#256),#459);
#254=REPRESENTATION('density',(#246),#459);
#255=DESCRIPTIVE_REPRESENTATION_ITEM('Steel','Steel');
#256=DESCRIPTIVE_REPRESENTATION_ITEM('Steel','Steel');
#257=PROPERTY_DEFINITION('material property','material name',#478);
#258=PROPERTY_DEFINITION('material property','density of part',#478);
#259=PROPERTY_DEFINITION('material property','material name',#479);
#260=PROPERTY_DEFINITION('material property','density of part',#479);
#261=AXIS2_PLACEMENT_3D('',#387,#300,#301);
#262=AXIS2_PLACEMENT_3D('',#388,#302,#303);
#263=AXIS2_PLACEMENT_3D('',#389,#304,#305);
#264=AXIS2_PLACEMENT_3D('',#391,#306,#307);
#265=AXIS2_PLACEMENT_3D('',#394,#309,#310);
#266=AXIS2_PLACEMENT_3D('',#395,#311,#312);
#267=AXIS2_PLACEMENT_3D('',#397,#313,#314);
#268=AXIS2_PLACEMENT_3D('',#400,#316,#317);
#269=AXIS2_PLACEMENT_3D('',#401,#318,#319);
#270=AXIS2_PLACEMENT_3D('',#402,#320,#321);
#271=AXIS2_PLACEMENT_3D('',#403,#322,#323);
#272=AXIS2_PLACEMENT_3D('',#404,#324,#325);
#273=AXIS2_PLACEMENT_3D('',#407,#326,#327);
#274=AXIS2_PLACEMENT_3D('',#408,#328,#329);
#275=AXIS2_PLACEMENT_3D('',#411,#331,#332);
#276=AXIS2_PLACEMENT_3D('',#412,#333,#334);
#277=AXIS2_PLACEMENT_3D('',#414,#335,#336);
#278=AXIS2_PLACEMENT_3D('',#417,#338,#339);
#279=AXIS2_PLACEMENT_3D('',#418,#340,#341);
#280=AXIS2_PLACEMENT_3D('',#420,#342,#343);
#281=AXIS2_PLACEMENT_3D('',#424,#345,#346);
#282=AXIS2_PLACEMENT_3D('',#425,#347,#348);
#283=AXIS2_PLACEMENT_3D('',#426,#349,#350);
#284=AXIS2_PLACEMENT_3D('',#428,#351,#352);
#285=AXIS2_PLACEMENT_3D('',#431,#354,#355);
#286=AXIS2_PLACEMENT_3D('',#432,#356,#357);
#287=AXIS2_PLACEMENT_3D('',#435,#358,#359);
#288=AXIS2_PLACEMENT_3D('',#436,#360,#361);
#289=AXIS2_PLACEMENT_3D('',#438,#362,#363);
#290=AXIS2_PLACEMENT_3D('',#439,#364,#365);
#291=AXIS2_PLACEMENT_3D('',#440,#366,#367);
#292=AXIS2_PLACEMENT_3D('',#442,#369,#370);
#293=AXIS2_PLACEMENT_3D('',#444,#372,#373);
#294=AXIS2_PLACEMENT_3D('',#447,#375,#376);
#295=AXIS2_PLACEMENT_3D('',#448,#377,#378);
#296=AXIS2_PLACEMENT_3D('',#449,#379,#380);
#297=AXIS2_PLACEMENT_3D('',#450,#381,#382);
#298=AXIS2_PLACEMENT_3D('',#451,#383,#384);
#299=AXIS2_PLACEMENT_3D('',#452,#385,#386);
#300=DIRECTION('axis',(0.,0.,1.));
#301=DIRECTION('refdir',(1.,0.,0.));
#302=DIRECTION('axis',(0.,0.,1.));
#303=DIRECTION('refdir',(1.,0.,0.));
#304=DIRECTION('center_axis',(-1.,0.,0.));
#305=DIRECTION('ref_axis',(0.,0.,1.));
#306=DIRECTION('center_axis',(1.,0.,0.));
#307=DIRECTION('ref_axis',(0.,0.,-1.));
#308=DIRECTION('',(-1.,0.,0.));
#309=DIRECTION('center_axis',(1.,0.,0.));
#310=DIRECTION('ref_axis',(0.,0.,-1.));
#311=DIRECTION('center_axis',(-1.,0.,0.));
#312=DIRECTION('ref_axis',(0.,0.,1.));
#313=DIRECTION('center_axis',(1.,0.,0.));
#314=DIRECTION('ref_axis',(0.,0.,-1.));
#315=DIRECTION('',(1.,0.,0.));
#316=DIRECTION('center_axis',(1.,0.,0.));
#317=DIRECTION('ref_axis',(0.,0.,-1.));
#318=DIRECTION('center_axis',(1.,0.,0.));
#319=DIRECTION('ref_axis',(0.,0.,-1.));
#320=DIRECTION('center_axis',(1.,0.,0.));
#321=DIRECTION('ref_axis',(0.,0.,-1.));
#322=DIRECTION('axis',(0.,0.,1.));
#323=DIRECTION('refdir',(1.,0.,0.));
#324=DIRECTION('center_axis',(0.,-1.,0.));
#325=DIRECTION('ref_axis',(0.,0.,-1.));
#326=DIRECTION('center_axis',(0.,-1.,0.));
#327=DIRECTION('ref_axis',(0.,0.,-1.));
#328=DIRECTION('center_axis',(0.,-1.,0.));
#329=DIRECTION('ref_axis',(0.,0.,-1.));
#330=DIRECTION('',(-8.65956056235498E-17,-0.707106781186543,0.707106781186552));
#331=DIRECTION('center_axis',(0.,1.,0.));
#332=DIRECTION('ref_axis',(0.,0.,-1.));
#333=DIRECTION('center_axis',(0.,1.,0.));
#334=DIRECTION('ref_axis',(0.,0.,1.));
#335=DIRECTION('center_axis',(0.,-1.,0.));
#336=DIRECTION('ref_axis',(0.,0.,-1.));
#337=DIRECTION('',(0.,1.,0.));
#338=DIRECTION('center_axis',(0.,1.,0.));
#339=DIRECTION('ref_axis',(0.,0.,1.));
#340=DIRECTION('center_axis',(0.,1.,0.));
#341=DIRECTION('ref_axis',(0.,0.,1.));
#342=DIRECTION('center_axis',(0.,1.,0.));
#343=DIRECTION('ref_axis',(0.,0.,1.));
#344=DIRECTION('',(0.,1.,0.));
#345=DIRECTION('center_axis',(0.,1.,0.));
#346=DIRECTION('ref_axis',(0.,0.,-1.));
#347=DIRECTION('center_axis',(0.,1.,0.));
#348=DIRECTION('ref_axis',(0.,0.,-1.));
#349=DIRECTION('center_axis',(0.,1.,0.));
#350=DIRECTION('ref_axis',(0.,0.,1.));
#351=DIRECTION('center_axis',(0.,1.,0.));
#352=DIRECTION('ref_axis',(0.,0.,-1.));
#353=DIRECTION('',(8.65956056235511E-17,-0.707106781186533,0.707106781186562));
#354=DIRECTION('center_axis',(0.,-1.,0.));
#355=DIRECTION('ref_axis',(0.,0.,-1.));
#356=DIRECTION('center_axis',(0.,-1.,0.));
#357=DIRECTION('ref_axis',(0.,0.,-1.));
#358=DIRECTION('center_axis',(0.,-1.,0.));
#359=DIRECTION('ref_axis',(0.,0.,-1.));
#360=DIRECTION('center_axis',(0.,-1.,0.));
#361=DIRECTION('ref_axis',(0.,0.,-1.));
#362=DIRECTION('center_axis',(-1.,0.,-1.22464679914735E-16));
#363=DIRECTION('ref_axis',(-1.22464679914735E-16,0.,1.));
#364=DIRECTION('center_axis',(0.,1.,0.));
#365=DIRECTION('ref_axis',(0.,0.,1.));
#366=DIRECTION('center_axis',(0.,-1.,0.));
#367=DIRECTION('ref_axis',(0.,0.,-1.));
#368=DIRECTION('',(1.18291797137867E-16,0.258819045102522,-0.965925826289068));
#369=DIRECTION('center_axis',(0.,1.,0.));
#370=DIRECTION('ref_axis',(0.,0.,1.));
#371=DIRECTION('',(0.,-1.,0.));
#372=DIRECTION('center_axis',(0.,1.,0.));
#373=DIRECTION('ref_axis',(0.,0.,1.));
#374=DIRECTION('',(0.,1.,0.));
#375=DIRECTION('center_axis',(0.,1.,0.));
#376=DIRECTION('ref_axis',(0.,0.,1.));
#377=DIRECTION('center_axis',(0.,-1.,0.));
#378=DIRECTION('ref_axis',(0.,0.,-1.));
#379=DIRECTION('center_axis',(0.,-1.,0.));
#380=DIRECTION('ref_axis',(0.,0.,-1.));
#381=DIRECTION('center_axis',(0.,1.,0.));
#382=DIRECTION('ref_axis',(0.,0.,1.));
#383=DIRECTION('',(0.,0.,1.));
#384=DIRECTION('',(1.,0.,0.));
#385=DIRECTION('',(0.,0.,1.));
#386=DIRECTION('',(0.,1.,0.));
#387=CARTESIAN_POINT('',(0.,0.,0.));
#388=CARTESIAN_POINT('',(0.,0.,0.));
#389=CARTESIAN_POINT('Origin',(30.75,0.,0.));
#390=CARTESIAN_POINT('',(30.75,-2.35132185436292E-15,-19.2));
#391=CARTESIAN_POINT('Origin',(30.75,0.,0.));
#392=CARTESIAN_POINT('',(-30.75,-2.35132185436292E-15,-19.2));
#393=CARTESIAN_POINT('',(30.75,-2.35132185436292E-15,-19.2));
#394=CARTESIAN_POINT('Origin',(-30.75,0.,0.));
#395=CARTESIAN_POINT('Origin',(30.75,0.,0.));
#396=CARTESIAN_POINT('',(-30.75,-2.59625121419239E-15,-21.2));
#397=CARTESIAN_POINT('Origin',(-30.75,0.,0.));
#398=CARTESIAN_POINT('',(30.75,-2.59625121419239E-15,-21.2));
#399=CARTESIAN_POINT('',(30.75,-2.59625121419239E-15,-21.2));
#400=CARTESIAN_POINT('Origin',(30.75,0.,0.));
#401=CARTESIAN_POINT('Origin',(30.75,0.,0.));
#402=CARTESIAN_POINT('Origin',(-30.75,0.,0.));
#403=CARTESIAN_POINT('',(0.,0.,0.));
#404=CARTESIAN_POINT('Origin',(0.,0.,0.));
#405=CARTESIAN_POINT('',(2.52889564023928E-15,0.299999999999995,-20.65));
#406=CARTESIAN_POINT('',(-2.52889564023928E-15,0.299999999999996,20.65));
#407=CARTESIAN_POINT('Origin',(0.,0.299999999999995,0.));
#408=CARTESIAN_POINT('Origin',(0.,0.299999999999995,0.));
#409=CARTESIAN_POINT('',(-2.5656350442137E-15,-5.30665067506278E-15,20.95));
#410=CARTESIAN_POINT('',(-2.5656350442137E-15,0.,20.95));
#411=CARTESIAN_POINT('Origin',(0.,-2.94833716894725E-15,0.));
#412=CARTESIAN_POINT('Origin',(0.,-3.03576608295941E-15,0.));
#413=CARTESIAN_POINT('',(-2.40030772632881E-15,2.5,-19.6));
#414=CARTESIAN_POINT('Origin',(0.,2.5,0.));
#415=CARTESIAN_POINT('',(-2.40030772632881E-15,3.5,-19.6));
#416=CARTESIAN_POINT('',(-2.40030772632881E-15,-3.03576608295941E-15,-19.6));
#417=CARTESIAN_POINT('Origin',(0.,3.5,0.));
#418=CARTESIAN_POINT('Origin',(0.,3.5,0.));
#419=CARTESIAN_POINT('',(-2.60849768218386E-15,3.5,-21.3));
#420=CARTESIAN_POINT('Origin',(0.,3.5,0.));
#421=CARTESIAN_POINT('',(-2.60849768218386E-15,4.66128499307296,-21.3));
#422=CARTESIAN_POINT('',(-2.60849768218386E-15,3.5,-21.3));
#423=CARTESIAN_POINT('',(2.92006182361923E-15,4.66128499307296,21.3));
#424=CARTESIAN_POINT('Origin',(0.,4.66128499307296,0.));
#425=CARTESIAN_POINT('Origin',(0.,4.66128499307296,0.));
#426=CARTESIAN_POINT('Origin',(0.,0.25,0.));
#427=CARTESIAN_POINT('',(-3.36777869765522E-15,0.250000000000002,-27.5));
#428=CARTESIAN_POINT('Origin',(0.,0.25,0.));
#429=CARTESIAN_POINT('',(-3.33716252767654E-15,-5.62050406216485E-15,-27.25));
#430=CARTESIAN_POINT('',(-3.36777869765522E-15,0.25,-27.5));
#431=CARTESIAN_POINT('Origin',(0.,-2.94833716894725E-15,0.));
#432=CARTESIAN_POINT('Origin',(0.,1.84900951803155,0.));
#433=CARTESIAN_POINT('',(3.36777869765522E-15,1.84900951803155,-27.5));
#434=CARTESIAN_POINT('',(-3.36777869765522E-15,1.84900951803155,27.5));
#435=CARTESIAN_POINT('Origin',(0.,1.84900951803155,0.));
#436=CARTESIAN_POINT('Origin',(0.,1.84900951803155,0.));
#437=CARTESIAN_POINT('',(-3.23162596505459E-15,3.29789825746516,26.3882285676538));
#438=CARTESIAN_POINT('Origin',(-3.18408167778312E-15,1.84900951803155,26.));
#439=CARTESIAN_POINT('Origin',(0.,3.29789825746516,0.));
#440=CARTESIAN_POINT('Origin',(0.,5.08,0.));
#441=CARTESIAN_POINT('',(-2.41712632990036E-15,5.08,19.7373343202567));
#442=CARTESIAN_POINT('Origin',(0.,55.2557961982418,0.));
#443=CARTESIAN_POINT('',(-3.36777869765522E-15,55.2557961982418,-27.5));
#444=CARTESIAN_POINT('Origin',(0.,55.2557961982418,0.));
#445=CARTESIAN_POINT('',(-2.52889564023928E-15,2.49999999999999,-20.65));
#446=CARTESIAN_POINT('',(-2.52889564023928E-15,55.2557961982418,-20.65));
#447=CARTESIAN_POINT('Origin',(0.,2.5,0.));
#448=CARTESIAN_POINT('Origin',(-20.65,2.5,0.));
#449=CARTESIAN_POINT('Origin',(-20.65,-2.94833716894725E-15,0.));
#450=CARTESIAN_POINT('Origin',(0.,3.5,0.));
#451=CARTESIAN_POINT('',(0.,0.,0.));
#452=CARTESIAN_POINT('',(34.25,0.,0.));
#453=UNCERTAINTY_MEASURE_WITH_UNIT(LENGTH_MEASURE(0.01),#461,
'DISTANCE_ACCURACY_VALUE',
'Maximum model space distance between geometric entities at asserted c
onnectivities');
#454=UNCERTAINTY_MEASURE_WITH_UNIT(LENGTH_MEASURE(0.01),#461,
'DISTANCE_ACCURACY_VALUE',
'Maximum model space distance between geometric entities at asserted c
onnectivities');
#455=UNCERTAINTY_MEASURE_WITH_UNIT(LENGTH_MEASURE(0.01),#461,
'DISTANCE_ACCURACY_VALUE',
'Maximum model space distance between geometric entities at asserted c
onnectivities');
#456=UNCERTAINTY_MEASURE_WITH_UNIT(LENGTH_MEASURE(0.01),#461,
'DISTANCE_ACCURACY_VALUE',
'Maximum model space distance between geometric entities at asserted c
onnectivities');
#457=(
GEOMETRIC_REPRESENTATION_CONTEXT(3)
GLOBAL_UNCERTAINTY_ASSIGNED_CONTEXT((#453))
GLOBAL_UNIT_ASSIGNED_CONTEXT((#461,#463,#464))
REPRESENTATION_CONTEXT('','3D')
);
#458=(
GEOMETRIC_REPRESENTATION_CONTEXT(3)
GLOBAL_UNCERTAINTY_ASSIGNED_CONTEXT((#454))
GLOBAL_UNIT_ASSIGNED_CONTEXT((#461,#463,#464))
REPRESENTATION_CONTEXT('','3D')
);
#459=(
GEOMETRIC_REPRESENTATION_CONTEXT(3)
GLOBAL_UNCERTAINTY_ASSIGNED_CONTEXT((#455))
GLOBAL_UNIT_ASSIGNED_CONTEXT((#461,#463,#464))
REPRESENTATION_CONTEXT('','3D')
);
#460=(
GEOMETRIC_REPRESENTATION_CONTEXT(3)
GLOBAL_UNCERTAINTY_ASSIGNED_CONTEXT((#456))
GLOBAL_UNIT_ASSIGNED_CONTEXT((#461,#463,#464))
REPRESENTATION_CONTEXT('','3D')
);
#461=(
LENGTH_UNIT()
NAMED_UNIT(*)
SI_UNIT(.MILLI.,.METRE.)
);
#462=(
LENGTH_UNIT()
NAMED_UNIT(*)
SI_UNIT($,.METRE.)
);
#463=(
NAMED_UNIT(*)
PLANE_ANGLE_UNIT()
SI_UNIT($,.RADIAN.)
);
#464=(
NAMED_UNIT(*)
SI_UNIT($,.STERADIAN.)
SOLID_ANGLE_UNIT()
);
#465=SHAPE_DEFINITION_REPRESENTATION(#468,#473);
#466=SHAPE_DEFINITION_REPRESENTATION(#469,#474);
#467=SHAPE_DEFINITION_REPRESENTATION(#470,#475);
#468=PRODUCT_DEFINITION_SHAPE('',$,#477);
#469=PRODUCT_DEFINITION_SHAPE('',$,#478);
#470=PRODUCT_DEFINITION_SHAPE('',$,#479);
#471=PRODUCT_DEFINITION_SHAPE($,$,#17);
#472=PRODUCT_DEFINITION_SHAPE($,$,#18);
#473=SHAPE_REPRESENTATION('',(#261,#298,#299),#457);
#474=SHAPE_REPRESENTATION('',(#262),#458);
#475=SHAPE_REPRESENTATION('',(#271),#459);
#476=PRODUCT_DEFINITION_CONTEXT('part definition',#487,'design');
#477=PRODUCT_DEFINITION('Hositrad_KO40-42','Hositrad_KO40-42 v1',#480,#476);
#478=PRODUCT_DEFINITION('Tube-KF40-All_D42-L61,5',
'Tube-KF40-All_D42-L61,5',#481,#476);
#479=PRODUCT_DEFINITION('KF40-42','KF40-42',#482,#476);
#480=PRODUCT_DEFINITION_FORMATION('',$,#489);
#481=PRODUCT_DEFINITION_FORMATION('',$,#490);
#482=PRODUCT_DEFINITION_FORMATION('',$,#491);
#483=PRODUCT_RELATED_PRODUCT_CATEGORY('Hositrad_KO40-42 v1',
'Hositrad_KO40-42 v1',(#489));
#484=PRODUCT_RELATED_PRODUCT_CATEGORY('Tube-KF40-All_D42-L61,5',
'Tube-KF40-All_D42-L61,5',(#490));
#485=PRODUCT_RELATED_PRODUCT_CATEGORY('KF40-42','KF40-42',(#491));
#486=APPLICATION_PROTOCOL_DEFINITION('international standard',
'automotive_design',2009,#487);
#487=APPLICATION_CONTEXT(
'Core Data for Automotive Mechanical Design Process');
#488=PRODUCT_CONTEXT('part definition',#487,'mechanical');
#489=PRODUCT('Hositrad_KO40-42','Hositrad_KO40-42 v1',$,(#488));
#490=PRODUCT('Tube-KF40-All_D42-L61,5','Tube-KF40-All_D42-L61,5',$,(#488));
#491=PRODUCT('KF40-42','KF40-42',$,(#488));
#492=PRESENTATION_STYLE_ASSIGNMENT((#494));
#493=PRESENTATION_STYLE_ASSIGNMENT((#495));
#494=SURFACE_STYLE_USAGE(.BOTH.,#496);
#495=SURFACE_STYLE_USAGE(.BOTH.,#497);
#496=SURFACE_SIDE_STYLE('',(#498));
#497=SURFACE_SIDE_STYLE('',(#499));
#498=SURFACE_STYLE_FILL_AREA(#500);
#499=SURFACE_STYLE_FILL_AREA(#501);
#500=FILL_AREA_STYLE('Steel - Satin',(#502));
#501=FILL_AREA_STYLE('Opaque(165,158,150)',(#503));
#502=FILL_AREA_STYLE_COLOUR('Steel - Satin',#504);
#503=FILL_AREA_STYLE_COLOUR('Opaque(165,158,150)',#505);
#504=COLOUR_RGB('Steel - Satin',0.627450980392157,0.627450980392157,0.627450980392157);
#505=COLOUR_RGB('Opaque(165,158,150)',0.647058823529412,0.619607843137255,
0.588235294117647);
ENDSEC;
END-ISO-10303-21;
