ISO-10303-21;
HEADER;
/* Generated by software containing ST-Developer
 * from STEP Tools, Inc. (www.steptools.com) 
 */

FILE_DESCRIPTION(
/* description */ (''),
/* implementation_level */ '2;1');

FILE_NAME(
/* name */ 'Hositrad_CF63-Blank v3.step',
/* time_stamp */ '2024-06-25T13:47:41+02:00',
/* author */ (''),
/* organization */ (''),
/* preprocessor_version */ 'ST-DEVELOPER v20',
/* originating_system */ 'Autodesk Translation Framework v13.14.0.145',

/* authorisation */ '');

FILE_SCHEMA (('AUTOMOTIVE_DESIGN { 1 0 10303 214 3 1 1 }'));
ENDSEC;

DATA;
#10=MECHANICAL_DESIGN_GEOMETRIC_PRESENTATION_REPRESENTATION('',(#13),#1348);
#11=SHAPE_REPRESENTATION_RELATIONSHIP('SRR','None',#1355,#12);
#12=ADVANCED_BREP_SHAPE_REPRESENTATION('',(#14),#1347);
#13=STYLED_ITEM('',(#1365),#14);
#14=MANIFOLD_SOLID_BREP('Body1',#761);
#15=FACE_BOUND('',#123,.T.);
#16=FACE_BOUND('',#124,.T.);
#17=FACE_BOUND('',#125,.T.);
#18=FACE_BOUND('',#126,.T.);
#19=FACE_BOUND('',#129,.T.);
#20=FACE_BOUND('',#130,.T.);
#21=FACE_BOUND('',#131,.T.);
#22=FACE_BOUND('',#132,.T.);
#23=FACE_BOUND('',#135,.T.);
#24=FACE_BOUND('',#136,.T.);
#25=FACE_BOUND('',#137,.T.);
#26=FACE_BOUND('',#138,.T.);
#27=FACE_BOUND('',#139,.T.);
#28=FACE_BOUND('',#140,.T.);
#29=FACE_BOUND('',#141,.T.);
#30=FACE_BOUND('',#142,.T.);
#31=PLANE('',#863);
#32=PLANE('',#866);
#33=PLANE('',#867);
#34=PLANE('',#868);
#35=PLANE('',#869);
#36=PLANE('',#870);
#37=PLANE('',#871);
#38=PLANE('',#872);
#39=PLANE('',#873);
#40=PLANE('',#874);
#41=CYLINDRICAL_SURFACE('',#835,4.2);
#42=CYLINDRICAL_SURFACE('',#836,4.2);
#43=CYLINDRICAL_SURFACE('',#837,4.2);
#44=CYLINDRICAL_SURFACE('',#838,4.2);
#45=CYLINDRICAL_SURFACE('',#839,4.2);
#46=CYLINDRICAL_SURFACE('',#840,4.2);
#47=CYLINDRICAL_SURFACE('',#841,4.2);
#48=CYLINDRICAL_SURFACE('',#842,4.2);
#49=CYLINDRICAL_SURFACE('',#852,41.275);
#50=CYLINDRICAL_SURFACE('',#858,56.75);
#51=FACE_OUTER_BOUND('',#92,.T.);
#52=FACE_OUTER_BOUND('',#93,.T.);
#53=FACE_OUTER_BOUND('',#94,.T.);
#54=FACE_OUTER_BOUND('',#95,.T.);
#55=FACE_OUTER_BOUND('',#96,.T.);
#56=FACE_OUTER_BOUND('',#97,.T.);
#57=FACE_OUTER_BOUND('',#98,.T.);
#58=FACE_OUTER_BOUND('',#99,.T.);
#59=FACE_OUTER_BOUND('',#100,.T.);
#60=FACE_OUTER_BOUND('',#101,.T.);
#61=FACE_OUTER_BOUND('',#102,.T.);
#62=FACE_OUTER_BOUND('',#103,.T.);
#63=FACE_OUTER_BOUND('',#104,.T.);
#64=FACE_OUTER_BOUND('',#105,.T.);
#65=FACE_OUTER_BOUND('',#106,.T.);
#66=FACE_OUTER_BOUND('',#107,.T.);
#67=FACE_OUTER_BOUND('',#108,.T.);
#68=FACE_OUTER_BOUND('',#109,.T.);
#69=FACE_OUTER_BOUND('',#110,.T.);
#70=FACE_OUTER_BOUND('',#111,.T.);
#71=FACE_OUTER_BOUND('',#112,.T.);
#72=FACE_OUTER_BOUND('',#113,.T.);
#73=FACE_OUTER_BOUND('',#114,.T.);
#74=FACE_OUTER_BOUND('',#115,.T.);
#75=FACE_OUTER_BOUND('',#116,.T.);
#76=FACE_OUTER_BOUND('',#117,.T.);
#77=FACE_OUTER_BOUND('',#118,.T.);
#78=FACE_OUTER_BOUND('',#119,.T.);
#79=FACE_OUTER_BOUND('',#120,.T.);
#80=FACE_OUTER_BOUND('',#121,.T.);
#81=FACE_OUTER_BOUND('',#122,.T.);
#82=FACE_OUTER_BOUND('',#127,.T.);
#83=FACE_OUTER_BOUND('',#128,.T.);
#84=FACE_OUTER_BOUND('',#133,.T.);
#85=FACE_OUTER_BOUND('',#134,.T.);
#86=FACE_OUTER_BOUND('',#143,.T.);
#87=FACE_OUTER_BOUND('',#144,.T.);
#88=FACE_OUTER_BOUND('',#145,.T.);
#89=FACE_OUTER_BOUND('',#146,.T.);
#90=FACE_OUTER_BOUND('',#147,.T.);
#91=FACE_OUTER_BOUND('',#148,.T.);
#92=EDGE_LOOP('',(#483,#484,#485,#486,#487));
#93=EDGE_LOOP('',(#488,#489,#490,#491));
#94=EDGE_LOOP('',(#492,#493,#494,#495,#496));
#95=EDGE_LOOP('',(#497,#498,#499,#500));
#96=EDGE_LOOP('',(#501,#502,#503,#504,#505));
#97=EDGE_LOOP('',(#506,#507,#508,#509));
#98=EDGE_LOOP('',(#510,#511,#512,#513,#514));
#99=EDGE_LOOP('',(#515,#516,#517,#518));
#100=EDGE_LOOP('',(#519,#520,#521,#522,#523));
#101=EDGE_LOOP('',(#524,#525,#526,#527));
#102=EDGE_LOOP('',(#528,#529,#530,#531,#532));
#103=EDGE_LOOP('',(#533,#534,#535,#536));
#104=EDGE_LOOP('',(#537,#538,#539,#540,#541));
#105=EDGE_LOOP('',(#542,#543,#544,#545));
#106=EDGE_LOOP('',(#546,#547,#548,#549,#550));
#107=EDGE_LOOP('',(#551,#552,#553,#554));
#108=EDGE_LOOP('',(#555,#556,#557,#558,#559));
#109=EDGE_LOOP('',(#560,#561,#562,#563,#564));
#110=EDGE_LOOP('',(#565,#566,#567,#568,#569));
#111=EDGE_LOOP('',(#570,#571,#572,#573,#574));
#112=EDGE_LOOP('',(#575,#576,#577,#578,#579));
#113=EDGE_LOOP('',(#580,#581,#582,#583,#584));
#114=EDGE_LOOP('',(#585,#586,#587,#588,#589));
#115=EDGE_LOOP('',(#590,#591,#592,#593,#594));
#116=EDGE_LOOP('',(#595,#596,#597,#598,#599));
#117=EDGE_LOOP('',(#600,#601,#602,#603,#604));
#118=EDGE_LOOP('',(#605,#606,#607,#608,#609));
#119=EDGE_LOOP('',(#610,#611,#612,#613));
#120=EDGE_LOOP('',(#614,#615,#616,#617,#618,#619,#620,#621,#622,#623,#624,
#625));
#121=EDGE_LOOP('',(#626,#627,#628,#629,#630,#631,#632,#633,#634,#635,#636,
#637,#638));
#122=EDGE_LOOP('',(#639,#640,#641,#642,#643));
#123=EDGE_LOOP('',(#644));
#124=EDGE_LOOP('',(#645));
#125=EDGE_LOOP('',(#646));
#126=EDGE_LOOP('',(#647));
#127=EDGE_LOOP('',(#648,#649,#650,#651,#652));
#128=EDGE_LOOP('',(#653,#654,#655,#656));
#129=EDGE_LOOP('',(#657));
#130=EDGE_LOOP('',(#658));
#131=EDGE_LOOP('',(#659));
#132=EDGE_LOOP('',(#660));
#133=EDGE_LOOP('',(#661));
#134=EDGE_LOOP('',(#662));
#135=EDGE_LOOP('',(#663));
#136=EDGE_LOOP('',(#664));
#137=EDGE_LOOP('',(#665));
#138=EDGE_LOOP('',(#666));
#139=EDGE_LOOP('',(#667));
#140=EDGE_LOOP('',(#668));
#141=EDGE_LOOP('',(#669));
#142=EDGE_LOOP('',(#670));
#143=EDGE_LOOP('',(#671,#672,#673,#674));
#144=EDGE_LOOP('',(#675,#676,#677,#678,#679));
#145=EDGE_LOOP('',(#680,#681,#682,#683,#684));
#146=EDGE_LOOP('',(#685,#686,#687,#688));
#147=EDGE_LOOP('',(#689,#690,#691,#692,#693));
#148=EDGE_LOOP('',(#694,#695,#696,#697,#698));
#149=LINE('',#1133,#198);
#150=LINE('',#1139,#199);
#151=LINE('',#1147,#200);
#152=LINE('',#1153,#201);
#153=LINE('',#1161,#202);
#154=LINE('',#1167,#203);
#155=LINE('',#1175,#204);
#156=LINE('',#1181,#205);
#157=LINE('',#1189,#206);
#158=LINE('',#1195,#207);
#159=LINE('',#1203,#208);
#160=LINE('',#1209,#209);
#161=LINE('',#1217,#210);
#162=LINE('',#1223,#211);
#163=LINE('',#1231,#212);
#164=LINE('',#1237,#213);
#165=LINE('',#1245,#214);
#166=LINE('',#1248,#215);
#167=LINE('',#1250,#216);
#168=LINE('',#1252,#217);
#169=LINE('',#1254,#218);
#170=LINE('',#1256,#219);
#171=LINE('',#1258,#220);
#172=LINE('',#1260,#221);
#173=LINE('',#1262,#222);
#174=LINE('',#1267,#223);
#175=LINE('',#1274,#224);
#176=LINE('',#1280,#225);
#177=LINE('',#1283,#226);
#178=LINE('',#1289,#227);
#179=LINE('',#1293,#228);
#180=LINE('',#1296,#229);
#181=LINE('',#1300,#230);
#182=LINE('',#1303,#231);
#183=LINE('',#1306,#232);
#184=LINE('',#1310,#233);
#185=LINE('',#1313,#234);
#186=LINE('',#1315,#235);
#187=LINE('',#1319,#236);
#188=LINE('',#1323,#237);
#189=LINE('',#1325,#238);
#190=LINE('',#1328,#239);
#191=LINE('',#1329,#240);
#192=LINE('',#1331,#241);
#193=LINE('',#1332,#242);
#194=LINE('',#1336,#243);
#195=LINE('',#1337,#244);
#196=LINE('',#1341,#245);
#197=LINE('',#1342,#246);
#198=VECTOR('',#883,4.59999999999998);
#199=VECTOR('',#890,4.2);
#200=VECTOR('',#899,4.60000000000003);
#201=VECTOR('',#906,4.2);
#202=VECTOR('',#915,4.60000000000001);
#203=VECTOR('',#922,4.2);
#204=VECTOR('',#931,4.60000000000003);
#205=VECTOR('',#938,4.2);
#206=VECTOR('',#947,4.59999999999999);
#207=VECTOR('',#954,4.2);
#208=VECTOR('',#963,4.60000000000003);
#209=VECTOR('',#970,4.2);
#210=VECTOR('',#979,4.60000000000001);
#211=VECTOR('',#986,4.2);
#212=VECTOR('',#995,4.60000000000003);
#213=VECTOR('',#1002,4.2);
#214=VECTOR('',#1011,56.25);
#215=VECTOR('',#1016,4.2);
#216=VECTOR('',#1019,4.2);
#217=VECTOR('',#1022,4.2);
#218=VECTOR('',#1025,4.2);
#219=VECTOR('',#1028,4.2);
#220=VECTOR('',#1031,4.2);
#221=VECTOR('',#1034,4.2);
#222=VECTOR('',#1037,4.2);
#223=VECTOR('',#1042,38.3816178594403);
#224=VECTOR('',#1051,38.6);
#225=VECTOR('',#1056,10.);
#226=VECTOR('',#1059,10.);
#227=VECTOR('',#1064,1000.);
#228=VECTOR('',#1067,1000.);
#229=VECTOR('',#1070,41.275);
#230=VECTOR('',#1073,1000.);
#231=VECTOR('',#1076,1000.);
#232=VECTOR('',#1079,56.75);
#233=VECTOR('',#1082,1000.);
#234=VECTOR('',#1085,1000.);
#235=VECTOR('',#1086,1000.);
#236=VECTOR('',#1089,1000.);
#237=VECTOR('',#1094,1000.);
#238=VECTOR('',#1095,1000.);
#239=VECTOR('',#1100,10.);
#240=VECTOR('',#1101,10.);
#241=VECTOR('',#1104,1000.);
#242=VECTOR('',#1105,1000.);
#243=VECTOR('',#1112,1000.);
#244=VECTOR('',#1113,1000.);
#245=VECTOR('',#1120,1000.);
#246=VECTOR('',#1121,1000.);
#247=CIRCLE('',#776,4.2);
#248=CIRCLE('',#777,4.2);
#249=CIRCLE('',#778,4.59999999999998);
#250=CIRCLE('',#780,4.2);
#251=CIRCLE('',#781,4.59999999999998);
#252=CIRCLE('',#783,4.2);
#253=CIRCLE('',#784,4.2);
#254=CIRCLE('',#785,4.60000000000003);
#255=CIRCLE('',#787,4.2);
#256=CIRCLE('',#788,4.59999999999998);
#257=CIRCLE('',#790,4.2);
#258=CIRCLE('',#791,4.2);
#259=CIRCLE('',#792,4.60000000000001);
#260=CIRCLE('',#794,4.2);
#261=CIRCLE('',#795,4.60000000000001);
#262=CIRCLE('',#797,4.2);
#263=CIRCLE('',#798,4.2);
#264=CIRCLE('',#799,4.60000000000003);
#265=CIRCLE('',#801,4.2);
#266=CIRCLE('',#802,4.59999999999998);
#267=CIRCLE('',#804,4.2);
#268=CIRCLE('',#805,4.2);
#269=CIRCLE('',#806,4.59999999999999);
#270=CIRCLE('',#808,4.2);
#271=CIRCLE('',#809,4.59999999999999);
#272=CIRCLE('',#811,4.2);
#273=CIRCLE('',#812,4.2);
#274=CIRCLE('',#813,4.60000000000003);
#275=CIRCLE('',#815,4.2);
#276=CIRCLE('',#816,4.59999999999998);
#277=CIRCLE('',#818,4.2);
#278=CIRCLE('',#819,4.2);
#279=CIRCLE('',#820,4.60000000000001);
#280=CIRCLE('',#822,4.2);
#281=CIRCLE('',#823,4.60000000000001);
#282=CIRCLE('',#825,4.2);
#283=CIRCLE('',#826,4.2);
#284=CIRCLE('',#827,4.60000000000003);
#285=CIRCLE('',#829,4.2);
#286=CIRCLE('',#830,4.59999999999998);
#287=CIRCLE('',#832,56.75);
#288=CIRCLE('',#833,56.75);
#289=CIRCLE('',#834,56.25);
#290=CIRCLE('',#844,38.3816178594403);
#291=CIRCLE('',#845,38.6);
#292=CIRCLE('',#846,38.6);
#293=CIRCLE('',#848,41.275);
#294=CIRCLE('',#850,56.25);
#295=CIRCLE('',#851,56.75);
#296=CIRCLE('',#853,41.275);
#297=CIRCLE('',#854,41.275);
#298=CIRCLE('',#855,41.275);
#299=CIRCLE('',#856,41.275);
#300=CIRCLE('',#857,41.275);
#301=CIRCLE('',#859,56.75);
#302=CIRCLE('',#860,56.75);
#303=CIRCLE('',#861,56.75);
#304=CIRCLE('',#862,56.75);
#305=CIRCLE('',#864,56.25);
#306=VERTEX_POINT('',#1128);
#307=VERTEX_POINT('',#1129);
#308=VERTEX_POINT('',#1132);
#309=VERTEX_POINT('',#1136);
#310=VERTEX_POINT('',#1138);
#311=VERTEX_POINT('',#1142);
#312=VERTEX_POINT('',#1143);
#313=VERTEX_POINT('',#1146);
#314=VERTEX_POINT('',#1150);
#315=VERTEX_POINT('',#1152);
#316=VERTEX_POINT('',#1156);
#317=VERTEX_POINT('',#1157);
#318=VERTEX_POINT('',#1160);
#319=VERTEX_POINT('',#1164);
#320=VERTEX_POINT('',#1166);
#321=VERTEX_POINT('',#1170);
#322=VERTEX_POINT('',#1171);
#323=VERTEX_POINT('',#1174);
#324=VERTEX_POINT('',#1178);
#325=VERTEX_POINT('',#1180);
#326=VERTEX_POINT('',#1184);
#327=VERTEX_POINT('',#1185);
#328=VERTEX_POINT('',#1188);
#329=VERTEX_POINT('',#1192);
#330=VERTEX_POINT('',#1194);
#331=VERTEX_POINT('',#1198);
#332=VERTEX_POINT('',#1199);
#333=VERTEX_POINT('',#1202);
#334=VERTEX_POINT('',#1206);
#335=VERTEX_POINT('',#1208);
#336=VERTEX_POINT('',#1212);
#337=VERTEX_POINT('',#1213);
#338=VERTEX_POINT('',#1216);
#339=VERTEX_POINT('',#1220);
#340=VERTEX_POINT('',#1222);
#341=VERTEX_POINT('',#1226);
#342=VERTEX_POINT('',#1227);
#343=VERTEX_POINT('',#1230);
#344=VERTEX_POINT('',#1234);
#345=VERTEX_POINT('',#1236);
#346=VERTEX_POINT('',#1240);
#347=VERTEX_POINT('',#1241);
#348=VERTEX_POINT('',#1244);
#349=VERTEX_POINT('',#1264);
#350=VERTEX_POINT('',#1266);
#351=VERTEX_POINT('',#1268);
#352=VERTEX_POINT('',#1272);
#353=VERTEX_POINT('',#1276);
#354=VERTEX_POINT('',#1277);
#355=VERTEX_POINT('',#1279);
#356=VERTEX_POINT('',#1281);
#357=VERTEX_POINT('',#1285);
#358=VERTEX_POINT('',#1286);
#359=VERTEX_POINT('',#1288);
#360=VERTEX_POINT('',#1290);
#361=VERTEX_POINT('',#1292);
#362=VERTEX_POINT('',#1294);
#363=VERTEX_POINT('',#1297);
#364=VERTEX_POINT('',#1299);
#365=VERTEX_POINT('',#1301);
#366=VERTEX_POINT('',#1305);
#367=VERTEX_POINT('',#1307);
#368=VERTEX_POINT('',#1309);
#369=VERTEX_POINT('',#1311);
#370=VERTEX_POINT('',#1314);
#371=VERTEX_POINT('',#1316);
#372=VERTEX_POINT('',#1318);
#373=VERTEX_POINT('',#1322);
#374=VERTEX_POINT('',#1324);
#375=EDGE_CURVE('',#306,#307,#247,.T.);
#376=EDGE_CURVE('',#307,#306,#248,.T.);
#377=EDGE_CURVE('',#307,#308,#149,.T.);
#378=EDGE_CURVE('',#308,#308,#249,.T.);
#379=EDGE_CURVE('',#309,#309,#250,.T.);
#380=EDGE_CURVE('',#309,#310,#150,.T.);
#381=EDGE_CURVE('',#310,#310,#251,.T.);
#382=EDGE_CURVE('',#311,#312,#252,.T.);
#383=EDGE_CURVE('',#312,#311,#253,.T.);
#384=EDGE_CURVE('',#312,#313,#151,.T.);
#385=EDGE_CURVE('',#313,#313,#254,.T.);
#386=EDGE_CURVE('',#314,#314,#255,.T.);
#387=EDGE_CURVE('',#314,#315,#152,.T.);
#388=EDGE_CURVE('',#315,#315,#256,.T.);
#389=EDGE_CURVE('',#316,#317,#257,.T.);
#390=EDGE_CURVE('',#317,#316,#258,.T.);
#391=EDGE_CURVE('',#317,#318,#153,.T.);
#392=EDGE_CURVE('',#318,#318,#259,.T.);
#393=EDGE_CURVE('',#319,#319,#260,.T.);
#394=EDGE_CURVE('',#319,#320,#154,.T.);
#395=EDGE_CURVE('',#320,#320,#261,.T.);
#396=EDGE_CURVE('',#321,#322,#262,.T.);
#397=EDGE_CURVE('',#322,#321,#263,.T.);
#398=EDGE_CURVE('',#322,#323,#155,.T.);
#399=EDGE_CURVE('',#323,#323,#264,.T.);
#400=EDGE_CURVE('',#324,#324,#265,.T.);
#401=EDGE_CURVE('',#324,#325,#156,.T.);
#402=EDGE_CURVE('',#325,#325,#266,.T.);
#403=EDGE_CURVE('',#326,#327,#267,.T.);
#404=EDGE_CURVE('',#327,#326,#268,.T.);
#405=EDGE_CURVE('',#327,#328,#157,.T.);
#406=EDGE_CURVE('',#328,#328,#269,.T.);
#407=EDGE_CURVE('',#329,#329,#270,.T.);
#408=EDGE_CURVE('',#329,#330,#158,.T.);
#409=EDGE_CURVE('',#330,#330,#271,.T.);
#410=EDGE_CURVE('',#331,#332,#272,.T.);
#411=EDGE_CURVE('',#332,#331,#273,.T.);
#412=EDGE_CURVE('',#332,#333,#159,.T.);
#413=EDGE_CURVE('',#333,#333,#274,.T.);
#414=EDGE_CURVE('',#334,#334,#275,.T.);
#415=EDGE_CURVE('',#334,#335,#160,.T.);
#416=EDGE_CURVE('',#335,#335,#276,.T.);
#417=EDGE_CURVE('',#336,#337,#277,.T.);
#418=EDGE_CURVE('',#337,#336,#278,.T.);
#419=EDGE_CURVE('',#337,#338,#161,.T.);
#420=EDGE_CURVE('',#338,#338,#279,.T.);
#421=EDGE_CURVE('',#339,#339,#280,.T.);
#422=EDGE_CURVE('',#339,#340,#162,.T.);
#423=EDGE_CURVE('',#340,#340,#281,.T.);
#424=EDGE_CURVE('',#341,#342,#282,.T.);
#425=EDGE_CURVE('',#342,#341,#283,.T.);
#426=EDGE_CURVE('',#342,#343,#163,.T.);
#427=EDGE_CURVE('',#343,#343,#284,.T.);
#428=EDGE_CURVE('',#344,#344,#285,.T.);
#429=EDGE_CURVE('',#344,#345,#164,.T.);
#430=EDGE_CURVE('',#345,#345,#286,.T.);
#431=EDGE_CURVE('',#346,#347,#287,.T.);
#432=EDGE_CURVE('',#347,#346,#288,.T.);
#433=EDGE_CURVE('',#347,#348,#165,.T.);
#434=EDGE_CURVE('',#348,#348,#289,.T.);
#435=EDGE_CURVE('',#326,#329,#166,.T.);
#436=EDGE_CURVE('',#321,#324,#167,.T.);
#437=EDGE_CURVE('',#316,#319,#168,.T.);
#438=EDGE_CURVE('',#311,#314,#169,.T.);
#439=EDGE_CURVE('',#306,#309,#170,.T.);
#440=EDGE_CURVE('',#341,#344,#171,.T.);
#441=EDGE_CURVE('',#336,#339,#172,.T.);
#442=EDGE_CURVE('',#331,#334,#173,.T.);
#443=EDGE_CURVE('',#349,#349,#290,.T.);
#444=EDGE_CURVE('',#349,#350,#174,.T.);
#445=EDGE_CURVE('',#351,#350,#291,.T.);
#446=EDGE_CURVE('',#350,#351,#292,.T.);
#447=EDGE_CURVE('',#352,#352,#293,.T.);
#448=EDGE_CURVE('',#352,#351,#175,.T.);
#449=EDGE_CURVE('',#353,#354,#294,.T.);
#450=EDGE_CURVE('',#355,#353,#176,.T.);
#451=EDGE_CURVE('',#356,#355,#295,.T.);
#452=EDGE_CURVE('',#356,#354,#177,.T.);
#453=EDGE_CURVE('',#357,#358,#296,.T.);
#454=EDGE_CURVE('',#359,#357,#178,.T.);
#455=EDGE_CURVE('',#359,#360,#297,.T.);
#456=EDGE_CURVE('',#360,#361,#179,.T.);
#457=EDGE_CURVE('',#362,#361,#298,.T.);
#458=EDGE_CURVE('',#362,#352,#180,.T.);
#459=EDGE_CURVE('',#363,#362,#299,.T.);
#460=EDGE_CURVE('',#364,#363,#181,.T.);
#461=EDGE_CURVE('',#364,#365,#300,.T.);
#462=EDGE_CURVE('',#365,#358,#182,.T.);
#463=EDGE_CURVE('',#346,#366,#183,.T.);
#464=EDGE_CURVE('',#366,#367,#301,.T.);
#465=EDGE_CURVE('',#367,#368,#184,.T.);
#466=EDGE_CURVE('',#368,#369,#302,.T.);
#467=EDGE_CURVE('',#356,#369,#185,.T.);
#468=EDGE_CURVE('',#355,#370,#186,.T.);
#469=EDGE_CURVE('',#370,#371,#303,.T.);
#470=EDGE_CURVE('',#372,#371,#187,.T.);
#471=EDGE_CURVE('',#372,#366,#304,.T.);
#472=EDGE_CURVE('',#373,#363,#188,.T.);
#473=EDGE_CURVE('',#374,#361,#189,.T.);
#474=EDGE_CURVE('',#374,#373,#305,.T.);
#475=EDGE_CURVE('',#372,#373,#190,.T.);
#476=EDGE_CURVE('',#367,#374,#191,.T.);
#477=EDGE_CURVE('',#353,#358,#192,.T.);
#478=EDGE_CURVE('',#354,#357,#193,.T.);
#479=EDGE_CURVE('',#368,#360,#194,.T.);
#480=EDGE_CURVE('',#369,#359,#195,.T.);
#481=EDGE_CURVE('',#370,#365,#196,.T.);
#482=EDGE_CURVE('',#371,#364,#197,.T.);
#483=ORIENTED_EDGE('',*,*,#375,.F.);
#484=ORIENTED_EDGE('',*,*,#376,.F.);
#485=ORIENTED_EDGE('',*,*,#377,.T.);
#486=ORIENTED_EDGE('',*,*,#378,.F.);
#487=ORIENTED_EDGE('',*,*,#377,.F.);
#488=ORIENTED_EDGE('',*,*,#379,.F.);
#489=ORIENTED_EDGE('',*,*,#380,.T.);
#490=ORIENTED_EDGE('',*,*,#381,.F.);
#491=ORIENTED_EDGE('',*,*,#380,.F.);
#492=ORIENTED_EDGE('',*,*,#382,.F.);
#493=ORIENTED_EDGE('',*,*,#383,.F.);
#494=ORIENTED_EDGE('',*,*,#384,.T.);
#495=ORIENTED_EDGE('',*,*,#385,.F.);
#496=ORIENTED_EDGE('',*,*,#384,.F.);
#497=ORIENTED_EDGE('',*,*,#386,.F.);
#498=ORIENTED_EDGE('',*,*,#387,.T.);
#499=ORIENTED_EDGE('',*,*,#388,.F.);
#500=ORIENTED_EDGE('',*,*,#387,.F.);
#501=ORIENTED_EDGE('',*,*,#389,.F.);
#502=ORIENTED_EDGE('',*,*,#390,.F.);
#503=ORIENTED_EDGE('',*,*,#391,.T.);
#504=ORIENTED_EDGE('',*,*,#392,.F.);
#505=ORIENTED_EDGE('',*,*,#391,.F.);
#506=ORIENTED_EDGE('',*,*,#393,.F.);
#507=ORIENTED_EDGE('',*,*,#394,.T.);
#508=ORIENTED_EDGE('',*,*,#395,.F.);
#509=ORIENTED_EDGE('',*,*,#394,.F.);
#510=ORIENTED_EDGE('',*,*,#396,.F.);
#511=ORIENTED_EDGE('',*,*,#397,.F.);
#512=ORIENTED_EDGE('',*,*,#398,.T.);
#513=ORIENTED_EDGE('',*,*,#399,.F.);
#514=ORIENTED_EDGE('',*,*,#398,.F.);
#515=ORIENTED_EDGE('',*,*,#400,.F.);
#516=ORIENTED_EDGE('',*,*,#401,.T.);
#517=ORIENTED_EDGE('',*,*,#402,.F.);
#518=ORIENTED_EDGE('',*,*,#401,.F.);
#519=ORIENTED_EDGE('',*,*,#403,.F.);
#520=ORIENTED_EDGE('',*,*,#404,.F.);
#521=ORIENTED_EDGE('',*,*,#405,.T.);
#522=ORIENTED_EDGE('',*,*,#406,.F.);
#523=ORIENTED_EDGE('',*,*,#405,.F.);
#524=ORIENTED_EDGE('',*,*,#407,.F.);
#525=ORIENTED_EDGE('',*,*,#408,.T.);
#526=ORIENTED_EDGE('',*,*,#409,.F.);
#527=ORIENTED_EDGE('',*,*,#408,.F.);
#528=ORIENTED_EDGE('',*,*,#410,.F.);
#529=ORIENTED_EDGE('',*,*,#411,.F.);
#530=ORIENTED_EDGE('',*,*,#412,.T.);
#531=ORIENTED_EDGE('',*,*,#413,.F.);
#532=ORIENTED_EDGE('',*,*,#412,.F.);
#533=ORIENTED_EDGE('',*,*,#414,.F.);
#534=ORIENTED_EDGE('',*,*,#415,.T.);
#535=ORIENTED_EDGE('',*,*,#416,.F.);
#536=ORIENTED_EDGE('',*,*,#415,.F.);
#537=ORIENTED_EDGE('',*,*,#417,.F.);
#538=ORIENTED_EDGE('',*,*,#418,.F.);
#539=ORIENTED_EDGE('',*,*,#419,.T.);
#540=ORIENTED_EDGE('',*,*,#420,.F.);
#541=ORIENTED_EDGE('',*,*,#419,.F.);
#542=ORIENTED_EDGE('',*,*,#421,.F.);
#543=ORIENTED_EDGE('',*,*,#422,.T.);
#544=ORIENTED_EDGE('',*,*,#423,.F.);
#545=ORIENTED_EDGE('',*,*,#422,.F.);
#546=ORIENTED_EDGE('',*,*,#424,.F.);
#547=ORIENTED_EDGE('',*,*,#425,.F.);
#548=ORIENTED_EDGE('',*,*,#426,.T.);
#549=ORIENTED_EDGE('',*,*,#427,.F.);
#550=ORIENTED_EDGE('',*,*,#426,.F.);
#551=ORIENTED_EDGE('',*,*,#428,.F.);
#552=ORIENTED_EDGE('',*,*,#429,.T.);
#553=ORIENTED_EDGE('',*,*,#430,.F.);
#554=ORIENTED_EDGE('',*,*,#429,.F.);
#555=ORIENTED_EDGE('',*,*,#431,.F.);
#556=ORIENTED_EDGE('',*,*,#432,.F.);
#557=ORIENTED_EDGE('',*,*,#433,.T.);
#558=ORIENTED_EDGE('',*,*,#434,.F.);
#559=ORIENTED_EDGE('',*,*,#433,.F.);
#560=ORIENTED_EDGE('',*,*,#403,.T.);
#561=ORIENTED_EDGE('',*,*,#404,.T.);
#562=ORIENTED_EDGE('',*,*,#435,.T.);
#563=ORIENTED_EDGE('',*,*,#407,.T.);
#564=ORIENTED_EDGE('',*,*,#435,.F.);
#565=ORIENTED_EDGE('',*,*,#396,.T.);
#566=ORIENTED_EDGE('',*,*,#397,.T.);
#567=ORIENTED_EDGE('',*,*,#436,.T.);
#568=ORIENTED_EDGE('',*,*,#400,.T.);
#569=ORIENTED_EDGE('',*,*,#436,.F.);
#570=ORIENTED_EDGE('',*,*,#389,.T.);
#571=ORIENTED_EDGE('',*,*,#390,.T.);
#572=ORIENTED_EDGE('',*,*,#437,.T.);
#573=ORIENTED_EDGE('',*,*,#393,.T.);
#574=ORIENTED_EDGE('',*,*,#437,.F.);
#575=ORIENTED_EDGE('',*,*,#382,.T.);
#576=ORIENTED_EDGE('',*,*,#383,.T.);
#577=ORIENTED_EDGE('',*,*,#438,.T.);
#578=ORIENTED_EDGE('',*,*,#386,.T.);
#579=ORIENTED_EDGE('',*,*,#438,.F.);
#580=ORIENTED_EDGE('',*,*,#375,.T.);
#581=ORIENTED_EDGE('',*,*,#376,.T.);
#582=ORIENTED_EDGE('',*,*,#439,.T.);
#583=ORIENTED_EDGE('',*,*,#379,.T.);
#584=ORIENTED_EDGE('',*,*,#439,.F.);
#585=ORIENTED_EDGE('',*,*,#424,.T.);
#586=ORIENTED_EDGE('',*,*,#425,.T.);
#587=ORIENTED_EDGE('',*,*,#440,.T.);
#588=ORIENTED_EDGE('',*,*,#428,.T.);
#589=ORIENTED_EDGE('',*,*,#440,.F.);
#590=ORIENTED_EDGE('',*,*,#417,.T.);
#591=ORIENTED_EDGE('',*,*,#418,.T.);
#592=ORIENTED_EDGE('',*,*,#441,.T.);
#593=ORIENTED_EDGE('',*,*,#421,.T.);
#594=ORIENTED_EDGE('',*,*,#441,.F.);
#595=ORIENTED_EDGE('',*,*,#410,.T.);
#596=ORIENTED_EDGE('',*,*,#411,.T.);
#597=ORIENTED_EDGE('',*,*,#442,.T.);
#598=ORIENTED_EDGE('',*,*,#414,.T.);
#599=ORIENTED_EDGE('',*,*,#442,.F.);
#600=ORIENTED_EDGE('',*,*,#443,.T.);
#601=ORIENTED_EDGE('',*,*,#444,.T.);
#602=ORIENTED_EDGE('',*,*,#445,.F.);
#603=ORIENTED_EDGE('',*,*,#446,.F.);
#604=ORIENTED_EDGE('',*,*,#444,.F.);
#605=ORIENTED_EDGE('',*,*,#447,.F.);
#606=ORIENTED_EDGE('',*,*,#448,.T.);
#607=ORIENTED_EDGE('',*,*,#445,.T.);
#608=ORIENTED_EDGE('',*,*,#446,.T.);
#609=ORIENTED_EDGE('',*,*,#448,.F.);
#610=ORIENTED_EDGE('',*,*,#449,.F.);
#611=ORIENTED_EDGE('',*,*,#450,.F.);
#612=ORIENTED_EDGE('',*,*,#451,.F.);
#613=ORIENTED_EDGE('',*,*,#452,.T.);
#614=ORIENTED_EDGE('',*,*,#453,.F.);
#615=ORIENTED_EDGE('',*,*,#454,.F.);
#616=ORIENTED_EDGE('',*,*,#455,.T.);
#617=ORIENTED_EDGE('',*,*,#456,.T.);
#618=ORIENTED_EDGE('',*,*,#457,.F.);
#619=ORIENTED_EDGE('',*,*,#458,.T.);
#620=ORIENTED_EDGE('',*,*,#447,.T.);
#621=ORIENTED_EDGE('',*,*,#458,.F.);
#622=ORIENTED_EDGE('',*,*,#459,.F.);
#623=ORIENTED_EDGE('',*,*,#460,.F.);
#624=ORIENTED_EDGE('',*,*,#461,.T.);
#625=ORIENTED_EDGE('',*,*,#462,.T.);
#626=ORIENTED_EDGE('',*,*,#431,.T.);
#627=ORIENTED_EDGE('',*,*,#432,.T.);
#628=ORIENTED_EDGE('',*,*,#463,.T.);
#629=ORIENTED_EDGE('',*,*,#464,.T.);
#630=ORIENTED_EDGE('',*,*,#465,.T.);
#631=ORIENTED_EDGE('',*,*,#466,.T.);
#632=ORIENTED_EDGE('',*,*,#467,.F.);
#633=ORIENTED_EDGE('',*,*,#451,.T.);
#634=ORIENTED_EDGE('',*,*,#468,.T.);
#635=ORIENTED_EDGE('',*,*,#469,.T.);
#636=ORIENTED_EDGE('',*,*,#470,.F.);
#637=ORIENTED_EDGE('',*,*,#471,.T.);
#638=ORIENTED_EDGE('',*,*,#463,.F.);
#639=ORIENTED_EDGE('',*,*,#472,.T.);
#640=ORIENTED_EDGE('',*,*,#459,.T.);
#641=ORIENTED_EDGE('',*,*,#457,.T.);
#642=ORIENTED_EDGE('',*,*,#473,.F.);
#643=ORIENTED_EDGE('',*,*,#474,.T.);
#644=ORIENTED_EDGE('',*,*,#388,.T.);
#645=ORIENTED_EDGE('',*,*,#395,.T.);
#646=ORIENTED_EDGE('',*,*,#402,.T.);
#647=ORIENTED_EDGE('',*,*,#409,.T.);
#648=ORIENTED_EDGE('',*,*,#471,.F.);
#649=ORIENTED_EDGE('',*,*,#475,.T.);
#650=ORIENTED_EDGE('',*,*,#474,.F.);
#651=ORIENTED_EDGE('',*,*,#476,.F.);
#652=ORIENTED_EDGE('',*,*,#464,.F.);
#653=ORIENTED_EDGE('',*,*,#453,.T.);
#654=ORIENTED_EDGE('',*,*,#477,.F.);
#655=ORIENTED_EDGE('',*,*,#449,.T.);
#656=ORIENTED_EDGE('',*,*,#478,.T.);
#657=ORIENTED_EDGE('',*,*,#381,.T.);
#658=ORIENTED_EDGE('',*,*,#416,.T.);
#659=ORIENTED_EDGE('',*,*,#423,.T.);
#660=ORIENTED_EDGE('',*,*,#430,.T.);
#661=ORIENTED_EDGE('',*,*,#443,.F.);
#662=ORIENTED_EDGE('',*,*,#434,.T.);
#663=ORIENTED_EDGE('',*,*,#427,.T.);
#664=ORIENTED_EDGE('',*,*,#420,.T.);
#665=ORIENTED_EDGE('',*,*,#413,.T.);
#666=ORIENTED_EDGE('',*,*,#406,.T.);
#667=ORIENTED_EDGE('',*,*,#399,.T.);
#668=ORIENTED_EDGE('',*,*,#392,.T.);
#669=ORIENTED_EDGE('',*,*,#385,.T.);
#670=ORIENTED_EDGE('',*,*,#378,.T.);
#671=ORIENTED_EDGE('',*,*,#479,.T.);
#672=ORIENTED_EDGE('',*,*,#455,.F.);
#673=ORIENTED_EDGE('',*,*,#480,.F.);
#674=ORIENTED_EDGE('',*,*,#466,.F.);
#675=ORIENTED_EDGE('',*,*,#454,.T.);
#676=ORIENTED_EDGE('',*,*,#478,.F.);
#677=ORIENTED_EDGE('',*,*,#452,.F.);
#678=ORIENTED_EDGE('',*,*,#467,.T.);
#679=ORIENTED_EDGE('',*,*,#480,.T.);
#680=ORIENTED_EDGE('',*,*,#479,.F.);
#681=ORIENTED_EDGE('',*,*,#465,.F.);
#682=ORIENTED_EDGE('',*,*,#476,.T.);
#683=ORIENTED_EDGE('',*,*,#473,.T.);
#684=ORIENTED_EDGE('',*,*,#456,.F.);
#685=ORIENTED_EDGE('',*,*,#481,.T.);
#686=ORIENTED_EDGE('',*,*,#461,.F.);
#687=ORIENTED_EDGE('',*,*,#482,.F.);
#688=ORIENTED_EDGE('',*,*,#469,.F.);
#689=ORIENTED_EDGE('',*,*,#460,.T.);
#690=ORIENTED_EDGE('',*,*,#472,.F.);
#691=ORIENTED_EDGE('',*,*,#475,.F.);
#692=ORIENTED_EDGE('',*,*,#470,.T.);
#693=ORIENTED_EDGE('',*,*,#482,.T.);
#694=ORIENTED_EDGE('',*,*,#481,.F.);
#695=ORIENTED_EDGE('',*,*,#468,.F.);
#696=ORIENTED_EDGE('',*,*,#450,.T.);
#697=ORIENTED_EDGE('',*,*,#477,.T.);
#698=ORIENTED_EDGE('',*,*,#462,.F.);
#699=CONICAL_SURFACE('',#775,4.59999999999998,0.785398163397469);
#700=CONICAL_SURFACE('',#779,4.2,0.785398163397452);
#701=CONICAL_SURFACE('',#782,4.60000000000003,0.785398163397431);
#702=CONICAL_SURFACE('',#786,4.2,0.785398163397448);
#703=CONICAL_SURFACE('',#789,4.60000000000001,0.785398163397454);
#704=CONICAL_SURFACE('',#793,4.2,0.785398163397436);
#705=CONICAL_SURFACE('',#796,4.60000000000003,0.785398163397431);
#706=CONICAL_SURFACE('',#800,4.2,0.785398163397448);
#707=CONICAL_SURFACE('',#803,4.59999999999999,0.785398163397475);
#708=CONICAL_SURFACE('',#807,4.2,0.785398163397458);
#709=CONICAL_SURFACE('',#810,4.60000000000003,0.785398163397431);
#710=CONICAL_SURFACE('',#814,4.2,0.785398163397448);
#711=CONICAL_SURFACE('',#817,4.60000000000001,0.785398163397464);
#712=CONICAL_SURFACE('',#821,4.2,0.785398163397464);
#713=CONICAL_SURFACE('',#824,4.60000000000003,0.785398163397431);
#714=CONICAL_SURFACE('',#828,4.2,0.785398163397448);
#715=CONICAL_SURFACE('',#831,56.25,0.785398163397428);
#716=CONICAL_SURFACE('',#843,38.3816178594403,0.349065850398874);
#717=CONICAL_SURFACE('',#847,38.6,1.22173047639603);
#718=CONICAL_SURFACE('',#849,56.75,0.785398163397462);
#719=CONICAL_SURFACE('',#865,56.75,0.785398163397462);
#720=ADVANCED_FACE('',(#51),#699,.F.);
#721=ADVANCED_FACE('',(#52),#700,.F.);
#722=ADVANCED_FACE('',(#53),#701,.F.);
#723=ADVANCED_FACE('',(#54),#702,.F.);
#724=ADVANCED_FACE('',(#55),#703,.F.);
#725=ADVANCED_FACE('',(#56),#704,.F.);
#726=ADVANCED_FACE('',(#57),#705,.F.);
#727=ADVANCED_FACE('',(#58),#706,.F.);
#728=ADVANCED_FACE('',(#59),#707,.F.);
#729=ADVANCED_FACE('',(#60),#708,.F.);
#730=ADVANCED_FACE('',(#61),#709,.F.);
#731=ADVANCED_FACE('',(#62),#710,.F.);
#732=ADVANCED_FACE('',(#63),#711,.F.);
#733=ADVANCED_FACE('',(#64),#712,.F.);
#734=ADVANCED_FACE('',(#65),#713,.F.);
#735=ADVANCED_FACE('',(#66),#714,.F.);
#736=ADVANCED_FACE('',(#67),#715,.T.);
#737=ADVANCED_FACE('',(#68),#41,.F.);
#738=ADVANCED_FACE('',(#69),#42,.F.);
#739=ADVANCED_FACE('',(#70),#43,.F.);
#740=ADVANCED_FACE('',(#71),#44,.F.);
#741=ADVANCED_FACE('',(#72),#45,.F.);
#742=ADVANCED_FACE('',(#73),#46,.F.);
#743=ADVANCED_FACE('',(#74),#47,.F.);
#744=ADVANCED_FACE('',(#75),#48,.F.);
#745=ADVANCED_FACE('',(#76),#716,.F.);
#746=ADVANCED_FACE('',(#77),#717,.T.);
#747=ADVANCED_FACE('',(#78),#718,.T.);
#748=ADVANCED_FACE('',(#79),#49,.F.);
#749=ADVANCED_FACE('',(#80),#50,.T.);
#750=ADVANCED_FACE('',(#81,#15,#16,#17,#18),#31,.F.);
#751=ADVANCED_FACE('',(#82),#719,.T.);
#752=ADVANCED_FACE('',(#83,#19,#20,#21,#22),#32,.F.);
#753=ADVANCED_FACE('',(#84),#33,.F.);
#754=ADVANCED_FACE('',(#85,#23,#24,#25,#26,#27,#28,#29,#30),#34,.F.);
#755=ADVANCED_FACE('',(#86),#35,.F.);
#756=ADVANCED_FACE('',(#87),#36,.T.);
#757=ADVANCED_FACE('',(#88),#37,.F.);
#758=ADVANCED_FACE('',(#89),#38,.F.);
#759=ADVANCED_FACE('',(#90),#39,.T.);
#760=ADVANCED_FACE('',(#91),#40,.F.);
#761=CLOSED_SHELL('',(#720,#721,#722,#723,#724,#725,#726,#727,#728,#729,
#730,#731,#732,#733,#734,#735,#736,#737,#738,#739,#740,#741,#742,#743,#744,
#745,#746,#747,#748,#749,#750,#751,#752,#753,#754,#755,#756,#757,#758,#759,
#760));
#762=DERIVED_UNIT_ELEMENT(#764,1.);
#763=DERIVED_UNIT_ELEMENT(#1350,-3.);
#764=(
MASS_UNIT()
NAMED_UNIT(*)
SI_UNIT(.KILO.,.GRAM.)
);
#765=DERIVED_UNIT((#762,#763));
#766=MEASURE_REPRESENTATION_ITEM('density measure',
POSITIVE_RATIO_MEASURE(7850.),#765);
#767=PROPERTY_DEFINITION_REPRESENTATION(#772,#769);
#768=PROPERTY_DEFINITION_REPRESENTATION(#773,#770);
#769=REPRESENTATION('material name',(#771),#1347);
#770=REPRESENTATION('density',(#766),#1347);
#771=DESCRIPTIVE_REPRESENTATION_ITEM('Steel','Steel');
#772=PROPERTY_DEFINITION('material property','material name',#1357);
#773=PROPERTY_DEFINITION('material property','density of part',#1357);
#774=AXIS2_PLACEMENT_3D('',#1126,#875,#876);
#775=AXIS2_PLACEMENT_3D('',#1127,#877,#878);
#776=AXIS2_PLACEMENT_3D('',#1130,#879,#880);
#777=AXIS2_PLACEMENT_3D('',#1131,#881,#882);
#778=AXIS2_PLACEMENT_3D('',#1134,#884,#885);
#779=AXIS2_PLACEMENT_3D('',#1135,#886,#887);
#780=AXIS2_PLACEMENT_3D('',#1137,#888,#889);
#781=AXIS2_PLACEMENT_3D('',#1140,#891,#892);
#782=AXIS2_PLACEMENT_3D('',#1141,#893,#894);
#783=AXIS2_PLACEMENT_3D('',#1144,#895,#896);
#784=AXIS2_PLACEMENT_3D('',#1145,#897,#898);
#785=AXIS2_PLACEMENT_3D('',#1148,#900,#901);
#786=AXIS2_PLACEMENT_3D('',#1149,#902,#903);
#787=AXIS2_PLACEMENT_3D('',#1151,#904,#905);
#788=AXIS2_PLACEMENT_3D('',#1154,#907,#908);
#789=AXIS2_PLACEMENT_3D('',#1155,#909,#910);
#790=AXIS2_PLACEMENT_3D('',#1158,#911,#912);
#791=AXIS2_PLACEMENT_3D('',#1159,#913,#914);
#792=AXIS2_PLACEMENT_3D('',#1162,#916,#917);
#793=AXIS2_PLACEMENT_3D('',#1163,#918,#919);
#794=AXIS2_PLACEMENT_3D('',#1165,#920,#921);
#795=AXIS2_PLACEMENT_3D('',#1168,#923,#924);
#796=AXIS2_PLACEMENT_3D('',#1169,#925,#926);
#797=AXIS2_PLACEMENT_3D('',#1172,#927,#928);
#798=AXIS2_PLACEMENT_3D('',#1173,#929,#930);
#799=AXIS2_PLACEMENT_3D('',#1176,#932,#933);
#800=AXIS2_PLACEMENT_3D('',#1177,#934,#935);
#801=AXIS2_PLACEMENT_3D('',#1179,#936,#937);
#802=AXIS2_PLACEMENT_3D('',#1182,#939,#940);
#803=AXIS2_PLACEMENT_3D('',#1183,#941,#942);
#804=AXIS2_PLACEMENT_3D('',#1186,#943,#944);
#805=AXIS2_PLACEMENT_3D('',#1187,#945,#946);
#806=AXIS2_PLACEMENT_3D('',#1190,#948,#949);
#807=AXIS2_PLACEMENT_3D('',#1191,#950,#951);
#808=AXIS2_PLACEMENT_3D('',#1193,#952,#953);
#809=AXIS2_PLACEMENT_3D('',#1196,#955,#956);
#810=AXIS2_PLACEMENT_3D('',#1197,#957,#958);
#811=AXIS2_PLACEMENT_3D('',#1200,#959,#960);
#812=AXIS2_PLACEMENT_3D('',#1201,#961,#962);
#813=AXIS2_PLACEMENT_3D('',#1204,#964,#965);
#814=AXIS2_PLACEMENT_3D('',#1205,#966,#967);
#815=AXIS2_PLACEMENT_3D('',#1207,#968,#969);
#816=AXIS2_PLACEMENT_3D('',#1210,#971,#972);
#817=AXIS2_PLACEMENT_3D('',#1211,#973,#974);
#818=AXIS2_PLACEMENT_3D('',#1214,#975,#976);
#819=AXIS2_PLACEMENT_3D('',#1215,#977,#978);
#820=AXIS2_PLACEMENT_3D('',#1218,#980,#981);
#821=AXIS2_PLACEMENT_3D('',#1219,#982,#983);
#822=AXIS2_PLACEMENT_3D('',#1221,#984,#985);
#823=AXIS2_PLACEMENT_3D('',#1224,#987,#988);
#824=AXIS2_PLACEMENT_3D('',#1225,#989,#990);
#825=AXIS2_PLACEMENT_3D('',#1228,#991,#992);
#826=AXIS2_PLACEMENT_3D('',#1229,#993,#994);
#827=AXIS2_PLACEMENT_3D('',#1232,#996,#997);
#828=AXIS2_PLACEMENT_3D('',#1233,#998,#999);
#829=AXIS2_PLACEMENT_3D('',#1235,#1000,#1001);
#830=AXIS2_PLACEMENT_3D('',#1238,#1003,#1004);
#831=AXIS2_PLACEMENT_3D('',#1239,#1005,#1006);
#832=AXIS2_PLACEMENT_3D('',#1242,#1007,#1008);
#833=AXIS2_PLACEMENT_3D('',#1243,#1009,#1010);
#834=AXIS2_PLACEMENT_3D('',#1246,#1012,#1013);
#835=AXIS2_PLACEMENT_3D('',#1247,#1014,#1015);
#836=AXIS2_PLACEMENT_3D('',#1249,#1017,#1018);
#837=AXIS2_PLACEMENT_3D('',#1251,#1020,#1021);
#838=AXIS2_PLACEMENT_3D('',#1253,#1023,#1024);
#839=AXIS2_PLACEMENT_3D('',#1255,#1026,#1027);
#840=AXIS2_PLACEMENT_3D('',#1257,#1029,#1030);
#841=AXIS2_PLACEMENT_3D('',#1259,#1032,#1033);
#842=AXIS2_PLACEMENT_3D('',#1261,#1035,#1036);
#843=AXIS2_PLACEMENT_3D('',#1263,#1038,#1039);
#844=AXIS2_PLACEMENT_3D('',#1265,#1040,#1041);
#845=AXIS2_PLACEMENT_3D('',#1269,#1043,#1044);
#846=AXIS2_PLACEMENT_3D('',#1270,#1045,#1046);
#847=AXIS2_PLACEMENT_3D('',#1271,#1047,#1048);
#848=AXIS2_PLACEMENT_3D('',#1273,#1049,#1050);
#849=AXIS2_PLACEMENT_3D('',#1275,#1052,#1053);
#850=AXIS2_PLACEMENT_3D('',#1278,#1054,#1055);
#851=AXIS2_PLACEMENT_3D('',#1282,#1057,#1058);
#852=AXIS2_PLACEMENT_3D('',#1284,#1060,#1061);
#853=AXIS2_PLACEMENT_3D('',#1287,#1062,#1063);
#854=AXIS2_PLACEMENT_3D('',#1291,#1065,#1066);
#855=AXIS2_PLACEMENT_3D('',#1295,#1068,#1069);
#856=AXIS2_PLACEMENT_3D('',#1298,#1071,#1072);
#857=AXIS2_PLACEMENT_3D('',#1302,#1074,#1075);
#858=AXIS2_PLACEMENT_3D('',#1304,#1077,#1078);
#859=AXIS2_PLACEMENT_3D('',#1308,#1080,#1081);
#860=AXIS2_PLACEMENT_3D('',#1312,#1083,#1084);
#861=AXIS2_PLACEMENT_3D('',#1317,#1087,#1088);
#862=AXIS2_PLACEMENT_3D('',#1320,#1090,#1091);
#863=AXIS2_PLACEMENT_3D('',#1321,#1092,#1093);
#864=AXIS2_PLACEMENT_3D('',#1326,#1096,#1097);
#865=AXIS2_PLACEMENT_3D('',#1327,#1098,#1099);
#866=AXIS2_PLACEMENT_3D('',#1330,#1102,#1103);
#867=AXIS2_PLACEMENT_3D('',#1333,#1106,#1107);
#868=AXIS2_PLACEMENT_3D('',#1334,#1108,#1109);
#869=AXIS2_PLACEMENT_3D('',#1335,#1110,#1111);
#870=AXIS2_PLACEMENT_3D('',#1338,#1114,#1115);
#871=AXIS2_PLACEMENT_3D('',#1339,#1116,#1117);
#872=AXIS2_PLACEMENT_3D('',#1340,#1118,#1119);
#873=AXIS2_PLACEMENT_3D('',#1343,#1122,#1123);
#874=AXIS2_PLACEMENT_3D('',#1344,#1124,#1125);
#875=DIRECTION('axis',(0.,0.,1.));
#876=DIRECTION('refdir',(1.,0.,0.));
#877=DIRECTION('center_axis',(0.,-1.,0.));
#878=DIRECTION('ref_axis',(0.,0.,-1.));
#879=DIRECTION('center_axis',(0.,-1.,0.));
#880=DIRECTION('ref_axis',(0.,0.,1.));
#881=DIRECTION('center_axis',(0.,-1.,0.));
#882=DIRECTION('ref_axis',(0.,0.,1.));
#883=DIRECTION('',(-8.65956056235511E-17,-0.707106781186533,0.707106781186562));
#884=DIRECTION('center_axis',(0.,1.,0.));
#885=DIRECTION('ref_axis',(0.,0.,1.));
#886=DIRECTION('center_axis',(0.,1.,0.));
#887=DIRECTION('ref_axis',(0.,0.,1.));
#888=DIRECTION('center_axis',(0.,1.,0.));
#889=DIRECTION('ref_axis',(0.,0.,-1.));
#890=DIRECTION('',(-8.65956056235496E-17,0.707106781186545,-0.70710678118655));
#891=DIRECTION('center_axis',(0.,-1.,0.));
#892=DIRECTION('ref_axis',(0.,0.,-1.));
#893=DIRECTION('center_axis',(0.,-1.,0.));
#894=DIRECTION('ref_axis',(0.,0.,-1.));
#895=DIRECTION('center_axis',(0.,-1.,0.));
#896=DIRECTION('ref_axis',(0.,0.,1.));
#897=DIRECTION('center_axis',(0.,-1.,0.));
#898=DIRECTION('ref_axis',(0.,0.,1.));
#899=DIRECTION('',(-8.65956056235478E-17,-0.70710678118656,0.707106781186535));
#900=DIRECTION('center_axis',(0.,1.,0.));
#901=DIRECTION('ref_axis',(0.,0.,1.));
#902=DIRECTION('center_axis',(0.,1.,0.));
#903=DIRECTION('ref_axis',(0.,0.,1.));
#904=DIRECTION('center_axis',(0.,1.,0.));
#905=DIRECTION('ref_axis',(0.,0.,-1.));
#906=DIRECTION('',(-8.65956056235494E-17,0.707106781186548,-0.707106781186548));
#907=DIRECTION('center_axis',(0.,-1.,0.));
#908=DIRECTION('ref_axis',(0.,0.,-1.));
#909=DIRECTION('center_axis',(0.,-1.,0.));
#910=DIRECTION('ref_axis',(0.,0.,-1.));
#911=DIRECTION('center_axis',(0.,-1.,0.));
#912=DIRECTION('ref_axis',(0.,0.,1.));
#913=DIRECTION('center_axis',(0.,-1.,0.));
#914=DIRECTION('ref_axis',(0.,0.,1.));
#915=DIRECTION('',(-8.65956056235498E-17,-0.707106781186544,0.707106781186551));
#916=DIRECTION('center_axis',(0.,1.,0.));
#917=DIRECTION('ref_axis',(0.,0.,1.));
#918=DIRECTION('center_axis',(0.,1.,0.));
#919=DIRECTION('ref_axis',(0.,0.,1.));
#920=DIRECTION('center_axis',(0.,1.,0.));
#921=DIRECTION('ref_axis',(0.,0.,-1.));
#922=DIRECTION('',(-8.65956056235483E-17,0.707106781186556,-0.707106781186539));
#923=DIRECTION('center_axis',(0.,-1.,0.));
#924=DIRECTION('ref_axis',(0.,0.,-1.));
#925=DIRECTION('center_axis',(0.,-1.,0.));
#926=DIRECTION('ref_axis',(0.,0.,-1.));
#927=DIRECTION('center_axis',(0.,-1.,0.));
#928=DIRECTION('ref_axis',(0.,0.,1.));
#929=DIRECTION('center_axis',(0.,-1.,0.));
#930=DIRECTION('ref_axis',(0.,0.,1.));
#931=DIRECTION('',(-8.65956056235478E-17,-0.70710678118656,0.707106781186535));
#932=DIRECTION('center_axis',(0.,1.,0.));
#933=DIRECTION('ref_axis',(0.,0.,1.));
#934=DIRECTION('center_axis',(0.,1.,0.));
#935=DIRECTION('ref_axis',(0.,0.,1.));
#936=DIRECTION('center_axis',(0.,1.,0.));
#937=DIRECTION('ref_axis',(0.,0.,-1.));
#938=DIRECTION('',(-8.65956056235494E-17,0.707106781186548,-0.707106781186548));
#939=DIRECTION('center_axis',(0.,-1.,0.));
#940=DIRECTION('ref_axis',(0.,0.,-1.));
#941=DIRECTION('center_axis',(0.,-1.,0.));
#942=DIRECTION('ref_axis',(0.,0.,-1.));
#943=DIRECTION('center_axis',(0.,-1.,0.));
#944=DIRECTION('ref_axis',(0.,0.,1.));
#945=DIRECTION('center_axis',(0.,-1.,0.));
#946=DIRECTION('ref_axis',(0.,0.,1.));
#947=DIRECTION('',(-8.65956056235517E-17,-0.707106781186528,0.707106781186567));
#948=DIRECTION('center_axis',(0.,1.,0.));
#949=DIRECTION('ref_axis',(0.,0.,1.));
#950=DIRECTION('center_axis',(0.,1.,0.));
#951=DIRECTION('ref_axis',(0.,0.,1.));
#952=DIRECTION('center_axis',(0.,1.,0.));
#953=DIRECTION('ref_axis',(0.,0.,-1.));
#954=DIRECTION('',(-8.65956056235502E-17,0.707106781186541,-0.707106781186554));
#955=DIRECTION('center_axis',(0.,-1.,0.));
#956=DIRECTION('ref_axis',(0.,0.,-1.));
#957=DIRECTION('center_axis',(0.,-1.,0.));
#958=DIRECTION('ref_axis',(0.,0.,-1.));
#959=DIRECTION('center_axis',(0.,-1.,0.));
#960=DIRECTION('ref_axis',(0.,0.,1.));
#961=DIRECTION('center_axis',(0.,-1.,0.));
#962=DIRECTION('ref_axis',(0.,0.,1.));
#963=DIRECTION('',(-8.65956056235478E-17,-0.70710678118656,0.707106781186535));
#964=DIRECTION('center_axis',(0.,1.,0.));
#965=DIRECTION('ref_axis',(0.,0.,1.));
#966=DIRECTION('center_axis',(0.,1.,0.));
#967=DIRECTION('ref_axis',(0.,0.,1.));
#968=DIRECTION('center_axis',(0.,1.,0.));
#969=DIRECTION('ref_axis',(0.,0.,-1.));
#970=DIRECTION('',(-8.65956056235494E-17,0.707106781186548,-0.707106781186548));
#971=DIRECTION('center_axis',(0.,-1.,0.));
#972=DIRECTION('ref_axis',(0.,0.,-1.));
#973=DIRECTION('center_axis',(0.,-1.,0.));
#974=DIRECTION('ref_axis',(0.,0.,-1.));
#975=DIRECTION('center_axis',(0.,-1.,0.));
#976=DIRECTION('ref_axis',(0.,0.,1.));
#977=DIRECTION('center_axis',(0.,-1.,0.));
#978=DIRECTION('ref_axis',(0.,0.,1.));
#979=DIRECTION('',(-8.65956056235507E-17,-0.707106781186536,0.707106781186559));
#980=DIRECTION('center_axis',(0.,1.,0.));
#981=DIRECTION('ref_axis',(0.,0.,1.));
#982=DIRECTION('center_axis',(0.,1.,0.));
#983=DIRECTION('ref_axis',(0.,0.,1.));
#984=DIRECTION('center_axis',(0.,1.,0.));
#985=DIRECTION('ref_axis',(0.,0.,-1.));
#986=DIRECTION('',(-8.65956056235507E-17,0.707106781186536,-0.707106781186559));
#987=DIRECTION('center_axis',(0.,-1.,0.));
#988=DIRECTION('ref_axis',(0.,0.,-1.));
#989=DIRECTION('center_axis',(0.,-1.,0.));
#990=DIRECTION('ref_axis',(0.,0.,-1.));
#991=DIRECTION('center_axis',(0.,-1.,0.));
#992=DIRECTION('ref_axis',(0.,0.,1.));
#993=DIRECTION('center_axis',(0.,-1.,0.));
#994=DIRECTION('ref_axis',(0.,0.,1.));
#995=DIRECTION('',(-8.65956056235478E-17,-0.70710678118656,0.707106781186535));
#996=DIRECTION('center_axis',(0.,1.,0.));
#997=DIRECTION('ref_axis',(0.,0.,1.));
#998=DIRECTION('center_axis',(0.,1.,0.));
#999=DIRECTION('ref_axis',(0.,0.,1.));
#1000=DIRECTION('center_axis',(0.,1.,0.));
#1001=DIRECTION('ref_axis',(0.,0.,-1.));
#1002=DIRECTION('',(-8.65956056235494E-17,0.707106781186548,-0.707106781186548));
#1003=DIRECTION('center_axis',(0.,-1.,0.));
#1004=DIRECTION('ref_axis',(0.,0.,-1.));
#1005=DIRECTION('center_axis',(0.,1.,0.));
#1006=DIRECTION('ref_axis',(0.,0.,1.));
#1007=DIRECTION('center_axis',(0.,1.,0.));
#1008=DIRECTION('ref_axis',(0.,0.,1.));
#1009=DIRECTION('center_axis',(0.,1.,0.));
#1010=DIRECTION('ref_axis',(0.,0.,1.));
#1011=DIRECTION('',(8.65956056235475E-17,-0.707106781186562,0.707106781186533));
#1012=DIRECTION('center_axis',(0.,-1.,0.));
#1013=DIRECTION('ref_axis',(0.,0.,1.));
#1014=DIRECTION('center_axis',(0.,1.,0.));
#1015=DIRECTION('ref_axis',(0.,0.,1.));
#1016=DIRECTION('',(0.,1.,0.));
#1017=DIRECTION('center_axis',(0.,1.,0.));
#1018=DIRECTION('ref_axis',(0.,0.,1.));
#1019=DIRECTION('',(0.,1.,0.));
#1020=DIRECTION('center_axis',(0.,1.,0.));
#1021=DIRECTION('ref_axis',(0.,0.,1.));
#1022=DIRECTION('',(0.,1.,0.));
#1023=DIRECTION('center_axis',(0.,1.,0.));
#1024=DIRECTION('ref_axis',(0.,0.,1.));
#1025=DIRECTION('',(0.,1.,0.));
#1026=DIRECTION('center_axis',(0.,1.,0.));
#1027=DIRECTION('ref_axis',(0.,0.,1.));
#1028=DIRECTION('',(0.,1.,0.));
#1029=DIRECTION('center_axis',(0.,1.,0.));
#1030=DIRECTION('ref_axis',(0.,0.,1.));
#1031=DIRECTION('',(0.,1.,0.));
#1032=DIRECTION('center_axis',(0.,1.,0.));
#1033=DIRECTION('ref_axis',(0.,0.,1.));
#1034=DIRECTION('',(0.,1.,0.));
#1035=DIRECTION('center_axis',(0.,1.,0.));
#1036=DIRECTION('ref_axis',(0.,0.,1.));
#1037=DIRECTION('',(0.,1.,0.));
#1038=DIRECTION('center_axis',(0.,1.,0.));
#1039=DIRECTION('ref_axis',(0.,0.,1.));
#1040=DIRECTION('center_axis',(0.,-1.,0.));
#1041=DIRECTION('ref_axis',(0.,0.,-1.));
#1042=DIRECTION('',(-4.18853873767708E-17,0.939692620785906,-0.342020143325676));
#1043=DIRECTION('center_axis',(0.,-1.,0.));
#1044=DIRECTION('ref_axis',(0.,0.,-1.));
#1045=DIRECTION('center_axis',(0.,-1.,0.));
#1046=DIRECTION('ref_axis',(0.,0.,-1.));
#1047=DIRECTION('center_axis',(0.,-1.,0.));
#1048=DIRECTION('ref_axis',(0.,0.,-1.));
#1049=DIRECTION('center_axis',(0.,-1.,0.));
#1050=DIRECTION('ref_axis',(0.,0.,-1.));
#1051=DIRECTION('',(1.15079156022785E-16,0.342020143325674,-0.939692620785907));
#1052=DIRECTION('center_axis',(0.,-1.,0.));
#1053=DIRECTION('ref_axis',(0.,0.,-1.));
#1054=DIRECTION('center_axis',(0.,1.,0.));
#1055=DIRECTION('ref_axis',(0.,0.,-1.));
#1056=DIRECTION('',(-0.270619244774561,0.707051392424245,-0.653332650973899));
#1057=DIRECTION('center_axis',(0.,-1.,0.));
#1058=DIRECTION('ref_axis',(0.,0.,-1.));
#1059=DIRECTION('',(0.270619244774561,0.707051392424236,0.653332650973909));
#1060=DIRECTION('center_axis',(0.,-1.,0.));
#1061=DIRECTION('ref_axis',(0.,0.,-1.));
#1062=DIRECTION('center_axis',(0.,-1.,0.));
#1063=DIRECTION('ref_axis',(0.,0.,-1.));
#1064=DIRECTION('',(0.,1.,0.));
#1065=DIRECTION('center_axis',(0.,1.,0.));
#1066=DIRECTION('ref_axis',(0.,0.,-1.));
#1067=DIRECTION('',(0.,1.,0.));
#1068=DIRECTION('center_axis',(0.,-1.,0.));
#1069=DIRECTION('ref_axis',(0.,0.,-1.));
#1070=DIRECTION('',(0.,-1.,0.));
#1071=DIRECTION('center_axis',(0.,-1.,0.));
#1072=DIRECTION('ref_axis',(0.,0.,-1.));
#1073=DIRECTION('',(0.,1.,0.));
#1074=DIRECTION('center_axis',(0.,1.,0.));
#1075=DIRECTION('ref_axis',(0.,0.,-1.));
#1076=DIRECTION('',(0.,1.,0.));
#1077=DIRECTION('center_axis',(0.,-1.,0.));
#1078=DIRECTION('ref_axis',(0.,0.,-1.));
#1079=DIRECTION('',(0.,1.,0.));
#1080=DIRECTION('center_axis',(0.,-1.,0.));
#1081=DIRECTION('ref_axis',(0.,0.,-1.));
#1082=DIRECTION('',(0.,-1.,0.));
#1083=DIRECTION('center_axis',(0.,-1.,0.));
#1084=DIRECTION('ref_axis',(0.,0.,-1.));
#1085=DIRECTION('',(0.,-1.,0.));
#1086=DIRECTION('',(0.,-1.,0.));
#1087=DIRECTION('center_axis',(0.,-1.,0.));
#1088=DIRECTION('ref_axis',(0.,0.,-1.));
#1089=DIRECTION('',(0.,-1.,0.));
#1090=DIRECTION('center_axis',(0.,-1.,0.));
#1091=DIRECTION('ref_axis',(0.,0.,-1.));
#1092=DIRECTION('center_axis',(0.,-1.,0.));
#1093=DIRECTION('ref_axis',(0.,0.,-1.));
#1094=DIRECTION('',(-0.382683432365084,0.,-0.923879532511289));
#1095=DIRECTION('',(0.382683432365091,0.,0.923879532511287));
#1096=DIRECTION('center_axis',(0.,1.,0.));
#1097=DIRECTION('ref_axis',(0.,0.,-1.));
#1098=DIRECTION('center_axis',(0.,-1.,0.));
#1099=DIRECTION('ref_axis',(-0.923879532511288,0.,0.382683432365087));
#1100=DIRECTION('',(-0.270619244774561,0.707051392424244,-0.6533326509739));
#1101=DIRECTION('',(0.270619244774558,0.707051392424239,0.653332650973906));
#1102=DIRECTION('center_axis',(0.,-1.,0.));
#1103=DIRECTION('ref_axis',(0.,0.,-1.));
#1104=DIRECTION('',(-0.382683432365084,0.,-0.923879532511289));
#1105=DIRECTION('',(0.38268343236509,0.,0.923879532511287));
#1106=DIRECTION('center_axis',(0.,-1.,0.));
#1107=DIRECTION('ref_axis',(0.,0.,-1.));
#1108=DIRECTION('center_axis',(0.,1.,0.));
#1109=DIRECTION('ref_axis',(0.,0.,1.));
#1110=DIRECTION('center_axis',(0.,-1.,0.));
#1111=DIRECTION('ref_axis',(0.,0.,-1.));
#1112=DIRECTION('',(0.382683432365091,0.,0.923879532511287));
#1113=DIRECTION('',(0.38268343236509,0.,0.923879532511287));
#1114=DIRECTION('center_axis',(-0.923879532511287,0.,0.38268343236509));
#1115=DIRECTION('ref_axis',(0.38268343236509,0.,0.923879532511287));
#1116=DIRECTION('center_axis',(-0.923879532511287,0.,0.382683432365091));
#1117=DIRECTION('ref_axis',(0.382683432365091,0.,0.923879532511287));
#1118=DIRECTION('center_axis',(0.,-1.,0.));
#1119=DIRECTION('ref_axis',(-6.98296672221876E-15,0.,1.));
#1120=DIRECTION('',(-0.382683432365084,0.,-0.923879532511289));
#1121=DIRECTION('',(-0.382683432365084,0.,-0.923879532511289));
#1122=DIRECTION('center_axis',(0.923879532511289,0.,-0.382683432365084));
#1123=DIRECTION('ref_axis',(-0.382683432365084,0.,-0.923879532511289));
#1124=DIRECTION('center_axis',(0.923879532511289,0.,-0.382683432365084));
#1125=DIRECTION('ref_axis',(-0.382683432365084,0.,-0.923879532511289));
#1126=CARTESIAN_POINT('',(0.,0.,0.));
#1127=CARTESIAN_POINT('Origin',(32.5622672736403,-17.5,32.5622672736407));
#1128=CARTESIAN_POINT('',(32.5622672736403,-17.1,28.3622672736407));
#1129=CARTESIAN_POINT('',(32.5622672736403,-17.1,36.7622672736407));
#1130=CARTESIAN_POINT('Origin',(32.5622672736403,-17.1,32.5622672736407));
#1131=CARTESIAN_POINT('Origin',(32.5622672736403,-17.1,32.5622672736407));
#1132=CARTESIAN_POINT('',(32.5622672736403,-17.5,37.1622672736407));
#1133=CARTESIAN_POINT('',(32.5622672736403,-17.5,37.1622672736407));
#1134=CARTESIAN_POINT('Origin',(32.5622672736403,-17.5,32.5622672736407));
#1135=CARTESIAN_POINT('Origin',(32.5622672736403,-0.399999999999977,32.5622672736407));
#1136=CARTESIAN_POINT('',(32.5622672736403,-0.399999999999977,28.3622672736407));
#1137=CARTESIAN_POINT('Origin',(32.5622672736403,-0.399999999999977,32.5622672736407));
#1138=CARTESIAN_POINT('',(32.5622672736403,2.77555756156289E-16,27.9622672736407));
#1139=CARTESIAN_POINT('',(32.5622672736403,-0.399999999999977,28.3622672736407));
#1140=CARTESIAN_POINT('Origin',(32.5622672736403,0.,32.5622672736407));
#1141=CARTESIAN_POINT('Origin',(-3.21565617558174E-13,-17.5,46.05));
#1142=CARTESIAN_POINT('',(-3.21051265902532E-13,-17.1,41.85));
#1143=CARTESIAN_POINT('',(-3.22079969213816E-13,-17.1,50.25));
#1144=CARTESIAN_POINT('Origin',(-3.21565617558174E-13,-17.1,46.05));
#1145=CARTESIAN_POINT('Origin',(-3.21565617558174E-13,-17.1,46.05));
#1146=CARTESIAN_POINT('',(-3.22128955085782E-13,-17.5,50.65));
#1147=CARTESIAN_POINT('',(-3.22128955085782E-13,-17.5,50.65));
#1148=CARTESIAN_POINT('Origin',(-3.21565617558174E-13,-17.5,46.05));
#1149=CARTESIAN_POINT('Origin',(-3.21565617558174E-13,-0.399999999999977,
46.05));
#1150=CARTESIAN_POINT('',(-3.22079969213816E-13,-0.399999999999978,41.85));
#1151=CARTESIAN_POINT('Origin',(-3.21565617558174E-13,-0.399999999999977,
46.05));
#1152=CARTESIAN_POINT('',(-3.22128955085782E-13,3.12250225675825E-15,41.45));
#1153=CARTESIAN_POINT('',(-3.22079969213816E-13,-0.399999999999977,41.85));
#1154=CARTESIAN_POINT('Origin',(-3.21565617558174E-13,0.,46.05));
#1155=CARTESIAN_POINT('Origin',(-32.5622672736408,-17.5,32.5622672736402));
#1156=CARTESIAN_POINT('',(-32.5622672736408,-17.1,28.3622672736402));
#1157=CARTESIAN_POINT('',(-32.5622672736408,-17.1,36.7622672736402));
#1158=CARTESIAN_POINT('Origin',(-32.5622672736408,-17.1,32.5622672736402));
#1159=CARTESIAN_POINT('Origin',(-32.5622672736408,-17.1,32.5622672736402));
#1160=CARTESIAN_POINT('',(-32.5622672736408,-17.5,37.1622672736402));
#1161=CARTESIAN_POINT('',(-32.5622672736408,-17.5,37.1622672736402));
#1162=CARTESIAN_POINT('Origin',(-32.5622672736408,-17.5,32.5622672736402));
#1163=CARTESIAN_POINT('Origin',(-32.5622672736408,-0.400000000000018,32.5622672736402));
#1164=CARTESIAN_POINT('',(-32.5622672736408,-0.400000000000019,28.3622672736402));
#1165=CARTESIAN_POINT('Origin',(-32.5622672736408,-0.400000000000018,32.5622672736402));
#1166=CARTESIAN_POINT('',(-32.5622672736408,9.0205620750794E-16,27.9622672736402));
#1167=CARTESIAN_POINT('',(-32.5622672736408,-0.400000000000018,28.3622672736402));
#1168=CARTESIAN_POINT('Origin',(-32.5622672736408,0.,32.5622672736402));
#1169=CARTESIAN_POINT('Origin',(-46.05,-17.5,-4.82348426337261E-13));
#1170=CARTESIAN_POINT('',(-46.05,-17.1,-4.20000000000048));
#1171=CARTESIAN_POINT('',(-46.05,-17.1,4.19999999999952));
#1172=CARTESIAN_POINT('Origin',(-46.05,-17.1,-4.82348426337261E-13));
#1173=CARTESIAN_POINT('Origin',(-46.05,-17.1,-4.82348426337261E-13));
#1174=CARTESIAN_POINT('',(-46.05,-17.5,4.59999999999955));
#1175=CARTESIAN_POINT('',(-46.05,-17.5,4.59999999999955));
#1176=CARTESIAN_POINT('Origin',(-46.05,-17.5,-4.82348426337261E-13));
#1177=CARTESIAN_POINT('Origin',(-46.05,-0.399999999999977,-4.82348426337261E-13));
#1178=CARTESIAN_POINT('',(-46.05,-0.399999999999977,-4.20000000000048));
#1179=CARTESIAN_POINT('Origin',(-46.05,-0.399999999999977,-4.82348426337261E-13));
#1180=CARTESIAN_POINT('',(-46.05,3.12250225675825E-15,-4.60000000000046));
#1181=CARTESIAN_POINT('',(-46.05,-0.399999999999977,-4.20000000000048));
#1182=CARTESIAN_POINT('Origin',(-46.05,0.,-4.82348426337261E-13));
#1183=CARTESIAN_POINT('Origin',(-32.5622672736401,-17.5,-32.5622672736409));
#1184=CARTESIAN_POINT('',(-32.5622672736401,-17.1,-36.7622672736409));
#1185=CARTESIAN_POINT('',(-32.5622672736401,-17.1,-28.3622672736409));
#1186=CARTESIAN_POINT('Origin',(-32.5622672736401,-17.1,-32.5622672736409));
#1187=CARTESIAN_POINT('Origin',(-32.5622672736401,-17.1,-32.5622672736409));
#1188=CARTESIAN_POINT('',(-32.5622672736401,-17.5,-27.9622672736409));
#1189=CARTESIAN_POINT('',(-32.5622672736401,-17.5,-27.9622672736409));
#1190=CARTESIAN_POINT('Origin',(-32.5622672736401,-17.5,-32.5622672736409));
#1191=CARTESIAN_POINT('Origin',(-32.5622672736401,-0.399999999999977,-32.5622672736409));
#1192=CARTESIAN_POINT('',(-32.5622672736401,-0.399999999999977,-36.7622672736409));
#1193=CARTESIAN_POINT('Origin',(-32.5622672736401,-0.399999999999977,-32.5622672736409));
#1194=CARTESIAN_POINT('',(-32.5622672736401,-1.38777878078145E-16,-37.1622672736409));
#1195=CARTESIAN_POINT('',(-32.5622672736401,-0.399999999999977,-36.7622672736409));
#1196=CARTESIAN_POINT('Origin',(-32.5622672736401,0.,-32.5622672736409));
#1197=CARTESIAN_POINT('Origin',(0.,-17.5,-46.05));
#1198=CARTESIAN_POINT('',(5.14351655641889E-16,-17.1,-50.25));
#1199=CARTESIAN_POINT('',(-5.14351655641889E-16,-17.1,-41.85));
#1200=CARTESIAN_POINT('Origin',(0.,-17.1,-46.05));
#1201=CARTESIAN_POINT('Origin',(0.,-17.1,-46.05));
#1202=CARTESIAN_POINT('',(-5.63337527607787E-16,-17.5,-41.45));
#1203=CARTESIAN_POINT('',(-5.63337527607787E-16,-17.5,-41.45));
#1204=CARTESIAN_POINT('Origin',(0.,-17.5,-46.05));
#1205=CARTESIAN_POINT('Origin',(0.,-0.399999999999977,-46.05));
#1206=CARTESIAN_POINT('',(-5.14351655641888E-16,-0.399999999999978,-50.25));
#1207=CARTESIAN_POINT('Origin',(0.,-0.399999999999977,-46.05));
#1208=CARTESIAN_POINT('',(-5.6333752760778E-16,3.12250225675825E-15,-50.65));
#1209=CARTESIAN_POINT('',(-5.14351655641889E-16,-0.399999999999977,-50.25));
#1210=CARTESIAN_POINT('Origin',(0.,0.,-46.05));
#1211=CARTESIAN_POINT('Origin',(32.5622672736406,-17.5,-32.5622672736405));
#1212=CARTESIAN_POINT('',(32.5622672736406,-17.1,-36.7622672736405));
#1213=CARTESIAN_POINT('',(32.5622672736406,-17.1,-28.3622672736404));
#1214=CARTESIAN_POINT('Origin',(32.5622672736406,-17.1,-32.5622672736405));
#1215=CARTESIAN_POINT('Origin',(32.5622672736406,-17.1,-32.5622672736405));
#1216=CARTESIAN_POINT('',(32.5622672736406,-17.5,-27.9622672736404));
#1217=CARTESIAN_POINT('',(32.5622672736406,-17.5,-27.9622672736404));
#1218=CARTESIAN_POINT('Origin',(32.5622672736406,-17.5,-32.5622672736405));
#1219=CARTESIAN_POINT('Origin',(32.5622672736406,-0.399999999999991,-32.5622672736405));
#1220=CARTESIAN_POINT('',(32.5622672736406,-0.399999999999991,-36.7622672736405));
#1221=CARTESIAN_POINT('Origin',(32.5622672736406,-0.399999999999991,-32.5622672736405));
#1222=CARTESIAN_POINT('',(32.5622672736406,1.45716771982052E-15,-37.1622672736405));
#1223=CARTESIAN_POINT('',(32.5622672736406,-0.399999999999991,-36.7622672736405));
#1224=CARTESIAN_POINT('Origin',(32.5622672736406,0.,-32.5622672736405));
#1225=CARTESIAN_POINT('Origin',(46.05,-17.5,1.60782808779087E-13));
#1226=CARTESIAN_POINT('',(46.05,-17.1,-4.19999999999984));
#1227=CARTESIAN_POINT('',(46.05,-17.1,4.20000000000016));
#1228=CARTESIAN_POINT('Origin',(46.05,-17.1,1.60782808779087E-13));
#1229=CARTESIAN_POINT('Origin',(46.05,-17.1,1.60782808779087E-13));
#1230=CARTESIAN_POINT('',(46.05,-17.5,4.6000000000002));
#1231=CARTESIAN_POINT('',(46.05,-17.5,4.6000000000002));
#1232=CARTESIAN_POINT('Origin',(46.05,-17.5,1.60782808779087E-13));
#1233=CARTESIAN_POINT('Origin',(46.05,-0.399999999999977,1.60782808779087E-13));
#1234=CARTESIAN_POINT('',(46.05,-0.399999999999977,-4.19999999999984));
#1235=CARTESIAN_POINT('Origin',(46.05,-0.399999999999977,1.60782808779087E-13));
#1236=CARTESIAN_POINT('',(46.05,3.12250225675825E-15,-4.59999999999982));
#1237=CARTESIAN_POINT('',(46.05,-0.399999999999977,-4.19999999999984));
#1238=CARTESIAN_POINT('Origin',(46.05,0.,1.60782808779087E-13));
#1239=CARTESIAN_POINT('Origin',(0.,-17.5,0.));
#1240=CARTESIAN_POINT('',(6.94987058516123E-15,-17.,56.75));
#1241=CARTESIAN_POINT('',(-6.94987058516123E-15,-17.,-56.75));
#1242=CARTESIAN_POINT('Origin',(0.,-17.,0.));
#1243=CARTESIAN_POINT('Origin',(0.,-17.,0.));
#1244=CARTESIAN_POINT('',(-6.88863824520386E-15,-17.5,-56.25));
#1245=CARTESIAN_POINT('',(-6.88863824520386E-15,-17.5,-56.25));
#1246=CARTESIAN_POINT('Origin',(0.,-17.5,0.));
#1247=CARTESIAN_POINT('Origin',(-32.5622672736401,-17.5,-32.5622672736409));
#1248=CARTESIAN_POINT('',(-32.5622672736401,-17.5,-36.7622672736409));
#1249=CARTESIAN_POINT('Origin',(-46.05,-17.5,-4.82348426337261E-13));
#1250=CARTESIAN_POINT('',(-46.05,-17.5,-4.20000000000048));
#1251=CARTESIAN_POINT('Origin',(-32.5622672736408,-17.5,32.5622672736402));
#1252=CARTESIAN_POINT('',(-32.5622672736408,-17.5,28.3622672736402));
#1253=CARTESIAN_POINT('Origin',(-3.21565617558174E-13,-17.5,46.05));
#1254=CARTESIAN_POINT('',(-3.22079969213816E-13,-17.5,41.85));
#1255=CARTESIAN_POINT('Origin',(32.5622672736403,-17.5,32.5622672736407));
#1256=CARTESIAN_POINT('',(32.5622672736403,-17.5,28.3622672736407));
#1257=CARTESIAN_POINT('Origin',(46.05,-17.5,1.60782808779087E-13));
#1258=CARTESIAN_POINT('',(46.05,-17.5,-4.19999999999984));
#1259=CARTESIAN_POINT('Origin',(32.5622672736406,-17.5,-32.5622672736405));
#1260=CARTESIAN_POINT('',(32.5622672736406,-17.5,-36.7622672736405));
#1261=CARTESIAN_POINT('Origin',(0.,-17.5,-46.05));
#1262=CARTESIAN_POINT('',(-5.14351655641889E-16,-17.5,-50.25));
#1263=CARTESIAN_POINT('Origin',(0.,-1.2,0.));
#1264=CARTESIAN_POINT('',(-4.70039254576604E-15,-1.2,-38.3816178594403));
#1265=CARTESIAN_POINT('Origin',(0.,-1.2,0.));
#1266=CARTESIAN_POINT('',(-4.72713664470878E-15,-0.599999999999999,-38.6));
#1267=CARTESIAN_POINT('',(-4.70039254576604E-15,-1.2,-38.3816178594403));
#1268=CARTESIAN_POINT('',(4.89093315409474E-15,-0.6,38.6));
#1269=CARTESIAN_POINT('Origin',(0.,-0.6,0.));
#1270=CARTESIAN_POINT('Origin',(0.,-0.6,0.));
#1271=CARTESIAN_POINT('Origin',(0.,-0.6,0.));
#1272=CARTESIAN_POINT('',(-5.0547296634807E-15,-1.57362037666211,41.275));
#1273=CARTESIAN_POINT('Origin',(0.,-1.57362037666211,0.));
#1274=CARTESIAN_POINT('',(-4.72713664470878E-15,-0.6,38.6));
#1275=CARTESIAN_POINT('Origin',(0.,-0.499999999999973,0.));
#1276=CARTESIAN_POINT('',(22.4464207037241,0.,51.5773273599111));
#1277=CARTESIAN_POINT('',(-20.5986616387018,0.,-52.3426942246411));
#1278=CARTESIAN_POINT('Origin',(0.,0.,0.));
#1279=CARTESIAN_POINT('',(22.637792397263,-0.499999999999973,52.039339497907));
#1280=CARTESIAN_POINT('',(22.637792397263,-0.499999999999973,52.039339497907));
#1281=CARTESIAN_POINT('',(-20.7900333322408,-0.499999999999977,-52.804706362637));
#1282=CARTESIAN_POINT('Origin',(0.,-0.499999999999973,0.));
#1283=CARTESIAN_POINT('',(-20.7900333322408,-0.499999999999977,-52.804706362637));
#1284=CARTESIAN_POINT('Origin',(0.,-24.5739145046165,0.));
#1285=CARTESIAN_POINT('',(-14.8667426803801,0.,-38.5046177370373));
#1286=CARTESIAN_POINT('',(16.7145017454024,0.,37.7392508723072));
#1287=CARTESIAN_POINT('Origin',(0.,0.,0.));
#1288=CARTESIAN_POINT('',(-14.8667426803801,-0.999999999999998,-38.5046177370373));
#1289=CARTESIAN_POINT('',(-14.8667426803801,-24.5739145046165,-38.5046177370373));
#1290=CARTESIAN_POINT('',(-16.7145017454027,-0.999999999999998,-37.7392508723071));
#1291=CARTESIAN_POINT('Origin',(0.,-0.999999999999998,0.));
#1292=CARTESIAN_POINT('',(-16.7145017454027,0.,-37.7392508723071));
#1293=CARTESIAN_POINT('',(-16.7145017454027,-24.5739145046165,-37.7392508723071));
#1294=CARTESIAN_POINT('',(-5.0547296634807E-15,0.,41.275));
#1295=CARTESIAN_POINT('Origin',(0.,0.,0.));
#1296=CARTESIAN_POINT('',(-5.0547296634807E-15,-24.5739145046165,41.275));
#1297=CARTESIAN_POINT('',(14.8667426803798,0.,38.5046177370374));
#1298=CARTESIAN_POINT('Origin',(0.,0.,0.));
#1299=CARTESIAN_POINT('',(14.8667426803798,-0.999999999999998,38.5046177370374));
#1300=CARTESIAN_POINT('',(14.8667426803798,-24.5739145046165,38.5046177370374));
#1301=CARTESIAN_POINT('',(16.7145017454024,-0.999999999999998,37.7392508723072));
#1302=CARTESIAN_POINT('Origin',(0.,-0.999999999999998,0.));
#1303=CARTESIAN_POINT('',(16.7145017454024,-24.5739145046165,37.7392508723072));
#1304=CARTESIAN_POINT('Origin',(0.,-24.5739145046165,0.));
#1305=CARTESIAN_POINT('',(-6.94987058516123E-15,-0.499999999999972,56.75));
#1306=CARTESIAN_POINT('',(-6.94987058516123E-15,-24.5739145046165,56.75));
#1307=CARTESIAN_POINT('',(-22.6377923972633,-0.499999999999973,-52.0393394979068));
#1308=CARTESIAN_POINT('Origin',(0.,-0.499999999999973,0.));
#1309=CARTESIAN_POINT('',(-22.6377923972633,-0.999999999999998,-52.0393394979068));
#1310=CARTESIAN_POINT('',(-22.6377923972633,-24.5739145046165,-52.0393394979068));
#1311=CARTESIAN_POINT('',(-20.7900333322408,-0.999999999999998,-52.804706362637));
#1312=CARTESIAN_POINT('Origin',(0.,-0.999999999999998,0.));
#1313=CARTESIAN_POINT('',(-20.7900333322408,-24.5739145046165,-52.804706362637));
#1314=CARTESIAN_POINT('',(22.637792397263,-0.999999999999998,52.039339497907));
#1315=CARTESIAN_POINT('',(22.637792397263,-24.5739145046165,52.039339497907));
#1316=CARTESIAN_POINT('',(20.7900333322404,-0.999999999999998,52.8047063626372));
#1317=CARTESIAN_POINT('Origin',(0.,-0.999999999999998,0.));
#1318=CARTESIAN_POINT('',(20.7900333322404,-0.499999999999971,52.8047063626372));
#1319=CARTESIAN_POINT('',(20.7900333322404,-24.5739145046165,52.8047063626372));
#1320=CARTESIAN_POINT('Origin',(0.,-0.499999999999973,0.));
#1321=CARTESIAN_POINT('Origin',(-56.75,0.,0.));
#1322=CARTESIAN_POINT('',(20.5986616387015,0.,52.3426942246412));
#1323=CARTESIAN_POINT('',(21.1911792617209,0.,53.7731583060798));
#1324=CARTESIAN_POINT('',(-22.4464207037244,0.,-51.5773273599109));
#1325=CARTESIAN_POINT('',(-23.0389383267439,0.,-53.0077914413495));
#1326=CARTESIAN_POINT('Origin',(0.,0.,0.));
#1327=CARTESIAN_POINT('Origin',(0.,-0.499999999999973,0.));
#1328=CARTESIAN_POINT('',(20.7900333322404,-0.499999999999971,52.8047063626372));
#1329=CARTESIAN_POINT('',(-22.6377923972633,-0.499999999999973,-52.0393394979068));
#1330=CARTESIAN_POINT('Origin',(-56.75,0.,0.));
#1331=CARTESIAN_POINT('',(23.0389383267435,0.,53.0077914413496));
#1332=CARTESIAN_POINT('',(-21.1911792617213,0.,-53.7731583060797));
#1333=CARTESIAN_POINT('Origin',(-38.3816178594403,-1.2,0.));
#1334=CARTESIAN_POINT('Origin',(0.,-17.5,0.));
#1335=CARTESIAN_POINT('Origin',(-21.1911792617213,-0.999999999999997,-53.7731583060797));
#1336=CARTESIAN_POINT('',(-23.0389383267439,-0.999999999999997,-53.0077914413495));
#1337=CARTESIAN_POINT('',(-21.1911792617213,-0.999999999999997,-53.7731583060797));
#1338=CARTESIAN_POINT('Origin',(-21.1911792617213,-0.999999999999997,-53.7731583060797));
#1339=CARTESIAN_POINT('Origin',(-23.0389383267439,-0.999999999999997,-53.0077914413495));
#1340=CARTESIAN_POINT('Origin',(21.1911792617209,-0.999999999999997,53.7731583060798));
#1341=CARTESIAN_POINT('',(23.0389383267435,-0.999999999999997,53.0077914413496));
#1342=CARTESIAN_POINT('',(21.1911792617209,-0.999999999999997,53.7731583060798));
#1343=CARTESIAN_POINT('Origin',(21.1911792617209,-0.999999999999997,53.7731583060798));
#1344=CARTESIAN_POINT('Origin',(23.0389383267435,-0.999999999999997,53.0077914413496));
#1345=UNCERTAINTY_MEASURE_WITH_UNIT(LENGTH_MEASURE(0.01),#1349,
'DISTANCE_ACCURACY_VALUE',
'Maximum model space distance between geometric entities at asserted c
onnectivities');
#1346=UNCERTAINTY_MEASURE_WITH_UNIT(LENGTH_MEASURE(0.01),#1349,
'DISTANCE_ACCURACY_VALUE',
'Maximum model space distance between geometric entities at asserted c
onnectivities');
#1347=(
GEOMETRIC_REPRESENTATION_CONTEXT(3)
GLOBAL_UNCERTAINTY_ASSIGNED_CONTEXT((#1345))
GLOBAL_UNIT_ASSIGNED_CONTEXT((#1349,#1351,#1352))
REPRESENTATION_CONTEXT('','3D')
);
#1348=(
GEOMETRIC_REPRESENTATION_CONTEXT(3)
GLOBAL_UNCERTAINTY_ASSIGNED_CONTEXT((#1346))
GLOBAL_UNIT_ASSIGNED_CONTEXT((#1349,#1351,#1352))
REPRESENTATION_CONTEXT('','3D')
);
#1349=(
LENGTH_UNIT()
NAMED_UNIT(*)
SI_UNIT(.MILLI.,.METRE.)
);
#1350=(
LENGTH_UNIT()
NAMED_UNIT(*)
SI_UNIT($,.METRE.)
);
#1351=(
NAMED_UNIT(*)
PLANE_ANGLE_UNIT()
SI_UNIT($,.RADIAN.)
);
#1352=(
NAMED_UNIT(*)
SI_UNIT($,.STERADIAN.)
SOLID_ANGLE_UNIT()
);
#1353=SHAPE_DEFINITION_REPRESENTATION(#1354,#1355);
#1354=PRODUCT_DEFINITION_SHAPE('',$,#1357);
#1355=SHAPE_REPRESENTATION('',(#774),#1347);
#1356=PRODUCT_DEFINITION_CONTEXT('part definition',#1361,'design');
#1357=PRODUCT_DEFINITION('Hositrad_CF63-Blank','Hositrad_CF63-Blank v3',
#1358,#1356);
#1358=PRODUCT_DEFINITION_FORMATION('',$,#1363);
#1359=PRODUCT_RELATED_PRODUCT_CATEGORY('Hositrad_CF63-Blank v3',
'Hositrad_CF63-Blank v3',(#1363));
#1360=APPLICATION_PROTOCOL_DEFINITION('international standard',
'automotive_design',2009,#1361);
#1361=APPLICATION_CONTEXT(
'Core Data for Automotive Mechanical Design Process');
#1362=PRODUCT_CONTEXT('part definition',#1361,'mechanical');
#1363=PRODUCT('Hositrad_CF63-Blank','Hositrad_CF63-Blank v3',$,(#1362));
#1364=PRESENTATION_STYLE_ASSIGNMENT((#1366));
#1365=PRESENTATION_STYLE_ASSIGNMENT((#1367));
#1366=SURFACE_STYLE_USAGE(.BOTH.,#1368);
#1367=SURFACE_STYLE_USAGE(.BOTH.,#1369);
#1368=SURFACE_SIDE_STYLE('',(#1370));
#1369=SURFACE_SIDE_STYLE('',(#1371));
#1370=SURFACE_STYLE_FILL_AREA(#1372);
#1371=SURFACE_STYLE_FILL_AREA(#1373);
#1372=FILL_AREA_STYLE('Steel - Satin',(#1374));
#1373=FILL_AREA_STYLE('Opaque(255,242,232)',(#1375));
#1374=FILL_AREA_STYLE_COLOUR('Steel - Satin',#1376);
#1375=FILL_AREA_STYLE_COLOUR('Opaque(255,242,232)',#1377);
#1376=COLOUR_RGB('Steel - Satin',0.627450980392157,0.627450980392157,0.627450980392157);
#1377=COLOUR_RGB('Opaque(255,242,232)',1.,0.949019607843137,0.909803921568627);
ENDSEC;
END-ISO-10303-21;
