ISO-10303-21;
HEADER;
/* Generated by software containing ST-Developer
 * from STEP Tools, Inc. (www.steptools.com) 
 */

FILE_DESCRIPTION(
/* description */ (''),
/* implementation_level */ '2;1');

FILE_NAME(
/* name */ 'Hositrad_CF16-10 v1.step',
/* time_stamp */ '2024-06-25T13:41:08+02:00',
/* author */ (''),
/* organization */ (''),
/* preprocessor_version */ 'ST-DEVELOPER v20',
/* originating_system */ 'Autodesk Translation Framework v13.14.0.145',

/* authorisation */ '');

FILE_SCHEMA (('AUTOMOTIVE_DESIGN { 1 0 10303 214 3 1 1 }'));
ENDSEC;

DATA;
#10=MECHANICAL_DESIGN_GEOMETRIC_PRESENTATION_REPRESENTATION('',(#13),#894);
#11=SHAPE_REPRESENTATION_RELATIONSHIP('SRR','None',#901,#12);
#12=ADVANCED_BREP_SHAPE_REPRESENTATION('',(#14),#893);
#13=STYLED_ITEM('',(#911),#14);
#14=MANIFOLD_SOLID_BREP('Body1',#497);
#15=FACE_BOUND('',#103,.T.);
#16=FACE_BOUND('',#104,.T.);
#17=FACE_BOUND('',#105,.T.);
#18=FACE_BOUND('',#106,.T.);
#19=FACE_BOUND('',#107,.T.);
#20=FACE_BOUND('',#108,.T.);
#21=FACE_BOUND('',#109,.T.);
#22=FACE_BOUND('',#111,.T.);
#23=FACE_BOUND('',#112,.T.);
#24=FACE_BOUND('',#113,.T.);
#25=FACE_BOUND('',#114,.T.);
#26=FACE_BOUND('',#115,.T.);
#27=FACE_BOUND('',#116,.T.);
#28=FACE_BOUND('',#117,.T.);
#29=FACE_BOUND('',#119,.T.);
#30=PLANE('',#579);
#31=PLANE('',#580);
#32=PLANE('',#581);
#33=CONICAL_SURFACE('',#514,2.39999999999997,0.785398163397453);
#34=CONICAL_SURFACE('',#518,2.2,0.785398163397448);
#35=CONICAL_SURFACE('',#521,2.39999999999998,0.785398163397443);
#36=CONICAL_SURFACE('',#525,2.2,0.785398163397443);
#37=CONICAL_SURFACE('',#528,2.39999999999997,0.785398163397461);
#38=CONICAL_SURFACE('',#532,2.2,0.785398163397453);
#39=CONICAL_SURFACE('',#535,2.39999999999998,0.785398163397446);
#40=CONICAL_SURFACE('',#539,2.2,0.785398163397454);
#41=CONICAL_SURFACE('',#542,2.39999999999998,0.785398163397443);
#42=CONICAL_SURFACE('',#546,2.2,0.785398163397443);
#43=CONICAL_SURFACE('',#549,2.39999999999998,0.785398163397439);
#44=CONICAL_SURFACE('',#553,2.2,0.785398163397461);
#45=CONICAL_SURFACE('',#562,17.,0.785398163397448);
#46=CONICAL_SURFACE('',#565,16.6,0.785398163397457);
#47=CONICAL_SURFACE('',#569,8.93161785944027,0.349065850398873);
#48=CONICAL_SURFACE('',#573,9.15,1.22173047639602);
#49=FACE_OUTER_BOUND('',#77,.T.);
#50=FACE_OUTER_BOUND('',#78,.T.);
#51=FACE_OUTER_BOUND('',#79,.T.);
#52=FACE_OUTER_BOUND('',#80,.T.);
#53=FACE_OUTER_BOUND('',#81,.T.);
#54=FACE_OUTER_BOUND('',#82,.T.);
#55=FACE_OUTER_BOUND('',#83,.T.);
#56=FACE_OUTER_BOUND('',#84,.T.);
#57=FACE_OUTER_BOUND('',#85,.T.);
#58=FACE_OUTER_BOUND('',#86,.T.);
#59=FACE_OUTER_BOUND('',#87,.T.);
#60=FACE_OUTER_BOUND('',#88,.T.);
#61=FACE_OUTER_BOUND('',#89,.T.);
#62=FACE_OUTER_BOUND('',#90,.T.);
#63=FACE_OUTER_BOUND('',#91,.T.);
#64=FACE_OUTER_BOUND('',#92,.T.);
#65=FACE_OUTER_BOUND('',#93,.T.);
#66=FACE_OUTER_BOUND('',#94,.T.);
#67=FACE_OUTER_BOUND('',#95,.T.);
#68=FACE_OUTER_BOUND('',#96,.T.);
#69=FACE_OUTER_BOUND('',#97,.T.);
#70=FACE_OUTER_BOUND('',#98,.T.);
#71=FACE_OUTER_BOUND('',#99,.T.);
#72=FACE_OUTER_BOUND('',#100,.T.);
#73=FACE_OUTER_BOUND('',#101,.T.);
#74=FACE_OUTER_BOUND('',#102,.T.);
#75=FACE_OUTER_BOUND('',#110,.T.);
#76=FACE_OUTER_BOUND('',#118,.T.);
#77=EDGE_LOOP('',(#324,#325,#326,#327));
#78=EDGE_LOOP('',(#328,#329,#330,#331,#332));
#79=EDGE_LOOP('',(#333,#334,#335,#336));
#80=EDGE_LOOP('',(#337,#338,#339,#340,#341));
#81=EDGE_LOOP('',(#342,#343,#344,#345));
#82=EDGE_LOOP('',(#346,#347,#348,#349,#350));
#83=EDGE_LOOP('',(#351,#352,#353,#354));
#84=EDGE_LOOP('',(#355,#356,#357,#358,#359));
#85=EDGE_LOOP('',(#360,#361,#362,#363));
#86=EDGE_LOOP('',(#364,#365,#366,#367,#368));
#87=EDGE_LOOP('',(#369,#370,#371,#372));
#88=EDGE_LOOP('',(#373,#374,#375,#376,#377));
#89=EDGE_LOOP('',(#378,#379,#380,#381));
#90=EDGE_LOOP('',(#382,#383,#384,#385,#386));
#91=EDGE_LOOP('',(#387,#388,#389,#390,#391));
#92=EDGE_LOOP('',(#392,#393,#394,#395,#396));
#93=EDGE_LOOP('',(#397,#398,#399,#400,#401));
#94=EDGE_LOOP('',(#402,#403,#404,#405,#406));
#95=EDGE_LOOP('',(#407,#408,#409,#410,#411));
#96=EDGE_LOOP('',(#412,#413,#414,#415));
#97=EDGE_LOOP('',(#416,#417,#418,#419,#420));
#98=EDGE_LOOP('',(#421,#422,#423,#424,#425));
#99=EDGE_LOOP('',(#426,#427,#428,#429,#430,#431));
#100=EDGE_LOOP('',(#432,#433,#434,#435,#436));
#101=EDGE_LOOP('',(#437,#438,#439,#440,#441));
#102=EDGE_LOOP('',(#442));
#103=EDGE_LOOP('',(#443));
#104=EDGE_LOOP('',(#444));
#105=EDGE_LOOP('',(#445));
#106=EDGE_LOOP('',(#446));
#107=EDGE_LOOP('',(#447));
#108=EDGE_LOOP('',(#448));
#109=EDGE_LOOP('',(#449));
#110=EDGE_LOOP('',(#450));
#111=EDGE_LOOP('',(#451));
#112=EDGE_LOOP('',(#452));
#113=EDGE_LOOP('',(#453));
#114=EDGE_LOOP('',(#454));
#115=EDGE_LOOP('',(#455));
#116=EDGE_LOOP('',(#456));
#117=EDGE_LOOP('',(#457));
#118=EDGE_LOOP('',(#458));
#119=EDGE_LOOP('',(#459));
#120=LINE('',#756,#145);
#121=LINE('',#764,#146);
#122=LINE('',#770,#147);
#123=LINE('',#778,#148);
#124=LINE('',#784,#149);
#125=LINE('',#792,#150);
#126=LINE('',#798,#151);
#127=LINE('',#806,#152);
#128=LINE('',#812,#153);
#129=LINE('',#820,#154);
#130=LINE('',#826,#155);
#131=LINE('',#834,#156);
#132=LINE('',#840,#157);
#133=LINE('',#843,#158);
#134=LINE('',#845,#159);
#135=LINE('',#847,#160);
#136=LINE('',#849,#161);
#137=LINE('',#851,#162);
#138=LINE('',#853,#163);
#139=LINE('',#858,#164);
#140=LINE('',#866,#165);
#141=LINE('',#872,#166);
#142=LINE('',#880,#167);
#143=LINE('',#884,#168);
#144=LINE('',#887,#169);
#145=VECTOR('',#588,4.775);
#146=VECTOR('',#597,2.39999999999997);
#147=VECTOR('',#604,2.2);
#148=VECTOR('',#613,2.39999999999998);
#149=VECTOR('',#620,2.2);
#150=VECTOR('',#629,2.39999999999997);
#151=VECTOR('',#636,2.2);
#152=VECTOR('',#645,2.39999999999998);
#153=VECTOR('',#652,2.2);
#154=VECTOR('',#661,2.39999999999998);
#155=VECTOR('',#668,2.2);
#156=VECTOR('',#677,2.39999999999997);
#157=VECTOR('',#684,2.2);
#158=VECTOR('',#689,2.2);
#159=VECTOR('',#692,2.2);
#160=VECTOR('',#695,2.2);
#161=VECTOR('',#698,2.2);
#162=VECTOR('',#701,2.2);
#163=VECTOR('',#704,2.2);
#164=VECTOR('',#709,17.);
#165=VECTOR('',#718,16.6);
#166=VECTOR('',#725,8.93161785944027);
#167=VECTOR('',#734,9.15);
#168=VECTOR('',#739,10.75);
#169=VECTOR('',#744,17.);
#170=CIRCLE('',#512,4.775);
#171=CIRCLE('',#513,4.775);
#172=CIRCLE('',#515,2.2);
#173=CIRCLE('',#516,2.2);
#174=CIRCLE('',#517,2.39999999999997);
#175=CIRCLE('',#519,2.2);
#176=CIRCLE('',#520,2.40000000000003);
#177=CIRCLE('',#522,2.2);
#178=CIRCLE('',#523,2.2);
#179=CIRCLE('',#524,2.39999999999998);
#180=CIRCLE('',#526,2.2);
#181=CIRCLE('',#527,2.40000000000001);
#182=CIRCLE('',#529,2.2);
#183=CIRCLE('',#530,2.2);
#184=CIRCLE('',#531,2.39999999999997);
#185=CIRCLE('',#533,2.2);
#186=CIRCLE('',#534,2.40000000000002);
#187=CIRCLE('',#536,2.2);
#188=CIRCLE('',#537,2.2);
#189=CIRCLE('',#538,2.39999999999998);
#190=CIRCLE('',#540,2.2);
#191=CIRCLE('',#541,2.40000000000003);
#192=CIRCLE('',#543,2.2);
#193=CIRCLE('',#544,2.2);
#194=CIRCLE('',#545,2.39999999999998);
#195=CIRCLE('',#547,2.2);
#196=CIRCLE('',#548,2.40000000000001);
#197=CIRCLE('',#550,2.2);
#198=CIRCLE('',#551,2.2);
#199=CIRCLE('',#552,2.39999999999998);
#200=CIRCLE('',#554,2.2);
#201=CIRCLE('',#555,2.40000000000004);
#202=CIRCLE('',#563,17.);
#203=CIRCLE('',#564,16.6);
#204=CIRCLE('',#566,17.);
#205=CIRCLE('',#567,17.);
#206=CIRCLE('',#568,16.6);
#207=CIRCLE('',#570,8.93161785944027);
#208=CIRCLE('',#571,9.15);
#209=CIRCLE('',#572,9.15);
#210=CIRCLE('',#574,10.75);
#211=CIRCLE('',#575,10.75);
#212=CIRCLE('',#577,10.75);
#213=VERTEX_POINT('',#753);
#214=VERTEX_POINT('',#755);
#215=VERTEX_POINT('',#759);
#216=VERTEX_POINT('',#760);
#217=VERTEX_POINT('',#763);
#218=VERTEX_POINT('',#767);
#219=VERTEX_POINT('',#769);
#220=VERTEX_POINT('',#773);
#221=VERTEX_POINT('',#774);
#222=VERTEX_POINT('',#777);
#223=VERTEX_POINT('',#781);
#224=VERTEX_POINT('',#783);
#225=VERTEX_POINT('',#787);
#226=VERTEX_POINT('',#788);
#227=VERTEX_POINT('',#791);
#228=VERTEX_POINT('',#795);
#229=VERTEX_POINT('',#797);
#230=VERTEX_POINT('',#801);
#231=VERTEX_POINT('',#802);
#232=VERTEX_POINT('',#805);
#233=VERTEX_POINT('',#809);
#234=VERTEX_POINT('',#811);
#235=VERTEX_POINT('',#815);
#236=VERTEX_POINT('',#816);
#237=VERTEX_POINT('',#819);
#238=VERTEX_POINT('',#823);
#239=VERTEX_POINT('',#825);
#240=VERTEX_POINT('',#829);
#241=VERTEX_POINT('',#830);
#242=VERTEX_POINT('',#833);
#243=VERTEX_POINT('',#837);
#244=VERTEX_POINT('',#839);
#245=VERTEX_POINT('',#855);
#246=VERTEX_POINT('',#857);
#247=VERTEX_POINT('',#861);
#248=VERTEX_POINT('',#862);
#249=VERTEX_POINT('',#865);
#250=VERTEX_POINT('',#869);
#251=VERTEX_POINT('',#871);
#252=VERTEX_POINT('',#873);
#253=VERTEX_POINT('',#877);
#254=VERTEX_POINT('',#878);
#255=VERTEX_POINT('',#883);
#256=EDGE_CURVE('',#213,#213,#170,.T.);
#257=EDGE_CURVE('',#213,#214,#120,.T.);
#258=EDGE_CURVE('',#214,#214,#171,.T.);
#259=EDGE_CURVE('',#215,#216,#172,.T.);
#260=EDGE_CURVE('',#216,#215,#173,.T.);
#261=EDGE_CURVE('',#216,#217,#121,.T.);
#262=EDGE_CURVE('',#217,#217,#174,.T.);
#263=EDGE_CURVE('',#218,#218,#175,.T.);
#264=EDGE_CURVE('',#218,#219,#122,.T.);
#265=EDGE_CURVE('',#219,#219,#176,.T.);
#266=EDGE_CURVE('',#220,#221,#177,.T.);
#267=EDGE_CURVE('',#221,#220,#178,.T.);
#268=EDGE_CURVE('',#221,#222,#123,.T.);
#269=EDGE_CURVE('',#222,#222,#179,.T.);
#270=EDGE_CURVE('',#223,#223,#180,.T.);
#271=EDGE_CURVE('',#223,#224,#124,.T.);
#272=EDGE_CURVE('',#224,#224,#181,.T.);
#273=EDGE_CURVE('',#225,#226,#182,.T.);
#274=EDGE_CURVE('',#226,#225,#183,.T.);
#275=EDGE_CURVE('',#226,#227,#125,.T.);
#276=EDGE_CURVE('',#227,#227,#184,.T.);
#277=EDGE_CURVE('',#228,#228,#185,.T.);
#278=EDGE_CURVE('',#228,#229,#126,.T.);
#279=EDGE_CURVE('',#229,#229,#186,.T.);
#280=EDGE_CURVE('',#230,#231,#187,.T.);
#281=EDGE_CURVE('',#231,#230,#188,.T.);
#282=EDGE_CURVE('',#231,#232,#127,.T.);
#283=EDGE_CURVE('',#232,#232,#189,.T.);
#284=EDGE_CURVE('',#233,#233,#190,.T.);
#285=EDGE_CURVE('',#233,#234,#128,.T.);
#286=EDGE_CURVE('',#234,#234,#191,.T.);
#287=EDGE_CURVE('',#235,#236,#192,.T.);
#288=EDGE_CURVE('',#236,#235,#193,.T.);
#289=EDGE_CURVE('',#236,#237,#129,.T.);
#290=EDGE_CURVE('',#237,#237,#194,.T.);
#291=EDGE_CURVE('',#238,#238,#195,.T.);
#292=EDGE_CURVE('',#238,#239,#130,.T.);
#293=EDGE_CURVE('',#239,#239,#196,.T.);
#294=EDGE_CURVE('',#240,#241,#197,.T.);
#295=EDGE_CURVE('',#241,#240,#198,.T.);
#296=EDGE_CURVE('',#241,#242,#131,.T.);
#297=EDGE_CURVE('',#242,#242,#199,.T.);
#298=EDGE_CURVE('',#243,#243,#200,.T.);
#299=EDGE_CURVE('',#243,#244,#132,.T.);
#300=EDGE_CURVE('',#244,#244,#201,.T.);
#301=EDGE_CURVE('',#225,#228,#133,.T.);
#302=EDGE_CURVE('',#230,#233,#134,.T.);
#303=EDGE_CURVE('',#235,#238,#135,.T.);
#304=EDGE_CURVE('',#240,#243,#136,.T.);
#305=EDGE_CURVE('',#215,#218,#137,.T.);
#306=EDGE_CURVE('',#220,#223,#138,.T.);
#307=EDGE_CURVE('',#245,#245,#202,.T.);
#308=EDGE_CURVE('',#245,#246,#139,.T.);
#309=EDGE_CURVE('',#246,#246,#203,.T.);
#310=EDGE_CURVE('',#247,#248,#204,.T.);
#311=EDGE_CURVE('',#248,#247,#205,.T.);
#312=EDGE_CURVE('',#248,#249,#140,.T.);
#313=EDGE_CURVE('',#249,#249,#206,.T.);
#314=EDGE_CURVE('',#250,#250,#207,.T.);
#315=EDGE_CURVE('',#250,#251,#141,.T.);
#316=EDGE_CURVE('',#251,#252,#208,.T.);
#317=EDGE_CURVE('',#252,#251,#209,.T.);
#318=EDGE_CURVE('',#253,#254,#210,.T.);
#319=EDGE_CURVE('',#254,#252,#142,.T.);
#320=EDGE_CURVE('',#254,#253,#211,.T.);
#321=EDGE_CURVE('',#253,#255,#143,.T.);
#322=EDGE_CURVE('',#255,#255,#212,.T.);
#323=EDGE_CURVE('',#247,#245,#144,.T.);
#324=ORIENTED_EDGE('',*,*,#256,.T.);
#325=ORIENTED_EDGE('',*,*,#257,.T.);
#326=ORIENTED_EDGE('',*,*,#258,.T.);
#327=ORIENTED_EDGE('',*,*,#257,.F.);
#328=ORIENTED_EDGE('',*,*,#259,.F.);
#329=ORIENTED_EDGE('',*,*,#260,.F.);
#330=ORIENTED_EDGE('',*,*,#261,.T.);
#331=ORIENTED_EDGE('',*,*,#262,.F.);
#332=ORIENTED_EDGE('',*,*,#261,.F.);
#333=ORIENTED_EDGE('',*,*,#263,.F.);
#334=ORIENTED_EDGE('',*,*,#264,.T.);
#335=ORIENTED_EDGE('',*,*,#265,.F.);
#336=ORIENTED_EDGE('',*,*,#264,.F.);
#337=ORIENTED_EDGE('',*,*,#266,.F.);
#338=ORIENTED_EDGE('',*,*,#267,.F.);
#339=ORIENTED_EDGE('',*,*,#268,.T.);
#340=ORIENTED_EDGE('',*,*,#269,.F.);
#341=ORIENTED_EDGE('',*,*,#268,.F.);
#342=ORIENTED_EDGE('',*,*,#270,.F.);
#343=ORIENTED_EDGE('',*,*,#271,.T.);
#344=ORIENTED_EDGE('',*,*,#272,.F.);
#345=ORIENTED_EDGE('',*,*,#271,.F.);
#346=ORIENTED_EDGE('',*,*,#273,.F.);
#347=ORIENTED_EDGE('',*,*,#274,.F.);
#348=ORIENTED_EDGE('',*,*,#275,.T.);
#349=ORIENTED_EDGE('',*,*,#276,.F.);
#350=ORIENTED_EDGE('',*,*,#275,.F.);
#351=ORIENTED_EDGE('',*,*,#277,.F.);
#352=ORIENTED_EDGE('',*,*,#278,.T.);
#353=ORIENTED_EDGE('',*,*,#279,.F.);
#354=ORIENTED_EDGE('',*,*,#278,.F.);
#355=ORIENTED_EDGE('',*,*,#280,.F.);
#356=ORIENTED_EDGE('',*,*,#281,.F.);
#357=ORIENTED_EDGE('',*,*,#282,.T.);
#358=ORIENTED_EDGE('',*,*,#283,.F.);
#359=ORIENTED_EDGE('',*,*,#282,.F.);
#360=ORIENTED_EDGE('',*,*,#284,.F.);
#361=ORIENTED_EDGE('',*,*,#285,.T.);
#362=ORIENTED_EDGE('',*,*,#286,.F.);
#363=ORIENTED_EDGE('',*,*,#285,.F.);
#364=ORIENTED_EDGE('',*,*,#287,.F.);
#365=ORIENTED_EDGE('',*,*,#288,.F.);
#366=ORIENTED_EDGE('',*,*,#289,.T.);
#367=ORIENTED_EDGE('',*,*,#290,.F.);
#368=ORIENTED_EDGE('',*,*,#289,.F.);
#369=ORIENTED_EDGE('',*,*,#291,.F.);
#370=ORIENTED_EDGE('',*,*,#292,.T.);
#371=ORIENTED_EDGE('',*,*,#293,.F.);
#372=ORIENTED_EDGE('',*,*,#292,.F.);
#373=ORIENTED_EDGE('',*,*,#294,.F.);
#374=ORIENTED_EDGE('',*,*,#295,.F.);
#375=ORIENTED_EDGE('',*,*,#296,.T.);
#376=ORIENTED_EDGE('',*,*,#297,.F.);
#377=ORIENTED_EDGE('',*,*,#296,.F.);
#378=ORIENTED_EDGE('',*,*,#298,.F.);
#379=ORIENTED_EDGE('',*,*,#299,.T.);
#380=ORIENTED_EDGE('',*,*,#300,.F.);
#381=ORIENTED_EDGE('',*,*,#299,.F.);
#382=ORIENTED_EDGE('',*,*,#273,.T.);
#383=ORIENTED_EDGE('',*,*,#274,.T.);
#384=ORIENTED_EDGE('',*,*,#301,.T.);
#385=ORIENTED_EDGE('',*,*,#277,.T.);
#386=ORIENTED_EDGE('',*,*,#301,.F.);
#387=ORIENTED_EDGE('',*,*,#280,.T.);
#388=ORIENTED_EDGE('',*,*,#281,.T.);
#389=ORIENTED_EDGE('',*,*,#302,.T.);
#390=ORIENTED_EDGE('',*,*,#284,.T.);
#391=ORIENTED_EDGE('',*,*,#302,.F.);
#392=ORIENTED_EDGE('',*,*,#287,.T.);
#393=ORIENTED_EDGE('',*,*,#288,.T.);
#394=ORIENTED_EDGE('',*,*,#303,.T.);
#395=ORIENTED_EDGE('',*,*,#291,.T.);
#396=ORIENTED_EDGE('',*,*,#303,.F.);
#397=ORIENTED_EDGE('',*,*,#294,.T.);
#398=ORIENTED_EDGE('',*,*,#295,.T.);
#399=ORIENTED_EDGE('',*,*,#304,.T.);
#400=ORIENTED_EDGE('',*,*,#298,.T.);
#401=ORIENTED_EDGE('',*,*,#304,.F.);
#402=ORIENTED_EDGE('',*,*,#259,.T.);
#403=ORIENTED_EDGE('',*,*,#260,.T.);
#404=ORIENTED_EDGE('',*,*,#305,.T.);
#405=ORIENTED_EDGE('',*,*,#263,.T.);
#406=ORIENTED_EDGE('',*,*,#305,.F.);
#407=ORIENTED_EDGE('',*,*,#266,.T.);
#408=ORIENTED_EDGE('',*,*,#267,.T.);
#409=ORIENTED_EDGE('',*,*,#306,.T.);
#410=ORIENTED_EDGE('',*,*,#270,.T.);
#411=ORIENTED_EDGE('',*,*,#306,.F.);
#412=ORIENTED_EDGE('',*,*,#307,.F.);
#413=ORIENTED_EDGE('',*,*,#308,.T.);
#414=ORIENTED_EDGE('',*,*,#309,.F.);
#415=ORIENTED_EDGE('',*,*,#308,.F.);
#416=ORIENTED_EDGE('',*,*,#310,.F.);
#417=ORIENTED_EDGE('',*,*,#311,.F.);
#418=ORIENTED_EDGE('',*,*,#312,.T.);
#419=ORIENTED_EDGE('',*,*,#313,.F.);
#420=ORIENTED_EDGE('',*,*,#312,.F.);
#421=ORIENTED_EDGE('',*,*,#314,.F.);
#422=ORIENTED_EDGE('',*,*,#315,.T.);
#423=ORIENTED_EDGE('',*,*,#316,.T.);
#424=ORIENTED_EDGE('',*,*,#317,.T.);
#425=ORIENTED_EDGE('',*,*,#315,.F.);
#426=ORIENTED_EDGE('',*,*,#318,.T.);
#427=ORIENTED_EDGE('',*,*,#319,.T.);
#428=ORIENTED_EDGE('',*,*,#316,.F.);
#429=ORIENTED_EDGE('',*,*,#317,.F.);
#430=ORIENTED_EDGE('',*,*,#319,.F.);
#431=ORIENTED_EDGE('',*,*,#320,.T.);
#432=ORIENTED_EDGE('',*,*,#318,.F.);
#433=ORIENTED_EDGE('',*,*,#321,.T.);
#434=ORIENTED_EDGE('',*,*,#322,.T.);
#435=ORIENTED_EDGE('',*,*,#321,.F.);
#436=ORIENTED_EDGE('',*,*,#320,.F.);
#437=ORIENTED_EDGE('',*,*,#310,.T.);
#438=ORIENTED_EDGE('',*,*,#311,.T.);
#439=ORIENTED_EDGE('',*,*,#323,.T.);
#440=ORIENTED_EDGE('',*,*,#307,.T.);
#441=ORIENTED_EDGE('',*,*,#323,.F.);
#442=ORIENTED_EDGE('',*,*,#309,.T.);
#443=ORIENTED_EDGE('',*,*,#258,.F.);
#444=ORIENTED_EDGE('',*,*,#300,.T.);
#445=ORIENTED_EDGE('',*,*,#293,.T.);
#446=ORIENTED_EDGE('',*,*,#286,.T.);
#447=ORIENTED_EDGE('',*,*,#279,.T.);
#448=ORIENTED_EDGE('',*,*,#272,.T.);
#449=ORIENTED_EDGE('',*,*,#265,.T.);
#450=ORIENTED_EDGE('',*,*,#313,.T.);
#451=ORIENTED_EDGE('',*,*,#322,.F.);
#452=ORIENTED_EDGE('',*,*,#297,.T.);
#453=ORIENTED_EDGE('',*,*,#290,.T.);
#454=ORIENTED_EDGE('',*,*,#283,.T.);
#455=ORIENTED_EDGE('',*,*,#276,.T.);
#456=ORIENTED_EDGE('',*,*,#269,.T.);
#457=ORIENTED_EDGE('',*,*,#262,.T.);
#458=ORIENTED_EDGE('',*,*,#314,.T.);
#459=ORIENTED_EDGE('',*,*,#256,.F.);
#460=CYLINDRICAL_SURFACE('',#511,4.775);
#461=CYLINDRICAL_SURFACE('',#556,2.2);
#462=CYLINDRICAL_SURFACE('',#557,2.2);
#463=CYLINDRICAL_SURFACE('',#558,2.2);
#464=CYLINDRICAL_SURFACE('',#559,2.2);
#465=CYLINDRICAL_SURFACE('',#560,2.2);
#466=CYLINDRICAL_SURFACE('',#561,2.2);
#467=CYLINDRICAL_SURFACE('',#576,10.75);
#468=CYLINDRICAL_SURFACE('',#578,17.);
#469=ADVANCED_FACE('',(#49),#460,.F.);
#470=ADVANCED_FACE('',(#50),#33,.F.);
#471=ADVANCED_FACE('',(#51),#34,.F.);
#472=ADVANCED_FACE('',(#52),#35,.F.);
#473=ADVANCED_FACE('',(#53),#36,.F.);
#474=ADVANCED_FACE('',(#54),#37,.F.);
#475=ADVANCED_FACE('',(#55),#38,.F.);
#476=ADVANCED_FACE('',(#56),#39,.F.);
#477=ADVANCED_FACE('',(#57),#40,.F.);
#478=ADVANCED_FACE('',(#58),#41,.F.);
#479=ADVANCED_FACE('',(#59),#42,.F.);
#480=ADVANCED_FACE('',(#60),#43,.F.);
#481=ADVANCED_FACE('',(#61),#44,.F.);
#482=ADVANCED_FACE('',(#62),#461,.F.);
#483=ADVANCED_FACE('',(#63),#462,.F.);
#484=ADVANCED_FACE('',(#64),#463,.F.);
#485=ADVANCED_FACE('',(#65),#464,.F.);
#486=ADVANCED_FACE('',(#66),#465,.F.);
#487=ADVANCED_FACE('',(#67),#466,.F.);
#488=ADVANCED_FACE('',(#68),#45,.T.);
#489=ADVANCED_FACE('',(#69),#46,.T.);
#490=ADVANCED_FACE('',(#70),#47,.F.);
#491=ADVANCED_FACE('',(#71),#48,.T.);
#492=ADVANCED_FACE('',(#72),#467,.F.);
#493=ADVANCED_FACE('',(#73),#468,.T.);
#494=ADVANCED_FACE('',(#74,#15,#16,#17,#18,#19,#20,#21),#30,.T.);
#495=ADVANCED_FACE('',(#75,#22,#23,#24,#25,#26,#27,#28),#31,.T.);
#496=ADVANCED_FACE('',(#76,#29),#32,.T.);
#497=CLOSED_SHELL('',(#469,#470,#471,#472,#473,#474,#475,#476,#477,#478,
#479,#480,#481,#482,#483,#484,#485,#486,#487,#488,#489,#490,#491,#492,#493,
#494,#495,#496));
#498=DERIVED_UNIT_ELEMENT(#500,1.);
#499=DERIVED_UNIT_ELEMENT(#896,-3.);
#500=(
MASS_UNIT()
NAMED_UNIT(*)
SI_UNIT(.KILO.,.GRAM.)
);
#501=DERIVED_UNIT((#498,#499));
#502=MEASURE_REPRESENTATION_ITEM('density measure',
POSITIVE_RATIO_MEASURE(7850.),#501);
#503=PROPERTY_DEFINITION_REPRESENTATION(#508,#505);
#504=PROPERTY_DEFINITION_REPRESENTATION(#509,#506);
#505=REPRESENTATION('material name',(#507),#893);
#506=REPRESENTATION('density',(#502),#893);
#507=DESCRIPTIVE_REPRESENTATION_ITEM('Steel','Steel');
#508=PROPERTY_DEFINITION('material property','material name',#903);
#509=PROPERTY_DEFINITION('material property','density of part',#903);
#510=AXIS2_PLACEMENT_3D('',#751,#582,#583);
#511=AXIS2_PLACEMENT_3D('',#752,#584,#585);
#512=AXIS2_PLACEMENT_3D('',#754,#586,#587);
#513=AXIS2_PLACEMENT_3D('',#757,#589,#590);
#514=AXIS2_PLACEMENT_3D('',#758,#591,#592);
#515=AXIS2_PLACEMENT_3D('',#761,#593,#594);
#516=AXIS2_PLACEMENT_3D('',#762,#595,#596);
#517=AXIS2_PLACEMENT_3D('',#765,#598,#599);
#518=AXIS2_PLACEMENT_3D('',#766,#600,#601);
#519=AXIS2_PLACEMENT_3D('',#768,#602,#603);
#520=AXIS2_PLACEMENT_3D('',#771,#605,#606);
#521=AXIS2_PLACEMENT_3D('',#772,#607,#608);
#522=AXIS2_PLACEMENT_3D('',#775,#609,#610);
#523=AXIS2_PLACEMENT_3D('',#776,#611,#612);
#524=AXIS2_PLACEMENT_3D('',#779,#614,#615);
#525=AXIS2_PLACEMENT_3D('',#780,#616,#617);
#526=AXIS2_PLACEMENT_3D('',#782,#618,#619);
#527=AXIS2_PLACEMENT_3D('',#785,#621,#622);
#528=AXIS2_PLACEMENT_3D('',#786,#623,#624);
#529=AXIS2_PLACEMENT_3D('',#789,#625,#626);
#530=AXIS2_PLACEMENT_3D('',#790,#627,#628);
#531=AXIS2_PLACEMENT_3D('',#793,#630,#631);
#532=AXIS2_PLACEMENT_3D('',#794,#632,#633);
#533=AXIS2_PLACEMENT_3D('',#796,#634,#635);
#534=AXIS2_PLACEMENT_3D('',#799,#637,#638);
#535=AXIS2_PLACEMENT_3D('',#800,#639,#640);
#536=AXIS2_PLACEMENT_3D('',#803,#641,#642);
#537=AXIS2_PLACEMENT_3D('',#804,#643,#644);
#538=AXIS2_PLACEMENT_3D('',#807,#646,#647);
#539=AXIS2_PLACEMENT_3D('',#808,#648,#649);
#540=AXIS2_PLACEMENT_3D('',#810,#650,#651);
#541=AXIS2_PLACEMENT_3D('',#813,#653,#654);
#542=AXIS2_PLACEMENT_3D('',#814,#655,#656);
#543=AXIS2_PLACEMENT_3D('',#817,#657,#658);
#544=AXIS2_PLACEMENT_3D('',#818,#659,#660);
#545=AXIS2_PLACEMENT_3D('',#821,#662,#663);
#546=AXIS2_PLACEMENT_3D('',#822,#664,#665);
#547=AXIS2_PLACEMENT_3D('',#824,#666,#667);
#548=AXIS2_PLACEMENT_3D('',#827,#669,#670);
#549=AXIS2_PLACEMENT_3D('',#828,#671,#672);
#550=AXIS2_PLACEMENT_3D('',#831,#673,#674);
#551=AXIS2_PLACEMENT_3D('',#832,#675,#676);
#552=AXIS2_PLACEMENT_3D('',#835,#678,#679);
#553=AXIS2_PLACEMENT_3D('',#836,#680,#681);
#554=AXIS2_PLACEMENT_3D('',#838,#682,#683);
#555=AXIS2_PLACEMENT_3D('',#841,#685,#686);
#556=AXIS2_PLACEMENT_3D('',#842,#687,#688);
#557=AXIS2_PLACEMENT_3D('',#844,#690,#691);
#558=AXIS2_PLACEMENT_3D('',#846,#693,#694);
#559=AXIS2_PLACEMENT_3D('',#848,#696,#697);
#560=AXIS2_PLACEMENT_3D('',#850,#699,#700);
#561=AXIS2_PLACEMENT_3D('',#852,#702,#703);
#562=AXIS2_PLACEMENT_3D('',#854,#705,#706);
#563=AXIS2_PLACEMENT_3D('',#856,#707,#708);
#564=AXIS2_PLACEMENT_3D('',#859,#710,#711);
#565=AXIS2_PLACEMENT_3D('',#860,#712,#713);
#566=AXIS2_PLACEMENT_3D('',#863,#714,#715);
#567=AXIS2_PLACEMENT_3D('',#864,#716,#717);
#568=AXIS2_PLACEMENT_3D('',#867,#719,#720);
#569=AXIS2_PLACEMENT_3D('',#868,#721,#722);
#570=AXIS2_PLACEMENT_3D('',#870,#723,#724);
#571=AXIS2_PLACEMENT_3D('',#874,#726,#727);
#572=AXIS2_PLACEMENT_3D('',#875,#728,#729);
#573=AXIS2_PLACEMENT_3D('',#876,#730,#731);
#574=AXIS2_PLACEMENT_3D('',#879,#732,#733);
#575=AXIS2_PLACEMENT_3D('',#881,#735,#736);
#576=AXIS2_PLACEMENT_3D('',#882,#737,#738);
#577=AXIS2_PLACEMENT_3D('',#885,#740,#741);
#578=AXIS2_PLACEMENT_3D('',#886,#742,#743);
#579=AXIS2_PLACEMENT_3D('',#888,#745,#746);
#580=AXIS2_PLACEMENT_3D('',#889,#747,#748);
#581=AXIS2_PLACEMENT_3D('',#890,#749,#750);
#582=DIRECTION('axis',(0.,0.,1.));
#583=DIRECTION('refdir',(1.,0.,0.));
#584=DIRECTION('center_axis',(0.,-1.,0.));
#585=DIRECTION('ref_axis',(0.,0.,-1.));
#586=DIRECTION('center_axis',(0.,1.,0.));
#587=DIRECTION('ref_axis',(0.,0.,1.));
#588=DIRECTION('',(0.,-1.,0.));
#589=DIRECTION('center_axis',(0.,-1.,0.));
#590=DIRECTION('ref_axis',(0.,0.,-1.));
#591=DIRECTION('center_axis',(0.,1.,0.));
#592=DIRECTION('ref_axis',(0.,0.,1.));
#593=DIRECTION('center_axis',(0.,1.,0.));
#594=DIRECTION('ref_axis',(0.,0.,1.));
#595=DIRECTION('center_axis',(0.,1.,0.));
#596=DIRECTION('ref_axis',(0.,0.,1.));
#597=DIRECTION('',(-8.65956056235497E-17,0.707106781186544,-0.707106781186551));
#598=DIRECTION('center_axis',(0.,-1.,0.));
#599=DIRECTION('ref_axis',(0.,0.,1.));
#600=DIRECTION('center_axis',(0.,-1.,0.));
#601=DIRECTION('ref_axis',(0.,0.,-1.));
#602=DIRECTION('center_axis',(0.,-1.,0.));
#603=DIRECTION('ref_axis',(0.,0.,-1.));
#604=DIRECTION('',(-8.65956056235494E-17,-0.707106781186548,0.707106781186548));
#605=DIRECTION('center_axis',(0.,1.,0.));
#606=DIRECTION('ref_axis',(0.,0.,-1.));
#607=DIRECTION('center_axis',(0.,1.,0.));
#608=DIRECTION('ref_axis',(0.,0.,1.));
#609=DIRECTION('center_axis',(0.,1.,0.));
#610=DIRECTION('ref_axis',(0.,0.,1.));
#611=DIRECTION('center_axis',(0.,1.,0.));
#612=DIRECTION('ref_axis',(0.,0.,1.));
#613=DIRECTION('',(-8.65956056235489E-17,0.707106781186551,-0.707106781186544));
#614=DIRECTION('center_axis',(0.,-1.,0.));
#615=DIRECTION('ref_axis',(0.,0.,1.));
#616=DIRECTION('center_axis',(0.,-1.,0.));
#617=DIRECTION('ref_axis',(0.,0.,-1.));
#618=DIRECTION('center_axis',(0.,-1.,0.));
#619=DIRECTION('ref_axis',(0.,0.,-1.));
#620=DIRECTION('',(-8.65956056235489E-17,-0.707106781186551,0.707106781186544));
#621=DIRECTION('center_axis',(0.,1.,0.));
#622=DIRECTION('ref_axis',(0.,0.,-1.));
#623=DIRECTION('center_axis',(0.,1.,0.));
#624=DIRECTION('ref_axis',(0.,0.,1.));
#625=DIRECTION('center_axis',(0.,1.,0.));
#626=DIRECTION('ref_axis',(0.,0.,1.));
#627=DIRECTION('center_axis',(0.,1.,0.));
#628=DIRECTION('ref_axis',(0.,0.,1.));
#629=DIRECTION('',(-8.65956056235505E-17,0.707106781186538,-0.707106781186557));
#630=DIRECTION('center_axis',(0.,-1.,0.));
#631=DIRECTION('ref_axis',(0.,0.,1.));
#632=DIRECTION('center_axis',(0.,-1.,0.));
#633=DIRECTION('ref_axis',(0.,0.,-1.));
#634=DIRECTION('center_axis',(0.,-1.,0.));
#635=DIRECTION('ref_axis',(0.,0.,-1.));
#636=DIRECTION('',(-8.65956056235497E-17,-0.707106781186545,0.707106781186551));
#637=DIRECTION('center_axis',(0.,1.,0.));
#638=DIRECTION('ref_axis',(0.,0.,-1.));
#639=DIRECTION('center_axis',(0.,1.,0.));
#640=DIRECTION('ref_axis',(0.,0.,1.));
#641=DIRECTION('center_axis',(0.,1.,0.));
#642=DIRECTION('ref_axis',(0.,0.,1.));
#643=DIRECTION('center_axis',(0.,1.,0.));
#644=DIRECTION('ref_axis',(0.,0.,1.));
#645=DIRECTION('',(-8.65956056235492E-17,0.707106781186549,-0.707106781186546));
#646=DIRECTION('center_axis',(0.,-1.,0.));
#647=DIRECTION('ref_axis',(0.,0.,1.));
#648=DIRECTION('center_axis',(0.,-1.,0.));
#649=DIRECTION('ref_axis',(0.,0.,-1.));
#650=DIRECTION('center_axis',(0.,-1.,0.));
#651=DIRECTION('ref_axis',(0.,0.,-1.));
#652=DIRECTION('',(-8.65956056235498E-17,-0.707106781186544,0.707106781186551));
#653=DIRECTION('center_axis',(0.,1.,0.));
#654=DIRECTION('ref_axis',(0.,0.,-1.));
#655=DIRECTION('center_axis',(0.,1.,0.));
#656=DIRECTION('ref_axis',(0.,0.,1.));
#657=DIRECTION('center_axis',(0.,1.,0.));
#658=DIRECTION('ref_axis',(0.,0.,1.));
#659=DIRECTION('center_axis',(0.,1.,0.));
#660=DIRECTION('ref_axis',(0.,0.,1.));
#661=DIRECTION('',(-8.65956056235489E-17,0.707106781186551,-0.707106781186544));
#662=DIRECTION('center_axis',(0.,-1.,0.));
#663=DIRECTION('ref_axis',(0.,0.,1.));
#664=DIRECTION('center_axis',(0.,-1.,0.));
#665=DIRECTION('ref_axis',(0.,0.,-1.));
#666=DIRECTION('center_axis',(0.,-1.,0.));
#667=DIRECTION('ref_axis',(0.,0.,-1.));
#668=DIRECTION('',(-8.65956056235488E-17,-0.707106781186551,0.707106781186544));
#669=DIRECTION('center_axis',(0.,1.,0.));
#670=DIRECTION('ref_axis',(0.,0.,-1.));
#671=DIRECTION('center_axis',(0.,1.,0.));
#672=DIRECTION('ref_axis',(0.,0.,1.));
#673=DIRECTION('center_axis',(0.,1.,0.));
#674=DIRECTION('ref_axis',(0.,0.,1.));
#675=DIRECTION('center_axis',(0.,1.,0.));
#676=DIRECTION('ref_axis',(0.,0.,1.));
#677=DIRECTION('',(-8.65956056235485E-17,0.707106781186555,-0.707106781186541));
#678=DIRECTION('center_axis',(0.,-1.,0.));
#679=DIRECTION('ref_axis',(0.,0.,1.));
#680=DIRECTION('center_axis',(0.,-1.,0.));
#681=DIRECTION('ref_axis',(0.,0.,-1.));
#682=DIRECTION('center_axis',(0.,-1.,0.));
#683=DIRECTION('ref_axis',(0.,0.,-1.));
#684=DIRECTION('',(-8.65956056235505E-17,-0.707106781186538,0.707106781186557));
#685=DIRECTION('center_axis',(0.,1.,0.));
#686=DIRECTION('ref_axis',(0.,0.,-1.));
#687=DIRECTION('center_axis',(0.,-1.,0.));
#688=DIRECTION('ref_axis',(0.,0.,-1.));
#689=DIRECTION('',(0.,-1.,0.));
#690=DIRECTION('center_axis',(0.,-1.,0.));
#691=DIRECTION('ref_axis',(0.,0.,-1.));
#692=DIRECTION('',(0.,-1.,0.));
#693=DIRECTION('center_axis',(0.,-1.,0.));
#694=DIRECTION('ref_axis',(0.,0.,-1.));
#695=DIRECTION('',(0.,-1.,0.));
#696=DIRECTION('center_axis',(0.,-1.,0.));
#697=DIRECTION('ref_axis',(0.,0.,-1.));
#698=DIRECTION('',(0.,-1.,0.));
#699=DIRECTION('center_axis',(0.,-1.,0.));
#700=DIRECTION('ref_axis',(0.,0.,-1.));
#701=DIRECTION('',(0.,-1.,0.));
#702=DIRECTION('center_axis',(0.,-1.,0.));
#703=DIRECTION('ref_axis',(0.,0.,-1.));
#704=DIRECTION('',(0.,-1.,0.));
#705=DIRECTION('center_axis',(0.,1.,0.));
#706=DIRECTION('ref_axis',(0.,0.,1.));
#707=DIRECTION('center_axis',(0.,1.,0.));
#708=DIRECTION('ref_axis',(0.,0.,-1.));
#709=DIRECTION('',(8.65956056235493E-17,-0.707106781186548,0.707106781186548));
#710=DIRECTION('center_axis',(0.,-1.,0.));
#711=DIRECTION('ref_axis',(0.,0.,-1.));
#712=DIRECTION('center_axis',(0.,-1.,0.));
#713=DIRECTION('ref_axis',(0.,0.,-1.));
#714=DIRECTION('center_axis',(0.,-1.,0.));
#715=DIRECTION('ref_axis',(0.,0.,1.));
#716=DIRECTION('center_axis',(0.,-1.,0.));
#717=DIRECTION('ref_axis',(0.,0.,1.));
#718=DIRECTION('',(8.65956056235501E-17,0.707106781186541,-0.707106781186554));
#719=DIRECTION('center_axis',(0.,1.,0.));
#720=DIRECTION('ref_axis',(0.,0.,1.));
#721=DIRECTION('center_axis',(0.,1.,0.));
#722=DIRECTION('ref_axis',(0.,0.,1.));
#723=DIRECTION('center_axis',(0.,1.,0.));
#724=DIRECTION('ref_axis',(0.,0.,1.));
#725=DIRECTION('',(-4.18853873767707E-17,0.939692620785906,-0.342020143325675));
#726=DIRECTION('center_axis',(0.,1.,0.));
#727=DIRECTION('ref_axis',(0.,0.,1.));
#728=DIRECTION('center_axis',(0.,1.,0.));
#729=DIRECTION('ref_axis',(0.,0.,1.));
#730=DIRECTION('center_axis',(0.,-1.,0.));
#731=DIRECTION('ref_axis',(0.,0.,-1.));
#732=DIRECTION('center_axis',(0.,1.,0.));
#733=DIRECTION('ref_axis',(0.,0.,1.));
#734=DIRECTION('',(1.15079156022785E-16,0.342020143325675,-0.939692620785906));
#735=DIRECTION('center_axis',(0.,1.,0.));
#736=DIRECTION('ref_axis',(0.,0.,1.));
#737=DIRECTION('center_axis',(0.,1.,0.));
#738=DIRECTION('ref_axis',(0.,0.,1.));
#739=DIRECTION('',(0.,1.,0.));
#740=DIRECTION('center_axis',(0.,1.,0.));
#741=DIRECTION('ref_axis',(0.,0.,1.));
#742=DIRECTION('center_axis',(0.,1.,0.));
#743=DIRECTION('ref_axis',(0.,0.,1.));
#744=DIRECTION('',(0.,-1.,0.));
#745=DIRECTION('center_axis',(0.,-1.,0.));
#746=DIRECTION('ref_axis',(0.,0.,-1.));
#747=DIRECTION('center_axis',(0.,1.,0.));
#748=DIRECTION('ref_axis',(0.,0.,1.));
#749=DIRECTION('center_axis',(0.,1.,0.));
#750=DIRECTION('ref_axis',(0.,0.,1.));
#751=CARTESIAN_POINT('',(0.,0.,0.));
#752=CARTESIAN_POINT('Origin',(0.,7.6,0.));
#753=CARTESIAN_POINT('',(-5.84768846592861E-16,6.4,4.775));
#754=CARTESIAN_POINT('Origin',(0.,6.4,0.));
#755=CARTESIAN_POINT('',(-5.84768846592861E-16,0.,4.775));
#756=CARTESIAN_POINT('',(-5.84768846592861E-16,7.6,4.775));
#757=CARTESIAN_POINT('Origin',(0.,0.,0.));
#758=CARTESIAN_POINT('Origin',(-11.6913429510899,7.6,6.74999999999997));
#759=CARTESIAN_POINT('',(-11.6913429510899,7.40000000000003,8.94999999999997));
#760=CARTESIAN_POINT('',(-11.6913429510899,7.40000000000003,4.54999999999997));
#761=CARTESIAN_POINT('Origin',(-11.6913429510899,7.40000000000003,6.74999999999997));
#762=CARTESIAN_POINT('Origin',(-11.6913429510899,7.40000000000003,6.74999999999997));
#763=CARTESIAN_POINT('',(-11.6913429510899,7.6,4.35000000000001));
#764=CARTESIAN_POINT('',(-11.6913429510899,7.6,4.35000000000001));
#765=CARTESIAN_POINT('Origin',(-11.6913429510899,7.6,6.74999999999997));
#766=CARTESIAN_POINT('Origin',(-11.6913429510899,0.200000000000027,6.74999999999997));
#767=CARTESIAN_POINT('',(-11.6913429510899,0.200000000000027,8.94999999999997));
#768=CARTESIAN_POINT('Origin',(-11.6913429510899,0.200000000000027,6.74999999999997));
#769=CARTESIAN_POINT('',(-11.6913429510899,-5.89805981832114E-16,9.15));
#770=CARTESIAN_POINT('',(-11.6913429510899,0.200000000000027,8.94999999999997));
#771=CARTESIAN_POINT('Origin',(-11.6913429510899,-1.04094977927525E-15,
6.74999999999997));
#772=CARTESIAN_POINT('Origin',(0.,7.6,13.5));
#773=CARTESIAN_POINT('',(2.69422295812418E-16,7.40000000000002,15.7));
#774=CARTESIAN_POINT('',(-2.69422295812418E-16,7.40000000000002,11.3));
#775=CARTESIAN_POINT('Origin',(0.,7.40000000000002,13.5));
#776=CARTESIAN_POINT('Origin',(0.,7.40000000000002,13.5));
#777=CARTESIAN_POINT('',(-2.93915231795362E-16,7.6,11.1));
#778=CARTESIAN_POINT('',(-2.93915231795362E-16,7.6,11.1));
#779=CARTESIAN_POINT('Origin',(0.,7.6,13.5));
#780=CARTESIAN_POINT('Origin',(0.,0.200000000000013,13.5));
#781=CARTESIAN_POINT('',(-2.69422295812418E-16,0.200000000000013,15.7));
#782=CARTESIAN_POINT('Origin',(0.,0.200000000000013,13.5));
#783=CARTESIAN_POINT('',(-2.93915231795366E-16,-8.32667268468867E-16,15.9));
#784=CARTESIAN_POINT('',(-2.69422295812418E-16,0.200000000000013,15.7));
#785=CARTESIAN_POINT('Origin',(0.,-1.04094977927525E-15,13.5));
#786=CARTESIAN_POINT('Origin',(11.6913429510898,7.6,6.75000000000014));
#787=CARTESIAN_POINT('',(11.6913429510898,7.40000000000003,8.95000000000014));
#788=CARTESIAN_POINT('',(11.6913429510898,7.40000000000003,4.55000000000014));
#789=CARTESIAN_POINT('Origin',(11.6913429510898,7.40000000000003,6.75000000000014));
#790=CARTESIAN_POINT('Origin',(11.6913429510898,7.40000000000003,6.75000000000014));
#791=CARTESIAN_POINT('',(11.6913429510898,7.6,4.35000000000017));
#792=CARTESIAN_POINT('',(11.6913429510898,7.6,4.35000000000017));
#793=CARTESIAN_POINT('Origin',(11.6913429510898,7.6,6.75000000000014));
#794=CARTESIAN_POINT('Origin',(11.6913429510898,0.200000000000013,6.75000000000014));
#795=CARTESIAN_POINT('',(11.6913429510898,0.200000000000013,8.95000000000014));
#796=CARTESIAN_POINT('Origin',(11.6913429510898,0.200000000000013,6.75000000000014));
#797=CARTESIAN_POINT('',(11.6913429510898,-1.31838984174237E-15,9.15000000000015));
#798=CARTESIAN_POINT('',(11.6913429510898,0.200000000000013,8.95000000000014));
#799=CARTESIAN_POINT('Origin',(11.6913429510898,-1.04094977927525E-15,6.75000000000014));
#800=CARTESIAN_POINT('Origin',(11.69134295109,7.6,-6.74999999999989));
#801=CARTESIAN_POINT('',(11.69134295109,7.40000000000002,-4.54999999999989));
#802=CARTESIAN_POINT('',(11.69134295109,7.40000000000002,-8.94999999999989));
#803=CARTESIAN_POINT('Origin',(11.69134295109,7.40000000000002,-6.74999999999989));
#804=CARTESIAN_POINT('Origin',(11.69134295109,7.40000000000002,-6.74999999999989));
#805=CARTESIAN_POINT('',(11.69134295109,7.6,-9.14999999999987));
#806=CARTESIAN_POINT('',(11.69134295109,7.6,-9.14999999999987));
#807=CARTESIAN_POINT('Origin',(11.69134295109,7.6,-6.74999999999989));
#808=CARTESIAN_POINT('Origin',(11.69134295109,0.200000000000026,-6.74999999999989));
#809=CARTESIAN_POINT('',(11.69134295109,0.200000000000026,-4.54999999999989));
#810=CARTESIAN_POINT('Origin',(11.69134295109,0.200000000000026,-6.74999999999989));
#811=CARTESIAN_POINT('',(11.69134295109,-6.93889390390723E-16,-4.34999999999986));
#812=CARTESIAN_POINT('',(11.69134295109,0.200000000000026,-4.54999999999989));
#813=CARTESIAN_POINT('Origin',(11.69134295109,-1.04094977927525E-15,-6.74999999999989));
#814=CARTESIAN_POINT('Origin',(9.42700507499533E-14,7.6,-13.5));
#815=CARTESIAN_POINT('',(9.45394730457657E-14,7.40000000000002,-11.3));
#816=CARTESIAN_POINT('',(9.40006284541409E-14,7.40000000000002,-15.7));
#817=CARTESIAN_POINT('Origin',(9.42700507499533E-14,7.40000000000002,-13.5));
#818=CARTESIAN_POINT('Origin',(9.42700507499533E-14,7.40000000000002,-13.5));
#819=CARTESIAN_POINT('',(9.3976135518158E-14,7.6,-15.9));
#820=CARTESIAN_POINT('',(9.3976135518158E-14,7.6,-15.9));
#821=CARTESIAN_POINT('Origin',(9.42700507499533E-14,7.6,-13.5));
#822=CARTESIAN_POINT('Origin',(9.42700507499533E-14,0.200000000000013,-13.5));
#823=CARTESIAN_POINT('',(9.40006284541409E-14,0.200000000000013,-11.3));
#824=CARTESIAN_POINT('Origin',(9.42700507499533E-14,0.200000000000013,-13.5));
#825=CARTESIAN_POINT('',(9.3976135518158E-14,-1.80411241501588E-15,-11.1));
#826=CARTESIAN_POINT('',(9.40006284541409E-14,0.200000000000013,-11.3));
#827=CARTESIAN_POINT('Origin',(9.42700507499533E-14,-1.04094977927525E-15,
-13.5));
#828=CARTESIAN_POINT('Origin',(-11.6913429510899,7.6,-6.75000000000006));
#829=CARTESIAN_POINT('',(-11.6913429510899,7.40000000000002,-4.55000000000006));
#830=CARTESIAN_POINT('',(-11.6913429510899,7.40000000000002,-8.95000000000006));
#831=CARTESIAN_POINT('Origin',(-11.6913429510899,7.40000000000002,-6.75000000000006));
#832=CARTESIAN_POINT('Origin',(-11.6913429510899,7.40000000000002,-6.75000000000006));
#833=CARTESIAN_POINT('',(-11.6913429510899,7.6,-9.15000000000003));
#834=CARTESIAN_POINT('',(-11.6913429510899,7.6,-9.15000000000003));
#835=CARTESIAN_POINT('Origin',(-11.6913429510899,7.6,-6.75000000000006));
#836=CARTESIAN_POINT('Origin',(-11.6913429510899,0.200000000000033,-6.75000000000006));
#837=CARTESIAN_POINT('',(-11.6913429510899,0.200000000000034,-4.55000000000006));
#838=CARTESIAN_POINT('Origin',(-11.6913429510899,0.200000000000033,-6.75000000000006));
#839=CARTESIAN_POINT('',(-11.6913429510899,-1.70002900645727E-15,-4.35000000000002));
#840=CARTESIAN_POINT('',(-11.6913429510899,0.200000000000033,-4.55000000000006));
#841=CARTESIAN_POINT('Origin',(-11.6913429510899,-1.04094977927525E-15,
-6.75000000000006));
#842=CARTESIAN_POINT('Origin',(11.6913429510898,7.6,6.75000000000014));
#843=CARTESIAN_POINT('',(11.6913429510898,7.6,8.95000000000014));
#844=CARTESIAN_POINT('Origin',(11.69134295109,7.6,-6.74999999999989));
#845=CARTESIAN_POINT('',(11.69134295109,7.6,-4.54999999999989));
#846=CARTESIAN_POINT('Origin',(9.42700507499533E-14,7.6,-13.5));
#847=CARTESIAN_POINT('',(9.40006284541409E-14,7.6,-11.3));
#848=CARTESIAN_POINT('Origin',(-11.6913429510899,7.6,-6.75000000000006));
#849=CARTESIAN_POINT('',(-11.6913429510899,7.6,-4.55000000000006));
#850=CARTESIAN_POINT('Origin',(-11.6913429510899,7.6,6.74999999999997));
#851=CARTESIAN_POINT('',(-11.6913429510899,7.6,8.94999999999997));
#852=CARTESIAN_POINT('Origin',(0.,7.6,13.5));
#853=CARTESIAN_POINT('',(-2.69422295812418E-16,7.6,15.7));
#854=CARTESIAN_POINT('Origin',(0.,0.399999999999998,0.));
#855=CARTESIAN_POINT('',(-2.0818995585505E-15,0.399999999999998,-17.));
#856=CARTESIAN_POINT('Origin',(0.,0.399999999999998,0.));
#857=CARTESIAN_POINT('',(-2.03291368658461E-15,5.55111512312578E-16,-16.6));
#858=CARTESIAN_POINT('',(-2.0818995585505E-15,0.399999999999998,-17.));
#859=CARTESIAN_POINT('Origin',(0.,-1.04094977927525E-15,0.));
#860=CARTESIAN_POINT('Origin',(0.,7.6,0.));
#861=CARTESIAN_POINT('',(2.0818995585505E-15,7.19999999999999,-17.));
#862=CARTESIAN_POINT('',(-2.0818995585505E-15,7.19999999999999,17.));
#863=CARTESIAN_POINT('Origin',(0.,7.19999999999999,0.));
#864=CARTESIAN_POINT('Origin',(0.,7.19999999999999,0.));
#865=CARTESIAN_POINT('',(-2.0329136865846E-15,7.6,16.6));
#866=CARTESIAN_POINT('',(-2.0329136865846E-15,7.6,16.6));
#867=CARTESIAN_POINT('Origin',(0.,7.6,0.));
#868=CARTESIAN_POINT('Origin',(0.,6.4,0.));
#869=CARTESIAN_POINT('',(-1.09380772227709E-15,6.4,-8.93161785944027));
#870=CARTESIAN_POINT('Origin',(0.,6.4,0.));
#871=CARTESIAN_POINT('',(-1.12055182121983E-15,7.,-9.15));
#872=CARTESIAN_POINT('',(-1.09380772227709E-15,6.4,-8.93161785944027));
#873=CARTESIAN_POINT('',(1.21852356515162E-15,7.,9.15));
#874=CARTESIAN_POINT('Origin',(0.,7.,0.));
#875=CARTESIAN_POINT('Origin',(0.,7.,0.));
#876=CARTESIAN_POINT('Origin',(0.,7.,0.));
#877=CARTESIAN_POINT('',(1.3164953090834E-15,6.41764762517406,-10.75));
#878=CARTESIAN_POINT('',(-1.3164953090834E-15,6.41764762517406,10.75));
#879=CARTESIAN_POINT('Origin',(0.,6.41764762517406,0.));
#880=CARTESIAN_POINT('',(-1.12055182121983E-15,7.,9.15));
#881=CARTESIAN_POINT('Origin',(0.,6.41764762517406,0.));
#882=CARTESIAN_POINT('Origin',(0.,53.8353387124258,0.));
#883=CARTESIAN_POINT('',(-1.3164953090834E-15,7.6,-10.75));
#884=CARTESIAN_POINT('',(-1.3164953090834E-15,53.8353387124258,-10.75));
#885=CARTESIAN_POINT('Origin',(0.,7.6,0.));
#886=CARTESIAN_POINT('Origin',(0.,53.8353387124258,0.));
#887=CARTESIAN_POINT('',(-2.0818995585505E-15,53.8353387124258,-17.));
#888=CARTESIAN_POINT('Origin',(0.,-1.04094977927525E-15,0.));
#889=CARTESIAN_POINT('Origin',(0.,7.6,17.));
#890=CARTESIAN_POINT('Origin',(0.,6.4,8.93161785944027));
#891=UNCERTAINTY_MEASURE_WITH_UNIT(LENGTH_MEASURE(0.01),#895,
'DISTANCE_ACCURACY_VALUE',
'Maximum model space distance between geometric entities at asserted c
onnectivities');
#892=UNCERTAINTY_MEASURE_WITH_UNIT(LENGTH_MEASURE(0.01),#895,
'DISTANCE_ACCURACY_VALUE',
'Maximum model space distance between geometric entities at asserted c
onnectivities');
#893=(
GEOMETRIC_REPRESENTATION_CONTEXT(3)
GLOBAL_UNCERTAINTY_ASSIGNED_CONTEXT((#891))
GLOBAL_UNIT_ASSIGNED_CONTEXT((#895,#897,#898))
REPRESENTATION_CONTEXT('','3D')
);
#894=(
GEOMETRIC_REPRESENTATION_CONTEXT(3)
GLOBAL_UNCERTAINTY_ASSIGNED_CONTEXT((#892))
GLOBAL_UNIT_ASSIGNED_CONTEXT((#895,#897,#898))
REPRESENTATION_CONTEXT('','3D')
);
#895=(
LENGTH_UNIT()
NAMED_UNIT(*)
SI_UNIT(.MILLI.,.METRE.)
);
#896=(
LENGTH_UNIT()
NAMED_UNIT(*)
SI_UNIT($,.METRE.)
);
#897=(
NAMED_UNIT(*)
PLANE_ANGLE_UNIT()
SI_UNIT($,.RADIAN.)
);
#898=(
NAMED_UNIT(*)
SI_UNIT($,.STERADIAN.)
SOLID_ANGLE_UNIT()
);
#899=SHAPE_DEFINITION_REPRESENTATION(#900,#901);
#900=PRODUCT_DEFINITION_SHAPE('',$,#903);
#901=SHAPE_REPRESENTATION('',(#510),#893);
#902=PRODUCT_DEFINITION_CONTEXT('part definition',#907,'design');
#903=PRODUCT_DEFINITION('Hositrad_CF16-10','Hositrad_CF16-10 v1',#904,#902);
#904=PRODUCT_DEFINITION_FORMATION('',$,#909);
#905=PRODUCT_RELATED_PRODUCT_CATEGORY('Hositrad_CF16-10 v1',
'Hositrad_CF16-10 v1',(#909));
#906=APPLICATION_PROTOCOL_DEFINITION('international standard',
'automotive_design',2009,#907);
#907=APPLICATION_CONTEXT(
'Core Data for Automotive Mechanical Design Process');
#908=PRODUCT_CONTEXT('part definition',#907,'mechanical');
#909=PRODUCT('Hositrad_CF16-10','Hositrad_CF16-10 v1',$,(#908));
#910=PRESENTATION_STYLE_ASSIGNMENT((#912));
#911=PRESENTATION_STYLE_ASSIGNMENT((#913));
#912=SURFACE_STYLE_USAGE(.BOTH.,#914);
#913=SURFACE_STYLE_USAGE(.BOTH.,#915);
#914=SURFACE_SIDE_STYLE('',(#916));
#915=SURFACE_SIDE_STYLE('',(#917));
#916=SURFACE_STYLE_FILL_AREA(#918);
#917=SURFACE_STYLE_FILL_AREA(#919);
#918=FILL_AREA_STYLE('Steel - Satin',(#920));
#919=FILL_AREA_STYLE('Opaque(165,158,150)',(#921));
#920=FILL_AREA_STYLE_COLOUR('Steel - Satin',#922);
#921=FILL_AREA_STYLE_COLOUR('Opaque(165,158,150)',#923);
#922=COLOUR_RGB('Steel - Satin',0.627450980392157,0.627450980392157,0.627450980392157);
#923=COLOUR_RGB('Opaque(165,158,150)',0.647058823529412,0.619607843137255,
0.588235294117647);
ENDSEC;
END-ISO-10303-21;
