ISO-10303-21;
HEADER;
/* Generated by software containing ST-Developer
 * from STEP Tools, Inc. (www.steptools.com) 
 */

FILE_DESCRIPTION(
/* description */ (''),
/* implementation_level */ '2;1');

FILE_NAME(
/* name */ 'Hositrad_KF40-44.5-30 v1.step',
/* time_stamp */ '2024-06-25T14:35:00+02:00',
/* author */ (''),
/* organization */ (''),
/* preprocessor_version */ 'ST-DEVELOPER v20',
/* originating_system */ 'Autodesk Translation Framework v13.14.0.145',

/* authorisation */ '');

FILE_SCHEMA (('AUTOMOTIVE_DESIGN { 1 0 10303 214 3 1 1 }'));
ENDSEC;

DATA;
#10=MECHANICAL_DESIGN_GEOMETRIC_PRESENTATION_REPRESENTATION('',(#13),#316);
#11=SHAPE_REPRESENTATION_RELATIONSHIP('SRR','None',#323,#12);
#12=ADVANCED_BREP_SHAPE_REPRESENTATION('',(#14),#315);
#13=STYLED_ITEM('',(#333),#14);
#14=MANIFOLD_SOLID_BREP('Body1',#169);
#15=FACE_BOUND('',#46,.T.);
#16=FACE_BOUND('',#48,.T.);
#17=FACE_BOUND('',#50,.T.);
#18=PLANE('',#205);
#19=PLANE('',#206);
#20=PLANE('',#207);
#21=TOROIDAL_SURFACE('',#196,26.,1.5);
#22=CYLINDRICAL_SURFACE('',#187,20.25);
#23=CYLINDRICAL_SURFACE('',#190,22.25);
#24=CYLINDRICAL_SURFACE('',#201,27.5);
#25=CYLINDRICAL_SURFACE('',#202,20.65);
#26=FACE_OUTER_BOUND('',#37,.T.);
#27=FACE_OUTER_BOUND('',#38,.T.);
#28=FACE_OUTER_BOUND('',#39,.T.);
#29=FACE_OUTER_BOUND('',#40,.T.);
#30=FACE_OUTER_BOUND('',#41,.T.);
#31=FACE_OUTER_BOUND('',#42,.T.);
#32=FACE_OUTER_BOUND('',#43,.T.);
#33=FACE_OUTER_BOUND('',#44,.T.);
#34=FACE_OUTER_BOUND('',#45,.T.);
#35=FACE_OUTER_BOUND('',#47,.T.);
#36=FACE_OUTER_BOUND('',#49,.T.);
#37=EDGE_LOOP('',(#113,#114,#115,#116,#117));
#38=EDGE_LOOP('',(#118,#119,#120,#121));
#39=EDGE_LOOP('',(#122,#123,#124,#125));
#40=EDGE_LOOP('',(#126,#127,#128,#129));
#41=EDGE_LOOP('',(#130,#131,#132,#133,#134));
#42=EDGE_LOOP('',(#135,#136,#137,#138,#139));
#43=EDGE_LOOP('',(#140,#141,#142,#143,#144));
#44=EDGE_LOOP('',(#145,#146,#147,#148));
#45=EDGE_LOOP('',(#149));
#46=EDGE_LOOP('',(#150));
#47=EDGE_LOOP('',(#151));
#48=EDGE_LOOP('',(#152));
#49=EDGE_LOOP('',(#153));
#50=EDGE_LOOP('',(#154));
#51=LINE('',#274,#58);
#52=LINE('',#280,#59);
#53=LINE('',#286,#60);
#54=LINE('',#292,#61);
#55=LINE('',#303,#62);
#56=LINE('',#306,#63);
#57=LINE('',#309,#64);
#58=VECTOR('',#216,20.95);
#59=VECTOR('',#223,20.25);
#60=VECTOR('',#230,22.25);
#61=VECTOR('',#237,27.5);
#62=VECTOR('',#252,27.5);
#63=VECTOR('',#255,20.65);
#64=VECTOR('',#260,19.7373343202567);
#65=CIRCLE('',#184,20.65);
#66=CIRCLE('',#185,20.65);
#67=CIRCLE('',#186,20.95);
#68=CIRCLE('',#188,20.25);
#69=CIRCLE('',#189,20.25);
#70=CIRCLE('',#191,22.25);
#71=CIRCLE('',#192,22.25);
#72=CIRCLE('',#194,27.5);
#73=CIRCLE('',#195,27.25);
#74=CIRCLE('',#197,27.5);
#75=CIRCLE('',#198,27.5);
#76=CIRCLE('',#199,1.5);
#77=CIRCLE('',#200,26.3882285676538);
#78=CIRCLE('',#203,20.65);
#79=VERTEX_POINT('',#269);
#80=VERTEX_POINT('',#270);
#81=VERTEX_POINT('',#273);
#82=VERTEX_POINT('',#277);
#83=VERTEX_POINT('',#279);
#84=VERTEX_POINT('',#283);
#85=VERTEX_POINT('',#285);
#86=VERTEX_POINT('',#289);
#87=VERTEX_POINT('',#291);
#88=VERTEX_POINT('',#295);
#89=VERTEX_POINT('',#296);
#90=VERTEX_POINT('',#299);
#91=VERTEX_POINT('',#305);
#92=EDGE_CURVE('',#79,#80,#65,.T.);
#93=EDGE_CURVE('',#80,#79,#66,.T.);
#94=EDGE_CURVE('',#80,#81,#51,.T.);
#95=EDGE_CURVE('',#81,#81,#67,.T.);
#96=EDGE_CURVE('',#82,#82,#68,.T.);
#97=EDGE_CURVE('',#82,#83,#52,.T.);
#98=EDGE_CURVE('',#83,#83,#69,.T.);
#99=EDGE_CURVE('',#84,#84,#70,.T.);
#100=EDGE_CURVE('',#84,#85,#53,.T.);
#101=EDGE_CURVE('',#85,#85,#71,.T.);
#102=EDGE_CURVE('',#86,#86,#72,.T.);
#103=EDGE_CURVE('',#86,#87,#54,.T.);
#104=EDGE_CURVE('',#87,#87,#73,.T.);
#105=EDGE_CURVE('',#88,#89,#74,.T.);
#106=EDGE_CURVE('',#89,#88,#75,.T.);
#107=EDGE_CURVE('',#89,#90,#76,.T.);
#108=EDGE_CURVE('',#90,#90,#77,.T.);
#109=EDGE_CURVE('',#88,#86,#55,.T.);
#110=EDGE_CURVE('',#79,#91,#56,.T.);
#111=EDGE_CURVE('',#91,#91,#78,.T.);
#112=EDGE_CURVE('',#90,#84,#57,.T.);
#113=ORIENTED_EDGE('',*,*,#92,.F.);
#114=ORIENTED_EDGE('',*,*,#93,.F.);
#115=ORIENTED_EDGE('',*,*,#94,.T.);
#116=ORIENTED_EDGE('',*,*,#95,.F.);
#117=ORIENTED_EDGE('',*,*,#94,.F.);
#118=ORIENTED_EDGE('',*,*,#96,.T.);
#119=ORIENTED_EDGE('',*,*,#97,.T.);
#120=ORIENTED_EDGE('',*,*,#98,.T.);
#121=ORIENTED_EDGE('',*,*,#97,.F.);
#122=ORIENTED_EDGE('',*,*,#99,.F.);
#123=ORIENTED_EDGE('',*,*,#100,.T.);
#124=ORIENTED_EDGE('',*,*,#101,.F.);
#125=ORIENTED_EDGE('',*,*,#100,.F.);
#126=ORIENTED_EDGE('',*,*,#102,.F.);
#127=ORIENTED_EDGE('',*,*,#103,.T.);
#128=ORIENTED_EDGE('',*,*,#104,.F.);
#129=ORIENTED_EDGE('',*,*,#103,.F.);
#130=ORIENTED_EDGE('',*,*,#105,.F.);
#131=ORIENTED_EDGE('',*,*,#106,.F.);
#132=ORIENTED_EDGE('',*,*,#107,.T.);
#133=ORIENTED_EDGE('',*,*,#108,.F.);
#134=ORIENTED_EDGE('',*,*,#107,.F.);
#135=ORIENTED_EDGE('',*,*,#105,.T.);
#136=ORIENTED_EDGE('',*,*,#106,.T.);
#137=ORIENTED_EDGE('',*,*,#109,.T.);
#138=ORIENTED_EDGE('',*,*,#102,.T.);
#139=ORIENTED_EDGE('',*,*,#109,.F.);
#140=ORIENTED_EDGE('',*,*,#92,.T.);
#141=ORIENTED_EDGE('',*,*,#93,.T.);
#142=ORIENTED_EDGE('',*,*,#110,.T.);
#143=ORIENTED_EDGE('',*,*,#111,.T.);
#144=ORIENTED_EDGE('',*,*,#110,.F.);
#145=ORIENTED_EDGE('',*,*,#108,.T.);
#146=ORIENTED_EDGE('',*,*,#112,.T.);
#147=ORIENTED_EDGE('',*,*,#99,.T.);
#148=ORIENTED_EDGE('',*,*,#112,.F.);
#149=ORIENTED_EDGE('',*,*,#111,.F.);
#150=ORIENTED_EDGE('',*,*,#96,.F.);
#151=ORIENTED_EDGE('',*,*,#104,.T.);
#152=ORIENTED_EDGE('',*,*,#95,.T.);
#153=ORIENTED_EDGE('',*,*,#101,.T.);
#154=ORIENTED_EDGE('',*,*,#98,.F.);
#155=CONICAL_SURFACE('',#183,20.95,0.785398163397443);
#156=CONICAL_SURFACE('',#193,27.5,0.785398163397455);
#157=CONICAL_SURFACE('',#204,19.7373343202567,1.30899693899575);
#158=ADVANCED_FACE('',(#26),#155,.F.);
#159=ADVANCED_FACE('',(#27),#22,.F.);
#160=ADVANCED_FACE('',(#28),#23,.T.);
#161=ADVANCED_FACE('',(#29),#156,.T.);
#162=ADVANCED_FACE('',(#30),#21,.T.);
#163=ADVANCED_FACE('',(#31),#24,.T.);
#164=ADVANCED_FACE('',(#32),#25,.F.);
#165=ADVANCED_FACE('',(#33),#157,.T.);
#166=ADVANCED_FACE('',(#34,#15),#18,.T.);
#167=ADVANCED_FACE('',(#35,#16),#19,.T.);
#168=ADVANCED_FACE('',(#36,#17),#20,.T.);
#169=CLOSED_SHELL('',(#158,#159,#160,#161,#162,#163,#164,#165,#166,#167,
#168));
#170=DERIVED_UNIT_ELEMENT(#172,1.);
#171=DERIVED_UNIT_ELEMENT(#318,-3.);
#172=(
MASS_UNIT()
NAMED_UNIT(*)
SI_UNIT(.KILO.,.GRAM.)
);
#173=DERIVED_UNIT((#170,#171));
#174=MEASURE_REPRESENTATION_ITEM('density measure',
POSITIVE_RATIO_MEASURE(7850.),#173);
#175=PROPERTY_DEFINITION_REPRESENTATION(#180,#177);
#176=PROPERTY_DEFINITION_REPRESENTATION(#181,#178);
#177=REPRESENTATION('material name',(#179),#315);
#178=REPRESENTATION('density',(#174),#315);
#179=DESCRIPTIVE_REPRESENTATION_ITEM('Steel','Steel');
#180=PROPERTY_DEFINITION('material property','material name',#325);
#181=PROPERTY_DEFINITION('material property','density of part',#325);
#182=AXIS2_PLACEMENT_3D('',#267,#208,#209);
#183=AXIS2_PLACEMENT_3D('',#268,#210,#211);
#184=AXIS2_PLACEMENT_3D('',#271,#212,#213);
#185=AXIS2_PLACEMENT_3D('',#272,#214,#215);
#186=AXIS2_PLACEMENT_3D('',#275,#217,#218);
#187=AXIS2_PLACEMENT_3D('',#276,#219,#220);
#188=AXIS2_PLACEMENT_3D('',#278,#221,#222);
#189=AXIS2_PLACEMENT_3D('',#281,#224,#225);
#190=AXIS2_PLACEMENT_3D('',#282,#226,#227);
#191=AXIS2_PLACEMENT_3D('',#284,#228,#229);
#192=AXIS2_PLACEMENT_3D('',#287,#231,#232);
#193=AXIS2_PLACEMENT_3D('',#288,#233,#234);
#194=AXIS2_PLACEMENT_3D('',#290,#235,#236);
#195=AXIS2_PLACEMENT_3D('',#293,#238,#239);
#196=AXIS2_PLACEMENT_3D('',#294,#240,#241);
#197=AXIS2_PLACEMENT_3D('',#297,#242,#243);
#198=AXIS2_PLACEMENT_3D('',#298,#244,#245);
#199=AXIS2_PLACEMENT_3D('',#300,#246,#247);
#200=AXIS2_PLACEMENT_3D('',#301,#248,#249);
#201=AXIS2_PLACEMENT_3D('',#302,#250,#251);
#202=AXIS2_PLACEMENT_3D('',#304,#253,#254);
#203=AXIS2_PLACEMENT_3D('',#307,#256,#257);
#204=AXIS2_PLACEMENT_3D('',#308,#258,#259);
#205=AXIS2_PLACEMENT_3D('',#310,#261,#262);
#206=AXIS2_PLACEMENT_3D('',#311,#263,#264);
#207=AXIS2_PLACEMENT_3D('',#312,#265,#266);
#208=DIRECTION('axis',(0.,0.,1.));
#209=DIRECTION('refdir',(1.,0.,0.));
#210=DIRECTION('center_axis',(0.,-1.,0.));
#211=DIRECTION('ref_axis',(0.,0.,-1.));
#212=DIRECTION('center_axis',(0.,-1.,0.));
#213=DIRECTION('ref_axis',(0.,0.,-1.));
#214=DIRECTION('center_axis',(0.,-1.,0.));
#215=DIRECTION('ref_axis',(0.,0.,-1.));
#216=DIRECTION('',(-8.65956056235488E-17,-0.707106781186552,0.707106781186543));
#217=DIRECTION('center_axis',(0.,1.,0.));
#218=DIRECTION('ref_axis',(0.,0.,-1.));
#219=DIRECTION('center_axis',(0.,1.,0.));
#220=DIRECTION('ref_axis',(0.,0.,1.));
#221=DIRECTION('center_axis',(0.,-1.,0.));
#222=DIRECTION('ref_axis',(0.,0.,-1.));
#223=DIRECTION('',(0.,1.,0.));
#224=DIRECTION('center_axis',(0.,1.,0.));
#225=DIRECTION('ref_axis',(0.,0.,1.));
#226=DIRECTION('center_axis',(0.,-1.,0.));
#227=DIRECTION('ref_axis',(0.,0.,-1.));
#228=DIRECTION('center_axis',(0.,-1.,0.));
#229=DIRECTION('ref_axis',(0.,0.,-1.));
#230=DIRECTION('',(0.,1.,0.));
#231=DIRECTION('center_axis',(0.,1.,0.));
#232=DIRECTION('ref_axis',(0.,0.,1.));
#233=DIRECTION('center_axis',(0.,1.,0.));
#234=DIRECTION('ref_axis',(0.,0.,1.));
#235=DIRECTION('center_axis',(0.,1.,0.));
#236=DIRECTION('ref_axis',(0.,0.,-1.));
#237=DIRECTION('',(8.65956056235499E-17,-0.707106781186543,0.707106781186552));
#238=DIRECTION('center_axis',(0.,-1.,0.));
#239=DIRECTION('ref_axis',(0.,0.,-1.));
#240=DIRECTION('center_axis',(0.,-1.,0.));
#241=DIRECTION('ref_axis',(0.,0.,-1.));
#242=DIRECTION('center_axis',(0.,-1.,0.));
#243=DIRECTION('ref_axis',(0.,0.,-1.));
#244=DIRECTION('center_axis',(0.,-1.,0.));
#245=DIRECTION('ref_axis',(0.,0.,-1.));
#246=DIRECTION('center_axis',(-1.,0.,-1.22464679914735E-16));
#247=DIRECTION('ref_axis',(-1.22464679914735E-16,0.,1.));
#248=DIRECTION('center_axis',(0.,1.,0.));
#249=DIRECTION('ref_axis',(0.,0.,1.));
#250=DIRECTION('center_axis',(0.,1.,0.));
#251=DIRECTION('ref_axis',(0.,0.,1.));
#252=DIRECTION('',(0.,-1.,0.));
#253=DIRECTION('center_axis',(0.,1.,0.));
#254=DIRECTION('ref_axis',(0.,0.,1.));
#255=DIRECTION('',(0.,1.,0.));
#256=DIRECTION('center_axis',(0.,1.,0.));
#257=DIRECTION('ref_axis',(0.,0.,1.));
#258=DIRECTION('center_axis',(0.,-1.,0.));
#259=DIRECTION('ref_axis',(0.,0.,-1.));
#260=DIRECTION('',(1.18291797137867E-16,0.258819045102522,-0.965925826289068));
#261=DIRECTION('center_axis',(0.,-1.,0.));
#262=DIRECTION('ref_axis',(0.,0.,-1.));
#263=DIRECTION('center_axis',(0.,-1.,0.));
#264=DIRECTION('ref_axis',(0.,0.,-1.));
#265=DIRECTION('center_axis',(0.,1.,0.));
#266=DIRECTION('ref_axis',(0.,0.,1.));
#267=CARTESIAN_POINT('',(0.,0.,0.));
#268=CARTESIAN_POINT('Origin',(0.,0.,0.));
#269=CARTESIAN_POINT('',(2.52889564023928E-15,0.300000000000009,-20.65));
#270=CARTESIAN_POINT('',(-2.52889564023928E-15,0.300000000000011,20.65));
#271=CARTESIAN_POINT('Origin',(0.,0.300000000000009,0.));
#272=CARTESIAN_POINT('Origin',(0.,0.300000000000009,0.));
#273=CARTESIAN_POINT('',(-2.5656350442137E-15,-5.30665067506282E-15,20.95));
#274=CARTESIAN_POINT('',(-2.5656350442137E-15,0.,20.95));
#275=CARTESIAN_POINT('Origin',(0.,-2.94833716894725E-15,0.));
#276=CARTESIAN_POINT('Origin',(0.,-3.46944695195361E-15,0.));
#277=CARTESIAN_POINT('',(-2.47990976827339E-15,2.5,-20.25));
#278=CARTESIAN_POINT('Origin',(0.,2.5,0.));
#279=CARTESIAN_POINT('',(-2.47990976827339E-15,30.,-20.25));
#280=CARTESIAN_POINT('',(-2.47990976827339E-15,-3.46944695195361E-15,-20.25));
#281=CARTESIAN_POINT('Origin',(0.,30.,0.));
#282=CARTESIAN_POINT('Origin',(0.,30.,0.));
#283=CARTESIAN_POINT('',(-2.72483912810286E-15,4.4067332602634,22.25));
#284=CARTESIAN_POINT('Origin',(0.,4.40673326026339,0.));
#285=CARTESIAN_POINT('',(-2.72483912810286E-15,30.,22.25));
#286=CARTESIAN_POINT('',(-2.72483912810286E-15,30.,22.25));
#287=CARTESIAN_POINT('Origin',(0.,30.,0.));
#288=CARTESIAN_POINT('Origin',(0.,0.249999999999993,0.));
#289=CARTESIAN_POINT('',(-3.36777869765522E-15,0.249999999999995,-27.5));
#290=CARTESIAN_POINT('Origin',(0.,0.249999999999993,0.));
#291=CARTESIAN_POINT('',(-3.33716252767654E-15,-3.92047505570758E-15,-27.25));
#292=CARTESIAN_POINT('',(-3.36777869765522E-15,0.249999999999993,-27.5));
#293=CARTESIAN_POINT('Origin',(0.,-2.94833716894725E-15,0.));
#294=CARTESIAN_POINT('Origin',(0.,1.84900951803155,0.));
#295=CARTESIAN_POINT('',(3.36777869765522E-15,1.84900951803155,-27.5));
#296=CARTESIAN_POINT('',(-3.36777869765522E-15,1.84900951803155,27.5));
#297=CARTESIAN_POINT('Origin',(0.,1.84900951803155,0.));
#298=CARTESIAN_POINT('Origin',(0.,1.84900951803155,0.));
#299=CARTESIAN_POINT('',(-3.23162596505459E-15,3.29789825746516,26.3882285676538));
#300=CARTESIAN_POINT('Origin',(-3.18408167778312E-15,1.84900951803155,26.));
#301=CARTESIAN_POINT('Origin',(0.,3.29789825746516,0.));
#302=CARTESIAN_POINT('Origin',(0.,55.2557961982418,0.));
#303=CARTESIAN_POINT('',(-3.36777869765522E-15,55.2557961982418,-27.5));
#304=CARTESIAN_POINT('Origin',(0.,55.2557961982418,0.));
#305=CARTESIAN_POINT('',(-2.52889564023928E-15,2.49999999999999,-20.65));
#306=CARTESIAN_POINT('',(-2.52889564023928E-15,55.2557961982418,-20.65));
#307=CARTESIAN_POINT('Origin',(0.,2.5,0.));
#308=CARTESIAN_POINT('Origin',(0.,5.08,0.));
#309=CARTESIAN_POINT('',(-2.41712632990036E-15,5.08,19.7373343202567));
#310=CARTESIAN_POINT('Origin',(-20.65,2.5,0.));
#311=CARTESIAN_POINT('Origin',(-20.65,-2.94833716894725E-15,0.));
#312=CARTESIAN_POINT('Origin',(0.,30.,0.));
#313=UNCERTAINTY_MEASURE_WITH_UNIT(LENGTH_MEASURE(0.01),#317,
'DISTANCE_ACCURACY_VALUE',
'Maximum model space distance between geometric entities at asserted c
onnectivities');
#314=UNCERTAINTY_MEASURE_WITH_UNIT(LENGTH_MEASURE(0.01),#317,
'DISTANCE_ACCURACY_VALUE',
'Maximum model space distance between geometric entities at asserted c
onnectivities');
#315=(
GEOMETRIC_REPRESENTATION_CONTEXT(3)
GLOBAL_UNCERTAINTY_ASSIGNED_CONTEXT((#313))
GLOBAL_UNIT_ASSIGNED_CONTEXT((#317,#319,#320))
REPRESENTATION_CONTEXT('','3D')
);
#316=(
GEOMETRIC_REPRESENTATION_CONTEXT(3)
GLOBAL_UNCERTAINTY_ASSIGNED_CONTEXT((#314))
GLOBAL_UNIT_ASSIGNED_CONTEXT((#317,#319,#320))
REPRESENTATION_CONTEXT('','3D')
);
#317=(
LENGTH_UNIT()
NAMED_UNIT(*)
SI_UNIT(.MILLI.,.METRE.)
);
#318=(
LENGTH_UNIT()
NAMED_UNIT(*)
SI_UNIT($,.METRE.)
);
#319=(
NAMED_UNIT(*)
PLANE_ANGLE_UNIT()
SI_UNIT($,.RADIAN.)
);
#320=(
NAMED_UNIT(*)
SI_UNIT($,.STERADIAN.)
SOLID_ANGLE_UNIT()
);
#321=SHAPE_DEFINITION_REPRESENTATION(#322,#323);
#322=PRODUCT_DEFINITION_SHAPE('',$,#325);
#323=SHAPE_REPRESENTATION('',(#182),#315);
#324=PRODUCT_DEFINITION_CONTEXT('part definition',#329,'design');
#325=PRODUCT_DEFINITION('Hositrad_KF40-44.5-30',
'Hositrad_KF40-44.5-30 v1',#326,#324);
#326=PRODUCT_DEFINITION_FORMATION('',$,#331);
#327=PRODUCT_RELATED_PRODUCT_CATEGORY('Hositrad_KF40-44.5-30 v1',
'Hositrad_KF40-44.5-30 v1',(#331));
#328=APPLICATION_PROTOCOL_DEFINITION('international standard',
'automotive_design',2009,#329);
#329=APPLICATION_CONTEXT(
'Core Data for Automotive Mechanical Design Process');
#330=PRODUCT_CONTEXT('part definition',#329,'mechanical');
#331=PRODUCT('Hositrad_KF40-44.5-30','Hositrad_KF40-44.5-30 v1',$,(#330));
#332=PRESENTATION_STYLE_ASSIGNMENT((#334));
#333=PRESENTATION_STYLE_ASSIGNMENT((#335));
#334=SURFACE_STYLE_USAGE(.BOTH.,#336);
#335=SURFACE_STYLE_USAGE(.BOTH.,#337);
#336=SURFACE_SIDE_STYLE('',(#338));
#337=SURFACE_SIDE_STYLE('',(#339));
#338=SURFACE_STYLE_FILL_AREA(#340);
#339=SURFACE_STYLE_FILL_AREA(#341);
#340=FILL_AREA_STYLE('Steel - Satin',(#342));
#341=FILL_AREA_STYLE('Opaque(165,158,150)',(#343));
#342=FILL_AREA_STYLE_COLOUR('Steel - Satin',#344);
#343=FILL_AREA_STYLE_COLOUR('Opaque(165,158,150)',#345);
#344=COLOUR_RGB('Steel - Satin',0.627450980392157,0.627450980392157,0.627450980392157);
#345=COLOUR_RGB('Opaque(165,158,150)',0.647058823529412,0.619607843137255,
0.588235294117647);
ENDSEC;
END-ISO-10303-21;
