ISO-10303-21;
HEADER;
/* Generated by software containing ST-Developer
 * from STEP Tools, Inc. (www.steptools.com) 
 */

FILE_DESCRIPTION(
/* description */ (''),
/* implementation_level */ '2;1');

FILE_NAME(
/* name */ 'coating clamp CAM v5 (ATTER UPDATE).step',
/* time_stamp */ '2024-06-19T10:24:26+02:00',
/* author */ (''),
/* organization */ (''),
/* preprocessor_version */ 'ST-DEVELOPER v20',
/* originating_system */ 'Autodesk Translation Framework v13.14.0.145',

/* authorisation */ '');

FILE_SCHEMA (('AUTOMOTIVE_DESIGN { 1 0 10303 214 3 1 1 }'));
ENDSEC;

DATA;
#10=MECHANICAL_DESIGN_GEOMETRIC_PRESENTATION_REPRESENTATION('',(#45,#46,
#47,#48,#49),#1769);
#11=ITEM_DEFINED_TRANSFORMATION($,$,#1139,#1147);
#12=ITEM_DEFINED_TRANSFORMATION($,$,#1003,#1148);
#13=ITEM_DEFINED_TRANSFORMATION($,$,#1024,#1149);
#14=ITEM_DEFINED_TRANSFORMATION($,$,#1039,#1150);
#15=ITEM_DEFINED_TRANSFORMATION($,$,#1058,#1151);
#16=ITEM_DEFINED_TRANSFORMATION($,$,#1138,#1152);
#17=(
REPRESENTATION_RELATIONSHIP($,$,#1800,#1799)
REPRESENTATION_RELATIONSHIP_WITH_TRANSFORMATION(#11)
SHAPE_REPRESENTATION_RELATIONSHIP()
);
#18=(
REPRESENTATION_RELATIONSHIP($,$,#1795,#1794)
REPRESENTATION_RELATIONSHIP_WITH_TRANSFORMATION(#12)
SHAPE_REPRESENTATION_RELATIONSHIP()
);
#19=(
REPRESENTATION_RELATIONSHIP($,$,#1796,#1794)
REPRESENTATION_RELATIONSHIP_WITH_TRANSFORMATION(#13)
SHAPE_REPRESENTATION_RELATIONSHIP()
);
#20=(
REPRESENTATION_RELATIONSHIP($,$,#1797,#1794)
REPRESENTATION_RELATIONSHIP_WITH_TRANSFORMATION(#14)
SHAPE_REPRESENTATION_RELATIONSHIP()
);
#21=(
REPRESENTATION_RELATIONSHIP($,$,#1798,#1794)
REPRESENTATION_RELATIONSHIP_WITH_TRANSFORMATION(#15)
SHAPE_REPRESENTATION_RELATIONSHIP()
);
#22=(
REPRESENTATION_RELATIONSHIP($,$,#1799,#1794)
REPRESENTATION_RELATIONSHIP_WITH_TRANSFORMATION(#16)
SHAPE_REPRESENTATION_RELATIONSHIP()
);
#23=CONTEXT_DEPENDENT_SHAPE_REPRESENTATION(#17,#1788);
#24=CONTEXT_DEPENDENT_SHAPE_REPRESENTATION(#18,#1789);
#25=CONTEXT_DEPENDENT_SHAPE_REPRESENTATION(#19,#1790);
#26=CONTEXT_DEPENDENT_SHAPE_REPRESENTATION(#20,#1791);
#27=CONTEXT_DEPENDENT_SHAPE_REPRESENTATION(#21,#1792);
#28=CONTEXT_DEPENDENT_SHAPE_REPRESENTATION(#22,#1793);
#29=NEXT_ASSEMBLY_USAGE_OCCURRENCE('thorn:1','thorn:1','thorn:1',#1807,
#1808,'thorn:1');
#30=NEXT_ASSEMBLY_USAGE_OCCURRENCE('Collet Bottom Taper v1:1',
'Collet Bottom Taper v1:1','Collet Bottom Taper v1:1',#1802,#1803,
'Collet Bottom Taper v1:1');
#31=NEXT_ASSEMBLY_USAGE_OCCURRENCE('Collet Top Taper v1:1',
'Collet Top Taper v1:1','Collet Top Taper v1:1',#1802,#1804,
'Collet Top Taper v1:1');
#32=NEXT_ASSEMBLY_USAGE_OCCURRENCE('ER-40 Collet Generic v1:1',
'ER-40 Collet Generic v1:1','ER-40 Collet Generic v1:1',#1802,#1805,
'ER-40 Collet Generic v1:1');
#33=NEXT_ASSEMBLY_USAGE_OCCURRENCE('V2PocketNC kinematic Bdisc v4 v1:1',
'V2PocketNC kinematic Bdisc v4 v1:1',
'V2PocketNC kinematic Bdisc v4 v1:1',#1802,#1806,
'V2PocketNC kinematic Bdisc v4 v1:1');
#34=NEXT_ASSEMBLY_USAGE_OCCURRENCE('electrode coating tool v7:1',
'electrode coating tool v7:1','electrode coating tool v7:1',#1802,#1807,
'electrode coating tool v7:1');
#35=SHAPE_REPRESENTATION_RELATIONSHIP('SRR','None',#1795,#40);
#36=SHAPE_REPRESENTATION_RELATIONSHIP('SRR','None',#1796,#41);
#37=SHAPE_REPRESENTATION_RELATIONSHIP('SRR','None',#1797,#42);
#38=SHAPE_REPRESENTATION_RELATIONSHIP('SRR','None',#1798,#43);
#39=SHAPE_REPRESENTATION_RELATIONSHIP('SRR','None',#1800,#44);
#40=ADVANCED_BREP_SHAPE_REPRESENTATION('',(#50),#1763);
#41=ADVANCED_BREP_SHAPE_REPRESENTATION('',(#51),#1764);
#42=ADVANCED_BREP_SHAPE_REPRESENTATION('',(#52),#1765);
#43=ADVANCED_BREP_SHAPE_REPRESENTATION('',(#53),#1766);
#44=ADVANCED_BREP_SHAPE_REPRESENTATION('',(#54),#1768);
#45=STYLED_ITEM('',(#1833),#50);
#46=STYLED_ITEM('',(#1833),#51);
#47=STYLED_ITEM('',(#1833),#52);
#48=STYLED_ITEM('',(#1834),#53);
#49=STYLED_ITEM('',(#1835),#54);
#50=MANIFOLD_SOLID_BREP('Body1',#941);
#51=MANIFOLD_SOLID_BREP('Body1',#942);
#52=MANIFOLD_SOLID_BREP('Body1',#943);
#53=MANIFOLD_SOLID_BREP('Body1',#944);
#54=MANIFOLD_SOLID_BREP('thorn',#945);
#55=FACE_BOUND('',#225,.T.);
#56=FACE_BOUND('',#228,.T.);
#57=FACE_BOUND('',#231,.T.);
#58=FACE_BOUND('',#232,.T.);
#59=FACE_BOUND('',#233,.T.);
#60=FACE_BOUND('',#238,.T.);
#61=FACE_BOUND('',#239,.T.);
#62=FACE_BOUND('',#240,.T.);
#63=FACE_BOUND('',#243,.T.);
#64=FACE_BOUND('',#244,.T.);
#65=FACE_BOUND('',#245,.T.);
#66=FACE_BOUND('',#249,.T.);
#67=FACE_BOUND('',#251,.T.);
#68=FACE_BOUND('',#254,.T.);
#69=FACE_BOUND('',#257,.T.);
#70=FACE_BOUND('',#265,.T.);
#71=FACE_BOUND('',#266,.T.);
#72=FACE_BOUND('',#298,.T.);
#73=FACE_BOUND('',#299,.T.);
#74=FACE_BOUND('',#300,.T.);
#75=FACE_BOUND('',#301,.T.);
#76=FACE_BOUND('',#302,.T.);
#77=FACE_BOUND('',#303,.T.);
#78=FACE_BOUND('',#304,.T.);
#79=FACE_BOUND('',#305,.T.);
#80=FACE_BOUND('',#306,.T.);
#81=FACE_BOUND('',#307,.T.);
#82=FACE_BOUND('',#308,.T.);
#83=FACE_BOUND('',#309,.T.);
#84=FACE_BOUND('',#310,.T.);
#85=FACE_BOUND('',#311,.T.);
#86=FACE_BOUND('',#312,.T.);
#87=FACE_BOUND('',#313,.T.);
#88=FACE_BOUND('',#314,.T.);
#89=FACE_BOUND('',#315,.T.);
#90=FACE_BOUND('',#316,.T.);
#91=PLANE('',#1015);
#92=PLANE('',#1019);
#93=PLANE('',#1023);
#94=PLANE('',#1034);
#95=PLANE('',#1038);
#96=PLANE('',#1045);
#97=PLANE('',#1047);
#98=PLANE('',#1051);
#99=PLANE('',#1055);
#100=PLANE('',#1065);
#101=PLANE('',#1072);
#102=PLANE('',#1084);
#103=PLANE('',#1088);
#104=PLANE('',#1089);
#105=PLANE('',#1091);
#106=PLANE('',#1093);
#107=PLANE('',#1094);
#108=PLANE('',#1095);
#109=PLANE('',#1097);
#110=PLANE('',#1099);
#111=PLANE('',#1101);
#112=PLANE('',#1102);
#113=PLANE('',#1104);
#114=PLANE('',#1106);
#115=PLANE('',#1107);
#116=PLANE('',#1109);
#117=PLANE('',#1111);
#118=PLANE('',#1133);
#119=PLANE('',#1140);
#120=PLANE('',#1142);
#121=CYLINDRICAL_SURFACE('',#1006,1.55);
#122=CYLINDRICAL_SURFACE('',#1010,1.55);
#123=CYLINDRICAL_SURFACE('',#1017,25.95);
#124=CYLINDRICAL_SURFACE('',#1021,25.925);
#125=CYLINDRICAL_SURFACE('',#1025,1.55);
#126=CYLINDRICAL_SURFACE('',#1028,1.55);
#127=CYLINDRICAL_SURFACE('',#1036,25.925);
#128=CYLINDRICAL_SURFACE('',#1043,3.175);
#129=CYLINDRICAL_SURFACE('',#1053,18.034);
#130=CYLINDRICAL_SURFACE('',#1059,2.);
#131=CYLINDRICAL_SURFACE('',#1062,2.);
#132=CYLINDRICAL_SURFACE('',#1066,2.);
#133=CYLINDRICAL_SURFACE('',#1069,2.);
#134=CYLINDRICAL_SURFACE('',#1076,2.);
#135=CYLINDRICAL_SURFACE('',#1078,2.);
#136=CYLINDRICAL_SURFACE('',#1081,2.);
#137=CYLINDRICAL_SURFACE('',#1085,2.);
#138=CYLINDRICAL_SURFACE('',#1113,1.5875);
#139=CYLINDRICAL_SURFACE('',#1115,1.5875);
#140=CYLINDRICAL_SURFACE('',#1117,1.5875);
#141=CYLINDRICAL_SURFACE('',#1119,1.5875);
#142=CYLINDRICAL_SURFACE('',#1121,1.5875);
#143=CYLINDRICAL_SURFACE('',#1123,1.5875);
#144=CYLINDRICAL_SURFACE('',#1125,1.5875);
#145=CYLINDRICAL_SURFACE('',#1127,1.5875);
#146=CYLINDRICAL_SURFACE('',#1129,1.5875);
#147=CYLINDRICAL_SURFACE('',#1131,1.5875);
#148=CYLINDRICAL_SURFACE('',#1136,44.96825);
#149=CYLINDRICAL_SURFACE('',#1137,26.5);
#150=CYLINDRICAL_SURFACE('',#1146,1.);
#151=FACE_OUTER_BOUND('',#219,.T.);
#152=FACE_OUTER_BOUND('',#220,.T.);
#153=FACE_OUTER_BOUND('',#221,.T.);
#154=FACE_OUTER_BOUND('',#222,.T.);
#155=FACE_OUTER_BOUND('',#223,.T.);
#156=FACE_OUTER_BOUND('',#224,.T.);
#157=FACE_OUTER_BOUND('',#226,.T.);
#158=FACE_OUTER_BOUND('',#227,.T.);
#159=FACE_OUTER_BOUND('',#229,.T.);
#160=FACE_OUTER_BOUND('',#230,.T.);
#161=FACE_OUTER_BOUND('',#234,.T.);
#162=FACE_OUTER_BOUND('',#235,.T.);
#163=FACE_OUTER_BOUND('',#236,.T.);
#164=FACE_OUTER_BOUND('',#237,.T.);
#165=FACE_OUTER_BOUND('',#241,.T.);
#166=FACE_OUTER_BOUND('',#242,.T.);
#167=FACE_OUTER_BOUND('',#246,.T.);
#168=FACE_OUTER_BOUND('',#247,.T.);
#169=FACE_OUTER_BOUND('',#248,.T.);
#170=FACE_OUTER_BOUND('',#250,.T.);
#171=FACE_OUTER_BOUND('',#252,.T.);
#172=FACE_OUTER_BOUND('',#253,.T.);
#173=FACE_OUTER_BOUND('',#255,.T.);
#174=FACE_OUTER_BOUND('',#256,.T.);
#175=FACE_OUTER_BOUND('',#258,.T.);
#176=FACE_OUTER_BOUND('',#259,.T.);
#177=FACE_OUTER_BOUND('',#260,.T.);
#178=FACE_OUTER_BOUND('',#261,.T.);
#179=FACE_OUTER_BOUND('',#262,.T.);
#180=FACE_OUTER_BOUND('',#263,.T.);
#181=FACE_OUTER_BOUND('',#264,.T.);
#182=FACE_OUTER_BOUND('',#267,.T.);
#183=FACE_OUTER_BOUND('',#268,.T.);
#184=FACE_OUTER_BOUND('',#269,.T.);
#185=FACE_OUTER_BOUND('',#270,.T.);
#186=FACE_OUTER_BOUND('',#271,.T.);
#187=FACE_OUTER_BOUND('',#272,.T.);
#188=FACE_OUTER_BOUND('',#273,.T.);
#189=FACE_OUTER_BOUND('',#274,.T.);
#190=FACE_OUTER_BOUND('',#275,.T.);
#191=FACE_OUTER_BOUND('',#276,.T.);
#192=FACE_OUTER_BOUND('',#277,.T.);
#193=FACE_OUTER_BOUND('',#278,.T.);
#194=FACE_OUTER_BOUND('',#279,.T.);
#195=FACE_OUTER_BOUND('',#280,.T.);
#196=FACE_OUTER_BOUND('',#281,.T.);
#197=FACE_OUTER_BOUND('',#282,.T.);
#198=FACE_OUTER_BOUND('',#283,.T.);
#199=FACE_OUTER_BOUND('',#284,.T.);
#200=FACE_OUTER_BOUND('',#285,.T.);
#201=FACE_OUTER_BOUND('',#286,.T.);
#202=FACE_OUTER_BOUND('',#287,.T.);
#203=FACE_OUTER_BOUND('',#288,.T.);
#204=FACE_OUTER_BOUND('',#289,.T.);
#205=FACE_OUTER_BOUND('',#290,.T.);
#206=FACE_OUTER_BOUND('',#291,.T.);
#207=FACE_OUTER_BOUND('',#292,.T.);
#208=FACE_OUTER_BOUND('',#293,.T.);
#209=FACE_OUTER_BOUND('',#294,.T.);
#210=FACE_OUTER_BOUND('',#295,.T.);
#211=FACE_OUTER_BOUND('',#296,.T.);
#212=FACE_OUTER_BOUND('',#297,.T.);
#213=FACE_OUTER_BOUND('',#317,.T.);
#214=FACE_OUTER_BOUND('',#318,.T.);
#215=FACE_OUTER_BOUND('',#319,.T.);
#216=FACE_OUTER_BOUND('',#320,.T.);
#217=FACE_OUTER_BOUND('',#321,.T.);
#218=FACE_OUTER_BOUND('',#322,.T.);
#219=EDGE_LOOP('',(#649,#650,#651));
#220=EDGE_LOOP('',(#652,#653,#654,#655));
#221=EDGE_LOOP('',(#656,#657,#658));
#222=EDGE_LOOP('',(#659,#660,#661,#662));
#223=EDGE_LOOP('',(#663,#664,#665,#666));
#224=EDGE_LOOP('',(#667));
#225=EDGE_LOOP('',(#668));
#226=EDGE_LOOP('',(#669,#670,#671,#672));
#227=EDGE_LOOP('',(#673));
#228=EDGE_LOOP('',(#674));
#229=EDGE_LOOP('',(#675,#676,#677,#678));
#230=EDGE_LOOP('',(#679));
#231=EDGE_LOOP('',(#680));
#232=EDGE_LOOP('',(#681));
#233=EDGE_LOOP('',(#682));
#234=EDGE_LOOP('',(#683,#684,#685,#686));
#235=EDGE_LOOP('',(#687,#688,#689,#690));
#236=EDGE_LOOP('',(#691,#692,#693,#694));
#237=EDGE_LOOP('',(#695));
#238=EDGE_LOOP('',(#696));
#239=EDGE_LOOP('',(#697));
#240=EDGE_LOOP('',(#698));
#241=EDGE_LOOP('',(#699,#700,#701,#702));
#242=EDGE_LOOP('',(#703));
#243=EDGE_LOOP('',(#704));
#244=EDGE_LOOP('',(#705));
#245=EDGE_LOOP('',(#706));
#246=EDGE_LOOP('',(#707,#708,#709,#710));
#247=EDGE_LOOP('',(#711,#712,#713,#714));
#248=EDGE_LOOP('',(#715));
#249=EDGE_LOOP('',(#716));
#250=EDGE_LOOP('',(#717));
#251=EDGE_LOOP('',(#718));
#252=EDGE_LOOP('',(#719,#720,#721,#722));
#253=EDGE_LOOP('',(#723));
#254=EDGE_LOOP('',(#724));
#255=EDGE_LOOP('',(#725,#726,#727,#728));
#256=EDGE_LOOP('',(#729));
#257=EDGE_LOOP('',(#730));
#258=EDGE_LOOP('',(#731,#732,#733,#734));
#259=EDGE_LOOP('',(#735,#736,#737,#738));
#260=EDGE_LOOP('',(#739,#740,#741,#742));
#261=EDGE_LOOP('',(#743));
#262=EDGE_LOOP('',(#744,#745,#746,#747));
#263=EDGE_LOOP('',(#748,#749,#750,#751));
#264=EDGE_LOOP('',(#752));
#265=EDGE_LOOP('',(#753));
#266=EDGE_LOOP('',(#754));
#267=EDGE_LOOP('',(#755,#756,#757,#758));
#268=EDGE_LOOP('',(#759,#760,#761,#762));
#269=EDGE_LOOP('',(#763,#764,#765,#766));
#270=EDGE_LOOP('',(#767));
#271=EDGE_LOOP('',(#768,#769,#770,#771));
#272=EDGE_LOOP('',(#772));
#273=EDGE_LOOP('',(#773));
#274=EDGE_LOOP('',(#774));
#275=EDGE_LOOP('',(#775));
#276=EDGE_LOOP('',(#776));
#277=EDGE_LOOP('',(#777));
#278=EDGE_LOOP('',(#778));
#279=EDGE_LOOP('',(#779));
#280=EDGE_LOOP('',(#780));
#281=EDGE_LOOP('',(#781));
#282=EDGE_LOOP('',(#782));
#283=EDGE_LOOP('',(#783));
#284=EDGE_LOOP('',(#784));
#285=EDGE_LOOP('',(#785));
#286=EDGE_LOOP('',(#786));
#287=EDGE_LOOP('',(#787,#788,#789,#790));
#288=EDGE_LOOP('',(#791,#792,#793,#794));
#289=EDGE_LOOP('',(#795,#796,#797,#798));
#290=EDGE_LOOP('',(#799,#800,#801,#802));
#291=EDGE_LOOP('',(#803,#804,#805,#806));
#292=EDGE_LOOP('',(#807,#808,#809,#810));
#293=EDGE_LOOP('',(#811,#812,#813,#814));
#294=EDGE_LOOP('',(#815,#816,#817,#818));
#295=EDGE_LOOP('',(#819,#820,#821,#822));
#296=EDGE_LOOP('',(#823,#824,#825,#826));
#297=EDGE_LOOP('',(#827));
#298=EDGE_LOOP('',(#828));
#299=EDGE_LOOP('',(#829));
#300=EDGE_LOOP('',(#830));
#301=EDGE_LOOP('',(#831));
#302=EDGE_LOOP('',(#832));
#303=EDGE_LOOP('',(#833));
#304=EDGE_LOOP('',(#834));
#305=EDGE_LOOP('',(#835));
#306=EDGE_LOOP('',(#836));
#307=EDGE_LOOP('',(#837));
#308=EDGE_LOOP('',(#838));
#309=EDGE_LOOP('',(#839));
#310=EDGE_LOOP('',(#840));
#311=EDGE_LOOP('',(#841));
#312=EDGE_LOOP('',(#842));
#313=EDGE_LOOP('',(#843));
#314=EDGE_LOOP('',(#844));
#315=EDGE_LOOP('',(#845));
#316=EDGE_LOOP('',(#846));
#317=EDGE_LOOP('',(#847,#848,#849,#850));
#318=EDGE_LOOP('',(#851,#852,#853,#854));
#319=EDGE_LOOP('',(#855));
#320=EDGE_LOOP('',(#856));
#321=EDGE_LOOP('',(#857,#858,#859,#860));
#322=EDGE_LOOP('',(#861,#862,#863,#864));
#323=LINE('',#1499,#361);
#324=LINE('',#1503,#362);
#325=LINE('',#1508,#363);
#326=LINE('',#1512,#364);
#327=LINE('',#1517,#365);
#328=LINE('',#1525,#366);
#329=LINE('',#1532,#367);
#330=LINE('',#1539,#368);
#331=LINE('',#1545,#369);
#332=LINE('',#1551,#370);
#333=LINE('',#1559,#371);
#334=LINE('',#1566,#372);
#335=LINE('',#1571,#373);
#336=LINE('',#1581,#374);
#337=LINE('',#1588,#375);
#338=LINE('',#1593,#376);
#339=LINE('',#1599,#377);
#340=LINE('',#1605,#378);
#341=LINE('',#1612,#379);
#342=LINE('',#1618,#380);
#343=LINE('',#1629,#381);
#344=LINE('',#1635,#382);
#345=LINE('',#1641,#383);
#346=LINE('',#1648,#384);
#347=LINE('',#1687,#385);
#348=LINE('',#1691,#386);
#349=LINE('',#1695,#387);
#350=LINE('',#1699,#388);
#351=LINE('',#1703,#389);
#352=LINE('',#1707,#390);
#353=LINE('',#1711,#391);
#354=LINE('',#1715,#392);
#355=LINE('',#1719,#393);
#356=LINE('',#1723,#394);
#357=LINE('',#1731,#395);
#358=LINE('',#1733,#396);
#359=LINE('',#1745,#397);
#360=LINE('',#1747,#398);
#361=VECTOR('',#1161,0.775);
#362=VECTOR('',#1166,1.55);
#363=VECTOR('',#1171,0.775);
#364=VECTOR('',#1176,1.55);
#365=VECTOR('',#1181,19.5778948805763);
#366=VECTOR('',#1192,25.95);
#367=VECTOR('',#1201,26.375);
#368=VECTOR('',#1210,1.55);
#369=VECTOR('',#1217,1.55);
#370=VECTOR('',#1224,18.5747045256125);
#371=VECTOR('',#1235,26.35);
#372=VECTOR('',#1244,1.5875);
#373=VECTOR('',#1251,3.175);
#374=VECTOR('',#1264,18.161);
#375=VECTOR('',#1273,18.034);
#376=VECTOR('',#1280,18.161);
#377=VECTOR('',#1287,2.);
#378=VECTOR('',#1294,2.);
#379=VECTOR('',#1303,2.);
#380=VECTOR('',#1310,2.);
#381=VECTOR('',#1323,2.);
#382=VECTOR('',#1330,2.);
#383=VECTOR('',#1337,2.);
#384=VECTOR('',#1346,2.);
#385=VECTOR('',#1401,1.5875);
#386=VECTOR('',#1406,1.5875);
#387=VECTOR('',#1411,1.5875);
#388=VECTOR('',#1416,1.5875);
#389=VECTOR('',#1421,1.5875);
#390=VECTOR('',#1426,1.5875);
#391=VECTOR('',#1431,1.5875);
#392=VECTOR('',#1436,1.5875);
#393=VECTOR('',#1441,1.5875);
#394=VECTOR('',#1446,1.5875);
#395=VECTOR('',#1457,44.96825);
#396=VECTOR('',#1460,26.5);
#397=VECTOR('',#1477,0.5125);
#398=VECTOR('',#1480,1.);
#399=CIRCLE('',#1005,1.55);
#400=CIRCLE('',#1007,1.55);
#401=CIRCLE('',#1009,1.55);
#402=CIRCLE('',#1011,1.55);
#403=CIRCLE('',#1013,21.0057897611526);
#404=CIRCLE('',#1014,18.15);
#405=CIRCLE('',#1016,25.95);
#406=CIRCLE('',#1018,25.95);
#407=CIRCLE('',#1020,25.925);
#408=CIRCLE('',#1022,25.925);
#409=CIRCLE('',#1026,1.55);
#410=CIRCLE('',#1027,1.55);
#411=CIRCLE('',#1029,1.55);
#412=CIRCLE('',#1030,1.55);
#413=CIRCLE('',#1032,16.375);
#414=CIRCLE('',#1033,20.774409051225);
#415=CIRCLE('',#1035,25.925);
#416=CIRCLE('',#1037,25.925);
#417=CIRCLE('',#1041,3.175);
#418=CIRCLE('',#1042,3.06780931233247);
#419=CIRCLE('',#1044,3.175);
#420=CIRCLE('',#1046,15.875);
#421=CIRCLE('',#1048,15.875);
#422=CIRCLE('',#1050,20.447);
#423=CIRCLE('',#1052,18.034);
#424=CIRCLE('',#1054,18.034);
#425=CIRCLE('',#1056,20.447);
#426=CIRCLE('',#1060,2.);
#427=CIRCLE('',#1061,2.);
#428=CIRCLE('',#1063,2.);
#429=CIRCLE('',#1064,2.);
#430=CIRCLE('',#1067,2.);
#431=CIRCLE('',#1068,2.);
#432=CIRCLE('',#1070,2.);
#433=CIRCLE('',#1071,2.);
#434=CIRCLE('',#1073,44.96825);
#435=CIRCLE('',#1074,26.5);
#436=CIRCLE('',#1075,2.);
#437=CIRCLE('',#1077,2.);
#438=CIRCLE('',#1079,2.);
#439=CIRCLE('',#1080,2.);
#440=CIRCLE('',#1082,2.);
#441=CIRCLE('',#1083,2.);
#442=CIRCLE('',#1086,2.);
#443=CIRCLE('',#1087,2.);
#444=CIRCLE('',#1090,1.5875);
#445=CIRCLE('',#1092,1.5875);
#446=CIRCLE('',#1096,1.5875);
#447=CIRCLE('',#1098,1.5875);
#448=CIRCLE('',#1100,1.5875);
#449=CIRCLE('',#1103,1.5875);
#450=CIRCLE('',#1105,1.5875);
#451=CIRCLE('',#1108,1.5875);
#452=CIRCLE('',#1110,1.5875);
#453=CIRCLE('',#1112,1.5875);
#454=CIRCLE('',#1114,1.5875);
#455=CIRCLE('',#1116,1.5875);
#456=CIRCLE('',#1118,1.5875);
#457=CIRCLE('',#1120,1.5875);
#458=CIRCLE('',#1122,1.5875);
#459=CIRCLE('',#1124,1.5875);
#460=CIRCLE('',#1126,1.5875);
#461=CIRCLE('',#1128,1.5875);
#462=CIRCLE('',#1130,1.5875);
#463=CIRCLE('',#1132,1.5875);
#464=CIRCLE('',#1134,44.96825);
#465=CIRCLE('',#1135,26.5);
#466=CIRCLE('',#1141,1.);
#467=CIRCLE('',#1143,0.0249999999999998);
#468=CIRCLE('',#1145,1.);
#469=VERTEX_POINT('',#1496);
#470=VERTEX_POINT('',#1498);
#471=VERTEX_POINT('',#1501);
#472=VERTEX_POINT('',#1505);
#473=VERTEX_POINT('',#1507);
#474=VERTEX_POINT('',#1510);
#475=VERTEX_POINT('',#1514);
#476=VERTEX_POINT('',#1516);
#477=VERTEX_POINT('',#1520);
#478=VERTEX_POINT('',#1523);
#479=VERTEX_POINT('',#1527);
#480=VERTEX_POINT('',#1530);
#481=VERTEX_POINT('',#1536);
#482=VERTEX_POINT('',#1538);
#483=VERTEX_POINT('',#1542);
#484=VERTEX_POINT('',#1544);
#485=VERTEX_POINT('',#1548);
#486=VERTEX_POINT('',#1550);
#487=VERTEX_POINT('',#1554);
#488=VERTEX_POINT('',#1557);
#489=VERTEX_POINT('',#1563);
#490=VERTEX_POINT('',#1565);
#491=VERTEX_POINT('',#1569);
#492=VERTEX_POINT('',#1573);
#493=VERTEX_POINT('',#1576);
#494=VERTEX_POINT('',#1579);
#495=VERTEX_POINT('',#1583);
#496=VERTEX_POINT('',#1586);
#497=VERTEX_POINT('',#1590);
#498=VERTEX_POINT('',#1596);
#499=VERTEX_POINT('',#1598);
#500=VERTEX_POINT('',#1602);
#501=VERTEX_POINT('',#1604);
#502=VERTEX_POINT('',#1609);
#503=VERTEX_POINT('',#1611);
#504=VERTEX_POINT('',#1615);
#505=VERTEX_POINT('',#1617);
#506=VERTEX_POINT('',#1621);
#507=VERTEX_POINT('',#1623);
#508=VERTEX_POINT('',#1625);
#509=VERTEX_POINT('',#1628);
#510=VERTEX_POINT('',#1632);
#511=VERTEX_POINT('',#1634);
#512=VERTEX_POINT('',#1638);
#513=VERTEX_POINT('',#1640);
#514=VERTEX_POINT('',#1645);
#515=VERTEX_POINT('',#1647);
#516=VERTEX_POINT('',#1652);
#517=VERTEX_POINT('',#1655);
#518=VERTEX_POINT('',#1660);
#519=VERTEX_POINT('',#1663);
#520=VERTEX_POINT('',#1666);
#521=VERTEX_POINT('',#1670);
#522=VERTEX_POINT('',#1673);
#523=VERTEX_POINT('',#1677);
#524=VERTEX_POINT('',#1680);
#525=VERTEX_POINT('',#1683);
#526=VERTEX_POINT('',#1686);
#527=VERTEX_POINT('',#1690);
#528=VERTEX_POINT('',#1694);
#529=VERTEX_POINT('',#1698);
#530=VERTEX_POINT('',#1702);
#531=VERTEX_POINT('',#1706);
#532=VERTEX_POINT('',#1710);
#533=VERTEX_POINT('',#1714);
#534=VERTEX_POINT('',#1718);
#535=VERTEX_POINT('',#1722);
#536=VERTEX_POINT('',#1726);
#537=VERTEX_POINT('',#1728);
#538=VERTEX_POINT('',#1737);
#539=VERTEX_POINT('',#1740);
#540=VERTEX_POINT('',#1743);
#541=EDGE_CURVE('',#469,#469,#399,.T.);
#542=EDGE_CURVE('',#469,#470,#323,.T.);
#543=EDGE_CURVE('',#471,#471,#400,.T.);
#544=EDGE_CURVE('',#471,#469,#324,.T.);
#545=EDGE_CURVE('',#472,#472,#401,.T.);
#546=EDGE_CURVE('',#472,#473,#325,.T.);
#547=EDGE_CURVE('',#474,#474,#402,.T.);
#548=EDGE_CURVE('',#474,#472,#326,.T.);
#549=EDGE_CURVE('',#475,#475,#403,.T.);
#550=EDGE_CURVE('',#475,#476,#327,.T.);
#551=EDGE_CURVE('',#476,#476,#404,.T.);
#552=EDGE_CURVE('',#477,#477,#405,.T.);
#553=EDGE_CURVE('',#478,#478,#406,.T.);
#554=EDGE_CURVE('',#478,#477,#328,.T.);
#555=EDGE_CURVE('',#479,#479,#407,.T.);
#556=EDGE_CURVE('',#480,#480,#408,.F.);
#557=EDGE_CURVE('',#480,#479,#329,.T.);
#558=EDGE_CURVE('',#481,#481,#409,.T.);
#559=EDGE_CURVE('',#481,#482,#330,.T.);
#560=EDGE_CURVE('',#482,#482,#410,.T.);
#561=EDGE_CURVE('',#483,#483,#411,.T.);
#562=EDGE_CURVE('',#483,#484,#331,.T.);
#563=EDGE_CURVE('',#484,#484,#412,.T.);
#564=EDGE_CURVE('',#485,#485,#413,.T.);
#565=EDGE_CURVE('',#485,#486,#332,.T.);
#566=EDGE_CURVE('',#486,#486,#414,.T.);
#567=EDGE_CURVE('',#487,#487,#415,.T.);
#568=EDGE_CURVE('',#488,#488,#416,.F.);
#569=EDGE_CURVE('',#488,#487,#333,.T.);
#570=EDGE_CURVE('',#489,#489,#417,.T.);
#571=EDGE_CURVE('',#489,#490,#334,.T.);
#572=EDGE_CURVE('',#490,#490,#418,.T.);
#573=EDGE_CURVE('',#491,#491,#419,.T.);
#574=EDGE_CURVE('',#491,#489,#335,.T.);
#575=EDGE_CURVE('',#492,#492,#420,.T.);
#576=EDGE_CURVE('',#493,#493,#421,.T.);
#577=EDGE_CURVE('',#494,#494,#422,.T.);
#578=EDGE_CURVE('',#494,#493,#336,.T.);
#579=EDGE_CURVE('',#495,#495,#423,.T.);
#580=EDGE_CURVE('',#496,#496,#424,.T.);
#581=EDGE_CURVE('',#496,#495,#337,.T.);
#582=EDGE_CURVE('',#497,#497,#425,.T.);
#583=EDGE_CURVE('',#492,#497,#338,.T.);
#584=EDGE_CURVE('',#498,#498,#426,.T.);
#585=EDGE_CURVE('',#498,#499,#339,.T.);
#586=EDGE_CURVE('',#499,#499,#427,.T.);
#587=EDGE_CURVE('',#500,#500,#428,.T.);
#588=EDGE_CURVE('',#500,#501,#340,.T.);
#589=EDGE_CURVE('',#501,#501,#429,.T.);
#590=EDGE_CURVE('',#502,#502,#430,.T.);
#591=EDGE_CURVE('',#502,#503,#341,.T.);
#592=EDGE_CURVE('',#503,#503,#431,.T.);
#593=EDGE_CURVE('',#504,#504,#432,.T.);
#594=EDGE_CURVE('',#504,#505,#342,.T.);
#595=EDGE_CURVE('',#505,#505,#433,.T.);
#596=EDGE_CURVE('',#506,#506,#434,.T.);
#597=EDGE_CURVE('',#507,#507,#435,.T.);
#598=EDGE_CURVE('',#508,#508,#436,.T.);
#599=EDGE_CURVE('',#508,#509,#343,.T.);
#600=EDGE_CURVE('',#509,#509,#437,.T.);
#601=EDGE_CURVE('',#510,#510,#438,.T.);
#602=EDGE_CURVE('',#510,#511,#344,.T.);
#603=EDGE_CURVE('',#511,#511,#439,.T.);
#604=EDGE_CURVE('',#512,#512,#440,.T.);
#605=EDGE_CURVE('',#512,#513,#345,.T.);
#606=EDGE_CURVE('',#513,#513,#441,.T.);
#607=EDGE_CURVE('',#514,#514,#442,.T.);
#608=EDGE_CURVE('',#514,#515,#346,.T.);
#609=EDGE_CURVE('',#515,#515,#443,.T.);
#610=EDGE_CURVE('',#516,#516,#444,.T.);
#611=EDGE_CURVE('',#517,#517,#445,.T.);
#612=EDGE_CURVE('',#518,#518,#446,.T.);
#613=EDGE_CURVE('',#519,#519,#447,.T.);
#614=EDGE_CURVE('',#520,#520,#448,.T.);
#615=EDGE_CURVE('',#521,#521,#449,.T.);
#616=EDGE_CURVE('',#522,#522,#450,.T.);
#617=EDGE_CURVE('',#523,#523,#451,.T.);
#618=EDGE_CURVE('',#524,#524,#452,.T.);
#619=EDGE_CURVE('',#525,#525,#453,.T.);
#620=EDGE_CURVE('',#516,#526,#347,.T.);
#621=EDGE_CURVE('',#526,#526,#454,.T.);
#622=EDGE_CURVE('',#517,#527,#348,.T.);
#623=EDGE_CURVE('',#527,#527,#455,.T.);
#624=EDGE_CURVE('',#518,#528,#349,.T.);
#625=EDGE_CURVE('',#528,#528,#456,.T.);
#626=EDGE_CURVE('',#519,#529,#350,.T.);
#627=EDGE_CURVE('',#529,#529,#457,.T.);
#628=EDGE_CURVE('',#520,#530,#351,.T.);
#629=EDGE_CURVE('',#530,#530,#458,.T.);
#630=EDGE_CURVE('',#521,#531,#352,.T.);
#631=EDGE_CURVE('',#531,#531,#459,.T.);
#632=EDGE_CURVE('',#522,#532,#353,.T.);
#633=EDGE_CURVE('',#532,#532,#460,.T.);
#634=EDGE_CURVE('',#523,#533,#354,.T.);
#635=EDGE_CURVE('',#533,#533,#461,.T.);
#636=EDGE_CURVE('',#524,#534,#355,.T.);
#637=EDGE_CURVE('',#534,#534,#462,.T.);
#638=EDGE_CURVE('',#525,#535,#356,.T.);
#639=EDGE_CURVE('',#535,#535,#463,.T.);
#640=EDGE_CURVE('',#536,#536,#464,.T.);
#641=EDGE_CURVE('',#537,#537,#465,.T.);
#642=EDGE_CURVE('',#536,#506,#357,.T.);
#643=EDGE_CURVE('',#537,#507,#358,.T.);
#644=EDGE_CURVE('',#538,#538,#466,.T.);
#645=EDGE_CURVE('',#539,#539,#467,.T.);
#646=EDGE_CURVE('',#540,#540,#468,.T.);
#647=EDGE_CURVE('',#540,#539,#359,.T.);
#648=EDGE_CURVE('',#538,#540,#360,.T.);
#649=ORIENTED_EDGE('',*,*,#541,.F.);
#650=ORIENTED_EDGE('',*,*,#542,.T.);
#651=ORIENTED_EDGE('',*,*,#542,.F.);
#652=ORIENTED_EDGE('',*,*,#543,.F.);
#653=ORIENTED_EDGE('',*,*,#544,.T.);
#654=ORIENTED_EDGE('',*,*,#541,.T.);
#655=ORIENTED_EDGE('',*,*,#544,.F.);
#656=ORIENTED_EDGE('',*,*,#545,.F.);
#657=ORIENTED_EDGE('',*,*,#546,.T.);
#658=ORIENTED_EDGE('',*,*,#546,.F.);
#659=ORIENTED_EDGE('',*,*,#547,.F.);
#660=ORIENTED_EDGE('',*,*,#548,.T.);
#661=ORIENTED_EDGE('',*,*,#545,.T.);
#662=ORIENTED_EDGE('',*,*,#548,.F.);
#663=ORIENTED_EDGE('',*,*,#549,.T.);
#664=ORIENTED_EDGE('',*,*,#550,.T.);
#665=ORIENTED_EDGE('',*,*,#551,.F.);
#666=ORIENTED_EDGE('',*,*,#550,.F.);
#667=ORIENTED_EDGE('',*,*,#552,.F.);
#668=ORIENTED_EDGE('',*,*,#551,.T.);
#669=ORIENTED_EDGE('',*,*,#553,.F.);
#670=ORIENTED_EDGE('',*,*,#554,.T.);
#671=ORIENTED_EDGE('',*,*,#552,.T.);
#672=ORIENTED_EDGE('',*,*,#554,.F.);
#673=ORIENTED_EDGE('',*,*,#553,.T.);
#674=ORIENTED_EDGE('',*,*,#555,.F.);
#675=ORIENTED_EDGE('',*,*,#556,.F.);
#676=ORIENTED_EDGE('',*,*,#557,.T.);
#677=ORIENTED_EDGE('',*,*,#555,.T.);
#678=ORIENTED_EDGE('',*,*,#557,.F.);
#679=ORIENTED_EDGE('',*,*,#556,.T.);
#680=ORIENTED_EDGE('',*,*,#543,.T.);
#681=ORIENTED_EDGE('',*,*,#547,.T.);
#682=ORIENTED_EDGE('',*,*,#549,.F.);
#683=ORIENTED_EDGE('',*,*,#558,.F.);
#684=ORIENTED_EDGE('',*,*,#559,.T.);
#685=ORIENTED_EDGE('',*,*,#560,.F.);
#686=ORIENTED_EDGE('',*,*,#559,.F.);
#687=ORIENTED_EDGE('',*,*,#561,.F.);
#688=ORIENTED_EDGE('',*,*,#562,.T.);
#689=ORIENTED_EDGE('',*,*,#563,.F.);
#690=ORIENTED_EDGE('',*,*,#562,.F.);
#691=ORIENTED_EDGE('',*,*,#564,.T.);
#692=ORIENTED_EDGE('',*,*,#565,.T.);
#693=ORIENTED_EDGE('',*,*,#566,.F.);
#694=ORIENTED_EDGE('',*,*,#565,.F.);
#695=ORIENTED_EDGE('',*,*,#567,.F.);
#696=ORIENTED_EDGE('',*,*,#560,.T.);
#697=ORIENTED_EDGE('',*,*,#563,.T.);
#698=ORIENTED_EDGE('',*,*,#566,.T.);
#699=ORIENTED_EDGE('',*,*,#568,.F.);
#700=ORIENTED_EDGE('',*,*,#569,.T.);
#701=ORIENTED_EDGE('',*,*,#567,.T.);
#702=ORIENTED_EDGE('',*,*,#569,.F.);
#703=ORIENTED_EDGE('',*,*,#568,.T.);
#704=ORIENTED_EDGE('',*,*,#558,.T.);
#705=ORIENTED_EDGE('',*,*,#561,.T.);
#706=ORIENTED_EDGE('',*,*,#564,.F.);
#707=ORIENTED_EDGE('',*,*,#570,.F.);
#708=ORIENTED_EDGE('',*,*,#571,.T.);
#709=ORIENTED_EDGE('',*,*,#572,.F.);
#710=ORIENTED_EDGE('',*,*,#571,.F.);
#711=ORIENTED_EDGE('',*,*,#573,.F.);
#712=ORIENTED_EDGE('',*,*,#574,.T.);
#713=ORIENTED_EDGE('',*,*,#570,.T.);
#714=ORIENTED_EDGE('',*,*,#574,.F.);
#715=ORIENTED_EDGE('',*,*,#575,.T.);
#716=ORIENTED_EDGE('',*,*,#573,.T.);
#717=ORIENTED_EDGE('',*,*,#576,.F.);
#718=ORIENTED_EDGE('',*,*,#572,.T.);
#719=ORIENTED_EDGE('',*,*,#577,.F.);
#720=ORIENTED_EDGE('',*,*,#578,.T.);
#721=ORIENTED_EDGE('',*,*,#576,.T.);
#722=ORIENTED_EDGE('',*,*,#578,.F.);
#723=ORIENTED_EDGE('',*,*,#577,.T.);
#724=ORIENTED_EDGE('',*,*,#579,.F.);
#725=ORIENTED_EDGE('',*,*,#580,.F.);
#726=ORIENTED_EDGE('',*,*,#581,.T.);
#727=ORIENTED_EDGE('',*,*,#579,.T.);
#728=ORIENTED_EDGE('',*,*,#581,.F.);
#729=ORIENTED_EDGE('',*,*,#582,.F.);
#730=ORIENTED_EDGE('',*,*,#580,.T.);
#731=ORIENTED_EDGE('',*,*,#575,.F.);
#732=ORIENTED_EDGE('',*,*,#583,.T.);
#733=ORIENTED_EDGE('',*,*,#582,.T.);
#734=ORIENTED_EDGE('',*,*,#583,.F.);
#735=ORIENTED_EDGE('',*,*,#584,.F.);
#736=ORIENTED_EDGE('',*,*,#585,.T.);
#737=ORIENTED_EDGE('',*,*,#586,.T.);
#738=ORIENTED_EDGE('',*,*,#585,.F.);
#739=ORIENTED_EDGE('',*,*,#587,.F.);
#740=ORIENTED_EDGE('',*,*,#588,.T.);
#741=ORIENTED_EDGE('',*,*,#589,.T.);
#742=ORIENTED_EDGE('',*,*,#588,.F.);
#743=ORIENTED_EDGE('',*,*,#587,.T.);
#744=ORIENTED_EDGE('',*,*,#590,.F.);
#745=ORIENTED_EDGE('',*,*,#591,.T.);
#746=ORIENTED_EDGE('',*,*,#592,.T.);
#747=ORIENTED_EDGE('',*,*,#591,.F.);
#748=ORIENTED_EDGE('',*,*,#593,.F.);
#749=ORIENTED_EDGE('',*,*,#594,.T.);
#750=ORIENTED_EDGE('',*,*,#595,.T.);
#751=ORIENTED_EDGE('',*,*,#594,.F.);
#752=ORIENTED_EDGE('',*,*,#596,.F.);
#753=ORIENTED_EDGE('',*,*,#597,.T.);
#754=ORIENTED_EDGE('',*,*,#598,.F.);
#755=ORIENTED_EDGE('',*,*,#598,.T.);
#756=ORIENTED_EDGE('',*,*,#599,.T.);
#757=ORIENTED_EDGE('',*,*,#600,.T.);
#758=ORIENTED_EDGE('',*,*,#599,.F.);
#759=ORIENTED_EDGE('',*,*,#601,.F.);
#760=ORIENTED_EDGE('',*,*,#602,.T.);
#761=ORIENTED_EDGE('',*,*,#603,.T.);
#762=ORIENTED_EDGE('',*,*,#602,.F.);
#763=ORIENTED_EDGE('',*,*,#604,.F.);
#764=ORIENTED_EDGE('',*,*,#605,.T.);
#765=ORIENTED_EDGE('',*,*,#606,.T.);
#766=ORIENTED_EDGE('',*,*,#605,.F.);
#767=ORIENTED_EDGE('',*,*,#604,.T.);
#768=ORIENTED_EDGE('',*,*,#607,.F.);
#769=ORIENTED_EDGE('',*,*,#608,.T.);
#770=ORIENTED_EDGE('',*,*,#609,.T.);
#771=ORIENTED_EDGE('',*,*,#608,.F.);
#772=ORIENTED_EDGE('',*,*,#607,.T.);
#773=ORIENTED_EDGE('',*,*,#610,.T.);
#774=ORIENTED_EDGE('',*,*,#611,.T.);
#775=ORIENTED_EDGE('',*,*,#601,.T.);
#776=ORIENTED_EDGE('',*,*,#590,.T.);
#777=ORIENTED_EDGE('',*,*,#612,.T.);
#778=ORIENTED_EDGE('',*,*,#613,.T.);
#779=ORIENTED_EDGE('',*,*,#614,.T.);
#780=ORIENTED_EDGE('',*,*,#584,.T.);
#781=ORIENTED_EDGE('',*,*,#615,.T.);
#782=ORIENTED_EDGE('',*,*,#616,.T.);
#783=ORIENTED_EDGE('',*,*,#593,.T.);
#784=ORIENTED_EDGE('',*,*,#617,.T.);
#785=ORIENTED_EDGE('',*,*,#618,.T.);
#786=ORIENTED_EDGE('',*,*,#619,.T.);
#787=ORIENTED_EDGE('',*,*,#610,.F.);
#788=ORIENTED_EDGE('',*,*,#620,.T.);
#789=ORIENTED_EDGE('',*,*,#621,.T.);
#790=ORIENTED_EDGE('',*,*,#620,.F.);
#791=ORIENTED_EDGE('',*,*,#611,.F.);
#792=ORIENTED_EDGE('',*,*,#622,.T.);
#793=ORIENTED_EDGE('',*,*,#623,.T.);
#794=ORIENTED_EDGE('',*,*,#622,.F.);
#795=ORIENTED_EDGE('',*,*,#612,.F.);
#796=ORIENTED_EDGE('',*,*,#624,.T.);
#797=ORIENTED_EDGE('',*,*,#625,.T.);
#798=ORIENTED_EDGE('',*,*,#624,.F.);
#799=ORIENTED_EDGE('',*,*,#613,.F.);
#800=ORIENTED_EDGE('',*,*,#626,.T.);
#801=ORIENTED_EDGE('',*,*,#627,.T.);
#802=ORIENTED_EDGE('',*,*,#626,.F.);
#803=ORIENTED_EDGE('',*,*,#614,.F.);
#804=ORIENTED_EDGE('',*,*,#628,.T.);
#805=ORIENTED_EDGE('',*,*,#629,.T.);
#806=ORIENTED_EDGE('',*,*,#628,.F.);
#807=ORIENTED_EDGE('',*,*,#615,.F.);
#808=ORIENTED_EDGE('',*,*,#630,.T.);
#809=ORIENTED_EDGE('',*,*,#631,.T.);
#810=ORIENTED_EDGE('',*,*,#630,.F.);
#811=ORIENTED_EDGE('',*,*,#616,.F.);
#812=ORIENTED_EDGE('',*,*,#632,.T.);
#813=ORIENTED_EDGE('',*,*,#633,.T.);
#814=ORIENTED_EDGE('',*,*,#632,.F.);
#815=ORIENTED_EDGE('',*,*,#617,.F.);
#816=ORIENTED_EDGE('',*,*,#634,.T.);
#817=ORIENTED_EDGE('',*,*,#635,.T.);
#818=ORIENTED_EDGE('',*,*,#634,.F.);
#819=ORIENTED_EDGE('',*,*,#618,.F.);
#820=ORIENTED_EDGE('',*,*,#636,.T.);
#821=ORIENTED_EDGE('',*,*,#637,.T.);
#822=ORIENTED_EDGE('',*,*,#636,.F.);
#823=ORIENTED_EDGE('',*,*,#619,.F.);
#824=ORIENTED_EDGE('',*,*,#638,.T.);
#825=ORIENTED_EDGE('',*,*,#639,.T.);
#826=ORIENTED_EDGE('',*,*,#638,.F.);
#827=ORIENTED_EDGE('',*,*,#640,.F.);
#828=ORIENTED_EDGE('',*,*,#639,.F.);
#829=ORIENTED_EDGE('',*,*,#637,.F.);
#830=ORIENTED_EDGE('',*,*,#606,.F.);
#831=ORIENTED_EDGE('',*,*,#600,.F.);
#832=ORIENTED_EDGE('',*,*,#635,.F.);
#833=ORIENTED_EDGE('',*,*,#595,.F.);
#834=ORIENTED_EDGE('',*,*,#633,.F.);
#835=ORIENTED_EDGE('',*,*,#631,.F.);
#836=ORIENTED_EDGE('',*,*,#586,.F.);
#837=ORIENTED_EDGE('',*,*,#629,.F.);
#838=ORIENTED_EDGE('',*,*,#589,.F.);
#839=ORIENTED_EDGE('',*,*,#627,.F.);
#840=ORIENTED_EDGE('',*,*,#625,.F.);
#841=ORIENTED_EDGE('',*,*,#592,.F.);
#842=ORIENTED_EDGE('',*,*,#603,.F.);
#843=ORIENTED_EDGE('',*,*,#609,.F.);
#844=ORIENTED_EDGE('',*,*,#623,.F.);
#845=ORIENTED_EDGE('',*,*,#621,.F.);
#846=ORIENTED_EDGE('',*,*,#641,.T.);
#847=ORIENTED_EDGE('',*,*,#640,.T.);
#848=ORIENTED_EDGE('',*,*,#642,.T.);
#849=ORIENTED_EDGE('',*,*,#596,.T.);
#850=ORIENTED_EDGE('',*,*,#642,.F.);
#851=ORIENTED_EDGE('',*,*,#641,.F.);
#852=ORIENTED_EDGE('',*,*,#643,.T.);
#853=ORIENTED_EDGE('',*,*,#597,.F.);
#854=ORIENTED_EDGE('',*,*,#643,.F.);
#855=ORIENTED_EDGE('',*,*,#644,.T.);
#856=ORIENTED_EDGE('',*,*,#645,.F.);
#857=ORIENTED_EDGE('',*,*,#646,.F.);
#858=ORIENTED_EDGE('',*,*,#647,.T.);
#859=ORIENTED_EDGE('',*,*,#645,.T.);
#860=ORIENTED_EDGE('',*,*,#647,.F.);
#861=ORIENTED_EDGE('',*,*,#644,.F.);
#862=ORIENTED_EDGE('',*,*,#648,.T.);
#863=ORIENTED_EDGE('',*,*,#646,.T.);
#864=ORIENTED_EDGE('',*,*,#648,.F.);
#865=CONICAL_SURFACE('',#1004,0.775,1.02974425867665);
#866=CONICAL_SURFACE('',#1008,0.775,1.02974425867665);
#867=CONICAL_SURFACE('',#1012,19.5778948805763,0.139626340159546);
#868=CONICAL_SURFACE('',#1031,18.5747045256125,0.523598775598299);
#869=CONICAL_SURFACE('',#1040,1.5875,1.02974425867665);
#870=CONICAL_SURFACE('',#1049,18.161,0.139626340159545);
#871=CONICAL_SURFACE('',#1057,18.161,0.523598775598294);
#872=CONICAL_SURFACE('',#1144,0.5125,0.785398163397449);
#873=ADVANCED_FACE('',(#151),#865,.F.);
#874=ADVANCED_FACE('',(#152),#121,.F.);
#875=ADVANCED_FACE('',(#153),#866,.F.);
#876=ADVANCED_FACE('',(#154),#122,.F.);
#877=ADVANCED_FACE('',(#155),#867,.F.);
#878=ADVANCED_FACE('',(#156,#55),#91,.T.);
#879=ADVANCED_FACE('',(#157),#123,.T.);
#880=ADVANCED_FACE('',(#158,#56),#92,.F.);
#881=ADVANCED_FACE('',(#159),#124,.T.);
#882=ADVANCED_FACE('',(#160,#57,#58,#59),#93,.T.);
#883=ADVANCED_FACE('',(#161),#125,.F.);
#884=ADVANCED_FACE('',(#162),#126,.F.);
#885=ADVANCED_FACE('',(#163),#868,.F.);
#886=ADVANCED_FACE('',(#164,#60,#61,#62),#94,.T.);
#887=ADVANCED_FACE('',(#165),#127,.T.);
#888=ADVANCED_FACE('',(#166,#63,#64,#65),#95,.T.);
#889=ADVANCED_FACE('',(#167),#869,.F.);
#890=ADVANCED_FACE('',(#168),#128,.F.);
#891=ADVANCED_FACE('',(#169,#66),#96,.T.);
#892=ADVANCED_FACE('',(#170,#67),#97,.T.);
#893=ADVANCED_FACE('',(#171),#870,.T.);
#894=ADVANCED_FACE('',(#172,#68),#98,.T.);
#895=ADVANCED_FACE('',(#173),#129,.T.);
#896=ADVANCED_FACE('',(#174,#69),#99,.T.);
#897=ADVANCED_FACE('',(#175),#871,.T.);
#898=ADVANCED_FACE('',(#176),#130,.F.);
#899=ADVANCED_FACE('',(#177),#131,.F.);
#900=ADVANCED_FACE('',(#178),#100,.T.);
#901=ADVANCED_FACE('',(#179),#132,.F.);
#902=ADVANCED_FACE('',(#180),#133,.F.);
#903=ADVANCED_FACE('',(#181,#70,#71),#101,.T.);
#904=ADVANCED_FACE('',(#182),#134,.F.);
#905=ADVANCED_FACE('',(#183),#135,.F.);
#906=ADVANCED_FACE('',(#184),#136,.F.);
#907=ADVANCED_FACE('',(#185),#102,.T.);
#908=ADVANCED_FACE('',(#186),#137,.F.);
#909=ADVANCED_FACE('',(#187),#103,.T.);
#910=ADVANCED_FACE('',(#188),#104,.T.);
#911=ADVANCED_FACE('',(#189),#105,.T.);
#912=ADVANCED_FACE('',(#190),#106,.T.);
#913=ADVANCED_FACE('',(#191),#107,.T.);
#914=ADVANCED_FACE('',(#192),#108,.T.);
#915=ADVANCED_FACE('',(#193),#109,.T.);
#916=ADVANCED_FACE('',(#194),#110,.T.);
#917=ADVANCED_FACE('',(#195),#111,.T.);
#918=ADVANCED_FACE('',(#196),#112,.T.);
#919=ADVANCED_FACE('',(#197),#113,.T.);
#920=ADVANCED_FACE('',(#198),#114,.T.);
#921=ADVANCED_FACE('',(#199),#115,.T.);
#922=ADVANCED_FACE('',(#200),#116,.T.);
#923=ADVANCED_FACE('',(#201),#117,.T.);
#924=ADVANCED_FACE('',(#202),#138,.F.);
#925=ADVANCED_FACE('',(#203),#139,.F.);
#926=ADVANCED_FACE('',(#204),#140,.F.);
#927=ADVANCED_FACE('',(#205),#141,.F.);
#928=ADVANCED_FACE('',(#206),#142,.F.);
#929=ADVANCED_FACE('',(#207),#143,.F.);
#930=ADVANCED_FACE('',(#208),#144,.F.);
#931=ADVANCED_FACE('',(#209),#145,.F.);
#932=ADVANCED_FACE('',(#210),#146,.F.);
#933=ADVANCED_FACE('',(#211),#147,.F.);
#934=ADVANCED_FACE('',(#212,#72,#73,#74,#75,#76,#77,#78,#79,#80,#81,#82,
#83,#84,#85,#86,#87,#88,#89,#90),#118,.T.);
#935=ADVANCED_FACE('',(#213),#148,.T.);
#936=ADVANCED_FACE('',(#214),#149,.F.);
#937=ADVANCED_FACE('',(#215),#119,.T.);
#938=ADVANCED_FACE('',(#216),#120,.T.);
#939=ADVANCED_FACE('',(#217),#872,.T.);
#940=ADVANCED_FACE('',(#218),#150,.T.);
#941=CLOSED_SHELL('',(#873,#874,#875,#876,#877,#878,#879,#880,#881,#882));
#942=CLOSED_SHELL('',(#883,#884,#885,#886,#887,#888));
#943=CLOSED_SHELL('',(#889,#890,#891,#892,#893,#894,#895,#896,#897));
#944=CLOSED_SHELL('',(#898,#899,#900,#901,#902,#903,#904,#905,#906,#907,
#908,#909,#910,#911,#912,#913,#914,#915,#916,#917,#918,#919,#920,#921,#922,
#923,#924,#925,#926,#927,#928,#929,#930,#931,#932,#933,#934,#935,#936));
#945=CLOSED_SHELL('',(#937,#938,#939,#940));
#946=DERIVED_UNIT_ELEMENT(#956,1.);
#947=DERIVED_UNIT_ELEMENT(#1771,-3.);
#948=DERIVED_UNIT_ELEMENT(#956,1.);
#949=DERIVED_UNIT_ELEMENT(#1771,-3.);
#950=DERIVED_UNIT_ELEMENT(#956,1.);
#951=DERIVED_UNIT_ELEMENT(#1771,-3.);
#952=DERIVED_UNIT_ELEMENT(#956,1.);
#953=DERIVED_UNIT_ELEMENT(#1771,-3.);
#954=DERIVED_UNIT_ELEMENT(#956,1.);
#955=DERIVED_UNIT_ELEMENT(#1771,-3.);
#956=(
MASS_UNIT()
NAMED_UNIT(*)
SI_UNIT(.KILO.,.GRAM.)
);
#957=DERIVED_UNIT((#946,#947));
#958=DERIVED_UNIT((#948,#949));
#959=DERIVED_UNIT((#950,#951));
#960=DERIVED_UNIT((#952,#953));
#961=DERIVED_UNIT((#954,#955));
#962=MEASURE_REPRESENTATION_ITEM('density measure',
POSITIVE_RATIO_MEASURE(7850.),#957);
#963=MEASURE_REPRESENTATION_ITEM('density measure',
POSITIVE_RATIO_MEASURE(7850.),#958);
#964=MEASURE_REPRESENTATION_ITEM('density measure',
POSITIVE_RATIO_MEASURE(7850.),#959);
#965=MEASURE_REPRESENTATION_ITEM('density measure',
POSITIVE_RATIO_MEASURE(7850.),#960);
#966=MEASURE_REPRESENTATION_ITEM('density measure',
POSITIVE_RATIO_MEASURE(7850.),#961);
#967=PROPERTY_DEFINITION_REPRESENTATION(#992,#977);
#968=PROPERTY_DEFINITION_REPRESENTATION(#993,#978);
#969=PROPERTY_DEFINITION_REPRESENTATION(#994,#979);
#970=PROPERTY_DEFINITION_REPRESENTATION(#995,#980);
#971=PROPERTY_DEFINITION_REPRESENTATION(#996,#981);
#972=PROPERTY_DEFINITION_REPRESENTATION(#997,#982);
#973=PROPERTY_DEFINITION_REPRESENTATION(#998,#983);
#974=PROPERTY_DEFINITION_REPRESENTATION(#999,#984);
#975=PROPERTY_DEFINITION_REPRESENTATION(#1000,#985);
#976=PROPERTY_DEFINITION_REPRESENTATION(#1001,#986);
#977=REPRESENTATION('material name',(#987),#1763);
#978=REPRESENTATION('density',(#962),#1763);
#979=REPRESENTATION('material name',(#988),#1764);
#980=REPRESENTATION('density',(#963),#1764);
#981=REPRESENTATION('material name',(#989),#1765);
#982=REPRESENTATION('density',(#964),#1765);
#983=REPRESENTATION('material name',(#990),#1766);
#984=REPRESENTATION('density',(#965),#1766);
#985=REPRESENTATION('material name',(#991),#1768);
#986=REPRESENTATION('density',(#966),#1768);
#987=DESCRIPTIVE_REPRESENTATION_ITEM('Steel','Steel');
#988=DESCRIPTIVE_REPRESENTATION_ITEM('Steel','Steel');
#989=DESCRIPTIVE_REPRESENTATION_ITEM('Steel','Steel');
#990=DESCRIPTIVE_REPRESENTATION_ITEM('Steel','Steel');
#991=DESCRIPTIVE_REPRESENTATION_ITEM('Steel','Steel');
#992=PROPERTY_DEFINITION('material property','material name',#1803);
#993=PROPERTY_DEFINITION('material property','density of part',#1803);
#994=PROPERTY_DEFINITION('material property','material name',#1804);
#995=PROPERTY_DEFINITION('material property','density of part',#1804);
#996=PROPERTY_DEFINITION('material property','material name',#1805);
#997=PROPERTY_DEFINITION('material property','density of part',#1805);
#998=PROPERTY_DEFINITION('material property','material name',#1806);
#999=PROPERTY_DEFINITION('material property','density of part',#1806);
#1000=PROPERTY_DEFINITION('material property','material name',#1808);
#1001=PROPERTY_DEFINITION('material property','density of part',#1808);
#1002=AXIS2_PLACEMENT_3D('',#1493,#1153,#1154);
#1003=AXIS2_PLACEMENT_3D('',#1494,#1155,#1156);
#1004=AXIS2_PLACEMENT_3D('',#1495,#1157,#1158);
#1005=AXIS2_PLACEMENT_3D('',#1497,#1159,#1160);
#1006=AXIS2_PLACEMENT_3D('',#1500,#1162,#1163);
#1007=AXIS2_PLACEMENT_3D('',#1502,#1164,#1165);
#1008=AXIS2_PLACEMENT_3D('',#1504,#1167,#1168);
#1009=AXIS2_PLACEMENT_3D('',#1506,#1169,#1170);
#1010=AXIS2_PLACEMENT_3D('',#1509,#1172,#1173);
#1011=AXIS2_PLACEMENT_3D('',#1511,#1174,#1175);
#1012=AXIS2_PLACEMENT_3D('',#1513,#1177,#1178);
#1013=AXIS2_PLACEMENT_3D('',#1515,#1179,#1180);
#1014=AXIS2_PLACEMENT_3D('',#1518,#1182,#1183);
#1015=AXIS2_PLACEMENT_3D('',#1519,#1184,#1185);
#1016=AXIS2_PLACEMENT_3D('',#1521,#1186,#1187);
#1017=AXIS2_PLACEMENT_3D('',#1522,#1188,#1189);
#1018=AXIS2_PLACEMENT_3D('',#1524,#1190,#1191);
#1019=AXIS2_PLACEMENT_3D('',#1526,#1193,#1194);
#1020=AXIS2_PLACEMENT_3D('',#1528,#1195,#1196);
#1021=AXIS2_PLACEMENT_3D('',#1529,#1197,#1198);
#1022=AXIS2_PLACEMENT_3D('',#1531,#1199,#1200);
#1023=AXIS2_PLACEMENT_3D('',#1533,#1202,#1203);
#1024=AXIS2_PLACEMENT_3D('',#1534,#1204,#1205);
#1025=AXIS2_PLACEMENT_3D('',#1535,#1206,#1207);
#1026=AXIS2_PLACEMENT_3D('',#1537,#1208,#1209);
#1027=AXIS2_PLACEMENT_3D('',#1540,#1211,#1212);
#1028=AXIS2_PLACEMENT_3D('',#1541,#1213,#1214);
#1029=AXIS2_PLACEMENT_3D('',#1543,#1215,#1216);
#1030=AXIS2_PLACEMENT_3D('',#1546,#1218,#1219);
#1031=AXIS2_PLACEMENT_3D('',#1547,#1220,#1221);
#1032=AXIS2_PLACEMENT_3D('',#1549,#1222,#1223);
#1033=AXIS2_PLACEMENT_3D('',#1552,#1225,#1226);
#1034=AXIS2_PLACEMENT_3D('',#1553,#1227,#1228);
#1035=AXIS2_PLACEMENT_3D('',#1555,#1229,#1230);
#1036=AXIS2_PLACEMENT_3D('',#1556,#1231,#1232);
#1037=AXIS2_PLACEMENT_3D('',#1558,#1233,#1234);
#1038=AXIS2_PLACEMENT_3D('',#1560,#1236,#1237);
#1039=AXIS2_PLACEMENT_3D('',#1561,#1238,#1239);
#1040=AXIS2_PLACEMENT_3D('',#1562,#1240,#1241);
#1041=AXIS2_PLACEMENT_3D('',#1564,#1242,#1243);
#1042=AXIS2_PLACEMENT_3D('',#1567,#1245,#1246);
#1043=AXIS2_PLACEMENT_3D('',#1568,#1247,#1248);
#1044=AXIS2_PLACEMENT_3D('',#1570,#1249,#1250);
#1045=AXIS2_PLACEMENT_3D('',#1572,#1252,#1253);
#1046=AXIS2_PLACEMENT_3D('',#1574,#1254,#1255);
#1047=AXIS2_PLACEMENT_3D('',#1575,#1256,#1257);
#1048=AXIS2_PLACEMENT_3D('',#1577,#1258,#1259);
#1049=AXIS2_PLACEMENT_3D('',#1578,#1260,#1261);
#1050=AXIS2_PLACEMENT_3D('',#1580,#1262,#1263);
#1051=AXIS2_PLACEMENT_3D('',#1582,#1265,#1266);
#1052=AXIS2_PLACEMENT_3D('',#1584,#1267,#1268);
#1053=AXIS2_PLACEMENT_3D('',#1585,#1269,#1270);
#1054=AXIS2_PLACEMENT_3D('',#1587,#1271,#1272);
#1055=AXIS2_PLACEMENT_3D('',#1589,#1274,#1275);
#1056=AXIS2_PLACEMENT_3D('',#1591,#1276,#1277);
#1057=AXIS2_PLACEMENT_3D('',#1592,#1278,#1279);
#1058=AXIS2_PLACEMENT_3D('',#1594,#1281,#1282);
#1059=AXIS2_PLACEMENT_3D('',#1595,#1283,#1284);
#1060=AXIS2_PLACEMENT_3D('',#1597,#1285,#1286);
#1061=AXIS2_PLACEMENT_3D('',#1600,#1288,#1289);
#1062=AXIS2_PLACEMENT_3D('',#1601,#1290,#1291);
#1063=AXIS2_PLACEMENT_3D('',#1603,#1292,#1293);
#1064=AXIS2_PLACEMENT_3D('',#1606,#1295,#1296);
#1065=AXIS2_PLACEMENT_3D('',#1607,#1297,#1298);
#1066=AXIS2_PLACEMENT_3D('',#1608,#1299,#1300);
#1067=AXIS2_PLACEMENT_3D('',#1610,#1301,#1302);
#1068=AXIS2_PLACEMENT_3D('',#1613,#1304,#1305);
#1069=AXIS2_PLACEMENT_3D('',#1614,#1306,#1307);
#1070=AXIS2_PLACEMENT_3D('',#1616,#1308,#1309);
#1071=AXIS2_PLACEMENT_3D('',#1619,#1311,#1312);
#1072=AXIS2_PLACEMENT_3D('',#1620,#1313,#1314);
#1073=AXIS2_PLACEMENT_3D('',#1622,#1315,#1316);
#1074=AXIS2_PLACEMENT_3D('',#1624,#1317,#1318);
#1075=AXIS2_PLACEMENT_3D('',#1626,#1319,#1320);
#1076=AXIS2_PLACEMENT_3D('',#1627,#1321,#1322);
#1077=AXIS2_PLACEMENT_3D('',#1630,#1324,#1325);
#1078=AXIS2_PLACEMENT_3D('',#1631,#1326,#1327);
#1079=AXIS2_PLACEMENT_3D('',#1633,#1328,#1329);
#1080=AXIS2_PLACEMENT_3D('',#1636,#1331,#1332);
#1081=AXIS2_PLACEMENT_3D('',#1637,#1333,#1334);
#1082=AXIS2_PLACEMENT_3D('',#1639,#1335,#1336);
#1083=AXIS2_PLACEMENT_3D('',#1642,#1338,#1339);
#1084=AXIS2_PLACEMENT_3D('',#1643,#1340,#1341);
#1085=AXIS2_PLACEMENT_3D('',#1644,#1342,#1343);
#1086=AXIS2_PLACEMENT_3D('',#1646,#1344,#1345);
#1087=AXIS2_PLACEMENT_3D('',#1649,#1347,#1348);
#1088=AXIS2_PLACEMENT_3D('',#1650,#1349,#1350);
#1089=AXIS2_PLACEMENT_3D('',#1651,#1351,#1352);
#1090=AXIS2_PLACEMENT_3D('',#1653,#1353,#1354);
#1091=AXIS2_PLACEMENT_3D('',#1654,#1355,#1356);
#1092=AXIS2_PLACEMENT_3D('',#1656,#1357,#1358);
#1093=AXIS2_PLACEMENT_3D('',#1657,#1359,#1360);
#1094=AXIS2_PLACEMENT_3D('',#1658,#1361,#1362);
#1095=AXIS2_PLACEMENT_3D('',#1659,#1363,#1364);
#1096=AXIS2_PLACEMENT_3D('',#1661,#1365,#1366);
#1097=AXIS2_PLACEMENT_3D('',#1662,#1367,#1368);
#1098=AXIS2_PLACEMENT_3D('',#1664,#1369,#1370);
#1099=AXIS2_PLACEMENT_3D('',#1665,#1371,#1372);
#1100=AXIS2_PLACEMENT_3D('',#1667,#1373,#1374);
#1101=AXIS2_PLACEMENT_3D('',#1668,#1375,#1376);
#1102=AXIS2_PLACEMENT_3D('',#1669,#1377,#1378);
#1103=AXIS2_PLACEMENT_3D('',#1671,#1379,#1380);
#1104=AXIS2_PLACEMENT_3D('',#1672,#1381,#1382);
#1105=AXIS2_PLACEMENT_3D('',#1674,#1383,#1384);
#1106=AXIS2_PLACEMENT_3D('',#1675,#1385,#1386);
#1107=AXIS2_PLACEMENT_3D('',#1676,#1387,#1388);
#1108=AXIS2_PLACEMENT_3D('',#1678,#1389,#1390);
#1109=AXIS2_PLACEMENT_3D('',#1679,#1391,#1392);
#1110=AXIS2_PLACEMENT_3D('',#1681,#1393,#1394);
#1111=AXIS2_PLACEMENT_3D('',#1682,#1395,#1396);
#1112=AXIS2_PLACEMENT_3D('',#1684,#1397,#1398);
#1113=AXIS2_PLACEMENT_3D('',#1685,#1399,#1400);
#1114=AXIS2_PLACEMENT_3D('',#1688,#1402,#1403);
#1115=AXIS2_PLACEMENT_3D('',#1689,#1404,#1405);
#1116=AXIS2_PLACEMENT_3D('',#1692,#1407,#1408);
#1117=AXIS2_PLACEMENT_3D('',#1693,#1409,#1410);
#1118=AXIS2_PLACEMENT_3D('',#1696,#1412,#1413);
#1119=AXIS2_PLACEMENT_3D('',#1697,#1414,#1415);
#1120=AXIS2_PLACEMENT_3D('',#1700,#1417,#1418);
#1121=AXIS2_PLACEMENT_3D('',#1701,#1419,#1420);
#1122=AXIS2_PLACEMENT_3D('',#1704,#1422,#1423);
#1123=AXIS2_PLACEMENT_3D('',#1705,#1424,#1425);
#1124=AXIS2_PLACEMENT_3D('',#1708,#1427,#1428);
#1125=AXIS2_PLACEMENT_3D('',#1709,#1429,#1430);
#1126=AXIS2_PLACEMENT_3D('',#1712,#1432,#1433);
#1127=AXIS2_PLACEMENT_3D('',#1713,#1434,#1435);
#1128=AXIS2_PLACEMENT_3D('',#1716,#1437,#1438);
#1129=AXIS2_PLACEMENT_3D('',#1717,#1439,#1440);
#1130=AXIS2_PLACEMENT_3D('',#1720,#1442,#1443);
#1131=AXIS2_PLACEMENT_3D('',#1721,#1444,#1445);
#1132=AXIS2_PLACEMENT_3D('',#1724,#1447,#1448);
#1133=AXIS2_PLACEMENT_3D('',#1725,#1449,#1450);
#1134=AXIS2_PLACEMENT_3D('',#1727,#1451,#1452);
#1135=AXIS2_PLACEMENT_3D('',#1729,#1453,#1454);
#1136=AXIS2_PLACEMENT_3D('',#1730,#1455,#1456);
#1137=AXIS2_PLACEMENT_3D('',#1732,#1458,#1459);
#1138=AXIS2_PLACEMENT_3D('',#1734,#1461,#1462);
#1139=AXIS2_PLACEMENT_3D('',#1735,#1463,#1464);
#1140=AXIS2_PLACEMENT_3D('',#1736,#1465,#1466);
#1141=AXIS2_PLACEMENT_3D('',#1738,#1467,#1468);
#1142=AXIS2_PLACEMENT_3D('',#1739,#1469,#1470);
#1143=AXIS2_PLACEMENT_3D('',#1741,#1471,#1472);
#1144=AXIS2_PLACEMENT_3D('',#1742,#1473,#1474);
#1145=AXIS2_PLACEMENT_3D('',#1744,#1475,#1476);
#1146=AXIS2_PLACEMENT_3D('',#1746,#1478,#1479);
#1147=AXIS2_PLACEMENT_3D('',#1748,#1481,#1482);
#1148=AXIS2_PLACEMENT_3D('',#1749,#1483,#1484);
#1149=AXIS2_PLACEMENT_3D('',#1750,#1485,#1486);
#1150=AXIS2_PLACEMENT_3D('',#1751,#1487,#1488);
#1151=AXIS2_PLACEMENT_3D('',#1752,#1489,#1490);
#1152=AXIS2_PLACEMENT_3D('',#1753,#1491,#1492);
#1153=DIRECTION('axis',(0.,0.,1.));
#1154=DIRECTION('refdir',(1.,0.,0.));
#1155=DIRECTION('axis',(0.,0.,1.));
#1156=DIRECTION('refdir',(1.,0.,0.));
#1157=DIRECTION('center_axis',(0.,1.,0.));
#1158=DIRECTION('ref_axis',(0.,0.,1.));
#1159=DIRECTION('center_axis',(0.,-1.,0.));
#1160=DIRECTION('ref_axis',(0.,0.,1.));
#1161=DIRECTION('',(-1.04972719113862E-16,-0.515038074910054,0.857167300702112));
#1162=DIRECTION('center_axis',(0.,-1.,0.));
#1163=DIRECTION('ref_axis',(0.,0.,1.));
#1164=DIRECTION('center_axis',(0.,-1.,0.));
#1165=DIRECTION('ref_axis',(0.,0.,1.));
#1166=DIRECTION('',(0.,-1.,0.));
#1167=DIRECTION('center_axis',(0.,1.,0.));
#1168=DIRECTION('ref_axis',(0.,0.,1.));
#1169=DIRECTION('center_axis',(0.,-1.,0.));
#1170=DIRECTION('ref_axis',(0.,0.,1.));
#1171=DIRECTION('',(-1.04972719113862E-16,-0.515038074910054,0.857167300702112));
#1172=DIRECTION('center_axis',(0.,-1.,0.));
#1173=DIRECTION('ref_axis',(0.,0.,1.));
#1174=DIRECTION('center_axis',(0.,-1.,0.));
#1175=DIRECTION('ref_axis',(0.,0.,1.));
#1176=DIRECTION('',(0.,-1.,0.));
#1177=DIRECTION('center_axis',(0.,1.,0.));
#1178=DIRECTION('ref_axis',(-1.,0.,0.));
#1179=DIRECTION('center_axis',(0.,1.,0.));
#1180=DIRECTION('ref_axis',(1.,0.,0.));
#1181=DIRECTION('',(-0.139173100960065,-0.99026806874157,1.70437892618155E-17));
#1182=DIRECTION('center_axis',(0.,1.,0.));
#1183=DIRECTION('ref_axis',(1.,0.,0.));
#1184=DIRECTION('center_axis',(0.,-1.,0.));
#1185=DIRECTION('ref_axis',(0.,0.,-1.));
#1186=DIRECTION('center_axis',(0.,1.,0.));
#1187=DIRECTION('ref_axis',(1.,0.,0.));
#1188=DIRECTION('center_axis',(0.,1.,0.));
#1189=DIRECTION('ref_axis',(-1.,0.,0.));
#1190=DIRECTION('center_axis',(0.,1.,0.));
#1191=DIRECTION('ref_axis',(1.,0.,0.));
#1192=DIRECTION('',(0.,-1.,0.));
#1193=DIRECTION('center_axis',(0.,-1.,0.));
#1194=DIRECTION('ref_axis',(0.,0.,-1.));
#1195=DIRECTION('center_axis',(0.,1.,0.));
#1196=DIRECTION('ref_axis',(-1.,0.,0.));
#1197=DIRECTION('center_axis',(0.,1.,0.));
#1198=DIRECTION('ref_axis',(-1.,0.,0.));
#1199=DIRECTION('center_axis',(0.,-1.,0.));
#1200=DIRECTION('ref_axis',(-1.,0.,0.));
#1201=DIRECTION('',(0.,-1.,0.));
#1202=DIRECTION('center_axis',(0.,1.,0.));
#1203=DIRECTION('ref_axis',(0.,0.,1.));
#1204=DIRECTION('axis',(0.,0.,1.));
#1205=DIRECTION('refdir',(1.,0.,0.));
#1206=DIRECTION('center_axis',(0.,-1.,0.));
#1207=DIRECTION('ref_axis',(0.,0.,1.));
#1208=DIRECTION('center_axis',(0.,-1.,0.));
#1209=DIRECTION('ref_axis',(0.,0.,1.));
#1210=DIRECTION('',(0.,-1.,0.));
#1211=DIRECTION('center_axis',(0.,1.,0.));
#1212=DIRECTION('ref_axis',(0.,0.,1.));
#1213=DIRECTION('center_axis',(0.,-1.,0.));
#1214=DIRECTION('ref_axis',(0.,0.,1.));
#1215=DIRECTION('center_axis',(0.,-1.,0.));
#1216=DIRECTION('ref_axis',(0.,0.,1.));
#1217=DIRECTION('',(0.,-1.,0.));
#1218=DIRECTION('center_axis',(0.,1.,0.));
#1219=DIRECTION('ref_axis',(0.,0.,1.));
#1220=DIRECTION('center_axis',(0.,-1.,0.));
#1221=DIRECTION('ref_axis',(-1.,0.,0.));
#1222=DIRECTION('center_axis',(0.,1.,0.));
#1223=DIRECTION('ref_axis',(1.,0.,0.));
#1224=DIRECTION('',(0.5,-0.866025403784439,-6.12323399573677E-17));
#1225=DIRECTION('center_axis',(0.,1.,0.));
#1226=DIRECTION('ref_axis',(1.,0.,0.));
#1227=DIRECTION('center_axis',(0.,-1.,0.));
#1228=DIRECTION('ref_axis',(0.,0.,-1.));
#1229=DIRECTION('center_axis',(0.,1.,0.));
#1230=DIRECTION('ref_axis',(-1.,0.,0.));
#1231=DIRECTION('center_axis',(0.,1.,0.));
#1232=DIRECTION('ref_axis',(-1.,0.,0.));
#1233=DIRECTION('center_axis',(0.,-1.,0.));
#1234=DIRECTION('ref_axis',(-1.,0.,0.));
#1235=DIRECTION('',(0.,-1.,0.));
#1236=DIRECTION('center_axis',(0.,1.,0.));
#1237=DIRECTION('ref_axis',(0.,0.,1.));
#1238=DIRECTION('axis',(0.,0.,1.));
#1239=DIRECTION('refdir',(1.,0.,0.));
#1240=DIRECTION('center_axis',(0.,1.,0.));
#1241=DIRECTION('ref_axis',(0.,0.,1.));
#1242=DIRECTION('center_axis',(0.,-1.,0.));
#1243=DIRECTION('ref_axis',(0.,0.,1.));
#1244=DIRECTION('',(-1.04972719113862E-16,-0.515038074910054,0.857167300702112));
#1245=DIRECTION('center_axis',(0.,1.,0.));
#1246=DIRECTION('ref_axis',(0.,0.,1.));
#1247=DIRECTION('center_axis',(0.,-1.,0.));
#1248=DIRECTION('ref_axis',(0.,0.,1.));
#1249=DIRECTION('center_axis',(0.,-1.,0.));
#1250=DIRECTION('ref_axis',(0.,0.,1.));
#1251=DIRECTION('',(0.,-1.,0.));
#1252=DIRECTION('center_axis',(0.,1.,0.));
#1253=DIRECTION('ref_axis',(0.,0.,1.));
#1254=DIRECTION('center_axis',(0.,1.,0.));
#1255=DIRECTION('ref_axis',(1.,0.,0.));
#1256=DIRECTION('center_axis',(0.,-1.,0.));
#1257=DIRECTION('ref_axis',(0.,0.,-1.));
#1258=DIRECTION('center_axis',(0.,1.,0.));
#1259=DIRECTION('ref_axis',(1.,0.,0.));
#1260=DIRECTION('center_axis',(0.,1.,0.));
#1261=DIRECTION('ref_axis',(-1.,0.,0.));
#1262=DIRECTION('center_axis',(0.,1.,0.));
#1263=DIRECTION('ref_axis',(1.,0.,0.));
#1264=DIRECTION('',(-0.139173100960064,-0.990268068741571,1.70437892618154E-17));
#1265=DIRECTION('center_axis',(0.,1.,0.));
#1266=DIRECTION('ref_axis',(0.,0.,1.));
#1267=DIRECTION('center_axis',(0.,1.,0.));
#1268=DIRECTION('ref_axis',(1.,0.,0.));
#1269=DIRECTION('center_axis',(0.,1.,0.));
#1270=DIRECTION('ref_axis',(-1.,0.,0.));
#1271=DIRECTION('center_axis',(0.,1.,0.));
#1272=DIRECTION('ref_axis',(1.,0.,0.));
#1273=DIRECTION('',(0.,-1.,0.));
#1274=DIRECTION('center_axis',(0.,-1.,0.));
#1275=DIRECTION('ref_axis',(0.,0.,-1.));
#1276=DIRECTION('center_axis',(0.,1.,0.));
#1277=DIRECTION('ref_axis',(1.,0.,0.));
#1278=DIRECTION('center_axis',(0.,-1.,0.));
#1279=DIRECTION('ref_axis',(-1.,0.,0.));
#1280=DIRECTION('',(0.499999999999995,-0.866025403784441,-6.12323399573671E-17));
#1281=DIRECTION('axis',(0.,0.,1.));
#1282=DIRECTION('refdir',(1.,0.,0.));
#1283=DIRECTION('center_axis',(0.,1.,-6.21103790000086E-16));
#1284=DIRECTION('ref_axis',(1.,0.,0.));
#1285=DIRECTION('center_axis',(0.,1.,-4.93780845207522E-16));
#1286=DIRECTION('ref_axis',(1.,0.,0.));
#1287=DIRECTION('',(0.,1.,-6.21103790000086E-16));
#1288=DIRECTION('center_axis',(0.,1.,-4.45947323698808E-16));
#1289=DIRECTION('ref_axis',(1.,0.,0.));
#1290=DIRECTION('center_axis',(0.,1.,-6.21103790000086E-16));
#1291=DIRECTION('ref_axis',(1.,0.,0.));
#1292=DIRECTION('center_axis',(0.,1.,-4.93780845207522E-16));
#1293=DIRECTION('ref_axis',(1.,0.,0.));
#1294=DIRECTION('',(0.,1.,-6.21103790000086E-16));
#1295=DIRECTION('center_axis',(0.,1.,-4.45947323698808E-16));
#1296=DIRECTION('ref_axis',(1.,0.,0.));
#1297=DIRECTION('center_axis',(0.,1.,-4.93780845207522E-16));
#1298=DIRECTION('ref_axis',(0.,4.93780845207522E-16,1.));
#1299=DIRECTION('center_axis',(0.,1.,-6.21103790000086E-16));
#1300=DIRECTION('ref_axis',(1.,0.,0.));
#1301=DIRECTION('center_axis',(0.,1.,-4.93780845207522E-16));
#1302=DIRECTION('ref_axis',(1.,0.,0.));
#1303=DIRECTION('',(0.,1.,-6.21103790000086E-16));
#1304=DIRECTION('center_axis',(0.,1.,-4.45947323698808E-16));
#1305=DIRECTION('ref_axis',(1.,0.,0.));
#1306=DIRECTION('center_axis',(0.,1.,-6.21103790000086E-16));
#1307=DIRECTION('ref_axis',(1.,0.,0.));
#1308=DIRECTION('center_axis',(0.,1.,-4.93780845207522E-16));
#1309=DIRECTION('ref_axis',(1.,0.,0.));
#1310=DIRECTION('',(0.,1.,-6.21103790000086E-16));
#1311=DIRECTION('center_axis',(0.,1.,-4.45947323698808E-16));
#1312=DIRECTION('ref_axis',(1.,0.,0.));
#1313=DIRECTION('center_axis',(4.47447557100191E-31,-1.,4.93780845207522E-16));
#1314=DIRECTION('ref_axis',(3.50324616081204E-46,-4.93780845207522E-16,
-1.));
#1315=DIRECTION('center_axis',(-4.47447557100191E-31,1.,-4.93780845207522E-16));
#1316=DIRECTION('ref_axis',(1.,4.47447557100191E-31,7.79048809062404E-47));
#1317=DIRECTION('center_axis',(-4.47447557100191E-31,1.,-4.93780845207522E-16));
#1318=DIRECTION('ref_axis',(-1.,-4.47447557100191E-31,-6.6098984166265E-47));
#1319=DIRECTION('center_axis',(4.47447557100191E-31,-1.,4.93780845207522E-16));
#1320=DIRECTION('ref_axis',(1.,4.47447557100191E-31,-2.20941032930973E-46));
#1321=DIRECTION('center_axis',(0.,1.,-6.21103790000086E-16));
#1322=DIRECTION('ref_axis',(1.,0.,0.));
#1323=DIRECTION('',(0.,1.,-6.21103790000086E-16));
#1324=DIRECTION('center_axis',(0.,1.,-4.45947323698808E-16));
#1325=DIRECTION('ref_axis',(1.,0.,0.));
#1326=DIRECTION('center_axis',(0.,1.,-6.21103790000086E-16));
#1327=DIRECTION('ref_axis',(1.,0.,0.));
#1328=DIRECTION('center_axis',(0.,1.,-4.93780845207522E-16));
#1329=DIRECTION('ref_axis',(1.,0.,0.));
#1330=DIRECTION('',(0.,1.,-6.21103790000086E-16));
#1331=DIRECTION('center_axis',(0.,1.,-4.45947323698808E-16));
#1332=DIRECTION('ref_axis',(1.,0.,0.));
#1333=DIRECTION('center_axis',(0.,1.,-6.21103790000086E-16));
#1334=DIRECTION('ref_axis',(1.,0.,0.));
#1335=DIRECTION('center_axis',(0.,1.,-4.93780845207522E-16));
#1336=DIRECTION('ref_axis',(1.,0.,0.));
#1337=DIRECTION('',(0.,1.,-6.21103790000086E-16));
#1338=DIRECTION('center_axis',(0.,1.,-4.45947323698808E-16));
#1339=DIRECTION('ref_axis',(1.,0.,0.));
#1340=DIRECTION('center_axis',(0.,1.,-4.93780845207522E-16));
#1341=DIRECTION('ref_axis',(0.,4.93780845207522E-16,1.));
#1342=DIRECTION('center_axis',(0.,1.,-6.21103790000086E-16));
#1343=DIRECTION('ref_axis',(1.,0.,0.));
#1344=DIRECTION('center_axis',(0.,1.,-4.93780845207522E-16));
#1345=DIRECTION('ref_axis',(1.,0.,0.));
#1346=DIRECTION('',(0.,1.,-6.21103790000086E-16));
#1347=DIRECTION('center_axis',(0.,1.,-4.45947323698808E-16));
#1348=DIRECTION('ref_axis',(1.,0.,0.));
#1349=DIRECTION('center_axis',(0.,1.,-4.93780845207522E-16));
#1350=DIRECTION('ref_axis',(0.,4.93780845207522E-16,1.));
#1351=DIRECTION('center_axis',(0.,1.,-4.93780845207522E-16));
#1352=DIRECTION('ref_axis',(0.,4.93780845207522E-16,1.));
#1353=DIRECTION('center_axis',(0.,1.,-4.93780845207522E-16));
#1354=DIRECTION('ref_axis',(1.,0.,0.));
#1355=DIRECTION('center_axis',(0.,1.,-4.93780845207522E-16));
#1356=DIRECTION('ref_axis',(0.,4.93780845207522E-16,1.));
#1357=DIRECTION('center_axis',(0.,1.,-4.93780845207522E-16));
#1358=DIRECTION('ref_axis',(1.,0.,0.));
#1359=DIRECTION('center_axis',(0.,1.,-4.93780845207522E-16));
#1360=DIRECTION('ref_axis',(0.,4.93780845207522E-16,1.));
#1361=DIRECTION('center_axis',(0.,1.,-4.93780845207522E-16));
#1362=DIRECTION('ref_axis',(0.,4.93780845207522E-16,1.));
#1363=DIRECTION('center_axis',(0.,1.,-4.93780845207522E-16));
#1364=DIRECTION('ref_axis',(0.,4.93780845207522E-16,1.));
#1365=DIRECTION('center_axis',(0.,1.,-4.93780845207522E-16));
#1366=DIRECTION('ref_axis',(1.,0.,0.));
#1367=DIRECTION('center_axis',(0.,1.,-4.93780845207522E-16));
#1368=DIRECTION('ref_axis',(0.,4.93780845207522E-16,1.));
#1369=DIRECTION('center_axis',(0.,1.,-4.93780845207522E-16));
#1370=DIRECTION('ref_axis',(1.,0.,0.));
#1371=DIRECTION('center_axis',(0.,1.,-4.93780845207522E-16));
#1372=DIRECTION('ref_axis',(0.,4.93780845207522E-16,1.));
#1373=DIRECTION('center_axis',(0.,1.,-4.93780845207522E-16));
#1374=DIRECTION('ref_axis',(1.,0.,0.));
#1375=DIRECTION('center_axis',(0.,1.,-4.93780845207522E-16));
#1376=DIRECTION('ref_axis',(0.,4.93780845207522E-16,1.));
#1377=DIRECTION('center_axis',(0.,1.,-4.93780845207522E-16));
#1378=DIRECTION('ref_axis',(0.,4.93780845207522E-16,1.));
#1379=DIRECTION('center_axis',(0.,1.,-4.93780845207522E-16));
#1380=DIRECTION('ref_axis',(1.,0.,0.));
#1381=DIRECTION('center_axis',(0.,1.,-4.93780845207522E-16));
#1382=DIRECTION('ref_axis',(0.,4.93780845207522E-16,1.));
#1383=DIRECTION('center_axis',(0.,1.,-4.93780845207522E-16));
#1384=DIRECTION('ref_axis',(1.,0.,0.));
#1385=DIRECTION('center_axis',(0.,1.,-4.93780845207522E-16));
#1386=DIRECTION('ref_axis',(0.,4.93780845207522E-16,1.));
#1387=DIRECTION('center_axis',(0.,1.,-4.93780845207522E-16));
#1388=DIRECTION('ref_axis',(0.,4.93780845207522E-16,1.));
#1389=DIRECTION('center_axis',(0.,1.,-4.93780845207522E-16));
#1390=DIRECTION('ref_axis',(1.,0.,0.));
#1391=DIRECTION('center_axis',(0.,1.,-4.93780845207522E-16));
#1392=DIRECTION('ref_axis',(0.,4.93780845207522E-16,1.));
#1393=DIRECTION('center_axis',(0.,1.,-4.93780845207522E-16));
#1394=DIRECTION('ref_axis',(1.,0.,0.));
#1395=DIRECTION('center_axis',(0.,1.,-4.93780845207522E-16));
#1396=DIRECTION('ref_axis',(0.,4.93780845207522E-16,1.));
#1397=DIRECTION('center_axis',(0.,1.,-4.93780845207522E-16));
#1398=DIRECTION('ref_axis',(1.,0.,0.));
#1399=DIRECTION('center_axis',(0.,1.,-6.21103790000086E-16));
#1400=DIRECTION('ref_axis',(1.,0.,0.));
#1401=DIRECTION('',(0.,1.,-6.21103790000086E-16));
#1402=DIRECTION('center_axis',(0.,1.,-4.45947323698808E-16));
#1403=DIRECTION('ref_axis',(1.,0.,0.));
#1404=DIRECTION('center_axis',(0.,1.,-6.21103790000086E-16));
#1405=DIRECTION('ref_axis',(1.,0.,0.));
#1406=DIRECTION('',(0.,1.,-6.21103790000086E-16));
#1407=DIRECTION('center_axis',(0.,1.,-4.45947323698808E-16));
#1408=DIRECTION('ref_axis',(1.,0.,0.));
#1409=DIRECTION('center_axis',(0.,1.,-6.21103790000086E-16));
#1410=DIRECTION('ref_axis',(1.,0.,0.));
#1411=DIRECTION('',(0.,1.,-6.21103790000086E-16));
#1412=DIRECTION('center_axis',(0.,1.,-4.45947323698808E-16));
#1413=DIRECTION('ref_axis',(1.,0.,0.));
#1414=DIRECTION('center_axis',(0.,1.,-6.21103790000086E-16));
#1415=DIRECTION('ref_axis',(1.,0.,0.));
#1416=DIRECTION('',(0.,1.,-6.21103790000086E-16));
#1417=DIRECTION('center_axis',(0.,1.,-4.45947323698808E-16));
#1418=DIRECTION('ref_axis',(1.,0.,0.));
#1419=DIRECTION('center_axis',(0.,1.,-6.21103790000086E-16));
#1420=DIRECTION('ref_axis',(1.,0.,0.));
#1421=DIRECTION('',(0.,1.,-6.21103790000086E-16));
#1422=DIRECTION('center_axis',(0.,1.,-4.45947323698808E-16));
#1423=DIRECTION('ref_axis',(1.,0.,0.));
#1424=DIRECTION('center_axis',(0.,1.,-6.21103790000086E-16));
#1425=DIRECTION('ref_axis',(1.,0.,0.));
#1426=DIRECTION('',(0.,1.,-6.21103790000086E-16));
#1427=DIRECTION('center_axis',(0.,1.,-4.45947323698808E-16));
#1428=DIRECTION('ref_axis',(1.,0.,0.));
#1429=DIRECTION('center_axis',(0.,1.,-6.21103790000086E-16));
#1430=DIRECTION('ref_axis',(1.,0.,0.));
#1431=DIRECTION('',(0.,1.,-6.21103790000086E-16));
#1432=DIRECTION('center_axis',(0.,1.,-4.45947323698808E-16));
#1433=DIRECTION('ref_axis',(1.,0.,0.));
#1434=DIRECTION('center_axis',(0.,1.,-6.21103790000086E-16));
#1435=DIRECTION('ref_axis',(1.,0.,0.));
#1436=DIRECTION('',(0.,1.,-6.21103790000086E-16));
#1437=DIRECTION('center_axis',(0.,1.,-4.45947323698808E-16));
#1438=DIRECTION('ref_axis',(1.,0.,0.));
#1439=DIRECTION('center_axis',(0.,1.,-6.21103790000086E-16));
#1440=DIRECTION('ref_axis',(1.,0.,0.));
#1441=DIRECTION('',(0.,1.,-6.21103790000086E-16));
#1442=DIRECTION('center_axis',(0.,1.,-4.45947323698808E-16));
#1443=DIRECTION('ref_axis',(1.,0.,0.));
#1444=DIRECTION('center_axis',(0.,1.,-6.21103790000086E-16));
#1445=DIRECTION('ref_axis',(1.,0.,0.));
#1446=DIRECTION('',(0.,1.,-6.21103790000086E-16));
#1447=DIRECTION('center_axis',(0.,1.,-4.45947323698808E-16));
#1448=DIRECTION('ref_axis',(1.,0.,0.));
#1449=DIRECTION('center_axis',(0.,1.,-4.45947323698808E-16));
#1450=DIRECTION('ref_axis',(-1.,0.,0.));
#1451=DIRECTION('center_axis',(0.,-1.,4.45947323698808E-16));
#1452=DIRECTION('ref_axis',(1.,0.,0.));
#1453=DIRECTION('center_axis',(0.,-1.,4.45947323698808E-16));
#1454=DIRECTION('ref_axis',(-1.,0.,0.));
#1455=DIRECTION('center_axis',(0.,1.,-4.93780845207522E-16));
#1456=DIRECTION('ref_axis',(0.,4.93780845207522E-16,1.));
#1457=DIRECTION('',(0.,-1.,4.93780845207522E-16));
#1458=DIRECTION('center_axis',(0.,-1.,4.45947323698808E-16));
#1459=DIRECTION('ref_axis',(-1.,0.,0.));
#1460=DIRECTION('',(0.,-1.,4.45947323698808E-16));
#1461=DIRECTION('axis',(0.,0.,1.));
#1462=DIRECTION('refdir',(1.,0.,0.));
#1463=DIRECTION('axis',(0.,0.,1.));
#1464=DIRECTION('refdir',(1.,0.,0.));
#1465=DIRECTION('center_axis',(0.,-1.,0.));
#1466=DIRECTION('ref_axis',(0.,0.,-1.));
#1467=DIRECTION('center_axis',(0.,-1.,0.));
#1468=DIRECTION('ref_axis',(1.,0.,0.));
#1469=DIRECTION('center_axis',(0.,1.,0.));
#1470=DIRECTION('ref_axis',(0.,0.,1.));
#1471=DIRECTION('center_axis',(0.,-1.,0.));
#1472=DIRECTION('ref_axis',(1.,0.,0.));
#1473=DIRECTION('center_axis',(0.,-1.,0.));
#1474=DIRECTION('ref_axis',(1.,0.,0.));
#1475=DIRECTION('center_axis',(0.,-1.,0.));
#1476=DIRECTION('ref_axis',(1.,0.,0.));
#1477=DIRECTION('',(0.707106781186548,0.707106781186547,8.65956056235494E-17));
#1478=DIRECTION('center_axis',(0.,-1.,0.));
#1479=DIRECTION('ref_axis',(1.,0.,0.));
#1480=DIRECTION('',(0.,1.,0.));
#1481=DIRECTION('',(0.,0.,1.));
#1482=DIRECTION('',(1.,0.,0.));
#1483=DIRECTION('',(0.,0.,1.));
#1484=DIRECTION('',(1.,0.,0.));
#1485=DIRECTION('',(3.33066907387547E-16,0.,0.999999999999999));
#1486=DIRECTION('',(1.,0.,-3.33066907387547E-16));
#1487=DIRECTION('',(0.,0.,1.));
#1488=DIRECTION('',(1.,0.,0.));
#1489=DIRECTION('',(0.,0.,1.));
#1490=DIRECTION('',(1.,0.,0.));
#1491=DIRECTION('',(0.,0.,1.));
#1492=DIRECTION('',(1.,0.,0.));
#1493=CARTESIAN_POINT('',(0.,0.,0.));
#1494=CARTESIAN_POINT('',(0.,0.,0.));
#1495=CARTESIAN_POINT('Origin',(0.,6.35433302025364,-23.));
#1496=CARTESIAN_POINT('',(1.8982025386784E-16,6.82,-24.55));
#1497=CARTESIAN_POINT('Origin',(0.,6.82,-23.));
#1498=CARTESIAN_POINT('',(0.,5.88866604050728,-23.));
#1499=CARTESIAN_POINT('',(9.49101269339199E-17,6.35433302025364,-23.775));
#1500=CARTESIAN_POINT('Origin',(0.,13.57,-23.));
#1501=CARTESIAN_POINT('',(1.8982025386784E-16,20.32,-24.55));
#1502=CARTESIAN_POINT('Origin',(0.,20.32,-23.));
#1503=CARTESIAN_POINT('',(1.8982025386784E-16,13.57,-24.55));
#1504=CARTESIAN_POINT('Origin',(0.,6.35433302025364,23.));
#1505=CARTESIAN_POINT('',(1.8982025386784E-16,6.82,21.45));
#1506=CARTESIAN_POINT('Origin',(0.,6.82,23.));
#1507=CARTESIAN_POINT('',(0.,5.88866604050728,23.));
#1508=CARTESIAN_POINT('',(9.49101269339199E-17,6.35433302025364,22.225));
#1509=CARTESIAN_POINT('Origin',(0.,13.57,23.));
#1510=CARTESIAN_POINT('',(1.8982025386784E-16,20.32,21.45));
#1511=CARTESIAN_POINT('Origin',(0.,20.32,23.));
#1512=CARTESIAN_POINT('',(1.8982025386784E-16,13.57,21.45));
#1513=CARTESIAN_POINT('Origin',(0.,10.16,0.));
#1514=CARTESIAN_POINT('',(21.0057897611526,20.32,-2.57246731945578E-15));
#1515=CARTESIAN_POINT('Origin',(0.,20.32,0.));
#1516=CARTESIAN_POINT('',(18.15,0.,-2.22273394045245E-15));
#1517=CARTESIAN_POINT('',(19.5778948805763,10.16,-2.39760062995411E-15));
#1518=CARTESIAN_POINT('Origin',(0.,0.,0.));
#1519=CARTESIAN_POINT('Origin',(-25.95,0.,0.));
#1520=CARTESIAN_POINT('',(25.95,0.,-3.17795844378738E-15));
#1521=CARTESIAN_POINT('Origin',(0.,0.,0.));
#1522=CARTESIAN_POINT('Origin',(0.,6.35,0.));
#1523=CARTESIAN_POINT('',(25.95,12.7,-3.17795844378738E-15));
#1524=CARTESIAN_POINT('Origin',(0.,12.7,0.));
#1525=CARTESIAN_POINT('',(25.95,6.35,-3.17795844378738E-15));
#1526=CARTESIAN_POINT('Origin',(-26.375,12.7,0.));
#1527=CARTESIAN_POINT('',(25.925,12.7,-3.17489682678951E-15));
#1528=CARTESIAN_POINT('Origin',(0.,12.7,0.));
#1529=CARTESIAN_POINT('Origin',(0.,16.51,0.));
#1530=CARTESIAN_POINT('',(25.925,20.32,3.17489682678951E-15));
#1531=CARTESIAN_POINT('Origin',(0.,20.32,0.));
#1532=CARTESIAN_POINT('',(25.925,16.51,-3.17489682678951E-15));
#1533=CARTESIAN_POINT('Origin',(-21.0057897611526,20.32,0.));
#1534=CARTESIAN_POINT('',(0.,0.,0.));
#1535=CARTESIAN_POINT('Origin',(0.0140510212012757,0.870000000000003,-23.35));
#1536=CARTESIAN_POINT('',(0.0140510212012759,7.62,-24.9));
#1537=CARTESIAN_POINT('Origin',(0.0140510212012757,7.62,-23.35));
#1538=CARTESIAN_POINT('',(0.0140510212012755,0.,-24.9));
#1539=CARTESIAN_POINT('',(0.0140510212012759,0.870000000000003,-24.9));
#1540=CARTESIAN_POINT('Origin',(0.0140510212012757,0.,-23.35));
#1541=CARTESIAN_POINT('Origin',(0.0140510212012757,0.870000000000003,23.35));
#1542=CARTESIAN_POINT('',(0.0140510212012759,7.62,21.8));
#1543=CARTESIAN_POINT('Origin',(0.0140510212012757,7.62,23.35));
#1544=CARTESIAN_POINT('',(0.0140510212012755,0.,21.8));
#1545=CARTESIAN_POINT('',(0.0140510212012759,0.870000000000003,21.8));
#1546=CARTESIAN_POINT('Origin',(0.0140510212012757,0.,23.35));
#1547=CARTESIAN_POINT('Origin',(0.,3.81,0.));
#1548=CARTESIAN_POINT('',(16.375,7.62,-2.00535913360379E-15));
#1549=CARTESIAN_POINT('Origin',(0.,7.62,0.));
#1550=CARTESIAN_POINT('',(20.774409051225,-1.11022302462516E-15,-2.54413135487604E-15));
#1551=CARTESIAN_POINT('',(18.5747045256125,3.81,-2.27474524423992E-15));
#1552=CARTESIAN_POINT('Origin',(0.,0.,0.));
#1553=CARTESIAN_POINT('Origin',(-26.35,0.,0.));
#1554=CARTESIAN_POINT('',(25.925,0.,-3.17489682678951E-15));
#1555=CARTESIAN_POINT('Origin',(0.,0.,0.));
#1556=CARTESIAN_POINT('Origin',(0.,3.81,0.));
#1557=CARTESIAN_POINT('',(25.925,7.62,3.17489682678951E-15));
#1558=CARTESIAN_POINT('Origin',(0.,7.62,0.));
#1559=CARTESIAN_POINT('',(25.925,3.81,-3.17489682678951E-15));
#1560=CARTESIAN_POINT('Origin',(-16.375,7.62,0.));
#1561=CARTESIAN_POINT('',(0.,0.,0.));
#1562=CARTESIAN_POINT('Origin',(0.,-0.889459569760351,0.));
#1563=CARTESIAN_POINT('',(3.88825358729284E-16,0.0644066629458996,-3.175));
#1564=CARTESIAN_POINT('Origin',(0.,0.0644066629458973,0.));
#1565=CARTESIAN_POINT('',(-3.7569828547424E-16,0.,-3.06780931233247));
#1566=CARTESIAN_POINT('',(1.94412679364642E-16,-0.889459569760351,-1.5875));
#1567=CARTESIAN_POINT('Origin',(0.,0.,0.));
#1568=CARTESIAN_POINT('Origin',(0.,22.2894066629459,0.));
#1569=CARTESIAN_POINT('',(3.88825358729285E-16,44.5144066629459,-3.175));
#1570=CARTESIAN_POINT('Origin',(0.,44.5144066629459,0.));
#1571=CARTESIAN_POINT('',(3.88825358729285E-16,22.2894066629459,-3.175));
#1572=CARTESIAN_POINT('Origin',(0.,44.5144066629459,0.));
#1573=CARTESIAN_POINT('',(15.875,44.5144066629459,-1.94412679364642E-15));
#1574=CARTESIAN_POINT('Origin',(-7.88568206589323E-17,44.5144066629459,
0.));
#1575=CARTESIAN_POINT('Origin',(-15.875,0.,0.));
#1576=CARTESIAN_POINT('',(15.875,0.,-1.94412679364642E-15));
#1577=CARTESIAN_POINT('Origin',(-7.88568206589323E-17,0.,0.));
#1578=CARTESIAN_POINT('Origin',(-7.88568206589323E-17,16.2657351853704,
0.));
#1579=CARTESIAN_POINT('',(20.447,32.5314703707409,-2.50403531021659E-15));
#1580=CARTESIAN_POINT('Origin',(-7.88568206589323E-17,32.5314703707409,
0.));
#1581=CARTESIAN_POINT('',(18.161,16.2657351853704,-2.22408105193151E-15));
#1582=CARTESIAN_POINT('Origin',(-18.034,32.5314703707409,0.));
#1583=CARTESIAN_POINT('',(18.034,32.5314703707409,-2.20852803758234E-15));
#1584=CARTESIAN_POINT('Origin',(-7.88568206589323E-17,32.5314703707409,
0.));
#1585=CARTESIAN_POINT('Origin',(-7.88568206589323E-17,34.5634703707409,
0.));
#1586=CARTESIAN_POINT('',(18.034,36.5954703707409,-2.20852803758234E-15));
#1587=CARTESIAN_POINT('Origin',(-7.88568206589323E-17,36.5954703707409,
0.));
#1588=CARTESIAN_POINT('',(18.034,34.5634703707409,-2.20852803758234E-15));
#1589=CARTESIAN_POINT('Origin',(-20.447,36.5954703707409,0.));
#1590=CARTESIAN_POINT('',(20.447,36.5954703707409,-2.50403531021659E-15));
#1591=CARTESIAN_POINT('Origin',(-7.88568206589323E-17,36.5954703707409,
0.));
#1592=CARTESIAN_POINT('Origin',(-7.88568206589323E-17,40.5549385168434,
0.));
#1593=CARTESIAN_POINT('',(18.161,40.5549385168434,-2.22408105193151E-15));
#1594=CARTESIAN_POINT('',(0.,0.,0.));
#1595=CARTESIAN_POINT('Origin',(-7.14880261977814E-15,-6.24346915322807E-14,
-31.75));
#1596=CARTESIAN_POINT('',(-2.00000000000001,18.5,-31.75));
#1597=CARTESIAN_POINT('Origin',(-7.14880261977814E-15,18.5,-31.75));
#1598=CARTESIAN_POINT('',(-2.00000000000001,26.,-31.75));
#1599=CARTESIAN_POINT('',(-2.00000000000001,-6.24346915322807E-14,-31.75));
#1600=CARTESIAN_POINT('Origin',(-7.14880261977814E-15,26.,-31.75));
#1601=CARTESIAN_POINT('Origin',(22.4506403026729,-5.55517826987848E-14,
-22.4506403026729));
#1602=CARTESIAN_POINT('',(20.4506403026729,18.5,-22.4506403026729));
#1603=CARTESIAN_POINT('Origin',(22.4506403026729,18.5,-22.4506403026729));
#1604=CARTESIAN_POINT('',(20.4506403026729,26.,-22.4506403026729));
#1605=CARTESIAN_POINT('',(20.4506403026729,-5.55517826987848E-14,-22.4506403026729));
#1606=CARTESIAN_POINT('Origin',(22.4506403026729,26.,-22.4506403026729));
#1607=CARTESIAN_POINT('Origin',(0.,18.5,-8.88178419700125E-15));
#1608=CARTESIAN_POINT('Origin',(31.75,-2.78562403188179E-14,-1.31642223883885E-15));
#1609=CARTESIAN_POINT('',(29.75,18.5,-1.2561912994011E-14));
#1610=CARTESIAN_POINT('Origin',(31.75,18.5,-1.28068423538405E-14));
#1611=CARTESIAN_POINT('',(29.75,26.,-1.72201914190116E-14));
#1612=CARTESIAN_POINT('',(29.75,-2.78562403188179E-14,-1.07149287900938E-15));
#1613=CARTESIAN_POINT('Origin',(31.75,26.,-1.74651207788411E-14));
#1614=CARTESIAN_POINT('Origin',(22.4506403026729,-2.23181589899782E-14,
22.4506403026729));
#1615=CARTESIAN_POINT('',(20.4506403026729,18.5,22.4506403026729));
#1616=CARTESIAN_POINT('Origin',(22.4506403026729,18.5,22.4506403026729));
#1617=CARTESIAN_POINT('',(20.4506403026729,26.,22.4506403026729));
#1618=CARTESIAN_POINT('',(20.4506403026729,-2.23181589899782E-14,22.4506403026729));
#1619=CARTESIAN_POINT('Origin',(22.4506403026729,26.,22.4506403026729));
#1620=CARTESIAN_POINT('Origin',(6.21724893790088E-14,-1.99999999999975,
44.96825));
#1621=CARTESIAN_POINT('',(-5.5070223425758E-15,-1.99999999999979,-44.96825));
#1622=CARTESIAN_POINT('Origin',(6.21724893790088E-14,-1.99999999999977,
8.92376073407774E-15));
#1623=CARTESIAN_POINT('',(26.5000000000001,-1.99999999999977,5.63647017926078E-15));
#1624=CARTESIAN_POINT('Origin',(6.21724893790088E-14,-1.99999999999977,
8.88178419700126E-15));
#1625=CARTESIAN_POINT('',(-2.,-1.99999999999976,31.75));
#1626=CARTESIAN_POINT('Origin',(3.26054903248529E-15,-1.99999999999976,
31.75));
#1627=CARTESIAN_POINT('Origin',(3.26054903248529E-15,-1.54352501564824E-14,
31.75));
#1628=CARTESIAN_POINT('',(-2.,26.,31.75));
#1629=CARTESIAN_POINT('',(-2.,-1.54352501564824E-14,31.75));
#1630=CARTESIAN_POINT('Origin',(3.26054903248529E-15,26.,31.75));
#1631=CARTESIAN_POINT('Origin',(-22.4506403026729,-2.23181589899782E-14,
22.4506403026729));
#1632=CARTESIAN_POINT('',(-24.4506403026729,18.5,22.4506403026729));
#1633=CARTESIAN_POINT('Origin',(-22.4506403026729,18.5,22.4506403026729));
#1634=CARTESIAN_POINT('',(-24.4506403026729,26.,22.4506403026729));
#1635=CARTESIAN_POINT('',(-24.4506403026729,-2.23181589899782E-14,22.4506403026729));
#1636=CARTESIAN_POINT('Origin',(-22.4506403026729,26.,22.4506403026729));
#1637=CARTESIAN_POINT('Origin',(-31.75,-2.78562403188179E-14,5.20467582613173E-15));
#1638=CARTESIAN_POINT('',(-33.75,18.5,-6.04081492904041E-15));
#1639=CARTESIAN_POINT('Origin',(-31.75,18.5,-6.28574428886989E-15));
#1640=CARTESIAN_POINT('',(-33.75,26.,-1.06990933540411E-14));
#1641=CARTESIAN_POINT('',(-33.75,-2.78562403188179E-14,5.4496051859612E-15));
#1642=CARTESIAN_POINT('Origin',(-31.75,26.,-1.09440227138705E-14));
#1643=CARTESIAN_POINT('Origin',(0.,18.5,-8.88178419700125E-15));
#1644=CARTESIAN_POINT('Origin',(-22.4506403026729,-5.55517826987848E-14,
-22.4506403026729));
#1645=CARTESIAN_POINT('',(-24.4506403026729,18.5,-22.4506403026729));
#1646=CARTESIAN_POINT('Origin',(-22.4506403026729,18.5,-22.4506403026729));
#1647=CARTESIAN_POINT('',(-24.4506403026729,26.,-22.4506403026729));
#1648=CARTESIAN_POINT('',(-24.4506403026729,-5.55517826987848E-14,-22.4506403026729));
#1649=CARTESIAN_POINT('Origin',(-22.4506403026729,26.,-22.4506403026729));
#1650=CARTESIAN_POINT('Origin',(0.,18.5,-8.88178419700125E-15));
#1651=CARTESIAN_POINT('Origin',(0.,18.5,-8.88178419700125E-15));
#1652=CARTESIAN_POINT('',(-1.5875,18.5,-40.));
#1653=CARTESIAN_POINT('Origin',(0.,18.5,-40.));
#1654=CARTESIAN_POINT('Origin',(0.,18.5,-8.88178419700125E-15));
#1655=CARTESIAN_POINT('',(10.5626989775916,18.5,-29.3331751572334));
#1656=CARTESIAN_POINT('Origin',(12.1501989775916,18.5,-29.3331751572334));
#1657=CARTESIAN_POINT('Origin',(0.,18.5,-8.88178419700125E-15));
#1658=CARTESIAN_POINT('Origin',(0.,18.5,-8.88178419700125E-15));
#1659=CARTESIAN_POINT('Origin',(0.,18.5,-8.88178419700125E-15));
#1660=CARTESIAN_POINT('',(10.5626989775916,18.5,29.3331751572333));
#1661=CARTESIAN_POINT('Origin',(12.1501989775916,18.5,29.3331751572333));
#1662=CARTESIAN_POINT('Origin',(0.,18.5,-8.88178419700125E-15));
#1663=CARTESIAN_POINT('',(-30.9206751572334,18.5,12.1501989775916));
#1664=CARTESIAN_POINT('Origin',(-29.3331751572334,18.5,12.1501989775916));
#1665=CARTESIAN_POINT('Origin',(0.,18.5,-8.88178419700125E-15));
#1666=CARTESIAN_POINT('',(-1.5875,18.5,40.));
#1667=CARTESIAN_POINT('Origin',(3.26054903248529E-15,18.5,40.));
#1668=CARTESIAN_POINT('Origin',(0.,18.5,-8.88178419700125E-15));
#1669=CARTESIAN_POINT('Origin',(0.,18.5,-8.88178419700125E-15));
#1670=CARTESIAN_POINT('',(-30.9206751572334,18.5,-12.1501989775916));
#1671=CARTESIAN_POINT('Origin',(-29.3331751572334,18.5,-12.1501989775916));
#1672=CARTESIAN_POINT('Origin',(0.,18.5,-8.88178419700125E-15));
#1673=CARTESIAN_POINT('',(-13.7376989775916,18.5,29.3331751572333));
#1674=CARTESIAN_POINT('Origin',(-12.1501989775916,18.5,29.3331751572333));
#1675=CARTESIAN_POINT('Origin',(0.,18.5,-8.88178419700125E-15));
#1676=CARTESIAN_POINT('Origin',(0.,18.5,-8.88178419700125E-15));
#1677=CARTESIAN_POINT('',(27.7456751572334,18.5,12.1501989775916));
#1678=CARTESIAN_POINT('Origin',(29.3331751572334,18.5,12.1501989775916));
#1679=CARTESIAN_POINT('Origin',(0.,18.5,-8.88178419700125E-15));
#1680=CARTESIAN_POINT('',(-13.7376989775916,18.5,-29.3331751572334));
#1681=CARTESIAN_POINT('Origin',(-12.1501989775916,18.5,-29.3331751572334));
#1682=CARTESIAN_POINT('Origin',(0.,18.5,-8.88178419700125E-15));
#1683=CARTESIAN_POINT('',(27.7456751572334,18.5,-12.1501989775916));
#1684=CARTESIAN_POINT('Origin',(29.3331751572334,18.5,-12.1501989775916));
#1685=CARTESIAN_POINT('Origin',(0.,-5.65177982631473E-15,-40.));
#1686=CARTESIAN_POINT('',(-1.5875,26.,-40.));
#1687=CARTESIAN_POINT('',(-1.5875,-5.65177982631473E-15,-40.));
#1688=CARTESIAN_POINT('Origin',(0.,26.,-40.));
#1689=CARTESIAN_POINT('Origin',(12.1501989775916,-6.06458818076636E-14,
-29.3331751572334));
#1690=CARTESIAN_POINT('',(10.5626989775916,26.,-29.3331751572334));
#1691=CARTESIAN_POINT('',(10.5626989775916,-6.06458818076636E-14,-29.3331751572334));
#1692=CARTESIAN_POINT('Origin',(12.1501989775916,26.,-29.3331751572334));
#1693=CARTESIAN_POINT('Origin',(12.1501989775916,-1.72240598810994E-14,
29.3331751572334));
#1694=CARTESIAN_POINT('',(10.5626989775916,26.,29.3331751572333));
#1695=CARTESIAN_POINT('',(10.5626989775916,-1.72240598810994E-14,29.3331751572334));
#1696=CARTESIAN_POINT('Origin',(12.1501989775916,26.,29.3331751572333));
#1697=CARTESIAN_POINT('Origin',(-29.3331751572334,-1.7796898449115E-14,
12.1501989775916));
#1698=CARTESIAN_POINT('',(-30.9206751572334,26.,12.1501989775916));
#1699=CARTESIAN_POINT('',(-30.9206751572334,-1.7796898449115E-14,12.1501989775916));
#1700=CARTESIAN_POINT('Origin',(-29.3331751572334,26.,12.1501989775916));
#1701=CARTESIAN_POINT('Origin',(3.26054903248529E-15,-9.32902352104401E-15,
40.));
#1702=CARTESIAN_POINT('',(-1.5875,26.,40.));
#1703=CARTESIAN_POINT('',(-1.5875,-9.32902352104401E-15,40.));
#1704=CARTESIAN_POINT('Origin',(3.26054903248529E-15,26.,40.));
#1705=CARTESIAN_POINT('Origin',(-29.3331751572334,-2.67898522215812E-14,
-12.1501989775916));
#1706=CARTESIAN_POINT('',(-30.9206751572334,26.,-12.1501989775916));
#1707=CARTESIAN_POINT('',(-30.9206751572334,-2.67898522215812E-14,-12.1501989775916));
#1708=CARTESIAN_POINT('Origin',(-29.3331751572334,26.,-12.1501989775916));
#1709=CARTESIAN_POINT('Origin',(-12.1501989775916,-1.72240598810994E-14,
29.3331751572334));
#1710=CARTESIAN_POINT('',(-13.7376989775916,26.,29.3331751572333));
#1711=CARTESIAN_POINT('',(-13.7376989775916,-1.72240598810994E-14,29.3331751572334));
#1712=CARTESIAN_POINT('Origin',(-12.1501989775916,26.,29.3331751572333));
#1713=CARTESIAN_POINT('Origin',(29.3331751572334,-1.7796898449115E-14,12.1501989775916));
#1714=CARTESIAN_POINT('',(27.7456751572334,26.,12.1501989775916));
#1715=CARTESIAN_POINT('',(27.7456751572334,-1.7796898449115E-14,12.1501989775916));
#1716=CARTESIAN_POINT('Origin',(29.3331751572334,26.,12.1501989775916));
#1717=CARTESIAN_POINT('Origin',(-12.1501989775916,-6.06458818076636E-14,
-29.3331751572334));
#1718=CARTESIAN_POINT('',(-13.7376989775916,26.,-29.3331751572334));
#1719=CARTESIAN_POINT('',(-13.7376989775916,-6.06458818076636E-14,-29.3331751572334));
#1720=CARTESIAN_POINT('Origin',(-12.1501989775916,26.,-29.3331751572334));
#1721=CARTESIAN_POINT('Origin',(29.3331751572334,-2.67898522215812E-14,
-12.1501989775916));
#1722=CARTESIAN_POINT('',(27.7456751572334,26.,-12.1501989775916));
#1723=CARTESIAN_POINT('',(27.7456751572334,-2.67898522215812E-14,-12.1501989775916));
#1724=CARTESIAN_POINT('Origin',(29.3331751572334,26.,-12.1501989775916));
#1725=CARTESIAN_POINT('Origin',(0.,26.,-1.15942587933993E-14));
#1726=CARTESIAN_POINT('',(-5.5070223425758E-15,26.,-44.96825));
#1727=CARTESIAN_POINT('Origin',(0.,26.,-1.61067220029258E-14));
#1728=CARTESIAN_POINT('',(26.5,26.,-1.48399444339095E-14));
#1729=CARTESIAN_POINT('Origin',(0.,26.,-1.1594630416169E-14));
#1730=CARTESIAN_POINT('Origin',(0.,15.7973730132407,-7.75846366146001E-15));
#1731=CARTESIAN_POINT('',(-5.5070223425758E-15,15.7973730132407,-44.96825));
#1732=CARTESIAN_POINT('Origin',(0.,26.,-1.1594630416169E-14));
#1733=CARTESIAN_POINT('',(26.5,26.,-8.34931639842851E-15));
#1734=CARTESIAN_POINT('',(0.,0.,0.));
#1735=CARTESIAN_POINT('',(0.,0.,0.));
#1736=CARTESIAN_POINT('Origin',(0.,8.2,0.));
#1737=CARTESIAN_POINT('',(-1.,8.2,-1.22464679914735E-16));
#1738=CARTESIAN_POINT('Origin',(0.,8.2,0.));
#1739=CARTESIAN_POINT('Origin',(0.0249999999999998,9.475,0.));
#1740=CARTESIAN_POINT('',(-0.0249999999999998,9.475,-3.06161699786835E-18));
#1741=CARTESIAN_POINT('Origin',(0.,9.475,0.));
#1742=CARTESIAN_POINT('Origin',(0.,8.9875,0.));
#1743=CARTESIAN_POINT('',(-0.999999999999999,8.50000000000001,-1.22464679914735E-16));
#1744=CARTESIAN_POINT('Origin',(0.,8.50000000000001,0.));
#1745=CARTESIAN_POINT('',(-0.5125,8.9875,-6.27631484563018E-17));
#1746=CARTESIAN_POINT('Origin',(0.,8.35,0.));
#1747=CARTESIAN_POINT('',(-1.,8.35,-1.22464679914735E-16));
#1748=CARTESIAN_POINT('',(0.,0.,0.));
#1749=CARTESIAN_POINT('',(0.,0.,0.));
#1750=CARTESIAN_POINT('',(0.,22.,0.));
#1751=CARTESIAN_POINT('',(0.,-15.,0.));
#1752=CARTESIAN_POINT('',(0.,0.,0.));
#1753=CARTESIAN_POINT('',(0.,110.,0.));
#1754=UNCERTAINTY_MEASURE_WITH_UNIT(LENGTH_MEASURE(0.01),#1770,
'DISTANCE_ACCURACY_VALUE',
'Maximum model space distance between geometric entities at asserted c
onnectivities');
#1755=UNCERTAINTY_MEASURE_WITH_UNIT(LENGTH_MEASURE(0.01),#1770,
'DISTANCE_ACCURACY_VALUE',
'Maximum model space distance between geometric entities at asserted c
onnectivities');
#1756=UNCERTAINTY_MEASURE_WITH_UNIT(LENGTH_MEASURE(0.01),#1770,
'DISTANCE_ACCURACY_VALUE',
'Maximum model space distance between geometric entities at asserted c
onnectivities');
#1757=UNCERTAINTY_MEASURE_WITH_UNIT(LENGTH_MEASURE(0.01),#1770,
'DISTANCE_ACCURACY_VALUE',
'Maximum model space distance between geometric entities at asserted c
onnectivities');
#1758=UNCERTAINTY_MEASURE_WITH_UNIT(LENGTH_MEASURE(0.01),#1770,
'DISTANCE_ACCURACY_VALUE',
'Maximum model space distance between geometric entities at asserted c
onnectivities');
#1759=UNCERTAINTY_MEASURE_WITH_UNIT(LENGTH_MEASURE(0.01),#1770,
'DISTANCE_ACCURACY_VALUE',
'Maximum model space distance between geometric entities at asserted c
onnectivities');
#1760=UNCERTAINTY_MEASURE_WITH_UNIT(LENGTH_MEASURE(0.01),#1770,
'DISTANCE_ACCURACY_VALUE',
'Maximum model space distance between geometric entities at asserted c
onnectivities');
#1761=UNCERTAINTY_MEASURE_WITH_UNIT(LENGTH_MEASURE(0.01),#1770,
'DISTANCE_ACCURACY_VALUE',
'Maximum model space distance between geometric entities at asserted c
onnectivities');
#1762=(
GEOMETRIC_REPRESENTATION_CONTEXT(3)
GLOBAL_UNCERTAINTY_ASSIGNED_CONTEXT((#1754))
GLOBAL_UNIT_ASSIGNED_CONTEXT((#1770,#1772,#1773))
REPRESENTATION_CONTEXT('','3D')
);
#1763=(
GEOMETRIC_REPRESENTATION_CONTEXT(3)
GLOBAL_UNCERTAINTY_ASSIGNED_CONTEXT((#1755))
GLOBAL_UNIT_ASSIGNED_CONTEXT((#1770,#1772,#1773))
REPRESENTATION_CONTEXT('','3D')
);
#1764=(
GEOMETRIC_REPRESENTATION_CONTEXT(3)
GLOBAL_UNCERTAINTY_ASSIGNED_CONTEXT((#1756))
GLOBAL_UNIT_ASSIGNED_CONTEXT((#1770,#1772,#1773))
REPRESENTATION_CONTEXT('','3D')
);
#1765=(
GEOMETRIC_REPRESENTATION_CONTEXT(3)
GLOBAL_UNCERTAINTY_ASSIGNED_CONTEXT((#1757))
GLOBAL_UNIT_ASSIGNED_CONTEXT((#1770,#1772,#1773))
REPRESENTATION_CONTEXT('','3D')
);
#1766=(
GEOMETRIC_REPRESENTATION_CONTEXT(3)
GLOBAL_UNCERTAINTY_ASSIGNED_CONTEXT((#1758))
GLOBAL_UNIT_ASSIGNED_CONTEXT((#1770,#1772,#1773))
REPRESENTATION_CONTEXT('','3D')
);
#1767=(
GEOMETRIC_REPRESENTATION_CONTEXT(3)
GLOBAL_UNCERTAINTY_ASSIGNED_CONTEXT((#1759))
GLOBAL_UNIT_ASSIGNED_CONTEXT((#1770,#1772,#1773))
REPRESENTATION_CONTEXT('','3D')
);
#1768=(
GEOMETRIC_REPRESENTATION_CONTEXT(3)
GLOBAL_UNCERTAINTY_ASSIGNED_CONTEXT((#1760))
GLOBAL_UNIT_ASSIGNED_CONTEXT((#1770,#1772,#1773))
REPRESENTATION_CONTEXT('','3D')
);
#1769=(
GEOMETRIC_REPRESENTATION_CONTEXT(3)
GLOBAL_UNCERTAINTY_ASSIGNED_CONTEXT((#1761))
GLOBAL_UNIT_ASSIGNED_CONTEXT((#1770,#1772,#1773))
REPRESENTATION_CONTEXT('','3D')
);
#1770=(
LENGTH_UNIT()
NAMED_UNIT(*)
SI_UNIT(.MILLI.,.METRE.)
);
#1771=(
LENGTH_UNIT()
NAMED_UNIT(*)
SI_UNIT($,.METRE.)
);
#1772=(
NAMED_UNIT(*)
PLANE_ANGLE_UNIT()
SI_UNIT($,.RADIAN.)
);
#1773=(
NAMED_UNIT(*)
SI_UNIT($,.STERADIAN.)
SOLID_ANGLE_UNIT()
);
#1774=SHAPE_DEFINITION_REPRESENTATION(#1781,#1794);
#1775=SHAPE_DEFINITION_REPRESENTATION(#1782,#1795);
#1776=SHAPE_DEFINITION_REPRESENTATION(#1783,#1796);
#1777=SHAPE_DEFINITION_REPRESENTATION(#1784,#1797);
#1778=SHAPE_DEFINITION_REPRESENTATION(#1785,#1798);
#1779=SHAPE_DEFINITION_REPRESENTATION(#1786,#1799);
#1780=SHAPE_DEFINITION_REPRESENTATION(#1787,#1800);
#1781=PRODUCT_DEFINITION_SHAPE('',$,#1802);
#1782=PRODUCT_DEFINITION_SHAPE('',$,#1803);
#1783=PRODUCT_DEFINITION_SHAPE('',$,#1804);
#1784=PRODUCT_DEFINITION_SHAPE('',$,#1805);
#1785=PRODUCT_DEFINITION_SHAPE('',$,#1806);
#1786=PRODUCT_DEFINITION_SHAPE('',$,#1807);
#1787=PRODUCT_DEFINITION_SHAPE('',$,#1808);
#1788=PRODUCT_DEFINITION_SHAPE($,$,#29);
#1789=PRODUCT_DEFINITION_SHAPE($,$,#30);
#1790=PRODUCT_DEFINITION_SHAPE($,$,#31);
#1791=PRODUCT_DEFINITION_SHAPE($,$,#32);
#1792=PRODUCT_DEFINITION_SHAPE($,$,#33);
#1793=PRODUCT_DEFINITION_SHAPE($,$,#34);
#1794=SHAPE_REPRESENTATION('',(#1002,#1148,#1149,#1150,#1151,#1152),#1762);
#1795=SHAPE_REPRESENTATION('',(#1003),#1763);
#1796=SHAPE_REPRESENTATION('',(#1024),#1764);
#1797=SHAPE_REPRESENTATION('',(#1039),#1765);
#1798=SHAPE_REPRESENTATION('',(#1058),#1766);
#1799=SHAPE_REPRESENTATION('',(#1138,#1147),#1767);
#1800=SHAPE_REPRESENTATION('',(#1139),#1768);
#1801=PRODUCT_DEFINITION_CONTEXT('part definition',#1824,'design');
#1802=PRODUCT_DEFINITION('coating clamp CAM','coating clamp CAM v5',#1809,
#1801);
#1803=PRODUCT_DEFINITION('Collet Bottom Taper','Collet Bottom Taper v1',
#1810,#1801);
#1804=PRODUCT_DEFINITION('Collet Top Taper','Collet Top Taper v1',#1811,
#1801);
#1805=PRODUCT_DEFINITION('ER-40 Collet Generic v1',
'ER-40 Collet Generic v1',#1812,#1801);
#1806=PRODUCT_DEFINITION('V2PocketNC kinematic Bdisc v4',
'V2PocketNC kinematic Bdisc v4 v1',#1813,#1801);
#1807=PRODUCT_DEFINITION('electrode coating tool',
'electrode coating tool v7',#1814,#1801);
#1808=PRODUCT_DEFINITION('thorn','thorn',#1815,#1801);
#1809=PRODUCT_DEFINITION_FORMATION('',$,#1826);
#1810=PRODUCT_DEFINITION_FORMATION('',$,#1827);
#1811=PRODUCT_DEFINITION_FORMATION('',$,#1828);
#1812=PRODUCT_DEFINITION_FORMATION('',$,#1829);
#1813=PRODUCT_DEFINITION_FORMATION('',$,#1830);
#1814=PRODUCT_DEFINITION_FORMATION('',$,#1831);
#1815=PRODUCT_DEFINITION_FORMATION('',$,#1832);
#1816=PRODUCT_RELATED_PRODUCT_CATEGORY('coating clamp CAM v5',
'coating clamp CAM v5',(#1826));
#1817=PRODUCT_RELATED_PRODUCT_CATEGORY('Collet Bottom Taper v1',
'Collet Bottom Taper v1',(#1827));
#1818=PRODUCT_RELATED_PRODUCT_CATEGORY('Collet Top Taper v1',
'Collet Top Taper v1',(#1828));
#1819=PRODUCT_RELATED_PRODUCT_CATEGORY('ER-40 Collet Generic v1',
'ER-40 Collet Generic v1',(#1829));
#1820=PRODUCT_RELATED_PRODUCT_CATEGORY(
'V2PocketNC kinematic Bdisc v4 v1','V2PocketNC kinematic Bdisc v4 v1',(#1830));
#1821=PRODUCT_RELATED_PRODUCT_CATEGORY('electrode coating tool v7',
'electrode coating tool v7',(#1831));
#1822=PRODUCT_RELATED_PRODUCT_CATEGORY('thorn','thorn',(#1832));
#1823=APPLICATION_PROTOCOL_DEFINITION('international standard',
'automotive_design',2009,#1824);
#1824=APPLICATION_CONTEXT(
'Core Data for Automotive Mechanical Design Process');
#1825=PRODUCT_CONTEXT('part definition',#1824,'mechanical');
#1826=PRODUCT('coating clamp CAM','coating clamp CAM v5',$,(#1825));
#1827=PRODUCT('Collet Bottom Taper','Collet Bottom Taper v1',$,(#1825));
#1828=PRODUCT('Collet Top Taper','Collet Top Taper v1',$,(#1825));
#1829=PRODUCT('ER-40 Collet Generic v1','ER-40 Collet Generic v1',$,(#1825));
#1830=PRODUCT('V2PocketNC kinematic Bdisc v4',
'V2PocketNC kinematic Bdisc v4 v1',$,(#1825));
#1831=PRODUCT('electrode coating tool','electrode coating tool v7',$,(#1825));
#1832=PRODUCT('thorn','thorn',$,(#1825));
#1833=PRESENTATION_STYLE_ASSIGNMENT((#1836));
#1834=PRESENTATION_STYLE_ASSIGNMENT((#1837));
#1835=PRESENTATION_STYLE_ASSIGNMENT((#1838));
#1836=SURFACE_STYLE_USAGE(.BOTH.,#1839);
#1837=SURFACE_STYLE_USAGE(.BOTH.,#1840);
#1838=SURFACE_STYLE_USAGE(.BOTH.,#1841);
#1839=SURFACE_SIDE_STYLE('',(#1842));
#1840=SURFACE_SIDE_STYLE('',(#1843));
#1841=SURFACE_SIDE_STYLE('',(#1844));
#1842=SURFACE_STYLE_FILL_AREA(#1845);
#1843=SURFACE_STYLE_FILL_AREA(#1846);
#1844=SURFACE_STYLE_FILL_AREA(#1847);
#1845=FILL_AREA_STYLE('Steel - Satin',(#1848));
#1846=FILL_AREA_STYLE('Aluminum - Anodized Glossy (Grey)',(#1849));
#1847=FILL_AREA_STYLE('Aluminum - Satin',(#1850));
#1848=FILL_AREA_STYLE_COLOUR('Steel - Satin',#1851);
#1849=FILL_AREA_STYLE_COLOUR('Aluminum - Anodized Glossy (Grey)',#1852);
#1850=FILL_AREA_STYLE_COLOUR('Aluminum - Satin',#1853);
#1851=COLOUR_RGB('Steel - Satin',0.627450980392157,0.627450980392157,0.627450980392157);
#1852=COLOUR_RGB('Aluminum - Anodized Glossy (Grey)',0.537254901960784,
0.537254901960784,0.537254901960784);
#1853=COLOUR_RGB('Aluminum - Satin',0.96078431372549,0.96078431372549,0.964705882352941);
ENDSEC;
END-ISO-10303-21;
