ISO-10303-21;
HEADER;
/* Generated by software containing ST-Developer
 * from STEP Tools, Inc. (www.steptools.com) 
 */

FILE_DESCRIPTION(
/* description */ (''),
/* implementation_level */ '2;1');

FILE_NAME(
/* name */ 'Collet Top Taper v1.step',
/* time_stamp */ '2024-06-19T10:26:42+02:00',
/* author */ (''),
/* organization */ (''),
/* preprocessor_version */ 'ST-DEVELOPER v20',
/* originating_system */ 'Autodesk Translation Framework v13.14.0.145',

/* authorisation */ '');

FILE_SCHEMA (('AUTOMOTIVE_DESIGN { 1 0 10303 214 3 1 1 }'));
ENDSEC;

DATA;
#10=MECHANICAL_DESIGN_GEOMETRIC_PRESENTATION_REPRESENTATION('',(#13),#203);
#11=SHAPE_REPRESENTATION_RELATIONSHIP('SRR','None',#210,#12);
#12=ADVANCED_BREP_SHAPE_REPRESENTATION('',(#14),#202);
#13=STYLED_ITEM('',(#219),#14);
#14=MANIFOLD_SOLID_BREP('Body1',#111);
#15=FACE_BOUND('',#34,.T.);
#16=FACE_BOUND('',#35,.T.);
#17=FACE_BOUND('',#36,.T.);
#18=FACE_BOUND('',#39,.T.);
#19=FACE_BOUND('',#40,.T.);
#20=FACE_BOUND('',#41,.T.);
#21=PLANE('',#134);
#22=PLANE('',#138);
#23=CONICAL_SURFACE('',#131,18.5747045256125,0.523598775598299);
#24=FACE_OUTER_BOUND('',#30,.T.);
#25=FACE_OUTER_BOUND('',#31,.T.);
#26=FACE_OUTER_BOUND('',#32,.T.);
#27=FACE_OUTER_BOUND('',#33,.T.);
#28=FACE_OUTER_BOUND('',#37,.T.);
#29=FACE_OUTER_BOUND('',#38,.T.);
#30=EDGE_LOOP('',(#78,#79,#80,#81));
#31=EDGE_LOOP('',(#82,#83,#84,#85));
#32=EDGE_LOOP('',(#86,#87,#88,#89));
#33=EDGE_LOOP('',(#90));
#34=EDGE_LOOP('',(#91));
#35=EDGE_LOOP('',(#92));
#36=EDGE_LOOP('',(#93));
#37=EDGE_LOOP('',(#94,#95,#96,#97));
#38=EDGE_LOOP('',(#98));
#39=EDGE_LOOP('',(#99));
#40=EDGE_LOOP('',(#100));
#41=EDGE_LOOP('',(#101));
#42=LINE('',#178,#46);
#43=LINE('',#184,#47);
#44=LINE('',#190,#48);
#45=LINE('',#198,#49);
#46=VECTOR('',#145,1.55);
#47=VECTOR('',#152,1.55);
#48=VECTOR('',#159,18.5747045256125);
#49=VECTOR('',#170,26.35);
#50=CIRCLE('',#126,1.55);
#51=CIRCLE('',#127,1.55);
#52=CIRCLE('',#129,1.55);
#53=CIRCLE('',#130,1.55);
#54=CIRCLE('',#132,16.375);
#55=CIRCLE('',#133,20.774409051225);
#56=CIRCLE('',#135,25.925);
#57=CIRCLE('',#137,25.925);
#58=VERTEX_POINT('',#175);
#59=VERTEX_POINT('',#177);
#60=VERTEX_POINT('',#181);
#61=VERTEX_POINT('',#183);
#62=VERTEX_POINT('',#187);
#63=VERTEX_POINT('',#189);
#64=VERTEX_POINT('',#193);
#65=VERTEX_POINT('',#196);
#66=EDGE_CURVE('',#58,#58,#50,.T.);
#67=EDGE_CURVE('',#58,#59,#42,.T.);
#68=EDGE_CURVE('',#59,#59,#51,.T.);
#69=EDGE_CURVE('',#60,#60,#52,.T.);
#70=EDGE_CURVE('',#60,#61,#43,.T.);
#71=EDGE_CURVE('',#61,#61,#53,.T.);
#72=EDGE_CURVE('',#62,#62,#54,.T.);
#73=EDGE_CURVE('',#62,#63,#44,.T.);
#74=EDGE_CURVE('',#63,#63,#55,.T.);
#75=EDGE_CURVE('',#64,#64,#56,.T.);
#76=EDGE_CURVE('',#65,#65,#57,.F.);
#77=EDGE_CURVE('',#65,#64,#45,.T.);
#78=ORIENTED_EDGE('',*,*,#66,.F.);
#79=ORIENTED_EDGE('',*,*,#67,.T.);
#80=ORIENTED_EDGE('',*,*,#68,.F.);
#81=ORIENTED_EDGE('',*,*,#67,.F.);
#82=ORIENTED_EDGE('',*,*,#69,.F.);
#83=ORIENTED_EDGE('',*,*,#70,.T.);
#84=ORIENTED_EDGE('',*,*,#71,.F.);
#85=ORIENTED_EDGE('',*,*,#70,.F.);
#86=ORIENTED_EDGE('',*,*,#72,.T.);
#87=ORIENTED_EDGE('',*,*,#73,.T.);
#88=ORIENTED_EDGE('',*,*,#74,.F.);
#89=ORIENTED_EDGE('',*,*,#73,.F.);
#90=ORIENTED_EDGE('',*,*,#75,.F.);
#91=ORIENTED_EDGE('',*,*,#68,.T.);
#92=ORIENTED_EDGE('',*,*,#71,.T.);
#93=ORIENTED_EDGE('',*,*,#74,.T.);
#94=ORIENTED_EDGE('',*,*,#76,.F.);
#95=ORIENTED_EDGE('',*,*,#77,.T.);
#96=ORIENTED_EDGE('',*,*,#75,.T.);
#97=ORIENTED_EDGE('',*,*,#77,.F.);
#98=ORIENTED_EDGE('',*,*,#76,.T.);
#99=ORIENTED_EDGE('',*,*,#66,.T.);
#100=ORIENTED_EDGE('',*,*,#69,.T.);
#101=ORIENTED_EDGE('',*,*,#72,.F.);
#102=CYLINDRICAL_SURFACE('',#125,1.55);
#103=CYLINDRICAL_SURFACE('',#128,1.55);
#104=CYLINDRICAL_SURFACE('',#136,25.925);
#105=ADVANCED_FACE('',(#24),#102,.F.);
#106=ADVANCED_FACE('',(#25),#103,.F.);
#107=ADVANCED_FACE('',(#26),#23,.F.);
#108=ADVANCED_FACE('',(#27,#15,#16,#17),#21,.T.);
#109=ADVANCED_FACE('',(#28),#104,.T.);
#110=ADVANCED_FACE('',(#29,#18,#19,#20),#22,.T.);
#111=CLOSED_SHELL('',(#105,#106,#107,#108,#109,#110));
#112=DERIVED_UNIT_ELEMENT(#114,1.);
#113=DERIVED_UNIT_ELEMENT(#205,-3.);
#114=(
MASS_UNIT()
NAMED_UNIT(*)
SI_UNIT(.KILO.,.GRAM.)
);
#115=DERIVED_UNIT((#112,#113));
#116=MEASURE_REPRESENTATION_ITEM('density measure',
POSITIVE_RATIO_MEASURE(7850.),#115);
#117=PROPERTY_DEFINITION_REPRESENTATION(#122,#119);
#118=PROPERTY_DEFINITION_REPRESENTATION(#123,#120);
#119=REPRESENTATION('material name',(#121),#202);
#120=REPRESENTATION('density',(#116),#202);
#121=DESCRIPTIVE_REPRESENTATION_ITEM('Steel','Steel');
#122=PROPERTY_DEFINITION('material property','material name',#212);
#123=PROPERTY_DEFINITION('material property','density of part',#212);
#124=AXIS2_PLACEMENT_3D('',#173,#139,#140);
#125=AXIS2_PLACEMENT_3D('',#174,#141,#142);
#126=AXIS2_PLACEMENT_3D('',#176,#143,#144);
#127=AXIS2_PLACEMENT_3D('',#179,#146,#147);
#128=AXIS2_PLACEMENT_3D('',#180,#148,#149);
#129=AXIS2_PLACEMENT_3D('',#182,#150,#151);
#130=AXIS2_PLACEMENT_3D('',#185,#153,#154);
#131=AXIS2_PLACEMENT_3D('',#186,#155,#156);
#132=AXIS2_PLACEMENT_3D('',#188,#157,#158);
#133=AXIS2_PLACEMENT_3D('',#191,#160,#161);
#134=AXIS2_PLACEMENT_3D('',#192,#162,#163);
#135=AXIS2_PLACEMENT_3D('',#194,#164,#165);
#136=AXIS2_PLACEMENT_3D('',#195,#166,#167);
#137=AXIS2_PLACEMENT_3D('',#197,#168,#169);
#138=AXIS2_PLACEMENT_3D('',#199,#171,#172);
#139=DIRECTION('axis',(0.,0.,1.));
#140=DIRECTION('refdir',(1.,0.,0.));
#141=DIRECTION('center_axis',(0.,-1.,0.));
#142=DIRECTION('ref_axis',(0.,0.,1.));
#143=DIRECTION('center_axis',(0.,-1.,0.));
#144=DIRECTION('ref_axis',(0.,0.,1.));
#145=DIRECTION('',(0.,-1.,0.));
#146=DIRECTION('center_axis',(0.,1.,0.));
#147=DIRECTION('ref_axis',(0.,0.,1.));
#148=DIRECTION('center_axis',(0.,-1.,0.));
#149=DIRECTION('ref_axis',(0.,0.,1.));
#150=DIRECTION('center_axis',(0.,-1.,0.));
#151=DIRECTION('ref_axis',(0.,0.,1.));
#152=DIRECTION('',(0.,-1.,0.));
#153=DIRECTION('center_axis',(0.,1.,0.));
#154=DIRECTION('ref_axis',(0.,0.,1.));
#155=DIRECTION('center_axis',(0.,-1.,0.));
#156=DIRECTION('ref_axis',(-1.,0.,0.));
#157=DIRECTION('center_axis',(0.,1.,0.));
#158=DIRECTION('ref_axis',(1.,0.,0.));
#159=DIRECTION('',(0.5,-0.866025403784439,-6.12323399573677E-17));
#160=DIRECTION('center_axis',(0.,1.,0.));
#161=DIRECTION('ref_axis',(1.,0.,0.));
#162=DIRECTION('center_axis',(0.,-1.,0.));
#163=DIRECTION('ref_axis',(0.,0.,-1.));
#164=DIRECTION('center_axis',(0.,1.,0.));
#165=DIRECTION('ref_axis',(-1.,0.,0.));
#166=DIRECTION('center_axis',(0.,1.,0.));
#167=DIRECTION('ref_axis',(-1.,0.,0.));
#168=DIRECTION('center_axis',(0.,-1.,0.));
#169=DIRECTION('ref_axis',(-1.,0.,0.));
#170=DIRECTION('',(0.,-1.,0.));
#171=DIRECTION('center_axis',(0.,1.,0.));
#172=DIRECTION('ref_axis',(0.,0.,1.));
#173=CARTESIAN_POINT('',(0.,0.,0.));
#174=CARTESIAN_POINT('Origin',(0.0140510212012757,0.870000000000003,-23.35));
#175=CARTESIAN_POINT('',(0.0140510212012759,7.62,-24.9));
#176=CARTESIAN_POINT('Origin',(0.0140510212012757,7.62,-23.35));
#177=CARTESIAN_POINT('',(0.0140510212012755,0.,-24.9));
#178=CARTESIAN_POINT('',(0.0140510212012759,0.870000000000003,-24.9));
#179=CARTESIAN_POINT('Origin',(0.0140510212012757,0.,-23.35));
#180=CARTESIAN_POINT('Origin',(0.0140510212012757,0.870000000000003,23.35));
#181=CARTESIAN_POINT('',(0.0140510212012759,7.62,21.8));
#182=CARTESIAN_POINT('Origin',(0.0140510212012757,7.62,23.35));
#183=CARTESIAN_POINT('',(0.0140510212012755,0.,21.8));
#184=CARTESIAN_POINT('',(0.0140510212012759,0.870000000000003,21.8));
#185=CARTESIAN_POINT('Origin',(0.0140510212012757,0.,23.35));
#186=CARTESIAN_POINT('Origin',(0.,3.81,0.));
#187=CARTESIAN_POINT('',(16.375,7.62,-2.00535913360379E-15));
#188=CARTESIAN_POINT('Origin',(0.,7.62,0.));
#189=CARTESIAN_POINT('',(20.774409051225,-1.11022302462516E-15,-2.54413135487604E-15));
#190=CARTESIAN_POINT('',(18.5747045256125,3.81,-2.27474524423992E-15));
#191=CARTESIAN_POINT('Origin',(0.,0.,0.));
#192=CARTESIAN_POINT('Origin',(-26.35,0.,0.));
#193=CARTESIAN_POINT('',(25.925,0.,-3.17489682678951E-15));
#194=CARTESIAN_POINT('Origin',(0.,0.,0.));
#195=CARTESIAN_POINT('Origin',(0.,3.81,0.));
#196=CARTESIAN_POINT('',(25.925,7.62,3.17489682678951E-15));
#197=CARTESIAN_POINT('Origin',(0.,7.62,0.));
#198=CARTESIAN_POINT('',(25.925,3.81,-3.17489682678951E-15));
#199=CARTESIAN_POINT('Origin',(-16.375,7.62,0.));
#200=UNCERTAINTY_MEASURE_WITH_UNIT(LENGTH_MEASURE(0.01),#204,
'DISTANCE_ACCURACY_VALUE',
'Maximum model space distance between geometric entities at asserted c
onnectivities');
#201=UNCERTAINTY_MEASURE_WITH_UNIT(LENGTH_MEASURE(0.01),#204,
'DISTANCE_ACCURACY_VALUE',
'Maximum model space distance between geometric entities at asserted c
onnectivities');
#202=(
GEOMETRIC_REPRESENTATION_CONTEXT(3)
GLOBAL_UNCERTAINTY_ASSIGNED_CONTEXT((#200))
GLOBAL_UNIT_ASSIGNED_CONTEXT((#204,#206,#207))
REPRESENTATION_CONTEXT('','3D')
);
#203=(
GEOMETRIC_REPRESENTATION_CONTEXT(3)
GLOBAL_UNCERTAINTY_ASSIGNED_CONTEXT((#201))
GLOBAL_UNIT_ASSIGNED_CONTEXT((#204,#206,#207))
REPRESENTATION_CONTEXT('','3D')
);
#204=(
LENGTH_UNIT()
NAMED_UNIT(*)
SI_UNIT(.MILLI.,.METRE.)
);
#205=(
LENGTH_UNIT()
NAMED_UNIT(*)
SI_UNIT($,.METRE.)
);
#206=(
NAMED_UNIT(*)
PLANE_ANGLE_UNIT()
SI_UNIT($,.RADIAN.)
);
#207=(
NAMED_UNIT(*)
SI_UNIT($,.STERADIAN.)
SOLID_ANGLE_UNIT()
);
#208=SHAPE_DEFINITION_REPRESENTATION(#209,#210);
#209=PRODUCT_DEFINITION_SHAPE('',$,#212);
#210=SHAPE_REPRESENTATION('',(#124),#202);
#211=PRODUCT_DEFINITION_CONTEXT('part definition',#216,'design');
#212=PRODUCT_DEFINITION('Collet Top Taper','Collet Top Taper v1',#213,#211);
#213=PRODUCT_DEFINITION_FORMATION('',$,#218);
#214=PRODUCT_RELATED_PRODUCT_CATEGORY('Collet Top Taper v1',
'Collet Top Taper v1',(#218));
#215=APPLICATION_PROTOCOL_DEFINITION('international standard',
'automotive_design',2009,#216);
#216=APPLICATION_CONTEXT(
'Core Data for Automotive Mechanical Design Process');
#217=PRODUCT_CONTEXT('part definition',#216,'mechanical');
#218=PRODUCT('Collet Top Taper','Collet Top Taper v1',$,(#217));
#219=PRESENTATION_STYLE_ASSIGNMENT((#220));
#220=SURFACE_STYLE_USAGE(.BOTH.,#221);
#221=SURFACE_SIDE_STYLE('',(#222));
#222=SURFACE_STYLE_FILL_AREA(#223);
#223=FILL_AREA_STYLE('Steel - Satin',(#224));
#224=FILL_AREA_STYLE_COLOUR('Steel - Satin',#225);
#225=COLOUR_RGB('Steel - Satin',0.627450980392157,0.627450980392157,0.627450980392157);
ENDSEC;
END-ISO-10303-21;
