ISO-10303-21;
HEADER;
/* Generated by software containing ST-Developer
 * from STEP Tools, Inc. (www.steptools.com) 
 */

FILE_DESCRIPTION(
/* description */ (''),
/* implementation_level */ '2;1');

FILE_NAME(
/* name */ 'electorde puck v2 insulating plate CAM v4.step',
/* time_stamp */ '2024-06-19T10:31:26+02:00',
/* author */ (''),
/* organization */ (''),
/* preprocessor_version */ 'ST-DEVELOPER v20',
/* originating_system */ 'Autodesk Translation Framework v13.14.0.145',

/* authorisation */ '');

FILE_SCHEMA (('AUTOMOTIVE_DESIGN { 1 0 10303 214 3 1 1 }'));
ENDSEC;

DATA;
#10=MECHANICAL_DESIGN_GEOMETRIC_PRESENTATION_REPRESENTATION('',(#23,#24),
#1553);
#11=ITEM_DEFINED_TRANSFORMATION($,$,#891,#1010);
#12=ITEM_DEFINED_TRANSFORMATION($,$,#971,#1011);
#13=(
REPRESENTATION_RELATIONSHIP($,$,#1567,#1566)
REPRESENTATION_RELATIONSHIP_WITH_TRANSFORMATION(#11)
SHAPE_REPRESENTATION_RELATIONSHIP()
);
#14=(
REPRESENTATION_RELATIONSHIP($,$,#1568,#1566)
REPRESENTATION_RELATIONSHIP_WITH_TRANSFORMATION(#12)
SHAPE_REPRESENTATION_RELATIONSHIP()
);
#15=CONTEXT_DEPENDENT_SHAPE_REPRESENTATION(#13,#1564);
#16=CONTEXT_DEPENDENT_SHAPE_REPRESENTATION(#14,#1565);
#17=NEXT_ASSEMBLY_USAGE_OCCURRENCE('V2PocketNC kinematic Bdisc v4 v1:1',
'V2PocketNC kinematic Bdisc v4 v1:1',
'V2PocketNC kinematic Bdisc v4 v1:1',#1570,#1571,
'V2PocketNC kinematic Bdisc v4 v1:1');
#18=NEXT_ASSEMBLY_USAGE_OCCURRENCE('smb electrode top ground v14:1',
'smb electrode top ground v14:1','smb electrode top ground v14:1',#1570,
#1572,'smb electrode top ground v14:1');
#19=SHAPE_REPRESENTATION_RELATIONSHIP('SRR','None',#1567,#21);
#20=SHAPE_REPRESENTATION_RELATIONSHIP('SRR','None',#1568,#22);
#21=ADVANCED_BREP_SHAPE_REPRESENTATION('',(#25),#1551);
#22=ADVANCED_BREP_SHAPE_REPRESENTATION('',(#26),#1552);
#23=STYLED_ITEM('',(#1586),#25);
#24=STYLED_ITEM('',(#1587),#26);
#25=MANIFOLD_SOLID_BREP('Body1',#865);
#26=MANIFOLD_SOLID_BREP('Body1',#866);
#27=FACE_BOUND('',#146,.T.);
#28=FACE_BOUND('',#147,.T.);
#29=FACE_BOUND('',#179,.T.);
#30=FACE_BOUND('',#180,.T.);
#31=FACE_BOUND('',#181,.T.);
#32=FACE_BOUND('',#182,.T.);
#33=FACE_BOUND('',#183,.T.);
#34=FACE_BOUND('',#184,.T.);
#35=FACE_BOUND('',#185,.T.);
#36=FACE_BOUND('',#186,.T.);
#37=FACE_BOUND('',#187,.T.);
#38=FACE_BOUND('',#188,.T.);
#39=FACE_BOUND('',#189,.T.);
#40=FACE_BOUND('',#190,.T.);
#41=FACE_BOUND('',#191,.T.);
#42=FACE_BOUND('',#192,.T.);
#43=FACE_BOUND('',#193,.T.);
#44=FACE_BOUND('',#194,.T.);
#45=FACE_BOUND('',#195,.T.);
#46=FACE_BOUND('',#196,.T.);
#47=FACE_BOUND('',#197,.T.);
#48=FACE_BOUND('',#202,.T.);
#49=FACE_BOUND('',#203,.T.);
#50=FACE_BOUND('',#204,.T.);
#51=FACE_BOUND('',#205,.T.);
#52=FACE_BOUND('',#222,.T.);
#53=FACE_BOUND('',#223,.T.);
#54=FACE_BOUND('',#224,.T.);
#55=FACE_BOUND('',#225,.T.);
#56=PLANE('',#898);
#57=PLANE('',#905);
#58=PLANE('',#917);
#59=PLANE('',#921);
#60=PLANE('',#922);
#61=PLANE('',#924);
#62=PLANE('',#926);
#63=PLANE('',#927);
#64=PLANE('',#928);
#65=PLANE('',#930);
#66=PLANE('',#932);
#67=PLANE('',#934);
#68=PLANE('',#935);
#69=PLANE('',#937);
#70=PLANE('',#939);
#71=PLANE('',#940);
#72=PLANE('',#942);
#73=PLANE('',#944);
#74=PLANE('',#966);
#75=PLANE('',#975);
#76=PLANE('',#985);
#77=PLANE('',#990);
#78=PLANE('',#993);
#79=PLANE('',#996);
#80=PLANE('',#1007);
#81=PLANE('',#1008);
#82=PLANE('',#1009);
#83=FACE_OUTER_BOUND('',#140,.T.);
#84=FACE_OUTER_BOUND('',#141,.T.);
#85=FACE_OUTER_BOUND('',#142,.T.);
#86=FACE_OUTER_BOUND('',#143,.T.);
#87=FACE_OUTER_BOUND('',#144,.T.);
#88=FACE_OUTER_BOUND('',#145,.T.);
#89=FACE_OUTER_BOUND('',#148,.T.);
#90=FACE_OUTER_BOUND('',#149,.T.);
#91=FACE_OUTER_BOUND('',#150,.T.);
#92=FACE_OUTER_BOUND('',#151,.T.);
#93=FACE_OUTER_BOUND('',#152,.T.);
#94=FACE_OUTER_BOUND('',#153,.T.);
#95=FACE_OUTER_BOUND('',#154,.T.);
#96=FACE_OUTER_BOUND('',#155,.T.);
#97=FACE_OUTER_BOUND('',#156,.T.);
#98=FACE_OUTER_BOUND('',#157,.T.);
#99=FACE_OUTER_BOUND('',#158,.T.);
#100=FACE_OUTER_BOUND('',#159,.T.);
#101=FACE_OUTER_BOUND('',#160,.T.);
#102=FACE_OUTER_BOUND('',#161,.T.);
#103=FACE_OUTER_BOUND('',#162,.T.);
#104=FACE_OUTER_BOUND('',#163,.T.);
#105=FACE_OUTER_BOUND('',#164,.T.);
#106=FACE_OUTER_BOUND('',#165,.T.);
#107=FACE_OUTER_BOUND('',#166,.T.);
#108=FACE_OUTER_BOUND('',#167,.T.);
#109=FACE_OUTER_BOUND('',#168,.T.);
#110=FACE_OUTER_BOUND('',#169,.T.);
#111=FACE_OUTER_BOUND('',#170,.T.);
#112=FACE_OUTER_BOUND('',#171,.T.);
#113=FACE_OUTER_BOUND('',#172,.T.);
#114=FACE_OUTER_BOUND('',#173,.T.);
#115=FACE_OUTER_BOUND('',#174,.T.);
#116=FACE_OUTER_BOUND('',#175,.T.);
#117=FACE_OUTER_BOUND('',#176,.T.);
#118=FACE_OUTER_BOUND('',#177,.T.);
#119=FACE_OUTER_BOUND('',#178,.T.);
#120=FACE_OUTER_BOUND('',#198,.T.);
#121=FACE_OUTER_BOUND('',#199,.T.);
#122=FACE_OUTER_BOUND('',#200,.T.);
#123=FACE_OUTER_BOUND('',#201,.T.);
#124=FACE_OUTER_BOUND('',#206,.T.);
#125=FACE_OUTER_BOUND('',#207,.T.);
#126=FACE_OUTER_BOUND('',#208,.T.);
#127=FACE_OUTER_BOUND('',#209,.T.);
#128=FACE_OUTER_BOUND('',#210,.T.);
#129=FACE_OUTER_BOUND('',#211,.T.);
#130=FACE_OUTER_BOUND('',#212,.T.);
#131=FACE_OUTER_BOUND('',#213,.T.);
#132=FACE_OUTER_BOUND('',#214,.T.);
#133=FACE_OUTER_BOUND('',#215,.T.);
#134=FACE_OUTER_BOUND('',#216,.T.);
#135=FACE_OUTER_BOUND('',#217,.T.);
#136=FACE_OUTER_BOUND('',#218,.T.);
#137=FACE_OUTER_BOUND('',#219,.T.);
#138=FACE_OUTER_BOUND('',#220,.T.);
#139=FACE_OUTER_BOUND('',#221,.T.);
#140=EDGE_LOOP('',(#562,#563,#564,#565));
#141=EDGE_LOOP('',(#566,#567,#568,#569));
#142=EDGE_LOOP('',(#570));
#143=EDGE_LOOP('',(#571,#572,#573,#574));
#144=EDGE_LOOP('',(#575,#576,#577,#578));
#145=EDGE_LOOP('',(#579));
#146=EDGE_LOOP('',(#580));
#147=EDGE_LOOP('',(#581));
#148=EDGE_LOOP('',(#582,#583,#584,#585));
#149=EDGE_LOOP('',(#586,#587,#588,#589));
#150=EDGE_LOOP('',(#590,#591,#592,#593));
#151=EDGE_LOOP('',(#594));
#152=EDGE_LOOP('',(#595,#596,#597,#598));
#153=EDGE_LOOP('',(#599));
#154=EDGE_LOOP('',(#600));
#155=EDGE_LOOP('',(#601));
#156=EDGE_LOOP('',(#602));
#157=EDGE_LOOP('',(#603));
#158=EDGE_LOOP('',(#604));
#159=EDGE_LOOP('',(#605));
#160=EDGE_LOOP('',(#606));
#161=EDGE_LOOP('',(#607));
#162=EDGE_LOOP('',(#608));
#163=EDGE_LOOP('',(#609));
#164=EDGE_LOOP('',(#610));
#165=EDGE_LOOP('',(#611));
#166=EDGE_LOOP('',(#612));
#167=EDGE_LOOP('',(#613));
#168=EDGE_LOOP('',(#614,#615,#616,#617));
#169=EDGE_LOOP('',(#618,#619,#620,#621));
#170=EDGE_LOOP('',(#622,#623,#624,#625));
#171=EDGE_LOOP('',(#626,#627,#628,#629));
#172=EDGE_LOOP('',(#630,#631,#632,#633));
#173=EDGE_LOOP('',(#634,#635,#636,#637));
#174=EDGE_LOOP('',(#638,#639,#640,#641));
#175=EDGE_LOOP('',(#642,#643,#644,#645));
#176=EDGE_LOOP('',(#646,#647,#648,#649));
#177=EDGE_LOOP('',(#650,#651,#652,#653));
#178=EDGE_LOOP('',(#654));
#179=EDGE_LOOP('',(#655));
#180=EDGE_LOOP('',(#656));
#181=EDGE_LOOP('',(#657));
#182=EDGE_LOOP('',(#658));
#183=EDGE_LOOP('',(#659));
#184=EDGE_LOOP('',(#660));
#185=EDGE_LOOP('',(#661));
#186=EDGE_LOOP('',(#662));
#187=EDGE_LOOP('',(#663));
#188=EDGE_LOOP('',(#664));
#189=EDGE_LOOP('',(#665));
#190=EDGE_LOOP('',(#666));
#191=EDGE_LOOP('',(#667));
#192=EDGE_LOOP('',(#668));
#193=EDGE_LOOP('',(#669));
#194=EDGE_LOOP('',(#670));
#195=EDGE_LOOP('',(#671));
#196=EDGE_LOOP('',(#672));
#197=EDGE_LOOP('',(#673));
#198=EDGE_LOOP('',(#674,#675,#676,#677));
#199=EDGE_LOOP('',(#678,#679,#680,#681));
#200=EDGE_LOOP('',(#682,#683,#684,#685));
#201=EDGE_LOOP('',(#686,#687,#688,#689,#690,#691,#692,#693,#694,#695,#696,
#697));
#202=EDGE_LOOP('',(#698));
#203=EDGE_LOOP('',(#699));
#204=EDGE_LOOP('',(#700));
#205=EDGE_LOOP('',(#701));
#206=EDGE_LOOP('',(#702,#703,#704,#705));
#207=EDGE_LOOP('',(#706,#707,#708,#709));
#208=EDGE_LOOP('',(#710,#711,#712,#713));
#209=EDGE_LOOP('',(#714,#715,#716,#717));
#210=EDGE_LOOP('',(#718,#719,#720,#721));
#211=EDGE_LOOP('',(#722,#723,#724,#725));
#212=EDGE_LOOP('',(#726,#727,#728,#729));
#213=EDGE_LOOP('',(#730,#731,#732,#733));
#214=EDGE_LOOP('',(#734,#735,#736,#737));
#215=EDGE_LOOP('',(#738,#739,#740,#741));
#216=EDGE_LOOP('',(#742,#743,#744,#745));
#217=EDGE_LOOP('',(#746,#747,#748,#749));
#218=EDGE_LOOP('',(#750,#751,#752,#753));
#219=EDGE_LOOP('',(#754,#755,#756,#757));
#220=EDGE_LOOP('',(#758,#759,#760,#761));
#221=EDGE_LOOP('',(#762,#763,#764,#765,#766,#767,#768,#769,#770,#771,#772,
#773));
#222=EDGE_LOOP('',(#774));
#223=EDGE_LOOP('',(#775));
#224=EDGE_LOOP('',(#776));
#225=EDGE_LOOP('',(#777));
#226=LINE('',#1310,#274);
#227=LINE('',#1316,#275);
#228=LINE('',#1323,#276);
#229=LINE('',#1329,#277);
#230=LINE('',#1340,#278);
#231=LINE('',#1346,#279);
#232=LINE('',#1352,#280);
#233=LINE('',#1359,#281);
#234=LINE('',#1398,#282);
#235=LINE('',#1402,#283);
#236=LINE('',#1406,#284);
#237=LINE('',#1410,#285);
#238=LINE('',#1414,#286);
#239=LINE('',#1418,#287);
#240=LINE('',#1422,#288);
#241=LINE('',#1426,#289);
#242=LINE('',#1430,#290);
#243=LINE('',#1434,#291);
#244=LINE('',#1442,#292);
#245=LINE('',#1444,#293);
#246=LINE('',#1451,#294);
#247=LINE('',#1454,#295);
#248=LINE('',#1457,#296);
#249=LINE('',#1461,#297);
#250=LINE('',#1465,#298);
#251=LINE('',#1469,#299);
#252=LINE('',#1473,#300);
#253=LINE('',#1476,#301);
#254=LINE('',#1487,#302);
#255=LINE('',#1488,#303);
#256=LINE('',#1492,#304);
#257=LINE('',#1497,#305);
#258=LINE('',#1498,#306);
#259=LINE('',#1501,#307);
#260=LINE('',#1502,#308);
#261=LINE('',#1506,#309);
#262=LINE('',#1508,#310);
#263=LINE('',#1513,#311);
#264=LINE('',#1514,#312);
#265=LINE('',#1517,#313);
#266=LINE('',#1518,#314);
#267=LINE('',#1522,#315);
#268=LINE('',#1526,#316);
#269=LINE('',#1530,#317);
#270=LINE('',#1534,#318);
#271=LINE('',#1538,#319);
#272=LINE('',#1540,#320);
#273=LINE('',#1542,#321);
#274=VECTOR('',#1020,2.);
#275=VECTOR('',#1027,2.);
#276=VECTOR('',#1036,2.);
#277=VECTOR('',#1043,2.);
#278=VECTOR('',#1056,2.);
#279=VECTOR('',#1063,2.);
#280=VECTOR('',#1070,2.);
#281=VECTOR('',#1079,2.);
#282=VECTOR('',#1134,1.5875);
#283=VECTOR('',#1139,1.5875);
#284=VECTOR('',#1144,1.5875);
#285=VECTOR('',#1149,1.5875);
#286=VECTOR('',#1154,1.5875);
#287=VECTOR('',#1159,1.5875);
#288=VECTOR('',#1164,1.5875);
#289=VECTOR('',#1169,1.5875);
#290=VECTOR('',#1174,1.5875);
#291=VECTOR('',#1179,1.5875);
#292=VECTOR('',#1190,44.96825);
#293=VECTOR('',#1193,26.5);
#294=VECTOR('',#1200,10.);
#295=VECTOR('',#1203,10.);
#296=VECTOR('',#1206,10.);
#297=VECTOR('',#1209,10.);
#298=VECTOR('',#1212,10.);
#299=VECTOR('',#1215,10.);
#300=VECTOR('',#1218,10.);
#301=VECTOR('',#1221,10.);
#302=VECTOR('',#1232,10.);
#303=VECTOR('',#1233,10.);
#304=VECTOR('',#1238,10.);
#305=VECTOR('',#1243,10.);
#306=VECTOR('',#1244,10.);
#307=VECTOR('',#1247,10.);
#308=VECTOR('',#1248,10.);
#309=VECTOR('',#1253,10.);
#310=VECTOR('',#1256,10.);
#311=VECTOR('',#1261,10.);
#312=VECTOR('',#1262,10.);
#313=VECTOR('',#1265,10.);
#314=VECTOR('',#1266,10.);
#315=VECTOR('',#1271,10.);
#316=VECTOR('',#1276,1.1);
#317=VECTOR('',#1281,1.1);
#318=VECTOR('',#1286,2.);
#319=VECTOR('',#1291,1.1);
#320=VECTOR('',#1294,10.);
#321=VECTOR('',#1297,10.);
#322=CIRCLE('',#893,2.);
#323=CIRCLE('',#894,2.);
#324=CIRCLE('',#896,2.);
#325=CIRCLE('',#897,2.);
#326=CIRCLE('',#900,2.);
#327=CIRCLE('',#901,2.);
#328=CIRCLE('',#903,2.);
#329=CIRCLE('',#904,2.);
#330=CIRCLE('',#906,44.96825);
#331=CIRCLE('',#907,26.5);
#332=CIRCLE('',#908,2.);
#333=CIRCLE('',#910,2.);
#334=CIRCLE('',#912,2.);
#335=CIRCLE('',#913,2.);
#336=CIRCLE('',#915,2.);
#337=CIRCLE('',#916,2.);
#338=CIRCLE('',#919,2.);
#339=CIRCLE('',#920,2.);
#340=CIRCLE('',#923,1.5875);
#341=CIRCLE('',#925,1.5875);
#342=CIRCLE('',#929,1.5875);
#343=CIRCLE('',#931,1.5875);
#344=CIRCLE('',#933,1.5875);
#345=CIRCLE('',#936,1.5875);
#346=CIRCLE('',#938,1.5875);
#347=CIRCLE('',#941,1.5875);
#348=CIRCLE('',#943,1.5875);
#349=CIRCLE('',#945,1.5875);
#350=CIRCLE('',#947,1.5875);
#351=CIRCLE('',#949,1.5875);
#352=CIRCLE('',#951,1.5875);
#353=CIRCLE('',#953,1.5875);
#354=CIRCLE('',#955,1.5875);
#355=CIRCLE('',#957,1.5875);
#356=CIRCLE('',#959,1.5875);
#357=CIRCLE('',#961,1.5875);
#358=CIRCLE('',#963,1.5875);
#359=CIRCLE('',#965,1.5875);
#360=CIRCLE('',#967,44.96825);
#361=CIRCLE('',#968,26.5);
#362=CIRCLE('',#973,2.);
#363=CIRCLE('',#974,2.);
#364=CIRCLE('',#976,2.);
#365=CIRCLE('',#977,2.);
#366=CIRCLE('',#978,2.);
#367=CIRCLE('',#979,2.);
#368=CIRCLE('',#980,2.);
#369=CIRCLE('',#981,1.1);
#370=CIRCLE('',#982,2.);
#371=CIRCLE('',#983,1.1);
#372=CIRCLE('',#984,1.1);
#373=CIRCLE('',#987,2.);
#374=CIRCLE('',#989,2.);
#375=CIRCLE('',#992,2.);
#376=CIRCLE('',#995,2.);
#377=CIRCLE('',#998,2.);
#378=CIRCLE('',#1000,1.1);
#379=CIRCLE('',#1002,1.1);
#380=CIRCLE('',#1004,2.);
#381=CIRCLE('',#1006,1.1);
#382=VERTEX_POINT('',#1307);
#383=VERTEX_POINT('',#1309);
#384=VERTEX_POINT('',#1313);
#385=VERTEX_POINT('',#1315);
#386=VERTEX_POINT('',#1320);
#387=VERTEX_POINT('',#1322);
#388=VERTEX_POINT('',#1326);
#389=VERTEX_POINT('',#1328);
#390=VERTEX_POINT('',#1332);
#391=VERTEX_POINT('',#1334);
#392=VERTEX_POINT('',#1336);
#393=VERTEX_POINT('',#1339);
#394=VERTEX_POINT('',#1343);
#395=VERTEX_POINT('',#1345);
#396=VERTEX_POINT('',#1349);
#397=VERTEX_POINT('',#1351);
#398=VERTEX_POINT('',#1356);
#399=VERTEX_POINT('',#1358);
#400=VERTEX_POINT('',#1363);
#401=VERTEX_POINT('',#1366);
#402=VERTEX_POINT('',#1371);
#403=VERTEX_POINT('',#1374);
#404=VERTEX_POINT('',#1377);
#405=VERTEX_POINT('',#1381);
#406=VERTEX_POINT('',#1384);
#407=VERTEX_POINT('',#1388);
#408=VERTEX_POINT('',#1391);
#409=VERTEX_POINT('',#1394);
#410=VERTEX_POINT('',#1397);
#411=VERTEX_POINT('',#1401);
#412=VERTEX_POINT('',#1405);
#413=VERTEX_POINT('',#1409);
#414=VERTEX_POINT('',#1413);
#415=VERTEX_POINT('',#1417);
#416=VERTEX_POINT('',#1421);
#417=VERTEX_POINT('',#1425);
#418=VERTEX_POINT('',#1429);
#419=VERTEX_POINT('',#1433);
#420=VERTEX_POINT('',#1437);
#421=VERTEX_POINT('',#1439);
#422=VERTEX_POINT('',#1447);
#423=VERTEX_POINT('',#1448);
#424=VERTEX_POINT('',#1450);
#425=VERTEX_POINT('',#1452);
#426=VERTEX_POINT('',#1456);
#427=VERTEX_POINT('',#1458);
#428=VERTEX_POINT('',#1460);
#429=VERTEX_POINT('',#1462);
#430=VERTEX_POINT('',#1464);
#431=VERTEX_POINT('',#1466);
#432=VERTEX_POINT('',#1468);
#433=VERTEX_POINT('',#1470);
#434=VERTEX_POINT('',#1472);
#435=VERTEX_POINT('',#1474);
#436=VERTEX_POINT('',#1477);
#437=VERTEX_POINT('',#1479);
#438=VERTEX_POINT('',#1481);
#439=VERTEX_POINT('',#1483);
#440=VERTEX_POINT('',#1486);
#441=VERTEX_POINT('',#1490);
#442=VERTEX_POINT('',#1494);
#443=VERTEX_POINT('',#1495);
#444=VERTEX_POINT('',#1500);
#445=VERTEX_POINT('',#1504);
#446=VERTEX_POINT('',#1510);
#447=VERTEX_POINT('',#1511);
#448=VERTEX_POINT('',#1516);
#449=VERTEX_POINT('',#1520);
#450=VERTEX_POINT('',#1524);
#451=VERTEX_POINT('',#1528);
#452=VERTEX_POINT('',#1532);
#453=VERTEX_POINT('',#1536);
#454=EDGE_CURVE('',#382,#382,#322,.T.);
#455=EDGE_CURVE('',#382,#383,#226,.T.);
#456=EDGE_CURVE('',#383,#383,#323,.T.);
#457=EDGE_CURVE('',#384,#384,#324,.T.);
#458=EDGE_CURVE('',#384,#385,#227,.T.);
#459=EDGE_CURVE('',#385,#385,#325,.T.);
#460=EDGE_CURVE('',#386,#386,#326,.T.);
#461=EDGE_CURVE('',#386,#387,#228,.T.);
#462=EDGE_CURVE('',#387,#387,#327,.T.);
#463=EDGE_CURVE('',#388,#388,#328,.T.);
#464=EDGE_CURVE('',#388,#389,#229,.T.);
#465=EDGE_CURVE('',#389,#389,#329,.T.);
#466=EDGE_CURVE('',#390,#390,#330,.T.);
#467=EDGE_CURVE('',#391,#391,#331,.T.);
#468=EDGE_CURVE('',#392,#392,#332,.T.);
#469=EDGE_CURVE('',#392,#393,#230,.T.);
#470=EDGE_CURVE('',#393,#393,#333,.T.);
#471=EDGE_CURVE('',#394,#394,#334,.T.);
#472=EDGE_CURVE('',#394,#395,#231,.T.);
#473=EDGE_CURVE('',#395,#395,#335,.T.);
#474=EDGE_CURVE('',#396,#396,#336,.T.);
#475=EDGE_CURVE('',#396,#397,#232,.T.);
#476=EDGE_CURVE('',#397,#397,#337,.T.);
#477=EDGE_CURVE('',#398,#398,#338,.T.);
#478=EDGE_CURVE('',#398,#399,#233,.T.);
#479=EDGE_CURVE('',#399,#399,#339,.T.);
#480=EDGE_CURVE('',#400,#400,#340,.T.);
#481=EDGE_CURVE('',#401,#401,#341,.T.);
#482=EDGE_CURVE('',#402,#402,#342,.T.);
#483=EDGE_CURVE('',#403,#403,#343,.T.);
#484=EDGE_CURVE('',#404,#404,#344,.T.);
#485=EDGE_CURVE('',#405,#405,#345,.T.);
#486=EDGE_CURVE('',#406,#406,#346,.T.);
#487=EDGE_CURVE('',#407,#407,#347,.T.);
#488=EDGE_CURVE('',#408,#408,#348,.T.);
#489=EDGE_CURVE('',#409,#409,#349,.T.);
#490=EDGE_CURVE('',#400,#410,#234,.T.);
#491=EDGE_CURVE('',#410,#410,#350,.T.);
#492=EDGE_CURVE('',#401,#411,#235,.T.);
#493=EDGE_CURVE('',#411,#411,#351,.T.);
#494=EDGE_CURVE('',#402,#412,#236,.T.);
#495=EDGE_CURVE('',#412,#412,#352,.T.);
#496=EDGE_CURVE('',#403,#413,#237,.T.);
#497=EDGE_CURVE('',#413,#413,#353,.T.);
#498=EDGE_CURVE('',#404,#414,#238,.T.);
#499=EDGE_CURVE('',#414,#414,#354,.T.);
#500=EDGE_CURVE('',#405,#415,#239,.T.);
#501=EDGE_CURVE('',#415,#415,#355,.T.);
#502=EDGE_CURVE('',#406,#416,#240,.T.);
#503=EDGE_CURVE('',#416,#416,#356,.T.);
#504=EDGE_CURVE('',#407,#417,#241,.T.);
#505=EDGE_CURVE('',#417,#417,#357,.T.);
#506=EDGE_CURVE('',#408,#418,#242,.T.);
#507=EDGE_CURVE('',#418,#418,#358,.T.);
#508=EDGE_CURVE('',#409,#419,#243,.T.);
#509=EDGE_CURVE('',#419,#419,#359,.T.);
#510=EDGE_CURVE('',#420,#420,#360,.T.);
#511=EDGE_CURVE('',#421,#421,#361,.T.);
#512=EDGE_CURVE('',#420,#390,#244,.T.);
#513=EDGE_CURVE('',#421,#391,#245,.T.);
#514=EDGE_CURVE('',#422,#423,#362,.T.);
#515=EDGE_CURVE('',#423,#424,#246,.T.);
#516=EDGE_CURVE('',#424,#425,#363,.T.);
#517=EDGE_CURVE('',#425,#422,#247,.T.);
#518=EDGE_CURVE('',#426,#424,#248,.T.);
#519=EDGE_CURVE('',#427,#426,#364,.T.);
#520=EDGE_CURVE('',#428,#427,#249,.T.);
#521=EDGE_CURVE('',#429,#428,#365,.T.);
#522=EDGE_CURVE('',#429,#430,#250,.T.);
#523=EDGE_CURVE('',#431,#430,#366,.T.);
#524=EDGE_CURVE('',#431,#432,#251,.T.);
#525=EDGE_CURVE('',#433,#432,#367,.T.);
#526=EDGE_CURVE('',#434,#433,#252,.T.);
#527=EDGE_CURVE('',#435,#434,#368,.T.);
#528=EDGE_CURVE('',#425,#435,#253,.T.);
#529=EDGE_CURVE('',#436,#436,#369,.T.);
#530=EDGE_CURVE('',#437,#437,#370,.T.);
#531=EDGE_CURVE('',#438,#438,#371,.T.);
#532=EDGE_CURVE('',#439,#439,#372,.T.);
#533=EDGE_CURVE('',#440,#423,#254,.T.);
#534=EDGE_CURVE('',#426,#440,#255,.T.);
#535=EDGE_CURVE('',#440,#441,#373,.T.);
#536=EDGE_CURVE('',#441,#427,#256,.T.);
#537=EDGE_CURVE('',#442,#443,#374,.T.);
#538=EDGE_CURVE('',#443,#431,#257,.T.);
#539=EDGE_CURVE('',#430,#442,#258,.T.);
#540=EDGE_CURVE('',#444,#429,#259,.T.);
#541=EDGE_CURVE('',#442,#444,#260,.T.);
#542=EDGE_CURVE('',#445,#444,#375,.T.);
#543=EDGE_CURVE('',#428,#445,#261,.T.);
#544=EDGE_CURVE('',#445,#441,#262,.T.);
#545=EDGE_CURVE('',#446,#447,#376,.T.);
#546=EDGE_CURVE('',#447,#435,#263,.T.);
#547=EDGE_CURVE('',#434,#446,#264,.T.);
#548=EDGE_CURVE('',#448,#433,#265,.T.);
#549=EDGE_CURVE('',#446,#448,#266,.T.);
#550=EDGE_CURVE('',#449,#448,#377,.T.);
#551=EDGE_CURVE('',#432,#449,#267,.T.);
#552=EDGE_CURVE('',#450,#450,#378,.T.);
#553=EDGE_CURVE('',#450,#439,#268,.T.);
#554=EDGE_CURVE('',#451,#451,#379,.T.);
#555=EDGE_CURVE('',#451,#438,#269,.T.);
#556=EDGE_CURVE('',#452,#452,#380,.T.);
#557=EDGE_CURVE('',#452,#437,#270,.T.);
#558=EDGE_CURVE('',#453,#453,#381,.T.);
#559=EDGE_CURVE('',#453,#436,#271,.T.);
#560=EDGE_CURVE('',#449,#443,#272,.T.);
#561=EDGE_CURVE('',#422,#447,#273,.T.);
#562=ORIENTED_EDGE('',*,*,#454,.F.);
#563=ORIENTED_EDGE('',*,*,#455,.T.);
#564=ORIENTED_EDGE('',*,*,#456,.T.);
#565=ORIENTED_EDGE('',*,*,#455,.F.);
#566=ORIENTED_EDGE('',*,*,#457,.F.);
#567=ORIENTED_EDGE('',*,*,#458,.T.);
#568=ORIENTED_EDGE('',*,*,#459,.T.);
#569=ORIENTED_EDGE('',*,*,#458,.F.);
#570=ORIENTED_EDGE('',*,*,#457,.T.);
#571=ORIENTED_EDGE('',*,*,#460,.F.);
#572=ORIENTED_EDGE('',*,*,#461,.T.);
#573=ORIENTED_EDGE('',*,*,#462,.T.);
#574=ORIENTED_EDGE('',*,*,#461,.F.);
#575=ORIENTED_EDGE('',*,*,#463,.F.);
#576=ORIENTED_EDGE('',*,*,#464,.T.);
#577=ORIENTED_EDGE('',*,*,#465,.T.);
#578=ORIENTED_EDGE('',*,*,#464,.F.);
#579=ORIENTED_EDGE('',*,*,#466,.F.);
#580=ORIENTED_EDGE('',*,*,#467,.T.);
#581=ORIENTED_EDGE('',*,*,#468,.F.);
#582=ORIENTED_EDGE('',*,*,#468,.T.);
#583=ORIENTED_EDGE('',*,*,#469,.T.);
#584=ORIENTED_EDGE('',*,*,#470,.T.);
#585=ORIENTED_EDGE('',*,*,#469,.F.);
#586=ORIENTED_EDGE('',*,*,#471,.F.);
#587=ORIENTED_EDGE('',*,*,#472,.T.);
#588=ORIENTED_EDGE('',*,*,#473,.T.);
#589=ORIENTED_EDGE('',*,*,#472,.F.);
#590=ORIENTED_EDGE('',*,*,#474,.F.);
#591=ORIENTED_EDGE('',*,*,#475,.T.);
#592=ORIENTED_EDGE('',*,*,#476,.T.);
#593=ORIENTED_EDGE('',*,*,#475,.F.);
#594=ORIENTED_EDGE('',*,*,#474,.T.);
#595=ORIENTED_EDGE('',*,*,#477,.F.);
#596=ORIENTED_EDGE('',*,*,#478,.T.);
#597=ORIENTED_EDGE('',*,*,#479,.T.);
#598=ORIENTED_EDGE('',*,*,#478,.F.);
#599=ORIENTED_EDGE('',*,*,#477,.T.);
#600=ORIENTED_EDGE('',*,*,#480,.T.);
#601=ORIENTED_EDGE('',*,*,#481,.T.);
#602=ORIENTED_EDGE('',*,*,#471,.T.);
#603=ORIENTED_EDGE('',*,*,#460,.T.);
#604=ORIENTED_EDGE('',*,*,#482,.T.);
#605=ORIENTED_EDGE('',*,*,#483,.T.);
#606=ORIENTED_EDGE('',*,*,#484,.T.);
#607=ORIENTED_EDGE('',*,*,#454,.T.);
#608=ORIENTED_EDGE('',*,*,#485,.T.);
#609=ORIENTED_EDGE('',*,*,#486,.T.);
#610=ORIENTED_EDGE('',*,*,#463,.T.);
#611=ORIENTED_EDGE('',*,*,#487,.T.);
#612=ORIENTED_EDGE('',*,*,#488,.T.);
#613=ORIENTED_EDGE('',*,*,#489,.T.);
#614=ORIENTED_EDGE('',*,*,#480,.F.);
#615=ORIENTED_EDGE('',*,*,#490,.T.);
#616=ORIENTED_EDGE('',*,*,#491,.T.);
#617=ORIENTED_EDGE('',*,*,#490,.F.);
#618=ORIENTED_EDGE('',*,*,#481,.F.);
#619=ORIENTED_EDGE('',*,*,#492,.T.);
#620=ORIENTED_EDGE('',*,*,#493,.T.);
#621=ORIENTED_EDGE('',*,*,#492,.F.);
#622=ORIENTED_EDGE('',*,*,#482,.F.);
#623=ORIENTED_EDGE('',*,*,#494,.T.);
#624=ORIENTED_EDGE('',*,*,#495,.T.);
#625=ORIENTED_EDGE('',*,*,#494,.F.);
#626=ORIENTED_EDGE('',*,*,#483,.F.);
#627=ORIENTED_EDGE('',*,*,#496,.T.);
#628=ORIENTED_EDGE('',*,*,#497,.T.);
#629=ORIENTED_EDGE('',*,*,#496,.F.);
#630=ORIENTED_EDGE('',*,*,#484,.F.);
#631=ORIENTED_EDGE('',*,*,#498,.T.);
#632=ORIENTED_EDGE('',*,*,#499,.T.);
#633=ORIENTED_EDGE('',*,*,#498,.F.);
#634=ORIENTED_EDGE('',*,*,#485,.F.);
#635=ORIENTED_EDGE('',*,*,#500,.T.);
#636=ORIENTED_EDGE('',*,*,#501,.T.);
#637=ORIENTED_EDGE('',*,*,#500,.F.);
#638=ORIENTED_EDGE('',*,*,#486,.F.);
#639=ORIENTED_EDGE('',*,*,#502,.T.);
#640=ORIENTED_EDGE('',*,*,#503,.T.);
#641=ORIENTED_EDGE('',*,*,#502,.F.);
#642=ORIENTED_EDGE('',*,*,#487,.F.);
#643=ORIENTED_EDGE('',*,*,#504,.T.);
#644=ORIENTED_EDGE('',*,*,#505,.T.);
#645=ORIENTED_EDGE('',*,*,#504,.F.);
#646=ORIENTED_EDGE('',*,*,#488,.F.);
#647=ORIENTED_EDGE('',*,*,#506,.T.);
#648=ORIENTED_EDGE('',*,*,#507,.T.);
#649=ORIENTED_EDGE('',*,*,#506,.F.);
#650=ORIENTED_EDGE('',*,*,#489,.F.);
#651=ORIENTED_EDGE('',*,*,#508,.T.);
#652=ORIENTED_EDGE('',*,*,#509,.T.);
#653=ORIENTED_EDGE('',*,*,#508,.F.);
#654=ORIENTED_EDGE('',*,*,#510,.F.);
#655=ORIENTED_EDGE('',*,*,#509,.F.);
#656=ORIENTED_EDGE('',*,*,#507,.F.);
#657=ORIENTED_EDGE('',*,*,#476,.F.);
#658=ORIENTED_EDGE('',*,*,#470,.F.);
#659=ORIENTED_EDGE('',*,*,#505,.F.);
#660=ORIENTED_EDGE('',*,*,#465,.F.);
#661=ORIENTED_EDGE('',*,*,#503,.F.);
#662=ORIENTED_EDGE('',*,*,#501,.F.);
#663=ORIENTED_EDGE('',*,*,#456,.F.);
#664=ORIENTED_EDGE('',*,*,#499,.F.);
#665=ORIENTED_EDGE('',*,*,#459,.F.);
#666=ORIENTED_EDGE('',*,*,#497,.F.);
#667=ORIENTED_EDGE('',*,*,#495,.F.);
#668=ORIENTED_EDGE('',*,*,#462,.F.);
#669=ORIENTED_EDGE('',*,*,#473,.F.);
#670=ORIENTED_EDGE('',*,*,#479,.F.);
#671=ORIENTED_EDGE('',*,*,#493,.F.);
#672=ORIENTED_EDGE('',*,*,#491,.F.);
#673=ORIENTED_EDGE('',*,*,#511,.T.);
#674=ORIENTED_EDGE('',*,*,#510,.T.);
#675=ORIENTED_EDGE('',*,*,#512,.T.);
#676=ORIENTED_EDGE('',*,*,#466,.T.);
#677=ORIENTED_EDGE('',*,*,#512,.F.);
#678=ORIENTED_EDGE('',*,*,#511,.F.);
#679=ORIENTED_EDGE('',*,*,#513,.T.);
#680=ORIENTED_EDGE('',*,*,#467,.F.);
#681=ORIENTED_EDGE('',*,*,#513,.F.);
#682=ORIENTED_EDGE('',*,*,#514,.T.);
#683=ORIENTED_EDGE('',*,*,#515,.T.);
#684=ORIENTED_EDGE('',*,*,#516,.T.);
#685=ORIENTED_EDGE('',*,*,#517,.T.);
#686=ORIENTED_EDGE('',*,*,#516,.F.);
#687=ORIENTED_EDGE('',*,*,#518,.F.);
#688=ORIENTED_EDGE('',*,*,#519,.F.);
#689=ORIENTED_EDGE('',*,*,#520,.F.);
#690=ORIENTED_EDGE('',*,*,#521,.F.);
#691=ORIENTED_EDGE('',*,*,#522,.T.);
#692=ORIENTED_EDGE('',*,*,#523,.F.);
#693=ORIENTED_EDGE('',*,*,#524,.T.);
#694=ORIENTED_EDGE('',*,*,#525,.F.);
#695=ORIENTED_EDGE('',*,*,#526,.F.);
#696=ORIENTED_EDGE('',*,*,#527,.F.);
#697=ORIENTED_EDGE('',*,*,#528,.F.);
#698=ORIENTED_EDGE('',*,*,#529,.F.);
#699=ORIENTED_EDGE('',*,*,#530,.F.);
#700=ORIENTED_EDGE('',*,*,#531,.F.);
#701=ORIENTED_EDGE('',*,*,#532,.F.);
#702=ORIENTED_EDGE('',*,*,#515,.F.);
#703=ORIENTED_EDGE('',*,*,#533,.F.);
#704=ORIENTED_EDGE('',*,*,#534,.F.);
#705=ORIENTED_EDGE('',*,*,#518,.T.);
#706=ORIENTED_EDGE('',*,*,#535,.T.);
#707=ORIENTED_EDGE('',*,*,#536,.T.);
#708=ORIENTED_EDGE('',*,*,#519,.T.);
#709=ORIENTED_EDGE('',*,*,#534,.T.);
#710=ORIENTED_EDGE('',*,*,#537,.T.);
#711=ORIENTED_EDGE('',*,*,#538,.T.);
#712=ORIENTED_EDGE('',*,*,#523,.T.);
#713=ORIENTED_EDGE('',*,*,#539,.T.);
#714=ORIENTED_EDGE('',*,*,#539,.F.);
#715=ORIENTED_EDGE('',*,*,#522,.F.);
#716=ORIENTED_EDGE('',*,*,#540,.F.);
#717=ORIENTED_EDGE('',*,*,#541,.F.);
#718=ORIENTED_EDGE('',*,*,#542,.T.);
#719=ORIENTED_EDGE('',*,*,#540,.T.);
#720=ORIENTED_EDGE('',*,*,#521,.T.);
#721=ORIENTED_EDGE('',*,*,#543,.T.);
#722=ORIENTED_EDGE('',*,*,#536,.F.);
#723=ORIENTED_EDGE('',*,*,#544,.F.);
#724=ORIENTED_EDGE('',*,*,#543,.F.);
#725=ORIENTED_EDGE('',*,*,#520,.T.);
#726=ORIENTED_EDGE('',*,*,#545,.T.);
#727=ORIENTED_EDGE('',*,*,#546,.T.);
#728=ORIENTED_EDGE('',*,*,#527,.T.);
#729=ORIENTED_EDGE('',*,*,#547,.T.);
#730=ORIENTED_EDGE('',*,*,#547,.F.);
#731=ORIENTED_EDGE('',*,*,#526,.T.);
#732=ORIENTED_EDGE('',*,*,#548,.F.);
#733=ORIENTED_EDGE('',*,*,#549,.F.);
#734=ORIENTED_EDGE('',*,*,#550,.T.);
#735=ORIENTED_EDGE('',*,*,#548,.T.);
#736=ORIENTED_EDGE('',*,*,#525,.T.);
#737=ORIENTED_EDGE('',*,*,#551,.T.);
#738=ORIENTED_EDGE('',*,*,#552,.F.);
#739=ORIENTED_EDGE('',*,*,#553,.T.);
#740=ORIENTED_EDGE('',*,*,#532,.T.);
#741=ORIENTED_EDGE('',*,*,#553,.F.);
#742=ORIENTED_EDGE('',*,*,#554,.F.);
#743=ORIENTED_EDGE('',*,*,#555,.T.);
#744=ORIENTED_EDGE('',*,*,#531,.T.);
#745=ORIENTED_EDGE('',*,*,#555,.F.);
#746=ORIENTED_EDGE('',*,*,#556,.F.);
#747=ORIENTED_EDGE('',*,*,#557,.T.);
#748=ORIENTED_EDGE('',*,*,#530,.T.);
#749=ORIENTED_EDGE('',*,*,#557,.F.);
#750=ORIENTED_EDGE('',*,*,#558,.F.);
#751=ORIENTED_EDGE('',*,*,#559,.T.);
#752=ORIENTED_EDGE('',*,*,#529,.T.);
#753=ORIENTED_EDGE('',*,*,#559,.F.);
#754=ORIENTED_EDGE('',*,*,#538,.F.);
#755=ORIENTED_EDGE('',*,*,#560,.F.);
#756=ORIENTED_EDGE('',*,*,#551,.F.);
#757=ORIENTED_EDGE('',*,*,#524,.F.);
#758=ORIENTED_EDGE('',*,*,#517,.F.);
#759=ORIENTED_EDGE('',*,*,#528,.T.);
#760=ORIENTED_EDGE('',*,*,#546,.F.);
#761=ORIENTED_EDGE('',*,*,#561,.F.);
#762=ORIENTED_EDGE('',*,*,#514,.F.);
#763=ORIENTED_EDGE('',*,*,#561,.T.);
#764=ORIENTED_EDGE('',*,*,#545,.F.);
#765=ORIENTED_EDGE('',*,*,#549,.T.);
#766=ORIENTED_EDGE('',*,*,#550,.F.);
#767=ORIENTED_EDGE('',*,*,#560,.T.);
#768=ORIENTED_EDGE('',*,*,#537,.F.);
#769=ORIENTED_EDGE('',*,*,#541,.T.);
#770=ORIENTED_EDGE('',*,*,#542,.F.);
#771=ORIENTED_EDGE('',*,*,#544,.T.);
#772=ORIENTED_EDGE('',*,*,#535,.F.);
#773=ORIENTED_EDGE('',*,*,#533,.T.);
#774=ORIENTED_EDGE('',*,*,#558,.T.);
#775=ORIENTED_EDGE('',*,*,#556,.T.);
#776=ORIENTED_EDGE('',*,*,#554,.T.);
#777=ORIENTED_EDGE('',*,*,#552,.T.);
#778=CYLINDRICAL_SURFACE('',#892,2.);
#779=CYLINDRICAL_SURFACE('',#895,2.);
#780=CYLINDRICAL_SURFACE('',#899,2.);
#781=CYLINDRICAL_SURFACE('',#902,2.);
#782=CYLINDRICAL_SURFACE('',#909,2.);
#783=CYLINDRICAL_SURFACE('',#911,2.);
#784=CYLINDRICAL_SURFACE('',#914,2.);
#785=CYLINDRICAL_SURFACE('',#918,2.);
#786=CYLINDRICAL_SURFACE('',#946,1.5875);
#787=CYLINDRICAL_SURFACE('',#948,1.5875);
#788=CYLINDRICAL_SURFACE('',#950,1.5875);
#789=CYLINDRICAL_SURFACE('',#952,1.5875);
#790=CYLINDRICAL_SURFACE('',#954,1.5875);
#791=CYLINDRICAL_SURFACE('',#956,1.5875);
#792=CYLINDRICAL_SURFACE('',#958,1.5875);
#793=CYLINDRICAL_SURFACE('',#960,1.5875);
#794=CYLINDRICAL_SURFACE('',#962,1.5875);
#795=CYLINDRICAL_SURFACE('',#964,1.5875);
#796=CYLINDRICAL_SURFACE('',#969,44.96825);
#797=CYLINDRICAL_SURFACE('',#970,26.5);
#798=CYLINDRICAL_SURFACE('',#972,2.);
#799=CYLINDRICAL_SURFACE('',#986,2.);
#800=CYLINDRICAL_SURFACE('',#988,2.);
#801=CYLINDRICAL_SURFACE('',#991,2.);
#802=CYLINDRICAL_SURFACE('',#994,2.);
#803=CYLINDRICAL_SURFACE('',#997,2.);
#804=CYLINDRICAL_SURFACE('',#999,1.1);
#805=CYLINDRICAL_SURFACE('',#1001,1.1);
#806=CYLINDRICAL_SURFACE('',#1003,2.);
#807=CYLINDRICAL_SURFACE('',#1005,1.1);
#808=ADVANCED_FACE('',(#83),#778,.F.);
#809=ADVANCED_FACE('',(#84),#779,.F.);
#810=ADVANCED_FACE('',(#85),#56,.T.);
#811=ADVANCED_FACE('',(#86),#780,.F.);
#812=ADVANCED_FACE('',(#87),#781,.F.);
#813=ADVANCED_FACE('',(#88,#27,#28),#57,.T.);
#814=ADVANCED_FACE('',(#89),#782,.F.);
#815=ADVANCED_FACE('',(#90),#783,.F.);
#816=ADVANCED_FACE('',(#91),#784,.F.);
#817=ADVANCED_FACE('',(#92),#58,.T.);
#818=ADVANCED_FACE('',(#93),#785,.F.);
#819=ADVANCED_FACE('',(#94),#59,.T.);
#820=ADVANCED_FACE('',(#95),#60,.T.);
#821=ADVANCED_FACE('',(#96),#61,.T.);
#822=ADVANCED_FACE('',(#97),#62,.T.);
#823=ADVANCED_FACE('',(#98),#63,.T.);
#824=ADVANCED_FACE('',(#99),#64,.T.);
#825=ADVANCED_FACE('',(#100),#65,.T.);
#826=ADVANCED_FACE('',(#101),#66,.T.);
#827=ADVANCED_FACE('',(#102),#67,.T.);
#828=ADVANCED_FACE('',(#103),#68,.T.);
#829=ADVANCED_FACE('',(#104),#69,.T.);
#830=ADVANCED_FACE('',(#105),#70,.T.);
#831=ADVANCED_FACE('',(#106),#71,.T.);
#832=ADVANCED_FACE('',(#107),#72,.T.);
#833=ADVANCED_FACE('',(#108),#73,.T.);
#834=ADVANCED_FACE('',(#109),#786,.F.);
#835=ADVANCED_FACE('',(#110),#787,.F.);
#836=ADVANCED_FACE('',(#111),#788,.F.);
#837=ADVANCED_FACE('',(#112),#789,.F.);
#838=ADVANCED_FACE('',(#113),#790,.F.);
#839=ADVANCED_FACE('',(#114),#791,.F.);
#840=ADVANCED_FACE('',(#115),#792,.F.);
#841=ADVANCED_FACE('',(#116),#793,.F.);
#842=ADVANCED_FACE('',(#117),#794,.F.);
#843=ADVANCED_FACE('',(#118),#795,.F.);
#844=ADVANCED_FACE('',(#119,#29,#30,#31,#32,#33,#34,#35,#36,#37,#38,#39,
#40,#41,#42,#43,#44,#45,#46,#47),#74,.T.);
#845=ADVANCED_FACE('',(#120),#796,.T.);
#846=ADVANCED_FACE('',(#121),#797,.F.);
#847=ADVANCED_FACE('',(#122),#798,.T.);
#848=ADVANCED_FACE('',(#123,#48,#49,#50,#51),#75,.F.);
#849=ADVANCED_FACE('',(#124),#76,.T.);
#850=ADVANCED_FACE('',(#125),#799,.T.);
#851=ADVANCED_FACE('',(#126),#800,.T.);
#852=ADVANCED_FACE('',(#127),#77,.T.);
#853=ADVANCED_FACE('',(#128),#801,.T.);
#854=ADVANCED_FACE('',(#129),#78,.T.);
#855=ADVANCED_FACE('',(#130),#802,.T.);
#856=ADVANCED_FACE('',(#131),#79,.T.);
#857=ADVANCED_FACE('',(#132),#803,.T.);
#858=ADVANCED_FACE('',(#133),#804,.F.);
#859=ADVANCED_FACE('',(#134),#805,.F.);
#860=ADVANCED_FACE('',(#135),#806,.F.);
#861=ADVANCED_FACE('',(#136),#807,.F.);
#862=ADVANCED_FACE('',(#137),#80,.T.);
#863=ADVANCED_FACE('',(#138),#81,.T.);
#864=ADVANCED_FACE('',(#139,#52,#53,#54,#55),#82,.T.);
#865=CLOSED_SHELL('',(#808,#809,#810,#811,#812,#813,#814,#815,#816,#817,
#818,#819,#820,#821,#822,#823,#824,#825,#826,#827,#828,#829,#830,#831,#832,
#833,#834,#835,#836,#837,#838,#839,#840,#841,#842,#843,#844,#845,#846));
#866=CLOSED_SHELL('',(#847,#848,#849,#850,#851,#852,#853,#854,#855,#856,
#857,#858,#859,#860,#861,#862,#863,#864));
#867=DERIVED_UNIT_ELEMENT(#871,1.);
#868=DERIVED_UNIT_ELEMENT(#1555,-3.);
#869=DERIVED_UNIT_ELEMENT(#871,1.);
#870=DERIVED_UNIT_ELEMENT(#1555,-3.);
#871=(
MASS_UNIT()
NAMED_UNIT(*)
SI_UNIT(.KILO.,.GRAM.)
);
#872=DERIVED_UNIT((#867,#868));
#873=DERIVED_UNIT((#869,#870));
#874=MEASURE_REPRESENTATION_ITEM('density measure',
POSITIVE_RATIO_MEASURE(7850.),#872);
#875=MEASURE_REPRESENTATION_ITEM('density measure',
POSITIVE_RATIO_MEASURE(19300.),#873);
#876=PROPERTY_DEFINITION_REPRESENTATION(#886,#880);
#877=PROPERTY_DEFINITION_REPRESENTATION(#887,#881);
#878=PROPERTY_DEFINITION_REPRESENTATION(#888,#882);
#879=PROPERTY_DEFINITION_REPRESENTATION(#889,#883);
#880=REPRESENTATION('material name',(#884),#1551);
#881=REPRESENTATION('density',(#874),#1551);
#882=REPRESENTATION('material name',(#885),#1552);
#883=REPRESENTATION('density',(#875),#1552);
#884=DESCRIPTIVE_REPRESENTATION_ITEM('Steel','Steel');
#885=DESCRIPTIVE_REPRESENTATION_ITEM('Gold','Gold');
#886=PROPERTY_DEFINITION('material property','material name',#1571);
#887=PROPERTY_DEFINITION('material property','density of part',#1571);
#888=PROPERTY_DEFINITION('material property','material name',#1572);
#889=PROPERTY_DEFINITION('material property','density of part',#1572);
#890=AXIS2_PLACEMENT_3D('',#1304,#1012,#1013);
#891=AXIS2_PLACEMENT_3D('',#1305,#1014,#1015);
#892=AXIS2_PLACEMENT_3D('',#1306,#1016,#1017);
#893=AXIS2_PLACEMENT_3D('',#1308,#1018,#1019);
#894=AXIS2_PLACEMENT_3D('',#1311,#1021,#1022);
#895=AXIS2_PLACEMENT_3D('',#1312,#1023,#1024);
#896=AXIS2_PLACEMENT_3D('',#1314,#1025,#1026);
#897=AXIS2_PLACEMENT_3D('',#1317,#1028,#1029);
#898=AXIS2_PLACEMENT_3D('',#1318,#1030,#1031);
#899=AXIS2_PLACEMENT_3D('',#1319,#1032,#1033);
#900=AXIS2_PLACEMENT_3D('',#1321,#1034,#1035);
#901=AXIS2_PLACEMENT_3D('',#1324,#1037,#1038);
#902=AXIS2_PLACEMENT_3D('',#1325,#1039,#1040);
#903=AXIS2_PLACEMENT_3D('',#1327,#1041,#1042);
#904=AXIS2_PLACEMENT_3D('',#1330,#1044,#1045);
#905=AXIS2_PLACEMENT_3D('',#1331,#1046,#1047);
#906=AXIS2_PLACEMENT_3D('',#1333,#1048,#1049);
#907=AXIS2_PLACEMENT_3D('',#1335,#1050,#1051);
#908=AXIS2_PLACEMENT_3D('',#1337,#1052,#1053);
#909=AXIS2_PLACEMENT_3D('',#1338,#1054,#1055);
#910=AXIS2_PLACEMENT_3D('',#1341,#1057,#1058);
#911=AXIS2_PLACEMENT_3D('',#1342,#1059,#1060);
#912=AXIS2_PLACEMENT_3D('',#1344,#1061,#1062);
#913=AXIS2_PLACEMENT_3D('',#1347,#1064,#1065);
#914=AXIS2_PLACEMENT_3D('',#1348,#1066,#1067);
#915=AXIS2_PLACEMENT_3D('',#1350,#1068,#1069);
#916=AXIS2_PLACEMENT_3D('',#1353,#1071,#1072);
#917=AXIS2_PLACEMENT_3D('',#1354,#1073,#1074);
#918=AXIS2_PLACEMENT_3D('',#1355,#1075,#1076);
#919=AXIS2_PLACEMENT_3D('',#1357,#1077,#1078);
#920=AXIS2_PLACEMENT_3D('',#1360,#1080,#1081);
#921=AXIS2_PLACEMENT_3D('',#1361,#1082,#1083);
#922=AXIS2_PLACEMENT_3D('',#1362,#1084,#1085);
#923=AXIS2_PLACEMENT_3D('',#1364,#1086,#1087);
#924=AXIS2_PLACEMENT_3D('',#1365,#1088,#1089);
#925=AXIS2_PLACEMENT_3D('',#1367,#1090,#1091);
#926=AXIS2_PLACEMENT_3D('',#1368,#1092,#1093);
#927=AXIS2_PLACEMENT_3D('',#1369,#1094,#1095);
#928=AXIS2_PLACEMENT_3D('',#1370,#1096,#1097);
#929=AXIS2_PLACEMENT_3D('',#1372,#1098,#1099);
#930=AXIS2_PLACEMENT_3D('',#1373,#1100,#1101);
#931=AXIS2_PLACEMENT_3D('',#1375,#1102,#1103);
#932=AXIS2_PLACEMENT_3D('',#1376,#1104,#1105);
#933=AXIS2_PLACEMENT_3D('',#1378,#1106,#1107);
#934=AXIS2_PLACEMENT_3D('',#1379,#1108,#1109);
#935=AXIS2_PLACEMENT_3D('',#1380,#1110,#1111);
#936=AXIS2_PLACEMENT_3D('',#1382,#1112,#1113);
#937=AXIS2_PLACEMENT_3D('',#1383,#1114,#1115);
#938=AXIS2_PLACEMENT_3D('',#1385,#1116,#1117);
#939=AXIS2_PLACEMENT_3D('',#1386,#1118,#1119);
#940=AXIS2_PLACEMENT_3D('',#1387,#1120,#1121);
#941=AXIS2_PLACEMENT_3D('',#1389,#1122,#1123);
#942=AXIS2_PLACEMENT_3D('',#1390,#1124,#1125);
#943=AXIS2_PLACEMENT_3D('',#1392,#1126,#1127);
#944=AXIS2_PLACEMENT_3D('',#1393,#1128,#1129);
#945=AXIS2_PLACEMENT_3D('',#1395,#1130,#1131);
#946=AXIS2_PLACEMENT_3D('',#1396,#1132,#1133);
#947=AXIS2_PLACEMENT_3D('',#1399,#1135,#1136);
#948=AXIS2_PLACEMENT_3D('',#1400,#1137,#1138);
#949=AXIS2_PLACEMENT_3D('',#1403,#1140,#1141);
#950=AXIS2_PLACEMENT_3D('',#1404,#1142,#1143);
#951=AXIS2_PLACEMENT_3D('',#1407,#1145,#1146);
#952=AXIS2_PLACEMENT_3D('',#1408,#1147,#1148);
#953=AXIS2_PLACEMENT_3D('',#1411,#1150,#1151);
#954=AXIS2_PLACEMENT_3D('',#1412,#1152,#1153);
#955=AXIS2_PLACEMENT_3D('',#1415,#1155,#1156);
#956=AXIS2_PLACEMENT_3D('',#1416,#1157,#1158);
#957=AXIS2_PLACEMENT_3D('',#1419,#1160,#1161);
#958=AXIS2_PLACEMENT_3D('',#1420,#1162,#1163);
#959=AXIS2_PLACEMENT_3D('',#1423,#1165,#1166);
#960=AXIS2_PLACEMENT_3D('',#1424,#1167,#1168);
#961=AXIS2_PLACEMENT_3D('',#1427,#1170,#1171);
#962=AXIS2_PLACEMENT_3D('',#1428,#1172,#1173);
#963=AXIS2_PLACEMENT_3D('',#1431,#1175,#1176);
#964=AXIS2_PLACEMENT_3D('',#1432,#1177,#1178);
#965=AXIS2_PLACEMENT_3D('',#1435,#1180,#1181);
#966=AXIS2_PLACEMENT_3D('',#1436,#1182,#1183);
#967=AXIS2_PLACEMENT_3D('',#1438,#1184,#1185);
#968=AXIS2_PLACEMENT_3D('',#1440,#1186,#1187);
#969=AXIS2_PLACEMENT_3D('',#1441,#1188,#1189);
#970=AXIS2_PLACEMENT_3D('',#1443,#1191,#1192);
#971=AXIS2_PLACEMENT_3D('',#1445,#1194,#1195);
#972=AXIS2_PLACEMENT_3D('',#1446,#1196,#1197);
#973=AXIS2_PLACEMENT_3D('',#1449,#1198,#1199);
#974=AXIS2_PLACEMENT_3D('',#1453,#1201,#1202);
#975=AXIS2_PLACEMENT_3D('',#1455,#1204,#1205);
#976=AXIS2_PLACEMENT_3D('',#1459,#1207,#1208);
#977=AXIS2_PLACEMENT_3D('',#1463,#1210,#1211);
#978=AXIS2_PLACEMENT_3D('',#1467,#1213,#1214);
#979=AXIS2_PLACEMENT_3D('',#1471,#1216,#1217);
#980=AXIS2_PLACEMENT_3D('',#1475,#1219,#1220);
#981=AXIS2_PLACEMENT_3D('',#1478,#1222,#1223);
#982=AXIS2_PLACEMENT_3D('',#1480,#1224,#1225);
#983=AXIS2_PLACEMENT_3D('',#1482,#1226,#1227);
#984=AXIS2_PLACEMENT_3D('',#1484,#1228,#1229);
#985=AXIS2_PLACEMENT_3D('',#1485,#1230,#1231);
#986=AXIS2_PLACEMENT_3D('',#1489,#1234,#1235);
#987=AXIS2_PLACEMENT_3D('',#1491,#1236,#1237);
#988=AXIS2_PLACEMENT_3D('',#1493,#1239,#1240);
#989=AXIS2_PLACEMENT_3D('',#1496,#1241,#1242);
#990=AXIS2_PLACEMENT_3D('',#1499,#1245,#1246);
#991=AXIS2_PLACEMENT_3D('',#1503,#1249,#1250);
#992=AXIS2_PLACEMENT_3D('',#1505,#1251,#1252);
#993=AXIS2_PLACEMENT_3D('',#1507,#1254,#1255);
#994=AXIS2_PLACEMENT_3D('',#1509,#1257,#1258);
#995=AXIS2_PLACEMENT_3D('',#1512,#1259,#1260);
#996=AXIS2_PLACEMENT_3D('',#1515,#1263,#1264);
#997=AXIS2_PLACEMENT_3D('',#1519,#1267,#1268);
#998=AXIS2_PLACEMENT_3D('',#1521,#1269,#1270);
#999=AXIS2_PLACEMENT_3D('',#1523,#1272,#1273);
#1000=AXIS2_PLACEMENT_3D('',#1525,#1274,#1275);
#1001=AXIS2_PLACEMENT_3D('',#1527,#1277,#1278);
#1002=AXIS2_PLACEMENT_3D('',#1529,#1279,#1280);
#1003=AXIS2_PLACEMENT_3D('',#1531,#1282,#1283);
#1004=AXIS2_PLACEMENT_3D('',#1533,#1284,#1285);
#1005=AXIS2_PLACEMENT_3D('',#1535,#1287,#1288);
#1006=AXIS2_PLACEMENT_3D('',#1537,#1289,#1290);
#1007=AXIS2_PLACEMENT_3D('',#1539,#1292,#1293);
#1008=AXIS2_PLACEMENT_3D('',#1541,#1295,#1296);
#1009=AXIS2_PLACEMENT_3D('',#1543,#1298,#1299);
#1010=AXIS2_PLACEMENT_3D('',#1544,#1300,#1301);
#1011=AXIS2_PLACEMENT_3D('',#1545,#1302,#1303);
#1012=DIRECTION('axis',(0.,0.,1.));
#1013=DIRECTION('refdir',(1.,0.,0.));
#1014=DIRECTION('axis',(0.,0.,1.));
#1015=DIRECTION('refdir',(1.,0.,0.));
#1016=DIRECTION('center_axis',(0.,1.,-6.21103790000086E-16));
#1017=DIRECTION('ref_axis',(1.,0.,0.));
#1018=DIRECTION('center_axis',(0.,1.,-4.93780845207522E-16));
#1019=DIRECTION('ref_axis',(1.,0.,0.));
#1020=DIRECTION('',(0.,1.,-6.21103790000086E-16));
#1021=DIRECTION('center_axis',(0.,1.,-4.45947323698808E-16));
#1022=DIRECTION('ref_axis',(1.,0.,0.));
#1023=DIRECTION('center_axis',(0.,1.,-6.21103790000086E-16));
#1024=DIRECTION('ref_axis',(1.,0.,0.));
#1025=DIRECTION('center_axis',(0.,1.,-4.93780845207522E-16));
#1026=DIRECTION('ref_axis',(1.,0.,0.));
#1027=DIRECTION('',(0.,1.,-6.21103790000086E-16));
#1028=DIRECTION('center_axis',(0.,1.,-4.45947323698808E-16));
#1029=DIRECTION('ref_axis',(1.,0.,0.));
#1030=DIRECTION('center_axis',(0.,1.,-4.93780845207522E-16));
#1031=DIRECTION('ref_axis',(0.,4.93780845207522E-16,1.));
#1032=DIRECTION('center_axis',(0.,1.,-6.21103790000086E-16));
#1033=DIRECTION('ref_axis',(1.,0.,0.));
#1034=DIRECTION('center_axis',(0.,1.,-4.93780845207522E-16));
#1035=DIRECTION('ref_axis',(1.,0.,0.));
#1036=DIRECTION('',(0.,1.,-6.21103790000086E-16));
#1037=DIRECTION('center_axis',(0.,1.,-4.45947323698808E-16));
#1038=DIRECTION('ref_axis',(1.,0.,0.));
#1039=DIRECTION('center_axis',(0.,1.,-6.21103790000086E-16));
#1040=DIRECTION('ref_axis',(1.,0.,0.));
#1041=DIRECTION('center_axis',(0.,1.,-4.93780845207522E-16));
#1042=DIRECTION('ref_axis',(1.,0.,0.));
#1043=DIRECTION('',(0.,1.,-6.21103790000086E-16));
#1044=DIRECTION('center_axis',(0.,1.,-4.45947323698808E-16));
#1045=DIRECTION('ref_axis',(1.,0.,0.));
#1046=DIRECTION('center_axis',(4.47447557100191E-31,-1.,4.93780845207522E-16));
#1047=DIRECTION('ref_axis',(3.50324616081204E-46,-4.93780845207522E-16,
-1.));
#1048=DIRECTION('center_axis',(-4.47447557100191E-31,1.,-4.93780845207522E-16));
#1049=DIRECTION('ref_axis',(1.,4.47447557100191E-31,7.79048809062404E-47));
#1050=DIRECTION('center_axis',(-4.47447557100191E-31,1.,-4.93780845207522E-16));
#1051=DIRECTION('ref_axis',(-1.,-4.47447557100191E-31,-6.6098984166265E-47));
#1052=DIRECTION('center_axis',(4.47447557100191E-31,-1.,4.93780845207522E-16));
#1053=DIRECTION('ref_axis',(1.,4.47447557100191E-31,-2.20941032930973E-46));
#1054=DIRECTION('center_axis',(0.,1.,-6.21103790000086E-16));
#1055=DIRECTION('ref_axis',(1.,0.,0.));
#1056=DIRECTION('',(0.,1.,-6.21103790000086E-16));
#1057=DIRECTION('center_axis',(0.,1.,-4.45947323698808E-16));
#1058=DIRECTION('ref_axis',(1.,0.,0.));
#1059=DIRECTION('center_axis',(0.,1.,-6.21103790000086E-16));
#1060=DIRECTION('ref_axis',(1.,0.,0.));
#1061=DIRECTION('center_axis',(0.,1.,-4.93780845207522E-16));
#1062=DIRECTION('ref_axis',(1.,0.,0.));
#1063=DIRECTION('',(0.,1.,-6.21103790000086E-16));
#1064=DIRECTION('center_axis',(0.,1.,-4.45947323698808E-16));
#1065=DIRECTION('ref_axis',(1.,0.,0.));
#1066=DIRECTION('center_axis',(0.,1.,-6.21103790000086E-16));
#1067=DIRECTION('ref_axis',(1.,0.,0.));
#1068=DIRECTION('center_axis',(0.,1.,-4.93780845207522E-16));
#1069=DIRECTION('ref_axis',(1.,0.,0.));
#1070=DIRECTION('',(0.,1.,-6.21103790000086E-16));
#1071=DIRECTION('center_axis',(0.,1.,-4.45947323698808E-16));
#1072=DIRECTION('ref_axis',(1.,0.,0.));
#1073=DIRECTION('center_axis',(0.,1.,-4.93780845207522E-16));
#1074=DIRECTION('ref_axis',(0.,4.93780845207522E-16,1.));
#1075=DIRECTION('center_axis',(0.,1.,-6.21103790000086E-16));
#1076=DIRECTION('ref_axis',(1.,0.,0.));
#1077=DIRECTION('center_axis',(0.,1.,-4.93780845207522E-16));
#1078=DIRECTION('ref_axis',(1.,0.,0.));
#1079=DIRECTION('',(0.,1.,-6.21103790000086E-16));
#1080=DIRECTION('center_axis',(0.,1.,-4.45947323698808E-16));
#1081=DIRECTION('ref_axis',(1.,0.,0.));
#1082=DIRECTION('center_axis',(0.,1.,-4.93780845207522E-16));
#1083=DIRECTION('ref_axis',(0.,4.93780845207522E-16,1.));
#1084=DIRECTION('center_axis',(0.,1.,-4.93780845207522E-16));
#1085=DIRECTION('ref_axis',(0.,4.93780845207522E-16,1.));
#1086=DIRECTION('center_axis',(0.,1.,-4.93780845207522E-16));
#1087=DIRECTION('ref_axis',(1.,0.,0.));
#1088=DIRECTION('center_axis',(0.,1.,-4.93780845207522E-16));
#1089=DIRECTION('ref_axis',(0.,4.93780845207522E-16,1.));
#1090=DIRECTION('center_axis',(0.,1.,-4.93780845207522E-16));
#1091=DIRECTION('ref_axis',(1.,0.,0.));
#1092=DIRECTION('center_axis',(0.,1.,-4.93780845207522E-16));
#1093=DIRECTION('ref_axis',(0.,4.93780845207522E-16,1.));
#1094=DIRECTION('center_axis',(0.,1.,-4.93780845207522E-16));
#1095=DIRECTION('ref_axis',(0.,4.93780845207522E-16,1.));
#1096=DIRECTION('center_axis',(0.,1.,-4.93780845207522E-16));
#1097=DIRECTION('ref_axis',(0.,4.93780845207522E-16,1.));
#1098=DIRECTION('center_axis',(0.,1.,-4.93780845207522E-16));
#1099=DIRECTION('ref_axis',(1.,0.,0.));
#1100=DIRECTION('center_axis',(0.,1.,-4.93780845207522E-16));
#1101=DIRECTION('ref_axis',(0.,4.93780845207522E-16,1.));
#1102=DIRECTION('center_axis',(0.,1.,-4.93780845207522E-16));
#1103=DIRECTION('ref_axis',(1.,0.,0.));
#1104=DIRECTION('center_axis',(0.,1.,-4.93780845207522E-16));
#1105=DIRECTION('ref_axis',(0.,4.93780845207522E-16,1.));
#1106=DIRECTION('center_axis',(0.,1.,-4.93780845207522E-16));
#1107=DIRECTION('ref_axis',(1.,0.,0.));
#1108=DIRECTION('center_axis',(0.,1.,-4.93780845207522E-16));
#1109=DIRECTION('ref_axis',(0.,4.93780845207522E-16,1.));
#1110=DIRECTION('center_axis',(0.,1.,-4.93780845207522E-16));
#1111=DIRECTION('ref_axis',(0.,4.93780845207522E-16,1.));
#1112=DIRECTION('center_axis',(0.,1.,-4.93780845207522E-16));
#1113=DIRECTION('ref_axis',(1.,0.,0.));
#1114=DIRECTION('center_axis',(0.,1.,-4.93780845207522E-16));
#1115=DIRECTION('ref_axis',(0.,4.93780845207522E-16,1.));
#1116=DIRECTION('center_axis',(0.,1.,-4.93780845207522E-16));
#1117=DIRECTION('ref_axis',(1.,0.,0.));
#1118=DIRECTION('center_axis',(0.,1.,-4.93780845207522E-16));
#1119=DIRECTION('ref_axis',(0.,4.93780845207522E-16,1.));
#1120=DIRECTION('center_axis',(0.,1.,-4.93780845207522E-16));
#1121=DIRECTION('ref_axis',(0.,4.93780845207522E-16,1.));
#1122=DIRECTION('center_axis',(0.,1.,-4.93780845207522E-16));
#1123=DIRECTION('ref_axis',(1.,0.,0.));
#1124=DIRECTION('center_axis',(0.,1.,-4.93780845207522E-16));
#1125=DIRECTION('ref_axis',(0.,4.93780845207522E-16,1.));
#1126=DIRECTION('center_axis',(0.,1.,-4.93780845207522E-16));
#1127=DIRECTION('ref_axis',(1.,0.,0.));
#1128=DIRECTION('center_axis',(0.,1.,-4.93780845207522E-16));
#1129=DIRECTION('ref_axis',(0.,4.93780845207522E-16,1.));
#1130=DIRECTION('center_axis',(0.,1.,-4.93780845207522E-16));
#1131=DIRECTION('ref_axis',(1.,0.,0.));
#1132=DIRECTION('center_axis',(0.,1.,-6.21103790000086E-16));
#1133=DIRECTION('ref_axis',(1.,0.,0.));
#1134=DIRECTION('',(0.,1.,-6.21103790000086E-16));
#1135=DIRECTION('center_axis',(0.,1.,-4.45947323698808E-16));
#1136=DIRECTION('ref_axis',(1.,0.,0.));
#1137=DIRECTION('center_axis',(0.,1.,-6.21103790000086E-16));
#1138=DIRECTION('ref_axis',(1.,0.,0.));
#1139=DIRECTION('',(0.,1.,-6.21103790000086E-16));
#1140=DIRECTION('center_axis',(0.,1.,-4.45947323698808E-16));
#1141=DIRECTION('ref_axis',(1.,0.,0.));
#1142=DIRECTION('center_axis',(0.,1.,-6.21103790000086E-16));
#1143=DIRECTION('ref_axis',(1.,0.,0.));
#1144=DIRECTION('',(0.,1.,-6.21103790000086E-16));
#1145=DIRECTION('center_axis',(0.,1.,-4.45947323698808E-16));
#1146=DIRECTION('ref_axis',(1.,0.,0.));
#1147=DIRECTION('center_axis',(0.,1.,-6.21103790000086E-16));
#1148=DIRECTION('ref_axis',(1.,0.,0.));
#1149=DIRECTION('',(0.,1.,-6.21103790000086E-16));
#1150=DIRECTION('center_axis',(0.,1.,-4.45947323698808E-16));
#1151=DIRECTION('ref_axis',(1.,0.,0.));
#1152=DIRECTION('center_axis',(0.,1.,-6.21103790000086E-16));
#1153=DIRECTION('ref_axis',(1.,0.,0.));
#1154=DIRECTION('',(0.,1.,-6.21103790000086E-16));
#1155=DIRECTION('center_axis',(0.,1.,-4.45947323698808E-16));
#1156=DIRECTION('ref_axis',(1.,0.,0.));
#1157=DIRECTION('center_axis',(0.,1.,-6.21103790000086E-16));
#1158=DIRECTION('ref_axis',(1.,0.,0.));
#1159=DIRECTION('',(0.,1.,-6.21103790000086E-16));
#1160=DIRECTION('center_axis',(0.,1.,-4.45947323698808E-16));
#1161=DIRECTION('ref_axis',(1.,0.,0.));
#1162=DIRECTION('center_axis',(0.,1.,-6.21103790000086E-16));
#1163=DIRECTION('ref_axis',(1.,0.,0.));
#1164=DIRECTION('',(0.,1.,-6.21103790000086E-16));
#1165=DIRECTION('center_axis',(0.,1.,-4.45947323698808E-16));
#1166=DIRECTION('ref_axis',(1.,0.,0.));
#1167=DIRECTION('center_axis',(0.,1.,-6.21103790000086E-16));
#1168=DIRECTION('ref_axis',(1.,0.,0.));
#1169=DIRECTION('',(0.,1.,-6.21103790000086E-16));
#1170=DIRECTION('center_axis',(0.,1.,-4.45947323698808E-16));
#1171=DIRECTION('ref_axis',(1.,0.,0.));
#1172=DIRECTION('center_axis',(0.,1.,-6.21103790000086E-16));
#1173=DIRECTION('ref_axis',(1.,0.,0.));
#1174=DIRECTION('',(0.,1.,-6.21103790000086E-16));
#1175=DIRECTION('center_axis',(0.,1.,-4.45947323698808E-16));
#1176=DIRECTION('ref_axis',(1.,0.,0.));
#1177=DIRECTION('center_axis',(0.,1.,-6.21103790000086E-16));
#1178=DIRECTION('ref_axis',(1.,0.,0.));
#1179=DIRECTION('',(0.,1.,-6.21103790000086E-16));
#1180=DIRECTION('center_axis',(0.,1.,-4.45947323698808E-16));
#1181=DIRECTION('ref_axis',(1.,0.,0.));
#1182=DIRECTION('center_axis',(0.,1.,-4.45947323698808E-16));
#1183=DIRECTION('ref_axis',(-1.,0.,0.));
#1184=DIRECTION('center_axis',(0.,-1.,4.45947323698808E-16));
#1185=DIRECTION('ref_axis',(1.,0.,0.));
#1186=DIRECTION('center_axis',(0.,-1.,4.45947323698808E-16));
#1187=DIRECTION('ref_axis',(-1.,0.,0.));
#1188=DIRECTION('center_axis',(0.,1.,-4.93780845207522E-16));
#1189=DIRECTION('ref_axis',(0.,4.93780845207522E-16,1.));
#1190=DIRECTION('',(0.,-1.,4.93780845207522E-16));
#1191=DIRECTION('center_axis',(0.,-1.,4.45947323698808E-16));
#1192=DIRECTION('ref_axis',(-1.,0.,0.));
#1193=DIRECTION('',(0.,-1.,4.45947323698808E-16));
#1194=DIRECTION('axis',(0.,0.,1.));
#1195=DIRECTION('refdir',(1.,0.,0.));
#1196=DIRECTION('center_axis',(0.,1.,0.));
#1197=DIRECTION('ref_axis',(0.99144486137381,0.,0.130526192220052));
#1198=DIRECTION('center_axis',(0.,-1.,0.));
#1199=DIRECTION('ref_axis',(0.99144486137381,0.,0.130526192220052));
#1200=DIRECTION('',(0.,-1.,0.));
#1201=DIRECTION('center_axis',(0.,1.,0.));
#1202=DIRECTION('ref_axis',(0.99144486137381,0.,0.130526192220052));
#1203=DIRECTION('',(0.,1.,0.));
#1204=DIRECTION('center_axis',(0.,1.,0.));
#1205=DIRECTION('ref_axis',(1.,0.,0.));
#1206=DIRECTION('',(0.258819045102521,0.,-0.965925826289068));
#1207=DIRECTION('center_axis',(0.,1.,0.));
#1208=DIRECTION('ref_axis',(0.60876142900872,0.,0.793353340291235));
#1209=DIRECTION('',(1.,0.,0.));
#1210=DIRECTION('center_axis',(0.,1.,0.));
#1211=DIRECTION('ref_axis',(-0.60876142900872,0.,0.793353340291235));
#1212=DIRECTION('',(-0.258819045102522,0.,-0.965925826289068));
#1213=DIRECTION('center_axis',(0.,1.,0.));
#1214=DIRECTION('ref_axis',(-0.99144486137381,0.,0.130526192220052));
#1215=DIRECTION('',(6.34413156928661E-17,0.,-1.));
#1216=DIRECTION('center_axis',(0.,1.,0.));
#1217=DIRECTION('ref_axis',(-0.707106781186547,0.,-0.707106781186548));
#1218=DIRECTION('',(-1.,0.,0.));
#1219=DIRECTION('center_axis',(0.,1.,0.));
#1220=DIRECTION('ref_axis',(0.707106781186547,0.,-0.707106781186548));
#1221=DIRECTION('',(1.90323947078598E-16,0.,-1.));
#1222=DIRECTION('center_axis',(0.,-1.,0.));
#1223=DIRECTION('ref_axis',(1.,0.,0.));
#1224=DIRECTION('center_axis',(0.,-1.,0.));
#1225=DIRECTION('ref_axis',(1.,0.,0.));
#1226=DIRECTION('center_axis',(0.,-1.,0.));
#1227=DIRECTION('ref_axis',(1.,0.,0.));
#1228=DIRECTION('center_axis',(0.,-1.,0.));
#1229=DIRECTION('ref_axis',(1.,0.,0.));
#1230=DIRECTION('center_axis',(0.965925826289068,0.,0.258819045102521));
#1231=DIRECTION('ref_axis',(0.258819045102521,0.,-0.965925826289068));
#1232=DIRECTION('',(0.258819045102521,0.,-0.965925826289068));
#1233=DIRECTION('',(0.,1.,0.));
#1234=DIRECTION('center_axis',(0.,1.,0.));
#1235=DIRECTION('ref_axis',(0.60876142900872,0.,0.793353340291235));
#1236=DIRECTION('center_axis',(0.,-1.,0.));
#1237=DIRECTION('ref_axis',(0.60876142900872,0.,0.793353340291235));
#1238=DIRECTION('',(0.,-1.,0.));
#1239=DIRECTION('center_axis',(0.,1.,0.));
#1240=DIRECTION('ref_axis',(-0.99144486137381,0.,0.130526192220052));
#1241=DIRECTION('center_axis',(0.,-1.,0.));
#1242=DIRECTION('ref_axis',(-0.99144486137381,0.,0.130526192220052));
#1243=DIRECTION('',(0.,-1.,0.));
#1244=DIRECTION('',(0.,1.,0.));
#1245=DIRECTION('center_axis',(-0.965925826289068,0.,0.258819045102522));
#1246=DIRECTION('ref_axis',(0.258819045102522,0.,0.965925826289068));
#1247=DIRECTION('',(0.,-1.,0.));
#1248=DIRECTION('',(0.258819045102522,0.,0.965925826289068));
#1249=DIRECTION('center_axis',(0.,1.,0.));
#1250=DIRECTION('ref_axis',(-0.60876142900872,0.,0.793353340291235));
#1251=DIRECTION('center_axis',(0.,-1.,0.));
#1252=DIRECTION('ref_axis',(-0.60876142900872,0.,0.793353340291235));
#1253=DIRECTION('',(0.,1.,0.));
#1254=DIRECTION('center_axis',(0.,0.,1.));
#1255=DIRECTION('ref_axis',(1.,0.,0.));
#1256=DIRECTION('',(1.,0.,0.));
#1257=DIRECTION('center_axis',(0.,1.,0.));
#1258=DIRECTION('ref_axis',(0.707106781186547,0.,-0.707106781186548));
#1259=DIRECTION('center_axis',(0.,-1.,0.));
#1260=DIRECTION('ref_axis',(0.707106781186547,0.,-0.707106781186548));
#1261=DIRECTION('',(0.,-1.,0.));
#1262=DIRECTION('',(0.,1.,0.));
#1263=DIRECTION('center_axis',(0.,0.,-1.));
#1264=DIRECTION('ref_axis',(-1.,0.,0.));
#1265=DIRECTION('',(0.,-1.,0.));
#1266=DIRECTION('',(-1.,0.,0.));
#1267=DIRECTION('center_axis',(0.,1.,0.));
#1268=DIRECTION('ref_axis',(-0.707106781186547,0.,-0.707106781186548));
#1269=DIRECTION('center_axis',(0.,-1.,0.));
#1270=DIRECTION('ref_axis',(-0.707106781186547,0.,-0.707106781186548));
#1271=DIRECTION('',(0.,1.,0.));
#1272=DIRECTION('center_axis',(0.,1.,0.));
#1273=DIRECTION('ref_axis',(1.,0.,0.));
#1274=DIRECTION('center_axis',(0.,-1.,0.));
#1275=DIRECTION('ref_axis',(1.,0.,0.));
#1276=DIRECTION('',(0.,-1.,0.));
#1277=DIRECTION('center_axis',(0.,1.,0.));
#1278=DIRECTION('ref_axis',(1.,0.,0.));
#1279=DIRECTION('center_axis',(0.,-1.,0.));
#1280=DIRECTION('ref_axis',(1.,0.,0.));
#1281=DIRECTION('',(0.,-1.,0.));
#1282=DIRECTION('center_axis',(0.,1.,0.));
#1283=DIRECTION('ref_axis',(1.,0.,0.));
#1284=DIRECTION('center_axis',(0.,-1.,0.));
#1285=DIRECTION('ref_axis',(1.,0.,0.));
#1286=DIRECTION('',(0.,-1.,0.));
#1287=DIRECTION('center_axis',(0.,1.,0.));
#1288=DIRECTION('ref_axis',(1.,0.,0.));
#1289=DIRECTION('center_axis',(0.,-1.,0.));
#1290=DIRECTION('ref_axis',(1.,0.,0.));
#1291=DIRECTION('',(0.,-1.,0.));
#1292=DIRECTION('center_axis',(-1.,0.,-6.34413156928661E-17));
#1293=DIRECTION('ref_axis',(-6.34413156928661E-17,0.,1.));
#1294=DIRECTION('',(-6.34413156928661E-17,0.,1.));
#1295=DIRECTION('center_axis',(1.,0.,1.90323947078598E-16));
#1296=DIRECTION('ref_axis',(1.90323947078598E-16,0.,-1.));
#1297=DIRECTION('',(1.90323947078598E-16,0.,-1.));
#1298=DIRECTION('center_axis',(0.,1.,0.));
#1299=DIRECTION('ref_axis',(1.,0.,0.));
#1300=DIRECTION('',(0.,0.,1.));
#1301=DIRECTION('',(1.,0.,0.));
#1302=DIRECTION('',(0.,4.45947323698808E-16,1.));
#1303=DIRECTION('',(1.,0.,0.));
#1304=CARTESIAN_POINT('',(0.,0.,0.));
#1305=CARTESIAN_POINT('',(0.,0.,0.));
#1306=CARTESIAN_POINT('Origin',(-7.14880261977814E-15,-6.24346915322807E-14,
-31.75));
#1307=CARTESIAN_POINT('',(-2.00000000000001,18.5,-31.75));
#1308=CARTESIAN_POINT('Origin',(-7.14880261977814E-15,18.5,-31.75));
#1309=CARTESIAN_POINT('',(-2.00000000000001,26.,-31.75));
#1310=CARTESIAN_POINT('',(-2.00000000000001,-6.24346915322807E-14,-31.75));
#1311=CARTESIAN_POINT('Origin',(-7.14880261977814E-15,26.,-31.75));
#1312=CARTESIAN_POINT('Origin',(22.4506403026729,-5.55517826987848E-14,
-22.4506403026729));
#1313=CARTESIAN_POINT('',(20.4506403026729,18.5,-22.4506403026729));
#1314=CARTESIAN_POINT('Origin',(22.4506403026729,18.5,-22.4506403026729));
#1315=CARTESIAN_POINT('',(20.4506403026729,26.,-22.4506403026729));
#1316=CARTESIAN_POINT('',(20.4506403026729,-5.55517826987848E-14,-22.4506403026729));
#1317=CARTESIAN_POINT('Origin',(22.4506403026729,26.,-22.4506403026729));
#1318=CARTESIAN_POINT('Origin',(0.,18.5,-8.88178419700125E-15));
#1319=CARTESIAN_POINT('Origin',(31.75,-2.78562403188179E-14,-1.31642223883885E-15));
#1320=CARTESIAN_POINT('',(29.75,18.5,-1.2561912994011E-14));
#1321=CARTESIAN_POINT('Origin',(31.75,18.5,-1.28068423538405E-14));
#1322=CARTESIAN_POINT('',(29.75,26.,-1.72201914190116E-14));
#1323=CARTESIAN_POINT('',(29.75,-2.78562403188179E-14,-1.07149287900938E-15));
#1324=CARTESIAN_POINT('Origin',(31.75,26.,-1.74651207788411E-14));
#1325=CARTESIAN_POINT('Origin',(22.4506403026729,-2.23181589899782E-14,
22.4506403026729));
#1326=CARTESIAN_POINT('',(20.4506403026729,18.5,22.4506403026729));
#1327=CARTESIAN_POINT('Origin',(22.4506403026729,18.5,22.4506403026729));
#1328=CARTESIAN_POINT('',(20.4506403026729,26.,22.4506403026729));
#1329=CARTESIAN_POINT('',(20.4506403026729,-2.23181589899782E-14,22.4506403026729));
#1330=CARTESIAN_POINT('Origin',(22.4506403026729,26.,22.4506403026729));
#1331=CARTESIAN_POINT('Origin',(6.21724893790088E-14,-1.99999999999975,
44.96825));
#1332=CARTESIAN_POINT('',(-5.5070223425758E-15,-1.99999999999979,-44.96825));
#1333=CARTESIAN_POINT('Origin',(6.21724893790088E-14,-1.99999999999977,
8.92376073407774E-15));
#1334=CARTESIAN_POINT('',(26.5000000000001,-1.99999999999977,5.63647017926078E-15));
#1335=CARTESIAN_POINT('Origin',(6.21724893790088E-14,-1.99999999999977,
8.88178419700126E-15));
#1336=CARTESIAN_POINT('',(-2.,-1.99999999999976,31.75));
#1337=CARTESIAN_POINT('Origin',(3.26054903248529E-15,-1.99999999999976,
31.75));
#1338=CARTESIAN_POINT('Origin',(3.26054903248529E-15,-1.54352501564824E-14,
31.75));
#1339=CARTESIAN_POINT('',(-2.,26.,31.75));
#1340=CARTESIAN_POINT('',(-2.,-1.54352501564824E-14,31.75));
#1341=CARTESIAN_POINT('Origin',(3.26054903248529E-15,26.,31.75));
#1342=CARTESIAN_POINT('Origin',(-22.4506403026729,-2.23181589899782E-14,
22.4506403026729));
#1343=CARTESIAN_POINT('',(-24.4506403026729,18.5,22.4506403026729));
#1344=CARTESIAN_POINT('Origin',(-22.4506403026729,18.5,22.4506403026729));
#1345=CARTESIAN_POINT('',(-24.4506403026729,26.,22.4506403026729));
#1346=CARTESIAN_POINT('',(-24.4506403026729,-2.23181589899782E-14,22.4506403026729));
#1347=CARTESIAN_POINT('Origin',(-22.4506403026729,26.,22.4506403026729));
#1348=CARTESIAN_POINT('Origin',(-31.75,-2.78562403188179E-14,5.20467582613173E-15));
#1349=CARTESIAN_POINT('',(-33.75,18.5,-6.04081492904041E-15));
#1350=CARTESIAN_POINT('Origin',(-31.75,18.5,-6.28574428886989E-15));
#1351=CARTESIAN_POINT('',(-33.75,26.,-1.06990933540411E-14));
#1352=CARTESIAN_POINT('',(-33.75,-2.78562403188179E-14,5.4496051859612E-15));
#1353=CARTESIAN_POINT('Origin',(-31.75,26.,-1.09440227138705E-14));
#1354=CARTESIAN_POINT('Origin',(0.,18.5,-8.88178419700125E-15));
#1355=CARTESIAN_POINT('Origin',(-22.4506403026729,-5.55517826987848E-14,
-22.4506403026729));
#1356=CARTESIAN_POINT('',(-24.4506403026729,18.5,-22.4506403026729));
#1357=CARTESIAN_POINT('Origin',(-22.4506403026729,18.5,-22.4506403026729));
#1358=CARTESIAN_POINT('',(-24.4506403026729,26.,-22.4506403026729));
#1359=CARTESIAN_POINT('',(-24.4506403026729,-5.55517826987848E-14,-22.4506403026729));
#1360=CARTESIAN_POINT('Origin',(-22.4506403026729,26.,-22.4506403026729));
#1361=CARTESIAN_POINT('Origin',(0.,18.5,-8.88178419700125E-15));
#1362=CARTESIAN_POINT('Origin',(0.,18.5,-8.88178419700125E-15));
#1363=CARTESIAN_POINT('',(-1.5875,18.5,-40.));
#1364=CARTESIAN_POINT('Origin',(0.,18.5,-40.));
#1365=CARTESIAN_POINT('Origin',(0.,18.5,-8.88178419700125E-15));
#1366=CARTESIAN_POINT('',(10.5626989775916,18.5,-29.3331751572334));
#1367=CARTESIAN_POINT('Origin',(12.1501989775916,18.5,-29.3331751572334));
#1368=CARTESIAN_POINT('Origin',(0.,18.5,-8.88178419700125E-15));
#1369=CARTESIAN_POINT('Origin',(0.,18.5,-8.88178419700125E-15));
#1370=CARTESIAN_POINT('Origin',(0.,18.5,-8.88178419700125E-15));
#1371=CARTESIAN_POINT('',(10.5626989775916,18.5,29.3331751572333));
#1372=CARTESIAN_POINT('Origin',(12.1501989775916,18.5,29.3331751572333));
#1373=CARTESIAN_POINT('Origin',(0.,18.5,-8.88178419700125E-15));
#1374=CARTESIAN_POINT('',(-30.9206751572334,18.5,12.1501989775916));
#1375=CARTESIAN_POINT('Origin',(-29.3331751572334,18.5,12.1501989775916));
#1376=CARTESIAN_POINT('Origin',(0.,18.5,-8.88178419700125E-15));
#1377=CARTESIAN_POINT('',(-1.5875,18.5,40.));
#1378=CARTESIAN_POINT('Origin',(3.26054903248529E-15,18.5,40.));
#1379=CARTESIAN_POINT('Origin',(0.,18.5,-8.88178419700125E-15));
#1380=CARTESIAN_POINT('Origin',(0.,18.5,-8.88178419700125E-15));
#1381=CARTESIAN_POINT('',(-30.9206751572334,18.5,-12.1501989775916));
#1382=CARTESIAN_POINT('Origin',(-29.3331751572334,18.5,-12.1501989775916));
#1383=CARTESIAN_POINT('Origin',(0.,18.5,-8.88178419700125E-15));
#1384=CARTESIAN_POINT('',(-13.7376989775916,18.5,29.3331751572333));
#1385=CARTESIAN_POINT('Origin',(-12.1501989775916,18.5,29.3331751572333));
#1386=CARTESIAN_POINT('Origin',(0.,18.5,-8.88178419700125E-15));
#1387=CARTESIAN_POINT('Origin',(0.,18.5,-8.88178419700125E-15));
#1388=CARTESIAN_POINT('',(27.7456751572334,18.5,12.1501989775916));
#1389=CARTESIAN_POINT('Origin',(29.3331751572334,18.5,12.1501989775916));
#1390=CARTESIAN_POINT('Origin',(0.,18.5,-8.88178419700125E-15));
#1391=CARTESIAN_POINT('',(-13.7376989775916,18.5,-29.3331751572334));
#1392=CARTESIAN_POINT('Origin',(-12.1501989775916,18.5,-29.3331751572334));
#1393=CARTESIAN_POINT('Origin',(0.,18.5,-8.88178419700125E-15));
#1394=CARTESIAN_POINT('',(27.7456751572334,18.5,-12.1501989775916));
#1395=CARTESIAN_POINT('Origin',(29.3331751572334,18.5,-12.1501989775916));
#1396=CARTESIAN_POINT('Origin',(0.,-5.65177982631473E-15,-40.));
#1397=CARTESIAN_POINT('',(-1.5875,26.,-40.));
#1398=CARTESIAN_POINT('',(-1.5875,-5.65177982631473E-15,-40.));
#1399=CARTESIAN_POINT('Origin',(0.,26.,-40.));
#1400=CARTESIAN_POINT('Origin',(12.1501989775916,-6.06458818076636E-14,
-29.3331751572334));
#1401=CARTESIAN_POINT('',(10.5626989775916,26.,-29.3331751572334));
#1402=CARTESIAN_POINT('',(10.5626989775916,-6.06458818076636E-14,-29.3331751572334));
#1403=CARTESIAN_POINT('Origin',(12.1501989775916,26.,-29.3331751572334));
#1404=CARTESIAN_POINT('Origin',(12.1501989775916,-1.72240598810994E-14,
29.3331751572334));
#1405=CARTESIAN_POINT('',(10.5626989775916,26.,29.3331751572333));
#1406=CARTESIAN_POINT('',(10.5626989775916,-1.72240598810994E-14,29.3331751572334));
#1407=CARTESIAN_POINT('Origin',(12.1501989775916,26.,29.3331751572333));
#1408=CARTESIAN_POINT('Origin',(-29.3331751572334,-1.7796898449115E-14,
12.1501989775916));
#1409=CARTESIAN_POINT('',(-30.9206751572334,26.,12.1501989775916));
#1410=CARTESIAN_POINT('',(-30.9206751572334,-1.7796898449115E-14,12.1501989775916));
#1411=CARTESIAN_POINT('Origin',(-29.3331751572334,26.,12.1501989775916));
#1412=CARTESIAN_POINT('Origin',(3.26054903248529E-15,-9.32902352104401E-15,
40.));
#1413=CARTESIAN_POINT('',(-1.5875,26.,40.));
#1414=CARTESIAN_POINT('',(-1.5875,-9.32902352104401E-15,40.));
#1415=CARTESIAN_POINT('Origin',(3.26054903248529E-15,26.,40.));
#1416=CARTESIAN_POINT('Origin',(-29.3331751572334,-2.67898522215812E-14,
-12.1501989775916));
#1417=CARTESIAN_POINT('',(-30.9206751572334,26.,-12.1501989775916));
#1418=CARTESIAN_POINT('',(-30.9206751572334,-2.67898522215812E-14,-12.1501989775916));
#1419=CARTESIAN_POINT('Origin',(-29.3331751572334,26.,-12.1501989775916));
#1420=CARTESIAN_POINT('Origin',(-12.1501989775916,-1.72240598810994E-14,
29.3331751572334));
#1421=CARTESIAN_POINT('',(-13.7376989775916,26.,29.3331751572333));
#1422=CARTESIAN_POINT('',(-13.7376989775916,-1.72240598810994E-14,29.3331751572334));
#1423=CARTESIAN_POINT('Origin',(-12.1501989775916,26.,29.3331751572333));
#1424=CARTESIAN_POINT('Origin',(29.3331751572334,-1.7796898449115E-14,12.1501989775916));
#1425=CARTESIAN_POINT('',(27.7456751572334,26.,12.1501989775916));
#1426=CARTESIAN_POINT('',(27.7456751572334,-1.7796898449115E-14,12.1501989775916));
#1427=CARTESIAN_POINT('Origin',(29.3331751572334,26.,12.1501989775916));
#1428=CARTESIAN_POINT('Origin',(-12.1501989775916,-6.06458818076636E-14,
-29.3331751572334));
#1429=CARTESIAN_POINT('',(-13.7376989775916,26.,-29.3331751572334));
#1430=CARTESIAN_POINT('',(-13.7376989775916,-6.06458818076636E-14,-29.3331751572334));
#1431=CARTESIAN_POINT('Origin',(-12.1501989775916,26.,-29.3331751572334));
#1432=CARTESIAN_POINT('Origin',(29.3331751572334,-2.67898522215812E-14,
-12.1501989775916));
#1433=CARTESIAN_POINT('',(27.7456751572334,26.,-12.1501989775916));
#1434=CARTESIAN_POINT('',(27.7456751572334,-2.67898522215812E-14,-12.1501989775916));
#1435=CARTESIAN_POINT('Origin',(29.3331751572334,26.,-12.1501989775916));
#1436=CARTESIAN_POINT('Origin',(0.,26.,-1.15942587933993E-14));
#1437=CARTESIAN_POINT('',(-5.5070223425758E-15,26.,-44.96825));
#1438=CARTESIAN_POINT('Origin',(0.,26.,-1.61067220029258E-14));
#1439=CARTESIAN_POINT('',(26.5,26.,-1.48399444339095E-14));
#1440=CARTESIAN_POINT('Origin',(0.,26.,-1.1594630416169E-14));
#1441=CARTESIAN_POINT('Origin',(0.,15.7973730132407,-7.75846366146001E-15));
#1442=CARTESIAN_POINT('',(-5.5070223425758E-15,15.7973730132407,-44.96825));
#1443=CARTESIAN_POINT('Origin',(0.,26.,-1.1594630416169E-14));
#1444=CARTESIAN_POINT('',(26.5,26.,-8.34931639842851E-15));
#1445=CARTESIAN_POINT('',(0.,0.,0.));
#1446=CARTESIAN_POINT('Origin',(4.5,0.,-1.99535580274367));
#1447=CARTESIAN_POINT('',(6.5,0.38,-1.99535580274367));
#1448=CARTESIAN_POINT('',(6.43185165257814,0.38,-1.47771771253863));
#1449=CARTESIAN_POINT('Origin',(4.5,0.38,-1.99535580274367));
#1450=CARTESIAN_POINT('',(6.43185165257814,0.,-1.47771771253863));
#1451=CARTESIAN_POINT('',(6.43185165257814,0.,-1.47771771253863));
#1452=CARTESIAN_POINT('',(6.5,0.,-1.99535580274367));
#1453=CARTESIAN_POINT('Origin',(4.5,0.,-1.99535580274367));
#1454=CARTESIAN_POINT('',(6.5,0.,-1.99535580274367));
#1455=CARTESIAN_POINT('Origin',(1.11022302462516E-15,0.,-6.75));
#1456=CARTESIAN_POINT('',(5.89719767662022,0.,0.517638090205042));
#1457=CARTESIAN_POINT('',(5.5,0.,2.));
#1458=CARTESIAN_POINT('',(3.96534602404208,0.,2.));
#1459=CARTESIAN_POINT('Origin',(3.96534602404208,0.,0.));
#1460=CARTESIAN_POINT('',(-3.96534602404208,0.,2.));
#1461=CARTESIAN_POINT('',(-6.5,0.,2.));
#1462=CARTESIAN_POINT('',(-5.89719767662022,0.,0.517638090205044));
#1463=CARTESIAN_POINT('Origin',(-3.96534602404208,0.,0.));
#1464=CARTESIAN_POINT('',(-6.43185165257814,0.,-1.4777177125386));
#1465=CARTESIAN_POINT('',(-5.5,0.,2.));
#1466=CARTESIAN_POINT('',(-6.5,0.,-1.99535580274365));
#1467=CARTESIAN_POINT('Origin',(-4.5,0.,-1.99535580274365));
#1468=CARTESIAN_POINT('',(-6.5,0.,-13.5));
#1469=CARTESIAN_POINT('',(-6.5,0.,2.));
#1470=CARTESIAN_POINT('',(-4.5,0.,-15.5));
#1471=CARTESIAN_POINT('Origin',(-4.5,0.,-13.5));
#1472=CARTESIAN_POINT('',(4.5,0.,-15.5));
#1473=CARTESIAN_POINT('',(6.5,0.,-15.5));
#1474=CARTESIAN_POINT('',(6.5,0.,-13.5));
#1475=CARTESIAN_POINT('Origin',(4.5,0.,-13.5));
#1476=CARTESIAN_POINT('',(6.5,0.,2.));
#1477=CARTESIAN_POINT('',(-1.1,0.,1.34711147906209E-16));
#1478=CARTESIAN_POINT('Origin',(0.,0.,0.));
#1479=CARTESIAN_POINT('',(-2.,0.,-7.5));
#1480=CARTESIAN_POINT('Origin',(0.,0.,-7.5));
#1481=CARTESIAN_POINT('',(3.4,0.,-13.5));
#1482=CARTESIAN_POINT('Origin',(4.5,0.,-13.5));
#1483=CARTESIAN_POINT('',(-5.6,0.,-13.5));
#1484=CARTESIAN_POINT('Origin',(-4.5,0.,-13.5));
#1485=CARTESIAN_POINT('Origin',(5.5,0.,2.));
#1486=CARTESIAN_POINT('',(5.89719767662022,0.38,0.517638090205042));
#1487=CARTESIAN_POINT('',(5.5,0.38,2.));
#1488=CARTESIAN_POINT('',(5.89719767662022,0.,0.517638090205042));
#1489=CARTESIAN_POINT('Origin',(3.96534602404208,0.,0.));
#1490=CARTESIAN_POINT('',(3.96534602404208,0.38,2.));
#1491=CARTESIAN_POINT('Origin',(3.96534602404208,0.38,0.));
#1492=CARTESIAN_POINT('',(3.96534602404208,0.,2.));
#1493=CARTESIAN_POINT('Origin',(-4.5,0.,-1.99535580274365));
#1494=CARTESIAN_POINT('',(-6.43185165257814,0.38,-1.4777177125386));
#1495=CARTESIAN_POINT('',(-6.5,0.38,-1.99535580274365));
#1496=CARTESIAN_POINT('Origin',(-4.5,0.38,-1.99535580274365));
#1497=CARTESIAN_POINT('',(-6.5,0.,-1.99535580274365));
#1498=CARTESIAN_POINT('',(-6.43185165257814,0.,-1.4777177125386));
#1499=CARTESIAN_POINT('Origin',(-6.5,0.,-1.73205080756886));
#1500=CARTESIAN_POINT('',(-5.89719767662022,0.38,0.517638090205044));
#1501=CARTESIAN_POINT('',(-5.89719767662022,0.,0.517638090205044));
#1502=CARTESIAN_POINT('',(-5.5,0.38,2.));
#1503=CARTESIAN_POINT('Origin',(-3.96534602404208,0.,0.));
#1504=CARTESIAN_POINT('',(-3.96534602404208,0.38,2.));
#1505=CARTESIAN_POINT('Origin',(-3.96534602404208,0.38,0.));
#1506=CARTESIAN_POINT('',(-3.96534602404208,0.,2.));
#1507=CARTESIAN_POINT('Origin',(-5.5,0.,2.));
#1508=CARTESIAN_POINT('',(-6.5,0.38,2.));
#1509=CARTESIAN_POINT('Origin',(4.5,0.,-13.5));
#1510=CARTESIAN_POINT('',(4.5,0.38,-15.5));
#1511=CARTESIAN_POINT('',(6.5,0.38,-13.5));
#1512=CARTESIAN_POINT('Origin',(4.5,0.38,-13.5));
#1513=CARTESIAN_POINT('',(6.5,0.,-13.5));
#1514=CARTESIAN_POINT('',(4.5,0.,-15.5));
#1515=CARTESIAN_POINT('Origin',(6.5,0.,-15.5));
#1516=CARTESIAN_POINT('',(-4.5,0.38,-15.5));
#1517=CARTESIAN_POINT('',(-4.5,0.,-15.5));
#1518=CARTESIAN_POINT('',(6.5,0.38,-15.5));
#1519=CARTESIAN_POINT('Origin',(-4.5,0.,-13.5));
#1520=CARTESIAN_POINT('',(-6.5,0.38,-13.5));
#1521=CARTESIAN_POINT('Origin',(-4.5,0.38,-13.5));
#1522=CARTESIAN_POINT('',(-6.5,0.,-13.5));
#1523=CARTESIAN_POINT('Origin',(-4.5,0.,-13.5));
#1524=CARTESIAN_POINT('',(-5.6,0.38,-13.5));
#1525=CARTESIAN_POINT('Origin',(-4.5,0.38,-13.5));
#1526=CARTESIAN_POINT('',(-5.6,0.,-13.5));
#1527=CARTESIAN_POINT('Origin',(4.5,0.,-13.5));
#1528=CARTESIAN_POINT('',(3.4,0.38,-13.5));
#1529=CARTESIAN_POINT('Origin',(4.5,0.38,-13.5));
#1530=CARTESIAN_POINT('',(3.4,0.,-13.5));
#1531=CARTESIAN_POINT('Origin',(0.,0.,-7.5));
#1532=CARTESIAN_POINT('',(-2.,0.38,-7.5));
#1533=CARTESIAN_POINT('Origin',(0.,0.38,-7.5));
#1534=CARTESIAN_POINT('',(-2.,0.,-7.5));
#1535=CARTESIAN_POINT('Origin',(0.,0.,0.));
#1536=CARTESIAN_POINT('',(-1.1,0.38,1.34711147906209E-16));
#1537=CARTESIAN_POINT('Origin',(0.,0.38,0.));
#1538=CARTESIAN_POINT('',(-1.1,0.,1.34711147906209E-16));
#1539=CARTESIAN_POINT('Origin',(-6.5,0.,-15.5));
#1540=CARTESIAN_POINT('',(-6.5,0.38,2.));
#1541=CARTESIAN_POINT('Origin',(6.5,0.,-1.73205080756888));
#1542=CARTESIAN_POINT('',(6.5,0.38,2.));
#1543=CARTESIAN_POINT('Origin',(1.11022302462516E-15,0.38,-6.75));
#1544=CARTESIAN_POINT('',(0.,0.,0.));
#1545=CARTESIAN_POINT('',(-5.55111512312578E-15,41.25,7.49999999999998));
#1546=UNCERTAINTY_MEASURE_WITH_UNIT(LENGTH_MEASURE(0.01),#1554,
'DISTANCE_ACCURACY_VALUE',
'Maximum model space distance between geometric entities at asserted c
onnectivities');
#1547=UNCERTAINTY_MEASURE_WITH_UNIT(LENGTH_MEASURE(0.01),#1554,
'DISTANCE_ACCURACY_VALUE',
'Maximum model space distance between geometric entities at asserted c
onnectivities');
#1548=UNCERTAINTY_MEASURE_WITH_UNIT(LENGTH_MEASURE(0.01),#1554,
'DISTANCE_ACCURACY_VALUE',
'Maximum model space distance between geometric entities at asserted c
onnectivities');
#1549=UNCERTAINTY_MEASURE_WITH_UNIT(LENGTH_MEASURE(0.01),#1554,
'DISTANCE_ACCURACY_VALUE',
'Maximum model space distance between geometric entities at asserted c
onnectivities');
#1550=(
GEOMETRIC_REPRESENTATION_CONTEXT(3)
GLOBAL_UNCERTAINTY_ASSIGNED_CONTEXT((#1546))
GLOBAL_UNIT_ASSIGNED_CONTEXT((#1554,#1556,#1557))
REPRESENTATION_CONTEXT('','3D')
);
#1551=(
GEOMETRIC_REPRESENTATION_CONTEXT(3)
GLOBAL_UNCERTAINTY_ASSIGNED_CONTEXT((#1547))
GLOBAL_UNIT_ASSIGNED_CONTEXT((#1554,#1556,#1557))
REPRESENTATION_CONTEXT('','3D')
);
#1552=(
GEOMETRIC_REPRESENTATION_CONTEXT(3)
GLOBAL_UNCERTAINTY_ASSIGNED_CONTEXT((#1548))
GLOBAL_UNIT_ASSIGNED_CONTEXT((#1554,#1556,#1557))
REPRESENTATION_CONTEXT('','3D')
);
#1553=(
GEOMETRIC_REPRESENTATION_CONTEXT(3)
GLOBAL_UNCERTAINTY_ASSIGNED_CONTEXT((#1549))
GLOBAL_UNIT_ASSIGNED_CONTEXT((#1554,#1556,#1557))
REPRESENTATION_CONTEXT('','3D')
);
#1554=(
LENGTH_UNIT()
NAMED_UNIT(*)
SI_UNIT(.MILLI.,.METRE.)
);
#1555=(
LENGTH_UNIT()
NAMED_UNIT(*)
SI_UNIT($,.METRE.)
);
#1556=(
NAMED_UNIT(*)
PLANE_ANGLE_UNIT()
SI_UNIT($,.RADIAN.)
);
#1557=(
NAMED_UNIT(*)
SI_UNIT($,.STERADIAN.)
SOLID_ANGLE_UNIT()
);
#1558=SHAPE_DEFINITION_REPRESENTATION(#1561,#1566);
#1559=SHAPE_DEFINITION_REPRESENTATION(#1562,#1567);
#1560=SHAPE_DEFINITION_REPRESENTATION(#1563,#1568);
#1561=PRODUCT_DEFINITION_SHAPE('',$,#1570);
#1562=PRODUCT_DEFINITION_SHAPE('',$,#1571);
#1563=PRODUCT_DEFINITION_SHAPE('',$,#1572);
#1564=PRODUCT_DEFINITION_SHAPE($,$,#17);
#1565=PRODUCT_DEFINITION_SHAPE($,$,#18);
#1566=SHAPE_REPRESENTATION('',(#890,#1010,#1011),#1550);
#1567=SHAPE_REPRESENTATION('',(#891),#1551);
#1568=SHAPE_REPRESENTATION('',(#971),#1552);
#1569=PRODUCT_DEFINITION_CONTEXT('part definition',#1580,'design');
#1570=PRODUCT_DEFINITION('electorde puck v2 insulating plate CAM',
'electorde puck v2 insulating plate CAM v4',#1573,#1569);
#1571=PRODUCT_DEFINITION('V2PocketNC kinematic Bdisc v4',
'V2PocketNC kinematic Bdisc v4 v1',#1574,#1569);
#1572=PRODUCT_DEFINITION('smb electrode top ground',
'smb electrode top ground v14',#1575,#1569);
#1573=PRODUCT_DEFINITION_FORMATION('',$,#1582);
#1574=PRODUCT_DEFINITION_FORMATION('',$,#1583);
#1575=PRODUCT_DEFINITION_FORMATION('',$,#1584);
#1576=PRODUCT_RELATED_PRODUCT_CATEGORY(
'electorde puck v2 insulating plate CAM v4',
'electorde puck v2 insulating plate CAM v4',(#1582));
#1577=PRODUCT_RELATED_PRODUCT_CATEGORY(
'V2PocketNC kinematic Bdisc v4 v1','V2PocketNC kinematic Bdisc v4 v1',(#1583));
#1578=PRODUCT_RELATED_PRODUCT_CATEGORY('smb electrode top ground v14',
'smb electrode top ground v14',(#1584));
#1579=APPLICATION_PROTOCOL_DEFINITION('international standard',
'automotive_design',2009,#1580);
#1580=APPLICATION_CONTEXT(
'Core Data for Automotive Mechanical Design Process');
#1581=PRODUCT_CONTEXT('part definition',#1580,'mechanical');
#1582=PRODUCT('electorde puck v2 insulating plate CAM',
'electorde puck v2 insulating plate CAM v4',$,(#1581));
#1583=PRODUCT('V2PocketNC kinematic Bdisc v4',
'V2PocketNC kinematic Bdisc v4 v1',$,(#1581));
#1584=PRODUCT('smb electrode top ground','smb electrode top ground v14',
$,(#1581));
#1585=PRESENTATION_STYLE_ASSIGNMENT((#1588));
#1586=PRESENTATION_STYLE_ASSIGNMENT((#1589));
#1587=PRESENTATION_STYLE_ASSIGNMENT((#1590));
#1588=SURFACE_STYLE_USAGE(.BOTH.,#1591);
#1589=SURFACE_STYLE_USAGE(.BOTH.,#1592);
#1590=SURFACE_STYLE_USAGE(.BOTH.,#1593);
#1591=SURFACE_SIDE_STYLE('',(#1594));
#1592=SURFACE_SIDE_STYLE('',(#1595));
#1593=SURFACE_SIDE_STYLE('',(#1596));
#1594=SURFACE_STYLE_FILL_AREA(#1597);
#1595=SURFACE_STYLE_FILL_AREA(#1598);
#1596=SURFACE_STYLE_FILL_AREA(#1599);
#1597=FILL_AREA_STYLE('Steel - Satin',(#1600));
#1598=FILL_AREA_STYLE('Aluminum - Anodized Glossy (Grey)',(#1601));
#1599=FILL_AREA_STYLE('Gold - Polished',(#1602));
#1600=FILL_AREA_STYLE_COLOUR('Steel - Satin',#1603);
#1601=FILL_AREA_STYLE_COLOUR('Aluminum - Anodized Glossy (Grey)',#1604);
#1602=FILL_AREA_STYLE_COLOUR('Gold - Polished',#1605);
#1603=COLOUR_RGB('Steel - Satin',0.627450980392157,0.627450980392157,0.627450980392157);
#1604=COLOUR_RGB('Aluminum - Anodized Glossy (Grey)',0.537254901960784,
0.537254901960784,0.537254901960784);
#1605=COLOUR_RGB('Gold - Polished',0.956862745098039,0.898039215686275,
0.654901960784314);
ENDSEC;
END-ISO-10303-21;
