ISO-10303-21;
HEADER;
/* Generated by software containing ST-Developer
 * from STEP Tools, Inc. (www.steptools.com) 
 */

FILE_DESCRIPTION(
/* description */ (''),
/* implementation_level */ '2;1');

FILE_NAME(
/* name */ 'vespel spacers v2.step',
/* time_stamp */ '2024-06-19T10:52:27+02:00',
/* author */ (''),
/* organization */ (''),
/* preprocessor_version */ 'ST-DEVELOPER v20',
/* originating_system */ 'Autodesk Translation Framework v13.14.0.145',

/* authorisation */ '');

FILE_SCHEMA (('AUTOMOTIVE_DESIGN { 1 0 10303 214 3 1 1 }'));
ENDSEC;

DATA;
#10=MECHANICAL_DESIGN_GEOMETRIC_PRESENTATION_REPRESENTATION('',(#37,#38,
#39,#40,#41),#1705);
#11=ITEM_DEFINED_TRANSFORMATION($,$,#970,#1110);
#12=ITEM_DEFINED_TRANSFORMATION($,$,#991,#1111);
#13=ITEM_DEFINED_TRANSFORMATION($,$,#1006,#1112);
#14=ITEM_DEFINED_TRANSFORMATION($,$,#1025,#1113);
#15=(
REPRESENTATION_RELATIONSHIP($,$,#1725,#1724)
REPRESENTATION_RELATIONSHIP_WITH_TRANSFORMATION(#11)
SHAPE_REPRESENTATION_RELATIONSHIP()
);
#16=(
REPRESENTATION_RELATIONSHIP($,$,#1726,#1724)
REPRESENTATION_RELATIONSHIP_WITH_TRANSFORMATION(#12)
SHAPE_REPRESENTATION_RELATIONSHIP()
);
#17=(
REPRESENTATION_RELATIONSHIP($,$,#1727,#1724)
REPRESENTATION_RELATIONSHIP_WITH_TRANSFORMATION(#13)
SHAPE_REPRESENTATION_RELATIONSHIP()
);
#18=(
REPRESENTATION_RELATIONSHIP($,$,#1728,#1724)
REPRESENTATION_RELATIONSHIP_WITH_TRANSFORMATION(#14)
SHAPE_REPRESENTATION_RELATIONSHIP()
);
#19=CONTEXT_DEPENDENT_SHAPE_REPRESENTATION(#15,#1720);
#20=CONTEXT_DEPENDENT_SHAPE_REPRESENTATION(#16,#1721);
#21=CONTEXT_DEPENDENT_SHAPE_REPRESENTATION(#17,#1722);
#22=CONTEXT_DEPENDENT_SHAPE_REPRESENTATION(#18,#1723);
#23=NEXT_ASSEMBLY_USAGE_OCCURRENCE('Collet Bottom Taper v1:1',
'Collet Bottom Taper v1:1','Collet Bottom Taper v1:1',#1730,#1731,
'Collet Bottom Taper v1:1');
#24=NEXT_ASSEMBLY_USAGE_OCCURRENCE('Collet Top Taper v1:1',
'Collet Top Taper v1:1','Collet Top Taper v1:1',#1730,#1732,
'Collet Top Taper v1:1');
#25=NEXT_ASSEMBLY_USAGE_OCCURRENCE('ER-40 Collet Generic v1:1',
'ER-40 Collet Generic v1:1','ER-40 Collet Generic v1:1',#1730,#1733,
'ER-40 Collet Generic v1:1');
#26=NEXT_ASSEMBLY_USAGE_OCCURRENCE('V2PocketNC kinematic Bdisc v4 v1:1',
'V2PocketNC kinematic Bdisc v4 v1:1',
'V2PocketNC kinematic Bdisc v4 v1:1',#1730,#1734,
'V2PocketNC kinematic Bdisc v4 v1:1');
#27=SHAPE_REPRESENTATION_RELATIONSHIP('SRR','None',#1725,#32);
#28=SHAPE_REPRESENTATION_RELATIONSHIP('SRR','None',#1726,#33);
#29=SHAPE_REPRESENTATION_RELATIONSHIP('SRR','None',#1727,#34);
#30=SHAPE_REPRESENTATION_RELATIONSHIP('SRR','None',#1728,#35);
#31=SHAPE_REPRESENTATION_RELATIONSHIP('SRR','None',#1724,#36);
#32=ADVANCED_BREP_SHAPE_REPRESENTATION('',(#42),#1701);
#33=ADVANCED_BREP_SHAPE_REPRESENTATION('',(#43),#1702);
#34=ADVANCED_BREP_SHAPE_REPRESENTATION('',(#44),#1703);
#35=ADVANCED_BREP_SHAPE_REPRESENTATION('',(#45),#1704);
#36=ADVANCED_BREP_SHAPE_REPRESENTATION('',(#46),#1700);
#37=STYLED_ITEM('',(#1753),#42);
#38=STYLED_ITEM('',(#1753),#43);
#39=STYLED_ITEM('',(#1753),#44);
#40=STYLED_ITEM('',(#1754),#45);
#41=STYLED_ITEM('',(#1753),#46);
#42=MANIFOLD_SOLID_BREP('Body1',#919);
#43=MANIFOLD_SOLID_BREP('Body1',#920);
#44=MANIFOLD_SOLID_BREP('Body1',#921);
#45=MANIFOLD_SOLID_BREP('Body1',#922);
#46=MANIFOLD_SOLID_BREP('Body1',#923);
#47=FACE_BOUND('',#216,.T.);
#48=FACE_BOUND('',#219,.T.);
#49=FACE_BOUND('',#222,.T.);
#50=FACE_BOUND('',#223,.T.);
#51=FACE_BOUND('',#224,.T.);
#52=FACE_BOUND('',#229,.T.);
#53=FACE_BOUND('',#230,.T.);
#54=FACE_BOUND('',#231,.T.);
#55=FACE_BOUND('',#234,.T.);
#56=FACE_BOUND('',#235,.T.);
#57=FACE_BOUND('',#236,.T.);
#58=FACE_BOUND('',#240,.T.);
#59=FACE_BOUND('',#242,.T.);
#60=FACE_BOUND('',#245,.T.);
#61=FACE_BOUND('',#248,.T.);
#62=FACE_BOUND('',#256,.T.);
#63=FACE_BOUND('',#257,.T.);
#64=FACE_BOUND('',#289,.T.);
#65=FACE_BOUND('',#290,.T.);
#66=FACE_BOUND('',#291,.T.);
#67=FACE_BOUND('',#292,.T.);
#68=FACE_BOUND('',#293,.T.);
#69=FACE_BOUND('',#294,.T.);
#70=FACE_BOUND('',#295,.T.);
#71=FACE_BOUND('',#296,.T.);
#72=FACE_BOUND('',#297,.T.);
#73=FACE_BOUND('',#298,.T.);
#74=FACE_BOUND('',#299,.T.);
#75=FACE_BOUND('',#300,.T.);
#76=FACE_BOUND('',#301,.T.);
#77=FACE_BOUND('',#302,.T.);
#78=FACE_BOUND('',#303,.T.);
#79=FACE_BOUND('',#304,.T.);
#80=FACE_BOUND('',#305,.T.);
#81=FACE_BOUND('',#306,.T.);
#82=FACE_BOUND('',#307,.T.);
#83=PLANE('',#982);
#84=PLANE('',#986);
#85=PLANE('',#990);
#86=PLANE('',#1001);
#87=PLANE('',#1005);
#88=PLANE('',#1012);
#89=PLANE('',#1014);
#90=PLANE('',#1018);
#91=PLANE('',#1022);
#92=PLANE('',#1032);
#93=PLANE('',#1039);
#94=PLANE('',#1051);
#95=PLANE('',#1055);
#96=PLANE('',#1056);
#97=PLANE('',#1058);
#98=PLANE('',#1060);
#99=PLANE('',#1061);
#100=PLANE('',#1062);
#101=PLANE('',#1064);
#102=PLANE('',#1066);
#103=PLANE('',#1068);
#104=PLANE('',#1069);
#105=PLANE('',#1071);
#106=PLANE('',#1073);
#107=PLANE('',#1074);
#108=PLANE('',#1076);
#109=PLANE('',#1078);
#110=PLANE('',#1100);
#111=PLANE('',#1108);
#112=PLANE('',#1109);
#113=CYLINDRICAL_SURFACE('',#973,1.55);
#114=CYLINDRICAL_SURFACE('',#977,1.55);
#115=CYLINDRICAL_SURFACE('',#984,25.95);
#116=CYLINDRICAL_SURFACE('',#988,25.925);
#117=CYLINDRICAL_SURFACE('',#992,1.55);
#118=CYLINDRICAL_SURFACE('',#995,1.55);
#119=CYLINDRICAL_SURFACE('',#1003,25.925);
#120=CYLINDRICAL_SURFACE('',#1010,3.175);
#121=CYLINDRICAL_SURFACE('',#1020,18.034);
#122=CYLINDRICAL_SURFACE('',#1026,2.);
#123=CYLINDRICAL_SURFACE('',#1029,2.);
#124=CYLINDRICAL_SURFACE('',#1033,2.);
#125=CYLINDRICAL_SURFACE('',#1036,2.);
#126=CYLINDRICAL_SURFACE('',#1043,2.);
#127=CYLINDRICAL_SURFACE('',#1045,2.);
#128=CYLINDRICAL_SURFACE('',#1048,2.);
#129=CYLINDRICAL_SURFACE('',#1052,2.);
#130=CYLINDRICAL_SURFACE('',#1080,1.5875);
#131=CYLINDRICAL_SURFACE('',#1082,1.5875);
#132=CYLINDRICAL_SURFACE('',#1084,1.5875);
#133=CYLINDRICAL_SURFACE('',#1086,1.5875);
#134=CYLINDRICAL_SURFACE('',#1088,1.5875);
#135=CYLINDRICAL_SURFACE('',#1090,1.5875);
#136=CYLINDRICAL_SURFACE('',#1092,1.5875);
#137=CYLINDRICAL_SURFACE('',#1094,1.5875);
#138=CYLINDRICAL_SURFACE('',#1096,1.5875);
#139=CYLINDRICAL_SURFACE('',#1098,1.5875);
#140=CYLINDRICAL_SURFACE('',#1103,44.96825);
#141=CYLINDRICAL_SURFACE('',#1104,26.5);
#142=CYLINDRICAL_SURFACE('',#1105,12.5);
#143=FACE_OUTER_BOUND('',#210,.T.);
#144=FACE_OUTER_BOUND('',#211,.T.);
#145=FACE_OUTER_BOUND('',#212,.T.);
#146=FACE_OUTER_BOUND('',#213,.T.);
#147=FACE_OUTER_BOUND('',#214,.T.);
#148=FACE_OUTER_BOUND('',#215,.T.);
#149=FACE_OUTER_BOUND('',#217,.T.);
#150=FACE_OUTER_BOUND('',#218,.T.);
#151=FACE_OUTER_BOUND('',#220,.T.);
#152=FACE_OUTER_BOUND('',#221,.T.);
#153=FACE_OUTER_BOUND('',#225,.T.);
#154=FACE_OUTER_BOUND('',#226,.T.);
#155=FACE_OUTER_BOUND('',#227,.T.);
#156=FACE_OUTER_BOUND('',#228,.T.);
#157=FACE_OUTER_BOUND('',#232,.T.);
#158=FACE_OUTER_BOUND('',#233,.T.);
#159=FACE_OUTER_BOUND('',#237,.T.);
#160=FACE_OUTER_BOUND('',#238,.T.);
#161=FACE_OUTER_BOUND('',#239,.T.);
#162=FACE_OUTER_BOUND('',#241,.T.);
#163=FACE_OUTER_BOUND('',#243,.T.);
#164=FACE_OUTER_BOUND('',#244,.T.);
#165=FACE_OUTER_BOUND('',#246,.T.);
#166=FACE_OUTER_BOUND('',#247,.T.);
#167=FACE_OUTER_BOUND('',#249,.T.);
#168=FACE_OUTER_BOUND('',#250,.T.);
#169=FACE_OUTER_BOUND('',#251,.T.);
#170=FACE_OUTER_BOUND('',#252,.T.);
#171=FACE_OUTER_BOUND('',#253,.T.);
#172=FACE_OUTER_BOUND('',#254,.T.);
#173=FACE_OUTER_BOUND('',#255,.T.);
#174=FACE_OUTER_BOUND('',#258,.T.);
#175=FACE_OUTER_BOUND('',#259,.T.);
#176=FACE_OUTER_BOUND('',#260,.T.);
#177=FACE_OUTER_BOUND('',#261,.T.);
#178=FACE_OUTER_BOUND('',#262,.T.);
#179=FACE_OUTER_BOUND('',#263,.T.);
#180=FACE_OUTER_BOUND('',#264,.T.);
#181=FACE_OUTER_BOUND('',#265,.T.);
#182=FACE_OUTER_BOUND('',#266,.T.);
#183=FACE_OUTER_BOUND('',#267,.T.);
#184=FACE_OUTER_BOUND('',#268,.T.);
#185=FACE_OUTER_BOUND('',#269,.T.);
#186=FACE_OUTER_BOUND('',#270,.T.);
#187=FACE_OUTER_BOUND('',#271,.T.);
#188=FACE_OUTER_BOUND('',#272,.T.);
#189=FACE_OUTER_BOUND('',#273,.T.);
#190=FACE_OUTER_BOUND('',#274,.T.);
#191=FACE_OUTER_BOUND('',#275,.T.);
#192=FACE_OUTER_BOUND('',#276,.T.);
#193=FACE_OUTER_BOUND('',#277,.T.);
#194=FACE_OUTER_BOUND('',#278,.T.);
#195=FACE_OUTER_BOUND('',#279,.T.);
#196=FACE_OUTER_BOUND('',#280,.T.);
#197=FACE_OUTER_BOUND('',#281,.T.);
#198=FACE_OUTER_BOUND('',#282,.T.);
#199=FACE_OUTER_BOUND('',#283,.T.);
#200=FACE_OUTER_BOUND('',#284,.T.);
#201=FACE_OUTER_BOUND('',#285,.T.);
#202=FACE_OUTER_BOUND('',#286,.T.);
#203=FACE_OUTER_BOUND('',#287,.T.);
#204=FACE_OUTER_BOUND('',#288,.T.);
#205=FACE_OUTER_BOUND('',#308,.T.);
#206=FACE_OUTER_BOUND('',#309,.T.);
#207=FACE_OUTER_BOUND('',#310,.T.);
#208=FACE_OUTER_BOUND('',#311,.T.);
#209=FACE_OUTER_BOUND('',#312,.T.);
#210=EDGE_LOOP('',(#633,#634,#635));
#211=EDGE_LOOP('',(#636,#637,#638,#639));
#212=EDGE_LOOP('',(#640,#641,#642));
#213=EDGE_LOOP('',(#643,#644,#645,#646));
#214=EDGE_LOOP('',(#647,#648,#649,#650));
#215=EDGE_LOOP('',(#651));
#216=EDGE_LOOP('',(#652));
#217=EDGE_LOOP('',(#653,#654,#655,#656));
#218=EDGE_LOOP('',(#657));
#219=EDGE_LOOP('',(#658));
#220=EDGE_LOOP('',(#659,#660,#661,#662));
#221=EDGE_LOOP('',(#663));
#222=EDGE_LOOP('',(#664));
#223=EDGE_LOOP('',(#665));
#224=EDGE_LOOP('',(#666));
#225=EDGE_LOOP('',(#667,#668,#669,#670));
#226=EDGE_LOOP('',(#671,#672,#673,#674));
#227=EDGE_LOOP('',(#675,#676,#677,#678));
#228=EDGE_LOOP('',(#679));
#229=EDGE_LOOP('',(#680));
#230=EDGE_LOOP('',(#681));
#231=EDGE_LOOP('',(#682));
#232=EDGE_LOOP('',(#683,#684,#685,#686));
#233=EDGE_LOOP('',(#687));
#234=EDGE_LOOP('',(#688));
#235=EDGE_LOOP('',(#689));
#236=EDGE_LOOP('',(#690));
#237=EDGE_LOOP('',(#691,#692,#693,#694));
#238=EDGE_LOOP('',(#695,#696,#697,#698));
#239=EDGE_LOOP('',(#699));
#240=EDGE_LOOP('',(#700));
#241=EDGE_LOOP('',(#701));
#242=EDGE_LOOP('',(#702));
#243=EDGE_LOOP('',(#703,#704,#705,#706));
#244=EDGE_LOOP('',(#707));
#245=EDGE_LOOP('',(#708));
#246=EDGE_LOOP('',(#709,#710,#711,#712));
#247=EDGE_LOOP('',(#713));
#248=EDGE_LOOP('',(#714));
#249=EDGE_LOOP('',(#715,#716,#717,#718));
#250=EDGE_LOOP('',(#719,#720,#721,#722));
#251=EDGE_LOOP('',(#723,#724,#725,#726));
#252=EDGE_LOOP('',(#727));
#253=EDGE_LOOP('',(#728,#729,#730,#731));
#254=EDGE_LOOP('',(#732,#733,#734,#735));
#255=EDGE_LOOP('',(#736));
#256=EDGE_LOOP('',(#737));
#257=EDGE_LOOP('',(#738));
#258=EDGE_LOOP('',(#739,#740,#741,#742));
#259=EDGE_LOOP('',(#743,#744,#745,#746));
#260=EDGE_LOOP('',(#747,#748,#749,#750));
#261=EDGE_LOOP('',(#751));
#262=EDGE_LOOP('',(#752,#753,#754,#755));
#263=EDGE_LOOP('',(#756));
#264=EDGE_LOOP('',(#757));
#265=EDGE_LOOP('',(#758));
#266=EDGE_LOOP('',(#759));
#267=EDGE_LOOP('',(#760));
#268=EDGE_LOOP('',(#761));
#269=EDGE_LOOP('',(#762));
#270=EDGE_LOOP('',(#763));
#271=EDGE_LOOP('',(#764));
#272=EDGE_LOOP('',(#765));
#273=EDGE_LOOP('',(#766));
#274=EDGE_LOOP('',(#767));
#275=EDGE_LOOP('',(#768));
#276=EDGE_LOOP('',(#769));
#277=EDGE_LOOP('',(#770));
#278=EDGE_LOOP('',(#771,#772,#773,#774));
#279=EDGE_LOOP('',(#775,#776,#777,#778));
#280=EDGE_LOOP('',(#779,#780,#781,#782));
#281=EDGE_LOOP('',(#783,#784,#785,#786));
#282=EDGE_LOOP('',(#787,#788,#789,#790));
#283=EDGE_LOOP('',(#791,#792,#793,#794));
#284=EDGE_LOOP('',(#795,#796,#797,#798));
#285=EDGE_LOOP('',(#799,#800,#801,#802));
#286=EDGE_LOOP('',(#803,#804,#805,#806));
#287=EDGE_LOOP('',(#807,#808,#809,#810));
#288=EDGE_LOOP('',(#811));
#289=EDGE_LOOP('',(#812));
#290=EDGE_LOOP('',(#813));
#291=EDGE_LOOP('',(#814));
#292=EDGE_LOOP('',(#815));
#293=EDGE_LOOP('',(#816));
#294=EDGE_LOOP('',(#817));
#295=EDGE_LOOP('',(#818));
#296=EDGE_LOOP('',(#819));
#297=EDGE_LOOP('',(#820));
#298=EDGE_LOOP('',(#821));
#299=EDGE_LOOP('',(#822));
#300=EDGE_LOOP('',(#823));
#301=EDGE_LOOP('',(#824));
#302=EDGE_LOOP('',(#825));
#303=EDGE_LOOP('',(#826));
#304=EDGE_LOOP('',(#827));
#305=EDGE_LOOP('',(#828));
#306=EDGE_LOOP('',(#829));
#307=EDGE_LOOP('',(#830));
#308=EDGE_LOOP('',(#831,#832,#833,#834));
#309=EDGE_LOOP('',(#835,#836,#837,#838));
#310=EDGE_LOOP('',(#839,#840,#841,#842));
#311=EDGE_LOOP('',(#843));
#312=EDGE_LOOP('',(#844));
#313=LINE('',#1447,#350);
#314=LINE('',#1451,#351);
#315=LINE('',#1456,#352);
#316=LINE('',#1460,#353);
#317=LINE('',#1465,#354);
#318=LINE('',#1473,#355);
#319=LINE('',#1480,#356);
#320=LINE('',#1487,#357);
#321=LINE('',#1493,#358);
#322=LINE('',#1499,#359);
#323=LINE('',#1507,#360);
#324=LINE('',#1514,#361);
#325=LINE('',#1519,#362);
#326=LINE('',#1529,#363);
#327=LINE('',#1536,#364);
#328=LINE('',#1541,#365);
#329=LINE('',#1547,#366);
#330=LINE('',#1553,#367);
#331=LINE('',#1560,#368);
#332=LINE('',#1566,#369);
#333=LINE('',#1577,#370);
#334=LINE('',#1583,#371);
#335=LINE('',#1589,#372);
#336=LINE('',#1596,#373);
#337=LINE('',#1635,#374);
#338=LINE('',#1639,#375);
#339=LINE('',#1643,#376);
#340=LINE('',#1647,#377);
#341=LINE('',#1651,#378);
#342=LINE('',#1655,#379);
#343=LINE('',#1659,#380);
#344=LINE('',#1663,#381);
#345=LINE('',#1667,#382);
#346=LINE('',#1671,#383);
#347=LINE('',#1679,#384);
#348=LINE('',#1681,#385);
#349=LINE('',#1686,#386);
#350=VECTOR('',#1122,0.775);
#351=VECTOR('',#1127,1.55);
#352=VECTOR('',#1132,0.775);
#353=VECTOR('',#1137,1.55);
#354=VECTOR('',#1142,19.5778948805763);
#355=VECTOR('',#1153,25.95);
#356=VECTOR('',#1162,26.375);
#357=VECTOR('',#1171,1.55);
#358=VECTOR('',#1178,1.55);
#359=VECTOR('',#1185,18.5747045256125);
#360=VECTOR('',#1196,26.35);
#361=VECTOR('',#1205,1.5875);
#362=VECTOR('',#1212,3.175);
#363=VECTOR('',#1225,18.161);
#364=VECTOR('',#1234,18.034);
#365=VECTOR('',#1241,18.161);
#366=VECTOR('',#1248,2.);
#367=VECTOR('',#1255,2.);
#368=VECTOR('',#1264,2.);
#369=VECTOR('',#1271,2.);
#370=VECTOR('',#1284,2.);
#371=VECTOR('',#1291,2.);
#372=VECTOR('',#1298,2.);
#373=VECTOR('',#1307,2.);
#374=VECTOR('',#1362,1.5875);
#375=VECTOR('',#1367,1.5875);
#376=VECTOR('',#1372,1.5875);
#377=VECTOR('',#1377,1.5875);
#378=VECTOR('',#1382,1.5875);
#379=VECTOR('',#1387,1.5875);
#380=VECTOR('',#1392,1.5875);
#381=VECTOR('',#1397,1.5875);
#382=VECTOR('',#1402,1.5875);
#383=VECTOR('',#1407,1.5875);
#384=VECTOR('',#1418,44.96825);
#385=VECTOR('',#1421,26.5);
#386=VECTOR('',#1426,12.5);
#387=CIRCLE('',#972,1.55);
#388=CIRCLE('',#974,1.55);
#389=CIRCLE('',#976,1.55);
#390=CIRCLE('',#978,1.55);
#391=CIRCLE('',#980,21.0057897611526);
#392=CIRCLE('',#981,18.15);
#393=CIRCLE('',#983,25.95);
#394=CIRCLE('',#985,25.95);
#395=CIRCLE('',#987,25.925);
#396=CIRCLE('',#989,25.925);
#397=CIRCLE('',#993,1.55);
#398=CIRCLE('',#994,1.55);
#399=CIRCLE('',#996,1.55);
#400=CIRCLE('',#997,1.55);
#401=CIRCLE('',#999,16.375);
#402=CIRCLE('',#1000,20.774409051225);
#403=CIRCLE('',#1002,25.925);
#404=CIRCLE('',#1004,25.925);
#405=CIRCLE('',#1008,3.175);
#406=CIRCLE('',#1009,3.06780931233247);
#407=CIRCLE('',#1011,3.175);
#408=CIRCLE('',#1013,15.875);
#409=CIRCLE('',#1015,15.875);
#410=CIRCLE('',#1017,20.447);
#411=CIRCLE('',#1019,18.034);
#412=CIRCLE('',#1021,18.034);
#413=CIRCLE('',#1023,20.447);
#414=CIRCLE('',#1027,2.);
#415=CIRCLE('',#1028,2.);
#416=CIRCLE('',#1030,2.);
#417=CIRCLE('',#1031,2.);
#418=CIRCLE('',#1034,2.);
#419=CIRCLE('',#1035,2.);
#420=CIRCLE('',#1037,2.);
#421=CIRCLE('',#1038,2.);
#422=CIRCLE('',#1040,44.96825);
#423=CIRCLE('',#1041,26.5);
#424=CIRCLE('',#1042,2.);
#425=CIRCLE('',#1044,2.);
#426=CIRCLE('',#1046,2.);
#427=CIRCLE('',#1047,2.);
#428=CIRCLE('',#1049,2.);
#429=CIRCLE('',#1050,2.);
#430=CIRCLE('',#1053,2.);
#431=CIRCLE('',#1054,2.);
#432=CIRCLE('',#1057,1.5875);
#433=CIRCLE('',#1059,1.5875);
#434=CIRCLE('',#1063,1.5875);
#435=CIRCLE('',#1065,1.5875);
#436=CIRCLE('',#1067,1.5875);
#437=CIRCLE('',#1070,1.5875);
#438=CIRCLE('',#1072,1.5875);
#439=CIRCLE('',#1075,1.5875);
#440=CIRCLE('',#1077,1.5875);
#441=CIRCLE('',#1079,1.5875);
#442=CIRCLE('',#1081,1.5875);
#443=CIRCLE('',#1083,1.5875);
#444=CIRCLE('',#1085,1.5875);
#445=CIRCLE('',#1087,1.5875);
#446=CIRCLE('',#1089,1.5875);
#447=CIRCLE('',#1091,1.5875);
#448=CIRCLE('',#1093,1.5875);
#449=CIRCLE('',#1095,1.5875);
#450=CIRCLE('',#1097,1.5875);
#451=CIRCLE('',#1099,1.5875);
#452=CIRCLE('',#1101,44.96825);
#453=CIRCLE('',#1102,26.5);
#454=CIRCLE('',#1106,12.5);
#455=CIRCLE('',#1107,12.5);
#456=VERTEX_POINT('',#1444);
#457=VERTEX_POINT('',#1446);
#458=VERTEX_POINT('',#1449);
#459=VERTEX_POINT('',#1453);
#460=VERTEX_POINT('',#1455);
#461=VERTEX_POINT('',#1458);
#462=VERTEX_POINT('',#1462);
#463=VERTEX_POINT('',#1464);
#464=VERTEX_POINT('',#1468);
#465=VERTEX_POINT('',#1471);
#466=VERTEX_POINT('',#1475);
#467=VERTEX_POINT('',#1478);
#468=VERTEX_POINT('',#1484);
#469=VERTEX_POINT('',#1486);
#470=VERTEX_POINT('',#1490);
#471=VERTEX_POINT('',#1492);
#472=VERTEX_POINT('',#1496);
#473=VERTEX_POINT('',#1498);
#474=VERTEX_POINT('',#1502);
#475=VERTEX_POINT('',#1505);
#476=VERTEX_POINT('',#1511);
#477=VERTEX_POINT('',#1513);
#478=VERTEX_POINT('',#1517);
#479=VERTEX_POINT('',#1521);
#480=VERTEX_POINT('',#1524);
#481=VERTEX_POINT('',#1527);
#482=VERTEX_POINT('',#1531);
#483=VERTEX_POINT('',#1534);
#484=VERTEX_POINT('',#1538);
#485=VERTEX_POINT('',#1544);
#486=VERTEX_POINT('',#1546);
#487=VERTEX_POINT('',#1550);
#488=VERTEX_POINT('',#1552);
#489=VERTEX_POINT('',#1557);
#490=VERTEX_POINT('',#1559);
#491=VERTEX_POINT('',#1563);
#492=VERTEX_POINT('',#1565);
#493=VERTEX_POINT('',#1569);
#494=VERTEX_POINT('',#1571);
#495=VERTEX_POINT('',#1573);
#496=VERTEX_POINT('',#1576);
#497=VERTEX_POINT('',#1580);
#498=VERTEX_POINT('',#1582);
#499=VERTEX_POINT('',#1586);
#500=VERTEX_POINT('',#1588);
#501=VERTEX_POINT('',#1593);
#502=VERTEX_POINT('',#1595);
#503=VERTEX_POINT('',#1600);
#504=VERTEX_POINT('',#1603);
#505=VERTEX_POINT('',#1608);
#506=VERTEX_POINT('',#1611);
#507=VERTEX_POINT('',#1614);
#508=VERTEX_POINT('',#1618);
#509=VERTEX_POINT('',#1621);
#510=VERTEX_POINT('',#1625);
#511=VERTEX_POINT('',#1628);
#512=VERTEX_POINT('',#1631);
#513=VERTEX_POINT('',#1634);
#514=VERTEX_POINT('',#1638);
#515=VERTEX_POINT('',#1642);
#516=VERTEX_POINT('',#1646);
#517=VERTEX_POINT('',#1650);
#518=VERTEX_POINT('',#1654);
#519=VERTEX_POINT('',#1658);
#520=VERTEX_POINT('',#1662);
#521=VERTEX_POINT('',#1666);
#522=VERTEX_POINT('',#1670);
#523=VERTEX_POINT('',#1674);
#524=VERTEX_POINT('',#1676);
#525=VERTEX_POINT('',#1683);
#526=VERTEX_POINT('',#1685);
#527=EDGE_CURVE('',#456,#456,#387,.T.);
#528=EDGE_CURVE('',#456,#457,#313,.T.);
#529=EDGE_CURVE('',#458,#458,#388,.T.);
#530=EDGE_CURVE('',#458,#456,#314,.T.);
#531=EDGE_CURVE('',#459,#459,#389,.T.);
#532=EDGE_CURVE('',#459,#460,#315,.T.);
#533=EDGE_CURVE('',#461,#461,#390,.T.);
#534=EDGE_CURVE('',#461,#459,#316,.T.);
#535=EDGE_CURVE('',#462,#462,#391,.T.);
#536=EDGE_CURVE('',#462,#463,#317,.T.);
#537=EDGE_CURVE('',#463,#463,#392,.T.);
#538=EDGE_CURVE('',#464,#464,#393,.T.);
#539=EDGE_CURVE('',#465,#465,#394,.T.);
#540=EDGE_CURVE('',#465,#464,#318,.T.);
#541=EDGE_CURVE('',#466,#466,#395,.T.);
#542=EDGE_CURVE('',#467,#467,#396,.F.);
#543=EDGE_CURVE('',#467,#466,#319,.T.);
#544=EDGE_CURVE('',#468,#468,#397,.T.);
#545=EDGE_CURVE('',#468,#469,#320,.T.);
#546=EDGE_CURVE('',#469,#469,#398,.T.);
#547=EDGE_CURVE('',#470,#470,#399,.T.);
#548=EDGE_CURVE('',#470,#471,#321,.T.);
#549=EDGE_CURVE('',#471,#471,#400,.T.);
#550=EDGE_CURVE('',#472,#472,#401,.T.);
#551=EDGE_CURVE('',#472,#473,#322,.T.);
#552=EDGE_CURVE('',#473,#473,#402,.T.);
#553=EDGE_CURVE('',#474,#474,#403,.T.);
#554=EDGE_CURVE('',#475,#475,#404,.F.);
#555=EDGE_CURVE('',#475,#474,#323,.T.);
#556=EDGE_CURVE('',#476,#476,#405,.T.);
#557=EDGE_CURVE('',#476,#477,#324,.T.);
#558=EDGE_CURVE('',#477,#477,#406,.T.);
#559=EDGE_CURVE('',#478,#478,#407,.T.);
#560=EDGE_CURVE('',#478,#476,#325,.T.);
#561=EDGE_CURVE('',#479,#479,#408,.T.);
#562=EDGE_CURVE('',#480,#480,#409,.T.);
#563=EDGE_CURVE('',#481,#481,#410,.T.);
#564=EDGE_CURVE('',#481,#480,#326,.T.);
#565=EDGE_CURVE('',#482,#482,#411,.T.);
#566=EDGE_CURVE('',#483,#483,#412,.T.);
#567=EDGE_CURVE('',#483,#482,#327,.T.);
#568=EDGE_CURVE('',#484,#484,#413,.T.);
#569=EDGE_CURVE('',#479,#484,#328,.T.);
#570=EDGE_CURVE('',#485,#485,#414,.T.);
#571=EDGE_CURVE('',#485,#486,#329,.T.);
#572=EDGE_CURVE('',#486,#486,#415,.T.);
#573=EDGE_CURVE('',#487,#487,#416,.T.);
#574=EDGE_CURVE('',#487,#488,#330,.T.);
#575=EDGE_CURVE('',#488,#488,#417,.T.);
#576=EDGE_CURVE('',#489,#489,#418,.T.);
#577=EDGE_CURVE('',#489,#490,#331,.T.);
#578=EDGE_CURVE('',#490,#490,#419,.T.);
#579=EDGE_CURVE('',#491,#491,#420,.T.);
#580=EDGE_CURVE('',#491,#492,#332,.T.);
#581=EDGE_CURVE('',#492,#492,#421,.T.);
#582=EDGE_CURVE('',#493,#493,#422,.T.);
#583=EDGE_CURVE('',#494,#494,#423,.T.);
#584=EDGE_CURVE('',#495,#495,#424,.T.);
#585=EDGE_CURVE('',#495,#496,#333,.T.);
#586=EDGE_CURVE('',#496,#496,#425,.T.);
#587=EDGE_CURVE('',#497,#497,#426,.T.);
#588=EDGE_CURVE('',#497,#498,#334,.T.);
#589=EDGE_CURVE('',#498,#498,#427,.T.);
#590=EDGE_CURVE('',#499,#499,#428,.T.);
#591=EDGE_CURVE('',#499,#500,#335,.T.);
#592=EDGE_CURVE('',#500,#500,#429,.T.);
#593=EDGE_CURVE('',#501,#501,#430,.T.);
#594=EDGE_CURVE('',#501,#502,#336,.T.);
#595=EDGE_CURVE('',#502,#502,#431,.T.);
#596=EDGE_CURVE('',#503,#503,#432,.T.);
#597=EDGE_CURVE('',#504,#504,#433,.T.);
#598=EDGE_CURVE('',#505,#505,#434,.T.);
#599=EDGE_CURVE('',#506,#506,#435,.T.);
#600=EDGE_CURVE('',#507,#507,#436,.T.);
#601=EDGE_CURVE('',#508,#508,#437,.T.);
#602=EDGE_CURVE('',#509,#509,#438,.T.);
#603=EDGE_CURVE('',#510,#510,#439,.T.);
#604=EDGE_CURVE('',#511,#511,#440,.T.);
#605=EDGE_CURVE('',#512,#512,#441,.T.);
#606=EDGE_CURVE('',#503,#513,#337,.T.);
#607=EDGE_CURVE('',#513,#513,#442,.T.);
#608=EDGE_CURVE('',#504,#514,#338,.T.);
#609=EDGE_CURVE('',#514,#514,#443,.T.);
#610=EDGE_CURVE('',#505,#515,#339,.T.);
#611=EDGE_CURVE('',#515,#515,#444,.T.);
#612=EDGE_CURVE('',#506,#516,#340,.T.);
#613=EDGE_CURVE('',#516,#516,#445,.T.);
#614=EDGE_CURVE('',#507,#517,#341,.T.);
#615=EDGE_CURVE('',#517,#517,#446,.T.);
#616=EDGE_CURVE('',#508,#518,#342,.T.);
#617=EDGE_CURVE('',#518,#518,#447,.T.);
#618=EDGE_CURVE('',#509,#519,#343,.T.);
#619=EDGE_CURVE('',#519,#519,#448,.T.);
#620=EDGE_CURVE('',#510,#520,#344,.T.);
#621=EDGE_CURVE('',#520,#520,#449,.T.);
#622=EDGE_CURVE('',#511,#521,#345,.T.);
#623=EDGE_CURVE('',#521,#521,#450,.T.);
#624=EDGE_CURVE('',#512,#522,#346,.T.);
#625=EDGE_CURVE('',#522,#522,#451,.T.);
#626=EDGE_CURVE('',#523,#523,#452,.T.);
#627=EDGE_CURVE('',#524,#524,#453,.T.);
#628=EDGE_CURVE('',#523,#493,#347,.T.);
#629=EDGE_CURVE('',#524,#494,#348,.T.);
#630=EDGE_CURVE('',#525,#525,#454,.T.);
#631=EDGE_CURVE('',#525,#526,#349,.T.);
#632=EDGE_CURVE('',#526,#526,#455,.T.);
#633=ORIENTED_EDGE('',*,*,#527,.F.);
#634=ORIENTED_EDGE('',*,*,#528,.T.);
#635=ORIENTED_EDGE('',*,*,#528,.F.);
#636=ORIENTED_EDGE('',*,*,#529,.F.);
#637=ORIENTED_EDGE('',*,*,#530,.T.);
#638=ORIENTED_EDGE('',*,*,#527,.T.);
#639=ORIENTED_EDGE('',*,*,#530,.F.);
#640=ORIENTED_EDGE('',*,*,#531,.F.);
#641=ORIENTED_EDGE('',*,*,#532,.T.);
#642=ORIENTED_EDGE('',*,*,#532,.F.);
#643=ORIENTED_EDGE('',*,*,#533,.F.);
#644=ORIENTED_EDGE('',*,*,#534,.T.);
#645=ORIENTED_EDGE('',*,*,#531,.T.);
#646=ORIENTED_EDGE('',*,*,#534,.F.);
#647=ORIENTED_EDGE('',*,*,#535,.T.);
#648=ORIENTED_EDGE('',*,*,#536,.T.);
#649=ORIENTED_EDGE('',*,*,#537,.F.);
#650=ORIENTED_EDGE('',*,*,#536,.F.);
#651=ORIENTED_EDGE('',*,*,#538,.F.);
#652=ORIENTED_EDGE('',*,*,#537,.T.);
#653=ORIENTED_EDGE('',*,*,#539,.F.);
#654=ORIENTED_EDGE('',*,*,#540,.T.);
#655=ORIENTED_EDGE('',*,*,#538,.T.);
#656=ORIENTED_EDGE('',*,*,#540,.F.);
#657=ORIENTED_EDGE('',*,*,#539,.T.);
#658=ORIENTED_EDGE('',*,*,#541,.F.);
#659=ORIENTED_EDGE('',*,*,#542,.F.);
#660=ORIENTED_EDGE('',*,*,#543,.T.);
#661=ORIENTED_EDGE('',*,*,#541,.T.);
#662=ORIENTED_EDGE('',*,*,#543,.F.);
#663=ORIENTED_EDGE('',*,*,#542,.T.);
#664=ORIENTED_EDGE('',*,*,#529,.T.);
#665=ORIENTED_EDGE('',*,*,#533,.T.);
#666=ORIENTED_EDGE('',*,*,#535,.F.);
#667=ORIENTED_EDGE('',*,*,#544,.F.);
#668=ORIENTED_EDGE('',*,*,#545,.T.);
#669=ORIENTED_EDGE('',*,*,#546,.F.);
#670=ORIENTED_EDGE('',*,*,#545,.F.);
#671=ORIENTED_EDGE('',*,*,#547,.F.);
#672=ORIENTED_EDGE('',*,*,#548,.T.);
#673=ORIENTED_EDGE('',*,*,#549,.F.);
#674=ORIENTED_EDGE('',*,*,#548,.F.);
#675=ORIENTED_EDGE('',*,*,#550,.T.);
#676=ORIENTED_EDGE('',*,*,#551,.T.);
#677=ORIENTED_EDGE('',*,*,#552,.F.);
#678=ORIENTED_EDGE('',*,*,#551,.F.);
#679=ORIENTED_EDGE('',*,*,#553,.F.);
#680=ORIENTED_EDGE('',*,*,#546,.T.);
#681=ORIENTED_EDGE('',*,*,#549,.T.);
#682=ORIENTED_EDGE('',*,*,#552,.T.);
#683=ORIENTED_EDGE('',*,*,#554,.F.);
#684=ORIENTED_EDGE('',*,*,#555,.T.);
#685=ORIENTED_EDGE('',*,*,#553,.T.);
#686=ORIENTED_EDGE('',*,*,#555,.F.);
#687=ORIENTED_EDGE('',*,*,#554,.T.);
#688=ORIENTED_EDGE('',*,*,#544,.T.);
#689=ORIENTED_EDGE('',*,*,#547,.T.);
#690=ORIENTED_EDGE('',*,*,#550,.F.);
#691=ORIENTED_EDGE('',*,*,#556,.F.);
#692=ORIENTED_EDGE('',*,*,#557,.T.);
#693=ORIENTED_EDGE('',*,*,#558,.F.);
#694=ORIENTED_EDGE('',*,*,#557,.F.);
#695=ORIENTED_EDGE('',*,*,#559,.F.);
#696=ORIENTED_EDGE('',*,*,#560,.T.);
#697=ORIENTED_EDGE('',*,*,#556,.T.);
#698=ORIENTED_EDGE('',*,*,#560,.F.);
#699=ORIENTED_EDGE('',*,*,#561,.T.);
#700=ORIENTED_EDGE('',*,*,#559,.T.);
#701=ORIENTED_EDGE('',*,*,#562,.F.);
#702=ORIENTED_EDGE('',*,*,#558,.T.);
#703=ORIENTED_EDGE('',*,*,#563,.F.);
#704=ORIENTED_EDGE('',*,*,#564,.T.);
#705=ORIENTED_EDGE('',*,*,#562,.T.);
#706=ORIENTED_EDGE('',*,*,#564,.F.);
#707=ORIENTED_EDGE('',*,*,#563,.T.);
#708=ORIENTED_EDGE('',*,*,#565,.F.);
#709=ORIENTED_EDGE('',*,*,#566,.F.);
#710=ORIENTED_EDGE('',*,*,#567,.T.);
#711=ORIENTED_EDGE('',*,*,#565,.T.);
#712=ORIENTED_EDGE('',*,*,#567,.F.);
#713=ORIENTED_EDGE('',*,*,#568,.F.);
#714=ORIENTED_EDGE('',*,*,#566,.T.);
#715=ORIENTED_EDGE('',*,*,#561,.F.);
#716=ORIENTED_EDGE('',*,*,#569,.T.);
#717=ORIENTED_EDGE('',*,*,#568,.T.);
#718=ORIENTED_EDGE('',*,*,#569,.F.);
#719=ORIENTED_EDGE('',*,*,#570,.F.);
#720=ORIENTED_EDGE('',*,*,#571,.T.);
#721=ORIENTED_EDGE('',*,*,#572,.T.);
#722=ORIENTED_EDGE('',*,*,#571,.F.);
#723=ORIENTED_EDGE('',*,*,#573,.F.);
#724=ORIENTED_EDGE('',*,*,#574,.T.);
#725=ORIENTED_EDGE('',*,*,#575,.T.);
#726=ORIENTED_EDGE('',*,*,#574,.F.);
#727=ORIENTED_EDGE('',*,*,#573,.T.);
#728=ORIENTED_EDGE('',*,*,#576,.F.);
#729=ORIENTED_EDGE('',*,*,#577,.T.);
#730=ORIENTED_EDGE('',*,*,#578,.T.);
#731=ORIENTED_EDGE('',*,*,#577,.F.);
#732=ORIENTED_EDGE('',*,*,#579,.F.);
#733=ORIENTED_EDGE('',*,*,#580,.T.);
#734=ORIENTED_EDGE('',*,*,#581,.T.);
#735=ORIENTED_EDGE('',*,*,#580,.F.);
#736=ORIENTED_EDGE('',*,*,#582,.F.);
#737=ORIENTED_EDGE('',*,*,#583,.T.);
#738=ORIENTED_EDGE('',*,*,#584,.F.);
#739=ORIENTED_EDGE('',*,*,#584,.T.);
#740=ORIENTED_EDGE('',*,*,#585,.T.);
#741=ORIENTED_EDGE('',*,*,#586,.T.);
#742=ORIENTED_EDGE('',*,*,#585,.F.);
#743=ORIENTED_EDGE('',*,*,#587,.F.);
#744=ORIENTED_EDGE('',*,*,#588,.T.);
#745=ORIENTED_EDGE('',*,*,#589,.T.);
#746=ORIENTED_EDGE('',*,*,#588,.F.);
#747=ORIENTED_EDGE('',*,*,#590,.F.);
#748=ORIENTED_EDGE('',*,*,#591,.T.);
#749=ORIENTED_EDGE('',*,*,#592,.T.);
#750=ORIENTED_EDGE('',*,*,#591,.F.);
#751=ORIENTED_EDGE('',*,*,#590,.T.);
#752=ORIENTED_EDGE('',*,*,#593,.F.);
#753=ORIENTED_EDGE('',*,*,#594,.T.);
#754=ORIENTED_EDGE('',*,*,#595,.T.);
#755=ORIENTED_EDGE('',*,*,#594,.F.);
#756=ORIENTED_EDGE('',*,*,#593,.T.);
#757=ORIENTED_EDGE('',*,*,#596,.T.);
#758=ORIENTED_EDGE('',*,*,#597,.T.);
#759=ORIENTED_EDGE('',*,*,#587,.T.);
#760=ORIENTED_EDGE('',*,*,#576,.T.);
#761=ORIENTED_EDGE('',*,*,#598,.T.);
#762=ORIENTED_EDGE('',*,*,#599,.T.);
#763=ORIENTED_EDGE('',*,*,#600,.T.);
#764=ORIENTED_EDGE('',*,*,#570,.T.);
#765=ORIENTED_EDGE('',*,*,#601,.T.);
#766=ORIENTED_EDGE('',*,*,#602,.T.);
#767=ORIENTED_EDGE('',*,*,#579,.T.);
#768=ORIENTED_EDGE('',*,*,#603,.T.);
#769=ORIENTED_EDGE('',*,*,#604,.T.);
#770=ORIENTED_EDGE('',*,*,#605,.T.);
#771=ORIENTED_EDGE('',*,*,#596,.F.);
#772=ORIENTED_EDGE('',*,*,#606,.T.);
#773=ORIENTED_EDGE('',*,*,#607,.T.);
#774=ORIENTED_EDGE('',*,*,#606,.F.);
#775=ORIENTED_EDGE('',*,*,#597,.F.);
#776=ORIENTED_EDGE('',*,*,#608,.T.);
#777=ORIENTED_EDGE('',*,*,#609,.T.);
#778=ORIENTED_EDGE('',*,*,#608,.F.);
#779=ORIENTED_EDGE('',*,*,#598,.F.);
#780=ORIENTED_EDGE('',*,*,#610,.T.);
#781=ORIENTED_EDGE('',*,*,#611,.T.);
#782=ORIENTED_EDGE('',*,*,#610,.F.);
#783=ORIENTED_EDGE('',*,*,#599,.F.);
#784=ORIENTED_EDGE('',*,*,#612,.T.);
#785=ORIENTED_EDGE('',*,*,#613,.T.);
#786=ORIENTED_EDGE('',*,*,#612,.F.);
#787=ORIENTED_EDGE('',*,*,#600,.F.);
#788=ORIENTED_EDGE('',*,*,#614,.T.);
#789=ORIENTED_EDGE('',*,*,#615,.T.);
#790=ORIENTED_EDGE('',*,*,#614,.F.);
#791=ORIENTED_EDGE('',*,*,#601,.F.);
#792=ORIENTED_EDGE('',*,*,#616,.T.);
#793=ORIENTED_EDGE('',*,*,#617,.T.);
#794=ORIENTED_EDGE('',*,*,#616,.F.);
#795=ORIENTED_EDGE('',*,*,#602,.F.);
#796=ORIENTED_EDGE('',*,*,#618,.T.);
#797=ORIENTED_EDGE('',*,*,#619,.T.);
#798=ORIENTED_EDGE('',*,*,#618,.F.);
#799=ORIENTED_EDGE('',*,*,#603,.F.);
#800=ORIENTED_EDGE('',*,*,#620,.T.);
#801=ORIENTED_EDGE('',*,*,#621,.T.);
#802=ORIENTED_EDGE('',*,*,#620,.F.);
#803=ORIENTED_EDGE('',*,*,#604,.F.);
#804=ORIENTED_EDGE('',*,*,#622,.T.);
#805=ORIENTED_EDGE('',*,*,#623,.T.);
#806=ORIENTED_EDGE('',*,*,#622,.F.);
#807=ORIENTED_EDGE('',*,*,#605,.F.);
#808=ORIENTED_EDGE('',*,*,#624,.T.);
#809=ORIENTED_EDGE('',*,*,#625,.T.);
#810=ORIENTED_EDGE('',*,*,#624,.F.);
#811=ORIENTED_EDGE('',*,*,#626,.F.);
#812=ORIENTED_EDGE('',*,*,#625,.F.);
#813=ORIENTED_EDGE('',*,*,#623,.F.);
#814=ORIENTED_EDGE('',*,*,#592,.F.);
#815=ORIENTED_EDGE('',*,*,#586,.F.);
#816=ORIENTED_EDGE('',*,*,#621,.F.);
#817=ORIENTED_EDGE('',*,*,#581,.F.);
#818=ORIENTED_EDGE('',*,*,#619,.F.);
#819=ORIENTED_EDGE('',*,*,#617,.F.);
#820=ORIENTED_EDGE('',*,*,#572,.F.);
#821=ORIENTED_EDGE('',*,*,#615,.F.);
#822=ORIENTED_EDGE('',*,*,#575,.F.);
#823=ORIENTED_EDGE('',*,*,#613,.F.);
#824=ORIENTED_EDGE('',*,*,#611,.F.);
#825=ORIENTED_EDGE('',*,*,#578,.F.);
#826=ORIENTED_EDGE('',*,*,#589,.F.);
#827=ORIENTED_EDGE('',*,*,#595,.F.);
#828=ORIENTED_EDGE('',*,*,#609,.F.);
#829=ORIENTED_EDGE('',*,*,#607,.F.);
#830=ORIENTED_EDGE('',*,*,#627,.T.);
#831=ORIENTED_EDGE('',*,*,#626,.T.);
#832=ORIENTED_EDGE('',*,*,#628,.T.);
#833=ORIENTED_EDGE('',*,*,#582,.T.);
#834=ORIENTED_EDGE('',*,*,#628,.F.);
#835=ORIENTED_EDGE('',*,*,#627,.F.);
#836=ORIENTED_EDGE('',*,*,#629,.T.);
#837=ORIENTED_EDGE('',*,*,#583,.F.);
#838=ORIENTED_EDGE('',*,*,#629,.F.);
#839=ORIENTED_EDGE('',*,*,#630,.F.);
#840=ORIENTED_EDGE('',*,*,#631,.T.);
#841=ORIENTED_EDGE('',*,*,#632,.F.);
#842=ORIENTED_EDGE('',*,*,#631,.F.);
#843=ORIENTED_EDGE('',*,*,#632,.T.);
#844=ORIENTED_EDGE('',*,*,#630,.T.);
#845=CONICAL_SURFACE('',#971,0.775,1.02974425867665);
#846=CONICAL_SURFACE('',#975,0.775,1.02974425867665);
#847=CONICAL_SURFACE('',#979,19.5778948805763,0.139626340159546);
#848=CONICAL_SURFACE('',#998,18.5747045256125,0.523598775598299);
#849=CONICAL_SURFACE('',#1007,1.5875,1.02974425867665);
#850=CONICAL_SURFACE('',#1016,18.161,0.139626340159545);
#851=CONICAL_SURFACE('',#1024,18.161,0.523598775598294);
#852=ADVANCED_FACE('',(#143),#845,.F.);
#853=ADVANCED_FACE('',(#144),#113,.F.);
#854=ADVANCED_FACE('',(#145),#846,.F.);
#855=ADVANCED_FACE('',(#146),#114,.F.);
#856=ADVANCED_FACE('',(#147),#847,.F.);
#857=ADVANCED_FACE('',(#148,#47),#83,.T.);
#858=ADVANCED_FACE('',(#149),#115,.T.);
#859=ADVANCED_FACE('',(#150,#48),#84,.F.);
#860=ADVANCED_FACE('',(#151),#116,.T.);
#861=ADVANCED_FACE('',(#152,#49,#50,#51),#85,.T.);
#862=ADVANCED_FACE('',(#153),#117,.F.);
#863=ADVANCED_FACE('',(#154),#118,.F.);
#864=ADVANCED_FACE('',(#155),#848,.F.);
#865=ADVANCED_FACE('',(#156,#52,#53,#54),#86,.T.);
#866=ADVANCED_FACE('',(#157),#119,.T.);
#867=ADVANCED_FACE('',(#158,#55,#56,#57),#87,.T.);
#868=ADVANCED_FACE('',(#159),#849,.F.);
#869=ADVANCED_FACE('',(#160),#120,.F.);
#870=ADVANCED_FACE('',(#161,#58),#88,.T.);
#871=ADVANCED_FACE('',(#162,#59),#89,.T.);
#872=ADVANCED_FACE('',(#163),#850,.T.);
#873=ADVANCED_FACE('',(#164,#60),#90,.T.);
#874=ADVANCED_FACE('',(#165),#121,.T.);
#875=ADVANCED_FACE('',(#166,#61),#91,.T.);
#876=ADVANCED_FACE('',(#167),#851,.T.);
#877=ADVANCED_FACE('',(#168),#122,.F.);
#878=ADVANCED_FACE('',(#169),#123,.F.);
#879=ADVANCED_FACE('',(#170),#92,.T.);
#880=ADVANCED_FACE('',(#171),#124,.F.);
#881=ADVANCED_FACE('',(#172),#125,.F.);
#882=ADVANCED_FACE('',(#173,#62,#63),#93,.T.);
#883=ADVANCED_FACE('',(#174),#126,.F.);
#884=ADVANCED_FACE('',(#175),#127,.F.);
#885=ADVANCED_FACE('',(#176),#128,.F.);
#886=ADVANCED_FACE('',(#177),#94,.T.);
#887=ADVANCED_FACE('',(#178),#129,.F.);
#888=ADVANCED_FACE('',(#179),#95,.T.);
#889=ADVANCED_FACE('',(#180),#96,.T.);
#890=ADVANCED_FACE('',(#181),#97,.T.);
#891=ADVANCED_FACE('',(#182),#98,.T.);
#892=ADVANCED_FACE('',(#183),#99,.T.);
#893=ADVANCED_FACE('',(#184),#100,.T.);
#894=ADVANCED_FACE('',(#185),#101,.T.);
#895=ADVANCED_FACE('',(#186),#102,.T.);
#896=ADVANCED_FACE('',(#187),#103,.T.);
#897=ADVANCED_FACE('',(#188),#104,.T.);
#898=ADVANCED_FACE('',(#189),#105,.T.);
#899=ADVANCED_FACE('',(#190),#106,.T.);
#900=ADVANCED_FACE('',(#191),#107,.T.);
#901=ADVANCED_FACE('',(#192),#108,.T.);
#902=ADVANCED_FACE('',(#193),#109,.T.);
#903=ADVANCED_FACE('',(#194),#130,.F.);
#904=ADVANCED_FACE('',(#195),#131,.F.);
#905=ADVANCED_FACE('',(#196),#132,.F.);
#906=ADVANCED_FACE('',(#197),#133,.F.);
#907=ADVANCED_FACE('',(#198),#134,.F.);
#908=ADVANCED_FACE('',(#199),#135,.F.);
#909=ADVANCED_FACE('',(#200),#136,.F.);
#910=ADVANCED_FACE('',(#201),#137,.F.);
#911=ADVANCED_FACE('',(#202),#138,.F.);
#912=ADVANCED_FACE('',(#203),#139,.F.);
#913=ADVANCED_FACE('',(#204,#64,#65,#66,#67,#68,#69,#70,#71,#72,#73,#74,
#75,#76,#77,#78,#79,#80,#81,#82),#110,.T.);
#914=ADVANCED_FACE('',(#205),#140,.T.);
#915=ADVANCED_FACE('',(#206),#141,.F.);
#916=ADVANCED_FACE('',(#207),#142,.T.);
#917=ADVANCED_FACE('',(#208),#111,.T.);
#918=ADVANCED_FACE('',(#209),#112,.T.);
#919=CLOSED_SHELL('',(#852,#853,#854,#855,#856,#857,#858,#859,#860,#861));
#920=CLOSED_SHELL('',(#862,#863,#864,#865,#866,#867));
#921=CLOSED_SHELL('',(#868,#869,#870,#871,#872,#873,#874,#875,#876));
#922=CLOSED_SHELL('',(#877,#878,#879,#880,#881,#882,#883,#884,#885,#886,
#887,#888,#889,#890,#891,#892,#893,#894,#895,#896,#897,#898,#899,#900,#901,
#902,#903,#904,#905,#906,#907,#908,#909,#910,#911,#912,#913,#914,#915));
#923=CLOSED_SHELL('',(#916,#917,#918));
#924=DERIVED_UNIT_ELEMENT(#932,1.);
#925=DERIVED_UNIT_ELEMENT(#1707,-3.);
#926=DERIVED_UNIT_ELEMENT(#932,1.);
#927=DERIVED_UNIT_ELEMENT(#1707,-3.);
#928=DERIVED_UNIT_ELEMENT(#932,1.);
#929=DERIVED_UNIT_ELEMENT(#1707,-3.);
#930=DERIVED_UNIT_ELEMENT(#932,1.);
#931=DERIVED_UNIT_ELEMENT(#1707,-3.);
#932=(
MASS_UNIT()
NAMED_UNIT(*)
SI_UNIT(.KILO.,.GRAM.)
);
#933=DERIVED_UNIT((#924,#925));
#934=DERIVED_UNIT((#926,#927));
#935=DERIVED_UNIT((#928,#929));
#936=DERIVED_UNIT((#930,#931));
#937=MEASURE_REPRESENTATION_ITEM('density measure',
POSITIVE_RATIO_MEASURE(7850.),#933);
#938=MEASURE_REPRESENTATION_ITEM('density measure',
POSITIVE_RATIO_MEASURE(7850.),#934);
#939=MEASURE_REPRESENTATION_ITEM('density measure',
POSITIVE_RATIO_MEASURE(7850.),#935);
#940=MEASURE_REPRESENTATION_ITEM('density measure',
POSITIVE_RATIO_MEASURE(7850.),#936);
#941=PROPERTY_DEFINITION_REPRESENTATION(#961,#949);
#942=PROPERTY_DEFINITION_REPRESENTATION(#962,#950);
#943=PROPERTY_DEFINITION_REPRESENTATION(#963,#951);
#944=PROPERTY_DEFINITION_REPRESENTATION(#964,#952);
#945=PROPERTY_DEFINITION_REPRESENTATION(#965,#953);
#946=PROPERTY_DEFINITION_REPRESENTATION(#966,#954);
#947=PROPERTY_DEFINITION_REPRESENTATION(#967,#955);
#948=PROPERTY_DEFINITION_REPRESENTATION(#968,#956);
#949=REPRESENTATION('material name',(#957),#1701);
#950=REPRESENTATION('density',(#937),#1701);
#951=REPRESENTATION('material name',(#958),#1702);
#952=REPRESENTATION('density',(#938),#1702);
#953=REPRESENTATION('material name',(#959),#1703);
#954=REPRESENTATION('density',(#939),#1703);
#955=REPRESENTATION('material name',(#960),#1704);
#956=REPRESENTATION('density',(#940),#1704);
#957=DESCRIPTIVE_REPRESENTATION_ITEM('Steel','Steel');
#958=DESCRIPTIVE_REPRESENTATION_ITEM('Steel','Steel');
#959=DESCRIPTIVE_REPRESENTATION_ITEM('Steel','Steel');
#960=DESCRIPTIVE_REPRESENTATION_ITEM('Steel','Steel');
#961=PROPERTY_DEFINITION('material property','material name',#1731);
#962=PROPERTY_DEFINITION('material property','density of part',#1731);
#963=PROPERTY_DEFINITION('material property','material name',#1732);
#964=PROPERTY_DEFINITION('material property','density of part',#1732);
#965=PROPERTY_DEFINITION('material property','material name',#1733);
#966=PROPERTY_DEFINITION('material property','density of part',#1733);
#967=PROPERTY_DEFINITION('material property','material name',#1734);
#968=PROPERTY_DEFINITION('material property','density of part',#1734);
#969=AXIS2_PLACEMENT_3D('',#1441,#1114,#1115);
#970=AXIS2_PLACEMENT_3D('',#1442,#1116,#1117);
#971=AXIS2_PLACEMENT_3D('',#1443,#1118,#1119);
#972=AXIS2_PLACEMENT_3D('',#1445,#1120,#1121);
#973=AXIS2_PLACEMENT_3D('',#1448,#1123,#1124);
#974=AXIS2_PLACEMENT_3D('',#1450,#1125,#1126);
#975=AXIS2_PLACEMENT_3D('',#1452,#1128,#1129);
#976=AXIS2_PLACEMENT_3D('',#1454,#1130,#1131);
#977=AXIS2_PLACEMENT_3D('',#1457,#1133,#1134);
#978=AXIS2_PLACEMENT_3D('',#1459,#1135,#1136);
#979=AXIS2_PLACEMENT_3D('',#1461,#1138,#1139);
#980=AXIS2_PLACEMENT_3D('',#1463,#1140,#1141);
#981=AXIS2_PLACEMENT_3D('',#1466,#1143,#1144);
#982=AXIS2_PLACEMENT_3D('',#1467,#1145,#1146);
#983=AXIS2_PLACEMENT_3D('',#1469,#1147,#1148);
#984=AXIS2_PLACEMENT_3D('',#1470,#1149,#1150);
#985=AXIS2_PLACEMENT_3D('',#1472,#1151,#1152);
#986=AXIS2_PLACEMENT_3D('',#1474,#1154,#1155);
#987=AXIS2_PLACEMENT_3D('',#1476,#1156,#1157);
#988=AXIS2_PLACEMENT_3D('',#1477,#1158,#1159);
#989=AXIS2_PLACEMENT_3D('',#1479,#1160,#1161);
#990=AXIS2_PLACEMENT_3D('',#1481,#1163,#1164);
#991=AXIS2_PLACEMENT_3D('',#1482,#1165,#1166);
#992=AXIS2_PLACEMENT_3D('',#1483,#1167,#1168);
#993=AXIS2_PLACEMENT_3D('',#1485,#1169,#1170);
#994=AXIS2_PLACEMENT_3D('',#1488,#1172,#1173);
#995=AXIS2_PLACEMENT_3D('',#1489,#1174,#1175);
#996=AXIS2_PLACEMENT_3D('',#1491,#1176,#1177);
#997=AXIS2_PLACEMENT_3D('',#1494,#1179,#1180);
#998=AXIS2_PLACEMENT_3D('',#1495,#1181,#1182);
#999=AXIS2_PLACEMENT_3D('',#1497,#1183,#1184);
#1000=AXIS2_PLACEMENT_3D('',#1500,#1186,#1187);
#1001=AXIS2_PLACEMENT_3D('',#1501,#1188,#1189);
#1002=AXIS2_PLACEMENT_3D('',#1503,#1190,#1191);
#1003=AXIS2_PLACEMENT_3D('',#1504,#1192,#1193);
#1004=AXIS2_PLACEMENT_3D('',#1506,#1194,#1195);
#1005=AXIS2_PLACEMENT_3D('',#1508,#1197,#1198);
#1006=AXIS2_PLACEMENT_3D('',#1509,#1199,#1200);
#1007=AXIS2_PLACEMENT_3D('',#1510,#1201,#1202);
#1008=AXIS2_PLACEMENT_3D('',#1512,#1203,#1204);
#1009=AXIS2_PLACEMENT_3D('',#1515,#1206,#1207);
#1010=AXIS2_PLACEMENT_3D('',#1516,#1208,#1209);
#1011=AXIS2_PLACEMENT_3D('',#1518,#1210,#1211);
#1012=AXIS2_PLACEMENT_3D('',#1520,#1213,#1214);
#1013=AXIS2_PLACEMENT_3D('',#1522,#1215,#1216);
#1014=AXIS2_PLACEMENT_3D('',#1523,#1217,#1218);
#1015=AXIS2_PLACEMENT_3D('',#1525,#1219,#1220);
#1016=AXIS2_PLACEMENT_3D('',#1526,#1221,#1222);
#1017=AXIS2_PLACEMENT_3D('',#1528,#1223,#1224);
#1018=AXIS2_PLACEMENT_3D('',#1530,#1226,#1227);
#1019=AXIS2_PLACEMENT_3D('',#1532,#1228,#1229);
#1020=AXIS2_PLACEMENT_3D('',#1533,#1230,#1231);
#1021=AXIS2_PLACEMENT_3D('',#1535,#1232,#1233);
#1022=AXIS2_PLACEMENT_3D('',#1537,#1235,#1236);
#1023=AXIS2_PLACEMENT_3D('',#1539,#1237,#1238);
#1024=AXIS2_PLACEMENT_3D('',#1540,#1239,#1240);
#1025=AXIS2_PLACEMENT_3D('',#1542,#1242,#1243);
#1026=AXIS2_PLACEMENT_3D('',#1543,#1244,#1245);
#1027=AXIS2_PLACEMENT_3D('',#1545,#1246,#1247);
#1028=AXIS2_PLACEMENT_3D('',#1548,#1249,#1250);
#1029=AXIS2_PLACEMENT_3D('',#1549,#1251,#1252);
#1030=AXIS2_PLACEMENT_3D('',#1551,#1253,#1254);
#1031=AXIS2_PLACEMENT_3D('',#1554,#1256,#1257);
#1032=AXIS2_PLACEMENT_3D('',#1555,#1258,#1259);
#1033=AXIS2_PLACEMENT_3D('',#1556,#1260,#1261);
#1034=AXIS2_PLACEMENT_3D('',#1558,#1262,#1263);
#1035=AXIS2_PLACEMENT_3D('',#1561,#1265,#1266);
#1036=AXIS2_PLACEMENT_3D('',#1562,#1267,#1268);
#1037=AXIS2_PLACEMENT_3D('',#1564,#1269,#1270);
#1038=AXIS2_PLACEMENT_3D('',#1567,#1272,#1273);
#1039=AXIS2_PLACEMENT_3D('',#1568,#1274,#1275);
#1040=AXIS2_PLACEMENT_3D('',#1570,#1276,#1277);
#1041=AXIS2_PLACEMENT_3D('',#1572,#1278,#1279);
#1042=AXIS2_PLACEMENT_3D('',#1574,#1280,#1281);
#1043=AXIS2_PLACEMENT_3D('',#1575,#1282,#1283);
#1044=AXIS2_PLACEMENT_3D('',#1578,#1285,#1286);
#1045=AXIS2_PLACEMENT_3D('',#1579,#1287,#1288);
#1046=AXIS2_PLACEMENT_3D('',#1581,#1289,#1290);
#1047=AXIS2_PLACEMENT_3D('',#1584,#1292,#1293);
#1048=AXIS2_PLACEMENT_3D('',#1585,#1294,#1295);
#1049=AXIS2_PLACEMENT_3D('',#1587,#1296,#1297);
#1050=AXIS2_PLACEMENT_3D('',#1590,#1299,#1300);
#1051=AXIS2_PLACEMENT_3D('',#1591,#1301,#1302);
#1052=AXIS2_PLACEMENT_3D('',#1592,#1303,#1304);
#1053=AXIS2_PLACEMENT_3D('',#1594,#1305,#1306);
#1054=AXIS2_PLACEMENT_3D('',#1597,#1308,#1309);
#1055=AXIS2_PLACEMENT_3D('',#1598,#1310,#1311);
#1056=AXIS2_PLACEMENT_3D('',#1599,#1312,#1313);
#1057=AXIS2_PLACEMENT_3D('',#1601,#1314,#1315);
#1058=AXIS2_PLACEMENT_3D('',#1602,#1316,#1317);
#1059=AXIS2_PLACEMENT_3D('',#1604,#1318,#1319);
#1060=AXIS2_PLACEMENT_3D('',#1605,#1320,#1321);
#1061=AXIS2_PLACEMENT_3D('',#1606,#1322,#1323);
#1062=AXIS2_PLACEMENT_3D('',#1607,#1324,#1325);
#1063=AXIS2_PLACEMENT_3D('',#1609,#1326,#1327);
#1064=AXIS2_PLACEMENT_3D('',#1610,#1328,#1329);
#1065=AXIS2_PLACEMENT_3D('',#1612,#1330,#1331);
#1066=AXIS2_PLACEMENT_3D('',#1613,#1332,#1333);
#1067=AXIS2_PLACEMENT_3D('',#1615,#1334,#1335);
#1068=AXIS2_PLACEMENT_3D('',#1616,#1336,#1337);
#1069=AXIS2_PLACEMENT_3D('',#1617,#1338,#1339);
#1070=AXIS2_PLACEMENT_3D('',#1619,#1340,#1341);
#1071=AXIS2_PLACEMENT_3D('',#1620,#1342,#1343);
#1072=AXIS2_PLACEMENT_3D('',#1622,#1344,#1345);
#1073=AXIS2_PLACEMENT_3D('',#1623,#1346,#1347);
#1074=AXIS2_PLACEMENT_3D('',#1624,#1348,#1349);
#1075=AXIS2_PLACEMENT_3D('',#1626,#1350,#1351);
#1076=AXIS2_PLACEMENT_3D('',#1627,#1352,#1353);
#1077=AXIS2_PLACEMENT_3D('',#1629,#1354,#1355);
#1078=AXIS2_PLACEMENT_3D('',#1630,#1356,#1357);
#1079=AXIS2_PLACEMENT_3D('',#1632,#1358,#1359);
#1080=AXIS2_PLACEMENT_3D('',#1633,#1360,#1361);
#1081=AXIS2_PLACEMENT_3D('',#1636,#1363,#1364);
#1082=AXIS2_PLACEMENT_3D('',#1637,#1365,#1366);
#1083=AXIS2_PLACEMENT_3D('',#1640,#1368,#1369);
#1084=AXIS2_PLACEMENT_3D('',#1641,#1370,#1371);
#1085=AXIS2_PLACEMENT_3D('',#1644,#1373,#1374);
#1086=AXIS2_PLACEMENT_3D('',#1645,#1375,#1376);
#1087=AXIS2_PLACEMENT_3D('',#1648,#1378,#1379);
#1088=AXIS2_PLACEMENT_3D('',#1649,#1380,#1381);
#1089=AXIS2_PLACEMENT_3D('',#1652,#1383,#1384);
#1090=AXIS2_PLACEMENT_3D('',#1653,#1385,#1386);
#1091=AXIS2_PLACEMENT_3D('',#1656,#1388,#1389);
#1092=AXIS2_PLACEMENT_3D('',#1657,#1390,#1391);
#1093=AXIS2_PLACEMENT_3D('',#1660,#1393,#1394);
#1094=AXIS2_PLACEMENT_3D('',#1661,#1395,#1396);
#1095=AXIS2_PLACEMENT_3D('',#1664,#1398,#1399);
#1096=AXIS2_PLACEMENT_3D('',#1665,#1400,#1401);
#1097=AXIS2_PLACEMENT_3D('',#1668,#1403,#1404);
#1098=AXIS2_PLACEMENT_3D('',#1669,#1405,#1406);
#1099=AXIS2_PLACEMENT_3D('',#1672,#1408,#1409);
#1100=AXIS2_PLACEMENT_3D('',#1673,#1410,#1411);
#1101=AXIS2_PLACEMENT_3D('',#1675,#1412,#1413);
#1102=AXIS2_PLACEMENT_3D('',#1677,#1414,#1415);
#1103=AXIS2_PLACEMENT_3D('',#1678,#1416,#1417);
#1104=AXIS2_PLACEMENT_3D('',#1680,#1419,#1420);
#1105=AXIS2_PLACEMENT_3D('',#1682,#1422,#1423);
#1106=AXIS2_PLACEMENT_3D('',#1684,#1424,#1425);
#1107=AXIS2_PLACEMENT_3D('',#1687,#1427,#1428);
#1108=AXIS2_PLACEMENT_3D('',#1688,#1429,#1430);
#1109=AXIS2_PLACEMENT_3D('',#1689,#1431,#1432);
#1110=AXIS2_PLACEMENT_3D('',#1690,#1433,#1434);
#1111=AXIS2_PLACEMENT_3D('',#1691,#1435,#1436);
#1112=AXIS2_PLACEMENT_3D('',#1692,#1437,#1438);
#1113=AXIS2_PLACEMENT_3D('',#1693,#1439,#1440);
#1114=DIRECTION('axis',(0.,0.,1.));
#1115=DIRECTION('refdir',(1.,0.,0.));
#1116=DIRECTION('axis',(0.,0.,1.));
#1117=DIRECTION('refdir',(1.,0.,0.));
#1118=DIRECTION('center_axis',(0.,1.,0.));
#1119=DIRECTION('ref_axis',(0.,0.,1.));
#1120=DIRECTION('center_axis',(0.,-1.,0.));
#1121=DIRECTION('ref_axis',(0.,0.,1.));
#1122=DIRECTION('',(-1.04972719113862E-16,-0.515038074910054,0.857167300702112));
#1123=DIRECTION('center_axis',(0.,-1.,0.));
#1124=DIRECTION('ref_axis',(0.,0.,1.));
#1125=DIRECTION('center_axis',(0.,-1.,0.));
#1126=DIRECTION('ref_axis',(0.,0.,1.));
#1127=DIRECTION('',(0.,-1.,0.));
#1128=DIRECTION('center_axis',(0.,1.,0.));
#1129=DIRECTION('ref_axis',(0.,0.,1.));
#1130=DIRECTION('center_axis',(0.,-1.,0.));
#1131=DIRECTION('ref_axis',(0.,0.,1.));
#1132=DIRECTION('',(-1.04972719113862E-16,-0.515038074910054,0.857167300702112));
#1133=DIRECTION('center_axis',(0.,-1.,0.));
#1134=DIRECTION('ref_axis',(0.,0.,1.));
#1135=DIRECTION('center_axis',(0.,-1.,0.));
#1136=DIRECTION('ref_axis',(0.,0.,1.));
#1137=DIRECTION('',(0.,-1.,0.));
#1138=DIRECTION('center_axis',(0.,1.,0.));
#1139=DIRECTION('ref_axis',(-1.,0.,0.));
#1140=DIRECTION('center_axis',(0.,1.,0.));
#1141=DIRECTION('ref_axis',(1.,0.,0.));
#1142=DIRECTION('',(-0.139173100960065,-0.99026806874157,1.70437892618155E-17));
#1143=DIRECTION('center_axis',(0.,1.,0.));
#1144=DIRECTION('ref_axis',(1.,0.,0.));
#1145=DIRECTION('center_axis',(0.,-1.,0.));
#1146=DIRECTION('ref_axis',(0.,0.,-1.));
#1147=DIRECTION('center_axis',(0.,1.,0.));
#1148=DIRECTION('ref_axis',(1.,0.,0.));
#1149=DIRECTION('center_axis',(0.,1.,0.));
#1150=DIRECTION('ref_axis',(-1.,0.,0.));
#1151=DIRECTION('center_axis',(0.,1.,0.));
#1152=DIRECTION('ref_axis',(1.,0.,0.));
#1153=DIRECTION('',(0.,-1.,0.));
#1154=DIRECTION('center_axis',(0.,-1.,0.));
#1155=DIRECTION('ref_axis',(0.,0.,-1.));
#1156=DIRECTION('center_axis',(0.,1.,0.));
#1157=DIRECTION('ref_axis',(-1.,0.,0.));
#1158=DIRECTION('center_axis',(0.,1.,0.));
#1159=DIRECTION('ref_axis',(-1.,0.,0.));
#1160=DIRECTION('center_axis',(0.,-1.,0.));
#1161=DIRECTION('ref_axis',(-1.,0.,0.));
#1162=DIRECTION('',(0.,-1.,0.));
#1163=DIRECTION('center_axis',(0.,1.,0.));
#1164=DIRECTION('ref_axis',(0.,0.,1.));
#1165=DIRECTION('axis',(0.,0.,1.));
#1166=DIRECTION('refdir',(1.,0.,0.));
#1167=DIRECTION('center_axis',(0.,-1.,0.));
#1168=DIRECTION('ref_axis',(0.,0.,1.));
#1169=DIRECTION('center_axis',(0.,-1.,0.));
#1170=DIRECTION('ref_axis',(0.,0.,1.));
#1171=DIRECTION('',(0.,-1.,0.));
#1172=DIRECTION('center_axis',(0.,1.,0.));
#1173=DIRECTION('ref_axis',(0.,0.,1.));
#1174=DIRECTION('center_axis',(0.,-1.,0.));
#1175=DIRECTION('ref_axis',(0.,0.,1.));
#1176=DIRECTION('center_axis',(0.,-1.,0.));
#1177=DIRECTION('ref_axis',(0.,0.,1.));
#1178=DIRECTION('',(0.,-1.,0.));
#1179=DIRECTION('center_axis',(0.,1.,0.));
#1180=DIRECTION('ref_axis',(0.,0.,1.));
#1181=DIRECTION('center_axis',(0.,-1.,0.));
#1182=DIRECTION('ref_axis',(-1.,0.,0.));
#1183=DIRECTION('center_axis',(0.,1.,0.));
#1184=DIRECTION('ref_axis',(1.,0.,0.));
#1185=DIRECTION('',(0.5,-0.866025403784439,-6.12323399573677E-17));
#1186=DIRECTION('center_axis',(0.,1.,0.));
#1187=DIRECTION('ref_axis',(1.,0.,0.));
#1188=DIRECTION('center_axis',(0.,-1.,0.));
#1189=DIRECTION('ref_axis',(0.,0.,-1.));
#1190=DIRECTION('center_axis',(0.,1.,0.));
#1191=DIRECTION('ref_axis',(-1.,0.,0.));
#1192=DIRECTION('center_axis',(0.,1.,0.));
#1193=DIRECTION('ref_axis',(-1.,0.,0.));
#1194=DIRECTION('center_axis',(0.,-1.,0.));
#1195=DIRECTION('ref_axis',(-1.,0.,0.));
#1196=DIRECTION('',(0.,-1.,0.));
#1197=DIRECTION('center_axis',(0.,1.,0.));
#1198=DIRECTION('ref_axis',(0.,0.,1.));
#1199=DIRECTION('axis',(0.,0.,1.));
#1200=DIRECTION('refdir',(1.,0.,0.));
#1201=DIRECTION('center_axis',(0.,1.,0.));
#1202=DIRECTION('ref_axis',(0.,0.,1.));
#1203=DIRECTION('center_axis',(0.,-1.,0.));
#1204=DIRECTION('ref_axis',(0.,0.,1.));
#1205=DIRECTION('',(-1.04972719113862E-16,-0.515038074910054,0.857167300702112));
#1206=DIRECTION('center_axis',(0.,1.,0.));
#1207=DIRECTION('ref_axis',(0.,0.,1.));
#1208=DIRECTION('center_axis',(0.,-1.,0.));
#1209=DIRECTION('ref_axis',(0.,0.,1.));
#1210=DIRECTION('center_axis',(0.,-1.,0.));
#1211=DIRECTION('ref_axis',(0.,0.,1.));
#1212=DIRECTION('',(0.,-1.,0.));
#1213=DIRECTION('center_axis',(0.,1.,0.));
#1214=DIRECTION('ref_axis',(0.,0.,1.));
#1215=DIRECTION('center_axis',(0.,1.,0.));
#1216=DIRECTION('ref_axis',(1.,0.,0.));
#1217=DIRECTION('center_axis',(0.,-1.,0.));
#1218=DIRECTION('ref_axis',(0.,0.,-1.));
#1219=DIRECTION('center_axis',(0.,1.,0.));
#1220=DIRECTION('ref_axis',(1.,0.,0.));
#1221=DIRECTION('center_axis',(0.,1.,0.));
#1222=DIRECTION('ref_axis',(-1.,0.,0.));
#1223=DIRECTION('center_axis',(0.,1.,0.));
#1224=DIRECTION('ref_axis',(1.,0.,0.));
#1225=DIRECTION('',(-0.139173100960064,-0.990268068741571,1.70437892618154E-17));
#1226=DIRECTION('center_axis',(0.,1.,0.));
#1227=DIRECTION('ref_axis',(0.,0.,1.));
#1228=DIRECTION('center_axis',(0.,1.,0.));
#1229=DIRECTION('ref_axis',(1.,0.,0.));
#1230=DIRECTION('center_axis',(0.,1.,0.));
#1231=DIRECTION('ref_axis',(-1.,0.,0.));
#1232=DIRECTION('center_axis',(0.,1.,0.));
#1233=DIRECTION('ref_axis',(1.,0.,0.));
#1234=DIRECTION('',(0.,-1.,0.));
#1235=DIRECTION('center_axis',(0.,-1.,0.));
#1236=DIRECTION('ref_axis',(0.,0.,-1.));
#1237=DIRECTION('center_axis',(0.,1.,0.));
#1238=DIRECTION('ref_axis',(1.,0.,0.));
#1239=DIRECTION('center_axis',(0.,-1.,0.));
#1240=DIRECTION('ref_axis',(-1.,0.,0.));
#1241=DIRECTION('',(0.499999999999995,-0.866025403784441,-6.12323399573671E-17));
#1242=DIRECTION('axis',(0.,0.,1.));
#1243=DIRECTION('refdir',(1.,0.,0.));
#1244=DIRECTION('center_axis',(0.,1.,-6.21103790000086E-16));
#1245=DIRECTION('ref_axis',(1.,0.,0.));
#1246=DIRECTION('center_axis',(0.,1.,-4.93780845207522E-16));
#1247=DIRECTION('ref_axis',(1.,0.,0.));
#1248=DIRECTION('',(0.,1.,-6.21103790000086E-16));
#1249=DIRECTION('center_axis',(0.,1.,-4.45947323698808E-16));
#1250=DIRECTION('ref_axis',(1.,0.,0.));
#1251=DIRECTION('center_axis',(0.,1.,-6.21103790000086E-16));
#1252=DIRECTION('ref_axis',(1.,0.,0.));
#1253=DIRECTION('center_axis',(0.,1.,-4.93780845207522E-16));
#1254=DIRECTION('ref_axis',(1.,0.,0.));
#1255=DIRECTION('',(0.,1.,-6.21103790000086E-16));
#1256=DIRECTION('center_axis',(0.,1.,-4.45947323698808E-16));
#1257=DIRECTION('ref_axis',(1.,0.,0.));
#1258=DIRECTION('center_axis',(0.,1.,-4.93780845207522E-16));
#1259=DIRECTION('ref_axis',(0.,4.93780845207522E-16,1.));
#1260=DIRECTION('center_axis',(0.,1.,-6.21103790000086E-16));
#1261=DIRECTION('ref_axis',(1.,0.,0.));
#1262=DIRECTION('center_axis',(0.,1.,-4.93780845207522E-16));
#1263=DIRECTION('ref_axis',(1.,0.,0.));
#1264=DIRECTION('',(0.,1.,-6.21103790000086E-16));
#1265=DIRECTION('center_axis',(0.,1.,-4.45947323698808E-16));
#1266=DIRECTION('ref_axis',(1.,0.,0.));
#1267=DIRECTION('center_axis',(0.,1.,-6.21103790000086E-16));
#1268=DIRECTION('ref_axis',(1.,0.,0.));
#1269=DIRECTION('center_axis',(0.,1.,-4.93780845207522E-16));
#1270=DIRECTION('ref_axis',(1.,0.,0.));
#1271=DIRECTION('',(0.,1.,-6.21103790000086E-16));
#1272=DIRECTION('center_axis',(0.,1.,-4.45947323698808E-16));
#1273=DIRECTION('ref_axis',(1.,0.,0.));
#1274=DIRECTION('center_axis',(4.47447557100191E-31,-1.,4.93780845207522E-16));
#1275=DIRECTION('ref_axis',(3.50324616081204E-46,-4.93780845207522E-16,
-1.));
#1276=DIRECTION('center_axis',(-4.47447557100191E-31,1.,-4.93780845207522E-16));
#1277=DIRECTION('ref_axis',(1.,4.47447557100191E-31,7.79048809062404E-47));
#1278=DIRECTION('center_axis',(-4.47447557100191E-31,1.,-4.93780845207522E-16));
#1279=DIRECTION('ref_axis',(-1.,-4.47447557100191E-31,-6.6098984166265E-47));
#1280=DIRECTION('center_axis',(4.47447557100191E-31,-1.,4.93780845207522E-16));
#1281=DIRECTION('ref_axis',(1.,4.47447557100191E-31,-2.20941032930973E-46));
#1282=DIRECTION('center_axis',(0.,1.,-6.21103790000086E-16));
#1283=DIRECTION('ref_axis',(1.,0.,0.));
#1284=DIRECTION('',(0.,1.,-6.21103790000086E-16));
#1285=DIRECTION('center_axis',(0.,1.,-4.45947323698808E-16));
#1286=DIRECTION('ref_axis',(1.,0.,0.));
#1287=DIRECTION('center_axis',(0.,1.,-6.21103790000086E-16));
#1288=DIRECTION('ref_axis',(1.,0.,0.));
#1289=DIRECTION('center_axis',(0.,1.,-4.93780845207522E-16));
#1290=DIRECTION('ref_axis',(1.,0.,0.));
#1291=DIRECTION('',(0.,1.,-6.21103790000086E-16));
#1292=DIRECTION('center_axis',(0.,1.,-4.45947323698808E-16));
#1293=DIRECTION('ref_axis',(1.,0.,0.));
#1294=DIRECTION('center_axis',(0.,1.,-6.21103790000086E-16));
#1295=DIRECTION('ref_axis',(1.,0.,0.));
#1296=DIRECTION('center_axis',(0.,1.,-4.93780845207522E-16));
#1297=DIRECTION('ref_axis',(1.,0.,0.));
#1298=DIRECTION('',(0.,1.,-6.21103790000086E-16));
#1299=DIRECTION('center_axis',(0.,1.,-4.45947323698808E-16));
#1300=DIRECTION('ref_axis',(1.,0.,0.));
#1301=DIRECTION('center_axis',(0.,1.,-4.93780845207522E-16));
#1302=DIRECTION('ref_axis',(0.,4.93780845207522E-16,1.));
#1303=DIRECTION('center_axis',(0.,1.,-6.21103790000086E-16));
#1304=DIRECTION('ref_axis',(1.,0.,0.));
#1305=DIRECTION('center_axis',(0.,1.,-4.93780845207522E-16));
#1306=DIRECTION('ref_axis',(1.,0.,0.));
#1307=DIRECTION('',(0.,1.,-6.21103790000086E-16));
#1308=DIRECTION('center_axis',(0.,1.,-4.45947323698808E-16));
#1309=DIRECTION('ref_axis',(1.,0.,0.));
#1310=DIRECTION('center_axis',(0.,1.,-4.93780845207522E-16));
#1311=DIRECTION('ref_axis',(0.,4.93780845207522E-16,1.));
#1312=DIRECTION('center_axis',(0.,1.,-4.93780845207522E-16));
#1313=DIRECTION('ref_axis',(0.,4.93780845207522E-16,1.));
#1314=DIRECTION('center_axis',(0.,1.,-4.93780845207522E-16));
#1315=DIRECTION('ref_axis',(1.,0.,0.));
#1316=DIRECTION('center_axis',(0.,1.,-4.93780845207522E-16));
#1317=DIRECTION('ref_axis',(0.,4.93780845207522E-16,1.));
#1318=DIRECTION('center_axis',(0.,1.,-4.93780845207522E-16));
#1319=DIRECTION('ref_axis',(1.,0.,0.));
#1320=DIRECTION('center_axis',(0.,1.,-4.93780845207522E-16));
#1321=DIRECTION('ref_axis',(0.,4.93780845207522E-16,1.));
#1322=DIRECTION('center_axis',(0.,1.,-4.93780845207522E-16));
#1323=DIRECTION('ref_axis',(0.,4.93780845207522E-16,1.));
#1324=DIRECTION('center_axis',(0.,1.,-4.93780845207522E-16));
#1325=DIRECTION('ref_axis',(0.,4.93780845207522E-16,1.));
#1326=DIRECTION('center_axis',(0.,1.,-4.93780845207522E-16));
#1327=DIRECTION('ref_axis',(1.,0.,0.));
#1328=DIRECTION('center_axis',(0.,1.,-4.93780845207522E-16));
#1329=DIRECTION('ref_axis',(0.,4.93780845207522E-16,1.));
#1330=DIRECTION('center_axis',(0.,1.,-4.93780845207522E-16));
#1331=DIRECTION('ref_axis',(1.,0.,0.));
#1332=DIRECTION('center_axis',(0.,1.,-4.93780845207522E-16));
#1333=DIRECTION('ref_axis',(0.,4.93780845207522E-16,1.));
#1334=DIRECTION('center_axis',(0.,1.,-4.93780845207522E-16));
#1335=DIRECTION('ref_axis',(1.,0.,0.));
#1336=DIRECTION('center_axis',(0.,1.,-4.93780845207522E-16));
#1337=DIRECTION('ref_axis',(0.,4.93780845207522E-16,1.));
#1338=DIRECTION('center_axis',(0.,1.,-4.93780845207522E-16));
#1339=DIRECTION('ref_axis',(0.,4.93780845207522E-16,1.));
#1340=DIRECTION('center_axis',(0.,1.,-4.93780845207522E-16));
#1341=DIRECTION('ref_axis',(1.,0.,0.));
#1342=DIRECTION('center_axis',(0.,1.,-4.93780845207522E-16));
#1343=DIRECTION('ref_axis',(0.,4.93780845207522E-16,1.));
#1344=DIRECTION('center_axis',(0.,1.,-4.93780845207522E-16));
#1345=DIRECTION('ref_axis',(1.,0.,0.));
#1346=DIRECTION('center_axis',(0.,1.,-4.93780845207522E-16));
#1347=DIRECTION('ref_axis',(0.,4.93780845207522E-16,1.));
#1348=DIRECTION('center_axis',(0.,1.,-4.93780845207522E-16));
#1349=DIRECTION('ref_axis',(0.,4.93780845207522E-16,1.));
#1350=DIRECTION('center_axis',(0.,1.,-4.93780845207522E-16));
#1351=DIRECTION('ref_axis',(1.,0.,0.));
#1352=DIRECTION('center_axis',(0.,1.,-4.93780845207522E-16));
#1353=DIRECTION('ref_axis',(0.,4.93780845207522E-16,1.));
#1354=DIRECTION('center_axis',(0.,1.,-4.93780845207522E-16));
#1355=DIRECTION('ref_axis',(1.,0.,0.));
#1356=DIRECTION('center_axis',(0.,1.,-4.93780845207522E-16));
#1357=DIRECTION('ref_axis',(0.,4.93780845207522E-16,1.));
#1358=DIRECTION('center_axis',(0.,1.,-4.93780845207522E-16));
#1359=DIRECTION('ref_axis',(1.,0.,0.));
#1360=DIRECTION('center_axis',(0.,1.,-6.21103790000086E-16));
#1361=DIRECTION('ref_axis',(1.,0.,0.));
#1362=DIRECTION('',(0.,1.,-6.21103790000086E-16));
#1363=DIRECTION('center_axis',(0.,1.,-4.45947323698808E-16));
#1364=DIRECTION('ref_axis',(1.,0.,0.));
#1365=DIRECTION('center_axis',(0.,1.,-6.21103790000086E-16));
#1366=DIRECTION('ref_axis',(1.,0.,0.));
#1367=DIRECTION('',(0.,1.,-6.21103790000086E-16));
#1368=DIRECTION('center_axis',(0.,1.,-4.45947323698808E-16));
#1369=DIRECTION('ref_axis',(1.,0.,0.));
#1370=DIRECTION('center_axis',(0.,1.,-6.21103790000086E-16));
#1371=DIRECTION('ref_axis',(1.,0.,0.));
#1372=DIRECTION('',(0.,1.,-6.21103790000086E-16));
#1373=DIRECTION('center_axis',(0.,1.,-4.45947323698808E-16));
#1374=DIRECTION('ref_axis',(1.,0.,0.));
#1375=DIRECTION('center_axis',(0.,1.,-6.21103790000086E-16));
#1376=DIRECTION('ref_axis',(1.,0.,0.));
#1377=DIRECTION('',(0.,1.,-6.21103790000086E-16));
#1378=DIRECTION('center_axis',(0.,1.,-4.45947323698808E-16));
#1379=DIRECTION('ref_axis',(1.,0.,0.));
#1380=DIRECTION('center_axis',(0.,1.,-6.21103790000086E-16));
#1381=DIRECTION('ref_axis',(1.,0.,0.));
#1382=DIRECTION('',(0.,1.,-6.21103790000086E-16));
#1383=DIRECTION('center_axis',(0.,1.,-4.45947323698808E-16));
#1384=DIRECTION('ref_axis',(1.,0.,0.));
#1385=DIRECTION('center_axis',(0.,1.,-6.21103790000086E-16));
#1386=DIRECTION('ref_axis',(1.,0.,0.));
#1387=DIRECTION('',(0.,1.,-6.21103790000086E-16));
#1388=DIRECTION('center_axis',(0.,1.,-4.45947323698808E-16));
#1389=DIRECTION('ref_axis',(1.,0.,0.));
#1390=DIRECTION('center_axis',(0.,1.,-6.21103790000086E-16));
#1391=DIRECTION('ref_axis',(1.,0.,0.));
#1392=DIRECTION('',(0.,1.,-6.21103790000086E-16));
#1393=DIRECTION('center_axis',(0.,1.,-4.45947323698808E-16));
#1394=DIRECTION('ref_axis',(1.,0.,0.));
#1395=DIRECTION('center_axis',(0.,1.,-6.21103790000086E-16));
#1396=DIRECTION('ref_axis',(1.,0.,0.));
#1397=DIRECTION('',(0.,1.,-6.21103790000086E-16));
#1398=DIRECTION('center_axis',(0.,1.,-4.45947323698808E-16));
#1399=DIRECTION('ref_axis',(1.,0.,0.));
#1400=DIRECTION('center_axis',(0.,1.,-6.21103790000086E-16));
#1401=DIRECTION('ref_axis',(1.,0.,0.));
#1402=DIRECTION('',(0.,1.,-6.21103790000086E-16));
#1403=DIRECTION('center_axis',(0.,1.,-4.45947323698808E-16));
#1404=DIRECTION('ref_axis',(1.,0.,0.));
#1405=DIRECTION('center_axis',(0.,1.,-6.21103790000086E-16));
#1406=DIRECTION('ref_axis',(1.,0.,0.));
#1407=DIRECTION('',(0.,1.,-6.21103790000086E-16));
#1408=DIRECTION('center_axis',(0.,1.,-4.45947323698808E-16));
#1409=DIRECTION('ref_axis',(1.,0.,0.));
#1410=DIRECTION('center_axis',(0.,1.,-4.45947323698808E-16));
#1411=DIRECTION('ref_axis',(-1.,0.,0.));
#1412=DIRECTION('center_axis',(0.,-1.,4.45947323698808E-16));
#1413=DIRECTION('ref_axis',(1.,0.,0.));
#1414=DIRECTION('center_axis',(0.,-1.,4.45947323698808E-16));
#1415=DIRECTION('ref_axis',(-1.,0.,0.));
#1416=DIRECTION('center_axis',(0.,1.,-4.93780845207522E-16));
#1417=DIRECTION('ref_axis',(0.,4.93780845207522E-16,1.));
#1418=DIRECTION('',(0.,-1.,4.93780845207522E-16));
#1419=DIRECTION('center_axis',(0.,-1.,4.45947323698808E-16));
#1420=DIRECTION('ref_axis',(-1.,0.,0.));
#1421=DIRECTION('',(0.,-1.,4.45947323698808E-16));
#1422=DIRECTION('center_axis',(0.,1.,2.22044604925031E-16));
#1423=DIRECTION('ref_axis',(1.,0.,0.));
#1424=DIRECTION('center_axis',(0.,1.,2.22044604925031E-16));
#1425=DIRECTION('ref_axis',(1.,0.,0.));
#1426=DIRECTION('',(0.,-1.,-2.22044604925031E-16));
#1427=DIRECTION('center_axis',(0.,-1.,-2.22044604925031E-16));
#1428=DIRECTION('ref_axis',(1.,0.,0.));
#1429=DIRECTION('center_axis',(0.,-1.,-2.22044604925031E-16));
#1430=DIRECTION('ref_axis',(-1.,0.,0.));
#1431=DIRECTION('center_axis',(0.,1.,2.22044604925031E-16));
#1432=DIRECTION('ref_axis',(1.,0.,0.));
#1433=DIRECTION('',(0.,0.,1.));
#1434=DIRECTION('',(1.,0.,0.));
#1435=DIRECTION('',(3.33066907387547E-16,0.,0.999999999999999));
#1436=DIRECTION('',(1.,0.,-3.33066907387547E-16));
#1437=DIRECTION('',(0.,0.,1.));
#1438=DIRECTION('',(1.,0.,0.));
#1439=DIRECTION('',(0.,0.,1.));
#1440=DIRECTION('',(1.,0.,0.));
#1441=CARTESIAN_POINT('',(0.,0.,0.));
#1442=CARTESIAN_POINT('',(0.,0.,0.));
#1443=CARTESIAN_POINT('Origin',(0.,6.35433302025364,-23.));
#1444=CARTESIAN_POINT('',(1.8982025386784E-16,6.82,-24.55));
#1445=CARTESIAN_POINT('Origin',(0.,6.82,-23.));
#1446=CARTESIAN_POINT('',(0.,5.88866604050728,-23.));
#1447=CARTESIAN_POINT('',(9.49101269339199E-17,6.35433302025364,-23.775));
#1448=CARTESIAN_POINT('Origin',(0.,13.57,-23.));
#1449=CARTESIAN_POINT('',(1.8982025386784E-16,20.32,-24.55));
#1450=CARTESIAN_POINT('Origin',(0.,20.32,-23.));
#1451=CARTESIAN_POINT('',(1.8982025386784E-16,13.57,-24.55));
#1452=CARTESIAN_POINT('Origin',(0.,6.35433302025364,23.));
#1453=CARTESIAN_POINT('',(1.8982025386784E-16,6.82,21.45));
#1454=CARTESIAN_POINT('Origin',(0.,6.82,23.));
#1455=CARTESIAN_POINT('',(0.,5.88866604050728,23.));
#1456=CARTESIAN_POINT('',(9.49101269339199E-17,6.35433302025364,22.225));
#1457=CARTESIAN_POINT('Origin',(0.,13.57,23.));
#1458=CARTESIAN_POINT('',(1.8982025386784E-16,20.32,21.45));
#1459=CARTESIAN_POINT('Origin',(0.,20.32,23.));
#1460=CARTESIAN_POINT('',(1.8982025386784E-16,13.57,21.45));
#1461=CARTESIAN_POINT('Origin',(0.,10.16,0.));
#1462=CARTESIAN_POINT('',(21.0057897611526,20.32,-2.57246731945578E-15));
#1463=CARTESIAN_POINT('Origin',(0.,20.32,0.));
#1464=CARTESIAN_POINT('',(18.15,0.,-2.22273394045245E-15));
#1465=CARTESIAN_POINT('',(19.5778948805763,10.16,-2.39760062995411E-15));
#1466=CARTESIAN_POINT('Origin',(0.,0.,0.));
#1467=CARTESIAN_POINT('Origin',(-25.95,0.,0.));
#1468=CARTESIAN_POINT('',(25.95,0.,-3.17795844378738E-15));
#1469=CARTESIAN_POINT('Origin',(0.,0.,0.));
#1470=CARTESIAN_POINT('Origin',(0.,6.35,0.));
#1471=CARTESIAN_POINT('',(25.95,12.7,-3.17795844378738E-15));
#1472=CARTESIAN_POINT('Origin',(0.,12.7,0.));
#1473=CARTESIAN_POINT('',(25.95,6.35,-3.17795844378738E-15));
#1474=CARTESIAN_POINT('Origin',(-26.375,12.7,0.));
#1475=CARTESIAN_POINT('',(25.925,12.7,-3.17489682678951E-15));
#1476=CARTESIAN_POINT('Origin',(0.,12.7,0.));
#1477=CARTESIAN_POINT('Origin',(0.,16.51,0.));
#1478=CARTESIAN_POINT('',(25.925,20.32,3.17489682678951E-15));
#1479=CARTESIAN_POINT('Origin',(0.,20.32,0.));
#1480=CARTESIAN_POINT('',(25.925,16.51,-3.17489682678951E-15));
#1481=CARTESIAN_POINT('Origin',(-21.0057897611526,20.32,0.));
#1482=CARTESIAN_POINT('',(0.,0.,0.));
#1483=CARTESIAN_POINT('Origin',(0.0140510212012757,0.870000000000003,-23.35));
#1484=CARTESIAN_POINT('',(0.0140510212012759,7.62,-24.9));
#1485=CARTESIAN_POINT('Origin',(0.0140510212012757,7.62,-23.35));
#1486=CARTESIAN_POINT('',(0.0140510212012755,0.,-24.9));
#1487=CARTESIAN_POINT('',(0.0140510212012759,0.870000000000003,-24.9));
#1488=CARTESIAN_POINT('Origin',(0.0140510212012757,0.,-23.35));
#1489=CARTESIAN_POINT('Origin',(0.0140510212012757,0.870000000000003,23.35));
#1490=CARTESIAN_POINT('',(0.0140510212012759,7.62,21.8));
#1491=CARTESIAN_POINT('Origin',(0.0140510212012757,7.62,23.35));
#1492=CARTESIAN_POINT('',(0.0140510212012755,0.,21.8));
#1493=CARTESIAN_POINT('',(0.0140510212012759,0.870000000000003,21.8));
#1494=CARTESIAN_POINT('Origin',(0.0140510212012757,0.,23.35));
#1495=CARTESIAN_POINT('Origin',(0.,3.81,0.));
#1496=CARTESIAN_POINT('',(16.375,7.62,-2.00535913360379E-15));
#1497=CARTESIAN_POINT('Origin',(0.,7.62,0.));
#1498=CARTESIAN_POINT('',(20.774409051225,-1.11022302462516E-15,-2.54413135487604E-15));
#1499=CARTESIAN_POINT('',(18.5747045256125,3.81,-2.27474524423992E-15));
#1500=CARTESIAN_POINT('Origin',(0.,0.,0.));
#1501=CARTESIAN_POINT('Origin',(-26.35,0.,0.));
#1502=CARTESIAN_POINT('',(25.925,0.,-3.17489682678951E-15));
#1503=CARTESIAN_POINT('Origin',(0.,0.,0.));
#1504=CARTESIAN_POINT('Origin',(0.,3.81,0.));
#1505=CARTESIAN_POINT('',(25.925,7.62,3.17489682678951E-15));
#1506=CARTESIAN_POINT('Origin',(0.,7.62,0.));
#1507=CARTESIAN_POINT('',(25.925,3.81,-3.17489682678951E-15));
#1508=CARTESIAN_POINT('Origin',(-16.375,7.62,0.));
#1509=CARTESIAN_POINT('',(0.,0.,0.));
#1510=CARTESIAN_POINT('Origin',(0.,-0.889459569760351,0.));
#1511=CARTESIAN_POINT('',(3.88825358729284E-16,0.0644066629458996,-3.175));
#1512=CARTESIAN_POINT('Origin',(0.,0.0644066629458973,0.));
#1513=CARTESIAN_POINT('',(-3.7569828547424E-16,0.,-3.06780931233247));
#1514=CARTESIAN_POINT('',(1.94412679364642E-16,-0.889459569760351,-1.5875));
#1515=CARTESIAN_POINT('Origin',(0.,0.,0.));
#1516=CARTESIAN_POINT('Origin',(0.,22.2894066629459,0.));
#1517=CARTESIAN_POINT('',(3.88825358729285E-16,44.5144066629459,-3.175));
#1518=CARTESIAN_POINT('Origin',(0.,44.5144066629459,0.));
#1519=CARTESIAN_POINT('',(3.88825358729285E-16,22.2894066629459,-3.175));
#1520=CARTESIAN_POINT('Origin',(0.,44.5144066629459,0.));
#1521=CARTESIAN_POINT('',(15.875,44.5144066629459,-1.94412679364642E-15));
#1522=CARTESIAN_POINT('Origin',(-7.88568206589323E-17,44.5144066629459,
0.));
#1523=CARTESIAN_POINT('Origin',(-15.875,0.,0.));
#1524=CARTESIAN_POINT('',(15.875,0.,-1.94412679364642E-15));
#1525=CARTESIAN_POINT('Origin',(-7.88568206589323E-17,0.,0.));
#1526=CARTESIAN_POINT('Origin',(-7.88568206589323E-17,16.2657351853704,
0.));
#1527=CARTESIAN_POINT('',(20.447,32.5314703707409,-2.50403531021659E-15));
#1528=CARTESIAN_POINT('Origin',(-7.88568206589323E-17,32.5314703707409,
0.));
#1529=CARTESIAN_POINT('',(18.161,16.2657351853704,-2.22408105193151E-15));
#1530=CARTESIAN_POINT('Origin',(-18.034,32.5314703707409,0.));
#1531=CARTESIAN_POINT('',(18.034,32.5314703707409,-2.20852803758234E-15));
#1532=CARTESIAN_POINT('Origin',(-7.88568206589323E-17,32.5314703707409,
0.));
#1533=CARTESIAN_POINT('Origin',(-7.88568206589323E-17,34.5634703707409,
0.));
#1534=CARTESIAN_POINT('',(18.034,36.5954703707409,-2.20852803758234E-15));
#1535=CARTESIAN_POINT('Origin',(-7.88568206589323E-17,36.5954703707409,
0.));
#1536=CARTESIAN_POINT('',(18.034,34.5634703707409,-2.20852803758234E-15));
#1537=CARTESIAN_POINT('Origin',(-20.447,36.5954703707409,0.));
#1538=CARTESIAN_POINT('',(20.447,36.5954703707409,-2.50403531021659E-15));
#1539=CARTESIAN_POINT('Origin',(-7.88568206589323E-17,36.5954703707409,
0.));
#1540=CARTESIAN_POINT('Origin',(-7.88568206589323E-17,40.5549385168434,
0.));
#1541=CARTESIAN_POINT('',(18.161,40.5549385168434,-2.22408105193151E-15));
#1542=CARTESIAN_POINT('',(0.,0.,0.));
#1543=CARTESIAN_POINT('Origin',(-7.14880261977814E-15,-6.24346915322807E-14,
-31.75));
#1544=CARTESIAN_POINT('',(-2.00000000000001,18.5,-31.75));
#1545=CARTESIAN_POINT('Origin',(-7.14880261977814E-15,18.5,-31.75));
#1546=CARTESIAN_POINT('',(-2.00000000000001,26.,-31.75));
#1547=CARTESIAN_POINT('',(-2.00000000000001,-6.24346915322807E-14,-31.75));
#1548=CARTESIAN_POINT('Origin',(-7.14880261977814E-15,26.,-31.75));
#1549=CARTESIAN_POINT('Origin',(22.4506403026729,-5.55517826987848E-14,
-22.4506403026729));
#1550=CARTESIAN_POINT('',(20.4506403026729,18.5,-22.4506403026729));
#1551=CARTESIAN_POINT('Origin',(22.4506403026729,18.5,-22.4506403026729));
#1552=CARTESIAN_POINT('',(20.4506403026729,26.,-22.4506403026729));
#1553=CARTESIAN_POINT('',(20.4506403026729,-5.55517826987848E-14,-22.4506403026729));
#1554=CARTESIAN_POINT('Origin',(22.4506403026729,26.,-22.4506403026729));
#1555=CARTESIAN_POINT('Origin',(0.,18.5,-8.88178419700125E-15));
#1556=CARTESIAN_POINT('Origin',(31.75,-2.78562403188179E-14,-1.31642223883885E-15));
#1557=CARTESIAN_POINT('',(29.75,18.5,-1.2561912994011E-14));
#1558=CARTESIAN_POINT('Origin',(31.75,18.5,-1.28068423538405E-14));
#1559=CARTESIAN_POINT('',(29.75,26.,-1.72201914190116E-14));
#1560=CARTESIAN_POINT('',(29.75,-2.78562403188179E-14,-1.07149287900938E-15));
#1561=CARTESIAN_POINT('Origin',(31.75,26.,-1.74651207788411E-14));
#1562=CARTESIAN_POINT('Origin',(22.4506403026729,-2.23181589899782E-14,
22.4506403026729));
#1563=CARTESIAN_POINT('',(20.4506403026729,18.5,22.4506403026729));
#1564=CARTESIAN_POINT('Origin',(22.4506403026729,18.5,22.4506403026729));
#1565=CARTESIAN_POINT('',(20.4506403026729,26.,22.4506403026729));
#1566=CARTESIAN_POINT('',(20.4506403026729,-2.23181589899782E-14,22.4506403026729));
#1567=CARTESIAN_POINT('Origin',(22.4506403026729,26.,22.4506403026729));
#1568=CARTESIAN_POINT('Origin',(6.21724893790088E-14,-1.99999999999975,
44.96825));
#1569=CARTESIAN_POINT('',(-5.5070223425758E-15,-1.99999999999979,-44.96825));
#1570=CARTESIAN_POINT('Origin',(6.21724893790088E-14,-1.99999999999977,
8.92376073407774E-15));
#1571=CARTESIAN_POINT('',(26.5000000000001,-1.99999999999977,5.63647017926078E-15));
#1572=CARTESIAN_POINT('Origin',(6.21724893790088E-14,-1.99999999999977,
8.88178419700126E-15));
#1573=CARTESIAN_POINT('',(-2.,-1.99999999999976,31.75));
#1574=CARTESIAN_POINT('Origin',(3.26054903248529E-15,-1.99999999999976,
31.75));
#1575=CARTESIAN_POINT('Origin',(3.26054903248529E-15,-1.54352501564824E-14,
31.75));
#1576=CARTESIAN_POINT('',(-2.,26.,31.75));
#1577=CARTESIAN_POINT('',(-2.,-1.54352501564824E-14,31.75));
#1578=CARTESIAN_POINT('Origin',(3.26054903248529E-15,26.,31.75));
#1579=CARTESIAN_POINT('Origin',(-22.4506403026729,-2.23181589899782E-14,
22.4506403026729));
#1580=CARTESIAN_POINT('',(-24.4506403026729,18.5,22.4506403026729));
#1581=CARTESIAN_POINT('Origin',(-22.4506403026729,18.5,22.4506403026729));
#1582=CARTESIAN_POINT('',(-24.4506403026729,26.,22.4506403026729));
#1583=CARTESIAN_POINT('',(-24.4506403026729,-2.23181589899782E-14,22.4506403026729));
#1584=CARTESIAN_POINT('Origin',(-22.4506403026729,26.,22.4506403026729));
#1585=CARTESIAN_POINT('Origin',(-31.75,-2.78562403188179E-14,5.20467582613173E-15));
#1586=CARTESIAN_POINT('',(-33.75,18.5,-6.04081492904041E-15));
#1587=CARTESIAN_POINT('Origin',(-31.75,18.5,-6.28574428886989E-15));
#1588=CARTESIAN_POINT('',(-33.75,26.,-1.06990933540411E-14));
#1589=CARTESIAN_POINT('',(-33.75,-2.78562403188179E-14,5.4496051859612E-15));
#1590=CARTESIAN_POINT('Origin',(-31.75,26.,-1.09440227138705E-14));
#1591=CARTESIAN_POINT('Origin',(0.,18.5,-8.88178419700125E-15));
#1592=CARTESIAN_POINT('Origin',(-22.4506403026729,-5.55517826987848E-14,
-22.4506403026729));
#1593=CARTESIAN_POINT('',(-24.4506403026729,18.5,-22.4506403026729));
#1594=CARTESIAN_POINT('Origin',(-22.4506403026729,18.5,-22.4506403026729));
#1595=CARTESIAN_POINT('',(-24.4506403026729,26.,-22.4506403026729));
#1596=CARTESIAN_POINT('',(-24.4506403026729,-5.55517826987848E-14,-22.4506403026729));
#1597=CARTESIAN_POINT('Origin',(-22.4506403026729,26.,-22.4506403026729));
#1598=CARTESIAN_POINT('Origin',(0.,18.5,-8.88178419700125E-15));
#1599=CARTESIAN_POINT('Origin',(0.,18.5,-8.88178419700125E-15));
#1600=CARTESIAN_POINT('',(-1.5875,18.5,-40.));
#1601=CARTESIAN_POINT('Origin',(0.,18.5,-40.));
#1602=CARTESIAN_POINT('Origin',(0.,18.5,-8.88178419700125E-15));
#1603=CARTESIAN_POINT('',(10.5626989775916,18.5,-29.3331751572334));
#1604=CARTESIAN_POINT('Origin',(12.1501989775916,18.5,-29.3331751572334));
#1605=CARTESIAN_POINT('Origin',(0.,18.5,-8.88178419700125E-15));
#1606=CARTESIAN_POINT('Origin',(0.,18.5,-8.88178419700125E-15));
#1607=CARTESIAN_POINT('Origin',(0.,18.5,-8.88178419700125E-15));
#1608=CARTESIAN_POINT('',(10.5626989775916,18.5,29.3331751572333));
#1609=CARTESIAN_POINT('Origin',(12.1501989775916,18.5,29.3331751572333));
#1610=CARTESIAN_POINT('Origin',(0.,18.5,-8.88178419700125E-15));
#1611=CARTESIAN_POINT('',(-30.9206751572334,18.5,12.1501989775916));
#1612=CARTESIAN_POINT('Origin',(-29.3331751572334,18.5,12.1501989775916));
#1613=CARTESIAN_POINT('Origin',(0.,18.5,-8.88178419700125E-15));
#1614=CARTESIAN_POINT('',(-1.5875,18.5,40.));
#1615=CARTESIAN_POINT('Origin',(3.26054903248529E-15,18.5,40.));
#1616=CARTESIAN_POINT('Origin',(0.,18.5,-8.88178419700125E-15));
#1617=CARTESIAN_POINT('Origin',(0.,18.5,-8.88178419700125E-15));
#1618=CARTESIAN_POINT('',(-30.9206751572334,18.5,-12.1501989775916));
#1619=CARTESIAN_POINT('Origin',(-29.3331751572334,18.5,-12.1501989775916));
#1620=CARTESIAN_POINT('Origin',(0.,18.5,-8.88178419700125E-15));
#1621=CARTESIAN_POINT('',(-13.7376989775916,18.5,29.3331751572333));
#1622=CARTESIAN_POINT('Origin',(-12.1501989775916,18.5,29.3331751572333));
#1623=CARTESIAN_POINT('Origin',(0.,18.5,-8.88178419700125E-15));
#1624=CARTESIAN_POINT('Origin',(0.,18.5,-8.88178419700125E-15));
#1625=CARTESIAN_POINT('',(27.7456751572334,18.5,12.1501989775916));
#1626=CARTESIAN_POINT('Origin',(29.3331751572334,18.5,12.1501989775916));
#1627=CARTESIAN_POINT('Origin',(0.,18.5,-8.88178419700125E-15));
#1628=CARTESIAN_POINT('',(-13.7376989775916,18.5,-29.3331751572334));
#1629=CARTESIAN_POINT('Origin',(-12.1501989775916,18.5,-29.3331751572334));
#1630=CARTESIAN_POINT('Origin',(0.,18.5,-8.88178419700125E-15));
#1631=CARTESIAN_POINT('',(27.7456751572334,18.5,-12.1501989775916));
#1632=CARTESIAN_POINT('Origin',(29.3331751572334,18.5,-12.1501989775916));
#1633=CARTESIAN_POINT('Origin',(0.,-5.65177982631473E-15,-40.));
#1634=CARTESIAN_POINT('',(-1.5875,26.,-40.));
#1635=CARTESIAN_POINT('',(-1.5875,-5.65177982631473E-15,-40.));
#1636=CARTESIAN_POINT('Origin',(0.,26.,-40.));
#1637=CARTESIAN_POINT('Origin',(12.1501989775916,-6.06458818076636E-14,
-29.3331751572334));
#1638=CARTESIAN_POINT('',(10.5626989775916,26.,-29.3331751572334));
#1639=CARTESIAN_POINT('',(10.5626989775916,-6.06458818076636E-14,-29.3331751572334));
#1640=CARTESIAN_POINT('Origin',(12.1501989775916,26.,-29.3331751572334));
#1641=CARTESIAN_POINT('Origin',(12.1501989775916,-1.72240598810994E-14,
29.3331751572334));
#1642=CARTESIAN_POINT('',(10.5626989775916,26.,29.3331751572333));
#1643=CARTESIAN_POINT('',(10.5626989775916,-1.72240598810994E-14,29.3331751572334));
#1644=CARTESIAN_POINT('Origin',(12.1501989775916,26.,29.3331751572333));
#1645=CARTESIAN_POINT('Origin',(-29.3331751572334,-1.7796898449115E-14,
12.1501989775916));
#1646=CARTESIAN_POINT('',(-30.9206751572334,26.,12.1501989775916));
#1647=CARTESIAN_POINT('',(-30.9206751572334,-1.7796898449115E-14,12.1501989775916));
#1648=CARTESIAN_POINT('Origin',(-29.3331751572334,26.,12.1501989775916));
#1649=CARTESIAN_POINT('Origin',(3.26054903248529E-15,-9.32902352104401E-15,
40.));
#1650=CARTESIAN_POINT('',(-1.5875,26.,40.));
#1651=CARTESIAN_POINT('',(-1.5875,-9.32902352104401E-15,40.));
#1652=CARTESIAN_POINT('Origin',(3.26054903248529E-15,26.,40.));
#1653=CARTESIAN_POINT('Origin',(-29.3331751572334,-2.67898522215812E-14,
-12.1501989775916));
#1654=CARTESIAN_POINT('',(-30.9206751572334,26.,-12.1501989775916));
#1655=CARTESIAN_POINT('',(-30.9206751572334,-2.67898522215812E-14,-12.1501989775916));
#1656=CARTESIAN_POINT('Origin',(-29.3331751572334,26.,-12.1501989775916));
#1657=CARTESIAN_POINT('Origin',(-12.1501989775916,-1.72240598810994E-14,
29.3331751572334));
#1658=CARTESIAN_POINT('',(-13.7376989775916,26.,29.3331751572333));
#1659=CARTESIAN_POINT('',(-13.7376989775916,-1.72240598810994E-14,29.3331751572334));
#1660=CARTESIAN_POINT('Origin',(-12.1501989775916,26.,29.3331751572333));
#1661=CARTESIAN_POINT('Origin',(29.3331751572334,-1.7796898449115E-14,12.1501989775916));
#1662=CARTESIAN_POINT('',(27.7456751572334,26.,12.1501989775916));
#1663=CARTESIAN_POINT('',(27.7456751572334,-1.7796898449115E-14,12.1501989775916));
#1664=CARTESIAN_POINT('Origin',(29.3331751572334,26.,12.1501989775916));
#1665=CARTESIAN_POINT('Origin',(-12.1501989775916,-6.06458818076636E-14,
-29.3331751572334));
#1666=CARTESIAN_POINT('',(-13.7376989775916,26.,-29.3331751572334));
#1667=CARTESIAN_POINT('',(-13.7376989775916,-6.06458818076636E-14,-29.3331751572334));
#1668=CARTESIAN_POINT('Origin',(-12.1501989775916,26.,-29.3331751572334));
#1669=CARTESIAN_POINT('Origin',(29.3331751572334,-2.67898522215812E-14,
-12.1501989775916));
#1670=CARTESIAN_POINT('',(27.7456751572334,26.,-12.1501989775916));
#1671=CARTESIAN_POINT('',(27.7456751572334,-2.67898522215812E-14,-12.1501989775916));
#1672=CARTESIAN_POINT('Origin',(29.3331751572334,26.,-12.1501989775916));
#1673=CARTESIAN_POINT('Origin',(0.,26.,-1.15942587933993E-14));
#1674=CARTESIAN_POINT('',(-5.5070223425758E-15,26.,-44.96825));
#1675=CARTESIAN_POINT('Origin',(0.,26.,-1.61067220029258E-14));
#1676=CARTESIAN_POINT('',(26.5,26.,-1.48399444339095E-14));
#1677=CARTESIAN_POINT('Origin',(0.,26.,-1.1594630416169E-14));
#1678=CARTESIAN_POINT('Origin',(0.,15.7973730132407,-7.75846366146001E-15));
#1679=CARTESIAN_POINT('',(-5.5070223425758E-15,15.7973730132407,-44.96825));
#1680=CARTESIAN_POINT('Origin',(0.,26.,-1.1594630416169E-14));
#1681=CARTESIAN_POINT('',(26.5,26.,-8.34931639842851E-15));
#1682=CARTESIAN_POINT('Origin',(0.,54.5144066629459,5.55111512312578E-15));
#1683=CARTESIAN_POINT('',(-12.5,79.5144066629459,1.26330387451858E-14));
#1684=CARTESIAN_POINT('Origin',(0.,79.5144066629459,1.11022302462516E-14));
#1685=CARTESIAN_POINT('',(-12.5,29.5144066629459,1.53080849893419E-15));
#1686=CARTESIAN_POINT('',(-12.5,54.5144066629459,7.08192362205997E-15));
#1687=CARTESIAN_POINT('Origin',(0.,29.5144066629459,0.));
#1688=CARTESIAN_POINT('Origin',(0.,29.5144066629459,0.));
#1689=CARTESIAN_POINT('Origin',(0.,79.5144066629459,1.11022302462516E-14));
#1690=CARTESIAN_POINT('',(0.,0.,0.));
#1691=CARTESIAN_POINT('',(0.,22.,0.));
#1692=CARTESIAN_POINT('',(0.,-15.,0.));
#1693=CARTESIAN_POINT('',(0.,0.,0.));
#1694=UNCERTAINTY_MEASURE_WITH_UNIT(LENGTH_MEASURE(0.01),#1706,
'DISTANCE_ACCURACY_VALUE',
'Maximum model space distance between geometric entities at asserted c
onnectivities');
#1695=UNCERTAINTY_MEASURE_WITH_UNIT(LENGTH_MEASURE(0.01),#1706,
'DISTANCE_ACCURACY_VALUE',
'Maximum model space distance between geometric entities at asserted c
onnectivities');
#1696=UNCERTAINTY_MEASURE_WITH_UNIT(LENGTH_MEASURE(0.01),#1706,
'DISTANCE_ACCURACY_VALUE',
'Maximum model space distance between geometric entities at asserted c
onnectivities');
#1697=UNCERTAINTY_MEASURE_WITH_UNIT(LENGTH_MEASURE(0.01),#1706,
'DISTANCE_ACCURACY_VALUE',
'Maximum model space distance between geometric entities at asserted c
onnectivities');
#1698=UNCERTAINTY_MEASURE_WITH_UNIT(LENGTH_MEASURE(0.01),#1706,
'DISTANCE_ACCURACY_VALUE',
'Maximum model space distance between geometric entities at asserted c
onnectivities');
#1699=UNCERTAINTY_MEASURE_WITH_UNIT(LENGTH_MEASURE(0.01),#1706,
'DISTANCE_ACCURACY_VALUE',
'Maximum model space distance between geometric entities at asserted c
onnectivities');
#1700=(
GEOMETRIC_REPRESENTATION_CONTEXT(3)
GLOBAL_UNCERTAINTY_ASSIGNED_CONTEXT((#1694))
GLOBAL_UNIT_ASSIGNED_CONTEXT((#1706,#1708,#1709))
REPRESENTATION_CONTEXT('','3D')
);
#1701=(
GEOMETRIC_REPRESENTATION_CONTEXT(3)
GLOBAL_UNCERTAINTY_ASSIGNED_CONTEXT((#1695))
GLOBAL_UNIT_ASSIGNED_CONTEXT((#1706,#1708,#1709))
REPRESENTATION_CONTEXT('','3D')
);
#1702=(
GEOMETRIC_REPRESENTATION_CONTEXT(3)
GLOBAL_UNCERTAINTY_ASSIGNED_CONTEXT((#1696))
GLOBAL_UNIT_ASSIGNED_CONTEXT((#1706,#1708,#1709))
REPRESENTATION_CONTEXT('','3D')
);
#1703=(
GEOMETRIC_REPRESENTATION_CONTEXT(3)
GLOBAL_UNCERTAINTY_ASSIGNED_CONTEXT((#1697))
GLOBAL_UNIT_ASSIGNED_CONTEXT((#1706,#1708,#1709))
REPRESENTATION_CONTEXT('','3D')
);
#1704=(
GEOMETRIC_REPRESENTATION_CONTEXT(3)
GLOBAL_UNCERTAINTY_ASSIGNED_CONTEXT((#1698))
GLOBAL_UNIT_ASSIGNED_CONTEXT((#1706,#1708,#1709))
REPRESENTATION_CONTEXT('','3D')
);
#1705=(
GEOMETRIC_REPRESENTATION_CONTEXT(3)
GLOBAL_UNCERTAINTY_ASSIGNED_CONTEXT((#1699))
GLOBAL_UNIT_ASSIGNED_CONTEXT((#1706,#1708,#1709))
REPRESENTATION_CONTEXT('','3D')
);
#1706=(
LENGTH_UNIT()
NAMED_UNIT(*)
SI_UNIT(.MILLI.,.METRE.)
);
#1707=(
LENGTH_UNIT()
NAMED_UNIT(*)
SI_UNIT($,.METRE.)
);
#1708=(
NAMED_UNIT(*)
PLANE_ANGLE_UNIT()
SI_UNIT($,.RADIAN.)
);
#1709=(
NAMED_UNIT(*)
SI_UNIT($,.STERADIAN.)
SOLID_ANGLE_UNIT()
);
#1710=SHAPE_DEFINITION_REPRESENTATION(#1715,#1724);
#1711=SHAPE_DEFINITION_REPRESENTATION(#1716,#1725);
#1712=SHAPE_DEFINITION_REPRESENTATION(#1717,#1726);
#1713=SHAPE_DEFINITION_REPRESENTATION(#1718,#1727);
#1714=SHAPE_DEFINITION_REPRESENTATION(#1719,#1728);
#1715=PRODUCT_DEFINITION_SHAPE('',$,#1730);
#1716=PRODUCT_DEFINITION_SHAPE('',$,#1731);
#1717=PRODUCT_DEFINITION_SHAPE('',$,#1732);
#1718=PRODUCT_DEFINITION_SHAPE('',$,#1733);
#1719=PRODUCT_DEFINITION_SHAPE('',$,#1734);
#1720=PRODUCT_DEFINITION_SHAPE($,$,#23);
#1721=PRODUCT_DEFINITION_SHAPE($,$,#24);
#1722=PRODUCT_DEFINITION_SHAPE($,$,#25);
#1723=PRODUCT_DEFINITION_SHAPE($,$,#26);
#1724=SHAPE_REPRESENTATION('',(#969,#1110,#1111,#1112,#1113),#1700);
#1725=SHAPE_REPRESENTATION('',(#970),#1701);
#1726=SHAPE_REPRESENTATION('',(#991),#1702);
#1727=SHAPE_REPRESENTATION('',(#1006),#1703);
#1728=SHAPE_REPRESENTATION('',(#1025),#1704);
#1729=PRODUCT_DEFINITION_CONTEXT('part definition',#1746,'design');
#1730=PRODUCT_DEFINITION('vespel spacers','vespel spacers v2',#1735,#1729);
#1731=PRODUCT_DEFINITION('Collet Bottom Taper','Collet Bottom Taper v1',
#1736,#1729);
#1732=PRODUCT_DEFINITION('Collet Top Taper','Collet Top Taper v1',#1737,
#1729);
#1733=PRODUCT_DEFINITION('ER-40 Collet Generic v1',
'ER-40 Collet Generic v1',#1738,#1729);
#1734=PRODUCT_DEFINITION('V2PocketNC kinematic Bdisc v4',
'V2PocketNC kinematic Bdisc v4 v1',#1739,#1729);
#1735=PRODUCT_DEFINITION_FORMATION('',$,#1748);
#1736=PRODUCT_DEFINITION_FORMATION('',$,#1749);
#1737=PRODUCT_DEFINITION_FORMATION('',$,#1750);
#1738=PRODUCT_DEFINITION_FORMATION('',$,#1751);
#1739=PRODUCT_DEFINITION_FORMATION('',$,#1752);
#1740=PRODUCT_RELATED_PRODUCT_CATEGORY('vespel spacers v2',
'vespel spacers v2',(#1748));
#1741=PRODUCT_RELATED_PRODUCT_CATEGORY('Collet Bottom Taper v1',
'Collet Bottom Taper v1',(#1749));
#1742=PRODUCT_RELATED_PRODUCT_CATEGORY('Collet Top Taper v1',
'Collet Top Taper v1',(#1750));
#1743=PRODUCT_RELATED_PRODUCT_CATEGORY('ER-40 Collet Generic v1',
'ER-40 Collet Generic v1',(#1751));
#1744=PRODUCT_RELATED_PRODUCT_CATEGORY(
'V2PocketNC kinematic Bdisc v4 v1','V2PocketNC kinematic Bdisc v4 v1',(#1752));
#1745=APPLICATION_PROTOCOL_DEFINITION('international standard',
'automotive_design',2009,#1746);
#1746=APPLICATION_CONTEXT(
'Core Data for Automotive Mechanical Design Process');
#1747=PRODUCT_CONTEXT('part definition',#1746,'mechanical');
#1748=PRODUCT('vespel spacers','vespel spacers v2',$,(#1747));
#1749=PRODUCT('Collet Bottom Taper','Collet Bottom Taper v1',$,(#1747));
#1750=PRODUCT('Collet Top Taper','Collet Top Taper v1',$,(#1747));
#1751=PRODUCT('ER-40 Collet Generic v1','ER-40 Collet Generic v1',$,(#1747));
#1752=PRODUCT('V2PocketNC kinematic Bdisc v4',
'V2PocketNC kinematic Bdisc v4 v1',$,(#1747));
#1753=PRESENTATION_STYLE_ASSIGNMENT((#1755));
#1754=PRESENTATION_STYLE_ASSIGNMENT((#1756));
#1755=SURFACE_STYLE_USAGE(.BOTH.,#1757);
#1756=SURFACE_STYLE_USAGE(.BOTH.,#1758);
#1757=SURFACE_SIDE_STYLE('',(#1759));
#1758=SURFACE_SIDE_STYLE('',(#1760));
#1759=SURFACE_STYLE_FILL_AREA(#1761);
#1760=SURFACE_STYLE_FILL_AREA(#1762);
#1761=FILL_AREA_STYLE('Steel - Satin',(#1763));
#1762=FILL_AREA_STYLE('Aluminum - Anodized Glossy (Grey)',(#1764));
#1763=FILL_AREA_STYLE_COLOUR('Steel - Satin',#1765);
#1764=FILL_AREA_STYLE_COLOUR('Aluminum - Anodized Glossy (Grey)',#1766);
#1765=COLOUR_RGB('Steel - Satin',0.627450980392157,0.627450980392157,0.627450980392157);
#1766=COLOUR_RGB('Aluminum - Anodized Glossy (Grey)',0.537254901960784,
0.537254901960784,0.537254901960784);
ENDSEC;
END-ISO-10303-21;
