ISO-10303-21;
HEADER;
/* Generated by software containing ST-Developer
 * from STEP Tools, Inc. (www.steptools.com) 
 */

FILE_DESCRIPTION(
/* description */ (''),
/* implementation_level */ '2;1');

FILE_NAME(
/* name */ 'CF63 short nipple v3.step',
/* time_stamp */ '2024-06-14T13:15:46+02:00',
/* author */ (''),
/* organization */ (''),
/* preprocessor_version */ 'ST-DEVELOPER v20',
/* originating_system */ 'Autodesk Translation Framework v13.14.0.145',

/* authorisation */ '');

FILE_SCHEMA (('AUTOMOTIVE_DESIGN { 1 0 10303 214 3 1 1 }'));
ENDSEC;

DATA;
#10=MECHANICAL_DESIGN_GEOMETRIC_PRESENTATION_REPRESENTATION('',(#50,#51),
#1634);
#11=ITEM_DEFINED_TRANSFORMATION($,$,#943,#1056);
#12=ITEM_DEFINED_TRANSFORMATION($,$,#934,#1057);
#13=ITEM_DEFINED_TRANSFORMATION($,$,#943,#1058);
#14=(
REPRESENTATION_RELATIONSHIP($,$,#1650,#1648)
REPRESENTATION_RELATIONSHIP_WITH_TRANSFORMATION(#11)
SHAPE_REPRESENTATION_RELATIONSHIP()
);
#15=(
REPRESENTATION_RELATIONSHIP($,$,#1649,#1648)
REPRESENTATION_RELATIONSHIP_WITH_TRANSFORMATION(#12)
SHAPE_REPRESENTATION_RELATIONSHIP()
);
#16=(
REPRESENTATION_RELATIONSHIP($,$,#1650,#1648)
REPRESENTATION_RELATIONSHIP_WITH_TRANSFORMATION(#13)
SHAPE_REPRESENTATION_RELATIONSHIP()
);
#17=CONTEXT_DEPENDENT_SHAPE_REPRESENTATION(#14,#1645);
#18=CONTEXT_DEPENDENT_SHAPE_REPRESENTATION(#15,#1646);
#19=CONTEXT_DEPENDENT_SHAPE_REPRESENTATION(#16,#1647);
#20=NEXT_ASSEMBLY_USAGE_OCCURRENCE('CF63-64-Weld:1','CF63-64-Weld:1',
'CF63-64-Weld:1',#1652,#1654,'CF63-64-Weld:1');
#21=NEXT_ASSEMBLY_USAGE_OCCURRENCE('Tube 63.5-All_Tube63:1',
'Tube 63.5-All_Tube63:1','Tube 63.5-All_Tube63:1',#1652,#1653,
'Tube 63.5-All_Tube63:1');
#22=NEXT_ASSEMBLY_USAGE_OCCURRENCE('CF63-64-Weld:2','CF63-64-Weld:2',
'CF63-64-Weld:2',#1652,#1654,'CF63-64-Weld:2');
#23=CONICAL_SURFACE('',#944,32.2,0.785398163397425);
#24=CONICAL_SURFACE('',#948,30.15,0.785398163397408);
#25=CONICAL_SURFACE('',#955,4.59999999999998,0.785398163397469);
#26=CONICAL_SURFACE('',#959,4.2,0.785398163397452);
#27=CONICAL_SURFACE('',#962,4.60000000000003,0.785398163397431);
#28=CONICAL_SURFACE('',#966,4.2,0.785398163397448);
#29=CONICAL_SURFACE('',#969,4.60000000000001,0.785398163397454);
#30=CONICAL_SURFACE('',#973,4.2,0.785398163397436);
#31=CONICAL_SURFACE('',#976,4.60000000000003,0.785398163397431);
#32=CONICAL_SURFACE('',#980,4.2,0.785398163397448);
#33=CONICAL_SURFACE('',#983,4.59999999999999,0.785398163397475);
#34=CONICAL_SURFACE('',#987,4.2,0.785398163397458);
#35=CONICAL_SURFACE('',#990,4.60000000000003,0.785398163397431);
#36=CONICAL_SURFACE('',#994,4.2,0.785398163397448);
#37=CONICAL_SURFACE('',#997,4.60000000000001,0.785398163397464);
#38=CONICAL_SURFACE('',#1001,4.2,0.785398163397464);
#39=CONICAL_SURFACE('',#1004,4.60000000000003,0.785398163397431);
#40=CONICAL_SURFACE('',#1008,4.2,0.785398163397448);
#41=CONICAL_SURFACE('',#1011,56.25,0.785398163397428);
#42=CONICAL_SURFACE('',#1023,38.3816178594403,0.349065850398874);
#43=CONICAL_SURFACE('',#1027,38.6,1.22173047639603);
#44=CONICAL_SURFACE('',#1029,56.75,0.785398163397462);
#45=CONICAL_SURFACE('',#1045,56.75,0.785398163397462);
#46=SHAPE_REPRESENTATION_RELATIONSHIP('SRR','None',#1649,#48);
#47=SHAPE_REPRESENTATION_RELATIONSHIP('SRR','None',#1650,#49);
#48=ADVANCED_BREP_SHAPE_REPRESENTATION('',(#52),#1632);
#49=ADVANCED_BREP_SHAPE_REPRESENTATION('',(#53),#1633);
#50=STYLED_ITEM('',(#1668),#52);
#51=STYLED_ITEM('',(#1668),#53);
#52=MANIFOLD_SOLID_BREP('Body1',#908);
#53=MANIFOLD_SOLID_BREP('Body1',#909);
#54=FACE_BOUND('',#141,.T.);
#55=FACE_BOUND('',#143,.T.);
#56=FACE_BOUND('',#179,.T.);
#57=FACE_BOUND('',#180,.T.);
#58=FACE_BOUND('',#181,.T.);
#59=FACE_BOUND('',#182,.T.);
#60=FACE_BOUND('',#185,.T.);
#61=FACE_BOUND('',#186,.T.);
#62=FACE_BOUND('',#187,.T.);
#63=FACE_BOUND('',#188,.T.);
#64=FACE_BOUND('',#190,.T.);
#65=FACE_BOUND('',#192,.T.);
#66=FACE_BOUND('',#193,.T.);
#67=FACE_BOUND('',#194,.T.);
#68=FACE_BOUND('',#195,.T.);
#69=FACE_BOUND('',#196,.T.);
#70=FACE_BOUND('',#197,.T.);
#71=FACE_BOUND('',#198,.T.);
#72=FACE_BOUND('',#199,.T.);
#73=FACE_BOUND('',#200,.T.);
#74=FACE_BOUND('',#208,.T.);
#75=PLANE('',#941);
#76=PLANE('',#942);
#77=PLANE('',#1043);
#78=PLANE('',#1046);
#79=PLANE('',#1047);
#80=PLANE('',#1048);
#81=PLANE('',#1049);
#82=PLANE('',#1050);
#83=PLANE('',#1051);
#84=PLANE('',#1052);
#85=PLANE('',#1053);
#86=PLANE('',#1054);
#87=PLANE('',#1055);
#88=FACE_OUTER_BOUND('',#138,.T.);
#89=FACE_OUTER_BOUND('',#139,.T.);
#90=FACE_OUTER_BOUND('',#140,.T.);
#91=FACE_OUTER_BOUND('',#142,.T.);
#92=FACE_OUTER_BOUND('',#144,.T.);
#93=FACE_OUTER_BOUND('',#145,.T.);
#94=FACE_OUTER_BOUND('',#146,.T.);
#95=FACE_OUTER_BOUND('',#147,.T.);
#96=FACE_OUTER_BOUND('',#148,.T.);
#97=FACE_OUTER_BOUND('',#149,.T.);
#98=FACE_OUTER_BOUND('',#150,.T.);
#99=FACE_OUTER_BOUND('',#151,.T.);
#100=FACE_OUTER_BOUND('',#152,.T.);
#101=FACE_OUTER_BOUND('',#153,.T.);
#102=FACE_OUTER_BOUND('',#154,.T.);
#103=FACE_OUTER_BOUND('',#155,.T.);
#104=FACE_OUTER_BOUND('',#156,.T.);
#105=FACE_OUTER_BOUND('',#157,.T.);
#106=FACE_OUTER_BOUND('',#158,.T.);
#107=FACE_OUTER_BOUND('',#159,.T.);
#108=FACE_OUTER_BOUND('',#160,.T.);
#109=FACE_OUTER_BOUND('',#161,.T.);
#110=FACE_OUTER_BOUND('',#162,.T.);
#111=FACE_OUTER_BOUND('',#163,.T.);
#112=FACE_OUTER_BOUND('',#164,.T.);
#113=FACE_OUTER_BOUND('',#165,.T.);
#114=FACE_OUTER_BOUND('',#166,.T.);
#115=FACE_OUTER_BOUND('',#167,.T.);
#116=FACE_OUTER_BOUND('',#168,.T.);
#117=FACE_OUTER_BOUND('',#169,.T.);
#118=FACE_OUTER_BOUND('',#170,.T.);
#119=FACE_OUTER_BOUND('',#171,.T.);
#120=FACE_OUTER_BOUND('',#172,.T.);
#121=FACE_OUTER_BOUND('',#173,.T.);
#122=FACE_OUTER_BOUND('',#174,.T.);
#123=FACE_OUTER_BOUND('',#175,.T.);
#124=FACE_OUTER_BOUND('',#176,.T.);
#125=FACE_OUTER_BOUND('',#177,.T.);
#126=FACE_OUTER_BOUND('',#178,.T.);
#127=FACE_OUTER_BOUND('',#183,.T.);
#128=FACE_OUTER_BOUND('',#184,.T.);
#129=FACE_OUTER_BOUND('',#189,.T.);
#130=FACE_OUTER_BOUND('',#191,.T.);
#131=FACE_OUTER_BOUND('',#201,.T.);
#132=FACE_OUTER_BOUND('',#202,.T.);
#133=FACE_OUTER_BOUND('',#203,.T.);
#134=FACE_OUTER_BOUND('',#204,.T.);
#135=FACE_OUTER_BOUND('',#205,.T.);
#136=FACE_OUTER_BOUND('',#206,.T.);
#137=FACE_OUTER_BOUND('',#207,.T.);
#138=EDGE_LOOP('',(#594,#595,#596,#597));
#139=EDGE_LOOP('',(#598,#599,#600,#601));
#140=EDGE_LOOP('',(#602));
#141=EDGE_LOOP('',(#603));
#142=EDGE_LOOP('',(#604));
#143=EDGE_LOOP('',(#605));
#144=EDGE_LOOP('',(#606,#607,#608,#609,#610));
#145=EDGE_LOOP('',(#611,#612,#613,#614));
#146=EDGE_LOOP('',(#615,#616,#617,#618,#619));
#147=EDGE_LOOP('',(#620,#621,#622,#623));
#148=EDGE_LOOP('',(#624,#625,#626,#627,#628));
#149=EDGE_LOOP('',(#629,#630,#631,#632));
#150=EDGE_LOOP('',(#633,#634,#635,#636,#637));
#151=EDGE_LOOP('',(#638,#639,#640,#641));
#152=EDGE_LOOP('',(#642,#643,#644,#645,#646));
#153=EDGE_LOOP('',(#647,#648,#649,#650));
#154=EDGE_LOOP('',(#651,#652,#653,#654,#655));
#155=EDGE_LOOP('',(#656,#657,#658,#659));
#156=EDGE_LOOP('',(#660,#661,#662,#663,#664));
#157=EDGE_LOOP('',(#665,#666,#667,#668));
#158=EDGE_LOOP('',(#669,#670,#671,#672,#673));
#159=EDGE_LOOP('',(#674,#675,#676,#677));
#160=EDGE_LOOP('',(#678,#679,#680,#681,#682));
#161=EDGE_LOOP('',(#683,#684,#685,#686));
#162=EDGE_LOOP('',(#687,#688,#689,#690,#691));
#163=EDGE_LOOP('',(#692,#693,#694,#695));
#164=EDGE_LOOP('',(#696,#697,#698,#699,#700));
#165=EDGE_LOOP('',(#701,#702,#703,#704,#705));
#166=EDGE_LOOP('',(#706,#707,#708,#709,#710));
#167=EDGE_LOOP('',(#711,#712,#713,#714,#715));
#168=EDGE_LOOP('',(#716,#717,#718,#719,#720));
#169=EDGE_LOOP('',(#721,#722,#723,#724,#725));
#170=EDGE_LOOP('',(#726,#727,#728,#729,#730));
#171=EDGE_LOOP('',(#731,#732,#733,#734,#735));
#172=EDGE_LOOP('',(#736,#737,#738,#739,#740));
#173=EDGE_LOOP('',(#741,#742,#743,#744,#745));
#174=EDGE_LOOP('',(#746,#747,#748,#749,#750));
#175=EDGE_LOOP('',(#751,#752,#753,#754));
#176=EDGE_LOOP('',(#755,#756,#757,#758,#759,#760,#761,#762,#763,#764,#765,
#766));
#177=EDGE_LOOP('',(#767,#768,#769,#770,#771,#772,#773,#774,#775,#776,#777,
#778,#779));
#178=EDGE_LOOP('',(#780,#781,#782,#783,#784));
#179=EDGE_LOOP('',(#785));
#180=EDGE_LOOP('',(#786));
#181=EDGE_LOOP('',(#787));
#182=EDGE_LOOP('',(#788));
#183=EDGE_LOOP('',(#789,#790,#791,#792,#793));
#184=EDGE_LOOP('',(#794,#795,#796,#797));
#185=EDGE_LOOP('',(#798));
#186=EDGE_LOOP('',(#799));
#187=EDGE_LOOP('',(#800));
#188=EDGE_LOOP('',(#801));
#189=EDGE_LOOP('',(#802));
#190=EDGE_LOOP('',(#803));
#191=EDGE_LOOP('',(#804));
#192=EDGE_LOOP('',(#805));
#193=EDGE_LOOP('',(#806));
#194=EDGE_LOOP('',(#807));
#195=EDGE_LOOP('',(#808));
#196=EDGE_LOOP('',(#809));
#197=EDGE_LOOP('',(#810));
#198=EDGE_LOOP('',(#811));
#199=EDGE_LOOP('',(#812));
#200=EDGE_LOOP('',(#813));
#201=EDGE_LOOP('',(#814,#815,#816,#817));
#202=EDGE_LOOP('',(#818,#819,#820,#821,#822));
#203=EDGE_LOOP('',(#823,#824,#825,#826,#827));
#204=EDGE_LOOP('',(#828,#829,#830,#831));
#205=EDGE_LOOP('',(#832,#833,#834,#835,#836));
#206=EDGE_LOOP('',(#837,#838,#839,#840,#841));
#207=EDGE_LOOP('',(#842));
#208=EDGE_LOOP('',(#843));
#209=LINE('',#1372,#264);
#210=LINE('',#1378,#265);
#211=LINE('',#1389,#266);
#212=LINE('',#1395,#267);
#213=LINE('',#1399,#268);
#214=LINE('',#1404,#269);
#215=LINE('',#1411,#270);
#216=LINE('',#1417,#271);
#217=LINE('',#1425,#272);
#218=LINE('',#1431,#273);
#219=LINE('',#1439,#274);
#220=LINE('',#1445,#275);
#221=LINE('',#1453,#276);
#222=LINE('',#1459,#277);
#223=LINE('',#1467,#278);
#224=LINE('',#1473,#279);
#225=LINE('',#1481,#280);
#226=LINE('',#1487,#281);
#227=LINE('',#1495,#282);
#228=LINE('',#1501,#283);
#229=LINE('',#1509,#284);
#230=LINE('',#1515,#285);
#231=LINE('',#1523,#286);
#232=LINE('',#1526,#287);
#233=LINE('',#1528,#288);
#234=LINE('',#1530,#289);
#235=LINE('',#1532,#290);
#236=LINE('',#1534,#291);
#237=LINE('',#1536,#292);
#238=LINE('',#1538,#293);
#239=LINE('',#1540,#294);
#240=LINE('',#1545,#295);
#241=LINE('',#1552,#296);
#242=LINE('',#1558,#297);
#243=LINE('',#1561,#298);
#244=LINE('',#1567,#299);
#245=LINE('',#1571,#300);
#246=LINE('',#1574,#301);
#247=LINE('',#1578,#302);
#248=LINE('',#1581,#303);
#249=LINE('',#1584,#304);
#250=LINE('',#1588,#305);
#251=LINE('',#1591,#306);
#252=LINE('',#1593,#307);
#253=LINE('',#1597,#308);
#254=LINE('',#1601,#309);
#255=LINE('',#1603,#310);
#256=LINE('',#1606,#311);
#257=LINE('',#1607,#312);
#258=LINE('',#1609,#313);
#259=LINE('',#1610,#314);
#260=LINE('',#1614,#315);
#261=LINE('',#1615,#316);
#262=LINE('',#1619,#317);
#263=LINE('',#1620,#318);
#264=VECTOR('',#1067,29.75);
#265=VECTOR('',#1074,31.75);
#266=VECTOR('',#1089,32.2);
#267=VECTOR('',#1096,30.15);
#268=VECTOR('',#1101,31.9);
#269=VECTOR('',#1108,30.15);
#270=VECTOR('',#1115,4.59999999999998);
#271=VECTOR('',#1122,4.2);
#272=VECTOR('',#1131,4.60000000000003);
#273=VECTOR('',#1138,4.2);
#274=VECTOR('',#1147,4.60000000000001);
#275=VECTOR('',#1154,4.2);
#276=VECTOR('',#1163,4.60000000000003);
#277=VECTOR('',#1170,4.2);
#278=VECTOR('',#1179,4.59999999999999);
#279=VECTOR('',#1186,4.2);
#280=VECTOR('',#1195,4.60000000000003);
#281=VECTOR('',#1202,4.2);
#282=VECTOR('',#1211,4.60000000000001);
#283=VECTOR('',#1218,4.2);
#284=VECTOR('',#1227,4.60000000000003);
#285=VECTOR('',#1234,4.2);
#286=VECTOR('',#1243,56.25);
#287=VECTOR('',#1248,4.2);
#288=VECTOR('',#1251,4.2);
#289=VECTOR('',#1254,4.2);
#290=VECTOR('',#1257,4.2);
#291=VECTOR('',#1260,4.2);
#292=VECTOR('',#1263,4.2);
#293=VECTOR('',#1266,4.2);
#294=VECTOR('',#1269,4.2);
#295=VECTOR('',#1274,38.3816178594403);
#296=VECTOR('',#1283,38.6);
#297=VECTOR('',#1288,10.);
#298=VECTOR('',#1291,10.);
#299=VECTOR('',#1296,1000.);
#300=VECTOR('',#1299,1000.);
#301=VECTOR('',#1302,41.275);
#302=VECTOR('',#1305,1000.);
#303=VECTOR('',#1308,1000.);
#304=VECTOR('',#1311,56.75);
#305=VECTOR('',#1314,1000.);
#306=VECTOR('',#1317,1000.);
#307=VECTOR('',#1318,1000.);
#308=VECTOR('',#1321,1000.);
#309=VECTOR('',#1326,1000.);
#310=VECTOR('',#1327,1000.);
#311=VECTOR('',#1332,10.);
#312=VECTOR('',#1333,10.);
#313=VECTOR('',#1336,1000.);
#314=VECTOR('',#1337,1000.);
#315=VECTOR('',#1344,1000.);
#316=VECTOR('',#1345,1000.);
#317=VECTOR('',#1352,1000.);
#318=VECTOR('',#1353,1000.);
#319=CIRCLE('',#936,29.75);
#320=CIRCLE('',#937,29.75);
#321=CIRCLE('',#939,31.75);
#322=CIRCLE('',#940,31.75);
#323=CIRCLE('',#945,31.9);
#324=CIRCLE('',#946,31.9);
#325=CIRCLE('',#947,32.2);
#326=CIRCLE('',#949,30.15);
#327=CIRCLE('',#950,30.45);
#328=CIRCLE('',#952,31.9);
#329=CIRCLE('',#954,30.15);
#330=CIRCLE('',#956,4.2);
#331=CIRCLE('',#957,4.2);
#332=CIRCLE('',#958,4.59999999999998);
#333=CIRCLE('',#960,4.2);
#334=CIRCLE('',#961,4.59999999999998);
#335=CIRCLE('',#963,4.2);
#336=CIRCLE('',#964,4.2);
#337=CIRCLE('',#965,4.60000000000003);
#338=CIRCLE('',#967,4.2);
#339=CIRCLE('',#968,4.59999999999998);
#340=CIRCLE('',#970,4.2);
#341=CIRCLE('',#971,4.2);
#342=CIRCLE('',#972,4.60000000000001);
#343=CIRCLE('',#974,4.2);
#344=CIRCLE('',#975,4.60000000000001);
#345=CIRCLE('',#977,4.2);
#346=CIRCLE('',#978,4.2);
#347=CIRCLE('',#979,4.60000000000003);
#348=CIRCLE('',#981,4.2);
#349=CIRCLE('',#982,4.59999999999998);
#350=CIRCLE('',#984,4.2);
#351=CIRCLE('',#985,4.2);
#352=CIRCLE('',#986,4.59999999999999);
#353=CIRCLE('',#988,4.2);
#354=CIRCLE('',#989,4.59999999999999);
#355=CIRCLE('',#991,4.2);
#356=CIRCLE('',#992,4.2);
#357=CIRCLE('',#993,4.60000000000003);
#358=CIRCLE('',#995,4.2);
#359=CIRCLE('',#996,4.59999999999998);
#360=CIRCLE('',#998,4.2);
#361=CIRCLE('',#999,4.2);
#362=CIRCLE('',#1000,4.60000000000001);
#363=CIRCLE('',#1002,4.2);
#364=CIRCLE('',#1003,4.60000000000001);
#365=CIRCLE('',#1005,4.2);
#366=CIRCLE('',#1006,4.2);
#367=CIRCLE('',#1007,4.60000000000003);
#368=CIRCLE('',#1009,4.2);
#369=CIRCLE('',#1010,4.59999999999998);
#370=CIRCLE('',#1012,56.75);
#371=CIRCLE('',#1013,56.75);
#372=CIRCLE('',#1014,56.25);
#373=CIRCLE('',#1024,38.3816178594403);
#374=CIRCLE('',#1025,38.6);
#375=CIRCLE('',#1026,38.6);
#376=CIRCLE('',#1028,41.275);
#377=CIRCLE('',#1030,56.25);
#378=CIRCLE('',#1031,56.75);
#379=CIRCLE('',#1033,41.275);
#380=CIRCLE('',#1034,41.275);
#381=CIRCLE('',#1035,41.275);
#382=CIRCLE('',#1036,41.275);
#383=CIRCLE('',#1037,41.275);
#384=CIRCLE('',#1039,56.75);
#385=CIRCLE('',#1040,56.75);
#386=CIRCLE('',#1041,56.75);
#387=CIRCLE('',#1042,56.75);
#388=CIRCLE('',#1044,56.25);
#389=VERTEX_POINT('',#1369);
#390=VERTEX_POINT('',#1371);
#391=VERTEX_POINT('',#1375);
#392=VERTEX_POINT('',#1377);
#393=VERTEX_POINT('',#1384);
#394=VERTEX_POINT('',#1385);
#395=VERTEX_POINT('',#1388);
#396=VERTEX_POINT('',#1392);
#397=VERTEX_POINT('',#1394);
#398=VERTEX_POINT('',#1398);
#399=VERTEX_POINT('',#1402);
#400=VERTEX_POINT('',#1406);
#401=VERTEX_POINT('',#1407);
#402=VERTEX_POINT('',#1410);
#403=VERTEX_POINT('',#1414);
#404=VERTEX_POINT('',#1416);
#405=VERTEX_POINT('',#1420);
#406=VERTEX_POINT('',#1421);
#407=VERTEX_POINT('',#1424);
#408=VERTEX_POINT('',#1428);
#409=VERTEX_POINT('',#1430);
#410=VERTEX_POINT('',#1434);
#411=VERTEX_POINT('',#1435);
#412=VERTEX_POINT('',#1438);
#413=VERTEX_POINT('',#1442);
#414=VERTEX_POINT('',#1444);
#415=VERTEX_POINT('',#1448);
#416=VERTEX_POINT('',#1449);
#417=VERTEX_POINT('',#1452);
#418=VERTEX_POINT('',#1456);
#419=VERTEX_POINT('',#1458);
#420=VERTEX_POINT('',#1462);
#421=VERTEX_POINT('',#1463);
#422=VERTEX_POINT('',#1466);
#423=VERTEX_POINT('',#1470);
#424=VERTEX_POINT('',#1472);
#425=VERTEX_POINT('',#1476);
#426=VERTEX_POINT('',#1477);
#427=VERTEX_POINT('',#1480);
#428=VERTEX_POINT('',#1484);
#429=VERTEX_POINT('',#1486);
#430=VERTEX_POINT('',#1490);
#431=VERTEX_POINT('',#1491);
#432=VERTEX_POINT('',#1494);
#433=VERTEX_POINT('',#1498);
#434=VERTEX_POINT('',#1500);
#435=VERTEX_POINT('',#1504);
#436=VERTEX_POINT('',#1505);
#437=VERTEX_POINT('',#1508);
#438=VERTEX_POINT('',#1512);
#439=VERTEX_POINT('',#1514);
#440=VERTEX_POINT('',#1518);
#441=VERTEX_POINT('',#1519);
#442=VERTEX_POINT('',#1522);
#443=VERTEX_POINT('',#1542);
#444=VERTEX_POINT('',#1544);
#445=VERTEX_POINT('',#1546);
#446=VERTEX_POINT('',#1550);
#447=VERTEX_POINT('',#1554);
#448=VERTEX_POINT('',#1555);
#449=VERTEX_POINT('',#1557);
#450=VERTEX_POINT('',#1559);
#451=VERTEX_POINT('',#1563);
#452=VERTEX_POINT('',#1564);
#453=VERTEX_POINT('',#1566);
#454=VERTEX_POINT('',#1568);
#455=VERTEX_POINT('',#1570);
#456=VERTEX_POINT('',#1572);
#457=VERTEX_POINT('',#1575);
#458=VERTEX_POINT('',#1577);
#459=VERTEX_POINT('',#1579);
#460=VERTEX_POINT('',#1583);
#461=VERTEX_POINT('',#1585);
#462=VERTEX_POINT('',#1587);
#463=VERTEX_POINT('',#1589);
#464=VERTEX_POINT('',#1592);
#465=VERTEX_POINT('',#1594);
#466=VERTEX_POINT('',#1596);
#467=VERTEX_POINT('',#1600);
#468=VERTEX_POINT('',#1602);
#469=EDGE_CURVE('',#389,#389,#319,.T.);
#470=EDGE_CURVE('',#389,#390,#209,.T.);
#471=EDGE_CURVE('',#390,#390,#320,.T.);
#472=EDGE_CURVE('',#391,#391,#321,.T.);
#473=EDGE_CURVE('',#391,#392,#210,.T.);
#474=EDGE_CURVE('',#392,#392,#322,.T.);
#475=EDGE_CURVE('',#393,#394,#323,.T.);
#476=EDGE_CURVE('',#394,#393,#324,.T.);
#477=EDGE_CURVE('',#394,#395,#211,.T.);
#478=EDGE_CURVE('',#395,#395,#325,.T.);
#479=EDGE_CURVE('',#396,#396,#326,.T.);
#480=EDGE_CURVE('',#396,#397,#212,.T.);
#481=EDGE_CURVE('',#397,#397,#327,.T.);
#482=EDGE_CURVE('',#393,#398,#213,.T.);
#483=EDGE_CURVE('',#398,#398,#328,.T.);
#484=EDGE_CURVE('',#399,#399,#329,.T.);
#485=EDGE_CURVE('',#399,#396,#214,.T.);
#486=EDGE_CURVE('',#400,#401,#330,.T.);
#487=EDGE_CURVE('',#401,#400,#331,.T.);
#488=EDGE_CURVE('',#401,#402,#215,.T.);
#489=EDGE_CURVE('',#402,#402,#332,.T.);
#490=EDGE_CURVE('',#403,#403,#333,.T.);
#491=EDGE_CURVE('',#403,#404,#216,.T.);
#492=EDGE_CURVE('',#404,#404,#334,.T.);
#493=EDGE_CURVE('',#405,#406,#335,.T.);
#494=EDGE_CURVE('',#406,#405,#336,.T.);
#495=EDGE_CURVE('',#406,#407,#217,.T.);
#496=EDGE_CURVE('',#407,#407,#337,.T.);
#497=EDGE_CURVE('',#408,#408,#338,.T.);
#498=EDGE_CURVE('',#408,#409,#218,.T.);
#499=EDGE_CURVE('',#409,#409,#339,.T.);
#500=EDGE_CURVE('',#410,#411,#340,.T.);
#501=EDGE_CURVE('',#411,#410,#341,.T.);
#502=EDGE_CURVE('',#411,#412,#219,.T.);
#503=EDGE_CURVE('',#412,#412,#342,.T.);
#504=EDGE_CURVE('',#413,#413,#343,.T.);
#505=EDGE_CURVE('',#413,#414,#220,.T.);
#506=EDGE_CURVE('',#414,#414,#344,.T.);
#507=EDGE_CURVE('',#415,#416,#345,.T.);
#508=EDGE_CURVE('',#416,#415,#346,.T.);
#509=EDGE_CURVE('',#416,#417,#221,.T.);
#510=EDGE_CURVE('',#417,#417,#347,.T.);
#511=EDGE_CURVE('',#418,#418,#348,.T.);
#512=EDGE_CURVE('',#418,#419,#222,.T.);
#513=EDGE_CURVE('',#419,#419,#349,.T.);
#514=EDGE_CURVE('',#420,#421,#350,.T.);
#515=EDGE_CURVE('',#421,#420,#351,.T.);
#516=EDGE_CURVE('',#421,#422,#223,.T.);
#517=EDGE_CURVE('',#422,#422,#352,.T.);
#518=EDGE_CURVE('',#423,#423,#353,.T.);
#519=EDGE_CURVE('',#423,#424,#224,.T.);
#520=EDGE_CURVE('',#424,#424,#354,.T.);
#521=EDGE_CURVE('',#425,#426,#355,.T.);
#522=EDGE_CURVE('',#426,#425,#356,.T.);
#523=EDGE_CURVE('',#426,#427,#225,.T.);
#524=EDGE_CURVE('',#427,#427,#357,.T.);
#525=EDGE_CURVE('',#428,#428,#358,.T.);
#526=EDGE_CURVE('',#428,#429,#226,.T.);
#527=EDGE_CURVE('',#429,#429,#359,.T.);
#528=EDGE_CURVE('',#430,#431,#360,.T.);
#529=EDGE_CURVE('',#431,#430,#361,.T.);
#530=EDGE_CURVE('',#431,#432,#227,.T.);
#531=EDGE_CURVE('',#432,#432,#362,.T.);
#532=EDGE_CURVE('',#433,#433,#363,.T.);
#533=EDGE_CURVE('',#433,#434,#228,.T.);
#534=EDGE_CURVE('',#434,#434,#364,.T.);
#535=EDGE_CURVE('',#435,#436,#365,.T.);
#536=EDGE_CURVE('',#436,#435,#366,.T.);
#537=EDGE_CURVE('',#436,#437,#229,.T.);
#538=EDGE_CURVE('',#437,#437,#367,.T.);
#539=EDGE_CURVE('',#438,#438,#368,.T.);
#540=EDGE_CURVE('',#438,#439,#230,.T.);
#541=EDGE_CURVE('',#439,#439,#369,.T.);
#542=EDGE_CURVE('',#440,#441,#370,.T.);
#543=EDGE_CURVE('',#441,#440,#371,.T.);
#544=EDGE_CURVE('',#441,#442,#231,.T.);
#545=EDGE_CURVE('',#442,#442,#372,.T.);
#546=EDGE_CURVE('',#420,#423,#232,.T.);
#547=EDGE_CURVE('',#415,#418,#233,.T.);
#548=EDGE_CURVE('',#410,#413,#234,.T.);
#549=EDGE_CURVE('',#405,#408,#235,.T.);
#550=EDGE_CURVE('',#400,#403,#236,.T.);
#551=EDGE_CURVE('',#435,#438,#237,.T.);
#552=EDGE_CURVE('',#430,#433,#238,.T.);
#553=EDGE_CURVE('',#425,#428,#239,.T.);
#554=EDGE_CURVE('',#443,#443,#373,.T.);
#555=EDGE_CURVE('',#443,#444,#240,.T.);
#556=EDGE_CURVE('',#445,#444,#374,.T.);
#557=EDGE_CURVE('',#444,#445,#375,.T.);
#558=EDGE_CURVE('',#446,#446,#376,.T.);
#559=EDGE_CURVE('',#446,#445,#241,.T.);
#560=EDGE_CURVE('',#447,#448,#377,.T.);
#561=EDGE_CURVE('',#449,#447,#242,.T.);
#562=EDGE_CURVE('',#450,#449,#378,.T.);
#563=EDGE_CURVE('',#450,#448,#243,.T.);
#564=EDGE_CURVE('',#451,#452,#379,.T.);
#565=EDGE_CURVE('',#453,#451,#244,.T.);
#566=EDGE_CURVE('',#453,#454,#380,.T.);
#567=EDGE_CURVE('',#454,#455,#245,.T.);
#568=EDGE_CURVE('',#456,#455,#381,.T.);
#569=EDGE_CURVE('',#456,#446,#246,.T.);
#570=EDGE_CURVE('',#457,#456,#382,.T.);
#571=EDGE_CURVE('',#458,#457,#247,.T.);
#572=EDGE_CURVE('',#458,#459,#383,.T.);
#573=EDGE_CURVE('',#459,#452,#248,.T.);
#574=EDGE_CURVE('',#440,#460,#249,.T.);
#575=EDGE_CURVE('',#460,#461,#384,.T.);
#576=EDGE_CURVE('',#461,#462,#250,.T.);
#577=EDGE_CURVE('',#462,#463,#385,.T.);
#578=EDGE_CURVE('',#450,#463,#251,.T.);
#579=EDGE_CURVE('',#449,#464,#252,.T.);
#580=EDGE_CURVE('',#464,#465,#386,.T.);
#581=EDGE_CURVE('',#466,#465,#253,.T.);
#582=EDGE_CURVE('',#466,#460,#387,.T.);
#583=EDGE_CURVE('',#467,#457,#254,.T.);
#584=EDGE_CURVE('',#468,#455,#255,.T.);
#585=EDGE_CURVE('',#468,#467,#388,.T.);
#586=EDGE_CURVE('',#466,#467,#256,.T.);
#587=EDGE_CURVE('',#461,#468,#257,.T.);
#588=EDGE_CURVE('',#447,#452,#258,.T.);
#589=EDGE_CURVE('',#448,#451,#259,.T.);
#590=EDGE_CURVE('',#462,#454,#260,.T.);
#591=EDGE_CURVE('',#463,#453,#261,.T.);
#592=EDGE_CURVE('',#464,#459,#262,.T.);
#593=EDGE_CURVE('',#465,#458,#263,.T.);
#594=ORIENTED_EDGE('',*,*,#469,.T.);
#595=ORIENTED_EDGE('',*,*,#470,.T.);
#596=ORIENTED_EDGE('',*,*,#471,.F.);
#597=ORIENTED_EDGE('',*,*,#470,.F.);
#598=ORIENTED_EDGE('',*,*,#472,.T.);
#599=ORIENTED_EDGE('',*,*,#473,.T.);
#600=ORIENTED_EDGE('',*,*,#474,.F.);
#601=ORIENTED_EDGE('',*,*,#473,.F.);
#602=ORIENTED_EDGE('',*,*,#474,.T.);
#603=ORIENTED_EDGE('',*,*,#469,.F.);
#604=ORIENTED_EDGE('',*,*,#472,.F.);
#605=ORIENTED_EDGE('',*,*,#471,.T.);
#606=ORIENTED_EDGE('',*,*,#475,.F.);
#607=ORIENTED_EDGE('',*,*,#476,.F.);
#608=ORIENTED_EDGE('',*,*,#477,.T.);
#609=ORIENTED_EDGE('',*,*,#478,.F.);
#610=ORIENTED_EDGE('',*,*,#477,.F.);
#611=ORIENTED_EDGE('',*,*,#479,.F.);
#612=ORIENTED_EDGE('',*,*,#480,.T.);
#613=ORIENTED_EDGE('',*,*,#481,.F.);
#614=ORIENTED_EDGE('',*,*,#480,.F.);
#615=ORIENTED_EDGE('',*,*,#475,.T.);
#616=ORIENTED_EDGE('',*,*,#476,.T.);
#617=ORIENTED_EDGE('',*,*,#482,.T.);
#618=ORIENTED_EDGE('',*,*,#483,.T.);
#619=ORIENTED_EDGE('',*,*,#482,.F.);
#620=ORIENTED_EDGE('',*,*,#484,.F.);
#621=ORIENTED_EDGE('',*,*,#485,.T.);
#622=ORIENTED_EDGE('',*,*,#479,.T.);
#623=ORIENTED_EDGE('',*,*,#485,.F.);
#624=ORIENTED_EDGE('',*,*,#486,.F.);
#625=ORIENTED_EDGE('',*,*,#487,.F.);
#626=ORIENTED_EDGE('',*,*,#488,.T.);
#627=ORIENTED_EDGE('',*,*,#489,.F.);
#628=ORIENTED_EDGE('',*,*,#488,.F.);
#629=ORIENTED_EDGE('',*,*,#490,.F.);
#630=ORIENTED_EDGE('',*,*,#491,.T.);
#631=ORIENTED_EDGE('',*,*,#492,.F.);
#632=ORIENTED_EDGE('',*,*,#491,.F.);
#633=ORIENTED_EDGE('',*,*,#493,.F.);
#634=ORIENTED_EDGE('',*,*,#494,.F.);
#635=ORIENTED_EDGE('',*,*,#495,.T.);
#636=ORIENTED_EDGE('',*,*,#496,.F.);
#637=ORIENTED_EDGE('',*,*,#495,.F.);
#638=ORIENTED_EDGE('',*,*,#497,.F.);
#639=ORIENTED_EDGE('',*,*,#498,.T.);
#640=ORIENTED_EDGE('',*,*,#499,.F.);
#641=ORIENTED_EDGE('',*,*,#498,.F.);
#642=ORIENTED_EDGE('',*,*,#500,.F.);
#643=ORIENTED_EDGE('',*,*,#501,.F.);
#644=ORIENTED_EDGE('',*,*,#502,.T.);
#645=ORIENTED_EDGE('',*,*,#503,.F.);
#646=ORIENTED_EDGE('',*,*,#502,.F.);
#647=ORIENTED_EDGE('',*,*,#504,.F.);
#648=ORIENTED_EDGE('',*,*,#505,.T.);
#649=ORIENTED_EDGE('',*,*,#506,.F.);
#650=ORIENTED_EDGE('',*,*,#505,.F.);
#651=ORIENTED_EDGE('',*,*,#507,.F.);
#652=ORIENTED_EDGE('',*,*,#508,.F.);
#653=ORIENTED_EDGE('',*,*,#509,.T.);
#654=ORIENTED_EDGE('',*,*,#510,.F.);
#655=ORIENTED_EDGE('',*,*,#509,.F.);
#656=ORIENTED_EDGE('',*,*,#511,.F.);
#657=ORIENTED_EDGE('',*,*,#512,.T.);
#658=ORIENTED_EDGE('',*,*,#513,.F.);
#659=ORIENTED_EDGE('',*,*,#512,.F.);
#660=ORIENTED_EDGE('',*,*,#514,.F.);
#661=ORIENTED_EDGE('',*,*,#515,.F.);
#662=ORIENTED_EDGE('',*,*,#516,.T.);
#663=ORIENTED_EDGE('',*,*,#517,.F.);
#664=ORIENTED_EDGE('',*,*,#516,.F.);
#665=ORIENTED_EDGE('',*,*,#518,.F.);
#666=ORIENTED_EDGE('',*,*,#519,.T.);
#667=ORIENTED_EDGE('',*,*,#520,.F.);
#668=ORIENTED_EDGE('',*,*,#519,.F.);
#669=ORIENTED_EDGE('',*,*,#521,.F.);
#670=ORIENTED_EDGE('',*,*,#522,.F.);
#671=ORIENTED_EDGE('',*,*,#523,.T.);
#672=ORIENTED_EDGE('',*,*,#524,.F.);
#673=ORIENTED_EDGE('',*,*,#523,.F.);
#674=ORIENTED_EDGE('',*,*,#525,.F.);
#675=ORIENTED_EDGE('',*,*,#526,.T.);
#676=ORIENTED_EDGE('',*,*,#527,.F.);
#677=ORIENTED_EDGE('',*,*,#526,.F.);
#678=ORIENTED_EDGE('',*,*,#528,.F.);
#679=ORIENTED_EDGE('',*,*,#529,.F.);
#680=ORIENTED_EDGE('',*,*,#530,.T.);
#681=ORIENTED_EDGE('',*,*,#531,.F.);
#682=ORIENTED_EDGE('',*,*,#530,.F.);
#683=ORIENTED_EDGE('',*,*,#532,.F.);
#684=ORIENTED_EDGE('',*,*,#533,.T.);
#685=ORIENTED_EDGE('',*,*,#534,.F.);
#686=ORIENTED_EDGE('',*,*,#533,.F.);
#687=ORIENTED_EDGE('',*,*,#535,.F.);
#688=ORIENTED_EDGE('',*,*,#536,.F.);
#689=ORIENTED_EDGE('',*,*,#537,.T.);
#690=ORIENTED_EDGE('',*,*,#538,.F.);
#691=ORIENTED_EDGE('',*,*,#537,.F.);
#692=ORIENTED_EDGE('',*,*,#539,.F.);
#693=ORIENTED_EDGE('',*,*,#540,.T.);
#694=ORIENTED_EDGE('',*,*,#541,.F.);
#695=ORIENTED_EDGE('',*,*,#540,.F.);
#696=ORIENTED_EDGE('',*,*,#542,.F.);
#697=ORIENTED_EDGE('',*,*,#543,.F.);
#698=ORIENTED_EDGE('',*,*,#544,.T.);
#699=ORIENTED_EDGE('',*,*,#545,.F.);
#700=ORIENTED_EDGE('',*,*,#544,.F.);
#701=ORIENTED_EDGE('',*,*,#514,.T.);
#702=ORIENTED_EDGE('',*,*,#515,.T.);
#703=ORIENTED_EDGE('',*,*,#546,.T.);
#704=ORIENTED_EDGE('',*,*,#518,.T.);
#705=ORIENTED_EDGE('',*,*,#546,.F.);
#706=ORIENTED_EDGE('',*,*,#507,.T.);
#707=ORIENTED_EDGE('',*,*,#508,.T.);
#708=ORIENTED_EDGE('',*,*,#547,.T.);
#709=ORIENTED_EDGE('',*,*,#511,.T.);
#710=ORIENTED_EDGE('',*,*,#547,.F.);
#711=ORIENTED_EDGE('',*,*,#500,.T.);
#712=ORIENTED_EDGE('',*,*,#501,.T.);
#713=ORIENTED_EDGE('',*,*,#548,.T.);
#714=ORIENTED_EDGE('',*,*,#504,.T.);
#715=ORIENTED_EDGE('',*,*,#548,.F.);
#716=ORIENTED_EDGE('',*,*,#493,.T.);
#717=ORIENTED_EDGE('',*,*,#494,.T.);
#718=ORIENTED_EDGE('',*,*,#549,.T.);
#719=ORIENTED_EDGE('',*,*,#497,.T.);
#720=ORIENTED_EDGE('',*,*,#549,.F.);
#721=ORIENTED_EDGE('',*,*,#486,.T.);
#722=ORIENTED_EDGE('',*,*,#487,.T.);
#723=ORIENTED_EDGE('',*,*,#550,.T.);
#724=ORIENTED_EDGE('',*,*,#490,.T.);
#725=ORIENTED_EDGE('',*,*,#550,.F.);
#726=ORIENTED_EDGE('',*,*,#535,.T.);
#727=ORIENTED_EDGE('',*,*,#536,.T.);
#728=ORIENTED_EDGE('',*,*,#551,.T.);
#729=ORIENTED_EDGE('',*,*,#539,.T.);
#730=ORIENTED_EDGE('',*,*,#551,.F.);
#731=ORIENTED_EDGE('',*,*,#528,.T.);
#732=ORIENTED_EDGE('',*,*,#529,.T.);
#733=ORIENTED_EDGE('',*,*,#552,.T.);
#734=ORIENTED_EDGE('',*,*,#532,.T.);
#735=ORIENTED_EDGE('',*,*,#552,.F.);
#736=ORIENTED_EDGE('',*,*,#521,.T.);
#737=ORIENTED_EDGE('',*,*,#522,.T.);
#738=ORIENTED_EDGE('',*,*,#553,.T.);
#739=ORIENTED_EDGE('',*,*,#525,.T.);
#740=ORIENTED_EDGE('',*,*,#553,.F.);
#741=ORIENTED_EDGE('',*,*,#554,.T.);
#742=ORIENTED_EDGE('',*,*,#555,.T.);
#743=ORIENTED_EDGE('',*,*,#556,.F.);
#744=ORIENTED_EDGE('',*,*,#557,.F.);
#745=ORIENTED_EDGE('',*,*,#555,.F.);
#746=ORIENTED_EDGE('',*,*,#558,.F.);
#747=ORIENTED_EDGE('',*,*,#559,.T.);
#748=ORIENTED_EDGE('',*,*,#556,.T.);
#749=ORIENTED_EDGE('',*,*,#557,.T.);
#750=ORIENTED_EDGE('',*,*,#559,.F.);
#751=ORIENTED_EDGE('',*,*,#560,.F.);
#752=ORIENTED_EDGE('',*,*,#561,.F.);
#753=ORIENTED_EDGE('',*,*,#562,.F.);
#754=ORIENTED_EDGE('',*,*,#563,.T.);
#755=ORIENTED_EDGE('',*,*,#564,.F.);
#756=ORIENTED_EDGE('',*,*,#565,.F.);
#757=ORIENTED_EDGE('',*,*,#566,.T.);
#758=ORIENTED_EDGE('',*,*,#567,.T.);
#759=ORIENTED_EDGE('',*,*,#568,.F.);
#760=ORIENTED_EDGE('',*,*,#569,.T.);
#761=ORIENTED_EDGE('',*,*,#558,.T.);
#762=ORIENTED_EDGE('',*,*,#569,.F.);
#763=ORIENTED_EDGE('',*,*,#570,.F.);
#764=ORIENTED_EDGE('',*,*,#571,.F.);
#765=ORIENTED_EDGE('',*,*,#572,.T.);
#766=ORIENTED_EDGE('',*,*,#573,.T.);
#767=ORIENTED_EDGE('',*,*,#542,.T.);
#768=ORIENTED_EDGE('',*,*,#543,.T.);
#769=ORIENTED_EDGE('',*,*,#574,.T.);
#770=ORIENTED_EDGE('',*,*,#575,.T.);
#771=ORIENTED_EDGE('',*,*,#576,.T.);
#772=ORIENTED_EDGE('',*,*,#577,.T.);
#773=ORIENTED_EDGE('',*,*,#578,.F.);
#774=ORIENTED_EDGE('',*,*,#562,.T.);
#775=ORIENTED_EDGE('',*,*,#579,.T.);
#776=ORIENTED_EDGE('',*,*,#580,.T.);
#777=ORIENTED_EDGE('',*,*,#581,.F.);
#778=ORIENTED_EDGE('',*,*,#582,.T.);
#779=ORIENTED_EDGE('',*,*,#574,.F.);
#780=ORIENTED_EDGE('',*,*,#583,.T.);
#781=ORIENTED_EDGE('',*,*,#570,.T.);
#782=ORIENTED_EDGE('',*,*,#568,.T.);
#783=ORIENTED_EDGE('',*,*,#584,.F.);
#784=ORIENTED_EDGE('',*,*,#585,.T.);
#785=ORIENTED_EDGE('',*,*,#499,.T.);
#786=ORIENTED_EDGE('',*,*,#506,.T.);
#787=ORIENTED_EDGE('',*,*,#513,.T.);
#788=ORIENTED_EDGE('',*,*,#520,.T.);
#789=ORIENTED_EDGE('',*,*,#582,.F.);
#790=ORIENTED_EDGE('',*,*,#586,.T.);
#791=ORIENTED_EDGE('',*,*,#585,.F.);
#792=ORIENTED_EDGE('',*,*,#587,.F.);
#793=ORIENTED_EDGE('',*,*,#575,.F.);
#794=ORIENTED_EDGE('',*,*,#564,.T.);
#795=ORIENTED_EDGE('',*,*,#588,.F.);
#796=ORIENTED_EDGE('',*,*,#560,.T.);
#797=ORIENTED_EDGE('',*,*,#589,.T.);
#798=ORIENTED_EDGE('',*,*,#492,.T.);
#799=ORIENTED_EDGE('',*,*,#527,.T.);
#800=ORIENTED_EDGE('',*,*,#534,.T.);
#801=ORIENTED_EDGE('',*,*,#541,.T.);
#802=ORIENTED_EDGE('',*,*,#554,.F.);
#803=ORIENTED_EDGE('',*,*,#481,.T.);
#804=ORIENTED_EDGE('',*,*,#545,.T.);
#805=ORIENTED_EDGE('',*,*,#478,.T.);
#806=ORIENTED_EDGE('',*,*,#538,.T.);
#807=ORIENTED_EDGE('',*,*,#531,.T.);
#808=ORIENTED_EDGE('',*,*,#524,.T.);
#809=ORIENTED_EDGE('',*,*,#517,.T.);
#810=ORIENTED_EDGE('',*,*,#510,.T.);
#811=ORIENTED_EDGE('',*,*,#503,.T.);
#812=ORIENTED_EDGE('',*,*,#496,.T.);
#813=ORIENTED_EDGE('',*,*,#489,.T.);
#814=ORIENTED_EDGE('',*,*,#590,.T.);
#815=ORIENTED_EDGE('',*,*,#566,.F.);
#816=ORIENTED_EDGE('',*,*,#591,.F.);
#817=ORIENTED_EDGE('',*,*,#577,.F.);
#818=ORIENTED_EDGE('',*,*,#565,.T.);
#819=ORIENTED_EDGE('',*,*,#589,.F.);
#820=ORIENTED_EDGE('',*,*,#563,.F.);
#821=ORIENTED_EDGE('',*,*,#578,.T.);
#822=ORIENTED_EDGE('',*,*,#591,.T.);
#823=ORIENTED_EDGE('',*,*,#590,.F.);
#824=ORIENTED_EDGE('',*,*,#576,.F.);
#825=ORIENTED_EDGE('',*,*,#587,.T.);
#826=ORIENTED_EDGE('',*,*,#584,.T.);
#827=ORIENTED_EDGE('',*,*,#567,.F.);
#828=ORIENTED_EDGE('',*,*,#592,.T.);
#829=ORIENTED_EDGE('',*,*,#572,.F.);
#830=ORIENTED_EDGE('',*,*,#593,.F.);
#831=ORIENTED_EDGE('',*,*,#580,.F.);
#832=ORIENTED_EDGE('',*,*,#571,.T.);
#833=ORIENTED_EDGE('',*,*,#583,.F.);
#834=ORIENTED_EDGE('',*,*,#586,.F.);
#835=ORIENTED_EDGE('',*,*,#581,.T.);
#836=ORIENTED_EDGE('',*,*,#593,.T.);
#837=ORIENTED_EDGE('',*,*,#592,.F.);
#838=ORIENTED_EDGE('',*,*,#579,.F.);
#839=ORIENTED_EDGE('',*,*,#561,.T.);
#840=ORIENTED_EDGE('',*,*,#588,.T.);
#841=ORIENTED_EDGE('',*,*,#573,.F.);
#842=ORIENTED_EDGE('',*,*,#483,.F.);
#843=ORIENTED_EDGE('',*,*,#484,.T.);
#844=CYLINDRICAL_SURFACE('',#935,29.75);
#845=CYLINDRICAL_SURFACE('',#938,31.75);
#846=CYLINDRICAL_SURFACE('',#951,31.9);
#847=CYLINDRICAL_SURFACE('',#953,30.15);
#848=CYLINDRICAL_SURFACE('',#1015,4.2);
#849=CYLINDRICAL_SURFACE('',#1016,4.2);
#850=CYLINDRICAL_SURFACE('',#1017,4.2);
#851=CYLINDRICAL_SURFACE('',#1018,4.2);
#852=CYLINDRICAL_SURFACE('',#1019,4.2);
#853=CYLINDRICAL_SURFACE('',#1020,4.2);
#854=CYLINDRICAL_SURFACE('',#1021,4.2);
#855=CYLINDRICAL_SURFACE('',#1022,4.2);
#856=CYLINDRICAL_SURFACE('',#1032,41.275);
#857=CYLINDRICAL_SURFACE('',#1038,56.75);
#858=ADVANCED_FACE('',(#88),#844,.F.);
#859=ADVANCED_FACE('',(#89),#845,.T.);
#860=ADVANCED_FACE('',(#90,#54),#75,.T.);
#861=ADVANCED_FACE('',(#91,#55),#76,.F.);
#862=ADVANCED_FACE('',(#92),#23,.F.);
#863=ADVANCED_FACE('',(#93),#24,.F.);
#864=ADVANCED_FACE('',(#94),#846,.F.);
#865=ADVANCED_FACE('',(#95),#847,.F.);
#866=ADVANCED_FACE('',(#96),#25,.F.);
#867=ADVANCED_FACE('',(#97),#26,.F.);
#868=ADVANCED_FACE('',(#98),#27,.F.);
#869=ADVANCED_FACE('',(#99),#28,.F.);
#870=ADVANCED_FACE('',(#100),#29,.F.);
#871=ADVANCED_FACE('',(#101),#30,.F.);
#872=ADVANCED_FACE('',(#102),#31,.F.);
#873=ADVANCED_FACE('',(#103),#32,.F.);
#874=ADVANCED_FACE('',(#104),#33,.F.);
#875=ADVANCED_FACE('',(#105),#34,.F.);
#876=ADVANCED_FACE('',(#106),#35,.F.);
#877=ADVANCED_FACE('',(#107),#36,.F.);
#878=ADVANCED_FACE('',(#108),#37,.F.);
#879=ADVANCED_FACE('',(#109),#38,.F.);
#880=ADVANCED_FACE('',(#110),#39,.F.);
#881=ADVANCED_FACE('',(#111),#40,.F.);
#882=ADVANCED_FACE('',(#112),#41,.T.);
#883=ADVANCED_FACE('',(#113),#848,.F.);
#884=ADVANCED_FACE('',(#114),#849,.F.);
#885=ADVANCED_FACE('',(#115),#850,.F.);
#886=ADVANCED_FACE('',(#116),#851,.F.);
#887=ADVANCED_FACE('',(#117),#852,.F.);
#888=ADVANCED_FACE('',(#118),#853,.F.);
#889=ADVANCED_FACE('',(#119),#854,.F.);
#890=ADVANCED_FACE('',(#120),#855,.F.);
#891=ADVANCED_FACE('',(#121),#42,.F.);
#892=ADVANCED_FACE('',(#122),#43,.T.);
#893=ADVANCED_FACE('',(#123),#44,.T.);
#894=ADVANCED_FACE('',(#124),#856,.F.);
#895=ADVANCED_FACE('',(#125),#857,.T.);
#896=ADVANCED_FACE('',(#126,#56,#57,#58,#59),#77,.F.);
#897=ADVANCED_FACE('',(#127),#45,.T.);
#898=ADVANCED_FACE('',(#128,#60,#61,#62,#63),#78,.F.);
#899=ADVANCED_FACE('',(#129,#64),#79,.F.);
#900=ADVANCED_FACE('',(#130,#65,#66,#67,#68,#69,#70,#71,#72,#73),#80,.F.);
#901=ADVANCED_FACE('',(#131),#81,.F.);
#902=ADVANCED_FACE('',(#132),#82,.T.);
#903=ADVANCED_FACE('',(#133),#83,.F.);
#904=ADVANCED_FACE('',(#134),#84,.F.);
#905=ADVANCED_FACE('',(#135),#85,.T.);
#906=ADVANCED_FACE('',(#136),#86,.F.);
#907=ADVANCED_FACE('',(#137,#74),#87,.F.);
#908=CLOSED_SHELL('',(#858,#859,#860,#861));
#909=CLOSED_SHELL('',(#862,#863,#864,#865,#866,#867,#868,#869,#870,#871,
#872,#873,#874,#875,#876,#877,#878,#879,#880,#881,#882,#883,#884,#885,#886,
#887,#888,#889,#890,#891,#892,#893,#894,#895,#896,#897,#898,#899,#900,#901,
#902,#903,#904,#905,#906,#907));
#910=DERIVED_UNIT_ELEMENT(#914,1.);
#911=DERIVED_UNIT_ELEMENT(#1636,-3.);
#912=DERIVED_UNIT_ELEMENT(#914,1.);
#913=DERIVED_UNIT_ELEMENT(#1636,-3.);
#914=(
MASS_UNIT()
NAMED_UNIT(*)
SI_UNIT(.KILO.,.GRAM.)
);
#915=DERIVED_UNIT((#910,#911));
#916=DERIVED_UNIT((#912,#913));
#917=MEASURE_REPRESENTATION_ITEM('density measure',
POSITIVE_RATIO_MEASURE(7850.),#915);
#918=MEASURE_REPRESENTATION_ITEM('density measure',
POSITIVE_RATIO_MEASURE(7850.),#916);
#919=PROPERTY_DEFINITION_REPRESENTATION(#929,#923);
#920=PROPERTY_DEFINITION_REPRESENTATION(#930,#924);
#921=PROPERTY_DEFINITION_REPRESENTATION(#931,#925);
#922=PROPERTY_DEFINITION_REPRESENTATION(#932,#926);
#923=REPRESENTATION('material name',(#927),#1632);
#924=REPRESENTATION('density',(#917),#1632);
#925=REPRESENTATION('material name',(#928),#1633);
#926=REPRESENTATION('density',(#918),#1633);
#927=DESCRIPTIVE_REPRESENTATION_ITEM('Steel','Steel');
#928=DESCRIPTIVE_REPRESENTATION_ITEM('Steel','Steel');
#929=PROPERTY_DEFINITION('material property','material name',#1653);
#930=PROPERTY_DEFINITION('material property','density of part',#1653);
#931=PROPERTY_DEFINITION('material property','material name',#1654);
#932=PROPERTY_DEFINITION('material property','density of part',#1654);
#933=AXIS2_PLACEMENT_3D('',#1366,#1059,#1060);
#934=AXIS2_PLACEMENT_3D('',#1367,#1061,#1062);
#935=AXIS2_PLACEMENT_3D('',#1368,#1063,#1064);
#936=AXIS2_PLACEMENT_3D('',#1370,#1065,#1066);
#937=AXIS2_PLACEMENT_3D('',#1373,#1068,#1069);
#938=AXIS2_PLACEMENT_3D('',#1374,#1070,#1071);
#939=AXIS2_PLACEMENT_3D('',#1376,#1072,#1073);
#940=AXIS2_PLACEMENT_3D('',#1379,#1075,#1076);
#941=AXIS2_PLACEMENT_3D('',#1380,#1077,#1078);
#942=AXIS2_PLACEMENT_3D('',#1381,#1079,#1080);
#943=AXIS2_PLACEMENT_3D('',#1382,#1081,#1082);
#944=AXIS2_PLACEMENT_3D('',#1383,#1083,#1084);
#945=AXIS2_PLACEMENT_3D('',#1386,#1085,#1086);
#946=AXIS2_PLACEMENT_3D('',#1387,#1087,#1088);
#947=AXIS2_PLACEMENT_3D('',#1390,#1090,#1091);
#948=AXIS2_PLACEMENT_3D('',#1391,#1092,#1093);
#949=AXIS2_PLACEMENT_3D('',#1393,#1094,#1095);
#950=AXIS2_PLACEMENT_3D('',#1396,#1097,#1098);
#951=AXIS2_PLACEMENT_3D('',#1397,#1099,#1100);
#952=AXIS2_PLACEMENT_3D('',#1400,#1102,#1103);
#953=AXIS2_PLACEMENT_3D('',#1401,#1104,#1105);
#954=AXIS2_PLACEMENT_3D('',#1403,#1106,#1107);
#955=AXIS2_PLACEMENT_3D('',#1405,#1109,#1110);
#956=AXIS2_PLACEMENT_3D('',#1408,#1111,#1112);
#957=AXIS2_PLACEMENT_3D('',#1409,#1113,#1114);
#958=AXIS2_PLACEMENT_3D('',#1412,#1116,#1117);
#959=AXIS2_PLACEMENT_3D('',#1413,#1118,#1119);
#960=AXIS2_PLACEMENT_3D('',#1415,#1120,#1121);
#961=AXIS2_PLACEMENT_3D('',#1418,#1123,#1124);
#962=AXIS2_PLACEMENT_3D('',#1419,#1125,#1126);
#963=AXIS2_PLACEMENT_3D('',#1422,#1127,#1128);
#964=AXIS2_PLACEMENT_3D('',#1423,#1129,#1130);
#965=AXIS2_PLACEMENT_3D('',#1426,#1132,#1133);
#966=AXIS2_PLACEMENT_3D('',#1427,#1134,#1135);
#967=AXIS2_PLACEMENT_3D('',#1429,#1136,#1137);
#968=AXIS2_PLACEMENT_3D('',#1432,#1139,#1140);
#969=AXIS2_PLACEMENT_3D('',#1433,#1141,#1142);
#970=AXIS2_PLACEMENT_3D('',#1436,#1143,#1144);
#971=AXIS2_PLACEMENT_3D('',#1437,#1145,#1146);
#972=AXIS2_PLACEMENT_3D('',#1440,#1148,#1149);
#973=AXIS2_PLACEMENT_3D('',#1441,#1150,#1151);
#974=AXIS2_PLACEMENT_3D('',#1443,#1152,#1153);
#975=AXIS2_PLACEMENT_3D('',#1446,#1155,#1156);
#976=AXIS2_PLACEMENT_3D('',#1447,#1157,#1158);
#977=AXIS2_PLACEMENT_3D('',#1450,#1159,#1160);
#978=AXIS2_PLACEMENT_3D('',#1451,#1161,#1162);
#979=AXIS2_PLACEMENT_3D('',#1454,#1164,#1165);
#980=AXIS2_PLACEMENT_3D('',#1455,#1166,#1167);
#981=AXIS2_PLACEMENT_3D('',#1457,#1168,#1169);
#982=AXIS2_PLACEMENT_3D('',#1460,#1171,#1172);
#983=AXIS2_PLACEMENT_3D('',#1461,#1173,#1174);
#984=AXIS2_PLACEMENT_3D('',#1464,#1175,#1176);
#985=AXIS2_PLACEMENT_3D('',#1465,#1177,#1178);
#986=AXIS2_PLACEMENT_3D('',#1468,#1180,#1181);
#987=AXIS2_PLACEMENT_3D('',#1469,#1182,#1183);
#988=AXIS2_PLACEMENT_3D('',#1471,#1184,#1185);
#989=AXIS2_PLACEMENT_3D('',#1474,#1187,#1188);
#990=AXIS2_PLACEMENT_3D('',#1475,#1189,#1190);
#991=AXIS2_PLACEMENT_3D('',#1478,#1191,#1192);
#992=AXIS2_PLACEMENT_3D('',#1479,#1193,#1194);
#993=AXIS2_PLACEMENT_3D('',#1482,#1196,#1197);
#994=AXIS2_PLACEMENT_3D('',#1483,#1198,#1199);
#995=AXIS2_PLACEMENT_3D('',#1485,#1200,#1201);
#996=AXIS2_PLACEMENT_3D('',#1488,#1203,#1204);
#997=AXIS2_PLACEMENT_3D('',#1489,#1205,#1206);
#998=AXIS2_PLACEMENT_3D('',#1492,#1207,#1208);
#999=AXIS2_PLACEMENT_3D('',#1493,#1209,#1210);
#1000=AXIS2_PLACEMENT_3D('',#1496,#1212,#1213);
#1001=AXIS2_PLACEMENT_3D('',#1497,#1214,#1215);
#1002=AXIS2_PLACEMENT_3D('',#1499,#1216,#1217);
#1003=AXIS2_PLACEMENT_3D('',#1502,#1219,#1220);
#1004=AXIS2_PLACEMENT_3D('',#1503,#1221,#1222);
#1005=AXIS2_PLACEMENT_3D('',#1506,#1223,#1224);
#1006=AXIS2_PLACEMENT_3D('',#1507,#1225,#1226);
#1007=AXIS2_PLACEMENT_3D('',#1510,#1228,#1229);
#1008=AXIS2_PLACEMENT_3D('',#1511,#1230,#1231);
#1009=AXIS2_PLACEMENT_3D('',#1513,#1232,#1233);
#1010=AXIS2_PLACEMENT_3D('',#1516,#1235,#1236);
#1011=AXIS2_PLACEMENT_3D('',#1517,#1237,#1238);
#1012=AXIS2_PLACEMENT_3D('',#1520,#1239,#1240);
#1013=AXIS2_PLACEMENT_3D('',#1521,#1241,#1242);
#1014=AXIS2_PLACEMENT_3D('',#1524,#1244,#1245);
#1015=AXIS2_PLACEMENT_3D('',#1525,#1246,#1247);
#1016=AXIS2_PLACEMENT_3D('',#1527,#1249,#1250);
#1017=AXIS2_PLACEMENT_3D('',#1529,#1252,#1253);
#1018=AXIS2_PLACEMENT_3D('',#1531,#1255,#1256);
#1019=AXIS2_PLACEMENT_3D('',#1533,#1258,#1259);
#1020=AXIS2_PLACEMENT_3D('',#1535,#1261,#1262);
#1021=AXIS2_PLACEMENT_3D('',#1537,#1264,#1265);
#1022=AXIS2_PLACEMENT_3D('',#1539,#1267,#1268);
#1023=AXIS2_PLACEMENT_3D('',#1541,#1270,#1271);
#1024=AXIS2_PLACEMENT_3D('',#1543,#1272,#1273);
#1025=AXIS2_PLACEMENT_3D('',#1547,#1275,#1276);
#1026=AXIS2_PLACEMENT_3D('',#1548,#1277,#1278);
#1027=AXIS2_PLACEMENT_3D('',#1549,#1279,#1280);
#1028=AXIS2_PLACEMENT_3D('',#1551,#1281,#1282);
#1029=AXIS2_PLACEMENT_3D('',#1553,#1284,#1285);
#1030=AXIS2_PLACEMENT_3D('',#1556,#1286,#1287);
#1031=AXIS2_PLACEMENT_3D('',#1560,#1289,#1290);
#1032=AXIS2_PLACEMENT_3D('',#1562,#1292,#1293);
#1033=AXIS2_PLACEMENT_3D('',#1565,#1294,#1295);
#1034=AXIS2_PLACEMENT_3D('',#1569,#1297,#1298);
#1035=AXIS2_PLACEMENT_3D('',#1573,#1300,#1301);
#1036=AXIS2_PLACEMENT_3D('',#1576,#1303,#1304);
#1037=AXIS2_PLACEMENT_3D('',#1580,#1306,#1307);
#1038=AXIS2_PLACEMENT_3D('',#1582,#1309,#1310);
#1039=AXIS2_PLACEMENT_3D('',#1586,#1312,#1313);
#1040=AXIS2_PLACEMENT_3D('',#1590,#1315,#1316);
#1041=AXIS2_PLACEMENT_3D('',#1595,#1319,#1320);
#1042=AXIS2_PLACEMENT_3D('',#1598,#1322,#1323);
#1043=AXIS2_PLACEMENT_3D('',#1599,#1324,#1325);
#1044=AXIS2_PLACEMENT_3D('',#1604,#1328,#1329);
#1045=AXIS2_PLACEMENT_3D('',#1605,#1330,#1331);
#1046=AXIS2_PLACEMENT_3D('',#1608,#1334,#1335);
#1047=AXIS2_PLACEMENT_3D('',#1611,#1338,#1339);
#1048=AXIS2_PLACEMENT_3D('',#1612,#1340,#1341);
#1049=AXIS2_PLACEMENT_3D('',#1613,#1342,#1343);
#1050=AXIS2_PLACEMENT_3D('',#1616,#1346,#1347);
#1051=AXIS2_PLACEMENT_3D('',#1617,#1348,#1349);
#1052=AXIS2_PLACEMENT_3D('',#1618,#1350,#1351);
#1053=AXIS2_PLACEMENT_3D('',#1621,#1354,#1355);
#1054=AXIS2_PLACEMENT_3D('',#1622,#1356,#1357);
#1055=AXIS2_PLACEMENT_3D('',#1623,#1358,#1359);
#1056=AXIS2_PLACEMENT_3D('',#1624,#1360,#1361);
#1057=AXIS2_PLACEMENT_3D('',#1625,#1362,#1363);
#1058=AXIS2_PLACEMENT_3D('',#1626,#1364,#1365);
#1059=DIRECTION('axis',(0.,0.,1.));
#1060=DIRECTION('refdir',(1.,0.,0.));
#1061=DIRECTION('axis',(0.,0.,1.));
#1062=DIRECTION('refdir',(1.,0.,0.));
#1063=DIRECTION('center_axis',(0.,-1.,0.));
#1064=DIRECTION('ref_axis',(0.,0.,-1.));
#1065=DIRECTION('center_axis',(0.,1.,0.));
#1066=DIRECTION('ref_axis',(0.,0.,-1.));
#1067=DIRECTION('',(0.,-1.,0.));
#1068=DIRECTION('center_axis',(0.,1.,0.));
#1069=DIRECTION('ref_axis',(0.,0.,1.));
#1070=DIRECTION('center_axis',(0.,-1.,0.));
#1071=DIRECTION('ref_axis',(0.,0.,-1.));
#1072=DIRECTION('center_axis',(0.,1.,0.));
#1073=DIRECTION('ref_axis',(0.,0.,1.));
#1074=DIRECTION('',(0.,1.,0.));
#1075=DIRECTION('center_axis',(0.,1.,0.));
#1076=DIRECTION('ref_axis',(0.,0.,-1.));
#1077=DIRECTION('center_axis',(0.,1.,0.));
#1078=DIRECTION('ref_axis',(0.,0.,1.));
#1079=DIRECTION('center_axis',(0.,1.,0.));
#1080=DIRECTION('ref_axis',(0.,0.,1.));
#1081=DIRECTION('axis',(0.,0.,1.));
#1082=DIRECTION('refdir',(1.,0.,0.));
#1083=DIRECTION('center_axis',(0.,-1.,0.));
#1084=DIRECTION('ref_axis',(0.,0.,-1.));
#1085=DIRECTION('center_axis',(0.,-1.,0.));
#1086=DIRECTION('ref_axis',(0.,0.,1.));
#1087=DIRECTION('center_axis',(0.,-1.,0.));
#1088=DIRECTION('ref_axis',(0.,0.,1.));
#1089=DIRECTION('',(-8.65956056235473E-17,-0.707106781186564,0.707106781186531));
#1090=DIRECTION('center_axis',(0.,1.,0.));
#1091=DIRECTION('ref_axis',(0.,0.,1.));
#1092=DIRECTION('center_axis',(0.,1.,0.));
#1093=DIRECTION('ref_axis',(0.,0.,1.));
#1094=DIRECTION('center_axis',(0.,1.,0.));
#1095=DIRECTION('ref_axis',(0.,0.,-1.));
#1096=DIRECTION('',(-8.65956056235458E-17,0.707106781186576,-0.707106781186519));
#1097=DIRECTION('center_axis',(0.,-1.,0.));
#1098=DIRECTION('ref_axis',(0.,0.,-1.));
#1099=DIRECTION('center_axis',(0.,1.,0.));
#1100=DIRECTION('ref_axis',(0.,0.,1.));
#1101=DIRECTION('',(0.,1.,0.));
#1102=DIRECTION('center_axis',(0.,1.,0.));
#1103=DIRECTION('ref_axis',(0.,0.,1.));
#1104=DIRECTION('center_axis',(0.,1.,0.));
#1105=DIRECTION('ref_axis',(0.,0.,1.));
#1106=DIRECTION('center_axis',(0.,1.,0.));
#1107=DIRECTION('ref_axis',(0.,0.,1.));
#1108=DIRECTION('',(0.,1.,0.));
#1109=DIRECTION('center_axis',(0.,-1.,0.));
#1110=DIRECTION('ref_axis',(0.,0.,-1.));
#1111=DIRECTION('center_axis',(0.,-1.,0.));
#1112=DIRECTION('ref_axis',(0.,0.,1.));
#1113=DIRECTION('center_axis',(0.,-1.,0.));
#1114=DIRECTION('ref_axis',(0.,0.,1.));
#1115=DIRECTION('',(-8.65956056235511E-17,-0.707106781186533,0.707106781186562));
#1116=DIRECTION('center_axis',(0.,1.,0.));
#1117=DIRECTION('ref_axis',(0.,0.,1.));
#1118=DIRECTION('center_axis',(0.,1.,0.));
#1119=DIRECTION('ref_axis',(0.,0.,1.));
#1120=DIRECTION('center_axis',(0.,1.,0.));
#1121=DIRECTION('ref_axis',(0.,0.,-1.));
#1122=DIRECTION('',(-8.65956056235496E-17,0.707106781186545,-0.70710678118655));
#1123=DIRECTION('center_axis',(0.,-1.,0.));
#1124=DIRECTION('ref_axis',(0.,0.,-1.));
#1125=DIRECTION('center_axis',(0.,-1.,0.));
#1126=DIRECTION('ref_axis',(0.,0.,-1.));
#1127=DIRECTION('center_axis',(0.,-1.,0.));
#1128=DIRECTION('ref_axis',(0.,0.,1.));
#1129=DIRECTION('center_axis',(0.,-1.,0.));
#1130=DIRECTION('ref_axis',(0.,0.,1.));
#1131=DIRECTION('',(-8.65956056235478E-17,-0.70710678118656,0.707106781186535));
#1132=DIRECTION('center_axis',(0.,1.,0.));
#1133=DIRECTION('ref_axis',(0.,0.,1.));
#1134=DIRECTION('center_axis',(0.,1.,0.));
#1135=DIRECTION('ref_axis',(0.,0.,1.));
#1136=DIRECTION('center_axis',(0.,1.,0.));
#1137=DIRECTION('ref_axis',(0.,0.,-1.));
#1138=DIRECTION('',(-8.65956056235494E-17,0.707106781186548,-0.707106781186548));
#1139=DIRECTION('center_axis',(0.,-1.,0.));
#1140=DIRECTION('ref_axis',(0.,0.,-1.));
#1141=DIRECTION('center_axis',(0.,-1.,0.));
#1142=DIRECTION('ref_axis',(0.,0.,-1.));
#1143=DIRECTION('center_axis',(0.,-1.,0.));
#1144=DIRECTION('ref_axis',(0.,0.,1.));
#1145=DIRECTION('center_axis',(0.,-1.,0.));
#1146=DIRECTION('ref_axis',(0.,0.,1.));
#1147=DIRECTION('',(-8.65956056235498E-17,-0.707106781186544,0.707106781186551));
#1148=DIRECTION('center_axis',(0.,1.,0.));
#1149=DIRECTION('ref_axis',(0.,0.,1.));
#1150=DIRECTION('center_axis',(0.,1.,0.));
#1151=DIRECTION('ref_axis',(0.,0.,1.));
#1152=DIRECTION('center_axis',(0.,1.,0.));
#1153=DIRECTION('ref_axis',(0.,0.,-1.));
#1154=DIRECTION('',(-8.65956056235483E-17,0.707106781186556,-0.707106781186539));
#1155=DIRECTION('center_axis',(0.,-1.,0.));
#1156=DIRECTION('ref_axis',(0.,0.,-1.));
#1157=DIRECTION('center_axis',(0.,-1.,0.));
#1158=DIRECTION('ref_axis',(0.,0.,-1.));
#1159=DIRECTION('center_axis',(0.,-1.,0.));
#1160=DIRECTION('ref_axis',(0.,0.,1.));
#1161=DIRECTION('center_axis',(0.,-1.,0.));
#1162=DIRECTION('ref_axis',(0.,0.,1.));
#1163=DIRECTION('',(-8.65956056235478E-17,-0.70710678118656,0.707106781186535));
#1164=DIRECTION('center_axis',(0.,1.,0.));
#1165=DIRECTION('ref_axis',(0.,0.,1.));
#1166=DIRECTION('center_axis',(0.,1.,0.));
#1167=DIRECTION('ref_axis',(0.,0.,1.));
#1168=DIRECTION('center_axis',(0.,1.,0.));
#1169=DIRECTION('ref_axis',(0.,0.,-1.));
#1170=DIRECTION('',(-8.65956056235494E-17,0.707106781186548,-0.707106781186548));
#1171=DIRECTION('center_axis',(0.,-1.,0.));
#1172=DIRECTION('ref_axis',(0.,0.,-1.));
#1173=DIRECTION('center_axis',(0.,-1.,0.));
#1174=DIRECTION('ref_axis',(0.,0.,-1.));
#1175=DIRECTION('center_axis',(0.,-1.,0.));
#1176=DIRECTION('ref_axis',(0.,0.,1.));
#1177=DIRECTION('center_axis',(0.,-1.,0.));
#1178=DIRECTION('ref_axis',(0.,0.,1.));
#1179=DIRECTION('',(-8.65956056235517E-17,-0.707106781186528,0.707106781186567));
#1180=DIRECTION('center_axis',(0.,1.,0.));
#1181=DIRECTION('ref_axis',(0.,0.,1.));
#1182=DIRECTION('center_axis',(0.,1.,0.));
#1183=DIRECTION('ref_axis',(0.,0.,1.));
#1184=DIRECTION('center_axis',(0.,1.,0.));
#1185=DIRECTION('ref_axis',(0.,0.,-1.));
#1186=DIRECTION('',(-8.65956056235502E-17,0.707106781186541,-0.707106781186554));
#1187=DIRECTION('center_axis',(0.,-1.,0.));
#1188=DIRECTION('ref_axis',(0.,0.,-1.));
#1189=DIRECTION('center_axis',(0.,-1.,0.));
#1190=DIRECTION('ref_axis',(0.,0.,-1.));
#1191=DIRECTION('center_axis',(0.,-1.,0.));
#1192=DIRECTION('ref_axis',(0.,0.,1.));
#1193=DIRECTION('center_axis',(0.,-1.,0.));
#1194=DIRECTION('ref_axis',(0.,0.,1.));
#1195=DIRECTION('',(-8.65956056235478E-17,-0.70710678118656,0.707106781186535));
#1196=DIRECTION('center_axis',(0.,1.,0.));
#1197=DIRECTION('ref_axis',(0.,0.,1.));
#1198=DIRECTION('center_axis',(0.,1.,0.));
#1199=DIRECTION('ref_axis',(0.,0.,1.));
#1200=DIRECTION('center_axis',(0.,1.,0.));
#1201=DIRECTION('ref_axis',(0.,0.,-1.));
#1202=DIRECTION('',(-8.65956056235494E-17,0.707106781186548,-0.707106781186548));
#1203=DIRECTION('center_axis',(0.,-1.,0.));
#1204=DIRECTION('ref_axis',(0.,0.,-1.));
#1205=DIRECTION('center_axis',(0.,-1.,0.));
#1206=DIRECTION('ref_axis',(0.,0.,-1.));
#1207=DIRECTION('center_axis',(0.,-1.,0.));
#1208=DIRECTION('ref_axis',(0.,0.,1.));
#1209=DIRECTION('center_axis',(0.,-1.,0.));
#1210=DIRECTION('ref_axis',(0.,0.,1.));
#1211=DIRECTION('',(-8.65956056235507E-17,-0.707106781186536,0.707106781186559));
#1212=DIRECTION('center_axis',(0.,1.,0.));
#1213=DIRECTION('ref_axis',(0.,0.,1.));
#1214=DIRECTION('center_axis',(0.,1.,0.));
#1215=DIRECTION('ref_axis',(0.,0.,1.));
#1216=DIRECTION('center_axis',(0.,1.,0.));
#1217=DIRECTION('ref_axis',(0.,0.,-1.));
#1218=DIRECTION('',(-8.65956056235507E-17,0.707106781186536,-0.707106781186559));
#1219=DIRECTION('center_axis',(0.,-1.,0.));
#1220=DIRECTION('ref_axis',(0.,0.,-1.));
#1221=DIRECTION('center_axis',(0.,-1.,0.));
#1222=DIRECTION('ref_axis',(0.,0.,-1.));
#1223=DIRECTION('center_axis',(0.,-1.,0.));
#1224=DIRECTION('ref_axis',(0.,0.,1.));
#1225=DIRECTION('center_axis',(0.,-1.,0.));
#1226=DIRECTION('ref_axis',(0.,0.,1.));
#1227=DIRECTION('',(-8.65956056235478E-17,-0.70710678118656,0.707106781186535));
#1228=DIRECTION('center_axis',(0.,1.,0.));
#1229=DIRECTION('ref_axis',(0.,0.,1.));
#1230=DIRECTION('center_axis',(0.,1.,0.));
#1231=DIRECTION('ref_axis',(0.,0.,1.));
#1232=DIRECTION('center_axis',(0.,1.,0.));
#1233=DIRECTION('ref_axis',(0.,0.,-1.));
#1234=DIRECTION('',(-8.65956056235494E-17,0.707106781186548,-0.707106781186548));
#1235=DIRECTION('center_axis',(0.,-1.,0.));
#1236=DIRECTION('ref_axis',(0.,0.,-1.));
#1237=DIRECTION('center_axis',(0.,1.,0.));
#1238=DIRECTION('ref_axis',(0.,0.,1.));
#1239=DIRECTION('center_axis',(0.,1.,0.));
#1240=DIRECTION('ref_axis',(0.,0.,1.));
#1241=DIRECTION('center_axis',(0.,1.,0.));
#1242=DIRECTION('ref_axis',(0.,0.,1.));
#1243=DIRECTION('',(8.65956056235475E-17,-0.707106781186562,0.707106781186533));
#1244=DIRECTION('center_axis',(0.,-1.,0.));
#1245=DIRECTION('ref_axis',(0.,0.,1.));
#1246=DIRECTION('center_axis',(0.,1.,0.));
#1247=DIRECTION('ref_axis',(0.,0.,1.));
#1248=DIRECTION('',(0.,1.,0.));
#1249=DIRECTION('center_axis',(0.,1.,0.));
#1250=DIRECTION('ref_axis',(0.,0.,1.));
#1251=DIRECTION('',(0.,1.,0.));
#1252=DIRECTION('center_axis',(0.,1.,0.));
#1253=DIRECTION('ref_axis',(0.,0.,1.));
#1254=DIRECTION('',(0.,1.,0.));
#1255=DIRECTION('center_axis',(0.,1.,0.));
#1256=DIRECTION('ref_axis',(0.,0.,1.));
#1257=DIRECTION('',(0.,1.,0.));
#1258=DIRECTION('center_axis',(0.,1.,0.));
#1259=DIRECTION('ref_axis',(0.,0.,1.));
#1260=DIRECTION('',(0.,1.,0.));
#1261=DIRECTION('center_axis',(0.,1.,0.));
#1262=DIRECTION('ref_axis',(0.,0.,1.));
#1263=DIRECTION('',(0.,1.,0.));
#1264=DIRECTION('center_axis',(0.,1.,0.));
#1265=DIRECTION('ref_axis',(0.,0.,1.));
#1266=DIRECTION('',(0.,1.,0.));
#1267=DIRECTION('center_axis',(0.,1.,0.));
#1268=DIRECTION('ref_axis',(0.,0.,1.));
#1269=DIRECTION('',(0.,1.,0.));
#1270=DIRECTION('center_axis',(0.,1.,0.));
#1271=DIRECTION('ref_axis',(0.,0.,1.));
#1272=DIRECTION('center_axis',(0.,-1.,0.));
#1273=DIRECTION('ref_axis',(0.,0.,-1.));
#1274=DIRECTION('',(-4.18853873767708E-17,0.939692620785906,-0.342020143325676));
#1275=DIRECTION('center_axis',(0.,-1.,0.));
#1276=DIRECTION('ref_axis',(0.,0.,-1.));
#1277=DIRECTION('center_axis',(0.,-1.,0.));
#1278=DIRECTION('ref_axis',(0.,0.,-1.));
#1279=DIRECTION('center_axis',(0.,-1.,0.));
#1280=DIRECTION('ref_axis',(0.,0.,-1.));
#1281=DIRECTION('center_axis',(0.,-1.,0.));
#1282=DIRECTION('ref_axis',(0.,0.,-1.));
#1283=DIRECTION('',(1.15079156022785E-16,0.342020143325674,-0.939692620785907));
#1284=DIRECTION('center_axis',(0.,-1.,0.));
#1285=DIRECTION('ref_axis',(0.,0.,-1.));
#1286=DIRECTION('center_axis',(0.,1.,0.));
#1287=DIRECTION('ref_axis',(0.,0.,-1.));
#1288=DIRECTION('',(-0.270619244774561,0.707051392424245,-0.653332650973899));
#1289=DIRECTION('center_axis',(0.,-1.,0.));
#1290=DIRECTION('ref_axis',(0.,0.,-1.));
#1291=DIRECTION('',(0.270619244774561,0.707051392424236,0.653332650973909));
#1292=DIRECTION('center_axis',(0.,-1.,0.));
#1293=DIRECTION('ref_axis',(0.,0.,-1.));
#1294=DIRECTION('center_axis',(0.,-1.,0.));
#1295=DIRECTION('ref_axis',(0.,0.,-1.));
#1296=DIRECTION('',(0.,1.,0.));
#1297=DIRECTION('center_axis',(0.,1.,0.));
#1298=DIRECTION('ref_axis',(0.,0.,-1.));
#1299=DIRECTION('',(0.,1.,0.));
#1300=DIRECTION('center_axis',(0.,-1.,0.));
#1301=DIRECTION('ref_axis',(0.,0.,-1.));
#1302=DIRECTION('',(0.,-1.,0.));
#1303=DIRECTION('center_axis',(0.,-1.,0.));
#1304=DIRECTION('ref_axis',(0.,0.,-1.));
#1305=DIRECTION('',(0.,1.,0.));
#1306=DIRECTION('center_axis',(0.,1.,0.));
#1307=DIRECTION('ref_axis',(0.,0.,-1.));
#1308=DIRECTION('',(0.,1.,0.));
#1309=DIRECTION('center_axis',(0.,-1.,0.));
#1310=DIRECTION('ref_axis',(0.,0.,-1.));
#1311=DIRECTION('',(0.,1.,0.));
#1312=DIRECTION('center_axis',(0.,-1.,0.));
#1313=DIRECTION('ref_axis',(0.,0.,-1.));
#1314=DIRECTION('',(0.,-1.,0.));
#1315=DIRECTION('center_axis',(0.,-1.,0.));
#1316=DIRECTION('ref_axis',(0.,0.,-1.));
#1317=DIRECTION('',(0.,-1.,0.));
#1318=DIRECTION('',(0.,-1.,0.));
#1319=DIRECTION('center_axis',(0.,-1.,0.));
#1320=DIRECTION('ref_axis',(0.,0.,-1.));
#1321=DIRECTION('',(0.,-1.,0.));
#1322=DIRECTION('center_axis',(0.,-1.,0.));
#1323=DIRECTION('ref_axis',(0.,0.,-1.));
#1324=DIRECTION('center_axis',(0.,-1.,0.));
#1325=DIRECTION('ref_axis',(0.,0.,-1.));
#1326=DIRECTION('',(-0.382683432365084,0.,-0.923879532511289));
#1327=DIRECTION('',(0.382683432365091,0.,0.923879532511287));
#1328=DIRECTION('center_axis',(0.,1.,0.));
#1329=DIRECTION('ref_axis',(0.,0.,-1.));
#1330=DIRECTION('center_axis',(0.,-1.,0.));
#1331=DIRECTION('ref_axis',(-0.923879532511288,0.,0.382683432365087));
#1332=DIRECTION('',(-0.270619244774561,0.707051392424244,-0.6533326509739));
#1333=DIRECTION('',(0.270619244774558,0.707051392424239,0.653332650973906));
#1334=DIRECTION('center_axis',(0.,-1.,0.));
#1335=DIRECTION('ref_axis',(0.,0.,-1.));
#1336=DIRECTION('',(-0.382683432365084,0.,-0.923879532511289));
#1337=DIRECTION('',(0.38268343236509,0.,0.923879532511287));
#1338=DIRECTION('center_axis',(0.,-1.,0.));
#1339=DIRECTION('ref_axis',(0.,0.,-1.));
#1340=DIRECTION('center_axis',(0.,1.,0.));
#1341=DIRECTION('ref_axis',(0.,0.,1.));
#1342=DIRECTION('center_axis',(0.,-1.,0.));
#1343=DIRECTION('ref_axis',(0.,0.,-1.));
#1344=DIRECTION('',(0.382683432365091,0.,0.923879532511287));
#1345=DIRECTION('',(0.38268343236509,0.,0.923879532511287));
#1346=DIRECTION('center_axis',(-0.923879532511287,0.,0.38268343236509));
#1347=DIRECTION('ref_axis',(0.38268343236509,0.,0.923879532511287));
#1348=DIRECTION('center_axis',(-0.923879532511287,0.,0.382683432365091));
#1349=DIRECTION('ref_axis',(0.382683432365091,0.,0.923879532511287));
#1350=DIRECTION('center_axis',(0.,-1.,0.));
#1351=DIRECTION('ref_axis',(-6.98296672221876E-15,0.,1.));
#1352=DIRECTION('',(-0.382683432365084,0.,-0.923879532511289));
#1353=DIRECTION('',(-0.382683432365084,0.,-0.923879532511289));
#1354=DIRECTION('center_axis',(0.923879532511289,0.,-0.382683432365084));
#1355=DIRECTION('ref_axis',(-0.382683432365084,0.,-0.923879532511289));
#1356=DIRECTION('center_axis',(0.923879532511289,0.,-0.382683432365084));
#1357=DIRECTION('ref_axis',(-0.382683432365084,0.,-0.923879532511289));
#1358=DIRECTION('center_axis',(0.,1.,0.));
#1359=DIRECTION('ref_axis',(0.,0.,1.));
#1360=DIRECTION('',(0.,0.,1.));
#1361=DIRECTION('',(1.,0.,0.));
#1362=DIRECTION('',(0.,0.,1.));
#1363=DIRECTION('',(1.,0.,0.));
#1364=DIRECTION('',(-0.707106781186549,0.,-0.707106781186546));
#1365=DIRECTION('',(0.707106781186546,0.,-0.707106781186549));
#1366=CARTESIAN_POINT('',(0.,0.,0.));
#1367=CARTESIAN_POINT('',(0.,0.,0.));
#1368=CARTESIAN_POINT('Origin',(0.,190.6,0.));
#1369=CARTESIAN_POINT('',(3.64332422746338E-15,50.6,29.75));
#1370=CARTESIAN_POINT('Origin',(0.,50.6,0.));
#1371=CARTESIAN_POINT('',(-3.64332422746338E-15,0.,29.75));
#1372=CARTESIAN_POINT('',(-3.64332422746338E-15,190.6,29.75));
#1373=CARTESIAN_POINT('Origin',(0.,0.,0.));
#1374=CARTESIAN_POINT('Origin',(0.,190.6,0.));
#1375=CARTESIAN_POINT('',(-3.88825358729285E-15,0.,31.75));
#1376=CARTESIAN_POINT('Origin',(0.,0.,0.));
#1377=CARTESIAN_POINT('',(3.88825358729285E-15,50.6,31.75));
#1378=CARTESIAN_POINT('',(-3.88825358729285E-15,190.6,31.75));
#1379=CARTESIAN_POINT('Origin',(0.,50.6,0.));
#1380=CARTESIAN_POINT('Origin',(0.,50.6,0.));
#1381=CARTESIAN_POINT('Origin',(0.,0.,0.));
#1382=CARTESIAN_POINT('',(0.,0.,0.));
#1383=CARTESIAN_POINT('Origin',(0.,-17.5,0.));
#1384=CARTESIAN_POINT('',(3.90662328928006E-15,-17.2,-31.9));
#1385=CARTESIAN_POINT('',(-3.90662328928006E-15,-17.2,31.9));
#1386=CARTESIAN_POINT('Origin',(0.,-17.2,0.));
#1387=CARTESIAN_POINT('Origin',(0.,-17.2,0.));
#1388=CARTESIAN_POINT('',(-3.94336269325448E-15,-17.5,32.2));
#1389=CARTESIAN_POINT('',(-3.94336269325448E-15,-17.5,32.2));
#1390=CARTESIAN_POINT('Origin',(0.,-17.5,0.));
#1391=CARTESIAN_POINT('Origin',(0.,-1.50000000000002,0.));
#1392=CARTESIAN_POINT('',(-3.69231009942927E-15,-1.50000000000002,-30.15));
#1393=CARTESIAN_POINT('Origin',(0.,-1.50000000000002,0.));
#1394=CARTESIAN_POINT('',(-3.72904950340369E-15,-1.2,-30.45));
#1395=CARTESIAN_POINT('',(-3.69231009942927E-15,-1.50000000000002,-30.15));
#1396=CARTESIAN_POINT('Origin',(0.,-1.2,0.));
#1397=CARTESIAN_POINT('Origin',(0.,9.24800259374806,0.));
#1398=CARTESIAN_POINT('',(-3.90662328928006E-15,-9.5,-31.9));
#1399=CARTESIAN_POINT('',(-3.90662328928006E-15,9.24800259374806,-31.9));
#1400=CARTESIAN_POINT('Origin',(0.,-9.5,0.));
#1401=CARTESIAN_POINT('Origin',(0.,9.24800259374806,0.));
#1402=CARTESIAN_POINT('',(-3.69231009942927E-15,-9.5,-30.15));
#1403=CARTESIAN_POINT('Origin',(0.,-9.5,0.));
#1404=CARTESIAN_POINT('',(-3.69231009942927E-15,9.24800259374806,-30.15));
#1405=CARTESIAN_POINT('Origin',(32.5622672736403,-17.5,32.5622672736407));
#1406=CARTESIAN_POINT('',(32.5622672736403,-17.1,28.3622672736407));
#1407=CARTESIAN_POINT('',(32.5622672736403,-17.1,36.7622672736407));
#1408=CARTESIAN_POINT('Origin',(32.5622672736403,-17.1,32.5622672736407));
#1409=CARTESIAN_POINT('Origin',(32.5622672736403,-17.1,32.5622672736407));
#1410=CARTESIAN_POINT('',(32.5622672736403,-17.5,37.1622672736407));
#1411=CARTESIAN_POINT('',(32.5622672736403,-17.5,37.1622672736407));
#1412=CARTESIAN_POINT('Origin',(32.5622672736403,-17.5,32.5622672736407));
#1413=CARTESIAN_POINT('Origin',(32.5622672736403,-0.399999999999977,32.5622672736407));
#1414=CARTESIAN_POINT('',(32.5622672736403,-0.399999999999977,28.3622672736407));
#1415=CARTESIAN_POINT('Origin',(32.5622672736403,-0.399999999999977,32.5622672736407));
#1416=CARTESIAN_POINT('',(32.5622672736403,2.77555756156289E-16,27.9622672736407));
#1417=CARTESIAN_POINT('',(32.5622672736403,-0.399999999999977,28.3622672736407));
#1418=CARTESIAN_POINT('Origin',(32.5622672736403,0.,32.5622672736407));
#1419=CARTESIAN_POINT('Origin',(-3.21565617558174E-13,-17.5,46.05));
#1420=CARTESIAN_POINT('',(-3.21051265902532E-13,-17.1,41.85));
#1421=CARTESIAN_POINT('',(-3.22079969213816E-13,-17.1,50.25));
#1422=CARTESIAN_POINT('Origin',(-3.21565617558174E-13,-17.1,46.05));
#1423=CARTESIAN_POINT('Origin',(-3.21565617558174E-13,-17.1,46.05));
#1424=CARTESIAN_POINT('',(-3.22128955085782E-13,-17.5,50.65));
#1425=CARTESIAN_POINT('',(-3.22128955085782E-13,-17.5,50.65));
#1426=CARTESIAN_POINT('Origin',(-3.21565617558174E-13,-17.5,46.05));
#1427=CARTESIAN_POINT('Origin',(-3.21565617558174E-13,-0.399999999999977,
46.05));
#1428=CARTESIAN_POINT('',(-3.22079969213816E-13,-0.399999999999978,41.85));
#1429=CARTESIAN_POINT('Origin',(-3.21565617558174E-13,-0.399999999999977,
46.05));
#1430=CARTESIAN_POINT('',(-3.22128955085782E-13,3.12250225675825E-15,41.45));
#1431=CARTESIAN_POINT('',(-3.22079969213816E-13,-0.399999999999977,41.85));
#1432=CARTESIAN_POINT('Origin',(-3.21565617558174E-13,0.,46.05));
#1433=CARTESIAN_POINT('Origin',(-32.5622672736408,-17.5,32.5622672736402));
#1434=CARTESIAN_POINT('',(-32.5622672736408,-17.1,28.3622672736402));
#1435=CARTESIAN_POINT('',(-32.5622672736408,-17.1,36.7622672736402));
#1436=CARTESIAN_POINT('Origin',(-32.5622672736408,-17.1,32.5622672736402));
#1437=CARTESIAN_POINT('Origin',(-32.5622672736408,-17.1,32.5622672736402));
#1438=CARTESIAN_POINT('',(-32.5622672736408,-17.5,37.1622672736402));
#1439=CARTESIAN_POINT('',(-32.5622672736408,-17.5,37.1622672736402));
#1440=CARTESIAN_POINT('Origin',(-32.5622672736408,-17.5,32.5622672736402));
#1441=CARTESIAN_POINT('Origin',(-32.5622672736408,-0.400000000000018,32.5622672736402));
#1442=CARTESIAN_POINT('',(-32.5622672736408,-0.400000000000019,28.3622672736402));
#1443=CARTESIAN_POINT('Origin',(-32.5622672736408,-0.400000000000018,32.5622672736402));
#1444=CARTESIAN_POINT('',(-32.5622672736408,9.0205620750794E-16,27.9622672736402));
#1445=CARTESIAN_POINT('',(-32.5622672736408,-0.400000000000018,28.3622672736402));
#1446=CARTESIAN_POINT('Origin',(-32.5622672736408,0.,32.5622672736402));
#1447=CARTESIAN_POINT('Origin',(-46.05,-17.5,-4.82348426337261E-13));
#1448=CARTESIAN_POINT('',(-46.05,-17.1,-4.20000000000048));
#1449=CARTESIAN_POINT('',(-46.05,-17.1,4.19999999999952));
#1450=CARTESIAN_POINT('Origin',(-46.05,-17.1,-4.82348426337261E-13));
#1451=CARTESIAN_POINT('Origin',(-46.05,-17.1,-4.82348426337261E-13));
#1452=CARTESIAN_POINT('',(-46.05,-17.5,4.59999999999955));
#1453=CARTESIAN_POINT('',(-46.05,-17.5,4.59999999999955));
#1454=CARTESIAN_POINT('Origin',(-46.05,-17.5,-4.82348426337261E-13));
#1455=CARTESIAN_POINT('Origin',(-46.05,-0.399999999999977,-4.82348426337261E-13));
#1456=CARTESIAN_POINT('',(-46.05,-0.399999999999977,-4.20000000000048));
#1457=CARTESIAN_POINT('Origin',(-46.05,-0.399999999999977,-4.82348426337261E-13));
#1458=CARTESIAN_POINT('',(-46.05,3.12250225675825E-15,-4.60000000000046));
#1459=CARTESIAN_POINT('',(-46.05,-0.399999999999977,-4.20000000000048));
#1460=CARTESIAN_POINT('Origin',(-46.05,0.,-4.82348426337261E-13));
#1461=CARTESIAN_POINT('Origin',(-32.5622672736401,-17.5,-32.5622672736409));
#1462=CARTESIAN_POINT('',(-32.5622672736401,-17.1,-36.7622672736409));
#1463=CARTESIAN_POINT('',(-32.5622672736401,-17.1,-28.3622672736409));
#1464=CARTESIAN_POINT('Origin',(-32.5622672736401,-17.1,-32.5622672736409));
#1465=CARTESIAN_POINT('Origin',(-32.5622672736401,-17.1,-32.5622672736409));
#1466=CARTESIAN_POINT('',(-32.5622672736401,-17.5,-27.9622672736409));
#1467=CARTESIAN_POINT('',(-32.5622672736401,-17.5,-27.9622672736409));
#1468=CARTESIAN_POINT('Origin',(-32.5622672736401,-17.5,-32.5622672736409));
#1469=CARTESIAN_POINT('Origin',(-32.5622672736401,-0.399999999999977,-32.5622672736409));
#1470=CARTESIAN_POINT('',(-32.5622672736401,-0.399999999999977,-36.7622672736409));
#1471=CARTESIAN_POINT('Origin',(-32.5622672736401,-0.399999999999977,-32.5622672736409));
#1472=CARTESIAN_POINT('',(-32.5622672736401,-1.38777878078145E-16,-37.1622672736409));
#1473=CARTESIAN_POINT('',(-32.5622672736401,-0.399999999999977,-36.7622672736409));
#1474=CARTESIAN_POINT('Origin',(-32.5622672736401,0.,-32.5622672736409));
#1475=CARTESIAN_POINT('Origin',(0.,-17.5,-46.05));
#1476=CARTESIAN_POINT('',(5.14351655641889E-16,-17.1,-50.25));
#1477=CARTESIAN_POINT('',(-5.14351655641889E-16,-17.1,-41.85));
#1478=CARTESIAN_POINT('Origin',(0.,-17.1,-46.05));
#1479=CARTESIAN_POINT('Origin',(0.,-17.1,-46.05));
#1480=CARTESIAN_POINT('',(-5.63337527607787E-16,-17.5,-41.45));
#1481=CARTESIAN_POINT('',(-5.63337527607787E-16,-17.5,-41.45));
#1482=CARTESIAN_POINT('Origin',(0.,-17.5,-46.05));
#1483=CARTESIAN_POINT('Origin',(0.,-0.399999999999977,-46.05));
#1484=CARTESIAN_POINT('',(-5.14351655641888E-16,-0.399999999999978,-50.25));
#1485=CARTESIAN_POINT('Origin',(0.,-0.399999999999977,-46.05));
#1486=CARTESIAN_POINT('',(-5.6333752760778E-16,3.12250225675825E-15,-50.65));
#1487=CARTESIAN_POINT('',(-5.14351655641889E-16,-0.399999999999977,-50.25));
#1488=CARTESIAN_POINT('Origin',(0.,0.,-46.05));
#1489=CARTESIAN_POINT('Origin',(32.5622672736406,-17.5,-32.5622672736405));
#1490=CARTESIAN_POINT('',(32.5622672736406,-17.1,-36.7622672736405));
#1491=CARTESIAN_POINT('',(32.5622672736406,-17.1,-28.3622672736404));
#1492=CARTESIAN_POINT('Origin',(32.5622672736406,-17.1,-32.5622672736405));
#1493=CARTESIAN_POINT('Origin',(32.5622672736406,-17.1,-32.5622672736405));
#1494=CARTESIAN_POINT('',(32.5622672736406,-17.5,-27.9622672736404));
#1495=CARTESIAN_POINT('',(32.5622672736406,-17.5,-27.9622672736404));
#1496=CARTESIAN_POINT('Origin',(32.5622672736406,-17.5,-32.5622672736405));
#1497=CARTESIAN_POINT('Origin',(32.5622672736406,-0.399999999999991,-32.5622672736405));
#1498=CARTESIAN_POINT('',(32.5622672736406,-0.399999999999991,-36.7622672736405));
#1499=CARTESIAN_POINT('Origin',(32.5622672736406,-0.399999999999991,-32.5622672736405));
#1500=CARTESIAN_POINT('',(32.5622672736406,1.45716771982052E-15,-37.1622672736405));
#1501=CARTESIAN_POINT('',(32.5622672736406,-0.399999999999991,-36.7622672736405));
#1502=CARTESIAN_POINT('Origin',(32.5622672736406,0.,-32.5622672736405));
#1503=CARTESIAN_POINT('Origin',(46.05,-17.5,1.60782808779087E-13));
#1504=CARTESIAN_POINT('',(46.05,-17.1,-4.19999999999984));
#1505=CARTESIAN_POINT('',(46.05,-17.1,4.20000000000016));
#1506=CARTESIAN_POINT('Origin',(46.05,-17.1,1.60782808779087E-13));
#1507=CARTESIAN_POINT('Origin',(46.05,-17.1,1.60782808779087E-13));
#1508=CARTESIAN_POINT('',(46.05,-17.5,4.6000000000002));
#1509=CARTESIAN_POINT('',(46.05,-17.5,4.6000000000002));
#1510=CARTESIAN_POINT('Origin',(46.05,-17.5,1.60782808779087E-13));
#1511=CARTESIAN_POINT('Origin',(46.05,-0.399999999999977,1.60782808779087E-13));
#1512=CARTESIAN_POINT('',(46.05,-0.399999999999977,-4.19999999999984));
#1513=CARTESIAN_POINT('Origin',(46.05,-0.399999999999977,1.60782808779087E-13));
#1514=CARTESIAN_POINT('',(46.05,3.12250225675825E-15,-4.59999999999982));
#1515=CARTESIAN_POINT('',(46.05,-0.399999999999977,-4.19999999999984));
#1516=CARTESIAN_POINT('Origin',(46.05,0.,1.60782808779087E-13));
#1517=CARTESIAN_POINT('Origin',(0.,-17.5,0.));
#1518=CARTESIAN_POINT('',(6.94987058516123E-15,-17.,56.75));
#1519=CARTESIAN_POINT('',(-6.94987058516123E-15,-17.,-56.75));
#1520=CARTESIAN_POINT('Origin',(0.,-17.,0.));
#1521=CARTESIAN_POINT('Origin',(0.,-17.,0.));
#1522=CARTESIAN_POINT('',(-6.88863824520386E-15,-17.5,-56.25));
#1523=CARTESIAN_POINT('',(-6.88863824520386E-15,-17.5,-56.25));
#1524=CARTESIAN_POINT('Origin',(0.,-17.5,0.));
#1525=CARTESIAN_POINT('Origin',(-32.5622672736401,-17.5,-32.5622672736409));
#1526=CARTESIAN_POINT('',(-32.5622672736401,-17.5,-36.7622672736409));
#1527=CARTESIAN_POINT('Origin',(-46.05,-17.5,-4.82348426337261E-13));
#1528=CARTESIAN_POINT('',(-46.05,-17.5,-4.20000000000048));
#1529=CARTESIAN_POINT('Origin',(-32.5622672736408,-17.5,32.5622672736402));
#1530=CARTESIAN_POINT('',(-32.5622672736408,-17.5,28.3622672736402));
#1531=CARTESIAN_POINT('Origin',(-3.21565617558174E-13,-17.5,46.05));
#1532=CARTESIAN_POINT('',(-3.22079969213816E-13,-17.5,41.85));
#1533=CARTESIAN_POINT('Origin',(32.5622672736403,-17.5,32.5622672736407));
#1534=CARTESIAN_POINT('',(32.5622672736403,-17.5,28.3622672736407));
#1535=CARTESIAN_POINT('Origin',(46.05,-17.5,1.60782808779087E-13));
#1536=CARTESIAN_POINT('',(46.05,-17.5,-4.19999999999984));
#1537=CARTESIAN_POINT('Origin',(32.5622672736406,-17.5,-32.5622672736405));
#1538=CARTESIAN_POINT('',(32.5622672736406,-17.5,-36.7622672736405));
#1539=CARTESIAN_POINT('Origin',(0.,-17.5,-46.05));
#1540=CARTESIAN_POINT('',(-5.14351655641889E-16,-17.5,-50.25));
#1541=CARTESIAN_POINT('Origin',(0.,-1.2,0.));
#1542=CARTESIAN_POINT('',(-4.70039254576604E-15,-1.2,-38.3816178594403));
#1543=CARTESIAN_POINT('Origin',(0.,-1.2,0.));
#1544=CARTESIAN_POINT('',(-4.72713664470878E-15,-0.599999999999999,-38.6));
#1545=CARTESIAN_POINT('',(-4.70039254576604E-15,-1.2,-38.3816178594403));
#1546=CARTESIAN_POINT('',(4.89093315409474E-15,-0.6,38.6));
#1547=CARTESIAN_POINT('Origin',(0.,-0.6,0.));
#1548=CARTESIAN_POINT('Origin',(0.,-0.6,0.));
#1549=CARTESIAN_POINT('Origin',(0.,-0.6,0.));
#1550=CARTESIAN_POINT('',(-5.0547296634807E-15,-1.57362037666211,41.275));
#1551=CARTESIAN_POINT('Origin',(0.,-1.57362037666211,0.));
#1552=CARTESIAN_POINT('',(-4.72713664470878E-15,-0.6,38.6));
#1553=CARTESIAN_POINT('Origin',(0.,-0.499999999999973,0.));
#1554=CARTESIAN_POINT('',(22.4464207037241,0.,51.5773273599111));
#1555=CARTESIAN_POINT('',(-20.5986616387018,0.,-52.3426942246411));
#1556=CARTESIAN_POINT('Origin',(0.,0.,0.));
#1557=CARTESIAN_POINT('',(22.637792397263,-0.499999999999973,52.039339497907));
#1558=CARTESIAN_POINT('',(22.637792397263,-0.499999999999973,52.039339497907));
#1559=CARTESIAN_POINT('',(-20.7900333322408,-0.499999999999977,-52.804706362637));
#1560=CARTESIAN_POINT('Origin',(0.,-0.499999999999973,0.));
#1561=CARTESIAN_POINT('',(-20.7900333322408,-0.499999999999977,-52.804706362637));
#1562=CARTESIAN_POINT('Origin',(0.,-24.5739145046165,0.));
#1563=CARTESIAN_POINT('',(-14.8667426803801,0.,-38.5046177370373));
#1564=CARTESIAN_POINT('',(16.7145017454024,0.,37.7392508723072));
#1565=CARTESIAN_POINT('Origin',(0.,0.,0.));
#1566=CARTESIAN_POINT('',(-14.8667426803801,-0.999999999999998,-38.5046177370373));
#1567=CARTESIAN_POINT('',(-14.8667426803801,-24.5739145046165,-38.5046177370373));
#1568=CARTESIAN_POINT('',(-16.7145017454027,-0.999999999999998,-37.7392508723071));
#1569=CARTESIAN_POINT('Origin',(0.,-0.999999999999998,0.));
#1570=CARTESIAN_POINT('',(-16.7145017454027,0.,-37.7392508723071));
#1571=CARTESIAN_POINT('',(-16.7145017454027,-24.5739145046165,-37.7392508723071));
#1572=CARTESIAN_POINT('',(-5.0547296634807E-15,0.,41.275));
#1573=CARTESIAN_POINT('Origin',(0.,0.,0.));
#1574=CARTESIAN_POINT('',(-5.0547296634807E-15,-24.5739145046165,41.275));
#1575=CARTESIAN_POINT('',(14.8667426803798,0.,38.5046177370374));
#1576=CARTESIAN_POINT('Origin',(0.,0.,0.));
#1577=CARTESIAN_POINT('',(14.8667426803798,-0.999999999999998,38.5046177370374));
#1578=CARTESIAN_POINT('',(14.8667426803798,-24.5739145046165,38.5046177370374));
#1579=CARTESIAN_POINT('',(16.7145017454024,-0.999999999999998,37.7392508723072));
#1580=CARTESIAN_POINT('Origin',(0.,-0.999999999999998,0.));
#1581=CARTESIAN_POINT('',(16.7145017454024,-24.5739145046165,37.7392508723072));
#1582=CARTESIAN_POINT('Origin',(0.,-24.5739145046165,0.));
#1583=CARTESIAN_POINT('',(-6.94987058516123E-15,-0.499999999999972,56.75));
#1584=CARTESIAN_POINT('',(-6.94987058516123E-15,-24.5739145046165,56.75));
#1585=CARTESIAN_POINT('',(-22.6377923972633,-0.499999999999973,-52.0393394979068));
#1586=CARTESIAN_POINT('Origin',(0.,-0.499999999999973,0.));
#1587=CARTESIAN_POINT('',(-22.6377923972633,-0.999999999999998,-52.0393394979068));
#1588=CARTESIAN_POINT('',(-22.6377923972633,-24.5739145046165,-52.0393394979068));
#1589=CARTESIAN_POINT('',(-20.7900333322408,-0.999999999999998,-52.804706362637));
#1590=CARTESIAN_POINT('Origin',(0.,-0.999999999999998,0.));
#1591=CARTESIAN_POINT('',(-20.7900333322408,-24.5739145046165,-52.804706362637));
#1592=CARTESIAN_POINT('',(22.637792397263,-0.999999999999998,52.039339497907));
#1593=CARTESIAN_POINT('',(22.637792397263,-24.5739145046165,52.039339497907));
#1594=CARTESIAN_POINT('',(20.7900333322404,-0.999999999999998,52.8047063626372));
#1595=CARTESIAN_POINT('Origin',(0.,-0.999999999999998,0.));
#1596=CARTESIAN_POINT('',(20.7900333322404,-0.499999999999971,52.8047063626372));
#1597=CARTESIAN_POINT('',(20.7900333322404,-24.5739145046165,52.8047063626372));
#1598=CARTESIAN_POINT('Origin',(0.,-0.499999999999973,0.));
#1599=CARTESIAN_POINT('Origin',(-56.75,0.,0.));
#1600=CARTESIAN_POINT('',(20.5986616387015,0.,52.3426942246412));
#1601=CARTESIAN_POINT('',(21.1911792617209,0.,53.7731583060798));
#1602=CARTESIAN_POINT('',(-22.4464207037244,0.,-51.5773273599109));
#1603=CARTESIAN_POINT('',(-23.0389383267439,0.,-53.0077914413495));
#1604=CARTESIAN_POINT('Origin',(0.,0.,0.));
#1605=CARTESIAN_POINT('Origin',(0.,-0.499999999999973,0.));
#1606=CARTESIAN_POINT('',(20.7900333322404,-0.499999999999971,52.8047063626372));
#1607=CARTESIAN_POINT('',(-22.6377923972633,-0.499999999999973,-52.0393394979068));
#1608=CARTESIAN_POINT('Origin',(-56.75,0.,0.));
#1609=CARTESIAN_POINT('',(23.0389383267435,0.,53.0077914413496));
#1610=CARTESIAN_POINT('',(-21.1911792617213,0.,-53.7731583060797));
#1611=CARTESIAN_POINT('Origin',(-38.3816178594403,-1.2,0.));
#1612=CARTESIAN_POINT('Origin',(0.,-17.5,0.));
#1613=CARTESIAN_POINT('Origin',(-21.1911792617213,-0.999999999999997,-53.7731583060797));
#1614=CARTESIAN_POINT('',(-23.0389383267439,-0.999999999999997,-53.0077914413495));
#1615=CARTESIAN_POINT('',(-21.1911792617213,-0.999999999999997,-53.7731583060797));
#1616=CARTESIAN_POINT('Origin',(-21.1911792617213,-0.999999999999997,-53.7731583060797));
#1617=CARTESIAN_POINT('Origin',(-23.0389383267439,-0.999999999999997,-53.0077914413495));
#1618=CARTESIAN_POINT('Origin',(21.1911792617209,-0.999999999999997,53.7731583060798));
#1619=CARTESIAN_POINT('',(23.0389383267435,-0.999999999999997,53.0077914413496));
#1620=CARTESIAN_POINT('',(21.1911792617209,-0.999999999999997,53.7731583060798));
#1621=CARTESIAN_POINT('Origin',(21.1911792617209,-0.999999999999997,53.7731583060798));
#1622=CARTESIAN_POINT('Origin',(23.0389383267435,-0.999999999999997,53.0077914413496));
#1623=CARTESIAN_POINT('Origin',(-30.15,-9.5,0.));
#1624=CARTESIAN_POINT('',(0.,-140.,0.));
#1625=CARTESIAN_POINT('',(0.,-200.1,0.));
#1626=CARTESIAN_POINT('',(0.,-209.6,0.));
#1627=UNCERTAINTY_MEASURE_WITH_UNIT(LENGTH_MEASURE(0.01),#1635,
'DISTANCE_ACCURACY_VALUE',
'Maximum model space distance between geometric entities at asserted c
onnectivities');
#1628=UNCERTAINTY_MEASURE_WITH_UNIT(LENGTH_MEASURE(0.01),#1635,
'DISTANCE_ACCURACY_VALUE',
'Maximum model space distance between geometric entities at asserted c
onnectivities');
#1629=UNCERTAINTY_MEASURE_WITH_UNIT(LENGTH_MEASURE(0.01),#1635,
'DISTANCE_ACCURACY_VALUE',
'Maximum model space distance between geometric entities at asserted c
onnectivities');
#1630=UNCERTAINTY_MEASURE_WITH_UNIT(LENGTH_MEASURE(0.01),#1635,
'DISTANCE_ACCURACY_VALUE',
'Maximum model space distance between geometric entities at asserted c
onnectivities');
#1631=(
GEOMETRIC_REPRESENTATION_CONTEXT(3)
GLOBAL_UNCERTAINTY_ASSIGNED_CONTEXT((#1627))
GLOBAL_UNIT_ASSIGNED_CONTEXT((#1635,#1637,#1638))
REPRESENTATION_CONTEXT('','3D')
);
#1632=(
GEOMETRIC_REPRESENTATION_CONTEXT(3)
GLOBAL_UNCERTAINTY_ASSIGNED_CONTEXT((#1628))
GLOBAL_UNIT_ASSIGNED_CONTEXT((#1635,#1637,#1638))
REPRESENTATION_CONTEXT('','3D')
);
#1633=(
GEOMETRIC_REPRESENTATION_CONTEXT(3)
GLOBAL_UNCERTAINTY_ASSIGNED_CONTEXT((#1629))
GLOBAL_UNIT_ASSIGNED_CONTEXT((#1635,#1637,#1638))
REPRESENTATION_CONTEXT('','3D')
);
#1634=(
GEOMETRIC_REPRESENTATION_CONTEXT(3)
GLOBAL_UNCERTAINTY_ASSIGNED_CONTEXT((#1630))
GLOBAL_UNIT_ASSIGNED_CONTEXT((#1635,#1637,#1638))
REPRESENTATION_CONTEXT('','3D')
);
#1635=(
LENGTH_UNIT()
NAMED_UNIT(*)
SI_UNIT(.MILLI.,.METRE.)
);
#1636=(
LENGTH_UNIT()
NAMED_UNIT(*)
SI_UNIT($,.METRE.)
);
#1637=(
NAMED_UNIT(*)
PLANE_ANGLE_UNIT()
SI_UNIT($,.RADIAN.)
);
#1638=(
NAMED_UNIT(*)
SI_UNIT($,.STERADIAN.)
SOLID_ANGLE_UNIT()
);
#1639=SHAPE_DEFINITION_REPRESENTATION(#1642,#1648);
#1640=SHAPE_DEFINITION_REPRESENTATION(#1643,#1649);
#1641=SHAPE_DEFINITION_REPRESENTATION(#1644,#1650);
#1642=PRODUCT_DEFINITION_SHAPE('',$,#1652);
#1643=PRODUCT_DEFINITION_SHAPE('',$,#1653);
#1644=PRODUCT_DEFINITION_SHAPE('',$,#1654);
#1645=PRODUCT_DEFINITION_SHAPE($,$,#20);
#1646=PRODUCT_DEFINITION_SHAPE($,$,#21);
#1647=PRODUCT_DEFINITION_SHAPE($,$,#22);
#1648=SHAPE_REPRESENTATION('',(#933,#1056,#1057,#1058),#1631);
#1649=SHAPE_REPRESENTATION('',(#934),#1632);
#1650=SHAPE_REPRESENTATION('',(#943),#1633);
#1651=PRODUCT_DEFINITION_CONTEXT('part definition',#1662,'design');
#1652=PRODUCT_DEFINITION('CF63 short nipple','CF63 short nipple v3',#1655,
#1651);
#1653=PRODUCT_DEFINITION('Tube 63.5-All_Tube63','Tube 63.5-All_Tube63',
#1656,#1651);
#1654=PRODUCT_DEFINITION('CF63-64-Weld','CF63-64-Weld',#1657,#1651);
#1655=PRODUCT_DEFINITION_FORMATION('',$,#1664);
#1656=PRODUCT_DEFINITION_FORMATION('',$,#1665);
#1657=PRODUCT_DEFINITION_FORMATION('',$,#1666);
#1658=PRODUCT_RELATED_PRODUCT_CATEGORY('CF63 short nipple v3',
'CF63 short nipple v3',(#1664));
#1659=PRODUCT_RELATED_PRODUCT_CATEGORY('Tube 63.5-All_Tube63',
'Tube 63.5-All_Tube63',(#1665));
#1660=PRODUCT_RELATED_PRODUCT_CATEGORY('CF63-64-Weld','CF63-64-Weld',(#1666));
#1661=APPLICATION_PROTOCOL_DEFINITION('international standard',
'automotive_design',2009,#1662);
#1662=APPLICATION_CONTEXT(
'Core Data for Automotive Mechanical Design Process');
#1663=PRODUCT_CONTEXT('part definition',#1662,'mechanical');
#1664=PRODUCT('CF63 short nipple','CF63 short nipple v3',$,(#1663));
#1665=PRODUCT('Tube 63.5-All_Tube63','Tube 63.5-All_Tube63',$,(#1663));
#1666=PRODUCT('CF63-64-Weld','CF63-64-Weld',$,(#1663));
#1667=PRESENTATION_STYLE_ASSIGNMENT((#1669));
#1668=PRESENTATION_STYLE_ASSIGNMENT((#1670));
#1669=SURFACE_STYLE_USAGE(.BOTH.,#1671);
#1670=SURFACE_STYLE_USAGE(.BOTH.,#1672);
#1671=SURFACE_SIDE_STYLE('',(#1673));
#1672=SURFACE_SIDE_STYLE('',(#1674));
#1673=SURFACE_STYLE_FILL_AREA(#1675);
#1674=SURFACE_STYLE_FILL_AREA(#1676);
#1675=FILL_AREA_STYLE('Steel - Satin',(#1677));
#1676=FILL_AREA_STYLE('Opaque(165,158,150)',(#1678));
#1677=FILL_AREA_STYLE_COLOUR('Steel - Satin',#1679);
#1678=FILL_AREA_STYLE_COLOUR('Opaque(165,158,150)',#1680);
#1679=COLOUR_RGB('Steel - Satin',0.627450980392157,0.627450980392157,0.627450980392157);
#1680=COLOUR_RGB('Opaque(165,158,150)',0.647058823529412,0.619607843137255,
0.588235294117647);
ENDSEC;
END-ISO-10303-21;
