ISO-10303-21;
HEADER;
/* Generated by software containing ST-Developer
 * from STEP Tools, Inc. (www.steptools.com) 
 */

FILE_DESCRIPTION(
/* description */ (''),
/* implementation_level */ '2;1');

FILE_NAME(
/* name */ 'chamber bolts v3.step',
/* time_stamp */ '2024-06-14T13:17:54+02:00',
/* author */ (''),
/* organization */ (''),
/* preprocessor_version */ 'ST-DEVELOPER v20',
/* originating_system */ 'Autodesk Translation Framework v13.14.0.145',

/* authorisation */ '');

FILE_SCHEMA (('AUTOMOTIVE_DESIGN { 1 0 10303 214 3 1 1 }'));
ENDSEC;

DATA;
#10=MECHANICAL_DESIGN_GEOMETRIC_PRESENTATION_REPRESENTATION('',(#13),#370);
#11=SHAPE_REPRESENTATION_RELATIONSHIP('SRR','None',#377,#12);
#12=ADVANCED_BREP_SHAPE_REPRESENTATION('',(#14),#369);
#13=STYLED_ITEM('',(#386),#14);
#14=MANIFOLD_SOLID_BREP('Body1',#203);
#15=CONICAL_SURFACE('',#227,12.5,0.785398163397449);
#16=CONICAL_SURFACE('',#229,7.411,0.78539816339745);
#17=CONICAL_SURFACE('',#235,12.5,0.785398163397449);
#18=CYLINDRICAL_SURFACE('',#223,13.);
#19=CYLINDRICAL_SURFACE('',#225,13.);
#20=CYLINDRICAL_SURFACE('',#232,7.911);
#21=CYLINDRICAL_SURFACE('',#238,8.49999999999999);
#22=FACE_BOUND('',#51,.T.);
#23=FACE_BOUND('',#62,.T.);
#24=CIRCLE('',#220,13.);
#25=CIRCLE('',#221,13.);
#26=CIRCLE('',#222,8.49999999999999);
#27=CIRCLE('',#224,13.);
#28=CIRCLE('',#226,13.);
#29=CIRCLE('',#228,12.);
#30=CIRCLE('',#230,6.911);
#31=CIRCLE('',#231,7.911);
#32=CIRCLE('',#233,7.911);
#33=CIRCLE('',#236,12.);
#34=CIRCLE('',#239,8.5);
#35=FACE_OUTER_BOUND('',#48,.T.);
#36=FACE_OUTER_BOUND('',#49,.T.);
#37=FACE_OUTER_BOUND('',#50,.T.);
#38=FACE_OUTER_BOUND('',#52,.T.);
#39=FACE_OUTER_BOUND('',#53,.T.);
#40=FACE_OUTER_BOUND('',#54,.T.);
#41=FACE_OUTER_BOUND('',#55,.T.);
#42=FACE_OUTER_BOUND('',#56,.T.);
#43=FACE_OUTER_BOUND('',#57,.T.);
#44=FACE_OUTER_BOUND('',#58,.T.);
#45=FACE_OUTER_BOUND('',#59,.T.);
#46=FACE_OUTER_BOUND('',#60,.T.);
#47=FACE_OUTER_BOUND('',#61,.T.);
#48=EDGE_LOOP('',(#132,#133,#134,#135,#136,#137));
#49=EDGE_LOOP('',(#138,#139,#140,#141,#142,#143));
#50=EDGE_LOOP('',(#144,#145,#146,#147));
#51=EDGE_LOOP('',(#148));
#52=EDGE_LOOP('',(#149,#150,#151,#152));
#53=EDGE_LOOP('',(#153,#154,#155,#156));
#54=EDGE_LOOP('',(#157,#158,#159,#160));
#55=EDGE_LOOP('',(#161,#162,#163,#164));
#56=EDGE_LOOP('',(#165,#166,#167,#168));
#57=EDGE_LOOP('',(#169));
#58=EDGE_LOOP('',(#170,#171,#172,#173));
#59=EDGE_LOOP('',(#174,#175,#176,#177));
#60=EDGE_LOOP('',(#178,#179,#180,#181));
#61=EDGE_LOOP('',(#182));
#62=EDGE_LOOP('',(#183));
#63=LINE('',#310,#74);
#64=LINE('',#316,#75);
#65=LINE('',#318,#76);
#66=LINE('',#319,#77);
#67=LINE('',#327,#78);
#68=LINE('',#333,#79);
#69=LINE('',#335,#80);
#70=LINE('',#336,#81);
#71=LINE('',#352,#82);
#72=LINE('',#356,#83);
#73=LINE('',#365,#84);
#74=VECTOR('',#245,10.);
#75=VECTOR('',#246,10.);
#76=VECTOR('',#247,10.);
#77=VECTOR('',#248,10.);
#78=VECTOR('',#251,10.);
#79=VECTOR('',#252,10.);
#80=VECTOR('',#253,10.);
#81=VECTOR('',#254,10.);
#82=VECTOR('',#279,7.411);
#83=VECTOR('',#284,7.99999999999999);
#84=VECTOR('',#299,8.49999999999999);
#85=(
BOUNDED_CURVE()
B_SPLINE_CURVE(2,(#306,#307,#308),.UNSPECIFIED.,.F.,.F.)
B_SPLINE_CURVE_WITH_KNOTS((3,3),(0.,0.194965115451678),.UNSPECIFIED.)
CURVE()
GEOMETRIC_REPRESENTATION_ITEM()
RATIONAL_B_SPLINE_CURVE((1.,1.00224770078107,1.))
REPRESENTATION_ITEM('')
);
#86=(
BOUNDED_CURVE()
B_SPLINE_CURVE(2,(#312,#313,#314),.UNSPECIFIED.,.F.,.F.)
B_SPLINE_CURVE_WITH_KNOTS((3,3),(0.,0.194965115451678),.UNSPECIFIED.)
CURVE()
GEOMETRIC_REPRESENTATION_ITEM()
RATIONAL_B_SPLINE_CURVE((1.,1.00224770078107,1.))
REPRESENTATION_ITEM('')
);
#87=(
BOUNDED_CURVE()
B_SPLINE_CURVE(2,(#323,#324,#325),.UNSPECIFIED.,.F.,.F.)
B_SPLINE_CURVE_WITH_KNOTS((3,3),(0.,0.194965115451677),.UNSPECIFIED.)
CURVE()
GEOMETRIC_REPRESENTATION_ITEM()
RATIONAL_B_SPLINE_CURVE((1.,1.00224770078105,1.))
REPRESENTATION_ITEM('')
);
#88=(
BOUNDED_CURVE()
B_SPLINE_CURVE(2,(#329,#330,#331),.UNSPECIFIED.,.F.,.F.)
B_SPLINE_CURVE_WITH_KNOTS((3,3),(0.,0.194965115451677),.UNSPECIFIED.)
CURVE()
GEOMETRIC_REPRESENTATION_ITEM()
RATIONAL_B_SPLINE_CURVE((1.,1.00224770078105,1.))
REPRESENTATION_ITEM('')
);
#89=VERTEX_POINT('',#304);
#90=VERTEX_POINT('',#305);
#91=VERTEX_POINT('',#309);
#92=VERTEX_POINT('',#311);
#93=VERTEX_POINT('',#315);
#94=VERTEX_POINT('',#317);
#95=VERTEX_POINT('',#321);
#96=VERTEX_POINT('',#322);
#97=VERTEX_POINT('',#326);
#98=VERTEX_POINT('',#328);
#99=VERTEX_POINT('',#332);
#100=VERTEX_POINT('',#334);
#101=VERTEX_POINT('',#340);
#102=VERTEX_POINT('',#349);
#103=VERTEX_POINT('',#351);
#104=VERTEX_POINT('',#355);
#105=VERTEX_POINT('',#363);
#106=EDGE_CURVE('',#89,#90,#85,.T.);
#107=EDGE_CURVE('',#91,#89,#63,.T.);
#108=EDGE_CURVE('',#92,#91,#86,.T.);
#109=EDGE_CURVE('',#93,#92,#64,.T.);
#110=EDGE_CURVE('',#94,#93,#65,.T.);
#111=EDGE_CURVE('',#90,#94,#66,.T.);
#112=EDGE_CURVE('',#95,#96,#87,.T.);
#113=EDGE_CURVE('',#97,#95,#67,.T.);
#114=EDGE_CURVE('',#98,#97,#88,.T.);
#115=EDGE_CURVE('',#99,#98,#68,.T.);
#116=EDGE_CURVE('',#100,#99,#69,.T.);
#117=EDGE_CURVE('',#96,#100,#70,.T.);
#118=EDGE_CURVE('',#93,#100,#24,.T.);
#119=EDGE_CURVE('',#99,#94,#25,.T.);
#120=EDGE_CURVE('',#101,#101,#26,.T.);
#121=EDGE_CURVE('',#96,#92,#27,.T.);
#122=EDGE_CURVE('',#90,#98,#28,.T.);
#123=EDGE_CURVE('',#91,#95,#29,.T.);
#124=EDGE_CURVE('',#102,#102,#30,.T.);
#125=EDGE_CURVE('',#102,#103,#71,.T.);
#126=EDGE_CURVE('',#103,#103,#31,.T.);
#127=EDGE_CURVE('',#103,#104,#72,.T.);
#128=EDGE_CURVE('',#104,#104,#32,.F.);
#129=EDGE_CURVE('',#97,#89,#33,.T.);
#130=EDGE_CURVE('',#105,#105,#34,.T.);
#131=EDGE_CURVE('',#105,#101,#73,.T.);
#132=ORIENTED_EDGE('',*,*,#106,.F.);
#133=ORIENTED_EDGE('',*,*,#107,.F.);
#134=ORIENTED_EDGE('',*,*,#108,.F.);
#135=ORIENTED_EDGE('',*,*,#109,.F.);
#136=ORIENTED_EDGE('',*,*,#110,.F.);
#137=ORIENTED_EDGE('',*,*,#111,.F.);
#138=ORIENTED_EDGE('',*,*,#112,.F.);
#139=ORIENTED_EDGE('',*,*,#113,.F.);
#140=ORIENTED_EDGE('',*,*,#114,.F.);
#141=ORIENTED_EDGE('',*,*,#115,.F.);
#142=ORIENTED_EDGE('',*,*,#116,.F.);
#143=ORIENTED_EDGE('',*,*,#117,.F.);
#144=ORIENTED_EDGE('',*,*,#110,.T.);
#145=ORIENTED_EDGE('',*,*,#118,.T.);
#146=ORIENTED_EDGE('',*,*,#116,.T.);
#147=ORIENTED_EDGE('',*,*,#119,.T.);
#148=ORIENTED_EDGE('',*,*,#120,.F.);
#149=ORIENTED_EDGE('',*,*,#109,.T.);
#150=ORIENTED_EDGE('',*,*,#121,.F.);
#151=ORIENTED_EDGE('',*,*,#117,.T.);
#152=ORIENTED_EDGE('',*,*,#118,.F.);
#153=ORIENTED_EDGE('',*,*,#111,.T.);
#154=ORIENTED_EDGE('',*,*,#119,.F.);
#155=ORIENTED_EDGE('',*,*,#115,.T.);
#156=ORIENTED_EDGE('',*,*,#122,.F.);
#157=ORIENTED_EDGE('',*,*,#108,.T.);
#158=ORIENTED_EDGE('',*,*,#123,.T.);
#159=ORIENTED_EDGE('',*,*,#112,.T.);
#160=ORIENTED_EDGE('',*,*,#121,.T.);
#161=ORIENTED_EDGE('',*,*,#124,.T.);
#162=ORIENTED_EDGE('',*,*,#125,.T.);
#163=ORIENTED_EDGE('',*,*,#126,.T.);
#164=ORIENTED_EDGE('',*,*,#125,.F.);
#165=ORIENTED_EDGE('',*,*,#126,.F.);
#166=ORIENTED_EDGE('',*,*,#127,.T.);
#167=ORIENTED_EDGE('',*,*,#128,.T.);
#168=ORIENTED_EDGE('',*,*,#127,.F.);
#169=ORIENTED_EDGE('',*,*,#124,.F.);
#170=ORIENTED_EDGE('',*,*,#106,.T.);
#171=ORIENTED_EDGE('',*,*,#122,.T.);
#172=ORIENTED_EDGE('',*,*,#114,.T.);
#173=ORIENTED_EDGE('',*,*,#129,.T.);
#174=ORIENTED_EDGE('',*,*,#107,.T.);
#175=ORIENTED_EDGE('',*,*,#129,.F.);
#176=ORIENTED_EDGE('',*,*,#113,.T.);
#177=ORIENTED_EDGE('',*,*,#123,.F.);
#178=ORIENTED_EDGE('',*,*,#130,.F.);
#179=ORIENTED_EDGE('',*,*,#131,.T.);
#180=ORIENTED_EDGE('',*,*,#120,.T.);
#181=ORIENTED_EDGE('',*,*,#131,.F.);
#182=ORIENTED_EDGE('',*,*,#130,.T.);
#183=ORIENTED_EDGE('',*,*,#128,.F.);
#184=PLANE('',#217);
#185=PLANE('',#218);
#186=PLANE('',#219);
#187=PLANE('',#234);
#188=PLANE('',#237);
#189=PLANE('',#240);
#190=ADVANCED_FACE('',(#35),#184,.F.);
#191=ADVANCED_FACE('',(#36),#185,.F.);
#192=ADVANCED_FACE('',(#37,#22),#186,.T.);
#193=ADVANCED_FACE('',(#38),#18,.T.);
#194=ADVANCED_FACE('',(#39),#19,.T.);
#195=ADVANCED_FACE('',(#40),#15,.T.);
#196=ADVANCED_FACE('',(#41),#16,.T.);
#197=ADVANCED_FACE('',(#42),#20,.T.);
#198=ADVANCED_FACE('',(#43),#187,.T.);
#199=ADVANCED_FACE('',(#44),#17,.T.);
#200=ADVANCED_FACE('',(#45),#188,.T.);
#201=ADVANCED_FACE('',(#46),#21,.T.);
#202=ADVANCED_FACE('',(#47,#23),#189,.T.);
#203=CLOSED_SHELL('',(#190,#191,#192,#193,#194,#195,#196,#197,#198,#199,
#200,#201,#202));
#204=DERIVED_UNIT_ELEMENT(#206,1.);
#205=DERIVED_UNIT_ELEMENT(#372,-3.);
#206=(
MASS_UNIT()
NAMED_UNIT(*)
SI_UNIT(.KILO.,.GRAM.)
);
#207=DERIVED_UNIT((#204,#205));
#208=MEASURE_REPRESENTATION_ITEM('density measure',
POSITIVE_RATIO_MEASURE(8000.),#207);
#209=PROPERTY_DEFINITION_REPRESENTATION(#214,#211);
#210=PROPERTY_DEFINITION_REPRESENTATION(#215,#212);
#211=REPRESENTATION('material name',(#213),#369);
#212=REPRESENTATION('density',(#208),#369);
#213=DESCRIPTIVE_REPRESENTATION_ITEM('Stainless Steel AISI 304',
'Stainless Steel AISI 304');
#214=PROPERTY_DEFINITION('material property','material name',#379);
#215=PROPERTY_DEFINITION('material property','density of part',#379);
#216=AXIS2_PLACEMENT_3D('',#302,#241,#242);
#217=AXIS2_PLACEMENT_3D('',#303,#243,#244);
#218=AXIS2_PLACEMENT_3D('',#320,#249,#250);
#219=AXIS2_PLACEMENT_3D('',#337,#255,#256);
#220=AXIS2_PLACEMENT_3D('',#338,#257,#258);
#221=AXIS2_PLACEMENT_3D('',#339,#259,#260);
#222=AXIS2_PLACEMENT_3D('',#341,#261,#262);
#223=AXIS2_PLACEMENT_3D('',#342,#263,#264);
#224=AXIS2_PLACEMENT_3D('',#343,#265,#266);
#225=AXIS2_PLACEMENT_3D('',#344,#267,#268);
#226=AXIS2_PLACEMENT_3D('',#345,#269,#270);
#227=AXIS2_PLACEMENT_3D('',#346,#271,#272);
#228=AXIS2_PLACEMENT_3D('',#347,#273,#274);
#229=AXIS2_PLACEMENT_3D('',#348,#275,#276);
#230=AXIS2_PLACEMENT_3D('',#350,#277,#278);
#231=AXIS2_PLACEMENT_3D('',#353,#280,#281);
#232=AXIS2_PLACEMENT_3D('',#354,#282,#283);
#233=AXIS2_PLACEMENT_3D('',#357,#285,#286);
#234=AXIS2_PLACEMENT_3D('',#358,#287,#288);
#235=AXIS2_PLACEMENT_3D('',#359,#289,#290);
#236=AXIS2_PLACEMENT_3D('',#360,#291,#292);
#237=AXIS2_PLACEMENT_3D('',#361,#293,#294);
#238=AXIS2_PLACEMENT_3D('',#362,#295,#296);
#239=AXIS2_PLACEMENT_3D('',#364,#297,#298);
#240=AXIS2_PLACEMENT_3D('',#366,#300,#301);
#241=DIRECTION('axis',(0.,0.,1.));
#242=DIRECTION('refdir',(1.,0.,0.));
#243=DIRECTION('center_axis',(0.,-1.,0.));
#244=DIRECTION('ref_axis',(0.,0.,-1.));
#245=DIRECTION('',(0.,0.,-1.));
#246=DIRECTION('',(-1.,0.,0.));
#247=DIRECTION('',(0.,0.,1.));
#248=DIRECTION('',(1.,0.,0.));
#249=DIRECTION('center_axis',(0.,1.,0.));
#250=DIRECTION('ref_axis',(0.,0.,1.));
#251=DIRECTION('',(0.,0.,1.));
#252=DIRECTION('',(-1.,0.,0.));
#253=DIRECTION('',(0.,0.,-1.));
#254=DIRECTION('',(1.,0.,0.));
#255=DIRECTION('center_axis',(1.,0.,0.));
#256=DIRECTION('ref_axis',(0.,0.,-1.));
#257=DIRECTION('center_axis',(1.,0.,0.));
#258=DIRECTION('ref_axis',(0.,0.,-1.));
#259=DIRECTION('center_axis',(1.,0.,0.));
#260=DIRECTION('ref_axis',(0.,0.,-1.));
#261=DIRECTION('center_axis',(1.,0.,0.));
#262=DIRECTION('ref_axis',(0.,0.,-1.));
#263=DIRECTION('center_axis',(1.,0.,0.));
#264=DIRECTION('ref_axis',(0.,1.,0.));
#265=DIRECTION('center_axis',(-1.,0.,0.));
#266=DIRECTION('ref_axis',(0.,-1.,0.));
#267=DIRECTION('center_axis',(1.,0.,0.));
#268=DIRECTION('ref_axis',(0.,1.,0.));
#269=DIRECTION('center_axis',(-1.,0.,0.));
#270=DIRECTION('ref_axis',(0.,-1.,0.));
#271=DIRECTION('center_axis',(1.,0.,0.));
#272=DIRECTION('ref_axis',(0.,-1.,0.));
#273=DIRECTION('center_axis',(1.,0.,0.));
#274=DIRECTION('ref_axis',(0.,-1.,0.));
#275=DIRECTION('center_axis',(-1.,0.,0.));
#276=DIRECTION('ref_axis',(0.,1.,0.));
#277=DIRECTION('center_axis',(-1.,0.,0.));
#278=DIRECTION('ref_axis',(0.,1.,0.));
#279=DIRECTION('',(-0.707106781186546,-0.707106781186549,-8.65956056235495E-17));
#280=DIRECTION('center_axis',(1.,0.,0.));
#281=DIRECTION('ref_axis',(0.,1.,0.));
#282=DIRECTION('center_axis',(1.,0.,0.));
#283=DIRECTION('ref_axis',(0.,1.,0.));
#284=DIRECTION('',(-1.,0.,0.));
#285=DIRECTION('center_axis',(-1.,0.,0.));
#286=DIRECTION('ref_axis',(0.,1.,0.));
#287=DIRECTION('center_axis',(1.,0.,0.));
#288=DIRECTION('ref_axis',(0.,0.,-1.));
#289=DIRECTION('center_axis',(1.,0.,0.));
#290=DIRECTION('ref_axis',(0.,-1.,0.));
#291=DIRECTION('center_axis',(1.,0.,0.));
#292=DIRECTION('ref_axis',(0.,-1.,0.));
#293=DIRECTION('center_axis',(-1.,0.,0.));
#294=DIRECTION('ref_axis',(0.,0.,1.));
#295=DIRECTION('center_axis',(1.,0.,0.));
#296=DIRECTION('ref_axis',(0.,1.,0.));
#297=DIRECTION('center_axis',(1.,0.,0.));
#298=DIRECTION('ref_axis',(0.,0.,-1.));
#299=DIRECTION('',(-1.,0.,0.));
#300=DIRECTION('center_axis',(1.,0.,0.));
#301=DIRECTION('ref_axis',(0.,0.,-1.));
#302=CARTESIAN_POINT('',(0.,0.,0.));
#303=CARTESIAN_POINT('Origin',(0.,10.,8.30662386291806));
#304=CARTESIAN_POINT('',(-8.32667268468867E-16,10.,-6.63324958071077));
#305=CARTESIAN_POINT('',(1.,10.,-8.30662386291806));
#306=CARTESIAN_POINT('Ctrl Pts',(-8.32667268468867E-16,10.,-6.63324958071077));
#307=CARTESIAN_POINT('Ctrl Pts',(0.443996370232972,10.,-7.43646923617032));
#308=CARTESIAN_POINT('Ctrl Pts',(1.,10.,-8.30662386291806));
#309=CARTESIAN_POINT('',(-8.32667268468867E-16,10.,6.63324958071077));
#310=CARTESIAN_POINT('',(0.,10.,4.15331193145903));
#311=CARTESIAN_POINT('',(1.,10.,8.30662386291806));
#312=CARTESIAN_POINT('Ctrl Pts',(1.,10.,8.30662386291806));
#313=CARTESIAN_POINT('Ctrl Pts',(0.443996370232972,10.,7.43646923617032));
#314=CARTESIAN_POINT('Ctrl Pts',(-8.32667268468867E-16,10.,6.63324958071077));
#315=CARTESIAN_POINT('',(7.,10.,8.30662386291806));
#316=CARTESIAN_POINT('',(3.5,10.,8.30662386291806));
#317=CARTESIAN_POINT('',(7.,10.,-8.30662386291806));
#318=CARTESIAN_POINT('',(7.,10.,4.15331193145903));
#319=CARTESIAN_POINT('',(3.5,10.,-8.30662386291806));
#320=CARTESIAN_POINT('Origin',(0.,-10.,-8.30662386291807));
#321=CARTESIAN_POINT('',(8.32667268468867E-16,-10.,6.6332495807108));
#322=CARTESIAN_POINT('',(1.,-10.,8.30662386291807));
#323=CARTESIAN_POINT('Ctrl Pts',(8.32667268468867E-16,-10.,6.6332495807108));
#324=CARTESIAN_POINT('Ctrl Pts',(0.443996370232921,-10.,7.43646923617025));
#325=CARTESIAN_POINT('Ctrl Pts',(1.,-10.,8.30662386291807));
#326=CARTESIAN_POINT('',(8.32667268468867E-16,-10.,-6.6332495807108));
#327=CARTESIAN_POINT('',(0.,-10.,-4.15331193145904));
#328=CARTESIAN_POINT('',(1.,-10.,-8.30662386291807));
#329=CARTESIAN_POINT('Ctrl Pts',(1.,-10.,-8.30662386291807));
#330=CARTESIAN_POINT('Ctrl Pts',(0.443996370232921,-10.,-7.43646923617025));
#331=CARTESIAN_POINT('Ctrl Pts',(8.32667268468867E-16,-10.,-6.6332495807108));
#332=CARTESIAN_POINT('',(7.,-10.,-8.30662386291807));
#333=CARTESIAN_POINT('',(3.5,-10.,-8.30662386291807));
#334=CARTESIAN_POINT('',(7.,-10.,8.30662386291807));
#335=CARTESIAN_POINT('',(7.,-10.,-4.15331193145904));
#336=CARTESIAN_POINT('',(3.5,-10.,8.30662386291807));
#337=CARTESIAN_POINT('Origin',(7.,8.49999999999999,0.));
#338=CARTESIAN_POINT('Origin',(7.,-6.85733452591883E-15,0.));
#339=CARTESIAN_POINT('Origin',(7.,-6.85733452591883E-15,0.));
#340=CARTESIAN_POINT('',(7.,-8.5,-1.04094977927525E-15));
#341=CARTESIAN_POINT('Origin',(7.,-6.85733452591883E-15,0.));
#342=CARTESIAN_POINT('Origin',(3.5,-6.85733452591883E-15,0.));
#343=CARTESIAN_POINT('Origin',(1.,-6.85733452591883E-15,0.));
#344=CARTESIAN_POINT('Origin',(3.5,-6.85733452591883E-15,0.));
#345=CARTESIAN_POINT('Origin',(1.,-6.85733452591883E-15,0.));
#346=CARTESIAN_POINT('Origin',(0.5,-6.85733452591883E-15,0.));
#347=CARTESIAN_POINT('Origin',(0.,-6.85733452591883E-15,0.));
#348=CARTESIAN_POINT('Origin',(42.5,-6.85733452591883E-15,0.));
#349=CARTESIAN_POINT('',(43.,-6.91100000000001,8.46353402890736E-16));
#350=CARTESIAN_POINT('Origin',(43.,-6.85733452591883E-15,0.));
#351=CARTESIAN_POINT('',(42.,-7.91100000000001,-9.68818082805471E-16));
#352=CARTESIAN_POINT('',(42.5,-7.41100000000001,-9.07585742848104E-16));
#353=CARTESIAN_POINT('Origin',(42.,-6.85733452591883E-15,0.));
#354=CARTESIAN_POINT('Origin',(33.,-6.85733452591883E-15,0.));
#355=CARTESIAN_POINT('',(23.,-7.91100000000001,9.68818082805471E-16));
#356=CARTESIAN_POINT('',(33.,-7.91100000000001,-9.68818082805471E-16));
#357=CARTESIAN_POINT('Origin',(23.,-6.85733452591883E-15,0.));
#358=CARTESIAN_POINT('Origin',(43.,-1.33226762955019E-14,0.));
#359=CARTESIAN_POINT('Origin',(0.5,-6.85733452591883E-15,0.));
#360=CARTESIAN_POINT('Origin',(0.,-6.85733452591883E-15,0.));
#361=CARTESIAN_POINT('Origin',(0.,13.,0.));
#362=CARTESIAN_POINT('Origin',(15.,-6.85733452591883E-15,0.));
#363=CARTESIAN_POINT('',(23.,-8.5,-1.04094977927525E-15));
#364=CARTESIAN_POINT('Origin',(23.,-6.85733452591883E-15,0.));
#365=CARTESIAN_POINT('',(15.,-8.5,-1.04094977927525E-15));
#366=CARTESIAN_POINT('Origin',(23.,7.99999999999999,0.));
#367=UNCERTAINTY_MEASURE_WITH_UNIT(LENGTH_MEASURE(0.01),#371,
'DISTANCE_ACCURACY_VALUE',
'Maximum model space distance between geometric entities at asserted c
onnectivities');
#368=UNCERTAINTY_MEASURE_WITH_UNIT(LENGTH_MEASURE(0.01),#371,
'DISTANCE_ACCURACY_VALUE',
'Maximum model space distance between geometric entities at asserted c
onnectivities');
#369=(
GEOMETRIC_REPRESENTATION_CONTEXT(3)
GLOBAL_UNCERTAINTY_ASSIGNED_CONTEXT((#367))
GLOBAL_UNIT_ASSIGNED_CONTEXT((#371,#373,#374))
REPRESENTATION_CONTEXT('','3D')
);
#370=(
GEOMETRIC_REPRESENTATION_CONTEXT(3)
GLOBAL_UNCERTAINTY_ASSIGNED_CONTEXT((#368))
GLOBAL_UNIT_ASSIGNED_CONTEXT((#371,#373,#374))
REPRESENTATION_CONTEXT('','3D')
);
#371=(
LENGTH_UNIT()
NAMED_UNIT(*)
SI_UNIT(.MILLI.,.METRE.)
);
#372=(
LENGTH_UNIT()
NAMED_UNIT(*)
SI_UNIT($,.METRE.)
);
#373=(
NAMED_UNIT(*)
PLANE_ANGLE_UNIT()
SI_UNIT($,.RADIAN.)
);
#374=(
NAMED_UNIT(*)
SI_UNIT($,.STERADIAN.)
SOLID_ANGLE_UNIT()
);
#375=SHAPE_DEFINITION_REPRESENTATION(#376,#377);
#376=PRODUCT_DEFINITION_SHAPE('',$,#379);
#377=SHAPE_REPRESENTATION('',(#216),#369);
#378=PRODUCT_DEFINITION_CONTEXT('part definition',#383,'design');
#379=PRODUCT_DEFINITION('chamber bolts','chamber bolts v3',#380,#378);
#380=PRODUCT_DEFINITION_FORMATION('',$,#385);
#381=PRODUCT_RELATED_PRODUCT_CATEGORY('chamber bolts v3',
'chamber bolts v3',(#385));
#382=APPLICATION_PROTOCOL_DEFINITION('international standard',
'automotive_design',2009,#383);
#383=APPLICATION_CONTEXT(
'Core Data for Automotive Mechanical Design Process');
#384=PRODUCT_CONTEXT('part definition',#383,'mechanical');
#385=PRODUCT('chamber bolts','chamber bolts v3',$,(#384));
#386=PRESENTATION_STYLE_ASSIGNMENT((#387));
#387=SURFACE_STYLE_USAGE(.BOTH.,#388);
#388=SURFACE_SIDE_STYLE('',(#389));
#389=SURFACE_STYLE_FILL_AREA(#390);
#390=FILL_AREA_STYLE('Stainless Steel - Satin',(#391));
#391=FILL_AREA_STYLE_COLOUR('Stainless Steel - Satin',#392);
#392=COLOUR_RGB('Stainless Steel - Satin',0.796078431372549,0.796078431372549,
0.796078431372549);
ENDSEC;
END-ISO-10303-21;
