ISO-10303-21;
HEADER;
/* Generated by software containing ST-Developer
 * from STEP Tools, Inc. (www.steptools.com) 
 */

FILE_DESCRIPTION(
/* description */ (''),
/* implementation_level */ '2;1');

FILE_NAME(
/* name */ 'chamber brackets v6.step',
/* time_stamp */ '2024-06-14T13:18:54+02:00',
/* author */ (''),
/* organization */ (''),
/* preprocessor_version */ 'ST-DEVELOPER v20',
/* originating_system */ 'Autodesk Translation Framework v13.14.0.145',

/* authorisation */ '');

FILE_SCHEMA (('AUTOMOTIVE_DESIGN { 1 0 10303 214 3 1 1 }'));
ENDSEC;

DATA;
#10=MECHANICAL_DESIGN_GEOMETRIC_PRESENTATION_REPRESENTATION('',(#13),#1031);
#11=SHAPE_REPRESENTATION_RELATIONSHIP('SRR','None',#1038,#12);
#12=ADVANCED_BREP_SHAPE_REPRESENTATION('',(#14),#1030);
#13=STYLED_ITEM('',(#1047),#14);
#14=MANIFOLD_SOLID_BREP('Body1',#607);
#15=CYLINDRICAL_SURFACE('',#646,3.5);
#16=CYLINDRICAL_SURFACE('',#648,3.5);
#17=CYLINDRICAL_SURFACE('',#650,3.5);
#18=CYLINDRICAL_SURFACE('',#652,3.5);
#19=CYLINDRICAL_SURFACE('',#654,3.5);
#20=CYLINDRICAL_SURFACE('',#656,3.5);
#21=CYLINDRICAL_SURFACE('',#658,3.5);
#22=CYLINDRICAL_SURFACE('',#660,3.5);
#23=CYLINDRICAL_SURFACE('',#662,3.5);
#24=CYLINDRICAL_SURFACE('',#664,3.5);
#25=CYLINDRICAL_SURFACE('',#666,3.5);
#26=CYLINDRICAL_SURFACE('',#668,3.5);
#27=CYLINDRICAL_SURFACE('',#670,3.5);
#28=CYLINDRICAL_SURFACE('',#672,3.5);
#29=CYLINDRICAL_SURFACE('',#674,3.5);
#30=CYLINDRICAL_SURFACE('',#676,3.5);
#31=CYLINDRICAL_SURFACE('',#678,3.5);
#32=CYLINDRICAL_SURFACE('',#680,3.5);
#33=CYLINDRICAL_SURFACE('',#682,7.7631);
#34=CYLINDRICAL_SURFACE('',#684,7.7631);
#35=CYLINDRICAL_SURFACE('',#688,20.);
#36=FACE_BOUND('',#149,.T.);
#37=FACE_BOUND('',#150,.T.);
#38=FACE_BOUND('',#151,.T.);
#39=FACE_BOUND('',#152,.T.);
#40=FACE_BOUND('',#153,.T.);
#41=FACE_BOUND('',#154,.T.);
#42=FACE_BOUND('',#155,.T.);
#43=FACE_BOUND('',#156,.T.);
#44=FACE_BOUND('',#157,.T.);
#45=FACE_BOUND('',#158,.T.);
#46=FACE_BOUND('',#159,.T.);
#47=FACE_BOUND('',#160,.T.);
#48=FACE_BOUND('',#161,.T.);
#49=FACE_BOUND('',#162,.T.);
#50=FACE_BOUND('',#163,.T.);
#51=FACE_BOUND('',#164,.T.);
#52=FACE_BOUND('',#165,.T.);
#53=FACE_BOUND('',#166,.T.);
#54=FACE_BOUND('',#167,.T.);
#55=FACE_BOUND('',#168,.T.);
#56=FACE_BOUND('',#194,.T.);
#57=FACE_BOUND('',#195,.T.);
#58=FACE_BOUND('',#196,.T.);
#59=FACE_BOUND('',#197,.T.);
#60=FACE_BOUND('',#198,.T.);
#61=FACE_BOUND('',#199,.T.);
#62=FACE_BOUND('',#200,.T.);
#63=FACE_BOUND('',#201,.T.);
#64=FACE_BOUND('',#202,.T.);
#65=FACE_BOUND('',#203,.T.);
#66=FACE_BOUND('',#204,.T.);
#67=FACE_BOUND('',#205,.T.);
#68=FACE_BOUND('',#206,.T.);
#69=FACE_BOUND('',#207,.T.);
#70=FACE_BOUND('',#208,.T.);
#71=FACE_BOUND('',#209,.T.);
#72=FACE_BOUND('',#210,.T.);
#73=FACE_BOUND('',#211,.T.);
#74=FACE_BOUND('',#212,.T.);
#75=FACE_BOUND('',#213,.T.);
#76=CIRCLE('',#624,20.);
#77=CIRCLE('',#625,3.5);
#78=CIRCLE('',#626,3.5);
#79=CIRCLE('',#627,3.5);
#80=CIRCLE('',#628,3.5);
#81=CIRCLE('',#629,3.5);
#82=CIRCLE('',#630,3.5);
#83=CIRCLE('',#631,3.5);
#84=CIRCLE('',#632,3.5);
#85=CIRCLE('',#633,3.5);
#86=CIRCLE('',#634,3.5);
#87=CIRCLE('',#635,3.5);
#88=CIRCLE('',#636,3.5);
#89=CIRCLE('',#637,3.5);
#90=CIRCLE('',#638,3.5);
#91=CIRCLE('',#639,3.5);
#92=CIRCLE('',#640,3.5);
#93=CIRCLE('',#641,3.5);
#94=CIRCLE('',#642,3.5);
#95=CIRCLE('',#643,7.7631);
#96=CIRCLE('',#644,7.7631);
#97=CIRCLE('',#647,3.5);
#98=CIRCLE('',#649,3.5);
#99=CIRCLE('',#651,3.5);
#100=CIRCLE('',#653,3.5);
#101=CIRCLE('',#655,3.5);
#102=CIRCLE('',#657,3.5);
#103=CIRCLE('',#659,3.5);
#104=CIRCLE('',#661,3.5);
#105=CIRCLE('',#663,3.5);
#106=CIRCLE('',#665,3.5);
#107=CIRCLE('',#667,3.5);
#108=CIRCLE('',#669,3.5);
#109=CIRCLE('',#671,3.5);
#110=CIRCLE('',#673,3.5);
#111=CIRCLE('',#675,3.5);
#112=CIRCLE('',#677,3.5);
#113=CIRCLE('',#679,3.5);
#114=CIRCLE('',#681,3.5);
#115=CIRCLE('',#683,7.7631);
#116=CIRCLE('',#685,7.7631);
#117=CIRCLE('',#689,20.);
#118=FACE_OUTER_BOUND('',#146,.T.);
#119=FACE_OUTER_BOUND('',#147,.T.);
#120=FACE_OUTER_BOUND('',#148,.T.);
#121=FACE_OUTER_BOUND('',#169,.T.);
#122=FACE_OUTER_BOUND('',#170,.T.);
#123=FACE_OUTER_BOUND('',#171,.T.);
#124=FACE_OUTER_BOUND('',#172,.T.);
#125=FACE_OUTER_BOUND('',#173,.T.);
#126=FACE_OUTER_BOUND('',#174,.T.);
#127=FACE_OUTER_BOUND('',#175,.T.);
#128=FACE_OUTER_BOUND('',#176,.T.);
#129=FACE_OUTER_BOUND('',#177,.T.);
#130=FACE_OUTER_BOUND('',#178,.T.);
#131=FACE_OUTER_BOUND('',#179,.T.);
#132=FACE_OUTER_BOUND('',#180,.T.);
#133=FACE_OUTER_BOUND('',#181,.T.);
#134=FACE_OUTER_BOUND('',#182,.T.);
#135=FACE_OUTER_BOUND('',#183,.T.);
#136=FACE_OUTER_BOUND('',#184,.T.);
#137=FACE_OUTER_BOUND('',#185,.T.);
#138=FACE_OUTER_BOUND('',#186,.T.);
#139=FACE_OUTER_BOUND('',#187,.T.);
#140=FACE_OUTER_BOUND('',#188,.T.);
#141=FACE_OUTER_BOUND('',#189,.T.);
#142=FACE_OUTER_BOUND('',#190,.T.);
#143=FACE_OUTER_BOUND('',#191,.T.);
#144=FACE_OUTER_BOUND('',#192,.T.);
#145=FACE_OUTER_BOUND('',#193,.T.);
#146=EDGE_LOOP('',(#416,#417,#418,#419));
#147=EDGE_LOOP('',(#420,#421,#422,#423));
#148=EDGE_LOOP('',(#424,#425,#426,#427,#428,#429));
#149=EDGE_LOOP('',(#430));
#150=EDGE_LOOP('',(#431));
#151=EDGE_LOOP('',(#432));
#152=EDGE_LOOP('',(#433));
#153=EDGE_LOOP('',(#434));
#154=EDGE_LOOP('',(#435));
#155=EDGE_LOOP('',(#436));
#156=EDGE_LOOP('',(#437));
#157=EDGE_LOOP('',(#438));
#158=EDGE_LOOP('',(#439));
#159=EDGE_LOOP('',(#440));
#160=EDGE_LOOP('',(#441));
#161=EDGE_LOOP('',(#442));
#162=EDGE_LOOP('',(#443));
#163=EDGE_LOOP('',(#444));
#164=EDGE_LOOP('',(#445));
#165=EDGE_LOOP('',(#446));
#166=EDGE_LOOP('',(#447));
#167=EDGE_LOOP('',(#448));
#168=EDGE_LOOP('',(#449));
#169=EDGE_LOOP('',(#450,#451,#452,#453));
#170=EDGE_LOOP('',(#454,#455,#456,#457));
#171=EDGE_LOOP('',(#458,#459,#460,#461));
#172=EDGE_LOOP('',(#462,#463,#464,#465));
#173=EDGE_LOOP('',(#466,#467,#468,#469));
#174=EDGE_LOOP('',(#470,#471,#472,#473));
#175=EDGE_LOOP('',(#474,#475,#476,#477));
#176=EDGE_LOOP('',(#478,#479,#480,#481));
#177=EDGE_LOOP('',(#482,#483,#484,#485));
#178=EDGE_LOOP('',(#486,#487,#488,#489));
#179=EDGE_LOOP('',(#490,#491,#492,#493));
#180=EDGE_LOOP('',(#494,#495,#496,#497));
#181=EDGE_LOOP('',(#498,#499,#500,#501));
#182=EDGE_LOOP('',(#502,#503,#504,#505));
#183=EDGE_LOOP('',(#506,#507,#508,#509));
#184=EDGE_LOOP('',(#510,#511,#512,#513));
#185=EDGE_LOOP('',(#514,#515,#516,#517));
#186=EDGE_LOOP('',(#518,#519,#520,#521));
#187=EDGE_LOOP('',(#522,#523,#524,#525));
#188=EDGE_LOOP('',(#526,#527,#528,#529));
#189=EDGE_LOOP('',(#530,#531,#532,#533));
#190=EDGE_LOOP('',(#534,#535,#536,#537));
#191=EDGE_LOOP('',(#538,#539,#540,#541));
#192=EDGE_LOOP('',(#542,#543,#544,#545));
#193=EDGE_LOOP('',(#546,#547,#548,#549,#550,#551));
#194=EDGE_LOOP('',(#552));
#195=EDGE_LOOP('',(#553));
#196=EDGE_LOOP('',(#554));
#197=EDGE_LOOP('',(#555));
#198=EDGE_LOOP('',(#556));
#199=EDGE_LOOP('',(#557));
#200=EDGE_LOOP('',(#558));
#201=EDGE_LOOP('',(#559));
#202=EDGE_LOOP('',(#560));
#203=EDGE_LOOP('',(#561));
#204=EDGE_LOOP('',(#562));
#205=EDGE_LOOP('',(#563));
#206=EDGE_LOOP('',(#564));
#207=EDGE_LOOP('',(#565));
#208=EDGE_LOOP('',(#566));
#209=EDGE_LOOP('',(#567));
#210=EDGE_LOOP('',(#568));
#211=EDGE_LOOP('',(#569));
#212=EDGE_LOOP('',(#570));
#213=EDGE_LOOP('',(#571));
#214=LINE('',#873,#250);
#215=LINE('',#875,#251);
#216=LINE('',#877,#252);
#217=LINE('',#878,#253);
#218=LINE('',#881,#254);
#219=LINE('',#883,#255);
#220=LINE('',#884,#256);
#221=LINE('',#887,#257);
#222=LINE('',#891,#258);
#223=LINE('',#892,#259);
#224=LINE('',#935,#260);
#225=LINE('',#936,#261);
#226=LINE('',#939,#262);
#227=LINE('',#943,#263);
#228=LINE('',#947,#264);
#229=LINE('',#951,#265);
#230=LINE('',#955,#266);
#231=LINE('',#959,#267);
#232=LINE('',#963,#268);
#233=LINE('',#967,#269);
#234=LINE('',#971,#270);
#235=LINE('',#975,#271);
#236=LINE('',#979,#272);
#237=LINE('',#983,#273);
#238=LINE('',#987,#274);
#239=LINE('',#991,#275);
#240=LINE('',#995,#276);
#241=LINE('',#999,#277);
#242=LINE('',#1003,#278);
#243=LINE('',#1007,#279);
#244=LINE('',#1011,#280);
#245=LINE('',#1015,#281);
#246=LINE('',#1019,#282);
#247=LINE('',#1020,#283);
#248=LINE('',#1023,#284);
#249=LINE('',#1024,#285);
#250=VECTOR('',#695,10.);
#251=VECTOR('',#696,10.);
#252=VECTOR('',#697,10.);
#253=VECTOR('',#698,10.);
#254=VECTOR('',#701,10.);
#255=VECTOR('',#702,10.);
#256=VECTOR('',#703,10.);
#257=VECTOR('',#706,10.);
#258=VECTOR('',#709,10.);
#259=VECTOR('',#710,10.);
#260=VECTOR('',#753,10.);
#261=VECTOR('',#754,10.);
#262=VECTOR('',#757,3.5);
#263=VECTOR('',#762,3.5);
#264=VECTOR('',#767,3.5);
#265=VECTOR('',#772,3.5);
#266=VECTOR('',#777,3.5);
#267=VECTOR('',#782,3.5);
#268=VECTOR('',#787,3.5);
#269=VECTOR('',#792,3.5);
#270=VECTOR('',#797,3.5);
#271=VECTOR('',#802,3.5);
#272=VECTOR('',#807,3.5);
#273=VECTOR('',#812,3.5);
#274=VECTOR('',#817,3.5);
#275=VECTOR('',#822,3.5);
#276=VECTOR('',#827,3.5);
#277=VECTOR('',#832,3.5);
#278=VECTOR('',#837,3.5);
#279=VECTOR('',#842,3.5);
#280=VECTOR('',#847,7.763);
#281=VECTOR('',#852,7.763);
#282=VECTOR('',#857,10.);
#283=VECTOR('',#858,10.);
#284=VECTOR('',#861,10.);
#285=VECTOR('',#862,10.);
#286=VERTEX_POINT('',#871);
#287=VERTEX_POINT('',#872);
#288=VERTEX_POINT('',#874);
#289=VERTEX_POINT('',#876);
#290=VERTEX_POINT('',#880);
#291=VERTEX_POINT('',#882);
#292=VERTEX_POINT('',#886);
#293=VERTEX_POINT('',#888);
#294=VERTEX_POINT('',#890);
#295=VERTEX_POINT('',#893);
#296=VERTEX_POINT('',#895);
#297=VERTEX_POINT('',#897);
#298=VERTEX_POINT('',#899);
#299=VERTEX_POINT('',#901);
#300=VERTEX_POINT('',#903);
#301=VERTEX_POINT('',#905);
#302=VERTEX_POINT('',#907);
#303=VERTEX_POINT('',#909);
#304=VERTEX_POINT('',#911);
#305=VERTEX_POINT('',#913);
#306=VERTEX_POINT('',#915);
#307=VERTEX_POINT('',#917);
#308=VERTEX_POINT('',#919);
#309=VERTEX_POINT('',#921);
#310=VERTEX_POINT('',#923);
#311=VERTEX_POINT('',#925);
#312=VERTEX_POINT('',#927);
#313=VERTEX_POINT('',#929);
#314=VERTEX_POINT('',#931);
#315=VERTEX_POINT('',#934);
#316=VERTEX_POINT('',#938);
#317=VERTEX_POINT('',#942);
#318=VERTEX_POINT('',#946);
#319=VERTEX_POINT('',#950);
#320=VERTEX_POINT('',#954);
#321=VERTEX_POINT('',#958);
#322=VERTEX_POINT('',#962);
#323=VERTEX_POINT('',#966);
#324=VERTEX_POINT('',#970);
#325=VERTEX_POINT('',#974);
#326=VERTEX_POINT('',#978);
#327=VERTEX_POINT('',#982);
#328=VERTEX_POINT('',#986);
#329=VERTEX_POINT('',#990);
#330=VERTEX_POINT('',#994);
#331=VERTEX_POINT('',#998);
#332=VERTEX_POINT('',#1002);
#333=VERTEX_POINT('',#1006);
#334=VERTEX_POINT('',#1010);
#335=VERTEX_POINT('',#1014);
#336=VERTEX_POINT('',#1018);
#337=VERTEX_POINT('',#1022);
#338=EDGE_CURVE('',#286,#287,#214,.T.);
#339=EDGE_CURVE('',#287,#288,#215,.T.);
#340=EDGE_CURVE('',#288,#289,#216,.T.);
#341=EDGE_CURVE('',#289,#286,#217,.T.);
#342=EDGE_CURVE('',#290,#289,#218,.T.);
#343=EDGE_CURVE('',#291,#290,#219,.T.);
#344=EDGE_CURVE('',#286,#291,#220,.T.);
#345=EDGE_CURVE('',#288,#292,#221,.T.);
#346=EDGE_CURVE('',#293,#292,#76,.T.);
#347=EDGE_CURVE('',#293,#294,#222,.T.);
#348=EDGE_CURVE('',#290,#294,#223,.T.);
#349=EDGE_CURVE('',#295,#295,#77,.T.);
#350=EDGE_CURVE('',#296,#296,#78,.T.);
#351=EDGE_CURVE('',#297,#297,#79,.T.);
#352=EDGE_CURVE('',#298,#298,#80,.T.);
#353=EDGE_CURVE('',#299,#299,#81,.T.);
#354=EDGE_CURVE('',#300,#300,#82,.T.);
#355=EDGE_CURVE('',#301,#301,#83,.T.);
#356=EDGE_CURVE('',#302,#302,#84,.T.);
#357=EDGE_CURVE('',#303,#303,#85,.T.);
#358=EDGE_CURVE('',#304,#304,#86,.T.);
#359=EDGE_CURVE('',#305,#305,#87,.T.);
#360=EDGE_CURVE('',#306,#306,#88,.T.);
#361=EDGE_CURVE('',#307,#307,#89,.T.);
#362=EDGE_CURVE('',#308,#308,#90,.T.);
#363=EDGE_CURVE('',#309,#309,#91,.T.);
#364=EDGE_CURVE('',#310,#310,#92,.T.);
#365=EDGE_CURVE('',#311,#311,#93,.T.);
#366=EDGE_CURVE('',#312,#312,#94,.T.);
#367=EDGE_CURVE('',#313,#313,#95,.F.);
#368=EDGE_CURVE('',#314,#314,#96,.F.);
#369=EDGE_CURVE('',#315,#291,#224,.T.);
#370=EDGE_CURVE('',#294,#315,#225,.T.);
#371=EDGE_CURVE('',#295,#316,#226,.T.);
#372=EDGE_CURVE('',#316,#316,#97,.T.);
#373=EDGE_CURVE('',#296,#317,#227,.T.);
#374=EDGE_CURVE('',#317,#317,#98,.T.);
#375=EDGE_CURVE('',#297,#318,#228,.T.);
#376=EDGE_CURVE('',#318,#318,#99,.T.);
#377=EDGE_CURVE('',#298,#319,#229,.T.);
#378=EDGE_CURVE('',#319,#319,#100,.T.);
#379=EDGE_CURVE('',#299,#320,#230,.T.);
#380=EDGE_CURVE('',#320,#320,#101,.T.);
#381=EDGE_CURVE('',#300,#321,#231,.T.);
#382=EDGE_CURVE('',#321,#321,#102,.T.);
#383=EDGE_CURVE('',#301,#322,#232,.T.);
#384=EDGE_CURVE('',#322,#322,#103,.T.);
#385=EDGE_CURVE('',#302,#323,#233,.T.);
#386=EDGE_CURVE('',#323,#323,#104,.T.);
#387=EDGE_CURVE('',#303,#324,#234,.T.);
#388=EDGE_CURVE('',#324,#324,#105,.T.);
#389=EDGE_CURVE('',#304,#325,#235,.T.);
#390=EDGE_CURVE('',#325,#325,#106,.T.);
#391=EDGE_CURVE('',#305,#326,#236,.T.);
#392=EDGE_CURVE('',#326,#326,#107,.T.);
#393=EDGE_CURVE('',#306,#327,#237,.T.);
#394=EDGE_CURVE('',#327,#327,#108,.T.);
#395=EDGE_CURVE('',#307,#328,#238,.T.);
#396=EDGE_CURVE('',#328,#328,#109,.T.);
#397=EDGE_CURVE('',#308,#329,#239,.T.);
#398=EDGE_CURVE('',#329,#329,#110,.T.);
#399=EDGE_CURVE('',#309,#330,#240,.T.);
#400=EDGE_CURVE('',#330,#330,#111,.T.);
#401=EDGE_CURVE('',#310,#331,#241,.T.);
#402=EDGE_CURVE('',#331,#331,#112,.T.);
#403=EDGE_CURVE('',#311,#332,#242,.T.);
#404=EDGE_CURVE('',#332,#332,#113,.T.);
#405=EDGE_CURVE('',#312,#333,#243,.T.);
#406=EDGE_CURVE('',#333,#333,#114,.T.);
#407=EDGE_CURVE('',#313,#334,#244,.T.);
#408=EDGE_CURVE('',#334,#334,#115,.T.);
#409=EDGE_CURVE('',#314,#335,#245,.T.);
#410=EDGE_CURVE('',#335,#335,#116,.T.);
#411=EDGE_CURVE('',#293,#336,#246,.T.);
#412=EDGE_CURVE('',#315,#336,#247,.T.);
#413=EDGE_CURVE('',#337,#287,#248,.T.);
#414=EDGE_CURVE('',#292,#337,#249,.T.);
#415=EDGE_CURVE('',#336,#337,#117,.T.);
#416=ORIENTED_EDGE('',*,*,#338,.T.);
#417=ORIENTED_EDGE('',*,*,#339,.T.);
#418=ORIENTED_EDGE('',*,*,#340,.T.);
#419=ORIENTED_EDGE('',*,*,#341,.T.);
#420=ORIENTED_EDGE('',*,*,#341,.F.);
#421=ORIENTED_EDGE('',*,*,#342,.F.);
#422=ORIENTED_EDGE('',*,*,#343,.F.);
#423=ORIENTED_EDGE('',*,*,#344,.F.);
#424=ORIENTED_EDGE('',*,*,#340,.F.);
#425=ORIENTED_EDGE('',*,*,#345,.T.);
#426=ORIENTED_EDGE('',*,*,#346,.F.);
#427=ORIENTED_EDGE('',*,*,#347,.T.);
#428=ORIENTED_EDGE('',*,*,#348,.F.);
#429=ORIENTED_EDGE('',*,*,#342,.T.);
#430=ORIENTED_EDGE('',*,*,#349,.T.);
#431=ORIENTED_EDGE('',*,*,#350,.T.);
#432=ORIENTED_EDGE('',*,*,#351,.T.);
#433=ORIENTED_EDGE('',*,*,#352,.T.);
#434=ORIENTED_EDGE('',*,*,#353,.T.);
#435=ORIENTED_EDGE('',*,*,#354,.T.);
#436=ORIENTED_EDGE('',*,*,#355,.T.);
#437=ORIENTED_EDGE('',*,*,#356,.T.);
#438=ORIENTED_EDGE('',*,*,#357,.T.);
#439=ORIENTED_EDGE('',*,*,#358,.T.);
#440=ORIENTED_EDGE('',*,*,#359,.T.);
#441=ORIENTED_EDGE('',*,*,#360,.T.);
#442=ORIENTED_EDGE('',*,*,#361,.T.);
#443=ORIENTED_EDGE('',*,*,#362,.T.);
#444=ORIENTED_EDGE('',*,*,#363,.T.);
#445=ORIENTED_EDGE('',*,*,#364,.T.);
#446=ORIENTED_EDGE('',*,*,#365,.T.);
#447=ORIENTED_EDGE('',*,*,#366,.T.);
#448=ORIENTED_EDGE('',*,*,#367,.T.);
#449=ORIENTED_EDGE('',*,*,#368,.T.);
#450=ORIENTED_EDGE('',*,*,#369,.T.);
#451=ORIENTED_EDGE('',*,*,#343,.T.);
#452=ORIENTED_EDGE('',*,*,#348,.T.);
#453=ORIENTED_EDGE('',*,*,#370,.T.);
#454=ORIENTED_EDGE('',*,*,#349,.F.);
#455=ORIENTED_EDGE('',*,*,#371,.T.);
#456=ORIENTED_EDGE('',*,*,#372,.F.);
#457=ORIENTED_EDGE('',*,*,#371,.F.);
#458=ORIENTED_EDGE('',*,*,#350,.F.);
#459=ORIENTED_EDGE('',*,*,#373,.T.);
#460=ORIENTED_EDGE('',*,*,#374,.F.);
#461=ORIENTED_EDGE('',*,*,#373,.F.);
#462=ORIENTED_EDGE('',*,*,#351,.F.);
#463=ORIENTED_EDGE('',*,*,#375,.T.);
#464=ORIENTED_EDGE('',*,*,#376,.F.);
#465=ORIENTED_EDGE('',*,*,#375,.F.);
#466=ORIENTED_EDGE('',*,*,#352,.F.);
#467=ORIENTED_EDGE('',*,*,#377,.T.);
#468=ORIENTED_EDGE('',*,*,#378,.F.);
#469=ORIENTED_EDGE('',*,*,#377,.F.);
#470=ORIENTED_EDGE('',*,*,#353,.F.);
#471=ORIENTED_EDGE('',*,*,#379,.T.);
#472=ORIENTED_EDGE('',*,*,#380,.F.);
#473=ORIENTED_EDGE('',*,*,#379,.F.);
#474=ORIENTED_EDGE('',*,*,#354,.F.);
#475=ORIENTED_EDGE('',*,*,#381,.T.);
#476=ORIENTED_EDGE('',*,*,#382,.F.);
#477=ORIENTED_EDGE('',*,*,#381,.F.);
#478=ORIENTED_EDGE('',*,*,#355,.F.);
#479=ORIENTED_EDGE('',*,*,#383,.T.);
#480=ORIENTED_EDGE('',*,*,#384,.F.);
#481=ORIENTED_EDGE('',*,*,#383,.F.);
#482=ORIENTED_EDGE('',*,*,#356,.F.);
#483=ORIENTED_EDGE('',*,*,#385,.T.);
#484=ORIENTED_EDGE('',*,*,#386,.F.);
#485=ORIENTED_EDGE('',*,*,#385,.F.);
#486=ORIENTED_EDGE('',*,*,#357,.F.);
#487=ORIENTED_EDGE('',*,*,#387,.T.);
#488=ORIENTED_EDGE('',*,*,#388,.F.);
#489=ORIENTED_EDGE('',*,*,#387,.F.);
#490=ORIENTED_EDGE('',*,*,#358,.F.);
#491=ORIENTED_EDGE('',*,*,#389,.T.);
#492=ORIENTED_EDGE('',*,*,#390,.F.);
#493=ORIENTED_EDGE('',*,*,#389,.F.);
#494=ORIENTED_EDGE('',*,*,#359,.F.);
#495=ORIENTED_EDGE('',*,*,#391,.T.);
#496=ORIENTED_EDGE('',*,*,#392,.F.);
#497=ORIENTED_EDGE('',*,*,#391,.F.);
#498=ORIENTED_EDGE('',*,*,#360,.F.);
#499=ORIENTED_EDGE('',*,*,#393,.T.);
#500=ORIENTED_EDGE('',*,*,#394,.F.);
#501=ORIENTED_EDGE('',*,*,#393,.F.);
#502=ORIENTED_EDGE('',*,*,#361,.F.);
#503=ORIENTED_EDGE('',*,*,#395,.T.);
#504=ORIENTED_EDGE('',*,*,#396,.F.);
#505=ORIENTED_EDGE('',*,*,#395,.F.);
#506=ORIENTED_EDGE('',*,*,#362,.F.);
#507=ORIENTED_EDGE('',*,*,#397,.T.);
#508=ORIENTED_EDGE('',*,*,#398,.F.);
#509=ORIENTED_EDGE('',*,*,#397,.F.);
#510=ORIENTED_EDGE('',*,*,#363,.F.);
#511=ORIENTED_EDGE('',*,*,#399,.T.);
#512=ORIENTED_EDGE('',*,*,#400,.F.);
#513=ORIENTED_EDGE('',*,*,#399,.F.);
#514=ORIENTED_EDGE('',*,*,#364,.F.);
#515=ORIENTED_EDGE('',*,*,#401,.T.);
#516=ORIENTED_EDGE('',*,*,#402,.F.);
#517=ORIENTED_EDGE('',*,*,#401,.F.);
#518=ORIENTED_EDGE('',*,*,#365,.F.);
#519=ORIENTED_EDGE('',*,*,#403,.T.);
#520=ORIENTED_EDGE('',*,*,#404,.F.);
#521=ORIENTED_EDGE('',*,*,#403,.F.);
#522=ORIENTED_EDGE('',*,*,#366,.F.);
#523=ORIENTED_EDGE('',*,*,#405,.T.);
#524=ORIENTED_EDGE('',*,*,#406,.F.);
#525=ORIENTED_EDGE('',*,*,#405,.F.);
#526=ORIENTED_EDGE('',*,*,#367,.F.);
#527=ORIENTED_EDGE('',*,*,#407,.T.);
#528=ORIENTED_EDGE('',*,*,#408,.F.);
#529=ORIENTED_EDGE('',*,*,#407,.F.);
#530=ORIENTED_EDGE('',*,*,#368,.F.);
#531=ORIENTED_EDGE('',*,*,#409,.T.);
#532=ORIENTED_EDGE('',*,*,#410,.F.);
#533=ORIENTED_EDGE('',*,*,#409,.F.);
#534=ORIENTED_EDGE('',*,*,#370,.F.);
#535=ORIENTED_EDGE('',*,*,#347,.F.);
#536=ORIENTED_EDGE('',*,*,#411,.T.);
#537=ORIENTED_EDGE('',*,*,#412,.F.);
#538=ORIENTED_EDGE('',*,*,#339,.F.);
#539=ORIENTED_EDGE('',*,*,#413,.F.);
#540=ORIENTED_EDGE('',*,*,#414,.F.);
#541=ORIENTED_EDGE('',*,*,#345,.F.);
#542=ORIENTED_EDGE('',*,*,#346,.T.);
#543=ORIENTED_EDGE('',*,*,#414,.T.);
#544=ORIENTED_EDGE('',*,*,#415,.F.);
#545=ORIENTED_EDGE('',*,*,#411,.F.);
#546=ORIENTED_EDGE('',*,*,#338,.F.);
#547=ORIENTED_EDGE('',*,*,#344,.T.);
#548=ORIENTED_EDGE('',*,*,#369,.F.);
#549=ORIENTED_EDGE('',*,*,#412,.T.);
#550=ORIENTED_EDGE('',*,*,#415,.T.);
#551=ORIENTED_EDGE('',*,*,#413,.T.);
#552=ORIENTED_EDGE('',*,*,#372,.T.);
#553=ORIENTED_EDGE('',*,*,#374,.T.);
#554=ORIENTED_EDGE('',*,*,#376,.T.);
#555=ORIENTED_EDGE('',*,*,#378,.T.);
#556=ORIENTED_EDGE('',*,*,#380,.T.);
#557=ORIENTED_EDGE('',*,*,#382,.T.);
#558=ORIENTED_EDGE('',*,*,#384,.T.);
#559=ORIENTED_EDGE('',*,*,#386,.T.);
#560=ORIENTED_EDGE('',*,*,#388,.T.);
#561=ORIENTED_EDGE('',*,*,#390,.T.);
#562=ORIENTED_EDGE('',*,*,#392,.T.);
#563=ORIENTED_EDGE('',*,*,#394,.T.);
#564=ORIENTED_EDGE('',*,*,#396,.T.);
#565=ORIENTED_EDGE('',*,*,#398,.T.);
#566=ORIENTED_EDGE('',*,*,#400,.T.);
#567=ORIENTED_EDGE('',*,*,#402,.T.);
#568=ORIENTED_EDGE('',*,*,#404,.T.);
#569=ORIENTED_EDGE('',*,*,#406,.T.);
#570=ORIENTED_EDGE('',*,*,#408,.T.);
#571=ORIENTED_EDGE('',*,*,#410,.T.);
#572=PLANE('',#621);
#573=PLANE('',#622);
#574=PLANE('',#623);
#575=PLANE('',#645);
#576=PLANE('',#686);
#577=PLANE('',#687);
#578=PLANE('',#690);
#579=ADVANCED_FACE('',(#118),#572,.T.);
#580=ADVANCED_FACE('',(#119),#573,.T.);
#581=ADVANCED_FACE('',(#120,#36,#37,#38,#39,#40,#41,#42,#43,#44,#45,#46,
#47,#48,#49,#50,#51,#52,#53,#54,#55),#574,.F.);
#582=ADVANCED_FACE('',(#121),#575,.T.);
#583=ADVANCED_FACE('',(#122),#15,.F.);
#584=ADVANCED_FACE('',(#123),#16,.F.);
#585=ADVANCED_FACE('',(#124),#17,.F.);
#586=ADVANCED_FACE('',(#125),#18,.F.);
#587=ADVANCED_FACE('',(#126),#19,.F.);
#588=ADVANCED_FACE('',(#127),#20,.F.);
#589=ADVANCED_FACE('',(#128),#21,.F.);
#590=ADVANCED_FACE('',(#129),#22,.F.);
#591=ADVANCED_FACE('',(#130),#23,.F.);
#592=ADVANCED_FACE('',(#131),#24,.F.);
#593=ADVANCED_FACE('',(#132),#25,.F.);
#594=ADVANCED_FACE('',(#133),#26,.F.);
#595=ADVANCED_FACE('',(#134),#27,.F.);
#596=ADVANCED_FACE('',(#135),#28,.F.);
#597=ADVANCED_FACE('',(#136),#29,.F.);
#598=ADVANCED_FACE('',(#137),#30,.F.);
#599=ADVANCED_FACE('',(#138),#31,.F.);
#600=ADVANCED_FACE('',(#139),#32,.F.);
#601=ADVANCED_FACE('',(#140),#33,.F.);
#602=ADVANCED_FACE('',(#141),#34,.F.);
#603=ADVANCED_FACE('',(#142),#576,.T.);
#604=ADVANCED_FACE('',(#143),#577,.T.);
#605=ADVANCED_FACE('',(#144),#35,.T.);
#606=ADVANCED_FACE('',(#145,#56,#57,#58,#59,#60,#61,#62,#63,#64,#65,#66,
#67,#68,#69,#70,#71,#72,#73,#74,#75),#578,.T.);
#607=CLOSED_SHELL('',(#579,#580,#581,#582,#583,#584,#585,#586,#587,#588,
#589,#590,#591,#592,#593,#594,#595,#596,#597,#598,#599,#600,#601,#602,#603,
#604,#605,#606));
#608=DERIVED_UNIT_ELEMENT(#610,1.);
#609=DERIVED_UNIT_ELEMENT(#1033,-3.);
#610=(
MASS_UNIT()
NAMED_UNIT(*)
SI_UNIT(.KILO.,.GRAM.)
);
#611=DERIVED_UNIT((#608,#609));
#612=MEASURE_REPRESENTATION_ITEM('density measure',
POSITIVE_RATIO_MEASURE(7850.),#611);
#613=PROPERTY_DEFINITION_REPRESENTATION(#618,#615);
#614=PROPERTY_DEFINITION_REPRESENTATION(#619,#616);
#615=REPRESENTATION('material name',(#617),#1030);
#616=REPRESENTATION('density',(#612),#1030);
#617=DESCRIPTIVE_REPRESENTATION_ITEM('Steel','Steel');
#618=PROPERTY_DEFINITION('material property','material name',#1040);
#619=PROPERTY_DEFINITION('material property','density of part',#1040);
#620=AXIS2_PLACEMENT_3D('',#869,#691,#692);
#621=AXIS2_PLACEMENT_3D('',#870,#693,#694);
#622=AXIS2_PLACEMENT_3D('',#879,#699,#700);
#623=AXIS2_PLACEMENT_3D('',#885,#704,#705);
#624=AXIS2_PLACEMENT_3D('',#889,#707,#708);
#625=AXIS2_PLACEMENT_3D('',#894,#711,#712);
#626=AXIS2_PLACEMENT_3D('',#896,#713,#714);
#627=AXIS2_PLACEMENT_3D('',#898,#715,#716);
#628=AXIS2_PLACEMENT_3D('',#900,#717,#718);
#629=AXIS2_PLACEMENT_3D('',#902,#719,#720);
#630=AXIS2_PLACEMENT_3D('',#904,#721,#722);
#631=AXIS2_PLACEMENT_3D('',#906,#723,#724);
#632=AXIS2_PLACEMENT_3D('',#908,#725,#726);
#633=AXIS2_PLACEMENT_3D('',#910,#727,#728);
#634=AXIS2_PLACEMENT_3D('',#912,#729,#730);
#635=AXIS2_PLACEMENT_3D('',#914,#731,#732);
#636=AXIS2_PLACEMENT_3D('',#916,#733,#734);
#637=AXIS2_PLACEMENT_3D('',#918,#735,#736);
#638=AXIS2_PLACEMENT_3D('',#920,#737,#738);
#639=AXIS2_PLACEMENT_3D('',#922,#739,#740);
#640=AXIS2_PLACEMENT_3D('',#924,#741,#742);
#641=AXIS2_PLACEMENT_3D('',#926,#743,#744);
#642=AXIS2_PLACEMENT_3D('',#928,#745,#746);
#643=AXIS2_PLACEMENT_3D('',#930,#747,#748);
#644=AXIS2_PLACEMENT_3D('',#932,#749,#750);
#645=AXIS2_PLACEMENT_3D('',#933,#751,#752);
#646=AXIS2_PLACEMENT_3D('',#937,#755,#756);
#647=AXIS2_PLACEMENT_3D('',#940,#758,#759);
#648=AXIS2_PLACEMENT_3D('',#941,#760,#761);
#649=AXIS2_PLACEMENT_3D('',#944,#763,#764);
#650=AXIS2_PLACEMENT_3D('',#945,#765,#766);
#651=AXIS2_PLACEMENT_3D('',#948,#768,#769);
#652=AXIS2_PLACEMENT_3D('',#949,#770,#771);
#653=AXIS2_PLACEMENT_3D('',#952,#773,#774);
#654=AXIS2_PLACEMENT_3D('',#953,#775,#776);
#655=AXIS2_PLACEMENT_3D('',#956,#778,#779);
#656=AXIS2_PLACEMENT_3D('',#957,#780,#781);
#657=AXIS2_PLACEMENT_3D('',#960,#783,#784);
#658=AXIS2_PLACEMENT_3D('',#961,#785,#786);
#659=AXIS2_PLACEMENT_3D('',#964,#788,#789);
#660=AXIS2_PLACEMENT_3D('',#965,#790,#791);
#661=AXIS2_PLACEMENT_3D('',#968,#793,#794);
#662=AXIS2_PLACEMENT_3D('',#969,#795,#796);
#663=AXIS2_PLACEMENT_3D('',#972,#798,#799);
#664=AXIS2_PLACEMENT_3D('',#973,#800,#801);
#665=AXIS2_PLACEMENT_3D('',#976,#803,#804);
#666=AXIS2_PLACEMENT_3D('',#977,#805,#806);
#667=AXIS2_PLACEMENT_3D('',#980,#808,#809);
#668=AXIS2_PLACEMENT_3D('',#981,#810,#811);
#669=AXIS2_PLACEMENT_3D('',#984,#813,#814);
#670=AXIS2_PLACEMENT_3D('',#985,#815,#816);
#671=AXIS2_PLACEMENT_3D('',#988,#818,#819);
#672=AXIS2_PLACEMENT_3D('',#989,#820,#821);
#673=AXIS2_PLACEMENT_3D('',#992,#823,#824);
#674=AXIS2_PLACEMENT_3D('',#993,#825,#826);
#675=AXIS2_PLACEMENT_3D('',#996,#828,#829);
#676=AXIS2_PLACEMENT_3D('',#997,#830,#831);
#677=AXIS2_PLACEMENT_3D('',#1000,#833,#834);
#678=AXIS2_PLACEMENT_3D('',#1001,#835,#836);
#679=AXIS2_PLACEMENT_3D('',#1004,#838,#839);
#680=AXIS2_PLACEMENT_3D('',#1005,#840,#841);
#681=AXIS2_PLACEMENT_3D('',#1008,#843,#844);
#682=AXIS2_PLACEMENT_3D('',#1009,#845,#846);
#683=AXIS2_PLACEMENT_3D('',#1012,#848,#849);
#684=AXIS2_PLACEMENT_3D('',#1013,#850,#851);
#685=AXIS2_PLACEMENT_3D('',#1016,#853,#854);
#686=AXIS2_PLACEMENT_3D('',#1017,#855,#856);
#687=AXIS2_PLACEMENT_3D('',#1021,#859,#860);
#688=AXIS2_PLACEMENT_3D('',#1025,#863,#864);
#689=AXIS2_PLACEMENT_3D('',#1026,#865,#866);
#690=AXIS2_PLACEMENT_3D('',#1027,#867,#868);
#691=DIRECTION('axis',(0.,0.,1.));
#692=DIRECTION('refdir',(1.,0.,0.));
#693=DIRECTION('center_axis',(-0.707106781186552,0.,0.707106781186543));
#694=DIRECTION('ref_axis',(0.707106781186543,0.,0.707106781186552));
#695=DIRECTION('',(-0.707106781186543,0.,-0.707106781186552));
#696=DIRECTION('',(0.,-1.,0.));
#697=DIRECTION('',(0.707106781186543,0.,0.707106781186552));
#698=DIRECTION('',(0.,1.,0.));
#699=DIRECTION('center_axis',(0.,0.,1.));
#700=DIRECTION('ref_axis',(1.,0.,0.));
#701=DIRECTION('',(-1.,0.,0.));
#702=DIRECTION('',(0.,-1.,0.));
#703=DIRECTION('',(1.,0.,0.));
#704=DIRECTION('center_axis',(0.,1.,0.));
#705=DIRECTION('ref_axis',(1.,0.,0.));
#706=DIRECTION('',(0.,0.,-1.));
#707=DIRECTION('center_axis',(0.,1.,0.));
#708=DIRECTION('ref_axis',(1.,0.,1.2490009027033E-16));
#709=DIRECTION('',(-1.33226762955019E-16,0.,1.));
#710=DIRECTION('',(0.707106781186543,0.,-0.707106781186552));
#711=DIRECTION('center_axis',(0.,1.,0.));
#712=DIRECTION('ref_axis',(0.,0.,-1.));
#713=DIRECTION('center_axis',(0.,1.,0.));
#714=DIRECTION('ref_axis',(0.,0.,-1.));
#715=DIRECTION('center_axis',(0.,1.,0.));
#716=DIRECTION('ref_axis',(0.,0.,-1.));
#717=DIRECTION('center_axis',(0.,1.,0.));
#718=DIRECTION('ref_axis',(0.,0.,-1.));
#719=DIRECTION('center_axis',(0.,1.,0.));
#720=DIRECTION('ref_axis',(0.,0.,-1.));
#721=DIRECTION('center_axis',(0.,1.,0.));
#722=DIRECTION('ref_axis',(0.,0.,-1.));
#723=DIRECTION('center_axis',(0.,1.,0.));
#724=DIRECTION('ref_axis',(0.,0.,-1.));
#725=DIRECTION('center_axis',(0.,1.,0.));
#726=DIRECTION('ref_axis',(0.,0.,-1.));
#727=DIRECTION('center_axis',(0.,1.,0.));
#728=DIRECTION('ref_axis',(0.,0.,-1.));
#729=DIRECTION('center_axis',(0.,1.,0.));
#730=DIRECTION('ref_axis',(0.,0.,-1.));
#731=DIRECTION('center_axis',(0.,1.,0.));
#732=DIRECTION('ref_axis',(0.,0.,-1.));
#733=DIRECTION('center_axis',(0.,1.,0.));
#734=DIRECTION('ref_axis',(0.,0.,-1.));
#735=DIRECTION('center_axis',(0.,1.,0.));
#736=DIRECTION('ref_axis',(0.,0.,-1.));
#737=DIRECTION('center_axis',(0.,1.,0.));
#738=DIRECTION('ref_axis',(0.,0.,-1.));
#739=DIRECTION('center_axis',(0.,1.,0.));
#740=DIRECTION('ref_axis',(0.,0.,-1.));
#741=DIRECTION('center_axis',(0.,1.,0.));
#742=DIRECTION('ref_axis',(0.,0.,-1.));
#743=DIRECTION('center_axis',(0.,1.,0.));
#744=DIRECTION('ref_axis',(0.,0.,-1.));
#745=DIRECTION('center_axis',(0.,1.,0.));
#746=DIRECTION('ref_axis',(0.,0.,-1.));
#747=DIRECTION('center_axis',(0.,-1.,0.));
#748=DIRECTION('ref_axis',(0.,0.,-1.));
#749=DIRECTION('center_axis',(0.,-1.,0.));
#750=DIRECTION('ref_axis',(0.,0.,-1.));
#751=DIRECTION('center_axis',(0.707106781186552,0.,0.707106781186543));
#752=DIRECTION('ref_axis',(0.707106781186543,0.,-0.707106781186552));
#753=DIRECTION('',(-0.707106781186543,0.,0.707106781186552));
#754=DIRECTION('',(0.,1.,0.));
#755=DIRECTION('center_axis',(0.,1.,0.));
#756=DIRECTION('ref_axis',(0.,0.,-1.));
#757=DIRECTION('',(0.,1.,0.));
#758=DIRECTION('center_axis',(0.,-1.,0.));
#759=DIRECTION('ref_axis',(0.,0.,-1.));
#760=DIRECTION('center_axis',(0.,1.,0.));
#761=DIRECTION('ref_axis',(0.,0.,-1.));
#762=DIRECTION('',(0.,1.,0.));
#763=DIRECTION('center_axis',(0.,-1.,0.));
#764=DIRECTION('ref_axis',(0.,0.,-1.));
#765=DIRECTION('center_axis',(0.,1.,0.));
#766=DIRECTION('ref_axis',(0.,0.,-1.));
#767=DIRECTION('',(0.,1.,0.));
#768=DIRECTION('center_axis',(0.,-1.,0.));
#769=DIRECTION('ref_axis',(0.,0.,-1.));
#770=DIRECTION('center_axis',(0.,1.,0.));
#771=DIRECTION('ref_axis',(0.,0.,-1.));
#772=DIRECTION('',(0.,1.,0.));
#773=DIRECTION('center_axis',(0.,-1.,0.));
#774=DIRECTION('ref_axis',(0.,0.,-1.));
#775=DIRECTION('center_axis',(0.,1.,0.));
#776=DIRECTION('ref_axis',(0.,0.,-1.));
#777=DIRECTION('',(0.,1.,0.));
#778=DIRECTION('center_axis',(0.,-1.,0.));
#779=DIRECTION('ref_axis',(0.,0.,-1.));
#780=DIRECTION('center_axis',(0.,1.,0.));
#781=DIRECTION('ref_axis',(0.,0.,-1.));
#782=DIRECTION('',(0.,1.,0.));
#783=DIRECTION('center_axis',(0.,-1.,0.));
#784=DIRECTION('ref_axis',(0.,0.,-1.));
#785=DIRECTION('center_axis',(0.,1.,0.));
#786=DIRECTION('ref_axis',(0.,0.,-1.));
#787=DIRECTION('',(0.,1.,0.));
#788=DIRECTION('center_axis',(0.,-1.,0.));
#789=DIRECTION('ref_axis',(0.,0.,-1.));
#790=DIRECTION('center_axis',(0.,1.,0.));
#791=DIRECTION('ref_axis',(0.,0.,-1.));
#792=DIRECTION('',(0.,1.,0.));
#793=DIRECTION('center_axis',(0.,-1.,0.));
#794=DIRECTION('ref_axis',(0.,0.,-1.));
#795=DIRECTION('center_axis',(0.,1.,0.));
#796=DIRECTION('ref_axis',(0.,0.,-1.));
#797=DIRECTION('',(0.,1.,0.));
#798=DIRECTION('center_axis',(0.,-1.,0.));
#799=DIRECTION('ref_axis',(0.,0.,-1.));
#800=DIRECTION('center_axis',(0.,1.,0.));
#801=DIRECTION('ref_axis',(0.,0.,-1.));
#802=DIRECTION('',(0.,1.,0.));
#803=DIRECTION('center_axis',(0.,-1.,0.));
#804=DIRECTION('ref_axis',(0.,0.,-1.));
#805=DIRECTION('center_axis',(0.,1.,0.));
#806=DIRECTION('ref_axis',(0.,0.,-1.));
#807=DIRECTION('',(0.,1.,0.));
#808=DIRECTION('center_axis',(0.,-1.,0.));
#809=DIRECTION('ref_axis',(0.,0.,-1.));
#810=DIRECTION('center_axis',(0.,1.,0.));
#811=DIRECTION('ref_axis',(0.,0.,-1.));
#812=DIRECTION('',(0.,1.,0.));
#813=DIRECTION('center_axis',(0.,-1.,0.));
#814=DIRECTION('ref_axis',(0.,0.,-1.));
#815=DIRECTION('center_axis',(0.,1.,0.));
#816=DIRECTION('ref_axis',(0.,0.,-1.));
#817=DIRECTION('',(0.,1.,0.));
#818=DIRECTION('center_axis',(0.,-1.,0.));
#819=DIRECTION('ref_axis',(0.,0.,-1.));
#820=DIRECTION('center_axis',(0.,1.,0.));
#821=DIRECTION('ref_axis',(0.,0.,-1.));
#822=DIRECTION('',(0.,1.,0.));
#823=DIRECTION('center_axis',(0.,-1.,0.));
#824=DIRECTION('ref_axis',(0.,0.,-1.));
#825=DIRECTION('center_axis',(0.,1.,0.));
#826=DIRECTION('ref_axis',(0.,0.,-1.));
#827=DIRECTION('',(0.,1.,0.));
#828=DIRECTION('center_axis',(0.,-1.,0.));
#829=DIRECTION('ref_axis',(0.,0.,-1.));
#830=DIRECTION('center_axis',(0.,1.,0.));
#831=DIRECTION('ref_axis',(0.,0.,-1.));
#832=DIRECTION('',(0.,1.,0.));
#833=DIRECTION('center_axis',(0.,-1.,0.));
#834=DIRECTION('ref_axis',(0.,0.,-1.));
#835=DIRECTION('center_axis',(0.,1.,0.));
#836=DIRECTION('ref_axis',(0.,0.,-1.));
#837=DIRECTION('',(0.,1.,0.));
#838=DIRECTION('center_axis',(0.,-1.,0.));
#839=DIRECTION('ref_axis',(0.,0.,-1.));
#840=DIRECTION('center_axis',(0.,1.,0.));
#841=DIRECTION('ref_axis',(0.,0.,-1.));
#842=DIRECTION('',(0.,1.,0.));
#843=DIRECTION('center_axis',(0.,-1.,0.));
#844=DIRECTION('ref_axis',(0.,0.,-1.));
#845=DIRECTION('center_axis',(0.,1.,0.));
#846=DIRECTION('ref_axis',(0.,0.,-1.));
#847=DIRECTION('',(0.,1.,0.));
#848=DIRECTION('center_axis',(0.,-1.,0.));
#849=DIRECTION('ref_axis',(0.,0.,-1.));
#850=DIRECTION('center_axis',(0.,1.,0.));
#851=DIRECTION('ref_axis',(0.,0.,-1.));
#852=DIRECTION('',(0.,1.,0.));
#853=DIRECTION('center_axis',(0.,-1.,0.));
#854=DIRECTION('ref_axis',(0.,0.,-1.));
#855=DIRECTION('center_axis',(1.,0.,1.33226762955019E-16));
#856=DIRECTION('ref_axis',(1.33226762955019E-16,0.,-1.));
#857=DIRECTION('',(0.,1.,0.));
#858=DIRECTION('',(1.33226762955019E-16,0.,-1.));
#859=DIRECTION('center_axis',(-1.,0.,0.));
#860=DIRECTION('ref_axis',(0.,0.,1.));
#861=DIRECTION('',(0.,0.,1.));
#862=DIRECTION('',(0.,1.,0.));
#863=DIRECTION('center_axis',(0.,1.,0.));
#864=DIRECTION('ref_axis',(1.,0.,1.2490009027033E-16));
#865=DIRECTION('center_axis',(0.,1.,0.));
#866=DIRECTION('ref_axis',(1.,0.,1.2490009027033E-16));
#867=DIRECTION('center_axis',(0.,1.,0.));
#868=DIRECTION('ref_axis',(1.,0.,0.));
#869=CARTESIAN_POINT('',(0.,0.,0.));
#870=CARTESIAN_POINT('Origin',(-19.,0.,449.));
#871=CARTESIAN_POINT('',(-18.,15.,450.));
#872=CARTESIAN_POINT('',(-20.,15.,448.));
#873=CARTESIAN_POINT('',(-72.75,15.,395.249999999999));
#874=CARTESIAN_POINT('',(-20.,0.,448.));
#875=CARTESIAN_POINT('',(-20.,0.,448.));
#876=CARTESIAN_POINT('',(-18.,0.,450.));
#877=CARTESIAN_POINT('',(-72.75,0.,395.249999999999));
#878=CARTESIAN_POINT('',(-18.,0.,450.));
#879=CARTESIAN_POINT('Origin',(-20.,0.,450.));
#880=CARTESIAN_POINT('',(17.9999999999999,0.,450.));
#881=CARTESIAN_POINT('',(19.9999999999999,0.,450.));
#882=CARTESIAN_POINT('',(17.9999999999999,15.,450.));
#883=CARTESIAN_POINT('',(17.9999999999999,0.,450.));
#884=CARTESIAN_POINT('',(19.9999999999999,15.,450.));
#885=CARTESIAN_POINT('Origin',(0.,0.,215.));
#886=CARTESIAN_POINT('',(-20.,0.,-5.2248511598576E-15));
#887=CARTESIAN_POINT('',(-20.,0.,450.));
#888=CARTESIAN_POINT('',(20.,0.,2.22044604925031E-15));
#889=CARTESIAN_POINT('Origin',(-5.55111512312578E-16,0.,-2.77555756156289E-16));
#890=CARTESIAN_POINT('',(19.9999999999999,0.,448.));
#891=CARTESIAN_POINT('',(20.,0.,2.22044604925031E-15));
#892=CARTESIAN_POINT('',(72.75,0.,395.249999999999));
#893=CARTESIAN_POINT('',(9.99999999999997,0.,448.5));
#894=CARTESIAN_POINT('Origin',(9.99999999999997,0.,445.));
#895=CARTESIAN_POINT('',(9.99999999999998,0.,423.5));
#896=CARTESIAN_POINT('Origin',(9.99999999999998,0.,420.));
#897=CARTESIAN_POINT('',(9.99999999999998,0.,398.5));
#898=CARTESIAN_POINT('Origin',(9.99999999999998,0.,395.));
#899=CARTESIAN_POINT('',(9.99999999999998,0.,373.5));
#900=CARTESIAN_POINT('Origin',(9.99999999999998,0.,370.));
#901=CARTESIAN_POINT('',(9.99999999999999,0.,348.5));
#902=CARTESIAN_POINT('Origin',(9.99999999999999,0.,345.));
#903=CARTESIAN_POINT('',(9.99999999999999,0.,323.5));
#904=CARTESIAN_POINT('Origin',(9.99999999999999,0.,320.));
#905=CARTESIAN_POINT('',(9.99999999999999,0.,298.5));
#906=CARTESIAN_POINT('Origin',(9.99999999999999,0.,295.));
#907=CARTESIAN_POINT('',(10.,0.,273.5));
#908=CARTESIAN_POINT('Origin',(10.,0.,270.));
#909=CARTESIAN_POINT('',(10.,0.,248.5));
#910=CARTESIAN_POINT('Origin',(10.,0.,245.));
#911=CARTESIAN_POINT('',(-15.,0.,448.5));
#912=CARTESIAN_POINT('Origin',(-15.,0.,445.));
#913=CARTESIAN_POINT('',(-15.,0.,423.5));
#914=CARTESIAN_POINT('Origin',(-15.,0.,420.));
#915=CARTESIAN_POINT('',(-15.,0.,398.5));
#916=CARTESIAN_POINT('Origin',(-15.,0.,395.));
#917=CARTESIAN_POINT('',(-15.,0.,373.5));
#918=CARTESIAN_POINT('Origin',(-15.,0.,370.));
#919=CARTESIAN_POINT('',(-15.,0.,348.5));
#920=CARTESIAN_POINT('Origin',(-15.,0.,345.));
#921=CARTESIAN_POINT('',(-15.,0.,323.5));
#922=CARTESIAN_POINT('Origin',(-15.,0.,320.));
#923=CARTESIAN_POINT('',(-15.,0.,298.5));
#924=CARTESIAN_POINT('Origin',(-15.,0.,295.));
#925=CARTESIAN_POINT('',(-15.,0.,273.5));
#926=CARTESIAN_POINT('Origin',(-15.,0.,270.));
#927=CARTESIAN_POINT('',(-15.,0.,248.5));
#928=CARTESIAN_POINT('Origin',(-15.,0.,245.));
#929=CARTESIAN_POINT('',(-7.4865653275955E-16,0.,207.7631));
#930=CARTESIAN_POINT('Origin',(2.02049023886532E-16,0.,200.));
#931=CARTESIAN_POINT('',(-1.50581706895866E-15,0.,7.7631));
#932=CARTESIAN_POINT('Origin',(-5.55111512312578E-16,0.,-2.77555756156289E-16));
#933=CARTESIAN_POINT('Origin',(18.9999999999999,0.,449.));
#934=CARTESIAN_POINT('',(19.9999999999999,15.,448.));
#935=CARTESIAN_POINT('',(72.75,15.,395.249999999999));
#936=CARTESIAN_POINT('',(19.9999999999999,0.,448.));
#937=CARTESIAN_POINT('Origin',(9.99999999999997,100.,445.));
#938=CARTESIAN_POINT('',(9.99999999999997,15.,448.5));
#939=CARTESIAN_POINT('',(9.99999999999997,100.,448.5));
#940=CARTESIAN_POINT('Origin',(9.99999999999997,15.,445.));
#941=CARTESIAN_POINT('Origin',(9.99999999999998,100.,420.));
#942=CARTESIAN_POINT('',(9.99999999999998,15.,423.5));
#943=CARTESIAN_POINT('',(9.99999999999998,100.,423.5));
#944=CARTESIAN_POINT('Origin',(9.99999999999998,15.,420.));
#945=CARTESIAN_POINT('Origin',(9.99999999999998,100.,395.));
#946=CARTESIAN_POINT('',(9.99999999999998,15.,398.5));
#947=CARTESIAN_POINT('',(9.99999999999998,100.,398.5));
#948=CARTESIAN_POINT('Origin',(9.99999999999998,15.,395.));
#949=CARTESIAN_POINT('Origin',(9.99999999999998,100.,370.));
#950=CARTESIAN_POINT('',(9.99999999999998,15.,373.5));
#951=CARTESIAN_POINT('',(9.99999999999998,100.,373.5));
#952=CARTESIAN_POINT('Origin',(9.99999999999998,15.,370.));
#953=CARTESIAN_POINT('Origin',(9.99999999999999,100.,345.));
#954=CARTESIAN_POINT('',(9.99999999999999,15.,348.5));
#955=CARTESIAN_POINT('',(9.99999999999999,100.,348.5));
#956=CARTESIAN_POINT('Origin',(9.99999999999999,15.,345.));
#957=CARTESIAN_POINT('Origin',(9.99999999999999,100.,320.));
#958=CARTESIAN_POINT('',(9.99999999999999,15.,323.5));
#959=CARTESIAN_POINT('',(9.99999999999999,100.,323.5));
#960=CARTESIAN_POINT('Origin',(9.99999999999999,15.,320.));
#961=CARTESIAN_POINT('Origin',(9.99999999999999,100.,295.));
#962=CARTESIAN_POINT('',(9.99999999999999,15.,298.5));
#963=CARTESIAN_POINT('',(9.99999999999999,100.,298.5));
#964=CARTESIAN_POINT('Origin',(9.99999999999999,15.,295.));
#965=CARTESIAN_POINT('Origin',(10.,100.,270.));
#966=CARTESIAN_POINT('',(10.,15.,273.5));
#967=CARTESIAN_POINT('',(10.,100.,273.5));
#968=CARTESIAN_POINT('Origin',(10.,15.,270.));
#969=CARTESIAN_POINT('Origin',(10.,100.,245.));
#970=CARTESIAN_POINT('',(10.,15.,248.5));
#971=CARTESIAN_POINT('',(10.,100.,248.5));
#972=CARTESIAN_POINT('Origin',(10.,15.,245.));
#973=CARTESIAN_POINT('Origin',(-15.,100.,445.));
#974=CARTESIAN_POINT('',(-15.,15.,448.5));
#975=CARTESIAN_POINT('',(-15.,100.,448.5));
#976=CARTESIAN_POINT('Origin',(-15.,15.,445.));
#977=CARTESIAN_POINT('Origin',(-15.,100.,420.));
#978=CARTESIAN_POINT('',(-15.,15.,423.5));
#979=CARTESIAN_POINT('',(-15.,100.,423.5));
#980=CARTESIAN_POINT('Origin',(-15.,15.,420.));
#981=CARTESIAN_POINT('Origin',(-15.,100.,395.));
#982=CARTESIAN_POINT('',(-15.,15.,398.5));
#983=CARTESIAN_POINT('',(-15.,100.,398.5));
#984=CARTESIAN_POINT('Origin',(-15.,15.,395.));
#985=CARTESIAN_POINT('Origin',(-15.,100.,370.));
#986=CARTESIAN_POINT('',(-15.,15.,373.5));
#987=CARTESIAN_POINT('',(-15.,100.,373.5));
#988=CARTESIAN_POINT('Origin',(-15.,15.,370.));
#989=CARTESIAN_POINT('Origin',(-15.,100.,345.));
#990=CARTESIAN_POINT('',(-15.,15.,348.5));
#991=CARTESIAN_POINT('',(-15.,100.,348.5));
#992=CARTESIAN_POINT('Origin',(-15.,15.,345.));
#993=CARTESIAN_POINT('Origin',(-15.,100.,320.));
#994=CARTESIAN_POINT('',(-15.,15.,323.5));
#995=CARTESIAN_POINT('',(-15.,100.,323.5));
#996=CARTESIAN_POINT('Origin',(-15.,15.,320.));
#997=CARTESIAN_POINT('Origin',(-15.,100.,295.));
#998=CARTESIAN_POINT('',(-15.,15.,298.5));
#999=CARTESIAN_POINT('',(-15.,100.,298.5));
#1000=CARTESIAN_POINT('Origin',(-15.,15.,295.));
#1001=CARTESIAN_POINT('Origin',(-15.,100.,270.));
#1002=CARTESIAN_POINT('',(-15.,15.,273.5));
#1003=CARTESIAN_POINT('',(-15.,100.,273.5));
#1004=CARTESIAN_POINT('Origin',(-15.,15.,270.));
#1005=CARTESIAN_POINT('Origin',(-15.,100.,245.));
#1006=CARTESIAN_POINT('',(-15.,15.,248.5));
#1007=CARTESIAN_POINT('',(-15.,100.,248.5));
#1008=CARTESIAN_POINT('Origin',(-15.,15.,245.));
#1009=CARTESIAN_POINT('Origin',(2.02049023886532E-16,100.,200.));
#1010=CARTESIAN_POINT('',(-7.4865653275955E-16,15.,207.7631));
#1011=CARTESIAN_POINT('',(1.15275458053261E-15,100.,207.7631));
#1012=CARTESIAN_POINT('Origin',(2.02049023886532E-16,15.,200.));
#1013=CARTESIAN_POINT('Origin',(-5.55111512312578E-16,100.,-2.77555756156289E-16));
#1014=CARTESIAN_POINT('',(-1.50581706895866E-15,15.,7.7631));
#1015=CARTESIAN_POINT('',(3.95594044333504E-16,100.,7.7631));
#1016=CARTESIAN_POINT('Origin',(-5.55111512312578E-16,15.,-2.77555756156289E-16));
#1017=CARTESIAN_POINT('Origin',(19.9999999999999,0.,450.));
#1018=CARTESIAN_POINT('',(20.,15.,2.22044604925031E-15));
#1019=CARTESIAN_POINT('',(20.,0.,2.22044604925031E-15));
#1020=CARTESIAN_POINT('',(20.,15.,2.22044604925031E-15));
#1021=CARTESIAN_POINT('Origin',(-20.,0.,0.));
#1022=CARTESIAN_POINT('',(-20.,15.,-5.2248511598576E-15));
#1023=CARTESIAN_POINT('',(-20.,15.,450.));
#1024=CARTESIAN_POINT('',(-20.,0.,-5.2248511598576E-15));
#1025=CARTESIAN_POINT('Origin',(-5.55111512312578E-16,0.,-2.77555756156289E-16));
#1026=CARTESIAN_POINT('Origin',(-5.55111512312578E-16,15.,-2.77555756156289E-16));
#1027=CARTESIAN_POINT('Origin',(0.,15.,215.));
#1028=UNCERTAINTY_MEASURE_WITH_UNIT(LENGTH_MEASURE(0.01),#1032,
'DISTANCE_ACCURACY_VALUE',
'Maximum model space distance between geometric entities at asserted c
onnectivities');
#1029=UNCERTAINTY_MEASURE_WITH_UNIT(LENGTH_MEASURE(0.01),#1032,
'DISTANCE_ACCURACY_VALUE',
'Maximum model space distance between geometric entities at asserted c
onnectivities');
#1030=(
GEOMETRIC_REPRESENTATION_CONTEXT(3)
GLOBAL_UNCERTAINTY_ASSIGNED_CONTEXT((#1028))
GLOBAL_UNIT_ASSIGNED_CONTEXT((#1032,#1034,#1035))
REPRESENTATION_CONTEXT('','3D')
);
#1031=(
GEOMETRIC_REPRESENTATION_CONTEXT(3)
GLOBAL_UNCERTAINTY_ASSIGNED_CONTEXT((#1029))
GLOBAL_UNIT_ASSIGNED_CONTEXT((#1032,#1034,#1035))
REPRESENTATION_CONTEXT('','3D')
);
#1032=(
LENGTH_UNIT()
NAMED_UNIT(*)
SI_UNIT(.MILLI.,.METRE.)
);
#1033=(
LENGTH_UNIT()
NAMED_UNIT(*)
SI_UNIT($,.METRE.)
);
#1034=(
NAMED_UNIT(*)
PLANE_ANGLE_UNIT()
SI_UNIT($,.RADIAN.)
);
#1035=(
NAMED_UNIT(*)
SI_UNIT($,.STERADIAN.)
SOLID_ANGLE_UNIT()
);
#1036=SHAPE_DEFINITION_REPRESENTATION(#1037,#1038);
#1037=PRODUCT_DEFINITION_SHAPE('',$,#1040);
#1038=SHAPE_REPRESENTATION('',(#620),#1030);
#1039=PRODUCT_DEFINITION_CONTEXT('part definition',#1044,'design');
#1040=PRODUCT_DEFINITION('chamber brackets','chamber brackets v6',#1041,
#1039);
#1041=PRODUCT_DEFINITION_FORMATION('',$,#1046);
#1042=PRODUCT_RELATED_PRODUCT_CATEGORY('chamber brackets v6',
'chamber brackets v6',(#1046));
#1043=APPLICATION_PROTOCOL_DEFINITION('international standard',
'automotive_design',2009,#1044);
#1044=APPLICATION_CONTEXT(
'Core Data for Automotive Mechanical Design Process');
#1045=PRODUCT_CONTEXT('part definition',#1044,'mechanical');
#1046=PRODUCT('chamber brackets','chamber brackets v6',$,(#1045));
#1047=PRESENTATION_STYLE_ASSIGNMENT((#1048));
#1048=SURFACE_STYLE_USAGE(.BOTH.,#1049);
#1049=SURFACE_SIDE_STYLE('',(#1050));
#1050=SURFACE_STYLE_FILL_AREA(#1051);
#1051=FILL_AREA_STYLE('Steel - Satin',(#1052));
#1052=FILL_AREA_STYLE_COLOUR('Steel - Satin',#1053);
#1053=COLOUR_RGB('Steel - Satin',0.627450980392157,0.627450980392157,0.627450980392157);
ENDSEC;
END-ISO-10303-21;
