ISO-10303-21;
HEADER;
/* Generated by software containing ST-Developer
 * from STEP Tools, Inc. (www.steptools.com) 
 */

FILE_DESCRIPTION(
/* description */ (''),
/* implementation_level */ '2;1');

FILE_NAME(
/* name */ 'BC carousel holder plate (pls rename) v4.step',
/* time_stamp */ '2024-06-12T14:04:31+02:00',
/* author */ (''),
/* organization */ (''),
/* preprocessor_version */ 'ST-DEVELOPER v20',
/* originating_system */ 'Autodesk Translation Framework v13.14.0.145',

/* authorisation */ '');

FILE_SCHEMA (('AUTOMOTIVE_DESIGN { 1 0 10303 214 3 1 1 }'));
ENDSEC;

DATA;
#10=MECHANICAL_DESIGN_GEOMETRIC_PRESENTATION_REPRESENTATION('',(#13),#933);
#11=SHAPE_REPRESENTATION_RELATIONSHIP('SRR','None',#940,#12);
#12=ADVANCED_BREP_SHAPE_REPRESENTATION('',(#14),#932);
#13=STYLED_ITEM('',(#949),#14);
#14=MANIFOLD_SOLID_BREP('Body1',#565);
#15=FACE_BOUND('',#100,.T.);
#16=FACE_BOUND('',#108,.T.);
#17=FACE_BOUND('',#114,.T.);
#18=FACE_BOUND('',#115,.T.);
#19=FACE_BOUND('',#116,.T.);
#20=FACE_BOUND('',#117,.T.);
#21=FACE_BOUND('',#118,.T.);
#22=FACE_BOUND('',#119,.T.);
#23=FACE_BOUND('',#121,.T.);
#24=FACE_BOUND('',#122,.T.);
#25=FACE_BOUND('',#123,.T.);
#26=FACE_BOUND('',#124,.T.);
#27=FACE_BOUND('',#125,.T.);
#28=FACE_BOUND('',#126,.T.);
#29=PLANE('',#605);
#30=PLANE('',#606);
#31=PLANE('',#607);
#32=PLANE('',#608);
#33=PLANE('',#609);
#34=PLANE('',#610);
#35=PLANE('',#611);
#36=PLANE('',#612);
#37=PLANE('',#613);
#38=PLANE('',#614);
#39=PLANE('',#615);
#40=PLANE('',#616);
#41=PLANE('',#617);
#42=PLANE('',#618);
#43=PLANE('',#619);
#44=PLANE('',#620);
#45=PLANE('',#621);
#46=PLANE('',#622);
#47=PLANE('',#623);
#48=PLANE('',#624);
#49=CONICAL_SURFACE('',#585,3.025,0.785398163397448);
#50=CONICAL_SURFACE('',#590,3.025,0.785398163397448);
#51=CONICAL_SURFACE('',#595,3.025,0.785398163397448);
#52=CONICAL_SURFACE('',#600,3.025,0.785398163397448);
#53=FACE_OUTER_BOUND('',#83,.T.);
#54=FACE_OUTER_BOUND('',#84,.T.);
#55=FACE_OUTER_BOUND('',#85,.T.);
#56=FACE_OUTER_BOUND('',#86,.T.);
#57=FACE_OUTER_BOUND('',#87,.T.);
#58=FACE_OUTER_BOUND('',#88,.T.);
#59=FACE_OUTER_BOUND('',#89,.T.);
#60=FACE_OUTER_BOUND('',#90,.T.);
#61=FACE_OUTER_BOUND('',#91,.T.);
#62=FACE_OUTER_BOUND('',#92,.T.);
#63=FACE_OUTER_BOUND('',#93,.T.);
#64=FACE_OUTER_BOUND('',#94,.T.);
#65=FACE_OUTER_BOUND('',#95,.T.);
#66=FACE_OUTER_BOUND('',#96,.T.);
#67=FACE_OUTER_BOUND('',#97,.T.);
#68=FACE_OUTER_BOUND('',#98,.T.);
#69=FACE_OUTER_BOUND('',#99,.T.);
#70=FACE_OUTER_BOUND('',#101,.T.);
#71=FACE_OUTER_BOUND('',#102,.T.);
#72=FACE_OUTER_BOUND('',#103,.T.);
#73=FACE_OUTER_BOUND('',#104,.T.);
#74=FACE_OUTER_BOUND('',#105,.T.);
#75=FACE_OUTER_BOUND('',#106,.T.);
#76=FACE_OUTER_BOUND('',#107,.T.);
#77=FACE_OUTER_BOUND('',#109,.T.);
#78=FACE_OUTER_BOUND('',#110,.T.);
#79=FACE_OUTER_BOUND('',#111,.T.);
#80=FACE_OUTER_BOUND('',#112,.T.);
#81=FACE_OUTER_BOUND('',#113,.T.);
#82=FACE_OUTER_BOUND('',#120,.T.);
#83=EDGE_LOOP('',(#381,#382,#383,#384));
#84=EDGE_LOOP('',(#385,#386,#387,#388));
#85=EDGE_LOOP('',(#389,#390,#391,#392));
#86=EDGE_LOOP('',(#393,#394,#395,#396));
#87=EDGE_LOOP('',(#397,#398,#399,#400));
#88=EDGE_LOOP('',(#401,#402,#403,#404));
#89=EDGE_LOOP('',(#405,#406,#407,#408));
#90=EDGE_LOOP('',(#409,#410,#411,#412));
#91=EDGE_LOOP('',(#413,#414,#415,#416));
#92=EDGE_LOOP('',(#417,#418,#419,#420));
#93=EDGE_LOOP('',(#421,#422,#423,#424));
#94=EDGE_LOOP('',(#425,#426,#427,#428));
#95=EDGE_LOOP('',(#429,#430,#431,#432));
#96=EDGE_LOOP('',(#433,#434,#435,#436));
#97=EDGE_LOOP('',(#437,#438,#439,#440));
#98=EDGE_LOOP('',(#441,#442,#443,#444));
#99=EDGE_LOOP('',(#445,#446,#447,#448,#449,#450));
#100=EDGE_LOOP('',(#451));
#101=EDGE_LOOP('',(#452,#453,#454,#455));
#102=EDGE_LOOP('',(#456,#457,#458,#459));
#103=EDGE_LOOP('',(#460,#461,#462,#463));
#104=EDGE_LOOP('',(#464,#465,#466,#467));
#105=EDGE_LOOP('',(#468,#469,#470,#471));
#106=EDGE_LOOP('',(#472,#473,#474,#475));
#107=EDGE_LOOP('',(#476,#477,#478,#479,#480,#481));
#108=EDGE_LOOP('',(#482));
#109=EDGE_LOOP('',(#483,#484,#485,#486));
#110=EDGE_LOOP('',(#487,#488,#489,#490));
#111=EDGE_LOOP('',(#491,#492,#493,#494));
#112=EDGE_LOOP('',(#495,#496,#497,#498));
#113=EDGE_LOOP('',(#499,#500,#501,#502));
#114=EDGE_LOOP('',(#503));
#115=EDGE_LOOP('',(#504));
#116=EDGE_LOOP('',(#505));
#117=EDGE_LOOP('',(#506));
#118=EDGE_LOOP('',(#507));
#119=EDGE_LOOP('',(#508));
#120=EDGE_LOOP('',(#509,#510,#511,#512));
#121=EDGE_LOOP('',(#513));
#122=EDGE_LOOP('',(#514));
#123=EDGE_LOOP('',(#515));
#124=EDGE_LOOP('',(#516));
#125=EDGE_LOOP('',(#517,#518,#519,#520,#521,#522));
#126=EDGE_LOOP('',(#523,#524,#525,#526,#527,#528));
#127=LINE('',#782,#185);
#128=LINE('',#788,#186);
#129=LINE('',#794,#187);
#130=LINE('',#798,#188);
#131=LINE('',#804,#189);
#132=LINE('',#808,#190);
#133=LINE('',#814,#191);
#134=LINE('',#818,#192);
#135=LINE('',#824,#193);
#136=LINE('',#828,#194);
#137=LINE('',#833,#195);
#138=LINE('',#835,#196);
#139=LINE('',#837,#197);
#140=LINE('',#838,#198);
#141=LINE('',#841,#199);
#142=LINE('',#843,#200);
#143=LINE('',#844,#201);
#144=LINE('',#847,#202);
#145=LINE('',#849,#203);
#146=LINE('',#850,#204);
#147=LINE('',#853,#205);
#148=LINE('',#855,#206);
#149=LINE('',#856,#207);
#150=LINE('',#859,#208);
#151=LINE('',#861,#209);
#152=LINE('',#862,#210);
#153=LINE('',#864,#211);
#154=LINE('',#865,#212);
#155=LINE('',#870,#213);
#156=LINE('',#872,#214);
#157=LINE('',#874,#215);
#158=LINE('',#875,#216);
#159=LINE('',#878,#217);
#160=LINE('',#880,#218);
#161=LINE('',#881,#219);
#162=LINE('',#884,#220);
#163=LINE('',#886,#221);
#164=LINE('',#887,#222);
#165=LINE('',#890,#223);
#166=LINE('',#892,#224);
#167=LINE('',#893,#225);
#168=LINE('',#896,#226);
#169=LINE('',#898,#227);
#170=LINE('',#899,#228);
#171=LINE('',#901,#229);
#172=LINE('',#902,#230);
#173=LINE('',#907,#231);
#174=LINE('',#909,#232);
#175=LINE('',#911,#233);
#176=LINE('',#912,#234);
#177=LINE('',#915,#235);
#178=LINE('',#917,#236);
#179=LINE('',#918,#237);
#180=LINE('',#921,#238);
#181=LINE('',#923,#239);
#182=LINE('',#924,#240);
#183=LINE('',#926,#241);
#184=LINE('',#927,#242);
#185=VECTOR('',#631,3.);
#186=VECTOR('',#638,3.);
#187=VECTOR('',#645,3.025);
#188=VECTOR('',#650,2.05);
#189=VECTOR('',#657,3.025);
#190=VECTOR('',#662,2.05);
#191=VECTOR('',#669,3.025);
#192=VECTOR('',#674,2.05);
#193=VECTOR('',#681,3.025);
#194=VECTOR('',#686,2.05);
#195=VECTOR('',#691,10.);
#196=VECTOR('',#692,10.);
#197=VECTOR('',#693,10.);
#198=VECTOR('',#694,10.);
#199=VECTOR('',#697,10.);
#200=VECTOR('',#698,10.);
#201=VECTOR('',#699,10.);
#202=VECTOR('',#702,10.);
#203=VECTOR('',#703,10.);
#204=VECTOR('',#704,10.);
#205=VECTOR('',#707,10.);
#206=VECTOR('',#708,10.);
#207=VECTOR('',#709,10.);
#208=VECTOR('',#712,10.);
#209=VECTOR('',#713,10.);
#210=VECTOR('',#714,10.);
#211=VECTOR('',#717,10.);
#212=VECTOR('',#718,10.);
#213=VECTOR('',#723,10.);
#214=VECTOR('',#724,10.);
#215=VECTOR('',#725,10.);
#216=VECTOR('',#726,10.);
#217=VECTOR('',#729,10.);
#218=VECTOR('',#730,10.);
#219=VECTOR('',#731,10.);
#220=VECTOR('',#734,10.);
#221=VECTOR('',#735,10.);
#222=VECTOR('',#736,10.);
#223=VECTOR('',#739,10.);
#224=VECTOR('',#740,10.);
#225=VECTOR('',#741,10.);
#226=VECTOR('',#744,10.);
#227=VECTOR('',#745,10.);
#228=VECTOR('',#746,10.);
#229=VECTOR('',#749,10.);
#230=VECTOR('',#750,10.);
#231=VECTOR('',#755,10.);
#232=VECTOR('',#756,10.);
#233=VECTOR('',#757,10.);
#234=VECTOR('',#758,10.);
#235=VECTOR('',#761,10.);
#236=VECTOR('',#762,10.);
#237=VECTOR('',#763,10.);
#238=VECTOR('',#766,10.);
#239=VECTOR('',#767,10.);
#240=VECTOR('',#768,10.);
#241=VECTOR('',#771,10.);
#242=VECTOR('',#772,10.);
#243=CIRCLE('',#580,3.);
#244=CIRCLE('',#581,3.);
#245=CIRCLE('',#583,3.);
#246=CIRCLE('',#584,3.);
#247=CIRCLE('',#586,4.);
#248=CIRCLE('',#587,2.05);
#249=CIRCLE('',#589,2.05);
#250=CIRCLE('',#591,4.);
#251=CIRCLE('',#592,2.05);
#252=CIRCLE('',#594,2.05);
#253=CIRCLE('',#596,4.);
#254=CIRCLE('',#597,2.05);
#255=CIRCLE('',#599,2.05);
#256=CIRCLE('',#601,4.);
#257=CIRCLE('',#602,2.05);
#258=CIRCLE('',#604,2.05);
#259=VERTEX_POINT('',#779);
#260=VERTEX_POINT('',#781);
#261=VERTEX_POINT('',#785);
#262=VERTEX_POINT('',#787);
#263=VERTEX_POINT('',#791);
#264=VERTEX_POINT('',#793);
#265=VERTEX_POINT('',#797);
#266=VERTEX_POINT('',#801);
#267=VERTEX_POINT('',#803);
#268=VERTEX_POINT('',#807);
#269=VERTEX_POINT('',#811);
#270=VERTEX_POINT('',#813);
#271=VERTEX_POINT('',#817);
#272=VERTEX_POINT('',#821);
#273=VERTEX_POINT('',#823);
#274=VERTEX_POINT('',#827);
#275=VERTEX_POINT('',#831);
#276=VERTEX_POINT('',#832);
#277=VERTEX_POINT('',#834);
#278=VERTEX_POINT('',#836);
#279=VERTEX_POINT('',#840);
#280=VERTEX_POINT('',#842);
#281=VERTEX_POINT('',#846);
#282=VERTEX_POINT('',#848);
#283=VERTEX_POINT('',#852);
#284=VERTEX_POINT('',#854);
#285=VERTEX_POINT('',#858);
#286=VERTEX_POINT('',#860);
#287=VERTEX_POINT('',#868);
#288=VERTEX_POINT('',#869);
#289=VERTEX_POINT('',#871);
#290=VERTEX_POINT('',#873);
#291=VERTEX_POINT('',#877);
#292=VERTEX_POINT('',#879);
#293=VERTEX_POINT('',#883);
#294=VERTEX_POINT('',#885);
#295=VERTEX_POINT('',#889);
#296=VERTEX_POINT('',#891);
#297=VERTEX_POINT('',#895);
#298=VERTEX_POINT('',#897);
#299=VERTEX_POINT('',#905);
#300=VERTEX_POINT('',#906);
#301=VERTEX_POINT('',#908);
#302=VERTEX_POINT('',#910);
#303=VERTEX_POINT('',#914);
#304=VERTEX_POINT('',#916);
#305=VERTEX_POINT('',#920);
#306=VERTEX_POINT('',#922);
#307=EDGE_CURVE('',#259,#259,#243,.T.);
#308=EDGE_CURVE('',#259,#260,#127,.T.);
#309=EDGE_CURVE('',#260,#260,#244,.T.);
#310=EDGE_CURVE('',#261,#261,#245,.T.);
#311=EDGE_CURVE('',#261,#262,#128,.T.);
#312=EDGE_CURVE('',#262,#262,#246,.T.);
#313=EDGE_CURVE('',#263,#263,#247,.T.);
#314=EDGE_CURVE('',#263,#264,#129,.T.);
#315=EDGE_CURVE('',#264,#264,#248,.T.);
#316=EDGE_CURVE('',#264,#265,#130,.T.);
#317=EDGE_CURVE('',#265,#265,#249,.T.);
#318=EDGE_CURVE('',#266,#266,#250,.T.);
#319=EDGE_CURVE('',#266,#267,#131,.T.);
#320=EDGE_CURVE('',#267,#267,#251,.T.);
#321=EDGE_CURVE('',#267,#268,#132,.T.);
#322=EDGE_CURVE('',#268,#268,#252,.T.);
#323=EDGE_CURVE('',#269,#269,#253,.T.);
#324=EDGE_CURVE('',#269,#270,#133,.T.);
#325=EDGE_CURVE('',#270,#270,#254,.T.);
#326=EDGE_CURVE('',#270,#271,#134,.T.);
#327=EDGE_CURVE('',#271,#271,#255,.T.);
#328=EDGE_CURVE('',#272,#272,#256,.T.);
#329=EDGE_CURVE('',#272,#273,#135,.T.);
#330=EDGE_CURVE('',#273,#273,#257,.T.);
#331=EDGE_CURVE('',#273,#274,#136,.T.);
#332=EDGE_CURVE('',#274,#274,#258,.T.);
#333=EDGE_CURVE('',#275,#276,#137,.T.);
#334=EDGE_CURVE('',#275,#277,#138,.T.);
#335=EDGE_CURVE('',#277,#278,#139,.T.);
#336=EDGE_CURVE('',#276,#278,#140,.T.);
#337=EDGE_CURVE('',#279,#275,#141,.T.);
#338=EDGE_CURVE('',#279,#280,#142,.T.);
#339=EDGE_CURVE('',#280,#277,#143,.T.);
#340=EDGE_CURVE('',#281,#279,#144,.T.);
#341=EDGE_CURVE('',#281,#282,#145,.T.);
#342=EDGE_CURVE('',#282,#280,#146,.T.);
#343=EDGE_CURVE('',#283,#281,#147,.T.);
#344=EDGE_CURVE('',#283,#284,#148,.T.);
#345=EDGE_CURVE('',#284,#282,#149,.T.);
#346=EDGE_CURVE('',#285,#283,#150,.T.);
#347=EDGE_CURVE('',#285,#286,#151,.T.);
#348=EDGE_CURVE('',#286,#284,#152,.T.);
#349=EDGE_CURVE('',#276,#285,#153,.T.);
#350=EDGE_CURVE('',#278,#286,#154,.T.);
#351=EDGE_CURVE('',#287,#288,#155,.T.);
#352=EDGE_CURVE('',#287,#289,#156,.T.);
#353=EDGE_CURVE('',#289,#290,#157,.T.);
#354=EDGE_CURVE('',#288,#290,#158,.T.);
#355=EDGE_CURVE('',#291,#287,#159,.T.);
#356=EDGE_CURVE('',#291,#292,#160,.T.);
#357=EDGE_CURVE('',#292,#289,#161,.T.);
#358=EDGE_CURVE('',#293,#291,#162,.T.);
#359=EDGE_CURVE('',#293,#294,#163,.T.);
#360=EDGE_CURVE('',#294,#292,#164,.T.);
#361=EDGE_CURVE('',#295,#293,#165,.T.);
#362=EDGE_CURVE('',#295,#296,#166,.T.);
#363=EDGE_CURVE('',#296,#294,#167,.T.);
#364=EDGE_CURVE('',#297,#295,#168,.T.);
#365=EDGE_CURVE('',#297,#298,#169,.T.);
#366=EDGE_CURVE('',#298,#296,#170,.T.);
#367=EDGE_CURVE('',#288,#297,#171,.T.);
#368=EDGE_CURVE('',#290,#298,#172,.T.);
#369=EDGE_CURVE('',#299,#300,#173,.T.);
#370=EDGE_CURVE('',#300,#301,#174,.T.);
#371=EDGE_CURVE('',#302,#301,#175,.T.);
#372=EDGE_CURVE('',#299,#302,#176,.T.);
#373=EDGE_CURVE('',#299,#303,#177,.T.);
#374=EDGE_CURVE('',#304,#302,#178,.T.);
#375=EDGE_CURVE('',#303,#304,#179,.T.);
#376=EDGE_CURVE('',#305,#303,#180,.T.);
#377=EDGE_CURVE('',#306,#304,#181,.T.);
#378=EDGE_CURVE('',#305,#306,#182,.T.);
#379=EDGE_CURVE('',#305,#300,#183,.T.);
#380=EDGE_CURVE('',#301,#306,#184,.T.);
#381=ORIENTED_EDGE('',*,*,#307,.F.);
#382=ORIENTED_EDGE('',*,*,#308,.T.);
#383=ORIENTED_EDGE('',*,*,#309,.F.);
#384=ORIENTED_EDGE('',*,*,#308,.F.);
#385=ORIENTED_EDGE('',*,*,#310,.F.);
#386=ORIENTED_EDGE('',*,*,#311,.T.);
#387=ORIENTED_EDGE('',*,*,#312,.F.);
#388=ORIENTED_EDGE('',*,*,#311,.F.);
#389=ORIENTED_EDGE('',*,*,#313,.F.);
#390=ORIENTED_EDGE('',*,*,#314,.T.);
#391=ORIENTED_EDGE('',*,*,#315,.T.);
#392=ORIENTED_EDGE('',*,*,#314,.F.);
#393=ORIENTED_EDGE('',*,*,#315,.F.);
#394=ORIENTED_EDGE('',*,*,#316,.T.);
#395=ORIENTED_EDGE('',*,*,#317,.F.);
#396=ORIENTED_EDGE('',*,*,#316,.F.);
#397=ORIENTED_EDGE('',*,*,#318,.F.);
#398=ORIENTED_EDGE('',*,*,#319,.T.);
#399=ORIENTED_EDGE('',*,*,#320,.T.);
#400=ORIENTED_EDGE('',*,*,#319,.F.);
#401=ORIENTED_EDGE('',*,*,#320,.F.);
#402=ORIENTED_EDGE('',*,*,#321,.T.);
#403=ORIENTED_EDGE('',*,*,#322,.F.);
#404=ORIENTED_EDGE('',*,*,#321,.F.);
#405=ORIENTED_EDGE('',*,*,#323,.F.);
#406=ORIENTED_EDGE('',*,*,#324,.T.);
#407=ORIENTED_EDGE('',*,*,#325,.T.);
#408=ORIENTED_EDGE('',*,*,#324,.F.);
#409=ORIENTED_EDGE('',*,*,#325,.F.);
#410=ORIENTED_EDGE('',*,*,#326,.T.);
#411=ORIENTED_EDGE('',*,*,#327,.F.);
#412=ORIENTED_EDGE('',*,*,#326,.F.);
#413=ORIENTED_EDGE('',*,*,#328,.F.);
#414=ORIENTED_EDGE('',*,*,#329,.T.);
#415=ORIENTED_EDGE('',*,*,#330,.T.);
#416=ORIENTED_EDGE('',*,*,#329,.F.);
#417=ORIENTED_EDGE('',*,*,#330,.F.);
#418=ORIENTED_EDGE('',*,*,#331,.T.);
#419=ORIENTED_EDGE('',*,*,#332,.F.);
#420=ORIENTED_EDGE('',*,*,#331,.F.);
#421=ORIENTED_EDGE('',*,*,#333,.F.);
#422=ORIENTED_EDGE('',*,*,#334,.T.);
#423=ORIENTED_EDGE('',*,*,#335,.T.);
#424=ORIENTED_EDGE('',*,*,#336,.F.);
#425=ORIENTED_EDGE('',*,*,#337,.F.);
#426=ORIENTED_EDGE('',*,*,#338,.T.);
#427=ORIENTED_EDGE('',*,*,#339,.T.);
#428=ORIENTED_EDGE('',*,*,#334,.F.);
#429=ORIENTED_EDGE('',*,*,#340,.F.);
#430=ORIENTED_EDGE('',*,*,#341,.T.);
#431=ORIENTED_EDGE('',*,*,#342,.T.);
#432=ORIENTED_EDGE('',*,*,#338,.F.);
#433=ORIENTED_EDGE('',*,*,#343,.F.);
#434=ORIENTED_EDGE('',*,*,#344,.T.);
#435=ORIENTED_EDGE('',*,*,#345,.T.);
#436=ORIENTED_EDGE('',*,*,#341,.F.);
#437=ORIENTED_EDGE('',*,*,#346,.F.);
#438=ORIENTED_EDGE('',*,*,#347,.T.);
#439=ORIENTED_EDGE('',*,*,#348,.T.);
#440=ORIENTED_EDGE('',*,*,#344,.F.);
#441=ORIENTED_EDGE('',*,*,#349,.F.);
#442=ORIENTED_EDGE('',*,*,#336,.T.);
#443=ORIENTED_EDGE('',*,*,#350,.T.);
#444=ORIENTED_EDGE('',*,*,#347,.F.);
#445=ORIENTED_EDGE('',*,*,#350,.F.);
#446=ORIENTED_EDGE('',*,*,#335,.F.);
#447=ORIENTED_EDGE('',*,*,#339,.F.);
#448=ORIENTED_EDGE('',*,*,#342,.F.);
#449=ORIENTED_EDGE('',*,*,#345,.F.);
#450=ORIENTED_EDGE('',*,*,#348,.F.);
#451=ORIENTED_EDGE('',*,*,#310,.T.);
#452=ORIENTED_EDGE('',*,*,#351,.F.);
#453=ORIENTED_EDGE('',*,*,#352,.T.);
#454=ORIENTED_EDGE('',*,*,#353,.T.);
#455=ORIENTED_EDGE('',*,*,#354,.F.);
#456=ORIENTED_EDGE('',*,*,#355,.F.);
#457=ORIENTED_EDGE('',*,*,#356,.T.);
#458=ORIENTED_EDGE('',*,*,#357,.T.);
#459=ORIENTED_EDGE('',*,*,#352,.F.);
#460=ORIENTED_EDGE('',*,*,#358,.F.);
#461=ORIENTED_EDGE('',*,*,#359,.T.);
#462=ORIENTED_EDGE('',*,*,#360,.T.);
#463=ORIENTED_EDGE('',*,*,#356,.F.);
#464=ORIENTED_EDGE('',*,*,#361,.F.);
#465=ORIENTED_EDGE('',*,*,#362,.T.);
#466=ORIENTED_EDGE('',*,*,#363,.T.);
#467=ORIENTED_EDGE('',*,*,#359,.F.);
#468=ORIENTED_EDGE('',*,*,#364,.F.);
#469=ORIENTED_EDGE('',*,*,#365,.T.);
#470=ORIENTED_EDGE('',*,*,#366,.T.);
#471=ORIENTED_EDGE('',*,*,#362,.F.);
#472=ORIENTED_EDGE('',*,*,#367,.F.);
#473=ORIENTED_EDGE('',*,*,#354,.T.);
#474=ORIENTED_EDGE('',*,*,#368,.T.);
#475=ORIENTED_EDGE('',*,*,#365,.F.);
#476=ORIENTED_EDGE('',*,*,#368,.F.);
#477=ORIENTED_EDGE('',*,*,#353,.F.);
#478=ORIENTED_EDGE('',*,*,#357,.F.);
#479=ORIENTED_EDGE('',*,*,#360,.F.);
#480=ORIENTED_EDGE('',*,*,#363,.F.);
#481=ORIENTED_EDGE('',*,*,#366,.F.);
#482=ORIENTED_EDGE('',*,*,#307,.T.);
#483=ORIENTED_EDGE('',*,*,#369,.T.);
#484=ORIENTED_EDGE('',*,*,#370,.T.);
#485=ORIENTED_EDGE('',*,*,#371,.F.);
#486=ORIENTED_EDGE('',*,*,#372,.F.);
#487=ORIENTED_EDGE('',*,*,#373,.F.);
#488=ORIENTED_EDGE('',*,*,#372,.T.);
#489=ORIENTED_EDGE('',*,*,#374,.F.);
#490=ORIENTED_EDGE('',*,*,#375,.F.);
#491=ORIENTED_EDGE('',*,*,#376,.T.);
#492=ORIENTED_EDGE('',*,*,#375,.T.);
#493=ORIENTED_EDGE('',*,*,#377,.F.);
#494=ORIENTED_EDGE('',*,*,#378,.F.);
#495=ORIENTED_EDGE('',*,*,#379,.F.);
#496=ORIENTED_EDGE('',*,*,#378,.T.);
#497=ORIENTED_EDGE('',*,*,#380,.F.);
#498=ORIENTED_EDGE('',*,*,#370,.F.);
#499=ORIENTED_EDGE('',*,*,#380,.T.);
#500=ORIENTED_EDGE('',*,*,#377,.T.);
#501=ORIENTED_EDGE('',*,*,#374,.T.);
#502=ORIENTED_EDGE('',*,*,#371,.T.);
#503=ORIENTED_EDGE('',*,*,#309,.T.);
#504=ORIENTED_EDGE('',*,*,#312,.T.);
#505=ORIENTED_EDGE('',*,*,#313,.T.);
#506=ORIENTED_EDGE('',*,*,#318,.T.);
#507=ORIENTED_EDGE('',*,*,#323,.T.);
#508=ORIENTED_EDGE('',*,*,#328,.T.);
#509=ORIENTED_EDGE('',*,*,#379,.T.);
#510=ORIENTED_EDGE('',*,*,#369,.F.);
#511=ORIENTED_EDGE('',*,*,#373,.T.);
#512=ORIENTED_EDGE('',*,*,#376,.F.);
#513=ORIENTED_EDGE('',*,*,#317,.T.);
#514=ORIENTED_EDGE('',*,*,#322,.T.);
#515=ORIENTED_EDGE('',*,*,#327,.T.);
#516=ORIENTED_EDGE('',*,*,#332,.T.);
#517=ORIENTED_EDGE('',*,*,#333,.T.);
#518=ORIENTED_EDGE('',*,*,#349,.T.);
#519=ORIENTED_EDGE('',*,*,#346,.T.);
#520=ORIENTED_EDGE('',*,*,#343,.T.);
#521=ORIENTED_EDGE('',*,*,#340,.T.);
#522=ORIENTED_EDGE('',*,*,#337,.T.);
#523=ORIENTED_EDGE('',*,*,#351,.T.);
#524=ORIENTED_EDGE('',*,*,#367,.T.);
#525=ORIENTED_EDGE('',*,*,#364,.T.);
#526=ORIENTED_EDGE('',*,*,#361,.T.);
#527=ORIENTED_EDGE('',*,*,#358,.T.);
#528=ORIENTED_EDGE('',*,*,#355,.T.);
#529=CYLINDRICAL_SURFACE('',#579,3.);
#530=CYLINDRICAL_SURFACE('',#582,3.);
#531=CYLINDRICAL_SURFACE('',#588,2.05);
#532=CYLINDRICAL_SURFACE('',#593,2.05);
#533=CYLINDRICAL_SURFACE('',#598,2.05);
#534=CYLINDRICAL_SURFACE('',#603,2.05);
#535=ADVANCED_FACE('',(#53),#529,.F.);
#536=ADVANCED_FACE('',(#54),#530,.F.);
#537=ADVANCED_FACE('',(#55),#49,.F.);
#538=ADVANCED_FACE('',(#56),#531,.F.);
#539=ADVANCED_FACE('',(#57),#50,.F.);
#540=ADVANCED_FACE('',(#58),#532,.F.);
#541=ADVANCED_FACE('',(#59),#51,.F.);
#542=ADVANCED_FACE('',(#60),#533,.F.);
#543=ADVANCED_FACE('',(#61),#52,.F.);
#544=ADVANCED_FACE('',(#62),#534,.F.);
#545=ADVANCED_FACE('',(#63),#29,.F.);
#546=ADVANCED_FACE('',(#64),#30,.F.);
#547=ADVANCED_FACE('',(#65),#31,.F.);
#548=ADVANCED_FACE('',(#66),#32,.F.);
#549=ADVANCED_FACE('',(#67),#33,.F.);
#550=ADVANCED_FACE('',(#68),#34,.F.);
#551=ADVANCED_FACE('',(#69,#15),#35,.F.);
#552=ADVANCED_FACE('',(#70),#36,.F.);
#553=ADVANCED_FACE('',(#71),#37,.F.);
#554=ADVANCED_FACE('',(#72),#38,.F.);
#555=ADVANCED_FACE('',(#73),#39,.F.);
#556=ADVANCED_FACE('',(#74),#40,.F.);
#557=ADVANCED_FACE('',(#75),#41,.F.);
#558=ADVANCED_FACE('',(#76,#16),#42,.F.);
#559=ADVANCED_FACE('',(#77),#43,.T.);
#560=ADVANCED_FACE('',(#78),#44,.T.);
#561=ADVANCED_FACE('',(#79),#45,.T.);
#562=ADVANCED_FACE('',(#80),#46,.T.);
#563=ADVANCED_FACE('',(#81,#17,#18,#19,#20,#21,#22),#47,.T.);
#564=ADVANCED_FACE('',(#82,#23,#24,#25,#26,#27,#28),#48,.F.);
#565=CLOSED_SHELL('',(#535,#536,#537,#538,#539,#540,#541,#542,#543,#544,
#545,#546,#547,#548,#549,#550,#551,#552,#553,#554,#555,#556,#557,#558,#559,
#560,#561,#562,#563,#564));
#566=DERIVED_UNIT_ELEMENT(#568,1.);
#567=DERIVED_UNIT_ELEMENT(#935,-3.);
#568=(
MASS_UNIT()
NAMED_UNIT(*)
SI_UNIT(.KILO.,.GRAM.)
);
#569=DERIVED_UNIT((#566,#567));
#570=MEASURE_REPRESENTATION_ITEM('density measure',
POSITIVE_RATIO_MEASURE(7850.),#569);
#571=PROPERTY_DEFINITION_REPRESENTATION(#576,#573);
#572=PROPERTY_DEFINITION_REPRESENTATION(#577,#574);
#573=REPRESENTATION('material name',(#575),#932);
#574=REPRESENTATION('density',(#570),#932);
#575=DESCRIPTIVE_REPRESENTATION_ITEM('Steel','Steel');
#576=PROPERTY_DEFINITION('material property','material name',#942);
#577=PROPERTY_DEFINITION('material property','density of part',#942);
#578=AXIS2_PLACEMENT_3D('',#777,#625,#626);
#579=AXIS2_PLACEMENT_3D('',#778,#627,#628);
#580=AXIS2_PLACEMENT_3D('',#780,#629,#630);
#581=AXIS2_PLACEMENT_3D('',#783,#632,#633);
#582=AXIS2_PLACEMENT_3D('',#784,#634,#635);
#583=AXIS2_PLACEMENT_3D('',#786,#636,#637);
#584=AXIS2_PLACEMENT_3D('',#789,#639,#640);
#585=AXIS2_PLACEMENT_3D('',#790,#641,#642);
#586=AXIS2_PLACEMENT_3D('',#792,#643,#644);
#587=AXIS2_PLACEMENT_3D('',#795,#646,#647);
#588=AXIS2_PLACEMENT_3D('',#796,#648,#649);
#589=AXIS2_PLACEMENT_3D('',#799,#651,#652);
#590=AXIS2_PLACEMENT_3D('',#800,#653,#654);
#591=AXIS2_PLACEMENT_3D('',#802,#655,#656);
#592=AXIS2_PLACEMENT_3D('',#805,#658,#659);
#593=AXIS2_PLACEMENT_3D('',#806,#660,#661);
#594=AXIS2_PLACEMENT_3D('',#809,#663,#664);
#595=AXIS2_PLACEMENT_3D('',#810,#665,#666);
#596=AXIS2_PLACEMENT_3D('',#812,#667,#668);
#597=AXIS2_PLACEMENT_3D('',#815,#670,#671);
#598=AXIS2_PLACEMENT_3D('',#816,#672,#673);
#599=AXIS2_PLACEMENT_3D('',#819,#675,#676);
#600=AXIS2_PLACEMENT_3D('',#820,#677,#678);
#601=AXIS2_PLACEMENT_3D('',#822,#679,#680);
#602=AXIS2_PLACEMENT_3D('',#825,#682,#683);
#603=AXIS2_PLACEMENT_3D('',#826,#684,#685);
#604=AXIS2_PLACEMENT_3D('',#829,#687,#688);
#605=AXIS2_PLACEMENT_3D('',#830,#689,#690);
#606=AXIS2_PLACEMENT_3D('',#839,#695,#696);
#607=AXIS2_PLACEMENT_3D('',#845,#700,#701);
#608=AXIS2_PLACEMENT_3D('',#851,#705,#706);
#609=AXIS2_PLACEMENT_3D('',#857,#710,#711);
#610=AXIS2_PLACEMENT_3D('',#863,#715,#716);
#611=AXIS2_PLACEMENT_3D('',#866,#719,#720);
#612=AXIS2_PLACEMENT_3D('',#867,#721,#722);
#613=AXIS2_PLACEMENT_3D('',#876,#727,#728);
#614=AXIS2_PLACEMENT_3D('',#882,#732,#733);
#615=AXIS2_PLACEMENT_3D('',#888,#737,#738);
#616=AXIS2_PLACEMENT_3D('',#894,#742,#743);
#617=AXIS2_PLACEMENT_3D('',#900,#747,#748);
#618=AXIS2_PLACEMENT_3D('',#903,#751,#752);
#619=AXIS2_PLACEMENT_3D('',#904,#753,#754);
#620=AXIS2_PLACEMENT_3D('',#913,#759,#760);
#621=AXIS2_PLACEMENT_3D('',#919,#764,#765);
#622=AXIS2_PLACEMENT_3D('',#925,#769,#770);
#623=AXIS2_PLACEMENT_3D('',#928,#773,#774);
#624=AXIS2_PLACEMENT_3D('',#929,#775,#776);
#625=DIRECTION('axis',(0.,0.,1.));
#626=DIRECTION('refdir',(1.,0.,0.));
#627=DIRECTION('center_axis',(0.,-1.,0.));
#628=DIRECTION('ref_axis',(0.,0.,-1.));
#629=DIRECTION('center_axis',(0.,1.,0.));
#630=DIRECTION('ref_axis',(0.,0.,-1.));
#631=DIRECTION('',(0.,1.,0.));
#632=DIRECTION('center_axis',(0.,-1.,0.));
#633=DIRECTION('ref_axis',(0.,0.,-1.));
#634=DIRECTION('center_axis',(0.,1.,0.));
#635=DIRECTION('ref_axis',(0.,0.,-1.));
#636=DIRECTION('center_axis',(0.,1.,0.));
#637=DIRECTION('ref_axis',(0.,0.,-1.));
#638=DIRECTION('',(0.,1.,0.));
#639=DIRECTION('center_axis',(0.,-1.,0.));
#640=DIRECTION('ref_axis',(0.,0.,-1.));
#641=DIRECTION('center_axis',(0.,1.,0.));
#642=DIRECTION('ref_axis',(0.,0.,1.));
#643=DIRECTION('center_axis',(0.,-1.,0.));
#644=DIRECTION('ref_axis',(0.,0.,1.));
#645=DIRECTION('',(-8.65956056235493E-17,-0.707106781186548,0.707106781186547));
#646=DIRECTION('center_axis',(0.,-1.,0.));
#647=DIRECTION('ref_axis',(0.,0.,1.));
#648=DIRECTION('center_axis',(0.,-1.,0.));
#649=DIRECTION('ref_axis',(0.,0.,1.));
#650=DIRECTION('',(0.,-1.,0.));
#651=DIRECTION('center_axis',(0.,1.,0.));
#652=DIRECTION('ref_axis',(0.,0.,1.));
#653=DIRECTION('center_axis',(0.,1.,0.));
#654=DIRECTION('ref_axis',(0.,0.,1.));
#655=DIRECTION('center_axis',(0.,-1.,0.));
#656=DIRECTION('ref_axis',(0.,0.,1.));
#657=DIRECTION('',(-8.65956056235493E-17,-0.707106781186548,0.707106781186547));
#658=DIRECTION('center_axis',(0.,-1.,0.));
#659=DIRECTION('ref_axis',(0.,0.,1.));
#660=DIRECTION('center_axis',(0.,-1.,0.));
#661=DIRECTION('ref_axis',(0.,0.,1.));
#662=DIRECTION('',(0.,-1.,0.));
#663=DIRECTION('center_axis',(0.,1.,0.));
#664=DIRECTION('ref_axis',(0.,0.,1.));
#665=DIRECTION('center_axis',(0.,1.,0.));
#666=DIRECTION('ref_axis',(0.,0.,1.));
#667=DIRECTION('center_axis',(0.,-1.,0.));
#668=DIRECTION('ref_axis',(0.,0.,1.));
#669=DIRECTION('',(-8.65956056235493E-17,-0.707106781186548,0.707106781186547));
#670=DIRECTION('center_axis',(0.,-1.,0.));
#671=DIRECTION('ref_axis',(0.,0.,1.));
#672=DIRECTION('center_axis',(0.,-1.,0.));
#673=DIRECTION('ref_axis',(0.,0.,1.));
#674=DIRECTION('',(0.,-1.,0.));
#675=DIRECTION('center_axis',(0.,1.,0.));
#676=DIRECTION('ref_axis',(0.,0.,1.));
#677=DIRECTION('center_axis',(0.,1.,0.));
#678=DIRECTION('ref_axis',(0.,0.,1.));
#679=DIRECTION('center_axis',(0.,-1.,0.));
#680=DIRECTION('ref_axis',(0.,0.,1.));
#681=DIRECTION('',(-8.65956056235493E-17,-0.707106781186548,0.707106781186547));
#682=DIRECTION('center_axis',(0.,-1.,0.));
#683=DIRECTION('ref_axis',(0.,0.,1.));
#684=DIRECTION('center_axis',(0.,-1.,0.));
#685=DIRECTION('ref_axis',(0.,0.,1.));
#686=DIRECTION('',(0.,-1.,0.));
#687=DIRECTION('center_axis',(0.,1.,0.));
#688=DIRECTION('ref_axis',(0.,0.,1.));
#689=DIRECTION('center_axis',(0.868128014144658,0.,0.496340358078258));
#690=DIRECTION('ref_axis',(0.496340358078258,0.,-0.868128014144658));
#691=DIRECTION('',(0.496340358078258,0.,-0.868128014144658));
#692=DIRECTION('',(0.,1.,0.));
#693=DIRECTION('',(0.496340358078258,0.,-0.868128014144658));
#694=DIRECTION('',(0.,1.,0.));
#695=DIRECTION('center_axis',(0.00422064805309252,0.,0.999991093025339));
#696=DIRECTION('ref_axis',(0.999991093025339,0.,-0.00422064805309252));
#697=DIRECTION('',(0.999991093025339,0.,-0.00422064805309252));
#698=DIRECTION('',(0.,1.,0.));
#699=DIRECTION('',(0.999991093025339,0.,-0.00422064805309252));
#700=DIRECTION('center_axis',(-0.863907366091565,0.,0.503650734947081));
#701=DIRECTION('ref_axis',(0.503650734947081,0.,0.863907366091565));
#702=DIRECTION('',(0.503650734947081,0.,0.863907366091565));
#703=DIRECTION('',(0.,1.,0.));
#704=DIRECTION('',(0.503650734947081,0.,0.863907366091565));
#705=DIRECTION('center_axis',(-0.868128014144658,0.,-0.496340358078258));
#706=DIRECTION('ref_axis',(-0.496340358078258,0.,0.868128014144658));
#707=DIRECTION('',(-0.496340358078258,0.,0.868128014144658));
#708=DIRECTION('',(0.,1.,0.));
#709=DIRECTION('',(-0.496340358078258,0.,0.868128014144658));
#710=DIRECTION('center_axis',(-0.00422064805309252,0.,-0.999991093025339));
#711=DIRECTION('ref_axis',(-0.999991093025339,0.,0.00422064805309252));
#712=DIRECTION('',(-0.999991093025339,0.,0.00422064805309252));
#713=DIRECTION('',(0.,1.,0.));
#714=DIRECTION('',(-0.999991093025339,0.,0.00422064805309252));
#715=DIRECTION('center_axis',(0.863907366091565,0.,-0.503650734947081));
#716=DIRECTION('ref_axis',(-0.503650734947081,0.,-0.863907366091565));
#717=DIRECTION('',(-0.503650734947081,0.,-0.863907366091565));
#718=DIRECTION('',(-0.503650734947081,0.,-0.863907366091565));
#719=DIRECTION('center_axis',(0.,1.,0.));
#720=DIRECTION('ref_axis',(0.,0.,1.));
#721=DIRECTION('center_axis',(-0.868128014144658,0.,0.496340358078258));
#722=DIRECTION('ref_axis',(0.496340358078258,0.,0.868128014144658));
#723=DIRECTION('',(0.496340358078258,0.,0.868128014144658));
#724=DIRECTION('',(0.,1.,0.));
#725=DIRECTION('',(0.496340358078258,0.,0.868128014144658));
#726=DIRECTION('',(0.,1.,0.));
#727=DIRECTION('center_axis',(-0.863907366091565,0.,-0.503650734947081));
#728=DIRECTION('ref_axis',(-0.503650734947081,0.,0.863907366091565));
#729=DIRECTION('',(-0.503650734947081,0.,0.863907366091565));
#730=DIRECTION('',(0.,1.,0.));
#731=DIRECTION('',(-0.503650734947081,0.,0.863907366091565));
#732=DIRECTION('center_axis',(0.00422064805309204,0.,-0.999991093025339));
#733=DIRECTION('ref_axis',(-0.999991093025339,0.,-0.00422064805309204));
#734=DIRECTION('',(-0.999991093025339,0.,-0.00422064805309204));
#735=DIRECTION('',(0.,1.,0.));
#736=DIRECTION('',(-0.999991093025339,0.,-0.00422064805309204));
#737=DIRECTION('center_axis',(0.868128014144658,0.,-0.496340358078258));
#738=DIRECTION('ref_axis',(-0.496340358078258,0.,-0.868128014144658));
#739=DIRECTION('',(-0.496340358078258,0.,-0.868128014144658));
#740=DIRECTION('',(0.,1.,0.));
#741=DIRECTION('',(-0.496340358078258,0.,-0.868128014144658));
#742=DIRECTION('center_axis',(0.863907366091565,0.,0.503650734947081));
#743=DIRECTION('ref_axis',(0.503650734947081,0.,-0.863907366091565));
#744=DIRECTION('',(0.503650734947081,0.,-0.863907366091565));
#745=DIRECTION('',(0.,1.,0.));
#746=DIRECTION('',(0.503650734947081,0.,-0.863907366091565));
#747=DIRECTION('center_axis',(-0.00422064805309204,0.,0.999991093025339));
#748=DIRECTION('ref_axis',(0.999991093025339,0.,0.00422064805309204));
#749=DIRECTION('',(0.999991093025339,0.,0.00422064805309204));
#750=DIRECTION('',(0.999991093025339,0.,0.00422064805309204));
#751=DIRECTION('center_axis',(0.,1.,0.));
#752=DIRECTION('ref_axis',(0.,0.,1.));
#753=DIRECTION('center_axis',(0.,0.,1.));
#754=DIRECTION('ref_axis',(1.,0.,0.));
#755=DIRECTION('',(1.,0.,0.));
#756=DIRECTION('',(0.,1.,0.));
#757=DIRECTION('',(1.,0.,0.));
#758=DIRECTION('',(0.,1.,0.));
#759=DIRECTION('center_axis',(-1.,0.,0.));
#760=DIRECTION('ref_axis',(0.,0.,1.));
#761=DIRECTION('',(0.,0.,-1.));
#762=DIRECTION('',(0.,0.,1.));
#763=DIRECTION('',(0.,1.,0.));
#764=DIRECTION('center_axis',(0.,0.,-1.));
#765=DIRECTION('ref_axis',(-1.,0.,0.));
#766=DIRECTION('',(-1.,0.,0.));
#767=DIRECTION('',(-1.,0.,0.));
#768=DIRECTION('',(0.,1.,0.));
#769=DIRECTION('center_axis',(1.,0.,0.));
#770=DIRECTION('ref_axis',(0.,0.,-1.));
#771=DIRECTION('',(0.,0.,1.));
#772=DIRECTION('',(0.,0.,-1.));
#773=DIRECTION('center_axis',(0.,1.,0.));
#774=DIRECTION('ref_axis',(0.,0.,1.));
#775=DIRECTION('center_axis',(0.,1.,0.));
#776=DIRECTION('ref_axis',(1.,0.,0.));
#777=CARTESIAN_POINT('',(0.,0.,0.));
#778=CARTESIAN_POINT('Origin',(27.5,6.,15.));
#779=CARTESIAN_POINT('',(27.5,4.,18.));
#780=CARTESIAN_POINT('Origin',(27.5,4.,15.));
#781=CARTESIAN_POINT('',(27.5,10.,18.));
#782=CARTESIAN_POINT('',(27.5,6.,18.));
#783=CARTESIAN_POINT('Origin',(27.5,10.,15.));
#784=CARTESIAN_POINT('Origin',(-27.5,6.,15.));
#785=CARTESIAN_POINT('',(-27.5,4.,18.));
#786=CARTESIAN_POINT('Origin',(-27.5,4.,15.));
#787=CARTESIAN_POINT('',(-27.5,10.,18.));
#788=CARTESIAN_POINT('',(-27.5,6.,18.));
#789=CARTESIAN_POINT('Origin',(-27.5,10.,15.));
#790=CARTESIAN_POINT('Origin',(20.0000002980232,9.025,45.0000002235174));
#791=CARTESIAN_POINT('',(20.0000002980232,10.,41.0000002235174));
#792=CARTESIAN_POINT('Origin',(20.0000002980232,10.,45.0000002235174));
#793=CARTESIAN_POINT('',(20.0000002980232,8.05,42.9500002235174));
#794=CARTESIAN_POINT('',(20.0000002980232,9.025,41.9750002235174));
#795=CARTESIAN_POINT('Origin',(20.0000002980232,8.05,45.0000002235174));
#796=CARTESIAN_POINT('Origin',(20.0000002980232,4.5,45.0000002235174));
#797=CARTESIAN_POINT('',(20.0000002980232,0.,42.9500002235174));
#798=CARTESIAN_POINT('',(20.0000002980232,4.5,42.9500002235174));
#799=CARTESIAN_POINT('Origin',(20.0000002980232,0.,45.0000002235174));
#800=CARTESIAN_POINT('Origin',(-20.0000002980232,9.025,-15.0000002235174));
#801=CARTESIAN_POINT('',(-20.0000002980232,10.,-19.0000002235174));
#802=CARTESIAN_POINT('Origin',(-20.0000002980232,10.,-15.0000002235174));
#803=CARTESIAN_POINT('',(-20.0000002980232,8.05,-17.0500002235174));
#804=CARTESIAN_POINT('',(-20.0000002980232,9.025,-18.0250002235174));
#805=CARTESIAN_POINT('Origin',(-20.0000002980232,8.05,-15.0000002235174));
#806=CARTESIAN_POINT('Origin',(-20.0000002980232,4.5,-15.0000002235174));
#807=CARTESIAN_POINT('',(-20.0000002980232,0.,-17.0500002235174));
#808=CARTESIAN_POINT('',(-20.0000002980232,4.5,-17.0500002235174));
#809=CARTESIAN_POINT('Origin',(-20.0000002980232,0.,-15.0000002235174));
#810=CARTESIAN_POINT('Origin',(20.0000002980232,9.025,-15.0000002235174));
#811=CARTESIAN_POINT('',(20.0000002980232,10.,-19.0000002235174));
#812=CARTESIAN_POINT('Origin',(20.0000002980232,10.,-15.0000002235174));
#813=CARTESIAN_POINT('',(20.0000002980232,8.05,-17.0500002235174));
#814=CARTESIAN_POINT('',(20.0000002980232,9.025,-18.0250002235174));
#815=CARTESIAN_POINT('Origin',(20.0000002980232,8.05,-15.0000002235174));
#816=CARTESIAN_POINT('Origin',(20.0000002980232,4.5,-15.0000002235174));
#817=CARTESIAN_POINT('',(20.0000002980232,0.,-17.0500002235174));
#818=CARTESIAN_POINT('',(20.0000002980232,4.5,-17.0500002235174));
#819=CARTESIAN_POINT('Origin',(20.0000002980232,0.,-15.0000002235174));
#820=CARTESIAN_POINT('Origin',(-20.0000002980232,9.025,45.0000002235174));
#821=CARTESIAN_POINT('',(-20.0000002980232,10.,41.0000002235174));
#822=CARTESIAN_POINT('Origin',(-20.0000002980232,10.,45.0000002235174));
#823=CARTESIAN_POINT('',(-20.0000002980232,8.05,42.9500002235174));
#824=CARTESIAN_POINT('',(-20.0000002980232,9.025,41.9750002235174));
#825=CARTESIAN_POINT('Origin',(-20.0000002980232,8.05,45.0000002235174));
#826=CARTESIAN_POINT('Origin',(-20.0000002980232,4.5,45.0000002235174));
#827=CARTESIAN_POINT('',(-20.0000002980232,0.,42.9500002235174));
#828=CARTESIAN_POINT('',(-20.0000002980232,4.5,42.9500002235174));
#829=CARTESIAN_POINT('Origin',(-20.0000002980232,0.,45.0000002235174));
#830=CARTESIAN_POINT('Origin',(-25.173736900806,0.,18.9902172029429));
#831=CARTESIAN_POINT('',(-25.173736900806,0.,18.9902172029429));
#832=CARTESIAN_POINT('',(-22.8812389860367,0.,14.9805056616831));
#833=CARTESIAN_POINT('',(-21.2132483450765,0.,12.063093488401));
#834=CARTESIAN_POINT('',(-25.173736900806,4.,18.9902172029429));
#835=CARTESIAN_POINT('',(-25.173736900806,0.,18.9902172029429));
#836=CARTESIAN_POINT('',(-22.8812389860367,4.,14.9805056616831));
#837=CARTESIAN_POINT('',(-25.173736900806,4.,18.9902172029429));
#838=CARTESIAN_POINT('',(-22.8812389860367,0.,14.9805056616831));
#839=CARTESIAN_POINT('Origin',(-29.7924979147693,0.,19.0097115412598));
#840=CARTESIAN_POINT('',(-29.7924979147693,0.,19.0097115412598));
#841=CARTESIAN_POINT('',(-14.8880526019908,0.,18.9468045628571));
#842=CARTESIAN_POINT('',(-29.7924979147693,4.,19.0097115412598));
#843=CARTESIAN_POINT('',(-29.7924979147693,0.,19.0097115412598));
#844=CARTESIAN_POINT('',(-29.7924979147693,4.,19.0097115412598));
#845=CARTESIAN_POINT('Origin',(-32.1187610139633,0.,15.0194943383169));
#846=CARTESIAN_POINT('',(-32.1187610139633,0.,15.0194943383169));
#847=CARTESIAN_POINT('',(-28.0493143754897,0.,21.999777862103));
#848=CARTESIAN_POINT('',(-32.1187610139633,4.,15.0194943383169));
#849=CARTESIAN_POINT('',(-32.1187610139633,0.,15.0194943383169));
#850=CARTESIAN_POINT('',(-32.1187610139633,4.,15.0194943383169));
#851=CARTESIAN_POINT('Origin',(-29.826263099194,0.,11.0097827970571));
#852=CARTESIAN_POINT('',(-29.826263099194,0.,11.0097827970571));
#853=CARTESIAN_POINT('',(-27.0120235008491,0.,6.08751485314503));
#854=CARTESIAN_POINT('',(-29.826263099194,4.,11.0097827970571));
#855=CARTESIAN_POINT('',(-29.826263099194,0.,11.0097827970571));
#856=CARTESIAN_POINT('',(-29.826263099194,4.,11.0097827970571));
#857=CARTESIAN_POINT('Origin',(-25.2075020852307,0.,10.9902884587402));
#858=CARTESIAN_POINT('',(-25.2075020852307,0.,10.9902884587402));
#859=CARTESIAN_POINT('',(-12.6124372794339,0.,10.937128649496));
#860=CARTESIAN_POINT('',(-25.2075020852307,4.,10.9902884587402));
#861=CARTESIAN_POINT('',(-25.2075020852307,0.,10.9902884587402));
#862=CARTESIAN_POINT('',(-25.2075020852307,4.,10.9902884587402));
#863=CARTESIAN_POINT('Origin',(-22.8812389860367,0.,14.9805056616831));
#864=CARTESIAN_POINT('',(-19.9749238971601,0.,19.9656805839978));
#865=CARTESIAN_POINT('',(-22.8812389860367,4.,14.9805056616831));
#866=CARTESIAN_POINT('Origin',(-27.5,4.,15.));
#867=CARTESIAN_POINT('Origin',(22.8812389860367,0.,14.9805056616831));
#868=CARTESIAN_POINT('',(22.8812389860367,0.,14.9805056616831));
#869=CARTESIAN_POINT('',(25.173736900806,0.,18.9902172029429));
#870=CARTESIAN_POINT('',(20.0669993876918,0.,10.0582377177711));
#871=CARTESIAN_POINT('',(22.8812389860367,4.,14.9805056616831));
#872=CARTESIAN_POINT('',(22.8812389860367,0.,14.9805056616831));
#873=CARTESIAN_POINT('',(25.173736900806,4.,18.9902172029429));
#874=CARTESIAN_POINT('',(25.173736900806,4.,18.9902172029429));
#875=CARTESIAN_POINT('',(25.173736900806,0.,18.9902172029429));
#876=CARTESIAN_POINT('Origin',(25.2075020852307,0.,10.9902884587402));
#877=CARTESIAN_POINT('',(25.2075020852307,0.,10.9902884587402));
#878=CARTESIAN_POINT('',(21.1380554467571,0.,17.9705719825264));
#879=CARTESIAN_POINT('',(25.2075020852307,4.,10.9902884587402));
#880=CARTESIAN_POINT('',(25.2075020852307,0.,10.9902884587402));
#881=CARTESIAN_POINT('',(22.8812389860367,4.,14.9805056616831));
#882=CARTESIAN_POINT('Origin',(29.826263099194,0.,11.0097827970571));
#883=CARTESIAN_POINT('',(29.826263099194,0.,11.0097827970571));
#884=CARTESIAN_POINT('',(14.9218177864155,0.,10.9468758186544));
#885=CARTESIAN_POINT('',(29.826263099194,4.,11.0097827970571));
#886=CARTESIAN_POINT('',(29.826263099194,0.,11.0097827970571));
#887=CARTESIAN_POINT('',(25.2075020852307,4.,10.9902884587402));
#888=CARTESIAN_POINT('Origin',(32.1187610139633,0.,15.0194943383169));
#889=CARTESIAN_POINT('',(32.1187610139633,0.,15.0194943383169));
#890=CARTESIAN_POINT('',(28.1582724582337,0.,8.09237062377493));
#891=CARTESIAN_POINT('',(32.1187610139633,4.,15.0194943383169));
#892=CARTESIAN_POINT('',(32.1187610139633,0.,15.0194943383169));
#893=CARTESIAN_POINT('',(29.826263099194,4.,11.0097827970571));
#894=CARTESIAN_POINT('Origin',(29.7924979147693,0.,19.0097115412598));
#895=CARTESIAN_POINT('',(29.7924979147693,0.,19.0097115412598));
#896=CARTESIAN_POINT('',(26.8861828258927,0.,23.9948864635745));
#897=CARTESIAN_POINT('',(29.7924979147693,4.,19.0097115412598));
#898=CARTESIAN_POINT('',(29.7924979147693,0.,19.0097115412598));
#899=CARTESIAN_POINT('',(32.1187610139633,4.,15.0194943383169));
#900=CARTESIAN_POINT('Origin',(25.173736900806,0.,18.9902172029429));
#901=CARTESIAN_POINT('',(12.5786720950092,0.,18.9370573936987));
#902=CARTESIAN_POINT('',(29.7924979147693,4.,19.0097115412598));
#903=CARTESIAN_POINT('Origin',(27.5,4.,15.));
#904=CARTESIAN_POINT('Origin',(-37.5,0.,55.));
#905=CARTESIAN_POINT('',(-37.5,0.,55.));
#906=CARTESIAN_POINT('',(37.5,0.,55.));
#907=CARTESIAN_POINT('',(-37.5,0.,55.));
#908=CARTESIAN_POINT('',(37.5,10.,55.));
#909=CARTESIAN_POINT('',(37.5,0.,55.));
#910=CARTESIAN_POINT('',(-37.5,10.,55.));
#911=CARTESIAN_POINT('',(-37.5,10.,55.));
#912=CARTESIAN_POINT('',(-37.5,0.,55.));
#913=CARTESIAN_POINT('Origin',(-37.5,0.,-25.));
#914=CARTESIAN_POINT('',(-37.5,0.,-25.));
#915=CARTESIAN_POINT('',(-37.5,0.,0.));
#916=CARTESIAN_POINT('',(-37.5,10.,-25.));
#917=CARTESIAN_POINT('',(-37.5,10.,0.));
#918=CARTESIAN_POINT('',(-37.5,0.,-25.));
#919=CARTESIAN_POINT('Origin',(37.5,0.,-25.));
#920=CARTESIAN_POINT('',(37.5,0.,-25.));
#921=CARTESIAN_POINT('',(37.5,0.,-25.));
#922=CARTESIAN_POINT('',(37.5,10.,-25.));
#923=CARTESIAN_POINT('',(37.5,10.,-25.));
#924=CARTESIAN_POINT('',(37.5,0.,-25.));
#925=CARTESIAN_POINT('Origin',(37.5,0.,55.));
#926=CARTESIAN_POINT('',(37.5,0.,30.));
#927=CARTESIAN_POINT('',(37.5,10.,30.));
#928=CARTESIAN_POINT('Origin',(0.,10.,15.));
#929=CARTESIAN_POINT('Origin',(0.,0.,15.));
#930=UNCERTAINTY_MEASURE_WITH_UNIT(LENGTH_MEASURE(0.01),#934,
'DISTANCE_ACCURACY_VALUE',
'Maximum model space distance between geometric entities at asserted c
onnectivities');
#931=UNCERTAINTY_MEASURE_WITH_UNIT(LENGTH_MEASURE(0.01),#934,
'DISTANCE_ACCURACY_VALUE',
'Maximum model space distance between geometric entities at asserted c
onnectivities');
#932=(
GEOMETRIC_REPRESENTATION_CONTEXT(3)
GLOBAL_UNCERTAINTY_ASSIGNED_CONTEXT((#930))
GLOBAL_UNIT_ASSIGNED_CONTEXT((#934,#936,#937))
REPRESENTATION_CONTEXT('','3D')
);
#933=(
GEOMETRIC_REPRESENTATION_CONTEXT(3)
GLOBAL_UNCERTAINTY_ASSIGNED_CONTEXT((#931))
GLOBAL_UNIT_ASSIGNED_CONTEXT((#934,#936,#937))
REPRESENTATION_CONTEXT('','3D')
);
#934=(
LENGTH_UNIT()
NAMED_UNIT(*)
SI_UNIT(.MILLI.,.METRE.)
);
#935=(
LENGTH_UNIT()
NAMED_UNIT(*)
SI_UNIT($,.METRE.)
);
#936=(
NAMED_UNIT(*)
PLANE_ANGLE_UNIT()
SI_UNIT($,.RADIAN.)
);
#937=(
NAMED_UNIT(*)
SI_UNIT($,.STERADIAN.)
SOLID_ANGLE_UNIT()
);
#938=SHAPE_DEFINITION_REPRESENTATION(#939,#940);
#939=PRODUCT_DEFINITION_SHAPE('',$,#942);
#940=SHAPE_REPRESENTATION('',(#578),#932);
#941=PRODUCT_DEFINITION_CONTEXT('part definition',#946,'design');
#942=PRODUCT_DEFINITION('BC carousel holder plate (pls rename)',
'BC carousel holder plate (pls rename) v4',#943,#941);
#943=PRODUCT_DEFINITION_FORMATION('',$,#948);
#944=PRODUCT_RELATED_PRODUCT_CATEGORY(
'BC carousel holder plate (pls rename) v4',
'BC carousel holder plate (pls rename) v4',(#948));
#945=APPLICATION_PROTOCOL_DEFINITION('international standard',
'automotive_design',2009,#946);
#946=APPLICATION_CONTEXT(
'Core Data for Automotive Mechanical Design Process');
#947=PRODUCT_CONTEXT('part definition',#946,'mechanical');
#948=PRODUCT('BC carousel holder plate (pls rename)',
'BC carousel holder plate (pls rename) v4',$,(#947));
#949=PRESENTATION_STYLE_ASSIGNMENT((#950));
#950=SURFACE_STYLE_USAGE(.BOTH.,#951);
#951=SURFACE_SIDE_STYLE('',(#952));
#952=SURFACE_STYLE_FILL_AREA(#953);
#953=FILL_AREA_STYLE('Steel - Satin',(#954));
#954=FILL_AREA_STYLE_COLOUR('Steel - Satin',#955);
#955=COLOUR_RGB('Steel - Satin',0.627450980392157,0.627450980392157,0.627450980392157);
ENDSEC;
END-ISO-10303-21;
