ISO-10303-21;
HEADER;
/* Generated by software containing ST-Developer
 * from STEP Tools, Inc. (www.steptools.com) 
 */

FILE_DESCRIPTION(
/* description */ (''),
/* implementation_level */ '2;1');

FILE_NAME(
/* name */ 'BC linear actuator bottom attachment v1.step',
/* time_stamp */ '2024-06-12T14:09:09+02:00',
/* author */ (''),
/* organization */ (''),
/* preprocessor_version */ 'ST-DEVELOPER v20',
/* originating_system */ 'Autodesk Translation Framework v13.14.0.145',

/* authorisation */ '');

FILE_SCHEMA (('AUTOMOTIVE_DESIGN { 1 0 10303 214 3 1 1 }'));
ENDSEC;

DATA;
#10=MECHANICAL_DESIGN_GEOMETRIC_PRESENTATION_REPRESENTATION('',(#13),#1018);
#11=SHAPE_REPRESENTATION_RELATIONSHIP('SRR','None',#1025,#12);
#12=ADVANCED_BREP_SHAPE_REPRESENTATION('',(#14),#1017);
#13=STYLED_ITEM('',(#1034),#14);
#14=MANIFOLD_SOLID_BREP('Body1',#586);
#15=FACE_BOUND('',#73,.T.);
#16=FACE_BOUND('',#85,.T.);
#17=FACE_BOUND('',#97,.T.);
#18=FACE_BOUND('',#99,.T.);
#19=FACE_BOUND('',#100,.T.);
#20=FACE_BOUND('',#105,.T.);
#21=PLANE('',#611);
#22=PLANE('',#613);
#23=PLANE('',#631);
#24=PLANE('',#632);
#25=PLANE('',#636);
#26=PLANE('',#637);
#27=PLANE('',#641);
#28=PLANE('',#642);
#29=PLANE('',#647);
#30=PLANE('',#650);
#31=PLANE('',#652);
#32=PLANE('',#657);
#33=PLANE('',#658);
#34=PLANE('',#663);
#35=PLANE('',#664);
#36=TOROIDAL_SURFACE('',#604,6.,1.);
#37=TOROIDAL_SURFACE('',#625,6.,1.);
#38=FACE_OUTER_BOUND('',#69,.T.);
#39=FACE_OUTER_BOUND('',#70,.T.);
#40=FACE_OUTER_BOUND('',#71,.T.);
#41=FACE_OUTER_BOUND('',#72,.T.);
#42=FACE_OUTER_BOUND('',#74,.T.);
#43=FACE_OUTER_BOUND('',#75,.T.);
#44=FACE_OUTER_BOUND('',#76,.T.);
#45=FACE_OUTER_BOUND('',#77,.T.);
#46=FACE_OUTER_BOUND('',#78,.T.);
#47=FACE_OUTER_BOUND('',#79,.T.);
#48=FACE_OUTER_BOUND('',#80,.T.);
#49=FACE_OUTER_BOUND('',#81,.T.);
#50=FACE_OUTER_BOUND('',#82,.T.);
#51=FACE_OUTER_BOUND('',#83,.T.);
#52=FACE_OUTER_BOUND('',#84,.T.);
#53=FACE_OUTER_BOUND('',#86,.T.);
#54=FACE_OUTER_BOUND('',#87,.T.);
#55=FACE_OUTER_BOUND('',#88,.T.);
#56=FACE_OUTER_BOUND('',#89,.T.);
#57=FACE_OUTER_BOUND('',#90,.T.);
#58=FACE_OUTER_BOUND('',#91,.T.);
#59=FACE_OUTER_BOUND('',#92,.T.);
#60=FACE_OUTER_BOUND('',#93,.T.);
#61=FACE_OUTER_BOUND('',#94,.T.);
#62=FACE_OUTER_BOUND('',#95,.T.);
#63=FACE_OUTER_BOUND('',#96,.T.);
#64=FACE_OUTER_BOUND('',#98,.T.);
#65=FACE_OUTER_BOUND('',#101,.T.);
#66=FACE_OUTER_BOUND('',#102,.T.);
#67=FACE_OUTER_BOUND('',#103,.T.);
#68=FACE_OUTER_BOUND('',#104,.T.);
#69=EDGE_LOOP('',(#375,#376,#377,#378,#379));
#70=EDGE_LOOP('',(#380,#381,#382,#383));
#71=EDGE_LOOP('',(#384,#385,#386,#387,#388));
#72=EDGE_LOOP('',(#389,#390,#391,#392,#393,#394));
#73=EDGE_LOOP('',(#395));
#74=EDGE_LOOP('',(#396,#397,#398,#399,#400,#401));
#75=EDGE_LOOP('',(#402,#403,#404,#405,#406,#407,#408,#409));
#76=EDGE_LOOP('',(#410,#411,#412,#413,#414,#415,#416,#417));
#77=EDGE_LOOP('',(#418,#419,#420,#421,#422));
#78=EDGE_LOOP('',(#423,#424,#425,#426));
#79=EDGE_LOOP('',(#427,#428,#429,#430,#431));
#80=EDGE_LOOP('',(#432,#433,#434,#435));
#81=EDGE_LOOP('',(#436,#437,#438,#439,#440,#441,#442,#443,#444,#445));
#82=EDGE_LOOP('',(#446,#447,#448,#449));
#83=EDGE_LOOP('',(#450,#451,#452,#453));
#84=EDGE_LOOP('',(#454,#455,#456,#457,#458,#459));
#85=EDGE_LOOP('',(#460));
#86=EDGE_LOOP('',(#461,#462,#463,#464));
#87=EDGE_LOOP('',(#465,#466,#467,#468,#469,#470,#471,#472,#473,#474));
#88=EDGE_LOOP('',(#475,#476,#477,#478));
#89=EDGE_LOOP('',(#479,#480,#481,#482));
#90=EDGE_LOOP('',(#483,#484,#485,#486));
#91=EDGE_LOOP('',(#487,#488,#489,#490));
#92=EDGE_LOOP('',(#491,#492,#493,#494));
#93=EDGE_LOOP('',(#495,#496,#497,#498));
#94=EDGE_LOOP('',(#499,#500,#501,#502));
#95=EDGE_LOOP('',(#503,#504,#505,#506));
#96=EDGE_LOOP('',(#507,#508,#509,#510,#511,#512));
#97=EDGE_LOOP('',(#513));
#98=EDGE_LOOP('',(#514,#515,#516,#517));
#99=EDGE_LOOP('',(#518));
#100=EDGE_LOOP('',(#519));
#101=EDGE_LOOP('',(#520,#521,#522,#523));
#102=EDGE_LOOP('',(#524,#525,#526,#527));
#103=EDGE_LOOP('',(#528,#529,#530,#531,#532,#533));
#104=EDGE_LOOP('',(#534,#535,#536,#537,#538,#539));
#105=EDGE_LOOP('',(#540));
#106=CIRCLE('',#602,1.);
#107=CIRCLE('',#605,0.999999999999999);
#108=CIRCLE('',#606,6.);
#109=CIRCLE('',#607,7.);
#110=CIRCLE('',#612,4.);
#111=CIRCLE('',#616,1.);
#112=CIRCLE('',#617,1.);
#113=CIRCLE('',#621,1.);
#114=CIRCLE('',#622,1.);
#115=CIRCLE('',#624,1.);
#116=CIRCLE('',#626,0.999999999999999);
#117=CIRCLE('',#627,6.);
#118=CIRCLE('',#628,7.);
#119=CIRCLE('',#638,1.);
#120=CIRCLE('',#639,1.);
#121=CIRCLE('',#640,1.7);
#122=CIRCLE('',#646,1.);
#123=CIRCLE('',#649,1.);
#124=CIRCLE('',#655,1.7);
#125=CIRCLE('',#656,1.7);
#126=CIRCLE('',#659,1.7);
#127=CIRCLE('',#662,4.);
#128=LINE('',#852,#177);
#129=LINE('',#856,#178);
#130=LINE('',#868,#179);
#131=LINE('',#870,#180);
#132=LINE('',#874,#181);
#133=LINE('',#876,#182);
#134=LINE('',#877,#183);
#135=LINE('',#882,#184);
#136=LINE('',#886,#185);
#137=LINE('',#887,#186);
#138=LINE('',#890,#187);
#139=LINE('',#894,#188);
#140=LINE('',#898,#189);
#141=LINE('',#902,#190);
#142=LINE('',#906,#191);
#143=LINE('',#910,#192);
#144=LINE('',#913,#193);
#145=LINE('',#916,#194);
#146=LINE('',#919,#195);
#147=LINE('',#928,#196);
#148=LINE('',#929,#197);
#149=LINE('',#933,#198);
#150=LINE('',#935,#199);
#151=LINE('',#936,#200);
#152=LINE('',#939,#201);
#153=LINE('',#943,#202);
#154=LINE('',#945,#203);
#155=LINE('',#947,#204);
#156=LINE('',#950,#205);
#157=LINE('',#952,#206);
#158=LINE('',#953,#207);
#159=LINE('',#956,#208);
#160=LINE('',#960,#209);
#161=LINE('',#966,#210);
#162=LINE('',#967,#211);
#163=LINE('',#972,#212);
#164=LINE('',#977,#213);
#165=LINE('',#980,#214);
#166=LINE('',#981,#215);
#167=LINE('',#985,#216);
#168=LINE('',#987,#217);
#169=LINE('',#989,#218);
#170=LINE('',#991,#219);
#171=LINE('',#997,#220);
#172=LINE('',#1002,#221);
#173=LINE('',#1003,#222);
#174=LINE('',#1007,#223);
#175=LINE('',#1011,#224);
#176=LINE('',#1013,#225);
#177=VECTOR('',#671,10.);
#178=VECTOR('',#674,10.);
#179=VECTOR('',#689,10.);
#180=VECTOR('',#690,10.);
#181=VECTOR('',#695,10.);
#182=VECTOR('',#696,10.);
#183=VECTOR('',#697,10.);
#184=VECTOR('',#702,10.);
#185=VECTOR('',#705,10.);
#186=VECTOR('',#706,10.);
#187=VECTOR('',#709,10.);
#188=VECTOR('',#712,10.);
#189=VECTOR('',#715,10.);
#190=VECTOR('',#720,10.);
#191=VECTOR('',#723,10.);
#192=VECTOR('',#726,10.);
#193=VECTOR('',#729,10.);
#194=VECTOR('',#732,10.);
#195=VECTOR('',#735,10.);
#196=VECTOR('',#746,10.);
#197=VECTOR('',#747,10.);
#198=VECTOR('',#752,10.);
#199=VECTOR('',#753,10.);
#200=VECTOR('',#754,10.);
#201=VECTOR('',#757,10.);
#202=VECTOR('',#760,10.);
#203=VECTOR('',#763,10.);
#204=VECTOR('',#766,10.);
#205=VECTOR('',#769,10.);
#206=VECTOR('',#770,10.);
#207=VECTOR('',#771,10.);
#208=VECTOR('',#774,10.);
#209=VECTOR('',#777,10.);
#210=VECTOR('',#784,10.);
#211=VECTOR('',#785,10.);
#212=VECTOR('',#790,10.);
#213=VECTOR('',#797,10.);
#214=VECTOR('',#800,10.);
#215=VECTOR('',#801,10.);
#216=VECTOR('',#806,10.);
#217=VECTOR('',#809,10.);
#218=VECTOR('',#812,10.);
#219=VECTOR('',#815,10.);
#220=VECTOR('',#822,1.7);
#221=VECTOR('',#829,10.);
#222=VECTOR('',#830,10.);
#223=VECTOR('',#835,1.7);
#224=VECTOR('',#840,4.);
#225=VECTOR('',#843,10.);
#226=ELLIPSE('',#601,1.41421356237309,1.);
#227=ELLIPSE('',#603,1.40716876807595,1.);
#228=ELLIPSE('',#609,1.40716876807595,1.);
#229=ELLIPSE('',#610,1.4142135623731,1.);
#230=ELLIPSE('',#614,1.40716876807595,1.);
#231=ELLIPSE('',#618,1.4142135623731,1.);
#232=ELLIPSE('',#620,1.4142135623731,1.);
#233=ELLIPSE('',#630,1.40716876807595,1.);
#234=ELLIPSE('',#633,1.40716876807595,1.);
#235=ELLIPSE('',#634,1.40716876807595,1.);
#236=ELLIPSE('',#643,1.40716876807595,1.);
#237=ELLIPSE('',#644,1.40716876807595,1.);
#238=VERTEX_POINT('',#848);
#239=VERTEX_POINT('',#849);
#240=VERTEX_POINT('',#851);
#241=VERTEX_POINT('',#853);
#242=VERTEX_POINT('',#855);
#243=VERTEX_POINT('',#859);
#244=VERTEX_POINT('',#860);
#245=VERTEX_POINT('',#865);
#246=VERTEX_POINT('',#866);
#247=VERTEX_POINT('',#869);
#248=VERTEX_POINT('',#873);
#249=VERTEX_POINT('',#875);
#250=VERTEX_POINT('',#878);
#251=VERTEX_POINT('',#881);
#252=VERTEX_POINT('',#883);
#253=VERTEX_POINT('',#885);
#254=VERTEX_POINT('',#889);
#255=VERTEX_POINT('',#891);
#256=VERTEX_POINT('',#893);
#257=VERTEX_POINT('',#895);
#258=VERTEX_POINT('',#897);
#259=VERTEX_POINT('',#901);
#260=VERTEX_POINT('',#903);
#261=VERTEX_POINT('',#905);
#262=VERTEX_POINT('',#907);
#263=VERTEX_POINT('',#909);
#264=VERTEX_POINT('',#911);
#265=VERTEX_POINT('',#915);
#266=VERTEX_POINT('',#917);
#267=VERTEX_POINT('',#921);
#268=VERTEX_POINT('',#922);
#269=VERTEX_POINT('',#927);
#270=VERTEX_POINT('',#932);
#271=VERTEX_POINT('',#934);
#272=VERTEX_POINT('',#938);
#273=VERTEX_POINT('',#940);
#274=VERTEX_POINT('',#942);
#275=VERTEX_POINT('',#949);
#276=VERTEX_POINT('',#951);
#277=VERTEX_POINT('',#955);
#278=VERTEX_POINT('',#957);
#279=VERTEX_POINT('',#959);
#280=VERTEX_POINT('',#962);
#281=VERTEX_POINT('',#965);
#282=VERTEX_POINT('',#969);
#283=VERTEX_POINT('',#971);
#284=VERTEX_POINT('',#975);
#285=VERTEX_POINT('',#979);
#286=VERTEX_POINT('',#983);
#287=VERTEX_POINT('',#994);
#288=VERTEX_POINT('',#996);
#289=VERTEX_POINT('',#1001);
#290=VERTEX_POINT('',#1004);
#291=VERTEX_POINT('',#1009);
#292=EDGE_CURVE('',#238,#239,#226,.T.);
#293=EDGE_CURVE('',#239,#240,#128,.T.);
#294=EDGE_CURVE('',#240,#241,#106,.T.);
#295=EDGE_CURVE('',#241,#242,#129,.T.);
#296=EDGE_CURVE('',#242,#238,#227,.T.);
#297=EDGE_CURVE('',#243,#244,#107,.T.);
#298=EDGE_CURVE('',#244,#241,#108,.T.);
#299=EDGE_CURVE('',#240,#243,#109,.T.);
#300=EDGE_CURVE('',#245,#246,#228,.T.);
#301=EDGE_CURVE('',#246,#244,#130,.T.);
#302=EDGE_CURVE('',#243,#247,#131,.T.);
#303=EDGE_CURVE('',#247,#245,#229,.T.);
#304=EDGE_CURVE('',#246,#248,#132,.T.);
#305=EDGE_CURVE('',#248,#249,#133,.T.);
#306=EDGE_CURVE('',#249,#242,#134,.T.);
#307=EDGE_CURVE('',#250,#250,#110,.T.);
#308=EDGE_CURVE('',#251,#245,#135,.T.);
#309=EDGE_CURVE('',#252,#251,#230,.T.);
#310=EDGE_CURVE('',#253,#252,#136,.T.);
#311=EDGE_CURVE('',#248,#253,#137,.T.);
#312=EDGE_CURVE('',#247,#254,#138,.T.);
#313=EDGE_CURVE('',#254,#255,#111,.T.);
#314=EDGE_CURVE('',#255,#256,#139,.T.);
#315=EDGE_CURVE('',#256,#257,#112,.T.);
#316=EDGE_CURVE('',#257,#258,#140,.T.);
#317=EDGE_CURVE('',#258,#251,#231,.T.);
#318=EDGE_CURVE('',#238,#259,#141,.T.);
#319=EDGE_CURVE('',#259,#260,#232,.T.);
#320=EDGE_CURVE('',#260,#261,#142,.T.);
#321=EDGE_CURVE('',#261,#262,#113,.T.);
#322=EDGE_CURVE('',#262,#263,#143,.T.);
#323=EDGE_CURVE('',#263,#264,#114,.T.);
#324=EDGE_CURVE('',#239,#264,#144,.T.);
#325=EDGE_CURVE('',#258,#265,#145,.T.);
#326=EDGE_CURVE('',#265,#266,#115,.T.);
#327=EDGE_CURVE('',#266,#252,#146,.T.);
#328=EDGE_CURVE('',#267,#268,#116,.T.);
#329=EDGE_CURVE('',#268,#266,#117,.T.);
#330=EDGE_CURVE('',#265,#267,#118,.T.);
#331=EDGE_CURVE('',#269,#268,#147,.T.);
#332=EDGE_CURVE('',#267,#260,#148,.T.);
#333=EDGE_CURVE('',#259,#269,#233,.T.);
#334=EDGE_CURVE('',#261,#270,#149,.T.);
#335=EDGE_CURVE('',#271,#270,#150,.T.);
#336=EDGE_CURVE('',#262,#271,#151,.T.);
#337=EDGE_CURVE('',#272,#264,#152,.T.);
#338=EDGE_CURVE('',#273,#272,#234,.T.);
#339=EDGE_CURVE('',#274,#273,#153,.T.);
#340=EDGE_CURVE('',#270,#274,#235,.T.);
#341=EDGE_CURVE('',#240,#267,#154,.T.);
#342=EDGE_CURVE('',#243,#265,#155,.T.);
#343=EDGE_CURVE('',#256,#275,#156,.T.);
#344=EDGE_CURVE('',#276,#275,#157,.T.);
#345=EDGE_CURVE('',#257,#276,#158,.T.);
#346=EDGE_CURVE('',#277,#255,#159,.T.);
#347=EDGE_CURVE('',#277,#278,#119,.T.);
#348=EDGE_CURVE('',#279,#278,#160,.T.);
#349=EDGE_CURVE('',#279,#275,#120,.T.);
#350=EDGE_CURVE('',#280,#280,#121,.T.);
#351=EDGE_CURVE('',#281,#254,#161,.T.);
#352=EDGE_CURVE('',#277,#281,#162,.T.);
#353=EDGE_CURVE('',#282,#276,#236,.T.);
#354=EDGE_CURVE('',#282,#283,#163,.T.);
#355=EDGE_CURVE('',#281,#283,#237,.T.);
#356=EDGE_CURVE('',#271,#284,#122,.T.);
#357=EDGE_CURVE('',#274,#284,#164,.T.);
#358=EDGE_CURVE('',#285,#273,#165,.T.);
#359=EDGE_CURVE('',#284,#285,#166,.T.);
#360=EDGE_CURVE('',#285,#286,#123,.T.);
#361=EDGE_CURVE('',#272,#286,#167,.T.);
#362=EDGE_CURVE('',#286,#263,#168,.T.);
#363=EDGE_CURVE('',#279,#282,#169,.T.);
#364=EDGE_CURVE('',#283,#278,#170,.T.);
#365=EDGE_CURVE('',#287,#287,#124,.T.);
#366=EDGE_CURVE('',#287,#288,#171,.T.);
#367=EDGE_CURVE('',#288,#288,#125,.T.);
#368=EDGE_CURVE('',#289,#253,#172,.T.);
#369=EDGE_CURVE('',#289,#249,#173,.T.);
#370=EDGE_CURVE('',#290,#290,#126,.T.);
#371=EDGE_CURVE('',#290,#280,#174,.T.);
#372=EDGE_CURVE('',#291,#291,#127,.T.);
#373=EDGE_CURVE('',#291,#250,#175,.T.);
#374=EDGE_CURVE('',#269,#289,#176,.T.);
#375=ORIENTED_EDGE('',*,*,#292,.T.);
#376=ORIENTED_EDGE('',*,*,#293,.T.);
#377=ORIENTED_EDGE('',*,*,#294,.T.);
#378=ORIENTED_EDGE('',*,*,#295,.T.);
#379=ORIENTED_EDGE('',*,*,#296,.T.);
#380=ORIENTED_EDGE('',*,*,#297,.T.);
#381=ORIENTED_EDGE('',*,*,#298,.T.);
#382=ORIENTED_EDGE('',*,*,#294,.F.);
#383=ORIENTED_EDGE('',*,*,#299,.T.);
#384=ORIENTED_EDGE('',*,*,#300,.T.);
#385=ORIENTED_EDGE('',*,*,#301,.T.);
#386=ORIENTED_EDGE('',*,*,#297,.F.);
#387=ORIENTED_EDGE('',*,*,#302,.T.);
#388=ORIENTED_EDGE('',*,*,#303,.T.);
#389=ORIENTED_EDGE('',*,*,#295,.F.);
#390=ORIENTED_EDGE('',*,*,#298,.F.);
#391=ORIENTED_EDGE('',*,*,#301,.F.);
#392=ORIENTED_EDGE('',*,*,#304,.T.);
#393=ORIENTED_EDGE('',*,*,#305,.T.);
#394=ORIENTED_EDGE('',*,*,#306,.T.);
#395=ORIENTED_EDGE('',*,*,#307,.T.);
#396=ORIENTED_EDGE('',*,*,#300,.F.);
#397=ORIENTED_EDGE('',*,*,#308,.F.);
#398=ORIENTED_EDGE('',*,*,#309,.F.);
#399=ORIENTED_EDGE('',*,*,#310,.F.);
#400=ORIENTED_EDGE('',*,*,#311,.F.);
#401=ORIENTED_EDGE('',*,*,#304,.F.);
#402=ORIENTED_EDGE('',*,*,#303,.F.);
#403=ORIENTED_EDGE('',*,*,#312,.T.);
#404=ORIENTED_EDGE('',*,*,#313,.T.);
#405=ORIENTED_EDGE('',*,*,#314,.T.);
#406=ORIENTED_EDGE('',*,*,#315,.T.);
#407=ORIENTED_EDGE('',*,*,#316,.T.);
#408=ORIENTED_EDGE('',*,*,#317,.T.);
#409=ORIENTED_EDGE('',*,*,#308,.T.);
#410=ORIENTED_EDGE('',*,*,#292,.F.);
#411=ORIENTED_EDGE('',*,*,#318,.T.);
#412=ORIENTED_EDGE('',*,*,#319,.T.);
#413=ORIENTED_EDGE('',*,*,#320,.T.);
#414=ORIENTED_EDGE('',*,*,#321,.T.);
#415=ORIENTED_EDGE('',*,*,#322,.T.);
#416=ORIENTED_EDGE('',*,*,#323,.T.);
#417=ORIENTED_EDGE('',*,*,#324,.F.);
#418=ORIENTED_EDGE('',*,*,#325,.T.);
#419=ORIENTED_EDGE('',*,*,#326,.T.);
#420=ORIENTED_EDGE('',*,*,#327,.T.);
#421=ORIENTED_EDGE('',*,*,#309,.T.);
#422=ORIENTED_EDGE('',*,*,#317,.F.);
#423=ORIENTED_EDGE('',*,*,#328,.T.);
#424=ORIENTED_EDGE('',*,*,#329,.T.);
#425=ORIENTED_EDGE('',*,*,#326,.F.);
#426=ORIENTED_EDGE('',*,*,#330,.T.);
#427=ORIENTED_EDGE('',*,*,#331,.T.);
#428=ORIENTED_EDGE('',*,*,#328,.F.);
#429=ORIENTED_EDGE('',*,*,#332,.T.);
#430=ORIENTED_EDGE('',*,*,#319,.F.);
#431=ORIENTED_EDGE('',*,*,#333,.T.);
#432=ORIENTED_EDGE('',*,*,#321,.F.);
#433=ORIENTED_EDGE('',*,*,#334,.T.);
#434=ORIENTED_EDGE('',*,*,#335,.F.);
#435=ORIENTED_EDGE('',*,*,#336,.F.);
#436=ORIENTED_EDGE('',*,*,#293,.F.);
#437=ORIENTED_EDGE('',*,*,#324,.T.);
#438=ORIENTED_EDGE('',*,*,#337,.F.);
#439=ORIENTED_EDGE('',*,*,#338,.F.);
#440=ORIENTED_EDGE('',*,*,#339,.F.);
#441=ORIENTED_EDGE('',*,*,#340,.F.);
#442=ORIENTED_EDGE('',*,*,#334,.F.);
#443=ORIENTED_EDGE('',*,*,#320,.F.);
#444=ORIENTED_EDGE('',*,*,#332,.F.);
#445=ORIENTED_EDGE('',*,*,#341,.F.);
#446=ORIENTED_EDGE('',*,*,#299,.F.);
#447=ORIENTED_EDGE('',*,*,#341,.T.);
#448=ORIENTED_EDGE('',*,*,#330,.F.);
#449=ORIENTED_EDGE('',*,*,#342,.F.);
#450=ORIENTED_EDGE('',*,*,#315,.F.);
#451=ORIENTED_EDGE('',*,*,#343,.T.);
#452=ORIENTED_EDGE('',*,*,#344,.F.);
#453=ORIENTED_EDGE('',*,*,#345,.F.);
#454=ORIENTED_EDGE('',*,*,#314,.F.);
#455=ORIENTED_EDGE('',*,*,#346,.F.);
#456=ORIENTED_EDGE('',*,*,#347,.T.);
#457=ORIENTED_EDGE('',*,*,#348,.F.);
#458=ORIENTED_EDGE('',*,*,#349,.T.);
#459=ORIENTED_EDGE('',*,*,#343,.F.);
#460=ORIENTED_EDGE('',*,*,#350,.T.);
#461=ORIENTED_EDGE('',*,*,#313,.F.);
#462=ORIENTED_EDGE('',*,*,#351,.F.);
#463=ORIENTED_EDGE('',*,*,#352,.F.);
#464=ORIENTED_EDGE('',*,*,#346,.T.);
#465=ORIENTED_EDGE('',*,*,#302,.F.);
#466=ORIENTED_EDGE('',*,*,#342,.T.);
#467=ORIENTED_EDGE('',*,*,#325,.F.);
#468=ORIENTED_EDGE('',*,*,#316,.F.);
#469=ORIENTED_EDGE('',*,*,#345,.T.);
#470=ORIENTED_EDGE('',*,*,#353,.F.);
#471=ORIENTED_EDGE('',*,*,#354,.T.);
#472=ORIENTED_EDGE('',*,*,#355,.F.);
#473=ORIENTED_EDGE('',*,*,#351,.T.);
#474=ORIENTED_EDGE('',*,*,#312,.F.);
#475=ORIENTED_EDGE('',*,*,#356,.F.);
#476=ORIENTED_EDGE('',*,*,#335,.T.);
#477=ORIENTED_EDGE('',*,*,#340,.T.);
#478=ORIENTED_EDGE('',*,*,#357,.T.);
#479=ORIENTED_EDGE('',*,*,#357,.F.);
#480=ORIENTED_EDGE('',*,*,#339,.T.);
#481=ORIENTED_EDGE('',*,*,#358,.F.);
#482=ORIENTED_EDGE('',*,*,#359,.F.);
#483=ORIENTED_EDGE('',*,*,#360,.F.);
#484=ORIENTED_EDGE('',*,*,#358,.T.);
#485=ORIENTED_EDGE('',*,*,#338,.T.);
#486=ORIENTED_EDGE('',*,*,#361,.T.);
#487=ORIENTED_EDGE('',*,*,#323,.F.);
#488=ORIENTED_EDGE('',*,*,#362,.F.);
#489=ORIENTED_EDGE('',*,*,#361,.F.);
#490=ORIENTED_EDGE('',*,*,#337,.T.);
#491=ORIENTED_EDGE('',*,*,#349,.F.);
#492=ORIENTED_EDGE('',*,*,#363,.T.);
#493=ORIENTED_EDGE('',*,*,#353,.T.);
#494=ORIENTED_EDGE('',*,*,#344,.T.);
#495=ORIENTED_EDGE('',*,*,#363,.F.);
#496=ORIENTED_EDGE('',*,*,#348,.T.);
#497=ORIENTED_EDGE('',*,*,#364,.F.);
#498=ORIENTED_EDGE('',*,*,#354,.F.);
#499=ORIENTED_EDGE('',*,*,#347,.F.);
#500=ORIENTED_EDGE('',*,*,#352,.T.);
#501=ORIENTED_EDGE('',*,*,#355,.T.);
#502=ORIENTED_EDGE('',*,*,#364,.T.);
#503=ORIENTED_EDGE('',*,*,#365,.T.);
#504=ORIENTED_EDGE('',*,*,#366,.T.);
#505=ORIENTED_EDGE('',*,*,#367,.T.);
#506=ORIENTED_EDGE('',*,*,#366,.F.);
#507=ORIENTED_EDGE('',*,*,#322,.F.);
#508=ORIENTED_EDGE('',*,*,#336,.T.);
#509=ORIENTED_EDGE('',*,*,#356,.T.);
#510=ORIENTED_EDGE('',*,*,#359,.T.);
#511=ORIENTED_EDGE('',*,*,#360,.T.);
#512=ORIENTED_EDGE('',*,*,#362,.T.);
#513=ORIENTED_EDGE('',*,*,#367,.F.);
#514=ORIENTED_EDGE('',*,*,#311,.T.);
#515=ORIENTED_EDGE('',*,*,#368,.F.);
#516=ORIENTED_EDGE('',*,*,#369,.T.);
#517=ORIENTED_EDGE('',*,*,#305,.F.);
#518=ORIENTED_EDGE('',*,*,#370,.T.);
#519=ORIENTED_EDGE('',*,*,#365,.F.);
#520=ORIENTED_EDGE('',*,*,#370,.F.);
#521=ORIENTED_EDGE('',*,*,#371,.T.);
#522=ORIENTED_EDGE('',*,*,#350,.F.);
#523=ORIENTED_EDGE('',*,*,#371,.F.);
#524=ORIENTED_EDGE('',*,*,#372,.F.);
#525=ORIENTED_EDGE('',*,*,#373,.T.);
#526=ORIENTED_EDGE('',*,*,#307,.F.);
#527=ORIENTED_EDGE('',*,*,#373,.F.);
#528=ORIENTED_EDGE('',*,*,#296,.F.);
#529=ORIENTED_EDGE('',*,*,#306,.F.);
#530=ORIENTED_EDGE('',*,*,#369,.F.);
#531=ORIENTED_EDGE('',*,*,#374,.F.);
#532=ORIENTED_EDGE('',*,*,#333,.F.);
#533=ORIENTED_EDGE('',*,*,#318,.F.);
#534=ORIENTED_EDGE('',*,*,#331,.F.);
#535=ORIENTED_EDGE('',*,*,#374,.T.);
#536=ORIENTED_EDGE('',*,*,#368,.T.);
#537=ORIENTED_EDGE('',*,*,#310,.T.);
#538=ORIENTED_EDGE('',*,*,#327,.F.);
#539=ORIENTED_EDGE('',*,*,#329,.F.);
#540=ORIENTED_EDGE('',*,*,#372,.T.);
#541=CYLINDRICAL_SURFACE('',#600,1.);
#542=CYLINDRICAL_SURFACE('',#608,1.);
#543=CYLINDRICAL_SURFACE('',#615,1.);
#544=CYLINDRICAL_SURFACE('',#619,1.);
#545=CYLINDRICAL_SURFACE('',#623,1.);
#546=CYLINDRICAL_SURFACE('',#629,1.);
#547=CYLINDRICAL_SURFACE('',#635,7.);
#548=CYLINDRICAL_SURFACE('',#645,1.);
#549=CYLINDRICAL_SURFACE('',#648,1.);
#550=CYLINDRICAL_SURFACE('',#651,1.);
#551=CYLINDRICAL_SURFACE('',#653,1.);
#552=CYLINDRICAL_SURFACE('',#654,1.7);
#553=CYLINDRICAL_SURFACE('',#660,1.7);
#554=CYLINDRICAL_SURFACE('',#661,4.);
#555=ADVANCED_FACE('',(#38),#541,.T.);
#556=ADVANCED_FACE('',(#39),#36,.T.);
#557=ADVANCED_FACE('',(#40),#542,.T.);
#558=ADVANCED_FACE('',(#41,#15),#21,.F.);
#559=ADVANCED_FACE('',(#42),#22,.T.);
#560=ADVANCED_FACE('',(#43),#543,.T.);
#561=ADVANCED_FACE('',(#44),#544,.T.);
#562=ADVANCED_FACE('',(#45),#545,.T.);
#563=ADVANCED_FACE('',(#46),#37,.T.);
#564=ADVANCED_FACE('',(#47),#546,.T.);
#565=ADVANCED_FACE('',(#48),#23,.T.);
#566=ADVANCED_FACE('',(#49),#24,.T.);
#567=ADVANCED_FACE('',(#50),#547,.T.);
#568=ADVANCED_FACE('',(#51),#25,.F.);
#569=ADVANCED_FACE('',(#52,#16),#26,.T.);
#570=ADVANCED_FACE('',(#53),#27,.F.);
#571=ADVANCED_FACE('',(#54),#28,.T.);
#572=ADVANCED_FACE('',(#55),#548,.F.);
#573=ADVANCED_FACE('',(#56),#29,.T.);
#574=ADVANCED_FACE('',(#57),#549,.F.);
#575=ADVANCED_FACE('',(#58),#30,.T.);
#576=ADVANCED_FACE('',(#59),#550,.F.);
#577=ADVANCED_FACE('',(#60),#31,.F.);
#578=ADVANCED_FACE('',(#61),#551,.F.);
#579=ADVANCED_FACE('',(#62),#552,.F.);
#580=ADVANCED_FACE('',(#63,#17),#32,.F.);
#581=ADVANCED_FACE('',(#64,#18,#19),#33,.T.);
#582=ADVANCED_FACE('',(#65),#553,.F.);
#583=ADVANCED_FACE('',(#66),#554,.F.);
#584=ADVANCED_FACE('',(#67),#34,.T.);
#585=ADVANCED_FACE('',(#68,#20),#35,.T.);
#586=CLOSED_SHELL('',(#555,#556,#557,#558,#559,#560,#561,#562,#563,#564,
#565,#566,#567,#568,#569,#570,#571,#572,#573,#574,#575,#576,#577,#578,#579,
#580,#581,#582,#583,#584,#585));
#587=DERIVED_UNIT_ELEMENT(#589,1.);
#588=DERIVED_UNIT_ELEMENT(#1020,-3.);
#589=(
MASS_UNIT()
NAMED_UNIT(*)
SI_UNIT(.KILO.,.GRAM.)
);
#590=DERIVED_UNIT((#587,#588));
#591=MEASURE_REPRESENTATION_ITEM('density measure',
POSITIVE_RATIO_MEASURE(7850.),#590);
#592=PROPERTY_DEFINITION_REPRESENTATION(#597,#594);
#593=PROPERTY_DEFINITION_REPRESENTATION(#598,#595);
#594=REPRESENTATION('material name',(#596),#1017);
#595=REPRESENTATION('density',(#591),#1017);
#596=DESCRIPTIVE_REPRESENTATION_ITEM('Steel','Steel');
#597=PROPERTY_DEFINITION('material property','material name',#1027);
#598=PROPERTY_DEFINITION('material property','density of part',#1027);
#599=AXIS2_PLACEMENT_3D('',#846,#665,#666);
#600=AXIS2_PLACEMENT_3D('',#847,#667,#668);
#601=AXIS2_PLACEMENT_3D('',#850,#669,#670);
#602=AXIS2_PLACEMENT_3D('',#854,#672,#673);
#603=AXIS2_PLACEMENT_3D('',#857,#675,#676);
#604=AXIS2_PLACEMENT_3D('',#858,#677,#678);
#605=AXIS2_PLACEMENT_3D('',#861,#679,#680);
#606=AXIS2_PLACEMENT_3D('',#862,#681,#682);
#607=AXIS2_PLACEMENT_3D('',#863,#683,#684);
#608=AXIS2_PLACEMENT_3D('',#864,#685,#686);
#609=AXIS2_PLACEMENT_3D('',#867,#687,#688);
#610=AXIS2_PLACEMENT_3D('',#871,#691,#692);
#611=AXIS2_PLACEMENT_3D('',#872,#693,#694);
#612=AXIS2_PLACEMENT_3D('',#879,#698,#699);
#613=AXIS2_PLACEMENT_3D('',#880,#700,#701);
#614=AXIS2_PLACEMENT_3D('',#884,#703,#704);
#615=AXIS2_PLACEMENT_3D('',#888,#707,#708);
#616=AXIS2_PLACEMENT_3D('',#892,#710,#711);
#617=AXIS2_PLACEMENT_3D('',#896,#713,#714);
#618=AXIS2_PLACEMENT_3D('',#899,#716,#717);
#619=AXIS2_PLACEMENT_3D('',#900,#718,#719);
#620=AXIS2_PLACEMENT_3D('',#904,#721,#722);
#621=AXIS2_PLACEMENT_3D('',#908,#724,#725);
#622=AXIS2_PLACEMENT_3D('',#912,#727,#728);
#623=AXIS2_PLACEMENT_3D('',#914,#730,#731);
#624=AXIS2_PLACEMENT_3D('',#918,#733,#734);
#625=AXIS2_PLACEMENT_3D('',#920,#736,#737);
#626=AXIS2_PLACEMENT_3D('',#923,#738,#739);
#627=AXIS2_PLACEMENT_3D('',#924,#740,#741);
#628=AXIS2_PLACEMENT_3D('',#925,#742,#743);
#629=AXIS2_PLACEMENT_3D('',#926,#744,#745);
#630=AXIS2_PLACEMENT_3D('',#930,#748,#749);
#631=AXIS2_PLACEMENT_3D('',#931,#750,#751);
#632=AXIS2_PLACEMENT_3D('',#937,#755,#756);
#633=AXIS2_PLACEMENT_3D('',#941,#758,#759);
#634=AXIS2_PLACEMENT_3D('',#944,#761,#762);
#635=AXIS2_PLACEMENT_3D('',#946,#764,#765);
#636=AXIS2_PLACEMENT_3D('',#948,#767,#768);
#637=AXIS2_PLACEMENT_3D('',#954,#772,#773);
#638=AXIS2_PLACEMENT_3D('',#958,#775,#776);
#639=AXIS2_PLACEMENT_3D('',#961,#778,#779);
#640=AXIS2_PLACEMENT_3D('',#963,#780,#781);
#641=AXIS2_PLACEMENT_3D('',#964,#782,#783);
#642=AXIS2_PLACEMENT_3D('',#968,#786,#787);
#643=AXIS2_PLACEMENT_3D('',#970,#788,#789);
#644=AXIS2_PLACEMENT_3D('',#973,#791,#792);
#645=AXIS2_PLACEMENT_3D('',#974,#793,#794);
#646=AXIS2_PLACEMENT_3D('',#976,#795,#796);
#647=AXIS2_PLACEMENT_3D('',#978,#798,#799);
#648=AXIS2_PLACEMENT_3D('',#982,#802,#803);
#649=AXIS2_PLACEMENT_3D('',#984,#804,#805);
#650=AXIS2_PLACEMENT_3D('',#986,#807,#808);
#651=AXIS2_PLACEMENT_3D('',#988,#810,#811);
#652=AXIS2_PLACEMENT_3D('',#990,#813,#814);
#653=AXIS2_PLACEMENT_3D('',#992,#816,#817);
#654=AXIS2_PLACEMENT_3D('',#993,#818,#819);
#655=AXIS2_PLACEMENT_3D('',#995,#820,#821);
#656=AXIS2_PLACEMENT_3D('',#998,#823,#824);
#657=AXIS2_PLACEMENT_3D('',#999,#825,#826);
#658=AXIS2_PLACEMENT_3D('',#1000,#827,#828);
#659=AXIS2_PLACEMENT_3D('',#1005,#831,#832);
#660=AXIS2_PLACEMENT_3D('',#1006,#833,#834);
#661=AXIS2_PLACEMENT_3D('',#1008,#836,#837);
#662=AXIS2_PLACEMENT_3D('',#1010,#838,#839);
#663=AXIS2_PLACEMENT_3D('',#1012,#841,#842);
#664=AXIS2_PLACEMENT_3D('',#1014,#844,#845);
#665=DIRECTION('axis',(0.,0.,1.));
#666=DIRECTION('refdir',(1.,0.,0.));
#667=DIRECTION('center_axis',(0.710646812725469,0.703548937575157,0.));
#668=DIRECTION('ref_axis',(-0.497484224655985,0.502503180306787,-0.707106781186546));
#669=DIRECTION('center_axis',(0.502503180306787,0.497484224655985,-0.707106781186547));
#670=DIRECTION('ref_axis',(-0.502503180306785,-0.497484224655984,-0.707106781186549));
#671=DIRECTION('',(0.710646812725469,0.703548937575157,0.));
#672=DIRECTION('center_axis',(-0.710646812725469,-0.703548937575157,0.));
#673=DIRECTION('ref_axis',(-0.703548937575157,0.710646812725469,0.));
#674=DIRECTION('',(-0.710646812725469,-0.703548937575157,0.));
#675=DIRECTION('center_axis',(1.,5.55111514380531E-16,0.));
#676=DIRECTION('ref_axis',(-6.27626925814456E-16,1.,4.93110283665186E-17));
#677=DIRECTION('center_axis',(0.,0.,-1.));
#678=DIRECTION('ref_axis',(-1.,0.,0.));
#679=DIRECTION('center_axis',(-0.710646812725469,0.703548937575157,0.));
#680=DIRECTION('ref_axis',(0.703548937575157,0.710646812725469,0.));
#681=DIRECTION('center_axis',(0.,0.,1.));
#682=DIRECTION('ref_axis',(-2.35278358574267E-16,1.,0.));
#683=DIRECTION('center_axis',(0.,0.,-1.));
#684=DIRECTION('ref_axis',(-2.35278358574267E-16,1.,0.));
#685=DIRECTION('center_axis',(0.71064681272547,-0.703548937575157,0.));
#686=DIRECTION('ref_axis',(0.497484224655984,0.502503180306787,-0.707106781186547));
#687=DIRECTION('center_axis',(-1.,-4.44089209850063E-16,0.));
#688=DIRECTION('ref_axis',(-4.1841795054297E-16,1.,9.86220567330372E-17));
#689=DIRECTION('',(-0.710646812725469,0.703548937575156,0.));
#690=DIRECTION('',(0.710646812725469,-0.703548937575156,0.));
#691=DIRECTION('center_axis',(-0.502503180306786,0.497484224655983,-0.707106781186548));
#692=DIRECTION('ref_axis',(0.502503180306785,-0.497484224655985,-0.707106781186547));
#693=DIRECTION('center_axis',(0.,0.,1.));
#694=DIRECTION('ref_axis',(1.,0.,0.));
#695=DIRECTION('',(4.44089209850063E-16,-1.,0.));
#696=DIRECTION('',(-1.,0.,0.));
#697=DIRECTION('',(-5.55111514380531E-16,1.,0.));
#698=DIRECTION('center_axis',(0.,0.,1.));
#699=DIRECTION('ref_axis',(1.,0.,0.));
#700=DIRECTION('center_axis',(1.,4.44089209850063E-16,0.));
#701=DIRECTION('ref_axis',(-4.44089209850063E-16,1.,0.));
#702=DIRECTION('',(0.,0.,-1.));
#703=DIRECTION('center_axis',(-1.,-4.44089209850063E-16,0.));
#704=DIRECTION('ref_axis',(-4.1841795054297E-16,1.,-9.86220567330372E-17));
#705=DIRECTION('',(-4.44089209850063E-16,1.,0.));
#706=DIRECTION('',(0.,0.,1.));
#707=DIRECTION('center_axis',(0.,0.,1.));
#708=DIRECTION('ref_axis',(0.922916284820882,0.385000689885643,0.));
#709=DIRECTION('',(0.,0.,1.));
#710=DIRECTION('center_axis',(0.,0.,-1.));
#711=DIRECTION('ref_axis',(0.922916284820882,0.385000689885643,0.));
#712=DIRECTION('',(0.,0.,1.));
#713=DIRECTION('center_axis',(0.,0.,1.));
#714=DIRECTION('ref_axis',(0.922916284820882,0.385000689885643,0.));
#715=DIRECTION('',(0.,0.,1.));
#716=DIRECTION('center_axis',(0.502503180306787,-0.497484224655985,-0.707106781186547));
#717=DIRECTION('ref_axis',(-0.502503180306785,0.497484224655984,-0.707106781186549));
#718=DIRECTION('center_axis',(0.,0.,1.));
#719=DIRECTION('ref_axis',(-0.922916284820882,0.385000689885643,0.));
#720=DIRECTION('',(0.,0.,1.));
#721=DIRECTION('center_axis',(-0.502503180306785,-0.497484224655986,-0.707106781186547));
#722=DIRECTION('ref_axis',(0.502503180306784,0.497484224655985,-0.707106781186548));
#723=DIRECTION('',(0.,0.,-1.));
#724=DIRECTION('center_axis',(0.,0.,1.));
#725=DIRECTION('ref_axis',(-0.922916284820882,0.385000689885643,0.));
#726=DIRECTION('',(0.,0.,-1.));
#727=DIRECTION('center_axis',(0.,0.,-1.));
#728=DIRECTION('ref_axis',(-0.922916284820882,0.385000689885643,0.));
#729=DIRECTION('',(0.,0.,1.));
#730=DIRECTION('center_axis',(-0.71064681272547,0.703548937575157,0.));
#731=DIRECTION('ref_axis',(0.497484224655984,0.502503180306787,0.707106781186547));
#732=DIRECTION('',(-0.710646812725469,0.703548937575156,0.));
#733=DIRECTION('center_axis',(0.710646812725468,-0.703548937575158,0.));
#734=DIRECTION('ref_axis',(0.703548937575158,0.710646812725468,0.));
#735=DIRECTION('',(0.710646812725469,-0.703548937575156,0.));
#736=DIRECTION('center_axis',(0.,0.,1.));
#737=DIRECTION('ref_axis',(1.,0.,0.));
#738=DIRECTION('center_axis',(0.710646812725469,0.703548937575157,0.));
#739=DIRECTION('ref_axis',(-0.703548937575157,0.710646812725469,0.));
#740=DIRECTION('center_axis',(0.,0.,-1.));
#741=DIRECTION('ref_axis',(-2.35278358574267E-16,1.,0.));
#742=DIRECTION('center_axis',(0.,0.,1.));
#743=DIRECTION('ref_axis',(-2.35278358574267E-16,1.,0.));
#744=DIRECTION('center_axis',(-0.710646812725469,-0.703548937575157,0.));
#745=DIRECTION('ref_axis',(-0.497484224655985,0.502503180306787,0.707106781186546));
#746=DIRECTION('',(0.710646812725469,0.703548937575157,0.));
#747=DIRECTION('',(-0.710646812725469,-0.703548937575157,0.));
#748=DIRECTION('center_axis',(1.,5.55111514380531E-16,0.));
#749=DIRECTION('ref_axis',(-6.27626925814456E-16,1.,-4.93110283665186E-17));
#750=DIRECTION('center_axis',(0.,0.,-1.));
#751=DIRECTION('ref_axis',(-1.,0.,0.));
#752=DIRECTION('',(0.710646812725469,0.703548937575157,0.));
#753=DIRECTION('',(0.,1.,0.));
#754=DIRECTION('',(1.,0.,0.));
#755=DIRECTION('center_axis',(-0.703548937575157,0.710646812725469,0.));
#756=DIRECTION('ref_axis',(-0.710646812725469,-0.703548937575157,0.));
#757=DIRECTION('',(-0.710646812725469,-0.703548937575157,0.));
#758=DIRECTION('center_axis',(-0.703548937575157,0.710646812725469,0.));
#759=DIRECTION('ref_axis',(0.710646812725469,0.703548937575157,-4.93110283665186E-17));
#760=DIRECTION('',(0.,0.,-1.));
#761=DIRECTION('center_axis',(-0.703548937575157,0.710646812725469,0.));
#762=DIRECTION('ref_axis',(0.710646812725469,0.703548937575157,4.93110283665186E-17));
#763=DIRECTION('',(0.,0.,1.));
#764=DIRECTION('center_axis',(0.,0.,1.));
#765=DIRECTION('ref_axis',(0.703548937575157,0.710646812725469,0.));
#766=DIRECTION('',(0.,0.,1.));
#767=DIRECTION('center_axis',(0.,0.,1.));
#768=DIRECTION('ref_axis',(1.,0.,0.));
#769=DIRECTION('',(-1.,0.,0.));
#770=DIRECTION('',(0.,-1.,0.));
#771=DIRECTION('',(-0.710646812725469,0.703548937575156,0.));
#772=DIRECTION('center_axis',(0.,1.,0.));
#773=DIRECTION('ref_axis',(1.,0.,0.));
#774=DIRECTION('',(1.,0.,0.));
#775=DIRECTION('center_axis',(0.,1.,0.));
#776=DIRECTION('ref_axis',(-0.707106781186548,0.,-0.707106781186548));
#777=DIRECTION('',(0.,0.,-1.));
#778=DIRECTION('center_axis',(0.,1.,0.));
#779=DIRECTION('ref_axis',(-0.707106781186548,0.,0.707106781186548));
#780=DIRECTION('center_axis',(0.,-1.,0.));
#781=DIRECTION('ref_axis',(0.,0.,-1.));
#782=DIRECTION('center_axis',(0.,0.,-1.));
#783=DIRECTION('ref_axis',(-1.,0.,0.));
#784=DIRECTION('',(0.710646812725469,-0.703548937575156,0.));
#785=DIRECTION('',(0.,1.,0.));
#786=DIRECTION('center_axis',(0.703548937575157,0.71064681272547,0.));
#787=DIRECTION('ref_axis',(-0.710646812725469,0.703548937575156,0.));
#788=DIRECTION('center_axis',(0.703548937575157,0.71064681272547,0.));
#789=DIRECTION('ref_axis',(-0.710646812725469,0.703548937575156,4.93110283665186E-17));
#790=DIRECTION('',(0.,0.,-1.));
#791=DIRECTION('center_axis',(0.703548937575157,0.71064681272547,0.));
#792=DIRECTION('ref_axis',(-0.710646812725469,0.703548937575156,-4.93110283665186E-17));
#793=DIRECTION('center_axis',(0.,1.,0.));
#794=DIRECTION('ref_axis',(0.707106781186548,0.,0.707106781186548));
#795=DIRECTION('center_axis',(0.,1.,0.));
#796=DIRECTION('ref_axis',(0.707106781186548,0.,0.707106781186548));
#797=DIRECTION('',(0.,-1.,0.));
#798=DIRECTION('center_axis',(-1.,0.,0.));
#799=DIRECTION('ref_axis',(0.,0.,1.));
#800=DIRECTION('',(0.,1.,0.));
#801=DIRECTION('',(0.,0.,-1.));
#802=DIRECTION('center_axis',(0.,1.,0.));
#803=DIRECTION('ref_axis',(0.707106781186548,0.,-0.707106781186548));
#804=DIRECTION('center_axis',(0.,1.,0.));
#805=DIRECTION('ref_axis',(0.707106781186548,0.,-0.707106781186548));
#806=DIRECTION('',(0.,-1.,0.));
#807=DIRECTION('center_axis',(0.,0.,1.));
#808=DIRECTION('ref_axis',(1.,0.,0.));
#809=DIRECTION('',(-1.,0.,0.));
#810=DIRECTION('center_axis',(0.,1.,0.));
#811=DIRECTION('ref_axis',(-0.707106781186548,0.,0.707106781186548));
#812=DIRECTION('',(0.,1.,0.));
#813=DIRECTION('center_axis',(-1.,0.,0.));
#814=DIRECTION('ref_axis',(0.,0.,1.));
#815=DIRECTION('',(0.,-1.,0.));
#816=DIRECTION('center_axis',(0.,1.,0.));
#817=DIRECTION('ref_axis',(-0.707106781186548,0.,-0.707106781186548));
#818=DIRECTION('center_axis',(0.,-1.,0.));
#819=DIRECTION('ref_axis',(0.,0.,-1.));
#820=DIRECTION('center_axis',(0.,-1.,0.));
#821=DIRECTION('ref_axis',(0.,0.,-1.));
#822=DIRECTION('',(0.,1.,0.));
#823=DIRECTION('center_axis',(0.,1.,0.));
#824=DIRECTION('ref_axis',(0.,0.,-1.));
#825=DIRECTION('center_axis',(0.,-1.,0.));
#826=DIRECTION('ref_axis',(-1.,0.,0.));
#827=DIRECTION('center_axis',(0.,-1.,0.));
#828=DIRECTION('ref_axis',(1.,0.,0.));
#829=DIRECTION('',(1.,0.,0.));
#830=DIRECTION('',(0.,0.,-1.));
#831=DIRECTION('center_axis',(0.,1.,0.));
#832=DIRECTION('ref_axis',(0.,0.,-1.));
#833=DIRECTION('center_axis',(0.,1.,0.));
#834=DIRECTION('ref_axis',(0.,0.,-1.));
#835=DIRECTION('',(0.,1.,0.));
#836=DIRECTION('center_axis',(0.,0.,1.));
#837=DIRECTION('ref_axis',(1.,0.,0.));
#838=DIRECTION('center_axis',(0.,0.,-1.));
#839=DIRECTION('ref_axis',(1.,0.,0.));
#840=DIRECTION('',(0.,0.,-1.));
#841=DIRECTION('center_axis',(-1.,-5.55111514380531E-16,0.));
#842=DIRECTION('ref_axis',(5.55111514380531E-16,-1.,0.));
#843=DIRECTION('',(5.55111514380531E-16,-1.,0.));
#844=DIRECTION('center_axis',(0.,0.,1.));
#845=DIRECTION('ref_axis',(1.,0.,0.));
#846=CARTESIAN_POINT('',(0.,0.,0.));
#847=CARTESIAN_POINT('Origin',(-4.59627473301407,13.8926450456805,-6.5));
#848=CARTESIAN_POINT('',(-15.,4.58284332369282,-7.21064681272547));
#849=CARTESIAN_POINT('',(-14.7035489375752,5.29349013641829,-6.5));
#850=CARTESIAN_POINT('Origin',(-14.,4.58284332369282,-6.5));
#851=CARTESIAN_POINT('',(-4.9248425630261,14.9745276890783,-6.5));
#852=CARTESIAN_POINT('',(-5.29982367058923,14.6032918584059,-6.5));
#853=CARTESIAN_POINT('',(-4.22129362545094,14.2638808763528,-7.5));
#854=CARTESIAN_POINT('Origin',(-4.22129362545094,14.2638808763528,-6.5));
#855=CARTESIAN_POINT('',(-15.,3.59283123192404,-7.5));
#856=CARTESIAN_POINT('',(-4.59627473301407,13.8926450456805,-7.5));
#857=CARTESIAN_POINT('Origin',(-15.,3.59283123192404,-6.5));
#858=CARTESIAN_POINT('Origin',(-1.12860905154302E-15,10.,-6.5));
#859=CARTESIAN_POINT('',(4.9248425630261,14.9745276890783,-6.5));
#860=CARTESIAN_POINT('',(4.22129362545094,14.2638808763528,-7.5));
#861=CARTESIAN_POINT('Origin',(4.22129362545094,14.2638808763528,-6.5));
#862=CARTESIAN_POINT('Origin',(-1.12860905154302E-15,10.,-7.5));
#863=CARTESIAN_POINT('Origin',(-1.12860905154302E-15,10.,-6.5));
#864=CARTESIAN_POINT('Origin',(9.63385345150103,8.90538120114133,-6.5));
#865=CARTESIAN_POINT('',(15.,4.58284332369283,-7.21064681272547));
#866=CARTESIAN_POINT('',(15.,3.59283123192405,-7.5));
#867=CARTESIAN_POINT('Origin',(15.,3.59283123192405,-6.5));
#868=CARTESIAN_POINT('',(9.63385345150103,8.90538120114133,-7.5));
#869=CARTESIAN_POINT('',(14.7035489375752,5.2934901364183,-6.5));
#870=CARTESIAN_POINT('',(10.3374023890762,9.6160280138668,-6.5));
#871=CARTESIAN_POINT('Origin',(14.,4.58284332369283,-6.5));
#872=CARTESIAN_POINT('Origin',(-2.22044604925031E-15,8.5,-7.5));
#873=CARTESIAN_POINT('',(15.,0.,-7.5));
#874=CARTESIAN_POINT('',(15.,0.,-7.5));
#875=CARTESIAN_POINT('',(-15.,0.,-7.5));
#876=CARTESIAN_POINT('',(-15.,0.,-7.5));
#877=CARTESIAN_POINT('',(-15.,1.00000001490116,-7.5));
#878=CARTESIAN_POINT('',(-4.,10.,-7.5));
#879=CARTESIAN_POINT('Origin',(-1.1286090515511E-15,10.,-7.5));
#880=CARTESIAN_POINT('Origin',(15.,0.,0.));
#881=CARTESIAN_POINT('',(15.,4.58284332369283,7.21064681272547));
#882=CARTESIAN_POINT('',(15.,4.58284332369283,0.));
#883=CARTESIAN_POINT('',(15.,3.59283123192405,7.5));
#884=CARTESIAN_POINT('Origin',(15.,3.59283123192405,6.5));
#885=CARTESIAN_POINT('',(15.,0.,7.5));
#886=CARTESIAN_POINT('',(15.,0.,7.5));
#887=CARTESIAN_POINT('',(15.,0.,0.));
#888=CARTESIAN_POINT('Origin',(14.,4.58284332369283,0.));
#889=CARTESIAN_POINT('',(14.7035489375752,5.2934901364183,-3.5));
#890=CARTESIAN_POINT('',(14.7035489375752,5.2934901364183,0.));
#891=CARTESIAN_POINT('',(14.9088345874868,5.,-3.5));
#892=CARTESIAN_POINT('Origin',(14.,4.58284332369283,-3.5));
#893=CARTESIAN_POINT('',(14.9088345874868,5.,3.5));
#894=CARTESIAN_POINT('',(14.9088345874868,5.,0.));
#895=CARTESIAN_POINT('',(14.7035489375752,5.2934901364183,3.5));
#896=CARTESIAN_POINT('Origin',(14.,4.58284332369283,3.5));
#897=CARTESIAN_POINT('',(14.7035489375752,5.29349013641829,6.5));
#898=CARTESIAN_POINT('',(14.7035489375752,5.2934901364183,0.));
#899=CARTESIAN_POINT('Origin',(14.,4.58284332369283,6.5));
#900=CARTESIAN_POINT('Origin',(-14.,4.58284332369282,0.));
#901=CARTESIAN_POINT('',(-15.,4.58284332369282,7.21064681272547));
#902=CARTESIAN_POINT('',(-15.,4.58284332369282,0.));
#903=CARTESIAN_POINT('',(-14.7035489375752,5.29349013641829,6.5));
#904=CARTESIAN_POINT('Origin',(-14.,4.58284332369282,6.5));
#905=CARTESIAN_POINT('',(-14.7035489375752,5.29349013641829,3.5));
#906=CARTESIAN_POINT('',(-14.7035489375752,5.29349013641829,0.));
#907=CARTESIAN_POINT('',(-14.9088345874868,5.,3.5));
#908=CARTESIAN_POINT('Origin',(-14.,4.58284332369282,3.5));
#909=CARTESIAN_POINT('',(-14.9088345874868,5.,-3.5));
#910=CARTESIAN_POINT('',(-14.9088345874868,5.,0.));
#911=CARTESIAN_POINT('',(-14.7035489375752,5.29349013641829,-3.5));
#912=CARTESIAN_POINT('Origin',(-14.,4.58284332369282,-3.5));
#913=CARTESIAN_POINT('',(-14.7035489375752,5.29349013641829,0.));
#914=CARTESIAN_POINT('Origin',(9.63385345150103,8.90538120114133,6.5));
#915=CARTESIAN_POINT('',(4.9248425630261,14.9745276890783,6.5));
#916=CARTESIAN_POINT('',(10.3374023890762,9.6160280138668,6.5));
#917=CARTESIAN_POINT('',(4.22129362545094,14.2638808763528,7.5));
#918=CARTESIAN_POINT('Origin',(4.22129362545094,14.2638808763528,6.5));
#919=CARTESIAN_POINT('',(9.63385345150103,8.90538120114133,7.5));
#920=CARTESIAN_POINT('Origin',(-1.12860905154302E-15,10.,6.5));
#921=CARTESIAN_POINT('',(-4.9248425630261,14.9745276890783,6.5));
#922=CARTESIAN_POINT('',(-4.22129362545095,14.2638808763528,7.5));
#923=CARTESIAN_POINT('Origin',(-4.22129362545095,14.2638808763528,6.5));
#924=CARTESIAN_POINT('Origin',(-1.12860905154302E-15,10.,7.5));
#925=CARTESIAN_POINT('Origin',(-1.12860905154302E-15,10.,6.5));
#926=CARTESIAN_POINT('Origin',(-4.59627473301407,13.8926450456805,6.5));
#927=CARTESIAN_POINT('',(-15.,3.59283123192404,7.5));
#928=CARTESIAN_POINT('',(-4.59627473301407,13.8926450456805,7.5));
#929=CARTESIAN_POINT('',(-5.29982367058923,14.6032918584059,6.5));
#930=CARTESIAN_POINT('Origin',(-15.,3.59283123192404,6.5));
#931=CARTESIAN_POINT('Origin',(-7.,5.,3.5));
#932=CARTESIAN_POINT('',(-8.,11.9300846423814,3.5));
#933=CARTESIAN_POINT('',(-7.94234571176558,11.9871630848758,3.5));
#934=CARTESIAN_POINT('',(-8.,5.,3.5));
#935=CARTESIAN_POINT('',(-8.,5.,3.5));
#936=CARTESIAN_POINT('',(-15.,5.,3.5));
#937=CARTESIAN_POINT('Origin',(-4.9248425630261,14.9745276890783,0.));
#938=CARTESIAN_POINT('',(-8.,11.9300846423814,-3.5));
#939=CARTESIAN_POINT('',(-9.96242128151305,9.98726384453914,-3.5));
#940=CARTESIAN_POINT('',(-7.,12.9200967341502,-2.5));
#941=CARTESIAN_POINT('Origin',(-8.,11.9300846423814,-2.5));
#942=CARTESIAN_POINT('',(-7.,12.9200967341502,2.5));
#943=CARTESIAN_POINT('',(-7.,12.9200967341502,-1.75));
#944=CARTESIAN_POINT('Origin',(-8.,11.9300846423814,2.5));
#945=CARTESIAN_POINT('',(-4.9248425630261,14.9745276890783,0.));
#946=CARTESIAN_POINT('Origin',(-1.12860905154302E-15,10.,0.));
#947=CARTESIAN_POINT('',(4.9248425630261,14.9745276890783,0.));
#948=CARTESIAN_POINT('Origin',(7.,5.,3.5));
#949=CARTESIAN_POINT('',(8.,5.,3.5));
#950=CARTESIAN_POINT('',(15.,5.,3.5));
#951=CARTESIAN_POINT('',(8.,11.9300846423814,3.5));
#952=CARTESIAN_POINT('',(8.,5.,3.5));
#953=CARTESIAN_POINT('',(12.9799244302525,6.9998992403367,3.5));
#954=CARTESIAN_POINT('Origin',(11.,5.,0.));
#955=CARTESIAN_POINT('',(8.,5.,-3.5));
#956=CARTESIAN_POINT('',(7.,5.,-3.5));
#957=CARTESIAN_POINT('',(7.,5.,-2.5));
#958=CARTESIAN_POINT('Origin',(8.,5.,-2.5));
#959=CARTESIAN_POINT('',(7.,5.,2.5));
#960=CARTESIAN_POINT('',(7.,5.,3.5));
#961=CARTESIAN_POINT('Origin',(8.,5.,2.5));
#962=CARTESIAN_POINT('',(11.,5.,1.7));
#963=CARTESIAN_POINT('Origin',(11.,5.,0.));
#964=CARTESIAN_POINT('Origin',(15.,5.,-3.5));
#965=CARTESIAN_POINT('',(8.,11.9300846423814,-3.5));
#966=CARTESIAN_POINT('',(15.,5.,-3.5));
#967=CARTESIAN_POINT('',(8.,5.,-3.5));
#968=CARTESIAN_POINT('Origin',(15.,5.,0.));
#969=CARTESIAN_POINT('',(7.,12.9200967341502,2.5));
#970=CARTESIAN_POINT('Origin',(8.,11.9300846423814,2.5));
#971=CARTESIAN_POINT('',(7.,12.9200967341502,-2.5));
#972=CARTESIAN_POINT('',(7.,12.9200967341502,-1.75));
#973=CARTESIAN_POINT('Origin',(8.,11.9300846423814,-2.5));
#974=CARTESIAN_POINT('Origin',(-8.,5.,2.5));
#975=CARTESIAN_POINT('',(-7.,5.,2.5));
#976=CARTESIAN_POINT('Origin',(-8.,5.,2.5));
#977=CARTESIAN_POINT('',(-7.,5.,2.5));
#978=CARTESIAN_POINT('Origin',(-7.,5.,-3.5));
#979=CARTESIAN_POINT('',(-7.,5.,-2.5));
#980=CARTESIAN_POINT('',(-7.,5.,-2.5));
#981=CARTESIAN_POINT('',(-7.,5.,3.5));
#982=CARTESIAN_POINT('Origin',(-8.,5.,-2.5));
#983=CARTESIAN_POINT('',(-8.,5.,-3.5));
#984=CARTESIAN_POINT('Origin',(-8.,5.,-2.5));
#985=CARTESIAN_POINT('',(-8.,5.,-3.5));
#986=CARTESIAN_POINT('Origin',(-15.,5.,-3.5));
#987=CARTESIAN_POINT('',(-7.,5.,-3.5));
#988=CARTESIAN_POINT('Origin',(8.,5.,2.5));
#989=CARTESIAN_POINT('',(7.,5.,2.5));
#990=CARTESIAN_POINT('Origin',(7.,5.,-3.5));
#991=CARTESIAN_POINT('',(7.,5.,-2.5));
#992=CARTESIAN_POINT('Origin',(8.,5.,-2.5));
#993=CARTESIAN_POINT('Origin',(-11.,9.35,0.));
#994=CARTESIAN_POINT('',(-11.,0.,1.7));
#995=CARTESIAN_POINT('Origin',(-11.,0.,0.));
#996=CARTESIAN_POINT('',(-11.,5.,1.7));
#997=CARTESIAN_POINT('',(-11.,9.35,1.7));
#998=CARTESIAN_POINT('Origin',(-11.,5.,0.));
#999=CARTESIAN_POINT('Origin',(-11.,5.,0.));
#1000=CARTESIAN_POINT('Origin',(-15.,0.,0.));
#1001=CARTESIAN_POINT('',(-15.,0.,7.5));
#1002=CARTESIAN_POINT('',(-15.,0.,7.5));
#1003=CARTESIAN_POINT('',(-15.,0.,0.));
#1004=CARTESIAN_POINT('',(11.,0.,1.7));
#1005=CARTESIAN_POINT('Origin',(11.,0.,0.));
#1006=CARTESIAN_POINT('Origin',(11.,9.35,0.));
#1007=CARTESIAN_POINT('',(11.,9.35,1.7));
#1008=CARTESIAN_POINT('Origin',(-1.1286090515511E-15,10.,0.));
#1009=CARTESIAN_POINT('',(-4.,10.,7.5));
#1010=CARTESIAN_POINT('Origin',(-1.1286090515511E-15,10.,7.5));
#1011=CARTESIAN_POINT('',(-4.,10.,0.));
#1012=CARTESIAN_POINT('Origin',(-15.,4.99999999999999,0.));
#1013=CARTESIAN_POINT('',(-15.,1.00000001490116,7.5));
#1014=CARTESIAN_POINT('Origin',(-2.22044604925031E-15,8.5,7.5));
#1015=UNCERTAINTY_MEASURE_WITH_UNIT(LENGTH_MEASURE(0.01),#1019,
'DISTANCE_ACCURACY_VALUE',
'Maximum model space distance between geometric entities at asserted c
onnectivities');
#1016=UNCERTAINTY_MEASURE_WITH_UNIT(LENGTH_MEASURE(0.01),#1019,
'DISTANCE_ACCURACY_VALUE',
'Maximum model space distance between geometric entities at asserted c
onnectivities');
#1017=(
GEOMETRIC_REPRESENTATION_CONTEXT(3)
GLOBAL_UNCERTAINTY_ASSIGNED_CONTEXT((#1015))
GLOBAL_UNIT_ASSIGNED_CONTEXT((#1019,#1021,#1022))
REPRESENTATION_CONTEXT('','3D')
);
#1018=(
GEOMETRIC_REPRESENTATION_CONTEXT(3)
GLOBAL_UNCERTAINTY_ASSIGNED_CONTEXT((#1016))
GLOBAL_UNIT_ASSIGNED_CONTEXT((#1019,#1021,#1022))
REPRESENTATION_CONTEXT('','3D')
);
#1019=(
LENGTH_UNIT()
NAMED_UNIT(*)
SI_UNIT(.MILLI.,.METRE.)
);
#1020=(
LENGTH_UNIT()
NAMED_UNIT(*)
SI_UNIT($,.METRE.)
);
#1021=(
NAMED_UNIT(*)
PLANE_ANGLE_UNIT()
SI_UNIT($,.RADIAN.)
);
#1022=(
NAMED_UNIT(*)
SI_UNIT($,.STERADIAN.)
SOLID_ANGLE_UNIT()
);
#1023=SHAPE_DEFINITION_REPRESENTATION(#1024,#1025);
#1024=PRODUCT_DEFINITION_SHAPE('',$,#1027);
#1025=SHAPE_REPRESENTATION('',(#599),#1017);
#1026=PRODUCT_DEFINITION_CONTEXT('part definition',#1031,'design');
#1027=PRODUCT_DEFINITION('BC linear actuator bottom attachment',
'BC linear actuator bottom attachment v1',#1028,#1026);
#1028=PRODUCT_DEFINITION_FORMATION('',$,#1033);
#1029=PRODUCT_RELATED_PRODUCT_CATEGORY(
'BC linear actuator bottom attachment v1',
'BC linear actuator bottom attachment v1',(#1033));
#1030=APPLICATION_PROTOCOL_DEFINITION('international standard',
'automotive_design',2009,#1031);
#1031=APPLICATION_CONTEXT(
'Core Data for Automotive Mechanical Design Process');
#1032=PRODUCT_CONTEXT('part definition',#1031,'mechanical');
#1033=PRODUCT('BC linear actuator bottom attachment',
'BC linear actuator bottom attachment v1',$,(#1032));
#1034=PRESENTATION_STYLE_ASSIGNMENT((#1035));
#1035=SURFACE_STYLE_USAGE(.BOTH.,#1036);
#1036=SURFACE_SIDE_STYLE('',(#1037));
#1037=SURFACE_STYLE_FILL_AREA(#1038);
#1038=FILL_AREA_STYLE('Steel - Satin',(#1039));
#1039=FILL_AREA_STYLE_COLOUR('Steel - Satin',#1040);
#1040=COLOUR_RGB('Steel - Satin',0.627450980392157,0.627450980392157,0.627450980392157);
ENDSEC;
END-ISO-10303-21;
