ISO-10303-21;
HEADER;
/* Generated by software containing ST-Developer
 * from STEP Tools, Inc. (www.steptools.com) 
 */

FILE_DESCRIPTION(
/* description */ (''),
/* implementation_level */ '2;1');

FILE_NAME(
/* name */ 'BC linear drive plate v6.step',
/* time_stamp */ '2024-06-12T15:24:51+02:00',
/* author */ (''),
/* organization */ (''),
/* preprocessor_version */ 'ST-DEVELOPER v20',
/* originating_system */ 'Autodesk Translation Framework v13.14.0.145',

/* authorisation */ '');

FILE_SCHEMA (('AUTOMOTIVE_DESIGN { 1 0 10303 214 3 1 1 }'));
ENDSEC;

DATA;
#10=MECHANICAL_DESIGN_GEOMETRIC_PRESENTATION_REPRESENTATION('',(#13),#978);
#11=SHAPE_REPRESENTATION_RELATIONSHIP('SRR','None',#985,#12);
#12=ADVANCED_BREP_SHAPE_REPRESENTATION('',(#14),#977);
#13=STYLED_ITEM('',(#994),#14);
#14=MANIFOLD_SOLID_BREP('Body1',#580);
#15=CONICAL_SURFACE('',#620,0.833,1.02974425867665);
#16=CONICAL_SURFACE('',#624,0.833,1.02974425867665);
#17=CONICAL_SURFACE('',#628,0.833,1.02974425867665);
#18=CONICAL_SURFACE('',#632,0.833,1.02974425867665);
#19=CONICAL_SURFACE('',#636,0.833,1.02974425867665);
#20=CONICAL_SURFACE('',#640,0.833,1.02974425867665);
#21=CYLINDRICAL_SURFACE('',#616,2.117);
#22=CYLINDRICAL_SURFACE('',#617,2.117);
#23=CYLINDRICAL_SURFACE('',#618,2.117);
#24=CYLINDRICAL_SURFACE('',#619,2.117);
#25=CYLINDRICAL_SURFACE('',#622,1.666);
#26=CYLINDRICAL_SURFACE('',#626,1.666);
#27=CYLINDRICAL_SURFACE('',#630,1.666);
#28=CYLINDRICAL_SURFACE('',#634,1.666);
#29=CYLINDRICAL_SURFACE('',#638,1.666);
#30=CYLINDRICAL_SURFACE('',#642,1.666);
#31=CYLINDRICAL_SURFACE('',#646,19.5);
#32=CYLINDRICAL_SURFACE('',#647,20.);
#33=CYLINDRICAL_SURFACE('',#648,11.);
#34=FACE_BOUND('',#114,.T.);
#35=FACE_BOUND('',#115,.T.);
#36=FACE_BOUND('',#116,.T.);
#37=FACE_BOUND('',#117,.T.);
#38=FACE_BOUND('',#118,.T.);
#39=FACE_BOUND('',#119,.T.);
#40=FACE_BOUND('',#120,.T.);
#41=FACE_BOUND('',#124,.T.);
#42=FACE_BOUND('',#125,.T.);
#43=FACE_BOUND('',#126,.T.);
#44=FACE_BOUND('',#127,.T.);
#45=FACE_BOUND('',#128,.T.);
#46=FACE_BOUND('',#129,.T.);
#47=FACE_BOUND('',#155,.T.);
#48=FACE_BOUND('',#156,.T.);
#49=FACE_BOUND('',#157,.T.);
#50=FACE_BOUND('',#158,.T.);
#51=FACE_BOUND('',#159,.T.);
#52=FACE_BOUND('',#160,.T.);
#53=FACE_BOUND('',#161,.T.);
#54=CIRCLE('',#597,19.5);
#55=CIRCLE('',#598,20.);
#56=CIRCLE('',#599,11.);
#57=CIRCLE('',#600,2.117);
#58=CIRCLE('',#601,2.117);
#59=CIRCLE('',#602,2.117);
#60=CIRCLE('',#603,2.117);
#61=CIRCLE('',#607,20.);
#62=CIRCLE('',#608,19.5);
#63=CIRCLE('',#609,2.117);
#64=CIRCLE('',#610,2.117);
#65=CIRCLE('',#611,2.117);
#66=CIRCLE('',#612,2.117);
#67=CIRCLE('',#621,1.666);
#68=CIRCLE('',#623,1.666);
#69=CIRCLE('',#625,1.666);
#70=CIRCLE('',#627,1.666);
#71=CIRCLE('',#629,1.666);
#72=CIRCLE('',#631,1.666);
#73=CIRCLE('',#633,1.666);
#74=CIRCLE('',#635,1.666);
#75=CIRCLE('',#637,1.666);
#76=CIRCLE('',#639,1.666);
#77=CIRCLE('',#641,1.666);
#78=CIRCLE('',#643,1.666);
#79=CIRCLE('',#649,11.);
#80=FACE_OUTER_BOUND('',#111,.T.);
#81=FACE_OUTER_BOUND('',#112,.T.);
#82=FACE_OUTER_BOUND('',#113,.T.);
#83=FACE_OUTER_BOUND('',#121,.T.);
#84=FACE_OUTER_BOUND('',#122,.T.);
#85=FACE_OUTER_BOUND('',#123,.T.);
#86=FACE_OUTER_BOUND('',#130,.T.);
#87=FACE_OUTER_BOUND('',#131,.T.);
#88=FACE_OUTER_BOUND('',#132,.T.);
#89=FACE_OUTER_BOUND('',#133,.T.);
#90=FACE_OUTER_BOUND('',#134,.T.);
#91=FACE_OUTER_BOUND('',#135,.T.);
#92=FACE_OUTER_BOUND('',#136,.T.);
#93=FACE_OUTER_BOUND('',#137,.T.);
#94=FACE_OUTER_BOUND('',#138,.T.);
#95=FACE_OUTER_BOUND('',#139,.T.);
#96=FACE_OUTER_BOUND('',#140,.T.);
#97=FACE_OUTER_BOUND('',#141,.T.);
#98=FACE_OUTER_BOUND('',#142,.T.);
#99=FACE_OUTER_BOUND('',#143,.T.);
#100=FACE_OUTER_BOUND('',#144,.T.);
#101=FACE_OUTER_BOUND('',#145,.T.);
#102=FACE_OUTER_BOUND('',#146,.T.);
#103=FACE_OUTER_BOUND('',#147,.T.);
#104=FACE_OUTER_BOUND('',#148,.T.);
#105=FACE_OUTER_BOUND('',#149,.T.);
#106=FACE_OUTER_BOUND('',#150,.T.);
#107=FACE_OUTER_BOUND('',#151,.T.);
#108=FACE_OUTER_BOUND('',#152,.T.);
#109=FACE_OUTER_BOUND('',#153,.T.);
#110=FACE_OUTER_BOUND('',#154,.T.);
#111=EDGE_LOOP('',(#387,#388,#389,#390));
#112=EDGE_LOOP('',(#391,#392,#393,#394,#395,#396));
#113=EDGE_LOOP('',(#397,#398,#399,#400,#401,#402,#403,#404));
#114=EDGE_LOOP('',(#405));
#115=EDGE_LOOP('',(#406));
#116=EDGE_LOOP('',(#407));
#117=EDGE_LOOP('',(#408));
#118=EDGE_LOOP('',(#409));
#119=EDGE_LOOP('',(#410));
#120=EDGE_LOOP('',(#411));
#121=EDGE_LOOP('',(#412,#413,#414,#415));
#122=EDGE_LOOP('',(#416,#417,#418,#419,#420,#421));
#123=EDGE_LOOP('',(#422,#423,#424,#425,#426,#427));
#124=EDGE_LOOP('',(#428));
#125=EDGE_LOOP('',(#429));
#126=EDGE_LOOP('',(#430));
#127=EDGE_LOOP('',(#431));
#128=EDGE_LOOP('',(#432));
#129=EDGE_LOOP('',(#433));
#130=EDGE_LOOP('',(#434,#435,#436,#437));
#131=EDGE_LOOP('',(#438,#439,#440,#441));
#132=EDGE_LOOP('',(#442,#443,#444,#445));
#133=EDGE_LOOP('',(#446,#447,#448,#449));
#134=EDGE_LOOP('',(#450,#451,#452,#453));
#135=EDGE_LOOP('',(#454,#455,#456,#457));
#136=EDGE_LOOP('',(#458,#459,#460,#461));
#137=EDGE_LOOP('',(#462,#463,#464));
#138=EDGE_LOOP('',(#465,#466,#467,#468));
#139=EDGE_LOOP('',(#469,#470,#471));
#140=EDGE_LOOP('',(#472,#473,#474,#475));
#141=EDGE_LOOP('',(#476,#477,#478));
#142=EDGE_LOOP('',(#479,#480,#481,#482));
#143=EDGE_LOOP('',(#483,#484,#485));
#144=EDGE_LOOP('',(#486,#487,#488,#489));
#145=EDGE_LOOP('',(#490,#491,#492));
#146=EDGE_LOOP('',(#493,#494,#495,#496));
#147=EDGE_LOOP('',(#497,#498,#499));
#148=EDGE_LOOP('',(#500,#501,#502,#503));
#149=EDGE_LOOP('',(#504,#505,#506,#507));
#150=EDGE_LOOP('',(#508,#509,#510,#511));
#151=EDGE_LOOP('',(#512,#513,#514,#515));
#152=EDGE_LOOP('',(#516,#517,#518,#519));
#153=EDGE_LOOP('',(#520,#521,#522,#523));
#154=EDGE_LOOP('',(#524,#525,#526,#527,#528,#529));
#155=EDGE_LOOP('',(#530));
#156=EDGE_LOOP('',(#531));
#157=EDGE_LOOP('',(#532));
#158=EDGE_LOOP('',(#533));
#159=EDGE_LOOP('',(#534));
#160=EDGE_LOOP('',(#535));
#161=EDGE_LOOP('',(#536));
#162=LINE('',#820,#211);
#163=LINE('',#822,#212);
#164=LINE('',#824,#213);
#165=LINE('',#825,#214);
#166=LINE('',#828,#215);
#167=LINE('',#830,#216);
#168=LINE('',#832,#217);
#169=LINE('',#834,#218);
#170=LINE('',#835,#219);
#171=LINE('',#838,#220);
#172=LINE('',#840,#221);
#173=LINE('',#842,#222);
#174=LINE('',#844,#223);
#175=LINE('',#846,#224);
#176=LINE('',#847,#225);
#177=LINE('',#864,#226);
#178=LINE('',#866,#227);
#179=LINE('',#867,#228);
#180=LINE('',#870,#229);
#181=LINE('',#872,#230);
#182=LINE('',#874,#231);
#183=LINE('',#875,#232);
#184=LINE('',#877,#233);
#185=LINE('',#878,#234);
#186=LINE('',#893,#235);
#187=LINE('',#894,#236);
#188=LINE('',#897,#237);
#189=LINE('',#898,#238);
#190=LINE('',#900,#239);
#191=LINE('',#902,#240);
#192=LINE('',#904,#241);
#193=LINE('',#906,#242);
#194=LINE('',#908,#243);
#195=LINE('',#913,#244);
#196=LINE('',#917,#245);
#197=LINE('',#922,#246);
#198=LINE('',#926,#247);
#199=LINE('',#931,#248);
#200=LINE('',#935,#249);
#201=LINE('',#940,#250);
#202=LINE('',#944,#251);
#203=LINE('',#949,#252);
#204=LINE('',#953,#253);
#205=LINE('',#958,#254);
#206=LINE('',#962,#255);
#207=LINE('',#964,#256);
#208=LINE('',#967,#257);
#209=LINE('',#969,#258);
#210=LINE('',#972,#259);
#211=VECTOR('',#655,10.);
#212=VECTOR('',#656,10.);
#213=VECTOR('',#657,10.);
#214=VECTOR('',#658,10.);
#215=VECTOR('',#661,10.);
#216=VECTOR('',#662,10.);
#217=VECTOR('',#663,10.);
#218=VECTOR('',#664,10.);
#219=VECTOR('',#665,10.);
#220=VECTOR('',#668,10.);
#221=VECTOR('',#669,10.);
#222=VECTOR('',#670,10.);
#223=VECTOR('',#671,10.);
#224=VECTOR('',#672,10.);
#225=VECTOR('',#673,10.);
#226=VECTOR('',#690,10.);
#227=VECTOR('',#691,10.);
#228=VECTOR('',#692,10.);
#229=VECTOR('',#695,10.);
#230=VECTOR('',#696,10.);
#231=VECTOR('',#697,10.);
#232=VECTOR('',#698,10.);
#233=VECTOR('',#701,10.);
#234=VECTOR('',#702,10.);
#235=VECTOR('',#717,10.);
#236=VECTOR('',#718,10.);
#237=VECTOR('',#721,10.);
#238=VECTOR('',#722,10.);
#239=VECTOR('',#725,10.);
#240=VECTOR('',#728,2.117);
#241=VECTOR('',#731,2.117);
#242=VECTOR('',#734,2.117);
#243=VECTOR('',#737,2.117);
#244=VECTOR('',#742,0.833);
#245=VECTOR('',#747,1.666);
#246=VECTOR('',#752,0.833);
#247=VECTOR('',#757,1.666);
#248=VECTOR('',#762,0.833);
#249=VECTOR('',#767,1.666);
#250=VECTOR('',#772,0.833);
#251=VECTOR('',#777,1.666);
#252=VECTOR('',#782,0.833);
#253=VECTOR('',#787,1.666);
#254=VECTOR('',#792,0.833);
#255=VECTOR('',#797,1.666);
#256=VECTOR('',#800,10.);
#257=VECTOR('',#805,19.5);
#258=VECTOR('',#808,20.);
#259=VECTOR('',#811,11.);
#260=VERTEX_POINT('',#818);
#261=VERTEX_POINT('',#819);
#262=VERTEX_POINT('',#821);
#263=VERTEX_POINT('',#823);
#264=VERTEX_POINT('',#827);
#265=VERTEX_POINT('',#829);
#266=VERTEX_POINT('',#831);
#267=VERTEX_POINT('',#833);
#268=VERTEX_POINT('',#837);
#269=VERTEX_POINT('',#839);
#270=VERTEX_POINT('',#841);
#271=VERTEX_POINT('',#843);
#272=VERTEX_POINT('',#845);
#273=VERTEX_POINT('',#848);
#274=VERTEX_POINT('',#850);
#275=VERTEX_POINT('',#852);
#276=VERTEX_POINT('',#854);
#277=VERTEX_POINT('',#856);
#278=VERTEX_POINT('',#858);
#279=VERTEX_POINT('',#860);
#280=VERTEX_POINT('',#863);
#281=VERTEX_POINT('',#865);
#282=VERTEX_POINT('',#869);
#283=VERTEX_POINT('',#871);
#284=VERTEX_POINT('',#873);
#285=VERTEX_POINT('',#879);
#286=VERTEX_POINT('',#881);
#287=VERTEX_POINT('',#883);
#288=VERTEX_POINT('',#885);
#289=VERTEX_POINT('',#887);
#290=VERTEX_POINT('',#889);
#291=VERTEX_POINT('',#892);
#292=VERTEX_POINT('',#896);
#293=VERTEX_POINT('',#910);
#294=VERTEX_POINT('',#912);
#295=VERTEX_POINT('',#915);
#296=VERTEX_POINT('',#919);
#297=VERTEX_POINT('',#921);
#298=VERTEX_POINT('',#924);
#299=VERTEX_POINT('',#928);
#300=VERTEX_POINT('',#930);
#301=VERTEX_POINT('',#933);
#302=VERTEX_POINT('',#937);
#303=VERTEX_POINT('',#939);
#304=VERTEX_POINT('',#942);
#305=VERTEX_POINT('',#946);
#306=VERTEX_POINT('',#948);
#307=VERTEX_POINT('',#951);
#308=VERTEX_POINT('',#955);
#309=VERTEX_POINT('',#957);
#310=VERTEX_POINT('',#960);
#311=VERTEX_POINT('',#971);
#312=EDGE_CURVE('',#260,#261,#162,.T.);
#313=EDGE_CURVE('',#261,#262,#163,.T.);
#314=EDGE_CURVE('',#262,#263,#164,.T.);
#315=EDGE_CURVE('',#263,#260,#165,.T.);
#316=EDGE_CURVE('',#264,#261,#166,.T.);
#317=EDGE_CURVE('',#265,#264,#167,.T.);
#318=EDGE_CURVE('',#266,#265,#168,.T.);
#319=EDGE_CURVE('',#266,#267,#169,.T.);
#320=EDGE_CURVE('',#267,#262,#170,.T.);
#321=EDGE_CURVE('',#260,#268,#171,.T.);
#322=EDGE_CURVE('',#269,#268,#172,.T.);
#323=EDGE_CURVE('',#269,#270,#173,.T.);
#324=EDGE_CURVE('',#271,#270,#174,.T.);
#325=EDGE_CURVE('',#271,#272,#175,.T.);
#326=EDGE_CURVE('',#264,#272,#176,.T.);
#327=EDGE_CURVE('',#273,#273,#54,.T.);
#328=EDGE_CURVE('',#274,#274,#55,.T.);
#329=EDGE_CURVE('',#275,#275,#56,.T.);
#330=EDGE_CURVE('',#276,#276,#57,.T.);
#331=EDGE_CURVE('',#277,#277,#58,.T.);
#332=EDGE_CURVE('',#278,#278,#59,.T.);
#333=EDGE_CURVE('',#279,#279,#60,.T.);
#334=EDGE_CURVE('',#268,#280,#177,.T.);
#335=EDGE_CURVE('',#280,#281,#178,.T.);
#336=EDGE_CURVE('',#281,#269,#179,.T.);
#337=EDGE_CURVE('',#281,#282,#180,.T.);
#338=EDGE_CURVE('',#282,#283,#181,.T.);
#339=EDGE_CURVE('',#284,#283,#182,.T.);
#340=EDGE_CURVE('',#270,#284,#183,.T.);
#341=EDGE_CURVE('',#282,#267,#184,.T.);
#342=EDGE_CURVE('',#263,#280,#185,.T.);
#343=EDGE_CURVE('',#285,#285,#61,.T.);
#344=EDGE_CURVE('',#286,#286,#62,.T.);
#345=EDGE_CURVE('',#287,#287,#63,.T.);
#346=EDGE_CURVE('',#288,#288,#64,.T.);
#347=EDGE_CURVE('',#289,#289,#65,.T.);
#348=EDGE_CURVE('',#290,#290,#66,.T.);
#349=EDGE_CURVE('',#272,#291,#186,.T.);
#350=EDGE_CURVE('',#291,#265,#187,.T.);
#351=EDGE_CURVE('',#292,#271,#188,.T.);
#352=EDGE_CURVE('',#291,#292,#189,.T.);
#353=EDGE_CURVE('',#284,#292,#190,.T.);
#354=EDGE_CURVE('',#290,#279,#191,.T.);
#355=EDGE_CURVE('',#289,#278,#192,.T.);
#356=EDGE_CURVE('',#288,#277,#193,.T.);
#357=EDGE_CURVE('',#287,#276,#194,.T.);
#358=EDGE_CURVE('',#293,#293,#67,.T.);
#359=EDGE_CURVE('',#293,#294,#195,.T.);
#360=EDGE_CURVE('',#295,#295,#68,.T.);
#361=EDGE_CURVE('',#295,#293,#196,.T.);
#362=EDGE_CURVE('',#296,#296,#69,.T.);
#363=EDGE_CURVE('',#296,#297,#197,.T.);
#364=EDGE_CURVE('',#298,#298,#70,.T.);
#365=EDGE_CURVE('',#298,#296,#198,.T.);
#366=EDGE_CURVE('',#299,#299,#71,.T.);
#367=EDGE_CURVE('',#299,#300,#199,.T.);
#368=EDGE_CURVE('',#301,#301,#72,.T.);
#369=EDGE_CURVE('',#301,#299,#200,.T.);
#370=EDGE_CURVE('',#302,#302,#73,.T.);
#371=EDGE_CURVE('',#302,#303,#201,.T.);
#372=EDGE_CURVE('',#304,#304,#74,.T.);
#373=EDGE_CURVE('',#304,#302,#202,.T.);
#374=EDGE_CURVE('',#305,#305,#75,.T.);
#375=EDGE_CURVE('',#305,#306,#203,.T.);
#376=EDGE_CURVE('',#307,#307,#76,.T.);
#377=EDGE_CURVE('',#307,#305,#204,.T.);
#378=EDGE_CURVE('',#308,#308,#77,.T.);
#379=EDGE_CURVE('',#308,#309,#205,.T.);
#380=EDGE_CURVE('',#310,#310,#78,.T.);
#381=EDGE_CURVE('',#310,#308,#206,.T.);
#382=EDGE_CURVE('',#283,#266,#207,.T.);
#383=EDGE_CURVE('',#273,#286,#208,.T.);
#384=EDGE_CURVE('',#274,#285,#209,.T.);
#385=EDGE_CURVE('',#275,#311,#210,.T.);
#386=EDGE_CURVE('',#311,#311,#79,.T.);
#387=ORIENTED_EDGE('',*,*,#312,.T.);
#388=ORIENTED_EDGE('',*,*,#313,.T.);
#389=ORIENTED_EDGE('',*,*,#314,.T.);
#390=ORIENTED_EDGE('',*,*,#315,.T.);
#391=ORIENTED_EDGE('',*,*,#313,.F.);
#392=ORIENTED_EDGE('',*,*,#316,.F.);
#393=ORIENTED_EDGE('',*,*,#317,.F.);
#394=ORIENTED_EDGE('',*,*,#318,.F.);
#395=ORIENTED_EDGE('',*,*,#319,.T.);
#396=ORIENTED_EDGE('',*,*,#320,.T.);
#397=ORIENTED_EDGE('',*,*,#312,.F.);
#398=ORIENTED_EDGE('',*,*,#321,.T.);
#399=ORIENTED_EDGE('',*,*,#322,.F.);
#400=ORIENTED_EDGE('',*,*,#323,.T.);
#401=ORIENTED_EDGE('',*,*,#324,.F.);
#402=ORIENTED_EDGE('',*,*,#325,.T.);
#403=ORIENTED_EDGE('',*,*,#326,.F.);
#404=ORIENTED_EDGE('',*,*,#316,.T.);
#405=ORIENTED_EDGE('',*,*,#327,.T.);
#406=ORIENTED_EDGE('',*,*,#328,.T.);
#407=ORIENTED_EDGE('',*,*,#329,.T.);
#408=ORIENTED_EDGE('',*,*,#330,.T.);
#409=ORIENTED_EDGE('',*,*,#331,.T.);
#410=ORIENTED_EDGE('',*,*,#332,.T.);
#411=ORIENTED_EDGE('',*,*,#333,.T.);
#412=ORIENTED_EDGE('',*,*,#322,.T.);
#413=ORIENTED_EDGE('',*,*,#334,.T.);
#414=ORIENTED_EDGE('',*,*,#335,.T.);
#415=ORIENTED_EDGE('',*,*,#336,.T.);
#416=ORIENTED_EDGE('',*,*,#336,.F.);
#417=ORIENTED_EDGE('',*,*,#337,.T.);
#418=ORIENTED_EDGE('',*,*,#338,.T.);
#419=ORIENTED_EDGE('',*,*,#339,.F.);
#420=ORIENTED_EDGE('',*,*,#340,.F.);
#421=ORIENTED_EDGE('',*,*,#323,.F.);
#422=ORIENTED_EDGE('',*,*,#314,.F.);
#423=ORIENTED_EDGE('',*,*,#320,.F.);
#424=ORIENTED_EDGE('',*,*,#341,.F.);
#425=ORIENTED_EDGE('',*,*,#337,.F.);
#426=ORIENTED_EDGE('',*,*,#335,.F.);
#427=ORIENTED_EDGE('',*,*,#342,.F.);
#428=ORIENTED_EDGE('',*,*,#343,.F.);
#429=ORIENTED_EDGE('',*,*,#344,.F.);
#430=ORIENTED_EDGE('',*,*,#345,.T.);
#431=ORIENTED_EDGE('',*,*,#346,.T.);
#432=ORIENTED_EDGE('',*,*,#347,.T.);
#433=ORIENTED_EDGE('',*,*,#348,.T.);
#434=ORIENTED_EDGE('',*,*,#326,.T.);
#435=ORIENTED_EDGE('',*,*,#349,.T.);
#436=ORIENTED_EDGE('',*,*,#350,.T.);
#437=ORIENTED_EDGE('',*,*,#317,.T.);
#438=ORIENTED_EDGE('',*,*,#349,.F.);
#439=ORIENTED_EDGE('',*,*,#325,.F.);
#440=ORIENTED_EDGE('',*,*,#351,.F.);
#441=ORIENTED_EDGE('',*,*,#352,.F.);
#442=ORIENTED_EDGE('',*,*,#324,.T.);
#443=ORIENTED_EDGE('',*,*,#340,.T.);
#444=ORIENTED_EDGE('',*,*,#353,.T.);
#445=ORIENTED_EDGE('',*,*,#351,.T.);
#446=ORIENTED_EDGE('',*,*,#348,.F.);
#447=ORIENTED_EDGE('',*,*,#354,.T.);
#448=ORIENTED_EDGE('',*,*,#333,.F.);
#449=ORIENTED_EDGE('',*,*,#354,.F.);
#450=ORIENTED_EDGE('',*,*,#347,.F.);
#451=ORIENTED_EDGE('',*,*,#355,.T.);
#452=ORIENTED_EDGE('',*,*,#332,.F.);
#453=ORIENTED_EDGE('',*,*,#355,.F.);
#454=ORIENTED_EDGE('',*,*,#346,.F.);
#455=ORIENTED_EDGE('',*,*,#356,.T.);
#456=ORIENTED_EDGE('',*,*,#331,.F.);
#457=ORIENTED_EDGE('',*,*,#356,.F.);
#458=ORIENTED_EDGE('',*,*,#345,.F.);
#459=ORIENTED_EDGE('',*,*,#357,.T.);
#460=ORIENTED_EDGE('',*,*,#330,.F.);
#461=ORIENTED_EDGE('',*,*,#357,.F.);
#462=ORIENTED_EDGE('',*,*,#358,.F.);
#463=ORIENTED_EDGE('',*,*,#359,.T.);
#464=ORIENTED_EDGE('',*,*,#359,.F.);
#465=ORIENTED_EDGE('',*,*,#360,.F.);
#466=ORIENTED_EDGE('',*,*,#361,.T.);
#467=ORIENTED_EDGE('',*,*,#358,.T.);
#468=ORIENTED_EDGE('',*,*,#361,.F.);
#469=ORIENTED_EDGE('',*,*,#362,.F.);
#470=ORIENTED_EDGE('',*,*,#363,.T.);
#471=ORIENTED_EDGE('',*,*,#363,.F.);
#472=ORIENTED_EDGE('',*,*,#364,.F.);
#473=ORIENTED_EDGE('',*,*,#365,.T.);
#474=ORIENTED_EDGE('',*,*,#362,.T.);
#475=ORIENTED_EDGE('',*,*,#365,.F.);
#476=ORIENTED_EDGE('',*,*,#366,.F.);
#477=ORIENTED_EDGE('',*,*,#367,.T.);
#478=ORIENTED_EDGE('',*,*,#367,.F.);
#479=ORIENTED_EDGE('',*,*,#368,.F.);
#480=ORIENTED_EDGE('',*,*,#369,.T.);
#481=ORIENTED_EDGE('',*,*,#366,.T.);
#482=ORIENTED_EDGE('',*,*,#369,.F.);
#483=ORIENTED_EDGE('',*,*,#370,.F.);
#484=ORIENTED_EDGE('',*,*,#371,.T.);
#485=ORIENTED_EDGE('',*,*,#371,.F.);
#486=ORIENTED_EDGE('',*,*,#372,.F.);
#487=ORIENTED_EDGE('',*,*,#373,.T.);
#488=ORIENTED_EDGE('',*,*,#370,.T.);
#489=ORIENTED_EDGE('',*,*,#373,.F.);
#490=ORIENTED_EDGE('',*,*,#374,.F.);
#491=ORIENTED_EDGE('',*,*,#375,.T.);
#492=ORIENTED_EDGE('',*,*,#375,.F.);
#493=ORIENTED_EDGE('',*,*,#376,.F.);
#494=ORIENTED_EDGE('',*,*,#377,.T.);
#495=ORIENTED_EDGE('',*,*,#374,.T.);
#496=ORIENTED_EDGE('',*,*,#377,.F.);
#497=ORIENTED_EDGE('',*,*,#378,.F.);
#498=ORIENTED_EDGE('',*,*,#379,.T.);
#499=ORIENTED_EDGE('',*,*,#379,.F.);
#500=ORIENTED_EDGE('',*,*,#380,.F.);
#501=ORIENTED_EDGE('',*,*,#381,.T.);
#502=ORIENTED_EDGE('',*,*,#378,.T.);
#503=ORIENTED_EDGE('',*,*,#381,.F.);
#504=ORIENTED_EDGE('',*,*,#382,.F.);
#505=ORIENTED_EDGE('',*,*,#338,.F.);
#506=ORIENTED_EDGE('',*,*,#341,.T.);
#507=ORIENTED_EDGE('',*,*,#319,.F.);
#508=ORIENTED_EDGE('',*,*,#315,.F.);
#509=ORIENTED_EDGE('',*,*,#342,.T.);
#510=ORIENTED_EDGE('',*,*,#334,.F.);
#511=ORIENTED_EDGE('',*,*,#321,.F.);
#512=ORIENTED_EDGE('',*,*,#327,.F.);
#513=ORIENTED_EDGE('',*,*,#383,.T.);
#514=ORIENTED_EDGE('',*,*,#344,.T.);
#515=ORIENTED_EDGE('',*,*,#383,.F.);
#516=ORIENTED_EDGE('',*,*,#328,.F.);
#517=ORIENTED_EDGE('',*,*,#384,.T.);
#518=ORIENTED_EDGE('',*,*,#343,.T.);
#519=ORIENTED_EDGE('',*,*,#384,.F.);
#520=ORIENTED_EDGE('',*,*,#329,.F.);
#521=ORIENTED_EDGE('',*,*,#385,.T.);
#522=ORIENTED_EDGE('',*,*,#386,.T.);
#523=ORIENTED_EDGE('',*,*,#385,.F.);
#524=ORIENTED_EDGE('',*,*,#350,.F.);
#525=ORIENTED_EDGE('',*,*,#352,.T.);
#526=ORIENTED_EDGE('',*,*,#353,.F.);
#527=ORIENTED_EDGE('',*,*,#339,.T.);
#528=ORIENTED_EDGE('',*,*,#382,.T.);
#529=ORIENTED_EDGE('',*,*,#318,.T.);
#530=ORIENTED_EDGE('',*,*,#360,.T.);
#531=ORIENTED_EDGE('',*,*,#364,.T.);
#532=ORIENTED_EDGE('',*,*,#368,.T.);
#533=ORIENTED_EDGE('',*,*,#372,.T.);
#534=ORIENTED_EDGE('',*,*,#376,.T.);
#535=ORIENTED_EDGE('',*,*,#380,.T.);
#536=ORIENTED_EDGE('',*,*,#386,.F.);
#537=PLANE('',#594);
#538=PLANE('',#595);
#539=PLANE('',#596);
#540=PLANE('',#604);
#541=PLANE('',#605);
#542=PLANE('',#606);
#543=PLANE('',#613);
#544=PLANE('',#614);
#545=PLANE('',#615);
#546=PLANE('',#644);
#547=PLANE('',#645);
#548=PLANE('',#650);
#549=ADVANCED_FACE('',(#80),#537,.T.);
#550=ADVANCED_FACE('',(#81),#538,.T.);
#551=ADVANCED_FACE('',(#82,#34,#35,#36,#37,#38,#39,#40),#539,.T.);
#552=ADVANCED_FACE('',(#83),#540,.T.);
#553=ADVANCED_FACE('',(#84),#541,.T.);
#554=ADVANCED_FACE('',(#85,#41,#42,#43,#44,#45,#46),#542,.F.);
#555=ADVANCED_FACE('',(#86),#543,.T.);
#556=ADVANCED_FACE('',(#87),#544,.T.);
#557=ADVANCED_FACE('',(#88),#545,.T.);
#558=ADVANCED_FACE('',(#89),#21,.F.);
#559=ADVANCED_FACE('',(#90),#22,.F.);
#560=ADVANCED_FACE('',(#91),#23,.F.);
#561=ADVANCED_FACE('',(#92),#24,.F.);
#562=ADVANCED_FACE('',(#93),#15,.F.);
#563=ADVANCED_FACE('',(#94),#25,.F.);
#564=ADVANCED_FACE('',(#95),#16,.F.);
#565=ADVANCED_FACE('',(#96),#26,.F.);
#566=ADVANCED_FACE('',(#97),#17,.F.);
#567=ADVANCED_FACE('',(#98),#27,.F.);
#568=ADVANCED_FACE('',(#99),#18,.F.);
#569=ADVANCED_FACE('',(#100),#28,.F.);
#570=ADVANCED_FACE('',(#101),#19,.F.);
#571=ADVANCED_FACE('',(#102),#29,.F.);
#572=ADVANCED_FACE('',(#103),#20,.F.);
#573=ADVANCED_FACE('',(#104),#30,.F.);
#574=ADVANCED_FACE('',(#105),#546,.F.);
#575=ADVANCED_FACE('',(#106),#547,.T.);
#576=ADVANCED_FACE('',(#107),#31,.F.);
#577=ADVANCED_FACE('',(#108),#32,.F.);
#578=ADVANCED_FACE('',(#109),#33,.F.);
#579=ADVANCED_FACE('',(#110,#47,#48,#49,#50,#51,#52,#53),#548,.F.);
#580=CLOSED_SHELL('',(#549,#550,#551,#552,#553,#554,#555,#556,#557,#558,
#559,#560,#561,#562,#563,#564,#565,#566,#567,#568,#569,#570,#571,#572,#573,
#574,#575,#576,#577,#578,#579));
#581=DERIVED_UNIT_ELEMENT(#583,1.);
#582=DERIVED_UNIT_ELEMENT(#980,-3.);
#583=(
MASS_UNIT()
NAMED_UNIT(*)
SI_UNIT(.KILO.,.GRAM.)
);
#584=DERIVED_UNIT((#581,#582));
#585=MEASURE_REPRESENTATION_ITEM('density measure',
POSITIVE_RATIO_MEASURE(8490.),#584);
#586=PROPERTY_DEFINITION_REPRESENTATION(#591,#588);
#587=PROPERTY_DEFINITION_REPRESENTATION(#592,#589);
#588=REPRESENTATION('material name',(#590),#977);
#589=REPRESENTATION('density',(#585),#977);
#590=DESCRIPTIVE_REPRESENTATION_ITEM('Brass','Brass');
#591=PROPERTY_DEFINITION('material property','material name',#987);
#592=PROPERTY_DEFINITION('material property','density of part',#987);
#593=AXIS2_PLACEMENT_3D('',#816,#651,#652);
#594=AXIS2_PLACEMENT_3D('',#817,#653,#654);
#595=AXIS2_PLACEMENT_3D('',#826,#659,#660);
#596=AXIS2_PLACEMENT_3D('',#836,#666,#667);
#597=AXIS2_PLACEMENT_3D('',#849,#674,#675);
#598=AXIS2_PLACEMENT_3D('',#851,#676,#677);
#599=AXIS2_PLACEMENT_3D('',#853,#678,#679);
#600=AXIS2_PLACEMENT_3D('',#855,#680,#681);
#601=AXIS2_PLACEMENT_3D('',#857,#682,#683);
#602=AXIS2_PLACEMENT_3D('',#859,#684,#685);
#603=AXIS2_PLACEMENT_3D('',#861,#686,#687);
#604=AXIS2_PLACEMENT_3D('',#862,#688,#689);
#605=AXIS2_PLACEMENT_3D('',#868,#693,#694);
#606=AXIS2_PLACEMENT_3D('',#876,#699,#700);
#607=AXIS2_PLACEMENT_3D('',#880,#703,#704);
#608=AXIS2_PLACEMENT_3D('',#882,#705,#706);
#609=AXIS2_PLACEMENT_3D('',#884,#707,#708);
#610=AXIS2_PLACEMENT_3D('',#886,#709,#710);
#611=AXIS2_PLACEMENT_3D('',#888,#711,#712);
#612=AXIS2_PLACEMENT_3D('',#890,#713,#714);
#613=AXIS2_PLACEMENT_3D('',#891,#715,#716);
#614=AXIS2_PLACEMENT_3D('',#895,#719,#720);
#615=AXIS2_PLACEMENT_3D('',#899,#723,#724);
#616=AXIS2_PLACEMENT_3D('',#901,#726,#727);
#617=AXIS2_PLACEMENT_3D('',#903,#729,#730);
#618=AXIS2_PLACEMENT_3D('',#905,#732,#733);
#619=AXIS2_PLACEMENT_3D('',#907,#735,#736);
#620=AXIS2_PLACEMENT_3D('',#909,#738,#739);
#621=AXIS2_PLACEMENT_3D('',#911,#740,#741);
#622=AXIS2_PLACEMENT_3D('',#914,#743,#744);
#623=AXIS2_PLACEMENT_3D('',#916,#745,#746);
#624=AXIS2_PLACEMENT_3D('',#918,#748,#749);
#625=AXIS2_PLACEMENT_3D('',#920,#750,#751);
#626=AXIS2_PLACEMENT_3D('',#923,#753,#754);
#627=AXIS2_PLACEMENT_3D('',#925,#755,#756);
#628=AXIS2_PLACEMENT_3D('',#927,#758,#759);
#629=AXIS2_PLACEMENT_3D('',#929,#760,#761);
#630=AXIS2_PLACEMENT_3D('',#932,#763,#764);
#631=AXIS2_PLACEMENT_3D('',#934,#765,#766);
#632=AXIS2_PLACEMENT_3D('',#936,#768,#769);
#633=AXIS2_PLACEMENT_3D('',#938,#770,#771);
#634=AXIS2_PLACEMENT_3D('',#941,#773,#774);
#635=AXIS2_PLACEMENT_3D('',#943,#775,#776);
#636=AXIS2_PLACEMENT_3D('',#945,#778,#779);
#637=AXIS2_PLACEMENT_3D('',#947,#780,#781);
#638=AXIS2_PLACEMENT_3D('',#950,#783,#784);
#639=AXIS2_PLACEMENT_3D('',#952,#785,#786);
#640=AXIS2_PLACEMENT_3D('',#954,#788,#789);
#641=AXIS2_PLACEMENT_3D('',#956,#790,#791);
#642=AXIS2_PLACEMENT_3D('',#959,#793,#794);
#643=AXIS2_PLACEMENT_3D('',#961,#795,#796);
#644=AXIS2_PLACEMENT_3D('',#963,#798,#799);
#645=AXIS2_PLACEMENT_3D('',#965,#801,#802);
#646=AXIS2_PLACEMENT_3D('',#966,#803,#804);
#647=AXIS2_PLACEMENT_3D('',#968,#806,#807);
#648=AXIS2_PLACEMENT_3D('',#970,#809,#810);
#649=AXIS2_PLACEMENT_3D('',#973,#812,#813);
#650=AXIS2_PLACEMENT_3D('',#974,#814,#815);
#651=DIRECTION('axis',(0.,0.,1.));
#652=DIRECTION('refdir',(1.,0.,0.));
#653=DIRECTION('center_axis',(0.707106781186548,0.,0.707106781186548));
#654=DIRECTION('ref_axis',(0.707106781186548,0.,-0.707106781186548));
#655=DIRECTION('',(-0.707106781186548,0.,0.707106781186548));
#656=DIRECTION('',(0.,-1.,0.));
#657=DIRECTION('',(0.707106781186548,0.,-0.707106781186548));
#658=DIRECTION('',(0.,1.,0.));
#659=DIRECTION('center_axis',(0.,0.,1.));
#660=DIRECTION('ref_axis',(1.,0.,0.));
#661=DIRECTION('',(1.,0.,0.));
#662=DIRECTION('',(0.,1.,0.));
#663=DIRECTION('',(-1.,0.,0.));
#664=DIRECTION('',(0.,1.,0.));
#665=DIRECTION('',(1.,0.,0.));
#666=DIRECTION('center_axis',(0.,1.,0.));
#667=DIRECTION('ref_axis',(1.,0.,0.));
#668=DIRECTION('',(0.,0.,-1.));
#669=DIRECTION('',(0.707106781186548,0.,0.707106781186548));
#670=DIRECTION('',(-1.,0.,0.));
#671=DIRECTION('',(0.707106781186548,0.,-0.707106781186548));
#672=DIRECTION('',(0.,0.,1.));
#673=DIRECTION('',(-0.707106781186548,0.,-0.707106781186548));
#674=DIRECTION('center_axis',(0.,-1.,0.));
#675=DIRECTION('ref_axis',(1.,0.,0.));
#676=DIRECTION('center_axis',(0.,-1.,0.));
#677=DIRECTION('ref_axis',(1.,0.,0.));
#678=DIRECTION('center_axis',(0.,-1.,0.));
#679=DIRECTION('ref_axis',(1.,0.,0.));
#680=DIRECTION('center_axis',(0.,-1.,0.));
#681=DIRECTION('ref_axis',(0.,0.,-1.));
#682=DIRECTION('center_axis',(0.,-1.,0.));
#683=DIRECTION('ref_axis',(0.,0.,-1.));
#684=DIRECTION('center_axis',(0.,-1.,0.));
#685=DIRECTION('ref_axis',(0.,0.,-1.));
#686=DIRECTION('center_axis',(0.,-1.,0.));
#687=DIRECTION('ref_axis',(0.,0.,-1.));
#688=DIRECTION('center_axis',(0.707106781186548,0.,-0.707106781186548));
#689=DIRECTION('ref_axis',(-0.707106781186548,0.,-0.707106781186548));
#690=DIRECTION('',(0.,-1.,0.));
#691=DIRECTION('',(-0.707106781186548,0.,-0.707106781186548));
#692=DIRECTION('',(0.,1.,0.));
#693=DIRECTION('center_axis',(0.,0.,-1.));
#694=DIRECTION('ref_axis',(-1.,0.,0.));
#695=DIRECTION('',(-1.,0.,0.));
#696=DIRECTION('',(0.,-1.,0.));
#697=DIRECTION('',(1.,0.,0.));
#698=DIRECTION('',(0.,-1.,0.));
#699=DIRECTION('center_axis',(0.,1.,0.));
#700=DIRECTION('ref_axis',(1.,0.,0.));
#701=DIRECTION('',(0.,0.,1.));
#702=DIRECTION('',(0.,0.,-1.));
#703=DIRECTION('center_axis',(0.,-1.,0.));
#704=DIRECTION('ref_axis',(1.,0.,0.));
#705=DIRECTION('center_axis',(0.,-1.,0.));
#706=DIRECTION('ref_axis',(1.,0.,0.));
#707=DIRECTION('center_axis',(0.,1.,0.));
#708=DIRECTION('ref_axis',(0.,0.,-1.));
#709=DIRECTION('center_axis',(0.,1.,0.));
#710=DIRECTION('ref_axis',(0.,0.,-1.));
#711=DIRECTION('center_axis',(0.,1.,0.));
#712=DIRECTION('ref_axis',(0.,0.,-1.));
#713=DIRECTION('center_axis',(0.,1.,0.));
#714=DIRECTION('ref_axis',(0.,0.,-1.));
#715=DIRECTION('center_axis',(-0.707106781186548,0.,0.707106781186548));
#716=DIRECTION('ref_axis',(0.707106781186548,0.,0.707106781186548));
#717=DIRECTION('',(0.,-1.,0.));
#718=DIRECTION('',(0.707106781186548,0.,0.707106781186548));
#719=DIRECTION('center_axis',(-1.,0.,0.));
#720=DIRECTION('ref_axis',(0.,0.,1.));
#721=DIRECTION('',(0.,1.,0.));
#722=DIRECTION('',(0.,0.,-1.));
#723=DIRECTION('center_axis',(-0.707106781186548,0.,-0.707106781186548));
#724=DIRECTION('ref_axis',(-0.707106781186548,0.,0.707106781186548));
#725=DIRECTION('',(-0.707106781186548,0.,0.707106781186548));
#726=DIRECTION('center_axis',(0.,1.,0.));
#727=DIRECTION('ref_axis',(0.,0.,-1.));
#728=DIRECTION('',(0.,1.,0.));
#729=DIRECTION('center_axis',(0.,1.,0.));
#730=DIRECTION('ref_axis',(0.,0.,-1.));
#731=DIRECTION('',(0.,1.,0.));
#732=DIRECTION('center_axis',(0.,1.,0.));
#733=DIRECTION('ref_axis',(0.,0.,-1.));
#734=DIRECTION('',(0.,1.,0.));
#735=DIRECTION('center_axis',(0.,1.,0.));
#736=DIRECTION('ref_axis',(0.,0.,-1.));
#737=DIRECTION('',(0.,1.,0.));
#738=DIRECTION('center_axis',(0.,-1.,0.));
#739=DIRECTION('ref_axis',(0.,0.,-1.));
#740=DIRECTION('center_axis',(0.,1.,0.));
#741=DIRECTION('ref_axis',(0.,0.,-1.));
#742=DIRECTION('',(-1.04972719113862E-16,0.515038074910054,-0.857167300702112));
#743=DIRECTION('center_axis',(0.,1.,0.));
#744=DIRECTION('ref_axis',(0.,0.,-1.));
#745=DIRECTION('center_axis',(0.,1.,0.));
#746=DIRECTION('ref_axis',(0.,0.,-1.));
#747=DIRECTION('',(0.,1.,0.));
#748=DIRECTION('center_axis',(0.,-1.,0.));
#749=DIRECTION('ref_axis',(0.,0.,-1.));
#750=DIRECTION('center_axis',(0.,1.,0.));
#751=DIRECTION('ref_axis',(0.,0.,-1.));
#752=DIRECTION('',(-1.04972719113862E-16,0.515038074910054,-0.857167300702112));
#753=DIRECTION('center_axis',(0.,1.,0.));
#754=DIRECTION('ref_axis',(0.,0.,-1.));
#755=DIRECTION('center_axis',(0.,1.,0.));
#756=DIRECTION('ref_axis',(0.,0.,-1.));
#757=DIRECTION('',(0.,1.,0.));
#758=DIRECTION('center_axis',(0.,-1.,0.));
#759=DIRECTION('ref_axis',(0.,0.,-1.));
#760=DIRECTION('center_axis',(0.,1.,0.));
#761=DIRECTION('ref_axis',(0.,0.,-1.));
#762=DIRECTION('',(-1.04972719113862E-16,0.515038074910054,-0.857167300702112));
#763=DIRECTION('center_axis',(0.,1.,0.));
#764=DIRECTION('ref_axis',(0.,0.,-1.));
#765=DIRECTION('center_axis',(0.,1.,0.));
#766=DIRECTION('ref_axis',(0.,0.,-1.));
#767=DIRECTION('',(0.,1.,0.));
#768=DIRECTION('center_axis',(0.,-1.,0.));
#769=DIRECTION('ref_axis',(0.,0.,-1.));
#770=DIRECTION('center_axis',(0.,1.,0.));
#771=DIRECTION('ref_axis',(0.,0.,-1.));
#772=DIRECTION('',(-1.04972719113862E-16,0.515038074910054,-0.857167300702112));
#773=DIRECTION('center_axis',(0.,1.,0.));
#774=DIRECTION('ref_axis',(0.,0.,-1.));
#775=DIRECTION('center_axis',(0.,1.,0.));
#776=DIRECTION('ref_axis',(0.,0.,-1.));
#777=DIRECTION('',(0.,1.,0.));
#778=DIRECTION('center_axis',(0.,-1.,0.));
#779=DIRECTION('ref_axis',(0.,0.,-1.));
#780=DIRECTION('center_axis',(0.,1.,0.));
#781=DIRECTION('ref_axis',(0.,0.,-1.));
#782=DIRECTION('',(-1.04972719113862E-16,0.515038074910054,-0.857167300702112));
#783=DIRECTION('center_axis',(0.,1.,0.));
#784=DIRECTION('ref_axis',(0.,0.,-1.));
#785=DIRECTION('center_axis',(0.,1.,0.));
#786=DIRECTION('ref_axis',(0.,0.,-1.));
#787=DIRECTION('',(0.,1.,0.));
#788=DIRECTION('center_axis',(0.,-1.,0.));
#789=DIRECTION('ref_axis',(0.,0.,-1.));
#790=DIRECTION('center_axis',(0.,1.,0.));
#791=DIRECTION('ref_axis',(0.,0.,-1.));
#792=DIRECTION('',(-1.04972719113862E-16,0.515038074910054,-0.857167300702112));
#793=DIRECTION('center_axis',(0.,1.,0.));
#794=DIRECTION('ref_axis',(0.,0.,-1.));
#795=DIRECTION('center_axis',(0.,1.,0.));
#796=DIRECTION('ref_axis',(0.,0.,-1.));
#797=DIRECTION('',(0.,1.,0.));
#798=DIRECTION('center_axis',(-1.,0.,0.));
#799=DIRECTION('ref_axis',(0.,0.,1.));
#800=DIRECTION('',(0.,0.,1.));
#801=DIRECTION('center_axis',(1.,0.,0.));
#802=DIRECTION('ref_axis',(0.,0.,-1.));
#803=DIRECTION('center_axis',(0.,1.,0.));
#804=DIRECTION('ref_axis',(1.,0.,0.));
#805=DIRECTION('',(0.,-1.,0.));
#806=DIRECTION('center_axis',(0.,1.,0.));
#807=DIRECTION('ref_axis',(1.,0.,0.));
#808=DIRECTION('',(0.,-1.,0.));
#809=DIRECTION('center_axis',(0.,1.,0.));
#810=DIRECTION('ref_axis',(1.,0.,0.));
#811=DIRECTION('',(0.,-1.,0.));
#812=DIRECTION('center_axis',(0.,-1.,0.));
#813=DIRECTION('ref_axis',(1.,0.,0.));
#814=DIRECTION('center_axis',(0.,1.,0.));
#815=DIRECTION('ref_axis',(1.,0.,0.));
#816=CARTESIAN_POINT('',(0.,0.,0.));
#817=CARTESIAN_POINT('Origin',(87.5,0.,27.5));
#818=CARTESIAN_POINT('',(90.,25.,25.));
#819=CARTESIAN_POINT('',(85.,25.,30.));
#820=CARTESIAN_POINT('',(73.125,25.,41.875));
#821=CARTESIAN_POINT('',(85.,15.,30.));
#822=CARTESIAN_POINT('',(85.,0.,30.));
#823=CARTESIAN_POINT('',(90.,15.,25.));
#824=CARTESIAN_POINT('',(78.75,15.,36.25));
#825=CARTESIAN_POINT('',(90.,0.,25.));
#826=CARTESIAN_POINT('Origin',(-85.,0.,30.));
#827=CARTESIAN_POINT('',(-80.,25.,30.));
#828=CARTESIAN_POINT('',(90.,25.,30.));
#829=CARTESIAN_POINT('',(-80.,0.,30.));
#830=CARTESIAN_POINT('',(-80.,0.,30.));
#831=CARTESIAN_POINT('',(-40.,0.,30.));
#832=CARTESIAN_POINT('',(90.,0.,30.));
#833=CARTESIAN_POINT('',(-40.,15.,30.));
#834=CARTESIAN_POINT('',(-40.,0.,30.));
#835=CARTESIAN_POINT('',(-30.,15.,30.));
#836=CARTESIAN_POINT('Origin',(2.5,25.,0.));
#837=CARTESIAN_POINT('',(90.,25.,-25.));
#838=CARTESIAN_POINT('',(90.,25.,-30.));
#839=CARTESIAN_POINT('',(85.,25.,-30.));
#840=CARTESIAN_POINT('',(73.125,25.,-41.875));
#841=CARTESIAN_POINT('',(-80.,25.,-30.));
#842=CARTESIAN_POINT('',(-85.,25.,-30.));
#843=CARTESIAN_POINT('',(-85.,25.,-25.));
#844=CARTESIAN_POINT('',(-68.125,25.,-41.875));
#845=CARTESIAN_POINT('',(-85.,25.,25.));
#846=CARTESIAN_POINT('',(-85.,25.,30.));
#847=CARTESIAN_POINT('',(-68.125,25.,41.875));
#848=CARTESIAN_POINT('',(42.5,25.,-8.90241161626991E-16));
#849=CARTESIAN_POINT('Origin',(62.,25.,-3.27830241996433E-15));
#850=CARTESIAN_POINT('',(-20.,25.,2.44929359829471E-15));
#851=CARTESIAN_POINT('Origin',(0.,25.,0.));
#852=CARTESIAN_POINT('',(-66.,25.,1.34711147906209E-15));
#853=CARTESIAN_POINT('Origin',(-55.,25.,2.00296714216273E-31));
#854=CARTESIAN_POINT('',(85.57,25.,-21.453));
#855=CARTESIAN_POINT('Origin',(85.57,25.,-23.57));
#856=CARTESIAN_POINT('',(38.43,25.,-21.453));
#857=CARTESIAN_POINT('Origin',(38.43,25.,-23.57));
#858=CARTESIAN_POINT('',(38.43,25.,25.687));
#859=CARTESIAN_POINT('Origin',(38.43,25.,23.57));
#860=CARTESIAN_POINT('',(85.57,25.,25.687));
#861=CARTESIAN_POINT('Origin',(85.57,25.,23.57));
#862=CARTESIAN_POINT('Origin',(87.5,0.,-27.5));
#863=CARTESIAN_POINT('',(90.,15.,-25.));
#864=CARTESIAN_POINT('',(90.,0.,-25.));
#865=CARTESIAN_POINT('',(85.,15.,-30.));
#866=CARTESIAN_POINT('',(78.75,15.,-36.25));
#867=CARTESIAN_POINT('',(85.,0.,-30.));
#868=CARTESIAN_POINT('Origin',(90.,0.,-30.));
#869=CARTESIAN_POINT('',(-40.,15.,-30.));
#870=CARTESIAN_POINT('',(57.5,15.,-30.));
#871=CARTESIAN_POINT('',(-40.,0.,-30.));
#872=CARTESIAN_POINT('',(-40.,0.,-30.));
#873=CARTESIAN_POINT('',(-80.,0.,-30.));
#874=CARTESIAN_POINT('',(-85.,0.,-30.));
#875=CARTESIAN_POINT('',(-80.,0.,-30.));
#876=CARTESIAN_POINT('Origin',(25.,15.,0.));
#877=CARTESIAN_POINT('',(-40.,15.,-30.));
#878=CARTESIAN_POINT('',(90.,15.,15.));
#879=CARTESIAN_POINT('',(-20.,15.,2.44929359829471E-15));
#880=CARTESIAN_POINT('Origin',(0.,15.,0.));
#881=CARTESIAN_POINT('',(42.5,15.,-5.66636367830167E-15));
#882=CARTESIAN_POINT('Origin',(62.,15.,-3.27830241996433E-15));
#883=CARTESIAN_POINT('',(85.57,15.,-21.453));
#884=CARTESIAN_POINT('Origin',(85.57,15.,-23.57));
#885=CARTESIAN_POINT('',(38.43,15.,-21.453));
#886=CARTESIAN_POINT('Origin',(38.43,15.,-23.57));
#887=CARTESIAN_POINT('',(38.43,15.,25.687));
#888=CARTESIAN_POINT('Origin',(38.43,15.,23.57));
#889=CARTESIAN_POINT('',(85.57,15.,25.687));
#890=CARTESIAN_POINT('Origin',(85.57,15.,23.57));
#891=CARTESIAN_POINT('Origin',(-82.5,0.,27.5));
#892=CARTESIAN_POINT('',(-85.,0.,25.));
#893=CARTESIAN_POINT('',(-85.,0.,25.));
#894=CARTESIAN_POINT('',(-68.125,0.,41.875));
#895=CARTESIAN_POINT('Origin',(-85.,0.,-30.));
#896=CARTESIAN_POINT('',(-85.,0.,-25.));
#897=CARTESIAN_POINT('',(-85.,0.,-25.));
#898=CARTESIAN_POINT('',(-85.,0.,30.));
#899=CARTESIAN_POINT('Origin',(-82.5,0.,-27.5));
#900=CARTESIAN_POINT('',(-68.125,0.,-41.875));
#901=CARTESIAN_POINT('Origin',(85.57,30.,23.57));
#902=CARTESIAN_POINT('',(85.57,30.,25.687));
#903=CARTESIAN_POINT('Origin',(38.43,30.,23.57));
#904=CARTESIAN_POINT('',(38.43,30.,25.687));
#905=CARTESIAN_POINT('Origin',(38.43,30.,-23.57));
#906=CARTESIAN_POINT('',(38.43,30.,-21.453));
#907=CARTESIAN_POINT('Origin',(85.57,30.,-23.57));
#908=CARTESIAN_POINT('',(85.57,30.,-21.453));
#909=CARTESIAN_POINT('Origin',(-43.6862915010152,15.50051689565,-11.3137084989847));
#910=CARTESIAN_POINT('',(-43.6862915010152,15.,-9.64770849898475));
#911=CARTESIAN_POINT('Origin',(-43.6862915010152,15.,-11.3137084989847));
#912=CARTESIAN_POINT('',(-43.6862915010152,16.0010337912999,-11.3137084989847));
#913=CARTESIAN_POINT('',(-43.6862915010152,15.50051689565,-10.4807084989848));
#914=CARTESIAN_POINT('Origin',(-43.6862915010152,7.5,-11.3137084989847));
#915=CARTESIAN_POINT('',(-43.6862915010152,0.,-9.64770849898475));
#916=CARTESIAN_POINT('Origin',(-43.6862915010152,0.,-11.3137084989847));
#917=CARTESIAN_POINT('',(-43.6862915010152,7.5,-9.64770849898475));
#918=CARTESIAN_POINT('Origin',(-66.3137084989848,15.50051689565,-11.3137084989848));
#919=CARTESIAN_POINT('',(-66.3137084989848,15.,-9.64770849898476));
#920=CARTESIAN_POINT('Origin',(-66.3137084989848,15.,-11.3137084989848));
#921=CARTESIAN_POINT('',(-66.3137084989848,16.0010337912999,-11.3137084989848));
#922=CARTESIAN_POINT('',(-66.3137084989848,15.50051689565,-10.4807084989848));
#923=CARTESIAN_POINT('Origin',(-66.3137084989848,7.5,-11.3137084989848));
#924=CARTESIAN_POINT('',(-66.3137084989848,0.,-9.64770849898476));
#925=CARTESIAN_POINT('Origin',(-66.3137084989848,0.,-11.3137084989848));
#926=CARTESIAN_POINT('',(-66.3137084989848,7.5,-9.64770849898476));
#927=CARTESIAN_POINT('Origin',(-66.3137084989848,15.50051689565,11.3137084989847));
#928=CARTESIAN_POINT('',(-66.3137084989848,15.,12.9797084989847));
#929=CARTESIAN_POINT('Origin',(-66.3137084989848,15.,11.3137084989847));
#930=CARTESIAN_POINT('',(-66.3137084989848,16.0010337912999,11.3137084989847));
#931=CARTESIAN_POINT('',(-66.3137084989848,15.50051689565,12.1467084989847));
#932=CARTESIAN_POINT('Origin',(-66.3137084989848,7.5,11.3137084989847));
#933=CARTESIAN_POINT('',(-66.3137084989848,0.,12.9797084989847));
#934=CARTESIAN_POINT('Origin',(-66.3137084989848,0.,11.3137084989847));
#935=CARTESIAN_POINT('',(-66.3137084989848,7.5,12.9797084989847));
#936=CARTESIAN_POINT('Origin',(-55.,15.50051689565,16.));
#937=CARTESIAN_POINT('',(-55.,15.,17.666));
#938=CARTESIAN_POINT('Origin',(-55.,15.,16.));
#939=CARTESIAN_POINT('',(-55.,16.0010337912999,16.));
#940=CARTESIAN_POINT('',(-55.,15.50051689565,16.833));
#941=CARTESIAN_POINT('Origin',(-55.,7.5,16.));
#942=CARTESIAN_POINT('',(-55.,0.,17.666));
#943=CARTESIAN_POINT('Origin',(-55.,0.,16.));
#944=CARTESIAN_POINT('',(-55.,7.5,17.666));
#945=CARTESIAN_POINT('Origin',(-55.,15.50051689565,-16.));
#946=CARTESIAN_POINT('',(-55.,15.,-14.334));
#947=CARTESIAN_POINT('Origin',(-55.,15.,-16.));
#948=CARTESIAN_POINT('',(-55.,16.0010337912999,-16.));
#949=CARTESIAN_POINT('',(-55.,15.50051689565,-15.167));
#950=CARTESIAN_POINT('Origin',(-55.,7.5,-16.));
#951=CARTESIAN_POINT('',(-55.,0.,-14.334));
#952=CARTESIAN_POINT('Origin',(-55.,0.,-16.));
#953=CARTESIAN_POINT('',(-55.,7.5,-14.334));
#954=CARTESIAN_POINT('Origin',(-43.6862915010152,15.50051689565,11.3137084989848));
#955=CARTESIAN_POINT('',(-43.6862915010152,15.,12.9797084989848));
#956=CARTESIAN_POINT('Origin',(-43.6862915010152,15.,11.3137084989848));
#957=CARTESIAN_POINT('',(-43.6862915010152,16.0010337912999,11.3137084989848));
#958=CARTESIAN_POINT('',(-43.6862915010152,15.50051689565,12.1467084989848));
#959=CARTESIAN_POINT('Origin',(-43.6862915010152,7.5,11.3137084989848));
#960=CARTESIAN_POINT('',(-43.6862915010152,0.,12.9797084989848));
#961=CARTESIAN_POINT('Origin',(-43.6862915010152,0.,11.3137084989848));
#962=CARTESIAN_POINT('',(-43.6862915010152,7.5,12.9797084989848));
#963=CARTESIAN_POINT('Origin',(-40.,0.,-30.));
#964=CARTESIAN_POINT('',(-40.,0.,-15.));
#965=CARTESIAN_POINT('Origin',(90.,0.,30.));
#966=CARTESIAN_POINT('Origin',(62.,0.,-3.27830241996433E-15));
#967=CARTESIAN_POINT('',(42.5,0.,-8.90241161626991E-16));
#968=CARTESIAN_POINT('Origin',(0.,0.,0.));
#969=CARTESIAN_POINT('',(-20.,0.,2.44929359829471E-15));
#970=CARTESIAN_POINT('Origin',(-55.,0.,2.00296714216273E-31));
#971=CARTESIAN_POINT('',(-66.,0.,1.34711147906209E-15));
#972=CARTESIAN_POINT('',(-66.,0.,1.34711147906209E-15));
#973=CARTESIAN_POINT('Origin',(-55.,0.,2.00296714216273E-31));
#974=CARTESIAN_POINT('Origin',(2.5,0.,0.));
#975=UNCERTAINTY_MEASURE_WITH_UNIT(LENGTH_MEASURE(0.01),#979,
'DISTANCE_ACCURACY_VALUE',
'Maximum model space distance between geometric entities at asserted c
onnectivities');
#976=UNCERTAINTY_MEASURE_WITH_UNIT(LENGTH_MEASURE(0.01),#979,
'DISTANCE_ACCURACY_VALUE',
'Maximum model space distance between geometric entities at asserted c
onnectivities');
#977=(
GEOMETRIC_REPRESENTATION_CONTEXT(3)
GLOBAL_UNCERTAINTY_ASSIGNED_CONTEXT((#975))
GLOBAL_UNIT_ASSIGNED_CONTEXT((#979,#981,#982))
REPRESENTATION_CONTEXT('','3D')
);
#978=(
GEOMETRIC_REPRESENTATION_CONTEXT(3)
GLOBAL_UNCERTAINTY_ASSIGNED_CONTEXT((#976))
GLOBAL_UNIT_ASSIGNED_CONTEXT((#979,#981,#982))
REPRESENTATION_CONTEXT('','3D')
);
#979=(
LENGTH_UNIT()
NAMED_UNIT(*)
SI_UNIT(.MILLI.,.METRE.)
);
#980=(
LENGTH_UNIT()
NAMED_UNIT(*)
SI_UNIT($,.METRE.)
);
#981=(
NAMED_UNIT(*)
PLANE_ANGLE_UNIT()
SI_UNIT($,.RADIAN.)
);
#982=(
NAMED_UNIT(*)
SI_UNIT($,.STERADIAN.)
SOLID_ANGLE_UNIT()
);
#983=SHAPE_DEFINITION_REPRESENTATION(#984,#985);
#984=PRODUCT_DEFINITION_SHAPE('',$,#987);
#985=SHAPE_REPRESENTATION('',(#593),#977);
#986=PRODUCT_DEFINITION_CONTEXT('part definition',#991,'design');
#987=PRODUCT_DEFINITION('BC linear drive plate',
'BC linear drive plate v6',#988,#986);
#988=PRODUCT_DEFINITION_FORMATION('',$,#993);
#989=PRODUCT_RELATED_PRODUCT_CATEGORY('BC linear drive plate v6',
'BC linear drive plate v6',(#993));
#990=APPLICATION_PROTOCOL_DEFINITION('international standard',
'automotive_design',2009,#991);
#991=APPLICATION_CONTEXT(
'Core Data for Automotive Mechanical Design Process');
#992=PRODUCT_CONTEXT('part definition',#991,'mechanical');
#993=PRODUCT('BC linear drive plate','BC linear drive plate v6',$,(#992));
#994=PRESENTATION_STYLE_ASSIGNMENT((#995));
#995=SURFACE_STYLE_USAGE(.BOTH.,#996);
#996=SURFACE_SIDE_STYLE('',(#997));
#997=SURFACE_STYLE_FILL_AREA(#998);
#998=FILL_AREA_STYLE('Brass - Polished',(#999));
#999=FILL_AREA_STYLE_COLOUR('Brass - Polished',#1000);
#1000=COLOUR_RGB('Brass - Polished',0.952941176470588,0.796078431372549,
0.486274509803922);
ENDSEC;
END-ISO-10303-21;
