ISO-10303-21;
HEADER;
/* Generated by software containing ST-Developer
 * from STEP Tools, Inc. (www.steptools.com) 
 */

FILE_DESCRIPTION(
/* description */ (''),
/* implementation_level */ '2;1');

FILE_NAME(
/* name */ 'BC vertical rod endcap v5.step',
/* time_stamp */ '2024-06-12T15:27:29+02:00',
/* author */ (''),
/* organization */ (''),
/* preprocessor_version */ 'ST-DEVELOPER v20',
/* originating_system */ 'Autodesk Translation Framework v13.14.0.145',

/* authorisation */ '');

FILE_SCHEMA (('AUTOMOTIVE_DESIGN { 1 0 10303 214 3 1 1 }'));
ENDSEC;

DATA;
#10=MECHANICAL_DESIGN_GEOMETRIC_PRESENTATION_REPRESENTATION('',(#13),#259);
#11=SHAPE_REPRESENTATION_RELATIONSHIP('SRR','None',#266,#12);
#12=ADVANCED_BREP_SHAPE_REPRESENTATION('',(#14),#258);
#13=STYLED_ITEM('',(#275),#14);
#14=MANIFOLD_SOLID_BREP('Body1',#140);
#15=FACE_BOUND('',#36,.T.);
#16=FACE_BOUND('',#37,.T.);
#17=FACE_BOUND('',#40,.T.);
#18=FACE_BOUND('',#41,.T.);
#19=PLANE('',#164);
#20=PLANE('',#168);
#21=CONICAL_SURFACE('',#157,11.65,0.785398163397449);
#22=CONICAL_SURFACE('',#166,11.65,0.785398163397449);
#23=CONICAL_SURFACE('',#170,4.75,0.785398163397448);
#24=FACE_OUTER_BOUND('',#32,.T.);
#25=FACE_OUTER_BOUND('',#33,.T.);
#26=FACE_OUTER_BOUND('',#34,.T.);
#27=FACE_OUTER_BOUND('',#35,.T.);
#28=FACE_OUTER_BOUND('',#38,.T.);
#29=FACE_OUTER_BOUND('',#39,.T.);
#30=FACE_OUTER_BOUND('',#42,.T.);
#31=FACE_OUTER_BOUND('',#43,.T.);
#32=EDGE_LOOP('',(#95,#96,#97,#98));
#33=EDGE_LOOP('',(#99,#100,#101,#102,#103));
#34=EDGE_LOOP('',(#104,#105,#106,#107,#108,#109));
#35=EDGE_LOOP('',(#110));
#36=EDGE_LOOP('',(#111));
#37=EDGE_LOOP('',(#112));
#38=EDGE_LOOP('',(#113,#114,#115,#116,#117));
#39=EDGE_LOOP('',(#118));
#40=EDGE_LOOP('',(#119));
#41=EDGE_LOOP('',(#120));
#42=EDGE_LOOP('',(#121,#122,#123,#124));
#43=EDGE_LOOP('',(#125,#126,#127,#128));
#44=LINE('',#224,#50);
#45=LINE('',#230,#51);
#46=LINE('',#239,#52);
#47=LINE('',#246,#53);
#48=LINE('',#252,#54);
#49=LINE('',#255,#55);
#50=VECTOR('',#179,1.);
#51=VECTOR('',#186,11.65);
#52=VECTOR('',#197,11.9);
#53=VECTOR('',#206,11.65);
#54=VECTOR('',#213,4.75);
#55=VECTOR('',#218,3.2);
#56=CIRCLE('',#155,1.);
#57=CIRCLE('',#156,1.);
#58=CIRCLE('',#158,11.4);
#59=CIRCLE('',#159,11.9);
#60=CIRCLE('',#160,11.9);
#61=CIRCLE('',#162,11.9);
#62=CIRCLE('',#163,11.9);
#63=CIRCLE('',#165,3.2);
#64=CIRCLE('',#167,11.4);
#65=CIRCLE('',#169,6.3);
#66=CIRCLE('',#171,3.2);
#67=VERTEX_POINT('',#221);
#68=VERTEX_POINT('',#223);
#69=VERTEX_POINT('',#227);
#70=VERTEX_POINT('',#229);
#71=VERTEX_POINT('',#231);
#72=VERTEX_POINT('',#235);
#73=VERTEX_POINT('',#236);
#74=VERTEX_POINT('',#241);
#75=VERTEX_POINT('',#244);
#76=VERTEX_POINT('',#248);
#77=VERTEX_POINT('',#251);
#78=EDGE_CURVE('',#67,#67,#56,.T.);
#79=EDGE_CURVE('',#67,#68,#44,.T.);
#80=EDGE_CURVE('',#68,#68,#57,.T.);
#81=EDGE_CURVE('',#69,#69,#58,.T.);
#82=EDGE_CURVE('',#69,#70,#45,.T.);
#83=EDGE_CURVE('',#70,#71,#59,.T.);
#84=EDGE_CURVE('',#71,#70,#60,.T.);
#85=EDGE_CURVE('',#72,#73,#61,.T.);
#86=EDGE_CURVE('',#73,#72,#62,.T.);
#87=EDGE_CURVE('',#73,#71,#46,.T.);
#88=EDGE_CURVE('',#74,#74,#63,.T.);
#89=EDGE_CURVE('',#75,#75,#64,.T.);
#90=EDGE_CURVE('',#75,#72,#47,.T.);
#91=EDGE_CURVE('',#76,#76,#65,.T.);
#92=EDGE_CURVE('',#76,#77,#48,.T.);
#93=EDGE_CURVE('',#77,#77,#66,.T.);
#94=EDGE_CURVE('',#77,#74,#49,.T.);
#95=ORIENTED_EDGE('',*,*,#78,.F.);
#96=ORIENTED_EDGE('',*,*,#79,.T.);
#97=ORIENTED_EDGE('',*,*,#80,.F.);
#98=ORIENTED_EDGE('',*,*,#79,.F.);
#99=ORIENTED_EDGE('',*,*,#81,.T.);
#100=ORIENTED_EDGE('',*,*,#82,.T.);
#101=ORIENTED_EDGE('',*,*,#83,.T.);
#102=ORIENTED_EDGE('',*,*,#84,.T.);
#103=ORIENTED_EDGE('',*,*,#82,.F.);
#104=ORIENTED_EDGE('',*,*,#85,.F.);
#105=ORIENTED_EDGE('',*,*,#86,.F.);
#106=ORIENTED_EDGE('',*,*,#87,.T.);
#107=ORIENTED_EDGE('',*,*,#83,.F.);
#108=ORIENTED_EDGE('',*,*,#84,.F.);
#109=ORIENTED_EDGE('',*,*,#87,.F.);
#110=ORIENTED_EDGE('',*,*,#81,.F.);
#111=ORIENTED_EDGE('',*,*,#78,.T.);
#112=ORIENTED_EDGE('',*,*,#88,.T.);
#113=ORIENTED_EDGE('',*,*,#89,.T.);
#114=ORIENTED_EDGE('',*,*,#90,.T.);
#115=ORIENTED_EDGE('',*,*,#85,.T.);
#116=ORIENTED_EDGE('',*,*,#86,.T.);
#117=ORIENTED_EDGE('',*,*,#90,.F.);
#118=ORIENTED_EDGE('',*,*,#89,.F.);
#119=ORIENTED_EDGE('',*,*,#80,.T.);
#120=ORIENTED_EDGE('',*,*,#91,.T.);
#121=ORIENTED_EDGE('',*,*,#91,.F.);
#122=ORIENTED_EDGE('',*,*,#92,.T.);
#123=ORIENTED_EDGE('',*,*,#93,.T.);
#124=ORIENTED_EDGE('',*,*,#92,.F.);
#125=ORIENTED_EDGE('',*,*,#93,.F.);
#126=ORIENTED_EDGE('',*,*,#94,.T.);
#127=ORIENTED_EDGE('',*,*,#88,.F.);
#128=ORIENTED_EDGE('',*,*,#94,.F.);
#129=CYLINDRICAL_SURFACE('',#154,1.);
#130=CYLINDRICAL_SURFACE('',#161,11.9);
#131=CYLINDRICAL_SURFACE('',#172,3.2);
#132=ADVANCED_FACE('',(#24),#129,.F.);
#133=ADVANCED_FACE('',(#25),#21,.T.);
#134=ADVANCED_FACE('',(#26),#130,.T.);
#135=ADVANCED_FACE('',(#27,#15,#16),#19,.T.);
#136=ADVANCED_FACE('',(#28),#22,.T.);
#137=ADVANCED_FACE('',(#29,#17,#18),#20,.T.);
#138=ADVANCED_FACE('',(#30),#23,.F.);
#139=ADVANCED_FACE('',(#31),#131,.F.);
#140=CLOSED_SHELL('',(#132,#133,#134,#135,#136,#137,#138,#139));
#141=DERIVED_UNIT_ELEMENT(#143,1.);
#142=DERIVED_UNIT_ELEMENT(#261,-3.);
#143=(
MASS_UNIT()
NAMED_UNIT(*)
SI_UNIT(.KILO.,.GRAM.)
);
#144=DERIVED_UNIT((#141,#142));
#145=MEASURE_REPRESENTATION_ITEM('density measure',
POSITIVE_RATIO_MEASURE(1320.),#144);
#146=PROPERTY_DEFINITION_REPRESENTATION(#151,#148);
#147=PROPERTY_DEFINITION_REPRESENTATION(#152,#149);
#148=REPRESENTATION('material name',(#150),#258);
#149=REPRESENTATION('density',(#145),#258);
#150=DESCRIPTIVE_REPRESENTATION_ITEM('PAEK Plastic','PAEK Plastic');
#151=PROPERTY_DEFINITION('material property','material name',#268);
#152=PROPERTY_DEFINITION('material property','density of part',#268);
#153=AXIS2_PLACEMENT_3D('',#219,#173,#174);
#154=AXIS2_PLACEMENT_3D('',#220,#175,#176);
#155=AXIS2_PLACEMENT_3D('',#222,#177,#178);
#156=AXIS2_PLACEMENT_3D('',#225,#180,#181);
#157=AXIS2_PLACEMENT_3D('',#226,#182,#183);
#158=AXIS2_PLACEMENT_3D('',#228,#184,#185);
#159=AXIS2_PLACEMENT_3D('',#232,#187,#188);
#160=AXIS2_PLACEMENT_3D('',#233,#189,#190);
#161=AXIS2_PLACEMENT_3D('',#234,#191,#192);
#162=AXIS2_PLACEMENT_3D('',#237,#193,#194);
#163=AXIS2_PLACEMENT_3D('',#238,#195,#196);
#164=AXIS2_PLACEMENT_3D('',#240,#198,#199);
#165=AXIS2_PLACEMENT_3D('',#242,#200,#201);
#166=AXIS2_PLACEMENT_3D('',#243,#202,#203);
#167=AXIS2_PLACEMENT_3D('',#245,#204,#205);
#168=AXIS2_PLACEMENT_3D('',#247,#207,#208);
#169=AXIS2_PLACEMENT_3D('',#249,#209,#210);
#170=AXIS2_PLACEMENT_3D('',#250,#211,#212);
#171=AXIS2_PLACEMENT_3D('',#253,#214,#215);
#172=AXIS2_PLACEMENT_3D('',#254,#216,#217);
#173=DIRECTION('axis',(0.,0.,1.));
#174=DIRECTION('refdir',(1.,0.,0.));
#175=DIRECTION('center_axis',(0.,1.,0.));
#176=DIRECTION('ref_axis',(0.,0.,-1.));
#177=DIRECTION('center_axis',(0.,1.,2.22044604925031E-16));
#178=DIRECTION('ref_axis',(0.,0.,-1.));
#179=DIRECTION('',(0.,1.,0.));
#180=DIRECTION('center_axis',(0.,-1.,-2.22044604925031E-16));
#181=DIRECTION('ref_axis',(0.,0.,-1.));
#182=DIRECTION('center_axis',(0.,1.,2.22044604925031E-16));
#183=DIRECTION('ref_axis',(-1.,0.,0.));
#184=DIRECTION('center_axis',(0.,1.,2.22044604925031E-16));
#185=DIRECTION('ref_axis',(-1.,0.,0.));
#186=DIRECTION('',(0.707106781186548,0.707106781186547,2.43604851491927E-16));
#187=DIRECTION('center_axis',(0.,-1.,-2.22044604925031E-16));
#188=DIRECTION('ref_axis',(-1.,0.,0.));
#189=DIRECTION('center_axis',(0.,-1.,-2.22044604925031E-16));
#190=DIRECTION('ref_axis',(-1.,0.,0.));
#191=DIRECTION('center_axis',(0.,1.,2.22044604925031E-16));
#192=DIRECTION('ref_axis',(1.,0.,0.));
#193=DIRECTION('center_axis',(0.,1.,2.22044604925031E-16));
#194=DIRECTION('ref_axis',(-1.,0.,0.));
#195=DIRECTION('center_axis',(0.,1.,2.22044604925031E-16));
#196=DIRECTION('ref_axis',(-1.,0.,0.));
#197=DIRECTION('',(0.,-1.,-2.22044604925031E-16));
#198=DIRECTION('center_axis',(0.,-1.,-2.22044604925031E-16));
#199=DIRECTION('ref_axis',(-1.,0.,0.));
#200=DIRECTION('center_axis',(0.,1.,2.22044604925031E-16));
#201=DIRECTION('ref_axis',(0.,-2.22044604925031E-16,1.));
#202=DIRECTION('center_axis',(0.,-1.,-2.22044604925031E-16));
#203=DIRECTION('ref_axis',(-1.,0.,0.));
#204=DIRECTION('center_axis',(0.,-1.,-2.22044604925031E-16));
#205=DIRECTION('ref_axis',(-1.,0.,0.));
#206=DIRECTION('',(0.707106781186548,-0.707106781186547,-2.43604851491927E-16));
#207=DIRECTION('center_axis',(0.,1.,2.22044604925031E-16));
#208=DIRECTION('ref_axis',(1.,0.,0.));
#209=DIRECTION('center_axis',(0.,-1.,-2.22044604925031E-16));
#210=DIRECTION('ref_axis',(0.,-2.22044604925031E-16,1.));
#211=DIRECTION('center_axis',(0.,1.,2.22044604925031E-16));
#212=DIRECTION('ref_axis',(0.,-2.22044604925031E-16,1.));
#213=DIRECTION('',(-8.65956056235493E-17,-0.707106781186548,0.707106781186547));
#214=DIRECTION('center_axis',(0.,-1.,-2.22044604925031E-16));
#215=DIRECTION('ref_axis',(0.,-2.22044604925031E-16,1.));
#216=DIRECTION('center_axis',(0.,-1.,-2.22044604925031E-16));
#217=DIRECTION('ref_axis',(0.,-2.22044604925031E-16,1.));
#218=DIRECTION('',(0.,-1.,-2.22044604925031E-16));
#219=CARTESIAN_POINT('',(0.,0.,0.));
#220=CARTESIAN_POINT('Origin',(-8.5,2.2,0.));
#221=CARTESIAN_POINT('',(-8.5,0.,1.));
#222=CARTESIAN_POINT('Origin',(-8.5,0.,0.));
#223=CARTESIAN_POINT('',(-8.5,4.,1.));
#224=CARTESIAN_POINT('',(-8.5,2.2,1.));
#225=CARTESIAN_POINT('Origin',(-8.5,4.,0.));
#226=CARTESIAN_POINT('Origin',(0.,0.25,5.55111512312578E-17));
#227=CARTESIAN_POINT('',(11.4,3.09995884745891E-31,-1.39609735102798E-15));
#228=CARTESIAN_POINT('Origin',(0.,0.,0.));
#229=CARTESIAN_POINT('',(11.9,0.5,1.56835199344787E-15));
#230=CARTESIAN_POINT('',(11.65,0.25,1.48222467223792E-15));
#231=CARTESIAN_POINT('',(-11.9,0.5,1.56835199344787E-15));
#232=CARTESIAN_POINT('Origin',(0.,0.5,1.11022302462516E-16));
#233=CARTESIAN_POINT('Origin',(0.,0.5,1.11022302462516E-16));
#234=CARTESIAN_POINT('Origin',(0.,2.,4.44089209850063E-16));
#235=CARTESIAN_POINT('',(11.9,3.5,-6.80173573747741E-16));
#236=CARTESIAN_POINT('',(-11.9,3.5,2.23448580822296E-15));
#237=CARTESIAN_POINT('Origin',(0.,3.5,7.7715611723761E-16));
#238=CARTESIAN_POINT('Origin',(0.,3.5,7.7715611723761E-16));
#239=CARTESIAN_POINT('',(-11.9,2.,1.90141890083541E-15));
#240=CARTESIAN_POINT('Origin',(0.,0.,0.));
#241=CARTESIAN_POINT('',(-8.59667595629478E-16,7.105427357601E-16,-3.2));
#242=CARTESIAN_POINT('Origin',(-4.67780619902325E-16,0.,0.));
#243=CARTESIAN_POINT('Origin',(0.,3.75,8.32667268468867E-16));
#244=CARTESIAN_POINT('',(11.4,4.,2.28427577072811E-15));
#245=CARTESIAN_POINT('Origin',(0.,4.,8.88178419700125E-16));
#246=CARTESIAN_POINT('',(11.65,3.75,-5.94046252537799E-16));
#247=CARTESIAN_POINT('Origin',(0.,4.,8.88178419700125E-16));
#248=CARTESIAN_POINT('',(3.03746863560507E-16,4.,-6.3));
#249=CARTESIAN_POINT('Origin',(-4.67780619902325E-16,4.,8.88178419700125E-16));
#250=CARTESIAN_POINT('Origin',(-4.67780619902325E-16,2.45,5.44009282066327E-16));
#251=CARTESIAN_POINT('',(-7.5893644175172E-17,0.900000000000001,-3.2));
#252=CARTESIAN_POINT('',(1.13926609692668E-16,2.45,-4.75));
#253=CARTESIAN_POINT('Origin',(-4.67780619902325E-16,0.899999999999999,
1.99840144432528E-16));
#254=CARTESIAN_POINT('Origin',(-4.67780619902325E-16,1.8,3.99680288865056E-16));
#255=CARTESIAN_POINT('',(-7.58936441751721E-17,1.8,-3.2));
#256=UNCERTAINTY_MEASURE_WITH_UNIT(LENGTH_MEASURE(0.01),#260,
'DISTANCE_ACCURACY_VALUE',
'Maximum model space distance between geometric entities at asserted c
onnectivities');
#257=UNCERTAINTY_MEASURE_WITH_UNIT(LENGTH_MEASURE(0.01),#260,
'DISTANCE_ACCURACY_VALUE',
'Maximum model space distance between geometric entities at asserted c
onnectivities');
#258=(
GEOMETRIC_REPRESENTATION_CONTEXT(3)
GLOBAL_UNCERTAINTY_ASSIGNED_CONTEXT((#256))
GLOBAL_UNIT_ASSIGNED_CONTEXT((#260,#262,#263))
REPRESENTATION_CONTEXT('','3D')
);
#259=(
GEOMETRIC_REPRESENTATION_CONTEXT(3)
GLOBAL_UNCERTAINTY_ASSIGNED_CONTEXT((#257))
GLOBAL_UNIT_ASSIGNED_CONTEXT((#260,#262,#263))
REPRESENTATION_CONTEXT('','3D')
);
#260=(
LENGTH_UNIT()
NAMED_UNIT(*)
SI_UNIT(.MILLI.,.METRE.)
);
#261=(
LENGTH_UNIT()
NAMED_UNIT(*)
SI_UNIT($,.METRE.)
);
#262=(
NAMED_UNIT(*)
PLANE_ANGLE_UNIT()
SI_UNIT($,.RADIAN.)
);
#263=(
NAMED_UNIT(*)
SI_UNIT($,.STERADIAN.)
SOLID_ANGLE_UNIT()
);
#264=SHAPE_DEFINITION_REPRESENTATION(#265,#266);
#265=PRODUCT_DEFINITION_SHAPE('',$,#268);
#266=SHAPE_REPRESENTATION('',(#153),#258);
#267=PRODUCT_DEFINITION_CONTEXT('part definition',#272,'design');
#268=PRODUCT_DEFINITION('BC vertical rod endcap',
'BC vertical rod endcap v5',#269,#267);
#269=PRODUCT_DEFINITION_FORMATION('',$,#274);
#270=PRODUCT_RELATED_PRODUCT_CATEGORY('BC vertical rod endcap v5',
'BC vertical rod endcap v5',(#274));
#271=APPLICATION_PROTOCOL_DEFINITION('international standard',
'automotive_design',2009,#272);
#272=APPLICATION_CONTEXT(
'Core Data for Automotive Mechanical Design Process');
#273=PRODUCT_CONTEXT('part definition',#272,'mechanical');
#274=PRODUCT('BC vertical rod endcap','BC vertical rod endcap v5',$,(#273));
#275=PRESENTATION_STYLE_ASSIGNMENT((#276));
#276=SURFACE_STYLE_USAGE(.BOTH.,#277);
#277=SURFACE_SIDE_STYLE('',(#278));
#278=SURFACE_STYLE_FILL_AREA(#279);
#279=FILL_AREA_STYLE('Paek (Beige)',(#280));
#280=FILL_AREA_STYLE_COLOUR('Paek (Beige)',#281);
#281=COLOUR_RGB('Paek (Beige)',0.898039215686275,0.792156862745098,0.619607843137255);
ENDSEC;
END-ISO-10303-21;
