ISO-10303-21;
HEADER;
/* Generated by software containing ST-Developer
 * from STEP Tools, Inc. (www.steptools.com) 
 */

FILE_DESCRIPTION(
/* description */ (''),
/* implementation_level */ '2;1');

FILE_NAME(
/* name */ 'BC vertical rod v7.step',
/* time_stamp */ '2024-06-12T15:25:52+02:00',
/* author */ (''),
/* organization */ (''),
/* preprocessor_version */ 'ST-DEVELOPER v20',
/* originating_system */ 'Autodesk Translation Framework v13.14.0.145',

/* authorisation */ '');

FILE_SCHEMA (('AUTOMOTIVE_DESIGN { 1 0 10303 214 3 1 1 }'));
ENDSEC;

DATA;
#10=MECHANICAL_DESIGN_GEOMETRIC_PRESENTATION_REPRESENTATION('',(#23,#24),
#1380);
#11=ITEM_DEFINED_TRANSFORMATION($,$,#607,#669);
#12=ITEM_DEFINED_TRANSFORMATION($,$,#656,#670);
#13=(
REPRESENTATION_RELATIONSHIP($,$,#1394,#1393)
REPRESENTATION_RELATIONSHIP_WITH_TRANSFORMATION(#11)
SHAPE_REPRESENTATION_RELATIONSHIP()
);
#14=(
REPRESENTATION_RELATIONSHIP($,$,#1395,#1393)
REPRESENTATION_RELATIONSHIP_WITH_TRANSFORMATION(#12)
SHAPE_REPRESENTATION_RELATIONSHIP()
);
#15=CONTEXT_DEPENDENT_SHAPE_REPRESENTATION(#13,#1391);
#16=CONTEXT_DEPENDENT_SHAPE_REPRESENTATION(#14,#1392);
#17=NEXT_ASSEMBLY_USAGE_OCCURRENCE('vertical rod:1','vertical rod:1',
'vertical rod:1',#1397,#1398,'vertical rod:1');
#18=NEXT_ASSEMBLY_USAGE_OCCURRENCE('peek insulator:1',
'peek insulator:1','peek insulator:1',#1397,#1399,'peek insulator:1');
#19=SHAPE_REPRESENTATION_RELATIONSHIP('SRR','None',#1394,#21);
#20=SHAPE_REPRESENTATION_RELATIONSHIP('SRR','None',#1395,#22);
#21=ADVANCED_BREP_SHAPE_REPRESENTATION('',(#25),#1378);
#22=ADVANCED_BREP_SHAPE_REPRESENTATION('',(#26),#1379);
#23=STYLED_ITEM('',(#1413),#25);
#24=STYLED_ITEM('',(#1414),#26);
#25=MANIFOLD_SOLID_BREP('vertical rod',#581);
#26=MANIFOLD_SOLID_BREP('peek insulator',#582);
#27=FACE_BOUND('',#110,.T.);
#28=FACE_BOUND('',#111,.T.);
#29=FACE_BOUND('',#112,.T.);
#30=FACE_BOUND('',#113,.T.);
#31=FACE_BOUND('',#115,.T.);
#32=FACE_BOUND('',#118,.T.);
#33=FACE_BOUND('',#121,.T.);
#34=FACE_BOUND('',#123,.T.);
#35=FACE_BOUND('',#127,.T.);
#36=FACE_BOUND('',#128,.T.);
#37=FACE_BOUND('',#131,.T.);
#38=FACE_BOUND('',#134,.T.);
#39=FACE_BOUND('',#137,.T.);
#40=PLANE('',#614);
#41=PLANE('',#616);
#42=PLANE('',#619);
#43=PLANE('',#621);
#44=PLANE('',#640);
#45=PLANE('',#644);
#46=PLANE('',#650);
#47=PLANE('',#660);
#48=PLANE('',#664);
#49=PLANE('',#668);
#50=CYLINDRICAL_SURFACE('',#612,2.117);
#51=CYLINDRICAL_SURFACE('',#613,2.117);
#52=CYLINDRICAL_SURFACE('',#618,1.5);
#53=CYLINDRICAL_SURFACE('',#623,1.5);
#54=CYLINDRICAL_SURFACE('',#624,1.5);
#55=CYLINDRICAL_SURFACE('',#637,10.);
#56=CYLINDRICAL_SURFACE('',#652,6.);
#57=CYLINDRICAL_SURFACE('',#653,2.5175);
#58=CYLINDRICAL_SURFACE('',#654,2.5175);
#59=CYLINDRICAL_SURFACE('',#655,6.);
#60=CYLINDRICAL_SURFACE('',#657,9.);
#61=CYLINDRICAL_SURFACE('',#662,12.);
#62=CYLINDRICAL_SURFACE('',#666,6.);
#63=FACE_OUTER_BOUND('',#94,.T.);
#64=FACE_OUTER_BOUND('',#95,.T.);
#65=FACE_OUTER_BOUND('',#96,.T.);
#66=FACE_OUTER_BOUND('',#97,.T.);
#67=FACE_OUTER_BOUND('',#98,.T.);
#68=FACE_OUTER_BOUND('',#99,.T.);
#69=FACE_OUTER_BOUND('',#100,.T.);
#70=FACE_OUTER_BOUND('',#101,.T.);
#71=FACE_OUTER_BOUND('',#102,.T.);
#72=FACE_OUTER_BOUND('',#103,.T.);
#73=FACE_OUTER_BOUND('',#104,.T.);
#74=FACE_OUTER_BOUND('',#105,.T.);
#75=FACE_OUTER_BOUND('',#106,.T.);
#76=FACE_OUTER_BOUND('',#107,.T.);
#77=FACE_OUTER_BOUND('',#108,.T.);
#78=FACE_OUTER_BOUND('',#109,.T.);
#79=FACE_OUTER_BOUND('',#114,.T.);
#80=FACE_OUTER_BOUND('',#116,.T.);
#81=FACE_OUTER_BOUND('',#117,.T.);
#82=FACE_OUTER_BOUND('',#119,.T.);
#83=FACE_OUTER_BOUND('',#120,.T.);
#84=FACE_OUTER_BOUND('',#122,.T.);
#85=FACE_OUTER_BOUND('',#124,.T.);
#86=FACE_OUTER_BOUND('',#125,.T.);
#87=FACE_OUTER_BOUND('',#126,.T.);
#88=FACE_OUTER_BOUND('',#129,.T.);
#89=FACE_OUTER_BOUND('',#130,.T.);
#90=FACE_OUTER_BOUND('',#132,.T.);
#91=FACE_OUTER_BOUND('',#133,.T.);
#92=FACE_OUTER_BOUND('',#135,.T.);
#93=FACE_OUTER_BOUND('',#136,.T.);
#94=EDGE_LOOP('',(#380,#381,#382));
#95=EDGE_LOOP('',(#383,#384,#385));
#96=EDGE_LOOP('',(#386,#387,#388,#389,#390,#391));
#97=EDGE_LOOP('',(#392,#393,#394,#395,#396,#397));
#98=EDGE_LOOP('',(#398,#399));
#99=EDGE_LOOP('',(#400,#401));
#100=EDGE_LOOP('',(#402,#403,#404,#405,#406,#407,#408,#409,#410,#411,#412));
#101=EDGE_LOOP('',(#413,#414));
#102=EDGE_LOOP('',(#415,#416));
#103=EDGE_LOOP('',(#417,#418,#419,#420,#421,#422,#423,#424,#425,#426,#427));
#104=EDGE_LOOP('',(#428,#429,#430,#431,#432,#433,#434));
#105=EDGE_LOOP('',(#435,#436,#437,#438,#439,#440,#441,#442,#443));
#106=EDGE_LOOP('',(#444,#445,#446,#447,#448,#449,#450,#451));
#107=EDGE_LOOP('',(#452,#453,#454,#455,#456,#457));
#108=EDGE_LOOP('',(#458,#459,#460,#461,#462));
#109=EDGE_LOOP('',(#463,#464,#465,#466,#467,#468));
#110=EDGE_LOOP('',(#469,#470));
#111=EDGE_LOOP('',(#471,#472));
#112=EDGE_LOOP('',(#473,#474));
#113=EDGE_LOOP('',(#475,#476));
#114=EDGE_LOOP('',(#477));
#115=EDGE_LOOP('',(#478));
#116=EDGE_LOOP('',(#479,#480,#481,#482,#483));
#117=EDGE_LOOP('',(#484));
#118=EDGE_LOOP('',(#485));
#119=EDGE_LOOP('',(#486,#487,#488,#489,#490));
#120=EDGE_LOOP('',(#491));
#121=EDGE_LOOP('',(#492));
#122=EDGE_LOOP('',(#493,#494,#495,#496,#497));
#123=EDGE_LOOP('',(#498,#499));
#124=EDGE_LOOP('',(#500,#501,#502,#503,#504,#505,#506));
#125=EDGE_LOOP('',(#507,#508,#509,#510,#511,#512,#513,#514,#515));
#126=EDGE_LOOP('',(#516,#517,#518,#519));
#127=EDGE_LOOP('',(#520,#521));
#128=EDGE_LOOP('',(#522,#523));
#129=EDGE_LOOP('',(#524,#525,#526,#527));
#130=EDGE_LOOP('',(#528));
#131=EDGE_LOOP('',(#529));
#132=EDGE_LOOP('',(#530,#531,#532,#533));
#133=EDGE_LOOP('',(#534));
#134=EDGE_LOOP('',(#535));
#135=EDGE_LOOP('',(#536,#537,#538,#539));
#136=EDGE_LOOP('',(#540));
#137=EDGE_LOOP('',(#541));
#138=B_SPLINE_CURVE_WITH_KNOTS('',3,(#834,#835,#836,#837,#838,#839),
 .UNSPECIFIED.,.F.,.F.,(4,2,4),(0.958353720785594,1.05117538360429,1.16739826561464),
 .UNSPECIFIED.);
#139=B_SPLINE_CURVE_WITH_KNOTS('',3,(#846,#847,#848,#849,#850,#851),
 .UNSPECIFIED.,.F.,.F.,(4,2,4),(0.958353720785588,1.05117538360428,1.16739826561464),
 .UNSPECIFIED.);
#140=B_SPLINE_CURVE_WITH_KNOTS('',3,(#855,#856,#857,#858,#859,#860,#861,
#862,#863,#864),.UNSPECIFIED.,.F.,.F.,(4,2,2,2,4),(0.,0.0805240527913134,
0.161048105582627,0.241524630728584,0.322001155874541),.UNSPECIFIED.);
#141=B_SPLINE_CURVE_WITH_KNOTS('',3,(#865,#866,#867,#868,#869,#870,#871,
#872,#873,#874,#875,#876,#877,#878,#879,#880,#881,#882,#883,#884,#885,#886,
#887,#888,#889,#890),.UNSPECIFIED.,.F.,.F.,(4,2,2,2,2,2,2,2,2,2,2,2,4),
(0.322001155874541,0.402477681020498,0.482954206166455,0.563478258957768,
0.644002311749081,0.724526364540395,0.805050417331708,0.885526942477665,
0.966003467623622,1.04647999276958,1.12695651791554,1.20748057070685,1.28800462349816),
 .UNSPECIFIED.);
#142=B_SPLINE_CURVE_WITH_KNOTS('',3,(#894,#895,#896,#897,#898,#899,#900,
#901,#902,#903),.UNSPECIFIED.,.F.,.F.,(4,2,2,2,4),(0.,0.0800084587345075,
0.160016917469015,0.240019722030067,0.320022526591118),.UNSPECIFIED.);
#143=B_SPLINE_CURVE_WITH_KNOTS('',3,(#904,#905,#906,#907,#908,#909,#910,
#911,#912,#913,#914,#915,#916,#917,#918,#919,#920,#921,#922,#923,#924,#925,
#926,#927,#928,#929),.UNSPECIFIED.,.F.,.F.,(4,2,2,2,2,2,2,2,2,2,2,2,4),
(0.320022526591118,0.40002533115217,0.480028135713221,0.560036594447729,
0.640045053182236,0.720053511916744,0.800061970651252,0.880064775212303,
0.960067579773355,1.04007038433441,1.12007318889546,1.20008164762997,1.28009010636447),
 .UNSPECIFIED.);
#144=B_SPLINE_CURVE_WITH_KNOTS('',3,(#933,#934,#935,#936,#937,#938,#939,
#940,#941,#942),.UNSPECIFIED.,.F.,.F.,(4,2,2,2,4),(0.,0.0805240527913134,
0.161048105582627,0.241524630728584,0.322001155874541),.UNSPECIFIED.);
#145=B_SPLINE_CURVE_WITH_KNOTS('',3,(#943,#944,#945,#946,#947,#948,#949,
#950,#951,#952,#953,#954,#955,#956,#957,#958,#959,#960,#961,#962,#963,#964,
#965,#966,#967,#968),.UNSPECIFIED.,.F.,.F.,(4,2,2,2,2,2,2,2,2,2,2,2,4),
(0.322001155874541,0.402477681020498,0.482954206166455,0.563478258957768,
0.644002311749081,0.724526364540395,0.805050417331708,0.885526942477665,
0.966003467623622,1.04647999276958,1.12695651791554,1.20748057070685,1.28800462349816),
 .UNSPECIFIED.);
#146=B_SPLINE_CURVE_WITH_KNOTS('',3,(#972,#973,#974,#975,#976,#977,#978,
#979,#980,#981),.UNSPECIFIED.,.F.,.F.,(4,2,2,2,4),(0.,0.0800084587345075,
0.160016917469015,0.240019722030067,0.320022526591118),.UNSPECIFIED.);
#147=B_SPLINE_CURVE_WITH_KNOTS('',3,(#982,#983,#984,#985,#986,#987,#988,
#989,#990,#991,#992,#993,#994,#995,#996,#997,#998,#999,#1000,#1001,#1002,
#1003,#1004,#1005,#1006,#1007),.UNSPECIFIED.,.F.,.F.,(4,2,2,2,2,2,2,2,2,
2,2,2,4),(0.320022526591118,0.40002533115217,0.480028135713221,0.560036594447729,
0.640045053182236,0.720053511916744,0.800061970651252,0.880064775212303,
0.960067579773355,1.04007038433441,1.12007318889546,1.20008164762997,1.28009010636447),
 .UNSPECIFIED.);
#148=B_SPLINE_CURVE_WITH_KNOTS('',3,(#1019,#1020,#1021,#1022,#1023,#1024,
#1025,#1026,#1027,#1028,#1029,#1030,#1031,#1032,#1033,#1034,#1035,#1036),
 .UNSPECIFIED.,.F.,.F.,(4,2,2,2,2,2,2,2,4),(-0.466083119011714,-0.407640532034102,
-0.34919794505649,-0.291119752281173,-0.233041559505857,-0.17496336673054,
-0.116885173955224,-0.0584425869776118,0.),.UNSPECIFIED.);
#149=B_SPLINE_CURVE_WITH_KNOTS('',3,(#1037,#1038,#1039,#1040,#1041,#1042),
 .UNSPECIFIED.,.F.,.F.,(4,2,4),(0.,0.116222882010355,0.20904454482905),
 .UNSPECIFIED.);
#150=B_SPLINE_CURVE_WITH_KNOTS('',3,(#1044,#1045,#1046,#1047,#1048,#1049,
#1050,#1051,#1052,#1053,#1054,#1055),.UNSPECIFIED.,.F.,.F.,(4,2,2,2,2,4),
(-0.00319984754071867,-0.00299330122118558,-0.0027269754063589,-0.00202930269422932,
-0.00101465134711466,0.),.UNSPECIFIED.);
#151=B_SPLINE_CURVE_WITH_KNOTS('',3,(#1059,#1060,#1061,#1062,#1063,#1064,
#1065,#1066,#1067,#1068),.UNSPECIFIED.,.F.,.F.,(4,2,2,2,4),(0.,0.0565953432581702,
0.11319068651634,0.169785042975156,0.226379399433972),.UNSPECIFIED.);
#152=B_SPLINE_CURVE_WITH_KNOTS('',3,(#1069,#1070,#1071,#1072,#1073,#1074,
#1075,#1076,#1077,#1078,#1079,#1080,#1081,#1082,#1083,#1084,#1085,#1086,
#1087,#1088,#1089,#1090,#1091,#1092,#1093,#1094),.UNSPECIFIED.,.F.,.F.,
(4,2,2,2,2,2,2,2,2,2,2,2,4),(0.226379399433972,0.282973755892788,0.339568112351603,
0.396163455609774,0.452758798867944,0.509354142126114,0.565949485384284,
0.6225438418431,0.679138198301916,0.735732554760731,0.792326911219547,0.848922254477717,
0.905517597735887),.UNSPECIFIED.);
#153=B_SPLINE_CURVE_WITH_KNOTS('',3,(#1095,#1096,#1097,#1098,#1099,#1100,
#1101,#1102,#1103,#1104,#1105,#1106),.UNSPECIFIED.,.F.,.F.,(4,2,2,2,2,4),
(-0.00639969508143734,-0.00538504373432267,-0.00437039238720801,-0.00367271967507844,
-0.00340639386025177,-0.00319984754071867),.UNSPECIFIED.);
#154=B_SPLINE_CURVE_WITH_KNOTS('',3,(#1118,#1119,#1120,#1121,#1122,#1123,
#1124,#1125,#1126,#1127),.UNSPECIFIED.,.F.,.F.,(4,2,2,2,4),(-0.233041559505856,
-0.174963366730539,-0.116885173955222,-0.0584425869776111,0.),
 .UNSPECIFIED.);
#155=B_SPLINE_CURVE_WITH_KNOTS('',3,(#1131,#1132,#1133,#1134,#1135,#1136,
#1137,#1138,#1139,#1140),.UNSPECIFIED.,.F.,.F.,(4,2,2,2,4),(0.,0.0567672348052759,
0.113534469610552,0.170293767345008,0.227053065079465),.UNSPECIFIED.);
#156=B_SPLINE_CURVE_WITH_KNOTS('',3,(#1141,#1142,#1143,#1144,#1145,#1146,
#1147,#1148,#1149,#1150,#1151,#1152,#1153,#1154,#1155,#1156,#1157,#1158,
#1159,#1160,#1161,#1162,#1163,#1164,#1165,#1166),.UNSPECIFIED.,.F.,.F.,
(4,2,2,2,2,2,2,2,2,2,2,2,4),(0.227053065079465,0.283812362813922,0.340571660548378,
0.397338895353654,0.45410613015893,0.510873364964206,0.567640599769482,
0.624399897503939,0.681159195238395,0.737918492972852,0.794677790707309,
0.851445025512585,0.908212260317861),.UNSPECIFIED.);
#157=B_SPLINE_CURVE_WITH_KNOTS('',3,(#1168,#1169,#1170,#1171,#1172,#1173,
#1174,#1175,#1176,#1177),.UNSPECIFIED.,.F.,.F.,(4,2,2,2,4),(-0.466083119011713,
-0.407640532034102,-0.34919794505649,-0.291119752281173,-0.233041559505856),
 .UNSPECIFIED.);
#158=B_SPLINE_CURVE_WITH_KNOTS('',3,(#1178,#1179,#1180,#1181,#1182,#1183),
 .UNSPECIFIED.,.F.,.F.,(4,2,4),(0.,0.116222882010356,0.20904454482905),
 .UNSPECIFIED.);
#159=B_SPLINE_CURVE_WITH_KNOTS('',3,(#1184,#1185,#1186,#1187,#1188,#1189,
#1190,#1191,#1192,#1193,#1194,#1195,#1196,#1197,#1198,#1199,#1200,#1201,
#1202,#1203,#1204,#1205),.UNSPECIFIED.,.F.,.F.,(4,2,2,2,2,2,2,2,2,2,4),
(-0.00639969508144379,-0.00538504373432803,-0.00437039238721226,-0.00367271967508213,
-0.00340639386025517,-0.00319984754072194,-0.0029933012211887,-0.00272697540636166,
-0.00202930269423185,-0.00101465134711592,0.),.UNSPECIFIED.);
#160=B_SPLINE_CURVE_WITH_KNOTS('',3,(#1209,#1210,#1211,#1212,#1213,#1214,
#1215,#1216,#1217,#1218),.UNSPECIFIED.,.F.,.F.,(4,2,2,2,4),(0.,0.0584425869776118,
0.116885173955224,0.17496336673054,0.233041559505857),.UNSPECIFIED.);
#161=B_SPLINE_CURVE_WITH_KNOTS('',3,(#1220,#1221,#1222,#1223,#1224,#1225,
#1226,#1227,#1228,#1229,#1230,#1231,#1232,#1233,#1234,#1235,#1236,#1237,
#1238,#1239,#1240,#1241),.UNSPECIFIED.,.F.,.F.,(4,2,2,2,2,2,2,2,2,2,4),
(0.20904454482905,0.232445764020714,0.447493450386143,0.530854798580113,
0.557276965693716,0.58369913280732,0.610121299920923,0.636543467034527,
0.719904815228497,0.934952501593926,0.958353720785589),.UNSPECIFIED.);
#162=B_SPLINE_CURVE_WITH_KNOTS('',3,(#1242,#1243,#1244,#1245,#1246,#1247,
#1248,#1249,#1250,#1251),.UNSPECIFIED.,.F.,.F.,(4,2,2,2,4),(0.233041559505857,
0.291119752281173,0.34919794505649,0.407640532034102,0.466083119011714),
 .UNSPECIFIED.);
#163=B_SPLINE_CURVE_WITH_KNOTS('',3,(#1255,#1256,#1257,#1258,#1259,#1260,
#1261,#1262,#1263,#1264),.UNSPECIFIED.,.F.,.F.,(4,2,2,2,4),(0.,0.0565953432581702,
0.11319068651634,0.169785042975156,0.226379399433972),.UNSPECIFIED.);
#164=B_SPLINE_CURVE_WITH_KNOTS('',3,(#1265,#1266,#1267,#1268,#1269,#1270,
#1271,#1272,#1273,#1274,#1275,#1276,#1277,#1278,#1279,#1280,#1281,#1282,
#1283,#1284,#1285,#1286,#1287,#1288,#1289,#1290),.UNSPECIFIED.,.F.,.F.,
(4,2,2,2,2,2,2,2,2,2,2,2,4),(0.226379399433972,0.282973755892788,0.339568112351603,
0.396163455609774,0.452758798867944,0.509354142126114,0.565949485384284,
0.6225438418431,0.679138198301916,0.735732554760731,0.792326911219547,0.848922254477717,
0.905517597735887),.UNSPECIFIED.);
#165=CIRCLE('',#609,2.5175);
#166=CIRCLE('',#611,2.5175);
#167=CIRCLE('',#615,1.5);
#168=CIRCLE('',#617,1.5);
#169=CIRCLE('',#620,1.5);
#170=CIRCLE('',#622,1.5);
#171=CIRCLE('',#626,2.5175);
#172=CIRCLE('',#628,2.5175);
#173=CIRCLE('',#630,6.);
#174=CIRCLE('',#631,2.5175);
#175=CIRCLE('',#632,2.5175);
#176=CIRCLE('',#634,9.5);
#177=CIRCLE('',#635,10.);
#178=CIRCLE('',#636,10.);
#179=CIRCLE('',#638,10.);
#180=CIRCLE('',#639,10.);
#181=CIRCLE('',#641,6.);
#182=CIRCLE('',#643,9.5);
#183=CIRCLE('',#645,6.);
#184=CIRCLE('',#647,6.);
#185=CIRCLE('',#648,6.);
#186=CIRCLE('',#649,5.5);
#187=CIRCLE('',#651,2.5175);
#188=CIRCLE('',#658,9.);
#189=CIRCLE('',#659,9.);
#190=CIRCLE('',#661,12.);
#191=CIRCLE('',#663,12.);
#192=CIRCLE('',#665,6.);
#193=CIRCLE('',#667,6.);
#194=LINE('',#831,#219);
#195=LINE('',#843,#220);
#196=LINE('',#892,#221);
#197=LINE('',#970,#222);
#198=LINE('',#1011,#223);
#199=LINE('',#1015,#224);
#200=LINE('',#1057,#225);
#201=LINE('',#1110,#226);
#202=LINE('',#1114,#227);
#203=LINE('',#1129,#228);
#204=LINE('',#1253,#229);
#205=LINE('',#1293,#230);
#206=LINE('',#1297,#231);
#207=LINE('',#1303,#232);
#208=LINE('',#1310,#233);
#209=LINE('',#1316,#234);
#210=LINE('',#1325,#235);
#211=LINE('',#1336,#236);
#212=LINE('',#1342,#237);
#213=LINE('',#1344,#238);
#214=LINE('',#1346,#239);
#215=LINE('',#1348,#240);
#216=LINE('',#1354,#241);
#217=LINE('',#1362,#242);
#218=LINE('',#1368,#243);
#219=VECTOR('',#677,1.25875);
#220=VECTOR('',#682,1.25875);
#221=VECTOR('',#687,2.117);
#222=VECTOR('',#690,2.117);
#223=VECTOR('',#693,10.);
#224=VECTOR('',#698,10.);
#225=VECTOR('',#703,1.5);
#226=VECTOR('',#706,10.);
#227=VECTOR('',#711,10.);
#228=VECTOR('',#716,1.5);
#229=VECTOR('',#719,1.5);
#230=VECTOR('',#722,1.25875);
#231=VECTOR('',#727,1.25875);
#232=VECTOR('',#734,3.);
#233=VECTOR('',#743,9.75);
#234=VECTOR('',#750,10.);
#235=VECTOR('',#761,9.75);
#236=VECTOR('',#774,5.75);
#237=VECTOR('',#783,6.);
#238=VECTOR('',#786,2.5175);
#239=VECTOR('',#789,2.5175);
#240=VECTOR('',#792,6.);
#241=VECTOR('',#799,9.);
#242=VECTOR('',#810,12.);
#243=VECTOR('',#817,6.);
#244=VERTEX_POINT('',#829);
#245=VERTEX_POINT('',#830);
#246=VERTEX_POINT('',#832);
#247=VERTEX_POINT('',#841);
#248=VERTEX_POINT('',#842);
#249=VERTEX_POINT('',#844);
#250=VERTEX_POINT('',#853);
#251=VERTEX_POINT('',#854);
#252=VERTEX_POINT('',#891);
#253=VERTEX_POINT('',#893);
#254=VERTEX_POINT('',#931);
#255=VERTEX_POINT('',#932);
#256=VERTEX_POINT('',#969);
#257=VERTEX_POINT('',#971);
#258=VERTEX_POINT('',#1009);
#259=VERTEX_POINT('',#1010);
#260=VERTEX_POINT('',#1014);
#261=VERTEX_POINT('',#1018);
#262=VERTEX_POINT('',#1043);
#263=VERTEX_POINT('',#1056);
#264=VERTEX_POINT('',#1058);
#265=VERTEX_POINT('',#1108);
#266=VERTEX_POINT('',#1109);
#267=VERTEX_POINT('',#1113);
#268=VERTEX_POINT('',#1117);
#269=VERTEX_POINT('',#1128);
#270=VERTEX_POINT('',#1130);
#271=VERTEX_POINT('',#1167);
#272=VERTEX_POINT('',#1207);
#273=VERTEX_POINT('',#1208);
#274=VERTEX_POINT('',#1219);
#275=VERTEX_POINT('',#1252);
#276=VERTEX_POINT('',#1254);
#277=VERTEX_POINT('',#1292);
#278=VERTEX_POINT('',#1296);
#279=VERTEX_POINT('',#1300);
#280=VERTEX_POINT('',#1302);
#281=VERTEX_POINT('',#1307);
#282=VERTEX_POINT('',#1309);
#283=VERTEX_POINT('',#1311);
#284=VERTEX_POINT('',#1315);
#285=VERTEX_POINT('',#1317);
#286=VERTEX_POINT('',#1321);
#287=VERTEX_POINT('',#1324);
#288=VERTEX_POINT('',#1328);
#289=VERTEX_POINT('',#1331);
#290=VERTEX_POINT('',#1332);
#291=VERTEX_POINT('',#1335);
#292=VERTEX_POINT('',#1339);
#293=VERTEX_POINT('',#1351);
#294=VERTEX_POINT('',#1353);
#295=VERTEX_POINT('',#1357);
#296=VERTEX_POINT('',#1360);
#297=VERTEX_POINT('',#1364);
#298=VERTEX_POINT('',#1367);
#299=EDGE_CURVE('',#244,#245,#194,.T.);
#300=EDGE_CURVE('',#246,#244,#165,.T.);
#301=EDGE_CURVE('',#246,#245,#138,.T.);
#302=EDGE_CURVE('',#247,#248,#195,.T.);
#303=EDGE_CURVE('',#249,#247,#166,.T.);
#304=EDGE_CURVE('',#249,#248,#139,.T.);
#305=EDGE_CURVE('',#250,#251,#140,.T.);
#306=EDGE_CURVE('',#251,#250,#141,.T.);
#307=EDGE_CURVE('',#251,#252,#196,.T.);
#308=EDGE_CURVE('',#253,#252,#142,.T.);
#309=EDGE_CURVE('',#252,#253,#143,.T.);
#310=EDGE_CURVE('',#254,#255,#144,.T.);
#311=EDGE_CURVE('',#255,#254,#145,.T.);
#312=EDGE_CURVE('',#255,#256,#197,.T.);
#313=EDGE_CURVE('',#257,#256,#146,.T.);
#314=EDGE_CURVE('',#256,#257,#147,.T.);
#315=EDGE_CURVE('',#258,#259,#198,.T.);
#316=EDGE_CURVE('',#259,#258,#167,.T.);
#317=EDGE_CURVE('',#248,#260,#199,.T.);
#318=EDGE_CURVE('',#260,#248,#168,.T.);
#319=EDGE_CURVE('',#261,#249,#148,.T.);
#320=EDGE_CURVE('',#259,#261,#149,.T.);
#321=EDGE_CURVE('',#262,#258,#150,.T.);
#322=EDGE_CURVE('',#262,#263,#200,.T.);
#323=EDGE_CURVE('',#264,#263,#151,.T.);
#324=EDGE_CURVE('',#263,#264,#152,.T.);
#325=EDGE_CURVE('',#260,#262,#153,.T.);
#326=EDGE_CURVE('',#265,#266,#201,.T.);
#327=EDGE_CURVE('',#266,#265,#169,.T.);
#328=EDGE_CURVE('',#245,#267,#202,.T.);
#329=EDGE_CURVE('',#267,#245,#170,.T.);
#330=EDGE_CURVE('',#268,#246,#154,.T.);
#331=EDGE_CURVE('',#268,#269,#203,.T.);
#332=EDGE_CURVE('',#270,#269,#155,.T.);
#333=EDGE_CURVE('',#269,#270,#156,.T.);
#334=EDGE_CURVE('',#271,#268,#157,.T.);
#335=EDGE_CURVE('',#266,#271,#158,.T.);
#336=EDGE_CURVE('',#267,#265,#159,.T.);
#337=EDGE_CURVE('',#272,#273,#160,.T.);
#338=EDGE_CURVE('',#274,#272,#161,.T.);
#339=EDGE_CURVE('',#273,#274,#162,.T.);
#340=EDGE_CURVE('',#273,#275,#204,.T.);
#341=EDGE_CURVE('',#276,#275,#163,.T.);
#342=EDGE_CURVE('',#275,#276,#164,.T.);
#343=EDGE_CURVE('',#260,#277,#205,.T.);
#344=EDGE_CURVE('',#247,#261,#171,.T.);
#345=EDGE_CURVE('',#267,#278,#206,.T.);
#346=EDGE_CURVE('',#244,#271,#172,.T.);
#347=EDGE_CURVE('',#279,#279,#173,.T.);
#348=EDGE_CURVE('',#279,#280,#207,.T.);
#349=EDGE_CURVE('',#280,#274,#174,.T.);
#350=EDGE_CURVE('',#272,#280,#175,.T.);
#351=EDGE_CURVE('',#281,#281,#176,.T.);
#352=EDGE_CURVE('',#281,#282,#208,.T.);
#353=EDGE_CURVE('',#282,#283,#177,.T.);
#354=EDGE_CURVE('',#283,#282,#178,.T.);
#355=EDGE_CURVE('',#283,#284,#209,.T.);
#356=EDGE_CURVE('',#285,#284,#179,.T.);
#357=EDGE_CURVE('',#284,#285,#180,.T.);
#358=EDGE_CURVE('',#286,#286,#181,.T.);
#359=EDGE_CURVE('',#285,#287,#210,.T.);
#360=EDGE_CURVE('',#287,#287,#182,.T.);
#361=EDGE_CURVE('',#288,#288,#183,.T.);
#362=EDGE_CURVE('',#289,#290,#184,.T.);
#363=EDGE_CURVE('',#290,#289,#185,.T.);
#364=EDGE_CURVE('',#289,#291,#211,.T.);
#365=EDGE_CURVE('',#291,#291,#186,.T.);
#366=EDGE_CURVE('',#292,#292,#187,.T.);
#367=EDGE_CURVE('',#288,#290,#212,.T.);
#368=EDGE_CURVE('',#292,#244,#213,.T.);
#369=EDGE_CURVE('',#280,#247,#214,.T.);
#370=EDGE_CURVE('',#286,#279,#215,.T.);
#371=EDGE_CURVE('',#293,#293,#188,.T.);
#372=EDGE_CURVE('',#293,#294,#216,.T.);
#373=EDGE_CURVE('',#294,#294,#189,.T.);
#374=EDGE_CURVE('',#295,#295,#190,.T.);
#375=EDGE_CURVE('',#296,#296,#191,.T.);
#376=EDGE_CURVE('',#296,#295,#217,.T.);
#377=EDGE_CURVE('',#297,#297,#192,.T.);
#378=EDGE_CURVE('',#297,#298,#218,.T.);
#379=EDGE_CURVE('',#298,#298,#193,.T.);
#380=ORIENTED_EDGE('',*,*,#299,.F.);
#381=ORIENTED_EDGE('',*,*,#300,.F.);
#382=ORIENTED_EDGE('',*,*,#301,.T.);
#383=ORIENTED_EDGE('',*,*,#302,.F.);
#384=ORIENTED_EDGE('',*,*,#303,.F.);
#385=ORIENTED_EDGE('',*,*,#304,.T.);
#386=ORIENTED_EDGE('',*,*,#305,.F.);
#387=ORIENTED_EDGE('',*,*,#306,.F.);
#388=ORIENTED_EDGE('',*,*,#307,.T.);
#389=ORIENTED_EDGE('',*,*,#308,.F.);
#390=ORIENTED_EDGE('',*,*,#309,.F.);
#391=ORIENTED_EDGE('',*,*,#307,.F.);
#392=ORIENTED_EDGE('',*,*,#310,.F.);
#393=ORIENTED_EDGE('',*,*,#311,.F.);
#394=ORIENTED_EDGE('',*,*,#312,.T.);
#395=ORIENTED_EDGE('',*,*,#313,.F.);
#396=ORIENTED_EDGE('',*,*,#314,.F.);
#397=ORIENTED_EDGE('',*,*,#312,.F.);
#398=ORIENTED_EDGE('',*,*,#315,.F.);
#399=ORIENTED_EDGE('',*,*,#316,.F.);
#400=ORIENTED_EDGE('',*,*,#317,.F.);
#401=ORIENTED_EDGE('',*,*,#318,.F.);
#402=ORIENTED_EDGE('',*,*,#304,.F.);
#403=ORIENTED_EDGE('',*,*,#319,.F.);
#404=ORIENTED_EDGE('',*,*,#320,.F.);
#405=ORIENTED_EDGE('',*,*,#316,.T.);
#406=ORIENTED_EDGE('',*,*,#321,.F.);
#407=ORIENTED_EDGE('',*,*,#322,.T.);
#408=ORIENTED_EDGE('',*,*,#323,.F.);
#409=ORIENTED_EDGE('',*,*,#324,.F.);
#410=ORIENTED_EDGE('',*,*,#322,.F.);
#411=ORIENTED_EDGE('',*,*,#325,.F.);
#412=ORIENTED_EDGE('',*,*,#318,.T.);
#413=ORIENTED_EDGE('',*,*,#326,.F.);
#414=ORIENTED_EDGE('',*,*,#327,.F.);
#415=ORIENTED_EDGE('',*,*,#328,.F.);
#416=ORIENTED_EDGE('',*,*,#329,.F.);
#417=ORIENTED_EDGE('',*,*,#301,.F.);
#418=ORIENTED_EDGE('',*,*,#330,.F.);
#419=ORIENTED_EDGE('',*,*,#331,.T.);
#420=ORIENTED_EDGE('',*,*,#332,.F.);
#421=ORIENTED_EDGE('',*,*,#333,.F.);
#422=ORIENTED_EDGE('',*,*,#331,.F.);
#423=ORIENTED_EDGE('',*,*,#334,.F.);
#424=ORIENTED_EDGE('',*,*,#335,.F.);
#425=ORIENTED_EDGE('',*,*,#327,.T.);
#426=ORIENTED_EDGE('',*,*,#336,.F.);
#427=ORIENTED_EDGE('',*,*,#329,.T.);
#428=ORIENTED_EDGE('',*,*,#337,.F.);
#429=ORIENTED_EDGE('',*,*,#338,.F.);
#430=ORIENTED_EDGE('',*,*,#339,.F.);
#431=ORIENTED_EDGE('',*,*,#340,.T.);
#432=ORIENTED_EDGE('',*,*,#341,.F.);
#433=ORIENTED_EDGE('',*,*,#342,.F.);
#434=ORIENTED_EDGE('',*,*,#340,.F.);
#435=ORIENTED_EDGE('',*,*,#302,.T.);
#436=ORIENTED_EDGE('',*,*,#317,.T.);
#437=ORIENTED_EDGE('',*,*,#343,.T.);
#438=ORIENTED_EDGE('',*,*,#343,.F.);
#439=ORIENTED_EDGE('',*,*,#325,.T.);
#440=ORIENTED_EDGE('',*,*,#321,.T.);
#441=ORIENTED_EDGE('',*,*,#315,.T.);
#442=ORIENTED_EDGE('',*,*,#320,.T.);
#443=ORIENTED_EDGE('',*,*,#344,.F.);
#444=ORIENTED_EDGE('',*,*,#299,.T.);
#445=ORIENTED_EDGE('',*,*,#328,.T.);
#446=ORIENTED_EDGE('',*,*,#345,.T.);
#447=ORIENTED_EDGE('',*,*,#345,.F.);
#448=ORIENTED_EDGE('',*,*,#336,.T.);
#449=ORIENTED_EDGE('',*,*,#326,.T.);
#450=ORIENTED_EDGE('',*,*,#335,.T.);
#451=ORIENTED_EDGE('',*,*,#346,.F.);
#452=ORIENTED_EDGE('',*,*,#347,.F.);
#453=ORIENTED_EDGE('',*,*,#348,.T.);
#454=ORIENTED_EDGE('',*,*,#349,.T.);
#455=ORIENTED_EDGE('',*,*,#338,.T.);
#456=ORIENTED_EDGE('',*,*,#350,.T.);
#457=ORIENTED_EDGE('',*,*,#348,.F.);
#458=ORIENTED_EDGE('',*,*,#351,.T.);
#459=ORIENTED_EDGE('',*,*,#352,.T.);
#460=ORIENTED_EDGE('',*,*,#353,.T.);
#461=ORIENTED_EDGE('',*,*,#354,.T.);
#462=ORIENTED_EDGE('',*,*,#352,.F.);
#463=ORIENTED_EDGE('',*,*,#353,.F.);
#464=ORIENTED_EDGE('',*,*,#354,.F.);
#465=ORIENTED_EDGE('',*,*,#355,.T.);
#466=ORIENTED_EDGE('',*,*,#356,.F.);
#467=ORIENTED_EDGE('',*,*,#357,.F.);
#468=ORIENTED_EDGE('',*,*,#355,.F.);
#469=ORIENTED_EDGE('',*,*,#308,.T.);
#470=ORIENTED_EDGE('',*,*,#309,.T.);
#471=ORIENTED_EDGE('',*,*,#313,.T.);
#472=ORIENTED_EDGE('',*,*,#314,.T.);
#473=ORIENTED_EDGE('',*,*,#323,.T.);
#474=ORIENTED_EDGE('',*,*,#324,.T.);
#475=ORIENTED_EDGE('',*,*,#341,.T.);
#476=ORIENTED_EDGE('',*,*,#342,.T.);
#477=ORIENTED_EDGE('',*,*,#351,.F.);
#478=ORIENTED_EDGE('',*,*,#358,.T.);
#479=ORIENTED_EDGE('',*,*,#356,.T.);
#480=ORIENTED_EDGE('',*,*,#357,.T.);
#481=ORIENTED_EDGE('',*,*,#359,.T.);
#482=ORIENTED_EDGE('',*,*,#360,.T.);
#483=ORIENTED_EDGE('',*,*,#359,.F.);
#484=ORIENTED_EDGE('',*,*,#360,.F.);
#485=ORIENTED_EDGE('',*,*,#361,.T.);
#486=ORIENTED_EDGE('',*,*,#362,.T.);
#487=ORIENTED_EDGE('',*,*,#363,.T.);
#488=ORIENTED_EDGE('',*,*,#364,.T.);
#489=ORIENTED_EDGE('',*,*,#365,.T.);
#490=ORIENTED_EDGE('',*,*,#364,.F.);
#491=ORIENTED_EDGE('',*,*,#365,.F.);
#492=ORIENTED_EDGE('',*,*,#366,.T.);
#493=ORIENTED_EDGE('',*,*,#361,.F.);
#494=ORIENTED_EDGE('',*,*,#367,.T.);
#495=ORIENTED_EDGE('',*,*,#362,.F.);
#496=ORIENTED_EDGE('',*,*,#363,.F.);
#497=ORIENTED_EDGE('',*,*,#367,.F.);
#498=ORIENTED_EDGE('',*,*,#332,.T.);
#499=ORIENTED_EDGE('',*,*,#333,.T.);
#500=ORIENTED_EDGE('',*,*,#366,.F.);
#501=ORIENTED_EDGE('',*,*,#368,.T.);
#502=ORIENTED_EDGE('',*,*,#346,.T.);
#503=ORIENTED_EDGE('',*,*,#334,.T.);
#504=ORIENTED_EDGE('',*,*,#330,.T.);
#505=ORIENTED_EDGE('',*,*,#300,.T.);
#506=ORIENTED_EDGE('',*,*,#368,.F.);
#507=ORIENTED_EDGE('',*,*,#337,.T.);
#508=ORIENTED_EDGE('',*,*,#339,.T.);
#509=ORIENTED_EDGE('',*,*,#349,.F.);
#510=ORIENTED_EDGE('',*,*,#369,.T.);
#511=ORIENTED_EDGE('',*,*,#344,.T.);
#512=ORIENTED_EDGE('',*,*,#319,.T.);
#513=ORIENTED_EDGE('',*,*,#303,.T.);
#514=ORIENTED_EDGE('',*,*,#369,.F.);
#515=ORIENTED_EDGE('',*,*,#350,.F.);
#516=ORIENTED_EDGE('',*,*,#358,.F.);
#517=ORIENTED_EDGE('',*,*,#370,.T.);
#518=ORIENTED_EDGE('',*,*,#347,.T.);
#519=ORIENTED_EDGE('',*,*,#370,.F.);
#520=ORIENTED_EDGE('',*,*,#305,.T.);
#521=ORIENTED_EDGE('',*,*,#306,.T.);
#522=ORIENTED_EDGE('',*,*,#310,.T.);
#523=ORIENTED_EDGE('',*,*,#311,.T.);
#524=ORIENTED_EDGE('',*,*,#371,.F.);
#525=ORIENTED_EDGE('',*,*,#372,.T.);
#526=ORIENTED_EDGE('',*,*,#373,.T.);
#527=ORIENTED_EDGE('',*,*,#372,.F.);
#528=ORIENTED_EDGE('',*,*,#374,.F.);
#529=ORIENTED_EDGE('',*,*,#371,.T.);
#530=ORIENTED_EDGE('',*,*,#375,.F.);
#531=ORIENTED_EDGE('',*,*,#376,.T.);
#532=ORIENTED_EDGE('',*,*,#374,.T.);
#533=ORIENTED_EDGE('',*,*,#376,.F.);
#534=ORIENTED_EDGE('',*,*,#375,.T.);
#535=ORIENTED_EDGE('',*,*,#377,.F.);
#536=ORIENTED_EDGE('',*,*,#377,.T.);
#537=ORIENTED_EDGE('',*,*,#378,.T.);
#538=ORIENTED_EDGE('',*,*,#379,.F.);
#539=ORIENTED_EDGE('',*,*,#378,.F.);
#540=ORIENTED_EDGE('',*,*,#373,.F.);
#541=ORIENTED_EDGE('',*,*,#379,.T.);
#542=CONICAL_SURFACE('',#608,1.25875,1.02974425867665);
#543=CONICAL_SURFACE('',#610,1.25875,1.02974425867665);
#544=CONICAL_SURFACE('',#625,1.25875,1.02974425867665);
#545=CONICAL_SURFACE('',#627,1.25875,1.02974425867665);
#546=CONICAL_SURFACE('',#629,3.,1.02974425867665);
#547=CONICAL_SURFACE('',#633,9.75,0.785398163397442);
#548=CONICAL_SURFACE('',#642,9.75,0.785398163397442);
#549=CONICAL_SURFACE('',#646,5.75,0.785398163397451);
#550=ADVANCED_FACE('',(#63),#542,.F.);
#551=ADVANCED_FACE('',(#64),#543,.F.);
#552=ADVANCED_FACE('',(#65),#50,.F.);
#553=ADVANCED_FACE('',(#66),#51,.F.);
#554=ADVANCED_FACE('',(#67),#40,.F.);
#555=ADVANCED_FACE('',(#68),#41,.F.);
#556=ADVANCED_FACE('',(#69),#52,.F.);
#557=ADVANCED_FACE('',(#70),#42,.F.);
#558=ADVANCED_FACE('',(#71),#43,.F.);
#559=ADVANCED_FACE('',(#72),#53,.F.);
#560=ADVANCED_FACE('',(#73),#54,.F.);
#561=ADVANCED_FACE('',(#74),#544,.F.);
#562=ADVANCED_FACE('',(#75),#545,.F.);
#563=ADVANCED_FACE('',(#76),#546,.F.);
#564=ADVANCED_FACE('',(#77),#547,.T.);
#565=ADVANCED_FACE('',(#78,#27,#28,#29,#30),#55,.T.);
#566=ADVANCED_FACE('',(#79,#31),#44,.T.);
#567=ADVANCED_FACE('',(#80),#548,.T.);
#568=ADVANCED_FACE('',(#81,#32),#45,.T.);
#569=ADVANCED_FACE('',(#82),#549,.T.);
#570=ADVANCED_FACE('',(#83,#33),#46,.T.);
#571=ADVANCED_FACE('',(#84,#34),#56,.T.);
#572=ADVANCED_FACE('',(#85),#57,.F.);
#573=ADVANCED_FACE('',(#86),#58,.F.);
#574=ADVANCED_FACE('',(#87,#35,#36),#59,.F.);
#575=ADVANCED_FACE('',(#88),#60,.T.);
#576=ADVANCED_FACE('',(#89,#37),#47,.T.);
#577=ADVANCED_FACE('',(#90),#61,.T.);
#578=ADVANCED_FACE('',(#91,#38),#48,.T.);
#579=ADVANCED_FACE('',(#92),#62,.F.);
#580=ADVANCED_FACE('',(#93,#39),#49,.T.);
#581=CLOSED_SHELL('',(#550,#551,#552,#553,#554,#555,#556,#557,#558,#559,
#560,#561,#562,#563,#564,#565,#566,#567,#568,#569,#570,#571,#572,#573,#574));
#582=CLOSED_SHELL('',(#575,#576,#577,#578,#579,#580));
#583=DERIVED_UNIT_ELEMENT(#587,1.);
#584=DERIVED_UNIT_ELEMENT(#1382,-3.);
#585=DERIVED_UNIT_ELEMENT(#587,1.);
#586=DERIVED_UNIT_ELEMENT(#1382,-3.);
#587=(
MASS_UNIT()
NAMED_UNIT(*)
SI_UNIT(.KILO.,.GRAM.)
);
#588=DERIVED_UNIT((#583,#584));
#589=DERIVED_UNIT((#585,#586));
#590=MEASURE_REPRESENTATION_ITEM('density measure',
POSITIVE_RATIO_MEASURE(7850.),#588);
#591=MEASURE_REPRESENTATION_ITEM('density measure',
POSITIVE_RATIO_MEASURE(7850.),#589);
#592=PROPERTY_DEFINITION_REPRESENTATION(#602,#596);
#593=PROPERTY_DEFINITION_REPRESENTATION(#603,#597);
#594=PROPERTY_DEFINITION_REPRESENTATION(#604,#598);
#595=PROPERTY_DEFINITION_REPRESENTATION(#605,#599);
#596=REPRESENTATION('material name',(#600),#1378);
#597=REPRESENTATION('density',(#590),#1378);
#598=REPRESENTATION('material name',(#601),#1379);
#599=REPRESENTATION('density',(#591),#1379);
#600=DESCRIPTIVE_REPRESENTATION_ITEM('Steel','Steel');
#601=DESCRIPTIVE_REPRESENTATION_ITEM('Steel','Steel');
#602=PROPERTY_DEFINITION('material property','material name',#1398);
#603=PROPERTY_DEFINITION('material property','density of part',#1398);
#604=PROPERTY_DEFINITION('material property','material name',#1399);
#605=PROPERTY_DEFINITION('material property','density of part',#1399);
#606=AXIS2_PLACEMENT_3D('',#826,#671,#672);
#607=AXIS2_PLACEMENT_3D('',#827,#673,#674);
#608=AXIS2_PLACEMENT_3D('',#828,#675,#676);
#609=AXIS2_PLACEMENT_3D('',#833,#678,#679);
#610=AXIS2_PLACEMENT_3D('',#840,#680,#681);
#611=AXIS2_PLACEMENT_3D('',#845,#683,#684);
#612=AXIS2_PLACEMENT_3D('',#852,#685,#686);
#613=AXIS2_PLACEMENT_3D('',#930,#688,#689);
#614=AXIS2_PLACEMENT_3D('',#1008,#691,#692);
#615=AXIS2_PLACEMENT_3D('',#1012,#694,#695);
#616=AXIS2_PLACEMENT_3D('',#1013,#696,#697);
#617=AXIS2_PLACEMENT_3D('',#1016,#699,#700);
#618=AXIS2_PLACEMENT_3D('',#1017,#701,#702);
#619=AXIS2_PLACEMENT_3D('',#1107,#704,#705);
#620=AXIS2_PLACEMENT_3D('',#1111,#707,#708);
#621=AXIS2_PLACEMENT_3D('',#1112,#709,#710);
#622=AXIS2_PLACEMENT_3D('',#1115,#712,#713);
#623=AXIS2_PLACEMENT_3D('',#1116,#714,#715);
#624=AXIS2_PLACEMENT_3D('',#1206,#717,#718);
#625=AXIS2_PLACEMENT_3D('',#1291,#720,#721);
#626=AXIS2_PLACEMENT_3D('',#1294,#723,#724);
#627=AXIS2_PLACEMENT_3D('',#1295,#725,#726);
#628=AXIS2_PLACEMENT_3D('',#1298,#728,#729);
#629=AXIS2_PLACEMENT_3D('',#1299,#730,#731);
#630=AXIS2_PLACEMENT_3D('',#1301,#732,#733);
#631=AXIS2_PLACEMENT_3D('',#1304,#735,#736);
#632=AXIS2_PLACEMENT_3D('',#1305,#737,#738);
#633=AXIS2_PLACEMENT_3D('',#1306,#739,#740);
#634=AXIS2_PLACEMENT_3D('',#1308,#741,#742);
#635=AXIS2_PLACEMENT_3D('',#1312,#744,#745);
#636=AXIS2_PLACEMENT_3D('',#1313,#746,#747);
#637=AXIS2_PLACEMENT_3D('',#1314,#748,#749);
#638=AXIS2_PLACEMENT_3D('',#1318,#751,#752);
#639=AXIS2_PLACEMENT_3D('',#1319,#753,#754);
#640=AXIS2_PLACEMENT_3D('',#1320,#755,#756);
#641=AXIS2_PLACEMENT_3D('',#1322,#757,#758);
#642=AXIS2_PLACEMENT_3D('',#1323,#759,#760);
#643=AXIS2_PLACEMENT_3D('',#1326,#762,#763);
#644=AXIS2_PLACEMENT_3D('',#1327,#764,#765);
#645=AXIS2_PLACEMENT_3D('',#1329,#766,#767);
#646=AXIS2_PLACEMENT_3D('',#1330,#768,#769);
#647=AXIS2_PLACEMENT_3D('',#1333,#770,#771);
#648=AXIS2_PLACEMENT_3D('',#1334,#772,#773);
#649=AXIS2_PLACEMENT_3D('',#1337,#775,#776);
#650=AXIS2_PLACEMENT_3D('',#1338,#777,#778);
#651=AXIS2_PLACEMENT_3D('',#1340,#779,#780);
#652=AXIS2_PLACEMENT_3D('',#1341,#781,#782);
#653=AXIS2_PLACEMENT_3D('',#1343,#784,#785);
#654=AXIS2_PLACEMENT_3D('',#1345,#787,#788);
#655=AXIS2_PLACEMENT_3D('',#1347,#790,#791);
#656=AXIS2_PLACEMENT_3D('',#1349,#793,#794);
#657=AXIS2_PLACEMENT_3D('',#1350,#795,#796);
#658=AXIS2_PLACEMENT_3D('',#1352,#797,#798);
#659=AXIS2_PLACEMENT_3D('',#1355,#800,#801);
#660=AXIS2_PLACEMENT_3D('',#1356,#802,#803);
#661=AXIS2_PLACEMENT_3D('',#1358,#804,#805);
#662=AXIS2_PLACEMENT_3D('',#1359,#806,#807);
#663=AXIS2_PLACEMENT_3D('',#1361,#808,#809);
#664=AXIS2_PLACEMENT_3D('',#1363,#811,#812);
#665=AXIS2_PLACEMENT_3D('',#1365,#813,#814);
#666=AXIS2_PLACEMENT_3D('',#1366,#815,#816);
#667=AXIS2_PLACEMENT_3D('',#1369,#818,#819);
#668=AXIS2_PLACEMENT_3D('',#1370,#820,#821);
#669=AXIS2_PLACEMENT_3D('',#1371,#822,#823);
#670=AXIS2_PLACEMENT_3D('',#1372,#824,#825);
#671=DIRECTION('axis',(0.,0.,1.));
#672=DIRECTION('refdir',(1.,0.,0.));
#673=DIRECTION('axis',(0.,0.,1.));
#674=DIRECTION('refdir',(1.,0.,0.));
#675=DIRECTION('center_axis',(0.,0.,-1.));
#676=DIRECTION('ref_axis',(-1.,0.,0.));
#677=DIRECTION('',(-0.857167300702112,-1.04972719113862E-16,0.515038074910054));
#678=DIRECTION('center_axis',(0.,0.,1.));
#679=DIRECTION('ref_axis',(-1.,0.,0.));
#680=DIRECTION('center_axis',(0.,0.,1.));
#681=DIRECTION('ref_axis',(1.,0.,0.));
#682=DIRECTION('',(0.857167300702112,-1.04972719113862E-16,-0.515038074910054));
#683=DIRECTION('center_axis',(0.,0.,-1.));
#684=DIRECTION('ref_axis',(1.,0.,0.));
#685=DIRECTION('center_axis',(0.,-1.,0.));
#686=DIRECTION('ref_axis',(0.,0.,1.));
#687=DIRECTION('',(0.,-1.,0.));
#688=DIRECTION('center_axis',(0.,-1.,0.));
#689=DIRECTION('ref_axis',(0.,0.,1.));
#690=DIRECTION('',(0.,-1.,0.));
#691=DIRECTION('center_axis',(0.,1.,0.));
#692=DIRECTION('ref_axis',(0.,0.,-1.));
#693=DIRECTION('',(0.857167300702102,0.,0.515038074910072));
#694=DIRECTION('center_axis',(0.,1.,0.));
#695=DIRECTION('ref_axis',(0.,0.,1.));
#696=DIRECTION('center_axis',(0.,1.,0.));
#697=DIRECTION('ref_axis',(0.,0.,-1.));
#698=DIRECTION('',(0.857167300702102,0.,-0.515038074910072));
#699=DIRECTION('center_axis',(0.,1.,0.));
#700=DIRECTION('ref_axis',(0.,0.,1.));
#701=DIRECTION('center_axis',(0.,-1.,0.));
#702=DIRECTION('ref_axis',(0.,0.,1.));
#703=DIRECTION('',(0.,-1.,0.));
#704=DIRECTION('center_axis',(0.,1.,0.));
#705=DIRECTION('ref_axis',(0.,0.,-1.));
#706=DIRECTION('',(-0.857167300702114,0.,-0.515038074910052));
#707=DIRECTION('center_axis',(0.,1.,0.));
#708=DIRECTION('ref_axis',(0.,0.,1.));
#709=DIRECTION('center_axis',(0.,1.,0.));
#710=DIRECTION('ref_axis',(0.,0.,-1.));
#711=DIRECTION('',(-0.857167300702114,0.,0.515038074910052));
#712=DIRECTION('center_axis',(0.,1.,0.));
#713=DIRECTION('ref_axis',(0.,0.,1.));
#714=DIRECTION('center_axis',(0.,-1.,0.));
#715=DIRECTION('ref_axis',(0.,0.,1.));
#716=DIRECTION('',(0.,-1.,0.));
#717=DIRECTION('center_axis',(0.,-1.,0.));
#718=DIRECTION('ref_axis',(0.,0.,1.));
#719=DIRECTION('',(0.,-1.,0.));
#720=DIRECTION('center_axis',(0.,0.,1.));
#721=DIRECTION('ref_axis',(1.,0.,0.));
#722=DIRECTION('',(0.857167300702112,-1.04972719113862E-16,-0.515038074910054));
#723=DIRECTION('center_axis',(0.,0.,-1.));
#724=DIRECTION('ref_axis',(1.,0.,0.));
#725=DIRECTION('center_axis',(0.,0.,-1.));
#726=DIRECTION('ref_axis',(-1.,0.,0.));
#727=DIRECTION('',(-0.857167300702112,-1.04972719113862E-16,0.515038074910054));
#728=DIRECTION('center_axis',(0.,0.,1.));
#729=DIRECTION('ref_axis',(-1.,0.,0.));
#730=DIRECTION('center_axis',(0.,0.,1.));
#731=DIRECTION('ref_axis',(1.,0.,0.));
#732=DIRECTION('center_axis',(0.,0.,-1.));
#733=DIRECTION('ref_axis',(1.,0.,0.));
#734=DIRECTION('',(0.857167300702112,-1.04972719113862E-16,-0.515038074910054));
#735=DIRECTION('center_axis',(0.,0.,-1.));
#736=DIRECTION('ref_axis',(1.,0.,0.));
#737=DIRECTION('center_axis',(0.,0.,-1.));
#738=DIRECTION('ref_axis',(1.,0.,0.));
#739=DIRECTION('center_axis',(0.,0.,-1.));
#740=DIRECTION('ref_axis',(-1.,0.,0.));
#741=DIRECTION('center_axis',(0.,0.,-1.));
#742=DIRECTION('ref_axis',(-1.,0.,0.));
#743=DIRECTION('',(0.707106781186543,8.65956056235488E-17,-0.707106781186552));
#744=DIRECTION('center_axis',(0.,0.,1.));
#745=DIRECTION('ref_axis',(-1.,0.,0.));
#746=DIRECTION('center_axis',(0.,0.,1.));
#747=DIRECTION('ref_axis',(-1.,0.,0.));
#748=DIRECTION('center_axis',(0.,0.,1.));
#749=DIRECTION('ref_axis',(1.,0.,0.));
#750=DIRECTION('',(0.,0.,-1.));
#751=DIRECTION('center_axis',(0.,0.,-1.));
#752=DIRECTION('ref_axis',(-1.,0.,0.));
#753=DIRECTION('center_axis',(0.,0.,-1.));
#754=DIRECTION('ref_axis',(-1.,0.,0.));
#755=DIRECTION('center_axis',(0.,0.,1.));
#756=DIRECTION('ref_axis',(1.,0.,0.));
#757=DIRECTION('center_axis',(0.,0.,-1.));
#758=DIRECTION('ref_axis',(1.,0.,0.));
#759=DIRECTION('center_axis',(0.,0.,1.));
#760=DIRECTION('ref_axis',(-1.,0.,0.));
#761=DIRECTION('',(-0.707106781186543,-8.65956056235488E-17,-0.707106781186552));
#762=DIRECTION('center_axis',(0.,0.,1.));
#763=DIRECTION('ref_axis',(-1.,0.,0.));
#764=DIRECTION('center_axis',(0.,0.,-1.));
#765=DIRECTION('ref_axis',(-1.,0.,0.));
#766=DIRECTION('center_axis',(0.,0.,1.));
#767=DIRECTION('ref_axis',(1.,0.,0.));
#768=DIRECTION('center_axis',(0.,0.,1.));
#769=DIRECTION('ref_axis',(-1.,0.,0.));
#770=DIRECTION('center_axis',(0.,0.,-1.));
#771=DIRECTION('ref_axis',(-1.,0.,0.));
#772=DIRECTION('center_axis',(0.,0.,-1.));
#773=DIRECTION('ref_axis',(-1.,0.,0.));
#774=DIRECTION('',(-0.707106781186549,-8.65956056235495E-17,-0.707106781186546));
#775=DIRECTION('center_axis',(0.,0.,1.));
#776=DIRECTION('ref_axis',(-1.,0.,0.));
#777=DIRECTION('center_axis',(0.,0.,-1.));
#778=DIRECTION('ref_axis',(-1.,0.,0.));
#779=DIRECTION('center_axis',(0.,0.,1.));
#780=DIRECTION('ref_axis',(-1.,0.,0.));
#781=DIRECTION('center_axis',(0.,0.,1.));
#782=DIRECTION('ref_axis',(1.,0.,0.));
#783=DIRECTION('',(0.,0.,-1.));
#784=DIRECTION('center_axis',(0.,0.,1.));
#785=DIRECTION('ref_axis',(-1.,0.,0.));
#786=DIRECTION('',(0.,0.,1.));
#787=DIRECTION('center_axis',(0.,0.,-1.));
#788=DIRECTION('ref_axis',(1.,0.,0.));
#789=DIRECTION('',(0.,0.,-1.));
#790=DIRECTION('center_axis',(0.,0.,-1.));
#791=DIRECTION('ref_axis',(1.,0.,0.));
#792=DIRECTION('',(0.,0.,-1.));
#793=DIRECTION('axis',(0.,0.,1.));
#794=DIRECTION('refdir',(1.,0.,0.));
#795=DIRECTION('center_axis',(0.,0.,1.));
#796=DIRECTION('ref_axis',(1.,0.,0.));
#797=DIRECTION('center_axis',(0.,0.,1.));
#798=DIRECTION('ref_axis',(1.,0.,0.));
#799=DIRECTION('',(0.,0.,-1.));
#800=DIRECTION('center_axis',(0.,0.,1.));
#801=DIRECTION('ref_axis',(1.,0.,0.));
#802=DIRECTION('center_axis',(0.,0.,-1.));
#803=DIRECTION('ref_axis',(-1.,0.,0.));
#804=DIRECTION('center_axis',(0.,0.,1.));
#805=DIRECTION('ref_axis',(1.,0.,0.));
#806=DIRECTION('center_axis',(0.,0.,1.));
#807=DIRECTION('ref_axis',(1.,0.,0.));
#808=DIRECTION('center_axis',(0.,0.,1.));
#809=DIRECTION('ref_axis',(1.,0.,0.));
#810=DIRECTION('',(0.,0.,-1.));
#811=DIRECTION('center_axis',(0.,0.,1.));
#812=DIRECTION('ref_axis',(1.,0.,0.));
#813=DIRECTION('center_axis',(0.,0.,1.));
#814=DIRECTION('ref_axis',(1.,0.,0.));
#815=DIRECTION('center_axis',(0.,0.,1.));
#816=DIRECTION('ref_axis',(1.,0.,0.));
#817=DIRECTION('',(0.,0.,-1.));
#818=DIRECTION('center_axis',(0.,0.,1.));
#819=DIRECTION('ref_axis',(1.,0.,0.));
#820=DIRECTION('center_axis',(0.,0.,-1.));
#821=DIRECTION('ref_axis',(-1.,0.,0.));
#822=DIRECTION('',(0.,0.,1.));
#823=DIRECTION('',(1.,0.,0.));
#824=DIRECTION('',(0.,0.,1.));
#825=DIRECTION('',(1.,0.,0.));
#826=CARTESIAN_POINT('',(0.,0.,0.));
#827=CARTESIAN_POINT('',(0.,0.,0.));
#828=CARTESIAN_POINT('Origin',(-2.33890309951163E-16,0.,25.7563333042009));
#829=CARTESIAN_POINT('',(2.5175,3.08304831685346E-16,25.));
#830=CARTESIAN_POINT('',(1.3142720757002,0.,25.722972275426));
#831=CARTESIAN_POINT('',(1.25875,1.54152415842673E-16,25.7563333042009));
#832=CARTESIAN_POINT('',(1.5,-2.02183239908752,25.));
#833=CARTESIAN_POINT('Origin',(-2.33890309951163E-16,0.,25.));
#834=CARTESIAN_POINT('Ctrl Pts',(1.5,-2.02183239908752,25.));
#835=CARTESIAN_POINT('Ctrl Pts',(1.5,-1.73481620725811,25.1385019255093));
#836=CARTESIAN_POINT('Ctrl Pts',(1.47932829368078,-1.43270758960861,25.2819814969447));
#837=CARTESIAN_POINT('Ctrl Pts',(1.39668381148282,-0.755323224217518,25.57225059179));
#838=CARTESIAN_POINT('Ctrl Pts',(1.3142720757002,-0.387409606701187,25.722972275426));
#839=CARTESIAN_POINT('Ctrl Pts',(1.3142720757002,-3.46944695195361E-17,
25.722972275426));
#840=CARTESIAN_POINT('Origin',(0.,0.,246.743666695799));
#841=CARTESIAN_POINT('',(-2.51750000000001,3.08304831685347E-16,247.5));
#842=CARTESIAN_POINT('',(-1.31427207570021,0.,246.777027724574));
#843=CARTESIAN_POINT('',(-1.25875,1.54152415842673E-16,246.743666695799));
#844=CARTESIAN_POINT('',(-1.5,-2.02183239908752,247.5));
#845=CARTESIAN_POINT('Origin',(0.,0.,247.5));
#846=CARTESIAN_POINT('Ctrl Pts',(-1.5,-2.02183239908752,247.5));
#847=CARTESIAN_POINT('Ctrl Pts',(-1.5,-1.73481620725811,247.361498074491));
#848=CARTESIAN_POINT('Ctrl Pts',(-1.47932829368078,-1.43270758960858,247.218018503055));
#849=CARTESIAN_POINT('Ctrl Pts',(-1.39668381148282,-0.755323224217494,246.92774940821));
#850=CARTESIAN_POINT('Ctrl Pts',(-1.31427207570022,-0.387409606701185,246.777027724574));
#851=CARTESIAN_POINT('Ctrl Pts',(-1.31427207570022,1.04083408558608E-16,
246.777027724574));
#852=CARTESIAN_POINT('Origin',(0.,-5.50076525335395,280.));
#853=CARTESIAN_POINT('',(-2.117,-5.61411711669787,280.));
#854=CARTESIAN_POINT('',(2.77080359147776E-16,-6.,277.883));
#855=CARTESIAN_POINT('Ctrl Pts',(-2.117,-5.61411711669787,280.));
#856=CARTESIAN_POINT('Ctrl Pts',(-2.117,-5.61411711669787,279.731586490696));
#857=CARTESIAN_POINT('Ctrl Pts',(-2.06288194517509,-5.63539297838208,279.447050012034));
#858=CARTESIAN_POINT('Ctrl Pts',(-1.846163757548,-5.71006257413022,278.926260806215));
#859=CARTESIAN_POINT('Ctrl Pts',(-1.68366880112429,-5.76215579648966,278.68977868958));
#860=CARTESIAN_POINT('Ctrl Pts',(-1.31033152022198,-5.85834170098139,278.316441408678));
#861=CARTESIAN_POINT('Ctrl Pts',(-1.07380608633749,-5.90898115435694,278.153861937761));
#862=CARTESIAN_POINT('Ctrl Pts',(-0.552854099234853,-5.98025669508798,277.937080293329));
#863=CARTESIAN_POINT('Ctrl Pts',(-0.268255083819858,-6.,277.883));
#864=CARTESIAN_POINT('Ctrl Pts',(-1.38777878078145E-15,-6.,277.883));
#865=CARTESIAN_POINT('Ctrl Pts',(2.94902990916057E-16,-6.,277.883));
#866=CARTESIAN_POINT('Ctrl Pts',(0.268255083819857,-6.,277.883));
#867=CARTESIAN_POINT('Ctrl Pts',(0.552854099234853,-5.98025669508798,277.937080293329));
#868=CARTESIAN_POINT('Ctrl Pts',(1.07380608633749,-5.90898115435694,278.153861937761));
#869=CARTESIAN_POINT('Ctrl Pts',(1.31033152022198,-5.85834170098139,278.316441408678));
#870=CARTESIAN_POINT('Ctrl Pts',(1.68366880112429,-5.76215579648966,278.68977868958));
#871=CARTESIAN_POINT('Ctrl Pts',(1.846163757548,-5.71006257413022,278.926260806215));
#872=CARTESIAN_POINT('Ctrl Pts',(2.06288194517509,-5.63539297838208,279.447050012034));
#873=CARTESIAN_POINT('Ctrl Pts',(2.117,-5.61411711669787,279.731586490696));
#874=CARTESIAN_POINT('Ctrl Pts',(2.117,-5.61411711669787,280.268413509304));
#875=CARTESIAN_POINT('Ctrl Pts',(2.06288194517509,-5.63539297838208,280.552949987966));
#876=CARTESIAN_POINT('Ctrl Pts',(1.846163757548,-5.71006257413022,281.073739193785));
#877=CARTESIAN_POINT('Ctrl Pts',(1.68366880112429,-5.76215579648966,281.31022131042));
#878=CARTESIAN_POINT('Ctrl Pts',(1.31033152022198,-5.85834170098139,281.683558591322));
#879=CARTESIAN_POINT('Ctrl Pts',(1.07380608633749,-5.90898115435694,281.846138062239));
#880=CARTESIAN_POINT('Ctrl Pts',(0.552854099234853,-5.98025669508798,282.062919706671));
#881=CARTESIAN_POINT('Ctrl Pts',(0.268255083819857,-6.,282.117));
#882=CARTESIAN_POINT('Ctrl Pts',(-0.268255083819857,-6.,282.117));
#883=CARTESIAN_POINT('Ctrl Pts',(-0.552854099234853,-5.98025669508798,282.062919706671));
#884=CARTESIAN_POINT('Ctrl Pts',(-1.07380608633749,-5.90898115435694,281.846138062239));
#885=CARTESIAN_POINT('Ctrl Pts',(-1.31033152022198,-5.85834170098139,281.683558591322));
#886=CARTESIAN_POINT('Ctrl Pts',(-1.68366880112429,-5.76215579648966,281.31022131042));
#887=CARTESIAN_POINT('Ctrl Pts',(-1.846163757548,-5.71006257413022,281.073739193785));
#888=CARTESIAN_POINT('Ctrl Pts',(-2.06288194517509,-5.63539297838208,280.552949987966));
#889=CARTESIAN_POINT('Ctrl Pts',(-2.117,-5.61411711669787,280.268413509304));
#890=CARTESIAN_POINT('Ctrl Pts',(-2.117,-5.61411711669787,280.));
#891=CARTESIAN_POINT('',(2.59257727379495E-16,-10.,277.883));
#892=CARTESIAN_POINT('',(2.59257727379495E-16,-5.50076525335395,277.883));
#893=CARTESIAN_POINT('',(2.117,-9.77334697020422,280.));
#894=CARTESIAN_POINT('Ctrl Pts',(2.117,-9.77334697020422,280.));
#895=CARTESIAN_POINT('Ctrl Pts',(2.117,-9.77334697020422,279.733305137552));
#896=CARTESIAN_POINT('Ctrl Pts',(2.06353527861311,-9.7853964126208,279.449405818558));
#897=CARTESIAN_POINT('Ctrl Pts',(1.84724186512159,-9.82852267898462,278.928072029963));
#898=CARTESIAN_POINT('Ctrl Pts',(1.68445533080158,-9.85893383104628,278.690565219258));
#899=CARTESIAN_POINT('Ctrl Pts',(1.30944803203639,-9.91571010137807,278.315557920493));
#900=CARTESIAN_POINT('Ctrl Pts',(1.0719356172238,-9.9458210595498,278.152761015918));
#901=CARTESIAN_POINT('Ctrl Pts',(0.550582266991828,-9.98825618810328,277.936460069927));
#902=CARTESIAN_POINT('Ctrl Pts',(0.266676015203505,-10.,277.883));
#903=CARTESIAN_POINT('Ctrl Pts',(-2.60208521396521E-16,-10.,277.883));
#904=CARTESIAN_POINT('Ctrl Pts',(-2.60208521396521E-16,-10.,277.883));
#905=CARTESIAN_POINT('Ctrl Pts',(-0.266676015203505,-10.,277.883));
#906=CARTESIAN_POINT('Ctrl Pts',(-0.550582266991828,-9.98825618810328,277.936460069927));
#907=CARTESIAN_POINT('Ctrl Pts',(-1.0719356172238,-9.9458210595498,278.152761015918));
#908=CARTESIAN_POINT('Ctrl Pts',(-1.30944803203639,-9.91571010137807,278.315557920493));
#909=CARTESIAN_POINT('Ctrl Pts',(-1.68445533080158,-9.85893383104628,278.690565219258));
#910=CARTESIAN_POINT('Ctrl Pts',(-1.84724186512159,-9.82852267898462,278.928072029963));
#911=CARTESIAN_POINT('Ctrl Pts',(-2.06353527861311,-9.7853964126208,279.449405818558));
#912=CARTESIAN_POINT('Ctrl Pts',(-2.117,-9.77334697020422,279.733305137552));
#913=CARTESIAN_POINT('Ctrl Pts',(-2.117,-9.77334697020422,280.266694862448));
#914=CARTESIAN_POINT('Ctrl Pts',(-2.06353527861311,-9.7853964126208,280.550594181442));
#915=CARTESIAN_POINT('Ctrl Pts',(-1.84724186512159,-9.82852267898462,281.071927970037));
#916=CARTESIAN_POINT('Ctrl Pts',(-1.68445533080158,-9.85893383104628,281.309434780742));
#917=CARTESIAN_POINT('Ctrl Pts',(-1.30944803203639,-9.91571010137807,281.684442079507));
#918=CARTESIAN_POINT('Ctrl Pts',(-1.0719356172238,-9.9458210595498,281.847238984082));
#919=CARTESIAN_POINT('Ctrl Pts',(-0.550582266991828,-9.98825618810328,282.063539930073));
#920=CARTESIAN_POINT('Ctrl Pts',(-0.266676015203505,-10.,282.117));
#921=CARTESIAN_POINT('Ctrl Pts',(0.266676015203505,-10.,282.117));
#922=CARTESIAN_POINT('Ctrl Pts',(0.550582266991827,-9.98825618810328,282.063539930073));
#923=CARTESIAN_POINT('Ctrl Pts',(1.0719356172238,-9.9458210595498,281.847238984082));
#924=CARTESIAN_POINT('Ctrl Pts',(1.30944803203639,-9.91571010137807,281.684442079507));
#925=CARTESIAN_POINT('Ctrl Pts',(1.68445533080158,-9.85893383104628,281.309434780742));
#926=CARTESIAN_POINT('Ctrl Pts',(1.84724186512159,-9.82852267898462,281.071927970037));
#927=CARTESIAN_POINT('Ctrl Pts',(2.06353527861311,-9.7853964126208,280.550594181442));
#928=CARTESIAN_POINT('Ctrl Pts',(2.117,-9.77334697020422,280.266694862448));
#929=CARTESIAN_POINT('Ctrl Pts',(2.117,-9.77334697020422,280.));
#930=CARTESIAN_POINT('Origin',(0.,-5.50076525335395,290.));
#931=CARTESIAN_POINT('',(-2.117,-5.61411711669787,290.));
#932=CARTESIAN_POINT('',(-5.64260526700976E-16,-6.,287.883));
#933=CARTESIAN_POINT('Ctrl Pts',(-2.117,-5.61411711669787,290.));
#934=CARTESIAN_POINT('Ctrl Pts',(-2.117,-5.61411711669787,289.731586490696));
#935=CARTESIAN_POINT('Ctrl Pts',(-2.06288194517509,-5.63539297838208,289.447050012034));
#936=CARTESIAN_POINT('Ctrl Pts',(-1.846163757548,-5.71006257413022,288.926260806215));
#937=CARTESIAN_POINT('Ctrl Pts',(-1.68366880112429,-5.76215579648966,288.68977868958));
#938=CARTESIAN_POINT('Ctrl Pts',(-1.31033152022198,-5.85834170098139,288.316441408678));
#939=CARTESIAN_POINT('Ctrl Pts',(-1.07380608633749,-5.90898115435694,288.153861937761));
#940=CARTESIAN_POINT('Ctrl Pts',(-0.552854099234853,-5.98025669508798,287.937080293329));
#941=CARTESIAN_POINT('Ctrl Pts',(-0.268255083819856,-6.,287.883));
#942=CARTESIAN_POINT('Ctrl Pts',(8.32667268468867E-16,-6.,287.883));
#943=CARTESIAN_POINT('Ctrl Pts',(-1.80411241501588E-15,-6.,287.883));
#944=CARTESIAN_POINT('Ctrl Pts',(0.268255083819855,-6.,287.883));
#945=CARTESIAN_POINT('Ctrl Pts',(0.552854099234853,-5.98025669508798,287.937080293329));
#946=CARTESIAN_POINT('Ctrl Pts',(1.07380608633749,-5.90898115435694,288.153861937761));
#947=CARTESIAN_POINT('Ctrl Pts',(1.31033152022198,-5.85834170098139,288.316441408678));
#948=CARTESIAN_POINT('Ctrl Pts',(1.68366880112429,-5.76215579648966,288.68977868958));
#949=CARTESIAN_POINT('Ctrl Pts',(1.846163757548,-5.71006257413022,288.926260806215));
#950=CARTESIAN_POINT('Ctrl Pts',(2.06288194517509,-5.63539297838208,289.447050012034));
#951=CARTESIAN_POINT('Ctrl Pts',(2.117,-5.61411711669787,289.731586490696));
#952=CARTESIAN_POINT('Ctrl Pts',(2.117,-5.61411711669787,290.268413509304));
#953=CARTESIAN_POINT('Ctrl Pts',(2.06288194517509,-5.63539297838208,290.552949987966));
#954=CARTESIAN_POINT('Ctrl Pts',(1.846163757548,-5.71006257413022,291.073739193785));
#955=CARTESIAN_POINT('Ctrl Pts',(1.68366880112429,-5.76215579648966,291.31022131042));
#956=CARTESIAN_POINT('Ctrl Pts',(1.31033152022198,-5.85834170098139,291.683558591322));
#957=CARTESIAN_POINT('Ctrl Pts',(1.07380608633749,-5.90898115435694,291.846138062239));
#958=CARTESIAN_POINT('Ctrl Pts',(0.552854099234853,-5.98025669508798,292.062919706671));
#959=CARTESIAN_POINT('Ctrl Pts',(0.268255083819857,-6.,292.117));
#960=CARTESIAN_POINT('Ctrl Pts',(-0.268255083819857,-6.,292.117));
#961=CARTESIAN_POINT('Ctrl Pts',(-0.552854099234853,-5.98025669508798,292.062919706671));
#962=CARTESIAN_POINT('Ctrl Pts',(-1.07380608633749,-5.90898115435694,291.846138062239));
#963=CARTESIAN_POINT('Ctrl Pts',(-1.31033152022198,-5.85834170098139,291.683558591322));
#964=CARTESIAN_POINT('Ctrl Pts',(-1.68366880112429,-5.76215579648966,291.31022131042));
#965=CARTESIAN_POINT('Ctrl Pts',(-1.846163757548,-5.71006257413022,291.073739193785));
#966=CARTESIAN_POINT('Ctrl Pts',(-2.06288194517509,-5.63539297838208,290.552949987966));
#967=CARTESIAN_POINT('Ctrl Pts',(-2.117,-5.61411711669787,290.268413509304));
#968=CARTESIAN_POINT('Ctrl Pts',(-2.117,-5.61411711669787,290.));
#969=CARTESIAN_POINT('',(2.59257727379495E-16,-10.,287.883));
#970=CARTESIAN_POINT('',(2.59257727379495E-16,-5.50076525335395,287.883));
#971=CARTESIAN_POINT('',(2.117,-9.77334697020422,290.));
#972=CARTESIAN_POINT('Ctrl Pts',(2.117,-9.77334697020422,290.));
#973=CARTESIAN_POINT('Ctrl Pts',(2.117,-9.77334697020422,289.733305137552));
#974=CARTESIAN_POINT('Ctrl Pts',(2.06353527861311,-9.7853964126208,289.449405818558));
#975=CARTESIAN_POINT('Ctrl Pts',(1.84724186512159,-9.82852267898462,288.928072029963));
#976=CARTESIAN_POINT('Ctrl Pts',(1.68445533080158,-9.85893383104628,288.690565219258));
#977=CARTESIAN_POINT('Ctrl Pts',(1.30944803203639,-9.91571010137807,288.315557920493));
#978=CARTESIAN_POINT('Ctrl Pts',(1.0719356172238,-9.9458210595498,288.152761015918));
#979=CARTESIAN_POINT('Ctrl Pts',(0.550582266991828,-9.98825618810328,287.936460069927));
#980=CARTESIAN_POINT('Ctrl Pts',(0.266676015203505,-10.,287.883));
#981=CARTESIAN_POINT('Ctrl Pts',(-2.60208521396521E-16,-10.,287.883));
#982=CARTESIAN_POINT('Ctrl Pts',(1.49186218934005E-15,-10.,287.883));
#983=CARTESIAN_POINT('Ctrl Pts',(-0.266676015203504,-10.,287.883));
#984=CARTESIAN_POINT('Ctrl Pts',(-0.550582266991828,-9.98825618810328,287.936460069927));
#985=CARTESIAN_POINT('Ctrl Pts',(-1.0719356172238,-9.9458210595498,288.152761015918));
#986=CARTESIAN_POINT('Ctrl Pts',(-1.30944803203639,-9.91571010137807,288.315557920493));
#987=CARTESIAN_POINT('Ctrl Pts',(-1.68445533080158,-9.85893383104628,288.690565219258));
#988=CARTESIAN_POINT('Ctrl Pts',(-1.84724186512159,-9.82852267898462,288.928072029963));
#989=CARTESIAN_POINT('Ctrl Pts',(-2.06353527861311,-9.7853964126208,289.449405818558));
#990=CARTESIAN_POINT('Ctrl Pts',(-2.117,-9.77334697020422,289.733305137552));
#991=CARTESIAN_POINT('Ctrl Pts',(-2.117,-9.77334697020422,290.266694862448));
#992=CARTESIAN_POINT('Ctrl Pts',(-2.06353527861311,-9.7853964126208,290.550594181442));
#993=CARTESIAN_POINT('Ctrl Pts',(-1.84724186512159,-9.82852267898462,291.071927970037));
#994=CARTESIAN_POINT('Ctrl Pts',(-1.68445533080158,-9.85893383104628,291.309434780742));
#995=CARTESIAN_POINT('Ctrl Pts',(-1.30944803203639,-9.91571010137807,291.684442079507));
#996=CARTESIAN_POINT('Ctrl Pts',(-1.0719356172238,-9.9458210595498,291.847238984082));
#997=CARTESIAN_POINT('Ctrl Pts',(-0.550582266991828,-9.98825618810328,292.063539930073));
#998=CARTESIAN_POINT('Ctrl Pts',(-0.266676015203505,-10.,292.117));
#999=CARTESIAN_POINT('Ctrl Pts',(0.266676015203505,-10.,292.117));
#1000=CARTESIAN_POINT('Ctrl Pts',(0.550582266991827,-9.98825618810328,292.063539930073));
#1001=CARTESIAN_POINT('Ctrl Pts',(1.0719356172238,-9.9458210595498,291.847238984082));
#1002=CARTESIAN_POINT('Ctrl Pts',(1.30944803203639,-9.91571010137807,291.684442079507));
#1003=CARTESIAN_POINT('Ctrl Pts',(1.68445533080158,-9.85893383104628,291.309434780742));
#1004=CARTESIAN_POINT('Ctrl Pts',(1.84724186512159,-9.82852267898462,291.071927970037));
#1005=CARTESIAN_POINT('Ctrl Pts',(2.06353527861311,-9.7853964126208,290.550594181442));
#1006=CARTESIAN_POINT('Ctrl Pts',(2.117,-9.77334697020422,290.266694862448));
#1007=CARTESIAN_POINT('Ctrl Pts',(2.117,-9.77334697020422,290.));
#1008=CARTESIAN_POINT('Origin',(0.,0.,247.5));
#1009=CARTESIAN_POINT('',(0.0213332649863162,0.,246.000151710404));
#1010=CARTESIAN_POINT('',(1.31427207570021,0.,246.777027724574));
#1011=CARTESIAN_POINT('',(1.25875,0.,246.743666695799));
#1012=CARTESIAN_POINT('Origin',(0.,0.,247.5));
#1013=CARTESIAN_POINT('Origin',(0.,0.,247.5));
#1014=CARTESIAN_POINT('',(-0.0213332649863162,0.,246.000151710404));
#1015=CARTESIAN_POINT('',(-1.25875,0.,246.743666695799));
#1016=CARTESIAN_POINT('Origin',(0.,0.,247.5));
#1017=CARTESIAN_POINT('Origin',(0.,-5.5,247.5));
#1018=CARTESIAN_POINT('',(1.5,-2.02183239908752,247.5));
#1019=CARTESIAN_POINT('Ctrl Pts',(1.5,-2.02183239908752,247.5));
#1020=CARTESIAN_POINT('Ctrl Pts',(1.5,-2.02183239908752,247.694808623259));
#1021=CARTESIAN_POINT('Ctrl Pts',(1.46003106353995,-2.05295794208699,247.897442215101));
#1022=CARTESIAN_POINT('Ctrl Pts',(1.30576772782022,-2.15436686659415,248.264606426619));
#1023=CARTESIAN_POINT('Ctrl Pts',(1.19153058136025,-2.22236011017016,248.429789762199));
#1024=CARTESIAN_POINT('Ctrl Pts',(0.930605749666231,-2.34357497500901,248.690714593893));
#1025=CARTESIAN_POINT('Ctrl Pts',(0.765195069571542,-2.40584978687896,248.805521468651));
#1026=CARTESIAN_POINT('Ctrl Pts',(0.396836675227835,-2.49322229098217,248.960284421877));
#1027=CARTESIAN_POINT('Ctrl Pts',(0.193593975917722,-2.5175,249.));
#1028=CARTESIAN_POINT('Ctrl Pts',(-0.193593975917722,-2.5175,249.));
#1029=CARTESIAN_POINT('Ctrl Pts',(-0.396836675227823,-2.49322229098217,
248.960284421877));
#1030=CARTESIAN_POINT('Ctrl Pts',(-0.765195069571542,-2.40584978687896,
248.805521468651));
#1031=CARTESIAN_POINT('Ctrl Pts',(-0.93060574966623,-2.34357497500901,248.690714593893));
#1032=CARTESIAN_POINT('Ctrl Pts',(-1.19153058136025,-2.22236011017016,248.429789762199));
#1033=CARTESIAN_POINT('Ctrl Pts',(-1.30576772782019,-2.15436686659417,248.264606426619));
#1034=CARTESIAN_POINT('Ctrl Pts',(-1.46003106353993,-2.05295794208701,247.897442215101));
#1035=CARTESIAN_POINT('Ctrl Pts',(-1.5,-2.02183239908752,247.694808623259));
#1036=CARTESIAN_POINT('Ctrl Pts',(-1.5,-2.02183239908752,247.5));
#1037=CARTESIAN_POINT('Ctrl Pts',(1.31427207570022,0.,246.777027724574));
#1038=CARTESIAN_POINT('Ctrl Pts',(1.31427207570022,-0.387409606701185,246.777027724574));
#1039=CARTESIAN_POINT('Ctrl Pts',(1.39668381148283,-0.755323224217507,246.92774940821));
#1040=CARTESIAN_POINT('Ctrl Pts',(1.4793282936808,-1.4327075896086,247.218018503055));
#1041=CARTESIAN_POINT('Ctrl Pts',(1.5,-1.7348162072581,247.361498074491));
#1042=CARTESIAN_POINT('Ctrl Pts',(1.5,-2.02183239908752,247.5));
#1043=CARTESIAN_POINT('',(9.36103384663405E-17,-0.0210807764742259,246.));
#1044=CARTESIAN_POINT('Ctrl Pts',(3.52365706057789E-18,-0.0210807764742259,
246.));
#1045=CARTESIAN_POINT('Ctrl Pts',(0.000688487731776973,-0.0210807764742259,
246.));
#1046=CARTESIAN_POINT('Ctrl Pts',(0.00151359807824583,-0.0210386497470028,
246.000000607294));
#1047=CARTESIAN_POINT('Ctrl Pts',(0.00308163801349576,-0.0208780900101851,
246.000002905525));
#1048=CARTESIAN_POINT('Ctrl Pts',(0.00413197134302036,-0.020700144807537,
246.000005442459));
#1049=CARTESIAN_POINT('Ctrl Pts',(0.00725793489625885,-0.0199560191222099,
246.000015853199));
#1050=CARTESIAN_POINT('Ctrl Pts',(0.00982211586493146,-0.0188547902126334,
246.000030895161));
#1051=CARTESIAN_POINT('Ctrl Pts',(0.0145996946709489,-0.0157320174246052,
246.000068380249));
#1052=CARTESIAN_POINT('Ctrl Pts',(0.0170979059800741,-0.013085867399733,
246.000096620858));
#1053=CARTESIAN_POINT('Ctrl Pts',(0.0204639569847485,-0.00691054568597982,
246.00013852969));
#1054=CARTESIAN_POINT('Ctrl Pts',(0.0213332649862981,-0.00338217115704887,
246.000151710404));
#1055=CARTESIAN_POINT('Ctrl Pts',(0.0213332649862981,0.,246.000151710404));
#1056=CARTESIAN_POINT('',(1.83697019872103E-16,-10.,246.));
#1057=CARTESIAN_POINT('',(1.83697019872103E-16,-5.5,246.));
#1058=CARTESIAN_POINT('',(1.5,-9.88685996664259,247.5));
#1059=CARTESIAN_POINT('Ctrl Pts',(1.5,-9.88685996664259,247.5));
#1060=CARTESIAN_POINT('Ctrl Pts',(1.5,-9.88685996664259,247.311348855806));
#1061=CARTESIAN_POINT('Ctrl Pts',(1.46223963651353,-9.89281735499534,247.110321002735));
#1062=CARTESIAN_POINT('Ctrl Pts',(1.30907139898919,-9.91424792849633,246.740838214345));
#1063=CARTESIAN_POINT('Ctrl Pts',(1.1936788400459,-9.92940210259032,246.572358496486));
#1064=CARTESIAN_POINT('Ctrl Pts',(0.927643822834178,-9.9577794513644,246.306323479275));
#1065=CARTESIAN_POINT('Ctrl Pts',(0.759163104215667,-9.97285888719051,246.190929101035));
#1066=CARTESIAN_POINT('Ctrl Pts',(0.389676897170782,-9.99411801596672,246.037759539479));
#1067=CARTESIAN_POINT('Ctrl Pts',(0.188647854862714,-10.,246.));
#1068=CARTESIAN_POINT('Ctrl Pts',(-4.61436444609831E-15,-10.,246.));
#1069=CARTESIAN_POINT('Ctrl Pts',(1.90819582357449E-15,-10.,246.));
#1070=CARTESIAN_POINT('Ctrl Pts',(-0.188647854862717,-10.,246.));
#1071=CARTESIAN_POINT('Ctrl Pts',(-0.389676897170783,-9.99411801596672,
246.037759539479));
#1072=CARTESIAN_POINT('Ctrl Pts',(-0.759163104215668,-9.97285888719051,
246.190929101035));
#1073=CARTESIAN_POINT('Ctrl Pts',(-0.927643822834178,-9.9577794513644,246.306323479275));
#1074=CARTESIAN_POINT('Ctrl Pts',(-1.1936788400459,-9.92940210259032,246.572358496486));
#1075=CARTESIAN_POINT('Ctrl Pts',(-1.30907139898919,-9.91424792849633,246.740838214345));
#1076=CARTESIAN_POINT('Ctrl Pts',(-1.46223963651353,-9.89281735499534,247.110321002735));
#1077=CARTESIAN_POINT('Ctrl Pts',(-1.5,-9.88685996664259,247.311348855806));
#1078=CARTESIAN_POINT('Ctrl Pts',(-1.5,-9.88685996664259,247.688651144194));
#1079=CARTESIAN_POINT('Ctrl Pts',(-1.46223963651354,-9.89281735499534,247.889678997265));
#1080=CARTESIAN_POINT('Ctrl Pts',(-1.30907139898921,-9.91424792849633,248.259161785655));
#1081=CARTESIAN_POINT('Ctrl Pts',(-1.1936788400459,-9.92940210259032,248.427641503514));
#1082=CARTESIAN_POINT('Ctrl Pts',(-0.927643822834178,-9.9577794513644,248.693676520725));
#1083=CARTESIAN_POINT('Ctrl Pts',(-0.759163104215667,-9.97285888719051,
248.809070898965));
#1084=CARTESIAN_POINT('Ctrl Pts',(-0.389676897170782,-9.99411801596672,
248.962240460521));
#1085=CARTESIAN_POINT('Ctrl Pts',(-0.188647854862719,-10.,249.));
#1086=CARTESIAN_POINT('Ctrl Pts',(0.188647854862719,-10.,249.));
#1087=CARTESIAN_POINT('Ctrl Pts',(0.389676897170783,-9.99411801596672,248.962240460521));
#1088=CARTESIAN_POINT('Ctrl Pts',(0.759163104215667,-9.97285888719051,248.809070898965));
#1089=CARTESIAN_POINT('Ctrl Pts',(0.927643822834178,-9.9577794513644,248.693676520725));
#1090=CARTESIAN_POINT('Ctrl Pts',(1.1936788400459,-9.92940210259032,248.427641503514));
#1091=CARTESIAN_POINT('Ctrl Pts',(1.30907139898921,-9.91424792849633,248.259161785655));
#1092=CARTESIAN_POINT('Ctrl Pts',(1.46223963651354,-9.89281735499534,247.889678997265));
#1093=CARTESIAN_POINT('Ctrl Pts',(1.5,-9.88685996664259,247.688651144194));
#1094=CARTESIAN_POINT('Ctrl Pts',(1.5,-9.88685996664259,247.5));
#1095=CARTESIAN_POINT('Ctrl Pts',(-0.0213332649862981,2.71050543121376E-19,
246.000151710404));
#1096=CARTESIAN_POINT('Ctrl Pts',(-0.0213332649862981,-0.00338217115704887,
246.000151710404));
#1097=CARTESIAN_POINT('Ctrl Pts',(-0.0204639569847485,-0.00691054568597982,
246.00013852969));
#1098=CARTESIAN_POINT('Ctrl Pts',(-0.0170979059800741,-0.013085867399733,
246.000096620858));
#1099=CARTESIAN_POINT('Ctrl Pts',(-0.0145996946709489,-0.0157320174246052,
246.000068380249));
#1100=CARTESIAN_POINT('Ctrl Pts',(-0.00982211586493144,-0.0188547902126335,
246.000030895161));
#1101=CARTESIAN_POINT('Ctrl Pts',(-0.0072579348962588,-0.0199560191222099,
246.000015853199));
#1102=CARTESIAN_POINT('Ctrl Pts',(-0.00413197134302037,-0.020700144807537,
246.000005442459));
#1103=CARTESIAN_POINT('Ctrl Pts',(-0.00308163801349568,-0.020878090010184,
246.000002905525));
#1104=CARTESIAN_POINT('Ctrl Pts',(-0.00151359807824581,-0.0210386497470017,
246.000000607294));
#1105=CARTESIAN_POINT('Ctrl Pts',(-0.000688487731776989,-0.0210807764742259,
246.));
#1106=CARTESIAN_POINT('Ctrl Pts',(3.52365706057789E-18,-0.0210807764742259,
246.));
#1107=CARTESIAN_POINT('Origin',(0.,0.,25.));
#1108=CARTESIAN_POINT('',(-0.0213332649862854,0.,26.4998482895963));
#1109=CARTESIAN_POINT('',(-1.3142720757002,0.,25.722972275426));
#1110=CARTESIAN_POINT('',(-1.25875,0.,25.7563333042009));
#1111=CARTESIAN_POINT('Origin',(0.,0.,25.));
#1112=CARTESIAN_POINT('Origin',(0.,0.,25.));
#1113=CARTESIAN_POINT('',(0.0213332649862882,0.,26.4998482895963));
#1114=CARTESIAN_POINT('',(1.25875,0.,25.7563333042009));
#1115=CARTESIAN_POINT('Origin',(0.,0.,25.));
#1116=CARTESIAN_POINT('Origin',(0.,-5.5,25.));
#1117=CARTESIAN_POINT('',(2.3930000539408E-16,-2.5175,23.5));
#1118=CARTESIAN_POINT('Ctrl Pts',(3.12250225675825E-16,-2.5175,23.5));
#1119=CARTESIAN_POINT('Ctrl Pts',(0.193593975917724,-2.5175,23.5));
#1120=CARTESIAN_POINT('Ctrl Pts',(0.396836675227802,-2.49322229098218,23.5397155781228));
#1121=CARTESIAN_POINT('Ctrl Pts',(0.765195069571521,-2.40584978687896,23.6944785313493));
#1122=CARTESIAN_POINT('Ctrl Pts',(0.930605749666228,-2.34357497500901,23.8092854061066));
#1123=CARTESIAN_POINT('Ctrl Pts',(1.19153058136025,-2.22236011017016,24.0702102378006));
#1124=CARTESIAN_POINT('Ctrl Pts',(1.30576772782018,-2.15436686659418,24.2353935733813));
#1125=CARTESIAN_POINT('Ctrl Pts',(1.46003106353992,-2.05295794208701,24.6025577848992));
#1126=CARTESIAN_POINT('Ctrl Pts',(1.5,-2.02183239908752,24.8051913767413));
#1127=CARTESIAN_POINT('Ctrl Pts',(1.5,-2.02183239908752,25.));
#1128=CARTESIAN_POINT('',(1.83697019872103E-16,-6.,23.5));
#1129=CARTESIAN_POINT('',(1.83697019872103E-16,-5.5,23.5));
#1130=CARTESIAN_POINT('',(1.5,-5.80947501931113,25.));
#1131=CARTESIAN_POINT('Ctrl Pts',(1.5,-5.80947501931113,25.));
#1132=CARTESIAN_POINT('Ctrl Pts',(1.5,-5.80947501931113,24.8107758839824));
#1133=CARTESIAN_POINT('Ctrl Pts',(1.46201858113493,-5.81968295198527,24.6095174379843));
#1134=CARTESIAN_POINT('Ctrl Pts',(1.3086959776742,-5.85606716668395,24.2402039724544));
#1135=CARTESIAN_POINT('Ctrl Pts',(1.19339566173873,-5.88166590774512,24.0720753181791));
#1136=CARTESIAN_POINT('Ctrl Pts',(0.927943240607293,-5.92934257001617,23.8066228970477));
#1137=CARTESIAN_POINT('Ctrl Pts',(0.759806856903065,-5.95458755670505,23.6913081110391));
#1138=CARTESIAN_POINT('Ctrl Pts',(0.390465983724742,-5.99015490146934,23.5379749434549));
#1139=CARTESIAN_POINT('Ctrl Pts',(0.189197659114855,-6.,23.5));
#1140=CARTESIAN_POINT('Ctrl Pts',(-4.16333634234434E-16,-6.,23.5));
#1141=CARTESIAN_POINT('Ctrl Pts',(1.38777878078145E-16,-6.,23.5));
#1142=CARTESIAN_POINT('Ctrl Pts',(-0.189197659114855,-6.,23.5));
#1143=CARTESIAN_POINT('Ctrl Pts',(-0.390465983724743,-5.99015490146934,
23.5379749434549));
#1144=CARTESIAN_POINT('Ctrl Pts',(-0.759806856903065,-5.95458755670505,
23.6913081110391));
#1145=CARTESIAN_POINT('Ctrl Pts',(-0.927943240607293,-5.92934257001617,
23.8066228970477));
#1146=CARTESIAN_POINT('Ctrl Pts',(-1.19339566173873,-5.88166590774512,24.0720753181791));
#1147=CARTESIAN_POINT('Ctrl Pts',(-1.3086959776742,-5.85606716668395,24.2402039724544));
#1148=CARTESIAN_POINT('Ctrl Pts',(-1.46201858113493,-5.81968295198527,24.6095174379843));
#1149=CARTESIAN_POINT('Ctrl Pts',(-1.5,-5.80947501931113,24.8107758839824));
#1150=CARTESIAN_POINT('Ctrl Pts',(-1.5,-5.80947501931113,25.1892241160176));
#1151=CARTESIAN_POINT('Ctrl Pts',(-1.46201858113493,-5.81968295198527,25.3904825620157));
#1152=CARTESIAN_POINT('Ctrl Pts',(-1.3086959776742,-5.85606716668395,25.7597960275456));
#1153=CARTESIAN_POINT('Ctrl Pts',(-1.19339566173873,-5.88166590774512,25.9279246818209));
#1154=CARTESIAN_POINT('Ctrl Pts',(-0.927943240607293,-5.92934257001617,
26.1933771029523));
#1155=CARTESIAN_POINT('Ctrl Pts',(-0.759806856903065,-5.95458755670505,
26.3086918889609));
#1156=CARTESIAN_POINT('Ctrl Pts',(-0.390465983724742,-5.99015490146934,
26.4620250565451));
#1157=CARTESIAN_POINT('Ctrl Pts',(-0.189197659114856,-6.,26.5));
#1158=CARTESIAN_POINT('Ctrl Pts',(0.189197659114856,-6.,26.5));
#1159=CARTESIAN_POINT('Ctrl Pts',(0.390465983724742,-5.99015490146934,26.4620250565451));
#1160=CARTESIAN_POINT('Ctrl Pts',(0.759806856903065,-5.95458755670505,26.3086918889609));
#1161=CARTESIAN_POINT('Ctrl Pts',(0.927943240607293,-5.92934257001617,26.1933771029523));
#1162=CARTESIAN_POINT('Ctrl Pts',(1.19339566173873,-5.88166590774512,25.9279246818209));
#1163=CARTESIAN_POINT('Ctrl Pts',(1.3086959776742,-5.85606716668395,25.7597960275456));
#1164=CARTESIAN_POINT('Ctrl Pts',(1.46201858113493,-5.81968295198527,25.3904825620157));
#1165=CARTESIAN_POINT('Ctrl Pts',(1.5,-5.80947501931113,25.1892241160176));
#1166=CARTESIAN_POINT('Ctrl Pts',(1.5,-5.80947501931113,25.));
#1167=CARTESIAN_POINT('',(-1.5,-2.02183239908752,25.));
#1168=CARTESIAN_POINT('Ctrl Pts',(-1.5,-2.02183239908752,25.));
#1169=CARTESIAN_POINT('Ctrl Pts',(-1.5,-2.02183239908752,24.8051913767413));
#1170=CARTESIAN_POINT('Ctrl Pts',(-1.46003106353992,-2.05295794208701,24.6025577848992));
#1171=CARTESIAN_POINT('Ctrl Pts',(-1.30576772782018,-2.15436686659418,24.2353935733813));
#1172=CARTESIAN_POINT('Ctrl Pts',(-1.19153058136025,-2.22236011017016,24.0702102378006));
#1173=CARTESIAN_POINT('Ctrl Pts',(-0.930605749666228,-2.34357497500901,
23.8092854061066));
#1174=CARTESIAN_POINT('Ctrl Pts',(-0.765195069571517,-2.40584978687896,
23.6944785313493));
#1175=CARTESIAN_POINT('Ctrl Pts',(-0.396836675227801,-2.49322229098218,
23.5397155781228));
#1176=CARTESIAN_POINT('Ctrl Pts',(-0.193593975917724,-2.5175,23.5));
#1177=CARTESIAN_POINT('Ctrl Pts',(8.67361737988404E-17,-2.5175,23.5));
#1178=CARTESIAN_POINT('Ctrl Pts',(-1.3142720757002,0.,25.722972275426));
#1179=CARTESIAN_POINT('Ctrl Pts',(-1.3142720757002,-0.387409606701186,25.722972275426));
#1180=CARTESIAN_POINT('Ctrl Pts',(-1.39668381148281,-0.755323224217515,
25.57225059179));
#1181=CARTESIAN_POINT('Ctrl Pts',(-1.47932829368078,-1.4327075896086,25.2819814969447));
#1182=CARTESIAN_POINT('Ctrl Pts',(-1.5,-1.73481620725811,25.1385019255093));
#1183=CARTESIAN_POINT('Ctrl Pts',(-1.5,-2.02183239908752,25.));
#1184=CARTESIAN_POINT('Ctrl Pts',(0.0213332649863176,5.42101086242752E-19,
26.4998482895963));
#1185=CARTESIAN_POINT('Ctrl Pts',(0.0213332649863176,-0.00338217115705254,
26.4998482895963));
#1186=CARTESIAN_POINT('Ctrl Pts',(0.0204639569847646,-0.00691054568598377,
26.4998614703098));
#1187=CARTESIAN_POINT('Ctrl Pts',(0.0170979059800866,-0.0130858673997435,
26.4999033791421));
#1188=CARTESIAN_POINT('Ctrl Pts',(0.014599694670958,-0.015732017424618,
26.4999316197507));
#1189=CARTESIAN_POINT('Ctrl Pts',(0.00982211586493552,-0.0188547902126486,
26.4999691048388));
#1190=CARTESIAN_POINT('Ctrl Pts',(0.00725793489625968,-0.0199560191222232,
26.4999841468006));
#1191=CARTESIAN_POINT('Ctrl Pts',(0.00413197134301833,-0.0207001448075504,
26.4999945575415));
#1192=CARTESIAN_POINT('Ctrl Pts',(0.00308163801350121,-0.0208780900102495,
26.4999970944754));
#1193=CARTESIAN_POINT('Ctrl Pts',(0.00151359807824989,-0.0210386497470672,
26.4999993927058));
#1194=CARTESIAN_POINT('Ctrl Pts',(0.000688487731777211,-0.021080776474226,
26.5));
#1195=CARTESIAN_POINT('Ctrl Pts',(-0.000688487731777676,-0.021080776474226,
26.5));
#1196=CARTESIAN_POINT('Ctrl Pts',(-0.00151359807825035,-0.0210386497470672,
26.4999993927058));
#1197=CARTESIAN_POINT('Ctrl Pts',(-0.00308163801350195,-0.0208780900102495,
26.4999970944754));
#1198=CARTESIAN_POINT('Ctrl Pts',(-0.00413197134301854,-0.0207001448075449,
26.4999945575415));
#1199=CARTESIAN_POINT('Ctrl Pts',(-0.00725793489625907,-0.0199560191222178,
26.4999841468006));
#1200=CARTESIAN_POINT('Ctrl Pts',(-0.00982211586493688,-0.0188547902126512,
26.4999691048388));
#1201=CARTESIAN_POINT('Ctrl Pts',(-0.0145996946709592,-0.0157320174246213,
26.4999316197507));
#1202=CARTESIAN_POINT('Ctrl Pts',(-0.0170979059800888,-0.0130858673997463,
26.4999033791421));
#1203=CARTESIAN_POINT('Ctrl Pts',(-0.0204639569847677,-0.00691054568598588,
26.4998614703098));
#1204=CARTESIAN_POINT('Ctrl Pts',(-0.0213332649863181,-0.00338217115705308,
26.4998482895963));
#1205=CARTESIAN_POINT('Ctrl Pts',(-0.0213332649863181,0.,26.4998482895963));
#1206=CARTESIAN_POINT('Origin',(0.,-5.5,260.407502894237));
#1207=CARTESIAN_POINT('',(-1.5,-2.02183239908752,260.407502894237));
#1208=CARTESIAN_POINT('',(1.13268259552214E-15,-2.5175,258.907502894236));
#1209=CARTESIAN_POINT('Ctrl Pts',(-1.5,-2.02183239908752,260.407502894237));
#1210=CARTESIAN_POINT('Ctrl Pts',(-1.5,-2.02183239908752,260.212694270978));
#1211=CARTESIAN_POINT('Ctrl Pts',(-1.46003106353992,-2.05295794208701,260.010060679136));
#1212=CARTESIAN_POINT('Ctrl Pts',(-1.30576772782016,-2.15436686659419,259.642896467618));
#1213=CARTESIAN_POINT('Ctrl Pts',(-1.19153058136025,-2.22236011017016,259.477713132037));
#1214=CARTESIAN_POINT('Ctrl Pts',(-0.93060574966623,-2.34357497500901,259.216788300343));
#1215=CARTESIAN_POINT('Ctrl Pts',(-0.765195069571524,-2.40584978687896,
259.101981425586));
#1216=CARTESIAN_POINT('Ctrl Pts',(-0.396836675227803,-2.49322229098218,
258.947218472359));
#1217=CARTESIAN_POINT('Ctrl Pts',(-0.193593975917722,-2.5175,258.907502894236));
#1218=CARTESIAN_POINT('Ctrl Pts',(3.46944695195361E-17,-2.5175,258.907502894236));
#1219=CARTESIAN_POINT('',(1.5,-2.02183239908752,260.407502894237));
#1220=CARTESIAN_POINT('Ctrl Pts',(1.5,-2.02183239908752,260.407502894237));
#1221=CARTESIAN_POINT('Ctrl Pts',(1.5,-2.09419189591829,260.44242053974));
#1222=CARTESIAN_POINT('Ctrl Pts',(1.49877714926018,-2.16556077154218,260.477087222917));
#1223=CARTESIAN_POINT('Ctrl Pts',(1.47461247490918,-2.87953882099617,260.825520346875));
#1224=CARTESIAN_POINT('Ctrl Pts',(1.33794738220703,-3.63746765552408,261.208658249994));
#1225=CARTESIAN_POINT('Ctrl Pts',(0.906552417088435,-4.43688133256276,261.613945610869));
#1226=CARTESIAN_POINT('Ctrl Pts',(0.725237009973542,-4.68633749676481,261.740761127459));
#1227=CARTESIAN_POINT('Ctrl Pts',(0.4384624292803,-4.88893596713253,261.843862922025));
#1228=CARTESIAN_POINT('Ctrl Pts',(0.356699705317492,-4.93475395230438,261.867189361009));
#1229=CARTESIAN_POINT('Ctrl Pts',(0.181607608640148,-4.99747227442887,261.899125499001));
#1230=CARTESIAN_POINT('Ctrl Pts',(0.0880738903786788,-5.01391922352576,
261.907502894237));
#1231=CARTESIAN_POINT('Ctrl Pts',(-0.0880738903786779,-5.01391922352576,
261.907502894237));
#1232=CARTESIAN_POINT('Ctrl Pts',(-0.181607608640147,-4.99747227442887,
261.899125499001));
#1233=CARTESIAN_POINT('Ctrl Pts',(-0.356699705317491,-4.93475395230438,
261.867189361009));
#1234=CARTESIAN_POINT('Ctrl Pts',(-0.438462429280298,-4.88893596713253,
261.843862922025));
#1235=CARTESIAN_POINT('Ctrl Pts',(-0.72523700997354,-4.68633749676481,261.740761127459));
#1236=CARTESIAN_POINT('Ctrl Pts',(-0.906552417088434,-4.43688133256276,
261.613945610869));
#1237=CARTESIAN_POINT('Ctrl Pts',(-1.33794738220703,-3.63746765552408,261.208658249994));
#1238=CARTESIAN_POINT('Ctrl Pts',(-1.47461247490918,-2.87953882099616,260.825520346875));
#1239=CARTESIAN_POINT('Ctrl Pts',(-1.49877714926018,-2.16556077154218,260.477087222917));
#1240=CARTESIAN_POINT('Ctrl Pts',(-1.5,-2.09419189591829,260.44242053974));
#1241=CARTESIAN_POINT('Ctrl Pts',(-1.5,-2.02183239908752,260.407502894237));
#1242=CARTESIAN_POINT('Ctrl Pts',(-1.92554305833426E-15,-2.5175,258.907502894237));
#1243=CARTESIAN_POINT('Ctrl Pts',(0.19359397591772,-2.5175,258.907502894237));
#1244=CARTESIAN_POINT('Ctrl Pts',(0.396836675227803,-2.49322229098218,258.947218472359));
#1245=CARTESIAN_POINT('Ctrl Pts',(0.765195069571524,-2.40584978687896,259.101981425586));
#1246=CARTESIAN_POINT('Ctrl Pts',(0.930605749666231,-2.34357497500901,259.216788300343));
#1247=CARTESIAN_POINT('Ctrl Pts',(1.19153058136025,-2.22236011017016,259.477713132037));
#1248=CARTESIAN_POINT('Ctrl Pts',(1.30576772782016,-2.15436686659419,259.642896467618));
#1249=CARTESIAN_POINT('Ctrl Pts',(1.46003106353992,-2.05295794208701,260.010060679136));
#1250=CARTESIAN_POINT('Ctrl Pts',(1.5,-2.02183239908752,260.212694270978));
#1251=CARTESIAN_POINT('Ctrl Pts',(1.5,-2.02183239908752,260.407502894237));
#1252=CARTESIAN_POINT('',(1.83697019872103E-16,-10.,258.907502894237));
#1253=CARTESIAN_POINT('',(1.83697019872103E-16,-5.5,258.907502894237));
#1254=CARTESIAN_POINT('',(1.5,-9.88685996664259,260.407502894236));
#1255=CARTESIAN_POINT('Ctrl Pts',(1.5,-9.88685996664259,260.407502894236));
#1256=CARTESIAN_POINT('Ctrl Pts',(1.5,-9.88685996664259,260.218851750043));
#1257=CARTESIAN_POINT('Ctrl Pts',(1.46223963651353,-9.89281735499534,260.017823896972));
#1258=CARTESIAN_POINT('Ctrl Pts',(1.30907139898919,-9.91424792849633,259.648341108581));
#1259=CARTESIAN_POINT('Ctrl Pts',(1.1936788400459,-9.92940210259032,259.479861390723));
#1260=CARTESIAN_POINT('Ctrl Pts',(0.927643822834178,-9.9577794513644,259.213826373511));
#1261=CARTESIAN_POINT('Ctrl Pts',(0.759163104215648,-9.97285888719051,259.098431995272));
#1262=CARTESIAN_POINT('Ctrl Pts',(0.389676897170761,-9.99411801596672,258.945262433716));
#1263=CARTESIAN_POINT('Ctrl Pts',(0.188647854862718,-10.,258.907502894237));
#1264=CARTESIAN_POINT('Ctrl Pts',(-8.32667268468867E-16,-10.,258.907502894237));
#1265=CARTESIAN_POINT('Ctrl Pts',(-1.73472347597681E-15,-10.,258.907502894237));
#1266=CARTESIAN_POINT('Ctrl Pts',(-0.188647854862721,-10.,258.907502894237));
#1267=CARTESIAN_POINT('Ctrl Pts',(-0.389676897170762,-9.99411801596672,
258.945262433716));
#1268=CARTESIAN_POINT('Ctrl Pts',(-0.759163104215648,-9.97285888719051,
259.098431995272));
#1269=CARTESIAN_POINT('Ctrl Pts',(-0.927643822834178,-9.9577794513644,259.213826373511));
#1270=CARTESIAN_POINT('Ctrl Pts',(-1.1936788400459,-9.92940210259032,259.479861390723));
#1271=CARTESIAN_POINT('Ctrl Pts',(-1.30907139898919,-9.91424792849633,259.648341108581));
#1272=CARTESIAN_POINT('Ctrl Pts',(-1.46223963651353,-9.89281735499534,260.017823896972));
#1273=CARTESIAN_POINT('Ctrl Pts',(-1.5,-9.88685996664259,260.218851750043));
#1274=CARTESIAN_POINT('Ctrl Pts',(-1.5,-9.88685996664259,260.59615403843));
#1275=CARTESIAN_POINT('Ctrl Pts',(-1.46223963651353,-9.89281735499534,260.797181891501));
#1276=CARTESIAN_POINT('Ctrl Pts',(-1.30907139898919,-9.91424792849633,261.166664679892));
#1277=CARTESIAN_POINT('Ctrl Pts',(-1.1936788400459,-9.92940210259032,261.33514439775));
#1278=CARTESIAN_POINT('Ctrl Pts',(-0.927643822834178,-9.9577794513644,261.601179414962));
#1279=CARTESIAN_POINT('Ctrl Pts',(-0.759163104215648,-9.97285888719051,
261.716573793201));
#1280=CARTESIAN_POINT('Ctrl Pts',(-0.389676897170761,-9.99411801596672,
261.869743354757));
#1281=CARTESIAN_POINT('Ctrl Pts',(-0.188647854862719,-10.,261.907502894237));
#1282=CARTESIAN_POINT('Ctrl Pts',(0.188647854862719,-10.,261.907502894237));
#1283=CARTESIAN_POINT('Ctrl Pts',(0.389676897170762,-9.99411801596672,261.869743354757));
#1284=CARTESIAN_POINT('Ctrl Pts',(0.759163104215648,-9.97285888719051,261.716573793201));
#1285=CARTESIAN_POINT('Ctrl Pts',(0.927643822834178,-9.9577794513644,261.601179414962));
#1286=CARTESIAN_POINT('Ctrl Pts',(1.1936788400459,-9.92940210259032,261.33514439775));
#1287=CARTESIAN_POINT('Ctrl Pts',(1.30907139898919,-9.91424792849633,261.166664679892));
#1288=CARTESIAN_POINT('Ctrl Pts',(1.46223963651353,-9.89281735499534,260.797181891501));
#1289=CARTESIAN_POINT('Ctrl Pts',(1.5,-9.88685996664259,260.59615403843));
#1290=CARTESIAN_POINT('Ctrl Pts',(1.5,-9.88685996664259,260.407502894237));
#1291=CARTESIAN_POINT('Origin',(0.,0.,246.743666695799));
#1292=CARTESIAN_POINT('',(0.,0.,245.987333391598));
#1293=CARTESIAN_POINT('',(-1.25875,1.54152415842673E-16,246.743666695799));
#1294=CARTESIAN_POINT('Origin',(0.,0.,247.5));
#1295=CARTESIAN_POINT('Origin',(-2.33890309951163E-16,0.,25.7563333042009));
#1296=CARTESIAN_POINT('',(-2.33890309951163E-16,0.,26.5126666084019));
#1297=CARTESIAN_POINT('',(1.25875,1.54152415842673E-16,25.7563333042009));
#1298=CARTESIAN_POINT('Origin',(-2.33890309951163E-16,0.,25.));
#1299=CARTESIAN_POINT('Origin',(0.,0.,260.697418142917));
#1300=CARTESIAN_POINT('',(-6.,7.34788079488412E-16,262.5));
#1301=CARTESIAN_POINT('Origin',(0.,0.,262.5));
#1302=CARTESIAN_POINT('',(-2.5175,3.08304831685346E-16,260.407502894237));
#1303=CARTESIAN_POINT('',(-3.,3.67394039744206E-16,260.697418142917));
#1304=CARTESIAN_POINT('Origin',(0.,0.,260.407502894237));
#1305=CARTESIAN_POINT('Origin',(0.,0.,260.407502894237));
#1306=CARTESIAN_POINT('Origin',(0.,0.,297.25));
#1307=CARTESIAN_POINT('',(9.5,-1.16341445918999E-15,297.5));
#1308=CARTESIAN_POINT('Origin',(0.,0.,297.5));
#1309=CARTESIAN_POINT('',(10.,1.22464679914735E-15,297.));
#1310=CARTESIAN_POINT('',(9.75,1.19403062916867E-15,297.25));
#1311=CARTESIAN_POINT('',(-10.,-1.22464679914735E-15,297.));
#1312=CARTESIAN_POINT('Origin',(0.,0.,297.));
#1313=CARTESIAN_POINT('Origin',(0.,0.,297.));
#1314=CARTESIAN_POINT('Origin',(0.,0.,221.25));
#1315=CARTESIAN_POINT('',(-10.,-1.22464679914735E-15,145.5));
#1316=CARTESIAN_POINT('',(-10.,-1.22464679914735E-15,221.25));
#1317=CARTESIAN_POINT('',(10.,-1.22464679914735E-15,145.5));
#1318=CARTESIAN_POINT('Origin',(0.,0.,145.5));
#1319=CARTESIAN_POINT('Origin',(0.,0.,145.5));
#1320=CARTESIAN_POINT('Origin',(0.,0.,297.5));
#1321=CARTESIAN_POINT('',(-6.,7.34788079488412E-16,297.5));
#1322=CARTESIAN_POINT('Origin',(0.,0.,297.5));
#1323=CARTESIAN_POINT('Origin',(0.,0.,145.25));
#1324=CARTESIAN_POINT('',(9.5,1.16341445918999E-15,145.));
#1325=CARTESIAN_POINT('',(9.75,1.19403062916867E-15,145.25));
#1326=CARTESIAN_POINT('Origin',(0.,0.,145.));
#1327=CARTESIAN_POINT('Origin',(10.,0.,145.));
#1328=CARTESIAN_POINT('',(-6.,-7.34788079488412E-16,145.));
#1329=CARTESIAN_POINT('Origin',(0.,0.,145.));
#1330=CARTESIAN_POINT('Origin',(0.,0.,0.249999999999999));
#1331=CARTESIAN_POINT('',(6.,-7.34788079488412E-16,0.499999999999998));
#1332=CARTESIAN_POINT('',(-6.,-7.34788079488412E-16,0.499999999999998));
#1333=CARTESIAN_POINT('Origin',(0.,0.,0.499999999999998));
#1334=CARTESIAN_POINT('Origin',(0.,0.,0.499999999999998));
#1335=CARTESIAN_POINT('',(5.5,6.73555739531044E-16,0.));
#1336=CARTESIAN_POINT('',(5.75,7.04171909509728E-16,0.249999999999999));
#1337=CARTESIAN_POINT('Origin',(0.,0.,0.));
#1338=CARTESIAN_POINT('Origin',(6.,0.,0.));
#1339=CARTESIAN_POINT('',(2.5175,3.08304831685346E-16,0.));
#1340=CARTESIAN_POINT('Origin',(-2.33890309951163E-16,0.,0.));
#1341=CARTESIAN_POINT('Origin',(0.,0.,72.5));
#1342=CARTESIAN_POINT('',(-6.,-7.34788079488412E-16,72.5));
#1343=CARTESIAN_POINT('Origin',(-2.33890309951163E-16,0.,12.5));
#1344=CARTESIAN_POINT('',(2.5175,3.08304831685346E-16,12.5));
#1345=CARTESIAN_POINT('Origin',(0.,0.,272.5));
#1346=CARTESIAN_POINT('',(-2.5175,3.08304831685346E-16,272.5));
#1347=CARTESIAN_POINT('Origin',(0.,0.,280.));
#1348=CARTESIAN_POINT('',(-6.,7.34788079488412E-16,280.));
#1349=CARTESIAN_POINT('',(0.,0.,0.));
#1350=CARTESIAN_POINT('Origin',(0.,0.,137.5));
#1351=CARTESIAN_POINT('',(-9.,-1.10218211923262E-15,140.));
#1352=CARTESIAN_POINT('Origin',(0.,0.,140.));
#1353=CARTESIAN_POINT('',(-9.,-1.10218211923262E-15,135.));
#1354=CARTESIAN_POINT('',(-9.,-1.10218211923262E-15,137.5));
#1355=CARTESIAN_POINT('Origin',(0.,0.,135.));
#1356=CARTESIAN_POINT('Origin',(12.,0.,140.));
#1357=CARTESIAN_POINT('',(-12.,-1.46957615897682E-15,140.));
#1358=CARTESIAN_POINT('Origin',(0.,0.,140.));
#1359=CARTESIAN_POINT('Origin',(0.,0.,142.5));
#1360=CARTESIAN_POINT('',(-12.,-1.46957615897682E-15,145.));
#1361=CARTESIAN_POINT('Origin',(0.,0.,145.));
#1362=CARTESIAN_POINT('',(-12.,-1.46957615897682E-15,142.5));
#1363=CARTESIAN_POINT('Origin',(6.,0.,145.));
#1364=CARTESIAN_POINT('',(-6.,-7.34788079488412E-16,145.));
#1365=CARTESIAN_POINT('Origin',(0.,0.,145.));
#1366=CARTESIAN_POINT('Origin',(0.,0.,140.));
#1367=CARTESIAN_POINT('',(-6.,-7.34788079488412E-16,135.));
#1368=CARTESIAN_POINT('',(-6.,-7.34788079488412E-16,140.));
#1369=CARTESIAN_POINT('Origin',(0.,0.,135.));
#1370=CARTESIAN_POINT('Origin',(9.,0.,135.));
#1371=CARTESIAN_POINT('',(0.,0.,0.));
#1372=CARTESIAN_POINT('',(0.,0.,0.));
#1373=UNCERTAINTY_MEASURE_WITH_UNIT(LENGTH_MEASURE(0.01),#1381,
'DISTANCE_ACCURACY_VALUE',
'Maximum model space distance between geometric entities at asserted c
onnectivities');
#1374=UNCERTAINTY_MEASURE_WITH_UNIT(LENGTH_MEASURE(0.01),#1381,
'DISTANCE_ACCURACY_VALUE',
'Maximum model space distance between geometric entities at asserted c
onnectivities');
#1375=UNCERTAINTY_MEASURE_WITH_UNIT(LENGTH_MEASURE(0.01),#1381,
'DISTANCE_ACCURACY_VALUE',
'Maximum model space distance between geometric entities at asserted c
onnectivities');
#1376=UNCERTAINTY_MEASURE_WITH_UNIT(LENGTH_MEASURE(0.01),#1381,
'DISTANCE_ACCURACY_VALUE',
'Maximum model space distance between geometric entities at asserted c
onnectivities');
#1377=(
GEOMETRIC_REPRESENTATION_CONTEXT(3)
GLOBAL_UNCERTAINTY_ASSIGNED_CONTEXT((#1373))
GLOBAL_UNIT_ASSIGNED_CONTEXT((#1381,#1383,#1384))
REPRESENTATION_CONTEXT('','3D')
);
#1378=(
GEOMETRIC_REPRESENTATION_CONTEXT(3)
GLOBAL_UNCERTAINTY_ASSIGNED_CONTEXT((#1374))
GLOBAL_UNIT_ASSIGNED_CONTEXT((#1381,#1383,#1384))
REPRESENTATION_CONTEXT('','3D')
);
#1379=(
GEOMETRIC_REPRESENTATION_CONTEXT(3)
GLOBAL_UNCERTAINTY_ASSIGNED_CONTEXT((#1375))
GLOBAL_UNIT_ASSIGNED_CONTEXT((#1381,#1383,#1384))
REPRESENTATION_CONTEXT('','3D')
);
#1380=(
GEOMETRIC_REPRESENTATION_CONTEXT(3)
GLOBAL_UNCERTAINTY_ASSIGNED_CONTEXT((#1376))
GLOBAL_UNIT_ASSIGNED_CONTEXT((#1381,#1383,#1384))
REPRESENTATION_CONTEXT('','3D')
);
#1381=(
LENGTH_UNIT()
NAMED_UNIT(*)
SI_UNIT(.MILLI.,.METRE.)
);
#1382=(
LENGTH_UNIT()
NAMED_UNIT(*)
SI_UNIT($,.METRE.)
);
#1383=(
NAMED_UNIT(*)
PLANE_ANGLE_UNIT()
SI_UNIT($,.RADIAN.)
);
#1384=(
NAMED_UNIT(*)
SI_UNIT($,.STERADIAN.)
SOLID_ANGLE_UNIT()
);
#1385=SHAPE_DEFINITION_REPRESENTATION(#1388,#1393);
#1386=SHAPE_DEFINITION_REPRESENTATION(#1389,#1394);
#1387=SHAPE_DEFINITION_REPRESENTATION(#1390,#1395);
#1388=PRODUCT_DEFINITION_SHAPE('',$,#1397);
#1389=PRODUCT_DEFINITION_SHAPE('',$,#1398);
#1390=PRODUCT_DEFINITION_SHAPE('',$,#1399);
#1391=PRODUCT_DEFINITION_SHAPE($,$,#17);
#1392=PRODUCT_DEFINITION_SHAPE($,$,#18);
#1393=SHAPE_REPRESENTATION('',(#606,#669,#670),#1377);
#1394=SHAPE_REPRESENTATION('',(#607),#1378);
#1395=SHAPE_REPRESENTATION('',(#656),#1379);
#1396=PRODUCT_DEFINITION_CONTEXT('part definition',#1407,'design');
#1397=PRODUCT_DEFINITION('BC vertical rod','BC vertical rod v7',#1400,#1396);
#1398=PRODUCT_DEFINITION('vertical rod','vertical rod',#1401,#1396);
#1399=PRODUCT_DEFINITION('peek insulator','peek insulator',#1402,#1396);
#1400=PRODUCT_DEFINITION_FORMATION('',$,#1409);
#1401=PRODUCT_DEFINITION_FORMATION('',$,#1410);
#1402=PRODUCT_DEFINITION_FORMATION('',$,#1411);
#1403=PRODUCT_RELATED_PRODUCT_CATEGORY('BC vertical rod v7',
'BC vertical rod v7',(#1409));
#1404=PRODUCT_RELATED_PRODUCT_CATEGORY('vertical rod','vertical rod',(#1410));
#1405=PRODUCT_RELATED_PRODUCT_CATEGORY('peek insulator',
'peek insulator',(#1411));
#1406=APPLICATION_PROTOCOL_DEFINITION('international standard',
'automotive_design',2009,#1407);
#1407=APPLICATION_CONTEXT(
'Core Data for Automotive Mechanical Design Process');
#1408=PRODUCT_CONTEXT('part definition',#1407,'mechanical');
#1409=PRODUCT('BC vertical rod','BC vertical rod v7',$,(#1408));
#1410=PRODUCT('vertical rod','vertical rod',$,(#1408));
#1411=PRODUCT('peek insulator','peek insulator',$,(#1408));
#1412=PRESENTATION_STYLE_ASSIGNMENT((#1415));
#1413=PRESENTATION_STYLE_ASSIGNMENT((#1416));
#1414=PRESENTATION_STYLE_ASSIGNMENT((#1417));
#1415=SURFACE_STYLE_USAGE(.BOTH.,#1418);
#1416=SURFACE_STYLE_USAGE(.BOTH.,#1419);
#1417=SURFACE_STYLE_USAGE(.BOTH.,#1420);
#1418=SURFACE_SIDE_STYLE('',(#1421));
#1419=SURFACE_SIDE_STYLE('',(#1422));
#1420=SURFACE_SIDE_STYLE('',(#1423));
#1421=SURFACE_STYLE_FILL_AREA(#1424);
#1422=SURFACE_STYLE_FILL_AREA(#1425);
#1423=SURFACE_STYLE_FILL_AREA(#1426);
#1424=FILL_AREA_STYLE('Steel - Satin',(#1427));
#1425=FILL_AREA_STYLE('Stainless Steel - Satin',(#1428));
#1426=FILL_AREA_STYLE('Paek (Beige)',(#1429));
#1427=FILL_AREA_STYLE_COLOUR('Steel - Satin',#1430);
#1428=FILL_AREA_STYLE_COLOUR('Stainless Steel - Satin',#1431);
#1429=FILL_AREA_STYLE_COLOUR('Paek (Beige)',#1432);
#1430=COLOUR_RGB('Steel - Satin',0.627450980392157,0.627450980392157,0.627450980392157);
#1431=COLOUR_RGB('Stainless Steel - Satin',0.796078431372549,0.796078431372549,
0.796078431372549);
#1432=COLOUR_RGB('Paek (Beige)',0.898039215686275,0.792156862745098,0.619607843137255);
ENDSEC;
END-ISO-10303-21;
