ISO-10303-21;
HEADER;
/* Generated by software containing ST-Developer
 * from STEP Tools, Inc. (www.steptools.com) 
 */

FILE_DESCRIPTION(
/* description */ (''),
/* implementation_level */ '2;1');

FILE_NAME(
/* name */ 'bottom slider v2.step',
/* time_stamp */ '2024-06-12T15:27:53+02:00',
/* author */ (''),
/* organization */ (''),
/* preprocessor_version */ 'ST-DEVELOPER v20',
/* originating_system */ 'Autodesk Translation Framework v13.14.0.145',

/* authorisation */ '');

FILE_SCHEMA (('AUTOMOTIVE_DESIGN { 1 0 10303 214 3 1 1 }'));
ENDSEC;

DATA;
#10=MECHANICAL_DESIGN_GEOMETRIC_PRESENTATION_REPRESENTATION('',(#13),#561);
#11=SHAPE_REPRESENTATION_RELATIONSHIP('SRR','None',#568,#12);
#12=ADVANCED_BREP_SHAPE_REPRESENTATION('',(#14),#560);
#13=STYLED_ITEM('',(#577),#14);
#14=MANIFOLD_SOLID_BREP('Body1',#321);
#15=FACE_BOUND('',#54,.T.);
#16=FACE_BOUND('',#55,.T.);
#17=FACE_BOUND('',#58,.T.);
#18=FACE_BOUND('',#59,.T.);
#19=PLANE('',#340);
#20=PLANE('',#346);
#21=PLANE('',#357);
#22=PLANE('',#360);
#23=PLANE('',#361);
#24=PLANE('',#365);
#25=PLANE('',#368);
#26=PLANE('',#369);
#27=CYLINDRICAL_SURFACE('',#338,5.);
#28=CYLINDRICAL_SURFACE('',#352,20.);
#29=CYLINDRICAL_SURFACE('',#362,15.0000000000004);
#30=CYLINDRICAL_SURFACE('',#370,30.0000000000001);
#31=FACE_OUTER_BOUND('',#51,.T.);
#32=FACE_OUTER_BOUND('',#52,.T.);
#33=FACE_OUTER_BOUND('',#53,.T.);
#34=FACE_OUTER_BOUND('',#56,.T.);
#35=FACE_OUTER_BOUND('',#57,.T.);
#36=FACE_OUTER_BOUND('',#60,.T.);
#37=FACE_OUTER_BOUND('',#61,.T.);
#38=FACE_OUTER_BOUND('',#62,.T.);
#39=FACE_OUTER_BOUND('',#63,.T.);
#40=FACE_OUTER_BOUND('',#64,.T.);
#41=FACE_OUTER_BOUND('',#65,.T.);
#42=FACE_OUTER_BOUND('',#66,.T.);
#43=FACE_OUTER_BOUND('',#67,.T.);
#44=FACE_OUTER_BOUND('',#68,.T.);
#45=FACE_OUTER_BOUND('',#69,.T.);
#46=FACE_OUTER_BOUND('',#70,.T.);
#47=FACE_OUTER_BOUND('',#71,.T.);
#48=FACE_OUTER_BOUND('',#72,.T.);
#49=FACE_OUTER_BOUND('',#73,.T.);
#50=FACE_OUTER_BOUND('',#74,.T.);
#51=EDGE_LOOP('',(#209,#210,#211,#212));
#52=EDGE_LOOP('',(#213,#214,#215,#216));
#53=EDGE_LOOP('',(#217,#218,#219,#220));
#54=EDGE_LOOP('',(#221));
#55=EDGE_LOOP('',(#222));
#56=EDGE_LOOP('',(#223,#224,#225,#226));
#57=EDGE_LOOP('',(#227,#228,#229,#230));
#58=EDGE_LOOP('',(#231));
#59=EDGE_LOOP('',(#232));
#60=EDGE_LOOP('',(#233,#234,#235,#236));
#61=EDGE_LOOP('',(#237,#238,#239,#240));
#62=EDGE_LOOP('',(#241,#242,#243,#244));
#63=EDGE_LOOP('',(#245,#246,#247,#248));
#64=EDGE_LOOP('',(#249,#250,#251,#252));
#65=EDGE_LOOP('',(#253,#254,#255,#256));
#66=EDGE_LOOP('',(#257,#258,#259,#260));
#67=EDGE_LOOP('',(#261,#262,#263,#264));
#68=EDGE_LOOP('',(#265,#266,#267,#268));
#69=EDGE_LOOP('',(#269,#270,#271,#272));
#70=EDGE_LOOP('',(#273,#274,#275,#276));
#71=EDGE_LOOP('',(#277,#278,#279,#280));
#72=EDGE_LOOP('',(#281,#282,#283,#284));
#73=EDGE_LOOP('',(#285,#286,#287,#288));
#74=EDGE_LOOP('',(#289,#290,#291,#292));
#75=LINE('',#476,#101);
#76=LINE('',#481,#102);
#77=LINE('',#487,#103);
#78=LINE('',#490,#104);
#79=LINE('',#496,#105);
#80=LINE('',#502,#106);
#81=LINE('',#505,#107);
#82=LINE('',#511,#108);
#83=LINE('',#515,#109);
#84=LINE('',#517,#110);
#85=LINE('',#520,#111);
#86=LINE('',#523,#112);
#87=LINE('',#526,#113);
#88=LINE('',#527,#114);
#89=LINE('',#530,#115);
#90=LINE('',#533,#116);
#91=LINE('',#536,#117);
#92=LINE('',#538,#118);
#93=LINE('',#539,#119);
#94=LINE('',#542,#120);
#95=LINE('',#545,#121);
#96=LINE('',#546,#122);
#97=LINE('',#549,#123);
#98=LINE('',#550,#124);
#99=LINE('',#552,#125);
#100=LINE('',#556,#126);
#101=VECTOR('',#377,5.5);
#102=VECTOR('',#384,5.);
#103=VECTOR('',#389,10.);
#104=VECTOR('',#392,10.);
#105=VECTOR('',#399,5.5);
#106=VECTOR('',#404,10.);
#107=VECTOR('',#407,10.);
#108=VECTOR('',#414,20.5);
#109=VECTOR('',#419,20.);
#110=VECTOR('',#422,20.5);
#111=VECTOR('',#425,10.);
#112=VECTOR('',#428,10.);
#113=VECTOR('',#431,10.);
#114=VECTOR('',#432,10.);
#115=VECTOR('',#435,10.);
#116=VECTOR('',#440,10.);
#117=VECTOR('',#443,10.);
#118=VECTOR('',#444,10.);
#119=VECTOR('',#445,10.);
#120=VECTOR('',#448,10.);
#121=VECTOR('',#453,10.);
#122=VECTOR('',#454,10.);
#123=VECTOR('',#457,10.);
#124=VECTOR('',#458,10.);
#125=VECTOR('',#461,10.);
#126=VECTOR('',#468,10.);
#127=CIRCLE('',#336,5.);
#128=CIRCLE('',#337,6.);
#129=CIRCLE('',#339,5.);
#130=CIRCLE('',#341,14.0000000000004);
#131=CIRCLE('',#342,29.0000000000001);
#132=CIRCLE('',#343,21.);
#133=CIRCLE('',#345,6.);
#134=CIRCLE('',#347,14.0000000000004);
#135=CIRCLE('',#348,29.0000000000001);
#136=CIRCLE('',#349,21.);
#137=CIRCLE('',#351,20.);
#138=CIRCLE('',#353,20.);
#139=CIRCLE('',#356,15.0000000000004);
#140=CIRCLE('',#359,30.0000000000001);
#141=CIRCLE('',#363,15.0000000000004);
#142=CIRCLE('',#367,30.0000000000001);
#143=VERTEX_POINT('',#473);
#144=VERTEX_POINT('',#475);
#145=VERTEX_POINT('',#479);
#146=VERTEX_POINT('',#483);
#147=VERTEX_POINT('',#484);
#148=VERTEX_POINT('',#486);
#149=VERTEX_POINT('',#488);
#150=VERTEX_POINT('',#491);
#151=VERTEX_POINT('',#494);
#152=VERTEX_POINT('',#498);
#153=VERTEX_POINT('',#499);
#154=VERTEX_POINT('',#501);
#155=VERTEX_POINT('',#503);
#156=VERTEX_POINT('',#506);
#157=VERTEX_POINT('',#509);
#158=VERTEX_POINT('',#513);
#159=VERTEX_POINT('',#519);
#160=VERTEX_POINT('',#521);
#161=VERTEX_POINT('',#525);
#162=VERTEX_POINT('',#529);
#163=VERTEX_POINT('',#535);
#164=VERTEX_POINT('',#537);
#165=VERTEX_POINT('',#541);
#166=VERTEX_POINT('',#548);
#167=EDGE_CURVE('',#143,#143,#127,.T.);
#168=EDGE_CURVE('',#143,#144,#75,.T.);
#169=EDGE_CURVE('',#144,#144,#128,.T.);
#170=EDGE_CURVE('',#145,#145,#129,.T.);
#171=EDGE_CURVE('',#145,#143,#76,.T.);
#172=EDGE_CURVE('',#146,#147,#130,.T.);
#173=EDGE_CURVE('',#148,#146,#77,.T.);
#174=EDGE_CURVE('',#149,#148,#131,.T.);
#175=EDGE_CURVE('',#147,#149,#78,.T.);
#176=EDGE_CURVE('',#150,#150,#132,.T.);
#177=EDGE_CURVE('',#151,#151,#133,.T.);
#178=EDGE_CURVE('',#151,#145,#79,.T.);
#179=EDGE_CURVE('',#152,#153,#134,.T.);
#180=EDGE_CURVE('',#154,#152,#80,.T.);
#181=EDGE_CURVE('',#155,#154,#135,.T.);
#182=EDGE_CURVE('',#153,#155,#81,.T.);
#183=EDGE_CURVE('',#156,#156,#136,.T.);
#184=EDGE_CURVE('',#157,#157,#137,.T.);
#185=EDGE_CURVE('',#157,#150,#82,.T.);
#186=EDGE_CURVE('',#158,#158,#138,.T.);
#187=EDGE_CURVE('',#158,#157,#83,.T.);
#188=EDGE_CURVE('',#156,#158,#84,.T.);
#189=EDGE_CURVE('',#147,#159,#85,.T.);
#190=EDGE_CURVE('',#159,#160,#139,.T.);
#191=EDGE_CURVE('',#160,#146,#86,.T.);
#192=EDGE_CURVE('',#149,#161,#87,.T.);
#193=EDGE_CURVE('',#161,#159,#88,.T.);
#194=EDGE_CURVE('',#148,#162,#89,.T.);
#195=EDGE_CURVE('',#162,#161,#140,.T.);
#196=EDGE_CURVE('',#160,#162,#90,.T.);
#197=EDGE_CURVE('',#160,#163,#91,.T.);
#198=EDGE_CURVE('',#164,#163,#92,.T.);
#199=EDGE_CURVE('',#162,#164,#93,.T.);
#200=EDGE_CURVE('',#159,#165,#94,.T.);
#201=EDGE_CURVE('',#163,#165,#141,.T.);
#202=EDGE_CURVE('',#165,#152,#95,.T.);
#203=EDGE_CURVE('',#153,#163,#96,.T.);
#204=EDGE_CURVE('',#166,#154,#97,.T.);
#205=EDGE_CURVE('',#165,#166,#98,.T.);
#206=EDGE_CURVE('',#164,#155,#99,.T.);
#207=EDGE_CURVE('',#166,#164,#142,.T.);
#208=EDGE_CURVE('',#161,#166,#100,.T.);
#209=ORIENTED_EDGE('',*,*,#167,.T.);
#210=ORIENTED_EDGE('',*,*,#168,.T.);
#211=ORIENTED_EDGE('',*,*,#169,.T.);
#212=ORIENTED_EDGE('',*,*,#168,.F.);
#213=ORIENTED_EDGE('',*,*,#170,.F.);
#214=ORIENTED_EDGE('',*,*,#171,.T.);
#215=ORIENTED_EDGE('',*,*,#167,.F.);
#216=ORIENTED_EDGE('',*,*,#171,.F.);
#217=ORIENTED_EDGE('',*,*,#172,.F.);
#218=ORIENTED_EDGE('',*,*,#173,.F.);
#219=ORIENTED_EDGE('',*,*,#174,.F.);
#220=ORIENTED_EDGE('',*,*,#175,.F.);
#221=ORIENTED_EDGE('',*,*,#176,.F.);
#222=ORIENTED_EDGE('',*,*,#169,.F.);
#223=ORIENTED_EDGE('',*,*,#177,.T.);
#224=ORIENTED_EDGE('',*,*,#178,.T.);
#225=ORIENTED_EDGE('',*,*,#170,.T.);
#226=ORIENTED_EDGE('',*,*,#178,.F.);
#227=ORIENTED_EDGE('',*,*,#179,.F.);
#228=ORIENTED_EDGE('',*,*,#180,.F.);
#229=ORIENTED_EDGE('',*,*,#181,.F.);
#230=ORIENTED_EDGE('',*,*,#182,.F.);
#231=ORIENTED_EDGE('',*,*,#183,.F.);
#232=ORIENTED_EDGE('',*,*,#177,.F.);
#233=ORIENTED_EDGE('',*,*,#184,.T.);
#234=ORIENTED_EDGE('',*,*,#185,.T.);
#235=ORIENTED_EDGE('',*,*,#176,.T.);
#236=ORIENTED_EDGE('',*,*,#185,.F.);
#237=ORIENTED_EDGE('',*,*,#186,.F.);
#238=ORIENTED_EDGE('',*,*,#187,.T.);
#239=ORIENTED_EDGE('',*,*,#184,.F.);
#240=ORIENTED_EDGE('',*,*,#187,.F.);
#241=ORIENTED_EDGE('',*,*,#183,.T.);
#242=ORIENTED_EDGE('',*,*,#188,.T.);
#243=ORIENTED_EDGE('',*,*,#186,.T.);
#244=ORIENTED_EDGE('',*,*,#188,.F.);
#245=ORIENTED_EDGE('',*,*,#189,.T.);
#246=ORIENTED_EDGE('',*,*,#190,.T.);
#247=ORIENTED_EDGE('',*,*,#191,.T.);
#248=ORIENTED_EDGE('',*,*,#172,.T.);
#249=ORIENTED_EDGE('',*,*,#192,.T.);
#250=ORIENTED_EDGE('',*,*,#193,.T.);
#251=ORIENTED_EDGE('',*,*,#189,.F.);
#252=ORIENTED_EDGE('',*,*,#175,.T.);
#253=ORIENTED_EDGE('',*,*,#194,.T.);
#254=ORIENTED_EDGE('',*,*,#195,.T.);
#255=ORIENTED_EDGE('',*,*,#192,.F.);
#256=ORIENTED_EDGE('',*,*,#174,.T.);
#257=ORIENTED_EDGE('',*,*,#191,.F.);
#258=ORIENTED_EDGE('',*,*,#196,.T.);
#259=ORIENTED_EDGE('',*,*,#194,.F.);
#260=ORIENTED_EDGE('',*,*,#173,.T.);
#261=ORIENTED_EDGE('',*,*,#196,.F.);
#262=ORIENTED_EDGE('',*,*,#197,.T.);
#263=ORIENTED_EDGE('',*,*,#198,.F.);
#264=ORIENTED_EDGE('',*,*,#199,.F.);
#265=ORIENTED_EDGE('',*,*,#190,.F.);
#266=ORIENTED_EDGE('',*,*,#200,.T.);
#267=ORIENTED_EDGE('',*,*,#201,.F.);
#268=ORIENTED_EDGE('',*,*,#197,.F.);
#269=ORIENTED_EDGE('',*,*,#202,.T.);
#270=ORIENTED_EDGE('',*,*,#179,.T.);
#271=ORIENTED_EDGE('',*,*,#203,.T.);
#272=ORIENTED_EDGE('',*,*,#201,.T.);
#273=ORIENTED_EDGE('',*,*,#204,.T.);
#274=ORIENTED_EDGE('',*,*,#180,.T.);
#275=ORIENTED_EDGE('',*,*,#202,.F.);
#276=ORIENTED_EDGE('',*,*,#205,.T.);
#277=ORIENTED_EDGE('',*,*,#206,.T.);
#278=ORIENTED_EDGE('',*,*,#181,.T.);
#279=ORIENTED_EDGE('',*,*,#204,.F.);
#280=ORIENTED_EDGE('',*,*,#207,.T.);
#281=ORIENTED_EDGE('',*,*,#203,.F.);
#282=ORIENTED_EDGE('',*,*,#182,.T.);
#283=ORIENTED_EDGE('',*,*,#206,.F.);
#284=ORIENTED_EDGE('',*,*,#198,.T.);
#285=ORIENTED_EDGE('',*,*,#193,.F.);
#286=ORIENTED_EDGE('',*,*,#208,.T.);
#287=ORIENTED_EDGE('',*,*,#205,.F.);
#288=ORIENTED_EDGE('',*,*,#200,.F.);
#289=ORIENTED_EDGE('',*,*,#195,.F.);
#290=ORIENTED_EDGE('',*,*,#199,.T.);
#291=ORIENTED_EDGE('',*,*,#207,.F.);
#292=ORIENTED_EDGE('',*,*,#208,.F.);
#293=CONICAL_SURFACE('',#335,5.5,0.785398163397449);
#294=CONICAL_SURFACE('',#344,5.5,0.785398163397448);
#295=CONICAL_SURFACE('',#350,20.5,0.785398163397449);
#296=CONICAL_SURFACE('',#354,20.5,0.785398163397448);
#297=CONICAL_SURFACE('',#355,14.5000000000004,0.785398163397447);
#298=CONICAL_SURFACE('',#358,29.5000000000001,0.785398163397449);
#299=CONICAL_SURFACE('',#364,14.5000000000004,0.785398163397447);
#300=CONICAL_SURFACE('',#366,29.5000000000001,0.785398163397449);
#301=ADVANCED_FACE('',(#31),#293,.F.);
#302=ADVANCED_FACE('',(#32),#27,.F.);
#303=ADVANCED_FACE('',(#33,#15,#16),#19,.F.);
#304=ADVANCED_FACE('',(#34),#294,.F.);
#305=ADVANCED_FACE('',(#35,#17,#18),#20,.T.);
#306=ADVANCED_FACE('',(#36),#295,.F.);
#307=ADVANCED_FACE('',(#37),#28,.F.);
#308=ADVANCED_FACE('',(#38),#296,.F.);
#309=ADVANCED_FACE('',(#39),#297,.T.);
#310=ADVANCED_FACE('',(#40),#21,.T.);
#311=ADVANCED_FACE('',(#41),#298,.T.);
#312=ADVANCED_FACE('',(#42),#22,.T.);
#313=ADVANCED_FACE('',(#43),#23,.T.);
#314=ADVANCED_FACE('',(#44),#29,.T.);
#315=ADVANCED_FACE('',(#45),#299,.T.);
#316=ADVANCED_FACE('',(#46),#24,.T.);
#317=ADVANCED_FACE('',(#47),#300,.T.);
#318=ADVANCED_FACE('',(#48),#25,.T.);
#319=ADVANCED_FACE('',(#49),#26,.T.);
#320=ADVANCED_FACE('',(#50),#30,.T.);
#321=CLOSED_SHELL('',(#301,#302,#303,#304,#305,#306,#307,#308,#309,#310,
#311,#312,#313,#314,#315,#316,#317,#318,#319,#320));
#322=DERIVED_UNIT_ELEMENT(#324,1.);
#323=DERIVED_UNIT_ELEMENT(#563,-3.);
#324=(
MASS_UNIT()
NAMED_UNIT(*)
SI_UNIT(.KILO.,.GRAM.)
);
#325=DERIVED_UNIT((#322,#323));
#326=MEASURE_REPRESENTATION_ITEM('density measure',
POSITIVE_RATIO_MEASURE(1425.),#325);
#327=PROPERTY_DEFINITION_REPRESENTATION(#332,#329);
#328=PROPERTY_DEFINITION_REPRESENTATION(#333,#330);
#329=REPRESENTATION('material name',(#331),#560);
#330=REPRESENTATION('density',(#326),#560);
#331=DESCRIPTIVE_REPRESENTATION_ITEM('Acetal Resin, White',
'Acetal Resin, White');
#332=PROPERTY_DEFINITION('material property','material name',#570);
#333=PROPERTY_DEFINITION('material property','density of part',#570);
#334=AXIS2_PLACEMENT_3D('',#471,#371,#372);
#335=AXIS2_PLACEMENT_3D('',#472,#373,#374);
#336=AXIS2_PLACEMENT_3D('',#474,#375,#376);
#337=AXIS2_PLACEMENT_3D('',#477,#378,#379);
#338=AXIS2_PLACEMENT_3D('',#478,#380,#381);
#339=AXIS2_PLACEMENT_3D('',#480,#382,#383);
#340=AXIS2_PLACEMENT_3D('',#482,#385,#386);
#341=AXIS2_PLACEMENT_3D('',#485,#387,#388);
#342=AXIS2_PLACEMENT_3D('',#489,#390,#391);
#343=AXIS2_PLACEMENT_3D('',#492,#393,#394);
#344=AXIS2_PLACEMENT_3D('',#493,#395,#396);
#345=AXIS2_PLACEMENT_3D('',#495,#397,#398);
#346=AXIS2_PLACEMENT_3D('',#497,#400,#401);
#347=AXIS2_PLACEMENT_3D('',#500,#402,#403);
#348=AXIS2_PLACEMENT_3D('',#504,#405,#406);
#349=AXIS2_PLACEMENT_3D('',#507,#408,#409);
#350=AXIS2_PLACEMENT_3D('',#508,#410,#411);
#351=AXIS2_PLACEMENT_3D('',#510,#412,#413);
#352=AXIS2_PLACEMENT_3D('',#512,#415,#416);
#353=AXIS2_PLACEMENT_3D('',#514,#417,#418);
#354=AXIS2_PLACEMENT_3D('',#516,#420,#421);
#355=AXIS2_PLACEMENT_3D('',#518,#423,#424);
#356=AXIS2_PLACEMENT_3D('',#522,#426,#427);
#357=AXIS2_PLACEMENT_3D('',#524,#429,#430);
#358=AXIS2_PLACEMENT_3D('',#528,#433,#434);
#359=AXIS2_PLACEMENT_3D('',#531,#436,#437);
#360=AXIS2_PLACEMENT_3D('',#532,#438,#439);
#361=AXIS2_PLACEMENT_3D('',#534,#441,#442);
#362=AXIS2_PLACEMENT_3D('',#540,#446,#447);
#363=AXIS2_PLACEMENT_3D('',#543,#449,#450);
#364=AXIS2_PLACEMENT_3D('',#544,#451,#452);
#365=AXIS2_PLACEMENT_3D('',#547,#455,#456);
#366=AXIS2_PLACEMENT_3D('',#551,#459,#460);
#367=AXIS2_PLACEMENT_3D('',#553,#462,#463);
#368=AXIS2_PLACEMENT_3D('',#554,#464,#465);
#369=AXIS2_PLACEMENT_3D('',#555,#466,#467);
#370=AXIS2_PLACEMENT_3D('',#557,#469,#470);
#371=DIRECTION('axis',(0.,0.,1.));
#372=DIRECTION('refdir',(1.,0.,0.));
#373=DIRECTION('center_axis',(0.,-1.,0.));
#374=DIRECTION('ref_axis',(1.,0.,0.));
#375=DIRECTION('center_axis',(0.,1.,0.));
#376=DIRECTION('ref_axis',(1.,0.,0.));
#377=DIRECTION('',(-0.707106781186548,-0.707106781186547,8.65956056235493E-17));
#378=DIRECTION('center_axis',(0.,-1.,0.));
#379=DIRECTION('ref_axis',(1.,0.,0.));
#380=DIRECTION('center_axis',(0.,1.,0.));
#381=DIRECTION('ref_axis',(1.,0.,0.));
#382=DIRECTION('center_axis',(0.,-1.,0.));
#383=DIRECTION('ref_axis',(1.,0.,0.));
#384=DIRECTION('',(0.,-1.,0.));
#385=DIRECTION('center_axis',(0.,1.,0.));
#386=DIRECTION('ref_axis',(1.,0.,0.));
#387=DIRECTION('center_axis',(0.,1.,0.));
#388=DIRECTION('ref_axis',(0.930672391626291,0.,-0.365853658536578));
#389=DIRECTION('',(-0.365853658536578,0.,-0.930672391626291));
#390=DIRECTION('center_axis',(0.,1.,0.));
#391=DIRECTION('ref_axis',(0.930672391626291,0.,0.365853658536578));
#392=DIRECTION('',(-0.365853658536578,0.,0.930672391626291));
#393=DIRECTION('center_axis',(0.,-1.,0.));
#394=DIRECTION('ref_axis',(1.,0.,0.));
#395=DIRECTION('center_axis',(0.,1.,0.));
#396=DIRECTION('ref_axis',(1.,0.,0.));
#397=DIRECTION('center_axis',(0.,1.,0.));
#398=DIRECTION('ref_axis',(1.,0.,0.));
#399=DIRECTION('',(0.707106781186547,-0.707106781186548,-8.65956056235493E-17));
#400=DIRECTION('center_axis',(0.,1.,0.));
#401=DIRECTION('ref_axis',(1.,0.,0.));
#402=DIRECTION('center_axis',(0.,-1.,0.));
#403=DIRECTION('ref_axis',(0.930672391626291,0.,-0.365853658536578));
#404=DIRECTION('',(0.365853658536578,0.,-0.930672391626291));
#405=DIRECTION('center_axis',(0.,-1.,0.));
#406=DIRECTION('ref_axis',(0.930672391626291,0.,0.365853658536578));
#407=DIRECTION('',(0.365853658536578,0.,0.930672391626291));
#408=DIRECTION('center_axis',(0.,1.,0.));
#409=DIRECTION('ref_axis',(1.,0.,0.));
#410=DIRECTION('center_axis',(0.,-1.,0.));
#411=DIRECTION('ref_axis',(1.,0.,0.));
#412=DIRECTION('center_axis',(0.,1.,0.));
#413=DIRECTION('ref_axis',(1.,0.,0.));
#414=DIRECTION('',(-0.707106781186548,-0.707106781186547,8.65956056235494E-17));
#415=DIRECTION('center_axis',(0.,1.,0.));
#416=DIRECTION('ref_axis',(1.,0.,0.));
#417=DIRECTION('center_axis',(0.,-1.,0.));
#418=DIRECTION('ref_axis',(1.,0.,0.));
#419=DIRECTION('',(0.,-1.,0.));
#420=DIRECTION('center_axis',(0.,1.,0.));
#421=DIRECTION('ref_axis',(1.,0.,0.));
#422=DIRECTION('',(0.707106781186548,-0.707106781186548,-8.65956056235493E-17));
#423=DIRECTION('center_axis',(0.,1.,0.));
#424=DIRECTION('ref_axis',(0.930672391626291,0.,-0.365853658536579));
#425=DIRECTION('',(-0.658084759182051,0.707106781186548,-0.258697602873124));
#426=DIRECTION('center_axis',(0.,-1.,0.));
#427=DIRECTION('ref_axis',(0.930672391626291,0.,-0.365853658536579));
#428=DIRECTION('',(-0.658084759182051,-0.707106781186548,0.258697602873124));
#429=DIRECTION('center_axis',(-0.658084759182051,-0.707106781186549,-0.258697602873122));
#430=DIRECTION('ref_axis',(-0.365853658536578,0.,0.930672391626291));
#431=DIRECTION('',(-0.658084759182053,0.707106781186547,-0.258697602873124));
#432=DIRECTION('',(0.365853658536578,0.,-0.930672391626291));
#433=DIRECTION('center_axis',(0.,1.,0.));
#434=DIRECTION('ref_axis',(0.930672391626291,0.,0.365853658536578));
#435=DIRECTION('',(0.658084759182055,0.707106781186546,-0.25869760287312));
#436=DIRECTION('center_axis',(0.,-1.,0.));
#437=DIRECTION('ref_axis',(0.930672391626291,0.,0.365853658536578));
#438=DIRECTION('center_axis',(0.658084759182054,-0.707106781186546,-0.258697602873122));
#439=DIRECTION('ref_axis',(-0.365853658536578,0.,-0.930672391626291));
#440=DIRECTION('',(0.365853658536578,0.,0.930672391626291));
#441=DIRECTION('center_axis',(0.930672391626291,0.,-0.365853658536578));
#442=DIRECTION('ref_axis',(-0.365853658536578,0.,-0.930672391626291));
#443=DIRECTION('',(0.,1.,0.));
#444=DIRECTION('',(-0.365853658536578,0.,-0.930672391626291));
#445=DIRECTION('',(0.,1.,0.));
#446=DIRECTION('center_axis',(0.,1.,0.));
#447=DIRECTION('ref_axis',(0.930672391626291,0.,-0.365853658536578));
#448=DIRECTION('',(0.,1.,0.));
#449=DIRECTION('center_axis',(0.,1.,0.));
#450=DIRECTION('ref_axis',(0.930672391626291,0.,-0.365853658536579));
#451=DIRECTION('center_axis',(0.,-1.,0.));
#452=DIRECTION('ref_axis',(0.930672391626291,0.,-0.365853658536579));
#453=DIRECTION('',(0.658084759182051,0.707106781186548,0.258697602873124));
#454=DIRECTION('',(0.658084759182051,-0.707106781186548,-0.258697602873124));
#455=DIRECTION('center_axis',(-0.658084759182052,0.707106781186549,-0.258697602873122));
#456=DIRECTION('ref_axis',(-0.365853658536578,0.,0.930672391626291));
#457=DIRECTION('',(0.658084759182053,0.707106781186547,0.258697602873124));
#458=DIRECTION('',(-0.365853658536578,0.,0.930672391626291));
#459=DIRECTION('center_axis',(0.,-1.,0.));
#460=DIRECTION('ref_axis',(0.930672391626291,0.,0.365853658536578));
#461=DIRECTION('',(-0.658084759182055,0.707106781186546,0.25869760287312));
#462=DIRECTION('center_axis',(0.,1.,0.));
#463=DIRECTION('ref_axis',(0.930672391626291,0.,0.365853658536578));
#464=DIRECTION('center_axis',(0.658084759182051,0.707106781186549,-0.258697602873121));
#465=DIRECTION('ref_axis',(-0.365853658536578,0.,-0.930672391626291));
#466=DIRECTION('center_axis',(-0.930672391626291,0.,-0.365853658536578));
#467=DIRECTION('ref_axis',(-0.365853658536578,0.,0.930672391626291));
#468=DIRECTION('',(0.,1.,0.));
#469=DIRECTION('center_axis',(0.,1.,0.));
#470=DIRECTION('ref_axis',(-7.40148683083435E-17,0.,1.));
#471=CARTESIAN_POINT('',(0.,0.,0.));
#472=CARTESIAN_POINT('Origin',(0.,0.5,-41.));
#473=CARTESIAN_POINT('',(-5.,1.,-41.));
#474=CARTESIAN_POINT('Origin',(0.,1.,-41.));
#475=CARTESIAN_POINT('',(-6.,0.,-41.));
#476=CARTESIAN_POINT('',(-5.5,0.5,-41.));
#477=CARTESIAN_POINT('Origin',(0.,0.,-41.));
#478=CARTESIAN_POINT('Origin',(0.,0.,-41.));
#479=CARTESIAN_POINT('',(-5.,19.,-41.));
#480=CARTESIAN_POINT('Origin',(0.,19.,-41.));
#481=CARTESIAN_POINT('',(-5.,0.,-41.));
#482=CARTESIAN_POINT('Origin',(0.,0.,-13.0000000000001));
#483=CARTESIAN_POINT('',(13.0294134827685,0.,-46.1219512195122));
#484=CARTESIAN_POINT('',(-13.0294134827685,0.,-46.1219512195122));
#485=CARTESIAN_POINT('Origin',(0.,0.,-41.));
#486=CARTESIAN_POINT('',(26.9894993571625,0.,-10.6097560975608));
#487=CARTESIAN_POINT('',(24.776315011222,0.,-16.239738251041));
#488=CARTESIAN_POINT('',(-26.9894993571626,0.,-10.6097560975608));
#489=CARTESIAN_POINT('Origin',(-6.93889390390723E-17,0.,5.55111512312578E-16));
#490=CARTESIAN_POINT('',(-17.7962720740249,0.,-33.9958358120167));
#491=CARTESIAN_POINT('',(-21.,0.,-2.57175827820944E-15));
#492=CARTESIAN_POINT('Origin',(0.,0.,0.));
#493=CARTESIAN_POINT('Origin',(0.,19.5,-41.));
#494=CARTESIAN_POINT('',(-6.,20.,-41.));
#495=CARTESIAN_POINT('Origin',(0.,20.,-41.));
#496=CARTESIAN_POINT('',(-5.5,19.5,-41.));
#497=CARTESIAN_POINT('Origin',(0.,20.,-13.0000000000001));
#498=CARTESIAN_POINT('',(-13.0294134827685,20.,-46.1219512195122));
#499=CARTESIAN_POINT('',(13.0294134827685,20.,-46.1219512195122));
#500=CARTESIAN_POINT('Origin',(0.,20.,-41.));
#501=CARTESIAN_POINT('',(-26.9894993571626,20.,-10.6097560975608));
#502=CARTESIAN_POINT('',(-17.7962720740249,20.,-33.9958358120167));
#503=CARTESIAN_POINT('',(26.9894993571625,20.,-10.6097560975608));
#504=CARTESIAN_POINT('Origin',(-6.93889390390723E-17,20.,5.55111512312578E-16));
#505=CARTESIAN_POINT('',(24.776315011222,20.,-16.239738251041));
#506=CARTESIAN_POINT('',(-21.,20.,2.57175827820944E-15));
#507=CARTESIAN_POINT('Origin',(0.,20.,0.));
#508=CARTESIAN_POINT('Origin',(0.,0.5,0.));
#509=CARTESIAN_POINT('',(-20.,1.,2.44929359829471E-15));
#510=CARTESIAN_POINT('Origin',(0.,1.,0.));
#511=CARTESIAN_POINT('',(-20.5,0.5,2.51052593825207E-15));
#512=CARTESIAN_POINT('Origin',(0.,0.,0.));
#513=CARTESIAN_POINT('',(-20.,19.,-2.44929359829471E-15));
#514=CARTESIAN_POINT('Origin',(0.,19.,0.));
#515=CARTESIAN_POINT('',(-20.,0.,2.44929359829471E-15));
#516=CARTESIAN_POINT('Origin',(0.,19.5,0.));
#517=CARTESIAN_POINT('',(-20.5,19.5,2.51052593825207E-15));
#518=CARTESIAN_POINT('Origin',(0.,0.5,-41.));
#519=CARTESIAN_POINT('',(-13.9600858743947,1.,-46.4878048780488));
#520=CARTESIAN_POINT('',(-13.0294134827685,0.,-46.1219512195122));
#521=CARTESIAN_POINT('',(13.9600858743947,1.,-46.4878048780488));
#522=CARTESIAN_POINT('Origin',(0.,1.,-41.));
#523=CARTESIAN_POINT('',(13.9600858743947,1.,-46.4878048780488));
#524=CARTESIAN_POINT('Origin',(-18.2616082698381,0.5,-34.178762641285));
#525=CARTESIAN_POINT('',(-27.9201717487888,1.,-10.9756097560974));
#526=CARTESIAN_POINT('',(-26.9894993571626,0.,-10.6097560975608));
#527=CARTESIAN_POINT('',(-18.7269444656512,1.,-34.3616894705533));
#528=CARTESIAN_POINT('Origin',(-6.93889390390723E-17,0.5,5.55111512312578E-16));
#529=CARTESIAN_POINT('',(27.9201717487888,1.,-10.9756097560974));
#530=CARTESIAN_POINT('',(26.9894993571625,0.,-10.6097560975608));
#531=CARTESIAN_POINT('Origin',(-6.93889390390723E-17,1.,5.55111512312578E-16));
#532=CARTESIAN_POINT('Origin',(25.2416512070351,0.5,-16.4226650803093));
#533=CARTESIAN_POINT('',(25.7069874028483,1.,-16.6055919095776));
#534=CARTESIAN_POINT('Origin',(27.9201717487888,0.,-10.9756097560974));
#535=CARTESIAN_POINT('',(13.9600858743947,19.,-46.4878048780488));
#536=CARTESIAN_POINT('',(13.9600858743947,0.,-46.4878048780488));
#537=CARTESIAN_POINT('',(27.9201717487888,19.,-10.9756097560974));
#538=CARTESIAN_POINT('',(25.7069874028483,19.,-16.6055919095776));
#539=CARTESIAN_POINT('',(27.9201717487888,0.,-10.9756097560974));
#540=CARTESIAN_POINT('Origin',(0.,0.,-41.));
#541=CARTESIAN_POINT('',(-13.9600858743947,19.,-46.4878048780488));
#542=CARTESIAN_POINT('',(-13.9600858743947,0.,-46.4878048780488));
#543=CARTESIAN_POINT('Origin',(0.,19.,-41.));
#544=CARTESIAN_POINT('Origin',(0.,19.5,-41.));
#545=CARTESIAN_POINT('',(-13.9600858743947,19.,-46.4878048780488));
#546=CARTESIAN_POINT('',(13.0294134827685,20.,-46.1219512195122));
#547=CARTESIAN_POINT('Origin',(-18.2616082698381,19.5,-34.178762641285));
#548=CARTESIAN_POINT('',(-27.9201717487888,19.,-10.9756097560974));
#549=CARTESIAN_POINT('',(-27.9201717487888,19.,-10.9756097560974));
#550=CARTESIAN_POINT('',(-18.7269444656512,19.,-34.3616894705533));
#551=CARTESIAN_POINT('Origin',(-6.93889390390723E-17,19.5,5.55111512312578E-16));
#552=CARTESIAN_POINT('',(27.9201717487888,19.,-10.9756097560974));
#553=CARTESIAN_POINT('Origin',(-6.93889390390723E-17,19.,5.55111512312578E-16));
#554=CARTESIAN_POINT('Origin',(25.2416512070351,19.5,-16.4226650803093));
#555=CARTESIAN_POINT('Origin',(-13.9600858743947,0.,-46.4878048780488));
#556=CARTESIAN_POINT('',(-27.9201717487888,0.,-10.9756097560974));
#557=CARTESIAN_POINT('Origin',(-6.93889390390723E-17,0.,5.55111512312578E-16));
#558=UNCERTAINTY_MEASURE_WITH_UNIT(LENGTH_MEASURE(0.01),#562,
'DISTANCE_ACCURACY_VALUE',
'Maximum model space distance between geometric entities at asserted c
onnectivities');
#559=UNCERTAINTY_MEASURE_WITH_UNIT(LENGTH_MEASURE(0.01),#562,
'DISTANCE_ACCURACY_VALUE',
'Maximum model space distance between geometric entities at asserted c
onnectivities');
#560=(
GEOMETRIC_REPRESENTATION_CONTEXT(3)
GLOBAL_UNCERTAINTY_ASSIGNED_CONTEXT((#558))
GLOBAL_UNIT_ASSIGNED_CONTEXT((#562,#564,#565))
REPRESENTATION_CONTEXT('','3D')
);
#561=(
GEOMETRIC_REPRESENTATION_CONTEXT(3)
GLOBAL_UNCERTAINTY_ASSIGNED_CONTEXT((#559))
GLOBAL_UNIT_ASSIGNED_CONTEXT((#562,#564,#565))
REPRESENTATION_CONTEXT('','3D')
);
#562=(
LENGTH_UNIT()
NAMED_UNIT(*)
SI_UNIT(.MILLI.,.METRE.)
);
#563=(
LENGTH_UNIT()
NAMED_UNIT(*)
SI_UNIT($,.METRE.)
);
#564=(
NAMED_UNIT(*)
PLANE_ANGLE_UNIT()
SI_UNIT($,.RADIAN.)
);
#565=(
NAMED_UNIT(*)
SI_UNIT($,.STERADIAN.)
SOLID_ANGLE_UNIT()
);
#566=SHAPE_DEFINITION_REPRESENTATION(#567,#568);
#567=PRODUCT_DEFINITION_SHAPE('',$,#570);
#568=SHAPE_REPRESENTATION('',(#334),#560);
#569=PRODUCT_DEFINITION_CONTEXT('part definition',#574,'design');
#570=PRODUCT_DEFINITION('bottom slider','bottom slider v2',#571,#569);
#571=PRODUCT_DEFINITION_FORMATION('',$,#576);
#572=PRODUCT_RELATED_PRODUCT_CATEGORY('bottom slider v2',
'bottom slider v2',(#576));
#573=APPLICATION_PROTOCOL_DEFINITION('international standard',
'automotive_design',2009,#574);
#574=APPLICATION_CONTEXT(
'Core Data for Automotive Mechanical Design Process');
#575=PRODUCT_CONTEXT('part definition',#574,'mechanical');
#576=PRODUCT('bottom slider','bottom slider v2',$,(#575));
#577=PRESENTATION_STYLE_ASSIGNMENT((#578));
#578=SURFACE_STYLE_USAGE(.BOTH.,#579);
#579=SURFACE_SIDE_STYLE('',(#580));
#580=SURFACE_STYLE_FILL_AREA(#581);
#581=FILL_AREA_STYLE('Acetal Resin (White)',(#582));
#582=FILL_AREA_STYLE_COLOUR('Acetal Resin (White)',#583);
#583=COLOUR_RGB('Acetal Resin (White)',0.972549019607843,0.968627450980392,
0.929411764705882);
ENDSEC;
END-ISO-10303-21;
