ISO-10303-21;
HEADER;
/* Generated by software containing ST-Developer
 * from STEP Tools, Inc. (www.steptools.com) 
 */

FILE_DESCRIPTION(
/* description */ (''),
/* implementation_level */ '2;1');

FILE_NAME(
/* name */ 'LL endeffector v8.step',
/* time_stamp */ '2024-06-12T15:29:15+02:00',
/* author */ (''),
/* organization */ (''),
/* preprocessor_version */ 'ST-DEVELOPER v20',
/* originating_system */ 'Autodesk Translation Framework v13.14.0.145',

/* authorisation */ '');

FILE_SCHEMA (('AUTOMOTIVE_DESIGN { 1 0 10303 214 3 1 1 }'));
ENDSEC;

DATA;
#10=MECHANICAL_DESIGN_GEOMETRIC_PRESENTATION_REPRESENTATION('',(#26,#27),
#821);
#11=ITEM_DEFINED_TRANSFORMATION($,$,#435,#484);
#12=(
REPRESENTATION_RELATIONSHIP($,$,#832,#831)
REPRESENTATION_RELATIONSHIP_WITH_TRANSFORMATION(#11)
SHAPE_REPRESENTATION_RELATIONSHIP()
);
#13=CONTEXT_DEPENDENT_SHAPE_REPRESENTATION(#12,#830);
#14=NEXT_ASSEMBLY_USAGE_OCCURRENCE('1_5-6-1326554 v1:1',
'1_5-6-1326554 v1:1','1_5-6-1326554 v1:1',#834,#835,
'1_5-6-1326554 v1:1');
#15=FACE_BOUND('',#92,.T.);
#16=FACE_BOUND('',#93,.T.);
#17=FACE_BOUND('',#98,.T.);
#18=FACE_BOUND('',#106,.T.);
#19=B_SPLINE_CURVE_WITH_KNOTS('',3,(#672,#673,#674,#675,#676,#677,#678,
#679,#680,#681,#682,#683,#684,#685,#686,#687,#688,#689),.UNSPECIFIED.,.F.,
 .F.,(4,2,2,2,2,2,2,2,4),(0.230634331262262,0.259502971328372,0.288371611394483,
0.317161554143938,0.345951496893393,0.374741439642848,0.403531382392303,
0.432400022458413,0.461268662524524),.UNSPECIFIED.);
#20=B_SPLINE_CURVE_WITH_KNOTS('',3,(#690,#691,#692,#693,#694,#695,#696,
#697,#698,#699,#700,#701,#702,#703,#704,#705,#706,#707),.UNSPECIFIED.,.F.,
 .F.,(4,2,2,2,2,2,2,2,4),(0.461268662524524,0.490137302590634,0.519005942656745,
0.5477958854062,0.576585828155655,0.60537577090511,0.634165713654565,0.663034353720675,
0.691902993786786),.UNSPECIFIED.);
#21=B_SPLINE_CURVE_WITH_KNOTS('',3,(#709,#710,#711,#712,#713,#714,#715,
#716,#717,#718,#719,#720,#721,#722,#723,#724,#725,#726,#727,#728,#729,#730,
#731,#732,#733,#734,#735,#736,#737,#738,#739,#740,#741,#742),
 .UNSPECIFIED.,.T.,.F.,(4,2,2,2,2,2,2,2,2,2,2,2,2,2,2,2,4),(0.,0.0288686400661104,
0.0577372801322209,0.0865272228816759,0.115317165631131,0.144107108380586,
0.172897051130041,0.201765691196151,0.230634331262262,0.259502971328372,
0.288371611394483,0.317161554143938,0.345951496893393,0.374741439642848,
0.403531382392303,0.432400022458413,0.461268662524524),.UNSPECIFIED.);
#22=SHAPE_REPRESENTATION_RELATIONSHIP('SRR','None',#832,#24);
#23=SHAPE_REPRESENTATION_RELATIONSHIP('SRR','None',#831,#25);
#24=ADVANCED_BREP_SHAPE_REPRESENTATION('',(#28),#820);
#25=ADVANCED_BREP_SHAPE_REPRESENTATION('',(#29),#819);
#26=STYLED_ITEM('',(#846),#28);
#27=STYLED_ITEM('',(#845),#29);
#28=MANIFOLD_SOLID_BREP('Body1',#420);
#29=MANIFOLD_SOLID_BREP('Body1',#421);
#30=CONICAL_SURFACE('',#443,0.717647619362185,0.253261563458729);
#31=CONICAL_SURFACE('',#448,0.717647619362185,0.253261563458729);
#32=CONICAL_SURFACE('',#450,1.,0.78539816339745);
#33=CONICAL_SURFACE('',#465,2.75,0.785398163397451);
#34=CONICAL_SURFACE('',#474,2.75,0.785398163397451);
#35=CONICAL_SURFACE('',#475,2.75,0.785398163397447);
#36=CONICAL_SURFACE('',#478,1.2135,0.785398163397448);
#37=(
BOUNDED_CURVE()
B_SPLINE_CURVE(2,(#625,#626,#627),.UNSPECIFIED.,.F.,.F.)
B_SPLINE_CURVE_WITH_KNOTS((3,3),(0.,0.258491751297399),.UNSPECIFIED.)
CURVE()
GEOMETRIC_REPRESENTATION_ITEM()
RATIONAL_B_SPLINE_CURVE((1.,1.00104966778963,1.))
REPRESENTATION_ITEM('')
);
#38=(
BOUNDED_CURVE()
B_SPLINE_CURVE(2,(#631,#632,#633),.UNSPECIFIED.,.F.,.F.)
B_SPLINE_CURVE_WITH_KNOTS((3,3),(0.,0.258491751297399),.UNSPECIFIED.)
CURVE()
GEOMETRIC_REPRESENTATION_ITEM()
RATIONAL_B_SPLINE_CURVE((1.,1.00104966777599,1.))
REPRESENTATION_ITEM('')
);
#39=(
BOUNDED_CURVE()
B_SPLINE_CURVE(2,(#643,#644,#645),.UNSPECIFIED.,.F.,.F.)
B_SPLINE_CURVE_WITH_KNOTS((3,3),(0.,0.258491751297399),.UNSPECIFIED.)
CURVE()
GEOMETRIC_REPRESENTATION_ITEM()
RATIONAL_B_SPLINE_CURVE((1.,1.00104966777599,1.))
REPRESENTATION_ITEM('')
);
#40=(
BOUNDED_CURVE()
B_SPLINE_CURVE(2,(#648,#649,#650),.UNSPECIFIED.,.F.,.F.)
B_SPLINE_CURVE_WITH_KNOTS((3,3),(0.,0.258491751297399),.UNSPECIFIED.)
CURVE()
GEOMETRIC_REPRESENTATION_ITEM()
RATIONAL_B_SPLINE_CURVE((1.,1.00104966778963,1.))
REPRESENTATION_ITEM('')
);
#41=(
BOUNDED_CURVE()
B_SPLINE_CURVE(2,(#755,#756,#757),.UNSPECIFIED.,.F.,.F.)
B_SPLINE_CURVE_WITH_KNOTS((3,3),(0.,0.0890103270070254),.UNSPECIFIED.)
CURVE()
GEOMETRIC_REPRESENTATION_ITEM()
RATIONAL_B_SPLINE_CURVE((1.,1.00907742726648,1.))
REPRESENTATION_ITEM('')
);
#42=(
BOUNDED_CURVE()
B_SPLINE_CURVE(2,(#761,#762,#763),.UNSPECIFIED.,.F.,.F.)
B_SPLINE_CURVE_WITH_KNOTS((3,3),(0.,0.0890103270070254),.UNSPECIFIED.)
CURVE()
GEOMETRIC_REPRESENTATION_ITEM()
RATIONAL_B_SPLINE_CURVE((1.,1.00907742726648,1.))
REPRESENTATION_ITEM('')
);
#43=(
BOUNDED_CURVE()
B_SPLINE_CURVE(2,(#776,#777,#778),.UNSPECIFIED.,.F.,.F.)
B_SPLINE_CURVE_WITH_KNOTS((3,3),(0.,0.0890103270070255),.UNSPECIFIED.)
CURVE()
GEOMETRIC_REPRESENTATION_ITEM()
RATIONAL_B_SPLINE_CURVE((1.,1.00907742726645,1.))
REPRESENTATION_ITEM('')
);
#44=(
BOUNDED_CURVE()
B_SPLINE_CURVE(2,(#788,#789,#790),.UNSPECIFIED.,.F.,.F.)
B_SPLINE_CURVE_WITH_KNOTS((3,3),(0.,0.0890103270070255),.UNSPECIFIED.)
CURVE()
GEOMETRIC_REPRESENTATION_ITEM()
RATIONAL_B_SPLINE_CURVE((1.,1.00907742726645,1.))
REPRESENTATION_ITEM('')
);
#45=PLANE('',#439);
#46=PLANE('',#440);
#47=PLANE('',#442);
#48=PLANE('',#449);
#49=PLANE('',#456);
#50=PLANE('',#457);
#51=PLANE('',#460);
#52=PLANE('',#461);
#53=PLANE('',#467);
#54=PLANE('',#469);
#55=PLANE('',#477);
#56=PLANE('',#481);
#57=FACE_OUTER_BOUND('',#82,.T.);
#58=FACE_OUTER_BOUND('',#83,.T.);
#59=FACE_OUTER_BOUND('',#84,.T.);
#60=FACE_OUTER_BOUND('',#85,.T.);
#61=FACE_OUTER_BOUND('',#86,.T.);
#62=FACE_OUTER_BOUND('',#87,.T.);
#63=FACE_OUTER_BOUND('',#88,.T.);
#64=FACE_OUTER_BOUND('',#89,.T.);
#65=FACE_OUTER_BOUND('',#90,.T.);
#66=FACE_OUTER_BOUND('',#91,.T.);
#67=FACE_OUTER_BOUND('',#94,.T.);
#68=FACE_OUTER_BOUND('',#95,.T.);
#69=FACE_OUTER_BOUND('',#96,.T.);
#70=FACE_OUTER_BOUND('',#97,.T.);
#71=FACE_OUTER_BOUND('',#99,.T.);
#72=FACE_OUTER_BOUND('',#100,.T.);
#73=FACE_OUTER_BOUND('',#101,.T.);
#74=FACE_OUTER_BOUND('',#102,.T.);
#75=FACE_OUTER_BOUND('',#103,.T.);
#76=FACE_OUTER_BOUND('',#104,.T.);
#77=FACE_OUTER_BOUND('',#105,.T.);
#78=FACE_OUTER_BOUND('',#107,.T.);
#79=FACE_OUTER_BOUND('',#108,.T.);
#80=FACE_OUTER_BOUND('',#109,.T.);
#81=FACE_OUTER_BOUND('',#110,.T.);
#82=EDGE_LOOP('',(#275,#276,#277,#278));
#83=EDGE_LOOP('',(#279,#280,#281,#282,#283,#284));
#84=EDGE_LOOP('',(#285,#286,#287,#288));
#85=EDGE_LOOP('',(#289,#290,#291,#292,#293,#294));
#86=EDGE_LOOP('',(#295,#296,#297,#298));
#87=EDGE_LOOP('',(#299,#300,#301,#302));
#88=EDGE_LOOP('',(#303,#304,#305,#306));
#89=EDGE_LOOP('',(#307,#308,#309,#310));
#90=EDGE_LOOP('',(#311,#312,#313,#314,#315));
#91=EDGE_LOOP('',(#316,#317,#318,#319,#320));
#92=EDGE_LOOP('',(#321,#322));
#93=EDGE_LOOP('',(#323));
#94=EDGE_LOOP('',(#324));
#95=EDGE_LOOP('',(#325,#326,#327));
#96=EDGE_LOOP('',(#328,#329,#330,#331,#332,#333));
#97=EDGE_LOOP('',(#334,#335,#336,#337));
#98=EDGE_LOOP('',(#338));
#99=EDGE_LOOP('',(#339,#340,#341,#342));
#100=EDGE_LOOP('',(#343,#344));
#101=EDGE_LOOP('',(#345,#346,#347,#348,#349,#350));
#102=EDGE_LOOP('',(#351,#352,#353,#354,#355,#356,#357,#358,#359,#360,#361,
#362,#363));
#103=EDGE_LOOP('',(#364,#365,#366,#367));
#104=EDGE_LOOP('',(#368,#369,#370,#371,#372));
#105=EDGE_LOOP('',(#373));
#106=EDGE_LOOP('',(#374));
#107=EDGE_LOOP('',(#375,#376,#377,#378));
#108=EDGE_LOOP('',(#379));
#109=EDGE_LOOP('',(#380,#381,#382,#383));
#110=EDGE_LOOP('',(#384,#385,#386,#387,#388));
#111=CIRCLE('',#437,0.45);
#112=CIRCLE('',#438,0.45);
#113=CIRCLE('',#441,0.68529523872437);
#114=CIRCLE('',#444,0.75);
#115=CIRCLE('',#445,0.68529523872437);
#116=CIRCLE('',#447,0.75);
#117=CIRCLE('',#451,0.500000000000001);
#118=CIRCLE('',#452,1.5);
#119=CIRCLE('',#453,1.5);
#120=CIRCLE('',#455,1.5);
#121=CIRCLE('',#458,3.);
#122=CIRCLE('',#459,3.);
#123=CIRCLE('',#462,2.5);
#124=CIRCLE('',#463,2.5);
#125=CIRCLE('',#464,1.4635);
#126=CIRCLE('',#466,3.);
#127=CIRCLE('',#468,3.);
#128=CIRCLE('',#471,3.);
#129=CIRCLE('',#472,3.);
#130=CIRCLE('',#473,3.);
#131=CIRCLE('',#476,2.5);
#132=CIRCLE('',#479,1.4635);
#133=CIRCLE('',#480,0.9635);
#134=LINE('',#615,#157);
#135=LINE('',#619,#158);
#136=LINE('',#623,#159);
#137=LINE('',#629,#160);
#138=LINE('',#634,#161);
#139=LINE('',#637,#162);
#140=LINE('',#641,#163);
#141=LINE('',#647,#164);
#142=LINE('',#662,#165);
#143=LINE('',#668,#166);
#144=LINE('',#749,#167);
#145=LINE('',#753,#168);
#146=LINE('',#759,#169);
#147=LINE('',#764,#170);
#148=LINE('',#769,#171);
#149=LINE('',#783,#172);
#150=LINE('',#785,#173);
#151=LINE('',#787,#174);
#152=LINE('',#796,#175);
#153=LINE('',#802,#176);
#154=LINE('',#808,#177);
#155=LINE('',#812,#178);
#156=LINE('',#814,#179);
#157=VECTOR('',#491,1.);
#158=VECTOR('',#494,1.);
#159=VECTOR('',#499,1.);
#160=VECTOR('',#500,1.);
#161=VECTOR('',#501,1.);
#162=VECTOR('',#504,1.);
#163=VECTOR('',#509,1.);
#164=VECTOR('',#510,1.);
#165=VECTOR('',#529,1.);
#166=VECTOR('',#536,1.5);
#167=VECTOR('',#545,10.);
#168=VECTOR('',#550,10.);
#169=VECTOR('',#551,10.);
#170=VECTOR('',#552,10.);
#171=VECTOR('',#557,10.);
#172=VECTOR('',#570,10.);
#173=VECTOR('',#573,10.);
#174=VECTOR('',#574,10.);
#175=VECTOR('',#581,3.);
#176=VECTOR('',#590,2.75);
#177=VECTOR('',#597,1.2135);
#178=VECTOR('',#604,1.5);
#179=VECTOR('',#607,0.75);
#180=VERTEX_POINT('',#613);
#181=VERTEX_POINT('',#614);
#182=VERTEX_POINT('',#616);
#183=VERTEX_POINT('',#618);
#184=VERTEX_POINT('',#622);
#185=VERTEX_POINT('',#624);
#186=VERTEX_POINT('',#628);
#187=VERTEX_POINT('',#630);
#188=VERTEX_POINT('',#636);
#189=VERTEX_POINT('',#640);
#190=VERTEX_POINT('',#642);
#191=VERTEX_POINT('',#646);
#192=VERTEX_POINT('',#659);
#193=VERTEX_POINT('',#661);
#194=VERTEX_POINT('',#663);
#195=VERTEX_POINT('',#667);
#196=VERTEX_POINT('',#670);
#197=VERTEX_POINT('',#671);
#198=VERTEX_POINT('',#708);
#199=VERTEX_POINT('',#745);
#200=VERTEX_POINT('',#746);
#201=VERTEX_POINT('',#748);
#202=VERTEX_POINT('',#752);
#203=VERTEX_POINT('',#754);
#204=VERTEX_POINT('',#758);
#205=VERTEX_POINT('',#760);
#206=VERTEX_POINT('',#766);
#207=VERTEX_POINT('',#768);
#208=VERTEX_POINT('',#771);
#209=VERTEX_POINT('',#774);
#210=VERTEX_POINT('',#780);
#211=VERTEX_POINT('',#781);
#212=VERTEX_POINT('',#786);
#213=VERTEX_POINT('',#792);
#214=VERTEX_POINT('',#793);
#215=VERTEX_POINT('',#800);
#216=VERTEX_POINT('',#805);
#217=VERTEX_POINT('',#807);
#218=EDGE_CURVE('',#180,#181,#134,.T.);
#219=EDGE_CURVE('',#182,#180,#111,.T.);
#220=EDGE_CURVE('',#183,#182,#135,.T.);
#221=EDGE_CURVE('',#181,#183,#112,.T.);
#222=EDGE_CURVE('',#184,#181,#136,.T.);
#223=EDGE_CURVE('',#185,#184,#37,.T.);
#224=EDGE_CURVE('',#186,#185,#137,.T.);
#225=EDGE_CURVE('',#187,#186,#38,.T.);
#226=EDGE_CURVE('',#180,#187,#138,.T.);
#227=EDGE_CURVE('',#183,#188,#139,.T.);
#228=EDGE_CURVE('',#184,#188,#113,.T.);
#229=EDGE_CURVE('',#189,#182,#140,.T.);
#230=EDGE_CURVE('',#190,#189,#39,.T.);
#231=EDGE_CURVE('',#191,#190,#141,.T.);
#232=EDGE_CURVE('',#188,#191,#40,.T.);
#233=EDGE_CURVE('',#186,#190,#114,.T.);
#234=EDGE_CURVE('',#187,#189,#115,.T.);
#235=EDGE_CURVE('',#185,#191,#116,.T.);
#236=EDGE_CURVE('',#192,#192,#117,.T.);
#237=EDGE_CURVE('',#192,#193,#142,.T.);
#238=EDGE_CURVE('',#193,#194,#118,.T.);
#239=EDGE_CURVE('',#194,#193,#119,.T.);
#240=EDGE_CURVE('',#194,#195,#143,.T.);
#241=EDGE_CURVE('',#195,#195,#120,.T.);
#242=EDGE_CURVE('',#196,#197,#19,.T.);
#243=EDGE_CURVE('',#197,#196,#20,.T.);
#244=EDGE_CURVE('',#198,#198,#21,.T.);
#245=EDGE_CURVE('',#199,#200,#121,.T.);
#246=EDGE_CURVE('',#199,#201,#144,.T.);
#247=EDGE_CURVE('',#200,#201,#122,.T.);
#248=EDGE_CURVE('',#202,#199,#145,.T.);
#249=EDGE_CURVE('',#203,#202,#41,.T.);
#250=EDGE_CURVE('',#204,#203,#146,.T.);
#251=EDGE_CURVE('',#205,#204,#42,.T.);
#252=EDGE_CURVE('',#201,#205,#147,.T.);
#253=EDGE_CURVE('',#206,#203,#123,.T.);
#254=EDGE_CURVE('',#206,#207,#148,.T.);
#255=EDGE_CURVE('',#204,#207,#124,.T.);
#256=EDGE_CURVE('',#208,#208,#125,.T.);
#257=EDGE_CURVE('',#202,#209,#126,.T.);
#258=EDGE_CURVE('',#209,#206,#43,.T.);
#259=EDGE_CURVE('',#210,#211,#127,.T.);
#260=EDGE_CURVE('',#210,#211,#149,.T.);
#261=EDGE_CURVE('',#211,#209,#150,.T.);
#262=EDGE_CURVE('',#212,#210,#151,.T.);
#263=EDGE_CURVE('',#207,#212,#44,.T.);
#264=EDGE_CURVE('',#213,#214,#128,.T.);
#265=EDGE_CURVE('',#214,#213,#129,.T.);
#266=EDGE_CURVE('',#214,#200,#152,.T.);
#267=EDGE_CURVE('',#212,#205,#130,.T.);
#268=EDGE_CURVE('',#215,#215,#131,.T.);
#269=EDGE_CURVE('',#215,#213,#153,.T.);
#270=EDGE_CURVE('',#216,#216,#132,.T.);
#271=EDGE_CURVE('',#216,#217,#154,.T.);
#272=EDGE_CURVE('',#217,#217,#133,.T.);
#273=EDGE_CURVE('',#208,#216,#155,.T.);
#274=EDGE_CURVE('',#197,#198,#156,.T.);
#275=ORIENTED_EDGE('',*,*,#218,.F.);
#276=ORIENTED_EDGE('',*,*,#219,.F.);
#277=ORIENTED_EDGE('',*,*,#220,.F.);
#278=ORIENTED_EDGE('',*,*,#221,.F.);
#279=ORIENTED_EDGE('',*,*,#218,.T.);
#280=ORIENTED_EDGE('',*,*,#222,.F.);
#281=ORIENTED_EDGE('',*,*,#223,.F.);
#282=ORIENTED_EDGE('',*,*,#224,.F.);
#283=ORIENTED_EDGE('',*,*,#225,.F.);
#284=ORIENTED_EDGE('',*,*,#226,.F.);
#285=ORIENTED_EDGE('',*,*,#221,.T.);
#286=ORIENTED_EDGE('',*,*,#227,.T.);
#287=ORIENTED_EDGE('',*,*,#228,.F.);
#288=ORIENTED_EDGE('',*,*,#222,.T.);
#289=ORIENTED_EDGE('',*,*,#220,.T.);
#290=ORIENTED_EDGE('',*,*,#229,.F.);
#291=ORIENTED_EDGE('',*,*,#230,.F.);
#292=ORIENTED_EDGE('',*,*,#231,.F.);
#293=ORIENTED_EDGE('',*,*,#232,.F.);
#294=ORIENTED_EDGE('',*,*,#227,.F.);
#295=ORIENTED_EDGE('',*,*,#225,.T.);
#296=ORIENTED_EDGE('',*,*,#233,.T.);
#297=ORIENTED_EDGE('',*,*,#230,.T.);
#298=ORIENTED_EDGE('',*,*,#234,.F.);
#299=ORIENTED_EDGE('',*,*,#224,.T.);
#300=ORIENTED_EDGE('',*,*,#235,.T.);
#301=ORIENTED_EDGE('',*,*,#231,.T.);
#302=ORIENTED_EDGE('',*,*,#233,.F.);
#303=ORIENTED_EDGE('',*,*,#223,.T.);
#304=ORIENTED_EDGE('',*,*,#228,.T.);
#305=ORIENTED_EDGE('',*,*,#232,.T.);
#306=ORIENTED_EDGE('',*,*,#235,.F.);
#307=ORIENTED_EDGE('',*,*,#219,.T.);
#308=ORIENTED_EDGE('',*,*,#226,.T.);
#309=ORIENTED_EDGE('',*,*,#234,.T.);
#310=ORIENTED_EDGE('',*,*,#229,.T.);
#311=ORIENTED_EDGE('',*,*,#236,.T.);
#312=ORIENTED_EDGE('',*,*,#237,.T.);
#313=ORIENTED_EDGE('',*,*,#238,.T.);
#314=ORIENTED_EDGE('',*,*,#239,.T.);
#315=ORIENTED_EDGE('',*,*,#237,.F.);
#316=ORIENTED_EDGE('',*,*,#238,.F.);
#317=ORIENTED_EDGE('',*,*,#239,.F.);
#318=ORIENTED_EDGE('',*,*,#240,.T.);
#319=ORIENTED_EDGE('',*,*,#241,.T.);
#320=ORIENTED_EDGE('',*,*,#240,.F.);
#321=ORIENTED_EDGE('',*,*,#242,.T.);
#322=ORIENTED_EDGE('',*,*,#243,.T.);
#323=ORIENTED_EDGE('',*,*,#244,.T.);
#324=ORIENTED_EDGE('',*,*,#236,.F.);
#325=ORIENTED_EDGE('',*,*,#245,.F.);
#326=ORIENTED_EDGE('',*,*,#246,.T.);
#327=ORIENTED_EDGE('',*,*,#247,.F.);
#328=ORIENTED_EDGE('',*,*,#248,.F.);
#329=ORIENTED_EDGE('',*,*,#249,.F.);
#330=ORIENTED_EDGE('',*,*,#250,.F.);
#331=ORIENTED_EDGE('',*,*,#251,.F.);
#332=ORIENTED_EDGE('',*,*,#252,.F.);
#333=ORIENTED_EDGE('',*,*,#246,.F.);
#334=ORIENTED_EDGE('',*,*,#250,.T.);
#335=ORIENTED_EDGE('',*,*,#253,.F.);
#336=ORIENTED_EDGE('',*,*,#254,.T.);
#337=ORIENTED_EDGE('',*,*,#255,.F.);
#338=ORIENTED_EDGE('',*,*,#256,.T.);
#339=ORIENTED_EDGE('',*,*,#249,.T.);
#340=ORIENTED_EDGE('',*,*,#257,.T.);
#341=ORIENTED_EDGE('',*,*,#258,.T.);
#342=ORIENTED_EDGE('',*,*,#253,.T.);
#343=ORIENTED_EDGE('',*,*,#259,.F.);
#344=ORIENTED_EDGE('',*,*,#260,.T.);
#345=ORIENTED_EDGE('',*,*,#258,.F.);
#346=ORIENTED_EDGE('',*,*,#261,.F.);
#347=ORIENTED_EDGE('',*,*,#260,.F.);
#348=ORIENTED_EDGE('',*,*,#262,.F.);
#349=ORIENTED_EDGE('',*,*,#263,.F.);
#350=ORIENTED_EDGE('',*,*,#254,.F.);
#351=ORIENTED_EDGE('',*,*,#264,.F.);
#352=ORIENTED_EDGE('',*,*,#265,.F.);
#353=ORIENTED_EDGE('',*,*,#266,.T.);
#354=ORIENTED_EDGE('',*,*,#247,.T.);
#355=ORIENTED_EDGE('',*,*,#252,.T.);
#356=ORIENTED_EDGE('',*,*,#267,.F.);
#357=ORIENTED_EDGE('',*,*,#262,.T.);
#358=ORIENTED_EDGE('',*,*,#259,.T.);
#359=ORIENTED_EDGE('',*,*,#261,.T.);
#360=ORIENTED_EDGE('',*,*,#257,.F.);
#361=ORIENTED_EDGE('',*,*,#248,.T.);
#362=ORIENTED_EDGE('',*,*,#245,.T.);
#363=ORIENTED_EDGE('',*,*,#266,.F.);
#364=ORIENTED_EDGE('',*,*,#251,.T.);
#365=ORIENTED_EDGE('',*,*,#255,.T.);
#366=ORIENTED_EDGE('',*,*,#263,.T.);
#367=ORIENTED_EDGE('',*,*,#267,.T.);
#368=ORIENTED_EDGE('',*,*,#268,.T.);
#369=ORIENTED_EDGE('',*,*,#269,.T.);
#370=ORIENTED_EDGE('',*,*,#264,.T.);
#371=ORIENTED_EDGE('',*,*,#265,.T.);
#372=ORIENTED_EDGE('',*,*,#269,.F.);
#373=ORIENTED_EDGE('',*,*,#268,.F.);
#374=ORIENTED_EDGE('',*,*,#241,.F.);
#375=ORIENTED_EDGE('',*,*,#270,.T.);
#376=ORIENTED_EDGE('',*,*,#271,.T.);
#377=ORIENTED_EDGE('',*,*,#272,.T.);
#378=ORIENTED_EDGE('',*,*,#271,.F.);
#379=ORIENTED_EDGE('',*,*,#272,.F.);
#380=ORIENTED_EDGE('',*,*,#256,.F.);
#381=ORIENTED_EDGE('',*,*,#273,.T.);
#382=ORIENTED_EDGE('',*,*,#270,.F.);
#383=ORIENTED_EDGE('',*,*,#273,.F.);
#384=ORIENTED_EDGE('',*,*,#242,.F.);
#385=ORIENTED_EDGE('',*,*,#243,.F.);
#386=ORIENTED_EDGE('',*,*,#274,.T.);
#387=ORIENTED_EDGE('',*,*,#244,.F.);
#388=ORIENTED_EDGE('',*,*,#274,.F.);
#389=CYLINDRICAL_SURFACE('',#436,0.45);
#390=CYLINDRICAL_SURFACE('',#446,0.75);
#391=CYLINDRICAL_SURFACE('',#454,1.5);
#392=CYLINDRICAL_SURFACE('',#470,3.);
#393=CYLINDRICAL_SURFACE('',#482,1.4635);
#394=CYLINDRICAL_SURFACE('',#483,0.75);
#395=ADVANCED_FACE('',(#57),#389,.F.);
#396=ADVANCED_FACE('',(#58),#45,.F.);
#397=ADVANCED_FACE('',(#59),#46,.T.);
#398=ADVANCED_FACE('',(#60),#47,.F.);
#399=ADVANCED_FACE('',(#61),#30,.T.);
#400=ADVANCED_FACE('',(#62),#390,.T.);
#401=ADVANCED_FACE('',(#63),#31,.T.);
#402=ADVANCED_FACE('',(#64),#48,.T.);
#403=ADVANCED_FACE('',(#65),#32,.T.);
#404=ADVANCED_FACE('',(#66,#15,#16),#391,.T.);
#405=ADVANCED_FACE('',(#67),#49,.T.);
#406=ADVANCED_FACE('',(#68),#50,.F.);
#407=ADVANCED_FACE('',(#69),#51,.F.);
#408=ADVANCED_FACE('',(#70,#17),#52,.T.);
#409=ADVANCED_FACE('',(#71),#33,.T.);
#410=ADVANCED_FACE('',(#72),#53,.F.);
#411=ADVANCED_FACE('',(#73),#54,.F.);
#412=ADVANCED_FACE('',(#74),#392,.T.);
#413=ADVANCED_FACE('',(#75),#34,.T.);
#414=ADVANCED_FACE('',(#76),#35,.T.);
#415=ADVANCED_FACE('',(#77,#18),#55,.T.);
#416=ADVANCED_FACE('',(#78),#36,.T.);
#417=ADVANCED_FACE('',(#79),#56,.T.);
#418=ADVANCED_FACE('',(#80),#393,.T.);
#419=ADVANCED_FACE('',(#81),#394,.F.);
#420=CLOSED_SHELL('',(#395,#396,#397,#398,#399,#400,#401,#402));
#421=CLOSED_SHELL('',(#403,#404,#405,#406,#407,#408,#409,#410,#411,#412,
#413,#414,#415,#416,#417,#418,#419));
#422=DERIVED_UNIT_ELEMENT(#424,1.);
#423=DERIVED_UNIT_ELEMENT(#823,-3.);
#424=(
MASS_UNIT()
NAMED_UNIT(*)
SI_UNIT(.KILO.,.GRAM.)
);
#425=DERIVED_UNIT((#422,#423));
#426=MEASURE_REPRESENTATION_ITEM('density measure',
POSITIVE_RATIO_MEASURE(1000.),#425);
#427=PROPERTY_DEFINITION_REPRESENTATION(#432,#429);
#428=PROPERTY_DEFINITION_REPRESENTATION(#433,#430);
#429=REPRESENTATION('material name',(#431),#820);
#430=REPRESENTATION('density',(#426),#820);
#431=DESCRIPTIVE_REPRESENTATION_ITEM('Generic','Generic');
#432=PROPERTY_DEFINITION('material property','material name',#835);
#433=PROPERTY_DEFINITION('material property','density of part',#835);
#434=AXIS2_PLACEMENT_3D('',#610,#485,#486);
#435=AXIS2_PLACEMENT_3D('',#611,#487,#488);
#436=AXIS2_PLACEMENT_3D('',#612,#489,#490);
#437=AXIS2_PLACEMENT_3D('',#617,#492,#493);
#438=AXIS2_PLACEMENT_3D('',#620,#495,#496);
#439=AXIS2_PLACEMENT_3D('',#621,#497,#498);
#440=AXIS2_PLACEMENT_3D('',#635,#502,#503);
#441=AXIS2_PLACEMENT_3D('',#638,#505,#506);
#442=AXIS2_PLACEMENT_3D('',#639,#507,#508);
#443=AXIS2_PLACEMENT_3D('',#651,#511,#512);
#444=AXIS2_PLACEMENT_3D('',#652,#513,#514);
#445=AXIS2_PLACEMENT_3D('',#653,#515,#516);
#446=AXIS2_PLACEMENT_3D('',#654,#517,#518);
#447=AXIS2_PLACEMENT_3D('',#655,#519,#520);
#448=AXIS2_PLACEMENT_3D('',#656,#521,#522);
#449=AXIS2_PLACEMENT_3D('',#657,#523,#524);
#450=AXIS2_PLACEMENT_3D('',#658,#525,#526);
#451=AXIS2_PLACEMENT_3D('',#660,#527,#528);
#452=AXIS2_PLACEMENT_3D('',#664,#530,#531);
#453=AXIS2_PLACEMENT_3D('',#665,#532,#533);
#454=AXIS2_PLACEMENT_3D('',#666,#534,#535);
#455=AXIS2_PLACEMENT_3D('',#669,#537,#538);
#456=AXIS2_PLACEMENT_3D('',#743,#539,#540);
#457=AXIS2_PLACEMENT_3D('',#744,#541,#542);
#458=AXIS2_PLACEMENT_3D('',#747,#543,#544);
#459=AXIS2_PLACEMENT_3D('',#750,#546,#547);
#460=AXIS2_PLACEMENT_3D('',#751,#548,#549);
#461=AXIS2_PLACEMENT_3D('',#765,#553,#554);
#462=AXIS2_PLACEMENT_3D('',#767,#555,#556);
#463=AXIS2_PLACEMENT_3D('',#770,#558,#559);
#464=AXIS2_PLACEMENT_3D('',#772,#560,#561);
#465=AXIS2_PLACEMENT_3D('',#773,#562,#563);
#466=AXIS2_PLACEMENT_3D('',#775,#564,#565);
#467=AXIS2_PLACEMENT_3D('',#779,#566,#567);
#468=AXIS2_PLACEMENT_3D('',#782,#568,#569);
#469=AXIS2_PLACEMENT_3D('',#784,#571,#572);
#470=AXIS2_PLACEMENT_3D('',#791,#575,#576);
#471=AXIS2_PLACEMENT_3D('',#794,#577,#578);
#472=AXIS2_PLACEMENT_3D('',#795,#579,#580);
#473=AXIS2_PLACEMENT_3D('',#797,#582,#583);
#474=AXIS2_PLACEMENT_3D('',#798,#584,#585);
#475=AXIS2_PLACEMENT_3D('',#799,#586,#587);
#476=AXIS2_PLACEMENT_3D('',#801,#588,#589);
#477=AXIS2_PLACEMENT_3D('',#803,#591,#592);
#478=AXIS2_PLACEMENT_3D('',#804,#593,#594);
#479=AXIS2_PLACEMENT_3D('',#806,#595,#596);
#480=AXIS2_PLACEMENT_3D('',#809,#598,#599);
#481=AXIS2_PLACEMENT_3D('',#810,#600,#601);
#482=AXIS2_PLACEMENT_3D('',#811,#602,#603);
#483=AXIS2_PLACEMENT_3D('',#813,#605,#606);
#484=AXIS2_PLACEMENT_3D('',#815,#608,#609);
#485=DIRECTION('axis',(0.,0.,1.));
#486=DIRECTION('refdir',(1.,0.,0.));
#487=DIRECTION('axis',(0.,0.,1.));
#488=DIRECTION('refdir',(1.,0.,0.));
#489=DIRECTION('center_axis',(6.12303176911189E-17,0.,1.));
#490=DIRECTION('ref_axis',(1.,0.,-6.12303176911189E-17));
#491=DIRECTION('',(-6.12303176911189E-17,0.,-1.));
#492=DIRECTION('center_axis',(-6.12303176911189E-17,0.,-1.));
#493=DIRECTION('ref_axis',(1.,0.,-6.12303176911189E-17));
#494=DIRECTION('',(6.12303176911189E-17,0.,1.));
#495=DIRECTION('center_axis',(6.12303176911189E-17,0.,1.));
#496=DIRECTION('ref_axis',(1.,0.,-6.12303176911189E-17));
#497=DIRECTION('center_axis',(0.,-1.,0.));
#498=DIRECTION('ref_axis',(1.,0.,-1.22460635382238E-16));
#499=DIRECTION('',(1.,0.,-6.12303176911189E-17));
#500=DIRECTION('',(-6.12303176911189E-17,0.,-1.));
#501=DIRECTION('',(-1.,0.,6.12303176911189E-17));
#502=DIRECTION('center_axis',(-6.12303176911189E-17,0.,-1.));
#503=DIRECTION('ref_axis',(0.,-1.,0.));
#504=DIRECTION('',(-1.,0.,6.12303176911189E-17));
#505=DIRECTION('center_axis',(6.12303176911189E-17,0.,1.));
#506=DIRECTION('ref_axis',(0.,1.,0.));
#507=DIRECTION('center_axis',(0.,1.,0.));
#508=DIRECTION('ref_axis',(-1.,0.,1.22460635382238E-16));
#509=DIRECTION('',(1.,0.,-6.12303176911189E-17));
#510=DIRECTION('',(6.12303176911189E-17,0.,1.));
#511=DIRECTION('center_axis',(-6.12303176911189E-17,0.,-1.));
#512=DIRECTION('ref_axis',(1.,-1.83697019872103E-16,-6.12303176911189E-17));
#513=DIRECTION('center_axis',(6.12303176911189E-17,0.,1.));
#514=DIRECTION('ref_axis',(0.,1.,0.));
#515=DIRECTION('center_axis',(6.12303176911189E-17,0.,1.));
#516=DIRECTION('ref_axis',(0.,1.,0.));
#517=DIRECTION('center_axis',(6.12303176911189E-17,0.,1.));
#518=DIRECTION('ref_axis',(1.,-1.83697019872103E-16,-6.12303176911189E-17));
#519=DIRECTION('center_axis',(6.12303176911189E-17,0.,1.));
#520=DIRECTION('ref_axis',(0.,1.,0.));
#521=DIRECTION('center_axis',(6.12303176911189E-17,0.,1.));
#522=DIRECTION('ref_axis',(1.,-1.83697019872103E-16,-6.12303176911189E-17));
#523=DIRECTION('center_axis',(6.12303176911189E-17,0.,1.));
#524=DIRECTION('ref_axis',(0.,1.,0.));
#525=DIRECTION('center_axis',(0.,0.,-1.));
#526=DIRECTION('ref_axis',(-1.,0.,0.));
#527=DIRECTION('center_axis',(0.,0.,-1.));
#528=DIRECTION('ref_axis',(-1.,0.,0.));
#529=DIRECTION('',(0.707106781186549,8.65956056235495E-17,-0.707106781186546));
#530=DIRECTION('center_axis',(0.,0.,1.));
#531=DIRECTION('ref_axis',(-1.,0.,0.));
#532=DIRECTION('center_axis',(0.,0.,1.));
#533=DIRECTION('ref_axis',(-1.,0.,0.));
#534=DIRECTION('center_axis',(0.,0.,1.));
#535=DIRECTION('ref_axis',(1.,0.,0.));
#536=DIRECTION('',(0.,0.,-1.));
#537=DIRECTION('center_axis',(0.,0.,1.));
#538=DIRECTION('ref_axis',(1.,0.,0.));
#539=DIRECTION('center_axis',(0.,0.,1.));
#540=DIRECTION('ref_axis',(1.,0.,0.));
#541=DIRECTION('center_axis',(0.,0.,1.));
#542=DIRECTION('ref_axis',(1.,0.,0.));
#543=DIRECTION('center_axis',(0.,0.,1.));
#544=DIRECTION('ref_axis',(1.,0.,0.));
#545=DIRECTION('',(0.,-1.,0.));
#546=DIRECTION('center_axis',(0.,0.,1.));
#547=DIRECTION('ref_axis',(1.,0.,0.));
#548=DIRECTION('center_axis',(1.,0.,5.55111512312578E-17));
#549=DIRECTION('ref_axis',(5.55111512312578E-17,0.,-1.));
#550=DIRECTION('',(0.,0.,1.));
#551=DIRECTION('',(0.,1.,0.));
#552=DIRECTION('',(0.,0.,-1.));
#553=DIRECTION('center_axis',(0.,0.,-1.));
#554=DIRECTION('ref_axis',(-1.,0.,0.));
#555=DIRECTION('center_axis',(0.,0.,1.));
#556=DIRECTION('ref_axis',(-1.,0.,0.));
#557=DIRECTION('',(0.,-1.,0.));
#558=DIRECTION('center_axis',(0.,0.,1.));
#559=DIRECTION('ref_axis',(-1.,0.,0.));
#560=DIRECTION('center_axis',(0.,0.,1.));
#561=DIRECTION('ref_axis',(1.,0.,0.));
#562=DIRECTION('center_axis',(0.,0.,1.));
#563=DIRECTION('ref_axis',(-1.,0.,0.));
#564=DIRECTION('center_axis',(0.,0.,-1.));
#565=DIRECTION('ref_axis',(-1.,0.,0.));
#566=DIRECTION('center_axis',(0.,0.,1.));
#567=DIRECTION('ref_axis',(1.,0.,0.));
#568=DIRECTION('center_axis',(0.,0.,1.));
#569=DIRECTION('ref_axis',(1.,0.,0.));
#570=DIRECTION('',(0.,1.,0.));
#571=DIRECTION('center_axis',(-1.,0.,5.55111512312578E-17));
#572=DIRECTION('ref_axis',(5.55111512312578E-17,0.,1.));
#573=DIRECTION('',(0.,0.,-1.));
#574=DIRECTION('',(0.,0.,1.));
#575=DIRECTION('center_axis',(0.,0.,1.));
#576=DIRECTION('ref_axis',(1.,0.,0.));
#577=DIRECTION('center_axis',(0.,0.,1.));
#578=DIRECTION('ref_axis',(-1.,0.,0.));
#579=DIRECTION('center_axis',(0.,0.,1.));
#580=DIRECTION('ref_axis',(-1.,0.,0.));
#581=DIRECTION('',(0.,0.,-1.));
#582=DIRECTION('center_axis',(0.,0.,-1.));
#583=DIRECTION('ref_axis',(-1.,0.,0.));
#584=DIRECTION('center_axis',(0.,0.,1.));
#585=DIRECTION('ref_axis',(-1.,0.,0.));
#586=DIRECTION('center_axis',(0.,0.,-1.));
#587=DIRECTION('ref_axis',(-1.,0.,0.));
#588=DIRECTION('center_axis',(0.,0.,-1.));
#589=DIRECTION('ref_axis',(-1.,0.,0.));
#590=DIRECTION('',(0.707106781186547,8.65956056235493E-17,-0.707106781186548));
#591=DIRECTION('center_axis',(0.,0.,1.));
#592=DIRECTION('ref_axis',(1.,0.,0.));
#593=DIRECTION('center_axis',(0.,0.,1.));
#594=DIRECTION('ref_axis',(1.,0.,0.));
#595=DIRECTION('center_axis',(0.,0.,-1.));
#596=DIRECTION('ref_axis',(1.,0.,0.));
#597=DIRECTION('',(0.707106781186548,8.65956056235493E-17,-0.707106781186547));
#598=DIRECTION('center_axis',(0.,0.,1.));
#599=DIRECTION('ref_axis',(1.,0.,0.));
#600=DIRECTION('center_axis',(0.,0.,-1.));
#601=DIRECTION('ref_axis',(-1.,0.,0.));
#602=DIRECTION('center_axis',(0.,0.,1.));
#603=DIRECTION('ref_axis',(1.,0.,0.));
#604=DIRECTION('',(0.,0.,-1.));
#605=DIRECTION('center_axis',(0.,1.,0.));
#606=DIRECTION('ref_axis',(1.,0.,0.));
#607=DIRECTION('',(0.,1.,0.));
#608=DIRECTION('',(-6.12303176911189E-17,-1.,0.));
#609=DIRECTION('',(1.,-6.12303176911189E-17,0.));
#610=CARTESIAN_POINT('',(0.,0.,0.));
#611=CARTESIAN_POINT('',(0.,0.,0.));
#612=CARTESIAN_POINT('Origin',(1.83690953073357E-16,0.,3.));
#613=CARTESIAN_POINT('',(-0.432290411644764,-0.125,6.));
#614=CARTESIAN_POINT('',(-0.432290411644765,-0.125,2.64692792398335E-17));
#615=CARTESIAN_POINT('',(-0.432290411644765,-0.125,3.));
#616=CARTESIAN_POINT('',(-0.432290411644764,0.125,6.));
#617=CARTESIAN_POINT('Origin',(3.67381906146713E-16,0.,6.));
#618=CARTESIAN_POINT('',(-0.432290411644765,0.125,2.64692792398335E-17));
#619=CARTESIAN_POINT('',(-0.432290411644765,0.125,3.));
#620=CARTESIAN_POINT('Origin',(0.,0.,0.));
#621=CARTESIAN_POINT('Origin',(-0.45,-0.125,5.5107285922007E-17));
#622=CARTESIAN_POINT('',(-0.673798608056065,-0.125,4.12569028311066E-17));
#623=CARTESIAN_POINT('',(-0.225,-0.125,2.75536429610035E-17));
#624=CARTESIAN_POINT('',(-0.739509972887452,-0.125,0.25));
#625=CARTESIAN_POINT('Ctrl Pts',(-0.739509972887452,-0.125,0.25));
#626=CARTESIAN_POINT('Ctrl Pts',(-0.705173118497185,-0.125,0.119188161949819));
#627=CARTESIAN_POINT('Ctrl Pts',(-0.673798608056065,-0.125,5.5134690638921E-17));
#628=CARTESIAN_POINT('',(-0.739509972887452,-0.125,5.75));
#629=CARTESIAN_POINT('',(-0.739509972887452,-0.125,3.));
#630=CARTESIAN_POINT('',(-0.673798608056065,-0.125,6.));
#631=CARTESIAN_POINT('Ctrl Pts',(-0.673798608056065,-0.125,6.));
#632=CARTESIAN_POINT('Ctrl Pts',(-0.705173118497185,-0.125,5.88081183805018));
#633=CARTESIAN_POINT('Ctrl Pts',(-0.739509972887452,-0.125,5.75));
#634=CARTESIAN_POINT('',(-0.225,-0.125,6.));
#635=CARTESIAN_POINT('Origin',(0.,0.342647619362185,0.));
#636=CARTESIAN_POINT('',(-0.673798608056065,0.125,4.12569028311066E-17));
#637=CARTESIAN_POINT('',(-0.225,0.125,2.75536429610035E-17));
#638=CARTESIAN_POINT('Origin',(0.,0.,0.));
#639=CARTESIAN_POINT('Origin',(-0.45,0.125,5.5107285922007E-17));
#640=CARTESIAN_POINT('',(-0.673798608056065,0.125,6.));
#641=CARTESIAN_POINT('',(-0.225,0.125,6.));
#642=CARTESIAN_POINT('',(-0.739509972887452,0.125,5.75));
#643=CARTESIAN_POINT('Ctrl Pts',(-0.739509972887452,0.125,5.75));
#644=CARTESIAN_POINT('Ctrl Pts',(-0.705173118497185,0.125,5.88081183805018));
#645=CARTESIAN_POINT('Ctrl Pts',(-0.673798608056065,0.125,6.));
#646=CARTESIAN_POINT('',(-0.739509972887452,0.125,0.25));
#647=CARTESIAN_POINT('',(-0.739509972887452,0.125,3.));
#648=CARTESIAN_POINT('Ctrl Pts',(-0.673798608056065,0.125,5.5134690638921E-17));
#649=CARTESIAN_POINT('Ctrl Pts',(-0.705173118497185,0.125,0.119188161949819));
#650=CARTESIAN_POINT('Ctrl Pts',(-0.739509972887452,0.125,0.25));
#651=CARTESIAN_POINT('Origin',(3.59728116435323E-16,0.,5.875));
#652=CARTESIAN_POINT('Origin',(3.52074326723934E-16,0.,5.75));
#653=CARTESIAN_POINT('Origin',(3.67381906146713E-16,0.,6.));
#654=CARTESIAN_POINT('Origin',(1.83690953073357E-16,0.,3.));
#655=CARTESIAN_POINT('Origin',(1.53075794227797E-17,0.,0.25));
#656=CARTESIAN_POINT('Origin',(7.65378971138986E-18,0.,0.125));
#657=CARTESIAN_POINT('Origin',(3.67381906146713E-16,0.342647619362185,6.));
#658=CARTESIAN_POINT('Origin',(-3.64147312843672E-16,0.,57.));
#659=CARTESIAN_POINT('',(0.5,-6.12323399573677E-17,57.5));
#660=CARTESIAN_POINT('Origin',(-3.64147312843672E-16,0.,57.5));
#661=CARTESIAN_POINT('',(1.5,1.83697019872103E-16,56.5));
#662=CARTESIAN_POINT('',(1.,1.22464679914735E-16,57.));
#663=CARTESIAN_POINT('',(-1.5,-1.83697019872103E-16,56.5));
#664=CARTESIAN_POINT('Origin',(-3.64147312843672E-16,0.,56.5));
#665=CARTESIAN_POINT('Origin',(-3.64147312843672E-16,0.,56.5));
#666=CARTESIAN_POINT('Origin',(-3.64147312843672E-16,0.,49.5));
#667=CARTESIAN_POINT('',(-1.5,-1.83697019872103E-16,41.5));
#668=CARTESIAN_POINT('',(-1.5,-1.83697019872103E-16,49.5));
#669=CARTESIAN_POINT('Origin',(-3.64147312843672E-16,0.,41.5));
#670=CARTESIAN_POINT('',(0.75,-1.29903810567666,51.5));
#671=CARTESIAN_POINT('',(-0.75,-1.29903810567666,51.5));
#672=CARTESIAN_POINT('Ctrl Pts',(0.75,-1.29903810567666,51.5));
#673=CARTESIAN_POINT('Ctrl Pts',(0.75,-1.29903810567666,51.4037711997796));
#674=CARTESIAN_POINT('Ctrl Pts',(0.730414188357567,-1.3108690769647,51.3026460490525));
#675=CARTESIAN_POINT('Ctrl Pts',(0.653421532302168,-1.35089700934551,51.1185632303691));
#676=CARTESIAN_POINT('Ctrl Pts',(0.596066871098275,-1.37827535066163,51.0354066993185));
#677=CARTESIAN_POINT('Ctrl Pts',(0.464772502354697,-1.42789995755287,50.9041123305749));
#678=CARTESIAN_POINT('Ctrl Pts',(0.381555568585774,-1.45369863077961,50.8466261900566));
#679=CARTESIAN_POINT('Ctrl Pts',(0.197208806616635,-1.48994397626299,50.7695270705982));
#680=CARTESIAN_POINT('Ctrl Pts',(0.0959664758315169,-1.5,50.75));
#681=CARTESIAN_POINT('Ctrl Pts',(-0.0959664758315165,-1.5,50.75));
#682=CARTESIAN_POINT('Ctrl Pts',(-0.197208806616635,-1.48994397626299,50.7695270705982));
#683=CARTESIAN_POINT('Ctrl Pts',(-0.381555568585777,-1.45369863077961,50.8466261900566));
#684=CARTESIAN_POINT('Ctrl Pts',(-0.464772502354696,-1.42789995755287,50.9041123305749));
#685=CARTESIAN_POINT('Ctrl Pts',(-0.596066871098275,-1.37827535066163,51.0354066993185));
#686=CARTESIAN_POINT('Ctrl Pts',(-0.653421532302168,-1.35089700934551,51.1185632303691));
#687=CARTESIAN_POINT('Ctrl Pts',(-0.730414188357567,-1.3108690769647,51.3026460490525));
#688=CARTESIAN_POINT('Ctrl Pts',(-0.75,-1.29903810567666,51.4037711997796));
#689=CARTESIAN_POINT('Ctrl Pts',(-0.75,-1.29903810567666,51.5));
#690=CARTESIAN_POINT('Ctrl Pts',(-0.75,-1.29903810567666,51.5));
#691=CARTESIAN_POINT('Ctrl Pts',(-0.75,-1.29903810567666,51.5962288002204));
#692=CARTESIAN_POINT('Ctrl Pts',(-0.730414188357567,-1.3108690769647,51.6973539509475));
#693=CARTESIAN_POINT('Ctrl Pts',(-0.653421532302168,-1.35089700934551,51.8814367696309));
#694=CARTESIAN_POINT('Ctrl Pts',(-0.596066871098275,-1.37827535066163,51.9645933006815));
#695=CARTESIAN_POINT('Ctrl Pts',(-0.464772502354697,-1.42789995755287,52.0958876694251));
#696=CARTESIAN_POINT('Ctrl Pts',(-0.381555568585783,-1.45369863077961,52.1533738099434));
#697=CARTESIAN_POINT('Ctrl Pts',(-0.197208806616646,-1.48994397626299,52.2304729294019));
#698=CARTESIAN_POINT('Ctrl Pts',(-0.095966475831517,-1.5,52.25));
#699=CARTESIAN_POINT('Ctrl Pts',(0.0959664758315166,-1.5,52.25));
#700=CARTESIAN_POINT('Ctrl Pts',(0.19720880661664,-1.48994397626299,52.2304729294018));
#701=CARTESIAN_POINT('Ctrl Pts',(0.381555568585778,-1.45369863077961,52.1533738099434));
#702=CARTESIAN_POINT('Ctrl Pts',(0.464772502354696,-1.42789995755287,52.0958876694251));
#703=CARTESIAN_POINT('Ctrl Pts',(0.596066871098275,-1.37827535066163,51.9645933006815));
#704=CARTESIAN_POINT('Ctrl Pts',(0.653421532302168,-1.35089700934551,51.8814367696309));
#705=CARTESIAN_POINT('Ctrl Pts',(0.730414188357567,-1.3108690769647,51.6973539509475));
#706=CARTESIAN_POINT('Ctrl Pts',(0.75,-1.29903810567666,51.5962288002204));
#707=CARTESIAN_POINT('Ctrl Pts',(0.75,-1.29903810567666,51.5));
#708=CARTESIAN_POINT('',(-0.75,1.29903810567666,51.5));
#709=CARTESIAN_POINT('Ctrl Pts',(-0.75,1.29903810567666,51.5));
#710=CARTESIAN_POINT('Ctrl Pts',(-0.75,1.29903810567666,51.4037711997796));
#711=CARTESIAN_POINT('Ctrl Pts',(-0.730414188357567,1.3108690769647,51.3026460490525));
#712=CARTESIAN_POINT('Ctrl Pts',(-0.653421532302168,1.35089700934551,51.1185632303691));
#713=CARTESIAN_POINT('Ctrl Pts',(-0.596066871098275,1.37827535066163,51.0354066993185));
#714=CARTESIAN_POINT('Ctrl Pts',(-0.464772502354697,1.42789995755287,50.9041123305749));
#715=CARTESIAN_POINT('Ctrl Pts',(-0.381555568585778,1.45369863077961,50.8466261900566));
#716=CARTESIAN_POINT('Ctrl Pts',(-0.19720880661664,1.48994397626299,50.7695270705982));
#717=CARTESIAN_POINT('Ctrl Pts',(-0.0959664758315166,1.5,50.75));
#718=CARTESIAN_POINT('Ctrl Pts',(0.0959664758315169,1.5,50.75));
#719=CARTESIAN_POINT('Ctrl Pts',(0.197208806616641,1.48994397626299,50.7695270705982));
#720=CARTESIAN_POINT('Ctrl Pts',(0.381555568585778,1.45369863077961,50.8466261900566));
#721=CARTESIAN_POINT('Ctrl Pts',(0.464772502354697,1.42789995755287,50.9041123305749));
#722=CARTESIAN_POINT('Ctrl Pts',(0.596066871098275,1.37827535066163,51.0354066993185));
#723=CARTESIAN_POINT('Ctrl Pts',(0.653421532302168,1.35089700934551,51.1185632303691));
#724=CARTESIAN_POINT('Ctrl Pts',(0.730414188357567,1.3108690769647,51.3026460490525));
#725=CARTESIAN_POINT('Ctrl Pts',(0.75,1.29903810567666,51.4037711997796));
#726=CARTESIAN_POINT('Ctrl Pts',(0.75,1.29903810567666,51.5962288002204));
#727=CARTESIAN_POINT('Ctrl Pts',(0.730414188357567,1.3108690769647,51.6973539509475));
#728=CARTESIAN_POINT('Ctrl Pts',(0.653421532302168,1.35089700934551,51.8814367696309));
#729=CARTESIAN_POINT('Ctrl Pts',(0.596066871098275,1.37827535066163,51.9645933006815));
#730=CARTESIAN_POINT('Ctrl Pts',(0.464772502354696,1.42789995755287,52.0958876694251));
#731=CARTESIAN_POINT('Ctrl Pts',(0.381555568585785,1.45369863077961,52.1533738099434));
#732=CARTESIAN_POINT('Ctrl Pts',(0.197208806616648,1.48994397626299,52.2304729294019));
#733=CARTESIAN_POINT('Ctrl Pts',(0.0959664758315165,1.5,52.25));
#734=CARTESIAN_POINT('Ctrl Pts',(-0.0959664758315169,1.5,52.25));
#735=CARTESIAN_POINT('Ctrl Pts',(-0.197208806616646,1.48994397626299,52.2304729294019));
#736=CARTESIAN_POINT('Ctrl Pts',(-0.381555568585783,1.45369863077961,52.1533738099434));
#737=CARTESIAN_POINT('Ctrl Pts',(-0.464772502354697,1.42789995755287,52.0958876694251));
#738=CARTESIAN_POINT('Ctrl Pts',(-0.596066871098275,1.37827535066163,51.9645933006815));
#739=CARTESIAN_POINT('Ctrl Pts',(-0.653421532302168,1.35089700934551,51.8814367696309));
#740=CARTESIAN_POINT('Ctrl Pts',(-0.730414188357567,1.3108690769647,51.6973539509475));
#741=CARTESIAN_POINT('Ctrl Pts',(-0.75,1.29903810567666,51.5962288002204));
#742=CARTESIAN_POINT('Ctrl Pts',(-0.75,1.29903810567666,51.5));
#743=CARTESIAN_POINT('Origin',(-8.32667268468867E-16,0.,57.5));
#744=CARTESIAN_POINT('Origin',(-3.,0.,12.5));
#745=CARTESIAN_POINT('',(-2.,2.23606797749979,12.5));
#746=CARTESIAN_POINT('',(-3.,-3.67394039744206E-16,12.5));
#747=CARTESIAN_POINT('Origin',(-3.64147312843672E-16,0.,12.5));
#748=CARTESIAN_POINT('',(-2.,-2.23606797749979,12.5));
#749=CARTESIAN_POINT('',(-2.,0.,12.5));
#750=CARTESIAN_POINT('Origin',(-3.64147312843672E-16,0.,12.5));
#751=CARTESIAN_POINT('Origin',(-2.,0.,12.5));
#752=CARTESIAN_POINT('',(-2.,2.23606797749979,8.));
#753=CARTESIAN_POINT('',(-2.,2.23606797749979,24.5));
#754=CARTESIAN_POINT('',(-2.,1.5,7.5));
#755=CARTESIAN_POINT('Ctrl Pts',(-2.,1.5,7.5));
#756=CARTESIAN_POINT('Ctrl Pts',(-2.,1.83457635340898,7.70074581204539));
#757=CARTESIAN_POINT('Ctrl Pts',(-2.,2.23606797749979,8.));
#758=CARTESIAN_POINT('',(-2.,-1.5,7.5));
#759=CARTESIAN_POINT('',(-2.,0.,7.5));
#760=CARTESIAN_POINT('',(-2.,-2.23606797749979,8.));
#761=CARTESIAN_POINT('Ctrl Pts',(-2.,-2.23606797749979,8.));
#762=CARTESIAN_POINT('Ctrl Pts',(-2.,-1.83457635340898,7.70074581204539));
#763=CARTESIAN_POINT('Ctrl Pts',(-2.,-1.5,7.5));
#764=CARTESIAN_POINT('',(-2.,-2.23606797749979,24.5));
#765=CARTESIAN_POINT('Origin',(3.,0.,7.5));
#766=CARTESIAN_POINT('',(2.,1.5,7.5));
#767=CARTESIAN_POINT('Origin',(-3.64147312843672E-16,0.,7.5));
#768=CARTESIAN_POINT('',(2.,-1.5,7.5));
#769=CARTESIAN_POINT('',(2.,0.,7.5));
#770=CARTESIAN_POINT('Origin',(-3.64147312843672E-16,0.,7.5));
#771=CARTESIAN_POINT('',(-1.4635,-1.79227059055215E-16,7.5));
#772=CARTESIAN_POINT('Origin',(-3.64147312843672E-16,0.,7.5));
#773=CARTESIAN_POINT('Origin',(-3.64147312843672E-16,0.,7.75));
#774=CARTESIAN_POINT('',(2.,2.23606797749979,8.));
#775=CARTESIAN_POINT('Origin',(-3.64147312843672E-16,0.,8.));
#776=CARTESIAN_POINT('Ctrl Pts',(2.,2.23606797749979,8.));
#777=CARTESIAN_POINT('Ctrl Pts',(2.,1.83457635340898,7.70074581204539));
#778=CARTESIAN_POINT('Ctrl Pts',(2.,1.5,7.5));
#779=CARTESIAN_POINT('Origin',(2.,0.,12.5));
#780=CARTESIAN_POINT('',(2.,-2.23606797749979,12.5));
#781=CARTESIAN_POINT('',(2.,2.23606797749979,12.5));
#782=CARTESIAN_POINT('Origin',(-3.64147312843672E-16,0.,12.5));
#783=CARTESIAN_POINT('',(2.,0.,12.5));
#784=CARTESIAN_POINT('Origin',(2.,0.,7.5));
#785=CARTESIAN_POINT('',(2.,2.23606797749979,24.5));
#786=CARTESIAN_POINT('',(2.,-2.23606797749979,8.));
#787=CARTESIAN_POINT('',(2.,-2.23606797749979,24.5));
#788=CARTESIAN_POINT('Ctrl Pts',(2.,-1.5,7.5));
#789=CARTESIAN_POINT('Ctrl Pts',(2.,-1.83457635340898,7.70074581204539));
#790=CARTESIAN_POINT('Ctrl Pts',(2.,-2.23606797749979,8.));
#791=CARTESIAN_POINT('Origin',(-3.64147312843672E-16,0.,24.5));
#792=CARTESIAN_POINT('',(3.,3.67394039744206E-16,41.));
#793=CARTESIAN_POINT('',(-3.,-3.67394039744206E-16,41.));
#794=CARTESIAN_POINT('Origin',(-3.64147312843672E-16,0.,41.));
#795=CARTESIAN_POINT('Origin',(-3.64147312843672E-16,0.,41.));
#796=CARTESIAN_POINT('',(-3.,-3.67394039744206E-16,24.5));
#797=CARTESIAN_POINT('Origin',(-3.64147312843672E-16,0.,8.));
#798=CARTESIAN_POINT('Origin',(-3.64147312843672E-16,0.,7.75));
#799=CARTESIAN_POINT('Origin',(-3.64147312843672E-16,0.,41.25));
#800=CARTESIAN_POINT('',(2.5,-3.06161699786839E-16,41.5));
#801=CARTESIAN_POINT('Origin',(-3.64147312843672E-16,0.,41.5));
#802=CARTESIAN_POINT('',(2.75,3.36777869765522E-16,41.25));
#803=CARTESIAN_POINT('Origin',(1.5,0.,41.5));
#804=CARTESIAN_POINT('Origin',(-3.64147312843672E-16,0.,0.25));
#805=CARTESIAN_POINT('',(-1.4635,1.79227059055215E-16,0.5));
#806=CARTESIAN_POINT('Origin',(-3.64147312843672E-16,0.,0.5));
#807=CARTESIAN_POINT('',(-0.9635,-1.17994719097847E-16,0.));
#808=CARTESIAN_POINT('',(-1.2135,-1.48610889076531E-16,0.25));
#809=CARTESIAN_POINT('Origin',(-3.64147312843672E-16,0.,0.));
#810=CARTESIAN_POINT('Origin',(1.5,0.,0.));
#811=CARTESIAN_POINT('Origin',(-3.64147312843672E-16,0.,3.75));
#812=CARTESIAN_POINT('',(-1.4635,-1.79227059055215E-16,3.75));
#813=CARTESIAN_POINT('Origin',(-3.99752651723795E-17,0.,51.5));
#814=CARTESIAN_POINT('',(-0.75,0.,51.5));
#815=CARTESIAN_POINT('',(-3.99752651723795E-17,3.,51.5));
#816=UNCERTAINTY_MEASURE_WITH_UNIT(LENGTH_MEASURE(0.01),#822,
'DISTANCE_ACCURACY_VALUE',
'Maximum model space distance between geometric entities at asserted c
onnectivities');
#817=UNCERTAINTY_MEASURE_WITH_UNIT(LENGTH_MEASURE(0.01),#822,
'DISTANCE_ACCURACY_VALUE',
'Maximum model space distance between geometric entities at asserted c
onnectivities');
#818=UNCERTAINTY_MEASURE_WITH_UNIT(LENGTH_MEASURE(0.01),#822,
'DISTANCE_ACCURACY_VALUE',
'Maximum model space distance between geometric entities at asserted c
onnectivities');
#819=(
GEOMETRIC_REPRESENTATION_CONTEXT(3)
GLOBAL_UNCERTAINTY_ASSIGNED_CONTEXT((#816))
GLOBAL_UNIT_ASSIGNED_CONTEXT((#822,#824,#825))
REPRESENTATION_CONTEXT('','3D')
);
#820=(
GEOMETRIC_REPRESENTATION_CONTEXT(3)
GLOBAL_UNCERTAINTY_ASSIGNED_CONTEXT((#817))
GLOBAL_UNIT_ASSIGNED_CONTEXT((#822,#824,#825))
REPRESENTATION_CONTEXT('','3D')
);
#821=(
GEOMETRIC_REPRESENTATION_CONTEXT(3)
GLOBAL_UNCERTAINTY_ASSIGNED_CONTEXT((#818))
GLOBAL_UNIT_ASSIGNED_CONTEXT((#822,#824,#825))
REPRESENTATION_CONTEXT('','3D')
);
#822=(
LENGTH_UNIT()
NAMED_UNIT(*)
SI_UNIT(.MILLI.,.METRE.)
);
#823=(
LENGTH_UNIT()
NAMED_UNIT(*)
SI_UNIT($,.METRE.)
);
#824=(
NAMED_UNIT(*)
PLANE_ANGLE_UNIT()
SI_UNIT($,.RADIAN.)
);
#825=(
NAMED_UNIT(*)
SI_UNIT($,.STERADIAN.)
SOLID_ANGLE_UNIT()
);
#826=SHAPE_DEFINITION_REPRESENTATION(#828,#831);
#827=SHAPE_DEFINITION_REPRESENTATION(#829,#832);
#828=PRODUCT_DEFINITION_SHAPE('',$,#834);
#829=PRODUCT_DEFINITION_SHAPE('',$,#835);
#830=PRODUCT_DEFINITION_SHAPE($,$,#14);
#831=SHAPE_REPRESENTATION('',(#434,#484),#819);
#832=SHAPE_REPRESENTATION('',(#435),#820);
#833=PRODUCT_DEFINITION_CONTEXT('part definition',#841,'design');
#834=PRODUCT_DEFINITION('LL endeffector','LL endeffector v8',#836,#833);
#835=PRODUCT_DEFINITION('1_5-6-1326554','1_5-6-1326554 v1',#837,#833);
#836=PRODUCT_DEFINITION_FORMATION('',$,#843);
#837=PRODUCT_DEFINITION_FORMATION('',$,#844);
#838=PRODUCT_RELATED_PRODUCT_CATEGORY('LL endeffector v8',
'LL endeffector v8',(#843));
#839=PRODUCT_RELATED_PRODUCT_CATEGORY('1_5-6-1326554 v1',
'1_5-6-1326554 v1',(#844));
#840=APPLICATION_PROTOCOL_DEFINITION('international standard',
'automotive_design',2009,#841);
#841=APPLICATION_CONTEXT(
'Core Data for Automotive Mechanical Design Process');
#842=PRODUCT_CONTEXT('part definition',#841,'mechanical');
#843=PRODUCT('LL endeffector','LL endeffector v8',$,(#842));
#844=PRODUCT('1_5-6-1326554','1_5-6-1326554 v1',$,(#842));
#845=PRESENTATION_STYLE_ASSIGNMENT((#847));
#846=PRESENTATION_STYLE_ASSIGNMENT((#848));
#847=SURFACE_STYLE_USAGE(.BOTH.,#849);
#848=SURFACE_STYLE_USAGE(.BOTH.,#850);
#849=SURFACE_SIDE_STYLE('',(#851));
#850=SURFACE_SIDE_STYLE('',(#852));
#851=SURFACE_STYLE_FILL_AREA(#853);
#852=SURFACE_STYLE_FILL_AREA(#854);
#853=FILL_AREA_STYLE('Stainless Steel - Satin',(#855));
#854=FILL_AREA_STYLE('Default',(#856));
#855=FILL_AREA_STYLE_COLOUR('Stainless Steel - Satin',#857);
#856=FILL_AREA_STYLE_COLOUR('Default',#858);
#857=COLOUR_RGB('Stainless Steel - Satin',0.796078431372549,0.796078431372549,
0.796078431372549);
#858=COLOUR_RGB('Default',0.749019607843137,0.749019607843137,0.749019607843137);
ENDSEC;
END-ISO-10303-21;
