ISO-10303-21;
HEADER;
/* Generated by software containing ST-Developer
 * from STEP Tools, Inc. (www.steptools.com) 
 */

FILE_DESCRIPTION(
/* description */ (''),
/* implementation_level */ '2;1');

FILE_NAME(
/* name */ 'step_37289 v1.step',
/* time_stamp */ '2024-06-17T13:50:34+02:00',
/* author */ (''),
/* organization */ (''),
/* preprocessor_version */ 'ST-DEVELOPER v20',
/* originating_system */ 'Autodesk Translation Framework v13.14.0.145',

/* authorisation */ '');

FILE_SCHEMA (('AUTOMOTIVE_DESIGN { 1 0 10303 214 3 1 1 }'));
ENDSEC;

DATA;
#10=MECHANICAL_DESIGN_GEOMETRIC_PRESENTATION_REPRESENTATION('',(#13),#479);
#11=SHAPE_REPRESENTATION_RELATIONSHIP('SRR','None',#486,#12);
#12=ADVANCED_BREP_SHAPE_REPRESENTATION('',(#14),#478);
#13=STYLED_ITEM('',(#495),#14);
#14=MANIFOLD_SOLID_BREP('Body1',#222);
#15=FACE_BOUND('',#93,.T.);
#16=FACE_BOUND('',#94,.T.);
#17=FACE_BOUND('',#95,.T.);
#18=FACE_BOUND('',#96,.T.);
#19=FACE_BOUND('',#101,.T.);
#20=FACE_BOUND('',#103,.T.);
#21=PLANE('',#258);
#22=PLANE('',#259);
#23=PLANE('',#260);
#24=PLANE('',#261);
#25=PLANE('',#262);
#26=CONICAL_SURFACE('',#242,0.595629999999996,1.02974425867665);
#27=CONICAL_SURFACE('',#249,0.595629999999996,1.02974425867665);
#28=LINE('',#378,#37);
#29=LINE('',#384,#38);
#30=LINE('',#388,#39);
#31=LINE('',#393,#40);
#32=LINE('',#399,#41);
#33=LINE('',#403,#42);
#34=LINE('',#408,#43);
#35=LINE('',#414,#44);
#36=LINE('',#420,#45);
#37=VECTOR('',#269,0.761999999999996);
#38=VECTOR('',#276,0.595629999999998);
#39=VECTOR('',#281,0.595629999999996);
#40=VECTOR('',#286,0.761999999999995);
#41=VECTOR('',#293,0.595629999999998);
#42=VECTOR('',#298,0.595629999999996);
#43=VECTOR('',#303,0.396874999999989);
#44=VECTOR('',#310,0.396874999999989);
#45=VECTOR('',#317,3.175);
#46=CIRCLE('',#237,0.761999999999996);
#47=CIRCLE('',#238,0.761999999999995);
#48=CIRCLE('',#240,0.595629999999996);
#49=CIRCLE('',#241,0.595629999999999);
#50=CIRCLE('',#244,0.761999999999996);
#51=CIRCLE('',#245,0.761999999999995);
#52=CIRCLE('',#247,0.595629999999996);
#53=CIRCLE('',#248,0.595629999999999);
#54=CIRCLE('',#251,0.396874999999988);
#55=CIRCLE('',#252,0.396874999999989);
#56=CIRCLE('',#254,0.396874999999988);
#57=CIRCLE('',#255,0.396874999999989);
#58=CIRCLE('',#257,3.175);
#59=CYLINDRICAL_SURFACE('',#236,0.761999999999996);
#60=CYLINDRICAL_SURFACE('',#239,0.595629999999998);
#61=CYLINDRICAL_SURFACE('',#243,0.761999999999995);
#62=CYLINDRICAL_SURFACE('',#246,0.595629999999998);
#63=CYLINDRICAL_SURFACE('',#250,0.396874999999989);
#64=CYLINDRICAL_SURFACE('',#253,0.396874999999989);
#65=CYLINDRICAL_SURFACE('',#256,3.175);
#66=FACE_OUTER_BOUND('',#82,.T.);
#67=FACE_OUTER_BOUND('',#83,.T.);
#68=FACE_OUTER_BOUND('',#84,.T.);
#69=FACE_OUTER_BOUND('',#85,.T.);
#70=FACE_OUTER_BOUND('',#86,.T.);
#71=FACE_OUTER_BOUND('',#87,.T.);
#72=FACE_OUTER_BOUND('',#88,.T.);
#73=FACE_OUTER_BOUND('',#89,.T.);
#74=FACE_OUTER_BOUND('',#90,.T.);
#75=FACE_OUTER_BOUND('',#91,.T.);
#76=FACE_OUTER_BOUND('',#92,.T.);
#77=FACE_OUTER_BOUND('',#97,.T.);
#78=FACE_OUTER_BOUND('',#98,.T.);
#79=FACE_OUTER_BOUND('',#99,.T.);
#80=FACE_OUTER_BOUND('',#100,.T.);
#81=FACE_OUTER_BOUND('',#102,.T.);
#82=EDGE_LOOP('',(#152,#153));
#83=EDGE_LOOP('',(#154,#155,#156,#157));
#84=EDGE_LOOP('',(#158,#159,#160,#161));
#85=EDGE_LOOP('',(#162,#163,#164));
#86=EDGE_LOOP('',(#165,#166,#167,#168));
#87=EDGE_LOOP('',(#169,#170,#171,#172));
#88=EDGE_LOOP('',(#173,#174,#175));
#89=EDGE_LOOP('',(#176,#177,#178,#179));
#90=EDGE_LOOP('',(#180,#181,#182,#183));
#91=EDGE_LOOP('',(#184,#185,#186,#187,#188,#189));
#92=EDGE_LOOP('',(#190));
#93=EDGE_LOOP('',(#191));
#94=EDGE_LOOP('',(#192));
#95=EDGE_LOOP('',(#193));
#96=EDGE_LOOP('',(#194));
#97=EDGE_LOOP('',(#195,#196,#197));
#98=EDGE_LOOP('',(#198));
#99=EDGE_LOOP('',(#199));
#100=EDGE_LOOP('',(#200));
#101=EDGE_LOOP('',(#201));
#102=EDGE_LOOP('',(#202));
#103=EDGE_LOOP('',(#203));
#104=B_SPLINE_CURVE_WITH_KNOTS('',3,(#343,#344,#345,#346,#347,#348,#349,
#350,#351,#352,#353,#354,#355,#356,#357,#358,#359,#360,#361,#362,#363,#364,
#365,#366,#367,#368,#369,#370),.UNSPECIFIED.,.F.,.F.,(4,2,2,2,2,2,2,2,2,
2,2,2,2,4),(-1.27803185201109,-1.20530256722242,-1.1300076420633,-0.978818172142611,
-0.791231833836114,-0.62241591378832,-0.514049777749242,-0.502946093384585,
-0.481239143339715,-0.398394548207475,-0.306700034826999,-0.173519513852374,
-0.0789887850171345,0.),.UNSPECIFIED.);
#105=B_SPLINE_CURVE_WITH_KNOTS('',2,(#371,#372,#373),.UNSPECIFIED.,.F.,
 .F.,(3,3),(0.498425049603954,0.499055029762372),.UNSPECIFIED.);
#106=B_SPLINE_CURVE_WITH_KNOTS('',3,(#421,#422,#423,#424,#425,#426,#427,
#428,#429,#430,#431,#432),.UNSPECIFIED.,.F.,.F.,(4,2,2,2,2,4),(-0.535149279874788,
-0.442753367313121,-0.275196876449693,-0.146283238849494,-0.0712813236317499,
0.),.UNSPECIFIED.);
#107=B_SPLINE_CURVE_WITH_KNOTS('',3,(#433,#434,#435,#436,#437,#438,#439,
#440,#441,#442,#443,#444,#445,#446,#447,#448,#449,#450,#451,#452,#453,#454,
#455,#456,#457,#458),.UNSPECIFIED.,.F.,.F.,(4,2,2,2,2,2,2,2,2,2,2,2,4),
(-1.00816933065838,-0.941901129852943,-0.857554085873517,-0.759203721160964,
-0.688934468942736,-0.623314908921115,-0.622799163408537,-0.622282714169006,
-0.62124642985311,-0.617039617785245,-0.598971480117266,-0.554562557110278,
-0.535149279874788),.UNSPECIFIED.);
#108=VERTEX_POINT('',#341);
#109=VERTEX_POINT('',#342);
#110=VERTEX_POINT('',#375);
#111=VERTEX_POINT('',#377);
#112=VERTEX_POINT('',#381);
#113=VERTEX_POINT('',#383);
#114=VERTEX_POINT('',#387);
#115=VERTEX_POINT('',#390);
#116=VERTEX_POINT('',#392);
#117=VERTEX_POINT('',#396);
#118=VERTEX_POINT('',#398);
#119=VERTEX_POINT('',#402);
#120=VERTEX_POINT('',#405);
#121=VERTEX_POINT('',#407);
#122=VERTEX_POINT('',#411);
#123=VERTEX_POINT('',#413);
#124=VERTEX_POINT('',#417);
#125=VERTEX_POINT('',#419);
#126=EDGE_CURVE('',#108,#109,#104,.F.);
#127=EDGE_CURVE('',#109,#108,#105,.T.);
#128=EDGE_CURVE('',#110,#110,#46,.T.);
#129=EDGE_CURVE('',#110,#111,#28,.T.);
#130=EDGE_CURVE('',#111,#111,#47,.T.);
#131=EDGE_CURVE('',#112,#112,#48,.T.);
#132=EDGE_CURVE('',#112,#113,#29,.T.);
#133=EDGE_CURVE('',#113,#113,#49,.T.);
#134=EDGE_CURVE('',#114,#112,#30,.T.);
#135=EDGE_CURVE('',#115,#115,#50,.T.);
#136=EDGE_CURVE('',#115,#116,#31,.T.);
#137=EDGE_CURVE('',#116,#116,#51,.T.);
#138=EDGE_CURVE('',#117,#117,#52,.T.);
#139=EDGE_CURVE('',#117,#118,#32,.T.);
#140=EDGE_CURVE('',#118,#118,#53,.T.);
#141=EDGE_CURVE('',#119,#117,#33,.T.);
#142=EDGE_CURVE('',#120,#120,#54,.T.);
#143=EDGE_CURVE('',#120,#121,#34,.T.);
#144=EDGE_CURVE('',#121,#121,#55,.T.);
#145=EDGE_CURVE('',#122,#122,#56,.T.);
#146=EDGE_CURVE('',#122,#123,#35,.T.);
#147=EDGE_CURVE('',#123,#123,#57,.T.);
#148=EDGE_CURVE('',#124,#124,#58,.T.);
#149=EDGE_CURVE('',#124,#125,#36,.T.);
#150=EDGE_CURVE('',#109,#125,#106,.F.);
#151=EDGE_CURVE('',#125,#108,#107,.F.);
#152=ORIENTED_EDGE('',*,*,#126,.T.);
#153=ORIENTED_EDGE('',*,*,#127,.T.);
#154=ORIENTED_EDGE('',*,*,#128,.F.);
#155=ORIENTED_EDGE('',*,*,#129,.T.);
#156=ORIENTED_EDGE('',*,*,#130,.T.);
#157=ORIENTED_EDGE('',*,*,#129,.F.);
#158=ORIENTED_EDGE('',*,*,#131,.F.);
#159=ORIENTED_EDGE('',*,*,#132,.T.);
#160=ORIENTED_EDGE('',*,*,#133,.T.);
#161=ORIENTED_EDGE('',*,*,#132,.F.);
#162=ORIENTED_EDGE('',*,*,#134,.T.);
#163=ORIENTED_EDGE('',*,*,#131,.T.);
#164=ORIENTED_EDGE('',*,*,#134,.F.);
#165=ORIENTED_EDGE('',*,*,#135,.F.);
#166=ORIENTED_EDGE('',*,*,#136,.T.);
#167=ORIENTED_EDGE('',*,*,#137,.T.);
#168=ORIENTED_EDGE('',*,*,#136,.F.);
#169=ORIENTED_EDGE('',*,*,#138,.F.);
#170=ORIENTED_EDGE('',*,*,#139,.T.);
#171=ORIENTED_EDGE('',*,*,#140,.T.);
#172=ORIENTED_EDGE('',*,*,#139,.F.);
#173=ORIENTED_EDGE('',*,*,#141,.T.);
#174=ORIENTED_EDGE('',*,*,#138,.T.);
#175=ORIENTED_EDGE('',*,*,#141,.F.);
#176=ORIENTED_EDGE('',*,*,#142,.F.);
#177=ORIENTED_EDGE('',*,*,#143,.T.);
#178=ORIENTED_EDGE('',*,*,#144,.T.);
#179=ORIENTED_EDGE('',*,*,#143,.F.);
#180=ORIENTED_EDGE('',*,*,#145,.F.);
#181=ORIENTED_EDGE('',*,*,#146,.T.);
#182=ORIENTED_EDGE('',*,*,#147,.T.);
#183=ORIENTED_EDGE('',*,*,#146,.F.);
#184=ORIENTED_EDGE('',*,*,#148,.T.);
#185=ORIENTED_EDGE('',*,*,#149,.T.);
#186=ORIENTED_EDGE('',*,*,#150,.F.);
#187=ORIENTED_EDGE('',*,*,#126,.F.);
#188=ORIENTED_EDGE('',*,*,#151,.F.);
#189=ORIENTED_EDGE('',*,*,#149,.F.);
#190=ORIENTED_EDGE('',*,*,#148,.F.);
#191=ORIENTED_EDGE('',*,*,#130,.F.);
#192=ORIENTED_EDGE('',*,*,#137,.F.);
#193=ORIENTED_EDGE('',*,*,#144,.F.);
#194=ORIENTED_EDGE('',*,*,#147,.F.);
#195=ORIENTED_EDGE('',*,*,#127,.F.);
#196=ORIENTED_EDGE('',*,*,#150,.T.);
#197=ORIENTED_EDGE('',*,*,#151,.T.);
#198=ORIENTED_EDGE('',*,*,#145,.T.);
#199=ORIENTED_EDGE('',*,*,#142,.T.);
#200=ORIENTED_EDGE('',*,*,#135,.T.);
#201=ORIENTED_EDGE('',*,*,#140,.F.);
#202=ORIENTED_EDGE('',*,*,#128,.T.);
#203=ORIENTED_EDGE('',*,*,#133,.F.);
#204=(
BOUNDED_SURFACE()
B_SPLINE_SURFACE(2,3,((#329,#330,#331,#332),(#333,#334,#335,#336),(#337,
#338,#339,#340)),.UNSPECIFIED.,.F.,.F.,.F.)
B_SPLINE_SURFACE_WITH_KNOTS((3,3),(4,4),(0.498421269723003,0.499058809643323),
(0.,1.),.UNSPECIFIED.)
GEOMETRIC_REPRESENTATION_ITEM()
RATIONAL_B_SPLINE_SURFACE(((1.,0.994322823825131,0.994322823825131,1.),
(1.,0.994322823825131,0.994322823825131,1.),(1.,0.994322823825131,0.994322823825131,
1.)))
REPRESENTATION_ITEM('')
SURFACE()
);
#205=(
BOUNDED_SURFACE()
B_SPLINE_SURFACE(2,3,((#460,#461,#462,#463),(#464,#465,#466,#467),(#468,
#469,#470,#471)),.UNSPECIFIED.,.F.,.F.,.F.)
B_SPLINE_SURFACE_WITH_KNOTS((3,3),(4,4),(0.498421269723003,0.499058809643323),
(0.,1.),.UNSPECIFIED.)
GEOMETRIC_REPRESENTATION_ITEM()
RATIONAL_B_SPLINE_SURFACE(((1.,0.994236862240924,0.994236862240924,1.),
(1.,0.994236862240924,0.994236862240924,1.),(1.,0.994236862240924,0.994236862240924,
1.)))
REPRESENTATION_ITEM('')
SURFACE()
);
#206=ADVANCED_FACE('',(#66),#204,.T.);
#207=ADVANCED_FACE('',(#67),#59,.F.);
#208=ADVANCED_FACE('',(#68),#60,.F.);
#209=ADVANCED_FACE('',(#69),#26,.F.);
#210=ADVANCED_FACE('',(#70),#61,.F.);
#211=ADVANCED_FACE('',(#71),#62,.F.);
#212=ADVANCED_FACE('',(#72),#27,.F.);
#213=ADVANCED_FACE('',(#73),#63,.F.);
#214=ADVANCED_FACE('',(#74),#64,.F.);
#215=ADVANCED_FACE('',(#75),#65,.T.);
#216=ADVANCED_FACE('',(#76,#15,#16,#17,#18),#21,.F.);
#217=ADVANCED_FACE('',(#77),#205,.T.);
#218=ADVANCED_FACE('',(#78),#22,.F.);
#219=ADVANCED_FACE('',(#79),#23,.F.);
#220=ADVANCED_FACE('',(#80,#19),#24,.F.);
#221=ADVANCED_FACE('',(#81,#20),#25,.F.);
#222=CLOSED_SHELL('',(#206,#207,#208,#209,#210,#211,#212,#213,#214,#215,
#216,#217,#218,#219,#220,#221));
#223=DERIVED_UNIT_ELEMENT(#225,1.);
#224=DERIVED_UNIT_ELEMENT(#481,-3.);
#225=(
MASS_UNIT()
NAMED_UNIT(*)
SI_UNIT(.KILO.,.GRAM.)
);
#226=DERIVED_UNIT((#223,#224));
#227=MEASURE_REPRESENTATION_ITEM('density measure',
POSITIVE_RATIO_MEASURE(7850.),#226);
#228=PROPERTY_DEFINITION_REPRESENTATION(#233,#230);
#229=PROPERTY_DEFINITION_REPRESENTATION(#234,#231);
#230=REPRESENTATION('material name',(#232),#478);
#231=REPRESENTATION('density',(#227),#478);
#232=DESCRIPTIVE_REPRESENTATION_ITEM('Steel','Steel');
#233=PROPERTY_DEFINITION('material property','material name',#488);
#234=PROPERTY_DEFINITION('material property','density of part',#488);
#235=AXIS2_PLACEMENT_3D('',#328,#263,#264);
#236=AXIS2_PLACEMENT_3D('',#374,#265,#266);
#237=AXIS2_PLACEMENT_3D('',#376,#267,#268);
#238=AXIS2_PLACEMENT_3D('',#379,#270,#271);
#239=AXIS2_PLACEMENT_3D('',#380,#272,#273);
#240=AXIS2_PLACEMENT_3D('',#382,#274,#275);
#241=AXIS2_PLACEMENT_3D('',#385,#277,#278);
#242=AXIS2_PLACEMENT_3D('',#386,#279,#280);
#243=AXIS2_PLACEMENT_3D('',#389,#282,#283);
#244=AXIS2_PLACEMENT_3D('',#391,#284,#285);
#245=AXIS2_PLACEMENT_3D('',#394,#287,#288);
#246=AXIS2_PLACEMENT_3D('',#395,#289,#290);
#247=AXIS2_PLACEMENT_3D('',#397,#291,#292);
#248=AXIS2_PLACEMENT_3D('',#400,#294,#295);
#249=AXIS2_PLACEMENT_3D('',#401,#296,#297);
#250=AXIS2_PLACEMENT_3D('',#404,#299,#300);
#251=AXIS2_PLACEMENT_3D('',#406,#301,#302);
#252=AXIS2_PLACEMENT_3D('',#409,#304,#305);
#253=AXIS2_PLACEMENT_3D('',#410,#306,#307);
#254=AXIS2_PLACEMENT_3D('',#412,#308,#309);
#255=AXIS2_PLACEMENT_3D('',#415,#311,#312);
#256=AXIS2_PLACEMENT_3D('',#416,#313,#314);
#257=AXIS2_PLACEMENT_3D('',#418,#315,#316);
#258=AXIS2_PLACEMENT_3D('',#459,#318,#319);
#259=AXIS2_PLACEMENT_3D('',#472,#320,#321);
#260=AXIS2_PLACEMENT_3D('',#473,#322,#323);
#261=AXIS2_PLACEMENT_3D('',#474,#324,#325);
#262=AXIS2_PLACEMENT_3D('',#475,#326,#327);
#263=DIRECTION('axis',(0.,0.,1.));
#264=DIRECTION('refdir',(1.,0.,0.));
#265=DIRECTION('center_axis',(0.,-1.,0.));
#266=DIRECTION('ref_axis',(0.,0.,-1.));
#267=DIRECTION('center_axis',(0.,-1.,0.));
#268=DIRECTION('ref_axis',(0.,0.,-1.));
#269=DIRECTION('',(0.,-1.,0.));
#270=DIRECTION('center_axis',(0.,-1.,0.));
#271=DIRECTION('ref_axis',(0.,0.,-1.));
#272=DIRECTION('center_axis',(0.,-1.,0.));
#273=DIRECTION('ref_axis',(0.,0.,-1.));
#274=DIRECTION('center_axis',(0.,-1.,0.));
#275=DIRECTION('ref_axis',(0.,0.,-1.));
#276=DIRECTION('',(0.,-1.,0.));
#277=DIRECTION('center_axis',(0.,-1.,0.));
#278=DIRECTION('ref_axis',(0.,0.,-1.));
#279=DIRECTION('center_axis',(0.,-1.,0.));
#280=DIRECTION('ref_axis',(0.,0.,-1.));
#281=DIRECTION('',(-1.04972719113862E-16,-0.515038074910055,0.857167300702112));
#282=DIRECTION('center_axis',(0.,-1.,0.));
#283=DIRECTION('ref_axis',(0.,0.,-1.));
#284=DIRECTION('center_axis',(0.,-1.,0.));
#285=DIRECTION('ref_axis',(0.,0.,-1.));
#286=DIRECTION('',(0.,-1.,0.));
#287=DIRECTION('center_axis',(0.,-1.,0.));
#288=DIRECTION('ref_axis',(0.,0.,-1.));
#289=DIRECTION('center_axis',(0.,-1.,0.));
#290=DIRECTION('ref_axis',(0.,0.,-1.));
#291=DIRECTION('center_axis',(0.,-1.,0.));
#292=DIRECTION('ref_axis',(0.,0.,-1.));
#293=DIRECTION('',(0.,-1.,0.));
#294=DIRECTION('center_axis',(0.,-1.,0.));
#295=DIRECTION('ref_axis',(0.,0.,-1.));
#296=DIRECTION('center_axis',(0.,-1.,0.));
#297=DIRECTION('ref_axis',(0.,0.,-1.));
#298=DIRECTION('',(-1.04972719113862E-16,-0.515038074910055,0.857167300702112));
#299=DIRECTION('center_axis',(0.,-1.,0.));
#300=DIRECTION('ref_axis',(0.,0.,-1.));
#301=DIRECTION('center_axis',(0.,-1.,0.));
#302=DIRECTION('ref_axis',(0.,0.,-1.));
#303=DIRECTION('',(0.,-1.,0.));
#304=DIRECTION('center_axis',(0.,-1.,0.));
#305=DIRECTION('ref_axis',(0.,0.,-1.));
#306=DIRECTION('center_axis',(0.,-1.,0.));
#307=DIRECTION('ref_axis',(0.,0.,-1.));
#308=DIRECTION('center_axis',(0.,-1.,0.));
#309=DIRECTION('ref_axis',(0.,0.,-1.));
#310=DIRECTION('',(0.,-1.,0.));
#311=DIRECTION('center_axis',(0.,-1.,0.));
#312=DIRECTION('ref_axis',(0.,0.,-1.));
#313=DIRECTION('center_axis',(0.,-1.,0.));
#314=DIRECTION('ref_axis',(0.,0.,-1.));
#315=DIRECTION('center_axis',(0.,1.,0.));
#316=DIRECTION('ref_axis',(0.,0.,1.));
#317=DIRECTION('',(0.,1.,0.));
#318=DIRECTION('center_axis',(0.,1.,0.));
#319=DIRECTION('ref_axis',(0.,0.,1.));
#320=DIRECTION('center_axis',(0.,1.,0.));
#321=DIRECTION('ref_axis',(0.,0.,1.));
#322=DIRECTION('center_axis',(0.,1.,0.));
#323=DIRECTION('ref_axis',(0.,0.,1.));
#324=DIRECTION('center_axis',(0.,1.,0.));
#325=DIRECTION('ref_axis',(0.,0.,1.));
#326=DIRECTION('center_axis',(0.,1.,0.));
#327=DIRECTION('ref_axis',(0.,0.,1.));
#328=CARTESIAN_POINT('',(0.,0.,0.));
#329=CARTESIAN_POINT('Ctrl Pts',(-3.21309999999975,12.7476821501047,-2.54406096189541E-13));
#330=CARTESIAN_POINT('Ctrl Pts',(-3.21309999999972,12.7476821501047,-1.38942905469634));
#331=CARTESIAN_POINT('Ctrl Pts',(-3.03215914921624,12.7476821501047,-2.76702605910344));
#332=CARTESIAN_POINT('Ctrl Pts',(-2.67335914691066,12.7476821501047,-4.10932843054558));
#333=CARTESIAN_POINT('Ctrl Pts',(1.44415729375069E-13,8.72166785009343,
-2.03037586743448E-13));
#334=CARTESIAN_POINT('Ctrl Pts',(1.621436593332E-13,8.72166785009343,-1.10888192713196));
#335=CARTESIAN_POINT('Ctrl Pts',(0.14440610597262,8.72166785009343,-2.20832087717754));
#336=CARTESIAN_POINT('Ctrl Pts',(0.430758861204522,8.72166785009343,-3.27959172429816));
#337=CARTESIAN_POINT('Ctrl Pts',(3.21310000000004,6.32148215008676,-1.51669077297356E-13));
#338=CARTESIAN_POINT('Ctrl Pts',(3.21310000000005,6.32148215008676,-0.828334799567582));
#339=CARTESIAN_POINT('Ctrl Pts',(3.32097136116148,6.32148215008676,-1.64961569525163));
#340=CARTESIAN_POINT('Ctrl Pts',(3.53487686931971,6.32148215008676,-2.44985501805075));
#341=CARTESIAN_POINT('',(3.17500000000022,6.35000000008701,-1.52278190057588E-13));
#342=CARTESIAN_POINT('',(-3.17499999999989,12.7000000001052,-4.54559989313834E-13));
#343=CARTESIAN_POINT('Ctrl Pts',(-3.17500000000008,12.700000000105,-4.67924310409984E-13));
#344=CARTESIAN_POINT('Ctrl Pts',(-3.17500000000005,12.7000000001049,-0.189286428301085));
#345=CARTESIAN_POINT('Ctrl Pts',(-3.15807573462331,12.6830757347282,-0.376748403214053));
#346=CARTESIAN_POINT('Ctrl Pts',(-3.09112053346316,12.6161205335678,-0.750233963759905));
#347=CARTESIAN_POINT('Ctrl Pts',(-3.04051457546696,12.5655145755597,-0.932831032396279));
#348=CARTESIAN_POINT('Ctrl Pts',(-2.8464554098625,12.3714554099547,-1.45482684317301));
#349=CARTESIAN_POINT('Ctrl Pts',(-2.65690168201538,12.1819016821188,-1.77798376152974));
#350=CARTESIAN_POINT('Ctrl Pts',(-2.11287501989604,11.6378750199979,-2.41484678925788));
#351=CARTESIAN_POINT('Ctrl Pts',(-1.73867856313509,11.2636785632358,-2.69700806217571));
#352=CARTESIAN_POINT('Ctrl Pts',(-0.934593152259679,10.4595931523582,-3.06305125693162));
#353=CARTESIAN_POINT('Ctrl Pts',(-0.531764435177669,10.0567644346875,-3.15573312529387));
#354=CARTESIAN_POINT('Ctrl Pts',(0.126081396309352,9.39891860297114,-3.18292125117502));
#355=CARTESIAN_POINT('Ctrl Pts',(0.384865987024639,9.14013401307012,-3.16228626897581));
#356=CARTESIAN_POINT('Ctrl Pts',(0.665531996990781,8.85946800310318,-3.10457748821853));
#357=CARTESIAN_POINT('Ctrl Pts',(0.691584141086345,8.83341585900754,-3.09887873639979));
#358=CARTESIAN_POINT('Ctrl Pts',(0.768447763104311,8.75655223698936,-3.08104497374394));
#359=CARTESIAN_POINT('Ctrl Pts',(0.819158621568598,8.70584137852493,-3.06795748400695));
#360=CARTESIAN_POINT('Ctrl Pts',(1.06247388506641,8.46252611502642,-2.99865978898021));
#361=CARTESIAN_POINT('Ctrl Pts',(1.25308570175441,8.27191429833789,-2.92463172055484));
#362=CARTESIAN_POINT('Ctrl Pts',(1.64289559183263,7.88210440825857,-2.72658795690683));
#363=CARTESIAN_POINT('Ctrl Pts',(1.84220278448193,7.68279721561149,-2.59736957975644));
#364=CARTESIAN_POINT('Ctrl Pts',(2.30189495023693,7.22310504985519,-2.21523014871241));
#365=CARTESIAN_POINT('Ctrl Pts',(2.5521207858463,6.97287921424236,-1.93021449532105));
#366=CARTESIAN_POINT('Ctrl Pts',(2.89193213066996,6.63306786941774,-1.34058513138102));
#367=CARTESIAN_POINT('Ctrl Pts',(3.00585238213111,6.51914761795623,-1.06739702052268));
#368=CARTESIAN_POINT('Ctrl Pts',(3.14226827795965,6.38273172212731,-0.521832192629535));
#369=CARTESIAN_POINT('Ctrl Pts',(3.17500000000002,6.35000000008685,-0.263295950057259));
#370=CARTESIAN_POINT('Ctrl Pts',(3.17500000000003,6.35000000008684,-1.43982048506075E-13));
#371=CARTESIAN_POINT('Ctrl Pts',(-3.17499999999989,12.7000000001052,-4.54559989313834E-13));
#372=CARTESIAN_POINT('Ctrl Pts',(-8.32667268468867E-14,8.73125000009405,
0.));
#373=CARTESIAN_POINT('Ctrl Pts',(3.17500000000022,6.35000000008701,-1.52278190057588E-13));
#374=CARTESIAN_POINT('Origin',(-4.71349980743823E-15,0.,1.35));
#375=CARTESIAN_POINT('',(-4.80681789353326E-15,3.7,2.112));
#376=CARTESIAN_POINT('Origin',(-4.71349980743823E-15,3.7,1.35));
#377=CARTESIAN_POINT('',(-4.80681789353326E-15,3.85185988877447E-31,2.112));
#378=CARTESIAN_POINT('',(-4.80681789353326E-15,0.,2.112));
#379=CARTESIAN_POINT('Origin',(-4.71349980743823E-15,3.85185988877447E-31,
1.35));
#380=CARTESIAN_POINT('Origin',(-4.71349980743823E-15,0.,1.35));
#381=CARTESIAN_POINT('',(-4.78644344473585E-15,4.65,1.94563));
#382=CARTESIAN_POINT('Origin',(-4.71349980743823E-15,4.65,1.35));
#383=CARTESIAN_POINT('',(-4.78644344473585E-15,3.7,1.94563));
#384=CARTESIAN_POINT('',(-4.78644344473585E-15,0.,1.94563));
#385=CARTESIAN_POINT('Origin',(-4.71349980743823E-15,3.7,1.35));
#386=CARTESIAN_POINT('Origin',(-4.71349980743823E-15,4.65,1.35));
#387=CARTESIAN_POINT('',(-5.9400792487668E-15,5.00789061051139,1.35));
#388=CARTESIAN_POINT('',(-4.78644344473585E-15,4.65,1.94563));
#389=CARTESIAN_POINT('Origin',(4.71349980743823E-15,0.,-1.35));
#390=CARTESIAN_POINT('',(4.62018172134321E-15,3.7,-0.588000000000005));
#391=CARTESIAN_POINT('Origin',(4.71349980743823E-15,3.7,-1.35));
#392=CARTESIAN_POINT('',(4.62018172134321E-15,3.85185988877447E-31,-0.588000000000005));
#393=CARTESIAN_POINT('',(4.62018172134321E-15,0.,-0.588000000000005));
#394=CARTESIAN_POINT('Origin',(4.71349980743823E-15,3.85185988877447E-31,
-1.35));
#395=CARTESIAN_POINT('Origin',(4.71349980743823E-15,0.,-1.35));
#396=CARTESIAN_POINT('',(4.64055617014062E-15,4.65,-0.754370000000003));
#397=CARTESIAN_POINT('Origin',(4.71349980743823E-15,4.65,-1.35));
#398=CARTESIAN_POINT('',(4.64055617014062E-15,3.7,-0.754370000000003));
#399=CARTESIAN_POINT('',(4.64055617014062E-15,0.,-0.754370000000003));
#400=CARTESIAN_POINT('Origin',(4.71349980743823E-15,3.7,-1.35));
#401=CARTESIAN_POINT('Origin',(4.71349980743823E-15,4.65,-1.35));
#402=CARTESIAN_POINT('',(3.48692036610966E-15,5.00789061051139,-1.35));
#403=CARTESIAN_POINT('',(4.64055617014062E-15,4.65,-0.754370000000004));
#404=CARTESIAN_POINT('Origin',(-1.9,0.,0.));
#405=CARTESIAN_POINT('',(-1.9,4.,0.396874999999989));
#406=CARTESIAN_POINT('Origin',(-1.9,4.,0.));
#407=CARTESIAN_POINT('',(-1.9,-1.50669826507598E-15,0.396874999999989));
#408=CARTESIAN_POINT('',(-1.9,0.,0.396874999999989));
#409=CARTESIAN_POINT('Origin',(-1.9,-1.50669826507598E-15,0.));
#410=CARTESIAN_POINT('Origin',(1.9,0.,0.));
#411=CARTESIAN_POINT('',(1.9,4.,0.396874999999989));
#412=CARTESIAN_POINT('Origin',(1.9,4.,0.));
#413=CARTESIAN_POINT('',(1.9,-1.50669826507598E-15,0.396874999999989));
#414=CARTESIAN_POINT('',(1.9,0.,0.396874999999989));
#415=CARTESIAN_POINT('Origin',(1.9,-1.50669826507598E-15,0.));
#416=CARTESIAN_POINT('Origin',(0.,50.,0.));
#417=CARTESIAN_POINT('',(-3.88825358729285E-16,0.,3.175));
#418=CARTESIAN_POINT('Origin',(0.,0.,0.));
#419=CARTESIAN_POINT('',(3.31469725289096E-14,9.52500000009599,3.175));
#420=CARTESIAN_POINT('',(-3.88825358729285E-16,50.,3.175));
#421=CARTESIAN_POINT('Ctrl Pts',(-1.96093141724418E-13,9.52500000009626,
3.17500000000002));
#422=CARTESIAN_POINT('Ctrl Pts',(-0.280692358802755,9.80569235889962,3.17500000000001));
#423=CARTESIAN_POINT('Ctrl Pts',(-0.562307054564985,10.0873070546627,3.13778429868311));
#424=CARTESIAN_POINT('Ctrl Pts',(-1.3359016572166,10.8609016573165,2.92629613354378));
#425=CARTESIAN_POINT('Ctrl Pts',(-1.79261616945821,11.3176161695594,2.6709525420903));
#426=CARTESIAN_POINT('Ctrl Pts',(-2.45988448019686,11.9848844802999,2.04634867023987));
#427=CARTESIAN_POINT('Ctrl Pts',(-2.69491097398511,12.2199109740889,1.72457894461104));
#428=CARTESIAN_POINT('Ctrl Pts',(-2.96418913331513,12.4891891334197,1.16062213330083));
#429=CARTESIAN_POINT('Ctrl Pts',(-3.04359058069503,12.5685905807995,0.936397424228302));
#430=CARTESIAN_POINT('Ctrl Pts',(-3.14833911387084,12.6733391139757,0.471669856411673));
#431=CARTESIAN_POINT('Ctrl Pts',(-3.17500000000006,12.7000000001052,0.237604412105438));
#432=CARTESIAN_POINT('Ctrl Pts',(-3.17500000000003,12.7000000001052,-3.94684285254243E-13));
#433=CARTESIAN_POINT('Ctrl Pts',(3.17499999999997,6.35000000008704,-1.5709655798446E-13));
#434=CARTESIAN_POINT('Ctrl Pts',(3.17499999999998,6.35000000008703,0.282138095204939));
#435=CARTESIAN_POINT('Ctrl Pts',(3.13742264036034,6.38757735972673,0.558472593437269));
#436=CARTESIAN_POINT('Ctrl Pts',(2.97652661338068,6.54847338670686,1.15840925792698));
#437=CARTESIAN_POINT('Ctrl Pts',(2.8361477118985,6.68885228818951,1.46185217016434));
#438=CARTESIAN_POINT('Ctrl Pts',(2.46327587716338,7.06172412292568,2.03691464426478));
#439=CARTESIAN_POINT('Ctrl Pts',(2.22083856335647,7.30416143673618,2.29306766827135));
#440=CARTESIAN_POINT('Ctrl Pts',(1.77423769620009,7.75076230389383,2.64361191206275));
#441=CARTESIAN_POINT('Ctrl Pts',(1.57747078925657,7.94752921083499,2.7644682423304));
#442=CARTESIAN_POINT('Ctrl Pts',(1.18747189110816,8.33752810898451,2.9519826862079));
#443=CARTESIAN_POINT('Ctrl Pts',(0.993746303968469,8.53125369612471,3.02224726631408));
#444=CARTESIAN_POINT('Ctrl Pts',(0.796498487252959,8.72850151284079,3.07346997470939));
#445=CARTESIAN_POINT('Ctrl Pts',(0.794960126882598,8.73003987321115,3.07386823422108));
#446=CARTESIAN_POINT('Ctrl Pts',(0.791880999688743,8.73311900040502,3.07466291061525));
#447=CARTESIAN_POINT('Ctrl Pts',(0.790340231953815,8.73465976813966,3.07505932436662));
#448=CARTESIAN_POINT('Ctrl Pts',(0.785707374065382,8.7392926260281,3.07624756989943));
#449=CARTESIAN_POINT('Ctrl Pts',(0.782614815792577,8.74238518430125,3.07703578651754));
#450=CARTESIAN_POINT('Ctrl Pts',(0.766964892853149,8.75803510724072,3.08099945461129));
#451=CARTESIAN_POINT('Ctrl Pts',(0.75439797491186,8.77060202518204,3.0841005157003));
#452=CARTESIAN_POINT('Ctrl Pts',(0.687806921907979,8.83719307818611,3.10010204691505));
#453=CARTESIAN_POINT('Ctrl Pts',(0.633607286871136,8.89139271322312,3.11162649907993));
#454=CARTESIAN_POINT('Ctrl Pts',(0.445764246896112,9.07923575319868,3.14648384462146));
#455=CARTESIAN_POINT('Ctrl Pts',(0.311300342860854,9.21369965723431,3.16257504299197));
#456=CARTESIAN_POINT('Ctrl Pts',(0.117911655612619,9.4070883444831,3.17335672706081));
#457=CARTESIAN_POINT('Ctrl Pts',(0.0589761865890797,9.46602381350681,3.175));
#458=CARTESIAN_POINT('Ctrl Pts',(-1.35598373478301E-13,9.52500000009619,
3.175));
#459=CARTESIAN_POINT('Origin',(0.,0.,0.));
#460=CARTESIAN_POINT('Ctrl Pts',(-2.66522207740816,12.7476821501047,4.13964999992927));
#461=CARTESIAN_POINT('Ctrl Pts',(-3.0294154263,12.7476821501047,2.7878662295782));
#462=CARTESIAN_POINT('Ctrl Pts',(-3.21309999999958,12.7476821501047,1.39998434175546));
#463=CARTESIAN_POINT('Ctrl Pts',(-3.21309999999954,12.7476821501047,-4.0462425077159E-13));
#464=CARTESIAN_POINT('Ctrl Pts',(0.437252931038966,8.72166785009343,3.30379090177916));
#465=CARTESIAN_POINT('Ctrl Pts',(0.146595828970453,8.72166785009343,2.22495309623162));
#466=CARTESIAN_POINT('Ctrl Pts',(3.19120505601624E-13,8.72166785009343,
1.11730593915042));
#467=CARTESIAN_POINT('Ctrl Pts',(3.46782064869489E-13,8.72166785009343,
-3.14418630020796E-13));
#468=CARTESIAN_POINT('Ctrl Pts',(3.53972793948609,6.32148215008676,2.46793180362905));
#469=CARTESIAN_POINT('Ctrl Pts',(3.32260708424091,6.32148215008676,1.66203996288503));
#470=CARTESIAN_POINT('Ctrl Pts',(3.21310000000022,6.32148215008676,0.834627536545376));
#471=CARTESIAN_POINT('Ctrl Pts',(3.21310000000024,6.32148215008676,-2.23779328401008E-13));
#472=CARTESIAN_POINT('Origin',(1.9,4.,0.));
#473=CARTESIAN_POINT('Origin',(-1.9,4.,0.));
#474=CARTESIAN_POINT('Origin',(0.595630000000003,3.7,-1.35));
#475=CARTESIAN_POINT('Origin',(0.595629999999994,3.7,1.35));
#476=UNCERTAINTY_MEASURE_WITH_UNIT(LENGTH_MEASURE(0.01),#480,
'DISTANCE_ACCURACY_VALUE',
'Maximum model space distance between geometric entities at asserted c
onnectivities');
#477=UNCERTAINTY_MEASURE_WITH_UNIT(LENGTH_MEASURE(0.01),#480,
'DISTANCE_ACCURACY_VALUE',
'Maximum model space distance between geometric entities at asserted c
onnectivities');
#478=(
GEOMETRIC_REPRESENTATION_CONTEXT(3)
GLOBAL_UNCERTAINTY_ASSIGNED_CONTEXT((#476))
GLOBAL_UNIT_ASSIGNED_CONTEXT((#480,#482,#483))
REPRESENTATION_CONTEXT('','3D')
);
#479=(
GEOMETRIC_REPRESENTATION_CONTEXT(3)
GLOBAL_UNCERTAINTY_ASSIGNED_CONTEXT((#477))
GLOBAL_UNIT_ASSIGNED_CONTEXT((#480,#482,#483))
REPRESENTATION_CONTEXT('','3D')
);
#480=(
LENGTH_UNIT()
NAMED_UNIT(*)
SI_UNIT(.MILLI.,.METRE.)
);
#481=(
LENGTH_UNIT()
NAMED_UNIT(*)
SI_UNIT($,.METRE.)
);
#482=(
NAMED_UNIT(*)
PLANE_ANGLE_UNIT()
SI_UNIT($,.RADIAN.)
);
#483=(
NAMED_UNIT(*)
SI_UNIT($,.STERADIAN.)
SOLID_ANGLE_UNIT()
);
#484=SHAPE_DEFINITION_REPRESENTATION(#485,#486);
#485=PRODUCT_DEFINITION_SHAPE('',$,#488);
#486=SHAPE_REPRESENTATION('',(#235),#478);
#487=PRODUCT_DEFINITION_CONTEXT('part definition',#492,'design');
#488=PRODUCT_DEFINITION('step_37289','step_37289 v1',#489,#487);
#489=PRODUCT_DEFINITION_FORMATION('',$,#494);
#490=PRODUCT_RELATED_PRODUCT_CATEGORY('step_37289 v1','step_37289 v1',(#494));
#491=APPLICATION_PROTOCOL_DEFINITION('international standard',
'automotive_design',2009,#492);
#492=APPLICATION_CONTEXT(
'Core Data for Automotive Mechanical Design Process');
#493=PRODUCT_CONTEXT('part definition',#492,'mechanical');
#494=PRODUCT('step_37289','step_37289 v1',$,(#493));
#495=PRESENTATION_STYLE_ASSIGNMENT((#496));
#496=SURFACE_STYLE_USAGE(.BOTH.,#497);
#497=SURFACE_SIDE_STYLE('',(#498));
#498=SURFACE_STYLE_FILL_AREA(#499);
#499=FILL_AREA_STYLE('Steel - Satin',(#500));
#500=FILL_AREA_STYLE_COLOUR('Steel - Satin',#501);
#501=COLOUR_RGB('Steel - Satin',0.627450980392157,0.627450980392157,0.627450980392157);
ENDSEC;
END-ISO-10303-21;
