ISO-10303-21;
HEADER;
/* Generated by software containing ST-Developer
 * from STEP Tools, Inc. (www.steptools.com) 
 */

FILE_DESCRIPTION(
/* description */ (''),
/* implementation_level */ '2;1');

FILE_NAME(
/* name */ 'step_37290 v1.step',
/* time_stamp */ '2024-06-17T13:50:52+02:00',
/* author */ (''),
/* organization */ (''),
/* preprocessor_version */ 'ST-DEVELOPER v20',
/* originating_system */ 'Autodesk Translation Framework v13.14.0.145',

/* authorisation */ '');

FILE_SCHEMA (('AUTOMOTIVE_DESIGN { 1 0 10303 214 3 1 1 }'));
ENDSEC;

DATA;
#10=MECHANICAL_DESIGN_GEOMETRIC_PRESENTATION_REPRESENTATION('',(#13),#475);
#11=SHAPE_REPRESENTATION_RELATIONSHIP('SRR','None',#482,#12);
#12=ADVANCED_BREP_SHAPE_REPRESENTATION('',(#14),#474);
#13=STYLED_ITEM('',(#491),#14);
#14=MANIFOLD_SOLID_BREP('Body1',#222);
#15=FACE_BOUND('',#93,.T.);
#16=FACE_BOUND('',#94,.T.);
#17=FACE_BOUND('',#95,.T.);
#18=FACE_BOUND('',#96,.T.);
#19=FACE_BOUND('',#101,.T.);
#20=FACE_BOUND('',#103,.T.);
#21=PLANE('',#258);
#22=PLANE('',#259);
#23=PLANE('',#260);
#24=PLANE('',#261);
#25=PLANE('',#262);
#26=CONICAL_SURFACE('',#242,0.595629999999996,1.02974425867665);
#27=CONICAL_SURFACE('',#249,0.595629999999996,1.02974425867665);
#28=LINE('',#376,#37);
#29=LINE('',#382,#38);
#30=LINE('',#386,#39);
#31=LINE('',#391,#40);
#32=LINE('',#397,#41);
#33=LINE('',#401,#42);
#34=LINE('',#406,#43);
#35=LINE('',#412,#44);
#36=LINE('',#418,#45);
#37=VECTOR('',#269,0.761999999999996);
#38=VECTOR('',#276,0.595629999999998);
#39=VECTOR('',#281,0.595629999999996);
#40=VECTOR('',#286,0.761999999999995);
#41=VECTOR('',#293,0.595629999999998);
#42=VECTOR('',#298,0.595629999999996);
#43=VECTOR('',#303,0.396874999999989);
#44=VECTOR('',#310,0.396874999999989);
#45=VECTOR('',#317,3.175);
#46=CIRCLE('',#237,0.761999999999996);
#47=CIRCLE('',#238,0.761999999999995);
#48=CIRCLE('',#240,0.595629999999996);
#49=CIRCLE('',#241,0.595629999999999);
#50=CIRCLE('',#244,0.761999999999996);
#51=CIRCLE('',#245,0.761999999999995);
#52=CIRCLE('',#247,0.595629999999996);
#53=CIRCLE('',#248,0.595629999999999);
#54=CIRCLE('',#251,0.396874999999988);
#55=CIRCLE('',#252,0.396874999999989);
#56=CIRCLE('',#254,0.396874999999988);
#57=CIRCLE('',#255,0.396874999999989);
#58=CIRCLE('',#257,3.175);
#59=CYLINDRICAL_SURFACE('',#236,0.761999999999996);
#60=CYLINDRICAL_SURFACE('',#239,0.595629999999998);
#61=CYLINDRICAL_SURFACE('',#243,0.761999999999995);
#62=CYLINDRICAL_SURFACE('',#246,0.595629999999998);
#63=CYLINDRICAL_SURFACE('',#250,0.396874999999989);
#64=CYLINDRICAL_SURFACE('',#253,0.396874999999989);
#65=CYLINDRICAL_SURFACE('',#256,3.175);
#66=FACE_OUTER_BOUND('',#82,.T.);
#67=FACE_OUTER_BOUND('',#83,.T.);
#68=FACE_OUTER_BOUND('',#84,.T.);
#69=FACE_OUTER_BOUND('',#85,.T.);
#70=FACE_OUTER_BOUND('',#86,.T.);
#71=FACE_OUTER_BOUND('',#87,.T.);
#72=FACE_OUTER_BOUND('',#88,.T.);
#73=FACE_OUTER_BOUND('',#89,.T.);
#74=FACE_OUTER_BOUND('',#90,.T.);
#75=FACE_OUTER_BOUND('',#91,.T.);
#76=FACE_OUTER_BOUND('',#92,.T.);
#77=FACE_OUTER_BOUND('',#97,.T.);
#78=FACE_OUTER_BOUND('',#98,.T.);
#79=FACE_OUTER_BOUND('',#99,.T.);
#80=FACE_OUTER_BOUND('',#100,.T.);
#81=FACE_OUTER_BOUND('',#102,.T.);
#82=EDGE_LOOP('',(#152,#153));
#83=EDGE_LOOP('',(#154,#155,#156,#157));
#84=EDGE_LOOP('',(#158,#159,#160,#161));
#85=EDGE_LOOP('',(#162,#163,#164));
#86=EDGE_LOOP('',(#165,#166,#167,#168));
#87=EDGE_LOOP('',(#169,#170,#171,#172));
#88=EDGE_LOOP('',(#173,#174,#175));
#89=EDGE_LOOP('',(#176,#177,#178,#179));
#90=EDGE_LOOP('',(#180,#181,#182,#183));
#91=EDGE_LOOP('',(#184,#185,#186,#187,#188,#189));
#92=EDGE_LOOP('',(#190));
#93=EDGE_LOOP('',(#191));
#94=EDGE_LOOP('',(#192));
#95=EDGE_LOOP('',(#193));
#96=EDGE_LOOP('',(#194));
#97=EDGE_LOOP('',(#195,#196,#197));
#98=EDGE_LOOP('',(#198));
#99=EDGE_LOOP('',(#199));
#100=EDGE_LOOP('',(#200));
#101=EDGE_LOOP('',(#201));
#102=EDGE_LOOP('',(#202));
#103=EDGE_LOOP('',(#203));
#104=B_SPLINE_CURVE_WITH_KNOTS('',3,(#343,#344,#345,#346,#347,#348,#349,
#350,#351,#352,#353,#354,#355,#356,#357,#358,#359,#360,#361,#362,#363,#364,
#365,#366,#367,#368),.UNSPECIFIED.,.F.,.F.,(4,2,2,2,2,2,2,2,2,2,2,2,4),
(-1.16487487115175,-1.09861587201823,-1.02943813346949,-0.894410102689885,
-0.718714152552188,-0.603074276756197,-0.518286868081163,-0.517120317826249,
-0.43961904782913,-0.349887947988432,-0.210442198914923,-0.0940162886079719,
0.),.UNSPECIFIED.);
#105=B_SPLINE_CURVE_WITH_KNOTS('',2,(#369,#370,#371),.UNSPECIFIED.,.F.,
 .F.,(3,3),(0.497995415410863,0.498440878652894),.UNSPECIFIED.);
#106=B_SPLINE_CURVE_WITH_KNOTS('',3,(#419,#420,#421,#422,#423,#424,#425,
#426,#427,#428,#429,#430,#431,#432),.UNSPECIFIED.,.F.,.F.,(4,2,2,2,2,2,
4),(-0.567992314181496,-0.516162355092782,-0.393167683217615,-0.228053064180542,
-0.106542605026799,-0.0523356674492679,0.),.UNSPECIFIED.);
#107=B_SPLINE_CURVE_WITH_KNOTS('',3,(#433,#434,#435,#436,#437,#438,#439,
#440,#441,#442,#443,#444,#445,#446,#447,#448,#449,#450,#451,#452,#453,#454),
 .UNSPECIFIED.,.F.,.F.,(4,2,2,2,2,2,2,2,2,2,4),(-1.1303040359001,-1.03766518580344,
-0.922305885921843,-0.783951150995917,-0.694650478970616,-0.617393819219005,
-0.616812810384238,-0.615648594754351,-0.613310926290533,-0.603767356070042,
-0.567992314181496),.UNSPECIFIED.);
#108=VERTEX_POINT('',#341);
#109=VERTEX_POINT('',#342);
#110=VERTEX_POINT('',#373);
#111=VERTEX_POINT('',#375);
#112=VERTEX_POINT('',#379);
#113=VERTEX_POINT('',#381);
#114=VERTEX_POINT('',#385);
#115=VERTEX_POINT('',#388);
#116=VERTEX_POINT('',#390);
#117=VERTEX_POINT('',#394);
#118=VERTEX_POINT('',#396);
#119=VERTEX_POINT('',#400);
#120=VERTEX_POINT('',#403);
#121=VERTEX_POINT('',#405);
#122=VERTEX_POINT('',#409);
#123=VERTEX_POINT('',#411);
#124=VERTEX_POINT('',#415);
#125=VERTEX_POINT('',#417);
#126=EDGE_CURVE('',#108,#109,#104,.F.);
#127=EDGE_CURVE('',#109,#108,#105,.T.);
#128=EDGE_CURVE('',#110,#110,#46,.T.);
#129=EDGE_CURVE('',#110,#111,#28,.T.);
#130=EDGE_CURVE('',#111,#111,#47,.T.);
#131=EDGE_CURVE('',#112,#112,#48,.T.);
#132=EDGE_CURVE('',#112,#113,#29,.T.);
#133=EDGE_CURVE('',#113,#113,#49,.T.);
#134=EDGE_CURVE('',#114,#112,#30,.T.);
#135=EDGE_CURVE('',#115,#115,#50,.T.);
#136=EDGE_CURVE('',#115,#116,#31,.T.);
#137=EDGE_CURVE('',#116,#116,#51,.T.);
#138=EDGE_CURVE('',#117,#117,#52,.T.);
#139=EDGE_CURVE('',#117,#118,#32,.T.);
#140=EDGE_CURVE('',#118,#118,#53,.T.);
#141=EDGE_CURVE('',#119,#117,#33,.T.);
#142=EDGE_CURVE('',#120,#120,#54,.T.);
#143=EDGE_CURVE('',#120,#121,#34,.T.);
#144=EDGE_CURVE('',#121,#121,#55,.T.);
#145=EDGE_CURVE('',#122,#122,#56,.T.);
#146=EDGE_CURVE('',#122,#123,#35,.T.);
#147=EDGE_CURVE('',#123,#123,#57,.T.);
#148=EDGE_CURVE('',#124,#124,#58,.T.);
#149=EDGE_CURVE('',#124,#125,#36,.T.);
#150=EDGE_CURVE('',#109,#125,#106,.F.);
#151=EDGE_CURVE('',#125,#108,#107,.F.);
#152=ORIENTED_EDGE('',*,*,#126,.T.);
#153=ORIENTED_EDGE('',*,*,#127,.T.);
#154=ORIENTED_EDGE('',*,*,#128,.F.);
#155=ORIENTED_EDGE('',*,*,#129,.T.);
#156=ORIENTED_EDGE('',*,*,#130,.T.);
#157=ORIENTED_EDGE('',*,*,#129,.F.);
#158=ORIENTED_EDGE('',*,*,#131,.F.);
#159=ORIENTED_EDGE('',*,*,#132,.T.);
#160=ORIENTED_EDGE('',*,*,#133,.T.);
#161=ORIENTED_EDGE('',*,*,#132,.F.);
#162=ORIENTED_EDGE('',*,*,#134,.T.);
#163=ORIENTED_EDGE('',*,*,#131,.T.);
#164=ORIENTED_EDGE('',*,*,#134,.F.);
#165=ORIENTED_EDGE('',*,*,#135,.F.);
#166=ORIENTED_EDGE('',*,*,#136,.T.);
#167=ORIENTED_EDGE('',*,*,#137,.T.);
#168=ORIENTED_EDGE('',*,*,#136,.F.);
#169=ORIENTED_EDGE('',*,*,#138,.F.);
#170=ORIENTED_EDGE('',*,*,#139,.T.);
#171=ORIENTED_EDGE('',*,*,#140,.T.);
#172=ORIENTED_EDGE('',*,*,#139,.F.);
#173=ORIENTED_EDGE('',*,*,#141,.T.);
#174=ORIENTED_EDGE('',*,*,#138,.T.);
#175=ORIENTED_EDGE('',*,*,#141,.F.);
#176=ORIENTED_EDGE('',*,*,#142,.F.);
#177=ORIENTED_EDGE('',*,*,#143,.T.);
#178=ORIENTED_EDGE('',*,*,#144,.T.);
#179=ORIENTED_EDGE('',*,*,#143,.F.);
#180=ORIENTED_EDGE('',*,*,#145,.F.);
#181=ORIENTED_EDGE('',*,*,#146,.T.);
#182=ORIENTED_EDGE('',*,*,#147,.T.);
#183=ORIENTED_EDGE('',*,*,#146,.F.);
#184=ORIENTED_EDGE('',*,*,#148,.T.);
#185=ORIENTED_EDGE('',*,*,#149,.T.);
#186=ORIENTED_EDGE('',*,*,#150,.F.);
#187=ORIENTED_EDGE('',*,*,#126,.F.);
#188=ORIENTED_EDGE('',*,*,#151,.F.);
#189=ORIENTED_EDGE('',*,*,#149,.F.);
#190=ORIENTED_EDGE('',*,*,#148,.F.);
#191=ORIENTED_EDGE('',*,*,#130,.F.);
#192=ORIENTED_EDGE('',*,*,#137,.F.);
#193=ORIENTED_EDGE('',*,*,#144,.F.);
#194=ORIENTED_EDGE('',*,*,#147,.F.);
#195=ORIENTED_EDGE('',*,*,#127,.F.);
#196=ORIENTED_EDGE('',*,*,#150,.T.);
#197=ORIENTED_EDGE('',*,*,#151,.T.);
#198=ORIENTED_EDGE('',*,*,#145,.T.);
#199=ORIENTED_EDGE('',*,*,#142,.T.);
#200=ORIENTED_EDGE('',*,*,#135,.T.);
#201=ORIENTED_EDGE('',*,*,#140,.F.);
#202=ORIENTED_EDGE('',*,*,#128,.T.);
#203=ORIENTED_EDGE('',*,*,#133,.F.);
#204=(
BOUNDED_SURFACE()
B_SPLINE_SURFACE(2,3,((#329,#330,#331,#332),(#333,#334,#335,#336),(#337,
#338,#339,#340)),.UNSPECIFIED.,.F.,.F.,.F.)
B_SPLINE_SURFACE_WITH_KNOTS((3,3),(4,4),(0.497992742631411,0.498443551432346),
(0.,1.),.UNSPECIFIED.)
GEOMETRIC_REPRESENTATION_ITEM()
RATIONAL_B_SPLINE_SURFACE(((1.,0.998659642679152,0.998659642679152,1.),
(1.,0.998659642679152,0.998659642679152,1.),(1.,0.998659642679152,0.998659642679152,
1.)))
REPRESENTATION_ITEM('')
SURFACE()
);
#205=(
BOUNDED_SURFACE()
B_SPLINE_SURFACE(2,3,((#456,#457,#458,#459),(#460,#461,#462,#463),(#464,
#465,#466,#467)),.UNSPECIFIED.,.F.,.F.,.F.)
B_SPLINE_SURFACE_WITH_KNOTS((3,3),(4,4),(0.497992742631411,0.498443551432346),
(0.,1.),.UNSPECIFIED.)
GEOMETRIC_REPRESENTATION_ITEM()
RATIONAL_B_SPLINE_SURFACE(((1.,0.998644946453135,0.998644946453135,1.),
(1.,0.998644946453135,0.998644946453135,1.),(1.,0.998644946453135,0.998644946453135,
1.)))
REPRESENTATION_ITEM('')
SURFACE()
);
#206=ADVANCED_FACE('',(#66),#204,.T.);
#207=ADVANCED_FACE('',(#67),#59,.F.);
#208=ADVANCED_FACE('',(#68),#60,.F.);
#209=ADVANCED_FACE('',(#69),#26,.F.);
#210=ADVANCED_FACE('',(#70),#61,.F.);
#211=ADVANCED_FACE('',(#71),#62,.F.);
#212=ADVANCED_FACE('',(#72),#27,.F.);
#213=ADVANCED_FACE('',(#73),#63,.F.);
#214=ADVANCED_FACE('',(#74),#64,.F.);
#215=ADVANCED_FACE('',(#75),#65,.T.);
#216=ADVANCED_FACE('',(#76,#15,#16,#17,#18),#21,.F.);
#217=ADVANCED_FACE('',(#77),#205,.T.);
#218=ADVANCED_FACE('',(#78),#22,.F.);
#219=ADVANCED_FACE('',(#79),#23,.F.);
#220=ADVANCED_FACE('',(#80,#19),#24,.F.);
#221=ADVANCED_FACE('',(#81,#20),#25,.F.);
#222=CLOSED_SHELL('',(#206,#207,#208,#209,#210,#211,#212,#213,#214,#215,
#216,#217,#218,#219,#220,#221));
#223=DERIVED_UNIT_ELEMENT(#225,1.);
#224=DERIVED_UNIT_ELEMENT(#477,-3.);
#225=(
MASS_UNIT()
NAMED_UNIT(*)
SI_UNIT(.KILO.,.GRAM.)
);
#226=DERIVED_UNIT((#223,#224));
#227=MEASURE_REPRESENTATION_ITEM('density measure',
POSITIVE_RATIO_MEASURE(7850.),#226);
#228=PROPERTY_DEFINITION_REPRESENTATION(#233,#230);
#229=PROPERTY_DEFINITION_REPRESENTATION(#234,#231);
#230=REPRESENTATION('material name',(#232),#474);
#231=REPRESENTATION('density',(#227),#474);
#232=DESCRIPTIVE_REPRESENTATION_ITEM('Steel','Steel');
#233=PROPERTY_DEFINITION('material property','material name',#484);
#234=PROPERTY_DEFINITION('material property','density of part',#484);
#235=AXIS2_PLACEMENT_3D('',#328,#263,#264);
#236=AXIS2_PLACEMENT_3D('',#372,#265,#266);
#237=AXIS2_PLACEMENT_3D('',#374,#267,#268);
#238=AXIS2_PLACEMENT_3D('',#377,#270,#271);
#239=AXIS2_PLACEMENT_3D('',#378,#272,#273);
#240=AXIS2_PLACEMENT_3D('',#380,#274,#275);
#241=AXIS2_PLACEMENT_3D('',#383,#277,#278);
#242=AXIS2_PLACEMENT_3D('',#384,#279,#280);
#243=AXIS2_PLACEMENT_3D('',#387,#282,#283);
#244=AXIS2_PLACEMENT_3D('',#389,#284,#285);
#245=AXIS2_PLACEMENT_3D('',#392,#287,#288);
#246=AXIS2_PLACEMENT_3D('',#393,#289,#290);
#247=AXIS2_PLACEMENT_3D('',#395,#291,#292);
#248=AXIS2_PLACEMENT_3D('',#398,#294,#295);
#249=AXIS2_PLACEMENT_3D('',#399,#296,#297);
#250=AXIS2_PLACEMENT_3D('',#402,#299,#300);
#251=AXIS2_PLACEMENT_3D('',#404,#301,#302);
#252=AXIS2_PLACEMENT_3D('',#407,#304,#305);
#253=AXIS2_PLACEMENT_3D('',#408,#306,#307);
#254=AXIS2_PLACEMENT_3D('',#410,#308,#309);
#255=AXIS2_PLACEMENT_3D('',#413,#311,#312);
#256=AXIS2_PLACEMENT_3D('',#414,#313,#314);
#257=AXIS2_PLACEMENT_3D('',#416,#315,#316);
#258=AXIS2_PLACEMENT_3D('',#455,#318,#319);
#259=AXIS2_PLACEMENT_3D('',#468,#320,#321);
#260=AXIS2_PLACEMENT_3D('',#469,#322,#323);
#261=AXIS2_PLACEMENT_3D('',#470,#324,#325);
#262=AXIS2_PLACEMENT_3D('',#471,#326,#327);
#263=DIRECTION('axis',(0.,0.,1.));
#264=DIRECTION('refdir',(1.,0.,0.));
#265=DIRECTION('center_axis',(0.,-1.,0.));
#266=DIRECTION('ref_axis',(0.,0.,-1.));
#267=DIRECTION('center_axis',(0.,-1.,0.));
#268=DIRECTION('ref_axis',(0.,0.,-1.));
#269=DIRECTION('',(0.,-1.,0.));
#270=DIRECTION('center_axis',(0.,-1.,0.));
#271=DIRECTION('ref_axis',(0.,0.,-1.));
#272=DIRECTION('center_axis',(0.,-1.,0.));
#273=DIRECTION('ref_axis',(0.,0.,-1.));
#274=DIRECTION('center_axis',(0.,-1.,0.));
#275=DIRECTION('ref_axis',(0.,0.,-1.));
#276=DIRECTION('',(0.,-1.,0.));
#277=DIRECTION('center_axis',(0.,-1.,0.));
#278=DIRECTION('ref_axis',(0.,0.,-1.));
#279=DIRECTION('center_axis',(0.,-1.,0.));
#280=DIRECTION('ref_axis',(0.,0.,-1.));
#281=DIRECTION('',(-1.04972719113862E-16,-0.515038074910055,0.857167300702112));
#282=DIRECTION('center_axis',(0.,-1.,0.));
#283=DIRECTION('ref_axis',(0.,0.,-1.));
#284=DIRECTION('center_axis',(0.,-1.,0.));
#285=DIRECTION('ref_axis',(0.,0.,-1.));
#286=DIRECTION('',(0.,-1.,0.));
#287=DIRECTION('center_axis',(0.,-1.,0.));
#288=DIRECTION('ref_axis',(0.,0.,-1.));
#289=DIRECTION('center_axis',(0.,-1.,0.));
#290=DIRECTION('ref_axis',(0.,0.,-1.));
#291=DIRECTION('center_axis',(0.,-1.,0.));
#292=DIRECTION('ref_axis',(0.,0.,-1.));
#293=DIRECTION('',(0.,-1.,0.));
#294=DIRECTION('center_axis',(0.,-1.,0.));
#295=DIRECTION('ref_axis',(0.,0.,-1.));
#296=DIRECTION('center_axis',(0.,-1.,0.));
#297=DIRECTION('ref_axis',(0.,0.,-1.));
#298=DIRECTION('',(-1.04972719113862E-16,-0.515038074910055,0.857167300702112));
#299=DIRECTION('center_axis',(0.,-1.,0.));
#300=DIRECTION('ref_axis',(0.,0.,-1.));
#301=DIRECTION('center_axis',(0.,-1.,0.));
#302=DIRECTION('ref_axis',(0.,0.,-1.));
#303=DIRECTION('',(0.,-1.,0.));
#304=DIRECTION('center_axis',(0.,-1.,0.));
#305=DIRECTION('ref_axis',(0.,0.,-1.));
#306=DIRECTION('center_axis',(0.,-1.,0.));
#307=DIRECTION('ref_axis',(0.,0.,-1.));
#308=DIRECTION('center_axis',(0.,-1.,0.));
#309=DIRECTION('ref_axis',(0.,0.,-1.));
#310=DIRECTION('',(0.,-1.,0.));
#311=DIRECTION('center_axis',(0.,-1.,0.));
#312=DIRECTION('ref_axis',(0.,0.,-1.));
#313=DIRECTION('center_axis',(0.,-1.,0.));
#314=DIRECTION('ref_axis',(0.,0.,-1.));
#315=DIRECTION('center_axis',(0.,1.,0.));
#316=DIRECTION('ref_axis',(0.,0.,1.));
#317=DIRECTION('',(0.,1.,0.));
#318=DIRECTION('center_axis',(0.,1.,0.));
#319=DIRECTION('ref_axis',(0.,0.,1.));
#320=DIRECTION('center_axis',(0.,1.,0.));
#321=DIRECTION('ref_axis',(0.,0.,1.));
#322=DIRECTION('center_axis',(0.,1.,0.));
#323=DIRECTION('ref_axis',(0.,0.,1.));
#324=DIRECTION('center_axis',(0.,1.,0.));
#325=DIRECTION('ref_axis',(0.,0.,1.));
#326=DIRECTION('center_axis',(0.,1.,0.));
#327=DIRECTION('ref_axis',(0.,0.,1.));
#328=CARTESIAN_POINT('',(0.,0.,0.));
#329=CARTESIAN_POINT('Ctrl Pts',(-3.21310000000063,12.7428910749474,3.81203069110834E-13));
#330=CARTESIAN_POINT('Ctrl Pts',(-3.21310000000065,12.7428910749474,-1.21062231719772));
#331=CARTESIAN_POINT('Ctrl Pts',(-3.13637070684628,12.7428910749474,-2.41881063466736));
#332=CARTESIAN_POINT('Ctrl Pts',(-2.98322065454693,12.7428910749474,-3.61970674023969));
#333=CARTESIAN_POINT('Ctrl Pts',(-5.47305256670683E-13,9.12333392494275,
3.38395977905756E-13));
#334=CARTESIAN_POINT('Ctrl Pts',(-5.61622814813728E-13,9.12333392494275,
-1.07467582529757));
#335=CARTESIAN_POINT('Ctrl Pts',(0.0681129988049157,9.12333392494275,-2.14719097618052));
#336=CARTESIAN_POINT('Ctrl Pts',(0.204065109146103,9.12333392494275,-3.21323279204588));
#337=CARTESIAN_POINT('Ctrl Pts',(3.21309999999954,6.31669107493913,2.95588886700678E-13));
#338=CARTESIAN_POINT('Ctrl Pts',(3.21309999999953,6.31669107493913,-0.938729333397429));
#339=CARTESIAN_POINT('Ctrl Pts',(3.27259670445611,6.31669107493913,-1.87557131769368));
#340=CARTESIAN_POINT('Ctrl Pts',(3.39135087283914,6.31669107493913,-2.80675884385208));
#341=CARTESIAN_POINT('',(3.17499999999956,6.34999999993924,2.96096480667519E-13));
#342=CARTESIAN_POINT('',(-3.17500000000022,12.6999999999471,-4.56359972932588E-13));
#343=CARTESIAN_POINT('Ctrl Pts',(-3.175,12.6999999999466,-4.68652894269894E-13));
#344=CARTESIAN_POINT('Ctrl Pts',(-3.17499999999997,12.6999999999466,-0.194694165066593));
#345=CARTESIAN_POINT('Ctrl Pts',(-3.1570952608277,12.6820952607742,-0.387406979996157));
#346=CARTESIAN_POINT('Ctrl Pts',(-3.08606715881899,12.6110671587654,-0.772547430691866));
#347=CARTESIAN_POINT('Ctrl Pts',(-3.03207147608839,12.5570714760349,-0.961150429082717));
#348=CARTESIAN_POINT('Ctrl Pts',(-2.82921709338265,12.3542170933289,-1.48854315417932));
#349=CARTESIAN_POINT('Ctrl Pts',(-2.63476569516958,12.1597656951155,-1.811024573146));
#350=CARTESIAN_POINT('Ctrl Pts',(-2.06465286015198,11.5896528600972,-2.46106756966033));
#351=CARTESIAN_POINT('Ctrl Pts',(-1.66255037734721,11.1875503772936,-2.74892561205002));
#352=CARTESIAN_POINT('Ctrl Pts',(-0.911404974434572,10.4364049743801,-3.05842319238093));
#353=CARTESIAN_POINT('Ctrl Pts',(-0.601572639267354,10.1265726391957,-3.13300996841828));
#354=CARTESIAN_POINT('Ctrl Pts',(-0.0640037984027957,9.58900379831528,-3.18255918343641));
#355=CARTESIAN_POINT('Ctrl Pts',(0.165198442788883,9.35980155715362,-3.17894104998312));
#356=CARTESIAN_POINT('Ctrl Pts',(0.395330920547199,9.12966907939502,-3.15029337832337));
#357=CARTESIAN_POINT('Ctrl Pts',(0.398453943572655,9.12654605636953,-3.14989989758095));
#358=CARTESIAN_POINT('Ctrl Pts',(0.609038780015986,8.91596121992593,-3.12304931494604));
#359=CARTESIAN_POINT('Ctrl Pts',(0.8157246745309,8.70927532541081,-3.07586387619597));
#360=CARTESIAN_POINT('Ctrl Pts',(1.25274093736244,8.27225906257873,-2.92789232397787));
#361=CARTESIAN_POINT('Ctrl Pts',(1.483336394032,8.04166360591049,-2.81924395259296));
#362=CARTESIAN_POINT('Ctrl Pts',(2.0445901530187,7.48040984692309,-2.46252144349909));
#363=CARTESIAN_POINT('Ctrl Pts',(2.33991575834287,7.18508424159696,-2.18350849170871));
#364=CARTESIAN_POINT('Ctrl Pts',(2.77219667173256,6.75280332820673,-1.58388174387107));
#365=CARTESIAN_POINT('Ctrl Pts',(2.93561650538001,6.58938349455906,-1.2658027923153));
#366=CARTESIAN_POINT('Ctrl Pts',(3.12865471286971,6.39634528706912,-0.618947047032746));
#367=CARTESIAN_POINT('Ctrl Pts',(3.1749999999999,6.34999999993885,-0.313387628692962));
#368=CARTESIAN_POINT('Ctrl Pts',(3.17499999999987,6.34999999993888,2.77659839564848E-13));
#369=CARTESIAN_POINT('Ctrl Pts',(-3.17500000000022,12.6999999999471,-4.56359972932588E-13));
#370=CARTESIAN_POINT('Ctrl Pts',(-8.32667268468867E-15,9.12812499994247,
-6.31088724176809E-29));
#371=CARTESIAN_POINT('Ctrl Pts',(3.17499999999956,6.34999999993924,2.96096480667519E-13));
#372=CARTESIAN_POINT('Origin',(-4.71349980743823E-15,0.,1.35));
#373=CARTESIAN_POINT('',(-4.80681789353326E-15,3.7,2.112));
#374=CARTESIAN_POINT('Origin',(-4.71349980743823E-15,3.7,1.35));
#375=CARTESIAN_POINT('',(-4.80681789353326E-15,3.85185988877447E-31,2.112));
#376=CARTESIAN_POINT('',(-4.80681789353326E-15,0.,2.112));
#377=CARTESIAN_POINT('Origin',(-4.71349980743823E-15,3.85185988877447E-31,
1.35));
#378=CARTESIAN_POINT('Origin',(-4.71349980743823E-15,0.,1.35));
#379=CARTESIAN_POINT('',(-4.78644344473585E-15,4.65,1.94563));
#380=CARTESIAN_POINT('Origin',(-4.71349980743823E-15,4.65,1.35));
#381=CARTESIAN_POINT('',(-4.78644344473585E-15,3.7,1.94563));
#382=CARTESIAN_POINT('',(-4.78644344473585E-15,0.,1.94563));
#383=CARTESIAN_POINT('Origin',(-4.71349980743823E-15,3.7,1.35));
#384=CARTESIAN_POINT('Origin',(-4.71349980743823E-15,4.65,1.35));
#385=CARTESIAN_POINT('',(-5.9400792487668E-15,5.00789061051139,1.35));
#386=CARTESIAN_POINT('',(-4.78644344473585E-15,4.65,1.94563));
#387=CARTESIAN_POINT('Origin',(4.71349980743823E-15,0.,-1.35));
#388=CARTESIAN_POINT('',(4.62018172134321E-15,3.7,-0.588000000000005));
#389=CARTESIAN_POINT('Origin',(4.71349980743823E-15,3.7,-1.35));
#390=CARTESIAN_POINT('',(4.62018172134321E-15,3.85185988877447E-31,-0.588000000000005));
#391=CARTESIAN_POINT('',(4.62018172134321E-15,0.,-0.588000000000005));
#392=CARTESIAN_POINT('Origin',(4.71349980743823E-15,3.85185988877447E-31,
-1.35));
#393=CARTESIAN_POINT('Origin',(4.71349980743823E-15,0.,-1.35));
#394=CARTESIAN_POINT('',(4.64055617014062E-15,4.65,-0.754370000000003));
#395=CARTESIAN_POINT('Origin',(4.71349980743823E-15,4.65,-1.35));
#396=CARTESIAN_POINT('',(4.64055617014062E-15,3.7,-0.754370000000003));
#397=CARTESIAN_POINT('',(4.64055617014062E-15,0.,-0.754370000000003));
#398=CARTESIAN_POINT('Origin',(4.71349980743823E-15,3.7,-1.35));
#399=CARTESIAN_POINT('Origin',(4.71349980743823E-15,4.65,-1.35));
#400=CARTESIAN_POINT('',(3.48692036610966E-15,5.00789061051139,-1.35));
#401=CARTESIAN_POINT('',(4.64055617014062E-15,4.65,-0.754370000000004));
#402=CARTESIAN_POINT('Origin',(-1.9,0.,0.));
#403=CARTESIAN_POINT('',(-1.9,4.,0.396874999999989));
#404=CARTESIAN_POINT('Origin',(-1.9,4.,0.));
#405=CARTESIAN_POINT('',(-1.9,-1.50669826507598E-15,0.396874999999989));
#406=CARTESIAN_POINT('',(-1.9,0.,0.396874999999989));
#407=CARTESIAN_POINT('Origin',(-1.9,-1.50669826507598E-15,0.));
#408=CARTESIAN_POINT('Origin',(1.9,0.,0.));
#409=CARTESIAN_POINT('',(1.9,4.,0.396874999999989));
#410=CARTESIAN_POINT('Origin',(1.9,4.,0.));
#411=CARTESIAN_POINT('',(1.9,-1.50669826507598E-15,0.396874999999989));
#412=CARTESIAN_POINT('',(1.9,0.,0.396874999999989));
#413=CARTESIAN_POINT('Origin',(1.9,-1.50669826507598E-15,0.));
#414=CARTESIAN_POINT('Origin',(0.,50.,0.));
#415=CARTESIAN_POINT('',(-3.88825358729285E-16,0.,3.175));
#416=CARTESIAN_POINT('Origin',(0.,0.,0.));
#417=CARTESIAN_POINT('',(2.414909294619E-12,9.52499999993806,3.175));
#418=CARTESIAN_POINT('',(-3.88825358729285E-16,50.,3.175));
#419=CARTESIAN_POINT('Ctrl Pts',(4.81528011908594E-12,9.52499999993807,
3.17500000000001));
#420=CARTESIAN_POINT('Ctrl Pts',(-0.140664316597711,9.66566431654075,3.17500000000002));
#421=CARTESIAN_POINT('Ctrl Pts',(-0.281374695993092,9.80637469593685,3.16565221519808));
#422=CARTESIAN_POINT('Ctrl Pts',(-0.753003154438926,10.2780031543833,3.10252775068969));
#423=CARTESIAN_POINT('Ctrl Pts',(-1.08354331599857,10.6085433159428,3.00486979708754));
#424=CARTESIAN_POINT('Ctrl Pts',(-1.82019661331326,11.3451966132584,2.64359743431964));
#425=CARTESIAN_POINT('Ctrl Pts',(-2.18941854172833,11.714418541674,2.3466657465113));
#426=CARTESIAN_POINT('Ctrl Pts',(-2.69697211126898,12.2219721112152,1.71055166871276));
#427=CARTESIAN_POINT('Ctrl Pts',(-2.8799875085318,12.4049875084783,1.39102252426465));
#428=CARTESIAN_POINT('Ctrl Pts',(-3.06018690235979,12.5851869023065,0.863402465348664));
#429=CARTESIAN_POINT('Ctrl Pts',(-3.10350127242798,12.6285012723747,0.693336405870446));
#430=CARTESIAN_POINT('Ctrl Pts',(-3.16062378449781,12.6856237844446,0.347468657269491));
#431=CARTESIAN_POINT('Ctrl Pts',(-3.17500000000001,12.6999999999469,0.174452224830454));
#432=CARTESIAN_POINT('Ctrl Pts',(-3.17499999999999,12.6999999999468,-4.38850344952613E-13));
#433=CARTESIAN_POINT('Ctrl Pts',(3.17500000000012,6.34999999993882,2.73808753448179E-13));
#434=CARTESIAN_POINT('Ctrl Pts',(3.17500000000009,6.34999999993885,0.311252332144574));
#435=CARTESIAN_POINT('Ctrl Pts',(3.1292828169629,6.39571718297608,0.614826817208558));
#436=CARTESIAN_POINT('Ctrl Pts',(2.93810865852561,6.58689134141361,1.25991641288142));
#437=CARTESIAN_POINT('Ctrl Pts',(2.77546521087243,6.74953478906701,1.57810714075857));
#438=CARTESIAN_POINT('Ctrl Pts',(2.34439074404307,7.18060925589692,2.17876193814198));
#439=CARTESIAN_POINT('Ctrl Pts',(2.04938434957134,7.4756156503706,2.45858729423726));
#440=CARTESIAN_POINT('Ctrl Pts',(1.4876592602645,8.03734073967814,2.81705853406609));
#441=CARTESIAN_POINT('Ctrl Pts',(1.25634725493357,8.26865274500776,2.92642103528002));
#442=CARTESIAN_POINT('Ctrl Pts',(0.817588237244643,8.70741176269723,3.0754465345141));
#443=CARTESIAN_POINT('Ctrl Pts',(0.609857942689785,8.91514205725234,3.12296029783121));
#444=CARTESIAN_POINT('Ctrl Pts',(0.399779092572768,9.12522090736962,3.14973081008933));
#445=CARTESIAN_POINT('Ctrl Pts',(0.398210911736379,9.12678908820597,3.14992945447769));
#446=CARTESIAN_POINT('Ctrl Pts',(0.393500215807378,9.13149978413498,3.15052259342083));
#447=CARTESIAN_POINT('Ctrl Pts',(0.390357474116799,9.13464252582527,3.15091352946452));
#448=CARTESIAN_POINT('Ctrl Pts',(0.380903450551746,9.14409654939034,3.15207518808436));
#449=CARTESIAN_POINT('Ctrl Pts',(0.374591267595625,9.15040873234679,3.15283155011025));
#450=CARTESIAN_POINT('Ctrl Pts',(0.342503896306017,9.18249610363644,3.15657875622889));
#451=CARTESIAN_POINT('Ctrl Pts',(0.316710252532351,9.20828974739232,3.15927068593649));
#452=CARTESIAN_POINT('Ctrl Pts',(0.194161955188799,9.33083804473751,3.1705463562261));
#453=CARTESIAN_POINT('Ctrl Pts',(0.0970919504357519,9.42790804950703,3.175));
#454=CARTESIAN_POINT('Ctrl Pts',(4.81139433849975E-12,9.52499999993808,
3.17500000000001));
#455=CARTESIAN_POINT('Origin',(0.,0.,0.));
#456=CARTESIAN_POINT('Ctrl Pts',(-2.98070272748574,12.7428910749474,3.63939614553152));
#457=CARTESIAN_POINT('Ctrl Pts',(-3.13552912981279,12.7428910749474,2.43203043894166));
#458=CARTESIAN_POINT('Ctrl Pts',(-3.21310000000048,12.7428910749474,1.21725230100655));
#459=CARTESIAN_POINT('Ctrl Pts',(-3.21310000000046,12.7428910749474,-4.25440932483312E-13));
#460=CARTESIAN_POINT('Ctrl Pts',(0.206300286297648,9.12333392494275,3.23071118111986));
#461=CARTESIAN_POINT('Ctrl Pts',(0.0688600711826472,9.12333392494275,2.15892626625979));
#462=CARTESIAN_POINT('Ctrl Pts',(-3.85319442408936E-13,9.12333392494275,
1.08056129694323));
#463=CARTESIAN_POINT('Ctrl Pts',(-3.69360575111499E-13,9.12333392494275,
-3.75133951679985E-13));
#464=CARTESIAN_POINT('Ctrl Pts',(3.39330330008104,6.31669107493913,2.82202621670819));
#465=CARTESIAN_POINT('Ctrl Pts',(3.27324927217808,6.31669107493912,1.88582209357793));
#466=CARTESIAN_POINT('Ctrl Pts',(3.2130999999997,6.31669107493912,0.943870292879913));
#467=CARTESIAN_POINT('Ctrl Pts',(3.21309999999972,6.31669107493913,-3.24826970876657E-13));
#468=CARTESIAN_POINT('Origin',(1.9,4.,0.));
#469=CARTESIAN_POINT('Origin',(-1.9,4.,0.));
#470=CARTESIAN_POINT('Origin',(0.595630000000003,3.7,-1.35));
#471=CARTESIAN_POINT('Origin',(0.595629999999994,3.7,1.35));
#472=UNCERTAINTY_MEASURE_WITH_UNIT(LENGTH_MEASURE(0.01),#476,
'DISTANCE_ACCURACY_VALUE',
'Maximum model space distance between geometric entities at asserted c
onnectivities');
#473=UNCERTAINTY_MEASURE_WITH_UNIT(LENGTH_MEASURE(0.01),#476,
'DISTANCE_ACCURACY_VALUE',
'Maximum model space distance between geometric entities at asserted c
onnectivities');
#474=(
GEOMETRIC_REPRESENTATION_CONTEXT(3)
GLOBAL_UNCERTAINTY_ASSIGNED_CONTEXT((#472))
GLOBAL_UNIT_ASSIGNED_CONTEXT((#476,#478,#479))
REPRESENTATION_CONTEXT('','3D')
);
#475=(
GEOMETRIC_REPRESENTATION_CONTEXT(3)
GLOBAL_UNCERTAINTY_ASSIGNED_CONTEXT((#473))
GLOBAL_UNIT_ASSIGNED_CONTEXT((#476,#478,#479))
REPRESENTATION_CONTEXT('','3D')
);
#476=(
LENGTH_UNIT()
NAMED_UNIT(*)
SI_UNIT(.MILLI.,.METRE.)
);
#477=(
LENGTH_UNIT()
NAMED_UNIT(*)
SI_UNIT($,.METRE.)
);
#478=(
NAMED_UNIT(*)
PLANE_ANGLE_UNIT()
SI_UNIT($,.RADIAN.)
);
#479=(
NAMED_UNIT(*)
SI_UNIT($,.STERADIAN.)
SOLID_ANGLE_UNIT()
);
#480=SHAPE_DEFINITION_REPRESENTATION(#481,#482);
#481=PRODUCT_DEFINITION_SHAPE('',$,#484);
#482=SHAPE_REPRESENTATION('',(#235),#474);
#483=PRODUCT_DEFINITION_CONTEXT('part definition',#488,'design');
#484=PRODUCT_DEFINITION('step_37290','step_37290 v1',#485,#483);
#485=PRODUCT_DEFINITION_FORMATION('',$,#490);
#486=PRODUCT_RELATED_PRODUCT_CATEGORY('step_37290 v1','step_37290 v1',(#490));
#487=APPLICATION_PROTOCOL_DEFINITION('international standard',
'automotive_design',2009,#488);
#488=APPLICATION_CONTEXT(
'Core Data for Automotive Mechanical Design Process');
#489=PRODUCT_CONTEXT('part definition',#488,'mechanical');
#490=PRODUCT('step_37290','step_37290 v1',$,(#489));
#491=PRESENTATION_STYLE_ASSIGNMENT((#492));
#492=SURFACE_STYLE_USAGE(.BOTH.,#493);
#493=SURFACE_SIDE_STYLE('',(#494));
#494=SURFACE_STYLE_FILL_AREA(#495);
#495=FILL_AREA_STYLE('Steel - Satin',(#496));
#496=FILL_AREA_STYLE_COLOUR('Steel - Satin',#497);
#497=COLOUR_RGB('Steel - Satin',0.627450980392157,0.627450980392157,0.627450980392157);
ENDSEC;
END-ISO-10303-21;
