ISO-10303-21;
HEADER;
/* Generated by software containing ST-Developer
 * from STEP Tools, Inc. (www.steptools.com) 
 */

FILE_DESCRIPTION(
/* description */ (''),
/* implementation_level */ '2;1');

FILE_NAME(
/* name */ 'deuterium compression device v6.step',
/* time_stamp */ '2024-06-17T10:46:14+02:00',
/* author */ (''),
/* organization */ (''),
/* preprocessor_version */ 'ST-DEVELOPER v20',
/* originating_system */ 'Autodesk Translation Framework v13.14.0.145',

/* authorisation */ '');

FILE_SCHEMA (('AUTOMOTIVE_DESIGN { 1 0 10303 214 3 1 1 }'));
ENDSEC;

DATA;
#10=MECHANICAL_DESIGN_GEOMETRIC_PRESENTATION_REPRESENTATION('',(#45,#46,
#47,#48,#49,#50,#51),#1208);
#11=SHAPE_REPRESENTATION_RELATIONSHIP('SRR','None',#1215,#12);
#12=ADVANCED_BREP_SHAPE_REPRESENTATION('',(#52,#53,#54,#55,#56,#57,#58),
#1207);
#13=CONICAL_SURFACE('',#723,9.75,0.78539816339744);
#14=CONICAL_SURFACE('',#732,9.75,0.785398163397441);
#15=CONICAL_SURFACE('',#775,7.75000000000001,0.785398163397477);
#16=FACE_BOUND('',#188,.T.);
#17=FACE_BOUND('',#191,.T.);
#18=FACE_BOUND('',#194,.T.);
#19=FACE_BOUND('',#197,.T.);
#20=FACE_BOUND('',#200,.T.);
#21=FACE_BOUND('',#203,.T.);
#22=FACE_BOUND('',#207,.T.);
#23=FACE_BOUND('',#210,.T.);
#24=FACE_BOUND('',#213,.T.);
#25=FACE_BOUND('',#219,.T.);
#26=FACE_BOUND('',#220,.T.);
#27=FACE_BOUND('',#221,.T.);
#28=FACE_BOUND('',#222,.T.);
#29=FACE_BOUND('',#225,.T.);
#30=FACE_BOUND('',#226,.T.);
#31=FACE_BOUND('',#227,.T.);
#32=FACE_BOUND('',#228,.T.);
#33=FACE_BOUND('',#235,.T.);
#34=FACE_BOUND('',#236,.T.);
#35=FACE_BOUND('',#237,.T.);
#36=FACE_BOUND('',#238,.T.);
#37=FACE_BOUND('',#241,.T.);
#38=FACE_BOUND('',#242,.T.);
#39=FACE_BOUND('',#243,.T.);
#40=FACE_BOUND('',#244,.T.);
#41=FACE_BOUND('',#247,.T.);
#42=FACE_BOUND('',#250,.T.);
#43=FACE_BOUND('',#253,.T.);
#44=FACE_BOUND('',#256,.T.);
#45=STYLED_ITEM('',(#1224),#52);
#46=STYLED_ITEM('',(#1224),#53);
#47=STYLED_ITEM('',(#1224),#54);
#48=STYLED_ITEM('',(#1224),#55);
#49=STYLED_ITEM('',(#1224),#56);
#50=STYLED_ITEM('',(#1224),#57);
#51=STYLED_ITEM('',(#1224),#58);
#52=MANIFOLD_SOLID_BREP('Kolbenstange',#674);
#53=MANIFOLD_SOLID_BREP('Rohr',#675);
#54=MANIFOLD_SOLID_BREP('Ueberwurf',#676);
#55=MANIFOLD_SOLID_BREP('Schraubplatte Rohr',#677);
#56=MANIFOLD_SOLID_BREP('Schraubplatte Kolben',#678);
#57=MANIFOLD_SOLID_BREP('Endstopfen',#679);
#58=MANIFOLD_SOLID_BREP('Rohranbindung',#680);
#59=LINE('',#1030,#86);
#60=LINE('',#1036,#87);
#61=LINE('',#1044,#88);
#62=LINE('',#1051,#89);
#63=LINE('',#1058,#90);
#64=LINE('',#1065,#91);
#65=LINE('',#1071,#92);
#66=LINE('',#1078,#93);
#67=LINE('',#1084,#94);
#68=LINE('',#1093,#95);
#69=LINE('',#1100,#96);
#70=LINE('',#1106,#97);
#71=LINE('',#1111,#98);
#72=LINE('',#1117,#99);
#73=LINE('',#1123,#100);
#74=LINE('',#1132,#101);
#75=LINE('',#1138,#102);
#76=LINE('',#1143,#103);
#77=LINE('',#1149,#104);
#78=LINE('',#1155,#105);
#79=LINE('',#1161,#106);
#80=LINE('',#1169,#107);
#81=LINE('',#1177,#108);
#82=LINE('',#1185,#109);
#83=LINE('',#1190,#110);
#84=LINE('',#1198,#111);
#85=LINE('',#1204,#112);
#86=VECTOR('',#804,4.00000000000004);
#87=VECTOR('',#811,7.);
#88=VECTOR('',#822,7.5);
#89=VECTOR('',#831,7.15);
#90=VECTOR('',#840,7.5);
#91=VECTOR('',#849,8.00000000000001);
#92=VECTOR('',#856,4.0000000000001);
#93=VECTOR('',#865,9.74999999999999);
#94=VECTOR('',#872,10.);
#95=VECTOR('',#883,9.75);
#96=VECTOR('',#892,7.);
#97=VECTOR('',#901,4.00000000000006);
#98=VECTOR('',#906,3.3);
#99=VECTOR('',#913,3.3);
#100=VECTOR('',#920,3.3);
#101=VECTOR('',#931,7.5);
#102=VECTOR('',#940,16.9999999999998);
#103=VECTOR('',#945,3.3);
#104=VECTOR('',#952,3.3);
#105=VECTOR('',#959,3.3);
#106=VECTOR('',#966,4.00000000000006);
#107=VECTOR('',#977,17.);
#108=VECTOR('',#986,7.75000000000001);
#109=VECTOR('',#997,8.00000000000001);
#110=VECTOR('',#1004,3.00000000000002);
#111=VECTOR('',#1013,1.00000001490116);
#112=VECTOR('',#1022,3.00000000000002);
#113=CYLINDRICAL_SURFACE('',#696,4.00000000000004);
#114=CYLINDRICAL_SURFACE('',#699,7.);
#115=CYLINDRICAL_SURFACE('',#704,7.5);
#116=CYLINDRICAL_SURFACE('',#708,7.15);
#117=CYLINDRICAL_SURFACE('',#712,7.5);
#118=CYLINDRICAL_SURFACE('',#716,8.00000000000001);
#119=CYLINDRICAL_SURFACE('',#720,4.0000000000001);
#120=CYLINDRICAL_SURFACE('',#727,10.);
#121=CYLINDRICAL_SURFACE('',#736,7.);
#122=CYLINDRICAL_SURFACE('',#740,4.00000000000006);
#123=CYLINDRICAL_SURFACE('',#741,3.3);
#124=CYLINDRICAL_SURFACE('',#744,3.3);
#125=CYLINDRICAL_SURFACE('',#747,3.3);
#126=CYLINDRICAL_SURFACE('',#753,7.5);
#127=CYLINDRICAL_SURFACE('',#757,16.9999999999998);
#128=CYLINDRICAL_SURFACE('',#758,3.3);
#129=CYLINDRICAL_SURFACE('',#761,3.3);
#130=CYLINDRICAL_SURFACE('',#764,3.3);
#131=CYLINDRICAL_SURFACE('',#767,4.00000000000006);
#132=CYLINDRICAL_SURFACE('',#772,17.);
#133=CYLINDRICAL_SURFACE('',#781,8.00000000000001);
#134=CYLINDRICAL_SURFACE('',#785,3.00000000000002);
#135=CYLINDRICAL_SURFACE('',#789,1.00000001490116);
#136=CYLINDRICAL_SURFACE('',#793,3.00000000000002);
#137=FACE_OUTER_BOUND('',#183,.T.);
#138=FACE_OUTER_BOUND('',#184,.T.);
#139=FACE_OUTER_BOUND('',#185,.T.);
#140=FACE_OUTER_BOUND('',#186,.T.);
#141=FACE_OUTER_BOUND('',#187,.T.);
#142=FACE_OUTER_BOUND('',#189,.T.);
#143=FACE_OUTER_BOUND('',#190,.T.);
#144=FACE_OUTER_BOUND('',#192,.T.);
#145=FACE_OUTER_BOUND('',#193,.T.);
#146=FACE_OUTER_BOUND('',#195,.T.);
#147=FACE_OUTER_BOUND('',#196,.T.);
#148=FACE_OUTER_BOUND('',#198,.T.);
#149=FACE_OUTER_BOUND('',#199,.T.);
#150=FACE_OUTER_BOUND('',#201,.T.);
#151=FACE_OUTER_BOUND('',#202,.T.);
#152=FACE_OUTER_BOUND('',#204,.T.);
#153=FACE_OUTER_BOUND('',#205,.T.);
#154=FACE_OUTER_BOUND('',#206,.T.);
#155=FACE_OUTER_BOUND('',#208,.T.);
#156=FACE_OUTER_BOUND('',#209,.T.);
#157=FACE_OUTER_BOUND('',#211,.T.);
#158=FACE_OUTER_BOUND('',#212,.T.);
#159=FACE_OUTER_BOUND('',#214,.T.);
#160=FACE_OUTER_BOUND('',#215,.T.);
#161=FACE_OUTER_BOUND('',#216,.T.);
#162=FACE_OUTER_BOUND('',#217,.T.);
#163=FACE_OUTER_BOUND('',#218,.T.);
#164=FACE_OUTER_BOUND('',#223,.T.);
#165=FACE_OUTER_BOUND('',#224,.T.);
#166=FACE_OUTER_BOUND('',#229,.T.);
#167=FACE_OUTER_BOUND('',#230,.T.);
#168=FACE_OUTER_BOUND('',#231,.T.);
#169=FACE_OUTER_BOUND('',#232,.T.);
#170=FACE_OUTER_BOUND('',#233,.T.);
#171=FACE_OUTER_BOUND('',#234,.T.);
#172=FACE_OUTER_BOUND('',#239,.T.);
#173=FACE_OUTER_BOUND('',#240,.T.);
#174=FACE_OUTER_BOUND('',#245,.T.);
#175=FACE_OUTER_BOUND('',#246,.T.);
#176=FACE_OUTER_BOUND('',#248,.T.);
#177=FACE_OUTER_BOUND('',#249,.T.);
#178=FACE_OUTER_BOUND('',#251,.T.);
#179=FACE_OUTER_BOUND('',#252,.T.);
#180=FACE_OUTER_BOUND('',#254,.T.);
#181=FACE_OUTER_BOUND('',#255,.T.);
#182=FACE_OUTER_BOUND('',#257,.T.);
#183=EDGE_LOOP('',(#447));
#184=EDGE_LOOP('',(#448,#449,#450,#451));
#185=EDGE_LOOP('',(#452));
#186=EDGE_LOOP('',(#453,#454,#455,#456));
#187=EDGE_LOOP('',(#457));
#188=EDGE_LOOP('',(#458));
#189=EDGE_LOOP('',(#459,#460,#461,#462));
#190=EDGE_LOOP('',(#463));
#191=EDGE_LOOP('',(#464));
#192=EDGE_LOOP('',(#465,#466,#467,#468));
#193=EDGE_LOOP('',(#469));
#194=EDGE_LOOP('',(#470));
#195=EDGE_LOOP('',(#471,#472,#473,#474));
#196=EDGE_LOOP('',(#475));
#197=EDGE_LOOP('',(#476));
#198=EDGE_LOOP('',(#477,#478,#479,#480));
#199=EDGE_LOOP('',(#481));
#200=EDGE_LOOP('',(#482));
#201=EDGE_LOOP('',(#483,#484,#485,#486));
#202=EDGE_LOOP('',(#487));
#203=EDGE_LOOP('',(#488));
#204=EDGE_LOOP('',(#489,#490,#491,#492,#493));
#205=EDGE_LOOP('',(#494,#495,#496,#497,#498,#499));
#206=EDGE_LOOP('',(#500));
#207=EDGE_LOOP('',(#501));
#208=EDGE_LOOP('',(#502,#503,#504,#505,#506));
#209=EDGE_LOOP('',(#507));
#210=EDGE_LOOP('',(#508));
#211=EDGE_LOOP('',(#509,#510,#511,#512));
#212=EDGE_LOOP('',(#513));
#213=EDGE_LOOP('',(#514));
#214=EDGE_LOOP('',(#515,#516,#517,#518));
#215=EDGE_LOOP('',(#519,#520,#521,#522));
#216=EDGE_LOOP('',(#523,#524,#525,#526));
#217=EDGE_LOOP('',(#527,#528,#529,#530));
#218=EDGE_LOOP('',(#531));
#219=EDGE_LOOP('',(#532));
#220=EDGE_LOOP('',(#533));
#221=EDGE_LOOP('',(#534));
#222=EDGE_LOOP('',(#535));
#223=EDGE_LOOP('',(#536,#537,#538,#539));
#224=EDGE_LOOP('',(#540));
#225=EDGE_LOOP('',(#541));
#226=EDGE_LOOP('',(#542));
#227=EDGE_LOOP('',(#543));
#228=EDGE_LOOP('',(#544));
#229=EDGE_LOOP('',(#545,#546,#547,#548));
#230=EDGE_LOOP('',(#549,#550,#551,#552));
#231=EDGE_LOOP('',(#553,#554,#555,#556));
#232=EDGE_LOOP('',(#557,#558,#559,#560));
#233=EDGE_LOOP('',(#561,#562,#563,#564));
#234=EDGE_LOOP('',(#565));
#235=EDGE_LOOP('',(#566));
#236=EDGE_LOOP('',(#567));
#237=EDGE_LOOP('',(#568));
#238=EDGE_LOOP('',(#569));
#239=EDGE_LOOP('',(#570,#571,#572,#573));
#240=EDGE_LOOP('',(#574));
#241=EDGE_LOOP('',(#575));
#242=EDGE_LOOP('',(#576));
#243=EDGE_LOOP('',(#577));
#244=EDGE_LOOP('',(#578));
#245=EDGE_LOOP('',(#579,#580,#581,#582,#583));
#246=EDGE_LOOP('',(#584));
#247=EDGE_LOOP('',(#585));
#248=EDGE_LOOP('',(#586,#587,#588,#589,#590));
#249=EDGE_LOOP('',(#591));
#250=EDGE_LOOP('',(#592));
#251=EDGE_LOOP('',(#593,#594,#595,#596));
#252=EDGE_LOOP('',(#597));
#253=EDGE_LOOP('',(#598));
#254=EDGE_LOOP('',(#599,#600,#601,#602));
#255=EDGE_LOOP('',(#603));
#256=EDGE_LOOP('',(#604));
#257=EDGE_LOOP('',(#605,#606,#607,#608));
#258=CIRCLE('',#695,4.);
#259=CIRCLE('',#697,4.00000000000008);
#260=CIRCLE('',#700,7.);
#261=CIRCLE('',#701,7.);
#262=CIRCLE('',#703,7.5);
#263=CIRCLE('',#705,7.5);
#264=CIRCLE('',#707,7.15);
#265=CIRCLE('',#709,7.15);
#266=CIRCLE('',#711,7.5);
#267=CIRCLE('',#713,7.5);
#268=CIRCLE('',#715,8.00000000000002);
#269=CIRCLE('',#717,8.00000000000001);
#270=CIRCLE('',#719,4.00000000000014);
#271=CIRCLE('',#721,4.00000000000009);
#272=CIRCLE('',#724,9.5);
#273=CIRCLE('',#725,10.);
#274=CIRCLE('',#726,10.);
#275=CIRCLE('',#728,10.);
#276=CIRCLE('',#729,10.);
#277=CIRCLE('',#731,7.);
#278=CIRCLE('',#733,9.5);
#279=CIRCLE('',#735,4.00000000000009);
#280=CIRCLE('',#737,7.);
#281=CIRCLE('',#739,4.00000000000006);
#282=CIRCLE('',#742,3.3);
#283=CIRCLE('',#743,3.3);
#284=CIRCLE('',#745,3.3);
#285=CIRCLE('',#746,3.3);
#286=CIRCLE('',#748,3.3);
#287=CIRCLE('',#749,3.3);
#288=CIRCLE('',#751,16.9999999999998);
#289=CIRCLE('',#752,7.5);
#290=CIRCLE('',#754,7.5);
#291=CIRCLE('',#756,16.9999999999998);
#292=CIRCLE('',#759,3.3);
#293=CIRCLE('',#760,3.3);
#294=CIRCLE('',#762,3.3);
#295=CIRCLE('',#763,3.3);
#296=CIRCLE('',#765,3.3);
#297=CIRCLE('',#766,3.3);
#298=CIRCLE('',#768,4.00000000000009);
#299=CIRCLE('',#769,4.00000000000009);
#300=CIRCLE('',#771,17.);
#301=CIRCLE('',#773,17.);
#302=CIRCLE('',#776,8.00000000000001);
#303=CIRCLE('',#777,8.00000000000001);
#304=CIRCLE('',#778,7.50000000000001);
#305=CIRCLE('',#780,3.00000000000002);
#306=CIRCLE('',#782,8.00000000000001);
#307=CIRCLE('',#784,3.00000000000003);
#308=CIRCLE('',#787,3.00000000000002);
#309=CIRCLE('',#788,1.00000001490116);
#310=CIRCLE('',#790,1.00000001490116);
#311=CIRCLE('',#792,3.00000000000002);
#312=VERTEX_POINT('',#1025);
#313=VERTEX_POINT('',#1028);
#314=VERTEX_POINT('',#1033);
#315=VERTEX_POINT('',#1035);
#316=VERTEX_POINT('',#1039);
#317=VERTEX_POINT('',#1042);
#318=VERTEX_POINT('',#1046);
#319=VERTEX_POINT('',#1049);
#320=VERTEX_POINT('',#1053);
#321=VERTEX_POINT('',#1056);
#322=VERTEX_POINT('',#1060);
#323=VERTEX_POINT('',#1063);
#324=VERTEX_POINT('',#1067);
#325=VERTEX_POINT('',#1070);
#326=VERTEX_POINT('',#1075);
#327=VERTEX_POINT('',#1077);
#328=VERTEX_POINT('',#1079);
#329=VERTEX_POINT('',#1083);
#330=VERTEX_POINT('',#1085);
#331=VERTEX_POINT('',#1089);
#332=VERTEX_POINT('',#1092);
#333=VERTEX_POINT('',#1096);
#334=VERTEX_POINT('',#1099);
#335=VERTEX_POINT('',#1103);
#336=VERTEX_POINT('',#1108);
#337=VERTEX_POINT('',#1110);
#338=VERTEX_POINT('',#1114);
#339=VERTEX_POINT('',#1116);
#340=VERTEX_POINT('',#1120);
#341=VERTEX_POINT('',#1122);
#342=VERTEX_POINT('',#1126);
#343=VERTEX_POINT('',#1128);
#344=VERTEX_POINT('',#1131);
#345=VERTEX_POINT('',#1135);
#346=VERTEX_POINT('',#1140);
#347=VERTEX_POINT('',#1142);
#348=VERTEX_POINT('',#1146);
#349=VERTEX_POINT('',#1148);
#350=VERTEX_POINT('',#1152);
#351=VERTEX_POINT('',#1154);
#352=VERTEX_POINT('',#1158);
#353=VERTEX_POINT('',#1160);
#354=VERTEX_POINT('',#1164);
#355=VERTEX_POINT('',#1167);
#356=VERTEX_POINT('',#1172);
#357=VERTEX_POINT('',#1173);
#358=VERTEX_POINT('',#1176);
#359=VERTEX_POINT('',#1180);
#360=VERTEX_POINT('',#1183);
#361=VERTEX_POINT('',#1187);
#362=VERTEX_POINT('',#1192);
#363=VERTEX_POINT('',#1194);
#364=VERTEX_POINT('',#1197);
#365=VERTEX_POINT('',#1201);
#366=EDGE_CURVE('',#312,#312,#258,.T.);
#367=EDGE_CURVE('',#313,#313,#259,.T.);
#368=EDGE_CURVE('',#313,#312,#59,.T.);
#369=EDGE_CURVE('',#314,#314,#260,.T.);
#370=EDGE_CURVE('',#314,#315,#60,.T.);
#371=EDGE_CURVE('',#315,#315,#261,.T.);
#372=EDGE_CURVE('',#316,#316,#262,.T.);
#373=EDGE_CURVE('',#317,#317,#263,.T.);
#374=EDGE_CURVE('',#317,#316,#61,.T.);
#375=EDGE_CURVE('',#318,#318,#264,.T.);
#376=EDGE_CURVE('',#319,#319,#265,.T.);
#377=EDGE_CURVE('',#319,#318,#62,.T.);
#378=EDGE_CURVE('',#320,#320,#266,.T.);
#379=EDGE_CURVE('',#321,#321,#267,.T.);
#380=EDGE_CURVE('',#321,#320,#63,.T.);
#381=EDGE_CURVE('',#322,#322,#268,.T.);
#382=EDGE_CURVE('',#323,#323,#269,.T.);
#383=EDGE_CURVE('',#323,#322,#64,.T.);
#384=EDGE_CURVE('',#324,#324,#270,.T.);
#385=EDGE_CURVE('',#324,#325,#65,.T.);
#386=EDGE_CURVE('',#325,#325,#271,.T.);
#387=EDGE_CURVE('',#326,#326,#272,.T.);
#388=EDGE_CURVE('',#326,#327,#66,.T.);
#389=EDGE_CURVE('',#327,#328,#273,.T.);
#390=EDGE_CURVE('',#328,#327,#274,.T.);
#391=EDGE_CURVE('',#328,#329,#67,.T.);
#392=EDGE_CURVE('',#330,#329,#275,.T.);
#393=EDGE_CURVE('',#329,#330,#276,.T.);
#394=EDGE_CURVE('',#331,#331,#277,.T.);
#395=EDGE_CURVE('',#330,#332,#68,.T.);
#396=EDGE_CURVE('',#332,#332,#278,.T.);
#397=EDGE_CURVE('',#333,#333,#279,.T.);
#398=EDGE_CURVE('',#331,#334,#69,.T.);
#399=EDGE_CURVE('',#334,#334,#280,.T.);
#400=EDGE_CURVE('',#335,#335,#281,.T.);
#401=EDGE_CURVE('',#335,#333,#70,.T.);
#402=EDGE_CURVE('',#336,#336,#282,.T.);
#403=EDGE_CURVE('',#336,#337,#71,.T.);
#404=EDGE_CURVE('',#337,#337,#283,.T.);
#405=EDGE_CURVE('',#338,#338,#284,.T.);
#406=EDGE_CURVE('',#338,#339,#72,.T.);
#407=EDGE_CURVE('',#339,#339,#285,.T.);
#408=EDGE_CURVE('',#340,#340,#286,.T.);
#409=EDGE_CURVE('',#340,#341,#73,.T.);
#410=EDGE_CURVE('',#341,#341,#287,.T.);
#411=EDGE_CURVE('',#342,#342,#288,.T.);
#412=EDGE_CURVE('',#343,#343,#289,.T.);
#413=EDGE_CURVE('',#343,#344,#74,.T.);
#414=EDGE_CURVE('',#344,#344,#290,.T.);
#415=EDGE_CURVE('',#345,#345,#291,.T.);
#416=EDGE_CURVE('',#342,#345,#75,.T.);
#417=EDGE_CURVE('',#346,#346,#292,.T.);
#418=EDGE_CURVE('',#346,#347,#76,.T.);
#419=EDGE_CURVE('',#347,#347,#293,.T.);
#420=EDGE_CURVE('',#348,#348,#294,.T.);
#421=EDGE_CURVE('',#348,#349,#77,.T.);
#422=EDGE_CURVE('',#349,#349,#295,.T.);
#423=EDGE_CURVE('',#350,#350,#296,.T.);
#424=EDGE_CURVE('',#350,#351,#78,.T.);
#425=EDGE_CURVE('',#351,#351,#297,.T.);
#426=EDGE_CURVE('',#352,#352,#298,.T.);
#427=EDGE_CURVE('',#352,#353,#79,.T.);
#428=EDGE_CURVE('',#353,#353,#299,.T.);
#429=EDGE_CURVE('',#354,#354,#300,.T.);
#430=EDGE_CURVE('',#355,#355,#301,.T.);
#431=EDGE_CURVE('',#355,#354,#80,.T.);
#432=EDGE_CURVE('',#356,#357,#302,.T.);
#433=EDGE_CURVE('',#357,#356,#303,.T.);
#434=EDGE_CURVE('',#356,#358,#81,.T.);
#435=EDGE_CURVE('',#358,#358,#304,.T.);
#436=EDGE_CURVE('',#359,#359,#305,.T.);
#437=EDGE_CURVE('',#360,#360,#306,.T.);
#438=EDGE_CURVE('',#360,#357,#82,.T.);
#439=EDGE_CURVE('',#361,#361,#307,.T.);
#440=EDGE_CURVE('',#361,#359,#83,.T.);
#441=EDGE_CURVE('',#362,#362,#308,.T.);
#442=EDGE_CURVE('',#363,#363,#309,.T.);
#443=EDGE_CURVE('',#363,#364,#84,.T.);
#444=EDGE_CURVE('',#364,#364,#310,.T.);
#445=EDGE_CURVE('',#365,#365,#311,.T.);
#446=EDGE_CURVE('',#362,#365,#85,.T.);
#447=ORIENTED_EDGE('',*,*,#366,.F.);
#448=ORIENTED_EDGE('',*,*,#367,.F.);
#449=ORIENTED_EDGE('',*,*,#368,.T.);
#450=ORIENTED_EDGE('',*,*,#366,.T.);
#451=ORIENTED_EDGE('',*,*,#368,.F.);
#452=ORIENTED_EDGE('',*,*,#367,.T.);
#453=ORIENTED_EDGE('',*,*,#369,.F.);
#454=ORIENTED_EDGE('',*,*,#370,.T.);
#455=ORIENTED_EDGE('',*,*,#371,.T.);
#456=ORIENTED_EDGE('',*,*,#370,.F.);
#457=ORIENTED_EDGE('',*,*,#372,.F.);
#458=ORIENTED_EDGE('',*,*,#369,.T.);
#459=ORIENTED_EDGE('',*,*,#373,.F.);
#460=ORIENTED_EDGE('',*,*,#374,.T.);
#461=ORIENTED_EDGE('',*,*,#372,.T.);
#462=ORIENTED_EDGE('',*,*,#374,.F.);
#463=ORIENTED_EDGE('',*,*,#373,.T.);
#464=ORIENTED_EDGE('',*,*,#375,.F.);
#465=ORIENTED_EDGE('',*,*,#376,.F.);
#466=ORIENTED_EDGE('',*,*,#377,.T.);
#467=ORIENTED_EDGE('',*,*,#375,.T.);
#468=ORIENTED_EDGE('',*,*,#377,.F.);
#469=ORIENTED_EDGE('',*,*,#378,.F.);
#470=ORIENTED_EDGE('',*,*,#376,.T.);
#471=ORIENTED_EDGE('',*,*,#379,.F.);
#472=ORIENTED_EDGE('',*,*,#380,.T.);
#473=ORIENTED_EDGE('',*,*,#378,.T.);
#474=ORIENTED_EDGE('',*,*,#380,.F.);
#475=ORIENTED_EDGE('',*,*,#381,.F.);
#476=ORIENTED_EDGE('',*,*,#379,.T.);
#477=ORIENTED_EDGE('',*,*,#382,.F.);
#478=ORIENTED_EDGE('',*,*,#383,.T.);
#479=ORIENTED_EDGE('',*,*,#381,.T.);
#480=ORIENTED_EDGE('',*,*,#383,.F.);
#481=ORIENTED_EDGE('',*,*,#382,.T.);
#482=ORIENTED_EDGE('',*,*,#384,.F.);
#483=ORIENTED_EDGE('',*,*,#384,.T.);
#484=ORIENTED_EDGE('',*,*,#385,.T.);
#485=ORIENTED_EDGE('',*,*,#386,.F.);
#486=ORIENTED_EDGE('',*,*,#385,.F.);
#487=ORIENTED_EDGE('',*,*,#371,.F.);
#488=ORIENTED_EDGE('',*,*,#386,.T.);
#489=ORIENTED_EDGE('',*,*,#387,.T.);
#490=ORIENTED_EDGE('',*,*,#388,.T.);
#491=ORIENTED_EDGE('',*,*,#389,.T.);
#492=ORIENTED_EDGE('',*,*,#390,.T.);
#493=ORIENTED_EDGE('',*,*,#388,.F.);
#494=ORIENTED_EDGE('',*,*,#389,.F.);
#495=ORIENTED_EDGE('',*,*,#390,.F.);
#496=ORIENTED_EDGE('',*,*,#391,.T.);
#497=ORIENTED_EDGE('',*,*,#392,.F.);
#498=ORIENTED_EDGE('',*,*,#393,.F.);
#499=ORIENTED_EDGE('',*,*,#391,.F.);
#500=ORIENTED_EDGE('',*,*,#387,.F.);
#501=ORIENTED_EDGE('',*,*,#394,.F.);
#502=ORIENTED_EDGE('',*,*,#392,.T.);
#503=ORIENTED_EDGE('',*,*,#393,.T.);
#504=ORIENTED_EDGE('',*,*,#395,.T.);
#505=ORIENTED_EDGE('',*,*,#396,.T.);
#506=ORIENTED_EDGE('',*,*,#395,.F.);
#507=ORIENTED_EDGE('',*,*,#396,.F.);
#508=ORIENTED_EDGE('',*,*,#397,.T.);
#509=ORIENTED_EDGE('',*,*,#394,.T.);
#510=ORIENTED_EDGE('',*,*,#398,.T.);
#511=ORIENTED_EDGE('',*,*,#399,.F.);
#512=ORIENTED_EDGE('',*,*,#398,.F.);
#513=ORIENTED_EDGE('',*,*,#399,.T.);
#514=ORIENTED_EDGE('',*,*,#400,.F.);
#515=ORIENTED_EDGE('',*,*,#400,.T.);
#516=ORIENTED_EDGE('',*,*,#401,.T.);
#517=ORIENTED_EDGE('',*,*,#397,.F.);
#518=ORIENTED_EDGE('',*,*,#401,.F.);
#519=ORIENTED_EDGE('',*,*,#402,.F.);
#520=ORIENTED_EDGE('',*,*,#403,.T.);
#521=ORIENTED_EDGE('',*,*,#404,.F.);
#522=ORIENTED_EDGE('',*,*,#403,.F.);
#523=ORIENTED_EDGE('',*,*,#405,.F.);
#524=ORIENTED_EDGE('',*,*,#406,.T.);
#525=ORIENTED_EDGE('',*,*,#407,.F.);
#526=ORIENTED_EDGE('',*,*,#406,.F.);
#527=ORIENTED_EDGE('',*,*,#408,.F.);
#528=ORIENTED_EDGE('',*,*,#409,.T.);
#529=ORIENTED_EDGE('',*,*,#410,.F.);
#530=ORIENTED_EDGE('',*,*,#409,.F.);
#531=ORIENTED_EDGE('',*,*,#411,.T.);
#532=ORIENTED_EDGE('',*,*,#404,.T.);
#533=ORIENTED_EDGE('',*,*,#407,.T.);
#534=ORIENTED_EDGE('',*,*,#410,.T.);
#535=ORIENTED_EDGE('',*,*,#412,.F.);
#536=ORIENTED_EDGE('',*,*,#412,.T.);
#537=ORIENTED_EDGE('',*,*,#413,.T.);
#538=ORIENTED_EDGE('',*,*,#414,.F.);
#539=ORIENTED_EDGE('',*,*,#413,.F.);
#540=ORIENTED_EDGE('',*,*,#415,.F.);
#541=ORIENTED_EDGE('',*,*,#402,.T.);
#542=ORIENTED_EDGE('',*,*,#405,.T.);
#543=ORIENTED_EDGE('',*,*,#408,.T.);
#544=ORIENTED_EDGE('',*,*,#414,.T.);
#545=ORIENTED_EDGE('',*,*,#411,.F.);
#546=ORIENTED_EDGE('',*,*,#416,.T.);
#547=ORIENTED_EDGE('',*,*,#415,.T.);
#548=ORIENTED_EDGE('',*,*,#416,.F.);
#549=ORIENTED_EDGE('',*,*,#417,.F.);
#550=ORIENTED_EDGE('',*,*,#418,.T.);
#551=ORIENTED_EDGE('',*,*,#419,.F.);
#552=ORIENTED_EDGE('',*,*,#418,.F.);
#553=ORIENTED_EDGE('',*,*,#420,.F.);
#554=ORIENTED_EDGE('',*,*,#421,.T.);
#555=ORIENTED_EDGE('',*,*,#422,.F.);
#556=ORIENTED_EDGE('',*,*,#421,.F.);
#557=ORIENTED_EDGE('',*,*,#423,.F.);
#558=ORIENTED_EDGE('',*,*,#424,.T.);
#559=ORIENTED_EDGE('',*,*,#425,.F.);
#560=ORIENTED_EDGE('',*,*,#424,.F.);
#561=ORIENTED_EDGE('',*,*,#426,.T.);
#562=ORIENTED_EDGE('',*,*,#427,.T.);
#563=ORIENTED_EDGE('',*,*,#428,.F.);
#564=ORIENTED_EDGE('',*,*,#427,.F.);
#565=ORIENTED_EDGE('',*,*,#429,.F.);
#566=ORIENTED_EDGE('',*,*,#417,.T.);
#567=ORIENTED_EDGE('',*,*,#420,.T.);
#568=ORIENTED_EDGE('',*,*,#423,.T.);
#569=ORIENTED_EDGE('',*,*,#428,.T.);
#570=ORIENTED_EDGE('',*,*,#430,.F.);
#571=ORIENTED_EDGE('',*,*,#431,.T.);
#572=ORIENTED_EDGE('',*,*,#429,.T.);
#573=ORIENTED_EDGE('',*,*,#431,.F.);
#574=ORIENTED_EDGE('',*,*,#430,.T.);
#575=ORIENTED_EDGE('',*,*,#419,.T.);
#576=ORIENTED_EDGE('',*,*,#422,.T.);
#577=ORIENTED_EDGE('',*,*,#425,.T.);
#578=ORIENTED_EDGE('',*,*,#426,.F.);
#579=ORIENTED_EDGE('',*,*,#432,.T.);
#580=ORIENTED_EDGE('',*,*,#433,.T.);
#581=ORIENTED_EDGE('',*,*,#434,.T.);
#582=ORIENTED_EDGE('',*,*,#435,.T.);
#583=ORIENTED_EDGE('',*,*,#434,.F.);
#584=ORIENTED_EDGE('',*,*,#435,.F.);
#585=ORIENTED_EDGE('',*,*,#436,.T.);
#586=ORIENTED_EDGE('',*,*,#437,.F.);
#587=ORIENTED_EDGE('',*,*,#438,.T.);
#588=ORIENTED_EDGE('',*,*,#432,.F.);
#589=ORIENTED_EDGE('',*,*,#433,.F.);
#590=ORIENTED_EDGE('',*,*,#438,.F.);
#591=ORIENTED_EDGE('',*,*,#437,.T.);
#592=ORIENTED_EDGE('',*,*,#439,.F.);
#593=ORIENTED_EDGE('',*,*,#439,.T.);
#594=ORIENTED_EDGE('',*,*,#440,.T.);
#595=ORIENTED_EDGE('',*,*,#436,.F.);
#596=ORIENTED_EDGE('',*,*,#440,.F.);
#597=ORIENTED_EDGE('',*,*,#441,.T.);
#598=ORIENTED_EDGE('',*,*,#442,.F.);
#599=ORIENTED_EDGE('',*,*,#442,.T.);
#600=ORIENTED_EDGE('',*,*,#443,.T.);
#601=ORIENTED_EDGE('',*,*,#444,.F.);
#602=ORIENTED_EDGE('',*,*,#443,.F.);
#603=ORIENTED_EDGE('',*,*,#445,.F.);
#604=ORIENTED_EDGE('',*,*,#444,.T.);
#605=ORIENTED_EDGE('',*,*,#441,.F.);
#606=ORIENTED_EDGE('',*,*,#446,.T.);
#607=ORIENTED_EDGE('',*,*,#445,.T.);
#608=ORIENTED_EDGE('',*,*,#446,.F.);
#609=PLANE('',#694);
#610=PLANE('',#698);
#611=PLANE('',#702);
#612=PLANE('',#706);
#613=PLANE('',#710);
#614=PLANE('',#714);
#615=PLANE('',#718);
#616=PLANE('',#722);
#617=PLANE('',#730);
#618=PLANE('',#734);
#619=PLANE('',#738);
#620=PLANE('',#750);
#621=PLANE('',#755);
#622=PLANE('',#770);
#623=PLANE('',#774);
#624=PLANE('',#779);
#625=PLANE('',#783);
#626=PLANE('',#786);
#627=PLANE('',#791);
#628=ADVANCED_FACE('',(#137),#609,.T.);
#629=ADVANCED_FACE('',(#138),#113,.T.);
#630=ADVANCED_FACE('',(#139),#610,.T.);
#631=ADVANCED_FACE('',(#140),#114,.T.);
#632=ADVANCED_FACE('',(#141,#16),#611,.T.);
#633=ADVANCED_FACE('',(#142),#115,.T.);
#634=ADVANCED_FACE('',(#143,#17),#612,.T.);
#635=ADVANCED_FACE('',(#144),#116,.T.);
#636=ADVANCED_FACE('',(#145,#18),#613,.T.);
#637=ADVANCED_FACE('',(#146),#117,.T.);
#638=ADVANCED_FACE('',(#147,#19),#614,.T.);
#639=ADVANCED_FACE('',(#148),#118,.T.);
#640=ADVANCED_FACE('',(#149,#20),#615,.T.);
#641=ADVANCED_FACE('',(#150),#119,.F.);
#642=ADVANCED_FACE('',(#151,#21),#616,.T.);
#643=ADVANCED_FACE('',(#152),#13,.T.);
#644=ADVANCED_FACE('',(#153),#120,.T.);
#645=ADVANCED_FACE('',(#154,#22),#617,.T.);
#646=ADVANCED_FACE('',(#155),#14,.T.);
#647=ADVANCED_FACE('',(#156,#23),#618,.T.);
#648=ADVANCED_FACE('',(#157),#121,.F.);
#649=ADVANCED_FACE('',(#158,#24),#619,.T.);
#650=ADVANCED_FACE('',(#159),#122,.F.);
#651=ADVANCED_FACE('',(#160),#123,.F.);
#652=ADVANCED_FACE('',(#161),#124,.F.);
#653=ADVANCED_FACE('',(#162),#125,.F.);
#654=ADVANCED_FACE('',(#163,#25,#26,#27,#28),#620,.T.);
#655=ADVANCED_FACE('',(#164),#126,.F.);
#656=ADVANCED_FACE('',(#165,#29,#30,#31,#32),#621,.T.);
#657=ADVANCED_FACE('',(#166),#127,.T.);
#658=ADVANCED_FACE('',(#167),#128,.F.);
#659=ADVANCED_FACE('',(#168),#129,.F.);
#660=ADVANCED_FACE('',(#169),#130,.F.);
#661=ADVANCED_FACE('',(#170),#131,.F.);
#662=ADVANCED_FACE('',(#171,#33,#34,#35,#36),#622,.T.);
#663=ADVANCED_FACE('',(#172),#132,.T.);
#664=ADVANCED_FACE('',(#173,#37,#38,#39,#40),#623,.T.);
#665=ADVANCED_FACE('',(#174),#15,.T.);
#666=ADVANCED_FACE('',(#175,#41),#624,.T.);
#667=ADVANCED_FACE('',(#176),#133,.T.);
#668=ADVANCED_FACE('',(#177,#42),#625,.T.);
#669=ADVANCED_FACE('',(#178),#134,.F.);
#670=ADVANCED_FACE('',(#179,#43),#626,.T.);
#671=ADVANCED_FACE('',(#180),#135,.F.);
#672=ADVANCED_FACE('',(#181,#44),#627,.T.);
#673=ADVANCED_FACE('',(#182),#136,.T.);
#674=CLOSED_SHELL('',(#628,#629,#630));
#675=CLOSED_SHELL('',(#631,#632,#633,#634,#635,#636,#637,#638,#639,#640,
#641,#642));
#676=CLOSED_SHELL('',(#643,#644,#645,#646,#647,#648,#649,#650));
#677=CLOSED_SHELL('',(#651,#652,#653,#654,#655,#656,#657));
#678=CLOSED_SHELL('',(#658,#659,#660,#661,#662,#663,#664));
#679=CLOSED_SHELL('',(#665,#666,#667,#668,#669));
#680=CLOSED_SHELL('',(#670,#671,#672,#673));
#681=DERIVED_UNIT_ELEMENT(#683,1.);
#682=DERIVED_UNIT_ELEMENT(#1210,-3.);
#683=(
MASS_UNIT()
NAMED_UNIT(*)
SI_UNIT(.KILO.,.GRAM.)
);
#684=DERIVED_UNIT((#681,#682));
#685=MEASURE_REPRESENTATION_ITEM('density measure',
POSITIVE_RATIO_MEASURE(7850.),#684);
#686=PROPERTY_DEFINITION_REPRESENTATION(#691,#688);
#687=PROPERTY_DEFINITION_REPRESENTATION(#692,#689);
#688=REPRESENTATION('material name',(#690),#1207);
#689=REPRESENTATION('density',(#685),#1207);
#690=DESCRIPTIVE_REPRESENTATION_ITEM('Steel','Steel');
#691=PROPERTY_DEFINITION('material property','material name',#1217);
#692=PROPERTY_DEFINITION('material property','density of part',#1217);
#693=AXIS2_PLACEMENT_3D('',#1023,#794,#795);
#694=AXIS2_PLACEMENT_3D('',#1024,#796,#797);
#695=AXIS2_PLACEMENT_3D('',#1026,#798,#799);
#696=AXIS2_PLACEMENT_3D('',#1027,#800,#801);
#697=AXIS2_PLACEMENT_3D('',#1029,#802,#803);
#698=AXIS2_PLACEMENT_3D('',#1031,#805,#806);
#699=AXIS2_PLACEMENT_3D('',#1032,#807,#808);
#700=AXIS2_PLACEMENT_3D('',#1034,#809,#810);
#701=AXIS2_PLACEMENT_3D('',#1037,#812,#813);
#702=AXIS2_PLACEMENT_3D('',#1038,#814,#815);
#703=AXIS2_PLACEMENT_3D('',#1040,#816,#817);
#704=AXIS2_PLACEMENT_3D('',#1041,#818,#819);
#705=AXIS2_PLACEMENT_3D('',#1043,#820,#821);
#706=AXIS2_PLACEMENT_3D('',#1045,#823,#824);
#707=AXIS2_PLACEMENT_3D('',#1047,#825,#826);
#708=AXIS2_PLACEMENT_3D('',#1048,#827,#828);
#709=AXIS2_PLACEMENT_3D('',#1050,#829,#830);
#710=AXIS2_PLACEMENT_3D('',#1052,#832,#833);
#711=AXIS2_PLACEMENT_3D('',#1054,#834,#835);
#712=AXIS2_PLACEMENT_3D('',#1055,#836,#837);
#713=AXIS2_PLACEMENT_3D('',#1057,#838,#839);
#714=AXIS2_PLACEMENT_3D('',#1059,#841,#842);
#715=AXIS2_PLACEMENT_3D('',#1061,#843,#844);
#716=AXIS2_PLACEMENT_3D('',#1062,#845,#846);
#717=AXIS2_PLACEMENT_3D('',#1064,#847,#848);
#718=AXIS2_PLACEMENT_3D('',#1066,#850,#851);
#719=AXIS2_PLACEMENT_3D('',#1068,#852,#853);
#720=AXIS2_PLACEMENT_3D('',#1069,#854,#855);
#721=AXIS2_PLACEMENT_3D('',#1072,#857,#858);
#722=AXIS2_PLACEMENT_3D('',#1073,#859,#860);
#723=AXIS2_PLACEMENT_3D('',#1074,#861,#862);
#724=AXIS2_PLACEMENT_3D('',#1076,#863,#864);
#725=AXIS2_PLACEMENT_3D('',#1080,#866,#867);
#726=AXIS2_PLACEMENT_3D('',#1081,#868,#869);
#727=AXIS2_PLACEMENT_3D('',#1082,#870,#871);
#728=AXIS2_PLACEMENT_3D('',#1086,#873,#874);
#729=AXIS2_PLACEMENT_3D('',#1087,#875,#876);
#730=AXIS2_PLACEMENT_3D('',#1088,#877,#878);
#731=AXIS2_PLACEMENT_3D('',#1090,#879,#880);
#732=AXIS2_PLACEMENT_3D('',#1091,#881,#882);
#733=AXIS2_PLACEMENT_3D('',#1094,#884,#885);
#734=AXIS2_PLACEMENT_3D('',#1095,#886,#887);
#735=AXIS2_PLACEMENT_3D('',#1097,#888,#889);
#736=AXIS2_PLACEMENT_3D('',#1098,#890,#891);
#737=AXIS2_PLACEMENT_3D('',#1101,#893,#894);
#738=AXIS2_PLACEMENT_3D('',#1102,#895,#896);
#739=AXIS2_PLACEMENT_3D('',#1104,#897,#898);
#740=AXIS2_PLACEMENT_3D('',#1105,#899,#900);
#741=AXIS2_PLACEMENT_3D('',#1107,#902,#903);
#742=AXIS2_PLACEMENT_3D('',#1109,#904,#905);
#743=AXIS2_PLACEMENT_3D('',#1112,#907,#908);
#744=AXIS2_PLACEMENT_3D('',#1113,#909,#910);
#745=AXIS2_PLACEMENT_3D('',#1115,#911,#912);
#746=AXIS2_PLACEMENT_3D('',#1118,#914,#915);
#747=AXIS2_PLACEMENT_3D('',#1119,#916,#917);
#748=AXIS2_PLACEMENT_3D('',#1121,#918,#919);
#749=AXIS2_PLACEMENT_3D('',#1124,#921,#922);
#750=AXIS2_PLACEMENT_3D('',#1125,#923,#924);
#751=AXIS2_PLACEMENT_3D('',#1127,#925,#926);
#752=AXIS2_PLACEMENT_3D('',#1129,#927,#928);
#753=AXIS2_PLACEMENT_3D('',#1130,#929,#930);
#754=AXIS2_PLACEMENT_3D('',#1133,#932,#933);
#755=AXIS2_PLACEMENT_3D('',#1134,#934,#935);
#756=AXIS2_PLACEMENT_3D('',#1136,#936,#937);
#757=AXIS2_PLACEMENT_3D('',#1137,#938,#939);
#758=AXIS2_PLACEMENT_3D('',#1139,#941,#942);
#759=AXIS2_PLACEMENT_3D('',#1141,#943,#944);
#760=AXIS2_PLACEMENT_3D('',#1144,#946,#947);
#761=AXIS2_PLACEMENT_3D('',#1145,#948,#949);
#762=AXIS2_PLACEMENT_3D('',#1147,#950,#951);
#763=AXIS2_PLACEMENT_3D('',#1150,#953,#954);
#764=AXIS2_PLACEMENT_3D('',#1151,#955,#956);
#765=AXIS2_PLACEMENT_3D('',#1153,#957,#958);
#766=AXIS2_PLACEMENT_3D('',#1156,#960,#961);
#767=AXIS2_PLACEMENT_3D('',#1157,#962,#963);
#768=AXIS2_PLACEMENT_3D('',#1159,#964,#965);
#769=AXIS2_PLACEMENT_3D('',#1162,#967,#968);
#770=AXIS2_PLACEMENT_3D('',#1163,#969,#970);
#771=AXIS2_PLACEMENT_3D('',#1165,#971,#972);
#772=AXIS2_PLACEMENT_3D('',#1166,#973,#974);
#773=AXIS2_PLACEMENT_3D('',#1168,#975,#976);
#774=AXIS2_PLACEMENT_3D('',#1170,#978,#979);
#775=AXIS2_PLACEMENT_3D('',#1171,#980,#981);
#776=AXIS2_PLACEMENT_3D('',#1174,#982,#983);
#777=AXIS2_PLACEMENT_3D('',#1175,#984,#985);
#778=AXIS2_PLACEMENT_3D('',#1178,#987,#988);
#779=AXIS2_PLACEMENT_3D('',#1179,#989,#990);
#780=AXIS2_PLACEMENT_3D('',#1181,#991,#992);
#781=AXIS2_PLACEMENT_3D('',#1182,#993,#994);
#782=AXIS2_PLACEMENT_3D('',#1184,#995,#996);
#783=AXIS2_PLACEMENT_3D('',#1186,#998,#999);
#784=AXIS2_PLACEMENT_3D('',#1188,#1000,#1001);
#785=AXIS2_PLACEMENT_3D('',#1189,#1002,#1003);
#786=AXIS2_PLACEMENT_3D('',#1191,#1005,#1006);
#787=AXIS2_PLACEMENT_3D('',#1193,#1007,#1008);
#788=AXIS2_PLACEMENT_3D('',#1195,#1009,#1010);
#789=AXIS2_PLACEMENT_3D('',#1196,#1011,#1012);
#790=AXIS2_PLACEMENT_3D('',#1199,#1014,#1015);
#791=AXIS2_PLACEMENT_3D('',#1200,#1016,#1017);
#792=AXIS2_PLACEMENT_3D('',#1202,#1018,#1019);
#793=AXIS2_PLACEMENT_3D('',#1203,#1020,#1021);
#794=DIRECTION('axis',(0.,0.,1.));
#795=DIRECTION('refdir',(1.,0.,0.));
#796=DIRECTION('center_axis',(-1.,0.,-2.88657986402541E-17));
#797=DIRECTION('ref_axis',(-2.88657986402541E-17,0.,1.));
#798=DIRECTION('center_axis',(1.,0.,2.88657986402541E-17));
#799=DIRECTION('ref_axis',(2.88657986402541E-17,0.,-1.));
#800=DIRECTION('center_axis',(1.,0.,2.88657986402541E-17));
#801=DIRECTION('ref_axis',(0.,0.,-1.));
#802=DIRECTION('center_axis',(1.,0.,2.88657986402541E-17));
#803=DIRECTION('ref_axis',(2.88657986402541E-17,0.,-1.));
#804=DIRECTION('',(-1.,0.,-2.88657986402541E-17));
#805=DIRECTION('center_axis',(1.,0.,2.88657986402541E-17));
#806=DIRECTION('ref_axis',(2.88657986402541E-17,0.,-1.));
#807=DIRECTION('center_axis',(1.,0.,0.));
#808=DIRECTION('ref_axis',(0.,0.,-1.));
#809=DIRECTION('center_axis',(1.,0.,0.));
#810=DIRECTION('ref_axis',(0.,0.,-1.));
#811=DIRECTION('',(-1.,0.,0.));
#812=DIRECTION('center_axis',(1.,0.,0.));
#813=DIRECTION('ref_axis',(0.,0.,-1.));
#814=DIRECTION('center_axis',(-1.,0.,0.));
#815=DIRECTION('ref_axis',(0.,0.,1.));
#816=DIRECTION('center_axis',(1.,0.,0.));
#817=DIRECTION('ref_axis',(0.,0.,-1.));
#818=DIRECTION('center_axis',(1.,0.,0.));
#819=DIRECTION('ref_axis',(0.,0.,-1.));
#820=DIRECTION('center_axis',(1.,0.,0.));
#821=DIRECTION('ref_axis',(0.,0.,-1.));
#822=DIRECTION('',(-1.,0.,0.));
#823=DIRECTION('center_axis',(1.,0.,0.));
#824=DIRECTION('ref_axis',(0.,0.,-1.));
#825=DIRECTION('center_axis',(1.,0.,0.));
#826=DIRECTION('ref_axis',(0.,0.,-1.));
#827=DIRECTION('center_axis',(1.,0.,0.));
#828=DIRECTION('ref_axis',(0.,0.,-1.));
#829=DIRECTION('center_axis',(1.,0.,0.));
#830=DIRECTION('ref_axis',(0.,0.,-1.));
#831=DIRECTION('',(-1.,0.,0.));
#832=DIRECTION('center_axis',(-1.,0.,0.));
#833=DIRECTION('ref_axis',(0.,0.,1.));
#834=DIRECTION('center_axis',(1.,0.,0.));
#835=DIRECTION('ref_axis',(0.,0.,-1.));
#836=DIRECTION('center_axis',(1.,0.,0.));
#837=DIRECTION('ref_axis',(0.,0.,-1.));
#838=DIRECTION('center_axis',(1.,0.,0.));
#839=DIRECTION('ref_axis',(0.,0.,-1.));
#840=DIRECTION('',(-1.,0.,0.));
#841=DIRECTION('center_axis',(-1.,0.,0.));
#842=DIRECTION('ref_axis',(0.,0.,1.));
#843=DIRECTION('center_axis',(1.,0.,0.));
#844=DIRECTION('ref_axis',(0.,0.,-1.));
#845=DIRECTION('center_axis',(1.,0.,0.));
#846=DIRECTION('ref_axis',(0.,0.,-1.));
#847=DIRECTION('center_axis',(1.,0.,0.));
#848=DIRECTION('ref_axis',(0.,0.,-1.));
#849=DIRECTION('',(-1.,0.,0.));
#850=DIRECTION('center_axis',(1.,0.,0.));
#851=DIRECTION('ref_axis',(0.,0.,-1.));
#852=DIRECTION('center_axis',(1.,0.,0.));
#853=DIRECTION('ref_axis',(0.,0.,-1.));
#854=DIRECTION('center_axis',(1.,0.,0.));
#855=DIRECTION('ref_axis',(0.,0.,-1.));
#856=DIRECTION('',(-1.,0.,0.));
#857=DIRECTION('center_axis',(1.,0.,0.));
#858=DIRECTION('ref_axis',(0.,0.,-1.));
#859=DIRECTION('center_axis',(-1.,0.,0.));
#860=DIRECTION('ref_axis',(0.,0.,1.));
#861=DIRECTION('center_axis',(-1.,0.,-2.88657986402544E-17));
#862=DIRECTION('ref_axis',(-1.40628249785853E-17,0.,1.));
#863=DIRECTION('center_axis',(-1.,0.,-2.88657986402541E-17));
#864=DIRECTION('ref_axis',(-2.88657986402541E-17,0.,1.));
#865=DIRECTION('',(-0.707106781186553,8.65956056235487E-17,-0.707106781186542));
#866=DIRECTION('center_axis',(1.,0.,2.88657986402541E-17));
#867=DIRECTION('ref_axis',(0.,0.,1.));
#868=DIRECTION('center_axis',(1.,0.,2.88657986402541E-17));
#869=DIRECTION('ref_axis',(0.,0.,1.));
#870=DIRECTION('center_axis',(1.,0.,2.88657986402541E-17));
#871=DIRECTION('ref_axis',(0.,0.,-1.));
#872=DIRECTION('',(-1.,0.,-2.88657986402541E-17));
#873=DIRECTION('center_axis',(-1.,0.,-2.88657986402541E-17));
#874=DIRECTION('ref_axis',(0.,0.,1.));
#875=DIRECTION('center_axis',(-1.,0.,-2.88657986402541E-17));
#876=DIRECTION('ref_axis',(0.,0.,1.));
#877=DIRECTION('center_axis',(1.,0.,2.88657986402541E-17));
#878=DIRECTION('ref_axis',(2.88657986402541E-17,0.,-1.));
#879=DIRECTION('center_axis',(1.,0.,2.88657986402541E-17));
#880=DIRECTION('ref_axis',(2.88657986402541E-17,0.,-1.));
#881=DIRECTION('center_axis',(1.,0.,2.88657986402544E-17));
#882=DIRECTION('ref_axis',(-1.40628249785853E-17,0.,1.));
#883=DIRECTION('',(-0.707106781186553,-8.65956056235486E-17,0.707106781186542));
#884=DIRECTION('center_axis',(1.,0.,2.88657986402541E-17));
#885=DIRECTION('ref_axis',(-2.88657986402541E-17,0.,1.));
#886=DIRECTION('center_axis',(-1.,0.,-2.88657986402541E-17));
#887=DIRECTION('ref_axis',(-2.88657986402541E-17,0.,1.));
#888=DIRECTION('center_axis',(1.,0.,2.88657986402541E-17));
#889=DIRECTION('ref_axis',(2.88657986402541E-17,0.,-1.));
#890=DIRECTION('center_axis',(1.,0.,2.88657986402541E-17));
#891=DIRECTION('ref_axis',(0.,0.,-1.));
#892=DIRECTION('',(-1.,0.,-2.88657986402541E-17));
#893=DIRECTION('center_axis',(1.,0.,2.88657986402541E-17));
#894=DIRECTION('ref_axis',(2.88657986402541E-17,0.,-1.));
#895=DIRECTION('center_axis',(1.,0.,2.88657986402541E-17));
#896=DIRECTION('ref_axis',(2.88657986402541E-17,0.,-1.));
#897=DIRECTION('center_axis',(1.,0.,2.88657986402541E-17));
#898=DIRECTION('ref_axis',(2.88657986402541E-17,0.,-1.));
#899=DIRECTION('center_axis',(1.,0.,2.88657986402541E-17));
#900=DIRECTION('ref_axis',(0.,0.,-1.));
#901=DIRECTION('',(-1.,0.,-2.88657986402541E-17));
#902=DIRECTION('center_axis',(1.,2.49985149229863E-17,-1.4432899320127E-17));
#903=DIRECTION('ref_axis',(0.,0.5,0.866025403784438));
#904=DIRECTION('center_axis',(1.,0.,0.));
#905=DIRECTION('ref_axis',(0.,0.5,0.866025403784438));
#906=DIRECTION('',(1.,2.49985149229863E-17,-1.4432899320127E-17));
#907=DIRECTION('center_axis',(-1.,0.,0.));
#908=DIRECTION('ref_axis',(0.,0.5,0.866025403784438));
#909=DIRECTION('center_axis',(1.,-2.49985149229863E-17,-1.4432899320127E-17));
#910=DIRECTION('ref_axis',(0.,0.5,-0.866025403784439));
#911=DIRECTION('center_axis',(1.,0.,0.));
#912=DIRECTION('ref_axis',(0.,0.5,-0.866025403784439));
#913=DIRECTION('',(1.,-2.49985149229863E-17,-1.4432899320127E-17));
#914=DIRECTION('center_axis',(-1.,0.,0.));
#915=DIRECTION('ref_axis',(0.,0.5,-0.866025403784439));
#916=DIRECTION('center_axis',(1.,0.,2.88657986402541E-17));
#917=DIRECTION('ref_axis',(0.,-1.,0.));
#918=DIRECTION('center_axis',(1.,0.,0.));
#919=DIRECTION('ref_axis',(0.,-1.,0.));
#920=DIRECTION('',(1.,0.,2.88657986402541E-17));
#921=DIRECTION('center_axis',(-1.,0.,0.));
#922=DIRECTION('ref_axis',(0.,-1.,0.));
#923=DIRECTION('center_axis',(1.,0.,0.));
#924=DIRECTION('ref_axis',(0.,0.,-1.));
#925=DIRECTION('center_axis',(1.,0.,0.));
#926=DIRECTION('ref_axis',(0.,0.,-1.));
#927=DIRECTION('center_axis',(1.,0.,0.));
#928=DIRECTION('ref_axis',(0.,0.,-1.));
#929=DIRECTION('center_axis',(1.,0.,0.));
#930=DIRECTION('ref_axis',(0.,0.,-1.));
#931=DIRECTION('',(-1.,0.,0.));
#932=DIRECTION('center_axis',(1.,0.,0.));
#933=DIRECTION('ref_axis',(0.,0.,-1.));
#934=DIRECTION('center_axis',(-1.,0.,0.));
#935=DIRECTION('ref_axis',(0.,0.,1.));
#936=DIRECTION('center_axis',(1.,0.,0.));
#937=DIRECTION('ref_axis',(0.,0.,-1.));
#938=DIRECTION('center_axis',(1.,0.,0.));
#939=DIRECTION('ref_axis',(0.,0.,-1.));
#940=DIRECTION('',(-1.,0.,0.));
#941=DIRECTION('center_axis',(1.,2.49985149229863E-17,-1.4432899320127E-17));
#942=DIRECTION('ref_axis',(0.,0.5,0.866025403784438));
#943=DIRECTION('center_axis',(1.,0.,2.88657986402541E-17));
#944=DIRECTION('ref_axis',(0.,0.5,0.866025403784438));
#945=DIRECTION('',(1.,2.49985149229863E-17,-1.4432899320127E-17));
#946=DIRECTION('center_axis',(-1.,0.,-2.88657986402541E-17));
#947=DIRECTION('ref_axis',(0.,0.5,0.866025403784438));
#948=DIRECTION('center_axis',(1.,-2.49985149229863E-17,-1.4432899320127E-17));
#949=DIRECTION('ref_axis',(0.,0.5,-0.866025403784439));
#950=DIRECTION('center_axis',(1.,0.,2.88657986402541E-17));
#951=DIRECTION('ref_axis',(0.,0.5,-0.866025403784439));
#952=DIRECTION('',(1.,-2.49985149229863E-17,-1.4432899320127E-17));
#953=DIRECTION('center_axis',(-1.,0.,-2.88657986402541E-17));
#954=DIRECTION('ref_axis',(0.,0.5,-0.866025403784439));
#955=DIRECTION('center_axis',(1.,0.,2.88657986402541E-17));
#956=DIRECTION('ref_axis',(0.,-1.,0.));
#957=DIRECTION('center_axis',(1.,0.,2.88657986402541E-17));
#958=DIRECTION('ref_axis',(0.,-1.,0.));
#959=DIRECTION('',(1.,0.,2.88657986402541E-17));
#960=DIRECTION('center_axis',(-1.,0.,-2.88657986402541E-17));
#961=DIRECTION('ref_axis',(0.,-1.,0.));
#962=DIRECTION('center_axis',(1.,0.,2.88657986402541E-17));
#963=DIRECTION('ref_axis',(5.75456250125124E-17,0.,-1.));
#964=DIRECTION('center_axis',(1.,0.,2.88657986402541E-17));
#965=DIRECTION('ref_axis',(2.88657986402541E-17,0.,-1.));
#966=DIRECTION('',(-1.,0.,-2.88657986402541E-17));
#967=DIRECTION('center_axis',(1.,0.,2.88657986402541E-17));
#968=DIRECTION('ref_axis',(2.88657986402541E-17,0.,-1.));
#969=DIRECTION('center_axis',(-1.,0.,-2.88657986402541E-17));
#970=DIRECTION('ref_axis',(-2.88657986402541E-17,0.,1.));
#971=DIRECTION('center_axis',(1.,0.,2.88657986402541E-17));
#972=DIRECTION('ref_axis',(2.88657986402541E-17,0.,-1.));
#973=DIRECTION('center_axis',(1.,0.,2.88657986402541E-17));
#974=DIRECTION('ref_axis',(5.75456250125124E-17,0.,-1.));
#975=DIRECTION('center_axis',(1.,0.,2.88657986402541E-17));
#976=DIRECTION('ref_axis',(2.88657986402541E-17,0.,-1.));
#977=DIRECTION('',(-1.,0.,-2.88657986402541E-17));
#978=DIRECTION('center_axis',(1.,0.,2.88657986402541E-17));
#979=DIRECTION('ref_axis',(2.88657986402541E-17,0.,-1.));
#980=DIRECTION('center_axis',(1.,0.,0.));
#981=DIRECTION('ref_axis',(0.,0.,1.));
#982=DIRECTION('center_axis',(-1.,0.,0.));
#983=DIRECTION('ref_axis',(0.,0.,1.));
#984=DIRECTION('center_axis',(-1.,0.,0.));
#985=DIRECTION('ref_axis',(0.,0.,1.));
#986=DIRECTION('',(-0.707106781186527,-8.65956056235518E-17,0.707106781186568));
#987=DIRECTION('center_axis',(1.,0.,0.));
#988=DIRECTION('ref_axis',(0.,0.,1.));
#989=DIRECTION('center_axis',(-1.,0.,0.));
#990=DIRECTION('ref_axis',(0.,0.,1.));
#991=DIRECTION('center_axis',(1.,0.,0.));
#992=DIRECTION('ref_axis',(0.,0.,-1.));
#993=DIRECTION('center_axis',(1.,0.,0.));
#994=DIRECTION('ref_axis',(0.,0.,-1.));
#995=DIRECTION('center_axis',(1.,0.,0.));
#996=DIRECTION('ref_axis',(0.,0.,-1.));
#997=DIRECTION('',(-1.,0.,0.));
#998=DIRECTION('center_axis',(1.,0.,0.));
#999=DIRECTION('ref_axis',(0.,0.,-1.));
#1000=DIRECTION('center_axis',(1.,0.,0.));
#1001=DIRECTION('ref_axis',(0.,0.,-1.));
#1002=DIRECTION('center_axis',(1.,0.,0.));
#1003=DIRECTION('ref_axis',(0.,0.,-1.));
#1004=DIRECTION('',(-1.,0.,0.));
#1005=DIRECTION('center_axis',(1.,0.,0.));
#1006=DIRECTION('ref_axis',(0.,0.,-1.));
#1007=DIRECTION('center_axis',(1.,0.,0.));
#1008=DIRECTION('ref_axis',(0.,0.,-1.));
#1009=DIRECTION('center_axis',(1.,0.,0.));
#1010=DIRECTION('ref_axis',(0.,0.,-1.));
#1011=DIRECTION('center_axis',(1.,0.,0.));
#1012=DIRECTION('ref_axis',(0.,0.,-1.));
#1013=DIRECTION('',(-1.,0.,0.));
#1014=DIRECTION('center_axis',(1.,0.,0.));
#1015=DIRECTION('ref_axis',(0.,0.,-1.));
#1016=DIRECTION('center_axis',(-1.,0.,0.));
#1017=DIRECTION('ref_axis',(0.,0.,1.));
#1018=DIRECTION('center_axis',(1.,0.,0.));
#1019=DIRECTION('ref_axis',(0.,0.,-1.));
#1020=DIRECTION('center_axis',(1.,0.,0.));
#1021=DIRECTION('ref_axis',(0.,0.,-1.));
#1022=DIRECTION('',(-1.,0.,0.));
#1023=CARTESIAN_POINT('',(0.,0.,0.));
#1024=CARTESIAN_POINT('Origin',(-500.,0.,-4.00000000000001));
#1025=CARTESIAN_POINT('',(-500.,-4.89858719658946E-16,4.00000000000003));
#1026=CARTESIAN_POINT('Origin',(-500.,0.,-1.4432899320127E-14));
#1027=CARTESIAN_POINT('Origin',(-250.,0.,-7.21644966006352E-15));
#1028=CARTESIAN_POINT('',(0.,-4.89858719658946E-16,4.00000000000004));
#1029=CARTESIAN_POINT('Origin',(-1.15463194561019E-16,0.,-3.33293732455884E-33));
#1030=CARTESIAN_POINT('',(-250.,-4.89858719658946E-16,4.00000000000003));
#1031=CARTESIAN_POINT('Origin',(0.,0.,0.));
#1032=CARTESIAN_POINT('Origin',(-97.5,0.,0.));
#1033=CARTESIAN_POINT('',(-95.,-8.57252759403147E-16,7.));
#1034=CARTESIAN_POINT('Origin',(-95.,0.,0.));
#1035=CARTESIAN_POINT('',(-100.,-8.57252759403147E-16,7.));
#1036=CARTESIAN_POINT('',(-97.5,-8.57252759403147E-16,7.));
#1037=CARTESIAN_POINT('Origin',(-100.,0.,0.));
#1038=CARTESIAN_POINT('Origin',(-95.,0.,-7.5));
#1039=CARTESIAN_POINT('',(-95.,-9.18485099360515E-16,7.5));
#1040=CARTESIAN_POINT('Origin',(-95.,0.,0.));
#1041=CARTESIAN_POINT('Origin',(-92.5,0.,0.));
#1042=CARTESIAN_POINT('',(-90.,-9.18485099360515E-16,7.5));
#1043=CARTESIAN_POINT('Origin',(-90.,0.,0.));
#1044=CARTESIAN_POINT('',(-92.5,-9.18485099360515E-16,7.5));
#1045=CARTESIAN_POINT('Origin',(-90.,0.,-7.15));
#1046=CARTESIAN_POINT('',(-90.,-8.75622461390358E-16,7.15));
#1047=CARTESIAN_POINT('Origin',(-90.,0.,0.));
#1048=CARTESIAN_POINT('Origin',(-89.45,0.,0.));
#1049=CARTESIAN_POINT('',(-88.9,-8.75622461390358E-16,7.15));
#1050=CARTESIAN_POINT('Origin',(-88.9,0.,0.));
#1051=CARTESIAN_POINT('',(-89.45,-8.75622461390358E-16,7.15));
#1052=CARTESIAN_POINT('Origin',(-88.9,0.,-7.5));
#1053=CARTESIAN_POINT('',(-88.9,-9.18485099360515E-16,7.5));
#1054=CARTESIAN_POINT('Origin',(-88.9,0.,0.));
#1055=CARTESIAN_POINT('Origin',(-86.65,0.,0.));
#1056=CARTESIAN_POINT('',(-84.4,-9.18485099360515E-16,7.5));
#1057=CARTESIAN_POINT('Origin',(-84.4,0.,0.));
#1058=CARTESIAN_POINT('',(-86.65,-9.18485099360515E-16,7.5));
#1059=CARTESIAN_POINT('Origin',(-84.4,0.,-8.00000000000002));
#1060=CARTESIAN_POINT('',(-84.4,-9.79717439317884E-16,8.00000000000001));
#1061=CARTESIAN_POINT('Origin',(-84.4,0.,0.));
#1062=CARTESIAN_POINT('Origin',(157.8,0.,0.));
#1063=CARTESIAN_POINT('',(400.,-9.79717439317884E-16,8.00000000000001));
#1064=CARTESIAN_POINT('Origin',(400.,0.,0.));
#1065=CARTESIAN_POINT('',(157.8,-9.79717439317884E-16,8.00000000000001));
#1066=CARTESIAN_POINT('Origin',(400.,0.,-4.00000000000014));
#1067=CARTESIAN_POINT('',(400.,-4.89858719658954E-16,4.0000000000001));
#1068=CARTESIAN_POINT('Origin',(400.,0.,0.));
#1069=CARTESIAN_POINT('Origin',(150.,0.,0.));
#1070=CARTESIAN_POINT('',(-100.,-4.89858719658954E-16,4.0000000000001));
#1071=CARTESIAN_POINT('',(150.,-4.89858719658954E-16,4.0000000000001));
#1072=CARTESIAN_POINT('Origin',(-100.,0.,0.));
#1073=CARTESIAN_POINT('Origin',(-100.,0.,-7.));
#1074=CARTESIAN_POINT('Origin',(-95.25,0.,-2.7494673204842E-15));
#1075=CARTESIAN_POINT('',(-95.,-1.16341445918999E-15,-9.5));
#1076=CARTESIAN_POINT('Origin',(-95.,0.,-2.74225087082414E-15));
#1077=CARTESIAN_POINT('',(-95.5,1.22464679914735E-15,-10.));
#1078=CARTESIAN_POINT('',(-95.25,1.19403062916867E-15,-9.75));
#1079=CARTESIAN_POINT('',(-95.5,-1.22464679914735E-15,9.99999999999999));
#1080=CARTESIAN_POINT('Origin',(-95.5,0.,-2.75668377014426E-15));
#1081=CARTESIAN_POINT('Origin',(-95.5,0.,-2.75668377014426E-15));
#1082=CARTESIAN_POINT('Origin',(-103.5,0.,-2.9876101592663E-15));
#1083=CARTESIAN_POINT('',(-111.5,-1.22464679914735E-15,9.99999999999999));
#1084=CARTESIAN_POINT('',(-103.5,-1.22464679914735E-15,9.99999999999999));
#1085=CARTESIAN_POINT('',(-111.5,-1.22464679914735E-15,-10.));
#1086=CARTESIAN_POINT('Origin',(-111.5,0.,-3.21853654838833E-15));
#1087=CARTESIAN_POINT('Origin',(-111.5,0.,-3.21853654838833E-15));
#1088=CARTESIAN_POINT('Origin',(-95.,0.,-7.));
#1089=CARTESIAN_POINT('',(-95.,-8.57252759403147E-16,6.99999999999999));
#1090=CARTESIAN_POINT('Origin',(-95.,0.,-2.74225087082414E-15));
#1091=CARTESIAN_POINT('Origin',(-111.75,0.,-3.22575299804839E-15));
#1092=CARTESIAN_POINT('',(-112.,1.16341445918999E-15,-9.5));
#1093=CARTESIAN_POINT('',(-111.75,1.19403062916867E-15,-9.75));
#1094=CARTESIAN_POINT('Origin',(-112.,0.,-3.23296944770846E-15));
#1095=CARTESIAN_POINT('Origin',(-112.,0.,-10.));
#1096=CARTESIAN_POINT('',(-112.,-4.89858719658949E-16,4.00000000000006));
#1097=CARTESIAN_POINT('Origin',(-112.,0.,-3.23296944770846E-15));
#1098=CARTESIAN_POINT('Origin',(-101.,0.,-2.91544566266566E-15));
#1099=CARTESIAN_POINT('',(-107.,-8.57252759403147E-16,6.99999999999999));
#1100=CARTESIAN_POINT('',(-101.,-8.57252759403147E-16,6.99999999999999));
#1101=CARTESIAN_POINT('Origin',(-107.,0.,-3.08864045450719E-15));
#1102=CARTESIAN_POINT('Origin',(-107.,0.,-4.00000000000007));
#1103=CARTESIAN_POINT('',(-107.,-4.89858719658949E-16,4.00000000000006));
#1104=CARTESIAN_POINT('Origin',(-107.,0.,-3.08864045450719E-15));
#1105=CARTESIAN_POINT('Origin',(-109.5,0.,-3.16080495110782E-15));
#1106=CARTESIAN_POINT('',(-109.5,-4.89858719658949E-16,4.00000000000006));
#1107=CARTESIAN_POINT('Origin',(-93.5,-11.2583302491977,6.50000000000001));
#1108=CARTESIAN_POINT('',(-88.9,-12.9083302491977,3.64211616751136));
#1109=CARTESIAN_POINT('Origin',(-88.9,-11.2583302491977,6.50000000000001));
#1110=CARTESIAN_POINT('',(-84.9,-12.9083302491977,3.64211616751136));
#1111=CARTESIAN_POINT('',(-93.5,-12.9083302491977,3.64211616751136));
#1112=CARTESIAN_POINT('Origin',(-84.9,-11.2583302491977,6.50000000000001));
#1113=CARTESIAN_POINT('Origin',(-93.5,11.2583302491977,6.5));
#1114=CARTESIAN_POINT('',(-88.9,9.60833024919771,9.35788383248865));
#1115=CARTESIAN_POINT('Origin',(-88.9,11.2583302491977,6.5));
#1116=CARTESIAN_POINT('',(-84.9,9.60833024919771,9.35788383248865));
#1117=CARTESIAN_POINT('',(-93.5,9.6083302491977,9.35788383248865));
#1118=CARTESIAN_POINT('Origin',(-84.9,11.2583302491977,6.5));
#1119=CARTESIAN_POINT('Origin',(-93.5,0.,-13.));
#1120=CARTESIAN_POINT('',(-88.9,3.3,-13.));
#1121=CARTESIAN_POINT('Origin',(-88.9,0.,-13.));
#1122=CARTESIAN_POINT('',(-84.9,3.3,-13.));
#1123=CARTESIAN_POINT('',(-93.5,3.3,-13.));
#1124=CARTESIAN_POINT('Origin',(-84.9,0.,-13.));
#1125=CARTESIAN_POINT('Origin',(-84.9,0.,-7.5));
#1126=CARTESIAN_POINT('',(-84.9,-2.08189955855048E-15,16.9999999999998));
#1127=CARTESIAN_POINT('Origin',(-84.9,0.,0.));
#1128=CARTESIAN_POINT('',(-84.9,-9.18485099360515E-16,7.5));
#1129=CARTESIAN_POINT('Origin',(-84.9,0.,0.));
#1130=CARTESIAN_POINT('Origin',(-86.9,0.,0.));
#1131=CARTESIAN_POINT('',(-88.9,-9.18485099360515E-16,7.5));
#1132=CARTESIAN_POINT('',(-86.9,-9.18485099360515E-16,7.5));
#1133=CARTESIAN_POINT('Origin',(-88.9,0.,0.));
#1134=CARTESIAN_POINT('Origin',(-88.9,0.,-16.9999999999998));
#1135=CARTESIAN_POINT('',(-88.9,-2.08189955855048E-15,16.9999999999998));
#1136=CARTESIAN_POINT('Origin',(-88.9,0.,0.));
#1137=CARTESIAN_POINT('Origin',(-86.9,0.,0.));
#1138=CARTESIAN_POINT('',(-86.9,-2.08189955855048E-15,16.9999999999998));
#1139=CARTESIAN_POINT('Origin',(-93.5,-11.2583302491977,6.50000000000001));
#1140=CARTESIAN_POINT('',(-116.,-12.9083302491977,3.64211616751136));
#1141=CARTESIAN_POINT('Origin',(-116.,-11.2583302491977,6.50000000000001));
#1142=CARTESIAN_POINT('',(-112.,-12.9083302491977,3.64211616751136));
#1143=CARTESIAN_POINT('',(-93.5,-12.9083302491977,3.64211616751136));
#1144=CARTESIAN_POINT('Origin',(-112.,-11.2583302491977,6.50000000000001));
#1145=CARTESIAN_POINT('Origin',(-93.5,11.2583302491977,6.5));
#1146=CARTESIAN_POINT('',(-116.,9.60833024919771,9.35788383248865));
#1147=CARTESIAN_POINT('Origin',(-116.,11.2583302491977,6.5));
#1148=CARTESIAN_POINT('',(-112.,9.60833024919771,9.35788383248865));
#1149=CARTESIAN_POINT('',(-93.5,9.6083302491977,9.35788383248865));
#1150=CARTESIAN_POINT('Origin',(-112.,11.2583302491977,6.5));
#1151=CARTESIAN_POINT('Origin',(-93.5,0.,-13.));
#1152=CARTESIAN_POINT('',(-116.,3.3,-13.));
#1153=CARTESIAN_POINT('Origin',(-116.,0.,-13.));
#1154=CARTESIAN_POINT('',(-112.,3.3,-13.));
#1155=CARTESIAN_POINT('',(-93.5,3.3,-13.));
#1156=CARTESIAN_POINT('Origin',(-112.,0.,-13.));
#1157=CARTESIAN_POINT('Origin',(-114.,0.,-3.29070104498896E-15));
#1158=CARTESIAN_POINT('',(-112.,-4.89858719658949E-16,4.00000000000006));
#1159=CARTESIAN_POINT('Origin',(-112.,0.,-3.23296944770845E-15));
#1160=CARTESIAN_POINT('',(-116.,-4.89858719658949E-16,4.00000000000006));
#1161=CARTESIAN_POINT('',(-114.,-4.89858719658949E-16,4.00000000000006));
#1162=CARTESIAN_POINT('Origin',(-116.,0.,-3.34843264226947E-15));
#1163=CARTESIAN_POINT('Origin',(-116.,0.,-17.));
#1164=CARTESIAN_POINT('',(-116.,-2.0818995585505E-15,17.));
#1165=CARTESIAN_POINT('Origin',(-116.,0.,-3.34843264226947E-15));
#1166=CARTESIAN_POINT('Origin',(-114.,0.,-3.29070104498896E-15));
#1167=CARTESIAN_POINT('',(-112.,-2.0818995585505E-15,17.));
#1168=CARTESIAN_POINT('Origin',(-112.,0.,-3.23296944770845E-15));
#1169=CARTESIAN_POINT('',(-114.,-2.0818995585505E-15,17.));
#1170=CARTESIAN_POINT('Origin',(-112.,0.,-4.00000000000009));
#1171=CARTESIAN_POINT('Origin',(400.25,0.,0.));
#1172=CARTESIAN_POINT('',(400.5,-9.79717439317884E-16,-8.00000000000001));
#1173=CARTESIAN_POINT('',(400.5,-9.79717439317884E-16,8.00000000000001));
#1174=CARTESIAN_POINT('Origin',(400.5,0.,0.));
#1175=CARTESIAN_POINT('Origin',(400.5,0.,0.));
#1176=CARTESIAN_POINT('',(400.,9.18485099360516E-16,-7.50000000000001));
#1177=CARTESIAN_POINT('',(400.25,9.491012693392E-16,-7.75000000000001));
#1178=CARTESIAN_POINT('Origin',(400.,0.,0.));
#1179=CARTESIAN_POINT('Origin',(400.,0.,-8.00000000000001));
#1180=CARTESIAN_POINT('',(400.,-3.67394039744209E-16,3.00000000000002));
#1181=CARTESIAN_POINT('Origin',(400.,0.,0.));
#1182=CARTESIAN_POINT('Origin',(402.,0.,0.));
#1183=CARTESIAN_POINT('',(404.,-9.79717439317884E-16,8.00000000000001));
#1184=CARTESIAN_POINT('Origin',(404.,0.,0.));
#1185=CARTESIAN_POINT('',(402.,-9.79717439317884E-16,8.00000000000001));
#1186=CARTESIAN_POINT('Origin',(404.,0.,-3.00000000000003));
#1187=CARTESIAN_POINT('',(404.,-3.67394039744209E-16,3.00000000000002));
#1188=CARTESIAN_POINT('Origin',(404.,0.,0.));
#1189=CARTESIAN_POINT('Origin',(402.,0.,0.));
#1190=CARTESIAN_POINT('',(402.,-3.67394039744209E-16,3.00000000000002));
#1191=CARTESIAN_POINT('Origin',(440.,0.,-1.00000001490116));
#1192=CARTESIAN_POINT('',(440.,-3.67394039744209E-16,3.00000000000002));
#1193=CARTESIAN_POINT('Origin',(440.,0.,0.));
#1194=CARTESIAN_POINT('',(440.,-1.22464681739601E-16,1.00000001490116));
#1195=CARTESIAN_POINT('Origin',(440.,0.,0.));
#1196=CARTESIAN_POINT('Origin',(420.,0.,0.));
#1197=CARTESIAN_POINT('',(400.,-1.22464681739601E-16,1.00000001490116));
#1198=CARTESIAN_POINT('',(420.,-1.22464681739601E-16,1.00000001490116));
#1199=CARTESIAN_POINT('Origin',(400.,0.,0.));
#1200=CARTESIAN_POINT('Origin',(400.,0.,-3.00000000000002));
#1201=CARTESIAN_POINT('',(400.,-3.67394039744209E-16,3.00000000000002));
#1202=CARTESIAN_POINT('Origin',(400.,0.,0.));
#1203=CARTESIAN_POINT('Origin',(420.,0.,0.));
#1204=CARTESIAN_POINT('',(420.,-3.67394039744209E-16,3.00000000000002));
#1205=UNCERTAINTY_MEASURE_WITH_UNIT(LENGTH_MEASURE(0.01),#1209,
'DISTANCE_ACCURACY_VALUE',
'Maximum model space distance between geometric entities at asserted c
onnectivities');
#1206=UNCERTAINTY_MEASURE_WITH_UNIT(LENGTH_MEASURE(0.01),#1209,
'DISTANCE_ACCURACY_VALUE',
'Maximum model space distance between geometric entities at asserted c
onnectivities');
#1207=(
GEOMETRIC_REPRESENTATION_CONTEXT(3)
GLOBAL_UNCERTAINTY_ASSIGNED_CONTEXT((#1205))
GLOBAL_UNIT_ASSIGNED_CONTEXT((#1209,#1211,#1212))
REPRESENTATION_CONTEXT('','3D')
);
#1208=(
GEOMETRIC_REPRESENTATION_CONTEXT(3)
GLOBAL_UNCERTAINTY_ASSIGNED_CONTEXT((#1206))
GLOBAL_UNIT_ASSIGNED_CONTEXT((#1209,#1211,#1212))
REPRESENTATION_CONTEXT('','3D')
);
#1209=(
LENGTH_UNIT()
NAMED_UNIT(*)
SI_UNIT(.MILLI.,.METRE.)
);
#1210=(
LENGTH_UNIT()
NAMED_UNIT(*)
SI_UNIT($,.METRE.)
);
#1211=(
NAMED_UNIT(*)
PLANE_ANGLE_UNIT()
SI_UNIT($,.RADIAN.)
);
#1212=(
NAMED_UNIT(*)
SI_UNIT($,.STERADIAN.)
SOLID_ANGLE_UNIT()
);
#1213=SHAPE_DEFINITION_REPRESENTATION(#1214,#1215);
#1214=PRODUCT_DEFINITION_SHAPE('',$,#1217);
#1215=SHAPE_REPRESENTATION('',(#693),#1207);
#1216=PRODUCT_DEFINITION_CONTEXT('part definition',#1221,'design');
#1217=PRODUCT_DEFINITION('deuterium compression device',
'deuterium compression device v6',#1218,#1216);
#1218=PRODUCT_DEFINITION_FORMATION('',$,#1223);
#1219=PRODUCT_RELATED_PRODUCT_CATEGORY(
'deuterium compression device v6','deuterium compression device v6',(#1223));
#1220=APPLICATION_PROTOCOL_DEFINITION('international standard',
'automotive_design',2009,#1221);
#1221=APPLICATION_CONTEXT(
'Core Data for Automotive Mechanical Design Process');
#1222=PRODUCT_CONTEXT('part definition',#1221,'mechanical');
#1223=PRODUCT('deuterium compression device',
'deuterium compression device v6',$,(#1222));
#1224=PRESENTATION_STYLE_ASSIGNMENT((#1225));
#1225=SURFACE_STYLE_USAGE(.BOTH.,#1226);
#1226=SURFACE_SIDE_STYLE('',(#1227));
#1227=SURFACE_STYLE_FILL_AREA(#1228);
#1228=FILL_AREA_STYLE('Steel - Satin',(#1229));
#1229=FILL_AREA_STYLE_COLOUR('Steel - Satin',#1230);
#1230=COLOUR_RGB('Steel - Satin',0.627450980392157,0.627450980392157,0.627450980392157);
ENDSEC;
END-ISO-10303-21;
