ISO-10303-21;
HEADER;
/* Generated by software containing ST-Developer
 * from STEP Tools, Inc. (www.steptools.com) 
 */

FILE_DESCRIPTION(
/* description */ (''),
/* implementation_level */ '2;1');

FILE_NAME(
/* name */ 'copper braid specimen cooling v4.step',
/* time_stamp */ '2024-06-19T11:15:03+02:00',
/* author */ (''),
/* organization */ (''),
/* preprocessor_version */ 'ST-DEVELOPER v20',
/* originating_system */ 'Autodesk Translation Framework v13.14.0.145',

/* authorisation */ '');

FILE_SCHEMA (('AUTOMOTIVE_DESIGN { 1 0 10303 214 3 1 1 }'));
ENDSEC;

DATA;
#10=MECHANICAL_DESIGN_GEOMETRIC_PRESENTATION_REPRESENTATION('',(#13),#607);
#11=SHAPE_REPRESENTATION_RELATIONSHIP('SRR','None',#614,#12);
#12=ADVANCED_BREP_SHAPE_REPRESENTATION('',(#14),#606);
#13=STYLED_ITEM('',(#623),#14);
#14=MANIFOLD_SOLID_BREP('Body1',#363);
#15=CYLINDRICAL_SURFACE('',#395,2.25);
#16=CYLINDRICAL_SURFACE('',#396,2.25);
#17=CYLINDRICAL_SURFACE('',#397,2.25);
#18=CYLINDRICAL_SURFACE('',#398,2.25);
#19=CYLINDRICAL_SURFACE('',#403,1.75);
#20=CYLINDRICAL_SURFACE('',#404,1.75);
#21=FACE_BOUND('',#62,.T.);
#22=FACE_BOUND('',#63,.T.);
#23=FACE_BOUND('',#64,.T.);
#24=FACE_BOUND('',#65,.T.);
#25=FACE_BOUND('',#68,.T.);
#26=FACE_BOUND('',#69,.T.);
#27=FACE_BOUND('',#70,.T.);
#28=FACE_BOUND('',#71,.T.);
#29=CIRCLE('',#380,2.25);
#30=CIRCLE('',#381,2.25);
#31=CIRCLE('',#382,2.25);
#32=CIRCLE('',#383,2.25);
#33=CIRCLE('',#384,1.75);
#34=CIRCLE('',#385,1.75);
#35=CIRCLE('',#388,2.25);
#36=CIRCLE('',#389,2.25);
#37=CIRCLE('',#390,1.75);
#38=CIRCLE('',#391,1.75);
#39=CIRCLE('',#392,2.25);
#40=CIRCLE('',#393,2.25);
#41=FACE_OUTER_BOUND('',#59,.T.);
#42=FACE_OUTER_BOUND('',#60,.T.);
#43=FACE_OUTER_BOUND('',#61,.T.);
#44=FACE_OUTER_BOUND('',#66,.T.);
#45=FACE_OUTER_BOUND('',#67,.T.);
#46=FACE_OUTER_BOUND('',#72,.T.);
#47=FACE_OUTER_BOUND('',#73,.T.);
#48=FACE_OUTER_BOUND('',#74,.T.);
#49=FACE_OUTER_BOUND('',#75,.T.);
#50=FACE_OUTER_BOUND('',#76,.T.);
#51=FACE_OUTER_BOUND('',#77,.T.);
#52=FACE_OUTER_BOUND('',#78,.T.);
#53=FACE_OUTER_BOUND('',#79,.T.);
#54=FACE_OUTER_BOUND('',#80,.T.);
#55=FACE_OUTER_BOUND('',#81,.T.);
#56=FACE_OUTER_BOUND('',#82,.T.);
#57=FACE_OUTER_BOUND('',#83,.T.);
#58=FACE_OUTER_BOUND('',#84,.T.);
#59=EDGE_LOOP('',(#237,#238,#239,#240));
#60=EDGE_LOOP('',(#241,#242,#243,#244));
#61=EDGE_LOOP('',(#245,#246,#247,#248,#249,#250,#251,#252,#253,#254,#255,
#256));
#62=EDGE_LOOP('',(#257));
#63=EDGE_LOOP('',(#258));
#64=EDGE_LOOP('',(#259));
#65=EDGE_LOOP('',(#260));
#66=EDGE_LOOP('',(#261,#262,#263,#264));
#67=EDGE_LOOP('',(#265,#266,#267,#268,#269,#270,#271,#272,#273,#274,#275,
#276));
#68=EDGE_LOOP('',(#277));
#69=EDGE_LOOP('',(#278));
#70=EDGE_LOOP('',(#279));
#71=EDGE_LOOP('',(#280));
#72=EDGE_LOOP('',(#281,#282,#283,#284));
#73=EDGE_LOOP('',(#285,#286,#287,#288));
#74=EDGE_LOOP('',(#289,#290,#291,#292));
#75=EDGE_LOOP('',(#293,#294,#295,#296));
#76=EDGE_LOOP('',(#297,#298,#299,#300));
#77=EDGE_LOOP('',(#301,#302,#303,#304));
#78=EDGE_LOOP('',(#305,#306,#307,#308));
#79=EDGE_LOOP('',(#309,#310,#311,#312));
#80=EDGE_LOOP('',(#313,#314,#315,#316));
#81=EDGE_LOOP('',(#317,#318,#319,#320));
#82=EDGE_LOOP('',(#321,#322,#323,#324));
#83=EDGE_LOOP('',(#325,#326,#327,#328));
#84=EDGE_LOOP('',(#329,#330,#331,#332));
#85=LINE('',#509,#121);
#86=LINE('',#511,#122);
#87=LINE('',#513,#123);
#88=LINE('',#514,#124);
#89=LINE('',#517,#125);
#90=LINE('',#519,#126);
#91=LINE('',#520,#127);
#92=LINE('',#523,#128);
#93=LINE('',#527,#129);
#94=LINE('',#529,#130);
#95=LINE('',#531,#131);
#96=LINE('',#533,#132);
#97=LINE('',#535,#133);
#98=LINE('',#539,#134);
#99=LINE('',#540,#135);
#100=LINE('',#551,#136);
#101=LINE('',#552,#137);
#102=LINE('',#555,#138);
#103=LINE('',#559,#139);
#104=LINE('',#561,#140);
#105=LINE('',#563,#141);
#106=LINE('',#565,#142);
#107=LINE('',#567,#143);
#108=LINE('',#570,#144);
#109=LINE('',#580,#145);
#110=LINE('',#582,#146);
#111=LINE('',#584,#147);
#112=LINE('',#586,#148);
#113=LINE('',#587,#149);
#114=LINE('',#589,#150);
#115=LINE('',#591,#151);
#116=LINE('',#593,#152);
#117=LINE('',#595,#153);
#118=LINE('',#597,#154);
#119=LINE('',#599,#155);
#120=LINE('',#601,#156);
#121=VECTOR('',#411,10.);
#122=VECTOR('',#412,10.);
#123=VECTOR('',#413,10.);
#124=VECTOR('',#414,10.);
#125=VECTOR('',#417,10.);
#126=VECTOR('',#418,10.);
#127=VECTOR('',#419,10.);
#128=VECTOR('',#422,10.);
#129=VECTOR('',#425,10.);
#130=VECTOR('',#426,10.);
#131=VECTOR('',#427,10.);
#132=VECTOR('',#428,10.);
#133=VECTOR('',#429,10.);
#134=VECTOR('',#432,10.);
#135=VECTOR('',#433,10.);
#136=VECTOR('',#444,10.);
#137=VECTOR('',#445,10.);
#138=VECTOR('',#448,10.);
#139=VECTOR('',#451,10.);
#140=VECTOR('',#452,10.);
#141=VECTOR('',#453,10.);
#142=VECTOR('',#454,10.);
#143=VECTOR('',#455,10.);
#144=VECTOR('',#458,10.);
#145=VECTOR('',#469,10.);
#146=VECTOR('',#472,2.25);
#147=VECTOR('',#475,2.25);
#148=VECTOR('',#478,10.);
#149=VECTOR('',#479,10.);
#150=VECTOR('',#482,10.);
#151=VECTOR('',#485,10.);
#152=VECTOR('',#488,10.);
#153=VECTOR('',#491,10.);
#154=VECTOR('',#494,10.);
#155=VECTOR('',#497,1.75);
#156=VECTOR('',#500,1.75);
#157=VERTEX_POINT('',#507);
#158=VERTEX_POINT('',#508);
#159=VERTEX_POINT('',#510);
#160=VERTEX_POINT('',#512);
#161=VERTEX_POINT('',#516);
#162=VERTEX_POINT('',#518);
#163=VERTEX_POINT('',#522);
#164=VERTEX_POINT('',#524);
#165=VERTEX_POINT('',#526);
#166=VERTEX_POINT('',#528);
#167=VERTEX_POINT('',#530);
#168=VERTEX_POINT('',#532);
#169=VERTEX_POINT('',#534);
#170=VERTEX_POINT('',#536);
#171=VERTEX_POINT('',#538);
#172=VERTEX_POINT('',#541);
#173=VERTEX_POINT('',#543);
#174=VERTEX_POINT('',#545);
#175=VERTEX_POINT('',#547);
#176=VERTEX_POINT('',#550);
#177=VERTEX_POINT('',#554);
#178=VERTEX_POINT('',#556);
#179=VERTEX_POINT('',#558);
#180=VERTEX_POINT('',#560);
#181=VERTEX_POINT('',#562);
#182=VERTEX_POINT('',#564);
#183=VERTEX_POINT('',#566);
#184=VERTEX_POINT('',#568);
#185=VERTEX_POINT('',#571);
#186=VERTEX_POINT('',#573);
#187=VERTEX_POINT('',#575);
#188=VERTEX_POINT('',#577);
#189=EDGE_CURVE('',#157,#158,#85,.T.);
#190=EDGE_CURVE('',#158,#159,#86,.T.);
#191=EDGE_CURVE('',#159,#160,#87,.T.);
#192=EDGE_CURVE('',#160,#157,#88,.T.);
#193=EDGE_CURVE('',#161,#158,#89,.T.);
#194=EDGE_CURVE('',#162,#161,#90,.T.);
#195=EDGE_CURVE('',#159,#162,#91,.T.);
#196=EDGE_CURVE('',#157,#163,#92,.T.);
#197=EDGE_CURVE('',#163,#164,#29,.T.);
#198=EDGE_CURVE('',#164,#165,#93,.T.);
#199=EDGE_CURVE('',#166,#165,#94,.T.);
#200=EDGE_CURVE('',#166,#167,#95,.T.);
#201=EDGE_CURVE('',#168,#167,#96,.T.);
#202=EDGE_CURVE('',#168,#169,#97,.T.);
#203=EDGE_CURVE('',#169,#170,#30,.T.);
#204=EDGE_CURVE('',#170,#171,#98,.T.);
#205=EDGE_CURVE('',#161,#171,#99,.T.);
#206=EDGE_CURVE('',#172,#172,#31,.T.);
#207=EDGE_CURVE('',#173,#173,#32,.T.);
#208=EDGE_CURVE('',#174,#174,#33,.T.);
#209=EDGE_CURVE('',#175,#175,#34,.T.);
#210=EDGE_CURVE('',#171,#176,#100,.T.);
#211=EDGE_CURVE('',#176,#162,#101,.T.);
#212=EDGE_CURVE('',#176,#177,#102,.T.);
#213=EDGE_CURVE('',#177,#178,#35,.T.);
#214=EDGE_CURVE('',#178,#179,#103,.T.);
#215=EDGE_CURVE('',#180,#179,#104,.T.);
#216=EDGE_CURVE('',#180,#181,#105,.T.);
#217=EDGE_CURVE('',#182,#181,#106,.T.);
#218=EDGE_CURVE('',#182,#183,#107,.T.);
#219=EDGE_CURVE('',#183,#184,#36,.T.);
#220=EDGE_CURVE('',#184,#160,#108,.T.);
#221=EDGE_CURVE('',#185,#185,#37,.T.);
#222=EDGE_CURVE('',#186,#186,#38,.T.);
#223=EDGE_CURVE('',#187,#187,#39,.T.);
#224=EDGE_CURVE('',#188,#188,#40,.T.);
#225=EDGE_CURVE('',#170,#177,#109,.T.);
#226=EDGE_CURVE('',#188,#172,#110,.T.);
#227=EDGE_CURVE('',#187,#173,#111,.T.);
#228=EDGE_CURVE('',#184,#163,#112,.T.);
#229=EDGE_CURVE('',#164,#183,#113,.T.);
#230=EDGE_CURVE('',#178,#169,#114,.T.);
#231=EDGE_CURVE('',#165,#182,#115,.T.);
#232=EDGE_CURVE('',#181,#166,#116,.T.);
#233=EDGE_CURVE('',#167,#180,#117,.T.);
#234=EDGE_CURVE('',#179,#168,#118,.T.);
#235=EDGE_CURVE('',#186,#174,#119,.T.);
#236=EDGE_CURVE('',#185,#175,#120,.T.);
#237=ORIENTED_EDGE('',*,*,#189,.T.);
#238=ORIENTED_EDGE('',*,*,#190,.T.);
#239=ORIENTED_EDGE('',*,*,#191,.T.);
#240=ORIENTED_EDGE('',*,*,#192,.T.);
#241=ORIENTED_EDGE('',*,*,#190,.F.);
#242=ORIENTED_EDGE('',*,*,#193,.F.);
#243=ORIENTED_EDGE('',*,*,#194,.F.);
#244=ORIENTED_EDGE('',*,*,#195,.F.);
#245=ORIENTED_EDGE('',*,*,#189,.F.);
#246=ORIENTED_EDGE('',*,*,#196,.T.);
#247=ORIENTED_EDGE('',*,*,#197,.T.);
#248=ORIENTED_EDGE('',*,*,#198,.T.);
#249=ORIENTED_EDGE('',*,*,#199,.F.);
#250=ORIENTED_EDGE('',*,*,#200,.T.);
#251=ORIENTED_EDGE('',*,*,#201,.F.);
#252=ORIENTED_EDGE('',*,*,#202,.T.);
#253=ORIENTED_EDGE('',*,*,#203,.T.);
#254=ORIENTED_EDGE('',*,*,#204,.T.);
#255=ORIENTED_EDGE('',*,*,#205,.F.);
#256=ORIENTED_EDGE('',*,*,#193,.T.);
#257=ORIENTED_EDGE('',*,*,#206,.T.);
#258=ORIENTED_EDGE('',*,*,#207,.T.);
#259=ORIENTED_EDGE('',*,*,#208,.T.);
#260=ORIENTED_EDGE('',*,*,#209,.T.);
#261=ORIENTED_EDGE('',*,*,#205,.T.);
#262=ORIENTED_EDGE('',*,*,#210,.T.);
#263=ORIENTED_EDGE('',*,*,#211,.T.);
#264=ORIENTED_EDGE('',*,*,#194,.T.);
#265=ORIENTED_EDGE('',*,*,#191,.F.);
#266=ORIENTED_EDGE('',*,*,#195,.T.);
#267=ORIENTED_EDGE('',*,*,#211,.F.);
#268=ORIENTED_EDGE('',*,*,#212,.T.);
#269=ORIENTED_EDGE('',*,*,#213,.T.);
#270=ORIENTED_EDGE('',*,*,#214,.T.);
#271=ORIENTED_EDGE('',*,*,#215,.F.);
#272=ORIENTED_EDGE('',*,*,#216,.T.);
#273=ORIENTED_EDGE('',*,*,#217,.F.);
#274=ORIENTED_EDGE('',*,*,#218,.T.);
#275=ORIENTED_EDGE('',*,*,#219,.T.);
#276=ORIENTED_EDGE('',*,*,#220,.T.);
#277=ORIENTED_EDGE('',*,*,#221,.T.);
#278=ORIENTED_EDGE('',*,*,#222,.T.);
#279=ORIENTED_EDGE('',*,*,#223,.T.);
#280=ORIENTED_EDGE('',*,*,#224,.T.);
#281=ORIENTED_EDGE('',*,*,#210,.F.);
#282=ORIENTED_EDGE('',*,*,#204,.F.);
#283=ORIENTED_EDGE('',*,*,#225,.T.);
#284=ORIENTED_EDGE('',*,*,#212,.F.);
#285=ORIENTED_EDGE('',*,*,#224,.F.);
#286=ORIENTED_EDGE('',*,*,#226,.T.);
#287=ORIENTED_EDGE('',*,*,#206,.F.);
#288=ORIENTED_EDGE('',*,*,#226,.F.);
#289=ORIENTED_EDGE('',*,*,#223,.F.);
#290=ORIENTED_EDGE('',*,*,#227,.T.);
#291=ORIENTED_EDGE('',*,*,#207,.F.);
#292=ORIENTED_EDGE('',*,*,#227,.F.);
#293=ORIENTED_EDGE('',*,*,#228,.F.);
#294=ORIENTED_EDGE('',*,*,#219,.F.);
#295=ORIENTED_EDGE('',*,*,#229,.F.);
#296=ORIENTED_EDGE('',*,*,#197,.F.);
#297=ORIENTED_EDGE('',*,*,#230,.F.);
#298=ORIENTED_EDGE('',*,*,#213,.F.);
#299=ORIENTED_EDGE('',*,*,#225,.F.);
#300=ORIENTED_EDGE('',*,*,#203,.F.);
#301=ORIENTED_EDGE('',*,*,#229,.T.);
#302=ORIENTED_EDGE('',*,*,#218,.F.);
#303=ORIENTED_EDGE('',*,*,#231,.F.);
#304=ORIENTED_EDGE('',*,*,#198,.F.);
#305=ORIENTED_EDGE('',*,*,#199,.T.);
#306=ORIENTED_EDGE('',*,*,#231,.T.);
#307=ORIENTED_EDGE('',*,*,#217,.T.);
#308=ORIENTED_EDGE('',*,*,#232,.T.);
#309=ORIENTED_EDGE('',*,*,#232,.F.);
#310=ORIENTED_EDGE('',*,*,#216,.F.);
#311=ORIENTED_EDGE('',*,*,#233,.F.);
#312=ORIENTED_EDGE('',*,*,#200,.F.);
#313=ORIENTED_EDGE('',*,*,#201,.T.);
#314=ORIENTED_EDGE('',*,*,#233,.T.);
#315=ORIENTED_EDGE('',*,*,#215,.T.);
#316=ORIENTED_EDGE('',*,*,#234,.T.);
#317=ORIENTED_EDGE('',*,*,#222,.F.);
#318=ORIENTED_EDGE('',*,*,#235,.T.);
#319=ORIENTED_EDGE('',*,*,#208,.F.);
#320=ORIENTED_EDGE('',*,*,#235,.F.);
#321=ORIENTED_EDGE('',*,*,#221,.F.);
#322=ORIENTED_EDGE('',*,*,#236,.T.);
#323=ORIENTED_EDGE('',*,*,#209,.F.);
#324=ORIENTED_EDGE('',*,*,#236,.F.);
#325=ORIENTED_EDGE('',*,*,#192,.F.);
#326=ORIENTED_EDGE('',*,*,#220,.F.);
#327=ORIENTED_EDGE('',*,*,#228,.T.);
#328=ORIENTED_EDGE('',*,*,#196,.F.);
#329=ORIENTED_EDGE('',*,*,#230,.T.);
#330=ORIENTED_EDGE('',*,*,#202,.F.);
#331=ORIENTED_EDGE('',*,*,#234,.F.);
#332=ORIENTED_EDGE('',*,*,#214,.F.);
#333=PLANE('',#377);
#334=PLANE('',#378);
#335=PLANE('',#379);
#336=PLANE('',#386);
#337=PLANE('',#387);
#338=PLANE('',#394);
#339=PLANE('',#399);
#340=PLANE('',#400);
#341=PLANE('',#401);
#342=PLANE('',#402);
#343=PLANE('',#405);
#344=PLANE('',#406);
#345=ADVANCED_FACE('',(#41),#333,.T.);
#346=ADVANCED_FACE('',(#42),#334,.T.);
#347=ADVANCED_FACE('',(#43,#21,#22,#23,#24),#335,.T.);
#348=ADVANCED_FACE('',(#44),#336,.T.);
#349=ADVANCED_FACE('',(#45,#25,#26,#27,#28),#337,.F.);
#350=ADVANCED_FACE('',(#46),#338,.T.);
#351=ADVANCED_FACE('',(#47),#15,.F.);
#352=ADVANCED_FACE('',(#48),#16,.F.);
#353=ADVANCED_FACE('',(#49),#17,.F.);
#354=ADVANCED_FACE('',(#50),#18,.F.);
#355=ADVANCED_FACE('',(#51),#339,.T.);
#356=ADVANCED_FACE('',(#52),#340,.T.);
#357=ADVANCED_FACE('',(#53),#341,.T.);
#358=ADVANCED_FACE('',(#54),#342,.T.);
#359=ADVANCED_FACE('',(#55),#19,.F.);
#360=ADVANCED_FACE('',(#56),#20,.F.);
#361=ADVANCED_FACE('',(#57),#343,.T.);
#362=ADVANCED_FACE('',(#58),#344,.T.);
#363=CLOSED_SHELL('',(#345,#346,#347,#348,#349,#350,#351,#352,#353,#354,
#355,#356,#357,#358,#359,#360,#361,#362));
#364=DERIVED_UNIT_ELEMENT(#366,1.);
#365=DERIVED_UNIT_ELEMENT(#609,-3.);
#366=(
MASS_UNIT()
NAMED_UNIT(*)
SI_UNIT(.KILO.,.GRAM.)
);
#367=DERIVED_UNIT((#364,#365));
#368=MEASURE_REPRESENTATION_ITEM('density measure',
POSITIVE_RATIO_MEASURE(8940.),#367);
#369=PROPERTY_DEFINITION_REPRESENTATION(#374,#371);
#370=PROPERTY_DEFINITION_REPRESENTATION(#375,#372);
#371=REPRESENTATION('material name',(#373),#606);
#372=REPRESENTATION('density',(#368),#606);
#373=DESCRIPTIVE_REPRESENTATION_ITEM('Copper','Copper');
#374=PROPERTY_DEFINITION('material property','material name',#616);
#375=PROPERTY_DEFINITION('material property','density of part',#616);
#376=AXIS2_PLACEMENT_3D('',#505,#407,#408);
#377=AXIS2_PLACEMENT_3D('',#506,#409,#410);
#378=AXIS2_PLACEMENT_3D('',#515,#415,#416);
#379=AXIS2_PLACEMENT_3D('',#521,#420,#421);
#380=AXIS2_PLACEMENT_3D('',#525,#423,#424);
#381=AXIS2_PLACEMENT_3D('',#537,#430,#431);
#382=AXIS2_PLACEMENT_3D('',#542,#434,#435);
#383=AXIS2_PLACEMENT_3D('',#544,#436,#437);
#384=AXIS2_PLACEMENT_3D('',#546,#438,#439);
#385=AXIS2_PLACEMENT_3D('',#548,#440,#441);
#386=AXIS2_PLACEMENT_3D('',#549,#442,#443);
#387=AXIS2_PLACEMENT_3D('',#553,#446,#447);
#388=AXIS2_PLACEMENT_3D('',#557,#449,#450);
#389=AXIS2_PLACEMENT_3D('',#569,#456,#457);
#390=AXIS2_PLACEMENT_3D('',#572,#459,#460);
#391=AXIS2_PLACEMENT_3D('',#574,#461,#462);
#392=AXIS2_PLACEMENT_3D('',#576,#463,#464);
#393=AXIS2_PLACEMENT_3D('',#578,#465,#466);
#394=AXIS2_PLACEMENT_3D('',#579,#467,#468);
#395=AXIS2_PLACEMENT_3D('',#581,#470,#471);
#396=AXIS2_PLACEMENT_3D('',#583,#473,#474);
#397=AXIS2_PLACEMENT_3D('',#585,#476,#477);
#398=AXIS2_PLACEMENT_3D('',#588,#480,#481);
#399=AXIS2_PLACEMENT_3D('',#590,#483,#484);
#400=AXIS2_PLACEMENT_3D('',#592,#486,#487);
#401=AXIS2_PLACEMENT_3D('',#594,#489,#490);
#402=AXIS2_PLACEMENT_3D('',#596,#492,#493);
#403=AXIS2_PLACEMENT_3D('',#598,#495,#496);
#404=AXIS2_PLACEMENT_3D('',#600,#498,#499);
#405=AXIS2_PLACEMENT_3D('',#602,#501,#502);
#406=AXIS2_PLACEMENT_3D('',#603,#503,#504);
#407=DIRECTION('axis',(0.,0.,1.));
#408=DIRECTION('refdir',(1.,0.,0.));
#409=DIRECTION('center_axis',(-0.707106781186548,0.,-0.707106781186548));
#410=DIRECTION('ref_axis',(-0.707106781186548,0.,0.707106781186548));
#411=DIRECTION('',(0.707106781186548,0.,-0.707106781186548));
#412=DIRECTION('',(0.,-1.,0.));
#413=DIRECTION('',(-0.707106781186548,0.,0.707106781186548));
#414=DIRECTION('',(0.,1.,0.));
#415=DIRECTION('center_axis',(-6.12323399573676E-17,0.,-1.));
#416=DIRECTION('ref_axis',(-1.,0.,6.12323399573676E-17));
#417=DIRECTION('',(-1.,0.,6.12323399573676E-17));
#418=DIRECTION('',(0.,1.,0.));
#419=DIRECTION('',(1.,0.,-6.12323399573676E-17));
#420=DIRECTION('center_axis',(0.,1.,0.));
#421=DIRECTION('ref_axis',(0.,0.,1.));
#422=DIRECTION('',(0.,0.,1.));
#423=DIRECTION('center_axis',(0.,-1.,0.));
#424=DIRECTION('ref_axis',(0.,0.,-1.));
#425=DIRECTION('',(0.,0.,1.));
#426=DIRECTION('',(-0.707106781186547,0.,-0.707106781186548));
#427=DIRECTION('',(1.,0.,0.));
#428=DIRECTION('',(-0.707106781186551,0.,0.707106781186544));
#429=DIRECTION('',(0.,0.,-1.));
#430=DIRECTION('center_axis',(0.,-1.,0.));
#431=DIRECTION('ref_axis',(0.,0.,-1.));
#432=DIRECTION('',(0.,0.,-1.));
#433=DIRECTION('',(0.707106781186548,0.,0.707106781186547));
#434=DIRECTION('center_axis',(0.,-1.,0.));
#435=DIRECTION('ref_axis',(0.,0.,-1.));
#436=DIRECTION('center_axis',(0.,-1.,0.));
#437=DIRECTION('ref_axis',(0.,0.,-1.));
#438=DIRECTION('center_axis',(0.,-1.,0.));
#439=DIRECTION('ref_axis',(0.,0.,-1.));
#440=DIRECTION('center_axis',(0.,-1.,0.));
#441=DIRECTION('ref_axis',(0.,0.,-1.));
#442=DIRECTION('center_axis',(0.707106781186547,0.,-0.707106781186548));
#443=DIRECTION('ref_axis',(-0.707106781186548,0.,-0.707106781186547));
#444=DIRECTION('',(0.,-1.,0.));
#445=DIRECTION('',(-0.707106781186548,0.,-0.707106781186547));
#446=DIRECTION('center_axis',(0.,1.,0.));
#447=DIRECTION('ref_axis',(1.,0.,0.));
#448=DIRECTION('',(0.,0.,1.));
#449=DIRECTION('center_axis',(0.,1.,0.));
#450=DIRECTION('ref_axis',(0.,0.,-1.));
#451=DIRECTION('',(0.,0.,1.));
#452=DIRECTION('',(0.707106781186551,0.,-0.707106781186544));
#453=DIRECTION('',(-1.,0.,0.));
#454=DIRECTION('',(0.707106781186547,0.,0.707106781186548));
#455=DIRECTION('',(0.,0.,-1.));
#456=DIRECTION('center_axis',(0.,1.,0.));
#457=DIRECTION('ref_axis',(0.,0.,-1.));
#458=DIRECTION('',(0.,0.,-1.));
#459=DIRECTION('center_axis',(0.,1.,0.));
#460=DIRECTION('ref_axis',(0.,0.,-1.));
#461=DIRECTION('center_axis',(0.,1.,0.));
#462=DIRECTION('ref_axis',(0.,0.,-1.));
#463=DIRECTION('center_axis',(0.,1.,0.));
#464=DIRECTION('ref_axis',(0.,0.,-1.));
#465=DIRECTION('center_axis',(0.,1.,0.));
#466=DIRECTION('ref_axis',(0.,0.,-1.));
#467=DIRECTION('center_axis',(1.,0.,0.));
#468=DIRECTION('ref_axis',(0.,0.,-1.));
#469=DIRECTION('',(0.,-1.,0.));
#470=DIRECTION('center_axis',(0.,1.,0.));
#471=DIRECTION('ref_axis',(0.,0.,-1.));
#472=DIRECTION('',(0.,1.,0.));
#473=DIRECTION('center_axis',(0.,1.,0.));
#474=DIRECTION('ref_axis',(0.,0.,-1.));
#475=DIRECTION('',(0.,1.,0.));
#476=DIRECTION('center_axis',(0.,1.,0.));
#477=DIRECTION('ref_axis',(1.,0.,-6.12323399573677E-17));
#478=DIRECTION('',(0.,1.,0.));
#479=DIRECTION('',(0.,-1.,0.));
#480=DIRECTION('center_axis',(0.,1.,0.));
#481=DIRECTION('ref_axis',(-1.,0.,1.83697019872103E-16));
#482=DIRECTION('',(0.,1.,0.));
#483=DIRECTION('center_axis',(-1.,0.,0.));
#484=DIRECTION('ref_axis',(0.,0.,1.));
#485=DIRECTION('',(0.,-1.,0.));
#486=DIRECTION('center_axis',(-0.707106781186548,0.,0.707106781186547));
#487=DIRECTION('ref_axis',(0.707106781186547,0.,0.707106781186548));
#488=DIRECTION('',(0.,1.,0.));
#489=DIRECTION('center_axis',(0.,0.,1.));
#490=DIRECTION('ref_axis',(1.,0.,0.));
#491=DIRECTION('',(0.,-1.,0.));
#492=DIRECTION('center_axis',(0.707106781186544,0.,0.707106781186551));
#493=DIRECTION('ref_axis',(0.707106781186551,0.,-0.707106781186544));
#494=DIRECTION('',(0.,1.,0.));
#495=DIRECTION('center_axis',(0.,1.,0.));
#496=DIRECTION('ref_axis',(0.,0.,-1.));
#497=DIRECTION('',(0.,1.,0.));
#498=DIRECTION('center_axis',(0.,1.,0.));
#499=DIRECTION('ref_axis',(0.,0.,-1.));
#500=DIRECTION('',(0.,1.,0.));
#501=DIRECTION('center_axis',(-1.,0.,0.));
#502=DIRECTION('ref_axis',(0.,0.,1.));
#503=DIRECTION('center_axis',(1.,0.,0.));
#504=DIRECTION('ref_axis',(0.,0.,-1.));
#505=CARTESIAN_POINT('',(0.,0.,0.));
#506=CARTESIAN_POINT('Origin',(3.,0.,3.));
#507=CARTESIAN_POINT('',(0.,0.05,6.00000000000001));
#508=CARTESIAN_POINT('',(6.,0.05,-3.67394039744206E-16));
#509=CARTESIAN_POINT('',(-19.75,0.05,25.75));
#510=CARTESIAN_POINT('',(6.,0.,-3.67394039744206E-16));
#511=CARTESIAN_POINT('',(6.,0.,0.));
#512=CARTESIAN_POINT('',(0.,0.,6.00000000000001));
#513=CARTESIAN_POINT('',(-19.75,0.,25.75));
#514=CARTESIAN_POINT('',(0.,0.,6.));
#515=CARTESIAN_POINT('Origin',(18.,0.,-1.10218211923262E-15));
#516=CARTESIAN_POINT('',(16.,0.05,-9.79717439317882E-16));
#517=CARTESIAN_POINT('',(0.,0.05,0.));
#518=CARTESIAN_POINT('',(16.,0.,-9.79717439317882E-16));
#519=CARTESIAN_POINT('',(16.,0.,-1.11022302462516E-15));
#520=CARTESIAN_POINT('',(0.,0.,0.));
#521=CARTESIAN_POINT('Origin',(9.,0.05,100.));
#522=CARTESIAN_POINT('',(0.,0.05,179.77579841714));
#523=CARTESIAN_POINT('',(0.,0.05,200.));
#524=CARTESIAN_POINT('',(0.,0.05,184.22420158286));
#525=CARTESIAN_POINT('Origin',(0.339745962155586,0.05,182.));
#526=CARTESIAN_POINT('',(0.,0.05,197.));
#527=CARTESIAN_POINT('',(0.,0.05,200.));
#528=CARTESIAN_POINT('',(3.,0.05,200.));
#529=CARTESIAN_POINT('',(-21.25,0.05,175.75));
#530=CARTESIAN_POINT('',(15.,0.05,200.));
#531=CARTESIAN_POINT('',(18.,0.05,200.));
#532=CARTESIAN_POINT('',(18.,0.05,197.));
#533=CARTESIAN_POINT('',(39.25,0.05,175.75));
#534=CARTESIAN_POINT('',(18.,0.05,194.22420158286));
#535=CARTESIAN_POINT('',(18.,0.05,-1.10218211923262E-15));
#536=CARTESIAN_POINT('',(18.,0.05,189.77579841714));
#537=CARTESIAN_POINT('Origin',(17.6602540378444,0.05,192.));
#538=CARTESIAN_POINT('',(18.,0.05,1.99999999999999));
#539=CARTESIAN_POINT('',(18.,0.05,-1.10218211923262E-15));
#540=CARTESIAN_POINT('',(39.75,0.05,23.7499999999999));
#541=CARTESIAN_POINT('',(4.,0.05,197.910254037844));
#542=CARTESIAN_POINT('Origin',(4.,0.05,195.660254037844));
#543=CARTESIAN_POINT('',(14.,0.05,180.589745962156));
#544=CARTESIAN_POINT('Origin',(14.,0.05,178.339745962156));
#545=CARTESIAN_POINT('',(5.,0.05,6.75));
#546=CARTESIAN_POINT('Origin',(5.,0.05,5.));
#547=CARTESIAN_POINT('',(14.6592582628907,0.05,4.16180954897479));
#548=CARTESIAN_POINT('Origin',(14.6592582628907,0.05,2.41180954897479));
#549=CARTESIAN_POINT('Origin',(17.,0.,0.999999999999996));
#550=CARTESIAN_POINT('',(18.,0.,1.99999999999999));
#551=CARTESIAN_POINT('',(18.,0.,1.99999999999999));
#552=CARTESIAN_POINT('',(39.75,0.,23.7499999999999));
#553=CARTESIAN_POINT('Origin',(9.,0.,100.));
#554=CARTESIAN_POINT('',(18.,0.,189.77579841714));
#555=CARTESIAN_POINT('',(18.,0.,-1.10218211923262E-15));
#556=CARTESIAN_POINT('',(18.,0.,194.22420158286));
#557=CARTESIAN_POINT('Origin',(17.6602540378444,0.,192.));
#558=CARTESIAN_POINT('',(18.,0.,197.));
#559=CARTESIAN_POINT('',(18.,0.,-1.10218211923262E-15));
#560=CARTESIAN_POINT('',(15.,0.,200.));
#561=CARTESIAN_POINT('',(39.25,0.,175.75));
#562=CARTESIAN_POINT('',(3.,0.,200.));
#563=CARTESIAN_POINT('',(18.,0.,200.));
#564=CARTESIAN_POINT('',(0.,0.,197.));
#565=CARTESIAN_POINT('',(-21.25,0.,175.75));
#566=CARTESIAN_POINT('',(0.,0.,184.22420158286));
#567=CARTESIAN_POINT('',(0.,0.,200.));
#568=CARTESIAN_POINT('',(0.,0.,179.77579841714));
#569=CARTESIAN_POINT('Origin',(0.339745962155586,0.,182.));
#570=CARTESIAN_POINT('',(0.,0.,200.));
#571=CARTESIAN_POINT('',(14.6592582628907,4.33680868994202E-18,4.16180954897479));
#572=CARTESIAN_POINT('Origin',(14.6592582628907,0.,2.41180954897479));
#573=CARTESIAN_POINT('',(5.,4.33680868994202E-18,6.75));
#574=CARTESIAN_POINT('Origin',(5.,0.,5.));
#575=CARTESIAN_POINT('',(14.,0.,180.589745962156));
#576=CARTESIAN_POINT('Origin',(14.,0.,178.339745962156));
#577=CARTESIAN_POINT('',(4.,0.,197.910254037844));
#578=CARTESIAN_POINT('Origin',(4.,0.,195.660254037844));
#579=CARTESIAN_POINT('Origin',(18.,0.,200.));
#580=CARTESIAN_POINT('',(18.,0.025,189.77579841714));
#581=CARTESIAN_POINT('Origin',(4.,0.025,195.660254037844));
#582=CARTESIAN_POINT('',(4.,0.025,197.910254037844));
#583=CARTESIAN_POINT('Origin',(14.,0.025,178.339745962156));
#584=CARTESIAN_POINT('',(14.,0.025,180.589745962156));
#585=CARTESIAN_POINT('Origin',(0.339745962155586,0.025,182.));
#586=CARTESIAN_POINT('',(0.,0.025,179.77579841714));
#587=CARTESIAN_POINT('',(0.,0.025,184.22420158286));
#588=CARTESIAN_POINT('Origin',(17.6602540378444,0.025,192.));
#589=CARTESIAN_POINT('',(18.,0.025,194.22420158286));
#590=CARTESIAN_POINT('Origin',(0.,0.,0.));
#591=CARTESIAN_POINT('',(0.,0.,197.));
#592=CARTESIAN_POINT('Origin',(1.5,0.,198.5));
#593=CARTESIAN_POINT('',(3.,0.,200.));
#594=CARTESIAN_POINT('Origin',(0.,0.,200.));
#595=CARTESIAN_POINT('',(15.,0.,200.));
#596=CARTESIAN_POINT('Origin',(16.5,0.,198.5));
#597=CARTESIAN_POINT('',(18.,0.,197.));
#598=CARTESIAN_POINT('Origin',(5.,0.0275,5.));
#599=CARTESIAN_POINT('',(5.,0.0275,6.75));
#600=CARTESIAN_POINT('Origin',(14.6592582628907,0.0275,2.41180954897479));
#601=CARTESIAN_POINT('',(14.6592582628907,0.0275,4.16180954897479));
#602=CARTESIAN_POINT('Origin',(0.,0.,0.));
#603=CARTESIAN_POINT('Origin',(18.,0.,200.));
#604=UNCERTAINTY_MEASURE_WITH_UNIT(LENGTH_MEASURE(0.01),#608,
'DISTANCE_ACCURACY_VALUE',
'Maximum model space distance between geometric entities at asserted c
onnectivities');
#605=UNCERTAINTY_MEASURE_WITH_UNIT(LENGTH_MEASURE(0.01),#608,
'DISTANCE_ACCURACY_VALUE',
'Maximum model space distance between geometric entities at asserted c
onnectivities');
#606=(
GEOMETRIC_REPRESENTATION_CONTEXT(3)
GLOBAL_UNCERTAINTY_ASSIGNED_CONTEXT((#604))
GLOBAL_UNIT_ASSIGNED_CONTEXT((#608,#610,#611))
REPRESENTATION_CONTEXT('','3D')
);
#607=(
GEOMETRIC_REPRESENTATION_CONTEXT(3)
GLOBAL_UNCERTAINTY_ASSIGNED_CONTEXT((#605))
GLOBAL_UNIT_ASSIGNED_CONTEXT((#608,#610,#611))
REPRESENTATION_CONTEXT('','3D')
);
#608=(
LENGTH_UNIT()
NAMED_UNIT(*)
SI_UNIT(.MILLI.,.METRE.)
);
#609=(
LENGTH_UNIT()
NAMED_UNIT(*)
SI_UNIT($,.METRE.)
);
#610=(
NAMED_UNIT(*)
PLANE_ANGLE_UNIT()
SI_UNIT($,.RADIAN.)
);
#611=(
NAMED_UNIT(*)
SI_UNIT($,.STERADIAN.)
SOLID_ANGLE_UNIT()
);
#612=SHAPE_DEFINITION_REPRESENTATION(#613,#614);
#613=PRODUCT_DEFINITION_SHAPE('',$,#616);
#614=SHAPE_REPRESENTATION('',(#376),#606);
#615=PRODUCT_DEFINITION_CONTEXT('part definition',#620,'design');
#616=PRODUCT_DEFINITION('copper braid specimen cooling',
'copper braid specimen cooling v4',#617,#615);
#617=PRODUCT_DEFINITION_FORMATION('',$,#622);
#618=PRODUCT_RELATED_PRODUCT_CATEGORY(
'copper braid specimen cooling v4','copper braid specimen cooling v4',(#622));
#619=APPLICATION_PROTOCOL_DEFINITION('international standard',
'automotive_design',2009,#620);
#620=APPLICATION_CONTEXT(
'Core Data for Automotive Mechanical Design Process');
#621=PRODUCT_CONTEXT('part definition',#620,'mechanical');
#622=PRODUCT('copper braid specimen cooling',
'copper braid specimen cooling v4',$,(#621));
#623=PRESENTATION_STYLE_ASSIGNMENT((#624));
#624=SURFACE_STYLE_USAGE(.BOTH.,#625);
#625=SURFACE_SIDE_STYLE('',(#626));
#626=SURFACE_STYLE_FILL_AREA(#627);
#627=FILL_AREA_STYLE('Copper - Polished',(#628));
#628=FILL_AREA_STYLE_COLOUR('Copper - Polished',#629);
#629=COLOUR_RGB('Copper - Polished',0.929411764705882,0.807843137254902,
0.764705882352941);
ENDSEC;
END-ISO-10303-21;
