ISO-10303-21;
HEADER;
/* Generated by software containing ST-Developer
 * from STEP Tools, Inc. (www.steptools.com) 
 */

FILE_DESCRIPTION(
/* description */ (''),
/* implementation_level */ '2;1');

FILE_NAME(
/* name */ 'electrode v2 v9.step',
/* time_stamp */ '2024-06-19T11:39:10+02:00',
/* author */ (''),
/* organization */ (''),
/* preprocessor_version */ 'ST-DEVELOPER v20',
/* originating_system */ 'Autodesk Translation Framework v13.14.0.145',

/* authorisation */ '');

FILE_SCHEMA (('AUTOMOTIVE_DESIGN { 1 0 10303 214 3 1 1 }'));
ENDSEC;

DATA;
#10=MECHANICAL_DESIGN_GEOMETRIC_PRESENTATION_REPRESENTATION('',(#13),#175);
#11=SHAPE_REPRESENTATION_RELATIONSHIP('SRR','None',#182,#12);
#12=ADVANCED_BREP_SHAPE_REPRESENTATION('',(#14),#174);
#13=STYLED_ITEM('',(#191),#14);
#14=MANIFOLD_SOLID_BREP('Body1',#93);
#15=CYLINDRICAL_SURFACE('',#112,4.5);
#16=FACE_BOUND('',#28,.T.);
#17=FACE_BOUND('',#31,.T.);
#18=PLANE('',#110);
#19=PLANE('',#114);
#20=FACE_OUTER_BOUND('',#26,.T.);
#21=FACE_OUTER_BOUND('',#27,.T.);
#22=FACE_OUTER_BOUND('',#29,.T.);
#23=FACE_OUTER_BOUND('',#30,.T.);
#24=FACE_OUTER_BOUND('',#32,.T.);
#25=FACE_OUTER_BOUND('',#33,.T.);
#26=EDGE_LOOP('',(#64,#65,#66,#67));
#27=EDGE_LOOP('',(#68));
#28=EDGE_LOOP('',(#69));
#29=EDGE_LOOP('',(#70,#71,#72,#73));
#30=EDGE_LOOP('',(#74));
#31=EDGE_LOOP('',(#75));
#32=EDGE_LOOP('',(#76,#77,#78,#79));
#33=EDGE_LOOP('',(#80,#81,#82,#83));
#34=LINE('',#154,#38);
#35=LINE('',#162,#39);
#36=LINE('',#168,#40);
#37=LINE('',#171,#41);
#38=VECTOR('',#125,1.78259830095842);
#39=VECTOR('',#136,4.5);
#40=VECTOR('',#143,1.75456529236942);
#41=VECTOR('',#148,0.0475189323871677);
#42=CIRCLE('',#108,3.5);
#43=CIRCLE('',#109,0.0651966019168315);
#44=CIRCLE('',#111,4.5);
#45=CIRCLE('',#113,4.5);
#46=CIRCLE('',#115,3.47928932188134);
#47=CIRCLE('',#117,0.0298412628575039);
#48=VERTEX_POINT('',#151);
#49=VERTEX_POINT('',#153);
#50=VERTEX_POINT('',#157);
#51=VERTEX_POINT('',#160);
#52=VERTEX_POINT('',#164);
#53=VERTEX_POINT('',#167);
#54=EDGE_CURVE('',#48,#48,#42,.T.);
#55=EDGE_CURVE('',#48,#49,#34,.T.);
#56=EDGE_CURVE('',#49,#49,#43,.T.);
#57=EDGE_CURVE('',#50,#50,#44,.T.);
#58=EDGE_CURVE('',#51,#51,#45,.T.);
#59=EDGE_CURVE('',#51,#50,#35,.T.);
#60=EDGE_CURVE('',#52,#52,#46,.T.);
#61=EDGE_CURVE('',#52,#53,#36,.T.);
#62=EDGE_CURVE('',#53,#53,#47,.T.);
#63=EDGE_CURVE('',#53,#49,#37,.T.);
#64=ORIENTED_EDGE('',*,*,#54,.F.);
#65=ORIENTED_EDGE('',*,*,#55,.T.);
#66=ORIENTED_EDGE('',*,*,#56,.T.);
#67=ORIENTED_EDGE('',*,*,#55,.F.);
#68=ORIENTED_EDGE('',*,*,#57,.F.);
#69=ORIENTED_EDGE('',*,*,#54,.T.);
#70=ORIENTED_EDGE('',*,*,#58,.F.);
#71=ORIENTED_EDGE('',*,*,#59,.T.);
#72=ORIENTED_EDGE('',*,*,#57,.T.);
#73=ORIENTED_EDGE('',*,*,#59,.F.);
#74=ORIENTED_EDGE('',*,*,#58,.T.);
#75=ORIENTED_EDGE('',*,*,#60,.F.);
#76=ORIENTED_EDGE('',*,*,#60,.T.);
#77=ORIENTED_EDGE('',*,*,#61,.T.);
#78=ORIENTED_EDGE('',*,*,#62,.F.);
#79=ORIENTED_EDGE('',*,*,#61,.F.);
#80=ORIENTED_EDGE('',*,*,#62,.T.);
#81=ORIENTED_EDGE('',*,*,#63,.T.);
#82=ORIENTED_EDGE('',*,*,#56,.F.);
#83=ORIENTED_EDGE('',*,*,#63,.F.);
#84=CONICAL_SURFACE('',#107,1.78259830095842,0.785398163397449);
#85=CONICAL_SURFACE('',#116,1.75456529236942,0.785398163397449);
#86=CONICAL_SURFACE('',#118,0.0475189323871677,0.785398163397456);
#87=ADVANCED_FACE('',(#20),#84,.T.);
#88=ADVANCED_FACE('',(#21,#16),#18,.T.);
#89=ADVANCED_FACE('',(#22),#15,.T.);
#90=ADVANCED_FACE('',(#23,#17),#19,.T.);
#91=ADVANCED_FACE('',(#24),#85,.F.);
#92=ADVANCED_FACE('',(#25),#86,.F.);
#93=CLOSED_SHELL('',(#87,#88,#89,#90,#91,#92));
#94=DERIVED_UNIT_ELEMENT(#96,1.);
#95=DERIVED_UNIT_ELEMENT(#177,-3.);
#96=(
MASS_UNIT()
NAMED_UNIT(*)
SI_UNIT(.KILO.,.GRAM.)
);
#97=DERIVED_UNIT((#94,#95));
#98=MEASURE_REPRESENTATION_ITEM('density measure',
POSITIVE_RATIO_MEASURE(7850.),#97);
#99=PROPERTY_DEFINITION_REPRESENTATION(#104,#101);
#100=PROPERTY_DEFINITION_REPRESENTATION(#105,#102);
#101=REPRESENTATION('material name',(#103),#174);
#102=REPRESENTATION('density',(#98),#174);
#103=DESCRIPTIVE_REPRESENTATION_ITEM('Steel','Steel');
#104=PROPERTY_DEFINITION('material property','material name',#184);
#105=PROPERTY_DEFINITION('material property','density of part',#184);
#106=AXIS2_PLACEMENT_3D('',#149,#119,#120);
#107=AXIS2_PLACEMENT_3D('',#150,#121,#122);
#108=AXIS2_PLACEMENT_3D('',#152,#123,#124);
#109=AXIS2_PLACEMENT_3D('',#155,#126,#127);
#110=AXIS2_PLACEMENT_3D('',#156,#128,#129);
#111=AXIS2_PLACEMENT_3D('',#158,#130,#131);
#112=AXIS2_PLACEMENT_3D('',#159,#132,#133);
#113=AXIS2_PLACEMENT_3D('',#161,#134,#135);
#114=AXIS2_PLACEMENT_3D('',#163,#137,#138);
#115=AXIS2_PLACEMENT_3D('',#165,#139,#140);
#116=AXIS2_PLACEMENT_3D('',#166,#141,#142);
#117=AXIS2_PLACEMENT_3D('',#169,#144,#145);
#118=AXIS2_PLACEMENT_3D('',#170,#146,#147);
#119=DIRECTION('axis',(0.,0.,1.));
#120=DIRECTION('refdir',(1.,0.,0.));
#121=DIRECTION('center_axis',(0.,-1.,0.));
#122=DIRECTION('ref_axis',(1.,0.,0.));
#123=DIRECTION('center_axis',(0.,-1.,0.));
#124=DIRECTION('ref_axis',(1.,0.,0.));
#125=DIRECTION('',(0.707106781186548,0.707106781186547,8.65956056235493E-17));
#126=DIRECTION('center_axis',(0.,-1.,0.));
#127=DIRECTION('ref_axis',(1.,0.,0.));
#128=DIRECTION('center_axis',(0.,1.,0.));
#129=DIRECTION('ref_axis',(0.,0.,1.));
#130=DIRECTION('center_axis',(0.,-1.,0.));
#131=DIRECTION('ref_axis',(1.,0.,0.));
#132=DIRECTION('center_axis',(0.,-1.,0.));
#133=DIRECTION('ref_axis',(1.,0.,0.));
#134=DIRECTION('center_axis',(0.,-1.,0.));
#135=DIRECTION('ref_axis',(1.,0.,0.));
#136=DIRECTION('',(0.,1.,0.));
#137=DIRECTION('center_axis',(0.,-1.,0.));
#138=DIRECTION('ref_axis',(0.,0.,-1.));
#139=DIRECTION('center_axis',(0.,-1.,0.));
#140=DIRECTION('ref_axis',(1.,0.,0.));
#141=DIRECTION('center_axis',(0.,-1.,0.));
#142=DIRECTION('ref_axis',(1.,0.,0.));
#143=DIRECTION('',(0.707106781186548,0.707106781186547,8.65956056235493E-17));
#144=DIRECTION('center_axis',(0.,-1.,0.));
#145=DIRECTION('ref_axis',(1.,0.,0.));
#146=DIRECTION('center_axis',(0.,1.,0.));
#147=DIRECTION('ref_axis',(1.,0.,0.));
#148=DIRECTION('',(-0.707106781186553,0.707106781186542,-8.659560562355E-17));
#149=CARTESIAN_POINT('',(0.,0.,0.));
#150=CARTESIAN_POINT('Origin',(0.,1.71740169904158,0.));
#151=CARTESIAN_POINT('',(-3.5,-2.77555756156289E-16,-4.28626379701574E-16));
#152=CARTESIAN_POINT('Origin',(0.,0.,0.));
#153=CARTESIAN_POINT('',(-0.065196601916831,3.43480339808317,-7.98428098527318E-18));
#154=CARTESIAN_POINT('',(-1.78259830095842,1.71740169904158,-2.18305330343423E-16));
#155=CARTESIAN_POINT('Origin',(0.,3.43480339808317,0.));
#156=CARTESIAN_POINT('Origin',(4.5,0.,0.));
#157=CARTESIAN_POINT('',(-4.5,0.,-5.51091059616309E-16));
#158=CARTESIAN_POINT('Origin',(0.,0.,0.));
#159=CARTESIAN_POINT('Origin',(0.,-0.025,0.));
#160=CARTESIAN_POINT('',(-4.5,-0.05,-5.51091059616309E-16));
#161=CARTESIAN_POINT('Origin',(0.,-0.05,0.));
#162=CARTESIAN_POINT('',(-4.5,-0.025,-5.51091059616309E-16));
#163=CARTESIAN_POINT('Origin',(3.47928932188134,-0.05,0.));
#164=CARTESIAN_POINT('',(-3.47928932188134,-0.0499999999999998,-4.26090053134955E-16));
#165=CARTESIAN_POINT('Origin',(0.,-0.05,0.));
#166=CARTESIAN_POINT('Origin',(0.,1.67472402951192,0.));
#167=CARTESIAN_POINT('',(-0.029841262857504,3.39944805902384,-3.65450070409573E-18));
#168=CARTESIAN_POINT('',(-1.75456529236942,1.67472402951192,-2.14872276919526E-16));
#169=CARTESIAN_POINT('Origin',(0.,3.39944805902384,0.));
#170=CARTESIAN_POINT('Origin',(0.,3.4171257285535,0.));
#171=CARTESIAN_POINT('',(-0.0475189323871677,3.4171257285535,-5.81939084468444E-18));
#172=UNCERTAINTY_MEASURE_WITH_UNIT(LENGTH_MEASURE(0.01),#176,
'DISTANCE_ACCURACY_VALUE',
'Maximum model space distance between geometric entities at asserted c
onnectivities');
#173=UNCERTAINTY_MEASURE_WITH_UNIT(LENGTH_MEASURE(0.01),#176,
'DISTANCE_ACCURACY_VALUE',
'Maximum model space distance between geometric entities at asserted c
onnectivities');
#174=(
GEOMETRIC_REPRESENTATION_CONTEXT(3)
GLOBAL_UNCERTAINTY_ASSIGNED_CONTEXT((#172))
GLOBAL_UNIT_ASSIGNED_CONTEXT((#176,#178,#179))
REPRESENTATION_CONTEXT('','3D')
);
#175=(
GEOMETRIC_REPRESENTATION_CONTEXT(3)
GLOBAL_UNCERTAINTY_ASSIGNED_CONTEXT((#173))
GLOBAL_UNIT_ASSIGNED_CONTEXT((#176,#178,#179))
REPRESENTATION_CONTEXT('','3D')
);
#176=(
LENGTH_UNIT()
NAMED_UNIT(*)
SI_UNIT(.MILLI.,.METRE.)
);
#177=(
LENGTH_UNIT()
NAMED_UNIT(*)
SI_UNIT($,.METRE.)
);
#178=(
NAMED_UNIT(*)
PLANE_ANGLE_UNIT()
SI_UNIT($,.RADIAN.)
);
#179=(
NAMED_UNIT(*)
SI_UNIT($,.STERADIAN.)
SOLID_ANGLE_UNIT()
);
#180=SHAPE_DEFINITION_REPRESENTATION(#181,#182);
#181=PRODUCT_DEFINITION_SHAPE('',$,#184);
#182=SHAPE_REPRESENTATION('',(#106),#174);
#183=PRODUCT_DEFINITION_CONTEXT('part definition',#188,'design');
#184=PRODUCT_DEFINITION('electrode v2','electrode v2 v9',#185,#183);
#185=PRODUCT_DEFINITION_FORMATION('',$,#190);
#186=PRODUCT_RELATED_PRODUCT_CATEGORY('electrode v2 v9',
'electrode v2 v9',(#190));
#187=APPLICATION_PROTOCOL_DEFINITION('international standard',
'automotive_design',2009,#188);
#188=APPLICATION_CONTEXT(
'Core Data for Automotive Mechanical Design Process');
#189=PRODUCT_CONTEXT('part definition',#188,'mechanical');
#190=PRODUCT('electrode v2','electrode v2 v9',$,(#189));
#191=PRESENTATION_STYLE_ASSIGNMENT((#192));
#192=SURFACE_STYLE_USAGE(.BOTH.,#193);
#193=SURFACE_SIDE_STYLE('',(#194));
#194=SURFACE_STYLE_FILL_AREA(#195);
#195=FILL_AREA_STYLE('Steel - Satin',(#196));
#196=FILL_AREA_STYLE_COLOUR('Steel - Satin',#197);
#197=COLOUR_RGB('Steel - Satin',0.627450980392157,0.627450980392157,0.627450980392157);
ENDSEC;
END-ISO-10303-21;
