ISO-10303-21;
HEADER;
/* Generated by software containing ST-Developer
 * from STEP Tools, Inc. (www.steptools.com) 
 */

FILE_DESCRIPTION(
/* description */ (''),
/* implementation_level */ '2;1');

FILE_NAME(
/* name */ 'electrode puck v2 contact plug v5.step',
/* time_stamp */ '2024-06-19T11:33:00+02:00',
/* author */ (''),
/* organization */ (''),
/* preprocessor_version */ 'ST-DEVELOPER v20',
/* originating_system */ 'Autodesk Translation Framework v13.14.0.145',

/* authorisation */ '');

FILE_SCHEMA (('AUTOMOTIVE_DESIGN { 1 0 10303 214 3 1 1 }'));
ENDSEC;

DATA;
#10=MECHANICAL_DESIGN_GEOMETRIC_PRESENTATION_REPRESENTATION('',(#13),#767);
#11=SHAPE_REPRESENTATION_RELATIONSHIP('SRR','None',#774,#12);
#12=ADVANCED_BREP_SHAPE_REPRESENTATION('',(#14),#766);
#13=STYLED_ITEM('',(#783),#14);
#14=MANIFOLD_SOLID_BREP('Body1',#428);
#15=FACE_BOUND('',#86,.T.);
#16=CONICAL_SURFACE('',#451,0.75,0.785398163397448);
#17=CONICAL_SURFACE('',#469,0.75,0.785398163397448);
#18=CONICAL_SURFACE('',#474,0.75,0.785398163397448);
#19=CONICAL_SURFACE('',#476,0.75,0.785398163397448);
#20=CONICAL_SURFACE('',#486,0.375,1.02974425867665);
#21=CONICAL_SURFACE('',#490,0.25,1.02974425867665);
#22=CYLINDRICAL_SURFACE('',#448,0.5);
#23=CYLINDRICAL_SURFACE('',#459,1.);
#24=CYLINDRICAL_SURFACE('',#466,0.5);
#25=CYLINDRICAL_SURFACE('',#478,0.5);
#26=CYLINDRICAL_SURFACE('',#480,0.5);
#27=CYLINDRICAL_SURFACE('',#488,0.75);
#28=(
BOUNDED_CURVE()
B_SPLINE_CURVE(2,(#638,#639,#640),.UNSPECIFIED.,.F.,.F.)
B_SPLINE_CURVE_WITH_KNOTS((3,3),(0.,0.0712813032687577),.UNSPECIFIED.)
CURVE()
GEOMETRIC_REPRESENTATION_ITEM()
RATIONAL_B_SPLINE_CURVE((1.,1.06281411877133,1.))
REPRESENTATION_ITEM('')
);
#29=(
BOUNDED_CURVE()
B_SPLINE_CURVE(2,(#646,#647,#648),.UNSPECIFIED.,.F.,.F.)
B_SPLINE_CURVE_WITH_KNOTS((3,3),(0.,0.0712813032687577),.UNSPECIFIED.)
CURVE()
GEOMETRIC_REPRESENTATION_ITEM()
RATIONAL_B_SPLINE_CURVE((1.,1.06281411877062,1.))
REPRESENTATION_ITEM('')
);
#30=(
BOUNDED_CURVE()
B_SPLINE_CURVE(2,(#659,#660,#661),.UNSPECIFIED.,.F.,.F.)
B_SPLINE_CURVE_WITH_KNOTS((3,3),(0.,0.0712813032687577),.UNSPECIFIED.)
CURVE()
GEOMETRIC_REPRESENTATION_ITEM()
RATIONAL_B_SPLINE_CURVE((1.,1.06281411877197,1.))
REPRESENTATION_ITEM('')
);
#31=(
BOUNDED_CURVE()
B_SPLINE_CURVE(2,(#677,#678,#679),.UNSPECIFIED.,.F.,.F.)
B_SPLINE_CURVE_WITH_KNOTS((3,3),(0.,0.0712813032687577),.UNSPECIFIED.)
CURVE()
GEOMETRIC_REPRESENTATION_ITEM()
RATIONAL_B_SPLINE_CURVE((1.,1.06281411877347,1.))
REPRESENTATION_ITEM('')
);
#32=(
BOUNDED_CURVE()
B_SPLINE_CURVE(2,(#685,#686,#687),.UNSPECIFIED.,.F.,.F.)
B_SPLINE_CURVE_WITH_KNOTS((3,3),(0.,0.0712813032687577),.UNSPECIFIED.)
CURVE()
GEOMETRIC_REPRESENTATION_ITEM()
RATIONAL_B_SPLINE_CURVE((1.,1.06281411877407,1.))
REPRESENTATION_ITEM('')
);
#33=(
BOUNDED_CURVE()
B_SPLINE_CURVE(2,(#716,#717,#718),.UNSPECIFIED.,.F.,.F.)
B_SPLINE_CURVE_WITH_KNOTS((3,3),(0.,0.0712813032687577),.UNSPECIFIED.)
CURVE()
GEOMETRIC_REPRESENTATION_ITEM()
RATIONAL_B_SPLINE_CURVE((1.,1.06281411877169,1.))
REPRESENTATION_ITEM('')
);
#34=(
BOUNDED_CURVE()
B_SPLINE_CURVE(2,(#727,#728,#729),.UNSPECIFIED.,.F.,.F.)
B_SPLINE_CURVE_WITH_KNOTS((3,3),(0.,0.0712813032687577),.UNSPECIFIED.)
CURVE()
GEOMETRIC_REPRESENTATION_ITEM()
RATIONAL_B_SPLINE_CURVE((1.,1.06281411876979,1.))
REPRESENTATION_ITEM('')
);
#35=(
BOUNDED_CURVE()
B_SPLINE_CURVE(2,(#734,#735,#736),.UNSPECIFIED.,.F.,.F.)
B_SPLINE_CURVE_WITH_KNOTS((3,3),(0.,0.0712813032687577),.UNSPECIFIED.)
CURVE()
GEOMETRIC_REPRESENTATION_ITEM()
RATIONAL_B_SPLINE_CURVE((1.,1.06281411877197,1.))
REPRESENTATION_ITEM('')
);
#36=FACE_OUTER_BOUND('',#61,.T.);
#37=FACE_OUTER_BOUND('',#62,.T.);
#38=FACE_OUTER_BOUND('',#63,.T.);
#39=FACE_OUTER_BOUND('',#64,.T.);
#40=FACE_OUTER_BOUND('',#65,.T.);
#41=FACE_OUTER_BOUND('',#66,.T.);
#42=FACE_OUTER_BOUND('',#67,.T.);
#43=FACE_OUTER_BOUND('',#68,.T.);
#44=FACE_OUTER_BOUND('',#69,.T.);
#45=FACE_OUTER_BOUND('',#70,.T.);
#46=FACE_OUTER_BOUND('',#71,.T.);
#47=FACE_OUTER_BOUND('',#72,.T.);
#48=FACE_OUTER_BOUND('',#73,.T.);
#49=FACE_OUTER_BOUND('',#74,.T.);
#50=FACE_OUTER_BOUND('',#75,.T.);
#51=FACE_OUTER_BOUND('',#76,.T.);
#52=FACE_OUTER_BOUND('',#77,.T.);
#53=FACE_OUTER_BOUND('',#78,.T.);
#54=FACE_OUTER_BOUND('',#79,.T.);
#55=FACE_OUTER_BOUND('',#80,.T.);
#56=FACE_OUTER_BOUND('',#81,.T.);
#57=FACE_OUTER_BOUND('',#82,.T.);
#58=FACE_OUTER_BOUND('',#83,.T.);
#59=FACE_OUTER_BOUND('',#84,.T.);
#60=FACE_OUTER_BOUND('',#85,.T.);
#61=EDGE_LOOP('',(#268,#269,#270,#271,#272));
#62=EDGE_LOOP('',(#273,#274,#275,#276));
#63=EDGE_LOOP('',(#277,#278,#279,#280));
#64=EDGE_LOOP('',(#281,#282,#283,#284));
#65=EDGE_LOOP('',(#285,#286,#287,#288));
#66=EDGE_LOOP('',(#289,#290,#291,#292,#293));
#67=EDGE_LOOP('',(#294,#295,#296,#297));
#68=EDGE_LOOP('',(#298,#299,#300,#301));
#69=EDGE_LOOP('',(#302,#303,#304,#305,#306,#307,#308,#309,#310,#311,#312,
#313,#314,#315,#316,#317,#318,#319,#320,#321));
#70=EDGE_LOOP('',(#322,#323,#324,#325));
#71=EDGE_LOOP('',(#326,#327,#328,#329));
#72=EDGE_LOOP('',(#330,#331,#332,#333));
#73=EDGE_LOOP('',(#334,#335,#336,#337));
#74=EDGE_LOOP('',(#338,#339,#340,#341));
#75=EDGE_LOOP('',(#342,#343,#344,#345));
#76=EDGE_LOOP('',(#346,#347,#348,#349));
#77=EDGE_LOOP('',(#350,#351,#352,#353));
#78=EDGE_LOOP('',(#354,#355,#356,#357));
#79=EDGE_LOOP('',(#358,#359,#360,#361));
#80=EDGE_LOOP('',(#362,#363,#364,#365));
#81=EDGE_LOOP('',(#366,#367,#368,#369));
#82=EDGE_LOOP('',(#370,#371,#372));
#83=EDGE_LOOP('',(#373,#374,#375,#376));
#84=EDGE_LOOP('',(#377,#378,#379,#380,#381,#382,#383,#384,#385,#386,#387));
#85=EDGE_LOOP('',(#388));
#86=EDGE_LOOP('',(#389));
#87=LINE('',#628,#115);
#88=LINE('',#633,#116);
#89=LINE('',#636,#117);
#90=LINE('',#641,#118);
#91=LINE('',#644,#119);
#92=LINE('',#649,#120);
#93=LINE('',#654,#121);
#94=LINE('',#669,#122);
#95=LINE('',#672,#123);
#96=LINE('',#675,#124);
#97=LINE('',#680,#125);
#98=LINE('',#683,#126);
#99=LINE('',#688,#127);
#100=LINE('',#694,#128);
#101=LINE('',#698,#129);
#102=LINE('',#702,#130);
#103=LINE('',#705,#131);
#104=LINE('',#707,#132);
#105=LINE('',#713,#133);
#106=LINE('',#722,#134);
#107=LINE('',#723,#135);
#108=LINE('',#726,#136);
#109=LINE('',#742,#137);
#110=LINE('',#747,#138);
#111=LINE('',#748,#139);
#112=LINE('',#755,#140);
#113=LINE('',#759,#141);
#114=LINE('',#762,#142);
#115=VECTOR('',#498,10.);
#116=VECTOR('',#503,10.);
#117=VECTOR('',#506,10.);
#118=VECTOR('',#507,10.);
#119=VECTOR('',#510,10.);
#120=VECTOR('',#511,10.);
#121=VECTOR('',#516,10.);
#122=VECTOR('',#529,10.);
#123=VECTOR('',#532,10.);
#124=VECTOR('',#535,10.);
#125=VECTOR('',#536,10.);
#126=VECTOR('',#539,10.);
#127=VECTOR('',#540,10.);
#128=VECTOR('',#547,10.);
#129=VECTOR('',#550,10.);
#130=VECTOR('',#553,10.);
#131=VECTOR('',#556,10.);
#132=VECTOR('',#557,1.);
#133=VECTOR('',#564,10.);
#134=VECTOR('',#573,10.);
#135=VECTOR('',#574,10.);
#136=VECTOR('',#577,10.);
#137=VECTOR('',#592,10.);
#138=VECTOR('',#601,10.);
#139=VECTOR('',#602,10.);
#140=VECTOR('',#611,0.375);
#141=VECTOR('',#616,0.75);
#142=VECTOR('',#619,0.25);
#143=CIRCLE('',#443,0.5);
#144=CIRCLE('',#444,1.);
#145=CIRCLE('',#445,1.);
#146=CIRCLE('',#449,0.5);
#147=CIRCLE('',#450,0.5);
#148=CIRCLE('',#452,1.);
#149=CIRCLE('',#454,0.5);
#150=CIRCLE('',#455,0.5);
#151=CIRCLE('',#456,1.);
#152=CIRCLE('',#460,1.);
#153=CIRCLE('',#461,1.);
#154=CIRCLE('',#462,1.);
#155=CIRCLE('',#463,1.);
#156=CIRCLE('',#464,1.);
#157=CIRCLE('',#465,1.);
#158=CIRCLE('',#467,0.5);
#159=CIRCLE('',#468,0.5);
#160=CIRCLE('',#471,0.5);
#161=CIRCLE('',#475,0.5);
#162=CIRCLE('',#477,0.5);
#163=CIRCLE('',#479,0.5);
#164=CIRCLE('',#481,0.5);
#165=CIRCLE('',#483,0.5);
#166=CIRCLE('',#487,0.75);
#167=CIRCLE('',#489,0.75);
#168=VERTEX_POINT('',#624);
#169=VERTEX_POINT('',#625);
#170=VERTEX_POINT('',#627);
#171=VERTEX_POINT('',#629);
#172=VERTEX_POINT('',#631);
#173=VERTEX_POINT('',#635);
#174=VERTEX_POINT('',#637);
#175=VERTEX_POINT('',#643);
#176=VERTEX_POINT('',#645);
#177=VERTEX_POINT('',#651);
#178=VERTEX_POINT('',#653);
#179=VERTEX_POINT('',#657);
#180=VERTEX_POINT('',#663);
#181=VERTEX_POINT('',#664);
#182=VERTEX_POINT('',#666);
#183=VERTEX_POINT('',#668);
#184=VERTEX_POINT('',#670);
#185=VERTEX_POINT('',#674);
#186=VERTEX_POINT('',#676);
#187=VERTEX_POINT('',#682);
#188=VERTEX_POINT('',#684);
#189=VERTEX_POINT('',#691);
#190=VERTEX_POINT('',#693);
#191=VERTEX_POINT('',#695);
#192=VERTEX_POINT('',#697);
#193=VERTEX_POINT('',#699);
#194=VERTEX_POINT('',#701);
#195=VERTEX_POINT('',#703);
#196=VERTEX_POINT('',#706);
#197=VERTEX_POINT('',#710);
#198=VERTEX_POINT('',#712);
#199=VERTEX_POINT('',#720);
#200=VERTEX_POINT('',#725);
#201=VERTEX_POINT('',#732);
#202=VERTEX_POINT('',#740);
#203=VERTEX_POINT('',#752);
#204=VERTEX_POINT('',#754);
#205=VERTEX_POINT('',#757);
#206=VERTEX_POINT('',#761);
#207=EDGE_CURVE('',#168,#169,#143,.T.);
#208=EDGE_CURVE('',#169,#170,#87,.T.);
#209=EDGE_CURVE('',#170,#171,#144,.T.);
#210=EDGE_CURVE('',#171,#172,#145,.T.);
#211=EDGE_CURVE('',#172,#168,#88,.T.);
#212=EDGE_CURVE('',#169,#173,#89,.T.);
#213=EDGE_CURVE('',#173,#174,#28,.T.);
#214=EDGE_CURVE('',#174,#170,#90,.T.);
#215=EDGE_CURVE('',#172,#175,#91,.T.);
#216=EDGE_CURVE('',#175,#176,#29,.T.);
#217=EDGE_CURVE('',#176,#168,#92,.T.);
#218=EDGE_CURVE('',#177,#176,#146,.T.);
#219=EDGE_CURVE('',#177,#178,#93,.T.);
#220=EDGE_CURVE('',#178,#168,#147,.T.);
#221=EDGE_CURVE('',#175,#179,#148,.T.);
#222=EDGE_CURVE('',#179,#177,#30,.T.);
#223=EDGE_CURVE('',#180,#181,#149,.T.);
#224=EDGE_CURVE('',#181,#182,#150,.T.);
#225=EDGE_CURVE('',#182,#183,#94,.T.);
#226=EDGE_CURVE('',#183,#184,#151,.T.);
#227=EDGE_CURVE('',#184,#180,#95,.T.);
#228=EDGE_CURVE('',#182,#185,#96,.T.);
#229=EDGE_CURVE('',#185,#186,#31,.T.);
#230=EDGE_CURVE('',#186,#183,#97,.T.);
#231=EDGE_CURVE('',#184,#187,#98,.T.);
#232=EDGE_CURVE('',#187,#188,#32,.T.);
#233=EDGE_CURVE('',#188,#180,#99,.T.);
#234=EDGE_CURVE('',#187,#174,#152,.T.);
#235=EDGE_CURVE('',#189,#186,#153,.T.);
#236=EDGE_CURVE('',#190,#189,#100,.T.);
#237=EDGE_CURVE('',#191,#190,#154,.T.);
#238=EDGE_CURVE('',#192,#191,#101,.T.);
#239=EDGE_CURVE('',#193,#192,#155,.T.);
#240=EDGE_CURVE('',#193,#194,#102,.T.);
#241=EDGE_CURVE('',#194,#195,#156,.T.);
#242=EDGE_CURVE('',#195,#179,#103,.T.);
#243=EDGE_CURVE('',#171,#196,#104,.T.);
#244=EDGE_CURVE('',#196,#196,#157,.T.);
#245=EDGE_CURVE('',#182,#197,#158,.T.);
#246=EDGE_CURVE('',#198,#197,#105,.T.);
#247=EDGE_CURVE('',#185,#198,#159,.T.);
#248=EDGE_CURVE('',#189,#198,#33,.T.);
#249=EDGE_CURVE('',#197,#199,#160,.T.);
#250=EDGE_CURVE('',#199,#191,#106,.T.);
#251=EDGE_CURVE('',#190,#197,#107,.T.);
#252=EDGE_CURVE('',#199,#200,#108,.T.);
#253=EDGE_CURVE('',#200,#192,#34,.T.);
#254=EDGE_CURVE('',#200,#201,#161,.T.);
#255=EDGE_CURVE('',#201,#193,#35,.T.);
#256=EDGE_CURVE('',#173,#188,#162,.T.);
#257=EDGE_CURVE('',#199,#202,#163,.T.);
#258=EDGE_CURVE('',#202,#201,#109,.T.);
#259=EDGE_CURVE('',#169,#180,#164,.T.);
#260=EDGE_CURVE('',#202,#178,#165,.T.);
#261=EDGE_CURVE('',#178,#195,#110,.T.);
#262=EDGE_CURVE('',#194,#202,#111,.T.);
#263=EDGE_CURVE('',#203,#203,#166,.T.);
#264=EDGE_CURVE('',#203,#204,#112,.T.);
#265=EDGE_CURVE('',#205,#205,#167,.T.);
#266=EDGE_CURVE('',#205,#203,#113,.T.);
#267=EDGE_CURVE('',#181,#206,#114,.T.);
#268=ORIENTED_EDGE('',*,*,#207,.T.);
#269=ORIENTED_EDGE('',*,*,#208,.T.);
#270=ORIENTED_EDGE('',*,*,#209,.T.);
#271=ORIENTED_EDGE('',*,*,#210,.T.);
#272=ORIENTED_EDGE('',*,*,#211,.T.);
#273=ORIENTED_EDGE('',*,*,#212,.T.);
#274=ORIENTED_EDGE('',*,*,#213,.T.);
#275=ORIENTED_EDGE('',*,*,#214,.T.);
#276=ORIENTED_EDGE('',*,*,#208,.F.);
#277=ORIENTED_EDGE('',*,*,#215,.T.);
#278=ORIENTED_EDGE('',*,*,#216,.T.);
#279=ORIENTED_EDGE('',*,*,#217,.T.);
#280=ORIENTED_EDGE('',*,*,#211,.F.);
#281=ORIENTED_EDGE('',*,*,#217,.F.);
#282=ORIENTED_EDGE('',*,*,#218,.F.);
#283=ORIENTED_EDGE('',*,*,#219,.T.);
#284=ORIENTED_EDGE('',*,*,#220,.T.);
#285=ORIENTED_EDGE('',*,*,#216,.F.);
#286=ORIENTED_EDGE('',*,*,#221,.T.);
#287=ORIENTED_EDGE('',*,*,#222,.T.);
#288=ORIENTED_EDGE('',*,*,#218,.T.);
#289=ORIENTED_EDGE('',*,*,#223,.T.);
#290=ORIENTED_EDGE('',*,*,#224,.T.);
#291=ORIENTED_EDGE('',*,*,#225,.T.);
#292=ORIENTED_EDGE('',*,*,#226,.T.);
#293=ORIENTED_EDGE('',*,*,#227,.T.);
#294=ORIENTED_EDGE('',*,*,#228,.T.);
#295=ORIENTED_EDGE('',*,*,#229,.T.);
#296=ORIENTED_EDGE('',*,*,#230,.T.);
#297=ORIENTED_EDGE('',*,*,#225,.F.);
#298=ORIENTED_EDGE('',*,*,#231,.T.);
#299=ORIENTED_EDGE('',*,*,#232,.T.);
#300=ORIENTED_EDGE('',*,*,#233,.T.);
#301=ORIENTED_EDGE('',*,*,#227,.F.);
#302=ORIENTED_EDGE('',*,*,#214,.F.);
#303=ORIENTED_EDGE('',*,*,#234,.F.);
#304=ORIENTED_EDGE('',*,*,#231,.F.);
#305=ORIENTED_EDGE('',*,*,#226,.F.);
#306=ORIENTED_EDGE('',*,*,#230,.F.);
#307=ORIENTED_EDGE('',*,*,#235,.F.);
#308=ORIENTED_EDGE('',*,*,#236,.F.);
#309=ORIENTED_EDGE('',*,*,#237,.F.);
#310=ORIENTED_EDGE('',*,*,#238,.F.);
#311=ORIENTED_EDGE('',*,*,#239,.F.);
#312=ORIENTED_EDGE('',*,*,#240,.T.);
#313=ORIENTED_EDGE('',*,*,#241,.T.);
#314=ORIENTED_EDGE('',*,*,#242,.T.);
#315=ORIENTED_EDGE('',*,*,#221,.F.);
#316=ORIENTED_EDGE('',*,*,#215,.F.);
#317=ORIENTED_EDGE('',*,*,#210,.F.);
#318=ORIENTED_EDGE('',*,*,#243,.T.);
#319=ORIENTED_EDGE('',*,*,#244,.F.);
#320=ORIENTED_EDGE('',*,*,#243,.F.);
#321=ORIENTED_EDGE('',*,*,#209,.F.);
#322=ORIENTED_EDGE('',*,*,#228,.F.);
#323=ORIENTED_EDGE('',*,*,#245,.T.);
#324=ORIENTED_EDGE('',*,*,#246,.F.);
#325=ORIENTED_EDGE('',*,*,#247,.F.);
#326=ORIENTED_EDGE('',*,*,#229,.F.);
#327=ORIENTED_EDGE('',*,*,#247,.T.);
#328=ORIENTED_EDGE('',*,*,#248,.F.);
#329=ORIENTED_EDGE('',*,*,#235,.T.);
#330=ORIENTED_EDGE('',*,*,#249,.T.);
#331=ORIENTED_EDGE('',*,*,#250,.T.);
#332=ORIENTED_EDGE('',*,*,#237,.T.);
#333=ORIENTED_EDGE('',*,*,#251,.T.);
#334=ORIENTED_EDGE('',*,*,#252,.T.);
#335=ORIENTED_EDGE('',*,*,#253,.T.);
#336=ORIENTED_EDGE('',*,*,#238,.T.);
#337=ORIENTED_EDGE('',*,*,#250,.F.);
#338=ORIENTED_EDGE('',*,*,#236,.T.);
#339=ORIENTED_EDGE('',*,*,#248,.T.);
#340=ORIENTED_EDGE('',*,*,#246,.T.);
#341=ORIENTED_EDGE('',*,*,#251,.F.);
#342=ORIENTED_EDGE('',*,*,#253,.F.);
#343=ORIENTED_EDGE('',*,*,#254,.T.);
#344=ORIENTED_EDGE('',*,*,#255,.T.);
#345=ORIENTED_EDGE('',*,*,#239,.T.);
#346=ORIENTED_EDGE('',*,*,#213,.F.);
#347=ORIENTED_EDGE('',*,*,#256,.T.);
#348=ORIENTED_EDGE('',*,*,#232,.F.);
#349=ORIENTED_EDGE('',*,*,#234,.T.);
#350=ORIENTED_EDGE('',*,*,#252,.F.);
#351=ORIENTED_EDGE('',*,*,#257,.T.);
#352=ORIENTED_EDGE('',*,*,#258,.T.);
#353=ORIENTED_EDGE('',*,*,#254,.F.);
#354=ORIENTED_EDGE('',*,*,#212,.F.);
#355=ORIENTED_EDGE('',*,*,#259,.T.);
#356=ORIENTED_EDGE('',*,*,#233,.F.);
#357=ORIENTED_EDGE('',*,*,#256,.F.);
#358=ORIENTED_EDGE('',*,*,#260,.T.);
#359=ORIENTED_EDGE('',*,*,#261,.T.);
#360=ORIENTED_EDGE('',*,*,#241,.F.);
#361=ORIENTED_EDGE('',*,*,#262,.T.);
#362=ORIENTED_EDGE('',*,*,#219,.F.);
#363=ORIENTED_EDGE('',*,*,#222,.F.);
#364=ORIENTED_EDGE('',*,*,#242,.F.);
#365=ORIENTED_EDGE('',*,*,#261,.F.);
#366=ORIENTED_EDGE('',*,*,#240,.F.);
#367=ORIENTED_EDGE('',*,*,#255,.F.);
#368=ORIENTED_EDGE('',*,*,#258,.F.);
#369=ORIENTED_EDGE('',*,*,#262,.F.);
#370=ORIENTED_EDGE('',*,*,#263,.F.);
#371=ORIENTED_EDGE('',*,*,#264,.T.);
#372=ORIENTED_EDGE('',*,*,#264,.F.);
#373=ORIENTED_EDGE('',*,*,#265,.F.);
#374=ORIENTED_EDGE('',*,*,#266,.T.);
#375=ORIENTED_EDGE('',*,*,#263,.T.);
#376=ORIENTED_EDGE('',*,*,#266,.F.);
#377=ORIENTED_EDGE('',*,*,#260,.F.);
#378=ORIENTED_EDGE('',*,*,#257,.F.);
#379=ORIENTED_EDGE('',*,*,#249,.F.);
#380=ORIENTED_EDGE('',*,*,#245,.F.);
#381=ORIENTED_EDGE('',*,*,#224,.F.);
#382=ORIENTED_EDGE('',*,*,#267,.T.);
#383=ORIENTED_EDGE('',*,*,#267,.F.);
#384=ORIENTED_EDGE('',*,*,#223,.F.);
#385=ORIENTED_EDGE('',*,*,#259,.F.);
#386=ORIENTED_EDGE('',*,*,#207,.F.);
#387=ORIENTED_EDGE('',*,*,#220,.F.);
#388=ORIENTED_EDGE('',*,*,#244,.T.);
#389=ORIENTED_EDGE('',*,*,#265,.T.);
#390=PLANE('',#442);
#391=PLANE('',#446);
#392=PLANE('',#447);
#393=PLANE('',#453);
#394=PLANE('',#457);
#395=PLANE('',#458);
#396=PLANE('',#470);
#397=PLANE('',#472);
#398=PLANE('',#473);
#399=PLANE('',#482);
#400=PLANE('',#484);
#401=PLANE('',#485);
#402=PLANE('',#491);
#403=ADVANCED_FACE('',(#36),#390,.F.);
#404=ADVANCED_FACE('',(#37),#391,.F.);
#405=ADVANCED_FACE('',(#38),#392,.F.);
#406=ADVANCED_FACE('',(#39),#22,.F.);
#407=ADVANCED_FACE('',(#40),#16,.F.);
#408=ADVANCED_FACE('',(#41),#393,.F.);
#409=ADVANCED_FACE('',(#42),#394,.F.);
#410=ADVANCED_FACE('',(#43),#395,.F.);
#411=ADVANCED_FACE('',(#44),#23,.T.);
#412=ADVANCED_FACE('',(#45),#24,.F.);
#413=ADVANCED_FACE('',(#46),#17,.F.);
#414=ADVANCED_FACE('',(#47),#396,.F.);
#415=ADVANCED_FACE('',(#48),#397,.F.);
#416=ADVANCED_FACE('',(#49),#398,.F.);
#417=ADVANCED_FACE('',(#50),#18,.F.);
#418=ADVANCED_FACE('',(#51),#19,.F.);
#419=ADVANCED_FACE('',(#52),#25,.F.);
#420=ADVANCED_FACE('',(#53),#26,.F.);
#421=ADVANCED_FACE('',(#54),#399,.F.);
#422=ADVANCED_FACE('',(#55),#400,.F.);
#423=ADVANCED_FACE('',(#56),#401,.F.);
#424=ADVANCED_FACE('',(#57),#20,.F.);
#425=ADVANCED_FACE('',(#58),#27,.F.);
#426=ADVANCED_FACE('',(#59),#21,.F.);
#427=ADVANCED_FACE('',(#60,#15),#402,.T.);
#428=CLOSED_SHELL('',(#403,#404,#405,#406,#407,#408,#409,#410,#411,#412,
#413,#414,#415,#416,#417,#418,#419,#420,#421,#422,#423,#424,#425,#426,#427));
#429=DERIVED_UNIT_ELEMENT(#431,1.);
#430=DERIVED_UNIT_ELEMENT(#769,-3.);
#431=(
MASS_UNIT()
NAMED_UNIT(*)
SI_UNIT(.KILO.,.GRAM.)
);
#432=DERIVED_UNIT((#429,#430));
#433=MEASURE_REPRESENTATION_ITEM('density measure',
POSITIVE_RATIO_MEASURE(0.),#432);
#434=PROPERTY_DEFINITION_REPRESENTATION(#439,#436);
#435=PROPERTY_DEFINITION_REPRESENTATION(#440,#437);
#436=REPRESENTATION('material name',(#438),#766);
#437=REPRESENTATION('density',(#433),#766);
#438=DESCRIPTIVE_REPRESENTATION_ITEM('Copper-Beryllium',
'Copper-Beryllium');
#439=PROPERTY_DEFINITION('material property','material name',#776);
#440=PROPERTY_DEFINITION('material property','density of part',#776);
#441=AXIS2_PLACEMENT_3D('',#622,#492,#493);
#442=AXIS2_PLACEMENT_3D('',#623,#494,#495);
#443=AXIS2_PLACEMENT_3D('',#626,#496,#497);
#444=AXIS2_PLACEMENT_3D('',#630,#499,#500);
#445=AXIS2_PLACEMENT_3D('',#632,#501,#502);
#446=AXIS2_PLACEMENT_3D('',#634,#504,#505);
#447=AXIS2_PLACEMENT_3D('',#642,#508,#509);
#448=AXIS2_PLACEMENT_3D('',#650,#512,#513);
#449=AXIS2_PLACEMENT_3D('',#652,#514,#515);
#450=AXIS2_PLACEMENT_3D('',#655,#517,#518);
#451=AXIS2_PLACEMENT_3D('',#656,#519,#520);
#452=AXIS2_PLACEMENT_3D('',#658,#521,#522);
#453=AXIS2_PLACEMENT_3D('',#662,#523,#524);
#454=AXIS2_PLACEMENT_3D('',#665,#525,#526);
#455=AXIS2_PLACEMENT_3D('',#667,#527,#528);
#456=AXIS2_PLACEMENT_3D('',#671,#530,#531);
#457=AXIS2_PLACEMENT_3D('',#673,#533,#534);
#458=AXIS2_PLACEMENT_3D('',#681,#537,#538);
#459=AXIS2_PLACEMENT_3D('',#689,#541,#542);
#460=AXIS2_PLACEMENT_3D('',#690,#543,#544);
#461=AXIS2_PLACEMENT_3D('',#692,#545,#546);
#462=AXIS2_PLACEMENT_3D('',#696,#548,#549);
#463=AXIS2_PLACEMENT_3D('',#700,#551,#552);
#464=AXIS2_PLACEMENT_3D('',#704,#554,#555);
#465=AXIS2_PLACEMENT_3D('',#708,#558,#559);
#466=AXIS2_PLACEMENT_3D('',#709,#560,#561);
#467=AXIS2_PLACEMENT_3D('',#711,#562,#563);
#468=AXIS2_PLACEMENT_3D('',#714,#565,#566);
#469=AXIS2_PLACEMENT_3D('',#715,#567,#568);
#470=AXIS2_PLACEMENT_3D('',#719,#569,#570);
#471=AXIS2_PLACEMENT_3D('',#721,#571,#572);
#472=AXIS2_PLACEMENT_3D('',#724,#575,#576);
#473=AXIS2_PLACEMENT_3D('',#730,#578,#579);
#474=AXIS2_PLACEMENT_3D('',#731,#580,#581);
#475=AXIS2_PLACEMENT_3D('',#733,#582,#583);
#476=AXIS2_PLACEMENT_3D('',#737,#584,#585);
#477=AXIS2_PLACEMENT_3D('',#738,#586,#587);
#478=AXIS2_PLACEMENT_3D('',#739,#588,#589);
#479=AXIS2_PLACEMENT_3D('',#741,#590,#591);
#480=AXIS2_PLACEMENT_3D('',#743,#593,#594);
#481=AXIS2_PLACEMENT_3D('',#744,#595,#596);
#482=AXIS2_PLACEMENT_3D('',#745,#597,#598);
#483=AXIS2_PLACEMENT_3D('',#746,#599,#600);
#484=AXIS2_PLACEMENT_3D('',#749,#603,#604);
#485=AXIS2_PLACEMENT_3D('',#750,#605,#606);
#486=AXIS2_PLACEMENT_3D('',#751,#607,#608);
#487=AXIS2_PLACEMENT_3D('',#753,#609,#610);
#488=AXIS2_PLACEMENT_3D('',#756,#612,#613);
#489=AXIS2_PLACEMENT_3D('',#758,#614,#615);
#490=AXIS2_PLACEMENT_3D('',#760,#617,#618);
#491=AXIS2_PLACEMENT_3D('',#763,#620,#621);
#492=DIRECTION('axis',(0.,0.,1.));
#493=DIRECTION('refdir',(1.,0.,0.));
#494=DIRECTION('center_axis',(0.,-1.,0.));
#495=DIRECTION('ref_axis',(1.,0.,1.83697019872103E-16));
#496=DIRECTION('center_axis',(0.,-1.,-2.22044604925031E-16));
#497=DIRECTION('ref_axis',(0.,-2.22044604925031E-16,1.));
#498=DIRECTION('',(-1.,0.,-1.83697019872103E-16));
#499=DIRECTION('center_axis',(0.,1.,0.));
#500=DIRECTION('ref_axis',(1.,0.,0.));
#501=DIRECTION('center_axis',(0.,1.,0.));
#502=DIRECTION('ref_axis',(1.,0.,0.));
#503=DIRECTION('',(1.,0.,1.83697019872103E-16));
#504=DIRECTION('center_axis',(1.83697019872103E-16,0.,-1.));
#505=DIRECTION('ref_axis',(-1.,0.,-1.83697019872103E-16));
#506=DIRECTION('',(0.,1.,2.22044604925031E-16));
#507=DIRECTION('',(0.,-1.,-2.22044604925031E-16));
#508=DIRECTION('center_axis',(-1.83697019872103E-16,0.,1.));
#509=DIRECTION('ref_axis',(1.,0.,1.83697019872103E-16));
#510=DIRECTION('',(0.,1.,2.22044604925031E-16));
#511=DIRECTION('',(0.,-1.,-2.22044604925031E-16));
#512=DIRECTION('center_axis',(0.,-1.,-2.22044604925031E-16));
#513=DIRECTION('ref_axis',(0.,-2.22044604925031E-16,1.));
#514=DIRECTION('center_axis',(0.,-1.,-2.22044604925031E-16));
#515=DIRECTION('ref_axis',(0.,2.22044604925031E-16,-1.));
#516=DIRECTION('',(0.,-1.,-2.22044604925031E-16));
#517=DIRECTION('center_axis',(0.,-1.,-2.22044604925031E-16));
#518=DIRECTION('ref_axis',(0.,-2.22044604925031E-16,1.));
#519=DIRECTION('center_axis',(0.,1.,2.22044604925031E-16));
#520=DIRECTION('ref_axis',(0.,2.22044604925031E-16,-1.));
#521=DIRECTION('center_axis',(0.,1.,2.22044604925031E-16));
#522=DIRECTION('ref_axis',(1.,0.,0.));
#523=DIRECTION('center_axis',(0.,-1.,0.));
#524=DIRECTION('ref_axis',(-1.22464679914735E-16,0.,1.));
#525=DIRECTION('center_axis',(0.,-1.,-2.22044604925031E-16));
#526=DIRECTION('ref_axis',(0.,-2.22044604925031E-16,1.));
#527=DIRECTION('center_axis',(0.,-1.,-2.22044604925031E-16));
#528=DIRECTION('ref_axis',(0.,-2.22044604925031E-16,1.));
#529=DIRECTION('',(1.22464679914735E-16,0.,-1.));
#530=DIRECTION('center_axis',(0.,1.,0.));
#531=DIRECTION('ref_axis',(1.,0.,0.));
#532=DIRECTION('',(-1.22464679914735E-16,0.,1.));
#533=DIRECTION('center_axis',(1.,0.,1.22464679914735E-16));
#534=DIRECTION('ref_axis',(1.22464679914735E-16,0.,-1.));
#535=DIRECTION('',(0.,1.,2.22044604925031E-16));
#536=DIRECTION('',(0.,-1.,-2.22044604925031E-16));
#537=DIRECTION('center_axis',(-1.,0.,-1.22464679914735E-16));
#538=DIRECTION('ref_axis',(-1.22464679914735E-16,0.,1.));
#539=DIRECTION('',(0.,1.,2.22044604925031E-16));
#540=DIRECTION('',(0.,-1.,-2.22044604925031E-16));
#541=DIRECTION('center_axis',(0.,1.,2.22044604925031E-16));
#542=DIRECTION('ref_axis',(1.,0.,0.));
#543=DIRECTION('center_axis',(0.,1.,2.22044604925031E-16));
#544=DIRECTION('ref_axis',(1.,0.,0.));
#545=DIRECTION('center_axis',(0.,1.,2.22044604925031E-16));
#546=DIRECTION('ref_axis',(1.,0.,0.));
#547=DIRECTION('',(0.,1.,2.22044604925031E-16));
#548=DIRECTION('center_axis',(0.,1.,0.));
#549=DIRECTION('ref_axis',(1.,0.,0.));
#550=DIRECTION('',(0.,-1.,-2.22044604925031E-16));
#551=DIRECTION('center_axis',(0.,1.,2.22044604925031E-16));
#552=DIRECTION('ref_axis',(1.,0.,0.));
#553=DIRECTION('',(0.,-1.,-2.22044604925031E-16));
#554=DIRECTION('center_axis',(0.,-1.,0.));
#555=DIRECTION('ref_axis',(1.,0.,0.));
#556=DIRECTION('',(0.,1.,2.22044604925031E-16));
#557=DIRECTION('',(0.,-1.,-2.22044604925031E-16));
#558=DIRECTION('center_axis',(0.,-1.,-2.22044604925031E-16));
#559=DIRECTION('ref_axis',(1.,0.,0.));
#560=DIRECTION('center_axis',(0.,-1.,-2.22044604925031E-16));
#561=DIRECTION('ref_axis',(0.,-2.22044604925031E-16,1.));
#562=DIRECTION('center_axis',(0.,-1.,-2.22044604925031E-16));
#563=DIRECTION('ref_axis',(0.,-2.22044604925031E-16,1.));
#564=DIRECTION('',(0.,-1.,-2.22044604925031E-16));
#565=DIRECTION('center_axis',(0.,-1.,-2.22044604925031E-16));
#566=DIRECTION('ref_axis',(0.,2.22044604925031E-16,-1.));
#567=DIRECTION('center_axis',(0.,1.,2.22044604925031E-16));
#568=DIRECTION('ref_axis',(0.,2.22044604925031E-16,-1.));
#569=DIRECTION('center_axis',(0.,-1.,0.));
#570=DIRECTION('ref_axis',(-1.,0.,-6.12323399573677E-17));
#571=DIRECTION('center_axis',(0.,-1.,-2.22044604925031E-16));
#572=DIRECTION('ref_axis',(0.,-2.22044604925031E-16,1.));
#573=DIRECTION('',(1.,0.,6.12323399573677E-17));
#574=DIRECTION('',(-1.,0.,-6.12323399573677E-17));
#575=DIRECTION('center_axis',(-6.12323399573677E-17,0.,1.));
#576=DIRECTION('ref_axis',(1.,0.,6.12323399573677E-17));
#577=DIRECTION('',(0.,1.,2.22044604925031E-16));
#578=DIRECTION('center_axis',(6.12323399573677E-17,0.,-1.));
#579=DIRECTION('ref_axis',(-1.,0.,-6.12323399573677E-17));
#580=DIRECTION('center_axis',(0.,1.,2.22044604925031E-16));
#581=DIRECTION('ref_axis',(0.,2.22044604925031E-16,-1.));
#582=DIRECTION('center_axis',(0.,-1.,-2.22044604925031E-16));
#583=DIRECTION('ref_axis',(0.,2.22044604925031E-16,-1.));
#584=DIRECTION('center_axis',(0.,1.,2.22044604925031E-16));
#585=DIRECTION('ref_axis',(0.,2.22044604925031E-16,-1.));
#586=DIRECTION('center_axis',(0.,-1.,-2.22044604925031E-16));
#587=DIRECTION('ref_axis',(0.,2.22044604925031E-16,-1.));
#588=DIRECTION('center_axis',(0.,-1.,-2.22044604925031E-16));
#589=DIRECTION('ref_axis',(0.,-2.22044604925031E-16,1.));
#590=DIRECTION('center_axis',(0.,-1.,-2.22044604925031E-16));
#591=DIRECTION('ref_axis',(0.,-2.22044604925031E-16,1.));
#592=DIRECTION('',(0.,1.,2.22044604925031E-16));
#593=DIRECTION('center_axis',(0.,-1.,-2.22044604925031E-16));
#594=DIRECTION('ref_axis',(0.,-2.22044604925031E-16,1.));
#595=DIRECTION('center_axis',(0.,-1.,-2.22044604925031E-16));
#596=DIRECTION('ref_axis',(0.,-2.22044604925031E-16,1.));
#597=DIRECTION('center_axis',(0.,-1.,0.));
#598=DIRECTION('ref_axis',(0.,0.,-1.));
#599=DIRECTION('center_axis',(0.,-1.,-2.22044604925031E-16));
#600=DIRECTION('ref_axis',(0.,-2.22044604925031E-16,1.));
#601=DIRECTION('',(0.,0.,1.));
#602=DIRECTION('',(0.,0.,-1.));
#603=DIRECTION('center_axis',(-1.,0.,0.));
#604=DIRECTION('ref_axis',(0.,0.,1.));
#605=DIRECTION('center_axis',(1.,0.,0.));
#606=DIRECTION('ref_axis',(0.,0.,-1.));
#607=DIRECTION('center_axis',(0.,-1.,-2.22044604925031E-16));
#608=DIRECTION('ref_axis',(0.,2.22044604925031E-16,-1.));
#609=DIRECTION('center_axis',(0.,1.,2.22044604925031E-16));
#610=DIRECTION('ref_axis',(0.,2.22044604925031E-16,-1.));
#611=DIRECTION('',(-1.04972719113862E-16,0.515038074910054,-0.857167300702112));
#612=DIRECTION('center_axis',(0.,1.,2.22044604925031E-16));
#613=DIRECTION('ref_axis',(0.,2.22044604925031E-16,-1.));
#614=DIRECTION('center_axis',(0.,1.,2.22044604925031E-16));
#615=DIRECTION('ref_axis',(0.,2.22044604925031E-16,-1.));
#616=DIRECTION('',(0.,1.,2.22044604925031E-16));
#617=DIRECTION('center_axis',(0.,1.,2.22044604925031E-16));
#618=DIRECTION('ref_axis',(0.,-2.22044604925031E-16,1.));
#619=DIRECTION('',(-1.04972719113862E-16,-0.515038074910054,0.857167300702112));
#620=DIRECTION('center_axis',(0.,-1.,-2.22044604925031E-16));
#621=DIRECTION('ref_axis',(-1.,0.,0.));
#622=CARTESIAN_POINT('',(0.,0.,0.));
#623=CARTESIAN_POINT('Origin',(-2.73133270385607,6.,-5.01737677977573E-16));
#624=CARTESIAN_POINT('',(-0.484122918275929,6.,0.125));
#625=CARTESIAN_POINT('',(-0.484122918275929,6.,-0.125));
#626=CARTESIAN_POINT('Origin',(0.,6.,1.33226762955019E-15));
#627=CARTESIAN_POINT('',(-0.992156741649223,6.,-0.125));
#628=CARTESIAN_POINT('',(-0.00810065944325975,6.,-0.125));
#629=CARTESIAN_POINT('',(-1.,6.,1.45473230946492E-15));
#630=CARTESIAN_POINT('Origin',(0.,6.,1.33226762955019E-15));
#631=CARTESIAN_POINT('',(-0.992156741649223,6.,0.125));
#632=CARTESIAN_POINT('Origin',(0.,6.,1.33226762955019E-15));
#633=CARTESIAN_POINT('',(-0.00810065944325979,6.,0.125));
#634=CARTESIAN_POINT('Origin',(-1.36971668164966,9.02465849207682,-0.125));
#635=CARTESIAN_POINT('',(-0.484122918275929,9.5,-0.125));
#636=CARTESIAN_POINT('',(-0.484122918275927,8.,-0.125));
#637=CARTESIAN_POINT('',(-0.992156741649224,10.,-0.125));
#638=CARTESIAN_POINT('Ctrl Pts',(-0.484122918275927,9.5,-0.125));
#639=CARTESIAN_POINT('Ctrl Pts',(-0.653467526067316,9.66396721143652,-0.125));
#640=CARTESIAN_POINT('Ctrl Pts',(-0.99215674164922,10.,-0.125));
#641=CARTESIAN_POINT('',(-0.992156741649221,5.,-0.125));
#642=CARTESIAN_POINT('Origin',(-1.36971668164966,9.02465849207682,0.125));
#643=CARTESIAN_POINT('',(-0.992156741649224,10.,0.125));
#644=CARTESIAN_POINT('',(-0.992156741649222,5.,0.125));
#645=CARTESIAN_POINT('',(-0.484122918275929,9.5,0.125));
#646=CARTESIAN_POINT('Ctrl Pts',(-0.992156741649222,10.,0.125));
#647=CARTESIAN_POINT('Ctrl Pts',(-0.653467526067037,9.66396721143625,0.125));
#648=CARTESIAN_POINT('Ctrl Pts',(-0.484122918275929,9.5,0.125));
#649=CARTESIAN_POINT('',(-0.484122918275928,8.,0.125));
#650=CARTESIAN_POINT('Origin',(0.,8.,1.77635683940025E-15));
#651=CARTESIAN_POINT('',(-0.125,9.5,0.484122918275929));
#652=CARTESIAN_POINT('Origin',(0.,9.5,2.1094237467878E-15));
#653=CARTESIAN_POINT('',(-0.125,6.,0.484122918275929));
#654=CARTESIAN_POINT('',(-0.125,8.,0.484122918275929));
#655=CARTESIAN_POINT('Origin',(0.,6.,1.33226762955019E-15));
#656=CARTESIAN_POINT('Origin',(0.,9.75,2.16493489801906E-15));
#657=CARTESIAN_POINT('',(-0.125,10.,0.992156741649224));
#658=CARTESIAN_POINT('Origin',(0.,10.,2.22044604925031E-15));
#659=CARTESIAN_POINT('Ctrl Pts',(-0.125,10.,0.992156741649224));
#660=CARTESIAN_POINT('Ctrl Pts',(-0.125,9.66396721143601,0.653467526066792));
#661=CARTESIAN_POINT('Ctrl Pts',(-0.125,9.5,0.48412291827593));
#662=CARTESIAN_POINT('Origin',(3.34491785318382E-16,6.,-2.73133270385607));
#663=CARTESIAN_POINT('',(-0.125,6.,-0.484122918275929));
#664=CARTESIAN_POINT('',(6.12323399573677E-17,6.,-0.499999999999999));
#665=CARTESIAN_POINT('Origin',(0.,6.,1.33226762955019E-15));
#666=CARTESIAN_POINT('',(0.125,6.,-0.484122918275929));
#667=CARTESIAN_POINT('Origin',(0.,6.,1.33226762955019E-15));
#668=CARTESIAN_POINT('',(0.125,6.,-0.992156741649223));
#669=CARTESIAN_POINT('',(0.125,6.,-0.00810065944325976));
#670=CARTESIAN_POINT('',(-0.125,6.,-0.992156741649223));
#671=CARTESIAN_POINT('Origin',(0.,6.,1.33226762955019E-15));
#672=CARTESIAN_POINT('',(-0.125,6.,-0.00810065944325979));
#673=CARTESIAN_POINT('Origin',(0.125,9.02465849207682,-1.36971668164966));
#674=CARTESIAN_POINT('',(0.125,9.5,-0.484122918275929));
#675=CARTESIAN_POINT('',(0.125,8.,-0.484122918275925));
#676=CARTESIAN_POINT('',(0.125,10.,-0.992156741649224));
#677=CARTESIAN_POINT('Ctrl Pts',(0.125,9.5,-0.484122918275925));
#678=CARTESIAN_POINT('Ctrl Pts',(0.125,9.66396721143598,-0.653467526066762));
#679=CARTESIAN_POINT('Ctrl Pts',(0.125,10.,-0.992156741649218));
#680=CARTESIAN_POINT('',(0.125,5.,-0.992156741649221));
#681=CARTESIAN_POINT('Origin',(-0.125,9.02465849207682,-1.36971668164966));
#682=CARTESIAN_POINT('',(-0.125,10.,-0.992156741649224));
#683=CARTESIAN_POINT('',(-0.125,5.,-0.992156741649221));
#684=CARTESIAN_POINT('',(-0.125,9.5,-0.484122918275929));
#685=CARTESIAN_POINT('Ctrl Pts',(-0.125,10.,-0.992156741649218));
#686=CARTESIAN_POINT('Ctrl Pts',(-0.125,9.66396721143598,-0.653467526066757));
#687=CARTESIAN_POINT('Ctrl Pts',(-0.125,9.5,-0.484122918275925));
#688=CARTESIAN_POINT('',(-0.125,8.,-0.484122918275925));
#689=CARTESIAN_POINT('Origin',(0.,5.,1.11022302462516E-15));
#690=CARTESIAN_POINT('Origin',(0.,10.,2.22044604925031E-15));
#691=CARTESIAN_POINT('',(0.992156741649224,10.,-0.125));
#692=CARTESIAN_POINT('Origin',(0.,10.,2.22044604925031E-15));
#693=CARTESIAN_POINT('',(0.992156741649223,6.,-0.125));
#694=CARTESIAN_POINT('',(0.992156741649221,5.,-0.125));
#695=CARTESIAN_POINT('',(0.992156741649223,6.,0.125));
#696=CARTESIAN_POINT('Origin',(0.,6.,1.33226762955019E-15));
#697=CARTESIAN_POINT('',(0.992156741649224,10.,0.125));
#698=CARTESIAN_POINT('',(0.992156741649222,5.,0.125));
#699=CARTESIAN_POINT('',(0.125,10.,0.992156741649224));
#700=CARTESIAN_POINT('Origin',(0.,10.,2.22044604925031E-15));
#701=CARTESIAN_POINT('',(0.125,6.,0.992156741649223));
#702=CARTESIAN_POINT('',(0.125,5.,0.992156741649223));
#703=CARTESIAN_POINT('',(-0.125,6.,0.992156741649223));
#704=CARTESIAN_POINT('Origin',(0.,6.,1.33226762955019E-15));
#705=CARTESIAN_POINT('',(-0.125,5.,0.992156741649223));
#706=CARTESIAN_POINT('',(-1.,0.,1.22464679914735E-16));
#707=CARTESIAN_POINT('',(-1.,5.,1.23268770453989E-15));
#708=CARTESIAN_POINT('Origin',(0.,0.,0.));
#709=CARTESIAN_POINT('Origin',(0.,8.,1.77635683940025E-15));
#710=CARTESIAN_POINT('',(0.484122918275929,6.,-0.125));
#711=CARTESIAN_POINT('Origin',(0.,6.,1.33226762955019E-15));
#712=CARTESIAN_POINT('',(0.484122918275929,9.5,-0.125));
#713=CARTESIAN_POINT('',(0.484122918275927,8.,-0.125));
#714=CARTESIAN_POINT('Origin',(0.,9.5,2.1094237467878E-15));
#715=CARTESIAN_POINT('Origin',(0.,9.75,2.16493489801906E-15));
#716=CARTESIAN_POINT('Ctrl Pts',(0.99215674164922,10.,-0.125));
#717=CARTESIAN_POINT('Ctrl Pts',(0.653467526067322,9.66396721143653,-0.125));
#718=CARTESIAN_POINT('Ctrl Pts',(0.484122918275927,9.5,-0.125));
#719=CARTESIAN_POINT('Origin',(2.73133270385607,6.,1.67245892659191E-16));
#720=CARTESIAN_POINT('',(0.484122918275929,6.,0.125));
#721=CARTESIAN_POINT('Origin',(0.,6.,1.33226762955019E-15));
#722=CARTESIAN_POINT('',(0.00810065944325977,6.,0.125));
#723=CARTESIAN_POINT('',(0.00810065944325978,6.,-0.125));
#724=CARTESIAN_POINT('Origin',(1.36971668164966,9.02465849207682,0.125));
#725=CARTESIAN_POINT('',(0.484122918275929,9.5,0.125));
#726=CARTESIAN_POINT('',(0.484122918275928,8.,0.125));
#727=CARTESIAN_POINT('Ctrl Pts',(0.484122918275929,9.5,0.125));
#728=CARTESIAN_POINT('Ctrl Pts',(0.653467526067434,9.66396721143664,0.125));
#729=CARTESIAN_POINT('Ctrl Pts',(0.992156741649222,10.,0.125));
#730=CARTESIAN_POINT('Origin',(1.36971668164966,9.02465849207682,-0.125));
#731=CARTESIAN_POINT('Origin',(0.,9.75,2.16493489801906E-15));
#732=CARTESIAN_POINT('',(0.125,9.5,0.484122918275929));
#733=CARTESIAN_POINT('Origin',(0.,9.5,2.1094237467878E-15));
#734=CARTESIAN_POINT('Ctrl Pts',(0.125,9.5,0.48412291827593));
#735=CARTESIAN_POINT('Ctrl Pts',(0.125,9.66396721143601,0.653467526066792));
#736=CARTESIAN_POINT('Ctrl Pts',(0.125,10.,0.992156741649224));
#737=CARTESIAN_POINT('Origin',(0.,9.75,2.16493489801906E-15));
#738=CARTESIAN_POINT('Origin',(0.,9.5,2.1094237467878E-15));
#739=CARTESIAN_POINT('Origin',(0.,8.,1.77635683940025E-15));
#740=CARTESIAN_POINT('',(0.125,6.,0.484122918275929));
#741=CARTESIAN_POINT('Origin',(0.,6.,1.33226762955019E-15));
#742=CARTESIAN_POINT('',(0.125,8.,0.484122918275929));
#743=CARTESIAN_POINT('Origin',(0.,8.,1.77635683940025E-15));
#744=CARTESIAN_POINT('Origin',(0.,6.,1.33226762955019E-15));
#745=CARTESIAN_POINT('Origin',(0.,6.,2.73133270385607));
#746=CARTESIAN_POINT('Origin',(0.,6.,1.33226762955019E-15));
#747=CARTESIAN_POINT('',(-0.125,6.,0.00810065944325977));
#748=CARTESIAN_POINT('',(0.125,6.,0.00810065944325977));
#749=CARTESIAN_POINT('Origin',(-0.125,9.02465849207682,1.36971668164966));
#750=CARTESIAN_POINT('Origin',(0.125,9.02465849207682,1.36971668164966));
#751=CARTESIAN_POINT('Origin',(-3.89817183251938E-17,4.22532273213534,9.38210116737745E-16));
#752=CARTESIAN_POINT('',(5.28667916108578E-17,4.,0.750000000000001));
#753=CARTESIAN_POINT('Origin',(-3.89817183251938E-17,4.,8.88178419700125E-16));
#754=CARTESIAN_POINT('',(-3.89817183251938E-17,4.45064546427067,9.88241813775364E-16));
#755=CARTESIAN_POINT('',(6.94253664283199E-18,4.22532273213534,0.375000000000001));
#756=CARTESIAN_POINT('Origin',(-3.89817183251938E-17,2.,4.44089209850063E-16));
#757=CARTESIAN_POINT('',(5.28667916108577E-17,-2.77555756156289E-16,0.75));
#758=CARTESIAN_POINT('Origin',(-3.89817183251938E-17,0.,0.));
#759=CARTESIAN_POINT('',(5.28667916108577E-17,2.,0.750000000000001));
#760=CARTESIAN_POINT('Origin',(0.,5.84978484524311,1.29891316485844E-15));
#761=CARTESIAN_POINT('',(0.,5.69956969048622,1.2655587001667E-15));
#762=CARTESIAN_POINT('',(3.06161699786838E-17,5.84978484524311,-0.249999999999999));
#763=CARTESIAN_POINT('Origin',(0.,0.,0.));
#764=UNCERTAINTY_MEASURE_WITH_UNIT(LENGTH_MEASURE(0.01),#768,
'DISTANCE_ACCURACY_VALUE',
'Maximum model space distance between geometric entities at asserted c
onnectivities');
#765=UNCERTAINTY_MEASURE_WITH_UNIT(LENGTH_MEASURE(0.01),#768,
'DISTANCE_ACCURACY_VALUE',
'Maximum model space distance between geometric entities at asserted c
onnectivities');
#766=(
GEOMETRIC_REPRESENTATION_CONTEXT(3)
GLOBAL_UNCERTAINTY_ASSIGNED_CONTEXT((#764))
GLOBAL_UNIT_ASSIGNED_CONTEXT((#768,#770,#771))
REPRESENTATION_CONTEXT('','3D')
);
#767=(
GEOMETRIC_REPRESENTATION_CONTEXT(3)
GLOBAL_UNCERTAINTY_ASSIGNED_CONTEXT((#765))
GLOBAL_UNIT_ASSIGNED_CONTEXT((#768,#770,#771))
REPRESENTATION_CONTEXT('','3D')
);
#768=(
LENGTH_UNIT()
NAMED_UNIT(*)
SI_UNIT(.MILLI.,.METRE.)
);
#769=(
LENGTH_UNIT()
NAMED_UNIT(*)
SI_UNIT($,.METRE.)
);
#770=(
NAMED_UNIT(*)
PLANE_ANGLE_UNIT()
SI_UNIT($,.RADIAN.)
);
#771=(
NAMED_UNIT(*)
SI_UNIT($,.STERADIAN.)
SOLID_ANGLE_UNIT()
);
#772=SHAPE_DEFINITION_REPRESENTATION(#773,#774);
#773=PRODUCT_DEFINITION_SHAPE('',$,#776);
#774=SHAPE_REPRESENTATION('',(#441),#766);
#775=PRODUCT_DEFINITION_CONTEXT('part definition',#780,'design');
#776=PRODUCT_DEFINITION('electrode puck v2 contact plug',
'electrode puck v2 contact plug v5',#777,#775);
#777=PRODUCT_DEFINITION_FORMATION('',$,#782);
#778=PRODUCT_RELATED_PRODUCT_CATEGORY(
'electrode puck v2 contact plug v5','electrode puck v2 contact plug v5',
(#782));
#779=APPLICATION_PROTOCOL_DEFINITION('international standard',
'automotive_design',2009,#780);
#780=APPLICATION_CONTEXT(
'Core Data for Automotive Mechanical Design Process');
#781=PRODUCT_CONTEXT('part definition',#780,'mechanical');
#782=PRODUCT('electrode puck v2 contact plug',
'electrode puck v2 contact plug v5',$,(#781));
#783=PRESENTATION_STYLE_ASSIGNMENT((#784));
#784=SURFACE_STYLE_USAGE(.BOTH.,#785);
#785=SURFACE_SIDE_STYLE('',(#786));
#786=SURFACE_STYLE_FILL_AREA(#787);
#787=FILL_AREA_STYLE('Brass - Polished',(#788));
#788=FILL_AREA_STYLE_COLOUR('Brass - Polished',#789);
#789=COLOUR_RGB('Brass - Polished',0.952941176470588,0.796078431372549,
0.486274509803922);
ENDSEC;
END-ISO-10303-21;
