ISO-10303-21;
HEADER;
/* Generated by software containing ST-Developer
 * from STEP Tools, Inc. (www.steptools.com) 
 */

FILE_DESCRIPTION(
/* description */ (''),
/* implementation_level */ '2;1');

FILE_NAME(
/* name */ 'electrode punch tool punch changed v9.step',
/* time_stamp */ '2024-06-19T11:38:29+02:00',
/* author */ (''),
/* organization */ (''),
/* preprocessor_version */ 'ST-DEVELOPER v20',
/* originating_system */ 'Autodesk Translation Framework v13.14.0.145',

/* authorisation */ '');

FILE_SCHEMA (('AUTOMOTIVE_DESIGN { 1 0 10303 214 3 1 1 }'));
ENDSEC;

DATA;
#10=MECHANICAL_DESIGN_GEOMETRIC_PRESENTATION_REPRESENTATION('',(#13),#156);
#11=SHAPE_REPRESENTATION_RELATIONSHIP('SRR','None',#163,#12);
#12=ADVANCED_BREP_SHAPE_REPRESENTATION('',(#14),#155);
#13=STYLED_ITEM('',(#172),#14);
#14=MANIFOLD_SOLID_BREP('Body2',#81);
#15=CONICAL_SURFACE('',#103,1.75064580884204,0.698131700797732);
#16=FACE_BOUND('',#34,.T.);
#17=LINE('',#140,#20);
#18=LINE('',#147,#21);
#19=LINE('',#151,#22);
#20=VECTOR('',#116,7.);
#21=VECTOR('',#125,3.50000000000001);
#22=VECTOR('',#130,1.75064580884204);
#23=CYLINDRICAL_SURFACE('',#97,7.);
#24=CYLINDRICAL_SURFACE('',#101,3.50000000000001);
#25=FACE_OUTER_BOUND('',#31,.T.);
#26=FACE_OUTER_BOUND('',#32,.T.);
#27=FACE_OUTER_BOUND('',#33,.T.);
#28=FACE_OUTER_BOUND('',#35,.T.);
#29=FACE_OUTER_BOUND('',#36,.T.);
#30=FACE_OUTER_BOUND('',#37,.T.);
#31=EDGE_LOOP('',(#56));
#32=EDGE_LOOP('',(#57,#58,#59,#60));
#33=EDGE_LOOP('',(#61));
#34=EDGE_LOOP('',(#62));
#35=EDGE_LOOP('',(#63,#64,#65,#66));
#36=EDGE_LOOP('',(#67,#68,#69,#70));
#37=EDGE_LOOP('',(#71));
#38=CIRCLE('',#96,7.);
#39=CIRCLE('',#98,7.);
#40=CIRCLE('',#100,3.5);
#41=CIRCLE('',#102,3.50000000000002);
#42=CIRCLE('',#104,0.00129161768404735);
#43=VERTEX_POINT('',#135);
#44=VERTEX_POINT('',#138);
#45=VERTEX_POINT('',#142);
#46=VERTEX_POINT('',#145);
#47=VERTEX_POINT('',#149);
#48=EDGE_CURVE('',#43,#43,#38,.T.);
#49=EDGE_CURVE('',#44,#44,#39,.T.);
#50=EDGE_CURVE('',#44,#43,#17,.T.);
#51=EDGE_CURVE('',#45,#45,#40,.T.);
#52=EDGE_CURVE('',#46,#46,#41,.T.);
#53=EDGE_CURVE('',#46,#45,#18,.T.);
#54=EDGE_CURVE('',#47,#47,#42,.T.);
#55=EDGE_CURVE('',#47,#46,#19,.T.);
#56=ORIENTED_EDGE('',*,*,#48,.F.);
#57=ORIENTED_EDGE('',*,*,#49,.F.);
#58=ORIENTED_EDGE('',*,*,#50,.T.);
#59=ORIENTED_EDGE('',*,*,#48,.T.);
#60=ORIENTED_EDGE('',*,*,#50,.F.);
#61=ORIENTED_EDGE('',*,*,#49,.T.);
#62=ORIENTED_EDGE('',*,*,#51,.F.);
#63=ORIENTED_EDGE('',*,*,#52,.F.);
#64=ORIENTED_EDGE('',*,*,#53,.T.);
#65=ORIENTED_EDGE('',*,*,#51,.T.);
#66=ORIENTED_EDGE('',*,*,#53,.F.);
#67=ORIENTED_EDGE('',*,*,#54,.F.);
#68=ORIENTED_EDGE('',*,*,#55,.T.);
#69=ORIENTED_EDGE('',*,*,#52,.T.);
#70=ORIENTED_EDGE('',*,*,#55,.F.);
#71=ORIENTED_EDGE('',*,*,#54,.T.);
#72=PLANE('',#95);
#73=PLANE('',#99);
#74=PLANE('',#105);
#75=ADVANCED_FACE('',(#25),#72,.T.);
#76=ADVANCED_FACE('',(#26),#23,.T.);
#77=ADVANCED_FACE('',(#27,#16),#73,.T.);
#78=ADVANCED_FACE('',(#28),#24,.T.);
#79=ADVANCED_FACE('',(#29),#15,.T.);
#80=ADVANCED_FACE('',(#30),#74,.T.);
#81=CLOSED_SHELL('',(#75,#76,#77,#78,#79,#80));
#82=DERIVED_UNIT_ELEMENT(#84,1.);
#83=DERIVED_UNIT_ELEMENT(#158,-3.);
#84=(
MASS_UNIT()
NAMED_UNIT(*)
SI_UNIT(.KILO.,.GRAM.)
);
#85=DERIVED_UNIT((#82,#83));
#86=MEASURE_REPRESENTATION_ITEM('density measure',
POSITIVE_RATIO_MEASURE(7850.),#85);
#87=PROPERTY_DEFINITION_REPRESENTATION(#92,#89);
#88=PROPERTY_DEFINITION_REPRESENTATION(#93,#90);
#89=REPRESENTATION('material name',(#91),#155);
#90=REPRESENTATION('density',(#86),#155);
#91=DESCRIPTIVE_REPRESENTATION_ITEM('Steel','Steel');
#92=PROPERTY_DEFINITION('material property','material name',#165);
#93=PROPERTY_DEFINITION('material property','density of part',#165);
#94=AXIS2_PLACEMENT_3D('',#133,#106,#107);
#95=AXIS2_PLACEMENT_3D('',#134,#108,#109);
#96=AXIS2_PLACEMENT_3D('',#136,#110,#111);
#97=AXIS2_PLACEMENT_3D('',#137,#112,#113);
#98=AXIS2_PLACEMENT_3D('',#139,#114,#115);
#99=AXIS2_PLACEMENT_3D('',#141,#117,#118);
#100=AXIS2_PLACEMENT_3D('',#143,#119,#120);
#101=AXIS2_PLACEMENT_3D('',#144,#121,#122);
#102=AXIS2_PLACEMENT_3D('',#146,#123,#124);
#103=AXIS2_PLACEMENT_3D('',#148,#126,#127);
#104=AXIS2_PLACEMENT_3D('',#150,#128,#129);
#105=AXIS2_PLACEMENT_3D('',#152,#131,#132);
#106=DIRECTION('axis',(0.,0.,1.));
#107=DIRECTION('refdir',(1.,0.,0.));
#108=DIRECTION('center_axis',(0.,1.,0.));
#109=DIRECTION('ref_axis',(0.,0.,1.));
#110=DIRECTION('center_axis',(0.,-1.,0.));
#111=DIRECTION('ref_axis',(1.,0.,0.));
#112=DIRECTION('center_axis',(0.,-1.,0.));
#113=DIRECTION('ref_axis',(1.,0.,0.));
#114=DIRECTION('center_axis',(0.,-1.,0.));
#115=DIRECTION('ref_axis',(1.,0.,0.));
#116=DIRECTION('',(0.,1.,0.));
#117=DIRECTION('center_axis',(0.,-1.,0.));
#118=DIRECTION('ref_axis',(0.,0.,-1.));
#119=DIRECTION('center_axis',(0.,-1.,0.));
#120=DIRECTION('ref_axis',(1.,0.,0.));
#121=DIRECTION('center_axis',(0.,-1.,0.));
#122=DIRECTION('ref_axis',(1.,0.,0.));
#123=DIRECTION('center_axis',(0.,-1.,0.));
#124=DIRECTION('ref_axis',(1.,0.,0.));
#125=DIRECTION('',(0.,1.,0.));
#126=DIRECTION('center_axis',(0.,1.,0.));
#127=DIRECTION('ref_axis',(1.,0.,0.));
#128=DIRECTION('center_axis',(0.,-1.,0.));
#129=DIRECTION('ref_axis',(1.,0.,0.));
#130=DIRECTION('',(-0.64278760968654,0.766044443118978,-7.87187788734199E-17));
#131=DIRECTION('center_axis',(0.,-1.,0.));
#132=DIRECTION('ref_axis',(0.,0.,-1.));
#133=CARTESIAN_POINT('',(0.,0.,0.));
#134=CARTESIAN_POINT('Origin',(7.,20.,0.));
#135=CARTESIAN_POINT('',(-7.,20.,-8.57252759403147E-16));
#136=CARTESIAN_POINT('Origin',(0.,20.,0.));
#137=CARTESIAN_POINT('Origin',(0.,17.5,0.));
#138=CARTESIAN_POINT('',(-7.,15.,-8.57252759403147E-16));
#139=CARTESIAN_POINT('Origin',(0.,15.,0.));
#140=CARTESIAN_POINT('',(-7.,17.5,-8.57252759403147E-16));
#141=CARTESIAN_POINT('Origin',(3.5,15.,0.));
#142=CARTESIAN_POINT('',(-3.50000000000001,15.,-4.28626379701575E-16));
#143=CARTESIAN_POINT('Origin',(0.,15.,0.));
#144=CARTESIAN_POINT('Origin',(0.,9.58479914203227,0.));
#145=CARTESIAN_POINT('',(-3.50000000000001,4.16959828406454,-4.28626379701575E-16));
#146=CARTESIAN_POINT('Origin',(0.,4.16959828406454,0.));
#147=CARTESIAN_POINT('',(-3.50000000000001,9.58479914203227,-4.28626379701575E-16));
#148=CARTESIAN_POINT('Origin',(0.,2.08479914203227,0.));
#149=CARTESIAN_POINT('',(-0.00129161768404773,2.77555756156289E-16,-1.58177546249079E-19));
#150=CARTESIAN_POINT('Origin',(0.,0.,0.));
#151=CARTESIAN_POINT('',(-1.75064580884204,2.08479914203227,-2.14392278623913E-16));
#152=CARTESIAN_POINT('Origin',(0.,0.,0.));
#153=UNCERTAINTY_MEASURE_WITH_UNIT(LENGTH_MEASURE(0.01),#157,
'DISTANCE_ACCURACY_VALUE',
'Maximum model space distance between geometric entities at asserted c
onnectivities');
#154=UNCERTAINTY_MEASURE_WITH_UNIT(LENGTH_MEASURE(0.01),#157,
'DISTANCE_ACCURACY_VALUE',
'Maximum model space distance between geometric entities at asserted c
onnectivities');
#155=(
GEOMETRIC_REPRESENTATION_CONTEXT(3)
GLOBAL_UNCERTAINTY_ASSIGNED_CONTEXT((#153))
GLOBAL_UNIT_ASSIGNED_CONTEXT((#157,#159,#160))
REPRESENTATION_CONTEXT('','3D')
);
#156=(
GEOMETRIC_REPRESENTATION_CONTEXT(3)
GLOBAL_UNCERTAINTY_ASSIGNED_CONTEXT((#154))
GLOBAL_UNIT_ASSIGNED_CONTEXT((#157,#159,#160))
REPRESENTATION_CONTEXT('','3D')
);
#157=(
LENGTH_UNIT()
NAMED_UNIT(*)
SI_UNIT(.MILLI.,.METRE.)
);
#158=(
LENGTH_UNIT()
NAMED_UNIT(*)
SI_UNIT($,.METRE.)
);
#159=(
NAMED_UNIT(*)
PLANE_ANGLE_UNIT()
SI_UNIT($,.RADIAN.)
);
#160=(
NAMED_UNIT(*)
SI_UNIT($,.STERADIAN.)
SOLID_ANGLE_UNIT()
);
#161=SHAPE_DEFINITION_REPRESENTATION(#162,#163);
#162=PRODUCT_DEFINITION_SHAPE('',$,#165);
#163=SHAPE_REPRESENTATION('',(#94),#155);
#164=PRODUCT_DEFINITION_CONTEXT('part definition',#169,'design');
#165=PRODUCT_DEFINITION('electrode punch tool punch changed',
'electrode punch tool punch changed v9',#166,#164);
#166=PRODUCT_DEFINITION_FORMATION('',$,#171);
#167=PRODUCT_RELATED_PRODUCT_CATEGORY(
'electrode punch tool punch changed v9',
'electrode punch tool punch changed v9',(#171));
#168=APPLICATION_PROTOCOL_DEFINITION('international standard',
'automotive_design',2009,#169);
#169=APPLICATION_CONTEXT(
'Core Data for Automotive Mechanical Design Process');
#170=PRODUCT_CONTEXT('part definition',#169,'mechanical');
#171=PRODUCT('electrode punch tool punch changed',
'electrode punch tool punch changed v9',$,(#170));
#172=PRESENTATION_STYLE_ASSIGNMENT((#173));
#173=SURFACE_STYLE_USAGE(.BOTH.,#174);
#174=SURFACE_SIDE_STYLE('',(#175));
#175=SURFACE_STYLE_FILL_AREA(#176);
#176=FILL_AREA_STYLE('Steel - Satin',(#177));
#177=FILL_AREA_STYLE_COLOUR('Steel - Satin',#178);
#178=COLOUR_RGB('Steel - Satin',0.627450980392157,0.627450980392157,0.627450980392157);
ENDSEC;
END-ISO-10303-21;
