ISO-10303-21;
HEADER;
/* Generated by software containing ST-Developer
 * from STEP Tools, Inc. (www.steptools.com) 
 */

FILE_DESCRIPTION(
/* description */ (''),
/* implementation_level */ '2;1');

FILE_NAME(
/* name */ 'ISO 4762-M2 X 5-5-A2 v1.step',
/* time_stamp */ '2024-06-19T11:43:28+02:00',
/* author */ (''),
/* organization */ (''),
/* preprocessor_version */ 'ST-DEVELOPER v20',
/* originating_system */ 'Autodesk Translation Framework v13.14.0.145',

/* authorisation */ '');

FILE_SCHEMA (('AUTOMOTIVE_DESIGN { 1 0 10303 214 3 1 1 }'));
ENDSEC;

DATA;
#10=MECHANICAL_DESIGN_GEOMETRIC_PRESENTATION_REPRESENTATION('',(#13),#839);
#11=SHAPE_REPRESENTATION_RELATIONSHIP('SRR','None',#846,#12);
#12=ADVANCED_BREP_SHAPE_REPRESENTATION('',(#14),#838);
#13=STYLED_ITEM('',(#856),#14);
#14=MANIFOLD_SOLID_BREP('Body1',#344);
#15=FACE_BOUND('',#120,.T.);
#16=FACE_BOUND('',#123,.T.);
#17=PLANE('',#380);
#18=PLANE('',#381);
#19=PLANE('',#382);
#20=PLANE('',#383);
#21=PLANE('',#384);
#22=PLANE('',#385);
#23=PLANE('',#386);
#24=PLANE('',#387);
#25=PLANE('',#388);
#26=PLANE('',#389);
#27=PLANE('',#390);
#28=PLANE('',#391);
#29=PLANE('',#392);
#30=PLANE('',#393);
#31=PLANE('',#394);
#32=CONICAL_SURFACE('',#369,1.0000000000332,0.785398163397448);
#33=CONICAL_SURFACE('',#373,0.772499999982301,1.0471975511658);
#34=LINE('',#758,#62);
#35=LINE('',#764,#63);
#36=LINE('',#768,#64);
#37=LINE('',#773,#65);
#38=LINE('',#790,#66);
#39=LINE('',#792,#67);
#40=LINE('',#794,#68);
#41=LINE('',#796,#69);
#42=LINE('',#798,#70);
#43=LINE('',#799,#71);
#44=LINE('',#802,#72);
#45=LINE('',#803,#73);
#46=LINE('',#805,#74);
#47=LINE('',#806,#75);
#48=LINE('',#809,#76);
#49=LINE('',#810,#77);
#50=LINE('',#811,#78);
#51=LINE('',#813,#79);
#52=LINE('',#815,#80);
#53=LINE('',#816,#81);
#54=LINE('',#818,#82);
#55=LINE('',#820,#83);
#56=LINE('',#821,#84);
#57=LINE('',#824,#85);
#58=LINE('',#825,#86);
#59=LINE('',#826,#87);
#60=LINE('',#828,#88);
#61=LINE('',#829,#89);
#62=VECTOR('',#415,0.99999999999998);
#63=VECTOR('',#422,1.0000000000332);
#64=VECTOR('',#427,1.9);
#65=VECTOR('',#432,0.772499999982301);
#66=VECTOR('',#451,1000.);
#67=VECTOR('',#452,1000.);
#68=VECTOR('',#453,1000.);
#69=VECTOR('',#454,1000.);
#70=VECTOR('',#455,1000.);
#71=VECTOR('',#456,1000.);
#72=VECTOR('',#459,1000.);
#73=VECTOR('',#460,1000.);
#74=VECTOR('',#461,1000.);
#75=VECTOR('',#462,1000.);
#76=VECTOR('',#465,1000.);
#77=VECTOR('',#466,1000.);
#78=VECTOR('',#467,1000.);
#79=VECTOR('',#470,1000.);
#80=VECTOR('',#471,1000.);
#81=VECTOR('',#472,1000.);
#82=VECTOR('',#475,1000.);
#83=VECTOR('',#476,1000.);
#84=VECTOR('',#477,1000.);
#85=VECTOR('',#480,1000.);
#86=VECTOR('',#481,1000.);
#87=VECTOR('',#482,1000.);
#88=VECTOR('',#485,1000.);
#89=VECTOR('',#486,1000.);
#90=CYLINDRICAL_SURFACE('',#366,0.99999999999998);
#91=CYLINDRICAL_SURFACE('',#371,1.9);
#92=FACE_OUTER_BOUND('',#113,.T.);
#93=FACE_OUTER_BOUND('',#114,.T.);
#94=FACE_OUTER_BOUND('',#115,.T.);
#95=FACE_OUTER_BOUND('',#116,.T.);
#96=FACE_OUTER_BOUND('',#117,.T.);
#97=FACE_OUTER_BOUND('',#118,.T.);
#98=FACE_OUTER_BOUND('',#119,.T.);
#99=FACE_OUTER_BOUND('',#121,.T.);
#100=FACE_OUTER_BOUND('',#122,.T.);
#101=FACE_OUTER_BOUND('',#124,.T.);
#102=FACE_OUTER_BOUND('',#125,.T.);
#103=FACE_OUTER_BOUND('',#126,.T.);
#104=FACE_OUTER_BOUND('',#127,.T.);
#105=FACE_OUTER_BOUND('',#128,.T.);
#106=FACE_OUTER_BOUND('',#129,.T.);
#107=FACE_OUTER_BOUND('',#130,.T.);
#108=FACE_OUTER_BOUND('',#131,.T.);
#109=FACE_OUTER_BOUND('',#132,.T.);
#110=FACE_OUTER_BOUND('',#133,.T.);
#111=FACE_OUTER_BOUND('',#134,.T.);
#112=FACE_OUTER_BOUND('',#135,.T.);
#113=EDGE_LOOP('',(#229,#230,#231,#232,#233,#234));
#114=EDGE_LOOP('',(#235,#236,#237,#238));
#115=EDGE_LOOP('',(#239,#240,#241,#242,#243,#244));
#116=EDGE_LOOP('',(#245,#246,#247,#248,#249));
#117=EDGE_LOOP('',(#250,#251,#252,#253));
#118=EDGE_LOOP('',(#254,#255,#256,#257,#258,#259,#260,#261));
#119=EDGE_LOOP('',(#262));
#120=EDGE_LOOP('',(#263,#264));
#121=EDGE_LOOP('',(#265));
#122=EDGE_LOOP('',(#266));
#123=EDGE_LOOP('',(#267,#268,#269,#270,#271,#272));
#124=EDGE_LOOP('',(#273,#274,#275,#276,#277));
#125=EDGE_LOOP('',(#278,#279,#280,#281,#282));
#126=EDGE_LOOP('',(#283,#284,#285,#286,#287));
#127=EDGE_LOOP('',(#288,#289,#290,#291,#292));
#128=EDGE_LOOP('',(#293,#294,#295,#296,#297));
#129=EDGE_LOOP('',(#298,#299,#300,#301,#302));
#130=EDGE_LOOP('',(#303,#304,#305));
#131=EDGE_LOOP('',(#306,#307,#308));
#132=EDGE_LOOP('',(#309,#310,#311));
#133=EDGE_LOOP('',(#312,#313,#314));
#134=EDGE_LOOP('',(#315,#316,#317));
#135=EDGE_LOOP('',(#318,#319,#320));
#136=B_SPLINE_CURVE_WITH_KNOTS('',3,(#508,#509,#510,#511,#512,#513,#514,
#515,#516,#517,#518,#519,#520,#521,#522,#523,#524,#525,#526,#527,#528,#529,
#530,#531,#532,#533,#534,#535,#536,#537,#538,#539,#540,#541,#542,#543,#544,
#545,#546,#547,#548,#549,#550,#551,#552,#553,#554,#555,#556,#557,#558,#559,
#560,#561,#562,#563,#564,#565,#566,#567,#568,#569,#570,#571,#572,#573,#574,
#575,#576,#577,#578,#579,#580,#581,#582,#583,#584,#585,#586,#587,#588,#589,
#590,#591,#592,#593,#594,#595,#596,#597,#598,#599,#600,#601,#602,#603,#604,
#605,#606,#607,#608,#609,#610,#611,#612,#613,#614,#615,#616,#617,#618,#619,
#620,#621,#622,#623,#624,#625,#626,#627,#628),.UNSPECIFIED.,.F.,.F.,(4,
3,3,3,3,3,3,3,3,3,3,3,3,3,3,3,3,3,3,3,3,3,3,3,3,3,3,3,3,3,3,3,3,3,3,3,3,
3,3,3,4),(0.,0.0323414770566555,0.0648927823970835,0.0973058717422771,0.109375,
0.1171875,0.125,0.156701110413719,0.188630993333368,0.220348321287569,0.25,
0.279765530371061,0.309737092513472,0.339581461424322,0.359375,0.3671875,
0.375,0.410080216111541,0.445391602867274,0.480441102803297,0.5,0.532329360021479,
0.564847506717295,0.597196009733622,0.609375,0.617203583791544,0.625,0.656701110413485,
0.688630993332878,0.720348321286799,0.75,0.779765530371057,0.809737092513477,
0.839581461424367,0.859375,0.8671875,0.875,0.907362713309616,0.939895400248934,
0.972182703395351,1.),.UNSPECIFIED.);
#137=B_SPLINE_CURVE_WITH_KNOTS('',3,(#629,#630,#631,#632,#633,#634,#635,
#636,#637,#638,#639,#640,#641,#642,#643,#644,#645,#646,#647,#648,#649,#650,
#651,#652,#653,#654,#655,#656,#657,#658,#659,#660,#661,#662,#663,#664,#665,
#666,#667,#668,#669,#670,#671,#672,#673,#674,#675,#676,#677,#678,#679,#680,
#681,#682,#683,#684,#685,#686,#687,#688,#689,#690,#691,#692,#693,#694,#695,
#696,#697,#698,#699,#700,#701,#702,#703,#704,#705,#706,#707,#708,#709,#710,
#711,#712,#713,#714,#715,#716,#717,#718,#719,#720,#721,#722,#723,#724,#725,
#726,#727,#728,#729,#730,#731,#732,#733,#734,#735,#736,#737,#738,#739,#740,
#741,#742,#743,#744,#745,#746,#747,#748,#749),.UNSPECIFIED.,.F.,.F.,(4,
3,3,3,3,3,3,3,3,3,3,3,3,3,3,3,3,3,3,3,3,3,3,3,3,3,3,3,3,3,3,3,3,3,3,3,3,
3,3,3,4),(0.,0.0323414770566529,0.0648927823970799,0.0973058717422675,0.109375,
0.1171875,0.125,0.156701110413654,0.18863099333323,0.220348321287361,0.25,
0.27976553037107,0.309737092513479,0.339581461424348,0.359374999999999,
0.367187499999999,0.374999999999999,0.41008021611039,0.445391602864952,
0.480441102799794,0.499999999999999,0.532329360021412,0.564847506717187,
0.597196009733492,0.609374999999999,0.617203583791471,0.624999999999999,
0.65670111041279,0.688630993331499,0.720348321284789,0.749999999999999,
0.779765530371066,0.809737092513482,0.839581461424357,0.859374999999999,
0.8671875,0.875,0.907362713309615,0.939895400248944,0.972182703395359,1.),
 .UNSPECIFIED.);
#138=CIRCLE('',#359,0.99999999999998);
#139=CIRCLE('',#360,0.99999999999998);
#140=CIRCLE('',#361,0.0999999999999998);
#141=CIRCLE('',#363,1.8);
#142=CIRCLE('',#364,0.100000000000001);
#143=CIRCLE('',#365,1.9);
#144=CIRCLE('',#367,0.99999999999998);
#145=CIRCLE('',#368,0.99999999999998);
#146=CIRCLE('',#370,0.774000000035358);
#147=CIRCLE('',#372,1.9);
#148=CIRCLE('',#374,0.772499999982301);
#149=CIRCLE('',#375,0.772499999982301);
#150=CIRCLE('',#376,0.772499999982301);
#151=CIRCLE('',#377,0.772499999982301);
#152=CIRCLE('',#378,0.772499999982301);
#153=CIRCLE('',#379,0.772499999982301);
#154=VERTEX_POINT('',#501);
#155=VERTEX_POINT('',#502);
#156=VERTEX_POINT('',#505);
#157=VERTEX_POINT('',#507);
#158=VERTEX_POINT('',#751);
#159=VERTEX_POINT('',#753);
#160=VERTEX_POINT('',#757);
#161=VERTEX_POINT('',#759);
#162=VERTEX_POINT('',#763);
#163=VERTEX_POINT('',#767);
#164=VERTEX_POINT('',#771);
#165=VERTEX_POINT('',#772);
#166=VERTEX_POINT('',#774);
#167=VERTEX_POINT('',#776);
#168=VERTEX_POINT('',#778);
#169=VERTEX_POINT('',#780);
#170=VERTEX_POINT('',#782);
#171=VERTEX_POINT('',#788);
#172=VERTEX_POINT('',#789);
#173=VERTEX_POINT('',#791);
#174=VERTEX_POINT('',#793);
#175=VERTEX_POINT('',#795);
#176=VERTEX_POINT('',#797);
#177=VERTEX_POINT('',#801);
#178=VERTEX_POINT('',#804);
#179=VERTEX_POINT('',#808);
#180=VERTEX_POINT('',#814);
#181=VERTEX_POINT('',#819);
#182=VERTEX_POINT('',#823);
#183=EDGE_CURVE('',#154,#155,#138,.T.);
#184=EDGE_CURVE('',#155,#154,#139,.T.);
#185=EDGE_CURVE('',#155,#156,#140,.T.);
#186=EDGE_CURVE('',#157,#156,#136,.T.);
#187=EDGE_CURVE('',#156,#157,#137,.T.);
#188=EDGE_CURVE('',#158,#158,#141,.T.);
#189=EDGE_CURVE('',#158,#159,#142,.T.);
#190=EDGE_CURVE('',#159,#159,#143,.T.);
#191=EDGE_CURVE('',#154,#160,#34,.T.);
#192=EDGE_CURVE('',#160,#161,#144,.T.);
#193=EDGE_CURVE('',#161,#160,#145,.T.);
#194=EDGE_CURVE('',#161,#162,#35,.T.);
#195=EDGE_CURVE('',#162,#162,#146,.T.);
#196=EDGE_CURVE('',#159,#163,#36,.T.);
#197=EDGE_CURVE('',#163,#163,#147,.T.);
#198=EDGE_CURVE('',#164,#165,#37,.T.);
#199=EDGE_CURVE('',#166,#165,#148,.T.);
#200=EDGE_CURVE('',#167,#166,#149,.T.);
#201=EDGE_CURVE('',#168,#167,#150,.T.);
#202=EDGE_CURVE('',#169,#168,#151,.T.);
#203=EDGE_CURVE('',#170,#169,#152,.T.);
#204=EDGE_CURVE('',#165,#170,#153,.T.);
#205=EDGE_CURVE('',#171,#172,#38,.T.);
#206=EDGE_CURVE('',#172,#173,#39,.T.);
#207=EDGE_CURVE('',#173,#174,#40,.T.);
#208=EDGE_CURVE('',#174,#175,#41,.T.);
#209=EDGE_CURVE('',#175,#176,#42,.T.);
#210=EDGE_CURVE('',#176,#171,#43,.T.);
#211=EDGE_CURVE('',#177,#172,#44,.T.);
#212=EDGE_CURVE('',#170,#177,#45,.T.);
#213=EDGE_CURVE('',#178,#170,#46,.T.);
#214=EDGE_CURVE('',#173,#178,#47,.T.);
#215=EDGE_CURVE('',#179,#171,#48,.T.);
#216=EDGE_CURVE('',#165,#179,#49,.T.);
#217=EDGE_CURVE('',#177,#165,#50,.T.);
#218=EDGE_CURVE('',#166,#179,#51,.T.);
#219=EDGE_CURVE('',#176,#180,#52,.T.);
#220=EDGE_CURVE('',#180,#166,#53,.T.);
#221=EDGE_CURVE('',#167,#180,#54,.T.);
#222=EDGE_CURVE('',#175,#181,#55,.T.);
#223=EDGE_CURVE('',#181,#167,#56,.T.);
#224=EDGE_CURVE('',#182,#174,#57,.T.);
#225=EDGE_CURVE('',#168,#182,#58,.T.);
#226=EDGE_CURVE('',#181,#168,#59,.T.);
#227=EDGE_CURVE('',#169,#182,#60,.T.);
#228=EDGE_CURVE('',#178,#169,#61,.T.);
#229=ORIENTED_EDGE('',*,*,#183,.F.);
#230=ORIENTED_EDGE('',*,*,#184,.F.);
#231=ORIENTED_EDGE('',*,*,#185,.T.);
#232=ORIENTED_EDGE('',*,*,#186,.F.);
#233=ORIENTED_EDGE('',*,*,#187,.F.);
#234=ORIENTED_EDGE('',*,*,#185,.F.);
#235=ORIENTED_EDGE('',*,*,#188,.T.);
#236=ORIENTED_EDGE('',*,*,#189,.T.);
#237=ORIENTED_EDGE('',*,*,#190,.F.);
#238=ORIENTED_EDGE('',*,*,#189,.F.);
#239=ORIENTED_EDGE('',*,*,#183,.T.);
#240=ORIENTED_EDGE('',*,*,#184,.T.);
#241=ORIENTED_EDGE('',*,*,#191,.T.);
#242=ORIENTED_EDGE('',*,*,#192,.T.);
#243=ORIENTED_EDGE('',*,*,#193,.T.);
#244=ORIENTED_EDGE('',*,*,#191,.F.);
#245=ORIENTED_EDGE('',*,*,#192,.F.);
#246=ORIENTED_EDGE('',*,*,#193,.F.);
#247=ORIENTED_EDGE('',*,*,#194,.T.);
#248=ORIENTED_EDGE('',*,*,#195,.T.);
#249=ORIENTED_EDGE('',*,*,#194,.F.);
#250=ORIENTED_EDGE('',*,*,#190,.T.);
#251=ORIENTED_EDGE('',*,*,#196,.T.);
#252=ORIENTED_EDGE('',*,*,#197,.F.);
#253=ORIENTED_EDGE('',*,*,#196,.F.);
#254=ORIENTED_EDGE('',*,*,#198,.T.);
#255=ORIENTED_EDGE('',*,*,#199,.F.);
#256=ORIENTED_EDGE('',*,*,#200,.F.);
#257=ORIENTED_EDGE('',*,*,#201,.F.);
#258=ORIENTED_EDGE('',*,*,#202,.F.);
#259=ORIENTED_EDGE('',*,*,#203,.F.);
#260=ORIENTED_EDGE('',*,*,#204,.F.);
#261=ORIENTED_EDGE('',*,*,#198,.F.);
#262=ORIENTED_EDGE('',*,*,#197,.T.);
#263=ORIENTED_EDGE('',*,*,#186,.T.);
#264=ORIENTED_EDGE('',*,*,#187,.T.);
#265=ORIENTED_EDGE('',*,*,#195,.F.);
#266=ORIENTED_EDGE('',*,*,#188,.F.);
#267=ORIENTED_EDGE('',*,*,#205,.T.);
#268=ORIENTED_EDGE('',*,*,#206,.T.);
#269=ORIENTED_EDGE('',*,*,#207,.T.);
#270=ORIENTED_EDGE('',*,*,#208,.T.);
#271=ORIENTED_EDGE('',*,*,#209,.T.);
#272=ORIENTED_EDGE('',*,*,#210,.T.);
#273=ORIENTED_EDGE('',*,*,#211,.F.);
#274=ORIENTED_EDGE('',*,*,#212,.F.);
#275=ORIENTED_EDGE('',*,*,#213,.F.);
#276=ORIENTED_EDGE('',*,*,#214,.F.);
#277=ORIENTED_EDGE('',*,*,#206,.F.);
#278=ORIENTED_EDGE('',*,*,#215,.F.);
#279=ORIENTED_EDGE('',*,*,#216,.F.);
#280=ORIENTED_EDGE('',*,*,#217,.F.);
#281=ORIENTED_EDGE('',*,*,#211,.T.);
#282=ORIENTED_EDGE('',*,*,#205,.F.);
#283=ORIENTED_EDGE('',*,*,#218,.T.);
#284=ORIENTED_EDGE('',*,*,#215,.T.);
#285=ORIENTED_EDGE('',*,*,#210,.F.);
#286=ORIENTED_EDGE('',*,*,#219,.T.);
#287=ORIENTED_EDGE('',*,*,#220,.T.);
#288=ORIENTED_EDGE('',*,*,#221,.T.);
#289=ORIENTED_EDGE('',*,*,#219,.F.);
#290=ORIENTED_EDGE('',*,*,#209,.F.);
#291=ORIENTED_EDGE('',*,*,#222,.T.);
#292=ORIENTED_EDGE('',*,*,#223,.T.);
#293=ORIENTED_EDGE('',*,*,#224,.F.);
#294=ORIENTED_EDGE('',*,*,#225,.F.);
#295=ORIENTED_EDGE('',*,*,#226,.F.);
#296=ORIENTED_EDGE('',*,*,#222,.F.);
#297=ORIENTED_EDGE('',*,*,#208,.F.);
#298=ORIENTED_EDGE('',*,*,#227,.T.);
#299=ORIENTED_EDGE('',*,*,#224,.T.);
#300=ORIENTED_EDGE('',*,*,#207,.F.);
#301=ORIENTED_EDGE('',*,*,#214,.T.);
#302=ORIENTED_EDGE('',*,*,#228,.T.);
#303=ORIENTED_EDGE('',*,*,#212,.T.);
#304=ORIENTED_EDGE('',*,*,#217,.T.);
#305=ORIENTED_EDGE('',*,*,#204,.T.);
#306=ORIENTED_EDGE('',*,*,#228,.F.);
#307=ORIENTED_EDGE('',*,*,#213,.T.);
#308=ORIENTED_EDGE('',*,*,#203,.T.);
#309=ORIENTED_EDGE('',*,*,#216,.T.);
#310=ORIENTED_EDGE('',*,*,#218,.F.);
#311=ORIENTED_EDGE('',*,*,#199,.T.);
#312=ORIENTED_EDGE('',*,*,#220,.F.);
#313=ORIENTED_EDGE('',*,*,#221,.F.);
#314=ORIENTED_EDGE('',*,*,#200,.T.);
#315=ORIENTED_EDGE('',*,*,#223,.F.);
#316=ORIENTED_EDGE('',*,*,#226,.T.);
#317=ORIENTED_EDGE('',*,*,#201,.T.);
#318=ORIENTED_EDGE('',*,*,#225,.T.);
#319=ORIENTED_EDGE('',*,*,#227,.F.);
#320=ORIENTED_EDGE('',*,*,#202,.T.);
#321=TOROIDAL_SURFACE('',#358,1.09999999999998,0.0999999999999998);
#322=TOROIDAL_SURFACE('',#362,1.8,0.100000000000001);
#323=ADVANCED_FACE('',(#92),#321,.F.);
#324=ADVANCED_FACE('',(#93),#322,.T.);
#325=ADVANCED_FACE('',(#94),#90,.T.);
#326=ADVANCED_FACE('',(#95),#32,.T.);
#327=ADVANCED_FACE('',(#96),#91,.T.);
#328=ADVANCED_FACE('',(#97),#33,.F.);
#329=ADVANCED_FACE('',(#98,#15),#17,.T.);
#330=ADVANCED_FACE('',(#99),#18,.T.);
#331=ADVANCED_FACE('',(#100,#16),#19,.T.);
#332=ADVANCED_FACE('',(#101),#20,.F.);
#333=ADVANCED_FACE('',(#102),#21,.F.);
#334=ADVANCED_FACE('',(#103),#22,.T.);
#335=ADVANCED_FACE('',(#104),#23,.T.);
#336=ADVANCED_FACE('',(#105),#24,.F.);
#337=ADVANCED_FACE('',(#106),#25,.T.);
#338=ADVANCED_FACE('',(#107),#26,.T.);
#339=ADVANCED_FACE('',(#108),#27,.T.);
#340=ADVANCED_FACE('',(#109),#28,.T.);
#341=ADVANCED_FACE('',(#110),#29,.T.);
#342=ADVANCED_FACE('',(#111),#30,.T.);
#343=ADVANCED_FACE('',(#112),#31,.T.);
#344=CLOSED_SHELL('',(#323,#324,#325,#326,#327,#328,#329,#330,#331,#332,
#333,#334,#335,#336,#337,#338,#339,#340,#341,#342,#343));
#345=DERIVED_UNIT_ELEMENT(#347,1.);
#346=DERIVED_UNIT_ELEMENT(#841,-3.);
#347=(
MASS_UNIT()
NAMED_UNIT(*)
SI_UNIT(.KILO.,.GRAM.)
);
#348=DERIVED_UNIT((#345,#346));
#349=MEASURE_REPRESENTATION_ITEM('density measure',
POSITIVE_RATIO_MEASURE(7850.),#348);
#350=PROPERTY_DEFINITION_REPRESENTATION(#355,#352);
#351=PROPERTY_DEFINITION_REPRESENTATION(#356,#353);
#352=REPRESENTATION('material name',(#354),#838);
#353=REPRESENTATION('density',(#349),#838);
#354=DESCRIPTIVE_REPRESENTATION_ITEM('Steel','Steel');
#355=PROPERTY_DEFINITION('material property','material name',#848);
#356=PROPERTY_DEFINITION('material property','density of part',#848);
#357=AXIS2_PLACEMENT_3D('',#499,#395,#396);
#358=AXIS2_PLACEMENT_3D('',#500,#397,#398);
#359=AXIS2_PLACEMENT_3D('',#503,#399,#400);
#360=AXIS2_PLACEMENT_3D('',#504,#401,#402);
#361=AXIS2_PLACEMENT_3D('',#506,#403,#404);
#362=AXIS2_PLACEMENT_3D('',#750,#405,#406);
#363=AXIS2_PLACEMENT_3D('',#752,#407,#408);
#364=AXIS2_PLACEMENT_3D('',#754,#409,#410);
#365=AXIS2_PLACEMENT_3D('',#755,#411,#412);
#366=AXIS2_PLACEMENT_3D('',#756,#413,#414);
#367=AXIS2_PLACEMENT_3D('',#760,#416,#417);
#368=AXIS2_PLACEMENT_3D('',#761,#418,#419);
#369=AXIS2_PLACEMENT_3D('',#762,#420,#421);
#370=AXIS2_PLACEMENT_3D('',#765,#423,#424);
#371=AXIS2_PLACEMENT_3D('',#766,#425,#426);
#372=AXIS2_PLACEMENT_3D('',#769,#428,#429);
#373=AXIS2_PLACEMENT_3D('',#770,#430,#431);
#374=AXIS2_PLACEMENT_3D('',#775,#433,#434);
#375=AXIS2_PLACEMENT_3D('',#777,#435,#436);
#376=AXIS2_PLACEMENT_3D('',#779,#437,#438);
#377=AXIS2_PLACEMENT_3D('',#781,#439,#440);
#378=AXIS2_PLACEMENT_3D('',#783,#441,#442);
#379=AXIS2_PLACEMENT_3D('',#784,#443,#444);
#380=AXIS2_PLACEMENT_3D('',#785,#445,#446);
#381=AXIS2_PLACEMENT_3D('',#786,#447,#448);
#382=AXIS2_PLACEMENT_3D('',#787,#449,#450);
#383=AXIS2_PLACEMENT_3D('',#800,#457,#458);
#384=AXIS2_PLACEMENT_3D('',#807,#463,#464);
#385=AXIS2_PLACEMENT_3D('',#812,#468,#469);
#386=AXIS2_PLACEMENT_3D('',#817,#473,#474);
#387=AXIS2_PLACEMENT_3D('',#822,#478,#479);
#388=AXIS2_PLACEMENT_3D('',#827,#483,#484);
#389=AXIS2_PLACEMENT_3D('',#830,#487,#488);
#390=AXIS2_PLACEMENT_3D('',#831,#489,#490);
#391=AXIS2_PLACEMENT_3D('',#832,#491,#492);
#392=AXIS2_PLACEMENT_3D('',#833,#493,#494);
#393=AXIS2_PLACEMENT_3D('',#834,#495,#496);
#394=AXIS2_PLACEMENT_3D('',#835,#497,#498);
#395=DIRECTION('axis',(0.,0.,1.));
#396=DIRECTION('refdir',(1.,0.,0.));
#397=DIRECTION('center_axis',(1.,1.12168109902016E-15,-3.14227266020193E-16));
#398=DIRECTION('ref_axis',(-3.70074341541725E-16,0.,-1.));
#399=DIRECTION('center_axis',(1.,0.,0.));
#400=DIRECTION('ref_axis',(0.,0.,1.));
#401=DIRECTION('center_axis',(1.,0.,0.));
#402=DIRECTION('ref_axis',(0.,0.,1.));
#403=DIRECTION('center_axis',(-1.12168109902016E-15,1.,1.22464679914736E-16));
#404=DIRECTION('ref_axis',(2.31296463463578E-16,-1.22464679914735E-16,1.));
#405=DIRECTION('center_axis',(-1.,5.88796732010517E-16,3.509086470032E-17));
#406=DIRECTION('ref_axis',(3.65204942310907E-17,0.,1.));
#407=DIRECTION('center_axis',(1.,3.1773146999228E-16,1.96716129566739E-32));
#408=DIRECTION('ref_axis',(0.,-1.52250692805675E-16,-1.));
#409=DIRECTION('center_axis',(-5.88796732010517E-16,-1.,1.22464679914735E-16));
#410=DIRECTION('ref_axis',(-3.65204942310907E-17,-1.22464679914735E-16,
-1.));
#411=DIRECTION('center_axis',(1.,0.,0.));
#412=DIRECTION('ref_axis',(0.,0.,1.));
#413=DIRECTION('center_axis',(-1.,0.,0.));
#414=DIRECTION('ref_axis',(0.,0.,1.));
#415=DIRECTION('',(1.,0.,0.));
#416=DIRECTION('center_axis',(-1.,0.,0.));
#417=DIRECTION('ref_axis',(0.,0.,1.));
#418=DIRECTION('center_axis',(-1.,0.,0.));
#419=DIRECTION('ref_axis',(0.,0.,1.));
#420=DIRECTION('center_axis',(-1.,-4.33680868979805E-16,0.));
#421=DIRECTION('ref_axis',(4.33680868979805E-16,-1.,0.));
#422=DIRECTION('',(0.707106781186548,-0.707106781186547,8.65956056235493E-17));
#423=DIRECTION('center_axis',(-1.,-4.33680868979805E-16,0.));
#424=DIRECTION('ref_axis',(4.33680868979805E-16,-1.,0.));
#425=DIRECTION('center_axis',(-1.,0.,0.));
#426=DIRECTION('ref_axis',(0.,0.,1.));
#427=DIRECTION('',(1.,0.,0.));
#428=DIRECTION('center_axis',(1.,0.,0.));
#429=DIRECTION('ref_axis',(0.,0.,1.));
#430=DIRECTION('center_axis',(-1.,0.,0.));
#431=DIRECTION('ref_axis',(0.,0.,1.));
#432=DIRECTION('',(-0.500000000026674,-1.06057523870605E-16,-0.866025403769039));
#433=DIRECTION('center_axis',(1.,0.,0.));
#434=DIRECTION('ref_axis',(0.,1.77635683940025E-15,1.));
#435=DIRECTION('center_axis',(1.,0.,0.));
#436=DIRECTION('ref_axis',(0.,0.,1.));
#437=DIRECTION('center_axis',(1.,0.,0.));
#438=DIRECTION('ref_axis',(0.,0.,1.));
#439=DIRECTION('center_axis',(1.,0.,0.));
#440=DIRECTION('ref_axis',(0.,-8.88178419700125E-16,1.));
#441=DIRECTION('center_axis',(1.,0.,0.));
#442=DIRECTION('ref_axis',(0.,8.88178419700125E-16,1.));
#443=DIRECTION('center_axis',(1.,0.,0.));
#444=DIRECTION('ref_axis',(0.,0.,1.));
#445=DIRECTION('center_axis',(1.,0.,0.));
#446=DIRECTION('ref_axis',(0.,0.,-1.));
#447=DIRECTION('center_axis',(1.,0.,0.));
#448=DIRECTION('ref_axis',(0.,0.,-1.));
#449=DIRECTION('center_axis',(-1.,0.,0.));
#450=DIRECTION('ref_axis',(0.,0.,1.));
#451=DIRECTION('',(0.,1.,0.));
#452=DIRECTION('',(0.,0.500000000000001,0.866025403784438));
#453=DIRECTION('',(0.,-0.499999999999998,0.86602540378444));
#454=DIRECTION('',(0.,-1.,0.));
#455=DIRECTION('',(0.,-0.500000000000001,-0.866025403784438));
#456=DIRECTION('',(0.,0.499999999999998,-0.86602540378444));
#457=DIRECTION('center_axis',(0.,0.866025403784438,-0.500000000000001));
#458=DIRECTION('ref_axis',(0.,0.500000000000001,0.866025403784438));
#459=DIRECTION('',(-1.,0.,0.));
#460=DIRECTION('',(0.,-0.500000000000001,-0.866025403784438));
#461=DIRECTION('',(0.,-0.500000000000001,-0.866025403784438));
#462=DIRECTION('',(1.,0.,0.));
#463=DIRECTION('center_axis',(0.,-4.8618595428387E-16,-1.));
#464=DIRECTION('ref_axis',(0.,1.,-4.8618595428387E-16));
#465=DIRECTION('',(-1.,0.,0.));
#466=DIRECTION('',(0.,-1.,4.8618595428387E-16));
#467=DIRECTION('',(0.,-1.,4.8618595428387E-16));
#468=DIRECTION('center_axis',(0.,0.86602540378444,0.499999999999998));
#469=DIRECTION('ref_axis',(0.,-0.499999999999998,0.86602540378444));
#470=DIRECTION('',(0.,0.499999999999998,-0.86602540378444));
#471=DIRECTION('',(1.,0.,0.));
#472=DIRECTION('',(0.,0.499999999999998,-0.86602540378444));
#473=DIRECTION('center_axis',(0.,0.866025403784438,-0.500000000000001));
#474=DIRECTION('ref_axis',(0.,0.500000000000001,0.866025403784438));
#475=DIRECTION('',(0.,-0.500000000000001,-0.866025403784438));
#476=DIRECTION('',(1.,0.,0.));
#477=DIRECTION('',(0.,-0.500000000000001,-0.866025403784438));
#478=DIRECTION('center_axis',(0.,3.64639465712903E-16,1.));
#479=DIRECTION('ref_axis',(0.,-1.,3.64639465712903E-16));
#480=DIRECTION('',(-1.,0.,0.));
#481=DIRECTION('',(0.,1.,-3.64639465712903E-16));
#482=DIRECTION('',(0.,1.,-3.64639465712903E-16));
#483=DIRECTION('center_axis',(0.,-0.86602540378444,-0.499999999999998));
#484=DIRECTION('ref_axis',(0.,0.499999999999998,-0.86602540378444));
#485=DIRECTION('',(0.,-0.499999999999998,0.86602540378444));
#486=DIRECTION('',(0.,-0.499999999999998,0.86602540378444));
#487=DIRECTION('center_axis',(-1.,0.,0.));
#488=DIRECTION('ref_axis',(0.,0.,1.));
#489=DIRECTION('center_axis',(-1.,0.,0.));
#490=DIRECTION('ref_axis',(0.,0.,1.));
#491=DIRECTION('center_axis',(-1.,0.,0.));
#492=DIRECTION('ref_axis',(0.,0.,1.));
#493=DIRECTION('center_axis',(-1.,0.,0.));
#494=DIRECTION('ref_axis',(0.,0.,1.));
#495=DIRECTION('center_axis',(-1.,0.,0.));
#496=DIRECTION('ref_axis',(0.,0.,1.));
#497=DIRECTION('center_axis',(-1.,0.,0.));
#498=DIRECTION('ref_axis',(0.,0.,1.));
#499=CARTESIAN_POINT('',(0.,0.,0.));
#500=CARTESIAN_POINT('Origin',(2.1,8.32667268468867E-16,-1.53956708492942E-16));
#501=CARTESIAN_POINT('',(2.1,1.22464679914733E-16,-0.99999999999998));
#502=CARTESIAN_POINT('',(2.1,7.10202588554134E-16,0.99999999999998));
#503=CARTESIAN_POINT('Origin',(2.1,0.,0.));
#504=CARTESIAN_POINT('Origin',(2.1,0.,0.));
#505=CARTESIAN_POINT('',(2.,1.67562862542564E-16,1.09999999999998));
#506=CARTESIAN_POINT('Origin',(2.1,6.97956120562661E-16,1.09999999999998));
#507=CARTESIAN_POINT('',(2.,0.,-1.09999999999998));
#508=CARTESIAN_POINT('Ctrl Pts',(2.,-1.42844608250083E-16,-1.09999999999998));
#509=CARTESIAN_POINT('Ctrl Pts',(2.,-0.0361448480646867,-1.09999999999998));
#510=CARTESIAN_POINT('Ctrl Pts',(2.,-0.0719671239478134,-1.09822283542694));
#511=CARTESIAN_POINT('Ctrl Pts',(2.,-0.107470856827642,-1.09473741807171));
#512=CARTESIAN_POINT('Ctrl Pts',(2.,-0.143204934392243,-1.09122938767563));
#513=CARTESIAN_POINT('Ctrl Pts',(2.,-0.178617332521735,-1.08599082230641));
#514=CARTESIAN_POINT('Ctrl Pts',(2.,-0.213715683580319,-1.07903920378685));
#515=CARTESIAN_POINT('Ctrl Pts',(2.,-0.248665003640856,-1.07211710251282));
#516=CARTESIAN_POINT('Ctrl Pts',(2.,-0.283303907411457,-1.06349623616912));
#517=CARTESIAN_POINT('Ctrl Pts',(2.,-0.317628602287925,-1.05314389327408));
#518=CARTESIAN_POINT('Ctrl Pts',(2.,-0.330409523614474,-1.04928916184637));
#519=CARTESIAN_POINT('Ctrl Pts',(2.,-0.343146694056163,-1.04519388534605));
#520=CARTESIAN_POINT('Ctrl Pts',(2.,-0.355839098067516,-1.0408547067521));
#521=CARTESIAN_POINT('Ctrl Pts',(2.,-0.364055052378487,-1.03804590134037));
#522=CARTESIAN_POINT('Ctrl Pts',(2.00000000000284,-0.371913286989679,-1.03525285304183));
#523=CARTESIAN_POINT('Ctrl Pts',(2.00000000009355,-0.379923364303673,-1.03230263066453));
#524=CARTESIAN_POINT('Ctrl Pts',(2.00000000018425,-0.387933441617666,-1.02935240828723));
#525=CARTESIAN_POINT('Ctrl Pts',(2.00000000035125,-0.396095688918452,-1.02624530260063));
#526=CARTESIAN_POINT('Ctrl Pts',(2.00000000031222,-0.404901271775659,-1.022759783835));
#527=CARTESIAN_POINT('Ctrl Pts',(2.00000000015385,-0.440632056340586,-1.00861644748449));
#528=CARTESIAN_POINT('Ctrl Pts',(2.00000000027708,-0.475303393540974,-0.992725734035684));
#529=CARTESIAN_POINT('Ctrl Pts',(2.00000000105623,-0.508917843038435,-0.975177242203103));
#530=CARTESIAN_POINT('Ctrl Pts',(2.000000001841,-0.542774872740394,-0.957502110880629));
#531=CARTESIAN_POINT('Ctrl Pts',(2.00000000356449,-0.57556074715231,-0.938144763002472));
#532=CARTESIAN_POINT('Ctrl Pts',(2.0000000057172,-0.607265040897829,-0.917144906034938));
#533=CARTESIAN_POINT('Ctrl Pts',(2.00000000785559,-0.638758281409029,-0.89628484362548));
#534=CARTESIAN_POINT('Ctrl Pts',(2.00000001026994,-0.669185188596279,-0.873803433440462));
#535=CARTESIAN_POINT('Ctrl Pts',(2.00000001066609,-0.698508311733907,-0.849696728064244));
#536=CARTESIAN_POINT('Ctrl Pts',(2.00000001103644,-0.725921712616149,-0.827160016155125));
#537=CARTESIAN_POINT('Ctrl Pts',(2.00000000924119,-0.752370731100721,-0.803201956824781));
#538=CARTESIAN_POINT('Ctrl Pts',(2.00000000599205,-0.777792980632358,-0.777792980632358));
#539=CARTESIAN_POINT('Ctrl Pts',(2.00000000273044,-0.803312842353286,-0.752286443215437));
#540=CARTESIAN_POINT('Ctrl Pts',(2.00000000155701,-0.827336976378973,-0.725767520715349));
#541=CARTESIAN_POINT('Ctrl Pts',(2.00000000089081,-0.849921913374271,-0.69828602757188));
#542=CARTESIAN_POINT('Ctrl Pts',(2.00000000021999,-0.87266317933522,-0.670614312361438));
#543=CARTESIAN_POINT('Ctrl Pts',(2.00000000011552,-0.893945943312875,-0.64196591609073));
#544=CARTESIAN_POINT('Ctrl Pts',(2.00000000005232,-0.913793976503519,-0.61235075853403));
#545=CARTESIAN_POINT('Ctrl Pts',(1.99999999998939,-0.933557778666441,-0.582861281700107));
#546=CARTESIAN_POINT('Ctrl Pts',(2.00000000000084,-0.951899527008724,-0.55241239086922));
#547=CARTESIAN_POINT('Ctrl Pts',(2.00000000000021,-0.968800185284182,-0.520985364528851));
#548=CARTESIAN_POINT('Ctrl Pts',(1.99999999999979,-0.980009128335681,-0.500142167608015));
#549=CARTESIAN_POINT('Ctrl Pts',(2.,-0.990583291016473,-0.478868148290848));
#550=CARTESIAN_POINT('Ctrl Pts',(2.,-1.00050511918661,-0.457153701156775));
#551=CARTESIAN_POINT('Ctrl Pts',(2.,-1.00442125991521,-0.448583019487788));
#552=CARTESIAN_POINT('Ctrl Pts',(2.00000000000226,-1.00839399671999,-0.439579847216499));
#553=CARTESIAN_POINT('Ctrl Pts',(2.0000000000792,-1.01217610897566,-0.430686391908172));
#554=CARTESIAN_POINT('Ctrl Pts',(2.00000000015615,-1.01595822123133,-0.421792936599844));
#555=CARTESIAN_POINT('Ctrl Pts',(2.00000000029794,-1.01954995890894,-0.413009584519659));
#556=CARTESIAN_POINT('Ctrl Pts',(2.00000000026484,-1.02276036424301,-0.404901501553899));
#557=CARTESIAN_POINT('Ctrl Pts',(2.00000000011618,-1.03717594349741,-0.368494038809685));
#558=CARTESIAN_POINT('Ctrl Pts',(2.00000000024421,-1.04953154295062,-0.331605454107101));
#559=CARTESIAN_POINT('Ctrl Pts',(2.0000000011012,-1.0598833389984,-0.294303684775676));
#560=CARTESIAN_POINT('Ctrl Pts',(2.00000000196383,-1.07030335102732,-0.256756105269694));
#561=CARTESIAN_POINT('Ctrl Pts',(2.0000000038779,-1.07869347826719,-0.218788788455697));
#562=CARTESIAN_POINT('Ctrl Pts',(2.00000000584176,-1.08506398470905,-0.180446534101512));
#563=CARTESIAN_POINT('Ctrl Pts',(2.00000000779106,-1.09138724430434,-0.142388644989698));
#564=CARTESIAN_POINT('Ctrl Pts',(2.00000000947116,-1.09572087634921,-0.103960231809491));
#565=CARTESIAN_POINT('Ctrl Pts',(2.0000000085492,-1.09802472314646,-0.06519768858921));
#566=CARTESIAN_POINT('Ctrl Pts',(2.00000000803471,-1.09931035354765,-0.0435667780394996));
#567=CARTESIAN_POINT('Ctrl Pts',(2.00000000669344,-1.09996298345962,-0.0218317788689859));
#568=CARTESIAN_POINT('Ctrl Pts',(2.00000000493009,-1.09996859907068,2.60391147040476E-16));
#569=CARTESIAN_POINT('Ctrl Pts',(2.0000000020154,-1.09997788124593,0.0360862594586246));
#570=CARTESIAN_POINT('Ctrl Pts',(2.00000000110768,-1.09821297531597,0.0718614642904812));
#571=CARTESIAN_POINT('Ctrl Pts',(2.00000000060223,-1.09474019767848,0.107330122183366));
#572=CARTESIAN_POINT('Ctrl Pts',(2.00000000009382,-1.09124714082295,0.143005898619962));
#573=CARTESIAN_POINT('Ctrl Pts',(2.0000000000552,-1.08602616332231,0.178372547868795));
#574=CARTESIAN_POINT('Ctrl Pts',(2.00000000002243,-1.07909203923048,0.213437838771514));
#575=CARTESIAN_POINT('Ctrl Pts',(1.99999999998983,-1.07219408971944,0.24832019781693));
#576=CARTESIAN_POINT('Ctrl Pts',(2.00000000000006,-1.06360059116847,0.282905300335222));
#577=CARTESIAN_POINT('Ctrl Pts',(2.00000000000001,-1.05327628701372,0.3171891675101));
#578=CARTESIAN_POINT('Ctrl Pts',(1.99999999999999,-1.04938925707158,0.330096809152927));
#579=CARTESIAN_POINT('Ctrl Pts',(2.,-1.04525640206285,0.34296155894002));
#580=CARTESIAN_POINT('Ctrl Pts',(2.,-1.04087411524617,0.355782343871171));
#581=CARTESIAN_POINT('Ctrl Pts',(2.,-1.03805720688245,0.36402346952376));
#582=CARTESIAN_POINT('Ctrl Pts',(2.00000000000279,-1.03525376877929,0.371911447106093));
#583=CARTESIAN_POINT('Ctrl Pts',(2.00000000009393,-1.03229252916291,0.379950784233304));
#584=CARTESIAN_POINT('Ctrl Pts',(2.00000000018471,-1.02934345725451,0.387957087793792));
#585=CARTESIAN_POINT('Ctrl Pts',(2.00000000035117,-1.0262381268749,0.396113817194816));
#586=CARTESIAN_POINT('Ctrl Pts',(2.00000000031222,-1.02275978383499,0.404901271775658));
#587=CARTESIAN_POINT('Ctrl Pts',(2.00000000015385,-1.00861644748459,0.440632056340319));
#588=CARTESIAN_POINT('Ctrl Pts',(2.00000000027708,-0.992725734035921,0.475303393540454));
#589=CARTESIAN_POINT('Ctrl Pts',(2.00000000105623,-0.975177242203501,0.508917843037679));
#590=CARTESIAN_POINT('Ctrl Pts',(2.000000001841,-0.9575021108812,0.542774872739378));
#591=CARTESIAN_POINT('Ctrl Pts',(2.00000000356448,-0.938144763003245,0.57556074715105));
#592=CARTESIAN_POINT('Ctrl Pts',(2.0000000057172,-0.917144906035937,0.607265040896347));
#593=CARTESIAN_POINT('Ctrl Pts',(2.00000000785559,-0.896284843626719,0.6387582814073));
#594=CARTESIAN_POINT('Ctrl Pts',(2.00000001026993,-0.873803433441968,0.669185188594326));
#595=CARTESIAN_POINT('Ctrl Pts',(2.00000001066608,-0.849696728066039,0.698508311731755));
#596=CARTESIAN_POINT('Ctrl Pts',(2.00000001103643,-0.827160016156407,0.725921712614764));
#597=CARTESIAN_POINT('Ctrl Pts',(2.00000000924119,-0.80320195682547,0.752370731100059));
#598=CARTESIAN_POINT('Ctrl Pts',(2.00000000599205,-0.777792980632368,0.777792980632368));
#599=CARTESIAN_POINT('Ctrl Pts',(2.00000000273044,-0.752286443215433,0.803312842353305));
#600=CARTESIAN_POINT('Ctrl Pts',(2.00000000155701,-0.725767520715334,0.827336976378997));
#601=CARTESIAN_POINT('Ctrl Pts',(2.00000000089081,-0.698286027571856,0.849921913374297));
#602=CARTESIAN_POINT('Ctrl Pts',(2.00000000021999,-0.670614312361395,0.872663179335258));
#603=CARTESIAN_POINT('Ctrl Pts',(2.00000000011552,-0.64196591609067,0.893945943312922));
#604=CARTESIAN_POINT('Ctrl Pts',(2.00000000005232,-0.612350758533958,0.913793976503569));
#605=CARTESIAN_POINT('Ctrl Pts',(1.99999999998939,-0.582861281699991,0.933557778666516));
#606=CARTESIAN_POINT('Ctrl Pts',(2.00000000000084,-0.552412390869063,0.951899527008816));
#607=CARTESIAN_POINT('Ctrl Pts',(2.00000000000021,-0.520985364528656,0.968800185284287));
#608=CARTESIAN_POINT('Ctrl Pts',(1.99999999999979,-0.50014216760787,0.980009128335753));
#609=CARTESIAN_POINT('Ctrl Pts',(2.,-0.478868148290759,0.990583291016515));
#610=CARTESIAN_POINT('Ctrl Pts',(2.,-0.457153701156746,1.00050511918663));
#611=CARTESIAN_POINT('Ctrl Pts',(2.,-0.448583019487763,1.00442125991522));
#612=CARTESIAN_POINT('Ctrl Pts',(2.00000000000227,-0.439585092634364,1.00839167970848));
#613=CARTESIAN_POINT('Ctrl Pts',(2.00000000007941,-0.43069430398196,1.01217273662091));
#614=CARTESIAN_POINT('Ctrl Pts',(2.00000000015656,-0.421803515329556,1.01595379353334));
#615=CARTESIAN_POINT('Ctrl Pts',(2.00000000029873,-0.41302024323105,1.01954572828544));
#616=CARTESIAN_POINT('Ctrl Pts',(2.00000000026553,-0.404901498030949,1.02276035534422));
#617=CARTESIAN_POINT('Ctrl Pts',(2.00000000012804,-0.371270186242831,1.03607671424352));
#618=CARTESIAN_POINT('Ctrl Pts',(2.00000000007473,-0.337285253765211,1.04761835118668));
#619=CARTESIAN_POINT('Ctrl Pts',(2.00000000004399,-0.302968120962871,1.05745155542744));
#620=CARTESIAN_POINT('Ctrl Pts',(2.00000000001309,-0.268470749638268,1.06733640507261));
#621=CARTESIAN_POINT('Ctrl Pts',(2.00000000000683,-0.233636716417167,1.07549515140871));
#622=CARTESIAN_POINT('Ctrl Pts',(2.00000000000328,-0.198464949517085,1.08194726375524));
#623=CARTESIAN_POINT('Ctrl Pts',(1.99999999999975,-0.163558472157369,1.0883507098541));
#624=CARTESIAN_POINT('Ctrl Pts',(2.0000000000001,-0.128318357519939,1.09307328585705));
#625=CARTESIAN_POINT('Ctrl Pts',(2.00000000000003,-0.09273567832592,1.09608390066724));
#626=CARTESIAN_POINT('Ctrl Pts',(1.99999999999997,-0.0620792330774739,1.09867771176251));
#627=CARTESIAN_POINT('Ctrl Pts',(2.,-0.0311680114924834,1.09999999999998));
#628=CARTESIAN_POINT('Ctrl Pts',(2.,-9.2459924551213E-16,1.09999999999998));
#629=CARTESIAN_POINT('Ctrl Pts',(2.,3.66712175637998E-16,1.09999999999998));
#630=CARTESIAN_POINT('Ctrl Pts',(2.,0.0361448480646731,1.09999999999998));
#631=CARTESIAN_POINT('Ctrl Pts',(2.,0.0719671239477888,1.09822283542694));
#632=CARTESIAN_POINT('Ctrl Pts',(2.,0.107470856827609,1.09473741807171));
#633=CARTESIAN_POINT('Ctrl Pts',(2.,0.143204934392204,1.09122938767563));
#634=CARTESIAN_POINT('Ctrl Pts',(2.,0.178617332521693,1.08599082230642));
#635=CARTESIAN_POINT('Ctrl Pts',(2.,0.213715683580278,1.07903920378686));
#636=CARTESIAN_POINT('Ctrl Pts',(2.,0.248665003640809,1.07211710251283));
#637=CARTESIAN_POINT('Ctrl Pts',(2.,0.283303907411406,1.06349623616913));
#638=CARTESIAN_POINT('Ctrl Pts',(2.,0.317628602287874,1.05314389327409));
#639=CARTESIAN_POINT('Ctrl Pts',(2.,0.330409523614435,1.04928916184638));
#640=CARTESIAN_POINT('Ctrl Pts',(2.,0.343146694056137,1.04519388534605));
#641=CARTESIAN_POINT('Ctrl Pts',(2.,0.355839098067503,1.04085470675211));
#642=CARTESIAN_POINT('Ctrl Pts',(2.,0.364055052378475,1.03804590134037));
#643=CARTESIAN_POINT('Ctrl Pts',(2.00000000000284,0.371913286989672,1.03525285304183));
#644=CARTESIAN_POINT('Ctrl Pts',(2.00000000009355,0.379923364303668,1.03230263066453));
#645=CARTESIAN_POINT('Ctrl Pts',(2.00000000018425,0.387933441617664,1.02935240828723));
#646=CARTESIAN_POINT('Ctrl Pts',(2.00000000035125,0.396095688918452,1.02624530260063));
#647=CARTESIAN_POINT('Ctrl Pts',(2.00000000031222,0.404901271775659,1.022759783835));
#648=CARTESIAN_POINT('Ctrl Pts',(2.00000000015385,0.440632056340509,1.00861644748452));
#649=CARTESIAN_POINT('Ctrl Pts',(2.00000000027708,0.475303393540824,0.992725734035752));
#650=CARTESIAN_POINT('Ctrl Pts',(2.00000000105623,0.508917843038218,0.975177242203217));
#651=CARTESIAN_POINT('Ctrl Pts',(2.000000001841,0.542774872740103,0.957502110880793));
#652=CARTESIAN_POINT('Ctrl Pts',(2.00000000356449,0.575560747151949,0.938144763002694));
#653=CARTESIAN_POINT('Ctrl Pts',(2.0000000057172,0.607265040897406,0.917144906035224));
#654=CARTESIAN_POINT('Ctrl Pts',(2.00000000785559,0.638758281408546,0.896284843625828));
#655=CARTESIAN_POINT('Ctrl Pts',(2.00000001026994,0.669185188595741,0.873803433440878));
#656=CARTESIAN_POINT('Ctrl Pts',(2.00000001066609,0.698508311733322,0.849696728064733));
#657=CARTESIAN_POINT('Ctrl Pts',(2.00000001103644,0.725921712615772,0.827160016155476));
#658=CARTESIAN_POINT('Ctrl Pts',(2.00000000924119,0.752370731100541,0.803201956824971));
#659=CARTESIAN_POINT('Ctrl Pts',(2.00000000599205,0.777792980632361,0.777792980632362));
#660=CARTESIAN_POINT('Ctrl Pts',(2.00000000273044,0.803312842353304,0.752286443215425));
#661=CARTESIAN_POINT('Ctrl Pts',(2.00000000155701,0.827336976379002,0.725767520715321));
#662=CARTESIAN_POINT('Ctrl Pts',(2.00000000089081,0.849921913374309,0.698286027571837));
#663=CARTESIAN_POINT('Ctrl Pts',(2.00000000021999,0.872663179335258,0.670614312361392));
#664=CARTESIAN_POINT('Ctrl Pts',(2.00000000011552,0.893945943312911,0.641965916090682));
#665=CARTESIAN_POINT('Ctrl Pts',(2.00000000005232,0.913793976503551,0.612350758533982));
#666=CARTESIAN_POINT('Ctrl Pts',(1.99999999998939,0.933557778666484,0.582861281700039));
#667=CARTESIAN_POINT('Ctrl Pts',(2.00000000000084,0.951899527008775,0.552412390869133));
#668=CARTESIAN_POINT('Ctrl Pts',(2.00000000000021,0.968800185284239,0.520985364528746));
#669=CARTESIAN_POINT('Ctrl Pts',(1.99999999999979,0.980009128335719,0.500142167607938));
#670=CARTESIAN_POINT('Ctrl Pts',(2.,0.990583291016494,0.478868148290803));
#671=CARTESIAN_POINT('Ctrl Pts',(2.,1.00050511918662,0.457153701156763));
#672=CARTESIAN_POINT('Ctrl Pts',(2.,1.00442125991521,0.448583019487778));
#673=CARTESIAN_POINT('Ctrl Pts',(2.00000000000226,1.00839399671999,0.439579847216492));
#674=CARTESIAN_POINT('Ctrl Pts',(2.0000000000792,1.01217610897566,0.430686391908168));
#675=CARTESIAN_POINT('Ctrl Pts',(2.00000000015615,1.01595822123133,0.421792936599843));
#676=CARTESIAN_POINT('Ctrl Pts',(2.00000000029794,1.01954995890893,0.41300958451966));
#677=CARTESIAN_POINT('Ctrl Pts',(2.00000000026484,1.02276036424301,0.404901501553899));
#678=CARTESIAN_POINT('Ctrl Pts',(2.00000000011618,1.03717594349694,0.368494038810875));
#679=CARTESIAN_POINT('Ctrl Pts',(2.00000000024421,1.04953154294981,0.331605454109532));
#680=CARTESIAN_POINT('Ctrl Pts',(2.0000000011012,1.05988333899737,0.294303684779376));
#681=CARTESIAN_POINT('Ctrl Pts',(2.00000000196383,1.07030335102608,0.256756105274687));
#682=CARTESIAN_POINT('Ctrl Pts',(2.0000000038779,1.07869347826587,0.218788788462014));
#683=CARTESIAN_POINT('Ctrl Pts',(2.00000000584176,1.08506398470778,0.180446534109162));
#684=CARTESIAN_POINT('Ctrl Pts',(2.00000000779106,1.09138724430312,0.142388644998693));
#685=CARTESIAN_POINT('Ctrl Pts',(2.00000000947116,1.09572087634818,0.103960231819842));
#686=CARTESIAN_POINT('Ctrl Pts',(2.0000000085492,1.09802472314576,0.0651976886009076));
#687=CARTESIAN_POINT('Ctrl Pts',(2.00000000803471,1.09931035354742,0.0435667780473452));
#688=CARTESIAN_POINT('Ctrl Pts',(2.00000000669344,1.09996298345962,0.0218317788729322));
#689=CARTESIAN_POINT('Ctrl Pts',(2.00000000493009,1.09996859907068,2.9859655138036E-16));
#690=CARTESIAN_POINT('Ctrl Pts',(2.0000000020154,1.09997788124593,-0.0360862594586093));
#691=CARTESIAN_POINT('Ctrl Pts',(2.00000000110768,1.09821297531597,-0.0718614642904355));
#692=CARTESIAN_POINT('Ctrl Pts',(2.00000000060223,1.09474019767848,-0.107330122183276));
#693=CARTESIAN_POINT('Ctrl Pts',(2.00000000009382,1.09124714082296,-0.143005898619856));
#694=CARTESIAN_POINT('Ctrl Pts',(2.0000000000552,1.08602616332233,-0.178372547868658));
#695=CARTESIAN_POINT('Ctrl Pts',(2.00000000002243,1.07909203923051,-0.213437838771331));
#696=CARTESIAN_POINT('Ctrl Pts',(1.99999999998983,1.07219408971949,-0.248320197816722));
#697=CARTESIAN_POINT('Ctrl Pts',(2.00000000000006,1.06360059116854,-0.282905300334974));
#698=CARTESIAN_POINT('Ctrl Pts',(2.00000000000001,1.05327628701381,-0.3171891675098));
#699=CARTESIAN_POINT('Ctrl Pts',(1.99999999999999,1.04938925707164,-0.330096809152753));
#700=CARTESIAN_POINT('Ctrl Pts',(2.,1.04525640206287,-0.342961558939969));
#701=CARTESIAN_POINT('Ctrl Pts',(2.,1.04087411524614,-0.355782343871239));
#702=CARTESIAN_POINT('Ctrl Pts',(2.,1.03805720688246,-0.364023469523741));
#703=CARTESIAN_POINT('Ctrl Pts',(2.00000000000279,1.03525376877933,-0.371911447105982));
#704=CARTESIAN_POINT('Ctrl Pts',(2.00000000009393,1.03229252916299,-0.379950784233099));
#705=CARTESIAN_POINT('Ctrl Pts',(2.00000000018471,1.02934345725457,-0.387957087793642));
#706=CARTESIAN_POINT('Ctrl Pts',(2.00000000035117,1.02623812687495,-0.396113817194726));
#707=CARTESIAN_POINT('Ctrl Pts',(2.00000000031222,1.022759783835,-0.404901271775662));
#708=CARTESIAN_POINT('Ctrl Pts',(2.00000000015385,1.00861644748489,-0.44063205633959));
#709=CARTESIAN_POINT('Ctrl Pts',(2.00000000027708,0.992725734036589,-0.47530339353901));
#710=CARTESIAN_POINT('Ctrl Pts',(2.00000000105623,0.975177242204618,-0.50891784303555));
#711=CARTESIAN_POINT('Ctrl Pts',(2.000000001841,0.95750211088276,-0.542774872736578));
#712=CARTESIAN_POINT('Ctrl Pts',(2.00000000356448,0.938144763005326,-0.575560747147609));
#713=CARTESIAN_POINT('Ctrl Pts',(2.0000000057172,0.917144906038614,-0.607265040892308));
#714=CARTESIAN_POINT('Ctrl Pts',(2.00000000785559,0.896284843629958,-0.638758281402714));
#715=CARTESIAN_POINT('Ctrl Pts',(2.00000001026993,0.873803433445837,-0.669185188589231));
#716=CARTESIAN_POINT('Ctrl Pts',(2.00000001066608,0.849696728070604,-0.698508311726204));
#717=CARTESIAN_POINT('Ctrl Pts',(2.00000001103643,0.827160016159646,-0.725921712611189));
#718=CARTESIAN_POINT('Ctrl Pts',(2.00000000924119,0.803201956827192,-0.752370731098337));
#719=CARTESIAN_POINT('Ctrl Pts',(2.00000000599205,0.777792980632369,-0.777792980632369));
#720=CARTESIAN_POINT('Ctrl Pts',(2.00000000273044,0.752286443215424,-0.803312842353314));
#721=CARTESIAN_POINT('Ctrl Pts',(2.00000000155701,0.725767520715316,-0.827336976379014));
#722=CARTESIAN_POINT('Ctrl Pts',(2.00000000089081,0.698286027571829,-0.849921913374321));
#723=CARTESIAN_POINT('Ctrl Pts',(2.00000000021999,0.670614312361371,-0.872663179335277));
#724=CARTESIAN_POINT('Ctrl Pts',(2.00000000011552,0.64196591609065,-0.893945943312936));
#725=CARTESIAN_POINT('Ctrl Pts',(2.00000000005232,0.612350758533941,-0.91379397650358));
#726=CARTESIAN_POINT('Ctrl Pts',(1.99999999998939,0.58286128169999,-0.933557778666516));
#727=CARTESIAN_POINT('Ctrl Pts',(2.00000000000084,0.552412390869078,-0.951899527008807));
#728=CARTESIAN_POINT('Ctrl Pts',(2.00000000000021,0.520985364528687,-0.96880018528427));
#729=CARTESIAN_POINT('Ctrl Pts',(1.99999999999979,0.500142167607892,-0.980009128335743));
#730=CARTESIAN_POINT('Ctrl Pts',(2.,0.478868148290771,-0.99058329101651));
#731=CARTESIAN_POINT('Ctrl Pts',(2.,0.457153701156747,-1.00050511918663));
#732=CARTESIAN_POINT('Ctrl Pts',(2.,0.448583019487764,-1.00442125991522));
#733=CARTESIAN_POINT('Ctrl Pts',(2.00000000000227,0.439585092634365,-1.00839167970848));
#734=CARTESIAN_POINT('Ctrl Pts',(2.00000000007941,0.430694303981961,-1.01217273662091));
#735=CARTESIAN_POINT('Ctrl Pts',(2.00000000015656,0.421803515329557,-1.01595379353334));
#736=CARTESIAN_POINT('Ctrl Pts',(2.00000000029873,0.41302024323105,-1.01954572828544));
#737=CARTESIAN_POINT('Ctrl Pts',(2.00000000026553,0.40490149803095,-1.02276035534422));
#738=CARTESIAN_POINT('Ctrl Pts',(2.00000000012804,0.371270186242833,-1.03607671424352));
#739=CARTESIAN_POINT('Ctrl Pts',(2.00000000007473,0.337285253765213,-1.04761835118668));
#740=CARTESIAN_POINT('Ctrl Pts',(2.00000000004399,0.302968120962875,-1.05745155542744));
#741=CARTESIAN_POINT('Ctrl Pts',(2.00000000001309,0.26847074963826,-1.06733640507261));
#742=CARTESIAN_POINT('Ctrl Pts',(2.00000000000683,0.233636716417147,-1.07549515140872));
#743=CARTESIAN_POINT('Ctrl Pts',(2.00000000000328,0.198464949517053,-1.08194726375524));
#744=CARTESIAN_POINT('Ctrl Pts',(1.99999999999975,0.163558472157338,-1.0883507098541));
#745=CARTESIAN_POINT('Ctrl Pts',(2.0000000000001,0.128318357519909,-1.09307328585705));
#746=CARTESIAN_POINT('Ctrl Pts',(2.00000000000003,0.0927356783258911,-1.09608390066725));
#747=CARTESIAN_POINT('Ctrl Pts',(1.99999999999997,0.0620792330774541,-1.09867771176252));
#748=CARTESIAN_POINT('Ctrl Pts',(2.,0.0311680114924729,-1.09999999999998));
#749=CARTESIAN_POINT('Ctrl Pts',(2.,-4.43734259186819E-31,-1.09999999999998));
#750=CARTESIAN_POINT('Origin',(0.100000000000004,2.08166817117217E-15,-2.84060969191202E-16));
#751=CARTESIAN_POINT('',(1.71737624121704E-15,1.9201114205267E-15,-1.8));
#752=CARTESIAN_POINT('Origin',(1.71574993795831E-15,4.96936964495033E-16,
-2.77555756156289E-16));
#753=CARTESIAN_POINT('',(0.100000000000003,1.84898527933417E-15,-1.9));
#754=CARTESIAN_POINT('Origin',(0.100000000000004,1.86123174732564E-15,-1.8));
#755=CARTESIAN_POINT('Origin',(0.100000000000003,0.,0.));
#756=CARTESIAN_POINT('Origin',(-31.75,0.,0.));
#757=CARTESIAN_POINT('',(6.77399999999996,-1.22464679914733E-16,-0.99999999999998));
#758=CARTESIAN_POINT('',(-31.75,-1.22464679914733E-16,-0.99999999999998));
#759=CARTESIAN_POINT('',(6.77400000002017,1.00000000002019,-1.22464679917208E-16));
#760=CARTESIAN_POINT('Origin',(6.77399999999996,0.,0.));
#761=CARTESIAN_POINT('Origin',(6.77399999999996,0.,0.));
#762=CARTESIAN_POINT('Origin',(6.77400000000716,0.,0.));
#763=CARTESIAN_POINT('',(7.000000000005,0.774000000035358,-9.47876622583352E-17));
#764=CARTESIAN_POINT('',(6.77400000000716,1.0000000000332,-1.22464679918801E-16));
#765=CARTESIAN_POINT('Origin',(7.000000000005,9.80118763884988E-17,0.));
#766=CARTESIAN_POINT('Origin',(-31.75,0.,0.));
#767=CARTESIAN_POINT('',(2.,-2.32682891837997E-16,-1.9));
#768=CARTESIAN_POINT('',(-31.75,-2.32682891837997E-16,-1.9));
#769=CARTESIAN_POINT('Origin',(2.,0.,0.));
#770=CARTESIAN_POINT('Origin',(0.999999999976353,0.,0.));
#771=CARTESIAN_POINT('',(1.44600308294685,1.26217744835362E-26,0.));
#772=CARTESIAN_POINT('',(0.999999999988177,-1.42433397568981E-16,-0.772499999991152));
#773=CARTESIAN_POINT('',(0.999999999976353,-9.46039652319656E-17,-0.772499999982301));
#774=CARTESIAN_POINT('',(0.999999999988177,-0.669004624415818,-0.386249999995575));
#775=CARTESIAN_POINT('Origin',(0.999999999976353,0.,0.));
#776=CARTESIAN_POINT('',(0.999999999988177,-0.669004624415815,0.386249999995576));
#777=CARTESIAN_POINT('Origin',(0.999999999976353,0.,0.));
#778=CARTESIAN_POINT('',(0.999999999988177,4.09213063287225E-17,0.772499999991149));
#779=CARTESIAN_POINT('Origin',(0.999999999976353,0.,0.));
#780=CARTESIAN_POINT('',(0.999999999988177,0.669004624415814,0.386249999995573));
#781=CARTESIAN_POINT('Origin',(0.999999999976353,0.,0.));
#782=CARTESIAN_POINT('',(0.999999999988177,0.669004624415814,-0.386249999995576));
#783=CARTESIAN_POINT('Origin',(0.999999999976353,0.,0.));
#784=CARTESIAN_POINT('Origin',(0.999999999976353,0.,0.));
#785=CARTESIAN_POINT('Origin',(2.,1.9,0.));
#786=CARTESIAN_POINT('Origin',(7.,0.774,0.));
#787=CARTESIAN_POINT('Origin',(0.,0.,0.));
#788=CARTESIAN_POINT('',(-3.25260651745651E-16,-0.44600308294899,-0.772500000000003));
#789=CARTESIAN_POINT('',(0.,0.446003082948982,-0.772500000000004));
#790=CARTESIAN_POINT('',(0.,0.,-0.772500000000003));
#791=CARTESIAN_POINT('',(-4.33680868994202E-16,0.892006165897969,-4.39101879856629E-15));
#792=CARTESIAN_POINT('',(0.,0.446003082948982,-0.772500000000004));
#793=CARTESIAN_POINT('',(-3.25260651745651E-16,0.446003082948984,0.772499999999997));
#794=CARTESIAN_POINT('',(0.,0.892006165897969,-4.39101879856629E-15));
#795=CARTESIAN_POINT('',(0.,-0.446003082948988,0.772499999999997));
#796=CARTESIAN_POINT('',(0.,0.,0.772499999999997));
#797=CARTESIAN_POINT('',(-6.50521303491303E-16,-0.892006165897974,-2.27682456221956E-15));
#798=CARTESIAN_POINT('',(0.,-0.446003082948988,0.772499999999997));
#799=CARTESIAN_POINT('',(0.,-0.892006165897974,-2.27682456221956E-15));
#800=CARTESIAN_POINT('Origin',(1.,0.892006165897969,-4.39101879856629E-15));
#801=CARTESIAN_POINT('',(1.,0.446003082948982,-0.772500000000004));
#802=CARTESIAN_POINT('',(1.,0.446003082948982,-0.772500000000004));
#803=CARTESIAN_POINT('',(1.,0.892006165897969,-4.39101879856629E-15));
#804=CARTESIAN_POINT('',(1.,0.892006165897969,-4.39101879856629E-15));
#805=CARTESIAN_POINT('',(1.,0.892006165897969,-4.39101879856629E-15));
#806=CARTESIAN_POINT('',(1.,0.892006165897969,-4.39101879856629E-15));
#807=CARTESIAN_POINT('Origin',(1.,0.446003082948982,-0.772500000000004));
#808=CARTESIAN_POINT('',(1.,-0.44600308294899,-0.772500000000003));
#809=CARTESIAN_POINT('',(1.,-0.44600308294899,-0.772500000000003));
#810=CARTESIAN_POINT('',(1.,0.446003082948982,-0.772500000000004));
#811=CARTESIAN_POINT('',(1.,0.446003082948982,-0.772500000000004));
#812=CARTESIAN_POINT('Origin',(1.,-0.892006165897974,-2.27682456221956E-15));
#813=CARTESIAN_POINT('',(1.,-0.892006165897974,-2.27682456221956E-15));
#814=CARTESIAN_POINT('',(1.,-0.892006165897974,-2.20454441738719E-15));
#815=CARTESIAN_POINT('',(1.,-0.892006165897974,-2.27682456221956E-15));
#816=CARTESIAN_POINT('',(1.,-0.892006165897974,-2.27682456221956E-15));
#817=CARTESIAN_POINT('Origin',(1.,-0.446003082948988,0.772499999999997));
#818=CARTESIAN_POINT('',(1.,-0.446003082948988,0.772499999999997));
#819=CARTESIAN_POINT('',(1.,-0.446003082948988,0.772499999999997));
#820=CARTESIAN_POINT('',(1.,-0.446003082948988,0.772499999999997));
#821=CARTESIAN_POINT('',(1.,-0.446003082948988,0.772499999999997));
#822=CARTESIAN_POINT('Origin',(1.,-0.446003082948988,0.772499999999997));
#823=CARTESIAN_POINT('',(1.,0.446003082948984,0.772499999999997));
#824=CARTESIAN_POINT('',(1.,0.446003082948984,0.772499999999997));
#825=CARTESIAN_POINT('',(1.,-0.446003082948988,0.772499999999997));
#826=CARTESIAN_POINT('',(1.,-0.446003082948988,0.772499999999997));
#827=CARTESIAN_POINT('Origin',(1.,0.892006165897969,-4.39101879856629E-15));
#828=CARTESIAN_POINT('',(1.,0.892006165897969,-4.39101879856629E-15));
#829=CARTESIAN_POINT('',(1.,0.892006165897969,-4.39101879856629E-15));
#830=CARTESIAN_POINT('Origin',(1.,0.446003082948984,0.772499999999997));
#831=CARTESIAN_POINT('Origin',(1.,0.446003082948984,0.772499999999997));
#832=CARTESIAN_POINT('Origin',(1.,0.446003082948984,0.772499999999997));
#833=CARTESIAN_POINT('Origin',(1.,0.446003082948984,0.772499999999997));
#834=CARTESIAN_POINT('Origin',(1.,0.446003082948984,0.772499999999997));
#835=CARTESIAN_POINT('Origin',(1.,0.446003082948984,0.772499999999997));
#836=UNCERTAINTY_MEASURE_WITH_UNIT(LENGTH_MEASURE(0.01),#840,
'DISTANCE_ACCURACY_VALUE',
'Maximum model space distance between geometric entities at asserted c
onnectivities');
#837=UNCERTAINTY_MEASURE_WITH_UNIT(LENGTH_MEASURE(0.01),#840,
'DISTANCE_ACCURACY_VALUE',
'Maximum model space distance between geometric entities at asserted c
onnectivities');
#838=(
GEOMETRIC_REPRESENTATION_CONTEXT(3)
GLOBAL_UNCERTAINTY_ASSIGNED_CONTEXT((#836))
GLOBAL_UNIT_ASSIGNED_CONTEXT((#840,#842,#843))
REPRESENTATION_CONTEXT('','3D')
);
#839=(
GEOMETRIC_REPRESENTATION_CONTEXT(3)
GLOBAL_UNCERTAINTY_ASSIGNED_CONTEXT((#837))
GLOBAL_UNIT_ASSIGNED_CONTEXT((#840,#842,#843))
REPRESENTATION_CONTEXT('','3D')
);
#840=(
LENGTH_UNIT()
NAMED_UNIT(*)
SI_UNIT(.MILLI.,.METRE.)
);
#841=(
LENGTH_UNIT()
NAMED_UNIT(*)
SI_UNIT($,.METRE.)
);
#842=(
NAMED_UNIT(*)
PLANE_ANGLE_UNIT()
SI_UNIT($,.RADIAN.)
);
#843=(
NAMED_UNIT(*)
SI_UNIT($,.STERADIAN.)
SOLID_ANGLE_UNIT()
);
#844=SHAPE_DEFINITION_REPRESENTATION(#845,#846);
#845=PRODUCT_DEFINITION_SHAPE('',$,#848);
#846=SHAPE_REPRESENTATION('',(#357),#838);
#847=PRODUCT_DEFINITION_CONTEXT('part definition',#852,'design');
#848=PRODUCT_DEFINITION('ISO 4762-M2 X 5-5-A2',
'ISO 4762-M2 X 5-5-A2 v1',#849,#847);
#849=PRODUCT_DEFINITION_FORMATION('',$,#854);
#850=PRODUCT_RELATED_PRODUCT_CATEGORY('ISO 4762-M2 X 5-5-A2 v1',
'ISO 4762-M2 X 5-5-A2 v1',(#854));
#851=APPLICATION_PROTOCOL_DEFINITION('international standard',
'automotive_design',2009,#852);
#852=APPLICATION_CONTEXT(
'Core Data for Automotive Mechanical Design Process');
#853=PRODUCT_CONTEXT('part definition',#852,'mechanical');
#854=PRODUCT('ISO 4762-M2 X 5-5-A2','ISO 4762-M2 X 5-5-A2 v1',$,(#853));
#855=PRESENTATION_STYLE_ASSIGNMENT((#857));
#856=PRESENTATION_STYLE_ASSIGNMENT((#858));
#857=SURFACE_STYLE_USAGE(.BOTH.,#859);
#858=SURFACE_STYLE_USAGE(.BOTH.,#860);
#859=SURFACE_SIDE_STYLE('',(#861));
#860=SURFACE_SIDE_STYLE('',(#862));
#861=SURFACE_STYLE_FILL_AREA(#863);
#862=SURFACE_STYLE_FILL_AREA(#864);
#863=FILL_AREA_STYLE('Steel - Satin',(#865));
#864=FILL_AREA_STYLE('Opaque(192,192,192)',(#866));
#865=FILL_AREA_STYLE_COLOUR('Steel - Satin',#867);
#866=FILL_AREA_STYLE_COLOUR('Opaque(192,192,192)',#868);
#867=COLOUR_RGB('Steel - Satin',0.627450980392157,0.627450980392157,0.627450980392157);
#868=COLOUR_RGB('Opaque(192,192,192)',0.752941176470588,0.752941176470588,
0.752941176470588);
ENDSEC;
END-ISO-10303-21;
