ISO-10303-21;
HEADER;
/* Generated by software containing ST-Developer
 * from STEP Tools, Inc. (www.steptools.com) 
 */

FILE_DESCRIPTION(
/* description */ (''),
/* implementation_level */ '2;1');

FILE_NAME(
/* name */ 'Shielding for CAMECA electrodes v1.step',
/* time_stamp */ '2024-06-19T11:51:03+02:00',
/* author */ (''),
/* organization */ (''),
/* preprocessor_version */ 'ST-DEVELOPER v20',
/* originating_system */ 'Autodesk Translation Framework v13.14.0.145',

/* authorisation */ '');

FILE_SCHEMA (('AUTOMOTIVE_DESIGN { 1 0 10303 214 3 1 1 }'));
ENDSEC;

DATA;
#10=MECHANICAL_DESIGN_GEOMETRIC_PRESENTATION_REPRESENTATION('',(#13,#14),
#238);
#11=SHAPE_REPRESENTATION_RELATIONSHIP('SRR','None',#245,#12);
#12=ADVANCED_BREP_SHAPE_REPRESENTATION('',(#15,#16),#237);
#13=STYLED_ITEM('',(#254),#15);
#14=STYLED_ITEM('',(#254),#16);
#15=MANIFOLD_SOLID_BREP('Shielding',#128);
#16=MANIFOLD_SOLID_BREP('Shielding Stamp',#129);
#17=CYLINDRICAL_SURFACE('',#150,4.5);
#18=CYLINDRICAL_SURFACE('',#155,3.);
#19=FACE_BOUND('',#36,.T.);
#20=FACE_BOUND('',#39,.T.);
#21=PLANE('',#148);
#22=PLANE('',#152);
#23=PLANE('',#158);
#24=FACE_OUTER_BOUND('',#33,.T.);
#25=FACE_OUTER_BOUND('',#34,.T.);
#26=FACE_OUTER_BOUND('',#35,.T.);
#27=FACE_OUTER_BOUND('',#37,.T.);
#28=FACE_OUTER_BOUND('',#38,.T.);
#29=FACE_OUTER_BOUND('',#40,.T.);
#30=FACE_OUTER_BOUND('',#41,.T.);
#31=FACE_OUTER_BOUND('',#42,.T.);
#32=FACE_OUTER_BOUND('',#43,.T.);
#33=EDGE_LOOP('',(#87,#88,#89,#90));
#34=EDGE_LOOP('',(#91,#92,#93,#94));
#35=EDGE_LOOP('',(#95));
#36=EDGE_LOOP('',(#96));
#37=EDGE_LOOP('',(#97,#98,#99,#100));
#38=EDGE_LOOP('',(#101));
#39=EDGE_LOOP('',(#102));
#40=EDGE_LOOP('',(#103,#104,#105,#106));
#41=EDGE_LOOP('',(#107,#108,#109,#110));
#42=EDGE_LOOP('',(#111));
#43=EDGE_LOOP('',(#112,#113,#114));
#44=LINE('',#207,#50);
#45=LINE('',#212,#51);
#46=LINE('',#219,#52);
#47=LINE('',#224,#53);
#48=LINE('',#229,#54);
#49=LINE('',#234,#55);
#50=VECTOR('',#166,1.04160251471689);
#51=VECTOR('',#173,2.06836170264129);
#52=VECTOR('',#182,4.5);
#53=VECTOR('',#189,2.);
#54=VECTOR('',#194,3.);
#55=VECTOR('',#201,1.5);
#56=CIRCLE('',#144,1.);
#57=CIRCLE('',#145,1.08320502943378);
#58=CIRCLE('',#147,3.0535183758488);
#59=CIRCLE('',#149,4.5);
#60=CIRCLE('',#151,4.5);
#61=CIRCLE('',#153,3.);
#62=CIRCLE('',#156,3.);
#63=CIRCLE('',#157,3.);
#64=VERTEX_POINT('',#204);
#65=VERTEX_POINT('',#206);
#66=VERTEX_POINT('',#210);
#67=VERTEX_POINT('',#214);
#68=VERTEX_POINT('',#217);
#69=VERTEX_POINT('',#221);
#70=VERTEX_POINT('',#226);
#71=VERTEX_POINT('',#228);
#72=VERTEX_POINT('',#233);
#73=EDGE_CURVE('',#64,#64,#56,.T.);
#74=EDGE_CURVE('',#64,#65,#44,.T.);
#75=EDGE_CURVE('',#65,#65,#57,.T.);
#76=EDGE_CURVE('',#66,#66,#58,.T.);
#77=EDGE_CURVE('',#66,#65,#45,.T.);
#78=EDGE_CURVE('',#67,#67,#59,.T.);
#79=EDGE_CURVE('',#68,#68,#60,.T.);
#80=EDGE_CURVE('',#68,#67,#46,.T.);
#81=EDGE_CURVE('',#69,#69,#61,.T.);
#82=EDGE_CURVE('',#69,#64,#47,.T.);
#83=EDGE_CURVE('',#70,#70,#62,.T.);
#84=EDGE_CURVE('',#70,#71,#48,.T.);
#85=EDGE_CURVE('',#71,#71,#63,.T.);
#86=EDGE_CURVE('',#71,#72,#49,.T.);
#87=ORIENTED_EDGE('',*,*,#73,.T.);
#88=ORIENTED_EDGE('',*,*,#74,.T.);
#89=ORIENTED_EDGE('',*,*,#75,.F.);
#90=ORIENTED_EDGE('',*,*,#74,.F.);
#91=ORIENTED_EDGE('',*,*,#76,.F.);
#92=ORIENTED_EDGE('',*,*,#77,.T.);
#93=ORIENTED_EDGE('',*,*,#75,.T.);
#94=ORIENTED_EDGE('',*,*,#77,.F.);
#95=ORIENTED_EDGE('',*,*,#78,.F.);
#96=ORIENTED_EDGE('',*,*,#76,.T.);
#97=ORIENTED_EDGE('',*,*,#79,.F.);
#98=ORIENTED_EDGE('',*,*,#80,.T.);
#99=ORIENTED_EDGE('',*,*,#78,.T.);
#100=ORIENTED_EDGE('',*,*,#80,.F.);
#101=ORIENTED_EDGE('',*,*,#79,.T.);
#102=ORIENTED_EDGE('',*,*,#81,.F.);
#103=ORIENTED_EDGE('',*,*,#81,.T.);
#104=ORIENTED_EDGE('',*,*,#82,.T.);
#105=ORIENTED_EDGE('',*,*,#73,.F.);
#106=ORIENTED_EDGE('',*,*,#82,.F.);
#107=ORIENTED_EDGE('',*,*,#83,.F.);
#108=ORIENTED_EDGE('',*,*,#84,.T.);
#109=ORIENTED_EDGE('',*,*,#85,.T.);
#110=ORIENTED_EDGE('',*,*,#84,.F.);
#111=ORIENTED_EDGE('',*,*,#83,.T.);
#112=ORIENTED_EDGE('',*,*,#85,.F.);
#113=ORIENTED_EDGE('',*,*,#86,.T.);
#114=ORIENTED_EDGE('',*,*,#86,.F.);
#115=CONICAL_SURFACE('',#143,1.04160251471689,0.98279372324733);
#116=CONICAL_SURFACE('',#146,2.06836170264129,0.588002603547568);
#117=CONICAL_SURFACE('',#154,2.,0.588002603547568);
#118=CONICAL_SURFACE('',#159,1.5,0.588002603547567);
#119=ADVANCED_FACE('',(#24),#115,.F.);
#120=ADVANCED_FACE('',(#25),#116,.T.);
#121=ADVANCED_FACE('',(#26,#19),#21,.T.);
#122=ADVANCED_FACE('',(#27),#17,.T.);
#123=ADVANCED_FACE('',(#28,#20),#22,.T.);
#124=ADVANCED_FACE('',(#29),#117,.F.);
#125=ADVANCED_FACE('',(#30),#18,.T.);
#126=ADVANCED_FACE('',(#31),#23,.T.);
#127=ADVANCED_FACE('',(#32),#118,.T.);
#128=CLOSED_SHELL('',(#119,#120,#121,#122,#123,#124));
#129=CLOSED_SHELL('',(#125,#126,#127));
#130=DERIVED_UNIT_ELEMENT(#132,1.);
#131=DERIVED_UNIT_ELEMENT(#240,-3.);
#132=(
MASS_UNIT()
NAMED_UNIT(*)
SI_UNIT(.KILO.,.GRAM.)
);
#133=DERIVED_UNIT((#130,#131));
#134=MEASURE_REPRESENTATION_ITEM('density measure',
POSITIVE_RATIO_MEASURE(7850.),#133);
#135=PROPERTY_DEFINITION_REPRESENTATION(#140,#137);
#136=PROPERTY_DEFINITION_REPRESENTATION(#141,#138);
#137=REPRESENTATION('material name',(#139),#237);
#138=REPRESENTATION('density',(#134),#237);
#139=DESCRIPTIVE_REPRESENTATION_ITEM('Steel','Steel');
#140=PROPERTY_DEFINITION('material property','material name',#247);
#141=PROPERTY_DEFINITION('material property','density of part',#247);
#142=AXIS2_PLACEMENT_3D('',#202,#160,#161);
#143=AXIS2_PLACEMENT_3D('',#203,#162,#163);
#144=AXIS2_PLACEMENT_3D('',#205,#164,#165);
#145=AXIS2_PLACEMENT_3D('',#208,#167,#168);
#146=AXIS2_PLACEMENT_3D('',#209,#169,#170);
#147=AXIS2_PLACEMENT_3D('',#211,#171,#172);
#148=AXIS2_PLACEMENT_3D('',#213,#174,#175);
#149=AXIS2_PLACEMENT_3D('',#215,#176,#177);
#150=AXIS2_PLACEMENT_3D('',#216,#178,#179);
#151=AXIS2_PLACEMENT_3D('',#218,#180,#181);
#152=AXIS2_PLACEMENT_3D('',#220,#183,#184);
#153=AXIS2_PLACEMENT_3D('',#222,#185,#186);
#154=AXIS2_PLACEMENT_3D('',#223,#187,#188);
#155=AXIS2_PLACEMENT_3D('',#225,#190,#191);
#156=AXIS2_PLACEMENT_3D('',#227,#192,#193);
#157=AXIS2_PLACEMENT_3D('',#230,#195,#196);
#158=AXIS2_PLACEMENT_3D('',#231,#197,#198);
#159=AXIS2_PLACEMENT_3D('',#232,#199,#200);
#160=DIRECTION('axis',(0.,0.,1.));
#161=DIRECTION('refdir',(1.,0.,0.));
#162=DIRECTION('center_axis',(0.,1.,0.));
#163=DIRECTION('ref_axis',(1.,0.,0.));
#164=DIRECTION('center_axis',(0.,-1.,0.));
#165=DIRECTION('ref_axis',(1.,0.,0.));
#166=DIRECTION('',(-0.832050294337844,0.554700196225228,-1.01896772969045E-16));
#167=DIRECTION('center_axis',(0.,-1.,0.));
#168=DIRECTION('ref_axis',(1.,0.,0.));
#169=DIRECTION('center_axis',(0.,-1.,0.));
#170=DIRECTION('ref_axis',(1.,0.,0.));
#171=DIRECTION('center_axis',(0.,-1.,0.));
#172=DIRECTION('ref_axis',(1.,0.,0.));
#173=DIRECTION('',(0.554700196225229,0.832050294337844,6.79311819793636E-17));
#174=DIRECTION('center_axis',(0.,1.,0.));
#175=DIRECTION('ref_axis',(0.,0.,1.));
#176=DIRECTION('center_axis',(0.,-1.,0.));
#177=DIRECTION('ref_axis',(1.,0.,0.));
#178=DIRECTION('center_axis',(0.,-1.,0.));
#179=DIRECTION('ref_axis',(1.,0.,0.));
#180=DIRECTION('center_axis',(0.,-1.,0.));
#181=DIRECTION('ref_axis',(1.,0.,0.));
#182=DIRECTION('',(0.,1.,0.));
#183=DIRECTION('center_axis',(0.,-1.,0.));
#184=DIRECTION('ref_axis',(0.,0.,-1.));
#185=DIRECTION('center_axis',(0.,-1.,0.));
#186=DIRECTION('ref_axis',(1.,0.,0.));
#187=DIRECTION('center_axis',(0.,-1.,0.));
#188=DIRECTION('ref_axis',(1.,0.,0.));
#189=DIRECTION('',(0.554700196225229,0.832050294337844,6.79311819793636E-17));
#190=DIRECTION('center_axis',(0.,-1.,0.));
#191=DIRECTION('ref_axis',(1.,0.,0.));
#192=DIRECTION('center_axis',(0.,-1.,0.));
#193=DIRECTION('ref_axis',(1.,0.,0.));
#194=DIRECTION('',(0.,1.,0.));
#195=DIRECTION('center_axis',(0.,-1.,0.));
#196=DIRECTION('ref_axis',(1.,0.,0.));
#197=DIRECTION('center_axis',(0.,-1.,0.));
#198=DIRECTION('ref_axis',(0.,0.,-1.));
#199=DIRECTION('center_axis',(0.,-1.,0.));
#200=DIRECTION('ref_axis',(1.,0.,0.));
#201=DIRECTION('',(0.554700196225229,0.832050294337844,6.79311819793635E-17));
#202=CARTESIAN_POINT('',(0.,0.,0.));
#203=CARTESIAN_POINT('Origin',(0.,3.02773500981126,0.));
#204=CARTESIAN_POINT('',(-1.,3.,-1.22464679914735E-16));
#205=CARTESIAN_POINT('Origin',(0.,3.,0.));
#206=CARTESIAN_POINT('',(-1.08320502943378,3.05547001962252,-1.3265435721164E-16));
#207=CARTESIAN_POINT('',(-1.04160251471689,3.02773500981126,-1.27559518563188E-16));
#208=CARTESIAN_POINT('Origin',(0.,3.05547001962252,0.));
#209=CARTESIAN_POINT('Origin',(0.,1.57773500981126,0.));
#210=CARTESIAN_POINT('',(-3.0535183758488,0.1,-3.73948150512086E-16));
#211=CARTESIAN_POINT('Origin',(0.,0.1,0.));
#212=CARTESIAN_POINT('',(-2.06836170264129,1.57773500981126,-2.53301253861863E-16));
#213=CARTESIAN_POINT('Origin',(4.5,0.1,0.));
#214=CARTESIAN_POINT('',(-4.5,0.1,-5.51091059616309E-16));
#215=CARTESIAN_POINT('Origin',(0.,0.1,0.));
#216=CARTESIAN_POINT('Origin',(0.,0.05,0.));
#217=CARTESIAN_POINT('',(-4.5,0.,-5.51091059616309E-16));
#218=CARTESIAN_POINT('Origin',(0.,0.,0.));
#219=CARTESIAN_POINT('',(-4.5,0.05,-5.51091059616309E-16));
#220=CARTESIAN_POINT('Origin',(3.,0.,0.));
#221=CARTESIAN_POINT('',(-3.,-5.55111512312578E-16,-3.67394039744206E-16));
#222=CARTESIAN_POINT('Origin',(0.,0.,0.));
#223=CARTESIAN_POINT('Origin',(0.,1.5,0.));
#224=CARTESIAN_POINT('',(-2.,1.5,-2.44929359829471E-16));
#225=CARTESIAN_POINT('Origin',(0.,-5.,0.));
#226=CARTESIAN_POINT('',(-3.,-10.,-3.67394039744206E-16));
#227=CARTESIAN_POINT('Origin',(0.,-10.,0.));
#228=CARTESIAN_POINT('',(-3.,0.,-3.67394039744206E-16));
#229=CARTESIAN_POINT('',(-3.,-5.,-3.67394039744206E-16));
#230=CARTESIAN_POINT('Origin',(0.,0.,0.));
#231=CARTESIAN_POINT('Origin',(-9.86485537701753E-8,-10.,0.));
#232=CARTESIAN_POINT('Origin',(0.,2.25,0.));
#233=CARTESIAN_POINT('',(0.,4.5,0.));
#234=CARTESIAN_POINT('',(-1.5,2.25,-1.83697019872103E-16));
#235=UNCERTAINTY_MEASURE_WITH_UNIT(LENGTH_MEASURE(0.01),#239,
'DISTANCE_ACCURACY_VALUE',
'Maximum model space distance between geometric entities at asserted c
onnectivities');
#236=UNCERTAINTY_MEASURE_WITH_UNIT(LENGTH_MEASURE(0.01),#239,
'DISTANCE_ACCURACY_VALUE',
'Maximum model space distance between geometric entities at asserted c
onnectivities');
#237=(
GEOMETRIC_REPRESENTATION_CONTEXT(3)
GLOBAL_UNCERTAINTY_ASSIGNED_CONTEXT((#235))
GLOBAL_UNIT_ASSIGNED_CONTEXT((#239,#241,#242))
REPRESENTATION_CONTEXT('','3D')
);
#238=(
GEOMETRIC_REPRESENTATION_CONTEXT(3)
GLOBAL_UNCERTAINTY_ASSIGNED_CONTEXT((#236))
GLOBAL_UNIT_ASSIGNED_CONTEXT((#239,#241,#242))
REPRESENTATION_CONTEXT('','3D')
);
#239=(
LENGTH_UNIT()
NAMED_UNIT(*)
SI_UNIT(.MILLI.,.METRE.)
);
#240=(
LENGTH_UNIT()
NAMED_UNIT(*)
SI_UNIT($,.METRE.)
);
#241=(
NAMED_UNIT(*)
PLANE_ANGLE_UNIT()
SI_UNIT($,.RADIAN.)
);
#242=(
NAMED_UNIT(*)
SI_UNIT($,.STERADIAN.)
SOLID_ANGLE_UNIT()
);
#243=SHAPE_DEFINITION_REPRESENTATION(#244,#245);
#244=PRODUCT_DEFINITION_SHAPE('',$,#247);
#245=SHAPE_REPRESENTATION('',(#142),#237);
#246=PRODUCT_DEFINITION_CONTEXT('part definition',#251,'design');
#247=PRODUCT_DEFINITION('Shielding for CAMECA electrodes',
'Shielding for CAMECA electrodes v1',#248,#246);
#248=PRODUCT_DEFINITION_FORMATION('',$,#253);
#249=PRODUCT_RELATED_PRODUCT_CATEGORY(
'Shielding for CAMECA electrodes v1',
'Shielding for CAMECA electrodes v1',(#253));
#250=APPLICATION_PROTOCOL_DEFINITION('international standard',
'automotive_design',2009,#251);
#251=APPLICATION_CONTEXT(
'Core Data for Automotive Mechanical Design Process');
#252=PRODUCT_CONTEXT('part definition',#251,'mechanical');
#253=PRODUCT('Shielding for CAMECA electrodes',
'Shielding for CAMECA electrodes v1',$,(#252));
#254=PRESENTATION_STYLE_ASSIGNMENT((#255));
#255=SURFACE_STYLE_USAGE(.BOTH.,#256);
#256=SURFACE_SIDE_STYLE('',(#257));
#257=SURFACE_STYLE_FILL_AREA(#258);
#258=FILL_AREA_STYLE('Steel - Satin',(#259));
#259=FILL_AREA_STYLE_COLOUR('Steel - Satin',#260);
#260=COLOUR_RGB('Steel - Satin',0.627450980392157,0.627450980392157,0.627450980392157);
ENDSEC;
END-ISO-10303-21;
