ISO-10303-21;
HEADER;
/* Generated by software containing ST-Developer
 * from STEP Tools, Inc. (www.steptools.com) 
 */

FILE_DESCRIPTION(
/* description */ (''),
/* implementation_level */ '2;1');

FILE_NAME(
/* name */ 'temporary piezo replacement v4.step',
/* time_stamp */ '2024-06-19T12:04:09+02:00',
/* author */ (''),
/* organization */ (''),
/* preprocessor_version */ 'ST-DEVELOPER v20',
/* originating_system */ 'Autodesk Translation Framework v13.14.0.145',

/* authorisation */ '');

FILE_SCHEMA (('AUTOMOTIVE_DESIGN { 1 0 10303 214 3 1 1 }'));
ENDSEC;

DATA;
#10=MECHANICAL_DESIGN_GEOMETRIC_PRESENTATION_REPRESENTATION('',(#13),#793);
#11=SHAPE_REPRESENTATION_RELATIONSHIP('SRR','None',#800,#12);
#12=ADVANCED_BREP_SHAPE_REPRESENTATION('',(#14),#792);
#13=STYLED_ITEM('',(#809),#14);
#14=MANIFOLD_SOLID_BREP('Body1',#473);
#15=FACE_BOUND('',#81,.T.);
#16=FACE_BOUND('',#82,.T.);
#17=FACE_BOUND('',#86,.T.);
#18=FACE_BOUND('',#87,.T.);
#19=CIRCLE('',#489,0.999999999999999);
#20=CIRCLE('',#490,0.999999999999999);
#21=CIRCLE('',#493,0.999999999999998);
#22=CIRCLE('',#494,0.999999999999998);
#23=CIRCLE('',#497,1.);
#24=CIRCLE('',#498,1.);
#25=CIRCLE('',#501,1.);
#26=CIRCLE('',#502,1.);
#27=CIRCLE('',#504,1.);
#28=CIRCLE('',#505,1.);
#29=CIRCLE('',#511,2.);
#30=CIRCLE('',#512,2.);
#31=CIRCLE('',#515,4.);
#32=CIRCLE('',#516,4.);
#33=CYLINDRICAL_SURFACE('',#488,0.999999999999999);
#34=CYLINDRICAL_SURFACE('',#492,0.999999999999998);
#35=CYLINDRICAL_SURFACE('',#496,1.);
#36=CYLINDRICAL_SURFACE('',#500,1.);
#37=CYLINDRICAL_SURFACE('',#503,1.);
#38=CYLINDRICAL_SURFACE('',#510,2.);
#39=CYLINDRICAL_SURFACE('',#514,4.);
#40=FACE_OUTER_BOUND('',#66,.T.);
#41=FACE_OUTER_BOUND('',#67,.T.);
#42=FACE_OUTER_BOUND('',#68,.T.);
#43=FACE_OUTER_BOUND('',#69,.T.);
#44=FACE_OUTER_BOUND('',#70,.T.);
#45=FACE_OUTER_BOUND('',#71,.T.);
#46=FACE_OUTER_BOUND('',#72,.T.);
#47=FACE_OUTER_BOUND('',#73,.T.);
#48=FACE_OUTER_BOUND('',#74,.T.);
#49=FACE_OUTER_BOUND('',#75,.T.);
#50=FACE_OUTER_BOUND('',#76,.T.);
#51=FACE_OUTER_BOUND('',#77,.T.);
#52=FACE_OUTER_BOUND('',#78,.T.);
#53=FACE_OUTER_BOUND('',#79,.T.);
#54=FACE_OUTER_BOUND('',#80,.T.);
#55=FACE_OUTER_BOUND('',#83,.T.);
#56=FACE_OUTER_BOUND('',#84,.T.);
#57=FACE_OUTER_BOUND('',#85,.T.);
#58=FACE_OUTER_BOUND('',#88,.T.);
#59=FACE_OUTER_BOUND('',#89,.T.);
#60=FACE_OUTER_BOUND('',#90,.T.);
#61=FACE_OUTER_BOUND('',#91,.T.);
#62=FACE_OUTER_BOUND('',#92,.T.);
#63=FACE_OUTER_BOUND('',#93,.T.);
#64=FACE_OUTER_BOUND('',#94,.T.);
#65=FACE_OUTER_BOUND('',#95,.T.);
#66=EDGE_LOOP('',(#300,#301,#302,#303));
#67=EDGE_LOOP('',(#304,#305,#306,#307));
#68=EDGE_LOOP('',(#308,#309,#310,#311));
#69=EDGE_LOOP('',(#312,#313,#314,#315));
#70=EDGE_LOOP('',(#316,#317,#318,#319));
#71=EDGE_LOOP('',(#320,#321,#322,#323));
#72=EDGE_LOOP('',(#324,#325,#326,#327));
#73=EDGE_LOOP('',(#328,#329,#330,#331));
#74=EDGE_LOOP('',(#332,#333,#334,#335));
#75=EDGE_LOOP('',(#336,#337,#338,#339));
#76=EDGE_LOOP('',(#340,#341,#342,#343));
#77=EDGE_LOOP('',(#344,#345,#346,#347,#348,#349,#350,#351));
#78=EDGE_LOOP('',(#352,#353,#354,#355));
#79=EDGE_LOOP('',(#356,#357,#358,#359));
#80=EDGE_LOOP('',(#360,#361,#362,#363));
#81=EDGE_LOOP('',(#364,#365,#366,#367));
#82=EDGE_LOOP('',(#368,#369,#370,#371));
#83=EDGE_LOOP('',(#372,#373,#374,#375));
#84=EDGE_LOOP('',(#376,#377,#378,#379,#380,#381,#382,#383));
#85=EDGE_LOOP('',(#384,#385,#386,#387));
#86=EDGE_LOOP('',(#388,#389,#390,#391));
#87=EDGE_LOOP('',(#392,#393,#394,#395));
#88=EDGE_LOOP('',(#396,#397,#398,#399));
#89=EDGE_LOOP('',(#400,#401,#402,#403));
#90=EDGE_LOOP('',(#404,#405,#406,#407));
#91=EDGE_LOOP('',(#408,#409,#410,#411));
#92=EDGE_LOOP('',(#412,#413,#414,#415));
#93=EDGE_LOOP('',(#416,#417,#418,#419));
#94=EDGE_LOOP('',(#420,#421,#422,#423));
#95=EDGE_LOOP('',(#424,#425,#426,#427));
#96=LINE('',#663,#146);
#97=LINE('',#665,#147);
#98=LINE('',#667,#148);
#99=LINE('',#668,#149);
#100=LINE('',#674,#150);
#101=LINE('',#677,#151);
#102=LINE('',#679,#152);
#103=LINE('',#680,#153);
#104=LINE('',#687,#154);
#105=LINE('',#689,#155);
#106=LINE('',#691,#156);
#107=LINE('',#692,#157);
#108=LINE('',#698,#158);
#109=LINE('',#701,#159);
#110=LINE('',#703,#160);
#111=LINE('',#704,#161);
#112=LINE('',#713,#162);
#113=LINE('',#716,#163);
#114=LINE('',#719,#164);
#115=LINE('',#721,#165);
#116=LINE('',#722,#166);
#117=LINE('',#725,#167);
#118=LINE('',#727,#168);
#119=LINE('',#728,#169);
#120=LINE('',#731,#170);
#121=LINE('',#733,#171);
#122=LINE('',#735,#172);
#123=LINE('',#737,#173);
#124=LINE('',#738,#174);
#125=LINE('',#741,#175);
#126=LINE('',#742,#176);
#127=LINE('',#747,#177);
#128=LINE('',#751,#178);
#129=LINE('',#753,#179);
#130=LINE('',#754,#180);
#131=LINE('',#760,#181);
#132=LINE('',#763,#182);
#133=LINE('',#766,#183);
#134=LINE('',#767,#184);
#135=LINE('',#768,#185);
#136=LINE('',#771,#186);
#137=LINE('',#773,#187);
#138=LINE('',#774,#188);
#139=LINE('',#776,#189);
#140=LINE('',#777,#190);
#141=LINE('',#779,#191);
#142=LINE('',#780,#192);
#143=LINE('',#782,#193);
#144=LINE('',#786,#194);
#145=LINE('',#788,#195);
#146=VECTOR('',#531,10.);
#147=VECTOR('',#532,10.);
#148=VECTOR('',#533,10.);
#149=VECTOR('',#534,10.);
#150=VECTOR('',#541,10.);
#151=VECTOR('',#544,10.);
#152=VECTOR('',#545,10.);
#153=VECTOR('',#546,10.);
#154=VECTOR('',#555,10.);
#155=VECTOR('',#556,10.);
#156=VECTOR('',#557,10.);
#157=VECTOR('',#558,10.);
#158=VECTOR('',#565,10.);
#159=VECTOR('',#568,10.);
#160=VECTOR('',#569,10.);
#161=VECTOR('',#570,10.);
#162=VECTOR('',#581,10.);
#163=VECTOR('',#584,10.);
#164=VECTOR('',#587,10.);
#165=VECTOR('',#588,10.);
#166=VECTOR('',#589,10.);
#167=VECTOR('',#592,10.);
#168=VECTOR('',#593,10.);
#169=VECTOR('',#594,10.);
#170=VECTOR('',#597,10.);
#171=VECTOR('',#598,10.);
#172=VECTOR('',#599,10.);
#173=VECTOR('',#600,10.);
#174=VECTOR('',#601,10.);
#175=VECTOR('',#604,10.);
#176=VECTOR('',#605,10.);
#177=VECTOR('',#610,10.);
#178=VECTOR('',#615,10.);
#179=VECTOR('',#616,10.);
#180=VECTOR('',#617,10.);
#181=VECTOR('',#622,10.);
#182=VECTOR('',#625,10.);
#183=VECTOR('',#628,10.);
#184=VECTOR('',#629,10.);
#185=VECTOR('',#630,10.);
#186=VECTOR('',#633,10.);
#187=VECTOR('',#634,10.);
#188=VECTOR('',#635,10.);
#189=VECTOR('',#638,10.);
#190=VECTOR('',#639,10.);
#191=VECTOR('',#642,10.);
#192=VECTOR('',#643,10.);
#193=VECTOR('',#646,10.);
#194=VECTOR('',#653,10.);
#195=VECTOR('',#656,10.);
#196=VERTEX_POINT('',#661);
#197=VERTEX_POINT('',#662);
#198=VERTEX_POINT('',#664);
#199=VERTEX_POINT('',#666);
#200=VERTEX_POINT('',#670);
#201=VERTEX_POINT('',#672);
#202=VERTEX_POINT('',#676);
#203=VERTEX_POINT('',#678);
#204=VERTEX_POINT('',#685);
#205=VERTEX_POINT('',#686);
#206=VERTEX_POINT('',#688);
#207=VERTEX_POINT('',#690);
#208=VERTEX_POINT('',#694);
#209=VERTEX_POINT('',#696);
#210=VERTEX_POINT('',#700);
#211=VERTEX_POINT('',#702);
#212=VERTEX_POINT('',#709);
#213=VERTEX_POINT('',#710);
#214=VERTEX_POINT('',#712);
#215=VERTEX_POINT('',#714);
#216=VERTEX_POINT('',#718);
#217=VERTEX_POINT('',#720);
#218=VERTEX_POINT('',#724);
#219=VERTEX_POINT('',#726);
#220=VERTEX_POINT('',#730);
#221=VERTEX_POINT('',#732);
#222=VERTEX_POINT('',#734);
#223=VERTEX_POINT('',#736);
#224=VERTEX_POINT('',#740);
#225=VERTEX_POINT('',#744);
#226=VERTEX_POINT('',#746);
#227=VERTEX_POINT('',#750);
#228=VERTEX_POINT('',#752);
#229=VERTEX_POINT('',#756);
#230=VERTEX_POINT('',#757);
#231=VERTEX_POINT('',#759);
#232=VERTEX_POINT('',#761);
#233=VERTEX_POINT('',#765);
#234=VERTEX_POINT('',#770);
#235=VERTEX_POINT('',#772);
#236=EDGE_CURVE('',#196,#197,#96,.T.);
#237=EDGE_CURVE('',#198,#196,#97,.T.);
#238=EDGE_CURVE('',#199,#198,#98,.T.);
#239=EDGE_CURVE('',#199,#197,#99,.T.);
#240=EDGE_CURVE('',#197,#200,#19,.T.);
#241=EDGE_CURVE('',#201,#199,#20,.T.);
#242=EDGE_CURVE('',#201,#200,#100,.T.);
#243=EDGE_CURVE('',#200,#202,#101,.T.);
#244=EDGE_CURVE('',#203,#201,#102,.T.);
#245=EDGE_CURVE('',#203,#202,#103,.T.);
#246=EDGE_CURVE('',#202,#196,#21,.T.);
#247=EDGE_CURVE('',#198,#203,#22,.T.);
#248=EDGE_CURVE('',#204,#205,#104,.T.);
#249=EDGE_CURVE('',#206,#204,#105,.T.);
#250=EDGE_CURVE('',#207,#206,#106,.T.);
#251=EDGE_CURVE('',#207,#205,#107,.T.);
#252=EDGE_CURVE('',#205,#208,#23,.T.);
#253=EDGE_CURVE('',#209,#207,#24,.T.);
#254=EDGE_CURVE('',#209,#208,#108,.T.);
#255=EDGE_CURVE('',#208,#210,#109,.T.);
#256=EDGE_CURVE('',#211,#209,#110,.T.);
#257=EDGE_CURVE('',#211,#210,#111,.T.);
#258=EDGE_CURVE('',#210,#204,#25,.T.);
#259=EDGE_CURVE('',#206,#211,#26,.T.);
#260=EDGE_CURVE('',#212,#213,#27,.T.);
#261=EDGE_CURVE('',#214,#212,#112,.T.);
#262=EDGE_CURVE('',#215,#214,#28,.T.);
#263=EDGE_CURVE('',#215,#213,#113,.T.);
#264=EDGE_CURVE('',#213,#216,#114,.T.);
#265=EDGE_CURVE('',#217,#215,#115,.T.);
#266=EDGE_CURVE('',#216,#217,#116,.T.);
#267=EDGE_CURVE('',#218,#212,#117,.T.);
#268=EDGE_CURVE('',#219,#218,#118,.T.);
#269=EDGE_CURVE('',#214,#219,#119,.T.);
#270=EDGE_CURVE('',#216,#220,#120,.F.);
#271=EDGE_CURVE('',#220,#221,#121,.T.);
#272=EDGE_CURVE('',#222,#221,#122,.T.);
#273=EDGE_CURVE('',#222,#223,#123,.T.);
#274=EDGE_CURVE('',#223,#218,#124,.F.);
#275=EDGE_CURVE('',#217,#224,#125,.F.);
#276=EDGE_CURVE('',#224,#220,#126,.T.);
#277=EDGE_CURVE('',#221,#225,#29,.T.);
#278=EDGE_CURVE('',#225,#226,#127,.T.);
#279=EDGE_CURVE('',#226,#222,#30,.T.);
#280=EDGE_CURVE('',#225,#227,#128,.T.);
#281=EDGE_CURVE('',#228,#227,#129,.T.);
#282=EDGE_CURVE('',#228,#226,#130,.T.);
#283=EDGE_CURVE('',#229,#230,#31,.T.);
#284=EDGE_CURVE('',#231,#229,#131,.T.);
#285=EDGE_CURVE('',#232,#231,#32,.T.);
#286=EDGE_CURVE('',#230,#232,#132,.T.);
#287=EDGE_CURVE('',#233,#219,#133,.F.);
#288=EDGE_CURVE('',#231,#233,#134,.T.);
#289=EDGE_CURVE('',#224,#229,#135,.T.);
#290=EDGE_CURVE('',#234,#232,#136,.T.);
#291=EDGE_CURVE('',#234,#235,#137,.T.);
#292=EDGE_CURVE('',#230,#235,#138,.T.);
#293=EDGE_CURVE('',#230,#225,#139,.T.);
#294=EDGE_CURVE('',#229,#221,#140,.T.);
#295=EDGE_CURVE('',#231,#222,#141,.T.);
#296=EDGE_CURVE('',#232,#226,#142,.T.);
#297=EDGE_CURVE('',#233,#223,#143,.F.);
#298=EDGE_CURVE('',#235,#227,#144,.T.);
#299=EDGE_CURVE('',#234,#228,#145,.T.);
#300=ORIENTED_EDGE('',*,*,#236,.F.);
#301=ORIENTED_EDGE('',*,*,#237,.F.);
#302=ORIENTED_EDGE('',*,*,#238,.F.);
#303=ORIENTED_EDGE('',*,*,#239,.T.);
#304=ORIENTED_EDGE('',*,*,#240,.F.);
#305=ORIENTED_EDGE('',*,*,#239,.F.);
#306=ORIENTED_EDGE('',*,*,#241,.F.);
#307=ORIENTED_EDGE('',*,*,#242,.T.);
#308=ORIENTED_EDGE('',*,*,#243,.F.);
#309=ORIENTED_EDGE('',*,*,#242,.F.);
#310=ORIENTED_EDGE('',*,*,#244,.F.);
#311=ORIENTED_EDGE('',*,*,#245,.T.);
#312=ORIENTED_EDGE('',*,*,#246,.F.);
#313=ORIENTED_EDGE('',*,*,#245,.F.);
#314=ORIENTED_EDGE('',*,*,#247,.F.);
#315=ORIENTED_EDGE('',*,*,#237,.T.);
#316=ORIENTED_EDGE('',*,*,#248,.F.);
#317=ORIENTED_EDGE('',*,*,#249,.F.);
#318=ORIENTED_EDGE('',*,*,#250,.F.);
#319=ORIENTED_EDGE('',*,*,#251,.T.);
#320=ORIENTED_EDGE('',*,*,#252,.F.);
#321=ORIENTED_EDGE('',*,*,#251,.F.);
#322=ORIENTED_EDGE('',*,*,#253,.F.);
#323=ORIENTED_EDGE('',*,*,#254,.T.);
#324=ORIENTED_EDGE('',*,*,#255,.F.);
#325=ORIENTED_EDGE('',*,*,#254,.F.);
#326=ORIENTED_EDGE('',*,*,#256,.F.);
#327=ORIENTED_EDGE('',*,*,#257,.T.);
#328=ORIENTED_EDGE('',*,*,#258,.F.);
#329=ORIENTED_EDGE('',*,*,#257,.F.);
#330=ORIENTED_EDGE('',*,*,#259,.F.);
#331=ORIENTED_EDGE('',*,*,#249,.T.);
#332=ORIENTED_EDGE('',*,*,#260,.F.);
#333=ORIENTED_EDGE('',*,*,#261,.F.);
#334=ORIENTED_EDGE('',*,*,#262,.F.);
#335=ORIENTED_EDGE('',*,*,#263,.T.);
#336=ORIENTED_EDGE('',*,*,#264,.F.);
#337=ORIENTED_EDGE('',*,*,#263,.F.);
#338=ORIENTED_EDGE('',*,*,#265,.F.);
#339=ORIENTED_EDGE('',*,*,#266,.F.);
#340=ORIENTED_EDGE('',*,*,#267,.F.);
#341=ORIENTED_EDGE('',*,*,#268,.F.);
#342=ORIENTED_EDGE('',*,*,#269,.F.);
#343=ORIENTED_EDGE('',*,*,#261,.T.);
#344=ORIENTED_EDGE('',*,*,#267,.T.);
#345=ORIENTED_EDGE('',*,*,#260,.T.);
#346=ORIENTED_EDGE('',*,*,#264,.T.);
#347=ORIENTED_EDGE('',*,*,#270,.T.);
#348=ORIENTED_EDGE('',*,*,#271,.T.);
#349=ORIENTED_EDGE('',*,*,#272,.F.);
#350=ORIENTED_EDGE('',*,*,#273,.T.);
#351=ORIENTED_EDGE('',*,*,#274,.T.);
#352=ORIENTED_EDGE('',*,*,#266,.T.);
#353=ORIENTED_EDGE('',*,*,#275,.T.);
#354=ORIENTED_EDGE('',*,*,#276,.T.);
#355=ORIENTED_EDGE('',*,*,#270,.F.);
#356=ORIENTED_EDGE('',*,*,#277,.T.);
#357=ORIENTED_EDGE('',*,*,#278,.T.);
#358=ORIENTED_EDGE('',*,*,#279,.T.);
#359=ORIENTED_EDGE('',*,*,#272,.T.);
#360=ORIENTED_EDGE('',*,*,#278,.F.);
#361=ORIENTED_EDGE('',*,*,#280,.T.);
#362=ORIENTED_EDGE('',*,*,#281,.F.);
#363=ORIENTED_EDGE('',*,*,#282,.T.);
#364=ORIENTED_EDGE('',*,*,#243,.T.);
#365=ORIENTED_EDGE('',*,*,#246,.T.);
#366=ORIENTED_EDGE('',*,*,#236,.T.);
#367=ORIENTED_EDGE('',*,*,#240,.T.);
#368=ORIENTED_EDGE('',*,*,#255,.T.);
#369=ORIENTED_EDGE('',*,*,#258,.T.);
#370=ORIENTED_EDGE('',*,*,#248,.T.);
#371=ORIENTED_EDGE('',*,*,#252,.T.);
#372=ORIENTED_EDGE('',*,*,#283,.F.);
#373=ORIENTED_EDGE('',*,*,#284,.F.);
#374=ORIENTED_EDGE('',*,*,#285,.F.);
#375=ORIENTED_EDGE('',*,*,#286,.F.);
#376=ORIENTED_EDGE('',*,*,#269,.T.);
#377=ORIENTED_EDGE('',*,*,#287,.F.);
#378=ORIENTED_EDGE('',*,*,#288,.F.);
#379=ORIENTED_EDGE('',*,*,#284,.T.);
#380=ORIENTED_EDGE('',*,*,#289,.F.);
#381=ORIENTED_EDGE('',*,*,#275,.F.);
#382=ORIENTED_EDGE('',*,*,#265,.T.);
#383=ORIENTED_EDGE('',*,*,#262,.T.);
#384=ORIENTED_EDGE('',*,*,#286,.T.);
#385=ORIENTED_EDGE('',*,*,#290,.F.);
#386=ORIENTED_EDGE('',*,*,#291,.T.);
#387=ORIENTED_EDGE('',*,*,#292,.F.);
#388=ORIENTED_EDGE('',*,*,#244,.T.);
#389=ORIENTED_EDGE('',*,*,#241,.T.);
#390=ORIENTED_EDGE('',*,*,#238,.T.);
#391=ORIENTED_EDGE('',*,*,#247,.T.);
#392=ORIENTED_EDGE('',*,*,#256,.T.);
#393=ORIENTED_EDGE('',*,*,#253,.T.);
#394=ORIENTED_EDGE('',*,*,#250,.T.);
#395=ORIENTED_EDGE('',*,*,#259,.T.);
#396=ORIENTED_EDGE('',*,*,#283,.T.);
#397=ORIENTED_EDGE('',*,*,#293,.T.);
#398=ORIENTED_EDGE('',*,*,#277,.F.);
#399=ORIENTED_EDGE('',*,*,#294,.F.);
#400=ORIENTED_EDGE('',*,*,#285,.T.);
#401=ORIENTED_EDGE('',*,*,#295,.T.);
#402=ORIENTED_EDGE('',*,*,#279,.F.);
#403=ORIENTED_EDGE('',*,*,#296,.F.);
#404=ORIENTED_EDGE('',*,*,#288,.T.);
#405=ORIENTED_EDGE('',*,*,#297,.T.);
#406=ORIENTED_EDGE('',*,*,#273,.F.);
#407=ORIENTED_EDGE('',*,*,#295,.F.);
#408=ORIENTED_EDGE('',*,*,#268,.T.);
#409=ORIENTED_EDGE('',*,*,#274,.F.);
#410=ORIENTED_EDGE('',*,*,#297,.F.);
#411=ORIENTED_EDGE('',*,*,#287,.T.);
#412=ORIENTED_EDGE('',*,*,#289,.T.);
#413=ORIENTED_EDGE('',*,*,#294,.T.);
#414=ORIENTED_EDGE('',*,*,#271,.F.);
#415=ORIENTED_EDGE('',*,*,#276,.F.);
#416=ORIENTED_EDGE('',*,*,#292,.T.);
#417=ORIENTED_EDGE('',*,*,#298,.T.);
#418=ORIENTED_EDGE('',*,*,#280,.F.);
#419=ORIENTED_EDGE('',*,*,#293,.F.);
#420=ORIENTED_EDGE('',*,*,#291,.F.);
#421=ORIENTED_EDGE('',*,*,#299,.T.);
#422=ORIENTED_EDGE('',*,*,#281,.T.);
#423=ORIENTED_EDGE('',*,*,#298,.F.);
#424=ORIENTED_EDGE('',*,*,#290,.T.);
#425=ORIENTED_EDGE('',*,*,#296,.T.);
#426=ORIENTED_EDGE('',*,*,#282,.F.);
#427=ORIENTED_EDGE('',*,*,#299,.F.);
#428=PLANE('',#487);
#429=PLANE('',#491);
#430=PLANE('',#495);
#431=PLANE('',#499);
#432=PLANE('',#506);
#433=PLANE('',#507);
#434=PLANE('',#508);
#435=PLANE('',#509);
#436=PLANE('',#513);
#437=PLANE('',#517);
#438=PLANE('',#518);
#439=PLANE('',#519);
#440=PLANE('',#520);
#441=PLANE('',#521);
#442=PLANE('',#522);
#443=PLANE('',#523);
#444=PLANE('',#524);
#445=PLANE('',#525);
#446=PLANE('',#526);
#447=ADVANCED_FACE('',(#40),#428,.F.);
#448=ADVANCED_FACE('',(#41),#33,.F.);
#449=ADVANCED_FACE('',(#42),#429,.F.);
#450=ADVANCED_FACE('',(#43),#34,.F.);
#451=ADVANCED_FACE('',(#44),#430,.F.);
#452=ADVANCED_FACE('',(#45),#35,.F.);
#453=ADVANCED_FACE('',(#46),#431,.F.);
#454=ADVANCED_FACE('',(#47),#36,.F.);
#455=ADVANCED_FACE('',(#48),#37,.F.);
#456=ADVANCED_FACE('',(#49),#432,.F.);
#457=ADVANCED_FACE('',(#50),#433,.F.);
#458=ADVANCED_FACE('',(#51),#434,.F.);
#459=ADVANCED_FACE('',(#52),#435,.F.);
#460=ADVANCED_FACE('',(#53),#38,.F.);
#461=ADVANCED_FACE('',(#54,#15,#16),#436,.F.);
#462=ADVANCED_FACE('',(#55),#39,.T.);
#463=ADVANCED_FACE('',(#56),#437,.T.);
#464=ADVANCED_FACE('',(#57,#17,#18),#438,.T.);
#465=ADVANCED_FACE('',(#58),#439,.F.);
#466=ADVANCED_FACE('',(#59),#440,.F.);
#467=ADVANCED_FACE('',(#60),#441,.F.);
#468=ADVANCED_FACE('',(#61),#442,.F.);
#469=ADVANCED_FACE('',(#62),#443,.F.);
#470=ADVANCED_FACE('',(#63),#444,.F.);
#471=ADVANCED_FACE('',(#64),#445,.F.);
#472=ADVANCED_FACE('',(#65),#446,.F.);
#473=CLOSED_SHELL('',(#447,#448,#449,#450,#451,#452,#453,#454,#455,#456,
#457,#458,#459,#460,#461,#462,#463,#464,#465,#466,#467,#468,#469,#470,#471,
#472));
#474=DERIVED_UNIT_ELEMENT(#476,1.);
#475=DERIVED_UNIT_ELEMENT(#795,-3.);
#476=(
MASS_UNIT()
NAMED_UNIT(*)
SI_UNIT(.KILO.,.GRAM.)
);
#477=DERIVED_UNIT((#474,#475));
#478=MEASURE_REPRESENTATION_ITEM('density measure',
POSITIVE_RATIO_MEASURE(7850.),#477);
#479=PROPERTY_DEFINITION_REPRESENTATION(#484,#481);
#480=PROPERTY_DEFINITION_REPRESENTATION(#485,#482);
#481=REPRESENTATION('material name',(#483),#792);
#482=REPRESENTATION('density',(#478),#792);
#483=DESCRIPTIVE_REPRESENTATION_ITEM('Steel','Steel');
#484=PROPERTY_DEFINITION('material property','material name',#802);
#485=PROPERTY_DEFINITION('material property','density of part',#802);
#486=AXIS2_PLACEMENT_3D('',#659,#527,#528);
#487=AXIS2_PLACEMENT_3D('',#660,#529,#530);
#488=AXIS2_PLACEMENT_3D('',#669,#535,#536);
#489=AXIS2_PLACEMENT_3D('',#671,#537,#538);
#490=AXIS2_PLACEMENT_3D('',#673,#539,#540);
#491=AXIS2_PLACEMENT_3D('',#675,#542,#543);
#492=AXIS2_PLACEMENT_3D('',#681,#547,#548);
#493=AXIS2_PLACEMENT_3D('',#682,#549,#550);
#494=AXIS2_PLACEMENT_3D('',#683,#551,#552);
#495=AXIS2_PLACEMENT_3D('',#684,#553,#554);
#496=AXIS2_PLACEMENT_3D('',#693,#559,#560);
#497=AXIS2_PLACEMENT_3D('',#695,#561,#562);
#498=AXIS2_PLACEMENT_3D('',#697,#563,#564);
#499=AXIS2_PLACEMENT_3D('',#699,#566,#567);
#500=AXIS2_PLACEMENT_3D('',#705,#571,#572);
#501=AXIS2_PLACEMENT_3D('',#706,#573,#574);
#502=AXIS2_PLACEMENT_3D('',#707,#575,#576);
#503=AXIS2_PLACEMENT_3D('',#708,#577,#578);
#504=AXIS2_PLACEMENT_3D('',#711,#579,#580);
#505=AXIS2_PLACEMENT_3D('',#715,#582,#583);
#506=AXIS2_PLACEMENT_3D('',#717,#585,#586);
#507=AXIS2_PLACEMENT_3D('',#723,#590,#591);
#508=AXIS2_PLACEMENT_3D('',#729,#595,#596);
#509=AXIS2_PLACEMENT_3D('',#739,#602,#603);
#510=AXIS2_PLACEMENT_3D('',#743,#606,#607);
#511=AXIS2_PLACEMENT_3D('',#745,#608,#609);
#512=AXIS2_PLACEMENT_3D('',#748,#611,#612);
#513=AXIS2_PLACEMENT_3D('',#749,#613,#614);
#514=AXIS2_PLACEMENT_3D('',#755,#618,#619);
#515=AXIS2_PLACEMENT_3D('',#758,#620,#621);
#516=AXIS2_PLACEMENT_3D('',#762,#623,#624);
#517=AXIS2_PLACEMENT_3D('',#764,#626,#627);
#518=AXIS2_PLACEMENT_3D('',#769,#631,#632);
#519=AXIS2_PLACEMENT_3D('',#775,#636,#637);
#520=AXIS2_PLACEMENT_3D('',#778,#640,#641);
#521=AXIS2_PLACEMENT_3D('',#781,#644,#645);
#522=AXIS2_PLACEMENT_3D('',#783,#647,#648);
#523=AXIS2_PLACEMENT_3D('',#784,#649,#650);
#524=AXIS2_PLACEMENT_3D('',#785,#651,#652);
#525=AXIS2_PLACEMENT_3D('',#787,#654,#655);
#526=AXIS2_PLACEMENT_3D('',#789,#657,#658);
#527=DIRECTION('axis',(0.,0.,1.));
#528=DIRECTION('refdir',(1.,0.,0.));
#529=DIRECTION('center_axis',(1.,0.,1.14455981920119E-16));
#530=DIRECTION('ref_axis',(-1.14455981920119E-16,0.,1.));
#531=DIRECTION('',(1.14455981920119E-16,0.,-1.));
#532=DIRECTION('',(0.,-1.,0.));
#533=DIRECTION('',(-1.14455981920119E-16,0.,1.));
#534=DIRECTION('',(0.,-1.,0.));
#535=DIRECTION('center_axis',(0.,-1.,0.));
#536=DIRECTION('ref_axis',(1.,0.,0.));
#537=DIRECTION('center_axis',(0.,1.,0.));
#538=DIRECTION('ref_axis',(1.,0.,0.));
#539=DIRECTION('center_axis',(0.,-1.,0.));
#540=DIRECTION('ref_axis',(1.,0.,0.));
#541=DIRECTION('',(0.,-1.,0.));
#542=DIRECTION('center_axis',(-1.,0.,5.72279909600596E-17));
#543=DIRECTION('ref_axis',(-5.72279909600596E-17,0.,-1.));
#544=DIRECTION('',(5.72279909600596E-17,0.,1.));
#545=DIRECTION('',(-5.72279909600596E-17,0.,-1.));
#546=DIRECTION('',(0.,-1.,0.));
#547=DIRECTION('center_axis',(0.,-1.,0.));
#548=DIRECTION('ref_axis',(-1.,0.,-1.11022302462516E-15));
#549=DIRECTION('center_axis',(0.,1.,0.));
#550=DIRECTION('ref_axis',(-1.,0.,-1.11022302462516E-15));
#551=DIRECTION('center_axis',(0.,-1.,0.));
#552=DIRECTION('ref_axis',(-1.,0.,-1.11022302462516E-15));
#553=DIRECTION('center_axis',(1.,0.,0.));
#554=DIRECTION('ref_axis',(0.,0.,1.));
#555=DIRECTION('',(0.,0.,-1.));
#556=DIRECTION('',(0.,-1.,0.));
#557=DIRECTION('',(0.,0.,1.));
#558=DIRECTION('',(0.,-1.,0.));
#559=DIRECTION('center_axis',(0.,-1.,0.));
#560=DIRECTION('ref_axis',(1.,0.,0.));
#561=DIRECTION('center_axis',(0.,1.,0.));
#562=DIRECTION('ref_axis',(1.,0.,0.));
#563=DIRECTION('center_axis',(0.,-1.,0.));
#564=DIRECTION('ref_axis',(1.,0.,0.));
#565=DIRECTION('',(0.,-1.,0.));
#566=DIRECTION('center_axis',(-1.,0.,0.));
#567=DIRECTION('ref_axis',(0.,0.,-1.));
#568=DIRECTION('',(0.,0.,1.));
#569=DIRECTION('',(0.,0.,-1.));
#570=DIRECTION('',(0.,-1.,0.));
#571=DIRECTION('center_axis',(0.,-1.,0.));
#572=DIRECTION('ref_axis',(-1.,0.,0.));
#573=DIRECTION('center_axis',(0.,1.,0.));
#574=DIRECTION('ref_axis',(-1.,0.,0.));
#575=DIRECTION('center_axis',(0.,-1.,0.));
#576=DIRECTION('ref_axis',(-1.,0.,0.));
#577=DIRECTION('center_axis',(1.,0.,0.));
#578=DIRECTION('ref_axis',(0.,0.,-1.));
#579=DIRECTION('center_axis',(-1.,0.,0.));
#580=DIRECTION('ref_axis',(0.,0.,-1.));
#581=DIRECTION('',(1.,0.,0.));
#582=DIRECTION('center_axis',(1.,0.,0.));
#583=DIRECTION('ref_axis',(0.,0.,-1.));
#584=DIRECTION('',(1.,0.,0.));
#585=DIRECTION('center_axis',(0.,0.,-1.));
#586=DIRECTION('ref_axis',(0.,1.,0.));
#587=DIRECTION('',(0.,-1.,0.));
#588=DIRECTION('',(0.,1.,0.));
#589=DIRECTION('',(-1.,0.,0.));
#590=DIRECTION('center_axis',(0.,0.,1.));
#591=DIRECTION('ref_axis',(0.,-1.,0.));
#592=DIRECTION('',(0.,1.,0.));
#593=DIRECTION('',(1.,0.,0.));
#594=DIRECTION('',(0.,-1.,0.));
#595=DIRECTION('center_axis',(-1.,0.,0.));
#596=DIRECTION('ref_axis',(0.,1.,0.));
#597=DIRECTION('',(0.,0.,1.));
#598=DIRECTION('',(0.,1.,0.));
#599=DIRECTION('',(0.,0.,-1.));
#600=DIRECTION('',(0.,-1.,0.));
#601=DIRECTION('',(0.,0.,1.));
#602=DIRECTION('center_axis',(0.,1.,0.));
#603=DIRECTION('ref_axis',(0.,0.,1.));
#604=DIRECTION('',(0.,0.,1.));
#605=DIRECTION('',(1.,0.,0.));
#606=DIRECTION('center_axis',(0.,0.,-1.));
#607=DIRECTION('ref_axis',(-0.707106781186548,0.707106781186547,0.));
#608=DIRECTION('center_axis',(0.,0.,-1.));
#609=DIRECTION('ref_axis',(-0.707106781186548,0.707106781186547,0.));
#610=DIRECTION('',(0.,0.,1.));
#611=DIRECTION('center_axis',(0.,0.,1.));
#612=DIRECTION('ref_axis',(-0.707106781186548,0.707106781186547,0.));
#613=DIRECTION('center_axis',(0.,1.,0.));
#614=DIRECTION('ref_axis',(1.,0.,0.));
#615=DIRECTION('',(1.,0.,0.));
#616=DIRECTION('',(0.,0.,-1.));
#617=DIRECTION('',(-1.,0.,0.));
#618=DIRECTION('center_axis',(0.,0.,-1.));
#619=DIRECTION('ref_axis',(-0.707106781186548,0.707106781186547,0.));
#620=DIRECTION('center_axis',(0.,0.,-1.));
#621=DIRECTION('ref_axis',(-0.707106781186548,0.707106781186547,0.));
#622=DIRECTION('',(0.,0.,-1.));
#623=DIRECTION('center_axis',(0.,0.,1.));
#624=DIRECTION('ref_axis',(-0.707106781186548,0.707106781186547,0.));
#625=DIRECTION('',(0.,0.,1.));
#626=DIRECTION('center_axis',(-1.,0.,0.));
#627=DIRECTION('ref_axis',(0.,1.,0.));
#628=DIRECTION('',(0.,0.,1.));
#629=DIRECTION('',(0.,-1.,0.));
#630=DIRECTION('',(0.,1.,0.));
#631=DIRECTION('center_axis',(0.,1.,0.));
#632=DIRECTION('ref_axis',(1.,0.,0.));
#633=DIRECTION('',(-1.,0.,0.));
#634=DIRECTION('',(0.,0.,-1.));
#635=DIRECTION('',(1.,0.,0.));
#636=DIRECTION('center_axis',(0.,0.,1.));
#637=DIRECTION('ref_axis',(1.,0.,0.));
#638=DIRECTION('',(1.38777878078145E-16,-1.,0.));
#639=DIRECTION('',(1.,0.,0.));
#640=DIRECTION('center_axis',(0.,0.,-1.));
#641=DIRECTION('ref_axis',(-1.,0.,0.));
#642=DIRECTION('',(1.,0.,0.));
#643=DIRECTION('',(1.38777878078145E-16,-1.,0.));
#644=DIRECTION('center_axis',(0.,0.,-1.));
#645=DIRECTION('ref_axis',(-1.,0.,0.));
#646=DIRECTION('',(-1.,0.,0.));
#647=DIRECTION('center_axis',(0.,1.,0.));
#648=DIRECTION('ref_axis',(0.,0.,1.));
#649=DIRECTION('center_axis',(0.,0.,1.));
#650=DIRECTION('ref_axis',(1.,0.,0.));
#651=DIRECTION('center_axis',(0.,0.,1.));
#652=DIRECTION('ref_axis',(1.,0.,0.));
#653=DIRECTION('',(0.,-1.,0.));
#654=DIRECTION('center_axis',(-1.,0.,0.));
#655=DIRECTION('ref_axis',(0.,0.,1.));
#656=DIRECTION('',(0.,-1.,0.));
#657=DIRECTION('center_axis',(0.,0.,-1.));
#658=DIRECTION('ref_axis',(-1.,0.,0.));
#659=CARTESIAN_POINT('',(0.,0.,0.));
#660=CARTESIAN_POINT('Origin',(11.,43.5,-24.7));
#661=CARTESIAN_POINT('',(11.,41.5,-5.3));
#662=CARTESIAN_POINT('',(11.,41.5,-24.7));
#663=CARTESIAN_POINT('',(11.,41.5,-12.35));
#664=CARTESIAN_POINT('',(11.,43.5,-5.3));
#665=CARTESIAN_POINT('',(11.,43.5,-5.3));
#666=CARTESIAN_POINT('',(11.,43.5,-24.7));
#667=CARTESIAN_POINT('',(11.,43.5,-12.35));
#668=CARTESIAN_POINT('',(11.,43.5,-24.7));
#669=CARTESIAN_POINT('Origin',(10.,43.5,-24.7));
#670=CARTESIAN_POINT('',(9.,41.5,-24.7));
#671=CARTESIAN_POINT('Origin',(10.,41.5,-24.7));
#672=CARTESIAN_POINT('',(9.,43.5,-24.7));
#673=CARTESIAN_POINT('Origin',(10.,43.5,-24.7));
#674=CARTESIAN_POINT('',(9.,43.5,-24.7));
#675=CARTESIAN_POINT('Origin',(9.,43.5,-5.3));
#676=CARTESIAN_POINT('',(9.,41.5,-5.3));
#677=CARTESIAN_POINT('',(9.,41.5,-2.65));
#678=CARTESIAN_POINT('',(9.,43.5,-5.3));
#679=CARTESIAN_POINT('',(9.,43.5,-2.65));
#680=CARTESIAN_POINT('',(9.,43.5,-5.3));
#681=CARTESIAN_POINT('Origin',(10.,43.5,-5.3));
#682=CARTESIAN_POINT('Origin',(10.,41.5,-5.3));
#683=CARTESIAN_POINT('Origin',(10.,43.5,-5.3));
#684=CARTESIAN_POINT('Origin',(31.,43.5,-24.7));
#685=CARTESIAN_POINT('',(31.,41.5,-5.3));
#686=CARTESIAN_POINT('',(31.,41.5,-24.7));
#687=CARTESIAN_POINT('',(31.,41.5,-12.35));
#688=CARTESIAN_POINT('',(31.,43.5,-5.3));
#689=CARTESIAN_POINT('',(31.,43.5,-5.3));
#690=CARTESIAN_POINT('',(31.,43.5,-24.7));
#691=CARTESIAN_POINT('',(31.,43.5,-12.35));
#692=CARTESIAN_POINT('',(31.,43.5,-24.7));
#693=CARTESIAN_POINT('Origin',(30.,43.5,-24.7));
#694=CARTESIAN_POINT('',(29.,41.5,-24.7));
#695=CARTESIAN_POINT('Origin',(30.,41.5,-24.7));
#696=CARTESIAN_POINT('',(29.,43.5,-24.7));
#697=CARTESIAN_POINT('Origin',(30.,43.5,-24.7));
#698=CARTESIAN_POINT('',(29.,43.5,-24.7));
#699=CARTESIAN_POINT('Origin',(29.,43.5,-5.3));
#700=CARTESIAN_POINT('',(29.,41.5,-5.3));
#701=CARTESIAN_POINT('',(29.,41.5,-2.65));
#702=CARTESIAN_POINT('',(29.,43.5,-5.3));
#703=CARTESIAN_POINT('',(29.,43.5,-2.65));
#704=CARTESIAN_POINT('',(29.,43.5,-5.3));
#705=CARTESIAN_POINT('Origin',(30.,43.5,-5.3));
#706=CARTESIAN_POINT('Origin',(30.,41.5,-5.3));
#707=CARTESIAN_POINT('Origin',(30.,43.5,-5.3));
#708=CARTESIAN_POINT('Origin',(0.,33.,-15.));
#709=CARTESIAN_POINT('',(2.,33.,-14.));
#710=CARTESIAN_POINT('',(2.,33.,-16.));
#711=CARTESIAN_POINT('Origin',(2.,33.,-15.));
#712=CARTESIAN_POINT('',(0.,33.,-14.));
#713=CARTESIAN_POINT('',(0.,33.,-14.));
#714=CARTESIAN_POINT('',(0.,33.,-16.));
#715=CARTESIAN_POINT('Origin',(0.,33.,-15.));
#716=CARTESIAN_POINT('',(0.,33.,-16.));
#717=CARTESIAN_POINT('Origin',(0.,-5.,-16.));
#718=CARTESIAN_POINT('',(2.,-5.,-16.));
#719=CARTESIAN_POINT('',(2.,-2.5,-16.));
#720=CARTESIAN_POINT('',(0.,-5.,-16.));
#721=CARTESIAN_POINT('',(0.,-2.5,-16.));
#722=CARTESIAN_POINT('',(0.,-5.,-16.));
#723=CARTESIAN_POINT('Origin',(0.,33.,-14.));
#724=CARTESIAN_POINT('',(2.,-5.,-14.));
#725=CARTESIAN_POINT('',(2.,16.5,-14.));
#726=CARTESIAN_POINT('',(0.,-5.,-14.));
#727=CARTESIAN_POINT('',(0.,-5.,-14.));
#728=CARTESIAN_POINT('',(0.,16.5,-14.));
#729=CARTESIAN_POINT('Origin',(2.,0.,0.));
#730=CARTESIAN_POINT('',(2.,-5.,-30.));
#731=CARTESIAN_POINT('',(2.,-5.,-7.5));
#732=CARTESIAN_POINT('',(2.,39.5,-30.));
#733=CARTESIAN_POINT('',(2.,43.5,-30.));
#734=CARTESIAN_POINT('',(2.,39.5,0.));
#735=CARTESIAN_POINT('',(2.,39.5,0.));
#736=CARTESIAN_POINT('',(2.,-5.,0.));
#737=CARTESIAN_POINT('',(2.,43.5,0.));
#738=CARTESIAN_POINT('',(2.,-5.,-7.5));
#739=CARTESIAN_POINT('Origin',(0.,-5.,-15.));
#740=CARTESIAN_POINT('',(0.,-5.,-30.));
#741=CARTESIAN_POINT('',(0.,-5.,-7.5));
#742=CARTESIAN_POINT('',(0.,-5.,-30.));
#743=CARTESIAN_POINT('Origin',(4.,39.5,0.));
#744=CARTESIAN_POINT('',(4.,41.5,-30.));
#745=CARTESIAN_POINT('Origin',(4.,39.5,-30.));
#746=CARTESIAN_POINT('',(4.,41.5,0.));
#747=CARTESIAN_POINT('',(4.,41.5,0.));
#748=CARTESIAN_POINT('Origin',(4.,39.5,0.));
#749=CARTESIAN_POINT('Origin',(0.,41.5,0.));
#750=CARTESIAN_POINT('',(35.5,41.5,-30.));
#751=CARTESIAN_POINT('',(35.5,41.5,-30.));
#752=CARTESIAN_POINT('',(35.5,41.5,0.));
#753=CARTESIAN_POINT('',(35.5,41.5,0.));
#754=CARTESIAN_POINT('',(35.5,41.5,0.));
#755=CARTESIAN_POINT('Origin',(4.,39.5,0.));
#756=CARTESIAN_POINT('',(0.,39.5,-30.));
#757=CARTESIAN_POINT('',(4.,43.5,-30.));
#758=CARTESIAN_POINT('Origin',(4.,39.5,-30.));
#759=CARTESIAN_POINT('',(0.,39.5,0.));
#760=CARTESIAN_POINT('',(0.,39.5,0.));
#761=CARTESIAN_POINT('',(4.,43.5,0.));
#762=CARTESIAN_POINT('Origin',(4.,39.5,0.));
#763=CARTESIAN_POINT('',(4.,43.5,0.));
#764=CARTESIAN_POINT('Origin',(0.,0.,0.));
#765=CARTESIAN_POINT('',(0.,-5.,0.));
#766=CARTESIAN_POINT('',(0.,-5.,-7.5));
#767=CARTESIAN_POINT('',(0.,43.5,0.));
#768=CARTESIAN_POINT('',(0.,43.5,-30.));
#769=CARTESIAN_POINT('Origin',(0.,43.5,0.));
#770=CARTESIAN_POINT('',(35.5,43.5,0.));
#771=CARTESIAN_POINT('',(35.5,43.5,0.));
#772=CARTESIAN_POINT('',(35.5,43.5,-30.));
#773=CARTESIAN_POINT('',(35.5,43.5,0.));
#774=CARTESIAN_POINT('',(35.5,43.5,-30.));
#775=CARTESIAN_POINT('Origin',(1.17157287525381,42.3284271247462,-30.));
#776=CARTESIAN_POINT('',(4.,43.5,-30.));
#777=CARTESIAN_POINT('',(0.,39.5,-30.));
#778=CARTESIAN_POINT('Origin',(1.17157287525381,42.3284271247462,0.));
#779=CARTESIAN_POINT('',(0.,39.5,0.));
#780=CARTESIAN_POINT('',(4.,43.5,0.));
#781=CARTESIAN_POINT('Origin',(0.,19.75,0.));
#782=CARTESIAN_POINT('',(0.,-5.,0.));
#783=CARTESIAN_POINT('Origin',(0.,-5.,-15.));
#784=CARTESIAN_POINT('Origin',(0.,19.75,-30.));
#785=CARTESIAN_POINT('Origin',(19.75,43.5,-30.));
#786=CARTESIAN_POINT('',(35.5,43.5,-30.));
#787=CARTESIAN_POINT('Origin',(35.5,43.5,-15.));
#788=CARTESIAN_POINT('',(35.5,43.5,0.));
#789=CARTESIAN_POINT('Origin',(19.75,43.5,0.));
#790=UNCERTAINTY_MEASURE_WITH_UNIT(LENGTH_MEASURE(0.01),#794,
'DISTANCE_ACCURACY_VALUE',
'Maximum model space distance between geometric entities at asserted c
onnectivities');
#791=UNCERTAINTY_MEASURE_WITH_UNIT(LENGTH_MEASURE(0.01),#794,
'DISTANCE_ACCURACY_VALUE',
'Maximum model space distance between geometric entities at asserted c
onnectivities');
#792=(
GEOMETRIC_REPRESENTATION_CONTEXT(3)
GLOBAL_UNCERTAINTY_ASSIGNED_CONTEXT((#790))
GLOBAL_UNIT_ASSIGNED_CONTEXT((#794,#796,#797))
REPRESENTATION_CONTEXT('','3D')
);
#793=(
GEOMETRIC_REPRESENTATION_CONTEXT(3)
GLOBAL_UNCERTAINTY_ASSIGNED_CONTEXT((#791))
GLOBAL_UNIT_ASSIGNED_CONTEXT((#794,#796,#797))
REPRESENTATION_CONTEXT('','3D')
);
#794=(
LENGTH_UNIT()
NAMED_UNIT(*)
SI_UNIT(.MILLI.,.METRE.)
);
#795=(
LENGTH_UNIT()
NAMED_UNIT(*)
SI_UNIT($,.METRE.)
);
#796=(
NAMED_UNIT(*)
PLANE_ANGLE_UNIT()
SI_UNIT($,.RADIAN.)
);
#797=(
NAMED_UNIT(*)
SI_UNIT($,.STERADIAN.)
SOLID_ANGLE_UNIT()
);
#798=SHAPE_DEFINITION_REPRESENTATION(#799,#800);
#799=PRODUCT_DEFINITION_SHAPE('',$,#802);
#800=SHAPE_REPRESENTATION('',(#486),#792);
#801=PRODUCT_DEFINITION_CONTEXT('part definition',#806,'design');
#802=PRODUCT_DEFINITION('temporary piezo replacement',
'temporary piezo replacement v4',#803,#801);
#803=PRODUCT_DEFINITION_FORMATION('',$,#808);
#804=PRODUCT_RELATED_PRODUCT_CATEGORY('temporary piezo replacement v4',
'temporary piezo replacement v4',(#808));
#805=APPLICATION_PROTOCOL_DEFINITION('international standard',
'automotive_design',2009,#806);
#806=APPLICATION_CONTEXT(
'Core Data for Automotive Mechanical Design Process');
#807=PRODUCT_CONTEXT('part definition',#806,'mechanical');
#808=PRODUCT('temporary piezo replacement',
'temporary piezo replacement v4',$,(#807));
#809=PRESENTATION_STYLE_ASSIGNMENT((#810));
#810=SURFACE_STYLE_USAGE(.BOTH.,#811);
#811=SURFACE_SIDE_STYLE('',(#812));
#812=SURFACE_STYLE_FILL_AREA(#813);
#813=FILL_AREA_STYLE('Steel - Satin',(#814));
#814=FILL_AREA_STYLE_COLOUR('Steel - Satin',#815);
#815=COLOUR_RGB('Steel - Satin',0.627450980392157,0.627450980392157,0.627450980392157);
ENDSEC;
END-ISO-10303-21;
