ISO-10303-21;
HEADER;
/* Generated by software containing ST-Developer
 * from STEP Tools, Inc. (www.steptools.com) 
 */

FILE_DESCRIPTION(
/* description */ (''),
/* implementation_level */ '2;1');

FILE_NAME(
/* name */ 'T-Griff v2.step',
/* time_stamp */ '2024-06-17T13:30:20+02:00',
/* author */ (''),
/* organization */ (''),
/* preprocessor_version */ 'ST-DEVELOPER v20',
/* originating_system */ 'Autodesk Translation Framework v13.14.0.145',

/* authorisation */ '');

FILE_SCHEMA (('AUTOMOTIVE_DESIGN { 1 0 10303 214 3 1 1 }'));
ENDSEC;

DATA;
#10=MECHANICAL_DESIGN_GEOMETRIC_PRESENTATION_REPRESENTATION('',(#17),#471);
#11=ITEM_DEFINED_TRANSFORMATION($,$,#299,#315);
#12=(
REPRESENTATION_RELATIONSHIP($,$,#482,#481)
REPRESENTATION_RELATIONSHIP_WITH_TRANSFORMATION(#11)
SHAPE_REPRESENTATION_RELATIONSHIP()
);
#13=CONTEXT_DEPENDENT_SHAPE_REPRESENTATION(#12,#480);
#14=NEXT_ASSEMBLY_USAGE_OCCURRENCE('T-Griff:1','T-Griff:1','T-Griff:1',
#484,#485,'T-Griff:1');
#15=SHAPE_REPRESENTATION_RELATIONSHIP('SRR','None',#482,#16);
#16=ADVANCED_BREP_SHAPE_REPRESENTATION('',(#18),#470);
#17=STYLED_ITEM('',(#495),#18);
#18=MANIFOLD_SOLID_BREP('Body1',#285);
#19=FACE_BOUND('',#50,.T.);
#20=FACE_OUTER_BOUND('',#35,.T.);
#21=FACE_OUTER_BOUND('',#36,.T.);
#22=FACE_OUTER_BOUND('',#37,.T.);
#23=FACE_OUTER_BOUND('',#38,.T.);
#24=FACE_OUTER_BOUND('',#39,.T.);
#25=FACE_OUTER_BOUND('',#40,.T.);
#26=FACE_OUTER_BOUND('',#41,.T.);
#27=FACE_OUTER_BOUND('',#42,.T.);
#28=FACE_OUTER_BOUND('',#43,.T.);
#29=FACE_OUTER_BOUND('',#44,.T.);
#30=FACE_OUTER_BOUND('',#45,.T.);
#31=FACE_OUTER_BOUND('',#46,.T.);
#32=FACE_OUTER_BOUND('',#47,.T.);
#33=FACE_OUTER_BOUND('',#48,.T.);
#34=FACE_OUTER_BOUND('',#49,.T.);
#35=EDGE_LOOP('',(#183,#184,#185,#186));
#36=EDGE_LOOP('',(#187,#188,#189,#190));
#37=EDGE_LOOP('',(#191,#192,#193,#194));
#38=EDGE_LOOP('',(#195,#196,#197,#198));
#39=EDGE_LOOP('',(#199,#200,#201,#202));
#40=EDGE_LOOP('',(#203,#204,#205,#206));
#41=EDGE_LOOP('',(#207,#208,#209,#210));
#42=EDGE_LOOP('',(#211,#212,#213,#214));
#43=EDGE_LOOP('',(#215,#216,#217,#218));
#44=EDGE_LOOP('',(#219,#220,#221,#222));
#45=EDGE_LOOP('',(#223,#224,#225,#226,#227,#228,#229,#230));
#46=EDGE_LOOP('',(#231,#232,#233,#234));
#47=EDGE_LOOP('',(#235,#236,#237,#238,#239,#240,#241,#242));
#48=EDGE_LOOP('',(#243,#244,#245,#246));
#49=EDGE_LOOP('',(#247,#248,#249,#250));
#50=EDGE_LOOP('',(#251,#252,#253,#254));
#51=LINE('',#393,#87);
#52=LINE('',#395,#88);
#53=LINE('',#397,#89);
#54=LINE('',#398,#90);
#55=LINE('',#401,#91);
#56=LINE('',#403,#92);
#57=LINE('',#404,#93);
#58=LINE('',#407,#94);
#59=LINE('',#409,#95);
#60=LINE('',#410,#96);
#61=LINE('',#412,#97);
#62=LINE('',#413,#98);
#63=LINE('',#418,#99);
#64=LINE('',#420,#100);
#65=LINE('',#422,#101);
#66=LINE('',#423,#102);
#67=LINE('',#427,#103);
#68=LINE('',#429,#104);
#69=LINE('',#431,#105);
#70=LINE('',#432,#106);
#71=LINE('',#435,#107);
#72=LINE('',#437,#108);
#73=LINE('',#438,#109);
#74=LINE('',#441,#110);
#75=LINE('',#443,#111);
#76=LINE('',#444,#112);
#77=LINE('',#446,#113);
#78=LINE('',#447,#114);
#79=LINE('',#451,#115);
#80=LINE('',#452,#116);
#81=LINE('',#453,#117);
#82=LINE('',#456,#118);
#83=LINE('',#457,#119);
#84=LINE('',#460,#120);
#85=LINE('',#461,#121);
#86=LINE('',#463,#122);
#87=VECTOR('',#322,10.);
#88=VECTOR('',#323,10.);
#89=VECTOR('',#324,10.);
#90=VECTOR('',#325,10.);
#91=VECTOR('',#328,10.);
#92=VECTOR('',#329,10.);
#93=VECTOR('',#330,10.);
#94=VECTOR('',#333,10.);
#95=VECTOR('',#334,10.);
#96=VECTOR('',#335,10.);
#97=VECTOR('',#338,10.);
#98=VECTOR('',#339,10.);
#99=VECTOR('',#344,10.);
#100=VECTOR('',#345,10.);
#101=VECTOR('',#346,10.);
#102=VECTOR('',#347,10.);
#103=VECTOR('',#350,10.);
#104=VECTOR('',#351,10.);
#105=VECTOR('',#352,10.);
#106=VECTOR('',#353,10.);
#107=VECTOR('',#356,10.);
#108=VECTOR('',#357,10.);
#109=VECTOR('',#358,10.);
#110=VECTOR('',#361,10.);
#111=VECTOR('',#362,10.);
#112=VECTOR('',#363,10.);
#113=VECTOR('',#366,10.);
#114=VECTOR('',#367,10.);
#115=VECTOR('',#370,10.);
#116=VECTOR('',#371,10.);
#117=VECTOR('',#372,10.);
#118=VECTOR('',#375,10.);
#119=VECTOR('',#376,10.);
#120=VECTOR('',#379,10.);
#121=VECTOR('',#380,10.);
#122=VECTOR('',#383,10.);
#123=VERTEX_POINT('',#391);
#124=VERTEX_POINT('',#392);
#125=VERTEX_POINT('',#394);
#126=VERTEX_POINT('',#396);
#127=VERTEX_POINT('',#400);
#128=VERTEX_POINT('',#402);
#129=VERTEX_POINT('',#406);
#130=VERTEX_POINT('',#408);
#131=VERTEX_POINT('',#416);
#132=VERTEX_POINT('',#417);
#133=VERTEX_POINT('',#419);
#134=VERTEX_POINT('',#421);
#135=VERTEX_POINT('',#425);
#136=VERTEX_POINT('',#426);
#137=VERTEX_POINT('',#428);
#138=VERTEX_POINT('',#430);
#139=VERTEX_POINT('',#434);
#140=VERTEX_POINT('',#436);
#141=VERTEX_POINT('',#440);
#142=VERTEX_POINT('',#442);
#143=VERTEX_POINT('',#449);
#144=VERTEX_POINT('',#450);
#145=VERTEX_POINT('',#455);
#146=VERTEX_POINT('',#459);
#147=EDGE_CURVE('',#123,#124,#51,.T.);
#148=EDGE_CURVE('',#123,#125,#52,.T.);
#149=EDGE_CURVE('',#125,#126,#53,.T.);
#150=EDGE_CURVE('',#124,#126,#54,.T.);
#151=EDGE_CURVE('',#127,#123,#55,.T.);
#152=EDGE_CURVE('',#127,#128,#56,.T.);
#153=EDGE_CURVE('',#128,#125,#57,.T.);
#154=EDGE_CURVE('',#129,#127,#58,.T.);
#155=EDGE_CURVE('',#129,#130,#59,.T.);
#156=EDGE_CURVE('',#130,#128,#60,.T.);
#157=EDGE_CURVE('',#124,#129,#61,.T.);
#158=EDGE_CURVE('',#126,#130,#62,.T.);
#159=EDGE_CURVE('',#131,#132,#63,.T.);
#160=EDGE_CURVE('',#132,#133,#64,.T.);
#161=EDGE_CURVE('',#134,#133,#65,.T.);
#162=EDGE_CURVE('',#131,#134,#66,.T.);
#163=EDGE_CURVE('',#135,#136,#67,.T.);
#164=EDGE_CURVE('',#137,#136,#68,.T.);
#165=EDGE_CURVE('',#138,#137,#69,.T.);
#166=EDGE_CURVE('',#138,#135,#70,.T.);
#167=EDGE_CURVE('',#137,#139,#71,.T.);
#168=EDGE_CURVE('',#139,#140,#72,.T.);
#169=EDGE_CURVE('',#140,#138,#73,.T.);
#170=EDGE_CURVE('',#141,#139,#74,.T.);
#171=EDGE_CURVE('',#142,#141,#75,.T.);
#172=EDGE_CURVE('',#140,#142,#76,.T.);
#173=EDGE_CURVE('',#141,#134,#77,.T.);
#174=EDGE_CURVE('',#133,#142,#78,.T.);
#175=EDGE_CURVE('',#143,#144,#79,.T.);
#176=EDGE_CURVE('',#144,#131,#80,.T.);
#177=EDGE_CURVE('',#143,#136,#81,.T.);
#178=EDGE_CURVE('',#145,#143,#82,.T.);
#179=EDGE_CURVE('',#145,#135,#83,.T.);
#180=EDGE_CURVE('',#146,#145,#84,.T.);
#181=EDGE_CURVE('',#146,#132,#85,.T.);
#182=EDGE_CURVE('',#144,#146,#86,.T.);
#183=ORIENTED_EDGE('',*,*,#147,.F.);
#184=ORIENTED_EDGE('',*,*,#148,.T.);
#185=ORIENTED_EDGE('',*,*,#149,.T.);
#186=ORIENTED_EDGE('',*,*,#150,.F.);
#187=ORIENTED_EDGE('',*,*,#151,.F.);
#188=ORIENTED_EDGE('',*,*,#152,.T.);
#189=ORIENTED_EDGE('',*,*,#153,.T.);
#190=ORIENTED_EDGE('',*,*,#148,.F.);
#191=ORIENTED_EDGE('',*,*,#154,.F.);
#192=ORIENTED_EDGE('',*,*,#155,.T.);
#193=ORIENTED_EDGE('',*,*,#156,.T.);
#194=ORIENTED_EDGE('',*,*,#152,.F.);
#195=ORIENTED_EDGE('',*,*,#157,.F.);
#196=ORIENTED_EDGE('',*,*,#150,.T.);
#197=ORIENTED_EDGE('',*,*,#158,.T.);
#198=ORIENTED_EDGE('',*,*,#155,.F.);
#199=ORIENTED_EDGE('',*,*,#158,.F.);
#200=ORIENTED_EDGE('',*,*,#149,.F.);
#201=ORIENTED_EDGE('',*,*,#153,.F.);
#202=ORIENTED_EDGE('',*,*,#156,.F.);
#203=ORIENTED_EDGE('',*,*,#159,.T.);
#204=ORIENTED_EDGE('',*,*,#160,.T.);
#205=ORIENTED_EDGE('',*,*,#161,.F.);
#206=ORIENTED_EDGE('',*,*,#162,.F.);
#207=ORIENTED_EDGE('',*,*,#163,.T.);
#208=ORIENTED_EDGE('',*,*,#164,.F.);
#209=ORIENTED_EDGE('',*,*,#165,.F.);
#210=ORIENTED_EDGE('',*,*,#166,.T.);
#211=ORIENTED_EDGE('',*,*,#167,.T.);
#212=ORIENTED_EDGE('',*,*,#168,.T.);
#213=ORIENTED_EDGE('',*,*,#169,.T.);
#214=ORIENTED_EDGE('',*,*,#165,.T.);
#215=ORIENTED_EDGE('',*,*,#170,.F.);
#216=ORIENTED_EDGE('',*,*,#171,.F.);
#217=ORIENTED_EDGE('',*,*,#172,.F.);
#218=ORIENTED_EDGE('',*,*,#168,.F.);
#219=ORIENTED_EDGE('',*,*,#173,.T.);
#220=ORIENTED_EDGE('',*,*,#161,.T.);
#221=ORIENTED_EDGE('',*,*,#174,.T.);
#222=ORIENTED_EDGE('',*,*,#171,.T.);
#223=ORIENTED_EDGE('',*,*,#175,.T.);
#224=ORIENTED_EDGE('',*,*,#176,.T.);
#225=ORIENTED_EDGE('',*,*,#162,.T.);
#226=ORIENTED_EDGE('',*,*,#173,.F.);
#227=ORIENTED_EDGE('',*,*,#170,.T.);
#228=ORIENTED_EDGE('',*,*,#167,.F.);
#229=ORIENTED_EDGE('',*,*,#164,.T.);
#230=ORIENTED_EDGE('',*,*,#177,.F.);
#231=ORIENTED_EDGE('',*,*,#178,.T.);
#232=ORIENTED_EDGE('',*,*,#177,.T.);
#233=ORIENTED_EDGE('',*,*,#163,.F.);
#234=ORIENTED_EDGE('',*,*,#179,.F.);
#235=ORIENTED_EDGE('',*,*,#180,.T.);
#236=ORIENTED_EDGE('',*,*,#179,.T.);
#237=ORIENTED_EDGE('',*,*,#166,.F.);
#238=ORIENTED_EDGE('',*,*,#169,.F.);
#239=ORIENTED_EDGE('',*,*,#172,.T.);
#240=ORIENTED_EDGE('',*,*,#174,.F.);
#241=ORIENTED_EDGE('',*,*,#160,.F.);
#242=ORIENTED_EDGE('',*,*,#181,.F.);
#243=ORIENTED_EDGE('',*,*,#182,.T.);
#244=ORIENTED_EDGE('',*,*,#181,.T.);
#245=ORIENTED_EDGE('',*,*,#159,.F.);
#246=ORIENTED_EDGE('',*,*,#176,.F.);
#247=ORIENTED_EDGE('',*,*,#182,.F.);
#248=ORIENTED_EDGE('',*,*,#175,.F.);
#249=ORIENTED_EDGE('',*,*,#178,.F.);
#250=ORIENTED_EDGE('',*,*,#180,.F.);
#251=ORIENTED_EDGE('',*,*,#147,.T.);
#252=ORIENTED_EDGE('',*,*,#157,.T.);
#253=ORIENTED_EDGE('',*,*,#154,.T.);
#254=ORIENTED_EDGE('',*,*,#151,.T.);
#255=PLANE('',#300);
#256=PLANE('',#301);
#257=PLANE('',#302);
#258=PLANE('',#303);
#259=PLANE('',#304);
#260=PLANE('',#305);
#261=PLANE('',#306);
#262=PLANE('',#307);
#263=PLANE('',#308);
#264=PLANE('',#309);
#265=PLANE('',#310);
#266=PLANE('',#311);
#267=PLANE('',#312);
#268=PLANE('',#313);
#269=PLANE('',#314);
#270=ADVANCED_FACE('',(#20),#255,.F.);
#271=ADVANCED_FACE('',(#21),#256,.F.);
#272=ADVANCED_FACE('',(#22),#257,.F.);
#273=ADVANCED_FACE('',(#23),#258,.F.);
#274=ADVANCED_FACE('',(#24),#259,.F.);
#275=ADVANCED_FACE('',(#25),#260,.T.);
#276=ADVANCED_FACE('',(#26),#261,.T.);
#277=ADVANCED_FACE('',(#27),#262,.T.);
#278=ADVANCED_FACE('',(#28),#263,.T.);
#279=ADVANCED_FACE('',(#29),#264,.T.);
#280=ADVANCED_FACE('',(#30),#265,.T.);
#281=ADVANCED_FACE('',(#31),#266,.T.);
#282=ADVANCED_FACE('',(#32),#267,.T.);
#283=ADVANCED_FACE('',(#33),#268,.T.);
#284=ADVANCED_FACE('',(#34,#19),#269,.F.);
#285=CLOSED_SHELL('',(#270,#271,#272,#273,#274,#275,#276,#277,#278,#279,
#280,#281,#282,#283,#284));
#286=DERIVED_UNIT_ELEMENT(#288,1.);
#287=DERIVED_UNIT_ELEMENT(#473,-3.);
#288=(
MASS_UNIT()
NAMED_UNIT(*)
SI_UNIT(.KILO.,.GRAM.)
);
#289=DERIVED_UNIT((#286,#287));
#290=MEASURE_REPRESENTATION_ITEM('density measure',
POSITIVE_RATIO_MEASURE(7850.),#289);
#291=PROPERTY_DEFINITION_REPRESENTATION(#296,#293);
#292=PROPERTY_DEFINITION_REPRESENTATION(#297,#294);
#293=REPRESENTATION('material name',(#295),#470);
#294=REPRESENTATION('density',(#290),#470);
#295=DESCRIPTIVE_REPRESENTATION_ITEM('Steel','Steel');
#296=PROPERTY_DEFINITION('material property','material name',#485);
#297=PROPERTY_DEFINITION('material property','density of part',#485);
#298=AXIS2_PLACEMENT_3D('',#388,#316,#317);
#299=AXIS2_PLACEMENT_3D('',#389,#318,#319);
#300=AXIS2_PLACEMENT_3D('',#390,#320,#321);
#301=AXIS2_PLACEMENT_3D('',#399,#326,#327);
#302=AXIS2_PLACEMENT_3D('',#405,#331,#332);
#303=AXIS2_PLACEMENT_3D('',#411,#336,#337);
#304=AXIS2_PLACEMENT_3D('',#414,#340,#341);
#305=AXIS2_PLACEMENT_3D('',#415,#342,#343);
#306=AXIS2_PLACEMENT_3D('',#424,#348,#349);
#307=AXIS2_PLACEMENT_3D('',#433,#354,#355);
#308=AXIS2_PLACEMENT_3D('',#439,#359,#360);
#309=AXIS2_PLACEMENT_3D('',#445,#364,#365);
#310=AXIS2_PLACEMENT_3D('',#448,#368,#369);
#311=AXIS2_PLACEMENT_3D('',#454,#373,#374);
#312=AXIS2_PLACEMENT_3D('',#458,#377,#378);
#313=AXIS2_PLACEMENT_3D('',#462,#381,#382);
#314=AXIS2_PLACEMENT_3D('',#464,#384,#385);
#315=AXIS2_PLACEMENT_3D('',#465,#386,#387);
#316=DIRECTION('axis',(0.,0.,1.));
#317=DIRECTION('refdir',(1.,0.,0.));
#318=DIRECTION('axis',(0.,0.,1.));
#319=DIRECTION('refdir',(1.,0.,0.));
#320=DIRECTION('center_axis',(0.,0.,1.));
#321=DIRECTION('ref_axis',(1.,0.,0.));
#322=DIRECTION('',(1.,0.,0.));
#323=DIRECTION('',(0.,1.,0.));
#324=DIRECTION('',(1.,0.,0.));
#325=DIRECTION('',(0.,1.,0.));
#326=DIRECTION('center_axis',(-1.,0.,0.));
#327=DIRECTION('ref_axis',(0.,0.,1.));
#328=DIRECTION('',(0.,0.,1.));
#329=DIRECTION('',(0.,1.,0.));
#330=DIRECTION('',(0.,0.,1.));
#331=DIRECTION('center_axis',(0.,0.,-1.));
#332=DIRECTION('ref_axis',(-1.,0.,0.));
#333=DIRECTION('',(-1.,0.,0.));
#334=DIRECTION('',(0.,1.,0.));
#335=DIRECTION('',(-1.,0.,0.));
#336=DIRECTION('center_axis',(1.,0.,0.));
#337=DIRECTION('ref_axis',(0.,0.,-1.));
#338=DIRECTION('',(0.,0.,-1.));
#339=DIRECTION('',(0.,0.,-1.));
#340=DIRECTION('center_axis',(0.,1.,0.));
#341=DIRECTION('ref_axis',(0.,0.,1.));
#342=DIRECTION('center_axis',(0.,-1.,0.));
#343=DIRECTION('ref_axis',(0.,0.,-1.));
#344=DIRECTION('',(0.,0.,-1.));
#345=DIRECTION('',(1.,0.,0.));
#346=DIRECTION('',(0.,0.,-1.));
#347=DIRECTION('',(1.,0.,0.));
#348=DIRECTION('center_axis',(0.,-1.,0.));
#349=DIRECTION('ref_axis',(0.,0.,-1.));
#350=DIRECTION('',(0.,0.,1.));
#351=DIRECTION('',(1.,0.,0.));
#352=DIRECTION('',(0.,0.,1.));
#353=DIRECTION('',(1.,0.,0.));
#354=DIRECTION('center_axis',(-1.,0.,0.));
#355=DIRECTION('ref_axis',(0.,0.,1.));
#356=DIRECTION('',(0.,1.,0.));
#357=DIRECTION('',(0.,0.,-1.));
#358=DIRECTION('',(0.,-1.,0.));
#359=DIRECTION('center_axis',(0.,1.,0.));
#360=DIRECTION('ref_axis',(0.,0.,1.));
#361=DIRECTION('',(-1.,0.,0.));
#362=DIRECTION('',(0.,0.,1.));
#363=DIRECTION('',(1.,0.,0.));
#364=DIRECTION('center_axis',(1.,0.,0.));
#365=DIRECTION('ref_axis',(0.,0.,-1.));
#366=DIRECTION('',(0.,-1.,0.));
#367=DIRECTION('',(0.,1.,0.));
#368=DIRECTION('center_axis',(0.,0.,1.));
#369=DIRECTION('ref_axis',(1.,0.,0.));
#370=DIRECTION('',(1.,0.,0.));
#371=DIRECTION('',(0.,1.,0.));
#372=DIRECTION('',(0.,1.,0.));
#373=DIRECTION('center_axis',(-1.,0.,0.));
#374=DIRECTION('ref_axis',(0.,0.,1.));
#375=DIRECTION('',(0.,0.,1.));
#376=DIRECTION('',(0.,1.,0.));
#377=DIRECTION('center_axis',(0.,0.,-1.));
#378=DIRECTION('ref_axis',(-1.,0.,0.));
#379=DIRECTION('',(-1.,0.,0.));
#380=DIRECTION('',(0.,1.,0.));
#381=DIRECTION('center_axis',(1.,0.,0.));
#382=DIRECTION('ref_axis',(0.,0.,-1.));
#383=DIRECTION('',(0.,0.,-1.));
#384=DIRECTION('center_axis',(0.,1.,0.));
#385=DIRECTION('ref_axis',(1.,0.,0.));
#386=DIRECTION('',(0.,0.,1.));
#387=DIRECTION('',(1.,0.,0.));
#388=CARTESIAN_POINT('',(0.,0.,0.));
#389=CARTESIAN_POINT('',(0.,0.,0.));
#390=CARTESIAN_POINT('Origin',(-4.5,0.,4.5));
#391=CARTESIAN_POINT('',(-4.5,0.,4.5));
#392=CARTESIAN_POINT('',(4.5,0.,4.5));
#393=CARTESIAN_POINT('',(-2.25,0.,4.5));
#394=CARTESIAN_POINT('',(-4.5,10.,4.5));
#395=CARTESIAN_POINT('',(-4.5,0.,4.5));
#396=CARTESIAN_POINT('',(4.5,10.,4.5));
#397=CARTESIAN_POINT('',(-4.5,10.,4.5));
#398=CARTESIAN_POINT('',(4.5,0.,4.5));
#399=CARTESIAN_POINT('Origin',(-4.5,0.,-4.5));
#400=CARTESIAN_POINT('',(-4.5,0.,-4.5));
#401=CARTESIAN_POINT('',(-4.5,0.,-2.25));
#402=CARTESIAN_POINT('',(-4.5,10.,-4.5));
#403=CARTESIAN_POINT('',(-4.5,0.,-4.5));
#404=CARTESIAN_POINT('',(-4.5,10.,-4.5));
#405=CARTESIAN_POINT('Origin',(4.5,0.,-4.5));
#406=CARTESIAN_POINT('',(4.5,0.,-4.5));
#407=CARTESIAN_POINT('',(2.25,0.,-4.5));
#408=CARTESIAN_POINT('',(4.5,10.,-4.5));
#409=CARTESIAN_POINT('',(4.5,0.,-4.5));
#410=CARTESIAN_POINT('',(4.5,10.,-4.5));
#411=CARTESIAN_POINT('Origin',(4.5,0.,4.5));
#412=CARTESIAN_POINT('',(4.5,0.,2.25));
#413=CARTESIAN_POINT('',(4.5,10.,4.5));
#414=CARTESIAN_POINT('Origin',(0.,10.,0.));
#415=CARTESIAN_POINT('Origin',(1.11022302462516E-15,50.000000372529,9.50000014156103));
#416=CARTESIAN_POINT('',(9.5,50.,9.5));
#417=CARTESIAN_POINT('',(9.5,50.,-9.5));
#418=CARTESIAN_POINT('',(9.5,50.,9.5));
#419=CARTESIAN_POINT('',(25.,50.000000372529,-9.49999985843897));
#420=CARTESIAN_POINT('',(1.11022302462516E-15,50.000000372529,-9.49999985843897));
#421=CARTESIAN_POINT('',(25.,50.000000372529,9.50000014156103));
#422=CARTESIAN_POINT('',(25.,50.000000372529,9.50000014156103));
#423=CARTESIAN_POINT('',(1.11022302462516E-15,50.000000372529,9.50000014156103));
#424=CARTESIAN_POINT('Origin',(1.11022302462516E-15,50.000000372529,9.50000014156103));
#425=CARTESIAN_POINT('',(-9.5,50.,-9.5));
#426=CARTESIAN_POINT('',(-9.5,50.,9.5));
#427=CARTESIAN_POINT('',(-9.5,50.,-9.5));
#428=CARTESIAN_POINT('',(-25.,50.000000372529,9.50000014156103));
#429=CARTESIAN_POINT('',(1.11022302462516E-15,50.000000372529,9.50000014156103));
#430=CARTESIAN_POINT('',(-25.,50.000000372529,-9.49999985843897));
#431=CARTESIAN_POINT('',(-25.,50.000000372529,9.50000014156103));
#432=CARTESIAN_POINT('',(1.11022302462516E-15,50.000000372529,-9.49999985843897));
#433=CARTESIAN_POINT('Origin',(-25.,59.500000372529,1.41561030675419E-7));
#434=CARTESIAN_POINT('',(-25.,69.000000372529,9.50000014156103));
#435=CARTESIAN_POINT('',(-25.,69.000000372529,9.50000014156103));
#436=CARTESIAN_POINT('',(-25.,69.000000372529,-9.49999985843897));
#437=CARTESIAN_POINT('',(-25.,69.000000372529,-9.49999985843897));
#438=CARTESIAN_POINT('',(-25.,50.000000372529,-9.49999985843897));
#439=CARTESIAN_POINT('Origin',(1.11022302462516E-15,69.000000372529,-9.49999985843897));
#440=CARTESIAN_POINT('',(25.,69.000000372529,9.50000014156103));
#441=CARTESIAN_POINT('',(1.11022302462516E-15,69.000000372529,9.50000014156103));
#442=CARTESIAN_POINT('',(25.,69.000000372529,-9.49999985843897));
#443=CARTESIAN_POINT('',(25.,69.000000372529,-9.49999985843897));
#444=CARTESIAN_POINT('',(1.11022302462516E-15,69.000000372529,-9.49999985843897));
#445=CARTESIAN_POINT('Origin',(25.,59.500000372529,1.41561030675419E-7));
#446=CARTESIAN_POINT('',(25.,69.000000372529,9.50000014156103));
#447=CARTESIAN_POINT('',(25.,50.000000372529,-9.49999985843897));
#448=CARTESIAN_POINT('Origin',(-9.5,0.,9.5));
#449=CARTESIAN_POINT('',(-9.5,0.,9.5));
#450=CARTESIAN_POINT('',(9.5,0.,9.5));
#451=CARTESIAN_POINT('',(-9.5,0.,9.5));
#452=CARTESIAN_POINT('',(9.5,0.,9.5));
#453=CARTESIAN_POINT('',(-9.5,0.,9.5));
#454=CARTESIAN_POINT('Origin',(-9.5,0.,-9.5));
#455=CARTESIAN_POINT('',(-9.5,0.,-9.5));
#456=CARTESIAN_POINT('',(-9.5,0.,-9.5));
#457=CARTESIAN_POINT('',(-9.5,0.,-9.5));
#458=CARTESIAN_POINT('Origin',(9.5,0.,-9.5));
#459=CARTESIAN_POINT('',(9.5,0.,-9.5));
#460=CARTESIAN_POINT('',(9.5,0.,-9.5));
#461=CARTESIAN_POINT('',(9.5,0.,-9.5));
#462=CARTESIAN_POINT('Origin',(9.5,0.,9.5));
#463=CARTESIAN_POINT('',(9.5,0.,9.5));
#464=CARTESIAN_POINT('Origin',(0.,0.,0.));
#465=CARTESIAN_POINT('',(0.,0.,0.));
#466=UNCERTAINTY_MEASURE_WITH_UNIT(LENGTH_MEASURE(0.01),#472,
'DISTANCE_ACCURACY_VALUE',
'Maximum model space distance between geometric entities at asserted c
onnectivities');
#467=UNCERTAINTY_MEASURE_WITH_UNIT(LENGTH_MEASURE(0.01),#472,
'DISTANCE_ACCURACY_VALUE',
'Maximum model space distance between geometric entities at asserted c
onnectivities');
#468=UNCERTAINTY_MEASURE_WITH_UNIT(LENGTH_MEASURE(0.01),#472,
'DISTANCE_ACCURACY_VALUE',
'Maximum model space distance between geometric entities at asserted c
onnectivities');
#469=(
GEOMETRIC_REPRESENTATION_CONTEXT(3)
GLOBAL_UNCERTAINTY_ASSIGNED_CONTEXT((#466))
GLOBAL_UNIT_ASSIGNED_CONTEXT((#472,#474,#475))
REPRESENTATION_CONTEXT('','3D')
);
#470=(
GEOMETRIC_REPRESENTATION_CONTEXT(3)
GLOBAL_UNCERTAINTY_ASSIGNED_CONTEXT((#467))
GLOBAL_UNIT_ASSIGNED_CONTEXT((#472,#474,#475))
REPRESENTATION_CONTEXT('','3D')
);
#471=(
GEOMETRIC_REPRESENTATION_CONTEXT(3)
GLOBAL_UNCERTAINTY_ASSIGNED_CONTEXT((#468))
GLOBAL_UNIT_ASSIGNED_CONTEXT((#472,#474,#475))
REPRESENTATION_CONTEXT('','3D')
);
#472=(
LENGTH_UNIT()
NAMED_UNIT(*)
SI_UNIT(.MILLI.,.METRE.)
);
#473=(
LENGTH_UNIT()
NAMED_UNIT(*)
SI_UNIT($,.METRE.)
);
#474=(
NAMED_UNIT(*)
PLANE_ANGLE_UNIT()
SI_UNIT($,.RADIAN.)
);
#475=(
NAMED_UNIT(*)
SI_UNIT($,.STERADIAN.)
SOLID_ANGLE_UNIT()
);
#476=SHAPE_DEFINITION_REPRESENTATION(#478,#481);
#477=SHAPE_DEFINITION_REPRESENTATION(#479,#482);
#478=PRODUCT_DEFINITION_SHAPE('',$,#484);
#479=PRODUCT_DEFINITION_SHAPE('',$,#485);
#480=PRODUCT_DEFINITION_SHAPE($,$,#14);
#481=SHAPE_REPRESENTATION('',(#298,#315),#469);
#482=SHAPE_REPRESENTATION('',(#299),#470);
#483=PRODUCT_DEFINITION_CONTEXT('part definition',#491,'design');
#484=PRODUCT_DEFINITION('T-Griff','T-Griff v2',#486,#483);
#485=PRODUCT_DEFINITION('T-Griff_1','T-Griff',#487,#483);
#486=PRODUCT_DEFINITION_FORMATION('',$,#493);
#487=PRODUCT_DEFINITION_FORMATION('',$,#494);
#488=PRODUCT_RELATED_PRODUCT_CATEGORY('T-Griff v2','T-Griff v2',(#493));
#489=PRODUCT_RELATED_PRODUCT_CATEGORY('T-Griff','T-Griff',(#494));
#490=APPLICATION_PROTOCOL_DEFINITION('international standard',
'automotive_design',2009,#491);
#491=APPLICATION_CONTEXT(
'Core Data for Automotive Mechanical Design Process');
#492=PRODUCT_CONTEXT('part definition',#491,'mechanical');
#493=PRODUCT('T-Griff','T-Griff v2',$,(#492));
#494=PRODUCT('T-Griff_1','T-Griff',$,(#492));
#495=PRESENTATION_STYLE_ASSIGNMENT((#496));
#496=SURFACE_STYLE_USAGE(.BOTH.,#497);
#497=SURFACE_SIDE_STYLE('',(#498));
#498=SURFACE_STYLE_FILL_AREA(#499);
#499=FILL_AREA_STYLE('Steel - Satin',(#500));
#500=FILL_AREA_STYLE_COLOUR('Steel - Satin',#501);
#501=COLOUR_RGB('Steel - Satin',0.627450980392157,0.627450980392157,0.627450980392157);
ENDSEC;
END-ISO-10303-21;
