ISO-10303-21;
HEADER;
/* Generated by software containing ST-Developer
 * from STEP Tools, Inc. (www.steptools.com) 
 */

FILE_DESCRIPTION(
/* description */ (''),
/* implementation_level */ '2;1');

FILE_NAME(
/* name */ 'W3ES16-1I2 v1.step',
/* time_stamp */ '2024-06-17T13:34:41+02:00',
/* author */ (''),
/* organization */ (''),
/* preprocessor_version */ 'ST-DEVELOPER v20',
/* originating_system */ 'Autodesk Translation Framework v13.14.0.145',

/* authorisation */ '');

FILE_SCHEMA (('AUTOMOTIVE_DESIGN { 1 0 10303 214 3 1 1 }'));
ENDSEC;

DATA;
#10=MECHANICAL_DESIGN_GEOMETRIC_PRESENTATION_REPRESENTATION('',(#13),#588);
#11=SHAPE_REPRESENTATION_RELATIONSHIP('SRR','None',#595,#12);
#12=ADVANCED_BREP_SHAPE_REPRESENTATION('',(#14),#587);
#13=STYLED_ITEM('',(#605),#14);
#14=MANIFOLD_SOLID_BREP('Body1',#323);
#15=FACE_BOUND('',#73,.T.);
#16=FACE_BOUND('',#75,.T.);
#17=FACE_BOUND('',#77,.T.);
#18=FACE_BOUND('',#79,.T.);
#19=FACE_BOUND('',#81,.T.);
#20=FACE_BOUND('',#83,.T.);
#21=PLANE('',#373);
#22=PLANE('',#374);
#23=PLANE('',#375);
#24=PLANE('',#376);
#25=PLANE('',#377);
#26=PLANE('',#378);
#27=PLANE('',#379);
#28=PLANE('',#380);
#29=PLANE('',#381);
#30=PLANE('',#382);
#31=CYLINDRICAL_SURFACE('',#351,10.);
#32=CYLINDRICAL_SURFACE('',#353,13.);
#33=CYLINDRICAL_SURFACE('',#360,9.2);
#34=CYLINDRICAL_SURFACE('',#363,10.48);
#35=CYLINDRICAL_SURFACE('',#365,8.);
#36=CYLINDRICAL_SURFACE('',#368,8.6);
#37=CYLINDRICAL_SURFACE('',#371,15.);
#38=TOROIDAL_SURFACE('',#340,14.,1.);
#39=TOROIDAL_SURFACE('',#346,10.6,0.6);
#40=FACE_OUTER_BOUND('',#61,.T.);
#41=FACE_OUTER_BOUND('',#62,.T.);
#42=FACE_OUTER_BOUND('',#63,.T.);
#43=FACE_OUTER_BOUND('',#64,.T.);
#44=FACE_OUTER_BOUND('',#65,.T.);
#45=FACE_OUTER_BOUND('',#66,.T.);
#46=FACE_OUTER_BOUND('',#67,.T.);
#47=FACE_OUTER_BOUND('',#68,.T.);
#48=FACE_OUTER_BOUND('',#69,.T.);
#49=FACE_OUTER_BOUND('',#70,.T.);
#50=FACE_OUTER_BOUND('',#71,.T.);
#51=FACE_OUTER_BOUND('',#72,.T.);
#52=FACE_OUTER_BOUND('',#74,.T.);
#53=FACE_OUTER_BOUND('',#76,.T.);
#54=FACE_OUTER_BOUND('',#78,.T.);
#55=FACE_OUTER_BOUND('',#80,.T.);
#56=FACE_OUTER_BOUND('',#82,.T.);
#57=FACE_OUTER_BOUND('',#84,.T.);
#58=FACE_OUTER_BOUND('',#85,.T.);
#59=FACE_OUTER_BOUND('',#86,.T.);
#60=FACE_OUTER_BOUND('',#87,.T.);
#61=EDGE_LOOP('',(#216,#217,#218,#219));
#62=EDGE_LOOP('',(#220,#221,#222,#223,#224,#225));
#63=EDGE_LOOP('',(#226,#227,#228,#229));
#64=EDGE_LOOP('',(#230,#231,#232,#233,#234));
#65=EDGE_LOOP('',(#235,#236,#237,#238));
#66=EDGE_LOOP('',(#239,#240,#241,#242,#243,#244,#245,#246,#247,#248,#249,
#250));
#67=EDGE_LOOP('',(#251,#252,#253,#254));
#68=EDGE_LOOP('',(#255,#256,#257,#258));
#69=EDGE_LOOP('',(#259,#260,#261,#262));
#70=EDGE_LOOP('',(#263,#264,#265,#266));
#71=EDGE_LOOP('',(#267,#268,#269,#270,#271));
#72=EDGE_LOOP('',(#272));
#73=EDGE_LOOP('',(#273));
#74=EDGE_LOOP('',(#274));
#75=EDGE_LOOP('',(#275));
#76=EDGE_LOOP('',(#276));
#77=EDGE_LOOP('',(#277));
#78=EDGE_LOOP('',(#278));
#79=EDGE_LOOP('',(#279));
#80=EDGE_LOOP('',(#280));
#81=EDGE_LOOP('',(#281));
#82=EDGE_LOOP('',(#282,#283,#284,#285,#286));
#83=EDGE_LOOP('',(#287));
#84=EDGE_LOOP('',(#288,#289));
#85=EDGE_LOOP('',(#290,#291,#292,#293));
#86=EDGE_LOOP('',(#294,#295,#296,#297));
#87=EDGE_LOOP('',(#298,#299));
#88=LINE('',#499,#105);
#89=LINE('',#518,#106);
#90=LINE('',#521,#107);
#91=LINE('',#528,#108);
#92=LINE('',#532,#109);
#93=LINE('',#536,#110);
#94=LINE('',#541,#111);
#95=LINE('',#544,#112);
#96=LINE('',#549,#113);
#97=LINE('',#554,#114);
#98=LINE('',#559,#115);
#99=LINE('',#565,#116);
#100=LINE('',#570,#117);
#101=LINE('',#577,#118);
#102=LINE('',#578,#119);
#103=LINE('',#580,#120);
#104=LINE('',#583,#121);
#105=VECTOR('',#389,10.48);
#106=VECTOR('',#414,15.);
#107=VECTOR('',#417,10.);
#108=VECTOR('',#424,1000.);
#109=VECTOR('',#427,1000.);
#110=VECTOR('',#430,13.);
#111=VECTOR('',#435,1000.);
#112=VECTOR('',#438,1000.);
#113=VECTOR('',#443,9.2);
#114=VECTOR('',#450,10.48);
#115=VECTOR('',#455,8.);
#116=VECTOR('',#462,8.6);
#117=VECTOR('',#469,15.);
#118=VECTOR('',#482,1000.);
#119=VECTOR('',#483,1000.);
#120=VECTOR('',#486,1000.);
#121=VECTOR('',#491,1000.);
#122=CIRCLE('',#338,10.48);
#123=CIRCLE('',#339,9.47999999999997);
#124=CIRCLE('',#341,14.2588190451025);
#125=CIRCLE('',#342,14.2588190451025);
#126=CIRCLE('',#343,1.);
#127=CIRCLE('',#344,15.);
#128=CIRCLE('',#345,15.);
#129=CIRCLE('',#347,10.4447085729385);
#130=CIRCLE('',#348,0.6);
#131=CIRCLE('',#349,10.);
#132=CIRCLE('',#352,10.);
#133=CIRCLE('',#354,13.);
#134=CIRCLE('',#355,13.);
#135=CIRCLE('',#356,13.);
#136=CIRCLE('',#357,13.);
#137=CIRCLE('',#358,13.);
#138=CIRCLE('',#359,13.);
#139=CIRCLE('',#361,9.2);
#140=CIRCLE('',#362,9.2);
#141=CIRCLE('',#364,10.48);
#142=CIRCLE('',#366,8.);
#143=CIRCLE('',#367,8.);
#144=CIRCLE('',#369,8.6);
#145=CIRCLE('',#370,8.6);
#146=CIRCLE('',#372,15.);
#147=VERTEX_POINT('',#496);
#148=VERTEX_POINT('',#498);
#149=VERTEX_POINT('',#502);
#150=VERTEX_POINT('',#503);
#151=VERTEX_POINT('',#506);
#152=VERTEX_POINT('',#508);
#153=VERTEX_POINT('',#512);
#154=VERTEX_POINT('',#514);
#155=VERTEX_POINT('',#520);
#156=VERTEX_POINT('',#524);
#157=VERTEX_POINT('',#525);
#158=VERTEX_POINT('',#527);
#159=VERTEX_POINT('',#529);
#160=VERTEX_POINT('',#531);
#161=VERTEX_POINT('',#533);
#162=VERTEX_POINT('',#535);
#163=VERTEX_POINT('',#538);
#164=VERTEX_POINT('',#540);
#165=VERTEX_POINT('',#542);
#166=VERTEX_POINT('',#546);
#167=VERTEX_POINT('',#548);
#168=VERTEX_POINT('',#552);
#169=VERTEX_POINT('',#556);
#170=VERTEX_POINT('',#558);
#171=VERTEX_POINT('',#562);
#172=VERTEX_POINT('',#564);
#173=VERTEX_POINT('',#568);
#174=EDGE_CURVE('',#147,#147,#122,.T.);
#175=EDGE_CURVE('',#147,#148,#88,.T.);
#176=EDGE_CURVE('',#148,#148,#123,.T.);
#177=EDGE_CURVE('',#149,#150,#124,.T.);
#178=EDGE_CURVE('',#150,#149,#125,.T.);
#179=EDGE_CURVE('',#150,#151,#126,.T.);
#180=EDGE_CURVE('',#152,#151,#127,.T.);
#181=EDGE_CURVE('',#151,#152,#128,.T.);
#182=EDGE_CURVE('',#153,#153,#129,.T.);
#183=EDGE_CURVE('',#153,#154,#130,.T.);
#184=EDGE_CURVE('',#154,#154,#131,.T.);
#185=EDGE_CURVE('',#149,#153,#89,.T.);
#186=EDGE_CURVE('',#154,#155,#90,.T.);
#187=EDGE_CURVE('',#155,#155,#132,.T.);
#188=EDGE_CURVE('',#156,#157,#133,.T.);
#189=EDGE_CURVE('',#158,#156,#91,.T.);
#190=EDGE_CURVE('',#159,#158,#134,.T.);
#191=EDGE_CURVE('',#160,#159,#92,.T.);
#192=EDGE_CURVE('',#161,#160,#135,.T.);
#193=EDGE_CURVE('',#161,#162,#93,.T.);
#194=EDGE_CURVE('',#162,#162,#136,.T.);
#195=EDGE_CURVE('',#163,#161,#137,.T.);
#196=EDGE_CURVE('',#164,#163,#94,.T.);
#197=EDGE_CURVE('',#165,#164,#138,.T.);
#198=EDGE_CURVE('',#157,#165,#95,.T.);
#199=EDGE_CURVE('',#166,#166,#139,.T.);
#200=EDGE_CURVE('',#166,#167,#96,.T.);
#201=EDGE_CURVE('',#167,#167,#140,.T.);
#202=EDGE_CURVE('',#168,#168,#141,.T.);
#203=EDGE_CURVE('',#168,#147,#97,.T.);
#204=EDGE_CURVE('',#169,#169,#142,.T.);
#205=EDGE_CURVE('',#169,#170,#98,.T.);
#206=EDGE_CURVE('',#170,#170,#143,.T.);
#207=EDGE_CURVE('',#171,#171,#144,.T.);
#208=EDGE_CURVE('',#171,#172,#99,.T.);
#209=EDGE_CURVE('',#172,#172,#145,.T.);
#210=EDGE_CURVE('',#173,#173,#146,.T.);
#211=EDGE_CURVE('',#173,#152,#100,.T.);
#212=EDGE_CURVE('',#156,#160,#101,.T.);
#213=EDGE_CURVE('',#163,#157,#102,.T.);
#214=EDGE_CURVE('',#164,#165,#103,.T.);
#215=EDGE_CURVE('',#159,#158,#104,.T.);
#216=ORIENTED_EDGE('',*,*,#174,.F.);
#217=ORIENTED_EDGE('',*,*,#175,.T.);
#218=ORIENTED_EDGE('',*,*,#176,.F.);
#219=ORIENTED_EDGE('',*,*,#175,.F.);
#220=ORIENTED_EDGE('',*,*,#177,.F.);
#221=ORIENTED_EDGE('',*,*,#178,.F.);
#222=ORIENTED_EDGE('',*,*,#179,.T.);
#223=ORIENTED_EDGE('',*,*,#180,.F.);
#224=ORIENTED_EDGE('',*,*,#181,.F.);
#225=ORIENTED_EDGE('',*,*,#179,.F.);
#226=ORIENTED_EDGE('',*,*,#182,.F.);
#227=ORIENTED_EDGE('',*,*,#183,.T.);
#228=ORIENTED_EDGE('',*,*,#184,.F.);
#229=ORIENTED_EDGE('',*,*,#183,.F.);
#230=ORIENTED_EDGE('',*,*,#177,.T.);
#231=ORIENTED_EDGE('',*,*,#178,.T.);
#232=ORIENTED_EDGE('',*,*,#185,.T.);
#233=ORIENTED_EDGE('',*,*,#182,.T.);
#234=ORIENTED_EDGE('',*,*,#185,.F.);
#235=ORIENTED_EDGE('',*,*,#184,.T.);
#236=ORIENTED_EDGE('',*,*,#186,.T.);
#237=ORIENTED_EDGE('',*,*,#187,.T.);
#238=ORIENTED_EDGE('',*,*,#186,.F.);
#239=ORIENTED_EDGE('',*,*,#188,.F.);
#240=ORIENTED_EDGE('',*,*,#189,.F.);
#241=ORIENTED_EDGE('',*,*,#190,.F.);
#242=ORIENTED_EDGE('',*,*,#191,.F.);
#243=ORIENTED_EDGE('',*,*,#192,.F.);
#244=ORIENTED_EDGE('',*,*,#193,.T.);
#245=ORIENTED_EDGE('',*,*,#194,.T.);
#246=ORIENTED_EDGE('',*,*,#193,.F.);
#247=ORIENTED_EDGE('',*,*,#195,.F.);
#248=ORIENTED_EDGE('',*,*,#196,.F.);
#249=ORIENTED_EDGE('',*,*,#197,.F.);
#250=ORIENTED_EDGE('',*,*,#198,.F.);
#251=ORIENTED_EDGE('',*,*,#199,.F.);
#252=ORIENTED_EDGE('',*,*,#200,.T.);
#253=ORIENTED_EDGE('',*,*,#201,.T.);
#254=ORIENTED_EDGE('',*,*,#200,.F.);
#255=ORIENTED_EDGE('',*,*,#202,.F.);
#256=ORIENTED_EDGE('',*,*,#203,.T.);
#257=ORIENTED_EDGE('',*,*,#174,.T.);
#258=ORIENTED_EDGE('',*,*,#203,.F.);
#259=ORIENTED_EDGE('',*,*,#204,.F.);
#260=ORIENTED_EDGE('',*,*,#205,.T.);
#261=ORIENTED_EDGE('',*,*,#206,.T.);
#262=ORIENTED_EDGE('',*,*,#205,.F.);
#263=ORIENTED_EDGE('',*,*,#207,.F.);
#264=ORIENTED_EDGE('',*,*,#208,.T.);
#265=ORIENTED_EDGE('',*,*,#209,.T.);
#266=ORIENTED_EDGE('',*,*,#208,.F.);
#267=ORIENTED_EDGE('',*,*,#210,.F.);
#268=ORIENTED_EDGE('',*,*,#211,.T.);
#269=ORIENTED_EDGE('',*,*,#180,.T.);
#270=ORIENTED_EDGE('',*,*,#181,.T.);
#271=ORIENTED_EDGE('',*,*,#211,.F.);
#272=ORIENTED_EDGE('',*,*,#210,.T.);
#273=ORIENTED_EDGE('',*,*,#209,.F.);
#274=ORIENTED_EDGE('',*,*,#207,.T.);
#275=ORIENTED_EDGE('',*,*,#206,.F.);
#276=ORIENTED_EDGE('',*,*,#176,.T.);
#277=ORIENTED_EDGE('',*,*,#204,.T.);
#278=ORIENTED_EDGE('',*,*,#202,.T.);
#279=ORIENTED_EDGE('',*,*,#201,.F.);
#280=ORIENTED_EDGE('',*,*,#194,.F.);
#281=ORIENTED_EDGE('',*,*,#199,.T.);
#282=ORIENTED_EDGE('',*,*,#212,.F.);
#283=ORIENTED_EDGE('',*,*,#188,.T.);
#284=ORIENTED_EDGE('',*,*,#213,.F.);
#285=ORIENTED_EDGE('',*,*,#195,.T.);
#286=ORIENTED_EDGE('',*,*,#192,.T.);
#287=ORIENTED_EDGE('',*,*,#187,.F.);
#288=ORIENTED_EDGE('',*,*,#214,.T.);
#289=ORIENTED_EDGE('',*,*,#197,.T.);
#290=ORIENTED_EDGE('',*,*,#198,.T.);
#291=ORIENTED_EDGE('',*,*,#214,.F.);
#292=ORIENTED_EDGE('',*,*,#196,.T.);
#293=ORIENTED_EDGE('',*,*,#213,.T.);
#294=ORIENTED_EDGE('',*,*,#191,.T.);
#295=ORIENTED_EDGE('',*,*,#215,.T.);
#296=ORIENTED_EDGE('',*,*,#189,.T.);
#297=ORIENTED_EDGE('',*,*,#212,.T.);
#298=ORIENTED_EDGE('',*,*,#215,.F.);
#299=ORIENTED_EDGE('',*,*,#190,.T.);
#300=CONICAL_SURFACE('',#337,10.48,0.785398163397455);
#301=CONICAL_SURFACE('',#350,15.,1.30899693899575);
#302=ADVANCED_FACE('',(#40),#300,.T.);
#303=ADVANCED_FACE('',(#41),#38,.T.);
#304=ADVANCED_FACE('',(#42),#39,.F.);
#305=ADVANCED_FACE('',(#43),#301,.T.);
#306=ADVANCED_FACE('',(#44),#31,.T.);
#307=ADVANCED_FACE('',(#45),#32,.T.);
#308=ADVANCED_FACE('',(#46),#33,.T.);
#309=ADVANCED_FACE('',(#47),#34,.T.);
#310=ADVANCED_FACE('',(#48),#35,.F.);
#311=ADVANCED_FACE('',(#49),#36,.F.);
#312=ADVANCED_FACE('',(#50),#37,.T.);
#313=ADVANCED_FACE('',(#51,#15),#21,.T.);
#314=ADVANCED_FACE('',(#52,#16),#22,.T.);
#315=ADVANCED_FACE('',(#53,#17),#23,.T.);
#316=ADVANCED_FACE('',(#54,#18),#24,.T.);
#317=ADVANCED_FACE('',(#55,#19),#25,.T.);
#318=ADVANCED_FACE('',(#56,#20),#26,.T.);
#319=ADVANCED_FACE('',(#57),#27,.F.);
#320=ADVANCED_FACE('',(#58),#28,.F.);
#321=ADVANCED_FACE('',(#59),#29,.F.);
#322=ADVANCED_FACE('',(#60),#30,.F.);
#323=CLOSED_SHELL('',(#302,#303,#304,#305,#306,#307,#308,#309,#310,#311,
#312,#313,#314,#315,#316,#317,#318,#319,#320,#321,#322));
#324=DERIVED_UNIT_ELEMENT(#326,1.);
#325=DERIVED_UNIT_ELEMENT(#590,-3.);
#326=(
MASS_UNIT()
NAMED_UNIT(*)
SI_UNIT(.KILO.,.GRAM.)
);
#327=DERIVED_UNIT((#324,#325));
#328=MEASURE_REPRESENTATION_ITEM('density measure',
POSITIVE_RATIO_MEASURE(7850.),#327);
#329=PROPERTY_DEFINITION_REPRESENTATION(#334,#331);
#330=PROPERTY_DEFINITION_REPRESENTATION(#335,#332);
#331=REPRESENTATION('material name',(#333),#587);
#332=REPRESENTATION('density',(#328),#587);
#333=DESCRIPTIVE_REPRESENTATION_ITEM('Steel','Steel');
#334=PROPERTY_DEFINITION('material property','material name',#597);
#335=PROPERTY_DEFINITION('material property','density of part',#597);
#336=AXIS2_PLACEMENT_3D('',#494,#383,#384);
#337=AXIS2_PLACEMENT_3D('',#495,#385,#386);
#338=AXIS2_PLACEMENT_3D('',#497,#387,#388);
#339=AXIS2_PLACEMENT_3D('',#500,#390,#391);
#340=AXIS2_PLACEMENT_3D('',#501,#392,#393);
#341=AXIS2_PLACEMENT_3D('',#504,#394,#395);
#342=AXIS2_PLACEMENT_3D('',#505,#396,#397);
#343=AXIS2_PLACEMENT_3D('',#507,#398,#399);
#344=AXIS2_PLACEMENT_3D('',#509,#400,#401);
#345=AXIS2_PLACEMENT_3D('',#510,#402,#403);
#346=AXIS2_PLACEMENT_3D('',#511,#404,#405);
#347=AXIS2_PLACEMENT_3D('',#513,#406,#407);
#348=AXIS2_PLACEMENT_3D('',#515,#408,#409);
#349=AXIS2_PLACEMENT_3D('',#516,#410,#411);
#350=AXIS2_PLACEMENT_3D('',#517,#412,#413);
#351=AXIS2_PLACEMENT_3D('',#519,#415,#416);
#352=AXIS2_PLACEMENT_3D('',#522,#418,#419);
#353=AXIS2_PLACEMENT_3D('',#523,#420,#421);
#354=AXIS2_PLACEMENT_3D('',#526,#422,#423);
#355=AXIS2_PLACEMENT_3D('',#530,#425,#426);
#356=AXIS2_PLACEMENT_3D('',#534,#428,#429);
#357=AXIS2_PLACEMENT_3D('',#537,#431,#432);
#358=AXIS2_PLACEMENT_3D('',#539,#433,#434);
#359=AXIS2_PLACEMENT_3D('',#543,#436,#437);
#360=AXIS2_PLACEMENT_3D('',#545,#439,#440);
#361=AXIS2_PLACEMENT_3D('',#547,#441,#442);
#362=AXIS2_PLACEMENT_3D('',#550,#444,#445);
#363=AXIS2_PLACEMENT_3D('',#551,#446,#447);
#364=AXIS2_PLACEMENT_3D('',#553,#448,#449);
#365=AXIS2_PLACEMENT_3D('',#555,#451,#452);
#366=AXIS2_PLACEMENT_3D('',#557,#453,#454);
#367=AXIS2_PLACEMENT_3D('',#560,#456,#457);
#368=AXIS2_PLACEMENT_3D('',#561,#458,#459);
#369=AXIS2_PLACEMENT_3D('',#563,#460,#461);
#370=AXIS2_PLACEMENT_3D('',#566,#463,#464);
#371=AXIS2_PLACEMENT_3D('',#567,#465,#466);
#372=AXIS2_PLACEMENT_3D('',#569,#467,#468);
#373=AXIS2_PLACEMENT_3D('',#571,#470,#471);
#374=AXIS2_PLACEMENT_3D('',#572,#472,#473);
#375=AXIS2_PLACEMENT_3D('',#573,#474,#475);
#376=AXIS2_PLACEMENT_3D('',#574,#476,#477);
#377=AXIS2_PLACEMENT_3D('',#575,#478,#479);
#378=AXIS2_PLACEMENT_3D('',#576,#480,#481);
#379=AXIS2_PLACEMENT_3D('',#579,#484,#485);
#380=AXIS2_PLACEMENT_3D('',#581,#487,#488);
#381=AXIS2_PLACEMENT_3D('',#582,#489,#490);
#382=AXIS2_PLACEMENT_3D('',#584,#492,#493);
#383=DIRECTION('axis',(0.,0.,1.));
#384=DIRECTION('refdir',(1.,0.,0.));
#385=DIRECTION('center_axis',(0.,0.,1.));
#386=DIRECTION('ref_axis',(1.,0.,0.));
#387=DIRECTION('center_axis',(0.,0.,1.));
#388=DIRECTION('ref_axis',(-1.,0.,0.));
#389=DIRECTION('',(0.707106781186552,8.65956056235499E-17,-0.707106781186543));
#390=DIRECTION('center_axis',(0.,0.,-1.));
#391=DIRECTION('ref_axis',(-1.,0.,0.));
#392=DIRECTION('center_axis',(0.,0.,-1.));
#393=DIRECTION('ref_axis',(-1.,0.,0.));
#394=DIRECTION('center_axis',(0.,0.,-1.));
#395=DIRECTION('ref_axis',(-1.,0.,0.));
#396=DIRECTION('center_axis',(0.,0.,-1.));
#397=DIRECTION('ref_axis',(-1.,0.,0.));
#398=DIRECTION('center_axis',(-1.22464679914735E-16,-1.,0.));
#399=DIRECTION('ref_axis',(1.,-1.22464679914735E-16,0.));
#400=DIRECTION('center_axis',(0.,0.,1.));
#401=DIRECTION('ref_axis',(-1.,0.,0.));
#402=DIRECTION('center_axis',(0.,0.,1.));
#403=DIRECTION('ref_axis',(-1.,0.,0.));
#404=DIRECTION('center_axis',(0.,0.,1.));
#405=DIRECTION('ref_axis',(1.,0.,0.));
#406=DIRECTION('center_axis',(0.,0.,1.));
#407=DIRECTION('ref_axis',(1.,0.,0.));
#408=DIRECTION('center_axis',(-1.22464679914735E-16,1.,0.));
#409=DIRECTION('ref_axis',(-1.,-1.22464679914735E-16,0.));
#410=DIRECTION('center_axis',(0.,0.,-1.));
#411=DIRECTION('ref_axis',(1.,0.,0.));
#412=DIRECTION('center_axis',(0.,0.,1.));
#413=DIRECTION('ref_axis',(1.,0.,0.));
#414=DIRECTION('',(0.96592582628907,1.18291797137867E-16,-0.258819045102514));
#415=DIRECTION('center_axis',(0.,0.,1.));
#416=DIRECTION('ref_axis',(1.,0.,0.));
#417=DIRECTION('',(0.,0.,-1.));
#418=DIRECTION('center_axis',(0.,0.,1.));
#419=DIRECTION('ref_axis',(1.,0.,0.));
#420=DIRECTION('center_axis',(0.,0.,1.));
#421=DIRECTION('ref_axis',(1.,0.,0.));
#422=DIRECTION('center_axis',(0.,0.,1.));
#423=DIRECTION('ref_axis',(1.,0.,0.));
#424=DIRECTION('',(0.,0.,1.));
#425=DIRECTION('center_axis',(0.,0.,1.));
#426=DIRECTION('ref_axis',(-1.,0.,0.));
#427=DIRECTION('',(0.,0.,-1.));
#428=DIRECTION('center_axis',(0.,0.,1.));
#429=DIRECTION('ref_axis',(1.,0.,0.));
#430=DIRECTION('',(0.,0.,-1.));
#431=DIRECTION('center_axis',(0.,0.,1.));
#432=DIRECTION('ref_axis',(1.,0.,0.));
#433=DIRECTION('center_axis',(0.,0.,1.));
#434=DIRECTION('ref_axis',(1.,0.,0.));
#435=DIRECTION('',(0.,0.,1.));
#436=DIRECTION('center_axis',(0.,0.,1.));
#437=DIRECTION('ref_axis',(-1.,-1.77635683940025E-15,0.));
#438=DIRECTION('',(0.,0.,-1.));
#439=DIRECTION('center_axis',(0.,0.,1.));
#440=DIRECTION('ref_axis',(1.,0.,0.));
#441=DIRECTION('center_axis',(0.,0.,1.));
#442=DIRECTION('ref_axis',(1.,0.,0.));
#443=DIRECTION('',(0.,0.,-1.));
#444=DIRECTION('center_axis',(0.,0.,1.));
#445=DIRECTION('ref_axis',(1.,0.,0.));
#446=DIRECTION('center_axis',(0.,0.,1.));
#447=DIRECTION('ref_axis',(1.,0.,0.));
#448=DIRECTION('center_axis',(0.,0.,1.));
#449=DIRECTION('ref_axis',(1.,0.,0.));
#450=DIRECTION('',(0.,0.,-1.));
#451=DIRECTION('center_axis',(0.,0.,1.));
#452=DIRECTION('ref_axis',(1.,0.,0.));
#453=DIRECTION('center_axis',(0.,0.,1.));
#454=DIRECTION('ref_axis',(1.,0.,0.));
#455=DIRECTION('',(0.,0.,1.));
#456=DIRECTION('center_axis',(0.,0.,1.));
#457=DIRECTION('ref_axis',(1.,0.,0.));
#458=DIRECTION('center_axis',(0.,0.,1.));
#459=DIRECTION('ref_axis',(1.,0.,0.));
#460=DIRECTION('center_axis',(0.,0.,1.));
#461=DIRECTION('ref_axis',(1.,0.,0.));
#462=DIRECTION('',(0.,0.,1.));
#463=DIRECTION('center_axis',(0.,0.,1.));
#464=DIRECTION('ref_axis',(1.,0.,0.));
#465=DIRECTION('center_axis',(0.,0.,1.));
#466=DIRECTION('ref_axis',(1.,0.,0.));
#467=DIRECTION('center_axis',(0.,0.,1.));
#468=DIRECTION('ref_axis',(1.,0.,0.));
#469=DIRECTION('',(0.,0.,-1.));
#470=DIRECTION('center_axis',(0.,0.,1.));
#471=DIRECTION('ref_axis',(1.,0.,0.));
#472=DIRECTION('center_axis',(0.,0.,1.));
#473=DIRECTION('ref_axis',(1.,0.,0.));
#474=DIRECTION('center_axis',(0.,0.,-1.));
#475=DIRECTION('ref_axis',(-1.,0.,0.));
#476=DIRECTION('center_axis',(0.,0.,1.));
#477=DIRECTION('ref_axis',(1.,0.,0.));
#478=DIRECTION('center_axis',(0.,0.,-1.));
#479=DIRECTION('ref_axis',(-1.,0.,0.));
#480=DIRECTION('center_axis',(0.,0.,1.));
#481=DIRECTION('ref_axis',(1.,0.,0.));
#482=DIRECTION('',(-1.,0.,0.));
#483=DIRECTION('',(1.,0.,0.));
#484=DIRECTION('center_axis',(0.,0.,-1.));
#485=DIRECTION('ref_axis',(-1.,0.,0.));
#486=DIRECTION('',(1.,0.,0.));
#487=DIRECTION('center_axis',(0.,-1.,0.));
#488=DIRECTION('ref_axis',(0.,0.,-1.));
#489=DIRECTION('center_axis',(0.,1.,0.));
#490=DIRECTION('ref_axis',(0.,0.,1.));
#491=DIRECTION('',(1.,0.,0.));
#492=DIRECTION('center_axis',(0.,0.,-1.));
#493=DIRECTION('ref_axis',(-1.,0.,0.));
#494=CARTESIAN_POINT('',(0.,0.,0.));
#495=CARTESIAN_POINT('Origin',(0.,0.,-34.));
#496=CARTESIAN_POINT('',(-10.48,-1.28342984550643E-15,-34.));
#497=CARTESIAN_POINT('Origin',(0.,0.,-34.));
#498=CARTESIAN_POINT('',(-9.47999999999998,-1.16096516559169E-15,-35.));
#499=CARTESIAN_POINT('',(-10.48,-1.28342984550643E-15,-34.));
#500=CARTESIAN_POINT('Origin',(0.,0.,-35.));
#501=CARTESIAN_POINT('Origin',(0.,0.,-2.23267301202103));
#502=CARTESIAN_POINT('',(-14.2588190451025,1.74620171032061E-15,-3.1985988383101));
#503=CARTESIAN_POINT('',(14.2588190451025,-1.74620171032061E-15,-3.1985988383101));
#504=CARTESIAN_POINT('Origin',(0.,0.,-3.1985988383101));
#505=CARTESIAN_POINT('Origin',(0.,0.,-3.1985988383101));
#506=CARTESIAN_POINT('',(15.,-1.83697019872103E-15,-2.23267301202103));
#507=CARTESIAN_POINT('Origin',(14.,-1.71450551880629E-15,-2.23267301202103));
#508=CARTESIAN_POINT('',(-15.,1.83697019872103E-15,-2.23267301202103));
#509=CARTESIAN_POINT('Origin',(0.,0.,-2.23267301202103));
#510=CARTESIAN_POINT('Origin',(0.,0.,-2.23267301202103));
#511=CARTESIAN_POINT('Origin',(0.,0.,-4.80014215494296));
#512=CARTESIAN_POINT('',(-10.4447085729385,-1.2791078921876E-15,-4.22058665916952));
#513=CARTESIAN_POINT('Origin',(0.,0.,-4.22058665916952));
#514=CARTESIAN_POINT('',(-10.,-1.22464679914735E-15,-4.80014215494296));
#515=CARTESIAN_POINT('Origin',(-10.6,-1.29812560709619E-15,-4.80014215494296));
#516=CARTESIAN_POINT('Origin',(0.,0.,-4.80014215494296));
#517=CARTESIAN_POINT('Origin',(0.,0.,-3.));
#518=CARTESIAN_POINT('',(-15.,-1.83697019872103E-15,-3.));
#519=CARTESIAN_POINT('Origin',(0.,0.,0.));
#520=CARTESIAN_POINT('',(-10.,-1.22464679914735E-15,-10.));
#521=CARTESIAN_POINT('',(-10.,-1.22464679914735E-15,0.));
#522=CARTESIAN_POINT('Origin',(0.,0.,-10.));
#523=CARTESIAN_POINT('Origin',(0.,0.,0.));
#524=CARTESIAN_POINT('',(6.92820323027551,-11.,-10.));
#525=CARTESIAN_POINT('',(6.92820323027551,11.,-10.));
#526=CARTESIAN_POINT('Origin',(0.,0.,-10.));
#527=CARTESIAN_POINT('',(6.92820323027551,-11.,-18.));
#528=CARTESIAN_POINT('',(6.92820323027551,-11.,0.));
#529=CARTESIAN_POINT('',(-6.92820323027551,-11.,-18.));
#530=CARTESIAN_POINT('Origin',(0.,0.,-18.));
#531=CARTESIAN_POINT('',(-6.92820323027551,-11.,-10.));
#532=CARTESIAN_POINT('',(-6.92820323027551,-11.,0.));
#533=CARTESIAN_POINT('',(-13.,-1.59204083889156E-15,-10.));
#534=CARTESIAN_POINT('Origin',(0.,0.,-10.));
#535=CARTESIAN_POINT('',(-13.,-1.59204083889156E-15,-20.));
#536=CARTESIAN_POINT('',(-13.,-1.59204083889156E-15,0.));
#537=CARTESIAN_POINT('Origin',(0.,0.,-20.));
#538=CARTESIAN_POINT('',(-6.92820323027551,11.,-10.));
#539=CARTESIAN_POINT('Origin',(0.,0.,-10.));
#540=CARTESIAN_POINT('',(-6.92820323027551,11.,-18.));
#541=CARTESIAN_POINT('',(-6.92820323027551,11.,0.));
#542=CARTESIAN_POINT('',(6.92820323027551,11.,-18.));
#543=CARTESIAN_POINT('Origin',(0.,0.,-18.));
#544=CARTESIAN_POINT('',(6.92820323027551,11.,0.));
#545=CARTESIAN_POINT('Origin',(0.,0.,0.));
#546=CARTESIAN_POINT('',(-9.2,-1.12667505521556E-15,-20.));
#547=CARTESIAN_POINT('Origin',(0.,0.,-20.));
#548=CARTESIAN_POINT('',(-9.2,-1.12667505521556E-15,-24.));
#549=CARTESIAN_POINT('',(-9.2,-1.12667505521556E-15,0.));
#550=CARTESIAN_POINT('Origin',(0.,0.,-24.));
#551=CARTESIAN_POINT('Origin',(0.,0.,0.));
#552=CARTESIAN_POINT('',(-10.48,-1.28342984550643E-15,-24.));
#553=CARTESIAN_POINT('Origin',(0.,0.,-24.));
#554=CARTESIAN_POINT('',(-10.48,-1.28342984550643E-15,0.));
#555=CARTESIAN_POINT('Origin',(0.,0.,0.));
#556=CARTESIAN_POINT('',(-8.,-9.79717439317882E-16,-35.));
#557=CARTESIAN_POINT('Origin',(0.,0.,-35.));
#558=CARTESIAN_POINT('',(-8.,-9.79717439317882E-16,-2.5));
#559=CARTESIAN_POINT('',(-8.,-9.79717439317882E-16,0.));
#560=CARTESIAN_POINT('Origin',(0.,0.,-2.5));
#561=CARTESIAN_POINT('Origin',(0.,0.,0.));
#562=CARTESIAN_POINT('',(-8.6,-1.05319624726672E-15,-2.5));
#563=CARTESIAN_POINT('Origin',(0.,0.,-2.5));
#564=CARTESIAN_POINT('',(-8.6,-1.05319624726672E-15,7.83773951454306E-16));
#565=CARTESIAN_POINT('',(-8.6,-1.05319624726672E-15,0.));
#566=CARTESIAN_POINT('Origin',(0.,0.,7.83773951454306E-16));
#567=CARTESIAN_POINT('Origin',(0.,0.,0.));
#568=CARTESIAN_POINT('',(-15.,-1.83697019872103E-15,-3.85185988877447E-31));
#569=CARTESIAN_POINT('Origin',(0.,0.,-3.85185988877447E-31));
#570=CARTESIAN_POINT('',(-15.,-1.83697019872103E-15,0.));
#571=CARTESIAN_POINT('Origin',(0.,15.,3.91886975727153E-16));
#572=CARTESIAN_POINT('Origin',(0.,8.6,-2.5));
#573=CARTESIAN_POINT('Origin',(0.,8.,-35.));
#574=CARTESIAN_POINT('Origin',(0.,10.48,-24.));
#575=CARTESIAN_POINT('Origin',(0.,13.,-20.));
#576=CARTESIAN_POINT('Origin',(0.,10.,-10.));
#577=CARTESIAN_POINT('',(0.,-11.,-10.));
#578=CARTESIAN_POINT('',(0.,11.,-10.));
#579=CARTESIAN_POINT('Origin',(-15.,13.,-18.));
#580=CARTESIAN_POINT('',(-15.,11.,-18.));
#581=CARTESIAN_POINT('Origin',(-15.,11.,-10.));
#582=CARTESIAN_POINT('Origin',(-15.,-11.,-10.));
#583=CARTESIAN_POINT('',(-15.,-11.,-18.));
#584=CARTESIAN_POINT('Origin',(-15.,-13.,-18.));
#585=UNCERTAINTY_MEASURE_WITH_UNIT(LENGTH_MEASURE(0.01),#589,
'DISTANCE_ACCURACY_VALUE',
'Maximum model space distance between geometric entities at asserted c
onnectivities');
#586=UNCERTAINTY_MEASURE_WITH_UNIT(LENGTH_MEASURE(0.01),#589,
'DISTANCE_ACCURACY_VALUE',
'Maximum model space distance between geometric entities at asserted c
onnectivities');
#587=(
GEOMETRIC_REPRESENTATION_CONTEXT(3)
GLOBAL_UNCERTAINTY_ASSIGNED_CONTEXT((#585))
GLOBAL_UNIT_ASSIGNED_CONTEXT((#589,#591,#592))
REPRESENTATION_CONTEXT('','3D')
);
#588=(
GEOMETRIC_REPRESENTATION_CONTEXT(3)
GLOBAL_UNCERTAINTY_ASSIGNED_CONTEXT((#586))
GLOBAL_UNIT_ASSIGNED_CONTEXT((#589,#591,#592))
REPRESENTATION_CONTEXT('','3D')
);
#589=(
LENGTH_UNIT()
NAMED_UNIT(*)
SI_UNIT(.MILLI.,.METRE.)
);
#590=(
LENGTH_UNIT()
NAMED_UNIT(*)
SI_UNIT($,.METRE.)
);
#591=(
NAMED_UNIT(*)
PLANE_ANGLE_UNIT()
SI_UNIT($,.RADIAN.)
);
#592=(
NAMED_UNIT(*)
SI_UNIT($,.STERADIAN.)
SOLID_ANGLE_UNIT()
);
#593=SHAPE_DEFINITION_REPRESENTATION(#594,#595);
#594=PRODUCT_DEFINITION_SHAPE('',$,#597);
#595=SHAPE_REPRESENTATION('',(#336),#587);
#596=PRODUCT_DEFINITION_CONTEXT('part definition',#601,'design');
#597=PRODUCT_DEFINITION('W3ES16-1I2','W3ES16-1I2 v1',#598,#596);
#598=PRODUCT_DEFINITION_FORMATION('',$,#603);
#599=PRODUCT_RELATED_PRODUCT_CATEGORY('W3ES16-1I2 v1','W3ES16-1I2 v1',(#603));
#600=APPLICATION_PROTOCOL_DEFINITION('international standard',
'automotive_design',2009,#601);
#601=APPLICATION_CONTEXT(
'Core Data for Automotive Mechanical Design Process');
#602=PRODUCT_CONTEXT('part definition',#601,'mechanical');
#603=PRODUCT('W3ES16-1I2','W3ES16-1I2 v1',$,(#602));
#604=PRESENTATION_STYLE_ASSIGNMENT((#606));
#605=PRESENTATION_STYLE_ASSIGNMENT((#607));
#606=SURFACE_STYLE_USAGE(.BOTH.,#608);
#607=SURFACE_STYLE_USAGE(.BOTH.,#609);
#608=SURFACE_SIDE_STYLE('',(#610));
#609=SURFACE_SIDE_STYLE('',(#611));
#610=SURFACE_STYLE_FILL_AREA(#612);
#611=SURFACE_STYLE_FILL_AREA(#613);
#612=FILL_AREA_STYLE('Steel - Satin',(#614));
#613=FILL_AREA_STYLE('Opaque(160,170,191)',(#615));
#614=FILL_AREA_STYLE_COLOUR('Steel - Satin',#616);
#615=FILL_AREA_STYLE_COLOUR('Opaque(160,170,191)',#617);
#616=COLOUR_RGB('Steel - Satin',0.627450980392157,0.627450980392157,0.627450980392157);
#617=COLOUR_RGB('Opaque(160,170,191)',0.627450980392157,0.666666666666667,
0.749019607843137);
ENDSEC;
END-ISO-10303-21;
