ISO-10303-21;
HEADER;
/* Generated by software containing ST-Developer
 * from STEP Tools, Inc. (www.steptools.com) 
 */

FILE_DESCRIPTION(
/* description */ (''),
/* implementation_level */ '2;1');

FILE_NAME(
/* name */ 'W3ZR16 v1.step',
/* time_stamp */ '2024-06-17T13:35:01+02:00',
/* author */ (''),
/* organization */ (''),
/* preprocessor_version */ 'ST-DEVELOPER v20',
/* originating_system */ 'Autodesk Translation Framework v13.14.0.145',

/* authorisation */ '');

FILE_SCHEMA (('AUTOMOTIVE_DESIGN { 1 0 10303 214 3 1 1 }'));
ENDSEC;

DATA;
#10=MECHANICAL_DESIGN_GEOMETRIC_PRESENTATION_REPRESENTATION('',(#23,#24),
#410);
#11=ITEM_DEFINED_TRANSFORMATION($,$,#227,#263);
#12=ITEM_DEFINED_TRANSFORMATION($,$,#259,#264);
#13=(
REPRESENTATION_RELATIONSHIP($,$,#424,#423)
REPRESENTATION_RELATIONSHIP_WITH_TRANSFORMATION(#11)
SHAPE_REPRESENTATION_RELATIONSHIP()
);
#14=(
REPRESENTATION_RELATIONSHIP($,$,#425,#423)
REPRESENTATION_RELATIONSHIP_WITH_TRANSFORMATION(#12)
SHAPE_REPRESENTATION_RELATIONSHIP()
);
#15=CONTEXT_DEPENDENT_SHAPE_REPRESENTATION(#13,#421);
#16=CONTEXT_DEPENDENT_SHAPE_REPRESENTATION(#14,#422);
#17=NEXT_ASSEMBLY_USAGE_OCCURRENCE('W3ZR16:1','W3ZR16:1','W3ZR16:1',#427,
#428,'W3ZR16:1');
#18=NEXT_ASSEMBLY_USAGE_OCCURRENCE('O-Ring_18,5:1','O-Ring_18,5:1',
'O-Ring_18,5:1',#427,#429,'O-Ring_18,5:1');
#19=SHAPE_REPRESENTATION_RELATIONSHIP('SRR','None',#424,#21);
#20=SHAPE_REPRESENTATION_RELATIONSHIP('SRR','None',#425,#22);
#21=ADVANCED_BREP_SHAPE_REPRESENTATION('',(#25),#408);
#22=ADVANCED_BREP_SHAPE_REPRESENTATION('',(#26),#409);
#23=STYLED_ITEM('',(#443),#25);
#24=STYLED_ITEM('',(#444),#26);
#25=MANIFOLD_SOLID_BREP('Body1',#201);
#26=MANIFOLD_SOLID_BREP('Body1',#202);
#27=FACE_BOUND('',#66,.T.);
#28=FACE_BOUND('',#68,.T.);
#29=FACE_BOUND('',#70,.T.);
#30=FACE_BOUND('',#72,.T.);
#31=PLANE('',#255);
#32=PLANE('',#256);
#33=PLANE('',#257);
#34=PLANE('',#258);
#35=LINE('',#380,#38);
#36=LINE('',#386,#39);
#37=LINE('',#391,#40);
#38=VECTOR('',#311,8.5);
#39=VECTOR('',#318,8.);
#40=VECTOR('',#325,8.5);
#41=CYLINDRICAL_SURFACE('',#248,8.5);
#42=CYLINDRICAL_SURFACE('',#250,8.);
#43=CYLINDRICAL_SURFACE('',#253,8.5);
#44=FACE_OUTER_BOUND('',#57,.T.);
#45=FACE_OUTER_BOUND('',#58,.T.);
#46=FACE_OUTER_BOUND('',#59,.T.);
#47=FACE_OUTER_BOUND('',#60,.T.);
#48=FACE_OUTER_BOUND('',#61,.T.);
#49=FACE_OUTER_BOUND('',#62,.T.);
#50=FACE_OUTER_BOUND('',#63,.T.);
#51=FACE_OUTER_BOUND('',#64,.T.);
#52=FACE_OUTER_BOUND('',#65,.T.);
#53=FACE_OUTER_BOUND('',#67,.T.);
#54=FACE_OUTER_BOUND('',#69,.T.);
#55=FACE_OUTER_BOUND('',#71,.T.);
#56=FACE_OUTER_BOUND('',#73,.T.);
#57=EDGE_LOOP('',(#134,#135,#136,#137,#138));
#58=EDGE_LOOP('',(#139,#140,#141,#142,#143));
#59=EDGE_LOOP('',(#144,#145,#146,#147));
#60=EDGE_LOOP('',(#148,#149,#150,#151,#152));
#61=EDGE_LOOP('',(#153,#154,#155,#156));
#62=EDGE_LOOP('',(#157,#158,#159,#160));
#63=EDGE_LOOP('',(#161,#162,#163,#164));
#64=EDGE_LOOP('',(#165,#166,#167,#168,#169));
#65=EDGE_LOOP('',(#170));
#66=EDGE_LOOP('',(#171));
#67=EDGE_LOOP('',(#172));
#68=EDGE_LOOP('',(#173));
#69=EDGE_LOOP('',(#174));
#70=EDGE_LOOP('',(#175));
#71=EDGE_LOOP('',(#176));
#72=EDGE_LOOP('',(#177));
#73=EDGE_LOOP('',(#178,#179,#180,#181));
#74=CIRCLE('',#229,9.84621433380073);
#75=CIRCLE('',#230,2.5);
#76=CIRCLE('',#231,9.84621433380074);
#77=CIRCLE('',#232,9.84621433380074);
#78=CIRCLE('',#234,9.69391148050479);
#79=CIRCLE('',#235,0.2);
#80=CIRCLE('',#237,8.7);
#81=CIRCLE('',#238,0.2);
#82=CIRCLE('',#239,8.5);
#83=CIRCLE('',#241,8.7);
#84=CIRCLE('',#242,0.2);
#85=CIRCLE('',#243,8.5);
#86=CIRCLE('',#244,8.5);
#87=CIRCLE('',#246,9.69391148050479);
#88=CIRCLE('',#247,0.2);
#89=CIRCLE('',#249,8.5);
#90=CIRCLE('',#251,8.);
#91=CIRCLE('',#252,8.);
#92=CIRCLE('',#254,8.5);
#93=CIRCLE('',#261,2.5);
#94=CIRCLE('',#262,9.25);
#95=VERTEX_POINT('',#349);
#96=VERTEX_POINT('',#351);
#97=VERTEX_POINT('',#353);
#98=VERTEX_POINT('',#357);
#99=VERTEX_POINT('',#361);
#100=VERTEX_POINT('',#363);
#101=VERTEX_POINT('',#367);
#102=VERTEX_POINT('',#369);
#103=VERTEX_POINT('',#371);
#104=VERTEX_POINT('',#375);
#105=VERTEX_POINT('',#379);
#106=VERTEX_POINT('',#383);
#107=VERTEX_POINT('',#385);
#108=VERTEX_POINT('',#389);
#109=VERTEX_POINT('',#398);
#110=EDGE_CURVE('',#95,#95,#74,.T.);
#111=EDGE_CURVE('',#95,#96,#75,.T.);
#112=EDGE_CURVE('',#96,#97,#76,.T.);
#113=EDGE_CURVE('',#97,#96,#77,.T.);
#114=EDGE_CURVE('',#98,#98,#78,.T.);
#115=EDGE_CURVE('',#98,#97,#79,.T.);
#116=EDGE_CURVE('',#99,#99,#80,.T.);
#117=EDGE_CURVE('',#99,#100,#81,.T.);
#118=EDGE_CURVE('',#100,#100,#82,.T.);
#119=EDGE_CURVE('',#101,#101,#83,.T.);
#120=EDGE_CURVE('',#101,#102,#84,.T.);
#121=EDGE_CURVE('',#103,#102,#85,.T.);
#122=EDGE_CURVE('',#102,#103,#86,.T.);
#123=EDGE_CURVE('',#104,#104,#87,.T.);
#124=EDGE_CURVE('',#104,#95,#88,.T.);
#125=EDGE_CURVE('',#100,#105,#35,.T.);
#126=EDGE_CURVE('',#105,#105,#89,.T.);
#127=EDGE_CURVE('',#106,#106,#90,.T.);
#128=EDGE_CURVE('',#106,#107,#36,.T.);
#129=EDGE_CURVE('',#107,#107,#91,.T.);
#130=EDGE_CURVE('',#108,#108,#92,.T.);
#131=EDGE_CURVE('',#108,#103,#37,.T.);
#132=EDGE_CURVE('',#109,#109,#93,.T.);
#133=EDGE_CURVE('',#109,#109,#94,.T.);
#134=ORIENTED_EDGE('',*,*,#110,.T.);
#135=ORIENTED_EDGE('',*,*,#111,.T.);
#136=ORIENTED_EDGE('',*,*,#112,.T.);
#137=ORIENTED_EDGE('',*,*,#113,.T.);
#138=ORIENTED_EDGE('',*,*,#111,.F.);
#139=ORIENTED_EDGE('',*,*,#114,.F.);
#140=ORIENTED_EDGE('',*,*,#115,.T.);
#141=ORIENTED_EDGE('',*,*,#112,.F.);
#142=ORIENTED_EDGE('',*,*,#113,.F.);
#143=ORIENTED_EDGE('',*,*,#115,.F.);
#144=ORIENTED_EDGE('',*,*,#116,.F.);
#145=ORIENTED_EDGE('',*,*,#117,.T.);
#146=ORIENTED_EDGE('',*,*,#118,.F.);
#147=ORIENTED_EDGE('',*,*,#117,.F.);
#148=ORIENTED_EDGE('',*,*,#119,.F.);
#149=ORIENTED_EDGE('',*,*,#120,.T.);
#150=ORIENTED_EDGE('',*,*,#121,.F.);
#151=ORIENTED_EDGE('',*,*,#122,.F.);
#152=ORIENTED_EDGE('',*,*,#120,.F.);
#153=ORIENTED_EDGE('',*,*,#123,.F.);
#154=ORIENTED_EDGE('',*,*,#124,.T.);
#155=ORIENTED_EDGE('',*,*,#110,.F.);
#156=ORIENTED_EDGE('',*,*,#124,.F.);
#157=ORIENTED_EDGE('',*,*,#118,.T.);
#158=ORIENTED_EDGE('',*,*,#125,.T.);
#159=ORIENTED_EDGE('',*,*,#126,.T.);
#160=ORIENTED_EDGE('',*,*,#125,.F.);
#161=ORIENTED_EDGE('',*,*,#127,.F.);
#162=ORIENTED_EDGE('',*,*,#128,.T.);
#163=ORIENTED_EDGE('',*,*,#129,.T.);
#164=ORIENTED_EDGE('',*,*,#128,.F.);
#165=ORIENTED_EDGE('',*,*,#130,.F.);
#166=ORIENTED_EDGE('',*,*,#131,.T.);
#167=ORIENTED_EDGE('',*,*,#121,.T.);
#168=ORIENTED_EDGE('',*,*,#122,.T.);
#169=ORIENTED_EDGE('',*,*,#131,.F.);
#170=ORIENTED_EDGE('',*,*,#130,.T.);
#171=ORIENTED_EDGE('',*,*,#129,.F.);
#172=ORIENTED_EDGE('',*,*,#126,.F.);
#173=ORIENTED_EDGE('',*,*,#127,.T.);
#174=ORIENTED_EDGE('',*,*,#114,.T.);
#175=ORIENTED_EDGE('',*,*,#116,.T.);
#176=ORIENTED_EDGE('',*,*,#123,.T.);
#177=ORIENTED_EDGE('',*,*,#119,.T.);
#178=ORIENTED_EDGE('',*,*,#132,.F.);
#179=ORIENTED_EDGE('',*,*,#133,.T.);
#180=ORIENTED_EDGE('',*,*,#132,.T.);
#181=ORIENTED_EDGE('',*,*,#133,.F.);
#182=TOROIDAL_SURFACE('',#228,11.75,2.5);
#183=TOROIDAL_SURFACE('',#233,9.69391148050479,0.2);
#184=TOROIDAL_SURFACE('',#236,8.7,0.2);
#185=TOROIDAL_SURFACE('',#240,8.7,0.2);
#186=TOROIDAL_SURFACE('',#245,9.69391148050479,0.2);
#187=TOROIDAL_SURFACE('',#260,11.75,2.5);
#188=ADVANCED_FACE('',(#44),#182,.F.);
#189=ADVANCED_FACE('',(#45),#183,.T.);
#190=ADVANCED_FACE('',(#46),#184,.F.);
#191=ADVANCED_FACE('',(#47),#185,.F.);
#192=ADVANCED_FACE('',(#48),#186,.T.);
#193=ADVANCED_FACE('',(#49),#41,.T.);
#194=ADVANCED_FACE('',(#50),#42,.F.);
#195=ADVANCED_FACE('',(#51),#43,.T.);
#196=ADVANCED_FACE('',(#52,#27),#31,.F.);
#197=ADVANCED_FACE('',(#53,#28),#32,.F.);
#198=ADVANCED_FACE('',(#54,#29),#33,.F.);
#199=ADVANCED_FACE('',(#55,#30),#34,.F.);
#200=ADVANCED_FACE('',(#56),#187,.T.);
#201=CLOSED_SHELL('',(#188,#189,#190,#191,#192,#193,#194,#195,#196,#197,
#198,#199));
#202=CLOSED_SHELL('',(#200));
#203=DERIVED_UNIT_ELEMENT(#207,1.);
#204=DERIVED_UNIT_ELEMENT(#412,-3.);
#205=DERIVED_UNIT_ELEMENT(#207,1.);
#206=DERIVED_UNIT_ELEMENT(#412,-3.);
#207=(
MASS_UNIT()
NAMED_UNIT(*)
SI_UNIT(.KILO.,.GRAM.)
);
#208=DERIVED_UNIT((#203,#204));
#209=DERIVED_UNIT((#205,#206));
#210=MEASURE_REPRESENTATION_ITEM('density measure',
POSITIVE_RATIO_MEASURE(7850.),#208);
#211=MEASURE_REPRESENTATION_ITEM('density measure',
POSITIVE_RATIO_MEASURE(7850.),#209);
#212=PROPERTY_DEFINITION_REPRESENTATION(#222,#216);
#213=PROPERTY_DEFINITION_REPRESENTATION(#223,#217);
#214=PROPERTY_DEFINITION_REPRESENTATION(#224,#218);
#215=PROPERTY_DEFINITION_REPRESENTATION(#225,#219);
#216=REPRESENTATION('material name',(#220),#408);
#217=REPRESENTATION('density',(#210),#408);
#218=REPRESENTATION('material name',(#221),#409);
#219=REPRESENTATION('density',(#211),#409);
#220=DESCRIPTIVE_REPRESENTATION_ITEM('Steel','Steel');
#221=DESCRIPTIVE_REPRESENTATION_ITEM('Steel','Steel');
#222=PROPERTY_DEFINITION('material property','material name',#428);
#223=PROPERTY_DEFINITION('material property','density of part',#428);
#224=PROPERTY_DEFINITION('material property','material name',#429);
#225=PROPERTY_DEFINITION('material property','density of part',#429);
#226=AXIS2_PLACEMENT_3D('',#346,#265,#266);
#227=AXIS2_PLACEMENT_3D('',#347,#267,#268);
#228=AXIS2_PLACEMENT_3D('',#348,#269,#270);
#229=AXIS2_PLACEMENT_3D('',#350,#271,#272);
#230=AXIS2_PLACEMENT_3D('',#352,#273,#274);
#231=AXIS2_PLACEMENT_3D('',#354,#275,#276);
#232=AXIS2_PLACEMENT_3D('',#355,#277,#278);
#233=AXIS2_PLACEMENT_3D('',#356,#279,#280);
#234=AXIS2_PLACEMENT_3D('',#358,#281,#282);
#235=AXIS2_PLACEMENT_3D('',#359,#283,#284);
#236=AXIS2_PLACEMENT_3D('',#360,#285,#286);
#237=AXIS2_PLACEMENT_3D('',#362,#287,#288);
#238=AXIS2_PLACEMENT_3D('',#364,#289,#290);
#239=AXIS2_PLACEMENT_3D('',#365,#291,#292);
#240=AXIS2_PLACEMENT_3D('',#366,#293,#294);
#241=AXIS2_PLACEMENT_3D('',#368,#295,#296);
#242=AXIS2_PLACEMENT_3D('',#370,#297,#298);
#243=AXIS2_PLACEMENT_3D('',#372,#299,#300);
#244=AXIS2_PLACEMENT_3D('',#373,#301,#302);
#245=AXIS2_PLACEMENT_3D('',#374,#303,#304);
#246=AXIS2_PLACEMENT_3D('',#376,#305,#306);
#247=AXIS2_PLACEMENT_3D('',#377,#307,#308);
#248=AXIS2_PLACEMENT_3D('',#378,#309,#310);
#249=AXIS2_PLACEMENT_3D('',#381,#312,#313);
#250=AXIS2_PLACEMENT_3D('',#382,#314,#315);
#251=AXIS2_PLACEMENT_3D('',#384,#316,#317);
#252=AXIS2_PLACEMENT_3D('',#387,#319,#320);
#253=AXIS2_PLACEMENT_3D('',#388,#321,#322);
#254=AXIS2_PLACEMENT_3D('',#390,#323,#324);
#255=AXIS2_PLACEMENT_3D('',#392,#326,#327);
#256=AXIS2_PLACEMENT_3D('',#393,#328,#329);
#257=AXIS2_PLACEMENT_3D('',#394,#330,#331);
#258=AXIS2_PLACEMENT_3D('',#395,#332,#333);
#259=AXIS2_PLACEMENT_3D('',#396,#334,#335);
#260=AXIS2_PLACEMENT_3D('',#397,#336,#337);
#261=AXIS2_PLACEMENT_3D('',#399,#338,#339);
#262=AXIS2_PLACEMENT_3D('',#400,#340,#341);
#263=AXIS2_PLACEMENT_3D('',#401,#342,#343);
#264=AXIS2_PLACEMENT_3D('',#402,#344,#345);
#265=DIRECTION('axis',(0.,0.,1.));
#266=DIRECTION('refdir',(1.,0.,0.));
#267=DIRECTION('axis',(0.,0.,1.));
#268=DIRECTION('refdir',(1.,0.,0.));
#269=DIRECTION('center_axis',(0.,-1.,0.));
#270=DIRECTION('ref_axis',(0.,0.,-1.));
#271=DIRECTION('center_axis',(0.,1.,0.));
#272=DIRECTION('ref_axis',(0.,0.,1.));
#273=DIRECTION('center_axis',(1.,0.,1.22464679914735E-16));
#274=DIRECTION('ref_axis',(-1.22464679914735E-16,0.,1.));
#275=DIRECTION('center_axis',(0.,-1.,0.));
#276=DIRECTION('ref_axis',(0.,0.,-1.));
#277=DIRECTION('center_axis',(0.,-1.,0.));
#278=DIRECTION('ref_axis',(0.,0.,-1.));
#279=DIRECTION('center_axis',(0.,1.,0.));
#280=DIRECTION('ref_axis',(0.,0.,1.));
#281=DIRECTION('center_axis',(0.,1.,0.));
#282=DIRECTION('ref_axis',(0.,0.,-1.));
#283=DIRECTION('center_axis',(-1.,0.,1.22464679914735E-16));
#284=DIRECTION('ref_axis',(-1.22464679914735E-16,0.,-1.));
#285=DIRECTION('center_axis',(0.,-1.,0.));
#286=DIRECTION('ref_axis',(0.,0.,-1.));
#287=DIRECTION('center_axis',(0.,-1.,0.));
#288=DIRECTION('ref_axis',(0.,0.,-1.));
#289=DIRECTION('center_axis',(1.,0.,1.22464679914735E-16));
#290=DIRECTION('ref_axis',(-1.22464679914735E-16,0.,1.));
#291=DIRECTION('center_axis',(0.,1.,0.));
#292=DIRECTION('ref_axis',(0.,0.,-1.));
#293=DIRECTION('center_axis',(0.,1.,0.));
#294=DIRECTION('ref_axis',(0.,0.,1.));
#295=DIRECTION('center_axis',(0.,1.,0.));
#296=DIRECTION('ref_axis',(0.,0.,1.));
#297=DIRECTION('center_axis',(1.,0.,-1.22464679914735E-16));
#298=DIRECTION('ref_axis',(-1.22464679914735E-16,0.,-1.));
#299=DIRECTION('center_axis',(0.,-1.,0.));
#300=DIRECTION('ref_axis',(0.,0.,1.));
#301=DIRECTION('center_axis',(0.,-1.,0.));
#302=DIRECTION('ref_axis',(0.,0.,1.));
#303=DIRECTION('center_axis',(0.,-1.,0.));
#304=DIRECTION('ref_axis',(0.,0.,-1.));
#305=DIRECTION('center_axis',(0.,-1.,0.));
#306=DIRECTION('ref_axis',(0.,0.,1.));
#307=DIRECTION('center_axis',(-1.,0.,-1.22464679914735E-16));
#308=DIRECTION('ref_axis',(-1.22464679914735E-16,0.,1.));
#309=DIRECTION('center_axis',(0.,-1.,0.));
#310=DIRECTION('ref_axis',(0.,0.,-1.));
#311=DIRECTION('',(0.,1.,0.));
#312=DIRECTION('center_axis',(0.,-1.,0.));
#313=DIRECTION('ref_axis',(0.,0.,-1.));
#314=DIRECTION('center_axis',(0.,-1.,0.));
#315=DIRECTION('ref_axis',(0.,0.,-1.));
#316=DIRECTION('center_axis',(0.,-1.,0.));
#317=DIRECTION('ref_axis',(0.,0.,-1.));
#318=DIRECTION('',(0.,-1.,0.));
#319=DIRECTION('center_axis',(0.,-1.,0.));
#320=DIRECTION('ref_axis',(0.,0.,-1.));
#321=DIRECTION('center_axis',(0.,-1.,0.));
#322=DIRECTION('ref_axis',(0.,0.,-1.));
#323=DIRECTION('center_axis',(0.,-1.,0.));
#324=DIRECTION('ref_axis',(0.,0.,-1.));
#325=DIRECTION('',(0.,1.,0.));
#326=DIRECTION('center_axis',(0.,1.,0.));
#327=DIRECTION('ref_axis',(0.,0.,1.));
#328=DIRECTION('center_axis',(0.,-1.,0.));
#329=DIRECTION('ref_axis',(0.,0.,-1.));
#330=DIRECTION('center_axis',(0.,-1.,0.));
#331=DIRECTION('ref_axis',(0.,0.,-1.));
#332=DIRECTION('center_axis',(0.,1.,0.));
#333=DIRECTION('ref_axis',(0.,0.,1.));
#334=DIRECTION('axis',(0.,0.,1.));
#335=DIRECTION('refdir',(1.,0.,0.));
#336=DIRECTION('center_axis',(0.,-1.,0.));
#337=DIRECTION('ref_axis',(0.,0.,-1.));
#338=DIRECTION('center_axis',(-1.,0.,-1.22464679914735E-16));
#339=DIRECTION('ref_axis',(-1.22464679914735E-16,0.,1.));
#340=DIRECTION('center_axis',(0.,1.,0.));
#341=DIRECTION('ref_axis',(0.,0.,-1.));
#342=DIRECTION('',(0.,0.,1.));
#343=DIRECTION('',(1.,0.,0.));
#344=DIRECTION('',(0.,0.,1.));
#345=DIRECTION('',(1.,0.,0.));
#346=CARTESIAN_POINT('',(0.,0.,0.));
#347=CARTESIAN_POINT('',(0.,0.,0.));
#348=CARTESIAN_POINT('Origin',(0.,-1.43895998899814E-15,0.));
#349=CARTESIAN_POINT('',(1.20581348676079E-15,-1.62037037037037,9.84621433380073));
#350=CARTESIAN_POINT('Origin',(0.,-1.62037037037037,0.));
#351=CARTESIAN_POINT('',(1.20581348676079E-15,1.62037037037036,9.84621433380073));
#352=CARTESIAN_POINT('Origin',(-1.43895998899814E-15,-1.43895998899814E-15,
11.75));
#353=CARTESIAN_POINT('',(-1.20581348676079E-15,1.62037037037036,-9.84621433380074));
#354=CARTESIAN_POINT('Origin',(0.,1.62037037037036,0.));
#355=CARTESIAN_POINT('Origin',(0.,1.62037037037036,0.));
#356=CARTESIAN_POINT('Origin',(0.,1.75,0.));
#357=CARTESIAN_POINT('',(-1.1871617665818E-15,1.95,-9.69391148050479));
#358=CARTESIAN_POINT('Origin',(0.,1.95,0.));
#359=CARTESIAN_POINT('Origin',(-1.1871617665818E-15,1.75,-9.69391148050479));
#360=CARTESIAN_POINT('Origin',(0.,2.15,0.));
#361=CARTESIAN_POINT('',(-1.0654427152582E-15,1.95,8.7));
#362=CARTESIAN_POINT('Origin',(0.,1.95,0.));
#363=CARTESIAN_POINT('',(-1.04094977927525E-15,2.15,8.5));
#364=CARTESIAN_POINT('Origin',(-1.0654427152582E-15,2.15,8.7));
#365=CARTESIAN_POINT('Origin',(0.,2.15,0.));
#366=CARTESIAN_POINT('Origin',(0.,-2.15,0.));
#367=CARTESIAN_POINT('',(-1.0654427152582E-15,-1.95,-8.7));
#368=CARTESIAN_POINT('Origin',(0.,-1.95,0.));
#369=CARTESIAN_POINT('',(-1.04094977927525E-15,-2.15,-8.5));
#370=CARTESIAN_POINT('Origin',(-1.0654427152582E-15,-2.15,-8.7));
#371=CARTESIAN_POINT('',(1.04094977927525E-15,-2.15,8.5));
#372=CARTESIAN_POINT('Origin',(0.,-2.15,0.));
#373=CARTESIAN_POINT('Origin',(0.,-2.15,0.));
#374=CARTESIAN_POINT('Origin',(0.,-1.75,0.));
#375=CARTESIAN_POINT('',(-1.1871617665818E-15,-1.95,9.69391148050479));
#376=CARTESIAN_POINT('Origin',(0.,-1.95,0.));
#377=CARTESIAN_POINT('Origin',(-1.1871617665818E-15,-1.75,9.69391148050479));
#378=CARTESIAN_POINT('Origin',(0.,0.,0.));
#379=CARTESIAN_POINT('',(-1.04094977927525E-15,4.,8.5));
#380=CARTESIAN_POINT('',(-1.04094977927525E-15,0.,8.5));
#381=CARTESIAN_POINT('Origin',(0.,4.,0.));
#382=CARTESIAN_POINT('Origin',(0.,0.,0.));
#383=CARTESIAN_POINT('',(-9.79717439317883E-16,4.,8.));
#384=CARTESIAN_POINT('Origin',(0.,4.,0.));
#385=CARTESIAN_POINT('',(-9.79717439317883E-16,-4.,8.));
#386=CARTESIAN_POINT('',(-9.79717439317883E-16,0.,8.));
#387=CARTESIAN_POINT('Origin',(0.,-4.,0.));
#388=CARTESIAN_POINT('Origin',(0.,0.,0.));
#389=CARTESIAN_POINT('',(-1.04094977927525E-15,-4.,8.5));
#390=CARTESIAN_POINT('Origin',(0.,-4.,0.));
#391=CARTESIAN_POINT('',(-1.04094977927525E-15,0.,8.5));
#392=CARTESIAN_POINT('Origin',(-8.5,-4.,0.));
#393=CARTESIAN_POINT('Origin',(-8.5,4.,0.));
#394=CARTESIAN_POINT('Origin',(-10.1855512152838,1.95,0.));
#395=CARTESIAN_POINT('Origin',(-8.5,-1.95,0.));
#396=CARTESIAN_POINT('',(0.,0.,0.));
#397=CARTESIAN_POINT('Origin',(0.,-1.43895998899814E-15,0.));
#398=CARTESIAN_POINT('',(-1.1327982892113E-15,-1.74512168878498E-15,9.25));
#399=CARTESIAN_POINT('Origin',(-1.43895998899814E-15,-1.43895998899814E-15,
11.75));
#400=CARTESIAN_POINT('Origin',(0.,-1.1327982892113E-15,0.));
#401=CARTESIAN_POINT('',(0.,0.,0.));
#402=CARTESIAN_POINT('',(0.,0.,0.));
#403=UNCERTAINTY_MEASURE_WITH_UNIT(LENGTH_MEASURE(0.01),#411,
'DISTANCE_ACCURACY_VALUE',
'Maximum model space distance between geometric entities at asserted c
onnectivities');
#404=UNCERTAINTY_MEASURE_WITH_UNIT(LENGTH_MEASURE(0.01),#411,
'DISTANCE_ACCURACY_VALUE',
'Maximum model space distance between geometric entities at asserted c
onnectivities');
#405=UNCERTAINTY_MEASURE_WITH_UNIT(LENGTH_MEASURE(0.01),#411,
'DISTANCE_ACCURACY_VALUE',
'Maximum model space distance between geometric entities at asserted c
onnectivities');
#406=UNCERTAINTY_MEASURE_WITH_UNIT(LENGTH_MEASURE(0.01),#411,
'DISTANCE_ACCURACY_VALUE',
'Maximum model space distance between geometric entities at asserted c
onnectivities');
#407=(
GEOMETRIC_REPRESENTATION_CONTEXT(3)
GLOBAL_UNCERTAINTY_ASSIGNED_CONTEXT((#403))
GLOBAL_UNIT_ASSIGNED_CONTEXT((#411,#413,#414))
REPRESENTATION_CONTEXT('','3D')
);
#408=(
GEOMETRIC_REPRESENTATION_CONTEXT(3)
GLOBAL_UNCERTAINTY_ASSIGNED_CONTEXT((#404))
GLOBAL_UNIT_ASSIGNED_CONTEXT((#411,#413,#414))
REPRESENTATION_CONTEXT('','3D')
);
#409=(
GEOMETRIC_REPRESENTATION_CONTEXT(3)
GLOBAL_UNCERTAINTY_ASSIGNED_CONTEXT((#405))
GLOBAL_UNIT_ASSIGNED_CONTEXT((#411,#413,#414))
REPRESENTATION_CONTEXT('','3D')
);
#410=(
GEOMETRIC_REPRESENTATION_CONTEXT(3)
GLOBAL_UNCERTAINTY_ASSIGNED_CONTEXT((#406))
GLOBAL_UNIT_ASSIGNED_CONTEXT((#411,#413,#414))
REPRESENTATION_CONTEXT('','3D')
);
#411=(
LENGTH_UNIT()
NAMED_UNIT(*)
SI_UNIT(.MILLI.,.METRE.)
);
#412=(
LENGTH_UNIT()
NAMED_UNIT(*)
SI_UNIT($,.METRE.)
);
#413=(
NAMED_UNIT(*)
PLANE_ANGLE_UNIT()
SI_UNIT($,.RADIAN.)
);
#414=(
NAMED_UNIT(*)
SI_UNIT($,.STERADIAN.)
SOLID_ANGLE_UNIT()
);
#415=SHAPE_DEFINITION_REPRESENTATION(#418,#423);
#416=SHAPE_DEFINITION_REPRESENTATION(#419,#424);
#417=SHAPE_DEFINITION_REPRESENTATION(#420,#425);
#418=PRODUCT_DEFINITION_SHAPE('',$,#427);
#419=PRODUCT_DEFINITION_SHAPE('',$,#428);
#420=PRODUCT_DEFINITION_SHAPE('',$,#429);
#421=PRODUCT_DEFINITION_SHAPE($,$,#17);
#422=PRODUCT_DEFINITION_SHAPE($,$,#18);
#423=SHAPE_REPRESENTATION('',(#226,#263,#264),#407);
#424=SHAPE_REPRESENTATION('',(#227),#408);
#425=SHAPE_REPRESENTATION('',(#259),#409);
#426=PRODUCT_DEFINITION_CONTEXT('part definition',#437,'design');
#427=PRODUCT_DEFINITION('W3ZR16','W3ZR16 v1',#430,#426);
#428=PRODUCT_DEFINITION('W3ZR16_1','W3ZR16',#431,#426);
#429=PRODUCT_DEFINITION('O-Ring_18,5','O-Ring_18,5',#432,#426);
#430=PRODUCT_DEFINITION_FORMATION('',$,#439);
#431=PRODUCT_DEFINITION_FORMATION('',$,#440);
#432=PRODUCT_DEFINITION_FORMATION('',$,#441);
#433=PRODUCT_RELATED_PRODUCT_CATEGORY('W3ZR16 v1','W3ZR16 v1',(#439));
#434=PRODUCT_RELATED_PRODUCT_CATEGORY('W3ZR16','W3ZR16',(#440));
#435=PRODUCT_RELATED_PRODUCT_CATEGORY('O-Ring_18,5','O-Ring_18,5',(#441));
#436=APPLICATION_PROTOCOL_DEFINITION('international standard',
'automotive_design',2009,#437);
#437=APPLICATION_CONTEXT(
'Core Data for Automotive Mechanical Design Process');
#438=PRODUCT_CONTEXT('part definition',#437,'mechanical');
#439=PRODUCT('W3ZR16','W3ZR16 v1',$,(#438));
#440=PRODUCT('W3ZR16_1','W3ZR16',$,(#438));
#441=PRODUCT('O-Ring_18,5','O-Ring_18,5',$,(#438));
#442=PRESENTATION_STYLE_ASSIGNMENT((#445));
#443=PRESENTATION_STYLE_ASSIGNMENT((#446));
#444=PRESENTATION_STYLE_ASSIGNMENT((#447));
#445=SURFACE_STYLE_USAGE(.BOTH.,#448);
#446=SURFACE_STYLE_USAGE(.BOTH.,#449);
#447=SURFACE_STYLE_USAGE(.BOTH.,#450);
#448=SURFACE_SIDE_STYLE('',(#451));
#449=SURFACE_SIDE_STYLE('',(#452));
#450=SURFACE_SIDE_STYLE('',(#453));
#451=SURFACE_STYLE_FILL_AREA(#454);
#452=SURFACE_STYLE_FILL_AREA(#455);
#453=SURFACE_STYLE_FILL_AREA(#456);
#454=FILL_AREA_STYLE('Steel - Satin',(#457));
#455=FILL_AREA_STYLE('Opaque(160,170,191)',(#458));
#456=FILL_AREA_STYLE('Opaque(64,64,64)',(#459));
#457=FILL_AREA_STYLE_COLOUR('Steel - Satin',#460);
#458=FILL_AREA_STYLE_COLOUR('Opaque(160,170,191)',#461);
#459=FILL_AREA_STYLE_COLOUR('Opaque(64,64,64)',#462);
#460=COLOUR_RGB('Steel - Satin',0.627450980392157,0.627450980392157,0.627450980392157);
#461=COLOUR_RGB('Opaque(160,170,191)',0.627450980392157,0.666666666666667,
0.749019607843137);
#462=COLOUR_RGB('Opaque(64,64,64)',0.250980392156863,0.250980392156863,
0.250980392156863);
ENDSEC;
END-ISO-10303-21;
