ISO-10303-21;
HEADER;
/* Generated by software containing ST-Developer
 * from STEP Tools, Inc. (www.steptools.com) 
 */

FILE_DESCRIPTION(
/* description */ (''),
/* implementation_level */ '2;1');

FILE_NAME(
/* name */ 'lid v1.step',
/* time_stamp */ '2024-06-17T10:15:39+02:00',
/* author */ (''),
/* organization */ (''),
/* preprocessor_version */ 'ST-DEVELOPER v20',
/* originating_system */ 'Autodesk Translation Framework v13.14.0.145',

/* authorisation */ '');

FILE_SCHEMA (('AUTOMOTIVE_DESIGN { 1 0 10303 214 3 1 1 }'));
ENDSEC;

DATA;
#10=MECHANICAL_DESIGN_GEOMETRIC_PRESENTATION_REPRESENTATION('',(#13),#713);
#11=SHAPE_REPRESENTATION_RELATIONSHIP('SRR','None',#720,#12);
#12=ADVANCED_BREP_SHAPE_REPRESENTATION('',(#14),#712);
#13=STYLED_ITEM('',(#730),#14);
#14=MANIFOLD_SOLID_BREP('lid',#413);
#15=FACE_BOUND('',#74,.T.);
#16=FACE_BOUND('',#75,.T.);
#17=FACE_BOUND('',#76,.T.);
#18=FACE_BOUND('',#77,.T.);
#19=FACE_BOUND('',#78,.T.);
#20=FACE_BOUND('',#79,.T.);
#21=FACE_BOUND('',#80,.T.);
#22=FACE_BOUND('',#81,.T.);
#23=FACE_BOUND('',#82,.T.);
#24=FACE_BOUND('',#83,.T.);
#25=FACE_BOUND('',#91,.T.);
#26=FACE_BOUND('',#92,.T.);
#27=FACE_BOUND('',#93,.T.);
#28=FACE_BOUND('',#94,.T.);
#29=FACE_BOUND('',#95,.T.);
#30=FACE_BOUND('',#96,.T.);
#31=FACE_BOUND('',#97,.T.);
#32=FACE_BOUND('',#98,.T.);
#33=FACE_BOUND('',#99,.T.);
#34=FACE_BOUND('',#100,.T.);
#35=PLANE('',#460);
#36=PLANE('',#461);
#37=PLANE('',#467);
#38=PLANE('',#470);
#39=PLANE('',#473);
#40=PLANE('',#474);
#41=FACE_OUTER_BOUND('',#61,.T.);
#42=FACE_OUTER_BOUND('',#62,.T.);
#43=FACE_OUTER_BOUND('',#63,.T.);
#44=FACE_OUTER_BOUND('',#64,.T.);
#45=FACE_OUTER_BOUND('',#65,.T.);
#46=FACE_OUTER_BOUND('',#66,.T.);
#47=FACE_OUTER_BOUND('',#67,.T.);
#48=FACE_OUTER_BOUND('',#68,.T.);
#49=FACE_OUTER_BOUND('',#69,.T.);
#50=FACE_OUTER_BOUND('',#70,.T.);
#51=FACE_OUTER_BOUND('',#71,.T.);
#52=FACE_OUTER_BOUND('',#72,.T.);
#53=FACE_OUTER_BOUND('',#73,.T.);
#54=FACE_OUTER_BOUND('',#84,.T.);
#55=FACE_OUTER_BOUND('',#85,.T.);
#56=FACE_OUTER_BOUND('',#86,.T.);
#57=FACE_OUTER_BOUND('',#87,.T.);
#58=FACE_OUTER_BOUND('',#88,.T.);
#59=FACE_OUTER_BOUND('',#89,.T.);
#60=FACE_OUTER_BOUND('',#90,.T.);
#61=EDGE_LOOP('',(#271,#272,#273,#274));
#62=EDGE_LOOP('',(#275,#276,#277,#278));
#63=EDGE_LOOP('',(#279,#280,#281,#282));
#64=EDGE_LOOP('',(#283,#284,#285,#286));
#65=EDGE_LOOP('',(#287,#288,#289,#290));
#66=EDGE_LOOP('',(#291,#292,#293,#294));
#67=EDGE_LOOP('',(#295,#296,#297,#298));
#68=EDGE_LOOP('',(#299,#300,#301,#302));
#69=EDGE_LOOP('',(#303,#304,#305,#306));
#70=EDGE_LOOP('',(#307,#308,#309,#310));
#71=EDGE_LOOP('',(#311,#312,#313,#314));
#72=EDGE_LOOP('',(#315,#316,#317,#318));
#73=EDGE_LOOP('',(#319,#320,#321,#322,#323,#324,#325,#326));
#74=EDGE_LOOP('',(#327));
#75=EDGE_LOOP('',(#328));
#76=EDGE_LOOP('',(#329));
#77=EDGE_LOOP('',(#330));
#78=EDGE_LOOP('',(#331));
#79=EDGE_LOOP('',(#332));
#80=EDGE_LOOP('',(#333));
#81=EDGE_LOOP('',(#334));
#82=EDGE_LOOP('',(#335));
#83=EDGE_LOOP('',(#336));
#84=EDGE_LOOP('',(#337,#338,#339,#340));
#85=EDGE_LOOP('',(#341,#342,#343,#344));
#86=EDGE_LOOP('',(#345,#346,#347,#348));
#87=EDGE_LOOP('',(#349,#350,#351,#352));
#88=EDGE_LOOP('',(#353,#354,#355,#356));
#89=EDGE_LOOP('',(#357,#358,#359,#360));
#90=EDGE_LOOP('',(#361,#362,#363,#364,#365,#366,#367,#368));
#91=EDGE_LOOP('',(#369));
#92=EDGE_LOOP('',(#370));
#93=EDGE_LOOP('',(#371));
#94=EDGE_LOOP('',(#372));
#95=EDGE_LOOP('',(#373));
#96=EDGE_LOOP('',(#374));
#97=EDGE_LOOP('',(#375));
#98=EDGE_LOOP('',(#376));
#99=EDGE_LOOP('',(#377));
#100=EDGE_LOOP('',(#378));
#101=LINE('',#604,#127);
#102=LINE('',#610,#128);
#103=LINE('',#616,#129);
#104=LINE('',#622,#130);
#105=LINE('',#628,#131);
#106=LINE('',#634,#132);
#107=LINE('',#640,#133);
#108=LINE('',#646,#134);
#109=LINE('',#652,#135);
#110=LINE('',#658,#136);
#111=LINE('',#665,#137);
#112=LINE('',#668,#138);
#113=LINE('',#671,#139);
#114=LINE('',#673,#140);
#115=LINE('',#674,#141);
#116=LINE('',#677,#142);
#117=LINE('',#681,#143);
#118=LINE('',#685,#144);
#119=LINE('',#690,#145);
#120=LINE('',#693,#146);
#121=LINE('',#694,#147);
#122=LINE('',#698,#148);
#123=LINE('',#701,#149);
#124=LINE('',#702,#150);
#125=LINE('',#706,#151);
#126=LINE('',#708,#152);
#127=VECTOR('',#481,1.7);
#128=VECTOR('',#488,1.7);
#129=VECTOR('',#495,1.7);
#130=VECTOR('',#502,1.7);
#131=VECTOR('',#509,1.7);
#132=VECTOR('',#516,1.7);
#133=VECTOR('',#523,1.7);
#134=VECTOR('',#530,1.7);
#135=VECTOR('',#537,1.7);
#136=VECTOR('',#544,1.7);
#137=VECTOR('',#551,10.);
#138=VECTOR('',#554,10.);
#139=VECTOR('',#557,10.);
#140=VECTOR('',#558,10.);
#141=VECTOR('',#559,10.);
#142=VECTOR('',#562,10.);
#143=VECTOR('',#565,10.);
#144=VECTOR('',#568,10.);
#145=VECTOR('',#575,10.);
#146=VECTOR('',#578,10.);
#147=VECTOR('',#579,10.);
#148=VECTOR('',#584,10.);
#149=VECTOR('',#587,10.);
#150=VECTOR('',#588,10.);
#151=VECTOR('',#593,10.);
#152=VECTOR('',#596,10.);
#153=CIRCLE('',#428,1.7);
#154=CIRCLE('',#429,1.7);
#155=CIRCLE('',#431,1.7);
#156=CIRCLE('',#432,1.7);
#157=CIRCLE('',#434,1.7);
#158=CIRCLE('',#435,1.7);
#159=CIRCLE('',#437,1.7);
#160=CIRCLE('',#438,1.7);
#161=CIRCLE('',#440,1.7);
#162=CIRCLE('',#441,1.7);
#163=CIRCLE('',#443,1.7);
#164=CIRCLE('',#444,1.7);
#165=CIRCLE('',#446,1.7);
#166=CIRCLE('',#447,1.7);
#167=CIRCLE('',#449,1.7);
#168=CIRCLE('',#450,1.7);
#169=CIRCLE('',#452,1.7);
#170=CIRCLE('',#453,1.7);
#171=CIRCLE('',#455,1.7);
#172=CIRCLE('',#456,1.7);
#173=CIRCLE('',#458,1.6);
#174=CIRCLE('',#459,1.6);
#175=CIRCLE('',#462,1.6);
#176=CIRCLE('',#463,1.6);
#177=CIRCLE('',#464,1.6);
#178=CIRCLE('',#466,1.6);
#179=CIRCLE('',#469,1.6);
#180=CIRCLE('',#472,1.6);
#181=VERTEX_POINT('',#601);
#182=VERTEX_POINT('',#603);
#183=VERTEX_POINT('',#607);
#184=VERTEX_POINT('',#609);
#185=VERTEX_POINT('',#613);
#186=VERTEX_POINT('',#615);
#187=VERTEX_POINT('',#619);
#188=VERTEX_POINT('',#621);
#189=VERTEX_POINT('',#625);
#190=VERTEX_POINT('',#627);
#191=VERTEX_POINT('',#631);
#192=VERTEX_POINT('',#633);
#193=VERTEX_POINT('',#637);
#194=VERTEX_POINT('',#639);
#195=VERTEX_POINT('',#643);
#196=VERTEX_POINT('',#645);
#197=VERTEX_POINT('',#649);
#198=VERTEX_POINT('',#651);
#199=VERTEX_POINT('',#655);
#200=VERTEX_POINT('',#657);
#201=VERTEX_POINT('',#661);
#202=VERTEX_POINT('',#662);
#203=VERTEX_POINT('',#664);
#204=VERTEX_POINT('',#666);
#205=VERTEX_POINT('',#670);
#206=VERTEX_POINT('',#672);
#207=VERTEX_POINT('',#676);
#208=VERTEX_POINT('',#678);
#209=VERTEX_POINT('',#680);
#210=VERTEX_POINT('',#682);
#211=VERTEX_POINT('',#684);
#212=VERTEX_POINT('',#688);
#213=VERTEX_POINT('',#692);
#214=VERTEX_POINT('',#696);
#215=VERTEX_POINT('',#700);
#216=VERTEX_POINT('',#704);
#217=EDGE_CURVE('',#181,#181,#153,.T.);
#218=EDGE_CURVE('',#181,#182,#101,.T.);
#219=EDGE_CURVE('',#182,#182,#154,.T.);
#220=EDGE_CURVE('',#183,#183,#155,.T.);
#221=EDGE_CURVE('',#183,#184,#102,.T.);
#222=EDGE_CURVE('',#184,#184,#156,.T.);
#223=EDGE_CURVE('',#185,#185,#157,.T.);
#224=EDGE_CURVE('',#185,#186,#103,.T.);
#225=EDGE_CURVE('',#186,#186,#158,.T.);
#226=EDGE_CURVE('',#187,#187,#159,.T.);
#227=EDGE_CURVE('',#187,#188,#104,.T.);
#228=EDGE_CURVE('',#188,#188,#160,.T.);
#229=EDGE_CURVE('',#189,#189,#161,.T.);
#230=EDGE_CURVE('',#189,#190,#105,.T.);
#231=EDGE_CURVE('',#190,#190,#162,.T.);
#232=EDGE_CURVE('',#191,#191,#163,.T.);
#233=EDGE_CURVE('',#191,#192,#106,.T.);
#234=EDGE_CURVE('',#192,#192,#164,.T.);
#235=EDGE_CURVE('',#193,#193,#165,.T.);
#236=EDGE_CURVE('',#193,#194,#107,.T.);
#237=EDGE_CURVE('',#194,#194,#166,.T.);
#238=EDGE_CURVE('',#195,#195,#167,.T.);
#239=EDGE_CURVE('',#195,#196,#108,.T.);
#240=EDGE_CURVE('',#196,#196,#168,.T.);
#241=EDGE_CURVE('',#197,#197,#169,.T.);
#242=EDGE_CURVE('',#197,#198,#109,.T.);
#243=EDGE_CURVE('',#198,#198,#170,.T.);
#244=EDGE_CURVE('',#199,#199,#171,.T.);
#245=EDGE_CURVE('',#199,#200,#110,.T.);
#246=EDGE_CURVE('',#200,#200,#172,.T.);
#247=EDGE_CURVE('',#201,#202,#173,.T.);
#248=EDGE_CURVE('',#202,#203,#111,.T.);
#249=EDGE_CURVE('',#203,#204,#174,.T.);
#250=EDGE_CURVE('',#204,#201,#112,.T.);
#251=EDGE_CURVE('',#205,#204,#113,.T.);
#252=EDGE_CURVE('',#206,#205,#114,.T.);
#253=EDGE_CURVE('',#201,#206,#115,.T.);
#254=EDGE_CURVE('',#203,#207,#116,.T.);
#255=EDGE_CURVE('',#208,#207,#175,.T.);
#256=EDGE_CURVE('',#208,#209,#117,.T.);
#257=EDGE_CURVE('',#210,#209,#176,.T.);
#258=EDGE_CURVE('',#210,#211,#118,.T.);
#259=EDGE_CURVE('',#205,#211,#177,.T.);
#260=EDGE_CURVE('',#212,#206,#178,.T.);
#261=EDGE_CURVE('',#211,#212,#119,.T.);
#262=EDGE_CURVE('',#213,#210,#120,.T.);
#263=EDGE_CURVE('',#212,#213,#121,.T.);
#264=EDGE_CURVE('',#214,#213,#179,.T.);
#265=EDGE_CURVE('',#209,#214,#122,.T.);
#266=EDGE_CURVE('',#215,#208,#123,.T.);
#267=EDGE_CURVE('',#214,#215,#124,.T.);
#268=EDGE_CURVE('',#216,#215,#180,.T.);
#269=EDGE_CURVE('',#207,#216,#125,.T.);
#270=EDGE_CURVE('',#216,#202,#126,.T.);
#271=ORIENTED_EDGE('',*,*,#217,.F.);
#272=ORIENTED_EDGE('',*,*,#218,.T.);
#273=ORIENTED_EDGE('',*,*,#219,.F.);
#274=ORIENTED_EDGE('',*,*,#218,.F.);
#275=ORIENTED_EDGE('',*,*,#220,.F.);
#276=ORIENTED_EDGE('',*,*,#221,.T.);
#277=ORIENTED_EDGE('',*,*,#222,.F.);
#278=ORIENTED_EDGE('',*,*,#221,.F.);
#279=ORIENTED_EDGE('',*,*,#223,.F.);
#280=ORIENTED_EDGE('',*,*,#224,.T.);
#281=ORIENTED_EDGE('',*,*,#225,.F.);
#282=ORIENTED_EDGE('',*,*,#224,.F.);
#283=ORIENTED_EDGE('',*,*,#226,.F.);
#284=ORIENTED_EDGE('',*,*,#227,.T.);
#285=ORIENTED_EDGE('',*,*,#228,.F.);
#286=ORIENTED_EDGE('',*,*,#227,.F.);
#287=ORIENTED_EDGE('',*,*,#229,.F.);
#288=ORIENTED_EDGE('',*,*,#230,.T.);
#289=ORIENTED_EDGE('',*,*,#231,.F.);
#290=ORIENTED_EDGE('',*,*,#230,.F.);
#291=ORIENTED_EDGE('',*,*,#232,.F.);
#292=ORIENTED_EDGE('',*,*,#233,.T.);
#293=ORIENTED_EDGE('',*,*,#234,.F.);
#294=ORIENTED_EDGE('',*,*,#233,.F.);
#295=ORIENTED_EDGE('',*,*,#235,.F.);
#296=ORIENTED_EDGE('',*,*,#236,.T.);
#297=ORIENTED_EDGE('',*,*,#237,.F.);
#298=ORIENTED_EDGE('',*,*,#236,.F.);
#299=ORIENTED_EDGE('',*,*,#238,.F.);
#300=ORIENTED_EDGE('',*,*,#239,.T.);
#301=ORIENTED_EDGE('',*,*,#240,.F.);
#302=ORIENTED_EDGE('',*,*,#239,.F.);
#303=ORIENTED_EDGE('',*,*,#241,.F.);
#304=ORIENTED_EDGE('',*,*,#242,.T.);
#305=ORIENTED_EDGE('',*,*,#243,.F.);
#306=ORIENTED_EDGE('',*,*,#242,.F.);
#307=ORIENTED_EDGE('',*,*,#244,.F.);
#308=ORIENTED_EDGE('',*,*,#245,.T.);
#309=ORIENTED_EDGE('',*,*,#246,.F.);
#310=ORIENTED_EDGE('',*,*,#245,.F.);
#311=ORIENTED_EDGE('',*,*,#247,.T.);
#312=ORIENTED_EDGE('',*,*,#248,.T.);
#313=ORIENTED_EDGE('',*,*,#249,.T.);
#314=ORIENTED_EDGE('',*,*,#250,.T.);
#315=ORIENTED_EDGE('',*,*,#250,.F.);
#316=ORIENTED_EDGE('',*,*,#251,.F.);
#317=ORIENTED_EDGE('',*,*,#252,.F.);
#318=ORIENTED_EDGE('',*,*,#253,.F.);
#319=ORIENTED_EDGE('',*,*,#249,.F.);
#320=ORIENTED_EDGE('',*,*,#254,.T.);
#321=ORIENTED_EDGE('',*,*,#255,.F.);
#322=ORIENTED_EDGE('',*,*,#256,.T.);
#323=ORIENTED_EDGE('',*,*,#257,.F.);
#324=ORIENTED_EDGE('',*,*,#258,.T.);
#325=ORIENTED_EDGE('',*,*,#259,.F.);
#326=ORIENTED_EDGE('',*,*,#251,.T.);
#327=ORIENTED_EDGE('',*,*,#217,.T.);
#328=ORIENTED_EDGE('',*,*,#220,.T.);
#329=ORIENTED_EDGE('',*,*,#223,.T.);
#330=ORIENTED_EDGE('',*,*,#226,.T.);
#331=ORIENTED_EDGE('',*,*,#229,.T.);
#332=ORIENTED_EDGE('',*,*,#232,.T.);
#333=ORIENTED_EDGE('',*,*,#235,.T.);
#334=ORIENTED_EDGE('',*,*,#238,.T.);
#335=ORIENTED_EDGE('',*,*,#241,.T.);
#336=ORIENTED_EDGE('',*,*,#244,.T.);
#337=ORIENTED_EDGE('',*,*,#260,.T.);
#338=ORIENTED_EDGE('',*,*,#252,.T.);
#339=ORIENTED_EDGE('',*,*,#259,.T.);
#340=ORIENTED_EDGE('',*,*,#261,.T.);
#341=ORIENTED_EDGE('',*,*,#261,.F.);
#342=ORIENTED_EDGE('',*,*,#258,.F.);
#343=ORIENTED_EDGE('',*,*,#262,.F.);
#344=ORIENTED_EDGE('',*,*,#263,.F.);
#345=ORIENTED_EDGE('',*,*,#264,.T.);
#346=ORIENTED_EDGE('',*,*,#262,.T.);
#347=ORIENTED_EDGE('',*,*,#257,.T.);
#348=ORIENTED_EDGE('',*,*,#265,.T.);
#349=ORIENTED_EDGE('',*,*,#265,.F.);
#350=ORIENTED_EDGE('',*,*,#256,.F.);
#351=ORIENTED_EDGE('',*,*,#266,.F.);
#352=ORIENTED_EDGE('',*,*,#267,.F.);
#353=ORIENTED_EDGE('',*,*,#268,.T.);
#354=ORIENTED_EDGE('',*,*,#266,.T.);
#355=ORIENTED_EDGE('',*,*,#255,.T.);
#356=ORIENTED_EDGE('',*,*,#269,.T.);
#357=ORIENTED_EDGE('',*,*,#248,.F.);
#358=ORIENTED_EDGE('',*,*,#270,.F.);
#359=ORIENTED_EDGE('',*,*,#269,.F.);
#360=ORIENTED_EDGE('',*,*,#254,.F.);
#361=ORIENTED_EDGE('',*,*,#247,.F.);
#362=ORIENTED_EDGE('',*,*,#253,.T.);
#363=ORIENTED_EDGE('',*,*,#260,.F.);
#364=ORIENTED_EDGE('',*,*,#263,.T.);
#365=ORIENTED_EDGE('',*,*,#264,.F.);
#366=ORIENTED_EDGE('',*,*,#267,.T.);
#367=ORIENTED_EDGE('',*,*,#268,.F.);
#368=ORIENTED_EDGE('',*,*,#270,.T.);
#369=ORIENTED_EDGE('',*,*,#219,.T.);
#370=ORIENTED_EDGE('',*,*,#222,.T.);
#371=ORIENTED_EDGE('',*,*,#225,.T.);
#372=ORIENTED_EDGE('',*,*,#228,.T.);
#373=ORIENTED_EDGE('',*,*,#231,.T.);
#374=ORIENTED_EDGE('',*,*,#234,.T.);
#375=ORIENTED_EDGE('',*,*,#237,.T.);
#376=ORIENTED_EDGE('',*,*,#240,.T.);
#377=ORIENTED_EDGE('',*,*,#243,.T.);
#378=ORIENTED_EDGE('',*,*,#246,.T.);
#379=CYLINDRICAL_SURFACE('',#427,1.7);
#380=CYLINDRICAL_SURFACE('',#430,1.7);
#381=CYLINDRICAL_SURFACE('',#433,1.7);
#382=CYLINDRICAL_SURFACE('',#436,1.7);
#383=CYLINDRICAL_SURFACE('',#439,1.7);
#384=CYLINDRICAL_SURFACE('',#442,1.7);
#385=CYLINDRICAL_SURFACE('',#445,1.7);
#386=CYLINDRICAL_SURFACE('',#448,1.7);
#387=CYLINDRICAL_SURFACE('',#451,1.7);
#388=CYLINDRICAL_SURFACE('',#454,1.7);
#389=CYLINDRICAL_SURFACE('',#457,1.6);
#390=CYLINDRICAL_SURFACE('',#465,1.6);
#391=CYLINDRICAL_SURFACE('',#468,1.6);
#392=CYLINDRICAL_SURFACE('',#471,1.6);
#393=ADVANCED_FACE('',(#41),#379,.F.);
#394=ADVANCED_FACE('',(#42),#380,.F.);
#395=ADVANCED_FACE('',(#43),#381,.F.);
#396=ADVANCED_FACE('',(#44),#382,.F.);
#397=ADVANCED_FACE('',(#45),#383,.F.);
#398=ADVANCED_FACE('',(#46),#384,.F.);
#399=ADVANCED_FACE('',(#47),#385,.F.);
#400=ADVANCED_FACE('',(#48),#386,.F.);
#401=ADVANCED_FACE('',(#49),#387,.F.);
#402=ADVANCED_FACE('',(#50),#388,.F.);
#403=ADVANCED_FACE('',(#51),#389,.T.);
#404=ADVANCED_FACE('',(#52),#35,.T.);
#405=ADVANCED_FACE('',(#53,#15,#16,#17,#18,#19,#20,#21,#22,#23,#24),#36,
 .F.);
#406=ADVANCED_FACE('',(#54),#390,.T.);
#407=ADVANCED_FACE('',(#55),#37,.T.);
#408=ADVANCED_FACE('',(#56),#391,.T.);
#409=ADVANCED_FACE('',(#57),#38,.T.);
#410=ADVANCED_FACE('',(#58),#392,.T.);
#411=ADVANCED_FACE('',(#59),#39,.T.);
#412=ADVANCED_FACE('',(#60,#25,#26,#27,#28,#29,#30,#31,#32,#33,#34),#40,
 .T.);
#413=CLOSED_SHELL('',(#393,#394,#395,#396,#397,#398,#399,#400,#401,#402,
#403,#404,#405,#406,#407,#408,#409,#410,#411,#412));
#414=DERIVED_UNIT_ELEMENT(#416,1.);
#415=DERIVED_UNIT_ELEMENT(#715,-3.);
#416=(
MASS_UNIT()
NAMED_UNIT(*)
SI_UNIT(.KILO.,.GRAM.)
);
#417=DERIVED_UNIT((#414,#415));
#418=MEASURE_REPRESENTATION_ITEM('density measure',
POSITIVE_RATIO_MEASURE(6020.),#417);
#419=PROPERTY_DEFINITION_REPRESENTATION(#424,#421);
#420=PROPERTY_DEFINITION_REPRESENTATION(#425,#422);
#421=REPRESENTATION('material name',(#423),#712);
#422=REPRESENTATION('density',(#418),#712);
#423=DESCRIPTIVE_REPRESENTATION_ITEM('Discrete Component',
'Discrete Component');
#424=PROPERTY_DEFINITION('material property','material name',#722);
#425=PROPERTY_DEFINITION('material property','density of part',#722);
#426=AXIS2_PLACEMENT_3D('',#599,#475,#476);
#427=AXIS2_PLACEMENT_3D('',#600,#477,#478);
#428=AXIS2_PLACEMENT_3D('',#602,#479,#480);
#429=AXIS2_PLACEMENT_3D('',#605,#482,#483);
#430=AXIS2_PLACEMENT_3D('',#606,#484,#485);
#431=AXIS2_PLACEMENT_3D('',#608,#486,#487);
#432=AXIS2_PLACEMENT_3D('',#611,#489,#490);
#433=AXIS2_PLACEMENT_3D('',#612,#491,#492);
#434=AXIS2_PLACEMENT_3D('',#614,#493,#494);
#435=AXIS2_PLACEMENT_3D('',#617,#496,#497);
#436=AXIS2_PLACEMENT_3D('',#618,#498,#499);
#437=AXIS2_PLACEMENT_3D('',#620,#500,#501);
#438=AXIS2_PLACEMENT_3D('',#623,#503,#504);
#439=AXIS2_PLACEMENT_3D('',#624,#505,#506);
#440=AXIS2_PLACEMENT_3D('',#626,#507,#508);
#441=AXIS2_PLACEMENT_3D('',#629,#510,#511);
#442=AXIS2_PLACEMENT_3D('',#630,#512,#513);
#443=AXIS2_PLACEMENT_3D('',#632,#514,#515);
#444=AXIS2_PLACEMENT_3D('',#635,#517,#518);
#445=AXIS2_PLACEMENT_3D('',#636,#519,#520);
#446=AXIS2_PLACEMENT_3D('',#638,#521,#522);
#447=AXIS2_PLACEMENT_3D('',#641,#524,#525);
#448=AXIS2_PLACEMENT_3D('',#642,#526,#527);
#449=AXIS2_PLACEMENT_3D('',#644,#528,#529);
#450=AXIS2_PLACEMENT_3D('',#647,#531,#532);
#451=AXIS2_PLACEMENT_3D('',#648,#533,#534);
#452=AXIS2_PLACEMENT_3D('',#650,#535,#536);
#453=AXIS2_PLACEMENT_3D('',#653,#538,#539);
#454=AXIS2_PLACEMENT_3D('',#654,#540,#541);
#455=AXIS2_PLACEMENT_3D('',#656,#542,#543);
#456=AXIS2_PLACEMENT_3D('',#659,#545,#546);
#457=AXIS2_PLACEMENT_3D('',#660,#547,#548);
#458=AXIS2_PLACEMENT_3D('',#663,#549,#550);
#459=AXIS2_PLACEMENT_3D('',#667,#552,#553);
#460=AXIS2_PLACEMENT_3D('',#669,#555,#556);
#461=AXIS2_PLACEMENT_3D('',#675,#560,#561);
#462=AXIS2_PLACEMENT_3D('',#679,#563,#564);
#463=AXIS2_PLACEMENT_3D('',#683,#566,#567);
#464=AXIS2_PLACEMENT_3D('',#686,#569,#570);
#465=AXIS2_PLACEMENT_3D('',#687,#571,#572);
#466=AXIS2_PLACEMENT_3D('',#689,#573,#574);
#467=AXIS2_PLACEMENT_3D('',#691,#576,#577);
#468=AXIS2_PLACEMENT_3D('',#695,#580,#581);
#469=AXIS2_PLACEMENT_3D('',#697,#582,#583);
#470=AXIS2_PLACEMENT_3D('',#699,#585,#586);
#471=AXIS2_PLACEMENT_3D('',#703,#589,#590);
#472=AXIS2_PLACEMENT_3D('',#705,#591,#592);
#473=AXIS2_PLACEMENT_3D('',#707,#594,#595);
#474=AXIS2_PLACEMENT_3D('',#709,#597,#598);
#475=DIRECTION('axis',(0.,0.,1.));
#476=DIRECTION('refdir',(1.,0.,0.));
#477=DIRECTION('center_axis',(0.,1.,0.));
#478=DIRECTION('ref_axis',(0.,0.,-1.));
#479=DIRECTION('center_axis',(0.,1.,0.));
#480=DIRECTION('ref_axis',(0.,0.,-1.));
#481=DIRECTION('',(0.,1.,0.));
#482=DIRECTION('center_axis',(0.,-1.,0.));
#483=DIRECTION('ref_axis',(0.,0.,-1.));
#484=DIRECTION('center_axis',(0.,1.,0.));
#485=DIRECTION('ref_axis',(0.,0.,-1.));
#486=DIRECTION('center_axis',(0.,1.,0.));
#487=DIRECTION('ref_axis',(0.,0.,-1.));
#488=DIRECTION('',(0.,1.,0.));
#489=DIRECTION('center_axis',(0.,-1.,0.));
#490=DIRECTION('ref_axis',(0.,0.,-1.));
#491=DIRECTION('center_axis',(0.,1.,0.));
#492=DIRECTION('ref_axis',(0.,0.,-1.));
#493=DIRECTION('center_axis',(0.,1.,0.));
#494=DIRECTION('ref_axis',(0.,0.,-1.));
#495=DIRECTION('',(0.,1.,0.));
#496=DIRECTION('center_axis',(0.,-1.,0.));
#497=DIRECTION('ref_axis',(0.,0.,-1.));
#498=DIRECTION('center_axis',(0.,1.,0.));
#499=DIRECTION('ref_axis',(0.,0.,-1.));
#500=DIRECTION('center_axis',(0.,1.,0.));
#501=DIRECTION('ref_axis',(0.,0.,-1.));
#502=DIRECTION('',(0.,1.,0.));
#503=DIRECTION('center_axis',(0.,-1.,0.));
#504=DIRECTION('ref_axis',(0.,0.,-1.));
#505=DIRECTION('center_axis',(0.,1.,0.));
#506=DIRECTION('ref_axis',(0.,0.,-1.));
#507=DIRECTION('center_axis',(0.,1.,0.));
#508=DIRECTION('ref_axis',(0.,0.,-1.));
#509=DIRECTION('',(0.,1.,0.));
#510=DIRECTION('center_axis',(0.,-1.,0.));
#511=DIRECTION('ref_axis',(0.,0.,-1.));
#512=DIRECTION('center_axis',(0.,1.,0.));
#513=DIRECTION('ref_axis',(0.,0.,-1.));
#514=DIRECTION('center_axis',(0.,1.,0.));
#515=DIRECTION('ref_axis',(0.,0.,-1.));
#516=DIRECTION('',(0.,1.,0.));
#517=DIRECTION('center_axis',(0.,-1.,0.));
#518=DIRECTION('ref_axis',(0.,0.,-1.));
#519=DIRECTION('center_axis',(0.,1.,0.));
#520=DIRECTION('ref_axis',(0.,0.,-1.));
#521=DIRECTION('center_axis',(0.,1.,0.));
#522=DIRECTION('ref_axis',(0.,0.,-1.));
#523=DIRECTION('',(0.,1.,0.));
#524=DIRECTION('center_axis',(0.,-1.,0.));
#525=DIRECTION('ref_axis',(0.,0.,-1.));
#526=DIRECTION('center_axis',(0.,1.,0.));
#527=DIRECTION('ref_axis',(0.,0.,-1.));
#528=DIRECTION('center_axis',(0.,1.,0.));
#529=DIRECTION('ref_axis',(0.,0.,-1.));
#530=DIRECTION('',(0.,1.,0.));
#531=DIRECTION('center_axis',(0.,-1.,0.));
#532=DIRECTION('ref_axis',(0.,0.,-1.));
#533=DIRECTION('center_axis',(0.,1.,0.));
#534=DIRECTION('ref_axis',(0.,0.,-1.));
#535=DIRECTION('center_axis',(0.,1.,0.));
#536=DIRECTION('ref_axis',(0.,0.,-1.));
#537=DIRECTION('',(0.,1.,0.));
#538=DIRECTION('center_axis',(0.,-1.,0.));
#539=DIRECTION('ref_axis',(0.,0.,-1.));
#540=DIRECTION('center_axis',(0.,1.,0.));
#541=DIRECTION('ref_axis',(0.,0.,-1.));
#542=DIRECTION('center_axis',(0.,1.,0.));
#543=DIRECTION('ref_axis',(0.,0.,-1.));
#544=DIRECTION('',(0.,1.,0.));
#545=DIRECTION('center_axis',(0.,-1.,0.));
#546=DIRECTION('ref_axis',(0.,0.,-1.));
#547=DIRECTION('center_axis',(0.,1.,0.));
#548=DIRECTION('ref_axis',(0.707106781186548,0.,-0.707106781186548));
#549=DIRECTION('center_axis',(0.,-1.,0.));
#550=DIRECTION('ref_axis',(0.707106781186548,0.,-0.707106781186548));
#551=DIRECTION('',(0.,-1.,0.));
#552=DIRECTION('center_axis',(0.,1.,0.));
#553=DIRECTION('ref_axis',(0.707106781186548,0.,-0.707106781186548));
#554=DIRECTION('',(0.,1.,0.));
#555=DIRECTION('center_axis',(0.,0.,-1.));
#556=DIRECTION('ref_axis',(-1.,0.,0.));
#557=DIRECTION('',(1.,0.,0.));
#558=DIRECTION('',(0.,-1.,0.));
#559=DIRECTION('',(-1.,0.,0.));
#560=DIRECTION('center_axis',(0.,1.,0.));
#561=DIRECTION('ref_axis',(1.,0.,0.));
#562=DIRECTION('',(4.62592926927149E-16,0.,1.));
#563=DIRECTION('center_axis',(0.,1.,0.));
#564=DIRECTION('ref_axis',(0.707106781186548,0.,0.707106781186548));
#565=DIRECTION('',(-1.,0.,0.));
#566=DIRECTION('center_axis',(0.,1.,0.));
#567=DIRECTION('ref_axis',(-0.707106781186548,0.,0.707106781186548));
#568=DIRECTION('',(0.,0.,-1.));
#569=DIRECTION('center_axis',(0.,1.,0.));
#570=DIRECTION('ref_axis',(-0.707106781186547,0.,-0.707106781186548));
#571=DIRECTION('center_axis',(0.,1.,0.));
#572=DIRECTION('ref_axis',(-0.707106781186547,0.,-0.707106781186548));
#573=DIRECTION('center_axis',(0.,-1.,0.));
#574=DIRECTION('ref_axis',(-0.707106781186547,0.,-0.707106781186548));
#575=DIRECTION('',(0.,1.,0.));
#576=DIRECTION('center_axis',(-1.,0.,0.));
#577=DIRECTION('ref_axis',(0.,0.,1.));
#578=DIRECTION('',(0.,-1.,0.));
#579=DIRECTION('',(0.,0.,1.));
#580=DIRECTION('center_axis',(0.,1.,0.));
#581=DIRECTION('ref_axis',(-0.707106781186548,0.,0.707106781186548));
#582=DIRECTION('center_axis',(0.,-1.,0.));
#583=DIRECTION('ref_axis',(-0.707106781186548,0.,0.707106781186548));
#584=DIRECTION('',(0.,1.,0.));
#585=DIRECTION('center_axis',(0.,0.,1.));
#586=DIRECTION('ref_axis',(1.,0.,0.));
#587=DIRECTION('',(0.,-1.,0.));
#588=DIRECTION('',(1.,0.,0.));
#589=DIRECTION('center_axis',(0.,1.,0.));
#590=DIRECTION('ref_axis',(0.707106781186548,0.,0.707106781186548));
#591=DIRECTION('center_axis',(0.,-1.,0.));
#592=DIRECTION('ref_axis',(0.707106781186548,0.,0.707106781186548));
#593=DIRECTION('',(0.,1.,0.));
#594=DIRECTION('center_axis',(1.,0.,-4.62592926927149E-16));
#595=DIRECTION('ref_axis',(-4.62592926927149E-16,0.,-1.));
#596=DIRECTION('',(-4.62592926927149E-16,0.,-1.));
#597=DIRECTION('center_axis',(0.,1.,0.));
#598=DIRECTION('ref_axis',(0.,0.,1.));
#599=CARTESIAN_POINT('',(0.,0.,0.));
#600=CARTESIAN_POINT('Origin',(6.37499999999981,10.,-11.));
#601=CARTESIAN_POINT('',(6.37499999999981,0.,-9.3));
#602=CARTESIAN_POINT('Origin',(6.37499999999981,0.,-11.));
#603=CARTESIAN_POINT('',(6.37499999999981,2.,-9.3));
#604=CARTESIAN_POINT('',(6.37499999999981,10.,-9.3));
#605=CARTESIAN_POINT('Origin',(6.37499999999981,2.,-11.));
#606=CARTESIAN_POINT('Origin',(6.37499999999982,10.,9.));
#607=CARTESIAN_POINT('',(6.37499999999982,0.,10.7));
#608=CARTESIAN_POINT('Origin',(6.37499999999982,0.,9.));
#609=CARTESIAN_POINT('',(6.37499999999982,2.,10.7));
#610=CARTESIAN_POINT('',(6.37499999999982,10.,10.7));
#611=CARTESIAN_POINT('Origin',(6.37499999999982,2.,9.));
#612=CARTESIAN_POINT('Origin',(-6.37499999999982,10.,19.));
#613=CARTESIAN_POINT('',(-6.37499999999982,0.,20.7));
#614=CARTESIAN_POINT('Origin',(-6.37499999999982,0.,19.));
#615=CARTESIAN_POINT('',(-6.37499999999982,2.,20.7));
#616=CARTESIAN_POINT('',(-6.37499999999982,10.,20.7));
#617=CARTESIAN_POINT('Origin',(-6.37499999999982,2.,19.));
#618=CARTESIAN_POINT('Origin',(-6.37499999999982,10.,-0.999999999999995));
#619=CARTESIAN_POINT('',(-6.37499999999982,0.,0.700000000000005));
#620=CARTESIAN_POINT('Origin',(-6.37499999999982,0.,-0.999999999999995));
#621=CARTESIAN_POINT('',(-6.37499999999982,2.,0.700000000000005));
#622=CARTESIAN_POINT('',(-6.37499999999982,10.,0.700000000000005));
#623=CARTESIAN_POINT('Origin',(-6.37499999999982,2.,-0.999999999999995));
#624=CARTESIAN_POINT('Origin',(-6.37499999999982,10.,-21.));
#625=CARTESIAN_POINT('',(-6.37499999999982,0.,-19.3));
#626=CARTESIAN_POINT('Origin',(-6.37499999999982,0.,-21.));
#627=CARTESIAN_POINT('',(-6.37499999999982,2.,-19.3));
#628=CARTESIAN_POINT('',(-6.37499999999982,10.,-19.3));
#629=CARTESIAN_POINT('Origin',(-6.37499999999982,2.,-21.));
#630=CARTESIAN_POINT('Origin',(-6.37499999999982,10.,-11.));
#631=CARTESIAN_POINT('',(-6.37499999999982,0.,-9.3));
#632=CARTESIAN_POINT('Origin',(-6.37499999999982,0.,-11.));
#633=CARTESIAN_POINT('',(-6.37499999999982,2.,-9.3));
#634=CARTESIAN_POINT('',(-6.37499999999982,10.,-9.3));
#635=CARTESIAN_POINT('Origin',(-6.37499999999982,2.,-11.));
#636=CARTESIAN_POINT('Origin',(-6.37499999999982,10.,9.00000000000001));
#637=CARTESIAN_POINT('',(-6.37499999999982,0.,10.7));
#638=CARTESIAN_POINT('Origin',(-6.37499999999982,0.,9.00000000000001));
#639=CARTESIAN_POINT('',(-6.37499999999982,2.,10.7));
#640=CARTESIAN_POINT('',(-6.37499999999982,10.,10.7));
#641=CARTESIAN_POINT('Origin',(-6.37499999999982,2.,9.00000000000001));
#642=CARTESIAN_POINT('Origin',(6.37499999999983,10.,19.));
#643=CARTESIAN_POINT('',(6.37499999999983,0.,20.7));
#644=CARTESIAN_POINT('Origin',(6.37499999999983,0.,19.));
#645=CARTESIAN_POINT('',(6.37499999999983,2.,20.7));
#646=CARTESIAN_POINT('',(6.37499999999983,10.,20.7));
#647=CARTESIAN_POINT('Origin',(6.37499999999983,2.,19.));
#648=CARTESIAN_POINT('Origin',(6.37499999999982,10.,-0.999999999999998));
#649=CARTESIAN_POINT('',(6.37499999999982,0.,0.700000000000003));
#650=CARTESIAN_POINT('Origin',(6.37499999999982,0.,-0.999999999999998));
#651=CARTESIAN_POINT('',(6.37499999999982,2.,0.700000000000003));
#652=CARTESIAN_POINT('',(6.37499999999982,10.,0.700000000000003));
#653=CARTESIAN_POINT('Origin',(6.37499999999982,2.,-0.999999999999998));
#654=CARTESIAN_POINT('Origin',(6.37499999999981,10.,-21.));
#655=CARTESIAN_POINT('',(6.37499999999981,0.,-19.3));
#656=CARTESIAN_POINT('Origin',(6.37499999999981,0.,-21.));
#657=CARTESIAN_POINT('',(6.37499999999981,2.,-19.3));
#658=CARTESIAN_POINT('',(6.37499999999981,10.,-19.3));
#659=CARTESIAN_POINT('Origin',(6.37499999999981,2.,-21.));
#660=CARTESIAN_POINT('Origin',(7.39999999999999,0.,-22.4));
#661=CARTESIAN_POINT('',(7.4,2.,-24.));
#662=CARTESIAN_POINT('',(9.,2.,-22.4));
#663=CARTESIAN_POINT('Origin',(7.39999999999999,2.,-22.4));
#664=CARTESIAN_POINT('',(9.,0.,-22.4));
#665=CARTESIAN_POINT('',(9.,0.,-22.4));
#666=CARTESIAN_POINT('',(7.4,0.,-24.));
#667=CARTESIAN_POINT('Origin',(7.39999999999999,0.,-22.4));
#668=CARTESIAN_POINT('',(7.39999999999999,0.,-24.));
#669=CARTESIAN_POINT('Origin',(8.99999999999999,0.,-24.));
#670=CARTESIAN_POINT('',(-7.40000000000001,0.,-24.));
#671=CARTESIAN_POINT('',(-9.00000000000001,0.,-24.));
#672=CARTESIAN_POINT('',(-7.40000000000001,2.,-24.));
#673=CARTESIAN_POINT('',(-7.40000000000001,0.,-24.));
#674=CARTESIAN_POINT('',(-9.00000000000001,2.,-24.));
#675=CARTESIAN_POINT('Origin',(5.55111512312578E-15,0.,0.));
#676=CARTESIAN_POINT('',(9.00000000000002,0.,22.4));
#677=CARTESIAN_POINT('',(8.99999999999999,0.,-24.));
#678=CARTESIAN_POINT('',(7.40000000000002,0.,24.));
#679=CARTESIAN_POINT('Origin',(7.40000000000002,0.,22.4));
#680=CARTESIAN_POINT('',(-7.4,0.,24.));
#681=CARTESIAN_POINT('',(9.00000000000002,0.,24.));
#682=CARTESIAN_POINT('',(-9.00000000000001,0.,22.4));
#683=CARTESIAN_POINT('Origin',(-7.4,0.,22.4));
#684=CARTESIAN_POINT('',(-9.00000000000001,0.,-22.4));
#685=CARTESIAN_POINT('',(-9.00000000000001,0.,24.));
#686=CARTESIAN_POINT('Origin',(-7.40000000000001,0.,-22.4));
#687=CARTESIAN_POINT('Origin',(-7.40000000000001,0.,-22.4));
#688=CARTESIAN_POINT('',(-9.00000000000001,2.,-22.4));
#689=CARTESIAN_POINT('Origin',(-7.40000000000001,2.,-22.4));
#690=CARTESIAN_POINT('',(-9.00000000000001,0.,-22.4));
#691=CARTESIAN_POINT('Origin',(-9.00000000000001,0.,-24.));
#692=CARTESIAN_POINT('',(-9.00000000000001,2.,22.4));
#693=CARTESIAN_POINT('',(-9.00000000000001,0.,22.4));
#694=CARTESIAN_POINT('',(-9.00000000000001,2.,24.));
#695=CARTESIAN_POINT('Origin',(-7.4,0.,22.4));
#696=CARTESIAN_POINT('',(-7.4,2.,24.));
#697=CARTESIAN_POINT('Origin',(-7.4,2.,22.4));
#698=CARTESIAN_POINT('',(-7.4,0.,24.));
#699=CARTESIAN_POINT('Origin',(-9.00000000000001,0.,24.));
#700=CARTESIAN_POINT('',(7.40000000000002,2.,24.));
#701=CARTESIAN_POINT('',(7.40000000000002,0.,24.));
#702=CARTESIAN_POINT('',(9.00000000000002,2.,24.));
#703=CARTESIAN_POINT('Origin',(7.40000000000002,0.,22.4));
#704=CARTESIAN_POINT('',(9.00000000000002,2.,22.4));
#705=CARTESIAN_POINT('Origin',(7.40000000000002,2.,22.4));
#706=CARTESIAN_POINT('',(9.00000000000002,0.,22.4));
#707=CARTESIAN_POINT('Origin',(9.00000000000002,0.,24.));
#708=CARTESIAN_POINT('',(8.99999999999999,2.,-24.));
#709=CARTESIAN_POINT('Origin',(5.55111512312578E-15,2.,0.));
#710=UNCERTAINTY_MEASURE_WITH_UNIT(LENGTH_MEASURE(0.01),#714,
'DISTANCE_ACCURACY_VALUE',
'Maximum model space distance between geometric entities at asserted c
onnectivities');
#711=UNCERTAINTY_MEASURE_WITH_UNIT(LENGTH_MEASURE(0.01),#714,
'DISTANCE_ACCURACY_VALUE',
'Maximum model space distance between geometric entities at asserted c
onnectivities');
#712=(
GEOMETRIC_REPRESENTATION_CONTEXT(3)
GLOBAL_UNCERTAINTY_ASSIGNED_CONTEXT((#710))
GLOBAL_UNIT_ASSIGNED_CONTEXT((#714,#716,#717))
REPRESENTATION_CONTEXT('','3D')
);
#713=(
GEOMETRIC_REPRESENTATION_CONTEXT(3)
GLOBAL_UNCERTAINTY_ASSIGNED_CONTEXT((#711))
GLOBAL_UNIT_ASSIGNED_CONTEXT((#714,#716,#717))
REPRESENTATION_CONTEXT('','3D')
);
#714=(
LENGTH_UNIT()
NAMED_UNIT(*)
SI_UNIT(.MILLI.,.METRE.)
);
#715=(
LENGTH_UNIT()
NAMED_UNIT(*)
SI_UNIT($,.METRE.)
);
#716=(
NAMED_UNIT(*)
PLANE_ANGLE_UNIT()
SI_UNIT($,.RADIAN.)
);
#717=(
NAMED_UNIT(*)
SI_UNIT($,.STERADIAN.)
SOLID_ANGLE_UNIT()
);
#718=SHAPE_DEFINITION_REPRESENTATION(#719,#720);
#719=PRODUCT_DEFINITION_SHAPE('',$,#722);
#720=SHAPE_REPRESENTATION('',(#426),#712);
#721=PRODUCT_DEFINITION_CONTEXT('part definition',#726,'design');
#722=PRODUCT_DEFINITION('lid','lid v1',#723,#721);
#723=PRODUCT_DEFINITION_FORMATION('',$,#728);
#724=PRODUCT_RELATED_PRODUCT_CATEGORY('lid v1','lid v1',(#728));
#725=APPLICATION_PROTOCOL_DEFINITION('international standard',
'automotive_design',2009,#726);
#726=APPLICATION_CONTEXT(
'Core Data for Automotive Mechanical Design Process');
#727=PRODUCT_CONTEXT('part definition',#726,'mechanical');
#728=PRODUCT('lid','lid v1',$,(#727));
#729=PRESENTATION_STYLE_ASSIGNMENT((#731));
#730=PRESENTATION_STYLE_ASSIGNMENT((#732));
#731=SURFACE_STYLE_USAGE(.BOTH.,#733);
#732=SURFACE_STYLE_USAGE(.BOTH.,#734);
#733=SURFACE_SIDE_STYLE('',(#735));
#734=SURFACE_SIDE_STYLE('',(#736));
#735=SURFACE_STYLE_FILL_AREA(#737);
#736=SURFACE_STYLE_FILL_AREA(#738);
#737=FILL_AREA_STYLE('Plastic - Matte (Black)',(#739));
#738=FILL_AREA_STYLE('Aluminum - Satin',(#740));
#739=FILL_AREA_STYLE_COLOUR('Plastic - Matte (Black)',#741);
#740=FILL_AREA_STYLE_COLOUR('Aluminum - Satin',#742);
#741=COLOUR_RGB('Plastic - Matte (Black)',0.0980392156862745,0.0980392156862745,
0.0980392156862745);
#742=COLOUR_RGB('Aluminum - Satin',0.96078431372549,0.96078431372549,0.964705882352941);
ENDSEC;
END-ISO-10303-21;
