ISO-10303-21;
HEADER;
/* Generated by software containing ST-Developer
 * from STEP Tools, Inc. (www.steptools.com) 
 */

FILE_DESCRIPTION(
/* description */ (''),
/* implementation_level */ '2;1');

FILE_NAME(
/* name */ 'Hositrad_CF16-B_SwagelokTube v1.step',
/* time_stamp */ '2024-06-17T13:15:26+02:00',
/* author */ (''),
/* organization */ (''),
/* preprocessor_version */ 'ST-DEVELOPER v20',
/* originating_system */ 'Autodesk Translation Framework v13.14.0.145',

/* authorisation */ '');

FILE_SCHEMA (('AUTOMOTIVE_DESIGN { 1 0 10303 214 3 1 1 }'));
ENDSEC;

DATA;
#10=MECHANICAL_DESIGN_GEOMETRIC_PRESENTATION_REPRESENTATION('',(#13),#939);
#11=SHAPE_REPRESENTATION_RELATIONSHIP('SRR','None',#946,#12);
#12=ADVANCED_BREP_SHAPE_REPRESENTATION('',(#14),#938);
#13=STYLED_ITEM('',(#956),#14);
#14=MANIFOLD_SOLID_BREP('Body1',#522);
#15=CONICAL_SURFACE('',#551,2.59999999999998,0.785398163397449);
#16=CONICAL_SURFACE('',#555,2.2,0.785398163397449);
#17=CONICAL_SURFACE('',#557,2.59999999999998,0.785398163397446);
#18=CONICAL_SURFACE('',#561,2.2,0.785398163397455);
#19=CONICAL_SURFACE('',#563,2.59999999999998,0.785398163397452);
#20=CONICAL_SURFACE('',#567,2.2,0.785398163397453);
#21=CONICAL_SURFACE('',#569,2.59999999999997,0.785398163397453);
#22=CONICAL_SURFACE('',#573,2.2,0.785398163397452);
#23=CONICAL_SURFACE('',#575,2.59999999999998,0.785398163397446);
#24=CONICAL_SURFACE('',#579,2.2,0.785398163397455);
#25=CONICAL_SURFACE('',#581,2.59999999999998,0.785398163397451);
#26=CONICAL_SURFACE('',#585,2.2,0.785398163397449);
#27=CONICAL_SURFACE('',#593,17.,0.785398163397448);
#28=CONICAL_SURFACE('',#595,16.6,0.785398163397457);
#29=CONICAL_SURFACE('',#599,8.93161785944027,0.349065850398873);
#30=CONICAL_SURFACE('',#603,9.15,1.22173047639602);
#31=FACE_BOUND('',#84,.T.);
#32=FACE_BOUND('',#86,.T.);
#33=FACE_BOUND('',#87,.T.);
#34=FACE_BOUND('',#88,.T.);
#35=FACE_BOUND('',#89,.T.);
#36=FACE_BOUND('',#90,.T.);
#37=FACE_BOUND('',#91,.T.);
#38=FACE_BOUND('',#92,.T.);
#39=FACE_BOUND('',#118,.T.);
#40=FACE_BOUND('',#119,.T.);
#41=FACE_BOUND('',#120,.T.);
#42=FACE_BOUND('',#121,.T.);
#43=FACE_BOUND('',#122,.T.);
#44=FACE_BOUND('',#123,.T.);
#45=FACE_BOUND('',#124,.T.);
#46=FACE_BOUND('',#126,.T.);
#47=PLANE('',#542);
#48=PLANE('',#543);
#49=PLANE('',#609);
#50=PLANE('',#610);
#51=FACE_OUTER_BOUND('',#81,.T.);
#52=FACE_OUTER_BOUND('',#82,.T.);
#53=FACE_OUTER_BOUND('',#83,.T.);
#54=FACE_OUTER_BOUND('',#85,.T.);
#55=FACE_OUTER_BOUND('',#93,.T.);
#56=FACE_OUTER_BOUND('',#94,.T.);
#57=FACE_OUTER_BOUND('',#95,.T.);
#58=FACE_OUTER_BOUND('',#96,.T.);
#59=FACE_OUTER_BOUND('',#97,.T.);
#60=FACE_OUTER_BOUND('',#98,.T.);
#61=FACE_OUTER_BOUND('',#99,.T.);
#62=FACE_OUTER_BOUND('',#100,.T.);
#63=FACE_OUTER_BOUND('',#101,.T.);
#64=FACE_OUTER_BOUND('',#102,.T.);
#65=FACE_OUTER_BOUND('',#103,.T.);
#66=FACE_OUTER_BOUND('',#104,.T.);
#67=FACE_OUTER_BOUND('',#105,.T.);
#68=FACE_OUTER_BOUND('',#106,.T.);
#69=FACE_OUTER_BOUND('',#107,.T.);
#70=FACE_OUTER_BOUND('',#108,.T.);
#71=FACE_OUTER_BOUND('',#109,.T.);
#72=FACE_OUTER_BOUND('',#110,.T.);
#73=FACE_OUTER_BOUND('',#111,.T.);
#74=FACE_OUTER_BOUND('',#112,.T.);
#75=FACE_OUTER_BOUND('',#113,.T.);
#76=FACE_OUTER_BOUND('',#114,.T.);
#77=FACE_OUTER_BOUND('',#115,.T.);
#78=FACE_OUTER_BOUND('',#116,.T.);
#79=FACE_OUTER_BOUND('',#117,.T.);
#80=FACE_OUTER_BOUND('',#125,.T.);
#81=EDGE_LOOP('',(#340,#341,#342,#343));
#82=EDGE_LOOP('',(#344,#345,#346,#347));
#83=EDGE_LOOP('',(#348));
#84=EDGE_LOOP('',(#349));
#85=EDGE_LOOP('',(#350));
#86=EDGE_LOOP('',(#351));
#87=EDGE_LOOP('',(#352));
#88=EDGE_LOOP('',(#353));
#89=EDGE_LOOP('',(#354));
#90=EDGE_LOOP('',(#355));
#91=EDGE_LOOP('',(#356));
#92=EDGE_LOOP('',(#357));
#93=EDGE_LOOP('',(#358,#359,#360,#361,#362));
#94=EDGE_LOOP('',(#363,#364,#365,#366));
#95=EDGE_LOOP('',(#367,#368,#369,#370,#371));
#96=EDGE_LOOP('',(#372,#373,#374,#375));
#97=EDGE_LOOP('',(#376,#377,#378,#379,#380));
#98=EDGE_LOOP('',(#381,#382,#383,#384));
#99=EDGE_LOOP('',(#385,#386,#387,#388,#389));
#100=EDGE_LOOP('',(#390,#391,#392,#393));
#101=EDGE_LOOP('',(#394,#395,#396,#397,#398));
#102=EDGE_LOOP('',(#399,#400,#401,#402));
#103=EDGE_LOOP('',(#403,#404,#405,#406,#407));
#104=EDGE_LOOP('',(#408,#409,#410,#411));
#105=EDGE_LOOP('',(#412,#413,#414,#415,#416));
#106=EDGE_LOOP('',(#417,#418,#419,#420,#421));
#107=EDGE_LOOP('',(#422,#423,#424,#425,#426));
#108=EDGE_LOOP('',(#427,#428,#429,#430,#431));
#109=EDGE_LOOP('',(#432,#433,#434,#435,#436));
#110=EDGE_LOOP('',(#437,#438,#439,#440,#441));
#111=EDGE_LOOP('',(#442,#443,#444,#445));
#112=EDGE_LOOP('',(#446,#447,#448,#449,#450));
#113=EDGE_LOOP('',(#451,#452,#453,#454,#455));
#114=EDGE_LOOP('',(#456,#457,#458,#459,#460,#461));
#115=EDGE_LOOP('',(#462,#463,#464,#465,#466));
#116=EDGE_LOOP('',(#467,#468,#469,#470,#471));
#117=EDGE_LOOP('',(#472));
#118=EDGE_LOOP('',(#473));
#119=EDGE_LOOP('',(#474));
#120=EDGE_LOOP('',(#475));
#121=EDGE_LOOP('',(#476));
#122=EDGE_LOOP('',(#477));
#123=EDGE_LOOP('',(#478));
#124=EDGE_LOOP('',(#479));
#125=EDGE_LOOP('',(#480));
#126=EDGE_LOOP('',(#481));
#127=LINE('',#794,#153);
#128=LINE('',#800,#154);
#129=LINE('',#824,#155);
#130=LINE('',#829,#156);
#131=LINE('',#836,#157);
#132=LINE('',#841,#158);
#133=LINE('',#848,#159);
#134=LINE('',#853,#160);
#135=LINE('',#860,#161);
#136=LINE('',#865,#162);
#137=LINE('',#872,#163);
#138=LINE('',#877,#164);
#139=LINE('',#884,#165);
#140=LINE('',#889,#166);
#141=LINE('',#891,#167);
#142=LINE('',#893,#168);
#143=LINE('',#895,#169);
#144=LINE('',#897,#170);
#145=LINE('',#899,#171);
#146=LINE('',#901,#172);
#147=LINE('',#905,#173);
#148=LINE('',#912,#174);
#149=LINE('',#918,#175);
#150=LINE('',#926,#176);
#151=LINE('',#930,#177);
#152=LINE('',#933,#178);
#153=VECTOR('',#617,2.);
#154=VECTOR('',#624,3.);
#155=VECTOR('',#651,2.59999999999998);
#156=VECTOR('',#658,2.2);
#157=VECTOR('',#665,2.59999999999998);
#158=VECTOR('',#672,2.2);
#159=VECTOR('',#679,2.59999999999998);
#160=VECTOR('',#686,2.2);
#161=VECTOR('',#693,2.59999999999997);
#162=VECTOR('',#700,2.2);
#163=VECTOR('',#707,2.59999999999998);
#164=VECTOR('',#714,2.2);
#165=VECTOR('',#721,2.59999999999998);
#166=VECTOR('',#728,2.2);
#167=VECTOR('',#731,2.2);
#168=VECTOR('',#734,2.2);
#169=VECTOR('',#737,2.2);
#170=VECTOR('',#740,2.2);
#171=VECTOR('',#743,2.2);
#172=VECTOR('',#746,2.2);
#173=VECTOR('',#751,17.);
#174=VECTOR('',#758,16.6);
#175=VECTOR('',#765,8.93161785944027);
#176=VECTOR('',#774,9.15);
#177=VECTOR('',#779,10.75);
#178=VECTOR('',#784,17.);
#179=CIRCLE('',#537,2.);
#180=CIRCLE('',#538,2.);
#181=CIRCLE('',#540,3.);
#182=CIRCLE('',#541,3.);
#183=CIRCLE('',#544,16.6);
#184=CIRCLE('',#545,2.60000000000001);
#185=CIRCLE('',#546,2.60000000000002);
#186=CIRCLE('',#547,2.60000000000002);
#187=CIRCLE('',#548,2.60000000000002);
#188=CIRCLE('',#549,2.60000000000002);
#189=CIRCLE('',#550,2.60000000000002);
#190=CIRCLE('',#552,2.2);
#191=CIRCLE('',#553,2.2);
#192=CIRCLE('',#554,2.59999999999998);
#193=CIRCLE('',#556,2.2);
#194=CIRCLE('',#558,2.2);
#195=CIRCLE('',#559,2.2);
#196=CIRCLE('',#560,2.59999999999998);
#197=CIRCLE('',#562,2.2);
#198=CIRCLE('',#564,2.2);
#199=CIRCLE('',#565,2.2);
#200=CIRCLE('',#566,2.59999999999998);
#201=CIRCLE('',#568,2.2);
#202=CIRCLE('',#570,2.2);
#203=CIRCLE('',#571,2.2);
#204=CIRCLE('',#572,2.59999999999997);
#205=CIRCLE('',#574,2.2);
#206=CIRCLE('',#576,2.2);
#207=CIRCLE('',#577,2.2);
#208=CIRCLE('',#578,2.59999999999998);
#209=CIRCLE('',#580,2.2);
#210=CIRCLE('',#582,2.2);
#211=CIRCLE('',#583,2.2);
#212=CIRCLE('',#584,2.59999999999998);
#213=CIRCLE('',#586,2.2);
#214=CIRCLE('',#594,17.);
#215=CIRCLE('',#596,17.);
#216=CIRCLE('',#597,17.);
#217=CIRCLE('',#598,16.6);
#218=CIRCLE('',#600,8.93161785944027);
#219=CIRCLE('',#601,9.15);
#220=CIRCLE('',#602,9.15);
#221=CIRCLE('',#604,10.75);
#222=CIRCLE('',#605,10.75);
#223=CIRCLE('',#607,10.75);
#224=VERTEX_POINT('',#791);
#225=VERTEX_POINT('',#793);
#226=VERTEX_POINT('',#797);
#227=VERTEX_POINT('',#799);
#228=VERTEX_POINT('',#804);
#229=VERTEX_POINT('',#806);
#230=VERTEX_POINT('',#808);
#231=VERTEX_POINT('',#810);
#232=VERTEX_POINT('',#812);
#233=VERTEX_POINT('',#814);
#234=VERTEX_POINT('',#816);
#235=VERTEX_POINT('',#819);
#236=VERTEX_POINT('',#820);
#237=VERTEX_POINT('',#823);
#238=VERTEX_POINT('',#827);
#239=VERTEX_POINT('',#831);
#240=VERTEX_POINT('',#832);
#241=VERTEX_POINT('',#835);
#242=VERTEX_POINT('',#839);
#243=VERTEX_POINT('',#843);
#244=VERTEX_POINT('',#844);
#245=VERTEX_POINT('',#847);
#246=VERTEX_POINT('',#851);
#247=VERTEX_POINT('',#855);
#248=VERTEX_POINT('',#856);
#249=VERTEX_POINT('',#859);
#250=VERTEX_POINT('',#863);
#251=VERTEX_POINT('',#867);
#252=VERTEX_POINT('',#868);
#253=VERTEX_POINT('',#871);
#254=VERTEX_POINT('',#875);
#255=VERTEX_POINT('',#879);
#256=VERTEX_POINT('',#880);
#257=VERTEX_POINT('',#883);
#258=VERTEX_POINT('',#887);
#259=VERTEX_POINT('',#903);
#260=VERTEX_POINT('',#907);
#261=VERTEX_POINT('',#908);
#262=VERTEX_POINT('',#911);
#263=VERTEX_POINT('',#915);
#264=VERTEX_POINT('',#917);
#265=VERTEX_POINT('',#919);
#266=VERTEX_POINT('',#923);
#267=VERTEX_POINT('',#924);
#268=VERTEX_POINT('',#929);
#269=EDGE_CURVE('',#224,#224,#179,.T.);
#270=EDGE_CURVE('',#224,#225,#127,.T.);
#271=EDGE_CURVE('',#225,#225,#180,.T.);
#272=EDGE_CURVE('',#226,#226,#181,.T.);
#273=EDGE_CURVE('',#226,#227,#128,.T.);
#274=EDGE_CURVE('',#227,#227,#182,.T.);
#275=EDGE_CURVE('',#228,#228,#183,.T.);
#276=EDGE_CURVE('',#229,#229,#184,.T.);
#277=EDGE_CURVE('',#230,#230,#185,.T.);
#278=EDGE_CURVE('',#231,#231,#186,.T.);
#279=EDGE_CURVE('',#232,#232,#187,.T.);
#280=EDGE_CURVE('',#233,#233,#188,.T.);
#281=EDGE_CURVE('',#234,#234,#189,.T.);
#282=EDGE_CURVE('',#235,#236,#190,.T.);
#283=EDGE_CURVE('',#236,#235,#191,.T.);
#284=EDGE_CURVE('',#236,#237,#129,.T.);
#285=EDGE_CURVE('',#237,#237,#192,.T.);
#286=EDGE_CURVE('',#238,#238,#193,.T.);
#287=EDGE_CURVE('',#238,#229,#130,.T.);
#288=EDGE_CURVE('',#239,#240,#194,.T.);
#289=EDGE_CURVE('',#240,#239,#195,.T.);
#290=EDGE_CURVE('',#240,#241,#131,.T.);
#291=EDGE_CURVE('',#241,#241,#196,.T.);
#292=EDGE_CURVE('',#242,#242,#197,.T.);
#293=EDGE_CURVE('',#242,#230,#132,.T.);
#294=EDGE_CURVE('',#243,#244,#198,.T.);
#295=EDGE_CURVE('',#244,#243,#199,.T.);
#296=EDGE_CURVE('',#244,#245,#133,.T.);
#297=EDGE_CURVE('',#245,#245,#200,.T.);
#298=EDGE_CURVE('',#246,#246,#201,.T.);
#299=EDGE_CURVE('',#246,#231,#134,.T.);
#300=EDGE_CURVE('',#247,#248,#202,.T.);
#301=EDGE_CURVE('',#248,#247,#203,.T.);
#302=EDGE_CURVE('',#248,#249,#135,.T.);
#303=EDGE_CURVE('',#249,#249,#204,.T.);
#304=EDGE_CURVE('',#250,#250,#205,.T.);
#305=EDGE_CURVE('',#250,#232,#136,.T.);
#306=EDGE_CURVE('',#251,#252,#206,.T.);
#307=EDGE_CURVE('',#252,#251,#207,.T.);
#308=EDGE_CURVE('',#252,#253,#137,.T.);
#309=EDGE_CURVE('',#253,#253,#208,.T.);
#310=EDGE_CURVE('',#254,#254,#209,.T.);
#311=EDGE_CURVE('',#254,#233,#138,.T.);
#312=EDGE_CURVE('',#255,#256,#210,.T.);
#313=EDGE_CURVE('',#256,#255,#211,.T.);
#314=EDGE_CURVE('',#256,#257,#139,.T.);
#315=EDGE_CURVE('',#257,#257,#212,.T.);
#316=EDGE_CURVE('',#258,#258,#213,.T.);
#317=EDGE_CURVE('',#258,#234,#140,.T.);
#318=EDGE_CURVE('',#243,#246,#141,.T.);
#319=EDGE_CURVE('',#247,#250,#142,.T.);
#320=EDGE_CURVE('',#251,#254,#143,.T.);
#321=EDGE_CURVE('',#255,#258,#144,.T.);
#322=EDGE_CURVE('',#235,#238,#145,.T.);
#323=EDGE_CURVE('',#239,#242,#146,.T.);
#324=EDGE_CURVE('',#259,#259,#214,.T.);
#325=EDGE_CURVE('',#259,#228,#147,.T.);
#326=EDGE_CURVE('',#260,#261,#215,.T.);
#327=EDGE_CURVE('',#261,#260,#216,.T.);
#328=EDGE_CURVE('',#261,#262,#148,.T.);
#329=EDGE_CURVE('',#262,#262,#217,.T.);
#330=EDGE_CURVE('',#263,#263,#218,.T.);
#331=EDGE_CURVE('',#263,#264,#149,.T.);
#332=EDGE_CURVE('',#264,#265,#219,.T.);
#333=EDGE_CURVE('',#265,#264,#220,.T.);
#334=EDGE_CURVE('',#266,#267,#221,.T.);
#335=EDGE_CURVE('',#267,#265,#150,.T.);
#336=EDGE_CURVE('',#267,#266,#222,.T.);
#337=EDGE_CURVE('',#266,#268,#151,.T.);
#338=EDGE_CURVE('',#268,#268,#223,.T.);
#339=EDGE_CURVE('',#260,#259,#152,.T.);
#340=ORIENTED_EDGE('',*,*,#269,.F.);
#341=ORIENTED_EDGE('',*,*,#270,.T.);
#342=ORIENTED_EDGE('',*,*,#271,.F.);
#343=ORIENTED_EDGE('',*,*,#270,.F.);
#344=ORIENTED_EDGE('',*,*,#272,.F.);
#345=ORIENTED_EDGE('',*,*,#273,.T.);
#346=ORIENTED_EDGE('',*,*,#274,.F.);
#347=ORIENTED_EDGE('',*,*,#273,.F.);
#348=ORIENTED_EDGE('',*,*,#272,.T.);
#349=ORIENTED_EDGE('',*,*,#269,.T.);
#350=ORIENTED_EDGE('',*,*,#275,.T.);
#351=ORIENTED_EDGE('',*,*,#276,.T.);
#352=ORIENTED_EDGE('',*,*,#277,.T.);
#353=ORIENTED_EDGE('',*,*,#278,.T.);
#354=ORIENTED_EDGE('',*,*,#279,.T.);
#355=ORIENTED_EDGE('',*,*,#280,.T.);
#356=ORIENTED_EDGE('',*,*,#281,.T.);
#357=ORIENTED_EDGE('',*,*,#274,.T.);
#358=ORIENTED_EDGE('',*,*,#282,.F.);
#359=ORIENTED_EDGE('',*,*,#283,.F.);
#360=ORIENTED_EDGE('',*,*,#284,.T.);
#361=ORIENTED_EDGE('',*,*,#285,.F.);
#362=ORIENTED_EDGE('',*,*,#284,.F.);
#363=ORIENTED_EDGE('',*,*,#286,.F.);
#364=ORIENTED_EDGE('',*,*,#287,.T.);
#365=ORIENTED_EDGE('',*,*,#276,.F.);
#366=ORIENTED_EDGE('',*,*,#287,.F.);
#367=ORIENTED_EDGE('',*,*,#288,.F.);
#368=ORIENTED_EDGE('',*,*,#289,.F.);
#369=ORIENTED_EDGE('',*,*,#290,.T.);
#370=ORIENTED_EDGE('',*,*,#291,.F.);
#371=ORIENTED_EDGE('',*,*,#290,.F.);
#372=ORIENTED_EDGE('',*,*,#292,.F.);
#373=ORIENTED_EDGE('',*,*,#293,.T.);
#374=ORIENTED_EDGE('',*,*,#277,.F.);
#375=ORIENTED_EDGE('',*,*,#293,.F.);
#376=ORIENTED_EDGE('',*,*,#294,.F.);
#377=ORIENTED_EDGE('',*,*,#295,.F.);
#378=ORIENTED_EDGE('',*,*,#296,.T.);
#379=ORIENTED_EDGE('',*,*,#297,.F.);
#380=ORIENTED_EDGE('',*,*,#296,.F.);
#381=ORIENTED_EDGE('',*,*,#298,.F.);
#382=ORIENTED_EDGE('',*,*,#299,.T.);
#383=ORIENTED_EDGE('',*,*,#278,.F.);
#384=ORIENTED_EDGE('',*,*,#299,.F.);
#385=ORIENTED_EDGE('',*,*,#300,.F.);
#386=ORIENTED_EDGE('',*,*,#301,.F.);
#387=ORIENTED_EDGE('',*,*,#302,.T.);
#388=ORIENTED_EDGE('',*,*,#303,.F.);
#389=ORIENTED_EDGE('',*,*,#302,.F.);
#390=ORIENTED_EDGE('',*,*,#304,.F.);
#391=ORIENTED_EDGE('',*,*,#305,.T.);
#392=ORIENTED_EDGE('',*,*,#279,.F.);
#393=ORIENTED_EDGE('',*,*,#305,.F.);
#394=ORIENTED_EDGE('',*,*,#306,.F.);
#395=ORIENTED_EDGE('',*,*,#307,.F.);
#396=ORIENTED_EDGE('',*,*,#308,.T.);
#397=ORIENTED_EDGE('',*,*,#309,.F.);
#398=ORIENTED_EDGE('',*,*,#308,.F.);
#399=ORIENTED_EDGE('',*,*,#310,.F.);
#400=ORIENTED_EDGE('',*,*,#311,.T.);
#401=ORIENTED_EDGE('',*,*,#280,.F.);
#402=ORIENTED_EDGE('',*,*,#311,.F.);
#403=ORIENTED_EDGE('',*,*,#312,.F.);
#404=ORIENTED_EDGE('',*,*,#313,.F.);
#405=ORIENTED_EDGE('',*,*,#314,.T.);
#406=ORIENTED_EDGE('',*,*,#315,.F.);
#407=ORIENTED_EDGE('',*,*,#314,.F.);
#408=ORIENTED_EDGE('',*,*,#316,.F.);
#409=ORIENTED_EDGE('',*,*,#317,.T.);
#410=ORIENTED_EDGE('',*,*,#281,.F.);
#411=ORIENTED_EDGE('',*,*,#317,.F.);
#412=ORIENTED_EDGE('',*,*,#294,.T.);
#413=ORIENTED_EDGE('',*,*,#295,.T.);
#414=ORIENTED_EDGE('',*,*,#318,.T.);
#415=ORIENTED_EDGE('',*,*,#298,.T.);
#416=ORIENTED_EDGE('',*,*,#318,.F.);
#417=ORIENTED_EDGE('',*,*,#300,.T.);
#418=ORIENTED_EDGE('',*,*,#301,.T.);
#419=ORIENTED_EDGE('',*,*,#319,.T.);
#420=ORIENTED_EDGE('',*,*,#304,.T.);
#421=ORIENTED_EDGE('',*,*,#319,.F.);
#422=ORIENTED_EDGE('',*,*,#306,.T.);
#423=ORIENTED_EDGE('',*,*,#307,.T.);
#424=ORIENTED_EDGE('',*,*,#320,.T.);
#425=ORIENTED_EDGE('',*,*,#310,.T.);
#426=ORIENTED_EDGE('',*,*,#320,.F.);
#427=ORIENTED_EDGE('',*,*,#312,.T.);
#428=ORIENTED_EDGE('',*,*,#313,.T.);
#429=ORIENTED_EDGE('',*,*,#321,.T.);
#430=ORIENTED_EDGE('',*,*,#316,.T.);
#431=ORIENTED_EDGE('',*,*,#321,.F.);
#432=ORIENTED_EDGE('',*,*,#282,.T.);
#433=ORIENTED_EDGE('',*,*,#283,.T.);
#434=ORIENTED_EDGE('',*,*,#322,.T.);
#435=ORIENTED_EDGE('',*,*,#286,.T.);
#436=ORIENTED_EDGE('',*,*,#322,.F.);
#437=ORIENTED_EDGE('',*,*,#288,.T.);
#438=ORIENTED_EDGE('',*,*,#289,.T.);
#439=ORIENTED_EDGE('',*,*,#323,.T.);
#440=ORIENTED_EDGE('',*,*,#292,.T.);
#441=ORIENTED_EDGE('',*,*,#323,.F.);
#442=ORIENTED_EDGE('',*,*,#324,.F.);
#443=ORIENTED_EDGE('',*,*,#325,.T.);
#444=ORIENTED_EDGE('',*,*,#275,.F.);
#445=ORIENTED_EDGE('',*,*,#325,.F.);
#446=ORIENTED_EDGE('',*,*,#326,.F.);
#447=ORIENTED_EDGE('',*,*,#327,.F.);
#448=ORIENTED_EDGE('',*,*,#328,.T.);
#449=ORIENTED_EDGE('',*,*,#329,.F.);
#450=ORIENTED_EDGE('',*,*,#328,.F.);
#451=ORIENTED_EDGE('',*,*,#330,.F.);
#452=ORIENTED_EDGE('',*,*,#331,.T.);
#453=ORIENTED_EDGE('',*,*,#332,.T.);
#454=ORIENTED_EDGE('',*,*,#333,.T.);
#455=ORIENTED_EDGE('',*,*,#331,.F.);
#456=ORIENTED_EDGE('',*,*,#334,.T.);
#457=ORIENTED_EDGE('',*,*,#335,.T.);
#458=ORIENTED_EDGE('',*,*,#332,.F.);
#459=ORIENTED_EDGE('',*,*,#333,.F.);
#460=ORIENTED_EDGE('',*,*,#335,.F.);
#461=ORIENTED_EDGE('',*,*,#336,.T.);
#462=ORIENTED_EDGE('',*,*,#334,.F.);
#463=ORIENTED_EDGE('',*,*,#337,.T.);
#464=ORIENTED_EDGE('',*,*,#338,.T.);
#465=ORIENTED_EDGE('',*,*,#337,.F.);
#466=ORIENTED_EDGE('',*,*,#336,.F.);
#467=ORIENTED_EDGE('',*,*,#326,.T.);
#468=ORIENTED_EDGE('',*,*,#327,.T.);
#469=ORIENTED_EDGE('',*,*,#339,.T.);
#470=ORIENTED_EDGE('',*,*,#324,.T.);
#471=ORIENTED_EDGE('',*,*,#339,.F.);
#472=ORIENTED_EDGE('',*,*,#329,.T.);
#473=ORIENTED_EDGE('',*,*,#338,.F.);
#474=ORIENTED_EDGE('',*,*,#315,.T.);
#475=ORIENTED_EDGE('',*,*,#309,.T.);
#476=ORIENTED_EDGE('',*,*,#303,.T.);
#477=ORIENTED_EDGE('',*,*,#297,.T.);
#478=ORIENTED_EDGE('',*,*,#291,.T.);
#479=ORIENTED_EDGE('',*,*,#285,.T.);
#480=ORIENTED_EDGE('',*,*,#330,.T.);
#481=ORIENTED_EDGE('',*,*,#271,.T.);
#482=CYLINDRICAL_SURFACE('',#536,2.);
#483=CYLINDRICAL_SURFACE('',#539,3.);
#484=CYLINDRICAL_SURFACE('',#587,2.2);
#485=CYLINDRICAL_SURFACE('',#588,2.2);
#486=CYLINDRICAL_SURFACE('',#589,2.2);
#487=CYLINDRICAL_SURFACE('',#590,2.2);
#488=CYLINDRICAL_SURFACE('',#591,2.2);
#489=CYLINDRICAL_SURFACE('',#592,2.2);
#490=CYLINDRICAL_SURFACE('',#606,10.75);
#491=CYLINDRICAL_SURFACE('',#608,17.);
#492=ADVANCED_FACE('',(#51),#482,.F.);
#493=ADVANCED_FACE('',(#52),#483,.T.);
#494=ADVANCED_FACE('',(#53,#31),#47,.F.);
#495=ADVANCED_FACE('',(#54,#32,#33,#34,#35,#36,#37,#38),#48,.T.);
#496=ADVANCED_FACE('',(#55),#15,.F.);
#497=ADVANCED_FACE('',(#56),#16,.F.);
#498=ADVANCED_FACE('',(#57),#17,.F.);
#499=ADVANCED_FACE('',(#58),#18,.F.);
#500=ADVANCED_FACE('',(#59),#19,.F.);
#501=ADVANCED_FACE('',(#60),#20,.F.);
#502=ADVANCED_FACE('',(#61),#21,.F.);
#503=ADVANCED_FACE('',(#62),#22,.F.);
#504=ADVANCED_FACE('',(#63),#23,.F.);
#505=ADVANCED_FACE('',(#64),#24,.F.);
#506=ADVANCED_FACE('',(#65),#25,.F.);
#507=ADVANCED_FACE('',(#66),#26,.F.);
#508=ADVANCED_FACE('',(#67),#484,.F.);
#509=ADVANCED_FACE('',(#68),#485,.F.);
#510=ADVANCED_FACE('',(#69),#486,.F.);
#511=ADVANCED_FACE('',(#70),#487,.F.);
#512=ADVANCED_FACE('',(#71),#488,.F.);
#513=ADVANCED_FACE('',(#72),#489,.F.);
#514=ADVANCED_FACE('',(#73),#27,.T.);
#515=ADVANCED_FACE('',(#74),#28,.T.);
#516=ADVANCED_FACE('',(#75),#29,.F.);
#517=ADVANCED_FACE('',(#76),#30,.T.);
#518=ADVANCED_FACE('',(#77),#490,.F.);
#519=ADVANCED_FACE('',(#78),#491,.T.);
#520=ADVANCED_FACE('',(#79,#39,#40,#41,#42,#43,#44,#45),#49,.T.);
#521=ADVANCED_FACE('',(#80,#46),#50,.T.);
#522=CLOSED_SHELL('',(#492,#493,#494,#495,#496,#497,#498,#499,#500,#501,
#502,#503,#504,#505,#506,#507,#508,#509,#510,#511,#512,#513,#514,#515,#516,
#517,#518,#519,#520,#521));
#523=DERIVED_UNIT_ELEMENT(#525,1.);
#524=DERIVED_UNIT_ELEMENT(#941,-3.);
#525=(
MASS_UNIT()
NAMED_UNIT(*)
SI_UNIT(.KILO.,.GRAM.)
);
#526=DERIVED_UNIT((#523,#524));
#527=MEASURE_REPRESENTATION_ITEM('density measure',
POSITIVE_RATIO_MEASURE(7850.),#526);
#528=PROPERTY_DEFINITION_REPRESENTATION(#533,#530);
#529=PROPERTY_DEFINITION_REPRESENTATION(#534,#531);
#530=REPRESENTATION('material name',(#532),#938);
#531=REPRESENTATION('density',(#527),#938);
#532=DESCRIPTIVE_REPRESENTATION_ITEM('Steel','Steel');
#533=PROPERTY_DEFINITION('material property','material name',#948);
#534=PROPERTY_DEFINITION('material property','density of part',#948);
#535=AXIS2_PLACEMENT_3D('',#789,#611,#612);
#536=AXIS2_PLACEMENT_3D('',#790,#613,#614);
#537=AXIS2_PLACEMENT_3D('',#792,#615,#616);
#538=AXIS2_PLACEMENT_3D('',#795,#618,#619);
#539=AXIS2_PLACEMENT_3D('',#796,#620,#621);
#540=AXIS2_PLACEMENT_3D('',#798,#622,#623);
#541=AXIS2_PLACEMENT_3D('',#801,#625,#626);
#542=AXIS2_PLACEMENT_3D('',#802,#627,#628);
#543=AXIS2_PLACEMENT_3D('',#803,#629,#630);
#544=AXIS2_PLACEMENT_3D('',#805,#631,#632);
#545=AXIS2_PLACEMENT_3D('',#807,#633,#634);
#546=AXIS2_PLACEMENT_3D('',#809,#635,#636);
#547=AXIS2_PLACEMENT_3D('',#811,#637,#638);
#548=AXIS2_PLACEMENT_3D('',#813,#639,#640);
#549=AXIS2_PLACEMENT_3D('',#815,#641,#642);
#550=AXIS2_PLACEMENT_3D('',#817,#643,#644);
#551=AXIS2_PLACEMENT_3D('',#818,#645,#646);
#552=AXIS2_PLACEMENT_3D('',#821,#647,#648);
#553=AXIS2_PLACEMENT_3D('',#822,#649,#650);
#554=AXIS2_PLACEMENT_3D('',#825,#652,#653);
#555=AXIS2_PLACEMENT_3D('',#826,#654,#655);
#556=AXIS2_PLACEMENT_3D('',#828,#656,#657);
#557=AXIS2_PLACEMENT_3D('',#830,#659,#660);
#558=AXIS2_PLACEMENT_3D('',#833,#661,#662);
#559=AXIS2_PLACEMENT_3D('',#834,#663,#664);
#560=AXIS2_PLACEMENT_3D('',#837,#666,#667);
#561=AXIS2_PLACEMENT_3D('',#838,#668,#669);
#562=AXIS2_PLACEMENT_3D('',#840,#670,#671);
#563=AXIS2_PLACEMENT_3D('',#842,#673,#674);
#564=AXIS2_PLACEMENT_3D('',#845,#675,#676);
#565=AXIS2_PLACEMENT_3D('',#846,#677,#678);
#566=AXIS2_PLACEMENT_3D('',#849,#680,#681);
#567=AXIS2_PLACEMENT_3D('',#850,#682,#683);
#568=AXIS2_PLACEMENT_3D('',#852,#684,#685);
#569=AXIS2_PLACEMENT_3D('',#854,#687,#688);
#570=AXIS2_PLACEMENT_3D('',#857,#689,#690);
#571=AXIS2_PLACEMENT_3D('',#858,#691,#692);
#572=AXIS2_PLACEMENT_3D('',#861,#694,#695);
#573=AXIS2_PLACEMENT_3D('',#862,#696,#697);
#574=AXIS2_PLACEMENT_3D('',#864,#698,#699);
#575=AXIS2_PLACEMENT_3D('',#866,#701,#702);
#576=AXIS2_PLACEMENT_3D('',#869,#703,#704);
#577=AXIS2_PLACEMENT_3D('',#870,#705,#706);
#578=AXIS2_PLACEMENT_3D('',#873,#708,#709);
#579=AXIS2_PLACEMENT_3D('',#874,#710,#711);
#580=AXIS2_PLACEMENT_3D('',#876,#712,#713);
#581=AXIS2_PLACEMENT_3D('',#878,#715,#716);
#582=AXIS2_PLACEMENT_3D('',#881,#717,#718);
#583=AXIS2_PLACEMENT_3D('',#882,#719,#720);
#584=AXIS2_PLACEMENT_3D('',#885,#722,#723);
#585=AXIS2_PLACEMENT_3D('',#886,#724,#725);
#586=AXIS2_PLACEMENT_3D('',#888,#726,#727);
#587=AXIS2_PLACEMENT_3D('',#890,#729,#730);
#588=AXIS2_PLACEMENT_3D('',#892,#732,#733);
#589=AXIS2_PLACEMENT_3D('',#894,#735,#736);
#590=AXIS2_PLACEMENT_3D('',#896,#738,#739);
#591=AXIS2_PLACEMENT_3D('',#898,#741,#742);
#592=AXIS2_PLACEMENT_3D('',#900,#744,#745);
#593=AXIS2_PLACEMENT_3D('',#902,#747,#748);
#594=AXIS2_PLACEMENT_3D('',#904,#749,#750);
#595=AXIS2_PLACEMENT_3D('',#906,#752,#753);
#596=AXIS2_PLACEMENT_3D('',#909,#754,#755);
#597=AXIS2_PLACEMENT_3D('',#910,#756,#757);
#598=AXIS2_PLACEMENT_3D('',#913,#759,#760);
#599=AXIS2_PLACEMENT_3D('',#914,#761,#762);
#600=AXIS2_PLACEMENT_3D('',#916,#763,#764);
#601=AXIS2_PLACEMENT_3D('',#920,#766,#767);
#602=AXIS2_PLACEMENT_3D('',#921,#768,#769);
#603=AXIS2_PLACEMENT_3D('',#922,#770,#771);
#604=AXIS2_PLACEMENT_3D('',#925,#772,#773);
#605=AXIS2_PLACEMENT_3D('',#927,#775,#776);
#606=AXIS2_PLACEMENT_3D('',#928,#777,#778);
#607=AXIS2_PLACEMENT_3D('',#931,#780,#781);
#608=AXIS2_PLACEMENT_3D('',#932,#782,#783);
#609=AXIS2_PLACEMENT_3D('',#934,#785,#786);
#610=AXIS2_PLACEMENT_3D('',#935,#787,#788);
#611=DIRECTION('axis',(0.,0.,1.));
#612=DIRECTION('refdir',(1.,0.,0.));
#613=DIRECTION('center_axis',(0.,-1.,0.));
#614=DIRECTION('ref_axis',(1.,0.,0.));
#615=DIRECTION('center_axis',(0.,1.,0.));
#616=DIRECTION('ref_axis',(1.,0.,0.));
#617=DIRECTION('',(0.,1.,0.));
#618=DIRECTION('center_axis',(0.,-1.,0.));
#619=DIRECTION('ref_axis',(1.,0.,0.));
#620=DIRECTION('center_axis',(0.,-1.,0.));
#621=DIRECTION('ref_axis',(1.,0.,0.));
#622=DIRECTION('center_axis',(0.,-1.,0.));
#623=DIRECTION('ref_axis',(1.,0.,0.));
#624=DIRECTION('',(0.,1.,0.));
#625=DIRECTION('center_axis',(0.,1.,0.));
#626=DIRECTION('ref_axis',(1.,0.,0.));
#627=DIRECTION('center_axis',(0.,1.,0.));
#628=DIRECTION('ref_axis',(1.,0.,0.));
#629=DIRECTION('center_axis',(0.,-1.,0.));
#630=DIRECTION('ref_axis',(0.,0.,-1.));
#631=DIRECTION('center_axis',(0.,-1.,0.));
#632=DIRECTION('ref_axis',(0.,0.,-1.));
#633=DIRECTION('center_axis',(0.,1.,0.));
#634=DIRECTION('ref_axis',(0.,0.,-1.));
#635=DIRECTION('center_axis',(0.,1.,0.));
#636=DIRECTION('ref_axis',(0.,0.,-1.));
#637=DIRECTION('center_axis',(0.,1.,0.));
#638=DIRECTION('ref_axis',(0.,0.,-1.));
#639=DIRECTION('center_axis',(0.,1.,0.));
#640=DIRECTION('ref_axis',(0.,0.,-1.));
#641=DIRECTION('center_axis',(0.,1.,0.));
#642=DIRECTION('ref_axis',(0.,0.,-1.));
#643=DIRECTION('center_axis',(0.,1.,0.));
#644=DIRECTION('ref_axis',(0.,0.,-1.));
#645=DIRECTION('center_axis',(0.,1.,0.));
#646=DIRECTION('ref_axis',(0.,0.,1.));
#647=DIRECTION('center_axis',(0.,1.,0.));
#648=DIRECTION('ref_axis',(0.,0.,1.));
#649=DIRECTION('center_axis',(0.,1.,0.));
#650=DIRECTION('ref_axis',(0.,0.,1.));
#651=DIRECTION('',(-8.65956056235494E-17,0.707106781186547,-0.707106781186548));
#652=DIRECTION('center_axis',(0.,-1.,0.));
#653=DIRECTION('ref_axis',(0.,0.,1.));
#654=DIRECTION('center_axis',(0.,-1.,0.));
#655=DIRECTION('ref_axis',(0.,0.,-1.));
#656=DIRECTION('center_axis',(0.,-1.,0.));
#657=DIRECTION('ref_axis',(0.,0.,-1.));
#658=DIRECTION('',(-8.65956056235494E-17,-0.707106781186547,0.707106781186548));
#659=DIRECTION('center_axis',(0.,1.,0.));
#660=DIRECTION('ref_axis',(0.,0.,1.));
#661=DIRECTION('center_axis',(0.,1.,0.));
#662=DIRECTION('ref_axis',(0.,0.,1.));
#663=DIRECTION('center_axis',(0.,1.,0.));
#664=DIRECTION('ref_axis',(0.,0.,1.));
#665=DIRECTION('',(-8.65956056235491E-17,0.707106781186549,-0.707106781186546));
#666=DIRECTION('center_axis',(0.,-1.,0.));
#667=DIRECTION('ref_axis',(0.,0.,1.));
#668=DIRECTION('center_axis',(0.,-1.,0.));
#669=DIRECTION('ref_axis',(0.,0.,-1.));
#670=DIRECTION('center_axis',(0.,-1.,0.));
#671=DIRECTION('ref_axis',(0.,0.,-1.));
#672=DIRECTION('',(-8.65956056235499E-17,-0.707106781186543,0.707106781186552));
#673=DIRECTION('center_axis',(0.,1.,0.));
#674=DIRECTION('ref_axis',(0.,0.,1.));
#675=DIRECTION('center_axis',(0.,1.,0.));
#676=DIRECTION('ref_axis',(0.,0.,1.));
#677=DIRECTION('center_axis',(0.,1.,0.));
#678=DIRECTION('ref_axis',(0.,0.,1.));
#679=DIRECTION('',(-8.65956056235496E-17,0.707106781186545,-0.70710678118655));
#680=DIRECTION('center_axis',(0.,-1.,0.));
#681=DIRECTION('ref_axis',(0.,0.,1.));
#682=DIRECTION('center_axis',(0.,-1.,0.));
#683=DIRECTION('ref_axis',(0.,0.,-1.));
#684=DIRECTION('center_axis',(0.,-1.,0.));
#685=DIRECTION('ref_axis',(0.,0.,-1.));
#686=DIRECTION('',(-8.65956056235497E-17,-0.707106781186545,0.707106781186551));
#687=DIRECTION('center_axis',(0.,1.,0.));
#688=DIRECTION('ref_axis',(0.,0.,1.));
#689=DIRECTION('center_axis',(0.,1.,0.));
#690=DIRECTION('ref_axis',(0.,0.,1.));
#691=DIRECTION('center_axis',(0.,1.,0.));
#692=DIRECTION('ref_axis',(0.,0.,1.));
#693=DIRECTION('',(-8.65956056235497E-17,0.707106781186544,-0.707106781186551));
#694=DIRECTION('center_axis',(0.,-1.,0.));
#695=DIRECTION('ref_axis',(0.,0.,1.));
#696=DIRECTION('center_axis',(0.,-1.,0.));
#697=DIRECTION('ref_axis',(0.,0.,-1.));
#698=DIRECTION('center_axis',(0.,-1.,0.));
#699=DIRECTION('ref_axis',(0.,0.,-1.));
#700=DIRECTION('',(-8.65956056235497E-17,-0.707106781186545,0.70710678118655));
#701=DIRECTION('center_axis',(0.,1.,0.));
#702=DIRECTION('ref_axis',(0.,0.,1.));
#703=DIRECTION('center_axis',(0.,1.,0.));
#704=DIRECTION('ref_axis',(0.,0.,1.));
#705=DIRECTION('center_axis',(0.,1.,0.));
#706=DIRECTION('ref_axis',(0.,0.,1.));
#707=DIRECTION('',(-8.65956056235491E-17,0.707106781186549,-0.707106781186546));
#708=DIRECTION('center_axis',(0.,-1.,0.));
#709=DIRECTION('ref_axis',(0.,0.,1.));
#710=DIRECTION('center_axis',(0.,-1.,0.));
#711=DIRECTION('ref_axis',(0.,0.,-1.));
#712=DIRECTION('center_axis',(0.,-1.,0.));
#713=DIRECTION('ref_axis',(0.,0.,-1.));
#714=DIRECTION('',(-8.65956056235499E-17,-0.707106781186543,0.707106781186552));
#715=DIRECTION('center_axis',(0.,1.,0.));
#716=DIRECTION('ref_axis',(0.,0.,1.));
#717=DIRECTION('center_axis',(0.,1.,0.));
#718=DIRECTION('ref_axis',(0.,0.,1.));
#719=DIRECTION('center_axis',(0.,1.,0.));
#720=DIRECTION('ref_axis',(0.,0.,1.));
#721=DIRECTION('',(-8.65956056235495E-17,0.707106781186546,-0.707106781186549));
#722=DIRECTION('center_axis',(0.,-1.,0.));
#723=DIRECTION('ref_axis',(0.,0.,1.));
#724=DIRECTION('center_axis',(0.,-1.,0.));
#725=DIRECTION('ref_axis',(0.,0.,-1.));
#726=DIRECTION('center_axis',(0.,-1.,0.));
#727=DIRECTION('ref_axis',(0.,0.,-1.));
#728=DIRECTION('',(-8.65956056235494E-17,-0.707106781186547,0.707106781186548));
#729=DIRECTION('center_axis',(0.,-1.,0.));
#730=DIRECTION('ref_axis',(0.,0.,-1.));
#731=DIRECTION('',(0.,-1.,0.));
#732=DIRECTION('center_axis',(0.,-1.,0.));
#733=DIRECTION('ref_axis',(0.,0.,-1.));
#734=DIRECTION('',(0.,-1.,0.));
#735=DIRECTION('center_axis',(0.,-1.,0.));
#736=DIRECTION('ref_axis',(0.,0.,-1.));
#737=DIRECTION('',(0.,-1.,0.));
#738=DIRECTION('center_axis',(0.,-1.,0.));
#739=DIRECTION('ref_axis',(0.,0.,-1.));
#740=DIRECTION('',(0.,-1.,0.));
#741=DIRECTION('center_axis',(0.,-1.,0.));
#742=DIRECTION('ref_axis',(0.,0.,-1.));
#743=DIRECTION('',(0.,-1.,0.));
#744=DIRECTION('center_axis',(0.,-1.,0.));
#745=DIRECTION('ref_axis',(0.,0.,-1.));
#746=DIRECTION('',(0.,-1.,0.));
#747=DIRECTION('center_axis',(0.,1.,0.));
#748=DIRECTION('ref_axis',(0.,0.,1.));
#749=DIRECTION('center_axis',(0.,1.,0.));
#750=DIRECTION('ref_axis',(0.,0.,-1.));
#751=DIRECTION('',(8.65956056235493E-17,-0.707106781186548,0.707106781186548));
#752=DIRECTION('center_axis',(0.,-1.,0.));
#753=DIRECTION('ref_axis',(0.,0.,-1.));
#754=DIRECTION('center_axis',(0.,-1.,0.));
#755=DIRECTION('ref_axis',(0.,0.,1.));
#756=DIRECTION('center_axis',(0.,-1.,0.));
#757=DIRECTION('ref_axis',(0.,0.,1.));
#758=DIRECTION('',(8.65956056235501E-17,0.707106781186541,-0.707106781186554));
#759=DIRECTION('center_axis',(0.,1.,0.));
#760=DIRECTION('ref_axis',(0.,0.,1.));
#761=DIRECTION('center_axis',(0.,1.,0.));
#762=DIRECTION('ref_axis',(0.,0.,1.));
#763=DIRECTION('center_axis',(0.,1.,0.));
#764=DIRECTION('ref_axis',(0.,0.,1.));
#765=DIRECTION('',(-4.18853873767707E-17,0.939692620785906,-0.342020143325675));
#766=DIRECTION('center_axis',(0.,1.,0.));
#767=DIRECTION('ref_axis',(0.,0.,1.));
#768=DIRECTION('center_axis',(0.,1.,0.));
#769=DIRECTION('ref_axis',(0.,0.,1.));
#770=DIRECTION('center_axis',(0.,-1.,0.));
#771=DIRECTION('ref_axis',(0.,0.,-1.));
#772=DIRECTION('center_axis',(0.,1.,0.));
#773=DIRECTION('ref_axis',(0.,0.,1.));
#774=DIRECTION('',(1.15079156022785E-16,0.342020143325675,-0.939692620785906));
#775=DIRECTION('center_axis',(0.,1.,0.));
#776=DIRECTION('ref_axis',(0.,0.,1.));
#777=DIRECTION('center_axis',(0.,1.,0.));
#778=DIRECTION('ref_axis',(0.,0.,1.));
#779=DIRECTION('',(0.,1.,0.));
#780=DIRECTION('center_axis',(0.,1.,0.));
#781=DIRECTION('ref_axis',(0.,0.,1.));
#782=DIRECTION('center_axis',(0.,1.,0.));
#783=DIRECTION('ref_axis',(0.,0.,1.));
#784=DIRECTION('',(0.,-1.,0.));
#785=DIRECTION('center_axis',(0.,1.,0.));
#786=DIRECTION('ref_axis',(0.,0.,1.));
#787=DIRECTION('center_axis',(0.,1.,0.));
#788=DIRECTION('ref_axis',(0.,0.,1.));
#789=CARTESIAN_POINT('',(0.,0.,0.));
#790=CARTESIAN_POINT('Origin',(0.,0.,0.));
#791=CARTESIAN_POINT('',(-2.,-40.,2.44929359829471E-16));
#792=CARTESIAN_POINT('Origin',(0.,-40.,0.));
#793=CARTESIAN_POINT('',(-2.,6.4,-2.44929359829471E-16));
#794=CARTESIAN_POINT('',(-2.,0.,-2.44929359829471E-16));
#795=CARTESIAN_POINT('Origin',(0.,6.4,0.));
#796=CARTESIAN_POINT('Origin',(0.,0.,0.));
#797=CARTESIAN_POINT('',(-3.,-40.,3.67394039744206E-16));
#798=CARTESIAN_POINT('Origin',(0.,-40.,0.));
#799=CARTESIAN_POINT('',(-3.,0.,3.67394039744206E-16));
#800=CARTESIAN_POINT('',(-3.,0.,-3.67394039744206E-16));
#801=CARTESIAN_POINT('Origin',(0.,-1.04094977927525E-15,0.));
#802=CARTESIAN_POINT('Origin',(0.,-40.,0.));
#803=CARTESIAN_POINT('Origin',(0.,-1.04094977927525E-15,0.));
#804=CARTESIAN_POINT('',(-2.03291368658461E-15,5.55111512312578E-16,-16.6));
#805=CARTESIAN_POINT('Origin',(0.,-1.04094977927525E-15,0.));
#806=CARTESIAN_POINT('',(-11.6913429510899,-1.11022302462516E-15,9.34999999999999));
#807=CARTESIAN_POINT('Origin',(-11.6913429510899,-1.04094977927525E-15,
6.74999999999997));
#808=CARTESIAN_POINT('',(-3.18408167778314E-16,-9.0205620750794E-16,16.1));
#809=CARTESIAN_POINT('Origin',(0.,-1.04094977927525E-15,13.5));
#810=CARTESIAN_POINT('',(11.6913429510898,-1.66533453693773E-15,9.35000000000015));
#811=CARTESIAN_POINT('Origin',(11.6913429510898,-1.04094977927525E-15,6.75000000000014));
#812=CARTESIAN_POINT('',(11.69134295109,-9.0205620750794E-16,-4.14999999999988));
#813=CARTESIAN_POINT('Origin',(11.69134295109,-1.04094977927525E-15,-6.74999999999989));
#814=CARTESIAN_POINT('',(9.3951642582175E-14,-1.94289029309402E-15,-10.9));
#815=CARTESIAN_POINT('Origin',(9.42700507499533E-14,-1.04094977927525E-15,
-13.5));
#816=CARTESIAN_POINT('',(-11.6913429510899,-1.11022302462516E-15,-4.15000000000004));
#817=CARTESIAN_POINT('Origin',(-11.6913429510899,-1.04094977927525E-15,
-6.75000000000006));
#818=CARTESIAN_POINT('Origin',(-11.6913429510899,7.6,6.74999999999997));
#819=CARTESIAN_POINT('',(-11.6913429510899,7.20000000000002,8.94999999999997));
#820=CARTESIAN_POINT('',(-11.6913429510899,7.20000000000002,4.54999999999997));
#821=CARTESIAN_POINT('Origin',(-11.6913429510899,7.20000000000002,6.74999999999997));
#822=CARTESIAN_POINT('Origin',(-11.6913429510899,7.20000000000002,6.74999999999997));
#823=CARTESIAN_POINT('',(-11.6913429510899,7.6,4.15));
#824=CARTESIAN_POINT('',(-11.6913429510899,7.6,4.15));
#825=CARTESIAN_POINT('Origin',(-11.6913429510899,7.6,6.74999999999997));
#826=CARTESIAN_POINT('Origin',(-11.6913429510899,0.400000000000011,6.74999999999997));
#827=CARTESIAN_POINT('',(-11.6913429510899,0.400000000000012,8.94999999999997));
#828=CARTESIAN_POINT('Origin',(-11.6913429510899,0.400000000000011,6.74999999999997));
#829=CARTESIAN_POINT('',(-11.6913429510899,0.400000000000011,8.94999999999997));
#830=CARTESIAN_POINT('Origin',(0.,7.6,13.5));
#831=CARTESIAN_POINT('',(2.69422295812418E-16,7.20000000000002,15.7));
#832=CARTESIAN_POINT('',(-2.69422295812418E-16,7.20000000000002,11.3));
#833=CARTESIAN_POINT('Origin',(0.,7.20000000000002,13.5));
#834=CARTESIAN_POINT('Origin',(0.,7.20000000000002,13.5));
#835=CARTESIAN_POINT('',(-3.18408167778309E-16,7.6,10.9));
#836=CARTESIAN_POINT('',(-3.18408167778309E-16,7.6,10.9));
#837=CARTESIAN_POINT('Origin',(0.,7.6,13.5));
#838=CARTESIAN_POINT('Origin',(0.,0.400000000000011,13.5));
#839=CARTESIAN_POINT('',(-2.69422295812418E-16,0.400000000000011,15.7));
#840=CARTESIAN_POINT('Origin',(0.,0.400000000000011,13.5));
#841=CARTESIAN_POINT('',(-2.69422295812418E-16,0.400000000000011,15.7));
#842=CARTESIAN_POINT('Origin',(11.6913429510898,7.6,6.75000000000014));
#843=CARTESIAN_POINT('',(11.6913429510898,7.20000000000002,8.95000000000014));
#844=CARTESIAN_POINT('',(11.6913429510898,7.20000000000002,4.55000000000013));
#845=CARTESIAN_POINT('Origin',(11.6913429510898,7.20000000000002,6.75000000000014));
#846=CARTESIAN_POINT('Origin',(11.6913429510898,7.20000000000002,6.75000000000014));
#847=CARTESIAN_POINT('',(11.6913429510898,7.6,4.15000000000016));
#848=CARTESIAN_POINT('',(11.6913429510898,7.6,4.15000000000016));
#849=CARTESIAN_POINT('Origin',(11.6913429510898,7.6,6.75000000000014));
#850=CARTESIAN_POINT('Origin',(11.6913429510898,0.400000000000011,6.75000000000014));
#851=CARTESIAN_POINT('',(11.6913429510898,0.400000000000011,8.95000000000014));
#852=CARTESIAN_POINT('Origin',(11.6913429510898,0.400000000000011,6.75000000000014));
#853=CARTESIAN_POINT('',(11.6913429510898,0.400000000000011,8.95000000000014));
#854=CARTESIAN_POINT('Origin',(11.69134295109,7.6,-6.74999999999989));
#855=CARTESIAN_POINT('',(11.69134295109,7.20000000000003,-4.54999999999989));
#856=CARTESIAN_POINT('',(11.69134295109,7.20000000000003,-8.94999999999989));
#857=CARTESIAN_POINT('Origin',(11.69134295109,7.20000000000003,-6.74999999999989));
#858=CARTESIAN_POINT('Origin',(11.69134295109,7.20000000000003,-6.74999999999989));
#859=CARTESIAN_POINT('',(11.69134295109,7.6,-9.34999999999986));
#860=CARTESIAN_POINT('',(11.69134295109,7.6,-9.34999999999986));
#861=CARTESIAN_POINT('Origin',(11.69134295109,7.6,-6.74999999999989));
#862=CARTESIAN_POINT('Origin',(11.69134295109,0.400000000000011,-6.74999999999989));
#863=CARTESIAN_POINT('',(11.69134295109,0.400000000000012,-4.54999999999989));
#864=CARTESIAN_POINT('Origin',(11.69134295109,0.400000000000011,-6.74999999999989));
#865=CARTESIAN_POINT('',(11.69134295109,0.400000000000011,-4.54999999999989));
#866=CARTESIAN_POINT('Origin',(9.42700507499533E-14,7.6,-13.5));
#867=CARTESIAN_POINT('',(9.45394730457657E-14,7.20000000000002,-11.3));
#868=CARTESIAN_POINT('',(9.40006284541409E-14,7.20000000000002,-15.7));
#869=CARTESIAN_POINT('Origin',(9.42700507499533E-14,7.20000000000002,-13.5));
#870=CARTESIAN_POINT('Origin',(9.42700507499533E-14,7.20000000000002,-13.5));
#871=CARTESIAN_POINT('',(9.3951642582175E-14,7.6,-16.1));
#872=CARTESIAN_POINT('',(9.3951642582175E-14,7.6,-16.1));
#873=CARTESIAN_POINT('Origin',(9.42700507499533E-14,7.6,-13.5));
#874=CARTESIAN_POINT('Origin',(9.42700507499533E-14,0.400000000000011,-13.5));
#875=CARTESIAN_POINT('',(9.40006284541409E-14,0.400000000000011,-11.3));
#876=CARTESIAN_POINT('Origin',(9.42700507499533E-14,0.400000000000011,-13.5));
#877=CARTESIAN_POINT('',(9.40006284541409E-14,0.400000000000011,-11.3));
#878=CARTESIAN_POINT('Origin',(-11.6913429510899,7.6,-6.75000000000006));
#879=CARTESIAN_POINT('',(-11.6913429510899,7.20000000000002,-4.55000000000006));
#880=CARTESIAN_POINT('',(-11.6913429510899,7.20000000000002,-8.95000000000006));
#881=CARTESIAN_POINT('Origin',(-11.6913429510899,7.20000000000002,-6.75000000000006));
#882=CARTESIAN_POINT('Origin',(-11.6913429510899,7.20000000000002,-6.75000000000006));
#883=CARTESIAN_POINT('',(-11.6913429510899,7.6,-9.35000000000003));
#884=CARTESIAN_POINT('',(-11.6913429510899,7.6,-9.35000000000003));
#885=CARTESIAN_POINT('Origin',(-11.6913429510899,7.6,-6.75000000000006));
#886=CARTESIAN_POINT('Origin',(-11.6913429510899,0.400000000000018,-6.75000000000006));
#887=CARTESIAN_POINT('',(-11.6913429510899,0.400000000000018,-4.55000000000006));
#888=CARTESIAN_POINT('Origin',(-11.6913429510899,0.400000000000018,-6.75000000000006));
#889=CARTESIAN_POINT('',(-11.6913429510899,0.400000000000018,-4.55000000000006));
#890=CARTESIAN_POINT('Origin',(11.6913429510898,7.6,6.75000000000014));
#891=CARTESIAN_POINT('',(11.6913429510898,7.6,8.95000000000014));
#892=CARTESIAN_POINT('Origin',(11.69134295109,7.6,-6.74999999999989));
#893=CARTESIAN_POINT('',(11.69134295109,7.6,-4.54999999999989));
#894=CARTESIAN_POINT('Origin',(9.42700507499533E-14,7.6,-13.5));
#895=CARTESIAN_POINT('',(9.40006284541409E-14,7.6,-11.3));
#896=CARTESIAN_POINT('Origin',(-11.6913429510899,7.6,-6.75000000000006));
#897=CARTESIAN_POINT('',(-11.6913429510899,7.6,-4.55000000000006));
#898=CARTESIAN_POINT('Origin',(-11.6913429510899,7.6,6.74999999999997));
#899=CARTESIAN_POINT('',(-11.6913429510899,7.6,8.94999999999997));
#900=CARTESIAN_POINT('Origin',(0.,7.6,13.5));
#901=CARTESIAN_POINT('',(-2.69422295812418E-16,7.6,15.7));
#902=CARTESIAN_POINT('Origin',(0.,0.399999999999998,0.));
#903=CARTESIAN_POINT('',(-2.0818995585505E-15,0.399999999999998,-17.));
#904=CARTESIAN_POINT('Origin',(0.,0.399999999999998,0.));
#905=CARTESIAN_POINT('',(-2.0818995585505E-15,0.399999999999998,-17.));
#906=CARTESIAN_POINT('Origin',(0.,7.6,0.));
#907=CARTESIAN_POINT('',(2.0818995585505E-15,7.19999999999999,-17.));
#908=CARTESIAN_POINT('',(-2.0818995585505E-15,7.19999999999999,17.));
#909=CARTESIAN_POINT('Origin',(0.,7.19999999999999,0.));
#910=CARTESIAN_POINT('Origin',(0.,7.19999999999999,0.));
#911=CARTESIAN_POINT('',(-2.0329136865846E-15,7.6,16.6));
#912=CARTESIAN_POINT('',(-2.0329136865846E-15,7.6,16.6));
#913=CARTESIAN_POINT('Origin',(0.,7.6,0.));
#914=CARTESIAN_POINT('Origin',(0.,6.4,0.));
#915=CARTESIAN_POINT('',(-1.09380772227709E-15,6.4,-8.93161785944027));
#916=CARTESIAN_POINT('Origin',(0.,6.4,0.));
#917=CARTESIAN_POINT('',(-1.12055182121983E-15,7.,-9.15));
#918=CARTESIAN_POINT('',(-1.09380772227709E-15,6.4,-8.93161785944027));
#919=CARTESIAN_POINT('',(1.21852356515162E-15,7.,9.15));
#920=CARTESIAN_POINT('Origin',(0.,7.,0.));
#921=CARTESIAN_POINT('Origin',(0.,7.,0.));
#922=CARTESIAN_POINT('Origin',(0.,7.,0.));
#923=CARTESIAN_POINT('',(1.3164953090834E-15,6.41764762517406,-10.75));
#924=CARTESIAN_POINT('',(-1.3164953090834E-15,6.41764762517406,10.75));
#925=CARTESIAN_POINT('Origin',(0.,6.41764762517406,0.));
#926=CARTESIAN_POINT('',(-1.12055182121983E-15,7.,9.15));
#927=CARTESIAN_POINT('Origin',(0.,6.41764762517406,0.));
#928=CARTESIAN_POINT('Origin',(0.,53.8353387124258,0.));
#929=CARTESIAN_POINT('',(-1.3164953090834E-15,7.6,-10.75));
#930=CARTESIAN_POINT('',(-1.3164953090834E-15,53.8353387124258,-10.75));
#931=CARTESIAN_POINT('Origin',(0.,7.6,0.));
#932=CARTESIAN_POINT('Origin',(0.,53.8353387124258,0.));
#933=CARTESIAN_POINT('',(-2.0818995585505E-15,53.8353387124258,-17.));
#934=CARTESIAN_POINT('Origin',(0.,7.6,17.));
#935=CARTESIAN_POINT('Origin',(0.,6.4,8.93161785944027));
#936=UNCERTAINTY_MEASURE_WITH_UNIT(LENGTH_MEASURE(0.01),#940,
'DISTANCE_ACCURACY_VALUE',
'Maximum model space distance between geometric entities at asserted c
onnectivities');
#937=UNCERTAINTY_MEASURE_WITH_UNIT(LENGTH_MEASURE(0.01),#940,
'DISTANCE_ACCURACY_VALUE',
'Maximum model space distance between geometric entities at asserted c
onnectivities');
#938=(
GEOMETRIC_REPRESENTATION_CONTEXT(3)
GLOBAL_UNCERTAINTY_ASSIGNED_CONTEXT((#936))
GLOBAL_UNIT_ASSIGNED_CONTEXT((#940,#942,#943))
REPRESENTATION_CONTEXT('','3D')
);
#939=(
GEOMETRIC_REPRESENTATION_CONTEXT(3)
GLOBAL_UNCERTAINTY_ASSIGNED_CONTEXT((#937))
GLOBAL_UNIT_ASSIGNED_CONTEXT((#940,#942,#943))
REPRESENTATION_CONTEXT('','3D')
);
#940=(
LENGTH_UNIT()
NAMED_UNIT(*)
SI_UNIT(.MILLI.,.METRE.)
);
#941=(
LENGTH_UNIT()
NAMED_UNIT(*)
SI_UNIT($,.METRE.)
);
#942=(
NAMED_UNIT(*)
PLANE_ANGLE_UNIT()
SI_UNIT($,.RADIAN.)
);
#943=(
NAMED_UNIT(*)
SI_UNIT($,.STERADIAN.)
SOLID_ANGLE_UNIT()
);
#944=SHAPE_DEFINITION_REPRESENTATION(#945,#946);
#945=PRODUCT_DEFINITION_SHAPE('',$,#948);
#946=SHAPE_REPRESENTATION('',(#535),#938);
#947=PRODUCT_DEFINITION_CONTEXT('part definition',#952,'design');
#948=PRODUCT_DEFINITION('Hositrad_CF16-B_SwagelokTube',
'Hositrad_CF16-B_SwagelokTube v1',#949,#947);
#949=PRODUCT_DEFINITION_FORMATION('',$,#954);
#950=PRODUCT_RELATED_PRODUCT_CATEGORY('Hositrad_CF16-B_SwagelokTube v1',
'Hositrad_CF16-B_SwagelokTube v1',(#954));
#951=APPLICATION_PROTOCOL_DEFINITION('international standard',
'automotive_design',2009,#952);
#952=APPLICATION_CONTEXT(
'Core Data for Automotive Mechanical Design Process');
#953=PRODUCT_CONTEXT('part definition',#952,'mechanical');
#954=PRODUCT('Hositrad_CF16-B_SwagelokTube',
'Hositrad_CF16-B_SwagelokTube v1',$,(#953));
#955=PRESENTATION_STYLE_ASSIGNMENT((#957));
#956=PRESENTATION_STYLE_ASSIGNMENT((#958));
#957=SURFACE_STYLE_USAGE(.BOTH.,#959);
#958=SURFACE_STYLE_USAGE(.BOTH.,#960);
#959=SURFACE_SIDE_STYLE('',(#961));
#960=SURFACE_SIDE_STYLE('',(#962));
#961=SURFACE_STYLE_FILL_AREA(#963);
#962=SURFACE_STYLE_FILL_AREA(#964);
#963=FILL_AREA_STYLE('Steel - Satin',(#965));
#964=FILL_AREA_STYLE('Opaque(165,158,150)',(#966));
#965=FILL_AREA_STYLE_COLOUR('Steel - Satin',#967);
#966=FILL_AREA_STYLE_COLOUR('Opaque(165,158,150)',#968);
#967=COLOUR_RGB('Steel - Satin',0.627450980392157,0.627450980392157,0.627450980392157);
#968=COLOUR_RGB('Opaque(165,158,150)',0.647058823529412,0.619607843137255,
0.588235294117647);
ENDSEC;
END-ISO-10303-21;
