ISO-10303-21;
HEADER;
/* Generated by software containing ST-Developer
 * from STEP Tools, Inc. (www.steptools.com) 
 */

FILE_DESCRIPTION(
/* description */ (''),
/* implementation_level */ '2;1');

FILE_NAME(
/* name */ 'SampleHolder_simple v5.step',
/* time_stamp */ '2024-06-17T13:19:36+02:00',
/* author */ (''),
/* organization */ (''),
/* preprocessor_version */ 'ST-DEVELOPER v20',
/* originating_system */ 'Autodesk Translation Framework v13.14.0.145',

/* authorisation */ '');

FILE_SCHEMA (('AUTOMOTIVE_DESIGN { 1 0 10303 214 3 1 1 }'));
ENDSEC;

DATA;
#10=MECHANICAL_DESIGN_GEOMETRIC_PRESENTATION_REPRESENTATION('',(#13),#425);
#11=SHAPE_REPRESENTATION_RELATIONSHIP('SRR','None',#431,#12);
#12=ADVANCED_BREP_SHAPE_REPRESENTATION('',(#14),#424);
#13=STYLED_ITEM('',(#440),#14);
#14=MANIFOLD_SOLID_BREP('Body1',#249);
#15=FACE_BOUND('',#58,.T.);
#16=FACE_BOUND('',#59,.T.);
#17=FACE_BOUND('',#60,.T.);
#18=FACE_BOUND('',#61,.T.);
#19=FACE_BOUND('',#62,.T.);
#20=FACE_BOUND('',#63,.T.);
#21=FACE_BOUND('',#64,.T.);
#22=FACE_BOUND('',#65,.T.);
#23=FACE_BOUND('',#66,.T.);
#24=FACE_BOUND('',#68,.T.);
#25=FACE_BOUND('',#69,.T.);
#26=FACE_BOUND('',#70,.T.);
#27=FACE_BOUND('',#71,.T.);
#28=FACE_BOUND('',#72,.T.);
#29=FACE_BOUND('',#73,.T.);
#30=FACE_BOUND('',#74,.T.);
#31=FACE_BOUND('',#75,.T.);
#32=FACE_BOUND('',#76,.T.);
#33=PLANE('',#281);
#34=PLANE('',#282);
#35=FACE_OUTER_BOUND('',#47,.T.);
#36=FACE_OUTER_BOUND('',#48,.T.);
#37=FACE_OUTER_BOUND('',#49,.T.);
#38=FACE_OUTER_BOUND('',#50,.T.);
#39=FACE_OUTER_BOUND('',#51,.T.);
#40=FACE_OUTER_BOUND('',#52,.T.);
#41=FACE_OUTER_BOUND('',#53,.T.);
#42=FACE_OUTER_BOUND('',#54,.T.);
#43=FACE_OUTER_BOUND('',#55,.T.);
#44=FACE_OUTER_BOUND('',#56,.T.);
#45=FACE_OUTER_BOUND('',#57,.T.);
#46=FACE_OUTER_BOUND('',#67,.T.);
#47=EDGE_LOOP('',(#167,#168,#169,#170));
#48=EDGE_LOOP('',(#171,#172,#173,#174));
#49=EDGE_LOOP('',(#175,#176,#177,#178));
#50=EDGE_LOOP('',(#179,#180,#181,#182));
#51=EDGE_LOOP('',(#183,#184,#185,#186));
#52=EDGE_LOOP('',(#187,#188,#189,#190));
#53=EDGE_LOOP('',(#191,#192,#193,#194));
#54=EDGE_LOOP('',(#195,#196,#197,#198));
#55=EDGE_LOOP('',(#199,#200,#201,#202));
#56=EDGE_LOOP('',(#203,#204,#205,#206));
#57=EDGE_LOOP('',(#207));
#58=EDGE_LOOP('',(#208));
#59=EDGE_LOOP('',(#209));
#60=EDGE_LOOP('',(#210));
#61=EDGE_LOOP('',(#211));
#62=EDGE_LOOP('',(#212));
#63=EDGE_LOOP('',(#213));
#64=EDGE_LOOP('',(#214));
#65=EDGE_LOOP('',(#215));
#66=EDGE_LOOP('',(#216));
#67=EDGE_LOOP('',(#217));
#68=EDGE_LOOP('',(#218));
#69=EDGE_LOOP('',(#219));
#70=EDGE_LOOP('',(#220));
#71=EDGE_LOOP('',(#221));
#72=EDGE_LOOP('',(#222));
#73=EDGE_LOOP('',(#223));
#74=EDGE_LOOP('',(#224));
#75=EDGE_LOOP('',(#225));
#76=EDGE_LOOP('',(#226));
#77=LINE('',#364,#87);
#78=LINE('',#370,#88);
#79=LINE('',#376,#89);
#80=LINE('',#382,#90);
#81=LINE('',#388,#91);
#82=LINE('',#394,#92);
#83=LINE('',#400,#93);
#84=LINE('',#406,#94);
#85=LINE('',#412,#95);
#86=LINE('',#418,#96);
#87=VECTOR('',#289,1.);
#88=VECTOR('',#296,1.);
#89=VECTOR('',#303,1.);
#90=VECTOR('',#310,1.);
#91=VECTOR('',#317,1.);
#92=VECTOR('',#324,1.);
#93=VECTOR('',#331,1.);
#94=VECTOR('',#338,1.);
#95=VECTOR('',#345,1.666);
#96=VECTOR('',#352,7.);
#97=CIRCLE('',#252,1.);
#98=CIRCLE('',#253,1.);
#99=CIRCLE('',#255,1.);
#100=CIRCLE('',#256,1.);
#101=CIRCLE('',#258,1.);
#102=CIRCLE('',#259,1.);
#103=CIRCLE('',#261,1.);
#104=CIRCLE('',#262,1.);
#105=CIRCLE('',#264,1.);
#106=CIRCLE('',#265,1.);
#107=CIRCLE('',#267,1.);
#108=CIRCLE('',#268,1.);
#109=CIRCLE('',#270,1.);
#110=CIRCLE('',#271,1.);
#111=CIRCLE('',#273,1.);
#112=CIRCLE('',#274,1.);
#113=CIRCLE('',#276,1.666);
#114=CIRCLE('',#277,1.666);
#115=CIRCLE('',#279,7.);
#116=CIRCLE('',#280,7.);
#117=VERTEX_POINT('',#361);
#118=VERTEX_POINT('',#363);
#119=VERTEX_POINT('',#367);
#120=VERTEX_POINT('',#369);
#121=VERTEX_POINT('',#373);
#122=VERTEX_POINT('',#375);
#123=VERTEX_POINT('',#379);
#124=VERTEX_POINT('',#381);
#125=VERTEX_POINT('',#385);
#126=VERTEX_POINT('',#387);
#127=VERTEX_POINT('',#391);
#128=VERTEX_POINT('',#393);
#129=VERTEX_POINT('',#397);
#130=VERTEX_POINT('',#399);
#131=VERTEX_POINT('',#403);
#132=VERTEX_POINT('',#405);
#133=VERTEX_POINT('',#409);
#134=VERTEX_POINT('',#411);
#135=VERTEX_POINT('',#415);
#136=VERTEX_POINT('',#417);
#137=EDGE_CURVE('',#117,#117,#97,.T.);
#138=EDGE_CURVE('',#117,#118,#77,.T.);
#139=EDGE_CURVE('',#118,#118,#98,.T.);
#140=EDGE_CURVE('',#119,#119,#99,.T.);
#141=EDGE_CURVE('',#119,#120,#78,.T.);
#142=EDGE_CURVE('',#120,#120,#100,.T.);
#143=EDGE_CURVE('',#121,#121,#101,.T.);
#144=EDGE_CURVE('',#121,#122,#79,.T.);
#145=EDGE_CURVE('',#122,#122,#102,.T.);
#146=EDGE_CURVE('',#123,#123,#103,.T.);
#147=EDGE_CURVE('',#123,#124,#80,.T.);
#148=EDGE_CURVE('',#124,#124,#104,.T.);
#149=EDGE_CURVE('',#125,#125,#105,.T.);
#150=EDGE_CURVE('',#125,#126,#81,.T.);
#151=EDGE_CURVE('',#126,#126,#106,.T.);
#152=EDGE_CURVE('',#127,#127,#107,.T.);
#153=EDGE_CURVE('',#127,#128,#82,.T.);
#154=EDGE_CURVE('',#128,#128,#108,.T.);
#155=EDGE_CURVE('',#129,#129,#109,.T.);
#156=EDGE_CURVE('',#129,#130,#83,.T.);
#157=EDGE_CURVE('',#130,#130,#110,.T.);
#158=EDGE_CURVE('',#131,#131,#111,.T.);
#159=EDGE_CURVE('',#131,#132,#84,.T.);
#160=EDGE_CURVE('',#132,#132,#112,.T.);
#161=EDGE_CURVE('',#133,#133,#113,.T.);
#162=EDGE_CURVE('',#133,#134,#85,.T.);
#163=EDGE_CURVE('',#134,#134,#114,.T.);
#164=EDGE_CURVE('',#135,#135,#115,.T.);
#165=EDGE_CURVE('',#135,#136,#86,.T.);
#166=EDGE_CURVE('',#136,#136,#116,.T.);
#167=ORIENTED_EDGE('',*,*,#137,.F.);
#168=ORIENTED_EDGE('',*,*,#138,.T.);
#169=ORIENTED_EDGE('',*,*,#139,.F.);
#170=ORIENTED_EDGE('',*,*,#138,.F.);
#171=ORIENTED_EDGE('',*,*,#140,.F.);
#172=ORIENTED_EDGE('',*,*,#141,.T.);
#173=ORIENTED_EDGE('',*,*,#142,.F.);
#174=ORIENTED_EDGE('',*,*,#141,.F.);
#175=ORIENTED_EDGE('',*,*,#143,.F.);
#176=ORIENTED_EDGE('',*,*,#144,.T.);
#177=ORIENTED_EDGE('',*,*,#145,.F.);
#178=ORIENTED_EDGE('',*,*,#144,.F.);
#179=ORIENTED_EDGE('',*,*,#146,.F.);
#180=ORIENTED_EDGE('',*,*,#147,.T.);
#181=ORIENTED_EDGE('',*,*,#148,.F.);
#182=ORIENTED_EDGE('',*,*,#147,.F.);
#183=ORIENTED_EDGE('',*,*,#149,.F.);
#184=ORIENTED_EDGE('',*,*,#150,.T.);
#185=ORIENTED_EDGE('',*,*,#151,.F.);
#186=ORIENTED_EDGE('',*,*,#150,.F.);
#187=ORIENTED_EDGE('',*,*,#152,.F.);
#188=ORIENTED_EDGE('',*,*,#153,.T.);
#189=ORIENTED_EDGE('',*,*,#154,.F.);
#190=ORIENTED_EDGE('',*,*,#153,.F.);
#191=ORIENTED_EDGE('',*,*,#155,.F.);
#192=ORIENTED_EDGE('',*,*,#156,.T.);
#193=ORIENTED_EDGE('',*,*,#157,.F.);
#194=ORIENTED_EDGE('',*,*,#156,.F.);
#195=ORIENTED_EDGE('',*,*,#158,.F.);
#196=ORIENTED_EDGE('',*,*,#159,.T.);
#197=ORIENTED_EDGE('',*,*,#160,.F.);
#198=ORIENTED_EDGE('',*,*,#159,.F.);
#199=ORIENTED_EDGE('',*,*,#161,.F.);
#200=ORIENTED_EDGE('',*,*,#162,.T.);
#201=ORIENTED_EDGE('',*,*,#163,.F.);
#202=ORIENTED_EDGE('',*,*,#162,.F.);
#203=ORIENTED_EDGE('',*,*,#164,.F.);
#204=ORIENTED_EDGE('',*,*,#165,.T.);
#205=ORIENTED_EDGE('',*,*,#166,.F.);
#206=ORIENTED_EDGE('',*,*,#165,.F.);
#207=ORIENTED_EDGE('',*,*,#166,.T.);
#208=ORIENTED_EDGE('',*,*,#137,.T.);
#209=ORIENTED_EDGE('',*,*,#140,.T.);
#210=ORIENTED_EDGE('',*,*,#143,.T.);
#211=ORIENTED_EDGE('',*,*,#146,.T.);
#212=ORIENTED_EDGE('',*,*,#149,.T.);
#213=ORIENTED_EDGE('',*,*,#152,.T.);
#214=ORIENTED_EDGE('',*,*,#155,.T.);
#215=ORIENTED_EDGE('',*,*,#158,.T.);
#216=ORIENTED_EDGE('',*,*,#161,.T.);
#217=ORIENTED_EDGE('',*,*,#164,.T.);
#218=ORIENTED_EDGE('',*,*,#139,.T.);
#219=ORIENTED_EDGE('',*,*,#142,.T.);
#220=ORIENTED_EDGE('',*,*,#145,.T.);
#221=ORIENTED_EDGE('',*,*,#148,.T.);
#222=ORIENTED_EDGE('',*,*,#151,.T.);
#223=ORIENTED_EDGE('',*,*,#154,.T.);
#224=ORIENTED_EDGE('',*,*,#157,.T.);
#225=ORIENTED_EDGE('',*,*,#160,.T.);
#226=ORIENTED_EDGE('',*,*,#163,.T.);
#227=CYLINDRICAL_SURFACE('',#251,1.);
#228=CYLINDRICAL_SURFACE('',#254,1.);
#229=CYLINDRICAL_SURFACE('',#257,1.);
#230=CYLINDRICAL_SURFACE('',#260,1.);
#231=CYLINDRICAL_SURFACE('',#263,1.);
#232=CYLINDRICAL_SURFACE('',#266,1.);
#233=CYLINDRICAL_SURFACE('',#269,1.);
#234=CYLINDRICAL_SURFACE('',#272,1.);
#235=CYLINDRICAL_SURFACE('',#275,1.666);
#236=CYLINDRICAL_SURFACE('',#278,7.);
#237=ADVANCED_FACE('',(#35),#227,.F.);
#238=ADVANCED_FACE('',(#36),#228,.F.);
#239=ADVANCED_FACE('',(#37),#229,.F.);
#240=ADVANCED_FACE('',(#38),#230,.F.);
#241=ADVANCED_FACE('',(#39),#231,.F.);
#242=ADVANCED_FACE('',(#40),#232,.F.);
#243=ADVANCED_FACE('',(#41),#233,.F.);
#244=ADVANCED_FACE('',(#42),#234,.F.);
#245=ADVANCED_FACE('',(#43),#235,.F.);
#246=ADVANCED_FACE('',(#44),#236,.T.);
#247=ADVANCED_FACE('',(#45,#15,#16,#17,#18,#19,#20,#21,#22,#23),#33,.T.);
#248=ADVANCED_FACE('',(#46,#24,#25,#26,#27,#28,#29,#30,#31,#32),#34,.F.);
#249=CLOSED_SHELL('',(#237,#238,#239,#240,#241,#242,#243,#244,#245,#246,
#247,#248));
#250=AXIS2_PLACEMENT_3D('',#359,#283,#284);
#251=AXIS2_PLACEMENT_3D('',#360,#285,#286);
#252=AXIS2_PLACEMENT_3D('',#362,#287,#288);
#253=AXIS2_PLACEMENT_3D('',#365,#290,#291);
#254=AXIS2_PLACEMENT_3D('',#366,#292,#293);
#255=AXIS2_PLACEMENT_3D('',#368,#294,#295);
#256=AXIS2_PLACEMENT_3D('',#371,#297,#298);
#257=AXIS2_PLACEMENT_3D('',#372,#299,#300);
#258=AXIS2_PLACEMENT_3D('',#374,#301,#302);
#259=AXIS2_PLACEMENT_3D('',#377,#304,#305);
#260=AXIS2_PLACEMENT_3D('',#378,#306,#307);
#261=AXIS2_PLACEMENT_3D('',#380,#308,#309);
#262=AXIS2_PLACEMENT_3D('',#383,#311,#312);
#263=AXIS2_PLACEMENT_3D('',#384,#313,#314);
#264=AXIS2_PLACEMENT_3D('',#386,#315,#316);
#265=AXIS2_PLACEMENT_3D('',#389,#318,#319);
#266=AXIS2_PLACEMENT_3D('',#390,#320,#321);
#267=AXIS2_PLACEMENT_3D('',#392,#322,#323);
#268=AXIS2_PLACEMENT_3D('',#395,#325,#326);
#269=AXIS2_PLACEMENT_3D('',#396,#327,#328);
#270=AXIS2_PLACEMENT_3D('',#398,#329,#330);
#271=AXIS2_PLACEMENT_3D('',#401,#332,#333);
#272=AXIS2_PLACEMENT_3D('',#402,#334,#335);
#273=AXIS2_PLACEMENT_3D('',#404,#336,#337);
#274=AXIS2_PLACEMENT_3D('',#407,#339,#340);
#275=AXIS2_PLACEMENT_3D('',#408,#341,#342);
#276=AXIS2_PLACEMENT_3D('',#410,#343,#344);
#277=AXIS2_PLACEMENT_3D('',#413,#346,#347);
#278=AXIS2_PLACEMENT_3D('',#414,#348,#349);
#279=AXIS2_PLACEMENT_3D('',#416,#350,#351);
#280=AXIS2_PLACEMENT_3D('',#419,#353,#354);
#281=AXIS2_PLACEMENT_3D('',#420,#355,#356);
#282=AXIS2_PLACEMENT_3D('',#421,#357,#358);
#283=DIRECTION('axis',(0.,0.,1.));
#284=DIRECTION('refdir',(1.,0.,0.));
#285=DIRECTION('center_axis',(0.,-1.,0.));
#286=DIRECTION('ref_axis',(0.,0.,1.));
#287=DIRECTION('center_axis',(0.,-1.,0.));
#288=DIRECTION('ref_axis',(0.,0.,1.));
#289=DIRECTION('',(0.,-1.,0.));
#290=DIRECTION('center_axis',(0.,1.,0.));
#291=DIRECTION('ref_axis',(0.,0.,1.));
#292=DIRECTION('center_axis',(0.,-1.,0.));
#293=DIRECTION('ref_axis',(0.,0.,1.));
#294=DIRECTION('center_axis',(0.,-1.,0.));
#295=DIRECTION('ref_axis',(0.,0.,1.));
#296=DIRECTION('',(0.,-1.,0.));
#297=DIRECTION('center_axis',(0.,1.,0.));
#298=DIRECTION('ref_axis',(0.,0.,1.));
#299=DIRECTION('center_axis',(0.,-1.,0.));
#300=DIRECTION('ref_axis',(0.,0.,1.));
#301=DIRECTION('center_axis',(0.,-1.,0.));
#302=DIRECTION('ref_axis',(0.,0.,1.));
#303=DIRECTION('',(0.,-1.,0.));
#304=DIRECTION('center_axis',(0.,1.,0.));
#305=DIRECTION('ref_axis',(0.,0.,1.));
#306=DIRECTION('center_axis',(0.,-1.,0.));
#307=DIRECTION('ref_axis',(0.,0.,1.));
#308=DIRECTION('center_axis',(0.,-1.,0.));
#309=DIRECTION('ref_axis',(0.,0.,1.));
#310=DIRECTION('',(0.,-1.,0.));
#311=DIRECTION('center_axis',(0.,1.,0.));
#312=DIRECTION('ref_axis',(0.,0.,1.));
#313=DIRECTION('center_axis',(0.,-1.,0.));
#314=DIRECTION('ref_axis',(0.,0.,1.));
#315=DIRECTION('center_axis',(0.,-1.,0.));
#316=DIRECTION('ref_axis',(0.,0.,1.));
#317=DIRECTION('',(0.,-1.,0.));
#318=DIRECTION('center_axis',(0.,1.,0.));
#319=DIRECTION('ref_axis',(0.,0.,1.));
#320=DIRECTION('center_axis',(0.,-1.,0.));
#321=DIRECTION('ref_axis',(0.,0.,1.));
#322=DIRECTION('center_axis',(0.,-1.,0.));
#323=DIRECTION('ref_axis',(0.,0.,1.));
#324=DIRECTION('',(0.,-1.,0.));
#325=DIRECTION('center_axis',(0.,1.,0.));
#326=DIRECTION('ref_axis',(0.,0.,1.));
#327=DIRECTION('center_axis',(0.,-1.,0.));
#328=DIRECTION('ref_axis',(0.,0.,1.));
#329=DIRECTION('center_axis',(0.,-1.,0.));
#330=DIRECTION('ref_axis',(0.,0.,1.));
#331=DIRECTION('',(0.,-1.,0.));
#332=DIRECTION('center_axis',(0.,1.,0.));
#333=DIRECTION('ref_axis',(0.,0.,1.));
#334=DIRECTION('center_axis',(0.,-1.,0.));
#335=DIRECTION('ref_axis',(0.,0.,1.));
#336=DIRECTION('center_axis',(0.,-1.,0.));
#337=DIRECTION('ref_axis',(0.,0.,1.));
#338=DIRECTION('',(0.,-1.,0.));
#339=DIRECTION('center_axis',(0.,1.,0.));
#340=DIRECTION('ref_axis',(0.,0.,1.));
#341=DIRECTION('center_axis',(0.,-1.,0.));
#342=DIRECTION('ref_axis',(0.,0.,1.));
#343=DIRECTION('center_axis',(0.,-1.,0.));
#344=DIRECTION('ref_axis',(0.,0.,1.));
#345=DIRECTION('',(0.,-1.,0.));
#346=DIRECTION('center_axis',(0.,1.,0.));
#347=DIRECTION('ref_axis',(0.,0.,1.));
#348=DIRECTION('center_axis',(0.,-1.,0.));
#349=DIRECTION('ref_axis',(1.,0.,0.));
#350=DIRECTION('center_axis',(0.,-1.,0.));
#351=DIRECTION('ref_axis',(1.,0.,0.));
#352=DIRECTION('',(0.,1.,0.));
#353=DIRECTION('center_axis',(0.,1.,0.));
#354=DIRECTION('ref_axis',(1.,0.,0.));
#355=DIRECTION('center_axis',(0.,1.,0.));
#356=DIRECTION('ref_axis',(1.,0.,0.));
#357=DIRECTION('center_axis',(0.,1.,0.));
#358=DIRECTION('ref_axis',(1.,0.,0.));
#359=CARTESIAN_POINT('',(0.,0.,0.));
#360=CARTESIAN_POINT('Origin',(-3.53553390593274,-4.4,-3.53553390593274));
#361=CARTESIAN_POINT('',(-3.53553390593274,0.,-4.53553390593274));
#362=CARTESIAN_POINT('Origin',(-3.53553390593274,0.,-3.53553390593274));
#363=CARTESIAN_POINT('',(-3.53553390593274,-8.,-4.53553390593274));
#364=CARTESIAN_POINT('',(-3.53553390593274,-4.4,-4.53553390593274));
#365=CARTESIAN_POINT('Origin',(-3.53553390593274,-8.,-3.53553390593274));
#366=CARTESIAN_POINT('Origin',(9.18485099360515E-16,-4.4,-5.));
#367=CARTESIAN_POINT('',(1.04094977927525E-15,0.,-6.));
#368=CARTESIAN_POINT('Origin',(9.18485099360515E-16,0.,-5.));
#369=CARTESIAN_POINT('',(7.9602041944578E-16,-8.,-6.));
#370=CARTESIAN_POINT('',(1.04094977927525E-15,-4.4,-6.));
#371=CARTESIAN_POINT('Origin',(9.18485099360515E-16,-8.,-5.));
#372=CARTESIAN_POINT('Origin',(3.53553390593274,-4.4,-3.53553390593274));
#373=CARTESIAN_POINT('',(3.53553390593274,0.,-4.53553390593274));
#374=CARTESIAN_POINT('Origin',(3.53553390593274,0.,-3.53553390593274));
#375=CARTESIAN_POINT('',(3.53553390593274,-8.,-4.53553390593274));
#376=CARTESIAN_POINT('',(3.53553390593274,-4.4,-4.53553390593274));
#377=CARTESIAN_POINT('Origin',(3.53553390593274,-8.,-3.53553390593274));
#378=CARTESIAN_POINT('Origin',(5.,-4.4,6.12323399573677E-16));
#379=CARTESIAN_POINT('',(5.,0.,-1.));
#380=CARTESIAN_POINT('Origin',(5.,0.,6.12323399573677E-16));
#381=CARTESIAN_POINT('',(5.,-8.,-1.));
#382=CARTESIAN_POINT('',(5.,-4.4,-1.));
#383=CARTESIAN_POINT('Origin',(5.,-8.,6.12323399573677E-16));
#384=CARTESIAN_POINT('Origin',(3.53553390593274,-4.4,3.53553390593274));
#385=CARTESIAN_POINT('',(3.53553390593274,0.,2.53553390593274));
#386=CARTESIAN_POINT('Origin',(3.53553390593274,0.,3.53553390593274));
#387=CARTESIAN_POINT('',(3.53553390593274,-8.,2.53553390593274));
#388=CARTESIAN_POINT('',(3.53553390593274,-4.4,2.53553390593274));
#389=CARTESIAN_POINT('Origin',(3.53553390593274,-8.,3.53553390593274));
#390=CARTESIAN_POINT('Origin',(-3.06161699786838E-16,-4.4,5.));
#391=CARTESIAN_POINT('',(-1.83697019872103E-16,0.,4.));
#392=CARTESIAN_POINT('Origin',(-3.06161699786838E-16,0.,5.));
#393=CARTESIAN_POINT('',(-4.28626379701574E-16,-8.,4.));
#394=CARTESIAN_POINT('',(-1.83697019872103E-16,-4.4,4.));
#395=CARTESIAN_POINT('Origin',(-3.06161699786838E-16,-8.,5.));
#396=CARTESIAN_POINT('Origin',(-3.53553390593274,-4.4,3.53553390593274));
#397=CARTESIAN_POINT('',(-3.53553390593274,0.,2.53553390593274));
#398=CARTESIAN_POINT('Origin',(-3.53553390593274,0.,3.53553390593274));
#399=CARTESIAN_POINT('',(-3.53553390593274,-8.,2.53553390593274));
#400=CARTESIAN_POINT('',(-3.53553390593274,-4.4,2.53553390593274));
#401=CARTESIAN_POINT('Origin',(-3.53553390593274,-8.,3.53553390593274));
#402=CARTESIAN_POINT('Origin',(-5.,-4.4,0.));
#403=CARTESIAN_POINT('',(-5.,0.,-1.));
#404=CARTESIAN_POINT('Origin',(-5.,0.,0.));
#405=CARTESIAN_POINT('',(-5.,-8.,-1.));
#406=CARTESIAN_POINT('',(-5.,-4.4,-1.));
#407=CARTESIAN_POINT('Origin',(-5.,-8.,0.));
#408=CARTESIAN_POINT('Origin',(0.,-4.4,0.));
#409=CARTESIAN_POINT('',(2.04026156737949E-16,0.,-1.666));
#410=CARTESIAN_POINT('Origin',(0.,0.,0.));
#411=CARTESIAN_POINT('',(-2.04026156737949E-16,-8.,-1.666));
#412=CARTESIAN_POINT('',(2.04026156737949E-16,-4.4,-1.666));
#413=CARTESIAN_POINT('Origin',(0.,-8.,0.));
#414=CARTESIAN_POINT('Origin',(0.,0.,0.));
#415=CARTESIAN_POINT('',(-7.,-8.,8.57252759403147E-16));
#416=CARTESIAN_POINT('Origin',(0.,-8.,0.));
#417=CARTESIAN_POINT('',(-7.,0.,8.57252759403147E-16));
#418=CARTESIAN_POINT('',(-7.,0.,-8.57252759403147E-16));
#419=CARTESIAN_POINT('Origin',(0.,0.,0.));
#420=CARTESIAN_POINT('Origin',(0.,0.,0.));
#421=CARTESIAN_POINT('Origin',(0.,-8.,0.));
#422=UNCERTAINTY_MEASURE_WITH_UNIT(LENGTH_MEASURE(0.01),#426,
'DISTANCE_ACCURACY_VALUE',
'Maximum model space distance between geometric entities at asserted c
onnectivities');
#423=UNCERTAINTY_MEASURE_WITH_UNIT(LENGTH_MEASURE(0.01),#426,
'DISTANCE_ACCURACY_VALUE',
'Maximum model space distance between geometric entities at asserted c
onnectivities');
#424=(
GEOMETRIC_REPRESENTATION_CONTEXT(3)
GLOBAL_UNCERTAINTY_ASSIGNED_CONTEXT((#422))
GLOBAL_UNIT_ASSIGNED_CONTEXT((#426,#427,#428))
REPRESENTATION_CONTEXT('','3D')
);
#425=(
GEOMETRIC_REPRESENTATION_CONTEXT(3)
GLOBAL_UNCERTAINTY_ASSIGNED_CONTEXT((#423))
GLOBAL_UNIT_ASSIGNED_CONTEXT((#426,#427,#428))
REPRESENTATION_CONTEXT('','3D')
);
#426=(
LENGTH_UNIT()
NAMED_UNIT(*)
SI_UNIT(.MILLI.,.METRE.)
);
#427=(
NAMED_UNIT(*)
PLANE_ANGLE_UNIT()
SI_UNIT($,.RADIAN.)
);
#428=(
NAMED_UNIT(*)
SI_UNIT($,.STERADIAN.)
SOLID_ANGLE_UNIT()
);
#429=SHAPE_DEFINITION_REPRESENTATION(#430,#431);
#430=PRODUCT_DEFINITION_SHAPE('',$,#433);
#431=SHAPE_REPRESENTATION('',(#250),#424);
#432=PRODUCT_DEFINITION_CONTEXT('part definition',#437,'design');
#433=PRODUCT_DEFINITION('Bodies','SampleHolder_simple v5',#434,#432);
#434=PRODUCT_DEFINITION_FORMATION('',$,#439);
#435=PRODUCT_RELATED_PRODUCT_CATEGORY('SampleHolder_simple v5',
'SampleHolder_simple v5',(#439));
#436=APPLICATION_PROTOCOL_DEFINITION('international standard',
'automotive_design',2009,#437);
#437=APPLICATION_CONTEXT(
'Core Data for Automotive Mechanical Design Process');
#438=PRODUCT_CONTEXT('part definition',#437,'mechanical');
#439=PRODUCT('Bodies','SampleHolder_simple v5',$,(#438));
#440=PRESENTATION_STYLE_ASSIGNMENT((#441));
#441=SURFACE_STYLE_USAGE(.BOTH.,#442);
#442=SURFACE_SIDE_STYLE('',(#443));
#443=SURFACE_STYLE_FILL_AREA(#444);
#444=FILL_AREA_STYLE('Steel - Satin',(#445));
#445=FILL_AREA_STYLE_COLOUR('Steel - Satin',#446);
#446=COLOUR_RGB('Steel - Satin',0.627450980392157,0.627450980392157,0.627450980392157);
ENDSEC;
END-ISO-10303-21;
