ISO-10303-21;
HEADER;
/* Generated by software containing ST-Developer
 * from STEP Tools, Inc. (www.steptools.com) 
 */

FILE_DESCRIPTION(
/* description */ (''),
/* implementation_level */ '2;1');

FILE_NAME(
/* name */ 'sampleHolder_fancy v4.step',
/* time_stamp */ '2024-06-17T13:18:24+02:00',
/* author */ (''),
/* organization */ (''),
/* preprocessor_version */ 'ST-DEVELOPER v20',
/* originating_system */ 'Autodesk Translation Framework v13.14.0.145',

/* authorisation */ '');

FILE_SCHEMA (('AUTOMOTIVE_DESIGN { 1 0 10303 214 3 1 1 }'));
ENDSEC;

DATA;
#10=MECHANICAL_DESIGN_GEOMETRIC_PRESENTATION_REPRESENTATION('',(#13),#1607);
#11=SHAPE_REPRESENTATION_RELATIONSHIP('SRR','None',#1613,#12);
#12=ADVANCED_BREP_SHAPE_REPRESENTATION('',(#14),#1606);
#13=STYLED_ITEM('',(#1622),#14);
#14=MANIFOLD_SOLID_BREP('Body1',#896);
#15=FACE_BOUND('',#112,.T.);
#16=FACE_BOUND('',#118,.T.);
#17=FACE_BOUND('',#123,.T.);
#18=FACE_BOUND('',#128,.T.);
#19=FACE_BOUND('',#133,.T.);
#20=FACE_BOUND('',#138,.T.);
#21=FACE_BOUND('',#141,.T.);
#22=FACE_BOUND('',#143,.T.);
#23=FACE_BOUND('',#144,.T.);
#24=FACE_BOUND('',#145,.T.);
#25=FACE_BOUND('',#146,.T.);
#26=FACE_BOUND('',#147,.T.);
#27=FACE_BOUND('',#148,.T.);
#28=FACE_BOUND('',#149,.T.);
#29=PLANE('',#943);
#30=PLANE('',#944);
#31=PLANE('',#945);
#32=PLANE('',#964);
#33=PLANE('',#965);
#34=PLANE('',#966);
#35=PLANE('',#970);
#36=PLANE('',#971);
#37=PLANE('',#972);
#38=PLANE('',#976);
#39=PLANE('',#977);
#40=PLANE('',#978);
#41=PLANE('',#982);
#42=PLANE('',#983);
#43=PLANE('',#984);
#44=PLANE('',#988);
#45=PLANE('',#989);
#46=PLANE('',#990);
#47=PLANE('',#993);
#48=PLANE('',#994);
#49=CYLINDRICAL_SURFACE('',#908,4.);
#50=CYLINDRICAL_SURFACE('',#916,2.5);
#51=CYLINDRICAL_SURFACE('',#920,2.5);
#52=CYLINDRICAL_SURFACE('',#924,2.5);
#53=CYLINDRICAL_SURFACE('',#928,2.5);
#54=CYLINDRICAL_SURFACE('',#932,2.5);
#55=CYLINDRICAL_SURFACE('',#936,2.5);
#56=CYLINDRICAL_SURFACE('',#940,1.);
#57=CYLINDRICAL_SURFACE('',#947,7.);
#58=CYLINDRICAL_SURFACE('',#961,1.);
#59=CYLINDRICAL_SURFACE('',#967,1.);
#60=CYLINDRICAL_SURFACE('',#973,1.);
#61=CYLINDRICAL_SURFACE('',#979,1.);
#62=CYLINDRICAL_SURFACE('',#985,1.);
#63=CYLINDRICAL_SURFACE('',#991,1.666);
#64=FACE_OUTER_BOUND('',#100,.T.);
#65=FACE_OUTER_BOUND('',#101,.T.);
#66=FACE_OUTER_BOUND('',#102,.T.);
#67=FACE_OUTER_BOUND('',#103,.T.);
#68=FACE_OUTER_BOUND('',#104,.T.);
#69=FACE_OUTER_BOUND('',#105,.T.);
#70=FACE_OUTER_BOUND('',#106,.T.);
#71=FACE_OUTER_BOUND('',#107,.T.);
#72=FACE_OUTER_BOUND('',#108,.T.);
#73=FACE_OUTER_BOUND('',#109,.T.);
#74=FACE_OUTER_BOUND('',#110,.T.);
#75=FACE_OUTER_BOUND('',#111,.T.);
#76=FACE_OUTER_BOUND('',#113,.T.);
#77=FACE_OUTER_BOUND('',#114,.T.);
#78=FACE_OUTER_BOUND('',#115,.T.);
#79=FACE_OUTER_BOUND('',#116,.T.);
#80=FACE_OUTER_BOUND('',#117,.T.);
#81=FACE_OUTER_BOUND('',#119,.T.);
#82=FACE_OUTER_BOUND('',#120,.T.);
#83=FACE_OUTER_BOUND('',#121,.T.);
#84=FACE_OUTER_BOUND('',#122,.T.);
#85=FACE_OUTER_BOUND('',#124,.T.);
#86=FACE_OUTER_BOUND('',#125,.T.);
#87=FACE_OUTER_BOUND('',#126,.T.);
#88=FACE_OUTER_BOUND('',#127,.T.);
#89=FACE_OUTER_BOUND('',#129,.T.);
#90=FACE_OUTER_BOUND('',#130,.T.);
#91=FACE_OUTER_BOUND('',#131,.T.);
#92=FACE_OUTER_BOUND('',#132,.T.);
#93=FACE_OUTER_BOUND('',#134,.T.);
#94=FACE_OUTER_BOUND('',#135,.T.);
#95=FACE_OUTER_BOUND('',#136,.T.);
#96=FACE_OUTER_BOUND('',#137,.T.);
#97=FACE_OUTER_BOUND('',#139,.T.);
#98=FACE_OUTER_BOUND('',#140,.T.);
#99=FACE_OUTER_BOUND('',#142,.T.);
#100=EDGE_LOOP('',(#585,#586,#587,#588,#589,#590,#591,#592,#593,#594,#595,
#596,#597,#598,#599,#600,#601));
#101=EDGE_LOOP('',(#602,#603,#604,#605,#606,#607,#608,#609,#610,#611,#612,
#613,#614,#615,#616,#617,#618,#619,#620,#621,#622,#623,#624,#625,#626,#627,
#628,#629));
#102=EDGE_LOOP('',(#630,#631,#632,#633,#634,#635,#636,#637));
#103=EDGE_LOOP('',(#638,#639,#640,#641,#642,#643,#644,#645));
#104=EDGE_LOOP('',(#646,#647,#648,#649,#650,#651,#652,#653));
#105=EDGE_LOOP('',(#654,#655,#656,#657,#658,#659,#660,#661));
#106=EDGE_LOOP('',(#662,#663,#664,#665,#666,#667,#668,#669));
#107=EDGE_LOOP('',(#670,#671,#672,#673,#674,#675,#676,#677));
#108=EDGE_LOOP('',(#678,#679,#680,#681));
#109=EDGE_LOOP('',(#682,#683,#684,#685));
#110=EDGE_LOOP('',(#686,#687,#688,#689));
#111=EDGE_LOOP('',(#690,#691,#692,#693,#694,#695));
#112=EDGE_LOOP('',(#696));
#113=EDGE_LOOP('',(#697,#698,#699,#700,#701,#702,#703,#704,#705,#706,#707,
#708,#709,#710,#711,#712,#713,#714,#715,#716,#717,#718,#719,#720,#721,#722,
#723,#724));
#114=EDGE_LOOP('',(#725,#726,#727,#728));
#115=EDGE_LOOP('',(#729,#730,#731,#732));
#116=EDGE_LOOP('',(#733,#734,#735,#736));
#117=EDGE_LOOP('',(#737,#738,#739,#740,#741,#742));
#118=EDGE_LOOP('',(#743));
#119=EDGE_LOOP('',(#744,#745,#746,#747));
#120=EDGE_LOOP('',(#748,#749,#750,#751));
#121=EDGE_LOOP('',(#752,#753,#754,#755));
#122=EDGE_LOOP('',(#756,#757,#758,#759,#760,#761));
#123=EDGE_LOOP('',(#762));
#124=EDGE_LOOP('',(#763,#764,#765,#766));
#125=EDGE_LOOP('',(#767,#768,#769,#770));
#126=EDGE_LOOP('',(#771,#772,#773,#774));
#127=EDGE_LOOP('',(#775,#776,#777,#778,#779,#780));
#128=EDGE_LOOP('',(#781));
#129=EDGE_LOOP('',(#782,#783,#784,#785));
#130=EDGE_LOOP('',(#786,#787,#788,#789));
#131=EDGE_LOOP('',(#790,#791,#792,#793));
#132=EDGE_LOOP('',(#794,#795,#796,#797,#798,#799));
#133=EDGE_LOOP('',(#800));
#134=EDGE_LOOP('',(#801,#802,#803,#804));
#135=EDGE_LOOP('',(#805,#806,#807,#808));
#136=EDGE_LOOP('',(#809,#810,#811,#812));
#137=EDGE_LOOP('',(#813,#814,#815,#816,#817,#818,#819));
#138=EDGE_LOOP('',(#820));
#139=EDGE_LOOP('',(#821,#822,#823,#824,#825));
#140=EDGE_LOOP('',(#826,#827,#828,#829,#830,#831,#832,#833,#834,#835,#836,
#837,#838,#839,#840,#841,#842,#843,#844,#845,#846,#847,#848,#849));
#141=EDGE_LOOP('',(#850));
#142=EDGE_LOOP('',(#851));
#143=EDGE_LOOP('',(#852));
#144=EDGE_LOOP('',(#853));
#145=EDGE_LOOP('',(#854));
#146=EDGE_LOOP('',(#855));
#147=EDGE_LOOP('',(#856));
#148=EDGE_LOOP('',(#857));
#149=EDGE_LOOP('',(#858));
#150=LINE('',#1333,#220);
#151=LINE('',#1375,#221);
#152=LINE('',#1377,#222);
#153=LINE('',#1380,#223);
#154=LINE('',#1382,#224);
#155=LINE('',#1385,#225);
#156=LINE('',#1387,#226);
#157=LINE('',#1390,#227);
#158=LINE('',#1392,#228);
#159=LINE('',#1395,#229);
#160=LINE('',#1397,#230);
#161=LINE('',#1400,#231);
#162=LINE('',#1402,#232);
#163=LINE('',#1405,#233);
#164=LINE('',#1410,#234);
#165=LINE('',#1414,#235);
#166=LINE('',#1420,#236);
#167=LINE('',#1424,#237);
#168=LINE('',#1430,#238);
#169=LINE('',#1434,#239);
#170=LINE('',#1440,#240);
#171=LINE('',#1444,#241);
#172=LINE('',#1450,#242);
#173=LINE('',#1454,#243);
#174=LINE('',#1460,#244);
#175=LINE('',#1464,#245);
#176=LINE('',#1470,#246);
#177=LINE('',#1474,#247);
#178=LINE('',#1476,#248);
#179=LINE('',#1477,#249);
#180=LINE('',#1480,#250);
#181=LINE('',#1482,#251);
#182=LINE('',#1483,#252);
#183=LINE('',#1490,#253);
#184=LINE('',#1494,#254);
#185=LINE('',#1499,#255);
#186=LINE('',#1503,#256);
#187=LINE('',#1507,#257);
#188=LINE('',#1511,#258);
#189=LINE('',#1515,#259);
#190=LINE('',#1519,#260);
#191=LINE('',#1523,#261);
#192=LINE('',#1527,#262);
#193=LINE('',#1531,#263);
#194=LINE('',#1537,#264);
#195=LINE('',#1540,#265);
#196=LINE('',#1541,#266);
#197=LINE('',#1543,#267);
#198=LINE('',#1544,#268);
#199=LINE('',#1550,#269);
#200=LINE('',#1553,#270);
#201=LINE('',#1554,#271);
#202=LINE('',#1556,#272);
#203=LINE('',#1557,#273);
#204=LINE('',#1563,#274);
#205=LINE('',#1566,#275);
#206=LINE('',#1567,#276);
#207=LINE('',#1569,#277);
#208=LINE('',#1570,#278);
#209=LINE('',#1576,#279);
#210=LINE('',#1579,#280);
#211=LINE('',#1580,#281);
#212=LINE('',#1582,#282);
#213=LINE('',#1583,#283);
#214=LINE('',#1589,#284);
#215=LINE('',#1592,#285);
#216=LINE('',#1593,#286);
#217=LINE('',#1595,#287);
#218=LINE('',#1596,#288);
#219=LINE('',#1601,#289);
#220=VECTOR('',#1007,2.);
#221=VECTOR('',#1022,4.);
#222=VECTOR('',#1023,10.);
#223=VECTOR('',#1026,10.);
#224=VECTOR('',#1027,10.);
#225=VECTOR('',#1030,10.);
#226=VECTOR('',#1031,10.);
#227=VECTOR('',#1034,10.);
#228=VECTOR('',#1035,10.);
#229=VECTOR('',#1038,10.);
#230=VECTOR('',#1039,10.);
#231=VECTOR('',#1042,10.);
#232=VECTOR('',#1043,10.);
#233=VECTOR('',#1046,10.);
#234=VECTOR('',#1051,10.);
#235=VECTOR('',#1054,10.);
#236=VECTOR('',#1061,10.);
#237=VECTOR('',#1064,10.);
#238=VECTOR('',#1071,10.);
#239=VECTOR('',#1074,10.);
#240=VECTOR('',#1081,10.);
#241=VECTOR('',#1084,10.);
#242=VECTOR('',#1091,10.);
#243=VECTOR('',#1094,10.);
#244=VECTOR('',#1101,10.);
#245=VECTOR('',#1104,10.);
#246=VECTOR('',#1111,1.);
#247=VECTOR('',#1116,10.);
#248=VECTOR('',#1117,10.);
#249=VECTOR('',#1118,10.);
#250=VECTOR('',#1121,10.);
#251=VECTOR('',#1122,10.);
#252=VECTOR('',#1123,10.);
#253=VECTOR('',#1132,7.);
#254=VECTOR('',#1135,10.);
#255=VECTOR('',#1140,10.);
#256=VECTOR('',#1143,10.);
#257=VECTOR('',#1146,10.);
#258=VECTOR('',#1149,10.);
#259=VECTOR('',#1152,10.);
#260=VECTOR('',#1155,10.);
#261=VECTOR('',#1158,10.);
#262=VECTOR('',#1161,10.);
#263=VECTOR('',#1164,10.);
#264=VECTOR('',#1171,1.);
#265=VECTOR('',#1176,10.);
#266=VECTOR('',#1177,10.);
#267=VECTOR('',#1180,10.);
#268=VECTOR('',#1181,10.);
#269=VECTOR('',#1188,1.);
#270=VECTOR('',#1193,10.);
#271=VECTOR('',#1194,10.);
#272=VECTOR('',#1197,10.);
#273=VECTOR('',#1198,10.);
#274=VECTOR('',#1205,1.);
#275=VECTOR('',#1210,10.);
#276=VECTOR('',#1211,10.);
#277=VECTOR('',#1214,10.);
#278=VECTOR('',#1215,10.);
#279=VECTOR('',#1222,1.);
#280=VECTOR('',#1227,10.);
#281=VECTOR('',#1228,10.);
#282=VECTOR('',#1231,10.);
#283=VECTOR('',#1232,10.);
#284=VECTOR('',#1239,1.);
#285=VECTOR('',#1244,10.);
#286=VECTOR('',#1245,10.);
#287=VECTOR('',#1248,10.);
#288=VECTOR('',#1249,10.);
#289=VECTOR('',#1256,1.666);
#290=CIRCLE('',#899,4.);
#291=CIRCLE('',#900,4.);
#292=CIRCLE('',#901,4.);
#293=CIRCLE('',#902,4.);
#294=CIRCLE('',#903,1.666);
#295=CIRCLE('',#904,1.666);
#296=CIRCLE('',#905,4.);
#297=CIRCLE('',#906,4.);
#298=CIRCLE('',#907,4.);
#299=CIRCLE('',#909,4.);
#300=CIRCLE('',#910,4.);
#301=CIRCLE('',#911,4.);
#302=CIRCLE('',#912,4.);
#303=CIRCLE('',#913,4.);
#304=CIRCLE('',#914,4.);
#305=CIRCLE('',#915,4.);
#306=CIRCLE('',#917,2.5);
#307=CIRCLE('',#918,2.5);
#308=CIRCLE('',#919,2.5);
#309=CIRCLE('',#921,2.5);
#310=CIRCLE('',#922,2.5);
#311=CIRCLE('',#923,2.5);
#312=CIRCLE('',#925,2.5);
#313=CIRCLE('',#926,2.5);
#314=CIRCLE('',#927,2.5);
#315=CIRCLE('',#929,2.5);
#316=CIRCLE('',#930,2.5);
#317=CIRCLE('',#931,2.5);
#318=CIRCLE('',#933,2.5);
#319=CIRCLE('',#934,2.5);
#320=CIRCLE('',#935,2.5);
#321=CIRCLE('',#937,2.5);
#322=CIRCLE('',#938,2.5);
#323=CIRCLE('',#939,2.5);
#324=CIRCLE('',#941,1.);
#325=CIRCLE('',#942,1.);
#326=CIRCLE('',#946,7.);
#327=CIRCLE('',#948,7.);
#328=CIRCLE('',#949,7.);
#329=CIRCLE('',#950,7.);
#330=CIRCLE('',#951,7.);
#331=CIRCLE('',#952,7.);
#332=CIRCLE('',#953,7.);
#333=CIRCLE('',#954,7.);
#334=CIRCLE('',#955,7.);
#335=CIRCLE('',#956,7.);
#336=CIRCLE('',#957,7.);
#337=CIRCLE('',#958,7.);
#338=CIRCLE('',#959,7.);
#339=CIRCLE('',#960,7.);
#340=CIRCLE('',#962,1.);
#341=CIRCLE('',#963,1.);
#342=CIRCLE('',#968,1.);
#343=CIRCLE('',#969,1.);
#344=CIRCLE('',#974,1.);
#345=CIRCLE('',#975,1.);
#346=CIRCLE('',#980,1.);
#347=CIRCLE('',#981,1.);
#348=CIRCLE('',#986,1.);
#349=CIRCLE('',#987,1.);
#350=CIRCLE('',#992,1.666);
#351=B_SPLINE_CURVE_WITH_KNOTS('',3,(#1265,#1266,#1267,#1268,#1269,#1270,
#1271,#1272,#1273,#1274,#1275,#1276,#1277,#1278),.UNSPECIFIED.,.F.,.F.,
(4,2,2,2,2,2,4),(0.10079074724716,0.158717866310214,0.222386667202923,0.286055468095632,
0.349724268988341,0.41339306988105,0.471320188944104),.UNSPECIFIED.);
#352=B_SPLINE_CURVE_WITH_KNOTS('',3,(#1282,#1283,#1284,#1285,#1286,#1287,
#1288,#1289,#1290,#1291,#1292,#1293,#1294,#1295),.UNSPECIFIED.,.F.,.F.,
(4,2,2,2,2,2,4),(0.10079074724716,0.158717866310214,0.222386667202923,0.286055468095632,
0.349724268988341,0.41339306988105,0.471320188944104),.UNSPECIFIED.);
#353=B_SPLINE_CURVE_WITH_KNOTS('',3,(#1299,#1300,#1301,#1302,#1303,#1304,
#1305,#1306,#1307,#1308,#1309,#1310,#1311,#1312),.UNSPECIFIED.,.F.,.F.,
(4,2,2,2,2,2,4),(0.100790747247161,0.158717866310214,0.222386667202923,
0.286055468095632,0.349724268988341,0.41339306988105,0.471320188944104),
 .UNSPECIFIED.);
#354=B_SPLINE_CURVE_WITH_KNOTS('',3,(#1316,#1317,#1318,#1319,#1320,#1321,
#1322,#1323,#1324,#1325,#1326,#1327,#1328,#1329),.UNSPECIFIED.,.F.,.F.,
(4,2,2,2,2,2,4),(0.100790747247161,0.158717866310214,0.222386667202923,
0.286055468095632,0.349724268988341,0.41339306988105,0.471320188944104),
 .UNSPECIFIED.);
#355=B_SPLINE_CURVE_WITH_KNOTS('',3,(#1340,#1341,#1342,#1343,#1344,#1345,
#1346,#1347,#1348,#1349,#1350,#1351,#1352,#1353),.UNSPECIFIED.,.F.,.F.,
(4,2,2,2,2,2,4),(0.100790747247161,0.158717866310214,0.222386667202923,
0.286055468095632,0.349724268988341,0.41339306988105,0.471320188944104),
 .UNSPECIFIED.);
#356=B_SPLINE_CURVE_WITH_KNOTS('',3,(#1357,#1358,#1359,#1360,#1361,#1362,
#1363,#1364,#1365,#1366,#1367,#1368,#1369,#1370),.UNSPECIFIED.,.F.,.F.,
(4,2,2,2,2,2,4),(0.100790747247161,0.158717866310214,0.222386667202923,
0.286055468095632,0.349724268988341,0.41339306988105,0.471320188944104),
 .UNSPECIFIED.);
#357=VERTEX_POINT('',#1263);
#358=VERTEX_POINT('',#1264);
#359=VERTEX_POINT('',#1279);
#360=VERTEX_POINT('',#1281);
#361=VERTEX_POINT('',#1296);
#362=VERTEX_POINT('',#1298);
#363=VERTEX_POINT('',#1313);
#364=VERTEX_POINT('',#1315);
#365=VERTEX_POINT('',#1330);
#366=VERTEX_POINT('',#1332);
#367=VERTEX_POINT('',#1334);
#368=VERTEX_POINT('',#1337);
#369=VERTEX_POINT('',#1339);
#370=VERTEX_POINT('',#1354);
#371=VERTEX_POINT('',#1356);
#372=VERTEX_POINT('',#1373);
#373=VERTEX_POINT('',#1376);
#374=VERTEX_POINT('',#1378);
#375=VERTEX_POINT('',#1381);
#376=VERTEX_POINT('',#1383);
#377=VERTEX_POINT('',#1386);
#378=VERTEX_POINT('',#1388);
#379=VERTEX_POINT('',#1391);
#380=VERTEX_POINT('',#1393);
#381=VERTEX_POINT('',#1396);
#382=VERTEX_POINT('',#1398);
#383=VERTEX_POINT('',#1401);
#384=VERTEX_POINT('',#1403);
#385=VERTEX_POINT('',#1407);
#386=VERTEX_POINT('',#1409);
#387=VERTEX_POINT('',#1411);
#388=VERTEX_POINT('',#1413);
#389=VERTEX_POINT('',#1417);
#390=VERTEX_POINT('',#1419);
#391=VERTEX_POINT('',#1421);
#392=VERTEX_POINT('',#1423);
#393=VERTEX_POINT('',#1427);
#394=VERTEX_POINT('',#1429);
#395=VERTEX_POINT('',#1431);
#396=VERTEX_POINT('',#1433);
#397=VERTEX_POINT('',#1437);
#398=VERTEX_POINT('',#1439);
#399=VERTEX_POINT('',#1441);
#400=VERTEX_POINT('',#1443);
#401=VERTEX_POINT('',#1447);
#402=VERTEX_POINT('',#1449);
#403=VERTEX_POINT('',#1451);
#404=VERTEX_POINT('',#1453);
#405=VERTEX_POINT('',#1457);
#406=VERTEX_POINT('',#1459);
#407=VERTEX_POINT('',#1461);
#408=VERTEX_POINT('',#1463);
#409=VERTEX_POINT('',#1467);
#410=VERTEX_POINT('',#1469);
#411=VERTEX_POINT('',#1473);
#412=VERTEX_POINT('',#1475);
#413=VERTEX_POINT('',#1479);
#414=VERTEX_POINT('',#1481);
#415=VERTEX_POINT('',#1487);
#416=VERTEX_POINT('',#1489);
#417=VERTEX_POINT('',#1491);
#418=VERTEX_POINT('',#1493);
#419=VERTEX_POINT('',#1496);
#420=VERTEX_POINT('',#1498);
#421=VERTEX_POINT('',#1500);
#422=VERTEX_POINT('',#1502);
#423=VERTEX_POINT('',#1504);
#424=VERTEX_POINT('',#1506);
#425=VERTEX_POINT('',#1508);
#426=VERTEX_POINT('',#1510);
#427=VERTEX_POINT('',#1512);
#428=VERTEX_POINT('',#1514);
#429=VERTEX_POINT('',#1516);
#430=VERTEX_POINT('',#1518);
#431=VERTEX_POINT('',#1520);
#432=VERTEX_POINT('',#1522);
#433=VERTEX_POINT('',#1524);
#434=VERTEX_POINT('',#1526);
#435=VERTEX_POINT('',#1528);
#436=VERTEX_POINT('',#1530);
#437=VERTEX_POINT('',#1534);
#438=VERTEX_POINT('',#1536);
#439=VERTEX_POINT('',#1547);
#440=VERTEX_POINT('',#1549);
#441=VERTEX_POINT('',#1560);
#442=VERTEX_POINT('',#1562);
#443=VERTEX_POINT('',#1573);
#444=VERTEX_POINT('',#1575);
#445=VERTEX_POINT('',#1586);
#446=VERTEX_POINT('',#1588);
#447=VERTEX_POINT('',#1599);
#448=EDGE_CURVE('',#357,#358,#351,.T.);
#449=EDGE_CURVE('',#359,#358,#290,.T.);
#450=EDGE_CURVE('',#359,#360,#352,.T.);
#451=EDGE_CURVE('',#361,#360,#291,.T.);
#452=EDGE_CURVE('',#361,#362,#353,.T.);
#453=EDGE_CURVE('',#363,#362,#292,.T.);
#454=EDGE_CURVE('',#363,#364,#354,.T.);
#455=EDGE_CURVE('',#365,#364,#293,.T.);
#456=EDGE_CURVE('',#365,#366,#150,.T.);
#457=EDGE_CURVE('',#367,#366,#294,.T.);
#458=EDGE_CURVE('',#366,#367,#295,.T.);
#459=EDGE_CURVE('',#368,#365,#296,.T.);
#460=EDGE_CURVE('',#368,#369,#355,.T.);
#461=EDGE_CURVE('',#370,#369,#297,.T.);
#462=EDGE_CURVE('',#370,#371,#356,.T.);
#463=EDGE_CURVE('',#357,#371,#298,.T.);
#464=EDGE_CURVE('',#372,#372,#299,.T.);
#465=EDGE_CURVE('',#372,#365,#151,.T.);
#466=EDGE_CURVE('',#373,#364,#152,.T.);
#467=EDGE_CURVE('',#374,#373,#300,.T.);
#468=EDGE_CURVE('',#363,#374,#153,.T.);
#469=EDGE_CURVE('',#375,#362,#154,.T.);
#470=EDGE_CURVE('',#376,#375,#301,.T.);
#471=EDGE_CURVE('',#361,#376,#155,.T.);
#472=EDGE_CURVE('',#377,#360,#156,.T.);
#473=EDGE_CURVE('',#378,#377,#302,.T.);
#474=EDGE_CURVE('',#359,#378,#157,.T.);
#475=EDGE_CURVE('',#379,#358,#158,.T.);
#476=EDGE_CURVE('',#380,#379,#303,.T.);
#477=EDGE_CURVE('',#357,#380,#159,.T.);
#478=EDGE_CURVE('',#381,#371,#160,.T.);
#479=EDGE_CURVE('',#382,#381,#304,.T.);
#480=EDGE_CURVE('',#370,#382,#161,.T.);
#481=EDGE_CURVE('',#383,#369,#162,.T.);
#482=EDGE_CURVE('',#384,#383,#305,.T.);
#483=EDGE_CURVE('',#368,#384,#163,.T.);
#484=EDGE_CURVE('',#380,#385,#306,.T.);
#485=EDGE_CURVE('',#386,#385,#164,.T.);
#486=EDGE_CURVE('',#387,#386,#307,.T.);
#487=EDGE_CURVE('',#387,#388,#165,.T.);
#488=EDGE_CURVE('',#388,#379,#308,.T.);
#489=EDGE_CURVE('',#378,#389,#309,.T.);
#490=EDGE_CURVE('',#390,#389,#166,.T.);
#491=EDGE_CURVE('',#391,#390,#310,.T.);
#492=EDGE_CURVE('',#391,#392,#167,.T.);
#493=EDGE_CURVE('',#392,#377,#311,.T.);
#494=EDGE_CURVE('',#376,#393,#312,.T.);
#495=EDGE_CURVE('',#394,#393,#168,.T.);
#496=EDGE_CURVE('',#395,#394,#313,.T.);
#497=EDGE_CURVE('',#395,#396,#169,.T.);
#498=EDGE_CURVE('',#396,#375,#314,.T.);
#499=EDGE_CURVE('',#374,#397,#315,.T.);
#500=EDGE_CURVE('',#398,#397,#170,.T.);
#501=EDGE_CURVE('',#399,#398,#316,.T.);
#502=EDGE_CURVE('',#399,#400,#171,.T.);
#503=EDGE_CURVE('',#400,#373,#317,.T.);
#504=EDGE_CURVE('',#384,#401,#318,.T.);
#505=EDGE_CURVE('',#402,#401,#172,.T.);
#506=EDGE_CURVE('',#403,#402,#319,.T.);
#507=EDGE_CURVE('',#403,#404,#173,.T.);
#508=EDGE_CURVE('',#404,#383,#320,.T.);
#509=EDGE_CURVE('',#382,#405,#321,.T.);
#510=EDGE_CURVE('',#406,#405,#174,.T.);
#511=EDGE_CURVE('',#407,#406,#322,.T.);
#512=EDGE_CURVE('',#407,#408,#175,.T.);
#513=EDGE_CURVE('',#408,#381,#323,.T.);
#514=EDGE_CURVE('',#409,#409,#324,.T.);
#515=EDGE_CURVE('',#409,#410,#176,.T.);
#516=EDGE_CURVE('',#410,#410,#325,.T.);
#517=EDGE_CURVE('',#386,#411,#177,.T.);
#518=EDGE_CURVE('',#385,#412,#178,.T.);
#519=EDGE_CURVE('',#411,#412,#179,.T.);
#520=EDGE_CURVE('',#413,#387,#180,.T.);
#521=EDGE_CURVE('',#414,#413,#181,.T.);
#522=EDGE_CURVE('',#414,#388,#182,.T.);
#523=EDGE_CURVE('',#412,#414,#326,.T.);
#524=EDGE_CURVE('',#415,#415,#327,.T.);
#525=EDGE_CURVE('',#415,#416,#183,.T.);
#526=EDGE_CURVE('',#416,#417,#328,.T.);
#527=EDGE_CURVE('',#417,#418,#184,.T.);
#528=EDGE_CURVE('',#411,#418,#329,.T.);
#529=EDGE_CURVE('',#419,#413,#330,.T.);
#530=EDGE_CURVE('',#419,#420,#185,.T.);
#531=EDGE_CURVE('',#420,#421,#331,.T.);
#532=EDGE_CURVE('',#421,#422,#186,.T.);
#533=EDGE_CURVE('',#423,#422,#332,.T.);
#534=EDGE_CURVE('',#423,#424,#187,.T.);
#535=EDGE_CURVE('',#424,#425,#333,.T.);
#536=EDGE_CURVE('',#425,#426,#188,.T.);
#537=EDGE_CURVE('',#427,#426,#334,.T.);
#538=EDGE_CURVE('',#427,#428,#189,.T.);
#539=EDGE_CURVE('',#428,#429,#335,.T.);
#540=EDGE_CURVE('',#429,#430,#190,.T.);
#541=EDGE_CURVE('',#431,#430,#336,.T.);
#542=EDGE_CURVE('',#431,#432,#191,.T.);
#543=EDGE_CURVE('',#432,#433,#337,.T.);
#544=EDGE_CURVE('',#433,#434,#192,.T.);
#545=EDGE_CURVE('',#435,#434,#338,.T.);
#546=EDGE_CURVE('',#435,#436,#193,.T.);
#547=EDGE_CURVE('',#436,#416,#339,.T.);
#548=EDGE_CURVE('',#437,#437,#340,.T.);
#549=EDGE_CURVE('',#437,#438,#194,.T.);
#550=EDGE_CURVE('',#438,#438,#341,.T.);
#551=EDGE_CURVE('',#390,#419,#195,.T.);
#552=EDGE_CURVE('',#389,#420,#196,.T.);
#553=EDGE_CURVE('',#422,#391,#197,.T.);
#554=EDGE_CURVE('',#421,#392,#198,.T.);
#555=EDGE_CURVE('',#439,#439,#342,.T.);
#556=EDGE_CURVE('',#439,#440,#199,.T.);
#557=EDGE_CURVE('',#440,#440,#343,.T.);
#558=EDGE_CURVE('',#394,#423,#200,.T.);
#559=EDGE_CURVE('',#393,#424,#201,.T.);
#560=EDGE_CURVE('',#426,#395,#202,.T.);
#561=EDGE_CURVE('',#425,#396,#203,.T.);
#562=EDGE_CURVE('',#441,#441,#344,.T.);
#563=EDGE_CURVE('',#441,#442,#204,.T.);
#564=EDGE_CURVE('',#442,#442,#345,.T.);
#565=EDGE_CURVE('',#398,#427,#205,.T.);
#566=EDGE_CURVE('',#397,#428,#206,.T.);
#567=EDGE_CURVE('',#430,#399,#207,.T.);
#568=EDGE_CURVE('',#429,#400,#208,.T.);
#569=EDGE_CURVE('',#443,#443,#346,.T.);
#570=EDGE_CURVE('',#443,#444,#209,.T.);
#571=EDGE_CURVE('',#444,#444,#347,.T.);
#572=EDGE_CURVE('',#402,#431,#210,.T.);
#573=EDGE_CURVE('',#401,#432,#211,.T.);
#574=EDGE_CURVE('',#434,#403,#212,.T.);
#575=EDGE_CURVE('',#433,#404,#213,.T.);
#576=EDGE_CURVE('',#445,#445,#348,.T.);
#577=EDGE_CURVE('',#445,#446,#214,.T.);
#578=EDGE_CURVE('',#446,#446,#349,.T.);
#579=EDGE_CURVE('',#406,#435,#215,.T.);
#580=EDGE_CURVE('',#405,#436,#216,.T.);
#581=EDGE_CURVE('',#418,#407,#217,.T.);
#582=EDGE_CURVE('',#417,#408,#218,.T.);
#583=EDGE_CURVE('',#447,#447,#350,.T.);
#584=EDGE_CURVE('',#447,#367,#219,.T.);
#585=ORIENTED_EDGE('',*,*,#448,.T.);
#586=ORIENTED_EDGE('',*,*,#449,.F.);
#587=ORIENTED_EDGE('',*,*,#450,.T.);
#588=ORIENTED_EDGE('',*,*,#451,.F.);
#589=ORIENTED_EDGE('',*,*,#452,.T.);
#590=ORIENTED_EDGE('',*,*,#453,.F.);
#591=ORIENTED_EDGE('',*,*,#454,.T.);
#592=ORIENTED_EDGE('',*,*,#455,.F.);
#593=ORIENTED_EDGE('',*,*,#456,.T.);
#594=ORIENTED_EDGE('',*,*,#457,.F.);
#595=ORIENTED_EDGE('',*,*,#458,.F.);
#596=ORIENTED_EDGE('',*,*,#456,.F.);
#597=ORIENTED_EDGE('',*,*,#459,.F.);
#598=ORIENTED_EDGE('',*,*,#460,.T.);
#599=ORIENTED_EDGE('',*,*,#461,.F.);
#600=ORIENTED_EDGE('',*,*,#462,.T.);
#601=ORIENTED_EDGE('',*,*,#463,.F.);
#602=ORIENTED_EDGE('',*,*,#464,.F.);
#603=ORIENTED_EDGE('',*,*,#465,.T.);
#604=ORIENTED_EDGE('',*,*,#455,.T.);
#605=ORIENTED_EDGE('',*,*,#466,.F.);
#606=ORIENTED_EDGE('',*,*,#467,.F.);
#607=ORIENTED_EDGE('',*,*,#468,.F.);
#608=ORIENTED_EDGE('',*,*,#453,.T.);
#609=ORIENTED_EDGE('',*,*,#469,.F.);
#610=ORIENTED_EDGE('',*,*,#470,.F.);
#611=ORIENTED_EDGE('',*,*,#471,.F.);
#612=ORIENTED_EDGE('',*,*,#451,.T.);
#613=ORIENTED_EDGE('',*,*,#472,.F.);
#614=ORIENTED_EDGE('',*,*,#473,.F.);
#615=ORIENTED_EDGE('',*,*,#474,.F.);
#616=ORIENTED_EDGE('',*,*,#449,.T.);
#617=ORIENTED_EDGE('',*,*,#475,.F.);
#618=ORIENTED_EDGE('',*,*,#476,.F.);
#619=ORIENTED_EDGE('',*,*,#477,.F.);
#620=ORIENTED_EDGE('',*,*,#463,.T.);
#621=ORIENTED_EDGE('',*,*,#478,.F.);
#622=ORIENTED_EDGE('',*,*,#479,.F.);
#623=ORIENTED_EDGE('',*,*,#480,.F.);
#624=ORIENTED_EDGE('',*,*,#461,.T.);
#625=ORIENTED_EDGE('',*,*,#481,.F.);
#626=ORIENTED_EDGE('',*,*,#482,.F.);
#627=ORIENTED_EDGE('',*,*,#483,.F.);
#628=ORIENTED_EDGE('',*,*,#459,.T.);
#629=ORIENTED_EDGE('',*,*,#465,.F.);
#630=ORIENTED_EDGE('',*,*,#475,.T.);
#631=ORIENTED_EDGE('',*,*,#448,.F.);
#632=ORIENTED_EDGE('',*,*,#477,.T.);
#633=ORIENTED_EDGE('',*,*,#484,.T.);
#634=ORIENTED_EDGE('',*,*,#485,.F.);
#635=ORIENTED_EDGE('',*,*,#486,.F.);
#636=ORIENTED_EDGE('',*,*,#487,.T.);
#637=ORIENTED_EDGE('',*,*,#488,.T.);
#638=ORIENTED_EDGE('',*,*,#472,.T.);
#639=ORIENTED_EDGE('',*,*,#450,.F.);
#640=ORIENTED_EDGE('',*,*,#474,.T.);
#641=ORIENTED_EDGE('',*,*,#489,.T.);
#642=ORIENTED_EDGE('',*,*,#490,.F.);
#643=ORIENTED_EDGE('',*,*,#491,.F.);
#644=ORIENTED_EDGE('',*,*,#492,.T.);
#645=ORIENTED_EDGE('',*,*,#493,.T.);
#646=ORIENTED_EDGE('',*,*,#469,.T.);
#647=ORIENTED_EDGE('',*,*,#452,.F.);
#648=ORIENTED_EDGE('',*,*,#471,.T.);
#649=ORIENTED_EDGE('',*,*,#494,.T.);
#650=ORIENTED_EDGE('',*,*,#495,.F.);
#651=ORIENTED_EDGE('',*,*,#496,.F.);
#652=ORIENTED_EDGE('',*,*,#497,.T.);
#653=ORIENTED_EDGE('',*,*,#498,.T.);
#654=ORIENTED_EDGE('',*,*,#466,.T.);
#655=ORIENTED_EDGE('',*,*,#454,.F.);
#656=ORIENTED_EDGE('',*,*,#468,.T.);
#657=ORIENTED_EDGE('',*,*,#499,.T.);
#658=ORIENTED_EDGE('',*,*,#500,.F.);
#659=ORIENTED_EDGE('',*,*,#501,.F.);
#660=ORIENTED_EDGE('',*,*,#502,.T.);
#661=ORIENTED_EDGE('',*,*,#503,.T.);
#662=ORIENTED_EDGE('',*,*,#481,.T.);
#663=ORIENTED_EDGE('',*,*,#460,.F.);
#664=ORIENTED_EDGE('',*,*,#483,.T.);
#665=ORIENTED_EDGE('',*,*,#504,.T.);
#666=ORIENTED_EDGE('',*,*,#505,.F.);
#667=ORIENTED_EDGE('',*,*,#506,.F.);
#668=ORIENTED_EDGE('',*,*,#507,.T.);
#669=ORIENTED_EDGE('',*,*,#508,.T.);
#670=ORIENTED_EDGE('',*,*,#478,.T.);
#671=ORIENTED_EDGE('',*,*,#462,.F.);
#672=ORIENTED_EDGE('',*,*,#480,.T.);
#673=ORIENTED_EDGE('',*,*,#509,.T.);
#674=ORIENTED_EDGE('',*,*,#510,.F.);
#675=ORIENTED_EDGE('',*,*,#511,.F.);
#676=ORIENTED_EDGE('',*,*,#512,.T.);
#677=ORIENTED_EDGE('',*,*,#513,.T.);
#678=ORIENTED_EDGE('',*,*,#514,.F.);
#679=ORIENTED_EDGE('',*,*,#515,.T.);
#680=ORIENTED_EDGE('',*,*,#516,.F.);
#681=ORIENTED_EDGE('',*,*,#515,.F.);
#682=ORIENTED_EDGE('',*,*,#517,.F.);
#683=ORIENTED_EDGE('',*,*,#485,.T.);
#684=ORIENTED_EDGE('',*,*,#518,.T.);
#685=ORIENTED_EDGE('',*,*,#519,.F.);
#686=ORIENTED_EDGE('',*,*,#520,.F.);
#687=ORIENTED_EDGE('',*,*,#521,.F.);
#688=ORIENTED_EDGE('',*,*,#522,.T.);
#689=ORIENTED_EDGE('',*,*,#487,.F.);
#690=ORIENTED_EDGE('',*,*,#476,.T.);
#691=ORIENTED_EDGE('',*,*,#488,.F.);
#692=ORIENTED_EDGE('',*,*,#522,.F.);
#693=ORIENTED_EDGE('',*,*,#523,.F.);
#694=ORIENTED_EDGE('',*,*,#518,.F.);
#695=ORIENTED_EDGE('',*,*,#484,.F.);
#696=ORIENTED_EDGE('',*,*,#514,.T.);
#697=ORIENTED_EDGE('',*,*,#524,.F.);
#698=ORIENTED_EDGE('',*,*,#525,.T.);
#699=ORIENTED_EDGE('',*,*,#526,.T.);
#700=ORIENTED_EDGE('',*,*,#527,.T.);
#701=ORIENTED_EDGE('',*,*,#528,.F.);
#702=ORIENTED_EDGE('',*,*,#519,.T.);
#703=ORIENTED_EDGE('',*,*,#523,.T.);
#704=ORIENTED_EDGE('',*,*,#521,.T.);
#705=ORIENTED_EDGE('',*,*,#529,.F.);
#706=ORIENTED_EDGE('',*,*,#530,.T.);
#707=ORIENTED_EDGE('',*,*,#531,.T.);
#708=ORIENTED_EDGE('',*,*,#532,.T.);
#709=ORIENTED_EDGE('',*,*,#533,.F.);
#710=ORIENTED_EDGE('',*,*,#534,.T.);
#711=ORIENTED_EDGE('',*,*,#535,.T.);
#712=ORIENTED_EDGE('',*,*,#536,.T.);
#713=ORIENTED_EDGE('',*,*,#537,.F.);
#714=ORIENTED_EDGE('',*,*,#538,.T.);
#715=ORIENTED_EDGE('',*,*,#539,.T.);
#716=ORIENTED_EDGE('',*,*,#540,.T.);
#717=ORIENTED_EDGE('',*,*,#541,.F.);
#718=ORIENTED_EDGE('',*,*,#542,.T.);
#719=ORIENTED_EDGE('',*,*,#543,.T.);
#720=ORIENTED_EDGE('',*,*,#544,.T.);
#721=ORIENTED_EDGE('',*,*,#545,.F.);
#722=ORIENTED_EDGE('',*,*,#546,.T.);
#723=ORIENTED_EDGE('',*,*,#547,.T.);
#724=ORIENTED_EDGE('',*,*,#525,.F.);
#725=ORIENTED_EDGE('',*,*,#548,.F.);
#726=ORIENTED_EDGE('',*,*,#549,.T.);
#727=ORIENTED_EDGE('',*,*,#550,.F.);
#728=ORIENTED_EDGE('',*,*,#549,.F.);
#729=ORIENTED_EDGE('',*,*,#551,.F.);
#730=ORIENTED_EDGE('',*,*,#490,.T.);
#731=ORIENTED_EDGE('',*,*,#552,.T.);
#732=ORIENTED_EDGE('',*,*,#530,.F.);
#733=ORIENTED_EDGE('',*,*,#553,.F.);
#734=ORIENTED_EDGE('',*,*,#532,.F.);
#735=ORIENTED_EDGE('',*,*,#554,.T.);
#736=ORIENTED_EDGE('',*,*,#492,.F.);
#737=ORIENTED_EDGE('',*,*,#473,.T.);
#738=ORIENTED_EDGE('',*,*,#493,.F.);
#739=ORIENTED_EDGE('',*,*,#554,.F.);
#740=ORIENTED_EDGE('',*,*,#531,.F.);
#741=ORIENTED_EDGE('',*,*,#552,.F.);
#742=ORIENTED_EDGE('',*,*,#489,.F.);
#743=ORIENTED_EDGE('',*,*,#548,.T.);
#744=ORIENTED_EDGE('',*,*,#555,.F.);
#745=ORIENTED_EDGE('',*,*,#556,.T.);
#746=ORIENTED_EDGE('',*,*,#557,.F.);
#747=ORIENTED_EDGE('',*,*,#556,.F.);
#748=ORIENTED_EDGE('',*,*,#558,.F.);
#749=ORIENTED_EDGE('',*,*,#495,.T.);
#750=ORIENTED_EDGE('',*,*,#559,.T.);
#751=ORIENTED_EDGE('',*,*,#534,.F.);
#752=ORIENTED_EDGE('',*,*,#560,.F.);
#753=ORIENTED_EDGE('',*,*,#536,.F.);
#754=ORIENTED_EDGE('',*,*,#561,.T.);
#755=ORIENTED_EDGE('',*,*,#497,.F.);
#756=ORIENTED_EDGE('',*,*,#470,.T.);
#757=ORIENTED_EDGE('',*,*,#498,.F.);
#758=ORIENTED_EDGE('',*,*,#561,.F.);
#759=ORIENTED_EDGE('',*,*,#535,.F.);
#760=ORIENTED_EDGE('',*,*,#559,.F.);
#761=ORIENTED_EDGE('',*,*,#494,.F.);
#762=ORIENTED_EDGE('',*,*,#555,.T.);
#763=ORIENTED_EDGE('',*,*,#562,.F.);
#764=ORIENTED_EDGE('',*,*,#563,.T.);
#765=ORIENTED_EDGE('',*,*,#564,.F.);
#766=ORIENTED_EDGE('',*,*,#563,.F.);
#767=ORIENTED_EDGE('',*,*,#565,.F.);
#768=ORIENTED_EDGE('',*,*,#500,.T.);
#769=ORIENTED_EDGE('',*,*,#566,.T.);
#770=ORIENTED_EDGE('',*,*,#538,.F.);
#771=ORIENTED_EDGE('',*,*,#567,.F.);
#772=ORIENTED_EDGE('',*,*,#540,.F.);
#773=ORIENTED_EDGE('',*,*,#568,.T.);
#774=ORIENTED_EDGE('',*,*,#502,.F.);
#775=ORIENTED_EDGE('',*,*,#467,.T.);
#776=ORIENTED_EDGE('',*,*,#503,.F.);
#777=ORIENTED_EDGE('',*,*,#568,.F.);
#778=ORIENTED_EDGE('',*,*,#539,.F.);
#779=ORIENTED_EDGE('',*,*,#566,.F.);
#780=ORIENTED_EDGE('',*,*,#499,.F.);
#781=ORIENTED_EDGE('',*,*,#562,.T.);
#782=ORIENTED_EDGE('',*,*,#569,.F.);
#783=ORIENTED_EDGE('',*,*,#570,.T.);
#784=ORIENTED_EDGE('',*,*,#571,.F.);
#785=ORIENTED_EDGE('',*,*,#570,.F.);
#786=ORIENTED_EDGE('',*,*,#572,.F.);
#787=ORIENTED_EDGE('',*,*,#505,.T.);
#788=ORIENTED_EDGE('',*,*,#573,.T.);
#789=ORIENTED_EDGE('',*,*,#542,.F.);
#790=ORIENTED_EDGE('',*,*,#574,.F.);
#791=ORIENTED_EDGE('',*,*,#544,.F.);
#792=ORIENTED_EDGE('',*,*,#575,.T.);
#793=ORIENTED_EDGE('',*,*,#507,.F.);
#794=ORIENTED_EDGE('',*,*,#482,.T.);
#795=ORIENTED_EDGE('',*,*,#508,.F.);
#796=ORIENTED_EDGE('',*,*,#575,.F.);
#797=ORIENTED_EDGE('',*,*,#543,.F.);
#798=ORIENTED_EDGE('',*,*,#573,.F.);
#799=ORIENTED_EDGE('',*,*,#504,.F.);
#800=ORIENTED_EDGE('',*,*,#569,.T.);
#801=ORIENTED_EDGE('',*,*,#576,.F.);
#802=ORIENTED_EDGE('',*,*,#577,.T.);
#803=ORIENTED_EDGE('',*,*,#578,.F.);
#804=ORIENTED_EDGE('',*,*,#577,.F.);
#805=ORIENTED_EDGE('',*,*,#579,.F.);
#806=ORIENTED_EDGE('',*,*,#510,.T.);
#807=ORIENTED_EDGE('',*,*,#580,.T.);
#808=ORIENTED_EDGE('',*,*,#546,.F.);
#809=ORIENTED_EDGE('',*,*,#581,.F.);
#810=ORIENTED_EDGE('',*,*,#527,.F.);
#811=ORIENTED_EDGE('',*,*,#582,.T.);
#812=ORIENTED_EDGE('',*,*,#512,.F.);
#813=ORIENTED_EDGE('',*,*,#479,.T.);
#814=ORIENTED_EDGE('',*,*,#513,.F.);
#815=ORIENTED_EDGE('',*,*,#582,.F.);
#816=ORIENTED_EDGE('',*,*,#526,.F.);
#817=ORIENTED_EDGE('',*,*,#547,.F.);
#818=ORIENTED_EDGE('',*,*,#580,.F.);
#819=ORIENTED_EDGE('',*,*,#509,.F.);
#820=ORIENTED_EDGE('',*,*,#576,.T.);
#821=ORIENTED_EDGE('',*,*,#583,.F.);
#822=ORIENTED_EDGE('',*,*,#584,.T.);
#823=ORIENTED_EDGE('',*,*,#457,.T.);
#824=ORIENTED_EDGE('',*,*,#458,.T.);
#825=ORIENTED_EDGE('',*,*,#584,.F.);
#826=ORIENTED_EDGE('',*,*,#517,.T.);
#827=ORIENTED_EDGE('',*,*,#528,.T.);
#828=ORIENTED_EDGE('',*,*,#581,.T.);
#829=ORIENTED_EDGE('',*,*,#511,.T.);
#830=ORIENTED_EDGE('',*,*,#579,.T.);
#831=ORIENTED_EDGE('',*,*,#545,.T.);
#832=ORIENTED_EDGE('',*,*,#574,.T.);
#833=ORIENTED_EDGE('',*,*,#506,.T.);
#834=ORIENTED_EDGE('',*,*,#572,.T.);
#835=ORIENTED_EDGE('',*,*,#541,.T.);
#836=ORIENTED_EDGE('',*,*,#567,.T.);
#837=ORIENTED_EDGE('',*,*,#501,.T.);
#838=ORIENTED_EDGE('',*,*,#565,.T.);
#839=ORIENTED_EDGE('',*,*,#537,.T.);
#840=ORIENTED_EDGE('',*,*,#560,.T.);
#841=ORIENTED_EDGE('',*,*,#496,.T.);
#842=ORIENTED_EDGE('',*,*,#558,.T.);
#843=ORIENTED_EDGE('',*,*,#533,.T.);
#844=ORIENTED_EDGE('',*,*,#553,.T.);
#845=ORIENTED_EDGE('',*,*,#491,.T.);
#846=ORIENTED_EDGE('',*,*,#551,.T.);
#847=ORIENTED_EDGE('',*,*,#529,.T.);
#848=ORIENTED_EDGE('',*,*,#520,.T.);
#849=ORIENTED_EDGE('',*,*,#486,.T.);
#850=ORIENTED_EDGE('',*,*,#583,.T.);
#851=ORIENTED_EDGE('',*,*,#524,.T.);
#852=ORIENTED_EDGE('',*,*,#464,.T.);
#853=ORIENTED_EDGE('',*,*,#516,.T.);
#854=ORIENTED_EDGE('',*,*,#550,.T.);
#855=ORIENTED_EDGE('',*,*,#557,.T.);
#856=ORIENTED_EDGE('',*,*,#564,.T.);
#857=ORIENTED_EDGE('',*,*,#571,.T.);
#858=ORIENTED_EDGE('',*,*,#578,.T.);
#859=CONICAL_SURFACE('',#898,2.,1.02974425867665);
#860=ADVANCED_FACE('',(#64),#859,.F.);
#861=ADVANCED_FACE('',(#65),#49,.F.);
#862=ADVANCED_FACE('',(#66),#50,.F.);
#863=ADVANCED_FACE('',(#67),#51,.F.);
#864=ADVANCED_FACE('',(#68),#52,.F.);
#865=ADVANCED_FACE('',(#69),#53,.F.);
#866=ADVANCED_FACE('',(#70),#54,.F.);
#867=ADVANCED_FACE('',(#71),#55,.F.);
#868=ADVANCED_FACE('',(#72),#56,.F.);
#869=ADVANCED_FACE('',(#73),#29,.F.);
#870=ADVANCED_FACE('',(#74),#30,.F.);
#871=ADVANCED_FACE('',(#75,#15),#31,.T.);
#872=ADVANCED_FACE('',(#76),#57,.T.);
#873=ADVANCED_FACE('',(#77),#58,.F.);
#874=ADVANCED_FACE('',(#78),#32,.F.);
#875=ADVANCED_FACE('',(#79),#33,.F.);
#876=ADVANCED_FACE('',(#80,#16),#34,.T.);
#877=ADVANCED_FACE('',(#81),#59,.F.);
#878=ADVANCED_FACE('',(#82),#35,.F.);
#879=ADVANCED_FACE('',(#83),#36,.F.);
#880=ADVANCED_FACE('',(#84,#17),#37,.T.);
#881=ADVANCED_FACE('',(#85),#60,.F.);
#882=ADVANCED_FACE('',(#86),#38,.F.);
#883=ADVANCED_FACE('',(#87),#39,.F.);
#884=ADVANCED_FACE('',(#88,#18),#40,.T.);
#885=ADVANCED_FACE('',(#89),#61,.F.);
#886=ADVANCED_FACE('',(#90),#41,.F.);
#887=ADVANCED_FACE('',(#91),#42,.F.);
#888=ADVANCED_FACE('',(#92,#19),#43,.T.);
#889=ADVANCED_FACE('',(#93),#62,.F.);
#890=ADVANCED_FACE('',(#94),#44,.F.);
#891=ADVANCED_FACE('',(#95),#45,.F.);
#892=ADVANCED_FACE('',(#96,#20),#46,.T.);
#893=ADVANCED_FACE('',(#97),#63,.F.);
#894=ADVANCED_FACE('',(#98,#21),#47,.T.);
#895=ADVANCED_FACE('',(#99,#22,#23,#24,#25,#26,#27,#28),#48,.F.);
#896=CLOSED_SHELL('',(#860,#861,#862,#863,#864,#865,#866,#867,#868,#869,
#870,#871,#872,#873,#874,#875,#876,#877,#878,#879,#880,#881,#882,#883,#884,
#885,#886,#887,#888,#889,#890,#891,#892,#893,#894,#895));
#897=AXIS2_PLACEMENT_3D('',#1261,#995,#996);
#898=AXIS2_PLACEMENT_3D('',#1262,#997,#998);
#899=AXIS2_PLACEMENT_3D('',#1280,#999,#1000);
#900=AXIS2_PLACEMENT_3D('',#1297,#1001,#1002);
#901=AXIS2_PLACEMENT_3D('',#1314,#1003,#1004);
#902=AXIS2_PLACEMENT_3D('',#1331,#1005,#1006);
#903=AXIS2_PLACEMENT_3D('',#1335,#1008,#1009);
#904=AXIS2_PLACEMENT_3D('',#1336,#1010,#1011);
#905=AXIS2_PLACEMENT_3D('',#1338,#1012,#1013);
#906=AXIS2_PLACEMENT_3D('',#1355,#1014,#1015);
#907=AXIS2_PLACEMENT_3D('',#1371,#1016,#1017);
#908=AXIS2_PLACEMENT_3D('',#1372,#1018,#1019);
#909=AXIS2_PLACEMENT_3D('',#1374,#1020,#1021);
#910=AXIS2_PLACEMENT_3D('',#1379,#1024,#1025);
#911=AXIS2_PLACEMENT_3D('',#1384,#1028,#1029);
#912=AXIS2_PLACEMENT_3D('',#1389,#1032,#1033);
#913=AXIS2_PLACEMENT_3D('',#1394,#1036,#1037);
#914=AXIS2_PLACEMENT_3D('',#1399,#1040,#1041);
#915=AXIS2_PLACEMENT_3D('',#1404,#1044,#1045);
#916=AXIS2_PLACEMENT_3D('',#1406,#1047,#1048);
#917=AXIS2_PLACEMENT_3D('',#1408,#1049,#1050);
#918=AXIS2_PLACEMENT_3D('',#1412,#1052,#1053);
#919=AXIS2_PLACEMENT_3D('',#1415,#1055,#1056);
#920=AXIS2_PLACEMENT_3D('',#1416,#1057,#1058);
#921=AXIS2_PLACEMENT_3D('',#1418,#1059,#1060);
#922=AXIS2_PLACEMENT_3D('',#1422,#1062,#1063);
#923=AXIS2_PLACEMENT_3D('',#1425,#1065,#1066);
#924=AXIS2_PLACEMENT_3D('',#1426,#1067,#1068);
#925=AXIS2_PLACEMENT_3D('',#1428,#1069,#1070);
#926=AXIS2_PLACEMENT_3D('',#1432,#1072,#1073);
#927=AXIS2_PLACEMENT_3D('',#1435,#1075,#1076);
#928=AXIS2_PLACEMENT_3D('',#1436,#1077,#1078);
#929=AXIS2_PLACEMENT_3D('',#1438,#1079,#1080);
#930=AXIS2_PLACEMENT_3D('',#1442,#1082,#1083);
#931=AXIS2_PLACEMENT_3D('',#1445,#1085,#1086);
#932=AXIS2_PLACEMENT_3D('',#1446,#1087,#1088);
#933=AXIS2_PLACEMENT_3D('',#1448,#1089,#1090);
#934=AXIS2_PLACEMENT_3D('',#1452,#1092,#1093);
#935=AXIS2_PLACEMENT_3D('',#1455,#1095,#1096);
#936=AXIS2_PLACEMENT_3D('',#1456,#1097,#1098);
#937=AXIS2_PLACEMENT_3D('',#1458,#1099,#1100);
#938=AXIS2_PLACEMENT_3D('',#1462,#1102,#1103);
#939=AXIS2_PLACEMENT_3D('',#1465,#1105,#1106);
#940=AXIS2_PLACEMENT_3D('',#1466,#1107,#1108);
#941=AXIS2_PLACEMENT_3D('',#1468,#1109,#1110);
#942=AXIS2_PLACEMENT_3D('',#1471,#1112,#1113);
#943=AXIS2_PLACEMENT_3D('',#1472,#1114,#1115);
#944=AXIS2_PLACEMENT_3D('',#1478,#1119,#1120);
#945=AXIS2_PLACEMENT_3D('',#1484,#1124,#1125);
#946=AXIS2_PLACEMENT_3D('',#1485,#1126,#1127);
#947=AXIS2_PLACEMENT_3D('',#1486,#1128,#1129);
#948=AXIS2_PLACEMENT_3D('',#1488,#1130,#1131);
#949=AXIS2_PLACEMENT_3D('',#1492,#1133,#1134);
#950=AXIS2_PLACEMENT_3D('',#1495,#1136,#1137);
#951=AXIS2_PLACEMENT_3D('',#1497,#1138,#1139);
#952=AXIS2_PLACEMENT_3D('',#1501,#1141,#1142);
#953=AXIS2_PLACEMENT_3D('',#1505,#1144,#1145);
#954=AXIS2_PLACEMENT_3D('',#1509,#1147,#1148);
#955=AXIS2_PLACEMENT_3D('',#1513,#1150,#1151);
#956=AXIS2_PLACEMENT_3D('',#1517,#1153,#1154);
#957=AXIS2_PLACEMENT_3D('',#1521,#1156,#1157);
#958=AXIS2_PLACEMENT_3D('',#1525,#1159,#1160);
#959=AXIS2_PLACEMENT_3D('',#1529,#1162,#1163);
#960=AXIS2_PLACEMENT_3D('',#1532,#1165,#1166);
#961=AXIS2_PLACEMENT_3D('',#1533,#1167,#1168);
#962=AXIS2_PLACEMENT_3D('',#1535,#1169,#1170);
#963=AXIS2_PLACEMENT_3D('',#1538,#1172,#1173);
#964=AXIS2_PLACEMENT_3D('',#1539,#1174,#1175);
#965=AXIS2_PLACEMENT_3D('',#1542,#1178,#1179);
#966=AXIS2_PLACEMENT_3D('',#1545,#1182,#1183);
#967=AXIS2_PLACEMENT_3D('',#1546,#1184,#1185);
#968=AXIS2_PLACEMENT_3D('',#1548,#1186,#1187);
#969=AXIS2_PLACEMENT_3D('',#1551,#1189,#1190);
#970=AXIS2_PLACEMENT_3D('',#1552,#1191,#1192);
#971=AXIS2_PLACEMENT_3D('',#1555,#1195,#1196);
#972=AXIS2_PLACEMENT_3D('',#1558,#1199,#1200);
#973=AXIS2_PLACEMENT_3D('',#1559,#1201,#1202);
#974=AXIS2_PLACEMENT_3D('',#1561,#1203,#1204);
#975=AXIS2_PLACEMENT_3D('',#1564,#1206,#1207);
#976=AXIS2_PLACEMENT_3D('',#1565,#1208,#1209);
#977=AXIS2_PLACEMENT_3D('',#1568,#1212,#1213);
#978=AXIS2_PLACEMENT_3D('',#1571,#1216,#1217);
#979=AXIS2_PLACEMENT_3D('',#1572,#1218,#1219);
#980=AXIS2_PLACEMENT_3D('',#1574,#1220,#1221);
#981=AXIS2_PLACEMENT_3D('',#1577,#1223,#1224);
#982=AXIS2_PLACEMENT_3D('',#1578,#1225,#1226);
#983=AXIS2_PLACEMENT_3D('',#1581,#1229,#1230);
#984=AXIS2_PLACEMENT_3D('',#1584,#1233,#1234);
#985=AXIS2_PLACEMENT_3D('',#1585,#1235,#1236);
#986=AXIS2_PLACEMENT_3D('',#1587,#1237,#1238);
#987=AXIS2_PLACEMENT_3D('',#1590,#1240,#1241);
#988=AXIS2_PLACEMENT_3D('',#1591,#1242,#1243);
#989=AXIS2_PLACEMENT_3D('',#1594,#1246,#1247);
#990=AXIS2_PLACEMENT_3D('',#1597,#1250,#1251);
#991=AXIS2_PLACEMENT_3D('',#1598,#1252,#1253);
#992=AXIS2_PLACEMENT_3D('',#1600,#1254,#1255);
#993=AXIS2_PLACEMENT_3D('',#1602,#1257,#1258);
#994=AXIS2_PLACEMENT_3D('',#1603,#1259,#1260);
#995=DIRECTION('axis',(0.,0.,1.));
#996=DIRECTION('refdir',(1.,0.,0.));
#997=DIRECTION('center_axis',(0.,-1.,0.));
#998=DIRECTION('ref_axis',(0.,0.,-1.));
#999=DIRECTION('center_axis',(0.,1.,0.));
#1000=DIRECTION('ref_axis',(0.,0.,-1.));
#1001=DIRECTION('center_axis',(0.,1.,0.));
#1002=DIRECTION('ref_axis',(0.,0.,-1.));
#1003=DIRECTION('center_axis',(0.,1.,0.));
#1004=DIRECTION('ref_axis',(0.,0.,-1.));
#1005=DIRECTION('center_axis',(0.,1.,0.));
#1006=DIRECTION('ref_axis',(0.,0.,-1.));
#1007=DIRECTION('',(-1.04972719113862E-16,0.515038074910054,-0.857167300702112));
#1008=DIRECTION('center_axis',(0.,-1.,0.));
#1009=DIRECTION('ref_axis',(0.,0.,1.));
#1010=DIRECTION('center_axis',(0.,-1.,0.));
#1011=DIRECTION('ref_axis',(0.,0.,1.));
#1012=DIRECTION('center_axis',(0.,1.,0.));
#1013=DIRECTION('ref_axis',(0.,0.,-1.));
#1014=DIRECTION('center_axis',(0.,1.,0.));
#1015=DIRECTION('ref_axis',(0.,0.,-1.));
#1016=DIRECTION('center_axis',(0.,1.,0.));
#1017=DIRECTION('ref_axis',(0.,0.,-1.));
#1018=DIRECTION('center_axis',(0.,1.,0.));
#1019=DIRECTION('ref_axis',(0.,0.,-1.));
#1020=DIRECTION('center_axis',(0.,1.,0.));
#1021=DIRECTION('ref_axis',(0.,0.,-1.));
#1022=DIRECTION('',(0.,1.,0.));
#1023=DIRECTION('',(0.,1.,0.));
#1024=DIRECTION('center_axis',(0.,-1.,0.));
#1025=DIRECTION('ref_axis',(0.,0.,-1.));
#1026=DIRECTION('',(0.,-1.,0.));
#1027=DIRECTION('',(0.,1.,0.));
#1028=DIRECTION('center_axis',(0.,-1.,0.));
#1029=DIRECTION('ref_axis',(0.,0.,-1.));
#1030=DIRECTION('',(0.,-1.,0.));
#1031=DIRECTION('',(0.,1.,0.));
#1032=DIRECTION('center_axis',(0.,-1.,0.));
#1033=DIRECTION('ref_axis',(0.,0.,-1.));
#1034=DIRECTION('',(0.,-1.,0.));
#1035=DIRECTION('',(0.,1.,0.));
#1036=DIRECTION('center_axis',(0.,-1.,0.));
#1037=DIRECTION('ref_axis',(0.,0.,-1.));
#1038=DIRECTION('',(0.,-1.,0.));
#1039=DIRECTION('',(0.,1.,0.));
#1040=DIRECTION('center_axis',(0.,-1.,0.));
#1041=DIRECTION('ref_axis',(0.,0.,-1.));
#1042=DIRECTION('',(0.,-1.,0.));
#1043=DIRECTION('',(0.,1.,0.));
#1044=DIRECTION('center_axis',(0.,-1.,0.));
#1045=DIRECTION('ref_axis',(0.,0.,-1.));
#1046=DIRECTION('',(0.,-1.,0.));
#1047=DIRECTION('center_axis',(0.,-1.,0.));
#1048=DIRECTION('ref_axis',(-0.866025403784439,0.,0.499999999999999));
#1049=DIRECTION('center_axis',(0.,-1.,0.));
#1050=DIRECTION('ref_axis',(-0.866025403784439,0.,0.499999999999999));
#1051=DIRECTION('',(0.,-1.,0.));
#1052=DIRECTION('center_axis',(0.,-1.,0.));
#1053=DIRECTION('ref_axis',(-0.866025403784439,0.,0.499999999999999));
#1054=DIRECTION('',(0.,-1.,0.));
#1055=DIRECTION('center_axis',(0.,-1.,0.));
#1056=DIRECTION('ref_axis',(-0.866025403784439,0.,0.499999999999999));
#1057=DIRECTION('center_axis',(0.,-1.,0.));
#1058=DIRECTION('ref_axis',(-0.866025403784438,0.,-0.5));
#1059=DIRECTION('center_axis',(0.,-1.,0.));
#1060=DIRECTION('ref_axis',(-0.866025403784438,0.,-0.5));
#1061=DIRECTION('',(0.,-1.,0.));
#1062=DIRECTION('center_axis',(0.,-1.,0.));
#1063=DIRECTION('ref_axis',(-0.866025403784438,0.,-0.5));
#1064=DIRECTION('',(0.,-1.,0.));
#1065=DIRECTION('center_axis',(0.,-1.,0.));
#1066=DIRECTION('ref_axis',(-0.866025403784438,0.,-0.5));
#1067=DIRECTION('center_axis',(0.,-1.,0.));
#1068=DIRECTION('ref_axis',(1.22464679914735E-16,0.,-1.));
#1069=DIRECTION('center_axis',(0.,-1.,0.));
#1070=DIRECTION('ref_axis',(1.22464679914735E-16,0.,-1.));
#1071=DIRECTION('',(0.,-1.,0.));
#1072=DIRECTION('center_axis',(0.,-1.,0.));
#1073=DIRECTION('ref_axis',(1.22464679914735E-16,0.,-1.));
#1074=DIRECTION('',(0.,-1.,0.));
#1075=DIRECTION('center_axis',(0.,-1.,0.));
#1076=DIRECTION('ref_axis',(1.22464679914735E-16,0.,-1.));
#1077=DIRECTION('center_axis',(0.,-1.,0.));
#1078=DIRECTION('ref_axis',(0.866025403784439,0.,-0.5));
#1079=DIRECTION('center_axis',(0.,-1.,0.));
#1080=DIRECTION('ref_axis',(0.866025403784439,0.,-0.5));
#1081=DIRECTION('',(0.,-1.,0.));
#1082=DIRECTION('center_axis',(0.,-1.,0.));
#1083=DIRECTION('ref_axis',(0.866025403784439,0.,-0.5));
#1084=DIRECTION('',(0.,-1.,0.));
#1085=DIRECTION('center_axis',(0.,-1.,0.));
#1086=DIRECTION('ref_axis',(0.866025403784439,0.,-0.5));
#1087=DIRECTION('center_axis',(0.,-1.,0.));
#1088=DIRECTION('ref_axis',(0.866025403784439,0.,0.5));
#1089=DIRECTION('center_axis',(0.,-1.,0.));
#1090=DIRECTION('ref_axis',(0.866025403784439,0.,0.5));
#1091=DIRECTION('',(0.,-1.,0.));
#1092=DIRECTION('center_axis',(0.,-1.,0.));
#1093=DIRECTION('ref_axis',(0.866025403784439,0.,0.5));
#1094=DIRECTION('',(0.,-1.,0.));
#1095=DIRECTION('center_axis',(0.,-1.,0.));
#1096=DIRECTION('ref_axis',(0.866025403784439,0.,0.5));
#1097=DIRECTION('center_axis',(0.,-1.,0.));
#1098=DIRECTION('ref_axis',(0.,0.,1.));
#1099=DIRECTION('center_axis',(0.,-1.,0.));
#1100=DIRECTION('ref_axis',(0.,0.,1.));
#1101=DIRECTION('',(0.,-1.,0.));
#1102=DIRECTION('center_axis',(0.,-1.,0.));
#1103=DIRECTION('ref_axis',(0.,0.,1.));
#1104=DIRECTION('',(0.,-1.,0.));
#1105=DIRECTION('center_axis',(0.,-1.,0.));
#1106=DIRECTION('ref_axis',(0.,0.,1.));
#1107=DIRECTION('center_axis',(0.,-1.,0.));
#1108=DIRECTION('ref_axis',(-0.866025403784439,0.,0.499999999999999));
#1109=DIRECTION('center_axis',(0.,-1.,0.));
#1110=DIRECTION('ref_axis',(-0.866025403784439,0.,0.499999999999999));
#1111=DIRECTION('',(0.,-1.,0.));
#1112=DIRECTION('center_axis',(0.,1.,0.));
#1113=DIRECTION('ref_axis',(-0.866025403784439,0.,0.499999999999999));
#1114=DIRECTION('center_axis',(-0.866025403784439,0.,0.499999999999999));
#1115=DIRECTION('ref_axis',(-0.499999999999999,0.,-0.866025403784439));
#1116=DIRECTION('',(-0.499999999999999,0.,-0.866025403784439));
#1117=DIRECTION('',(-0.499999999999999,0.,-0.866025403784439));
#1118=DIRECTION('',(0.,-1.,0.));
#1119=DIRECTION('center_axis',(0.866025403784439,0.,-0.499999999999999));
#1120=DIRECTION('ref_axis',(0.499999999999999,0.,0.866025403784439));
#1121=DIRECTION('',(0.499999999999999,0.,0.866025403784439));
#1122=DIRECTION('',(0.,1.,0.));
#1123=DIRECTION('',(0.499999999999999,0.,0.866025403784439));
#1124=DIRECTION('center_axis',(0.,1.,0.));
#1125=DIRECTION('ref_axis',(0.499999999999999,0.,0.866025403784439));
#1126=DIRECTION('center_axis',(0.,-1.,0.));
#1127=DIRECTION('ref_axis',(1.,0.,0.));
#1128=DIRECTION('center_axis',(0.,-1.,0.));
#1129=DIRECTION('ref_axis',(1.,0.,0.));
#1130=DIRECTION('center_axis',(0.,-1.,0.));
#1131=DIRECTION('ref_axis',(1.,0.,0.));
#1132=DIRECTION('',(0.,1.,0.));
#1133=DIRECTION('center_axis',(0.,-1.,0.));
#1134=DIRECTION('ref_axis',(1.,0.,0.));
#1135=DIRECTION('',(0.,1.,0.));
#1136=DIRECTION('center_axis',(0.,1.,0.));
#1137=DIRECTION('ref_axis',(1.,0.,0.));
#1138=DIRECTION('center_axis',(0.,1.,0.));
#1139=DIRECTION('ref_axis',(1.,0.,0.));
#1140=DIRECTION('',(0.,-1.,0.));
#1141=DIRECTION('center_axis',(0.,-1.,0.));
#1142=DIRECTION('ref_axis',(1.,0.,0.));
#1143=DIRECTION('',(0.,1.,0.));
#1144=DIRECTION('center_axis',(0.,1.,0.));
#1145=DIRECTION('ref_axis',(1.,0.,0.));
#1146=DIRECTION('',(0.,-1.,0.));
#1147=DIRECTION('center_axis',(0.,-1.,0.));
#1148=DIRECTION('ref_axis',(1.,0.,0.));
#1149=DIRECTION('',(0.,1.,0.));
#1150=DIRECTION('center_axis',(0.,1.,0.));
#1151=DIRECTION('ref_axis',(1.,0.,0.));
#1152=DIRECTION('',(0.,-1.,0.));
#1153=DIRECTION('center_axis',(0.,-1.,0.));
#1154=DIRECTION('ref_axis',(1.,0.,0.));
#1155=DIRECTION('',(0.,1.,0.));
#1156=DIRECTION('center_axis',(0.,1.,0.));
#1157=DIRECTION('ref_axis',(1.,0.,0.));
#1158=DIRECTION('',(0.,-1.,0.));
#1159=DIRECTION('center_axis',(0.,-1.,0.));
#1160=DIRECTION('ref_axis',(1.,0.,0.));
#1161=DIRECTION('',(0.,1.,0.));
#1162=DIRECTION('center_axis',(0.,1.,0.));
#1163=DIRECTION('ref_axis',(1.,0.,0.));
#1164=DIRECTION('',(0.,-1.,0.));
#1165=DIRECTION('center_axis',(0.,-1.,0.));
#1166=DIRECTION('ref_axis',(1.,0.,0.));
#1167=DIRECTION('center_axis',(0.,-1.,0.));
#1168=DIRECTION('ref_axis',(-0.866025403784438,0.,-0.5));
#1169=DIRECTION('center_axis',(0.,-1.,0.));
#1170=DIRECTION('ref_axis',(-0.866025403784438,0.,-0.5));
#1171=DIRECTION('',(0.,-1.,0.));
#1172=DIRECTION('center_axis',(0.,1.,0.));
#1173=DIRECTION('ref_axis',(-0.866025403784438,0.,-0.5));
#1174=DIRECTION('center_axis',(-0.866025403784438,0.,-0.500000000000001));
#1175=DIRECTION('ref_axis',(0.500000000000001,0.,-0.866025403784438));
#1176=DIRECTION('',(0.500000000000001,0.,-0.866025403784438));
#1177=DIRECTION('',(0.500000000000001,0.,-0.866025403784438));
#1178=DIRECTION('center_axis',(0.866025403784438,0.,0.5));
#1179=DIRECTION('ref_axis',(-0.5,0.,0.866025403784438));
#1180=DIRECTION('',(-0.5,0.,0.866025403784438));
#1181=DIRECTION('',(-0.5,0.,0.866025403784438));
#1182=DIRECTION('center_axis',(0.,1.,0.));
#1183=DIRECTION('ref_axis',(-0.5,0.,0.866025403784438));
#1184=DIRECTION('center_axis',(0.,-1.,0.));
#1185=DIRECTION('ref_axis',(1.22464679914735E-16,0.,-1.));
#1186=DIRECTION('center_axis',(0.,-1.,0.));
#1187=DIRECTION('ref_axis',(1.22464679914735E-16,0.,-1.));
#1188=DIRECTION('',(0.,-1.,0.));
#1189=DIRECTION('center_axis',(0.,1.,0.));
#1190=DIRECTION('ref_axis',(1.22464679914735E-16,0.,-1.));
#1191=DIRECTION('center_axis',(6.57074743480257E-16,0.,-1.));
#1192=DIRECTION('ref_axis',(1.,0.,6.57074743480257E-16));
#1193=DIRECTION('',(1.,0.,6.57074743480257E-16));
#1194=DIRECTION('',(1.,0.,6.57074743480257E-16));
#1195=DIRECTION('center_axis',(-1.22464679914735E-16,0.,1.));
#1196=DIRECTION('ref_axis',(-1.,0.,-1.22464679914735E-16));
#1197=DIRECTION('',(-1.,0.,-1.22464679914735E-16));
#1198=DIRECTION('',(-1.,0.,-1.22464679914735E-16));
#1199=DIRECTION('center_axis',(0.,1.,0.));
#1200=DIRECTION('ref_axis',(-1.,0.,-1.22464679914735E-16));
#1201=DIRECTION('center_axis',(0.,-1.,0.));
#1202=DIRECTION('ref_axis',(0.866025403784439,0.,-0.5));
#1203=DIRECTION('center_axis',(0.,-1.,0.));
#1204=DIRECTION('ref_axis',(0.866025403784439,0.,-0.5));
#1205=DIRECTION('',(0.,-1.,0.));
#1206=DIRECTION('center_axis',(0.,1.,0.));
#1207=DIRECTION('ref_axis',(0.866025403784439,0.,-0.5));
#1208=DIRECTION('center_axis',(0.866025403784439,0.,-0.499999999999999));
#1209=DIRECTION('ref_axis',(0.499999999999999,0.,0.866025403784439));
#1210=DIRECTION('',(0.499999999999999,0.,0.866025403784439));
#1211=DIRECTION('',(0.499999999999999,0.,0.866025403784439));
#1212=DIRECTION('center_axis',(-0.866025403784439,0.,0.5));
#1213=DIRECTION('ref_axis',(-0.5,0.,-0.866025403784439));
#1214=DIRECTION('',(-0.5,0.,-0.866025403784439));
#1215=DIRECTION('',(-0.5,0.,-0.866025403784439));
#1216=DIRECTION('center_axis',(0.,1.,0.));
#1217=DIRECTION('ref_axis',(-0.5,0.,-0.866025403784439));
#1218=DIRECTION('center_axis',(0.,-1.,0.));
#1219=DIRECTION('ref_axis',(0.866025403784439,0.,0.5));
#1220=DIRECTION('center_axis',(0.,-1.,0.));
#1221=DIRECTION('ref_axis',(0.866025403784439,0.,0.5));
#1222=DIRECTION('',(0.,-1.,0.));
#1223=DIRECTION('center_axis',(0.,1.,0.));
#1224=DIRECTION('ref_axis',(0.866025403784439,0.,0.5));
#1225=DIRECTION('center_axis',(0.866025403784438,0.,0.500000000000001));
#1226=DIRECTION('ref_axis',(-0.500000000000001,0.,0.866025403784438));
#1227=DIRECTION('',(-0.500000000000001,0.,0.866025403784438));
#1228=DIRECTION('',(-0.500000000000001,0.,0.866025403784438));
#1229=DIRECTION('center_axis',(-0.866025403784439,0.,-0.5));
#1230=DIRECTION('ref_axis',(0.5,0.,-0.866025403784439));
#1231=DIRECTION('',(0.5,0.,-0.866025403784439));
#1232=DIRECTION('',(0.5,0.,-0.866025403784439));
#1233=DIRECTION('center_axis',(0.,1.,0.));
#1234=DIRECTION('ref_axis',(0.5,0.,-0.866025403784439));
#1235=DIRECTION('center_axis',(0.,-1.,0.));
#1236=DIRECTION('ref_axis',(0.,0.,1.));
#1237=DIRECTION('center_axis',(0.,-1.,0.));
#1238=DIRECTION('ref_axis',(0.,0.,1.));
#1239=DIRECTION('',(0.,-1.,0.));
#1240=DIRECTION('center_axis',(0.,1.,0.));
#1241=DIRECTION('ref_axis',(0.,0.,1.));
#1242=DIRECTION('center_axis',(-5.34610063565522E-16,0.,1.));
#1243=DIRECTION('ref_axis',(-1.,0.,-5.34610063565522E-16));
#1244=DIRECTION('',(-1.,0.,-5.34610063565522E-16));
#1245=DIRECTION('',(-1.,0.,-5.34610063565522E-16));
#1246=DIRECTION('center_axis',(0.,0.,-1.));
#1247=DIRECTION('ref_axis',(1.,0.,0.));
#1248=DIRECTION('',(1.,0.,0.));
#1249=DIRECTION('',(1.,0.,0.));
#1250=DIRECTION('center_axis',(0.,1.,0.));
#1251=DIRECTION('ref_axis',(1.,0.,0.));
#1252=DIRECTION('center_axis',(0.,-1.,0.));
#1253=DIRECTION('ref_axis',(0.,0.,1.));
#1254=DIRECTION('center_axis',(0.,-1.,0.));
#1255=DIRECTION('ref_axis',(0.,0.,1.));
#1256=DIRECTION('',(0.,-1.,0.));
#1257=DIRECTION('center_axis',(0.,1.,0.));
#1258=DIRECTION('ref_axis',(1.,0.,0.));
#1259=DIRECTION('center_axis',(0.,1.,0.));
#1260=DIRECTION('ref_axis',(1.,0.,0.));
#1261=CARTESIAN_POINT('',(0.,0.,0.));
#1262=CARTESIAN_POINT('Origin',(2.31209659405999E-16,-6.79827876194488,
-7.40876447913787E-17));
#1263=CARTESIAN_POINT('',(-3.26131889694432,-8.,-2.31598770558781));
#1264=CARTESIAN_POINT('',(-0.37504473941931,-8.,-3.98237886738993));
#1265=CARTESIAN_POINT('Ctrl Pts',(-3.26131889694432,-8.,-2.31598770558781));
#1266=CARTESIAN_POINT('Ctrl Pts',(-3.0831880405733,-7.89978526090533,-2.27876824703981));
#1267=CARTESIAN_POINT('Ctrl Pts',(-2.9011887622202,-7.80578393062795,-2.26155041162765));
#1268=CARTESIAN_POINT('Ctrl Pts',(-2.5327697586281,-7.63684999339689,-2.26513492745069));
#1269=CARTESIAN_POINT('Ctrl Pts',(-2.3180836315114,-7.55131477749919,-2.29096182691841));
#1270=CARTESIAN_POINT('Ctrl Pts',(-1.89374830411529,-7.43166275204159,-2.40410420212667));
#1271=CARTESIAN_POINT('Ctrl Pts',(-1.68379599667193,-7.39913938097244,-2.4919615431988));
#1272=CARTESIAN_POINT('Ctrl Pts',(-1.31620400332807,-7.39913938097244,-2.70419087950783));
#1273=CARTESIAN_POINT('Ctrl Pts',(-1.13514116032897,-7.43166275204159,-2.84208624080088));
#1274=CARTESIAN_POINT('Ctrl Pts',(-0.824989325456043,-7.55131477749919,
-3.15300022644497));
#1275=CARTESIAN_POINT('Ctrl Pts',(-0.695279510857665,-7.63684999339689,
-3.32601041663427));
#1276=CARTESIAN_POINT('Ctrl Pts',(-0.507965727298592,-7.80578393062795,
-3.64327837507045));
#1277=CARTESIAN_POINT('Ctrl Pts',(-0.431877170987152,-7.89978526090533,
-3.80950329130075));
#1278=CARTESIAN_POINT('Ctrl Pts',(-0.375044739419311,-8.,-3.98237886738993));
#1279=CARTESIAN_POINT('',(0.375044739419315,-8.,-3.98237886738993));
#1280=CARTESIAN_POINT('Origin',(2.31209659405999E-16,-8.,-7.40876447913787E-17));
#1281=CARTESIAN_POINT('',(3.26131889694432,-8.,-2.3159877055878));
#1282=CARTESIAN_POINT('Ctrl Pts',(0.375044739419316,-8.,-3.98237886738993));
#1283=CARTESIAN_POINT('Ctrl Pts',(0.431877170987157,-7.89978526090533,-3.80950329130075));
#1284=CARTESIAN_POINT('Ctrl Pts',(0.507965727298596,-7.80578393062795,-3.64327837507046));
#1285=CARTESIAN_POINT('Ctrl Pts',(0.695279510857669,-7.63684999339689,-3.32601041663427));
#1286=CARTESIAN_POINT('Ctrl Pts',(0.824989325456048,-7.55131477749919,-3.15300022644497));
#1287=CARTESIAN_POINT('Ctrl Pts',(1.13514116032897,-7.43166275204159,-2.84208624080088));
#1288=CARTESIAN_POINT('Ctrl Pts',(1.31620400332807,-7.39913938097244,-2.70419087950783));
#1289=CARTESIAN_POINT('Ctrl Pts',(1.68379599667193,-7.39913938097244,-2.4919615431988));
#1290=CARTESIAN_POINT('Ctrl Pts',(1.89374830411529,-7.43166275204159,-2.40410420212667));
#1291=CARTESIAN_POINT('Ctrl Pts',(2.31808363151141,-7.55131477749919,-2.29096182691841));
#1292=CARTESIAN_POINT('Ctrl Pts',(2.53276975862811,-7.63684999339689,-2.26513492745069));
#1293=CARTESIAN_POINT('Ctrl Pts',(2.90118876222021,-7.80578393062795,-2.26155041162765));
#1294=CARTESIAN_POINT('Ctrl Pts',(3.0831880405733,-7.89978526090533,-2.27876824703981));
#1295=CARTESIAN_POINT('Ctrl Pts',(3.26131889694432,-8.,-2.3159877055878));
#1296=CARTESIAN_POINT('',(3.63636363636364,-8.,-1.66639116180212));
#1297=CARTESIAN_POINT('Origin',(2.31209659405999E-16,-8.,-7.40876447913787E-17));
#1298=CARTESIAN_POINT('',(3.63636363636364,-8.,1.66639116180213));
#1299=CARTESIAN_POINT('Ctrl Pts',(3.63636363636364,-8.,-1.66639116180212));
#1300=CARTESIAN_POINT('Ctrl Pts',(3.51506521156046,-7.89978526090533,-1.53073504426094));
#1301=CARTESIAN_POINT('Ctrl Pts',(3.4091544895188,-7.80578393062795,-1.38172796344281));
#1302=CARTESIAN_POINT('Ctrl Pts',(3.22804926948577,-7.63684999339689,-1.06087548918357));
#1303=CARTESIAN_POINT('Ctrl Pts',(3.14307295696745,-7.55131477749919,-0.862038399526561));
#1304=CARTESIAN_POINT('Ctrl Pts',(3.02888946444426,-7.43166275204159,-0.437982038674206));
#1305=CARTESIAN_POINT('Ctrl Pts',(3.,-7.39913938097244,-0.21222933630903));
#1306=CARTESIAN_POINT('Ctrl Pts',(3.,-7.39913938097244,0.21222933630903));
#1307=CARTESIAN_POINT('Ctrl Pts',(3.02888946444426,-7.43166275204159,0.437982038674207));
#1308=CARTESIAN_POINT('Ctrl Pts',(3.14307295696745,-7.55131477749919,0.862038399526562));
#1309=CARTESIAN_POINT('Ctrl Pts',(3.22804926948577,-7.63684999339689,1.06087548918358));
#1310=CARTESIAN_POINT('Ctrl Pts',(3.4091544895188,-7.80578393062795,1.38172796344281));
#1311=CARTESIAN_POINT('Ctrl Pts',(3.51506521156046,-7.89978526090533,1.53073504426094));
#1312=CARTESIAN_POINT('Ctrl Pts',(3.63636363636364,-8.,1.66639116180212));
#1313=CARTESIAN_POINT('',(3.26131889694432,-8.,2.31598770558781));
#1314=CARTESIAN_POINT('Origin',(2.31209659405999E-16,-8.,-7.40876447913787E-17));
#1315=CARTESIAN_POINT('',(0.375044739419313,-8.,3.98237886738993));
#1316=CARTESIAN_POINT('Ctrl Pts',(3.26131889694432,-8.,2.31598770558781));
#1317=CARTESIAN_POINT('Ctrl Pts',(3.0831880405733,-7.89978526090533,2.27876824703981));
#1318=CARTESIAN_POINT('Ctrl Pts',(2.90118876222021,-7.80578393062795,2.26155041162765));
#1319=CARTESIAN_POINT('Ctrl Pts',(2.53276975862811,-7.63684999339689,2.26513492745069));
#1320=CARTESIAN_POINT('Ctrl Pts',(2.31808363151141,-7.55131477749919,2.29096182691841));
#1321=CARTESIAN_POINT('Ctrl Pts',(1.89374830411529,-7.43166275204159,2.40410420212667));
#1322=CARTESIAN_POINT('Ctrl Pts',(1.68379599667193,-7.39913938097244,2.4919615431988));
#1323=CARTESIAN_POINT('Ctrl Pts',(1.31620400332807,-7.39913938097244,2.70419087950783));
#1324=CARTESIAN_POINT('Ctrl Pts',(1.13514116032897,-7.43166275204159,2.84208624080088));
#1325=CARTESIAN_POINT('Ctrl Pts',(0.824989325456045,-7.55131477749919,3.15300022644497));
#1326=CARTESIAN_POINT('Ctrl Pts',(0.695279510857667,-7.63684999339689,3.32601041663427));
#1327=CARTESIAN_POINT('Ctrl Pts',(0.507965727298594,-7.80578393062795,3.64327837507046));
#1328=CARTESIAN_POINT('Ctrl Pts',(0.431877170987155,-7.89978526090533,3.80950329130075));
#1329=CARTESIAN_POINT('Ctrl Pts',(0.375044739419313,-8.,3.98237886738993));
#1330=CARTESIAN_POINT('',(7.21068379064941E-16,-8.,4.));
#1331=CARTESIAN_POINT('Origin',(2.31209659405999E-16,-8.,-7.40876447913787E-17));
#1332=CARTESIAN_POINT('',(4.35235816143948E-16,-6.59759131518967,1.666));
#1333=CARTESIAN_POINT('',(4.7613901923547E-16,-6.79827876194488,2.));
#1334=CARTESIAN_POINT('',(4.76898185014305E-16,-6.59759131518967,-1.666));
#1335=CARTESIAN_POINT('Origin',(2.72872028276356E-16,-6.59759131518967,
0.));
#1336=CARTESIAN_POINT('Origin',(2.72872028276356E-16,-6.59759131518967,
0.));
#1337=CARTESIAN_POINT('',(-0.375044739419314,-8.,3.98237886738993));
#1338=CARTESIAN_POINT('Origin',(2.31209659405999E-16,-8.,-7.40876447913787E-17));
#1339=CARTESIAN_POINT('',(-3.26131889694432,-8.,2.31598770558781));
#1340=CARTESIAN_POINT('Ctrl Pts',(-0.375044739419315,-8.,3.98237886738993));
#1341=CARTESIAN_POINT('Ctrl Pts',(-0.431877170987156,-7.89978526090533,
3.80950329130075));
#1342=CARTESIAN_POINT('Ctrl Pts',(-0.507965727298595,-7.80578393062795,
3.64327837507045));
#1343=CARTESIAN_POINT('Ctrl Pts',(-0.695279510857668,-7.63684999339689,
3.32601041663427));
#1344=CARTESIAN_POINT('Ctrl Pts',(-0.824989325456047,-7.55131477749919,
3.15300022644497));
#1345=CARTESIAN_POINT('Ctrl Pts',(-1.13514116032897,-7.43166275204159,2.84208624080088));
#1346=CARTESIAN_POINT('Ctrl Pts',(-1.31620400332807,-7.39913938097244,2.70419087950783));
#1347=CARTESIAN_POINT('Ctrl Pts',(-1.68379599667193,-7.39913938097244,2.4919615431988));
#1348=CARTESIAN_POINT('Ctrl Pts',(-1.89374830411529,-7.43166275204159,2.40410420212667));
#1349=CARTESIAN_POINT('Ctrl Pts',(-2.31808363151141,-7.55131477749919,2.29096182691841));
#1350=CARTESIAN_POINT('Ctrl Pts',(-2.53276975862811,-7.63684999339689,2.26513492745069));
#1351=CARTESIAN_POINT('Ctrl Pts',(-2.90118876222021,-7.80578393062795,2.26155041162765));
#1352=CARTESIAN_POINT('Ctrl Pts',(-3.0831880405733,-7.89978526090533,2.27876824703981));
#1353=CARTESIAN_POINT('Ctrl Pts',(-3.26131889694432,-8.,2.31598770558781));
#1354=CARTESIAN_POINT('',(-3.63636363636364,-8.,1.66639116180212));
#1355=CARTESIAN_POINT('Origin',(2.31209659405999E-16,-8.,-7.40876447913787E-17));
#1356=CARTESIAN_POINT('',(-3.63636363636364,-8.,-1.66639116180212));
#1357=CARTESIAN_POINT('Ctrl Pts',(-3.63636363636364,-8.,1.66639116180212));
#1358=CARTESIAN_POINT('Ctrl Pts',(-3.51506521156046,-7.89978526090533,1.53073504426094));
#1359=CARTESIAN_POINT('Ctrl Pts',(-3.4091544895188,-7.80578393062795,1.38172796344281));
#1360=CARTESIAN_POINT('Ctrl Pts',(-3.22804926948577,-7.63684999339689,1.06087548918357));
#1361=CARTESIAN_POINT('Ctrl Pts',(-3.14307295696745,-7.55131477749919,0.86203839952656));
#1362=CARTESIAN_POINT('Ctrl Pts',(-3.02888946444426,-7.43166275204159,0.437982038674206));
#1363=CARTESIAN_POINT('Ctrl Pts',(-3.,-7.39913938097244,0.21222933630903));
#1364=CARTESIAN_POINT('Ctrl Pts',(-3.,-7.39913938097244,-0.21222933630903));
#1365=CARTESIAN_POINT('Ctrl Pts',(-3.02888946444426,-7.43166275204159,-0.437982038674206));
#1366=CARTESIAN_POINT('Ctrl Pts',(-3.14307295696745,-7.55131477749919,-0.86203839952656));
#1367=CARTESIAN_POINT('Ctrl Pts',(-3.22804926948577,-7.63684999339689,-1.06087548918357));
#1368=CARTESIAN_POINT('Ctrl Pts',(-3.4091544895188,-7.80578393062795,-1.3817279634428));
#1369=CARTESIAN_POINT('Ctrl Pts',(-3.51506521156046,-7.89978526090533,-1.53073504426094));
#1370=CARTESIAN_POINT('Ctrl Pts',(-3.63636363636364,-8.,-1.66639116180212));
#1371=CARTESIAN_POINT('Origin',(2.31209659405999E-16,-8.,-7.40876447913787E-17));
#1372=CARTESIAN_POINT('Origin',(2.31209659405999E-16,-14.,-7.40876447913787E-17));
#1373=CARTESIAN_POINT('',(7.2106837906494E-16,-20.,4.));
#1374=CARTESIAN_POINT('Origin',(2.31209659405999E-16,-20.,-7.40876447913787E-17));
#1375=CARTESIAN_POINT('',(7.2106837906494E-16,-14.,4.));
#1376=CARTESIAN_POINT('',(0.375044739419313,-12.,3.98237886738993));
#1377=CARTESIAN_POINT('',(0.375044739419313,-14.,3.98237886738993));
#1378=CARTESIAN_POINT('',(3.26131889694432,-12.,2.31598770558781));
#1379=CARTESIAN_POINT('Origin',(2.31209659405999E-16,-12.,-7.40876447913787E-17));
#1380=CARTESIAN_POINT('',(3.26131889694432,-14.,2.31598770558781));
#1381=CARTESIAN_POINT('',(3.63636363636364,-12.,1.66639116180212));
#1382=CARTESIAN_POINT('',(3.63636363636364,-14.,1.66639116180213));
#1383=CARTESIAN_POINT('',(3.63636363636364,-12.,-1.66639116180212));
#1384=CARTESIAN_POINT('Origin',(2.31209659405999E-16,-12.,-7.40876447913787E-17));
#1385=CARTESIAN_POINT('',(3.63636363636364,-14.,-1.66639116180212));
#1386=CARTESIAN_POINT('',(3.26131889694432,-12.,-2.3159877055878));
#1387=CARTESIAN_POINT('',(3.26131889694432,-14.,-2.3159877055878));
#1388=CARTESIAN_POINT('',(0.375044739419316,-12.,-3.98237886738993));
#1389=CARTESIAN_POINT('Origin',(2.31209659405999E-16,-12.,-7.40876447913787E-17));
#1390=CARTESIAN_POINT('',(0.375044739419315,-14.,-3.98237886738993));
#1391=CARTESIAN_POINT('',(-0.375044739419311,-12.,-3.98237886738993));
#1392=CARTESIAN_POINT('',(-0.37504473941931,-14.,-3.98237886738993));
#1393=CARTESIAN_POINT('',(-3.26131889694432,-12.,-2.31598770558781));
#1394=CARTESIAN_POINT('Origin',(2.31209659405999E-16,-12.,-7.40876447913787E-17));
#1395=CARTESIAN_POINT('',(-3.26131889694432,-14.,-2.31598770558781));
#1396=CARTESIAN_POINT('',(-3.63636363636364,-12.,-1.66639116180212));
#1397=CARTESIAN_POINT('',(-3.63636363636364,-14.,-1.66639116180212));
#1398=CARTESIAN_POINT('',(-3.63636363636364,-12.,1.66639116180212));
#1399=CARTESIAN_POINT('Origin',(2.31209659405999E-16,-12.,-7.40876447913787E-17));
#1400=CARTESIAN_POINT('',(-3.63636363636364,-14.,1.66639116180212));
#1401=CARTESIAN_POINT('',(-3.26131889694432,-12.,2.31598770558781));
#1402=CARTESIAN_POINT('',(-3.26131889694432,-14.,2.31598770558781));
#1403=CARTESIAN_POINT('',(-0.375044739419315,-12.,3.98237886738993));
#1404=CARTESIAN_POINT('Origin',(2.31209659405999E-16,-12.,-7.40876447913787E-17));
#1405=CARTESIAN_POINT('',(-0.375044739419314,-14.,3.98237886738993));
#1406=CARTESIAN_POINT('Origin',(-2.75,0.,-4.76313972081442));
#1407=CARTESIAN_POINT('',(-4.91506350946109,-12.,-3.51313972081442));
#1408=CARTESIAN_POINT('Origin',(-2.75,-12.,-4.76313972081442));
#1409=CARTESIAN_POINT('',(-4.91506350946109,0.,-3.51313972081442));
#1410=CARTESIAN_POINT('',(-4.91506350946109,0.,-3.51313972081442));
#1411=CARTESIAN_POINT('',(-0.584936490538899,0.,-6.01313972081441));
#1412=CARTESIAN_POINT('Origin',(-2.75,0.,-4.76313972081442));
#1413=CARTESIAN_POINT('',(-0.584936490538899,-12.,-6.01313972081441));
#1414=CARTESIAN_POINT('',(-0.584936490538899,0.,-6.01313972081441));
#1415=CARTESIAN_POINT('Origin',(-2.75,-12.,-4.76313972081442));
#1416=CARTESIAN_POINT('Origin',(2.75,0.,-4.76313972081441));
#1417=CARTESIAN_POINT('',(0.584936490538907,-12.,-6.01313972081441));
#1418=CARTESIAN_POINT('Origin',(2.75,-12.,-4.76313972081441));
#1419=CARTESIAN_POINT('',(0.584936490538907,0.,-6.01313972081441));
#1420=CARTESIAN_POINT('',(0.584936490538907,0.,-6.01313972081441));
#1421=CARTESIAN_POINT('',(4.9150635094611,0.,-3.51313972081441));
#1422=CARTESIAN_POINT('Origin',(2.75,0.,-4.76313972081441));
#1423=CARTESIAN_POINT('',(4.9150635094611,-12.,-3.51313972081441));
#1424=CARTESIAN_POINT('',(4.9150635094611,0.,-3.51313972081441));
#1425=CARTESIAN_POINT('Origin',(2.75,-12.,-4.76313972081441));
#1426=CARTESIAN_POINT('Origin',(5.5,0.,6.73555739531044E-16));
#1427=CARTESIAN_POINT('',(5.5,-12.,-2.5));
#1428=CARTESIAN_POINT('Origin',(5.5,-12.,6.73555739531044E-16));
#1429=CARTESIAN_POINT('',(5.5,0.,-2.5));
#1430=CARTESIAN_POINT('',(5.5,0.,-2.5));
#1431=CARTESIAN_POINT('',(5.5,0.,2.5));
#1432=CARTESIAN_POINT('Origin',(5.5,0.,6.73555739531044E-16));
#1433=CARTESIAN_POINT('',(5.5,-12.,2.5));
#1434=CARTESIAN_POINT('',(5.5,0.,2.5));
#1435=CARTESIAN_POINT('Origin',(5.5,-12.,6.73555739531044E-16));
#1436=CARTESIAN_POINT('Origin',(2.75,0.,4.76313972081441));
#1437=CARTESIAN_POINT('',(4.9150635094611,-12.,3.51313972081441));
#1438=CARTESIAN_POINT('Origin',(2.75,-12.,4.76313972081441));
#1439=CARTESIAN_POINT('',(4.9150635094611,0.,3.51313972081441));
#1440=CARTESIAN_POINT('',(4.9150635094611,0.,3.51313972081441));
#1441=CARTESIAN_POINT('',(0.584936490538902,0.,6.01313972081441));
#1442=CARTESIAN_POINT('Origin',(2.75,0.,4.76313972081441));
#1443=CARTESIAN_POINT('',(0.584936490538902,-12.,6.01313972081441));
#1444=CARTESIAN_POINT('',(0.584936490538902,0.,6.01313972081441));
#1445=CARTESIAN_POINT('Origin',(2.75,-12.,4.76313972081441));
#1446=CARTESIAN_POINT('Origin',(-2.75,0.,4.76313972081441));
#1447=CARTESIAN_POINT('',(-0.584936490538904,-12.,6.01313972081441));
#1448=CARTESIAN_POINT('Origin',(-2.75,-12.,4.76313972081441));
#1449=CARTESIAN_POINT('',(-0.584936490538904,0.,6.01313972081441));
#1450=CARTESIAN_POINT('',(-0.584936490538904,0.,6.01313972081441));
#1451=CARTESIAN_POINT('',(-4.9150635094611,0.,3.51313972081441));
#1452=CARTESIAN_POINT('Origin',(-2.75,0.,4.76313972081441));
#1453=CARTESIAN_POINT('',(-4.9150635094611,-12.,3.51313972081441));
#1454=CARTESIAN_POINT('',(-4.9150635094611,0.,3.51313972081441));
#1455=CARTESIAN_POINT('Origin',(-2.75,-12.,4.76313972081441));
#1456=CARTESIAN_POINT('Origin',(-5.5,0.,0.));
#1457=CARTESIAN_POINT('',(-5.5,-12.,2.5));
#1458=CARTESIAN_POINT('Origin',(-5.5,-12.,0.));
#1459=CARTESIAN_POINT('',(-5.5,0.,2.5));
#1460=CARTESIAN_POINT('',(-5.5,0.,2.5));
#1461=CARTESIAN_POINT('',(-5.5,0.,-2.5));
#1462=CARTESIAN_POINT('Origin',(-5.5,0.,0.));
#1463=CARTESIAN_POINT('',(-5.5,-12.,-2.5));
#1464=CARTESIAN_POINT('',(-5.5,0.,-2.5));
#1465=CARTESIAN_POINT('Origin',(-5.5,-12.,0.));
#1466=CARTESIAN_POINT('Origin',(-2.75,-16.5,-4.76313972081442));
#1467=CARTESIAN_POINT('',(-1.88397459621556,-12.,-5.26313972081441));
#1468=CARTESIAN_POINT('Origin',(-2.75,-12.,-4.76313972081442));
#1469=CARTESIAN_POINT('',(-1.88397459621556,-20.,-5.26313972081441));
#1470=CARTESIAN_POINT('',(-1.88397459621556,-16.5,-5.26313972081441));
#1471=CARTESIAN_POINT('Origin',(-2.75,-20.,-4.76313972081442));
#1472=CARTESIAN_POINT('Origin',(-4.91506350946109,0.,-3.51313972081442));
#1473=CARTESIAN_POINT('',(-5.4342377171166,0.,-4.41237582645307));
#1474=CARTESIAN_POINT('',(-3.5400635094611,0.,-1.13156986040721));
#1475=CARTESIAN_POINT('',(-5.4342377171166,-12.,-4.41237582645307));
#1476=CARTESIAN_POINT('',(-4.91506350946109,-12.,-3.51313972081442));
#1477=CARTESIAN_POINT('',(-5.4342377171166,0.,-4.41237582645307));
#1478=CARTESIAN_POINT('Origin',(-1.1041106981944,0.,-6.91237582645306));
#1479=CARTESIAN_POINT('',(-1.1041106981944,0.,-6.91237582645306));
#1480=CARTESIAN_POINT('',(0.530476405633347,0.,-4.08118791322653));
#1481=CARTESIAN_POINT('',(-1.1041106981944,-12.,-6.91237582645306));
#1482=CARTESIAN_POINT('',(-1.1041106981944,0.,-6.91237582645306));
#1483=CARTESIAN_POINT('',(-1.1041106981944,-12.,-6.91237582645306));
#1484=CARTESIAN_POINT('Origin',(-2.5,-12.,-4.3301270189222));
#1485=CARTESIAN_POINT('Origin',(0.,-12.,0.));
#1486=CARTESIAN_POINT('Origin',(0.,0.,0.));
#1487=CARTESIAN_POINT('',(-7.,-20.,8.57252759403147E-16));
#1488=CARTESIAN_POINT('Origin',(0.,-20.,0.));
#1489=CARTESIAN_POINT('',(-7.,-12.,-8.57252759403147E-16));
#1490=CARTESIAN_POINT('',(-7.,0.,-8.57252759403147E-16));
#1491=CARTESIAN_POINT('',(-6.53834841531101,-12.,-2.5));
#1492=CARTESIAN_POINT('Origin',(0.,-12.,0.));
#1493=CARTESIAN_POINT('',(-6.53834841531101,0.,-2.5));
#1494=CARTESIAN_POINT('',(-6.53834841531101,0.,-2.5));
#1495=CARTESIAN_POINT('Origin',(0.,0.,0.));
#1496=CARTESIAN_POINT('',(1.10411069819441,0.,-6.91237582645306));
#1497=CARTESIAN_POINT('Origin',(0.,0.,0.));
#1498=CARTESIAN_POINT('',(1.10411069819441,-12.,-6.91237582645306));
#1499=CARTESIAN_POINT('',(1.10411069819441,0.,-6.91237582645306));
#1500=CARTESIAN_POINT('',(5.4342377171166,-12.,-4.41237582645306));
#1501=CARTESIAN_POINT('Origin',(0.,-12.,0.));
#1502=CARTESIAN_POINT('',(5.4342377171166,0.,-4.41237582645306));
#1503=CARTESIAN_POINT('',(5.4342377171166,0.,-4.41237582645306));
#1504=CARTESIAN_POINT('',(6.53834841531101,0.,-2.5));
#1505=CARTESIAN_POINT('Origin',(0.,0.,0.));
#1506=CARTESIAN_POINT('',(6.53834841531101,-12.,-2.5));
#1507=CARTESIAN_POINT('',(6.53834841531101,0.,-2.5));
#1508=CARTESIAN_POINT('',(6.53834841531101,-12.,2.5));
#1509=CARTESIAN_POINT('Origin',(0.,-12.,0.));
#1510=CARTESIAN_POINT('',(6.53834841531101,0.,2.5));
#1511=CARTESIAN_POINT('',(6.53834841531101,0.,2.5));
#1512=CARTESIAN_POINT('',(5.4342377171166,0.,4.41237582645307));
#1513=CARTESIAN_POINT('Origin',(0.,0.,0.));
#1514=CARTESIAN_POINT('',(5.4342377171166,-12.,4.41237582645307));
#1515=CARTESIAN_POINT('',(5.4342377171166,0.,4.41237582645307));
#1516=CARTESIAN_POINT('',(1.10411069819441,-12.,6.91237582645306));
#1517=CARTESIAN_POINT('Origin',(0.,-12.,0.));
#1518=CARTESIAN_POINT('',(1.10411069819441,0.,6.91237582645306));
#1519=CARTESIAN_POINT('',(1.10411069819441,0.,6.91237582645306));
#1520=CARTESIAN_POINT('',(-1.10411069819441,0.,6.91237582645306));
#1521=CARTESIAN_POINT('Origin',(0.,0.,0.));
#1522=CARTESIAN_POINT('',(-1.10411069819441,-12.,6.91237582645306));
#1523=CARTESIAN_POINT('',(-1.10411069819441,0.,6.91237582645306));
#1524=CARTESIAN_POINT('',(-5.4342377171166,-12.,4.41237582645306));
#1525=CARTESIAN_POINT('Origin',(0.,-12.,0.));
#1526=CARTESIAN_POINT('',(-5.4342377171166,0.,4.41237582645306));
#1527=CARTESIAN_POINT('',(-5.4342377171166,0.,4.41237582645306));
#1528=CARTESIAN_POINT('',(-6.53834841531101,0.,2.5));
#1529=CARTESIAN_POINT('Origin',(0.,0.,0.));
#1530=CARTESIAN_POINT('',(-6.53834841531101,-12.,2.5));
#1531=CARTESIAN_POINT('',(-6.53834841531101,0.,2.5));
#1532=CARTESIAN_POINT('Origin',(0.,-12.,0.));
#1533=CARTESIAN_POINT('Origin',(2.75,-16.5,-4.76313972081441));
#1534=CARTESIAN_POINT('',(3.61602540378444,-12.,-4.26313972081441));
#1535=CARTESIAN_POINT('Origin',(2.75,-12.,-4.76313972081441));
#1536=CARTESIAN_POINT('',(3.61602540378444,-20.,-4.26313972081441));
#1537=CARTESIAN_POINT('',(3.61602540378444,-16.5,-4.26313972081441));
#1538=CARTESIAN_POINT('Origin',(2.75,-20.,-4.76313972081441));
#1539=CARTESIAN_POINT('Origin',(0.584936490538907,0.,-6.01313972081441));
#1540=CARTESIAN_POINT('',(-0.790063509461096,0.,-3.63156986040721));
#1541=CARTESIAN_POINT('',(0.584936490538907,-12.,-6.01313972081441));
#1542=CARTESIAN_POINT('Origin',(5.4342377171166,0.,-4.41237582645306));
#1543=CARTESIAN_POINT('',(3.79965061328885,0.,-1.58118791322653));
#1544=CARTESIAN_POINT('',(5.4342377171166,-12.,-4.41237582645306));
#1545=CARTESIAN_POINT('Origin',(2.5,-12.,-4.33012701892219));
#1546=CARTESIAN_POINT('Origin',(5.5,-16.5,6.73555739531044E-16));
#1547=CARTESIAN_POINT('',(5.5,-12.,1.));
#1548=CARTESIAN_POINT('Origin',(5.5,-12.,6.73555739531044E-16));
#1549=CARTESIAN_POINT('',(5.5,-20.,1.));
#1550=CARTESIAN_POINT('',(5.5,-16.5,1.));
#1551=CARTESIAN_POINT('Origin',(5.5,-20.,6.73555739531044E-16));
#1552=CARTESIAN_POINT('Origin',(5.5,0.,-2.5));
#1553=CARTESIAN_POINT('',(2.75,0.,-2.5));
#1554=CARTESIAN_POINT('',(5.5,-12.,-2.5));
#1555=CARTESIAN_POINT('Origin',(6.53834841531101,0.,2.5));
#1556=CARTESIAN_POINT('',(3.26917420765551,0.,2.5));
#1557=CARTESIAN_POINT('',(6.53834841531101,-12.,2.5));
#1558=CARTESIAN_POINT('Origin',(5.,-12.,1.16743491188625E-15));
#1559=CARTESIAN_POINT('Origin',(2.75,-16.5,4.76313972081441));
#1560=CARTESIAN_POINT('',(1.88397459621556,-12.,5.26313972081441));
#1561=CARTESIAN_POINT('Origin',(2.75,-12.,4.76313972081441));
#1562=CARTESIAN_POINT('',(1.88397459621556,-20.,5.26313972081441));
#1563=CARTESIAN_POINT('',(1.88397459621556,-16.5,5.26313972081441));
#1564=CARTESIAN_POINT('Origin',(2.75,-20.,4.76313972081441));
#1565=CARTESIAN_POINT('Origin',(4.9150635094611,0.,3.51313972081441));
#1566=CARTESIAN_POINT('',(3.5400635094611,0.,1.13156986040721));
#1567=CARTESIAN_POINT('',(4.9150635094611,-12.,3.51313972081441));
#1568=CARTESIAN_POINT('Origin',(1.10411069819441,0.,6.91237582645306));
#1569=CARTESIAN_POINT('',(-0.530476405633345,0.,4.08118791322653));
#1570=CARTESIAN_POINT('',(1.10411069819441,-12.,6.91237582645306));
#1571=CARTESIAN_POINT('Origin',(2.5,-12.,4.33012701892219));
#1572=CARTESIAN_POINT('Origin',(-2.75,-16.5,4.76313972081441));
#1573=CARTESIAN_POINT('',(-3.61602540378444,-12.,4.26313972081441));
#1574=CARTESIAN_POINT('Origin',(-2.75,-12.,4.76313972081441));
#1575=CARTESIAN_POINT('',(-3.61602540378444,-20.,4.26313972081441));
#1576=CARTESIAN_POINT('',(-3.61602540378444,-16.5,4.26313972081441));
#1577=CARTESIAN_POINT('Origin',(-2.75,-20.,4.76313972081441));
#1578=CARTESIAN_POINT('Origin',(-0.584936490538904,0.,6.01313972081441));
#1579=CARTESIAN_POINT('',(0.790063509461097,0.,3.63156986040721));
#1580=CARTESIAN_POINT('',(-0.584936490538904,-12.,6.01313972081441));
#1581=CARTESIAN_POINT('Origin',(-5.4342377171166,0.,4.41237582645306));
#1582=CARTESIAN_POINT('',(-3.79965061328885,0.,1.58118791322653));
#1583=CARTESIAN_POINT('',(-5.4342377171166,-12.,4.41237582645306));
#1584=CARTESIAN_POINT('Origin',(-2.5,-12.,4.33012701892219));
#1585=CARTESIAN_POINT('Origin',(-5.5,-16.5,0.));
#1586=CARTESIAN_POINT('',(-5.5,-12.,-1.));
#1587=CARTESIAN_POINT('Origin',(-5.5,-12.,0.));
#1588=CARTESIAN_POINT('',(-5.5,-20.,-1.));
#1589=CARTESIAN_POINT('',(-5.5,-16.5,-1.));
#1590=CARTESIAN_POINT('Origin',(-5.5,-20.,0.));
#1591=CARTESIAN_POINT('Origin',(-5.5,0.,2.5));
#1592=CARTESIAN_POINT('',(-2.75,0.,2.5));
#1593=CARTESIAN_POINT('',(-5.5,-12.,2.5));
#1594=CARTESIAN_POINT('Origin',(-6.53834841531101,0.,-2.5));
#1595=CARTESIAN_POINT('',(-3.26917420765551,0.,-2.5));
#1596=CARTESIAN_POINT('',(-6.53834841531101,-12.,-2.5));
#1597=CARTESIAN_POINT('Origin',(-5.,-12.,-5.55111512312578E-16));
#1598=CARTESIAN_POINT('Origin',(2.72872028276356E-16,-16.5,0.));
#1599=CARTESIAN_POINT('',(4.76898185014305E-16,0.,-1.666));
#1600=CARTESIAN_POINT('Origin',(2.72872028276356E-16,0.,0.));
#1601=CARTESIAN_POINT('',(4.76898185014305E-16,-16.5,-1.666));
#1602=CARTESIAN_POINT('Origin',(0.,0.,0.));
#1603=CARTESIAN_POINT('Origin',(0.,-20.,0.));
#1604=UNCERTAINTY_MEASURE_WITH_UNIT(LENGTH_MEASURE(0.01),#1608,
'DISTANCE_ACCURACY_VALUE',
'Maximum model space distance between geometric entities at asserted c
onnectivities');
#1605=UNCERTAINTY_MEASURE_WITH_UNIT(LENGTH_MEASURE(0.01),#1608,
'DISTANCE_ACCURACY_VALUE',
'Maximum model space distance between geometric entities at asserted c
onnectivities');
#1606=(
GEOMETRIC_REPRESENTATION_CONTEXT(3)
GLOBAL_UNCERTAINTY_ASSIGNED_CONTEXT((#1604))
GLOBAL_UNIT_ASSIGNED_CONTEXT((#1608,#1609,#1610))
REPRESENTATION_CONTEXT('','3D')
);
#1607=(
GEOMETRIC_REPRESENTATION_CONTEXT(3)
GLOBAL_UNCERTAINTY_ASSIGNED_CONTEXT((#1605))
GLOBAL_UNIT_ASSIGNED_CONTEXT((#1608,#1609,#1610))
REPRESENTATION_CONTEXT('','3D')
);
#1608=(
LENGTH_UNIT()
NAMED_UNIT(*)
SI_UNIT(.MILLI.,.METRE.)
);
#1609=(
NAMED_UNIT(*)
PLANE_ANGLE_UNIT()
SI_UNIT($,.RADIAN.)
);
#1610=(
NAMED_UNIT(*)
SI_UNIT($,.STERADIAN.)
SOLID_ANGLE_UNIT()
);
#1611=SHAPE_DEFINITION_REPRESENTATION(#1612,#1613);
#1612=PRODUCT_DEFINITION_SHAPE('',$,#1615);
#1613=SHAPE_REPRESENTATION('',(#897),#1606);
#1614=PRODUCT_DEFINITION_CONTEXT('part definition',#1619,'design');
#1615=PRODUCT_DEFINITION('sampleHolder_fancy','sampleHolder_fancy v4',#1616,
#1614);
#1616=PRODUCT_DEFINITION_FORMATION('',$,#1621);
#1617=PRODUCT_RELATED_PRODUCT_CATEGORY('sampleHolder_fancy v4',
'sampleHolder_fancy v4',(#1621));
#1618=APPLICATION_PROTOCOL_DEFINITION('international standard',
'automotive_design',2009,#1619);
#1619=APPLICATION_CONTEXT(
'Core Data for Automotive Mechanical Design Process');
#1620=PRODUCT_CONTEXT('part definition',#1619,'mechanical');
#1621=PRODUCT('sampleHolder_fancy','sampleHolder_fancy v4',$,(#1620));
#1622=PRESENTATION_STYLE_ASSIGNMENT((#1623));
#1623=SURFACE_STYLE_USAGE(.BOTH.,#1624);
#1624=SURFACE_SIDE_STYLE('',(#1625));
#1625=SURFACE_STYLE_FILL_AREA(#1626);
#1626=FILL_AREA_STYLE('Steel - Satin',(#1627));
#1627=FILL_AREA_STYLE_COLOUR('Steel - Satin',#1628);
#1628=COLOUR_RGB('Steel - Satin',0.627450980392157,0.627450980392157,0.627450980392157);
ENDSEC;
END-ISO-10303-21;
