ISO-10303-21;
HEADER;
/* Generated by software containing ST-Developer
 * from STEP Tools, Inc. (www.steptools.com) 
 */

FILE_DESCRIPTION(
/* description */ (''),
/* implementation_level */ '2;1');

FILE_NAME(
/* name */ 'Curtain Clamps v2.step',
/* time_stamp */ '2024-06-25T15:02:52+02:00',
/* author */ (''),
/* organization */ (''),
/* preprocessor_version */ 'ST-DEVELOPER v20',
/* originating_system */ 'Autodesk Translation Framework v13.14.0.145',

/* authorisation */ '');

FILE_SCHEMA (('AUTOMOTIVE_DESIGN { 1 0 10303 214 3 1 1 }'));
ENDSEC;

DATA;
#10=MECHANICAL_DESIGN_GEOMETRIC_PRESENTATION_REPRESENTATION('',(#13,#14),
#1296);
#11=SHAPE_REPRESENTATION_RELATIONSHIP('SRR','None',#1303,#12);
#12=ADVANCED_BREP_SHAPE_REPRESENTATION('',(#15,#16),#1295);
#13=STYLED_ITEM('',(#1312),#15);
#14=STYLED_ITEM('',(#1312),#16);
#15=MANIFOLD_SOLID_BREP('Body1',#771);
#16=MANIFOLD_SOLID_BREP('Body2',#772);
#17=FACE_BOUND('',#125,.T.);
#18=FACE_BOUND('',#126,.T.);
#19=FACE_BOUND('',#127,.T.);
#20=FACE_BOUND('',#129,.T.);
#21=FACE_BOUND('',#130,.T.);
#22=FACE_BOUND('',#132,.T.);
#23=FACE_BOUND('',#133,.T.);
#24=FACE_BOUND('',#143,.T.);
#25=FACE_BOUND('',#144,.T.);
#26=FACE_BOUND('',#154,.T.);
#27=FACE_BOUND('',#155,.T.);
#28=FACE_BOUND('',#156,.T.);
#29=FACE_BOUND('',#161,.T.);
#30=FACE_BOUND('',#162,.T.);
#31=PLANE('',#789);
#32=PLANE('',#793);
#33=PLANE('',#797);
#34=PLANE('',#798);
#35=PLANE('',#799);
#36=PLANE('',#803);
#37=PLANE('',#807);
#38=PLANE('',#811);
#39=PLANE('',#815);
#40=PLANE('',#816);
#41=PLANE('',#817);
#42=PLANE('',#818);
#43=PLANE('',#819);
#44=PLANE('',#820);
#45=PLANE('',#821);
#46=PLANE('',#825);
#47=PLANE('',#829);
#48=PLANE('',#833);
#49=PLANE('',#834);
#50=PLANE('',#835);
#51=PLANE('',#836);
#52=PLANE('',#841);
#53=PLANE('',#844);
#54=PLANE('',#847);
#55=PLANE('',#850);
#56=PLANE('',#853);
#57=PLANE('',#854);
#58=PLANE('',#855);
#59=PLANE('',#856);
#60=PLANE('',#857);
#61=FACE_OUTER_BOUND('',#105,.T.);
#62=FACE_OUTER_BOUND('',#106,.T.);
#63=FACE_OUTER_BOUND('',#107,.T.);
#64=FACE_OUTER_BOUND('',#108,.T.);
#65=FACE_OUTER_BOUND('',#109,.T.);
#66=FACE_OUTER_BOUND('',#110,.T.);
#67=FACE_OUTER_BOUND('',#111,.T.);
#68=FACE_OUTER_BOUND('',#112,.T.);
#69=FACE_OUTER_BOUND('',#113,.T.);
#70=FACE_OUTER_BOUND('',#114,.T.);
#71=FACE_OUTER_BOUND('',#115,.T.);
#72=FACE_OUTER_BOUND('',#116,.T.);
#73=FACE_OUTER_BOUND('',#117,.T.);
#74=FACE_OUTER_BOUND('',#118,.T.);
#75=FACE_OUTER_BOUND('',#119,.T.);
#76=FACE_OUTER_BOUND('',#120,.T.);
#77=FACE_OUTER_BOUND('',#121,.T.);
#78=FACE_OUTER_BOUND('',#122,.T.);
#79=FACE_OUTER_BOUND('',#123,.T.);
#80=FACE_OUTER_BOUND('',#124,.T.);
#81=FACE_OUTER_BOUND('',#128,.T.);
#82=FACE_OUTER_BOUND('',#131,.T.);
#83=FACE_OUTER_BOUND('',#134,.T.);
#84=FACE_OUTER_BOUND('',#135,.T.);
#85=FACE_OUTER_BOUND('',#136,.T.);
#86=FACE_OUTER_BOUND('',#137,.T.);
#87=FACE_OUTER_BOUND('',#138,.T.);
#88=FACE_OUTER_BOUND('',#139,.T.);
#89=FACE_OUTER_BOUND('',#140,.T.);
#90=FACE_OUTER_BOUND('',#141,.T.);
#91=FACE_OUTER_BOUND('',#142,.T.);
#92=FACE_OUTER_BOUND('',#145,.T.);
#93=FACE_OUTER_BOUND('',#146,.T.);
#94=FACE_OUTER_BOUND('',#147,.T.);
#95=FACE_OUTER_BOUND('',#148,.T.);
#96=FACE_OUTER_BOUND('',#149,.T.);
#97=FACE_OUTER_BOUND('',#150,.T.);
#98=FACE_OUTER_BOUND('',#151,.T.);
#99=FACE_OUTER_BOUND('',#152,.T.);
#100=FACE_OUTER_BOUND('',#153,.T.);
#101=FACE_OUTER_BOUND('',#157,.T.);
#102=FACE_OUTER_BOUND('',#158,.T.);
#103=FACE_OUTER_BOUND('',#159,.T.);
#104=FACE_OUTER_BOUND('',#160,.T.);
#105=EDGE_LOOP('',(#509,#510,#511,#512));
#106=EDGE_LOOP('',(#513));
#107=EDGE_LOOP('',(#514,#515,#516,#517));
#108=EDGE_LOOP('',(#518));
#109=EDGE_LOOP('',(#519,#520,#521,#522));
#110=EDGE_LOOP('',(#523));
#111=EDGE_LOOP('',(#524,#525,#526,#527));
#112=EDGE_LOOP('',(#528,#529,#530,#531));
#113=EDGE_LOOP('',(#532,#533,#534,#535));
#114=EDGE_LOOP('',(#536,#537,#538,#539));
#115=EDGE_LOOP('',(#540,#541,#542,#543));
#116=EDGE_LOOP('',(#544,#545,#546,#547));
#117=EDGE_LOOP('',(#548,#549,#550,#551));
#118=EDGE_LOOP('',(#552,#553,#554,#555));
#119=EDGE_LOOP('',(#556,#557,#558,#559));
#120=EDGE_LOOP('',(#560,#561,#562,#563));
#121=EDGE_LOOP('',(#564,#565,#566,#567,#568,#569));
#122=EDGE_LOOP('',(#570,#571,#572,#573));
#123=EDGE_LOOP('',(#574,#575,#576,#577,#578,#579));
#124=EDGE_LOOP('',(#580,#581,#582,#583));
#125=EDGE_LOOP('',(#584));
#126=EDGE_LOOP('',(#585));
#127=EDGE_LOOP('',(#586));
#128=EDGE_LOOP('',(#587,#588,#589,#590));
#129=EDGE_LOOP('',(#591,#592,#593,#594));
#130=EDGE_LOOP('',(#595,#596,#597,#598));
#131=EDGE_LOOP('',(#599,#600,#601,#602));
#132=EDGE_LOOP('',(#603,#604,#605,#606));
#133=EDGE_LOOP('',(#607,#608,#609,#610));
#134=EDGE_LOOP('',(#611,#612,#613,#614));
#135=EDGE_LOOP('',(#615));
#136=EDGE_LOOP('',(#616,#617,#618,#619));
#137=EDGE_LOOP('',(#620));
#138=EDGE_LOOP('',(#621,#622,#623,#624));
#139=EDGE_LOOP('',(#625));
#140=EDGE_LOOP('',(#626,#627,#628,#629));
#141=EDGE_LOOP('',(#630,#631,#632,#633));
#142=EDGE_LOOP('',(#634,#635,#636,#637));
#143=EDGE_LOOP('',(#638,#639,#640,#641));
#144=EDGE_LOOP('',(#642,#643,#644,#645));
#145=EDGE_LOOP('',(#646,#647,#648,#649));
#146=EDGE_LOOP('',(#650,#651,#652,#653));
#147=EDGE_LOOP('',(#654,#655,#656,#657));
#148=EDGE_LOOP('',(#658,#659,#660,#661));
#149=EDGE_LOOP('',(#662,#663,#664,#665));
#150=EDGE_LOOP('',(#666,#667,#668,#669));
#151=EDGE_LOOP('',(#670,#671,#672,#673));
#152=EDGE_LOOP('',(#674,#675,#676,#677));
#153=EDGE_LOOP('',(#678,#679,#680,#681));
#154=EDGE_LOOP('',(#682));
#155=EDGE_LOOP('',(#683));
#156=EDGE_LOOP('',(#684));
#157=EDGE_LOOP('',(#685,#686,#687,#688,#689,#690));
#158=EDGE_LOOP('',(#691,#692,#693,#694));
#159=EDGE_LOOP('',(#695,#696,#697,#698,#699,#700));
#160=EDGE_LOOP('',(#701,#702,#703,#704));
#161=EDGE_LOOP('',(#705,#706,#707,#708));
#162=EDGE_LOOP('',(#709,#710,#711,#712));
#163=LINE('',#1083,#237);
#164=LINE('',#1090,#238);
#165=LINE('',#1097,#239);
#166=LINE('',#1103,#240);
#167=LINE('',#1105,#241);
#168=LINE('',#1107,#242);
#169=LINE('',#1108,#243);
#170=LINE('',#1112,#244);
#171=LINE('',#1113,#245);
#172=LINE('',#1114,#246);
#173=LINE('',#1120,#247);
#174=LINE('',#1123,#248);
#175=LINE('',#1126,#249);
#176=LINE('',#1128,#250);
#177=LINE('',#1129,#251);
#178=LINE('',#1135,#252);
#179=LINE('',#1137,#253);
#180=LINE('',#1138,#254);
#181=LINE('',#1144,#255);
#182=LINE('',#1147,#256);
#183=LINE('',#1150,#257);
#184=LINE('',#1152,#258);
#185=LINE('',#1153,#259);
#186=LINE('',#1159,#260);
#187=LINE('',#1161,#261);
#188=LINE('',#1162,#262);
#189=LINE('',#1166,#263);
#190=LINE('',#1167,#264);
#191=LINE('',#1169,#265);
#192=LINE('',#1170,#266);
#193=LINE('',#1173,#267);
#194=LINE('',#1175,#268);
#195=LINE('',#1176,#269);
#196=LINE('',#1179,#270);
#197=LINE('',#1180,#271);
#198=LINE('',#1181,#272);
#199=LINE('',#1183,#273);
#200=LINE('',#1190,#274);
#201=LINE('',#1197,#275);
#202=LINE('',#1204,#276);
#203=LINE('',#1210,#277);
#204=LINE('',#1212,#278);
#205=LINE('',#1214,#279);
#206=LINE('',#1215,#280);
#207=LINE('',#1218,#281);
#208=LINE('',#1220,#282);
#209=LINE('',#1221,#283);
#210=LINE('',#1224,#284);
#211=LINE('',#1226,#285);
#212=LINE('',#1227,#286);
#213=LINE('',#1232,#287);
#214=LINE('',#1235,#288);
#215=LINE('',#1240,#289);
#216=LINE('',#1243,#290);
#217=LINE('',#1247,#291);
#218=LINE('',#1248,#292);
#219=LINE('',#1249,#293);
#220=LINE('',#1253,#294);
#221=LINE('',#1256,#295);
#222=LINE('',#1257,#296);
#223=LINE('',#1263,#297);
#224=LINE('',#1264,#298);
#225=LINE('',#1265,#299);
#226=LINE('',#1269,#300);
#227=LINE('',#1272,#301);
#228=LINE('',#1273,#302);
#229=LINE('',#1279,#303);
#230=LINE('',#1280,#304);
#231=LINE('',#1281,#305);
#232=LINE('',#1284,#306);
#233=LINE('',#1285,#307);
#234=LINE('',#1288,#308);
#235=LINE('',#1289,#309);
#236=LINE('',#1291,#310);
#237=VECTOR('',#864,3.);
#238=VECTOR('',#873,3.);
#239=VECTOR('',#882,3.);
#240=VECTOR('',#889,10.);
#241=VECTOR('',#890,10.);
#242=VECTOR('',#891,10.);
#243=VECTOR('',#892,10.);
#244=VECTOR('',#895,10.);
#245=VECTOR('',#896,10.);
#246=VECTOR('',#897,10.);
#247=VECTOR('',#902,10.);
#248=VECTOR('',#905,10.);
#249=VECTOR('',#908,10.);
#250=VECTOR('',#909,10.);
#251=VECTOR('',#910,10.);
#252=VECTOR('',#917,10.);
#253=VECTOR('',#920,10.);
#254=VECTOR('',#921,10.);
#255=VECTOR('',#926,10.);
#256=VECTOR('',#929,10.);
#257=VECTOR('',#932,10.);
#258=VECTOR('',#933,10.);
#259=VECTOR('',#934,10.);
#260=VECTOR('',#941,10.);
#261=VECTOR('',#944,10.);
#262=VECTOR('',#945,10.);
#263=VECTOR('',#948,10.);
#264=VECTOR('',#949,10.);
#265=VECTOR('',#950,10.);
#266=VECTOR('',#951,10.);
#267=VECTOR('',#954,10.);
#268=VECTOR('',#955,10.);
#269=VECTOR('',#956,10.);
#270=VECTOR('',#959,10.);
#271=VECTOR('',#960,10.);
#272=VECTOR('',#961,10.);
#273=VECTOR('',#964,10.);
#274=VECTOR('',#973,3.);
#275=VECTOR('',#982,3.);
#276=VECTOR('',#991,3.);
#277=VECTOR('',#998,10.);
#278=VECTOR('',#999,10.);
#279=VECTOR('',#1000,10.);
#280=VECTOR('',#1001,10.);
#281=VECTOR('',#1004,10.);
#282=VECTOR('',#1005,10.);
#283=VECTOR('',#1006,10.);
#284=VECTOR('',#1009,10.);
#285=VECTOR('',#1010,10.);
#286=VECTOR('',#1011,10.);
#287=VECTOR('',#1014,10.);
#288=VECTOR('',#1017,10.);
#289=VECTOR('',#1020,10.);
#290=VECTOR('',#1023,10.);
#291=VECTOR('',#1026,10.);
#292=VECTOR('',#1027,10.);
#293=VECTOR('',#1028,10.);
#294=VECTOR('',#1033,10.);
#295=VECTOR('',#1036,10.);
#296=VECTOR('',#1037,10.);
#297=VECTOR('',#1044,10.);
#298=VECTOR('',#1045,10.);
#299=VECTOR('',#1046,10.);
#300=VECTOR('',#1051,10.);
#301=VECTOR('',#1054,10.);
#302=VECTOR('',#1055,10.);
#303=VECTOR('',#1062,10.);
#304=VECTOR('',#1063,10.);
#305=VECTOR('',#1064,10.);
#306=VECTOR('',#1067,10.);
#307=VECTOR('',#1068,10.);
#308=VECTOR('',#1071,10.);
#309=VECTOR('',#1072,10.);
#310=VECTOR('',#1075,10.);
#311=CIRCLE('',#787,3.);
#312=CIRCLE('',#788,3.);
#313=CIRCLE('',#791,3.);
#314=CIRCLE('',#792,3.);
#315=CIRCLE('',#795,3.);
#316=CIRCLE('',#796,3.);
#317=CIRCLE('',#801,4.25);
#318=CIRCLE('',#802,4.25);
#319=CIRCLE('',#805,4.25);
#320=CIRCLE('',#806,4.25);
#321=CIRCLE('',#809,4.25);
#322=CIRCLE('',#810,4.25);
#323=CIRCLE('',#813,4.25);
#324=CIRCLE('',#814,4.25);
#325=CIRCLE('',#823,3.);
#326=CIRCLE('',#824,3.);
#327=CIRCLE('',#827,3.);
#328=CIRCLE('',#828,3.);
#329=CIRCLE('',#831,3.);
#330=CIRCLE('',#832,3.);
#331=CIRCLE('',#837,4.25);
#332=CIRCLE('',#838,4.25);
#333=CIRCLE('',#839,4.25);
#334=CIRCLE('',#840,4.25);
#335=CIRCLE('',#843,4.25);
#336=CIRCLE('',#846,4.25);
#337=CIRCLE('',#849,4.25);
#338=CIRCLE('',#852,4.25);
#339=VERTEX_POINT('',#1080);
#340=VERTEX_POINT('',#1082);
#341=VERTEX_POINT('',#1087);
#342=VERTEX_POINT('',#1089);
#343=VERTEX_POINT('',#1094);
#344=VERTEX_POINT('',#1096);
#345=VERTEX_POINT('',#1101);
#346=VERTEX_POINT('',#1102);
#347=VERTEX_POINT('',#1104);
#348=VERTEX_POINT('',#1106);
#349=VERTEX_POINT('',#1110);
#350=VERTEX_POINT('',#1111);
#351=VERTEX_POINT('',#1116);
#352=VERTEX_POINT('',#1117);
#353=VERTEX_POINT('',#1119);
#354=VERTEX_POINT('',#1121);
#355=VERTEX_POINT('',#1125);
#356=VERTEX_POINT('',#1127);
#357=VERTEX_POINT('',#1131);
#358=VERTEX_POINT('',#1133);
#359=VERTEX_POINT('',#1140);
#360=VERTEX_POINT('',#1141);
#361=VERTEX_POINT('',#1143);
#362=VERTEX_POINT('',#1145);
#363=VERTEX_POINT('',#1149);
#364=VERTEX_POINT('',#1151);
#365=VERTEX_POINT('',#1155);
#366=VERTEX_POINT('',#1157);
#367=VERTEX_POINT('',#1164);
#368=VERTEX_POINT('',#1165);
#369=VERTEX_POINT('',#1168);
#370=VERTEX_POINT('',#1172);
#371=VERTEX_POINT('',#1174);
#372=VERTEX_POINT('',#1178);
#373=VERTEX_POINT('',#1187);
#374=VERTEX_POINT('',#1189);
#375=VERTEX_POINT('',#1194);
#376=VERTEX_POINT('',#1196);
#377=VERTEX_POINT('',#1201);
#378=VERTEX_POINT('',#1203);
#379=VERTEX_POINT('',#1208);
#380=VERTEX_POINT('',#1209);
#381=VERTEX_POINT('',#1211);
#382=VERTEX_POINT('',#1213);
#383=VERTEX_POINT('',#1217);
#384=VERTEX_POINT('',#1219);
#385=VERTEX_POINT('',#1223);
#386=VERTEX_POINT('',#1225);
#387=VERTEX_POINT('',#1228);
#388=VERTEX_POINT('',#1229);
#389=VERTEX_POINT('',#1231);
#390=VERTEX_POINT('',#1233);
#391=VERTEX_POINT('',#1236);
#392=VERTEX_POINT('',#1237);
#393=VERTEX_POINT('',#1239);
#394=VERTEX_POINT('',#1241);
#395=VERTEX_POINT('',#1245);
#396=VERTEX_POINT('',#1246);
#397=VERTEX_POINT('',#1251);
#398=VERTEX_POINT('',#1255);
#399=VERTEX_POINT('',#1261);
#400=VERTEX_POINT('',#1262);
#401=VERTEX_POINT('',#1267);
#402=VERTEX_POINT('',#1271);
#403=VERTEX_POINT('',#1277);
#404=VERTEX_POINT('',#1278);
#405=VERTEX_POINT('',#1283);
#406=VERTEX_POINT('',#1287);
#407=EDGE_CURVE('',#339,#339,#311,.T.);
#408=EDGE_CURVE('',#339,#340,#163,.T.);
#409=EDGE_CURVE('',#340,#340,#312,.T.);
#410=EDGE_CURVE('',#341,#341,#313,.T.);
#411=EDGE_CURVE('',#341,#342,#164,.T.);
#412=EDGE_CURVE('',#342,#342,#314,.T.);
#413=EDGE_CURVE('',#343,#343,#315,.T.);
#414=EDGE_CURVE('',#343,#344,#165,.T.);
#415=EDGE_CURVE('',#344,#344,#316,.T.);
#416=EDGE_CURVE('',#345,#346,#166,.T.);
#417=EDGE_CURVE('',#345,#347,#167,.T.);
#418=EDGE_CURVE('',#348,#347,#168,.T.);
#419=EDGE_CURVE('',#346,#348,#169,.T.);
#420=EDGE_CURVE('',#349,#350,#170,.T.);
#421=EDGE_CURVE('',#350,#348,#171,.T.);
#422=EDGE_CURVE('',#347,#349,#172,.T.);
#423=EDGE_CURVE('',#351,#352,#317,.T.);
#424=EDGE_CURVE('',#352,#353,#173,.T.);
#425=EDGE_CURVE('',#354,#353,#318,.T.);
#426=EDGE_CURVE('',#351,#354,#174,.T.);
#427=EDGE_CURVE('',#355,#351,#175,.T.);
#428=EDGE_CURVE('',#356,#354,#176,.T.);
#429=EDGE_CURVE('',#355,#356,#177,.T.);
#430=EDGE_CURVE('',#357,#355,#319,.T.);
#431=EDGE_CURVE('',#358,#356,#320,.T.);
#432=EDGE_CURVE('',#357,#358,#178,.T.);
#433=EDGE_CURVE('',#352,#357,#179,.T.);
#434=EDGE_CURVE('',#353,#358,#180,.T.);
#435=EDGE_CURVE('',#359,#360,#321,.T.);
#436=EDGE_CURVE('',#360,#361,#181,.T.);
#437=EDGE_CURVE('',#362,#361,#322,.T.);
#438=EDGE_CURVE('',#359,#362,#182,.T.);
#439=EDGE_CURVE('',#363,#359,#183,.T.);
#440=EDGE_CURVE('',#364,#362,#184,.T.);
#441=EDGE_CURVE('',#363,#364,#185,.T.);
#442=EDGE_CURVE('',#365,#363,#323,.T.);
#443=EDGE_CURVE('',#366,#364,#324,.T.);
#444=EDGE_CURVE('',#365,#366,#186,.T.);
#445=EDGE_CURVE('',#360,#365,#187,.T.);
#446=EDGE_CURVE('',#361,#366,#188,.T.);
#447=EDGE_CURVE('',#367,#368,#189,.T.);
#448=EDGE_CURVE('',#368,#349,#190,.T.);
#449=EDGE_CURVE('',#369,#345,#191,.T.);
#450=EDGE_CURVE('',#367,#369,#192,.T.);
#451=EDGE_CURVE('',#370,#367,#193,.T.);
#452=EDGE_CURVE('',#371,#369,#194,.T.);
#453=EDGE_CURVE('',#370,#371,#195,.T.);
#454=EDGE_CURVE('',#372,#370,#196,.T.);
#455=EDGE_CURVE('',#346,#371,#197,.T.);
#456=EDGE_CURVE('',#372,#350,#198,.T.);
#457=EDGE_CURVE('',#368,#372,#199,.T.);
#458=EDGE_CURVE('',#373,#373,#325,.T.);
#459=EDGE_CURVE('',#373,#374,#200,.T.);
#460=EDGE_CURVE('',#374,#374,#326,.T.);
#461=EDGE_CURVE('',#375,#375,#327,.T.);
#462=EDGE_CURVE('',#375,#376,#201,.T.);
#463=EDGE_CURVE('',#376,#376,#328,.T.);
#464=EDGE_CURVE('',#377,#377,#329,.T.);
#465=EDGE_CURVE('',#377,#378,#202,.T.);
#466=EDGE_CURVE('',#378,#378,#330,.T.);
#467=EDGE_CURVE('',#379,#380,#203,.T.);
#468=EDGE_CURVE('',#379,#381,#204,.T.);
#469=EDGE_CURVE('',#382,#381,#205,.T.);
#470=EDGE_CURVE('',#380,#382,#206,.T.);
#471=EDGE_CURVE('',#383,#382,#207,.T.);
#472=EDGE_CURVE('',#381,#384,#208,.T.);
#473=EDGE_CURVE('',#384,#383,#209,.T.);
#474=EDGE_CURVE('',#380,#385,#210,.T.);
#475=EDGE_CURVE('',#385,#386,#211,.T.);
#476=EDGE_CURVE('',#386,#379,#212,.T.);
#477=EDGE_CURVE('',#387,#388,#331,.T.);
#478=EDGE_CURVE('',#388,#389,#213,.T.);
#479=EDGE_CURVE('',#389,#390,#332,.T.);
#480=EDGE_CURVE('',#390,#387,#214,.T.);
#481=EDGE_CURVE('',#391,#392,#333,.T.);
#482=EDGE_CURVE('',#392,#393,#215,.T.);
#483=EDGE_CURVE('',#393,#394,#334,.T.);
#484=EDGE_CURVE('',#394,#391,#216,.T.);
#485=EDGE_CURVE('',#395,#396,#217,.T.);
#486=EDGE_CURVE('',#396,#387,#218,.T.);
#487=EDGE_CURVE('',#395,#390,#219,.T.);
#488=EDGE_CURVE('',#397,#395,#335,.T.);
#489=EDGE_CURVE('',#397,#389,#220,.T.);
#490=EDGE_CURVE('',#398,#397,#221,.T.);
#491=EDGE_CURVE('',#398,#388,#222,.T.);
#492=EDGE_CURVE('',#396,#398,#336,.T.);
#493=EDGE_CURVE('',#399,#400,#223,.T.);
#494=EDGE_CURVE('',#400,#391,#224,.T.);
#495=EDGE_CURVE('',#399,#394,#225,.T.);
#496=EDGE_CURVE('',#401,#399,#337,.T.);
#497=EDGE_CURVE('',#401,#393,#226,.T.);
#498=EDGE_CURVE('',#402,#401,#227,.T.);
#499=EDGE_CURVE('',#402,#392,#228,.T.);
#500=EDGE_CURVE('',#400,#402,#338,.T.);
#501=EDGE_CURVE('',#403,#404,#229,.T.);
#502=EDGE_CURVE('',#403,#383,#230,.T.);
#503=EDGE_CURVE('',#404,#384,#231,.T.);
#504=EDGE_CURVE('',#404,#405,#232,.T.);
#505=EDGE_CURVE('',#405,#386,#233,.T.);
#506=EDGE_CURVE('',#405,#406,#234,.T.);
#507=EDGE_CURVE('',#406,#385,#235,.T.);
#508=EDGE_CURVE('',#406,#403,#236,.T.);
#509=ORIENTED_EDGE('',*,*,#407,.F.);
#510=ORIENTED_EDGE('',*,*,#408,.T.);
#511=ORIENTED_EDGE('',*,*,#409,.T.);
#512=ORIENTED_EDGE('',*,*,#408,.F.);
#513=ORIENTED_EDGE('',*,*,#409,.F.);
#514=ORIENTED_EDGE('',*,*,#410,.F.);
#515=ORIENTED_EDGE('',*,*,#411,.T.);
#516=ORIENTED_EDGE('',*,*,#412,.T.);
#517=ORIENTED_EDGE('',*,*,#411,.F.);
#518=ORIENTED_EDGE('',*,*,#412,.F.);
#519=ORIENTED_EDGE('',*,*,#413,.F.);
#520=ORIENTED_EDGE('',*,*,#414,.T.);
#521=ORIENTED_EDGE('',*,*,#415,.T.);
#522=ORIENTED_EDGE('',*,*,#414,.F.);
#523=ORIENTED_EDGE('',*,*,#415,.F.);
#524=ORIENTED_EDGE('',*,*,#416,.F.);
#525=ORIENTED_EDGE('',*,*,#417,.T.);
#526=ORIENTED_EDGE('',*,*,#418,.F.);
#527=ORIENTED_EDGE('',*,*,#419,.F.);
#528=ORIENTED_EDGE('',*,*,#420,.T.);
#529=ORIENTED_EDGE('',*,*,#421,.T.);
#530=ORIENTED_EDGE('',*,*,#418,.T.);
#531=ORIENTED_EDGE('',*,*,#422,.T.);
#532=ORIENTED_EDGE('',*,*,#423,.T.);
#533=ORIENTED_EDGE('',*,*,#424,.T.);
#534=ORIENTED_EDGE('',*,*,#425,.F.);
#535=ORIENTED_EDGE('',*,*,#426,.F.);
#536=ORIENTED_EDGE('',*,*,#427,.T.);
#537=ORIENTED_EDGE('',*,*,#426,.T.);
#538=ORIENTED_EDGE('',*,*,#428,.F.);
#539=ORIENTED_EDGE('',*,*,#429,.F.);
#540=ORIENTED_EDGE('',*,*,#430,.T.);
#541=ORIENTED_EDGE('',*,*,#429,.T.);
#542=ORIENTED_EDGE('',*,*,#431,.F.);
#543=ORIENTED_EDGE('',*,*,#432,.F.);
#544=ORIENTED_EDGE('',*,*,#433,.T.);
#545=ORIENTED_EDGE('',*,*,#432,.T.);
#546=ORIENTED_EDGE('',*,*,#434,.F.);
#547=ORIENTED_EDGE('',*,*,#424,.F.);
#548=ORIENTED_EDGE('',*,*,#435,.T.);
#549=ORIENTED_EDGE('',*,*,#436,.T.);
#550=ORIENTED_EDGE('',*,*,#437,.F.);
#551=ORIENTED_EDGE('',*,*,#438,.F.);
#552=ORIENTED_EDGE('',*,*,#439,.T.);
#553=ORIENTED_EDGE('',*,*,#438,.T.);
#554=ORIENTED_EDGE('',*,*,#440,.F.);
#555=ORIENTED_EDGE('',*,*,#441,.F.);
#556=ORIENTED_EDGE('',*,*,#442,.T.);
#557=ORIENTED_EDGE('',*,*,#441,.T.);
#558=ORIENTED_EDGE('',*,*,#443,.F.);
#559=ORIENTED_EDGE('',*,*,#444,.F.);
#560=ORIENTED_EDGE('',*,*,#445,.T.);
#561=ORIENTED_EDGE('',*,*,#444,.T.);
#562=ORIENTED_EDGE('',*,*,#446,.F.);
#563=ORIENTED_EDGE('',*,*,#436,.F.);
#564=ORIENTED_EDGE('',*,*,#447,.T.);
#565=ORIENTED_EDGE('',*,*,#448,.T.);
#566=ORIENTED_EDGE('',*,*,#422,.F.);
#567=ORIENTED_EDGE('',*,*,#417,.F.);
#568=ORIENTED_EDGE('',*,*,#449,.F.);
#569=ORIENTED_EDGE('',*,*,#450,.F.);
#570=ORIENTED_EDGE('',*,*,#451,.T.);
#571=ORIENTED_EDGE('',*,*,#450,.T.);
#572=ORIENTED_EDGE('',*,*,#452,.F.);
#573=ORIENTED_EDGE('',*,*,#453,.F.);
#574=ORIENTED_EDGE('',*,*,#454,.T.);
#575=ORIENTED_EDGE('',*,*,#453,.T.);
#576=ORIENTED_EDGE('',*,*,#455,.F.);
#577=ORIENTED_EDGE('',*,*,#419,.T.);
#578=ORIENTED_EDGE('',*,*,#421,.F.);
#579=ORIENTED_EDGE('',*,*,#456,.F.);
#580=ORIENTED_EDGE('',*,*,#457,.T.);
#581=ORIENTED_EDGE('',*,*,#456,.T.);
#582=ORIENTED_EDGE('',*,*,#420,.F.);
#583=ORIENTED_EDGE('',*,*,#448,.F.);
#584=ORIENTED_EDGE('',*,*,#407,.T.);
#585=ORIENTED_EDGE('',*,*,#410,.T.);
#586=ORIENTED_EDGE('',*,*,#413,.T.);
#587=ORIENTED_EDGE('',*,*,#416,.T.);
#588=ORIENTED_EDGE('',*,*,#455,.T.);
#589=ORIENTED_EDGE('',*,*,#452,.T.);
#590=ORIENTED_EDGE('',*,*,#449,.T.);
#591=ORIENTED_EDGE('',*,*,#446,.T.);
#592=ORIENTED_EDGE('',*,*,#443,.T.);
#593=ORIENTED_EDGE('',*,*,#440,.T.);
#594=ORIENTED_EDGE('',*,*,#437,.T.);
#595=ORIENTED_EDGE('',*,*,#434,.T.);
#596=ORIENTED_EDGE('',*,*,#431,.T.);
#597=ORIENTED_EDGE('',*,*,#428,.T.);
#598=ORIENTED_EDGE('',*,*,#425,.T.);
#599=ORIENTED_EDGE('',*,*,#457,.F.);
#600=ORIENTED_EDGE('',*,*,#447,.F.);
#601=ORIENTED_EDGE('',*,*,#451,.F.);
#602=ORIENTED_EDGE('',*,*,#454,.F.);
#603=ORIENTED_EDGE('',*,*,#445,.F.);
#604=ORIENTED_EDGE('',*,*,#435,.F.);
#605=ORIENTED_EDGE('',*,*,#439,.F.);
#606=ORIENTED_EDGE('',*,*,#442,.F.);
#607=ORIENTED_EDGE('',*,*,#433,.F.);
#608=ORIENTED_EDGE('',*,*,#423,.F.);
#609=ORIENTED_EDGE('',*,*,#427,.F.);
#610=ORIENTED_EDGE('',*,*,#430,.F.);
#611=ORIENTED_EDGE('',*,*,#458,.F.);
#612=ORIENTED_EDGE('',*,*,#459,.T.);
#613=ORIENTED_EDGE('',*,*,#460,.T.);
#614=ORIENTED_EDGE('',*,*,#459,.F.);
#615=ORIENTED_EDGE('',*,*,#460,.F.);
#616=ORIENTED_EDGE('',*,*,#461,.F.);
#617=ORIENTED_EDGE('',*,*,#462,.T.);
#618=ORIENTED_EDGE('',*,*,#463,.T.);
#619=ORIENTED_EDGE('',*,*,#462,.F.);
#620=ORIENTED_EDGE('',*,*,#463,.F.);
#621=ORIENTED_EDGE('',*,*,#464,.F.);
#622=ORIENTED_EDGE('',*,*,#465,.T.);
#623=ORIENTED_EDGE('',*,*,#466,.T.);
#624=ORIENTED_EDGE('',*,*,#465,.F.);
#625=ORIENTED_EDGE('',*,*,#466,.F.);
#626=ORIENTED_EDGE('',*,*,#467,.F.);
#627=ORIENTED_EDGE('',*,*,#468,.T.);
#628=ORIENTED_EDGE('',*,*,#469,.F.);
#629=ORIENTED_EDGE('',*,*,#470,.F.);
#630=ORIENTED_EDGE('',*,*,#471,.T.);
#631=ORIENTED_EDGE('',*,*,#469,.T.);
#632=ORIENTED_EDGE('',*,*,#472,.T.);
#633=ORIENTED_EDGE('',*,*,#473,.T.);
#634=ORIENTED_EDGE('',*,*,#467,.T.);
#635=ORIENTED_EDGE('',*,*,#474,.T.);
#636=ORIENTED_EDGE('',*,*,#475,.T.);
#637=ORIENTED_EDGE('',*,*,#476,.T.);
#638=ORIENTED_EDGE('',*,*,#477,.T.);
#639=ORIENTED_EDGE('',*,*,#478,.T.);
#640=ORIENTED_EDGE('',*,*,#479,.T.);
#641=ORIENTED_EDGE('',*,*,#480,.T.);
#642=ORIENTED_EDGE('',*,*,#481,.T.);
#643=ORIENTED_EDGE('',*,*,#482,.T.);
#644=ORIENTED_EDGE('',*,*,#483,.T.);
#645=ORIENTED_EDGE('',*,*,#484,.T.);
#646=ORIENTED_EDGE('',*,*,#485,.T.);
#647=ORIENTED_EDGE('',*,*,#486,.T.);
#648=ORIENTED_EDGE('',*,*,#480,.F.);
#649=ORIENTED_EDGE('',*,*,#487,.F.);
#650=ORIENTED_EDGE('',*,*,#488,.T.);
#651=ORIENTED_EDGE('',*,*,#487,.T.);
#652=ORIENTED_EDGE('',*,*,#479,.F.);
#653=ORIENTED_EDGE('',*,*,#489,.F.);
#654=ORIENTED_EDGE('',*,*,#490,.T.);
#655=ORIENTED_EDGE('',*,*,#489,.T.);
#656=ORIENTED_EDGE('',*,*,#478,.F.);
#657=ORIENTED_EDGE('',*,*,#491,.F.);
#658=ORIENTED_EDGE('',*,*,#492,.T.);
#659=ORIENTED_EDGE('',*,*,#491,.T.);
#660=ORIENTED_EDGE('',*,*,#477,.F.);
#661=ORIENTED_EDGE('',*,*,#486,.F.);
#662=ORIENTED_EDGE('',*,*,#493,.T.);
#663=ORIENTED_EDGE('',*,*,#494,.T.);
#664=ORIENTED_EDGE('',*,*,#484,.F.);
#665=ORIENTED_EDGE('',*,*,#495,.F.);
#666=ORIENTED_EDGE('',*,*,#496,.T.);
#667=ORIENTED_EDGE('',*,*,#495,.T.);
#668=ORIENTED_EDGE('',*,*,#483,.F.);
#669=ORIENTED_EDGE('',*,*,#497,.F.);
#670=ORIENTED_EDGE('',*,*,#498,.T.);
#671=ORIENTED_EDGE('',*,*,#497,.T.);
#672=ORIENTED_EDGE('',*,*,#482,.F.);
#673=ORIENTED_EDGE('',*,*,#499,.F.);
#674=ORIENTED_EDGE('',*,*,#500,.T.);
#675=ORIENTED_EDGE('',*,*,#499,.T.);
#676=ORIENTED_EDGE('',*,*,#481,.F.);
#677=ORIENTED_EDGE('',*,*,#494,.F.);
#678=ORIENTED_EDGE('',*,*,#501,.F.);
#679=ORIENTED_EDGE('',*,*,#502,.T.);
#680=ORIENTED_EDGE('',*,*,#473,.F.);
#681=ORIENTED_EDGE('',*,*,#503,.F.);
#682=ORIENTED_EDGE('',*,*,#458,.T.);
#683=ORIENTED_EDGE('',*,*,#461,.T.);
#684=ORIENTED_EDGE('',*,*,#464,.T.);
#685=ORIENTED_EDGE('',*,*,#504,.F.);
#686=ORIENTED_EDGE('',*,*,#503,.T.);
#687=ORIENTED_EDGE('',*,*,#472,.F.);
#688=ORIENTED_EDGE('',*,*,#468,.F.);
#689=ORIENTED_EDGE('',*,*,#476,.F.);
#690=ORIENTED_EDGE('',*,*,#505,.F.);
#691=ORIENTED_EDGE('',*,*,#506,.F.);
#692=ORIENTED_EDGE('',*,*,#505,.T.);
#693=ORIENTED_EDGE('',*,*,#475,.F.);
#694=ORIENTED_EDGE('',*,*,#507,.F.);
#695=ORIENTED_EDGE('',*,*,#508,.F.);
#696=ORIENTED_EDGE('',*,*,#507,.T.);
#697=ORIENTED_EDGE('',*,*,#474,.F.);
#698=ORIENTED_EDGE('',*,*,#470,.T.);
#699=ORIENTED_EDGE('',*,*,#471,.F.);
#700=ORIENTED_EDGE('',*,*,#502,.F.);
#701=ORIENTED_EDGE('',*,*,#508,.T.);
#702=ORIENTED_EDGE('',*,*,#501,.T.);
#703=ORIENTED_EDGE('',*,*,#504,.T.);
#704=ORIENTED_EDGE('',*,*,#506,.T.);
#705=ORIENTED_EDGE('',*,*,#500,.F.);
#706=ORIENTED_EDGE('',*,*,#493,.F.);
#707=ORIENTED_EDGE('',*,*,#496,.F.);
#708=ORIENTED_EDGE('',*,*,#498,.F.);
#709=ORIENTED_EDGE('',*,*,#492,.F.);
#710=ORIENTED_EDGE('',*,*,#485,.F.);
#711=ORIENTED_EDGE('',*,*,#488,.F.);
#712=ORIENTED_EDGE('',*,*,#490,.F.);
#713=CYLINDRICAL_SURFACE('',#786,3.);
#714=CYLINDRICAL_SURFACE('',#790,3.);
#715=CYLINDRICAL_SURFACE('',#794,3.);
#716=CYLINDRICAL_SURFACE('',#800,4.25);
#717=CYLINDRICAL_SURFACE('',#804,4.25);
#718=CYLINDRICAL_SURFACE('',#808,4.25);
#719=CYLINDRICAL_SURFACE('',#812,4.25);
#720=CYLINDRICAL_SURFACE('',#822,3.);
#721=CYLINDRICAL_SURFACE('',#826,3.);
#722=CYLINDRICAL_SURFACE('',#830,3.);
#723=CYLINDRICAL_SURFACE('',#842,4.25);
#724=CYLINDRICAL_SURFACE('',#845,4.25);
#725=CYLINDRICAL_SURFACE('',#848,4.25);
#726=CYLINDRICAL_SURFACE('',#851,4.25);
#727=ADVANCED_FACE('',(#61),#713,.F.);
#728=ADVANCED_FACE('',(#62),#31,.T.);
#729=ADVANCED_FACE('',(#63),#714,.F.);
#730=ADVANCED_FACE('',(#64),#32,.T.);
#731=ADVANCED_FACE('',(#65),#715,.F.);
#732=ADVANCED_FACE('',(#66),#33,.T.);
#733=ADVANCED_FACE('',(#67),#34,.T.);
#734=ADVANCED_FACE('',(#68),#35,.T.);
#735=ADVANCED_FACE('',(#69),#716,.F.);
#736=ADVANCED_FACE('',(#70),#36,.T.);
#737=ADVANCED_FACE('',(#71),#717,.F.);
#738=ADVANCED_FACE('',(#72),#37,.T.);
#739=ADVANCED_FACE('',(#73),#718,.F.);
#740=ADVANCED_FACE('',(#74),#38,.T.);
#741=ADVANCED_FACE('',(#75),#719,.F.);
#742=ADVANCED_FACE('',(#76),#39,.T.);
#743=ADVANCED_FACE('',(#77),#40,.T.);
#744=ADVANCED_FACE('',(#78),#41,.T.);
#745=ADVANCED_FACE('',(#79),#42,.T.);
#746=ADVANCED_FACE('',(#80,#17,#18,#19),#43,.T.);
#747=ADVANCED_FACE('',(#81,#20,#21),#44,.T.);
#748=ADVANCED_FACE('',(#82,#22,#23),#45,.F.);
#749=ADVANCED_FACE('',(#83),#720,.F.);
#750=ADVANCED_FACE('',(#84),#46,.F.);
#751=ADVANCED_FACE('',(#85),#721,.F.);
#752=ADVANCED_FACE('',(#86),#47,.F.);
#753=ADVANCED_FACE('',(#87),#722,.F.);
#754=ADVANCED_FACE('',(#88),#48,.F.);
#755=ADVANCED_FACE('',(#89),#49,.T.);
#756=ADVANCED_FACE('',(#90),#50,.T.);
#757=ADVANCED_FACE('',(#91,#24,#25),#51,.T.);
#758=ADVANCED_FACE('',(#92),#52,.T.);
#759=ADVANCED_FACE('',(#93),#723,.F.);
#760=ADVANCED_FACE('',(#94),#53,.T.);
#761=ADVANCED_FACE('',(#95),#724,.F.);
#762=ADVANCED_FACE('',(#96),#54,.T.);
#763=ADVANCED_FACE('',(#97),#725,.F.);
#764=ADVANCED_FACE('',(#98),#55,.T.);
#765=ADVANCED_FACE('',(#99),#726,.F.);
#766=ADVANCED_FACE('',(#100,#26,#27,#28),#56,.T.);
#767=ADVANCED_FACE('',(#101),#57,.T.);
#768=ADVANCED_FACE('',(#102),#58,.T.);
#769=ADVANCED_FACE('',(#103),#59,.T.);
#770=ADVANCED_FACE('',(#104,#29,#30),#60,.F.);
#771=CLOSED_SHELL('',(#727,#728,#729,#730,#731,#732,#733,#734,#735,#736,
#737,#738,#739,#740,#741,#742,#743,#744,#745,#746,#747,#748));
#772=CLOSED_SHELL('',(#749,#750,#751,#752,#753,#754,#755,#756,#757,#758,
#759,#760,#761,#762,#763,#764,#765,#766,#767,#768,#769,#770));
#773=DERIVED_UNIT_ELEMENT(#775,1.);
#774=DERIVED_UNIT_ELEMENT(#1298,-3.);
#775=(
MASS_UNIT()
NAMED_UNIT(*)
SI_UNIT(.KILO.,.GRAM.)
);
#776=DERIVED_UNIT((#773,#774));
#777=MEASURE_REPRESENTATION_ITEM('density measure',
POSITIVE_RATIO_MEASURE(7850.),#776);
#778=PROPERTY_DEFINITION_REPRESENTATION(#783,#780);
#779=PROPERTY_DEFINITION_REPRESENTATION(#784,#781);
#780=REPRESENTATION('material name',(#782),#1295);
#781=REPRESENTATION('density',(#777),#1295);
#782=DESCRIPTIVE_REPRESENTATION_ITEM('Steel','Steel');
#783=PROPERTY_DEFINITION('material property','material name',#1305);
#784=PROPERTY_DEFINITION('material property','density of part',#1305);
#785=AXIS2_PLACEMENT_3D('',#1078,#858,#859);
#786=AXIS2_PLACEMENT_3D('',#1079,#860,#861);
#787=AXIS2_PLACEMENT_3D('',#1081,#862,#863);
#788=AXIS2_PLACEMENT_3D('',#1084,#865,#866);
#789=AXIS2_PLACEMENT_3D('',#1085,#867,#868);
#790=AXIS2_PLACEMENT_3D('',#1086,#869,#870);
#791=AXIS2_PLACEMENT_3D('',#1088,#871,#872);
#792=AXIS2_PLACEMENT_3D('',#1091,#874,#875);
#793=AXIS2_PLACEMENT_3D('',#1092,#876,#877);
#794=AXIS2_PLACEMENT_3D('',#1093,#878,#879);
#795=AXIS2_PLACEMENT_3D('',#1095,#880,#881);
#796=AXIS2_PLACEMENT_3D('',#1098,#883,#884);
#797=AXIS2_PLACEMENT_3D('',#1099,#885,#886);
#798=AXIS2_PLACEMENT_3D('',#1100,#887,#888);
#799=AXIS2_PLACEMENT_3D('',#1109,#893,#894);
#800=AXIS2_PLACEMENT_3D('',#1115,#898,#899);
#801=AXIS2_PLACEMENT_3D('',#1118,#900,#901);
#802=AXIS2_PLACEMENT_3D('',#1122,#903,#904);
#803=AXIS2_PLACEMENT_3D('',#1124,#906,#907);
#804=AXIS2_PLACEMENT_3D('',#1130,#911,#912);
#805=AXIS2_PLACEMENT_3D('',#1132,#913,#914);
#806=AXIS2_PLACEMENT_3D('',#1134,#915,#916);
#807=AXIS2_PLACEMENT_3D('',#1136,#918,#919);
#808=AXIS2_PLACEMENT_3D('',#1139,#922,#923);
#809=AXIS2_PLACEMENT_3D('',#1142,#924,#925);
#810=AXIS2_PLACEMENT_3D('',#1146,#927,#928);
#811=AXIS2_PLACEMENT_3D('',#1148,#930,#931);
#812=AXIS2_PLACEMENT_3D('',#1154,#935,#936);
#813=AXIS2_PLACEMENT_3D('',#1156,#937,#938);
#814=AXIS2_PLACEMENT_3D('',#1158,#939,#940);
#815=AXIS2_PLACEMENT_3D('',#1160,#942,#943);
#816=AXIS2_PLACEMENT_3D('',#1163,#946,#947);
#817=AXIS2_PLACEMENT_3D('',#1171,#952,#953);
#818=AXIS2_PLACEMENT_3D('',#1177,#957,#958);
#819=AXIS2_PLACEMENT_3D('',#1182,#962,#963);
#820=AXIS2_PLACEMENT_3D('',#1184,#965,#966);
#821=AXIS2_PLACEMENT_3D('',#1185,#967,#968);
#822=AXIS2_PLACEMENT_3D('',#1186,#969,#970);
#823=AXIS2_PLACEMENT_3D('',#1188,#971,#972);
#824=AXIS2_PLACEMENT_3D('',#1191,#974,#975);
#825=AXIS2_PLACEMENT_3D('',#1192,#976,#977);
#826=AXIS2_PLACEMENT_3D('',#1193,#978,#979);
#827=AXIS2_PLACEMENT_3D('',#1195,#980,#981);
#828=AXIS2_PLACEMENT_3D('',#1198,#983,#984);
#829=AXIS2_PLACEMENT_3D('',#1199,#985,#986);
#830=AXIS2_PLACEMENT_3D('',#1200,#987,#988);
#831=AXIS2_PLACEMENT_3D('',#1202,#989,#990);
#832=AXIS2_PLACEMENT_3D('',#1205,#992,#993);
#833=AXIS2_PLACEMENT_3D('',#1206,#994,#995);
#834=AXIS2_PLACEMENT_3D('',#1207,#996,#997);
#835=AXIS2_PLACEMENT_3D('',#1216,#1002,#1003);
#836=AXIS2_PLACEMENT_3D('',#1222,#1007,#1008);
#837=AXIS2_PLACEMENT_3D('',#1230,#1012,#1013);
#838=AXIS2_PLACEMENT_3D('',#1234,#1015,#1016);
#839=AXIS2_PLACEMENT_3D('',#1238,#1018,#1019);
#840=AXIS2_PLACEMENT_3D('',#1242,#1021,#1022);
#841=AXIS2_PLACEMENT_3D('',#1244,#1024,#1025);
#842=AXIS2_PLACEMENT_3D('',#1250,#1029,#1030);
#843=AXIS2_PLACEMENT_3D('',#1252,#1031,#1032);
#844=AXIS2_PLACEMENT_3D('',#1254,#1034,#1035);
#845=AXIS2_PLACEMENT_3D('',#1258,#1038,#1039);
#846=AXIS2_PLACEMENT_3D('',#1259,#1040,#1041);
#847=AXIS2_PLACEMENT_3D('',#1260,#1042,#1043);
#848=AXIS2_PLACEMENT_3D('',#1266,#1047,#1048);
#849=AXIS2_PLACEMENT_3D('',#1268,#1049,#1050);
#850=AXIS2_PLACEMENT_3D('',#1270,#1052,#1053);
#851=AXIS2_PLACEMENT_3D('',#1274,#1056,#1057);
#852=AXIS2_PLACEMENT_3D('',#1275,#1058,#1059);
#853=AXIS2_PLACEMENT_3D('',#1276,#1060,#1061);
#854=AXIS2_PLACEMENT_3D('',#1282,#1065,#1066);
#855=AXIS2_PLACEMENT_3D('',#1286,#1069,#1070);
#856=AXIS2_PLACEMENT_3D('',#1290,#1073,#1074);
#857=AXIS2_PLACEMENT_3D('',#1292,#1076,#1077);
#858=DIRECTION('axis',(0.,0.,1.));
#859=DIRECTION('refdir',(1.,0.,0.));
#860=DIRECTION('center_axis',(-1.,0.,0.));
#861=DIRECTION('ref_axis',(0.,0.,-1.));
#862=DIRECTION('center_axis',(-1.,0.,0.));
#863=DIRECTION('ref_axis',(0.,0.,-1.));
#864=DIRECTION('',(-1.,0.,0.));
#865=DIRECTION('center_axis',(-1.,0.,0.));
#866=DIRECTION('ref_axis',(0.,0.,-1.));
#867=DIRECTION('center_axis',(1.,0.,0.));
#868=DIRECTION('ref_axis',(0.,0.,-1.));
#869=DIRECTION('center_axis',(-1.,0.,0.));
#870=DIRECTION('ref_axis',(0.,0.,-1.));
#871=DIRECTION('center_axis',(-1.,0.,0.));
#872=DIRECTION('ref_axis',(0.,0.,-1.));
#873=DIRECTION('',(-1.,0.,0.));
#874=DIRECTION('center_axis',(-1.,0.,0.));
#875=DIRECTION('ref_axis',(0.,0.,-1.));
#876=DIRECTION('center_axis',(1.,0.,0.));
#877=DIRECTION('ref_axis',(0.,0.,-1.));
#878=DIRECTION('center_axis',(-1.,0.,0.));
#879=DIRECTION('ref_axis',(0.,0.,-1.));
#880=DIRECTION('center_axis',(-1.,0.,0.));
#881=DIRECTION('ref_axis',(0.,0.,-1.));
#882=DIRECTION('',(-1.,0.,0.));
#883=DIRECTION('center_axis',(-1.,0.,0.));
#884=DIRECTION('ref_axis',(0.,0.,-1.));
#885=DIRECTION('center_axis',(1.,0.,0.));
#886=DIRECTION('ref_axis',(0.,0.,-1.));
#887=DIRECTION('center_axis',(-1.,0.,0.));
#888=DIRECTION('ref_axis',(0.,0.,1.));
#889=DIRECTION('',(0.,0.,-1.));
#890=DIRECTION('',(0.,1.,0.));
#891=DIRECTION('',(0.,0.,1.));
#892=DIRECTION('',(0.,1.,0.));
#893=DIRECTION('center_axis',(0.,1.,0.));
#894=DIRECTION('ref_axis',(0.,0.,1.));
#895=DIRECTION('',(0.,0.,-1.));
#896=DIRECTION('',(-1.,0.,0.));
#897=DIRECTION('',(1.,0.,0.));
#898=DIRECTION('center_axis',(0.,1.,0.));
#899=DIRECTION('ref_axis',(-1.,0.,-1.22464679914735E-16));
#900=DIRECTION('center_axis',(0.,-1.,0.));
#901=DIRECTION('ref_axis',(1.,0.,0.));
#902=DIRECTION('',(0.,1.,0.));
#903=DIRECTION('center_axis',(0.,-1.,0.));
#904=DIRECTION('ref_axis',(1.,0.,0.));
#905=DIRECTION('',(0.,1.,0.));
#906=DIRECTION('center_axis',(1.48029735881416E-16,0.,-1.));
#907=DIRECTION('ref_axis',(-1.,0.,-1.48029735881416E-16));
#908=DIRECTION('',(-1.,0.,-1.48029735881416E-16));
#909=DIRECTION('',(-1.,0.,-1.48029735881416E-16));
#910=DIRECTION('',(0.,1.,0.));
#911=DIRECTION('center_axis',(0.,1.,0.));
#912=DIRECTION('ref_axis',(1.,0.,0.));
#913=DIRECTION('center_axis',(0.,-1.,0.));
#914=DIRECTION('ref_axis',(1.,0.,0.));
#915=DIRECTION('center_axis',(0.,-1.,0.));
#916=DIRECTION('ref_axis',(1.,0.,0.));
#917=DIRECTION('',(0.,1.,0.));
#918=DIRECTION('center_axis',(-2.96059471762832E-16,0.,1.));
#919=DIRECTION('ref_axis',(1.,0.,2.96059471762832E-16));
#920=DIRECTION('',(1.,0.,2.96059471762832E-16));
#921=DIRECTION('',(1.,0.,2.96059471762832E-16));
#922=DIRECTION('center_axis',(0.,1.,0.));
#923=DIRECTION('ref_axis',(-1.,0.,-1.22464679914735E-16));
#924=DIRECTION('center_axis',(0.,-1.,0.));
#925=DIRECTION('ref_axis',(1.,0.,0.));
#926=DIRECTION('',(0.,1.,0.));
#927=DIRECTION('center_axis',(0.,-1.,0.));
#928=DIRECTION('ref_axis',(1.,0.,0.));
#929=DIRECTION('',(0.,1.,0.));
#930=DIRECTION('center_axis',(2.96059471762832E-16,0.,-1.));
#931=DIRECTION('ref_axis',(-1.,0.,-2.96059471762832E-16));
#932=DIRECTION('',(-1.,0.,-2.96059471762832E-16));
#933=DIRECTION('',(-1.,0.,-2.96059471762832E-16));
#934=DIRECTION('',(0.,1.,0.));
#935=DIRECTION('center_axis',(0.,1.,0.));
#936=DIRECTION('ref_axis',(1.,0.,0.));
#937=DIRECTION('center_axis',(0.,-1.,0.));
#938=DIRECTION('ref_axis',(1.,0.,0.));
#939=DIRECTION('center_axis',(0.,-1.,0.));
#940=DIRECTION('ref_axis',(1.,0.,0.));
#941=DIRECTION('',(0.,1.,0.));
#942=DIRECTION('center_axis',(-2.96059471762832E-16,0.,1.));
#943=DIRECTION('ref_axis',(1.,0.,2.96059471762832E-16));
#944=DIRECTION('',(1.,0.,2.96059471762832E-16));
#945=DIRECTION('',(1.,0.,2.96059471762832E-16));
#946=DIRECTION('center_axis',(0.,0.,1.));
#947=DIRECTION('ref_axis',(1.,0.,0.));
#948=DIRECTION('',(1.,0.,0.));
#949=DIRECTION('',(0.,1.,0.));
#950=DIRECTION('',(1.,0.,0.));
#951=DIRECTION('',(0.,1.,0.));
#952=DIRECTION('center_axis',(-1.,0.,0.));
#953=DIRECTION('ref_axis',(0.,0.,1.));
#954=DIRECTION('',(0.,0.,1.));
#955=DIRECTION('',(0.,0.,1.));
#956=DIRECTION('',(0.,1.,0.));
#957=DIRECTION('center_axis',(0.,0.,-1.));
#958=DIRECTION('ref_axis',(-1.,0.,0.));
#959=DIRECTION('',(-1.,0.,0.));
#960=DIRECTION('',(-1.,0.,0.));
#961=DIRECTION('',(0.,1.,0.));
#962=DIRECTION('center_axis',(1.,0.,0.));
#963=DIRECTION('ref_axis',(0.,0.,-1.));
#964=DIRECTION('',(0.,0.,-1.));
#965=DIRECTION('center_axis',(0.,1.,0.));
#966=DIRECTION('ref_axis',(1.,0.,0.));
#967=DIRECTION('center_axis',(0.,1.,0.));
#968=DIRECTION('ref_axis',(1.,0.,0.));
#969=DIRECTION('center_axis',(1.,0.,0.));
#970=DIRECTION('ref_axis',(0.,0.,-1.));
#971=DIRECTION('center_axis',(1.,0.,0.));
#972=DIRECTION('ref_axis',(0.,0.,-1.));
#973=DIRECTION('',(1.,0.,0.));
#974=DIRECTION('center_axis',(1.,0.,0.));
#975=DIRECTION('ref_axis',(0.,0.,-1.));
#976=DIRECTION('center_axis',(1.,0.,0.));
#977=DIRECTION('ref_axis',(0.,0.,-1.));
#978=DIRECTION('center_axis',(1.,0.,0.));
#979=DIRECTION('ref_axis',(0.,0.,-1.));
#980=DIRECTION('center_axis',(1.,0.,0.));
#981=DIRECTION('ref_axis',(0.,0.,-1.));
#982=DIRECTION('',(1.,0.,0.));
#983=DIRECTION('center_axis',(1.,0.,0.));
#984=DIRECTION('ref_axis',(0.,0.,-1.));
#985=DIRECTION('center_axis',(1.,0.,0.));
#986=DIRECTION('ref_axis',(0.,0.,-1.));
#987=DIRECTION('center_axis',(1.,0.,0.));
#988=DIRECTION('ref_axis',(0.,0.,-1.));
#989=DIRECTION('center_axis',(1.,0.,0.));
#990=DIRECTION('ref_axis',(0.,0.,-1.));
#991=DIRECTION('',(1.,0.,0.));
#992=DIRECTION('center_axis',(1.,0.,0.));
#993=DIRECTION('ref_axis',(0.,0.,-1.));
#994=DIRECTION('center_axis',(1.,0.,0.));
#995=DIRECTION('ref_axis',(0.,0.,-1.));
#996=DIRECTION('center_axis',(1.,0.,0.));
#997=DIRECTION('ref_axis',(0.,0.,-1.));
#998=DIRECTION('',(0.,0.,1.));
#999=DIRECTION('',(0.,1.,0.));
#1000=DIRECTION('',(0.,0.,-1.));
#1001=DIRECTION('',(0.,1.,0.));
#1002=DIRECTION('center_axis',(0.,1.,0.));
#1003=DIRECTION('ref_axis',(0.,0.,1.));
#1004=DIRECTION('',(1.,0.,0.));
#1005=DIRECTION('',(-1.,0.,0.));
#1006=DIRECTION('',(0.,0.,1.));
#1007=DIRECTION('center_axis',(0.,1.,0.));
#1008=DIRECTION('ref_axis',(1.,0.,0.));
#1009=DIRECTION('',(1.,0.,0.));
#1010=DIRECTION('',(0.,0.,-1.));
#1011=DIRECTION('',(-1.,0.,0.));
#1012=DIRECTION('center_axis',(0.,-1.,0.));
#1013=DIRECTION('ref_axis',(1.,0.,0.));
#1014=DIRECTION('',(1.,0.,0.));
#1015=DIRECTION('center_axis',(0.,-1.,0.));
#1016=DIRECTION('ref_axis',(1.,0.,0.));
#1017=DIRECTION('',(-1.,0.,0.));
#1018=DIRECTION('center_axis',(0.,-1.,0.));
#1019=DIRECTION('ref_axis',(1.,0.,0.));
#1020=DIRECTION('',(1.,0.,0.));
#1021=DIRECTION('center_axis',(0.,-1.,0.));
#1022=DIRECTION('ref_axis',(1.,0.,0.));
#1023=DIRECTION('',(-1.,0.,0.));
#1024=DIRECTION('center_axis',(0.,0.,-1.));
#1025=DIRECTION('ref_axis',(-1.,0.,0.));
#1026=DIRECTION('',(-1.,0.,0.));
#1027=DIRECTION('',(0.,1.,0.));
#1028=DIRECTION('',(0.,1.,0.));
#1029=DIRECTION('center_axis',(0.,1.,0.));
#1030=DIRECTION('ref_axis',(1.,0.,0.));
#1031=DIRECTION('center_axis',(0.,-1.,0.));
#1032=DIRECTION('ref_axis',(1.,0.,0.));
#1033=DIRECTION('',(0.,1.,0.));
#1034=DIRECTION('center_axis',(0.,0.,1.));
#1035=DIRECTION('ref_axis',(1.,0.,0.));
#1036=DIRECTION('',(1.,0.,0.));
#1037=DIRECTION('',(0.,1.,0.));
#1038=DIRECTION('center_axis',(0.,1.,0.));
#1039=DIRECTION('ref_axis',(-1.,0.,-1.22464679914735E-16));
#1040=DIRECTION('center_axis',(0.,-1.,0.));
#1041=DIRECTION('ref_axis',(1.,0.,0.));
#1042=DIRECTION('center_axis',(0.,0.,-1.));
#1043=DIRECTION('ref_axis',(-1.,0.,0.));
#1044=DIRECTION('',(-1.,0.,0.));
#1045=DIRECTION('',(0.,1.,0.));
#1046=DIRECTION('',(0.,1.,0.));
#1047=DIRECTION('center_axis',(0.,1.,0.));
#1048=DIRECTION('ref_axis',(1.,0.,0.));
#1049=DIRECTION('center_axis',(0.,-1.,0.));
#1050=DIRECTION('ref_axis',(1.,0.,0.));
#1051=DIRECTION('',(0.,1.,0.));
#1052=DIRECTION('center_axis',(0.,0.,1.));
#1053=DIRECTION('ref_axis',(1.,0.,0.));
#1054=DIRECTION('',(1.,0.,0.));
#1055=DIRECTION('',(0.,1.,0.));
#1056=DIRECTION('center_axis',(0.,1.,0.));
#1057=DIRECTION('ref_axis',(-1.,0.,-1.22464679914735E-16));
#1058=DIRECTION('center_axis',(0.,-1.,0.));
#1059=DIRECTION('ref_axis',(1.,0.,0.));
#1060=DIRECTION('center_axis',(-1.,0.,0.));
#1061=DIRECTION('ref_axis',(0.,0.,1.));
#1062=DIRECTION('',(0.,0.,-1.));
#1063=DIRECTION('',(0.,1.,0.));
#1064=DIRECTION('',(0.,1.,0.));
#1065=DIRECTION('center_axis',(0.,0.,-1.));
#1066=DIRECTION('ref_axis',(-1.,0.,0.));
#1067=DIRECTION('',(1.,0.,0.));
#1068=DIRECTION('',(0.,1.,0.));
#1069=DIRECTION('center_axis',(1.,0.,0.));
#1070=DIRECTION('ref_axis',(0.,0.,-1.));
#1071=DIRECTION('',(0.,0.,1.));
#1072=DIRECTION('',(0.,1.,0.));
#1073=DIRECTION('center_axis',(0.,0.,1.));
#1074=DIRECTION('ref_axis',(1.,0.,0.));
#1075=DIRECTION('',(-1.,0.,0.));
#1076=DIRECTION('center_axis',(0.,1.,0.));
#1077=DIRECTION('ref_axis',(1.,0.,0.));
#1078=CARTESIAN_POINT('',(0.,0.,0.));
#1079=CARTESIAN_POINT('Origin',(20.,9.00000013411045,20.0000002980232));
#1080=CARTESIAN_POINT('',(20.,9.00000013411045,23.0000002980232));
#1081=CARTESIAN_POINT('Origin',(20.,9.00000013411045,20.0000002980232));
#1082=CARTESIAN_POINT('',(16.,9.00000013411045,23.0000002980232));
#1083=CARTESIAN_POINT('',(20.,9.00000013411045,23.0000002980232));
#1084=CARTESIAN_POINT('Origin',(16.,9.00000013411045,20.0000002980232));
#1085=CARTESIAN_POINT('Origin',(16.,9.00000013411045,20.0000002980232));
#1086=CARTESIAN_POINT('Origin',(20.,5.00000007450581,0.));
#1087=CARTESIAN_POINT('',(20.,5.00000007450581,3.));
#1088=CARTESIAN_POINT('Origin',(20.,5.00000007450581,0.));
#1089=CARTESIAN_POINT('',(16.,5.00000007450581,3.));
#1090=CARTESIAN_POINT('',(20.,5.00000007450581,3.));
#1091=CARTESIAN_POINT('Origin',(16.,5.00000007450581,0.));
#1092=CARTESIAN_POINT('Origin',(16.,5.00000007450581,0.));
#1093=CARTESIAN_POINT('Origin',(20.,9.00000013411045,-20.0000002980232));
#1094=CARTESIAN_POINT('',(20.,9.00000013411045,-17.0000002980232));
#1095=CARTESIAN_POINT('Origin',(20.,9.00000013411045,-20.0000002980232));
#1096=CARTESIAN_POINT('',(16.,9.00000013411045,-17.0000002980232));
#1097=CARTESIAN_POINT('',(20.,9.00000013411045,-17.0000002980232));
#1098=CARTESIAN_POINT('Origin',(16.,9.00000013411045,-20.0000002980232));
#1099=CARTESIAN_POINT('Origin',(16.,9.00000013411045,-20.0000002980232));
#1100=CARTESIAN_POINT('Origin',(13.,5.,-30.));
#1101=CARTESIAN_POINT('',(13.,5.,30.));
#1102=CARTESIAN_POINT('',(13.,5.,-30.));
#1103=CARTESIAN_POINT('',(13.,5.,-15.));
#1104=CARTESIAN_POINT('',(13.,13.,30.));
#1105=CARTESIAN_POINT('',(13.,5.,30.));
#1106=CARTESIAN_POINT('',(13.,13.,-30.));
#1107=CARTESIAN_POINT('',(13.,13.,-30.));
#1108=CARTESIAN_POINT('',(13.,5.,-30.));
#1109=CARTESIAN_POINT('Origin',(16.5,13.,0.));
#1110=CARTESIAN_POINT('',(20.,13.,30.));
#1111=CARTESIAN_POINT('',(20.,13.,-30.));
#1112=CARTESIAN_POINT('',(20.,13.,30.));
#1113=CARTESIAN_POINT('',(20.,13.,-30.));
#1114=CARTESIAN_POINT('',(13.,13.,30.));
#1115=CARTESIAN_POINT('Origin',(-10.,0.,-20.));
#1116=CARTESIAN_POINT('',(-10.,0.,-15.75));
#1117=CARTESIAN_POINT('',(-10.,0.,-24.25));
#1118=CARTESIAN_POINT('Origin',(-10.,0.,-20.));
#1119=CARTESIAN_POINT('',(-10.,5.,-24.25));
#1120=CARTESIAN_POINT('',(-10.,0.,-24.25));
#1121=CARTESIAN_POINT('',(-10.,5.,-15.75));
#1122=CARTESIAN_POINT('Origin',(-10.,5.,-20.));
#1123=CARTESIAN_POINT('',(-10.,0.,-15.75));
#1124=CARTESIAN_POINT('Origin',(5.00000007450581,0.,-15.75));
#1125=CARTESIAN_POINT('',(5.00000007450581,0.,-15.75));
#1126=CARTESIAN_POINT('',(-10.,0.,-15.75));
#1127=CARTESIAN_POINT('',(5.00000007450581,5.,-15.75));
#1128=CARTESIAN_POINT('',(-10.,5.,-15.75));
#1129=CARTESIAN_POINT('',(5.00000007450581,0.,-15.75));
#1130=CARTESIAN_POINT('Origin',(5.,0.,-20.));
#1131=CARTESIAN_POINT('',(5.00000007450581,0.,-24.25));
#1132=CARTESIAN_POINT('Origin',(5.,0.,-20.));
#1133=CARTESIAN_POINT('',(5.00000007450581,5.,-24.25));
#1134=CARTESIAN_POINT('Origin',(5.,5.,-20.));
#1135=CARTESIAN_POINT('',(5.00000007450581,0.,-24.25));
#1136=CARTESIAN_POINT('Origin',(-10.,0.,-24.25));
#1137=CARTESIAN_POINT('',(5.00000007450581,0.,-24.25));
#1138=CARTESIAN_POINT('',(5.00000007450581,5.,-24.25));
#1139=CARTESIAN_POINT('Origin',(-10.,0.,20.));
#1140=CARTESIAN_POINT('',(-10.,0.,24.25));
#1141=CARTESIAN_POINT('',(-10.,0.,15.75));
#1142=CARTESIAN_POINT('Origin',(-10.,0.,20.));
#1143=CARTESIAN_POINT('',(-10.,5.,15.75));
#1144=CARTESIAN_POINT('',(-10.,0.,15.75));
#1145=CARTESIAN_POINT('',(-10.,5.,24.25));
#1146=CARTESIAN_POINT('Origin',(-10.,5.,20.));
#1147=CARTESIAN_POINT('',(-10.,0.,24.25));
#1148=CARTESIAN_POINT('Origin',(5.00000007450581,0.,24.25));
#1149=CARTESIAN_POINT('',(5.00000007450581,0.,24.25));
#1150=CARTESIAN_POINT('',(-10.,0.,24.25));
#1151=CARTESIAN_POINT('',(5.00000007450581,5.,24.25));
#1152=CARTESIAN_POINT('',(-10.,5.,24.25));
#1153=CARTESIAN_POINT('',(5.00000007450581,0.,24.25));
#1154=CARTESIAN_POINT('Origin',(5.,0.,20.));
#1155=CARTESIAN_POINT('',(5.00000007450581,0.,15.75));
#1156=CARTESIAN_POINT('Origin',(5.,0.,20.));
#1157=CARTESIAN_POINT('',(5.00000007450581,5.,15.75));
#1158=CARTESIAN_POINT('Origin',(5.,5.,20.));
#1159=CARTESIAN_POINT('',(5.00000007450581,0.,15.75));
#1160=CARTESIAN_POINT('Origin',(-10.,0.,15.75));
#1161=CARTESIAN_POINT('',(5.00000007450581,0.,15.75));
#1162=CARTESIAN_POINT('',(5.00000007450581,5.,15.75));
#1163=CARTESIAN_POINT('Origin',(-20.,0.,30.));
#1164=CARTESIAN_POINT('',(-20.,0.,30.));
#1165=CARTESIAN_POINT('',(20.,0.,30.));
#1166=CARTESIAN_POINT('',(-20.,0.,30.));
#1167=CARTESIAN_POINT('',(20.,0.,30.));
#1168=CARTESIAN_POINT('',(-20.,5.,30.));
#1169=CARTESIAN_POINT('',(-20.,5.,30.));
#1170=CARTESIAN_POINT('',(-20.,0.,30.));
#1171=CARTESIAN_POINT('Origin',(-20.,0.,-30.));
#1172=CARTESIAN_POINT('',(-20.,0.,-30.));
#1173=CARTESIAN_POINT('',(-20.,0.,-30.));
#1174=CARTESIAN_POINT('',(-20.,5.,-30.));
#1175=CARTESIAN_POINT('',(-20.,5.,-30.));
#1176=CARTESIAN_POINT('',(-20.,0.,-30.));
#1177=CARTESIAN_POINT('Origin',(20.,0.,-30.));
#1178=CARTESIAN_POINT('',(20.,0.,-30.));
#1179=CARTESIAN_POINT('',(20.,0.,-30.));
#1180=CARTESIAN_POINT('',(20.,5.,-30.));
#1181=CARTESIAN_POINT('',(20.,0.,-30.));
#1182=CARTESIAN_POINT('Origin',(20.,0.,30.));
#1183=CARTESIAN_POINT('',(20.,0.,30.));
#1184=CARTESIAN_POINT('Origin',(0.,5.,0.));
#1185=CARTESIAN_POINT('Origin',(0.,0.,0.));
#1186=CARTESIAN_POINT('Origin',(20.,9.00000013411045,20.0000002980232));
#1187=CARTESIAN_POINT('',(30.0000004470348,9.00000013411045,23.0000002980232));
#1188=CARTESIAN_POINT('Origin',(30.0000004470348,9.00000013411045,20.0000002980232));
#1189=CARTESIAN_POINT('',(34.,9.00000013411045,23.0000002980232));
#1190=CARTESIAN_POINT('',(20.,9.00000013411045,23.0000002980232));
#1191=CARTESIAN_POINT('Origin',(34.,9.00000013411045,20.0000002980232));
#1192=CARTESIAN_POINT('Origin',(34.,9.00000013411045,20.0000002980232));
#1193=CARTESIAN_POINT('Origin',(20.,5.00000007450581,0.));
#1194=CARTESIAN_POINT('',(30.0000004470348,5.00000007450581,3.));
#1195=CARTESIAN_POINT('Origin',(30.0000004470348,5.00000007450581,0.));
#1196=CARTESIAN_POINT('',(34.,5.00000007450581,3.));
#1197=CARTESIAN_POINT('',(20.,5.00000007450581,3.));
#1198=CARTESIAN_POINT('Origin',(34.,5.00000007450581,0.));
#1199=CARTESIAN_POINT('Origin',(34.,5.00000007450581,0.));
#1200=CARTESIAN_POINT('Origin',(20.,9.00000013411045,-20.0000002980232));
#1201=CARTESIAN_POINT('',(30.0000004470348,9.00000013411045,-17.0000002980232));
#1202=CARTESIAN_POINT('Origin',(30.0000004470348,9.00000013411045,-20.0000002980232));
#1203=CARTESIAN_POINT('',(34.,9.00000013411045,-17.0000002980232));
#1204=CARTESIAN_POINT('',(20.,9.00000013411045,-17.0000002980232));
#1205=CARTESIAN_POINT('Origin',(34.,9.00000013411045,-20.0000002980232));
#1206=CARTESIAN_POINT('Origin',(34.,9.00000013411045,-20.0000002980232));
#1207=CARTESIAN_POINT('Origin',(37.000000551343,5.,30.0000004470348));
#1208=CARTESIAN_POINT('',(37.000000551343,5.,-30.0000004470348));
#1209=CARTESIAN_POINT('',(37.000000551343,5.,30.0000004470348));
#1210=CARTESIAN_POINT('',(37.000000551343,5.,15.0000002235174));
#1211=CARTESIAN_POINT('',(37.000000551343,13.,-30.0000004470348));
#1212=CARTESIAN_POINT('',(37.000000551343,5.,-30.0000004470348));
#1213=CARTESIAN_POINT('',(37.000000551343,13.,30.0000004470348));
#1214=CARTESIAN_POINT('',(37.000000551343,13.,-30.0000004470348));
#1215=CARTESIAN_POINT('',(37.000000551343,5.,30.0000004470348));
#1216=CARTESIAN_POINT('Origin',(33.5000004991889,13.,0.));
#1217=CARTESIAN_POINT('',(30.0000004470348,13.,30.0000004470348));
#1218=CARTESIAN_POINT('',(37.000000551343,13.,30.0000004470348));
#1219=CARTESIAN_POINT('',(30.0000004470348,13.,-30.0000004470348));
#1220=CARTESIAN_POINT('',(30.0000004470348,13.,-30.0000004470348));
#1221=CARTESIAN_POINT('',(30.0000004470348,13.,30.0000004470348));
#1222=CARTESIAN_POINT('Origin',(45.0000006705523,5.,0.));
#1223=CARTESIAN_POINT('',(60.0000008940697,5.,30.0000004470348));
#1224=CARTESIAN_POINT('',(60.0000008940697,5.,30.0000004470348));
#1225=CARTESIAN_POINT('',(60.0000008940697,5.,-30.0000004470348));
#1226=CARTESIAN_POINT('',(60.0000008940697,5.,-30.0000004470348));
#1227=CARTESIAN_POINT('',(30.0000004470348,5.,-30.0000004470348));
#1228=CARTESIAN_POINT('',(43.0000006705523,5.,24.2500002980232));
#1229=CARTESIAN_POINT('',(43.0000006705523,5.,15.7500002980232));
#1230=CARTESIAN_POINT('Origin',(43.0000006705523,5.,20.0000002980232));
#1231=CARTESIAN_POINT('',(52.0000007748604,5.,15.7500002980232));
#1232=CARTESIAN_POINT('',(43.0000006705523,5.,15.7500002980232));
#1233=CARTESIAN_POINT('',(52.0000007748604,5.,24.2500002980232));
#1234=CARTESIAN_POINT('Origin',(52.0000007748604,5.,20.0000002980232));
#1235=CARTESIAN_POINT('',(52.0000007748604,5.,24.2500002980232));
#1236=CARTESIAN_POINT('',(43.0000006705523,5.,-15.7500002980232));
#1237=CARTESIAN_POINT('',(43.0000006705523,5.,-24.2500002980232));
#1238=CARTESIAN_POINT('Origin',(43.0000006705523,5.,-20.0000002980232));
#1239=CARTESIAN_POINT('',(52.0000007748604,5.,-24.2500002980232));
#1240=CARTESIAN_POINT('',(43.0000006705523,5.,-24.2500002980232));
#1241=CARTESIAN_POINT('',(52.0000007748604,5.,-15.7500002980232));
#1242=CARTESIAN_POINT('Origin',(52.0000007748604,5.,-20.0000002980232));
#1243=CARTESIAN_POINT('',(52.0000007748604,5.,-15.7500002980232));
#1244=CARTESIAN_POINT('Origin',(52.0000007748604,0.,24.2500002980232));
#1245=CARTESIAN_POINT('',(52.0000007748604,0.,24.2500002980232));
#1246=CARTESIAN_POINT('',(43.0000006705523,0.,24.2500002980232));
#1247=CARTESIAN_POINT('',(52.0000007748604,0.,24.2500002980232));
#1248=CARTESIAN_POINT('',(43.0000006705523,0.,24.2500002980232));
#1249=CARTESIAN_POINT('',(52.0000007748604,0.,24.2500002980232));
#1250=CARTESIAN_POINT('Origin',(52.0000007748604,0.,20.0000002980232));
#1251=CARTESIAN_POINT('',(52.0000007748604,0.,15.7500002980232));
#1252=CARTESIAN_POINT('Origin',(52.0000007748604,0.,20.0000002980232));
#1253=CARTESIAN_POINT('',(52.0000007748604,0.,15.7500002980232));
#1254=CARTESIAN_POINT('Origin',(43.0000006705523,0.,15.7500002980232));
#1255=CARTESIAN_POINT('',(43.0000006705523,0.,15.7500002980232));
#1256=CARTESIAN_POINT('',(43.0000006705523,0.,15.7500002980232));
#1257=CARTESIAN_POINT('',(43.0000006705523,0.,15.7500002980232));
#1258=CARTESIAN_POINT('Origin',(43.0000006705523,0.,20.0000002980232));
#1259=CARTESIAN_POINT('Origin',(43.0000006705523,0.,20.0000002980232));
#1260=CARTESIAN_POINT('Origin',(52.0000007748604,0.,-15.7500002980232));
#1261=CARTESIAN_POINT('',(52.0000007748604,0.,-15.7500002980232));
#1262=CARTESIAN_POINT('',(43.0000006705523,0.,-15.7500002980232));
#1263=CARTESIAN_POINT('',(52.0000007748604,0.,-15.7500002980232));
#1264=CARTESIAN_POINT('',(43.0000006705523,0.,-15.7500002980232));
#1265=CARTESIAN_POINT('',(52.0000007748604,0.,-15.7500002980232));
#1266=CARTESIAN_POINT('Origin',(52.0000007748604,0.,-20.0000002980232));
#1267=CARTESIAN_POINT('',(52.0000007748604,0.,-24.2500002980232));
#1268=CARTESIAN_POINT('Origin',(52.0000007748604,0.,-20.0000002980232));
#1269=CARTESIAN_POINT('',(52.0000007748604,0.,-24.2500002980232));
#1270=CARTESIAN_POINT('Origin',(43.0000006705523,0.,-24.2500002980232));
#1271=CARTESIAN_POINT('',(43.0000006705523,0.,-24.2500002980232));
#1272=CARTESIAN_POINT('',(43.0000006705523,0.,-24.2500002980232));
#1273=CARTESIAN_POINT('',(43.0000006705523,0.,-24.2500002980232));
#1274=CARTESIAN_POINT('Origin',(43.0000006705523,0.,-20.0000002980232));
#1275=CARTESIAN_POINT('Origin',(43.0000006705523,0.,-20.0000002980232));
#1276=CARTESIAN_POINT('Origin',(30.0000004470348,0.,-30.0000004470348));
#1277=CARTESIAN_POINT('',(30.0000004470348,0.,30.0000004470348));
#1278=CARTESIAN_POINT('',(30.0000004470348,0.,-30.0000004470348));
#1279=CARTESIAN_POINT('',(30.0000004470348,0.,30.0000004470348));
#1280=CARTESIAN_POINT('',(30.0000004470348,0.,30.0000004470348));
#1281=CARTESIAN_POINT('',(30.0000004470348,0.,-30.0000004470348));
#1282=CARTESIAN_POINT('Origin',(60.0000008940697,0.,-30.0000004470348));
#1283=CARTESIAN_POINT('',(60.0000008940697,0.,-30.0000004470348));
#1284=CARTESIAN_POINT('',(30.0000004470348,0.,-30.0000004470348));
#1285=CARTESIAN_POINT('',(60.0000008940697,0.,-30.0000004470348));
#1286=CARTESIAN_POINT('Origin',(60.0000008940697,0.,30.0000004470348));
#1287=CARTESIAN_POINT('',(60.0000008940697,0.,30.0000004470348));
#1288=CARTESIAN_POINT('',(60.0000008940697,0.,-30.0000004470348));
#1289=CARTESIAN_POINT('',(60.0000008940697,0.,30.0000004470348));
#1290=CARTESIAN_POINT('Origin',(30.0000004470348,0.,30.0000004470348));
#1291=CARTESIAN_POINT('',(60.0000008940697,0.,30.0000004470348));
#1292=CARTESIAN_POINT('Origin',(45.0000006705523,0.,0.));
#1293=UNCERTAINTY_MEASURE_WITH_UNIT(LENGTH_MEASURE(0.01),#1297,
'DISTANCE_ACCURACY_VALUE',
'Maximum model space distance between geometric entities at asserted c
onnectivities');
#1294=UNCERTAINTY_MEASURE_WITH_UNIT(LENGTH_MEASURE(0.01),#1297,
'DISTANCE_ACCURACY_VALUE',
'Maximum model space distance between geometric entities at asserted c
onnectivities');
#1295=(
GEOMETRIC_REPRESENTATION_CONTEXT(3)
GLOBAL_UNCERTAINTY_ASSIGNED_CONTEXT((#1293))
GLOBAL_UNIT_ASSIGNED_CONTEXT((#1297,#1299,#1300))
REPRESENTATION_CONTEXT('','3D')
);
#1296=(
GEOMETRIC_REPRESENTATION_CONTEXT(3)
GLOBAL_UNCERTAINTY_ASSIGNED_CONTEXT((#1294))
GLOBAL_UNIT_ASSIGNED_CONTEXT((#1297,#1299,#1300))
REPRESENTATION_CONTEXT('','3D')
);
#1297=(
LENGTH_UNIT()
NAMED_UNIT(*)
SI_UNIT(.MILLI.,.METRE.)
);
#1298=(
LENGTH_UNIT()
NAMED_UNIT(*)
SI_UNIT($,.METRE.)
);
#1299=(
NAMED_UNIT(*)
PLANE_ANGLE_UNIT()
SI_UNIT($,.RADIAN.)
);
#1300=(
NAMED_UNIT(*)
SI_UNIT($,.STERADIAN.)
SOLID_ANGLE_UNIT()
);
#1301=SHAPE_DEFINITION_REPRESENTATION(#1302,#1303);
#1302=PRODUCT_DEFINITION_SHAPE('',$,#1305);
#1303=SHAPE_REPRESENTATION('',(#785),#1295);
#1304=PRODUCT_DEFINITION_CONTEXT('part definition',#1309,'design');
#1305=PRODUCT_DEFINITION('Curtain Clamps','Curtain Clamps v2',#1306,#1304);
#1306=PRODUCT_DEFINITION_FORMATION('',$,#1311);
#1307=PRODUCT_RELATED_PRODUCT_CATEGORY('Curtain Clamps v2',
'Curtain Clamps v2',(#1311));
#1308=APPLICATION_PROTOCOL_DEFINITION('international standard',
'automotive_design',2009,#1309);
#1309=APPLICATION_CONTEXT(
'Core Data for Automotive Mechanical Design Process');
#1310=PRODUCT_CONTEXT('part definition',#1309,'mechanical');
#1311=PRODUCT('Curtain Clamps','Curtain Clamps v2',$,(#1310));
#1312=PRESENTATION_STYLE_ASSIGNMENT((#1313));
#1313=SURFACE_STYLE_USAGE(.BOTH.,#1314);
#1314=SURFACE_SIDE_STYLE('',(#1315));
#1315=SURFACE_STYLE_FILL_AREA(#1316);
#1316=FILL_AREA_STYLE('Steel - Satin',(#1317));
#1317=FILL_AREA_STYLE_COLOUR('Steel - Satin',#1318);
#1318=COLOUR_RGB('Steel - Satin',0.627450980392157,0.627450980392157,0.627450980392157);
ENDSEC;
END-ISO-10303-21;
