ISO-10303-21;
HEADER;
/* Generated by software containing ST-Developer
 * from STEP Tools, Inc. (www.steptools.com) 
 */

FILE_DESCRIPTION(
/* description */ (''),
/* implementation_level */ '2;1');

FILE_NAME(
/* name */ 'Flansch Endcap v3.step',
/* time_stamp */ '2024-06-25T15:15:54+02:00',
/* author */ (''),
/* organization */ (''),
/* preprocessor_version */ 'ST-DEVELOPER v20',
/* originating_system */ 'Autodesk Translation Framework v13.14.0.145',

/* authorisation */ '');

FILE_SCHEMA (('AUTOMOTIVE_DESIGN { 1 0 10303 214 3 1 1 }'));
ENDSEC;

DATA;
#10=MECHANICAL_DESIGN_GEOMETRIC_PRESENTATION_REPRESENTATION('',(#13),#628);
#11=SHAPE_REPRESENTATION_RELATIONSHIP('SRR','None',#634,#12);
#12=ADVANCED_BREP_SHAPE_REPRESENTATION('',(#14),#627);
#13=STYLED_ITEM('',(#643),#14);
#14=MANIFOLD_SOLID_BREP('Body2',#303);
#15=CONICAL_SURFACE('',#347,35.2785533905933,0.785398163397456);
#16=FACE_BOUND('',#86,.T.);
#17=B_SPLINE_CURVE_WITH_KNOTS('',3,(#480,#481,#482,#483,#484,#485,#486,
#487,#488,#489,#490,#491,#492,#493),.UNSPECIFIED.,.F.,.F.,(4,2,2,2,2,2,
4),(1.49045193001828,1.60014214518322,1.74026906472503,1.88039598426684,
2.02052290380865,2.16064982335046,2.2703400385154),.UNSPECIFIED.);
#18=B_SPLINE_CURVE_WITH_KNOTS('',3,(#501,#502,#503,#504,#505,#506,#507,
#508,#509,#510,#511,#512,#513,#514),.UNSPECIFIED.,.F.,.F.,(4,2,2,2,2,2,
4),(1.49045193001829,1.60014214518322,1.74026906472503,1.88039598426684,
2.02052290380865,2.16064982335046,2.1979264212463),.UNSPECIFIED.);
#19=B_SPLINE_CURVE_WITH_KNOTS('',3,(#517,#518,#519,#520),.UNSPECIFIED.,
 .F.,.F.,(4,4),(2.1979264212463,2.2703400385154),.UNSPECIFIED.);
#20=B_SPLINE_CURVE_WITH_KNOTS('',3,(#525,#526,#527,#528,#529,#530,#531,
#532,#533,#534,#535,#536,#537,#538),.UNSPECIFIED.,.F.,.F.,(4,2,2,2,2,2,
4),(1.49045193001828,1.60014214518322,1.74026906472503,1.88039598426684,
2.02052290380865,2.16064982335046,2.2703400385154),.UNSPECIFIED.);
#21=B_SPLINE_CURVE_WITH_KNOTS('',3,(#546,#547,#548,#549,#550,#551,#552,
#553,#554,#555,#556,#557,#558,#559),.UNSPECIFIED.,.F.,.F.,(4,2,2,2,2,2,
4),(1.49045193001828,1.60014214518322,1.74026906472503,1.88039598426684,
2.02052290380865,2.16064982335046,2.2703400385154),.UNSPECIFIED.);
#22=B_SPLINE_CURVE_WITH_KNOTS('',3,(#567,#568,#569,#570,#571,#572,#573,
#574),.UNSPECIFIED.,.F.,.F.,(4,2,2,4),(1.49045193001829,1.60014214518322,
1.74026906472503,1.88039598426684),.UNSPECIFIED.);
#23=B_SPLINE_CURVE_WITH_KNOTS('',3,(#580,#581,#582,#583,#584,#585,#586,
#587),.UNSPECIFIED.,.F.,.F.,(4,2,2,4),(1.88039598426684,2.02052290380865,
2.16064982335046,2.2703400385154),.UNSPECIFIED.);
#24=B_SPLINE_CURVE_WITH_KNOTS('',3,(#591,#592,#593,#594),.UNSPECIFIED.,
 .F.,.F.,(4,4),(1.49045193001828,1.56286554728738),.UNSPECIFIED.);
#25=B_SPLINE_CURVE_WITH_KNOTS('',3,(#597,#598,#599,#600,#601,#602,#603,
#604,#605,#606,#607,#608,#609,#610),.UNSPECIFIED.,.F.,.F.,(4,2,2,2,2,2,
4),(1.56286554728738,1.60014214518322,1.74026906472503,1.88039598426684,
2.02052290380865,2.16064982335046,2.2703400385154),.UNSPECIFIED.);
#26=LINE('',#456,#35);
#27=LINE('',#496,#36);
#28=LINE('',#521,#37);
#29=LINE('',#541,#38);
#30=LINE('',#562,#39);
#31=LINE('',#577,#40);
#32=LINE('',#611,#41);
#33=LINE('',#622,#42);
#34=LINE('',#624,#43);
#35=VECTOR('',#359,35.425);
#36=VECTOR('',#392,6.);
#37=VECTOR('',#399,6.);
#38=VECTOR('',#404,6.);
#39=VECTOR('',#411,6.);
#40=VECTOR('',#418,6.);
#41=VECTOR('',#425,6.);
#42=VECTOR('',#444,34.925);
#43=VECTOR('',#447,22.225);
#44=CYLINDRICAL_SURFACE('',#307,35.425);
#45=CYLINDRICAL_SURFACE('',#323,6.);
#46=CYLINDRICAL_SURFACE('',#326,6.);
#47=CYLINDRICAL_SURFACE('',#328,6.);
#48=CYLINDRICAL_SURFACE('',#331,6.);
#49=CYLINDRICAL_SURFACE('',#334,6.);
#50=CYLINDRICAL_SURFACE('',#337,6.);
#51=CYLINDRICAL_SURFACE('',#348,22.225);
#52=FACE_OUTER_BOUND('',#70,.T.);
#53=FACE_OUTER_BOUND('',#71,.T.);
#54=FACE_OUTER_BOUND('',#72,.T.);
#55=FACE_OUTER_BOUND('',#73,.T.);
#56=FACE_OUTER_BOUND('',#74,.T.);
#57=FACE_OUTER_BOUND('',#75,.T.);
#58=FACE_OUTER_BOUND('',#76,.T.);
#59=FACE_OUTER_BOUND('',#77,.T.);
#60=FACE_OUTER_BOUND('',#78,.T.);
#61=FACE_OUTER_BOUND('',#79,.T.);
#62=FACE_OUTER_BOUND('',#80,.T.);
#63=FACE_OUTER_BOUND('',#81,.T.);
#64=FACE_OUTER_BOUND('',#82,.T.);
#65=FACE_OUTER_BOUND('',#83,.T.);
#66=FACE_OUTER_BOUND('',#84,.T.);
#67=FACE_OUTER_BOUND('',#85,.T.);
#68=FACE_OUTER_BOUND('',#87,.T.);
#69=FACE_OUTER_BOUND('',#88,.T.);
#70=EDGE_LOOP('',(#188));
#71=EDGE_LOOP('',(#189,#190,#191,#192));
#72=EDGE_LOOP('',(#193));
#73=EDGE_LOOP('',(#194));
#74=EDGE_LOOP('',(#195));
#75=EDGE_LOOP('',(#196));
#76=EDGE_LOOP('',(#197));
#77=EDGE_LOOP('',(#198));
#78=EDGE_LOOP('',(#199));
#79=EDGE_LOOP('',(#200,#201,#202,#203,#204,#205));
#80=EDGE_LOOP('',(#206,#207,#208,#209,#210,#211));
#81=EDGE_LOOP('',(#212,#213,#214,#215,#216,#217));
#82=EDGE_LOOP('',(#218,#219,#220,#221,#222,#223));
#83=EDGE_LOOP('',(#224,#225,#226,#227,#228,#229,#230));
#84=EDGE_LOOP('',(#231,#232,#233,#234,#235,#236));
#85=EDGE_LOOP('',(#237,#238,#239,#240,#241,#242,#243,#244,#245,#246,#247,
#248,#249,#250,#251,#252));
#86=EDGE_LOOP('',(#253));
#87=EDGE_LOOP('',(#254,#255,#256,#257,#258,#259,#260,#261,#262,#263,#264,
#265,#266,#267,#268,#269,#270,#271));
#88=EDGE_LOOP('',(#272,#273,#274,#275));
#89=CIRCLE('',#306,22.225);
#90=CIRCLE('',#308,35.425);
#91=CIRCLE('',#309,35.425);
#92=CIRCLE('',#311,6.);
#93=CIRCLE('',#313,6.);
#94=CIRCLE('',#315,6.);
#95=CIRCLE('',#317,6.);
#96=CIRCLE('',#319,6.);
#97=CIRCLE('',#321,6.);
#98=CIRCLE('',#324,6.);
#99=CIRCLE('',#325,6.);
#100=CIRCLE('',#327,6.);
#101=CIRCLE('',#329,6.);
#102=CIRCLE('',#330,6.);
#103=CIRCLE('',#332,6.);
#104=CIRCLE('',#333,6.);
#105=CIRCLE('',#335,6.);
#106=CIRCLE('',#336,6.);
#107=CIRCLE('',#338,6.);
#108=CIRCLE('',#340,34.3701067811866);
#109=CIRCLE('',#341,34.3701067811866);
#110=CIRCLE('',#342,34.3701067811866);
#111=CIRCLE('',#343,34.3701067811866);
#112=CIRCLE('',#344,34.3701067811866);
#113=CIRCLE('',#345,34.3701067811866);
#114=CIRCLE('',#346,22.225);
#115=VERTEX_POINT('',#450);
#116=VERTEX_POINT('',#453);
#117=VERTEX_POINT('',#455);
#118=VERTEX_POINT('',#459);
#119=VERTEX_POINT('',#462);
#120=VERTEX_POINT('',#465);
#121=VERTEX_POINT('',#468);
#122=VERTEX_POINT('',#471);
#123=VERTEX_POINT('',#474);
#124=VERTEX_POINT('',#478);
#125=VERTEX_POINT('',#479);
#126=VERTEX_POINT('',#494);
#127=VERTEX_POINT('',#499);
#128=VERTEX_POINT('',#500);
#129=VERTEX_POINT('',#515);
#130=VERTEX_POINT('',#523);
#131=VERTEX_POINT('',#524);
#132=VERTEX_POINT('',#539);
#133=VERTEX_POINT('',#544);
#134=VERTEX_POINT('',#545);
#135=VERTEX_POINT('',#560);
#136=VERTEX_POINT('',#565);
#137=VERTEX_POINT('',#566);
#138=VERTEX_POINT('',#575);
#139=VERTEX_POINT('',#578);
#140=VERTEX_POINT('',#589);
#141=VERTEX_POINT('',#590);
#142=VERTEX_POINT('',#595);
#143=VERTEX_POINT('',#619);
#144=EDGE_CURVE('',#115,#115,#89,.T.);
#145=EDGE_CURVE('',#116,#116,#90,.T.);
#146=EDGE_CURVE('',#116,#117,#26,.T.);
#147=EDGE_CURVE('',#117,#117,#91,.T.);
#148=EDGE_CURVE('',#118,#118,#92,.T.);
#149=EDGE_CURVE('',#119,#119,#93,.T.);
#150=EDGE_CURVE('',#120,#120,#94,.T.);
#151=EDGE_CURVE('',#121,#121,#95,.T.);
#152=EDGE_CURVE('',#122,#122,#96,.T.);
#153=EDGE_CURVE('',#123,#123,#97,.T.);
#154=EDGE_CURVE('',#124,#125,#17,.T.);
#155=EDGE_CURVE('',#126,#124,#98,.T.);
#156=EDGE_CURVE('',#126,#123,#27,.T.);
#157=EDGE_CURVE('',#125,#126,#99,.T.);
#158=EDGE_CURVE('',#127,#128,#18,.T.);
#159=EDGE_CURVE('',#129,#127,#100,.T.);
#160=EDGE_CURVE('',#128,#129,#19,.T.);
#161=EDGE_CURVE('',#128,#122,#28,.T.);
#162=EDGE_CURVE('',#130,#131,#20,.T.);
#163=EDGE_CURVE('',#132,#130,#101,.T.);
#164=EDGE_CURVE('',#132,#121,#29,.T.);
#165=EDGE_CURVE('',#131,#132,#102,.T.);
#166=EDGE_CURVE('',#133,#134,#21,.T.);
#167=EDGE_CURVE('',#135,#133,#103,.T.);
#168=EDGE_CURVE('',#135,#120,#30,.T.);
#169=EDGE_CURVE('',#134,#135,#104,.T.);
#170=EDGE_CURVE('',#136,#137,#22,.T.);
#171=EDGE_CURVE('',#138,#136,#105,.T.);
#172=EDGE_CURVE('',#138,#119,#31,.T.);
#173=EDGE_CURVE('',#139,#138,#106,.T.);
#174=EDGE_CURVE('',#137,#139,#23,.T.);
#175=EDGE_CURVE('',#140,#141,#24,.T.);
#176=EDGE_CURVE('',#142,#140,#107,.T.);
#177=EDGE_CURVE('',#141,#142,#25,.T.);
#178=EDGE_CURVE('',#141,#118,#32,.T.);
#179=EDGE_CURVE('',#124,#131,#108,.T.);
#180=EDGE_CURVE('',#130,#142,#109,.T.);
#181=EDGE_CURVE('',#140,#129,#110,.T.);
#182=EDGE_CURVE('',#127,#139,#111,.T.);
#183=EDGE_CURVE('',#136,#134,#112,.T.);
#184=EDGE_CURVE('',#133,#125,#113,.T.);
#185=EDGE_CURVE('',#143,#143,#114,.T.);
#186=EDGE_CURVE('',#137,#116,#33,.T.);
#187=EDGE_CURVE('',#115,#143,#34,.T.);
#188=ORIENTED_EDGE('',*,*,#144,.F.);
#189=ORIENTED_EDGE('',*,*,#145,.F.);
#190=ORIENTED_EDGE('',*,*,#146,.T.);
#191=ORIENTED_EDGE('',*,*,#147,.F.);
#192=ORIENTED_EDGE('',*,*,#146,.F.);
#193=ORIENTED_EDGE('',*,*,#148,.F.);
#194=ORIENTED_EDGE('',*,*,#149,.F.);
#195=ORIENTED_EDGE('',*,*,#150,.F.);
#196=ORIENTED_EDGE('',*,*,#151,.F.);
#197=ORIENTED_EDGE('',*,*,#152,.F.);
#198=ORIENTED_EDGE('',*,*,#153,.F.);
#199=ORIENTED_EDGE('',*,*,#147,.T.);
#200=ORIENTED_EDGE('',*,*,#154,.F.);
#201=ORIENTED_EDGE('',*,*,#155,.F.);
#202=ORIENTED_EDGE('',*,*,#156,.T.);
#203=ORIENTED_EDGE('',*,*,#153,.T.);
#204=ORIENTED_EDGE('',*,*,#156,.F.);
#205=ORIENTED_EDGE('',*,*,#157,.F.);
#206=ORIENTED_EDGE('',*,*,#158,.F.);
#207=ORIENTED_EDGE('',*,*,#159,.F.);
#208=ORIENTED_EDGE('',*,*,#160,.F.);
#209=ORIENTED_EDGE('',*,*,#161,.T.);
#210=ORIENTED_EDGE('',*,*,#152,.T.);
#211=ORIENTED_EDGE('',*,*,#161,.F.);
#212=ORIENTED_EDGE('',*,*,#162,.F.);
#213=ORIENTED_EDGE('',*,*,#163,.F.);
#214=ORIENTED_EDGE('',*,*,#164,.T.);
#215=ORIENTED_EDGE('',*,*,#151,.T.);
#216=ORIENTED_EDGE('',*,*,#164,.F.);
#217=ORIENTED_EDGE('',*,*,#165,.F.);
#218=ORIENTED_EDGE('',*,*,#166,.F.);
#219=ORIENTED_EDGE('',*,*,#167,.F.);
#220=ORIENTED_EDGE('',*,*,#168,.T.);
#221=ORIENTED_EDGE('',*,*,#150,.T.);
#222=ORIENTED_EDGE('',*,*,#168,.F.);
#223=ORIENTED_EDGE('',*,*,#169,.F.);
#224=ORIENTED_EDGE('',*,*,#170,.F.);
#225=ORIENTED_EDGE('',*,*,#171,.F.);
#226=ORIENTED_EDGE('',*,*,#172,.T.);
#227=ORIENTED_EDGE('',*,*,#149,.T.);
#228=ORIENTED_EDGE('',*,*,#172,.F.);
#229=ORIENTED_EDGE('',*,*,#173,.F.);
#230=ORIENTED_EDGE('',*,*,#174,.F.);
#231=ORIENTED_EDGE('',*,*,#175,.F.);
#232=ORIENTED_EDGE('',*,*,#176,.F.);
#233=ORIENTED_EDGE('',*,*,#177,.F.);
#234=ORIENTED_EDGE('',*,*,#178,.T.);
#235=ORIENTED_EDGE('',*,*,#148,.T.);
#236=ORIENTED_EDGE('',*,*,#178,.F.);
#237=ORIENTED_EDGE('',*,*,#157,.T.);
#238=ORIENTED_EDGE('',*,*,#155,.T.);
#239=ORIENTED_EDGE('',*,*,#179,.T.);
#240=ORIENTED_EDGE('',*,*,#165,.T.);
#241=ORIENTED_EDGE('',*,*,#163,.T.);
#242=ORIENTED_EDGE('',*,*,#180,.T.);
#243=ORIENTED_EDGE('',*,*,#176,.T.);
#244=ORIENTED_EDGE('',*,*,#181,.T.);
#245=ORIENTED_EDGE('',*,*,#159,.T.);
#246=ORIENTED_EDGE('',*,*,#182,.T.);
#247=ORIENTED_EDGE('',*,*,#173,.T.);
#248=ORIENTED_EDGE('',*,*,#171,.T.);
#249=ORIENTED_EDGE('',*,*,#183,.T.);
#250=ORIENTED_EDGE('',*,*,#169,.T.);
#251=ORIENTED_EDGE('',*,*,#167,.T.);
#252=ORIENTED_EDGE('',*,*,#184,.T.);
#253=ORIENTED_EDGE('',*,*,#185,.F.);
#254=ORIENTED_EDGE('',*,*,#154,.T.);
#255=ORIENTED_EDGE('',*,*,#184,.F.);
#256=ORIENTED_EDGE('',*,*,#166,.T.);
#257=ORIENTED_EDGE('',*,*,#183,.F.);
#258=ORIENTED_EDGE('',*,*,#170,.T.);
#259=ORIENTED_EDGE('',*,*,#186,.T.);
#260=ORIENTED_EDGE('',*,*,#145,.T.);
#261=ORIENTED_EDGE('',*,*,#186,.F.);
#262=ORIENTED_EDGE('',*,*,#174,.T.);
#263=ORIENTED_EDGE('',*,*,#182,.F.);
#264=ORIENTED_EDGE('',*,*,#158,.T.);
#265=ORIENTED_EDGE('',*,*,#160,.T.);
#266=ORIENTED_EDGE('',*,*,#181,.F.);
#267=ORIENTED_EDGE('',*,*,#175,.T.);
#268=ORIENTED_EDGE('',*,*,#177,.T.);
#269=ORIENTED_EDGE('',*,*,#180,.F.);
#270=ORIENTED_EDGE('',*,*,#162,.T.);
#271=ORIENTED_EDGE('',*,*,#179,.F.);
#272=ORIENTED_EDGE('',*,*,#144,.T.);
#273=ORIENTED_EDGE('',*,*,#187,.T.);
#274=ORIENTED_EDGE('',*,*,#185,.T.);
#275=ORIENTED_EDGE('',*,*,#187,.F.);
#276=PLANE('',#305);
#277=PLANE('',#310);
#278=PLANE('',#312);
#279=PLANE('',#314);
#280=PLANE('',#316);
#281=PLANE('',#318);
#282=PLANE('',#320);
#283=PLANE('',#322);
#284=PLANE('',#339);
#285=ADVANCED_FACE('',(#52),#276,.F.);
#286=ADVANCED_FACE('',(#53),#44,.T.);
#287=ADVANCED_FACE('',(#54),#277,.F.);
#288=ADVANCED_FACE('',(#55),#278,.F.);
#289=ADVANCED_FACE('',(#56),#279,.F.);
#290=ADVANCED_FACE('',(#57),#280,.F.);
#291=ADVANCED_FACE('',(#58),#281,.F.);
#292=ADVANCED_FACE('',(#59),#282,.F.);
#293=ADVANCED_FACE('',(#60),#283,.T.);
#294=ADVANCED_FACE('',(#61),#45,.F.);
#295=ADVANCED_FACE('',(#62),#46,.F.);
#296=ADVANCED_FACE('',(#63),#47,.F.);
#297=ADVANCED_FACE('',(#64),#48,.F.);
#298=ADVANCED_FACE('',(#65),#49,.F.);
#299=ADVANCED_FACE('',(#66),#50,.F.);
#300=ADVANCED_FACE('',(#67,#16),#284,.F.);
#301=ADVANCED_FACE('',(#68),#15,.F.);
#302=ADVANCED_FACE('',(#69),#51,.F.);
#303=CLOSED_SHELL('',(#285,#286,#287,#288,#289,#290,#291,#292,#293,#294,
#295,#296,#297,#298,#299,#300,#301,#302));
#304=AXIS2_PLACEMENT_3D('',#448,#349,#350);
#305=AXIS2_PLACEMENT_3D('',#449,#351,#352);
#306=AXIS2_PLACEMENT_3D('',#451,#353,#354);
#307=AXIS2_PLACEMENT_3D('',#452,#355,#356);
#308=AXIS2_PLACEMENT_3D('',#454,#357,#358);
#309=AXIS2_PLACEMENT_3D('',#457,#360,#361);
#310=AXIS2_PLACEMENT_3D('',#458,#362,#363);
#311=AXIS2_PLACEMENT_3D('',#460,#364,#365);
#312=AXIS2_PLACEMENT_3D('',#461,#366,#367);
#313=AXIS2_PLACEMENT_3D('',#463,#368,#369);
#314=AXIS2_PLACEMENT_3D('',#464,#370,#371);
#315=AXIS2_PLACEMENT_3D('',#466,#372,#373);
#316=AXIS2_PLACEMENT_3D('',#467,#374,#375);
#317=AXIS2_PLACEMENT_3D('',#469,#376,#377);
#318=AXIS2_PLACEMENT_3D('',#470,#378,#379);
#319=AXIS2_PLACEMENT_3D('',#472,#380,#381);
#320=AXIS2_PLACEMENT_3D('',#473,#382,#383);
#321=AXIS2_PLACEMENT_3D('',#475,#384,#385);
#322=AXIS2_PLACEMENT_3D('',#476,#386,#387);
#323=AXIS2_PLACEMENT_3D('',#477,#388,#389);
#324=AXIS2_PLACEMENT_3D('',#495,#390,#391);
#325=AXIS2_PLACEMENT_3D('',#497,#393,#394);
#326=AXIS2_PLACEMENT_3D('',#498,#395,#396);
#327=AXIS2_PLACEMENT_3D('',#516,#397,#398);
#328=AXIS2_PLACEMENT_3D('',#522,#400,#401);
#329=AXIS2_PLACEMENT_3D('',#540,#402,#403);
#330=AXIS2_PLACEMENT_3D('',#542,#405,#406);
#331=AXIS2_PLACEMENT_3D('',#543,#407,#408);
#332=AXIS2_PLACEMENT_3D('',#561,#409,#410);
#333=AXIS2_PLACEMENT_3D('',#563,#412,#413);
#334=AXIS2_PLACEMENT_3D('',#564,#414,#415);
#335=AXIS2_PLACEMENT_3D('',#576,#416,#417);
#336=AXIS2_PLACEMENT_3D('',#579,#419,#420);
#337=AXIS2_PLACEMENT_3D('',#588,#421,#422);
#338=AXIS2_PLACEMENT_3D('',#596,#423,#424);
#339=AXIS2_PLACEMENT_3D('',#612,#426,#427);
#340=AXIS2_PLACEMENT_3D('',#613,#428,#429);
#341=AXIS2_PLACEMENT_3D('',#614,#430,#431);
#342=AXIS2_PLACEMENT_3D('',#615,#432,#433);
#343=AXIS2_PLACEMENT_3D('',#616,#434,#435);
#344=AXIS2_PLACEMENT_3D('',#617,#436,#437);
#345=AXIS2_PLACEMENT_3D('',#618,#438,#439);
#346=AXIS2_PLACEMENT_3D('',#620,#440,#441);
#347=AXIS2_PLACEMENT_3D('',#621,#442,#443);
#348=AXIS2_PLACEMENT_3D('',#623,#445,#446);
#349=DIRECTION('axis',(0.,0.,1.));
#350=DIRECTION('refdir',(1.,0.,0.));
#351=DIRECTION('center_axis',(0.,-1.80411241501588E-16,1.));
#352=DIRECTION('ref_axis',(-1.,0.,0.));
#353=DIRECTION('center_axis',(0.,-1.80411241501588E-16,1.));
#354=DIRECTION('ref_axis',(0.,-1.,-1.80411241501588E-16));
#355=DIRECTION('center_axis',(0.,-1.30614473485313E-16,1.));
#356=DIRECTION('ref_axis',(0.,1.,1.30614473485313E-16));
#357=DIRECTION('center_axis',(0.,1.80411241501588E-16,-1.));
#358=DIRECTION('ref_axis',(0.,1.,1.80411241501588E-16));
#359=DIRECTION('',(0.,-1.30614473485313E-16,1.));
#360=DIRECTION('center_axis',(0.,-1.80411241501588E-16,1.));
#361=DIRECTION('ref_axis',(0.,1.,1.30614473485313E-16));
#362=DIRECTION('center_axis',(0.,-1.80411241501588E-16,1.));
#363=DIRECTION('ref_axis',(-1.,0.,0.));
#364=DIRECTION('center_axis',(0.,-1.80411241501588E-16,1.));
#365=DIRECTION('ref_axis',(-1.,0.,0.));
#366=DIRECTION('center_axis',(0.,-1.80411241501588E-16,1.));
#367=DIRECTION('ref_axis',(-1.,0.,0.));
#368=DIRECTION('center_axis',(0.,-1.80411241501588E-16,1.));
#369=DIRECTION('ref_axis',(-1.,0.,0.));
#370=DIRECTION('center_axis',(0.,-1.80411241501588E-16,1.));
#371=DIRECTION('ref_axis',(-1.,0.,0.));
#372=DIRECTION('center_axis',(0.,-1.80411241501588E-16,1.));
#373=DIRECTION('ref_axis',(-1.,0.,0.));
#374=DIRECTION('center_axis',(0.,-1.80411241501588E-16,1.));
#375=DIRECTION('ref_axis',(-1.,0.,0.));
#376=DIRECTION('center_axis',(0.,-1.80411241501588E-16,1.));
#377=DIRECTION('ref_axis',(-1.,0.,0.));
#378=DIRECTION('center_axis',(0.,-1.80411241501588E-16,1.));
#379=DIRECTION('ref_axis',(-1.,0.,0.));
#380=DIRECTION('center_axis',(0.,-1.80411241501588E-16,1.));
#381=DIRECTION('ref_axis',(-1.,0.,0.));
#382=DIRECTION('center_axis',(0.,-1.80411241501588E-16,1.));
#383=DIRECTION('ref_axis',(-1.,0.,0.));
#384=DIRECTION('center_axis',(0.,-1.80411241501588E-16,1.));
#385=DIRECTION('ref_axis',(-1.,0.,0.));
#386=DIRECTION('center_axis',(0.,-1.80411241501588E-16,1.));
#387=DIRECTION('ref_axis',(0.,-1.,-1.80411241501588E-16));
#388=DIRECTION('center_axis',(0.,-2.22044604925031E-16,1.));
#389=DIRECTION('ref_axis',(-1.,0.,0.));
#390=DIRECTION('center_axis',(0.,-1.80411241501588E-16,1.));
#391=DIRECTION('ref_axis',(-1.,0.,0.));
#392=DIRECTION('',(0.,-2.22044604925031E-16,1.));
#393=DIRECTION('center_axis',(0.,-1.80411241501588E-16,1.));
#394=DIRECTION('ref_axis',(-1.,0.,0.));
#395=DIRECTION('center_axis',(0.,0.,1.));
#396=DIRECTION('ref_axis',(-1.,0.,0.));
#397=DIRECTION('center_axis',(0.,-1.80411241501588E-16,1.));
#398=DIRECTION('ref_axis',(-1.,0.,0.));
#399=DIRECTION('',(0.,0.,1.));
#400=DIRECTION('center_axis',(0.,0.,1.));
#401=DIRECTION('ref_axis',(-1.,0.,0.));
#402=DIRECTION('center_axis',(0.,-1.80411241501588E-16,1.));
#403=DIRECTION('ref_axis',(-1.,0.,0.));
#404=DIRECTION('',(0.,0.,1.));
#405=DIRECTION('center_axis',(0.,-1.80411241501588E-16,1.));
#406=DIRECTION('ref_axis',(-1.,0.,0.));
#407=DIRECTION('center_axis',(0.,0.,1.));
#408=DIRECTION('ref_axis',(-1.,0.,0.));
#409=DIRECTION('center_axis',(0.,-1.80411241501588E-16,1.));
#410=DIRECTION('ref_axis',(-1.,0.,0.));
#411=DIRECTION('',(0.,0.,1.));
#412=DIRECTION('center_axis',(0.,-1.80411241501588E-16,1.));
#413=DIRECTION('ref_axis',(-1.,0.,0.));
#414=DIRECTION('center_axis',(0.,0.,1.));
#415=DIRECTION('ref_axis',(-1.,0.,0.));
#416=DIRECTION('center_axis',(0.,-1.80411241501588E-16,1.));
#417=DIRECTION('ref_axis',(-1.,0.,0.));
#418=DIRECTION('',(0.,0.,1.));
#419=DIRECTION('center_axis',(0.,-1.80411241501588E-16,1.));
#420=DIRECTION('ref_axis',(-1.,0.,0.));
#421=DIRECTION('center_axis',(0.,-2.22044604925031E-16,1.));
#422=DIRECTION('ref_axis',(-1.,0.,0.));
#423=DIRECTION('center_axis',(0.,-1.80411241501588E-16,1.));
#424=DIRECTION('ref_axis',(-1.,0.,0.));
#425=DIRECTION('',(0.,-2.22044604925031E-16,1.));
#426=DIRECTION('center_axis',(0.,-1.80411241501588E-16,1.));
#427=DIRECTION('ref_axis',(0.,-1.,-1.80411241501588E-16));
#428=DIRECTION('center_axis',(0.,1.80411241501588E-16,-1.));
#429=DIRECTION('ref_axis',(0.,1.,1.80411241501588E-16));
#430=DIRECTION('center_axis',(0.,1.80411241501588E-16,-1.));
#431=DIRECTION('ref_axis',(0.,1.,1.80411241501588E-16));
#432=DIRECTION('center_axis',(0.,1.80411241501588E-16,-1.));
#433=DIRECTION('ref_axis',(0.,1.,1.80411241501588E-16));
#434=DIRECTION('center_axis',(0.,1.80411241501588E-16,-1.));
#435=DIRECTION('ref_axis',(0.,1.,1.80411241501588E-16));
#436=DIRECTION('center_axis',(0.,1.80411241501588E-16,-1.));
#437=DIRECTION('ref_axis',(0.,1.,1.80411241501588E-16));
#438=DIRECTION('center_axis',(0.,1.80411241501588E-16,-1.));
#439=DIRECTION('ref_axis',(0.,1.,1.80411241501588E-16));
#440=DIRECTION('center_axis',(0.,1.80411241501588E-16,-1.));
#441=DIRECTION('ref_axis',(0.,-1.,-1.80411241501588E-16));
#442=DIRECTION('center_axis',(0.,1.80411241501588E-16,-1.));
#443=DIRECTION('ref_axis',(0.,1.,1.80411241501588E-16));
#444=DIRECTION('',(-8.659560562355E-17,-0.707106781186553,-0.707106781186542));
#445=DIRECTION('center_axis',(0.,1.80411241501588E-16,-1.));
#446=DIRECTION('ref_axis',(0.,-1.,-1.80411241501588E-16));
#447=DIRECTION('',(0.,1.80411241501588E-16,-1.));
#448=CARTESIAN_POINT('',(0.,0.,0.));
#449=CARTESIAN_POINT('Origin',(0.,3.60822483003176E-16,-2.));
#450=CARTESIAN_POINT('',(2.72177751110499E-15,22.225,-2.));
#451=CARTESIAN_POINT('Origin',(0.,-1.24900090270328E-16,-2.));
#452=CARTESIAN_POINT('Origin',(0.,4.44089209850063E-15,-27.4379999999999));
#453=CARTESIAN_POINT('',(-4.3383112859795E-15,-35.425,-16.0548932188133));
#454=CARTESIAN_POINT('Origin',(0.,2.22044604925031E-15,-16.0548932188133));
#455=CARTESIAN_POINT('',(4.3383112859795E-15,-35.425,-4.62701772321719E-15));
#456=CARTESIAN_POINT('',(4.3383112859795E-15,-35.425,-27.4379999999999));
#457=CARTESIAN_POINT('Origin',(0.,8.57092175010637E-16,0.));
#458=CARTESIAN_POINT('Origin',(0.,1.08246744900953E-15,-6.));
#459=CARTESIAN_POINT('',(31.42858431608,14.6812000000003,-6.));
#460=CARTESIAN_POINT('Origin',(25.42858431608,14.6812000000003,-6.));
#461=CARTESIAN_POINT('Origin',(0.,1.08246744900953E-15,-6.));
#462=CARTESIAN_POINT('',(6.00000000000021,-29.3624,-6.));
#463=CARTESIAN_POINT('Origin',(2.05036662084476E-13,-29.3624,-6.));
#464=CARTESIAN_POINT('Origin',(0.,1.08246744900953E-15,-6.));
#465=CARTESIAN_POINT('',(-19.4285843160801,-14.6812000000001,-6.));
#466=CARTESIAN_POINT('Origin',(-25.4285843160801,-14.6812000000001,-6.));
#467=CARTESIAN_POINT('Origin',(0.,1.08246744900953E-15,-6.));
#468=CARTESIAN_POINT('',(6.,29.3624,-6.));
#469=CARTESIAN_POINT('Origin',(0.,29.3624,-6.));
#470=CARTESIAN_POINT('Origin',(0.,1.08246744900953E-15,-6.));
#471=CARTESIAN_POINT('',(31.4285843160803,-14.6811999999998,-6.));
#472=CARTESIAN_POINT('Origin',(25.4285843160803,-14.6811999999998,-6.));
#473=CARTESIAN_POINT('Origin',(0.,1.08246744900953E-15,-6.));
#474=CARTESIAN_POINT('',(-19.4285843160802,14.6811999999999,-6.));
#475=CARTESIAN_POINT('Origin',(-25.4285843160802,14.6811999999999,-6.));
#476=CARTESIAN_POINT('Origin',(34.163,0.,0.));
#477=CARTESIAN_POINT('Origin',(-25.4285843160802,14.6811999999999,-15.));
#478=CARTESIAN_POINT('',(-27.8188661222239,20.1845219865112,-15.));
#479=CARTESIAN_POINT('',(-31.3897418646763,13.9995837730685,-15.));
#480=CARTESIAN_POINT('Ctrl Pts',(-27.8188661222239,20.1845219865112,-15.));
#481=CARTESIAN_POINT('Ctrl Pts',(-28.1303151961033,20.0492489538486,-15.1726424251736));
#482=CARTESIAN_POINT('Ctrl Pts',(-28.4383803854763,19.8837322328478,-15.3285514148423));
#483=CARTESIAN_POINT('Ctrl Pts',(-29.1109848910576,19.4397994689862,-15.6324639851938));
#484=CARTESIAN_POINT('Ctrl Pts',(-29.4683404035174,19.1418502994381,-15.7665490202567));
#485=CARTESIAN_POINT('Ctrl Pts',(-30.1084602274273,18.4648215183622,-15.9464625999766));
#486=CARTESIAN_POINT('Ctrl Pts',(-30.3911918728839,18.0857115735908,-15.9922932188134));
#487=CARTESIAN_POINT('Ctrl Pts',(-30.8582816046899,17.276688426409,-15.9922932188133));
#488=CARTESIAN_POINT('Ctrl Pts',(-31.045234624961,16.8422806666042,-15.9464625999766));
#489=CARTESIAN_POINT('Ctrl Pts',(-31.3114988365109,15.9494062470943,-15.7665490202567));
#490=CARTESIAN_POINT('Ctrl Pts',(-31.3908526301461,15.4909527103475,-15.6324639851938));
#491=CARTESIAN_POINT('Ctrl Pts',(-31.4390074284319,14.6864937398836,-15.3285514148423));
#492=CARTESIAN_POINT('Ctrl Pts',(-31.4283165188832,14.3369430993644,-15.1726424251736));
#493=CARTESIAN_POINT('Ctrl Pts',(-31.3897418646763,13.9995837730684,-15.));
#494=CARTESIAN_POINT('',(-19.4285843160802,14.6811999999999,-15.));
#495=CARTESIAN_POINT('Origin',(-25.4285843160802,14.6811999999999,-15.));
#496=CARTESIAN_POINT('',(-19.4285843160802,14.6811999999999,-15.));
#497=CARTESIAN_POINT('Origin',(-25.4285843160802,14.6811999999999,-15.));
#498=CARTESIAN_POINT('Origin',(25.4285843160803,-14.6811999999998,-15.));
#499=CARTESIAN_POINT('',(27.8188661222241,-20.184521986511,-15.));
#500=CARTESIAN_POINT('',(31.4285843160803,-14.6812000000008,-15.3184150315546));
#501=CARTESIAN_POINT('Ctrl Pts',(27.818866122224,-20.184521986511,-15.));
#502=CARTESIAN_POINT('Ctrl Pts',(28.1303151961034,-20.0492489538484,-15.1726424251736));
#503=CARTESIAN_POINT('Ctrl Pts',(28.4383803854765,-19.8837322328476,-15.3285514148423));
#504=CARTESIAN_POINT('Ctrl Pts',(29.1109848910577,-19.439799468986,-15.6324639851938));
#505=CARTESIAN_POINT('Ctrl Pts',(29.4683404035175,-19.1418502994378,-15.7665490202567));
#506=CARTESIAN_POINT('Ctrl Pts',(30.1084602274275,-18.464821518362,-15.9464625999766));
#507=CARTESIAN_POINT('Ctrl Pts',(30.391191872884,-18.0857115735906,-15.9922932188134));
#508=CARTESIAN_POINT('Ctrl Pts',(30.85828160469,-17.2766884264088,-15.9922932188134));
#509=CARTESIAN_POINT('Ctrl Pts',(31.0452346249611,-16.842280666604,-15.9464625999766));
#510=CARTESIAN_POINT('Ctrl Pts',(31.311498836511,-15.949406247094,-15.7665490202567));
#511=CARTESIAN_POINT('Ctrl Pts',(31.3908526301463,-15.4909527103473,-15.6324639851938));
#512=CARTESIAN_POINT('Ctrl Pts',(31.4250489658276,-14.9196794421542,-15.416645486446));
#513=CARTESIAN_POINT('Ctrl Pts',(31.4285843160803,-14.8000586024887,-15.3687194787792));
#514=CARTESIAN_POINT('Ctrl Pts',(31.4285843160803,-14.6812000000018,-15.3184150315546));
#515=CARTESIAN_POINT('',(31.3897418646764,-13.9995837730682,-15.));
#516=CARTESIAN_POINT('Origin',(25.4285843160803,-14.6811999999998,-15.));
#517=CARTESIAN_POINT('Ctrl Pts',(31.4285843160803,-14.6812000000018,-15.3184150315546));
#518=CARTESIAN_POINT('Ctrl Pts',(31.4285843160803,-14.4503049657052,-15.2206934798605));
#519=CARTESIAN_POINT('Ctrl Pts',(31.4152074929626,-14.2222965200514,-15.1139724494308));
#520=CARTESIAN_POINT('Ctrl Pts',(31.3897418646764,-13.9995837730682,-15.));
#521=CARTESIAN_POINT('',(31.4285843160803,-14.6811999999998,-15.));
#522=CARTESIAN_POINT('Origin',(0.,29.3624,-15.));
#523=CARTESIAN_POINT('',(3.57087574245238,34.1841057595798,-15.));
#524=CARTESIAN_POINT('',(-3.57087574245238,34.1841057595798,-15.));
#525=CARTESIAN_POINT('Ctrl Pts',(3.57087574245239,34.1841057595798,-15.));
#526=CARTESIAN_POINT('Ctrl Pts',(3.29800132277992,34.3861920532132,-15.1726424251736));
#527=CARTESIAN_POINT('Ctrl Pts',(3.00062704295555,34.5702259727315,-15.3285514148422));
#528=CARTESIAN_POINT('Ctrl Pts',(2.27986773908861,34.9307521793339,-15.6324639851938));
#529=CARTESIAN_POINT('Ctrl Pts',(1.8431584329935,35.0912565465325,-15.7665490202567));
#530=CARTESIAN_POINT('Ctrl Pts',(0.936774397533672,35.3071021849666,-15.9464625999766));
#531=CARTESIAN_POINT('Ctrl Pts',(0.467089731806037,35.3624,-15.9922932188133));
#532=CARTESIAN_POINT('Ctrl Pts',(-0.467089731806035,35.3624,-15.9922932188133));
#533=CARTESIAN_POINT('Ctrl Pts',(-0.936774397533671,35.3071021849666,-15.9464625999766));
#534=CARTESIAN_POINT('Ctrl Pts',(-1.8431584329935,35.0912565465325,-15.7665490202567));
#535=CARTESIAN_POINT('Ctrl Pts',(-2.27986773908861,34.9307521793339,-15.6324639851938));
#536=CARTESIAN_POINT('Ctrl Pts',(-3.00062704295555,34.5702259727315,-15.3285514148422));
#537=CARTESIAN_POINT('Ctrl Pts',(-3.29800132277992,34.3861920532132,-15.1726424251736));
#538=CARTESIAN_POINT('Ctrl Pts',(-3.57087574245239,34.1841057595798,-15.));
#539=CARTESIAN_POINT('',(6.,29.3624,-15.));
#540=CARTESIAN_POINT('Origin',(0.,29.3624,-15.));
#541=CARTESIAN_POINT('',(6.,29.3624,-15.));
#542=CARTESIAN_POINT('Origin',(0.,29.3624,-15.));
#543=CARTESIAN_POINT('Origin',(-25.4285843160801,-14.6812000000001,-15.));
#544=CARTESIAN_POINT('',(-31.3897418646762,-13.9995837730686,-15.));
#545=CARTESIAN_POINT('',(-27.8188661222238,-20.1845219865114,-15.));
#546=CARTESIAN_POINT('Ctrl Pts',(-31.3897418646762,-13.9995837730686,-15.));
#547=CARTESIAN_POINT('Ctrl Pts',(-31.4283165188831,-14.3369430993646,-15.1726424251737));
#548=CARTESIAN_POINT('Ctrl Pts',(-31.4390074284318,-14.6864937398838,-15.3285514148423));
#549=CARTESIAN_POINT('Ctrl Pts',(-31.3908526301461,-15.4909527103478,-15.6324639851938));
#550=CARTESIAN_POINT('Ctrl Pts',(-31.3114988365108,-15.9494062470945,-15.7665490202567));
#551=CARTESIAN_POINT('Ctrl Pts',(-31.0452346249609,-16.8422806666044,-15.9464625999766));
#552=CARTESIAN_POINT('Ctrl Pts',(-30.8582816046898,-17.2766884264093,-15.9922932188134));
#553=CARTESIAN_POINT('Ctrl Pts',(-30.3911918728837,-18.085711573591,-15.9922932188134));
#554=CARTESIAN_POINT('Ctrl Pts',(-30.1084602274272,-18.4648215183625,-15.9464625999766));
#555=CARTESIAN_POINT('Ctrl Pts',(-29.4683404035173,-19.1418502994383,-15.7665490202567));
#556=CARTESIAN_POINT('Ctrl Pts',(-29.1109848910574,-19.4397994689864,-15.6324639851938));
#557=CARTESIAN_POINT('Ctrl Pts',(-28.4383803854762,-19.883732232848,-15.3285514148423));
#558=CARTESIAN_POINT('Ctrl Pts',(-28.1303151961032,-20.0492489538488,-15.1726424251736));
#559=CARTESIAN_POINT('Ctrl Pts',(-27.8188661222238,-20.1845219865114,-15.));
#560=CARTESIAN_POINT('',(-19.4285843160801,-14.6812000000001,-15.));
#561=CARTESIAN_POINT('Origin',(-25.4285843160801,-14.6812000000001,-15.));
#562=CARTESIAN_POINT('',(-19.4285843160801,-14.6812000000001,-15.));
#563=CARTESIAN_POINT('Origin',(-25.4285843160801,-14.6812000000001,-15.));
#564=CARTESIAN_POINT('Origin',(2.05036662084476E-13,-29.3624,-15.));
#565=CARTESIAN_POINT('',(-3.57087574245214,-34.1841057595798,-15.));
#566=CARTESIAN_POINT('',(1.2058371066161E-13,-35.3624,-15.9922932188134));
#567=CARTESIAN_POINT('Ctrl Pts',(-3.57087574245215,-34.1841057595798,-15.));
#568=CARTESIAN_POINT('Ctrl Pts',(-3.29800132277968,-34.3861920532132,-15.1726424251736));
#569=CARTESIAN_POINT('Ctrl Pts',(-3.00062704295531,-34.5702259727315,-15.3285514148423));
#570=CARTESIAN_POINT('Ctrl Pts',(-2.27986773908837,-34.9307521793339,-15.6324639851938));
#571=CARTESIAN_POINT('Ctrl Pts',(-1.84315843299327,-35.0912565465325,-15.7665490202567));
#572=CARTESIAN_POINT('Ctrl Pts',(-0.936774397533435,-35.3071021849666,-15.9464625999766));
#573=CARTESIAN_POINT('Ctrl Pts',(-0.46708973180579,-35.3624,-15.9922932188134));
#574=CARTESIAN_POINT('Ctrl Pts',(2.45914399954472E-13,-35.3624,-15.9922932188134));
#575=CARTESIAN_POINT('',(6.00000000000021,-29.3624,-15.));
#576=CARTESIAN_POINT('Origin',(2.05036662084476E-13,-29.3624,-15.));
#577=CARTESIAN_POINT('',(6.00000000000021,-29.3624,-15.));
#578=CARTESIAN_POINT('',(3.57087574245262,-34.1841057595798,-15.));
#579=CARTESIAN_POINT('Origin',(2.05036662084476E-13,-29.3624,-15.));
#580=CARTESIAN_POINT('Ctrl Pts',(2.45636844198316E-13,-35.3624,-15.9922932188134));
#581=CARTESIAN_POINT('Ctrl Pts',(0.467089731806281,-35.3624,-15.9922932188133));
#582=CARTESIAN_POINT('Ctrl Pts',(0.936774397533919,-35.3071021849666,-15.9464625999766));
#583=CARTESIAN_POINT('Ctrl Pts',(1.84315843299375,-35.0912565465324,-15.7665490202567));
#584=CARTESIAN_POINT('Ctrl Pts',(2.27986773908885,-34.9307521793339,-15.6324639851938));
#585=CARTESIAN_POINT('Ctrl Pts',(3.00062704295579,-34.5702259727314,-15.3285514148423));
#586=CARTESIAN_POINT('Ctrl Pts',(3.29800132278016,-34.3861920532132,-15.1726424251736));
#587=CARTESIAN_POINT('Ctrl Pts',(3.57087574245263,-34.1841057595798,-15.));
#588=CARTESIAN_POINT('Origin',(25.42858431608,14.6812000000003,-15.));
#589=CARTESIAN_POINT('',(31.3897418646761,13.9995837730689,-15.));
#590=CARTESIAN_POINT('',(31.42858431608,14.6812000000013,-15.3184150315545));
#591=CARTESIAN_POINT('Ctrl Pts',(31.3897418646761,13.9995837730689,-15.));
#592=CARTESIAN_POINT('Ctrl Pts',(31.4152074929623,14.222296520052,-15.1139724494307));
#593=CARTESIAN_POINT('Ctrl Pts',(31.4285843160801,14.4503049657057,-15.2206934798605));
#594=CARTESIAN_POINT('Ctrl Pts',(31.42858431608,14.6812000000024,-15.3184150315545));
#595=CARTESIAN_POINT('',(27.8188661222236,20.1845219865116,-15.));
#596=CARTESIAN_POINT('Origin',(25.42858431608,14.6812000000003,-15.));
#597=CARTESIAN_POINT('Ctrl Pts',(31.42858431608,14.6812000000024,-15.3184150315545));
#598=CARTESIAN_POINT('Ctrl Pts',(31.42858431608,14.8000586024892,-15.3687194787792));
#599=CARTESIAN_POINT('Ctrl Pts',(31.4250489658273,14.9196794421548,-15.416645486446));
#600=CARTESIAN_POINT('Ctrl Pts',(31.3908526301459,15.490952710348,-15.6324639851938));
#601=CARTESIAN_POINT('Ctrl Pts',(31.3114988365107,15.9494062470947,-15.7665490202567));
#602=CARTESIAN_POINT('Ctrl Pts',(31.0452346249608,16.8422806666046,-15.9464625999766));
#603=CARTESIAN_POINT('Ctrl Pts',(30.8582816046897,17.2766884264095,-15.9922932188134));
#604=CARTESIAN_POINT('Ctrl Pts',(30.3911918728836,18.0857115735912,-15.9922932188134));
#605=CARTESIAN_POINT('Ctrl Pts',(30.1084602274271,18.4648215183627,-15.9464625999766));
#606=CARTESIAN_POINT('Ctrl Pts',(29.4683404035171,19.1418502994385,-15.7665490202567));
#607=CARTESIAN_POINT('Ctrl Pts',(29.1109848910573,19.4397994689866,-15.6324639851938));
#608=CARTESIAN_POINT('Ctrl Pts',(28.4383803854761,19.8837322328482,-15.3285514148423));
#609=CARTESIAN_POINT('Ctrl Pts',(28.130315196103,20.049248953849,-15.1726424251736));
#610=CARTESIAN_POINT('Ctrl Pts',(27.8188661222236,20.1845219865116,-15.));
#611=CARTESIAN_POINT('',(31.42858431608,14.6812000000003,-15.));
#612=CARTESIAN_POINT('Origin',(34.163,2.22044604925031E-15,-15.));
#613=CARTESIAN_POINT('Origin',(0.,2.22044604925031E-15,-15.));
#614=CARTESIAN_POINT('Origin',(0.,2.22044604925031E-15,-15.));
#615=CARTESIAN_POINT('Origin',(0.,2.22044604925031E-15,-15.));
#616=CARTESIAN_POINT('Origin',(0.,2.22044604925031E-15,-15.));
#617=CARTESIAN_POINT('Origin',(0.,2.22044604925031E-15,-15.));
#618=CARTESIAN_POINT('Origin',(0.,2.22044604925031E-15,-15.));
#619=CARTESIAN_POINT('',(2.72177751110499E-15,22.225,-15.));
#620=CARTESIAN_POINT('Origin',(0.,2.22044604925031E-15,-15.));
#621=CARTESIAN_POINT('Origin',(0.,2.22044604925031E-15,-15.9084466094066));
#622=CARTESIAN_POINT('',(-4.3203767488339E-15,-35.2785533905933,-15.9084466094066));
#623=CARTESIAN_POINT('Origin',(0.,2.22044604925031E-15,-15.));
#624=CARTESIAN_POINT('',(2.72177751110499E-15,22.225,-15.));
#625=UNCERTAINTY_MEASURE_WITH_UNIT(LENGTH_MEASURE(0.01),#629,
'DISTANCE_ACCURACY_VALUE',
'Maximum model space distance between geometric entities at asserted c
onnectivities');
#626=UNCERTAINTY_MEASURE_WITH_UNIT(LENGTH_MEASURE(0.01),#629,
'DISTANCE_ACCURACY_VALUE',
'Maximum model space distance between geometric entities at asserted c
onnectivities');
#627=(
GEOMETRIC_REPRESENTATION_CONTEXT(3)
GLOBAL_UNCERTAINTY_ASSIGNED_CONTEXT((#625))
GLOBAL_UNIT_ASSIGNED_CONTEXT((#629,#630,#631))
REPRESENTATION_CONTEXT('','3D')
);
#628=(
GEOMETRIC_REPRESENTATION_CONTEXT(3)
GLOBAL_UNCERTAINTY_ASSIGNED_CONTEXT((#626))
GLOBAL_UNIT_ASSIGNED_CONTEXT((#629,#630,#631))
REPRESENTATION_CONTEXT('','3D')
);
#629=(
LENGTH_UNIT()
NAMED_UNIT(*)
SI_UNIT(.MILLI.,.METRE.)
);
#630=(
NAMED_UNIT(*)
PLANE_ANGLE_UNIT()
SI_UNIT($,.RADIAN.)
);
#631=(
NAMED_UNIT(*)
SI_UNIT($,.STERADIAN.)
SOLID_ANGLE_UNIT()
);
#632=SHAPE_DEFINITION_REPRESENTATION(#633,#634);
#633=PRODUCT_DEFINITION_SHAPE('',$,#636);
#634=SHAPE_REPRESENTATION('',(#304),#627);
#635=PRODUCT_DEFINITION_CONTEXT('part definition',#640,'design');
#636=PRODUCT_DEFINITION('Flansch Endcap','Flansch Endcap v3',#637,#635);
#637=PRODUCT_DEFINITION_FORMATION('',$,#642);
#638=PRODUCT_RELATED_PRODUCT_CATEGORY('Flansch Endcap v3',
'Flansch Endcap v3',(#642));
#639=APPLICATION_PROTOCOL_DEFINITION('international standard',
'automotive_design',2009,#640);
#640=APPLICATION_CONTEXT(
'Core Data for Automotive Mechanical Design Process');
#641=PRODUCT_CONTEXT('part definition',#640,'mechanical');
#642=PRODUCT('Flansch Endcap','Flansch Endcap v3',$,(#641));
#643=PRESENTATION_STYLE_ASSIGNMENT((#644));
#644=SURFACE_STYLE_USAGE(.BOTH.,#645);
#645=SURFACE_SIDE_STYLE('',(#646));
#646=SURFACE_STYLE_FILL_AREA(#647);
#647=FILL_AREA_STYLE('Steel - Satin',(#648));
#648=FILL_AREA_STYLE_COLOUR('Steel - Satin',#649);
#649=COLOUR_RGB('Steel - Satin',0.627450980392157,0.627450980392157,0.627450980392157);
ENDSEC;
END-ISO-10303-21;
