ISO-10303-21;
HEADER;
/* Generated by software containing ST-Developer
 * from STEP Tools, Inc. (www.steptools.com) 
 */

FILE_DESCRIPTION(
/* description */ (''),
/* implementation_level */ '2;1');

FILE_NAME(
/* name */ 'Mirror mount temporary v15.step',
/* time_stamp */ '2024-06-25T15:17:01+02:00',
/* author */ (''),
/* organization */ (''),
/* preprocessor_version */ 'ST-DEVELOPER v20',
/* originating_system */ 'Autodesk Translation Framework v13.14.0.145',

/* authorisation */ '');

FILE_SCHEMA (('AUTOMOTIVE_DESIGN { 1 0 10303 214 3 1 1 }'));
ENDSEC;

DATA;
#10=MECHANICAL_DESIGN_GEOMETRIC_PRESENTATION_REPRESENTATION('',(#13),#923);
#11=SHAPE_REPRESENTATION_RELATIONSHIP('SRR','None',#929,#12);
#12=ADVANCED_BREP_SHAPE_REPRESENTATION('',(#14),#922);
#13=STYLED_ITEM('',(#938),#14);
#14=MANIFOLD_SOLID_BREP('Body2',#470);
#15=CONICAL_SURFACE('',#535,35.2785533905933,0.785398163397456);
#16=FACE_BOUND('',#89,.T.);
#17=B_SPLINE_CURVE_WITH_KNOTS('',3,(#775,#776,#777,#778,#779,#780,#781,
#782,#783,#784,#785,#786,#787,#788),.UNSPECIFIED.,.F.,.F.,(4,2,2,2,2,2,
4),(1.49045193001828,1.60014214518322,1.74026906472503,1.88039598426684,
2.02052290380865,2.16064982335046,2.2703400385154),.UNSPECIFIED.);
#18=B_SPLINE_CURVE_WITH_KNOTS('',3,(#796,#797,#798,#799,#800,#801,#802,
#803,#804,#805,#806,#807,#808,#809),.UNSPECIFIED.,.F.,.F.,(4,2,2,2,2,2,
4),(1.49045193001829,1.60014214518322,1.74026906472503,1.88039598426684,
2.02052290380865,2.16064982335046,2.1979264212463),.UNSPECIFIED.);
#19=B_SPLINE_CURVE_WITH_KNOTS('',3,(#812,#813,#814,#815),.UNSPECIFIED.,
 .F.,.F.,(4,4),(2.1979264212463,2.2703400385154),.UNSPECIFIED.);
#20=B_SPLINE_CURVE_WITH_KNOTS('',3,(#820,#821,#822,#823,#824,#825,#826,
#827,#828,#829,#830,#831,#832,#833),.UNSPECIFIED.,.F.,.F.,(4,2,2,2,2,2,
4),(1.49045193001828,1.60014214518322,1.74026906472503,1.88039598426684,
2.02052290380865,2.16064982335046,2.2703400385154),.UNSPECIFIED.);
#21=B_SPLINE_CURVE_WITH_KNOTS('',3,(#841,#842,#843,#844,#845,#846,#847,
#848,#849,#850,#851,#852,#853,#854),.UNSPECIFIED.,.F.,.F.,(4,2,2,2,2,2,
4),(1.49045193001828,1.60014214518322,1.74026906472503,1.88039598426684,
2.02052290380865,2.16064982335046,2.2703400385154),.UNSPECIFIED.);
#22=B_SPLINE_CURVE_WITH_KNOTS('',3,(#862,#863,#864,#865,#866,#867,#868,
#869),.UNSPECIFIED.,.F.,.F.,(4,2,2,4),(1.49045193001829,1.60014214518322,
1.74026906472503,1.88039598426684),.UNSPECIFIED.);
#23=B_SPLINE_CURVE_WITH_KNOTS('',3,(#875,#876,#877,#878,#879,#880,#881,
#882),.UNSPECIFIED.,.F.,.F.,(4,2,2,4),(1.88039598426684,2.02052290380865,
2.16064982335046,2.2703400385154),.UNSPECIFIED.);
#24=B_SPLINE_CURVE_WITH_KNOTS('',3,(#886,#887,#888,#889),.UNSPECIFIED.,
 .F.,.F.,(4,4),(1.49045193001828,1.56286554728738),.UNSPECIFIED.);
#25=B_SPLINE_CURVE_WITH_KNOTS('',3,(#892,#893,#894,#895,#896,#897,#898,
#899,#900,#901,#902,#903,#904,#905),.UNSPECIFIED.,.F.,.F.,(4,2,2,2,2,2,
4),(1.56286554728738,1.60014214518322,1.74026906472503,1.88039598426684,
2.02052290380865,2.16064982335046,2.2703400385154),.UNSPECIFIED.);
#26=PLANE('',#483);
#27=PLANE('',#485);
#28=PLANE('',#487);
#29=PLANE('',#488);
#30=PLANE('',#489);
#31=PLANE('',#491);
#32=PLANE('',#496);
#33=PLANE('',#498);
#34=PLANE('',#499);
#35=PLANE('',#501);
#36=PLANE('',#503);
#37=PLANE('',#505);
#38=PLANE('',#507);
#39=PLANE('',#509);
#40=PLANE('',#527);
#41=FACE_OUTER_BOUND('',#66,.T.);
#42=FACE_OUTER_BOUND('',#67,.T.);
#43=FACE_OUTER_BOUND('',#68,.T.);
#44=FACE_OUTER_BOUND('',#69,.T.);
#45=FACE_OUTER_BOUND('',#70,.T.);
#46=FACE_OUTER_BOUND('',#71,.T.);
#47=FACE_OUTER_BOUND('',#72,.T.);
#48=FACE_OUTER_BOUND('',#73,.T.);
#49=FACE_OUTER_BOUND('',#74,.T.);
#50=FACE_OUTER_BOUND('',#75,.T.);
#51=FACE_OUTER_BOUND('',#76,.T.);
#52=FACE_OUTER_BOUND('',#77,.T.);
#53=FACE_OUTER_BOUND('',#78,.T.);
#54=FACE_OUTER_BOUND('',#79,.T.);
#55=FACE_OUTER_BOUND('',#80,.T.);
#56=FACE_OUTER_BOUND('',#81,.T.);
#57=FACE_OUTER_BOUND('',#82,.T.);
#58=FACE_OUTER_BOUND('',#83,.T.);
#59=FACE_OUTER_BOUND('',#84,.T.);
#60=FACE_OUTER_BOUND('',#85,.T.);
#61=FACE_OUTER_BOUND('',#86,.T.);
#62=FACE_OUTER_BOUND('',#87,.T.);
#63=FACE_OUTER_BOUND('',#88,.T.);
#64=FACE_OUTER_BOUND('',#90,.T.);
#65=FACE_OUTER_BOUND('',#91,.T.);
#66=EDGE_LOOP('',(#294,#295,#296,#297,#298,#299,#300,#301,#302,#303,#304,
#305,#306,#307));
#67=EDGE_LOOP('',(#308,#309,#310,#311,#312));
#68=EDGE_LOOP('',(#313,#314,#315,#316,#317));
#69=EDGE_LOOP('',(#318,#319,#320));
#70=EDGE_LOOP('',(#321,#322,#323));
#71=EDGE_LOOP('',(#324,#325,#326,#327));
#72=EDGE_LOOP('',(#328,#329,#330,#331,#332,#333,#334,#335));
#73=EDGE_LOOP('',(#336,#337));
#74=EDGE_LOOP('',(#338,#339,#340,#341,#342,#343));
#75=EDGE_LOOP('',(#344,#345,#346,#347,#348,#349));
#76=EDGE_LOOP('',(#350));
#77=EDGE_LOOP('',(#351));
#78=EDGE_LOOP('',(#352));
#79=EDGE_LOOP('',(#353));
#80=EDGE_LOOP('',(#354));
#81=EDGE_LOOP('',(#355));
#82=EDGE_LOOP('',(#356,#357,#358,#359,#360,#361));
#83=EDGE_LOOP('',(#362,#363,#364,#365,#366,#367));
#84=EDGE_LOOP('',(#368,#369,#370,#371,#372,#373));
#85=EDGE_LOOP('',(#374,#375,#376,#377,#378,#379));
#86=EDGE_LOOP('',(#380,#381,#382,#383,#384,#385,#386));
#87=EDGE_LOOP('',(#387,#388,#389,#390,#391,#392));
#88=EDGE_LOOP('',(#393,#394,#395,#396,#397,#398,#399,#400,#401,#402,#403,
#404,#405,#406,#407,#408));
#89=EDGE_LOOP('',(#409));
#90=EDGE_LOOP('',(#410,#411,#412,#413,#414,#415,#416,#417,#418,#419,#420,
#421,#422,#423,#424,#425,#426,#427));
#91=EDGE_LOOP('',(#428,#429,#430,#431,#432,#433,#434,#435));
#92=ELLIPSE('',#475,50.0985154470668,35.425);
#93=ELLIPSE('',#477,50.0985154470668,35.425);
#94=ELLIPSE('',#479,50.0985154470668,35.425);
#95=ELLIPSE('',#481,50.0985154470668,35.425);
#96=ELLIPSE('',#484,31.430896423742,22.225);
#97=ELLIPSE('',#486,31.430896423742,22.225);
#98=ELLIPSE('',#495,31.430896423742,22.225);
#99=LINE('',#696,#121);
#100=LINE('',#700,#122);
#101=LINE('',#716,#123);
#102=LINE('',#720,#124);
#103=LINE('',#722,#125);
#104=LINE('',#725,#126);
#105=LINE('',#728,#127);
#106=LINE('',#732,#128);
#107=LINE('',#733,#129);
#108=LINE('',#735,#130);
#109=LINE('',#737,#131);
#110=LINE('',#740,#132);
#111=LINE('',#743,#133);
#112=LINE('',#752,#134);
#113=LINE('',#791,#135);
#114=LINE('',#816,#136);
#115=LINE('',#836,#137);
#116=LINE('',#857,#138);
#117=LINE('',#872,#139);
#118=LINE('',#906,#140);
#119=LINE('',#917,#141);
#120=LINE('',#919,#142);
#121=VECTOR('',#543,35.425);
#122=VECTOR('',#546,10.);
#123=VECTOR('',#561,10.);
#124=VECTOR('',#566,10.);
#125=VECTOR('',#567,10.);
#126=VECTOR('',#570,10.);
#127=VECTOR('',#573,10.);
#128=VECTOR('',#576,10.);
#129=VECTOR('',#577,10.);
#130=VECTOR('',#580,10.);
#131=VECTOR('',#583,10.);
#132=VECTOR('',#586,10.);
#133=VECTOR('',#589,10.);
#134=VECTOR('',#604,10.);
#135=VECTOR('',#635,6.);
#136=VECTOR('',#642,6.);
#137=VECTOR('',#647,6.);
#138=VECTOR('',#654,6.);
#139=VECTOR('',#661,6.);
#140=VECTOR('',#668,6.);
#141=VECTOR('',#687,34.925);
#142=VECTOR('',#690,22.225);
#143=CIRCLE('',#473,35.425);
#144=CIRCLE('',#474,35.425);
#145=CIRCLE('',#476,35.425);
#146=CIRCLE('',#478,35.425);
#147=CIRCLE('',#480,35.425);
#148=CIRCLE('',#482,35.425);
#149=CIRCLE('',#490,22.225);
#150=CIRCLE('',#492,22.225);
#151=CIRCLE('',#493,22.225);
#152=CIRCLE('',#497,22.225);
#153=CIRCLE('',#500,6.);
#154=CIRCLE('',#502,6.);
#155=CIRCLE('',#504,6.);
#156=CIRCLE('',#506,6.);
#157=CIRCLE('',#508,6.);
#158=CIRCLE('',#510,6.);
#159=CIRCLE('',#512,6.);
#160=CIRCLE('',#513,6.);
#161=CIRCLE('',#515,6.);
#162=CIRCLE('',#517,6.);
#163=CIRCLE('',#518,6.);
#164=CIRCLE('',#520,6.);
#165=CIRCLE('',#521,6.);
#166=CIRCLE('',#523,6.);
#167=CIRCLE('',#524,6.);
#168=CIRCLE('',#526,6.);
#169=CIRCLE('',#528,34.3701067811866);
#170=CIRCLE('',#529,34.3701067811866);
#171=CIRCLE('',#530,34.3701067811866);
#172=CIRCLE('',#531,34.3701067811866);
#173=CIRCLE('',#532,34.3701067811866);
#174=CIRCLE('',#533,34.3701067811866);
#175=CIRCLE('',#534,22.225);
#176=VERTEX_POINT('',#693);
#177=VERTEX_POINT('',#695);
#178=VERTEX_POINT('',#697);
#179=VERTEX_POINT('',#699);
#180=VERTEX_POINT('',#701);
#181=VERTEX_POINT('',#703);
#182=VERTEX_POINT('',#705);
#183=VERTEX_POINT('',#707);
#184=VERTEX_POINT('',#709);
#185=VERTEX_POINT('',#711);
#186=VERTEX_POINT('',#713);
#187=VERTEX_POINT('',#715);
#188=VERTEX_POINT('',#719);
#189=VERTEX_POINT('',#721);
#190=VERTEX_POINT('',#723);
#191=VERTEX_POINT('',#727);
#192=VERTEX_POINT('',#729);
#193=VERTEX_POINT('',#731);
#194=VERTEX_POINT('',#739);
#195=VERTEX_POINT('',#741);
#196=VERTEX_POINT('',#745);
#197=VERTEX_POINT('',#755);
#198=VERTEX_POINT('',#758);
#199=VERTEX_POINT('',#761);
#200=VERTEX_POINT('',#764);
#201=VERTEX_POINT('',#767);
#202=VERTEX_POINT('',#770);
#203=VERTEX_POINT('',#773);
#204=VERTEX_POINT('',#774);
#205=VERTEX_POINT('',#789);
#206=VERTEX_POINT('',#794);
#207=VERTEX_POINT('',#795);
#208=VERTEX_POINT('',#810);
#209=VERTEX_POINT('',#818);
#210=VERTEX_POINT('',#819);
#211=VERTEX_POINT('',#834);
#212=VERTEX_POINT('',#839);
#213=VERTEX_POINT('',#840);
#214=VERTEX_POINT('',#855);
#215=VERTEX_POINT('',#860);
#216=VERTEX_POINT('',#861);
#217=VERTEX_POINT('',#870);
#218=VERTEX_POINT('',#873);
#219=VERTEX_POINT('',#884);
#220=VERTEX_POINT('',#885);
#221=VERTEX_POINT('',#890);
#222=VERTEX_POINT('',#914);
#223=EDGE_CURVE('',#176,#176,#143,.T.);
#224=EDGE_CURVE('',#176,#177,#99,.T.);
#225=EDGE_CURVE('',#178,#177,#144,.T.);
#226=EDGE_CURVE('',#179,#178,#100,.T.);
#227=EDGE_CURVE('',#180,#179,#92,.T.);
#228=EDGE_CURVE('',#181,#180,#145,.T.);
#229=EDGE_CURVE('',#182,#181,#93,.T.);
#230=EDGE_CURVE('',#183,#182,#146,.T.);
#231=EDGE_CURVE('',#184,#183,#94,.T.);
#232=EDGE_CURVE('',#185,#184,#147,.T.);
#233=EDGE_CURVE('',#186,#185,#95,.T.);
#234=EDGE_CURVE('',#187,#186,#101,.T.);
#235=EDGE_CURVE('',#177,#187,#148,.T.);
#236=EDGE_CURVE('',#179,#188,#102,.T.);
#237=EDGE_CURVE('',#189,#188,#103,.T.);
#238=EDGE_CURVE('',#189,#190,#96,.T.);
#239=EDGE_CURVE('',#180,#190,#104,.T.);
#240=EDGE_CURVE('',#191,#185,#105,.T.);
#241=EDGE_CURVE('',#191,#192,#97,.T.);
#242=EDGE_CURVE('',#193,#192,#106,.T.);
#243=EDGE_CURVE('',#193,#186,#107,.T.);
#244=EDGE_CURVE('',#188,#178,#108,.T.);
#245=EDGE_CURVE('',#187,#193,#109,.T.);
#246=EDGE_CURVE('',#182,#194,#110,.T.);
#247=EDGE_CURVE('',#194,#195,#149,.T.);
#248=EDGE_CURVE('',#195,#183,#111,.T.);
#249=EDGE_CURVE('',#192,#196,#150,.T.);
#250=EDGE_CURVE('',#196,#189,#151,.T.);
#251=EDGE_CURVE('',#195,#194,#98,.T.);
#252=EDGE_CURVE('',#190,#191,#152,.T.);
#253=EDGE_CURVE('',#184,#181,#112,.T.);
#254=EDGE_CURVE('',#197,#197,#153,.T.);
#255=EDGE_CURVE('',#198,#198,#154,.T.);
#256=EDGE_CURVE('',#199,#199,#155,.T.);
#257=EDGE_CURVE('',#200,#200,#156,.T.);
#258=EDGE_CURVE('',#201,#201,#157,.T.);
#259=EDGE_CURVE('',#202,#202,#158,.T.);
#260=EDGE_CURVE('',#203,#204,#17,.T.);
#261=EDGE_CURVE('',#205,#203,#159,.T.);
#262=EDGE_CURVE('',#205,#202,#113,.T.);
#263=EDGE_CURVE('',#204,#205,#160,.T.);
#264=EDGE_CURVE('',#206,#207,#18,.T.);
#265=EDGE_CURVE('',#208,#206,#161,.T.);
#266=EDGE_CURVE('',#207,#208,#19,.T.);
#267=EDGE_CURVE('',#207,#201,#114,.T.);
#268=EDGE_CURVE('',#209,#210,#20,.T.);
#269=EDGE_CURVE('',#211,#209,#162,.T.);
#270=EDGE_CURVE('',#211,#200,#115,.T.);
#271=EDGE_CURVE('',#210,#211,#163,.T.);
#272=EDGE_CURVE('',#212,#213,#21,.T.);
#273=EDGE_CURVE('',#214,#212,#164,.T.);
#274=EDGE_CURVE('',#214,#199,#116,.T.);
#275=EDGE_CURVE('',#213,#214,#165,.T.);
#276=EDGE_CURVE('',#215,#216,#22,.T.);
#277=EDGE_CURVE('',#217,#215,#166,.T.);
#278=EDGE_CURVE('',#217,#198,#117,.T.);
#279=EDGE_CURVE('',#218,#217,#167,.T.);
#280=EDGE_CURVE('',#216,#218,#23,.T.);
#281=EDGE_CURVE('',#219,#220,#24,.T.);
#282=EDGE_CURVE('',#221,#219,#168,.T.);
#283=EDGE_CURVE('',#220,#221,#25,.T.);
#284=EDGE_CURVE('',#220,#197,#118,.T.);
#285=EDGE_CURVE('',#203,#210,#169,.T.);
#286=EDGE_CURVE('',#209,#221,#170,.T.);
#287=EDGE_CURVE('',#219,#208,#171,.T.);
#288=EDGE_CURVE('',#206,#218,#172,.T.);
#289=EDGE_CURVE('',#215,#213,#173,.T.);
#290=EDGE_CURVE('',#212,#204,#174,.T.);
#291=EDGE_CURVE('',#222,#222,#175,.T.);
#292=EDGE_CURVE('',#216,#176,#119,.T.);
#293=EDGE_CURVE('',#196,#222,#120,.T.);
#294=ORIENTED_EDGE('',*,*,#223,.F.);
#295=ORIENTED_EDGE('',*,*,#224,.T.);
#296=ORIENTED_EDGE('',*,*,#225,.F.);
#297=ORIENTED_EDGE('',*,*,#226,.F.);
#298=ORIENTED_EDGE('',*,*,#227,.F.);
#299=ORIENTED_EDGE('',*,*,#228,.F.);
#300=ORIENTED_EDGE('',*,*,#229,.F.);
#301=ORIENTED_EDGE('',*,*,#230,.F.);
#302=ORIENTED_EDGE('',*,*,#231,.F.);
#303=ORIENTED_EDGE('',*,*,#232,.F.);
#304=ORIENTED_EDGE('',*,*,#233,.F.);
#305=ORIENTED_EDGE('',*,*,#234,.F.);
#306=ORIENTED_EDGE('',*,*,#235,.F.);
#307=ORIENTED_EDGE('',*,*,#224,.F.);
#308=ORIENTED_EDGE('',*,*,#227,.T.);
#309=ORIENTED_EDGE('',*,*,#236,.T.);
#310=ORIENTED_EDGE('',*,*,#237,.F.);
#311=ORIENTED_EDGE('',*,*,#238,.T.);
#312=ORIENTED_EDGE('',*,*,#239,.F.);
#313=ORIENTED_EDGE('',*,*,#233,.T.);
#314=ORIENTED_EDGE('',*,*,#240,.F.);
#315=ORIENTED_EDGE('',*,*,#241,.T.);
#316=ORIENTED_EDGE('',*,*,#242,.F.);
#317=ORIENTED_EDGE('',*,*,#243,.T.);
#318=ORIENTED_EDGE('',*,*,#226,.T.);
#319=ORIENTED_EDGE('',*,*,#244,.F.);
#320=ORIENTED_EDGE('',*,*,#236,.F.);
#321=ORIENTED_EDGE('',*,*,#234,.T.);
#322=ORIENTED_EDGE('',*,*,#243,.F.);
#323=ORIENTED_EDGE('',*,*,#245,.F.);
#324=ORIENTED_EDGE('',*,*,#230,.T.);
#325=ORIENTED_EDGE('',*,*,#246,.T.);
#326=ORIENTED_EDGE('',*,*,#247,.T.);
#327=ORIENTED_EDGE('',*,*,#248,.T.);
#328=ORIENTED_EDGE('',*,*,#225,.T.);
#329=ORIENTED_EDGE('',*,*,#235,.T.);
#330=ORIENTED_EDGE('',*,*,#245,.T.);
#331=ORIENTED_EDGE('',*,*,#242,.T.);
#332=ORIENTED_EDGE('',*,*,#249,.T.);
#333=ORIENTED_EDGE('',*,*,#250,.T.);
#334=ORIENTED_EDGE('',*,*,#237,.T.);
#335=ORIENTED_EDGE('',*,*,#244,.T.);
#336=ORIENTED_EDGE('',*,*,#251,.F.);
#337=ORIENTED_EDGE('',*,*,#247,.F.);
#338=ORIENTED_EDGE('',*,*,#228,.T.);
#339=ORIENTED_EDGE('',*,*,#239,.T.);
#340=ORIENTED_EDGE('',*,*,#252,.T.);
#341=ORIENTED_EDGE('',*,*,#240,.T.);
#342=ORIENTED_EDGE('',*,*,#232,.T.);
#343=ORIENTED_EDGE('',*,*,#253,.T.);
#344=ORIENTED_EDGE('',*,*,#229,.T.);
#345=ORIENTED_EDGE('',*,*,#253,.F.);
#346=ORIENTED_EDGE('',*,*,#231,.T.);
#347=ORIENTED_EDGE('',*,*,#248,.F.);
#348=ORIENTED_EDGE('',*,*,#251,.T.);
#349=ORIENTED_EDGE('',*,*,#246,.F.);
#350=ORIENTED_EDGE('',*,*,#254,.F.);
#351=ORIENTED_EDGE('',*,*,#255,.F.);
#352=ORIENTED_EDGE('',*,*,#256,.F.);
#353=ORIENTED_EDGE('',*,*,#257,.F.);
#354=ORIENTED_EDGE('',*,*,#258,.F.);
#355=ORIENTED_EDGE('',*,*,#259,.F.);
#356=ORIENTED_EDGE('',*,*,#260,.F.);
#357=ORIENTED_EDGE('',*,*,#261,.F.);
#358=ORIENTED_EDGE('',*,*,#262,.T.);
#359=ORIENTED_EDGE('',*,*,#259,.T.);
#360=ORIENTED_EDGE('',*,*,#262,.F.);
#361=ORIENTED_EDGE('',*,*,#263,.F.);
#362=ORIENTED_EDGE('',*,*,#264,.F.);
#363=ORIENTED_EDGE('',*,*,#265,.F.);
#364=ORIENTED_EDGE('',*,*,#266,.F.);
#365=ORIENTED_EDGE('',*,*,#267,.T.);
#366=ORIENTED_EDGE('',*,*,#258,.T.);
#367=ORIENTED_EDGE('',*,*,#267,.F.);
#368=ORIENTED_EDGE('',*,*,#268,.F.);
#369=ORIENTED_EDGE('',*,*,#269,.F.);
#370=ORIENTED_EDGE('',*,*,#270,.T.);
#371=ORIENTED_EDGE('',*,*,#257,.T.);
#372=ORIENTED_EDGE('',*,*,#270,.F.);
#373=ORIENTED_EDGE('',*,*,#271,.F.);
#374=ORIENTED_EDGE('',*,*,#272,.F.);
#375=ORIENTED_EDGE('',*,*,#273,.F.);
#376=ORIENTED_EDGE('',*,*,#274,.T.);
#377=ORIENTED_EDGE('',*,*,#256,.T.);
#378=ORIENTED_EDGE('',*,*,#274,.F.);
#379=ORIENTED_EDGE('',*,*,#275,.F.);
#380=ORIENTED_EDGE('',*,*,#276,.F.);
#381=ORIENTED_EDGE('',*,*,#277,.F.);
#382=ORIENTED_EDGE('',*,*,#278,.T.);
#383=ORIENTED_EDGE('',*,*,#255,.T.);
#384=ORIENTED_EDGE('',*,*,#278,.F.);
#385=ORIENTED_EDGE('',*,*,#279,.F.);
#386=ORIENTED_EDGE('',*,*,#280,.F.);
#387=ORIENTED_EDGE('',*,*,#281,.F.);
#388=ORIENTED_EDGE('',*,*,#282,.F.);
#389=ORIENTED_EDGE('',*,*,#283,.F.);
#390=ORIENTED_EDGE('',*,*,#284,.T.);
#391=ORIENTED_EDGE('',*,*,#254,.T.);
#392=ORIENTED_EDGE('',*,*,#284,.F.);
#393=ORIENTED_EDGE('',*,*,#263,.T.);
#394=ORIENTED_EDGE('',*,*,#261,.T.);
#395=ORIENTED_EDGE('',*,*,#285,.T.);
#396=ORIENTED_EDGE('',*,*,#271,.T.);
#397=ORIENTED_EDGE('',*,*,#269,.T.);
#398=ORIENTED_EDGE('',*,*,#286,.T.);
#399=ORIENTED_EDGE('',*,*,#282,.T.);
#400=ORIENTED_EDGE('',*,*,#287,.T.);
#401=ORIENTED_EDGE('',*,*,#265,.T.);
#402=ORIENTED_EDGE('',*,*,#288,.T.);
#403=ORIENTED_EDGE('',*,*,#279,.T.);
#404=ORIENTED_EDGE('',*,*,#277,.T.);
#405=ORIENTED_EDGE('',*,*,#289,.T.);
#406=ORIENTED_EDGE('',*,*,#275,.T.);
#407=ORIENTED_EDGE('',*,*,#273,.T.);
#408=ORIENTED_EDGE('',*,*,#290,.T.);
#409=ORIENTED_EDGE('',*,*,#291,.F.);
#410=ORIENTED_EDGE('',*,*,#260,.T.);
#411=ORIENTED_EDGE('',*,*,#290,.F.);
#412=ORIENTED_EDGE('',*,*,#272,.T.);
#413=ORIENTED_EDGE('',*,*,#289,.F.);
#414=ORIENTED_EDGE('',*,*,#276,.T.);
#415=ORIENTED_EDGE('',*,*,#292,.T.);
#416=ORIENTED_EDGE('',*,*,#223,.T.);
#417=ORIENTED_EDGE('',*,*,#292,.F.);
#418=ORIENTED_EDGE('',*,*,#280,.T.);
#419=ORIENTED_EDGE('',*,*,#288,.F.);
#420=ORIENTED_EDGE('',*,*,#264,.T.);
#421=ORIENTED_EDGE('',*,*,#266,.T.);
#422=ORIENTED_EDGE('',*,*,#287,.F.);
#423=ORIENTED_EDGE('',*,*,#281,.T.);
#424=ORIENTED_EDGE('',*,*,#283,.T.);
#425=ORIENTED_EDGE('',*,*,#286,.F.);
#426=ORIENTED_EDGE('',*,*,#268,.T.);
#427=ORIENTED_EDGE('',*,*,#285,.F.);
#428=ORIENTED_EDGE('',*,*,#252,.F.);
#429=ORIENTED_EDGE('',*,*,#238,.F.);
#430=ORIENTED_EDGE('',*,*,#250,.F.);
#431=ORIENTED_EDGE('',*,*,#293,.T.);
#432=ORIENTED_EDGE('',*,*,#291,.T.);
#433=ORIENTED_EDGE('',*,*,#293,.F.);
#434=ORIENTED_EDGE('',*,*,#249,.F.);
#435=ORIENTED_EDGE('',*,*,#241,.F.);
#436=CYLINDRICAL_SURFACE('',#472,35.425);
#437=CYLINDRICAL_SURFACE('',#494,22.225);
#438=CYLINDRICAL_SURFACE('',#511,6.);
#439=CYLINDRICAL_SURFACE('',#514,6.);
#440=CYLINDRICAL_SURFACE('',#516,6.);
#441=CYLINDRICAL_SURFACE('',#519,6.);
#442=CYLINDRICAL_SURFACE('',#522,6.);
#443=CYLINDRICAL_SURFACE('',#525,6.);
#444=CYLINDRICAL_SURFACE('',#536,22.225);
#445=ADVANCED_FACE('',(#41),#436,.T.);
#446=ADVANCED_FACE('',(#42),#26,.T.);
#447=ADVANCED_FACE('',(#43),#27,.T.);
#448=ADVANCED_FACE('',(#44),#28,.F.);
#449=ADVANCED_FACE('',(#45),#29,.F.);
#450=ADVANCED_FACE('',(#46),#30,.T.);
#451=ADVANCED_FACE('',(#47),#31,.T.);
#452=ADVANCED_FACE('',(#48),#437,.F.);
#453=ADVANCED_FACE('',(#49),#32,.T.);
#454=ADVANCED_FACE('',(#50),#33,.F.);
#455=ADVANCED_FACE('',(#51),#34,.F.);
#456=ADVANCED_FACE('',(#52),#35,.F.);
#457=ADVANCED_FACE('',(#53),#36,.F.);
#458=ADVANCED_FACE('',(#54),#37,.F.);
#459=ADVANCED_FACE('',(#55),#38,.F.);
#460=ADVANCED_FACE('',(#56),#39,.F.);
#461=ADVANCED_FACE('',(#57),#438,.F.);
#462=ADVANCED_FACE('',(#58),#439,.F.);
#463=ADVANCED_FACE('',(#59),#440,.F.);
#464=ADVANCED_FACE('',(#60),#441,.F.);
#465=ADVANCED_FACE('',(#61),#442,.F.);
#466=ADVANCED_FACE('',(#62),#443,.F.);
#467=ADVANCED_FACE('',(#63,#16),#40,.F.);
#468=ADVANCED_FACE('',(#64),#15,.F.);
#469=ADVANCED_FACE('',(#65),#444,.F.);
#470=CLOSED_SHELL('',(#445,#446,#447,#448,#449,#450,#451,#452,#453,#454,
#455,#456,#457,#458,#459,#460,#461,#462,#463,#464,#465,#466,#467,#468,#469));
#471=AXIS2_PLACEMENT_3D('',#691,#537,#538);
#472=AXIS2_PLACEMENT_3D('',#692,#539,#540);
#473=AXIS2_PLACEMENT_3D('',#694,#541,#542);
#474=AXIS2_PLACEMENT_3D('',#698,#544,#545);
#475=AXIS2_PLACEMENT_3D('',#702,#547,#548);
#476=AXIS2_PLACEMENT_3D('',#704,#549,#550);
#477=AXIS2_PLACEMENT_3D('',#706,#551,#552);
#478=AXIS2_PLACEMENT_3D('',#708,#553,#554);
#479=AXIS2_PLACEMENT_3D('',#710,#555,#556);
#480=AXIS2_PLACEMENT_3D('',#712,#557,#558);
#481=AXIS2_PLACEMENT_3D('',#714,#559,#560);
#482=AXIS2_PLACEMENT_3D('',#717,#562,#563);
#483=AXIS2_PLACEMENT_3D('',#718,#564,#565);
#484=AXIS2_PLACEMENT_3D('',#724,#568,#569);
#485=AXIS2_PLACEMENT_3D('',#726,#571,#572);
#486=AXIS2_PLACEMENT_3D('',#730,#574,#575);
#487=AXIS2_PLACEMENT_3D('',#734,#578,#579);
#488=AXIS2_PLACEMENT_3D('',#736,#581,#582);
#489=AXIS2_PLACEMENT_3D('',#738,#584,#585);
#490=AXIS2_PLACEMENT_3D('',#742,#587,#588);
#491=AXIS2_PLACEMENT_3D('',#744,#590,#591);
#492=AXIS2_PLACEMENT_3D('',#746,#592,#593);
#493=AXIS2_PLACEMENT_3D('',#747,#594,#595);
#494=AXIS2_PLACEMENT_3D('',#748,#596,#597);
#495=AXIS2_PLACEMENT_3D('',#749,#598,#599);
#496=AXIS2_PLACEMENT_3D('',#750,#600,#601);
#497=AXIS2_PLACEMENT_3D('',#751,#602,#603);
#498=AXIS2_PLACEMENT_3D('',#753,#605,#606);
#499=AXIS2_PLACEMENT_3D('',#754,#607,#608);
#500=AXIS2_PLACEMENT_3D('',#756,#609,#610);
#501=AXIS2_PLACEMENT_3D('',#757,#611,#612);
#502=AXIS2_PLACEMENT_3D('',#759,#613,#614);
#503=AXIS2_PLACEMENT_3D('',#760,#615,#616);
#504=AXIS2_PLACEMENT_3D('',#762,#617,#618);
#505=AXIS2_PLACEMENT_3D('',#763,#619,#620);
#506=AXIS2_PLACEMENT_3D('',#765,#621,#622);
#507=AXIS2_PLACEMENT_3D('',#766,#623,#624);
#508=AXIS2_PLACEMENT_3D('',#768,#625,#626);
#509=AXIS2_PLACEMENT_3D('',#769,#627,#628);
#510=AXIS2_PLACEMENT_3D('',#771,#629,#630);
#511=AXIS2_PLACEMENT_3D('',#772,#631,#632);
#512=AXIS2_PLACEMENT_3D('',#790,#633,#634);
#513=AXIS2_PLACEMENT_3D('',#792,#636,#637);
#514=AXIS2_PLACEMENT_3D('',#793,#638,#639);
#515=AXIS2_PLACEMENT_3D('',#811,#640,#641);
#516=AXIS2_PLACEMENT_3D('',#817,#643,#644);
#517=AXIS2_PLACEMENT_3D('',#835,#645,#646);
#518=AXIS2_PLACEMENT_3D('',#837,#648,#649);
#519=AXIS2_PLACEMENT_3D('',#838,#650,#651);
#520=AXIS2_PLACEMENT_3D('',#856,#652,#653);
#521=AXIS2_PLACEMENT_3D('',#858,#655,#656);
#522=AXIS2_PLACEMENT_3D('',#859,#657,#658);
#523=AXIS2_PLACEMENT_3D('',#871,#659,#660);
#524=AXIS2_PLACEMENT_3D('',#874,#662,#663);
#525=AXIS2_PLACEMENT_3D('',#883,#664,#665);
#526=AXIS2_PLACEMENT_3D('',#891,#666,#667);
#527=AXIS2_PLACEMENT_3D('',#907,#669,#670);
#528=AXIS2_PLACEMENT_3D('',#908,#671,#672);
#529=AXIS2_PLACEMENT_3D('',#909,#673,#674);
#530=AXIS2_PLACEMENT_3D('',#910,#675,#676);
#531=AXIS2_PLACEMENT_3D('',#911,#677,#678);
#532=AXIS2_PLACEMENT_3D('',#912,#679,#680);
#533=AXIS2_PLACEMENT_3D('',#913,#681,#682);
#534=AXIS2_PLACEMENT_3D('',#915,#683,#684);
#535=AXIS2_PLACEMENT_3D('',#916,#685,#686);
#536=AXIS2_PLACEMENT_3D('',#918,#688,#689);
#537=DIRECTION('axis',(0.,0.,1.));
#538=DIRECTION('refdir',(1.,0.,0.));
#539=DIRECTION('center_axis',(0.,-1.30614473485313E-16,1.));
#540=DIRECTION('ref_axis',(0.,1.,1.30614473485313E-16));
#541=DIRECTION('center_axis',(0.,1.80411241501588E-16,-1.));
#542=DIRECTION('ref_axis',(0.,1.,1.80411241501588E-16));
#543=DIRECTION('',(0.,-1.30614473485313E-16,1.));
#544=DIRECTION('center_axis',(0.,-1.80411241501588E-16,1.));
#545=DIRECTION('ref_axis',(0.,1.,1.30614473485313E-16));
#546=DIRECTION('',(0.,-1.30614473485313E-16,1.));
#547=DIRECTION('center_axis',(-0.707106781186547,0.,0.707106781186548));
#548=DIRECTION('ref_axis',(-0.707106781186548,9.2358379922575E-17,-0.707106781186547));
#549=DIRECTION('center_axis',(0.,0.,1.));
#550=DIRECTION('ref_axis',(0.,1.,1.30614473485313E-16));
#551=DIRECTION('center_axis',(0.707106781186547,0.,-0.707106781186548));
#552=DIRECTION('ref_axis',(-0.707106781186548,9.2358379922575E-17,-0.707106781186547));
#553=DIRECTION('center_axis',(0.,-1.80411241501588E-16,1.));
#554=DIRECTION('ref_axis',(0.,1.,1.30614473485313E-16));
#555=DIRECTION('center_axis',(0.707106781186547,0.,-0.707106781186548));
#556=DIRECTION('ref_axis',(-0.707106781186548,9.2358379922575E-17,-0.707106781186547));
#557=DIRECTION('center_axis',(0.,0.,1.));
#558=DIRECTION('ref_axis',(0.,1.,1.30614473485313E-16));
#559=DIRECTION('center_axis',(-0.707106781186547,0.,0.707106781186548));
#560=DIRECTION('ref_axis',(-0.707106781186548,9.2358379922575E-17,-0.707106781186547));
#561=DIRECTION('',(0.,1.30614473485313E-16,-1.));
#562=DIRECTION('center_axis',(0.,-1.80411241501588E-16,1.));
#563=DIRECTION('ref_axis',(0.,1.,1.30614473485313E-16));
#564=DIRECTION('center_axis',(-0.707106781186547,0.,0.707106781186548));
#565=DIRECTION('ref_axis',(0.707106781186548,0.,0.707106781186547));
#566=DIRECTION('',(0.707106781186548,0.,0.707106781186547));
#567=DIRECTION('',(-1.80411241501588E-16,-1.,-1.80411241501588E-16));
#568=DIRECTION('center_axis',(0.707106781186547,0.,-0.707106781186548));
#569=DIRECTION('ref_axis',(0.707106781186548,-1.27570012268057E-16,0.707106781186547));
#570=DIRECTION('',(0.,1.,0.));
#571=DIRECTION('center_axis',(-0.707106781186547,0.,0.707106781186548));
#572=DIRECTION('ref_axis',(0.707106781186548,0.,0.707106781186547));
#573=DIRECTION('',(0.,1.,0.));
#574=DIRECTION('center_axis',(0.707106781186547,0.,-0.707106781186548));
#575=DIRECTION('ref_axis',(0.707106781186548,-1.27570012268057E-16,0.707106781186547));
#576=DIRECTION('',(-1.80411241501588E-16,-1.,-1.80411241501588E-16));
#577=DIRECTION('',(-0.707106781186548,0.,-0.707106781186547));
#578=DIRECTION('center_axis',(0.,-1.,0.));
#579=DIRECTION('ref_axis',(0.707106781186548,0.,0.707106781186547));
#580=DIRECTION('',(-1.,0.,0.));
#581=DIRECTION('center_axis',(0.,1.,0.));
#582=DIRECTION('ref_axis',(-0.707106781186548,0.,-0.707106781186547));
#583=DIRECTION('',(1.,0.,0.));
#584=DIRECTION('center_axis',(0.,-1.80411241501588E-16,1.));
#585=DIRECTION('ref_axis',(0.,-1.,-1.80411241501588E-16));
#586=DIRECTION('',(1.80411241501588E-16,1.,1.80411241501588E-16));
#587=DIRECTION('center_axis',(0.,1.80411241501588E-16,-1.));
#588=DIRECTION('ref_axis',(1.,0.,0.));
#589=DIRECTION('',(1.80411241501588E-16,1.,1.80411241501588E-16));
#590=DIRECTION('center_axis',(0.,-1.80411241501588E-16,1.));
#591=DIRECTION('ref_axis',(0.,-1.,-1.80411241501588E-16));
#592=DIRECTION('center_axis',(0.,1.80411241501588E-16,-1.));
#593=DIRECTION('ref_axis',(1.,0.,0.));
#594=DIRECTION('center_axis',(0.,1.80411241501588E-16,-1.));
#595=DIRECTION('ref_axis',(1.,0.,0.));
#596=DIRECTION('center_axis',(0.,-1.80411241501588E-16,1.));
#597=DIRECTION('ref_axis',(-1.,-1.22464679914735E-16,-2.2094004943512E-32));
#598=DIRECTION('center_axis',(-0.707106781186547,0.,0.707106781186548));
#599=DIRECTION('ref_axis',(0.707106781186548,-1.27570012268057E-16,0.707106781186547));
#600=DIRECTION('center_axis',(0.,0.,1.));
#601=DIRECTION('ref_axis',(-1.,0.,0.));
#602=DIRECTION('center_axis',(0.,0.,-1.));
#603=DIRECTION('ref_axis',(1.,0.,0.));
#604=DIRECTION('',(0.,-1.,0.));
#605=DIRECTION('center_axis',(-0.707106781186547,0.,0.707106781186548));
#606=DIRECTION('ref_axis',(0.707106781186548,0.,0.707106781186547));
#607=DIRECTION('center_axis',(0.,-1.80411241501588E-16,1.));
#608=DIRECTION('ref_axis',(-1.,0.,0.));
#609=DIRECTION('center_axis',(0.,-1.80411241501588E-16,1.));
#610=DIRECTION('ref_axis',(-1.,0.,0.));
#611=DIRECTION('center_axis',(0.,-1.80411241501588E-16,1.));
#612=DIRECTION('ref_axis',(-1.,0.,0.));
#613=DIRECTION('center_axis',(0.,-1.80411241501588E-16,1.));
#614=DIRECTION('ref_axis',(-1.,0.,0.));
#615=DIRECTION('center_axis',(0.,-1.80411241501588E-16,1.));
#616=DIRECTION('ref_axis',(-1.,0.,0.));
#617=DIRECTION('center_axis',(0.,-1.80411241501588E-16,1.));
#618=DIRECTION('ref_axis',(-1.,0.,0.));
#619=DIRECTION('center_axis',(0.,-1.80411241501588E-16,1.));
#620=DIRECTION('ref_axis',(-1.,0.,0.));
#621=DIRECTION('center_axis',(0.,-1.80411241501588E-16,1.));
#622=DIRECTION('ref_axis',(-1.,0.,0.));
#623=DIRECTION('center_axis',(0.,-1.80411241501588E-16,1.));
#624=DIRECTION('ref_axis',(-1.,0.,0.));
#625=DIRECTION('center_axis',(0.,-1.80411241501588E-16,1.));
#626=DIRECTION('ref_axis',(-1.,0.,0.));
#627=DIRECTION('center_axis',(0.,-1.80411241501588E-16,1.));
#628=DIRECTION('ref_axis',(-1.,0.,0.));
#629=DIRECTION('center_axis',(0.,-1.80411241501588E-16,1.));
#630=DIRECTION('ref_axis',(-1.,0.,0.));
#631=DIRECTION('center_axis',(0.,-2.22044604925031E-16,1.));
#632=DIRECTION('ref_axis',(-1.,0.,0.));
#633=DIRECTION('center_axis',(0.,-1.80411241501588E-16,1.));
#634=DIRECTION('ref_axis',(-1.,0.,0.));
#635=DIRECTION('',(0.,-2.22044604925031E-16,1.));
#636=DIRECTION('center_axis',(0.,-1.80411241501588E-16,1.));
#637=DIRECTION('ref_axis',(-1.,0.,0.));
#638=DIRECTION('center_axis',(0.,0.,1.));
#639=DIRECTION('ref_axis',(-1.,0.,0.));
#640=DIRECTION('center_axis',(0.,-1.80411241501588E-16,1.));
#641=DIRECTION('ref_axis',(-1.,0.,0.));
#642=DIRECTION('',(0.,0.,1.));
#643=DIRECTION('center_axis',(0.,0.,1.));
#644=DIRECTION('ref_axis',(-1.,0.,0.));
#645=DIRECTION('center_axis',(0.,-1.80411241501588E-16,1.));
#646=DIRECTION('ref_axis',(-1.,0.,0.));
#647=DIRECTION('',(0.,0.,1.));
#648=DIRECTION('center_axis',(0.,-1.80411241501588E-16,1.));
#649=DIRECTION('ref_axis',(-1.,0.,0.));
#650=DIRECTION('center_axis',(0.,0.,1.));
#651=DIRECTION('ref_axis',(-1.,0.,0.));
#652=DIRECTION('center_axis',(0.,-1.80411241501588E-16,1.));
#653=DIRECTION('ref_axis',(-1.,0.,0.));
#654=DIRECTION('',(0.,0.,1.));
#655=DIRECTION('center_axis',(0.,-1.80411241501588E-16,1.));
#656=DIRECTION('ref_axis',(-1.,0.,0.));
#657=DIRECTION('center_axis',(0.,0.,1.));
#658=DIRECTION('ref_axis',(-1.,0.,0.));
#659=DIRECTION('center_axis',(0.,-1.80411241501588E-16,1.));
#660=DIRECTION('ref_axis',(-1.,0.,0.));
#661=DIRECTION('',(0.,0.,1.));
#662=DIRECTION('center_axis',(0.,-1.80411241501588E-16,1.));
#663=DIRECTION('ref_axis',(-1.,0.,0.));
#664=DIRECTION('center_axis',(0.,-2.22044604925031E-16,1.));
#665=DIRECTION('ref_axis',(-1.,0.,0.));
#666=DIRECTION('center_axis',(0.,-1.80411241501588E-16,1.));
#667=DIRECTION('ref_axis',(-1.,0.,0.));
#668=DIRECTION('',(0.,-2.22044604925031E-16,1.));
#669=DIRECTION('center_axis',(0.,-1.80411241501588E-16,1.));
#670=DIRECTION('ref_axis',(0.,-1.,-1.80411241501588E-16));
#671=DIRECTION('center_axis',(0.,1.80411241501588E-16,-1.));
#672=DIRECTION('ref_axis',(0.,1.,1.80411241501588E-16));
#673=DIRECTION('center_axis',(0.,1.80411241501588E-16,-1.));
#674=DIRECTION('ref_axis',(0.,1.,1.80411241501588E-16));
#675=DIRECTION('center_axis',(0.,1.80411241501588E-16,-1.));
#676=DIRECTION('ref_axis',(0.,1.,1.80411241501588E-16));
#677=DIRECTION('center_axis',(0.,1.80411241501588E-16,-1.));
#678=DIRECTION('ref_axis',(0.,1.,1.80411241501588E-16));
#679=DIRECTION('center_axis',(0.,1.80411241501588E-16,-1.));
#680=DIRECTION('ref_axis',(0.,1.,1.80411241501588E-16));
#681=DIRECTION('center_axis',(0.,1.80411241501588E-16,-1.));
#682=DIRECTION('ref_axis',(0.,1.,1.80411241501588E-16));
#683=DIRECTION('center_axis',(0.,1.80411241501588E-16,-1.));
#684=DIRECTION('ref_axis',(0.,-1.,-1.80411241501588E-16));
#685=DIRECTION('center_axis',(0.,1.80411241501588E-16,-1.));
#686=DIRECTION('ref_axis',(0.,1.,1.80411241501588E-16));
#687=DIRECTION('',(-8.659560562355E-17,-0.707106781186553,-0.707106781186542));
#688=DIRECTION('center_axis',(0.,1.80411241501588E-16,-1.));
#689=DIRECTION('ref_axis',(0.,-1.,-1.80411241501588E-16));
#690=DIRECTION('',(0.,1.80411241501588E-16,-1.));
#691=CARTESIAN_POINT('',(0.,0.,0.));
#692=CARTESIAN_POINT('Origin',(0.,4.44089209850063E-15,-27.4379999999999));
#693=CARTESIAN_POINT('',(-4.3383112859795E-15,-35.425,-16.0548932188133));
#694=CARTESIAN_POINT('Origin',(0.,2.22044604925031E-15,-16.0548932188133));
#695=CARTESIAN_POINT('',(4.3383112859795E-15,-35.425,8.88178419700125E-15));
#696=CARTESIAN_POINT('',(4.3383112859795E-15,-35.425,-27.4379999999999));
#697=CARTESIAN_POINT('',(-18.9603827925523,-29.9238117451618,-4.44089209850063E-15));
#698=CARTESIAN_POINT('Origin',(0.,8.57092175010637E-16,0.));
#699=CARTESIAN_POINT('',(-18.9603827925523,-29.9238117451618,-4.97194776198925));
#700=CARTESIAN_POINT('',(-18.9603827925523,-29.9238117451618,-27.4379999999999));
#701=CARTESIAN_POINT('',(-19.0646232854013,-29.8575076653383,-5.07618825483816));
#702=CARTESIAN_POINT('Origin',(0.,-9.69999901389865E-16,13.9884350305631));
#703=CARTESIAN_POINT('',(-25.4285843160802,-24.664097889037,-5.07618825483817));
#704=CARTESIAN_POINT('Origin',(0.,1.52011583122865E-15,-5.07618825483817));
#705=CARTESIAN_POINT('',(-20.352396061242,-28.9950099080228,-4.44089209850063E-15));
#706=CARTESIAN_POINT('Origin',(0.,-1.80122532069304E-15,20.352396061242));
#707=CARTESIAN_POINT('',(-20.352396061242,28.9950099080228,4.44089209850063E-15));
#708=CARTESIAN_POINT('Origin',(0.,8.57092175010637E-16,0.));
#709=CARTESIAN_POINT('',(-25.4285843160802,24.664097889037,-5.07618825483817));
#710=CARTESIAN_POINT('Origin',(0.,-1.80122532069304E-15,20.352396061242));
#711=CARTESIAN_POINT('',(-19.0646232854013,29.8575076653383,-5.07618825483816));
#712=CARTESIAN_POINT('Origin',(0.,1.52011583122865E-15,-5.07618825483817));
#713=CARTESIAN_POINT('',(-17.0059151047468,31.0761882548382,-3.01748007418368));
#714=CARTESIAN_POINT('Origin',(0.,-9.69999901389865E-16,13.9884350305631));
#715=CARTESIAN_POINT('',(-17.0059151047468,31.0761882548382,4.44089209850063E-15));
#716=CARTESIAN_POINT('',(-17.0059151047468,31.0761882548382,-27.4379999999999));
#717=CARTESIAN_POINT('Origin',(0.,8.57092175010637E-16,0.));
#718=CARTESIAN_POINT('Origin',(7.80543439968753,0.576188254838191,21.7938694302506));
#719=CARTESIAN_POINT('',(-13.9884350305631,-29.9238117451618,-6.66133814775094E-15));
#720=CARTESIAN_POINT('',(-22.2466038007407,-29.9238117451618,-8.25816877017764));
#721=CARTESIAN_POINT('',(-13.9884350305631,-17.2706198613633,-2.22044604925031E-15));
#722=CARTESIAN_POINT('',(-13.9884350305631,0.288094127419104,0.));
#723=CARTESIAN_POINT('',(-19.0646232854013,-11.4232554022807,-5.07618825483816));
#724=CARTESIAN_POINT('Origin',(0.,-3.00939350380169E-15,13.9884350305631));
#725=CARTESIAN_POINT('',(-19.0646232854013,15.8261882548382,-5.07618825483816));
#726=CARTESIAN_POINT('Origin',(7.80543439968753,0.576188254838191,21.7938694302506));
#727=CARTESIAN_POINT('',(-19.0646232854013,11.4232554022807,-5.07618825483816));
#728=CARTESIAN_POINT('',(-19.0646232854013,15.8261882548382,-5.07618825483816));
#729=CARTESIAN_POINT('',(-13.9884350305631,17.2706198613633,2.22044604925031E-15));
#730=CARTESIAN_POINT('Origin',(0.,-3.00939350380169E-15,13.9884350305631));
#731=CARTESIAN_POINT('',(-13.9884350305631,31.0761882548382,8.88178419700125E-15));
#732=CARTESIAN_POINT('',(-13.9884350305631,0.288094127419104,0.));
#733=CARTESIAN_POINT('',(37.8574726001158,31.0761882548382,51.8459076306789));
#734=CARTESIAN_POINT('Origin',(-22.2466038007407,-29.9238117451618,-8.25816877017764));
#735=CARTESIAN_POINT('',(5.95819809962963,-29.9238117451618,-5.55111512312578E-15));
#736=CARTESIAN_POINT('Origin',(37.8574726001158,31.0761882548382,51.8459076306789));
#737=CARTESIAN_POINT('',(36.0102363000579,31.0761882548382,4.44089209850063E-15));
#738=CARTESIAN_POINT('Origin',(34.163,0.,0.));
#739=CARTESIAN_POINT('',(-20.352396061242,-8.92919926792659,-2.22044604925031E-15));
#740=CARTESIAN_POINT('',(-20.352396061242,0.288094127419105,0.));
#741=CARTESIAN_POINT('',(-20.352396061242,8.9291992679266,2.22044604925031E-15));
#742=CARTESIAN_POINT('Origin',(0.,-4.85722573273504E-16,0.));
#743=CARTESIAN_POINT('',(-20.352396061242,0.288094127419105,0.));
#744=CARTESIAN_POINT('Origin',(34.163,0.,0.));
#745=CARTESIAN_POINT('',(2.72177751110499E-15,22.225,8.88178419700125E-15));
#746=CARTESIAN_POINT('Origin',(0.,-4.85722573273504E-16,0.));
#747=CARTESIAN_POINT('Origin',(0.,-4.85722573273504E-16,0.));
#748=CARTESIAN_POINT('Origin',(0.,2.22044604925031E-15,-15.));
#749=CARTESIAN_POINT('Origin',(0.,-4.1575236142142E-15,20.352396061242));
#750=CARTESIAN_POINT('Origin',(-19.0646232854012,31.0761882548382,-5.07618825483816));
#751=CARTESIAN_POINT('Origin',(0.,4.30078851877629E-16,-5.07618825483817));
#752=CARTESIAN_POINT('',(-25.4285843160802,31.0761882548382,-5.07618825483816));
#753=CARTESIAN_POINT('Origin',(4.62345388434809,0.576188254838191,24.9758499455901));
#754=CARTESIAN_POINT('Origin',(0.,1.08246744900953E-15,-6.));
#755=CARTESIAN_POINT('',(31.42858431608,14.6812000000003,-6.));
#756=CARTESIAN_POINT('Origin',(25.42858431608,14.6812000000003,-6.));
#757=CARTESIAN_POINT('Origin',(0.,1.08246744900953E-15,-6.));
#758=CARTESIAN_POINT('',(6.00000000000021,-29.3624,-6.));
#759=CARTESIAN_POINT('Origin',(2.05036662084476E-13,-29.3624,-6.));
#760=CARTESIAN_POINT('Origin',(0.,1.08246744900953E-15,-6.));
#761=CARTESIAN_POINT('',(-19.4285843160801,-14.6812000000001,-6.));
#762=CARTESIAN_POINT('Origin',(-25.4285843160801,-14.6812000000001,-6.));
#763=CARTESIAN_POINT('Origin',(0.,1.08246744900953E-15,-6.));
#764=CARTESIAN_POINT('',(6.,29.3624,-6.));
#765=CARTESIAN_POINT('Origin',(0.,29.3624,-6.));
#766=CARTESIAN_POINT('Origin',(0.,1.08246744900953E-15,-6.));
#767=CARTESIAN_POINT('',(31.4285843160803,-14.6811999999998,-6.));
#768=CARTESIAN_POINT('Origin',(25.4285843160803,-14.6811999999998,-6.));
#769=CARTESIAN_POINT('Origin',(0.,1.08246744900953E-15,-6.));
#770=CARTESIAN_POINT('',(-19.4285843160802,14.6811999999999,-6.));
#771=CARTESIAN_POINT('Origin',(-25.4285843160802,14.6811999999999,-6.));
#772=CARTESIAN_POINT('Origin',(-25.4285843160802,14.6811999999999,-15.));
#773=CARTESIAN_POINT('',(-27.8188661222239,20.1845219865112,-15.));
#774=CARTESIAN_POINT('',(-31.3897418646763,13.9995837730685,-15.));
#775=CARTESIAN_POINT('Ctrl Pts',(-27.8188661222239,20.1845219865112,-15.));
#776=CARTESIAN_POINT('Ctrl Pts',(-28.1303151961033,20.0492489538486,-15.1726424251736));
#777=CARTESIAN_POINT('Ctrl Pts',(-28.4383803854763,19.8837322328478,-15.3285514148423));
#778=CARTESIAN_POINT('Ctrl Pts',(-29.1109848910576,19.4397994689862,-15.6324639851938));
#779=CARTESIAN_POINT('Ctrl Pts',(-29.4683404035174,19.1418502994381,-15.7665490202567));
#780=CARTESIAN_POINT('Ctrl Pts',(-30.1084602274273,18.4648215183622,-15.9464625999766));
#781=CARTESIAN_POINT('Ctrl Pts',(-30.3911918728839,18.0857115735908,-15.9922932188134));
#782=CARTESIAN_POINT('Ctrl Pts',(-30.8582816046899,17.276688426409,-15.9922932188133));
#783=CARTESIAN_POINT('Ctrl Pts',(-31.045234624961,16.8422806666042,-15.9464625999766));
#784=CARTESIAN_POINT('Ctrl Pts',(-31.3114988365109,15.9494062470943,-15.7665490202567));
#785=CARTESIAN_POINT('Ctrl Pts',(-31.3908526301461,15.4909527103475,-15.6324639851938));
#786=CARTESIAN_POINT('Ctrl Pts',(-31.4390074284319,14.6864937398836,-15.3285514148423));
#787=CARTESIAN_POINT('Ctrl Pts',(-31.4283165188832,14.3369430993644,-15.1726424251736));
#788=CARTESIAN_POINT('Ctrl Pts',(-31.3897418646763,13.9995837730684,-15.));
#789=CARTESIAN_POINT('',(-19.4285843160802,14.6811999999999,-15.));
#790=CARTESIAN_POINT('Origin',(-25.4285843160802,14.6811999999999,-15.));
#791=CARTESIAN_POINT('',(-19.4285843160802,14.6811999999999,-15.));
#792=CARTESIAN_POINT('Origin',(-25.4285843160802,14.6811999999999,-15.));
#793=CARTESIAN_POINT('Origin',(25.4285843160803,-14.6811999999998,-15.));
#794=CARTESIAN_POINT('',(27.8188661222241,-20.184521986511,-15.));
#795=CARTESIAN_POINT('',(31.4285843160803,-14.6812000000008,-15.3184150315546));
#796=CARTESIAN_POINT('Ctrl Pts',(27.818866122224,-20.184521986511,-15.));
#797=CARTESIAN_POINT('Ctrl Pts',(28.1303151961034,-20.0492489538484,-15.1726424251736));
#798=CARTESIAN_POINT('Ctrl Pts',(28.4383803854765,-19.8837322328476,-15.3285514148423));
#799=CARTESIAN_POINT('Ctrl Pts',(29.1109848910577,-19.439799468986,-15.6324639851938));
#800=CARTESIAN_POINT('Ctrl Pts',(29.4683404035175,-19.1418502994378,-15.7665490202567));
#801=CARTESIAN_POINT('Ctrl Pts',(30.1084602274275,-18.464821518362,-15.9464625999766));
#802=CARTESIAN_POINT('Ctrl Pts',(30.391191872884,-18.0857115735906,-15.9922932188134));
#803=CARTESIAN_POINT('Ctrl Pts',(30.85828160469,-17.2766884264088,-15.9922932188134));
#804=CARTESIAN_POINT('Ctrl Pts',(31.0452346249611,-16.842280666604,-15.9464625999766));
#805=CARTESIAN_POINT('Ctrl Pts',(31.311498836511,-15.949406247094,-15.7665490202567));
#806=CARTESIAN_POINT('Ctrl Pts',(31.3908526301463,-15.4909527103473,-15.6324639851938));
#807=CARTESIAN_POINT('Ctrl Pts',(31.4250489658276,-14.9196794421542,-15.416645486446));
#808=CARTESIAN_POINT('Ctrl Pts',(31.4285843160803,-14.8000586024887,-15.3687194787792));
#809=CARTESIAN_POINT('Ctrl Pts',(31.4285843160803,-14.6812000000018,-15.3184150315546));
#810=CARTESIAN_POINT('',(31.3897418646764,-13.9995837730682,-15.));
#811=CARTESIAN_POINT('Origin',(25.4285843160803,-14.6811999999998,-15.));
#812=CARTESIAN_POINT('Ctrl Pts',(31.4285843160803,-14.6812000000018,-15.3184150315546));
#813=CARTESIAN_POINT('Ctrl Pts',(31.4285843160803,-14.4503049657052,-15.2206934798605));
#814=CARTESIAN_POINT('Ctrl Pts',(31.4152074929626,-14.2222965200514,-15.1139724494308));
#815=CARTESIAN_POINT('Ctrl Pts',(31.3897418646764,-13.9995837730682,-15.));
#816=CARTESIAN_POINT('',(31.4285843160803,-14.6811999999998,-15.));
#817=CARTESIAN_POINT('Origin',(0.,29.3624,-15.));
#818=CARTESIAN_POINT('',(3.57087574245238,34.1841057595798,-15.));
#819=CARTESIAN_POINT('',(-3.57087574245238,34.1841057595798,-15.));
#820=CARTESIAN_POINT('Ctrl Pts',(3.57087574245239,34.1841057595798,-15.));
#821=CARTESIAN_POINT('Ctrl Pts',(3.29800132277992,34.3861920532132,-15.1726424251736));
#822=CARTESIAN_POINT('Ctrl Pts',(3.00062704295555,34.5702259727315,-15.3285514148422));
#823=CARTESIAN_POINT('Ctrl Pts',(2.27986773908861,34.9307521793339,-15.6324639851938));
#824=CARTESIAN_POINT('Ctrl Pts',(1.8431584329935,35.0912565465325,-15.7665490202567));
#825=CARTESIAN_POINT('Ctrl Pts',(0.936774397533672,35.3071021849666,-15.9464625999766));
#826=CARTESIAN_POINT('Ctrl Pts',(0.467089731806037,35.3624,-15.9922932188133));
#827=CARTESIAN_POINT('Ctrl Pts',(-0.467089731806035,35.3624,-15.9922932188133));
#828=CARTESIAN_POINT('Ctrl Pts',(-0.936774397533671,35.3071021849666,-15.9464625999766));
#829=CARTESIAN_POINT('Ctrl Pts',(-1.8431584329935,35.0912565465325,-15.7665490202567));
#830=CARTESIAN_POINT('Ctrl Pts',(-2.27986773908861,34.9307521793339,-15.6324639851938));
#831=CARTESIAN_POINT('Ctrl Pts',(-3.00062704295555,34.5702259727315,-15.3285514148422));
#832=CARTESIAN_POINT('Ctrl Pts',(-3.29800132277992,34.3861920532132,-15.1726424251736));
#833=CARTESIAN_POINT('Ctrl Pts',(-3.57087574245239,34.1841057595798,-15.));
#834=CARTESIAN_POINT('',(6.,29.3624,-15.));
#835=CARTESIAN_POINT('Origin',(0.,29.3624,-15.));
#836=CARTESIAN_POINT('',(6.,29.3624,-15.));
#837=CARTESIAN_POINT('Origin',(0.,29.3624,-15.));
#838=CARTESIAN_POINT('Origin',(-25.4285843160801,-14.6812000000001,-15.));
#839=CARTESIAN_POINT('',(-31.3897418646762,-13.9995837730686,-15.));
#840=CARTESIAN_POINT('',(-27.8188661222238,-20.1845219865114,-15.));
#841=CARTESIAN_POINT('Ctrl Pts',(-31.3897418646762,-13.9995837730686,-15.));
#842=CARTESIAN_POINT('Ctrl Pts',(-31.4283165188831,-14.3369430993646,-15.1726424251737));
#843=CARTESIAN_POINT('Ctrl Pts',(-31.4390074284318,-14.6864937398838,-15.3285514148423));
#844=CARTESIAN_POINT('Ctrl Pts',(-31.3908526301461,-15.4909527103478,-15.6324639851938));
#845=CARTESIAN_POINT('Ctrl Pts',(-31.3114988365108,-15.9494062470945,-15.7665490202567));
#846=CARTESIAN_POINT('Ctrl Pts',(-31.0452346249609,-16.8422806666044,-15.9464625999766));
#847=CARTESIAN_POINT('Ctrl Pts',(-30.8582816046898,-17.2766884264093,-15.9922932188134));
#848=CARTESIAN_POINT('Ctrl Pts',(-30.3911918728837,-18.085711573591,-15.9922932188134));
#849=CARTESIAN_POINT('Ctrl Pts',(-30.1084602274272,-18.4648215183625,-15.9464625999766));
#850=CARTESIAN_POINT('Ctrl Pts',(-29.4683404035173,-19.1418502994383,-15.7665490202567));
#851=CARTESIAN_POINT('Ctrl Pts',(-29.1109848910574,-19.4397994689864,-15.6324639851938));
#852=CARTESIAN_POINT('Ctrl Pts',(-28.4383803854762,-19.883732232848,-15.3285514148423));
#853=CARTESIAN_POINT('Ctrl Pts',(-28.1303151961032,-20.0492489538488,-15.1726424251736));
#854=CARTESIAN_POINT('Ctrl Pts',(-27.8188661222238,-20.1845219865114,-15.));
#855=CARTESIAN_POINT('',(-19.4285843160801,-14.6812000000001,-15.));
#856=CARTESIAN_POINT('Origin',(-25.4285843160801,-14.6812000000001,-15.));
#857=CARTESIAN_POINT('',(-19.4285843160801,-14.6812000000001,-15.));
#858=CARTESIAN_POINT('Origin',(-25.4285843160801,-14.6812000000001,-15.));
#859=CARTESIAN_POINT('Origin',(2.05036662084476E-13,-29.3624,-15.));
#860=CARTESIAN_POINT('',(-3.57087574245214,-34.1841057595798,-15.));
#861=CARTESIAN_POINT('',(1.2058371066161E-13,-35.3624,-15.9922932188134));
#862=CARTESIAN_POINT('Ctrl Pts',(-3.57087574245215,-34.1841057595798,-15.));
#863=CARTESIAN_POINT('Ctrl Pts',(-3.29800132277968,-34.3861920532132,-15.1726424251736));
#864=CARTESIAN_POINT('Ctrl Pts',(-3.00062704295531,-34.5702259727315,-15.3285514148423));
#865=CARTESIAN_POINT('Ctrl Pts',(-2.27986773908837,-34.9307521793339,-15.6324639851938));
#866=CARTESIAN_POINT('Ctrl Pts',(-1.84315843299327,-35.0912565465325,-15.7665490202567));
#867=CARTESIAN_POINT('Ctrl Pts',(-0.936774397533435,-35.3071021849666,-15.9464625999766));
#868=CARTESIAN_POINT('Ctrl Pts',(-0.46708973180579,-35.3624,-15.9922932188134));
#869=CARTESIAN_POINT('Ctrl Pts',(2.45914399954472E-13,-35.3624,-15.9922932188134));
#870=CARTESIAN_POINT('',(6.00000000000021,-29.3624,-15.));
#871=CARTESIAN_POINT('Origin',(2.05036662084476E-13,-29.3624,-15.));
#872=CARTESIAN_POINT('',(6.00000000000021,-29.3624,-15.));
#873=CARTESIAN_POINT('',(3.57087574245262,-34.1841057595798,-15.));
#874=CARTESIAN_POINT('Origin',(2.05036662084476E-13,-29.3624,-15.));
#875=CARTESIAN_POINT('Ctrl Pts',(2.45636844198316E-13,-35.3624,-15.9922932188134));
#876=CARTESIAN_POINT('Ctrl Pts',(0.467089731806281,-35.3624,-15.9922932188133));
#877=CARTESIAN_POINT('Ctrl Pts',(0.936774397533919,-35.3071021849666,-15.9464625999766));
#878=CARTESIAN_POINT('Ctrl Pts',(1.84315843299375,-35.0912565465324,-15.7665490202567));
#879=CARTESIAN_POINT('Ctrl Pts',(2.27986773908885,-34.9307521793339,-15.6324639851938));
#880=CARTESIAN_POINT('Ctrl Pts',(3.00062704295579,-34.5702259727314,-15.3285514148423));
#881=CARTESIAN_POINT('Ctrl Pts',(3.29800132278016,-34.3861920532132,-15.1726424251736));
#882=CARTESIAN_POINT('Ctrl Pts',(3.57087574245263,-34.1841057595798,-15.));
#883=CARTESIAN_POINT('Origin',(25.42858431608,14.6812000000003,-15.));
#884=CARTESIAN_POINT('',(31.3897418646761,13.9995837730689,-15.));
#885=CARTESIAN_POINT('',(31.42858431608,14.6812000000013,-15.3184150315545));
#886=CARTESIAN_POINT('Ctrl Pts',(31.3897418646761,13.9995837730689,-15.));
#887=CARTESIAN_POINT('Ctrl Pts',(31.4152074929623,14.222296520052,-15.1139724494307));
#888=CARTESIAN_POINT('Ctrl Pts',(31.4285843160801,14.4503049657057,-15.2206934798605));
#889=CARTESIAN_POINT('Ctrl Pts',(31.42858431608,14.6812000000024,-15.3184150315545));
#890=CARTESIAN_POINT('',(27.8188661222236,20.1845219865116,-15.));
#891=CARTESIAN_POINT('Origin',(25.42858431608,14.6812000000003,-15.));
#892=CARTESIAN_POINT('Ctrl Pts',(31.42858431608,14.6812000000024,-15.3184150315545));
#893=CARTESIAN_POINT('Ctrl Pts',(31.42858431608,14.8000586024892,-15.3687194787792));
#894=CARTESIAN_POINT('Ctrl Pts',(31.4250489658273,14.9196794421548,-15.416645486446));
#895=CARTESIAN_POINT('Ctrl Pts',(31.3908526301459,15.490952710348,-15.6324639851938));
#896=CARTESIAN_POINT('Ctrl Pts',(31.3114988365107,15.9494062470947,-15.7665490202567));
#897=CARTESIAN_POINT('Ctrl Pts',(31.0452346249608,16.8422806666046,-15.9464625999766));
#898=CARTESIAN_POINT('Ctrl Pts',(30.8582816046897,17.2766884264095,-15.9922932188134));
#899=CARTESIAN_POINT('Ctrl Pts',(30.3911918728836,18.0857115735912,-15.9922932188134));
#900=CARTESIAN_POINT('Ctrl Pts',(30.1084602274271,18.4648215183627,-15.9464625999766));
#901=CARTESIAN_POINT('Ctrl Pts',(29.4683404035171,19.1418502994385,-15.7665490202567));
#902=CARTESIAN_POINT('Ctrl Pts',(29.1109848910573,19.4397994689866,-15.6324639851938));
#903=CARTESIAN_POINT('Ctrl Pts',(28.4383803854761,19.8837322328482,-15.3285514148423));
#904=CARTESIAN_POINT('Ctrl Pts',(28.130315196103,20.049248953849,-15.1726424251736));
#905=CARTESIAN_POINT('Ctrl Pts',(27.8188661222236,20.1845219865116,-15.));
#906=CARTESIAN_POINT('',(31.42858431608,14.6812000000003,-15.));
#907=CARTESIAN_POINT('Origin',(34.163,2.22044604925031E-15,-15.));
#908=CARTESIAN_POINT('Origin',(0.,2.22044604925031E-15,-15.));
#909=CARTESIAN_POINT('Origin',(0.,2.22044604925031E-15,-15.));
#910=CARTESIAN_POINT('Origin',(0.,2.22044604925031E-15,-15.));
#911=CARTESIAN_POINT('Origin',(0.,2.22044604925031E-15,-15.));
#912=CARTESIAN_POINT('Origin',(0.,2.22044604925031E-15,-15.));
#913=CARTESIAN_POINT('Origin',(0.,2.22044604925031E-15,-15.));
#914=CARTESIAN_POINT('',(2.72177751110499E-15,22.225,-15.));
#915=CARTESIAN_POINT('Origin',(0.,2.22044604925031E-15,-15.));
#916=CARTESIAN_POINT('Origin',(0.,2.22044604925031E-15,-15.9084466094066));
#917=CARTESIAN_POINT('',(-4.3203767488339E-15,-35.2785533905933,-15.9084466094066));
#918=CARTESIAN_POINT('Origin',(0.,2.22044604925031E-15,-15.));
#919=CARTESIAN_POINT('',(2.72177751110499E-15,22.225,-15.));
#920=UNCERTAINTY_MEASURE_WITH_UNIT(LENGTH_MEASURE(0.01),#924,
'DISTANCE_ACCURACY_VALUE',
'Maximum model space distance between geometric entities at asserted c
onnectivities');
#921=UNCERTAINTY_MEASURE_WITH_UNIT(LENGTH_MEASURE(0.01),#924,
'DISTANCE_ACCURACY_VALUE',
'Maximum model space distance between geometric entities at asserted c
onnectivities');
#922=(
GEOMETRIC_REPRESENTATION_CONTEXT(3)
GLOBAL_UNCERTAINTY_ASSIGNED_CONTEXT((#920))
GLOBAL_UNIT_ASSIGNED_CONTEXT((#924,#925,#926))
REPRESENTATION_CONTEXT('','3D')
);
#923=(
GEOMETRIC_REPRESENTATION_CONTEXT(3)
GLOBAL_UNCERTAINTY_ASSIGNED_CONTEXT((#921))
GLOBAL_UNIT_ASSIGNED_CONTEXT((#924,#925,#926))
REPRESENTATION_CONTEXT('','3D')
);
#924=(
LENGTH_UNIT()
NAMED_UNIT(*)
SI_UNIT(.MILLI.,.METRE.)
);
#925=(
NAMED_UNIT(*)
PLANE_ANGLE_UNIT()
SI_UNIT($,.RADIAN.)
);
#926=(
NAMED_UNIT(*)
SI_UNIT($,.STERADIAN.)
SOLID_ANGLE_UNIT()
);
#927=SHAPE_DEFINITION_REPRESENTATION(#928,#929);
#928=PRODUCT_DEFINITION_SHAPE('',$,#931);
#929=SHAPE_REPRESENTATION('',(#471),#922);
#930=PRODUCT_DEFINITION_CONTEXT('part definition',#935,'design');
#931=PRODUCT_DEFINITION('Mirror mount temporary',
'Mirror mount temporary v15',#932,#930);
#932=PRODUCT_DEFINITION_FORMATION('',$,#937);
#933=PRODUCT_RELATED_PRODUCT_CATEGORY('Mirror mount temporary v15',
'Mirror mount temporary v15',(#937));
#934=APPLICATION_PROTOCOL_DEFINITION('international standard',
'automotive_design',2009,#935);
#935=APPLICATION_CONTEXT(
'Core Data for Automotive Mechanical Design Process');
#936=PRODUCT_CONTEXT('part definition',#935,'mechanical');
#937=PRODUCT('Mirror mount temporary','Mirror mount temporary v15',$,(#936));
#938=PRESENTATION_STYLE_ASSIGNMENT((#939));
#939=SURFACE_STYLE_USAGE(.BOTH.,#940);
#940=SURFACE_SIDE_STYLE('',(#941));
#941=SURFACE_STYLE_FILL_AREA(#942);
#942=FILL_AREA_STYLE('Steel - Satin',(#943));
#943=FILL_AREA_STYLE_COLOUR('Steel - Satin',#944);
#944=COLOUR_RGB('Steel - Satin',0.627450980392157,0.627450980392157,0.627450980392157);
ENDSEC;
END-ISO-10303-21;
