ISO-10303-21;
HEADER;
/* Generated by software containing ST-Developer
 * from STEP Tools, Inc. (www.steptools.com) 
 */

FILE_DESCRIPTION(
/* description */ (''),
/* implementation_level */ '2;1');

FILE_NAME(
/* name */ 'Mirror Mount- New Version v3.step',
/* time_stamp */ '2024-06-25T15:16:37+02:00',
/* author */ (''),
/* organization */ (''),
/* preprocessor_version */ 'ST-DEVELOPER v20',
/* originating_system */ 'Autodesk Translation Framework v13.14.0.145',

/* authorisation */ '');

FILE_SCHEMA (('AUTOMOTIVE_DESIGN { 1 0 10303 214 3 1 1 }'));
ENDSEC;

DATA;
#10=MECHANICAL_DESIGN_GEOMETRIC_PRESENTATION_REPRESENTATION('',(#17),#710);
#11=ITEM_DEFINED_TRANSFORMATION($,$,#402,#457);
#12=(
REPRESENTATION_RELATIONSHIP($,$,#721,#720)
REPRESENTATION_RELATIONSHIP_WITH_TRANSFORMATION(#11)
SHAPE_REPRESENTATION_RELATIONSHIP()
);
#13=CONTEXT_DEPENDENT_SHAPE_REPRESENTATION(#12,#719);
#14=NEXT_ASSEMBLY_USAGE_OCCURRENCE('Component1:1','Component1:1',
'Component1:1',#723,#724,'Component1:1');
#15=SHAPE_REPRESENTATION_RELATIONSHIP('SRR','None',#721,#16);
#16=ADVANCED_BREP_SHAPE_REPRESENTATION('',(#18),#709);
#17=STYLED_ITEM('',(#734),#18);
#18=MANIFOLD_SOLID_BREP('Body1',#388);
#19=FACE_BOUND('',#106,.T.);
#20=FACE_BOUND('',#107,.T.);
#21=FACE_BOUND('',#108,.T.);
#22=FACE_BOUND('',#109,.T.);
#23=FACE_BOUND('',#110,.T.);
#24=FACE_BOUND('',#111,.T.);
#25=FACE_BOUND('',#112,.T.);
#26=CYLINDRICAL_SURFACE('',#423,22.225);
#27=CYLINDRICAL_SURFACE('',#425,22.225);
#28=CYLINDRICAL_SURFACE('',#427,6.);
#29=CYLINDRICAL_SURFACE('',#431,6.);
#30=CYLINDRICAL_SURFACE('',#435,6.);
#31=CYLINDRICAL_SURFACE('',#439,6.);
#32=CYLINDRICAL_SURFACE('',#443,6.);
#33=CYLINDRICAL_SURFACE('',#447,6.);
#34=CYLINDRICAL_SURFACE('',#451,35.425);
#35=CIRCLE('',#413,35.425);
#36=CIRCLE('',#414,22.225);
#37=CIRCLE('',#415,22.225);
#38=CIRCLE('',#416,35.425);
#39=CIRCLE('',#421,35.425);
#40=CIRCLE('',#422,22.225);
#41=CIRCLE('',#424,22.225);
#42=CIRCLE('',#426,22.225);
#43=CIRCLE('',#428,6.);
#44=CIRCLE('',#429,6.);
#45=CIRCLE('',#432,6.);
#46=CIRCLE('',#433,6.);
#47=CIRCLE('',#436,6.);
#48=CIRCLE('',#437,6.);
#49=CIRCLE('',#440,6.);
#50=CIRCLE('',#441,6.);
#51=CIRCLE('',#444,6.);
#52=CIRCLE('',#445,6.);
#53=CIRCLE('',#448,6.);
#54=CIRCLE('',#449,6.);
#55=CIRCLE('',#452,35.425);
#56=CIRCLE('',#453,35.425);
#57=CIRCLE('',#454,35.425);
#58=FACE_OUTER_BOUND('',#82,.T.);
#59=FACE_OUTER_BOUND('',#83,.T.);
#60=FACE_OUTER_BOUND('',#84,.T.);
#61=FACE_OUTER_BOUND('',#85,.T.);
#62=FACE_OUTER_BOUND('',#86,.T.);
#63=FACE_OUTER_BOUND('',#87,.T.);
#64=FACE_OUTER_BOUND('',#88,.T.);
#65=FACE_OUTER_BOUND('',#89,.T.);
#66=FACE_OUTER_BOUND('',#90,.T.);
#67=FACE_OUTER_BOUND('',#91,.T.);
#68=FACE_OUTER_BOUND('',#92,.T.);
#69=FACE_OUTER_BOUND('',#93,.T.);
#70=FACE_OUTER_BOUND('',#94,.T.);
#71=FACE_OUTER_BOUND('',#95,.T.);
#72=FACE_OUTER_BOUND('',#96,.T.);
#73=FACE_OUTER_BOUND('',#97,.T.);
#74=FACE_OUTER_BOUND('',#98,.T.);
#75=FACE_OUTER_BOUND('',#99,.T.);
#76=FACE_OUTER_BOUND('',#100,.T.);
#77=FACE_OUTER_BOUND('',#101,.T.);
#78=FACE_OUTER_BOUND('',#102,.T.);
#79=FACE_OUTER_BOUND('',#103,.T.);
#80=FACE_OUTER_BOUND('',#104,.T.);
#81=FACE_OUTER_BOUND('',#105,.T.);
#82=EDGE_LOOP('',(#247,#248,#249,#250,#251,#252));
#83=EDGE_LOOP('',(#253,#254,#255));
#84=EDGE_LOOP('',(#256,#257,#258,#259,#260));
#85=EDGE_LOOP('',(#261,#262,#263));
#86=EDGE_LOOP('',(#264,#265,#266,#267,#268,#269,#270));
#87=EDGE_LOOP('',(#271,#272,#273,#274,#275));
#88=EDGE_LOOP('',(#276,#277,#278,#279,#280,#281));
#89=EDGE_LOOP('',(#282,#283,#284,#285,#286,#287,#288,#289));
#90=EDGE_LOOP('',(#290,#291));
#91=EDGE_LOOP('',(#292,#293,#294,#295));
#92=EDGE_LOOP('',(#296));
#93=EDGE_LOOP('',(#297,#298,#299,#300));
#94=EDGE_LOOP('',(#301));
#95=EDGE_LOOP('',(#302,#303,#304,#305));
#96=EDGE_LOOP('',(#306));
#97=EDGE_LOOP('',(#307,#308,#309,#310));
#98=EDGE_LOOP('',(#311));
#99=EDGE_LOOP('',(#312,#313,#314,#315));
#100=EDGE_LOOP('',(#316));
#101=EDGE_LOOP('',(#317,#318,#319,#320));
#102=EDGE_LOOP('',(#321));
#103=EDGE_LOOP('',(#322,#323,#324,#325,#326,#327,#328,#329,#330,#331,#332,
#333,#334,#335));
#104=EDGE_LOOP('',(#336,#337,#338,#339,#340));
#105=EDGE_LOOP('',(#341));
#106=EDGE_LOOP('',(#342));
#107=EDGE_LOOP('',(#343));
#108=EDGE_LOOP('',(#344));
#109=EDGE_LOOP('',(#345));
#110=EDGE_LOOP('',(#346));
#111=EDGE_LOOP('',(#347));
#112=EDGE_LOOP('',(#348));
#113=LINE('',#600,#134);
#114=LINE('',#604,#135);
#115=LINE('',#607,#136);
#116=LINE('',#611,#137);
#117=LINE('',#613,#138);
#118=LINE('',#614,#139);
#119=LINE('',#619,#140);
#120=LINE('',#622,#141);
#121=LINE('',#626,#142);
#122=LINE('',#628,#143);
#123=LINE('',#629,#144);
#124=LINE('',#634,#145);
#125=LINE('',#642,#146);
#126=LINE('',#649,#147);
#127=LINE('',#657,#148);
#128=LINE('',#664,#149);
#129=LINE('',#671,#150);
#130=LINE('',#678,#151);
#131=LINE('',#685,#152);
#132=LINE('',#692,#153);
#133=LINE('',#699,#154);
#134=VECTOR('',#466,10.);
#135=VECTOR('',#469,10.);
#136=VECTOR('',#472,10.);
#137=VECTOR('',#475,10.);
#138=VECTOR('',#476,10.);
#139=VECTOR('',#477,10.);
#140=VECTOR('',#482,10.);
#141=VECTOR('',#485,10.);
#142=VECTOR('',#488,10.);
#143=VECTOR('',#489,10.);
#144=VECTOR('',#490,10.);
#145=VECTOR('',#495,10.);
#146=VECTOR('',#506,10.);
#147=VECTOR('',#517,22.225);
#148=VECTOR('',#528,6.);
#149=VECTOR('',#537,6.);
#150=VECTOR('',#546,6.);
#151=VECTOR('',#555,6.);
#152=VECTOR('',#564,6.);
#153=VECTOR('',#573,6.);
#154=VECTOR('',#582,35.425);
#155=ELLIPSE('',#404,48.4375753094178,35.425);
#156=ELLIPSE('',#405,48.4375753094178,35.425);
#157=ELLIPSE('',#406,30.3888528229163,22.225);
#158=ELLIPSE('',#409,48.4375753094178,35.425);
#159=ELLIPSE('',#410,30.3888528229163,22.225);
#160=ELLIPSE('',#418,48.4375753094178,35.425);
#161=ELLIPSE('',#419,30.3888528229163,22.225);
#162=VERTEX_POINT('',#596);
#163=VERTEX_POINT('',#597);
#164=VERTEX_POINT('',#599);
#165=VERTEX_POINT('',#601);
#166=VERTEX_POINT('',#603);
#167=VERTEX_POINT('',#605);
#168=VERTEX_POINT('',#609);
#169=VERTEX_POINT('',#610);
#170=VERTEX_POINT('',#612);
#171=VERTEX_POINT('',#616);
#172=VERTEX_POINT('',#618);
#173=VERTEX_POINT('',#620);
#174=VERTEX_POINT('',#624);
#175=VERTEX_POINT('',#625);
#176=VERTEX_POINT('',#627);
#177=VERTEX_POINT('',#631);
#178=VERTEX_POINT('',#633);
#179=VERTEX_POINT('',#635);
#180=VERTEX_POINT('',#641);
#181=VERTEX_POINT('',#648);
#182=VERTEX_POINT('',#654);
#183=VERTEX_POINT('',#656);
#184=VERTEX_POINT('',#661);
#185=VERTEX_POINT('',#663);
#186=VERTEX_POINT('',#668);
#187=VERTEX_POINT('',#670);
#188=VERTEX_POINT('',#675);
#189=VERTEX_POINT('',#677);
#190=VERTEX_POINT('',#682);
#191=VERTEX_POINT('',#684);
#192=VERTEX_POINT('',#689);
#193=VERTEX_POINT('',#691);
#194=VERTEX_POINT('',#696);
#195=VERTEX_POINT('',#698);
#196=EDGE_CURVE('',#162,#163,#155,.T.);
#197=EDGE_CURVE('',#162,#164,#113,.T.);
#198=EDGE_CURVE('',#165,#164,#156,.T.);
#199=EDGE_CURVE('',#166,#165,#114,.T.);
#200=EDGE_CURVE('',#167,#166,#157,.T.);
#201=EDGE_CURVE('',#163,#167,#115,.T.);
#202=EDGE_CURVE('',#168,#169,#116,.T.);
#203=EDGE_CURVE('',#170,#168,#117,.T.);
#204=EDGE_CURVE('',#169,#170,#118,.T.);
#205=EDGE_CURVE('',#171,#168,#158,.T.);
#206=EDGE_CURVE('',#172,#171,#119,.T.);
#207=EDGE_CURVE('',#173,#172,#159,.T.);
#208=EDGE_CURVE('',#170,#173,#120,.T.);
#209=EDGE_CURVE('',#174,#175,#121,.T.);
#210=EDGE_CURVE('',#176,#174,#122,.T.);
#211=EDGE_CURVE('',#175,#176,#123,.T.);
#212=EDGE_CURVE('',#177,#162,#35,.T.);
#213=EDGE_CURVE('',#177,#178,#124,.T.);
#214=EDGE_CURVE('',#179,#178,#36,.T.);
#215=EDGE_CURVE('',#172,#179,#37,.T.);
#216=EDGE_CURVE('',#164,#171,#38,.T.);
#217=EDGE_CURVE('',#175,#177,#160,.T.);
#218=EDGE_CURVE('',#180,#176,#125,.T.);
#219=EDGE_CURVE('',#178,#180,#161,.T.);
#220=EDGE_CURVE('',#174,#169,#39,.T.);
#221=EDGE_CURVE('',#173,#180,#40,.T.);
#222=EDGE_CURVE('',#179,#181,#126,.T.);
#223=EDGE_CURVE('',#181,#181,#41,.T.);
#224=EDGE_CURVE('',#167,#166,#42,.T.);
#225=EDGE_CURVE('',#182,#182,#43,.T.);
#226=EDGE_CURVE('',#182,#183,#127,.T.);
#227=EDGE_CURVE('',#183,#183,#44,.T.);
#228=EDGE_CURVE('',#184,#184,#45,.T.);
#229=EDGE_CURVE('',#184,#185,#128,.T.);
#230=EDGE_CURVE('',#185,#185,#46,.T.);
#231=EDGE_CURVE('',#186,#186,#47,.T.);
#232=EDGE_CURVE('',#186,#187,#129,.T.);
#233=EDGE_CURVE('',#187,#187,#48,.T.);
#234=EDGE_CURVE('',#188,#188,#49,.T.);
#235=EDGE_CURVE('',#188,#189,#130,.T.);
#236=EDGE_CURVE('',#189,#189,#50,.T.);
#237=EDGE_CURVE('',#190,#190,#51,.T.);
#238=EDGE_CURVE('',#190,#191,#131,.T.);
#239=EDGE_CURVE('',#191,#191,#52,.T.);
#240=EDGE_CURVE('',#192,#192,#53,.T.);
#241=EDGE_CURVE('',#192,#193,#132,.T.);
#242=EDGE_CURVE('',#193,#193,#54,.T.);
#243=EDGE_CURVE('',#194,#163,#55,.T.);
#244=EDGE_CURVE('',#194,#195,#133,.T.);
#245=EDGE_CURVE('',#195,#195,#56,.T.);
#246=EDGE_CURVE('',#165,#194,#57,.T.);
#247=ORIENTED_EDGE('',*,*,#196,.F.);
#248=ORIENTED_EDGE('',*,*,#197,.T.);
#249=ORIENTED_EDGE('',*,*,#198,.F.);
#250=ORIENTED_EDGE('',*,*,#199,.F.);
#251=ORIENTED_EDGE('',*,*,#200,.F.);
#252=ORIENTED_EDGE('',*,*,#201,.F.);
#253=ORIENTED_EDGE('',*,*,#202,.F.);
#254=ORIENTED_EDGE('',*,*,#203,.F.);
#255=ORIENTED_EDGE('',*,*,#204,.F.);
#256=ORIENTED_EDGE('',*,*,#205,.F.);
#257=ORIENTED_EDGE('',*,*,#206,.F.);
#258=ORIENTED_EDGE('',*,*,#207,.F.);
#259=ORIENTED_EDGE('',*,*,#208,.F.);
#260=ORIENTED_EDGE('',*,*,#203,.T.);
#261=ORIENTED_EDGE('',*,*,#209,.F.);
#262=ORIENTED_EDGE('',*,*,#210,.F.);
#263=ORIENTED_EDGE('',*,*,#211,.F.);
#264=ORIENTED_EDGE('',*,*,#212,.F.);
#265=ORIENTED_EDGE('',*,*,#213,.T.);
#266=ORIENTED_EDGE('',*,*,#214,.F.);
#267=ORIENTED_EDGE('',*,*,#215,.F.);
#268=ORIENTED_EDGE('',*,*,#206,.T.);
#269=ORIENTED_EDGE('',*,*,#216,.F.);
#270=ORIENTED_EDGE('',*,*,#197,.F.);
#271=ORIENTED_EDGE('',*,*,#217,.F.);
#272=ORIENTED_EDGE('',*,*,#211,.T.);
#273=ORIENTED_EDGE('',*,*,#218,.F.);
#274=ORIENTED_EDGE('',*,*,#219,.F.);
#275=ORIENTED_EDGE('',*,*,#213,.F.);
#276=ORIENTED_EDGE('',*,*,#210,.T.);
#277=ORIENTED_EDGE('',*,*,#220,.T.);
#278=ORIENTED_EDGE('',*,*,#204,.T.);
#279=ORIENTED_EDGE('',*,*,#208,.T.);
#280=ORIENTED_EDGE('',*,*,#221,.T.);
#281=ORIENTED_EDGE('',*,*,#218,.T.);
#282=ORIENTED_EDGE('',*,*,#219,.T.);
#283=ORIENTED_EDGE('',*,*,#221,.F.);
#284=ORIENTED_EDGE('',*,*,#207,.T.);
#285=ORIENTED_EDGE('',*,*,#215,.T.);
#286=ORIENTED_EDGE('',*,*,#222,.T.);
#287=ORIENTED_EDGE('',*,*,#223,.T.);
#288=ORIENTED_EDGE('',*,*,#222,.F.);
#289=ORIENTED_EDGE('',*,*,#214,.T.);
#290=ORIENTED_EDGE('',*,*,#200,.T.);
#291=ORIENTED_EDGE('',*,*,#224,.F.);
#292=ORIENTED_EDGE('',*,*,#225,.F.);
#293=ORIENTED_EDGE('',*,*,#226,.T.);
#294=ORIENTED_EDGE('',*,*,#227,.T.);
#295=ORIENTED_EDGE('',*,*,#226,.F.);
#296=ORIENTED_EDGE('',*,*,#227,.F.);
#297=ORIENTED_EDGE('',*,*,#228,.F.);
#298=ORIENTED_EDGE('',*,*,#229,.T.);
#299=ORIENTED_EDGE('',*,*,#230,.T.);
#300=ORIENTED_EDGE('',*,*,#229,.F.);
#301=ORIENTED_EDGE('',*,*,#230,.F.);
#302=ORIENTED_EDGE('',*,*,#231,.F.);
#303=ORIENTED_EDGE('',*,*,#232,.T.);
#304=ORIENTED_EDGE('',*,*,#233,.T.);
#305=ORIENTED_EDGE('',*,*,#232,.F.);
#306=ORIENTED_EDGE('',*,*,#233,.F.);
#307=ORIENTED_EDGE('',*,*,#234,.F.);
#308=ORIENTED_EDGE('',*,*,#235,.T.);
#309=ORIENTED_EDGE('',*,*,#236,.T.);
#310=ORIENTED_EDGE('',*,*,#235,.F.);
#311=ORIENTED_EDGE('',*,*,#236,.F.);
#312=ORIENTED_EDGE('',*,*,#237,.F.);
#313=ORIENTED_EDGE('',*,*,#238,.T.);
#314=ORIENTED_EDGE('',*,*,#239,.T.);
#315=ORIENTED_EDGE('',*,*,#238,.F.);
#316=ORIENTED_EDGE('',*,*,#239,.F.);
#317=ORIENTED_EDGE('',*,*,#240,.F.);
#318=ORIENTED_EDGE('',*,*,#241,.T.);
#319=ORIENTED_EDGE('',*,*,#242,.T.);
#320=ORIENTED_EDGE('',*,*,#241,.F.);
#321=ORIENTED_EDGE('',*,*,#242,.F.);
#322=ORIENTED_EDGE('',*,*,#196,.T.);
#323=ORIENTED_EDGE('',*,*,#243,.F.);
#324=ORIENTED_EDGE('',*,*,#244,.T.);
#325=ORIENTED_EDGE('',*,*,#245,.T.);
#326=ORIENTED_EDGE('',*,*,#244,.F.);
#327=ORIENTED_EDGE('',*,*,#246,.F.);
#328=ORIENTED_EDGE('',*,*,#198,.T.);
#329=ORIENTED_EDGE('',*,*,#216,.T.);
#330=ORIENTED_EDGE('',*,*,#205,.T.);
#331=ORIENTED_EDGE('',*,*,#202,.T.);
#332=ORIENTED_EDGE('',*,*,#220,.F.);
#333=ORIENTED_EDGE('',*,*,#209,.T.);
#334=ORIENTED_EDGE('',*,*,#217,.T.);
#335=ORIENTED_EDGE('',*,*,#212,.T.);
#336=ORIENTED_EDGE('',*,*,#201,.T.);
#337=ORIENTED_EDGE('',*,*,#224,.T.);
#338=ORIENTED_EDGE('',*,*,#199,.T.);
#339=ORIENTED_EDGE('',*,*,#246,.T.);
#340=ORIENTED_EDGE('',*,*,#243,.T.);
#341=ORIENTED_EDGE('',*,*,#245,.F.);
#342=ORIENTED_EDGE('',*,*,#225,.T.);
#343=ORIENTED_EDGE('',*,*,#228,.T.);
#344=ORIENTED_EDGE('',*,*,#231,.T.);
#345=ORIENTED_EDGE('',*,*,#234,.T.);
#346=ORIENTED_EDGE('',*,*,#237,.T.);
#347=ORIENTED_EDGE('',*,*,#240,.T.);
#348=ORIENTED_EDGE('',*,*,#223,.F.);
#349=PLANE('',#403);
#350=PLANE('',#407);
#351=PLANE('',#408);
#352=PLANE('',#411);
#353=PLANE('',#412);
#354=PLANE('',#417);
#355=PLANE('',#420);
#356=PLANE('',#430);
#357=PLANE('',#434);
#358=PLANE('',#438);
#359=PLANE('',#442);
#360=PLANE('',#446);
#361=PLANE('',#450);
#362=PLANE('',#455);
#363=PLANE('',#456);
#364=ADVANCED_FACE('',(#58),#349,.F.);
#365=ADVANCED_FACE('',(#59),#350,.F.);
#366=ADVANCED_FACE('',(#60),#351,.F.);
#367=ADVANCED_FACE('',(#61),#352,.F.);
#368=ADVANCED_FACE('',(#62),#353,.F.);
#369=ADVANCED_FACE('',(#63),#354,.F.);
#370=ADVANCED_FACE('',(#64),#355,.T.);
#371=ADVANCED_FACE('',(#65),#26,.F.);
#372=ADVANCED_FACE('',(#66),#27,.F.);
#373=ADVANCED_FACE('',(#67),#28,.F.);
#374=ADVANCED_FACE('',(#68),#356,.F.);
#375=ADVANCED_FACE('',(#69),#29,.F.);
#376=ADVANCED_FACE('',(#70),#357,.F.);
#377=ADVANCED_FACE('',(#71),#30,.F.);
#378=ADVANCED_FACE('',(#72),#358,.F.);
#379=ADVANCED_FACE('',(#73),#31,.F.);
#380=ADVANCED_FACE('',(#74),#359,.F.);
#381=ADVANCED_FACE('',(#75),#32,.F.);
#382=ADVANCED_FACE('',(#76),#360,.F.);
#383=ADVANCED_FACE('',(#77),#33,.F.);
#384=ADVANCED_FACE('',(#78),#361,.F.);
#385=ADVANCED_FACE('',(#79),#34,.T.);
#386=ADVANCED_FACE('',(#80),#362,.T.);
#387=ADVANCED_FACE('',(#81,#19,#20,#21,#22,#23,#24,#25),#363,.F.);
#388=CLOSED_SHELL('',(#364,#365,#366,#367,#368,#369,#370,#371,#372,#373,
#374,#375,#376,#377,#378,#379,#380,#381,#382,#383,#384,#385,#386,#387));
#389=DERIVED_UNIT_ELEMENT(#391,1.);
#390=DERIVED_UNIT_ELEMENT(#712,-3.);
#391=(
MASS_UNIT()
NAMED_UNIT(*)
SI_UNIT(.KILO.,.GRAM.)
);
#392=DERIVED_UNIT((#389,#390));
#393=MEASURE_REPRESENTATION_ITEM('density measure',
POSITIVE_RATIO_MEASURE(7850.),#392);
#394=PROPERTY_DEFINITION_REPRESENTATION(#399,#396);
#395=PROPERTY_DEFINITION_REPRESENTATION(#400,#397);
#396=REPRESENTATION('material name',(#398),#709);
#397=REPRESENTATION('density',(#393),#709);
#398=DESCRIPTIVE_REPRESENTATION_ITEM('Steel','Steel');
#399=PROPERTY_DEFINITION('material property','material name',#724);
#400=PROPERTY_DEFINITION('material property','density of part',#724);
#401=AXIS2_PLACEMENT_3D('',#593,#458,#459);
#402=AXIS2_PLACEMENT_3D('',#594,#460,#461);
#403=AXIS2_PLACEMENT_3D('',#595,#462,#463);
#404=AXIS2_PLACEMENT_3D('',#598,#464,#465);
#405=AXIS2_PLACEMENT_3D('',#602,#467,#468);
#406=AXIS2_PLACEMENT_3D('',#606,#470,#471);
#407=AXIS2_PLACEMENT_3D('',#608,#473,#474);
#408=AXIS2_PLACEMENT_3D('',#615,#478,#479);
#409=AXIS2_PLACEMENT_3D('',#617,#480,#481);
#410=AXIS2_PLACEMENT_3D('',#621,#483,#484);
#411=AXIS2_PLACEMENT_3D('',#623,#486,#487);
#412=AXIS2_PLACEMENT_3D('',#630,#491,#492);
#413=AXIS2_PLACEMENT_3D('',#632,#493,#494);
#414=AXIS2_PLACEMENT_3D('',#636,#496,#497);
#415=AXIS2_PLACEMENT_3D('',#637,#498,#499);
#416=AXIS2_PLACEMENT_3D('',#638,#500,#501);
#417=AXIS2_PLACEMENT_3D('',#639,#502,#503);
#418=AXIS2_PLACEMENT_3D('',#640,#504,#505);
#419=AXIS2_PLACEMENT_3D('',#643,#507,#508);
#420=AXIS2_PLACEMENT_3D('',#644,#509,#510);
#421=AXIS2_PLACEMENT_3D('',#645,#511,#512);
#422=AXIS2_PLACEMENT_3D('',#646,#513,#514);
#423=AXIS2_PLACEMENT_3D('',#647,#515,#516);
#424=AXIS2_PLACEMENT_3D('',#650,#518,#519);
#425=AXIS2_PLACEMENT_3D('',#651,#520,#521);
#426=AXIS2_PLACEMENT_3D('',#652,#522,#523);
#427=AXIS2_PLACEMENT_3D('',#653,#524,#525);
#428=AXIS2_PLACEMENT_3D('',#655,#526,#527);
#429=AXIS2_PLACEMENT_3D('',#658,#529,#530);
#430=AXIS2_PLACEMENT_3D('',#659,#531,#532);
#431=AXIS2_PLACEMENT_3D('',#660,#533,#534);
#432=AXIS2_PLACEMENT_3D('',#662,#535,#536);
#433=AXIS2_PLACEMENT_3D('',#665,#538,#539);
#434=AXIS2_PLACEMENT_3D('',#666,#540,#541);
#435=AXIS2_PLACEMENT_3D('',#667,#542,#543);
#436=AXIS2_PLACEMENT_3D('',#669,#544,#545);
#437=AXIS2_PLACEMENT_3D('',#672,#547,#548);
#438=AXIS2_PLACEMENT_3D('',#673,#549,#550);
#439=AXIS2_PLACEMENT_3D('',#674,#551,#552);
#440=AXIS2_PLACEMENT_3D('',#676,#553,#554);
#441=AXIS2_PLACEMENT_3D('',#679,#556,#557);
#442=AXIS2_PLACEMENT_3D('',#680,#558,#559);
#443=AXIS2_PLACEMENT_3D('',#681,#560,#561);
#444=AXIS2_PLACEMENT_3D('',#683,#562,#563);
#445=AXIS2_PLACEMENT_3D('',#686,#565,#566);
#446=AXIS2_PLACEMENT_3D('',#687,#567,#568);
#447=AXIS2_PLACEMENT_3D('',#688,#569,#570);
#448=AXIS2_PLACEMENT_3D('',#690,#571,#572);
#449=AXIS2_PLACEMENT_3D('',#693,#574,#575);
#450=AXIS2_PLACEMENT_3D('',#694,#576,#577);
#451=AXIS2_PLACEMENT_3D('',#695,#578,#579);
#452=AXIS2_PLACEMENT_3D('',#697,#580,#581);
#453=AXIS2_PLACEMENT_3D('',#700,#583,#584);
#454=AXIS2_PLACEMENT_3D('',#701,#585,#586);
#455=AXIS2_PLACEMENT_3D('',#702,#587,#588);
#456=AXIS2_PLACEMENT_3D('',#703,#589,#590);
#457=AXIS2_PLACEMENT_3D('',#704,#591,#592);
#458=DIRECTION('axis',(0.,0.,1.));
#459=DIRECTION('refdir',(1.,0.,0.));
#460=DIRECTION('axis',(0.,0.,1.));
#461=DIRECTION('refdir',(1.,0.,0.));
#462=DIRECTION('center_axis',(-0.681998360062499,0.,0.73135370161917));
#463=DIRECTION('ref_axis',(0.73135370161917,0.,0.681998360062499));
#464=DIRECTION('center_axis',(-0.681998360062499,0.,0.73135370161917));
#465=DIRECTION('ref_axis',(0.73135370161917,0.,0.681998360062499));
#466=DIRECTION('',(0.,1.,0.));
#467=DIRECTION('center_axis',(-0.681998360062499,0.,0.73135370161917));
#468=DIRECTION('ref_axis',(0.73135370161917,0.,0.681998360062499));
#469=DIRECTION('',(0.,1.,0.));
#470=DIRECTION('center_axis',(0.681998360062499,0.,-0.73135370161917));
#471=DIRECTION('ref_axis',(0.73135370161917,0.,0.681998360062499));
#472=DIRECTION('',(0.,1.,0.));
#473=DIRECTION('center_axis',(0.,1.,0.));
#474=DIRECTION('ref_axis',(0.,0.,1.));
#475=DIRECTION('',(0.,0.,1.));
#476=DIRECTION('',(-0.731353701619169,0.,-0.6819983600625));
#477=DIRECTION('',(1.,0.,0.));
#478=DIRECTION('center_axis',(0.6819983600625,0.,-0.731353701619169));
#479=DIRECTION('ref_axis',(-0.731353701619169,0.,-0.6819983600625));
#480=DIRECTION('center_axis',(0.6819983600625,0.,-0.731353701619169));
#481=DIRECTION('ref_axis',(0.731353701619169,0.,0.6819983600625));
#482=DIRECTION('',(0.,1.,0.));
#483=DIRECTION('center_axis',(-0.6819983600625,0.,0.731353701619169));
#484=DIRECTION('ref_axis',(0.731353701619169,0.,0.6819983600625));
#485=DIRECTION('',(0.,-1.,0.));
#486=DIRECTION('center_axis',(0.,-1.,0.));
#487=DIRECTION('ref_axis',(0.,0.,-1.));
#488=DIRECTION('',(0.,0.,-1.));
#489=DIRECTION('',(-1.,0.,0.));
#490=DIRECTION('',(0.731353701619169,0.,0.6819983600625));
#491=DIRECTION('center_axis',(-1.68260062688441E-16,0.,-1.));
#492=DIRECTION('ref_axis',(-1.,0.,1.68260062688441E-16));
#493=DIRECTION('center_axis',(-1.68260062688441E-16,0.,-1.));
#494=DIRECTION('ref_axis',(1.,0.,0.));
#495=DIRECTION('',(0.,1.,0.));
#496=DIRECTION('center_axis',(1.68260062688441E-16,0.,1.));
#497=DIRECTION('ref_axis',(1.,0.,0.));
#498=DIRECTION('center_axis',(1.68260062688441E-16,0.,1.));
#499=DIRECTION('ref_axis',(1.,0.,0.));
#500=DIRECTION('center_axis',(-1.68260062688441E-16,0.,-1.));
#501=DIRECTION('ref_axis',(1.,0.,0.));
#502=DIRECTION('center_axis',(0.6819983600625,0.,-0.731353701619169));
#503=DIRECTION('ref_axis',(-0.731353701619169,0.,-0.6819983600625));
#504=DIRECTION('center_axis',(0.6819983600625,0.,-0.731353701619169));
#505=DIRECTION('ref_axis',(0.731353701619169,0.,0.6819983600625));
#506=DIRECTION('',(0.,-1.,0.));
#507=DIRECTION('center_axis',(-0.6819983600625,0.,0.731353701619169));
#508=DIRECTION('ref_axis',(0.731353701619169,0.,0.6819983600625));
#509=DIRECTION('center_axis',(0.,0.,1.));
#510=DIRECTION('ref_axis',(1.,0.,0.));
#511=DIRECTION('center_axis',(0.,0.,1.));
#512=DIRECTION('ref_axis',(1.,0.,0.));
#513=DIRECTION('center_axis',(0.,0.,-1.));
#514=DIRECTION('ref_axis',(1.,0.,0.));
#515=DIRECTION('center_axis',(0.,0.,1.));
#516=DIRECTION('ref_axis',(1.,0.,0.));
#517=DIRECTION('',(0.,0.,-1.));
#518=DIRECTION('center_axis',(0.,0.,-1.));
#519=DIRECTION('ref_axis',(1.,0.,0.));
#520=DIRECTION('center_axis',(0.,0.,1.));
#521=DIRECTION('ref_axis',(-1.,-1.22464679914735E-16,0.));
#522=DIRECTION('center_axis',(0.,0.,-1.));
#523=DIRECTION('ref_axis',(1.,0.,0.));
#524=DIRECTION('center_axis',(0.,0.,1.));
#525=DIRECTION('ref_axis',(1.,0.,0.));
#526=DIRECTION('center_axis',(0.,0.,1.));
#527=DIRECTION('ref_axis',(1.,0.,0.));
#528=DIRECTION('',(0.,0.,1.));
#529=DIRECTION('center_axis',(0.,0.,1.));
#530=DIRECTION('ref_axis',(1.,0.,0.));
#531=DIRECTION('center_axis',(0.,0.,1.));
#532=DIRECTION('ref_axis',(1.,0.,0.));
#533=DIRECTION('center_axis',(0.,0.,1.));
#534=DIRECTION('ref_axis',(1.,0.,0.));
#535=DIRECTION('center_axis',(0.,0.,1.));
#536=DIRECTION('ref_axis',(1.,0.,0.));
#537=DIRECTION('',(0.,0.,1.));
#538=DIRECTION('center_axis',(0.,0.,1.));
#539=DIRECTION('ref_axis',(1.,0.,0.));
#540=DIRECTION('center_axis',(0.,0.,1.));
#541=DIRECTION('ref_axis',(1.,0.,0.));
#542=DIRECTION('center_axis',(0.,0.,1.));
#543=DIRECTION('ref_axis',(1.,0.,0.));
#544=DIRECTION('center_axis',(0.,0.,1.));
#545=DIRECTION('ref_axis',(1.,0.,0.));
#546=DIRECTION('',(0.,0.,1.));
#547=DIRECTION('center_axis',(0.,0.,1.));
#548=DIRECTION('ref_axis',(1.,0.,0.));
#549=DIRECTION('center_axis',(0.,0.,1.));
#550=DIRECTION('ref_axis',(1.,0.,0.));
#551=DIRECTION('center_axis',(0.,0.,1.));
#552=DIRECTION('ref_axis',(1.,0.,0.));
#553=DIRECTION('center_axis',(0.,0.,1.));
#554=DIRECTION('ref_axis',(1.,0.,0.));
#555=DIRECTION('',(0.,0.,1.));
#556=DIRECTION('center_axis',(0.,0.,1.));
#557=DIRECTION('ref_axis',(1.,0.,0.));
#558=DIRECTION('center_axis',(0.,0.,1.));
#559=DIRECTION('ref_axis',(1.,0.,0.));
#560=DIRECTION('center_axis',(0.,0.,1.));
#561=DIRECTION('ref_axis',(1.,0.,0.));
#562=DIRECTION('center_axis',(0.,0.,1.));
#563=DIRECTION('ref_axis',(1.,0.,0.));
#564=DIRECTION('',(0.,0.,1.));
#565=DIRECTION('center_axis',(0.,0.,1.));
#566=DIRECTION('ref_axis',(1.,0.,0.));
#567=DIRECTION('center_axis',(0.,0.,1.));
#568=DIRECTION('ref_axis',(1.,0.,0.));
#569=DIRECTION('center_axis',(0.,0.,1.));
#570=DIRECTION('ref_axis',(1.,0.,0.));
#571=DIRECTION('center_axis',(0.,0.,1.));
#572=DIRECTION('ref_axis',(1.,0.,0.));
#573=DIRECTION('',(0.,0.,1.));
#574=DIRECTION('center_axis',(0.,0.,1.));
#575=DIRECTION('ref_axis',(1.,0.,0.));
#576=DIRECTION('center_axis',(0.,0.,1.));
#577=DIRECTION('ref_axis',(1.,0.,0.));
#578=DIRECTION('center_axis',(0.,0.,1.));
#579=DIRECTION('ref_axis',(1.,0.,0.));
#580=DIRECTION('center_axis',(0.,0.,1.));
#581=DIRECTION('ref_axis',(1.,0.,0.));
#582=DIRECTION('',(0.,0.,-1.));
#583=DIRECTION('center_axis',(0.,0.,1.));
#584=DIRECTION('ref_axis',(1.,0.,0.));
#585=DIRECTION('center_axis',(0.,0.,1.));
#586=DIRECTION('ref_axis',(1.,0.,0.));
#587=DIRECTION('center_axis',(0.,0.,1.));
#588=DIRECTION('ref_axis',(1.,0.,0.));
#589=DIRECTION('center_axis',(0.,0.,1.));
#590=DIRECTION('ref_axis',(1.,0.,0.));
#591=DIRECTION('',(0.,0.,1.));
#592=DIRECTION('',(1.,0.,0.));
#593=CARTESIAN_POINT('',(0.,0.,0.));
#594=CARTESIAN_POINT('',(0.,0.,0.));
#595=CARTESIAN_POINT('Origin',(-26.,0.,9.92399999999999));
#596=CARTESIAN_POINT('',(-26.,-24.0609772245435,9.924));
#597=CARTESIAN_POINT('',(-20.5566564279147,-28.8505546134675,15.));
#598=CARTESIAN_POINT('Origin',(0.,0.,34.1693922395793));
#599=CARTESIAN_POINT('',(-26.,24.0609772245435,9.924));
#600=CARTESIAN_POINT('',(-26.,0.,9.924));
#601=CARTESIAN_POINT('',(-20.5566564279147,28.8505546134675,15.));
#602=CARTESIAN_POINT('Origin',(0.,0.,34.1693922395793));
#603=CARTESIAN_POINT('',(-20.5566564279147,8.44834312185961,15.));
#604=CARTESIAN_POINT('',(-20.5566564279147,0.,15.));
#605=CARTESIAN_POINT('',(-20.5566564279147,-8.44834312185961,15.));
#606=CARTESIAN_POINT('Origin',(0.,0.,34.1693922395793));
#607=CARTESIAN_POINT('',(-20.5566564279147,0.,15.));
#608=CARTESIAN_POINT('Origin',(-19.4430156912559,30.5,14.6075458286431));
#609=CARTESIAN_POINT('',(-18.0188963313517,30.5,11.2135260000995));
#610=CARTESIAN_POINT('',(-18.0188963313517,30.5,15.));
#611=CARTESIAN_POINT('',(-18.0188963313517,30.5,0.));
#612=CARTESIAN_POINT('',(-13.9584000925364,30.5,15.));
#613=CARTESIAN_POINT('',(-19.4017436646217,30.5,9.92399999999999));
#614=CARTESIAN_POINT('',(-9.72150784562793,30.5,15.));
#615=CARTESIAN_POINT('Origin',(-12.8860313825117,0.,16.));
#616=CARTESIAN_POINT('',(-19.4017436646217,29.6395507349945,9.92399999999999));
#617=CARTESIAN_POINT('Origin',(0.,0.,28.0164186646356));
#618=CARTESIAN_POINT('',(-19.4017436646217,10.8408010669098,9.92399999999999));
#619=CARTESIAN_POINT('',(-19.4017436646217,0.,9.92399999999999));
#620=CARTESIAN_POINT('',(-13.9584000925364,17.2949036382594,15.));
#621=CARTESIAN_POINT('Origin',(0.,0.,28.0164186646356));
#622=CARTESIAN_POINT('',(-13.9584000925364,0.,15.));
#623=CARTESIAN_POINT('Origin',(-19.4430156912559,-30.5,14.6075458286431));
#624=CARTESIAN_POINT('',(-18.0188963313517,-30.5,15.));
#625=CARTESIAN_POINT('',(-18.0188963313517,-30.5,11.2135260000995));
#626=CARTESIAN_POINT('',(-18.0188963313517,-30.5,0.));
#627=CARTESIAN_POINT('',(-13.9584000925364,-30.5,15.));
#628=CARTESIAN_POINT('',(-9.72150784562793,-30.5,15.));
#629=CARTESIAN_POINT('',(-19.4017436646217,-30.5,9.92399999999999));
#630=CARTESIAN_POINT('Origin',(-19.4017436646217,0.,9.92399999999999));
#631=CARTESIAN_POINT('',(-19.4017436646217,-29.6395507349945,9.92399999999999));
#632=CARTESIAN_POINT('Origin',(0.,0.,9.92399999999999));
#633=CARTESIAN_POINT('',(-19.4017436646217,-10.8408010669098,9.92399999999999));
#634=CARTESIAN_POINT('',(-19.4017436646217,0.,9.92399999999999));
#635=CARTESIAN_POINT('',(-22.225,-2.72177751110499E-15,9.924));
#636=CARTESIAN_POINT('Origin',(0.,0.,9.92399999999999));
#637=CARTESIAN_POINT('Origin',(0.,0.,9.92399999999999));
#638=CARTESIAN_POINT('Origin',(0.,0.,9.92399999999999));
#639=CARTESIAN_POINT('Origin',(-12.8860313825117,0.,16.));
#640=CARTESIAN_POINT('Origin',(0.,0.,28.0164186646356));
#641=CARTESIAN_POINT('',(-13.9584000925364,-17.2949036382594,15.));
#642=CARTESIAN_POINT('',(-13.9584000925364,0.,15.));
#643=CARTESIAN_POINT('Origin',(0.,0.,28.0164186646356));
#644=CARTESIAN_POINT('Origin',(0.,0.,15.));
#645=CARTESIAN_POINT('Origin',(0.,0.,15.));
#646=CARTESIAN_POINT('Origin',(0.,0.,15.));
#647=CARTESIAN_POINT('Origin',(0.,0.,0.));
#648=CARTESIAN_POINT('',(-22.225,-2.72177751110499E-15,0.));
#649=CARTESIAN_POINT('',(-22.225,-2.72177751110499E-15,0.));
#650=CARTESIAN_POINT('Origin',(0.,0.,0.));
#651=CARTESIAN_POINT('Origin',(0.,0.,0.));
#652=CARTESIAN_POINT('Origin',(0.,0.,15.));
#653=CARTESIAN_POINT('Origin',(25.4286709186206,-14.68125,0.));
#654=CARTESIAN_POINT('',(19.4286709186206,-14.68125,0.));
#655=CARTESIAN_POINT('Origin',(25.4286709186206,-14.68125,0.));
#656=CARTESIAN_POINT('',(19.4286709186206,-14.68125,9.));
#657=CARTESIAN_POINT('',(19.4286709186206,-14.68125,0.));
#658=CARTESIAN_POINT('Origin',(25.4286709186206,-14.68125,9.));
#659=CARTESIAN_POINT('Origin',(25.4286709186206,-14.68125,9.));
#660=CARTESIAN_POINT('Origin',(-25.4286709186206,-14.68125,0.));
#661=CARTESIAN_POINT('',(-31.4286709186206,-14.68125,0.));
#662=CARTESIAN_POINT('Origin',(-25.4286709186206,-14.68125,0.));
#663=CARTESIAN_POINT('',(-31.4286709186206,-14.68125,9.));
#664=CARTESIAN_POINT('',(-31.4286709186206,-14.68125,0.));
#665=CARTESIAN_POINT('Origin',(-25.4286709186206,-14.68125,9.));
#666=CARTESIAN_POINT('Origin',(-25.4286709186206,-14.68125,9.));
#667=CARTESIAN_POINT('Origin',(25.4286709186206,14.68125,0.));
#668=CARTESIAN_POINT('',(19.4286709186206,14.68125,0.));
#669=CARTESIAN_POINT('Origin',(25.4286709186206,14.68125,0.));
#670=CARTESIAN_POINT('',(19.4286709186206,14.68125,9.));
#671=CARTESIAN_POINT('',(19.4286709186206,14.68125,0.));
#672=CARTESIAN_POINT('Origin',(25.4286709186206,14.68125,9.));
#673=CARTESIAN_POINT('Origin',(25.4286709186206,14.68125,9.));
#674=CARTESIAN_POINT('Origin',(-3.59586916399642E-15,-29.3625,0.));
#675=CARTESIAN_POINT('',(-6.,-29.3625,0.));
#676=CARTESIAN_POINT('Origin',(-3.59586916399642E-15,-29.3625,0.));
#677=CARTESIAN_POINT('',(-6.,-29.3625,9.));
#678=CARTESIAN_POINT('',(-6.,-29.3625,0.));
#679=CARTESIAN_POINT('Origin',(-3.59586916399642E-15,-29.3625,9.));
#680=CARTESIAN_POINT('Origin',(-3.33066907387547E-15,-29.3625,9.));
#681=CARTESIAN_POINT('Origin',(-25.4286709186206,14.68125,0.));
#682=CARTESIAN_POINT('',(-31.4286709186206,14.68125,0.));
#683=CARTESIAN_POINT('Origin',(-25.4286709186206,14.68125,0.));
#684=CARTESIAN_POINT('',(-31.4286709186206,14.68125,9.));
#685=CARTESIAN_POINT('',(-31.4286709186206,14.68125,0.));
#686=CARTESIAN_POINT('Origin',(-25.4286709186206,14.68125,9.));
#687=CARTESIAN_POINT('Origin',(-25.4286709186206,14.68125,9.));
#688=CARTESIAN_POINT('Origin',(0.,29.3625,0.));
#689=CARTESIAN_POINT('',(-6.,29.3625,0.));
#690=CARTESIAN_POINT('Origin',(0.,29.3625,0.));
#691=CARTESIAN_POINT('',(-6.,29.3625,9.));
#692=CARTESIAN_POINT('',(-6.,29.3625,0.));
#693=CARTESIAN_POINT('Origin',(0.,29.3625,9.));
#694=CARTESIAN_POINT('Origin',(0.,29.3625,9.));
#695=CARTESIAN_POINT('Origin',(0.,0.,0.));
#696=CARTESIAN_POINT('',(-35.425,-4.3383112859795E-15,15.));
#697=CARTESIAN_POINT('Origin',(0.,0.,15.));
#698=CARTESIAN_POINT('',(-35.425,-4.3383112859795E-15,0.));
#699=CARTESIAN_POINT('',(-35.425,-4.3383112859795E-15,0.));
#700=CARTESIAN_POINT('Origin',(0.,0.,0.));
#701=CARTESIAN_POINT('Origin',(0.,0.,15.));
#702=CARTESIAN_POINT('Origin',(0.,0.,15.));
#703=CARTESIAN_POINT('Origin',(0.,0.,0.));
#704=CARTESIAN_POINT('',(0.,0.,0.));
#705=UNCERTAINTY_MEASURE_WITH_UNIT(LENGTH_MEASURE(0.01),#711,
'DISTANCE_ACCURACY_VALUE',
'Maximum model space distance between geometric entities at asserted c
onnectivities');
#706=UNCERTAINTY_MEASURE_WITH_UNIT(LENGTH_MEASURE(0.01),#711,
'DISTANCE_ACCURACY_VALUE',
'Maximum model space distance between geometric entities at asserted c
onnectivities');
#707=UNCERTAINTY_MEASURE_WITH_UNIT(LENGTH_MEASURE(0.01),#711,
'DISTANCE_ACCURACY_VALUE',
'Maximum model space distance between geometric entities at asserted c
onnectivities');
#708=(
GEOMETRIC_REPRESENTATION_CONTEXT(3)
GLOBAL_UNCERTAINTY_ASSIGNED_CONTEXT((#705))
GLOBAL_UNIT_ASSIGNED_CONTEXT((#711,#713,#714))
REPRESENTATION_CONTEXT('','3D')
);
#709=(
GEOMETRIC_REPRESENTATION_CONTEXT(3)
GLOBAL_UNCERTAINTY_ASSIGNED_CONTEXT((#706))
GLOBAL_UNIT_ASSIGNED_CONTEXT((#711,#713,#714))
REPRESENTATION_CONTEXT('','3D')
);
#710=(
GEOMETRIC_REPRESENTATION_CONTEXT(3)
GLOBAL_UNCERTAINTY_ASSIGNED_CONTEXT((#707))
GLOBAL_UNIT_ASSIGNED_CONTEXT((#711,#713,#714))
REPRESENTATION_CONTEXT('','3D')
);
#711=(
LENGTH_UNIT()
NAMED_UNIT(*)
SI_UNIT(.MILLI.,.METRE.)
);
#712=(
LENGTH_UNIT()
NAMED_UNIT(*)
SI_UNIT($,.METRE.)
);
#713=(
NAMED_UNIT(*)
PLANE_ANGLE_UNIT()
SI_UNIT($,.RADIAN.)
);
#714=(
NAMED_UNIT(*)
SI_UNIT($,.STERADIAN.)
SOLID_ANGLE_UNIT()
);
#715=SHAPE_DEFINITION_REPRESENTATION(#717,#720);
#716=SHAPE_DEFINITION_REPRESENTATION(#718,#721);
#717=PRODUCT_DEFINITION_SHAPE('',$,#723);
#718=PRODUCT_DEFINITION_SHAPE('',$,#724);
#719=PRODUCT_DEFINITION_SHAPE($,$,#14);
#720=SHAPE_REPRESENTATION('',(#401,#457),#708);
#721=SHAPE_REPRESENTATION('',(#402),#709);
#722=PRODUCT_DEFINITION_CONTEXT('part definition',#730,'design');
#723=PRODUCT_DEFINITION('Mirror Mount- New Version',
'Mirror Mount- New Version v3',#725,#722);
#724=PRODUCT_DEFINITION('Component1','Component1',#726,#722);
#725=PRODUCT_DEFINITION_FORMATION('',$,#732);
#726=PRODUCT_DEFINITION_FORMATION('',$,#733);
#727=PRODUCT_RELATED_PRODUCT_CATEGORY('Mirror Mount- New Version v3',
'Mirror Mount- New Version v3',(#732));
#728=PRODUCT_RELATED_PRODUCT_CATEGORY('Component1','Component1',(#733));
#729=APPLICATION_PROTOCOL_DEFINITION('international standard',
'automotive_design',2009,#730);
#730=APPLICATION_CONTEXT(
'Core Data for Automotive Mechanical Design Process');
#731=PRODUCT_CONTEXT('part definition',#730,'mechanical');
#732=PRODUCT('Mirror Mount- New Version','Mirror Mount- New Version v3',
$,(#731));
#733=PRODUCT('Component1','Component1',$,(#731));
#734=PRESENTATION_STYLE_ASSIGNMENT((#735));
#735=SURFACE_STYLE_USAGE(.BOTH.,#736);
#736=SURFACE_SIDE_STYLE('',(#737));
#737=SURFACE_STYLE_FILL_AREA(#738);
#738=FILL_AREA_STYLE('Steel - Satin',(#739));
#739=FILL_AREA_STYLE_COLOUR('Steel - Satin',#740);
#740=COLOUR_RGB('Steel - Satin',0.627450980392157,0.627450980392157,0.627450980392157);
ENDSEC;
END-ISO-10303-21;
