ISO-10303-21;
HEADER;
/* Generated by software containing ST-Developer
 * from STEP Tools, Inc. (www.steptools.com) 
 */

FILE_DESCRIPTION(
/* description */ (''),
/* implementation_level */ '2;1');

FILE_NAME(
/* name */ 'BC cryo interface v8.step',
/* time_stamp */ '2024-06-14T14:29:12+02:00',
/* author */ (''),
/* organization */ (''),
/* preprocessor_version */ 'ST-DEVELOPER v20',
/* originating_system */ 'Autodesk Translation Framework v13.14.0.145',

/* authorisation */ '');

FILE_SCHEMA (('AUTOMOTIVE_DESIGN { 1 0 10303 214 3 1 1 }'));
ENDSEC;

DATA;
#10=MECHANICAL_DESIGN_GEOMETRIC_PRESENTATION_REPRESENTATION('',(#13,#14,
#15,#16),#1897);
#11=SHAPE_REPRESENTATION_RELATIONSHIP('SRR','None',#1904,#12);
#12=ADVANCED_BREP_SHAPE_REPRESENTATION('',(#17,#18,#19,#20),#1896);
#13=STYLED_ITEM('',(#1914),#17);
#14=STYLED_ITEM('',(#1913),#18);
#15=STYLED_ITEM('',(#1913),#19);
#16=STYLED_ITEM('',(#1913),#20);
#17=MANIFOLD_SOLID_BREP('Body1',#1067);
#18=MANIFOLD_SOLID_BREP('Body3',#1068);
#19=MANIFOLD_SOLID_BREP('Body4',#1069);
#20=MANIFOLD_SOLID_BREP('Body5',#1070);
#21=CONICAL_SURFACE('',#1091,4.59999999999998,0.785398163397469);
#22=CONICAL_SURFACE('',#1095,4.2,0.785398163397452);
#23=CONICAL_SURFACE('',#1098,4.60000000000003,0.785398163397431);
#24=CONICAL_SURFACE('',#1102,4.2,0.785398163397448);
#25=CONICAL_SURFACE('',#1105,4.60000000000001,0.785398163397454);
#26=CONICAL_SURFACE('',#1109,4.2,0.785398163397436);
#27=CONICAL_SURFACE('',#1112,4.60000000000003,0.785398163397431);
#28=CONICAL_SURFACE('',#1116,4.2,0.785398163397448);
#29=CONICAL_SURFACE('',#1119,4.59999999999999,0.785398163397475);
#30=CONICAL_SURFACE('',#1123,4.2,0.785398163397458);
#31=CONICAL_SURFACE('',#1126,4.60000000000003,0.785398163397431);
#32=CONICAL_SURFACE('',#1130,4.2,0.785398163397448);
#33=CONICAL_SURFACE('',#1133,4.60000000000001,0.785398163397464);
#34=CONICAL_SURFACE('',#1137,4.2,0.785398163397464);
#35=CONICAL_SURFACE('',#1140,4.60000000000003,0.785398163397431);
#36=CONICAL_SURFACE('',#1144,4.2,0.785398163397448);
#37=CONICAL_SURFACE('',#1147,56.25,0.785398163397428);
#38=CONICAL_SURFACE('',#1159,38.3816178594403,0.349065850398874);
#39=CONICAL_SURFACE('',#1163,38.6,1.22173047639603);
#40=CONICAL_SURFACE('',#1165,56.75,0.785398163397462);
#41=CONICAL_SURFACE('',#1181,56.75,0.785398163397462);
#42=FACE_BOUND('',#159,.T.);
#43=FACE_BOUND('',#192,.T.);
#44=FACE_BOUND('',#193,.T.);
#45=FACE_BOUND('',#194,.T.);
#46=FACE_BOUND('',#195,.T.);
#47=FACE_BOUND('',#198,.T.);
#48=FACE_BOUND('',#199,.T.);
#49=FACE_BOUND('',#200,.T.);
#50=FACE_BOUND('',#201,.T.);
#51=FACE_BOUND('',#203,.T.);
#52=FACE_BOUND('',#205,.T.);
#53=FACE_BOUND('',#206,.T.);
#54=FACE_BOUND('',#207,.T.);
#55=FACE_BOUND('',#208,.T.);
#56=FACE_BOUND('',#209,.T.);
#57=FACE_BOUND('',#210,.T.);
#58=FACE_BOUND('',#211,.T.);
#59=FACE_BOUND('',#212,.T.);
#60=FACE_BOUND('',#213,.T.);
#61=FACE_BOUND('',#221,.T.);
#62=FACE_BOUND('',#224,.T.);
#63=FACE_BOUND('',#227,.T.);
#64=FACE_BOUND('',#230,.T.);
#65=FACE_BOUND('',#233,.T.);
#66=FACE_BOUND('',#236,.T.);
#67=FACE_BOUND('',#239,.T.);
#68=FACE_BOUND('',#246,.T.);
#69=FACE_BOUND('',#249,.T.);
#70=PLANE('',#1087);
#71=PLANE('',#1179);
#72=PLANE('',#1182);
#73=PLANE('',#1183);
#74=PLANE('',#1184);
#75=PLANE('',#1185);
#76=PLANE('',#1186);
#77=PLANE('',#1187);
#78=PLANE('',#1188);
#79=PLANE('',#1189);
#80=PLANE('',#1190);
#81=PLANE('',#1191);
#82=PLANE('',#1196);
#83=PLANE('',#1200);
#84=PLANE('',#1204);
#85=PLANE('',#1208);
#86=PLANE('',#1211);
#87=PLANE('',#1216);
#88=PLANE('',#1222);
#89=PLANE('',#1223);
#90=PLANE('',#1227);
#91=PLANE('',#1231);
#92=FACE_OUTER_BOUND('',#157,.T.);
#93=FACE_OUTER_BOUND('',#158,.T.);
#94=FACE_OUTER_BOUND('',#160,.T.);
#95=FACE_OUTER_BOUND('',#161,.T.);
#96=FACE_OUTER_BOUND('',#162,.T.);
#97=FACE_OUTER_BOUND('',#163,.T.);
#98=FACE_OUTER_BOUND('',#164,.T.);
#99=FACE_OUTER_BOUND('',#165,.T.);
#100=FACE_OUTER_BOUND('',#166,.T.);
#101=FACE_OUTER_BOUND('',#167,.T.);
#102=FACE_OUTER_BOUND('',#168,.T.);
#103=FACE_OUTER_BOUND('',#169,.T.);
#104=FACE_OUTER_BOUND('',#170,.T.);
#105=FACE_OUTER_BOUND('',#171,.T.);
#106=FACE_OUTER_BOUND('',#172,.T.);
#107=FACE_OUTER_BOUND('',#173,.T.);
#108=FACE_OUTER_BOUND('',#174,.T.);
#109=FACE_OUTER_BOUND('',#175,.T.);
#110=FACE_OUTER_BOUND('',#176,.T.);
#111=FACE_OUTER_BOUND('',#177,.T.);
#112=FACE_OUTER_BOUND('',#178,.T.);
#113=FACE_OUTER_BOUND('',#179,.T.);
#114=FACE_OUTER_BOUND('',#180,.T.);
#115=FACE_OUTER_BOUND('',#181,.T.);
#116=FACE_OUTER_BOUND('',#182,.T.);
#117=FACE_OUTER_BOUND('',#183,.T.);
#118=FACE_OUTER_BOUND('',#184,.T.);
#119=FACE_OUTER_BOUND('',#185,.T.);
#120=FACE_OUTER_BOUND('',#186,.T.);
#121=FACE_OUTER_BOUND('',#187,.T.);
#122=FACE_OUTER_BOUND('',#188,.T.);
#123=FACE_OUTER_BOUND('',#189,.T.);
#124=FACE_OUTER_BOUND('',#190,.T.);
#125=FACE_OUTER_BOUND('',#191,.T.);
#126=FACE_OUTER_BOUND('',#196,.T.);
#127=FACE_OUTER_BOUND('',#197,.T.);
#128=FACE_OUTER_BOUND('',#202,.T.);
#129=FACE_OUTER_BOUND('',#204,.T.);
#130=FACE_OUTER_BOUND('',#214,.T.);
#131=FACE_OUTER_BOUND('',#215,.T.);
#132=FACE_OUTER_BOUND('',#216,.T.);
#133=FACE_OUTER_BOUND('',#217,.T.);
#134=FACE_OUTER_BOUND('',#218,.T.);
#135=FACE_OUTER_BOUND('',#219,.T.);
#136=FACE_OUTER_BOUND('',#220,.T.);
#137=FACE_OUTER_BOUND('',#222,.T.);
#138=FACE_OUTER_BOUND('',#223,.T.);
#139=FACE_OUTER_BOUND('',#225,.T.);
#140=FACE_OUTER_BOUND('',#226,.T.);
#141=FACE_OUTER_BOUND('',#228,.T.);
#142=FACE_OUTER_BOUND('',#229,.T.);
#143=FACE_OUTER_BOUND('',#231,.T.);
#144=FACE_OUTER_BOUND('',#232,.T.);
#145=FACE_OUTER_BOUND('',#234,.T.);
#146=FACE_OUTER_BOUND('',#235,.T.);
#147=FACE_OUTER_BOUND('',#237,.T.);
#148=FACE_OUTER_BOUND('',#238,.T.);
#149=FACE_OUTER_BOUND('',#240,.T.);
#150=FACE_OUTER_BOUND('',#241,.T.);
#151=FACE_OUTER_BOUND('',#242,.T.);
#152=FACE_OUTER_BOUND('',#243,.T.);
#153=FACE_OUTER_BOUND('',#244,.T.);
#154=FACE_OUTER_BOUND('',#245,.T.);
#155=FACE_OUTER_BOUND('',#247,.T.);
#156=FACE_OUTER_BOUND('',#248,.T.);
#157=EDGE_LOOP('',(#692,#693,#694,#695));
#158=EDGE_LOOP('',(#696));
#159=EDGE_LOOP('',(#697));
#160=EDGE_LOOP('',(#698,#699,#700,#701));
#161=EDGE_LOOP('',(#702,#703,#704,#705,#706));
#162=EDGE_LOOP('',(#707,#708,#709,#710));
#163=EDGE_LOOP('',(#711,#712,#713,#714,#715));
#164=EDGE_LOOP('',(#716,#717,#718,#719));
#165=EDGE_LOOP('',(#720,#721,#722,#723,#724));
#166=EDGE_LOOP('',(#725,#726,#727,#728));
#167=EDGE_LOOP('',(#729,#730,#731,#732,#733));
#168=EDGE_LOOP('',(#734,#735,#736,#737));
#169=EDGE_LOOP('',(#738,#739,#740,#741,#742));
#170=EDGE_LOOP('',(#743,#744,#745,#746));
#171=EDGE_LOOP('',(#747,#748,#749,#750,#751));
#172=EDGE_LOOP('',(#752,#753,#754,#755));
#173=EDGE_LOOP('',(#756,#757,#758,#759,#760));
#174=EDGE_LOOP('',(#761,#762,#763,#764));
#175=EDGE_LOOP('',(#765,#766,#767,#768,#769));
#176=EDGE_LOOP('',(#770,#771,#772,#773));
#177=EDGE_LOOP('',(#774,#775,#776,#777,#778));
#178=EDGE_LOOP('',(#779,#780,#781,#782,#783));
#179=EDGE_LOOP('',(#784,#785,#786,#787,#788));
#180=EDGE_LOOP('',(#789,#790,#791,#792,#793));
#181=EDGE_LOOP('',(#794,#795,#796,#797,#798));
#182=EDGE_LOOP('',(#799,#800,#801,#802,#803));
#183=EDGE_LOOP('',(#804,#805,#806,#807,#808));
#184=EDGE_LOOP('',(#809,#810,#811,#812,#813));
#185=EDGE_LOOP('',(#814,#815,#816,#817,#818));
#186=EDGE_LOOP('',(#819,#820,#821,#822,#823));
#187=EDGE_LOOP('',(#824,#825,#826,#827,#828));
#188=EDGE_LOOP('',(#829,#830,#831,#832));
#189=EDGE_LOOP('',(#833,#834,#835,#836,#837,#838,#839,#840,#841,#842,#843,
#844));
#190=EDGE_LOOP('',(#845,#846,#847,#848,#849,#850,#851,#852,#853,#854,#855,
#856,#857));
#191=EDGE_LOOP('',(#858,#859,#860,#861,#862));
#192=EDGE_LOOP('',(#863));
#193=EDGE_LOOP('',(#864));
#194=EDGE_LOOP('',(#865));
#195=EDGE_LOOP('',(#866));
#196=EDGE_LOOP('',(#867,#868,#869,#870,#871));
#197=EDGE_LOOP('',(#872,#873,#874,#875));
#198=EDGE_LOOP('',(#876));
#199=EDGE_LOOP('',(#877));
#200=EDGE_LOOP('',(#878));
#201=EDGE_LOOP('',(#879));
#202=EDGE_LOOP('',(#880));
#203=EDGE_LOOP('',(#881));
#204=EDGE_LOOP('',(#882));
#205=EDGE_LOOP('',(#883));
#206=EDGE_LOOP('',(#884));
#207=EDGE_LOOP('',(#885));
#208=EDGE_LOOP('',(#886));
#209=EDGE_LOOP('',(#887));
#210=EDGE_LOOP('',(#888));
#211=EDGE_LOOP('',(#889));
#212=EDGE_LOOP('',(#890));
#213=EDGE_LOOP('',(#891));
#214=EDGE_LOOP('',(#892,#893,#894,#895));
#215=EDGE_LOOP('',(#896,#897,#898,#899,#900));
#216=EDGE_LOOP('',(#901,#902,#903,#904,#905));
#217=EDGE_LOOP('',(#906,#907,#908,#909));
#218=EDGE_LOOP('',(#910,#911,#912,#913,#914));
#219=EDGE_LOOP('',(#915,#916,#917,#918,#919));
#220=EDGE_LOOP('',(#920));
#221=EDGE_LOOP('',(#921));
#222=EDGE_LOOP('',(#922,#923,#924,#925));
#223=EDGE_LOOP('',(#926));
#224=EDGE_LOOP('',(#927));
#225=EDGE_LOOP('',(#928,#929,#930,#931));
#226=EDGE_LOOP('',(#932));
#227=EDGE_LOOP('',(#933));
#228=EDGE_LOOP('',(#934,#935,#936,#937));
#229=EDGE_LOOP('',(#938));
#230=EDGE_LOOP('',(#939));
#231=EDGE_LOOP('',(#940,#941,#942,#943));
#232=EDGE_LOOP('',(#944));
#233=EDGE_LOOP('',(#945));
#234=EDGE_LOOP('',(#946,#947,#948,#949));
#235=EDGE_LOOP('',(#950));
#236=EDGE_LOOP('',(#951));
#237=EDGE_LOOP('',(#952,#953,#954,#955));
#238=EDGE_LOOP('',(#956));
#239=EDGE_LOOP('',(#957));
#240=EDGE_LOOP('',(#958,#959,#960,#961));
#241=EDGE_LOOP('',(#962,#963,#964,#965));
#242=EDGE_LOOP('',(#966));
#243=EDGE_LOOP('',(#967));
#244=EDGE_LOOP('',(#968,#969,#970,#971));
#245=EDGE_LOOP('',(#972));
#246=EDGE_LOOP('',(#973));
#247=EDGE_LOOP('',(#974,#975,#976,#977));
#248=EDGE_LOOP('',(#978));
#249=EDGE_LOOP('',(#979));
#250=LINE('',#1596,#311);
#251=LINE('',#1603,#312);
#252=LINE('',#1611,#313);
#253=LINE('',#1617,#314);
#254=LINE('',#1625,#315);
#255=LINE('',#1631,#316);
#256=LINE('',#1639,#317);
#257=LINE('',#1645,#318);
#258=LINE('',#1653,#319);
#259=LINE('',#1659,#320);
#260=LINE('',#1667,#321);
#261=LINE('',#1673,#322);
#262=LINE('',#1681,#323);
#263=LINE('',#1687,#324);
#264=LINE('',#1695,#325);
#265=LINE('',#1701,#326);
#266=LINE('',#1709,#327);
#267=LINE('',#1715,#328);
#268=LINE('',#1723,#329);
#269=LINE('',#1726,#330);
#270=LINE('',#1728,#331);
#271=LINE('',#1730,#332);
#272=LINE('',#1732,#333);
#273=LINE('',#1734,#334);
#274=LINE('',#1736,#335);
#275=LINE('',#1738,#336);
#276=LINE('',#1740,#337);
#277=LINE('',#1745,#338);
#278=LINE('',#1752,#339);
#279=LINE('',#1758,#340);
#280=LINE('',#1761,#341);
#281=LINE('',#1767,#342);
#282=LINE('',#1771,#343);
#283=LINE('',#1774,#344);
#284=LINE('',#1778,#345);
#285=LINE('',#1781,#346);
#286=LINE('',#1784,#347);
#287=LINE('',#1788,#348);
#288=LINE('',#1791,#349);
#289=LINE('',#1793,#350);
#290=LINE('',#1797,#351);
#291=LINE('',#1801,#352);
#292=LINE('',#1803,#353);
#293=LINE('',#1806,#354);
#294=LINE('',#1807,#355);
#295=LINE('',#1809,#356);
#296=LINE('',#1810,#357);
#297=LINE('',#1814,#358);
#298=LINE('',#1815,#359);
#299=LINE('',#1819,#360);
#300=LINE('',#1820,#361);
#301=LINE('',#1831,#362);
#302=LINE('',#1837,#363);
#303=LINE('',#1844,#364);
#304=LINE('',#1852,#365);
#305=LINE('',#1857,#366);
#306=LINE('',#1865,#367);
#307=LINE('',#1871,#368);
#308=LINE('',#1876,#369);
#309=LINE('',#1884,#370);
#310=LINE('',#1891,#371);
#311=VECTOR('',#1238,34.0000000031132);
#312=VECTOR('',#1247,39.0000000007997);
#313=VECTOR('',#1256,4.59999999999998);
#314=VECTOR('',#1263,4.2);
#315=VECTOR('',#1272,4.60000000000003);
#316=VECTOR('',#1279,4.2);
#317=VECTOR('',#1288,4.60000000000001);
#318=VECTOR('',#1295,4.2);
#319=VECTOR('',#1304,4.60000000000003);
#320=VECTOR('',#1311,4.2);
#321=VECTOR('',#1320,4.59999999999999);
#322=VECTOR('',#1327,4.2);
#323=VECTOR('',#1336,4.60000000000003);
#324=VECTOR('',#1343,4.2);
#325=VECTOR('',#1352,4.60000000000001);
#326=VECTOR('',#1359,4.2);
#327=VECTOR('',#1368,4.60000000000003);
#328=VECTOR('',#1375,4.2);
#329=VECTOR('',#1384,56.25);
#330=VECTOR('',#1389,4.2);
#331=VECTOR('',#1392,4.2);
#332=VECTOR('',#1395,4.2);
#333=VECTOR('',#1398,4.2);
#334=VECTOR('',#1401,4.2);
#335=VECTOR('',#1404,4.2);
#336=VECTOR('',#1407,4.2);
#337=VECTOR('',#1410,4.2);
#338=VECTOR('',#1415,38.3816178594403);
#339=VECTOR('',#1424,38.6);
#340=VECTOR('',#1429,10.);
#341=VECTOR('',#1432,10.);
#342=VECTOR('',#1437,1000.);
#343=VECTOR('',#1440,1000.);
#344=VECTOR('',#1443,41.275);
#345=VECTOR('',#1446,1000.);
#346=VECTOR('',#1449,1000.);
#347=VECTOR('',#1452,56.75);
#348=VECTOR('',#1455,1000.);
#349=VECTOR('',#1458,1000.);
#350=VECTOR('',#1459,1000.);
#351=VECTOR('',#1462,1000.);
#352=VECTOR('',#1467,1000.);
#353=VECTOR('',#1468,1000.);
#354=VECTOR('',#1473,10.);
#355=VECTOR('',#1474,10.);
#356=VECTOR('',#1477,1000.);
#357=VECTOR('',#1478,1000.);
#358=VECTOR('',#1485,1000.);
#359=VECTOR('',#1486,1000.);
#360=VECTOR('',#1493,1000.);
#361=VECTOR('',#1494,1000.);
#362=VECTOR('',#1509,27.9999999999846);
#363=VECTOR('',#1516,27.5);
#364=VECTOR('',#1525,30.00000000372);
#365=VECTOR('',#1536,39.0000000007997);
#366=VECTOR('',#1543,40.0000000008177);
#367=VECTOR('',#1552,26.9999999999997);
#368=VECTOR('',#1561,27.5000000000003);
#369=VECTOR('',#1566,26.9999999999995);
#370=VECTOR('',#1577,15.);
#371=VECTOR('',#1586,25.9999999999995);
#372=CIRCLE('',#1085,34.0000000031132);
#373=CIRCLE('',#1086,34.0000000032938);
#374=CIRCLE('',#1088,39.0000000007998);
#375=CIRCLE('',#1090,39.0000000007997);
#376=CIRCLE('',#1092,4.2);
#377=CIRCLE('',#1093,4.2);
#378=CIRCLE('',#1094,4.59999999999998);
#379=CIRCLE('',#1096,4.2);
#380=CIRCLE('',#1097,4.59999999999998);
#381=CIRCLE('',#1099,4.2);
#382=CIRCLE('',#1100,4.2);
#383=CIRCLE('',#1101,4.60000000000003);
#384=CIRCLE('',#1103,4.2);
#385=CIRCLE('',#1104,4.59999999999998);
#386=CIRCLE('',#1106,4.2);
#387=CIRCLE('',#1107,4.2);
#388=CIRCLE('',#1108,4.60000000000001);
#389=CIRCLE('',#1110,4.2);
#390=CIRCLE('',#1111,4.60000000000001);
#391=CIRCLE('',#1113,4.2);
#392=CIRCLE('',#1114,4.2);
#393=CIRCLE('',#1115,4.60000000000003);
#394=CIRCLE('',#1117,4.2);
#395=CIRCLE('',#1118,4.59999999999998);
#396=CIRCLE('',#1120,4.2);
#397=CIRCLE('',#1121,4.2);
#398=CIRCLE('',#1122,4.59999999999999);
#399=CIRCLE('',#1124,4.2);
#400=CIRCLE('',#1125,4.59999999999999);
#401=CIRCLE('',#1127,4.2);
#402=CIRCLE('',#1128,4.2);
#403=CIRCLE('',#1129,4.60000000000003);
#404=CIRCLE('',#1131,4.2);
#405=CIRCLE('',#1132,4.59999999999998);
#406=CIRCLE('',#1134,4.2);
#407=CIRCLE('',#1135,4.2);
#408=CIRCLE('',#1136,4.60000000000001);
#409=CIRCLE('',#1138,4.2);
#410=CIRCLE('',#1139,4.60000000000001);
#411=CIRCLE('',#1141,4.2);
#412=CIRCLE('',#1142,4.2);
#413=CIRCLE('',#1143,4.60000000000003);
#414=CIRCLE('',#1145,4.2);
#415=CIRCLE('',#1146,4.59999999999998);
#416=CIRCLE('',#1148,56.75);
#417=CIRCLE('',#1149,56.75);
#418=CIRCLE('',#1150,56.25);
#419=CIRCLE('',#1160,38.3816178594403);
#420=CIRCLE('',#1161,38.6);
#421=CIRCLE('',#1162,38.6);
#422=CIRCLE('',#1164,41.275);
#423=CIRCLE('',#1166,56.25);
#424=CIRCLE('',#1167,56.75);
#425=CIRCLE('',#1169,41.275);
#426=CIRCLE('',#1170,41.275);
#427=CIRCLE('',#1171,41.275);
#428=CIRCLE('',#1172,41.275);
#429=CIRCLE('',#1173,41.275);
#430=CIRCLE('',#1175,56.75);
#431=CIRCLE('',#1176,56.75);
#432=CIRCLE('',#1177,56.75);
#433=CIRCLE('',#1178,56.75);
#434=CIRCLE('',#1180,56.25);
#435=CIRCLE('',#1192,40.0000000008356);
#436=CIRCLE('',#1193,27.9999999999697);
#437=CIRCLE('',#1195,27.9999999999995);
#438=CIRCLE('',#1197,27.5);
#439=CIRCLE('',#1199,27.5);
#440=CIRCLE('',#1201,30.0000000041462);
#441=CIRCLE('',#1203,30.0000000032938);
#442=CIRCLE('',#1205,39.0000000007998);
#443=CIRCLE('',#1207,39.0000000007997);
#444=CIRCLE('',#1209,40.0000000007998);
#445=CIRCLE('',#1212,27.5);
#446=CIRCLE('',#1213,27.);
#447=CIRCLE('',#1215,26.9999999999995);
#448=CIRCLE('',#1217,27.4999999999994);
#449=CIRCLE('',#1220,26.9999999999995);
#450=CIRCLE('',#1221,26.9999999999995);
#451=CIRCLE('',#1224,15.);
#452=CIRCLE('',#1226,15.);
#453=CIRCLE('',#1228,25.9999999999995);
#454=CIRCLE('',#1230,25.9999999999995);
#455=VERTEX_POINT('',#1593);
#456=VERTEX_POINT('',#1595);
#457=VERTEX_POINT('',#1599);
#458=VERTEX_POINT('',#1602);
#459=VERTEX_POINT('',#1606);
#460=VERTEX_POINT('',#1607);
#461=VERTEX_POINT('',#1610);
#462=VERTEX_POINT('',#1614);
#463=VERTEX_POINT('',#1616);
#464=VERTEX_POINT('',#1620);
#465=VERTEX_POINT('',#1621);
#466=VERTEX_POINT('',#1624);
#467=VERTEX_POINT('',#1628);
#468=VERTEX_POINT('',#1630);
#469=VERTEX_POINT('',#1634);
#470=VERTEX_POINT('',#1635);
#471=VERTEX_POINT('',#1638);
#472=VERTEX_POINT('',#1642);
#473=VERTEX_POINT('',#1644);
#474=VERTEX_POINT('',#1648);
#475=VERTEX_POINT('',#1649);
#476=VERTEX_POINT('',#1652);
#477=VERTEX_POINT('',#1656);
#478=VERTEX_POINT('',#1658);
#479=VERTEX_POINT('',#1662);
#480=VERTEX_POINT('',#1663);
#481=VERTEX_POINT('',#1666);
#482=VERTEX_POINT('',#1670);
#483=VERTEX_POINT('',#1672);
#484=VERTEX_POINT('',#1676);
#485=VERTEX_POINT('',#1677);
#486=VERTEX_POINT('',#1680);
#487=VERTEX_POINT('',#1684);
#488=VERTEX_POINT('',#1686);
#489=VERTEX_POINT('',#1690);
#490=VERTEX_POINT('',#1691);
#491=VERTEX_POINT('',#1694);
#492=VERTEX_POINT('',#1698);
#493=VERTEX_POINT('',#1700);
#494=VERTEX_POINT('',#1704);
#495=VERTEX_POINT('',#1705);
#496=VERTEX_POINT('',#1708);
#497=VERTEX_POINT('',#1712);
#498=VERTEX_POINT('',#1714);
#499=VERTEX_POINT('',#1718);
#500=VERTEX_POINT('',#1719);
#501=VERTEX_POINT('',#1722);
#502=VERTEX_POINT('',#1742);
#503=VERTEX_POINT('',#1744);
#504=VERTEX_POINT('',#1746);
#505=VERTEX_POINT('',#1750);
#506=VERTEX_POINT('',#1754);
#507=VERTEX_POINT('',#1755);
#508=VERTEX_POINT('',#1757);
#509=VERTEX_POINT('',#1759);
#510=VERTEX_POINT('',#1763);
#511=VERTEX_POINT('',#1764);
#512=VERTEX_POINT('',#1766);
#513=VERTEX_POINT('',#1768);
#514=VERTEX_POINT('',#1770);
#515=VERTEX_POINT('',#1772);
#516=VERTEX_POINT('',#1775);
#517=VERTEX_POINT('',#1777);
#518=VERTEX_POINT('',#1779);
#519=VERTEX_POINT('',#1783);
#520=VERTEX_POINT('',#1785);
#521=VERTEX_POINT('',#1787);
#522=VERTEX_POINT('',#1789);
#523=VERTEX_POINT('',#1792);
#524=VERTEX_POINT('',#1794);
#525=VERTEX_POINT('',#1796);
#526=VERTEX_POINT('',#1800);
#527=VERTEX_POINT('',#1802);
#528=VERTEX_POINT('',#1824);
#529=VERTEX_POINT('',#1826);
#530=VERTEX_POINT('',#1829);
#531=VERTEX_POINT('',#1833);
#532=VERTEX_POINT('',#1836);
#533=VERTEX_POINT('',#1840);
#534=VERTEX_POINT('',#1843);
#535=VERTEX_POINT('',#1847);
#536=VERTEX_POINT('',#1850);
#537=VERTEX_POINT('',#1854);
#538=VERTEX_POINT('',#1859);
#539=VERTEX_POINT('',#1861);
#540=VERTEX_POINT('',#1864);
#541=VERTEX_POINT('',#1868);
#542=VERTEX_POINT('',#1873);
#543=VERTEX_POINT('',#1875);
#544=VERTEX_POINT('',#1880);
#545=VERTEX_POINT('',#1883);
#546=VERTEX_POINT('',#1887);
#547=VERTEX_POINT('',#1890);
#548=EDGE_CURVE('',#455,#455,#372,.T.);
#549=EDGE_CURVE('',#455,#456,#250,.T.);
#550=EDGE_CURVE('',#456,#456,#373,.T.);
#551=EDGE_CURVE('',#457,#457,#374,.T.);
#552=EDGE_CURVE('',#457,#458,#251,.T.);
#553=EDGE_CURVE('',#458,#458,#375,.T.);
#554=EDGE_CURVE('',#459,#460,#376,.T.);
#555=EDGE_CURVE('',#460,#459,#377,.T.);
#556=EDGE_CURVE('',#460,#461,#252,.T.);
#557=EDGE_CURVE('',#461,#461,#378,.T.);
#558=EDGE_CURVE('',#462,#462,#379,.T.);
#559=EDGE_CURVE('',#462,#463,#253,.T.);
#560=EDGE_CURVE('',#463,#463,#380,.T.);
#561=EDGE_CURVE('',#464,#465,#381,.T.);
#562=EDGE_CURVE('',#465,#464,#382,.T.);
#563=EDGE_CURVE('',#465,#466,#254,.T.);
#564=EDGE_CURVE('',#466,#466,#383,.T.);
#565=EDGE_CURVE('',#467,#467,#384,.T.);
#566=EDGE_CURVE('',#467,#468,#255,.T.);
#567=EDGE_CURVE('',#468,#468,#385,.T.);
#568=EDGE_CURVE('',#469,#470,#386,.T.);
#569=EDGE_CURVE('',#470,#469,#387,.T.);
#570=EDGE_CURVE('',#470,#471,#256,.T.);
#571=EDGE_CURVE('',#471,#471,#388,.T.);
#572=EDGE_CURVE('',#472,#472,#389,.T.);
#573=EDGE_CURVE('',#472,#473,#257,.T.);
#574=EDGE_CURVE('',#473,#473,#390,.T.);
#575=EDGE_CURVE('',#474,#475,#391,.T.);
#576=EDGE_CURVE('',#475,#474,#392,.T.);
#577=EDGE_CURVE('',#475,#476,#258,.T.);
#578=EDGE_CURVE('',#476,#476,#393,.T.);
#579=EDGE_CURVE('',#477,#477,#394,.T.);
#580=EDGE_CURVE('',#477,#478,#259,.T.);
#581=EDGE_CURVE('',#478,#478,#395,.T.);
#582=EDGE_CURVE('',#479,#480,#396,.T.);
#583=EDGE_CURVE('',#480,#479,#397,.T.);
#584=EDGE_CURVE('',#480,#481,#260,.T.);
#585=EDGE_CURVE('',#481,#481,#398,.T.);
#586=EDGE_CURVE('',#482,#482,#399,.T.);
#587=EDGE_CURVE('',#482,#483,#261,.T.);
#588=EDGE_CURVE('',#483,#483,#400,.T.);
#589=EDGE_CURVE('',#484,#485,#401,.T.);
#590=EDGE_CURVE('',#485,#484,#402,.T.);
#591=EDGE_CURVE('',#485,#486,#262,.T.);
#592=EDGE_CURVE('',#486,#486,#403,.T.);
#593=EDGE_CURVE('',#487,#487,#404,.T.);
#594=EDGE_CURVE('',#487,#488,#263,.T.);
#595=EDGE_CURVE('',#488,#488,#405,.T.);
#596=EDGE_CURVE('',#489,#490,#406,.T.);
#597=EDGE_CURVE('',#490,#489,#407,.T.);
#598=EDGE_CURVE('',#490,#491,#264,.T.);
#599=EDGE_CURVE('',#491,#491,#408,.T.);
#600=EDGE_CURVE('',#492,#492,#409,.T.);
#601=EDGE_CURVE('',#492,#493,#265,.T.);
#602=EDGE_CURVE('',#493,#493,#410,.T.);
#603=EDGE_CURVE('',#494,#495,#411,.T.);
#604=EDGE_CURVE('',#495,#494,#412,.T.);
#605=EDGE_CURVE('',#495,#496,#266,.T.);
#606=EDGE_CURVE('',#496,#496,#413,.T.);
#607=EDGE_CURVE('',#497,#497,#414,.T.);
#608=EDGE_CURVE('',#497,#498,#267,.T.);
#609=EDGE_CURVE('',#498,#498,#415,.T.);
#610=EDGE_CURVE('',#499,#500,#416,.T.);
#611=EDGE_CURVE('',#500,#499,#417,.T.);
#612=EDGE_CURVE('',#500,#501,#268,.T.);
#613=EDGE_CURVE('',#501,#501,#418,.T.);
#614=EDGE_CURVE('',#479,#482,#269,.T.);
#615=EDGE_CURVE('',#474,#477,#270,.T.);
#616=EDGE_CURVE('',#469,#472,#271,.T.);
#617=EDGE_CURVE('',#464,#467,#272,.T.);
#618=EDGE_CURVE('',#459,#462,#273,.T.);
#619=EDGE_CURVE('',#494,#497,#274,.T.);
#620=EDGE_CURVE('',#489,#492,#275,.T.);
#621=EDGE_CURVE('',#484,#487,#276,.T.);
#622=EDGE_CURVE('',#502,#502,#419,.T.);
#623=EDGE_CURVE('',#502,#503,#277,.T.);
#624=EDGE_CURVE('',#504,#503,#420,.T.);
#625=EDGE_CURVE('',#503,#504,#421,.T.);
#626=EDGE_CURVE('',#505,#505,#422,.T.);
#627=EDGE_CURVE('',#505,#504,#278,.T.);
#628=EDGE_CURVE('',#506,#507,#423,.T.);
#629=EDGE_CURVE('',#508,#506,#279,.T.);
#630=EDGE_CURVE('',#509,#508,#424,.T.);
#631=EDGE_CURVE('',#509,#507,#280,.T.);
#632=EDGE_CURVE('',#510,#511,#425,.T.);
#633=EDGE_CURVE('',#512,#510,#281,.T.);
#634=EDGE_CURVE('',#512,#513,#426,.T.);
#635=EDGE_CURVE('',#513,#514,#282,.T.);
#636=EDGE_CURVE('',#515,#514,#427,.T.);
#637=EDGE_CURVE('',#515,#505,#283,.T.);
#638=EDGE_CURVE('',#516,#515,#428,.T.);
#639=EDGE_CURVE('',#517,#516,#284,.T.);
#640=EDGE_CURVE('',#517,#518,#429,.T.);
#641=EDGE_CURVE('',#518,#511,#285,.T.);
#642=EDGE_CURVE('',#499,#519,#286,.T.);
#643=EDGE_CURVE('',#519,#520,#430,.T.);
#644=EDGE_CURVE('',#520,#521,#287,.T.);
#645=EDGE_CURVE('',#521,#522,#431,.T.);
#646=EDGE_CURVE('',#509,#522,#288,.T.);
#647=EDGE_CURVE('',#508,#523,#289,.T.);
#648=EDGE_CURVE('',#523,#524,#432,.T.);
#649=EDGE_CURVE('',#525,#524,#290,.T.);
#650=EDGE_CURVE('',#525,#519,#433,.T.);
#651=EDGE_CURVE('',#526,#516,#291,.T.);
#652=EDGE_CURVE('',#527,#514,#292,.T.);
#653=EDGE_CURVE('',#527,#526,#434,.T.);
#654=EDGE_CURVE('',#525,#526,#293,.T.);
#655=EDGE_CURVE('',#520,#527,#294,.T.);
#656=EDGE_CURVE('',#506,#511,#295,.T.);
#657=EDGE_CURVE('',#507,#510,#296,.T.);
#658=EDGE_CURVE('',#521,#513,#297,.T.);
#659=EDGE_CURVE('',#522,#512,#298,.T.);
#660=EDGE_CURVE('',#523,#518,#299,.T.);
#661=EDGE_CURVE('',#524,#517,#300,.T.);
#662=EDGE_CURVE('',#528,#528,#435,.T.);
#663=EDGE_CURVE('',#529,#529,#436,.T.);
#664=EDGE_CURVE('',#530,#530,#437,.T.);
#665=EDGE_CURVE('',#530,#529,#301,.T.);
#666=EDGE_CURVE('',#531,#531,#438,.T.);
#667=EDGE_CURVE('',#531,#532,#302,.T.);
#668=EDGE_CURVE('',#532,#532,#439,.T.);
#669=EDGE_CURVE('',#533,#533,#440,.T.);
#670=EDGE_CURVE('',#533,#534,#303,.T.);
#671=EDGE_CURVE('',#534,#534,#441,.T.);
#672=EDGE_CURVE('',#535,#535,#442,.T.);
#673=EDGE_CURVE('',#536,#536,#443,.T.);
#674=EDGE_CURVE('',#536,#535,#304,.T.);
#675=EDGE_CURVE('',#537,#537,#444,.T.);
#676=EDGE_CURVE('',#528,#537,#305,.T.);
#677=EDGE_CURVE('',#538,#538,#445,.T.);
#678=EDGE_CURVE('',#539,#539,#446,.T.);
#679=EDGE_CURVE('',#539,#540,#306,.T.);
#680=EDGE_CURVE('',#540,#540,#447,.T.);
#681=EDGE_CURVE('',#541,#541,#448,.T.);
#682=EDGE_CURVE('',#538,#541,#307,.T.);
#683=EDGE_CURVE('',#542,#542,#449,.T.);
#684=EDGE_CURVE('',#542,#543,#308,.T.);
#685=EDGE_CURVE('',#543,#543,#450,.T.);
#686=EDGE_CURVE('',#544,#544,#451,.T.);
#687=EDGE_CURVE('',#544,#545,#309,.T.);
#688=EDGE_CURVE('',#545,#545,#452,.T.);
#689=EDGE_CURVE('',#546,#546,#453,.T.);
#690=EDGE_CURVE('',#546,#547,#310,.T.);
#691=EDGE_CURVE('',#547,#547,#454,.T.);
#692=ORIENTED_EDGE('',*,*,#548,.F.);
#693=ORIENTED_EDGE('',*,*,#549,.T.);
#694=ORIENTED_EDGE('',*,*,#550,.T.);
#695=ORIENTED_EDGE('',*,*,#549,.F.);
#696=ORIENTED_EDGE('',*,*,#551,.T.);
#697=ORIENTED_EDGE('',*,*,#550,.F.);
#698=ORIENTED_EDGE('',*,*,#551,.F.);
#699=ORIENTED_EDGE('',*,*,#552,.T.);
#700=ORIENTED_EDGE('',*,*,#553,.F.);
#701=ORIENTED_EDGE('',*,*,#552,.F.);
#702=ORIENTED_EDGE('',*,*,#554,.F.);
#703=ORIENTED_EDGE('',*,*,#555,.F.);
#704=ORIENTED_EDGE('',*,*,#556,.T.);
#705=ORIENTED_EDGE('',*,*,#557,.F.);
#706=ORIENTED_EDGE('',*,*,#556,.F.);
#707=ORIENTED_EDGE('',*,*,#558,.F.);
#708=ORIENTED_EDGE('',*,*,#559,.T.);
#709=ORIENTED_EDGE('',*,*,#560,.F.);
#710=ORIENTED_EDGE('',*,*,#559,.F.);
#711=ORIENTED_EDGE('',*,*,#561,.F.);
#712=ORIENTED_EDGE('',*,*,#562,.F.);
#713=ORIENTED_EDGE('',*,*,#563,.T.);
#714=ORIENTED_EDGE('',*,*,#564,.F.);
#715=ORIENTED_EDGE('',*,*,#563,.F.);
#716=ORIENTED_EDGE('',*,*,#565,.F.);
#717=ORIENTED_EDGE('',*,*,#566,.T.);
#718=ORIENTED_EDGE('',*,*,#567,.F.);
#719=ORIENTED_EDGE('',*,*,#566,.F.);
#720=ORIENTED_EDGE('',*,*,#568,.F.);
#721=ORIENTED_EDGE('',*,*,#569,.F.);
#722=ORIENTED_EDGE('',*,*,#570,.T.);
#723=ORIENTED_EDGE('',*,*,#571,.F.);
#724=ORIENTED_EDGE('',*,*,#570,.F.);
#725=ORIENTED_EDGE('',*,*,#572,.F.);
#726=ORIENTED_EDGE('',*,*,#573,.T.);
#727=ORIENTED_EDGE('',*,*,#574,.F.);
#728=ORIENTED_EDGE('',*,*,#573,.F.);
#729=ORIENTED_EDGE('',*,*,#575,.F.);
#730=ORIENTED_EDGE('',*,*,#576,.F.);
#731=ORIENTED_EDGE('',*,*,#577,.T.);
#732=ORIENTED_EDGE('',*,*,#578,.F.);
#733=ORIENTED_EDGE('',*,*,#577,.F.);
#734=ORIENTED_EDGE('',*,*,#579,.F.);
#735=ORIENTED_EDGE('',*,*,#580,.T.);
#736=ORIENTED_EDGE('',*,*,#581,.F.);
#737=ORIENTED_EDGE('',*,*,#580,.F.);
#738=ORIENTED_EDGE('',*,*,#582,.F.);
#739=ORIENTED_EDGE('',*,*,#583,.F.);
#740=ORIENTED_EDGE('',*,*,#584,.T.);
#741=ORIENTED_EDGE('',*,*,#585,.F.);
#742=ORIENTED_EDGE('',*,*,#584,.F.);
#743=ORIENTED_EDGE('',*,*,#586,.F.);
#744=ORIENTED_EDGE('',*,*,#587,.T.);
#745=ORIENTED_EDGE('',*,*,#588,.F.);
#746=ORIENTED_EDGE('',*,*,#587,.F.);
#747=ORIENTED_EDGE('',*,*,#589,.F.);
#748=ORIENTED_EDGE('',*,*,#590,.F.);
#749=ORIENTED_EDGE('',*,*,#591,.T.);
#750=ORIENTED_EDGE('',*,*,#592,.F.);
#751=ORIENTED_EDGE('',*,*,#591,.F.);
#752=ORIENTED_EDGE('',*,*,#593,.F.);
#753=ORIENTED_EDGE('',*,*,#594,.T.);
#754=ORIENTED_EDGE('',*,*,#595,.F.);
#755=ORIENTED_EDGE('',*,*,#594,.F.);
#756=ORIENTED_EDGE('',*,*,#596,.F.);
#757=ORIENTED_EDGE('',*,*,#597,.F.);
#758=ORIENTED_EDGE('',*,*,#598,.T.);
#759=ORIENTED_EDGE('',*,*,#599,.F.);
#760=ORIENTED_EDGE('',*,*,#598,.F.);
#761=ORIENTED_EDGE('',*,*,#600,.F.);
#762=ORIENTED_EDGE('',*,*,#601,.T.);
#763=ORIENTED_EDGE('',*,*,#602,.F.);
#764=ORIENTED_EDGE('',*,*,#601,.F.);
#765=ORIENTED_EDGE('',*,*,#603,.F.);
#766=ORIENTED_EDGE('',*,*,#604,.F.);
#767=ORIENTED_EDGE('',*,*,#605,.T.);
#768=ORIENTED_EDGE('',*,*,#606,.F.);
#769=ORIENTED_EDGE('',*,*,#605,.F.);
#770=ORIENTED_EDGE('',*,*,#607,.F.);
#771=ORIENTED_EDGE('',*,*,#608,.T.);
#772=ORIENTED_EDGE('',*,*,#609,.F.);
#773=ORIENTED_EDGE('',*,*,#608,.F.);
#774=ORIENTED_EDGE('',*,*,#610,.F.);
#775=ORIENTED_EDGE('',*,*,#611,.F.);
#776=ORIENTED_EDGE('',*,*,#612,.T.);
#777=ORIENTED_EDGE('',*,*,#613,.F.);
#778=ORIENTED_EDGE('',*,*,#612,.F.);
#779=ORIENTED_EDGE('',*,*,#582,.T.);
#780=ORIENTED_EDGE('',*,*,#583,.T.);
#781=ORIENTED_EDGE('',*,*,#614,.T.);
#782=ORIENTED_EDGE('',*,*,#586,.T.);
#783=ORIENTED_EDGE('',*,*,#614,.F.);
#784=ORIENTED_EDGE('',*,*,#575,.T.);
#785=ORIENTED_EDGE('',*,*,#576,.T.);
#786=ORIENTED_EDGE('',*,*,#615,.T.);
#787=ORIENTED_EDGE('',*,*,#579,.T.);
#788=ORIENTED_EDGE('',*,*,#615,.F.);
#789=ORIENTED_EDGE('',*,*,#568,.T.);
#790=ORIENTED_EDGE('',*,*,#569,.T.);
#791=ORIENTED_EDGE('',*,*,#616,.T.);
#792=ORIENTED_EDGE('',*,*,#572,.T.);
#793=ORIENTED_EDGE('',*,*,#616,.F.);
#794=ORIENTED_EDGE('',*,*,#561,.T.);
#795=ORIENTED_EDGE('',*,*,#562,.T.);
#796=ORIENTED_EDGE('',*,*,#617,.T.);
#797=ORIENTED_EDGE('',*,*,#565,.T.);
#798=ORIENTED_EDGE('',*,*,#617,.F.);
#799=ORIENTED_EDGE('',*,*,#554,.T.);
#800=ORIENTED_EDGE('',*,*,#555,.T.);
#801=ORIENTED_EDGE('',*,*,#618,.T.);
#802=ORIENTED_EDGE('',*,*,#558,.T.);
#803=ORIENTED_EDGE('',*,*,#618,.F.);
#804=ORIENTED_EDGE('',*,*,#603,.T.);
#805=ORIENTED_EDGE('',*,*,#604,.T.);
#806=ORIENTED_EDGE('',*,*,#619,.T.);
#807=ORIENTED_EDGE('',*,*,#607,.T.);
#808=ORIENTED_EDGE('',*,*,#619,.F.);
#809=ORIENTED_EDGE('',*,*,#596,.T.);
#810=ORIENTED_EDGE('',*,*,#597,.T.);
#811=ORIENTED_EDGE('',*,*,#620,.T.);
#812=ORIENTED_EDGE('',*,*,#600,.T.);
#813=ORIENTED_EDGE('',*,*,#620,.F.);
#814=ORIENTED_EDGE('',*,*,#589,.T.);
#815=ORIENTED_EDGE('',*,*,#590,.T.);
#816=ORIENTED_EDGE('',*,*,#621,.T.);
#817=ORIENTED_EDGE('',*,*,#593,.T.);
#818=ORIENTED_EDGE('',*,*,#621,.F.);
#819=ORIENTED_EDGE('',*,*,#622,.T.);
#820=ORIENTED_EDGE('',*,*,#623,.T.);
#821=ORIENTED_EDGE('',*,*,#624,.F.);
#822=ORIENTED_EDGE('',*,*,#625,.F.);
#823=ORIENTED_EDGE('',*,*,#623,.F.);
#824=ORIENTED_EDGE('',*,*,#626,.F.);
#825=ORIENTED_EDGE('',*,*,#627,.T.);
#826=ORIENTED_EDGE('',*,*,#624,.T.);
#827=ORIENTED_EDGE('',*,*,#625,.T.);
#828=ORIENTED_EDGE('',*,*,#627,.F.);
#829=ORIENTED_EDGE('',*,*,#628,.F.);
#830=ORIENTED_EDGE('',*,*,#629,.F.);
#831=ORIENTED_EDGE('',*,*,#630,.F.);
#832=ORIENTED_EDGE('',*,*,#631,.T.);
#833=ORIENTED_EDGE('',*,*,#632,.F.);
#834=ORIENTED_EDGE('',*,*,#633,.F.);
#835=ORIENTED_EDGE('',*,*,#634,.T.);
#836=ORIENTED_EDGE('',*,*,#635,.T.);
#837=ORIENTED_EDGE('',*,*,#636,.F.);
#838=ORIENTED_EDGE('',*,*,#637,.T.);
#839=ORIENTED_EDGE('',*,*,#626,.T.);
#840=ORIENTED_EDGE('',*,*,#637,.F.);
#841=ORIENTED_EDGE('',*,*,#638,.F.);
#842=ORIENTED_EDGE('',*,*,#639,.F.);
#843=ORIENTED_EDGE('',*,*,#640,.T.);
#844=ORIENTED_EDGE('',*,*,#641,.T.);
#845=ORIENTED_EDGE('',*,*,#610,.T.);
#846=ORIENTED_EDGE('',*,*,#611,.T.);
#847=ORIENTED_EDGE('',*,*,#642,.T.);
#848=ORIENTED_EDGE('',*,*,#643,.T.);
#849=ORIENTED_EDGE('',*,*,#644,.T.);
#850=ORIENTED_EDGE('',*,*,#645,.T.);
#851=ORIENTED_EDGE('',*,*,#646,.F.);
#852=ORIENTED_EDGE('',*,*,#630,.T.);
#853=ORIENTED_EDGE('',*,*,#647,.T.);
#854=ORIENTED_EDGE('',*,*,#648,.T.);
#855=ORIENTED_EDGE('',*,*,#649,.F.);
#856=ORIENTED_EDGE('',*,*,#650,.T.);
#857=ORIENTED_EDGE('',*,*,#642,.F.);
#858=ORIENTED_EDGE('',*,*,#651,.T.);
#859=ORIENTED_EDGE('',*,*,#638,.T.);
#860=ORIENTED_EDGE('',*,*,#636,.T.);
#861=ORIENTED_EDGE('',*,*,#652,.F.);
#862=ORIENTED_EDGE('',*,*,#653,.T.);
#863=ORIENTED_EDGE('',*,*,#567,.T.);
#864=ORIENTED_EDGE('',*,*,#574,.T.);
#865=ORIENTED_EDGE('',*,*,#581,.T.);
#866=ORIENTED_EDGE('',*,*,#588,.T.);
#867=ORIENTED_EDGE('',*,*,#650,.F.);
#868=ORIENTED_EDGE('',*,*,#654,.T.);
#869=ORIENTED_EDGE('',*,*,#653,.F.);
#870=ORIENTED_EDGE('',*,*,#655,.F.);
#871=ORIENTED_EDGE('',*,*,#643,.F.);
#872=ORIENTED_EDGE('',*,*,#632,.T.);
#873=ORIENTED_EDGE('',*,*,#656,.F.);
#874=ORIENTED_EDGE('',*,*,#628,.T.);
#875=ORIENTED_EDGE('',*,*,#657,.T.);
#876=ORIENTED_EDGE('',*,*,#560,.T.);
#877=ORIENTED_EDGE('',*,*,#595,.T.);
#878=ORIENTED_EDGE('',*,*,#602,.T.);
#879=ORIENTED_EDGE('',*,*,#609,.T.);
#880=ORIENTED_EDGE('',*,*,#622,.F.);
#881=ORIENTED_EDGE('',*,*,#548,.T.);
#882=ORIENTED_EDGE('',*,*,#613,.T.);
#883=ORIENTED_EDGE('',*,*,#553,.T.);
#884=ORIENTED_EDGE('',*,*,#606,.T.);
#885=ORIENTED_EDGE('',*,*,#599,.T.);
#886=ORIENTED_EDGE('',*,*,#592,.T.);
#887=ORIENTED_EDGE('',*,*,#585,.T.);
#888=ORIENTED_EDGE('',*,*,#578,.T.);
#889=ORIENTED_EDGE('',*,*,#571,.T.);
#890=ORIENTED_EDGE('',*,*,#564,.T.);
#891=ORIENTED_EDGE('',*,*,#557,.T.);
#892=ORIENTED_EDGE('',*,*,#658,.T.);
#893=ORIENTED_EDGE('',*,*,#634,.F.);
#894=ORIENTED_EDGE('',*,*,#659,.F.);
#895=ORIENTED_EDGE('',*,*,#645,.F.);
#896=ORIENTED_EDGE('',*,*,#633,.T.);
#897=ORIENTED_EDGE('',*,*,#657,.F.);
#898=ORIENTED_EDGE('',*,*,#631,.F.);
#899=ORIENTED_EDGE('',*,*,#646,.T.);
#900=ORIENTED_EDGE('',*,*,#659,.T.);
#901=ORIENTED_EDGE('',*,*,#658,.F.);
#902=ORIENTED_EDGE('',*,*,#644,.F.);
#903=ORIENTED_EDGE('',*,*,#655,.T.);
#904=ORIENTED_EDGE('',*,*,#652,.T.);
#905=ORIENTED_EDGE('',*,*,#635,.F.);
#906=ORIENTED_EDGE('',*,*,#660,.T.);
#907=ORIENTED_EDGE('',*,*,#640,.F.);
#908=ORIENTED_EDGE('',*,*,#661,.F.);
#909=ORIENTED_EDGE('',*,*,#648,.F.);
#910=ORIENTED_EDGE('',*,*,#639,.T.);
#911=ORIENTED_EDGE('',*,*,#651,.F.);
#912=ORIENTED_EDGE('',*,*,#654,.F.);
#913=ORIENTED_EDGE('',*,*,#649,.T.);
#914=ORIENTED_EDGE('',*,*,#661,.T.);
#915=ORIENTED_EDGE('',*,*,#660,.F.);
#916=ORIENTED_EDGE('',*,*,#647,.F.);
#917=ORIENTED_EDGE('',*,*,#629,.T.);
#918=ORIENTED_EDGE('',*,*,#656,.T.);
#919=ORIENTED_EDGE('',*,*,#641,.F.);
#920=ORIENTED_EDGE('',*,*,#662,.T.);
#921=ORIENTED_EDGE('',*,*,#663,.F.);
#922=ORIENTED_EDGE('',*,*,#664,.F.);
#923=ORIENTED_EDGE('',*,*,#665,.T.);
#924=ORIENTED_EDGE('',*,*,#663,.T.);
#925=ORIENTED_EDGE('',*,*,#665,.F.);
#926=ORIENTED_EDGE('',*,*,#664,.T.);
#927=ORIENTED_EDGE('',*,*,#666,.F.);
#928=ORIENTED_EDGE('',*,*,#666,.T.);
#929=ORIENTED_EDGE('',*,*,#667,.T.);
#930=ORIENTED_EDGE('',*,*,#668,.F.);
#931=ORIENTED_EDGE('',*,*,#667,.F.);
#932=ORIENTED_EDGE('',*,*,#669,.F.);
#933=ORIENTED_EDGE('',*,*,#668,.T.);
#934=ORIENTED_EDGE('',*,*,#669,.T.);
#935=ORIENTED_EDGE('',*,*,#670,.T.);
#936=ORIENTED_EDGE('',*,*,#671,.F.);
#937=ORIENTED_EDGE('',*,*,#670,.F.);
#938=ORIENTED_EDGE('',*,*,#672,.F.);
#939=ORIENTED_EDGE('',*,*,#671,.T.);
#940=ORIENTED_EDGE('',*,*,#673,.F.);
#941=ORIENTED_EDGE('',*,*,#674,.T.);
#942=ORIENTED_EDGE('',*,*,#672,.T.);
#943=ORIENTED_EDGE('',*,*,#674,.F.);
#944=ORIENTED_EDGE('',*,*,#675,.F.);
#945=ORIENTED_EDGE('',*,*,#673,.T.);
#946=ORIENTED_EDGE('',*,*,#662,.F.);
#947=ORIENTED_EDGE('',*,*,#676,.T.);
#948=ORIENTED_EDGE('',*,*,#675,.T.);
#949=ORIENTED_EDGE('',*,*,#676,.F.);
#950=ORIENTED_EDGE('',*,*,#677,.T.);
#951=ORIENTED_EDGE('',*,*,#678,.F.);
#952=ORIENTED_EDGE('',*,*,#678,.T.);
#953=ORIENTED_EDGE('',*,*,#679,.T.);
#954=ORIENTED_EDGE('',*,*,#680,.F.);
#955=ORIENTED_EDGE('',*,*,#679,.F.);
#956=ORIENTED_EDGE('',*,*,#681,.F.);
#957=ORIENTED_EDGE('',*,*,#680,.T.);
#958=ORIENTED_EDGE('',*,*,#677,.F.);
#959=ORIENTED_EDGE('',*,*,#682,.T.);
#960=ORIENTED_EDGE('',*,*,#681,.T.);
#961=ORIENTED_EDGE('',*,*,#682,.F.);
#962=ORIENTED_EDGE('',*,*,#683,.F.);
#963=ORIENTED_EDGE('',*,*,#684,.T.);
#964=ORIENTED_EDGE('',*,*,#685,.T.);
#965=ORIENTED_EDGE('',*,*,#684,.F.);
#966=ORIENTED_EDGE('',*,*,#683,.T.);
#967=ORIENTED_EDGE('',*,*,#686,.F.);
#968=ORIENTED_EDGE('',*,*,#686,.T.);
#969=ORIENTED_EDGE('',*,*,#687,.T.);
#970=ORIENTED_EDGE('',*,*,#688,.F.);
#971=ORIENTED_EDGE('',*,*,#687,.F.);
#972=ORIENTED_EDGE('',*,*,#689,.F.);
#973=ORIENTED_EDGE('',*,*,#688,.T.);
#974=ORIENTED_EDGE('',*,*,#689,.T.);
#975=ORIENTED_EDGE('',*,*,#690,.T.);
#976=ORIENTED_EDGE('',*,*,#691,.F.);
#977=ORIENTED_EDGE('',*,*,#690,.F.);
#978=ORIENTED_EDGE('',*,*,#685,.F.);
#979=ORIENTED_EDGE('',*,*,#691,.T.);
#980=CYLINDRICAL_SURFACE('',#1084,34.0000000031132);
#981=CYLINDRICAL_SURFACE('',#1089,39.0000000007997);
#982=CYLINDRICAL_SURFACE('',#1151,4.2);
#983=CYLINDRICAL_SURFACE('',#1152,4.2);
#984=CYLINDRICAL_SURFACE('',#1153,4.2);
#985=CYLINDRICAL_SURFACE('',#1154,4.2);
#986=CYLINDRICAL_SURFACE('',#1155,4.2);
#987=CYLINDRICAL_SURFACE('',#1156,4.2);
#988=CYLINDRICAL_SURFACE('',#1157,4.2);
#989=CYLINDRICAL_SURFACE('',#1158,4.2);
#990=CYLINDRICAL_SURFACE('',#1168,41.275);
#991=CYLINDRICAL_SURFACE('',#1174,56.75);
#992=CYLINDRICAL_SURFACE('',#1194,27.9999999999846);
#993=CYLINDRICAL_SURFACE('',#1198,27.5);
#994=CYLINDRICAL_SURFACE('',#1202,30.00000000372);
#995=CYLINDRICAL_SURFACE('',#1206,39.0000000007997);
#996=CYLINDRICAL_SURFACE('',#1210,40.0000000008177);
#997=CYLINDRICAL_SURFACE('',#1214,26.9999999999997);
#998=CYLINDRICAL_SURFACE('',#1218,27.5000000000003);
#999=CYLINDRICAL_SURFACE('',#1219,26.9999999999995);
#1000=CYLINDRICAL_SURFACE('',#1225,15.);
#1001=CYLINDRICAL_SURFACE('',#1229,25.9999999999995);
#1002=ADVANCED_FACE('',(#92),#980,.F.);
#1003=ADVANCED_FACE('',(#93,#42),#70,.F.);
#1004=ADVANCED_FACE('',(#94),#981,.F.);
#1005=ADVANCED_FACE('',(#95),#21,.F.);
#1006=ADVANCED_FACE('',(#96),#22,.F.);
#1007=ADVANCED_FACE('',(#97),#23,.F.);
#1008=ADVANCED_FACE('',(#98),#24,.F.);
#1009=ADVANCED_FACE('',(#99),#25,.F.);
#1010=ADVANCED_FACE('',(#100),#26,.F.);
#1011=ADVANCED_FACE('',(#101),#27,.F.);
#1012=ADVANCED_FACE('',(#102),#28,.F.);
#1013=ADVANCED_FACE('',(#103),#29,.F.);
#1014=ADVANCED_FACE('',(#104),#30,.F.);
#1015=ADVANCED_FACE('',(#105),#31,.F.);
#1016=ADVANCED_FACE('',(#106),#32,.F.);
#1017=ADVANCED_FACE('',(#107),#33,.F.);
#1018=ADVANCED_FACE('',(#108),#34,.F.);
#1019=ADVANCED_FACE('',(#109),#35,.F.);
#1020=ADVANCED_FACE('',(#110),#36,.F.);
#1021=ADVANCED_FACE('',(#111),#37,.T.);
#1022=ADVANCED_FACE('',(#112),#982,.F.);
#1023=ADVANCED_FACE('',(#113),#983,.F.);
#1024=ADVANCED_FACE('',(#114),#984,.F.);
#1025=ADVANCED_FACE('',(#115),#985,.F.);
#1026=ADVANCED_FACE('',(#116),#986,.F.);
#1027=ADVANCED_FACE('',(#117),#987,.F.);
#1028=ADVANCED_FACE('',(#118),#988,.F.);
#1029=ADVANCED_FACE('',(#119),#989,.F.);
#1030=ADVANCED_FACE('',(#120),#38,.F.);
#1031=ADVANCED_FACE('',(#121),#39,.T.);
#1032=ADVANCED_FACE('',(#122),#40,.T.);
#1033=ADVANCED_FACE('',(#123),#990,.F.);
#1034=ADVANCED_FACE('',(#124),#991,.T.);
#1035=ADVANCED_FACE('',(#125,#43,#44,#45,#46),#71,.F.);
#1036=ADVANCED_FACE('',(#126),#41,.T.);
#1037=ADVANCED_FACE('',(#127,#47,#48,#49,#50),#72,.F.);
#1038=ADVANCED_FACE('',(#128,#51),#73,.F.);
#1039=ADVANCED_FACE('',(#129,#52,#53,#54,#55,#56,#57,#58,#59,#60),#74,.F.);
#1040=ADVANCED_FACE('',(#130),#75,.F.);
#1041=ADVANCED_FACE('',(#131),#76,.T.);
#1042=ADVANCED_FACE('',(#132),#77,.F.);
#1043=ADVANCED_FACE('',(#133),#78,.F.);
#1044=ADVANCED_FACE('',(#134),#79,.T.);
#1045=ADVANCED_FACE('',(#135),#80,.F.);
#1046=ADVANCED_FACE('',(#136,#61),#81,.T.);
#1047=ADVANCED_FACE('',(#137),#992,.T.);
#1048=ADVANCED_FACE('',(#138,#62),#82,.T.);
#1049=ADVANCED_FACE('',(#139),#993,.F.);
#1050=ADVANCED_FACE('',(#140,#63),#83,.T.);
#1051=ADVANCED_FACE('',(#141),#994,.F.);
#1052=ADVANCED_FACE('',(#142,#64),#84,.T.);
#1053=ADVANCED_FACE('',(#143),#995,.T.);
#1054=ADVANCED_FACE('',(#144,#65),#85,.T.);
#1055=ADVANCED_FACE('',(#145),#996,.T.);
#1056=ADVANCED_FACE('',(#146,#66),#86,.T.);
#1057=ADVANCED_FACE('',(#147),#997,.F.);
#1058=ADVANCED_FACE('',(#148,#67),#87,.T.);
#1059=ADVANCED_FACE('',(#149),#998,.T.);
#1060=ADVANCED_FACE('',(#150),#999,.T.);
#1061=ADVANCED_FACE('',(#151),#88,.T.);
#1062=ADVANCED_FACE('',(#152),#89,.T.);
#1063=ADVANCED_FACE('',(#153),#1000,.F.);
#1064=ADVANCED_FACE('',(#154,#68),#90,.T.);
#1065=ADVANCED_FACE('',(#155),#1001,.F.);
#1066=ADVANCED_FACE('',(#156,#69),#91,.T.);
#1067=CLOSED_SHELL('',(#1002,#1003,#1004,#1005,#1006,#1007,#1008,#1009,
#1010,#1011,#1012,#1013,#1014,#1015,#1016,#1017,#1018,#1019,#1020,#1021,
#1022,#1023,#1024,#1025,#1026,#1027,#1028,#1029,#1030,#1031,#1032,#1033,
#1034,#1035,#1036,#1037,#1038,#1039,#1040,#1041,#1042,#1043,#1044,#1045));
#1068=CLOSED_SHELL('',(#1046,#1047,#1048,#1049,#1050,#1051,#1052,#1053,
#1054,#1055));
#1069=CLOSED_SHELL('',(#1056,#1057,#1058,#1059));
#1070=CLOSED_SHELL('',(#1060,#1061,#1062,#1063,#1064,#1065,#1066));
#1071=DERIVED_UNIT_ELEMENT(#1073,1.);
#1072=DERIVED_UNIT_ELEMENT(#1899,-3.);
#1073=(
MASS_UNIT()
NAMED_UNIT(*)
SI_UNIT(.KILO.,.GRAM.)
);
#1074=DERIVED_UNIT((#1071,#1072));
#1075=MEASURE_REPRESENTATION_ITEM('density measure',
POSITIVE_RATIO_MEASURE(7990.),#1074);
#1076=PROPERTY_DEFINITION_REPRESENTATION(#1081,#1078);
#1077=PROPERTY_DEFINITION_REPRESENTATION(#1082,#1079);
#1078=REPRESENTATION('material name',(#1080),#1896);
#1079=REPRESENTATION('density',(#1075),#1896);
#1080=DESCRIPTIVE_REPRESENTATION_ITEM('Stainless Steel 316L',
'Stainless Steel 316L');
#1081=PROPERTY_DEFINITION('material property','material name',#1906);
#1082=PROPERTY_DEFINITION('material property','density of part',#1906);
#1083=AXIS2_PLACEMENT_3D('',#1591,#1232,#1233);
#1084=AXIS2_PLACEMENT_3D('',#1592,#1234,#1235);
#1085=AXIS2_PLACEMENT_3D('',#1594,#1236,#1237);
#1086=AXIS2_PLACEMENT_3D('',#1597,#1239,#1240);
#1087=AXIS2_PLACEMENT_3D('',#1598,#1241,#1242);
#1088=AXIS2_PLACEMENT_3D('',#1600,#1243,#1244);
#1089=AXIS2_PLACEMENT_3D('',#1601,#1245,#1246);
#1090=AXIS2_PLACEMENT_3D('',#1604,#1248,#1249);
#1091=AXIS2_PLACEMENT_3D('',#1605,#1250,#1251);
#1092=AXIS2_PLACEMENT_3D('',#1608,#1252,#1253);
#1093=AXIS2_PLACEMENT_3D('',#1609,#1254,#1255);
#1094=AXIS2_PLACEMENT_3D('',#1612,#1257,#1258);
#1095=AXIS2_PLACEMENT_3D('',#1613,#1259,#1260);
#1096=AXIS2_PLACEMENT_3D('',#1615,#1261,#1262);
#1097=AXIS2_PLACEMENT_3D('',#1618,#1264,#1265);
#1098=AXIS2_PLACEMENT_3D('',#1619,#1266,#1267);
#1099=AXIS2_PLACEMENT_3D('',#1622,#1268,#1269);
#1100=AXIS2_PLACEMENT_3D('',#1623,#1270,#1271);
#1101=AXIS2_PLACEMENT_3D('',#1626,#1273,#1274);
#1102=AXIS2_PLACEMENT_3D('',#1627,#1275,#1276);
#1103=AXIS2_PLACEMENT_3D('',#1629,#1277,#1278);
#1104=AXIS2_PLACEMENT_3D('',#1632,#1280,#1281);
#1105=AXIS2_PLACEMENT_3D('',#1633,#1282,#1283);
#1106=AXIS2_PLACEMENT_3D('',#1636,#1284,#1285);
#1107=AXIS2_PLACEMENT_3D('',#1637,#1286,#1287);
#1108=AXIS2_PLACEMENT_3D('',#1640,#1289,#1290);
#1109=AXIS2_PLACEMENT_3D('',#1641,#1291,#1292);
#1110=AXIS2_PLACEMENT_3D('',#1643,#1293,#1294);
#1111=AXIS2_PLACEMENT_3D('',#1646,#1296,#1297);
#1112=AXIS2_PLACEMENT_3D('',#1647,#1298,#1299);
#1113=AXIS2_PLACEMENT_3D('',#1650,#1300,#1301);
#1114=AXIS2_PLACEMENT_3D('',#1651,#1302,#1303);
#1115=AXIS2_PLACEMENT_3D('',#1654,#1305,#1306);
#1116=AXIS2_PLACEMENT_3D('',#1655,#1307,#1308);
#1117=AXIS2_PLACEMENT_3D('',#1657,#1309,#1310);
#1118=AXIS2_PLACEMENT_3D('',#1660,#1312,#1313);
#1119=AXIS2_PLACEMENT_3D('',#1661,#1314,#1315);
#1120=AXIS2_PLACEMENT_3D('',#1664,#1316,#1317);
#1121=AXIS2_PLACEMENT_3D('',#1665,#1318,#1319);
#1122=AXIS2_PLACEMENT_3D('',#1668,#1321,#1322);
#1123=AXIS2_PLACEMENT_3D('',#1669,#1323,#1324);
#1124=AXIS2_PLACEMENT_3D('',#1671,#1325,#1326);
#1125=AXIS2_PLACEMENT_3D('',#1674,#1328,#1329);
#1126=AXIS2_PLACEMENT_3D('',#1675,#1330,#1331);
#1127=AXIS2_PLACEMENT_3D('',#1678,#1332,#1333);
#1128=AXIS2_PLACEMENT_3D('',#1679,#1334,#1335);
#1129=AXIS2_PLACEMENT_3D('',#1682,#1337,#1338);
#1130=AXIS2_PLACEMENT_3D('',#1683,#1339,#1340);
#1131=AXIS2_PLACEMENT_3D('',#1685,#1341,#1342);
#1132=AXIS2_PLACEMENT_3D('',#1688,#1344,#1345);
#1133=AXIS2_PLACEMENT_3D('',#1689,#1346,#1347);
#1134=AXIS2_PLACEMENT_3D('',#1692,#1348,#1349);
#1135=AXIS2_PLACEMENT_3D('',#1693,#1350,#1351);
#1136=AXIS2_PLACEMENT_3D('',#1696,#1353,#1354);
#1137=AXIS2_PLACEMENT_3D('',#1697,#1355,#1356);
#1138=AXIS2_PLACEMENT_3D('',#1699,#1357,#1358);
#1139=AXIS2_PLACEMENT_3D('',#1702,#1360,#1361);
#1140=AXIS2_PLACEMENT_3D('',#1703,#1362,#1363);
#1141=AXIS2_PLACEMENT_3D('',#1706,#1364,#1365);
#1142=AXIS2_PLACEMENT_3D('',#1707,#1366,#1367);
#1143=AXIS2_PLACEMENT_3D('',#1710,#1369,#1370);
#1144=AXIS2_PLACEMENT_3D('',#1711,#1371,#1372);
#1145=AXIS2_PLACEMENT_3D('',#1713,#1373,#1374);
#1146=AXIS2_PLACEMENT_3D('',#1716,#1376,#1377);
#1147=AXIS2_PLACEMENT_3D('',#1717,#1378,#1379);
#1148=AXIS2_PLACEMENT_3D('',#1720,#1380,#1381);
#1149=AXIS2_PLACEMENT_3D('',#1721,#1382,#1383);
#1150=AXIS2_PLACEMENT_3D('',#1724,#1385,#1386);
#1151=AXIS2_PLACEMENT_3D('',#1725,#1387,#1388);
#1152=AXIS2_PLACEMENT_3D('',#1727,#1390,#1391);
#1153=AXIS2_PLACEMENT_3D('',#1729,#1393,#1394);
#1154=AXIS2_PLACEMENT_3D('',#1731,#1396,#1397);
#1155=AXIS2_PLACEMENT_3D('',#1733,#1399,#1400);
#1156=AXIS2_PLACEMENT_3D('',#1735,#1402,#1403);
#1157=AXIS2_PLACEMENT_3D('',#1737,#1405,#1406);
#1158=AXIS2_PLACEMENT_3D('',#1739,#1408,#1409);
#1159=AXIS2_PLACEMENT_3D('',#1741,#1411,#1412);
#1160=AXIS2_PLACEMENT_3D('',#1743,#1413,#1414);
#1161=AXIS2_PLACEMENT_3D('',#1747,#1416,#1417);
#1162=AXIS2_PLACEMENT_3D('',#1748,#1418,#1419);
#1163=AXIS2_PLACEMENT_3D('',#1749,#1420,#1421);
#1164=AXIS2_PLACEMENT_3D('',#1751,#1422,#1423);
#1165=AXIS2_PLACEMENT_3D('',#1753,#1425,#1426);
#1166=AXIS2_PLACEMENT_3D('',#1756,#1427,#1428);
#1167=AXIS2_PLACEMENT_3D('',#1760,#1430,#1431);
#1168=AXIS2_PLACEMENT_3D('',#1762,#1433,#1434);
#1169=AXIS2_PLACEMENT_3D('',#1765,#1435,#1436);
#1170=AXIS2_PLACEMENT_3D('',#1769,#1438,#1439);
#1171=AXIS2_PLACEMENT_3D('',#1773,#1441,#1442);
#1172=AXIS2_PLACEMENT_3D('',#1776,#1444,#1445);
#1173=AXIS2_PLACEMENT_3D('',#1780,#1447,#1448);
#1174=AXIS2_PLACEMENT_3D('',#1782,#1450,#1451);
#1175=AXIS2_PLACEMENT_3D('',#1786,#1453,#1454);
#1176=AXIS2_PLACEMENT_3D('',#1790,#1456,#1457);
#1177=AXIS2_PLACEMENT_3D('',#1795,#1460,#1461);
#1178=AXIS2_PLACEMENT_3D('',#1798,#1463,#1464);
#1179=AXIS2_PLACEMENT_3D('',#1799,#1465,#1466);
#1180=AXIS2_PLACEMENT_3D('',#1804,#1469,#1470);
#1181=AXIS2_PLACEMENT_3D('',#1805,#1471,#1472);
#1182=AXIS2_PLACEMENT_3D('',#1808,#1475,#1476);
#1183=AXIS2_PLACEMENT_3D('',#1811,#1479,#1480);
#1184=AXIS2_PLACEMENT_3D('',#1812,#1481,#1482);
#1185=AXIS2_PLACEMENT_3D('',#1813,#1483,#1484);
#1186=AXIS2_PLACEMENT_3D('',#1816,#1487,#1488);
#1187=AXIS2_PLACEMENT_3D('',#1817,#1489,#1490);
#1188=AXIS2_PLACEMENT_3D('',#1818,#1491,#1492);
#1189=AXIS2_PLACEMENT_3D('',#1821,#1495,#1496);
#1190=AXIS2_PLACEMENT_3D('',#1822,#1497,#1498);
#1191=AXIS2_PLACEMENT_3D('',#1823,#1499,#1500);
#1192=AXIS2_PLACEMENT_3D('',#1825,#1501,#1502);
#1193=AXIS2_PLACEMENT_3D('',#1827,#1503,#1504);
#1194=AXIS2_PLACEMENT_3D('',#1828,#1505,#1506);
#1195=AXIS2_PLACEMENT_3D('',#1830,#1507,#1508);
#1196=AXIS2_PLACEMENT_3D('',#1832,#1510,#1511);
#1197=AXIS2_PLACEMENT_3D('',#1834,#1512,#1513);
#1198=AXIS2_PLACEMENT_3D('',#1835,#1514,#1515);
#1199=AXIS2_PLACEMENT_3D('',#1838,#1517,#1518);
#1200=AXIS2_PLACEMENT_3D('',#1839,#1519,#1520);
#1201=AXIS2_PLACEMENT_3D('',#1841,#1521,#1522);
#1202=AXIS2_PLACEMENT_3D('',#1842,#1523,#1524);
#1203=AXIS2_PLACEMENT_3D('',#1845,#1526,#1527);
#1204=AXIS2_PLACEMENT_3D('',#1846,#1528,#1529);
#1205=AXIS2_PLACEMENT_3D('',#1848,#1530,#1531);
#1206=AXIS2_PLACEMENT_3D('',#1849,#1532,#1533);
#1207=AXIS2_PLACEMENT_3D('',#1851,#1534,#1535);
#1208=AXIS2_PLACEMENT_3D('',#1853,#1537,#1538);
#1209=AXIS2_PLACEMENT_3D('',#1855,#1539,#1540);
#1210=AXIS2_PLACEMENT_3D('',#1856,#1541,#1542);
#1211=AXIS2_PLACEMENT_3D('',#1858,#1544,#1545);
#1212=AXIS2_PLACEMENT_3D('',#1860,#1546,#1547);
#1213=AXIS2_PLACEMENT_3D('',#1862,#1548,#1549);
#1214=AXIS2_PLACEMENT_3D('',#1863,#1550,#1551);
#1215=AXIS2_PLACEMENT_3D('',#1866,#1553,#1554);
#1216=AXIS2_PLACEMENT_3D('',#1867,#1555,#1556);
#1217=AXIS2_PLACEMENT_3D('',#1869,#1557,#1558);
#1218=AXIS2_PLACEMENT_3D('',#1870,#1559,#1560);
#1219=AXIS2_PLACEMENT_3D('',#1872,#1562,#1563);
#1220=AXIS2_PLACEMENT_3D('',#1874,#1564,#1565);
#1221=AXIS2_PLACEMENT_3D('',#1877,#1567,#1568);
#1222=AXIS2_PLACEMENT_3D('',#1878,#1569,#1570);
#1223=AXIS2_PLACEMENT_3D('',#1879,#1571,#1572);
#1224=AXIS2_PLACEMENT_3D('',#1881,#1573,#1574);
#1225=AXIS2_PLACEMENT_3D('',#1882,#1575,#1576);
#1226=AXIS2_PLACEMENT_3D('',#1885,#1578,#1579);
#1227=AXIS2_PLACEMENT_3D('',#1886,#1580,#1581);
#1228=AXIS2_PLACEMENT_3D('',#1888,#1582,#1583);
#1229=AXIS2_PLACEMENT_3D('',#1889,#1584,#1585);
#1230=AXIS2_PLACEMENT_3D('',#1892,#1587,#1588);
#1231=AXIS2_PLACEMENT_3D('',#1893,#1589,#1590);
#1232=DIRECTION('axis',(0.,0.,1.));
#1233=DIRECTION('refdir',(1.,0.,0.));
#1234=DIRECTION('center_axis',(0.,-1.,1.70803542246521E-16));
#1235=DIRECTION('ref_axis',(0.,-1.15453776293802E-16,-1.));
#1236=DIRECTION('center_axis',(0.,-1.,0.));
#1237=DIRECTION('ref_axis',(0.,-1.15453776293802E-16,-1.));
#1238=DIRECTION('',(0.,-1.,1.70803542246521E-16));
#1239=DIRECTION('center_axis',(0.,-1.,1.70803542246521E-16));
#1240=DIRECTION('ref_axis',(1.,0.,0.));
#1241=DIRECTION('center_axis',(0.,1.,-1.70803542246521E-16));
#1242=DIRECTION('ref_axis',(0.,1.70803542246521E-16,1.));
#1243=DIRECTION('center_axis',(0.,-1.,1.70803542246521E-16));
#1244=DIRECTION('ref_axis',(1.,0.,0.));
#1245=DIRECTION('center_axis',(0.,-1.,1.70803542246521E-16));
#1246=DIRECTION('ref_axis',(0.,-1.15453776293802E-16,-1.));
#1247=DIRECTION('',(0.,-1.,1.70803542246522E-16));
#1248=DIRECTION('center_axis',(0.,1.,0.));
#1249=DIRECTION('ref_axis',(0.,-1.15453776293802E-16,-1.));
#1250=DIRECTION('center_axis',(0.,-1.,0.));
#1251=DIRECTION('ref_axis',(0.,0.,-1.));
#1252=DIRECTION('center_axis',(0.,-1.,0.));
#1253=DIRECTION('ref_axis',(0.,0.,1.));
#1254=DIRECTION('center_axis',(0.,-1.,0.));
#1255=DIRECTION('ref_axis',(0.,0.,1.));
#1256=DIRECTION('',(-8.65956056235511E-17,-0.707106781186533,0.707106781186562));
#1257=DIRECTION('center_axis',(0.,1.,0.));
#1258=DIRECTION('ref_axis',(0.,0.,1.));
#1259=DIRECTION('center_axis',(0.,1.,0.));
#1260=DIRECTION('ref_axis',(0.,0.,1.));
#1261=DIRECTION('center_axis',(0.,1.,0.));
#1262=DIRECTION('ref_axis',(0.,0.,-1.));
#1263=DIRECTION('',(-8.65956056235496E-17,0.707106781186545,-0.70710678118655));
#1264=DIRECTION('center_axis',(0.,-1.,0.));
#1265=DIRECTION('ref_axis',(0.,0.,-1.));
#1266=DIRECTION('center_axis',(0.,-1.,0.));
#1267=DIRECTION('ref_axis',(0.,0.,-1.));
#1268=DIRECTION('center_axis',(0.,-1.,0.));
#1269=DIRECTION('ref_axis',(0.,0.,1.));
#1270=DIRECTION('center_axis',(0.,-1.,0.));
#1271=DIRECTION('ref_axis',(0.,0.,1.));
#1272=DIRECTION('',(-8.65956056235478E-17,-0.70710678118656,0.707106781186535));
#1273=DIRECTION('center_axis',(0.,1.,0.));
#1274=DIRECTION('ref_axis',(0.,0.,1.));
#1275=DIRECTION('center_axis',(0.,1.,0.));
#1276=DIRECTION('ref_axis',(0.,0.,1.));
#1277=DIRECTION('center_axis',(0.,1.,0.));
#1278=DIRECTION('ref_axis',(0.,0.,-1.));
#1279=DIRECTION('',(-8.65956056235494E-17,0.707106781186548,-0.707106781186548));
#1280=DIRECTION('center_axis',(0.,-1.,0.));
#1281=DIRECTION('ref_axis',(0.,0.,-1.));
#1282=DIRECTION('center_axis',(0.,-1.,0.));
#1283=DIRECTION('ref_axis',(0.,0.,-1.));
#1284=DIRECTION('center_axis',(0.,-1.,0.));
#1285=DIRECTION('ref_axis',(0.,0.,1.));
#1286=DIRECTION('center_axis',(0.,-1.,0.));
#1287=DIRECTION('ref_axis',(0.,0.,1.));
#1288=DIRECTION('',(-8.65956056235498E-17,-0.707106781186544,0.707106781186551));
#1289=DIRECTION('center_axis',(0.,1.,0.));
#1290=DIRECTION('ref_axis',(0.,0.,1.));
#1291=DIRECTION('center_axis',(0.,1.,0.));
#1292=DIRECTION('ref_axis',(0.,0.,1.));
#1293=DIRECTION('center_axis',(0.,1.,0.));
#1294=DIRECTION('ref_axis',(0.,0.,-1.));
#1295=DIRECTION('',(-8.65956056235483E-17,0.707106781186556,-0.707106781186539));
#1296=DIRECTION('center_axis',(0.,-1.,0.));
#1297=DIRECTION('ref_axis',(0.,0.,-1.));
#1298=DIRECTION('center_axis',(0.,-1.,0.));
#1299=DIRECTION('ref_axis',(0.,0.,-1.));
#1300=DIRECTION('center_axis',(0.,-1.,0.));
#1301=DIRECTION('ref_axis',(0.,0.,1.));
#1302=DIRECTION('center_axis',(0.,-1.,0.));
#1303=DIRECTION('ref_axis',(0.,0.,1.));
#1304=DIRECTION('',(-8.65956056235478E-17,-0.70710678118656,0.707106781186535));
#1305=DIRECTION('center_axis',(0.,1.,0.));
#1306=DIRECTION('ref_axis',(0.,0.,1.));
#1307=DIRECTION('center_axis',(0.,1.,0.));
#1308=DIRECTION('ref_axis',(0.,0.,1.));
#1309=DIRECTION('center_axis',(0.,1.,0.));
#1310=DIRECTION('ref_axis',(0.,0.,-1.));
#1311=DIRECTION('',(-8.65956056235494E-17,0.707106781186548,-0.707106781186548));
#1312=DIRECTION('center_axis',(0.,-1.,0.));
#1313=DIRECTION('ref_axis',(0.,0.,-1.));
#1314=DIRECTION('center_axis',(0.,-1.,0.));
#1315=DIRECTION('ref_axis',(0.,0.,-1.));
#1316=DIRECTION('center_axis',(0.,-1.,0.));
#1317=DIRECTION('ref_axis',(0.,0.,1.));
#1318=DIRECTION('center_axis',(0.,-1.,0.));
#1319=DIRECTION('ref_axis',(0.,0.,1.));
#1320=DIRECTION('',(-8.65956056235517E-17,-0.707106781186528,0.707106781186567));
#1321=DIRECTION('center_axis',(0.,1.,0.));
#1322=DIRECTION('ref_axis',(0.,0.,1.));
#1323=DIRECTION('center_axis',(0.,1.,0.));
#1324=DIRECTION('ref_axis',(0.,0.,1.));
#1325=DIRECTION('center_axis',(0.,1.,0.));
#1326=DIRECTION('ref_axis',(0.,0.,-1.));
#1327=DIRECTION('',(-8.65956056235502E-17,0.707106781186541,-0.707106781186554));
#1328=DIRECTION('center_axis',(0.,-1.,0.));
#1329=DIRECTION('ref_axis',(0.,0.,-1.));
#1330=DIRECTION('center_axis',(0.,-1.,0.));
#1331=DIRECTION('ref_axis',(0.,0.,-1.));
#1332=DIRECTION('center_axis',(0.,-1.,0.));
#1333=DIRECTION('ref_axis',(0.,0.,1.));
#1334=DIRECTION('center_axis',(0.,-1.,0.));
#1335=DIRECTION('ref_axis',(0.,0.,1.));
#1336=DIRECTION('',(-8.65956056235478E-17,-0.70710678118656,0.707106781186535));
#1337=DIRECTION('center_axis',(0.,1.,0.));
#1338=DIRECTION('ref_axis',(0.,0.,1.));
#1339=DIRECTION('center_axis',(0.,1.,0.));
#1340=DIRECTION('ref_axis',(0.,0.,1.));
#1341=DIRECTION('center_axis',(0.,1.,0.));
#1342=DIRECTION('ref_axis',(0.,0.,-1.));
#1343=DIRECTION('',(-8.65956056235494E-17,0.707106781186548,-0.707106781186548));
#1344=DIRECTION('center_axis',(0.,-1.,0.));
#1345=DIRECTION('ref_axis',(0.,0.,-1.));
#1346=DIRECTION('center_axis',(0.,-1.,0.));
#1347=DIRECTION('ref_axis',(0.,0.,-1.));
#1348=DIRECTION('center_axis',(0.,-1.,0.));
#1349=DIRECTION('ref_axis',(0.,0.,1.));
#1350=DIRECTION('center_axis',(0.,-1.,0.));
#1351=DIRECTION('ref_axis',(0.,0.,1.));
#1352=DIRECTION('',(-8.65956056235507E-17,-0.707106781186536,0.707106781186559));
#1353=DIRECTION('center_axis',(0.,1.,0.));
#1354=DIRECTION('ref_axis',(0.,0.,1.));
#1355=DIRECTION('center_axis',(0.,1.,0.));
#1356=DIRECTION('ref_axis',(0.,0.,1.));
#1357=DIRECTION('center_axis',(0.,1.,0.));
#1358=DIRECTION('ref_axis',(0.,0.,-1.));
#1359=DIRECTION('',(-8.65956056235507E-17,0.707106781186536,-0.707106781186559));
#1360=DIRECTION('center_axis',(0.,-1.,0.));
#1361=DIRECTION('ref_axis',(0.,0.,-1.));
#1362=DIRECTION('center_axis',(0.,-1.,0.));
#1363=DIRECTION('ref_axis',(0.,0.,-1.));
#1364=DIRECTION('center_axis',(0.,-1.,0.));
#1365=DIRECTION('ref_axis',(0.,0.,1.));
#1366=DIRECTION('center_axis',(0.,-1.,0.));
#1367=DIRECTION('ref_axis',(0.,0.,1.));
#1368=DIRECTION('',(-8.65956056235478E-17,-0.70710678118656,0.707106781186535));
#1369=DIRECTION('center_axis',(0.,1.,0.));
#1370=DIRECTION('ref_axis',(0.,0.,1.));
#1371=DIRECTION('center_axis',(0.,1.,0.));
#1372=DIRECTION('ref_axis',(0.,0.,1.));
#1373=DIRECTION('center_axis',(0.,1.,0.));
#1374=DIRECTION('ref_axis',(0.,0.,-1.));
#1375=DIRECTION('',(-8.65956056235494E-17,0.707106781186548,-0.707106781186548));
#1376=DIRECTION('center_axis',(0.,-1.,0.));
#1377=DIRECTION('ref_axis',(0.,0.,-1.));
#1378=DIRECTION('center_axis',(0.,1.,0.));
#1379=DIRECTION('ref_axis',(0.,0.,1.));
#1380=DIRECTION('center_axis',(0.,1.,0.));
#1381=DIRECTION('ref_axis',(0.,0.,1.));
#1382=DIRECTION('center_axis',(0.,1.,0.));
#1383=DIRECTION('ref_axis',(0.,0.,1.));
#1384=DIRECTION('',(8.65956056235475E-17,-0.707106781186562,0.707106781186533));
#1385=DIRECTION('center_axis',(0.,-1.,0.));
#1386=DIRECTION('ref_axis',(0.,0.,1.));
#1387=DIRECTION('center_axis',(0.,1.,0.));
#1388=DIRECTION('ref_axis',(0.,0.,1.));
#1389=DIRECTION('',(0.,1.,0.));
#1390=DIRECTION('center_axis',(0.,1.,0.));
#1391=DIRECTION('ref_axis',(0.,0.,1.));
#1392=DIRECTION('',(0.,1.,0.));
#1393=DIRECTION('center_axis',(0.,1.,0.));
#1394=DIRECTION('ref_axis',(0.,0.,1.));
#1395=DIRECTION('',(0.,1.,0.));
#1396=DIRECTION('center_axis',(0.,1.,0.));
#1397=DIRECTION('ref_axis',(0.,0.,1.));
#1398=DIRECTION('',(0.,1.,0.));
#1399=DIRECTION('center_axis',(0.,1.,0.));
#1400=DIRECTION('ref_axis',(0.,0.,1.));
#1401=DIRECTION('',(0.,1.,0.));
#1402=DIRECTION('center_axis',(0.,1.,0.));
#1403=DIRECTION('ref_axis',(0.,0.,1.));
#1404=DIRECTION('',(0.,1.,0.));
#1405=DIRECTION('center_axis',(0.,1.,0.));
#1406=DIRECTION('ref_axis',(0.,0.,1.));
#1407=DIRECTION('',(0.,1.,0.));
#1408=DIRECTION('center_axis',(0.,1.,0.));
#1409=DIRECTION('ref_axis',(0.,0.,1.));
#1410=DIRECTION('',(0.,1.,0.));
#1411=DIRECTION('center_axis',(0.,1.,0.));
#1412=DIRECTION('ref_axis',(0.,0.,1.));
#1413=DIRECTION('center_axis',(0.,-1.,0.));
#1414=DIRECTION('ref_axis',(0.,0.,-1.));
#1415=DIRECTION('',(-4.18853873767708E-17,0.939692620785906,-0.342020143325676));
#1416=DIRECTION('center_axis',(0.,-1.,0.));
#1417=DIRECTION('ref_axis',(0.,0.,-1.));
#1418=DIRECTION('center_axis',(0.,-1.,0.));
#1419=DIRECTION('ref_axis',(0.,0.,-1.));
#1420=DIRECTION('center_axis',(0.,-1.,0.));
#1421=DIRECTION('ref_axis',(0.,0.,-1.));
#1422=DIRECTION('center_axis',(0.,-1.,0.));
#1423=DIRECTION('ref_axis',(0.,0.,-1.));
#1424=DIRECTION('',(1.15079156022785E-16,0.342020143325674,-0.939692620785907));
#1425=DIRECTION('center_axis',(0.,-1.,0.));
#1426=DIRECTION('ref_axis',(0.,0.,-1.));
#1427=DIRECTION('center_axis',(0.,1.,0.));
#1428=DIRECTION('ref_axis',(0.,0.,-1.));
#1429=DIRECTION('',(-0.270619244774561,0.707051392424245,-0.653332650973899));
#1430=DIRECTION('center_axis',(0.,-1.,0.));
#1431=DIRECTION('ref_axis',(0.,0.,-1.));
#1432=DIRECTION('',(0.270619244774561,0.707051392424236,0.653332650973909));
#1433=DIRECTION('center_axis',(0.,-1.,0.));
#1434=DIRECTION('ref_axis',(0.,0.,-1.));
#1435=DIRECTION('center_axis',(0.,-1.,0.));
#1436=DIRECTION('ref_axis',(0.,0.,-1.));
#1437=DIRECTION('',(0.,1.,0.));
#1438=DIRECTION('center_axis',(0.,1.,0.));
#1439=DIRECTION('ref_axis',(0.,0.,-1.));
#1440=DIRECTION('',(0.,1.,0.));
#1441=DIRECTION('center_axis',(0.,-1.,0.));
#1442=DIRECTION('ref_axis',(0.,0.,-1.));
#1443=DIRECTION('',(0.,-1.,0.));
#1444=DIRECTION('center_axis',(0.,-1.,0.));
#1445=DIRECTION('ref_axis',(0.,0.,-1.));
#1446=DIRECTION('',(0.,1.,0.));
#1447=DIRECTION('center_axis',(0.,1.,0.));
#1448=DIRECTION('ref_axis',(0.,0.,-1.));
#1449=DIRECTION('',(0.,1.,0.));
#1450=DIRECTION('center_axis',(0.,-1.,0.));
#1451=DIRECTION('ref_axis',(0.,0.,-1.));
#1452=DIRECTION('',(0.,1.,0.));
#1453=DIRECTION('center_axis',(0.,-1.,0.));
#1454=DIRECTION('ref_axis',(0.,0.,-1.));
#1455=DIRECTION('',(0.,-1.,0.));
#1456=DIRECTION('center_axis',(0.,-1.,0.));
#1457=DIRECTION('ref_axis',(0.,0.,-1.));
#1458=DIRECTION('',(0.,-1.,0.));
#1459=DIRECTION('',(0.,-1.,0.));
#1460=DIRECTION('center_axis',(0.,-1.,0.));
#1461=DIRECTION('ref_axis',(0.,0.,-1.));
#1462=DIRECTION('',(0.,-1.,0.));
#1463=DIRECTION('center_axis',(0.,-1.,0.));
#1464=DIRECTION('ref_axis',(0.,0.,-1.));
#1465=DIRECTION('center_axis',(0.,-1.,0.));
#1466=DIRECTION('ref_axis',(0.,0.,-1.));
#1467=DIRECTION('',(-0.382683432365084,0.,-0.923879532511289));
#1468=DIRECTION('',(0.382683432365091,0.,0.923879532511287));
#1469=DIRECTION('center_axis',(0.,1.,0.));
#1470=DIRECTION('ref_axis',(0.,0.,-1.));
#1471=DIRECTION('center_axis',(0.,-1.,0.));
#1472=DIRECTION('ref_axis',(-0.923879532511288,0.,0.382683432365087));
#1473=DIRECTION('',(-0.270619244774561,0.707051392424244,-0.6533326509739));
#1474=DIRECTION('',(0.270619244774558,0.707051392424239,0.653332650973906));
#1475=DIRECTION('center_axis',(0.,-1.,0.));
#1476=DIRECTION('ref_axis',(0.,0.,-1.));
#1477=DIRECTION('',(-0.382683432365084,0.,-0.923879532511289));
#1478=DIRECTION('',(0.38268343236509,0.,0.923879532511287));
#1479=DIRECTION('center_axis',(0.,-1.,0.));
#1480=DIRECTION('ref_axis',(0.,0.,-1.));
#1481=DIRECTION('center_axis',(0.,1.,0.));
#1482=DIRECTION('ref_axis',(0.,0.,1.));
#1483=DIRECTION('center_axis',(0.,-1.,0.));
#1484=DIRECTION('ref_axis',(0.,0.,-1.));
#1485=DIRECTION('',(0.382683432365091,0.,0.923879532511287));
#1486=DIRECTION('',(0.38268343236509,0.,0.923879532511287));
#1487=DIRECTION('center_axis',(-0.923879532511287,0.,0.38268343236509));
#1488=DIRECTION('ref_axis',(0.38268343236509,0.,0.923879532511287));
#1489=DIRECTION('center_axis',(-0.923879532511287,0.,0.382683432365091));
#1490=DIRECTION('ref_axis',(0.382683432365091,0.,0.923879532511287));
#1491=DIRECTION('center_axis',(0.,-1.,0.));
#1492=DIRECTION('ref_axis',(-6.98296672221876E-15,0.,1.));
#1493=DIRECTION('',(-0.382683432365084,0.,-0.923879532511289));
#1494=DIRECTION('',(-0.382683432365084,0.,-0.923879532511289));
#1495=DIRECTION('center_axis',(0.923879532511289,0.,-0.382683432365084));
#1496=DIRECTION('ref_axis',(-0.382683432365084,0.,-0.923879532511289));
#1497=DIRECTION('center_axis',(0.923879532511289,0.,-0.382683432365084));
#1498=DIRECTION('ref_axis',(-0.382683432365084,0.,-0.923879532511289));
#1499=DIRECTION('center_axis',(0.,-1.,1.31581988102093E-16));
#1500=DIRECTION('ref_axis',(0.,-1.31581988102093E-16,-1.));
#1501=DIRECTION('center_axis',(0.,-1.,1.31581988102093E-16));
#1502=DIRECTION('ref_axis',(1.,0.,0.));
#1503=DIRECTION('center_axis',(0.,-1.,1.31581988102093E-16));
#1504=DIRECTION('ref_axis',(1.,0.,0.));
#1505=DIRECTION('center_axis',(0.,-1.,1.31581988102093E-16));
#1506=DIRECTION('ref_axis',(0.,-1.24900090267769E-16,-1.));
#1507=DIRECTION('center_axis',(0.,-1.,1.31581988102093E-16));
#1508=DIRECTION('ref_axis',(1.,0.,0.));
#1509=DIRECTION('',(0.,1.,-1.31581988102093E-16));
#1510=DIRECTION('center_axis',(0.,-1.,1.31581988102093E-16));
#1511=DIRECTION('ref_axis',(0.,-1.31581988102093E-16,-1.));
#1512=DIRECTION('center_axis',(0.,-1.,1.31581988102093E-16));
#1513=DIRECTION('ref_axis',(1.,0.,0.));
#1514=DIRECTION('center_axis',(0.,-1.,1.31581988102093E-16));
#1515=DIRECTION('ref_axis',(0.,-1.24900090267769E-16,-1.));
#1516=DIRECTION('',(0.,1.,-1.31581988102093E-16));
#1517=DIRECTION('center_axis',(0.,-1.,1.31581988102093E-16));
#1518=DIRECTION('ref_axis',(1.,0.,0.));
#1519=DIRECTION('center_axis',(0.,1.,-1.31581988102093E-16));
#1520=DIRECTION('ref_axis',(0.,1.31581988102093E-16,1.));
#1521=DIRECTION('center_axis',(0.,-1.,1.31581988102093E-16));
#1522=DIRECTION('ref_axis',(1.,0.,0.));
#1523=DIRECTION('center_axis',(0.,-1.,1.31581988102093E-16));
#1524=DIRECTION('ref_axis',(0.,-1.24900090267769E-16,-1.));
#1525=DIRECTION('',(0.,1.,-1.31581988102093E-16));
#1526=DIRECTION('center_axis',(0.,-1.,1.31581988102093E-16));
#1527=DIRECTION('ref_axis',(1.,0.,0.));
#1528=DIRECTION('center_axis',(0.,1.,-1.31581988102093E-16));
#1529=DIRECTION('ref_axis',(0.,1.31581988102093E-16,1.));
#1530=DIRECTION('center_axis',(0.,-1.,1.31581988102093E-16));
#1531=DIRECTION('ref_axis',(1.,0.,0.));
#1532=DIRECTION('center_axis',(0.,-1.,1.31581988102093E-16));
#1533=DIRECTION('ref_axis',(0.,-1.24900090267769E-16,-1.));
#1534=DIRECTION('center_axis',(0.,-1.,1.31581988102093E-16));
#1535=DIRECTION('ref_axis',(1.,0.,0.));
#1536=DIRECTION('',(0.,1.,-1.31581988102093E-16));
#1537=DIRECTION('center_axis',(0.,1.,-1.31581988102093E-16));
#1538=DIRECTION('ref_axis',(0.,1.31581988102093E-16,1.));
#1539=DIRECTION('center_axis',(0.,-1.,1.31581988102093E-16));
#1540=DIRECTION('ref_axis',(1.,0.,0.));
#1541=DIRECTION('center_axis',(0.,-1.,1.31581988102093E-16));
#1542=DIRECTION('ref_axis',(0.,-1.24900090267769E-16,-1.));
#1543=DIRECTION('',(0.,1.,-1.31581988102093E-16));
#1544=DIRECTION('center_axis',(0.,-1.,0.));
#1545=DIRECTION('ref_axis',(0.,0.,-1.));
#1546=DIRECTION('center_axis',(0.,-1.,0.));
#1547=DIRECTION('ref_axis',(1.,0.,0.));
#1548=DIRECTION('center_axis',(0.,-1.,0.));
#1549=DIRECTION('ref_axis',(1.,0.,0.));
#1550=DIRECTION('center_axis',(0.,-1.,0.));
#1551=DIRECTION('ref_axis',(0.,0.,-1.));
#1552=DIRECTION('',(0.,1.,0.));
#1553=DIRECTION('center_axis',(0.,-1.,0.));
#1554=DIRECTION('ref_axis',(1.,0.,0.));
#1555=DIRECTION('center_axis',(0.,1.,0.));
#1556=DIRECTION('ref_axis',(0.,0.,1.));
#1557=DIRECTION('center_axis',(0.,-1.,0.));
#1558=DIRECTION('ref_axis',(1.,0.,0.));
#1559=DIRECTION('center_axis',(0.,-1.,0.));
#1560=DIRECTION('ref_axis',(0.,0.,-1.));
#1561=DIRECTION('',(0.,1.,0.));
#1562=DIRECTION('center_axis',(0.,-1.,0.));
#1563=DIRECTION('ref_axis',(0.,0.,-1.));
#1564=DIRECTION('center_axis',(0.,-1.,0.));
#1565=DIRECTION('ref_axis',(1.,0.,0.));
#1566=DIRECTION('',(0.,1.,0.));
#1567=DIRECTION('center_axis',(0.,-1.,0.));
#1568=DIRECTION('ref_axis',(1.,0.,0.));
#1569=DIRECTION('center_axis',(0.,-1.,0.));
#1570=DIRECTION('ref_axis',(0.,0.,-1.));
#1571=DIRECTION('center_axis',(0.,1.,0.));
#1572=DIRECTION('ref_axis',(0.,0.,1.));
#1573=DIRECTION('center_axis',(0.,-1.,0.));
#1574=DIRECTION('ref_axis',(1.,0.,0.));
#1575=DIRECTION('center_axis',(0.,-1.,0.));
#1576=DIRECTION('ref_axis',(0.,0.,-1.));
#1577=DIRECTION('',(0.,1.,0.));
#1578=DIRECTION('center_axis',(0.,-1.,0.));
#1579=DIRECTION('ref_axis',(1.,0.,0.));
#1580=DIRECTION('center_axis',(0.,1.,0.));
#1581=DIRECTION('ref_axis',(0.,0.,1.));
#1582=DIRECTION('center_axis',(0.,-1.,0.));
#1583=DIRECTION('ref_axis',(1.,0.,0.));
#1584=DIRECTION('center_axis',(0.,-1.,0.));
#1585=DIRECTION('ref_axis',(0.,0.,-1.));
#1586=DIRECTION('',(0.,1.,0.));
#1587=DIRECTION('center_axis',(0.,-1.,0.));
#1588=DIRECTION('ref_axis',(1.,0.,0.));
#1589=DIRECTION('center_axis',(0.,1.,0.));
#1590=DIRECTION('ref_axis',(0.,0.,1.));
#1591=CARTESIAN_POINT('',(0.,0.,0.));
#1592=CARTESIAN_POINT('Origin',(0.,-6.24999999869607,7.25524689699986E-16));
#1593=CARTESIAN_POINT('',(-4.16379911748226E-15,-1.2,34.0000000031132));
#1594=CARTESIAN_POINT('Origin',(0.,-1.2,-1.37033198422231E-16));
#1595=CARTESIAN_POINT('',(-4.16379911748226E-15,-12.4999999973921,34.0000000031132));
#1596=CARTESIAN_POINT('',(-4.16379911748226E-15,-6.24999999869606,34.0000000031132));
#1597=CARTESIAN_POINT('Origin',(0.,-12.4999999973921,1.79304682851803E-15));
#1598=CARTESIAN_POINT('Origin',(0.,-12.4999999972477,-39.0000000007998));
#1599=CARTESIAN_POINT('',(-4.77612251677262E-15,-12.4999999972477,39.0000000007997));
#1600=CARTESIAN_POINT('Origin',(0.,-12.4999999972477,1.79304682849335E-15));
#1601=CARTESIAN_POINT('Origin',(0.,-14.9999999986238,2.22005568434471E-15));
#1602=CARTESIAN_POINT('',(-4.77612251677262E-15,-17.5,39.0000000007997));
#1603=CARTESIAN_POINT('',(-4.77612251677262E-15,-14.9999999986238,39.0000000007997));
#1604=CARTESIAN_POINT('Origin',(0.,-17.5,2.64706454019607E-15));
#1605=CARTESIAN_POINT('Origin',(32.5622672736403,-17.5,32.5622672736407));
#1606=CARTESIAN_POINT('',(32.5622672736403,-17.1,28.3622672736407));
#1607=CARTESIAN_POINT('',(32.5622672736403,-17.1,36.7622672736407));
#1608=CARTESIAN_POINT('Origin',(32.5622672736403,-17.1,32.5622672736407));
#1609=CARTESIAN_POINT('Origin',(32.5622672736403,-17.1,32.5622672736407));
#1610=CARTESIAN_POINT('',(32.5622672736403,-17.5,37.1622672736407));
#1611=CARTESIAN_POINT('',(32.5622672736403,-17.5,37.1622672736407));
#1612=CARTESIAN_POINT('Origin',(32.5622672736403,-17.5,32.5622672736407));
#1613=CARTESIAN_POINT('Origin',(32.5622672736403,-0.399999999999977,32.5622672736407));
#1614=CARTESIAN_POINT('',(32.5622672736403,-0.399999999999977,28.3622672736407));
#1615=CARTESIAN_POINT('Origin',(32.5622672736403,-0.399999999999977,32.5622672736407));
#1616=CARTESIAN_POINT('',(32.5622672736403,2.77555756156289E-16,27.9622672736407));
#1617=CARTESIAN_POINT('',(32.5622672736403,-0.399999999999977,28.3622672736407));
#1618=CARTESIAN_POINT('Origin',(32.5622672736403,0.,32.5622672736407));
#1619=CARTESIAN_POINT('Origin',(-3.21565617558174E-13,-17.5,46.05));
#1620=CARTESIAN_POINT('',(-3.21051265902532E-13,-17.1,41.85));
#1621=CARTESIAN_POINT('',(-3.22079969213816E-13,-17.1,50.25));
#1622=CARTESIAN_POINT('Origin',(-3.21565617558174E-13,-17.1,46.05));
#1623=CARTESIAN_POINT('Origin',(-3.21565617558174E-13,-17.1,46.05));
#1624=CARTESIAN_POINT('',(-3.22128955085782E-13,-17.5,50.65));
#1625=CARTESIAN_POINT('',(-3.22128955085782E-13,-17.5,50.65));
#1626=CARTESIAN_POINT('Origin',(-3.21565617558174E-13,-17.5,46.05));
#1627=CARTESIAN_POINT('Origin',(-3.21565617558174E-13,-0.399999999999977,
46.05));
#1628=CARTESIAN_POINT('',(-3.22079969213816E-13,-0.399999999999978,41.85));
#1629=CARTESIAN_POINT('Origin',(-3.21565617558174E-13,-0.399999999999977,
46.05));
#1630=CARTESIAN_POINT('',(-3.22128955085782E-13,3.12250225675825E-15,41.45));
#1631=CARTESIAN_POINT('',(-3.22079969213816E-13,-0.399999999999977,41.85));
#1632=CARTESIAN_POINT('Origin',(-3.21565617558174E-13,0.,46.05));
#1633=CARTESIAN_POINT('Origin',(-32.5622672736408,-17.5,32.5622672736402));
#1634=CARTESIAN_POINT('',(-32.5622672736408,-17.1,28.3622672736402));
#1635=CARTESIAN_POINT('',(-32.5622672736408,-17.1,36.7622672736402));
#1636=CARTESIAN_POINT('Origin',(-32.5622672736408,-17.1,32.5622672736402));
#1637=CARTESIAN_POINT('Origin',(-32.5622672736408,-17.1,32.5622672736402));
#1638=CARTESIAN_POINT('',(-32.5622672736408,-17.5,37.1622672736402));
#1639=CARTESIAN_POINT('',(-32.5622672736408,-17.5,37.1622672736402));
#1640=CARTESIAN_POINT('Origin',(-32.5622672736408,-17.5,32.5622672736402));
#1641=CARTESIAN_POINT('Origin',(-32.5622672736408,-0.400000000000018,32.5622672736402));
#1642=CARTESIAN_POINT('',(-32.5622672736408,-0.400000000000019,28.3622672736402));
#1643=CARTESIAN_POINT('Origin',(-32.5622672736408,-0.400000000000018,32.5622672736402));
#1644=CARTESIAN_POINT('',(-32.5622672736408,9.0205620750794E-16,27.9622672736402));
#1645=CARTESIAN_POINT('',(-32.5622672736408,-0.400000000000018,28.3622672736402));
#1646=CARTESIAN_POINT('Origin',(-32.5622672736408,0.,32.5622672736402));
#1647=CARTESIAN_POINT('Origin',(-46.05,-17.5,-4.82348426337261E-13));
#1648=CARTESIAN_POINT('',(-46.05,-17.1,-4.20000000000048));
#1649=CARTESIAN_POINT('',(-46.05,-17.1,4.19999999999952));
#1650=CARTESIAN_POINT('Origin',(-46.05,-17.1,-4.82348426337261E-13));
#1651=CARTESIAN_POINT('Origin',(-46.05,-17.1,-4.82348426337261E-13));
#1652=CARTESIAN_POINT('',(-46.05,-17.5,4.59999999999955));
#1653=CARTESIAN_POINT('',(-46.05,-17.5,4.59999999999955));
#1654=CARTESIAN_POINT('Origin',(-46.05,-17.5,-4.82348426337261E-13));
#1655=CARTESIAN_POINT('Origin',(-46.05,-0.399999999999977,-4.82348426337261E-13));
#1656=CARTESIAN_POINT('',(-46.05,-0.399999999999977,-4.20000000000048));
#1657=CARTESIAN_POINT('Origin',(-46.05,-0.399999999999977,-4.82348426337261E-13));
#1658=CARTESIAN_POINT('',(-46.05,3.12250225675825E-15,-4.60000000000046));
#1659=CARTESIAN_POINT('',(-46.05,-0.399999999999977,-4.20000000000048));
#1660=CARTESIAN_POINT('Origin',(-46.05,0.,-4.82348426337261E-13));
#1661=CARTESIAN_POINT('Origin',(-32.5622672736401,-17.5,-32.5622672736409));
#1662=CARTESIAN_POINT('',(-32.5622672736401,-17.1,-36.7622672736409));
#1663=CARTESIAN_POINT('',(-32.5622672736401,-17.1,-28.3622672736409));
#1664=CARTESIAN_POINT('Origin',(-32.5622672736401,-17.1,-32.5622672736409));
#1665=CARTESIAN_POINT('Origin',(-32.5622672736401,-17.1,-32.5622672736409));
#1666=CARTESIAN_POINT('',(-32.5622672736401,-17.5,-27.9622672736409));
#1667=CARTESIAN_POINT('',(-32.5622672736401,-17.5,-27.9622672736409));
#1668=CARTESIAN_POINT('Origin',(-32.5622672736401,-17.5,-32.5622672736409));
#1669=CARTESIAN_POINT('Origin',(-32.5622672736401,-0.399999999999977,-32.5622672736409));
#1670=CARTESIAN_POINT('',(-32.5622672736401,-0.399999999999977,-36.7622672736409));
#1671=CARTESIAN_POINT('Origin',(-32.5622672736401,-0.399999999999977,-32.5622672736409));
#1672=CARTESIAN_POINT('',(-32.5622672736401,-1.38777878078145E-16,-37.1622672736409));
#1673=CARTESIAN_POINT('',(-32.5622672736401,-0.399999999999977,-36.7622672736409));
#1674=CARTESIAN_POINT('Origin',(-32.5622672736401,0.,-32.5622672736409));
#1675=CARTESIAN_POINT('Origin',(0.,-17.5,-46.05));
#1676=CARTESIAN_POINT('',(5.14351655641889E-16,-17.1,-50.25));
#1677=CARTESIAN_POINT('',(-5.14351655641889E-16,-17.1,-41.85));
#1678=CARTESIAN_POINT('Origin',(0.,-17.1,-46.05));
#1679=CARTESIAN_POINT('Origin',(0.,-17.1,-46.05));
#1680=CARTESIAN_POINT('',(-5.63337527607787E-16,-17.5,-41.45));
#1681=CARTESIAN_POINT('',(-5.63337527607787E-16,-17.5,-41.45));
#1682=CARTESIAN_POINT('Origin',(0.,-17.5,-46.05));
#1683=CARTESIAN_POINT('Origin',(0.,-0.399999999999977,-46.05));
#1684=CARTESIAN_POINT('',(-5.14351655641888E-16,-0.399999999999978,-50.25));
#1685=CARTESIAN_POINT('Origin',(0.,-0.399999999999977,-46.05));
#1686=CARTESIAN_POINT('',(-5.6333752760778E-16,3.12250225675825E-15,-50.65));
#1687=CARTESIAN_POINT('',(-5.14351655641889E-16,-0.399999999999977,-50.25));
#1688=CARTESIAN_POINT('Origin',(0.,0.,-46.05));
#1689=CARTESIAN_POINT('Origin',(32.5622672736406,-17.5,-32.5622672736405));
#1690=CARTESIAN_POINT('',(32.5622672736406,-17.1,-36.7622672736405));
#1691=CARTESIAN_POINT('',(32.5622672736406,-17.1,-28.3622672736404));
#1692=CARTESIAN_POINT('Origin',(32.5622672736406,-17.1,-32.5622672736405));
#1693=CARTESIAN_POINT('Origin',(32.5622672736406,-17.1,-32.5622672736405));
#1694=CARTESIAN_POINT('',(32.5622672736406,-17.5,-27.9622672736404));
#1695=CARTESIAN_POINT('',(32.5622672736406,-17.5,-27.9622672736404));
#1696=CARTESIAN_POINT('Origin',(32.5622672736406,-17.5,-32.5622672736405));
#1697=CARTESIAN_POINT('Origin',(32.5622672736406,-0.399999999999991,-32.5622672736405));
#1698=CARTESIAN_POINT('',(32.5622672736406,-0.399999999999991,-36.7622672736405));
#1699=CARTESIAN_POINT('Origin',(32.5622672736406,-0.399999999999991,-32.5622672736405));
#1700=CARTESIAN_POINT('',(32.5622672736406,1.45716771982052E-15,-37.1622672736405));
#1701=CARTESIAN_POINT('',(32.5622672736406,-0.399999999999991,-36.7622672736405));
#1702=CARTESIAN_POINT('Origin',(32.5622672736406,0.,-32.5622672736405));
#1703=CARTESIAN_POINT('Origin',(46.05,-17.5,1.60782808779087E-13));
#1704=CARTESIAN_POINT('',(46.05,-17.1,-4.19999999999984));
#1705=CARTESIAN_POINT('',(46.05,-17.1,4.20000000000016));
#1706=CARTESIAN_POINT('Origin',(46.05,-17.1,1.60782808779087E-13));
#1707=CARTESIAN_POINT('Origin',(46.05,-17.1,1.60782808779087E-13));
#1708=CARTESIAN_POINT('',(46.05,-17.5,4.6000000000002));
#1709=CARTESIAN_POINT('',(46.05,-17.5,4.6000000000002));
#1710=CARTESIAN_POINT('Origin',(46.05,-17.5,1.60782808779087E-13));
#1711=CARTESIAN_POINT('Origin',(46.05,-0.399999999999977,1.60782808779087E-13));
#1712=CARTESIAN_POINT('',(46.05,-0.399999999999977,-4.19999999999984));
#1713=CARTESIAN_POINT('Origin',(46.05,-0.399999999999977,1.60782808779087E-13));
#1714=CARTESIAN_POINT('',(46.05,3.12250225675825E-15,-4.59999999999982));
#1715=CARTESIAN_POINT('',(46.05,-0.399999999999977,-4.19999999999984));
#1716=CARTESIAN_POINT('Origin',(46.05,0.,1.60782808779087E-13));
#1717=CARTESIAN_POINT('Origin',(0.,-17.5,0.));
#1718=CARTESIAN_POINT('',(6.94987058516123E-15,-17.,56.75));
#1719=CARTESIAN_POINT('',(-6.94987058516123E-15,-17.,-56.75));
#1720=CARTESIAN_POINT('Origin',(0.,-17.,0.));
#1721=CARTESIAN_POINT('Origin',(0.,-17.,0.));
#1722=CARTESIAN_POINT('',(-6.88863824520386E-15,-17.5,-56.25));
#1723=CARTESIAN_POINT('',(-6.88863824520386E-15,-17.5,-56.25));
#1724=CARTESIAN_POINT('Origin',(0.,-17.5,0.));
#1725=CARTESIAN_POINT('Origin',(-32.5622672736401,-17.5,-32.5622672736409));
#1726=CARTESIAN_POINT('',(-32.5622672736401,-17.5,-36.7622672736409));
#1727=CARTESIAN_POINT('Origin',(-46.05,-17.5,-4.82348426337261E-13));
#1728=CARTESIAN_POINT('',(-46.05,-17.5,-4.20000000000048));
#1729=CARTESIAN_POINT('Origin',(-32.5622672736408,-17.5,32.5622672736402));
#1730=CARTESIAN_POINT('',(-32.5622672736408,-17.5,28.3622672736402));
#1731=CARTESIAN_POINT('Origin',(-3.21565617558174E-13,-17.5,46.05));
#1732=CARTESIAN_POINT('',(-3.22079969213816E-13,-17.5,41.85));
#1733=CARTESIAN_POINT('Origin',(32.5622672736403,-17.5,32.5622672736407));
#1734=CARTESIAN_POINT('',(32.5622672736403,-17.5,28.3622672736407));
#1735=CARTESIAN_POINT('Origin',(46.05,-17.5,1.60782808779087E-13));
#1736=CARTESIAN_POINT('',(46.05,-17.5,-4.19999999999984));
#1737=CARTESIAN_POINT('Origin',(32.5622672736406,-17.5,-32.5622672736405));
#1738=CARTESIAN_POINT('',(32.5622672736406,-17.5,-36.7622672736405));
#1739=CARTESIAN_POINT('Origin',(0.,-17.5,-46.05));
#1740=CARTESIAN_POINT('',(-5.14351655641889E-16,-17.5,-50.25));
#1741=CARTESIAN_POINT('Origin',(0.,-1.2,0.));
#1742=CARTESIAN_POINT('',(-4.70039254576604E-15,-1.2,-38.3816178594403));
#1743=CARTESIAN_POINT('Origin',(0.,-1.2,0.));
#1744=CARTESIAN_POINT('',(-4.72713664470878E-15,-0.599999999999999,-38.6));
#1745=CARTESIAN_POINT('',(-4.70039254576604E-15,-1.2,-38.3816178594403));
#1746=CARTESIAN_POINT('',(4.89093315409474E-15,-0.6,38.6));
#1747=CARTESIAN_POINT('Origin',(0.,-0.6,0.));
#1748=CARTESIAN_POINT('Origin',(0.,-0.6,0.));
#1749=CARTESIAN_POINT('Origin',(0.,-0.6,0.));
#1750=CARTESIAN_POINT('',(-5.0547296634807E-15,-1.57362037666211,41.275));
#1751=CARTESIAN_POINT('Origin',(0.,-1.57362037666211,0.));
#1752=CARTESIAN_POINT('',(-4.72713664470878E-15,-0.6,38.6));
#1753=CARTESIAN_POINT('Origin',(0.,-0.499999999999973,0.));
#1754=CARTESIAN_POINT('',(22.4464207037241,0.,51.5773273599111));
#1755=CARTESIAN_POINT('',(-20.5986616387018,0.,-52.3426942246411));
#1756=CARTESIAN_POINT('Origin',(0.,0.,0.));
#1757=CARTESIAN_POINT('',(22.637792397263,-0.499999999999973,52.039339497907));
#1758=CARTESIAN_POINT('',(22.637792397263,-0.499999999999973,52.039339497907));
#1759=CARTESIAN_POINT('',(-20.7900333322408,-0.499999999999977,-52.804706362637));
#1760=CARTESIAN_POINT('Origin',(0.,-0.499999999999973,0.));
#1761=CARTESIAN_POINT('',(-20.7900333322408,-0.499999999999977,-52.804706362637));
#1762=CARTESIAN_POINT('Origin',(0.,-24.5739145046165,0.));
#1763=CARTESIAN_POINT('',(-14.8667426803801,0.,-38.5046177370373));
#1764=CARTESIAN_POINT('',(16.7145017454024,0.,37.7392508723072));
#1765=CARTESIAN_POINT('Origin',(0.,0.,0.));
#1766=CARTESIAN_POINT('',(-14.8667426803801,-0.999999999999998,-38.5046177370373));
#1767=CARTESIAN_POINT('',(-14.8667426803801,-24.5739145046165,-38.5046177370373));
#1768=CARTESIAN_POINT('',(-16.7145017454027,-0.999999999999998,-37.7392508723071));
#1769=CARTESIAN_POINT('Origin',(0.,-0.999999999999998,0.));
#1770=CARTESIAN_POINT('',(-16.7145017454027,0.,-37.7392508723071));
#1771=CARTESIAN_POINT('',(-16.7145017454027,-24.5739145046165,-37.7392508723071));
#1772=CARTESIAN_POINT('',(-5.0547296634807E-15,0.,41.275));
#1773=CARTESIAN_POINT('Origin',(0.,0.,0.));
#1774=CARTESIAN_POINT('',(-5.0547296634807E-15,-24.5739145046165,41.275));
#1775=CARTESIAN_POINT('',(14.8667426803798,0.,38.5046177370374));
#1776=CARTESIAN_POINT('Origin',(0.,0.,0.));
#1777=CARTESIAN_POINT('',(14.8667426803798,-0.999999999999998,38.5046177370374));
#1778=CARTESIAN_POINT('',(14.8667426803798,-24.5739145046165,38.5046177370374));
#1779=CARTESIAN_POINT('',(16.7145017454024,-0.999999999999998,37.7392508723072));
#1780=CARTESIAN_POINT('Origin',(0.,-0.999999999999998,0.));
#1781=CARTESIAN_POINT('',(16.7145017454024,-24.5739145046165,37.7392508723072));
#1782=CARTESIAN_POINT('Origin',(0.,-24.5739145046165,0.));
#1783=CARTESIAN_POINT('',(-6.94987058516123E-15,-0.499999999999972,56.75));
#1784=CARTESIAN_POINT('',(-6.94987058516123E-15,-24.5739145046165,56.75));
#1785=CARTESIAN_POINT('',(-22.6377923972633,-0.499999999999973,-52.0393394979068));
#1786=CARTESIAN_POINT('Origin',(0.,-0.499999999999973,0.));
#1787=CARTESIAN_POINT('',(-22.6377923972633,-0.999999999999998,-52.0393394979068));
#1788=CARTESIAN_POINT('',(-22.6377923972633,-24.5739145046165,-52.0393394979068));
#1789=CARTESIAN_POINT('',(-20.7900333322408,-0.999999999999998,-52.804706362637));
#1790=CARTESIAN_POINT('Origin',(0.,-0.999999999999998,0.));
#1791=CARTESIAN_POINT('',(-20.7900333322408,-24.5739145046165,-52.804706362637));
#1792=CARTESIAN_POINT('',(22.637792397263,-0.999999999999998,52.039339497907));
#1793=CARTESIAN_POINT('',(22.637792397263,-24.5739145046165,52.039339497907));
#1794=CARTESIAN_POINT('',(20.7900333322404,-0.999999999999998,52.8047063626372));
#1795=CARTESIAN_POINT('Origin',(0.,-0.999999999999998,0.));
#1796=CARTESIAN_POINT('',(20.7900333322404,-0.499999999999971,52.8047063626372));
#1797=CARTESIAN_POINT('',(20.7900333322404,-24.5739145046165,52.8047063626372));
#1798=CARTESIAN_POINT('Origin',(0.,-0.499999999999973,0.));
#1799=CARTESIAN_POINT('Origin',(-56.75,0.,0.));
#1800=CARTESIAN_POINT('',(20.5986616387015,0.,52.3426942246412));
#1801=CARTESIAN_POINT('',(21.1911792617209,0.,53.7731583060798));
#1802=CARTESIAN_POINT('',(-22.4464207037244,0.,-51.5773273599109));
#1803=CARTESIAN_POINT('',(-23.0389383267439,0.,-53.0077914413495));
#1804=CARTESIAN_POINT('Origin',(0.,0.,0.));
#1805=CARTESIAN_POINT('Origin',(0.,-0.499999999999973,0.));
#1806=CARTESIAN_POINT('',(20.7900333322404,-0.499999999999971,52.8047063626372));
#1807=CARTESIAN_POINT('',(-22.6377923972633,-0.499999999999973,-52.0393394979068));
#1808=CARTESIAN_POINT('Origin',(-56.75,0.,0.));
#1809=CARTESIAN_POINT('',(23.0389383267435,0.,53.0077914413496));
#1810=CARTESIAN_POINT('',(-21.1911792617213,0.,-53.7731583060797));
#1811=CARTESIAN_POINT('Origin',(-38.3816178594403,-1.2,0.));
#1812=CARTESIAN_POINT('Origin',(0.,-17.5,0.));
#1813=CARTESIAN_POINT('Origin',(-21.1911792617213,-0.999999999999997,-53.7731583060797));
#1814=CARTESIAN_POINT('',(-23.0389383267439,-0.999999999999997,-53.0077914413495));
#1815=CARTESIAN_POINT('',(-21.1911792617213,-0.999999999999997,-53.7731583060797));
#1816=CARTESIAN_POINT('Origin',(-21.1911792617213,-0.999999999999997,-53.7731583060797));
#1817=CARTESIAN_POINT('Origin',(-23.0389383267439,-0.999999999999997,-53.0077914413495));
#1818=CARTESIAN_POINT('Origin',(21.1911792617209,-0.999999999999997,53.7731583060798));
#1819=CARTESIAN_POINT('',(23.0389383267435,-0.999999999999997,53.0077914413496));
#1820=CARTESIAN_POINT('',(21.1911792617209,-0.999999999999997,53.7731583060798));
#1821=CARTESIAN_POINT('Origin',(21.1911792617209,-0.999999999999997,53.7731583060798));
#1822=CARTESIAN_POINT('Origin',(23.0389383267435,-0.999999999999997,53.0077914413496));
#1823=CARTESIAN_POINT('Origin',(0.,-49.9999999936235,-27.9999999999697));
#1824=CARTESIAN_POINT('',(-4.89858719668956E-15,-49.9999999932585,40.0000000008177));
#1825=CARTESIAN_POINT('Origin',(0.,-49.9999999932585,7.13060292353176E-15));
#1826=CARTESIAN_POINT('',(-3.4290110376107E-15,-49.9999999936235,27.9999999999846));
#1827=CARTESIAN_POINT('Origin',(0.,-49.9999999936235,7.13060292357978E-15));
#1828=CARTESIAN_POINT('Origin',(0.,-50.4999999936235,7.19639391763083E-15));
#1829=CARTESIAN_POINT('',(-3.4290110376107E-15,-50.9999999936235,27.9999999999846));
#1830=CARTESIAN_POINT('Origin',(0.,-50.9999999936235,7.26218491168187E-15));
#1831=CARTESIAN_POINT('',(-3.4290110376107E-15,-50.4999999936235,27.9999999999846));
#1832=CARTESIAN_POINT('Origin',(0.,-50.9999999936979,-27.5));
#1833=CARTESIAN_POINT('',(-3.36777869765522E-15,-50.9999999936979,27.5));
#1834=CARTESIAN_POINT('Origin',(0.,-50.9999999936979,7.26218491169167E-15));
#1835=CARTESIAN_POINT('Origin',(0.,-46.4999999957656,6.67006596550432E-15));
#1836=CARTESIAN_POINT('',(-3.36777869765522E-15,-41.9999999978333,27.5));
#1837=CARTESIAN_POINT('',(-3.36777869765522E-15,-46.4999999957656,27.5));
#1838=CARTESIAN_POINT('Origin',(0.,-41.9999999978333,6.07794701931697E-15));
#1839=CARTESIAN_POINT('Origin',(0.,-41.9999999978333,-30.0000000041462));
#1840=CARTESIAN_POINT('',(-3.67394039789763E-15,-41.9999999978333,30.00000000372));
#1841=CARTESIAN_POINT('Origin',(0.,-41.9999999978333,6.07794701931697E-15));
#1842=CARTESIAN_POINT('Origin',(0.,-27.2499999976705,4.13711269478968E-15));
#1843=CARTESIAN_POINT('',(-3.67394039789763E-15,-12.4999999975077,30.00000000372));
#1844=CARTESIAN_POINT('',(-3.67394039789763E-15,-27.2499999976705,30.00000000372));
#1845=CARTESIAN_POINT('Origin',(0.,-12.4999999975077,2.19627837026238E-15));
#1846=CARTESIAN_POINT('Origin',(0.,-12.4999999972477,-39.0000000007998));
#1847=CARTESIAN_POINT('',(-4.77612251677262E-15,-12.4999999972477,39.0000000007997));
#1848=CARTESIAN_POINT('Origin',(0.,-12.4999999972477,2.19627837022816E-15));
#1849=CARTESIAN_POINT('Origin',(0.,-26.2499999952549,4.00553070636973E-15));
#1850=CARTESIAN_POINT('',(-4.77612251677262E-15,-39.9999999932621,39.0000000007997));
#1851=CARTESIAN_POINT('Origin',(0.,-39.9999999932621,5.8147830425113E-15));
#1852=CARTESIAN_POINT('',(-4.77612251677262E-15,-26.2499999952549,39.0000000007997));
#1853=CARTESIAN_POINT('Origin',(0.,-39.9999999932585,-40.0000000007998));
#1854=CARTESIAN_POINT('',(-4.89858719668956E-15,-39.9999999932585,40.0000000008177));
#1855=CARTESIAN_POINT('Origin',(0.,-39.9999999932585,5.81478304251083E-15));
#1856=CARTESIAN_POINT('Origin',(0.,-44.9999999932585,6.47269298302129E-15));
#1857=CARTESIAN_POINT('',(-4.89858719668956E-15,-44.9999999932585,40.0000000008177));
#1858=CARTESIAN_POINT('Origin',(0.,-50.9999999936981,-27.));
#1859=CARTESIAN_POINT('',(-3.36777869765525E-15,-50.9999999936981,27.5000000000003));
#1860=CARTESIAN_POINT('Origin',(0.,-50.9999999936981,0.));
#1861=CARTESIAN_POINT('',(-3.30654635769782E-15,-50.9999999936981,26.9999999999997));
#1862=CARTESIAN_POINT('Origin',(0.,-50.9999999936981,0.));
#1863=CARTESIAN_POINT('Origin',(0.,17.000000003151,0.));
#1864=CARTESIAN_POINT('',(-3.30654635769782E-15,85.,26.9999999999997));
#1865=CARTESIAN_POINT('',(-3.30654635769782E-15,17.000000003151,26.9999999999997));
#1866=CARTESIAN_POINT('Origin',(0.,85.,0.));
#1867=CARTESIAN_POINT('Origin',(0.,85.,-27.4999999999994));
#1868=CARTESIAN_POINT('',(-3.36777869765525E-15,85.,27.5000000000003));
#1869=CARTESIAN_POINT('Origin',(0.,85.,0.));
#1870=CARTESIAN_POINT('Origin',(0.,17.000000003151,0.));
#1871=CARTESIAN_POINT('',(-3.36777869765525E-15,17.000000003151,27.5000000000003));
#1872=CARTESIAN_POINT('Origin',(0.,80.5,8.05820495353937E-15));
#1873=CARTESIAN_POINT('',(-3.30654635769779E-15,76.0000000000001,26.9999999999995));
#1874=CARTESIAN_POINT('Origin',(0.,76.0000000000001,8.05820495353937E-15));
#1875=CARTESIAN_POINT('',(-3.30654635769779E-15,85.,26.9999999999995));
#1876=CARTESIAN_POINT('',(-3.30654635769779E-15,80.5,26.9999999999995));
#1877=CARTESIAN_POINT('Origin',(0.,85.,8.05820495353937E-15));
#1878=CARTESIAN_POINT('Origin',(0.,76.,8.88178419700125E-15));
#1879=CARTESIAN_POINT('Origin',(0.,77.0000000000001,-15.));
#1880=CARTESIAN_POINT('',(-1.83697019872103E-15,77.0000000000001,15.));
#1881=CARTESIAN_POINT('Origin',(0.,77.0000000000001,8.05820495353937E-15));
#1882=CARTESIAN_POINT('Origin',(0.,80.5,8.05820495353937E-15));
#1883=CARTESIAN_POINT('',(-1.83697019872103E-15,84.,15.));
#1884=CARTESIAN_POINT('',(-1.83697019872103E-15,80.5,15.));
#1885=CARTESIAN_POINT('Origin',(0.,84.,8.05820495353937E-15));
#1886=CARTESIAN_POINT('Origin',(0.,84.,-25.9999999999995));
#1887=CARTESIAN_POINT('',(-3.18408167778305E-15,84.,25.9999999999995));
#1888=CARTESIAN_POINT('Origin',(0.,84.,8.05820495353937E-15));
#1889=CARTESIAN_POINT('Origin',(0.,84.5,8.05820495353937E-15));
#1890=CARTESIAN_POINT('',(-3.18408167778305E-15,85.,25.9999999999995));
#1891=CARTESIAN_POINT('',(-3.18408167778305E-15,84.5,25.9999999999995));
#1892=CARTESIAN_POINT('Origin',(0.,85.,8.05820495353937E-15));
#1893=CARTESIAN_POINT('Origin',(0.,85.,-26.9999999999995));
#1894=UNCERTAINTY_MEASURE_WITH_UNIT(LENGTH_MEASURE(0.01),#1898,
'DISTANCE_ACCURACY_VALUE',
'Maximum model space distance between geometric entities at asserted c
onnectivities');
#1895=UNCERTAINTY_MEASURE_WITH_UNIT(LENGTH_MEASURE(0.01),#1898,
'DISTANCE_ACCURACY_VALUE',
'Maximum model space distance between geometric entities at asserted c
onnectivities');
#1896=(
GEOMETRIC_REPRESENTATION_CONTEXT(3)
GLOBAL_UNCERTAINTY_ASSIGNED_CONTEXT((#1894))
GLOBAL_UNIT_ASSIGNED_CONTEXT((#1898,#1900,#1901))
REPRESENTATION_CONTEXT('','3D')
);
#1897=(
GEOMETRIC_REPRESENTATION_CONTEXT(3)
GLOBAL_UNCERTAINTY_ASSIGNED_CONTEXT((#1895))
GLOBAL_UNIT_ASSIGNED_CONTEXT((#1898,#1900,#1901))
REPRESENTATION_CONTEXT('','3D')
);
#1898=(
LENGTH_UNIT()
NAMED_UNIT(*)
SI_UNIT(.MILLI.,.METRE.)
);
#1899=(
LENGTH_UNIT()
NAMED_UNIT(*)
SI_UNIT($,.METRE.)
);
#1900=(
NAMED_UNIT(*)
PLANE_ANGLE_UNIT()
SI_UNIT($,.RADIAN.)
);
#1901=(
NAMED_UNIT(*)
SI_UNIT($,.STERADIAN.)
SOLID_ANGLE_UNIT()
);
#1902=SHAPE_DEFINITION_REPRESENTATION(#1903,#1904);
#1903=PRODUCT_DEFINITION_SHAPE('',$,#1906);
#1904=SHAPE_REPRESENTATION('',(#1083),#1896);
#1905=PRODUCT_DEFINITION_CONTEXT('part definition',#1910,'design');
#1906=PRODUCT_DEFINITION('BC cryo interface','BC cryo interface v8',#1907,
#1905);
#1907=PRODUCT_DEFINITION_FORMATION('',$,#1912);
#1908=PRODUCT_RELATED_PRODUCT_CATEGORY('BC cryo interface v8',
'BC cryo interface v8',(#1912));
#1909=APPLICATION_PROTOCOL_DEFINITION('international standard',
'automotive_design',2009,#1910);
#1910=APPLICATION_CONTEXT(
'Core Data for Automotive Mechanical Design Process');
#1911=PRODUCT_CONTEXT('part definition',#1910,'mechanical');
#1912=PRODUCT('BC cryo interface','BC cryo interface v8',$,(#1911));
#1913=PRESENTATION_STYLE_ASSIGNMENT((#1915));
#1914=PRESENTATION_STYLE_ASSIGNMENT((#1916));
#1915=SURFACE_STYLE_USAGE(.BOTH.,#1917);
#1916=SURFACE_STYLE_USAGE(.BOTH.,#1918);
#1917=SURFACE_SIDE_STYLE('',(#1919));
#1918=SURFACE_SIDE_STYLE('',(#1920));
#1919=SURFACE_STYLE_FILL_AREA(#1921);
#1920=SURFACE_STYLE_FILL_AREA(#1922);
#1921=FILL_AREA_STYLE('Stainless Steel - Satin',(#1923));
#1922=FILL_AREA_STYLE('Stainless Steel - Polished',(#1924));
#1923=FILL_AREA_STYLE_COLOUR('Stainless Steel - Satin',#1925);
#1924=FILL_AREA_STYLE_COLOUR('Stainless Steel - Polished',#1926);
#1925=COLOUR_RGB('Stainless Steel - Satin',0.796078431372549,0.796078431372549,
0.796078431372549);
#1926=COLOUR_RGB('Stainless Steel - Polished',0.796078431372549,0.796078431372549,
0.796078431372549);
ENDSEC;
END-ISO-10303-21;
