ISO-10303-21;
HEADER;
/* Generated by software containing ST-Developer
 * from STEP Tools, Inc. (www.steptools.com) 
 */

FILE_DESCRIPTION(
/* description */ (''),
/* implementation_level */ '2;1');

FILE_NAME(
/* name */ 'coupling plate v1.step',
/* time_stamp */ '2024-06-14T14:31:28+02:00',
/* author */ (''),
/* organization */ (''),
/* preprocessor_version */ 'ST-DEVELOPER v20',
/* originating_system */ 'Autodesk Translation Framework v13.14.0.145',

/* authorisation */ '');

FILE_SCHEMA (('AUTOMOTIVE_DESIGN { 1 0 10303 214 3 1 1 }'));
ENDSEC;

DATA;
#10=MECHANICAL_DESIGN_GEOMETRIC_PRESENTATION_REPRESENTATION('',(#13),#553);
#11=SHAPE_REPRESENTATION_RELATIONSHIP('SRR','None',#560,#12);
#12=ADVANCED_BREP_SHAPE_REPRESENTATION('',(#14),#552);
#13=STYLED_ITEM('',(#569),#14);
#14=MANIFOLD_SOLID_BREP('Body1',#283);
#15=FACE_BOUND('',#65,.T.);
#16=FACE_BOUND('',#66,.T.);
#17=FACE_BOUND('',#67,.T.);
#18=FACE_BOUND('',#68,.T.);
#19=FACE_BOUND('',#72,.T.);
#20=FACE_BOUND('',#73,.T.);
#21=FACE_BOUND('',#74,.T.);
#22=FACE_BOUND('',#75,.T.);
#23=B_SPLINE_SURFACE_WITH_KNOTS('',3,3,((#453,#454,#455,#456),(#457,#458,
#459,#460),(#461,#462,#463,#464),(#465,#466,#467,#468),(#469,#470,#471,
#472),(#473,#474,#475,#476)),.UNSPECIFIED.,.F.,.F.,.F.,(4,1,1,4),(4,4),
(0.,0.335819409211084,0.559699015351807,0.78357862149253),(-1.38777878078145E-17,
0.25),.UNSPECIFIED.);
#24=B_SPLINE_SURFACE_WITH_KNOTS('',3,3,((#491,#492,#493,#494),(#495,#496,
#497,#498),(#499,#500,#501,#502),(#503,#504,#505,#506),(#507,#508,#509,
#510),(#511,#512,#513,#514)),.UNSPECIFIED.,.F.,.F.,.F.,(4,1,1,4),(4,4),
(-8.85538950857324E-18,0.335819409211084,0.559699015351807,0.783578621492529),
(-1.38777878078145E-17,0.25),.UNSPECIFIED.);
#25=PLANE('',#307);
#26=PLANE('',#308);
#27=PLANE('',#309);
#28=PLANE('',#310);
#29=PLANE('',#312);
#30=PLANE('',#313);
#31=PLANE('',#320);
#32=B_SPLINE_CURVE_WITH_KNOTS('',3,(#417,#418,#419,#420,#421,#422,#423,
#424,#425,#426),.UNSPECIFIED.,.F.,.F.,(4,3,3,4),(0.,0.673198425769241,1.12199737628207,
1.5707963267949),.UNSPECIFIED.);
#33=B_SPLINE_CURVE_WITH_KNOTS('',3,(#429,#430,#431,#432,#433,#434,#435,
#436,#437,#438),.UNSPECIFIED.,.F.,.F.,(4,3,3,4),(0.,0.673198425769242,1.12199737628207,
1.5707963267949),.UNSPECIFIED.);
#34=B_SPLINE_CURVE_WITH_KNOTS('',3,(#478,#479,#480,#481,#482,#483,#484,
#485,#486,#487),.UNSPECIFIED.,.F.,.F.,(4,3,3,4),(0.,0.673198425769241,1.12199737628207,
1.5707963267949),.UNSPECIFIED.);
#35=B_SPLINE_CURVE_WITH_KNOTS('',3,(#516,#517,#518,#519,#520,#521,#522,
#523,#524,#525),.UNSPECIFIED.,.F.,.F.,(4,3,3,4),(0.,0.448798950512828,0.897597901025655,
1.5707963267949),.UNSPECIFIED.);
#36=FACE_OUTER_BOUND('',#52,.T.);
#37=FACE_OUTER_BOUND('',#53,.T.);
#38=FACE_OUTER_BOUND('',#54,.T.);
#39=FACE_OUTER_BOUND('',#55,.T.);
#40=FACE_OUTER_BOUND('',#56,.T.);
#41=FACE_OUTER_BOUND('',#57,.T.);
#42=FACE_OUTER_BOUND('',#58,.T.);
#43=FACE_OUTER_BOUND('',#59,.T.);
#44=FACE_OUTER_BOUND('',#60,.T.);
#45=FACE_OUTER_BOUND('',#61,.T.);
#46=FACE_OUTER_BOUND('',#62,.T.);
#47=FACE_OUTER_BOUND('',#63,.T.);
#48=FACE_OUTER_BOUND('',#64,.T.);
#49=FACE_OUTER_BOUND('',#69,.T.);
#50=FACE_OUTER_BOUND('',#70,.T.);
#51=FACE_OUTER_BOUND('',#71,.T.);
#52=EDGE_LOOP('',(#188,#189,#190,#191));
#53=EDGE_LOOP('',(#192,#193,#194,#195));
#54=EDGE_LOOP('',(#196,#197,#198,#199));
#55=EDGE_LOOP('',(#200,#201,#202,#203));
#56=EDGE_LOOP('',(#204,#205,#206,#207));
#57=EDGE_LOOP('',(#208,#209,#210,#211));
#58=EDGE_LOOP('',(#212,#213,#214,#215,#216));
#59=EDGE_LOOP('',(#217,#218,#219,#220,#221));
#60=EDGE_LOOP('',(#222,#223,#224,#225));
#61=EDGE_LOOP('',(#226,#227,#228,#229));
#62=EDGE_LOOP('',(#230,#231,#232,#233));
#63=EDGE_LOOP('',(#234,#235,#236,#237));
#64=EDGE_LOOP('',(#238,#239));
#65=EDGE_LOOP('',(#240));
#66=EDGE_LOOP('',(#241));
#67=EDGE_LOOP('',(#242));
#68=EDGE_LOOP('',(#243));
#69=EDGE_LOOP('',(#244,#245,#246,#247,#248,#249));
#70=EDGE_LOOP('',(#250,#251,#252,#253));
#71=EDGE_LOOP('',(#254,#255));
#72=EDGE_LOOP('',(#256));
#73=EDGE_LOOP('',(#257));
#74=EDGE_LOOP('',(#258));
#75=EDGE_LOOP('',(#259));
#76=LINE('',#398,#98);
#77=LINE('',#404,#99);
#78=LINE('',#410,#100);
#79=LINE('',#415,#101);
#80=LINE('',#428,#102);
#81=LINE('',#442,#103);
#82=LINE('',#444,#104);
#83=LINE('',#446,#105);
#84=LINE('',#447,#106);
#85=LINE('',#450,#107);
#86=LINE('',#451,#108);
#87=LINE('',#452,#109);
#88=LINE('',#489,#110);
#89=LINE('',#490,#111);
#90=LINE('',#527,#112);
#91=LINE('',#528,#113);
#92=LINE('',#529,#114);
#93=LINE('',#532,#115);
#94=LINE('',#533,#116);
#95=LINE('',#535,#117);
#96=LINE('',#537,#118);
#97=LINE('',#547,#119);
#98=VECTOR('',#327,1.666);
#99=VECTOR('',#334,1.666);
#100=VECTOR('',#341,1.666);
#101=VECTOR('',#346,10.);
#102=VECTOR('',#347,10.);
#103=VECTOR('',#350,10.);
#104=VECTOR('',#351,10.);
#105=VECTOR('',#352,10.);
#106=VECTOR('',#353,10.);
#107=VECTOR('',#356,10.);
#108=VECTOR('',#357,10.);
#109=VECTOR('',#358,10.);
#110=VECTOR('',#359,10.);
#111=VECTOR('',#360,10.);
#112=VECTOR('',#361,10.);
#113=VECTOR('',#362,10.);
#114=VECTOR('',#363,10.);
#115=VECTOR('',#366,10.);
#116=VECTOR('',#367,10.);
#117=VECTOR('',#370,10.);
#118=VECTOR('',#373,10.);
#119=VECTOR('',#388,11.);
#120=CIRCLE('',#298,1.666);
#121=CIRCLE('',#299,1.666);
#122=CIRCLE('',#301,1.666);
#123=CIRCLE('',#302,1.666);
#124=CIRCLE('',#304,1.666);
#125=CIRCLE('',#305,1.666);
#126=CIRCLE('',#314,35.);
#127=CIRCLE('',#315,11.);
#128=CIRCLE('',#317,35.);
#129=CIRCLE('',#319,11.);
#130=VERTEX_POINT('',#395);
#131=VERTEX_POINT('',#397);
#132=VERTEX_POINT('',#401);
#133=VERTEX_POINT('',#403);
#134=VERTEX_POINT('',#407);
#135=VERTEX_POINT('',#409);
#136=VERTEX_POINT('',#413);
#137=VERTEX_POINT('',#414);
#138=VERTEX_POINT('',#416);
#139=VERTEX_POINT('',#427);
#140=VERTEX_POINT('',#440);
#141=VERTEX_POINT('',#441);
#142=VERTEX_POINT('',#443);
#143=VERTEX_POINT('',#445);
#144=VERTEX_POINT('',#449);
#145=VERTEX_POINT('',#477);
#146=VERTEX_POINT('',#488);
#147=VERTEX_POINT('',#515);
#148=VERTEX_POINT('',#526);
#149=VERTEX_POINT('',#531);
#150=VERTEX_POINT('',#541);
#151=VERTEX_POINT('',#546);
#152=EDGE_CURVE('',#130,#130,#120,.T.);
#153=EDGE_CURVE('',#130,#131,#76,.T.);
#154=EDGE_CURVE('',#131,#131,#121,.T.);
#155=EDGE_CURVE('',#132,#132,#122,.T.);
#156=EDGE_CURVE('',#132,#133,#77,.T.);
#157=EDGE_CURVE('',#133,#133,#123,.T.);
#158=EDGE_CURVE('',#134,#134,#124,.T.);
#159=EDGE_CURVE('',#134,#135,#78,.T.);
#160=EDGE_CURVE('',#135,#135,#125,.T.);
#161=EDGE_CURVE('',#136,#137,#79,.T.);
#162=EDGE_CURVE('',#136,#138,#32,.T.);
#163=EDGE_CURVE('',#139,#138,#80,.T.);
#164=EDGE_CURVE('',#139,#137,#33,.T.);
#165=EDGE_CURVE('',#140,#141,#81,.T.);
#166=EDGE_CURVE('',#141,#142,#82,.T.);
#167=EDGE_CURVE('',#142,#143,#83,.T.);
#168=EDGE_CURVE('',#140,#143,#84,.T.);
#169=EDGE_CURVE('',#143,#144,#85,.T.);
#170=EDGE_CURVE('',#137,#144,#86,.T.);
#171=EDGE_CURVE('',#140,#137,#87,.T.);
#172=EDGE_CURVE('',#145,#140,#34,.T.);
#173=EDGE_CURVE('',#146,#139,#88,.T.);
#174=EDGE_CURVE('',#145,#146,#89,.T.);
#175=EDGE_CURVE('',#147,#141,#35,.T.);
#176=EDGE_CURVE('',#148,#147,#90,.T.);
#177=EDGE_CURVE('',#138,#148,#91,.T.);
#178=EDGE_CURVE('',#141,#136,#92,.T.);
#179=EDGE_CURVE('',#149,#136,#93,.T.);
#180=EDGE_CURVE('',#142,#149,#94,.T.);
#181=EDGE_CURVE('',#144,#149,#95,.T.);
#182=EDGE_CURVE('',#147,#145,#96,.T.);
#183=EDGE_CURVE('',#145,#147,#126,.T.);
#184=EDGE_CURVE('',#150,#150,#127,.T.);
#185=EDGE_CURVE('',#139,#138,#128,.T.);
#186=EDGE_CURVE('',#150,#151,#97,.T.);
#187=EDGE_CURVE('',#151,#151,#129,.T.);
#188=ORIENTED_EDGE('',*,*,#152,.F.);
#189=ORIENTED_EDGE('',*,*,#153,.T.);
#190=ORIENTED_EDGE('',*,*,#154,.F.);
#191=ORIENTED_EDGE('',*,*,#153,.F.);
#192=ORIENTED_EDGE('',*,*,#155,.F.);
#193=ORIENTED_EDGE('',*,*,#156,.T.);
#194=ORIENTED_EDGE('',*,*,#157,.F.);
#195=ORIENTED_EDGE('',*,*,#156,.F.);
#196=ORIENTED_EDGE('',*,*,#158,.F.);
#197=ORIENTED_EDGE('',*,*,#159,.T.);
#198=ORIENTED_EDGE('',*,*,#160,.F.);
#199=ORIENTED_EDGE('',*,*,#159,.F.);
#200=ORIENTED_EDGE('',*,*,#161,.F.);
#201=ORIENTED_EDGE('',*,*,#162,.T.);
#202=ORIENTED_EDGE('',*,*,#163,.F.);
#203=ORIENTED_EDGE('',*,*,#164,.T.);
#204=ORIENTED_EDGE('',*,*,#165,.T.);
#205=ORIENTED_EDGE('',*,*,#166,.T.);
#206=ORIENTED_EDGE('',*,*,#167,.T.);
#207=ORIENTED_EDGE('',*,*,#168,.F.);
#208=ORIENTED_EDGE('',*,*,#168,.T.);
#209=ORIENTED_EDGE('',*,*,#169,.T.);
#210=ORIENTED_EDGE('',*,*,#170,.F.);
#211=ORIENTED_EDGE('',*,*,#171,.F.);
#212=ORIENTED_EDGE('',*,*,#172,.T.);
#213=ORIENTED_EDGE('',*,*,#171,.T.);
#214=ORIENTED_EDGE('',*,*,#164,.F.);
#215=ORIENTED_EDGE('',*,*,#173,.F.);
#216=ORIENTED_EDGE('',*,*,#174,.F.);
#217=ORIENTED_EDGE('',*,*,#175,.F.);
#218=ORIENTED_EDGE('',*,*,#176,.F.);
#219=ORIENTED_EDGE('',*,*,#177,.F.);
#220=ORIENTED_EDGE('',*,*,#162,.F.);
#221=ORIENTED_EDGE('',*,*,#178,.F.);
#222=ORIENTED_EDGE('',*,*,#166,.F.);
#223=ORIENTED_EDGE('',*,*,#178,.T.);
#224=ORIENTED_EDGE('',*,*,#179,.F.);
#225=ORIENTED_EDGE('',*,*,#180,.F.);
#226=ORIENTED_EDGE('',*,*,#167,.F.);
#227=ORIENTED_EDGE('',*,*,#180,.T.);
#228=ORIENTED_EDGE('',*,*,#181,.F.);
#229=ORIENTED_EDGE('',*,*,#169,.F.);
#230=ORIENTED_EDGE('',*,*,#165,.F.);
#231=ORIENTED_EDGE('',*,*,#172,.F.);
#232=ORIENTED_EDGE('',*,*,#182,.F.);
#233=ORIENTED_EDGE('',*,*,#175,.T.);
#234=ORIENTED_EDGE('',*,*,#161,.T.);
#235=ORIENTED_EDGE('',*,*,#170,.T.);
#236=ORIENTED_EDGE('',*,*,#181,.T.);
#237=ORIENTED_EDGE('',*,*,#179,.T.);
#238=ORIENTED_EDGE('',*,*,#182,.T.);
#239=ORIENTED_EDGE('',*,*,#183,.T.);
#240=ORIENTED_EDGE('',*,*,#154,.T.);
#241=ORIENTED_EDGE('',*,*,#157,.T.);
#242=ORIENTED_EDGE('',*,*,#160,.T.);
#243=ORIENTED_EDGE('',*,*,#184,.T.);
#244=ORIENTED_EDGE('',*,*,#177,.T.);
#245=ORIENTED_EDGE('',*,*,#176,.T.);
#246=ORIENTED_EDGE('',*,*,#183,.F.);
#247=ORIENTED_EDGE('',*,*,#174,.T.);
#248=ORIENTED_EDGE('',*,*,#173,.T.);
#249=ORIENTED_EDGE('',*,*,#185,.T.);
#250=ORIENTED_EDGE('',*,*,#184,.F.);
#251=ORIENTED_EDGE('',*,*,#186,.T.);
#252=ORIENTED_EDGE('',*,*,#187,.T.);
#253=ORIENTED_EDGE('',*,*,#186,.F.);
#254=ORIENTED_EDGE('',*,*,#163,.T.);
#255=ORIENTED_EDGE('',*,*,#185,.F.);
#256=ORIENTED_EDGE('',*,*,#152,.T.);
#257=ORIENTED_EDGE('',*,*,#155,.T.);
#258=ORIENTED_EDGE('',*,*,#158,.T.);
#259=ORIENTED_EDGE('',*,*,#187,.F.);
#260=CYLINDRICAL_SURFACE('',#297,1.666);
#261=CYLINDRICAL_SURFACE('',#300,1.666);
#262=CYLINDRICAL_SURFACE('',#303,1.666);
#263=CYLINDRICAL_SURFACE('',#306,2.5);
#264=CYLINDRICAL_SURFACE('',#311,5.);
#265=CYLINDRICAL_SURFACE('',#316,35.);
#266=CYLINDRICAL_SURFACE('',#318,11.);
#267=ADVANCED_FACE('',(#36),#260,.F.);
#268=ADVANCED_FACE('',(#37),#261,.F.);
#269=ADVANCED_FACE('',(#38),#262,.F.);
#270=ADVANCED_FACE('',(#39),#263,.F.);
#271=ADVANCED_FACE('',(#40),#25,.T.);
#272=ADVANCED_FACE('',(#41),#26,.T.);
#273=ADVANCED_FACE('',(#42),#23,.T.);
#274=ADVANCED_FACE('',(#43),#24,.T.);
#275=ADVANCED_FACE('',(#44),#27,.T.);
#276=ADVANCED_FACE('',(#45),#28,.T.);
#277=ADVANCED_FACE('',(#46),#264,.T.);
#278=ADVANCED_FACE('',(#47),#29,.T.);
#279=ADVANCED_FACE('',(#48,#15,#16,#17,#18),#30,.T.);
#280=ADVANCED_FACE('',(#49),#265,.T.);
#281=ADVANCED_FACE('',(#50),#266,.F.);
#282=ADVANCED_FACE('',(#51,#19,#20,#21,#22),#31,.F.);
#283=CLOSED_SHELL('',(#267,#268,#269,#270,#271,#272,#273,#274,#275,#276,
#277,#278,#279,#280,#281,#282));
#284=DERIVED_UNIT_ELEMENT(#286,1.);
#285=DERIVED_UNIT_ELEMENT(#555,-3.);
#286=(
MASS_UNIT()
NAMED_UNIT(*)
SI_UNIT(.KILO.,.GRAM.)
);
#287=DERIVED_UNIT((#284,#285));
#288=MEASURE_REPRESENTATION_ITEM('density measure',
POSITIVE_RATIO_MEASURE(8940.),#287);
#289=PROPERTY_DEFINITION_REPRESENTATION(#294,#291);
#290=PROPERTY_DEFINITION_REPRESENTATION(#295,#292);
#291=REPRESENTATION('material name',(#293),#552);
#292=REPRESENTATION('density',(#288),#552);
#293=DESCRIPTIVE_REPRESENTATION_ITEM('Copper','Copper');
#294=PROPERTY_DEFINITION('material property','material name',#562);
#295=PROPERTY_DEFINITION('material property','density of part',#562);
#296=AXIS2_PLACEMENT_3D('',#393,#321,#322);
#297=AXIS2_PLACEMENT_3D('',#394,#323,#324);
#298=AXIS2_PLACEMENT_3D('',#396,#325,#326);
#299=AXIS2_PLACEMENT_3D('',#399,#328,#329);
#300=AXIS2_PLACEMENT_3D('',#400,#330,#331);
#301=AXIS2_PLACEMENT_3D('',#402,#332,#333);
#302=AXIS2_PLACEMENT_3D('',#405,#335,#336);
#303=AXIS2_PLACEMENT_3D('',#406,#337,#338);
#304=AXIS2_PLACEMENT_3D('',#408,#339,#340);
#305=AXIS2_PLACEMENT_3D('',#411,#342,#343);
#306=AXIS2_PLACEMENT_3D('',#412,#344,#345);
#307=AXIS2_PLACEMENT_3D('',#439,#348,#349);
#308=AXIS2_PLACEMENT_3D('',#448,#354,#355);
#309=AXIS2_PLACEMENT_3D('',#530,#364,#365);
#310=AXIS2_PLACEMENT_3D('',#534,#368,#369);
#311=AXIS2_PLACEMENT_3D('',#536,#371,#372);
#312=AXIS2_PLACEMENT_3D('',#538,#374,#375);
#313=AXIS2_PLACEMENT_3D('',#539,#376,#377);
#314=AXIS2_PLACEMENT_3D('',#540,#378,#379);
#315=AXIS2_PLACEMENT_3D('',#542,#380,#381);
#316=AXIS2_PLACEMENT_3D('',#543,#382,#383);
#317=AXIS2_PLACEMENT_3D('',#544,#384,#385);
#318=AXIS2_PLACEMENT_3D('',#545,#386,#387);
#319=AXIS2_PLACEMENT_3D('',#548,#389,#390);
#320=AXIS2_PLACEMENT_3D('',#549,#391,#392);
#321=DIRECTION('axis',(0.,0.,1.));
#322=DIRECTION('refdir',(1.,0.,0.));
#323=DIRECTION('center_axis',(0.,1.,0.));
#324=DIRECTION('ref_axis',(0.,0.,-1.));
#325=DIRECTION('center_axis',(0.,1.,0.));
#326=DIRECTION('ref_axis',(0.,0.,-1.));
#327=DIRECTION('',(0.,1.,0.));
#328=DIRECTION('center_axis',(0.,-1.,0.));
#329=DIRECTION('ref_axis',(0.,0.,-1.));
#330=DIRECTION('center_axis',(0.,1.,0.));
#331=DIRECTION('ref_axis',(0.,0.,-1.));
#332=DIRECTION('center_axis',(0.,1.,0.));
#333=DIRECTION('ref_axis',(0.,0.,-1.));
#334=DIRECTION('',(0.,1.,0.));
#335=DIRECTION('center_axis',(0.,-1.,0.));
#336=DIRECTION('ref_axis',(0.,0.,-1.));
#337=DIRECTION('center_axis',(0.,1.,0.));
#338=DIRECTION('ref_axis',(0.,0.,-1.));
#339=DIRECTION('center_axis',(0.,1.,0.));
#340=DIRECTION('ref_axis',(0.,0.,-1.));
#341=DIRECTION('',(0.,1.,0.));
#342=DIRECTION('center_axis',(0.,-1.,0.));
#343=DIRECTION('ref_axis',(0.,0.,-1.));
#344=DIRECTION('center_axis',(0.,0.,-1.));
#345=DIRECTION('ref_axis',(0.,1.,0.));
#346=DIRECTION('',(0.,0.,-1.));
#347=DIRECTION('',(0.,0.,1.));
#348=DIRECTION('center_axis',(1.,6.12323399573677E-17,0.));
#349=DIRECTION('ref_axis',(0.,0.,1.));
#350=DIRECTION('',(0.,0.,1.));
#351=DIRECTION('',(6.12323399573677E-17,-1.,0.));
#352=DIRECTION('',(0.,0.,-1.));
#353=DIRECTION('',(6.12323399573677E-17,-1.,0.));
#354=DIRECTION('center_axis',(0.,0.,-1.));
#355=DIRECTION('ref_axis',(6.12323399573677E-17,-1.,0.));
#356=DIRECTION('',(-1.,-6.12323399573677E-17,0.));
#357=DIRECTION('',(6.12323399573677E-17,-1.,0.));
#358=DIRECTION('',(-1.,-6.12323399573677E-17,0.));
#359=DIRECTION('',(0.,-1.,0.));
#360=DIRECTION('',(0.,-1.,0.));
#361=DIRECTION('',(0.,1.,0.));
#362=DIRECTION('',(0.,1.,0.));
#363=DIRECTION('',(-1.,-6.12323399573677E-17,0.));
#364=DIRECTION('center_axis',(0.,0.,1.));
#365=DIRECTION('ref_axis',(-6.12323399573677E-17,1.,0.));
#366=DIRECTION('',(-6.12323399573677E-17,1.,0.));
#367=DIRECTION('',(-1.,-6.12323399573677E-17,0.));
#368=DIRECTION('center_axis',(6.12323399573677E-17,-1.,0.));
#369=DIRECTION('ref_axis',(0.,0.,1.));
#370=DIRECTION('',(0.,0.,1.));
#371=DIRECTION('center_axis',(0.,0.,-1.));
#372=DIRECTION('ref_axis',(0.,1.,0.));
#373=DIRECTION('',(0.,0.,-1.));
#374=DIRECTION('center_axis',(-1.,-6.12323399573677E-17,0.));
#375=DIRECTION('ref_axis',(0.,0.,-1.));
#376=DIRECTION('center_axis',(0.,1.,0.));
#377=DIRECTION('ref_axis',(1.,0.,0.));
#378=DIRECTION('center_axis',(0.,1.,0.));
#379=DIRECTION('ref_axis',(1.,0.,0.));
#380=DIRECTION('center_axis',(0.,-1.,0.));
#381=DIRECTION('ref_axis',(1.,0.,0.));
#382=DIRECTION('center_axis',(0.,1.,0.));
#383=DIRECTION('ref_axis',(-1.,0.,1.22464679914735E-16));
#384=DIRECTION('center_axis',(0.,1.,0.));
#385=DIRECTION('ref_axis',(1.,0.,0.));
#386=DIRECTION('center_axis',(0.,1.,0.));
#387=DIRECTION('ref_axis',(1.,0.,0.));
#388=DIRECTION('',(0.,-1.,0.));
#389=DIRECTION('center_axis',(0.,-1.,0.));
#390=DIRECTION('ref_axis',(1.,0.,0.));
#391=DIRECTION('center_axis',(0.,1.,0.));
#392=DIRECTION('ref_axis',(1.,0.,0.));
#393=CARTESIAN_POINT('',(0.,0.,0.));
#394=CARTESIAN_POINT('Origin',(15.,12.5,25.9807621135332));
#395=CARTESIAN_POINT('',(15.,0.,27.6467621135332));
#396=CARTESIAN_POINT('Origin',(15.,0.,25.9807621135332));
#397=CARTESIAN_POINT('',(15.,2.5,27.6467621135332));
#398=CARTESIAN_POINT('',(15.,12.5,27.6467621135332));
#399=CARTESIAN_POINT('Origin',(15.,2.5,25.9807621135332));
#400=CARTESIAN_POINT('Origin',(-30.,12.5,0.));
#401=CARTESIAN_POINT('',(-30.,0.,1.666));
#402=CARTESIAN_POINT('Origin',(-30.,0.,0.));
#403=CARTESIAN_POINT('',(-30.,2.5,1.666));
#404=CARTESIAN_POINT('',(-30.,12.5,1.666));
#405=CARTESIAN_POINT('Origin',(-30.,2.5,0.));
#406=CARTESIAN_POINT('Origin',(15.,12.5,-25.9807621135332));
#407=CARTESIAN_POINT('',(15.,0.,-24.3147621135332));
#408=CARTESIAN_POINT('Origin',(15.,0.,-25.9807621135332));
#409=CARTESIAN_POINT('',(15.,2.5,-24.3147621135332));
#410=CARTESIAN_POINT('',(15.,12.5,-24.3147621135332));
#411=CARTESIAN_POINT('Origin',(15.,2.5,-25.9807621135332));
#412=CARTESIAN_POINT('Origin',(23.7228132326902,-2.5,0.));
#413=CARTESIAN_POINT('',(26.2228132326902,-2.5,20.));
#414=CARTESIAN_POINT('',(26.2228132326902,-2.5,-20.));
#415=CARTESIAN_POINT('',(26.2228132326902,-2.5,1.11022302462516E-15));
#416=CARTESIAN_POINT('',(23.7228132326902,0.,25.7337935860009));
#417=CARTESIAN_POINT('Ctrl Pts',(26.2228132326902,-2.5,20.));
#418=CARTESIAN_POINT('Ctrl Pts',(26.2228132326902,-1.93900131185897,20.8191133694287));
#419=CARTESIAN_POINT('Ctrl Pts',(26.0260755531286,-1.38005764335508,21.6382267388574));
#420=CARTESIAN_POINT('Ctrl Pts',(25.676968013747,-0.941429108473289,22.4573401082861));
#421=CARTESIAN_POINT('Ctrl Pts',(25.4442296541593,-0.64901008521876,23.0034156879052));
#422=CARTESIAN_POINT('Ctrl Pts',(25.1437713568737,-0.410064454685161,23.5494912675244));
#423=CARTESIAN_POINT('Ctrl Pts',(24.8069170328632,-0.247811933380472,24.0955668471435));
#424=CARTESIAN_POINT('Ctrl Pts',(24.4700627088528,-0.085559412075782,24.6416424267626));
#425=CARTESIAN_POINT('Ctrl Pts',(24.0968123581175,-1.04083408558608E-15,
25.1877180063818));
#426=CARTESIAN_POINT('Ctrl Pts',(23.7228132326902,-1.00613961606655E-15,
25.7337935860009));
#427=CARTESIAN_POINT('',(23.7228132326902,0.,-25.7337935860009));
#428=CARTESIAN_POINT('',(23.7228132326902,0.,12.8668967930004));
#429=CARTESIAN_POINT('Ctrl Pts',(23.7228132326902,-1.11022302462516E-15,
-25.7337935860009));
#430=CARTESIAN_POINT('Ctrl Pts',(24.2838119208312,-1.18890512514268E-15,
-24.9146802165722));
#431=CARTESIAN_POINT('Ctrl Pts',(24.8427555893351,-0.196737679561516,-24.0955668471435));
#432=CARTESIAN_POINT('Ctrl Pts',(25.2813841242169,-0.545845218943145,-23.2764534777148));
#433=CARTESIAN_POINT('Ctrl Pts',(25.5738031474714,-0.778583578530898,-22.7303778980957));
#434=CARTESIAN_POINT('Ctrl Pts',(25.812748778005,-1.07904187581648,-22.1843023184765));
#435=CARTESIAN_POINT('Ctrl Pts',(25.9750012993097,-1.41589619982692,-21.6382267388574));
#436=CARTESIAN_POINT('Ctrl Pts',(26.1372538206144,-1.75275052383735,-21.0921511592383));
#437=CARTESIAN_POINT('Ctrl Pts',(26.2228132326902,-2.12600087457264,-20.5460755796191));
#438=CARTESIAN_POINT('Ctrl Pts',(26.2228132326902,-2.5,-20.));
#439=CARTESIAN_POINT('Origin',(28.7228132326902,-15.5308737690013,1.50420452772235E-15));
#440=CARTESIAN_POINT('',(28.7228132326902,-2.5,-20.));
#441=CARTESIAN_POINT('',(28.7228132326902,-2.5,20.));
#442=CARTESIAN_POINT('',(28.7228132326902,-2.5,7.52102263861173E-16));
#443=CARTESIAN_POINT('',(28.7228132326902,-37.5,20.));
#444=CARTESIAN_POINT('',(28.7228132326902,-2.5,20.));
#445=CARTESIAN_POINT('',(28.7228132326902,-37.5,-20.));
#446=CARTESIAN_POINT('',(28.7228132326902,-37.5,20.));
#447=CARTESIAN_POINT('',(28.7228132326902,-2.5,-20.));
#448=CARTESIAN_POINT('Origin',(28.7228132326902,-2.5,-20.));
#449=CARTESIAN_POINT('',(26.2228132326902,-37.5,-20.));
#450=CARTESIAN_POINT('',(28.7228132326902,-37.5,-20.));
#451=CARTESIAN_POINT('',(26.2228132326902,-2.5,-20.));
#452=CARTESIAN_POINT('',(28.7228132326902,-2.5,-20.));
#453=CARTESIAN_POINT('Ctrl Pts',(23.7228132326902,2.5,-25.7337935860009));
#454=CARTESIAN_POINT('Ctrl Pts',(23.7228132326902,1.66666666666667,-25.7337935860009));
#455=CARTESIAN_POINT('Ctrl Pts',(23.7228132326902,0.833333333333332,-25.7337935860009));
#456=CARTESIAN_POINT('Ctrl Pts',(23.7228132326902,-1.11022302462516E-15,
-25.7337935860009));
#457=CARTESIAN_POINT('Ctrl Pts',(24.8448106089722,2.5,-24.9146802165722));
#458=CARTESIAN_POINT('Ctrl Pts',(24.6575499890731,1.66568224770001,-24.9146802165722));
#459=CARTESIAN_POINT('Ctrl Pts',(24.4710725407304,0.83431775229999,-24.9146802165722));
#460=CARTESIAN_POINT('Ctrl Pts',(24.2838119208312,-1.1498738469332E-15,
-24.9146802165722));
#461=CARTESIAN_POINT('Ctrl Pts',(26.7079561706519,1.84420773479495,-23.5494912675244));
#462=CARTESIAN_POINT('Ctrl Pts',(26.2103982865863,1.12019728267443,-23.5494912675244));
#463=CARTESIAN_POINT('Ctrl Pts',(25.7129425857365,0.39611431951799,-23.5494912675244));
#464=CARTESIAN_POINT('Ctrl Pts',(25.215384701671,-0.327896132602526,-23.5494912675244));
#465=CARTESIAN_POINT('Ctrl Pts',(28.380575584387,-0.259000346204121,-21.6382267388574));
#466=CARTESIAN_POINT('Ctrl Pts',(27.6041595620051,-0.632798816285671,-21.6382267388574));
#467=CARTESIAN_POINT('Ctrl Pts',(26.8281104309205,-1.00570170302051,-21.6382267388574));
#468=CARTESIAN_POINT('Ctrl Pts',(26.0516944085386,-1.37950017310206,-21.6382267388574));
#469=CARTESIAN_POINT('Ctrl Pts',(28.7228132326902,-1.75200174914529,-20.5460755796191));
#470=CARTESIAN_POINT('Ctrl Pts',(27.8893450918533,-1.8767317477336,-20.5460755796191));
#471=CARTESIAN_POINT('Ctrl Pts',(27.056281373527,-2.00127087598433,-20.5460755796191));
#472=CARTESIAN_POINT('Ctrl Pts',(26.2228132326902,-2.12600087457264,-20.5460755796191));
#473=CARTESIAN_POINT('Ctrl Pts',(28.7228132326902,-2.5,-20.));
#474=CARTESIAN_POINT('Ctrl Pts',(27.8894798993568,-2.5,-20.));
#475=CARTESIAN_POINT('Ctrl Pts',(27.0561465660235,-2.5,-20.));
#476=CARTESIAN_POINT('Ctrl Pts',(26.2228132326902,-2.5,-20.));
#477=CARTESIAN_POINT('',(23.7228132326902,2.5,-25.7337935860009));
#478=CARTESIAN_POINT('Ctrl Pts',(23.7228132326902,2.5,-25.7337935860009));
#479=CARTESIAN_POINT('Ctrl Pts',(24.8448106089722,2.5,-24.9146802165722));
#480=CARTESIAN_POINT('Ctrl Pts',(25.96269794598,2.10652464087697,-24.0955668471435));
#481=CARTESIAN_POINT('Ctrl Pts',(26.8399550157436,1.40830956211371,-23.2764534777148));
#482=CARTESIAN_POINT('Ctrl Pts',(27.4247930622527,0.942832842938206,-22.7303778980957));
#483=CARTESIAN_POINT('Ctrl Pts',(27.9026843233198,0.341916248367042,-22.1843023184765));
#484=CARTESIAN_POINT('Ctrl Pts',(28.2271893659292,-0.331792399653831,-21.6382267388574));
#485=CARTESIAN_POINT('Ctrl Pts',(28.5516944085386,-1.0055010476747,-21.0921511592383));
#486=CARTESIAN_POINT('Ctrl Pts',(28.7228132326902,-1.75200174914529,-20.5460755796191));
#487=CARTESIAN_POINT('Ctrl Pts',(28.7228132326902,-2.5,-20.));
#488=CARTESIAN_POINT('',(23.7228132326902,1.45967736366247,-25.7337935860009));
#489=CARTESIAN_POINT('',(23.7228132326902,0.,-25.7337935860009));
#490=CARTESIAN_POINT('',(23.7228132326902,0.,-25.7337935860009));
#491=CARTESIAN_POINT('Ctrl Pts',(28.7228132326902,-2.5,20.));
#492=CARTESIAN_POINT('Ctrl Pts',(27.8894798993568,-2.5,20.));
#493=CARTESIAN_POINT('Ctrl Pts',(27.0561465660235,-2.5,20.));
#494=CARTESIAN_POINT('Ctrl Pts',(26.2228132326902,-2.5,20.));
#495=CARTESIAN_POINT('Ctrl Pts',(28.7228132326902,-1.37800262371793,20.8191133694287));
#496=CARTESIAN_POINT('Ctrl Pts',(27.8884954803902,-1.56526324361709,20.8191133694287));
#497=CARTESIAN_POINT('Ctrl Pts',(27.0571309849901,-1.75174069195981,20.8191133694287));
#498=CARTESIAN_POINT('Ctrl Pts',(26.2228132326902,-1.93900131185897,20.8191133694287));
#499=CARTESIAN_POINT('Ctrl Pts',(28.0670209674851,0.485142937961687,22.1843023184765));
#500=CARTESIAN_POINT('Ctrl Pts',(27.3430105153646,-0.0124149461038494,22.1843023184765));
#501=CARTESIAN_POINT('Ctrl Pts',(26.6189275522082,-0.509870646953622,22.1843023184765));
#502=CARTESIAN_POINT('Ctrl Pts',(25.8949171000876,-1.00742853101916,22.1843023184765));
#503=CARTESIAN_POINT('Ctrl Pts',(25.963812886486,2.15776235169688,24.0955668471435));
#504=CARTESIAN_POINT('Ctrl Pts',(25.5900144164045,1.38134632931497,24.0955668471435));
#505=CARTESIAN_POINT('Ctrl Pts',(25.2171115296697,0.605297198230338,24.0955668471435));
#506=CARTESIAN_POINT('Ctrl Pts',(24.8433130595881,-0.171118824151563,24.0955668471435));
#507=CARTESIAN_POINT('Ctrl Pts',(24.4708114835449,2.5,25.1877180063818));
#508=CARTESIAN_POINT('Ctrl Pts',(24.3460814849566,1.66653185916312,25.1877180063818));
#509=CARTESIAN_POINT('Ctrl Pts',(24.2215423567058,0.833468140836875,25.1877180063818));
#510=CARTESIAN_POINT('Ctrl Pts',(24.0968123581175,-1.13665690616385E-15,
25.1877180063818));
#511=CARTESIAN_POINT('Ctrl Pts',(23.7228132326902,2.5,25.7337935860009));
#512=CARTESIAN_POINT('Ctrl Pts',(23.7228132326902,1.66666666666667,25.7337935860009));
#513=CARTESIAN_POINT('Ctrl Pts',(23.7228132326902,0.833333333333332,25.7337935860009));
#514=CARTESIAN_POINT('Ctrl Pts',(23.7228132326902,-1.11022302462516E-15,
25.7337935860009));
#515=CARTESIAN_POINT('',(23.7228132326902,2.5,25.7337935860009));
#516=CARTESIAN_POINT('Ctrl Pts',(23.7228132326902,2.5,25.7337935860009));
#517=CARTESIAN_POINT('Ctrl Pts',(24.4708114835449,2.5,25.1877180063818));
#518=CARTESIAN_POINT('Ctrl Pts',(25.2173121850155,2.32888117584844,24.6416424267626));
#519=CARTESIAN_POINT('Ctrl Pts',(25.8910208330363,2.00437613323906,24.0955668471435));
#520=CARTESIAN_POINT('Ctrl Pts',(26.5647294810572,1.67987109062968,23.5494912675244));
#521=CARTESIAN_POINT('Ctrl Pts',(27.1656460756284,1.20197982956248,23.0034156879052));
#522=CARTESIAN_POINT('Ctrl Pts',(27.6311227948039,0.617141783053424,22.4573401082861));
#523=CARTESIAN_POINT('Ctrl Pts',(28.3293378735671,-0.260115286710161,21.6382267388574));
#524=CARTESIAN_POINT('Ctrl Pts',(28.7228132326902,-1.37800262371793,20.8191133694287));
#525=CARTESIAN_POINT('Ctrl Pts',(28.7228132326902,-2.5,20.));
#526=CARTESIAN_POINT('',(23.7228132326902,1.45967736366247,25.7337935860009));
#527=CARTESIAN_POINT('',(23.7228132326902,0.,25.7337935860009));
#528=CARTESIAN_POINT('',(23.7228132326902,0.,25.7337935860009));
#529=CARTESIAN_POINT('',(28.7228132326902,-2.5,20.));
#530=CARTESIAN_POINT('Origin',(28.7228132326902,-37.5,20.));
#531=CARTESIAN_POINT('',(26.2228132326902,-37.5,20.));
#532=CARTESIAN_POINT('',(26.2228132326902,-2.5,20.));
#533=CARTESIAN_POINT('',(28.7228132326902,-37.5,20.));
#534=CARTESIAN_POINT('Origin',(28.7228132326902,-37.5,-20.));
#535=CARTESIAN_POINT('',(26.2228132326902,-37.5,20.));
#536=CARTESIAN_POINT('Origin',(23.7228132326902,-2.5,0.));
#537=CARTESIAN_POINT('',(23.7228132326902,2.5,12.8668967930004));
#538=CARTESIAN_POINT('Origin',(26.2228132326902,-15.5308737690013,2.22044604925031E-15));
#539=CARTESIAN_POINT('Origin',(-3.13859338365492,2.5,0.));
#540=CARTESIAN_POINT('Origin',(0.,2.5,0.));
#541=CARTESIAN_POINT('',(-11.,2.5,1.34711147906209E-15));
#542=CARTESIAN_POINT('Origin',(0.,2.5,0.));
#543=CARTESIAN_POINT('Origin',(0.,0.,0.));
#544=CARTESIAN_POINT('Origin',(0.,0.,0.));
#545=CARTESIAN_POINT('Origin',(0.,0.,0.));
#546=CARTESIAN_POINT('',(-11.,0.,1.34711147906209E-15));
#547=CARTESIAN_POINT('',(-11.,0.,1.34711147906209E-15));
#548=CARTESIAN_POINT('Origin',(0.,0.,0.));
#549=CARTESIAN_POINT('Origin',(-3.13859338365492,0.,0.));
#550=UNCERTAINTY_MEASURE_WITH_UNIT(LENGTH_MEASURE(0.01),#554,
'DISTANCE_ACCURACY_VALUE',
'Maximum model space distance between geometric entities at asserted c
onnectivities');
#551=UNCERTAINTY_MEASURE_WITH_UNIT(LENGTH_MEASURE(0.01),#554,
'DISTANCE_ACCURACY_VALUE',
'Maximum model space distance between geometric entities at asserted c
onnectivities');
#552=(
GEOMETRIC_REPRESENTATION_CONTEXT(3)
GLOBAL_UNCERTAINTY_ASSIGNED_CONTEXT((#550))
GLOBAL_UNIT_ASSIGNED_CONTEXT((#554,#556,#557))
REPRESENTATION_CONTEXT('','3D')
);
#553=(
GEOMETRIC_REPRESENTATION_CONTEXT(3)
GLOBAL_UNCERTAINTY_ASSIGNED_CONTEXT((#551))
GLOBAL_UNIT_ASSIGNED_CONTEXT((#554,#556,#557))
REPRESENTATION_CONTEXT('','3D')
);
#554=(
LENGTH_UNIT()
NAMED_UNIT(*)
SI_UNIT(.MILLI.,.METRE.)
);
#555=(
LENGTH_UNIT()
NAMED_UNIT(*)
SI_UNIT($,.METRE.)
);
#556=(
NAMED_UNIT(*)
PLANE_ANGLE_UNIT()
SI_UNIT($,.RADIAN.)
);
#557=(
NAMED_UNIT(*)
SI_UNIT($,.STERADIAN.)
SOLID_ANGLE_UNIT()
);
#558=SHAPE_DEFINITION_REPRESENTATION(#559,#560);
#559=PRODUCT_DEFINITION_SHAPE('',$,#562);
#560=SHAPE_REPRESENTATION('',(#296),#552);
#561=PRODUCT_DEFINITION_CONTEXT('part definition',#566,'design');
#562=PRODUCT_DEFINITION('coupling plate','coupling plate v1',#563,#561);
#563=PRODUCT_DEFINITION_FORMATION('',$,#568);
#564=PRODUCT_RELATED_PRODUCT_CATEGORY('coupling plate v1',
'coupling plate v1',(#568));
#565=APPLICATION_PROTOCOL_DEFINITION('international standard',
'automotive_design',2009,#566);
#566=APPLICATION_CONTEXT(
'Core Data for Automotive Mechanical Design Process');
#567=PRODUCT_CONTEXT('part definition',#566,'mechanical');
#568=PRODUCT('coupling plate','coupling plate v1',$,(#567));
#569=PRESENTATION_STYLE_ASSIGNMENT((#570));
#570=SURFACE_STYLE_USAGE(.BOTH.,#571);
#571=SURFACE_SIDE_STYLE('',(#572));
#572=SURFACE_STYLE_FILL_AREA(#573);
#573=FILL_AREA_STYLE('Copper - Polished',(#574));
#574=FILL_AREA_STYLE_COLOUR('Copper - Polished',#575);
#575=COLOUR_RGB('Copper - Polished',0.929411764705882,0.807843137254902,
0.764705882352941);
ENDSEC;
END-ISO-10303-21;
