ISO-10303-21;
HEADER;
/* Generated by software containing ST-Developer
 * from STEP Tools, Inc. (www.steptools.com) 
 */

FILE_DESCRIPTION(
/* description */ (''),
/* implementation_level */ '2;1');

FILE_NAME(
/* name */ 'coupling bottom plate v3.step',
/* time_stamp */ '2024-06-14T14:31:03+02:00',
/* author */ (''),
/* organization */ (''),
/* preprocessor_version */ 'ST-DEVELOPER v20',
/* originating_system */ 'Autodesk Translation Framework v13.14.0.145',

/* authorisation */ '');

FILE_SCHEMA (('AUTOMOTIVE_DESIGN { 1 0 10303 214 3 1 1 }'));
ENDSEC;

DATA;
#10=MECHANICAL_DESIGN_GEOMETRIC_PRESENTATION_REPRESENTATION('',(#13),#392);
#11=SHAPE_REPRESENTATION_RELATIONSHIP('SRR','None',#399,#12);
#12=ADVANCED_BREP_SHAPE_REPRESENTATION('',(#14),#391);
#13=STYLED_ITEM('',(#408),#14);
#14=MANIFOLD_SOLID_BREP('Body1',#224);
#15=FACE_BOUND('',#53,.T.);
#16=FACE_BOUND('',#54,.T.);
#17=FACE_BOUND('',#55,.T.);
#18=FACE_BOUND('',#56,.T.);
#19=FACE_BOUND('',#57,.T.);
#20=FACE_BOUND('',#58,.T.);
#21=FACE_BOUND('',#59,.T.);
#22=FACE_BOUND('',#61,.T.);
#23=FACE_BOUND('',#62,.T.);
#24=FACE_BOUND('',#63,.T.);
#25=FACE_BOUND('',#64,.T.);
#26=FACE_BOUND('',#65,.T.);
#27=FACE_BOUND('',#66,.T.);
#28=FACE_BOUND('',#67,.T.);
#29=PLANE('',#262);
#30=PLANE('',#263);
#31=PLANE('',#264);
#32=FACE_OUTER_BOUND('',#43,.T.);
#33=FACE_OUTER_BOUND('',#44,.T.);
#34=FACE_OUTER_BOUND('',#45,.T.);
#35=FACE_OUTER_BOUND('',#46,.T.);
#36=FACE_OUTER_BOUND('',#47,.T.);
#37=FACE_OUTER_BOUND('',#48,.T.);
#38=FACE_OUTER_BOUND('',#49,.T.);
#39=FACE_OUTER_BOUND('',#50,.T.);
#40=FACE_OUTER_BOUND('',#51,.T.);
#41=FACE_OUTER_BOUND('',#52,.T.);
#42=FACE_OUTER_BOUND('',#60,.T.);
#43=EDGE_LOOP('',(#151,#152,#153,#154));
#44=EDGE_LOOP('',(#155,#156,#157,#158));
#45=EDGE_LOOP('',(#159,#160,#161,#162));
#46=EDGE_LOOP('',(#163,#164,#165,#166));
#47=EDGE_LOOP('',(#167,#168,#169,#170));
#48=EDGE_LOOP('',(#171,#172,#173,#174));
#49=EDGE_LOOP('',(#175,#176,#177,#178));
#50=EDGE_LOOP('',(#179,#180,#181,#182));
#51=EDGE_LOOP('',(#183,#184,#185,#186));
#52=EDGE_LOOP('',(#187,#188));
#53=EDGE_LOOP('',(#189));
#54=EDGE_LOOP('',(#190));
#55=EDGE_LOOP('',(#191));
#56=EDGE_LOOP('',(#192));
#57=EDGE_LOOP('',(#193));
#58=EDGE_LOOP('',(#194));
#59=EDGE_LOOP('',(#195));
#60=EDGE_LOOP('',(#196,#197));
#61=EDGE_LOOP('',(#198));
#62=EDGE_LOOP('',(#199));
#63=EDGE_LOOP('',(#200));
#64=EDGE_LOOP('',(#201));
#65=EDGE_LOOP('',(#202));
#66=EDGE_LOOP('',(#203));
#67=EDGE_LOOP('',(#204));
#68=LINE('',#337,#79);
#69=LINE('',#343,#80);
#70=LINE('',#349,#81);
#71=LINE('',#355,#82);
#72=LINE('',#361,#83);
#73=LINE('',#367,#84);
#74=LINE('',#373,#85);
#75=LINE('',#380,#86);
#76=LINE('',#383,#87);
#77=LINE('',#385,#88);
#78=LINE('',#386,#89);
#79=VECTOR('',#271,2.117);
#80=VECTOR('',#278,2.117);
#81=VECTOR('',#285,2.117);
#82=VECTOR('',#292,2.25);
#83=VECTOR('',#299,2.25);
#84=VECTOR('',#306,2.25);
#85=VECTOR('',#313,10.);
#86=VECTOR('',#320,10.);
#87=VECTOR('',#323,10.);
#88=VECTOR('',#326,10.);
#89=VECTOR('',#327,10.);
#90=CIRCLE('',#239,2.117);
#91=CIRCLE('',#240,2.117);
#92=CIRCLE('',#242,2.117);
#93=CIRCLE('',#243,2.117);
#94=CIRCLE('',#245,2.117);
#95=CIRCLE('',#246,2.117);
#96=CIRCLE('',#248,2.25);
#97=CIRCLE('',#249,2.25);
#98=CIRCLE('',#251,2.25);
#99=CIRCLE('',#252,2.25);
#100=CIRCLE('',#254,2.25);
#101=CIRCLE('',#255,2.25);
#102=CIRCLE('',#257,10.);
#103=CIRCLE('',#258,10.);
#104=CIRCLE('',#260,45.);
#105=CIRCLE('',#261,45.);
#106=VERTEX_POINT('',#334);
#107=VERTEX_POINT('',#336);
#108=VERTEX_POINT('',#340);
#109=VERTEX_POINT('',#342);
#110=VERTEX_POINT('',#346);
#111=VERTEX_POINT('',#348);
#112=VERTEX_POINT('',#352);
#113=VERTEX_POINT('',#354);
#114=VERTEX_POINT('',#358);
#115=VERTEX_POINT('',#360);
#116=VERTEX_POINT('',#364);
#117=VERTEX_POINT('',#366);
#118=VERTEX_POINT('',#370);
#119=VERTEX_POINT('',#372);
#120=VERTEX_POINT('',#376);
#121=VERTEX_POINT('',#377);
#122=VERTEX_POINT('',#379);
#123=VERTEX_POINT('',#381);
#124=EDGE_CURVE('',#106,#106,#90,.T.);
#125=EDGE_CURVE('',#106,#107,#68,.T.);
#126=EDGE_CURVE('',#107,#107,#91,.T.);
#127=EDGE_CURVE('',#108,#108,#92,.T.);
#128=EDGE_CURVE('',#108,#109,#69,.T.);
#129=EDGE_CURVE('',#109,#109,#93,.T.);
#130=EDGE_CURVE('',#110,#110,#94,.T.);
#131=EDGE_CURVE('',#110,#111,#70,.T.);
#132=EDGE_CURVE('',#111,#111,#95,.T.);
#133=EDGE_CURVE('',#112,#112,#96,.T.);
#134=EDGE_CURVE('',#112,#113,#71,.T.);
#135=EDGE_CURVE('',#113,#113,#97,.T.);
#136=EDGE_CURVE('',#114,#114,#98,.T.);
#137=EDGE_CURVE('',#114,#115,#72,.T.);
#138=EDGE_CURVE('',#115,#115,#99,.T.);
#139=EDGE_CURVE('',#116,#116,#100,.T.);
#140=EDGE_CURVE('',#116,#117,#73,.T.);
#141=EDGE_CURVE('',#117,#117,#101,.T.);
#142=EDGE_CURVE('',#118,#118,#102,.T.);
#143=EDGE_CURVE('',#118,#119,#74,.T.);
#144=EDGE_CURVE('',#119,#119,#103,.T.);
#145=EDGE_CURVE('',#120,#121,#104,.T.);
#146=EDGE_CURVE('',#121,#122,#75,.T.);
#147=EDGE_CURVE('',#123,#122,#105,.T.);
#148=EDGE_CURVE('',#120,#123,#76,.T.);
#149=EDGE_CURVE('',#121,#120,#77,.T.);
#150=EDGE_CURVE('',#122,#123,#78,.T.);
#151=ORIENTED_EDGE('',*,*,#124,.F.);
#152=ORIENTED_EDGE('',*,*,#125,.T.);
#153=ORIENTED_EDGE('',*,*,#126,.F.);
#154=ORIENTED_EDGE('',*,*,#125,.F.);
#155=ORIENTED_EDGE('',*,*,#127,.F.);
#156=ORIENTED_EDGE('',*,*,#128,.T.);
#157=ORIENTED_EDGE('',*,*,#129,.F.);
#158=ORIENTED_EDGE('',*,*,#128,.F.);
#159=ORIENTED_EDGE('',*,*,#130,.F.);
#160=ORIENTED_EDGE('',*,*,#131,.T.);
#161=ORIENTED_EDGE('',*,*,#132,.F.);
#162=ORIENTED_EDGE('',*,*,#131,.F.);
#163=ORIENTED_EDGE('',*,*,#133,.F.);
#164=ORIENTED_EDGE('',*,*,#134,.T.);
#165=ORIENTED_EDGE('',*,*,#135,.F.);
#166=ORIENTED_EDGE('',*,*,#134,.F.);
#167=ORIENTED_EDGE('',*,*,#136,.F.);
#168=ORIENTED_EDGE('',*,*,#137,.T.);
#169=ORIENTED_EDGE('',*,*,#138,.F.);
#170=ORIENTED_EDGE('',*,*,#137,.F.);
#171=ORIENTED_EDGE('',*,*,#139,.F.);
#172=ORIENTED_EDGE('',*,*,#140,.T.);
#173=ORIENTED_EDGE('',*,*,#141,.F.);
#174=ORIENTED_EDGE('',*,*,#140,.F.);
#175=ORIENTED_EDGE('',*,*,#142,.F.);
#176=ORIENTED_EDGE('',*,*,#143,.T.);
#177=ORIENTED_EDGE('',*,*,#144,.T.);
#178=ORIENTED_EDGE('',*,*,#143,.F.);
#179=ORIENTED_EDGE('',*,*,#145,.T.);
#180=ORIENTED_EDGE('',*,*,#146,.T.);
#181=ORIENTED_EDGE('',*,*,#147,.F.);
#182=ORIENTED_EDGE('',*,*,#148,.F.);
#183=ORIENTED_EDGE('',*,*,#149,.T.);
#184=ORIENTED_EDGE('',*,*,#148,.T.);
#185=ORIENTED_EDGE('',*,*,#150,.F.);
#186=ORIENTED_EDGE('',*,*,#146,.F.);
#187=ORIENTED_EDGE('',*,*,#150,.T.);
#188=ORIENTED_EDGE('',*,*,#147,.T.);
#189=ORIENTED_EDGE('',*,*,#126,.T.);
#190=ORIENTED_EDGE('',*,*,#129,.T.);
#191=ORIENTED_EDGE('',*,*,#132,.T.);
#192=ORIENTED_EDGE('',*,*,#135,.T.);
#193=ORIENTED_EDGE('',*,*,#138,.T.);
#194=ORIENTED_EDGE('',*,*,#141,.T.);
#195=ORIENTED_EDGE('',*,*,#142,.T.);
#196=ORIENTED_EDGE('',*,*,#149,.F.);
#197=ORIENTED_EDGE('',*,*,#145,.F.);
#198=ORIENTED_EDGE('',*,*,#124,.T.);
#199=ORIENTED_EDGE('',*,*,#127,.T.);
#200=ORIENTED_EDGE('',*,*,#130,.T.);
#201=ORIENTED_EDGE('',*,*,#133,.T.);
#202=ORIENTED_EDGE('',*,*,#136,.T.);
#203=ORIENTED_EDGE('',*,*,#139,.T.);
#204=ORIENTED_EDGE('',*,*,#144,.F.);
#205=CYLINDRICAL_SURFACE('',#238,2.117);
#206=CYLINDRICAL_SURFACE('',#241,2.117);
#207=CYLINDRICAL_SURFACE('',#244,2.117);
#208=CYLINDRICAL_SURFACE('',#247,2.25);
#209=CYLINDRICAL_SURFACE('',#250,2.25);
#210=CYLINDRICAL_SURFACE('',#253,2.25);
#211=CYLINDRICAL_SURFACE('',#256,10.);
#212=CYLINDRICAL_SURFACE('',#259,45.);
#213=ADVANCED_FACE('',(#32),#205,.F.);
#214=ADVANCED_FACE('',(#33),#206,.F.);
#215=ADVANCED_FACE('',(#34),#207,.F.);
#216=ADVANCED_FACE('',(#35),#208,.F.);
#217=ADVANCED_FACE('',(#36),#209,.F.);
#218=ADVANCED_FACE('',(#37),#210,.F.);
#219=ADVANCED_FACE('',(#38),#211,.F.);
#220=ADVANCED_FACE('',(#39),#212,.T.);
#221=ADVANCED_FACE('',(#40),#29,.T.);
#222=ADVANCED_FACE('',(#41,#15,#16,#17,#18,#19,#20,#21),#30,.T.);
#223=ADVANCED_FACE('',(#42,#22,#23,#24,#25,#26,#27,#28),#31,.F.);
#224=CLOSED_SHELL('',(#213,#214,#215,#216,#217,#218,#219,#220,#221,#222,
#223));
#225=DERIVED_UNIT_ELEMENT(#227,1.);
#226=DERIVED_UNIT_ELEMENT(#394,-3.);
#227=(
MASS_UNIT()
NAMED_UNIT(*)
SI_UNIT(.KILO.,.GRAM.)
);
#228=DERIVED_UNIT((#225,#226));
#229=MEASURE_REPRESENTATION_ITEM('density measure',
POSITIVE_RATIO_MEASURE(7850.),#228);
#230=PROPERTY_DEFINITION_REPRESENTATION(#235,#232);
#231=PROPERTY_DEFINITION_REPRESENTATION(#236,#233);
#232=REPRESENTATION('material name',(#234),#391);
#233=REPRESENTATION('density',(#229),#391);
#234=DESCRIPTIVE_REPRESENTATION_ITEM('Steel','Steel');
#235=PROPERTY_DEFINITION('material property','material name',#401);
#236=PROPERTY_DEFINITION('material property','density of part',#401);
#237=AXIS2_PLACEMENT_3D('',#332,#265,#266);
#238=AXIS2_PLACEMENT_3D('',#333,#267,#268);
#239=AXIS2_PLACEMENT_3D('',#335,#269,#270);
#240=AXIS2_PLACEMENT_3D('',#338,#272,#273);
#241=AXIS2_PLACEMENT_3D('',#339,#274,#275);
#242=AXIS2_PLACEMENT_3D('',#341,#276,#277);
#243=AXIS2_PLACEMENT_3D('',#344,#279,#280);
#244=AXIS2_PLACEMENT_3D('',#345,#281,#282);
#245=AXIS2_PLACEMENT_3D('',#347,#283,#284);
#246=AXIS2_PLACEMENT_3D('',#350,#286,#287);
#247=AXIS2_PLACEMENT_3D('',#351,#288,#289);
#248=AXIS2_PLACEMENT_3D('',#353,#290,#291);
#249=AXIS2_PLACEMENT_3D('',#356,#293,#294);
#250=AXIS2_PLACEMENT_3D('',#357,#295,#296);
#251=AXIS2_PLACEMENT_3D('',#359,#297,#298);
#252=AXIS2_PLACEMENT_3D('',#362,#300,#301);
#253=AXIS2_PLACEMENT_3D('',#363,#302,#303);
#254=AXIS2_PLACEMENT_3D('',#365,#304,#305);
#255=AXIS2_PLACEMENT_3D('',#368,#307,#308);
#256=AXIS2_PLACEMENT_3D('',#369,#309,#310);
#257=AXIS2_PLACEMENT_3D('',#371,#311,#312);
#258=AXIS2_PLACEMENT_3D('',#374,#314,#315);
#259=AXIS2_PLACEMENT_3D('',#375,#316,#317);
#260=AXIS2_PLACEMENT_3D('',#378,#318,#319);
#261=AXIS2_PLACEMENT_3D('',#382,#321,#322);
#262=AXIS2_PLACEMENT_3D('',#384,#324,#325);
#263=AXIS2_PLACEMENT_3D('',#387,#328,#329);
#264=AXIS2_PLACEMENT_3D('',#388,#330,#331);
#265=DIRECTION('axis',(0.,0.,1.));
#266=DIRECTION('refdir',(1.,0.,0.));
#267=DIRECTION('center_axis',(0.,1.,0.));
#268=DIRECTION('ref_axis',(0.,0.,-1.));
#269=DIRECTION('center_axis',(0.,1.,0.));
#270=DIRECTION('ref_axis',(0.,0.,-1.));
#271=DIRECTION('',(0.,1.,0.));
#272=DIRECTION('center_axis',(0.,-1.,0.));
#273=DIRECTION('ref_axis',(0.,0.,-1.));
#274=DIRECTION('center_axis',(0.,1.,0.));
#275=DIRECTION('ref_axis',(0.,0.,-1.));
#276=DIRECTION('center_axis',(0.,1.,0.));
#277=DIRECTION('ref_axis',(0.,0.,-1.));
#278=DIRECTION('',(0.,1.,0.));
#279=DIRECTION('center_axis',(0.,-1.,0.));
#280=DIRECTION('ref_axis',(0.,0.,-1.));
#281=DIRECTION('center_axis',(0.,1.,0.));
#282=DIRECTION('ref_axis',(0.,0.,-1.));
#283=DIRECTION('center_axis',(0.,1.,0.));
#284=DIRECTION('ref_axis',(0.,0.,-1.));
#285=DIRECTION('',(0.,1.,0.));
#286=DIRECTION('center_axis',(0.,-1.,0.));
#287=DIRECTION('ref_axis',(0.,0.,-1.));
#288=DIRECTION('center_axis',(0.,1.,0.));
#289=DIRECTION('ref_axis',(0.,0.,-1.));
#290=DIRECTION('center_axis',(0.,1.,0.));
#291=DIRECTION('ref_axis',(0.,0.,-1.));
#292=DIRECTION('',(0.,1.,0.));
#293=DIRECTION('center_axis',(0.,-1.,0.));
#294=DIRECTION('ref_axis',(0.,0.,-1.));
#295=DIRECTION('center_axis',(0.,1.,0.));
#296=DIRECTION('ref_axis',(0.,0.,-1.));
#297=DIRECTION('center_axis',(0.,1.,0.));
#298=DIRECTION('ref_axis',(0.,0.,-1.));
#299=DIRECTION('',(0.,1.,0.));
#300=DIRECTION('center_axis',(0.,-1.,0.));
#301=DIRECTION('ref_axis',(0.,0.,-1.));
#302=DIRECTION('center_axis',(0.,1.,0.));
#303=DIRECTION('ref_axis',(0.,0.,-1.));
#304=DIRECTION('center_axis',(0.,1.,0.));
#305=DIRECTION('ref_axis',(0.,0.,-1.));
#306=DIRECTION('',(0.,1.,0.));
#307=DIRECTION('center_axis',(0.,-1.,0.));
#308=DIRECTION('ref_axis',(0.,0.,-1.));
#309=DIRECTION('center_axis',(0.,1.,0.));
#310=DIRECTION('ref_axis',(1.,0.,0.));
#311=DIRECTION('center_axis',(0.,-1.,0.));
#312=DIRECTION('ref_axis',(1.,0.,0.));
#313=DIRECTION('',(0.,-1.,0.));
#314=DIRECTION('center_axis',(0.,-1.,0.));
#315=DIRECTION('ref_axis',(1.,0.,0.));
#316=DIRECTION('center_axis',(0.,1.,0.));
#317=DIRECTION('ref_axis',(-1.,0.,-1.22464679914735E-16));
#318=DIRECTION('center_axis',(0.,1.,0.));
#319=DIRECTION('ref_axis',(1.,0.,0.));
#320=DIRECTION('',(0.,1.,0.));
#321=DIRECTION('center_axis',(0.,1.,0.));
#322=DIRECTION('ref_axis',(1.,0.,0.));
#323=DIRECTION('',(0.,1.,0.));
#324=DIRECTION('center_axis',(1.,0.,0.));
#325=DIRECTION('ref_axis',(0.,0.,-1.));
#326=DIRECTION('',(0.,0.,-1.));
#327=DIRECTION('',(0.,0.,-1.));
#328=DIRECTION('center_axis',(0.,1.,0.));
#329=DIRECTION('ref_axis',(1.,0.,0.));
#330=DIRECTION('center_axis',(0.,1.,0.));
#331=DIRECTION('ref_axis',(1.,0.,0.));
#332=CARTESIAN_POINT('',(0.,0.,0.));
#333=CARTESIAN_POINT('Origin',(20.,12.5,34.6410161513776));
#334=CARTESIAN_POINT('',(20.,0.,36.7580161513776));
#335=CARTESIAN_POINT('Origin',(20.,0.,34.6410161513776));
#336=CARTESIAN_POINT('',(20.,5.,36.7580161513776));
#337=CARTESIAN_POINT('',(20.,12.5,36.7580161513776));
#338=CARTESIAN_POINT('Origin',(20.,5.,34.6410161513776));
#339=CARTESIAN_POINT('Origin',(-40.,12.5,0.));
#340=CARTESIAN_POINT('',(-40.,0.,2.117));
#341=CARTESIAN_POINT('Origin',(-40.,0.,0.));
#342=CARTESIAN_POINT('',(-40.,5.,2.117));
#343=CARTESIAN_POINT('',(-40.,12.5,2.117));
#344=CARTESIAN_POINT('Origin',(-40.,5.,0.));
#345=CARTESIAN_POINT('Origin',(20.,12.5,-34.6410161513775));
#346=CARTESIAN_POINT('',(20.,0.,-32.5240161513775));
#347=CARTESIAN_POINT('Origin',(20.,0.,-34.6410161513775));
#348=CARTESIAN_POINT('',(20.,5.,-32.5240161513775));
#349=CARTESIAN_POINT('',(20.,12.5,-32.5240161513775));
#350=CARTESIAN_POINT('Origin',(20.,5.,-34.6410161513775));
#351=CARTESIAN_POINT('Origin',(15.,3.5,-25.9807621135332));
#352=CARTESIAN_POINT('',(15.,0.,-23.7307621135332));
#353=CARTESIAN_POINT('Origin',(15.,0.,-25.9807621135332));
#354=CARTESIAN_POINT('',(15.,5.,-23.7307621135332));
#355=CARTESIAN_POINT('',(15.,3.5,-23.7307621135332));
#356=CARTESIAN_POINT('Origin',(15.,5.,-25.9807621135332));
#357=CARTESIAN_POINT('Origin',(15.,3.5,25.9807621135332));
#358=CARTESIAN_POINT('',(15.,0.,28.2307621135332));
#359=CARTESIAN_POINT('Origin',(15.,0.,25.9807621135332));
#360=CARTESIAN_POINT('',(15.,5.,28.2307621135332));
#361=CARTESIAN_POINT('',(15.,3.5,28.2307621135332));
#362=CARTESIAN_POINT('Origin',(15.,5.,25.9807621135332));
#363=CARTESIAN_POINT('Origin',(-30.,3.5,0.));
#364=CARTESIAN_POINT('',(-30.,0.,2.25));
#365=CARTESIAN_POINT('Origin',(-30.,0.,0.));
#366=CARTESIAN_POINT('',(-30.,5.,2.25));
#367=CARTESIAN_POINT('',(-30.,3.5,2.25));
#368=CARTESIAN_POINT('Origin',(-30.,5.,0.));
#369=CARTESIAN_POINT('Origin',(0.,0.,0.));
#370=CARTESIAN_POINT('',(-10.,5.,1.22464679914735E-15));
#371=CARTESIAN_POINT('Origin',(0.,5.,0.));
#372=CARTESIAN_POINT('',(-10.,0.,1.22464679914735E-15));
#373=CARTESIAN_POINT('',(-10.,0.,1.22464679914735E-15));
#374=CARTESIAN_POINT('Origin',(0.,0.,0.));
#375=CARTESIAN_POINT('Origin',(0.,0.,0.));
#376=CARTESIAN_POINT('',(25.,0.,-37.4165738677394));
#377=CARTESIAN_POINT('',(25.,0.,37.4165738677394));
#378=CARTESIAN_POINT('Origin',(0.,0.,0.));
#379=CARTESIAN_POINT('',(25.,5.,37.4165738677394));
#380=CARTESIAN_POINT('',(25.,0.,37.4165738677394));
#381=CARTESIAN_POINT('',(25.,5.,-37.4165738677394));
#382=CARTESIAN_POINT('Origin',(0.,5.,0.));
#383=CARTESIAN_POINT('',(25.,0.,-37.4165738677394));
#384=CARTESIAN_POINT('Origin',(25.,0.,37.4165738677394));
#385=CARTESIAN_POINT('',(25.,0.,37.4165738677394));
#386=CARTESIAN_POINT('',(25.,5.,37.4165738677394));
#387=CARTESIAN_POINT('Origin',(-9.99999999999999,5.,0.));
#388=CARTESIAN_POINT('Origin',(-9.99999999999999,0.,0.));
#389=UNCERTAINTY_MEASURE_WITH_UNIT(LENGTH_MEASURE(0.01),#393,
'DISTANCE_ACCURACY_VALUE',
'Maximum model space distance between geometric entities at asserted c
onnectivities');
#390=UNCERTAINTY_MEASURE_WITH_UNIT(LENGTH_MEASURE(0.01),#393,
'DISTANCE_ACCURACY_VALUE',
'Maximum model space distance between geometric entities at asserted c
onnectivities');
#391=(
GEOMETRIC_REPRESENTATION_CONTEXT(3)
GLOBAL_UNCERTAINTY_ASSIGNED_CONTEXT((#389))
GLOBAL_UNIT_ASSIGNED_CONTEXT((#393,#395,#396))
REPRESENTATION_CONTEXT('','3D')
);
#392=(
GEOMETRIC_REPRESENTATION_CONTEXT(3)
GLOBAL_UNCERTAINTY_ASSIGNED_CONTEXT((#390))
GLOBAL_UNIT_ASSIGNED_CONTEXT((#393,#395,#396))
REPRESENTATION_CONTEXT('','3D')
);
#393=(
LENGTH_UNIT()
NAMED_UNIT(*)
SI_UNIT(.MILLI.,.METRE.)
);
#394=(
LENGTH_UNIT()
NAMED_UNIT(*)
SI_UNIT($,.METRE.)
);
#395=(
NAMED_UNIT(*)
PLANE_ANGLE_UNIT()
SI_UNIT($,.RADIAN.)
);
#396=(
NAMED_UNIT(*)
SI_UNIT($,.STERADIAN.)
SOLID_ANGLE_UNIT()
);
#397=SHAPE_DEFINITION_REPRESENTATION(#398,#399);
#398=PRODUCT_DEFINITION_SHAPE('',$,#401);
#399=SHAPE_REPRESENTATION('',(#237),#391);
#400=PRODUCT_DEFINITION_CONTEXT('part definition',#405,'design');
#401=PRODUCT_DEFINITION('coupling bottom plate',
'coupling bottom plate v3',#402,#400);
#402=PRODUCT_DEFINITION_FORMATION('',$,#407);
#403=PRODUCT_RELATED_PRODUCT_CATEGORY('coupling bottom plate v3',
'coupling bottom plate v3',(#407));
#404=APPLICATION_PROTOCOL_DEFINITION('international standard',
'automotive_design',2009,#405);
#405=APPLICATION_CONTEXT(
'Core Data for Automotive Mechanical Design Process');
#406=PRODUCT_CONTEXT('part definition',#405,'mechanical');
#407=PRODUCT('coupling bottom plate','coupling bottom plate v3',$,(#406));
#408=PRESENTATION_STYLE_ASSIGNMENT((#409));
#409=SURFACE_STYLE_USAGE(.BOTH.,#410);
#410=SURFACE_SIDE_STYLE('',(#411));
#411=SURFACE_STYLE_FILL_AREA(#412);
#412=FILL_AREA_STYLE('Steel - Satin',(#413));
#413=FILL_AREA_STYLE_COLOUR('Steel - Satin',#414);
#414=COLOUR_RGB('Steel - Satin',0.627450980392157,0.627450980392157,0.627450980392157);
ENDSEC;
END-ISO-10303-21;
