ISO-10303-21;
HEADER;
/* Generated by software containing ST-Developer
 * from STEP Tools, Inc. (www.steptools.com) 
 */

FILE_DESCRIPTION(
/* description */ (''),
/* implementation_level */ '2;1');

FILE_NAME(
/* name */ 'cryo head flange v5.step',
/* time_stamp */ '2024-06-14T14:32:06+02:00',
/* author */ (''),
/* organization */ (''),
/* preprocessor_version */ 'ST-DEVELOPER v20',
/* originating_system */ 'Autodesk Translation Framework v13.14.0.145',

/* authorisation */ '');

FILE_SCHEMA (('AUTOMOTIVE_DESIGN { 1 0 10303 214 3 1 1 }'));
ENDSEC;

DATA;
#10=MECHANICAL_DESIGN_GEOMETRIC_PRESENTATION_REPRESENTATION('',(#13),#536);
#11=SHAPE_REPRESENTATION_RELATIONSHIP('SRR','None',#543,#12);
#12=ADVANCED_BREP_SHAPE_REPRESENTATION('',(#14),#535);
#13=STYLED_ITEM('',(#552),#14);
#14=MANIFOLD_SOLID_BREP('Body2',#287);
#15=B_SPLINE_CURVE_WITH_KNOTS('',3,(#505,#506,#507,#508,#509,#510),
 .UNSPECIFIED.,.F.,.F.,(4,2,4),(1.93146041701889,2.09248320016307,2.25350598330724),
 .UNSPECIFIED.);
#16=B_SPLINE_CURVE_WITH_KNOTS('',3,(#511,#512,#513,#514,#515,#516),
 .UNSPECIFIED.,.F.,.F.,(4,2,4),(1.93146041701889,2.09248320016307,2.25350598330724),
 .UNSPECIFIED.);
#17=CYLINDRICAL_SURFACE('',#308,25.);
#18=CYLINDRICAL_SURFACE('',#314,40.);
#19=CYLINDRICAL_SURFACE('',#321,46.);
#20=CYLINDRICAL_SURFACE('',#333,39.);
#21=CYLINDRICAL_SURFACE('',#336,2.5175);
#22=CYLINDRICAL_SURFACE('',#340,2.5175);
#23=CYLINDRICAL_SURFACE('',#343,36.);
#24=FACE_BOUND('',#56,.T.);
#25=FACE_BOUND('',#57,.T.);
#26=FACE_BOUND('',#58,.T.);
#27=FACE_BOUND('',#63,.T.);
#28=FACE_BOUND('',#67,.T.);
#29=FACE_BOUND('',#70,.T.);
#30=FACE_BOUND('',#77,.T.);
#31=PLANE('',#304);
#32=PLANE('',#316);
#33=PLANE('',#323);
#34=PLANE('',#331);
#35=PLANE('',#341);
#36=FACE_OUTER_BOUND('',#54,.T.);
#37=FACE_OUTER_BOUND('',#55,.T.);
#38=FACE_OUTER_BOUND('',#59,.T.);
#39=FACE_OUTER_BOUND('',#60,.T.);
#40=FACE_OUTER_BOUND('',#61,.T.);
#41=FACE_OUTER_BOUND('',#62,.T.);
#42=FACE_OUTER_BOUND('',#64,.T.);
#43=FACE_OUTER_BOUND('',#65,.T.);
#44=FACE_OUTER_BOUND('',#66,.T.);
#45=FACE_OUTER_BOUND('',#68,.T.);
#46=FACE_OUTER_BOUND('',#69,.T.);
#47=FACE_OUTER_BOUND('',#71,.T.);
#48=FACE_OUTER_BOUND('',#72,.T.);
#49=FACE_OUTER_BOUND('',#73,.T.);
#50=FACE_OUTER_BOUND('',#74,.T.);
#51=FACE_OUTER_BOUND('',#75,.T.);
#52=FACE_OUTER_BOUND('',#76,.T.);
#53=FACE_OUTER_BOUND('',#78,.T.);
#54=EDGE_LOOP('',(#187,#188,#189,#190));
#55=EDGE_LOOP('',(#191));
#56=EDGE_LOOP('',(#192));
#57=EDGE_LOOP('',(#193));
#58=EDGE_LOOP('',(#194));
#59=EDGE_LOOP('',(#195,#196,#197,#198));
#60=EDGE_LOOP('',(#199,#200,#201,#202,#203));
#61=EDGE_LOOP('',(#204,#205,#206,#207,#208));
#62=EDGE_LOOP('',(#209));
#63=EDGE_LOOP('',(#210));
#64=EDGE_LOOP('',(#211,#212,#213,#214));
#65=EDGE_LOOP('',(#215,#216,#217,#218));
#66=EDGE_LOOP('',(#219));
#67=EDGE_LOOP('',(#220,#221,#222,#223,#224,#225));
#68=EDGE_LOOP('',(#226,#227,#228,#229));
#69=EDGE_LOOP('',(#230));
#70=EDGE_LOOP('',(#231));
#71=EDGE_LOOP('',(#232,#233,#234,#235,#236,#237,#238,#239));
#72=EDGE_LOOP('',(#240,#241));
#73=EDGE_LOOP('',(#242,#243,#244,#245,#246,#247));
#74=EDGE_LOOP('',(#248,#249,#250));
#75=EDGE_LOOP('',(#251,#252,#253,#254,#255,#256));
#76=EDGE_LOOP('',(#257));
#77=EDGE_LOOP('',(#258));
#78=EDGE_LOOP('',(#259,#260,#261,#262));
#79=LINE('',#448,#90);
#80=LINE('',#460,#91);
#81=LINE('',#465,#92);
#82=LINE('',#472,#93);
#83=LINE('',#480,#94);
#84=LINE('',#484,#95);
#85=LINE('',#500,#96);
#86=LINE('',#517,#97);
#87=LINE('',#521,#98);
#88=LINE('',#527,#99);
#89=LINE('',#532,#100);
#90=VECTOR('',#350,25.5);
#91=VECTOR('',#365,25.);
#92=VECTOR('',#370,39.5);
#93=VECTOR('',#379,40.);
#94=VECTOR('',#388,45.5);
#95=VECTOR('',#393,46.);
#96=VECTOR('',#412,45.5);
#97=VECTOR('',#419,39.);
#98=VECTOR('',#426,2.5175);
#99=VECTOR('',#435,2.5175);
#100=VECTOR('',#442,36.);
#101=CIRCLE('',#302,26.);
#102=CIRCLE('',#303,25.);
#103=CIRCLE('',#305,45.);
#104=CIRCLE('',#306,2.5175);
#105=CIRCLE('',#307,2.5175);
#106=CIRCLE('',#309,25.);
#107=CIRCLE('',#311,39.);
#108=CIRCLE('',#312,40.);
#109=CIRCLE('',#313,40.);
#110=CIRCLE('',#315,40.);
#111=CIRCLE('',#317,36.);
#112=CIRCLE('',#319,46.);
#113=CIRCLE('',#320,45.);
#114=CIRCLE('',#322,46.);
#115=CIRCLE('',#324,2.5175);
#116=CIRCLE('',#325,39.);
#117=CIRCLE('',#326,39.);
#118=CIRCLE('',#327,2.5175);
#119=CIRCLE('',#328,39.);
#120=CIRCLE('',#329,2.5175);
#121=CIRCLE('',#332,39.);
#122=CIRCLE('',#335,2.5175);
#123=CIRCLE('',#338,2.5175);
#124=CIRCLE('',#339,2.5175);
#125=CIRCLE('',#342,36.);
#126=VERTEX_POINT('',#445);
#127=VERTEX_POINT('',#447);
#128=VERTEX_POINT('',#451);
#129=VERTEX_POINT('',#453);
#130=VERTEX_POINT('',#455);
#131=VERTEX_POINT('',#458);
#132=VERTEX_POINT('',#462);
#133=VERTEX_POINT('',#464);
#134=VERTEX_POINT('',#466);
#135=VERTEX_POINT('',#470);
#136=VERTEX_POINT('',#474);
#137=VERTEX_POINT('',#477);
#138=VERTEX_POINT('',#479);
#139=VERTEX_POINT('',#483);
#140=VERTEX_POINT('',#487);
#141=VERTEX_POINT('',#488);
#142=VERTEX_POINT('',#490);
#143=VERTEX_POINT('',#492);
#144=VERTEX_POINT('',#494);
#145=VERTEX_POINT('',#496);
#146=VERTEX_POINT('',#502);
#147=VERTEX_POINT('',#523);
#148=VERTEX_POINT('',#529);
#149=EDGE_CURVE('',#126,#126,#101,.T.);
#150=EDGE_CURVE('',#126,#127,#79,.T.);
#151=EDGE_CURVE('',#127,#127,#102,.T.);
#152=EDGE_CURVE('',#128,#128,#103,.T.);
#153=EDGE_CURVE('',#129,#129,#104,.T.);
#154=EDGE_CURVE('',#130,#130,#105,.T.);
#155=EDGE_CURVE('',#131,#131,#106,.T.);
#156=EDGE_CURVE('',#131,#127,#80,.T.);
#157=EDGE_CURVE('',#132,#132,#107,.T.);
#158=EDGE_CURVE('',#132,#133,#81,.T.);
#159=EDGE_CURVE('',#133,#134,#108,.T.);
#160=EDGE_CURVE('',#134,#133,#109,.T.);
#161=EDGE_CURVE('',#135,#135,#110,.T.);
#162=EDGE_CURVE('',#135,#134,#82,.T.);
#163=EDGE_CURVE('',#136,#136,#111,.T.);
#164=EDGE_CURVE('',#137,#137,#112,.T.);
#165=EDGE_CURVE('',#137,#138,#83,.T.);
#166=EDGE_CURVE('',#138,#138,#113,.T.);
#167=EDGE_CURVE('',#137,#139,#84,.T.);
#168=EDGE_CURVE('',#139,#139,#114,.T.);
#169=EDGE_CURVE('',#140,#141,#115,.T.);
#170=EDGE_CURVE('',#142,#140,#116,.T.);
#171=EDGE_CURVE('',#143,#142,#117,.T.);
#172=EDGE_CURVE('',#144,#143,#118,.T.);
#173=EDGE_CURVE('',#145,#144,#119,.T.);
#174=EDGE_CURVE('',#141,#145,#120,.T.);
#175=EDGE_CURVE('',#128,#139,#85,.T.);
#176=EDGE_CURVE('',#146,#146,#121,.T.);
#177=EDGE_CURVE('',#145,#140,#15,.T.);
#178=EDGE_CURVE('',#143,#144,#16,.T.);
#179=EDGE_CURVE('',#142,#146,#86,.T.);
#180=EDGE_CURVE('',#145,#140,#122,.T.);
#181=EDGE_CURVE('',#129,#141,#87,.T.);
#182=EDGE_CURVE('',#147,#144,#123,.T.);
#183=EDGE_CURVE('',#143,#147,#124,.T.);
#184=EDGE_CURVE('',#130,#147,#88,.T.);
#185=EDGE_CURVE('',#148,#148,#125,.T.);
#186=EDGE_CURVE('',#136,#148,#89,.T.);
#187=ORIENTED_EDGE('',*,*,#149,.T.);
#188=ORIENTED_EDGE('',*,*,#150,.T.);
#189=ORIENTED_EDGE('',*,*,#151,.T.);
#190=ORIENTED_EDGE('',*,*,#150,.F.);
#191=ORIENTED_EDGE('',*,*,#152,.F.);
#192=ORIENTED_EDGE('',*,*,#153,.T.);
#193=ORIENTED_EDGE('',*,*,#154,.T.);
#194=ORIENTED_EDGE('',*,*,#149,.F.);
#195=ORIENTED_EDGE('',*,*,#155,.F.);
#196=ORIENTED_EDGE('',*,*,#156,.T.);
#197=ORIENTED_EDGE('',*,*,#151,.F.);
#198=ORIENTED_EDGE('',*,*,#156,.F.);
#199=ORIENTED_EDGE('',*,*,#157,.T.);
#200=ORIENTED_EDGE('',*,*,#158,.T.);
#201=ORIENTED_EDGE('',*,*,#159,.T.);
#202=ORIENTED_EDGE('',*,*,#160,.T.);
#203=ORIENTED_EDGE('',*,*,#158,.F.);
#204=ORIENTED_EDGE('',*,*,#161,.T.);
#205=ORIENTED_EDGE('',*,*,#162,.T.);
#206=ORIENTED_EDGE('',*,*,#159,.F.);
#207=ORIENTED_EDGE('',*,*,#160,.F.);
#208=ORIENTED_EDGE('',*,*,#162,.F.);
#209=ORIENTED_EDGE('',*,*,#157,.F.);
#210=ORIENTED_EDGE('',*,*,#163,.T.);
#211=ORIENTED_EDGE('',*,*,#164,.T.);
#212=ORIENTED_EDGE('',*,*,#165,.T.);
#213=ORIENTED_EDGE('',*,*,#166,.T.);
#214=ORIENTED_EDGE('',*,*,#165,.F.);
#215=ORIENTED_EDGE('',*,*,#164,.F.);
#216=ORIENTED_EDGE('',*,*,#167,.T.);
#217=ORIENTED_EDGE('',*,*,#168,.F.);
#218=ORIENTED_EDGE('',*,*,#167,.F.);
#219=ORIENTED_EDGE('',*,*,#166,.F.);
#220=ORIENTED_EDGE('',*,*,#169,.F.);
#221=ORIENTED_EDGE('',*,*,#170,.F.);
#222=ORIENTED_EDGE('',*,*,#171,.F.);
#223=ORIENTED_EDGE('',*,*,#172,.F.);
#224=ORIENTED_EDGE('',*,*,#173,.F.);
#225=ORIENTED_EDGE('',*,*,#174,.F.);
#226=ORIENTED_EDGE('',*,*,#152,.T.);
#227=ORIENTED_EDGE('',*,*,#175,.T.);
#228=ORIENTED_EDGE('',*,*,#168,.T.);
#229=ORIENTED_EDGE('',*,*,#175,.F.);
#230=ORIENTED_EDGE('',*,*,#161,.F.);
#231=ORIENTED_EDGE('',*,*,#176,.T.);
#232=ORIENTED_EDGE('',*,*,#177,.F.);
#233=ORIENTED_EDGE('',*,*,#173,.T.);
#234=ORIENTED_EDGE('',*,*,#178,.F.);
#235=ORIENTED_EDGE('',*,*,#171,.T.);
#236=ORIENTED_EDGE('',*,*,#179,.T.);
#237=ORIENTED_EDGE('',*,*,#176,.F.);
#238=ORIENTED_EDGE('',*,*,#179,.F.);
#239=ORIENTED_EDGE('',*,*,#170,.T.);
#240=ORIENTED_EDGE('',*,*,#177,.T.);
#241=ORIENTED_EDGE('',*,*,#180,.F.);
#242=ORIENTED_EDGE('',*,*,#153,.F.);
#243=ORIENTED_EDGE('',*,*,#181,.T.);
#244=ORIENTED_EDGE('',*,*,#174,.T.);
#245=ORIENTED_EDGE('',*,*,#180,.T.);
#246=ORIENTED_EDGE('',*,*,#169,.T.);
#247=ORIENTED_EDGE('',*,*,#181,.F.);
#248=ORIENTED_EDGE('',*,*,#178,.T.);
#249=ORIENTED_EDGE('',*,*,#182,.F.);
#250=ORIENTED_EDGE('',*,*,#183,.F.);
#251=ORIENTED_EDGE('',*,*,#154,.F.);
#252=ORIENTED_EDGE('',*,*,#184,.T.);
#253=ORIENTED_EDGE('',*,*,#182,.T.);
#254=ORIENTED_EDGE('',*,*,#172,.T.);
#255=ORIENTED_EDGE('',*,*,#183,.T.);
#256=ORIENTED_EDGE('',*,*,#184,.F.);
#257=ORIENTED_EDGE('',*,*,#185,.F.);
#258=ORIENTED_EDGE('',*,*,#155,.T.);
#259=ORIENTED_EDGE('',*,*,#163,.F.);
#260=ORIENTED_EDGE('',*,*,#186,.T.);
#261=ORIENTED_EDGE('',*,*,#185,.T.);
#262=ORIENTED_EDGE('',*,*,#186,.F.);
#263=CONICAL_SURFACE('',#301,25.5,0.785398163397449);
#264=CONICAL_SURFACE('',#310,39.5,0.785398163397448);
#265=CONICAL_SURFACE('',#318,45.5,0.785398163397447);
#266=CONICAL_SURFACE('',#330,45.5,0.785398163397447);
#267=CONICAL_SURFACE('',#334,1.25875,1.02974425867665);
#268=CONICAL_SURFACE('',#337,1.25875,1.02974425867665);
#269=ADVANCED_FACE('',(#36),#263,.F.);
#270=ADVANCED_FACE('',(#37,#24,#25,#26),#31,.T.);
#271=ADVANCED_FACE('',(#38),#17,.F.);
#272=ADVANCED_FACE('',(#39),#264,.T.);
#273=ADVANCED_FACE('',(#40),#18,.T.);
#274=ADVANCED_FACE('',(#41,#27),#32,.F.);
#275=ADVANCED_FACE('',(#42),#265,.T.);
#276=ADVANCED_FACE('',(#43),#19,.T.);
#277=ADVANCED_FACE('',(#44,#28),#33,.F.);
#278=ADVANCED_FACE('',(#45),#266,.T.);
#279=ADVANCED_FACE('',(#46,#29),#34,.F.);
#280=ADVANCED_FACE('',(#47),#20,.T.);
#281=ADVANCED_FACE('',(#48),#267,.F.);
#282=ADVANCED_FACE('',(#49),#21,.F.);
#283=ADVANCED_FACE('',(#50),#268,.F.);
#284=ADVANCED_FACE('',(#51),#22,.F.);
#285=ADVANCED_FACE('',(#52,#30),#35,.F.);
#286=ADVANCED_FACE('',(#53),#23,.F.);
#287=CLOSED_SHELL('',(#269,#270,#271,#272,#273,#274,#275,#276,#277,#278,
#279,#280,#281,#282,#283,#284,#285,#286));
#288=DERIVED_UNIT_ELEMENT(#290,1.);
#289=DERIVED_UNIT_ELEMENT(#538,-3.);
#290=(
MASS_UNIT()
NAMED_UNIT(*)
SI_UNIT(.KILO.,.GRAM.)
);
#291=DERIVED_UNIT((#288,#289));
#292=MEASURE_REPRESENTATION_ITEM('density measure',
POSITIVE_RATIO_MEASURE(8000.),#291);
#293=PROPERTY_DEFINITION_REPRESENTATION(#298,#295);
#294=PROPERTY_DEFINITION_REPRESENTATION(#299,#296);
#295=REPRESENTATION('material name',(#297),#535);
#296=REPRESENTATION('density',(#292),#535);
#297=DESCRIPTIVE_REPRESENTATION_ITEM('Stainless Steel AISI 304',
'Stainless Steel AISI 304');
#298=PROPERTY_DEFINITION('material property','material name',#545);
#299=PROPERTY_DEFINITION('material property','density of part',#545);
#300=AXIS2_PLACEMENT_3D('',#443,#344,#345);
#301=AXIS2_PLACEMENT_3D('',#444,#346,#347);
#302=AXIS2_PLACEMENT_3D('',#446,#348,#349);
#303=AXIS2_PLACEMENT_3D('',#449,#351,#352);
#304=AXIS2_PLACEMENT_3D('',#450,#353,#354);
#305=AXIS2_PLACEMENT_3D('',#452,#355,#356);
#306=AXIS2_PLACEMENT_3D('',#454,#357,#358);
#307=AXIS2_PLACEMENT_3D('',#456,#359,#360);
#308=AXIS2_PLACEMENT_3D('',#457,#361,#362);
#309=AXIS2_PLACEMENT_3D('',#459,#363,#364);
#310=AXIS2_PLACEMENT_3D('',#461,#366,#367);
#311=AXIS2_PLACEMENT_3D('',#463,#368,#369);
#312=AXIS2_PLACEMENT_3D('',#467,#371,#372);
#313=AXIS2_PLACEMENT_3D('',#468,#373,#374);
#314=AXIS2_PLACEMENT_3D('',#469,#375,#376);
#315=AXIS2_PLACEMENT_3D('',#471,#377,#378);
#316=AXIS2_PLACEMENT_3D('',#473,#380,#381);
#317=AXIS2_PLACEMENT_3D('',#475,#382,#383);
#318=AXIS2_PLACEMENT_3D('',#476,#384,#385);
#319=AXIS2_PLACEMENT_3D('',#478,#386,#387);
#320=AXIS2_PLACEMENT_3D('',#481,#389,#390);
#321=AXIS2_PLACEMENT_3D('',#482,#391,#392);
#322=AXIS2_PLACEMENT_3D('',#485,#394,#395);
#323=AXIS2_PLACEMENT_3D('',#486,#396,#397);
#324=AXIS2_PLACEMENT_3D('',#489,#398,#399);
#325=AXIS2_PLACEMENT_3D('',#491,#400,#401);
#326=AXIS2_PLACEMENT_3D('',#493,#402,#403);
#327=AXIS2_PLACEMENT_3D('',#495,#404,#405);
#328=AXIS2_PLACEMENT_3D('',#497,#406,#407);
#329=AXIS2_PLACEMENT_3D('',#498,#408,#409);
#330=AXIS2_PLACEMENT_3D('',#499,#410,#411);
#331=AXIS2_PLACEMENT_3D('',#501,#413,#414);
#332=AXIS2_PLACEMENT_3D('',#503,#415,#416);
#333=AXIS2_PLACEMENT_3D('',#504,#417,#418);
#334=AXIS2_PLACEMENT_3D('',#518,#420,#421);
#335=AXIS2_PLACEMENT_3D('',#519,#422,#423);
#336=AXIS2_PLACEMENT_3D('',#520,#424,#425);
#337=AXIS2_PLACEMENT_3D('',#522,#427,#428);
#338=AXIS2_PLACEMENT_3D('',#524,#429,#430);
#339=AXIS2_PLACEMENT_3D('',#525,#431,#432);
#340=AXIS2_PLACEMENT_3D('',#526,#433,#434);
#341=AXIS2_PLACEMENT_3D('',#528,#436,#437);
#342=AXIS2_PLACEMENT_3D('',#530,#438,#439);
#343=AXIS2_PLACEMENT_3D('',#531,#440,#441);
#344=DIRECTION('axis',(0.,0.,1.));
#345=DIRECTION('refdir',(1.,0.,0.));
#346=DIRECTION('center_axis',(0.,0.,1.));
#347=DIRECTION('ref_axis',(1.,0.,0.));
#348=DIRECTION('center_axis',(0.,0.,1.));
#349=DIRECTION('ref_axis',(1.,0.,0.));
#350=DIRECTION('',(0.707106781186548,8.65956056235494E-17,-0.707106781186547));
#351=DIRECTION('center_axis',(0.,0.,-1.));
#352=DIRECTION('ref_axis',(1.,0.,0.));
#353=DIRECTION('center_axis',(0.,0.,1.));
#354=DIRECTION('ref_axis',(1.,0.,0.));
#355=DIRECTION('center_axis',(0.,0.,-1.));
#356=DIRECTION('ref_axis',(1.,0.,0.));
#357=DIRECTION('center_axis',(0.,0.,-1.));
#358=DIRECTION('ref_axis',(1.,0.,0.));
#359=DIRECTION('center_axis',(0.,0.,-1.));
#360=DIRECTION('ref_axis',(1.,0.,0.));
#361=DIRECTION('center_axis',(0.,0.,-1.));
#362=DIRECTION('ref_axis',(1.,0.,0.));
#363=DIRECTION('center_axis',(0.,0.,1.));
#364=DIRECTION('ref_axis',(1.,0.,0.));
#365=DIRECTION('',(0.,0.,1.));
#366=DIRECTION('center_axis',(0.,0.,1.));
#367=DIRECTION('ref_axis',(0.,-1.,0.));
#368=DIRECTION('center_axis',(0.,0.,1.));
#369=DIRECTION('ref_axis',(0.,-1.,0.));
#370=DIRECTION('',(8.65956056235493E-17,0.707106781186547,0.707106781186547));
#371=DIRECTION('center_axis',(0.,0.,-1.));
#372=DIRECTION('ref_axis',(0.,-1.,0.));
#373=DIRECTION('center_axis',(0.,0.,-1.));
#374=DIRECTION('ref_axis',(0.,-1.,0.));
#375=DIRECTION('center_axis',(0.,0.,-1.));
#376=DIRECTION('ref_axis',(0.,1.,0.));
#377=DIRECTION('center_axis',(0.,0.,-1.));
#378=DIRECTION('ref_axis',(1.,0.,0.));
#379=DIRECTION('',(0.,0.,-1.));
#380=DIRECTION('center_axis',(0.,0.,1.));
#381=DIRECTION('ref_axis',(1.,0.,0.));
#382=DIRECTION('center_axis',(0.,0.,1.));
#383=DIRECTION('ref_axis',(1.,0.,0.));
#384=DIRECTION('center_axis',(0.,0.,1.));
#385=DIRECTION('ref_axis',(1.,0.,0.));
#386=DIRECTION('center_axis',(0.,0.,-1.));
#387=DIRECTION('ref_axis',(1.,0.,0.));
#388=DIRECTION('',(0.707106781186546,8.65956056235492E-17,-0.707106781186549));
#389=DIRECTION('center_axis',(0.,0.,1.));
#390=DIRECTION('ref_axis',(1.,0.,0.));
#391=DIRECTION('center_axis',(0.,0.,-1.));
#392=DIRECTION('ref_axis',(1.,0.,0.));
#393=DIRECTION('',(0.,0.,1.));
#394=DIRECTION('center_axis',(0.,0.,1.));
#395=DIRECTION('ref_axis',(1.,0.,0.));
#396=DIRECTION('center_axis',(0.,0.,1.));
#397=DIRECTION('ref_axis',(1.,0.,0.));
#398=DIRECTION('center_axis',(0.,0.,-1.));
#399=DIRECTION('ref_axis',(1.,0.,0.));
#400=DIRECTION('center_axis',(0.,0.,-1.));
#401=DIRECTION('ref_axis',(1.,0.,0.));
#402=DIRECTION('center_axis',(0.,0.,-1.));
#403=DIRECTION('ref_axis',(1.,0.,0.));
#404=DIRECTION('center_axis',(0.,0.,-1.));
#405=DIRECTION('ref_axis',(1.,0.,0.));
#406=DIRECTION('center_axis',(0.,0.,-1.));
#407=DIRECTION('ref_axis',(1.,0.,0.));
#408=DIRECTION('center_axis',(0.,0.,-1.));
#409=DIRECTION('ref_axis',(1.,0.,0.));
#410=DIRECTION('center_axis',(0.,0.,-1.));
#411=DIRECTION('ref_axis',(1.,0.,0.));
#412=DIRECTION('',(-0.707106781186546,-8.65956056235492E-17,-0.707106781186549));
#413=DIRECTION('center_axis',(0.,0.,-1.));
#414=DIRECTION('ref_axis',(-1.,0.,0.));
#415=DIRECTION('center_axis',(0.,0.,-1.));
#416=DIRECTION('ref_axis',(1.,0.,0.));
#417=DIRECTION('center_axis',(0.,0.,-1.));
#418=DIRECTION('ref_axis',(0.,1.,0.));
#419=DIRECTION('',(0.,0.,-1.));
#420=DIRECTION('center_axis',(0.,0.,1.));
#421=DIRECTION('ref_axis',(1.,0.,0.));
#422=DIRECTION('center_axis',(0.,0.,-1.));
#423=DIRECTION('ref_axis',(1.,0.,0.));
#424=DIRECTION('center_axis',(0.,0.,-1.));
#425=DIRECTION('ref_axis',(1.,0.,0.));
#426=DIRECTION('',(0.,0.,-1.));
#427=DIRECTION('center_axis',(0.,0.,1.));
#428=DIRECTION('ref_axis',(-1.,-1.01064309961486E-15,0.));
#429=DIRECTION('center_axis',(0.,0.,-1.));
#430=DIRECTION('ref_axis',(1.,0.,0.));
#431=DIRECTION('center_axis',(0.,0.,-1.));
#432=DIRECTION('ref_axis',(1.,0.,0.));
#433=DIRECTION('center_axis',(0.,0.,-1.));
#434=DIRECTION('ref_axis',(1.,0.,0.));
#435=DIRECTION('',(0.,0.,-1.));
#436=DIRECTION('center_axis',(0.,0.,1.));
#437=DIRECTION('ref_axis',(1.,0.,0.));
#438=DIRECTION('center_axis',(0.,0.,1.));
#439=DIRECTION('ref_axis',(1.,0.,0.));
#440=DIRECTION('center_axis',(0.,0.,-1.));
#441=DIRECTION('ref_axis',(1.,0.,0.));
#442=DIRECTION('',(0.,0.,1.));
#443=CARTESIAN_POINT('',(0.,0.,0.));
#444=CARTESIAN_POINT('Origin',(4.44089209850063E-15,1.66533453693773E-15,
-0.5));
#445=CARTESIAN_POINT('',(-26.,-1.51874714084538E-15,0.));
#446=CARTESIAN_POINT('Origin',(4.44089209850063E-15,1.66533453693773E-15,
0.));
#447=CARTESIAN_POINT('',(-25.,4.72695153480612E-15,-1.));
#448=CARTESIAN_POINT('',(-25.5,-1.45751480088802E-15,-0.5));
#449=CARTESIAN_POINT('Origin',(4.44089209850063E-15,1.66533453693773E-15,
-1.));
#450=CARTESIAN_POINT('Origin',(0.,0.,0.));
#451=CARTESIAN_POINT('',(-45.,7.17624513310083E-15,0.));
#452=CARTESIAN_POINT('Origin',(4.44089209850063E-15,1.66533453693773E-15,
0.));
#453=CARTESIAN_POINT('',(-43.5175,1.97363936862308E-15,0.));
#454=CARTESIAN_POINT('Origin',(-41.,1.66533453693773E-15,0.));
#455=CARTESIAN_POINT('',(38.4825,1.97363936862308E-15,0.));
#456=CARTESIAN_POINT('Origin',(41.,1.66533453693773E-15,0.));
#457=CARTESIAN_POINT('Origin',(4.44089209850063E-15,1.66533453693773E-15,
0.));
#458=CARTESIAN_POINT('',(-25.,-1.39628246093065E-15,-10.));
#459=CARTESIAN_POINT('Origin',(4.44089209850063E-15,1.66533453693773E-15,
-10.));
#460=CARTESIAN_POINT('',(-25.,4.72695153480612E-15,0.));
#461=CARTESIAN_POINT('Origin',(0.,0.,-34.5));
#462=CARTESIAN_POINT('',(-4.77612251667468E-15,39.,-35.));
#463=CARTESIAN_POINT('Origin',(0.,0.,-35.));
#464=CARTESIAN_POINT('',(4.89858719658941E-15,40.,-34.));
#465=CARTESIAN_POINT('',(4.83735485663204E-15,39.5,-34.5));
#466=CARTESIAN_POINT('',(-4.89858719658941E-15,-40.,-34.));
#467=CARTESIAN_POINT('Origin',(0.,0.,-34.));
#468=CARTESIAN_POINT('Origin',(0.,0.,-34.));
#469=CARTESIAN_POINT('Origin',(0.,0.,-30.0000002607703));
#470=CARTESIAN_POINT('',(-4.89858719658941E-15,-40.,-25.0000005215406));
#471=CARTESIAN_POINT('Origin',(0.,0.,-25.0000005215406));
#472=CARTESIAN_POINT('',(-4.89858719658941E-15,-40.,-30.0000002607703));
#473=CARTESIAN_POINT('Origin',(0.,0.,-35.));
#474=CARTESIAN_POINT('',(-36.,-2.74339393999274E-15,-35.));
#475=CARTESIAN_POINT('Origin',(4.44089209850063E-15,1.66533453693773E-15,
-35.));
#476=CARTESIAN_POINT('Origin',(4.44089209850063E-15,1.66533453693773E-15,
-9.5));
#477=CARTESIAN_POINT('',(-46.,7.29870981301556E-15,-9.));
#478=CARTESIAN_POINT('Origin',(4.44089209850063E-15,1.66533453693773E-15,
-9.));
#479=CARTESIAN_POINT('',(-45.,-3.84557605922536E-15,-10.));
#480=CARTESIAN_POINT('',(-45.5,-3.90680839918272E-15,-9.5));
#481=CARTESIAN_POINT('Origin',(4.44089209850063E-15,1.66533453693773E-15,
-10.));
#482=CARTESIAN_POINT('Origin',(4.44089209850063E-15,1.66533453693773E-15,
0.));
#483=CARTESIAN_POINT('',(-46.,-3.96804073914009E-15,-1.));
#484=CARTESIAN_POINT('',(-46.,7.29870981301556E-15,0.));
#485=CARTESIAN_POINT('Origin',(4.44089209850063E-15,1.66533453693773E-15,
-1.));
#486=CARTESIAN_POINT('Origin',(0.,46.,-10.));
#487=CARTESIAN_POINT('',(-38.9714901676829,-1.49095744747905,-10.));
#488=CARTESIAN_POINT('',(-43.5175,1.97363936862308E-15,-10.));
#489=CARTESIAN_POINT('Origin',(-41.,1.66533453693773E-15,-10.));
#490=CARTESIAN_POINT('',(-4.77612251667468E-15,-39.,-9.99999999999997));
#491=CARTESIAN_POINT('Origin',(0.,0.,-10.));
#492=CARTESIAN_POINT('',(38.9714901676829,-1.49095744747905,-10.));
#493=CARTESIAN_POINT('Origin',(0.,0.,-10.));
#494=CARTESIAN_POINT('',(38.9714901676829,1.49095744747905,-10.));
#495=CARTESIAN_POINT('Origin',(41.,1.66533453693773E-15,-10.));
#496=CARTESIAN_POINT('',(-38.9714901676829,1.49095744747905,-10.));
#497=CARTESIAN_POINT('Origin',(0.,0.,-10.));
#498=CARTESIAN_POINT('Origin',(-41.,1.66533453693773E-15,-10.));
#499=CARTESIAN_POINT('Origin',(4.44089209850063E-15,1.66533453693773E-15,
-0.5));
#500=CARTESIAN_POINT('',(-45.5,-3.90680839918272E-15,-0.5));
#501=CARTESIAN_POINT('Origin',(0.,39.,-25.0000005215406));
#502=CARTESIAN_POINT('',(-4.77612251667468E-15,-39.,-25.0000005215406));
#503=CARTESIAN_POINT('Origin',(0.,0.,-25.0000005215406));
#504=CARTESIAN_POINT('Origin',(0.,0.,-17.5000002607703));
#505=CARTESIAN_POINT('Ctrl Pts',(-38.9714901676829,1.49095744747904,-9.99999999999997));
#506=CARTESIAN_POINT('Ctrl Pts',(-38.9895139719924,1.01984104263585,-10.1763740070702));
#507=CARTESIAN_POINT('Ctrl Pts',(-39.,0.536742610480575,-10.3109453703468));
#508=CARTESIAN_POINT('Ctrl Pts',(-39.,-0.536742610480572,-10.3109453703468));
#509=CARTESIAN_POINT('Ctrl Pts',(-38.9895139719924,-1.01984104263584,-10.1763740070702));
#510=CARTESIAN_POINT('Ctrl Pts',(-38.9714901676829,-1.49095744747904,-9.99999999999997));
#511=CARTESIAN_POINT('Ctrl Pts',(38.9714901676829,-1.49095744747903,-9.99999999999997));
#512=CARTESIAN_POINT('Ctrl Pts',(38.9895139719924,-1.01984104263584,-10.1763740070702));
#513=CARTESIAN_POINT('Ctrl Pts',(39.,-0.536742610480572,-10.3109453703468));
#514=CARTESIAN_POINT('Ctrl Pts',(39.,0.536742610480575,-10.3109453703468));
#515=CARTESIAN_POINT('Ctrl Pts',(38.9895139719924,1.01984104263585,-10.1763740070702));
#516=CARTESIAN_POINT('Ctrl Pts',(38.9714901676829,1.49095744747904,-9.99999999999997));
#517=CARTESIAN_POINT('',(-4.77612251667468E-15,-39.,-17.5000002607703));
#518=CARTESIAN_POINT('Origin',(-41.,1.66533453693773E-15,-10.7563333042009));
#519=CARTESIAN_POINT('Origin',(-41.,1.66533453693773E-15,-10.));
#520=CARTESIAN_POINT('Origin',(-41.,1.66533453693773E-15,-5.));
#521=CARTESIAN_POINT('',(-43.5175,1.97363936862308E-15,-5.));
#522=CARTESIAN_POINT('Origin',(41.,1.66533453693773E-15,-10.7563333042009));
#523=CARTESIAN_POINT('',(38.4825,1.97363936862308E-15,-10.));
#524=CARTESIAN_POINT('Origin',(41.,1.66533453693773E-15,-10.));
#525=CARTESIAN_POINT('Origin',(41.,1.66533453693773E-15,-10.));
#526=CARTESIAN_POINT('Origin',(41.,1.66533453693773E-15,-5.));
#527=CARTESIAN_POINT('',(38.4825,1.97363936862308E-15,-5.));
#528=CARTESIAN_POINT('Origin',(4.44089209850063E-15,0.,-10.));
#529=CARTESIAN_POINT('',(-36.,-2.74339393999274E-15,-10.));
#530=CARTESIAN_POINT('Origin',(4.44089209850063E-15,1.66533453693773E-15,
-10.));
#531=CARTESIAN_POINT('Origin',(4.44089209850063E-15,1.66533453693773E-15,
0.));
#532=CARTESIAN_POINT('',(-36.,6.07406301386821E-15,0.));
#533=UNCERTAINTY_MEASURE_WITH_UNIT(LENGTH_MEASURE(0.01),#537,
'DISTANCE_ACCURACY_VALUE',
'Maximum model space distance between geometric entities at asserted c
onnectivities');
#534=UNCERTAINTY_MEASURE_WITH_UNIT(LENGTH_MEASURE(0.01),#537,
'DISTANCE_ACCURACY_VALUE',
'Maximum model space distance between geometric entities at asserted c
onnectivities');
#535=(
GEOMETRIC_REPRESENTATION_CONTEXT(3)
GLOBAL_UNCERTAINTY_ASSIGNED_CONTEXT((#533))
GLOBAL_UNIT_ASSIGNED_CONTEXT((#537,#539,#540))
REPRESENTATION_CONTEXT('','3D')
);
#536=(
GEOMETRIC_REPRESENTATION_CONTEXT(3)
GLOBAL_UNCERTAINTY_ASSIGNED_CONTEXT((#534))
GLOBAL_UNIT_ASSIGNED_CONTEXT((#537,#539,#540))
REPRESENTATION_CONTEXT('','3D')
);
#537=(
LENGTH_UNIT()
NAMED_UNIT(*)
SI_UNIT(.MILLI.,.METRE.)
);
#538=(
LENGTH_UNIT()
NAMED_UNIT(*)
SI_UNIT($,.METRE.)
);
#539=(
NAMED_UNIT(*)
PLANE_ANGLE_UNIT()
SI_UNIT($,.RADIAN.)
);
#540=(
NAMED_UNIT(*)
SI_UNIT($,.STERADIAN.)
SOLID_ANGLE_UNIT()
);
#541=SHAPE_DEFINITION_REPRESENTATION(#542,#543);
#542=PRODUCT_DEFINITION_SHAPE('',$,#545);
#543=SHAPE_REPRESENTATION('',(#300),#535);
#544=PRODUCT_DEFINITION_CONTEXT('part definition',#549,'design');
#545=PRODUCT_DEFINITION('cryo head flange','cryo head flange v5',#546,#544);
#546=PRODUCT_DEFINITION_FORMATION('',$,#551);
#547=PRODUCT_RELATED_PRODUCT_CATEGORY('cryo head flange v5',
'cryo head flange v5',(#551));
#548=APPLICATION_PROTOCOL_DEFINITION('international standard',
'automotive_design',2009,#549);
#549=APPLICATION_CONTEXT(
'Core Data for Automotive Mechanical Design Process');
#550=PRODUCT_CONTEXT('part definition',#549,'mechanical');
#551=PRODUCT('cryo head flange','cryo head flange v5',$,(#550));
#552=PRESENTATION_STYLE_ASSIGNMENT((#553));
#553=SURFACE_STYLE_USAGE(.BOTH.,#554);
#554=SURFACE_SIDE_STYLE('',(#555));
#555=SURFACE_STYLE_FILL_AREA(#556);
#556=FILL_AREA_STYLE('Stainless Steel - Satin',(#557));
#557=FILL_AREA_STYLE_COLOUR('Stainless Steel - Satin',#558);
#558=COLOUR_RGB('Stainless Steel - Satin',0.796078431372549,0.796078431372549,
0.796078431372549);
ENDSEC;
END-ISO-10303-21;
