  0
SECTION
  2
HEADER
  9
$ACADVER
  1
AC1027
  9
$ACADMAINTVER
 70
   125
  9
$DWGCODEPAGE
  3
ANSI_1252
  9
$LASTSAVEDBY
  1
yatishkale
  9
$REQUIREDVERSIONS
160
                 0
  9
$INSBASE
 10
0.0
 20
0.0
 30
0.0
  9
$EXTMIN
 10
0.0
 20
0.0
 30
0.0
  9
$EXTMAX
 10
210.0
 20
297.0
 30
0.0
  9
$LIMMIN
 10
0.0
 20
0.0
  9
$LIMMAX
 10
210.0
 20
297.0
  9
$ORTHOMODE
 70
     0
  9
$REGENMODE
 70
     1
  9
$FILLMODE
 70
     1
  9
$QTEXTMODE
 70
     0
  9
$MIRRTEXT
 70
     0
  9
$LTSCALE
 40
0.75
  9
$ATTMODE
 70
     1
  9
$TEXTSIZE
 40
3.5
  9
$TRACEWID
 40
1.0
  9
$TEXTSTYLE
  7
Standard
  9
$CLAYER
  8
0
  9
$CELTYPE
  6
ByLayer
  9
$CECOLOR
 62
   256
  9
$CELTSCALE
 40
1.0
  9
$DISPSILH
 70
     0
  9
$DIMSCALE
 40
1.0
  9
$DIMASZ
 40
3.5
  9
$DIMEXO
 40
2.1
  9
$DIMDLI
 40
10.5
  9
$DIMRND
 40
0.0
  9
$DIMDLE
 40
0.0
  9
$DIMEXE
 40
2.1
  9
$DIMTP
 40
0.1
  9
$DIMTM
 40
0.1
  9
$DIMTXT
 40
3.5
  9
$DIMCEN
 40
0.0
  9
$DIMTSZ
 40
0.0
  9
$DIMTOL
 70
     0
  9
$DIMLIM
 70
     0
  9
$DIMTIH
 70
     0
  9
$DIMTOH
 70
     0
  9
$DIMSE1
 70
     0
  9
$DIMSE2
 70
     0
  9
$DIMTAD
 70
     1
  9
$DIMZIN
 70
    12
  9
$DIMBLK
  1

  9
$DIMASO
 70
     1
  9
$DIMSHO
 70
     1
  9
$DIMPOST
  1

  9
$DIMAPOST
  1

  9
$DIMALT
 70
     0
  9
$DIMALTD
 70
     2
  9
$DIMALTF
 40
0.03937
  9
$DIMLFAC
 40
1.0
  9
$DIMTOFL
 70
     1
  9
$DIMTVP
 40
0.0
  9
$DIMTIX
 70
     0
  9
$DIMSOXD
 70
     0
  9
$DIMSAH
 70
     0
  9
$DIMBLK1
  1

  9
$DIMBLK2
  1

  9
$DIMSTYLE
  2
Dim-ISO-25
  9
$DIMCLRD
 70
     0
  9
$DIMCLRE
 70
     0
  9
$DIMCLRT
 70
     0
  9
$DIMTFAC
 40
0.714286
  9
$DIMGAP
 40
1.4
  9
$DIMJUST
 70
     0
  9
$DIMSD1
 70
     0
  9
$DIMSD2
 70
     0
  9
$DIMTOLJ
 70
     0
  9
$DIMTZIN
 70
    12
  9
$DIMALTZ
 70
    12
  9
$DIMALTTZ
 70
    12
  9
$DIMUPT
 70
     0
  9
$DIMDEC
 70
     2
  9
$DIMTDEC
 70
     2
  9
$DIMALTU
 70
     2
  9
$DIMALTTD
 70
     2
  9
$DIMTXSTY
  7
Standard
  9
$DIMAUNIT
 70
     0
  9
$DIMADEC
 70
     2
  9
$DIMALTRND
 40
0.0
  9
$DIMAZIN
 70
     3
  9
$DIMDSEP
 70
    46
  9
$DIMATFIT
 70
     3
  9
$DIMFRAC
 70
     0
  9
$DIMLDRBLK
  1

  9
$DIMLUNIT
 70
     2
  9
$DIMLWD
 70
    -2
  9
$DIMLWE
 70
    -2
  9
$DIMTMOVE
 70
     0
  9
$DIMFXL
 40
1.0
  9
$DIMFXLON
 70
     0
  9
$DIMJOGANG
 40
0.785398
  9
$DIMTFILL
 70
     0
  9
$DIMTFILLCLR
 70
     0
  9
$DIMARCSYM
 70
     0
  9
$DIMLTYPE
  6

  9
$DIMLTEX1
  6

  9
$DIMLTEX2
  6

  9
$DIMTXTDIRECTION
 70
     0
  9
$LUNITS
 70
     2
  9
$LUPREC
 70
     4
  9
$SKETCHINC
 40
1.0
  9
$FILLETRAD
 40
0.0
  9
$AUNITS
 70
     0
  9
$AUPREC
 70
     0
  9
$MENU
  1
.
  9
$ELEVATION
 40
0.0
  9
$PELEVATION
 40
0.0
  9
$THICKNESS
 40
0.0
  9
$LIMCHECK
 70
     0
  9
$CHAMFERA
 40
0.0
  9
$CHAMFERB
 40
0.0
  9
$CHAMFERC
 40
0.0
  9
$CHAMFERD
 40
0.0
  9
$SKPOLY
 70
     0
  9
$TDCREATE
 40
2460479.459201389
  9
$TDUCREATE
 40
2460479.375868056
  9
$TDUPDATE
 40
2460479.459201389
  9
$TDUUPDATE
 40
2460479.375868056
  9
$TDINDWG
 40
0.0000000000
  9
$TDUSRTIMER
 40
0.0000000000
  9
$USRTIMER
 70
     1
  9
$ANGBASE
 50
0.0
  9
$ANGDIR
 70
     0
  9
$PDMODE
 70
     0
  9
$PDSIZE
 40
0.0
  9
$PLINEWID
 40
0.0
  9
$SPLFRAME
 70
     0
  9
$SPLINETYPE
 70
     6
  9
$SPLINESEGS
 70
     8
  9
$HANDSEED
  5
403
  9
$SURFTAB1
 70
     6
  9
$SURFTAB2
 70
     6
  9
$SURFTYPE
 70
     6
  9
$SURFU
 70
     6
  9
$SURFV
 70
     6
  9
$UCSBASE
  2

  9
$UCSNAME
  2

  9
$UCSORG
 10
0.0
 20
0.0
 30
0.0
  9
$UCSXDIR
 10
1.0
 20
0.0
 30
0.0
  9
$UCSYDIR
 10
0.0
 20
1.0
 30
0.0
  9
$UCSORTHOREF
  2

  9
$UCSORTHOVIEW
 70
     0
  9
$UCSORGTOP
 10
0.0
 20
0.0
 30
0.0
  9
$UCSORGBOTTOM
 10
0.0
 20
0.0
 30
0.0
  9
$UCSORGLEFT
 10
0.0
 20
0.0
 30
0.0
  9
$UCSORGRIGHT
 10
0.0
 20
0.0
 30
0.0
  9
$UCSORGFRONT
 10
0.0
 20
0.0
 30
0.0
  9
$UCSORGBACK
 10
0.0
 20
0.0
 30
0.0
  9
$PUCSBASE
  2

  9
$PUCSNAME
  2

  9
$PUCSORG
 10
0.0
 20
0.0
 30
0.0
  9
$PUCSXDIR
 10
1.0
 20
0.0
 30
0.0
  9
$PUCSYDIR
 10
0.0
 20
1.0
 30
0.0
  9
$PUCSORTHOREF
  2

  9
$PUCSORTHOVIEW
 70
     0
  9
$PUCSORGTOP
 10
0.0
 20
0.0
 30
0.0
  9
$PUCSORGBOTTOM
 10
0.0
 20
0.0
 30
0.0
  9
$PUCSORGLEFT
 10
0.0
 20
0.0
 30
0.0
  9
$PUCSORGRIGHT
 10
0.0
 20
0.0
 30
0.0
  9
$PUCSORGFRONT
 10
0.0
 20
0.0
 30
0.0
  9
$PUCSORGBACK
 10
0.0
 20
0.0
 30
0.0
  9
$USERI1
 70
     0
  9
$USERI2
 70
     0
  9
$USERI3
 70
     0
  9
$USERI4
 70
     0
  9
$USERI5
 70
     0
  9
$USERR1
 40
0.0
  9
$USERR2
 40
0.0
  9
$USERR3
 40
0.0
  9
$USERR4
 40
0.0
  9
$USERR5
 40
0.0
  9
$WORLDVIEW
 70
     1
  9
$SHADEDGE
 70
     3
  9
$SHADEDIF
 70
    70
  9
$TILEMODE
 70
     1
  9
$MAXACTVP
 70
    64
  9
$PINSBASE
 10
0.0
 20
0.0
 30
0.0
  9
$PLIMCHECK
 70
     0
  9
$PEXTMIN
 10
1.000000E+20
 20
1.000000E+20
 30
1.000000E+20
  9
$PEXTMAX
 10
-1.000000E+20
 20
-1.000000E+20
 30
-1.000000E+20
  9
$PLIMMIN
 10
0.0
 20
0.0
  9
$PLIMMAX
 10
12.0
 20
9.0
  9
$UNITMODE
 70
     0
  9
$VISRETAIN
 70
     1
  9
$PLINEGEN
 70
     0
  9
$PSLTSCALE
 70
     1
  9
$TREEDEPTH
 70
  3020
  9
$CMLSTYLE
  2
Standard
  9
$CMLJUST
 70
     0
  9
$CMLSCALE
 40
20.0
  9
$PROXYGRAPHICS
 70
     1
  9
$MEASUREMENT
 70
     1
  9
$CELWEIGHT
370
    -1
  9
$ENDCAPS
280
     0
  9
$JOINSTYLE
280
     0
  9
$LWDISPLAY
290
     0
  9
$INSUNITS
 70
     4
  9
$HYPERLINKBASE
  1

  9
$STYLESHEET
  1

  9
$XEDIT
290
     1
  9
$CEPSNTYPE
380
     0
  9
$PSTYLEMODE
290
     1
  9
$FINGERPRINTGUID
  2
{9CA77253-1B4A-8C4A-977E-DEE066349D2A}
  9
$VERSIONGUID
  2
{3B12DDA3-7891-A04C-9316-E470FA87F754}
  9
$EXTNAMES
290
     1
  9
$PSVPSCALE
 40
0.0
  9
$OLESTARTUP
290
     0
  9
$SORTENTS
280
   127
  9
$INDEXCTL
280
     0
  9
$HIDETEXT
280
     1
  9
$XCLIPFRAME
280
     0
  9
$HALOGAP
280
     0
  9
$OBSCOLOR
 70
   257
  9
$OBSLTYPE
280
     0
  9
$INTERSECTIONDISPLAY
280
     0
  9
$INTERSECTIONCOLOR
 70
   257
  9
$DIMASSOC
280
     2
  9
$PROJECTNAME
  1

  9
$CAMERADISPLAY
290
     0
  9
$LENSLENGTH
 40
50.0
  9
$CAMERAHEIGHT
 40
0.0
  9
$STEPSPERSEC
 40
2.0
  9
$STEPSIZE
 40
6.0
  9
$3DDWFPREC
 40
2.0
  9
$PSOLWIDTH
 40
5.0
  9
$PSOLHEIGHT
 40
80.0
  9
$LOFTANG1
 40
1.570796
  9
$LOFTANG2
 40
1.570796
  9
$LOFTMAG1
 40
0.0
  9
$LOFTMAG2
 40
0.0
  9
$LOFTPARAM
 70
     7
  9
$LOFTNORMALS
280
     1
  9
$LATITUDE
 40
37.795
  9
$LONGITUDE
 40
-122.394
  9
$NORTHDIRECTION
 40
0.0
  9
$TIMEZONE
 70
 -8000
  9
$LIGHTGLYPHDISPLAY
280
     1
  9
$TILEMODELIGHTSYNCH
280
     1
  9
$CMATERIAL
347
11
  9
$SOLIDHIST
280
     0
  9
$SHOWHIST
280
     1
  9
$DWFFRAME
280
     2
  9
$DGNFRAME
280
     0
  9
$REALWORLDSCALE
290
     1
  9
$INTERFERECOLOR
 62
     1
  9
$INTERFEREOBJVS
345
33
  9
$INTERFEREVPVS
346
30
  9
$CSHADOW
280
     0
  9
$SHADOWPLANELOCATION
 40
0.0
  0
ENDSEC
  0
SECTION
  2
CLASSES
  0
CLASS
  1
ACDBDICTIONARYWDFLT
  2
AcDbDictionaryWithDefault
  3
ObjectDBX Classes
 90
        0
 91
        1
280
     0
281
     0
  0
CLASS
  1
MATERIAL
  2
AcDbMaterial
  3
ObjectDBX Classes
 90
     1153
 91
        3
280
     0
281
     0
  0
CLASS
  1
VISUALSTYLE
  2
AcDbVisualStyle
  3
ObjectDBX Classes
 90
     4095
 91
       24
280
     0
281
     0
  0
CLASS
  1
SCALE
  2
AcDbScale
  3
ObjectDBX Classes
 90
     1153
 91
       17
280
     0
281
     0
  0
CLASS
  1
TABLESTYLE
  2
AcDbTableStyle
  3
ObjectDBX Classes
 90
     4095
 91
        1
280
     0
281
     0
  0
CLASS
  1
MLEADERSTYLE
  2
AcDbMLeaderStyle
  3
ACDB_MLEADERSTYLE_CLASS
 90
     4095
 91
        1
280
     0
281
     0
  0
CLASS
  1
ACDBSECTIONVIEWSTYLE
  2
AcDbSectionViewStyle
  3
ObjectDBX Classes
 90
     1025
 91
        1
280
     0
281
     0
  0
CLASS
  1
ACDBDETAILVIEWSTYLE
  2
AcDbDetailViewStyle
  3
ObjectDBX Classes
 90
     1025
 91
        1
280
     0
281
     0
  0
CLASS
  1
ACMESCOPE
  2
AcMeScope
  3
AcMeServices
 90
     1024
 91
        1
280
     0
281
     0
  0
CLASS
  1
ACMECOMMANDHISTORY
  2
AcMeCommandHistory
  3
AcMeServices
 90
     1024
 91
        1
280
     0
281
     0
  0
CLASS
  1
ACIMSYSVARMAN
  2
AcImSysVarManager
  3
AcMeServices
 90
     1024
 91
        1
280
     0
281
     0
  0
CLASS
  1
ACIMINTSYSVAR
  2
AcImIntSysVar
  3
AcMeServices
 90
     1024
 91
        1
280
     0
281
     0
  0
CLASS
  1
ACMESTATEMGR
  2
AcMeStateMgr
  3
AcMeServices
 90
     1024
 91
        1
280
     0
281
     0
  0
CLASS
  1
ACGREFMASTER
  2
AcGrefMaster
  3
AcAttribServices
 90
     1024
 91
        1
280
     0
281
     0
  0
CLASS
  1
SORTENTSTABLE
  2
AcDbSortentsTable
  3
ObjectDBX Classes
 90
        0
 91
        9
280
     0
281
     0
  0
CLASS
  1
DICTIONARYVAR
  2
AcDbDictionaryVar
  3
ObjectDBX Classes
 90
        0
 91
        6
280
     0
281
     0
  0
CLASS
  1
CELLSTYLEMAP
  2
AcDbCellStyleMap
  3
ObjectDBX Classes
 90
     1152
 91
        1
280
     0
281
     0
  0
ENDSEC
  0
SECTION
  2
TABLES
  0
TABLE
  2
VPORT
  5
8
330
0
100
AcDbSymbolTable
 70
     1
1001
ACAD
1000
DbSaveVer
1071
      298
  0
VPORT
  5
57
330
8
100
AcDbSymbolTableRecord
100
AcDbViewportTableRecord
  2
*Active
 70
     0
 10
0.0
 20
0.0
 11
1.0
 21
1.0
 12
105.0
 22
148.5
 13
0.0
 23
0.0
 14
0.5
 24
0.5
 15
0.0
 25
0.0
 16
0.0
 26
0.0
 36
1.0
 17
0.0
 27
0.0
 37
0.0
 40
297.0
 41
1.807372
 42
50.0
 43
0.0
 44
0.0
 50
0.0
 51
0.0
 71
     0
 72
 20000
 73
     1
 74
     0
 75
     0
 76
     0
 77
     0
 78
     0
281
     0
 65
     1
110
0.0
120
0.0
130
0.0
111
1.0
121
0.0
131
0.0
112
0.0
122
1.0
132
0.0
 79
     0
146
0.0
348
2F
 60
     3
 61
     5
292
     1
282
     1
141
0.0
142
0.0
 63
   250
421
  3355443
  0
ENDTAB
  0
TABLE
  2
LTYPE
  5
5
330
0
100
AcDbSymbolTable
 70
    17
  0
LTYPE
  5
5B
330
5
100
AcDbSymbolTableRecord
100
AcDbLinetypeTableRecord
  2
ByBlock
 70
     0
  3

 72
    65
 73
     0
 40
0.0
  0
LTYPE
  5
5C
330
5
100
AcDbSymbolTableRecord
100
AcDbLinetypeTableRecord
  2
ByLayer
 70
     0
  3

 72
    65
 73
     0
 40
0.0
  0
LTYPE
  5
5D
330
5
100
AcDbSymbolTableRecord
100
AcDbLinetypeTableRecord
  2
Continuous
 70
     0
  3
Solid line
 72
    65
 73
     0
 40
0.0
  0
LTYPE
  5
81
330
5
100
AcDbSymbolTableRecord
100
AcDbLinetypeTableRecord
  2
HIDDEN
 70
     0
  3
Hidden __ __ __ __ __ __ __ __ __ __ __ __ __ _
 72
    65
 73
     2
 40
9.525
 49
6.35
 74
     0
 49
-3.175
 74
     0
  0
LTYPE
  5
82
330
5
100
AcDbSymbolTableRecord
100
AcDbLinetypeTableRecord
  2
PHANTOM2
 70
     0
  3
Phantom (.5x) ___ _ _ ___ _ _ ___ _ _ ___ _ _
 72
    65
 73
     6
 40
31.75
 49
15.875
 74
     0
 49
-3.175
 74
     0
 49
3.175
 74
     0
 49
-3.175
 74
     0
 49
3.175
 74
     0
 49
-3.175
 74
     0
  0
LTYPE
  5
83
330
5
100
AcDbSymbolTableRecord
100
AcDbLinetypeTableRecord
  2
CENTER
 70
     0
  3
Center ____ _ ____ _ ____ _ ____ _ ____ _ ____
 72
    65
 73
     4
 40
50.8
 49
31.75
 74
     0
 49
-6.35
 74
     0
 49
6.35
 74
     0
 49
-6.35
 74
     0
  0
LTYPE
  5
9D
330
5
100
AcDbSymbolTableRecord
100
AcDbLinetypeTableRecord
  2
CENTER2
 70
     0
  3
Center (.5x) ___ _ ___ _ ___ _ ___ _ ___ _ ___
 72
    65
 73
     4
 40
28.575
 49
19.05
 74
     0
 49
-3.175
 74
     0
 49
3.175
 74
     0
 49
-3.175
 74
     0
  0
LTYPE
  5
9E
330
5
100
AcDbSymbolTableRecord
100
AcDbLinetypeTableRecord
  2
HIDDEN2
 70
     0
  3
Hidden (.5x) _ _ _ _ _ _ _ _ _ _ _ _ _ _ _ _ _
 72
    65
 73
     2
 40
4.7625
 49
3.175
 74
     0
 49
-1.5875
 74
     0
  0
LTYPE
  5
9F
330
5
100
AcDbSymbolTableRecord
100
AcDbLinetypeTableRecord
  2
AM_ISO02W050
 70
     0
  3
__ __ __ __ __ __ __ __ __ __ __ __ __ __ __
 72
    65
 73
     2
 40
7.5
 49
6.0
 74
     0
 49
-1.5
 74
     0
  0
LTYPE
  5
A0
330
5
100
AcDbSymbolTableRecord
100
AcDbLinetypeTableRecord
  2
AM_ISO08W050
 70
     0
  3
____ . ____ . ____ . ____ . ____ . ____ . ____
 72
    65
 73
     4
 40
18.0
 49
12.0
 74
     0
 49
-1.5
 74
     0
 49
3.0
 74
     0
 49
-1.5
 74
     0
  0
LTYPE
  5
A1
330
5
100
AcDbSymbolTableRecord
100
AcDbLinetypeTableRecord
  2
AM_ISO09W050
 70
     0
  3
_____ . . _____ . . _____ . . ____ .. ____
 72
    65
 73
     6
 40
22.5
 49
12.0
 74
     0
 49
-1.5
 74
     0
 49
3.0
 74
     0
 49
-1.5
 74
     0
 49
3.0
 74
     0
 49
-1.5
 74
     0
  0
LTYPE
  5
A2
330
5
100
AcDbSymbolTableRecord
100
AcDbLinetypeTableRecord
  2
Amconstr
 70
     0
  3
_______________________
 72
    65
 73
     2
 40
9999.0
 49
9999.0
 74
     0
 49
0.0
 74
     0
  0
LTYPE
  5
A3
330
5
100
AcDbSymbolTableRecord
100
AcDbLinetypeTableRecord
  2
AM_ISO08W050x2
 70
     0
  3
__ . __ . __ . __ . __ . __
 72
    65
 73
     4
 40
9.0
 49
6.0
 74
     0
 49
-0.75
 74
     0
 49
1.5
 74
     0
 49
-0.75
 74
     0
  0
LTYPE
  5
A4
330
5
100
AcDbSymbolTableRecord
100
AcDbLinetypeTableRecord
  2
AM_ISO02W050x2
 70
     0
  3
 _ _ _ _ _ _ _ _ _ _ _ _
 72
    65
 73
     2
 40
3.75
 49
3.0
 74
     0
 49
-0.75
 74
     0
  0
LTYPE
  5
A5
330
5
100
AcDbSymbolTableRecord
100
AcDbLinetypeTableRecord
  2
Amzigzag
 70
     0
  3
/\/-/\/-/\/-/\/-/\/-/\/
 72
    65
 73
     2
 40
11.0001
 49
0.0001
 74
     4
 75
   136
340
9A
 46
0.04
 50
0.0
 44
0.0
 45
0.0
 49
-11.0
 74
     0
  0
LTYPE
  5
A6
330
5
100
AcDbSymbolTableRecord
100
AcDbLinetypeTableRecord
  2
ACISOWELD
 70
     0
  3
_ _ _ _ _
 72
    65
 73
     2
 40
2.0
 49
2.0
 74
     0
 49
-1.0
 74
     0
  0
LTYPE
  5
A7
330
5
100
AcDbSymbolTableRecord
100
AcDbLinetypeTableRecord
  2
ACISOTGL
 70
     0
  3
_ _ _ _ _
 72
    65
 73
     2
 40
3.0
 49
2.0
 74
     0
 49
-1.0
 74
     0
  0
LTYPE
  5
A8
330
5
100
AcDbSymbolTableRecord
100
AcDbLinetypeTableRecord
  2
ACISOTGB
 70
     0
  3
__ . . __ . .
 72
    65
 73
     6
 40
9.0
 49
4.0
 74
     0
 49
-1.0
 74
     0
 49
1.0
 74
     0
 49
-1.0
 74
     0
 49
1.0
 74
     0
 49
-1.0
 74
     0
  0
LTYPE
  5
A9
330
5
100
AcDbSymbolTableRecord
100
AcDbLinetypeTableRecord
  2
ACAD_VIEWBORDER_LINETYPE
 70
     0
  3
Dashed line in view border
 72
    83
 73
     2
 40
10.0
 49
1.59
 74
     0
 49
-6.35
 74
     0
1001
ACAD_EXEMPT_FROM_CAD_STANDARDS
1070
     1
  0
ENDTAB
  0
TABLE
  2
LAYER
  5
2
330
0
100
AcDbSymbolTable
 70
    14
  0
LAYER
  5
54
330
2
100
AcDbSymbolTableRecord
100
AcDbLayerTableRecord
  2
0
 70
     0
 62
     7
  6
Continuous
370
    -3
390
F
347
21
348
0
1001
AcAecLayerStandard
1000

1000

  0
LAYER
  5
79
330
2
100
AcDbSymbolTableRecord
100
AcDbLayerTableRecord
  2
Defpoints
 70
     0
 62
     7
  6
Continuous
290
     0
370
    -3
390
F
347
21
348
0
1001
AcAecLayerStandard
1000

1000

  0
LAYER
  5
B5
330
2
100
AcDbSymbolTableRecord
100
AcDbLayerTableRecord
  2
Visible
 70
     0
 62
     7
  6
Continuous
370
    35
390
F
347
21
348
0
  0
LAYER
  5
BB
330
2
100
AcDbSymbolTableRecord
100
AcDbLayerTableRecord
  2
Hidden
 70
     0
 62
     7
  6
HIDDEN2
370
    18
390
F
347
21
348
0
  0
LAYER
  5
102
330
2
100
AcDbSymbolTableRecord
100
AcDbLayerTableRecord
  2
Hidden Narrow
 70
     0
 62
     7
  6
HIDDEN2
370
    18
390
F
347
21
348
0
  0
LAYER
  5
104
330
2
100
AcDbSymbolTableRecord
100
AcDbLayerTableRecord
  2
Visible Narrow
 70
     0
 62
     7
  6
Continuous
370
    18
390
F
347
21
348
0
  0
LAYER
  5
14C
330
2
100
AcDbSymbolTableRecord
100
AcDbLayerTableRecord
  2
BORDER
 70
     0
 62
     7
  6
Continuous
370
    18
390
F
347
21
348
0
1001
AcAecLayerStandard
1000

1000

1001
AcCmTransparency
1071
        0
  0
LAYER
  5
162
330
2
100
AcDbSymbolTableRecord
100
AcDbLayerTableRecord
  2
TITLEBLOCK
 70
     0
 62
     7
  6
Continuous
370
    25
390
F
347
21
348
0
1001
AcAecLayerStandard
1000

1000

1001
AcCmTransparency
1071
        0
  0
LAYER
  5
1AE
330
2
100
AcDbSymbolTableRecord
100
AcDbLayerTableRecord
  2
Smart Centers
 70
     0
 62
     7
  6
CENTER2
370
    18
390
F
347
21
348
0
  0
LAYER
  5
1B9
330
2
100
AcDbSymbolTableRecord
100
AcDbLayerTableRecord
  2
FD_Dimensions
 70
     0
 62
     7
  6
Continuous
370
    18
390
F
347
21
348
0
  0
ENDTAB
  0
TABLE
  2
STYLE
  5
3
330
0
100
AcDbSymbolTable
 70
     5
  0
STYLE
  5
55
330
3
100
AcDbSymbolTableRecord
100
AcDbTextStyleTableRecord
  2
Standard
 70
     0
 40
0.0
 41
1.0
 50
0.0
 71
     0
 42
3.5
  3
arial.ttf
  4

1001
ACAD
1000
Arial
1071
       34
  0
STYLE
  5
5A
330
3
100
AcDbSymbolTableRecord
100
AcDbTextStyleTableRecord
  2
Annotative
 70
     0
 40
0.0
 41
1.0
 50
0.0
 71
     0
 42
0.2
  3
txt
  4

1001
AcadAnnotative
1000
AnnotativeData
1002
{
1070
     1
1070
     1
1002
}
  0
STYLE
  5
99
330
3
100
AcDbSymbolTableRecord
100
AcDbTextStyleTableRecord
  2
FusionTitle
 70
     0
 40
0.0
 41
1.0
 50
0.0
 71
     0
 42
2.5
  3
arial.ttf
  4

1001
ACAD
1000
Arial
1071
       34
  0
STYLE
  5
9A
330
3
100
AcDbSymbolTableRecord
100
AcDbTextStyleTableRecord
  2

 70
     1
 40
0.0
 41
1.0
 50
0.0
 71
     0
 42
10.0
  3
genltshp.shx
  4

  0
STYLE
  5
9B
330
3
100
AcDbSymbolTableRecord
100
AcDbTextStyleTableRecord
  2
ACISOGDT
 70
     0
 40
0.0
 41
1.0
 50
0.0
 71
     0
 42
10.0
  3
amgdt.shx
  4

  0
ENDTAB
  0
TABLE
  2
VIEW
  5
6
330
0
100
AcDbSymbolTable
 70
     0
  0
ENDTAB
  0
TABLE
  2
UCS
  5
7
330
0
100
AcDbSymbolTable
 70
     0
  0
ENDTAB
  0
TABLE
  2
APPID
  5
9
330
0
100
AcDbSymbolTable
 70
    26
  0
APPID
  5
56
330
9
100
AcDbSymbolTableRecord
100
AcDbRegAppTableRecord
  2
ACAD
 70
     0
  0
APPID
  5
5E
330
9
100
AcDbSymbolTableRecord
100
AcDbRegAppTableRecord
  2
AcadAnnotative
 70
     0
  0
APPID
  5
78
330
9
100
AcDbSymbolTableRecord
100
AcDbRegAppTableRecord
  2
ACAD_PSEXT
 70
     0
  0
APPID
  5
7A
330
9
100
AcDbSymbolTableRecord
100
AcDbRegAppTableRecord
  2
MCAD_NO_VIS
 70
     0
  0
APPID
  5
7B
330
9
100
AcDbSymbolTableRecord
100
AcDbRegAppTableRecord
  2
ACAD_TEMP_GRAPHIC
 70
     0
  0
APPID
  5
84
330
9
100
AcDbSymbolTableRecord
100
AcDbRegAppTableRecord
  2
ACAD_DSTYLE_DIMJAG
 70
     0
  0
APPID
  5
85
330
9
100
AcDbSymbolTableRecord
100
AcDbRegAppTableRecord
  2
ACAD_DSTYLE_DIMTALN
 70
     0
  0
APPID
  5
86
330
9
100
AcDbSymbolTableRecord
100
AcDbRegAppTableRecord
  2
ACAD_NAV_VCDISPLAY
 70
     0
  0
APPID
  5
87
330
9
100
AcDbSymbolTableRecord
100
AcDbRegAppTableRecord
  2
AcAecLayerStandard
 70
     0
  0
APPID
  5
88
330
9
100
AcDbSymbolTableRecord
100
AcDbRegAppTableRecord
  2
AcCmTransparency
 70
     0
  0
APPID
  5
89
330
9
100
AcDbSymbolTableRecord
100
AcDbRegAppTableRecord
  2
AcDbDynamicBlockGUID
 70
     0
  0
APPID
  5
8A
330
9
100
AcDbSymbolTableRecord
100
AcDbRegAppTableRecord
  2
ACAD_EXEMPT_FROM_CAD_STANDARDS
 70
     0
  0
APPID
  5
8B
330
9
100
AcDbSymbolTableRecord
100
AcDbRegAppTableRecord
  2
ACAD_DSTYLE_DIMBREAK
 70
     0
  0
APPID
  5
8C
330
9
100
AcDbSymbolTableRecord
100
AcDbRegAppTableRecord
  2
ACAD_DSTYLE_DIMRADIAL_EXTENSION
 70
     0
  0
APPID
  5
8D
330
9
100
AcDbSymbolTableRecord
100
AcDbRegAppTableRecord
  2
ACAD_TC
 70
     0
  0
APPID
  5
8E
330
9
100
AcDbSymbolTableRecord
100
AcDbRegAppTableRecord
  2
FUSIONTITLEBLOCK
 70
     0
  0
APPID
  5
8F
330
9
100
AcDbSymbolTableRecord
100
AcDbRegAppTableRecord
  2
FUSIONCURRENTTITLEBLOCK
 70
     0
  0
APPID
  5
90
330
9
100
AcDbSymbolTableRecord
100
AcDbRegAppTableRecord
  2
AcSynergy
 70
     0
  0
APPID
  5
91
330
9
100
AcDbSymbolTableRecord
100
AcDbRegAppTableRecord
  2
GENIUS_GENSCREG_15
 70
     0
  0
APPID
  5
92
330
9
100
AcDbSymbolTableRecord
100
AcDbRegAppTableRecord
  2
GENIUS_GENOBJ-N-SDF_13
 70
     0
  0
APPID
  5
93
330
9
100
AcDbSymbolTableRecord
100
AcDbRegAppTableRecord
  2
GENIUS_GENODEF_13
 70
     0
  0
APPID
  5
94
330
9
100
AcDbSymbolTableRecord
100
AcDbRegAppTableRecord
  2
ACAD_DIMASSOC_CALC_DIMLFAC
 70
     0
  0
APPID
  5
95
330
9
100
AcDbSymbolTableRecord
100
AcDbRegAppTableRecord
  2
ACAD_DIMASSOC_DIMLFAC
 70
     0
  0
APPID
  5
96
330
9
100
AcDbSymbolTableRecord
100
AcDbRegAppTableRecord
  2
ACAD_DIMASSOC_OVERRIDDEN_DIMLFAC
 70
     0
  0
APPID
  5
97
330
9
100
AcDbSymbolTableRecord
100
AcDbRegAppTableRecord
  2
ACAD_DSTYLE_DIMJAG_POSITION
 70
     0
  0
APPID
  5
98
330
9
100
AcDbSymbolTableRecord
100
AcDbRegAppTableRecord
  2
ACATTRIBSERVICES
 70
     0
  0
ENDTAB
  0
TABLE
  2
DIMSTYLE
  5
A
330
0
100
AcDbSymbolTable
 70
     4
100
AcDbDimStyleTable
 71
     1
340
AD
  0
DIMSTYLE
105
58
330
A
100
AcDbSymbolTableRecord
100
AcDbDimStyleTableRecord
  2
Standard
 70
     0
 41
3.5
 42
2.1
 43
10.5
 44
2.1
 78
    12
 79
     3
140
3.5
143
0.03937
146
0.714286
147
1.4
179
     2
271
     2
272
     2
284
    12
340
55
  0
DIMSTYLE
105
59
330
A
100
AcDbSymbolTableRecord
100
AcDbDimStyleTableRecord
  2
Annotative
 70
     0
 40
0.0
 41
3.5
 42
2.1
 43
10.5
 44
2.1
 73
     0
 74
     0
 77
     1
 78
    12
 79
     3
140
3.5
141
2.5
143
0.03937
146
0.714286
147
1.4
171
     3
172
     1
179
     2
271
     2
272
     2
274
     3
278
    44
283
     0
284
    12
340
55
1001
AcadAnnotative
1000
AnnotativeData
1002
{
1070
     1
1070
     1
1002
}
  0
DIMSTYLE
105
AC
330
A
100
AcDbSymbolTableRecord
100
AcDbDimStyleTableRecord
  2
ISO-25
 70
     0
  4
in
 41
3.5
 42
2.1
 43
10.5
 44
2.1
 47
0.1
 48
0.1
 73
     0
 74
     0
 77
     1
 78
    12
 79
     3
140
3.5
141
0.0
143
0.03937
146
0.714286
147
1.4
171
     4
172
     1
176
   256
177
   256
178
   256
179
     2
271
     2
272
     2
274
     4
283
     0
284
    12
285
     8
340
55
1001
ACAD_DSTYLE_DIMJAG
1070
   388
1040
1.5
1001
ACAD_DSTYLE_DIMTALN
1070
   392
1070
     1
1001
ACAD_DSTYLE_DIMBREAK
1070
   391
1040
3.5
  0
DIMSTYLE
105
AD
102
{ACAD_REACTORS
330
1B8
330
1D4
330
1E3
330
1F0
330
1FD
330
20A
102
}
330
A
100
AcDbSymbolTableRecord
100
AcDbDimStyleTableRecord
  2
Dim-ISO-25
 70
     0
 41
3.5
 42
2.1
 43
10.5
 44
2.1
 47
0.1
 48
0.1
 73
     0
 74
     0
 77
     1
 78
    12
 79
     3
140
3.5
141
0.0
143
0.03937
146
0.714286
147
1.4
172
     1
179
     2
271
     2
272
     2
283
     0
284
    12
285
    12
286
    12
340
55
1001
ACAD_DSTYLE_DIMJAG
1070
   388
1040
1.5
1001
ACAD_DSTYLE_DIMTALN
1070
   392
1070
     1
1001
ACAD_DSTYLE_DIMBREAK
1070
   391
1040
3.5
  0
ENDTAB
  0
TABLE
  2
BLOCK_RECORD
  5
1
330
0
100
AcDbSymbolTable
 70
    22
  0
BLOCK_RECORD
  5
70
102
{ACAD_XDICTIONARY
360
AE
102
}
330
1
100
AcDbSymbolTableRecord
100
AcDbBlockTableRecord
  2
*Model_Space
340
73
 70
     0
280
     1
281
     0
  0
BLOCK_RECORD
  5
6C
330
1
100
AcDbSymbolTableRecord
100
AcDbBlockTableRecord
  2
*Paper_Space
340
6F
 70
     0
280
     1
281
     0
  0
BLOCK_RECORD
  5
74
330
1
100
AcDbSymbolTableRecord
100
AcDbBlockTableRecord
  2
*Paper_Space0
340
77
 70
     0
280
     1
281
     0
  0
BLOCK_RECORD
  5
14D
102
{ACAD_XDICTIONARY
360
14E
102
}
330
1
100
AcDbSymbolTableRecord
100
AcDbBlockTableRecord
  2
ISO_A4(P)_SHEET
340
0
310
2800000020000000200000000100080000000000000400000000000000000000000000000000000000000000000080000080000000808000800000008000800080800000C0C0C000C0DCC000F0CAA6000020400000206000002080000020A0000020C0000020E00000400000004020000040400000406000004080000040A0
310
000040C0000040E00000600000006020000060400000606000006080000060A0000060C0000060E00000800000008020000080400000806000008080000080A0000080C0000080E00000A0000000A0200000A0400000A0600000A0800000A0A00000A0C00000A0E00000C0000000C0200000C0400000C0600000C0800000C0
310
A00000C0C00000C0E00000E0000000E0200000E0400000E0600000E0800000E0A00000E0C00000E0E00040000000400020004000400040006000400080004000A0004000C0004000E00040200000402020004020400040206000402080004020A0004020C0004020E000404000004040200040404000404060004040800040
310
40A0004040C0004040E00040600000406020004060400040606000406080004060A0004060C0004060E00040800000408020004080400040806000408080004080A0004080C0004080E00040A0000040A0200040A0400040A0600040A0800040A0A00040A0C00040A0E00040C0000040C0200040C0400040C0600040C08000
310
40C0A00040C0C00040C0E00040E0000040E0200040E0400040E0600040E0800040E0A00040E0C00040E0E00080000000800020008000400080006000800080008000A0008000C0008000E00080200000802020008020400080206000802080008020A0008020C0008020E00080400000804020008040400080406000804080
310
008040A0008040C0008040E00080600000806020008060400080606000806080008060A0008060C0008060E00080800000808020008080400080806000808080008080A0008080C0008080E00080A0000080A0200080A0400080A0600080A0800080A0A00080A0C00080A0E00080C0000080C0200080C0400080C0600080C0
310
800080C0A00080C0C00080C0E00080E0000080E0200080E0400080E0600080E0800080E0A00080E0C00080E0E000C0000000C0002000C0004000C0006000C0008000C000A000C000C000C000E000C0200000C0202000C0204000C0206000C0208000C020A000C020C000C020E000C0400000C0402000C0404000C0406000C0
310
408000C040A000C040C000C040E000C0600000C0602000C0604000C0606000C0608000C060A000C060C000C060E000C0800000C0802000C0804000C0806000C0808000C080A000C080C000C080E000C0A00000C0A02000C0A04000C0A06000C0A08000C0A0A000C0A0C000C0A0E000C0C00000C0C02000C0C04000C0C06000
310
C0C08000C0C0A000F0FBFF00A4A0A000808080000000FF0000FF000000FFFF00FF000000FF00FF00FFFF0000FFFFFF004949494949494949494949494949494949494949494949494949494949494949494949494949FFFF49494949494949494949494949494949FFFF494949494949494949494949FFFFFFFFFFFFFFFFFF
310
FFFFFFFFFFFFFFFFFFFFFF494949494949494949494949FFFF4949494949494949FF4949494949494949FF49494949494949494949494949FF4949494949494949494949494949494949FF49494949494949494949494949FF4949494949494949494949494949494949FF49494949494949494949494949FF494949494949
310
4949494949494949494949FF49494949494949494949494949FF4949494949494949494949494949494949FF49494949494949494949494949FF4949494949494949494949494949494949FF49494949494949494949494949FF4949494949494949494949494949494949FF49494949494949494949494949FF4949494949
310
494949494949494949494949FF49494949494949494949494949FF4949494949494949494949494949494949FF49494949494949494949494949FF4949494949494949494949494949494949FF49494949494949494949494949FF4949494949494949494949494949494949FF49494949494949494949494949FF49494949
310
49494949494949494949494949FF49494949494949494949494949FF4949494949494949494949494949494949FF49494949494949494949494949FFFF494949494949494949494949494949FFFF49494949494949494949494949FF4949494949494949494949494949494949FF49494949494949494949494949FF494949
310
4949494949494949494949494949FF49494949494949494949494949FF4949494949494949494949494949494949FF49494949494949494949494949FF4949494949494949494949494949494949FF49494949494949494949494949FF4949494949494949494949494949494949FF49494949494949494949494949FF4949
310
494949494949494949494949494949FF49494949494949494949494949FF4949494949494949494949494949494949FF49494949494949494949494949FF4949494949494949494949494949494949FF49494949494949494949494949FF4949494949494949494949494949494949FF49494949494949494949494949FF49
310
49494949494949494949494949494949FF49494949494949494949494949FF4949494949494949494949494949494949FF494949494949494949494949FFFF4949494949494949FF4949494949494949FF494949494949494949494949FFFFFFFFFFFFFFFFFFFFFFFFFFFFFFFFFFFFFFFF494949494949494949494949FFFF
310
49494949494949494949494949494949FFFF4949494949494949494949494949494949494949494949494949494949494949494949494949
102
{BLKREFS
331
14B
102
}
 70
     4
280
     1
281
     0
1001
AcDbDynamicBlockGUID
1000
{30EDA5F0-D6FB-C340-B770-9DBB5438D37F}
  0
BLOCK_RECORD
  5
163
102
{ACAD_XDICTIONARY
360
164
102
}
330
1
100
AcDbSymbolTableRecord
100
AcDbBlockTableRecord
  2
ISO_TITLEBLOCK
340
0
310
2800000020000000200000000100080000000000000400000000000000000000000000000000000000000000000080000080000000808000800000008000800080800000C0C0C000C0DCC000F0CAA6000020400000206000002080000020A0000020C0000020E00000400000004020000040400000406000004080000040A0
310
000040C0000040E00000600000006020000060400000606000006080000060A0000060C0000060E00000800000008020000080400000806000008080000080A0000080C0000080E00000A0000000A0200000A0400000A0600000A0800000A0A00000A0C00000A0E00000C0000000C0200000C0400000C0600000C0800000C0
310
A00000C0C00000C0E00000E0000000E0200000E0400000E0600000E0800000E0A00000E0C00000E0E00040000000400020004000400040006000400080004000A0004000C0004000E00040200000402020004020400040206000402080004020A0004020C0004020E000404000004040200040404000404060004040800040
310
40A0004040C0004040E00040600000406020004060400040606000406080004060A0004060C0004060E00040800000408020004080400040806000408080004080A0004080C0004080E00040A0000040A0200040A0400040A0600040A0800040A0A00040A0C00040A0E00040C0000040C0200040C0400040C0600040C08000
310
40C0A00040C0C00040C0E00040E0000040E0200040E0400040E0600040E0800040E0A00040E0C00040E0E00080000000800020008000400080006000800080008000A0008000C0008000E00080200000802020008020400080206000802080008020A0008020C0008020E00080400000804020008040400080406000804080
310
008040A0008040C0008040E00080600000806020008060400080606000806080008060A0008060C0008060E00080800000808020008080400080806000808080008080A0008080C0008080E00080A0000080A0200080A0400080A0600080A0800080A0A00080A0C00080A0E00080C0000080C0200080C0400080C0600080C0
310
800080C0A00080C0C00080C0E00080E0000080E0200080E0400080E0600080E0800080E0A00080E0C00080E0E000C0000000C0002000C0004000C0006000C0008000C000A000C000C000C000E000C0200000C0202000C0204000C0206000C0208000C020A000C020C000C020E000C0400000C0402000C0404000C0406000C0
310
408000C040A000C040C000C040E000C0600000C0602000C0604000C0606000C0608000C060A000C060C000C060E000C0800000C0802000C0804000C0806000C0808000C080A000C080C000C080E000C0A00000C0A02000C0A04000C0A06000C0A08000C0A0A000C0A0C000C0A0E000C0C00000C0C02000C0C04000C0C06000
310
C0C08000C0C0A000F0FBFF00A4A0A000808080000000FF0000FF000000FFFF00FF000000FF00FF00FFFF0000FFFFFF0049494949494949494949494949494949494949494949494949494949494949494949494949494949494949494949494949494949494949494949494949494949494949494949494949494949494949
310
49494949494949494949494949494949494949494949494949494949494949494949494949494949494949494949494949494949494949494949494949494949494949494949494949494949494949494949494949494949494949494949494949494949494949494949494949494949494949494949494949494949494949
310
49494949494949494949494949494949494949494949494949494949494949494949494949494949494949494949494949494949494949494949494949494949494949494949494949494949494949494949494949494949494949494949494949494949494949494949494949494949494949494949494949494949494949
310
49494949494949494949494949494949494949494949494949494949494949494949494949494949494949494949494949494949FFFFFFFFFFFFFFFFFFFFFFFFFFFFFFFFFFFFFFFFFFFFFFFFFFFFFF4949494949FF4949494949494949FFFFFFFFFF49494949FFFFFFFFFFFFFFFFFFFF49494949FF4949494949494949FFFF
310
FFFFFF494949FFFFFFFFFFFFFFFFFFFF4949494949FF4949494949494949FFFFFFFFFF494949FFFFFFFFFFFFFFFFFFFF4949494949FF4949494949494949FFFFFFFFFFFFFFFFFFFFFFFFFFFFFFFFFFFF4949494949FFFFFFFFFFFFFFFFFFFFFFFFFFFFFFFFFFFFFFFFFFFFFFFFFFFFFF4949494949FFFFFF49FFFFFFFFFFFF
310
FFFFFFFFFFFFFFFFFFFFFFFFFFFFFFFFFFFFFFFF4949FFFFFFFFFFFFFFFFFFFFFFFFFFFFFFFFFFFFFFFFFFFFFFFFFFFFFF494949494949494949494949494949494949494949494949494949494949494949494949494949494949494949494949494949494949494949494949494949494949494949494949494949494949
310
49494949494949494949494949494949494949494949494949494949494949494949494949494949494949494949494949494949494949494949494949494949494949494949494949494949494949494949494949494949494949494949494949494949494949494949494949494949494949494949494949494949494949
310
49494949494949494949494949494949494949494949494949494949494949494949494949494949494949494949494949494949494949494949494949494949494949494949494949494949494949494949494949494949494949494949494949494949494949494949494949494949494949494949494949494949494949
310
4949494949494949494949494949494949494949494949494949494949494949494949494949494949494949494949494949494949494949
102
{BLKREFS
331
161
102
}
 70
     4
280
     1
281
     0
1001
AcDbDynamicBlockGUID
1000
{BCD52D05-323A-B54A-8A21-1B84008CF9CB}
1001
FUSIONTITLEBLOCK
1000
TitleBlock
  0
BLOCK_RECORD
  5
1AF
330
1
100
AcDbSymbolTableRecord
100
AcDbBlockTableRecord
  2
*U7
340
0
102
{BLKREFS
331
1AD
102
}
 70
     0
280
     1
281
     0
  0
BLOCK_RECORD
  5
1BA
330
1
100
AcDbSymbolTableRecord
100
AcDbBlockTableRecord
  2
*D8
340
0
 70
     0
280
     1
281
     0
  0
BLOCK_RECORD
  5
1C6
330
1
100
AcDbSymbolTableRecord
100
AcDbBlockTableRecord
  2
*U9
340
0
102
{BLKREFS
331
1C5
102
}
 70
     0
280
     1
281
     0
  0
BLOCK_RECORD
  5
1D0
330
1
100
AcDbSymbolTableRecord
100
AcDbBlockTableRecord
  2
*U10
340
0
102
{BLKREFS
331
1CF
102
}
 70
     0
280
     1
281
     0
  0
BLOCK_RECORD
  5
1D5
330
1
100
AcDbSymbolTableRecord
100
AcDbBlockTableRecord
  2
*D11
340
0
 70
     0
280
     1
281
     0
  0
BLOCK_RECORD
  5
1E4
330
1
100
AcDbSymbolTableRecord
100
AcDbBlockTableRecord
  2
*D12
340
0
 70
     0
280
     1
281
     0
  0
BLOCK_RECORD
  5
1F1
330
1
100
AcDbSymbolTableRecord
100
AcDbBlockTableRecord
  2
*D13
340
0
 70
     0
280
     1
281
     0
  0
BLOCK_RECORD
  5
1FE
330
1
100
AcDbSymbolTableRecord
100
AcDbBlockTableRecord
  2
*D14
340
0
 70
     0
280
     1
281
     0
  0
BLOCK_RECORD
  5
20B
330
1
100
AcDbSymbolTableRecord
100
AcDbBlockTableRecord
  2
*D15
340
0
 70
     0
280
     1
281
     0
  0
BLOCK_RECORD
  5
218
330
1
100
AcDbSymbolTableRecord
100
AcDbBlockTableRecord
  2
*D16
340
0
 70
     0
280
     1
281
     0
  0
BLOCK_RECORD
  5
223
330
1
100
AcDbSymbolTableRecord
100
AcDbBlockTableRecord
  2
*D17
340
0
 70
     0
280
     1
281
     0
  0
BLOCK_RECORD
  5
231
330
1
100
AcDbSymbolTableRecord
100
AcDbBlockTableRecord
  2
*D18
340
0
 70
     0
280
     1
281
     0
  0
BLOCK_RECORD
  5
23D
330
1
100
AcDbSymbolTableRecord
100
AcDbBlockTableRecord
  2
*D19
340
0
 70
     0
280
     1
281
     0
  0
BLOCK_RECORD
  5
249
330
1
100
AcDbSymbolTableRecord
100
AcDbBlockTableRecord
  2
*D20
340
0
 70
     0
280
     1
281
     0
  0
BLOCK_RECORD
  5
255
330
1
100
AcDbSymbolTableRecord
100
AcDbBlockTableRecord
  2
*D21
340
0
 70
     0
280
     1
281
     0
  0
ENDTAB
  0
ENDSEC
  0
SECTION
  2
BLOCKS
  0
BLOCK
  5
71
330
70
100
AcDbEntity
  8
0
100
AcDbBlockBegin
  2
*Model_Space
 70
     0
 10
0.0
 20
0.0
 30
0.0
  3
*Model_Space
  1

  0
ENDBLK
  5
72
330
70
100
AcDbEntity
  8
0
100
AcDbBlockEnd
  0
BLOCK
  5
6D
330
6C
100
AcDbEntity
 67
     1
  8
0
100
AcDbBlockBegin
  2
*Paper_Space
 70
     0
 10
0.0
 20
0.0
 30
0.0
  3
*Paper_Space
  1

  0
ENDBLK
  5
6E
330
6C
100
AcDbEntity
 67
     1
  8
0
100
AcDbBlockEnd
  0
BLOCK
  5
75
330
74
100
AcDbEntity
 67
     1
  8
0
100
AcDbBlockBegin
  2
*Paper_Space0
 70
     0
 10
0.0
 20
0.0
 30
0.0
  3
*Paper_Space0
  1

  0
ENDBLK
  5
76
330
74
100
AcDbEntity
 67
     1
  8
0
100
AcDbBlockEnd
  0
BLOCK
  5
150
330
14D
100
AcDbEntity
  8
0
100
AcDbBlockBegin
  2
ISO_A4(P)_SHEET
 70
     0
 10
0.0
 20
0.0
 30
0.0
  3
ISO_A4(P)_SHEET
  1

  0
LINE
  5
151
330
14D
100
AcDbEntity
  8
Defpoints
100
AcDbLine
 10
0.0
 20
0.0
 30
0.0
 11
15.0
 21
0.0
 31
0.0
  0
LINE
  5
152
330
14D
100
AcDbEntity
  8
Defpoints
100
AcDbLine
 10
195.0
 20
0.0
 30
0.0
 11
210.0
 21
0.0
 31
0.0
  0
LINE
  5
153
330
14D
100
AcDbEntity
  8
BORDER
100
AcDbLine
 10
20.0
 20
10.0
 30
0.0
 11
200.0
 21
10.0
 31
0.0
  0
LINE
  5
154
330
14D
100
AcDbEntity
  8
Defpoints
100
AcDbLine
 10
210.0
 20
0.0
 30
0.0
 11
210.0
 21
15.0
 31
0.0
  0
LINE
  5
155
330
14D
100
AcDbEntity
  8
Defpoints
100
AcDbLine
 10
210.0
 20
282.0
 30
0.0
 11
210.0
 21
297.0
 31
0.0
  0
LINE
  5
156
330
14D
100
AcDbEntity
  8
Defpoints
100
AcDbLine
 10
210.0
 20
297.0
 30
0.0
 11
195.0
 21
297.0
 31
0.0
  0
LINE
  5
157
330
14D
100
AcDbEntity
  8
Defpoints
100
AcDbLine
 10
15.0
 20
297.0
 30
0.0
 11
0.0
 21
297.0
 31
0.0
  0
LINE
  5
158
330
14D
100
AcDbEntity
  8
BORDER
100
AcDbLine
 10
200.0
 20
287.0
 30
0.0
 11
20.0
 21
287.0
 31
0.0
  0
LINE
  5
159
330
14D
100
AcDbEntity
  8
Defpoints
100
AcDbLine
 10
0.0
 20
297.0
 30
0.0
 11
0.0
 21
282.0
 31
0.0
  0
LINE
  5
15A
330
14D
100
AcDbEntity
  8
Defpoints
100
AcDbLine
 10
0.0
 20
15.0
 30
0.0
 11
0.0
 21
0.0
 31
0.0
  0
LINE
  5
15B
330
14D
100
AcDbEntity
  8
BORDER
100
AcDbLine
 10
20.0
 20
287.0
 30
0.0
 11
20.0
 21
10.0
 31
0.0
  0
LINE
  5
15C
330
14D
100
AcDbEntity
  8
BORDER
100
AcDbLine
 10
200.0
 20
287.0
 30
0.0
 11
200.0
 21
10.0
 31
0.0
  0
LINE
  5
15D
330
14D
100
AcDbEntity
  8
BORDER
100
AcDbLine
 10
110.0
 20
292.0
 30
0.0
 11
110.0
 21
282.0
 31
0.0
  0
LINE
  5
15E
330
14D
100
AcDbEntity
  8
BORDER
100
AcDbLine
 10
15.0
 20
148.5
 30
0.0
 11
25.0
 21
148.5
 31
0.0
  0
LINE
  5
15F
330
14D
100
AcDbEntity
  8
BORDER
100
AcDbLine
 10
205.0
 20
148.5
 30
0.0
 11
195.0
 21
148.5
 31
0.0
  0
ENDBLK
  5
160
330
14D
100
AcDbEntity
  8
0
100
AcDbBlockEnd
  0
BLOCK
  5
166
330
163
100
AcDbEntity
  8
0
100
AcDbBlockBegin
  2
ISO_TITLEBLOCK
 70
     2
 10
0.0
 20
0.0
 30
0.0
  3
ISO_TITLEBLOCK
  1

  0
LINE
  5
167
330
163
100
AcDbEntity
  8
TITLEBLOCK
100
AcDbLine
 10
-180.0
 20
0.0
 30
0.0
 11
0.0
 21
0.0
 31
0.0
  0
LINE
  5
168
330
163
100
AcDbEntity
  8
TITLEBLOCK
100
AcDbLine
 10
-61.0
 20
10.0
 30
0.0
 11
0.0
 21
10.0
 31
0.0
  0
LINE
  5
169
330
163
100
AcDbEntity
  8
TITLEBLOCK
100
AcDbLine
 10
-122.0
 20
27.0
 30
0.0
 11
0.0
 21
27.0
 31
0.0
  0
LINE
  5
16A
330
163
100
AcDbEntity
  8
TITLEBLOCK
100
AcDbLine
 10
-180.0
 20
37.0
 30
0.0
 11
0.0
 21
37.0
 31
0.0
  0
LINE
  5
16B
330
163
100
AcDbEntity
  8
TITLEBLOCK
100
AcDbLine
 10
0.0
 20
0.0
 30
0.0
 11
0.0
 21
47.0
 31
0.0
  0
LINE
  5
16C
330
163
100
AcDbEntity
  8
TITLEBLOCK
100
AcDbLine
 10
-15.0
 20
0.0
 30
0.0
 11
-15.0
 21
10.0
 31
0.0
  0
LINE
  5
16D
330
163
100
AcDbEntity
  8
TITLEBLOCK
100
AcDbLine
 10
-51.0
 20
0.0
 30
0.0
 11
-51.0
 21
10.0
 31
0.0
  0
LINE
  5
16E
330
163
100
AcDbEntity
  8
TITLEBLOCK
100
AcDbLine
 10
-61.0
 20
0.0
 30
0.0
 11
-61.0
 21
47.0
 31
0.0
  0
LINE
  5
16F
330
163
100
AcDbEntity
  8
TITLEBLOCK
100
AcDbLine
 10
-122.0
 20
0.0
 30
0.0
 11
-122.0
 21
47.0
 31
0.0
  0
LINE
  5
170
330
163
100
AcDbEntity
  8
TITLEBLOCK
100
AcDbLine
 10
-156.0
 20
37.0
 30
0.0
 11
-156.0
 21
47.0
 31
0.0
  0
LINE
  5
171
330
163
100
AcDbEntity
  8
TITLEBLOCK
100
AcDbLine
 10
0.0
 20
47.0
 30
0.0
 11
-180.0
 21
47.0
 31
0.0
  0
LINE
  5
172
330
163
100
AcDbEntity
  8
TITLEBLOCK
100
AcDbLine
 10
-180.0
 20
47.0
 30
0.0
 11
-180.0
 21
0.0
 31
0.0
  0
TEXT
  5
173
330
163
100
AcDbEntity
  8
TITLEBLOCK
100
AcDbText
 10
-179.0
 20
44.2
 30
0.0
 40
1.8
  1
Dept.
  7
FusionTitle
 11
-179.0
 21
46.0
 31
0.0
100
AcDbText
 73
     3
  0
TEXT
  5
174
330
163
100
AcDbEntity
  8
TITLEBLOCK
100
AcDbText
 10
-155.0
 20
44.2
 30
0.0
 40
1.8
  1
Technical reference
  7
FusionTitle
 11
-155.0
 21
46.0
 31
0.0
100
AcDbText
 73
     3
  0
TEXT
  5
175
330
163
100
AcDbEntity
  8
TITLEBLOCK
100
AcDbText
 10
-121.0
 20
44.2
 30
0.0
 40
1.8
  1
Created by
  7
FusionTitle
 11
-121.0
 21
46.0
 31
0.0
100
AcDbText
 73
     3
  0
TEXT
  5
176
330
163
100
AcDbEntity
  8
TITLEBLOCK
100
AcDbText
 10
-60.0
 20
44.2
 30
0.0
 40
1.8
  1
Approved by
  7
FusionTitle
 11
-60.0
 21
46.0
 31
0.0
100
AcDbText
 73
     3
  0
TEXT
  5
177
330
163
100
AcDbEntity
  8
TITLEBLOCK
100
AcDbText
 10
-121.0
 20
34.2
 30
0.0
 40
1.8
  1
Document type
  7
FusionTitle
 11
-121.0
 21
36.0
 31
0.0
100
AcDbText
 73
     3
  0
TEXT
  5
178
330
163
100
AcDbEntity
  8
TITLEBLOCK
100
AcDbText
 10
-60.0
 20
34.2
 30
0.0
 40
1.8
  1
Document status
  7
FusionTitle
 11
-60.0
 21
36.0
 31
0.0
100
AcDbText
 73
     3
  0
TEXT
  5
179
330
163
100
AcDbEntity
  8
TITLEBLOCK
100
AcDbText
 10
-121.0
 20
24.2
 30
0.0
 40
1.8
  1
Title
  7
FusionTitle
 11
-121.0
 21
26.0
 31
0.0
100
AcDbText
 73
     3
  0
TEXT
  5
17A
330
163
100
AcDbEntity
  8
TITLEBLOCK
100
AcDbText
 10
-60.0
 20
24.2
 30
0.0
 40
1.8
  1
DWG No.
  7
FusionTitle
 11
-60.0
 21
26.0
 31
0.0
100
AcDbText
 73
     3
  0
TEXT
  5
17B
330
163
100
AcDbEntity
  8
TITLEBLOCK
100
AcDbText
 10
-60.0
 20
7.2
 30
0.0
 40
1.8
  1
Rev.
  7
FusionTitle
 11
-60.0
 21
9.0
 31
0.0
100
AcDbText
 73
     3
  0
TEXT
  5
17C
330
163
100
AcDbEntity
  8
TITLEBLOCK
100
AcDbText
 10
-50.0
 20
7.2
 30
0.0
 40
1.8
  1
Date of issue
  7
FusionTitle
 11
-50.0
 21
9.0
 31
0.0
100
AcDbText
 73
     3
  0
TEXT
  5
17D
330
163
100
AcDbEntity
  8
TITLEBLOCK
100
AcDbText
 10
-14.0
 20
7.2
 30
0.0
 40
1.8
  1
Sheet
  7
FusionTitle
 11
-14.0
 21
9.0
 31
0.0
100
AcDbText
 73
     3
  0
ATTDEF
  5
17E
102
{ACAD_XDICTIONARY
360
17F
102
}
330
163
100
AcDbEntity
  8
TITLEBLOCK
100
AcDbText
 10
-50.0
 20
1.5
 30
0.0
 40
3.5
  1

  7
FusionTitle
 11
-50.0
 21
5.0
 31
0.0
100
AcDbAttributeDefinition
280
     0
  3
Date of issue
  2
DATE_OF_ISSUE
 70
     0
 74
     3
280
     1
  0
ATTDEF
  5
180
102
{ACAD_XDICTIONARY
360
181
102
}
330
163
100
AcDbEntity
  8
TITLEBLOCK
100
AcDbText
 10
-61.026774
 20
1.35
 30
0.0
 40
3.5
  1

  7
FusionTitle
 72
     1
 11
-56.0
 21
4.85
 31
0.0
100
AcDbAttributeDefinition
280
     0
  3
Revision
  2
REV
 70
     0
 74
     3
280
     1
  0
ATTDEF
  5
182
102
{ACAD_XDICTIONARY
360
183
102
}
330
163
100
AcDbEntity
  8
TITLEBLOCK
100
AcDbText
 10
-121.0
 20
1.5
 30
0.0
 40
5.0
  1

  7
FusionTitle
 11
-121.0
 21
6.5
 31
0.0
100
AcDbAttributeDefinition
280
     0
  3
3rd Title
  2
TITLE_3
 70
     0
 74
     3
280
     1
  0
ATTDEF
  5
184
102
{ACAD_XDICTIONARY
360
185
102
}
330
163
100
AcDbEntity
  8
TITLEBLOCK
100
AcDbText
 10
-60.0
 20
28.5
 30
0.0
 40
3.5
  1

  7
FusionTitle
 11
-60.0
 21
32.0
 31
0.0
100
AcDbAttributeDefinition
280
     0
  3
Document status
  2
DOCUMENT_STATUS
 70
     0
 74
     3
280
     1
  0
ATTDEF
  5
186
102
{ACAD_XDICTIONARY
360
187
102
}
330
163
100
AcDbEntity
  8
TITLEBLOCK
100
AcDbText
 10
-121.0
 20
28.5
 30
0.0
 40
3.5
  1

  7
FusionTitle
 11
-121.0
 21
32.0
 31
0.0
100
AcDbAttributeDefinition
280
     0
  3
Document type
  2
DOCUMENT_TYPE
 70
     0
 74
     3
280
     1
  0
ATTDEF
  5
188
102
{ACAD_XDICTIONARY
360
189
102
}
330
163
100
AcDbEntity
  8
TITLEBLOCK
100
AcDbText
 10
-43.923943
 20
38.5
 30
0.0
 40
3.5
  1

  7
FusionTitle
 72
     2
 11
-0.992838
 21
42.0
 31
0.0
100
AcDbAttributeDefinition
280
     0
  3
Approved date
  2
APPROVED_DATE
 70
     0
 74
     3
280
     1
  0
ATTDEF
  5
18A
102
{ACAD_XDICTIONARY
360
18B
102
}
330
163
100
AcDbEntity
  8
TITLEBLOCK
100
AcDbText
 10
-101.123124
 20
38.5
 30
0.0
 40
3.5
  1

  7
FusionTitle
 72
     2
 11
-62.0
 21
42.0
 31
0.0
100
AcDbAttributeDefinition
280
     0
  3
Created date
  2
CREATED_DATE
 70
     0
 74
     3
280
     1
  0
ATTDEF
  5
18C
102
{ACAD_XDICTIONARY
360
18D
102
}
330
163
100
AcDbEntity
  8
TITLEBLOCK
100
AcDbText
 10
-15.65075
 20
1.35
 30
0.0
 40
3.5
  1

  7
FusionTitle
 72
     1
 11
-7.5
 21
4.85
 31
0.0
100
AcDbAttributeDefinition
280
     0
  3
Sheet
  2
SHEET
 70
     0
 74
     3
280
     1
  0
ATTDEF
  5
18E
102
{ACAD_XDICTIONARY
360
18F
102
}
330
163
100
AcDbEntity
  8
TITLEBLOCK
100
AcDbText
 10
-121.0
 20
9.0
 30
0.0
 40
5.0
  1

  7
FusionTitle
 11
-121.0
 21
14.0
 31
0.0
100
AcDbAttributeDefinition
280
     0
  3
2nd Title
  2
TITLE_2
 70
     0
 74
     3
280
     1
  0
ATTDEF
  5
190
102
{ACAD_XDICTIONARY
360
191
102
}
330
163
100
AcDbEntity
  8
TITLEBLOCK
100
AcDbText
 10
-64.456344
 20
14.751432
 30
0.0
 40
5.0
  1

  7
FusionTitle
 72
     1
 11
-30.5
 21
19.751432
 31
0.0
100
AcDbAttributeDefinition
280
     0
  3
Drawing number
  2
DRAWING_NUMBER
 70
     0
 74
     3
280
     1
  0
ATTDEF
  5
192
102
{ACAD_XDICTIONARY
360
193
102
}
330
163
100
AcDbEntity
  8
TITLEBLOCK
100
AcDbText
 10
-121.0
 20
16.5
 30
0.0
 40
5.0
  1

  7
FusionTitle
 11
-121.0
 21
21.5
 31
0.0
100
AcDbAttributeDefinition
280
     0
  3
1st Title
  2
TITLE_1
 70
     0
 74
     3
280
     1
  0
ATTDEF
  5
194
102
{ACAD_XDICTIONARY
360
195
102
}
330
163
100
AcDbEntity
  8
TITLEBLOCK
100
AcDbText
 10
-60.0
 20
38.5
 30
0.0
 40
3.5
  1

  7
FusionTitle
 11
-60.0
 21
42.0
 31
0.0
100
AcDbAttributeDefinition
280
     0
  3
Approved by
  2
APPROVED_BY
 70
     0
 74
     3
280
     1
  0
ATTDEF
  5
196
102
{ACAD_XDICTIONARY
360
197
102
}
330
163
100
AcDbEntity
  8
TITLEBLOCK
100
AcDbText
 10
-121.0
 20
38.5
 30
0.0
 40
3.5
  1

  7
FusionTitle
 11
-121.0
 21
42.0
 31
0.0
100
AcDbAttributeDefinition
280
     0
  3
Created by
  2
CREATED_BY
 70
     0
 74
     3
280
     1
  0
ATTDEF
  5
198
102
{ACAD_XDICTIONARY
360
199
102
}
330
163
100
AcDbEntity
  8
TITLEBLOCK
100
AcDbText
 10
-155.0
 20
38.5
 30
0.0
 40
3.5
  1

  7
FusionTitle
 11
-155.0
 21
42.0
 31
0.0
100
AcDbAttributeDefinition
280
     0
  3
Technical reference
  2
TECHNICAL_REFERENCE
 70
     0
 74
     3
280
     1
  0
ATTDEF
  5
19A
102
{ACAD_XDICTIONARY
360
19B
102
}
330
163
100
AcDbEntity
  8
TITLEBLOCK
100
AcDbText
 10
-179.0
 20
38.5
 30
0.0
 40
3.5
  1

  7
FusionTitle
 11
-179.0
 21
42.0
 31
0.0
100
AcDbAttributeDefinition
280
     0
  3
Department
  2
DEPT
 70
     0
 74
     3
280
     1
  0
ENDBLK
  5
19C
330
163
100
AcDbEntity
  8
0
100
AcDbBlockEnd
  0
BLOCK
  5
1B0
330
1AF
100
AcDbEntity
  8
0
100
AcDbBlockBegin
  2
*U7
 70
     1
 10
0.0
 20
0.0
 30
0.0
  3
*U7
  1

  0
LINE
  5
1B1
330
1AF
100
AcDbEntity
  8
Smart Centers
  6
Continuous
 62
     0
440
 16777216
 48
0.75
100
AcDbLine
 10
-0.892969
 20
0.0
 30
0.0
 11
0.892969
 21
0.0
 31
0.0
  0
LINE
  5
1B2
330
1AF
100
AcDbEntity
  8
Smart Centers
  6
Continuous
 62
     0
440
 16777216
 48
0.75
100
AcDbLine
 10
0.0
 20
-0.892969
 30
0.0
 11
0.0
 21
0.892969
 31
0.0
  0
LINE
  5
1B3
330
1AF
100
AcDbEntity
  8
Smart Centers
 62
     0
440
 16777216
 48
0.75
100
AcDbLine
 10
-18.25
 20
0.0
 30
0.0
 11
-2.678906
 21
0.0
 31
0.0
  0
LINE
  5
1B4
330
1AF
100
AcDbEntity
  8
Smart Centers
 62
     0
440
 16777216
 48
0.75
100
AcDbLine
 10
2.678906
 20
0.0
 30
0.0
 11
18.25
 21
0.0
 31
0.0
  0
LINE
  5
1B5
330
1AF
100
AcDbEntity
  8
Smart Centers
 62
     0
440
 16777216
 48
0.75
100
AcDbLine
 10
0.0
 20
-18.25
 30
0.0
 11
0.0
 21
-2.678906
 31
0.0
  0
LINE
  5
1B6
330
1AF
100
AcDbEntity
  8
Smart Centers
 62
     0
440
 16777216
 48
0.75
100
AcDbLine
 10
0.0
 20
2.678906
 30
0.0
 11
0.0
 21
18.25
 31
0.0
  0
ENDBLK
  5
1B7
330
1AF
100
AcDbEntity
  8
0
100
AcDbBlockEnd
  0
BLOCK
  5
1BB
330
1BA
100
AcDbEntity
  8
0
100
AcDbBlockBegin
  2
*D8
 70
     1
 10
0.0
 20
0.0
 30
0.0
  3
*D8
  1

  0
LINE
  5
1BC
330
1BA
100
AcDbEntity
  8
FD_Dimensions
 62
     0
440
 16777216
370
    -2
100
AcDbLine
 10
182.409261
 20
132.416894
 30
0.0
 11
166.439202
 21
127.574177
 31
0.0
  0
LINE
  5
1BD
330
1BA
100
AcDbEntity
  8
FD_Dimensions
 62
     0
440
 16777216
370
    -2
100
AcDbLine
 10
153.9986
 20
123.801722
 30
0.0
 11
150.649207
 21
122.786061
 31
0.0
  0
MTEXT
  5
1BE
330
1BA
100
AcDbEntity
  8
FD_Dimensions
 62
     0
440
 16777216
100
AcDbMText
 10
177.197542
 20
134.269104
 30
0.0
 40
3.5
 41
0.0
 46
0.0
 71
     5
 72
     1
  1
∅6
 11
0.956969
 21
0.290189
 31
0.0
 73
     1
 44
1.0
  0
LINE
  5
1BF
330
1BA
100
AcDbEntity
  8
FD_Dimensions
 62
     0
440
 16777216
370
    -2
100
AcDbLine
 10
157.347993
 20
124.817383
 30
0.0
 11
163.089809
 21
126.558516
 31
0.0
  0
SOLID
  5
1C0
330
1BA
100
AcDbEntity
  8
FD_Dimensions
 62
     0
440
 16777216
100
AcDbTrace
 10
153.829323
 20
124.359954
 30
0.0
 11
154.167877
 21
123.24349
 31
0.0
 12
157.347993
 22
124.817383
 32
0.0
 13
157.347993
 23
124.817383
 33
0.0
  0
SOLID
  5
1C1
330
1BA
100
AcDbEntity
  8
FD_Dimensions
 62
     0
440
 16777216
100
AcDbTrace
 10
166.269925
 20
128.132409
 30
0.0
 11
166.608479
 21
127.015945
 31
0.0
 12
163.089809
 22
126.558516
 32
0.0
 13
163.089809
 23
126.558516
 33
0.0
  0
POINT
  5
1C2
330
1BA
100
AcDbEntity
  8
Defpoints
 62
     0
440
 16777216
100
AcDbPoint
 10
163.089809
 20
126.558516
 30
0.0
  0
POINT
  5
1C3
330
1BA
100
AcDbEntity
  8
Defpoints
 62
     0
440
 16777216
100
AcDbPoint
 10
157.347993
 20
124.817383
 30
0.0
  0
ENDBLK
  5
1C4
330
1BA
100
AcDbEntity
  8
0
100
AcDbBlockEnd
  0
BLOCK
  5
1C7
330
1C6
100
AcDbEntity
  8
0
100
AcDbBlockBegin
  2
*U9
 70
     1
 10
0.0
 20
0.0
 30
0.0
  3
*U9
  1

  0
LINE
  5
1C8
330
1C6
100
AcDbEntity
  8
Smart Centers
  6
Continuous
 62
     0
440
 16777216
 48
0.75
100
AcDbLine
 10
-0.892969
 20
0.0
 30
0.0
 11
0.892969
 21
0.0
 31
0.0
  0
LINE
  5
1C9
330
1C6
100
AcDbEntity
  8
Smart Centers
  6
Continuous
 62
     0
440
 16777216
 48
0.75
100
AcDbLine
 10
0.0
 20
-0.892969
 30
0.0
 11
0.0
 21
0.892969
 31
0.0
  0
LINE
  5
1CA
330
1C6
100
AcDbEntity
  8
Smart Centers
 62
     0
440
 16777216
 48
0.75
100
AcDbLine
 10
-6.5
 20
0.0
 30
0.0
 11
-2.678906
 21
0.0
 31
0.0
  0
LINE
  5
1CB
330
1C6
100
AcDbEntity
  8
Smart Centers
 62
     0
440
 16777216
 48
0.75
100
AcDbLine
 10
2.678906
 20
0.0
 30
0.0
 11
6.5
 21
0.0
 31
0.0
  0
LINE
  5
1CC
330
1C6
100
AcDbEntity
  8
Smart Centers
 62
     0
440
 16777216
 48
0.75
100
AcDbLine
 10
0.0
 20
-6.5
 30
0.0
 11
0.0
 21
-2.678906
 31
0.0
  0
LINE
  5
1CD
330
1C6
100
AcDbEntity
  8
Smart Centers
 62
     0
440
 16777216
 48
0.75
100
AcDbLine
 10
0.0
 20
2.678906
 30
0.0
 11
0.0
 21
6.5
 31
0.0
  0
ENDBLK
  5
1CE
330
1C6
100
AcDbEntity
  8
0
100
AcDbBlockEnd
  0
BLOCK
  5
1D1
330
1D0
100
AcDbEntity
  8
0
100
AcDbBlockBegin
  2
*U10
 70
     1
 10
0.0
 20
0.0
 30
0.0
  3
*U10
  1

  0
LINE
  5
1D2
330
1D0
100
AcDbEntity
  8
Smart Centers
 62
     0
440
 16777216
 48
0.75
100
AcDbLine
 10
0.0
 20
-16.330127
 30
0.0
 11
0.0
 21
16.330127
 31
0.0
  0
ENDBLK
  5
1D3
330
1D0
100
AcDbEntity
  8
0
100
AcDbBlockEnd
  0
BLOCK
  5
1D6
330
1D5
100
AcDbEntity
  8
0
100
AcDbBlockBegin
  2
*D11
 70
     1
 10
0.0
 20
0.0
 30
0.0
  3
*D11
  1

  0
LINE
  5
1D7
330
1D5
100
AcDbEntity
  8
FD_Dimensions
 62
     0
440
 16777216
370
    -2
100
AcDbLine
 10
158.118901
 20
125.687949
 30
0.0
 11
140.173969
 21
125.687949
 31
0.0
  0
LINE
  5
1D8
330
1D5
100
AcDbEntity
  8
FD_Dimensions
 62
     0
440
 16777216
370
    -2
100
AcDbLine
 10
148.118901
 20
117.687949
 30
0.0
 11
140.173969
 21
117.687949
 31
0.0
  0
LINE
  5
1D9
330
1D5
100
AcDbEntity
  8
FD_Dimensions
 62
     0
440
 16777216
370
    -2
100
AcDbLine
 10
142.273969
 20
129.187949
 30
0.0
 11
142.273969
 21
132.687949
 31
0.0
  0
LINE
  5
1DA
330
1D5
100
AcDbEntity
  8
FD_Dimensions
 62
     0
440
 16777216
370
    -2
100
AcDbLine
 10
142.273969
 20
114.187949
 30
0.0
 11
142.273969
 21
110.687949
 31
0.0
  0
LINE
  5
1DB
330
1D5
100
AcDbEntity
  8
FD_Dimensions
 62
     0
440
 16777216
370
    -2
100
AcDbLine
 10
142.273969
 20
125.687949
 30
0.0
 11
142.273969
 21
117.687949
 31
0.0
  0
SOLID
  5
1DC
330
1D5
100
AcDbEntity
  8
FD_Dimensions
 62
     0
440
 16777216
100
AcDbTrace
 10
141.690635
 20
129.187949
 30
0.0
 11
142.857302
 21
129.187949
 31
0.0
 12
142.273969
 22
125.687949
 32
0.0
 13
142.273969
 23
125.687949
 33
0.0
  0
SOLID
  5
1DD
330
1D5
100
AcDbEntity
  8
FD_Dimensions
 62
     0
440
 16777216
100
AcDbTrace
 10
141.690635
 20
114.187949
 30
0.0
 11
142.857302
 21
114.187949
 31
0.0
 12
142.273969
 22
117.687949
 32
0.0
 13
142.273969
 23
117.687949
 33
0.0
  0
MTEXT
  5
1DE
330
1D5
100
AcDbEntity
  8
FD_Dimensions
 62
     0
440
 16777216
100
AcDbMText
 10
139.086963
 20
121.687949
 30
0.0
 40
3.5
 41
0.0
 46
0.0
 71
     5
 72
     1
  1
8
 11
0.0
 21
1.0
 31
0.0
 73
     1
 44
1.0
  0
POINT
  5
1DF
330
1D5
100
AcDbEntity
  8
Defpoints
 62
     0
440
 16777216
100
AcDbPoint
 10
160.218901
 20
125.687949
 30
0.0
  0
POINT
  5
1E0
330
1D5
100
AcDbEntity
  8
Defpoints
 62
     0
440
 16777216
100
AcDbPoint
 10
150.218901
 20
117.687949
 30
0.0
  0
POINT
  5
1E1
330
1D5
100
AcDbEntity
  8
Defpoints
 62
     0
440
 16777216
100
AcDbPoint
 10
142.273969
 20
117.687949
 30
0.0
  0
ENDBLK
  5
1E2
330
1D5
100
AcDbEntity
  8
0
100
AcDbBlockEnd
  0
BLOCK
  5
1E5
330
1E4
100
AcDbEntity
  8
0
100
AcDbBlockBegin
  2
*D12
 70
     1
 10
0.0
 20
0.0
 30
0.0
  3
*D12
  1

  0
LINE
  5
1E6
330
1E4
100
AcDbEntity
  8
FD_Dimensions
 62
     0
440
 16777216
370
    -2
100
AcDbLine
 10
58.94716
 20
228.931481
 30
0.0
 11
46.744913
 21
228.931481
 31
0.0
  0
LINE
  5
1E7
330
1E4
100
AcDbEntity
  8
FD_Dimensions
 62
     0
440
 16777216
370
    -2
100
AcDbLine
 10
58.94716
 20
198.931481
 30
0.0
 11
46.744913
 21
198.931481
 31
0.0
  0
LINE
  5
1E8
330
1E4
100
AcDbEntity
  8
FD_Dimensions
 62
     0
440
 16777216
370
    -2
100
AcDbLine
 10
48.844913
 20
225.431481
 30
0.0
 11
48.844913
 21
202.431481
 31
0.0
  0
SOLID
  5
1E9
330
1E4
100
AcDbEntity
  8
FD_Dimensions
 62
     0
440
 16777216
100
AcDbTrace
 10
48.261579
 20
225.431481
 30
0.0
 11
49.428246
 21
225.431481
 31
0.0
 12
48.844913
 22
228.931481
 32
0.0
 13
48.844913
 23
228.931481
 33
0.0
  0
SOLID
  5
1EA
330
1E4
100
AcDbEntity
  8
FD_Dimensions
 62
     0
440
 16777216
100
AcDbTrace
 10
48.261579
 20
202.431481
 30
0.0
 11
49.428246
 21
202.431481
 31
0.0
 12
48.844913
 22
198.931481
 32
0.0
 13
48.844913
 23
198.931481
 33
0.0
  0
MTEXT
  5
1EB
330
1E4
100
AcDbEntity
  8
FD_Dimensions
 62
     0
440
 16777216
100
AcDbMText
 10
45.656713
 20
213.931481
 30
0.0
 40
3.5
 41
0.0
 46
0.0
 71
     5
 72
     1
  1
30
 11
0.0
 21
1.0
 31
0.0
 73
     1
 44
1.0
  0
POINT
  5
1EC
330
1E4
100
AcDbEntity
  8
Defpoints
 62
     0
440
 16777216
100
AcDbPoint
 10
61.04716
 20
228.931481
 30
0.0
  0
POINT
  5
1ED
330
1E4
100
AcDbEntity
  8
Defpoints
 62
     0
440
 16777216
100
AcDbPoint
 10
61.04716
 20
198.931481
 30
0.0
  0
POINT
  5
1EE
330
1E4
100
AcDbEntity
  8
Defpoints
 62
     0
440
 16777216
100
AcDbPoint
 10
48.844913
 20
198.931481
 30
0.0
  0
ENDBLK
  5
1EF
330
1E4
100
AcDbEntity
  8
0
100
AcDbBlockEnd
  0
BLOCK
  5
1F2
330
1F1
100
AcDbEntity
  8
0
100
AcDbBlockBegin
  2
*D13
 70
     1
 10
0.0
 20
0.0
 30
0.0
  3
*D13
  1

  0
LINE
  5
1F3
330
1F1
100
AcDbEntity
  8
FD_Dimensions
 62
     0
440
 16777216
370
    -2
100
AcDbLine
 10
63.036906
 20
223.931481
 30
0.0
 11
54.401414
 21
223.931481
 31
0.0
  0
LINE
  5
1F4
330
1F1
100
AcDbEntity
  8
FD_Dimensions
 62
     0
440
 16777216
370
    -2
100
AcDbLine
 10
63.036906
 20
203.931481
 30
0.0
 11
54.401414
 21
203.931481
 31
0.0
  0
LINE
  5
1F5
330
1F1
100
AcDbEntity
  8
FD_Dimensions
 62
     0
440
 16777216
370
    -2
100
AcDbLine
 10
56.501414
 20
220.431481
 30
0.0
 11
56.501414
 21
207.431481
 31
0.0
  0
SOLID
  5
1F6
330
1F1
100
AcDbEntity
  8
FD_Dimensions
 62
     0
440
 16777216
100
AcDbTrace
 10
55.918081
 20
220.431481
 30
0.0
 11
57.084747
 21
220.431481
 31
0.0
 12
56.501414
 22
223.931481
 32
0.0
 13
56.501414
 23
223.931481
 33
0.0
  0
SOLID
  5
1F7
330
1F1
100
AcDbEntity
  8
FD_Dimensions
 62
     0
440
 16777216
100
AcDbTrace
 10
55.918081
 20
207.431481
 30
0.0
 11
57.084747
 21
207.431481
 31
0.0
 12
56.501414
 22
203.931481
 32
0.0
 13
56.501414
 23
203.931481
 33
0.0
  0
MTEXT
  5
1F8
330
1F1
100
AcDbEntity
  8
FD_Dimensions
 62
     0
440
 16777216
100
AcDbMText
 10
53.314409
 20
213.931481
 30
0.0
 40
3.5
 41
0.0
 46
0.0
 71
     5
 72
     1
  1
20
 11
0.0
 21
1.0
 31
0.0
 73
     1
 44
1.0
  0
POINT
  5
1F9
330
1F1
100
AcDbEntity
  8
Defpoints
 62
     0
440
 16777216
100
AcDbPoint
 10
65.136906
 20
223.931481
 30
0.0
  0
POINT
  5
1FA
330
1F1
100
AcDbEntity
  8
Defpoints
 62
     0
440
 16777216
100
AcDbPoint
 10
65.136906
 20
203.931481
 30
0.0
  0
POINT
  5
1FB
330
1F1
100
AcDbEntity
  8
Defpoints
 62
     0
440
 16777216
100
AcDbPoint
 10
56.501414
 20
203.931481
 30
0.0
  0
ENDBLK
  5
1FC
330
1F1
100
AcDbEntity
  8
0
100
AcDbBlockEnd
  0
BLOCK
  5
1FF
330
1FE
100
AcDbEntity
  8
0
100
AcDbBlockBegin
  2
*D14
 70
     1
 10
0.0
 20
0.0
 30
0.0
  3
*D14
  1

  0
LINE
  5
200
330
1FE
100
AcDbEntity
  8
FD_Dimensions
 62
     0
440
 16777216
370
    -2
100
AcDbLine
 10
90.79716
 20
201.831481
 30
0.0
 11
90.79716
 21
190.807556
 31
0.0
  0
LINE
  5
201
330
1FE
100
AcDbEntity
  8
FD_Dimensions
 62
     0
440
 16777216
370
    -2
100
AcDbLine
 10
60.79716
 20
197.081481
 30
0.0
 11
60.79716
 21
190.807556
 31
0.0
  0
LINE
  5
202
330
1FE
100
AcDbEntity
  8
FD_Dimensions
 62
     0
440
 16777216
370
    -2
100
AcDbLine
 10
87.29716
 20
192.907556
 30
0.0
 11
64.29716
 21
192.907556
 31
0.0
  0
SOLID
  5
203
330
1FE
100
AcDbEntity
  8
FD_Dimensions
 62
     0
440
 16777216
100
AcDbTrace
 10
87.29716
 20
193.49089
 30
0.0
 11
87.29716
 21
192.324223
 31
0.0
 12
90.79716
 22
192.907556
 32
0.0
 13
90.79716
 23
192.907556
 33
0.0
  0
SOLID
  5
204
330
1FE
100
AcDbEntity
  8
FD_Dimensions
 62
     0
440
 16777216
100
AcDbTrace
 10
64.29716
 20
193.49089
 30
0.0
 11
64.29716
 21
192.324223
 31
0.0
 12
60.79716
 22
192.907556
 32
0.0
 13
60.79716
 23
192.907556
 33
0.0
  0
MTEXT
  5
205
330
1FE
100
AcDbEntity
  8
FD_Dimensions
 62
     0
440
 16777216
100
AcDbMText
 10
75.79716
 20
196.095756
 30
0.0
 40
3.5
 41
0.0
 46
0.0
 71
     5
 72
     1
  1
30
 73
     1
 44
1.0
  0
POINT
  5
206
330
1FE
100
AcDbEntity
  8
Defpoints
 62
     0
440
 16777216
100
AcDbPoint
 10
90.79716
 20
203.931481
 30
0.0
  0
POINT
  5
207
330
1FE
100
AcDbEntity
  8
Defpoints
 62
     0
440
 16777216
100
AcDbPoint
 10
60.79716
 20
199.181481
 30
0.0
  0
POINT
  5
208
330
1FE
100
AcDbEntity
  8
Defpoints
 62
     0
440
 16777216
100
AcDbPoint
 10
60.79716
 20
192.907556
 30
0.0
  0
ENDBLK
  5
209
330
1FE
100
AcDbEntity
  8
0
100
AcDbBlockEnd
  0
BLOCK
  5
20C
330
20B
100
AcDbEntity
  8
0
100
AcDbBlockBegin
  2
*D15
 70
     1
 10
0.0
 20
0.0
 30
0.0
  3
*D15
  1

  0
LINE
  5
20D
330
20B
100
AcDbEntity
  8
FD_Dimensions
 62
     0
440
 16777216
370
    -2
100
AcDbLine
 10
78.236906
 20
261.931481
 30
0.0
 11
100.922887
 21
261.931481
 31
0.0
  0
LINE
  5
20E
330
20B
100
AcDbEntity
  8
FD_Dimensions
 62
     0
440
 16777216
370
    -2
100
AcDbLine
 10
78.236906
 20
221.931481
 30
0.0
 11
100.922887
 21
221.931481
 31
0.0
  0
LINE
  5
20F
330
20B
100
AcDbEntity
  8
FD_Dimensions
 62
     0
440
 16777216
370
    -2
100
AcDbLine
 10
98.822887
 20
258.431481
 30
0.0
 11
98.822887
 21
225.431481
 31
0.0
  0
SOLID
  5
210
330
20B
100
AcDbEntity
  8
FD_Dimensions
 62
     0
440
 16777216
100
AcDbTrace
 10
98.239554
 20
258.431481
 30
0.0
 11
99.406221
 21
258.431481
 31
0.0
 12
98.822887
 22
261.931481
 32
0.0
 13
98.822887
 23
261.931481
 33
0.0
  0
SOLID
  5
211
330
20B
100
AcDbEntity
  8
FD_Dimensions
 62
     0
440
 16777216
100
AcDbTrace
 10
98.239554
 20
225.431481
 30
0.0
 11
99.406221
 21
225.431481
 31
0.0
 12
98.822887
 22
221.931481
 32
0.0
 13
98.822887
 23
221.931481
 33
0.0
  0
MTEXT
  5
212
330
20B
100
AcDbEntity
  8
FD_Dimensions
 62
     0
440
 16777216
100
AcDbMText
 10
95.635882
 20
241.931481
 30
0.0
 40
3.5
 41
0.0
 46
0.0
 71
     5
 72
     1
  1
40
 11
0.0
 21
1.0
 31
0.0
 73
     1
 44
1.0
  0
POINT
  5
213
330
20B
100
AcDbEntity
  8
Defpoints
 62
     0
440
 16777216
100
AcDbPoint
 10
76.136906
 20
261.931481
 30
0.0
  0
POINT
  5
214
330
20B
100
AcDbEntity
  8
Defpoints
 62
     0
440
 16777216
100
AcDbPoint
 10
76.136906
 20
221.931481
 30
0.0
  0
POINT
  5
215
330
20B
100
AcDbEntity
  8
Defpoints
 62
     0
440
 16777216
100
AcDbPoint
 10
98.822887
 20
221.931481
 30
0.0
  0
ENDBLK
  5
216
330
20B
100
AcDbEntity
  8
0
100
AcDbBlockEnd
  0
BLOCK
  5
219
330
218
100
AcDbEntity
  8
0
100
AcDbBlockBegin
  2
*D16
 70
     1
 10
0.0
 20
0.0
 30
0.0
  3
*D16
  1

  0
LINE
  5
3BE
330
218
100
AcDbEntity
  8
FD_Dimensions
 62
     0
440
 16777216
370
    -2
100
AcDbLine
 10
182.409261
 20
132.416894
 30
0.0
 11
166.439202
 21
127.574177
 31
0.0
  0
LINE
  5
3BF
330
218
100
AcDbEntity
  8
FD_Dimensions
 62
     0
440
 16777216
370
    -2
100
AcDbLine
 10
153.9986
 20
123.801722
 30
0.0
 11
150.649207
 21
122.786061
 31
0.0
  0
MTEXT
  5
3C0
330
218
100
AcDbEntity
  8
FD_Dimensions
 62
     0
440
 16777216
100
AcDbMText
 10
177.197542
 20
134.269104
 30
0.0
 40
3.5
 41
0.0
 46
0.0
 71
     5
 72
     1
  1
∅6
 11
0.956969
 21
0.290189
 31
0.0
 73
     1
 44
1.0
  0
LINE
  5
3C1
330
218
100
AcDbEntity
  8
FD_Dimensions
 62
     0
440
 16777216
370
    -2
100
AcDbLine
 10
157.347993
 20
124.817383
 30
0.0
 11
163.089809
 21
126.558516
 31
0.0
  0
SOLID
  5
3C2
330
218
100
AcDbEntity
  8
FD_Dimensions
 62
     0
440
 16777216
100
AcDbTrace
 10
153.829323
 20
124.359954
 30
0.0
 11
154.167877
 21
123.24349
 31
0.0
 12
157.347993
 22
124.817383
 32
0.0
 13
157.347993
 23
124.817383
 33
0.0
  0
SOLID
  5
3C3
330
218
100
AcDbEntity
  8
FD_Dimensions
 62
     0
440
 16777216
100
AcDbTrace
 10
166.269925
 20
128.132409
 30
0.0
 11
166.608479
 21
127.015945
 31
0.0
 12
163.089809
 22
126.558516
 32
0.0
 13
163.089809
 23
126.558516
 33
0.0
  0
POINT
  5
3C4
330
218
100
AcDbEntity
  8
Defpoints
 62
     0
440
 16777216
100
AcDbPoint
 10
163.089809
 20
126.558516
 30
0.0
  0
POINT
  5
3C5
330
218
100
AcDbEntity
  8
Defpoints
 62
     0
440
 16777216
100
AcDbPoint
 10
157.347993
 20
124.817383
 30
0.0
  0
ENDBLK
  5
21A
330
218
100
AcDbEntity
  8
0
100
AcDbBlockEnd
  0
BLOCK
  5
224
330
223
100
AcDbEntity
  8
0
100
AcDbBlockBegin
  2
*D17
 70
     1
 10
0.0
 20
0.0
 30
0.0
  3
*D17
  1

  0
LINE
  5
3C6
330
223
100
AcDbEntity
  8
FD_Dimensions
 62
     0
440
 16777216
370
    -2
100
AcDbLine
 10
158.118901
 20
125.687949
 30
0.0
 11
140.173969
 21
125.687949
 31
0.0
  0
LINE
  5
3C7
330
223
100
AcDbEntity
  8
FD_Dimensions
 62
     0
440
 16777216
370
    -2
100
AcDbLine
 10
148.118901
 20
117.687949
 30
0.0
 11
140.173969
 21
117.687949
 31
0.0
  0
LINE
  5
3C8
330
223
100
AcDbEntity
  8
FD_Dimensions
 62
     0
440
 16777216
370
    -2
100
AcDbLine
 10
142.273969
 20
129.187949
 30
0.0
 11
142.273969
 21
132.687949
 31
0.0
  0
LINE
  5
3C9
330
223
100
AcDbEntity
  8
FD_Dimensions
 62
     0
440
 16777216
370
    -2
100
AcDbLine
 10
142.273969
 20
114.187949
 30
0.0
 11
142.273969
 21
110.687949
 31
0.0
  0
LINE
  5
3CA
330
223
100
AcDbEntity
  8
FD_Dimensions
 62
     0
440
 16777216
370
    -2
100
AcDbLine
 10
142.273969
 20
125.687949
 30
0.0
 11
142.273969
 21
117.687949
 31
0.0
  0
SOLID
  5
3CB
330
223
100
AcDbEntity
  8
FD_Dimensions
 62
     0
440
 16777216
100
AcDbTrace
 10
141.690635
 20
129.187949
 30
0.0
 11
142.857302
 21
129.187949
 31
0.0
 12
142.273969
 22
125.687949
 32
0.0
 13
142.273969
 23
125.687949
 33
0.0
  0
SOLID
  5
3CC
330
223
100
AcDbEntity
  8
FD_Dimensions
 62
     0
440
 16777216
100
AcDbTrace
 10
141.690635
 20
114.187949
 30
0.0
 11
142.857302
 21
114.187949
 31
0.0
 12
142.273969
 22
117.687949
 32
0.0
 13
142.273969
 23
117.687949
 33
0.0
  0
MTEXT
  5
3CD
330
223
100
AcDbEntity
  8
FD_Dimensions
 62
     0
440
 16777216
100
AcDbMText
 10
139.086963
 20
121.687949
 30
0.0
 40
3.5
 41
0.0
 46
0.0
 71
     5
 72
     1
  1
8
 11
0.0
 21
1.0
 31
0.0
 73
     1
 44
1.0
  0
POINT
  5
3CE
330
223
100
AcDbEntity
  8
Defpoints
 62
     0
440
 16777216
100
AcDbPoint
 10
160.218901
 20
125.687949
 30
0.0
  0
POINT
  5
3CF
330
223
100
AcDbEntity
  8
Defpoints
 62
     0
440
 16777216
100
AcDbPoint
 10
150.218901
 20
117.687949
 30
0.0
  0
POINT
  5
3D0
330
223
100
AcDbEntity
  8
Defpoints
 62
     0
440
 16777216
100
AcDbPoint
 10
142.273969
 20
117.687949
 30
0.0
  0
ENDBLK
  5
225
330
223
100
AcDbEntity
  8
0
100
AcDbBlockEnd
  0
BLOCK
  5
232
330
231
100
AcDbEntity
  8
0
100
AcDbBlockBegin
  2
*D18
 70
     1
 10
0.0
 20
0.0
 30
0.0
  3
*D18
  1

  0
LINE
  5
3D1
330
231
100
AcDbEntity
  8
FD_Dimensions
 62
     0
440
 16777216
370
    -2
100
AcDbLine
 10
58.94716
 20
228.931481
 30
0.0
 11
46.744913
 21
228.931481
 31
0.0
  0
LINE
  5
3D2
330
231
100
AcDbEntity
  8
FD_Dimensions
 62
     0
440
 16777216
370
    -2
100
AcDbLine
 10
58.94716
 20
198.931481
 30
0.0
 11
46.744913
 21
198.931481
 31
0.0
  0
LINE
  5
3D3
330
231
100
AcDbEntity
  8
FD_Dimensions
 62
     0
440
 16777216
370
    -2
100
AcDbLine
 10
48.844913
 20
225.431481
 30
0.0
 11
48.844913
 21
202.431481
 31
0.0
  0
SOLID
  5
3D4
330
231
100
AcDbEntity
  8
FD_Dimensions
 62
     0
440
 16777216
100
AcDbTrace
 10
48.261579
 20
225.431481
 30
0.0
 11
49.428246
 21
225.431481
 31
0.0
 12
48.844913
 22
228.931481
 32
0.0
 13
48.844913
 23
228.931481
 33
0.0
  0
SOLID
  5
3D5
330
231
100
AcDbEntity
  8
FD_Dimensions
 62
     0
440
 16777216
100
AcDbTrace
 10
48.261579
 20
202.431481
 30
0.0
 11
49.428246
 21
202.431481
 31
0.0
 12
48.844913
 22
198.931481
 32
0.0
 13
48.844913
 23
198.931481
 33
0.0
  0
MTEXT
  5
3D6
330
231
100
AcDbEntity
  8
FD_Dimensions
 62
     0
440
 16777216
100
AcDbMText
 10
45.656713
 20
213.931481
 30
0.0
 40
3.5
 41
0.0
 46
0.0
 71
     5
 72
     1
  1
30
 11
0.0
 21
1.0
 31
0.0
 73
     1
 44
1.0
  0
POINT
  5
3D7
330
231
100
AcDbEntity
  8
Defpoints
 62
     0
440
 16777216
100
AcDbPoint
 10
61.04716
 20
228.931481
 30
0.0
  0
POINT
  5
3D8
330
231
100
AcDbEntity
  8
Defpoints
 62
     0
440
 16777216
100
AcDbPoint
 10
61.04716
 20
198.931481
 30
0.0
  0
POINT
  5
3D9
330
231
100
AcDbEntity
  8
Defpoints
 62
     0
440
 16777216
100
AcDbPoint
 10
48.844913
 20
198.931481
 30
0.0
  0
ENDBLK
  5
233
330
231
100
AcDbEntity
  8
0
100
AcDbBlockEnd
  0
BLOCK
  5
23E
330
23D
100
AcDbEntity
  8
0
100
AcDbBlockBegin
  2
*D19
 70
     1
 10
0.0
 20
0.0
 30
0.0
  3
*D19
  1

  0
LINE
  5
3DA
330
23D
100
AcDbEntity
  8
FD_Dimensions
 62
     0
440
 16777216
370
    -2
100
AcDbLine
 10
63.036906
 20
223.931481
 30
0.0
 11
54.401414
 21
223.931481
 31
0.0
  0
LINE
  5
3DB
330
23D
100
AcDbEntity
  8
FD_Dimensions
 62
     0
440
 16777216
370
    -2
100
AcDbLine
 10
63.036906
 20
203.931481
 30
0.0
 11
54.401414
 21
203.931481
 31
0.0
  0
LINE
  5
3DC
330
23D
100
AcDbEntity
  8
FD_Dimensions
 62
     0
440
 16777216
370
    -2
100
AcDbLine
 10
56.501414
 20
220.431481
 30
0.0
 11
56.501414
 21
207.431481
 31
0.0
  0
SOLID
  5
3DD
330
23D
100
AcDbEntity
  8
FD_Dimensions
 62
     0
440
 16777216
100
AcDbTrace
 10
55.918081
 20
220.431481
 30
0.0
 11
57.084747
 21
220.431481
 31
0.0
 12
56.501414
 22
223.931481
 32
0.0
 13
56.501414
 23
223.931481
 33
0.0
  0
SOLID
  5
3DE
330
23D
100
AcDbEntity
  8
FD_Dimensions
 62
     0
440
 16777216
100
AcDbTrace
 10
55.918081
 20
207.431481
 30
0.0
 11
57.084747
 21
207.431481
 31
0.0
 12
56.501414
 22
203.931481
 32
0.0
 13
56.501414
 23
203.931481
 33
0.0
  0
MTEXT
  5
3DF
330
23D
100
AcDbEntity
  8
FD_Dimensions
 62
     0
440
 16777216
100
AcDbMText
 10
53.314409
 20
213.931481
 30
0.0
 40
3.5
 41
0.0
 46
0.0
 71
     5
 72
     1
  1
20
 11
0.0
 21
1.0
 31
0.0
 73
     1
 44
1.0
  0
POINT
  5
3E0
330
23D
100
AcDbEntity
  8
Defpoints
 62
     0
440
 16777216
100
AcDbPoint
 10
65.136906
 20
223.931481
 30
0.0
  0
POINT
  5
3E1
330
23D
100
AcDbEntity
  8
Defpoints
 62
     0
440
 16777216
100
AcDbPoint
 10
65.136906
 20
203.931481
 30
0.0
  0
POINT
  5
3E2
330
23D
100
AcDbEntity
  8
Defpoints
 62
     0
440
 16777216
100
AcDbPoint
 10
56.501414
 20
203.931481
 30
0.0
  0
ENDBLK
  5
23F
330
23D
100
AcDbEntity
  8
0
100
AcDbBlockEnd
  0
BLOCK
  5
24A
330
249
100
AcDbEntity
  8
0
100
AcDbBlockBegin
  2
*D20
 70
     1
 10
0.0
 20
0.0
 30
0.0
  3
*D20
  1

  0
LINE
  5
3E3
330
249
100
AcDbEntity
  8
FD_Dimensions
 62
     0
440
 16777216
370
    -2
100
AcDbLine
 10
90.79716
 20
201.831481
 30
0.0
 11
90.79716
 21
190.807556
 31
0.0
  0
LINE
  5
3E4
330
249
100
AcDbEntity
  8
FD_Dimensions
 62
     0
440
 16777216
370
    -2
100
AcDbLine
 10
60.79716
 20
197.081481
 30
0.0
 11
60.79716
 21
190.807556
 31
0.0
  0
LINE
  5
3E5
330
249
100
AcDbEntity
  8
FD_Dimensions
 62
     0
440
 16777216
370
    -2
100
AcDbLine
 10
87.29716
 20
192.907556
 30
0.0
 11
64.29716
 21
192.907556
 31
0.0
  0
SOLID
  5
3E6
330
249
100
AcDbEntity
  8
FD_Dimensions
 62
     0
440
 16777216
100
AcDbTrace
 10
87.29716
 20
193.49089
 30
0.0
 11
87.29716
 21
192.324223
 31
0.0
 12
90.79716
 22
192.907556
 32
0.0
 13
90.79716
 23
192.907556
 33
0.0
  0
SOLID
  5
3E7
330
249
100
AcDbEntity
  8
FD_Dimensions
 62
     0
440
 16777216
100
AcDbTrace
 10
64.29716
 20
193.49089
 30
0.0
 11
64.29716
 21
192.324223
 31
0.0
 12
60.79716
 22
192.907556
 32
0.0
 13
60.79716
 23
192.907556
 33
0.0
  0
MTEXT
  5
3E8
330
249
100
AcDbEntity
  8
FD_Dimensions
 62
     0
440
 16777216
100
AcDbMText
 10
75.79716
 20
196.095756
 30
0.0
 40
3.5
 41
0.0
 46
0.0
 71
     5
 72
     1
  1
30
 73
     1
 44
1.0
  0
POINT
  5
3E9
330
249
100
AcDbEntity
  8
Defpoints
 62
     0
440
 16777216
100
AcDbPoint
 10
90.79716
 20
203.931481
 30
0.0
  0
POINT
  5
3EA
330
249
100
AcDbEntity
  8
Defpoints
 62
     0
440
 16777216
100
AcDbPoint
 10
60.79716
 20
199.181481
 30
0.0
  0
POINT
  5
3EB
330
249
100
AcDbEntity
  8
Defpoints
 62
     0
440
 16777216
100
AcDbPoint
 10
60.79716
 20
192.907556
 30
0.0
  0
ENDBLK
  5
24B
330
249
100
AcDbEntity
  8
0
100
AcDbBlockEnd
  0
BLOCK
  5
256
330
255
100
AcDbEntity
  8
0
100
AcDbBlockBegin
  2
*D21
 70
     1
 10
0.0
 20
0.0
 30
0.0
  3
*D21
  1

  0
LINE
  5
3EC
330
255
100
AcDbEntity
  8
FD_Dimensions
 62
     0
440
 16777216
370
    -2
100
AcDbLine
 10
78.236906
 20
261.931481
 30
0.0
 11
100.922887
 21
261.931481
 31
0.0
  0
LINE
  5
3ED
330
255
100
AcDbEntity
  8
FD_Dimensions
 62
     0
440
 16777216
370
    -2
100
AcDbLine
 10
78.236906
 20
221.931481
 30
0.0
 11
100.922887
 21
221.931481
 31
0.0
  0
LINE
  5
3EE
330
255
100
AcDbEntity
  8
FD_Dimensions
 62
     0
440
 16777216
370
    -2
100
AcDbLine
 10
98.822887
 20
258.431481
 30
0.0
 11
98.822887
 21
225.431481
 31
0.0
  0
SOLID
  5
3EF
330
255
100
AcDbEntity
  8
FD_Dimensions
 62
     0
440
 16777216
100
AcDbTrace
 10
98.239554
 20
258.431481
 30
0.0
 11
99.406221
 21
258.431481
 31
0.0
 12
98.822887
 22
261.931481
 32
0.0
 13
98.822887
 23
261.931481
 33
0.0
  0
SOLID
  5
3F0
330
255
100
AcDbEntity
  8
FD_Dimensions
 62
     0
440
 16777216
100
AcDbTrace
 10
98.239554
 20
225.431481
 30
0.0
 11
99.406221
 21
225.431481
 31
0.0
 12
98.822887
 22
221.931481
 32
0.0
 13
98.822887
 23
221.931481
 33
0.0
  0
MTEXT
  5
3F1
330
255
100
AcDbEntity
  8
FD_Dimensions
 62
     0
440
 16777216
100
AcDbMText
 10
95.635882
 20
241.931481
 30
0.0
 40
3.5
 41
0.0
 46
0.0
 71
     5
 72
     1
  1
40
 11
0.0
 21
1.0
 31
0.0
 73
     1
 44
1.0
  0
POINT
  5
3F2
330
255
100
AcDbEntity
  8
Defpoints
 62
     0
440
 16777216
100
AcDbPoint
 10
76.136906
 20
261.931481
 30
0.0
  0
POINT
  5
3F3
330
255
100
AcDbEntity
  8
Defpoints
 62
     0
440
 16777216
100
AcDbPoint
 10
76.136906
 20
221.931481
 30
0.0
  0
POINT
  5
3F4
330
255
100
AcDbEntity
  8
Defpoints
 62
     0
440
 16777216
100
AcDbPoint
 10
98.822887
 20
221.931481
 30
0.0
  0
ENDBLK
  5
257
330
255
100
AcDbEntity
  8
0
100
AcDbBlockEnd
  0
ENDSEC
  0
SECTION
  2
ENTITIES
  0
INSERT
  5
14B
330
70
100
AcDbEntity
  8
BORDER
100
AcDbBlockReference
  2
ISO_A4(P)_SHEET
 10
0.0
 20
0.0
 30
0.0
  0
INSERT
  5
161
330
70
100
AcDbEntity
  8
TITLEBLOCK
100
AcDbBlockReference
 66
     1
  2
ISO_TITLEBLOCK
 10
200.0
 20
10.0
 30
0.0
  0
ATTRIB
  5
19D
330
161
100
AcDbEntity
  8
TITLEBLOCK
100
AcDbText
 10
150.0
 20
11.5
 30
0.0
 40
3.5
  1

  7
FusionTitle
 11
150.0
 21
15.0
 31
0.0
100
AcDbAttribute
280
     0
  2
DATE_OF_ISSUE
 70
     0
 74
     3
280
     1
  0
ATTRIB
  5
19E
330
161
100
AcDbEntity
  8
TITLEBLOCK
100
AcDbText
 10
144.0
 20
11.35
 30
0.0
 40
3.5
  1

  7
FusionTitle
 72
     1
 11
144.0
 21
14.85
 31
0.0
100
AcDbAttribute
280
     0
  2
REV
 70
     0
 74
     3
280
     1
  0
ATTRIB
  5
19F
330
161
100
AcDbEntity
  8
TITLEBLOCK
100
AcDbText
 10
79.0
 20
11.5
 30
0.0
 40
5.0
  1

  7
FusionTitle
 11
79.0
 21
16.5
 31
0.0
100
AcDbAttribute
280
     0
  2
TITLE_3
 70
     0
 74
     3
280
     1
  0
ATTRIB
  5
1A0
330
161
100
AcDbEntity
  8
TITLEBLOCK
100
AcDbText
 10
140.0
 20
38.5
 30
0.0
 40
3.5
  1

  7
FusionTitle
 11
140.0
 21
42.0
 31
0.0
100
AcDbAttribute
280
     0
  2
DOCUMENT_STATUS
 70
     0
 74
     3
280
     1
  0
ATTRIB
  5
1A1
330
161
100
AcDbEntity
  8
TITLEBLOCK
100
AcDbText
 10
79.0
 20
38.5
 30
0.0
 40
3.5
  1

  7
FusionTitle
 11
79.0
 21
42.0
 31
0.0
100
AcDbAttribute
280
     0
  2
DOCUMENT_TYPE
 70
     0
 74
     3
280
     1
  0
ATTRIB
  5
1A2
330
161
100
AcDbEntity
  8
TITLEBLOCK
100
AcDbText
 10
199.007162
 20
48.5
 30
0.0
 40
3.5
  1

  7
FusionTitle
 72
     2
 11
199.007162
 21
52.0
 31
0.0
100
AcDbAttribute
280
     0
  2
APPROVED_DATE
 70
     0
 74
     3
280
     1
  0
ATTRIB
  5
1A3
330
161
100
AcDbEntity
  8
TITLEBLOCK
100
AcDbText
 10
113.528649
 20
48.5
 30
0.0
 40
3.5
  1
11.11.2022
  7
FusionTitle
 72
     2
 11
138.0
 21
52.0
 31
0.0
100
AcDbAttribute
280
     0
  2
CREATED_DATE
 70
     0
 74
     3
280
     1
  0
ATTRIB
  5
1A4
330
161
100
AcDbEntity
  8
TITLEBLOCK
100
AcDbText
 10
189.101467
 20
11.35
 30
0.0
 40
3.5
  1
1/4
  7
FusionTitle
 72
     1
 11
192.5
 21
14.85
 31
0.0
100
AcDbAttribute
280
     0
  2
SHEET
 70
     0
 74
     3
280
     1
  0
ATTRIB
  5
1A5
330
161
100
AcDbEntity
  8
TITLEBLOCK
100
AcDbText
 10
79.0
 20
19.0
 30
0.0
 40
5.0
  1

  7
FusionTitle
 11
79.0
 21
24.0
 31
0.0
100
AcDbAttribute
280
     0
  2
TITLE_2
 70
     0
 74
     3
280
     1
  0
ATTRIB
  5
1A6
330
161
100
AcDbEntity
  8
TITLEBLOCK
100
AcDbText
 10
169.5
 20
24.751432
 30
0.0
 40
5.0
  1

  7
FusionTitle
 72
     1
 11
169.5
 21
29.751432
 31
0.0
100
AcDbAttribute
280
     0
  2
DRAWING_NUMBER
 70
     0
 74
     3
280
     1
  0
ATTRIB
  5
1A7
330
161
100
AcDbEntity
  8
TITLEBLOCK
100
AcDbText
 10
79.0
 20
26.5
 30
0.0
 40
5.0
  1
gasChargingCatridge
 41
0.893964
  7
FusionTitle
 11
79.0
 21
31.5
 31
0.0
100
AcDbAttribute
280
     0
  2
TITLE_1
 70
     0
 74
     3
280
     1
  0
ATTRIB
  5
1A8
330
161
100
AcDbEntity
  8
TITLEBLOCK
100
AcDbText
 10
140.0
 20
48.5
 30
0.0
 40
3.5
  1

  7
FusionTitle
 11
140.0
 21
52.0
 31
0.0
100
AcDbAttribute
280
     0
  2
APPROVED_BY
 70
     0
 74
     3
280
     1
  0
ATTRIB
  5
1A9
330
161
100
AcDbEntity
  8
TITLEBLOCK
100
AcDbText
 10
79.0
 20
48.5
 30
0.0
 40
3.5
  1
Benedict Ott
  7
FusionTitle
 11
79.0
 21
52.0
 31
0.0
100
AcDbAttribute
280
     0
  2
CREATED_BY
 70
     0
 74
     3
280
     1
  0
ATTRIB
  5
1AA
330
161
100
AcDbEntity
  8
TITLEBLOCK
100
AcDbText
 10
45.0
 20
48.5
 30
0.0
 40
3.5
  1

  7
FusionTitle
 11
45.0
 21
52.0
 31
0.0
100
AcDbAttribute
280
     0
  2
TECHNICAL_REFERENCE
 70
     0
 74
     3
280
     1
  0
ATTRIB
  5
1AB
330
161
100
AcDbEntity
  8
TITLEBLOCK
100
AcDbText
 10
21.0
 20
48.5
 30
0.0
 40
3.5
  1

  7
FusionTitle
 11
21.0
 21
52.0
 31
0.0
100
AcDbAttribute
280
     0
  2
DEPT
 70
     0
 74
     3
280
     1
  0
SEQEND
  5
1AC
330
161
100
AcDbEntity
  8
TITLEBLOCK
  0
INSERT
  5
1AD
330
70
100
AcDbEntity
  8
Smart Centers
 48
0.75
100
AcDbBlockReference
  2
*U7
 10
160.218901
 20
213.931481
 30
0.0
  0
DIMENSION
  5
1B8
330
70
100
AcDbEntity
  8
FD_Dimensions
100
AcDbDimension
280
     0
  2
*D16
 10
157.347993
 20
124.817383
 30
0.0
 11
178.15078
 21
131.125564
 31
0.0
 70
   163
 71
     5
 42
6.0
 73
     0
 74
     0
 75
     0
  3
Dim-ISO-25
100
AcDbDiametricDimension
 15
163.089809
 25
126.558516
 35
0.0
 40
0.0
1001
ACAD_DIMASSOC_CALC_DIMLFAC
1040
-1.0
1001
ACAD_DIMASSOC_DIMLFAC
1040
-1.0
1001
ACAD_DIMASSOC_OVERRIDDEN_DIMLFAC
1040
0.0
1001
ACAD_TC
1000
DSTYLE_TC
1002
{
1070
   176
1004
18000000020000008C8C8CC2000000000000000000000000
1070
   177
1004
18000000020000008C8C8CC2000000000000000000000000
1002
}
1001
ACAD_DSTYLE_DIMJAG_POSITION
1070
   387
1070
     0
1070
   389
1010
0.0
1020
0.0
1030
0.0
1001
ACAD_DSTYLE_DIMRADIAL_EXTENSION
1070
   387
1070
     1
1070
   388
1040
0.0
1070
   390
1040
0.0
1001
ACAD
1000
DSTYLE
1002
{
1070
   144
1040
1.0
1070
   176
1070
     0
1070
   177
1070
     0
1002
}
  0
INSERT
  5
1C5
330
70
100
AcDbEntity
  8
Smart Centers
 48
0.75
100
AcDbBlockReference
  2
*U9
 10
160.218901
 20
125.687949
 30
0.0
  0
INSERT
  5
1CF
330
70
100
AcDbEntity
  8
Smart Centers
 48
0.75
100
AcDbBlockReference
  2
*U10
 10
160.218901
 20
130.518076
 30
0.0
  0
DIMENSION
  5
1D4
330
70
100
AcDbEntity
  8
FD_Dimensions
100
AcDbDimension
280
     0
  2
*D17
 10
142.273969
 20
117.687949
 30
0.0
 11
139.086963
 21
121.687949
 31
0.0
 70
    32
 71
     5
 42
8.0
 73
     0
 74
     0
 75
     0
  3
Dim-ISO-25
100
AcDbAlignedDimension
 13
160.218901
 23
125.687949
 33
0.0
 14
150.218901
 24
117.687949
 34
0.0
 50
270.0
100
AcDbRotatedDimension
1001
ACAD_DIMASSOC_CALC_DIMLFAC
1040
-1.0
1001
ACAD_DIMASSOC_DIMLFAC
1040
-1.0
1001
ACAD_DIMASSOC_OVERRIDDEN_DIMLFAC
1040
0.0
1001
ACAD_TC
1000
DSTYLE_TC
1002
{
1070
   176
1004
18000000020000008C8C8CC2000000000000000000000000
1070
   177
1004
18000000020000008C8C8CC2000000000000000000000000
1002
}
1001
ACAD_DSTYLE_DIMJAG_POSITION
1070
   387
1070
     0
1070
   389
1010
0.0
1020
0.0
1030
0.0
1001
ACAD
1000
DSTYLE
1002
{
1070
   144
1040
1.0
1070
   176
1070
     0
1070
   177
1070
     0
1002
}
  0
DIMENSION
  5
1E3
330
70
100
AcDbEntity
  8
FD_Dimensions
100
AcDbDimension
280
     0
  2
*D18
 10
48.844913
 20
198.931481
 30
0.0
 11
45.656713
 21
213.931481
 31
0.0
 70
    33
 71
     5
 42
30.0
 73
     0
 74
     0
 75
     0
  3
Dim-ISO-25
100
AcDbAlignedDimension
 13
61.04716
 23
228.931481
 33
0.0
 14
61.04716
 24
198.931481
 34
0.0
1001
ACAD_DIMASSOC_CALC_DIMLFAC
1040
-1.0
1001
ACAD_DIMASSOC_DIMLFAC
1040
-1.0
1001
ACAD_DIMASSOC_OVERRIDDEN_DIMLFAC
1040
0.0
1001
ACAD_TC
1000
DSTYLE_TC
1002
{
1070
   176
1004
18000000020000008C8C8CC2000000000000000000000000
1070
   177
1004
18000000020000008C8C8CC2000000000000000000000000
1002
}
1001
ACAD_DSTYLE_DIMJAG_POSITION
1070
   387
1070
     0
1070
   389
1010
0.0
1020
0.0
1030
0.0
1001
ACAD
1000
DSTYLE
1002
{
1070
   144
1040
1.0
1070
   176
1070
     0
1070
   177
1070
     0
1002
}
  0
DIMENSION
  5
1F0
330
70
100
AcDbEntity
  8
FD_Dimensions
100
AcDbDimension
280
     0
  2
*D19
 10
56.501414
 20
203.931481
 30
0.0
 11
53.314409
 21
213.931481
 31
0.0
 70
    32
 71
     5
 42
20.0
 73
     0
 74
     0
 75
     0
  3
Dim-ISO-25
100
AcDbAlignedDimension
 13
65.136906
 23
223.931481
 33
0.0
 14
65.136906
 24
203.931481
 34
0.0
 50
90.0
100
AcDbRotatedDimension
1001
ACAD_DIMASSOC_CALC_DIMLFAC
1040
-1.0
1001
ACAD_DIMASSOC_DIMLFAC
1040
-1.0
1001
ACAD_DIMASSOC_OVERRIDDEN_DIMLFAC
1040
0.0
1001
ACAD_TC
1000
DSTYLE_TC
1002
{
1070
   176
1004
18000000020000008C8C8CC2000000000000000000000000
1070
   177
1004
18000000020000008C8C8CC2000000000000000000000000
1002
}
1001
ACAD_DSTYLE_DIMJAG_POSITION
1070
   387
1070
     0
1070
   389
1010
0.0
1020
0.0
1030
0.0
1001
ACAD
1000
DSTYLE
1002
{
1070
   144
1040
1.0
1070
   176
1070
     0
1070
   177
1070
     0
1002
}
  0
DIMENSION
  5
1FD
330
70
100
AcDbEntity
  8
FD_Dimensions
100
AcDbDimension
280
     0
  2
*D20
 10
60.79716
 20
192.907556
 30
0.0
 11
75.79716
 21
196.095756
 31
0.0
 70
    32
 71
     5
 42
30.0
 73
     0
 74
     0
 75
     0
  3
Dim-ISO-25
100
AcDbAlignedDimension
 13
90.79716
 23
203.931481
 33
0.0
 14
60.79716
 24
199.181481
 34
0.0
 50
0.0
100
AcDbRotatedDimension
1001
ACAD_DIMASSOC_CALC_DIMLFAC
1040
-1.0
1001
ACAD_DIMASSOC_DIMLFAC
1040
-1.0
1001
ACAD_DIMASSOC_OVERRIDDEN_DIMLFAC
1040
0.0
1001
ACAD_TC
1000
DSTYLE_TC
1002
{
1070
   176
1004
18000000020000008C8C8CC2000000000000000000000000
1070
   177
1004
18000000020000008C8C8CC2000000000000000000000000
1002
}
1001
ACAD_DSTYLE_DIMJAG_POSITION
1070
   387
1070
     0
1070
   389
1010
0.0
1020
0.0
1030
0.0
1001
ACAD
1000
DSTYLE
1002
{
1070
   144
1040
1.0
1070
   176
1070
     0
1070
   177
1070
     0
1002
}
  0
DIMENSION
  5
20A
330
70
100
AcDbEntity
  8
FD_Dimensions
100
AcDbDimension
280
     0
  2
*D21
 10
98.822887
 20
221.931481
 30
0.0
 11
95.635882
 21
241.931481
 31
0.0
 70
    32
 71
     5
 42
40.0
 73
     0
 74
     0
 75
     0
  3
Dim-ISO-25
100
AcDbAlignedDimension
 13
76.136906
 23
261.931481
 33
0.0
 14
76.136906
 24
221.931481
 34
0.0
 50
90.0
100
AcDbRotatedDimension
1001
ACAD_DIMASSOC_CALC_DIMLFAC
1040
-1.0
1001
ACAD_DIMASSOC_DIMLFAC
1040
-1.0
1001
ACAD_DIMASSOC_OVERRIDDEN_DIMLFAC
1040
0.0
1001
ACAD_TC
1000
DSTYLE_TC
1002
{
1070
   176
1004
18000000020000008C8C8CC2000000000000000000000000
1070
   177
1004
18000000020000008C8C8CC2000000000000000000000000
1002
}
1001
ACAD_DSTYLE_DIMJAG_POSITION
1070
   387
1070
     0
1070
   389
1010
0.0
1020
0.0
1030
0.0
1001
ACAD
1000
DSTYLE
1002
{
1070
   144
1040
1.0
1070
   176
1070
     0
1070
   177
1070
     0
1002
}
  0
CIRCLE
  5
308
330
70
100
AcDbEntity
  8
Visible
100
AcDbCircle
 10
160.218901
 20
213.931481
 30
0.0
 40
8.599999999999992
  0
CIRCLE
  5
309
330
70
100
AcDbEntity
  8
Visible
100
AcDbCircle
 10
-160.218901
 20
213.931481
 30
0.0
 40
8.900000000000003
210
0.0
220
0.0
230
-1.0
  0
CIRCLE
  5
30A
330
70
100
AcDbEntity
  8
Visible
100
AcDbCircle
 10
160.218901
 20
213.931481
 30
0.0
 40
14.74999999999998
  0
CIRCLE
  5
30B
330
70
100
AcDbEntity
  8
Visible
100
AcDbCircle
 10
-160.218901
 20
213.931481
 30
0.0
 40
14.99999999999999
210
0.0
220
0.0
230
-1.0
  0
CIRCLE
  5
30C
330
70
100
AcDbEntity
  8
Visible
100
AcDbCircle
 10
-160.218901
 20
213.931481
 30
0.0
 40
7.999999999999994
210
0.0
220
0.0
230
-1.0
  0
CIRCLE
  5
30D
330
70
100
AcDbEntity
  8
Hidden
100
AcDbCircle
 10
-160.218901
 20
213.931481
 30
0.0
 40
9.999999999999996
210
0.0
220
0.0
230
-1.0
  0
LINE
  5
30E
330
70
100
AcDbEntity
  8
Hidden
100
AcDbLine
 10
163.218901
 20
223.470873
 30
0.0
 11
163.218901
 21
221.347679
 31
0.0
  0
LINE
  5
30F
330
70
100
AcDbEntity
  8
Hidden
100
AcDbLine
 10
157.218901
 20
223.470873
 30
0.0
 11
157.218901
 21
221.347679
 31
0.0
  0
LINE
  5
310
330
70
100
AcDbEntity
  8
Hidden
100
AcDbLine
 10
157.218901
 20
221.931481
 30
0.0
 11
163.218901
 21
221.931481
 31
0.0
  0
LINE
  5
311
330
70
100
AcDbEntity
  8
Visible
100
AcDbLine
 10
157.218901
 20
261.931481
 30
0.0
 11
163.218901
 21
261.931481
 31
0.0
  0
LINE
  5
312
330
70
100
AcDbEntity
  8
Hidden
100
AcDbLine
 10
162.218901
 20
261.931481
 30
0.0
 11
162.218901
 21
221.931481
 31
0.0
  0
LINE
  5
313
330
70
100
AcDbEntity
  8
Hidden
100
AcDbLine
 10
158.218901
 20
261.931481
 30
0.0
 11
158.218901
 21
221.931481
 31
0.0
  0
LINE
  5
314
330
70
100
AcDbEntity
  8
Visible
100
AcDbLine
 10
163.218901
 20
261.931481
 30
0.0
 11
163.218901
 21
228.628419
 31
0.0
  0
LINE
  5
315
330
70
100
AcDbEntity
  8
Hidden
100
AcDbLine
 10
163.218901
 20
228.628419
 30
0.0
 11
163.218901
 21
221.931481
 31
0.0
  0
LINE
  5
316
330
70
100
AcDbEntity
  8
Visible
100
AcDbLine
 10
157.218901
 20
261.931481
 30
0.0
 11
157.218901
 21
228.628419
 31
0.0
  0
LINE
  5
317
330
70
100
AcDbEntity
  8
Hidden
100
AcDbLine
 10
157.218901
 20
228.628419
 30
0.0
 11
157.218901
 21
221.931481
 31
0.0
  0
ARC
  5
318
330
70
100
AcDbEntity
  8
Visible
100
AcDbCircle
 10
73.136906
 20
233.512046
 30
0.0
 40
10.03804146021474
100
AcDbArc
 50
252.612892
 51
287.387108
  0
ARC
  5
319
330
70
100
AcDbEntity
  8
Hidden
100
AcDbCircle
 10
73.136906
 20
229.400278
 30
0.0
 40
8.046293921643611
100
AcDbArc
 50
248.116097
 51
291.883903
  0
LINE
  5
31A
330
70
100
AcDbEntity
  8
Hidden
100
AcDbLine
 10
61.09716
 20
222.531481
 30
0.0
 11
61.09716
 21
205.331481
 31
0.0
210
-1.0
220
-0.0000000000000002
230
0.0000000000002966
  0
LINE
  5
31B
330
70
100
AcDbEntity
  8
Visible
100
AcDbLine
 10
60.79716
 20
228.681481
 30
0.0
 11
60.79716
 21
199.181481
 31
0.0
210
-1.0
220
-0.0000000000000002
230
0.0000000000002966
  0
LINE
  5
31C
330
70
100
AcDbEntity
  8
Visible
100
AcDbLine
 10
61.04716
 20
198.931481
 30
0.0
 11
61.04716
 21
228.931481
 31
0.0
210
-1.0
220
-0.0000000000000002
230
0.0000000000002966
  0
LINE
  5
31D
330
70
100
AcDbEntity
  8
Hidden
100
AcDbLine
 10
63.29716
 20
205.331481
 30
0.0
 11
63.29716
 21
222.531481
 31
0.0
210
-1.0
220
-0.0000000000000002
230
0.0000000000002966
  0
LINE
  5
31E
330
70
100
AcDbEntity
  8
Visible
100
AcDbLine
 10
65.136906
 20
203.931481
 30
0.0
 11
65.136906
 21
223.931481
 31
0.0
210
-1.0
220
-0.0000000000000002
230
0.0000000000002966
  0
LINE
  5
31F
330
70
100
AcDbEntity
  8
Visible
100
AcDbLine
 10
90.79716
 20
203.931481
 30
0.0
 11
90.79716
 21
223.931481
 31
0.0
210
-1.0
220
-0.0000000000000002
230
0.0000000000002966
  0
LINE
  5
320
330
70
100
AcDbEntity
  8
Hidden
100
AcDbLine
 10
76.136906
 20
223.931481
 30
0.0
 11
76.136906
 21
221.931481
 31
0.0
210
-1.0
220
-0.0000000000000002
230
0.0000000000002966
  0
LINE
  5
321
330
70
100
AcDbEntity
  8
Hidden
100
AcDbLine
 10
70.136906
 20
223.931481
 30
0.0
 11
70.136906
 21
221.931481
 31
0.0
210
-1.0
220
-0.0000000000000002
230
0.0000000000002966
  0
LINE
  5
322
330
70
100
AcDbEntity
  8
Hidden
100
AcDbLine
 10
61.09716
 20
205.331481
 30
0.0
 11
60.79716
 21
205.031481
 31
0.0
210
-1.0
220
-0.0000000000000002
230
0.0000000000002966
  0
LINE
  5
323
330
70
100
AcDbEntity
  8
Hidden
100
AcDbLine
 10
61.09716
 20
222.531481
 30
0.0
 11
60.79716
 21
222.831481
 31
0.0
210
-1.0
220
-0.0000000000000002
230
0.0000000000002966
  0
LINE
  5
324
330
70
100
AcDbEntity
  8
Visible
100
AcDbLine
 10
60.79716
 20
228.681481
 30
0.0
 11
61.04716
 21
228.931481
 31
0.0
210
-1.0
220
-0.0000000000000002
230
0.0000000000002966
  0
LINE
  5
325
330
70
100
AcDbEntity
  8
Visible
100
AcDbLine
 10
60.79716
 20
199.181481
 30
0.0
 11
61.04716
 21
198.931481
 31
0.0
210
-1.0
220
-0.0000000000000002
230
0.0000000000002966
  0
ARC
  5
326
330
70
100
AcDbEntity
  8
Visible
100
AcDbCircle
 10
-63.029833
 20
227.931481
 30
0.0
 40
1.0
210
0.0
220
-0.0000000000000002
230
-1.0
100
AcDbArc
 50
90.0
 51
165.0
  0
ARC
  5
327
330
70
100
AcDbEntity
  8
Visible
100
AcDbCircle
 10
-63.029833
 20
199.931481
 30
0.0
 40
1.0
210
0.0
220
-0.0000000000000002
230
-1.0
100
AcDbArc
 50
195.0
 51
270.0
  0
LINE
  5
328
330
70
100
AcDbEntity
  8
Hidden
100
AcDbLine
 10
63.29716
 20
221.931481
 30
0.0
 11
70.136906
 21
221.931481
 31
0.0
210
-1.0
220
-0.0000000000000002
230
0.0000000000002966
  0
LINE
  5
329
330
70
100
AcDbEntity
  8
Hidden
100
AcDbLine
 10
76.136906
 20
221.931481
 30
0.0
 11
90.79716
 21
221.931481
 31
0.0
210
-1.0
220
-0.0000000000000002
230
0.0000000000002966
  0
LINE
  5
32A
330
70
100
AcDbEntity
  8
Hidden
100
AcDbLine
 10
63.29716
 20
205.931481
 30
0.0
 11
90.79716
 21
205.931481
 31
0.0
210
-1.0
220
-0.0000000000000002
230
0.0000000000002966
  0
LINE
  5
32B
330
70
100
AcDbEntity
  8
Hidden
100
AcDbLine
 10
61.09716
 20
222.531481
 30
0.0
 11
63.29716
 21
222.531481
 31
0.0
210
-1.0
220
-0.0000000000000002
230
0.0000000000002966
  0
LINE
  5
32C
330
70
100
AcDbEntity
  8
Hidden
100
AcDbLine
 10
61.09716
 20
205.331481
 30
0.0
 11
63.29716
 21
205.331481
 31
0.0
210
-1.0
220
-0.0000000000000002
230
0.0000000000002966
  0
LINE
  5
32D
330
70
100
AcDbEntity
  8
Visible
100
AcDbLine
 10
61.04716
 20
228.931481
 30
0.0
 11
63.029833
 21
228.931481
 31
0.0
210
-1.0
220
-0.0000000000000002
230
0.0000000000002966
  0
LINE
  5
32E
330
70
100
AcDbEntity
  8
Visible
100
AcDbLine
 10
61.04716
 20
198.931481
 30
0.0
 11
63.029833
 21
198.931481
 31
0.0
210
-1.0
220
-0.0000000000000002
230
0.0000000000002966
  0
LINE
  5
32F
330
70
100
AcDbEntity
  8
Visible
100
AcDbLine
 10
65.136906
 20
203.931481
 30
0.0
 11
63.995759
 21
199.672662
 31
0.0
210
-1.0
220
-0.0000000000000002
230
0.0000000000002966
  0
LINE
  5
330
330
70
100
AcDbEntity
  8
Visible
100
AcDbLine
 10
65.136906
 20
223.931481
 30
0.0
 11
63.995759
 21
228.1903
 31
0.0
210
-1.0
220
-0.0000000000000002
230
0.0000000000002966
  0
LINE
  5
331
330
70
100
AcDbEntity
  8
Visible
100
AcDbLine
 10
65.136906
 20
223.931481
 30
0.0
 11
70.136906
 21
223.931481
 31
0.0
210
-1.0
220
-0.0000000000000002
230
0.0000000000002966
  0
LINE
  5
332
330
70
100
AcDbEntity
  8
Visible
100
AcDbLine
 10
76.136906
 20
223.931481
 30
0.0
 11
90.79716
 21
223.931481
 31
0.0
210
-1.0
220
-0.0000000000000002
230
0.0000000000002966
  0
LINE
  5
333
330
70
100
AcDbEntity
  8
Visible
100
AcDbLine
 10
65.136906
 20
203.931481
 30
0.0
 11
90.79716
 21
203.931481
 31
0.0
210
-1.0
220
-0.0000000000000002
230
0.0000000000002966
  0
LINE
  5
334
330
70
100
AcDbEntity
  8
Hidden
100
AcDbLine
 10
70.136906
 20
221.931481
 30
0.0
 11
76.136906
 21
221.931481
 31
0.0
210
-1.0
220
-0.0000000000000002
230
0.0000000000002966
  0
LINE
  5
335
330
70
100
AcDbEntity
  8
Visible
100
AcDbLine
 10
70.136906
 20
261.931481
 30
0.0
 11
76.136906
 21
261.931481
 31
0.0
210
-1.0
220
-0.0000000000000002
230
0.0000000000002966
  0
LINE
  5
336
330
70
100
AcDbEntity
  8
Hidden
100
AcDbLine
 10
75.136906
 20
261.931481
 30
0.0
 11
75.136906
 21
221.931481
 31
0.0
210
-1.0
220
-0.0000000000000002
230
0.0000000000002966
  0
LINE
  5
337
330
70
100
AcDbEntity
  8
Hidden
100
AcDbLine
 10
71.136906
 20
261.931481
 30
0.0
 11
71.136906
 21
221.931481
 31
0.0
210
-1.0
220
-0.0000000000000002
230
0.0000000000002966
  0
LINE
  5
338
330
70
100
AcDbEntity
  8
Visible
100
AcDbLine
 10
76.136906
 20
261.931481
 30
0.0
 11
76.136906
 21
223.931481
 31
0.0
210
-1.0
220
-0.0000000000000002
230
0.0000000000002966
  0
LINE
  5
339
330
70
100
AcDbEntity
  8
Hidden
100
AcDbLine
 10
76.136906
 20
223.931481
 30
0.0
 11
76.136906
 21
221.931481
 31
0.0
210
-1.0
220
-0.0000000000000002
230
0.0000000000002966
  0
LINE
  5
33A
330
70
100
AcDbEntity
  8
Visible
100
AcDbLine
 10
70.136906
 20
261.931481
 30
0.0
 11
70.136906
 21
223.931481
 31
0.0
210
-1.0
220
-0.0000000000000002
230
0.0000000000002966
  0
LINE
  5
33B
330
70
100
AcDbEntity
  8
Hidden
100
AcDbLine
 10
70.136906
 20
223.931481
 30
0.0
 11
70.136906
 21
221.931481
 31
0.0
210
-1.0
220
-0.0000000000000002
230
0.0000000000002966
  0
SPLINE
  5
33C
330
70
100
AcDbEntity
  8
Hidden
100
AcDbSpline
210
0.0
220
0.0
230
1.0
 70
     8
 71
     3
 72
    10
 73
     6
 74
     0
 42
0.000000001
 43
0.0000000001
 40
0.4550649115687508
 40
0.4550649115687508
 40
0.4550649115687508
 40
0.4550649115687508
 40
0.5688141911563515
 40
0.5688141911563515
 40
0.6825634707439522
 40
0.6825634707439522
 40
0.6825634707439964
 40
0.6825634707439964
 10
79.80498339380665
 20
128.8242574492183
 30
0.000000000001819
 10
80.07309301697933
 20
128.6698633855667
 30
0.0
 10
80.30404943501253
 20
128.4553908790949
 30
0.000000000001819
 10
80.60922637117711
 20
127.9597416235437
 30
0.000000000001819
 10
80.68366305024756
 20
127.679453281677
 30
0.000000000003638
 10
80.68366305024756
 20
127.4166048744814
 30
0.000000000001819
  0
SPLINE
  5
33D
330
70
100
AcDbEntity
  8
Visible
100
AcDbSpline
210
0.0000000000004326
220
-0.0000000000003827
230
1.0
 70
     8
 71
     3
 72
    18
 73
    14
 74
     0
 42
0.000000001
 43
0.0000000001
 40
0.6825634707439522
 40
0.6825634707439522
 40
0.6825634707439964
 40
0.6825634707439964
 40
0.796346646940727
 40
0.796346646940727
 40
0.9101298231375016
 40
0.9101298231375016
 40
1.023912999334276
 40
1.023912999334276
 40
1.137696175531051
 40
1.137696175531051
 40
1.251445455118652
 40
1.251445455118652
 40
1.365194734706253
 40
1.365194734706253
 40
1.365194734706253
 40
1.365194734706253
 10
80.68366305024756
 20
127.4166048744814
 30
0.000000000001819
 10
80.68366305024756
 20
127.1536781400218
 30
0.000000000001819
 10
80.60920582112249
 20
126.8724126720008
 30
0.0
 10
80.30407944288162
 20
126.3744741215137
 30
0.000000000003638
 10
80.07317291205254
 20
126.1589545041315
 30
0.000000000003638
 10
79.53679387556167
 20
125.8500743598056
 30
0.000000000001819
 10
79.19801242975518
 20
125.7375324899308
 30
0.000000000001819
 10
78.45892869442832
 20
125.6341504282332
 30
0.000000000001819
 10
78.05854980866661
 20
125.6419759634464
 30
0.000000000001819
 10
77.30888797257467
 20
125.7360495650045
 30
0.000000000001819
 10
76.9084431561696
 20
125.828602306372
 30
0.000000000001819
 10
76.16924501183348
 20
126.0743153707199
 30
0.000000000003638
 10
75.83045232986023
 20
126.226689102813
 30
0.000000000003638
 10
75.56234270668847
 20
126.3810831664637
 30
0.000000000003638
  0
SPLINE
  5
33E
330
70
100
AcDbEntity
  8
Visible
100
AcDbSpline
210
-0.0000000000027633
220
-0.0000000000005882
230
1.0
 70
     8
 71
     3
 72
    10
 73
     6
 74
     0
 42
0.000000001
 43
0.0000000001
 40
1.365194734706253
 40
1.365194734706253
 40
1.365194734706253
 40
1.365194734706253
 40
1.478944014293854
 40
1.478944014293854
 40
1.592693293881454
 40
1.592693293881454
 40
1.5926932938815
 40
1.5926932938815
 10
75.56234270668847
 20
126.3810831664637
 30
0.000000000003638
 10
75.29423308351579
 20
126.5354772301148
 30
0.000000000001819
 10
75.0632766654835
 20
126.7112001838854
 30
0.000000000003638
 10
74.75809972931983
 20
127.0669027298609
 30
0.000000000001819
 10
74.68366305024756
 20
127.2478160542455
 30
0.000000000001819
 10
74.68366305024756
 20
127.4166048744814
 30
0.000000000001819
  0
SPLINE
  5
33F
330
70
100
AcDbEntity
  8
Hidden
100
AcDbSpline
210
0.0
220
0.0
230
1.0
 70
     8
 71
     3
 72
    19
 73
    15
 74
     0
 42
0.000000001
 43
0.0000000001
 40
1.592693293881454
 40
1.592693293881454
 40
1.5926932938815
 40
1.5926932938815
 40
1.70647647007823
 40
1.70647647007823
 40
1.820259646275005
 40
1.820259646275005
 40
1.820259646275005
 40
1.93404282247178
 40
1.93404282247178
 40
2.047825998668554
 40
2.047825998668554
 40
2.161575278256155
 40
2.161575278256155
 40
2.275324557843755
 40
2.275324557843755
 40
2.275324557843755
 40
2.275324557843755
 10
74.68366305024756
 20
127.4166048744814
 30
0.000000000001819
 10
74.68366305024847
 20
127.5854439927807
 30
0.000000000001819
 10
74.75812027937172
 20
127.7653042571492
 30
0.000000000001819
 10
75.06324665761349
 20
128.1185857406522
 30
0.000000000001819
 10
75.29415318844257
 20
128.2932486425588
 30
0.000000000003638
 10
75.56234270668847
 20
128.447688714722
 30
0.000000000001819
 10
75.83053222493345
 20
128.6021287868857
 30
0.000000000001819
 10
76.16931367073994
 20
128.755527372235
 30
0.000000000001819
 10
76.90839740606771
 20
129.0035665009154
 30
0.000000000001819
 10
77.30877629182851
 20
129.097146169358
 30
0.000000000001819
 10
78.05843812791954
 20
129.1912197709162
 30
0.0
 10
78.45888294432552
 20
129.1980420470322
 30
0.000000000001819
 10
79.19808108866163
 20
129.0922756922605
 30
0.000000000001819
 10
79.53687377063579
 20
128.978651512868
 30
0.000000000003638
 10
79.80498339380665
 20
128.8242574492183
 30
0.000000000001819
  0
SPLINE
  5
340
330
70
100
AcDbEntity
  8
Hidden
100
AcDbSpline
210
0.0
220
0.0
230
1.0
 70
     9
 71
     3
 72
    38
 73
    34
 74
     0
 42
0.000000001
 43
0.0000000001
 40
0.0
 40
0.0
 40
0.0
 40
0.0
 40
0.1142700979027655
 40
0.1142700979027655
 40
0.2285401958055311
 40
0.2285401958055311
 40
0.3427227892738362
 40
0.3427227892738362
 40
0.4569053827421412
 40
0.4569053827421412
 40
0.5710879762104466
 40
0.5710879762104466
 40
0.6852705696787518
 40
0.6852705696787518
 40
0.7995406675815171
 40
0.7995406675815171
 40
0.9138107654842825
 40
0.9138107654842825
 40
1.028080863387047
 40
1.028080863387047
 40
1.142350961289813
 40
1.142350961289813
 40
1.256533554758118
 40
1.256533554758118
 40
1.370716148226423
 40
1.370716148226423
 40
1.484898741694728
 40
1.484898741694728
 40
1.599081335163033
 40
1.599081335163033
 40
1.713351433065799
 40
1.713351433065799
 40
1.827621530968564
 40
1.827621530968564
 40
1.827621530968564
 40
1.827621530968564
 10
75.56234270668847
 20
126.7118779511779
 30
0.000000000001819
 10
75.29300550297467
 20
126.55677697091
 30
0.0
 10
75.06213180469967
 20
126.3877300576714
 30
0.000000000001819
 10
74.75765163873711
 20
126.0548710798744
 30
0.000000000001819
 10
74.68366305024756
 20
125.8893206047928
 30
0.000000000001819
 10
74.68366305024756
 20
125.5776996284476
 30
0.000000000001819
 10
74.75759773344179
 20
125.4100133474085
 30
0.000000000001819
 10
75.06220658977873
 20
125.0722054760558
 30
0.000000000001819
 10
75.29321175290625
 20
124.9009711256112
 30
0.000000000003638
 10
75.8314736604716
 20
124.5910067079453
 30
0.000000000001819
 10
76.17111888113868
 20
124.4336253577103
 30
0.000000000001819
 10
76.9103808631653
 20
124.1703079924737
 30
0.000000000001819
 10
77.31005291410747
 20
124.0652622939942
 30
0.000000000003638
 10
78.05755950449293
 20
123.9464228537031
 30
0.000000000001819
 10
78.45706697336936
 20
123.9245194726222
 30
0.000000000001819
 10
79.19603480906244
 20
124.0071736418713
 30
0.000000000001819
 10
79.53564619009466
 20
124.1136026881568
 30
0.000000000003638
 10
80.07432059752046
 20
124.4238046486948
 30
0.000000000001819
 10
80.30519429579545
 20
124.6458961105659
 30
0.000000000003638
 10
80.60967446175983
 20
125.1641236824412
 30
0.000000000003638
 10
80.68366305024756
 20
125.4586953085263
 30
0.000000000001819
 10
80.68366305024756
 20
126.0079951654547
 30
0.000000000001819
 10
80.60972836705332
 20
126.3006205385995
 30
0.0
 10
80.30511951071639
 20
126.8142379921341
 30
0.000000000003638
 10
80.07411434758978
 20
127.0341809906999
 30
0.000000000001819
 10
79.53585244002443
 20
127.3441454083663
 30
0.000000000003638
 10
79.19620721935643
 20
127.4528181104797
 30
0.000000000001819
 10
78.45694523732982
 20
127.5403258935339
 30
0.000000000001819
 10
78.05727318638855
 20
127.5204324999058
 30
0.0
 10
77.30976659600219
 20
127.4015930596151
 30
0.000000000001819
 10
76.91025912712667
 20
127.2944752896928
 30
0.000000000001819
 10
76.17129129143268
 20
127.0264525263655
 30
0.000000000001819
 10
75.83167991040046
 20
126.8669789314472
 30
0.000000000003638
 10
75.56234270668847
 20
126.7118779511779
 30
0.000000000001819
  0
ELLIPSE
  5
341
330
70
100
AcDbEntity
  8
Hidden
100
AcDbEllipse
 10
69.170277
 20
114.524666
 30
0.0
 11
-4.291677019625036
 21
7.452617550848302
 31
-0.0000000000000007
210
-0.0000000000000005
220
-0.0000000000000002
230
1.0
 40
0.578093115915892
 41
3.911698084203901
 42
5.513079876564931
  0
ELLIPSE
  5
342
330
70
100
AcDbEntity
  8
Visible
100
AcDbEllipse
 10
69.170277
 20
114.524666
 30
0.0
 11
-4.291677019625949
 21
7.452617550849888
 31
-0.0000000000000007
210
-0.0000000000000005
220
-0.0000000000000002
230
1.0
 40
0.5780931159156389
 41
-0.7701054306148743
 42
3.91169808420412
  0
ELLIPSE
  5
343
330
70
100
AcDbEntity
  8
Visible
100
AcDbEllipse
 10
68.958145
 20
114.402507
 30
0.0
 11
-4.441386683099504
 21
7.712592581692668
 31
-0.0000000000000008
210
0.0000000000000001
220
-0.0000000000000001
230
-1.0
 40
0.5780931159157018
 41
-0.0000000000005331
 42
6.283185307179053
  0
ELLIPSE
  5
344
330
70
100
AcDbEntity
  8
Visible
100
AcDbEllipse
 10
68.958145
 20
114.402507
 30
0.0
 11
-7.360725120869815
 21
12.7821056831408
 31
-0.0000000000000023
210
0.0000000000000002
220
0.0000000000000003
230
1.0
 40
0.578093115915853
 41
1.570796326794912
 42
7.853981633974498
  0
ELLIPSE
  5
345
330
70
100
AcDbEntity
  8
Hidden
100
AcDbEllipse
 10
69.134922
 20
114.504306
 30
0.0
 11
-7.485483173765896
 21
12.99875154217769
 31
-0.0000000000000009
210
0.0
220
0.0
230
-0.9999999999999998
 40
0.578093115915844
 41
3.928924525410558
 42
5.495853435358975
  0
ELLIPSE
  5
346
330
70
100
AcDbEntity
  8
Visible
100
AcDbEllipse
 10
69.134922
 20
114.504306
 30
0.0
 11
-7.485483173765992
 21
12.99875154217786
 31
-0.0000000000000009
210
0.0
220
0.0
230
-1.0
 40
0.5780931159158297
 41
-0.7873318718206228
 42
3.928924525410571
  0
ELLIPSE
  5
347
330
70
100
AcDbEntity
  8
Hidden Narrow
100
AcDbEllipse
 10
71.219896
 20
115.704963
 30
0.0
 11
-7.11561000266047
 21
12.35645640347702
 31
-0.000000000000003
210
0.0000000000000001
220
-0.0000000000000002
230
-1.0
 40
0.5780931159158386
 41
0.0000000000001781
 42
6.283185307179763
  0
ELLIPSE
  5
348
330
70
100
AcDbEntity
  8
Visible Narrow
100
AcDbEllipse
 10
70.536883
 20
115.311642
 30
0.0
 11
-7.485483173765637
 21
12.99875154217804
 31
-0.0000000000000012
210
-0.0000000000000001
220
0.0
230
1.0
 40
0.5780931159158893
 41
3.141592653589682
 42
6.283185307179475
  0
ELLIPSE
  5
349
330
70
100
AcDbEntity
  8
Hidden Narrow
100
AcDbEllipse
 10
70.536883
 20
115.311642
 30
0.0
 11
-7.485483173767049
 21
12.99875154217762
 31
-0.0000000000000012
210
-0.0000000000000001
220
0.0
230
1.0
 40
0.5780931159157935
 41
-0.0000000000004199
 42
3.141592653589373
  0
ELLIPSE
  5
34A
330
70
100
AcDbEntity
  8
Visible
100
AcDbEllipse
 10
70.725912
 20
115.420497
 30
0.0
 11
-3.992257692710969
 21
6.932667489141446
 31
-0.0000000000000003
210
0.0000000000000002
220
0.0000000000000001
230
-0.9999999999999998
 40
0.578093115915649
 41
3.135206446920554
 42
6.28957151386642
  0
ELLIPSE
  5
34B
330
70
100
AcDbEntity
  8
Hidden
100
AcDbEllipse
 10
70.725912
 20
115.420497
 30
0.0
 11
-3.992257692711012
 21
6.932667489141421
 31
-0.0000000000000003
210
0.0000000000000002
220
0.0000000000000001
230
-1.0
 40
0.5780931159157058
 41
0.0063862066868452
 42
3.135206446920566
  0
ELLIPSE
  5
34C
330
70
100
AcDbEntity
  8
Hidden
100
AcDbEllipse
 10
90.171348
 20
126.618379
 30
0.0
 11
-3.992257692677524
 21
6.932667489160647
 31
-0.0000000000000003
210
0.0000000000000002
220
0.0000000000000001
230
-0.9999999999999998
 40
0.5780931159157095
 41
0.0000000000004821
 42
6.283185307180068
  0
ELLIPSE
  5
34D
330
70
100
AcDbEntity
  8
Visible
100
AcDbEllipse
 10
70.725912
 20
115.420497
 30
0.0
 11
-4.291677019622277
 21
7.452617550850411
 31
-0.0000000000000013
210
0.0000000000000001
220
-0.0000000000000001
230
-0.9999999999999998
 40
0.5780931159157717
 41
3.323127091555992
 42
6.101650869211775
  0
ELLIPSE
  5
34E
330
70
100
AcDbEntity
  8
Hidden
100
AcDbEllipse
 10
70.725912
 20
115.420497
 30
0.0
 11
-4.291677019622237
 21
7.452617550850333
 31
-0.0000000000000013
210
0.0000000000000001
220
-0.0000000000000001
230
-1.0
 40
0.5780931159159611
 41
-0.1815344379677517
 42
3.323127091555933
  0
ELLIPSE
  5
34F
330
70
100
AcDbEntity
  8
Hidden
100
AcDbEllipse
 10
72.026809
 20
116.169633
 30
0.0
 11
-4.990322115845611
 21
8.665834361451684
 31
-0.0000000000000006
210
0.0
220
-0.0000000000000001
230
-0.9999999999999998
 40
0.5780931159158462
 41
0.0000000000001781
 42
6.283185307179763
  0
ELLIPSE
  5
350
330
70
100
AcDbEntity
  8
Hidden
100
AcDbEllipse
 10
90.171348
 20
126.618379
 30
0.0
 11
-4.990322115844668
 21
8.665834361451775
 31
-0.0000000000000006
210
0.0
220
-0.0000000000000001
230
-0.9999999999999998
 40
0.5780931159157447
 41
3.141592653589782
 42
6.283185307179575
  0
ELLIPSE
  5
351
330
70
100
AcDbEntity
  8
Visible
100
AcDbEllipse
 10
90.171348
 20
126.618379
 30
0.0
 11
-4.990322115843961
 21
8.665834361452635
 31
-0.0000000000000006
210
0.0
220
-0.0000000000000001
230
-0.9999999999999998
 40
0.5780931159157675
 41
-0.0000000000001514
 42
3.141592653589641
  0
LINE
  5
352
330
70
100
AcDbEntity
  8
Hidden
100
AcDbLine
 10
80.683663
 20
127.416605
 30
0.0
 11
80.683663
 21
125.73345
 31
0.0
210
-0.7071067811864428
220
-0.4071957137923946
230
0.5780931159158105
  0
LINE
  5
353
330
70
100
AcDbEntity
  8
Hidden
100
AcDbLine
 10
74.683663
 20
127.416605
 30
0.0
 11
74.683663
 21
125.73345
 31
0.0
210
-0.7071067811864428
220
-0.4071957137923946
230
0.5780931159158105
  0
LINE
  5
354
330
70
100
AcDbEntity
  8
Hidden
100
AcDbLine
 10
75.251395
 20
111.022783
 30
0.0
 11
75.251395
 21
110.778466
 31
0.0
210
-0.7071067811864428
220
-0.4071957137923946
230
0.5780931159158105
  0
LINE
  5
355
330
70
100
AcDbEntity
  8
Hidden
100
AcDbLine
 10
69.193795
 20
121.541976
 30
0.0
 11
68.982484
 21
121.664607
 31
0.0
210
-0.7071067811864428
220
-0.4071957137923946
230
0.5780931159158105
  0
LINE
  5
356
330
70
100
AcDbEntity
  8
Visible
100
AcDbLine
 10
58.52832
 20
120.408644
 30
0.0
 11
58.52832
 21
120.612242
 31
0.0
210
-0.7071067811864428
220
-0.4071957137923946
230
0.5780931159158105
  0
LINE
  5
357
330
70
100
AcDbEntity
  8
Visible
100
AcDbLine
 10
68.917809
 20
102.367006
 30
0.0
 11
69.093902
 21
102.264813
 31
0.0
210
-0.7071067811864428
220
-0.4071957137923946
230
0.5780931159158105
  0
SPLINE
  5
358
330
70
100
AcDbEntity
  8
Visible
100
AcDbSpline
210
0.0000000000001006
220
0.0000000000001109
230
1.0
 70
     8
 71
     3
 72
    26
 73
    22
 74
     0
 42
0.000000001
 43
0.0000000001
 40
5.495853435359252
 40
5.495853435359252
 40
5.495853435359252
 40
5.495853435359252
 40
5.779582285130365
 40
5.779582285130365
 40
6.082816043787533
 40
6.082816043787533
 40
6.410033558710039
 40
6.410033558710039
 40
6.74128821734314
 40
6.74128821734314
 40
7.070751367783069
 40
7.070751367783069
 40
7.399368805900445
 40
7.399368805900445
 40
7.728868846479354
 40
7.728868846479354
 40
8.060140755773522
 40
8.060140755773522
 40
8.386962938093674
 40
8.386962938093674
 40
8.637446088949046
 40
8.637446088949046
 40
8.637446088949046
 40
8.637446088949046
 10
78.02236640302727
 20
102.3128907329565
 30
0.000000000003638
 10
78.82745275212255
 20
102.7765091273877
 30
0.000000000001819
 10
79.5136769814726
 20
103.4399882578314
 30
0.000000000001819
 10
80.60909435905614
 20
105.1077806501266
 30
0.000000000001819
 10
80.99978466129869
 20
106.129529820274
 30
0.000000000003638
 10
81.45712275565164
 20
108.4697228233417
 30
0.000000000001819
 10
81.49675581814335
 20
109.8073881605992
 30
0.000000000001819
 10
81.20446314764649
 20
112.6255694330521
 30
0.000000000001819
 10
80.86735358121314
 20
114.1077501254822
 30
0.000000000001819
 10
79.85888757674911
 20
117.0531238029889
 30
0.000000000001819
 10
79.18931402930684
 20
118.5157953910316
 30
0.000000000001819
 10
77.58692373005033
 20
121.2831968005998
 30
0.000000000001819
 10
76.65510024916875
 20
122.5877963949774
 30
0.000000000001819
 10
74.61401846214267
 20
124.9165805452971
 30
0.000000000001819
 10
73.50480875498215
 20
125.9397595935229
 30
0.0
 10
71.20340689143086
 20
127.5997030018261
 30
0.000000000001819
 10
70.01098586460921
 20
128.2349251087157
 30
0.000000000001819
 10
67.65949971799455
 20
129.0204815709367
 30
0.000000000001819
 10
66.49713388469445
 20
129.1771004672819
 30
0.000000000001819
 10
64.56143858206633
 20
128.9715182598347
 30
0.000000000001819
 10
63.76215106158816
 20
128.7196881006562
 30
0.000000000001819
 10
63.05140005549493
 20
128.3103938173103
 30
0.000000000001819
  0
LINE
  5
359
330
70
100
AcDbEntity
  8
Hidden
100
AcDbLine
 10
66.733654
 20
122.353164
 30
0.0
 11
86.179091
 21
133.551046
 31
0.0
210
-0.7071067811864428
220
-0.4071957137923946
230
0.5780931159158105
  0
LINE
  5
35A
330
70
100
AcDbEntity
  8
Hidden
100
AcDbLine
 10
74.71817
 20
108.487829
 30
0.0
 11
94.163606
 21
119.685711
 31
0.0
210
-0.7071067811864428
220
-0.4071957137923946
230
0.5780931159158105
  0
LINE
  5
35B
330
70
100
AcDbEntity
  8
Hidden
100
AcDbLine
 10
64.8786
 20
121.977284
 30
0.0
 11
66.434235
 21
122.873114
 31
0.0
210
-0.7071067811864428
220
-0.4071957137923946
230
0.5780931159158105
  0
LINE
  5
35C
330
70
100
AcDbEntity
  8
Hidden
100
AcDbLine
 10
73.461954
 20
107.072049
 30
0.0
 11
75.017589
 21
107.967879
 31
0.0
210
-0.7071067811864428
220
-0.4071957137923946
230
0.5780931159158105
  0
LINE
  5
35D
330
70
100
AcDbEntity
  8
Visible
100
AcDbLine
 10
61.649439
 20
127.503058
 30
0.0
 11
63.0514
 21
128.310394
 31
0.0
210
-0.7071067811864428
220
-0.4071957137923946
230
0.5780931159158105
  0
LINE
  5
35E
330
70
100
AcDbEntity
  8
Visible
100
AcDbLine
 10
76.620405
 20
101.505555
 30
0.0
 11
78.022366
 21
102.312891
 31
0.0
210
-0.7071067811864428
220
-0.4071957137923946
230
0.5780931159158105
  0
LINE
  5
35F
330
70
100
AcDbEntity
  8
Hidden
100
AcDbLine
 10
67.036487
 20
124.835468
 30
0.0
 11
71.449221
 21
127.376592
 31
0.0
210
-0.7071067811864428
220
-0.4071957137923946
230
0.5780931159158105
  0
LINE
  5
360
330
70
100
AcDbEntity
  8
Visible
100
AcDbLine
 10
71.449221
 20
127.376592
 30
0.0
 11
74.683663
 21
129.239184
 31
0.0
210
-0.7071067811864428
220
-0.4071957137923946
230
0.5780931159158105
  0
LINE
  5
361
330
70
100
AcDbEntity
  8
Hidden
100
AcDbLine
 10
74.683663
 20
129.239184
 30
0.0
 11
80.683663
 21
132.694354
 31
0.0
210
-0.7071067811864428
220
-0.4071957137923946
230
0.5780931159158105
  0
LINE
  5
362
330
70
100
AcDbEntity
  8
Visible
100
AcDbLine
 10
80.683663
 20
132.694354
 30
0.0
 11
85.181026
 21
135.284213
 31
0.0
210
-0.7071067811864428
220
-0.4071957137923946
230
0.5780931159158105
  0
LINE
  5
363
330
70
100
AcDbEntity
  8
Hidden
100
AcDbLine
 10
77.017131
 20
107.503799
 30
0.0
 11
81.429865
 21
110.044923
 31
0.0
210
-0.7071067811864428
220
-0.4071957137923946
230
0.5780931159158105
  0
LINE
  5
364
330
70
100
AcDbEntity
  8
Visible
100
AcDbLine
 10
81.429865
 20
110.044923
 30
0.0
 11
95.161671
 21
117.952544
 31
0.0
210
-0.7071067811864428
220
-0.4071957137923946
230
0.5780931159158105
  0
ELLIPSE
  5
365
330
70
100
AcDbEntity
  8
Hidden
100
AcDbEllipse
 10
77.683663
 20
125.967576
 30
0.0
 11
-2.000000000000909
 21
0.0000000000015433
 31
-0.0000000000000002
210
-0.0000000000000001
220
0.0000000000000001
230
1.0
 40
0.5758617009846257
 41
0.0000000000013398
 42
6.283185307180925
  0
ELLIPSE
  5
366
330
70
100
AcDbEntity
  8
Visible
100
AcDbEllipse
 10
77.683663
 20
158.669461
 30
0.0
 11
2.0
 21
0.0000000000006103
 31
0.0000000000000002
210
-0.0000000000000001
220
0.0000000000000001
230
1.0
 40
0.5758617009851151
 41
3.141592653588867
 42
9.424777960768453
  0
ELLIPSE
  5
367
330
70
100
AcDbEntity
  8
Hidden
100
AcDbEllipse
 10
77.683663
 20
125.967576
 30
0.0
 11
-3.000000000000909
 21
0.0000000000033102
 31
-0.0000000000000005
210
0.0000000000000002
220
0.0000000000000002
230
-1.0
 40
0.5758617009852437
 41
1.570796326794261
 42
7.853981633973847
  0
ELLIPSE
  5
368
330
70
100
AcDbEntity
  8
Visible
100
AcDbEllipse
 10
77.683663
 20
158.669461
 30
0.0
 11
-2.999999999999999
 21
0.0000000000042468
 31
-0.0000000000000005
210
0.0000000000000002
220
0.0000000000000002
230
-1.0
 40
0.5758617009855699
 41
1.570796326793778
 42
7.853981633973364
  0
LINE
  5
369
330
70
100
AcDbEntity
  8
Hidden
100
AcDbLine
 10
79.683663
 20
158.669461
 30
0.0
 11
79.683663
 21
125.967576
 31
0.0
210
-0.7071067811864428
220
-0.4071957137923946
230
0.5780931159158105
  0
LINE
  5
36A
330
70
100
AcDbEntity
  8
Hidden
100
AcDbLine
 10
75.683663
 20
158.669461
 30
0.0
 11
75.683663
 21
125.967576
 31
0.0
210
-0.7071067811864428
220
-0.4071957137923946
230
0.5780931159158105
  0
LINE
  5
36B
330
70
100
AcDbEntity
  8
Visible
100
AcDbLine
 10
80.683663
 20
158.669461
 30
0.0
 11
80.683663
 21
127.416605
 31
0.0
210
-0.7071067811864428
220
-0.4071957137923946
230
0.5780931159158105
  0
LINE
  5
36C
330
70
100
AcDbEntity
  8
Hidden
100
AcDbLine
 10
80.683663
 20
127.416605
 30
0.0
 11
80.683663
 21
125.967576
 31
0.0
210
-0.7071067811864428
220
-0.4071957137923946
230
0.5780931159158105
  0
LINE
  5
36D
330
70
100
AcDbEntity
  8
Visible
100
AcDbLine
 10
74.683663
 20
158.669461
 30
0.0
 11
74.683663
 21
127.416605
 31
0.0
210
-0.7071067811864428
220
-0.4071957137923946
230
0.5780931159158105
  0
LINE
  5
36E
330
70
100
AcDbEntity
  8
Hidden
100
AcDbLine
 10
74.683663
 20
127.416605
 30
0.0
 11
74.683663
 21
125.967576
 31
0.0
210
-0.7071067811864428
220
-0.4071957137923946
230
0.5780931159158105
  0
LINE
  5
36F
330
70
100
AcDbEntity
  8
Hidden
100
AcDbLine
 10
151.618901
 20
113.648204
 30
0.0
 11
168.818901
 21
113.648204
 31
0.0
210
-0.0000000000000001
220
-1.0
230
0.0000000000002966
  0
LINE
  5
370
330
70
100
AcDbEntity
  8
Visible
100
AcDbLine
 10
145.468901
 20
113.348204
 30
0.0
 11
174.968901
 21
113.348204
 31
0.0
210
-0.0000000000000001
220
-1.0
230
0.0000000000002966
  0
LINE
  5
371
330
70
100
AcDbEntity
  8
Visible
100
AcDbLine
 10
175.218901
 20
113.598204
 30
0.0
 11
145.218901
 21
113.598204
 31
0.0
210
-0.0000000000000001
220
-1.0
230
0.0000000000002966
  0
LINE
  5
372
330
70
100
AcDbEntity
  8
Hidden
100
AcDbLine
 10
168.818901
 20
115.848204
 30
0.0
 11
151.618901
 21
115.848204
 31
0.0
210
-0.0000000000000001
220
-1.0
230
0.0000000000002966
  0
LINE
  5
373
330
70
100
AcDbEntity
  8
Visible
100
AcDbLine
 10
170.218901
 20
117.687949
 30
0.0
 11
150.218901
 21
117.687949
 31
0.0
210
-0.0000000000000001
220
-1.0
230
0.0000000000002966
  0
LINE
  5
374
330
70
100
AcDbEntity
  8
Visible
100
AcDbLine
 10
170.218901
 20
143.348204
 30
0.0
 11
150.218901
 21
143.348204
 31
0.0
210
-0.0000000000000001
220
-1.0
230
0.0000000000002966
  0
LINE
  5
375
330
70
100
AcDbEntity
  8
Hidden
100
AcDbLine
 10
168.818901
 20
113.648204
 30
0.0
 11
169.118901
 21
113.348204
 31
0.0
210
-0.0000000000000001
220
-1.0
230
0.0000000000002966
  0
LINE
  5
376
330
70
100
AcDbEntity
  8
Hidden
100
AcDbLine
 10
151.618901
 20
113.648204
 30
0.0
 11
151.318901
 21
113.348204
 31
0.0
210
-0.0000000000000001
220
-1.0
230
0.0000000000002966
  0
LINE
  5
377
330
70
100
AcDbEntity
  8
Visible
100
AcDbLine
 10
145.468901
 20
113.348204
 30
0.0
 11
145.218901
 21
113.598204
 31
0.0
210
-0.0000000000000001
220
-1.0
230
0.0000000000002966
  0
LINE
  5
378
330
70
100
AcDbEntity
  8
Visible
100
AcDbLine
 10
174.968901
 20
113.348204
 30
0.0
 11
175.218901
 21
113.598204
 31
0.0
210
-0.0000000000000001
220
-1.0
230
0.0000000000002966
  0
ARC
  5
379
330
70
100
AcDbEntity
  8
Visible
100
AcDbCircle
 10
-146.218901
 20
115.580877
 30
0.0
 40
1.0
210
0.0
220
0.0
230
-1.0
100
AcDbArc
 50
0.0
 51
75.0
  0
ARC
  5
37A
330
70
100
AcDbEntity
  8
Visible
100
AcDbCircle
 10
-174.218901
 20
115.580877
 30
0.0
 40
1.0
210
0.0
220
0.0
230
-1.0
100
AcDbArc
 50
105.0
 51
180.0
  0
LINE
  5
37B
330
70
100
AcDbEntity
  8
Hidden
100
AcDbLine
 10
152.218901
 20
115.848204
 30
0.0
 11
152.218901
 21
143.348204
 31
0.0
210
-0.0000000000000001
220
-1.0
230
0.0000000000002966
  0
LINE
  5
37C
330
70
100
AcDbEntity
  8
Hidden
100
AcDbLine
 10
168.218901
 20
115.848204
 30
0.0
 11
168.218901
 21
143.348204
 31
0.0
210
-0.0000000000000001
220
-1.0
230
0.0000000000002966
  0
LINE
  5
37D
330
70
100
AcDbEntity
  8
Hidden
100
AcDbLine
 10
151.618901
 20
113.648204
 30
0.0
 11
151.618901
 21
115.848204
 31
0.0
210
-0.0000000000000001
220
-1.0
230
0.0000000000002966
  0
LINE
  5
37E
330
70
100
AcDbEntity
  8
Hidden
100
AcDbLine
 10
168.818901
 20
113.648204
 30
0.0
 11
168.818901
 21
115.848204
 31
0.0
210
-0.0000000000000001
220
-1.0
230
0.0000000000002966
  0
LINE
  5
37F
330
70
100
AcDbEntity
  8
Visible
100
AcDbLine
 10
145.218901
 20
113.598204
 30
0.0
 11
145.218901
 21
115.580877
 31
0.0
210
-0.0000000000000001
220
-1.0
230
0.0000000000002966
  0
LINE
  5
380
330
70
100
AcDbEntity
  8
Visible
100
AcDbLine
 10
175.218901
 20
113.598204
 30
0.0
 11
175.218901
 21
115.580877
 31
0.0
210
-0.0000000000000001
220
-1.0
230
0.0000000000002966
  0
LINE
  5
381
330
70
100
AcDbEntity
  8
Visible
100
AcDbLine
 10
170.218901
 20
117.687949
 30
0.0
 11
174.47772
 21
116.546802
 31
0.0
210
-0.0000000000000001
220
-1.0
230
0.0000000000002966
  0
LINE
  5
382
330
70
100
AcDbEntity
  8
Visible
100
AcDbLine
 10
150.218901
 20
117.687949
 30
0.0
 11
145.960082
 21
116.546802
 31
0.0
210
-0.0000000000000001
220
-1.0
230
0.0000000000002966
  0
LINE
  5
383
330
70
100
AcDbEntity
  8
Visible
100
AcDbLine
 10
150.218901
 20
117.687949
 30
0.0
 11
150.218901
 21
143.348204
 31
0.0
210
-0.0000000000000001
220
-1.0
230
0.0000000000002966
  0
LINE
  5
384
330
70
100
AcDbEntity
  8
Visible
100
AcDbLine
 10
170.218901
 20
117.687949
 30
0.0
 11
170.218901
 21
143.348204
 31
0.0
210
-0.0000000000000001
220
-1.0
230
0.0000000000002966
  0
CIRCLE
  5
385
330
70
100
AcDbEntity
  8
Visible
100
AcDbCircle
 10
160.218901
 20
125.687949
 30
0.0
 40
2.0
  0
CIRCLE
  5
386
330
70
100
AcDbEntity
  8
Visible
100
AcDbCircle
 10
-160.218901
 20
125.687949
 30
0.0
 40
3.0
210
0.0
220
0.0
230
-1.0
  0
ENDSEC
  0
SECTION
  2
OBJECTS
  0
DICTIONARY
  5
C
330
0
100
AcDbDictionary
281
     1
  3
ACAD_COLOR
350
63
  3
ACAD_DETAILVIEWSTYLE
350
6A
  3
ACAD_GROUP
350
D
  3
ACAD_LAYOUT
350
62
  3
ACAD_MATERIAL
350
10
  3
ACAD_MLEADERSTYLE
350
66
  3
ACAD_MLINESTYLE
350
5F
  3
ACAD_PLOTSETTINGS
350
61
  3
ACAD_PLOTSTYLENAME
350
E
  3
ACAD_SCALELIST
350
42
  3
ACAD_SECTIONVIEWSTYLE
350
68
  3
ACAD_TABLESTYLE
350
64
  3
ACAD_VISUALSTYLE
350
29
  3
ACDB_RECOMPOSE_DATA
350
3FE
  3
AcDbVariableDictionary
350
3F5
  0
DICTIONARY
  5
AE
330
70
100
AcDbDictionary
280
     1
281
     1
  3
ACAD_SORTENTS
360
14A
  0
DICTIONARY
  5
14E
330
14D
100
AcDbDictionary
280
     1
281
     1
  3
ACAD_SORTENTS
360
306
  0
DICTIONARY
  5
164
330
163
100
AcDbDictionary
280
     1
281
     1
  3
ACAD_SORTENTS
360
307
  0
DICTIONARY
  5
17F
330
17E
100
AcDbDictionary
280
     1
281
     1
  0
DICTIONARY
  5
181
330
180
100
AcDbDictionary
280
     1
281
     1
  0
DICTIONARY
  5
183
330
182
100
AcDbDictionary
280
     1
281
     1
  0
DICTIONARY
  5
185
330
184
100
AcDbDictionary
280
     1
281
     1
  0
DICTIONARY
  5
187
330
186
100
AcDbDictionary
280
     1
281
     1
  0
DICTIONARY
  5
189
330
188
100
AcDbDictionary
280
     1
281
     1
  0
DICTIONARY
  5
18B
330
18A
100
AcDbDictionary
280
     1
281
     1
  0
DICTIONARY
  5
18D
330
18C
100
AcDbDictionary
280
     1
281
     1
  0
DICTIONARY
  5
18F
330
18E
100
AcDbDictionary
280
     1
281
     1
  0
DICTIONARY
  5
191
330
190
100
AcDbDictionary
280
     1
281
     1
  0
DICTIONARY
  5
193
330
192
100
AcDbDictionary
280
     1
281
     1
  0
DICTIONARY
  5
195
330
194
100
AcDbDictionary
280
     1
281
     1
  0
DICTIONARY
  5
197
330
196
100
AcDbDictionary
280
     1
281
     1
  0
DICTIONARY
  5
199
330
198
100
AcDbDictionary
280
     1
281
     1
  0
DICTIONARY
  5
19B
330
19A
100
AcDbDictionary
280
     1
281
     1
  0
DICTIONARY
  5
63
102
{ACAD_REACTORS
330
C
102
}
330
C
100
AcDbDictionary
281
     1
  0
DICTIONARY
  5
6A
102
{ACAD_REACTORS
330
C
102
}
330
C
100
AcDbDictionary
281
     1
  3
Imperial24
350
6B
  0
DICTIONARY
  5
D
102
{ACAD_REACTORS
330
C
102
}
330
C
100
AcDbDictionary
281
     1
  0
DICTIONARY
  5
62
102
{ACAD_REACTORS
330
C
102
}
330
C
100
AcDbDictionary
281
     1
  3
Model
350
73
  3
Sheet1
350
6F
  3
Sheet2
350
77
  0
DICTIONARY
  5
10
102
{ACAD_REACTORS
330
C
102
}
330
C
100
AcDbDictionary
281
     1
  3
ByBlock
350
19
  3
ByLayer
350
11
  3
Global
350
21
  0
DICTIONARY
  5
66
102
{ACAD_REACTORS
330
C
102
}
330
C
100
AcDbDictionary
281
     1
  3
Standard
350
67
  0
DICTIONARY
  5
5F
102
{ACAD_REACTORS
330
C
102
}
330
C
100
AcDbDictionary
281
     1
  3
Standard
350
60
  0
DICTIONARY
  5
61
102
{ACAD_REACTORS
330
C
102
}
330
C
100
AcDbDictionary
281
     1
  0
ACDBDICTIONARYWDFLT
  5
E
102
{ACAD_REACTORS
330
C
102
}
330
C
100
AcDbDictionary
281
     1
  3
Normal
350
F
100
AcDbDictionaryWithDefault
340
F
  0
DICTIONARY
  5
42
102
{ACAD_REACTORS
330
C
102
}
330
C
100
AcDbDictionary
281
     1
  3
A0
350
43
  3
A1
350
44
  3
A2
350
45
  3
A3
350
46
  3
A4
350
47
  3
A5
350
48
  3
A6
350
49
  3
A7
350
4A
  3
A8
350
4B
  3
A9
350
4C
  3
B0
350
4D
  3
B1
350
4E
  3
B2
350
4F
  3
B3
350
50
  3
B4
350
51
  3
B5
350
52
  3
B6
350
53
  0
DICTIONARY
  5
68
102
{ACAD_REACTORS
330
C
102
}
330
C
100
AcDbDictionary
281
     1
  3
Imperial24
350
69
  0
DICTIONARY
  5
64
102
{ACAD_REACTORS
330
C
102
}
330
C
100
AcDbDictionary
281
     1
  3
Standard
350
65
  0
DICTIONARY
  5
29
102
{ACAD_REACTORS
330
C
102
}
330
C
100
AcDbDictionary
281
     1
  3
2dWireframe
350
2F
  3
Basic
350
2E
  3
Brighten
350
35
  3
ColorChange
350
39
  3
Conceptual
350
32
  3
Dim
350
34
  3
EdgeColorOff
350
41
  3
Facepattern
350
38
  3
Flat
350
2A
  3
FlatWithEdges
350
2B
  3
Gouraud
350
2C
  3
GouraudWithEdges
350
2D
  3
Hidden
350
31
  3
JitterOff
350
3F
  3
Linepattern
350
37
  3
OverhangOff
350
40
  3
Realistic
350
33
  3
Shaded
350
3E
  3
Shaded with edges
350
3D
  3
Shades of Gray
350
3A
  3
Sketchy
350
3B
  3
Thicken
350
36
  3
Wireframe
350
30
  3
X-Ray
350
3C
  0
XRECORD
  5
3FE
102
{ACAD_REACTORS
330
C
102
}
330
C
100
AcDbXrecord
280
     1
 90
        1
330
65
  0
DICTIONARY
  5
3F5
102
{ACAD_REACTORS
330
C
102
}
330
C
100
AcDbDictionary
281
     1
  3
ANNOALLVISIBLE
350
3FA
  3
CANNOSCALE
350
3FB
  3
CMLEADERSTYLE
350
3F7
  3
CTABLESTYLE
350
3F6
  3
CVIEWDETAILSTYLE
350
3F8
  3
CVIEWSECTIONSTYLE
350
3F9
  0
SORTENTSTABLE
  5
14A
102
{ACAD_REACTORS
330
AE
102
}
330
AE
100
AcDbSortentsTable
330
70
  0
SORTENTSTABLE
  5
306
102
{ACAD_REACTORS
330
14E
102
}
330
14E
100
AcDbSortentsTable
330
14D
  0
SORTENTSTABLE
  5
307
102
{ACAD_REACTORS
330
164
102
}
330
164
100
AcDbSortentsTable
330
163
  0
ACDBDETAILVIEWSTYLE
  5
6B
102
{ACAD_XDICTIONARY
360
401
102
}
102
{ACAD_REACTORS
330
6A
102
}
330
6A
100
AcDbModelDocViewStyle
 70
     0
  3
Imperial24
290
     0
100
AcDbDetailViewStyle
 70
     0
 71
     0
 90
        3
 71
     1
340
55
 62
   256
 40
0.24
340
0
 62
   256
 40
0.24
300

 40
0.36
280
     3
 71
     2
340
5D
 90
       25
 62
   256
 71
     3
340
55
 62
   256
 40
0.24
 90
        1
 40
0.75
 90
        1
300
%<\AcVar ViewType \f "%tc1">% %<\AcVar ViewDetailId>%\PSCALE %<\AcVar ViewScale \f "%sn">%
 71
     4
340
5D
 90
       25
 62
   256
340
5D
 90
       25
 62
   256
280
     0
  0
LAYOUT
  5
73
102
{ACAD_REACTORS
330
62
102
}
330
62
100
AcDbPlotSettings
  1

  2
AutoCAD PDF (High Quality Print).pc3
  4
ISO_full_bleed_A4_(210.00_x_297.00_MM)
  6

 40
0.0
 41
0.0
 42
0.0
 43
0.0
 44
210.0
 45
297.0
 46
0.0
 47
0.0
 48
0.0
 49
0.0
140
0.0
141
0.0
142
1.0
143
2.920634
 70
 11952
 72
     1
 73
     0
 74
     0
  7

 75
     0
147
0.342391
 76
     0
 77
     2
 78
   300
148
176.977025
149
-8.752665
100
AcDbLayout
  1
Model
 70
     1
 71
     0
 10
0.0
 20
0.0
 11
12.0
 21
9.0
 12
0.0
 22
0.0
 32
0.0
 14
0.0
 24
0.0
 34
0.0
 15
0.0
 25
0.0
 35
0.0
146
0.0
 13
0.0
 23
0.0
 33
0.0
 16
1.0
 26
0.0
 36
0.0
 17
0.0
 27
1.0
 37
0.0
 76
     0
330
70
1001
ACAD_PSEXT
1000
AutoCAD PDF (High Quality Print).pc3
1000
DWG To PDF
1000
File
1000

1070
     0
  0
LAYOUT
  5
6F
102
{ACAD_REACTORS
330
62
102
}
330
62
100
AcDbPlotSettings
  1

  2
None
  4

  6

 40
0.0
 41
0.0
 42
0.0
 43
0.0
 44
0.0
 45
0.0
 46
0.0
 47
0.0
 48
0.0
 49
0.0
140
0.0
141
0.0
142
1.0
143
1.0
 70
   688
 72
     0
 73
     0
 74
     5
  7

 75
    16
147
1.0
 76
     0
 77
     2
 78
   300
148
0.0
149
0.0
100
AcDbLayout
  1
Sheet1
 70
     1
 71
     1
 10
0.0
 20
0.0
 11
12.0
 21
9.0
 12
0.0
 22
0.0
 32
0.0
 14
0.0
 24
0.0
 34
0.0
 15
0.0
 25
0.0
 35
0.0
146
0.0
 13
0.0
 23
0.0
 33
0.0
 16
1.0
 26
0.0
 36
0.0
 17
0.0
 27
1.0
 37
0.0
 76
     0
330
6C
  0
LAYOUT
  5
77
102
{ACAD_REACTORS
330
62
102
}
330
62
100
AcDbPlotSettings
  1

  2
None
  4

  6

 40
0.0
 41
0.0
 42
0.0
 43
0.0
 44
0.0
 45
0.0
 46
0.0
 47
0.0
 48
0.0
 49
0.0
140
0.0
141
0.0
142
1.0
143
1.0
 70
   688
 72
     0
 73
     0
 74
     5
  7

 75
    16
147
1.0
 76
     0
 77
     2
 78
   300
148
0.0
149
0.0
100
AcDbLayout
  1
Sheet2
 70
     1
 71
     2
 10
0.0
 20
0.0
 11
12.0
 21
9.0
 12
0.0
 22
0.0
 32
0.0
 14
0.0
 24
0.0
 34
0.0
 15
0.0
 25
0.0
 35
0.0
146
0.0
 13
0.0
 23
0.0
 33
0.0
 16
1.0
 26
0.0
 36
0.0
 17
0.0
 27
1.0
 37
0.0
 76
     0
330
74
  0
MATERIAL
  5
19
102
{ACAD_XDICTIONARY
360
1A
102
}
102
{ACAD_REACTORS
330
10
102
}
330
10
100
AcDbMaterial
  1
ByBlock
 72
     0
 43
0.020833
 43
0.0
 43
0.0
 43
0.0
 43
0.0
 43
0.020833
 43
0.0
 43
0.0
 43
0.0
 43
0.0
 43
1.0
 43
0.0
 43
0.0
 43
0.0
 43
0.0
 43
1.0
 77
     0
 47
0.020833
 47
0.0
 47
0.0
 47
0.0
 47
0.0
 47
0.020833
 47
0.0
 47
0.0
 47
0.0
 47
0.0
 47
1.0
 47
0.0
 47
0.0
 47
0.0
 47
0.0
 47
1.0
171
     0
 49
0.020833
 49
0.0
 49
0.0
 49
0.0
 49
0.0
 49
0.020833
 49
0.0
 49
0.0
 49
0.0
 49
0.0
 49
1.0
 49
0.0
 49
0.0
 49
0.0
 49
0.0
 49
1.0
175
     0
142
0.020833
142
0.0
142
0.0
142
0.0
142
0.0
142
0.020833
142
0.0
142
0.0
142
0.0
142
0.0
142
1.0
142
0.0
142
0.0
142
0.0
142
0.0
142
1.0
179
     0
144
0.020833
144
0.0
144
0.0
144
0.0
144
0.0
144
0.020833
144
0.0
144
0.0
144
0.0
144
0.0
144
1.0
144
0.0
144
0.0
144
0.0
144
0.0
144
1.0
147
0.020833
147
0.0
147
0.0
147
0.0
147
0.0
147
0.020833
147
0.0
147
0.0
147
0.0
147
0.0
147
1.0
147
0.0
147
0.0
147
0.0
147
0.0
147
1.0
  0
MATERIAL
  5
11
102
{ACAD_XDICTIONARY
360
12
102
}
102
{ACAD_REACTORS
330
10
102
}
330
10
100
AcDbMaterial
  1
ByLayer
 72
     0
 43
0.020833
 43
0.0
 43
0.0
 43
0.0
 43
0.0
 43
0.020833
 43
0.0
 43
0.0
 43
0.0
 43
0.0
 43
1.0
 43
0.0
 43
0.0
 43
0.0
 43
0.0
 43
1.0
 77
     0
 47
0.020833
 47
0.0
 47
0.0
 47
0.0
 47
0.0
 47
0.020833
 47
0.0
 47
0.0
 47
0.0
 47
0.0
 47
1.0
 47
0.0
 47
0.0
 47
0.0
 47
0.0
 47
1.0
171
     0
 49
0.020833
 49
0.0
 49
0.0
 49
0.0
 49
0.0
 49
0.020833
 49
0.0
 49
0.0
 49
0.0
 49
0.0
 49
1.0
 49
0.0
 49
0.0
 49
0.0
 49
0.0
 49
1.0
175
     0
142
0.020833
142
0.0
142
0.0
142
0.0
142
0.0
142
0.020833
142
0.0
142
0.0
142
0.0
142
0.0
142
1.0
142
0.0
142
0.0
142
0.0
142
0.0
142
1.0
179
     0
144
0.020833
144
0.0
144
0.0
144
0.0
144
0.0
144
0.020833
144
0.0
144
0.0
144
0.0
144
0.0
144
1.0
144
0.0
144
0.0
144
0.0
144
0.0
144
1.0
147
0.020833
147
0.0
147
0.0
147
0.0
147
0.0
147
0.020833
147
0.0
147
0.0
147
0.0
147
0.0
147
1.0
147
0.0
147
0.0
147
0.0
147
0.0
147
1.0
  0
MATERIAL
  5
21
102
{ACAD_XDICTIONARY
360
22
102
}
102
{ACAD_REACTORS
330
10
102
}
330
10
100
AcDbMaterial
  1
Global
 72
     0
 43
0.020833
 43
0.0
 43
0.0
 43
0.0
 43
0.0
 43
0.020833
 43
0.0
 43
0.0
 43
0.0
 43
0.0
 43
1.0
 43
0.0
 43
0.0
 43
0.0
 43
0.0
 43
1.0
 77
     0
 47
0.020833
 47
0.0
 47
0.0
 47
0.0
 47
0.0
 47
0.020833
 47
0.0
 47
0.0
 47
0.0
 47
0.0
 47
1.0
 47
0.0
 47
0.0
 47
0.0
 47
0.0
 47
1.0
171
     0
 49
0.020833
 49
0.0
 49
0.0
 49
0.0
 49
0.0
 49
0.020833
 49
0.0
 49
0.0
 49
0.0
 49
0.0
 49
1.0
 49
0.0
 49
0.0
 49
0.0
 49
0.0
 49
1.0
175
     0
142
0.020833
142
0.0
142
0.0
142
0.0
142
0.0
142
0.020833
142
0.0
142
0.0
142
0.0
142
0.0
142
1.0
142
0.0
142
0.0
142
0.0
142
0.0
142
1.0
179
     0
144
0.020833
144
0.0
144
0.0
144
0.0
144
0.0
144
0.020833
144
0.0
144
0.0
144
0.0
144
0.0
144
1.0
144
0.0
144
0.0
144
0.0
144
0.0
144
1.0
147
0.020833
147
0.0
147
0.0
147
0.0
147
0.0
147
0.020833
147
0.0
147
0.0
147
0.0
147
0.0
147
1.0
147
0.0
147
0.0
147
0.0
147
0.0
147
1.0
  0
MLEADERSTYLE
  5
67
102
{ACAD_REACTORS
330
66
102
}
330
66
100
AcDbMLeaderStyle
179
     2
170
     2
171
     1
172
     0
 90
        2
 40
0.0
 41
0.0
173
     1
 91
-1056964608
340
5B
 92
       -2
290
     1
 42
0.09
291
     1
 43
0.36
  3
Standard
 44
0.18
300

342
55
174
     1
178
     6
175
     1
176
     0
 93
-1056964608
 45
0.18
292
     0
297
     0
 46
0.18
 94
-1056964608
 47
1.0
 49
1.0
140
1.0
293
     1
141
0.0
294
     1
177
     0
142
1.0
295
     0
296
     0
143
0.125
271
     0
272
     9
273
     9
298
     1
  0
MLINESTYLE
  5
60
102
{ACAD_REACTORS
330
5F
102
}
330
5F
100
AcDbMlineStyle
  2
STANDARD
 70
     0
  3

 62
   256
 51
90.0
 52
90.0
 71
     0
  0
ACDBPLACEHOLDER
  5
F
102
{ACAD_REACTORS
330
E
102
}
330
E
  0
SCALE
  5
43
102
{ACAD_REACTORS
330
42
102
}
330
42
100
AcDbScale
 70
     0
300
1:1
140
1.0
141
1.0
290
     1
  0
SCALE
  5
44
102
{ACAD_REACTORS
330
42
102
}
330
42
100
AcDbScale
 70
     0
300
1:2
140
1.0
141
2.0
290
     0
  0
SCALE
  5
45
102
{ACAD_REACTORS
330
42
102
}
330
42
100
AcDbScale
 70
     0
300
1:4
140
1.0
141
4.0
290
     0
  0
SCALE
  5
46
102
{ACAD_REACTORS
330
42
102
}
330
42
100
AcDbScale
 70
     0
300
1:5
140
1.0
141
5.0
290
     0
  0
SCALE
  5
47
102
{ACAD_REACTORS
330
42
102
}
330
42
100
AcDbScale
 70
     0
300
1:8
140
1.0
141
8.0
290
     0
  0
SCALE
  5
48
102
{ACAD_REACTORS
330
42
102
}
330
42
100
AcDbScale
 70
     0
300
1:10
140
1.0
141
10.0
290
     0
  0
SCALE
  5
49
102
{ACAD_REACTORS
330
42
102
}
330
42
100
AcDbScale
 70
     0
300
1:16
140
1.0
141
16.0
290
     0
  0
SCALE
  5
4A
102
{ACAD_REACTORS
330
42
102
}
330
42
100
AcDbScale
 70
     0
300
1:20
140
1.0
141
20.0
290
     0
  0
SCALE
  5
4B
102
{ACAD_REACTORS
330
42
102
}
330
42
100
AcDbScale
 70
     0
300
1:30
140
1.0
141
30.0
290
     0
  0
SCALE
  5
4C
102
{ACAD_REACTORS
330
42
102
}
330
42
100
AcDbScale
 70
     0
300
1:40
140
1.0
141
40.0
290
     0
  0
SCALE
  5
4D
102
{ACAD_REACTORS
330
42
102
}
330
42
100
AcDbScale
 70
     0
300
1:50
140
1.0
141
50.0
290
     0
  0
SCALE
  5
4E
102
{ACAD_REACTORS
330
42
102
}
330
42
100
AcDbScale
 70
     0
300
1:100
140
1.0
141
100.0
290
     0
  0
SCALE
  5
4F
102
{ACAD_REACTORS
330
42
102
}
330
42
100
AcDbScale
 70
     0
300
2:1
140
2.0
141
1.0
290
     0
  0
SCALE
  5
50
102
{ACAD_REACTORS
330
42
102
}
330
42
100
AcDbScale
 70
     0
300
4:1
140
4.0
141
1.0
290
     0
  0
SCALE
  5
51
102
{ACAD_REACTORS
330
42
102
}
330
42
100
AcDbScale
 70
     0
300
8:1
140
8.0
141
1.0
290
     0
  0
SCALE
  5
52
102
{ACAD_REACTORS
330
42
102
}
330
42
100
AcDbScale
 70
     0
300
10:1
140
10.0
141
1.0
290
     0
  0
SCALE
  5
53
102
{ACAD_REACTORS
330
42
102
}
330
42
100
AcDbScale
 70
     0
300
100:1
140
100.0
141
1.0
290
     0
  0
ACDBSECTIONVIEWSTYLE
  5
69
102
{ACAD_XDICTIONARY
360
3FF
102
}
102
{ACAD_REACTORS
330
68
102
}
330
68
100
AcDbModelDocViewStyle
 70
     0
  3
Imperial24
290
     0
100
AcDbSectionViewStyle
 70
     0
 71
     0
 90
       78
 71
     1
340
55
 62
   256
 40
0.24
340
0
340
0
 62
   256
 40
0.24
300
I, O, Q, S, X, Z
 40
0.48
 90
        3
 40
0.18
 90
        1
 71
     2
340
5D
 90
       25
 62
   256
340
5D
 90
       50
 62
   256
 40
0.24
 40
0.0
 40
0.24
 71
     3
340
55
 62
   256
 40
0.24
 90
        1
 40
0.75
 90
        1
300
%<\AcVar ViewType \f "%tc1">% %<\AcVar ViewSectionStartId>%-%<\AcVar ViewSectionEndId>%\PSCALE %<\AcVar ViewScale \f "%sn">%
 71
     4
 62
   256
 62
   257
300
ANSI31
 40
1.0
 90
        0
290
     0
290
     0
 90
        6
 40
0.0
 40
1.570796
 40
0.261799
 40
1.308997
 40
-0.261799
 40
1.832596
  0
TABLESTYLE
  5
65
102
{ACAD_XDICTIONARY
360
3FC
102
}
102
{ACAD_REACTORS
330
64
102
}
330
64
100
AcDbTableStyle
280
     0
  3
Standard
 70
     0
 71
     0
 40
1.5
 41
1.5
280
     0
281
     0
  7
Standard
140
0.18
170
     2
 62
     0
 63
     7
283
     0
 90
      512
 91
        0
  1

274
    -2
284
     1
 64
     0
275
    -2
285
     1
 65
     0
276
    -2
286
     1
 66
     0
277
    -2
287
     1
 67
     0
278
    -2
288
     1
 68
     0
279
    -2
289
     1
 69
     0
  7
Standard
140
0.25
170
     5
 62
     0
 63
     7
283
     0
 90
      512
 91
        0
  1

274
    -2
284
     1
 64
     0
275
    -2
285
     1
 65
     0
276
    -2
286
     1
 66
     0
277
    -2
287
     1
 67
     0
278
    -2
288
     1
 68
     0
279
    -2
289
     1
 69
     0
  7
Standard
140
0.18
170
     5
 62
     0
 63
     7
283
     0
 90
      512
 91
        0
  1

274
    -2
284
     1
 64
     0
275
    -2
285
     1
 65
     0
276
    -2
286
     1
 66
     0
277
    -2
287
     1
 67
     0
278
    -2
288
     1
 68
     0
279
    -2
289
     1
 69
     0
  0
VISUALSTYLE
  5
2F
102
{ACAD_REACTORS
330
29
102
}
330
29
100
AcDbVisualStyle
  2
2dWireframe
 70
     4
177
     3
291
     0
 70
    58
 90
        0
176
     1
 90
        2
176
     1
 90
        0
176
     1
 90
        0
176
     1
 40
0.6
176
     1
 40
30.0
176
     1
 62
     7
420
 16777215
176
     1
 90
        1
176
     1
 90
        4
176
     1
 62
     7
176
     1
 62
   257
176
     1
 90
        1
176
     1
 90
        1
176
     1
 40
1.0
176
     1
 90
        0
176
     1
 62
   257
176
     1
 40
1.0
176
     1
 90
        1
176
     1
 90
        6
176
     1
 90
        2
176
     1
 62
     7
176
     1
 90
        5
176
     1
 90
        0
176
     1
 90
        0
176
     1
290
     0
176
     1
 90
        1
176
     1
 40
0.0
176
     1
 90
        0
176
     1
290
     1
176
     1
290
     1
176
     1
290
     0
176
     1
290
     0
176
     1
290
     0
176
     1
290
     0
176
     1
290
     0
176
     1
290
     0
176
     1
290
     0
176
     1
 90
       50
176
     1
 40
0.0
176
     1
 40
1.0
176
     1
 90
        0
176
     1
 62
    18
420
        0
176
     1
 90
       50
176
     1
 90
        3
176
     1
 62
     5
420
      255
176
     1
290
     0
176
     1
 90
       50
176
     1
 90
       50
176
     1
 90
       50
176
     1
290
     0
176
     1
 90
       50
176
     1
 62
   256
176
     0
 40
1.0
176
     0
 90
        2
176
     1
  1
strokes_ogs.tif
176
     1
290
     0
176
     1
 40
1.0
176
     1
 40
1.0
176
     1
1001
ACAD
1000
AcDbSavedByObjectVersion
1070
     0
  0
VISUALSTYLE
  5
2E
102
{ACAD_REACTORS
330
29
102
}
330
29
100
AcDbVisualStyle
  2
Basic
 70
     7
177
     3
291
     1
 70
    58
 90
        1
176
     1
 90
        0
176
     1
 90
        1
176
     1
 90
        0
176
     1
 40
0.6
176
     1
 40
30.0
176
     1
 62
     7
420
 16777215
176
     1
 90
        0
176
     1
 90
        4
176
     1
 62
     7
176
     1
 62
   257
176
     1
 90
        1
176
     1
 90
        1
176
     1
 40
1.0
176
     1
 90
        8
176
     1
 62
     7
176
     1
 40
1.0
176
     1
 90
        1
176
     1
 90
        6
176
     1
 90
        2
176
     1
 62
     7
176
     1
 90
        5
176
     1
 90
        0
176
     1
 90
        0
176
     1
290
     0
176
     1
 90
        1
176
     1
 40
0.0
176
     1
 90
        0
176
     1
290
     0
176
     1
290
     1
176
     1
290
     1
176
     1
290
     0
176
     1
290
     0
176
     1
290
     0
176
     1
290
     0
176
     1
290
     0
176
     1
290
     0
176
     1
 90
       50
176
     1
 40
0.0
176
     1
 40
1.0
176
     1
 90
        0
176
     1
 62
    18
420
        0
176
     1
 90
       50
176
     1
 90
        3
176
     1
 62
     5
420
      255
176
     1
290
     0
176
     1
 90
       50
176
     1
 90
       50
176
     1
 90
       50
176
     1
290
     0
176
     1
 90
       50
176
     1
 62
   256
176
     0
 40
1.0
176
     0
 90
        2
176
     1
  1
strokes_ogs.tif
176
     1
290
     0
176
     1
 40
1.0
176
     1
 40
1.0
176
     1
1001
ACAD
1000
AcDbSavedByObjectVersion
1070
     0
  0
VISUALSTYLE
  5
35
102
{ACAD_REACTORS
330
29
102
}
330
29
100
AcDbVisualStyle
  2
Brighten
 70
    12
177
     3
291
     1
 70
    58
 90
        2
176
     1
 90
        2
176
     1
 90
        0
176
     1
 90
        0
176
     1
 40
0.6
176
     1
 40
30.0
176
     1
 62
     7
420
 16777215
176
     1
 90
        1
176
     1
 90
        4
176
     1
 62
     7
176
     1
 62
   257
176
     1
 90
        1
176
     1
 90
        1
176
     1
 40
1.0
176
     1
 90
        8
176
     1
 62
     7
176
     1
 40
1.0
176
     1
 90
        1
176
     1
 90
        6
176
     1
 90
        2
176
     1
 62
     7
176
     1
 90
        5
176
     1
 90
        0
176
     1
 90
        0
176
     1
290
     0
176
     1
 90
        1
176
     1
 40
50.0
176
     1
 90
        0
176
     1
290
     0
176
     1
290
     1
176
     1
290
     1
176
     1
290
     0
176
     1
290
     0
176
     1
290
     0
176
     1
290
     0
176
     1
290
     0
176
     1
290
     0
176
     1
 90
       50
176
     1
 40
0.0
176
     1
 40
1.0
176
     1
 90
        0
176
     1
 62
    18
420
        0
176
     1
 90
       50
176
     1
 90
        3
176
     1
 62
     5
420
      255
176
     1
290
     0
176
     1
 90
       50
176
     1
 90
       50
176
     1
 90
       50
176
     1
290
     0
176
     1
 90
       50
176
     1
 62
   256
176
     0
 40
1.0
176
     0
 90
        2
176
     1
  1
strokes_ogs.tif
176
     1
290
     0
176
     1
 40
1.0
176
     1
 40
1.0
176
     1
1001
ACAD
1000
AcDbSavedByObjectVersion
1070
     0
  0
VISUALSTYLE
  5
39
102
{ACAD_REACTORS
330
29
102
}
330
29
100
AcDbVisualStyle
  2
ColorChange
 70
    16
177
     3
291
     1
 70
    58
 90
        2
176
     1
 90
        2
176
     1
 90
        3
176
     1
 90
        0
176
     1
 40
0.6
176
     1
 40
30.0
176
     1
 62
     8
420
  8421504
176
     1
 90
        1
176
     1
 90
        4
176
     1
 62
     7
176
     1
 62
   257
176
     1
 90
        1
176
     1
 90
        1
176
     1
 40
1.0
176
     1
 90
        8
176
     1
 62
     8
420
  8421504
176
     1
 40
1.0
176
     1
 90
        1
176
     1
 90
        6
176
     1
 90
        2
176
     1
 62
     7
176
     1
 90
        5
176
     1
 90
        0
176
     1
 90
        0
176
     1
290
     0
176
     1
 90
        1
176
     1
 40
0.0
176
     1
 90
        0
176
     1
290
     0
176
     1
290
     1
176
     1
290
     1
176
     1
290
     0
176
     1
290
     0
176
     1
290
     0
176
     1
290
     0
176
     1
290
     0
176
     1
290
     0
176
     1
 90
       50
176
     1
 40
0.0
176
     1
 40
1.0
176
     1
 90
        0
176
     1
 62
    18
420
        0
176
     1
 90
       50
176
     1
 90
        3
176
     1
 62
     5
420
      255
176
     1
290
     0
176
     1
 90
       50
176
     1
 90
       50
176
     1
 90
       50
176
     1
290
     0
176
     1
 90
       50
176
     1
 62
   256
176
     0
 40
1.0
176
     0
 90
        2
176
     1
  1
strokes_ogs.tif
176
     1
290
     0
176
     1
 40
1.0
176
     1
 40
1.0
176
     1
1001
ACAD
1000
AcDbSavedByObjectVersion
1070
     0
  0
VISUALSTYLE
  5
32
102
{ACAD_REACTORS
330
29
102
}
330
29
100
AcDbVisualStyle
  2
Conceptual
 70
     9
177
     3
291
     0
 70
    58
 90
        3
176
     1
 90
        2
176
     1
 90
        0
176
     1
 90
        0
176
     1
 40
0.6
176
     1
 40
30.0
176
     1
 62
     7
420
 16777215
176
     1
 90
        2
176
     1
 90
        2
176
     1
 62
     7
176
     1
 62
   257
176
     1
 90
        1
176
     1
 90
        1
176
     1
 40
179.0
176
     1
 90
        8
176
     1
 62
     7
176
     1
 40
1.0
176
     1
 90
        1
176
     1
 90
        6
176
     1
 90
        2
176
     1
 62
     7
176
     1
 90
        3
176
     1
 90
        0
176
     1
 90
        0
176
     1
290
     0
176
     1
 90
        1
176
     1
 40
0.0
176
     1
 90
        0
176
     1
290
     0
176
     1
290
     1
176
     1
290
     1
176
     1
290
     0
176
     1
290
     0
176
     1
290
     0
176
     1
290
     0
176
     1
290
     0
176
     1
290
     0
176
     1
 90
       50
176
     1
 40
0.0
176
     1
 40
1.0
176
     1
 90
        0
176
     1
 62
    18
420
        0
176
     1
 90
       50
176
     1
 90
        3
176
     1
 62
     5
420
      255
176
     1
290
     0
176
     1
 90
       50
176
     1
 90
       50
176
     1
 90
       50
176
     1
290
     0
176
     1
 90
       50
176
     1
 62
   256
176
     0
 40
1.0
176
     0
 90
        2
176
     1
  1
strokes_ogs.tif
176
     1
290
     0
176
     1
 40
1.0
176
     1
 40
1.0
176
     1
1001
ACAD
1000
AcDbSavedByObjectVersion
1070
     0
  0
VISUALSTYLE
  5
34
102
{ACAD_REACTORS
330
29
102
}
330
29
100
AcDbVisualStyle
  2
Dim
 70
    11
177
     3
291
     1
 70
    58
 90
        2
176
     1
 90
        2
176
     1
 90
        0
176
     1
 90
        0
176
     1
 40
0.6
176
     1
 40
30.0
176
     1
 62
     7
420
 16777215
176
     1
 90
        1
176
     1
 90
        4
176
     1
 62
     7
176
     1
 62
   257
176
     1
 90
        1
176
     1
 90
        1
176
     1
 40
1.0
176
     1
 90
        8
176
     1
 62
     7
176
     1
 40
1.0
176
     1
 90
        1
176
     1
 90
        6
176
     1
 90
        2
176
     1
 62
     7
176
     1
 90
        5
176
     1
 90
        0
176
     1
 90
        0
176
     1
290
     0
176
     1
 90
        1
176
     1
 40
-50.0
176
     1
 90
        0
176
     1
290
     0
176
     1
290
     1
176
     1
290
     1
176
     1
290
     0
176
     1
290
     0
176
     1
290
     0
176
     1
290
     0
176
     1
290
     0
176
     1
290
     0
176
     1
 90
       50
176
     1
 40
0.0
176
     1
 40
1.0
176
     1
 90
        0
176
     1
 62
    18
420
        0
176
     1
 90
       50
176
     1
 90
        3
176
     1
 62
     5
420
      255
176
     1
290
     0
176
     1
 90
       50
176
     1
 90
       50
176
     1
 90
       50
176
     1
290
     0
176
     1
 90
       50
176
     1
 62
   256
176
     0
 40
1.0
176
     0
 90
        2
176
     1
  1
strokes_ogs.tif
176
     1
290
     0
176
     1
 40
1.0
176
     1
 40
1.0
176
     1
1001
ACAD
1000
AcDbSavedByObjectVersion
1070
     0
  0
VISUALSTYLE
  5
41
102
{ACAD_REACTORS
330
29
102
}
330
29
100
AcDbVisualStyle
  2
EdgeColorOff
 70
    22
177
     3
291
     1
 70
    58
 90
        2
176
     0
 90
        2
176
     0
 90
        0
176
     0
 90
        0
176
     0
 40
0.6
176
     0
 40
30.0
176
     0
 62
     7
420
 16777215
176
     0
 90
        1
176
     0
 90
        4
176
     0
 62
     7
176
     0
 62
   257
176
     0
 90
        1
176
     0
 90
        1
176
     0
 40
1.0
176
     0
 90
        8
176
     2
 62
     7
176
     0
 40
1.0
176
     0
 90
        1
176
     0
 90
        6
176
     0
 90
        2
176
     0
 62
     7
176
     0
 90
        5
176
     0
 90
        0
176
     0
 90
        0
176
     0
290
     0
176
     0
 90
        1
176
     0
 40
0.0
176
     0
 90
        0
176
     0
290
     0
176
     0
290
     1
176
     0
290
     1
176
     0
290
     0
176
     0
290
     0
176
     0
290
     0
176
     0
290
     0
176
     0
290
     0
176
     0
290
     0
176
     0
 90
       50
176
     0
 40
0.0
176
     0
 40
1.0
176
     0
 90
        0
176
     0
 62
    18
420
        0
176
     0
 90
       50
176
     0
 90
        3
176
     0
 62
     5
420
      255
176
     0
290
     0
176
     0
 90
       50
176
     0
 90
       50
176
     0
 90
       50
176
     0
290
     0
176
     0
 90
       50
176
     0
 62
   256
176
     0
 40
1.0
176
     0
 90
        2
176
     0
  1
strokes_ogs.tif
176
     0
290
     0
176
     0
 40
1.0
176
     0
 40
1.0
176
     0
1001
ACAD
1000
AcDbSavedByObjectVersion
1070
     0
  0
VISUALSTYLE
  5
38
102
{ACAD_REACTORS
330
29
102
}
330
29
100
AcDbVisualStyle
  2
Facepattern
 70
    15
177
     3
291
     1
 70
    58
 90
        2
176
     1
 90
        2
176
     1
 90
        0
176
     1
 90
        0
176
     1
 40
0.6
176
     1
 40
30.0
176
     1
 62
     7
420
 16777215
176
     1
 90
        1
176
     1
 90
        4
176
     1
 62
     7
176
     1
 62
   257
176
     1
 90
        1
176
     1
 90
        1
176
     1
 40
1.0
176
     1
 90
        8
176
     1
 62
     7
176
     1
 40
1.0
176
     1
 90
        1
176
     1
 90
        6
176
     1
 90
        2
176
     1
 62
     7
176
     1
 90
        5
176
     1
 90
        0
176
     1
 90
        0
176
     1
290
     0
176
     1
 90
        1
176
     1
 40
0.0
176
     1
 90
        0
176
     1
290
     0
176
     1
290
     1
176
     1
290
     1
176
     1
290
     0
176
     1
290
     0
176
     1
290
     0
176
     1
290
     0
176
     1
290
     0
176
     1
290
     0
176
     1
 90
       50
176
     1
 40
0.0
176
     1
 40
1.0
176
     1
 90
        0
176
     1
 62
    18
420
        0
176
     1
 90
       50
176
     1
 90
        3
176
     1
 62
     5
420
      255
176
     1
290
     0
176
     1
 90
       50
176
     1
 90
       50
176
     1
 90
       50
176
     1
290
     0
176
     1
 90
       50
176
     1
 62
   256
176
     0
 40
1.0
176
     0
 90
        2
176
     1
  1
strokes_ogs.tif
176
     1
290
     0
176
     1
 40
1.0
176
     1
 40
1.0
176
     1
1001
ACAD
1000
AcDbSavedByObjectVersion
1070
     0
  0
VISUALSTYLE
  5
2A
102
{ACAD_REACTORS
330
29
102
}
330
29
100
AcDbVisualStyle
  2
Flat
 70
     0
177
     3
291
     1
 70
    58
 90
        2
176
     1
 90
        1
176
     1
 90
        1
176
     1
 90
        2
176
     1
 40
0.6
176
     1
 40
30.0
176
     1
 62
     7
420
 16777215
176
     1
 90
        0
176
     1
 90
        0
176
     1
 62
     7
176
     1
 62
   257
176
     1
 90
        1
176
     1
 90
        1
176
     1
 40
1.0
176
     1
 90
        8
176
     1
 62
     7
176
     1
 40
1.0
176
     1
 90
        1
176
     1
 90
        6
176
     1
 90
        2
176
     1
 62
     7
176
     1
 90
        5
176
     1
 90
        0
176
     1
 90
        0
176
     1
290
     0
176
     1
 90
       13
176
     1
 40
0.0
176
     1
 90
        0
176
     1
290
     0
176
     1
290
     1
176
     1
290
     1
176
     1
290
     0
176
     1
290
     0
176
     1
290
     0
176
     1
290
     0
176
     1
290
     0
176
     1
290
     0
176
     1
 90
       50
176
     1
 40
0.0
176
     1
 40
1.0
176
     1
 90
        0
176
     1
 62
    18
420
        0
176
     1
 90
       50
176
     1
 90
        3
176
     1
 62
     5
420
      255
176
     1
290
     0
176
     1
 90
       50
176
     1
 90
       50
176
     1
 90
       50
176
     1
290
     0
176
     1
 90
       50
176
     1
 62
   256
176
     0
 40
1.0
176
     0
 90
        2
176
     1
  1
strokes_ogs.tif
176
     1
290
     0
176
     1
 40
1.0
176
     1
 40
1.0
176
     1
1001
ACAD
1000
AcDbSavedByObjectVersion
1070
     0
  0
VISUALSTYLE
  5
2B
102
{ACAD_REACTORS
330
29
102
}
330
29
100
AcDbVisualStyle
  2
FlatWithEdges
 70
     1
177
     3
291
     1
 70
    58
 90
        2
176
     1
 90
        1
176
     1
 90
        1
176
     1
 90
        2
176
     1
 40
0.6
176
     1
 40
30.0
176
     1
 62
     7
420
 16777215
176
     1
 90
        1
176
     1
 90
        0
176
     1
 62
     7
176
     1
 62
   257
176
     1
 90
        1
176
     1
 90
        1
176
     1
 40
1.0
176
     1
 90
        0
176
     1
 62
   257
176
     1
 40
1.0
176
     1
 90
        1
176
     1
 90
        6
176
     1
 90
        2
176
     1
 62
     7
176
     1
 90
        5
176
     1
 90
        0
176
     1
 90
        0
176
     1
290
     0
176
     1
 90
       13
176
     1
 40
0.0
176
     1
 90
        0
176
     1
290
     0
176
     1
290
     1
176
     1
290
     1
176
     1
290
     0
176
     1
290
     0
176
     1
290
     0
176
     1
290
     0
176
     1
290
     0
176
     1
290
     0
176
     1
 90
       50
176
     1
 40
0.0
176
     1
 40
1.0
176
     1
 90
        0
176
     1
 62
    18
420
        0
176
     1
 90
       50
176
     1
 90
        3
176
     1
 62
     5
420
      255
176
     1
290
     0
176
     1
 90
       50
176
     1
 90
       50
176
     1
 90
       50
176
     1
290
     0
176
     1
 90
       50
176
     1
 62
   256
176
     0
 40
1.0
176
     0
 90
        2
176
     1
  1
strokes_ogs.tif
176
     1
290
     0
176
     1
 40
1.0
176
     1
 40
1.0
176
     1
1001
ACAD
1000
AcDbSavedByObjectVersion
1070
     0
  0
VISUALSTYLE
  5
2C
102
{ACAD_REACTORS
330
29
102
}
330
29
100
AcDbVisualStyle
  2
Gouraud
 70
     2
177
     3
291
     1
 70
    58
 90
        2
176
     1
 90
        2
176
     1
 90
        1
176
     1
 90
        2
176
     1
 40
0.6
176
     1
 40
30.0
176
     1
 62
     7
420
 16777215
176
     1
 90
        0
176
     1
 90
        0
176
     1
 62
     7
176
     1
 62
   257
176
     1
 90
        1
176
     1
 90
        1
176
     1
 40
1.0
176
     1
 90
        0
176
     1
 62
     7
176
     1
 40
1.0
176
     1
 90
        1
176
     1
 90
        6
176
     1
 90
        2
176
     1
 62
     7
176
     1
 90
        5
176
     1
 90
        0
176
     1
 90
        0
176
     1
290
     0
176
     1
 90
       13
176
     1
 40
0.0
176
     1
 90
        0
176
     1
290
     0
176
     1
290
     1
176
     1
290
     1
176
     1
290
     0
176
     1
290
     0
176
     1
290
     0
176
     1
290
     0
176
     1
290
     0
176
     1
290
     0
176
     1
 90
       50
176
     1
 40
0.0
176
     1
 40
1.0
176
     1
 90
        0
176
     1
 62
    18
420
        0
176
     1
 90
       50
176
     1
 90
        3
176
     1
 62
     5
420
      255
176
     1
290
     0
176
     1
 90
       50
176
     1
 90
       50
176
     1
 90
       50
176
     1
290
     0
176
     1
 90
       50
176
     1
 62
   256
176
     0
 40
1.0
176
     0
 90
        2
176
     1
  1
strokes_ogs.tif
176
     1
290
     0
176
     1
 40
1.0
176
     1
 40
1.0
176
     1
1001
ACAD
1000
AcDbSavedByObjectVersion
1070
     0
  0
VISUALSTYLE
  5
2D
102
{ACAD_REACTORS
330
29
102
}
330
29
100
AcDbVisualStyle
  2
GouraudWithEdges
 70
     3
177
     3
291
     1
 70
    58
 90
        2
176
     1
 90
        2
176
     1
 90
        1
176
     1
 90
        2
176
     1
 40
0.6
176
     1
 40
30.0
176
     1
 62
     7
420
 16777215
176
     1
 90
        1
176
     1
 90
        0
176
     1
 62
     7
176
     1
 62
   257
176
     1
 90
        1
176
     1
 90
        1
176
     1
 40
1.0
176
     1
 90
        0
176
     1
 62
   257
176
     1
 40
1.0
176
     1
 90
        1
176
     1
 90
        6
176
     1
 90
        2
176
     1
 62
     7
176
     1
 90
        5
176
     1
 90
        0
176
     1
 90
        0
176
     1
290
     0
176
     1
 90
       13
176
     1
 40
0.0
176
     1
 90
        0
176
     1
290
     0
176
     1
290
     1
176
     1
290
     1
176
     1
290
     0
176
     1
290
     0
176
     1
290
     0
176
     1
290
     0
176
     1
290
     0
176
     1
290
     0
176
     1
 90
       50
176
     1
 40
0.0
176
     1
 40
1.0
176
     1
 90
        0
176
     1
 62
    18
420
        0
176
     1
 90
       50
176
     1
 90
        3
176
     1
 62
     5
420
      255
176
     1
290
     0
176
     1
 90
       50
176
     1
 90
       50
176
     1
 90
       50
176
     1
290
     0
176
     1
 90
       50
176
     1
 62
   256
176
     0
 40
1.0
176
     0
 90
        2
176
     1
  1
strokes_ogs.tif
176
     1
290
     0
176
     1
 40
1.0
176
     1
 40
1.0
176
     1
1001
ACAD
1000
AcDbSavedByObjectVersion
1070
     0
  0
VISUALSTYLE
  5
31
102
{ACAD_REACTORS
330
29
102
}
330
29
100
AcDbVisualStyle
  2
Hidden
 70
     6
177
     3
291
     0
 70
    58
 90
        1
176
     1
 90
        2
176
     1
 90
        2
176
     1
 90
        0
176
     1
 40
0.6
176
     1
 40
30.0
176
     1
 62
     7
420
 16777215
176
     1
 90
        2
176
     1
 90
        2
176
     1
 62
     7
176
     1
 62
   257
176
     1
 90
        2
176
     1
 90
        1
176
     1
 40
40.0
176
     1
 90
        0
176
     1
 62
   257
176
     1
 40
1.0
176
     1
 90
        1
176
     1
 90
        6
176
     1
 90
        2
176
     1
 62
     7
176
     1
 90
        3
176
     1
 90
        0
176
     1
 90
        0
176
     1
290
     0
176
     1
 90
        1
176
     1
 40
0.0
176
     1
 90
        0
176
     1
290
     0
176
     1
290
     1
176
     1
290
     1
176
     1
290
     0
176
     1
290
     0
176
     1
290
     0
176
     1
290
     0
176
     1
290
     0
176
     1
290
     0
176
     1
 90
       50
176
     1
 40
0.0
176
     1
 40
1.0
176
     1
 90
        0
176
     1
 62
    18
420
        0
176
     1
 90
       50
176
     1
 90
        3
176
     1
 62
     5
420
      255
176
     1
290
     0
176
     1
 90
       50
176
     1
 90
       50
176
     1
 90
       50
176
     1
290
     0
176
     1
 90
       50
176
     1
 62
   256
176
     0
 40
1.0
176
     0
 90
        2
176
     1
  1
strokes_ogs.tif
176
     1
290
     0
176
     1
 40
1.0
176
     1
 40
1.0
176
     1
1001
ACAD
1000
AcDbSavedByObjectVersion
1070
     0
  0
VISUALSTYLE
  5
3F
102
{ACAD_REACTORS
330
29
102
}
330
29
100
AcDbVisualStyle
  2
JitterOff
 70
    20
177
     3
291
     1
 70
    58
 90
        2
176
     0
 90
        2
176
     0
 90
        0
176
     0
 90
        0
176
     0
 40
0.6
176
     0
 40
30.0
176
     0
 62
     7
420
 16777215
176
     0
 90
        1
176
     0
 90
        4
176
     0
 62
     7
176
     0
 62
   257
176
     0
 90
        1
176
     0
 90
        1
176
     0
 40
1.0
176
     0
 90
       10
176
     2
 62
     7
176
     0
 40
1.0
176
     0
 90
        1
176
     0
 90
        6
176
     0
 90
        2
176
     0
 62
     7
176
     0
 90
        5
176
     0
 90
        0
176
     0
 90
        0
176
     0
290
     0
176
     0
 90
        1
176
     0
 40
0.0
176
     0
 90
        0
176
     0
290
     0
176
     0
290
     1
176
     0
290
     1
176
     0
290
     0
176
     0
290
     0
176
     0
290
     0
176
     0
290
     0
176
     0
290
     0
176
     0
290
     0
176
     0
 90
       50
176
     0
 40
0.0
176
     0
 40
1.0
176
     0
 90
        0
176
     0
 62
    18
420
        0
176
     0
 90
       50
176
     0
 90
        3
176
     0
 62
     5
420
      255
176
     0
290
     0
176
     0
 90
       50
176
     0
 90
       50
176
     0
 90
       50
176
     0
290
     0
176
     0
 90
       50
176
     0
 62
   256
176
     0
 40
1.0
176
     0
 90
        2
176
     0
  1
strokes_ogs.tif
176
     0
290
     0
176
     0
 40
1.0
176
     0
 40
1.0
176
     0
1001
ACAD
1000
AcDbSavedByObjectVersion
1070
     0
  0
VISUALSTYLE
  5
37
102
{ACAD_REACTORS
330
29
102
}
330
29
100
AcDbVisualStyle
  2
Linepattern
 70
    14
177
     3
291
     1
 70
    58
 90
        2
176
     1
 90
        2
176
     1
 90
        0
176
     1
 90
        0
176
     1
 40
0.6
176
     1
 40
30.0
176
     1
 62
     7
420
 16777215
176
     1
 90
        1
176
     1
 90
        4
176
     1
 62
     7
176
     1
 62
   257
176
     1
 90
        7
176
     1
 90
        7
176
     1
 40
1.0
176
     1
 90
        8
176
     1
 62
     7
176
     1
 40
1.0
176
     1
 90
        1
176
     1
 90
        6
176
     1
 90
        2
176
     1
 62
     7
176
     1
 90
        5
176
     1
 90
        0
176
     1
 90
        0
176
     1
290
     0
176
     1
 90
        1
176
     1
 40
0.0
176
     1
 90
        0
176
     1
290
     0
176
     1
290
     1
176
     1
290
     1
176
     1
290
     0
176
     1
290
     0
176
     1
290
     0
176
     1
290
     0
176
     1
290
     0
176
     1
290
     0
176
     1
 90
       50
176
     1
 40
0.0
176
     1
 40
1.0
176
     1
 90
        0
176
     1
 62
    18
420
        0
176
     1
 90
       50
176
     1
 90
        3
176
     1
 62
     5
420
      255
176
     1
290
     0
176
     1
 90
       50
176
     1
 90
       50
176
     1
 90
       50
176
     1
290
     0
176
     1
 90
       50
176
     1
 62
   256
176
     0
 40
1.0
176
     0
 90
        2
176
     1
  1
strokes_ogs.tif
176
     1
290
     0
176
     1
 40
1.0
176
     1
 40
1.0
176
     1
1001
ACAD
1000
AcDbSavedByObjectVersion
1070
     0
  0
VISUALSTYLE
  5
40
102
{ACAD_REACTORS
330
29
102
}
330
29
100
AcDbVisualStyle
  2
OverhangOff
 70
    21
177
     3
291
     1
 70
    58
 90
        2
176
     0
 90
        2
176
     0
 90
        0
176
     0
 90
        0
176
     0
 40
0.6
176
     0
 40
30.0
176
     0
 62
     7
420
 16777215
176
     0
 90
        1
176
     0
 90
        4
176
     0
 62
     7
176
     0
 62
   257
176
     0
 90
        1
176
     0
 90
        1
176
     0
 40
1.0
176
     0
 90
        9
176
     2
 62
     7
176
     0
 40
1.0
176
     0
 90
        1
176
     0
 90
        6
176
     0
 90
        2
176
     0
 62
     7
176
     0
 90
        5
176
     0
 90
        0
176
     0
 90
        0
176
     0
290
     0
176
     0
 90
        1
176
     0
 40
0.0
176
     0
 90
        0
176
     0
290
     0
176
     0
290
     1
176
     0
290
     1
176
     0
290
     0
176
     0
290
     0
176
     0
290
     0
176
     0
290
     0
176
     0
290
     0
176
     0
290
     0
176
     0
 90
       50
176
     0
 40
0.0
176
     0
 40
1.0
176
     0
 90
        0
176
     0
 62
    18
420
        0
176
     0
 90
       50
176
     0
 90
        3
176
     0
 62
     5
420
      255
176
     0
290
     0
176
     0
 90
       50
176
     0
 90
       50
176
     0
 90
       50
176
     0
290
     0
176
     0
 90
       50
176
     0
 62
   256
176
     0
 40
1.0
176
     0
 90
        2
176
     0
  1
strokes_ogs.tif
176
     0
290
     0
176
     0
 40
1.0
176
     0
 40
1.0
176
     0
1001
ACAD
1000
AcDbSavedByObjectVersion
1070
     0
  0
VISUALSTYLE
  5
33
102
{ACAD_REACTORS
330
29
102
}
330
29
100
AcDbVisualStyle
  2
Realistic
 70
     8
177
     3
291
     0
 70
    58
 90
        2
176
     1
 90
        3
176
     1
 90
        0
176
     1
 90
        2
176
     1
 40
0.6
176
     1
 40
30.0
176
     1
 62
     7
420
 16777215
176
     1
 90
        0
176
     1
 90
        0
176
     1
 62
     7
176
     1
 62
   257
176
     1
 90
        1
176
     1
 90
        1
176
     1
 40
1.0
176
     1
 90
        8
176
     1
 62
   257
176
     1
 40
1.0
176
     1
 90
        1
176
     1
 90
        6
176
     1
 90
        2
176
     1
 62
     7
176
     1
 90
        3
176
     1
 90
        0
176
     1
 90
        0
176
     1
290
     0
176
     1
 90
       13
176
     1
 40
0.0
176
     1
 90
        0
176
     1
290
     0
176
     1
290
     1
176
     1
290
     1
176
     1
290
     0
176
     1
290
     0
176
     1
290
     0
176
     1
290
     0
176
     1
290
     0
176
     1
290
     0
176
     1
 90
       50
176
     1
 40
0.0
176
     1
 40
1.0
176
     1
 90
        0
176
     1
 62
    18
420
        0
176
     1
 90
       50
176
     1
 90
        3
176
     1
 62
     5
420
      255
176
     1
290
     0
176
     1
 90
       50
176
     1
 90
       50
176
     1
 90
       50
176
     1
290
     0
176
     1
 90
       50
176
     1
 62
   256
176
     0
 40
1.0
176
     0
 90
        2
176
     1
  1
strokes_ogs.tif
176
     1
290
     0
176
     1
 40
1.0
176
     1
 40
1.0
176
     1
1001
ACAD
1000
AcDbSavedByObjectVersion
1070
     0
  0
VISUALSTYLE
  5
3E
102
{ACAD_REACTORS
330
29
102
}
330
29
100
AcDbVisualStyle
  2
Shaded
 70
    27
177
     3
291
     0
 70
    58
 90
        2
176
     1
 90
        2
176
     1
 90
        1
176
     1
 90
        2
176
     1
 40
0.6
176
     1
 40
30.0
176
     1
 62
     7
420
 16777215
176
     1
 90
        0
176
     1
 90
        4
176
     1
 62
     7
176
     1
 62
   257
176
     1
 90
        1
176
     1
 90
        1
176
     1
 40
1.0
176
     1
 90
        8
176
     1
 62
   257
176
     1
 40
1.0
176
     1
 90
        1
176
     1
 90
        6
176
     1
 90
        2
176
     1
 62
     8
420
  7895160
176
     1
 90
        3
176
     1
 90
        0
176
     1
 90
        0
176
     1
290
     0
176
     1
 90
        5
176
     1
 40
0.0
176
     1
 90
        0
176
     1
290
     0
176
     1
290
     1
176
     1
290
     1
176
     1
290
     0
176
     1
290
     0
176
     1
290
     0
176
     1
290
     0
176
     1
290
     0
176
     1
290
     0
176
     1
 90
       50
176
     1
 40
0.0
176
     1
 40
1.0
176
     1
 90
        0
176
     1
 62
    18
420
        0
176
     1
 90
       50
176
     1
 90
        3
176
     1
 62
     5
420
      255
176
     1
290
     0
176
     1
 90
       50
176
     1
 90
       50
176
     1
 90
       50
176
     1
290
     0
176
     1
 90
       50
176
     1
 62
   256
176
     0
 40
1.0
176
     0
 90
        2
176
     1
  1
strokes_ogs.tif
176
     1
290
     0
176
     1
 40
1.0
176
     1
 40
1.0
176
     1
1001
ACAD
1000
AcDbSavedByObjectVersion
1070
     0
  0
VISUALSTYLE
  5
3D
102
{ACAD_REACTORS
330
29
102
}
330
29
100
AcDbVisualStyle
  2
Shaded with edges
 70
    26
177
     3
291
     0
 70
    58
 90
        2
176
     1
 90
        2
176
     1
 90
        1
176
     1
 90
        2
176
     1
 40
0.6
176
     1
 40
30.0
176
     1
 62
     7
420
 16777215
176
     1
 90
        1
176
     1
 90
        2
176
     1
 62
     7
176
     1
 62
   257
176
     1
 90
        2
176
     1
 90
        1
176
     1
 40
1.0
176
     1
 90
        8
176
     1
 62
   257
176
     1
 40
1.0
176
     1
 90
        1
176
     1
 90
        6
176
     1
 90
        2
176
     1
 62
     7
176
     1
 90
        3
176
     1
 90
        0
176
     1
 90
        0
176
     1
290
     0
176
     1
 90
        5
176
     1
 40
0.0
176
     1
 90
        0
176
     1
290
     0
176
     1
290
     1
176
     1
290
     1
176
     1
290
     0
176
     1
290
     0
176
     1
290
     0
176
     1
290
     0
176
     1
290
     0
176
     1
290
     0
176
     1
 90
       50
176
     1
 40
0.0
176
     1
 40
1.0
176
     1
 90
        0
176
     1
 62
    18
420
        0
176
     1
 90
       50
176
     1
 90
        3
176
     1
 62
     5
420
      255
176
     1
290
     0
176
     1
 90
       50
176
     1
 90
       50
176
     1
 90
       50
176
     1
290
     0
176
     1
 90
       50
176
     1
 62
   256
176
     0
 40
1.0
176
     0
 90
        2
176
     1
  1
strokes_ogs.tif
176
     1
290
     0
176
     1
 40
1.0
176
     1
 40
1.0
176
     1
1001
ACAD
1000
AcDbSavedByObjectVersion
1070
     0
  0
VISUALSTYLE
  5
3A
102
{ACAD_REACTORS
330
29
102
}
330
29
100
AcDbVisualStyle
  2
Shades of Gray
 70
    23
177
     3
291
     0
 70
    58
 90
        2
176
     1
 90
        2
176
     1
 90
        3
176
     1
 90
        0
176
     1
 40
0.6
176
     1
 40
30.0
176
     1
 62
     7
420
 16777215
176
     1
 90
        2
176
     1
 90
        2
176
     1
 62
     7
176
     1
 62
     7
176
     1
 90
        1
176
     1
 90
        1
176
     1
 40
40.0
176
     1
 90
        8
176
     1
 62
     7
176
     1
 40
1.0
176
     1
 90
        1
176
     1
 90
        6
176
     1
 90
        2
176
     1
 62
     7
176
     1
 90
        3
176
     1
 90
        0
176
     1
 90
        0
176
     1
290
     0
176
     1
 90
        1
176
     1
 40
0.0
176
     1
 90
        0
176
     1
290
     0
176
     1
290
     1
176
     1
290
     1
176
     1
290
     0
176
     1
290
     0
176
     1
290
     0
176
     1
290
     0
176
     1
290
     0
176
     1
290
     0
176
     1
 90
       50
176
     1
 40
0.0
176
     1
 40
1.0
176
     1
 90
        0
176
     1
 62
    18
420
        0
176
     1
 90
       50
176
     1
 90
        3
176
     1
 62
     5
420
      255
176
     1
290
     0
176
     1
 90
       50
176
     1
 90
       50
176
     1
 90
       50
176
     1
290
     0
176
     1
 90
       50
176
     1
 62
   256
176
     0
 40
1.0
176
     0
 90
        2
176
     1
  1
strokes_ogs.tif
176
     1
290
     0
176
     1
 40
1.0
176
     1
 40
1.0
176
     1
1001
ACAD
1000
AcDbSavedByObjectVersion
1070
     0
  0
VISUALSTYLE
  5
3B
102
{ACAD_REACTORS
330
29
102
}
330
29
100
AcDbVisualStyle
  2
Sketchy
 70
    24
177
     3
291
     0
 70
    58
 90
        1
176
     1
 90
        2
176
     1
 90
        2
176
     1
 90
        0
176
     1
 40
0.6
176
     1
 40
30.0
176
     1
 62
     7
420
 16777215
176
     1
 90
        2
176
     1
 90
        2
176
     1
 62
     7
176
     1
 62
     7
176
     1
 90
        1
176
     1
 90
        1
176
     1
 40
40.0
176
     1
 90
       11
176
     1
 62
     7
176
     1
 40
1.0
176
     1
 90
        1
176
     1
 90
        6
176
     1
 90
        2
176
     1
 62
     7
176
     1
 90
        6
176
     1
 90
        0
176
     1
 90
        0
176
     1
290
     0
176
     1
 90
        1
176
     1
 40
0.0
176
     1
 90
        0
176
     1
290
     0
176
     1
290
     1
176
     1
290
     1
176
     1
290
     0
176
     1
290
     0
176
     1
290
     0
176
     1
290
     0
176
     1
290
     0
176
     1
290
     0
176
     1
 90
       50
176
     1
 40
0.0
176
     1
 40
1.0
176
     1
 90
        0
176
     1
 62
    18
420
        0
176
     1
 90
       50
176
     1
 90
        3
176
     1
 62
     5
420
      255
176
     1
290
     0
176
     1
 90
       50
176
     1
 90
       50
176
     1
 90
       50
176
     1
290
     0
176
     1
 90
       50
176
     1
 62
   256
176
     0
 40
1.0
176
     0
 90
        2
176
     1
  1
strokes_ogs.tif
176
     1
290
     0
176
     1
 40
1.0
176
     1
 40
1.0
176
     1
1001
ACAD
1000
AcDbSavedByObjectVersion
1070
     0
  0
VISUALSTYLE
  5
36
102
{ACAD_REACTORS
330
29
102
}
330
29
100
AcDbVisualStyle
  2
Thicken
 70
    13
177
     3
291
     1
 70
    58
 90
        2
176
     1
 90
        2
176
     1
 90
        0
176
     1
 90
        0
176
     1
 40
0.6
176
     1
 40
30.0
176
     1
 62
     7
420
 16777215
176
     1
 90
        1
176
     1
 90
        4
176
     1
 62
     7
176
     1
 62
   257
176
     1
 90
        1
176
     1
 90
        1
176
     1
 40
1.0
176
     1
 90
       12
176
     1
 62
     7
176
     1
 40
1.0
176
     1
 90
        1
176
     1
 90
        6
176
     1
 90
        2
176
     1
 62
     7
176
     1
 90
        5
176
     1
 90
        0
176
     1
 90
        0
176
     1
290
     0
176
     1
 90
        1
176
     1
 40
0.0
176
     1
 90
        0
176
     1
290
     0
176
     1
290
     1
176
     1
290
     1
176
     1
290
     0
176
     1
290
     0
176
     1
290
     0
176
     1
290
     0
176
     1
290
     0
176
     1
290
     0
176
     1
 90
       50
176
     1
 40
0.0
176
     1
 40
1.0
176
     1
 90
        0
176
     1
 62
    18
420
        0
176
     1
 90
       50
176
     1
 90
        3
176
     1
 62
     5
420
      255
176
     1
290
     0
176
     1
 90
       50
176
     1
 90
       50
176
     1
 90
       50
176
     1
290
     0
176
     1
 90
       50
176
     1
 62
   256
176
     0
 40
1.0
176
     0
 90
        2
176
     1
  1
strokes_ogs.tif
176
     1
290
     0
176
     1
 40
1.0
176
     1
 40
1.0
176
     1
1001
ACAD
1000
AcDbSavedByObjectVersion
1070
     0
  0
VISUALSTYLE
  5
30
102
{ACAD_REACTORS
330
29
102
}
330
29
100
AcDbVisualStyle
  2
Wireframe
 70
     5
177
     3
291
     0
 70
    58
 90
        0
176
     1
 90
        2
176
     1
 90
        0
176
     1
 90
        0
176
     1
 40
0.6
176
     1
 40
30.0
176
     1
 62
     7
420
 16777215
176
     1
 90
        1
176
     1
 90
        4
176
     1
 62
     7
176
     1
 62
   257
176
     1
 90
        1
176
     1
 90
        1
176
     1
 40
1.0
176
     1
 90
        0
176
     1
 62
   257
176
     1
 40
1.0
176
     1
 90
        1
176
     1
 90
        6
176
     1
 90
        2
176
     1
 62
     7
176
     1
 90
        3
176
     1
 90
        0
176
     1
 90
        0
176
     1
290
     0
176
     1
 90
        1
176
     1
 40
0.0
176
     1
 90
        0
176
     1
290
     0
176
     1
290
     1
176
     1
290
     1
176
     1
290
     0
176
     1
290
     0
176
     1
290
     0
176
     1
290
     0
176
     1
290
     0
176
     1
290
     0
176
     1
 90
       50
176
     1
 40
0.0
176
     1
 40
1.0
176
     1
 90
        0
176
     1
 62
    18
420
        0
176
     1
 90
       50
176
     1
 90
        3
176
     1
 62
     5
420
      255
176
     1
290
     0
176
     1
 90
       50
176
     1
 90
       50
176
     1
 90
       50
176
     1
290
     0
176
     1
 90
       50
176
     1
 62
   256
176
     0
 40
1.0
176
     0
 90
        2
176
     1
  1
strokes_ogs.tif
176
     1
290
     0
176
     1
 40
1.0
176
     1
 40
1.0
176
     1
1001
ACAD
1000
AcDbSavedByObjectVersion
1070
     0
  0
VISUALSTYLE
  5
3C
102
{ACAD_REACTORS
330
29
102
}
330
29
100
AcDbVisualStyle
  2
X-Ray
 70
    25
177
     3
291
     0
 70
    58
 90
        2
176
     1
 90
        2
176
     1
 90
        1
176
     1
 90
        1
176
     1
 40
0.5
176
     1
 40
30.0
176
     1
 62
     7
420
 16777215
176
     1
 90
        1
176
     1
 90
        0
176
     1
 62
     7
176
     1
 62
   257
176
     1
 90
        1
176
     1
 90
        1
176
     1
 40
1.0
176
     1
 90
        8
176
     1
 62
     7
176
     1
 40
1.0
176
     1
 90
        1
176
     1
 90
        6
176
     1
 90
        2
176
     1
 62
     7
176
     1
 90
        3
176
     1
 90
        0
176
     1
 90
        0
176
     1
290
     0
176
     1
 90
       13
176
     1
 40
0.0
176
     1
 90
        0
176
     1
290
     0
176
     1
290
     1
176
     1
290
     1
176
     1
290
     0
176
     1
290
     0
176
     1
290
     0
176
     1
290
     0
176
     1
290
     0
176
     1
290
     0
176
     1
 90
       50
176
     1
 40
0.0
176
     1
 40
1.0
176
     1
 90
        0
176
     1
 62
    18
420
        0
176
     1
 90
       50
176
     1
 90
        3
176
     1
 62
     5
420
      255
176
     1
290
     0
176
     1
 90
       50
176
     1
 90
       50
176
     1
 90
       50
176
     1
290
     0
176
     1
 90
       50
176
     1
 62
   256
176
     0
 40
1.0
176
     0
 90
        2
176
     1
  1
strokes_ogs.tif
176
     1
290
     0
176
     1
 40
1.0
176
     1
 40
1.0
176
     1
1001
ACAD
1000
AcDbSavedByObjectVersion
1070
     0
  0
DICTIONARYVAR
  5
3FA
102
{ACAD_REACTORS
330
3F5
102
}
330
3F5
100
DictionaryVariables
280
     0
  1
0
  0
DICTIONARYVAR
  5
3FB
102
{ACAD_REACTORS
330
3F5
102
}
330
3F5
100
DictionaryVariables
280
     0
  1
1:1
  0
DICTIONARYVAR
  5
3F7
102
{ACAD_REACTORS
330
3F5
102
}
330
3F5
100
DictionaryVariables
280
     0
  1
STANDARD
  0
DICTIONARYVAR
  5
3F6
102
{ACAD_REACTORS
330
3F5
102
}
330
3F5
100
DictionaryVariables
280
     0
  1
STANDARD
  0
DICTIONARYVAR
  5
3F8
102
{ACAD_REACTORS
330
3F5
102
}
330
3F5
100
DictionaryVariables
280
     0
  1
Imperial24
  0
DICTIONARYVAR
  5
3F9
102
{ACAD_REACTORS
330
3F5
102
}
330
3F5
100
DictionaryVariables
280
     0
  1
Imperial24
  0
DICTIONARY
  5
401
330
6B
100
AcDbDictionary
280
     1
281
     1
  3
ACAD_XREC_ROUNDTRIP
360
402
  0
DICTIONARY
  5
1A
330
19
100
AcDbDictionary
280
     1
281
     1
  3
BUMPTILE
360
1C
  3
DIFFUSETILE
360
1B
  3
OPACITYTILE
360
1F
  3
REFLECTIONTILE
360
1E
  3
REFRACTIONTILE
360
20
  3
SPECULARTILE
360
1D
  0
DICTIONARY
  5
12
330
11
100
AcDbDictionary
280
     1
281
     1
  3
BUMPTILE
360
14
  3
DIFFUSETILE
360
13
  3
OPACITYTILE
360
17
  3
REFLECTIONTILE
360
16
  3
REFRACTIONTILE
360
18
  3
SPECULARTILE
360
15
  0
DICTIONARY
  5
22
330
21
100
AcDbDictionary
280
     1
281
     1
  3
BUMPTILE
360
24
  3
DIFFUSETILE
360
23
  3
OPACITYTILE
360
27
  3
REFLECTIONTILE
360
26
  3
REFRACTIONTILE
360
28
  3
SPECULARTILE
360
25
  0
DICTIONARY
  5
3FF
330
69
100
AcDbDictionary
280
     1
281
     1
  3
ACAD_XREC_ROUNDTRIP
360
400
  0
DICTIONARY
  5
3FC
330
65
100
AcDbDictionary
280
     1
281
     1
  3
ACAD_ROUNDTRIP_2008_TABLESTYLE_CELLSTYLEMAP
360
3FD
  0
XRECORD
  5
402
102
{ACAD_REACTORS
330
401
102
}
330
401
100
AcDbXrecord
280
     1
102
DISPLAYNAME
  1
Imperial24
102
FLAGS
 90
        0
  0
XRECORD
  5
1C
102
{ACAD_REACTORS
330
1A
102
}
330
1A
100
AcDbXrecord
280
     1
270
     1
271
     1
  0
XRECORD
  5
1B
102
{ACAD_REACTORS
330
1A
102
}
330
1A
100
AcDbXrecord
280
     1
270
     1
271
     1
  0
XRECORD
  5
1F
102
{ACAD_REACTORS
330
1A
102
}
330
1A
100
AcDbXrecord
280
     1
270
     1
271
     1
  0
XRECORD
  5
1E
102
{ACAD_REACTORS
330
1A
102
}
330
1A
100
AcDbXrecord
280
     1
270
     1
271
     1
  0
XRECORD
  5
20
102
{ACAD_REACTORS
330
1A
102
}
330
1A
100
AcDbXrecord
280
     1
270
     1
271
     1
  0
XRECORD
  5
1D
102
{ACAD_REACTORS
330
1A
102
}
330
1A
100
AcDbXrecord
280
     1
270
     1
271
     1
  0
XRECORD
  5
14
102
{ACAD_REACTORS
330
12
102
}
330
12
100
AcDbXrecord
280
     1
270
     1
271
     1
  0
XRECORD
  5
13
102
{ACAD_REACTORS
330
12
102
}
330
12
100
AcDbXrecord
280
     1
270
     1
271
     1
  0
XRECORD
  5
17
102
{ACAD_REACTORS
330
12
102
}
330
12
100
AcDbXrecord
280
     1
270
     1
271
     1
  0
XRECORD
  5
16
102
{ACAD_REACTORS
330
12
102
}
330
12
100
AcDbXrecord
280
     1
270
     1
271
     1
  0
XRECORD
  5
18
102
{ACAD_REACTORS
330
12
102
}
330
12
100
AcDbXrecord
280
     1
270
     1
271
     1
  0
XRECORD
  5
15
102
{ACAD_REACTORS
330
12
102
}
330
12
100
AcDbXrecord
280
     1
270
     1
271
     1
  0
XRECORD
  5
24
102
{ACAD_REACTORS
330
22
102
}
330
22
100
AcDbXrecord
280
     1
270
     1
271
     1
  0
XRECORD
  5
23
102
{ACAD_REACTORS
330
22
102
}
330
22
100
AcDbXrecord
280
     1
270
     1
271
     1
  0
XRECORD
  5
27
102
{ACAD_REACTORS
330
22
102
}
330
22
100
AcDbXrecord
280
     1
270
     1
271
     1
  0
XRECORD
  5
26
102
{ACAD_REACTORS
330
22
102
}
330
22
100
AcDbXrecord
280
     1
270
     1
271
     1
  0
XRECORD
  5
28
102
{ACAD_REACTORS
330
22
102
}
330
22
100
AcDbXrecord
280
     1
270
     1
271
     1
  0
XRECORD
  5
25
102
{ACAD_REACTORS
330
22
102
}
330
22
100
AcDbXrecord
280
     1
270
     1
271
     1
  0
XRECORD
  5
400
102
{ACAD_REACTORS
330
3FF
102
}
330
3FF
100
AcDbXrecord
280
     1
102
DISPLAYNAME
  1
Imperial24
102
FLAGS
 90
        0
  0
CELLSTYLEMAP
  5
3FD
102
{ACAD_REACTORS
330
3FC
102
}
330
3FC
100
AcDbCellStyleMap
 90
        3
300
CELLSTYLE
  1
TABLEFORMAT_BEGIN
 90
        5
170
     1
 91
        0
 92
    32768
 62
   257
 93
        1
300
CONTENTFORMAT
  1
CONTENTFORMAT_BEGIN
 90
        0
 91
        0
 92
      512
 93
        0
300

 40
0.0
140
1.0
 94
        5
 62
     0
340
55
144
0.25
309
CONTENTFORMAT_END
171
     1
301
MARGIN
  1
CELLMARGIN_BEGIN
 40
1.5
 40
1.5
 40
1.5
 40
1.5
 40
0.18
 40
0.18
309
CELLMARGIN_END
 94
        0
309
TABLEFORMAT_END
  1
CELLSTYLE_BEGIN
 90
        1
 91
        1
300
_TITLE
309
CELLSTYLE_END
300
CELLSTYLE
  1
TABLEFORMAT_BEGIN
 90
        5
170
     1
 91
        0
 92
        0
 62
   257
 93
        1
300
CONTENTFORMAT
  1
CONTENTFORMAT_BEGIN
 90
        0
 91
        0
 92
      512
 93
        0
300

 40
0.0
140
1.0
 94
        5
 62
     0
340
55
144
0.18
309
CONTENTFORMAT_END
171
     1
301
MARGIN
  1
CELLMARGIN_BEGIN
 40
1.5
 40
1.5
 40
1.5
 40
1.5
 40
0.18
 40
0.18
309
CELLMARGIN_END
 94
        0
309
TABLEFORMAT_END
  1
CELLSTYLE_BEGIN
 90
        2
 91
        1
300
_HEADER
309
CELLSTYLE_END
300
CELLSTYLE
  1
TABLEFORMAT_BEGIN
 90
        5
170
     1
 91
        0
 92
        0
 62
   257
 93
        1
300
CONTENTFORMAT
  1
CONTENTFORMAT_BEGIN
 90
        0
 91
        0
 92
      512
 93
        0
300

 40
0.0
140
1.0
 94
        2
 62
     0
340
55
144
0.18
309
CONTENTFORMAT_END
171
     1
301
MARGIN
  1
CELLMARGIN_BEGIN
 40
1.5
 40
1.5
 40
1.5
 40
1.5
 40
0.18
 40
0.18
309
CELLMARGIN_END
 94
        0
309
TABLEFORMAT_END
  1
CELLSTYLE_BEGIN
 90
        3
 91
        2
300
_DATA
309
CELLSTYLE_END
  0
ENDSEC
  0
EOF
