ISO-10303-21;
HEADER;
/* Generated by software containing ST-Developer
 * from STEP Tools, Inc. (www.steptools.com) 
 */

FILE_DESCRIPTION(
/* description */ (''),
/* implementation_level */ '2;1');

FILE_NAME(
/* name */ 'gasChargingCryoarmGuide v2 v4.step',
/* time_stamp */ '2024-06-17T11:02:24+02:00',
/* author */ (''),
/* organization */ (''),
/* preprocessor_version */ 'ST-DEVELOPER v20',
/* originating_system */ 'Autodesk Translation Framework v13.14.0.145',

/* authorisation */ '');

FILE_SCHEMA (('AUTOMOTIVE_DESIGN { 1 0 10303 214 3 1 1 }'));
ENDSEC;

DATA;
#10=MECHANICAL_DESIGN_GEOMETRIC_PRESENTATION_REPRESENTATION('',(#17),#466);
#11=ITEM_DEFINED_TRANSFORMATION($,$,#202,#221);
#12=(
REPRESENTATION_RELATIONSHIP($,$,#477,#476)
REPRESENTATION_RELATIONSHIP_WITH_TRANSFORMATION(#11)
SHAPE_REPRESENTATION_RELATIONSHIP()
);
#13=CONTEXT_DEPENDENT_SHAPE_REPRESENTATION(#12,#475);
#14=NEXT_ASSEMBLY_USAGE_OCCURRENCE('gasChargingCryoarmGuide:1',
'gasChargingCryoarmGuide:1','gasChargingCryoarmGuide:1',#479,#480,
'gasChargingCryoarmGuide:1');
#15=SHAPE_REPRESENTATION_RELATIONSHIP('SRR','None',#477,#16);
#16=ADVANCED_BREP_SHAPE_REPRESENTATION('',(#18),#465);
#17=STYLED_ITEM('',(#490),#18);
#18=MANIFOLD_SOLID_BREP('Body1',#188);
#19=PLANE('',#208);
#20=PLANE('',#212);
#21=PLANE('',#216);
#22=PLANE('',#220);
#23=FACE_BOUND('',#51,.T.);
#24=FACE_BOUND('',#52,.T.);
#25=FACE_BOUND('',#54,.T.);
#26=FACE_BOUND('',#57,.T.);
#27=FACE_BOUND('',#59,.T.);
#28=FACE_BOUND('',#61,.T.);
#29=FACE_BOUND('',#64,.T.);
#30=CIRCLE('',#206,6.25);
#31=CIRCLE('',#207,6.25);
#32=CIRCLE('',#209,7.9);
#33=CIRCLE('',#211,7.9);
#34=CIRCLE('',#213,7.00000010430813);
#35=CIRCLE('',#215,7.00000010430813);
#36=CIRCLE('',#217,8.);
#37=CIRCLE('',#219,8.);
#38=FACE_OUTER_BOUND('',#48,.T.);
#39=FACE_OUTER_BOUND('',#49,.T.);
#40=FACE_OUTER_BOUND('',#50,.T.);
#41=FACE_OUTER_BOUND('',#53,.T.);
#42=FACE_OUTER_BOUND('',#55,.T.);
#43=FACE_OUTER_BOUND('',#56,.T.);
#44=FACE_OUTER_BOUND('',#58,.T.);
#45=FACE_OUTER_BOUND('',#60,.T.);
#46=FACE_OUTER_BOUND('',#62,.T.);
#47=FACE_OUTER_BOUND('',#63,.T.);
#48=EDGE_LOOP('',(#126,#127,#128,#129,#130,#131));
#49=EDGE_LOOP('',(#132,#133,#134,#135,#136,#137));
#50=EDGE_LOOP('',(#138,#139,#140,#141));
#51=EDGE_LOOP('',(#142,#143));
#52=EDGE_LOOP('',(#144,#145));
#53=EDGE_LOOP('',(#146));
#54=EDGE_LOOP('',(#147));
#55=EDGE_LOOP('',(#148,#149,#150,#151));
#56=EDGE_LOOP('',(#152));
#57=EDGE_LOOP('',(#153));
#58=EDGE_LOOP('',(#154,#155,#156,#157,#158,#159,#160,#161));
#59=EDGE_LOOP('',(#162,#163));
#60=EDGE_LOOP('',(#164));
#61=EDGE_LOOP('',(#165));
#62=EDGE_LOOP('',(#166,#167,#168,#169));
#63=EDGE_LOOP('',(#170));
#64=EDGE_LOOP('',(#171));
#65=LINE('',#295,#72);
#66=LINE('',#392,#73);
#67=LINE('',#435,#74);
#68=LINE('',#443,#75);
#69=LINE('',#450,#76);
#70=LINE('',#451,#77);
#71=LINE('',#458,#78);
#72=VECTOR('',#228,2.);
#73=VECTOR('',#231,2.);
#74=VECTOR('',#236,6.25);
#75=VECTOR('',#247,7.9);
#76=VECTOR('',#256,7.00000010430813);
#77=VECTOR('',#257,7.00000010430813);
#78=VECTOR('',#266,8.);
#79=B_SPLINE_CURVE_WITH_KNOTS('',3,(#276,#277,#278,#279,#280,#281,#282,
#283,#284,#285,#286,#287,#288,#289,#290,#291,#292,#293),.UNSPECIFIED.,.F.,
 .F.,(4,2,2,2,2,2,2,2,4),(0.303180175869937,0.378966007482071,0.454751839094204,
0.530556095417039,0.606360351739874,0.682164608062709,0.757968864385544,
0.833754695997678,0.909540527609811),.UNSPECIFIED.);
#80=B_SPLINE_CURVE_WITH_KNOTS('',3,(#297,#298,#299,#300,#301,#302,#303,
#304,#305,#306,#307,#308,#309,#310,#311,#312,#313,#314,#315,#316,#317,#318,
#319,#320,#321,#322),.UNSPECIFIED.,.F.,.F.,(4,2,2,2,2,2,2,2,2,2,2,2,4),
(0.,0.0759325588349887,0.151865117669977,0.227768026817858,0.303670935965738,
0.379573845113619,0.455476754261499,0.531409313096488,0.607341871931477,
0.683274430766466,0.759206989601454,0.835109898749335,0.911012807897215),
 .UNSPECIFIED.);
#81=B_SPLINE_CURVE_WITH_KNOTS('',3,(#323,#324,#325,#326,#327,#328,#329,
#330,#331,#332),.UNSPECIFIED.,.F.,.F.,(4,2,2,2,4),(0.911012807897215,0.986915717045096,
1.06281862619298,1.13875118502797,1.21468374386295),.UNSPECIFIED.);
#82=B_SPLINE_CURVE_WITH_KNOTS('',3,(#333,#334,#335,#336,#337,#338,#339,
#340,#341,#342,#343,#344,#345,#346,#347,#348,#349,#350,#351),
 .UNSPECIFIED.,.F.,.F.,(4,2,2,2,3,2,2,2,4),(0.909540527609811,0.985326359221945,
1.06111219083408,1.13691644715691,1.21272070347975,1.28852495980258,1.36432921612542,
1.44011504773755,1.51590087934969),.UNSPECIFIED.);
#83=B_SPLINE_CURVE_WITH_KNOTS('',3,(#355,#356,#357,#358,#359,#360,#361,
#362,#363,#364),.UNSPECIFIED.,.F.,.F.,(4,2,2,2,4),(0.,0.0759325588349888,
0.151865117669978,0.227768026817858,0.303670935965739),.UNSPECIFIED.);
#84=B_SPLINE_CURVE_WITH_KNOTS('',3,(#365,#366,#367,#368,#369,#370,#371,
#372,#373,#374,#375,#376,#377,#378,#379,#380,#381,#382,#383,#384,#385,#386,
#387,#388,#389,#390),.UNSPECIFIED.,.F.,.F.,(4,2,2,2,2,2,2,2,2,2,2,2,4),
(0.303670935965739,0.379573845113619,0.4554767542615,0.531409313096488,
0.607341871931477,0.683274430766466,0.759206989601454,0.835109898749335,
0.911012807897216,0.986915717045096,1.06281862619298,1.13875118502797,1.21468374386295),
 .UNSPECIFIED.);
#85=B_SPLINE_CURVE_WITH_KNOTS('',3,(#394,#395,#396,#397,#398,#399,#400,
#401,#402,#403,#404,#405,#406,#407,#408,#409,#410,#411),.UNSPECIFIED.,.F.,
 .F.,(4,2,2,2,2,2,2,2,4),(0.303180175869937,0.378966007482071,0.454751839094204,
0.530556095417039,0.606360351739874,0.682164608062709,0.757968864385544,
0.833754695997678,0.909540527609811),.UNSPECIFIED.);
#86=B_SPLINE_CURVE_WITH_KNOTS('',3,(#412,#413,#414,#415,#416,#417,#418,
#419,#420,#421,#422,#423,#424,#425,#426,#427,#428,#429,#430),
 .UNSPECIFIED.,.F.,.F.,(4,2,2,2,3,2,2,2,4),(0.909540527609811,0.985326359221945,
1.06111219083408,1.13691644715691,1.21272070347975,1.28852495980258,1.36432921612542,
1.44011504773755,1.51590087934969),.UNSPECIFIED.);
#87=VERTEX_POINT('',#274);
#88=VERTEX_POINT('',#275);
#89=VERTEX_POINT('',#294);
#90=VERTEX_POINT('',#296);
#91=VERTEX_POINT('',#353);
#92=VERTEX_POINT('',#354);
#93=VERTEX_POINT('',#391);
#94=VERTEX_POINT('',#393);
#95=VERTEX_POINT('',#432);
#96=VERTEX_POINT('',#434);
#97=VERTEX_POINT('',#438);
#98=VERTEX_POINT('',#441);
#99=VERTEX_POINT('',#445);
#100=VERTEX_POINT('',#448);
#101=VERTEX_POINT('',#453);
#102=VERTEX_POINT('',#456);
#103=EDGE_CURVE('',#87,#88,#79,.T.);
#104=EDGE_CURVE('',#87,#89,#65,.T.);
#105=EDGE_CURVE('',#90,#89,#80,.T.);
#106=EDGE_CURVE('',#89,#90,#81,.T.);
#107=EDGE_CURVE('',#88,#87,#82,.T.);
#108=EDGE_CURVE('',#91,#92,#83,.T.);
#109=EDGE_CURVE('',#92,#91,#84,.T.);
#110=EDGE_CURVE('',#92,#93,#66,.T.);
#111=EDGE_CURVE('',#94,#93,#85,.T.);
#112=EDGE_CURVE('',#93,#94,#86,.T.);
#113=EDGE_CURVE('',#95,#95,#30,.T.);
#114=EDGE_CURVE('',#95,#96,#67,.T.);
#115=EDGE_CURVE('',#96,#96,#31,.T.);
#116=EDGE_CURVE('',#97,#97,#32,.T.);
#117=EDGE_CURVE('',#98,#98,#33,.T.);
#118=EDGE_CURVE('',#98,#97,#68,.T.);
#119=EDGE_CURVE('',#99,#99,#34,.T.);
#120=EDGE_CURVE('',#100,#100,#35,.T.);
#121=EDGE_CURVE('',#100,#93,#69,.T.);
#122=EDGE_CURVE('',#94,#99,#70,.T.);
#123=EDGE_CURVE('',#101,#101,#36,.T.);
#124=EDGE_CURVE('',#102,#102,#37,.T.);
#125=EDGE_CURVE('',#102,#101,#71,.T.);
#126=ORIENTED_EDGE('',*,*,#103,.F.);
#127=ORIENTED_EDGE('',*,*,#104,.T.);
#128=ORIENTED_EDGE('',*,*,#105,.F.);
#129=ORIENTED_EDGE('',*,*,#106,.F.);
#130=ORIENTED_EDGE('',*,*,#104,.F.);
#131=ORIENTED_EDGE('',*,*,#107,.F.);
#132=ORIENTED_EDGE('',*,*,#108,.F.);
#133=ORIENTED_EDGE('',*,*,#109,.F.);
#134=ORIENTED_EDGE('',*,*,#110,.T.);
#135=ORIENTED_EDGE('',*,*,#111,.F.);
#136=ORIENTED_EDGE('',*,*,#112,.F.);
#137=ORIENTED_EDGE('',*,*,#110,.F.);
#138=ORIENTED_EDGE('',*,*,#113,.F.);
#139=ORIENTED_EDGE('',*,*,#114,.T.);
#140=ORIENTED_EDGE('',*,*,#115,.F.);
#141=ORIENTED_EDGE('',*,*,#114,.F.);
#142=ORIENTED_EDGE('',*,*,#108,.T.);
#143=ORIENTED_EDGE('',*,*,#109,.T.);
#144=ORIENTED_EDGE('',*,*,#105,.T.);
#145=ORIENTED_EDGE('',*,*,#106,.T.);
#146=ORIENTED_EDGE('',*,*,#116,.F.);
#147=ORIENTED_EDGE('',*,*,#113,.T.);
#148=ORIENTED_EDGE('',*,*,#117,.F.);
#149=ORIENTED_EDGE('',*,*,#118,.T.);
#150=ORIENTED_EDGE('',*,*,#116,.T.);
#151=ORIENTED_EDGE('',*,*,#118,.F.);
#152=ORIENTED_EDGE('',*,*,#117,.T.);
#153=ORIENTED_EDGE('',*,*,#119,.F.);
#154=ORIENTED_EDGE('',*,*,#120,.F.);
#155=ORIENTED_EDGE('',*,*,#121,.T.);
#156=ORIENTED_EDGE('',*,*,#112,.T.);
#157=ORIENTED_EDGE('',*,*,#122,.T.);
#158=ORIENTED_EDGE('',*,*,#119,.T.);
#159=ORIENTED_EDGE('',*,*,#122,.F.);
#160=ORIENTED_EDGE('',*,*,#111,.T.);
#161=ORIENTED_EDGE('',*,*,#121,.F.);
#162=ORIENTED_EDGE('',*,*,#103,.T.);
#163=ORIENTED_EDGE('',*,*,#107,.T.);
#164=ORIENTED_EDGE('',*,*,#123,.F.);
#165=ORIENTED_EDGE('',*,*,#120,.T.);
#166=ORIENTED_EDGE('',*,*,#124,.F.);
#167=ORIENTED_EDGE('',*,*,#125,.T.);
#168=ORIENTED_EDGE('',*,*,#123,.T.);
#169=ORIENTED_EDGE('',*,*,#125,.F.);
#170=ORIENTED_EDGE('',*,*,#124,.T.);
#171=ORIENTED_EDGE('',*,*,#115,.T.);
#172=CYLINDRICAL_SURFACE('',#203,2.);
#173=CYLINDRICAL_SURFACE('',#204,2.);
#174=CYLINDRICAL_SURFACE('',#205,6.25);
#175=CYLINDRICAL_SURFACE('',#210,7.9);
#176=CYLINDRICAL_SURFACE('',#214,7.00000010430813);
#177=CYLINDRICAL_SURFACE('',#218,8.);
#178=ADVANCED_FACE('',(#38),#172,.F.);
#179=ADVANCED_FACE('',(#39),#173,.F.);
#180=ADVANCED_FACE('',(#40,#23,#24),#174,.F.);
#181=ADVANCED_FACE('',(#41,#25),#19,.T.);
#182=ADVANCED_FACE('',(#42),#175,.T.);
#183=ADVANCED_FACE('',(#43,#26),#20,.T.);
#184=ADVANCED_FACE('',(#44,#27),#176,.T.);
#185=ADVANCED_FACE('',(#45,#28),#21,.T.);
#186=ADVANCED_FACE('',(#46),#177,.T.);
#187=ADVANCED_FACE('',(#47,#29),#22,.T.);
#188=CLOSED_SHELL('',(#178,#179,#180,#181,#182,#183,#184,#185,#186,#187));
#189=DERIVED_UNIT_ELEMENT(#191,1.);
#190=DERIVED_UNIT_ELEMENT(#468,-3.);
#191=(
MASS_UNIT()
NAMED_UNIT(*)
SI_UNIT(.KILO.,.GRAM.)
);
#192=DERIVED_UNIT((#189,#190));
#193=MEASURE_REPRESENTATION_ITEM('density measure',
POSITIVE_RATIO_MEASURE(7850.),#192);
#194=PROPERTY_DEFINITION_REPRESENTATION(#199,#196);
#195=PROPERTY_DEFINITION_REPRESENTATION(#200,#197);
#196=REPRESENTATION('material name',(#198),#465);
#197=REPRESENTATION('density',(#193),#465);
#198=DESCRIPTIVE_REPRESENTATION_ITEM('Steel','Steel');
#199=PROPERTY_DEFINITION('material property','material name',#480);
#200=PROPERTY_DEFINITION('material property','density of part',#480);
#201=AXIS2_PLACEMENT_3D('',#271,#222,#223);
#202=AXIS2_PLACEMENT_3D('',#272,#224,#225);
#203=AXIS2_PLACEMENT_3D('',#273,#226,#227);
#204=AXIS2_PLACEMENT_3D('',#352,#229,#230);
#205=AXIS2_PLACEMENT_3D('',#431,#232,#233);
#206=AXIS2_PLACEMENT_3D('',#433,#234,#235);
#207=AXIS2_PLACEMENT_3D('',#436,#237,#238);
#208=AXIS2_PLACEMENT_3D('',#437,#239,#240);
#209=AXIS2_PLACEMENT_3D('',#439,#241,#242);
#210=AXIS2_PLACEMENT_3D('',#440,#243,#244);
#211=AXIS2_PLACEMENT_3D('',#442,#245,#246);
#212=AXIS2_PLACEMENT_3D('',#444,#248,#249);
#213=AXIS2_PLACEMENT_3D('',#446,#250,#251);
#214=AXIS2_PLACEMENT_3D('',#447,#252,#253);
#215=AXIS2_PLACEMENT_3D('',#449,#254,#255);
#216=AXIS2_PLACEMENT_3D('',#452,#258,#259);
#217=AXIS2_PLACEMENT_3D('',#454,#260,#261);
#218=AXIS2_PLACEMENT_3D('',#455,#262,#263);
#219=AXIS2_PLACEMENT_3D('',#457,#264,#265);
#220=AXIS2_PLACEMENT_3D('',#459,#267,#268);
#221=AXIS2_PLACEMENT_3D('',#460,#269,#270);
#222=DIRECTION('axis',(0.,0.,1.));
#223=DIRECTION('refdir',(1.,0.,0.));
#224=DIRECTION('axis',(0.,0.,1.));
#225=DIRECTION('refdir',(1.,0.,0.));
#226=DIRECTION('center_axis',(0.,-1.,0.));
#227=DIRECTION('ref_axis',(0.,0.,1.));
#228=DIRECTION('',(0.,-1.,0.));
#229=DIRECTION('center_axis',(0.,-1.,0.));
#230=DIRECTION('ref_axis',(0.,0.,1.));
#231=DIRECTION('',(0.,-1.,0.));
#232=DIRECTION('center_axis',(0.,0.,-1.));
#233=DIRECTION('ref_axis',(1.,0.,0.));
#234=DIRECTION('center_axis',(0.,0.,-1.));
#235=DIRECTION('ref_axis',(1.,0.,0.));
#236=DIRECTION('',(0.,0.,-1.));
#237=DIRECTION('center_axis',(0.,0.,1.));
#238=DIRECTION('ref_axis',(1.,0.,0.));
#239=DIRECTION('center_axis',(0.,0.,1.));
#240=DIRECTION('ref_axis',(1.,0.,0.));
#241=DIRECTION('center_axis',(0.,0.,-1.));
#242=DIRECTION('ref_axis',(1.,0.,0.));
#243=DIRECTION('center_axis',(0.,0.,-1.));
#244=DIRECTION('ref_axis',(0.,1.,0.));
#245=DIRECTION('center_axis',(0.,0.,-1.));
#246=DIRECTION('ref_axis',(1.,0.,0.));
#247=DIRECTION('',(0.,0.,1.));
#248=DIRECTION('center_axis',(0.,0.,-1.));
#249=DIRECTION('ref_axis',(-1.,0.,0.));
#250=DIRECTION('center_axis',(0.,0.,-1.));
#251=DIRECTION('ref_axis',(1.,0.,0.));
#252=DIRECTION('center_axis',(0.,0.,-1.));
#253=DIRECTION('ref_axis',(0.,1.,0.));
#254=DIRECTION('center_axis',(0.,0.,-1.));
#255=DIRECTION('ref_axis',(1.,0.,0.));
#256=DIRECTION('',(0.,0.,1.));
#257=DIRECTION('',(0.,0.,1.));
#258=DIRECTION('center_axis',(0.,0.,1.));
#259=DIRECTION('ref_axis',(1.,0.,0.));
#260=DIRECTION('center_axis',(0.,0.,-1.));
#261=DIRECTION('ref_axis',(1.,0.,0.));
#262=DIRECTION('center_axis',(0.,0.,-1.));
#263=DIRECTION('ref_axis',(0.,1.,0.));
#264=DIRECTION('center_axis',(0.,0.,-1.));
#265=DIRECTION('ref_axis',(1.,0.,0.));
#266=DIRECTION('',(0.,0.,1.));
#267=DIRECTION('center_axis',(0.,0.,-1.));
#268=DIRECTION('ref_axis',(-1.,0.,0.));
#269=DIRECTION('',(0.,0.,1.));
#270=DIRECTION('',(1.,0.,0.));
#271=CARTESIAN_POINT('',(0.,0.,0.));
#272=CARTESIAN_POINT('',(0.,0.,0.));
#273=CARTESIAN_POINT('Origin',(0.,1.043081276908E-7,6.95614628493786));
#274=CARTESIAN_POINT('',(0.,7.00000010430813,4.95614628493786));
#275=CARTESIAN_POINT('',(0.,7.00000010430813,8.95614628493786));
#276=CARTESIAN_POINT('Ctrl Pts',(-2.08166817117217E-16,7.00000010430813,
4.95614628493786));
#277=CARTESIAN_POINT('Ctrl Pts',(0.252619438707112,7.00000010430813,4.95614628493786));
#278=CARTESIAN_POINT('Ctrl Pts',(0.521132964520239,6.98496702086192,5.00691922109087));
#279=CARTESIAN_POINT('Ctrl Pts',(1.01349590476694,6.93066879194971,5.21147104450684));
#280=CARTESIAN_POINT('Ctrl Pts',(1.23745515556753,6.89211718158574,5.3651743157592));
#281=CARTESIAN_POINT('Ctrl Pts',(1.59101494188794,6.81918336763207,5.7187341020796));
#282=CARTESIAN_POINT('Ctrl Pts',(1.74468486404261,6.77992008458632,5.94267575713811));
#283=CARTESIAN_POINT('Ctrl Pts',(1.94921215561666,6.72397308180874,6.43497522326036));
#284=CARTESIAN_POINT('Ctrl Pts',(2.,6.70820404134473,6.70346543052841));
#285=CARTESIAN_POINT('Ctrl Pts',(2.,6.70820404134473,7.20882713934731));
#286=CARTESIAN_POINT('Ctrl Pts',(1.94921215561666,6.72397308180874,7.47731734661535));
#287=CARTESIAN_POINT('Ctrl Pts',(1.74468486404261,6.77992008458632,7.96961681273761));
#288=CARTESIAN_POINT('Ctrl Pts',(1.59101494188794,6.81918336763207,8.19355846779611));
#289=CARTESIAN_POINT('Ctrl Pts',(1.23745515556754,6.89211718158574,8.54711825411652));
#290=CARTESIAN_POINT('Ctrl Pts',(1.01349590476694,6.93066879194971,8.70082152536888));
#291=CARTESIAN_POINT('Ctrl Pts',(0.521132964520239,6.98496702086192,8.90537334878485));
#292=CARTESIAN_POINT('Ctrl Pts',(0.252619438707113,7.00000010430813,8.95614628493786));
#293=CARTESIAN_POINT('Ctrl Pts',(4.85722573273506E-16,7.00000010430813,
8.95614628493786));
#294=CARTESIAN_POINT('',(1.91853618953808E-16,6.25,4.95614628493786));
#295=CARTESIAN_POINT('',(2.44929359829471E-16,1.043081276908E-7,4.95614628493786));
#296=CARTESIAN_POINT('',(-2.,5.92135964116351,6.95614628493786));
#297=CARTESIAN_POINT('Ctrl Pts',(-2.,5.92135964116351,6.95614628493786));
#298=CARTESIAN_POINT('Ctrl Pts',(-2.,5.92135964116351,7.20925481438782));
#299=CARTESIAN_POINT('Ctrl Pts',(-1.94904993293036,5.93929074370413,7.47790155270655));
#300=CARTESIAN_POINT('Ctrl Pts',(-1.74441838116075,6.00258062609427,7.97006409852676));
#301=CARTESIAN_POINT('Ctrl Pts',(-1.59082160741007,6.04687193013923,8.19375180227398));
#302=CARTESIAN_POINT('Ctrl Pts',(-1.23767447817922,6.12890771220065,8.54689893150483));
#303=CARTESIAN_POINT('Ctrl Pts',(-1.01395907658602,6.17218732677217,8.70054892556534));
#304=CARTESIAN_POINT('Ctrl Pts',(-0.521694665786101,6.23312474441485,8.9052199991201));
#305=CARTESIAN_POINT('Ctrl Pts',(-0.253009697159602,6.25,8.95614628493786));
#306=CARTESIAN_POINT('Ctrl Pts',(0.253009697159602,6.25,8.95614628493786));
#307=CARTESIAN_POINT('Ctrl Pts',(0.521694665786101,6.23312474441485,8.9052199991201));
#308=CARTESIAN_POINT('Ctrl Pts',(1.01395907658602,6.17218732677217,8.70054892556534));
#309=CARTESIAN_POINT('Ctrl Pts',(1.23767447817922,6.12890771220065,8.54689893150483));
#310=CARTESIAN_POINT('Ctrl Pts',(1.59082160741007,6.04687193013923,8.19375180227398));
#311=CARTESIAN_POINT('Ctrl Pts',(1.74441838116075,6.00258062609427,7.97006409852676));
#312=CARTESIAN_POINT('Ctrl Pts',(1.94904993293036,5.93929074370413,7.47790155270655));
#313=CARTESIAN_POINT('Ctrl Pts',(2.,5.92135964116351,7.20925481438782));
#314=CARTESIAN_POINT('Ctrl Pts',(2.,5.92135964116351,6.7030377554879));
#315=CARTESIAN_POINT('Ctrl Pts',(1.94904993293036,5.93929074370413,6.43439101716917));
#316=CARTESIAN_POINT('Ctrl Pts',(1.74441838116075,6.00258062609427,5.94222847134896));
#317=CARTESIAN_POINT('Ctrl Pts',(1.59082160741007,6.04687193013923,5.71854076760174));
#318=CARTESIAN_POINT('Ctrl Pts',(1.23767447817922,6.12890771220065,5.36539363837089));
#319=CARTESIAN_POINT('Ctrl Pts',(1.01395907658602,6.17218732677217,5.21174364431038));
#320=CARTESIAN_POINT('Ctrl Pts',(0.521694665786102,6.23312474441485,5.00707257075561));
#321=CARTESIAN_POINT('Ctrl Pts',(0.253009697159602,6.25,4.95614628493786));
#322=CARTESIAN_POINT('Ctrl Pts',(2.08166817117217E-16,6.25,4.95614628493786));
#323=CARTESIAN_POINT('Ctrl Pts',(1.38777878078145E-16,6.25,4.95614628493786));
#324=CARTESIAN_POINT('Ctrl Pts',(-0.253009697159601,6.25,4.95614628493786));
#325=CARTESIAN_POINT('Ctrl Pts',(-0.5216946657861,6.23312474441485,5.00707257075561));
#326=CARTESIAN_POINT('Ctrl Pts',(-1.01395907658602,6.17218732677217,5.21174364431038));
#327=CARTESIAN_POINT('Ctrl Pts',(-1.23767447817922,6.12890771220065,5.36539363837089));
#328=CARTESIAN_POINT('Ctrl Pts',(-1.59082160741007,6.04687193013923,5.71854076760174));
#329=CARTESIAN_POINT('Ctrl Pts',(-1.74441838116075,6.00258062609428,5.94222847134896));
#330=CARTESIAN_POINT('Ctrl Pts',(-1.94904993293036,5.93929074370413,6.43439101716917));
#331=CARTESIAN_POINT('Ctrl Pts',(-2.,5.92135964116351,6.70303775548789));
#332=CARTESIAN_POINT('Ctrl Pts',(-2.,5.92135964116351,6.95614628493786));
#333=CARTESIAN_POINT('Ctrl Pts',(6.24500451351651E-16,7.00000010430813,
8.95614628493786));
#334=CARTESIAN_POINT('Ctrl Pts',(-0.252619438707111,7.00000010430813,8.95614628493786));
#335=CARTESIAN_POINT('Ctrl Pts',(-0.521132964520238,6.98496702086192,8.90537334878485));
#336=CARTESIAN_POINT('Ctrl Pts',(-1.01349590476694,6.93066879194971,8.70082152536888));
#337=CARTESIAN_POINT('Ctrl Pts',(-1.23745515556753,6.89211718158574,8.54711825411652));
#338=CARTESIAN_POINT('Ctrl Pts',(-1.59101494188794,6.81918336763207,8.19355846779611));
#339=CARTESIAN_POINT('Ctrl Pts',(-1.74468486404261,6.77992008458632,7.96961681273761));
#340=CARTESIAN_POINT('Ctrl Pts',(-1.94921215561666,6.72397308180874,7.47731734661535));
#341=CARTESIAN_POINT('Ctrl Pts',(-2.,6.70820404134473,7.20882713934731));
#342=CARTESIAN_POINT('Ctrl Pts',(-2.,6.70820404134473,6.95614628493786));
#343=CARTESIAN_POINT('Ctrl Pts',(-2.,6.70820404134473,6.70346543052841));
#344=CARTESIAN_POINT('Ctrl Pts',(-1.94921215561666,6.72397308180874,6.43497522326036));
#345=CARTESIAN_POINT('Ctrl Pts',(-1.74468486404261,6.77992008458632,5.94267575713811));
#346=CARTESIAN_POINT('Ctrl Pts',(-1.59101494188794,6.81918336763207,5.7187341020796));
#347=CARTESIAN_POINT('Ctrl Pts',(-1.23745515556754,6.89211718158574,5.3651743157592));
#348=CARTESIAN_POINT('Ctrl Pts',(-1.01349590476694,6.93066879194971,5.21147104450684));
#349=CARTESIAN_POINT('Ctrl Pts',(-0.521132964520239,6.98496702086192,5.00691922109087));
#350=CARTESIAN_POINT('Ctrl Pts',(-0.252619438707112,7.00000010430813,4.95614628493786));
#351=CARTESIAN_POINT('Ctrl Pts',(-2.08166817117217E-16,7.00000010430813,
4.95614628493786));
#352=CARTESIAN_POINT('Origin',(0.,1.043081276908E-7,6.95614628493786));
#353=CARTESIAN_POINT('',(-2.,-5.92135964116351,6.95614628493786));
#354=CARTESIAN_POINT('',(1.57159149434271E-16,-6.25,4.95614628493786));
#355=CARTESIAN_POINT('Ctrl Pts',(-2.,-5.92135964116351,6.95614628493786));
#356=CARTESIAN_POINT('Ctrl Pts',(-2.,-5.92135964116351,6.70303775548789));
#357=CARTESIAN_POINT('Ctrl Pts',(-1.94904993293036,-5.93929074370413,6.43439101716917));
#358=CARTESIAN_POINT('Ctrl Pts',(-1.74441838116075,-6.00258062609428,5.94222847134896));
#359=CARTESIAN_POINT('Ctrl Pts',(-1.59082160741007,-6.04687193013923,5.71854076760174));
#360=CARTESIAN_POINT('Ctrl Pts',(-1.23767447817922,-6.12890771220065,5.36539363837089));
#361=CARTESIAN_POINT('Ctrl Pts',(-1.01395907658602,-6.17218732677217,5.21174364431038));
#362=CARTESIAN_POINT('Ctrl Pts',(-0.521694665786101,-6.23312474441485,5.00707257075561));
#363=CARTESIAN_POINT('Ctrl Pts',(-0.253009697159601,-6.25,4.95614628493786));
#364=CARTESIAN_POINT('Ctrl Pts',(2.77555756156289E-16,-6.25,4.95614628493786));
#365=CARTESIAN_POINT('Ctrl Pts',(6.93889390390723E-17,-6.25,4.95614628493786));
#366=CARTESIAN_POINT('Ctrl Pts',(0.253009697159602,-6.25,4.95614628493786));
#367=CARTESIAN_POINT('Ctrl Pts',(0.521694665786101,-6.23312474441485,5.00707257075561));
#368=CARTESIAN_POINT('Ctrl Pts',(1.01395907658602,-6.17218732677217,5.21174364431038));
#369=CARTESIAN_POINT('Ctrl Pts',(1.23767447817922,-6.12890771220065,5.36539363837089));
#370=CARTESIAN_POINT('Ctrl Pts',(1.59082160741007,-6.04687193013923,5.71854076760174));
#371=CARTESIAN_POINT('Ctrl Pts',(1.74441838116075,-6.00258062609427,5.94222847134896));
#372=CARTESIAN_POINT('Ctrl Pts',(1.94904993293036,-5.93929074370413,6.43439101716917));
#373=CARTESIAN_POINT('Ctrl Pts',(2.,-5.92135964116351,6.7030377554879));
#374=CARTESIAN_POINT('Ctrl Pts',(2.,-5.92135964116351,7.20925481438782));
#375=CARTESIAN_POINT('Ctrl Pts',(1.94904993293036,-5.93929074370413,7.47790155270655));
#376=CARTESIAN_POINT('Ctrl Pts',(1.74441838116075,-6.00258062609427,7.97006409852676));
#377=CARTESIAN_POINT('Ctrl Pts',(1.59082160741007,-6.04687193013923,8.19375180227398));
#378=CARTESIAN_POINT('Ctrl Pts',(1.23767447817922,-6.12890771220065,8.54689893150483));
#379=CARTESIAN_POINT('Ctrl Pts',(1.01395907658602,-6.17218732677217,8.70054892556534));
#380=CARTESIAN_POINT('Ctrl Pts',(0.521694665786101,-6.23312474441485,8.9052199991201));
#381=CARTESIAN_POINT('Ctrl Pts',(0.253009697159602,-6.25,8.95614628493786));
#382=CARTESIAN_POINT('Ctrl Pts',(-0.253009697159602,-6.25,8.95614628493786));
#383=CARTESIAN_POINT('Ctrl Pts',(-0.521694665786101,-6.23312474441485,8.9052199991201));
#384=CARTESIAN_POINT('Ctrl Pts',(-1.01395907658602,-6.17218732677217,8.70054892556534));
#385=CARTESIAN_POINT('Ctrl Pts',(-1.23767447817922,-6.12890771220065,8.54689893150483));
#386=CARTESIAN_POINT('Ctrl Pts',(-1.59082160741007,-6.04687193013923,8.19375180227398));
#387=CARTESIAN_POINT('Ctrl Pts',(-1.74441838116075,-6.00258062609428,7.97006409852676));
#388=CARTESIAN_POINT('Ctrl Pts',(-1.94904993293036,-5.93929074370413,7.47790155270654));
#389=CARTESIAN_POINT('Ctrl Pts',(-2.,-5.92135964116351,7.20925481438782));
#390=CARTESIAN_POINT('Ctrl Pts',(-2.,-5.92135964116351,6.95614628493786));
#391=CARTESIAN_POINT('',(0.,-6.99999989569187,4.95614628493786));
#392=CARTESIAN_POINT('',(2.44929359829471E-16,1.043081276908E-7,4.95614628493786));
#393=CARTESIAN_POINT('',(0.,-6.99999989569187,8.95614628493786));
#394=CARTESIAN_POINT('Ctrl Pts',(6.24500451351651E-16,-7.00000010430813,
8.95614628493786));
#395=CARTESIAN_POINT('Ctrl Pts',(0.252619438707113,-7.00000010430813,8.95614628493786));
#396=CARTESIAN_POINT('Ctrl Pts',(0.521132964520239,-6.98496702086192,8.90537334878485));
#397=CARTESIAN_POINT('Ctrl Pts',(1.01349590476694,-6.93066879194971,8.70082152536888));
#398=CARTESIAN_POINT('Ctrl Pts',(1.23745515556754,-6.89211718158574,8.54711825411652));
#399=CARTESIAN_POINT('Ctrl Pts',(1.59101494188794,-6.81918336763207,8.19355846779611));
#400=CARTESIAN_POINT('Ctrl Pts',(1.7446848640426,-6.77992008458632,7.96961681273761));
#401=CARTESIAN_POINT('Ctrl Pts',(1.94921215561666,-6.72397308180874,7.47731734661536));
#402=CARTESIAN_POINT('Ctrl Pts',(2.,-6.70820404134473,7.20882713934731));
#403=CARTESIAN_POINT('Ctrl Pts',(2.,-6.70820404134473,6.70346543052841));
#404=CARTESIAN_POINT('Ctrl Pts',(1.94921215561666,-6.72397308180874,6.43497522326036));
#405=CARTESIAN_POINT('Ctrl Pts',(1.74468486404261,-6.77992008458632,5.94267575713811));
#406=CARTESIAN_POINT('Ctrl Pts',(1.59101494188794,-6.81918336763207,5.7187341020796));
#407=CARTESIAN_POINT('Ctrl Pts',(1.23745515556753,-6.89211718158574,5.3651743157592));
#408=CARTESIAN_POINT('Ctrl Pts',(1.01349590476694,-6.93066879194971,5.21147104450684));
#409=CARTESIAN_POINT('Ctrl Pts',(0.521132964520239,-6.98496702086192,5.00691922109087));
#410=CARTESIAN_POINT('Ctrl Pts',(0.252619438707112,-7.00000010430813,4.95614628493786));
#411=CARTESIAN_POINT('Ctrl Pts',(-2.77555756156289E-16,-7.00000010430813,
4.95614628493786));
#412=CARTESIAN_POINT('Ctrl Pts',(-3.46944695195361E-16,-7.00000010430813,
4.95614628493786));
#413=CARTESIAN_POINT('Ctrl Pts',(-0.252619438707113,-7.00000010430813,4.95614628493786));
#414=CARTESIAN_POINT('Ctrl Pts',(-0.52113296452024,-6.98496702086192,5.00691922109087));
#415=CARTESIAN_POINT('Ctrl Pts',(-1.01349590476694,-6.93066879194971,5.21147104450684));
#416=CARTESIAN_POINT('Ctrl Pts',(-1.23745515556754,-6.89211718158574,5.3651743157592));
#417=CARTESIAN_POINT('Ctrl Pts',(-1.59101494188794,-6.81918336763207,5.7187341020796));
#418=CARTESIAN_POINT('Ctrl Pts',(-1.74468486404261,-6.77992008458632,5.94267575713811));
#419=CARTESIAN_POINT('Ctrl Pts',(-1.94921215561666,-6.72397308180874,6.43497522326036));
#420=CARTESIAN_POINT('Ctrl Pts',(-2.,-6.70820404134473,6.70346543052841));
#421=CARTESIAN_POINT('Ctrl Pts',(-2.,-6.70820404134473,6.95614628493786));
#422=CARTESIAN_POINT('Ctrl Pts',(-2.,-6.70820404134473,7.20882713934731));
#423=CARTESIAN_POINT('Ctrl Pts',(-1.94921215561666,-6.72397308180874,7.47731734661535));
#424=CARTESIAN_POINT('Ctrl Pts',(-1.74468486404261,-6.77992008458632,7.96961681273761));
#425=CARTESIAN_POINT('Ctrl Pts',(-1.59101494188794,-6.81918336763207,8.19355846779611));
#426=CARTESIAN_POINT('Ctrl Pts',(-1.23745515556753,-6.89211718158574,8.54711825411652));
#427=CARTESIAN_POINT('Ctrl Pts',(-1.01349590476694,-6.93066879194971,8.70082152536888));
#428=CARTESIAN_POINT('Ctrl Pts',(-0.521132964520238,-6.98496702086192,8.90537334878485));
#429=CARTESIAN_POINT('Ctrl Pts',(-0.252619438707112,-7.00000010430813,8.95614628493786));
#430=CARTESIAN_POINT('Ctrl Pts',(4.85722573273506E-16,-7.00000010430813,
8.95614628493786));
#431=CARTESIAN_POINT('Origin',(0.,-3.1185374660155E-16,-0.749999806284904));
#432=CARTESIAN_POINT('',(-6.25,4.53550502865546E-16,13.0000001937151));
#433=CARTESIAN_POINT('Origin',(0.,-3.1185374660155E-16,13.0000001937151));
#434=CARTESIAN_POINT('',(-6.25,-1.07725799606865E-15,-11.9999998062849));
#435=CARTESIAN_POINT('',(-6.25,4.53550502865546E-16,-0.749999806284904));
#436=CARTESIAN_POINT('Origin',(0.,-3.1185374660155E-16,-11.9999998062849));
#437=CARTESIAN_POINT('Origin',(0.,7.9,13.0000001937151));
#438=CARTESIAN_POINT('',(-9.67470971326409E-16,-7.9,13.0000001937151));
#439=CARTESIAN_POINT('Origin',(0.,0.,13.0000001937151));
#440=CARTESIAN_POINT('Origin',(0.,0.,11.0000001937151));
#441=CARTESIAN_POINT('',(-9.67470971326409E-16,-7.9,9.00000019371509));
#442=CARTESIAN_POINT('Origin',(0.,0.,9.00000019371509));
#443=CARTESIAN_POINT('',(-9.67470971326409E-16,-7.9,11.0000001937151));
#444=CARTESIAN_POINT('Origin',(0.,7.00000010430813,9.0000001937151));
#445=CARTESIAN_POINT('',(-8.57252772177209E-16,-7.00000010430813,9.00000019371509));
#446=CARTESIAN_POINT('Origin',(0.,0.,9.00000019371509));
#447=CARTESIAN_POINT('Origin',(0.,0.,0.500000193715093));
#448=CARTESIAN_POINT('',(-8.57252772177209E-16,-7.00000010430813,-7.99999980628491));
#449=CARTESIAN_POINT('Origin',(0.,0.,-7.99999980628491));
#450=CARTESIAN_POINT('',(-8.57252772177209E-16,-7.00000010430813,0.500000193715093));
#451=CARTESIAN_POINT('',(-8.57252772177209E-16,-7.00000010430813,0.500000193715093));
#452=CARTESIAN_POINT('Origin',(0.,8.,-7.99999980628491));
#453=CARTESIAN_POINT('',(-9.79717439317883E-16,-8.,-7.99999980628491));
#454=CARTESIAN_POINT('Origin',(0.,0.,-7.99999980628491));
#455=CARTESIAN_POINT('Origin',(0.,0.,-9.99999980628491));
#456=CARTESIAN_POINT('',(-9.79717439317883E-16,-8.,-11.9999998062849));
#457=CARTESIAN_POINT('Origin',(0.,0.,-11.9999998062849));
#458=CARTESIAN_POINT('',(-9.79717439317883E-16,-8.,-9.99999980628491));
#459=CARTESIAN_POINT('Origin',(0.,0.,-11.9999998062849));
#460=CARTESIAN_POINT('',(0.,0.,0.));
#461=UNCERTAINTY_MEASURE_WITH_UNIT(LENGTH_MEASURE(0.01),#467,
'DISTANCE_ACCURACY_VALUE',
'Maximum model space distance between geometric entities at asserted c
onnectivities');
#462=UNCERTAINTY_MEASURE_WITH_UNIT(LENGTH_MEASURE(0.01),#467,
'DISTANCE_ACCURACY_VALUE',
'Maximum model space distance between geometric entities at asserted c
onnectivities');
#463=UNCERTAINTY_MEASURE_WITH_UNIT(LENGTH_MEASURE(0.01),#467,
'DISTANCE_ACCURACY_VALUE',
'Maximum model space distance between geometric entities at asserted c
onnectivities');
#464=(
GEOMETRIC_REPRESENTATION_CONTEXT(3)
GLOBAL_UNCERTAINTY_ASSIGNED_CONTEXT((#461))
GLOBAL_UNIT_ASSIGNED_CONTEXT((#467,#469,#470))
REPRESENTATION_CONTEXT('','3D')
);
#465=(
GEOMETRIC_REPRESENTATION_CONTEXT(3)
GLOBAL_UNCERTAINTY_ASSIGNED_CONTEXT((#462))
GLOBAL_UNIT_ASSIGNED_CONTEXT((#467,#469,#470))
REPRESENTATION_CONTEXT('','3D')
);
#466=(
GEOMETRIC_REPRESENTATION_CONTEXT(3)
GLOBAL_UNCERTAINTY_ASSIGNED_CONTEXT((#463))
GLOBAL_UNIT_ASSIGNED_CONTEXT((#467,#469,#470))
REPRESENTATION_CONTEXT('','3D')
);
#467=(
LENGTH_UNIT()
NAMED_UNIT(*)
SI_UNIT(.MILLI.,.METRE.)
);
#468=(
LENGTH_UNIT()
NAMED_UNIT(*)
SI_UNIT($,.METRE.)
);
#469=(
NAMED_UNIT(*)
PLANE_ANGLE_UNIT()
SI_UNIT($,.RADIAN.)
);
#470=(
NAMED_UNIT(*)
SI_UNIT($,.STERADIAN.)
SOLID_ANGLE_UNIT()
);
#471=SHAPE_DEFINITION_REPRESENTATION(#473,#476);
#472=SHAPE_DEFINITION_REPRESENTATION(#474,#477);
#473=PRODUCT_DEFINITION_SHAPE('',$,#479);
#474=PRODUCT_DEFINITION_SHAPE('',$,#480);
#475=PRODUCT_DEFINITION_SHAPE($,$,#14);
#476=SHAPE_REPRESENTATION('',(#201,#221),#464);
#477=SHAPE_REPRESENTATION('',(#202),#465);
#478=PRODUCT_DEFINITION_CONTEXT('part definition',#486,'design');
#479=PRODUCT_DEFINITION('gasChargingCryoarmGuide v2',
'gasChargingCryoarmGuide v2 v4',#481,#478);
#480=PRODUCT_DEFINITION('gasChargingCryoarmGuide',
'gasChargingCryoarmGuide',#482,#478);
#481=PRODUCT_DEFINITION_FORMATION('',$,#488);
#482=PRODUCT_DEFINITION_FORMATION('',$,#489);
#483=PRODUCT_RELATED_PRODUCT_CATEGORY('gasChargingCryoarmGuide v2 v4',
'gasChargingCryoarmGuide v2 v4',(#488));
#484=PRODUCT_RELATED_PRODUCT_CATEGORY('gasChargingCryoarmGuide',
'gasChargingCryoarmGuide',(#489));
#485=APPLICATION_PROTOCOL_DEFINITION('international standard',
'automotive_design',2009,#486);
#486=APPLICATION_CONTEXT(
'Core Data for Automotive Mechanical Design Process');
#487=PRODUCT_CONTEXT('part definition',#486,'mechanical');
#488=PRODUCT('gasChargingCryoarmGuide v2',
'gasChargingCryoarmGuide v2 v4',$,(#487));
#489=PRODUCT('gasChargingCryoarmGuide','gasChargingCryoarmGuide',$,(#487));
#490=PRESENTATION_STYLE_ASSIGNMENT((#491));
#491=SURFACE_STYLE_USAGE(.BOTH.,#492);
#492=SURFACE_SIDE_STYLE('',(#493));
#493=SURFACE_STYLE_FILL_AREA(#494);
#494=FILL_AREA_STYLE('Steel - Satin',(#495));
#495=FILL_AREA_STYLE_COLOUR('Steel - Satin',#496);
#496=COLOUR_RGB('Steel - Satin',0.627450980392157,0.627450980392157,0.627450980392157);
ENDSEC;
END-ISO-10303-21;
