ISO-10303-21;
HEADER;
/* Generated by software containing ST-Developer
 * from STEP Tools, Inc. (www.steptools.com) 
 */

FILE_DESCRIPTION(
/* description */ (''),
/* implementation_level */ '2;1');

FILE_NAME(
/* name */ 'cryo clamp upper v8.step',
/* time_stamp */ '2024-06-14T15:05:03+02:00',
/* author */ (''),
/* organization */ (''),
/* preprocessor_version */ 'ST-DEVELOPER v20',
/* originating_system */ 'Autodesk Translation Framework v13.14.0.145',

/* authorisation */ '');

FILE_SCHEMA (('AUTOMOTIVE_DESIGN { 1 0 10303 214 3 1 1 }'));
ENDSEC;

DATA;
#10=MECHANICAL_DESIGN_GEOMETRIC_PRESENTATION_REPRESENTATION('',(#17),#396);
#11=ITEM_DEFINED_TRANSFORMATION($,$,#236,#262);
#12=(
REPRESENTATION_RELATIONSHIP($,$,#407,#406)
REPRESENTATION_RELATIONSHIP_WITH_TRANSFORMATION(#11)
SHAPE_REPRESENTATION_RELATIONSHIP()
);
#13=CONTEXT_DEPENDENT_SHAPE_REPRESENTATION(#12,#405);
#14=NEXT_ASSEMBLY_USAGE_OCCURRENCE('LC:1','LC:1','LC:1',#409,#410,
'LC:1');
#15=SHAPE_REPRESENTATION_RELATIONSHIP('SRR','None',#407,#16);
#16=ADVANCED_BREP_SHAPE_REPRESENTATION('',(#18),#395);
#17=STYLED_ITEM('',(#420),#18);
#18=MANIFOLD_SOLID_BREP('LC',#222);
#19=FACE_BOUND('',#54,.T.);
#20=FACE_BOUND('',#55,.T.);
#21=FACE_BOUND('',#56,.T.);
#22=FACE_BOUND('',#57,.T.);
#23=FACE_BOUND('',#58,.T.);
#24=FACE_BOUND('',#60,.T.);
#25=FACE_BOUND('',#61,.T.);
#26=FACE_BOUND('',#62,.T.);
#27=FACE_BOUND('',#63,.T.);
#28=FACE_BOUND('',#64,.T.);
#29=PLANE('',#252);
#30=PLANE('',#256);
#31=PLANE('',#260);
#32=PLANE('',#261);
#33=FACE_OUTER_BOUND('',#44,.T.);
#34=FACE_OUTER_BOUND('',#45,.T.);
#35=FACE_OUTER_BOUND('',#46,.T.);
#36=FACE_OUTER_BOUND('',#47,.T.);
#37=FACE_OUTER_BOUND('',#48,.T.);
#38=FACE_OUTER_BOUND('',#49,.T.);
#39=FACE_OUTER_BOUND('',#50,.T.);
#40=FACE_OUTER_BOUND('',#51,.T.);
#41=FACE_OUTER_BOUND('',#52,.T.);
#42=FACE_OUTER_BOUND('',#53,.T.);
#43=FACE_OUTER_BOUND('',#59,.T.);
#44=EDGE_LOOP('',(#150,#151,#152,#153));
#45=EDGE_LOOP('',(#154,#155,#156,#157));
#46=EDGE_LOOP('',(#158,#159,#160,#161));
#47=EDGE_LOOP('',(#162,#163,#164,#165));
#48=EDGE_LOOP('',(#166,#167,#168,#169));
#49=EDGE_LOOP('',(#170,#171,#172,#173));
#50=EDGE_LOOP('',(#174,#175,#176,#177));
#51=EDGE_LOOP('',(#178,#179,#180,#181));
#52=EDGE_LOOP('',(#182,#183,#184,#185));
#53=EDGE_LOOP('',(#186,#187,#188,#189));
#54=EDGE_LOOP('',(#190));
#55=EDGE_LOOP('',(#191));
#56=EDGE_LOOP('',(#192));
#57=EDGE_LOOP('',(#193));
#58=EDGE_LOOP('',(#194));
#59=EDGE_LOOP('',(#195,#196,#197,#198));
#60=EDGE_LOOP('',(#199));
#61=EDGE_LOOP('',(#200));
#62=EDGE_LOOP('',(#201));
#63=EDGE_LOOP('',(#202));
#64=EDGE_LOOP('',(#203));
#65=LINE('',#338,#78);
#66=LINE('',#344,#79);
#67=LINE('',#350,#80);
#68=LINE('',#356,#81);
#69=LINE('',#362,#82);
#70=LINE('',#367,#83);
#71=LINE('',#369,#84);
#72=LINE('',#371,#85);
#73=LINE('',#372,#86);
#74=LINE('',#378,#87);
#75=LINE('',#381,#88);
#76=LINE('',#383,#89);
#77=LINE('',#384,#90);
#78=VECTOR('',#271,1.8915);
#79=VECTOR('',#278,1.8915);
#80=VECTOR('',#285,1.8915);
#81=VECTOR('',#292,1.8915);
#82=VECTOR('',#299,1.8915);
#83=VECTOR('',#304,10.);
#84=VECTOR('',#305,10.);
#85=VECTOR('',#306,10.);
#86=VECTOR('',#307,10.);
#87=VECTOR('',#314,10.);
#88=VECTOR('',#317,10.);
#89=VECTOR('',#318,10.);
#90=VECTOR('',#319,10.);
#91=CIRCLE('',#238,1.89155);
#92=CIRCLE('',#239,1.89155);
#93=CIRCLE('',#241,1.89155);
#94=CIRCLE('',#242,1.89155);
#95=CIRCLE('',#244,1.89155);
#96=CIRCLE('',#245,1.89155);
#97=CIRCLE('',#247,1.89155);
#98=CIRCLE('',#248,1.89155);
#99=CIRCLE('',#250,1.89155);
#100=CIRCLE('',#251,1.89155);
#101=CIRCLE('',#254,7.5);
#102=CIRCLE('',#255,7.5);
#103=CIRCLE('',#258,16.);
#104=CIRCLE('',#259,16.);
#105=VERTEX_POINT('',#335);
#106=VERTEX_POINT('',#337);
#107=VERTEX_POINT('',#341);
#108=VERTEX_POINT('',#343);
#109=VERTEX_POINT('',#347);
#110=VERTEX_POINT('',#349);
#111=VERTEX_POINT('',#353);
#112=VERTEX_POINT('',#355);
#113=VERTEX_POINT('',#359);
#114=VERTEX_POINT('',#361);
#115=VERTEX_POINT('',#365);
#116=VERTEX_POINT('',#366);
#117=VERTEX_POINT('',#368);
#118=VERTEX_POINT('',#370);
#119=VERTEX_POINT('',#374);
#120=VERTEX_POINT('',#376);
#121=VERTEX_POINT('',#380);
#122=VERTEX_POINT('',#382);
#123=EDGE_CURVE('',#105,#105,#91,.F.);
#124=EDGE_CURVE('',#105,#106,#65,.T.);
#125=EDGE_CURVE('',#106,#106,#92,.T.);
#126=EDGE_CURVE('',#107,#107,#93,.F.);
#127=EDGE_CURVE('',#107,#108,#66,.T.);
#128=EDGE_CURVE('',#108,#108,#94,.T.);
#129=EDGE_CURVE('',#109,#109,#95,.F.);
#130=EDGE_CURVE('',#109,#110,#67,.T.);
#131=EDGE_CURVE('',#110,#110,#96,.T.);
#132=EDGE_CURVE('',#111,#111,#97,.F.);
#133=EDGE_CURVE('',#111,#112,#68,.T.);
#134=EDGE_CURVE('',#112,#112,#98,.T.);
#135=EDGE_CURVE('',#113,#113,#99,.F.);
#136=EDGE_CURVE('',#113,#114,#69,.T.);
#137=EDGE_CURVE('',#114,#114,#100,.T.);
#138=EDGE_CURVE('',#115,#116,#70,.T.);
#139=EDGE_CURVE('',#115,#117,#71,.T.);
#140=EDGE_CURVE('',#118,#117,#72,.T.);
#141=EDGE_CURVE('',#116,#118,#73,.T.);
#142=EDGE_CURVE('',#116,#119,#101,.T.);
#143=EDGE_CURVE('',#120,#118,#102,.T.);
#144=EDGE_CURVE('',#119,#120,#74,.T.);
#145=EDGE_CURVE('',#119,#121,#75,.T.);
#146=EDGE_CURVE('',#122,#120,#76,.T.);
#147=EDGE_CURVE('',#121,#122,#77,.T.);
#148=EDGE_CURVE('',#115,#121,#103,.T.);
#149=EDGE_CURVE('',#117,#122,#104,.T.);
#150=ORIENTED_EDGE('',*,*,#123,.F.);
#151=ORIENTED_EDGE('',*,*,#124,.T.);
#152=ORIENTED_EDGE('',*,*,#125,.F.);
#153=ORIENTED_EDGE('',*,*,#124,.F.);
#154=ORIENTED_EDGE('',*,*,#126,.F.);
#155=ORIENTED_EDGE('',*,*,#127,.T.);
#156=ORIENTED_EDGE('',*,*,#128,.F.);
#157=ORIENTED_EDGE('',*,*,#127,.F.);
#158=ORIENTED_EDGE('',*,*,#129,.F.);
#159=ORIENTED_EDGE('',*,*,#130,.T.);
#160=ORIENTED_EDGE('',*,*,#131,.F.);
#161=ORIENTED_EDGE('',*,*,#130,.F.);
#162=ORIENTED_EDGE('',*,*,#132,.F.);
#163=ORIENTED_EDGE('',*,*,#133,.T.);
#164=ORIENTED_EDGE('',*,*,#134,.F.);
#165=ORIENTED_EDGE('',*,*,#133,.F.);
#166=ORIENTED_EDGE('',*,*,#135,.F.);
#167=ORIENTED_EDGE('',*,*,#136,.T.);
#168=ORIENTED_EDGE('',*,*,#137,.F.);
#169=ORIENTED_EDGE('',*,*,#136,.F.);
#170=ORIENTED_EDGE('',*,*,#138,.F.);
#171=ORIENTED_EDGE('',*,*,#139,.T.);
#172=ORIENTED_EDGE('',*,*,#140,.F.);
#173=ORIENTED_EDGE('',*,*,#141,.F.);
#174=ORIENTED_EDGE('',*,*,#142,.F.);
#175=ORIENTED_EDGE('',*,*,#141,.T.);
#176=ORIENTED_EDGE('',*,*,#143,.F.);
#177=ORIENTED_EDGE('',*,*,#144,.F.);
#178=ORIENTED_EDGE('',*,*,#145,.F.);
#179=ORIENTED_EDGE('',*,*,#144,.T.);
#180=ORIENTED_EDGE('',*,*,#146,.F.);
#181=ORIENTED_EDGE('',*,*,#147,.F.);
#182=ORIENTED_EDGE('',*,*,#148,.T.);
#183=ORIENTED_EDGE('',*,*,#147,.T.);
#184=ORIENTED_EDGE('',*,*,#149,.F.);
#185=ORIENTED_EDGE('',*,*,#139,.F.);
#186=ORIENTED_EDGE('',*,*,#149,.T.);
#187=ORIENTED_EDGE('',*,*,#146,.T.);
#188=ORIENTED_EDGE('',*,*,#143,.T.);
#189=ORIENTED_EDGE('',*,*,#140,.T.);
#190=ORIENTED_EDGE('',*,*,#125,.T.);
#191=ORIENTED_EDGE('',*,*,#128,.T.);
#192=ORIENTED_EDGE('',*,*,#131,.T.);
#193=ORIENTED_EDGE('',*,*,#134,.T.);
#194=ORIENTED_EDGE('',*,*,#137,.T.);
#195=ORIENTED_EDGE('',*,*,#148,.F.);
#196=ORIENTED_EDGE('',*,*,#138,.T.);
#197=ORIENTED_EDGE('',*,*,#142,.T.);
#198=ORIENTED_EDGE('',*,*,#145,.T.);
#199=ORIENTED_EDGE('',*,*,#123,.T.);
#200=ORIENTED_EDGE('',*,*,#126,.T.);
#201=ORIENTED_EDGE('',*,*,#129,.T.);
#202=ORIENTED_EDGE('',*,*,#132,.T.);
#203=ORIENTED_EDGE('',*,*,#135,.T.);
#204=CYLINDRICAL_SURFACE('',#237,1.89155);
#205=CYLINDRICAL_SURFACE('',#240,1.89155);
#206=CYLINDRICAL_SURFACE('',#243,1.89155);
#207=CYLINDRICAL_SURFACE('',#246,1.89155);
#208=CYLINDRICAL_SURFACE('',#249,1.89155);
#209=CYLINDRICAL_SURFACE('',#253,7.5);
#210=CYLINDRICAL_SURFACE('',#257,16.);
#211=ADVANCED_FACE('',(#33),#204,.F.);
#212=ADVANCED_FACE('',(#34),#205,.F.);
#213=ADVANCED_FACE('',(#35),#206,.F.);
#214=ADVANCED_FACE('',(#36),#207,.F.);
#215=ADVANCED_FACE('',(#37),#208,.F.);
#216=ADVANCED_FACE('',(#38),#29,.T.);
#217=ADVANCED_FACE('',(#39),#209,.F.);
#218=ADVANCED_FACE('',(#40),#30,.T.);
#219=ADVANCED_FACE('',(#41),#210,.T.);
#220=ADVANCED_FACE('',(#42,#19,#20,#21,#22,#23),#31,.T.);
#221=ADVANCED_FACE('',(#43,#24,#25,#26,#27,#28),#32,.F.);
#222=CLOSED_SHELL('',(#211,#212,#213,#214,#215,#216,#217,#218,#219,#220,
#221));
#223=DERIVED_UNIT_ELEMENT(#225,1.);
#224=DERIVED_UNIT_ELEMENT(#398,-3.);
#225=(
MASS_UNIT()
NAMED_UNIT(*)
SI_UNIT(.KILO.,.GRAM.)
);
#226=DERIVED_UNIT((#223,#224));
#227=MEASURE_REPRESENTATION_ITEM('density measure',
POSITIVE_RATIO_MEASURE(7850.),#226);
#228=PROPERTY_DEFINITION_REPRESENTATION(#233,#230);
#229=PROPERTY_DEFINITION_REPRESENTATION(#234,#231);
#230=REPRESENTATION('material name',(#232),#395);
#231=REPRESENTATION('density',(#227),#395);
#232=DESCRIPTIVE_REPRESENTATION_ITEM('Steel','Steel');
#233=PROPERTY_DEFINITION('material property','material name',#410);
#234=PROPERTY_DEFINITION('material property','density of part',#410);
#235=AXIS2_PLACEMENT_3D('',#332,#263,#264);
#236=AXIS2_PLACEMENT_3D('',#333,#265,#266);
#237=AXIS2_PLACEMENT_3D('',#334,#267,#268);
#238=AXIS2_PLACEMENT_3D('',#336,#269,#270);
#239=AXIS2_PLACEMENT_3D('',#339,#272,#273);
#240=AXIS2_PLACEMENT_3D('',#340,#274,#275);
#241=AXIS2_PLACEMENT_3D('',#342,#276,#277);
#242=AXIS2_PLACEMENT_3D('',#345,#279,#280);
#243=AXIS2_PLACEMENT_3D('',#346,#281,#282);
#244=AXIS2_PLACEMENT_3D('',#348,#283,#284);
#245=AXIS2_PLACEMENT_3D('',#351,#286,#287);
#246=AXIS2_PLACEMENT_3D('',#352,#288,#289);
#247=AXIS2_PLACEMENT_3D('',#354,#290,#291);
#248=AXIS2_PLACEMENT_3D('',#357,#293,#294);
#249=AXIS2_PLACEMENT_3D('',#358,#295,#296);
#250=AXIS2_PLACEMENT_3D('',#360,#297,#298);
#251=AXIS2_PLACEMENT_3D('',#363,#300,#301);
#252=AXIS2_PLACEMENT_3D('',#364,#302,#303);
#253=AXIS2_PLACEMENT_3D('',#373,#308,#309);
#254=AXIS2_PLACEMENT_3D('',#375,#310,#311);
#255=AXIS2_PLACEMENT_3D('',#377,#312,#313);
#256=AXIS2_PLACEMENT_3D('',#379,#315,#316);
#257=AXIS2_PLACEMENT_3D('',#385,#320,#321);
#258=AXIS2_PLACEMENT_3D('',#386,#322,#323);
#259=AXIS2_PLACEMENT_3D('',#387,#324,#325);
#260=AXIS2_PLACEMENT_3D('',#388,#326,#327);
#261=AXIS2_PLACEMENT_3D('',#389,#328,#329);
#262=AXIS2_PLACEMENT_3D('',#390,#330,#331);
#263=DIRECTION('axis',(0.,0.,1.));
#264=DIRECTION('refdir',(1.,0.,0.));
#265=DIRECTION('axis',(0.,0.,1.));
#266=DIRECTION('refdir',(1.,0.,0.));
#267=DIRECTION('center_axis',(0.,1.,0.));
#268=DIRECTION('ref_axis',(0.866025403784439,0.,-0.499999999999999));
#269=DIRECTION('center_axis',(0.,-1.,0.));
#270=DIRECTION('ref_axis',(0.866025403784439,0.,-0.499999999999999));
#271=DIRECTION('',(0.,1.,0.));
#272=DIRECTION('center_axis',(0.,-1.,0.));
#273=DIRECTION('ref_axis',(0.866025403784439,0.,-0.499999999999999));
#274=DIRECTION('center_axis',(0.,1.,0.));
#275=DIRECTION('ref_axis',(0.866025403784438,0.,0.5));
#276=DIRECTION('center_axis',(0.,-1.,0.));
#277=DIRECTION('ref_axis',(0.866025403784438,0.,0.5));
#278=DIRECTION('',(0.,1.,0.));
#279=DIRECTION('center_axis',(0.,-1.,0.));
#280=DIRECTION('ref_axis',(0.866025403784438,0.,0.5));
#281=DIRECTION('center_axis',(0.,1.,0.));
#282=DIRECTION('ref_axis',(-0.866025403784439,0.,0.5));
#283=DIRECTION('center_axis',(0.,-1.,0.));
#284=DIRECTION('ref_axis',(-0.866025403784439,0.,0.5));
#285=DIRECTION('',(0.,1.,0.));
#286=DIRECTION('center_axis',(0.,-1.,0.));
#287=DIRECTION('ref_axis',(-0.866025403784439,0.,0.5));
#288=DIRECTION('center_axis',(0.,1.,0.));
#289=DIRECTION('ref_axis',(-0.866025403784439,0.,-0.5));
#290=DIRECTION('center_axis',(0.,-1.,0.));
#291=DIRECTION('ref_axis',(-0.866025403784439,0.,-0.5));
#292=DIRECTION('',(0.,1.,0.));
#293=DIRECTION('center_axis',(0.,-1.,0.));
#294=DIRECTION('ref_axis',(-0.866025403784439,0.,-0.5));
#295=DIRECTION('center_axis',(0.,1.,0.));
#296=DIRECTION('ref_axis',(0.,0.,-1.));
#297=DIRECTION('center_axis',(0.,-1.,0.));
#298=DIRECTION('ref_axis',(0.,0.,-1.));
#299=DIRECTION('',(0.,1.,0.));
#300=DIRECTION('center_axis',(0.,-1.,0.));
#301=DIRECTION('ref_axis',(0.,0.,-1.));
#302=DIRECTION('center_axis',(1.,0.,0.));
#303=DIRECTION('ref_axis',(0.,0.,-1.));
#304=DIRECTION('',(0.,0.,1.));
#305=DIRECTION('',(0.,1.,0.));
#306=DIRECTION('',(0.,0.,-1.));
#307=DIRECTION('',(0.,1.,0.));
#308=DIRECTION('center_axis',(0.,1.,0.));
#309=DIRECTION('ref_axis',(1.,0.,0.));
#310=DIRECTION('center_axis',(0.,1.,0.));
#311=DIRECTION('ref_axis',(1.,0.,0.));
#312=DIRECTION('center_axis',(0.,-1.,0.));
#313=DIRECTION('ref_axis',(1.,0.,0.));
#314=DIRECTION('',(0.,1.,0.));
#315=DIRECTION('center_axis',(-1.,0.,0.));
#316=DIRECTION('ref_axis',(0.,0.,1.));
#317=DIRECTION('',(0.,0.,-1.));
#318=DIRECTION('',(0.,0.,1.));
#319=DIRECTION('',(0.,1.,0.));
#320=DIRECTION('center_axis',(0.,1.,0.));
#321=DIRECTION('ref_axis',(-1.83697019872103E-16,0.,1.));
#322=DIRECTION('center_axis',(0.,1.,0.));
#323=DIRECTION('ref_axis',(1.,0.,0.));
#324=DIRECTION('center_axis',(0.,1.,0.));
#325=DIRECTION('ref_axis',(1.,0.,0.));
#326=DIRECTION('center_axis',(0.,1.,0.));
#327=DIRECTION('ref_axis',(1.,0.,0.));
#328=DIRECTION('center_axis',(0.,1.,0.));
#329=DIRECTION('ref_axis',(1.,0.,0.));
#330=DIRECTION('',(0.,0.,1.));
#331=DIRECTION('',(1.,0.,0.));
#332=CARTESIAN_POINT('',(0.,0.,0.));
#333=CARTESIAN_POINT('',(0.,0.,0.));
#334=CARTESIAN_POINT('Origin',(-10.8253175473055,1.65,6.24999999999999));
#335=CARTESIAN_POINT('',(-12.4634478998339,0.,7.19577499999999));
#336=CARTESIAN_POINT('Origin',(-10.8253175473055,0.,6.24999999999999));
#337=CARTESIAN_POINT('',(-12.4634478998339,3.,7.19577499999999));
#338=CARTESIAN_POINT('',(-12.4634478998339,1.65,7.19577499999999));
#339=CARTESIAN_POINT('Origin',(-10.8253175473055,3.,6.24999999999999));
#340=CARTESIAN_POINT('Origin',(-10.8253175473055,1.65,-6.25));
#341=CARTESIAN_POINT('',(-12.4634478998339,0.,-7.19577500000001));
#342=CARTESIAN_POINT('Origin',(-10.8253175473055,0.,-6.25));
#343=CARTESIAN_POINT('',(-12.4634478998339,3.,-7.19577500000001));
#344=CARTESIAN_POINT('',(-12.4634478998339,1.65,-7.19577500000001));
#345=CARTESIAN_POINT('Origin',(-10.8253175473055,3.,-6.25));
#346=CARTESIAN_POINT('Origin',(10.8253175473055,1.65,-6.25));
#347=CARTESIAN_POINT('',(12.4634478998339,0.,-7.195775));
#348=CARTESIAN_POINT('Origin',(10.8253175473055,0.,-6.25));
#349=CARTESIAN_POINT('',(12.4634478998339,3.,-7.195775));
#350=CARTESIAN_POINT('',(12.4634478998339,1.65,-7.195775));
#351=CARTESIAN_POINT('Origin',(10.8253175473055,3.,-6.25));
#352=CARTESIAN_POINT('Origin',(10.8253175473055,1.65,6.25));
#353=CARTESIAN_POINT('',(12.4634478998339,0.,7.195775));
#354=CARTESIAN_POINT('Origin',(10.8253175473055,0.,6.25));
#355=CARTESIAN_POINT('',(12.4634478998339,3.,7.195775));
#356=CARTESIAN_POINT('',(12.4634478998339,1.65,7.195775));
#357=CARTESIAN_POINT('Origin',(10.8253175473055,3.,6.25));
#358=CARTESIAN_POINT('Origin',(0.,1.65,12.5));
#359=CARTESIAN_POINT('',(-2.31648065292718E-16,0.,14.39155));
#360=CARTESIAN_POINT('Origin',(0.,0.,12.5));
#361=CARTESIAN_POINT('',(-2.31648065292718E-16,3.,14.39155));
#362=CARTESIAN_POINT('',(2.31648065292718E-16,1.65,14.39155));
#363=CARTESIAN_POINT('Origin',(0.,3.,12.5));
#364=CARTESIAN_POINT('Origin',(-4.5,0.,6.00000000000005));
#365=CARTESIAN_POINT('',(-4.5,0.,-15.3541525327841));
#366=CARTESIAN_POINT('',(-4.5,0.,6.00000000000005));
#367=CARTESIAN_POINT('',(-4.5,0.,-15.3541525327841));
#368=CARTESIAN_POINT('',(-4.5,3.,-15.3541525327841));
#369=CARTESIAN_POINT('',(-4.5,0.,-15.3541525327841));
#370=CARTESIAN_POINT('',(-4.5,3.,6.00000000000005));
#371=CARTESIAN_POINT('',(-4.5,3.,-15.3541525327841));
#372=CARTESIAN_POINT('',(-4.5,0.,6.00000000000005));
#373=CARTESIAN_POINT('Origin',(0.,0.,0.));
#374=CARTESIAN_POINT('',(4.5,0.,6.00000000000005));
#375=CARTESIAN_POINT('Origin',(0.,0.,0.));
#376=CARTESIAN_POINT('',(4.5,3.,6.00000000000005));
#377=CARTESIAN_POINT('Origin',(0.,3.,0.));
#378=CARTESIAN_POINT('',(4.5,0.,6.00000000000005));
#379=CARTESIAN_POINT('Origin',(4.5,0.,-15.3541525327841));
#380=CARTESIAN_POINT('',(4.5,0.,-15.3541525327841));
#381=CARTESIAN_POINT('',(4.5,0.,6.00000000000005));
#382=CARTESIAN_POINT('',(4.5,3.,-15.3541525327841));
#383=CARTESIAN_POINT('',(4.5,3.,6.00000000000005));
#384=CARTESIAN_POINT('',(4.5,0.,-15.3541525327841));
#385=CARTESIAN_POINT('Origin',(0.,0.,0.));
#386=CARTESIAN_POINT('Origin',(0.,0.,0.));
#387=CARTESIAN_POINT('Origin',(0.,3.,0.));
#388=CARTESIAN_POINT('Origin',(0.,3.,0.322923733607956));
#389=CARTESIAN_POINT('Origin',(0.,0.,0.322923733607956));
#390=CARTESIAN_POINT('',(0.,0.,0.));
#391=UNCERTAINTY_MEASURE_WITH_UNIT(LENGTH_MEASURE(0.01),#397,
'DISTANCE_ACCURACY_VALUE',
'Maximum model space distance between geometric entities at asserted c
onnectivities');
#392=UNCERTAINTY_MEASURE_WITH_UNIT(LENGTH_MEASURE(0.01),#397,
'DISTANCE_ACCURACY_VALUE',
'Maximum model space distance between geometric entities at asserted c
onnectivities');
#393=UNCERTAINTY_MEASURE_WITH_UNIT(LENGTH_MEASURE(0.01),#397,
'DISTANCE_ACCURACY_VALUE',
'Maximum model space distance between geometric entities at asserted c
onnectivities');
#394=(
GEOMETRIC_REPRESENTATION_CONTEXT(3)
GLOBAL_UNCERTAINTY_ASSIGNED_CONTEXT((#391))
GLOBAL_UNIT_ASSIGNED_CONTEXT((#397,#399,#400))
REPRESENTATION_CONTEXT('','3D')
);
#395=(
GEOMETRIC_REPRESENTATION_CONTEXT(3)
GLOBAL_UNCERTAINTY_ASSIGNED_CONTEXT((#392))
GLOBAL_UNIT_ASSIGNED_CONTEXT((#397,#399,#400))
REPRESENTATION_CONTEXT('','3D')
);
#396=(
GEOMETRIC_REPRESENTATION_CONTEXT(3)
GLOBAL_UNCERTAINTY_ASSIGNED_CONTEXT((#393))
GLOBAL_UNIT_ASSIGNED_CONTEXT((#397,#399,#400))
REPRESENTATION_CONTEXT('','3D')
);
#397=(
LENGTH_UNIT()
NAMED_UNIT(*)
SI_UNIT(.MILLI.,.METRE.)
);
#398=(
LENGTH_UNIT()
NAMED_UNIT(*)
SI_UNIT($,.METRE.)
);
#399=(
NAMED_UNIT(*)
PLANE_ANGLE_UNIT()
SI_UNIT($,.RADIAN.)
);
#400=(
NAMED_UNIT(*)
SI_UNIT($,.STERADIAN.)
SOLID_ANGLE_UNIT()
);
#401=SHAPE_DEFINITION_REPRESENTATION(#403,#406);
#402=SHAPE_DEFINITION_REPRESENTATION(#404,#407);
#403=PRODUCT_DEFINITION_SHAPE('',$,#409);
#404=PRODUCT_DEFINITION_SHAPE('',$,#410);
#405=PRODUCT_DEFINITION_SHAPE($,$,#14);
#406=SHAPE_REPRESENTATION('',(#235,#262),#394);
#407=SHAPE_REPRESENTATION('',(#236),#395);
#408=PRODUCT_DEFINITION_CONTEXT('part definition',#416,'design');
#409=PRODUCT_DEFINITION('cryo clamp upper','cryo clamp upper v8',#411,#408);
#410=PRODUCT_DEFINITION('LC','LC',#412,#408);
#411=PRODUCT_DEFINITION_FORMATION('',$,#418);
#412=PRODUCT_DEFINITION_FORMATION('',$,#419);
#413=PRODUCT_RELATED_PRODUCT_CATEGORY('cryo clamp upper v8',
'cryo clamp upper v8',(#418));
#414=PRODUCT_RELATED_PRODUCT_CATEGORY('LC','LC',(#419));
#415=APPLICATION_PROTOCOL_DEFINITION('international standard',
'automotive_design',2009,#416);
#416=APPLICATION_CONTEXT(
'Core Data for Automotive Mechanical Design Process');
#417=PRODUCT_CONTEXT('part definition',#416,'mechanical');
#418=PRODUCT('cryo clamp upper','cryo clamp upper v8',$,(#417));
#419=PRODUCT('LC','LC',$,(#417));
#420=PRESENTATION_STYLE_ASSIGNMENT((#421));
#421=SURFACE_STYLE_USAGE(.BOTH.,#422);
#422=SURFACE_SIDE_STYLE('',(#423));
#423=SURFACE_STYLE_FILL_AREA(#424);
#424=FILL_AREA_STYLE('Stainless Steel - Satin',(#425));
#425=FILL_AREA_STYLE_COLOUR('Stainless Steel - Satin',#426);
#426=COLOUR_RGB('Stainless Steel - Satin',0.796078431372549,0.796078431372549,
0.796078431372549);
ENDSEC;
END-ISO-10303-21;
