ISO-10303-21;
HEADER;
/* Generated by software containing ST-Developer
 * from STEP Tools, Inc. (www.steptools.com) 
 */

FILE_DESCRIPTION(
/* description */ (''),
/* implementation_level */ '2;1');

FILE_NAME(
/* name */ 'Cryo counterheater plate v1.step',
/* time_stamp */ '2024-06-14T15:07:38+02:00',
/* author */ (''),
/* organization */ (''),
/* preprocessor_version */ 'ST-DEVELOPER v20',
/* originating_system */ 'Autodesk Translation Framework v13.14.0.145',

/* authorisation */ '');

FILE_SCHEMA (('AUTOMOTIVE_DESIGN { 1 0 10303 214 3 1 1 }'));
ENDSEC;

DATA;
#10=MECHANICAL_DESIGN_GEOMETRIC_PRESENTATION_REPRESENTATION('',(#13),#506);
#11=SHAPE_REPRESENTATION_RELATIONSHIP('SRR','None',#513,#12);
#12=ADVANCED_BREP_SHAPE_REPRESENTATION('',(#14),#505);
#13=STYLED_ITEM('',(#522),#14);
#14=MANIFOLD_SOLID_BREP('Body1',#288);
#15=FACE_BOUND('',#68,.T.);
#16=FACE_BOUND('',#69,.T.);
#17=FACE_BOUND('',#72,.T.);
#18=FACE_BOUND('',#73,.T.);
#19=FACE_BOUND('',#74,.T.);
#20=FACE_BOUND('',#75,.T.);
#21=FACE_BOUND('',#76,.T.);
#22=FACE_BOUND('',#77,.T.);
#23=FACE_BOUND('',#78,.T.);
#24=FACE_BOUND('',#80,.T.);
#25=FACE_BOUND('',#81,.T.);
#26=FACE_BOUND('',#82,.T.);
#27=FACE_BOUND('',#83,.T.);
#28=FACE_BOUND('',#84,.T.);
#29=FACE_BOUND('',#85,.T.);
#30=PLANE('',#316);
#31=PLANE('',#317);
#32=PLANE('',#321);
#33=PLANE('',#327);
#34=CYLINDRICAL_SURFACE('',#304,0.8115);
#35=CYLINDRICAL_SURFACE('',#308,0.8115);
#36=CYLINDRICAL_SURFACE('',#310,2.75);
#37=CYLINDRICAL_SURFACE('',#313,24.);
#38=CYLINDRICAL_SURFACE('',#318,34.);
#39=CYLINDRICAL_SURFACE('',#333,2.75);
#40=CYLINDRICAL_SURFACE('',#334,2.75);
#41=CYLINDRICAL_SURFACE('',#335,2.75);
#42=CYLINDRICAL_SURFACE('',#336,2.75);
#43=CYLINDRICAL_SURFACE('',#337,2.75);
#44=FACE_OUTER_BOUND('',#60,.T.);
#45=FACE_OUTER_BOUND('',#61,.T.);
#46=FACE_OUTER_BOUND('',#62,.T.);
#47=FACE_OUTER_BOUND('',#63,.T.);
#48=FACE_OUTER_BOUND('',#64,.T.);
#49=FACE_OUTER_BOUND('',#65,.T.);
#50=FACE_OUTER_BOUND('',#66,.T.);
#51=FACE_OUTER_BOUND('',#67,.T.);
#52=FACE_OUTER_BOUND('',#70,.T.);
#53=FACE_OUTER_BOUND('',#71,.T.);
#54=FACE_OUTER_BOUND('',#79,.T.);
#55=FACE_OUTER_BOUND('',#86,.T.);
#56=FACE_OUTER_BOUND('',#87,.T.);
#57=FACE_OUTER_BOUND('',#88,.T.);
#58=FACE_OUTER_BOUND('',#89,.T.);
#59=FACE_OUTER_BOUND('',#90,.T.);
#60=EDGE_LOOP('',(#200,#201,#202));
#61=EDGE_LOOP('',(#203,#204,#205,#206));
#62=EDGE_LOOP('',(#207,#208,#209));
#63=EDGE_LOOP('',(#210,#211,#212,#213));
#64=EDGE_LOOP('',(#214,#215,#216,#217));
#65=EDGE_LOOP('',(#218,#219,#220,#221));
#66=EDGE_LOOP('',(#222));
#67=EDGE_LOOP('',(#223,#224,#225,#226));
#68=EDGE_LOOP('',(#227));
#69=EDGE_LOOP('',(#228));
#70=EDGE_LOOP('',(#229,#230,#231,#232));
#71=EDGE_LOOP('',(#233,#234));
#72=EDGE_LOOP('',(#235));
#73=EDGE_LOOP('',(#236));
#74=EDGE_LOOP('',(#237));
#75=EDGE_LOOP('',(#238));
#76=EDGE_LOOP('',(#239));
#77=EDGE_LOOP('',(#240));
#78=EDGE_LOOP('',(#241));
#79=EDGE_LOOP('',(#242,#243));
#80=EDGE_LOOP('',(#244));
#81=EDGE_LOOP('',(#245));
#82=EDGE_LOOP('',(#246));
#83=EDGE_LOOP('',(#247));
#84=EDGE_LOOP('',(#248));
#85=EDGE_LOOP('',(#249));
#86=EDGE_LOOP('',(#250,#251,#252,#253));
#87=EDGE_LOOP('',(#254,#255,#256,#257));
#88=EDGE_LOOP('',(#258,#259,#260,#261));
#89=EDGE_LOOP('',(#262,#263,#264,#265));
#90=EDGE_LOOP('',(#266,#267,#268,#269));
#91=LINE('',#432,#106);
#92=LINE('',#436,#107);
#93=LINE('',#441,#108);
#94=LINE('',#445,#109);
#95=LINE('',#450,#110);
#96=LINE('',#456,#111);
#97=LINE('',#462,#112);
#98=LINE('',#464,#113);
#99=LINE('',#466,#114);
#100=LINE('',#467,#115);
#101=LINE('',#494,#116);
#102=LINE('',#496,#117);
#103=LINE('',#498,#118);
#104=LINE('',#500,#119);
#105=LINE('',#502,#120);
#106=VECTOR('',#344,0.40575);
#107=VECTOR('',#349,0.8115);
#108=VECTOR('',#354,0.40575);
#109=VECTOR('',#359,0.8115);
#110=VECTOR('',#364,2.75);
#111=VECTOR('',#371,24.);
#112=VECTOR('',#378,10.);
#113=VECTOR('',#379,10.);
#114=VECTOR('',#380,10.);
#115=VECTOR('',#381,10.);
#116=VECTOR('',#414,2.75);
#117=VECTOR('',#417,2.75);
#118=VECTOR('',#420,2.75);
#119=VECTOR('',#423,2.75);
#120=VECTOR('',#426,2.75);
#121=CIRCLE('',#303,0.8115);
#122=CIRCLE('',#305,0.8115);
#123=CIRCLE('',#307,0.8115);
#124=CIRCLE('',#309,0.8115);
#125=CIRCLE('',#311,2.75);
#126=CIRCLE('',#312,2.75);
#127=CIRCLE('',#314,24.);
#128=CIRCLE('',#315,24.);
#129=CIRCLE('',#319,34.);
#130=CIRCLE('',#320,34.);
#131=CIRCLE('',#322,2.75);
#132=CIRCLE('',#323,2.75);
#133=CIRCLE('',#324,2.75);
#134=CIRCLE('',#325,2.75);
#135=CIRCLE('',#326,2.75);
#136=CIRCLE('',#328,2.75);
#137=CIRCLE('',#329,2.75);
#138=CIRCLE('',#330,2.75);
#139=CIRCLE('',#331,2.75);
#140=CIRCLE('',#332,2.75);
#141=VERTEX_POINT('',#429);
#142=VERTEX_POINT('',#431);
#143=VERTEX_POINT('',#434);
#144=VERTEX_POINT('',#438);
#145=VERTEX_POINT('',#440);
#146=VERTEX_POINT('',#443);
#147=VERTEX_POINT('',#447);
#148=VERTEX_POINT('',#449);
#149=VERTEX_POINT('',#453);
#150=VERTEX_POINT('',#455);
#151=VERTEX_POINT('',#460);
#152=VERTEX_POINT('',#461);
#153=VERTEX_POINT('',#463);
#154=VERTEX_POINT('',#465);
#155=VERTEX_POINT('',#472);
#156=VERTEX_POINT('',#474);
#157=VERTEX_POINT('',#476);
#158=VERTEX_POINT('',#478);
#159=VERTEX_POINT('',#480);
#160=VERTEX_POINT('',#483);
#161=VERTEX_POINT('',#485);
#162=VERTEX_POINT('',#487);
#163=VERTEX_POINT('',#489);
#164=VERTEX_POINT('',#491);
#165=EDGE_CURVE('',#141,#141,#121,.T.);
#166=EDGE_CURVE('',#141,#142,#91,.T.);
#167=EDGE_CURVE('',#143,#143,#122,.T.);
#168=EDGE_CURVE('',#143,#141,#92,.T.);
#169=EDGE_CURVE('',#144,#144,#123,.T.);
#170=EDGE_CURVE('',#144,#145,#93,.T.);
#171=EDGE_CURVE('',#146,#146,#124,.T.);
#172=EDGE_CURVE('',#146,#144,#94,.T.);
#173=EDGE_CURVE('',#147,#147,#125,.T.);
#174=EDGE_CURVE('',#147,#148,#95,.T.);
#175=EDGE_CURVE('',#148,#148,#126,.T.);
#176=EDGE_CURVE('',#149,#149,#127,.T.);
#177=EDGE_CURVE('',#149,#150,#96,.T.);
#178=EDGE_CURVE('',#150,#150,#128,.T.);
#179=EDGE_CURVE('',#151,#152,#97,.T.);
#180=EDGE_CURVE('',#152,#153,#98,.T.);
#181=EDGE_CURVE('',#154,#153,#99,.T.);
#182=EDGE_CURVE('',#151,#154,#100,.T.);
#183=EDGE_CURVE('',#151,#152,#129,.T.);
#184=EDGE_CURVE('',#153,#154,#130,.T.);
#185=EDGE_CURVE('',#155,#155,#131,.T.);
#186=EDGE_CURVE('',#156,#156,#132,.T.);
#187=EDGE_CURVE('',#157,#157,#133,.T.);
#188=EDGE_CURVE('',#158,#158,#134,.T.);
#189=EDGE_CURVE('',#159,#159,#135,.T.);
#190=EDGE_CURVE('',#160,#160,#136,.T.);
#191=EDGE_CURVE('',#161,#161,#137,.T.);
#192=EDGE_CURVE('',#162,#162,#138,.T.);
#193=EDGE_CURVE('',#163,#163,#139,.T.);
#194=EDGE_CURVE('',#164,#164,#140,.T.);
#195=EDGE_CURVE('',#159,#164,#101,.T.);
#196=EDGE_CURVE('',#158,#163,#102,.T.);
#197=EDGE_CURVE('',#157,#162,#103,.T.);
#198=EDGE_CURVE('',#156,#161,#104,.T.);
#199=EDGE_CURVE('',#155,#160,#105,.T.);
#200=ORIENTED_EDGE('',*,*,#165,.F.);
#201=ORIENTED_EDGE('',*,*,#166,.T.);
#202=ORIENTED_EDGE('',*,*,#166,.F.);
#203=ORIENTED_EDGE('',*,*,#167,.F.);
#204=ORIENTED_EDGE('',*,*,#168,.T.);
#205=ORIENTED_EDGE('',*,*,#165,.T.);
#206=ORIENTED_EDGE('',*,*,#168,.F.);
#207=ORIENTED_EDGE('',*,*,#169,.F.);
#208=ORIENTED_EDGE('',*,*,#170,.T.);
#209=ORIENTED_EDGE('',*,*,#170,.F.);
#210=ORIENTED_EDGE('',*,*,#171,.F.);
#211=ORIENTED_EDGE('',*,*,#172,.T.);
#212=ORIENTED_EDGE('',*,*,#169,.T.);
#213=ORIENTED_EDGE('',*,*,#172,.F.);
#214=ORIENTED_EDGE('',*,*,#173,.F.);
#215=ORIENTED_EDGE('',*,*,#174,.T.);
#216=ORIENTED_EDGE('',*,*,#175,.F.);
#217=ORIENTED_EDGE('',*,*,#174,.F.);
#218=ORIENTED_EDGE('',*,*,#176,.F.);
#219=ORIENTED_EDGE('',*,*,#177,.T.);
#220=ORIENTED_EDGE('',*,*,#178,.F.);
#221=ORIENTED_EDGE('',*,*,#177,.F.);
#222=ORIENTED_EDGE('',*,*,#176,.T.);
#223=ORIENTED_EDGE('',*,*,#179,.T.);
#224=ORIENTED_EDGE('',*,*,#180,.T.);
#225=ORIENTED_EDGE('',*,*,#181,.F.);
#226=ORIENTED_EDGE('',*,*,#182,.F.);
#227=ORIENTED_EDGE('',*,*,#167,.T.);
#228=ORIENTED_EDGE('',*,*,#171,.T.);
#229=ORIENTED_EDGE('',*,*,#183,.F.);
#230=ORIENTED_EDGE('',*,*,#182,.T.);
#231=ORIENTED_EDGE('',*,*,#184,.F.);
#232=ORIENTED_EDGE('',*,*,#180,.F.);
#233=ORIENTED_EDGE('',*,*,#183,.T.);
#234=ORIENTED_EDGE('',*,*,#179,.F.);
#235=ORIENTED_EDGE('',*,*,#185,.T.);
#236=ORIENTED_EDGE('',*,*,#186,.T.);
#237=ORIENTED_EDGE('',*,*,#187,.T.);
#238=ORIENTED_EDGE('',*,*,#188,.T.);
#239=ORIENTED_EDGE('',*,*,#189,.T.);
#240=ORIENTED_EDGE('',*,*,#173,.T.);
#241=ORIENTED_EDGE('',*,*,#178,.T.);
#242=ORIENTED_EDGE('',*,*,#184,.T.);
#243=ORIENTED_EDGE('',*,*,#181,.T.);
#244=ORIENTED_EDGE('',*,*,#190,.T.);
#245=ORIENTED_EDGE('',*,*,#191,.T.);
#246=ORIENTED_EDGE('',*,*,#192,.T.);
#247=ORIENTED_EDGE('',*,*,#193,.T.);
#248=ORIENTED_EDGE('',*,*,#194,.T.);
#249=ORIENTED_EDGE('',*,*,#175,.T.);
#250=ORIENTED_EDGE('',*,*,#189,.F.);
#251=ORIENTED_EDGE('',*,*,#195,.T.);
#252=ORIENTED_EDGE('',*,*,#194,.F.);
#253=ORIENTED_EDGE('',*,*,#195,.F.);
#254=ORIENTED_EDGE('',*,*,#188,.F.);
#255=ORIENTED_EDGE('',*,*,#196,.T.);
#256=ORIENTED_EDGE('',*,*,#193,.F.);
#257=ORIENTED_EDGE('',*,*,#196,.F.);
#258=ORIENTED_EDGE('',*,*,#187,.F.);
#259=ORIENTED_EDGE('',*,*,#197,.T.);
#260=ORIENTED_EDGE('',*,*,#192,.F.);
#261=ORIENTED_EDGE('',*,*,#197,.F.);
#262=ORIENTED_EDGE('',*,*,#186,.F.);
#263=ORIENTED_EDGE('',*,*,#198,.T.);
#264=ORIENTED_EDGE('',*,*,#191,.F.);
#265=ORIENTED_EDGE('',*,*,#198,.F.);
#266=ORIENTED_EDGE('',*,*,#185,.F.);
#267=ORIENTED_EDGE('',*,*,#199,.T.);
#268=ORIENTED_EDGE('',*,*,#190,.F.);
#269=ORIENTED_EDGE('',*,*,#199,.F.);
#270=CONICAL_SURFACE('',#302,0.40575,1.02974425867665);
#271=CONICAL_SURFACE('',#306,0.40575,1.02974425867665);
#272=ADVANCED_FACE('',(#44),#270,.F.);
#273=ADVANCED_FACE('',(#45),#34,.F.);
#274=ADVANCED_FACE('',(#46),#271,.F.);
#275=ADVANCED_FACE('',(#47),#35,.F.);
#276=ADVANCED_FACE('',(#48),#36,.F.);
#277=ADVANCED_FACE('',(#49),#37,.T.);
#278=ADVANCED_FACE('',(#50),#30,.T.);
#279=ADVANCED_FACE('',(#51,#15,#16),#31,.T.);
#280=ADVANCED_FACE('',(#52),#38,.T.);
#281=ADVANCED_FACE('',(#53,#17,#18,#19,#20,#21,#22,#23),#32,.T.);
#282=ADVANCED_FACE('',(#54,#24,#25,#26,#27,#28,#29),#33,.F.);
#283=ADVANCED_FACE('',(#55),#39,.F.);
#284=ADVANCED_FACE('',(#56),#40,.F.);
#285=ADVANCED_FACE('',(#57),#41,.F.);
#286=ADVANCED_FACE('',(#58),#42,.F.);
#287=ADVANCED_FACE('',(#59),#43,.F.);
#288=CLOSED_SHELL('',(#272,#273,#274,#275,#276,#277,#278,#279,#280,#281,
#282,#283,#284,#285,#286,#287));
#289=DERIVED_UNIT_ELEMENT(#291,1.);
#290=DERIVED_UNIT_ELEMENT(#508,-3.);
#291=(
MASS_UNIT()
NAMED_UNIT(*)
SI_UNIT(.KILO.,.GRAM.)
);
#292=DERIVED_UNIT((#289,#290));
#293=MEASURE_REPRESENTATION_ITEM('density measure',
POSITIVE_RATIO_MEASURE(7850.),#292);
#294=PROPERTY_DEFINITION_REPRESENTATION(#299,#296);
#295=PROPERTY_DEFINITION_REPRESENTATION(#300,#297);
#296=REPRESENTATION('material name',(#298),#505);
#297=REPRESENTATION('density',(#293),#505);
#298=DESCRIPTIVE_REPRESENTATION_ITEM('Steel','Steel');
#299=PROPERTY_DEFINITION('material property','material name',#515);
#300=PROPERTY_DEFINITION('material property','density of part',#515);
#301=AXIS2_PLACEMENT_3D('',#427,#338,#339);
#302=AXIS2_PLACEMENT_3D('',#428,#340,#341);
#303=AXIS2_PLACEMENT_3D('',#430,#342,#343);
#304=AXIS2_PLACEMENT_3D('',#433,#345,#346);
#305=AXIS2_PLACEMENT_3D('',#435,#347,#348);
#306=AXIS2_PLACEMENT_3D('',#437,#350,#351);
#307=AXIS2_PLACEMENT_3D('',#439,#352,#353);
#308=AXIS2_PLACEMENT_3D('',#442,#355,#356);
#309=AXIS2_PLACEMENT_3D('',#444,#357,#358);
#310=AXIS2_PLACEMENT_3D('',#446,#360,#361);
#311=AXIS2_PLACEMENT_3D('',#448,#362,#363);
#312=AXIS2_PLACEMENT_3D('',#451,#365,#366);
#313=AXIS2_PLACEMENT_3D('',#452,#367,#368);
#314=AXIS2_PLACEMENT_3D('',#454,#369,#370);
#315=AXIS2_PLACEMENT_3D('',#457,#372,#373);
#316=AXIS2_PLACEMENT_3D('',#458,#374,#375);
#317=AXIS2_PLACEMENT_3D('',#459,#376,#377);
#318=AXIS2_PLACEMENT_3D('',#468,#382,#383);
#319=AXIS2_PLACEMENT_3D('',#469,#384,#385);
#320=AXIS2_PLACEMENT_3D('',#470,#386,#387);
#321=AXIS2_PLACEMENT_3D('',#471,#388,#389);
#322=AXIS2_PLACEMENT_3D('',#473,#390,#391);
#323=AXIS2_PLACEMENT_3D('',#475,#392,#393);
#324=AXIS2_PLACEMENT_3D('',#477,#394,#395);
#325=AXIS2_PLACEMENT_3D('',#479,#396,#397);
#326=AXIS2_PLACEMENT_3D('',#481,#398,#399);
#327=AXIS2_PLACEMENT_3D('',#482,#400,#401);
#328=AXIS2_PLACEMENT_3D('',#484,#402,#403);
#329=AXIS2_PLACEMENT_3D('',#486,#404,#405);
#330=AXIS2_PLACEMENT_3D('',#488,#406,#407);
#331=AXIS2_PLACEMENT_3D('',#490,#408,#409);
#332=AXIS2_PLACEMENT_3D('',#492,#410,#411);
#333=AXIS2_PLACEMENT_3D('',#493,#412,#413);
#334=AXIS2_PLACEMENT_3D('',#495,#415,#416);
#335=AXIS2_PLACEMENT_3D('',#497,#418,#419);
#336=AXIS2_PLACEMENT_3D('',#499,#421,#422);
#337=AXIS2_PLACEMENT_3D('',#501,#424,#425);
#338=DIRECTION('axis',(0.,0.,1.));
#339=DIRECTION('refdir',(1.,0.,0.));
#340=DIRECTION('center_axis',(0.,0.,-1.));
#341=DIRECTION('ref_axis',(-1.,0.,0.));
#342=DIRECTION('center_axis',(0.,0.,1.));
#343=DIRECTION('ref_axis',(-1.,0.,0.));
#344=DIRECTION('',(-0.857167300702112,-1.04972719113862E-16,0.515038074910054));
#345=DIRECTION('center_axis',(0.,0.,1.));
#346=DIRECTION('ref_axis',(-1.,0.,0.));
#347=DIRECTION('center_axis',(0.,0.,1.));
#348=DIRECTION('ref_axis',(-1.,0.,0.));
#349=DIRECTION('',(0.,0.,1.));
#350=DIRECTION('center_axis',(0.,0.,-1.));
#351=DIRECTION('ref_axis',(-1.,0.,0.));
#352=DIRECTION('center_axis',(0.,0.,1.));
#353=DIRECTION('ref_axis',(-1.,0.,0.));
#354=DIRECTION('',(-0.857167300702112,-1.04972719113862E-16,0.515038074910054));
#355=DIRECTION('center_axis',(0.,0.,1.));
#356=DIRECTION('ref_axis',(-1.,0.,0.));
#357=DIRECTION('center_axis',(0.,0.,1.));
#358=DIRECTION('ref_axis',(-1.,0.,0.));
#359=DIRECTION('',(0.,0.,1.));
#360=DIRECTION('center_axis',(0.,-1.,0.));
#361=DIRECTION('ref_axis',(0.,0.,1.));
#362=DIRECTION('center_axis',(0.,-1.,0.));
#363=DIRECTION('ref_axis',(0.,0.,1.));
#364=DIRECTION('',(0.,-1.,0.));
#365=DIRECTION('center_axis',(0.,1.,0.));
#366=DIRECTION('ref_axis',(0.,0.,1.));
#367=DIRECTION('center_axis',(0.,1.,0.));
#368=DIRECTION('ref_axis',(1.,0.,0.));
#369=DIRECTION('center_axis',(0.,1.,0.));
#370=DIRECTION('ref_axis',(1.,0.,0.));
#371=DIRECTION('',(0.,-1.,0.));
#372=DIRECTION('center_axis',(0.,-1.,0.));
#373=DIRECTION('ref_axis',(1.,0.,0.));
#374=DIRECTION('center_axis',(0.,1.,0.));
#375=DIRECTION('ref_axis',(1.,0.,0.));
#376=DIRECTION('center_axis',(0.,0.,-1.));
#377=DIRECTION('ref_axis',(1.,0.,0.));
#378=DIRECTION('',(1.,0.,0.));
#379=DIRECTION('',(0.,-1.,0.));
#380=DIRECTION('',(1.,0.,0.));
#381=DIRECTION('',(0.,-1.,0.));
#382=DIRECTION('center_axis',(0.,-1.,0.));
#383=DIRECTION('ref_axis',(6.12323399573677E-17,0.,1.));
#384=DIRECTION('center_axis',(0.,1.,0.));
#385=DIRECTION('ref_axis',(1.,0.,0.));
#386=DIRECTION('center_axis',(0.,-1.,0.));
#387=DIRECTION('ref_axis',(1.,0.,0.));
#388=DIRECTION('center_axis',(0.,1.,0.));
#389=DIRECTION('ref_axis',(1.,0.,0.));
#390=DIRECTION('center_axis',(0.,-1.,0.));
#391=DIRECTION('ref_axis',(-0.866025403784439,0.,0.499999999999999));
#392=DIRECTION('center_axis',(0.,-1.,0.));
#393=DIRECTION('ref_axis',(-0.866025403784438,0.,-0.5));
#394=DIRECTION('center_axis',(0.,-1.,0.));
#395=DIRECTION('ref_axis',(1.22464679914735E-16,0.,-1.));
#396=DIRECTION('center_axis',(0.,-1.,0.));
#397=DIRECTION('ref_axis',(0.866025403784439,0.,-0.5));
#398=DIRECTION('center_axis',(0.,-1.,0.));
#399=DIRECTION('ref_axis',(0.866025403784438,0.,0.5));
#400=DIRECTION('center_axis',(0.,1.,0.));
#401=DIRECTION('ref_axis',(1.,0.,0.));
#402=DIRECTION('center_axis',(0.,1.,0.));
#403=DIRECTION('ref_axis',(-0.866025403784439,0.,0.499999999999999));
#404=DIRECTION('center_axis',(0.,1.,0.));
#405=DIRECTION('ref_axis',(-0.866025403784438,0.,-0.5));
#406=DIRECTION('center_axis',(0.,1.,0.));
#407=DIRECTION('ref_axis',(1.22464679914735E-16,0.,-1.));
#408=DIRECTION('center_axis',(0.,1.,0.));
#409=DIRECTION('ref_axis',(0.866025403784439,0.,-0.5));
#410=DIRECTION('center_axis',(0.,1.,0.));
#411=DIRECTION('ref_axis',(0.866025403784438,0.,0.5));
#412=DIRECTION('center_axis',(0.,-1.,0.));
#413=DIRECTION('ref_axis',(0.866025403784438,0.,0.5));
#414=DIRECTION('',(0.,-1.,0.));
#415=DIRECTION('center_axis',(0.,-1.,0.));
#416=DIRECTION('ref_axis',(0.866025403784439,0.,-0.5));
#417=DIRECTION('',(0.,-1.,0.));
#418=DIRECTION('center_axis',(0.,-1.,0.));
#419=DIRECTION('ref_axis',(1.22464679914735E-16,0.,-1.));
#420=DIRECTION('',(0.,-1.,0.));
#421=DIRECTION('center_axis',(0.,-1.,0.));
#422=DIRECTION('ref_axis',(-0.866025403784438,0.,-0.5));
#423=DIRECTION('',(0.,-1.,0.));
#424=DIRECTION('center_axis',(0.,-1.,0.));
#425=DIRECTION('ref_axis',(-0.866025403784439,0.,0.499999999999999));
#426=DIRECTION('',(0.,-1.,0.));
#427=CARTESIAN_POINT('',(0.,0.,0.));
#428=CARTESIAN_POINT('Origin',(-9.00000013411045,-3.5,-23.7562008038296));
#429=CARTESIAN_POINT('',(-8.18850013411045,-3.5,-24.));
#430=CARTESIAN_POINT('Origin',(-9.00000013411045,-3.5,-24.));
#431=CARTESIAN_POINT('',(-9.00000013411045,-3.5,-23.5124016076591));
#432=CARTESIAN_POINT('',(-8.59425013411045,-3.5,-23.7562008038296));
#433=CARTESIAN_POINT('Origin',(-9.00000013411045,-3.5,-26.5));
#434=CARTESIAN_POINT('',(-8.18850013411045,-3.5,-29.));
#435=CARTESIAN_POINT('Origin',(-9.00000013411045,-3.5,-29.));
#436=CARTESIAN_POINT('',(-8.18850013411045,-3.5,-26.5));
#437=CARTESIAN_POINT('Origin',(7.00000010430813,-3.5,-23.7562008038296));
#438=CARTESIAN_POINT('',(7.81150010430813,-3.5,-24.));
#439=CARTESIAN_POINT('Origin',(7.00000010430813,-3.5,-24.));
#440=CARTESIAN_POINT('',(7.00000010430813,-3.5,-23.5124016076591));
#441=CARTESIAN_POINT('',(7.40575010430813,-3.5,-23.7562008038296));
#442=CARTESIAN_POINT('Origin',(7.00000010430813,-3.5,-26.5));
#443=CARTESIAN_POINT('',(7.81150010430813,-3.5,-29.));
#444=CARTESIAN_POINT('Origin',(7.00000010430813,-3.5,-29.));
#445=CARTESIAN_POINT('',(7.81150010430813,-3.5,-26.5));
#446=CARTESIAN_POINT('Origin',(29.,-3.85,0.499999999999998));
#447=CARTESIAN_POINT('',(29.,0.,-2.25));
#448=CARTESIAN_POINT('Origin',(29.,0.,0.499999999999998));
#449=CARTESIAN_POINT('',(29.,-7.,-2.25));
#450=CARTESIAN_POINT('',(29.,-3.85,-2.25));
#451=CARTESIAN_POINT('Origin',(29.,-7.,0.499999999999998));
#452=CARTESIAN_POINT('Origin',(0.,0.,0.));
#453=CARTESIAN_POINT('',(-24.,1.,2.93915231795365E-15));
#454=CARTESIAN_POINT('Origin',(0.,1.,0.));
#455=CARTESIAN_POINT('',(-24.,0.,2.93915231795365E-15));
#456=CARTESIAN_POINT('',(-24.,0.,2.93915231795365E-15));
#457=CARTESIAN_POINT('Origin',(0.,0.,0.));
#458=CARTESIAN_POINT('Origin',(0.,1.,0.));
#459=CARTESIAN_POINT('Origin',(-17.7482393492989,0.,-29.));
#460=CARTESIAN_POINT('',(-17.7482393492989,0.,-29.));
#461=CARTESIAN_POINT('',(17.7482393492989,0.,-29.));
#462=CARTESIAN_POINT('',(-17.7482393492989,0.,-29.));
#463=CARTESIAN_POINT('',(17.7482393492989,-7.,-29.));
#464=CARTESIAN_POINT('',(17.7482393492989,0.,-29.));
#465=CARTESIAN_POINT('',(-17.7482393492989,-7.,-29.));
#466=CARTESIAN_POINT('',(-17.7482393492989,-7.,-29.));
#467=CARTESIAN_POINT('',(-17.7482393492989,0.,-29.));
#468=CARTESIAN_POINT('Origin',(0.,0.,0.));
#469=CARTESIAN_POINT('Origin',(0.,0.,0.));
#470=CARTESIAN_POINT('Origin',(0.,-7.,0.));
#471=CARTESIAN_POINT('Origin',(0.,0.,2.5));
#472=CARTESIAN_POINT('',(16.448557158515,0.,23.9897367097487));
#473=CARTESIAN_POINT('Origin',(14.0669872981078,0.,25.3647367097487));
#474=CARTESIAN_POINT('',(-12.551442841485,0.,26.2397367097487));
#475=CARTESIAN_POINT('Origin',(-14.9330127018922,0.,24.8647367097487));
#476=CARTESIAN_POINT('',(-29.,0.,2.25));
#477=CARTESIAN_POINT('Origin',(-29.,0.,-0.500000000000002));
#478=CARTESIAN_POINT('',(-16.448557158515,0.,-23.9897367097487));
#479=CARTESIAN_POINT('Origin',(-14.0669872981078,0.,-25.3647367097487));
#480=CARTESIAN_POINT('',(12.551442841485,0.,-26.2397367097487));
#481=CARTESIAN_POINT('Origin',(14.9330127018922,0.,-24.8647367097487));
#482=CARTESIAN_POINT('Origin',(0.,-7.,2.5));
#483=CARTESIAN_POINT('',(16.448557158515,-7.,23.9897367097487));
#484=CARTESIAN_POINT('Origin',(14.0669872981078,-7.,25.3647367097487));
#485=CARTESIAN_POINT('',(-12.551442841485,-7.,26.2397367097487));
#486=CARTESIAN_POINT('Origin',(-14.9330127018922,-7.,24.8647367097487));
#487=CARTESIAN_POINT('',(-29.,-7.,2.25));
#488=CARTESIAN_POINT('Origin',(-29.,-7.,-0.500000000000002));
#489=CARTESIAN_POINT('',(-16.448557158515,-7.,-23.9897367097487));
#490=CARTESIAN_POINT('Origin',(-14.0669872981078,-7.,-25.3647367097487));
#491=CARTESIAN_POINT('',(12.551442841485,-7.,-26.2397367097487));
#492=CARTESIAN_POINT('Origin',(14.9330127018922,-7.,-24.8647367097487));
#493=CARTESIAN_POINT('Origin',(14.9330127018922,-3.85,-24.8647367097487));
#494=CARTESIAN_POINT('',(12.551442841485,-3.85,-26.2397367097487));
#495=CARTESIAN_POINT('Origin',(-14.0669872981078,-3.85,-25.3647367097487));
#496=CARTESIAN_POINT('',(-16.448557158515,-3.85,-23.9897367097487));
#497=CARTESIAN_POINT('Origin',(-29.,-3.85,-0.500000000000002));
#498=CARTESIAN_POINT('',(-29.,-3.85,2.25));
#499=CARTESIAN_POINT('Origin',(-14.9330127018922,-3.85,24.8647367097487));
#500=CARTESIAN_POINT('',(-12.551442841485,-3.85,26.2397367097487));
#501=CARTESIAN_POINT('Origin',(14.0669872981078,-3.85,25.3647367097487));
#502=CARTESIAN_POINT('',(16.448557158515,-3.85,23.9897367097487));
#503=UNCERTAINTY_MEASURE_WITH_UNIT(LENGTH_MEASURE(0.01),#507,
'DISTANCE_ACCURACY_VALUE',
'Maximum model space distance between geometric entities at asserted c
onnectivities');
#504=UNCERTAINTY_MEASURE_WITH_UNIT(LENGTH_MEASURE(0.01),#507,
'DISTANCE_ACCURACY_VALUE',
'Maximum model space distance between geometric entities at asserted c
onnectivities');
#505=(
GEOMETRIC_REPRESENTATION_CONTEXT(3)
GLOBAL_UNCERTAINTY_ASSIGNED_CONTEXT((#503))
GLOBAL_UNIT_ASSIGNED_CONTEXT((#507,#509,#510))
REPRESENTATION_CONTEXT('','3D')
);
#506=(
GEOMETRIC_REPRESENTATION_CONTEXT(3)
GLOBAL_UNCERTAINTY_ASSIGNED_CONTEXT((#504))
GLOBAL_UNIT_ASSIGNED_CONTEXT((#507,#509,#510))
REPRESENTATION_CONTEXT('','3D')
);
#507=(
LENGTH_UNIT()
NAMED_UNIT(*)
SI_UNIT(.MILLI.,.METRE.)
);
#508=(
LENGTH_UNIT()
NAMED_UNIT(*)
SI_UNIT($,.METRE.)
);
#509=(
NAMED_UNIT(*)
PLANE_ANGLE_UNIT()
SI_UNIT($,.RADIAN.)
);
#510=(
NAMED_UNIT(*)
SI_UNIT($,.STERADIAN.)
SOLID_ANGLE_UNIT()
);
#511=SHAPE_DEFINITION_REPRESENTATION(#512,#513);
#512=PRODUCT_DEFINITION_SHAPE('',$,#515);
#513=SHAPE_REPRESENTATION('',(#301),#505);
#514=PRODUCT_DEFINITION_CONTEXT('part definition',#519,'design');
#515=PRODUCT_DEFINITION('Cryo counterheater plate',
'Cryo counterheater plate v1',#516,#514);
#516=PRODUCT_DEFINITION_FORMATION('',$,#521);
#517=PRODUCT_RELATED_PRODUCT_CATEGORY('Cryo counterheater plate v1',
'Cryo counterheater plate v1',(#521));
#518=APPLICATION_PROTOCOL_DEFINITION('international standard',
'automotive_design',2009,#519);
#519=APPLICATION_CONTEXT(
'Core Data for Automotive Mechanical Design Process');
#520=PRODUCT_CONTEXT('part definition',#519,'mechanical');
#521=PRODUCT('Cryo counterheater plate','Cryo counterheater plate v1',$,
(#520));
#522=PRESENTATION_STYLE_ASSIGNMENT((#523));
#523=SURFACE_STYLE_USAGE(.BOTH.,#524);
#524=SURFACE_SIDE_STYLE('',(#525));
#525=SURFACE_STYLE_FILL_AREA(#526);
#526=FILL_AREA_STYLE('Steel - Satin',(#527));
#527=FILL_AREA_STYLE_COLOUR('Steel - Satin',#528);
#528=COLOUR_RGB('Steel - Satin',0.627450980392157,0.627450980392157,0.627450980392157);
ENDSEC;
END-ISO-10303-21;
