ISO-10303-21;
HEADER;
/* Generated by software containing ST-Developer
 * from STEP Tools, Inc. (www.steptools.com) 
 */

FILE_DESCRIPTION(
/* description */ (''),
/* implementation_level */ '2;1');

FILE_NAME(
/* name */ 'cryo interface v3 top connector v3.step',
/* time_stamp */ '2024-06-14T15:24:51+02:00',
/* author */ (''),
/* organization */ (''),
/* preprocessor_version */ 'ST-DEVELOPER v20',
/* originating_system */ 'Autodesk Translation Framework v13.14.0.145',

/* authorisation */ '');

FILE_SCHEMA (('AUTOMOTIVE_DESIGN { 1 0 10303 214 3 1 1 }'));
ENDSEC;

DATA;
#10=MECHANICAL_DESIGN_GEOMETRIC_PRESENTATION_REPRESENTATION('',(#24,#25),
#615);
#11=ITEM_DEFINED_TRANSFORMATION($,$,#349,#399);
#12=ITEM_DEFINED_TRANSFORMATION($,$,#379,#400);
#13=(
REPRESENTATION_RELATIONSHIP($,$,#629,#628)
REPRESENTATION_RELATIONSHIP_WITH_TRANSFORMATION(#11)
SHAPE_REPRESENTATION_RELATIONSHIP()
);
#14=(
REPRESENTATION_RELATIONSHIP($,$,#630,#628)
REPRESENTATION_RELATIONSHIP_WITH_TRANSFORMATION(#12)
SHAPE_REPRESENTATION_RELATIONSHIP()
);
#15=CONTEXT_DEPENDENT_SHAPE_REPRESENTATION(#13,#626);
#16=CONTEXT_DEPENDENT_SHAPE_REPRESENTATION(#14,#627);
#17=NEXT_ASSEMBLY_USAGE_OCCURRENCE('VAb_BF 160-K v1:1',
'VAb_BF 160-K v1:1','VAb_BF 160-K v1:1',#632,#633,'VAb_BF 160-K v1:1');
#18=NEXT_ASSEMBLY_USAGE_OCCURRENCE('tube:1','tube:1','tube:1',#632,#634,
'tube:1');
#19=CONICAL_SURFACE('',#380,38.5,0.785398163397447);
#20=SHAPE_REPRESENTATION_RELATIONSHIP('SRR','None',#629,#22);
#21=SHAPE_REPRESENTATION_RELATIONSHIP('SRR','None',#630,#23);
#22=ADVANCED_BREP_SHAPE_REPRESENTATION('',(#26),#613);
#23=ADVANCED_BREP_SHAPE_REPRESENTATION('',(#27),#614);
#24=STYLED_ITEM('',(#648),#26);
#25=STYLED_ITEM('',(#647),#27);
#26=MANIFOLD_SOLID_BREP('Body1',#323);
#27=MANIFOLD_SOLID_BREP('tube',#324);
#28=TOROIDAL_SURFACE('',#377,90.,2.5);
#29=FACE_BOUND('',#75,.T.);
#30=FACE_BOUND('',#78,.T.);
#31=FACE_BOUND('',#81,.T.);
#32=FACE_BOUND('',#83,.T.);
#33=FACE_BOUND('',#86,.T.);
#34=FACE_BOUND('',#89,.T.);
#35=FACE_BOUND('',#94,.T.);
#36=FACE_BOUND('',#98,.T.);
#37=FACE_BOUND('',#101,.T.);
#38=FACE_BOUND('',#104,.T.);
#39=PLANE('',#356);
#40=PLANE('',#360);
#41=PLANE('',#364);
#42=PLANE('',#365);
#43=PLANE('',#369);
#44=PLANE('',#373);
#45=PLANE('',#384);
#46=PLANE('',#390);
#47=PLANE('',#394);
#48=PLANE('',#398);
#49=FACE_OUTER_BOUND('',#72,.T.);
#50=FACE_OUTER_BOUND('',#73,.T.);
#51=FACE_OUTER_BOUND('',#74,.T.);
#52=FACE_OUTER_BOUND('',#76,.T.);
#53=FACE_OUTER_BOUND('',#77,.T.);
#54=FACE_OUTER_BOUND('',#79,.T.);
#55=FACE_OUTER_BOUND('',#80,.T.);
#56=FACE_OUTER_BOUND('',#82,.T.);
#57=FACE_OUTER_BOUND('',#84,.T.);
#58=FACE_OUTER_BOUND('',#85,.T.);
#59=FACE_OUTER_BOUND('',#87,.T.);
#60=FACE_OUTER_BOUND('',#88,.T.);
#61=FACE_OUTER_BOUND('',#90,.T.);
#62=FACE_OUTER_BOUND('',#91,.T.);
#63=FACE_OUTER_BOUND('',#92,.T.);
#64=FACE_OUTER_BOUND('',#93,.T.);
#65=FACE_OUTER_BOUND('',#95,.T.);
#66=FACE_OUTER_BOUND('',#96,.T.);
#67=FACE_OUTER_BOUND('',#97,.T.);
#68=FACE_OUTER_BOUND('',#99,.T.);
#69=FACE_OUTER_BOUND('',#100,.T.);
#70=FACE_OUTER_BOUND('',#102,.T.);
#71=FACE_OUTER_BOUND('',#103,.T.);
#72=EDGE_LOOP('',(#215,#216,#217,#218));
#73=EDGE_LOOP('',(#219,#220,#221,#222));
#74=EDGE_LOOP('',(#223));
#75=EDGE_LOOP('',(#224));
#76=EDGE_LOOP('',(#225,#226,#227,#228));
#77=EDGE_LOOP('',(#229));
#78=EDGE_LOOP('',(#230));
#79=EDGE_LOOP('',(#231,#232,#233,#234));
#80=EDGE_LOOP('',(#235));
#81=EDGE_LOOP('',(#236));
#82=EDGE_LOOP('',(#237));
#83=EDGE_LOOP('',(#238));
#84=EDGE_LOOP('',(#239,#240,#241,#242));
#85=EDGE_LOOP('',(#243));
#86=EDGE_LOOP('',(#244));
#87=EDGE_LOOP('',(#245,#246,#247,#248));
#88=EDGE_LOOP('',(#249));
#89=EDGE_LOOP('',(#250));
#90=EDGE_LOOP('',(#251,#252,#253,#254));
#91=EDGE_LOOP('',(#255,#256,#257,#258));
#92=EDGE_LOOP('',(#259,#260,#261,#262,#263));
#93=EDGE_LOOP('',(#264));
#94=EDGE_LOOP('',(#265));
#95=EDGE_LOOP('',(#266,#267,#268,#269,#270));
#96=EDGE_LOOP('',(#271,#272,#273,#274));
#97=EDGE_LOOP('',(#275));
#98=EDGE_LOOP('',(#276));
#99=EDGE_LOOP('',(#277,#278,#279,#280));
#100=EDGE_LOOP('',(#281));
#101=EDGE_LOOP('',(#282));
#102=EDGE_LOOP('',(#283,#284,#285,#286));
#103=EDGE_LOOP('',(#287));
#104=EDGE_LOOP('',(#288));
#105=LINE('',#525,#117);
#106=LINE('',#531,#118);
#107=LINE('',#538,#119);
#108=LINE('',#545,#120);
#109=LINE('',#553,#121);
#110=LINE('',#560,#122);
#111=LINE('',#567,#123);
#112=LINE('',#576,#124);
#113=LINE('',#585,#125);
#114=LINE('',#589,#126);
#115=LINE('',#597,#127);
#116=LINE('',#604,#128);
#117=VECTOR('',#409,40.);
#118=VECTOR('',#416,90.);
#119=VECTOR('',#425,76.5);
#120=VECTOR('',#434,72.);
#121=VECTOR('',#445,78.);
#122=VECTOR('',#454,88.);
#123=VECTOR('',#463,90.);
#124=VECTOR('',#476,38.5);
#125=VECTOR('',#487,39.5);
#126=VECTOR('',#492,37.);
#127=VECTOR('',#503,40.);
#128=VECTOR('',#512,39.);
#129=CIRCLE('',#351,40.);
#130=CIRCLE('',#352,40.);
#131=CIRCLE('',#354,90.);
#132=CIRCLE('',#355,90.);
#133=CIRCLE('',#357,76.5);
#134=CIRCLE('',#359,76.5);
#135=CIRCLE('',#361,72.);
#136=CIRCLE('',#363,72.);
#137=CIRCLE('',#366,78.);
#138=CIRCLE('',#368,78.);
#139=CIRCLE('',#370,88.);
#140=CIRCLE('',#372,88.);
#141=CIRCLE('',#374,90.);
#142=CIRCLE('',#376,90.);
#143=CIRCLE('',#378,2.5);
#144=CIRCLE('',#381,37.5);
#145=CIRCLE('',#382,39.5);
#146=CIRCLE('',#383,39.5);
#147=CIRCLE('',#385,37.);
#148=CIRCLE('',#387,39.5);
#149=CIRCLE('',#389,37.);
#150=CIRCLE('',#391,40.);
#151=CIRCLE('',#393,40.);
#152=CIRCLE('',#395,39.);
#153=CIRCLE('',#397,39.);
#154=VERTEX_POINT('',#522);
#155=VERTEX_POINT('',#524);
#156=VERTEX_POINT('',#528);
#157=VERTEX_POINT('',#530);
#158=VERTEX_POINT('',#534);
#159=VERTEX_POINT('',#537);
#160=VERTEX_POINT('',#541);
#161=VERTEX_POINT('',#544);
#162=VERTEX_POINT('',#549);
#163=VERTEX_POINT('',#552);
#164=VERTEX_POINT('',#556);
#165=VERTEX_POINT('',#559);
#166=VERTEX_POINT('',#563);
#167=VERTEX_POINT('',#566);
#168=VERTEX_POINT('',#573);
#169=VERTEX_POINT('',#575);
#170=VERTEX_POINT('',#577);
#171=VERTEX_POINT('',#581);
#172=VERTEX_POINT('',#584);
#173=VERTEX_POINT('',#588);
#174=VERTEX_POINT('',#592);
#175=VERTEX_POINT('',#595);
#176=VERTEX_POINT('',#599);
#177=VERTEX_POINT('',#602);
#178=EDGE_CURVE('',#154,#154,#129,.T.);
#179=EDGE_CURVE('',#154,#155,#105,.T.);
#180=EDGE_CURVE('',#155,#155,#130,.T.);
#181=EDGE_CURVE('',#156,#156,#131,.T.);
#182=EDGE_CURVE('',#156,#157,#106,.T.);
#183=EDGE_CURVE('',#157,#157,#132,.T.);
#184=EDGE_CURVE('',#158,#158,#133,.T.);
#185=EDGE_CURVE('',#158,#159,#107,.T.);
#186=EDGE_CURVE('',#159,#159,#134,.T.);
#187=EDGE_CURVE('',#160,#160,#135,.T.);
#188=EDGE_CURVE('',#160,#161,#108,.T.);
#189=EDGE_CURVE('',#161,#161,#136,.T.);
#190=EDGE_CURVE('',#162,#162,#137,.T.);
#191=EDGE_CURVE('',#162,#163,#109,.T.);
#192=EDGE_CURVE('',#163,#163,#138,.T.);
#193=EDGE_CURVE('',#164,#164,#139,.T.);
#194=EDGE_CURVE('',#164,#165,#110,.T.);
#195=EDGE_CURVE('',#165,#165,#140,.T.);
#196=EDGE_CURVE('',#166,#166,#141,.T.);
#197=EDGE_CURVE('',#166,#167,#111,.T.);
#198=EDGE_CURVE('',#167,#167,#142,.T.);
#199=EDGE_CURVE('',#167,#156,#143,.T.);
#200=EDGE_CURVE('',#168,#168,#144,.T.);
#201=EDGE_CURVE('',#168,#169,#112,.T.);
#202=EDGE_CURVE('',#169,#170,#145,.T.);
#203=EDGE_CURVE('',#170,#169,#146,.T.);
#204=EDGE_CURVE('',#171,#171,#147,.T.);
#205=EDGE_CURVE('',#170,#172,#113,.T.);
#206=EDGE_CURVE('',#172,#172,#148,.T.);
#207=EDGE_CURVE('',#171,#173,#114,.T.);
#208=EDGE_CURVE('',#173,#173,#149,.T.);
#209=EDGE_CURVE('',#174,#174,#150,.T.);
#210=EDGE_CURVE('',#175,#175,#151,.T.);
#211=EDGE_CURVE('',#175,#174,#115,.T.);
#212=EDGE_CURVE('',#176,#176,#152,.T.);
#213=EDGE_CURVE('',#177,#177,#153,.T.);
#214=EDGE_CURVE('',#177,#176,#116,.T.);
#215=ORIENTED_EDGE('',*,*,#178,.F.);
#216=ORIENTED_EDGE('',*,*,#179,.T.);
#217=ORIENTED_EDGE('',*,*,#180,.F.);
#218=ORIENTED_EDGE('',*,*,#179,.F.);
#219=ORIENTED_EDGE('',*,*,#181,.F.);
#220=ORIENTED_EDGE('',*,*,#182,.T.);
#221=ORIENTED_EDGE('',*,*,#183,.T.);
#222=ORIENTED_EDGE('',*,*,#182,.F.);
#223=ORIENTED_EDGE('',*,*,#183,.F.);
#224=ORIENTED_EDGE('',*,*,#184,.T.);
#225=ORIENTED_EDGE('',*,*,#184,.F.);
#226=ORIENTED_EDGE('',*,*,#185,.T.);
#227=ORIENTED_EDGE('',*,*,#186,.T.);
#228=ORIENTED_EDGE('',*,*,#185,.F.);
#229=ORIENTED_EDGE('',*,*,#186,.F.);
#230=ORIENTED_EDGE('',*,*,#187,.T.);
#231=ORIENTED_EDGE('',*,*,#187,.F.);
#232=ORIENTED_EDGE('',*,*,#188,.T.);
#233=ORIENTED_EDGE('',*,*,#189,.T.);
#234=ORIENTED_EDGE('',*,*,#188,.F.);
#235=ORIENTED_EDGE('',*,*,#189,.F.);
#236=ORIENTED_EDGE('',*,*,#178,.T.);
#237=ORIENTED_EDGE('',*,*,#190,.T.);
#238=ORIENTED_EDGE('',*,*,#180,.T.);
#239=ORIENTED_EDGE('',*,*,#190,.F.);
#240=ORIENTED_EDGE('',*,*,#191,.T.);
#241=ORIENTED_EDGE('',*,*,#192,.T.);
#242=ORIENTED_EDGE('',*,*,#191,.F.);
#243=ORIENTED_EDGE('',*,*,#193,.T.);
#244=ORIENTED_EDGE('',*,*,#192,.F.);
#245=ORIENTED_EDGE('',*,*,#193,.F.);
#246=ORIENTED_EDGE('',*,*,#194,.T.);
#247=ORIENTED_EDGE('',*,*,#195,.T.);
#248=ORIENTED_EDGE('',*,*,#194,.F.);
#249=ORIENTED_EDGE('',*,*,#196,.T.);
#250=ORIENTED_EDGE('',*,*,#195,.F.);
#251=ORIENTED_EDGE('',*,*,#196,.F.);
#252=ORIENTED_EDGE('',*,*,#197,.T.);
#253=ORIENTED_EDGE('',*,*,#198,.T.);
#254=ORIENTED_EDGE('',*,*,#197,.F.);
#255=ORIENTED_EDGE('',*,*,#198,.F.);
#256=ORIENTED_EDGE('',*,*,#199,.T.);
#257=ORIENTED_EDGE('',*,*,#181,.T.);
#258=ORIENTED_EDGE('',*,*,#199,.F.);
#259=ORIENTED_EDGE('',*,*,#200,.T.);
#260=ORIENTED_EDGE('',*,*,#201,.T.);
#261=ORIENTED_EDGE('',*,*,#202,.T.);
#262=ORIENTED_EDGE('',*,*,#203,.T.);
#263=ORIENTED_EDGE('',*,*,#201,.F.);
#264=ORIENTED_EDGE('',*,*,#200,.F.);
#265=ORIENTED_EDGE('',*,*,#204,.F.);
#266=ORIENTED_EDGE('',*,*,#202,.F.);
#267=ORIENTED_EDGE('',*,*,#203,.F.);
#268=ORIENTED_EDGE('',*,*,#205,.T.);
#269=ORIENTED_EDGE('',*,*,#206,.T.);
#270=ORIENTED_EDGE('',*,*,#205,.F.);
#271=ORIENTED_EDGE('',*,*,#204,.T.);
#272=ORIENTED_EDGE('',*,*,#207,.T.);
#273=ORIENTED_EDGE('',*,*,#208,.F.);
#274=ORIENTED_EDGE('',*,*,#207,.F.);
#275=ORIENTED_EDGE('',*,*,#209,.F.);
#276=ORIENTED_EDGE('',*,*,#208,.T.);
#277=ORIENTED_EDGE('',*,*,#210,.F.);
#278=ORIENTED_EDGE('',*,*,#211,.T.);
#279=ORIENTED_EDGE('',*,*,#209,.T.);
#280=ORIENTED_EDGE('',*,*,#211,.F.);
#281=ORIENTED_EDGE('',*,*,#210,.T.);
#282=ORIENTED_EDGE('',*,*,#212,.F.);
#283=ORIENTED_EDGE('',*,*,#213,.F.);
#284=ORIENTED_EDGE('',*,*,#214,.T.);
#285=ORIENTED_EDGE('',*,*,#212,.T.);
#286=ORIENTED_EDGE('',*,*,#214,.F.);
#287=ORIENTED_EDGE('',*,*,#206,.F.);
#288=ORIENTED_EDGE('',*,*,#213,.T.);
#289=CYLINDRICAL_SURFACE('',#350,40.);
#290=CYLINDRICAL_SURFACE('',#353,90.);
#291=CYLINDRICAL_SURFACE('',#358,76.5);
#292=CYLINDRICAL_SURFACE('',#362,72.);
#293=CYLINDRICAL_SURFACE('',#367,78.);
#294=CYLINDRICAL_SURFACE('',#371,88.);
#295=CYLINDRICAL_SURFACE('',#375,90.);
#296=CYLINDRICAL_SURFACE('',#386,39.5);
#297=CYLINDRICAL_SURFACE('',#388,37.);
#298=CYLINDRICAL_SURFACE('',#392,40.);
#299=CYLINDRICAL_SURFACE('',#396,39.);
#300=ADVANCED_FACE('',(#49),#289,.F.);
#301=ADVANCED_FACE('',(#50),#290,.T.);
#302=ADVANCED_FACE('',(#51,#29),#39,.T.);
#303=ADVANCED_FACE('',(#52),#291,.F.);
#304=ADVANCED_FACE('',(#53,#30),#40,.T.);
#305=ADVANCED_FACE('',(#54),#292,.T.);
#306=ADVANCED_FACE('',(#55,#31),#41,.T.);
#307=ADVANCED_FACE('',(#56,#32),#42,.T.);
#308=ADVANCED_FACE('',(#57),#293,.T.);
#309=ADVANCED_FACE('',(#58,#33),#43,.T.);
#310=ADVANCED_FACE('',(#59),#294,.F.);
#311=ADVANCED_FACE('',(#60,#34),#44,.T.);
#312=ADVANCED_FACE('',(#61),#295,.T.);
#313=ADVANCED_FACE('',(#62),#28,.F.);
#314=ADVANCED_FACE('',(#63),#19,.T.);
#315=ADVANCED_FACE('',(#64,#35),#45,.T.);
#316=ADVANCED_FACE('',(#65),#296,.T.);
#317=ADVANCED_FACE('',(#66),#297,.F.);
#318=ADVANCED_FACE('',(#67,#36),#46,.T.);
#319=ADVANCED_FACE('',(#68),#298,.T.);
#320=ADVANCED_FACE('',(#69,#37),#47,.T.);
#321=ADVANCED_FACE('',(#70),#299,.T.);
#322=ADVANCED_FACE('',(#71,#38),#48,.T.);
#323=CLOSED_SHELL('',(#300,#301,#302,#303,#304,#305,#306,#307,#308,#309,
#310,#311,#312,#313));
#324=CLOSED_SHELL('',(#314,#315,#316,#317,#318,#319,#320,#321,#322));
#325=DERIVED_UNIT_ELEMENT(#329,1.);
#326=DERIVED_UNIT_ELEMENT(#617,-3.);
#327=DERIVED_UNIT_ELEMENT(#329,1.);
#328=DERIVED_UNIT_ELEMENT(#617,-3.);
#329=(
MASS_UNIT()
NAMED_UNIT(*)
SI_UNIT(.KILO.,.GRAM.)
);
#330=DERIVED_UNIT((#325,#326));
#331=DERIVED_UNIT((#327,#328));
#332=MEASURE_REPRESENTATION_ITEM('density measure',
POSITIVE_RATIO_MEASURE(7850.),#330);
#333=MEASURE_REPRESENTATION_ITEM('density measure',
POSITIVE_RATIO_MEASURE(7850.),#331);
#334=PROPERTY_DEFINITION_REPRESENTATION(#344,#338);
#335=PROPERTY_DEFINITION_REPRESENTATION(#345,#339);
#336=PROPERTY_DEFINITION_REPRESENTATION(#346,#340);
#337=PROPERTY_DEFINITION_REPRESENTATION(#347,#341);
#338=REPRESENTATION('material name',(#342),#613);
#339=REPRESENTATION('density',(#332),#613);
#340=REPRESENTATION('material name',(#343),#614);
#341=REPRESENTATION('density',(#333),#614);
#342=DESCRIPTIVE_REPRESENTATION_ITEM('Steel','Steel');
#343=DESCRIPTIVE_REPRESENTATION_ITEM('Steel','Steel');
#344=PROPERTY_DEFINITION('material property','material name',#633);
#345=PROPERTY_DEFINITION('material property','density of part',#633);
#346=PROPERTY_DEFINITION('material property','material name',#634);
#347=PROPERTY_DEFINITION('material property','density of part',#634);
#348=AXIS2_PLACEMENT_3D('',#519,#401,#402);
#349=AXIS2_PLACEMENT_3D('',#520,#403,#404);
#350=AXIS2_PLACEMENT_3D('',#521,#405,#406);
#351=AXIS2_PLACEMENT_3D('',#523,#407,#408);
#352=AXIS2_PLACEMENT_3D('',#526,#410,#411);
#353=AXIS2_PLACEMENT_3D('',#527,#412,#413);
#354=AXIS2_PLACEMENT_3D('',#529,#414,#415);
#355=AXIS2_PLACEMENT_3D('',#532,#417,#418);
#356=AXIS2_PLACEMENT_3D('',#533,#419,#420);
#357=AXIS2_PLACEMENT_3D('',#535,#421,#422);
#358=AXIS2_PLACEMENT_3D('',#536,#423,#424);
#359=AXIS2_PLACEMENT_3D('',#539,#426,#427);
#360=AXIS2_PLACEMENT_3D('',#540,#428,#429);
#361=AXIS2_PLACEMENT_3D('',#542,#430,#431);
#362=AXIS2_PLACEMENT_3D('',#543,#432,#433);
#363=AXIS2_PLACEMENT_3D('',#546,#435,#436);
#364=AXIS2_PLACEMENT_3D('',#547,#437,#438);
#365=AXIS2_PLACEMENT_3D('',#548,#439,#440);
#366=AXIS2_PLACEMENT_3D('',#550,#441,#442);
#367=AXIS2_PLACEMENT_3D('',#551,#443,#444);
#368=AXIS2_PLACEMENT_3D('',#554,#446,#447);
#369=AXIS2_PLACEMENT_3D('',#555,#448,#449);
#370=AXIS2_PLACEMENT_3D('',#557,#450,#451);
#371=AXIS2_PLACEMENT_3D('',#558,#452,#453);
#372=AXIS2_PLACEMENT_3D('',#561,#455,#456);
#373=AXIS2_PLACEMENT_3D('',#562,#457,#458);
#374=AXIS2_PLACEMENT_3D('',#564,#459,#460);
#375=AXIS2_PLACEMENT_3D('',#565,#461,#462);
#376=AXIS2_PLACEMENT_3D('',#568,#464,#465);
#377=AXIS2_PLACEMENT_3D('',#569,#466,#467);
#378=AXIS2_PLACEMENT_3D('',#570,#468,#469);
#379=AXIS2_PLACEMENT_3D('',#571,#470,#471);
#380=AXIS2_PLACEMENT_3D('',#572,#472,#473);
#381=AXIS2_PLACEMENT_3D('',#574,#474,#475);
#382=AXIS2_PLACEMENT_3D('',#578,#477,#478);
#383=AXIS2_PLACEMENT_3D('',#579,#479,#480);
#384=AXIS2_PLACEMENT_3D('',#580,#481,#482);
#385=AXIS2_PLACEMENT_3D('',#582,#483,#484);
#386=AXIS2_PLACEMENT_3D('',#583,#485,#486);
#387=AXIS2_PLACEMENT_3D('',#586,#488,#489);
#388=AXIS2_PLACEMENT_3D('',#587,#490,#491);
#389=AXIS2_PLACEMENT_3D('',#590,#493,#494);
#390=AXIS2_PLACEMENT_3D('',#591,#495,#496);
#391=AXIS2_PLACEMENT_3D('',#593,#497,#498);
#392=AXIS2_PLACEMENT_3D('',#594,#499,#500);
#393=AXIS2_PLACEMENT_3D('',#596,#501,#502);
#394=AXIS2_PLACEMENT_3D('',#598,#504,#505);
#395=AXIS2_PLACEMENT_3D('',#600,#506,#507);
#396=AXIS2_PLACEMENT_3D('',#601,#508,#509);
#397=AXIS2_PLACEMENT_3D('',#603,#510,#511);
#398=AXIS2_PLACEMENT_3D('',#605,#513,#514);
#399=AXIS2_PLACEMENT_3D('',#606,#515,#516);
#400=AXIS2_PLACEMENT_3D('',#607,#517,#518);
#401=DIRECTION('axis',(0.,0.,1.));
#402=DIRECTION('refdir',(1.,0.,0.));
#403=DIRECTION('axis',(0.,0.,1.));
#404=DIRECTION('refdir',(1.,0.,0.));
#405=DIRECTION('center_axis',(-1.,0.,0.));
#406=DIRECTION('ref_axis',(0.,1.,0.));
#407=DIRECTION('center_axis',(-1.,0.,0.));
#408=DIRECTION('ref_axis',(0.,1.,0.));
#409=DIRECTION('',(-1.,0.,0.));
#410=DIRECTION('center_axis',(1.,0.,0.));
#411=DIRECTION('ref_axis',(0.,1.,0.));
#412=DIRECTION('center_axis',(-1.,0.,0.));
#413=DIRECTION('ref_axis',(0.,0.,1.));
#414=DIRECTION('center_axis',(-1.,0.,0.));
#415=DIRECTION('ref_axis',(0.,0.,1.));
#416=DIRECTION('',(1.,0.,0.));
#417=DIRECTION('center_axis',(-1.,0.,0.));
#418=DIRECTION('ref_axis',(0.,0.,1.));
#419=DIRECTION('center_axis',(1.,0.,0.));
#420=DIRECTION('ref_axis',(0.,0.,-1.));
#421=DIRECTION('center_axis',(-1.,0.,0.));
#422=DIRECTION('ref_axis',(0.,0.,1.));
#423=DIRECTION('center_axis',(-1.,0.,0.));
#424=DIRECTION('ref_axis',(0.,0.,1.));
#425=DIRECTION('',(-1.,0.,0.));
#426=DIRECTION('center_axis',(-1.,0.,0.));
#427=DIRECTION('ref_axis',(0.,0.,1.));
#428=DIRECTION('center_axis',(1.,0.,0.));
#429=DIRECTION('ref_axis',(0.,0.,-1.));
#430=DIRECTION('center_axis',(-1.,0.,0.));
#431=DIRECTION('ref_axis',(0.,0.,1.));
#432=DIRECTION('center_axis',(-1.,0.,0.));
#433=DIRECTION('ref_axis',(0.,0.,1.));
#434=DIRECTION('',(1.,0.,0.));
#435=DIRECTION('center_axis',(-1.,0.,0.));
#436=DIRECTION('ref_axis',(0.,0.,1.));
#437=DIRECTION('center_axis',(1.,0.,0.));
#438=DIRECTION('ref_axis',(0.,0.,-1.));
#439=DIRECTION('center_axis',(-1.,0.,0.));
#440=DIRECTION('ref_axis',(0.,0.,1.));
#441=DIRECTION('center_axis',(-1.,0.,0.));
#442=DIRECTION('ref_axis',(0.,0.,1.));
#443=DIRECTION('center_axis',(-1.,0.,0.));
#444=DIRECTION('ref_axis',(0.,0.,1.));
#445=DIRECTION('',(1.,0.,0.));
#446=DIRECTION('center_axis',(-1.,0.,0.));
#447=DIRECTION('ref_axis',(0.,0.,1.));
#448=DIRECTION('center_axis',(-1.,0.,0.));
#449=DIRECTION('ref_axis',(0.,0.,1.));
#450=DIRECTION('center_axis',(-1.,0.,0.));
#451=DIRECTION('ref_axis',(0.,0.,1.));
#452=DIRECTION('center_axis',(-1.,0.,0.));
#453=DIRECTION('ref_axis',(0.,0.,1.));
#454=DIRECTION('',(-1.,0.,0.));
#455=DIRECTION('center_axis',(-1.,0.,0.));
#456=DIRECTION('ref_axis',(0.,0.,1.));
#457=DIRECTION('center_axis',(-1.,0.,0.));
#458=DIRECTION('ref_axis',(0.,0.,1.));
#459=DIRECTION('center_axis',(-1.,0.,0.));
#460=DIRECTION('ref_axis',(0.,0.,1.));
#461=DIRECTION('center_axis',(-1.,0.,0.));
#462=DIRECTION('ref_axis',(0.,0.,1.));
#463=DIRECTION('',(1.,0.,0.));
#464=DIRECTION('center_axis',(-1.,0.,0.));
#465=DIRECTION('ref_axis',(0.,0.,1.));
#466=DIRECTION('center_axis',(-1.,0.,0.));
#467=DIRECTION('ref_axis',(0.,0.,1.));
#468=DIRECTION('center_axis',(0.,1.,-1.22464679914735E-16));
#469=DIRECTION('ref_axis',(0.,-1.22464679914735E-16,-1.));
#470=DIRECTION('axis',(0.,0.,1.));
#471=DIRECTION('refdir',(1.,0.,0.));
#472=DIRECTION('center_axis',(0.,1.,0.));
#473=DIRECTION('ref_axis',(-1.,0.,0.));
#474=DIRECTION('center_axis',(0.,1.,0.));
#475=DIRECTION('ref_axis',(-1.,0.,0.));
#476=DIRECTION('',(0.707106781186547,0.707106781186548,8.65956056235492E-17));
#477=DIRECTION('center_axis',(0.,-1.,0.));
#478=DIRECTION('ref_axis',(-1.,0.,0.));
#479=DIRECTION('center_axis',(0.,-1.,0.));
#480=DIRECTION('ref_axis',(-1.,0.,0.));
#481=DIRECTION('center_axis',(0.,-1.,0.));
#482=DIRECTION('ref_axis',(0.,0.,-1.));
#483=DIRECTION('center_axis',(0.,-1.,0.));
#484=DIRECTION('ref_axis',(1.,0.,0.));
#485=DIRECTION('center_axis',(0.,-1.,0.));
#486=DIRECTION('ref_axis',(1.,0.,0.));
#487=DIRECTION('',(0.,1.,0.));
#488=DIRECTION('center_axis',(0.,-1.,0.));
#489=DIRECTION('ref_axis',(1.,0.,0.));
#490=DIRECTION('center_axis',(0.,-1.,0.));
#491=DIRECTION('ref_axis',(1.,0.,0.));
#492=DIRECTION('',(0.,1.,0.));
#493=DIRECTION('center_axis',(0.,-1.,0.));
#494=DIRECTION('ref_axis',(1.,0.,0.));
#495=DIRECTION('center_axis',(0.,1.,0.));
#496=DIRECTION('ref_axis',(0.,0.,1.));
#497=DIRECTION('center_axis',(0.,-1.,0.));
#498=DIRECTION('ref_axis',(1.,0.,0.));
#499=DIRECTION('center_axis',(0.,-1.,0.));
#500=DIRECTION('ref_axis',(1.,0.,0.));
#501=DIRECTION('center_axis',(0.,-1.,0.));
#502=DIRECTION('ref_axis',(1.,0.,0.));
#503=DIRECTION('',(0.,1.,0.));
#504=DIRECTION('center_axis',(0.,-1.,0.));
#505=DIRECTION('ref_axis',(0.,0.,-1.));
#506=DIRECTION('center_axis',(0.,-1.,0.));
#507=DIRECTION('ref_axis',(1.,0.,0.));
#508=DIRECTION('center_axis',(0.,-1.,0.));
#509=DIRECTION('ref_axis',(1.,0.,0.));
#510=DIRECTION('center_axis',(0.,-1.,0.));
#511=DIRECTION('ref_axis',(1.,0.,0.));
#512=DIRECTION('',(0.,1.,0.));
#513=DIRECTION('center_axis',(0.,1.,0.));
#514=DIRECTION('ref_axis',(0.,0.,1.));
#515=DIRECTION('',(6.12323399573675E-17,0.,1.));
#516=DIRECTION('',(2.51187959321441E-15,1.,-1.53808265183679E-31));
#517=DIRECTION('',(0.,0.,1.));
#518=DIRECTION('',(1.,0.,0.));
#519=CARTESIAN_POINT('',(0.,0.,0.));
#520=CARTESIAN_POINT('',(0.,0.,0.));
#521=CARTESIAN_POINT('Origin',(2.,0.,-2.80668371941395E-15));
#522=CARTESIAN_POINT('',(12.,-40.,2.09190347717546E-15));
#523=CARTESIAN_POINT('Origin',(12.,0.,-2.80668371941395E-15));
#524=CARTESIAN_POINT('',(-2.77555756156289E-16,-40.,-7.70527091600336E-15));
#525=CARTESIAN_POINT('',(2.,-40.,2.09190347717546E-15));
#526=CARTESIAN_POINT('Origin',(-2.77555756156289E-16,0.,-2.80668371941395E-15));
#527=CARTESIAN_POINT('Origin',(17.,0.,0.));
#528=CARTESIAN_POINT('',(9.5,-1.10218211923262E-14,-90.));
#529=CARTESIAN_POINT('Origin',(9.5,0.,0.));
#530=CARTESIAN_POINT('',(12.,-1.10218211923262E-14,-90.));
#531=CARTESIAN_POINT('',(17.,-1.10218211923262E-14,-90.));
#532=CARTESIAN_POINT('Origin',(12.,0.,0.));
#533=CARTESIAN_POINT('Origin',(12.,0.,90.));
#534=CARTESIAN_POINT('',(12.,-9.36854801347725E-15,-76.5));
#535=CARTESIAN_POINT('Origin',(12.,0.,0.));
#536=CARTESIAN_POINT('Origin',(17.,0.,0.));
#537=CARTESIAN_POINT('',(7.49999999999999,-9.36854801347725E-15,-76.5));
#538=CARTESIAN_POINT('',(17.,-9.36854801347725E-15,-76.5));
#539=CARTESIAN_POINT('Origin',(7.49999999999999,0.,0.));
#540=CARTESIAN_POINT('Origin',(7.49999999999999,0.,76.5));
#541=CARTESIAN_POINT('',(7.5,-8.81745695386094E-15,-72.));
#542=CARTESIAN_POINT('Origin',(7.5,0.,0.));
#543=CARTESIAN_POINT('Origin',(17.,0.,0.));
#544=CARTESIAN_POINT('',(12.,-8.81745695386094E-15,-72.));
#545=CARTESIAN_POINT('',(17.,-8.81745695386094E-15,-72.));
#546=CARTESIAN_POINT('Origin',(12.,0.,0.));
#547=CARTESIAN_POINT('Origin',(12.,0.,72.));
#548=CARTESIAN_POINT('Origin',(-2.16840434497101E-16,0.,78.));
#549=CARTESIAN_POINT('',(0.,-9.55224503334936E-15,-78.));
#550=CARTESIAN_POINT('Origin',(0.,0.,0.));
#551=CARTESIAN_POINT('Origin',(17.,0.,0.));
#552=CARTESIAN_POINT('',(2.,-9.55224503334936E-15,-78.));
#553=CARTESIAN_POINT('',(17.,-9.55224503334936E-15,-78.));
#554=CARTESIAN_POINT('Origin',(2.,0.,0.));
#555=CARTESIAN_POINT('Origin',(2.,0.,88.));
#556=CARTESIAN_POINT('',(2.,-1.07768918324967E-14,-88.));
#557=CARTESIAN_POINT('Origin',(2.,0.,0.));
#558=CARTESIAN_POINT('Origin',(17.,0.,0.));
#559=CARTESIAN_POINT('',(2.22044604925031E-15,-1.07768918324967E-14,-88.));
#560=CARTESIAN_POINT('',(17.,-1.07768918324967E-14,-88.));
#561=CARTESIAN_POINT('Origin',(3.46944695195361E-15,0.,0.));
#562=CARTESIAN_POINT('Origin',(1.95156391047391E-15,0.,90.));
#563=CARTESIAN_POINT('',(0.,-1.10218211923262E-14,-90.));
#564=CARTESIAN_POINT('Origin',(0.,0.,0.));
#565=CARTESIAN_POINT('Origin',(17.,0.,0.));
#566=CARTESIAN_POINT('',(4.5,-1.10218211923262E-14,-90.));
#567=CARTESIAN_POINT('',(17.,-1.10218211923262E-14,-90.));
#568=CARTESIAN_POINT('Origin',(4.5,0.,0.));
#569=CARTESIAN_POINT('Origin',(7.,0.,0.));
#570=CARTESIAN_POINT('Origin',(7.,-1.10218211923262E-14,-90.));
#571=CARTESIAN_POINT('',(0.,0.,0.));
#572=CARTESIAN_POINT('Origin',(0.,0.999999999999999,0.));
#573=CARTESIAN_POINT('',(37.5,-4.44089209850063E-15,-4.59242549680258E-15));
#574=CARTESIAN_POINT('Origin',(0.,-4.44089209850063E-15,0.));
#575=CARTESIAN_POINT('',(39.5,2.,4.83735485663204E-15));
#576=CARTESIAN_POINT('',(38.5,0.999999999999999,4.71489017671731E-15));
#577=CARTESIAN_POINT('',(-39.5,2.,-4.83735485663204E-15));
#578=CARTESIAN_POINT('Origin',(0.,2.,0.));
#579=CARTESIAN_POINT('Origin',(0.,2.,0.));
#580=CARTESIAN_POINT('Origin',(37.,-4.56181181737764E-15,0.));
#581=CARTESIAN_POINT('',(-37.,-4.44089209850063E-15,-4.53119315684521E-15));
#582=CARTESIAN_POINT('Origin',(0.,-4.44089209850063E-15,0.));
#583=CARTESIAN_POINT('Origin',(0.,2.5,0.));
#584=CARTESIAN_POINT('',(-39.5,5.,-4.83735485663204E-15));
#585=CARTESIAN_POINT('',(-39.5,2.5,-4.83735485663204E-15));
#586=CARTESIAN_POINT('Origin',(0.,5.,0.));
#587=CARTESIAN_POINT('Origin',(0.,22.5,0.));
#588=CARTESIAN_POINT('',(-37.,45.,-4.53119315684521E-15));
#589=CARTESIAN_POINT('',(-37.,22.5,-4.53119315684521E-15));
#590=CARTESIAN_POINT('Origin',(0.,45.,0.));
#591=CARTESIAN_POINT('Origin',(40.,45.,0.));
#592=CARTESIAN_POINT('',(-40.,45.,-4.89858719658941E-15));
#593=CARTESIAN_POINT('Origin',(0.,45.,0.));
#594=CARTESIAN_POINT('Origin',(0.,35.,0.));
#595=CARTESIAN_POINT('',(-40.,25.,-4.89858719658941E-15));
#596=CARTESIAN_POINT('Origin',(0.,25.,0.));
#597=CARTESIAN_POINT('',(-40.,35.,-4.89858719658941E-15));
#598=CARTESIAN_POINT('Origin',(39.,25.,0.));
#599=CARTESIAN_POINT('',(-39.,25.,-4.77612251667468E-15));
#600=CARTESIAN_POINT('Origin',(0.,25.,0.));
#601=CARTESIAN_POINT('Origin',(0.,15.,0.));
#602=CARTESIAN_POINT('',(-39.,5.,-4.77612251667468E-15));
#603=CARTESIAN_POINT('Origin',(0.,5.,0.));
#604=CARTESIAN_POINT('',(-39.,15.,-4.77612251667468E-15));
#605=CARTESIAN_POINT('Origin',(39.5,5.,0.));
#606=CARTESIAN_POINT('',(-2.99760216648792E-14,33.,2.80668371941395E-15));
#607=CARTESIAN_POINT('',(0.,0.,0.));
#608=UNCERTAINTY_MEASURE_WITH_UNIT(LENGTH_MEASURE(0.01),#616,
'DISTANCE_ACCURACY_VALUE',
'Maximum model space distance between geometric entities at asserted c
onnectivities');
#609=UNCERTAINTY_MEASURE_WITH_UNIT(LENGTH_MEASURE(0.01),#616,
'DISTANCE_ACCURACY_VALUE',
'Maximum model space distance between geometric entities at asserted c
onnectivities');
#610=UNCERTAINTY_MEASURE_WITH_UNIT(LENGTH_MEASURE(0.01),#616,
'DISTANCE_ACCURACY_VALUE',
'Maximum model space distance between geometric entities at asserted c
onnectivities');
#611=UNCERTAINTY_MEASURE_WITH_UNIT(LENGTH_MEASURE(0.01),#616,
'DISTANCE_ACCURACY_VALUE',
'Maximum model space distance between geometric entities at asserted c
onnectivities');
#612=(
GEOMETRIC_REPRESENTATION_CONTEXT(3)
GLOBAL_UNCERTAINTY_ASSIGNED_CONTEXT((#608))
GLOBAL_UNIT_ASSIGNED_CONTEXT((#616,#618,#619))
REPRESENTATION_CONTEXT('','3D')
);
#613=(
GEOMETRIC_REPRESENTATION_CONTEXT(3)
GLOBAL_UNCERTAINTY_ASSIGNED_CONTEXT((#609))
GLOBAL_UNIT_ASSIGNED_CONTEXT((#616,#618,#619))
REPRESENTATION_CONTEXT('','3D')
);
#614=(
GEOMETRIC_REPRESENTATION_CONTEXT(3)
GLOBAL_UNCERTAINTY_ASSIGNED_CONTEXT((#610))
GLOBAL_UNIT_ASSIGNED_CONTEXT((#616,#618,#619))
REPRESENTATION_CONTEXT('','3D')
);
#615=(
GEOMETRIC_REPRESENTATION_CONTEXT(3)
GLOBAL_UNCERTAINTY_ASSIGNED_CONTEXT((#611))
GLOBAL_UNIT_ASSIGNED_CONTEXT((#616,#618,#619))
REPRESENTATION_CONTEXT('','3D')
);
#616=(
LENGTH_UNIT()
NAMED_UNIT(*)
SI_UNIT(.MILLI.,.METRE.)
);
#617=(
LENGTH_UNIT()
NAMED_UNIT(*)
SI_UNIT($,.METRE.)
);
#618=(
NAMED_UNIT(*)
PLANE_ANGLE_UNIT()
SI_UNIT($,.RADIAN.)
);
#619=(
NAMED_UNIT(*)
SI_UNIT($,.STERADIAN.)
SOLID_ANGLE_UNIT()
);
#620=SHAPE_DEFINITION_REPRESENTATION(#623,#628);
#621=SHAPE_DEFINITION_REPRESENTATION(#624,#629);
#622=SHAPE_DEFINITION_REPRESENTATION(#625,#630);
#623=PRODUCT_DEFINITION_SHAPE('',$,#632);
#624=PRODUCT_DEFINITION_SHAPE('',$,#633);
#625=PRODUCT_DEFINITION_SHAPE('',$,#634);
#626=PRODUCT_DEFINITION_SHAPE($,$,#17);
#627=PRODUCT_DEFINITION_SHAPE($,$,#18);
#628=SHAPE_REPRESENTATION('',(#348,#399,#400),#612);
#629=SHAPE_REPRESENTATION('',(#349),#613);
#630=SHAPE_REPRESENTATION('',(#379),#614);
#631=PRODUCT_DEFINITION_CONTEXT('part definition',#642,'design');
#632=PRODUCT_DEFINITION('cryo interface v3 top connector',
'cryo interface v3 top connector v3',#635,#631);
#633=PRODUCT_DEFINITION('VAb_BF 160-K v1','VAb_BF 160-K v1',#636,#631);
#634=PRODUCT_DEFINITION('tube','tube',#637,#631);
#635=PRODUCT_DEFINITION_FORMATION('',$,#644);
#636=PRODUCT_DEFINITION_FORMATION('',$,#645);
#637=PRODUCT_DEFINITION_FORMATION('',$,#646);
#638=PRODUCT_RELATED_PRODUCT_CATEGORY(
'cryo interface v3 top connector v3',
'cryo interface v3 top connector v3',(#644));
#639=PRODUCT_RELATED_PRODUCT_CATEGORY('VAb_BF 160-K v1',
'VAb_BF 160-K v1',(#645));
#640=PRODUCT_RELATED_PRODUCT_CATEGORY('tube','tube',(#646));
#641=APPLICATION_PROTOCOL_DEFINITION('international standard',
'automotive_design',2009,#642);
#642=APPLICATION_CONTEXT(
'Core Data for Automotive Mechanical Design Process');
#643=PRODUCT_CONTEXT('part definition',#642,'mechanical');
#644=PRODUCT('cryo interface v3 top connector',
'cryo interface v3 top connector v3',$,(#643));
#645=PRODUCT('VAb_BF 160-K v1','VAb_BF 160-K v1',$,(#643));
#646=PRODUCT('tube','tube',$,(#643));
#647=PRESENTATION_STYLE_ASSIGNMENT((#649));
#648=PRESENTATION_STYLE_ASSIGNMENT((#650));
#649=SURFACE_STYLE_USAGE(.BOTH.,#651);
#650=SURFACE_STYLE_USAGE(.BOTH.,#652);
#651=SURFACE_SIDE_STYLE('',(#653));
#652=SURFACE_SIDE_STYLE('',(#654));
#653=SURFACE_STYLE_FILL_AREA(#655);
#654=SURFACE_STYLE_FILL_AREA(#656);
#655=FILL_AREA_STYLE('Steel - Satin',(#657));
#656=FILL_AREA_STYLE('Opaque(165,173,178)',(#658));
#657=FILL_AREA_STYLE_COLOUR('Steel - Satin',#659);
#658=FILL_AREA_STYLE_COLOUR('Opaque(165,173,178)',#660);
#659=COLOUR_RGB('Steel - Satin',0.627450980392157,0.627450980392157,0.627450980392157);
#660=COLOUR_RGB('Opaque(165,173,178)',0.647058823529412,0.67843137254902,
0.698039215686274);
ENDSEC;
END-ISO-10303-21;
