ISO-10303-21;
HEADER;
/* Generated by software containing ST-Developer
 * from STEP Tools, Inc. (www.steptools.com) 
 */

FILE_DESCRIPTION(
/* description */ (''),
/* implementation_level */ '2;1');

FILE_NAME(
/* name */ 'din_en_iso_4762_m4x6 v1.step',
/* time_stamp */ '2024-06-14T15:30:48+02:00',
/* author */ (''),
/* organization */ (''),
/* preprocessor_version */ 'ST-DEVELOPER v20',
/* originating_system */ 'Autodesk Translation Framework v13.14.0.145',

/* authorisation */ '');

FILE_SCHEMA (('AUTOMOTIVE_DESIGN { 1 0 10303 214 3 1 1 }'));
ENDSEC;

DATA;
#10=MECHANICAL_DESIGN_GEOMETRIC_PRESENTATION_REPRESENTATION('',(#13),#675);
#11=SHAPE_REPRESENTATION_RELATIONSHIP('SRR','None',#682,#12);
#12=ADVANCED_BREP_SHAPE_REPRESENTATION('',(#14),#674);
#13=STYLED_ITEM('',(#691),#14);
#14=MANIFOLD_SOLID_BREP('Body1',#383);
#15=CYLINDRICAL_SURFACE('',#423,3.5);
#16=CYLINDRICAL_SURFACE('',#431,2.);
#17=CYLINDRICAL_SURFACE('',#437,2.);
#18=TOROIDAL_SURFACE('',#419,3.1,0.4);
#19=TOROIDAL_SURFACE('',#427,2.2,0.2);
#20=FACE_BOUND('',#85,.T.);
#21=FACE_BOUND('',#89,.T.);
#22=FACE_BOUND('',#94,.T.);
#23=CIRCLE('',#401,1.5);
#24=CIRCLE('',#402,1.5);
#25=CIRCLE('',#403,1.5);
#26=CIRCLE('',#404,1.5);
#27=CIRCLE('',#405,1.5);
#28=CIRCLE('',#406,1.5);
#29=CIRCLE('',#407,1.5);
#30=CIRCLE('',#418,3.1);
#31=CIRCLE('',#420,3.5);
#32=CIRCLE('',#421,3.5);
#33=CIRCLE('',#422,0.4);
#34=CIRCLE('',#424,3.5);
#35=CIRCLE('',#426,2.2);
#36=CIRCLE('',#428,0.2);
#37=CIRCLE('',#429,2.);
#38=CIRCLE('',#430,2.);
#39=CIRCLE('',#432,2.);
#40=CIRCLE('',#434,1.621125);
#41=CIRCLE('',#436,2.);
#42=CIRCLE('',#438,2.);
#43=CIRCLE('',#440,1.621125);
#44=CONICAL_SURFACE('',#400,0.75,1.0471975511966);
#45=CONICAL_SURFACE('',#433,1.8105625,0.785398163397448);
#46=CONICAL_SURFACE('',#439,1.8105625,0.785398163397447);
#47=FACE_OUTER_BOUND('',#71,.T.);
#48=FACE_OUTER_BOUND('',#72,.T.);
#49=FACE_OUTER_BOUND('',#73,.T.);
#50=FACE_OUTER_BOUND('',#74,.T.);
#51=FACE_OUTER_BOUND('',#75,.T.);
#52=FACE_OUTER_BOUND('',#76,.T.);
#53=FACE_OUTER_BOUND('',#77,.T.);
#54=FACE_OUTER_BOUND('',#78,.T.);
#55=FACE_OUTER_BOUND('',#79,.T.);
#56=FACE_OUTER_BOUND('',#80,.T.);
#57=FACE_OUTER_BOUND('',#81,.T.);
#58=FACE_OUTER_BOUND('',#82,.T.);
#59=FACE_OUTER_BOUND('',#83,.T.);
#60=FACE_OUTER_BOUND('',#84,.T.);
#61=FACE_OUTER_BOUND('',#86,.T.);
#62=FACE_OUTER_BOUND('',#87,.T.);
#63=FACE_OUTER_BOUND('',#88,.T.);
#64=FACE_OUTER_BOUND('',#90,.T.);
#65=FACE_OUTER_BOUND('',#91,.T.);
#66=FACE_OUTER_BOUND('',#92,.T.);
#67=FACE_OUTER_BOUND('',#93,.T.);
#68=FACE_OUTER_BOUND('',#95,.T.);
#69=FACE_OUTER_BOUND('',#96,.T.);
#70=FACE_OUTER_BOUND('',#97,.T.);
#71=EDGE_LOOP('',(#241,#242,#243,#244,#245));
#72=EDGE_LOOP('',(#246,#247,#248,#249,#250));
#73=EDGE_LOOP('',(#251,#252,#253,#254,#255));
#74=EDGE_LOOP('',(#256,#257,#258,#259,#260,#261,#262,#263,#264));
#75=EDGE_LOOP('',(#265,#266,#267));
#76=EDGE_LOOP('',(#268,#269,#270));
#77=EDGE_LOOP('',(#271,#272,#273));
#78=EDGE_LOOP('',(#274,#275,#276));
#79=EDGE_LOOP('',(#277,#278,#279));
#80=EDGE_LOOP('',(#280,#281,#282,#283));
#81=EDGE_LOOP('',(#284,#285,#286,#287,#288));
#82=EDGE_LOOP('',(#289,#290,#291,#292,#293));
#83=EDGE_LOOP('',(#294,#295,#296,#297,#298));
#84=EDGE_LOOP('',(#299));
#85=EDGE_LOOP('',(#300,#301,#302,#303,#304,#305));
#86=EDGE_LOOP('',(#306,#307,#308,#309,#310));
#87=EDGE_LOOP('',(#311,#312,#313,#314,#315));
#88=EDGE_LOOP('',(#316));
#89=EDGE_LOOP('',(#317));
#90=EDGE_LOOP('',(#318,#319,#320,#321,#322));
#91=EDGE_LOOP('',(#323,#324,#325,#326,#327));
#92=EDGE_LOOP('',(#328,#329,#330,#331));
#93=EDGE_LOOP('',(#332));
#94=EDGE_LOOP('',(#333));
#95=EDGE_LOOP('',(#334,#335,#336,#337));
#96=EDGE_LOOP('',(#338,#339,#340,#341));
#97=EDGE_LOOP('',(#342));
#98=LINE('',#568,#128);
#99=LINE('',#570,#129);
#100=LINE('',#572,#130);
#101=LINE('',#574,#131);
#102=LINE('',#575,#132);
#103=LINE('',#578,#133);
#104=LINE('',#580,#134);
#105=LINE('',#582,#135);
#106=LINE('',#583,#136);
#107=LINE('',#586,#137);
#108=LINE('',#588,#138);
#109=LINE('',#590,#139);
#110=LINE('',#591,#140);
#111=LINE('',#601,#141);
#112=LINE('',#607,#142);
#113=LINE('',#611,#143);
#114=LINE('',#614,#144);
#115=LINE('',#615,#145);
#116=LINE('',#618,#146);
#117=LINE('',#619,#147);
#118=LINE('',#622,#148);
#119=LINE('',#623,#149);
#120=LINE('',#626,#150);
#121=LINE('',#627,#151);
#122=LINE('',#629,#152);
#123=LINE('',#642,#153);
#124=LINE('',#655,#154);
#125=LINE('',#659,#155);
#126=LINE('',#666,#156);
#127=LINE('',#670,#157);
#128=VECTOR('',#446,1.);
#129=VECTOR('',#447,1.);
#130=VECTOR('',#448,1.);
#131=VECTOR('',#449,1.);
#132=VECTOR('',#450,1.);
#133=VECTOR('',#453,1.);
#134=VECTOR('',#454,1.);
#135=VECTOR('',#455,1.);
#136=VECTOR('',#456,1.);
#137=VECTOR('',#459,1.);
#138=VECTOR('',#460,1.);
#139=VECTOR('',#461,1.);
#140=VECTOR('',#462,1.);
#141=VECTOR('',#473,0.75);
#142=VECTOR('',#482,1.);
#143=VECTOR('',#489,1.);
#144=VECTOR('',#492,1.);
#145=VECTOR('',#493,1.);
#146=VECTOR('',#496,1.);
#147=VECTOR('',#497,1.);
#148=VECTOR('',#500,1.);
#149=VECTOR('',#501,1.);
#150=VECTOR('',#504,1.);
#151=VECTOR('',#505,1.);
#152=VECTOR('',#508,1.);
#153=VECTOR('',#525,3.5);
#154=VECTOR('',#542,2.);
#155=VECTOR('',#547,1.8105625);
#156=VECTOR('',#556,2.);
#157=VECTOR('',#561,1.8105625);
#158=VERTEX_POINT('',#566);
#159=VERTEX_POINT('',#567);
#160=VERTEX_POINT('',#569);
#161=VERTEX_POINT('',#571);
#162=VERTEX_POINT('',#573);
#163=VERTEX_POINT('',#577);
#164=VERTEX_POINT('',#579);
#165=VERTEX_POINT('',#581);
#166=VERTEX_POINT('',#585);
#167=VERTEX_POINT('',#587);
#168=VERTEX_POINT('',#589);
#169=VERTEX_POINT('',#594);
#170=VERTEX_POINT('',#596);
#171=VERTEX_POINT('',#598);
#172=VERTEX_POINT('',#600);
#173=VERTEX_POINT('',#602);
#174=VERTEX_POINT('',#613);
#175=VERTEX_POINT('',#617);
#176=VERTEX_POINT('',#621);
#177=VERTEX_POINT('',#625);
#178=VERTEX_POINT('',#631);
#179=VERTEX_POINT('',#634);
#180=VERTEX_POINT('',#635);
#181=VERTEX_POINT('',#640);
#182=VERTEX_POINT('',#644);
#183=VERTEX_POINT('',#647);
#184=VERTEX_POINT('',#649);
#185=VERTEX_POINT('',#653);
#186=VERTEX_POINT('',#657);
#187=VERTEX_POINT('',#661);
#188=VERTEX_POINT('',#664);
#189=VERTEX_POINT('',#668);
#190=EDGE_CURVE('',#158,#159,#98,.T.);
#191=EDGE_CURVE('',#158,#160,#99,.T.);
#192=EDGE_CURVE('',#161,#160,#100,.T.);
#193=EDGE_CURVE('',#162,#161,#101,.T.);
#194=EDGE_CURVE('',#159,#162,#102,.T.);
#195=EDGE_CURVE('',#159,#163,#103,.T.);
#196=EDGE_CURVE('',#164,#162,#104,.T.);
#197=EDGE_CURVE('',#165,#164,#105,.T.);
#198=EDGE_CURVE('',#163,#165,#106,.T.);
#199=EDGE_CURVE('',#163,#166,#107,.T.);
#200=EDGE_CURVE('',#167,#165,#108,.T.);
#201=EDGE_CURVE('',#168,#167,#109,.T.);
#202=EDGE_CURVE('',#166,#168,#110,.T.);
#203=EDGE_CURVE('',#164,#161,#23,.T.);
#204=EDGE_CURVE('',#161,#169,#24,.T.);
#205=EDGE_CURVE('',#169,#170,#25,.T.);
#206=EDGE_CURVE('',#170,#171,#26,.T.);
#207=EDGE_CURVE('',#171,#172,#111,.T.);
#208=EDGE_CURVE('',#171,#173,#27,.T.);
#209=EDGE_CURVE('',#173,#167,#28,.T.);
#210=EDGE_CURVE('',#167,#164,#29,.T.);
#211=EDGE_CURVE('',#173,#168,#112,.T.);
#212=EDGE_CURVE('',#160,#169,#113,.T.);
#213=EDGE_CURVE('',#169,#174,#114,.T.);
#214=EDGE_CURVE('',#174,#170,#115,.T.);
#215=EDGE_CURVE('',#170,#175,#116,.T.);
#216=EDGE_CURVE('',#175,#173,#117,.T.);
#217=EDGE_CURVE('',#166,#176,#118,.T.);
#218=EDGE_CURVE('',#176,#175,#119,.T.);
#219=EDGE_CURVE('',#177,#158,#120,.T.);
#220=EDGE_CURVE('',#177,#174,#121,.T.);
#221=EDGE_CURVE('',#176,#177,#122,.T.);
#222=EDGE_CURVE('',#178,#178,#30,.T.);
#223=EDGE_CURVE('',#179,#180,#31,.T.);
#224=EDGE_CURVE('',#180,#179,#32,.T.);
#225=EDGE_CURVE('',#180,#178,#33,.T.);
#226=EDGE_CURVE('',#181,#181,#34,.T.);
#227=EDGE_CURVE('',#181,#179,#123,.T.);
#228=EDGE_CURVE('',#182,#182,#35,.T.);
#229=EDGE_CURVE('',#182,#183,#36,.T.);
#230=EDGE_CURVE('',#184,#183,#37,.T.);
#231=EDGE_CURVE('',#183,#184,#38,.T.);
#232=EDGE_CURVE('',#185,#185,#39,.T.);
#233=EDGE_CURVE('',#185,#184,#124,.T.);
#234=EDGE_CURVE('',#186,#186,#40,.T.);
#235=EDGE_CURVE('',#186,#185,#125,.T.);
#236=EDGE_CURVE('',#187,#187,#41,.T.);
#237=EDGE_CURVE('',#188,#188,#42,.T.);
#238=EDGE_CURVE('',#188,#187,#126,.T.);
#239=EDGE_CURVE('',#189,#189,#43,.T.);
#240=EDGE_CURVE('',#189,#188,#127,.T.);
#241=ORIENTED_EDGE('',*,*,#190,.F.);
#242=ORIENTED_EDGE('',*,*,#191,.T.);
#243=ORIENTED_EDGE('',*,*,#192,.F.);
#244=ORIENTED_EDGE('',*,*,#193,.F.);
#245=ORIENTED_EDGE('',*,*,#194,.F.);
#246=ORIENTED_EDGE('',*,*,#195,.F.);
#247=ORIENTED_EDGE('',*,*,#194,.T.);
#248=ORIENTED_EDGE('',*,*,#196,.F.);
#249=ORIENTED_EDGE('',*,*,#197,.F.);
#250=ORIENTED_EDGE('',*,*,#198,.F.);
#251=ORIENTED_EDGE('',*,*,#199,.F.);
#252=ORIENTED_EDGE('',*,*,#198,.T.);
#253=ORIENTED_EDGE('',*,*,#200,.F.);
#254=ORIENTED_EDGE('',*,*,#201,.F.);
#255=ORIENTED_EDGE('',*,*,#202,.F.);
#256=ORIENTED_EDGE('',*,*,#203,.T.);
#257=ORIENTED_EDGE('',*,*,#204,.T.);
#258=ORIENTED_EDGE('',*,*,#205,.T.);
#259=ORIENTED_EDGE('',*,*,#206,.T.);
#260=ORIENTED_EDGE('',*,*,#207,.T.);
#261=ORIENTED_EDGE('',*,*,#207,.F.);
#262=ORIENTED_EDGE('',*,*,#208,.T.);
#263=ORIENTED_EDGE('',*,*,#209,.T.);
#264=ORIENTED_EDGE('',*,*,#210,.T.);
#265=ORIENTED_EDGE('',*,*,#209,.F.);
#266=ORIENTED_EDGE('',*,*,#211,.T.);
#267=ORIENTED_EDGE('',*,*,#201,.T.);
#268=ORIENTED_EDGE('',*,*,#210,.F.);
#269=ORIENTED_EDGE('',*,*,#200,.T.);
#270=ORIENTED_EDGE('',*,*,#197,.T.);
#271=ORIENTED_EDGE('',*,*,#203,.F.);
#272=ORIENTED_EDGE('',*,*,#196,.T.);
#273=ORIENTED_EDGE('',*,*,#193,.T.);
#274=ORIENTED_EDGE('',*,*,#204,.F.);
#275=ORIENTED_EDGE('',*,*,#192,.T.);
#276=ORIENTED_EDGE('',*,*,#212,.T.);
#277=ORIENTED_EDGE('',*,*,#205,.F.);
#278=ORIENTED_EDGE('',*,*,#213,.T.);
#279=ORIENTED_EDGE('',*,*,#214,.T.);
#280=ORIENTED_EDGE('',*,*,#206,.F.);
#281=ORIENTED_EDGE('',*,*,#215,.T.);
#282=ORIENTED_EDGE('',*,*,#216,.T.);
#283=ORIENTED_EDGE('',*,*,#208,.F.);
#284=ORIENTED_EDGE('',*,*,#217,.F.);
#285=ORIENTED_EDGE('',*,*,#202,.T.);
#286=ORIENTED_EDGE('',*,*,#211,.F.);
#287=ORIENTED_EDGE('',*,*,#216,.F.);
#288=ORIENTED_EDGE('',*,*,#218,.F.);
#289=ORIENTED_EDGE('',*,*,#219,.F.);
#290=ORIENTED_EDGE('',*,*,#220,.T.);
#291=ORIENTED_EDGE('',*,*,#213,.F.);
#292=ORIENTED_EDGE('',*,*,#212,.F.);
#293=ORIENTED_EDGE('',*,*,#191,.F.);
#294=ORIENTED_EDGE('',*,*,#221,.F.);
#295=ORIENTED_EDGE('',*,*,#218,.T.);
#296=ORIENTED_EDGE('',*,*,#215,.F.);
#297=ORIENTED_EDGE('',*,*,#214,.F.);
#298=ORIENTED_EDGE('',*,*,#220,.F.);
#299=ORIENTED_EDGE('',*,*,#222,.F.);
#300=ORIENTED_EDGE('',*,*,#217,.T.);
#301=ORIENTED_EDGE('',*,*,#221,.T.);
#302=ORIENTED_EDGE('',*,*,#219,.T.);
#303=ORIENTED_EDGE('',*,*,#190,.T.);
#304=ORIENTED_EDGE('',*,*,#195,.T.);
#305=ORIENTED_EDGE('',*,*,#199,.T.);
#306=ORIENTED_EDGE('',*,*,#223,.F.);
#307=ORIENTED_EDGE('',*,*,#224,.F.);
#308=ORIENTED_EDGE('',*,*,#225,.T.);
#309=ORIENTED_EDGE('',*,*,#222,.T.);
#310=ORIENTED_EDGE('',*,*,#225,.F.);
#311=ORIENTED_EDGE('',*,*,#226,.F.);
#312=ORIENTED_EDGE('',*,*,#227,.T.);
#313=ORIENTED_EDGE('',*,*,#223,.T.);
#314=ORIENTED_EDGE('',*,*,#224,.T.);
#315=ORIENTED_EDGE('',*,*,#227,.F.);
#316=ORIENTED_EDGE('',*,*,#226,.T.);
#317=ORIENTED_EDGE('',*,*,#228,.F.);
#318=ORIENTED_EDGE('',*,*,#228,.T.);
#319=ORIENTED_EDGE('',*,*,#229,.T.);
#320=ORIENTED_EDGE('',*,*,#230,.F.);
#321=ORIENTED_EDGE('',*,*,#231,.F.);
#322=ORIENTED_EDGE('',*,*,#229,.F.);
#323=ORIENTED_EDGE('',*,*,#232,.F.);
#324=ORIENTED_EDGE('',*,*,#233,.T.);
#325=ORIENTED_EDGE('',*,*,#230,.T.);
#326=ORIENTED_EDGE('',*,*,#231,.T.);
#327=ORIENTED_EDGE('',*,*,#233,.F.);
#328=ORIENTED_EDGE('',*,*,#234,.F.);
#329=ORIENTED_EDGE('',*,*,#235,.T.);
#330=ORIENTED_EDGE('',*,*,#232,.T.);
#331=ORIENTED_EDGE('',*,*,#235,.F.);
#332=ORIENTED_EDGE('',*,*,#236,.F.);
#333=ORIENTED_EDGE('',*,*,#234,.T.);
#334=ORIENTED_EDGE('',*,*,#237,.F.);
#335=ORIENTED_EDGE('',*,*,#238,.T.);
#336=ORIENTED_EDGE('',*,*,#236,.T.);
#337=ORIENTED_EDGE('',*,*,#238,.F.);
#338=ORIENTED_EDGE('',*,*,#239,.F.);
#339=ORIENTED_EDGE('',*,*,#240,.T.);
#340=ORIENTED_EDGE('',*,*,#237,.T.);
#341=ORIENTED_EDGE('',*,*,#240,.F.);
#342=ORIENTED_EDGE('',*,*,#239,.T.);
#343=PLANE('',#397);
#344=PLANE('',#398);
#345=PLANE('',#399);
#346=PLANE('',#408);
#347=PLANE('',#409);
#348=PLANE('',#410);
#349=PLANE('',#411);
#350=PLANE('',#412);
#351=PLANE('',#413);
#352=PLANE('',#414);
#353=PLANE('',#415);
#354=PLANE('',#416);
#355=PLANE('',#417);
#356=PLANE('',#425);
#357=PLANE('',#435);
#358=PLANE('',#441);
#359=ADVANCED_FACE('',(#47),#343,.F.);
#360=ADVANCED_FACE('',(#48),#344,.F.);
#361=ADVANCED_FACE('',(#49),#345,.F.);
#362=ADVANCED_FACE('',(#50),#44,.F.);
#363=ADVANCED_FACE('',(#51),#346,.F.);
#364=ADVANCED_FACE('',(#52),#347,.F.);
#365=ADVANCED_FACE('',(#53),#348,.F.);
#366=ADVANCED_FACE('',(#54),#349,.F.);
#367=ADVANCED_FACE('',(#55),#350,.F.);
#368=ADVANCED_FACE('',(#56),#351,.F.);
#369=ADVANCED_FACE('',(#57),#352,.F.);
#370=ADVANCED_FACE('',(#58),#353,.F.);
#371=ADVANCED_FACE('',(#59),#354,.F.);
#372=ADVANCED_FACE('',(#60,#20),#355,.T.);
#373=ADVANCED_FACE('',(#61),#18,.T.);
#374=ADVANCED_FACE('',(#62),#15,.T.);
#375=ADVANCED_FACE('',(#63,#21),#356,.T.);
#376=ADVANCED_FACE('',(#64),#19,.F.);
#377=ADVANCED_FACE('',(#65),#16,.T.);
#378=ADVANCED_FACE('',(#66),#45,.T.);
#379=ADVANCED_FACE('',(#67,#22),#357,.T.);
#380=ADVANCED_FACE('',(#68),#17,.T.);
#381=ADVANCED_FACE('',(#69),#46,.T.);
#382=ADVANCED_FACE('',(#70),#358,.T.);
#383=CLOSED_SHELL('',(#359,#360,#361,#362,#363,#364,#365,#366,#367,#368,
#369,#370,#371,#372,#373,#374,#375,#376,#377,#378,#379,#380,#381,#382));
#384=DERIVED_UNIT_ELEMENT(#386,1.);
#385=DERIVED_UNIT_ELEMENT(#677,-3.);
#386=(
MASS_UNIT()
NAMED_UNIT(*)
SI_UNIT(.KILO.,.GRAM.)
);
#387=DERIVED_UNIT((#384,#385));
#388=MEASURE_REPRESENTATION_ITEM('density measure',
POSITIVE_RATIO_MEASURE(1000.),#387);
#389=PROPERTY_DEFINITION_REPRESENTATION(#394,#391);
#390=PROPERTY_DEFINITION_REPRESENTATION(#395,#392);
#391=REPRESENTATION('material name',(#393),#674);
#392=REPRESENTATION('density',(#388),#674);
#393=DESCRIPTIVE_REPRESENTATION_ITEM('Generic','Generic');
#394=PROPERTY_DEFINITION('material property','material name',#684);
#395=PROPERTY_DEFINITION('material property','density of part',#684);
#396=AXIS2_PLACEMENT_3D('',#564,#442,#443);
#397=AXIS2_PLACEMENT_3D('',#565,#444,#445);
#398=AXIS2_PLACEMENT_3D('',#576,#451,#452);
#399=AXIS2_PLACEMENT_3D('',#584,#457,#458);
#400=AXIS2_PLACEMENT_3D('',#592,#463,#464);
#401=AXIS2_PLACEMENT_3D('',#593,#465,#466);
#402=AXIS2_PLACEMENT_3D('',#595,#467,#468);
#403=AXIS2_PLACEMENT_3D('',#597,#469,#470);
#404=AXIS2_PLACEMENT_3D('',#599,#471,#472);
#405=AXIS2_PLACEMENT_3D('',#603,#474,#475);
#406=AXIS2_PLACEMENT_3D('',#604,#476,#477);
#407=AXIS2_PLACEMENT_3D('',#605,#478,#479);
#408=AXIS2_PLACEMENT_3D('',#606,#480,#481);
#409=AXIS2_PLACEMENT_3D('',#608,#483,#484);
#410=AXIS2_PLACEMENT_3D('',#609,#485,#486);
#411=AXIS2_PLACEMENT_3D('',#610,#487,#488);
#412=AXIS2_PLACEMENT_3D('',#612,#490,#491);
#413=AXIS2_PLACEMENT_3D('',#616,#494,#495);
#414=AXIS2_PLACEMENT_3D('',#620,#498,#499);
#415=AXIS2_PLACEMENT_3D('',#624,#502,#503);
#416=AXIS2_PLACEMENT_3D('',#628,#506,#507);
#417=AXIS2_PLACEMENT_3D('',#630,#509,#510);
#418=AXIS2_PLACEMENT_3D('',#632,#511,#512);
#419=AXIS2_PLACEMENT_3D('',#633,#513,#514);
#420=AXIS2_PLACEMENT_3D('',#636,#515,#516);
#421=AXIS2_PLACEMENT_3D('',#637,#517,#518);
#422=AXIS2_PLACEMENT_3D('',#638,#519,#520);
#423=AXIS2_PLACEMENT_3D('',#639,#521,#522);
#424=AXIS2_PLACEMENT_3D('',#641,#523,#524);
#425=AXIS2_PLACEMENT_3D('',#643,#526,#527);
#426=AXIS2_PLACEMENT_3D('',#645,#528,#529);
#427=AXIS2_PLACEMENT_3D('',#646,#530,#531);
#428=AXIS2_PLACEMENT_3D('',#648,#532,#533);
#429=AXIS2_PLACEMENT_3D('',#650,#534,#535);
#430=AXIS2_PLACEMENT_3D('',#651,#536,#537);
#431=AXIS2_PLACEMENT_3D('',#652,#538,#539);
#432=AXIS2_PLACEMENT_3D('',#654,#540,#541);
#433=AXIS2_PLACEMENT_3D('',#656,#543,#544);
#434=AXIS2_PLACEMENT_3D('',#658,#545,#546);
#435=AXIS2_PLACEMENT_3D('',#660,#548,#549);
#436=AXIS2_PLACEMENT_3D('',#662,#550,#551);
#437=AXIS2_PLACEMENT_3D('',#663,#552,#553);
#438=AXIS2_PLACEMENT_3D('',#665,#554,#555);
#439=AXIS2_PLACEMENT_3D('',#667,#557,#558);
#440=AXIS2_PLACEMENT_3D('',#669,#559,#560);
#441=AXIS2_PLACEMENT_3D('',#671,#562,#563);
#442=DIRECTION('axis',(0.,0.,1.));
#443=DIRECTION('refdir',(1.,0.,0.));
#444=DIRECTION('center_axis',(0.5,0.866025403784439,-3.06151588455594E-17));
#445=DIRECTION('ref_axis',(-0.866025403784438,0.5,5.30270106023007E-17));
#446=DIRECTION('',(-0.866025403784439,0.5,2.6166776135563E-17));
#447=DIRECTION('',(6.12303176911189E-17,0.,1.));
#448=DIRECTION('',(0.866025403784439,-0.5,-5.30270106023007E-17));
#449=DIRECTION('',(0.866025403784439,-0.5,-5.30270106023007E-17));
#450=DIRECTION('',(6.12303176911189E-17,0.,1.));
#451=DIRECTION('center_axis',(-0.5,0.866025403784439,3.06151588455594E-17));
#452=DIRECTION('ref_axis',(-0.866025403784439,-0.5,5.30270106023007E-17));
#453=DIRECTION('',(-0.866025403784439,-0.5,7.98872450690383E-17));
#454=DIRECTION('',(0.866025403784439,0.5,-5.30270106023007E-17));
#455=DIRECTION('',(0.866025403784439,0.5,-5.30270106023007E-17));
#456=DIRECTION('',(6.12303176911189E-17,0.,1.));
#457=DIRECTION('center_axis',(-1.,2.56395024851142E-16,6.12303176911189E-17));
#458=DIRECTION('ref_axis',(-2.56395024851142E-16,-1.,1.56991488260577E-32));
#459=DIRECTION('',(-2.56395024851142E-16,-1.,5.37204689334753E-17));
#460=DIRECTION('',(2.56395024851142E-16,1.,-1.56991488260577E-32));
#461=DIRECTION('',(2.56395024851142E-16,1.,-1.56991488260577E-32));
#462=DIRECTION('',(6.12303176911189E-17,0.,1.));
#463=DIRECTION('center_axis',(-6.12303176911189E-17,0.,-1.));
#464=DIRECTION('ref_axis',(0.,1.,0.));
#465=DIRECTION('center_axis',(-6.12303176911189E-17,0.,-1.));
#466=DIRECTION('ref_axis',(0.,1.,0.));
#467=DIRECTION('center_axis',(-6.12303176911189E-17,0.,-1.));
#468=DIRECTION('ref_axis',(0.,1.,0.));
#469=DIRECTION('center_axis',(-6.12303176911189E-17,0.,-1.));
#470=DIRECTION('ref_axis',(0.,1.,0.));
#471=DIRECTION('center_axis',(-6.12303176911189E-17,0.,-1.));
#472=DIRECTION('ref_axis',(0.,1.,0.));
#473=DIRECTION('',(-7.54423650269313E-17,0.866025403784439,0.5));
#474=DIRECTION('center_axis',(-6.12303176911189E-17,0.,-1.));
#475=DIRECTION('ref_axis',(0.,1.,0.));
#476=DIRECTION('center_axis',(-6.12303176911189E-17,0.,-1.));
#477=DIRECTION('ref_axis',(0.,1.,0.));
#478=DIRECTION('center_axis',(-6.12303176911189E-17,0.,-1.));
#479=DIRECTION('ref_axis',(0.,1.,0.));
#480=DIRECTION('center_axis',(6.12303176911189E-17,0.,1.));
#481=DIRECTION('ref_axis',(1.,0.,-6.12303176911189E-17));
#482=DIRECTION('',(-0.866025403784439,0.5,5.30270106023007E-17));
#483=DIRECTION('center_axis',(6.12303176911189E-17,0.,1.));
#484=DIRECTION('ref_axis',(1.,0.,-6.12303176911189E-17));
#485=DIRECTION('center_axis',(6.12303176911189E-17,0.,1.));
#486=DIRECTION('ref_axis',(1.,0.,-6.12303176911189E-17));
#487=DIRECTION('center_axis',(6.12303176911189E-17,0.,1.));
#488=DIRECTION('ref_axis',(1.,0.,-6.12303176911189E-17));
#489=DIRECTION('',(0.,-1.,0.));
#490=DIRECTION('center_axis',(6.12303176911189E-17,0.,1.));
#491=DIRECTION('ref_axis',(1.,0.,-6.12303176911189E-17));
#492=DIRECTION('',(0.,-1.,0.));
#493=DIRECTION('',(-0.866025403784439,-0.5,5.30270106023007E-17));
#494=DIRECTION('center_axis',(6.12303176911189E-17,0.,1.));
#495=DIRECTION('ref_axis',(1.,0.,-6.12303176911189E-17));
#496=DIRECTION('',(-0.866025403784439,-0.5,5.30270106023007E-17));
#497=DIRECTION('',(-0.866025403784439,0.5,5.30270106023007E-17));
#498=DIRECTION('center_axis',(-0.5,-0.866025403784439,3.06151588455594E-17));
#499=DIRECTION('ref_axis',(0.866025403784439,-0.5,-5.30270106023007E-17));
#500=DIRECTION('',(0.866025403784439,-0.5,-2.6166776135563E-17));
#501=DIRECTION('',(6.12303176911189E-17,0.,1.));
#502=DIRECTION('center_axis',(1.,0.,-6.12303176911189E-17));
#503=DIRECTION('ref_axis',(0.,1.,0.));
#504=DIRECTION('',(-3.28932137931257E-33,1.,-5.37204689334753E-17));
#505=DIRECTION('',(6.12303176911189E-17,0.,1.));
#506=DIRECTION('center_axis',(0.5,-0.866025403784439,-3.06151588455594E-17));
#507=DIRECTION('ref_axis',(0.866025403784439,0.5,-5.30270106023007E-17));
#508=DIRECTION('',(0.866025403784439,0.5,-7.98872450690383E-17));
#509=DIRECTION('center_axis',(-6.12303176911189E-17,-5.37204689334753E-17,
-1.));
#510=DIRECTION('ref_axis',(3.74915180455534E-33,-1.,6.12303176911189E-17));
#511=DIRECTION('center_axis',(6.12303176911189E-17,0.,1.));
#512=DIRECTION('ref_axis',(0.,1.,0.));
#513=DIRECTION('center_axis',(6.12303176911189E-17,0.,1.));
#514=DIRECTION('ref_axis',(1.,0.,0.));
#515=DIRECTION('center_axis',(6.12303176911189E-17,0.,1.));
#516=DIRECTION('ref_axis',(0.,1.,0.));
#517=DIRECTION('center_axis',(6.12303176911189E-17,0.,1.));
#518=DIRECTION('ref_axis',(0.,1.,0.));
#519=DIRECTION('center_axis',(1.22464679914735E-16,-1.,-7.49855125712043E-33));
#520=DIRECTION('ref_axis',(-1.,-1.22464679914735E-16,0.));
#521=DIRECTION('center_axis',(6.12303176911189E-17,0.,1.));
#522=DIRECTION('ref_axis',(0.,1.,0.));
#523=DIRECTION('center_axis',(6.12303176911189E-17,0.,1.));
#524=DIRECTION('ref_axis',(0.,1.,0.));
#525=DIRECTION('',(-6.12303176911189E-17,0.,-1.));
#526=DIRECTION('center_axis',(6.12303176911189E-17,0.,1.));
#527=DIRECTION('ref_axis',(0.,1.,0.));
#528=DIRECTION('center_axis',(6.12303176911189E-17,0.,1.));
#529=DIRECTION('ref_axis',(0.,1.,0.));
#530=DIRECTION('center_axis',(6.12303176911189E-17,0.,1.));
#531=DIRECTION('ref_axis',(1.,0.,-5.78241158658935E-17));
#532=DIRECTION('center_axis',(1.22464679914735E-16,-1.,-7.49855125712043E-33));
#533=DIRECTION('ref_axis',(-1.,-1.22464679914735E-16,5.78241158658936E-17));
#534=DIRECTION('center_axis',(6.12303176911189E-17,0.,1.));
#535=DIRECTION('ref_axis',(0.,1.,0.));
#536=DIRECTION('center_axis',(6.12303176911189E-17,0.,1.));
#537=DIRECTION('ref_axis',(0.,1.,0.));
#538=DIRECTION('center_axis',(6.12303176911189E-17,0.,1.));
#539=DIRECTION('ref_axis',(0.,1.,0.));
#540=DIRECTION('center_axis',(6.12303176911189E-17,0.,1.));
#541=DIRECTION('ref_axis',(0.,1.,0.));
#542=DIRECTION('',(-6.12303176911189E-17,0.,-1.));
#543=DIRECTION('center_axis',(-6.12303176911189E-17,0.,-1.));
#544=DIRECTION('ref_axis',(0.,1.,0.));
#545=DIRECTION('center_axis',(6.12303176911189E-17,0.,1.));
#546=DIRECTION('ref_axis',(0.,1.,0.));
#547=DIRECTION('',(4.32992327699526E-17,-0.707106781186547,-0.707106781186547));
#548=DIRECTION('center_axis',(-6.12303176911189E-17,0.,-1.));
#549=DIRECTION('ref_axis',(0.,-1.,0.));
#550=DIRECTION('center_axis',(6.12303176911189E-17,0.,1.));
#551=DIRECTION('ref_axis',(0.,1.,0.));
#552=DIRECTION('center_axis',(6.12303176911189E-17,0.,1.));
#553=DIRECTION('ref_axis',(0.,1.,0.));
#554=DIRECTION('center_axis',(6.12303176911189E-17,0.,1.));
#555=DIRECTION('ref_axis',(0.,1.,0.));
#556=DIRECTION('',(-6.12303176911189E-17,0.,-1.));
#557=DIRECTION('center_axis',(-6.12303176911189E-17,0.,-1.));
#558=DIRECTION('ref_axis',(0.,1.,0.));
#559=DIRECTION('center_axis',(6.12303176911189E-17,0.,1.));
#560=DIRECTION('ref_axis',(0.,1.,0.));
#561=DIRECTION('',(4.32992327699524E-17,-0.707106781186547,-0.707106781186548));
#562=DIRECTION('center_axis',(6.12303176911189E-17,0.,1.));
#563=DIRECTION('ref_axis',(0.,1.,0.));
#564=CARTESIAN_POINT('',(0.,0.,0.));
#565=CARTESIAN_POINT('Origin',(0.75,1.29903810567666,-5.));
#566=CARTESIAN_POINT('',(1.5,0.866025403784438,-4.));
#567=CARTESIAN_POINT('',(3.18165566281693E-16,1.73205080756888,-4.));
#568=CARTESIAN_POINT('',(0.41441515603353,1.49278810567666,-4.));
#569=CARTESIAN_POINT('',(1.5,0.866025403784438,-2.));
#570=CARTESIAN_POINT('',(1.5,0.866025403784438,-5.));
#571=CARTESIAN_POINT('',(0.750000000000001,1.29903810567666,-2.));
#572=CARTESIAN_POINT('',(1.5,0.866025403784438,-2.));
#573=CARTESIAN_POINT('',(4.40626201663931E-16,1.73205080756888,-2.));
#574=CARTESIAN_POINT('',(1.5,0.866025403784438,-2.));
#575=CARTESIAN_POINT('',(2.56935248590575E-16,1.73205080756888,-5.));
#576=CARTESIAN_POINT('Origin',(-0.75,1.29903810567666,-5.));
#577=CARTESIAN_POINT('',(-1.5,0.86602540378444,-4.));
#578=CARTESIAN_POINT('',(-0.41441515603353,1.49278810567666,-4.));
#579=CARTESIAN_POINT('',(-0.75,1.29903810567666,-2.));
#580=CARTESIAN_POINT('',(4.40626201663931E-16,1.73205080756888,-2.));
#581=CARTESIAN_POINT('',(-1.5,0.86602540378444,-2.));
#582=CARTESIAN_POINT('',(4.40626201663931E-16,1.73205080756888,-2.));
#583=CARTESIAN_POINT('',(-1.5,0.86602540378444,-5.));
#584=CARTESIAN_POINT('Origin',(-1.5,4.44089209850063E-16,-5.));
#585=CARTESIAN_POINT('',(-1.5,-0.866025403784439,-4.));
#586=CARTESIAN_POINT('',(-1.5,0.775000000000001,-4.));
#587=CARTESIAN_POINT('',(-1.5,3.84592537276713E-16,-2.));
#588=CARTESIAN_POINT('',(-1.5,0.86602540378444,-2.));
#589=CARTESIAN_POINT('',(-1.5,-0.866025403784439,-2.));
#590=CARTESIAN_POINT('',(-1.5,0.86602540378444,-2.));
#591=CARTESIAN_POINT('',(-1.5,-0.866025403784439,-5.));
#592=CARTESIAN_POINT('Origin',(1.48974140683388E-16,0.,-1.56698729810778));
#593=CARTESIAN_POINT('Origin',(1.22460635382238E-16,0.,-2.));
#594=CARTESIAN_POINT('',(1.5,0.,-2.));
#595=CARTESIAN_POINT('Origin',(1.22460635382238E-16,0.,-2.));
#596=CARTESIAN_POINT('',(0.75,-1.29903810567666,-2.));
#597=CARTESIAN_POINT('Origin',(1.22460635382238E-16,0.,-2.));
#598=CARTESIAN_POINT('',(3.06157655254341E-16,-1.5,-2.));
#599=CARTESIAN_POINT('Origin',(1.22460635382238E-16,0.,-2.));
#600=CARTESIAN_POINT('',(1.75487645984538E-16,0.,-1.13397459621556));
#601=CARTESIAN_POINT('',(2.4082265061944E-16,-0.75,-1.56698729810778));
#602=CARTESIAN_POINT('',(-0.75,-1.29903810567666,-2.));
#603=CARTESIAN_POINT('Origin',(1.22460635382238E-16,0.,-2.));
#604=CARTESIAN_POINT('Origin',(1.22460635382238E-16,0.,-2.));
#605=CARTESIAN_POINT('Origin',(1.22460635382238E-16,0.,-2.));
#606=CARTESIAN_POINT('Origin',(6.69494841509799E-17,-3.61663561052134E-17,
-2.));
#607=CARTESIAN_POINT('',(-1.5,-0.866025403784439,-2.));
#608=CARTESIAN_POINT('Origin',(6.69494841509799E-17,-3.61663561052134E-17,
-2.));
#609=CARTESIAN_POINT('Origin',(6.69494841509799E-17,-3.61663561052134E-17,
-2.));
#610=CARTESIAN_POINT('Origin',(6.69494841509799E-17,-3.61663561052134E-17,
-2.));
#611=CARTESIAN_POINT('',(1.5,-0.866025403784439,-2.));
#612=CARTESIAN_POINT('Origin',(6.69494841509799E-17,-3.61663561052134E-17,
-2.));
#613=CARTESIAN_POINT('',(1.5,-0.866025403784439,-2.));
#614=CARTESIAN_POINT('',(1.5,-0.866025403784439,-2.));
#615=CARTESIAN_POINT('',(1.6403111509747E-17,-1.73205080756888,-2.));
#616=CARTESIAN_POINT('Origin',(6.69494841509799E-17,-3.61663561052134E-17,
-2.));
#617=CARTESIAN_POINT('',(1.6403111509747E-17,-1.73205080756888,-2.));
#618=CARTESIAN_POINT('',(1.6403111509747E-17,-1.73205080756888,-2.));
#619=CARTESIAN_POINT('',(-1.5,-0.866025403784439,-2.));
#620=CARTESIAN_POINT('Origin',(-0.75,-1.29903810567666,-5.));
#621=CARTESIAN_POINT('',(-1.06057523872491E-16,-1.73205080756888,-4.));
#622=CARTESIAN_POINT('',(-1.08558484396647,-1.10528810567666,-4.));
#623=CARTESIAN_POINT('',(-1.6728784156361E-16,-1.73205080756888,-5.));
#624=CARTESIAN_POINT('Origin',(1.5,-3.33066907387547E-16,-5.));
#625=CARTESIAN_POINT('',(1.5,-0.866025403784439,-4.));
#626=CARTESIAN_POINT('',(1.5,0.775,-4.));
#627=CARTESIAN_POINT('',(1.5,-0.866025403784439,-5.));
#628=CARTESIAN_POINT('Origin',(0.75,-1.29903810567666,-5.));
#629=CARTESIAN_POINT('',(1.08558484396647,-1.10528810567666,-4.));
#630=CARTESIAN_POINT('Origin',(-5.09844813793449E-33,1.55,-4.));
#631=CARTESIAN_POINT('',(-3.1,-3.7964050773568E-16,-4.));
#632=CARTESIAN_POINT('Origin',(0.,0.,-4.));
#633=CARTESIAN_POINT('Origin',(2.44921270764475E-17,0.,-3.6));
#634=CARTESIAN_POINT('',(4.53118506778021E-16,-3.5,-3.6));
#635=CARTESIAN_POINT('',(-3.5,-4.28626379701574E-16,-3.6));
#636=CARTESIAN_POINT('Origin',(2.44921270764476E-17,0.,-3.6));
#637=CARTESIAN_POINT('Origin',(2.44921270764476E-17,0.,-3.6));
#638=CARTESIAN_POINT('Origin',(-3.1,-3.7964050773568E-16,-3.6));
#639=CARTESIAN_POINT('Origin',(1.34706698920462E-16,0.,-1.8));
#640=CARTESIAN_POINT('',(6.73547650466049E-16,-3.5,0.));
#641=CARTESIAN_POINT('Origin',(2.44921270764476E-16,0.,0.));
#642=CARTESIAN_POINT('',(5.63333078622035E-16,-3.5,-1.8));
#643=CARTESIAN_POINT('Origin',(2.44921270764476E-16,2.85,0.));
#644=CARTESIAN_POINT('',(-2.2,-2.69422295812418E-16,1.36742288499303E-16));
#645=CARTESIAN_POINT('Origin',(2.44921270764476E-16,0.,0.));
#646=CARTESIAN_POINT('Origin',(2.57167334302699E-16,0.,0.2));
#647=CARTESIAN_POINT('',(-2.,-2.44929359829471E-16,0.2));
#648=CARTESIAN_POINT('Origin',(-2.2,-2.69422295812418E-16,0.2));
#649=CARTESIAN_POINT('',(5.0209669413217E-16,-2.,0.2));
#650=CARTESIAN_POINT('Origin',(2.57167334302699E-16,0.,0.2));
#651=CARTESIAN_POINT('Origin',(2.57167334302699E-16,0.,0.2));
#652=CARTESIAN_POINT('Origin',(2.60875595417868E-16,0.,0.2605625));
#653=CARTESIAN_POINT('',(5.09513216362507E-16,-2.,0.321124999999999));
#654=CARTESIAN_POINT('Origin',(2.64583856533036E-16,0.,0.321124999999999));
#655=CARTESIAN_POINT('',(5.05804955247338E-16,-2.,0.2605625));
#656=CARTESIAN_POINT('Origin',(2.76183174840647E-16,0.,0.510562499999999));
#657=CARTESIAN_POINT('',(4.86313047375034E-16,-1.621125,0.699999999999999));
#658=CARTESIAN_POINT('Origin',(2.87782493148259E-16,0.,0.699999999999999));
#659=CARTESIAN_POINT('',(4.9791313186877E-16,-1.8105625,0.510562499999999));
#660=CARTESIAN_POINT('Origin',(2.87782493148259E-16,1.8105625,0.699999999999999));
#661=CARTESIAN_POINT('',(5.32711852977729E-16,-2.,0.699999999999999));
#662=CARTESIAN_POINT('Origin',(2.87782493148259E-16,0.,0.699999999999999));
#663=CARTESIAN_POINT('Origin',(4.38443516722112E-16,0.,3.1605625));
#664=CARTESIAN_POINT('',(8.34033900125437E-16,-2.,5.621125));
#665=CARTESIAN_POINT('Origin',(5.89104540295966E-16,0.,5.621125));
#666=CARTESIAN_POINT('',(6.83372876551583E-16,-2.,3.1605625));
#667=CARTESIAN_POINT('Origin',(6.00703858603577E-16,0.,5.8105625));
#668=CARTESIAN_POINT('',(8.10833731137964E-16,-1.621125,6.));
#669=CARTESIAN_POINT('Origin',(6.12303176911189E-16,0.,6.));
#670=CARTESIAN_POINT('',(8.224338156317E-16,-1.8105625,5.8105625));
#671=CARTESIAN_POINT('Origin',(6.12303176911189E-16,0.8105625,6.));
#672=UNCERTAINTY_MEASURE_WITH_UNIT(LENGTH_MEASURE(0.01),#676,
'DISTANCE_ACCURACY_VALUE',
'Maximum model space distance between geometric entities at asserted c
onnectivities');
#673=UNCERTAINTY_MEASURE_WITH_UNIT(LENGTH_MEASURE(0.01),#676,
'DISTANCE_ACCURACY_VALUE',
'Maximum model space distance between geometric entities at asserted c
onnectivities');
#674=(
GEOMETRIC_REPRESENTATION_CONTEXT(3)
GLOBAL_UNCERTAINTY_ASSIGNED_CONTEXT((#672))
GLOBAL_UNIT_ASSIGNED_CONTEXT((#676,#678,#679))
REPRESENTATION_CONTEXT('','3D')
);
#675=(
GEOMETRIC_REPRESENTATION_CONTEXT(3)
GLOBAL_UNCERTAINTY_ASSIGNED_CONTEXT((#673))
GLOBAL_UNIT_ASSIGNED_CONTEXT((#676,#678,#679))
REPRESENTATION_CONTEXT('','3D')
);
#676=(
LENGTH_UNIT()
NAMED_UNIT(*)
SI_UNIT(.MILLI.,.METRE.)
);
#677=(
LENGTH_UNIT()
NAMED_UNIT(*)
SI_UNIT($,.METRE.)
);
#678=(
NAMED_UNIT(*)
PLANE_ANGLE_UNIT()
SI_UNIT($,.RADIAN.)
);
#679=(
NAMED_UNIT(*)
SI_UNIT($,.STERADIAN.)
SOLID_ANGLE_UNIT()
);
#680=SHAPE_DEFINITION_REPRESENTATION(#681,#682);
#681=PRODUCT_DEFINITION_SHAPE('',$,#684);
#682=SHAPE_REPRESENTATION('',(#396),#674);
#683=PRODUCT_DEFINITION_CONTEXT('part definition',#688,'design');
#684=PRODUCT_DEFINITION('din_en_iso_4762_m4x6',
'din_en_iso_4762_m4x6 v1',#685,#683);
#685=PRODUCT_DEFINITION_FORMATION('',$,#690);
#686=PRODUCT_RELATED_PRODUCT_CATEGORY('din_en_iso_4762_m4x6 v1',
'din_en_iso_4762_m4x6 v1',(#690));
#687=APPLICATION_PROTOCOL_DEFINITION('international standard',
'automotive_design',2009,#688);
#688=APPLICATION_CONTEXT(
'Core Data for Automotive Mechanical Design Process');
#689=PRODUCT_CONTEXT('part definition',#688,'mechanical');
#690=PRODUCT('din_en_iso_4762_m4x6','din_en_iso_4762_m4x6 v1',$,(#689));
#691=PRESENTATION_STYLE_ASSIGNMENT((#692));
#692=SURFACE_STYLE_USAGE(.BOTH.,#693);
#693=SURFACE_SIDE_STYLE('',(#694));
#694=SURFACE_STYLE_FILL_AREA(#695);
#695=FILL_AREA_STYLE('Default',(#696));
#696=FILL_AREA_STYLE_COLOUR('Default',#697);
#697=COLOUR_RGB('Default',0.749019607843137,0.749019607843137,0.749019607843137);
ENDSEC;
END-ISO-10303-21;
