ISO-10303-21;
HEADER;
/* Generated by software containing ST-Developer
 * from STEP Tools, Inc. (www.steptools.com) 
 */

FILE_DESCRIPTION(
/* description */ (''),
/* implementation_level */ '2;1');

FILE_NAME(
/* name */ 'gusset plate v4.step',
/* time_stamp */ '2024-06-14T15:31:11+02:00',
/* author */ (''),
/* organization */ (''),
/* preprocessor_version */ 'ST-DEVELOPER v20',
/* originating_system */ 'Autodesk Translation Framework v13.14.0.145',

/* authorisation */ '');

FILE_SCHEMA (('AUTOMOTIVE_DESIGN { 1 0 10303 214 3 1 1 }'));
ENDSEC;

DATA;
#10=MECHANICAL_DESIGN_GEOMETRIC_PRESENTATION_REPRESENTATION('',(#13,#14),
#1064);
#11=SHAPE_REPRESENTATION_RELATIONSHIP('SRR','None',#1071,#12);
#12=ADVANCED_BREP_SHAPE_REPRESENTATION('',(#15,#16),#1063);
#13=STYLED_ITEM('',(#1080),#15);
#14=STYLED_ITEM('',(#1080),#16);
#15=MANIFOLD_SOLID_BREP('gusset console',#635);
#16=MANIFOLD_SOLID_BREP('gusset',#636);
#17=FACE_BOUND('',#110,.T.);
#18=FACE_BOUND('',#111,.T.);
#19=FACE_BOUND('',#112,.T.);
#20=FACE_BOUND('',#113,.T.);
#21=FACE_BOUND('',#114,.T.);
#22=FACE_BOUND('',#115,.T.);
#23=FACE_BOUND('',#122,.T.);
#24=FACE_BOUND('',#123,.T.);
#25=FACE_BOUND('',#124,.T.);
#26=FACE_BOUND('',#125,.T.);
#27=FACE_BOUND('',#126,.T.);
#28=FACE_BOUND('',#127,.T.);
#29=FACE_BOUND('',#130,.T.);
#30=FACE_BOUND('',#131,.T.);
#31=FACE_BOUND('',#132,.T.);
#32=FACE_BOUND('',#133,.T.);
#33=FACE_BOUND('',#134,.T.);
#34=FACE_BOUND('',#135,.T.);
#35=FACE_BOUND('',#139,.T.);
#36=FACE_BOUND('',#140,.T.);
#37=FACE_BOUND('',#141,.T.);
#38=FACE_BOUND('',#142,.T.);
#39=FACE_BOUND('',#143,.T.);
#40=FACE_BOUND('',#144,.T.);
#41=PLANE('',#689);
#42=PLANE('',#690);
#43=PLANE('',#691);
#44=PLANE('',#693);
#45=PLANE('',#695);
#46=PLANE('',#696);
#47=PLANE('',#698);
#48=PLANE('',#699);
#49=PLANE('',#700);
#50=PLANE('',#701);
#51=PLANE('',#702);
#52=PLANE('',#703);
#53=PLANE('',#704);
#54=PLANE('',#705);
#55=PLANE('',#706);
#56=PLANE('',#707);
#57=PLANE('',#708);
#58=PLANE('',#709);
#59=PLANE('',#710);
#60=PLANE('',#711);
#61=FACE_OUTER_BOUND('',#95,.T.);
#62=FACE_OUTER_BOUND('',#96,.T.);
#63=FACE_OUTER_BOUND('',#97,.T.);
#64=FACE_OUTER_BOUND('',#98,.T.);
#65=FACE_OUTER_BOUND('',#99,.T.);
#66=FACE_OUTER_BOUND('',#100,.T.);
#67=FACE_OUTER_BOUND('',#101,.T.);
#68=FACE_OUTER_BOUND('',#102,.T.);
#69=FACE_OUTER_BOUND('',#103,.T.);
#70=FACE_OUTER_BOUND('',#104,.T.);
#71=FACE_OUTER_BOUND('',#105,.T.);
#72=FACE_OUTER_BOUND('',#106,.T.);
#73=FACE_OUTER_BOUND('',#107,.T.);
#74=FACE_OUTER_BOUND('',#108,.T.);
#75=FACE_OUTER_BOUND('',#109,.T.);
#76=FACE_OUTER_BOUND('',#116,.T.);
#77=FACE_OUTER_BOUND('',#117,.T.);
#78=FACE_OUTER_BOUND('',#118,.T.);
#79=FACE_OUTER_BOUND('',#119,.T.);
#80=FACE_OUTER_BOUND('',#120,.T.);
#81=FACE_OUTER_BOUND('',#121,.T.);
#82=FACE_OUTER_BOUND('',#128,.T.);
#83=FACE_OUTER_BOUND('',#129,.T.);
#84=FACE_OUTER_BOUND('',#136,.T.);
#85=FACE_OUTER_BOUND('',#137,.T.);
#86=FACE_OUTER_BOUND('',#138,.T.);
#87=FACE_OUTER_BOUND('',#145,.T.);
#88=FACE_OUTER_BOUND('',#146,.T.);
#89=FACE_OUTER_BOUND('',#147,.T.);
#90=FACE_OUTER_BOUND('',#148,.T.);
#91=FACE_OUTER_BOUND('',#149,.T.);
#92=FACE_OUTER_BOUND('',#150,.T.);
#93=FACE_OUTER_BOUND('',#151,.T.);
#94=FACE_OUTER_BOUND('',#152,.T.);
#95=EDGE_LOOP('',(#423,#424,#425,#426));
#96=EDGE_LOOP('',(#427,#428,#429,#430));
#97=EDGE_LOOP('',(#431,#432,#433,#434));
#98=EDGE_LOOP('',(#435,#436,#437,#438));
#99=EDGE_LOOP('',(#439,#440,#441,#442));
#100=EDGE_LOOP('',(#443,#444,#445,#446));
#101=EDGE_LOOP('',(#447,#448,#449,#450));
#102=EDGE_LOOP('',(#451,#452,#453,#454));
#103=EDGE_LOOP('',(#455,#456,#457,#458));
#104=EDGE_LOOP('',(#459,#460,#461,#462));
#105=EDGE_LOOP('',(#463,#464,#465,#466));
#106=EDGE_LOOP('',(#467,#468,#469,#470));
#107=EDGE_LOOP('',(#471,#472,#473,#474));
#108=EDGE_LOOP('',(#475,#476,#477,#478));
#109=EDGE_LOOP('',(#479,#480,#481,#482));
#110=EDGE_LOOP('',(#483));
#111=EDGE_LOOP('',(#484));
#112=EDGE_LOOP('',(#485));
#113=EDGE_LOOP('',(#486));
#114=EDGE_LOOP('',(#487));
#115=EDGE_LOOP('',(#488));
#116=EDGE_LOOP('',(#489,#490,#491,#492));
#117=EDGE_LOOP('',(#493,#494,#495,#496));
#118=EDGE_LOOP('',(#497,#498,#499,#500));
#119=EDGE_LOOP('',(#501,#502,#503,#504));
#120=EDGE_LOOP('',(#505,#506,#507,#508));
#121=EDGE_LOOP('',(#509,#510,#511,#512));
#122=EDGE_LOOP('',(#513));
#123=EDGE_LOOP('',(#514));
#124=EDGE_LOOP('',(#515));
#125=EDGE_LOOP('',(#516));
#126=EDGE_LOOP('',(#517));
#127=EDGE_LOOP('',(#518));
#128=EDGE_LOOP('',(#519,#520,#521,#522));
#129=EDGE_LOOP('',(#523,#524,#525,#526));
#130=EDGE_LOOP('',(#527));
#131=EDGE_LOOP('',(#528));
#132=EDGE_LOOP('',(#529));
#133=EDGE_LOOP('',(#530));
#134=EDGE_LOOP('',(#531));
#135=EDGE_LOOP('',(#532));
#136=EDGE_LOOP('',(#533,#534,#535,#536));
#137=EDGE_LOOP('',(#537,#538,#539,#540));
#138=EDGE_LOOP('',(#541,#542,#543,#544));
#139=EDGE_LOOP('',(#545));
#140=EDGE_LOOP('',(#546));
#141=EDGE_LOOP('',(#547));
#142=EDGE_LOOP('',(#548));
#143=EDGE_LOOP('',(#549));
#144=EDGE_LOOP('',(#550));
#145=EDGE_LOOP('',(#551,#552,#553,#554));
#146=EDGE_LOOP('',(#555,#556,#557,#558));
#147=EDGE_LOOP('',(#559,#560,#561,#562));
#148=EDGE_LOOP('',(#563,#564,#565,#566,#567,#568));
#149=EDGE_LOOP('',(#569,#570,#571,#572));
#150=EDGE_LOOP('',(#573,#574,#575,#576));
#151=EDGE_LOOP('',(#577,#578,#579,#580));
#152=EDGE_LOOP('',(#581,#582,#583,#584,#585,#586));
#153=LINE('',#897,#207);
#154=LINE('',#903,#208);
#155=LINE('',#909,#209);
#156=LINE('',#915,#210);
#157=LINE('',#921,#211);
#158=LINE('',#927,#212);
#159=LINE('',#933,#213);
#160=LINE('',#939,#214);
#161=LINE('',#945,#215);
#162=LINE('',#951,#216);
#163=LINE('',#957,#217);
#164=LINE('',#963,#218);
#165=LINE('',#968,#219);
#166=LINE('',#972,#220);
#167=LINE('',#976,#221);
#168=LINE('',#978,#222);
#169=LINE('',#980,#223);
#170=LINE('',#981,#224);
#171=LINE('',#984,#225);
#172=LINE('',#986,#226);
#173=LINE('',#987,#227);
#174=LINE('',#989,#228);
#175=LINE('',#992,#229);
#176=LINE('',#995,#230);
#177=LINE('',#999,#231);
#178=LINE('',#1000,#232);
#179=LINE('',#1002,#233);
#180=LINE('',#1004,#234);
#181=LINE('',#1008,#235);
#182=LINE('',#1010,#236);
#183=LINE('',#1011,#237);
#184=LINE('',#1014,#238);
#185=LINE('',#1015,#239);
#186=LINE('',#1018,#240);
#187=LINE('',#1019,#241);
#188=LINE('',#1021,#242);
#189=LINE('',#1026,#243);
#190=LINE('',#1028,#244);
#191=LINE('',#1030,#245);
#192=LINE('',#1031,#246);
#193=LINE('',#1035,#247);
#194=LINE('',#1037,#248);
#195=LINE('',#1039,#249);
#196=LINE('',#1040,#250);
#197=LINE('',#1043,#251);
#198=LINE('',#1045,#252);
#199=LINE('',#1046,#253);
#200=LINE('',#1049,#254);
#201=LINE('',#1050,#255);
#202=LINE('',#1051,#256);
#203=LINE('',#1053,#257);
#204=LINE('',#1056,#258);
#205=LINE('',#1057,#259);
#206=LINE('',#1059,#260);
#207=VECTOR('',#718,6.75);
#208=VECTOR('',#725,6.75);
#209=VECTOR('',#732,6.75);
#210=VECTOR('',#739,6.75);
#211=VECTOR('',#746,6.75);
#212=VECTOR('',#753,6.75);
#213=VECTOR('',#760,6.75);
#214=VECTOR('',#767,6.75);
#215=VECTOR('',#774,6.75);
#216=VECTOR('',#781,6.75);
#217=VECTOR('',#788,6.75);
#218=VECTOR('',#795,6.75);
#219=VECTOR('',#800,10.);
#220=VECTOR('',#803,10.);
#221=VECTOR('',#808,10.);
#222=VECTOR('',#809,5.76);
#223=VECTOR('',#810,10.);
#224=VECTOR('',#811,5.76);
#225=VECTOR('',#814,10.);
#226=VECTOR('',#815,5.76);
#227=VECTOR('',#816,10.);
#228=VECTOR('',#819,10.);
#229=VECTOR('',#822,10.);
#230=VECTOR('',#825,10.);
#231=VECTOR('',#830,10.);
#232=VECTOR('',#831,10.);
#233=VECTOR('',#834,10.);
#234=VECTOR('',#837,10.);
#235=VECTOR('',#842,10.);
#236=VECTOR('',#843,10.);
#237=VECTOR('',#844,10.);
#238=VECTOR('',#847,10.);
#239=VECTOR('',#848,10.);
#240=VECTOR('',#851,10.);
#241=VECTOR('',#852,10.);
#242=VECTOR('',#855,10.);
#243=VECTOR('',#860,10.);
#244=VECTOR('',#861,10.);
#245=VECTOR('',#862,10.);
#246=VECTOR('',#863,10.);
#247=VECTOR('',#866,10.);
#248=VECTOR('',#867,10.);
#249=VECTOR('',#868,10.);
#250=VECTOR('',#869,10.);
#251=VECTOR('',#872,10.);
#252=VECTOR('',#873,10.);
#253=VECTOR('',#874,10.);
#254=VECTOR('',#877,10.);
#255=VECTOR('',#878,10.);
#256=VECTOR('',#879,10.);
#257=VECTOR('',#882,10.);
#258=VECTOR('',#885,10.);
#259=VECTOR('',#886,10.);
#260=VECTOR('',#889,10.);
#261=CIRCLE('',#651,6.75);
#262=CIRCLE('',#652,6.75);
#263=CIRCLE('',#654,6.75);
#264=CIRCLE('',#655,6.75);
#265=CIRCLE('',#657,6.75);
#266=CIRCLE('',#658,6.75);
#267=CIRCLE('',#660,6.75);
#268=CIRCLE('',#661,6.75);
#269=CIRCLE('',#663,6.75);
#270=CIRCLE('',#664,6.75);
#271=CIRCLE('',#666,6.75);
#272=CIRCLE('',#667,6.75);
#273=CIRCLE('',#669,6.75);
#274=CIRCLE('',#670,6.75);
#275=CIRCLE('',#672,6.75);
#276=CIRCLE('',#673,6.75);
#277=CIRCLE('',#675,6.75);
#278=CIRCLE('',#676,6.75);
#279=CIRCLE('',#678,6.75);
#280=CIRCLE('',#679,6.75);
#281=CIRCLE('',#681,6.75);
#282=CIRCLE('',#682,6.75);
#283=CIRCLE('',#684,6.75);
#284=CIRCLE('',#685,6.75);
#285=CIRCLE('',#687,4.);
#286=CIRCLE('',#688,4.);
#287=CIRCLE('',#692,8.);
#288=CIRCLE('',#694,8.);
#289=VERTEX_POINT('',#894);
#290=VERTEX_POINT('',#896);
#291=VERTEX_POINT('',#900);
#292=VERTEX_POINT('',#902);
#293=VERTEX_POINT('',#906);
#294=VERTEX_POINT('',#908);
#295=VERTEX_POINT('',#912);
#296=VERTEX_POINT('',#914);
#297=VERTEX_POINT('',#918);
#298=VERTEX_POINT('',#920);
#299=VERTEX_POINT('',#924);
#300=VERTEX_POINT('',#926);
#301=VERTEX_POINT('',#930);
#302=VERTEX_POINT('',#932);
#303=VERTEX_POINT('',#936);
#304=VERTEX_POINT('',#938);
#305=VERTEX_POINT('',#942);
#306=VERTEX_POINT('',#944);
#307=VERTEX_POINT('',#948);
#308=VERTEX_POINT('',#950);
#309=VERTEX_POINT('',#954);
#310=VERTEX_POINT('',#956);
#311=VERTEX_POINT('',#960);
#312=VERTEX_POINT('',#962);
#313=VERTEX_POINT('',#966);
#314=VERTEX_POINT('',#967);
#315=VERTEX_POINT('',#969);
#316=VERTEX_POINT('',#971);
#317=VERTEX_POINT('',#975);
#318=VERTEX_POINT('',#977);
#319=VERTEX_POINT('',#979);
#320=VERTEX_POINT('',#983);
#321=VERTEX_POINT('',#985);
#322=VERTEX_POINT('',#990);
#323=VERTEX_POINT('',#994);
#324=VERTEX_POINT('',#998);
#325=VERTEX_POINT('',#1007);
#326=VERTEX_POINT('',#1009);
#327=VERTEX_POINT('',#1013);
#328=VERTEX_POINT('',#1017);
#329=VERTEX_POINT('',#1024);
#330=VERTEX_POINT('',#1025);
#331=VERTEX_POINT('',#1027);
#332=VERTEX_POINT('',#1029);
#333=VERTEX_POINT('',#1033);
#334=VERTEX_POINT('',#1034);
#335=VERTEX_POINT('',#1036);
#336=VERTEX_POINT('',#1038);
#337=VERTEX_POINT('',#1042);
#338=VERTEX_POINT('',#1044);
#339=VERTEX_POINT('',#1048);
#340=VERTEX_POINT('',#1055);
#341=EDGE_CURVE('',#289,#289,#261,.T.);
#342=EDGE_CURVE('',#289,#290,#153,.T.);
#343=EDGE_CURVE('',#290,#290,#262,.T.);
#344=EDGE_CURVE('',#291,#291,#263,.T.);
#345=EDGE_CURVE('',#291,#292,#154,.T.);
#346=EDGE_CURVE('',#292,#292,#264,.T.);
#347=EDGE_CURVE('',#293,#293,#265,.T.);
#348=EDGE_CURVE('',#293,#294,#155,.T.);
#349=EDGE_CURVE('',#294,#294,#266,.T.);
#350=EDGE_CURVE('',#295,#295,#267,.T.);
#351=EDGE_CURVE('',#295,#296,#156,.T.);
#352=EDGE_CURVE('',#296,#296,#268,.T.);
#353=EDGE_CURVE('',#297,#297,#269,.T.);
#354=EDGE_CURVE('',#297,#298,#157,.T.);
#355=EDGE_CURVE('',#298,#298,#270,.T.);
#356=EDGE_CURVE('',#299,#299,#271,.T.);
#357=EDGE_CURVE('',#299,#300,#158,.T.);
#358=EDGE_CURVE('',#300,#300,#272,.T.);
#359=EDGE_CURVE('',#301,#301,#273,.T.);
#360=EDGE_CURVE('',#301,#302,#159,.T.);
#361=EDGE_CURVE('',#302,#302,#274,.T.);
#362=EDGE_CURVE('',#303,#303,#275,.T.);
#363=EDGE_CURVE('',#303,#304,#160,.T.);
#364=EDGE_CURVE('',#304,#304,#276,.T.);
#365=EDGE_CURVE('',#305,#305,#277,.T.);
#366=EDGE_CURVE('',#305,#306,#161,.T.);
#367=EDGE_CURVE('',#306,#306,#278,.T.);
#368=EDGE_CURVE('',#307,#307,#279,.T.);
#369=EDGE_CURVE('',#307,#308,#162,.T.);
#370=EDGE_CURVE('',#308,#308,#280,.T.);
#371=EDGE_CURVE('',#309,#309,#281,.T.);
#372=EDGE_CURVE('',#309,#310,#163,.T.);
#373=EDGE_CURVE('',#310,#310,#282,.T.);
#374=EDGE_CURVE('',#311,#311,#283,.T.);
#375=EDGE_CURVE('',#311,#312,#164,.T.);
#376=EDGE_CURVE('',#312,#312,#284,.T.);
#377=EDGE_CURVE('',#313,#314,#165,.T.);
#378=EDGE_CURVE('',#313,#315,#285,.T.);
#379=EDGE_CURVE('',#316,#315,#166,.T.);
#380=EDGE_CURVE('',#316,#314,#286,.T.);
#381=EDGE_CURVE('',#314,#317,#167,.T.);
#382=EDGE_CURVE('',#317,#318,#168,.T.);
#383=EDGE_CURVE('',#318,#319,#169,.T.);
#384=EDGE_CURVE('',#314,#319,#170,.T.);
#385=EDGE_CURVE('',#317,#320,#171,.T.);
#386=EDGE_CURVE('',#320,#321,#172,.T.);
#387=EDGE_CURVE('',#321,#318,#173,.T.);
#388=EDGE_CURVE('',#320,#313,#174,.T.);
#389=EDGE_CURVE('',#322,#320,#287,.T.);
#390=EDGE_CURVE('',#315,#322,#175,.T.);
#391=EDGE_CURVE('',#323,#316,#176,.T.);
#392=EDGE_CURVE('',#323,#317,#288,.T.);
#393=EDGE_CURVE('',#324,#313,#177,.T.);
#394=EDGE_CURVE('',#321,#324,#178,.T.);
#395=EDGE_CURVE('',#319,#324,#179,.T.);
#396=EDGE_CURVE('',#322,#323,#180,.T.);
#397=EDGE_CURVE('',#325,#316,#181,.T.);
#398=EDGE_CURVE('',#326,#325,#182,.T.);
#399=EDGE_CURVE('',#323,#326,#183,.T.);
#400=EDGE_CURVE('',#315,#327,#184,.T.);
#401=EDGE_CURVE('',#327,#325,#185,.T.);
#402=EDGE_CURVE('',#328,#322,#186,.T.);
#403=EDGE_CURVE('',#328,#327,#187,.T.);
#404=EDGE_CURVE('',#326,#328,#188,.T.);
#405=EDGE_CURVE('',#329,#330,#189,.T.);
#406=EDGE_CURVE('',#331,#329,#190,.T.);
#407=EDGE_CURVE('',#332,#331,#191,.T.);
#408=EDGE_CURVE('',#330,#332,#192,.T.);
#409=EDGE_CURVE('',#333,#334,#193,.T.);
#410=EDGE_CURVE('',#335,#333,#194,.T.);
#411=EDGE_CURVE('',#336,#335,#195,.T.);
#412=EDGE_CURVE('',#334,#336,#196,.T.);
#413=EDGE_CURVE('',#337,#336,#197,.T.);
#414=EDGE_CURVE('',#337,#338,#198,.T.);
#415=EDGE_CURVE('',#334,#338,#199,.T.);
#416=EDGE_CURVE('',#331,#339,#200,.T.);
#417=EDGE_CURVE('',#339,#337,#201,.T.);
#418=EDGE_CURVE('',#332,#335,#202,.T.);
#419=EDGE_CURVE('',#333,#330,#203,.T.);
#420=EDGE_CURVE('',#340,#329,#204,.T.);
#421=EDGE_CURVE('',#339,#340,#205,.T.);
#422=EDGE_CURVE('',#338,#340,#206,.T.);
#423=ORIENTED_EDGE('',*,*,#341,.F.);
#424=ORIENTED_EDGE('',*,*,#342,.T.);
#425=ORIENTED_EDGE('',*,*,#343,.F.);
#426=ORIENTED_EDGE('',*,*,#342,.F.);
#427=ORIENTED_EDGE('',*,*,#344,.F.);
#428=ORIENTED_EDGE('',*,*,#345,.T.);
#429=ORIENTED_EDGE('',*,*,#346,.F.);
#430=ORIENTED_EDGE('',*,*,#345,.F.);
#431=ORIENTED_EDGE('',*,*,#347,.F.);
#432=ORIENTED_EDGE('',*,*,#348,.T.);
#433=ORIENTED_EDGE('',*,*,#349,.F.);
#434=ORIENTED_EDGE('',*,*,#348,.F.);
#435=ORIENTED_EDGE('',*,*,#350,.F.);
#436=ORIENTED_EDGE('',*,*,#351,.T.);
#437=ORIENTED_EDGE('',*,*,#352,.F.);
#438=ORIENTED_EDGE('',*,*,#351,.F.);
#439=ORIENTED_EDGE('',*,*,#353,.F.);
#440=ORIENTED_EDGE('',*,*,#354,.T.);
#441=ORIENTED_EDGE('',*,*,#355,.F.);
#442=ORIENTED_EDGE('',*,*,#354,.F.);
#443=ORIENTED_EDGE('',*,*,#356,.F.);
#444=ORIENTED_EDGE('',*,*,#357,.T.);
#445=ORIENTED_EDGE('',*,*,#358,.F.);
#446=ORIENTED_EDGE('',*,*,#357,.F.);
#447=ORIENTED_EDGE('',*,*,#359,.F.);
#448=ORIENTED_EDGE('',*,*,#360,.T.);
#449=ORIENTED_EDGE('',*,*,#361,.F.);
#450=ORIENTED_EDGE('',*,*,#360,.F.);
#451=ORIENTED_EDGE('',*,*,#362,.F.);
#452=ORIENTED_EDGE('',*,*,#363,.T.);
#453=ORIENTED_EDGE('',*,*,#364,.F.);
#454=ORIENTED_EDGE('',*,*,#363,.F.);
#455=ORIENTED_EDGE('',*,*,#365,.F.);
#456=ORIENTED_EDGE('',*,*,#366,.T.);
#457=ORIENTED_EDGE('',*,*,#367,.F.);
#458=ORIENTED_EDGE('',*,*,#366,.F.);
#459=ORIENTED_EDGE('',*,*,#368,.F.);
#460=ORIENTED_EDGE('',*,*,#369,.T.);
#461=ORIENTED_EDGE('',*,*,#370,.F.);
#462=ORIENTED_EDGE('',*,*,#369,.F.);
#463=ORIENTED_EDGE('',*,*,#371,.F.);
#464=ORIENTED_EDGE('',*,*,#372,.T.);
#465=ORIENTED_EDGE('',*,*,#373,.F.);
#466=ORIENTED_EDGE('',*,*,#372,.F.);
#467=ORIENTED_EDGE('',*,*,#374,.F.);
#468=ORIENTED_EDGE('',*,*,#375,.T.);
#469=ORIENTED_EDGE('',*,*,#376,.F.);
#470=ORIENTED_EDGE('',*,*,#375,.F.);
#471=ORIENTED_EDGE('',*,*,#377,.F.);
#472=ORIENTED_EDGE('',*,*,#378,.T.);
#473=ORIENTED_EDGE('',*,*,#379,.F.);
#474=ORIENTED_EDGE('',*,*,#380,.T.);
#475=ORIENTED_EDGE('',*,*,#381,.T.);
#476=ORIENTED_EDGE('',*,*,#382,.T.);
#477=ORIENTED_EDGE('',*,*,#383,.T.);
#478=ORIENTED_EDGE('',*,*,#384,.F.);
#479=ORIENTED_EDGE('',*,*,#385,.T.);
#480=ORIENTED_EDGE('',*,*,#386,.T.);
#481=ORIENTED_EDGE('',*,*,#387,.T.);
#482=ORIENTED_EDGE('',*,*,#382,.F.);
#483=ORIENTED_EDGE('',*,*,#341,.T.);
#484=ORIENTED_EDGE('',*,*,#344,.T.);
#485=ORIENTED_EDGE('',*,*,#347,.T.);
#486=ORIENTED_EDGE('',*,*,#350,.T.);
#487=ORIENTED_EDGE('',*,*,#353,.T.);
#488=ORIENTED_EDGE('',*,*,#356,.T.);
#489=ORIENTED_EDGE('',*,*,#388,.F.);
#490=ORIENTED_EDGE('',*,*,#389,.F.);
#491=ORIENTED_EDGE('',*,*,#390,.F.);
#492=ORIENTED_EDGE('',*,*,#378,.F.);
#493=ORIENTED_EDGE('',*,*,#381,.F.);
#494=ORIENTED_EDGE('',*,*,#380,.F.);
#495=ORIENTED_EDGE('',*,*,#391,.F.);
#496=ORIENTED_EDGE('',*,*,#392,.T.);
#497=ORIENTED_EDGE('',*,*,#388,.T.);
#498=ORIENTED_EDGE('',*,*,#393,.F.);
#499=ORIENTED_EDGE('',*,*,#394,.F.);
#500=ORIENTED_EDGE('',*,*,#386,.F.);
#501=ORIENTED_EDGE('',*,*,#387,.F.);
#502=ORIENTED_EDGE('',*,*,#394,.T.);
#503=ORIENTED_EDGE('',*,*,#395,.F.);
#504=ORIENTED_EDGE('',*,*,#383,.F.);
#505=ORIENTED_EDGE('',*,*,#385,.F.);
#506=ORIENTED_EDGE('',*,*,#392,.F.);
#507=ORIENTED_EDGE('',*,*,#396,.F.);
#508=ORIENTED_EDGE('',*,*,#389,.T.);
#509=ORIENTED_EDGE('',*,*,#377,.T.);
#510=ORIENTED_EDGE('',*,*,#384,.T.);
#511=ORIENTED_EDGE('',*,*,#395,.T.);
#512=ORIENTED_EDGE('',*,*,#393,.T.);
#513=ORIENTED_EDGE('',*,*,#343,.T.);
#514=ORIENTED_EDGE('',*,*,#346,.T.);
#515=ORIENTED_EDGE('',*,*,#349,.T.);
#516=ORIENTED_EDGE('',*,*,#352,.T.);
#517=ORIENTED_EDGE('',*,*,#355,.T.);
#518=ORIENTED_EDGE('',*,*,#358,.T.);
#519=ORIENTED_EDGE('',*,*,#391,.T.);
#520=ORIENTED_EDGE('',*,*,#397,.F.);
#521=ORIENTED_EDGE('',*,*,#398,.F.);
#522=ORIENTED_EDGE('',*,*,#399,.F.);
#523=ORIENTED_EDGE('',*,*,#379,.T.);
#524=ORIENTED_EDGE('',*,*,#400,.T.);
#525=ORIENTED_EDGE('',*,*,#401,.T.);
#526=ORIENTED_EDGE('',*,*,#397,.T.);
#527=ORIENTED_EDGE('',*,*,#361,.T.);
#528=ORIENTED_EDGE('',*,*,#364,.T.);
#529=ORIENTED_EDGE('',*,*,#367,.T.);
#530=ORIENTED_EDGE('',*,*,#370,.T.);
#531=ORIENTED_EDGE('',*,*,#373,.T.);
#532=ORIENTED_EDGE('',*,*,#376,.T.);
#533=ORIENTED_EDGE('',*,*,#390,.T.);
#534=ORIENTED_EDGE('',*,*,#402,.F.);
#535=ORIENTED_EDGE('',*,*,#403,.T.);
#536=ORIENTED_EDGE('',*,*,#400,.F.);
#537=ORIENTED_EDGE('',*,*,#404,.F.);
#538=ORIENTED_EDGE('',*,*,#398,.T.);
#539=ORIENTED_EDGE('',*,*,#401,.F.);
#540=ORIENTED_EDGE('',*,*,#403,.F.);
#541=ORIENTED_EDGE('',*,*,#396,.T.);
#542=ORIENTED_EDGE('',*,*,#399,.T.);
#543=ORIENTED_EDGE('',*,*,#404,.T.);
#544=ORIENTED_EDGE('',*,*,#402,.T.);
#545=ORIENTED_EDGE('',*,*,#359,.T.);
#546=ORIENTED_EDGE('',*,*,#362,.T.);
#547=ORIENTED_EDGE('',*,*,#365,.T.);
#548=ORIENTED_EDGE('',*,*,#368,.T.);
#549=ORIENTED_EDGE('',*,*,#371,.T.);
#550=ORIENTED_EDGE('',*,*,#374,.T.);
#551=ORIENTED_EDGE('',*,*,#405,.F.);
#552=ORIENTED_EDGE('',*,*,#406,.F.);
#553=ORIENTED_EDGE('',*,*,#407,.F.);
#554=ORIENTED_EDGE('',*,*,#408,.F.);
#555=ORIENTED_EDGE('',*,*,#409,.F.);
#556=ORIENTED_EDGE('',*,*,#410,.F.);
#557=ORIENTED_EDGE('',*,*,#411,.F.);
#558=ORIENTED_EDGE('',*,*,#412,.F.);
#559=ORIENTED_EDGE('',*,*,#412,.T.);
#560=ORIENTED_EDGE('',*,*,#413,.F.);
#561=ORIENTED_EDGE('',*,*,#414,.T.);
#562=ORIENTED_EDGE('',*,*,#415,.F.);
#563=ORIENTED_EDGE('',*,*,#407,.T.);
#564=ORIENTED_EDGE('',*,*,#416,.T.);
#565=ORIENTED_EDGE('',*,*,#417,.T.);
#566=ORIENTED_EDGE('',*,*,#413,.T.);
#567=ORIENTED_EDGE('',*,*,#411,.T.);
#568=ORIENTED_EDGE('',*,*,#418,.F.);
#569=ORIENTED_EDGE('',*,*,#408,.T.);
#570=ORIENTED_EDGE('',*,*,#418,.T.);
#571=ORIENTED_EDGE('',*,*,#410,.T.);
#572=ORIENTED_EDGE('',*,*,#419,.T.);
#573=ORIENTED_EDGE('',*,*,#406,.T.);
#574=ORIENTED_EDGE('',*,*,#420,.F.);
#575=ORIENTED_EDGE('',*,*,#421,.F.);
#576=ORIENTED_EDGE('',*,*,#416,.F.);
#577=ORIENTED_EDGE('',*,*,#421,.T.);
#578=ORIENTED_EDGE('',*,*,#422,.F.);
#579=ORIENTED_EDGE('',*,*,#414,.F.);
#580=ORIENTED_EDGE('',*,*,#417,.F.);
#581=ORIENTED_EDGE('',*,*,#405,.T.);
#582=ORIENTED_EDGE('',*,*,#419,.F.);
#583=ORIENTED_EDGE('',*,*,#409,.T.);
#584=ORIENTED_EDGE('',*,*,#415,.T.);
#585=ORIENTED_EDGE('',*,*,#422,.T.);
#586=ORIENTED_EDGE('',*,*,#420,.T.);
#587=CYLINDRICAL_SURFACE('',#650,6.75);
#588=CYLINDRICAL_SURFACE('',#653,6.75);
#589=CYLINDRICAL_SURFACE('',#656,6.75);
#590=CYLINDRICAL_SURFACE('',#659,6.75);
#591=CYLINDRICAL_SURFACE('',#662,6.75);
#592=CYLINDRICAL_SURFACE('',#665,6.75);
#593=CYLINDRICAL_SURFACE('',#668,6.75);
#594=CYLINDRICAL_SURFACE('',#671,6.75);
#595=CYLINDRICAL_SURFACE('',#674,6.75);
#596=CYLINDRICAL_SURFACE('',#677,6.75);
#597=CYLINDRICAL_SURFACE('',#680,6.75);
#598=CYLINDRICAL_SURFACE('',#683,6.75);
#599=CYLINDRICAL_SURFACE('',#686,4.);
#600=CYLINDRICAL_SURFACE('',#697,8.);
#601=ADVANCED_FACE('',(#61),#587,.F.);
#602=ADVANCED_FACE('',(#62),#588,.F.);
#603=ADVANCED_FACE('',(#63),#589,.F.);
#604=ADVANCED_FACE('',(#64),#590,.F.);
#605=ADVANCED_FACE('',(#65),#591,.F.);
#606=ADVANCED_FACE('',(#66),#592,.F.);
#607=ADVANCED_FACE('',(#67),#593,.F.);
#608=ADVANCED_FACE('',(#68),#594,.F.);
#609=ADVANCED_FACE('',(#69),#595,.F.);
#610=ADVANCED_FACE('',(#70),#596,.F.);
#611=ADVANCED_FACE('',(#71),#597,.F.);
#612=ADVANCED_FACE('',(#72),#598,.F.);
#613=ADVANCED_FACE('',(#73),#599,.F.);
#614=ADVANCED_FACE('',(#74),#41,.T.);
#615=ADVANCED_FACE('',(#75,#17,#18,#19,#20,#21,#22),#42,.T.);
#616=ADVANCED_FACE('',(#76),#43,.T.);
#617=ADVANCED_FACE('',(#77),#44,.T.);
#618=ADVANCED_FACE('',(#78),#45,.T.);
#619=ADVANCED_FACE('',(#79),#46,.T.);
#620=ADVANCED_FACE('',(#80),#600,.T.);
#621=ADVANCED_FACE('',(#81,#23,#24,#25,#26,#27,#28),#47,.T.);
#622=ADVANCED_FACE('',(#82),#48,.T.);
#623=ADVANCED_FACE('',(#83,#29,#30,#31,#32,#33,#34),#49,.T.);
#624=ADVANCED_FACE('',(#84),#50,.T.);
#625=ADVANCED_FACE('',(#85),#51,.T.);
#626=ADVANCED_FACE('',(#86,#35,#36,#37,#38,#39,#40),#52,.F.);
#627=ADVANCED_FACE('',(#87),#53,.F.);
#628=ADVANCED_FACE('',(#88),#54,.F.);
#629=ADVANCED_FACE('',(#89),#55,.T.);
#630=ADVANCED_FACE('',(#90),#56,.T.);
#631=ADVANCED_FACE('',(#91),#57,.T.);
#632=ADVANCED_FACE('',(#92),#58,.T.);
#633=ADVANCED_FACE('',(#93),#59,.T.);
#634=ADVANCED_FACE('',(#94),#60,.T.);
#635=CLOSED_SHELL('',(#601,#602,#603,#604,#605,#606,#607,#608,#609,#610,
#611,#612,#613,#614,#615,#616,#617,#618,#619,#620,#621,#622,#623,#624,#625,
#626));
#636=CLOSED_SHELL('',(#627,#628,#629,#630,#631,#632,#633,#634));
#637=DERIVED_UNIT_ELEMENT(#639,1.);
#638=DERIVED_UNIT_ELEMENT(#1066,-3.);
#639=(
MASS_UNIT()
NAMED_UNIT(*)
SI_UNIT(.KILO.,.GRAM.)
);
#640=DERIVED_UNIT((#637,#638));
#641=MEASURE_REPRESENTATION_ITEM('density measure',
POSITIVE_RATIO_MEASURE(7850.),#640);
#642=PROPERTY_DEFINITION_REPRESENTATION(#647,#644);
#643=PROPERTY_DEFINITION_REPRESENTATION(#648,#645);
#644=REPRESENTATION('material name',(#646),#1063);
#645=REPRESENTATION('density',(#641),#1063);
#646=DESCRIPTIVE_REPRESENTATION_ITEM('Steel','Steel');
#647=PROPERTY_DEFINITION('material property','material name',#1073);
#648=PROPERTY_DEFINITION('material property','density of part',#1073);
#649=AXIS2_PLACEMENT_3D('',#892,#712,#713);
#650=AXIS2_PLACEMENT_3D('',#893,#714,#715);
#651=AXIS2_PLACEMENT_3D('',#895,#716,#717);
#652=AXIS2_PLACEMENT_3D('',#898,#719,#720);
#653=AXIS2_PLACEMENT_3D('',#899,#721,#722);
#654=AXIS2_PLACEMENT_3D('',#901,#723,#724);
#655=AXIS2_PLACEMENT_3D('',#904,#726,#727);
#656=AXIS2_PLACEMENT_3D('',#905,#728,#729);
#657=AXIS2_PLACEMENT_3D('',#907,#730,#731);
#658=AXIS2_PLACEMENT_3D('',#910,#733,#734);
#659=AXIS2_PLACEMENT_3D('',#911,#735,#736);
#660=AXIS2_PLACEMENT_3D('',#913,#737,#738);
#661=AXIS2_PLACEMENT_3D('',#916,#740,#741);
#662=AXIS2_PLACEMENT_3D('',#917,#742,#743);
#663=AXIS2_PLACEMENT_3D('',#919,#744,#745);
#664=AXIS2_PLACEMENT_3D('',#922,#747,#748);
#665=AXIS2_PLACEMENT_3D('',#923,#749,#750);
#666=AXIS2_PLACEMENT_3D('',#925,#751,#752);
#667=AXIS2_PLACEMENT_3D('',#928,#754,#755);
#668=AXIS2_PLACEMENT_3D('',#929,#756,#757);
#669=AXIS2_PLACEMENT_3D('',#931,#758,#759);
#670=AXIS2_PLACEMENT_3D('',#934,#761,#762);
#671=AXIS2_PLACEMENT_3D('',#935,#763,#764);
#672=AXIS2_PLACEMENT_3D('',#937,#765,#766);
#673=AXIS2_PLACEMENT_3D('',#940,#768,#769);
#674=AXIS2_PLACEMENT_3D('',#941,#770,#771);
#675=AXIS2_PLACEMENT_3D('',#943,#772,#773);
#676=AXIS2_PLACEMENT_3D('',#946,#775,#776);
#677=AXIS2_PLACEMENT_3D('',#947,#777,#778);
#678=AXIS2_PLACEMENT_3D('',#949,#779,#780);
#679=AXIS2_PLACEMENT_3D('',#952,#782,#783);
#680=AXIS2_PLACEMENT_3D('',#953,#784,#785);
#681=AXIS2_PLACEMENT_3D('',#955,#786,#787);
#682=AXIS2_PLACEMENT_3D('',#958,#789,#790);
#683=AXIS2_PLACEMENT_3D('',#959,#791,#792);
#684=AXIS2_PLACEMENT_3D('',#961,#793,#794);
#685=AXIS2_PLACEMENT_3D('',#964,#796,#797);
#686=AXIS2_PLACEMENT_3D('',#965,#798,#799);
#687=AXIS2_PLACEMENT_3D('',#970,#801,#802);
#688=AXIS2_PLACEMENT_3D('',#973,#804,#805);
#689=AXIS2_PLACEMENT_3D('',#974,#806,#807);
#690=AXIS2_PLACEMENT_3D('',#982,#812,#813);
#691=AXIS2_PLACEMENT_3D('',#988,#817,#818);
#692=AXIS2_PLACEMENT_3D('',#991,#820,#821);
#693=AXIS2_PLACEMENT_3D('',#993,#823,#824);
#694=AXIS2_PLACEMENT_3D('',#996,#826,#827);
#695=AXIS2_PLACEMENT_3D('',#997,#828,#829);
#696=AXIS2_PLACEMENT_3D('',#1001,#832,#833);
#697=AXIS2_PLACEMENT_3D('',#1003,#835,#836);
#698=AXIS2_PLACEMENT_3D('',#1005,#838,#839);
#699=AXIS2_PLACEMENT_3D('',#1006,#840,#841);
#700=AXIS2_PLACEMENT_3D('',#1012,#845,#846);
#701=AXIS2_PLACEMENT_3D('',#1016,#849,#850);
#702=AXIS2_PLACEMENT_3D('',#1020,#853,#854);
#703=AXIS2_PLACEMENT_3D('',#1022,#856,#857);
#704=AXIS2_PLACEMENT_3D('',#1023,#858,#859);
#705=AXIS2_PLACEMENT_3D('',#1032,#864,#865);
#706=AXIS2_PLACEMENT_3D('',#1041,#870,#871);
#707=AXIS2_PLACEMENT_3D('',#1047,#875,#876);
#708=AXIS2_PLACEMENT_3D('',#1052,#880,#881);
#709=AXIS2_PLACEMENT_3D('',#1054,#883,#884);
#710=AXIS2_PLACEMENT_3D('',#1058,#887,#888);
#711=AXIS2_PLACEMENT_3D('',#1060,#890,#891);
#712=DIRECTION('axis',(0.,0.,1.));
#713=DIRECTION('refdir',(1.,0.,0.));
#714=DIRECTION('center_axis',(0.,0.,1.));
#715=DIRECTION('ref_axis',(-1.,0.,0.));
#716=DIRECTION('center_axis',(0.,-6.57573564644721E-17,1.));
#717=DIRECTION('ref_axis',(-1.,0.,0.));
#718=DIRECTION('',(0.,0.,1.));
#719=DIRECTION('center_axis',(0.,-6.12323399573677E-17,-1.));
#720=DIRECTION('ref_axis',(-1.,0.,0.));
#721=DIRECTION('center_axis',(0.,0.,1.));
#722=DIRECTION('ref_axis',(-1.,0.,0.));
#723=DIRECTION('center_axis',(0.,-6.57573564644721E-17,1.));
#724=DIRECTION('ref_axis',(-1.,0.,0.));
#725=DIRECTION('',(0.,0.,1.));
#726=DIRECTION('center_axis',(0.,-6.12323399573677E-17,-1.));
#727=DIRECTION('ref_axis',(-1.,0.,0.));
#728=DIRECTION('center_axis',(0.,0.,1.));
#729=DIRECTION('ref_axis',(-1.,0.,0.));
#730=DIRECTION('center_axis',(0.,-6.57573564644721E-17,1.));
#731=DIRECTION('ref_axis',(-1.,0.,0.));
#732=DIRECTION('',(0.,0.,1.));
#733=DIRECTION('center_axis',(0.,-6.12323399573677E-17,-1.));
#734=DIRECTION('ref_axis',(-1.,0.,0.));
#735=DIRECTION('center_axis',(0.,0.,1.));
#736=DIRECTION('ref_axis',(-1.,0.,0.));
#737=DIRECTION('center_axis',(0.,-6.57573564644721E-17,1.));
#738=DIRECTION('ref_axis',(-1.,0.,0.));
#739=DIRECTION('',(0.,0.,1.));
#740=DIRECTION('center_axis',(0.,-6.12323399573677E-17,-1.));
#741=DIRECTION('ref_axis',(-1.,0.,0.));
#742=DIRECTION('center_axis',(0.,0.,1.));
#743=DIRECTION('ref_axis',(-1.,0.,0.));
#744=DIRECTION('center_axis',(0.,-6.57573564644721E-17,1.));
#745=DIRECTION('ref_axis',(-1.,0.,0.));
#746=DIRECTION('',(0.,0.,1.));
#747=DIRECTION('center_axis',(0.,-6.12323399573677E-17,-1.));
#748=DIRECTION('ref_axis',(-1.,0.,0.));
#749=DIRECTION('center_axis',(0.,0.,1.));
#750=DIRECTION('ref_axis',(-1.,0.,0.));
#751=DIRECTION('center_axis',(0.,-6.57573564644721E-17,1.));
#752=DIRECTION('ref_axis',(-1.,0.,0.));
#753=DIRECTION('',(0.,0.,1.));
#754=DIRECTION('center_axis',(0.,-6.12323399573677E-17,-1.));
#755=DIRECTION('ref_axis',(-1.,0.,0.));
#756=DIRECTION('center_axis',(0.,1.,0.));
#757=DIRECTION('ref_axis',(0.,0.,-1.));
#758=DIRECTION('center_axis',(0.,1.,0.));
#759=DIRECTION('ref_axis',(0.,0.,-1.));
#760=DIRECTION('',(0.,1.,0.));
#761=DIRECTION('center_axis',(0.,-1.,0.));
#762=DIRECTION('ref_axis',(0.,0.,-1.));
#763=DIRECTION('center_axis',(0.,1.,0.));
#764=DIRECTION('ref_axis',(0.,0.,-1.));
#765=DIRECTION('center_axis',(0.,1.,0.));
#766=DIRECTION('ref_axis',(0.,0.,-1.));
#767=DIRECTION('',(0.,1.,0.));
#768=DIRECTION('center_axis',(0.,-1.,0.));
#769=DIRECTION('ref_axis',(0.,0.,-1.));
#770=DIRECTION('center_axis',(0.,1.,0.));
#771=DIRECTION('ref_axis',(0.,0.,-1.));
#772=DIRECTION('center_axis',(0.,1.,0.));
#773=DIRECTION('ref_axis',(0.,0.,-1.));
#774=DIRECTION('',(0.,1.,0.));
#775=DIRECTION('center_axis',(0.,-1.,0.));
#776=DIRECTION('ref_axis',(0.,0.,-1.));
#777=DIRECTION('center_axis',(0.,1.,0.));
#778=DIRECTION('ref_axis',(0.,0.,-1.));
#779=DIRECTION('center_axis',(0.,1.,0.));
#780=DIRECTION('ref_axis',(0.,0.,-1.));
#781=DIRECTION('',(0.,1.,0.));
#782=DIRECTION('center_axis',(0.,-1.,0.));
#783=DIRECTION('ref_axis',(0.,0.,-1.));
#784=DIRECTION('center_axis',(0.,1.,0.));
#785=DIRECTION('ref_axis',(0.,0.,-1.));
#786=DIRECTION('center_axis',(0.,1.,0.));
#787=DIRECTION('ref_axis',(0.,0.,-1.));
#788=DIRECTION('',(0.,1.,0.));
#789=DIRECTION('center_axis',(0.,-1.,0.));
#790=DIRECTION('ref_axis',(0.,0.,-1.));
#791=DIRECTION('center_axis',(0.,1.,0.));
#792=DIRECTION('ref_axis',(0.,0.,-1.));
#793=DIRECTION('center_axis',(0.,1.,0.));
#794=DIRECTION('ref_axis',(0.,0.,-1.));
#795=DIRECTION('',(0.,1.,0.));
#796=DIRECTION('center_axis',(0.,-1.,0.));
#797=DIRECTION('ref_axis',(0.,0.,-1.));
#798=DIRECTION('center_axis',(1.,0.,0.));
#799=DIRECTION('ref_axis',(0.,-1.,0.));
#800=DIRECTION('',(1.,0.,0.));
#801=DIRECTION('center_axis',(-1.,0.,0.));
#802=DIRECTION('ref_axis',(0.,0.,-1.));
#803=DIRECTION('',(-1.,0.,0.));
#804=DIRECTION('center_axis',(1.,0.,0.));
#805=DIRECTION('ref_axis',(0.,-1.,-2.77555756156289E-16));
#806=DIRECTION('center_axis',(1.,0.,0.));
#807=DIRECTION('ref_axis',(0.,1.,1.92747052886312E-16));
#808=DIRECTION('',(0.,-6.12323399573677E-17,-1.));
#809=DIRECTION('',(0.,1.,1.92747052886312E-16));
#810=DIRECTION('',(0.,6.12323399573677E-17,1.));
#811=DIRECTION('',(0.,1.,1.92747052886312E-16));
#812=DIRECTION('center_axis',(0.,6.57573564644721E-17,-1.));
#813=DIRECTION('ref_axis',(0.,1.,6.57573564644721E-17));
#814=DIRECTION('',(-1.,0.,0.));
#815=DIRECTION('',(0.,1.,1.92747052886312E-16));
#816=DIRECTION('',(1.,0.,0.));
#817=DIRECTION('center_axis',(-1.,0.,0.));
#818=DIRECTION('ref_axis',(0.,0.,1.));
#819=DIRECTION('',(0.,6.12323399573677E-17,1.));
#820=DIRECTION('center_axis',(1.,0.,0.));
#821=DIRECTION('ref_axis',(0.,-1.,-2.77555756156289E-16));
#822=DIRECTION('',(0.,-1.,0.));
#823=DIRECTION('center_axis',(1.,0.,0.));
#824=DIRECTION('ref_axis',(0.,0.,-1.));
#825=DIRECTION('',(0.,1.,0.));
#826=DIRECTION('center_axis',(1.,0.,0.));
#827=DIRECTION('ref_axis',(0.,-1.,-2.77555756156289E-16));
#828=DIRECTION('center_axis',(-1.,0.,0.));
#829=DIRECTION('ref_axis',(0.,-1.,6.12323399573677E-17));
#830=DIRECTION('',(0.,-1.,6.12323399573677E-17));
#831=DIRECTION('',(0.,6.12323399573677E-17,1.));
#832=DIRECTION('center_axis',(0.,1.,-6.12323399573677E-17));
#833=DIRECTION('ref_axis',(-1.,0.,0.));
#834=DIRECTION('',(-1.,0.,0.));
#835=DIRECTION('center_axis',(1.,0.,0.));
#836=DIRECTION('ref_axis',(0.,-1.,0.));
#837=DIRECTION('',(1.,0.,0.));
#838=DIRECTION('center_axis',(0.,6.12323399573677E-17,1.));
#839=DIRECTION('ref_axis',(0.,-1.,6.12323399573677E-17));
#840=DIRECTION('center_axis',(1.,0.,0.));
#841=DIRECTION('ref_axis',(0.,0.,-1.));
#842=DIRECTION('',(0.,0.,-1.));
#843=DIRECTION('',(0.,1.,0.));
#844=DIRECTION('',(0.,0.,1.));
#845=DIRECTION('center_axis',(0.,1.,0.));
#846=DIRECTION('ref_axis',(0.,0.,1.));
#847=DIRECTION('',(0.,0.,1.));
#848=DIRECTION('',(1.,0.,0.));
#849=DIRECTION('center_axis',(-1.,0.,0.));
#850=DIRECTION('ref_axis',(0.,0.,1.));
#851=DIRECTION('',(0.,0.,-1.));
#852=DIRECTION('',(0.,1.,0.));
#853=DIRECTION('center_axis',(0.,0.,1.));
#854=DIRECTION('ref_axis',(1.,0.,0.));
#855=DIRECTION('',(-1.,0.,0.));
#856=DIRECTION('center_axis',(0.,1.,0.));
#857=DIRECTION('ref_axis',(1.,0.,0.));
#858=DIRECTION('center_axis',(0.,1.,0.));
#859=DIRECTION('ref_axis',(0.,0.,-1.));
#860=DIRECTION('',(0.,0.,-1.));
#861=DIRECTION('',(1.,0.,0.));
#862=DIRECTION('',(0.,0.,1.));
#863=DIRECTION('',(-1.,0.,0.));
#864=DIRECTION('center_axis',(0.,-1.92747052886312E-16,1.));
#865=DIRECTION('ref_axis',(0.,1.,1.92747052886312E-16));
#866=DIRECTION('',(0.,1.,1.92747052886312E-16));
#867=DIRECTION('',(1.,0.,0.));
#868=DIRECTION('',(0.,-1.,-1.92747052886312E-16));
#869=DIRECTION('',(-1.,0.,0.));
#870=DIRECTION('center_axis',(0.,1.,0.));
#871=DIRECTION('ref_axis',(0.,0.,1.));
#872=DIRECTION('',(0.,0.,-1.));
#873=DIRECTION('',(1.,0.,0.));
#874=DIRECTION('',(0.,0.,1.));
#875=DIRECTION('center_axis',(-1.,0.,0.));
#876=DIRECTION('ref_axis',(0.,0.,1.));
#877=DIRECTION('',(0.,1.,0.));
#878=DIRECTION('',(0.,0.585490553844358,-0.810679228399881));
#879=DIRECTION('',(0.,0.707106781186548,-0.707106781186548));
#880=DIRECTION('center_axis',(0.,-0.707106781186548,-0.707106781186548));
#881=DIRECTION('ref_axis',(-1.,0.,0.));
#882=DIRECTION('',(0.,-0.707106781186548,0.707106781186548));
#883=DIRECTION('center_axis',(0.,0.,1.));
#884=DIRECTION('ref_axis',(0.,-1.,0.));
#885=DIRECTION('',(0.,-1.,0.));
#886=DIRECTION('',(1.,0.,0.));
#887=DIRECTION('center_axis',(0.,0.810679228399881,0.585490553844359));
#888=DIRECTION('ref_axis',(0.,-0.585490553844358,0.810679228399881));
#889=DIRECTION('',(0.,-0.585490553844358,0.810679228399881));
#890=DIRECTION('center_axis',(1.,0.,0.));
#891=DIRECTION('ref_axis',(0.,0.,-1.));
#892=CARTESIAN_POINT('',(0.,0.,0.));
#893=CARTESIAN_POINT('Origin',(-25.,130.,110.));
#894=CARTESIAN_POINT('',(-18.25,130.,0.));
#895=CARTESIAN_POINT('Origin',(-25.,130.,0.));
#896=CARTESIAN_POINT('',(-18.25,130.,4.));
#897=CARTESIAN_POINT('',(-18.25,130.,110.));
#898=CARTESIAN_POINT('Origin',(-25.,130.,4.));
#899=CARTESIAN_POINT('Origin',(-25.,40.,110.));
#900=CARTESIAN_POINT('',(-18.25,40.,0.));
#901=CARTESIAN_POINT('Origin',(-25.,40.,0.));
#902=CARTESIAN_POINT('',(-18.25,40.,4.));
#903=CARTESIAN_POINT('',(-18.25,40.,110.));
#904=CARTESIAN_POINT('Origin',(-25.,40.,4.));
#905=CARTESIAN_POINT('Origin',(25.,85.,110.));
#906=CARTESIAN_POINT('',(31.75,85.,0.));
#907=CARTESIAN_POINT('Origin',(25.,85.,0.));
#908=CARTESIAN_POINT('',(31.75,85.,4.));
#909=CARTESIAN_POINT('',(31.75,85.,110.));
#910=CARTESIAN_POINT('Origin',(25.,85.,4.));
#911=CARTESIAN_POINT('Origin',(-25.,85.,110.));
#912=CARTESIAN_POINT('',(-18.25,85.,0.));
#913=CARTESIAN_POINT('Origin',(-25.,85.,0.));
#914=CARTESIAN_POINT('',(-18.25,85.,4.));
#915=CARTESIAN_POINT('',(-18.25,85.,110.));
#916=CARTESIAN_POINT('Origin',(-25.,85.,4.));
#917=CARTESIAN_POINT('Origin',(25.,40.,110.));
#918=CARTESIAN_POINT('',(31.75,40.,0.));
#919=CARTESIAN_POINT('Origin',(25.,40.,0.));
#920=CARTESIAN_POINT('',(31.75,40.,4.));
#921=CARTESIAN_POINT('',(31.75,40.,110.));
#922=CARTESIAN_POINT('Origin',(25.,40.,4.));
#923=CARTESIAN_POINT('Origin',(25.,130.,110.));
#924=CARTESIAN_POINT('',(31.75,130.,0.));
#925=CARTESIAN_POINT('Origin',(25.,130.,0.));
#926=CARTESIAN_POINT('',(31.75,130.,4.));
#927=CARTESIAN_POINT('',(31.75,130.,110.));
#928=CARTESIAN_POINT('Origin',(25.,130.,4.));
#929=CARTESIAN_POINT('Origin',(-30.,82.5,115.));
#930=CARTESIAN_POINT('',(-30.,0.,121.75));
#931=CARTESIAN_POINT('Origin',(-30.,0.,115.));
#932=CARTESIAN_POINT('',(-30.,4.,121.75));
#933=CARTESIAN_POINT('',(-30.,82.5,121.75));
#934=CARTESIAN_POINT('Origin',(-30.,4.,115.));
#935=CARTESIAN_POINT('Origin',(30.,82.5,50.));
#936=CARTESIAN_POINT('',(30.,0.,56.75));
#937=CARTESIAN_POINT('Origin',(30.,0.,50.));
#938=CARTESIAN_POINT('',(30.,4.,56.75));
#939=CARTESIAN_POINT('',(30.,82.5,56.75));
#940=CARTESIAN_POINT('Origin',(30.,4.,50.));
#941=CARTESIAN_POINT('Origin',(30.,82.5,180.));
#942=CARTESIAN_POINT('',(30.,0.,186.75));
#943=CARTESIAN_POINT('Origin',(30.,0.,180.));
#944=CARTESIAN_POINT('',(30.,4.,186.75));
#945=CARTESIAN_POINT('',(30.,82.5,186.75));
#946=CARTESIAN_POINT('Origin',(30.,4.,180.));
#947=CARTESIAN_POINT('Origin',(30.,82.5,115.));
#948=CARTESIAN_POINT('',(30.,0.,121.75));
#949=CARTESIAN_POINT('Origin',(30.,0.,115.));
#950=CARTESIAN_POINT('',(30.,4.,121.75));
#951=CARTESIAN_POINT('',(30.,82.5,121.75));
#952=CARTESIAN_POINT('Origin',(30.,4.,115.));
#953=CARTESIAN_POINT('Origin',(-30.,82.5,180.));
#954=CARTESIAN_POINT('',(-30.,0.,186.75));
#955=CARTESIAN_POINT('Origin',(-30.,0.,180.));
#956=CARTESIAN_POINT('',(-30.,4.,186.75));
#957=CARTESIAN_POINT('',(-30.,82.5,186.75));
#958=CARTESIAN_POINT('Origin',(-30.,4.,180.));
#959=CARTESIAN_POINT('Origin',(-30.,82.5,50.));
#960=CARTESIAN_POINT('',(-30.,0.,56.75));
#961=CARTESIAN_POINT('Origin',(-30.,0.,50.));
#962=CARTESIAN_POINT('',(-30.,4.,56.75));
#963=CARTESIAN_POINT('',(-30.,82.5,56.75));
#964=CARTESIAN_POINT('Origin',(-30.,4.,50.));
#965=CARTESIAN_POINT('Origin',(0.,8.,8.));
#966=CARTESIAN_POINT('',(-50.,8.,4.));
#967=CARTESIAN_POINT('',(50.,8.,4.));
#968=CARTESIAN_POINT('',(0.,8.,4.));
#969=CARTESIAN_POINT('',(-50.,4.,8.));
#970=CARTESIAN_POINT('Origin',(-50.,8.,8.));
#971=CARTESIAN_POINT('',(50.,4.,8.));
#972=CARTESIAN_POINT('',(-25.,4.,8.00000000000001));
#973=CARTESIAN_POINT('Origin',(50.,8.,8.));
#974=CARTESIAN_POINT('Origin',(50.,-1.0477868423386,-5.41764592899634E-16));
#975=CARTESIAN_POINT('',(50.,8.,1.20216965610468E-15));
#976=CARTESIAN_POINT('',(50.,8.,1.12));
#977=CARTESIAN_POINT('',(50.,150.,-7.3724662858184E-15));
#978=CARTESIAN_POINT('',(50.,-10.0955736846772,-2.28569884190395E-15));
#979=CARTESIAN_POINT('',(50.,150.,3.99999999999999));
#980=CARTESIAN_POINT('',(50.,150.,-7.3724662858184E-15));
#981=CARTESIAN_POINT('',(50.,-10.0955736846772,4.));
#982=CARTESIAN_POINT('Origin',(0.,74.4761065788307,-3.29100566448485E-15));
#983=CARTESIAN_POINT('',(-50.,8.,1.20216965610468E-15));
#984=CARTESIAN_POINT('',(0.,8.,-7.69694173443088E-15));
#985=CARTESIAN_POINT('',(-50.,150.,-7.3724662858184E-15));
#986=CARTESIAN_POINT('',(-50.,-10.0955736846772,-2.28569884190395E-15));
#987=CARTESIAN_POINT('',(-50.,150.,-7.3724662858184E-15));
#988=CARTESIAN_POINT('Origin',(-50.,8.,1.11022302462516E-15));
#989=CARTESIAN_POINT('',(-50.,8.,1.12));
#990=CARTESIAN_POINT('',(-50.,0.,8.));
#991=CARTESIAN_POINT('Origin',(-50.,8.,8.));
#992=CARTESIAN_POINT('',(-50.,0.,8.));
#993=CARTESIAN_POINT('Origin',(50.,8.,4.));
#994=CARTESIAN_POINT('',(50.,0.,8.));
#995=CARTESIAN_POINT('',(50.,0.,8.00000000000001));
#996=CARTESIAN_POINT('Origin',(50.,8.,8.));
#997=CARTESIAN_POINT('Origin',(-50.,150.,-7.3724662858184E-15));
#998=CARTESIAN_POINT('',(-50.,150.,3.99999999999999));
#999=CARTESIAN_POINT('',(-50.,8.,4.));
#1000=CARTESIAN_POINT('',(-50.,150.,-7.3724662858184E-15));
#1001=CARTESIAN_POINT('Origin',(50.,150.,-7.3724662858184E-15));
#1002=CARTESIAN_POINT('',(-50.,150.,3.99999999999999));
#1003=CARTESIAN_POINT('Origin',(0.,8.,8.));
#1004=CARTESIAN_POINT('',(-25.,0.,8.00000000000001));
#1005=CARTESIAN_POINT('Origin',(0.,74.4761065788307,4.));
#1006=CARTESIAN_POINT('Origin',(50.,0.,200.));
#1007=CARTESIAN_POINT('',(50.,4.,200.));
#1008=CARTESIAN_POINT('',(50.,4.,0.));
#1009=CARTESIAN_POINT('',(50.,0.,200.));
#1010=CARTESIAN_POINT('',(50.,0.,200.));
#1011=CARTESIAN_POINT('',(50.,0.,0.));
#1012=CARTESIAN_POINT('Origin',(0.,4.,100.));
#1013=CARTESIAN_POINT('',(-50.,4.,200.));
#1014=CARTESIAN_POINT('',(-50.,4.,200.));
#1015=CARTESIAN_POINT('',(50.,4.,200.));
#1016=CARTESIAN_POINT('Origin',(-50.,0.,0.));
#1017=CARTESIAN_POINT('',(-50.,0.,200.));
#1018=CARTESIAN_POINT('',(-50.,0.,200.));
#1019=CARTESIAN_POINT('',(-50.,0.,200.));
#1020=CARTESIAN_POINT('Origin',(-50.,0.,200.));
#1021=CARTESIAN_POINT('',(50.,0.,200.));
#1022=CARTESIAN_POINT('Origin',(0.,0.,100.));
#1023=CARTESIAN_POINT('Origin',(50.,4.,200.));
#1024=CARTESIAN_POINT('',(2.,4.,200.));
#1025=CARTESIAN_POINT('',(2.,4.,21.));
#1026=CARTESIAN_POINT('',(2.,4.,150.));
#1027=CARTESIAN_POINT('',(-2.,4.,200.));
#1028=CARTESIAN_POINT('',(25.,4.,200.));
#1029=CARTESIAN_POINT('',(-2.,4.,21.));
#1030=CARTESIAN_POINT('',(-2.,4.,150.));
#1031=CARTESIAN_POINT('',(25.,4.,21.));
#1032=CARTESIAN_POINT('Origin',(50.,8.,4.));
#1033=CARTESIAN_POINT('',(2.,21.,4.));
#1034=CARTESIAN_POINT('',(2.,150.,4.00000000000003));
#1035=CARTESIAN_POINT('',(2.,41.5,4.00000000000001));
#1036=CARTESIAN_POINT('',(-2.,21.,4.));
#1037=CARTESIAN_POINT('',(25.,21.,4.));
#1038=CARTESIAN_POINT('',(-2.,150.,3.99999999999999));
#1039=CARTESIAN_POINT('',(-2.,41.5,4.00000000000001));
#1040=CARTESIAN_POINT('',(25.,150.,4.00000000000003));
#1041=CARTESIAN_POINT('Origin',(0.,150.,0.));
#1042=CARTESIAN_POINT('',(-2.,150.,20.));
#1043=CARTESIAN_POINT('',(-2.,150.,0.));
#1044=CARTESIAN_POINT('',(2.,150.,20.));
#1045=CARTESIAN_POINT('',(0.,150.,20.));
#1046=CARTESIAN_POINT('',(2.,150.,0.));
#1047=CARTESIAN_POINT('Origin',(-2.,75.,100.));
#1048=CARTESIAN_POINT('',(-2.,20.,200.));
#1049=CARTESIAN_POINT('',(-2.,20.,200.));
#1050=CARTESIAN_POINT('',(-2.,150.,20.));
#1051=CARTESIAN_POINT('',(-2.,6.25000000000001,18.75));
#1052=CARTESIAN_POINT('Origin',(0.,12.5,12.5));
#1053=CARTESIAN_POINT('',(2.,6.25000000000001,18.75));
#1054=CARTESIAN_POINT('Origin',(0.,20.,200.));
#1055=CARTESIAN_POINT('',(2.,20.,200.));
#1056=CARTESIAN_POINT('',(2.,20.,200.));
#1057=CARTESIAN_POINT('',(0.,20.,200.));
#1058=CARTESIAN_POINT('Origin',(0.,150.,20.));
#1059=CARTESIAN_POINT('',(2.,150.,20.));
#1060=CARTESIAN_POINT('Origin',(2.,75.,100.));
#1061=UNCERTAINTY_MEASURE_WITH_UNIT(LENGTH_MEASURE(0.01),#1065,
'DISTANCE_ACCURACY_VALUE',
'Maximum model space distance between geometric entities at asserted c
onnectivities');
#1062=UNCERTAINTY_MEASURE_WITH_UNIT(LENGTH_MEASURE(0.01),#1065,
'DISTANCE_ACCURACY_VALUE',
'Maximum model space distance between geometric entities at asserted c
onnectivities');
#1063=(
GEOMETRIC_REPRESENTATION_CONTEXT(3)
GLOBAL_UNCERTAINTY_ASSIGNED_CONTEXT((#1061))
GLOBAL_UNIT_ASSIGNED_CONTEXT((#1065,#1067,#1068))
REPRESENTATION_CONTEXT('','3D')
);
#1064=(
GEOMETRIC_REPRESENTATION_CONTEXT(3)
GLOBAL_UNCERTAINTY_ASSIGNED_CONTEXT((#1062))
GLOBAL_UNIT_ASSIGNED_CONTEXT((#1065,#1067,#1068))
REPRESENTATION_CONTEXT('','3D')
);
#1065=(
LENGTH_UNIT()
NAMED_UNIT(*)
SI_UNIT(.MILLI.,.METRE.)
);
#1066=(
LENGTH_UNIT()
NAMED_UNIT(*)
SI_UNIT($,.METRE.)
);
#1067=(
NAMED_UNIT(*)
PLANE_ANGLE_UNIT()
SI_UNIT($,.RADIAN.)
);
#1068=(
NAMED_UNIT(*)
SI_UNIT($,.STERADIAN.)
SOLID_ANGLE_UNIT()
);
#1069=SHAPE_DEFINITION_REPRESENTATION(#1070,#1071);
#1070=PRODUCT_DEFINITION_SHAPE('',$,#1073);
#1071=SHAPE_REPRESENTATION('',(#649),#1063);
#1072=PRODUCT_DEFINITION_CONTEXT('part definition',#1077,'design');
#1073=PRODUCT_DEFINITION('gusset plate','gusset plate v4',#1074,#1072);
#1074=PRODUCT_DEFINITION_FORMATION('',$,#1079);
#1075=PRODUCT_RELATED_PRODUCT_CATEGORY('gusset plate v4',
'gusset plate v4',(#1079));
#1076=APPLICATION_PROTOCOL_DEFINITION('international standard',
'automotive_design',2009,#1077);
#1077=APPLICATION_CONTEXT(
'Core Data for Automotive Mechanical Design Process');
#1078=PRODUCT_CONTEXT('part definition',#1077,'mechanical');
#1079=PRODUCT('gusset plate','gusset plate v4',$,(#1078));
#1080=PRESENTATION_STYLE_ASSIGNMENT((#1081));
#1081=SURFACE_STYLE_USAGE(.BOTH.,#1082);
#1082=SURFACE_SIDE_STYLE('',(#1083));
#1083=SURFACE_STYLE_FILL_AREA(#1084);
#1084=FILL_AREA_STYLE('Steel - Satin',(#1085));
#1085=FILL_AREA_STYLE_COLOUR('Steel - Satin',#1086);
#1086=COLOUR_RGB('Steel - Satin',0.627450980392157,0.627450980392157,0.627450980392157);
ENDSEC;
END-ISO-10303-21;
