ISO-10303-21;
HEADER;
/* Generated by software containing ST-Developer
 * from STEP Tools, Inc. (www.steptools.com) 
 */

FILE_DESCRIPTION(
/* description */ (''),
/* implementation_level */ '2;1');

FILE_NAME(
/* name */ 'gusset plate lower v2.step',
/* time_stamp */ '2024-06-14T15:31:28+02:00',
/* author */ (''),
/* organization */ (''),
/* preprocessor_version */ 'ST-DEVELOPER v20',
/* originating_system */ 'Autodesk Translation Framework v13.14.0.145',

/* authorisation */ '');

FILE_SCHEMA (('AUTOMOTIVE_DESIGN { 1 0 10303 214 3 1 1 }'));
ENDSEC;

DATA;
#10=MECHANICAL_DESIGN_GEOMETRIC_PRESENTATION_REPRESENTATION('',(#13,#14),
#908);
#11=SHAPE_REPRESENTATION_RELATIONSHIP('SRR','None',#915,#12);
#12=ADVANCED_BREP_SHAPE_REPRESENTATION('',(#15,#16),#907);
#13=STYLED_ITEM('',(#924),#15);
#14=STYLED_ITEM('',(#924),#16);
#15=MANIFOLD_SOLID_BREP('gusset console',#543);
#16=MANIFOLD_SOLID_BREP('gusset',#544);
#17=FACE_BOUND('',#94,.T.);
#18=FACE_BOUND('',#95,.T.);
#19=FACE_BOUND('',#96,.T.);
#20=FACE_BOUND('',#97,.T.);
#21=FACE_BOUND('',#104,.T.);
#22=FACE_BOUND('',#105,.T.);
#23=FACE_BOUND('',#106,.T.);
#24=FACE_BOUND('',#107,.T.);
#25=FACE_BOUND('',#110,.T.);
#26=FACE_BOUND('',#111,.T.);
#27=FACE_BOUND('',#112,.T.);
#28=FACE_BOUND('',#113,.T.);
#29=FACE_BOUND('',#117,.T.);
#30=FACE_BOUND('',#118,.T.);
#31=FACE_BOUND('',#119,.T.);
#32=FACE_BOUND('',#120,.T.);
#33=PLANE('',#585);
#34=PLANE('',#586);
#35=PLANE('',#587);
#36=PLANE('',#589);
#37=PLANE('',#591);
#38=PLANE('',#592);
#39=PLANE('',#594);
#40=PLANE('',#595);
#41=PLANE('',#596);
#42=PLANE('',#597);
#43=PLANE('',#598);
#44=PLANE('',#599);
#45=PLANE('',#600);
#46=PLANE('',#601);
#47=PLANE('',#602);
#48=PLANE('',#603);
#49=PLANE('',#604);
#50=PLANE('',#605);
#51=PLANE('',#606);
#52=PLANE('',#607);
#53=FACE_OUTER_BOUND('',#83,.T.);
#54=FACE_OUTER_BOUND('',#84,.T.);
#55=FACE_OUTER_BOUND('',#85,.T.);
#56=FACE_OUTER_BOUND('',#86,.T.);
#57=FACE_OUTER_BOUND('',#87,.T.);
#58=FACE_OUTER_BOUND('',#88,.T.);
#59=FACE_OUTER_BOUND('',#89,.T.);
#60=FACE_OUTER_BOUND('',#90,.T.);
#61=FACE_OUTER_BOUND('',#91,.T.);
#62=FACE_OUTER_BOUND('',#92,.T.);
#63=FACE_OUTER_BOUND('',#93,.T.);
#64=FACE_OUTER_BOUND('',#98,.T.);
#65=FACE_OUTER_BOUND('',#99,.T.);
#66=FACE_OUTER_BOUND('',#100,.T.);
#67=FACE_OUTER_BOUND('',#101,.T.);
#68=FACE_OUTER_BOUND('',#102,.T.);
#69=FACE_OUTER_BOUND('',#103,.T.);
#70=FACE_OUTER_BOUND('',#108,.T.);
#71=FACE_OUTER_BOUND('',#109,.T.);
#72=FACE_OUTER_BOUND('',#114,.T.);
#73=FACE_OUTER_BOUND('',#115,.T.);
#74=FACE_OUTER_BOUND('',#116,.T.);
#75=FACE_OUTER_BOUND('',#121,.T.);
#76=FACE_OUTER_BOUND('',#122,.T.);
#77=FACE_OUTER_BOUND('',#123,.T.);
#78=FACE_OUTER_BOUND('',#124,.T.);
#79=FACE_OUTER_BOUND('',#125,.T.);
#80=FACE_OUTER_BOUND('',#126,.T.);
#81=FACE_OUTER_BOUND('',#127,.T.);
#82=FACE_OUTER_BOUND('',#128,.T.);
#83=EDGE_LOOP('',(#363,#364,#365,#366));
#84=EDGE_LOOP('',(#367,#368,#369,#370));
#85=EDGE_LOOP('',(#371,#372,#373,#374));
#86=EDGE_LOOP('',(#375,#376,#377,#378));
#87=EDGE_LOOP('',(#379,#380,#381,#382));
#88=EDGE_LOOP('',(#383,#384,#385,#386));
#89=EDGE_LOOP('',(#387,#388,#389,#390));
#90=EDGE_LOOP('',(#391,#392,#393,#394));
#91=EDGE_LOOP('',(#395,#396,#397,#398));
#92=EDGE_LOOP('',(#399,#400,#401,#402));
#93=EDGE_LOOP('',(#403,#404,#405,#406));
#94=EDGE_LOOP('',(#407));
#95=EDGE_LOOP('',(#408));
#96=EDGE_LOOP('',(#409));
#97=EDGE_LOOP('',(#410));
#98=EDGE_LOOP('',(#411,#412,#413,#414));
#99=EDGE_LOOP('',(#415,#416,#417,#418));
#100=EDGE_LOOP('',(#419,#420,#421,#422));
#101=EDGE_LOOP('',(#423,#424,#425,#426));
#102=EDGE_LOOP('',(#427,#428,#429,#430));
#103=EDGE_LOOP('',(#431,#432,#433,#434));
#104=EDGE_LOOP('',(#435));
#105=EDGE_LOOP('',(#436));
#106=EDGE_LOOP('',(#437));
#107=EDGE_LOOP('',(#438));
#108=EDGE_LOOP('',(#439,#440,#441,#442));
#109=EDGE_LOOP('',(#443,#444,#445,#446));
#110=EDGE_LOOP('',(#447));
#111=EDGE_LOOP('',(#448));
#112=EDGE_LOOP('',(#449));
#113=EDGE_LOOP('',(#450));
#114=EDGE_LOOP('',(#451,#452,#453,#454));
#115=EDGE_LOOP('',(#455,#456,#457,#458));
#116=EDGE_LOOP('',(#459,#460,#461,#462));
#117=EDGE_LOOP('',(#463));
#118=EDGE_LOOP('',(#464));
#119=EDGE_LOOP('',(#465));
#120=EDGE_LOOP('',(#466));
#121=EDGE_LOOP('',(#467,#468,#469,#470));
#122=EDGE_LOOP('',(#471,#472,#473,#474));
#123=EDGE_LOOP('',(#475,#476,#477,#478));
#124=EDGE_LOOP('',(#479,#480,#481,#482,#483,#484));
#125=EDGE_LOOP('',(#485,#486,#487,#488));
#126=EDGE_LOOP('',(#489,#490,#491,#492));
#127=EDGE_LOOP('',(#493,#494,#495,#496));
#128=EDGE_LOOP('',(#497,#498,#499,#500,#501,#502));
#129=LINE('',#765,#179);
#130=LINE('',#771,#180);
#131=LINE('',#777,#181);
#132=LINE('',#783,#182);
#133=LINE('',#789,#183);
#134=LINE('',#795,#184);
#135=LINE('',#801,#185);
#136=LINE('',#807,#186);
#137=LINE('',#812,#187);
#138=LINE('',#816,#188);
#139=LINE('',#820,#189);
#140=LINE('',#822,#190);
#141=LINE('',#824,#191);
#142=LINE('',#825,#192);
#143=LINE('',#828,#193);
#144=LINE('',#830,#194);
#145=LINE('',#831,#195);
#146=LINE('',#833,#196);
#147=LINE('',#836,#197);
#148=LINE('',#839,#198);
#149=LINE('',#843,#199);
#150=LINE('',#844,#200);
#151=LINE('',#846,#201);
#152=LINE('',#848,#202);
#153=LINE('',#852,#203);
#154=LINE('',#854,#204);
#155=LINE('',#855,#205);
#156=LINE('',#858,#206);
#157=LINE('',#859,#207);
#158=LINE('',#862,#208);
#159=LINE('',#863,#209);
#160=LINE('',#865,#210);
#161=LINE('',#870,#211);
#162=LINE('',#872,#212);
#163=LINE('',#874,#213);
#164=LINE('',#875,#214);
#165=LINE('',#879,#215);
#166=LINE('',#881,#216);
#167=LINE('',#883,#217);
#168=LINE('',#884,#218);
#169=LINE('',#887,#219);
#170=LINE('',#889,#220);
#171=LINE('',#890,#221);
#172=LINE('',#893,#222);
#173=LINE('',#894,#223);
#174=LINE('',#895,#224);
#175=LINE('',#897,#225);
#176=LINE('',#900,#226);
#177=LINE('',#901,#227);
#178=LINE('',#903,#228);
#179=VECTOR('',#614,6.75);
#180=VECTOR('',#621,6.75);
#181=VECTOR('',#628,6.75);
#182=VECTOR('',#635,6.75);
#183=VECTOR('',#642,6.75);
#184=VECTOR('',#649,6.75);
#185=VECTOR('',#656,6.75);
#186=VECTOR('',#663,6.75);
#187=VECTOR('',#668,10.);
#188=VECTOR('',#671,10.);
#189=VECTOR('',#676,10.);
#190=VECTOR('',#677,5.76);
#191=VECTOR('',#678,10.);
#192=VECTOR('',#679,5.76);
#193=VECTOR('',#682,10.);
#194=VECTOR('',#683,5.76);
#195=VECTOR('',#684,10.);
#196=VECTOR('',#687,10.);
#197=VECTOR('',#690,10.);
#198=VECTOR('',#693,10.);
#199=VECTOR('',#698,10.);
#200=VECTOR('',#699,10.);
#201=VECTOR('',#702,10.);
#202=VECTOR('',#705,10.);
#203=VECTOR('',#710,10.);
#204=VECTOR('',#711,10.);
#205=VECTOR('',#712,10.);
#206=VECTOR('',#715,10.);
#207=VECTOR('',#716,10.);
#208=VECTOR('',#719,10.);
#209=VECTOR('',#720,10.);
#210=VECTOR('',#723,10.);
#211=VECTOR('',#728,10.);
#212=VECTOR('',#729,10.);
#213=VECTOR('',#730,10.);
#214=VECTOR('',#731,10.);
#215=VECTOR('',#734,10.);
#216=VECTOR('',#735,10.);
#217=VECTOR('',#736,10.);
#218=VECTOR('',#737,10.);
#219=VECTOR('',#740,10.);
#220=VECTOR('',#741,10.);
#221=VECTOR('',#742,10.);
#222=VECTOR('',#745,10.);
#223=VECTOR('',#746,10.);
#224=VECTOR('',#747,10.);
#225=VECTOR('',#750,10.);
#226=VECTOR('',#753,10.);
#227=VECTOR('',#754,10.);
#228=VECTOR('',#757,10.);
#229=CIRCLE('',#559,6.75);
#230=CIRCLE('',#560,6.75);
#231=CIRCLE('',#562,6.75);
#232=CIRCLE('',#563,6.75);
#233=CIRCLE('',#565,6.75);
#234=CIRCLE('',#566,6.75);
#235=CIRCLE('',#568,6.75);
#236=CIRCLE('',#569,6.75);
#237=CIRCLE('',#571,6.75);
#238=CIRCLE('',#572,6.75);
#239=CIRCLE('',#574,6.75);
#240=CIRCLE('',#575,6.75);
#241=CIRCLE('',#577,6.75);
#242=CIRCLE('',#578,6.75);
#243=CIRCLE('',#580,6.75);
#244=CIRCLE('',#581,6.75);
#245=CIRCLE('',#583,4.);
#246=CIRCLE('',#584,4.);
#247=CIRCLE('',#588,8.);
#248=CIRCLE('',#590,8.);
#249=VERTEX_POINT('',#762);
#250=VERTEX_POINT('',#764);
#251=VERTEX_POINT('',#768);
#252=VERTEX_POINT('',#770);
#253=VERTEX_POINT('',#774);
#254=VERTEX_POINT('',#776);
#255=VERTEX_POINT('',#780);
#256=VERTEX_POINT('',#782);
#257=VERTEX_POINT('',#786);
#258=VERTEX_POINT('',#788);
#259=VERTEX_POINT('',#792);
#260=VERTEX_POINT('',#794);
#261=VERTEX_POINT('',#798);
#262=VERTEX_POINT('',#800);
#263=VERTEX_POINT('',#804);
#264=VERTEX_POINT('',#806);
#265=VERTEX_POINT('',#810);
#266=VERTEX_POINT('',#811);
#267=VERTEX_POINT('',#813);
#268=VERTEX_POINT('',#815);
#269=VERTEX_POINT('',#819);
#270=VERTEX_POINT('',#821);
#271=VERTEX_POINT('',#823);
#272=VERTEX_POINT('',#827);
#273=VERTEX_POINT('',#829);
#274=VERTEX_POINT('',#834);
#275=VERTEX_POINT('',#838);
#276=VERTEX_POINT('',#842);
#277=VERTEX_POINT('',#851);
#278=VERTEX_POINT('',#853);
#279=VERTEX_POINT('',#857);
#280=VERTEX_POINT('',#861);
#281=VERTEX_POINT('',#868);
#282=VERTEX_POINT('',#869);
#283=VERTEX_POINT('',#871);
#284=VERTEX_POINT('',#873);
#285=VERTEX_POINT('',#877);
#286=VERTEX_POINT('',#878);
#287=VERTEX_POINT('',#880);
#288=VERTEX_POINT('',#882);
#289=VERTEX_POINT('',#886);
#290=VERTEX_POINT('',#888);
#291=VERTEX_POINT('',#892);
#292=VERTEX_POINT('',#899);
#293=EDGE_CURVE('',#249,#249,#229,.T.);
#294=EDGE_CURVE('',#249,#250,#129,.T.);
#295=EDGE_CURVE('',#250,#250,#230,.T.);
#296=EDGE_CURVE('',#251,#251,#231,.T.);
#297=EDGE_CURVE('',#251,#252,#130,.T.);
#298=EDGE_CURVE('',#252,#252,#232,.T.);
#299=EDGE_CURVE('',#253,#253,#233,.T.);
#300=EDGE_CURVE('',#253,#254,#131,.T.);
#301=EDGE_CURVE('',#254,#254,#234,.T.);
#302=EDGE_CURVE('',#255,#255,#235,.T.);
#303=EDGE_CURVE('',#255,#256,#132,.T.);
#304=EDGE_CURVE('',#256,#256,#236,.T.);
#305=EDGE_CURVE('',#257,#257,#237,.T.);
#306=EDGE_CURVE('',#257,#258,#133,.T.);
#307=EDGE_CURVE('',#258,#258,#238,.T.);
#308=EDGE_CURVE('',#259,#259,#239,.T.);
#309=EDGE_CURVE('',#259,#260,#134,.T.);
#310=EDGE_CURVE('',#260,#260,#240,.T.);
#311=EDGE_CURVE('',#261,#261,#241,.T.);
#312=EDGE_CURVE('',#261,#262,#135,.T.);
#313=EDGE_CURVE('',#262,#262,#242,.T.);
#314=EDGE_CURVE('',#263,#263,#243,.T.);
#315=EDGE_CURVE('',#263,#264,#136,.T.);
#316=EDGE_CURVE('',#264,#264,#244,.T.);
#317=EDGE_CURVE('',#265,#266,#137,.T.);
#318=EDGE_CURVE('',#265,#267,#245,.T.);
#319=EDGE_CURVE('',#268,#267,#138,.T.);
#320=EDGE_CURVE('',#268,#266,#246,.T.);
#321=EDGE_CURVE('',#266,#269,#139,.T.);
#322=EDGE_CURVE('',#269,#270,#140,.T.);
#323=EDGE_CURVE('',#270,#271,#141,.T.);
#324=EDGE_CURVE('',#266,#271,#142,.T.);
#325=EDGE_CURVE('',#269,#272,#143,.T.);
#326=EDGE_CURVE('',#272,#273,#144,.T.);
#327=EDGE_CURVE('',#273,#270,#145,.T.);
#328=EDGE_CURVE('',#272,#265,#146,.T.);
#329=EDGE_CURVE('',#274,#272,#247,.T.);
#330=EDGE_CURVE('',#267,#274,#147,.T.);
#331=EDGE_CURVE('',#275,#268,#148,.T.);
#332=EDGE_CURVE('',#275,#269,#248,.T.);
#333=EDGE_CURVE('',#276,#265,#149,.T.);
#334=EDGE_CURVE('',#273,#276,#150,.T.);
#335=EDGE_CURVE('',#271,#276,#151,.T.);
#336=EDGE_CURVE('',#274,#275,#152,.T.);
#337=EDGE_CURVE('',#277,#268,#153,.T.);
#338=EDGE_CURVE('',#278,#277,#154,.T.);
#339=EDGE_CURVE('',#275,#278,#155,.T.);
#340=EDGE_CURVE('',#267,#279,#156,.T.);
#341=EDGE_CURVE('',#279,#277,#157,.T.);
#342=EDGE_CURVE('',#280,#274,#158,.T.);
#343=EDGE_CURVE('',#280,#279,#159,.T.);
#344=EDGE_CURVE('',#278,#280,#160,.T.);
#345=EDGE_CURVE('',#281,#282,#161,.T.);
#346=EDGE_CURVE('',#283,#281,#162,.T.);
#347=EDGE_CURVE('',#284,#283,#163,.T.);
#348=EDGE_CURVE('',#282,#284,#164,.T.);
#349=EDGE_CURVE('',#285,#286,#165,.T.);
#350=EDGE_CURVE('',#287,#285,#166,.T.);
#351=EDGE_CURVE('',#288,#287,#167,.T.);
#352=EDGE_CURVE('',#286,#288,#168,.T.);
#353=EDGE_CURVE('',#289,#288,#169,.T.);
#354=EDGE_CURVE('',#289,#290,#170,.T.);
#355=EDGE_CURVE('',#286,#290,#171,.T.);
#356=EDGE_CURVE('',#283,#291,#172,.T.);
#357=EDGE_CURVE('',#291,#289,#173,.T.);
#358=EDGE_CURVE('',#284,#287,#174,.T.);
#359=EDGE_CURVE('',#285,#282,#175,.T.);
#360=EDGE_CURVE('',#292,#281,#176,.T.);
#361=EDGE_CURVE('',#291,#292,#177,.T.);
#362=EDGE_CURVE('',#290,#292,#178,.T.);
#363=ORIENTED_EDGE('',*,*,#293,.F.);
#364=ORIENTED_EDGE('',*,*,#294,.T.);
#365=ORIENTED_EDGE('',*,*,#295,.F.);
#366=ORIENTED_EDGE('',*,*,#294,.F.);
#367=ORIENTED_EDGE('',*,*,#296,.F.);
#368=ORIENTED_EDGE('',*,*,#297,.T.);
#369=ORIENTED_EDGE('',*,*,#298,.F.);
#370=ORIENTED_EDGE('',*,*,#297,.F.);
#371=ORIENTED_EDGE('',*,*,#299,.F.);
#372=ORIENTED_EDGE('',*,*,#300,.T.);
#373=ORIENTED_EDGE('',*,*,#301,.F.);
#374=ORIENTED_EDGE('',*,*,#300,.F.);
#375=ORIENTED_EDGE('',*,*,#302,.F.);
#376=ORIENTED_EDGE('',*,*,#303,.T.);
#377=ORIENTED_EDGE('',*,*,#304,.F.);
#378=ORIENTED_EDGE('',*,*,#303,.F.);
#379=ORIENTED_EDGE('',*,*,#305,.F.);
#380=ORIENTED_EDGE('',*,*,#306,.T.);
#381=ORIENTED_EDGE('',*,*,#307,.F.);
#382=ORIENTED_EDGE('',*,*,#306,.F.);
#383=ORIENTED_EDGE('',*,*,#308,.F.);
#384=ORIENTED_EDGE('',*,*,#309,.T.);
#385=ORIENTED_EDGE('',*,*,#310,.F.);
#386=ORIENTED_EDGE('',*,*,#309,.F.);
#387=ORIENTED_EDGE('',*,*,#311,.F.);
#388=ORIENTED_EDGE('',*,*,#312,.T.);
#389=ORIENTED_EDGE('',*,*,#313,.F.);
#390=ORIENTED_EDGE('',*,*,#312,.F.);
#391=ORIENTED_EDGE('',*,*,#314,.F.);
#392=ORIENTED_EDGE('',*,*,#315,.T.);
#393=ORIENTED_EDGE('',*,*,#316,.F.);
#394=ORIENTED_EDGE('',*,*,#315,.F.);
#395=ORIENTED_EDGE('',*,*,#317,.F.);
#396=ORIENTED_EDGE('',*,*,#318,.T.);
#397=ORIENTED_EDGE('',*,*,#319,.F.);
#398=ORIENTED_EDGE('',*,*,#320,.T.);
#399=ORIENTED_EDGE('',*,*,#321,.T.);
#400=ORIENTED_EDGE('',*,*,#322,.T.);
#401=ORIENTED_EDGE('',*,*,#323,.T.);
#402=ORIENTED_EDGE('',*,*,#324,.F.);
#403=ORIENTED_EDGE('',*,*,#325,.T.);
#404=ORIENTED_EDGE('',*,*,#326,.T.);
#405=ORIENTED_EDGE('',*,*,#327,.T.);
#406=ORIENTED_EDGE('',*,*,#322,.F.);
#407=ORIENTED_EDGE('',*,*,#293,.T.);
#408=ORIENTED_EDGE('',*,*,#296,.T.);
#409=ORIENTED_EDGE('',*,*,#299,.T.);
#410=ORIENTED_EDGE('',*,*,#302,.T.);
#411=ORIENTED_EDGE('',*,*,#328,.F.);
#412=ORIENTED_EDGE('',*,*,#329,.F.);
#413=ORIENTED_EDGE('',*,*,#330,.F.);
#414=ORIENTED_EDGE('',*,*,#318,.F.);
#415=ORIENTED_EDGE('',*,*,#321,.F.);
#416=ORIENTED_EDGE('',*,*,#320,.F.);
#417=ORIENTED_EDGE('',*,*,#331,.F.);
#418=ORIENTED_EDGE('',*,*,#332,.T.);
#419=ORIENTED_EDGE('',*,*,#328,.T.);
#420=ORIENTED_EDGE('',*,*,#333,.F.);
#421=ORIENTED_EDGE('',*,*,#334,.F.);
#422=ORIENTED_EDGE('',*,*,#326,.F.);
#423=ORIENTED_EDGE('',*,*,#327,.F.);
#424=ORIENTED_EDGE('',*,*,#334,.T.);
#425=ORIENTED_EDGE('',*,*,#335,.F.);
#426=ORIENTED_EDGE('',*,*,#323,.F.);
#427=ORIENTED_EDGE('',*,*,#325,.F.);
#428=ORIENTED_EDGE('',*,*,#332,.F.);
#429=ORIENTED_EDGE('',*,*,#336,.F.);
#430=ORIENTED_EDGE('',*,*,#329,.T.);
#431=ORIENTED_EDGE('',*,*,#317,.T.);
#432=ORIENTED_EDGE('',*,*,#324,.T.);
#433=ORIENTED_EDGE('',*,*,#335,.T.);
#434=ORIENTED_EDGE('',*,*,#333,.T.);
#435=ORIENTED_EDGE('',*,*,#295,.T.);
#436=ORIENTED_EDGE('',*,*,#298,.T.);
#437=ORIENTED_EDGE('',*,*,#301,.T.);
#438=ORIENTED_EDGE('',*,*,#304,.T.);
#439=ORIENTED_EDGE('',*,*,#331,.T.);
#440=ORIENTED_EDGE('',*,*,#337,.F.);
#441=ORIENTED_EDGE('',*,*,#338,.F.);
#442=ORIENTED_EDGE('',*,*,#339,.F.);
#443=ORIENTED_EDGE('',*,*,#319,.T.);
#444=ORIENTED_EDGE('',*,*,#340,.T.);
#445=ORIENTED_EDGE('',*,*,#341,.T.);
#446=ORIENTED_EDGE('',*,*,#337,.T.);
#447=ORIENTED_EDGE('',*,*,#307,.T.);
#448=ORIENTED_EDGE('',*,*,#310,.T.);
#449=ORIENTED_EDGE('',*,*,#313,.T.);
#450=ORIENTED_EDGE('',*,*,#316,.T.);
#451=ORIENTED_EDGE('',*,*,#330,.T.);
#452=ORIENTED_EDGE('',*,*,#342,.F.);
#453=ORIENTED_EDGE('',*,*,#343,.T.);
#454=ORIENTED_EDGE('',*,*,#340,.F.);
#455=ORIENTED_EDGE('',*,*,#344,.F.);
#456=ORIENTED_EDGE('',*,*,#338,.T.);
#457=ORIENTED_EDGE('',*,*,#341,.F.);
#458=ORIENTED_EDGE('',*,*,#343,.F.);
#459=ORIENTED_EDGE('',*,*,#336,.T.);
#460=ORIENTED_EDGE('',*,*,#339,.T.);
#461=ORIENTED_EDGE('',*,*,#344,.T.);
#462=ORIENTED_EDGE('',*,*,#342,.T.);
#463=ORIENTED_EDGE('',*,*,#305,.T.);
#464=ORIENTED_EDGE('',*,*,#308,.T.);
#465=ORIENTED_EDGE('',*,*,#311,.T.);
#466=ORIENTED_EDGE('',*,*,#314,.T.);
#467=ORIENTED_EDGE('',*,*,#345,.F.);
#468=ORIENTED_EDGE('',*,*,#346,.F.);
#469=ORIENTED_EDGE('',*,*,#347,.F.);
#470=ORIENTED_EDGE('',*,*,#348,.F.);
#471=ORIENTED_EDGE('',*,*,#349,.F.);
#472=ORIENTED_EDGE('',*,*,#350,.F.);
#473=ORIENTED_EDGE('',*,*,#351,.F.);
#474=ORIENTED_EDGE('',*,*,#352,.F.);
#475=ORIENTED_EDGE('',*,*,#352,.T.);
#476=ORIENTED_EDGE('',*,*,#353,.F.);
#477=ORIENTED_EDGE('',*,*,#354,.T.);
#478=ORIENTED_EDGE('',*,*,#355,.F.);
#479=ORIENTED_EDGE('',*,*,#347,.T.);
#480=ORIENTED_EDGE('',*,*,#356,.T.);
#481=ORIENTED_EDGE('',*,*,#357,.T.);
#482=ORIENTED_EDGE('',*,*,#353,.T.);
#483=ORIENTED_EDGE('',*,*,#351,.T.);
#484=ORIENTED_EDGE('',*,*,#358,.F.);
#485=ORIENTED_EDGE('',*,*,#348,.T.);
#486=ORIENTED_EDGE('',*,*,#358,.T.);
#487=ORIENTED_EDGE('',*,*,#350,.T.);
#488=ORIENTED_EDGE('',*,*,#359,.T.);
#489=ORIENTED_EDGE('',*,*,#346,.T.);
#490=ORIENTED_EDGE('',*,*,#360,.F.);
#491=ORIENTED_EDGE('',*,*,#361,.F.);
#492=ORIENTED_EDGE('',*,*,#356,.F.);
#493=ORIENTED_EDGE('',*,*,#361,.T.);
#494=ORIENTED_EDGE('',*,*,#362,.F.);
#495=ORIENTED_EDGE('',*,*,#354,.F.);
#496=ORIENTED_EDGE('',*,*,#357,.F.);
#497=ORIENTED_EDGE('',*,*,#345,.T.);
#498=ORIENTED_EDGE('',*,*,#359,.F.);
#499=ORIENTED_EDGE('',*,*,#349,.T.);
#500=ORIENTED_EDGE('',*,*,#355,.T.);
#501=ORIENTED_EDGE('',*,*,#362,.T.);
#502=ORIENTED_EDGE('',*,*,#360,.T.);
#503=CYLINDRICAL_SURFACE('',#558,6.75);
#504=CYLINDRICAL_SURFACE('',#561,6.75);
#505=CYLINDRICAL_SURFACE('',#564,6.75);
#506=CYLINDRICAL_SURFACE('',#567,6.75);
#507=CYLINDRICAL_SURFACE('',#570,6.75);
#508=CYLINDRICAL_SURFACE('',#573,6.75);
#509=CYLINDRICAL_SURFACE('',#576,6.75);
#510=CYLINDRICAL_SURFACE('',#579,6.75);
#511=CYLINDRICAL_SURFACE('',#582,4.);
#512=CYLINDRICAL_SURFACE('',#593,8.);
#513=ADVANCED_FACE('',(#53),#503,.F.);
#514=ADVANCED_FACE('',(#54),#504,.F.);
#515=ADVANCED_FACE('',(#55),#505,.F.);
#516=ADVANCED_FACE('',(#56),#506,.F.);
#517=ADVANCED_FACE('',(#57),#507,.F.);
#518=ADVANCED_FACE('',(#58),#508,.F.);
#519=ADVANCED_FACE('',(#59),#509,.F.);
#520=ADVANCED_FACE('',(#60),#510,.F.);
#521=ADVANCED_FACE('',(#61),#511,.F.);
#522=ADVANCED_FACE('',(#62),#33,.T.);
#523=ADVANCED_FACE('',(#63,#17,#18,#19,#20),#34,.T.);
#524=ADVANCED_FACE('',(#64),#35,.T.);
#525=ADVANCED_FACE('',(#65),#36,.T.);
#526=ADVANCED_FACE('',(#66),#37,.T.);
#527=ADVANCED_FACE('',(#67),#38,.T.);
#528=ADVANCED_FACE('',(#68),#512,.T.);
#529=ADVANCED_FACE('',(#69,#21,#22,#23,#24),#39,.T.);
#530=ADVANCED_FACE('',(#70),#40,.T.);
#531=ADVANCED_FACE('',(#71,#25,#26,#27,#28),#41,.T.);
#532=ADVANCED_FACE('',(#72),#42,.T.);
#533=ADVANCED_FACE('',(#73),#43,.T.);
#534=ADVANCED_FACE('',(#74,#29,#30,#31,#32),#44,.F.);
#535=ADVANCED_FACE('',(#75),#45,.F.);
#536=ADVANCED_FACE('',(#76),#46,.F.);
#537=ADVANCED_FACE('',(#77),#47,.T.);
#538=ADVANCED_FACE('',(#78),#48,.T.);
#539=ADVANCED_FACE('',(#79),#49,.T.);
#540=ADVANCED_FACE('',(#80),#50,.T.);
#541=ADVANCED_FACE('',(#81),#51,.T.);
#542=ADVANCED_FACE('',(#82),#52,.T.);
#543=CLOSED_SHELL('',(#513,#514,#515,#516,#517,#518,#519,#520,#521,#522,
#523,#524,#525,#526,#527,#528,#529,#530,#531,#532,#533,#534));
#544=CLOSED_SHELL('',(#535,#536,#537,#538,#539,#540,#541,#542));
#545=DERIVED_UNIT_ELEMENT(#547,1.);
#546=DERIVED_UNIT_ELEMENT(#910,-3.);
#547=(
MASS_UNIT()
NAMED_UNIT(*)
SI_UNIT(.KILO.,.GRAM.)
);
#548=DERIVED_UNIT((#545,#546));
#549=MEASURE_REPRESENTATION_ITEM('density measure',
POSITIVE_RATIO_MEASURE(7850.),#548);
#550=PROPERTY_DEFINITION_REPRESENTATION(#555,#552);
#551=PROPERTY_DEFINITION_REPRESENTATION(#556,#553);
#552=REPRESENTATION('material name',(#554),#907);
#553=REPRESENTATION('density',(#549),#907);
#554=DESCRIPTIVE_REPRESENTATION_ITEM('Steel','Steel');
#555=PROPERTY_DEFINITION('material property','material name',#917);
#556=PROPERTY_DEFINITION('material property','density of part',#917);
#557=AXIS2_PLACEMENT_3D('',#760,#608,#609);
#558=AXIS2_PLACEMENT_3D('',#761,#610,#611);
#559=AXIS2_PLACEMENT_3D('',#763,#612,#613);
#560=AXIS2_PLACEMENT_3D('',#766,#615,#616);
#561=AXIS2_PLACEMENT_3D('',#767,#617,#618);
#562=AXIS2_PLACEMENT_3D('',#769,#619,#620);
#563=AXIS2_PLACEMENT_3D('',#772,#622,#623);
#564=AXIS2_PLACEMENT_3D('',#773,#624,#625);
#565=AXIS2_PLACEMENT_3D('',#775,#626,#627);
#566=AXIS2_PLACEMENT_3D('',#778,#629,#630);
#567=AXIS2_PLACEMENT_3D('',#779,#631,#632);
#568=AXIS2_PLACEMENT_3D('',#781,#633,#634);
#569=AXIS2_PLACEMENT_3D('',#784,#636,#637);
#570=AXIS2_PLACEMENT_3D('',#785,#638,#639);
#571=AXIS2_PLACEMENT_3D('',#787,#640,#641);
#572=AXIS2_PLACEMENT_3D('',#790,#643,#644);
#573=AXIS2_PLACEMENT_3D('',#791,#645,#646);
#574=AXIS2_PLACEMENT_3D('',#793,#647,#648);
#575=AXIS2_PLACEMENT_3D('',#796,#650,#651);
#576=AXIS2_PLACEMENT_3D('',#797,#652,#653);
#577=AXIS2_PLACEMENT_3D('',#799,#654,#655);
#578=AXIS2_PLACEMENT_3D('',#802,#657,#658);
#579=AXIS2_PLACEMENT_3D('',#803,#659,#660);
#580=AXIS2_PLACEMENT_3D('',#805,#661,#662);
#581=AXIS2_PLACEMENT_3D('',#808,#664,#665);
#582=AXIS2_PLACEMENT_3D('',#809,#666,#667);
#583=AXIS2_PLACEMENT_3D('',#814,#669,#670);
#584=AXIS2_PLACEMENT_3D('',#817,#672,#673);
#585=AXIS2_PLACEMENT_3D('',#818,#674,#675);
#586=AXIS2_PLACEMENT_3D('',#826,#680,#681);
#587=AXIS2_PLACEMENT_3D('',#832,#685,#686);
#588=AXIS2_PLACEMENT_3D('',#835,#688,#689);
#589=AXIS2_PLACEMENT_3D('',#837,#691,#692);
#590=AXIS2_PLACEMENT_3D('',#840,#694,#695);
#591=AXIS2_PLACEMENT_3D('',#841,#696,#697);
#592=AXIS2_PLACEMENT_3D('',#845,#700,#701);
#593=AXIS2_PLACEMENT_3D('',#847,#703,#704);
#594=AXIS2_PLACEMENT_3D('',#849,#706,#707);
#595=AXIS2_PLACEMENT_3D('',#850,#708,#709);
#596=AXIS2_PLACEMENT_3D('',#856,#713,#714);
#597=AXIS2_PLACEMENT_3D('',#860,#717,#718);
#598=AXIS2_PLACEMENT_3D('',#864,#721,#722);
#599=AXIS2_PLACEMENT_3D('',#866,#724,#725);
#600=AXIS2_PLACEMENT_3D('',#867,#726,#727);
#601=AXIS2_PLACEMENT_3D('',#876,#732,#733);
#602=AXIS2_PLACEMENT_3D('',#885,#738,#739);
#603=AXIS2_PLACEMENT_3D('',#891,#743,#744);
#604=AXIS2_PLACEMENT_3D('',#896,#748,#749);
#605=AXIS2_PLACEMENT_3D('',#898,#751,#752);
#606=AXIS2_PLACEMENT_3D('',#902,#755,#756);
#607=AXIS2_PLACEMENT_3D('',#904,#758,#759);
#608=DIRECTION('axis',(0.,0.,1.));
#609=DIRECTION('refdir',(1.,0.,0.));
#610=DIRECTION('center_axis',(0.,0.,1.));
#611=DIRECTION('ref_axis',(-1.,0.,0.));
#612=DIRECTION('center_axis',(0.,-6.57573564644721E-17,1.));
#613=DIRECTION('ref_axis',(-1.,0.,0.));
#614=DIRECTION('',(0.,0.,1.));
#615=DIRECTION('center_axis',(0.,-6.12323399573677E-17,-1.));
#616=DIRECTION('ref_axis',(-1.,0.,0.));
#617=DIRECTION('center_axis',(0.,0.,1.));
#618=DIRECTION('ref_axis',(-1.,0.,0.));
#619=DIRECTION('center_axis',(0.,-6.57573564644721E-17,1.));
#620=DIRECTION('ref_axis',(-1.,0.,0.));
#621=DIRECTION('',(0.,0.,1.));
#622=DIRECTION('center_axis',(0.,-6.12323399573677E-17,-1.));
#623=DIRECTION('ref_axis',(-1.,0.,0.));
#624=DIRECTION('center_axis',(0.,0.,1.));
#625=DIRECTION('ref_axis',(-1.,0.,0.));
#626=DIRECTION('center_axis',(0.,-6.57573564644721E-17,1.));
#627=DIRECTION('ref_axis',(-1.,0.,0.));
#628=DIRECTION('',(0.,0.,1.));
#629=DIRECTION('center_axis',(0.,-6.12323399573677E-17,-1.));
#630=DIRECTION('ref_axis',(-1.,0.,0.));
#631=DIRECTION('center_axis',(0.,0.,1.));
#632=DIRECTION('ref_axis',(-1.,0.,0.));
#633=DIRECTION('center_axis',(0.,-6.57573564644721E-17,1.));
#634=DIRECTION('ref_axis',(-1.,0.,0.));
#635=DIRECTION('',(0.,0.,1.));
#636=DIRECTION('center_axis',(0.,-6.12323399573677E-17,-1.));
#637=DIRECTION('ref_axis',(-1.,0.,0.));
#638=DIRECTION('center_axis',(0.,1.,0.));
#639=DIRECTION('ref_axis',(0.,0.,-1.));
#640=DIRECTION('center_axis',(0.,1.,0.));
#641=DIRECTION('ref_axis',(0.,0.,-1.));
#642=DIRECTION('',(0.,1.,0.));
#643=DIRECTION('center_axis',(0.,-1.,0.));
#644=DIRECTION('ref_axis',(0.,0.,-1.));
#645=DIRECTION('center_axis',(0.,1.,0.));
#646=DIRECTION('ref_axis',(0.,0.,-1.));
#647=DIRECTION('center_axis',(0.,1.,0.));
#648=DIRECTION('ref_axis',(0.,0.,-1.));
#649=DIRECTION('',(0.,1.,0.));
#650=DIRECTION('center_axis',(0.,-1.,0.));
#651=DIRECTION('ref_axis',(0.,0.,-1.));
#652=DIRECTION('center_axis',(0.,1.,0.));
#653=DIRECTION('ref_axis',(0.,0.,-1.));
#654=DIRECTION('center_axis',(0.,1.,0.));
#655=DIRECTION('ref_axis',(0.,0.,-1.));
#656=DIRECTION('',(0.,1.,0.));
#657=DIRECTION('center_axis',(0.,-1.,0.));
#658=DIRECTION('ref_axis',(0.,0.,-1.));
#659=DIRECTION('center_axis',(0.,1.,0.));
#660=DIRECTION('ref_axis',(0.,0.,-1.));
#661=DIRECTION('center_axis',(0.,1.,0.));
#662=DIRECTION('ref_axis',(0.,0.,-1.));
#663=DIRECTION('',(0.,1.,0.));
#664=DIRECTION('center_axis',(0.,-1.,0.));
#665=DIRECTION('ref_axis',(0.,0.,-1.));
#666=DIRECTION('center_axis',(1.,0.,0.));
#667=DIRECTION('ref_axis',(0.,-1.,0.));
#668=DIRECTION('',(1.,0.,0.));
#669=DIRECTION('center_axis',(-1.,0.,0.));
#670=DIRECTION('ref_axis',(0.,0.,-1.));
#671=DIRECTION('',(-1.,0.,0.));
#672=DIRECTION('center_axis',(1.,0.,0.));
#673=DIRECTION('ref_axis',(0.,-1.,-2.77555756156289E-16));
#674=DIRECTION('center_axis',(1.,0.,0.));
#675=DIRECTION('ref_axis',(0.,1.,1.92747052886312E-16));
#676=DIRECTION('',(0.,-6.12323399573677E-17,-1.));
#677=DIRECTION('',(0.,1.,1.92747052886312E-16));
#678=DIRECTION('',(0.,6.12323399573677E-17,1.));
#679=DIRECTION('',(0.,1.,1.92747052886312E-16));
#680=DIRECTION('center_axis',(0.,6.57573564644721E-17,-1.));
#681=DIRECTION('ref_axis',(0.,1.,6.57573564644721E-17));
#682=DIRECTION('',(-1.,0.,0.));
#683=DIRECTION('',(0.,1.,1.92747052886312E-16));
#684=DIRECTION('',(1.,0.,0.));
#685=DIRECTION('center_axis',(-1.,0.,0.));
#686=DIRECTION('ref_axis',(0.,0.,1.));
#687=DIRECTION('',(0.,6.12323399573677E-17,1.));
#688=DIRECTION('center_axis',(1.,0.,0.));
#689=DIRECTION('ref_axis',(0.,-1.,-2.77555756156289E-16));
#690=DIRECTION('',(0.,-1.,0.));
#691=DIRECTION('center_axis',(1.,0.,0.));
#692=DIRECTION('ref_axis',(0.,0.,-1.));
#693=DIRECTION('',(0.,1.,0.));
#694=DIRECTION('center_axis',(1.,0.,0.));
#695=DIRECTION('ref_axis',(0.,-1.,-2.77555756156289E-16));
#696=DIRECTION('center_axis',(-1.,0.,0.));
#697=DIRECTION('ref_axis',(0.,-1.,6.12323399573677E-17));
#698=DIRECTION('',(0.,-1.,6.12323399573677E-17));
#699=DIRECTION('',(0.,6.12323399573677E-17,1.));
#700=DIRECTION('center_axis',(0.,1.,-6.12323399573677E-17));
#701=DIRECTION('ref_axis',(-1.,0.,0.));
#702=DIRECTION('',(-1.,0.,0.));
#703=DIRECTION('center_axis',(1.,0.,0.));
#704=DIRECTION('ref_axis',(0.,-1.,0.));
#705=DIRECTION('',(1.,0.,0.));
#706=DIRECTION('center_axis',(0.,6.12323399573677E-17,1.));
#707=DIRECTION('ref_axis',(0.,-1.,6.12323399573677E-17));
#708=DIRECTION('center_axis',(1.,0.,0.));
#709=DIRECTION('ref_axis',(0.,0.,-1.));
#710=DIRECTION('',(0.,0.,-1.));
#711=DIRECTION('',(0.,1.,0.));
#712=DIRECTION('',(0.,0.,1.));
#713=DIRECTION('center_axis',(0.,1.,0.));
#714=DIRECTION('ref_axis',(0.,0.,1.));
#715=DIRECTION('',(0.,0.,1.));
#716=DIRECTION('',(1.,0.,0.));
#717=DIRECTION('center_axis',(-1.,0.,0.));
#718=DIRECTION('ref_axis',(0.,0.,1.));
#719=DIRECTION('',(0.,0.,-1.));
#720=DIRECTION('',(0.,1.,0.));
#721=DIRECTION('center_axis',(0.,0.,1.));
#722=DIRECTION('ref_axis',(1.,0.,0.));
#723=DIRECTION('',(-1.,0.,0.));
#724=DIRECTION('center_axis',(0.,1.,0.));
#725=DIRECTION('ref_axis',(1.,0.,0.));
#726=DIRECTION('center_axis',(0.,1.,0.));
#727=DIRECTION('ref_axis',(0.,0.,-1.));
#728=DIRECTION('',(0.,0.,-1.));
#729=DIRECTION('',(1.,0.,0.));
#730=DIRECTION('',(0.,0.,1.));
#731=DIRECTION('',(-1.,0.,0.));
#732=DIRECTION('center_axis',(0.,-1.92747052886312E-16,1.));
#733=DIRECTION('ref_axis',(0.,1.,1.92747052886312E-16));
#734=DIRECTION('',(0.,1.,1.92747052886312E-16));
#735=DIRECTION('',(1.,0.,0.));
#736=DIRECTION('',(0.,-1.,-1.92747052886312E-16));
#737=DIRECTION('',(-1.,0.,0.));
#738=DIRECTION('center_axis',(0.,1.,0.));
#739=DIRECTION('ref_axis',(0.,0.,1.));
#740=DIRECTION('',(0.,0.,-1.));
#741=DIRECTION('',(1.,0.,0.));
#742=DIRECTION('',(0.,0.,1.));
#743=DIRECTION('center_axis',(-1.,0.,0.));
#744=DIRECTION('ref_axis',(0.,0.,1.));
#745=DIRECTION('',(0.,1.,0.));
#746=DIRECTION('',(0.,0.707106781186547,-0.707106781186547));
#747=DIRECTION('',(0.,0.707106781186548,-0.707106781186548));
#748=DIRECTION('center_axis',(0.,-0.707106781186548,-0.707106781186548));
#749=DIRECTION('ref_axis',(-1.,0.,0.));
#750=DIRECTION('',(0.,-0.707106781186548,0.707106781186548));
#751=DIRECTION('center_axis',(0.,0.,1.));
#752=DIRECTION('ref_axis',(0.,-1.,0.));
#753=DIRECTION('',(0.,-1.,0.));
#754=DIRECTION('',(1.,0.,0.));
#755=DIRECTION('center_axis',(0.,0.707106781186548,0.707106781186548));
#756=DIRECTION('ref_axis',(0.,-0.707106781186548,0.707106781186548));
#757=DIRECTION('',(0.,-0.707106781186547,0.707106781186547));
#758=DIRECTION('center_axis',(1.,0.,0.));
#759=DIRECTION('ref_axis',(0.,0.,-1.));
#760=CARTESIAN_POINT('',(0.,0.,0.));
#761=CARTESIAN_POINT('Origin',(-25.,40.,68.75));
#762=CARTESIAN_POINT('',(-18.25,40.,8.88178419700125E-15));
#763=CARTESIAN_POINT('Origin',(-25.,40.,0.));
#764=CARTESIAN_POINT('',(-18.25,40.,3.99999999999999));
#765=CARTESIAN_POINT('',(-18.25,40.,68.75));
#766=CARTESIAN_POINT('Origin',(-25.,40.,3.99999999999999));
#767=CARTESIAN_POINT('Origin',(25.,110.,68.75));
#768=CARTESIAN_POINT('',(31.75,110.,8.88178419700125E-15));
#769=CARTESIAN_POINT('Origin',(25.,110.,0.));
#770=CARTESIAN_POINT('',(31.75,110.,3.99999999999999));
#771=CARTESIAN_POINT('',(31.75,110.,68.75));
#772=CARTESIAN_POINT('Origin',(25.,110.,3.99999999999999));
#773=CARTESIAN_POINT('Origin',(-25.,110.,68.75));
#774=CARTESIAN_POINT('',(-18.25,110.,8.88178419700125E-15));
#775=CARTESIAN_POINT('Origin',(-25.,110.,0.));
#776=CARTESIAN_POINT('',(-18.25,110.,3.99999999999999));
#777=CARTESIAN_POINT('',(-18.25,110.,68.75));
#778=CARTESIAN_POINT('Origin',(-25.,110.,3.99999999999999));
#779=CARTESIAN_POINT('Origin',(25.,40.,68.75));
#780=CARTESIAN_POINT('',(31.75,40.,8.88178419700125E-15));
#781=CARTESIAN_POINT('Origin',(25.,40.,0.));
#782=CARTESIAN_POINT('',(31.75,40.,3.99999999999999));
#783=CARTESIAN_POINT('',(31.75,40.,68.75));
#784=CARTESIAN_POINT('Origin',(25.,40.,3.99999999999999));
#785=CARTESIAN_POINT('Origin',(-30.,68.75,100.));
#786=CARTESIAN_POINT('',(-30.,8.88178419700125E-15,106.75));
#787=CARTESIAN_POINT('Origin',(-30.,0.,100.));
#788=CARTESIAN_POINT('',(-30.,4.,106.75));
#789=CARTESIAN_POINT('',(-30.,68.75,106.75));
#790=CARTESIAN_POINT('Origin',(-30.,4.,100.));
#791=CARTESIAN_POINT('Origin',(30.,68.75,100.));
#792=CARTESIAN_POINT('',(30.,8.88178419700125E-15,106.75));
#793=CARTESIAN_POINT('Origin',(30.,0.,100.));
#794=CARTESIAN_POINT('',(30.,4.,106.75));
#795=CARTESIAN_POINT('',(30.,68.75,106.75));
#796=CARTESIAN_POINT('Origin',(30.,4.,100.));
#797=CARTESIAN_POINT('Origin',(30.,68.75,50.));
#798=CARTESIAN_POINT('',(30.,8.88178419700125E-15,56.75));
#799=CARTESIAN_POINT('Origin',(30.,0.,50.));
#800=CARTESIAN_POINT('',(30.,4.,56.75));
#801=CARTESIAN_POINT('',(30.,68.75,56.75));
#802=CARTESIAN_POINT('Origin',(30.,4.,50.));
#803=CARTESIAN_POINT('Origin',(-30.,68.75,50.));
#804=CARTESIAN_POINT('',(-30.,8.88178419700125E-15,56.75));
#805=CARTESIAN_POINT('Origin',(-30.,0.,50.));
#806=CARTESIAN_POINT('',(-30.,4.,56.75));
#807=CARTESIAN_POINT('',(-30.,68.75,56.75));
#808=CARTESIAN_POINT('Origin',(-30.,4.,50.));
#809=CARTESIAN_POINT('Origin',(0.,8.,8.));
#810=CARTESIAN_POINT('',(-50.,8.,4.));
#811=CARTESIAN_POINT('',(50.,8.,4.));
#812=CARTESIAN_POINT('',(0.,8.,4.));
#813=CARTESIAN_POINT('',(-50.,4.,8.));
#814=CARTESIAN_POINT('Origin',(-50.,8.,8.));
#815=CARTESIAN_POINT('',(50.,4.,8.));
#816=CARTESIAN_POINT('',(-25.,4.,8.));
#817=CARTESIAN_POINT('Origin',(50.,8.,8.));
#818=CARTESIAN_POINT('Origin',(50.,-1.0477868423386,-5.41764592899634E-16));
#819=CARTESIAN_POINT('',(50.,8.,1.20216965610468E-15));
#820=CARTESIAN_POINT('',(50.,8.,1.12));
#821=CARTESIAN_POINT('',(50.,125.,-5.84165778688421E-15));
#822=CARTESIAN_POINT('',(50.,-10.0955736846772,-2.28569884190395E-15));
#823=CARTESIAN_POINT('',(50.,125.,3.99999999999999));
#824=CARTESIAN_POINT('',(50.,125.,-5.84165778688421E-15));
#825=CARTESIAN_POINT('',(50.,-10.0955736846772,4.));
#826=CARTESIAN_POINT('Origin',(0.,61.9761065788307,-2.58565996537135E-15));
#827=CARTESIAN_POINT('',(-50.,8.,1.20216965610468E-15));
#828=CARTESIAN_POINT('',(0.,8.,-6.03160719749315E-15));
#829=CARTESIAN_POINT('',(-50.,125.,-5.84165778688421E-15));
#830=CARTESIAN_POINT('',(-50.,-10.0955736846772,-2.28569884190395E-15));
#831=CARTESIAN_POINT('',(-50.,125.,-5.84165778688421E-15));
#832=CARTESIAN_POINT('Origin',(-50.,8.,1.11022302462516E-15));
#833=CARTESIAN_POINT('',(-50.,8.,1.12));
#834=CARTESIAN_POINT('',(-50.,0.,8.));
#835=CARTESIAN_POINT('Origin',(-50.,8.,8.));
#836=CARTESIAN_POINT('',(-50.,0.,8.));
#837=CARTESIAN_POINT('Origin',(50.,8.,4.));
#838=CARTESIAN_POINT('',(50.,0.,8.));
#839=CARTESIAN_POINT('',(50.,0.,8.00000000000001));
#840=CARTESIAN_POINT('Origin',(50.,8.,8.));
#841=CARTESIAN_POINT('Origin',(-50.,125.,-5.84165778688421E-15));
#842=CARTESIAN_POINT('',(-50.,125.,3.99999999999999));
#843=CARTESIAN_POINT('',(-50.,8.,4.));
#844=CARTESIAN_POINT('',(-50.,125.,-5.84165778688421E-15));
#845=CARTESIAN_POINT('Origin',(50.,125.,-5.84165778688421E-15));
#846=CARTESIAN_POINT('',(-50.,125.,3.99999999999999));
#847=CARTESIAN_POINT('Origin',(0.,8.,8.));
#848=CARTESIAN_POINT('',(-25.,0.,8.));
#849=CARTESIAN_POINT('Origin',(0.,61.9761065788307,4.));
#850=CARTESIAN_POINT('Origin',(50.,0.,125.));
#851=CARTESIAN_POINT('',(50.,4.,125.));
#852=CARTESIAN_POINT('',(50.,4.,0.));
#853=CARTESIAN_POINT('',(50.,0.,125.));
#854=CARTESIAN_POINT('',(50.,0.,125.));
#855=CARTESIAN_POINT('',(50.,0.,0.));
#856=CARTESIAN_POINT('Origin',(0.,4.,62.5));
#857=CARTESIAN_POINT('',(-50.,4.,125.));
#858=CARTESIAN_POINT('',(-50.,4.,125.));
#859=CARTESIAN_POINT('',(50.,4.,125.));
#860=CARTESIAN_POINT('Origin',(-50.,0.,0.));
#861=CARTESIAN_POINT('',(-50.,0.,125.));
#862=CARTESIAN_POINT('',(-50.,0.,125.));
#863=CARTESIAN_POINT('',(-50.,0.,125.));
#864=CARTESIAN_POINT('Origin',(-50.,0.,125.));
#865=CARTESIAN_POINT('',(50.,0.,125.));
#866=CARTESIAN_POINT('Origin',(0.,0.,62.5));
#867=CARTESIAN_POINT('Origin',(50.,4.,125.));
#868=CARTESIAN_POINT('',(2.,4.,125.));
#869=CARTESIAN_POINT('',(2.,4.,21.));
#870=CARTESIAN_POINT('',(2.,4.,93.75));
#871=CARTESIAN_POINT('',(-2.,4.,125.));
#872=CARTESIAN_POINT('',(25.,4.,125.));
#873=CARTESIAN_POINT('',(-2.,4.,21.));
#874=CARTESIAN_POINT('',(-2.,4.,93.75));
#875=CARTESIAN_POINT('',(25.,4.,21.));
#876=CARTESIAN_POINT('Origin',(50.,8.,4.));
#877=CARTESIAN_POINT('',(2.,21.,4.));
#878=CARTESIAN_POINT('',(2.,125.,4.00000000000002));
#879=CARTESIAN_POINT('',(2.,35.25,4.00000000000001));
#880=CARTESIAN_POINT('',(-2.,21.,4.));
#881=CARTESIAN_POINT('',(25.,21.,4.));
#882=CARTESIAN_POINT('',(-2.,125.,3.99999999999999));
#883=CARTESIAN_POINT('',(-2.,35.25,4.00000000000001));
#884=CARTESIAN_POINT('',(25.,125.,4.00000000000002));
#885=CARTESIAN_POINT('Origin',(0.,125.,0.));
#886=CARTESIAN_POINT('',(-2.,125.,20.));
#887=CARTESIAN_POINT('',(-2.,125.,0.));
#888=CARTESIAN_POINT('',(2.,125.,20.));
#889=CARTESIAN_POINT('',(0.,125.,20.));
#890=CARTESIAN_POINT('',(2.,125.,0.));
#891=CARTESIAN_POINT('Origin',(-2.,62.5,62.5));
#892=CARTESIAN_POINT('',(-2.,20.,125.));
#893=CARTESIAN_POINT('',(-2.,20.,125.));
#894=CARTESIAN_POINT('',(-2.,125.,20.));
#895=CARTESIAN_POINT('',(-2.,12.5,12.5));
#896=CARTESIAN_POINT('Origin',(0.,12.5,12.5));
#897=CARTESIAN_POINT('',(2.,12.5,12.5));
#898=CARTESIAN_POINT('Origin',(0.,20.,125.));
#899=CARTESIAN_POINT('',(2.,20.,125.));
#900=CARTESIAN_POINT('',(2.,20.,125.));
#901=CARTESIAN_POINT('',(0.,20.,125.));
#902=CARTESIAN_POINT('Origin',(0.,125.,20.));
#903=CARTESIAN_POINT('',(2.,125.,20.));
#904=CARTESIAN_POINT('Origin',(2.,62.5,62.5));
#905=UNCERTAINTY_MEASURE_WITH_UNIT(LENGTH_MEASURE(0.01),#909,
'DISTANCE_ACCURACY_VALUE',
'Maximum model space distance between geometric entities at asserted c
onnectivities');
#906=UNCERTAINTY_MEASURE_WITH_UNIT(LENGTH_MEASURE(0.01),#909,
'DISTANCE_ACCURACY_VALUE',
'Maximum model space distance between geometric entities at asserted c
onnectivities');
#907=(
GEOMETRIC_REPRESENTATION_CONTEXT(3)
GLOBAL_UNCERTAINTY_ASSIGNED_CONTEXT((#905))
GLOBAL_UNIT_ASSIGNED_CONTEXT((#909,#911,#912))
REPRESENTATION_CONTEXT('','3D')
);
#908=(
GEOMETRIC_REPRESENTATION_CONTEXT(3)
GLOBAL_UNCERTAINTY_ASSIGNED_CONTEXT((#906))
GLOBAL_UNIT_ASSIGNED_CONTEXT((#909,#911,#912))
REPRESENTATION_CONTEXT('','3D')
);
#909=(
LENGTH_UNIT()
NAMED_UNIT(*)
SI_UNIT(.MILLI.,.METRE.)
);
#910=(
LENGTH_UNIT()
NAMED_UNIT(*)
SI_UNIT($,.METRE.)
);
#911=(
NAMED_UNIT(*)
PLANE_ANGLE_UNIT()
SI_UNIT($,.RADIAN.)
);
#912=(
NAMED_UNIT(*)
SI_UNIT($,.STERADIAN.)
SOLID_ANGLE_UNIT()
);
#913=SHAPE_DEFINITION_REPRESENTATION(#914,#915);
#914=PRODUCT_DEFINITION_SHAPE('',$,#917);
#915=SHAPE_REPRESENTATION('',(#557),#907);
#916=PRODUCT_DEFINITION_CONTEXT('part definition',#921,'design');
#917=PRODUCT_DEFINITION('gusset plate lower','gusset plate lower v2',#918,
#916);
#918=PRODUCT_DEFINITION_FORMATION('',$,#923);
#919=PRODUCT_RELATED_PRODUCT_CATEGORY('gusset plate lower v2',
'gusset plate lower v2',(#923));
#920=APPLICATION_PROTOCOL_DEFINITION('international standard',
'automotive_design',2009,#921);
#921=APPLICATION_CONTEXT(
'Core Data for Automotive Mechanical Design Process');
#922=PRODUCT_CONTEXT('part definition',#921,'mechanical');
#923=PRODUCT('gusset plate lower','gusset plate lower v2',$,(#922));
#924=PRESENTATION_STYLE_ASSIGNMENT((#925));
#925=SURFACE_STYLE_USAGE(.BOTH.,#926);
#926=SURFACE_SIDE_STYLE('',(#927));
#927=SURFACE_STYLE_FILL_AREA(#928);
#928=FILL_AREA_STYLE('Steel - Satin',(#929));
#929=FILL_AREA_STYLE_COLOUR('Steel - Satin',#930);
#930=COLOUR_RGB('Steel - Satin',0.627450980392157,0.627450980392157,0.627450980392157);
ENDSEC;
END-ISO-10303-21;
