ISO-10303-21;
HEADER;
/* Generated by software containing ST-Developer
 * from STEP Tools, Inc. (www.steptools.com) 
 */

FILE_DESCRIPTION(
/* description */ (''),
/* implementation_level */ '2;1');

FILE_NAME(
/* name */ 'Iso K 160 extension tube v2.step',
/* time_stamp */ '2024-06-14T15:37:48+02:00',
/* author */ (''),
/* organization */ (''),
/* preprocessor_version */ 'ST-DEVELOPER v20',
/* originating_system */ 'Autodesk Translation Framework v13.14.0.145',

/* authorisation */ '');

FILE_SCHEMA (('AUTOMOTIVE_DESIGN { 1 0 10303 214 3 1 1 }'));
ENDSEC;

DATA;
#10=MECHANICAL_DESIGN_GEOMETRIC_PRESENTATION_REPRESENTATION('',(#23,#24),
#383);
#11=ITEM_DEFINED_TRANSFORMATION($,$,#219,#249);
#12=ITEM_DEFINED_TRANSFORMATION($,$,#219,#250);
#13=(
REPRESENTATION_RELATIONSHIP($,$,#395,#394)
REPRESENTATION_RELATIONSHIP_WITH_TRANSFORMATION(#11)
SHAPE_REPRESENTATION_RELATIONSHIP()
);
#14=(
REPRESENTATION_RELATIONSHIP($,$,#395,#394)
REPRESENTATION_RELATIONSHIP_WITH_TRANSFORMATION(#12)
SHAPE_REPRESENTATION_RELATIONSHIP()
);
#15=CONTEXT_DEPENDENT_SHAPE_REPRESENTATION(#13,#392);
#16=CONTEXT_DEPENDENT_SHAPE_REPRESENTATION(#14,#393);
#17=NEXT_ASSEMBLY_USAGE_OCCURRENCE('VAb_SF 160-K v1:1',
'VAb_SF 160-K v1:1','VAb_SF 160-K v1:1',#397,#398,'VAb_SF 160-K v1:1');
#18=NEXT_ASSEMBLY_USAGE_OCCURRENCE('VAb_SF 160-K v1:2',
'VAb_SF 160-K v1:2','VAb_SF 160-K v1:2',#397,#398,'VAb_SF 160-K v1:2');
#19=SHAPE_REPRESENTATION_RELATIONSHIP('SRR','None',#395,#21);
#20=SHAPE_REPRESENTATION_RELATIONSHIP('SRR','None',#394,#22);
#21=ADVANCED_BREP_SHAPE_REPRESENTATION('',(#25),#382);
#22=ADVANCED_BREP_SHAPE_REPRESENTATION('',(#26),#381);
#23=STYLED_ITEM('',(#409),#25);
#24=STYLED_ITEM('',(#408),#26);
#25=MANIFOLD_SOLID_BREP('Body1',#204);
#26=MANIFOLD_SOLID_BREP('Body1',#205);
#27=TOROIDAL_SURFACE('',#236,90.,2.5);
#28=FACE_BOUND('',#56,.T.);
#29=FACE_BOUND('',#59,.T.);
#30=FACE_BOUND('',#62,.T.);
#31=FACE_BOUND('',#66,.T.);
#32=FACE_BOUND('',#71,.T.);
#33=FACE_BOUND('',#73,.T.);
#34=PLANE('',#223);
#35=PLANE('',#227);
#36=PLANE('',#232);
#37=PLANE('',#238);
#38=PLANE('',#247);
#39=PLANE('',#248);
#40=FACE_OUTER_BOUND('',#54,.T.);
#41=FACE_OUTER_BOUND('',#55,.T.);
#42=FACE_OUTER_BOUND('',#57,.T.);
#43=FACE_OUTER_BOUND('',#58,.T.);
#44=FACE_OUTER_BOUND('',#60,.T.);
#45=FACE_OUTER_BOUND('',#61,.T.);
#46=FACE_OUTER_BOUND('',#63,.T.);
#47=FACE_OUTER_BOUND('',#64,.T.);
#48=FACE_OUTER_BOUND('',#65,.T.);
#49=FACE_OUTER_BOUND('',#67,.T.);
#50=FACE_OUTER_BOUND('',#68,.T.);
#51=FACE_OUTER_BOUND('',#69,.T.);
#52=FACE_OUTER_BOUND('',#70,.T.);
#53=FACE_OUTER_BOUND('',#72,.T.);
#54=EDGE_LOOP('',(#139,#140,#141,#142));
#55=EDGE_LOOP('',(#143));
#56=EDGE_LOOP('',(#144));
#57=EDGE_LOOP('',(#145,#146,#147,#148));
#58=EDGE_LOOP('',(#149));
#59=EDGE_LOOP('',(#150));
#60=EDGE_LOOP('',(#151,#152,#153,#154));
#61=EDGE_LOOP('',(#155));
#62=EDGE_LOOP('',(#156));
#63=EDGE_LOOP('',(#157,#158,#159,#160));
#64=EDGE_LOOP('',(#161,#162,#163,#164));
#65=EDGE_LOOP('',(#165));
#66=EDGE_LOOP('',(#166));
#67=EDGE_LOOP('',(#167,#168,#169,#170));
#68=EDGE_LOOP('',(#171,#172,#173,#174));
#69=EDGE_LOOP('',(#175,#176,#177,#178));
#70=EDGE_LOOP('',(#179));
#71=EDGE_LOOP('',(#180));
#72=EDGE_LOOP('',(#181));
#73=EDGE_LOOP('',(#182));
#74=LINE('',#330,#81);
#75=LINE('',#337,#82);
#76=LINE('',#346,#83);
#77=LINE('',#353,#84);
#78=LINE('',#361,#85);
#79=LINE('',#366,#86);
#80=LINE('',#372,#87);
#81=VECTOR('',#259,90.);
#82=VECTOR('',#268,76.5);
#83=VECTOR('',#279,88.);
#84=VECTOR('',#288,90.);
#85=VECTOR('',#301,79.6);
#86=VECTOR('',#306,79.5);
#87=VECTOR('',#313,79.5);
#88=CIRCLE('',#221,90.);
#89=CIRCLE('',#222,90.);
#90=CIRCLE('',#224,76.5);
#91=CIRCLE('',#226,76.5);
#92=CIRCLE('',#228,88.);
#93=CIRCLE('',#229,79.6);
#94=CIRCLE('',#231,88.);
#95=CIRCLE('',#233,90.);
#96=CIRCLE('',#235,90.);
#97=CIRCLE('',#237,2.5);
#98=CIRCLE('',#239,79.6);
#99=CIRCLE('',#242,77.5);
#100=CIRCLE('',#243,77.5);
#101=CIRCLE('',#245,79.5);
#102=CIRCLE('',#246,79.5);
#103=VERTEX_POINT('',#327);
#104=VERTEX_POINT('',#329);
#105=VERTEX_POINT('',#333);
#106=VERTEX_POINT('',#336);
#107=VERTEX_POINT('',#340);
#108=VERTEX_POINT('',#342);
#109=VERTEX_POINT('',#345);
#110=VERTEX_POINT('',#349);
#111=VERTEX_POINT('',#352);
#112=VERTEX_POINT('',#358);
#113=VERTEX_POINT('',#363);
#114=VERTEX_POINT('',#365);
#115=VERTEX_POINT('',#369);
#116=VERTEX_POINT('',#371);
#117=EDGE_CURVE('',#103,#103,#88,.T.);
#118=EDGE_CURVE('',#103,#104,#74,.T.);
#119=EDGE_CURVE('',#104,#104,#89,.T.);
#120=EDGE_CURVE('',#105,#105,#90,.T.);
#121=EDGE_CURVE('',#105,#106,#75,.T.);
#122=EDGE_CURVE('',#106,#106,#91,.T.);
#123=EDGE_CURVE('',#107,#107,#92,.T.);
#124=EDGE_CURVE('',#108,#108,#93,.T.);
#125=EDGE_CURVE('',#107,#109,#76,.T.);
#126=EDGE_CURVE('',#109,#109,#94,.T.);
#127=EDGE_CURVE('',#110,#110,#95,.T.);
#128=EDGE_CURVE('',#110,#111,#77,.T.);
#129=EDGE_CURVE('',#111,#111,#96,.T.);
#130=EDGE_CURVE('',#111,#103,#97,.T.);
#131=EDGE_CURVE('',#112,#112,#98,.T.);
#132=EDGE_CURVE('',#108,#112,#78,.T.);
#133=EDGE_CURVE('',#113,#113,#99,.T.);
#134=EDGE_CURVE('',#113,#114,#79,.T.);
#135=EDGE_CURVE('',#114,#114,#100,.T.);
#136=EDGE_CURVE('',#115,#115,#101,.T.);
#137=EDGE_CURVE('',#115,#116,#80,.T.);
#138=EDGE_CURVE('',#116,#116,#102,.T.);
#139=ORIENTED_EDGE('',*,*,#117,.F.);
#140=ORIENTED_EDGE('',*,*,#118,.T.);
#141=ORIENTED_EDGE('',*,*,#119,.T.);
#142=ORIENTED_EDGE('',*,*,#118,.F.);
#143=ORIENTED_EDGE('',*,*,#119,.F.);
#144=ORIENTED_EDGE('',*,*,#120,.T.);
#145=ORIENTED_EDGE('',*,*,#120,.F.);
#146=ORIENTED_EDGE('',*,*,#121,.T.);
#147=ORIENTED_EDGE('',*,*,#122,.F.);
#148=ORIENTED_EDGE('',*,*,#121,.F.);
#149=ORIENTED_EDGE('',*,*,#123,.T.);
#150=ORIENTED_EDGE('',*,*,#124,.F.);
#151=ORIENTED_EDGE('',*,*,#123,.F.);
#152=ORIENTED_EDGE('',*,*,#125,.T.);
#153=ORIENTED_EDGE('',*,*,#126,.T.);
#154=ORIENTED_EDGE('',*,*,#125,.F.);
#155=ORIENTED_EDGE('',*,*,#127,.T.);
#156=ORIENTED_EDGE('',*,*,#126,.F.);
#157=ORIENTED_EDGE('',*,*,#127,.F.);
#158=ORIENTED_EDGE('',*,*,#128,.T.);
#159=ORIENTED_EDGE('',*,*,#129,.T.);
#160=ORIENTED_EDGE('',*,*,#128,.F.);
#161=ORIENTED_EDGE('',*,*,#129,.F.);
#162=ORIENTED_EDGE('',*,*,#130,.T.);
#163=ORIENTED_EDGE('',*,*,#117,.T.);
#164=ORIENTED_EDGE('',*,*,#130,.F.);
#165=ORIENTED_EDGE('',*,*,#131,.T.);
#166=ORIENTED_EDGE('',*,*,#122,.T.);
#167=ORIENTED_EDGE('',*,*,#124,.T.);
#168=ORIENTED_EDGE('',*,*,#132,.T.);
#169=ORIENTED_EDGE('',*,*,#131,.F.);
#170=ORIENTED_EDGE('',*,*,#132,.F.);
#171=ORIENTED_EDGE('',*,*,#133,.F.);
#172=ORIENTED_EDGE('',*,*,#134,.T.);
#173=ORIENTED_EDGE('',*,*,#135,.F.);
#174=ORIENTED_EDGE('',*,*,#134,.F.);
#175=ORIENTED_EDGE('',*,*,#136,.F.);
#176=ORIENTED_EDGE('',*,*,#137,.T.);
#177=ORIENTED_EDGE('',*,*,#138,.F.);
#178=ORIENTED_EDGE('',*,*,#137,.F.);
#179=ORIENTED_EDGE('',*,*,#138,.T.);
#180=ORIENTED_EDGE('',*,*,#133,.T.);
#181=ORIENTED_EDGE('',*,*,#136,.T.);
#182=ORIENTED_EDGE('',*,*,#135,.T.);
#183=CYLINDRICAL_SURFACE('',#220,90.);
#184=CYLINDRICAL_SURFACE('',#225,76.5);
#185=CYLINDRICAL_SURFACE('',#230,88.);
#186=CYLINDRICAL_SURFACE('',#234,90.);
#187=CYLINDRICAL_SURFACE('',#240,79.6);
#188=CYLINDRICAL_SURFACE('',#241,77.5);
#189=CYLINDRICAL_SURFACE('',#244,79.5);
#190=ADVANCED_FACE('',(#40),#183,.T.);
#191=ADVANCED_FACE('',(#41,#28),#34,.T.);
#192=ADVANCED_FACE('',(#42),#184,.F.);
#193=ADVANCED_FACE('',(#43,#29),#35,.T.);
#194=ADVANCED_FACE('',(#44),#185,.F.);
#195=ADVANCED_FACE('',(#45,#30),#36,.T.);
#196=ADVANCED_FACE('',(#46),#186,.T.);
#197=ADVANCED_FACE('',(#47),#27,.F.);
#198=ADVANCED_FACE('',(#48,#31),#37,.F.);
#199=ADVANCED_FACE('',(#49),#187,.F.);
#200=ADVANCED_FACE('',(#50),#188,.F.);
#201=ADVANCED_FACE('',(#51),#189,.T.);
#202=ADVANCED_FACE('',(#52,#32),#38,.T.);
#203=ADVANCED_FACE('',(#53,#33),#39,.T.);
#204=CLOSED_SHELL('',(#190,#191,#192,#193,#194,#195,#196,#197,#198,#199));
#205=CLOSED_SHELL('',(#200,#201,#202,#203));
#206=DERIVED_UNIT_ELEMENT(#208,1.);
#207=DERIVED_UNIT_ELEMENT(#385,-3.);
#208=(
MASS_UNIT()
NAMED_UNIT(*)
SI_UNIT(.KILO.,.GRAM.)
);
#209=DERIVED_UNIT((#206,#207));
#210=MEASURE_REPRESENTATION_ITEM('density measure',
POSITIVE_RATIO_MEASURE(7850.),#209);
#211=PROPERTY_DEFINITION_REPRESENTATION(#216,#213);
#212=PROPERTY_DEFINITION_REPRESENTATION(#217,#214);
#213=REPRESENTATION('material name',(#215),#382);
#214=REPRESENTATION('density',(#210),#382);
#215=DESCRIPTIVE_REPRESENTATION_ITEM('Steel','Steel');
#216=PROPERTY_DEFINITION('material property','material name',#398);
#217=PROPERTY_DEFINITION('material property','density of part',#398);
#218=AXIS2_PLACEMENT_3D('',#324,#251,#252);
#219=AXIS2_PLACEMENT_3D('',#325,#253,#254);
#220=AXIS2_PLACEMENT_3D('',#326,#255,#256);
#221=AXIS2_PLACEMENT_3D('',#328,#257,#258);
#222=AXIS2_PLACEMENT_3D('',#331,#260,#261);
#223=AXIS2_PLACEMENT_3D('',#332,#262,#263);
#224=AXIS2_PLACEMENT_3D('',#334,#264,#265);
#225=AXIS2_PLACEMENT_3D('',#335,#266,#267);
#226=AXIS2_PLACEMENT_3D('',#338,#269,#270);
#227=AXIS2_PLACEMENT_3D('',#339,#271,#272);
#228=AXIS2_PLACEMENT_3D('',#341,#273,#274);
#229=AXIS2_PLACEMENT_3D('',#343,#275,#276);
#230=AXIS2_PLACEMENT_3D('',#344,#277,#278);
#231=AXIS2_PLACEMENT_3D('',#347,#280,#281);
#232=AXIS2_PLACEMENT_3D('',#348,#282,#283);
#233=AXIS2_PLACEMENT_3D('',#350,#284,#285);
#234=AXIS2_PLACEMENT_3D('',#351,#286,#287);
#235=AXIS2_PLACEMENT_3D('',#354,#289,#290);
#236=AXIS2_PLACEMENT_3D('',#355,#291,#292);
#237=AXIS2_PLACEMENT_3D('',#356,#293,#294);
#238=AXIS2_PLACEMENT_3D('',#357,#295,#296);
#239=AXIS2_PLACEMENT_3D('',#359,#297,#298);
#240=AXIS2_PLACEMENT_3D('',#360,#299,#300);
#241=AXIS2_PLACEMENT_3D('',#362,#302,#303);
#242=AXIS2_PLACEMENT_3D('',#364,#304,#305);
#243=AXIS2_PLACEMENT_3D('',#367,#307,#308);
#244=AXIS2_PLACEMENT_3D('',#368,#309,#310);
#245=AXIS2_PLACEMENT_3D('',#370,#311,#312);
#246=AXIS2_PLACEMENT_3D('',#373,#314,#315);
#247=AXIS2_PLACEMENT_3D('',#374,#316,#317);
#248=AXIS2_PLACEMENT_3D('',#375,#318,#319);
#249=AXIS2_PLACEMENT_3D('',#376,#320,#321);
#250=AXIS2_PLACEMENT_3D('',#377,#322,#323);
#251=DIRECTION('axis',(0.,0.,1.));
#252=DIRECTION('refdir',(1.,0.,0.));
#253=DIRECTION('axis',(0.,0.,1.));
#254=DIRECTION('refdir',(1.,0.,0.));
#255=DIRECTION('center_axis',(-1.,0.,0.));
#256=DIRECTION('ref_axis',(0.,0.,1.));
#257=DIRECTION('center_axis',(-1.,0.,0.));
#258=DIRECTION('ref_axis',(0.,0.,1.));
#259=DIRECTION('',(1.,0.,0.));
#260=DIRECTION('center_axis',(-1.,0.,0.));
#261=DIRECTION('ref_axis',(0.,0.,1.));
#262=DIRECTION('center_axis',(1.,0.,0.));
#263=DIRECTION('ref_axis',(0.,0.,-1.));
#264=DIRECTION('center_axis',(-1.,0.,0.));
#265=DIRECTION('ref_axis',(0.,0.,1.));
#266=DIRECTION('center_axis',(-1.,0.,0.));
#267=DIRECTION('ref_axis',(0.,0.,1.));
#268=DIRECTION('',(-1.,0.,0.));
#269=DIRECTION('center_axis',(1.,0.,0.));
#270=DIRECTION('ref_axis',(0.,0.,-1.));
#271=DIRECTION('center_axis',(-1.,0.,0.));
#272=DIRECTION('ref_axis',(0.,0.,1.));
#273=DIRECTION('center_axis',(-1.,0.,0.));
#274=DIRECTION('ref_axis',(0.,0.,1.));
#275=DIRECTION('center_axis',(-1.,0.,0.));
#276=DIRECTION('ref_axis',(0.,0.,1.));
#277=DIRECTION('center_axis',(-1.,0.,0.));
#278=DIRECTION('ref_axis',(0.,0.,1.));
#279=DIRECTION('',(-1.,0.,0.));
#280=DIRECTION('center_axis',(-1.,0.,0.));
#281=DIRECTION('ref_axis',(0.,0.,1.));
#282=DIRECTION('center_axis',(-1.,0.,0.));
#283=DIRECTION('ref_axis',(0.,0.,1.));
#284=DIRECTION('center_axis',(-1.,0.,0.));
#285=DIRECTION('ref_axis',(0.,0.,1.));
#286=DIRECTION('center_axis',(-1.,0.,0.));
#287=DIRECTION('ref_axis',(0.,0.,1.));
#288=DIRECTION('',(1.,0.,0.));
#289=DIRECTION('center_axis',(-1.,0.,0.));
#290=DIRECTION('ref_axis',(0.,0.,1.));
#291=DIRECTION('center_axis',(-1.,0.,0.));
#292=DIRECTION('ref_axis',(0.,0.,1.));
#293=DIRECTION('center_axis',(0.,1.,-1.22464679914735E-16));
#294=DIRECTION('ref_axis',(0.,-1.22464679914735E-16,-1.));
#295=DIRECTION('center_axis',(1.,0.,0.));
#296=DIRECTION('ref_axis',(0.,0.,-1.));
#297=DIRECTION('center_axis',(-1.,0.,0.));
#298=DIRECTION('ref_axis',(0.,0.,1.));
#299=DIRECTION('center_axis',(1.,0.,0.));
#300=DIRECTION('ref_axis',(0.,0.,1.));
#301=DIRECTION('',(1.,0.,0.));
#302=DIRECTION('center_axis',(0.,1.,2.22044604925031E-16));
#303=DIRECTION('ref_axis',(1.,0.,0.));
#304=DIRECTION('center_axis',(0.,1.,2.22044604925031E-16));
#305=DIRECTION('ref_axis',(1.,0.,0.));
#306=DIRECTION('',(0.,1.,2.22044604925031E-16));
#307=DIRECTION('center_axis',(0.,-1.,-2.22044604925031E-16));
#308=DIRECTION('ref_axis',(1.,0.,0.));
#309=DIRECTION('center_axis',(0.,1.,2.22044604925031E-16));
#310=DIRECTION('ref_axis',(1.,0.,0.));
#311=DIRECTION('center_axis',(0.,1.,2.22044604925031E-16));
#312=DIRECTION('ref_axis',(1.,0.,0.));
#313=DIRECTION('',(0.,-1.,-2.22044604925031E-16));
#314=DIRECTION('center_axis',(0.,-1.,-2.22044604925031E-16));
#315=DIRECTION('ref_axis',(1.,0.,0.));
#316=DIRECTION('center_axis',(0.,-1.,-2.22044604925031E-16));
#317=DIRECTION('ref_axis',(-1.,0.,0.));
#318=DIRECTION('center_axis',(0.,1.,2.22044604925031E-16));
#319=DIRECTION('ref_axis',(1.,0.,0.));
#320=DIRECTION('',(6.12323399573677E-17,-2.22044604925031E-16,1.));
#321=DIRECTION('',(0.,1.,2.22044604925031E-16));
#322=DIRECTION('',(6.12323399573677E-17,-2.22044604925031E-16,1.));
#323=DIRECTION('',(0.,-1.,-2.22044604925031E-16));
#324=CARTESIAN_POINT('',(0.,0.,0.));
#325=CARTESIAN_POINT('',(0.,0.,0.));
#326=CARTESIAN_POINT('Origin',(17.,0.,0.));
#327=CARTESIAN_POINT('',(9.5,-1.10218211923262E-14,-90.));
#328=CARTESIAN_POINT('Origin',(9.5,0.,0.));
#329=CARTESIAN_POINT('',(12.,-1.10218211923262E-14,-90.));
#330=CARTESIAN_POINT('',(17.,-1.10218211923262E-14,-90.));
#331=CARTESIAN_POINT('Origin',(12.,0.,0.));
#332=CARTESIAN_POINT('Origin',(12.,0.,90.));
#333=CARTESIAN_POINT('',(12.,-9.36854801347725E-15,-76.5));
#334=CARTESIAN_POINT('Origin',(12.,0.,0.));
#335=CARTESIAN_POINT('Origin',(17.,0.,0.));
#336=CARTESIAN_POINT('',(6.,0.,-76.5));
#337=CARTESIAN_POINT('',(17.,-9.36854801347725E-15,-76.5));
#338=CARTESIAN_POINT('Origin',(6.,0.,0.));
#339=CARTESIAN_POINT('Origin',(2.,0.,88.));
#340=CARTESIAN_POINT('',(2.,-1.07768918324967E-14,-88.));
#341=CARTESIAN_POINT('Origin',(2.,0.,0.));
#342=CARTESIAN_POINT('',(2.,9.74818852121293E-15,-79.6));
#343=CARTESIAN_POINT('Origin',(2.,0.,0.));
#344=CARTESIAN_POINT('Origin',(17.,0.,0.));
#345=CARTESIAN_POINT('',(2.22044604925031E-15,-1.07768918324967E-14,-88.));
#346=CARTESIAN_POINT('',(17.,-1.07768918324967E-14,-88.));
#347=CARTESIAN_POINT('Origin',(3.46944695195361E-15,0.,0.));
#348=CARTESIAN_POINT('Origin',(1.95156391047391E-15,0.,90.));
#349=CARTESIAN_POINT('',(0.,-1.10218211923262E-14,-90.));
#350=CARTESIAN_POINT('Origin',(0.,0.,0.));
#351=CARTESIAN_POINT('Origin',(17.,0.,0.));
#352=CARTESIAN_POINT('',(4.5,-1.10218211923262E-14,-90.));
#353=CARTESIAN_POINT('',(17.,-1.10218211923262E-14,-90.));
#354=CARTESIAN_POINT('Origin',(4.5,0.,0.));
#355=CARTESIAN_POINT('Origin',(7.,0.,0.));
#356=CARTESIAN_POINT('Origin',(7.,-1.10218211923262E-14,-90.));
#357=CARTESIAN_POINT('Origin',(6.,0.,0.));
#358=CARTESIAN_POINT('',(6.,9.74818852121293E-15,-79.6));
#359=CARTESIAN_POINT('Origin',(6.,0.,0.));
#360=CARTESIAN_POINT('Origin',(-2.2562743249633E-16,0.,0.));
#361=CARTESIAN_POINT('',(-2.2562743249633E-16,9.74818852121293E-15,-79.6));
#362=CARTESIAN_POINT('Origin',(0.,24.,5.32907051820075E-15));
#363=CARTESIAN_POINT('',(-77.5,-2.10742816384268E-30,9.49101269339199E-15));
#364=CARTESIAN_POINT('Origin',(0.,0.,0.));
#365=CARTESIAN_POINT('',(-77.5,48.,1.16712834300952E-15));
#366=CARTESIAN_POINT('',(-77.5,24.,1.48200832115927E-14));
#367=CARTESIAN_POINT('Origin',(0.,48.,1.06581410364015E-14));
#368=CARTESIAN_POINT('Origin',(0.,24.,5.32907051820075E-15));
#369=CARTESIAN_POINT('',(-79.5,48.,2.0394083089623E-14));
#370=CARTESIAN_POINT('Origin',(0.,48.,1.06581410364015E-14));
#371=CARTESIAN_POINT('',(-79.5,0.,9.73594205322146E-15));
#372=CARTESIAN_POINT('',(-79.5,24.,1.50650125714222E-14));
#373=CARTESIAN_POINT('Origin',(0.,0.,0.));
#374=CARTESIAN_POINT('Origin',(0.,0.,0.));
#375=CARTESIAN_POINT('Origin',(0.,48.,1.06581410364015E-14));
#376=CARTESIAN_POINT('',(0.,42.,9.32587340685132E-15));
#377=CARTESIAN_POINT('',(0.,6.,-7.54951656745106E-15));
#378=UNCERTAINTY_MEASURE_WITH_UNIT(LENGTH_MEASURE(0.01),#384,
'DISTANCE_ACCURACY_VALUE',
'Maximum model space distance between geometric entities at asserted c
onnectivities');
#379=UNCERTAINTY_MEASURE_WITH_UNIT(LENGTH_MEASURE(0.01),#384,
'DISTANCE_ACCURACY_VALUE',
'Maximum model space distance between geometric entities at asserted c
onnectivities');
#380=UNCERTAINTY_MEASURE_WITH_UNIT(LENGTH_MEASURE(0.01),#384,
'DISTANCE_ACCURACY_VALUE',
'Maximum model space distance between geometric entities at asserted c
onnectivities');
#381=(
GEOMETRIC_REPRESENTATION_CONTEXT(3)
GLOBAL_UNCERTAINTY_ASSIGNED_CONTEXT((#378))
GLOBAL_UNIT_ASSIGNED_CONTEXT((#384,#386,#387))
REPRESENTATION_CONTEXT('','3D')
);
#382=(
GEOMETRIC_REPRESENTATION_CONTEXT(3)
GLOBAL_UNCERTAINTY_ASSIGNED_CONTEXT((#379))
GLOBAL_UNIT_ASSIGNED_CONTEXT((#384,#386,#387))
REPRESENTATION_CONTEXT('','3D')
);
#383=(
GEOMETRIC_REPRESENTATION_CONTEXT(3)
GLOBAL_UNCERTAINTY_ASSIGNED_CONTEXT((#380))
GLOBAL_UNIT_ASSIGNED_CONTEXT((#384,#386,#387))
REPRESENTATION_CONTEXT('','3D')
);
#384=(
LENGTH_UNIT()
NAMED_UNIT(*)
SI_UNIT(.MILLI.,.METRE.)
);
#385=(
LENGTH_UNIT()
NAMED_UNIT(*)
SI_UNIT($,.METRE.)
);
#386=(
NAMED_UNIT(*)
PLANE_ANGLE_UNIT()
SI_UNIT($,.RADIAN.)
);
#387=(
NAMED_UNIT(*)
SI_UNIT($,.STERADIAN.)
SOLID_ANGLE_UNIT()
);
#388=SHAPE_DEFINITION_REPRESENTATION(#390,#394);
#389=SHAPE_DEFINITION_REPRESENTATION(#391,#395);
#390=PRODUCT_DEFINITION_SHAPE('',$,#397);
#391=PRODUCT_DEFINITION_SHAPE('',$,#398);
#392=PRODUCT_DEFINITION_SHAPE($,$,#17);
#393=PRODUCT_DEFINITION_SHAPE($,$,#18);
#394=SHAPE_REPRESENTATION('',(#218,#249,#250),#381);
#395=SHAPE_REPRESENTATION('',(#219),#382);
#396=PRODUCT_DEFINITION_CONTEXT('part definition',#404,'design');
#397=PRODUCT_DEFINITION('Iso K 160 extension tube',
'Iso K 160 extension tube v2',#399,#396);
#398=PRODUCT_DEFINITION('VAb_SF 160-K','VAb_SF 160-K v1',#400,#396);
#399=PRODUCT_DEFINITION_FORMATION('',$,#406);
#400=PRODUCT_DEFINITION_FORMATION('',$,#407);
#401=PRODUCT_RELATED_PRODUCT_CATEGORY('Iso K 160 extension tube v2',
'Iso K 160 extension tube v2',(#406));
#402=PRODUCT_RELATED_PRODUCT_CATEGORY('VAb_SF 160-K v1',
'VAb_SF 160-K v1',(#407));
#403=APPLICATION_PROTOCOL_DEFINITION('international standard',
'automotive_design',2009,#404);
#404=APPLICATION_CONTEXT(
'Core Data for Automotive Mechanical Design Process');
#405=PRODUCT_CONTEXT('part definition',#404,'mechanical');
#406=PRODUCT('Iso K 160 extension tube','Iso K 160 extension tube v2',$,
(#405));
#407=PRODUCT('VAb_SF 160-K','VAb_SF 160-K v1',$,(#405));
#408=PRESENTATION_STYLE_ASSIGNMENT((#410));
#409=PRESENTATION_STYLE_ASSIGNMENT((#411));
#410=SURFACE_STYLE_USAGE(.BOTH.,#412);
#411=SURFACE_STYLE_USAGE(.BOTH.,#413);
#412=SURFACE_SIDE_STYLE('',(#414));
#413=SURFACE_SIDE_STYLE('',(#415));
#414=SURFACE_STYLE_FILL_AREA(#416);
#415=SURFACE_STYLE_FILL_AREA(#417);
#416=FILL_AREA_STYLE('Steel - Satin',(#418));
#417=FILL_AREA_STYLE('Opaque(165,173,178)',(#419));
#418=FILL_AREA_STYLE_COLOUR('Steel - Satin',#420);
#419=FILL_AREA_STYLE_COLOUR('Opaque(165,173,178)',#421);
#420=COLOUR_RGB('Steel - Satin',0.627450980392157,0.627450980392157,0.627450980392157);
#421=COLOUR_RGB('Opaque(165,173,178)',0.647058823529412,0.67843137254902,
0.698039215686274);
ENDSEC;
END-ISO-10303-21;
