ISO-10303-21;
HEADER;
/* Generated by software containing ST-Developer
 * from STEP Tools, Inc. (www.steptools.com) 
 */

FILE_DESCRIPTION(
/* description */ (''),
/* implementation_level */ '2;1');

FILE_NAME(
/* name */ 'stage 1 shield pressure clamp v3.step',
/* time_stamp */ '2024-06-14T15:42:27+02:00',
/* author */ (''),
/* organization */ (''),
/* preprocessor_version */ 'ST-DEVELOPER v20',
/* originating_system */ 'Autodesk Translation Framework v13.14.0.145',

/* authorisation */ '');

FILE_SCHEMA (('AUTOMOTIVE_DESIGN { 1 0 10303 214 3 1 1 }'));
ENDSEC;

DATA;
#10=MECHANICAL_DESIGN_GEOMETRIC_PRESENTATION_REPRESENTATION('',(#13),#737);
#11=SHAPE_REPRESENTATION_RELATIONSHIP('SRR','None',#744,#12);
#12=ADVANCED_BREP_SHAPE_REPRESENTATION('',(#14),#736);
#13=STYLED_ITEM('',(#753),#14);
#14=MANIFOLD_SOLID_BREP('Body1',#417);
#15=PLANE('',#434);
#16=PLANE('',#435);
#17=PLANE('',#450);
#18=PLANE('',#455);
#19=PLANE('',#460);
#20=PLANE('',#465);
#21=PLANE('',#474);
#22=PLANE('',#477);
#23=PLANE('',#478);
#24=FACE_OUTER_BOUND('',#46,.T.);
#25=FACE_OUTER_BOUND('',#47,.T.);
#26=FACE_OUTER_BOUND('',#48,.T.);
#27=FACE_OUTER_BOUND('',#49,.T.);
#28=FACE_OUTER_BOUND('',#50,.T.);
#29=FACE_OUTER_BOUND('',#51,.T.);
#30=FACE_OUTER_BOUND('',#52,.T.);
#31=FACE_OUTER_BOUND('',#53,.T.);
#32=FACE_OUTER_BOUND('',#54,.T.);
#33=FACE_OUTER_BOUND('',#55,.T.);
#34=FACE_OUTER_BOUND('',#56,.T.);
#35=FACE_OUTER_BOUND('',#57,.T.);
#36=FACE_OUTER_BOUND('',#58,.T.);
#37=FACE_OUTER_BOUND('',#59,.T.);
#38=FACE_OUTER_BOUND('',#60,.T.);
#39=FACE_OUTER_BOUND('',#61,.T.);
#40=FACE_OUTER_BOUND('',#62,.T.);
#41=FACE_OUTER_BOUND('',#63,.T.);
#42=FACE_OUTER_BOUND('',#64,.T.);
#43=FACE_OUTER_BOUND('',#65,.T.);
#44=FACE_OUTER_BOUND('',#66,.T.);
#45=FACE_OUTER_BOUND('',#67,.T.);
#46=EDGE_LOOP('',(#262,#263,#264,#265));
#47=EDGE_LOOP('',(#266,#267,#268,#269));
#48=EDGE_LOOP('',(#270,#271,#272,#273,#274,#275,#276,#277,#278,#279,#280,
#281,#282,#283,#284,#285,#286,#287,#288,#289));
#49=EDGE_LOOP('',(#290,#291,#292,#293));
#50=EDGE_LOOP('',(#294,#295,#296,#297));
#51=EDGE_LOOP('',(#298,#299,#300,#301));
#52=EDGE_LOOP('',(#302,#303,#304,#305));
#53=EDGE_LOOP('',(#306,#307,#308,#309));
#54=EDGE_LOOP('',(#310,#311,#312,#313));
#55=EDGE_LOOP('',(#314,#315,#316,#317));
#56=EDGE_LOOP('',(#318,#319,#320,#321));
#57=EDGE_LOOP('',(#322,#323,#324,#325));
#58=EDGE_LOOP('',(#326,#327,#328,#329));
#59=EDGE_LOOP('',(#330,#331,#332,#333));
#60=EDGE_LOOP('',(#334,#335,#336,#337));
#61=EDGE_LOOP('',(#338,#339,#340,#341));
#62=EDGE_LOOP('',(#342,#343,#344,#345));
#63=EDGE_LOOP('',(#346,#347,#348,#349));
#64=EDGE_LOOP('',(#350,#351,#352,#353));
#65=EDGE_LOOP('',(#354,#355,#356,#357));
#66=EDGE_LOOP('',(#358,#359,#360,#361));
#67=EDGE_LOOP('',(#362,#363,#364,#365,#366,#367,#368,#369,#370,#371,#372,
#373,#374,#375,#376,#377,#378,#379,#380,#381));
#68=LINE('',#617,#102);
#69=LINE('',#620,#103);
#70=LINE('',#623,#104);
#71=LINE('',#625,#105);
#72=LINE('',#626,#106);
#73=LINE('',#633,#107);
#74=LINE('',#641,#108);
#75=LINE('',#649,#109);
#76=LINE('',#657,#110);
#77=LINE('',#659,#111);
#78=LINE('',#662,#112);
#79=LINE('',#667,#113);
#80=LINE('',#668,#114);
#81=LINE('',#671,#115);
#82=LINE('',#672,#116);
#83=LINE('',#676,#117);
#84=LINE('',#681,#118);
#85=LINE('',#682,#119);
#86=LINE('',#685,#120);
#87=LINE('',#686,#121);
#88=LINE('',#690,#122);
#89=LINE('',#695,#123);
#90=LINE('',#696,#124);
#91=LINE('',#699,#125);
#92=LINE('',#700,#126);
#93=LINE('',#704,#127);
#94=LINE('',#709,#128);
#95=LINE('',#710,#129);
#96=LINE('',#713,#130);
#97=LINE('',#714,#131);
#98=LINE('',#725,#132);
#99=LINE('',#726,#133);
#100=LINE('',#730,#134);
#101=LINE('',#732,#135);
#102=VECTOR('',#485,10.);
#103=VECTOR('',#488,10.);
#104=VECTOR('',#491,10.);
#105=VECTOR('',#492,10.);
#106=VECTOR('',#493,10.);
#107=VECTOR('',#500,10.);
#108=VECTOR('',#507,10.);
#109=VECTOR('',#514,10.);
#110=VECTOR('',#521,10.);
#111=VECTOR('',#522,10.);
#112=VECTOR('',#525,10.);
#113=VECTOR('',#530,10.);
#114=VECTOR('',#531,10.);
#115=VECTOR('',#534,10.);
#116=VECTOR('',#535,10.);
#117=VECTOR('',#540,10.);
#118=VECTOR('',#545,10.);
#119=VECTOR('',#546,10.);
#120=VECTOR('',#549,10.);
#121=VECTOR('',#550,10.);
#122=VECTOR('',#555,10.);
#123=VECTOR('',#560,10.);
#124=VECTOR('',#561,10.);
#125=VECTOR('',#564,10.);
#126=VECTOR('',#565,10.);
#127=VECTOR('',#570,10.);
#128=VECTOR('',#575,10.);
#129=VECTOR('',#576,10.);
#130=VECTOR('',#579,10.);
#131=VECTOR('',#580,10.);
#132=VECTOR('',#599,10.);
#133=VECTOR('',#600,10.);
#134=VECTOR('',#605,10.);
#135=VECTOR('',#608,10.);
#136=CIRCLE('',#432,0.5);
#137=CIRCLE('',#433,0.5);
#138=CIRCLE('',#436,2.25);
#139=CIRCLE('',#437,0.5);
#140=CIRCLE('',#438,0.5);
#141=CIRCLE('',#439,2.25);
#142=CIRCLE('',#440,0.5);
#143=CIRCLE('',#441,0.5);
#144=CIRCLE('',#442,2.25);
#145=CIRCLE('',#443,0.5);
#146=CIRCLE('',#444,0.5);
#147=CIRCLE('',#445,2.25);
#148=CIRCLE('',#446,0.5);
#149=CIRCLE('',#447,14.);
#150=CIRCLE('',#449,0.5);
#151=CIRCLE('',#452,0.5);
#152=CIRCLE('',#454,0.5);
#153=CIRCLE('',#457,0.5);
#154=CIRCLE('',#459,0.5);
#155=CIRCLE('',#462,0.5);
#156=CIRCLE('',#464,0.5);
#157=CIRCLE('',#467,2.25);
#158=CIRCLE('',#469,2.25);
#159=CIRCLE('',#471,2.25);
#160=CIRCLE('',#473,2.25);
#161=CIRCLE('',#476,14.);
#162=VERTEX_POINT('',#613);
#163=VERTEX_POINT('',#614);
#164=VERTEX_POINT('',#616);
#165=VERTEX_POINT('',#618);
#166=VERTEX_POINT('',#622);
#167=VERTEX_POINT('',#624);
#168=VERTEX_POINT('',#628);
#169=VERTEX_POINT('',#630);
#170=VERTEX_POINT('',#632);
#171=VERTEX_POINT('',#634);
#172=VERTEX_POINT('',#636);
#173=VERTEX_POINT('',#638);
#174=VERTEX_POINT('',#640);
#175=VERTEX_POINT('',#642);
#176=VERTEX_POINT('',#644);
#177=VERTEX_POINT('',#646);
#178=VERTEX_POINT('',#648);
#179=VERTEX_POINT('',#650);
#180=VERTEX_POINT('',#652);
#181=VERTEX_POINT('',#654);
#182=VERTEX_POINT('',#656);
#183=VERTEX_POINT('',#658);
#184=VERTEX_POINT('',#660);
#185=VERTEX_POINT('',#664);
#186=VERTEX_POINT('',#665);
#187=VERTEX_POINT('',#670);
#188=VERTEX_POINT('',#674);
#189=VERTEX_POINT('',#678);
#190=VERTEX_POINT('',#679);
#191=VERTEX_POINT('',#684);
#192=VERTEX_POINT('',#688);
#193=VERTEX_POINT('',#692);
#194=VERTEX_POINT('',#693);
#195=VERTEX_POINT('',#698);
#196=VERTEX_POINT('',#702);
#197=VERTEX_POINT('',#706);
#198=VERTEX_POINT('',#707);
#199=VERTEX_POINT('',#712);
#200=VERTEX_POINT('',#724);
#201=VERTEX_POINT('',#728);
#202=EDGE_CURVE('',#162,#163,#136,.T.);
#203=EDGE_CURVE('',#163,#164,#68,.T.);
#204=EDGE_CURVE('',#164,#165,#137,.T.);
#205=EDGE_CURVE('',#165,#162,#69,.T.);
#206=EDGE_CURVE('',#165,#166,#70,.T.);
#207=EDGE_CURVE('',#166,#167,#71,.T.);
#208=EDGE_CURVE('',#162,#167,#72,.T.);
#209=EDGE_CURVE('',#164,#168,#138,.T.);
#210=EDGE_CURVE('',#169,#168,#139,.T.);
#211=EDGE_CURVE('',#170,#169,#73,.T.);
#212=EDGE_CURVE('',#171,#170,#140,.T.);
#213=EDGE_CURVE('',#171,#172,#141,.T.);
#214=EDGE_CURVE('',#173,#172,#142,.T.);
#215=EDGE_CURVE('',#174,#173,#74,.T.);
#216=EDGE_CURVE('',#175,#174,#143,.T.);
#217=EDGE_CURVE('',#175,#176,#144,.T.);
#218=EDGE_CURVE('',#177,#176,#145,.T.);
#219=EDGE_CURVE('',#178,#177,#75,.T.);
#220=EDGE_CURVE('',#179,#178,#146,.T.);
#221=EDGE_CURVE('',#179,#180,#147,.T.);
#222=EDGE_CURVE('',#181,#180,#148,.T.);
#223=EDGE_CURVE('',#182,#181,#76,.T.);
#224=EDGE_CURVE('',#183,#182,#77,.T.);
#225=EDGE_CURVE('',#183,#184,#149,.T.);
#226=EDGE_CURVE('',#166,#184,#78,.T.);
#227=EDGE_CURVE('',#185,#186,#150,.T.);
#228=EDGE_CURVE('',#186,#169,#79,.T.);
#229=EDGE_CURVE('',#168,#185,#80,.T.);
#230=EDGE_CURVE('',#187,#186,#81,.T.);
#231=EDGE_CURVE('',#170,#187,#82,.T.);
#232=EDGE_CURVE('',#187,#188,#151,.T.);
#233=EDGE_CURVE('',#188,#171,#83,.T.);
#234=EDGE_CURVE('',#189,#190,#152,.T.);
#235=EDGE_CURVE('',#190,#173,#84,.T.);
#236=EDGE_CURVE('',#172,#189,#85,.T.);
#237=EDGE_CURVE('',#191,#190,#86,.T.);
#238=EDGE_CURVE('',#174,#191,#87,.T.);
#239=EDGE_CURVE('',#191,#192,#153,.T.);
#240=EDGE_CURVE('',#192,#175,#88,.T.);
#241=EDGE_CURVE('',#193,#194,#154,.T.);
#242=EDGE_CURVE('',#194,#177,#89,.T.);
#243=EDGE_CURVE('',#176,#193,#90,.T.);
#244=EDGE_CURVE('',#195,#194,#91,.T.);
#245=EDGE_CURVE('',#178,#195,#92,.T.);
#246=EDGE_CURVE('',#195,#196,#155,.T.);
#247=EDGE_CURVE('',#196,#179,#93,.T.);
#248=EDGE_CURVE('',#197,#198,#156,.T.);
#249=EDGE_CURVE('',#198,#181,#94,.T.);
#250=EDGE_CURVE('',#180,#197,#95,.T.);
#251=EDGE_CURVE('',#199,#198,#96,.T.);
#252=EDGE_CURVE('',#182,#199,#97,.T.);
#253=EDGE_CURVE('',#185,#163,#157,.T.);
#254=EDGE_CURVE('',#189,#188,#158,.T.);
#255=EDGE_CURVE('',#193,#192,#159,.T.);
#256=EDGE_CURVE('',#197,#196,#160,.T.);
#257=EDGE_CURVE('',#200,#199,#98,.T.);
#258=EDGE_CURVE('',#183,#200,#99,.T.);
#259=EDGE_CURVE('',#201,#200,#161,.T.);
#260=EDGE_CURVE('',#184,#201,#100,.T.);
#261=EDGE_CURVE('',#167,#201,#101,.T.);
#262=ORIENTED_EDGE('',*,*,#202,.T.);
#263=ORIENTED_EDGE('',*,*,#203,.T.);
#264=ORIENTED_EDGE('',*,*,#204,.T.);
#265=ORIENTED_EDGE('',*,*,#205,.T.);
#266=ORIENTED_EDGE('',*,*,#205,.F.);
#267=ORIENTED_EDGE('',*,*,#206,.T.);
#268=ORIENTED_EDGE('',*,*,#207,.T.);
#269=ORIENTED_EDGE('',*,*,#208,.F.);
#270=ORIENTED_EDGE('',*,*,#204,.F.);
#271=ORIENTED_EDGE('',*,*,#209,.T.);
#272=ORIENTED_EDGE('',*,*,#210,.F.);
#273=ORIENTED_EDGE('',*,*,#211,.F.);
#274=ORIENTED_EDGE('',*,*,#212,.F.);
#275=ORIENTED_EDGE('',*,*,#213,.T.);
#276=ORIENTED_EDGE('',*,*,#214,.F.);
#277=ORIENTED_EDGE('',*,*,#215,.F.);
#278=ORIENTED_EDGE('',*,*,#216,.F.);
#279=ORIENTED_EDGE('',*,*,#217,.T.);
#280=ORIENTED_EDGE('',*,*,#218,.F.);
#281=ORIENTED_EDGE('',*,*,#219,.F.);
#282=ORIENTED_EDGE('',*,*,#220,.F.);
#283=ORIENTED_EDGE('',*,*,#221,.T.);
#284=ORIENTED_EDGE('',*,*,#222,.F.);
#285=ORIENTED_EDGE('',*,*,#223,.F.);
#286=ORIENTED_EDGE('',*,*,#224,.F.);
#287=ORIENTED_EDGE('',*,*,#225,.T.);
#288=ORIENTED_EDGE('',*,*,#226,.F.);
#289=ORIENTED_EDGE('',*,*,#206,.F.);
#290=ORIENTED_EDGE('',*,*,#227,.T.);
#291=ORIENTED_EDGE('',*,*,#228,.T.);
#292=ORIENTED_EDGE('',*,*,#210,.T.);
#293=ORIENTED_EDGE('',*,*,#229,.T.);
#294=ORIENTED_EDGE('',*,*,#228,.F.);
#295=ORIENTED_EDGE('',*,*,#230,.F.);
#296=ORIENTED_EDGE('',*,*,#231,.F.);
#297=ORIENTED_EDGE('',*,*,#211,.T.);
#298=ORIENTED_EDGE('',*,*,#232,.T.);
#299=ORIENTED_EDGE('',*,*,#233,.T.);
#300=ORIENTED_EDGE('',*,*,#212,.T.);
#301=ORIENTED_EDGE('',*,*,#231,.T.);
#302=ORIENTED_EDGE('',*,*,#234,.T.);
#303=ORIENTED_EDGE('',*,*,#235,.T.);
#304=ORIENTED_EDGE('',*,*,#214,.T.);
#305=ORIENTED_EDGE('',*,*,#236,.T.);
#306=ORIENTED_EDGE('',*,*,#235,.F.);
#307=ORIENTED_EDGE('',*,*,#237,.F.);
#308=ORIENTED_EDGE('',*,*,#238,.F.);
#309=ORIENTED_EDGE('',*,*,#215,.T.);
#310=ORIENTED_EDGE('',*,*,#239,.T.);
#311=ORIENTED_EDGE('',*,*,#240,.T.);
#312=ORIENTED_EDGE('',*,*,#216,.T.);
#313=ORIENTED_EDGE('',*,*,#238,.T.);
#314=ORIENTED_EDGE('',*,*,#241,.T.);
#315=ORIENTED_EDGE('',*,*,#242,.T.);
#316=ORIENTED_EDGE('',*,*,#218,.T.);
#317=ORIENTED_EDGE('',*,*,#243,.T.);
#318=ORIENTED_EDGE('',*,*,#242,.F.);
#319=ORIENTED_EDGE('',*,*,#244,.F.);
#320=ORIENTED_EDGE('',*,*,#245,.F.);
#321=ORIENTED_EDGE('',*,*,#219,.T.);
#322=ORIENTED_EDGE('',*,*,#246,.T.);
#323=ORIENTED_EDGE('',*,*,#247,.T.);
#324=ORIENTED_EDGE('',*,*,#220,.T.);
#325=ORIENTED_EDGE('',*,*,#245,.T.);
#326=ORIENTED_EDGE('',*,*,#248,.T.);
#327=ORIENTED_EDGE('',*,*,#249,.T.);
#328=ORIENTED_EDGE('',*,*,#222,.T.);
#329=ORIENTED_EDGE('',*,*,#250,.T.);
#330=ORIENTED_EDGE('',*,*,#249,.F.);
#331=ORIENTED_EDGE('',*,*,#251,.F.);
#332=ORIENTED_EDGE('',*,*,#252,.F.);
#333=ORIENTED_EDGE('',*,*,#223,.T.);
#334=ORIENTED_EDGE('',*,*,#203,.F.);
#335=ORIENTED_EDGE('',*,*,#253,.F.);
#336=ORIENTED_EDGE('',*,*,#229,.F.);
#337=ORIENTED_EDGE('',*,*,#209,.F.);
#338=ORIENTED_EDGE('',*,*,#233,.F.);
#339=ORIENTED_EDGE('',*,*,#254,.F.);
#340=ORIENTED_EDGE('',*,*,#236,.F.);
#341=ORIENTED_EDGE('',*,*,#213,.F.);
#342=ORIENTED_EDGE('',*,*,#240,.F.);
#343=ORIENTED_EDGE('',*,*,#255,.F.);
#344=ORIENTED_EDGE('',*,*,#243,.F.);
#345=ORIENTED_EDGE('',*,*,#217,.F.);
#346=ORIENTED_EDGE('',*,*,#247,.F.);
#347=ORIENTED_EDGE('',*,*,#256,.F.);
#348=ORIENTED_EDGE('',*,*,#250,.F.);
#349=ORIENTED_EDGE('',*,*,#221,.F.);
#350=ORIENTED_EDGE('',*,*,#224,.T.);
#351=ORIENTED_EDGE('',*,*,#252,.T.);
#352=ORIENTED_EDGE('',*,*,#257,.F.);
#353=ORIENTED_EDGE('',*,*,#258,.F.);
#354=ORIENTED_EDGE('',*,*,#225,.F.);
#355=ORIENTED_EDGE('',*,*,#258,.T.);
#356=ORIENTED_EDGE('',*,*,#259,.F.);
#357=ORIENTED_EDGE('',*,*,#260,.F.);
#358=ORIENTED_EDGE('',*,*,#226,.T.);
#359=ORIENTED_EDGE('',*,*,#260,.T.);
#360=ORIENTED_EDGE('',*,*,#261,.F.);
#361=ORIENTED_EDGE('',*,*,#207,.F.);
#362=ORIENTED_EDGE('',*,*,#202,.F.);
#363=ORIENTED_EDGE('',*,*,#208,.T.);
#364=ORIENTED_EDGE('',*,*,#261,.T.);
#365=ORIENTED_EDGE('',*,*,#259,.T.);
#366=ORIENTED_EDGE('',*,*,#257,.T.);
#367=ORIENTED_EDGE('',*,*,#251,.T.);
#368=ORIENTED_EDGE('',*,*,#248,.F.);
#369=ORIENTED_EDGE('',*,*,#256,.T.);
#370=ORIENTED_EDGE('',*,*,#246,.F.);
#371=ORIENTED_EDGE('',*,*,#244,.T.);
#372=ORIENTED_EDGE('',*,*,#241,.F.);
#373=ORIENTED_EDGE('',*,*,#255,.T.);
#374=ORIENTED_EDGE('',*,*,#239,.F.);
#375=ORIENTED_EDGE('',*,*,#237,.T.);
#376=ORIENTED_EDGE('',*,*,#234,.F.);
#377=ORIENTED_EDGE('',*,*,#254,.T.);
#378=ORIENTED_EDGE('',*,*,#232,.F.);
#379=ORIENTED_EDGE('',*,*,#230,.T.);
#380=ORIENTED_EDGE('',*,*,#227,.F.);
#381=ORIENTED_EDGE('',*,*,#253,.T.);
#382=CYLINDRICAL_SURFACE('',#431,0.5);
#383=CYLINDRICAL_SURFACE('',#448,0.5);
#384=CYLINDRICAL_SURFACE('',#451,0.5);
#385=CYLINDRICAL_SURFACE('',#453,0.5);
#386=CYLINDRICAL_SURFACE('',#456,0.5);
#387=CYLINDRICAL_SURFACE('',#458,0.5);
#388=CYLINDRICAL_SURFACE('',#461,0.5);
#389=CYLINDRICAL_SURFACE('',#463,0.5);
#390=CYLINDRICAL_SURFACE('',#466,2.25);
#391=CYLINDRICAL_SURFACE('',#468,2.25);
#392=CYLINDRICAL_SURFACE('',#470,2.25);
#393=CYLINDRICAL_SURFACE('',#472,2.25);
#394=CYLINDRICAL_SURFACE('',#475,14.);
#395=ADVANCED_FACE('',(#24),#382,.T.);
#396=ADVANCED_FACE('',(#25),#15,.T.);
#397=ADVANCED_FACE('',(#26),#16,.F.);
#398=ADVANCED_FACE('',(#27),#383,.T.);
#399=ADVANCED_FACE('',(#28),#17,.T.);
#400=ADVANCED_FACE('',(#29),#384,.T.);
#401=ADVANCED_FACE('',(#30),#385,.T.);
#402=ADVANCED_FACE('',(#31),#18,.T.);
#403=ADVANCED_FACE('',(#32),#386,.T.);
#404=ADVANCED_FACE('',(#33),#387,.T.);
#405=ADVANCED_FACE('',(#34),#19,.T.);
#406=ADVANCED_FACE('',(#35),#388,.T.);
#407=ADVANCED_FACE('',(#36),#389,.T.);
#408=ADVANCED_FACE('',(#37),#20,.T.);
#409=ADVANCED_FACE('',(#38),#390,.F.);
#410=ADVANCED_FACE('',(#39),#391,.F.);
#411=ADVANCED_FACE('',(#40),#392,.F.);
#412=ADVANCED_FACE('',(#41),#393,.F.);
#413=ADVANCED_FACE('',(#42),#21,.T.);
#414=ADVANCED_FACE('',(#43),#394,.F.);
#415=ADVANCED_FACE('',(#44),#22,.T.);
#416=ADVANCED_FACE('',(#45),#23,.T.);
#417=CLOSED_SHELL('',(#395,#396,#397,#398,#399,#400,#401,#402,#403,#404,
#405,#406,#407,#408,#409,#410,#411,#412,#413,#414,#415,#416));
#418=DERIVED_UNIT_ELEMENT(#420,1.);
#419=DERIVED_UNIT_ELEMENT(#739,-3.);
#420=(
MASS_UNIT()
NAMED_UNIT(*)
SI_UNIT(.KILO.,.GRAM.)
);
#421=DERIVED_UNIT((#418,#419));
#422=MEASURE_REPRESENTATION_ITEM('density measure',
POSITIVE_RATIO_MEASURE(8000.),#421);
#423=PROPERTY_DEFINITION_REPRESENTATION(#428,#425);
#424=PROPERTY_DEFINITION_REPRESENTATION(#429,#426);
#425=REPRESENTATION('material name',(#427),#736);
#426=REPRESENTATION('density',(#422),#736);
#427=DESCRIPTIVE_REPRESENTATION_ITEM('Stainless Steel AISI 304',
'Stainless Steel AISI 304');
#428=PROPERTY_DEFINITION('material property','material name',#746);
#429=PROPERTY_DEFINITION('material property','density of part',#746);
#430=AXIS2_PLACEMENT_3D('',#611,#479,#480);
#431=AXIS2_PLACEMENT_3D('',#612,#481,#482);
#432=AXIS2_PLACEMENT_3D('',#615,#483,#484);
#433=AXIS2_PLACEMENT_3D('',#619,#486,#487);
#434=AXIS2_PLACEMENT_3D('',#621,#489,#490);
#435=AXIS2_PLACEMENT_3D('',#627,#494,#495);
#436=AXIS2_PLACEMENT_3D('',#629,#496,#497);
#437=AXIS2_PLACEMENT_3D('',#631,#498,#499);
#438=AXIS2_PLACEMENT_3D('',#635,#501,#502);
#439=AXIS2_PLACEMENT_3D('',#637,#503,#504);
#440=AXIS2_PLACEMENT_3D('',#639,#505,#506);
#441=AXIS2_PLACEMENT_3D('',#643,#508,#509);
#442=AXIS2_PLACEMENT_3D('',#645,#510,#511);
#443=AXIS2_PLACEMENT_3D('',#647,#512,#513);
#444=AXIS2_PLACEMENT_3D('',#651,#515,#516);
#445=AXIS2_PLACEMENT_3D('',#653,#517,#518);
#446=AXIS2_PLACEMENT_3D('',#655,#519,#520);
#447=AXIS2_PLACEMENT_3D('',#661,#523,#524);
#448=AXIS2_PLACEMENT_3D('',#663,#526,#527);
#449=AXIS2_PLACEMENT_3D('',#666,#528,#529);
#450=AXIS2_PLACEMENT_3D('',#669,#532,#533);
#451=AXIS2_PLACEMENT_3D('',#673,#536,#537);
#452=AXIS2_PLACEMENT_3D('',#675,#538,#539);
#453=AXIS2_PLACEMENT_3D('',#677,#541,#542);
#454=AXIS2_PLACEMENT_3D('',#680,#543,#544);
#455=AXIS2_PLACEMENT_3D('',#683,#547,#548);
#456=AXIS2_PLACEMENT_3D('',#687,#551,#552);
#457=AXIS2_PLACEMENT_3D('',#689,#553,#554);
#458=AXIS2_PLACEMENT_3D('',#691,#556,#557);
#459=AXIS2_PLACEMENT_3D('',#694,#558,#559);
#460=AXIS2_PLACEMENT_3D('',#697,#562,#563);
#461=AXIS2_PLACEMENT_3D('',#701,#566,#567);
#462=AXIS2_PLACEMENT_3D('',#703,#568,#569);
#463=AXIS2_PLACEMENT_3D('',#705,#571,#572);
#464=AXIS2_PLACEMENT_3D('',#708,#573,#574);
#465=AXIS2_PLACEMENT_3D('',#711,#577,#578);
#466=AXIS2_PLACEMENT_3D('',#715,#581,#582);
#467=AXIS2_PLACEMENT_3D('',#716,#583,#584);
#468=AXIS2_PLACEMENT_3D('',#717,#585,#586);
#469=AXIS2_PLACEMENT_3D('',#718,#587,#588);
#470=AXIS2_PLACEMENT_3D('',#719,#589,#590);
#471=AXIS2_PLACEMENT_3D('',#720,#591,#592);
#472=AXIS2_PLACEMENT_3D('',#721,#593,#594);
#473=AXIS2_PLACEMENT_3D('',#722,#595,#596);
#474=AXIS2_PLACEMENT_3D('',#723,#597,#598);
#475=AXIS2_PLACEMENT_3D('',#727,#601,#602);
#476=AXIS2_PLACEMENT_3D('',#729,#603,#604);
#477=AXIS2_PLACEMENT_3D('',#731,#606,#607);
#478=AXIS2_PLACEMENT_3D('',#733,#609,#610);
#479=DIRECTION('axis',(0.,0.,1.));
#480=DIRECTION('refdir',(1.,0.,0.));
#481=DIRECTION('center_axis',(0.,1.,0.));
#482=DIRECTION('ref_axis',(-0.500877699680206,0.,-0.865518070269515));
#483=DIRECTION('center_axis',(0.,-1.,0.));
#484=DIRECTION('ref_axis',(-0.500877699680206,0.,-0.865518070269515));
#485=DIRECTION('',(0.,-1.,0.));
#486=DIRECTION('center_axis',(0.,1.,0.));
#487=DIRECTION('ref_axis',(-0.500877699680206,0.,-0.865518070269515));
#488=DIRECTION('',(0.,1.,0.));
#489=DIRECTION('center_axis',(-1.,0.,4.34645754050097E-16));
#490=DIRECTION('ref_axis',(4.34645754050097E-16,0.,1.));
#491=DIRECTION('',(4.34645754050097E-16,0.,1.));
#492=DIRECTION('',(0.,1.,0.));
#493=DIRECTION('',(4.34645754050097E-16,0.,1.));
#494=DIRECTION('center_axis',(0.,1.,0.));
#495=DIRECTION('ref_axis',(1.,0.,0.));
#496=DIRECTION('center_axis',(0.,1.,0.));
#497=DIRECTION('ref_axis',(1.,0.,0.));
#498=DIRECTION('center_axis',(0.,1.,0.));
#499=DIRECTION('ref_axis',(-0.966187714716064,0.,0.257839678738066));
#500=DIRECTION('',(-0.707106781186547,0.,0.707106781186548));
#501=DIRECTION('center_axis',(0.,1.,0.));
#502=DIRECTION('ref_axis',(0.25783967873807,0.,-0.966187714716063));
#503=DIRECTION('center_axis',(0.,1.,0.));
#504=DIRECTION('ref_axis',(1.,0.,0.));
#505=DIRECTION('center_axis',(0.,1.,0.));
#506=DIRECTION('ref_axis',(-0.865518070269513,0.,-0.50087769968021));
#507=DIRECTION('',(-1.,0.,-1.44881918016699E-16));
#508=DIRECTION('center_axis',(0.,1.,0.));
#509=DIRECTION('ref_axis',(0.865518070269513,0.,-0.50087769968021));
#510=DIRECTION('center_axis',(0.,1.,0.));
#511=DIRECTION('ref_axis',(1.,0.,0.));
#512=DIRECTION('center_axis',(0.,1.,0.));
#513=DIRECTION('ref_axis',(-0.257839678738068,0.,-0.966187714716064));
#514=DIRECTION('',(-0.707106781186547,0.,-0.707106781186547));
#515=DIRECTION('center_axis',(0.,1.,0.));
#516=DIRECTION('ref_axis',(0.966187714716064,0.,0.257839678738068));
#517=DIRECTION('center_axis',(0.,1.,0.));
#518=DIRECTION('ref_axis',(1.,0.,0.));
#519=DIRECTION('center_axis',(0.,1.,0.));
#520=DIRECTION('ref_axis',(0.500877699680213,0.,-0.865518070269511));
#521=DIRECTION('',(-4.78110329455107E-15,0.,-1.));
#522=DIRECTION('',(1.,0.,-9.00180830777154E-17));
#523=DIRECTION('center_axis',(0.,1.,0.));
#524=DIRECTION('ref_axis',(1.,0.,0.));
#525=DIRECTION('',(1.,0.,-9.00180830777154E-17));
#526=DIRECTION('center_axis',(0.,1.,0.));
#527=DIRECTION('ref_axis',(-0.966187714716064,0.,0.257839678738066));
#528=DIRECTION('center_axis',(0.,-1.,0.));
#529=DIRECTION('ref_axis',(-0.966187714716064,0.,0.257839678738066));
#530=DIRECTION('',(0.,-1.,0.));
#531=DIRECTION('',(0.,1.,0.));
#532=DIRECTION('center_axis',(-0.707106781186548,0.,-0.707106781186547));
#533=DIRECTION('ref_axis',(-0.707106781186547,0.,0.707106781186548));
#534=DIRECTION('',(-0.707106781186547,0.,0.707106781186548));
#535=DIRECTION('',(0.,1.,0.));
#536=DIRECTION('center_axis',(0.,1.,0.));
#537=DIRECTION('ref_axis',(0.25783967873807,0.,-0.966187714716063));
#538=DIRECTION('center_axis',(0.,-1.,0.));
#539=DIRECTION('ref_axis',(0.25783967873807,0.,-0.966187714716063));
#540=DIRECTION('',(0.,-1.,0.));
#541=DIRECTION('center_axis',(0.,1.,0.));
#542=DIRECTION('ref_axis',(-0.865518070269513,0.,-0.50087769968021));
#543=DIRECTION('center_axis',(0.,-1.,0.));
#544=DIRECTION('ref_axis',(-0.865518070269513,0.,-0.50087769968021));
#545=DIRECTION('',(0.,-1.,0.));
#546=DIRECTION('',(0.,1.,0.));
#547=DIRECTION('center_axis',(1.44881918016699E-16,0.,-1.));
#548=DIRECTION('ref_axis',(-1.,0.,-1.44881918016699E-16));
#549=DIRECTION('',(-1.,0.,-1.44881918016699E-16));
#550=DIRECTION('',(0.,1.,0.));
#551=DIRECTION('center_axis',(0.,1.,0.));
#552=DIRECTION('ref_axis',(0.865518070269513,0.,-0.50087769968021));
#553=DIRECTION('center_axis',(0.,-1.,0.));
#554=DIRECTION('ref_axis',(0.865518070269513,0.,-0.50087769968021));
#555=DIRECTION('',(0.,-1.,0.));
#556=DIRECTION('center_axis',(0.,1.,0.));
#557=DIRECTION('ref_axis',(-0.257839678738068,0.,-0.966187714716064));
#558=DIRECTION('center_axis',(0.,-1.,0.));
#559=DIRECTION('ref_axis',(-0.257839678738068,0.,-0.966187714716064));
#560=DIRECTION('',(0.,-1.,0.));
#561=DIRECTION('',(0.,1.,0.));
#562=DIRECTION('center_axis',(0.707106781186548,0.,-0.707106781186548));
#563=DIRECTION('ref_axis',(-0.707106781186548,0.,-0.707106781186548));
#564=DIRECTION('',(-0.707106781186547,0.,-0.707106781186547));
#565=DIRECTION('',(0.,1.,0.));
#566=DIRECTION('center_axis',(0.,1.,0.));
#567=DIRECTION('ref_axis',(0.966187714716064,0.,0.257839678738068));
#568=DIRECTION('center_axis',(0.,-1.,0.));
#569=DIRECTION('ref_axis',(0.966187714716064,0.,0.257839678738068));
#570=DIRECTION('',(0.,-1.,0.));
#571=DIRECTION('center_axis',(0.,1.,0.));
#572=DIRECTION('ref_axis',(0.500877699680213,0.,-0.865518070269511));
#573=DIRECTION('center_axis',(0.,-1.,0.));
#574=DIRECTION('ref_axis',(0.500877699680213,0.,-0.865518070269511));
#575=DIRECTION('',(0.,-1.,0.));
#576=DIRECTION('',(0.,1.,0.));
#577=DIRECTION('center_axis',(1.,0.,-4.78110329455107E-15));
#578=DIRECTION('ref_axis',(-4.78110329455107E-15,0.,-1.));
#579=DIRECTION('',(-4.78110329455107E-15,0.,-1.));
#580=DIRECTION('',(0.,1.,0.));
#581=DIRECTION('center_axis',(0.,1.,0.));
#582=DIRECTION('ref_axis',(1.,0.,0.));
#583=DIRECTION('center_axis',(0.,-1.,0.));
#584=DIRECTION('ref_axis',(1.,0.,0.));
#585=DIRECTION('center_axis',(0.,1.,0.));
#586=DIRECTION('ref_axis',(1.,0.,0.));
#587=DIRECTION('center_axis',(0.,-1.,0.));
#588=DIRECTION('ref_axis',(1.,0.,0.));
#589=DIRECTION('center_axis',(0.,1.,0.));
#590=DIRECTION('ref_axis',(-0.382683432365093,0.,0.923879532511286));
#591=DIRECTION('center_axis',(0.,-1.,0.));
#592=DIRECTION('ref_axis',(1.,0.,0.));
#593=DIRECTION('center_axis',(0.,1.,0.));
#594=DIRECTION('ref_axis',(-0.923879532511288,0.,0.382683432365088));
#595=DIRECTION('center_axis',(0.,-1.,0.));
#596=DIRECTION('ref_axis',(1.,0.,0.));
#597=DIRECTION('center_axis',(9.00180830777154E-17,0.,1.));
#598=DIRECTION('ref_axis',(1.,0.,-9.00180830777154E-17));
#599=DIRECTION('',(1.,0.,-9.00180830777154E-17));
#600=DIRECTION('',(0.,1.,0.));
#601=DIRECTION('center_axis',(0.,1.,0.));
#602=DIRECTION('ref_axis',(1.,0.,0.));
#603=DIRECTION('center_axis',(0.,-1.,0.));
#604=DIRECTION('ref_axis',(1.,0.,0.));
#605=DIRECTION('',(0.,1.,0.));
#606=DIRECTION('center_axis',(9.00180830777154E-17,0.,1.));
#607=DIRECTION('ref_axis',(1.,0.,-9.00180830777154E-17));
#608=DIRECTION('',(1.,0.,-9.00180830777154E-17));
#609=DIRECTION('center_axis',(0.,1.,0.));
#610=DIRECTION('ref_axis',(1.,0.,0.));
#611=CARTESIAN_POINT('',(0.,0.,0.));
#612=CARTESIAN_POINT('Origin',(-18.,0.,-4.50394893219626));
#613=CARTESIAN_POINT('',(-18.5,1.,-4.50394893219626));
#614=CARTESIAN_POINT('',(-17.750878470037,1.,-4.93746763226451));
#615=CARTESIAN_POINT('Origin',(-18.,1.,-4.50394893219626));
#616=CARTESIAN_POINT('',(-17.750878470037,0.,-4.93746763226451));
#617=CARTESIAN_POINT('',(-17.750878470037,0.,-4.93746763226451));
#618=CARTESIAN_POINT('',(-18.5,0.,-4.50394893219626));
#619=CARTESIAN_POINT('Origin',(-18.,0.,-4.50394893219626));
#620=CARTESIAN_POINT('',(-18.5,0.,-4.50394893219626));
#621=CARTESIAN_POINT('Origin',(-18.5,0.,-5.63731413263409));
#622=CARTESIAN_POINT('',(-18.5,0.,-1.));
#623=CARTESIAN_POINT('',(-18.5,0.,-7.66295090390224));
#624=CARTESIAN_POINT('',(-18.5,1.,-1.));
#625=CARTESIAN_POINT('',(-18.5,0.,-1.));
#626=CARTESIAN_POINT('',(-18.5,1.,-7.66295090390224));
#627=CARTESIAN_POINT('Origin',(-1.33226762955019E-14,0.,-9.75));
#628=CARTESIAN_POINT('',(-16.0430833828447,0.,-9.06044969351809));
#629=CARTESIAN_POINT('Origin',(-16.6298315852032,0.,-6.88830178257162));
#630=CARTESIAN_POINT('',(-16.266248284025,0.,-9.89670261987725));
#631=CARTESIAN_POINT('Origin',(-15.9126948934317,0.,-9.54314922928398));
#632=CARTESIAN_POINT('',(-9.89670261987725,0.,-16.266248284025));
#633=CARTESIAN_POINT('',(-7.66295090390227,0.,-18.5));
#634=CARTESIAN_POINT('',(-9.06044969351809,0.,-16.0430833828447));
#635=CARTESIAN_POINT('Origin',(-9.54314922928397,0.,-15.9126948934317));
#636=CARTESIAN_POINT('',(-4.93746763226449,0.,-17.7508784700369));
#637=CARTESIAN_POINT('Origin',(-6.88830178257161,0.,-16.6298315852032));
#638=CARTESIAN_POINT('',(-4.50394893219624,0.,-18.5));
#639=CARTESIAN_POINT('Origin',(-4.50394893219624,0.,-18.));
#640=CARTESIAN_POINT('',(4.50394893219625,0.,-18.5));
#641=CARTESIAN_POINT('',(7.66295090390224,0.,-18.5));
#642=CARTESIAN_POINT('',(4.9374676322645,0.,-17.7508784700369));
#643=CARTESIAN_POINT('Origin',(4.50394893219625,0.,-18.));
#644=CARTESIAN_POINT('',(9.06044969351809,0.,-16.0430833828447));
#645=CARTESIAN_POINT('Origin',(6.88830178257162,0.,-16.6298315852032));
#646=CARTESIAN_POINT('',(9.89670261987725,0.,-16.266248284025));
#647=CARTESIAN_POINT('Origin',(9.54314922928398,0.,-15.9126948934317));
#648=CARTESIAN_POINT('',(16.266248284025,0.,-9.89670261987724));
#649=CARTESIAN_POINT('',(18.5,0.,-7.66295090390227));
#650=CARTESIAN_POINT('',(16.0430833828447,0.,-9.06044969351808));
#651=CARTESIAN_POINT('Origin',(15.9126948934317,0.,-9.54314922928397));
#652=CARTESIAN_POINT('',(17.7508784700369,0.,-4.93746763226448));
#653=CARTESIAN_POINT('Origin',(16.6298315852032,0.,-6.88830178257161));
#654=CARTESIAN_POINT('',(18.5,0.,-4.50394893219623));
#655=CARTESIAN_POINT('Origin',(18.,0.,-4.50394893219623));
#656=CARTESIAN_POINT('',(18.5,0.,-1.));
#657=CARTESIAN_POINT('',(18.5,0.,7.66295090390224));
#658=CARTESIAN_POINT('',(13.9642400437689,0.,-1.));
#659=CARTESIAN_POINT('',(-18.5,0.,-1.));
#660=CARTESIAN_POINT('',(-13.9642400437689,0.,-1.));
#661=CARTESIAN_POINT('Origin',(0.,0.,0.));
#662=CARTESIAN_POINT('',(-18.5,0.,-1.));
#663=CARTESIAN_POINT('Origin',(-15.9126948934317,0.,-9.54314922928398));
#664=CARTESIAN_POINT('',(-16.0430833828447,1.,-9.06044969351809));
#665=CARTESIAN_POINT('',(-16.266248284025,1.,-9.89670261987725));
#666=CARTESIAN_POINT('Origin',(-15.9126948934317,1.,-9.54314922928398));
#667=CARTESIAN_POINT('',(-16.266248284025,0.,-9.89670261987725));
#668=CARTESIAN_POINT('',(-16.0430833828447,0.,-9.06044969351809));
#669=CARTESIAN_POINT('Origin',(-9.09529240108682,0.,-17.0676585028154));
#670=CARTESIAN_POINT('',(-9.89670261987725,1.,-16.266248284025));
#671=CARTESIAN_POINT('',(-7.66295090390227,1.,-18.5));
#672=CARTESIAN_POINT('',(-9.89670261987725,0.,-16.266248284025));
#673=CARTESIAN_POINT('Origin',(-9.54314922928397,0.,-15.9126948934317));
#674=CARTESIAN_POINT('',(-9.06044969351809,1.,-16.0430833828447));
#675=CARTESIAN_POINT('Origin',(-9.54314922928397,1.,-15.9126948934317));
#676=CARTESIAN_POINT('',(-9.06044969351809,0.,-16.0430833828447));
#677=CARTESIAN_POINT('Origin',(-4.50394893219624,0.,-18.));
#678=CARTESIAN_POINT('',(-4.93746763226449,1.,-17.7508784700369));
#679=CARTESIAN_POINT('',(-4.50394893219624,1.,-18.5));
#680=CARTESIAN_POINT('Origin',(-4.50394893219624,1.,-18.));
#681=CARTESIAN_POINT('',(-4.50394893219624,0.,-18.5));
#682=CARTESIAN_POINT('',(-4.93746763226449,0.,-17.7508784700369));
#683=CARTESIAN_POINT('Origin',(5.63731413263405,0.,-18.5));
#684=CARTESIAN_POINT('',(4.50394893219625,1.,-18.5));
#685=CARTESIAN_POINT('',(7.66295090390224,1.,-18.5));
#686=CARTESIAN_POINT('',(4.50394893219625,0.,-18.5));
#687=CARTESIAN_POINT('Origin',(4.50394893219625,0.,-18.));
#688=CARTESIAN_POINT('',(4.9374676322645,1.,-17.7508784700369));
#689=CARTESIAN_POINT('Origin',(4.50394893219625,1.,-18.));
#690=CARTESIAN_POINT('',(4.9374676322645,0.,-17.7508784700369));
#691=CARTESIAN_POINT('Origin',(9.54314922928398,0.,-15.9126948934317));
#692=CARTESIAN_POINT('',(9.06044969351809,1.,-16.0430833828447));
#693=CARTESIAN_POINT('',(9.89670261987725,1.,-16.266248284025));
#694=CARTESIAN_POINT('Origin',(9.54314922928398,1.,-15.9126948934317));
#695=CARTESIAN_POINT('',(9.89670261987725,0.,-16.266248284025));
#696=CARTESIAN_POINT('',(9.06044969351809,0.,-16.0430833828447));
#697=CARTESIAN_POINT('Origin',(17.0676585028154,0.,-9.09529240108683));
#698=CARTESIAN_POINT('',(16.266248284025,1.,-9.89670261987724));
#699=CARTESIAN_POINT('',(18.5,1.,-7.66295090390227));
#700=CARTESIAN_POINT('',(16.266248284025,0.,-9.89670261987724));
#701=CARTESIAN_POINT('Origin',(15.9126948934317,0.,-9.54314922928397));
#702=CARTESIAN_POINT('',(16.0430833828447,1.,-9.06044969351808));
#703=CARTESIAN_POINT('Origin',(15.9126948934317,1.,-9.54314922928397));
#704=CARTESIAN_POINT('',(16.0430833828447,0.,-9.06044969351808));
#705=CARTESIAN_POINT('Origin',(18.,0.,-4.50394893219623));
#706=CARTESIAN_POINT('',(17.7508784700369,1.,-4.93746763226448));
#707=CARTESIAN_POINT('',(18.5,1.,-4.50394893219623));
#708=CARTESIAN_POINT('Origin',(18.,1.,-4.50394893219623));
#709=CARTESIAN_POINT('',(18.5,0.,-4.50394893219623));
#710=CARTESIAN_POINT('',(17.7508784700369,0.,-4.93746763226448));
#711=CARTESIAN_POINT('Origin',(18.5,0.,-1.));
#712=CARTESIAN_POINT('',(18.5,1.,-1.));
#713=CARTESIAN_POINT('',(18.5,1.,7.66295090390224));
#714=CARTESIAN_POINT('',(18.5,0.,-1.));
#715=CARTESIAN_POINT('Origin',(-16.6298315852032,0.,-6.88830178257162));
#716=CARTESIAN_POINT('Origin',(-16.6298315852032,1.,-6.88830178257162));
#717=CARTESIAN_POINT('Origin',(-6.88830178257161,0.,-16.6298315852032));
#718=CARTESIAN_POINT('Origin',(-6.88830178257161,1.,-16.6298315852032));
#719=CARTESIAN_POINT('Origin',(6.88830178257162,0.,-16.6298315852032));
#720=CARTESIAN_POINT('Origin',(6.88830178257162,1.,-16.6298315852032));
#721=CARTESIAN_POINT('Origin',(16.6298315852032,0.,-6.88830178257161));
#722=CARTESIAN_POINT('Origin',(16.6298315852032,1.,-6.88830178257161));
#723=CARTESIAN_POINT('Origin',(13.9642400437689,0.,-1.));
#724=CARTESIAN_POINT('',(13.9642400437689,1.,-1.));
#725=CARTESIAN_POINT('',(-18.5,1.,-1.));
#726=CARTESIAN_POINT('',(13.9642400437689,0.,-1.));
#727=CARTESIAN_POINT('Origin',(0.,0.,0.));
#728=CARTESIAN_POINT('',(-13.9642400437689,1.,-1.));
#729=CARTESIAN_POINT('Origin',(0.,1.,0.));
#730=CARTESIAN_POINT('',(-13.9642400437689,0.,-1.));
#731=CARTESIAN_POINT('Origin',(-18.5,0.,-1.));
#732=CARTESIAN_POINT('',(-18.5,1.,-1.));
#733=CARTESIAN_POINT('Origin',(-1.33226762955019E-14,1.,-9.75));
#734=UNCERTAINTY_MEASURE_WITH_UNIT(LENGTH_MEASURE(0.01),#738,
'DISTANCE_ACCURACY_VALUE',
'Maximum model space distance between geometric entities at asserted c
onnectivities');
#735=UNCERTAINTY_MEASURE_WITH_UNIT(LENGTH_MEASURE(0.01),#738,
'DISTANCE_ACCURACY_VALUE',
'Maximum model space distance between geometric entities at asserted c
onnectivities');
#736=(
GEOMETRIC_REPRESENTATION_CONTEXT(3)
GLOBAL_UNCERTAINTY_ASSIGNED_CONTEXT((#734))
GLOBAL_UNIT_ASSIGNED_CONTEXT((#738,#740,#741))
REPRESENTATION_CONTEXT('','3D')
);
#737=(
GEOMETRIC_REPRESENTATION_CONTEXT(3)
GLOBAL_UNCERTAINTY_ASSIGNED_CONTEXT((#735))
GLOBAL_UNIT_ASSIGNED_CONTEXT((#738,#740,#741))
REPRESENTATION_CONTEXT('','3D')
);
#738=(
LENGTH_UNIT()
NAMED_UNIT(*)
SI_UNIT(.MILLI.,.METRE.)
);
#739=(
LENGTH_UNIT()
NAMED_UNIT(*)
SI_UNIT($,.METRE.)
);
#740=(
NAMED_UNIT(*)
PLANE_ANGLE_UNIT()
SI_UNIT($,.RADIAN.)
);
#741=(
NAMED_UNIT(*)
SI_UNIT($,.STERADIAN.)
SOLID_ANGLE_UNIT()
);
#742=SHAPE_DEFINITION_REPRESENTATION(#743,#744);
#743=PRODUCT_DEFINITION_SHAPE('',$,#746);
#744=SHAPE_REPRESENTATION('',(#430),#736);
#745=PRODUCT_DEFINITION_CONTEXT('part definition',#750,'design');
#746=PRODUCT_DEFINITION('stage 1 shield pressure clamp',
'stage 1 shield pressure clamp v3',#747,#745);
#747=PRODUCT_DEFINITION_FORMATION('',$,#752);
#748=PRODUCT_RELATED_PRODUCT_CATEGORY(
'stage 1 shield pressure clamp v3','stage 1 shield pressure clamp v3',(#752));
#749=APPLICATION_PROTOCOL_DEFINITION('international standard',
'automotive_design',2009,#750);
#750=APPLICATION_CONTEXT(
'Core Data for Automotive Mechanical Design Process');
#751=PRODUCT_CONTEXT('part definition',#750,'mechanical');
#752=PRODUCT('stage 1 shield pressure clamp',
'stage 1 shield pressure clamp v3',$,(#751));
#753=PRESENTATION_STYLE_ASSIGNMENT((#754));
#754=SURFACE_STYLE_USAGE(.BOTH.,#755);
#755=SURFACE_SIDE_STYLE('',(#756));
#756=SURFACE_STYLE_FILL_AREA(#757);
#757=FILL_AREA_STYLE('Stainless Steel - Satin',(#758));
#758=FILL_AREA_STYLE_COLOUR('Stainless Steel - Satin',#759);
#759=COLOUR_RGB('Stainless Steel - Satin',0.796078431372549,0.796078431372549,
0.796078431372549);
ENDSEC;
END-ISO-10303-21;
