ISO-10303-21;
HEADER;
/* Generated by software containing ST-Developer
 * from STEP Tools, Inc. (www.steptools.com) 
 */

FILE_DESCRIPTION(
/* description */ (''),
/* implementation_level */ '2;1');

FILE_NAME(
/* name */ 'stage 2 connector clamp v5.step',
/* time_stamp */ '2024-06-14T15:42:43+02:00',
/* author */ (''),
/* organization */ (''),
/* preprocessor_version */ 'ST-DEVELOPER v20',
/* originating_system */ 'Autodesk Translation Framework v13.14.0.145',

/* authorisation */ '');

FILE_SCHEMA (('AUTOMOTIVE_DESIGN { 1 0 10303 214 3 1 1 }'));
ENDSEC;

DATA;
#10=MECHANICAL_DESIGN_GEOMETRIC_PRESENTATION_REPRESENTATION('',(#13),#1767);
#11=SHAPE_REPRESENTATION_RELATIONSHIP('SRR','None',#1774,#12);
#12=ADVANCED_BREP_SHAPE_REPRESENTATION('',(#14),#1766);
#13=STYLED_ITEM('',(#1783),#14);
#14=MANIFOLD_SOLID_BREP('Body1',#1035);
#15=FACE_BOUND('',#136,.T.);
#16=FACE_BOUND('',#137,.T.);
#17=FACE_BOUND('',#138,.T.);
#18=FACE_BOUND('',#139,.T.);
#19=FACE_BOUND('',#140,.T.);
#20=FACE_BOUND('',#141,.T.);
#21=FACE_BOUND('',#142,.T.);
#22=FACE_BOUND('',#143,.T.);
#23=FACE_BOUND('',#144,.T.);
#24=FACE_BOUND('',#145,.T.);
#25=FACE_BOUND('',#146,.T.);
#26=FACE_BOUND('',#147,.T.);
#27=FACE_BOUND('',#148,.T.);
#28=FACE_BOUND('',#149,.T.);
#29=FACE_BOUND('',#150,.T.);
#30=FACE_BOUND('',#151,.T.);
#31=FACE_BOUND('',#152,.T.);
#32=FACE_BOUND('',#169,.T.);
#33=FACE_BOUND('',#170,.T.);
#34=FACE_BOUND('',#171,.T.);
#35=FACE_BOUND('',#172,.T.);
#36=FACE_BOUND('',#173,.T.);
#37=FACE_BOUND('',#174,.T.);
#38=FACE_BOUND('',#175,.T.);
#39=FACE_BOUND('',#176,.T.);
#40=FACE_BOUND('',#177,.T.);
#41=FACE_BOUND('',#178,.T.);
#42=FACE_BOUND('',#179,.T.);
#43=FACE_BOUND('',#180,.T.);
#44=FACE_BOUND('',#181,.T.);
#45=FACE_BOUND('',#182,.T.);
#46=FACE_BOUND('',#183,.T.);
#47=FACE_BOUND('',#184,.T.);
#48=FACE_BOUND('',#185,.T.);
#49=PLANE('',#1052);
#50=PLANE('',#1056);
#51=PLANE('',#1060);
#52=PLANE('',#1064);
#53=PLANE('',#1068);
#54=PLANE('',#1072);
#55=PLANE('',#1076);
#56=PLANE('',#1080);
#57=PLANE('',#1084);
#58=PLANE('',#1085);
#59=PLANE('',#1111);
#60=PLANE('',#1116);
#61=PLANE('',#1121);
#62=PLANE('',#1128);
#63=PLANE('',#1129);
#64=PLANE('',#1130);
#65=PLANE('',#1131);
#66=PLANE('',#1132);
#67=FACE_OUTER_BOUND('',#117,.T.);
#68=FACE_OUTER_BOUND('',#118,.T.);
#69=FACE_OUTER_BOUND('',#119,.T.);
#70=FACE_OUTER_BOUND('',#120,.T.);
#71=FACE_OUTER_BOUND('',#121,.T.);
#72=FACE_OUTER_BOUND('',#122,.T.);
#73=FACE_OUTER_BOUND('',#123,.T.);
#74=FACE_OUTER_BOUND('',#124,.T.);
#75=FACE_OUTER_BOUND('',#125,.T.);
#76=FACE_OUTER_BOUND('',#126,.T.);
#77=FACE_OUTER_BOUND('',#127,.T.);
#78=FACE_OUTER_BOUND('',#128,.T.);
#79=FACE_OUTER_BOUND('',#129,.T.);
#80=FACE_OUTER_BOUND('',#130,.T.);
#81=FACE_OUTER_BOUND('',#131,.T.);
#82=FACE_OUTER_BOUND('',#132,.T.);
#83=FACE_OUTER_BOUND('',#133,.T.);
#84=FACE_OUTER_BOUND('',#134,.T.);
#85=FACE_OUTER_BOUND('',#135,.T.);
#86=FACE_OUTER_BOUND('',#153,.T.);
#87=FACE_OUTER_BOUND('',#154,.T.);
#88=FACE_OUTER_BOUND('',#155,.T.);
#89=FACE_OUTER_BOUND('',#156,.T.);
#90=FACE_OUTER_BOUND('',#157,.T.);
#91=FACE_OUTER_BOUND('',#158,.T.);
#92=FACE_OUTER_BOUND('',#159,.T.);
#93=FACE_OUTER_BOUND('',#160,.T.);
#94=FACE_OUTER_BOUND('',#161,.T.);
#95=FACE_OUTER_BOUND('',#162,.T.);
#96=FACE_OUTER_BOUND('',#163,.T.);
#97=FACE_OUTER_BOUND('',#164,.T.);
#98=FACE_OUTER_BOUND('',#165,.T.);
#99=FACE_OUTER_BOUND('',#166,.T.);
#100=FACE_OUTER_BOUND('',#167,.T.);
#101=FACE_OUTER_BOUND('',#168,.T.);
#102=FACE_OUTER_BOUND('',#186,.T.);
#103=FACE_OUTER_BOUND('',#187,.T.);
#104=FACE_OUTER_BOUND('',#188,.T.);
#105=FACE_OUTER_BOUND('',#189,.T.);
#106=FACE_OUTER_BOUND('',#190,.T.);
#107=FACE_OUTER_BOUND('',#191,.T.);
#108=FACE_OUTER_BOUND('',#192,.T.);
#109=FACE_OUTER_BOUND('',#193,.T.);
#110=FACE_OUTER_BOUND('',#194,.T.);
#111=FACE_OUTER_BOUND('',#195,.T.);
#112=FACE_OUTER_BOUND('',#196,.T.);
#113=FACE_OUTER_BOUND('',#197,.T.);
#114=FACE_OUTER_BOUND('',#198,.T.);
#115=FACE_OUTER_BOUND('',#199,.T.);
#116=FACE_OUTER_BOUND('',#200,.T.);
#117=EDGE_LOOP('',(#665,#666,#667,#668));
#118=EDGE_LOOP('',(#669,#670,#671,#672));
#119=EDGE_LOOP('',(#673,#674,#675,#676));
#120=EDGE_LOOP('',(#677,#678,#679,#680));
#121=EDGE_LOOP('',(#681,#682,#683,#684));
#122=EDGE_LOOP('',(#685,#686,#687,#688));
#123=EDGE_LOOP('',(#689,#690,#691,#692));
#124=EDGE_LOOP('',(#693,#694,#695,#696));
#125=EDGE_LOOP('',(#697,#698,#699,#700));
#126=EDGE_LOOP('',(#701,#702,#703,#704));
#127=EDGE_LOOP('',(#705,#706,#707,#708));
#128=EDGE_LOOP('',(#709,#710,#711,#712));
#129=EDGE_LOOP('',(#713,#714,#715,#716));
#130=EDGE_LOOP('',(#717,#718,#719,#720));
#131=EDGE_LOOP('',(#721,#722,#723,#724));
#132=EDGE_LOOP('',(#725,#726,#727,#728));
#133=EDGE_LOOP('',(#729,#730,#731,#732));
#134=EDGE_LOOP('',(#733,#734,#735,#736));
#135=EDGE_LOOP('',(#737,#738,#739,#740,#741,#742,#743,#744,#745,#746,#747,
#748,#749,#750,#751,#752));
#136=EDGE_LOOP('',(#753));
#137=EDGE_LOOP('',(#754));
#138=EDGE_LOOP('',(#755));
#139=EDGE_LOOP('',(#756));
#140=EDGE_LOOP('',(#757));
#141=EDGE_LOOP('',(#758));
#142=EDGE_LOOP('',(#759));
#143=EDGE_LOOP('',(#760));
#144=EDGE_LOOP('',(#761));
#145=EDGE_LOOP('',(#762));
#146=EDGE_LOOP('',(#763));
#147=EDGE_LOOP('',(#764));
#148=EDGE_LOOP('',(#765));
#149=EDGE_LOOP('',(#766));
#150=EDGE_LOOP('',(#767));
#151=EDGE_LOOP('',(#768));
#152=EDGE_LOOP('',(#769,#770,#771,#772,#773,#774,#775,#776,#777,#778,#779,
#780,#781,#782,#783,#784));
#153=EDGE_LOOP('',(#785,#786,#787,#788));
#154=EDGE_LOOP('',(#789,#790,#791,#792));
#155=EDGE_LOOP('',(#793,#794,#795,#796));
#156=EDGE_LOOP('',(#797,#798,#799,#800));
#157=EDGE_LOOP('',(#801,#802,#803,#804));
#158=EDGE_LOOP('',(#805,#806,#807,#808));
#159=EDGE_LOOP('',(#809,#810,#811,#812));
#160=EDGE_LOOP('',(#813,#814,#815,#816));
#161=EDGE_LOOP('',(#817,#818,#819,#820));
#162=EDGE_LOOP('',(#821,#822,#823,#824));
#163=EDGE_LOOP('',(#825,#826,#827,#828));
#164=EDGE_LOOP('',(#829,#830,#831,#832));
#165=EDGE_LOOP('',(#833,#834,#835,#836));
#166=EDGE_LOOP('',(#837,#838,#839,#840));
#167=EDGE_LOOP('',(#841,#842,#843,#844));
#168=EDGE_LOOP('',(#845,#846,#847,#848,#849,#850,#851,#852,#853,#854,#855,
#856,#857,#858,#859,#860));
#169=EDGE_LOOP('',(#861));
#170=EDGE_LOOP('',(#862));
#171=EDGE_LOOP('',(#863));
#172=EDGE_LOOP('',(#864));
#173=EDGE_LOOP('',(#865));
#174=EDGE_LOOP('',(#866));
#175=EDGE_LOOP('',(#867));
#176=EDGE_LOOP('',(#868));
#177=EDGE_LOOP('',(#869));
#178=EDGE_LOOP('',(#870));
#179=EDGE_LOOP('',(#871));
#180=EDGE_LOOP('',(#872));
#181=EDGE_LOOP('',(#873));
#182=EDGE_LOOP('',(#874));
#183=EDGE_LOOP('',(#875));
#184=EDGE_LOOP('',(#876));
#185=EDGE_LOOP('',(#877,#878,#879,#880,#881,#882,#883,#884,#885,#886,#887,
#888,#889,#890,#891,#892));
#186=EDGE_LOOP('',(#893,#894,#895,#896));
#187=EDGE_LOOP('',(#897,#898,#899,#900));
#188=EDGE_LOOP('',(#901,#902,#903,#904));
#189=EDGE_LOOP('',(#905,#906,#907,#908));
#190=EDGE_LOOP('',(#909,#910,#911,#912));
#191=EDGE_LOOP('',(#913,#914,#915,#916));
#192=EDGE_LOOP('',(#917,#918,#919,#920));
#193=EDGE_LOOP('',(#921,#922,#923,#924));
#194=EDGE_LOOP('',(#925,#926,#927,#928));
#195=EDGE_LOOP('',(#929,#930,#931,#932));
#196=EDGE_LOOP('',(#933,#934,#935,#936));
#197=EDGE_LOOP('',(#937,#938,#939,#940));
#198=EDGE_LOOP('',(#941,#942,#943,#944));
#199=EDGE_LOOP('',(#945,#946,#947,#948));
#200=EDGE_LOOP('',(#949,#950,#951,#952));
#201=LINE('',#1479,#281);
#202=LINE('',#1482,#282);
#203=LINE('',#1485,#283);
#204=LINE('',#1487,#284);
#205=LINE('',#1488,#285);
#206=LINE('',#1494,#286);
#207=LINE('',#1497,#287);
#208=LINE('',#1499,#288);
#209=LINE('',#1500,#289);
#210=LINE('',#1506,#290);
#211=LINE('',#1509,#291);
#212=LINE('',#1511,#292);
#213=LINE('',#1512,#293);
#214=LINE('',#1518,#294);
#215=LINE('',#1521,#295);
#216=LINE('',#1523,#296);
#217=LINE('',#1524,#297);
#218=LINE('',#1530,#298);
#219=LINE('',#1533,#299);
#220=LINE('',#1535,#300);
#221=LINE('',#1536,#301);
#222=LINE('',#1542,#302);
#223=LINE('',#1545,#303);
#224=LINE('',#1547,#304);
#225=LINE('',#1548,#305);
#226=LINE('',#1554,#306);
#227=LINE('',#1557,#307);
#228=LINE('',#1559,#308);
#229=LINE('',#1560,#309);
#230=LINE('',#1565,#310);
#231=LINE('',#1568,#311);
#232=LINE('',#1569,#312);
#233=LINE('',#1575,#313);
#234=LINE('',#1578,#314);
#235=LINE('',#1581,#315);
#236=LINE('',#1583,#316);
#237=LINE('',#1584,#317);
#238=LINE('',#1587,#318);
#239=LINE('',#1591,#319);
#240=LINE('',#1595,#320);
#241=LINE('',#1599,#321);
#242=LINE('',#1603,#322);
#243=LINE('',#1607,#323);
#244=LINE('',#1611,#324);
#245=LINE('',#1649,#325);
#246=LINE('',#1650,#326);
#247=LINE('',#1653,#327);
#248=LINE('',#1654,#328);
#249=LINE('',#1658,#329);
#250=LINE('',#1663,#330);
#251=LINE('',#1664,#331);
#252=LINE('',#1667,#332);
#253=LINE('',#1668,#333);
#254=LINE('',#1672,#334);
#255=LINE('',#1677,#335);
#256=LINE('',#1678,#336);
#257=LINE('',#1681,#337);
#258=LINE('',#1682,#338);
#259=LINE('',#1686,#339);
#260=LINE('',#1690,#340);
#261=LINE('',#1693,#341);
#262=LINE('',#1696,#342);
#263=LINE('',#1698,#343);
#264=LINE('',#1700,#344);
#265=LINE('',#1702,#345);
#266=LINE('',#1735,#346);
#267=LINE('',#1737,#347);
#268=LINE('',#1739,#348);
#269=LINE('',#1741,#349);
#270=LINE('',#1743,#350);
#271=LINE('',#1745,#351);
#272=LINE('',#1747,#352);
#273=LINE('',#1749,#353);
#274=LINE('',#1751,#354);
#275=LINE('',#1753,#355);
#276=LINE('',#1755,#356);
#277=LINE('',#1757,#357);
#278=LINE('',#1759,#358);
#279=LINE('',#1761,#359);
#280=LINE('',#1763,#360);
#281=VECTOR('',#1169,10.);
#282=VECTOR('',#1172,10.);
#283=VECTOR('',#1175,10.);
#284=VECTOR('',#1176,10.);
#285=VECTOR('',#1177,10.);
#286=VECTOR('',#1182,10.);
#287=VECTOR('',#1185,10.);
#288=VECTOR('',#1188,10.);
#289=VECTOR('',#1189,10.);
#290=VECTOR('',#1194,10.);
#291=VECTOR('',#1197,10.);
#292=VECTOR('',#1200,10.);
#293=VECTOR('',#1201,10.);
#294=VECTOR('',#1206,10.);
#295=VECTOR('',#1209,10.);
#296=VECTOR('',#1212,10.);
#297=VECTOR('',#1213,10.);
#298=VECTOR('',#1218,10.);
#299=VECTOR('',#1221,10.);
#300=VECTOR('',#1224,10.);
#301=VECTOR('',#1225,10.);
#302=VECTOR('',#1230,10.);
#303=VECTOR('',#1233,10.);
#304=VECTOR('',#1236,10.);
#305=VECTOR('',#1237,10.);
#306=VECTOR('',#1242,10.);
#307=VECTOR('',#1245,10.);
#308=VECTOR('',#1248,10.);
#309=VECTOR('',#1249,10.);
#310=VECTOR('',#1254,10.);
#311=VECTOR('',#1259,10.);
#312=VECTOR('',#1260,10.);
#313=VECTOR('',#1265,10.);
#314=VECTOR('',#1268,10.);
#315=VECTOR('',#1271,10.);
#316=VECTOR('',#1272,10.);
#317=VECTOR('',#1273,10.);
#318=VECTOR('',#1276,10.);
#319=VECTOR('',#1279,10.);
#320=VECTOR('',#1282,10.);
#321=VECTOR('',#1285,10.);
#322=VECTOR('',#1288,10.);
#323=VECTOR('',#1291,10.);
#324=VECTOR('',#1294,10.);
#325=VECTOR('',#1333,10.);
#326=VECTOR('',#1334,10.);
#327=VECTOR('',#1337,10.);
#328=VECTOR('',#1338,10.);
#329=VECTOR('',#1343,10.);
#330=VECTOR('',#1348,10.);
#331=VECTOR('',#1349,10.);
#332=VECTOR('',#1352,10.);
#333=VECTOR('',#1353,10.);
#334=VECTOR('',#1358,10.);
#335=VECTOR('',#1363,10.);
#336=VECTOR('',#1364,10.);
#337=VECTOR('',#1367,10.);
#338=VECTOR('',#1368,10.);
#339=VECTOR('',#1373,10.);
#340=VECTOR('',#1378,10.);
#341=VECTOR('',#1381,2.117);
#342=VECTOR('',#1386,10.);
#343=VECTOR('',#1389,10.);
#344=VECTOR('',#1392,10.);
#345=VECTOR('',#1395,10.);
#346=VECTOR('',#1430,2.117);
#347=VECTOR('',#1433,2.117);
#348=VECTOR('',#1436,2.117);
#349=VECTOR('',#1439,2.117);
#350=VECTOR('',#1442,2.117);
#351=VECTOR('',#1445,2.117);
#352=VECTOR('',#1448,2.117);
#353=VECTOR('',#1451,2.117);
#354=VECTOR('',#1454,2.117);
#355=VECTOR('',#1457,2.117);
#356=VECTOR('',#1460,2.117);
#357=VECTOR('',#1463,2.117);
#358=VECTOR('',#1466,2.117);
#359=VECTOR('',#1469,2.117);
#360=VECTOR('',#1472,2.117);
#361=CIRCLE('',#1050,8.);
#362=CIRCLE('',#1051,8.);
#363=CIRCLE('',#1054,8.);
#364=CIRCLE('',#1055,8.);
#365=CIRCLE('',#1058,8.);
#366=CIRCLE('',#1059,8.);
#367=CIRCLE('',#1062,8.);
#368=CIRCLE('',#1063,8.);
#369=CIRCLE('',#1066,8.);
#370=CIRCLE('',#1067,8.);
#371=CIRCLE('',#1070,8.);
#372=CIRCLE('',#1071,8.);
#373=CIRCLE('',#1074,8.);
#374=CIRCLE('',#1075,8.);
#375=CIRCLE('',#1078,8.);
#376=CIRCLE('',#1079,8.);
#377=CIRCLE('',#1082,8.);
#378=CIRCLE('',#1083,8.);
#379=CIRCLE('',#1086,8.);
#380=CIRCLE('',#1087,8.);
#381=CIRCLE('',#1088,8.);
#382=CIRCLE('',#1089,8.);
#383=CIRCLE('',#1090,8.);
#384=CIRCLE('',#1091,8.);
#385=CIRCLE('',#1092,8.);
#386=CIRCLE('',#1093,2.117);
#387=CIRCLE('',#1094,2.117);
#388=CIRCLE('',#1095,2.117);
#389=CIRCLE('',#1096,2.117);
#390=CIRCLE('',#1097,2.117);
#391=CIRCLE('',#1098,2.117);
#392=CIRCLE('',#1099,2.117);
#393=CIRCLE('',#1100,2.117);
#394=CIRCLE('',#1101,2.117);
#395=CIRCLE('',#1102,2.117);
#396=CIRCLE('',#1103,2.117);
#397=CIRCLE('',#1104,2.117);
#398=CIRCLE('',#1105,2.117);
#399=CIRCLE('',#1106,2.117);
#400=CIRCLE('',#1107,2.117);
#401=CIRCLE('',#1108,2.117);
#402=CIRCLE('',#1110,8.);
#403=CIRCLE('',#1113,8.);
#404=CIRCLE('',#1115,8.);
#405=CIRCLE('',#1118,8.);
#406=CIRCLE('',#1120,8.);
#407=CIRCLE('',#1123,8.);
#408=CIRCLE('',#1125,8.);
#409=CIRCLE('',#1127,2.117);
#410=CIRCLE('',#1133,2.117);
#411=CIRCLE('',#1134,2.117);
#412=CIRCLE('',#1135,2.117);
#413=CIRCLE('',#1136,2.117);
#414=CIRCLE('',#1137,2.117);
#415=CIRCLE('',#1138,2.117);
#416=CIRCLE('',#1139,2.117);
#417=CIRCLE('',#1140,2.117);
#418=CIRCLE('',#1141,2.117);
#419=CIRCLE('',#1142,2.117);
#420=CIRCLE('',#1143,2.117);
#421=CIRCLE('',#1144,2.117);
#422=CIRCLE('',#1145,2.117);
#423=CIRCLE('',#1146,2.117);
#424=CIRCLE('',#1147,2.117);
#425=VERTEX_POINT('',#1475);
#426=VERTEX_POINT('',#1476);
#427=VERTEX_POINT('',#1478);
#428=VERTEX_POINT('',#1480);
#429=VERTEX_POINT('',#1484);
#430=VERTEX_POINT('',#1486);
#431=VERTEX_POINT('',#1490);
#432=VERTEX_POINT('',#1491);
#433=VERTEX_POINT('',#1493);
#434=VERTEX_POINT('',#1495);
#435=VERTEX_POINT('',#1502);
#436=VERTEX_POINT('',#1503);
#437=VERTEX_POINT('',#1505);
#438=VERTEX_POINT('',#1507);
#439=VERTEX_POINT('',#1514);
#440=VERTEX_POINT('',#1515);
#441=VERTEX_POINT('',#1517);
#442=VERTEX_POINT('',#1519);
#443=VERTEX_POINT('',#1526);
#444=VERTEX_POINT('',#1527);
#445=VERTEX_POINT('',#1529);
#446=VERTEX_POINT('',#1531);
#447=VERTEX_POINT('',#1538);
#448=VERTEX_POINT('',#1539);
#449=VERTEX_POINT('',#1541);
#450=VERTEX_POINT('',#1543);
#451=VERTEX_POINT('',#1550);
#452=VERTEX_POINT('',#1551);
#453=VERTEX_POINT('',#1553);
#454=VERTEX_POINT('',#1555);
#455=VERTEX_POINT('',#1562);
#456=VERTEX_POINT('',#1564);
#457=VERTEX_POINT('',#1571);
#458=VERTEX_POINT('',#1572);
#459=VERTEX_POINT('',#1574);
#460=VERTEX_POINT('',#1576);
#461=VERTEX_POINT('',#1580);
#462=VERTEX_POINT('',#1582);
#463=VERTEX_POINT('',#1586);
#464=VERTEX_POINT('',#1588);
#465=VERTEX_POINT('',#1590);
#466=VERTEX_POINT('',#1592);
#467=VERTEX_POINT('',#1594);
#468=VERTEX_POINT('',#1596);
#469=VERTEX_POINT('',#1598);
#470=VERTEX_POINT('',#1600);
#471=VERTEX_POINT('',#1602);
#472=VERTEX_POINT('',#1604);
#473=VERTEX_POINT('',#1606);
#474=VERTEX_POINT('',#1608);
#475=VERTEX_POINT('',#1610);
#476=VERTEX_POINT('',#1613);
#477=VERTEX_POINT('',#1615);
#478=VERTEX_POINT('',#1617);
#479=VERTEX_POINT('',#1619);
#480=VERTEX_POINT('',#1621);
#481=VERTEX_POINT('',#1623);
#482=VERTEX_POINT('',#1625);
#483=VERTEX_POINT('',#1627);
#484=VERTEX_POINT('',#1629);
#485=VERTEX_POINT('',#1631);
#486=VERTEX_POINT('',#1633);
#487=VERTEX_POINT('',#1635);
#488=VERTEX_POINT('',#1637);
#489=VERTEX_POINT('',#1639);
#490=VERTEX_POINT('',#1641);
#491=VERTEX_POINT('',#1643);
#492=VERTEX_POINT('',#1646);
#493=VERTEX_POINT('',#1647);
#494=VERTEX_POINT('',#1652);
#495=VERTEX_POINT('',#1656);
#496=VERTEX_POINT('',#1660);
#497=VERTEX_POINT('',#1661);
#498=VERTEX_POINT('',#1666);
#499=VERTEX_POINT('',#1670);
#500=VERTEX_POINT('',#1674);
#501=VERTEX_POINT('',#1675);
#502=VERTEX_POINT('',#1680);
#503=VERTEX_POINT('',#1684);
#504=VERTEX_POINT('',#1688);
#505=VERTEX_POINT('',#1692);
#506=VERTEX_POINT('',#1704);
#507=VERTEX_POINT('',#1706);
#508=VERTEX_POINT('',#1708);
#509=VERTEX_POINT('',#1710);
#510=VERTEX_POINT('',#1712);
#511=VERTEX_POINT('',#1714);
#512=VERTEX_POINT('',#1716);
#513=VERTEX_POINT('',#1718);
#514=VERTEX_POINT('',#1720);
#515=VERTEX_POINT('',#1722);
#516=VERTEX_POINT('',#1724);
#517=VERTEX_POINT('',#1726);
#518=VERTEX_POINT('',#1728);
#519=VERTEX_POINT('',#1730);
#520=VERTEX_POINT('',#1732);
#521=EDGE_CURVE('',#425,#426,#361,.T.);
#522=EDGE_CURVE('',#426,#427,#201,.T.);
#523=EDGE_CURVE('',#427,#428,#362,.T.);
#524=EDGE_CURVE('',#428,#425,#202,.T.);
#525=EDGE_CURVE('',#426,#429,#203,.T.);
#526=EDGE_CURVE('',#430,#429,#204,.T.);
#527=EDGE_CURVE('',#427,#430,#205,.T.);
#528=EDGE_CURVE('',#431,#432,#363,.T.);
#529=EDGE_CURVE('',#432,#433,#206,.T.);
#530=EDGE_CURVE('',#433,#434,#364,.T.);
#531=EDGE_CURVE('',#434,#431,#207,.T.);
#532=EDGE_CURVE('',#433,#428,#208,.T.);
#533=EDGE_CURVE('',#432,#425,#209,.T.);
#534=EDGE_CURVE('',#435,#436,#365,.T.);
#535=EDGE_CURVE('',#436,#437,#210,.T.);
#536=EDGE_CURVE('',#437,#438,#366,.T.);
#537=EDGE_CURVE('',#438,#435,#211,.T.);
#538=EDGE_CURVE('',#437,#434,#212,.T.);
#539=EDGE_CURVE('',#436,#431,#213,.T.);
#540=EDGE_CURVE('',#439,#440,#367,.T.);
#541=EDGE_CURVE('',#440,#441,#214,.T.);
#542=EDGE_CURVE('',#441,#442,#368,.T.);
#543=EDGE_CURVE('',#442,#439,#215,.T.);
#544=EDGE_CURVE('',#441,#438,#216,.T.);
#545=EDGE_CURVE('',#440,#435,#217,.T.);
#546=EDGE_CURVE('',#443,#444,#369,.T.);
#547=EDGE_CURVE('',#444,#445,#218,.T.);
#548=EDGE_CURVE('',#445,#446,#370,.T.);
#549=EDGE_CURVE('',#446,#443,#219,.T.);
#550=EDGE_CURVE('',#445,#442,#220,.T.);
#551=EDGE_CURVE('',#444,#439,#221,.T.);
#552=EDGE_CURVE('',#447,#448,#371,.T.);
#553=EDGE_CURVE('',#448,#449,#222,.T.);
#554=EDGE_CURVE('',#449,#450,#372,.T.);
#555=EDGE_CURVE('',#450,#447,#223,.T.);
#556=EDGE_CURVE('',#449,#446,#224,.T.);
#557=EDGE_CURVE('',#448,#443,#225,.T.);
#558=EDGE_CURVE('',#451,#452,#373,.T.);
#559=EDGE_CURVE('',#452,#453,#226,.T.);
#560=EDGE_CURVE('',#453,#454,#374,.T.);
#561=EDGE_CURVE('',#454,#451,#227,.T.);
#562=EDGE_CURVE('',#453,#450,#228,.T.);
#563=EDGE_CURVE('',#452,#447,#229,.T.);
#564=EDGE_CURVE('',#429,#455,#375,.T.);
#565=EDGE_CURVE('',#455,#456,#230,.T.);
#566=EDGE_CURVE('',#456,#430,#376,.T.);
#567=EDGE_CURVE('',#456,#454,#231,.T.);
#568=EDGE_CURVE('',#455,#451,#232,.T.);
#569=EDGE_CURVE('',#457,#458,#377,.T.);
#570=EDGE_CURVE('',#458,#459,#233,.T.);
#571=EDGE_CURVE('',#459,#460,#378,.T.);
#572=EDGE_CURVE('',#460,#457,#234,.T.);
#573=EDGE_CURVE('',#460,#461,#235,.T.);
#574=EDGE_CURVE('',#462,#461,#236,.T.);
#575=EDGE_CURVE('',#457,#462,#237,.T.);
#576=EDGE_CURVE('',#463,#459,#238,.T.);
#577=EDGE_CURVE('',#464,#463,#379,.T.);
#578=EDGE_CURVE('',#465,#464,#239,.T.);
#579=EDGE_CURVE('',#466,#465,#380,.T.);
#580=EDGE_CURVE('',#467,#466,#240,.T.);
#581=EDGE_CURVE('',#468,#467,#381,.T.);
#582=EDGE_CURVE('',#469,#468,#241,.T.);
#583=EDGE_CURVE('',#470,#469,#382,.T.);
#584=EDGE_CURVE('',#471,#470,#242,.T.);
#585=EDGE_CURVE('',#472,#471,#383,.T.);
#586=EDGE_CURVE('',#473,#472,#243,.T.);
#587=EDGE_CURVE('',#474,#473,#384,.T.);
#588=EDGE_CURVE('',#475,#474,#244,.T.);
#589=EDGE_CURVE('',#461,#475,#385,.T.);
#590=EDGE_CURVE('',#476,#476,#386,.T.);
#591=EDGE_CURVE('',#477,#477,#387,.T.);
#592=EDGE_CURVE('',#478,#478,#388,.T.);
#593=EDGE_CURVE('',#479,#479,#389,.T.);
#594=EDGE_CURVE('',#480,#480,#390,.T.);
#595=EDGE_CURVE('',#481,#481,#391,.T.);
#596=EDGE_CURVE('',#482,#482,#392,.T.);
#597=EDGE_CURVE('',#483,#483,#393,.T.);
#598=EDGE_CURVE('',#484,#484,#394,.T.);
#599=EDGE_CURVE('',#485,#485,#395,.T.);
#600=EDGE_CURVE('',#486,#486,#396,.T.);
#601=EDGE_CURVE('',#487,#487,#397,.T.);
#602=EDGE_CURVE('',#488,#488,#398,.T.);
#603=EDGE_CURVE('',#489,#489,#399,.T.);
#604=EDGE_CURVE('',#490,#490,#400,.T.);
#605=EDGE_CURVE('',#491,#491,#401,.T.);
#606=EDGE_CURVE('',#492,#493,#402,.T.);
#607=EDGE_CURVE('',#493,#464,#245,.T.);
#608=EDGE_CURVE('',#463,#492,#246,.T.);
#609=EDGE_CURVE('',#494,#493,#247,.T.);
#610=EDGE_CURVE('',#465,#494,#248,.T.);
#611=EDGE_CURVE('',#494,#495,#403,.T.);
#612=EDGE_CURVE('',#495,#466,#249,.T.);
#613=EDGE_CURVE('',#496,#497,#404,.T.);
#614=EDGE_CURVE('',#497,#468,#250,.T.);
#615=EDGE_CURVE('',#467,#496,#251,.T.);
#616=EDGE_CURVE('',#498,#497,#252,.T.);
#617=EDGE_CURVE('',#469,#498,#253,.T.);
#618=EDGE_CURVE('',#498,#499,#405,.T.);
#619=EDGE_CURVE('',#499,#470,#254,.T.);
#620=EDGE_CURVE('',#500,#501,#406,.T.);
#621=EDGE_CURVE('',#501,#472,#255,.T.);
#622=EDGE_CURVE('',#471,#500,#256,.T.);
#623=EDGE_CURVE('',#502,#501,#257,.T.);
#624=EDGE_CURVE('',#473,#502,#258,.T.);
#625=EDGE_CURVE('',#502,#503,#407,.T.);
#626=EDGE_CURVE('',#503,#474,#259,.T.);
#627=EDGE_CURVE('',#504,#462,#408,.T.);
#628=EDGE_CURVE('',#475,#504,#260,.T.);
#629=EDGE_CURVE('',#491,#505,#261,.T.);
#630=EDGE_CURVE('',#505,#505,#409,.T.);
#631=EDGE_CURVE('',#496,#495,#262,.T.);
#632=EDGE_CURVE('',#500,#499,#263,.T.);
#633=EDGE_CURVE('',#504,#503,#264,.T.);
#634=EDGE_CURVE('',#492,#458,#265,.T.);
#635=EDGE_CURVE('',#506,#506,#410,.T.);
#636=EDGE_CURVE('',#507,#507,#411,.T.);
#637=EDGE_CURVE('',#508,#508,#412,.T.);
#638=EDGE_CURVE('',#509,#509,#413,.T.);
#639=EDGE_CURVE('',#510,#510,#414,.T.);
#640=EDGE_CURVE('',#511,#511,#415,.T.);
#641=EDGE_CURVE('',#512,#512,#416,.T.);
#642=EDGE_CURVE('',#513,#513,#417,.T.);
#643=EDGE_CURVE('',#514,#514,#418,.T.);
#644=EDGE_CURVE('',#515,#515,#419,.T.);
#645=EDGE_CURVE('',#516,#516,#420,.T.);
#646=EDGE_CURVE('',#517,#517,#421,.T.);
#647=EDGE_CURVE('',#518,#518,#422,.T.);
#648=EDGE_CURVE('',#519,#519,#423,.T.);
#649=EDGE_CURVE('',#520,#520,#424,.T.);
#650=EDGE_CURVE('',#490,#520,#266,.T.);
#651=EDGE_CURVE('',#489,#519,#267,.T.);
#652=EDGE_CURVE('',#488,#518,#268,.T.);
#653=EDGE_CURVE('',#487,#517,#269,.T.);
#654=EDGE_CURVE('',#486,#516,#270,.T.);
#655=EDGE_CURVE('',#485,#515,#271,.T.);
#656=EDGE_CURVE('',#484,#514,#272,.T.);
#657=EDGE_CURVE('',#483,#513,#273,.T.);
#658=EDGE_CURVE('',#482,#512,#274,.T.);
#659=EDGE_CURVE('',#481,#511,#275,.T.);
#660=EDGE_CURVE('',#480,#510,#276,.T.);
#661=EDGE_CURVE('',#479,#509,#277,.T.);
#662=EDGE_CURVE('',#478,#508,#278,.T.);
#663=EDGE_CURVE('',#477,#507,#279,.T.);
#664=EDGE_CURVE('',#476,#506,#280,.T.);
#665=ORIENTED_EDGE('',*,*,#521,.T.);
#666=ORIENTED_EDGE('',*,*,#522,.T.);
#667=ORIENTED_EDGE('',*,*,#523,.T.);
#668=ORIENTED_EDGE('',*,*,#524,.T.);
#669=ORIENTED_EDGE('',*,*,#522,.F.);
#670=ORIENTED_EDGE('',*,*,#525,.T.);
#671=ORIENTED_EDGE('',*,*,#526,.F.);
#672=ORIENTED_EDGE('',*,*,#527,.F.);
#673=ORIENTED_EDGE('',*,*,#528,.T.);
#674=ORIENTED_EDGE('',*,*,#529,.T.);
#675=ORIENTED_EDGE('',*,*,#530,.T.);
#676=ORIENTED_EDGE('',*,*,#531,.T.);
#677=ORIENTED_EDGE('',*,*,#524,.F.);
#678=ORIENTED_EDGE('',*,*,#532,.F.);
#679=ORIENTED_EDGE('',*,*,#529,.F.);
#680=ORIENTED_EDGE('',*,*,#533,.T.);
#681=ORIENTED_EDGE('',*,*,#534,.T.);
#682=ORIENTED_EDGE('',*,*,#535,.T.);
#683=ORIENTED_EDGE('',*,*,#536,.T.);
#684=ORIENTED_EDGE('',*,*,#537,.T.);
#685=ORIENTED_EDGE('',*,*,#531,.F.);
#686=ORIENTED_EDGE('',*,*,#538,.F.);
#687=ORIENTED_EDGE('',*,*,#535,.F.);
#688=ORIENTED_EDGE('',*,*,#539,.T.);
#689=ORIENTED_EDGE('',*,*,#540,.T.);
#690=ORIENTED_EDGE('',*,*,#541,.T.);
#691=ORIENTED_EDGE('',*,*,#542,.T.);
#692=ORIENTED_EDGE('',*,*,#543,.T.);
#693=ORIENTED_EDGE('',*,*,#537,.F.);
#694=ORIENTED_EDGE('',*,*,#544,.F.);
#695=ORIENTED_EDGE('',*,*,#541,.F.);
#696=ORIENTED_EDGE('',*,*,#545,.T.);
#697=ORIENTED_EDGE('',*,*,#546,.T.);
#698=ORIENTED_EDGE('',*,*,#547,.T.);
#699=ORIENTED_EDGE('',*,*,#548,.T.);
#700=ORIENTED_EDGE('',*,*,#549,.T.);
#701=ORIENTED_EDGE('',*,*,#543,.F.);
#702=ORIENTED_EDGE('',*,*,#550,.F.);
#703=ORIENTED_EDGE('',*,*,#547,.F.);
#704=ORIENTED_EDGE('',*,*,#551,.T.);
#705=ORIENTED_EDGE('',*,*,#552,.T.);
#706=ORIENTED_EDGE('',*,*,#553,.T.);
#707=ORIENTED_EDGE('',*,*,#554,.T.);
#708=ORIENTED_EDGE('',*,*,#555,.T.);
#709=ORIENTED_EDGE('',*,*,#549,.F.);
#710=ORIENTED_EDGE('',*,*,#556,.F.);
#711=ORIENTED_EDGE('',*,*,#553,.F.);
#712=ORIENTED_EDGE('',*,*,#557,.T.);
#713=ORIENTED_EDGE('',*,*,#558,.T.);
#714=ORIENTED_EDGE('',*,*,#559,.T.);
#715=ORIENTED_EDGE('',*,*,#560,.T.);
#716=ORIENTED_EDGE('',*,*,#561,.T.);
#717=ORIENTED_EDGE('',*,*,#555,.F.);
#718=ORIENTED_EDGE('',*,*,#562,.F.);
#719=ORIENTED_EDGE('',*,*,#559,.F.);
#720=ORIENTED_EDGE('',*,*,#563,.T.);
#721=ORIENTED_EDGE('',*,*,#564,.T.);
#722=ORIENTED_EDGE('',*,*,#565,.T.);
#723=ORIENTED_EDGE('',*,*,#566,.T.);
#724=ORIENTED_EDGE('',*,*,#526,.T.);
#725=ORIENTED_EDGE('',*,*,#561,.F.);
#726=ORIENTED_EDGE('',*,*,#567,.F.);
#727=ORIENTED_EDGE('',*,*,#565,.F.);
#728=ORIENTED_EDGE('',*,*,#568,.T.);
#729=ORIENTED_EDGE('',*,*,#569,.T.);
#730=ORIENTED_EDGE('',*,*,#570,.T.);
#731=ORIENTED_EDGE('',*,*,#571,.T.);
#732=ORIENTED_EDGE('',*,*,#572,.T.);
#733=ORIENTED_EDGE('',*,*,#572,.F.);
#734=ORIENTED_EDGE('',*,*,#573,.T.);
#735=ORIENTED_EDGE('',*,*,#574,.F.);
#736=ORIENTED_EDGE('',*,*,#575,.F.);
#737=ORIENTED_EDGE('',*,*,#571,.F.);
#738=ORIENTED_EDGE('',*,*,#576,.F.);
#739=ORIENTED_EDGE('',*,*,#577,.F.);
#740=ORIENTED_EDGE('',*,*,#578,.F.);
#741=ORIENTED_EDGE('',*,*,#579,.F.);
#742=ORIENTED_EDGE('',*,*,#580,.F.);
#743=ORIENTED_EDGE('',*,*,#581,.F.);
#744=ORIENTED_EDGE('',*,*,#582,.F.);
#745=ORIENTED_EDGE('',*,*,#583,.F.);
#746=ORIENTED_EDGE('',*,*,#584,.F.);
#747=ORIENTED_EDGE('',*,*,#585,.F.);
#748=ORIENTED_EDGE('',*,*,#586,.F.);
#749=ORIENTED_EDGE('',*,*,#587,.F.);
#750=ORIENTED_EDGE('',*,*,#588,.F.);
#751=ORIENTED_EDGE('',*,*,#589,.F.);
#752=ORIENTED_EDGE('',*,*,#573,.F.);
#753=ORIENTED_EDGE('',*,*,#590,.T.);
#754=ORIENTED_EDGE('',*,*,#591,.T.);
#755=ORIENTED_EDGE('',*,*,#592,.T.);
#756=ORIENTED_EDGE('',*,*,#593,.T.);
#757=ORIENTED_EDGE('',*,*,#594,.T.);
#758=ORIENTED_EDGE('',*,*,#595,.T.);
#759=ORIENTED_EDGE('',*,*,#596,.T.);
#760=ORIENTED_EDGE('',*,*,#597,.T.);
#761=ORIENTED_EDGE('',*,*,#598,.T.);
#762=ORIENTED_EDGE('',*,*,#599,.T.);
#763=ORIENTED_EDGE('',*,*,#600,.T.);
#764=ORIENTED_EDGE('',*,*,#601,.T.);
#765=ORIENTED_EDGE('',*,*,#602,.T.);
#766=ORIENTED_EDGE('',*,*,#603,.T.);
#767=ORIENTED_EDGE('',*,*,#604,.T.);
#768=ORIENTED_EDGE('',*,*,#605,.T.);
#769=ORIENTED_EDGE('',*,*,#540,.F.);
#770=ORIENTED_EDGE('',*,*,#551,.F.);
#771=ORIENTED_EDGE('',*,*,#546,.F.);
#772=ORIENTED_EDGE('',*,*,#557,.F.);
#773=ORIENTED_EDGE('',*,*,#552,.F.);
#774=ORIENTED_EDGE('',*,*,#563,.F.);
#775=ORIENTED_EDGE('',*,*,#558,.F.);
#776=ORIENTED_EDGE('',*,*,#568,.F.);
#777=ORIENTED_EDGE('',*,*,#564,.F.);
#778=ORIENTED_EDGE('',*,*,#525,.F.);
#779=ORIENTED_EDGE('',*,*,#521,.F.);
#780=ORIENTED_EDGE('',*,*,#533,.F.);
#781=ORIENTED_EDGE('',*,*,#528,.F.);
#782=ORIENTED_EDGE('',*,*,#539,.F.);
#783=ORIENTED_EDGE('',*,*,#534,.F.);
#784=ORIENTED_EDGE('',*,*,#545,.F.);
#785=ORIENTED_EDGE('',*,*,#606,.T.);
#786=ORIENTED_EDGE('',*,*,#607,.T.);
#787=ORIENTED_EDGE('',*,*,#577,.T.);
#788=ORIENTED_EDGE('',*,*,#608,.T.);
#789=ORIENTED_EDGE('',*,*,#607,.F.);
#790=ORIENTED_EDGE('',*,*,#609,.F.);
#791=ORIENTED_EDGE('',*,*,#610,.F.);
#792=ORIENTED_EDGE('',*,*,#578,.T.);
#793=ORIENTED_EDGE('',*,*,#611,.T.);
#794=ORIENTED_EDGE('',*,*,#612,.T.);
#795=ORIENTED_EDGE('',*,*,#579,.T.);
#796=ORIENTED_EDGE('',*,*,#610,.T.);
#797=ORIENTED_EDGE('',*,*,#613,.T.);
#798=ORIENTED_EDGE('',*,*,#614,.T.);
#799=ORIENTED_EDGE('',*,*,#581,.T.);
#800=ORIENTED_EDGE('',*,*,#615,.T.);
#801=ORIENTED_EDGE('',*,*,#614,.F.);
#802=ORIENTED_EDGE('',*,*,#616,.F.);
#803=ORIENTED_EDGE('',*,*,#617,.F.);
#804=ORIENTED_EDGE('',*,*,#582,.T.);
#805=ORIENTED_EDGE('',*,*,#618,.T.);
#806=ORIENTED_EDGE('',*,*,#619,.T.);
#807=ORIENTED_EDGE('',*,*,#583,.T.);
#808=ORIENTED_EDGE('',*,*,#617,.T.);
#809=ORIENTED_EDGE('',*,*,#620,.T.);
#810=ORIENTED_EDGE('',*,*,#621,.T.);
#811=ORIENTED_EDGE('',*,*,#585,.T.);
#812=ORIENTED_EDGE('',*,*,#622,.T.);
#813=ORIENTED_EDGE('',*,*,#621,.F.);
#814=ORIENTED_EDGE('',*,*,#623,.F.);
#815=ORIENTED_EDGE('',*,*,#624,.F.);
#816=ORIENTED_EDGE('',*,*,#586,.T.);
#817=ORIENTED_EDGE('',*,*,#625,.T.);
#818=ORIENTED_EDGE('',*,*,#626,.T.);
#819=ORIENTED_EDGE('',*,*,#587,.T.);
#820=ORIENTED_EDGE('',*,*,#624,.T.);
#821=ORIENTED_EDGE('',*,*,#627,.T.);
#822=ORIENTED_EDGE('',*,*,#574,.T.);
#823=ORIENTED_EDGE('',*,*,#589,.T.);
#824=ORIENTED_EDGE('',*,*,#628,.T.);
#825=ORIENTED_EDGE('',*,*,#605,.F.);
#826=ORIENTED_EDGE('',*,*,#629,.T.);
#827=ORIENTED_EDGE('',*,*,#630,.F.);
#828=ORIENTED_EDGE('',*,*,#629,.F.);
#829=ORIENTED_EDGE('',*,*,#612,.F.);
#830=ORIENTED_EDGE('',*,*,#631,.F.);
#831=ORIENTED_EDGE('',*,*,#615,.F.);
#832=ORIENTED_EDGE('',*,*,#580,.T.);
#833=ORIENTED_EDGE('',*,*,#619,.F.);
#834=ORIENTED_EDGE('',*,*,#632,.F.);
#835=ORIENTED_EDGE('',*,*,#622,.F.);
#836=ORIENTED_EDGE('',*,*,#584,.T.);
#837=ORIENTED_EDGE('',*,*,#626,.F.);
#838=ORIENTED_EDGE('',*,*,#633,.F.);
#839=ORIENTED_EDGE('',*,*,#628,.F.);
#840=ORIENTED_EDGE('',*,*,#588,.T.);
#841=ORIENTED_EDGE('',*,*,#570,.F.);
#842=ORIENTED_EDGE('',*,*,#634,.F.);
#843=ORIENTED_EDGE('',*,*,#608,.F.);
#844=ORIENTED_EDGE('',*,*,#576,.T.);
#845=ORIENTED_EDGE('',*,*,#569,.F.);
#846=ORIENTED_EDGE('',*,*,#575,.T.);
#847=ORIENTED_EDGE('',*,*,#627,.F.);
#848=ORIENTED_EDGE('',*,*,#633,.T.);
#849=ORIENTED_EDGE('',*,*,#625,.F.);
#850=ORIENTED_EDGE('',*,*,#623,.T.);
#851=ORIENTED_EDGE('',*,*,#620,.F.);
#852=ORIENTED_EDGE('',*,*,#632,.T.);
#853=ORIENTED_EDGE('',*,*,#618,.F.);
#854=ORIENTED_EDGE('',*,*,#616,.T.);
#855=ORIENTED_EDGE('',*,*,#613,.F.);
#856=ORIENTED_EDGE('',*,*,#631,.T.);
#857=ORIENTED_EDGE('',*,*,#611,.F.);
#858=ORIENTED_EDGE('',*,*,#609,.T.);
#859=ORIENTED_EDGE('',*,*,#606,.F.);
#860=ORIENTED_EDGE('',*,*,#634,.T.);
#861=ORIENTED_EDGE('',*,*,#635,.T.);
#862=ORIENTED_EDGE('',*,*,#636,.T.);
#863=ORIENTED_EDGE('',*,*,#637,.T.);
#864=ORIENTED_EDGE('',*,*,#638,.T.);
#865=ORIENTED_EDGE('',*,*,#639,.T.);
#866=ORIENTED_EDGE('',*,*,#640,.T.);
#867=ORIENTED_EDGE('',*,*,#641,.T.);
#868=ORIENTED_EDGE('',*,*,#642,.T.);
#869=ORIENTED_EDGE('',*,*,#643,.T.);
#870=ORIENTED_EDGE('',*,*,#644,.T.);
#871=ORIENTED_EDGE('',*,*,#645,.T.);
#872=ORIENTED_EDGE('',*,*,#646,.T.);
#873=ORIENTED_EDGE('',*,*,#647,.T.);
#874=ORIENTED_EDGE('',*,*,#648,.T.);
#875=ORIENTED_EDGE('',*,*,#649,.T.);
#876=ORIENTED_EDGE('',*,*,#630,.T.);
#877=ORIENTED_EDGE('',*,*,#544,.T.);
#878=ORIENTED_EDGE('',*,*,#536,.F.);
#879=ORIENTED_EDGE('',*,*,#538,.T.);
#880=ORIENTED_EDGE('',*,*,#530,.F.);
#881=ORIENTED_EDGE('',*,*,#532,.T.);
#882=ORIENTED_EDGE('',*,*,#523,.F.);
#883=ORIENTED_EDGE('',*,*,#527,.T.);
#884=ORIENTED_EDGE('',*,*,#566,.F.);
#885=ORIENTED_EDGE('',*,*,#567,.T.);
#886=ORIENTED_EDGE('',*,*,#560,.F.);
#887=ORIENTED_EDGE('',*,*,#562,.T.);
#888=ORIENTED_EDGE('',*,*,#554,.F.);
#889=ORIENTED_EDGE('',*,*,#556,.T.);
#890=ORIENTED_EDGE('',*,*,#548,.F.);
#891=ORIENTED_EDGE('',*,*,#550,.T.);
#892=ORIENTED_EDGE('',*,*,#542,.F.);
#893=ORIENTED_EDGE('',*,*,#604,.F.);
#894=ORIENTED_EDGE('',*,*,#650,.T.);
#895=ORIENTED_EDGE('',*,*,#649,.F.);
#896=ORIENTED_EDGE('',*,*,#650,.F.);
#897=ORIENTED_EDGE('',*,*,#603,.F.);
#898=ORIENTED_EDGE('',*,*,#651,.T.);
#899=ORIENTED_EDGE('',*,*,#648,.F.);
#900=ORIENTED_EDGE('',*,*,#651,.F.);
#901=ORIENTED_EDGE('',*,*,#602,.F.);
#902=ORIENTED_EDGE('',*,*,#652,.T.);
#903=ORIENTED_EDGE('',*,*,#647,.F.);
#904=ORIENTED_EDGE('',*,*,#652,.F.);
#905=ORIENTED_EDGE('',*,*,#601,.F.);
#906=ORIENTED_EDGE('',*,*,#653,.T.);
#907=ORIENTED_EDGE('',*,*,#646,.F.);
#908=ORIENTED_EDGE('',*,*,#653,.F.);
#909=ORIENTED_EDGE('',*,*,#600,.F.);
#910=ORIENTED_EDGE('',*,*,#654,.T.);
#911=ORIENTED_EDGE('',*,*,#645,.F.);
#912=ORIENTED_EDGE('',*,*,#654,.F.);
#913=ORIENTED_EDGE('',*,*,#599,.F.);
#914=ORIENTED_EDGE('',*,*,#655,.T.);
#915=ORIENTED_EDGE('',*,*,#644,.F.);
#916=ORIENTED_EDGE('',*,*,#655,.F.);
#917=ORIENTED_EDGE('',*,*,#598,.F.);
#918=ORIENTED_EDGE('',*,*,#656,.T.);
#919=ORIENTED_EDGE('',*,*,#643,.F.);
#920=ORIENTED_EDGE('',*,*,#656,.F.);
#921=ORIENTED_EDGE('',*,*,#597,.F.);
#922=ORIENTED_EDGE('',*,*,#657,.T.);
#923=ORIENTED_EDGE('',*,*,#642,.F.);
#924=ORIENTED_EDGE('',*,*,#657,.F.);
#925=ORIENTED_EDGE('',*,*,#596,.F.);
#926=ORIENTED_EDGE('',*,*,#658,.T.);
#927=ORIENTED_EDGE('',*,*,#641,.F.);
#928=ORIENTED_EDGE('',*,*,#658,.F.);
#929=ORIENTED_EDGE('',*,*,#595,.F.);
#930=ORIENTED_EDGE('',*,*,#659,.T.);
#931=ORIENTED_EDGE('',*,*,#640,.F.);
#932=ORIENTED_EDGE('',*,*,#659,.F.);
#933=ORIENTED_EDGE('',*,*,#594,.F.);
#934=ORIENTED_EDGE('',*,*,#660,.T.);
#935=ORIENTED_EDGE('',*,*,#639,.F.);
#936=ORIENTED_EDGE('',*,*,#660,.F.);
#937=ORIENTED_EDGE('',*,*,#593,.F.);
#938=ORIENTED_EDGE('',*,*,#661,.T.);
#939=ORIENTED_EDGE('',*,*,#638,.F.);
#940=ORIENTED_EDGE('',*,*,#661,.F.);
#941=ORIENTED_EDGE('',*,*,#592,.F.);
#942=ORIENTED_EDGE('',*,*,#662,.T.);
#943=ORIENTED_EDGE('',*,*,#637,.F.);
#944=ORIENTED_EDGE('',*,*,#662,.F.);
#945=ORIENTED_EDGE('',*,*,#591,.F.);
#946=ORIENTED_EDGE('',*,*,#663,.T.);
#947=ORIENTED_EDGE('',*,*,#636,.F.);
#948=ORIENTED_EDGE('',*,*,#663,.F.);
#949=ORIENTED_EDGE('',*,*,#590,.F.);
#950=ORIENTED_EDGE('',*,*,#664,.T.);
#951=ORIENTED_EDGE('',*,*,#635,.F.);
#952=ORIENTED_EDGE('',*,*,#664,.F.);
#953=CYLINDRICAL_SURFACE('',#1049,8.);
#954=CYLINDRICAL_SURFACE('',#1053,8.);
#955=CYLINDRICAL_SURFACE('',#1057,8.);
#956=CYLINDRICAL_SURFACE('',#1061,8.);
#957=CYLINDRICAL_SURFACE('',#1065,8.);
#958=CYLINDRICAL_SURFACE('',#1069,8.);
#959=CYLINDRICAL_SURFACE('',#1073,8.);
#960=CYLINDRICAL_SURFACE('',#1077,8.);
#961=CYLINDRICAL_SURFACE('',#1081,8.);
#962=CYLINDRICAL_SURFACE('',#1109,8.);
#963=CYLINDRICAL_SURFACE('',#1112,8.);
#964=CYLINDRICAL_SURFACE('',#1114,8.);
#965=CYLINDRICAL_SURFACE('',#1117,8.);
#966=CYLINDRICAL_SURFACE('',#1119,8.);
#967=CYLINDRICAL_SURFACE('',#1122,8.);
#968=CYLINDRICAL_SURFACE('',#1124,8.);
#969=CYLINDRICAL_SURFACE('',#1126,2.117);
#970=CYLINDRICAL_SURFACE('',#1148,2.117);
#971=CYLINDRICAL_SURFACE('',#1149,2.117);
#972=CYLINDRICAL_SURFACE('',#1150,2.117);
#973=CYLINDRICAL_SURFACE('',#1151,2.117);
#974=CYLINDRICAL_SURFACE('',#1152,2.117);
#975=CYLINDRICAL_SURFACE('',#1153,2.117);
#976=CYLINDRICAL_SURFACE('',#1154,2.117);
#977=CYLINDRICAL_SURFACE('',#1155,2.117);
#978=CYLINDRICAL_SURFACE('',#1156,2.117);
#979=CYLINDRICAL_SURFACE('',#1157,2.117);
#980=CYLINDRICAL_SURFACE('',#1158,2.117);
#981=CYLINDRICAL_SURFACE('',#1159,2.117);
#982=CYLINDRICAL_SURFACE('',#1160,2.117);
#983=CYLINDRICAL_SURFACE('',#1161,2.117);
#984=CYLINDRICAL_SURFACE('',#1162,2.117);
#985=ADVANCED_FACE('',(#67),#953,.F.);
#986=ADVANCED_FACE('',(#68),#49,.T.);
#987=ADVANCED_FACE('',(#69),#954,.F.);
#988=ADVANCED_FACE('',(#70),#50,.T.);
#989=ADVANCED_FACE('',(#71),#955,.F.);
#990=ADVANCED_FACE('',(#72),#51,.T.);
#991=ADVANCED_FACE('',(#73),#956,.F.);
#992=ADVANCED_FACE('',(#74),#52,.T.);
#993=ADVANCED_FACE('',(#75),#957,.F.);
#994=ADVANCED_FACE('',(#76),#53,.T.);
#995=ADVANCED_FACE('',(#77),#958,.F.);
#996=ADVANCED_FACE('',(#78),#54,.T.);
#997=ADVANCED_FACE('',(#79),#959,.F.);
#998=ADVANCED_FACE('',(#80),#55,.T.);
#999=ADVANCED_FACE('',(#81),#960,.F.);
#1000=ADVANCED_FACE('',(#82),#56,.T.);
#1001=ADVANCED_FACE('',(#83),#961,.T.);
#1002=ADVANCED_FACE('',(#84),#57,.T.);
#1003=ADVANCED_FACE('',(#85,#15,#16,#17,#18,#19,#20,#21,#22,#23,#24,#25,
#26,#27,#28,#29,#30,#31),#58,.F.);
#1004=ADVANCED_FACE('',(#86),#962,.T.);
#1005=ADVANCED_FACE('',(#87),#59,.T.);
#1006=ADVANCED_FACE('',(#88),#963,.T.);
#1007=ADVANCED_FACE('',(#89),#964,.T.);
#1008=ADVANCED_FACE('',(#90),#60,.T.);
#1009=ADVANCED_FACE('',(#91),#965,.T.);
#1010=ADVANCED_FACE('',(#92),#966,.T.);
#1011=ADVANCED_FACE('',(#93),#61,.T.);
#1012=ADVANCED_FACE('',(#94),#967,.T.);
#1013=ADVANCED_FACE('',(#95),#968,.T.);
#1014=ADVANCED_FACE('',(#96),#969,.F.);
#1015=ADVANCED_FACE('',(#97),#62,.T.);
#1016=ADVANCED_FACE('',(#98),#63,.T.);
#1017=ADVANCED_FACE('',(#99),#64,.T.);
#1018=ADVANCED_FACE('',(#100),#65,.T.);
#1019=ADVANCED_FACE('',(#101,#32,#33,#34,#35,#36,#37,#38,#39,#40,#41,#42,
#43,#44,#45,#46,#47,#48),#66,.T.);
#1020=ADVANCED_FACE('',(#102),#970,.F.);
#1021=ADVANCED_FACE('',(#103),#971,.F.);
#1022=ADVANCED_FACE('',(#104),#972,.F.);
#1023=ADVANCED_FACE('',(#105),#973,.F.);
#1024=ADVANCED_FACE('',(#106),#974,.F.);
#1025=ADVANCED_FACE('',(#107),#975,.F.);
#1026=ADVANCED_FACE('',(#108),#976,.F.);
#1027=ADVANCED_FACE('',(#109),#977,.F.);
#1028=ADVANCED_FACE('',(#110),#978,.F.);
#1029=ADVANCED_FACE('',(#111),#979,.F.);
#1030=ADVANCED_FACE('',(#112),#980,.F.);
#1031=ADVANCED_FACE('',(#113),#981,.F.);
#1032=ADVANCED_FACE('',(#114),#982,.F.);
#1033=ADVANCED_FACE('',(#115),#983,.F.);
#1034=ADVANCED_FACE('',(#116),#984,.F.);
#1035=CLOSED_SHELL('',(#985,#986,#987,#988,#989,#990,#991,#992,#993,#994,
#995,#996,#997,#998,#999,#1000,#1001,#1002,#1003,#1004,#1005,#1006,#1007,
#1008,#1009,#1010,#1011,#1012,#1013,#1014,#1015,#1016,#1017,#1018,#1019,
#1020,#1021,#1022,#1023,#1024,#1025,#1026,#1027,#1028,#1029,#1030,#1031,
#1032,#1033,#1034));
#1036=DERIVED_UNIT_ELEMENT(#1038,1.);
#1037=DERIVED_UNIT_ELEMENT(#1769,-3.);
#1038=(
MASS_UNIT()
NAMED_UNIT(*)
SI_UNIT(.KILO.,.GRAM.)
);
#1039=DERIVED_UNIT((#1036,#1037));
#1040=MEASURE_REPRESENTATION_ITEM('density measure',
POSITIVE_RATIO_MEASURE(8940.),#1039);
#1041=PROPERTY_DEFINITION_REPRESENTATION(#1046,#1043);
#1042=PROPERTY_DEFINITION_REPRESENTATION(#1047,#1044);
#1043=REPRESENTATION('material name',(#1045),#1766);
#1044=REPRESENTATION('density',(#1040),#1766);
#1045=DESCRIPTIVE_REPRESENTATION_ITEM('Copper','Copper');
#1046=PROPERTY_DEFINITION('material property','material name',#1776);
#1047=PROPERTY_DEFINITION('material property','density of part',#1776);
#1048=AXIS2_PLACEMENT_3D('',#1473,#1163,#1164);
#1049=AXIS2_PLACEMENT_3D('',#1474,#1165,#1166);
#1050=AXIS2_PLACEMENT_3D('',#1477,#1167,#1168);
#1051=AXIS2_PLACEMENT_3D('',#1481,#1170,#1171);
#1052=AXIS2_PLACEMENT_3D('',#1483,#1173,#1174);
#1053=AXIS2_PLACEMENT_3D('',#1489,#1178,#1179);
#1054=AXIS2_PLACEMENT_3D('',#1492,#1180,#1181);
#1055=AXIS2_PLACEMENT_3D('',#1496,#1183,#1184);
#1056=AXIS2_PLACEMENT_3D('',#1498,#1186,#1187);
#1057=AXIS2_PLACEMENT_3D('',#1501,#1190,#1191);
#1058=AXIS2_PLACEMENT_3D('',#1504,#1192,#1193);
#1059=AXIS2_PLACEMENT_3D('',#1508,#1195,#1196);
#1060=AXIS2_PLACEMENT_3D('',#1510,#1198,#1199);
#1061=AXIS2_PLACEMENT_3D('',#1513,#1202,#1203);
#1062=AXIS2_PLACEMENT_3D('',#1516,#1204,#1205);
#1063=AXIS2_PLACEMENT_3D('',#1520,#1207,#1208);
#1064=AXIS2_PLACEMENT_3D('',#1522,#1210,#1211);
#1065=AXIS2_PLACEMENT_3D('',#1525,#1214,#1215);
#1066=AXIS2_PLACEMENT_3D('',#1528,#1216,#1217);
#1067=AXIS2_PLACEMENT_3D('',#1532,#1219,#1220);
#1068=AXIS2_PLACEMENT_3D('',#1534,#1222,#1223);
#1069=AXIS2_PLACEMENT_3D('',#1537,#1226,#1227);
#1070=AXIS2_PLACEMENT_3D('',#1540,#1228,#1229);
#1071=AXIS2_PLACEMENT_3D('',#1544,#1231,#1232);
#1072=AXIS2_PLACEMENT_3D('',#1546,#1234,#1235);
#1073=AXIS2_PLACEMENT_3D('',#1549,#1238,#1239);
#1074=AXIS2_PLACEMENT_3D('',#1552,#1240,#1241);
#1075=AXIS2_PLACEMENT_3D('',#1556,#1243,#1244);
#1076=AXIS2_PLACEMENT_3D('',#1558,#1246,#1247);
#1077=AXIS2_PLACEMENT_3D('',#1561,#1250,#1251);
#1078=AXIS2_PLACEMENT_3D('',#1563,#1252,#1253);
#1079=AXIS2_PLACEMENT_3D('',#1566,#1255,#1256);
#1080=AXIS2_PLACEMENT_3D('',#1567,#1257,#1258);
#1081=AXIS2_PLACEMENT_3D('',#1570,#1261,#1262);
#1082=AXIS2_PLACEMENT_3D('',#1573,#1263,#1264);
#1083=AXIS2_PLACEMENT_3D('',#1577,#1266,#1267);
#1084=AXIS2_PLACEMENT_3D('',#1579,#1269,#1270);
#1085=AXIS2_PLACEMENT_3D('',#1585,#1274,#1275);
#1086=AXIS2_PLACEMENT_3D('',#1589,#1277,#1278);
#1087=AXIS2_PLACEMENT_3D('',#1593,#1280,#1281);
#1088=AXIS2_PLACEMENT_3D('',#1597,#1283,#1284);
#1089=AXIS2_PLACEMENT_3D('',#1601,#1286,#1287);
#1090=AXIS2_PLACEMENT_3D('',#1605,#1289,#1290);
#1091=AXIS2_PLACEMENT_3D('',#1609,#1292,#1293);
#1092=AXIS2_PLACEMENT_3D('',#1612,#1295,#1296);
#1093=AXIS2_PLACEMENT_3D('',#1614,#1297,#1298);
#1094=AXIS2_PLACEMENT_3D('',#1616,#1299,#1300);
#1095=AXIS2_PLACEMENT_3D('',#1618,#1301,#1302);
#1096=AXIS2_PLACEMENT_3D('',#1620,#1303,#1304);
#1097=AXIS2_PLACEMENT_3D('',#1622,#1305,#1306);
#1098=AXIS2_PLACEMENT_3D('',#1624,#1307,#1308);
#1099=AXIS2_PLACEMENT_3D('',#1626,#1309,#1310);
#1100=AXIS2_PLACEMENT_3D('',#1628,#1311,#1312);
#1101=AXIS2_PLACEMENT_3D('',#1630,#1313,#1314);
#1102=AXIS2_PLACEMENT_3D('',#1632,#1315,#1316);
#1103=AXIS2_PLACEMENT_3D('',#1634,#1317,#1318);
#1104=AXIS2_PLACEMENT_3D('',#1636,#1319,#1320);
#1105=AXIS2_PLACEMENT_3D('',#1638,#1321,#1322);
#1106=AXIS2_PLACEMENT_3D('',#1640,#1323,#1324);
#1107=AXIS2_PLACEMENT_3D('',#1642,#1325,#1326);
#1108=AXIS2_PLACEMENT_3D('',#1644,#1327,#1328);
#1109=AXIS2_PLACEMENT_3D('',#1645,#1329,#1330);
#1110=AXIS2_PLACEMENT_3D('',#1648,#1331,#1332);
#1111=AXIS2_PLACEMENT_3D('',#1651,#1335,#1336);
#1112=AXIS2_PLACEMENT_3D('',#1655,#1339,#1340);
#1113=AXIS2_PLACEMENT_3D('',#1657,#1341,#1342);
#1114=AXIS2_PLACEMENT_3D('',#1659,#1344,#1345);
#1115=AXIS2_PLACEMENT_3D('',#1662,#1346,#1347);
#1116=AXIS2_PLACEMENT_3D('',#1665,#1350,#1351);
#1117=AXIS2_PLACEMENT_3D('',#1669,#1354,#1355);
#1118=AXIS2_PLACEMENT_3D('',#1671,#1356,#1357);
#1119=AXIS2_PLACEMENT_3D('',#1673,#1359,#1360);
#1120=AXIS2_PLACEMENT_3D('',#1676,#1361,#1362);
#1121=AXIS2_PLACEMENT_3D('',#1679,#1365,#1366);
#1122=AXIS2_PLACEMENT_3D('',#1683,#1369,#1370);
#1123=AXIS2_PLACEMENT_3D('',#1685,#1371,#1372);
#1124=AXIS2_PLACEMENT_3D('',#1687,#1374,#1375);
#1125=AXIS2_PLACEMENT_3D('',#1689,#1376,#1377);
#1126=AXIS2_PLACEMENT_3D('',#1691,#1379,#1380);
#1127=AXIS2_PLACEMENT_3D('',#1694,#1382,#1383);
#1128=AXIS2_PLACEMENT_3D('',#1695,#1384,#1385);
#1129=AXIS2_PLACEMENT_3D('',#1697,#1387,#1388);
#1130=AXIS2_PLACEMENT_3D('',#1699,#1390,#1391);
#1131=AXIS2_PLACEMENT_3D('',#1701,#1393,#1394);
#1132=AXIS2_PLACEMENT_3D('',#1703,#1396,#1397);
#1133=AXIS2_PLACEMENT_3D('',#1705,#1398,#1399);
#1134=AXIS2_PLACEMENT_3D('',#1707,#1400,#1401);
#1135=AXIS2_PLACEMENT_3D('',#1709,#1402,#1403);
#1136=AXIS2_PLACEMENT_3D('',#1711,#1404,#1405);
#1137=AXIS2_PLACEMENT_3D('',#1713,#1406,#1407);
#1138=AXIS2_PLACEMENT_3D('',#1715,#1408,#1409);
#1139=AXIS2_PLACEMENT_3D('',#1717,#1410,#1411);
#1140=AXIS2_PLACEMENT_3D('',#1719,#1412,#1413);
#1141=AXIS2_PLACEMENT_3D('',#1721,#1414,#1415);
#1142=AXIS2_PLACEMENT_3D('',#1723,#1416,#1417);
#1143=AXIS2_PLACEMENT_3D('',#1725,#1418,#1419);
#1144=AXIS2_PLACEMENT_3D('',#1727,#1420,#1421);
#1145=AXIS2_PLACEMENT_3D('',#1729,#1422,#1423);
#1146=AXIS2_PLACEMENT_3D('',#1731,#1424,#1425);
#1147=AXIS2_PLACEMENT_3D('',#1733,#1426,#1427);
#1148=AXIS2_PLACEMENT_3D('',#1734,#1428,#1429);
#1149=AXIS2_PLACEMENT_3D('',#1736,#1431,#1432);
#1150=AXIS2_PLACEMENT_3D('',#1738,#1434,#1435);
#1151=AXIS2_PLACEMENT_3D('',#1740,#1437,#1438);
#1152=AXIS2_PLACEMENT_3D('',#1742,#1440,#1441);
#1153=AXIS2_PLACEMENT_3D('',#1744,#1443,#1444);
#1154=AXIS2_PLACEMENT_3D('',#1746,#1446,#1447);
#1155=AXIS2_PLACEMENT_3D('',#1748,#1449,#1450);
#1156=AXIS2_PLACEMENT_3D('',#1750,#1452,#1453);
#1157=AXIS2_PLACEMENT_3D('',#1752,#1455,#1456);
#1158=AXIS2_PLACEMENT_3D('',#1754,#1458,#1459);
#1159=AXIS2_PLACEMENT_3D('',#1756,#1461,#1462);
#1160=AXIS2_PLACEMENT_3D('',#1758,#1464,#1465);
#1161=AXIS2_PLACEMENT_3D('',#1760,#1467,#1468);
#1162=AXIS2_PLACEMENT_3D('',#1762,#1470,#1471);
#1163=DIRECTION('axis',(0.,0.,1.));
#1164=DIRECTION('refdir',(1.,0.,0.));
#1165=DIRECTION('center_axis',(0.,1.,0.));
#1166=DIRECTION('ref_axis',(-0.382683432365089,0.,-0.923879532511287));
#1167=DIRECTION('center_axis',(0.,-1.,0.));
#1168=DIRECTION('ref_axis',(-0.382683432365089,0.,-0.923879532511287));
#1169=DIRECTION('',(0.,1.,0.));
#1170=DIRECTION('center_axis',(0.,1.,0.));
#1171=DIRECTION('ref_axis',(-0.382683432365089,0.,-0.923879532511287));
#1172=DIRECTION('',(0.,-1.,0.));
#1173=DIRECTION('center_axis',(-4.28850477329429E-16,0.,1.));
#1174=DIRECTION('ref_axis',(1.,0.,4.28850477329429E-16));
#1175=DIRECTION('',(1.,0.,4.28850477329429E-16));
#1176=DIRECTION('',(0.,-1.,0.));
#1177=DIRECTION('',(1.,0.,4.28850477329429E-16));
#1178=DIRECTION('center_axis',(0.,1.,0.));
#1179=DIRECTION('ref_axis',(-0.923879532511287,0.,-0.38268343236509));
#1180=DIRECTION('center_axis',(0.,-1.,0.));
#1181=DIRECTION('ref_axis',(-0.923879532511287,0.,-0.38268343236509));
#1182=DIRECTION('',(0.,1.,0.));
#1183=DIRECTION('center_axis',(0.,1.,0.));
#1184=DIRECTION('ref_axis',(-0.923879532511287,0.,-0.38268343236509));
#1185=DIRECTION('',(0.,-1.,0.));
#1186=DIRECTION('center_axis',(0.707106781186547,0.,0.707106781186548));
#1187=DIRECTION('ref_axis',(0.707106781186548,0.,-0.707106781186547));
#1188=DIRECTION('',(0.707106781186548,0.,-0.707106781186547));
#1189=DIRECTION('',(0.707106781186548,0.,-0.707106781186547));
#1190=DIRECTION('center_axis',(0.,1.,0.));
#1191=DIRECTION('ref_axis',(-0.923879532511287,0.,0.38268343236509));
#1192=DIRECTION('center_axis',(0.,-1.,0.));
#1193=DIRECTION('ref_axis',(-0.923879532511287,0.,0.38268343236509));
#1194=DIRECTION('',(0.,1.,0.));
#1195=DIRECTION('center_axis',(0.,1.,0.));
#1196=DIRECTION('ref_axis',(-0.923879532511287,0.,0.38268343236509));
#1197=DIRECTION('',(0.,-1.,0.));
#1198=DIRECTION('center_axis',(1.,0.,6.43275715994143E-16));
#1199=DIRECTION('ref_axis',(6.43275715994143E-16,0.,-1.));
#1200=DIRECTION('',(6.43275715994143E-16,0.,-1.));
#1201=DIRECTION('',(6.43275715994143E-16,0.,-1.));
#1202=DIRECTION('center_axis',(0.,1.,0.));
#1203=DIRECTION('ref_axis',(-0.38268343236509,0.,0.923879532511287));
#1204=DIRECTION('center_axis',(0.,-1.,0.));
#1205=DIRECTION('ref_axis',(-0.38268343236509,0.,0.923879532511287));
#1206=DIRECTION('',(0.,1.,0.));
#1207=DIRECTION('center_axis',(0.,1.,0.));
#1208=DIRECTION('ref_axis',(-0.38268343236509,0.,0.923879532511287));
#1209=DIRECTION('',(0.,-1.,0.));
#1210=DIRECTION('center_axis',(0.707106781186547,0.,-0.707106781186548));
#1211=DIRECTION('ref_axis',(-0.707106781186548,0.,-0.707106781186547));
#1212=DIRECTION('',(-0.707106781186548,0.,-0.707106781186547));
#1213=DIRECTION('',(-0.707106781186548,0.,-0.707106781186547));
#1214=DIRECTION('center_axis',(0.,1.,0.));
#1215=DIRECTION('ref_axis',(0.38268343236509,0.,0.923879532511287));
#1216=DIRECTION('center_axis',(0.,-1.,0.));
#1217=DIRECTION('ref_axis',(0.38268343236509,0.,0.923879532511287));
#1218=DIRECTION('',(0.,1.,0.));
#1219=DIRECTION('center_axis',(0.,1.,0.));
#1220=DIRECTION('ref_axis',(0.38268343236509,0.,0.923879532511287));
#1221=DIRECTION('',(0.,-1.,0.));
#1222=DIRECTION('center_axis',(4.28850477329429E-16,0.,-1.));
#1223=DIRECTION('ref_axis',(-1.,0.,-4.28850477329429E-16));
#1224=DIRECTION('',(-1.,0.,-4.28850477329429E-16));
#1225=DIRECTION('',(-1.,0.,-4.28850477329429E-16));
#1226=DIRECTION('center_axis',(0.,1.,0.));
#1227=DIRECTION('ref_axis',(0.923879532511287,0.,0.38268343236509));
#1228=DIRECTION('center_axis',(0.,-1.,0.));
#1229=DIRECTION('ref_axis',(0.923879532511287,0.,0.38268343236509));
#1230=DIRECTION('',(0.,1.,0.));
#1231=DIRECTION('center_axis',(0.,1.,0.));
#1232=DIRECTION('ref_axis',(0.923879532511287,0.,0.38268343236509));
#1233=DIRECTION('',(0.,-1.,0.));
#1234=DIRECTION('center_axis',(-0.707106781186548,0.,-0.707106781186548));
#1235=DIRECTION('ref_axis',(-0.707106781186548,0.,0.707106781186548));
#1236=DIRECTION('',(-0.707106781186547,0.,0.707106781186547));
#1237=DIRECTION('',(-0.707106781186547,0.,0.707106781186547));
#1238=DIRECTION('center_axis',(0.,1.,0.));
#1239=DIRECTION('ref_axis',(0.923879532511287,0.,-0.382683432365089));
#1240=DIRECTION('center_axis',(0.,-1.,0.));
#1241=DIRECTION('ref_axis',(0.923879532511287,0.,-0.382683432365089));
#1242=DIRECTION('',(0.,1.,0.));
#1243=DIRECTION('center_axis',(0.,1.,0.));
#1244=DIRECTION('ref_axis',(0.923879532511287,0.,-0.382683432365089));
#1245=DIRECTION('',(0.,-1.,0.));
#1246=DIRECTION('center_axis',(-1.,0.,-4.28850477329429E-16));
#1247=DIRECTION('ref_axis',(-4.28850477329429E-16,0.,1.));
#1248=DIRECTION('',(-4.28850477329429E-16,0.,1.));
#1249=DIRECTION('',(-4.28850477329429E-16,0.,1.));
#1250=DIRECTION('center_axis',(0.,1.,0.));
#1251=DIRECTION('ref_axis',(0.382683432365091,0.,-0.923879532511287));
#1252=DIRECTION('center_axis',(0.,-1.,0.));
#1253=DIRECTION('ref_axis',(0.382683432365091,0.,-0.923879532511287));
#1254=DIRECTION('',(0.,1.,0.));
#1255=DIRECTION('center_axis',(0.,1.,0.));
#1256=DIRECTION('ref_axis',(0.382683432365091,0.,-0.923879532511287));
#1257=DIRECTION('center_axis',(-0.707106781186548,0.,0.707106781186547));
#1258=DIRECTION('ref_axis',(0.707106781186547,0.,0.707106781186548));
#1259=DIRECTION('',(0.707106781186547,0.,0.707106781186548));
#1260=DIRECTION('',(0.707106781186547,0.,0.707106781186548));
#1261=DIRECTION('center_axis',(0.,1.,0.));
#1262=DIRECTION('ref_axis',(-0.923879532511287,0.,0.38268343236509));
#1263=DIRECTION('center_axis',(0.,-1.,0.));
#1264=DIRECTION('ref_axis',(-0.923879532511287,0.,0.38268343236509));
#1265=DIRECTION('',(0.,-1.,0.));
#1266=DIRECTION('center_axis',(0.,1.,0.));
#1267=DIRECTION('ref_axis',(-0.923879532511287,0.,0.38268343236509));
#1268=DIRECTION('',(0.,1.,0.));
#1269=DIRECTION('center_axis',(-0.707106781186548,0.,0.707106781186547));
#1270=DIRECTION('ref_axis',(0.707106781186547,0.,0.707106781186548));
#1271=DIRECTION('',(0.707106781186547,0.,0.707106781186548));
#1272=DIRECTION('',(0.,-1.,0.));
#1273=DIRECTION('',(0.707106781186547,0.,0.707106781186548));
#1274=DIRECTION('center_axis',(0.,1.,0.));
#1275=DIRECTION('ref_axis',(1.,0.,0.));
#1276=DIRECTION('',(-6.59769965122198E-16,0.,1.));
#1277=DIRECTION('center_axis',(0.,1.,0.));
#1278=DIRECTION('ref_axis',(-0.923879532511287,0.,-0.38268343236509));
#1279=DIRECTION('',(-0.707106781186548,0.,0.707106781186547));
#1280=DIRECTION('center_axis',(0.,1.,0.));
#1281=DIRECTION('ref_axis',(-0.382683432365089,0.,-0.923879532511287));
#1282=DIRECTION('',(-1.,0.,-4.94827473841649E-16));
#1283=DIRECTION('center_axis',(0.,1.,0.));
#1284=DIRECTION('ref_axis',(0.38268343236509,0.,-0.923879532511287));
#1285=DIRECTION('',(-0.707106781186547,0.,-0.707106781186548));
#1286=DIRECTION('center_axis',(0.,1.,0.));
#1287=DIRECTION('ref_axis',(0.923879532511287,0.,-0.382683432365089));
#1288=DIRECTION('',(3.29884982561099E-16,0.,-1.));
#1289=DIRECTION('center_axis',(0.,1.,0.));
#1290=DIRECTION('ref_axis',(0.923879532511287,0.,0.38268343236509));
#1291=DIRECTION('',(0.707106781186548,0.,-0.707106781186547));
#1292=DIRECTION('center_axis',(0.,1.,0.));
#1293=DIRECTION('ref_axis',(0.382683432365089,0.,0.923879532511287));
#1294=DIRECTION('',(1.,0.,3.29884982561099E-16));
#1295=DIRECTION('center_axis',(0.,1.,0.));
#1296=DIRECTION('ref_axis',(-0.38268343236509,0.,0.923879532511287));
#1297=DIRECTION('center_axis',(0.,1.,0.));
#1298=DIRECTION('ref_axis',(0.38268343236509,0.,-0.923879532511287));
#1299=DIRECTION('center_axis',(0.,1.,0.));
#1300=DIRECTION('ref_axis',(0.707106781186548,0.,-0.707106781186547));
#1301=DIRECTION('center_axis',(0.,1.,0.));
#1302=DIRECTION('ref_axis',(0.923879532511287,0.,-0.38268343236509));
#1303=DIRECTION('center_axis',(0.,1.,0.));
#1304=DIRECTION('ref_axis',(1.,0.,1.83697019872103E-16));
#1305=DIRECTION('center_axis',(0.,1.,0.));
#1306=DIRECTION('ref_axis',(0.923879532511287,0.,0.38268343236509));
#1307=DIRECTION('center_axis',(0.,1.,0.));
#1308=DIRECTION('ref_axis',(0.707106781186547,0.,0.707106781186548));
#1309=DIRECTION('center_axis',(0.,1.,0.));
#1310=DIRECTION('ref_axis',(0.38268343236509,0.,0.923879532511287));
#1311=DIRECTION('center_axis',(0.,1.,0.));
#1312=DIRECTION('ref_axis',(-1.22464679914735E-16,0.,1.));
#1313=DIRECTION('center_axis',(0.,1.,0.));
#1314=DIRECTION('ref_axis',(-0.38268343236509,0.,0.923879532511287));
#1315=DIRECTION('center_axis',(0.,1.,0.));
#1316=DIRECTION('ref_axis',(-0.707106781186548,0.,0.707106781186547));
#1317=DIRECTION('center_axis',(0.,1.,0.));
#1318=DIRECTION('ref_axis',(-0.923879532511287,0.,0.38268343236509));
#1319=DIRECTION('center_axis',(0.,1.,0.));
#1320=DIRECTION('ref_axis',(-1.,0.,-6.12323399573677E-17));
#1321=DIRECTION('center_axis',(0.,1.,0.));
#1322=DIRECTION('ref_axis',(-0.923879532511287,0.,-0.38268343236509));
#1323=DIRECTION('center_axis',(0.,1.,0.));
#1324=DIRECTION('ref_axis',(-0.707106781186547,0.,-0.707106781186548));
#1325=DIRECTION('center_axis',(0.,1.,0.));
#1326=DIRECTION('ref_axis',(-0.38268343236509,0.,-0.923879532511287));
#1327=DIRECTION('center_axis',(0.,1.,0.));
#1328=DIRECTION('ref_axis',(0.,0.,-1.));
#1329=DIRECTION('center_axis',(0.,1.,0.));
#1330=DIRECTION('ref_axis',(-0.923879532511287,0.,-0.38268343236509));
#1331=DIRECTION('center_axis',(0.,-1.,0.));
#1332=DIRECTION('ref_axis',(-0.923879532511287,0.,-0.38268343236509));
#1333=DIRECTION('',(0.,-1.,0.));
#1334=DIRECTION('',(0.,1.,0.));
#1335=DIRECTION('center_axis',(-0.707106781186547,0.,-0.707106781186548));
#1336=DIRECTION('ref_axis',(-0.707106781186548,0.,0.707106781186547));
#1337=DIRECTION('',(-0.707106781186548,0.,0.707106781186547));
#1338=DIRECTION('',(0.,1.,0.));
#1339=DIRECTION('center_axis',(0.,1.,0.));
#1340=DIRECTION('ref_axis',(-0.382683432365089,0.,-0.923879532511287));
#1341=DIRECTION('center_axis',(0.,-1.,0.));
#1342=DIRECTION('ref_axis',(-0.382683432365089,0.,-0.923879532511287));
#1343=DIRECTION('',(0.,-1.,0.));
#1344=DIRECTION('center_axis',(0.,1.,0.));
#1345=DIRECTION('ref_axis',(0.38268343236509,0.,-0.923879532511287));
#1346=DIRECTION('center_axis',(0.,-1.,0.));
#1347=DIRECTION('ref_axis',(0.38268343236509,0.,-0.923879532511287));
#1348=DIRECTION('',(0.,-1.,0.));
#1349=DIRECTION('',(0.,1.,0.));
#1350=DIRECTION('center_axis',(0.707106781186548,0.,-0.707106781186547));
#1351=DIRECTION('ref_axis',(-0.707106781186547,0.,-0.707106781186548));
#1352=DIRECTION('',(-0.707106781186547,0.,-0.707106781186548));
#1353=DIRECTION('',(0.,1.,0.));
#1354=DIRECTION('center_axis',(0.,1.,0.));
#1355=DIRECTION('ref_axis',(0.923879532511287,0.,-0.382683432365089));
#1356=DIRECTION('center_axis',(0.,-1.,0.));
#1357=DIRECTION('ref_axis',(0.923879532511287,0.,-0.382683432365089));
#1358=DIRECTION('',(0.,-1.,0.));
#1359=DIRECTION('center_axis',(0.,1.,0.));
#1360=DIRECTION('ref_axis',(0.923879532511287,0.,0.38268343236509));
#1361=DIRECTION('center_axis',(0.,-1.,0.));
#1362=DIRECTION('ref_axis',(0.923879532511287,0.,0.38268343236509));
#1363=DIRECTION('',(0.,-1.,0.));
#1364=DIRECTION('',(0.,1.,0.));
#1365=DIRECTION('center_axis',(0.707106781186547,0.,0.707106781186548));
#1366=DIRECTION('ref_axis',(0.707106781186548,0.,-0.707106781186547));
#1367=DIRECTION('',(0.707106781186548,0.,-0.707106781186547));
#1368=DIRECTION('',(0.,1.,0.));
#1369=DIRECTION('center_axis',(0.,1.,0.));
#1370=DIRECTION('ref_axis',(0.382683432365089,0.,0.923879532511287));
#1371=DIRECTION('center_axis',(0.,-1.,0.));
#1372=DIRECTION('ref_axis',(0.382683432365089,0.,0.923879532511287));
#1373=DIRECTION('',(0.,-1.,0.));
#1374=DIRECTION('center_axis',(0.,1.,0.));
#1375=DIRECTION('ref_axis',(-0.38268343236509,0.,0.923879532511287));
#1376=DIRECTION('center_axis',(0.,-1.,0.));
#1377=DIRECTION('ref_axis',(-0.38268343236509,0.,0.923879532511287));
#1378=DIRECTION('',(0.,1.,0.));
#1379=DIRECTION('center_axis',(0.,1.,0.));
#1380=DIRECTION('ref_axis',(0.,0.,-1.));
#1381=DIRECTION('',(0.,1.,0.));
#1382=DIRECTION('center_axis',(0.,-1.,0.));
#1383=DIRECTION('ref_axis',(0.,0.,-1.));
#1384=DIRECTION('center_axis',(4.94827473841649E-16,0.,-1.));
#1385=DIRECTION('ref_axis',(-1.,0.,-4.94827473841649E-16));
#1386=DIRECTION('',(-1.,0.,-4.94827473841649E-16));
#1387=DIRECTION('center_axis',(1.,0.,3.29884982561099E-16));
#1388=DIRECTION('ref_axis',(3.29884982561099E-16,0.,-1.));
#1389=DIRECTION('',(3.29884982561099E-16,0.,-1.));
#1390=DIRECTION('center_axis',(-3.29884982561099E-16,0.,1.));
#1391=DIRECTION('ref_axis',(1.,0.,3.29884982561099E-16));
#1392=DIRECTION('',(1.,0.,3.29884982561099E-16));
#1393=DIRECTION('center_axis',(-1.,0.,-6.59769965122198E-16));
#1394=DIRECTION('ref_axis',(-6.59769965122198E-16,0.,1.));
#1395=DIRECTION('',(-6.59769965122198E-16,0.,1.));
#1396=DIRECTION('center_axis',(0.,1.,0.));
#1397=DIRECTION('ref_axis',(0.,0.,1.));
#1398=DIRECTION('center_axis',(0.,-1.,0.));
#1399=DIRECTION('ref_axis',(0.38268343236509,0.,-0.923879532511287));
#1400=DIRECTION('center_axis',(0.,-1.,0.));
#1401=DIRECTION('ref_axis',(0.707106781186548,0.,-0.707106781186547));
#1402=DIRECTION('center_axis',(0.,-1.,0.));
#1403=DIRECTION('ref_axis',(0.923879532511287,0.,-0.38268343236509));
#1404=DIRECTION('center_axis',(0.,-1.,0.));
#1405=DIRECTION('ref_axis',(1.,0.,1.83697019872103E-16));
#1406=DIRECTION('center_axis',(0.,-1.,0.));
#1407=DIRECTION('ref_axis',(0.923879532511287,0.,0.38268343236509));
#1408=DIRECTION('center_axis',(0.,-1.,0.));
#1409=DIRECTION('ref_axis',(0.707106781186547,0.,0.707106781186548));
#1410=DIRECTION('center_axis',(0.,-1.,0.));
#1411=DIRECTION('ref_axis',(0.38268343236509,0.,0.923879532511287));
#1412=DIRECTION('center_axis',(0.,-1.,0.));
#1413=DIRECTION('ref_axis',(-1.22464679914735E-16,0.,1.));
#1414=DIRECTION('center_axis',(0.,-1.,0.));
#1415=DIRECTION('ref_axis',(-0.38268343236509,0.,0.923879532511287));
#1416=DIRECTION('center_axis',(0.,-1.,0.));
#1417=DIRECTION('ref_axis',(-0.707106781186548,0.,0.707106781186547));
#1418=DIRECTION('center_axis',(0.,-1.,0.));
#1419=DIRECTION('ref_axis',(-0.923879532511287,0.,0.38268343236509));
#1420=DIRECTION('center_axis',(0.,-1.,0.));
#1421=DIRECTION('ref_axis',(-1.,0.,-6.12323399573677E-17));
#1422=DIRECTION('center_axis',(0.,-1.,0.));
#1423=DIRECTION('ref_axis',(-0.923879532511287,0.,-0.38268343236509));
#1424=DIRECTION('center_axis',(0.,-1.,0.));
#1425=DIRECTION('ref_axis',(-0.707106781186547,0.,-0.707106781186548));
#1426=DIRECTION('center_axis',(0.,-1.,0.));
#1427=DIRECTION('ref_axis',(-0.38268343236509,0.,-0.923879532511287));
#1428=DIRECTION('center_axis',(0.,1.,0.));
#1429=DIRECTION('ref_axis',(-0.38268343236509,0.,-0.923879532511287));
#1430=DIRECTION('',(0.,1.,0.));
#1431=DIRECTION('center_axis',(0.,1.,0.));
#1432=DIRECTION('ref_axis',(-0.707106781186547,0.,-0.707106781186548));
#1433=DIRECTION('',(0.,1.,0.));
#1434=DIRECTION('center_axis',(0.,1.,0.));
#1435=DIRECTION('ref_axis',(-0.923879532511287,0.,-0.38268343236509));
#1436=DIRECTION('',(0.,1.,0.));
#1437=DIRECTION('center_axis',(0.,1.,0.));
#1438=DIRECTION('ref_axis',(-1.,0.,-6.12323399573677E-17));
#1439=DIRECTION('',(0.,1.,0.));
#1440=DIRECTION('center_axis',(0.,1.,0.));
#1441=DIRECTION('ref_axis',(-0.923879532511287,0.,0.38268343236509));
#1442=DIRECTION('',(0.,1.,0.));
#1443=DIRECTION('center_axis',(0.,1.,0.));
#1444=DIRECTION('ref_axis',(-0.707106781186548,0.,0.707106781186547));
#1445=DIRECTION('',(0.,1.,0.));
#1446=DIRECTION('center_axis',(0.,1.,0.));
#1447=DIRECTION('ref_axis',(-0.38268343236509,0.,0.923879532511287));
#1448=DIRECTION('',(0.,1.,0.));
#1449=DIRECTION('center_axis',(0.,1.,0.));
#1450=DIRECTION('ref_axis',(-1.22464679914735E-16,0.,1.));
#1451=DIRECTION('',(0.,1.,0.));
#1452=DIRECTION('center_axis',(0.,1.,0.));
#1453=DIRECTION('ref_axis',(0.38268343236509,0.,0.923879532511287));
#1454=DIRECTION('',(0.,1.,0.));
#1455=DIRECTION('center_axis',(0.,1.,0.));
#1456=DIRECTION('ref_axis',(0.707106781186547,0.,0.707106781186548));
#1457=DIRECTION('',(0.,1.,0.));
#1458=DIRECTION('center_axis',(0.,1.,0.));
#1459=DIRECTION('ref_axis',(0.923879532511287,0.,0.38268343236509));
#1460=DIRECTION('',(0.,1.,0.));
#1461=DIRECTION('center_axis',(0.,1.,0.));
#1462=DIRECTION('ref_axis',(1.,0.,1.83697019872103E-16));
#1463=DIRECTION('',(0.,1.,0.));
#1464=DIRECTION('center_axis',(0.,1.,0.));
#1465=DIRECTION('ref_axis',(0.923879532511287,0.,-0.38268343236509));
#1466=DIRECTION('',(0.,1.,0.));
#1467=DIRECTION('center_axis',(0.,1.,0.));
#1468=DIRECTION('ref_axis',(0.707106781186548,0.,-0.707106781186547));
#1469=DIRECTION('',(0.,1.,0.));
#1470=DIRECTION('center_axis',(0.,1.,0.));
#1471=DIRECTION('ref_axis',(0.38268343236509,0.,-0.923879532511287));
#1472=DIRECTION('',(0.,1.,0.));
#1473=CARTESIAN_POINT('',(0.,0.,0.));
#1474=CARTESIAN_POINT('Origin',(-17.39696961967,0.,-42.));
#1475=CARTESIAN_POINT('',(-23.0538238691623,0.,-47.6568542494924));
#1476=CARTESIAN_POINT('',(-17.39696961967,0.,-50.));
#1477=CARTESIAN_POINT('Origin',(-17.39696961967,0.,-42.));
#1478=CARTESIAN_POINT('',(-17.39696961967,2.5,-50.));
#1479=CARTESIAN_POINT('',(-17.39696961967,0.,-50.));
#1480=CARTESIAN_POINT('',(-23.0538238691623,2.5,-47.6568542494924));
#1481=CARTESIAN_POINT('Origin',(-17.39696961967,2.5,-42.));
#1482=CARTESIAN_POINT('',(-23.0538238691623,0.,-47.6568542494924));
#1483=CARTESIAN_POINT('Origin',(-20.7106781186547,0.,-50.));
#1484=CARTESIAN_POINT('',(17.39696961967,0.,-50.));
#1485=CARTESIAN_POINT('',(20.7106781186548,0.,-50.));
#1486=CARTESIAN_POINT('',(17.39696961967,2.5,-50.));
#1487=CARTESIAN_POINT('',(17.39696961967,0.,-50.));
#1488=CARTESIAN_POINT('',(20.7106781186548,2.5,-50.));
#1489=CARTESIAN_POINT('Origin',(-42.,0.,-17.39696961967));
#1490=CARTESIAN_POINT('',(-50.,0.,-17.39696961967));
#1491=CARTESIAN_POINT('',(-47.6568542494923,0.,-23.0538238691624));
#1492=CARTESIAN_POINT('Origin',(-42.,0.,-17.39696961967));
#1493=CARTESIAN_POINT('',(-47.6568542494923,2.5,-23.0538238691624));
#1494=CARTESIAN_POINT('',(-47.6568542494924,0.,-23.0538238691624));
#1495=CARTESIAN_POINT('',(-50.,2.5,-17.39696961967));
#1496=CARTESIAN_POINT('Origin',(-42.,2.5,-17.39696961967));
#1497=CARTESIAN_POINT('',(-50.,0.,-17.39696961967));
#1498=CARTESIAN_POINT('Origin',(-50.,0.,-20.7106781186548));
#1499=CARTESIAN_POINT('',(-20.7106781186547,2.5,-50.));
#1500=CARTESIAN_POINT('',(-20.7106781186547,0.,-50.));
#1501=CARTESIAN_POINT('Origin',(-42.,0.,17.39696961967));
#1502=CARTESIAN_POINT('',(-47.6568542494924,0.,23.0538238691624));
#1503=CARTESIAN_POINT('',(-50.,0.,17.39696961967));
#1504=CARTESIAN_POINT('Origin',(-42.,0.,17.39696961967));
#1505=CARTESIAN_POINT('',(-50.,2.5,17.39696961967));
#1506=CARTESIAN_POINT('',(-50.,0.,17.39696961967));
#1507=CARTESIAN_POINT('',(-47.6568542494924,2.5,23.0538238691624));
#1508=CARTESIAN_POINT('Origin',(-42.,2.5,17.39696961967));
#1509=CARTESIAN_POINT('',(-47.6568542494924,0.,23.0538238691624));
#1510=CARTESIAN_POINT('Origin',(-50.,0.,20.7106781186548));
#1511=CARTESIAN_POINT('',(-50.,2.5,-20.7106781186548));
#1512=CARTESIAN_POINT('',(-50.,0.,-20.7106781186548));
#1513=CARTESIAN_POINT('Origin',(-17.39696961967,0.,42.));
#1514=CARTESIAN_POINT('',(-17.39696961967,0.,50.));
#1515=CARTESIAN_POINT('',(-23.0538238691624,0.,47.6568542494924));
#1516=CARTESIAN_POINT('Origin',(-17.39696961967,0.,42.));
#1517=CARTESIAN_POINT('',(-23.0538238691624,2.5,47.6568542494924));
#1518=CARTESIAN_POINT('',(-23.0538238691624,0.,47.6568542494924));
#1519=CARTESIAN_POINT('',(-17.39696961967,2.5,50.));
#1520=CARTESIAN_POINT('Origin',(-17.39696961967,2.5,42.));
#1521=CARTESIAN_POINT('',(-17.39696961967,0.,50.));
#1522=CARTESIAN_POINT('Origin',(-20.7106781186548,0.,50.));
#1523=CARTESIAN_POINT('',(-50.,2.5,20.7106781186548));
#1524=CARTESIAN_POINT('',(-50.,0.,20.7106781186548));
#1525=CARTESIAN_POINT('Origin',(17.39696961967,0.,42.));
#1526=CARTESIAN_POINT('',(23.0538238691624,0.,47.6568542494924));
#1527=CARTESIAN_POINT('',(17.39696961967,0.,50.));
#1528=CARTESIAN_POINT('Origin',(17.39696961967,0.,42.));
#1529=CARTESIAN_POINT('',(17.39696961967,2.5,50.));
#1530=CARTESIAN_POINT('',(17.39696961967,0.,50.));
#1531=CARTESIAN_POINT('',(23.0538238691624,2.5,47.6568542494924));
#1532=CARTESIAN_POINT('Origin',(17.39696961967,2.5,42.));
#1533=CARTESIAN_POINT('',(23.0538238691624,0.,47.6568542494924));
#1534=CARTESIAN_POINT('Origin',(20.7106781186547,0.,50.));
#1535=CARTESIAN_POINT('',(-20.7106781186548,2.5,50.));
#1536=CARTESIAN_POINT('',(-20.7106781186548,0.,50.));
#1537=CARTESIAN_POINT('Origin',(42.,0.,17.39696961967));
#1538=CARTESIAN_POINT('',(50.,0.,17.39696961967));
#1539=CARTESIAN_POINT('',(47.6568542494924,0.,23.0538238691624));
#1540=CARTESIAN_POINT('Origin',(42.,0.,17.39696961967));
#1541=CARTESIAN_POINT('',(47.6568542494924,2.5,23.0538238691624));
#1542=CARTESIAN_POINT('',(47.6568542494924,0.,23.0538238691624));
#1543=CARTESIAN_POINT('',(50.,2.5,17.39696961967));
#1544=CARTESIAN_POINT('Origin',(42.,2.5,17.39696961967));
#1545=CARTESIAN_POINT('',(50.,0.,17.39696961967));
#1546=CARTESIAN_POINT('Origin',(50.,0.,20.7106781186548));
#1547=CARTESIAN_POINT('',(20.7106781186547,2.5,50.));
#1548=CARTESIAN_POINT('',(20.7106781186547,0.,50.));
#1549=CARTESIAN_POINT('Origin',(42.,0.,-17.39696961967));
#1550=CARTESIAN_POINT('',(47.6568542494924,0.,-23.0538238691623));
#1551=CARTESIAN_POINT('',(50.,0.,-17.39696961967));
#1552=CARTESIAN_POINT('Origin',(42.,0.,-17.39696961967));
#1553=CARTESIAN_POINT('',(50.,2.5,-17.39696961967));
#1554=CARTESIAN_POINT('',(50.,0.,-17.3969696196699));
#1555=CARTESIAN_POINT('',(47.6568542494924,2.5,-23.0538238691623));
#1556=CARTESIAN_POINT('Origin',(42.,2.5,-17.39696961967));
#1557=CARTESIAN_POINT('',(47.6568542494924,0.,-23.0538238691623));
#1558=CARTESIAN_POINT('Origin',(50.,0.,-20.7106781186547));
#1559=CARTESIAN_POINT('',(50.,2.5,20.7106781186548));
#1560=CARTESIAN_POINT('',(50.,0.,20.7106781186548));
#1561=CARTESIAN_POINT('Origin',(17.39696961967,0.,-42.));
#1562=CARTESIAN_POINT('',(23.0538238691624,0.,-47.6568542494924));
#1563=CARTESIAN_POINT('Origin',(17.39696961967,0.,-42.));
#1564=CARTESIAN_POINT('',(23.0538238691624,2.5,-47.6568542494924));
#1565=CARTESIAN_POINT('',(23.0538238691624,0.,-47.6568542494924));
#1566=CARTESIAN_POINT('Origin',(17.39696961967,2.5,-42.));
#1567=CARTESIAN_POINT('Origin',(20.7106781186548,0.,-50.));
#1568=CARTESIAN_POINT('',(50.,2.5,-20.7106781186547));
#1569=CARTESIAN_POINT('',(50.,0.,-20.7106781186547));
#1570=CARTESIAN_POINT('Origin',(-57.,0.,23.6101730552664));
#1571=CARTESIAN_POINT('',(-62.6568542494924,2.5,29.2670273047588));
#1572=CARTESIAN_POINT('',(-65.,2.5,23.6101730552664));
#1573=CARTESIAN_POINT('Origin',(-57.,2.5,23.6101730552664));
#1574=CARTESIAN_POINT('',(-65.,0.,23.6101730552664));
#1575=CARTESIAN_POINT('',(-65.,0.,23.6101730552664));
#1576=CARTESIAN_POINT('',(-62.6568542494924,0.,29.2670273047588));
#1577=CARTESIAN_POINT('Origin',(-57.,0.,23.6101730552664));
#1578=CARTESIAN_POINT('',(-62.6568542494924,0.,29.2670273047588));
#1579=CARTESIAN_POINT('Origin',(-65.,0.,26.9238815542512));
#1580=CARTESIAN_POINT('',(-29.2670273047588,0.,62.6568542494924));
#1581=CARTESIAN_POINT('',(-65.,0.,26.9238815542512));
#1582=CARTESIAN_POINT('',(-29.2670273047588,2.5,62.6568542494924));
#1583=CARTESIAN_POINT('',(-29.2670273047588,0.,62.6568542494924));
#1584=CARTESIAN_POINT('',(-65.,2.5,26.9238815542512));
#1585=CARTESIAN_POINT('Origin',(0.,0.,8.88178419700125E-15));
#1586=CARTESIAN_POINT('',(-65.,0.,-23.6101730552665));
#1587=CARTESIAN_POINT('',(-65.,0.,-26.9238815542512));
#1588=CARTESIAN_POINT('',(-62.6568542494923,0.,-29.2670273047588));
#1589=CARTESIAN_POINT('Origin',(-57.,0.,-23.6101730552665));
#1590=CARTESIAN_POINT('',(-29.2670273047587,0.,-62.6568542494924));
#1591=CARTESIAN_POINT('',(-26.9238815542511,0.,-65.));
#1592=CARTESIAN_POINT('',(-23.6101730552664,0.,-65.));
#1593=CARTESIAN_POINT('Origin',(-23.6101730552664,0.,-57.));
#1594=CARTESIAN_POINT('',(23.6101730552664,0.,-65.));
#1595=CARTESIAN_POINT('',(26.9238815542512,0.,-65.));
#1596=CARTESIAN_POINT('',(29.2670273047588,0.,-62.6568542494924));
#1597=CARTESIAN_POINT('Origin',(23.6101730552664,0.,-57.));
#1598=CARTESIAN_POINT('',(62.6568542494924,0.,-29.2670273047588));
#1599=CARTESIAN_POINT('',(65.,0.,-26.9238815542511));
#1600=CARTESIAN_POINT('',(65.,0.,-23.6101730552664));
#1601=CARTESIAN_POINT('Origin',(57.,0.,-23.6101730552664));
#1602=CARTESIAN_POINT('',(65.,0.,23.6101730552664));
#1603=CARTESIAN_POINT('',(65.,0.,26.9238815542512));
#1604=CARTESIAN_POINT('',(62.6568542494924,0.,29.2670273047588));
#1605=CARTESIAN_POINT('Origin',(57.,0.,23.6101730552664));
#1606=CARTESIAN_POINT('',(29.2670273047588,0.,62.6568542494924));
#1607=CARTESIAN_POINT('',(26.9238815542512,0.,65.));
#1608=CARTESIAN_POINT('',(23.6101730552664,0.,65.));
#1609=CARTESIAN_POINT('Origin',(23.6101730552664,0.,57.));
#1610=CARTESIAN_POINT('',(-23.6101730552664,0.,65.));
#1611=CARTESIAN_POINT('',(-26.9238815542512,0.,65.));
#1612=CARTESIAN_POINT('Origin',(-23.6101730552664,0.,57.));
#1613=CARTESIAN_POINT('',(-56.2429127769941,0.,-21.005152971579));
#1614=CARTESIAN_POINT('Origin',(-55.4327719506772,0.,-22.9610059419054));
#1615=CARTESIAN_POINT('',(-43.9233519269648,0.,-40.9294618154209));
#1616=CARTESIAN_POINT('Origin',(-42.4264068711928,0.,-42.4264068711929));
#1617=CARTESIAN_POINT('',(-24.9168589122318,0.,-54.6226311243603));
#1618=CARTESIAN_POINT('Origin',(-22.9610059419054,0.,-55.4327719506772));
#1619=CARTESIAN_POINT('',(-2.11699999999999,0.,-60.));
#1620=CARTESIAN_POINT('Origin',(1.10218211923262E-14,0.,-60.));
#1621=CARTESIAN_POINT('',(21.005152971579,0.,-56.2429127769941));
#1622=CARTESIAN_POINT('Origin',(22.9610059419054,0.,-55.4327719506772));
#1623=CARTESIAN_POINT('',(40.9294618154209,0.,-43.9233519269648));
#1624=CARTESIAN_POINT('Origin',(42.4264068711929,0.,-42.4264068711928));
#1625=CARTESIAN_POINT('',(54.6226311243603,0.,-24.9168589122318));
#1626=CARTESIAN_POINT('Origin',(55.4327719506772,0.,-22.9610059419054));
#1627=CARTESIAN_POINT('',(60.,0.,-2.11699999999999));
#1628=CARTESIAN_POINT('Origin',(60.,0.,7.34788079488412E-15));
#1629=CARTESIAN_POINT('',(56.2429127769941,0.,21.005152971579));
#1630=CARTESIAN_POINT('Origin',(55.4327719506772,0.,22.9610059419054));
#1631=CARTESIAN_POINT('',(43.9233519269648,0.,40.9294618154209));
#1632=CARTESIAN_POINT('Origin',(42.4264068711928,0.,42.4264068711929));
#1633=CARTESIAN_POINT('',(24.9168589122318,0.,54.6226311243603));
#1634=CARTESIAN_POINT('Origin',(22.9610059419054,0.,55.4327719506772));
#1635=CARTESIAN_POINT('',(2.117,0.,60.));
#1636=CARTESIAN_POINT('Origin',(-3.67394039744206E-15,0.,60.));
#1637=CARTESIAN_POINT('',(-21.005152971579,0.,56.2429127769941));
#1638=CARTESIAN_POINT('Origin',(-22.9610059419054,0.,55.4327719506772));
#1639=CARTESIAN_POINT('',(-40.9294618154209,0.,43.9233519269648));
#1640=CARTESIAN_POINT('Origin',(-42.4264068711929,0.,42.4264068711928));
#1641=CARTESIAN_POINT('',(-54.6226311243603,0.,24.9168589122318));
#1642=CARTESIAN_POINT('Origin',(-55.4327719506772,0.,22.9610059419054));
#1643=CARTESIAN_POINT('',(-60.,0.,2.117));
#1644=CARTESIAN_POINT('Origin',(-60.,0.,0.));
#1645=CARTESIAN_POINT('Origin',(-57.,0.,-23.6101730552665));
#1646=CARTESIAN_POINT('',(-65.,2.5,-23.6101730552665));
#1647=CARTESIAN_POINT('',(-62.6568542494923,2.5,-29.2670273047588));
#1648=CARTESIAN_POINT('Origin',(-57.,2.5,-23.6101730552665));
#1649=CARTESIAN_POINT('',(-62.6568542494923,0.,-29.2670273047588));
#1650=CARTESIAN_POINT('',(-65.,0.,-23.6101730552665));
#1651=CARTESIAN_POINT('Origin',(-26.9238815542511,0.,-65.));
#1652=CARTESIAN_POINT('',(-29.2670273047587,2.5,-62.6568542494924));
#1653=CARTESIAN_POINT('',(-26.9238815542511,2.5,-65.));
#1654=CARTESIAN_POINT('',(-29.2670273047587,0.,-62.6568542494924));
#1655=CARTESIAN_POINT('Origin',(-23.6101730552664,0.,-57.));
#1656=CARTESIAN_POINT('',(-23.6101730552664,2.5,-65.));
#1657=CARTESIAN_POINT('Origin',(-23.6101730552664,2.5,-57.));
#1658=CARTESIAN_POINT('',(-23.6101730552664,0.,-65.));
#1659=CARTESIAN_POINT('Origin',(23.6101730552664,0.,-57.));
#1660=CARTESIAN_POINT('',(23.6101730552664,2.5,-65.));
#1661=CARTESIAN_POINT('',(29.2670273047588,2.5,-62.6568542494924));
#1662=CARTESIAN_POINT('Origin',(23.6101730552664,2.5,-57.));
#1663=CARTESIAN_POINT('',(29.2670273047588,0.,-62.6568542494924));
#1664=CARTESIAN_POINT('',(23.6101730552664,0.,-65.));
#1665=CARTESIAN_POINT('Origin',(65.,0.,-26.9238815542511));
#1666=CARTESIAN_POINT('',(62.6568542494924,2.5,-29.2670273047588));
#1667=CARTESIAN_POINT('',(65.,2.5,-26.9238815542511));
#1668=CARTESIAN_POINT('',(62.6568542494924,0.,-29.2670273047588));
#1669=CARTESIAN_POINT('Origin',(57.,0.,-23.6101730552664));
#1670=CARTESIAN_POINT('',(65.,2.5,-23.6101730552664));
#1671=CARTESIAN_POINT('Origin',(57.,2.5,-23.6101730552664));
#1672=CARTESIAN_POINT('',(65.,0.,-23.6101730552664));
#1673=CARTESIAN_POINT('Origin',(57.,0.,23.6101730552664));
#1674=CARTESIAN_POINT('',(65.,2.5,23.6101730552664));
#1675=CARTESIAN_POINT('',(62.6568542494924,2.5,29.2670273047588));
#1676=CARTESIAN_POINT('Origin',(57.,2.5,23.6101730552664));
#1677=CARTESIAN_POINT('',(62.6568542494924,0.,29.2670273047588));
#1678=CARTESIAN_POINT('',(65.,0.,23.6101730552664));
#1679=CARTESIAN_POINT('Origin',(26.9238815542512,0.,65.));
#1680=CARTESIAN_POINT('',(29.2670273047588,2.5,62.6568542494924));
#1681=CARTESIAN_POINT('',(26.9238815542512,2.5,65.));
#1682=CARTESIAN_POINT('',(29.2670273047588,0.,62.6568542494924));
#1683=CARTESIAN_POINT('Origin',(23.6101730552664,0.,57.));
#1684=CARTESIAN_POINT('',(23.6101730552664,2.5,65.));
#1685=CARTESIAN_POINT('Origin',(23.6101730552664,2.5,57.));
#1686=CARTESIAN_POINT('',(23.6101730552664,0.,65.));
#1687=CARTESIAN_POINT('Origin',(-23.6101730552664,0.,57.));
#1688=CARTESIAN_POINT('',(-23.6101730552664,2.5,65.));
#1689=CARTESIAN_POINT('Origin',(-23.6101730552664,2.5,57.));
#1690=CARTESIAN_POINT('',(-23.6101730552664,0.,65.));
#1691=CARTESIAN_POINT('Origin',(-60.,50.,0.));
#1692=CARTESIAN_POINT('',(-60.,2.5,2.117));
#1693=CARTESIAN_POINT('',(-60.,50.,2.117));
#1694=CARTESIAN_POINT('Origin',(-60.,2.5,0.));
#1695=CARTESIAN_POINT('Origin',(26.9238815542512,0.,-65.));
#1696=CARTESIAN_POINT('',(26.9238815542512,2.5,-65.));
#1697=CARTESIAN_POINT('Origin',(65.,0.,26.9238815542512));
#1698=CARTESIAN_POINT('',(65.,2.5,26.9238815542512));
#1699=CARTESIAN_POINT('Origin',(-26.9238815542512,0.,65.));
#1700=CARTESIAN_POINT('',(-26.9238815542512,2.5,65.));
#1701=CARTESIAN_POINT('Origin',(-65.,0.,-26.9238815542512));
#1702=CARTESIAN_POINT('',(-65.,2.5,-26.9238815542512));
#1703=CARTESIAN_POINT('Origin',(0.,2.5,8.88178419700125E-15));
#1704=CARTESIAN_POINT('',(-56.2429127769941,2.5,-21.005152971579));
#1705=CARTESIAN_POINT('Origin',(-55.4327719506772,2.5,-22.9610059419054));
#1706=CARTESIAN_POINT('',(-43.9233519269648,2.5,-40.9294618154209));
#1707=CARTESIAN_POINT('Origin',(-42.4264068711928,2.5,-42.4264068711929));
#1708=CARTESIAN_POINT('',(-24.9168589122318,2.5,-54.6226311243603));
#1709=CARTESIAN_POINT('Origin',(-22.9610059419054,2.5,-55.4327719506772));
#1710=CARTESIAN_POINT('',(-2.11699999999999,2.5,-60.));
#1711=CARTESIAN_POINT('Origin',(1.10218211923262E-14,2.5,-60.));
#1712=CARTESIAN_POINT('',(21.005152971579,2.5,-56.2429127769941));
#1713=CARTESIAN_POINT('Origin',(22.9610059419054,2.5,-55.4327719506772));
#1714=CARTESIAN_POINT('',(40.9294618154209,2.5,-43.9233519269648));
#1715=CARTESIAN_POINT('Origin',(42.4264068711929,2.5,-42.4264068711928));
#1716=CARTESIAN_POINT('',(54.6226311243603,2.5,-24.9168589122318));
#1717=CARTESIAN_POINT('Origin',(55.4327719506772,2.5,-22.9610059419054));
#1718=CARTESIAN_POINT('',(60.,2.5,-2.11699999999999));
#1719=CARTESIAN_POINT('Origin',(60.,2.5,7.34788079488412E-15));
#1720=CARTESIAN_POINT('',(56.2429127769941,2.5,21.005152971579));
#1721=CARTESIAN_POINT('Origin',(55.4327719506772,2.5,22.9610059419054));
#1722=CARTESIAN_POINT('',(43.9233519269648,2.5,40.9294618154209));
#1723=CARTESIAN_POINT('Origin',(42.4264068711928,2.5,42.4264068711929));
#1724=CARTESIAN_POINT('',(24.9168589122318,2.5,54.6226311243603));
#1725=CARTESIAN_POINT('Origin',(22.9610059419054,2.5,55.4327719506772));
#1726=CARTESIAN_POINT('',(2.117,2.5,60.));
#1727=CARTESIAN_POINT('Origin',(-3.67394039744206E-15,2.5,60.));
#1728=CARTESIAN_POINT('',(-21.005152971579,2.5,56.2429127769941));
#1729=CARTESIAN_POINT('Origin',(-22.9610059419054,2.5,55.4327719506772));
#1730=CARTESIAN_POINT('',(-40.9294618154209,2.5,43.9233519269648));
#1731=CARTESIAN_POINT('Origin',(-42.4264068711929,2.5,42.4264068711928));
#1732=CARTESIAN_POINT('',(-54.6226311243603,2.5,24.9168589122318));
#1733=CARTESIAN_POINT('Origin',(-55.4327719506772,2.5,22.9610059419054));
#1734=CARTESIAN_POINT('Origin',(-55.4327719506772,50.,22.9610059419054));
#1735=CARTESIAN_POINT('',(-54.6226311243603,50.,24.9168589122318));
#1736=CARTESIAN_POINT('Origin',(-42.4264068711929,50.,42.4264068711928));
#1737=CARTESIAN_POINT('',(-40.9294618154209,50.,43.9233519269648));
#1738=CARTESIAN_POINT('Origin',(-22.9610059419054,50.,55.4327719506772));
#1739=CARTESIAN_POINT('',(-21.005152971579,50.,56.2429127769941));
#1740=CARTESIAN_POINT('Origin',(-3.67394039744206E-15,50.,60.));
#1741=CARTESIAN_POINT('',(2.117,50.,60.));
#1742=CARTESIAN_POINT('Origin',(22.9610059419054,50.,55.4327719506772));
#1743=CARTESIAN_POINT('',(24.9168589122318,50.,54.6226311243603));
#1744=CARTESIAN_POINT('Origin',(42.4264068711928,50.,42.4264068711929));
#1745=CARTESIAN_POINT('',(43.9233519269648,50.,40.9294618154209));
#1746=CARTESIAN_POINT('Origin',(55.4327719506772,50.,22.9610059419054));
#1747=CARTESIAN_POINT('',(56.2429127769941,50.,21.005152971579));
#1748=CARTESIAN_POINT('Origin',(60.,50.,7.34788079488412E-15));
#1749=CARTESIAN_POINT('',(60.,50.,-2.11699999999999));
#1750=CARTESIAN_POINT('Origin',(55.4327719506772,50.,-22.9610059419054));
#1751=CARTESIAN_POINT('',(54.6226311243603,50.,-24.9168589122318));
#1752=CARTESIAN_POINT('Origin',(42.4264068711929,50.,-42.4264068711928));
#1753=CARTESIAN_POINT('',(40.9294618154209,50.,-43.9233519269648));
#1754=CARTESIAN_POINT('Origin',(22.9610059419054,50.,-55.4327719506772));
#1755=CARTESIAN_POINT('',(21.005152971579,50.,-56.2429127769941));
#1756=CARTESIAN_POINT('Origin',(1.10218211923262E-14,50.,-60.));
#1757=CARTESIAN_POINT('',(-2.11699999999999,50.,-60.));
#1758=CARTESIAN_POINT('Origin',(-22.9610059419054,50.,-55.4327719506772));
#1759=CARTESIAN_POINT('',(-24.9168589122318,50.,-54.6226311243603));
#1760=CARTESIAN_POINT('Origin',(-42.4264068711928,50.,-42.4264068711929));
#1761=CARTESIAN_POINT('',(-43.9233519269648,50.,-40.9294618154209));
#1762=CARTESIAN_POINT('Origin',(-55.4327719506772,50.,-22.9610059419054));
#1763=CARTESIAN_POINT('',(-56.2429127769941,50.,-21.005152971579));
#1764=UNCERTAINTY_MEASURE_WITH_UNIT(LENGTH_MEASURE(0.01),#1768,
'DISTANCE_ACCURACY_VALUE',
'Maximum model space distance between geometric entities at asserted c
onnectivities');
#1765=UNCERTAINTY_MEASURE_WITH_UNIT(LENGTH_MEASURE(0.01),#1768,
'DISTANCE_ACCURACY_VALUE',
'Maximum model space distance between geometric entities at asserted c
onnectivities');
#1766=(
GEOMETRIC_REPRESENTATION_CONTEXT(3)
GLOBAL_UNCERTAINTY_ASSIGNED_CONTEXT((#1764))
GLOBAL_UNIT_ASSIGNED_CONTEXT((#1768,#1770,#1771))
REPRESENTATION_CONTEXT('','3D')
);
#1767=(
GEOMETRIC_REPRESENTATION_CONTEXT(3)
GLOBAL_UNCERTAINTY_ASSIGNED_CONTEXT((#1765))
GLOBAL_UNIT_ASSIGNED_CONTEXT((#1768,#1770,#1771))
REPRESENTATION_CONTEXT('','3D')
);
#1768=(
LENGTH_UNIT()
NAMED_UNIT(*)
SI_UNIT(.MILLI.,.METRE.)
);
#1769=(
LENGTH_UNIT()
NAMED_UNIT(*)
SI_UNIT($,.METRE.)
);
#1770=(
NAMED_UNIT(*)
PLANE_ANGLE_UNIT()
SI_UNIT($,.RADIAN.)
);
#1771=(
NAMED_UNIT(*)
SI_UNIT($,.STERADIAN.)
SOLID_ANGLE_UNIT()
);
#1772=SHAPE_DEFINITION_REPRESENTATION(#1773,#1774);
#1773=PRODUCT_DEFINITION_SHAPE('',$,#1776);
#1774=SHAPE_REPRESENTATION('',(#1048),#1766);
#1775=PRODUCT_DEFINITION_CONTEXT('part definition',#1780,'design');
#1776=PRODUCT_DEFINITION('stage 2 connector clamp',
'stage 2 connector clamp v5',#1777,#1775);
#1777=PRODUCT_DEFINITION_FORMATION('',$,#1782);
#1778=PRODUCT_RELATED_PRODUCT_CATEGORY('stage 2 connector clamp v5',
'stage 2 connector clamp v5',(#1782));
#1779=APPLICATION_PROTOCOL_DEFINITION('international standard',
'automotive_design',2009,#1780);
#1780=APPLICATION_CONTEXT(
'Core Data for Automotive Mechanical Design Process');
#1781=PRODUCT_CONTEXT('part definition',#1780,'mechanical');
#1782=PRODUCT('stage 2 connector clamp','stage 2 connector clamp v5',$,
(#1781));
#1783=PRESENTATION_STYLE_ASSIGNMENT((#1784));
#1784=SURFACE_STYLE_USAGE(.BOTH.,#1785);
#1785=SURFACE_SIDE_STYLE('',(#1786));
#1786=SURFACE_STYLE_FILL_AREA(#1787);
#1787=FILL_AREA_STYLE('Copper - Polished',(#1788));
#1788=FILL_AREA_STYLE_COLOUR('Copper - Polished',#1789);
#1789=COLOUR_RGB('Copper - Polished',0.929411764705882,0.807843137254902,
0.764705882352941);
ENDSEC;
END-ISO-10303-21;
