ISO-10303-21;
HEADER;
/* Generated by software containing ST-Developer
 * from STEP Tools, Inc. (www.steptools.com) 
 */

FILE_DESCRIPTION(
/* description */ (''),
/* implementation_level */ '2;1');

FILE_NAME(
/* name */ 'stage 2 shield 2 clamps v5.step',
/* time_stamp */ '2024-06-14T15:45:34+02:00',
/* author */ (''),
/* organization */ (''),
/* preprocessor_version */ 'ST-DEVELOPER v20',
/* originating_system */ 'Autodesk Translation Framework v13.14.0.145',

/* authorisation */ '');

FILE_SCHEMA (('AUTOMOTIVE_DESIGN { 1 0 10303 214 3 1 1 }'));
ENDSEC;

DATA;
#10=MECHANICAL_DESIGN_GEOMETRIC_PRESENTATION_REPRESENTATION('',(#13),#743);
#11=SHAPE_REPRESENTATION_RELATIONSHIP('SRR','None',#750,#12);
#12=ADVANCED_BREP_SHAPE_REPRESENTATION('',(#14),#742);
#13=STYLED_ITEM('',(#759),#14);
#14=MANIFOLD_SOLID_BREP('Body2',#443);
#15=CYLINDRICAL_SURFACE('',#473,5.);
#16=CYLINDRICAL_SURFACE('',#476,5.);
#17=CYLINDRICAL_SURFACE('',#479,10.);
#18=CYLINDRICAL_SURFACE('',#482,10.);
#19=CYLINDRICAL_SURFACE('',#484,2.117);
#20=CYLINDRICAL_SURFACE('',#486,2.117);
#21=CYLINDRICAL_SURFACE('',#488,2.117);
#22=CYLINDRICAL_SURFACE('',#490,2.117);
#23=FACE_BOUND('',#71,.T.);
#24=FACE_BOUND('',#72,.T.);
#25=FACE_BOUND('',#73,.T.);
#26=FACE_BOUND('',#74,.T.);
#27=FACE_BOUND('',#95,.T.);
#28=FACE_BOUND('',#96,.T.);
#29=FACE_BOUND('',#97,.T.);
#30=FACE_BOUND('',#98,.T.);
#31=CIRCLE('',#459,5.);
#32=CIRCLE('',#460,5.);
#33=CIRCLE('',#461,10.);
#34=CIRCLE('',#462,10.);
#35=CIRCLE('',#463,2.117);
#36=CIRCLE('',#464,2.117);
#37=CIRCLE('',#465,2.117);
#38=CIRCLE('',#466,2.117);
#39=CIRCLE('',#474,5.);
#40=CIRCLE('',#477,5.);
#41=CIRCLE('',#480,10.);
#42=CIRCLE('',#483,10.);
#43=CIRCLE('',#485,2.117);
#44=CIRCLE('',#487,2.117);
#45=CIRCLE('',#489,2.117);
#46=CIRCLE('',#491,2.117);
#47=FACE_OUTER_BOUND('',#69,.T.);
#48=FACE_OUTER_BOUND('',#70,.T.);
#49=FACE_OUTER_BOUND('',#75,.T.);
#50=FACE_OUTER_BOUND('',#76,.T.);
#51=FACE_OUTER_BOUND('',#77,.T.);
#52=FACE_OUTER_BOUND('',#78,.T.);
#53=FACE_OUTER_BOUND('',#79,.T.);
#54=FACE_OUTER_BOUND('',#80,.T.);
#55=FACE_OUTER_BOUND('',#81,.T.);
#56=FACE_OUTER_BOUND('',#82,.T.);
#57=FACE_OUTER_BOUND('',#83,.T.);
#58=FACE_OUTER_BOUND('',#84,.T.);
#59=FACE_OUTER_BOUND('',#85,.T.);
#60=FACE_OUTER_BOUND('',#86,.T.);
#61=FACE_OUTER_BOUND('',#87,.T.);
#62=FACE_OUTER_BOUND('',#88,.T.);
#63=FACE_OUTER_BOUND('',#89,.T.);
#64=FACE_OUTER_BOUND('',#90,.T.);
#65=FACE_OUTER_BOUND('',#91,.T.);
#66=FACE_OUTER_BOUND('',#92,.T.);
#67=FACE_OUTER_BOUND('',#93,.T.);
#68=FACE_OUTER_BOUND('',#94,.T.);
#69=EDGE_LOOP('',(#287,#288,#289,#290));
#70=EDGE_LOOP('',(#291,#292,#293,#294,#295,#296,#297,#298,#299,#300,#301,
#302,#303,#304,#305,#306));
#71=EDGE_LOOP('',(#307));
#72=EDGE_LOOP('',(#308));
#73=EDGE_LOOP('',(#309));
#74=EDGE_LOOP('',(#310));
#75=EDGE_LOOP('',(#311,#312,#313,#314));
#76=EDGE_LOOP('',(#315,#316,#317,#318));
#77=EDGE_LOOP('',(#319,#320,#321,#322));
#78=EDGE_LOOP('',(#323,#324,#325,#326));
#79=EDGE_LOOP('',(#327,#328,#329,#330));
#80=EDGE_LOOP('',(#331,#332,#333,#334));
#81=EDGE_LOOP('',(#335,#336,#337,#338));
#82=EDGE_LOOP('',(#339,#340,#341,#342));
#83=EDGE_LOOP('',(#343,#344,#345,#346));
#84=EDGE_LOOP('',(#347,#348,#349,#350));
#85=EDGE_LOOP('',(#351,#352,#353,#354));
#86=EDGE_LOOP('',(#355,#356,#357,#358));
#87=EDGE_LOOP('',(#359,#360,#361,#362));
#88=EDGE_LOOP('',(#363,#364,#365,#366));
#89=EDGE_LOOP('',(#367,#368,#369,#370));
#90=EDGE_LOOP('',(#371,#372,#373,#374));
#91=EDGE_LOOP('',(#375,#376,#377,#378));
#92=EDGE_LOOP('',(#379,#380,#381,#382));
#93=EDGE_LOOP('',(#383,#384,#385,#386));
#94=EDGE_LOOP('',(#387,#388,#389,#390,#391,#392,#393,#394,#395,#396,#397,
#398,#399,#400,#401,#402));
#95=EDGE_LOOP('',(#403));
#96=EDGE_LOOP('',(#404));
#97=EDGE_LOOP('',(#405));
#98=EDGE_LOOP('',(#406));
#99=LINE('',#621,#143);
#100=LINE('',#623,#144);
#101=LINE('',#625,#145);
#102=LINE('',#626,#146);
#103=LINE('',#629,#147);
#104=LINE('',#631,#148);
#105=LINE('',#633,#149);
#106=LINE('',#637,#150);
#107=LINE('',#641,#151);
#108=LINE('',#643,#152);
#109=LINE('',#645,#153);
#110=LINE('',#647,#154);
#111=LINE('',#649,#155);
#112=LINE('',#653,#156);
#113=LINE('',#656,#157);
#114=LINE('',#667,#158);
#115=LINE('',#668,#159);
#116=LINE('',#671,#160);
#117=LINE('',#672,#161);
#118=LINE('',#676,#162);
#119=LINE('',#677,#163);
#120=LINE('',#678,#164);
#121=LINE('',#681,#165);
#122=LINE('',#682,#166);
#123=LINE('',#685,#167);
#124=LINE('',#686,#168);
#125=LINE('',#689,#169);
#126=LINE('',#690,#170);
#127=LINE('',#693,#171);
#128=LINE('',#696,#172);
#129=LINE('',#698,#173);
#130=LINE('',#701,#174);
#131=LINE('',#704,#175);
#132=LINE('',#709,#176);
#133=LINE('',#710,#177);
#134=LINE('',#713,#178);
#135=LINE('',#714,#179);
#136=LINE('',#718,#180);
#137=LINE('',#721,#181);
#138=LINE('',#725,#182);
#139=LINE('',#729,#183);
#140=LINE('',#733,#184);
#141=LINE('',#736,#185);
#142=LINE('',#738,#186);
#143=VECTOR('',#499,10.);
#144=VECTOR('',#500,10.);
#145=VECTOR('',#501,10.);
#146=VECTOR('',#502,10.);
#147=VECTOR('',#505,10.);
#148=VECTOR('',#506,10.);
#149=VECTOR('',#507,10.);
#150=VECTOR('',#510,10.);
#151=VECTOR('',#513,10.);
#152=VECTOR('',#514,10.);
#153=VECTOR('',#515,10.);
#154=VECTOR('',#516,10.);
#155=VECTOR('',#517,10.);
#156=VECTOR('',#520,10.);
#157=VECTOR('',#523,10.);
#158=VECTOR('',#534,10.);
#159=VECTOR('',#535,10.);
#160=VECTOR('',#538,10.);
#161=VECTOR('',#539,10.);
#162=VECTOR('',#542,10.);
#163=VECTOR('',#543,10.);
#164=VECTOR('',#544,10.);
#165=VECTOR('',#547,10.);
#166=VECTOR('',#548,10.);
#167=VECTOR('',#551,10.);
#168=VECTOR('',#552,10.);
#169=VECTOR('',#555,10.);
#170=VECTOR('',#556,10.);
#171=VECTOR('',#559,10.);
#172=VECTOR('',#562,10.);
#173=VECTOR('',#565,10.);
#174=VECTOR('',#568,10.);
#175=VECTOR('',#573,10.);
#176=VECTOR('',#578,10.);
#177=VECTOR('',#579,10.);
#178=VECTOR('',#582,10.);
#179=VECTOR('',#583,10.);
#180=VECTOR('',#588,10.);
#181=VECTOR('',#591,2.117);
#182=VECTOR('',#596,2.117);
#183=VECTOR('',#601,2.117);
#184=VECTOR('',#606,2.117);
#185=VECTOR('',#611,10.);
#186=VECTOR('',#614,10.);
#187=VERTEX_POINT('',#619);
#188=VERTEX_POINT('',#620);
#189=VERTEX_POINT('',#622);
#190=VERTEX_POINT('',#624);
#191=VERTEX_POINT('',#628);
#192=VERTEX_POINT('',#630);
#193=VERTEX_POINT('',#632);
#194=VERTEX_POINT('',#634);
#195=VERTEX_POINT('',#636);
#196=VERTEX_POINT('',#638);
#197=VERTEX_POINT('',#640);
#198=VERTEX_POINT('',#642);
#199=VERTEX_POINT('',#644);
#200=VERTEX_POINT('',#646);
#201=VERTEX_POINT('',#648);
#202=VERTEX_POINT('',#650);
#203=VERTEX_POINT('',#652);
#204=VERTEX_POINT('',#654);
#205=VERTEX_POINT('',#657);
#206=VERTEX_POINT('',#659);
#207=VERTEX_POINT('',#661);
#208=VERTEX_POINT('',#663);
#209=VERTEX_POINT('',#666);
#210=VERTEX_POINT('',#670);
#211=VERTEX_POINT('',#674);
#212=VERTEX_POINT('',#675);
#213=VERTEX_POINT('',#680);
#214=VERTEX_POINT('',#684);
#215=VERTEX_POINT('',#688);
#216=VERTEX_POINT('',#692);
#217=VERTEX_POINT('',#694);
#218=VERTEX_POINT('',#700);
#219=VERTEX_POINT('',#706);
#220=VERTEX_POINT('',#707);
#221=VERTEX_POINT('',#712);
#222=VERTEX_POINT('',#716);
#223=VERTEX_POINT('',#720);
#224=VERTEX_POINT('',#724);
#225=VERTEX_POINT('',#728);
#226=VERTEX_POINT('',#732);
#227=EDGE_CURVE('',#187,#188,#99,.T.);
#228=EDGE_CURVE('',#188,#189,#100,.T.);
#229=EDGE_CURVE('',#189,#190,#101,.T.);
#230=EDGE_CURVE('',#190,#187,#102,.T.);
#231=EDGE_CURVE('',#189,#191,#103,.T.);
#232=EDGE_CURVE('',#192,#191,#104,.T.);
#233=EDGE_CURVE('',#192,#193,#105,.T.);
#234=EDGE_CURVE('',#194,#193,#31,.T.);
#235=EDGE_CURVE('',#194,#195,#106,.T.);
#236=EDGE_CURVE('',#196,#195,#32,.T.);
#237=EDGE_CURVE('',#196,#197,#107,.T.);
#238=EDGE_CURVE('',#198,#197,#108,.T.);
#239=EDGE_CURVE('',#198,#199,#109,.T.);
#240=EDGE_CURVE('',#200,#199,#110,.T.);
#241=EDGE_CURVE('',#201,#200,#111,.T.);
#242=EDGE_CURVE('',#202,#201,#33,.T.);
#243=EDGE_CURVE('',#203,#202,#112,.T.);
#244=EDGE_CURVE('',#204,#203,#34,.T.);
#245=EDGE_CURVE('',#190,#204,#113,.T.);
#246=EDGE_CURVE('',#205,#205,#35,.T.);
#247=EDGE_CURVE('',#206,#206,#36,.T.);
#248=EDGE_CURVE('',#207,#207,#37,.T.);
#249=EDGE_CURVE('',#208,#208,#38,.T.);
#250=EDGE_CURVE('',#209,#188,#114,.T.);
#251=EDGE_CURVE('',#191,#209,#115,.T.);
#252=EDGE_CURVE('',#209,#210,#116,.T.);
#253=EDGE_CURVE('',#210,#192,#117,.T.);
#254=EDGE_CURVE('',#211,#212,#118,.T.);
#255=EDGE_CURVE('',#212,#200,#119,.T.);
#256=EDGE_CURVE('',#199,#211,#120,.T.);
#257=EDGE_CURVE('',#213,#198,#121,.T.);
#258=EDGE_CURVE('',#211,#213,#122,.T.);
#259=EDGE_CURVE('',#214,#213,#123,.T.);
#260=EDGE_CURVE('',#197,#214,#124,.T.);
#261=EDGE_CURVE('',#215,#196,#125,.T.);
#262=EDGE_CURVE('',#214,#215,#126,.T.);
#263=EDGE_CURVE('',#193,#216,#127,.T.);
#264=EDGE_CURVE('',#216,#217,#39,.T.);
#265=EDGE_CURVE('',#217,#194,#128,.T.);
#266=EDGE_CURVE('',#216,#210,#129,.T.);
#267=EDGE_CURVE('',#195,#218,#130,.T.);
#268=EDGE_CURVE('',#218,#215,#40,.T.);
#269=EDGE_CURVE('',#218,#217,#131,.T.);
#270=EDGE_CURVE('',#219,#220,#41,.T.);
#271=EDGE_CURVE('',#220,#204,#132,.T.);
#272=EDGE_CURVE('',#203,#219,#133,.T.);
#273=EDGE_CURVE('',#221,#202,#134,.T.);
#274=EDGE_CURVE('',#219,#221,#135,.T.);
#275=EDGE_CURVE('',#222,#221,#42,.T.);
#276=EDGE_CURVE('',#201,#222,#136,.T.);
#277=EDGE_CURVE('',#205,#223,#137,.T.);
#278=EDGE_CURVE('',#223,#223,#43,.T.);
#279=EDGE_CURVE('',#206,#224,#138,.T.);
#280=EDGE_CURVE('',#224,#224,#44,.T.);
#281=EDGE_CURVE('',#207,#225,#139,.T.);
#282=EDGE_CURVE('',#225,#225,#45,.T.);
#283=EDGE_CURVE('',#208,#226,#140,.T.);
#284=EDGE_CURVE('',#226,#226,#46,.T.);
#285=EDGE_CURVE('',#222,#212,#141,.T.);
#286=EDGE_CURVE('',#187,#220,#142,.T.);
#287=ORIENTED_EDGE('',*,*,#227,.T.);
#288=ORIENTED_EDGE('',*,*,#228,.T.);
#289=ORIENTED_EDGE('',*,*,#229,.T.);
#290=ORIENTED_EDGE('',*,*,#230,.T.);
#291=ORIENTED_EDGE('',*,*,#229,.F.);
#292=ORIENTED_EDGE('',*,*,#231,.T.);
#293=ORIENTED_EDGE('',*,*,#232,.F.);
#294=ORIENTED_EDGE('',*,*,#233,.T.);
#295=ORIENTED_EDGE('',*,*,#234,.F.);
#296=ORIENTED_EDGE('',*,*,#235,.T.);
#297=ORIENTED_EDGE('',*,*,#236,.F.);
#298=ORIENTED_EDGE('',*,*,#237,.T.);
#299=ORIENTED_EDGE('',*,*,#238,.F.);
#300=ORIENTED_EDGE('',*,*,#239,.T.);
#301=ORIENTED_EDGE('',*,*,#240,.F.);
#302=ORIENTED_EDGE('',*,*,#241,.F.);
#303=ORIENTED_EDGE('',*,*,#242,.F.);
#304=ORIENTED_EDGE('',*,*,#243,.F.);
#305=ORIENTED_EDGE('',*,*,#244,.F.);
#306=ORIENTED_EDGE('',*,*,#245,.F.);
#307=ORIENTED_EDGE('',*,*,#246,.T.);
#308=ORIENTED_EDGE('',*,*,#247,.T.);
#309=ORIENTED_EDGE('',*,*,#248,.T.);
#310=ORIENTED_EDGE('',*,*,#249,.T.);
#311=ORIENTED_EDGE('',*,*,#228,.F.);
#312=ORIENTED_EDGE('',*,*,#250,.F.);
#313=ORIENTED_EDGE('',*,*,#251,.F.);
#314=ORIENTED_EDGE('',*,*,#231,.F.);
#315=ORIENTED_EDGE('',*,*,#252,.T.);
#316=ORIENTED_EDGE('',*,*,#253,.T.);
#317=ORIENTED_EDGE('',*,*,#232,.T.);
#318=ORIENTED_EDGE('',*,*,#251,.T.);
#319=ORIENTED_EDGE('',*,*,#254,.T.);
#320=ORIENTED_EDGE('',*,*,#255,.T.);
#321=ORIENTED_EDGE('',*,*,#240,.T.);
#322=ORIENTED_EDGE('',*,*,#256,.T.);
#323=ORIENTED_EDGE('',*,*,#256,.F.);
#324=ORIENTED_EDGE('',*,*,#239,.F.);
#325=ORIENTED_EDGE('',*,*,#257,.F.);
#326=ORIENTED_EDGE('',*,*,#258,.F.);
#327=ORIENTED_EDGE('',*,*,#259,.T.);
#328=ORIENTED_EDGE('',*,*,#257,.T.);
#329=ORIENTED_EDGE('',*,*,#238,.T.);
#330=ORIENTED_EDGE('',*,*,#260,.T.);
#331=ORIENTED_EDGE('',*,*,#260,.F.);
#332=ORIENTED_EDGE('',*,*,#237,.F.);
#333=ORIENTED_EDGE('',*,*,#261,.F.);
#334=ORIENTED_EDGE('',*,*,#262,.F.);
#335=ORIENTED_EDGE('',*,*,#234,.T.);
#336=ORIENTED_EDGE('',*,*,#263,.T.);
#337=ORIENTED_EDGE('',*,*,#264,.T.);
#338=ORIENTED_EDGE('',*,*,#265,.T.);
#339=ORIENTED_EDGE('',*,*,#253,.F.);
#340=ORIENTED_EDGE('',*,*,#266,.F.);
#341=ORIENTED_EDGE('',*,*,#263,.F.);
#342=ORIENTED_EDGE('',*,*,#233,.F.);
#343=ORIENTED_EDGE('',*,*,#236,.T.);
#344=ORIENTED_EDGE('',*,*,#267,.T.);
#345=ORIENTED_EDGE('',*,*,#268,.T.);
#346=ORIENTED_EDGE('',*,*,#261,.T.);
#347=ORIENTED_EDGE('',*,*,#265,.F.);
#348=ORIENTED_EDGE('',*,*,#269,.F.);
#349=ORIENTED_EDGE('',*,*,#267,.F.);
#350=ORIENTED_EDGE('',*,*,#235,.F.);
#351=ORIENTED_EDGE('',*,*,#270,.T.);
#352=ORIENTED_EDGE('',*,*,#271,.T.);
#353=ORIENTED_EDGE('',*,*,#244,.T.);
#354=ORIENTED_EDGE('',*,*,#272,.T.);
#355=ORIENTED_EDGE('',*,*,#272,.F.);
#356=ORIENTED_EDGE('',*,*,#243,.T.);
#357=ORIENTED_EDGE('',*,*,#273,.F.);
#358=ORIENTED_EDGE('',*,*,#274,.F.);
#359=ORIENTED_EDGE('',*,*,#275,.T.);
#360=ORIENTED_EDGE('',*,*,#273,.T.);
#361=ORIENTED_EDGE('',*,*,#242,.T.);
#362=ORIENTED_EDGE('',*,*,#276,.T.);
#363=ORIENTED_EDGE('',*,*,#246,.F.);
#364=ORIENTED_EDGE('',*,*,#277,.T.);
#365=ORIENTED_EDGE('',*,*,#278,.F.);
#366=ORIENTED_EDGE('',*,*,#277,.F.);
#367=ORIENTED_EDGE('',*,*,#247,.F.);
#368=ORIENTED_EDGE('',*,*,#279,.T.);
#369=ORIENTED_EDGE('',*,*,#280,.F.);
#370=ORIENTED_EDGE('',*,*,#279,.F.);
#371=ORIENTED_EDGE('',*,*,#248,.F.);
#372=ORIENTED_EDGE('',*,*,#281,.T.);
#373=ORIENTED_EDGE('',*,*,#282,.F.);
#374=ORIENTED_EDGE('',*,*,#281,.F.);
#375=ORIENTED_EDGE('',*,*,#249,.F.);
#376=ORIENTED_EDGE('',*,*,#283,.T.);
#377=ORIENTED_EDGE('',*,*,#284,.F.);
#378=ORIENTED_EDGE('',*,*,#283,.F.);
#379=ORIENTED_EDGE('',*,*,#255,.F.);
#380=ORIENTED_EDGE('',*,*,#285,.F.);
#381=ORIENTED_EDGE('',*,*,#276,.F.);
#382=ORIENTED_EDGE('',*,*,#241,.T.);
#383=ORIENTED_EDGE('',*,*,#230,.F.);
#384=ORIENTED_EDGE('',*,*,#245,.T.);
#385=ORIENTED_EDGE('',*,*,#271,.F.);
#386=ORIENTED_EDGE('',*,*,#286,.F.);
#387=ORIENTED_EDGE('',*,*,#227,.F.);
#388=ORIENTED_EDGE('',*,*,#286,.T.);
#389=ORIENTED_EDGE('',*,*,#270,.F.);
#390=ORIENTED_EDGE('',*,*,#274,.T.);
#391=ORIENTED_EDGE('',*,*,#275,.F.);
#392=ORIENTED_EDGE('',*,*,#285,.T.);
#393=ORIENTED_EDGE('',*,*,#254,.F.);
#394=ORIENTED_EDGE('',*,*,#258,.T.);
#395=ORIENTED_EDGE('',*,*,#259,.F.);
#396=ORIENTED_EDGE('',*,*,#262,.T.);
#397=ORIENTED_EDGE('',*,*,#268,.F.);
#398=ORIENTED_EDGE('',*,*,#269,.T.);
#399=ORIENTED_EDGE('',*,*,#264,.F.);
#400=ORIENTED_EDGE('',*,*,#266,.T.);
#401=ORIENTED_EDGE('',*,*,#252,.F.);
#402=ORIENTED_EDGE('',*,*,#250,.T.);
#403=ORIENTED_EDGE('',*,*,#278,.T.);
#404=ORIENTED_EDGE('',*,*,#280,.T.);
#405=ORIENTED_EDGE('',*,*,#282,.T.);
#406=ORIENTED_EDGE('',*,*,#284,.T.);
#407=PLANE('',#457);
#408=PLANE('',#458);
#409=PLANE('',#467);
#410=PLANE('',#468);
#411=PLANE('',#469);
#412=PLANE('',#470);
#413=PLANE('',#471);
#414=PLANE('',#472);
#415=PLANE('',#475);
#416=PLANE('',#478);
#417=PLANE('',#481);
#418=PLANE('',#492);
#419=PLANE('',#493);
#420=PLANE('',#494);
#421=ADVANCED_FACE('',(#47),#407,.T.);
#422=ADVANCED_FACE('',(#48,#23,#24,#25,#26),#408,.F.);
#423=ADVANCED_FACE('',(#49),#409,.T.);
#424=ADVANCED_FACE('',(#50),#410,.T.);
#425=ADVANCED_FACE('',(#51),#411,.T.);
#426=ADVANCED_FACE('',(#52),#412,.T.);
#427=ADVANCED_FACE('',(#53),#413,.T.);
#428=ADVANCED_FACE('',(#54),#414,.T.);
#429=ADVANCED_FACE('',(#55),#15,.F.);
#430=ADVANCED_FACE('',(#56),#415,.T.);
#431=ADVANCED_FACE('',(#57),#16,.F.);
#432=ADVANCED_FACE('',(#58),#416,.T.);
#433=ADVANCED_FACE('',(#59),#17,.T.);
#434=ADVANCED_FACE('',(#60),#417,.T.);
#435=ADVANCED_FACE('',(#61),#18,.T.);
#436=ADVANCED_FACE('',(#62),#19,.F.);
#437=ADVANCED_FACE('',(#63),#20,.F.);
#438=ADVANCED_FACE('',(#64),#21,.F.);
#439=ADVANCED_FACE('',(#65),#22,.F.);
#440=ADVANCED_FACE('',(#66),#418,.T.);
#441=ADVANCED_FACE('',(#67),#419,.T.);
#442=ADVANCED_FACE('',(#68,#27,#28,#29,#30),#420,.T.);
#443=CLOSED_SHELL('',(#421,#422,#423,#424,#425,#426,#427,#428,#429,#430,
#431,#432,#433,#434,#435,#436,#437,#438,#439,#440,#441,#442));
#444=DERIVED_UNIT_ELEMENT(#446,1.);
#445=DERIVED_UNIT_ELEMENT(#745,-3.);
#446=(
MASS_UNIT()
NAMED_UNIT(*)
SI_UNIT(.KILO.,.GRAM.)
);
#447=DERIVED_UNIT((#444,#445));
#448=MEASURE_REPRESENTATION_ITEM('density measure',
POSITIVE_RATIO_MEASURE(8940.),#447);
#449=PROPERTY_DEFINITION_REPRESENTATION(#454,#451);
#450=PROPERTY_DEFINITION_REPRESENTATION(#455,#452);
#451=REPRESENTATION('material name',(#453),#742);
#452=REPRESENTATION('density',(#448),#742);
#453=DESCRIPTIVE_REPRESENTATION_ITEM('Copper','Copper');
#454=PROPERTY_DEFINITION('material property','material name',#752);
#455=PROPERTY_DEFINITION('material property','density of part',#752);
#456=AXIS2_PLACEMENT_3D('',#617,#495,#496);
#457=AXIS2_PLACEMENT_3D('',#618,#497,#498);
#458=AXIS2_PLACEMENT_3D('',#627,#503,#504);
#459=AXIS2_PLACEMENT_3D('',#635,#508,#509);
#460=AXIS2_PLACEMENT_3D('',#639,#511,#512);
#461=AXIS2_PLACEMENT_3D('',#651,#518,#519);
#462=AXIS2_PLACEMENT_3D('',#655,#521,#522);
#463=AXIS2_PLACEMENT_3D('',#658,#524,#525);
#464=AXIS2_PLACEMENT_3D('',#660,#526,#527);
#465=AXIS2_PLACEMENT_3D('',#662,#528,#529);
#466=AXIS2_PLACEMENT_3D('',#664,#530,#531);
#467=AXIS2_PLACEMENT_3D('',#665,#532,#533);
#468=AXIS2_PLACEMENT_3D('',#669,#536,#537);
#469=AXIS2_PLACEMENT_3D('',#673,#540,#541);
#470=AXIS2_PLACEMENT_3D('',#679,#545,#546);
#471=AXIS2_PLACEMENT_3D('',#683,#549,#550);
#472=AXIS2_PLACEMENT_3D('',#687,#553,#554);
#473=AXIS2_PLACEMENT_3D('',#691,#557,#558);
#474=AXIS2_PLACEMENT_3D('',#695,#560,#561);
#475=AXIS2_PLACEMENT_3D('',#697,#563,#564);
#476=AXIS2_PLACEMENT_3D('',#699,#566,#567);
#477=AXIS2_PLACEMENT_3D('',#702,#569,#570);
#478=AXIS2_PLACEMENT_3D('',#703,#571,#572);
#479=AXIS2_PLACEMENT_3D('',#705,#574,#575);
#480=AXIS2_PLACEMENT_3D('',#708,#576,#577);
#481=AXIS2_PLACEMENT_3D('',#711,#580,#581);
#482=AXIS2_PLACEMENT_3D('',#715,#584,#585);
#483=AXIS2_PLACEMENT_3D('',#717,#586,#587);
#484=AXIS2_PLACEMENT_3D('',#719,#589,#590);
#485=AXIS2_PLACEMENT_3D('',#722,#592,#593);
#486=AXIS2_PLACEMENT_3D('',#723,#594,#595);
#487=AXIS2_PLACEMENT_3D('',#726,#597,#598);
#488=AXIS2_PLACEMENT_3D('',#727,#599,#600);
#489=AXIS2_PLACEMENT_3D('',#730,#602,#603);
#490=AXIS2_PLACEMENT_3D('',#731,#604,#605);
#491=AXIS2_PLACEMENT_3D('',#734,#607,#608);
#492=AXIS2_PLACEMENT_3D('',#735,#609,#610);
#493=AXIS2_PLACEMENT_3D('',#737,#612,#613);
#494=AXIS2_PLACEMENT_3D('',#739,#615,#616);
#495=DIRECTION('axis',(0.,0.,1.));
#496=DIRECTION('refdir',(1.,0.,0.));
#497=DIRECTION('center_axis',(0.707106781186547,0.,-0.707106781186548));
#498=DIRECTION('ref_axis',(-0.707106781186548,0.,-0.707106781186547));
#499=DIRECTION('',(0.707106781186548,0.,0.707106781186547));
#500=DIRECTION('',(0.,-1.,0.));
#501=DIRECTION('',(-0.707106781186548,0.,-0.707106781186547));
#502=DIRECTION('',(0.,1.,0.));
#503=DIRECTION('center_axis',(0.,1.,0.));
#504=DIRECTION('ref_axis',(1.,0.,0.));
#505=DIRECTION('',(0.,0.,1.));
#506=DIRECTION('',(0.707106781186549,0.,-0.707106781186546));
#507=DIRECTION('',(-1.,0.,0.));
#508=DIRECTION('center_axis',(0.,-1.,0.));
#509=DIRECTION('ref_axis',(-0.38268343236509,0.,-0.923879532511287));
#510=DIRECTION('',(-0.707106781186548,0.,0.707106781186547));
#511=DIRECTION('center_axis',(0.,-1.,0.));
#512=DIRECTION('ref_axis',(-0.923879532511287,0.,-0.382683432365089));
#513=DIRECTION('',(1.77635683940025E-15,0.,1.));
#514=DIRECTION('',(0.707106781186546,0.,-0.707106781186549));
#515=DIRECTION('',(-1.,0.,1.79750394463121E-15));
#516=DIRECTION('',(0.707106781186544,0.,0.707106781186551));
#517=DIRECTION('',(1.41768752836175E-15,0.,1.));
#518=DIRECTION('center_axis',(0.,1.,0.));
#519=DIRECTION('ref_axis',(-0.923879532511287,0.,-0.38268343236509));
#520=DIRECTION('',(-0.707106781186548,0.,0.707106781186547));
#521=DIRECTION('center_axis',(0.,1.,0.));
#522=DIRECTION('ref_axis',(-0.38268343236509,0.,-0.923879532511287));
#523=DIRECTION('',(-1.,0.,0.));
#524=DIRECTION('center_axis',(0.,1.,0.));
#525=DIRECTION('ref_axis',(0.,0.,-1.));
#526=DIRECTION('center_axis',(0.,1.,0.));
#527=DIRECTION('ref_axis',(0.,0.,-1.));
#528=DIRECTION('center_axis',(0.,1.,0.));
#529=DIRECTION('ref_axis',(0.,0.,-1.));
#530=DIRECTION('center_axis',(0.,1.,0.));
#531=DIRECTION('ref_axis',(0.,0.,-1.));
#532=DIRECTION('center_axis',(1.,0.,0.));
#533=DIRECTION('ref_axis',(0.,0.,-1.));
#534=DIRECTION('',(0.,0.,-1.));
#535=DIRECTION('',(0.,1.,0.));
#536=DIRECTION('center_axis',(0.707106781186546,0.,0.707106781186549));
#537=DIRECTION('ref_axis',(0.707106781186549,0.,-0.707106781186546));
#538=DIRECTION('',(-0.707106781186549,0.,0.707106781186546));
#539=DIRECTION('',(0.,-1.,0.));
#540=DIRECTION('center_axis',(-0.707106781186551,0.,0.707106781186544));
#541=DIRECTION('ref_axis',(0.707106781186544,0.,0.707106781186551));
#542=DIRECTION('',(-0.707106781186544,0.,-0.707106781186551));
#543=DIRECTION('',(0.,-1.,0.));
#544=DIRECTION('',(0.,1.,0.));
#545=DIRECTION('center_axis',(1.79750394463121E-15,0.,1.));
#546=DIRECTION('ref_axis',(1.,0.,-1.79750394463121E-15));
#547=DIRECTION('',(0.,-1.,0.));
#548=DIRECTION('',(1.,0.,-1.79750394463121E-15));
#549=DIRECTION('center_axis',(0.707106781186549,0.,0.707106781186546));
#550=DIRECTION('ref_axis',(0.707106781186546,0.,-0.707106781186549));
#551=DIRECTION('',(-0.707106781186546,0.,0.707106781186549));
#552=DIRECTION('',(0.,1.,0.));
#553=DIRECTION('center_axis',(1.,0.,-1.77635683940025E-15));
#554=DIRECTION('ref_axis',(-1.77635683940025E-15,0.,-1.));
#555=DIRECTION('',(0.,-1.,0.));
#556=DIRECTION('',(-1.77635683940025E-15,0.,-1.));
#557=DIRECTION('center_axis',(0.,1.,0.));
#558=DIRECTION('ref_axis',(-0.38268343236509,0.,-0.923879532511287));
#559=DIRECTION('',(0.,1.,0.));
#560=DIRECTION('center_axis',(0.,1.,0.));
#561=DIRECTION('ref_axis',(-0.38268343236509,0.,-0.923879532511287));
#562=DIRECTION('',(0.,-1.,0.));
#563=DIRECTION('center_axis',(0.,0.,1.));
#564=DIRECTION('ref_axis',(1.,0.,0.));
#565=DIRECTION('',(1.,0.,0.));
#566=DIRECTION('center_axis',(0.,1.,0.));
#567=DIRECTION('ref_axis',(-0.923879532511287,0.,-0.382683432365089));
#568=DIRECTION('',(0.,1.,0.));
#569=DIRECTION('center_axis',(0.,1.,0.));
#570=DIRECTION('ref_axis',(-0.923879532511287,0.,-0.382683432365089));
#571=DIRECTION('center_axis',(0.707106781186547,0.,0.707106781186548));
#572=DIRECTION('ref_axis',(0.707106781186548,0.,-0.707106781186547));
#573=DIRECTION('',(0.707106781186548,0.,-0.707106781186547));
#574=DIRECTION('center_axis',(0.,1.,0.));
#575=DIRECTION('ref_axis',(-0.38268343236509,0.,-0.923879532511287));
#576=DIRECTION('center_axis',(0.,-1.,0.));
#577=DIRECTION('ref_axis',(-0.38268343236509,0.,-0.923879532511287));
#578=DIRECTION('',(0.,-1.,0.));
#579=DIRECTION('',(0.,1.,0.));
#580=DIRECTION('center_axis',(-0.707106781186547,0.,-0.707106781186548));
#581=DIRECTION('ref_axis',(-0.707106781186548,0.,0.707106781186547));
#582=DIRECTION('',(0.,-1.,0.));
#583=DIRECTION('',(-0.707106781186548,0.,0.707106781186547));
#584=DIRECTION('center_axis',(0.,1.,0.));
#585=DIRECTION('ref_axis',(-0.923879532511287,0.,-0.38268343236509));
#586=DIRECTION('center_axis',(0.,-1.,0.));
#587=DIRECTION('ref_axis',(-0.923879532511287,0.,-0.38268343236509));
#588=DIRECTION('',(0.,1.,0.));
#589=DIRECTION('center_axis',(0.,1.,0.));
#590=DIRECTION('ref_axis',(0.,0.,-1.));
#591=DIRECTION('',(0.,1.,0.));
#592=DIRECTION('center_axis',(0.,-1.,0.));
#593=DIRECTION('ref_axis',(0.,0.,-1.));
#594=DIRECTION('center_axis',(0.,1.,0.));
#595=DIRECTION('ref_axis',(0.,0.,-1.));
#596=DIRECTION('',(0.,1.,0.));
#597=DIRECTION('center_axis',(0.,-1.,0.));
#598=DIRECTION('ref_axis',(0.,0.,-1.));
#599=DIRECTION('center_axis',(0.,1.,0.));
#600=DIRECTION('ref_axis',(0.,0.,-1.));
#601=DIRECTION('',(0.,1.,0.));
#602=DIRECTION('center_axis',(0.,-1.,0.));
#603=DIRECTION('ref_axis',(0.,0.,-1.));
#604=DIRECTION('center_axis',(0.,1.,0.));
#605=DIRECTION('ref_axis',(0.,0.,-1.));
#606=DIRECTION('',(0.,1.,0.));
#607=DIRECTION('center_axis',(0.,-1.,0.));
#608=DIRECTION('ref_axis',(0.,0.,-1.));
#609=DIRECTION('center_axis',(-1.,0.,1.41768752836175E-15));
#610=DIRECTION('ref_axis',(1.41768752836175E-15,0.,1.));
#611=DIRECTION('',(1.41768752836175E-15,0.,1.));
#612=DIRECTION('center_axis',(0.,0.,-1.));
#613=DIRECTION('ref_axis',(-1.,0.,0.));
#614=DIRECTION('',(-1.,0.,0.));
#615=DIRECTION('center_axis',(0.,1.,0.));
#616=DIRECTION('ref_axis',(0.,0.,1.));
#617=CARTESIAN_POINT('',(0.,0.,0.));
#618=CARTESIAN_POINT('Origin',(-6.49999999999999,0.,-60.));
#619=CARTESIAN_POINT('',(-6.99999999999999,2.5,-60.5));
#620=CARTESIAN_POINT('',(-5.99999999999999,2.5,-59.5));
#621=CARTESIAN_POINT('',(-4.37500000000001,2.5,-57.875));
#622=CARTESIAN_POINT('',(-5.99999999999999,0.,-59.5));
#623=CARTESIAN_POINT('',(-5.99999999999999,0.,-59.5));
#624=CARTESIAN_POINT('',(-6.99999999999999,0.,-60.5));
#625=CARTESIAN_POINT('',(-4.37500000000001,0.,-57.875));
#626=CARTESIAN_POINT('',(-6.99999999999999,0.,-60.5));
#627=CARTESIAN_POINT('Origin',(-30.25,0.,-27.75));
#628=CARTESIAN_POINT('',(-5.99999999999999,0.,-51.));
#629=CARTESIAN_POINT('',(-5.99999999999999,0.,-60.5));
#630=CARTESIAN_POINT('',(-6.99999999999999,0.,-50.));
#631=CARTESIAN_POINT('',(-18.125,0.,-38.875));
#632=CARTESIAN_POINT('',(-18.6396103067893,0.,-50.));
#633=CARTESIAN_POINT('',(20.7106781186547,0.,-50.));
#634=CARTESIAN_POINT('',(-22.175144212722,0.,-48.5355339059327));
#635=CARTESIAN_POINT('Origin',(-18.6396103067893,0.,-45.));
#636=CARTESIAN_POINT('',(-48.5355339059328,0.,-22.175144212722));
#637=CARTESIAN_POINT('',(-20.7106781186547,0.,-50.));
#638=CARTESIAN_POINT('',(-50.,0.,-18.6396103067892));
#639=CARTESIAN_POINT('Origin',(-45.,0.,-18.6396103067892));
#640=CARTESIAN_POINT('',(-50.,0.,4.));
#641=CARTESIAN_POINT('',(-50.,0.,-4.44089209850063E-15));
#642=CARTESIAN_POINT('',(-51.,0.,5.));
#643=CARTESIAN_POINT('',(-37.375,0.,-8.62500000000003));
#644=CARTESIAN_POINT('',(-59.5,0.,5.00000000000002));
#645=CARTESIAN_POINT('',(-50.,0.,5.));
#646=CARTESIAN_POINT('',(-60.5,0.,4.00000000000002));
#647=CARTESIAN_POINT('',(-60.6250000000001,0.,3.87499999999993));
#648=CARTESIAN_POINT('',(-60.5,0.,-20.9177848998412));
#649=CARTESIAN_POINT('',(-60.5,0.,-25.0599205235722));
#650=CARTESIAN_POINT('',(-57.5710678118655,0.,-27.9888527117067));
#651=CARTESIAN_POINT('Origin',(-50.5,0.,-20.9177848998413));
#652=CARTESIAN_POINT('',(-27.9888527117068,0.,-57.5710678118654));
#653=CARTESIAN_POINT('',(-25.0599205235722,0.,-60.5));
#654=CARTESIAN_POINT('',(-20.9177848998413,0.,-60.5));
#655=CARTESIAN_POINT('Origin',(-20.9177848998413,0.,-50.5));
#656=CARTESIAN_POINT('',(25.0599205235722,0.,-60.5));
#657=CARTESIAN_POINT('',(-22.6240952804802,2.77555756156289E-16,-52.5023976625564));
#658=CARTESIAN_POINT('Origin',(-22.6240952804802,0.,-54.6193976625564));
#659=CARTESIAN_POINT('',(-54.6193976625565,2.77555756156289E-16,-20.5070952804802));
#660=CARTESIAN_POINT('Origin',(-54.6193976625565,0.,-22.6240952804802));
#661=CARTESIAN_POINT('',(-38.8908729652601,2.77555756156289E-16,-36.7738729652601));
#662=CARTESIAN_POINT('Origin',(-38.8908729652601,0.,-38.8908729652601));
#663=CARTESIAN_POINT('',(-55.,2.77555756156289E-16,2.117));
#664=CARTESIAN_POINT('Origin',(-55.,0.,0.));
#665=CARTESIAN_POINT('Origin',(-5.99999999999999,0.,-50.));
#666=CARTESIAN_POINT('',(-5.99999999999999,2.5,-51.));
#667=CARTESIAN_POINT('',(-5.99999999999999,2.5,-60.5));
#668=CARTESIAN_POINT('',(-5.99999999999999,0.,-51.));
#669=CARTESIAN_POINT('Origin',(-6.49999999999999,0.,-50.5));
#670=CARTESIAN_POINT('',(-6.99999999999999,2.5,-50.));
#671=CARTESIAN_POINT('',(-18.125,2.5,-38.875));
#672=CARTESIAN_POINT('',(-6.99999999999999,0.,-50.));
#673=CARTESIAN_POINT('Origin',(-60.,0.,4.50000000000002));
#674=CARTESIAN_POINT('',(-59.5,2.5,5.00000000000002));
#675=CARTESIAN_POINT('',(-60.5,2.5,4.00000000000002));
#676=CARTESIAN_POINT('',(-60.6250000000001,2.5,3.87499999999993));
#677=CARTESIAN_POINT('',(-60.5,0.,4.00000000000002));
#678=CARTESIAN_POINT('',(-59.5,0.,5.00000000000002));
#679=CARTESIAN_POINT('Origin',(-60.5,0.,5.00000000000002));
#680=CARTESIAN_POINT('',(-51.,2.5,5.));
#681=CARTESIAN_POINT('',(-51.,0.,5.));
#682=CARTESIAN_POINT('',(-50.,2.5,5.));
#683=CARTESIAN_POINT('Origin',(-50.5,0.,4.5));
#684=CARTESIAN_POINT('',(-50.,2.5,4.));
#685=CARTESIAN_POINT('',(-37.375,2.5,-8.62500000000003));
#686=CARTESIAN_POINT('',(-50.,0.,4.));
#687=CARTESIAN_POINT('Origin',(-50.,0.,5.));
#688=CARTESIAN_POINT('',(-50.,2.5,-18.6396103067892));
#689=CARTESIAN_POINT('',(-50.,0.,-18.6396103067892));
#690=CARTESIAN_POINT('',(-50.,2.5,-4.44089209850063E-15));
#691=CARTESIAN_POINT('Origin',(-18.6396103067893,0.,-45.));
#692=CARTESIAN_POINT('',(-18.6396103067893,2.5,-50.));
#693=CARTESIAN_POINT('',(-18.6396103067893,0.,-50.));
#694=CARTESIAN_POINT('',(-22.175144212722,2.5,-48.5355339059327));
#695=CARTESIAN_POINT('Origin',(-18.6396103067893,2.5,-45.));
#696=CARTESIAN_POINT('',(-22.175144212722,0.,-48.5355339059327));
#697=CARTESIAN_POINT('Origin',(-20.7106781186547,0.,-50.));
#698=CARTESIAN_POINT('',(20.7106781186547,2.5,-50.));
#699=CARTESIAN_POINT('Origin',(-45.,0.,-18.6396103067892));
#700=CARTESIAN_POINT('',(-48.5355339059328,2.5,-22.175144212722));
#701=CARTESIAN_POINT('',(-48.5355339059328,0.,-22.175144212722));
#702=CARTESIAN_POINT('Origin',(-45.,2.5,-18.6396103067892));
#703=CARTESIAN_POINT('Origin',(-50.,0.,-20.7106781186547));
#704=CARTESIAN_POINT('',(-20.7106781186547,2.5,-50.));
#705=CARTESIAN_POINT('Origin',(-20.9177848998413,0.,-50.5));
#706=CARTESIAN_POINT('',(-27.9888527117068,2.5,-57.5710678118654));
#707=CARTESIAN_POINT('',(-20.9177848998413,2.5,-60.5));
#708=CARTESIAN_POINT('Origin',(-20.9177848998413,2.5,-50.5));
#709=CARTESIAN_POINT('',(-20.9177848998413,0.,-60.5));
#710=CARTESIAN_POINT('',(-27.9888527117068,0.,-57.5710678118654));
#711=CARTESIAN_POINT('Origin',(-25.0599205235722,0.,-60.5));
#712=CARTESIAN_POINT('',(-57.5710678118655,2.5,-27.9888527117067));
#713=CARTESIAN_POINT('',(-57.5710678118655,0.,-27.9888527117067));
#714=CARTESIAN_POINT('',(-25.0599205235722,2.5,-60.5));
#715=CARTESIAN_POINT('Origin',(-50.5,0.,-20.9177848998413));
#716=CARTESIAN_POINT('',(-60.5,2.5,-20.9177848998412));
#717=CARTESIAN_POINT('Origin',(-50.5,2.5,-20.9177848998413));
#718=CARTESIAN_POINT('',(-60.5,0.,-20.9177848998412));
#719=CARTESIAN_POINT('Origin',(-22.6240952804802,2.5,-54.6193976625564));
#720=CARTESIAN_POINT('',(-22.6240952804802,2.5,-52.5023976625564));
#721=CARTESIAN_POINT('',(-22.6240952804802,2.5,-52.5023976625564));
#722=CARTESIAN_POINT('Origin',(-22.6240952804802,2.5,-54.6193976625564));
#723=CARTESIAN_POINT('Origin',(-54.6193976625565,2.5,-22.6240952804802));
#724=CARTESIAN_POINT('',(-54.6193976625565,2.5,-20.5070952804802));
#725=CARTESIAN_POINT('',(-54.6193976625565,2.5,-20.5070952804802));
#726=CARTESIAN_POINT('Origin',(-54.6193976625565,2.5,-22.6240952804802));
#727=CARTESIAN_POINT('Origin',(-38.8908729652601,2.5,-38.8908729652601));
#728=CARTESIAN_POINT('',(-38.8908729652601,2.5,-36.7738729652601));
#729=CARTESIAN_POINT('',(-38.8908729652601,2.5,-36.7738729652601));
#730=CARTESIAN_POINT('Origin',(-38.8908729652601,2.5,-38.8908729652601));
#731=CARTESIAN_POINT('Origin',(-55.,2.5,0.));
#732=CARTESIAN_POINT('',(-55.,2.5,2.117));
#733=CARTESIAN_POINT('',(-55.,2.5,2.117));
#734=CARTESIAN_POINT('Origin',(-55.,2.5,0.));
#735=CARTESIAN_POINT('Origin',(-60.5,0.,-25.0599205235722));
#736=CARTESIAN_POINT('',(-60.5,2.5,-25.0599205235722));
#737=CARTESIAN_POINT('Origin',(-5.99999999999999,0.,-60.5));
#738=CARTESIAN_POINT('',(25.0599205235722,2.5,-60.5));
#739=CARTESIAN_POINT('Origin',(-30.25,2.5,-27.75));
#740=UNCERTAINTY_MEASURE_WITH_UNIT(LENGTH_MEASURE(0.01),#744,
'DISTANCE_ACCURACY_VALUE',
'Maximum model space distance between geometric entities at asserted c
onnectivities');
#741=UNCERTAINTY_MEASURE_WITH_UNIT(LENGTH_MEASURE(0.01),#744,
'DISTANCE_ACCURACY_VALUE',
'Maximum model space distance between geometric entities at asserted c
onnectivities');
#742=(
GEOMETRIC_REPRESENTATION_CONTEXT(3)
GLOBAL_UNCERTAINTY_ASSIGNED_CONTEXT((#740))
GLOBAL_UNIT_ASSIGNED_CONTEXT((#744,#746,#747))
REPRESENTATION_CONTEXT('','3D')
);
#743=(
GEOMETRIC_REPRESENTATION_CONTEXT(3)
GLOBAL_UNCERTAINTY_ASSIGNED_CONTEXT((#741))
GLOBAL_UNIT_ASSIGNED_CONTEXT((#744,#746,#747))
REPRESENTATION_CONTEXT('','3D')
);
#744=(
LENGTH_UNIT()
NAMED_UNIT(*)
SI_UNIT(.MILLI.,.METRE.)
);
#745=(
LENGTH_UNIT()
NAMED_UNIT(*)
SI_UNIT($,.METRE.)
);
#746=(
NAMED_UNIT(*)
PLANE_ANGLE_UNIT()
SI_UNIT($,.RADIAN.)
);
#747=(
NAMED_UNIT(*)
SI_UNIT($,.STERADIAN.)
SOLID_ANGLE_UNIT()
);
#748=SHAPE_DEFINITION_REPRESENTATION(#749,#750);
#749=PRODUCT_DEFINITION_SHAPE('',$,#752);
#750=SHAPE_REPRESENTATION('',(#456),#742);
#751=PRODUCT_DEFINITION_CONTEXT('part definition',#756,'design');
#752=PRODUCT_DEFINITION('stage 2 shield 2 clamps',
'stage 2 shield 2 clamps v5',#753,#751);
#753=PRODUCT_DEFINITION_FORMATION('',$,#758);
#754=PRODUCT_RELATED_PRODUCT_CATEGORY('stage 2 shield 2 clamps v5',
'stage 2 shield 2 clamps v5',(#758));
#755=APPLICATION_PROTOCOL_DEFINITION('international standard',
'automotive_design',2009,#756);
#756=APPLICATION_CONTEXT(
'Core Data for Automotive Mechanical Design Process');
#757=PRODUCT_CONTEXT('part definition',#756,'mechanical');
#758=PRODUCT('stage 2 shield 2 clamps','stage 2 shield 2 clamps v5',$,(#757));
#759=PRESENTATION_STYLE_ASSIGNMENT((#760));
#760=SURFACE_STYLE_USAGE(.BOTH.,#761);
#761=SURFACE_SIDE_STYLE('',(#762));
#762=SURFACE_STYLE_FILL_AREA(#763);
#763=FILL_AREA_STYLE('Copper - Polished',(#764));
#764=FILL_AREA_STYLE_COLOUR('Copper - Polished',#765);
#765=COLOUR_RGB('Copper - Polished',0.929411764705882,0.807843137254902,
0.764705882352941);
ENDSEC;
END-ISO-10303-21;
