ISO-10303-21;
HEADER;
/* Generated by software containing ST-Developer
 * from STEP Tools, Inc. (www.steptools.com) 
 */

FILE_DESCRIPTION(
/* description */ (''),
/* implementation_level */ '2;1');

FILE_NAME(
/* name */ 'thermal conductor v6.step',
/* time_stamp */ '2024-06-14T15:49:06+02:00',
/* author */ (''),
/* organization */ (''),
/* preprocessor_version */ 'ST-DEVELOPER v20',
/* originating_system */ 'Autodesk Translation Framework v13.14.0.145',

/* authorisation */ '');

FILE_SCHEMA (('AUTOMOTIVE_DESIGN { 1 0 10303 214 3 1 1 }'));
ENDSEC;

DATA;
#10=MECHANICAL_DESIGN_GEOMETRIC_PRESENTATION_REPRESENTATION('',(#13),#626);
#11=SHAPE_REPRESENTATION_RELATIONSHIP('SRR','None',#633,#12);
#12=ADVANCED_BREP_SHAPE_REPRESENTATION('',(#14),#625);
#13=STYLED_ITEM('',(#642),#14);
#14=MANIFOLD_SOLID_BREP('Body1',#352);
#15=PLANE('',#385);
#16=PLANE('',#389);
#17=PLANE('',#397);
#18=PLANE('',#398);
#19=PLANE('',#399);
#20=PLANE('',#400);
#21=PLANE('',#401);
#22=PLANE('',#402);
#23=PLANE('',#403);
#24=PLANE('',#404);
#25=PLANE('',#405);
#26=PLANE('',#406);
#27=PLANE('',#407);
#28=PLANE('',#408);
#29=FACE_BOUND('',#59,.T.);
#30=FACE_BOUND('',#60,.T.);
#31=FACE_BOUND('',#62,.T.);
#32=FACE_BOUND('',#65,.T.);
#33=CYLINDRICAL_SURFACE('',#370,7.50000000000001);
#34=CYLINDRICAL_SURFACE('',#393,0.75);
#35=CYLINDRICAL_SURFACE('',#396,0.75);
#36=FACE_OUTER_BOUND('',#57,.T.);
#37=FACE_OUTER_BOUND('',#58,.T.);
#38=FACE_OUTER_BOUND('',#61,.T.);
#39=FACE_OUTER_BOUND('',#63,.T.);
#40=FACE_OUTER_BOUND('',#64,.T.);
#41=FACE_OUTER_BOUND('',#66,.T.);
#42=FACE_OUTER_BOUND('',#67,.T.);
#43=FACE_OUTER_BOUND('',#68,.T.);
#44=FACE_OUTER_BOUND('',#69,.T.);
#45=FACE_OUTER_BOUND('',#70,.T.);
#46=FACE_OUTER_BOUND('',#71,.T.);
#47=FACE_OUTER_BOUND('',#72,.T.);
#48=FACE_OUTER_BOUND('',#73,.T.);
#49=FACE_OUTER_BOUND('',#74,.T.);
#50=FACE_OUTER_BOUND('',#75,.T.);
#51=FACE_OUTER_BOUND('',#76,.T.);
#52=FACE_OUTER_BOUND('',#77,.T.);
#53=FACE_OUTER_BOUND('',#78,.T.);
#54=FACE_OUTER_BOUND('',#79,.T.);
#55=FACE_OUTER_BOUND('',#80,.T.);
#56=FACE_OUTER_BOUND('',#81,.T.);
#57=EDGE_LOOP('',(#233,#234,#235,#236,#237));
#58=EDGE_LOOP('',(#238,#239,#240,#241,#242,#243,#244,#245,#246,#247,#248,
#249,#250,#251,#252,#253,#254,#255,#256,#257,#258,#259));
#59=EDGE_LOOP('',(#260,#261,#262,#263));
#60=EDGE_LOOP('',(#264,#265,#266,#267));
#61=EDGE_LOOP('',(#268));
#62=EDGE_LOOP('',(#269));
#63=EDGE_LOOP('',(#270,#271,#272,#273,#274));
#64=EDGE_LOOP('',(#275));
#65=EDGE_LOOP('',(#276));
#66=EDGE_LOOP('',(#277,#278,#279));
#67=EDGE_LOOP('',(#280,#281,#282,#283));
#68=EDGE_LOOP('',(#284,#285,#286));
#69=EDGE_LOOP('',(#287,#288,#289,#290));
#70=EDGE_LOOP('',(#291,#292));
#71=EDGE_LOOP('',(#293,#294,#295,#296));
#72=EDGE_LOOP('',(#297,#298));
#73=EDGE_LOOP('',(#299,#300,#301));
#74=EDGE_LOOP('',(#302,#303,#304,#305));
#75=EDGE_LOOP('',(#306,#307,#308));
#76=EDGE_LOOP('',(#309,#310,#311));
#77=EDGE_LOOP('',(#312,#313,#314,#315));
#78=EDGE_LOOP('',(#316,#317,#318));
#79=EDGE_LOOP('',(#319,#320));
#80=EDGE_LOOP('',(#321,#322,#323,#324));
#81=EDGE_LOOP('',(#325,#326));
#82=LINE('',#529,#107);
#83=LINE('',#537,#108);
#84=LINE('',#541,#109);
#85=LINE('',#545,#110);
#86=LINE('',#549,#111);
#87=LINE('',#552,#112);
#88=LINE('',#556,#113);
#89=LINE('',#561,#114);
#90=LINE('',#567,#115);
#91=LINE('',#570,#116);
#92=LINE('',#575,#117);
#93=LINE('',#578,#118);
#94=LINE('',#585,#119);
#95=LINE('',#593,#120);
#96=LINE('',#595,#121);
#97=LINE('',#600,#122);
#98=LINE('',#602,#123);
#99=LINE('',#604,#124);
#100=LINE('',#606,#125);
#101=LINE('',#609,#126);
#102=LINE('',#611,#127);
#103=LINE('',#614,#128);
#104=LINE('',#616,#129);
#105=LINE('',#619,#130);
#106=LINE('',#621,#131);
#107=VECTOR('',#417,7.25000000000003);
#108=VECTOR('',#426,7.50000000000001);
#109=VECTOR('',#429,10.);
#110=VECTOR('',#432,7.50000000000001);
#111=VECTOR('',#435,10.);
#112=VECTOR('',#438,7.50000000000001);
#113=VECTOR('',#441,10.);
#114=VECTOR('',#446,10.);
#115=VECTOR('',#451,10.);
#116=VECTOR('',#454,10.);
#117=VECTOR('',#457,10.);
#118=VECTOR('',#460,10.);
#119=VECTOR('',#469,7.25);
#120=VECTOR('',#478,0.375);
#121=VECTOR('',#481,0.75);
#122=VECTOR('',#486,0.375);
#123=VECTOR('',#489,0.75);
#124=VECTOR('',#492,10.);
#125=VECTOR('',#495,10.);
#126=VECTOR('',#500,10.);
#127=VECTOR('',#503,10.);
#128=VECTOR('',#508,10.);
#129=VECTOR('',#511,10.);
#130=VECTOR('',#516,10.);
#131=VECTOR('',#519,10.);
#132=CIRCLE('',#367,7.50000000000001);
#133=CIRCLE('',#368,7.50000000000001);
#134=CIRCLE('',#369,7.00000000000004);
#135=CIRCLE('',#371,7.50000000000001);
#136=CIRCLE('',#372,7.50000000000001);
#137=CIRCLE('',#373,7.50000000000001);
#138=CIRCLE('',#374,7.50000000000001);
#139=CIRCLE('',#375,7.50000000000001);
#140=CIRCLE('',#376,7.50000000000001);
#141=CIRCLE('',#377,7.50000000000001);
#142=CIRCLE('',#378,7.50000000000001);
#143=CIRCLE('',#379,7.50000000000001);
#144=CIRCLE('',#380,7.50000000000001);
#145=CIRCLE('',#381,7.50000000000001);
#146=CIRCLE('',#382,7.50000000000001);
#147=CIRCLE('',#383,7.50000000000001);
#148=CIRCLE('',#384,7.50000000000001);
#149=CIRCLE('',#386,0.75);
#150=CIRCLE('',#388,6.99999999999998);
#151=CIRCLE('',#390,0.75);
#152=CIRCLE('',#392,0.75);
#153=CIRCLE('',#395,0.75);
#154=VERTEX_POINT('',#524);
#155=VERTEX_POINT('',#525);
#156=VERTEX_POINT('',#528);
#157=VERTEX_POINT('',#532);
#158=VERTEX_POINT('',#533);
#159=VERTEX_POINT('',#536);
#160=VERTEX_POINT('',#538);
#161=VERTEX_POINT('',#540);
#162=VERTEX_POINT('',#542);
#163=VERTEX_POINT('',#544);
#164=VERTEX_POINT('',#546);
#165=VERTEX_POINT('',#548);
#166=VERTEX_POINT('',#550);
#167=VERTEX_POINT('',#553);
#168=VERTEX_POINT('',#555);
#169=VERTEX_POINT('',#558);
#170=VERTEX_POINT('',#560);
#171=VERTEX_POINT('',#563);
#172=VERTEX_POINT('',#564);
#173=VERTEX_POINT('',#566);
#174=VERTEX_POINT('',#568);
#175=VERTEX_POINT('',#571);
#176=VERTEX_POINT('',#572);
#177=VERTEX_POINT('',#574);
#178=VERTEX_POINT('',#576);
#179=VERTEX_POINT('',#580);
#180=VERTEX_POINT('',#583);
#181=VERTEX_POINT('',#587);
#182=VERTEX_POINT('',#590);
#183=VERTEX_POINT('',#592);
#184=VERTEX_POINT('',#597);
#185=VERTEX_POINT('',#599);
#186=EDGE_CURVE('',#154,#155,#132,.T.);
#187=EDGE_CURVE('',#155,#154,#133,.T.);
#188=EDGE_CURVE('',#154,#156,#82,.T.);
#189=EDGE_CURVE('',#156,#156,#134,.T.);
#190=EDGE_CURVE('',#157,#158,#135,.T.);
#191=EDGE_CURVE('',#158,#157,#136,.T.);
#192=EDGE_CURVE('',#158,#159,#83,.T.);
#193=EDGE_CURVE('',#159,#160,#137,.T.);
#194=EDGE_CURVE('',#160,#161,#84,.T.);
#195=EDGE_CURVE('',#161,#162,#138,.T.);
#196=EDGE_CURVE('',#162,#163,#85,.T.);
#197=EDGE_CURVE('',#164,#163,#139,.T.);
#198=EDGE_CURVE('',#165,#164,#86,.T.);
#199=EDGE_CURVE('',#166,#165,#140,.T.);
#200=EDGE_CURVE('',#166,#155,#87,.T.);
#201=EDGE_CURVE('',#167,#166,#141,.T.);
#202=EDGE_CURVE('',#168,#167,#88,.T.);
#203=EDGE_CURVE('',#163,#168,#142,.T.);
#204=EDGE_CURVE('',#162,#169,#143,.T.);
#205=EDGE_CURVE('',#169,#170,#89,.T.);
#206=EDGE_CURVE('',#170,#159,#144,.T.);
#207=EDGE_CURVE('',#171,#172,#145,.T.);
#208=EDGE_CURVE('',#172,#173,#90,.T.);
#209=EDGE_CURVE('',#173,#174,#146,.T.);
#210=EDGE_CURVE('',#174,#171,#91,.T.);
#211=EDGE_CURVE('',#175,#176,#147,.T.);
#212=EDGE_CURVE('',#177,#175,#92,.T.);
#213=EDGE_CURVE('',#178,#177,#148,.T.);
#214=EDGE_CURVE('',#176,#178,#93,.T.);
#215=EDGE_CURVE('',#179,#179,#149,.T.);
#216=EDGE_CURVE('',#180,#180,#150,.T.);
#217=EDGE_CURVE('',#180,#157,#94,.T.);
#218=EDGE_CURVE('',#181,#181,#151,.T.);
#219=EDGE_CURVE('',#182,#182,#152,.T.);
#220=EDGE_CURVE('',#182,#183,#95,.T.);
#221=EDGE_CURVE('',#179,#182,#96,.T.);
#222=EDGE_CURVE('',#184,#184,#153,.T.);
#223=EDGE_CURVE('',#184,#185,#97,.T.);
#224=EDGE_CURVE('',#181,#184,#98,.T.);
#225=EDGE_CURVE('',#176,#175,#99,.T.);
#226=EDGE_CURVE('',#177,#178,#100,.T.);
#227=EDGE_CURVE('',#169,#161,#101,.T.);
#228=EDGE_CURVE('',#160,#170,#102,.T.);
#229=EDGE_CURVE('',#168,#164,#103,.T.);
#230=EDGE_CURVE('',#165,#167,#104,.T.);
#231=EDGE_CURVE('',#172,#171,#105,.T.);
#232=EDGE_CURVE('',#174,#173,#106,.T.);
#233=ORIENTED_EDGE('',*,*,#186,.T.);
#234=ORIENTED_EDGE('',*,*,#187,.T.);
#235=ORIENTED_EDGE('',*,*,#188,.T.);
#236=ORIENTED_EDGE('',*,*,#189,.T.);
#237=ORIENTED_EDGE('',*,*,#188,.F.);
#238=ORIENTED_EDGE('',*,*,#190,.F.);
#239=ORIENTED_EDGE('',*,*,#191,.F.);
#240=ORIENTED_EDGE('',*,*,#192,.T.);
#241=ORIENTED_EDGE('',*,*,#193,.T.);
#242=ORIENTED_EDGE('',*,*,#194,.T.);
#243=ORIENTED_EDGE('',*,*,#195,.T.);
#244=ORIENTED_EDGE('',*,*,#196,.T.);
#245=ORIENTED_EDGE('',*,*,#197,.F.);
#246=ORIENTED_EDGE('',*,*,#198,.F.);
#247=ORIENTED_EDGE('',*,*,#199,.F.);
#248=ORIENTED_EDGE('',*,*,#200,.T.);
#249=ORIENTED_EDGE('',*,*,#186,.F.);
#250=ORIENTED_EDGE('',*,*,#187,.F.);
#251=ORIENTED_EDGE('',*,*,#200,.F.);
#252=ORIENTED_EDGE('',*,*,#201,.F.);
#253=ORIENTED_EDGE('',*,*,#202,.F.);
#254=ORIENTED_EDGE('',*,*,#203,.F.);
#255=ORIENTED_EDGE('',*,*,#196,.F.);
#256=ORIENTED_EDGE('',*,*,#204,.T.);
#257=ORIENTED_EDGE('',*,*,#205,.T.);
#258=ORIENTED_EDGE('',*,*,#206,.T.);
#259=ORIENTED_EDGE('',*,*,#192,.F.);
#260=ORIENTED_EDGE('',*,*,#207,.T.);
#261=ORIENTED_EDGE('',*,*,#208,.T.);
#262=ORIENTED_EDGE('',*,*,#209,.T.);
#263=ORIENTED_EDGE('',*,*,#210,.T.);
#264=ORIENTED_EDGE('',*,*,#211,.F.);
#265=ORIENTED_EDGE('',*,*,#212,.F.);
#266=ORIENTED_EDGE('',*,*,#213,.F.);
#267=ORIENTED_EDGE('',*,*,#214,.F.);
#268=ORIENTED_EDGE('',*,*,#189,.F.);
#269=ORIENTED_EDGE('',*,*,#215,.F.);
#270=ORIENTED_EDGE('',*,*,#216,.T.);
#271=ORIENTED_EDGE('',*,*,#217,.T.);
#272=ORIENTED_EDGE('',*,*,#190,.T.);
#273=ORIENTED_EDGE('',*,*,#191,.T.);
#274=ORIENTED_EDGE('',*,*,#217,.F.);
#275=ORIENTED_EDGE('',*,*,#216,.F.);
#276=ORIENTED_EDGE('',*,*,#218,.T.);
#277=ORIENTED_EDGE('',*,*,#219,.T.);
#278=ORIENTED_EDGE('',*,*,#220,.T.);
#279=ORIENTED_EDGE('',*,*,#220,.F.);
#280=ORIENTED_EDGE('',*,*,#215,.T.);
#281=ORIENTED_EDGE('',*,*,#221,.T.);
#282=ORIENTED_EDGE('',*,*,#219,.F.);
#283=ORIENTED_EDGE('',*,*,#221,.F.);
#284=ORIENTED_EDGE('',*,*,#222,.F.);
#285=ORIENTED_EDGE('',*,*,#223,.T.);
#286=ORIENTED_EDGE('',*,*,#223,.F.);
#287=ORIENTED_EDGE('',*,*,#218,.F.);
#288=ORIENTED_EDGE('',*,*,#224,.T.);
#289=ORIENTED_EDGE('',*,*,#222,.T.);
#290=ORIENTED_EDGE('',*,*,#224,.F.);
#291=ORIENTED_EDGE('',*,*,#211,.T.);
#292=ORIENTED_EDGE('',*,*,#225,.T.);
#293=ORIENTED_EDGE('',*,*,#214,.T.);
#294=ORIENTED_EDGE('',*,*,#226,.F.);
#295=ORIENTED_EDGE('',*,*,#212,.T.);
#296=ORIENTED_EDGE('',*,*,#225,.F.);
#297=ORIENTED_EDGE('',*,*,#213,.T.);
#298=ORIENTED_EDGE('',*,*,#226,.T.);
#299=ORIENTED_EDGE('',*,*,#195,.F.);
#300=ORIENTED_EDGE('',*,*,#227,.F.);
#301=ORIENTED_EDGE('',*,*,#204,.F.);
#302=ORIENTED_EDGE('',*,*,#205,.F.);
#303=ORIENTED_EDGE('',*,*,#227,.T.);
#304=ORIENTED_EDGE('',*,*,#194,.F.);
#305=ORIENTED_EDGE('',*,*,#228,.T.);
#306=ORIENTED_EDGE('',*,*,#206,.F.);
#307=ORIENTED_EDGE('',*,*,#228,.F.);
#308=ORIENTED_EDGE('',*,*,#193,.F.);
#309=ORIENTED_EDGE('',*,*,#197,.T.);
#310=ORIENTED_EDGE('',*,*,#203,.T.);
#311=ORIENTED_EDGE('',*,*,#229,.T.);
#312=ORIENTED_EDGE('',*,*,#202,.T.);
#313=ORIENTED_EDGE('',*,*,#230,.F.);
#314=ORIENTED_EDGE('',*,*,#198,.T.);
#315=ORIENTED_EDGE('',*,*,#229,.F.);
#316=ORIENTED_EDGE('',*,*,#201,.T.);
#317=ORIENTED_EDGE('',*,*,#199,.T.);
#318=ORIENTED_EDGE('',*,*,#230,.T.);
#319=ORIENTED_EDGE('',*,*,#207,.F.);
#320=ORIENTED_EDGE('',*,*,#231,.F.);
#321=ORIENTED_EDGE('',*,*,#208,.F.);
#322=ORIENTED_EDGE('',*,*,#231,.T.);
#323=ORIENTED_EDGE('',*,*,#210,.F.);
#324=ORIENTED_EDGE('',*,*,#232,.T.);
#325=ORIENTED_EDGE('',*,*,#209,.F.);
#326=ORIENTED_EDGE('',*,*,#232,.F.);
#327=CONICAL_SURFACE('',#366,7.25000000000003,0.785398163397413);
#328=CONICAL_SURFACE('',#387,7.25,0.785398163397472);
#329=CONICAL_SURFACE('',#391,0.375,1.02974425867665);
#330=CONICAL_SURFACE('',#394,0.375,1.02974425867665);
#331=ADVANCED_FACE('',(#36),#327,.T.);
#332=ADVANCED_FACE('',(#37,#29,#30),#33,.T.);
#333=ADVANCED_FACE('',(#38,#31),#15,.T.);
#334=ADVANCED_FACE('',(#39),#328,.T.);
#335=ADVANCED_FACE('',(#40,#32),#16,.T.);
#336=ADVANCED_FACE('',(#41),#329,.F.);
#337=ADVANCED_FACE('',(#42),#34,.F.);
#338=ADVANCED_FACE('',(#43),#330,.F.);
#339=ADVANCED_FACE('',(#44),#35,.F.);
#340=ADVANCED_FACE('',(#45),#17,.T.);
#341=ADVANCED_FACE('',(#46),#18,.T.);
#342=ADVANCED_FACE('',(#47),#19,.T.);
#343=ADVANCED_FACE('',(#48),#20,.F.);
#344=ADVANCED_FACE('',(#49),#21,.F.);
#345=ADVANCED_FACE('',(#50),#22,.F.);
#346=ADVANCED_FACE('',(#51),#23,.T.);
#347=ADVANCED_FACE('',(#52),#24,.T.);
#348=ADVANCED_FACE('',(#53),#25,.T.);
#349=ADVANCED_FACE('',(#54),#26,.F.);
#350=ADVANCED_FACE('',(#55),#27,.F.);
#351=ADVANCED_FACE('',(#56),#28,.F.);
#352=CLOSED_SHELL('',(#331,#332,#333,#334,#335,#336,#337,#338,#339,#340,
#341,#342,#343,#344,#345,#346,#347,#348,#349,#350,#351));
#353=DERIVED_UNIT_ELEMENT(#355,1.);
#354=DERIVED_UNIT_ELEMENT(#628,-3.);
#355=(
MASS_UNIT()
NAMED_UNIT(*)
SI_UNIT(.KILO.,.GRAM.)
);
#356=DERIVED_UNIT((#353,#354));
#357=MEASURE_REPRESENTATION_ITEM('density measure',
POSITIVE_RATIO_MEASURE(8940.),#356);
#358=PROPERTY_DEFINITION_REPRESENTATION(#363,#360);
#359=PROPERTY_DEFINITION_REPRESENTATION(#364,#361);
#360=REPRESENTATION('material name',(#362),#625);
#361=REPRESENTATION('density',(#357),#625);
#362=DESCRIPTIVE_REPRESENTATION_ITEM('Copper','Copper');
#363=PROPERTY_DEFINITION('material property','material name',#635);
#364=PROPERTY_DEFINITION('material property','density of part',#635);
#365=AXIS2_PLACEMENT_3D('',#522,#409,#410);
#366=AXIS2_PLACEMENT_3D('',#523,#411,#412);
#367=AXIS2_PLACEMENT_3D('',#526,#413,#414);
#368=AXIS2_PLACEMENT_3D('',#527,#415,#416);
#369=AXIS2_PLACEMENT_3D('',#530,#418,#419);
#370=AXIS2_PLACEMENT_3D('',#531,#420,#421);
#371=AXIS2_PLACEMENT_3D('',#534,#422,#423);
#372=AXIS2_PLACEMENT_3D('',#535,#424,#425);
#373=AXIS2_PLACEMENT_3D('',#539,#427,#428);
#374=AXIS2_PLACEMENT_3D('',#543,#430,#431);
#375=AXIS2_PLACEMENT_3D('',#547,#433,#434);
#376=AXIS2_PLACEMENT_3D('',#551,#436,#437);
#377=AXIS2_PLACEMENT_3D('',#554,#439,#440);
#378=AXIS2_PLACEMENT_3D('',#557,#442,#443);
#379=AXIS2_PLACEMENT_3D('',#559,#444,#445);
#380=AXIS2_PLACEMENT_3D('',#562,#447,#448);
#381=AXIS2_PLACEMENT_3D('',#565,#449,#450);
#382=AXIS2_PLACEMENT_3D('',#569,#452,#453);
#383=AXIS2_PLACEMENT_3D('',#573,#455,#456);
#384=AXIS2_PLACEMENT_3D('',#577,#458,#459);
#385=AXIS2_PLACEMENT_3D('',#579,#461,#462);
#386=AXIS2_PLACEMENT_3D('',#581,#463,#464);
#387=AXIS2_PLACEMENT_3D('',#582,#465,#466);
#388=AXIS2_PLACEMENT_3D('',#584,#467,#468);
#389=AXIS2_PLACEMENT_3D('',#586,#470,#471);
#390=AXIS2_PLACEMENT_3D('',#588,#472,#473);
#391=AXIS2_PLACEMENT_3D('',#589,#474,#475);
#392=AXIS2_PLACEMENT_3D('',#591,#476,#477);
#393=AXIS2_PLACEMENT_3D('',#594,#479,#480);
#394=AXIS2_PLACEMENT_3D('',#596,#482,#483);
#395=AXIS2_PLACEMENT_3D('',#598,#484,#485);
#396=AXIS2_PLACEMENT_3D('',#601,#487,#488);
#397=AXIS2_PLACEMENT_3D('',#603,#490,#491);
#398=AXIS2_PLACEMENT_3D('',#605,#493,#494);
#399=AXIS2_PLACEMENT_3D('',#607,#496,#497);
#400=AXIS2_PLACEMENT_3D('',#608,#498,#499);
#401=AXIS2_PLACEMENT_3D('',#610,#501,#502);
#402=AXIS2_PLACEMENT_3D('',#612,#504,#505);
#403=AXIS2_PLACEMENT_3D('',#613,#506,#507);
#404=AXIS2_PLACEMENT_3D('',#615,#509,#510);
#405=AXIS2_PLACEMENT_3D('',#617,#512,#513);
#406=AXIS2_PLACEMENT_3D('',#618,#514,#515);
#407=AXIS2_PLACEMENT_3D('',#620,#517,#518);
#408=AXIS2_PLACEMENT_3D('',#622,#520,#521);
#409=DIRECTION('axis',(0.,0.,1.));
#410=DIRECTION('refdir',(1.,0.,0.));
#411=DIRECTION('center_axis',(0.,-1.,0.));
#412=DIRECTION('ref_axis',(-1.,0.,0.));
#413=DIRECTION('center_axis',(0.,1.,0.));
#414=DIRECTION('ref_axis',(-1.,0.,0.));
#415=DIRECTION('center_axis',(0.,1.,0.));
#416=DIRECTION('ref_axis',(-1.,0.,0.));
#417=DIRECTION('',(-0.707106781186523,0.707106781186573,-8.65956056235463E-17));
#418=DIRECTION('center_axis',(0.,-1.,0.));
#419=DIRECTION('ref_axis',(-1.,0.,0.));
#420=DIRECTION('center_axis',(0.,-1.,0.));
#421=DIRECTION('ref_axis',(1.,0.,0.));
#422=DIRECTION('center_axis',(0.,-1.,0.));
#423=DIRECTION('ref_axis',(-1.,0.,0.));
#424=DIRECTION('center_axis',(0.,-1.,0.));
#425=DIRECTION('ref_axis',(-1.,0.,0.));
#426=DIRECTION('',(0.,1.,0.));
#427=DIRECTION('center_axis',(0.,-1.,0.));
#428=DIRECTION('ref_axis',(1.,0.,0.));
#429=DIRECTION('',(0.,1.,0.));
#430=DIRECTION('center_axis',(0.,1.,0.));
#431=DIRECTION('ref_axis',(1.,0.,0.));
#432=DIRECTION('',(0.,1.,0.));
#433=DIRECTION('center_axis',(0.,1.,0.));
#434=DIRECTION('ref_axis',(1.,0.,0.));
#435=DIRECTION('',(0.,-1.,0.));
#436=DIRECTION('center_axis',(0.,-1.,0.));
#437=DIRECTION('ref_axis',(1.,0.,0.));
#438=DIRECTION('',(0.,1.,0.));
#439=DIRECTION('center_axis',(0.,-1.,0.));
#440=DIRECTION('ref_axis',(1.,0.,0.));
#441=DIRECTION('',(0.,1.,0.));
#442=DIRECTION('center_axis',(0.,1.,0.));
#443=DIRECTION('ref_axis',(1.,0.,0.));
#444=DIRECTION('center_axis',(0.,1.,0.));
#445=DIRECTION('ref_axis',(1.,0.,0.));
#446=DIRECTION('',(0.,-1.,0.));
#447=DIRECTION('center_axis',(0.,-1.,0.));
#448=DIRECTION('ref_axis',(1.,0.,0.));
#449=DIRECTION('center_axis',(0.,-1.,0.));
#450=DIRECTION('ref_axis',(1.,0.,0.));
#451=DIRECTION('',(0.,1.,0.));
#452=DIRECTION('center_axis',(0.,1.,0.));
#453=DIRECTION('ref_axis',(1.,0.,0.));
#454=DIRECTION('',(0.,-1.,0.));
#455=DIRECTION('center_axis',(0.,-1.,0.));
#456=DIRECTION('ref_axis',(1.,0.,0.));
#457=DIRECTION('',(0.,1.,0.));
#458=DIRECTION('center_axis',(0.,1.,0.));
#459=DIRECTION('ref_axis',(1.,0.,0.));
#460=DIRECTION('',(0.,-1.,0.));
#461=DIRECTION('center_axis',(0.,1.,0.));
#462=DIRECTION('ref_axis',(0.,0.,1.));
#463=DIRECTION('center_axis',(0.,1.,0.));
#464=DIRECTION('ref_axis',(0.,0.,-1.));
#465=DIRECTION('center_axis',(0.,1.,0.));
#466=DIRECTION('ref_axis',(-1.,0.,0.));
#467=DIRECTION('center_axis',(0.,1.,0.));
#468=DIRECTION('ref_axis',(-1.,0.,0.));
#469=DIRECTION('',(0.707106781186564,0.707106781186531,8.65956056235514E-17));
#470=DIRECTION('center_axis',(0.,-1.,0.));
#471=DIRECTION('ref_axis',(0.,0.,-1.));
#472=DIRECTION('center_axis',(0.,1.,0.));
#473=DIRECTION('ref_axis',(0.,0.,-1.));
#474=DIRECTION('center_axis',(0.,1.,0.));
#475=DIRECTION('ref_axis',(0.,0.,-1.));
#476=DIRECTION('center_axis',(0.,1.,0.));
#477=DIRECTION('ref_axis',(0.,0.,-1.));
#478=DIRECTION('',(-1.04972719113862E-16,-0.515038074910054,-0.857167300702112));
#479=DIRECTION('center_axis',(0.,1.,0.));
#480=DIRECTION('ref_axis',(0.,0.,-1.));
#481=DIRECTION('',(0.,-1.,0.));
#482=DIRECTION('center_axis',(0.,-1.,0.));
#483=DIRECTION('ref_axis',(0.,0.,-1.));
#484=DIRECTION('center_axis',(0.,1.,0.));
#485=DIRECTION('ref_axis',(0.,0.,-1.));
#486=DIRECTION('',(-1.04972719113862E-16,0.515038074910054,-0.857167300702112));
#487=DIRECTION('center_axis',(0.,1.,0.));
#488=DIRECTION('ref_axis',(0.,0.,-1.));
#489=DIRECTION('',(0.,1.,0.));
#490=DIRECTION('center_axis',(0.,-1.,0.));
#491=DIRECTION('ref_axis',(1.,0.,0.));
#492=DIRECTION('',(0.,0.,-1.));
#493=DIRECTION('center_axis',(1.,2.77555756156289E-16,0.));
#494=DIRECTION('ref_axis',(-2.77555756156289E-16,1.,0.));
#495=DIRECTION('',(0.,0.,1.));
#496=DIRECTION('center_axis',(0.,1.,0.));
#497=DIRECTION('ref_axis',(-1.,0.,0.));
#498=DIRECTION('center_axis',(0.,1.,0.));
#499=DIRECTION('ref_axis',(-1.,0.,0.));
#500=DIRECTION('',(0.,0.,-1.));
#501=DIRECTION('center_axis',(1.,-2.77555756156289E-16,0.));
#502=DIRECTION('ref_axis',(2.77555756156289E-16,1.,0.));
#503=DIRECTION('',(0.,0.,1.));
#504=DIRECTION('center_axis',(0.,-1.,0.));
#505=DIRECTION('ref_axis',(1.,0.,0.));
#506=DIRECTION('center_axis',(0.,1.,0.));
#507=DIRECTION('ref_axis',(-1.,0.,0.));
#508=DIRECTION('',(0.,0.,-1.));
#509=DIRECTION('center_axis',(-1.,-2.77555756156289E-16,0.));
#510=DIRECTION('ref_axis',(2.77555756156289E-16,-1.,0.));
#511=DIRECTION('',(0.,0.,1.));
#512=DIRECTION('center_axis',(0.,-1.,0.));
#513=DIRECTION('ref_axis',(1.,0.,0.));
#514=DIRECTION('center_axis',(0.,-1.,0.));
#515=DIRECTION('ref_axis',(1.,0.,0.));
#516=DIRECTION('',(0.,0.,-1.));
#517=DIRECTION('center_axis',(-1.,2.77555756156289E-16,0.));
#518=DIRECTION('ref_axis',(-2.77555756156289E-16,-1.,0.));
#519=DIRECTION('',(0.,0.,1.));
#520=DIRECTION('center_axis',(0.,1.,0.));
#521=DIRECTION('ref_axis',(-1.,0.,0.));
#522=CARTESIAN_POINT('',(0.,0.,0.));
#523=CARTESIAN_POINT('Origin',(1.4432899320127E-14,274.75,0.));
#524=CARTESIAN_POINT('',(7.50000000000003,274.5,-9.18485099360516E-16));
#525=CARTESIAN_POINT('',(-7.5,274.5,-9.18485099360516E-16));
#526=CARTESIAN_POINT('Origin',(1.4432899320127E-14,274.5,0.));
#527=CARTESIAN_POINT('Origin',(1.4432899320127E-14,274.5,0.));
#528=CARTESIAN_POINT('',(7.00000000000006,275.,8.57252759403152E-16));
#529=CARTESIAN_POINT('',(7.25000000000004,274.75,8.87868929381834E-16));
#530=CARTESIAN_POINT('Origin',(1.4432899320127E-14,275.,0.));
#531=CARTESIAN_POINT('Origin',(1.4432899320127E-14,137.5,0.));
#532=CARTESIAN_POINT('',(7.50000000000003,0.500000000000007,9.18485099360516E-16));
#533=CARTESIAN_POINT('',(-7.5,0.499999999999989,-9.18485099360516E-16));
#534=CARTESIAN_POINT('Origin',(1.4432899320127E-14,0.500000000000007,0.));
#535=CARTESIAN_POINT('Origin',(1.4432899320127E-14,0.500000000000007,0.));
#536=CARTESIAN_POINT('',(-7.5,6.99999999999999,-9.18485099360516E-16));
#537=CARTESIAN_POINT('',(-7.5,137.5,-9.18485099360516E-16));
#538=CARTESIAN_POINT('',(-4.5,6.99999999999999,-6.00000000000001));
#539=CARTESIAN_POINT('Origin',(1.4432899320127E-14,6.99999999999999,0.));
#540=CARTESIAN_POINT('',(-4.5,11.,-6.00000000000001));
#541=CARTESIAN_POINT('',(-4.49999999999996,137.5,-6.00000000000003));
#542=CARTESIAN_POINT('',(-7.5,11.,-9.18485099360516E-16));
#543=CARTESIAN_POINT('Origin',(1.4432899320127E-14,11.,0.));
#544=CARTESIAN_POINT('',(-7.5,264.,-9.18485099360516E-16));
#545=CARTESIAN_POINT('',(-7.5,137.5,-9.18485099360516E-16));
#546=CARTESIAN_POINT('',(-4.5,264.,-6.00000000000001));
#547=CARTESIAN_POINT('Origin',(1.4432899320127E-14,264.,0.));
#548=CARTESIAN_POINT('',(-4.5,268.,-6.00000000000001));
#549=CARTESIAN_POINT('',(-4.49999999999996,137.5,-6.00000000000003));
#550=CARTESIAN_POINT('',(-7.5,268.,-9.18485099360516E-16));
#551=CARTESIAN_POINT('Origin',(1.4432899320127E-14,268.,0.));
#552=CARTESIAN_POINT('',(-7.5,137.5,-9.18485099360516E-16));
#553=CARTESIAN_POINT('',(-4.5,268.,6.00000000000001));
#554=CARTESIAN_POINT('Origin',(1.4432899320127E-14,268.,0.));
#555=CARTESIAN_POINT('',(-4.5,264.,6.00000000000001));
#556=CARTESIAN_POINT('',(-4.49999999999996,137.5,6.00000000000003));
#557=CARTESIAN_POINT('Origin',(1.4432899320127E-14,264.,0.));
#558=CARTESIAN_POINT('',(-4.5,11.,6.00000000000001));
#559=CARTESIAN_POINT('Origin',(1.4432899320127E-14,11.,0.));
#560=CARTESIAN_POINT('',(-4.5,6.99999999999999,6.00000000000001));
#561=CARTESIAN_POINT('',(-4.49999999999996,137.5,6.00000000000003));
#562=CARTESIAN_POINT('Origin',(1.4432899320127E-14,6.99999999999999,0.));
#563=CARTESIAN_POINT('',(4.5,264.,-6.00000000000001));
#564=CARTESIAN_POINT('',(4.5,264.,6.00000000000001));
#565=CARTESIAN_POINT('Origin',(1.4432899320127E-14,264.,0.));
#566=CARTESIAN_POINT('',(4.5,268.,6.00000000000001));
#567=CARTESIAN_POINT('',(4.49999999999996,137.5,6.00000000000006));
#568=CARTESIAN_POINT('',(4.5,268.,-6.00000000000001));
#569=CARTESIAN_POINT('Origin',(1.4432899320127E-14,268.,0.));
#570=CARTESIAN_POINT('',(4.49999999999996,137.5,-6.00000000000006));
#571=CARTESIAN_POINT('',(4.5,11.,-6.00000000000001));
#572=CARTESIAN_POINT('',(4.5,11.,6.00000000000001));
#573=CARTESIAN_POINT('Origin',(1.4432899320127E-14,11.,0.));
#574=CARTESIAN_POINT('',(4.5,6.99999999999999,-6.00000000000001));
#575=CARTESIAN_POINT('',(4.49999999999996,137.5,-6.00000000000006));
#576=CARTESIAN_POINT('',(4.5,6.99999999999999,6.00000000000001));
#577=CARTESIAN_POINT('Origin',(1.4432899320127E-14,6.99999999999999,0.));
#578=CARTESIAN_POINT('',(4.49999999999996,137.5,6.00000000000006));
#579=CARTESIAN_POINT('Origin',(7.50000000000006,275.,0.));
#580=CARTESIAN_POINT('',(1.42323849426241E-14,275.,0.75));
#581=CARTESIAN_POINT('Origin',(1.41405364326881E-14,275.,0.));
#582=CARTESIAN_POINT('Origin',(1.4432899320127E-14,0.250000000000004,0.));
#583=CARTESIAN_POINT('',(7.,0.,-8.57252759403145E-16));
#584=CARTESIAN_POINT('Origin',(1.4432899320127E-14,0.,0.));
#585=CARTESIAN_POINT('',(7.25000000000001,0.250000000000004,8.87868929381831E-16));
#586=CARTESIAN_POINT('Origin',(0.,0.,0.));
#587=CARTESIAN_POINT('',(1.42323849426241E-14,0.,0.75));
#588=CARTESIAN_POINT('Origin',(1.41405364326881E-14,0.,0.));
#589=CARTESIAN_POINT('Origin',(1.41405364326881E-14,269.774677267865,0.));
#590=CARTESIAN_POINT('',(1.42323849426241E-14,270.,0.750000000000008));
#591=CARTESIAN_POINT('Origin',(1.41405364326881E-14,270.,0.));
#592=CARTESIAN_POINT('',(1.41405364326881E-14,269.549354535729,0.));
#593=CARTESIAN_POINT('',(1.41864606876561E-14,269.774677267865,0.375));
#594=CARTESIAN_POINT('Origin',(1.41405364326881E-14,272.5,0.));
#595=CARTESIAN_POINT('',(1.42323849426241E-14,272.5,0.75));
#596=CARTESIAN_POINT('Origin',(1.41405364326881E-14,5.22532273213534,0.));
#597=CARTESIAN_POINT('',(1.42323849426241E-14,5.,0.75));
#598=CARTESIAN_POINT('Origin',(1.41405364326881E-14,5.,0.));
#599=CARTESIAN_POINT('',(1.41405364326881E-14,5.45064546427067,0.));
#600=CARTESIAN_POINT('',(1.41864606876561E-14,5.22532273213534,0.375));
#601=CARTESIAN_POINT('Origin',(1.41405364326881E-14,2.5,0.));
#602=CARTESIAN_POINT('',(1.42323849426241E-14,2.5,0.75));
#603=CARTESIAN_POINT('Origin',(4.5,11.,0.));
#604=CARTESIAN_POINT('',(4.5,11.,0.));
#605=CARTESIAN_POINT('Origin',(4.5,7.,0.));
#606=CARTESIAN_POINT('',(4.5,7.,0.));
#607=CARTESIAN_POINT('Origin',(7.5,7.,0.));
#608=CARTESIAN_POINT('Origin',(-4.5,11.,0.));
#609=CARTESIAN_POINT('',(-4.5,11.,0.));
#610=CARTESIAN_POINT('Origin',(-4.5,7.,0.));
#611=CARTESIAN_POINT('',(-4.5,7.,0.));
#612=CARTESIAN_POINT('Origin',(-7.5,7.,0.));
#613=CARTESIAN_POINT('Origin',(-4.5,264.,0.));
#614=CARTESIAN_POINT('',(-4.5,264.,0.));
#615=CARTESIAN_POINT('Origin',(-4.5,268.,0.));
#616=CARTESIAN_POINT('',(-4.5,268.,0.));
#617=CARTESIAN_POINT('Origin',(-7.5,268.,0.));
#618=CARTESIAN_POINT('Origin',(4.5,264.,0.));
#619=CARTESIAN_POINT('',(4.5,264.,0.));
#620=CARTESIAN_POINT('Origin',(4.5,268.,0.));
#621=CARTESIAN_POINT('',(4.5,268.,0.));
#622=CARTESIAN_POINT('Origin',(7.5,268.,0.));
#623=UNCERTAINTY_MEASURE_WITH_UNIT(LENGTH_MEASURE(0.01),#627,
'DISTANCE_ACCURACY_VALUE',
'Maximum model space distance between geometric entities at asserted c
onnectivities');
#624=UNCERTAINTY_MEASURE_WITH_UNIT(LENGTH_MEASURE(0.01),#627,
'DISTANCE_ACCURACY_VALUE',
'Maximum model space distance between geometric entities at asserted c
onnectivities');
#625=(
GEOMETRIC_REPRESENTATION_CONTEXT(3)
GLOBAL_UNCERTAINTY_ASSIGNED_CONTEXT((#623))
GLOBAL_UNIT_ASSIGNED_CONTEXT((#627,#629,#630))
REPRESENTATION_CONTEXT('','3D')
);
#626=(
GEOMETRIC_REPRESENTATION_CONTEXT(3)
GLOBAL_UNCERTAINTY_ASSIGNED_CONTEXT((#624))
GLOBAL_UNIT_ASSIGNED_CONTEXT((#627,#629,#630))
REPRESENTATION_CONTEXT('','3D')
);
#627=(
LENGTH_UNIT()
NAMED_UNIT(*)
SI_UNIT(.MILLI.,.METRE.)
);
#628=(
LENGTH_UNIT()
NAMED_UNIT(*)
SI_UNIT($,.METRE.)
);
#629=(
NAMED_UNIT(*)
PLANE_ANGLE_UNIT()
SI_UNIT($,.RADIAN.)
);
#630=(
NAMED_UNIT(*)
SI_UNIT($,.STERADIAN.)
SOLID_ANGLE_UNIT()
);
#631=SHAPE_DEFINITION_REPRESENTATION(#632,#633);
#632=PRODUCT_DEFINITION_SHAPE('',$,#635);
#633=SHAPE_REPRESENTATION('',(#365),#625);
#634=PRODUCT_DEFINITION_CONTEXT('part definition',#639,'design');
#635=PRODUCT_DEFINITION('thermal conductor','thermal conductor v6',#636,
#634);
#636=PRODUCT_DEFINITION_FORMATION('',$,#641);
#637=PRODUCT_RELATED_PRODUCT_CATEGORY('thermal conductor v6',
'thermal conductor v6',(#641));
#638=APPLICATION_PROTOCOL_DEFINITION('international standard',
'automotive_design',2009,#639);
#639=APPLICATION_CONTEXT(
'Core Data for Automotive Mechanical Design Process');
#640=PRODUCT_CONTEXT('part definition',#639,'mechanical');
#641=PRODUCT('thermal conductor','thermal conductor v6',$,(#640));
#642=PRESENTATION_STYLE_ASSIGNMENT((#643));
#643=SURFACE_STYLE_USAGE(.BOTH.,#644);
#644=SURFACE_SIDE_STYLE('',(#645));
#645=SURFACE_STYLE_FILL_AREA(#646);
#646=FILL_AREA_STYLE('Copper - Polished',(#647));
#647=FILL_AREA_STYLE_COLOUR('Copper - Polished',#648);
#648=COLOUR_RGB('Copper - Polished',0.929411764705882,0.807843137254902,
0.764705882352941);
ENDSEC;
END-ISO-10303-21;
