ISO-10303-21;
HEADER;
/* Generated by software containing ST-Developer
 * from STEP Tools, Inc. (www.steptools.com) 
 */

FILE_DESCRIPTION(
/* description */ (''),
/* implementation_level */ '2;1');

FILE_NAME(
/* name */ 'PWA076-Step v1.step',
/* time_stamp */ '2024-06-17T10:39:31+02:00',
/* author */ (''),
/* organization */ (''),
/* preprocessor_version */ 'ST-DEVELOPER v20',
/* originating_system */ 'Autodesk Translation Framework v13.14.0.145',

/* authorisation */ '');

FILE_SCHEMA (('AUTOMOTIVE_DESIGN { 1 0 10303 214 3 1 1 }'));
ENDSEC;

DATA;
#10=MECHANICAL_DESIGN_GEOMETRIC_PRESENTATION_REPRESENTATION('',(#24,#25),
#1148);
#11=ITEM_DEFINED_TRANSFORMATION($,$,#646,#725);
#12=(
REPRESENTATION_RELATIONSHIP($,$,#1159,#1158)
REPRESENTATION_RELATIONSHIP_WITH_TRANSFORMATION(#11)
SHAPE_REPRESENTATION_RELATIONSHIP()
);
#13=CONTEXT_DEPENDENT_SHAPE_REPRESENTATION(#12,#1157);
#14=NEXT_ASSEMBLY_USAGE_OCCURRENCE('CG0018 - Pneumatic Mount:1',
'CG0018 - Pneumatic Mount:1','CG0018 - Pneumatic Mount:1',#1161,#1162,
'CG0018 - Pneumatic Mount:1');
#15=SHAPE_REPRESENTATION_RELATIONSHIP('SRR','None',#1159,#16);
#16=ADVANCED_BREP_SHAPE_REPRESENTATION('',(#26,#27),#1147);
#17=TOROIDAL_SURFACE('',#679,62.,2.);
#18=TOROIDAL_SURFACE('',#683,62.,2.);
#19=TOROIDAL_SURFACE('',#689,62.,2.);
#20=TOROIDAL_SURFACE('',#695,26.,1.);
#21=B_SPLINE_CURVE_WITH_KNOTS('',3,(#953,#954,#955,#956,#957,#958,#959,
#960,#961,#962,#963,#964,#965,#966,#967,#968,#969,#970),.UNSPECIFIED.,.F.,
 .F.,(4,2,2,2,2,2,2,2,4),(0.753724625715436,0.942155646946427,1.13058666817742,
1.31901795980415,1.50744925143087,1.6958805430576,1.88431183468433,2.07274285591532,
2.26117387714631),.UNSPECIFIED.);
#22=B_SPLINE_CURVE_WITH_KNOTS('',3,(#972,#973,#974,#975,#976,#977,#978,
#979,#980,#981),.UNSPECIFIED.,.F.,.F.,(4,2,2,2,4),(2.26117387714631,2.4496048983773,
2.63803591960829,2.82646721123502,3.01489850286175),.UNSPECIFIED.);
#23=B_SPLINE_CURVE_WITH_KNOTS('',3,(#985,#986,#987,#988,#989,#990,#991,
#992,#993,#994),.UNSPECIFIED.,.F.,.F.,(4,2,2,2,4),(3.01489850286175,3.20332979448847,
3.3917610861152,3.58019210734619,3.76862312857718),.UNSPECIFIED.);
#24=STYLED_ITEM('',(#1172),#26);
#25=STYLED_ITEM('',(#1172),#27);
#26=MANIFOLD_SOLID_BREP('Body1',#631);
#27=MANIFOLD_SOLID_BREP('Body2',#632);
#28=FACE_BOUND('',#101,.T.);
#29=FACE_BOUND('',#103,.T.);
#30=FACE_BOUND('',#122,.T.);
#31=FACE_BOUND('',#124,.T.);
#32=FACE_BOUND('',#126,.T.);
#33=FACE_BOUND('',#129,.T.);
#34=FACE_BOUND('',#130,.T.);
#35=FACE_BOUND('',#131,.T.);
#36=FACE_BOUND('',#132,.T.);
#37=FACE_BOUND('',#142,.T.);
#38=FACE_BOUND('',#143,.T.);
#39=FACE_BOUND('',#144,.T.);
#40=FACE_BOUND('',#145,.T.);
#41=FACE_BOUND('',#146,.T.);
#42=FACE_BOUND('',#148,.T.);
#43=PLANE('',#653);
#44=PLANE('',#654);
#45=PLANE('',#709);
#46=PLANE('',#710);
#47=PLANE('',#711);
#48=PLANE('',#712);
#49=PLANE('',#713);
#50=PLANE('',#714);
#51=PLANE('',#715);
#52=PLANE('',#716);
#53=PLANE('',#717);
#54=PLANE('',#718);
#55=PLANE('',#719);
#56=PLANE('',#720);
#57=PLANE('',#721);
#58=PLANE('',#722);
#59=PLANE('',#723);
#60=PLANE('',#724);
#61=FACE_OUTER_BOUND('',#98,.T.);
#62=FACE_OUTER_BOUND('',#99,.T.);
#63=FACE_OUTER_BOUND('',#100,.T.);
#64=FACE_OUTER_BOUND('',#102,.T.);
#65=FACE_OUTER_BOUND('',#104,.T.);
#66=FACE_OUTER_BOUND('',#105,.T.);
#67=FACE_OUTER_BOUND('',#106,.T.);
#68=FACE_OUTER_BOUND('',#107,.T.);
#69=FACE_OUTER_BOUND('',#108,.T.);
#70=FACE_OUTER_BOUND('',#109,.T.);
#71=FACE_OUTER_BOUND('',#110,.T.);
#72=FACE_OUTER_BOUND('',#111,.T.);
#73=FACE_OUTER_BOUND('',#112,.T.);
#74=FACE_OUTER_BOUND('',#113,.T.);
#75=FACE_OUTER_BOUND('',#114,.T.);
#76=FACE_OUTER_BOUND('',#115,.T.);
#77=FACE_OUTER_BOUND('',#116,.T.);
#78=FACE_OUTER_BOUND('',#117,.T.);
#79=FACE_OUTER_BOUND('',#118,.T.);
#80=FACE_OUTER_BOUND('',#119,.T.);
#81=FACE_OUTER_BOUND('',#120,.T.);
#82=FACE_OUTER_BOUND('',#121,.T.);
#83=FACE_OUTER_BOUND('',#123,.T.);
#84=FACE_OUTER_BOUND('',#125,.T.);
#85=FACE_OUTER_BOUND('',#127,.T.);
#86=FACE_OUTER_BOUND('',#128,.T.);
#87=FACE_OUTER_BOUND('',#133,.T.);
#88=FACE_OUTER_BOUND('',#134,.T.);
#89=FACE_OUTER_BOUND('',#135,.T.);
#90=FACE_OUTER_BOUND('',#136,.T.);
#91=FACE_OUTER_BOUND('',#137,.T.);
#92=FACE_OUTER_BOUND('',#138,.T.);
#93=FACE_OUTER_BOUND('',#139,.T.);
#94=FACE_OUTER_BOUND('',#140,.T.);
#95=FACE_OUTER_BOUND('',#141,.T.);
#96=FACE_OUTER_BOUND('',#147,.T.);
#97=FACE_OUTER_BOUND('',#149,.T.);
#98=EDGE_LOOP('',(#411,#412,#413,#414));
#99=EDGE_LOOP('',(#415,#416,#417,#418));
#100=EDGE_LOOP('',(#419));
#101=EDGE_LOOP('',(#420));
#102=EDGE_LOOP('',(#421));
#103=EDGE_LOOP('',(#422));
#104=EDGE_LOOP('',(#423,#424,#425,#426));
#105=EDGE_LOOP('',(#427,#428,#429,#430,#431,#432));
#106=EDGE_LOOP('',(#433,#434,#435,#436,#437));
#107=EDGE_LOOP('',(#438,#439,#440,#441));
#108=EDGE_LOOP('',(#442,#443,#444,#445));
#109=EDGE_LOOP('',(#446,#447,#448,#449));
#110=EDGE_LOOP('',(#450,#451,#452,#453));
#111=EDGE_LOOP('',(#454,#455,#456,#457));
#112=EDGE_LOOP('',(#458,#459,#460,#461,#462,#463));
#113=EDGE_LOOP('',(#464,#465,#466,#467,#468,#469));
#114=EDGE_LOOP('',(#470,#471,#472,#473,#474,#475));
#115=EDGE_LOOP('',(#476,#477,#478,#479,#480));
#116=EDGE_LOOP('',(#481,#482,#483,#484,#485));
#117=EDGE_LOOP('',(#486,#487,#488,#489));
#118=EDGE_LOOP('',(#490,#491,#492,#493,#494));
#119=EDGE_LOOP('',(#495,#496,#497,#498,#499,#500));
#120=EDGE_LOOP('',(#501,#502,#503,#504,#505,#506,#507,#508,#509,#510,#511));
#121=EDGE_LOOP('',(#512));
#122=EDGE_LOOP('',(#513));
#123=EDGE_LOOP('',(#514));
#124=EDGE_LOOP('',(#515));
#125=EDGE_LOOP('',(#516));
#126=EDGE_LOOP('',(#517));
#127=EDGE_LOOP('',(#518));
#128=EDGE_LOOP('',(#519,#520,#521,#522,#523,#524,#525,#526));
#129=EDGE_LOOP('',(#527));
#130=EDGE_LOOP('',(#528));
#131=EDGE_LOOP('',(#529));
#132=EDGE_LOOP('',(#530));
#133=EDGE_LOOP('',(#531,#532,#533,#534));
#134=EDGE_LOOP('',(#535,#536,#537,#538));
#135=EDGE_LOOP('',(#539,#540,#541,#542));
#136=EDGE_LOOP('',(#543,#544,#545,#546));
#137=EDGE_LOOP('',(#547,#548,#549,#550));
#138=EDGE_LOOP('',(#551,#552,#553,#554));
#139=EDGE_LOOP('',(#555,#556,#557,#558));
#140=EDGE_LOOP('',(#559,#560,#561,#562));
#141=EDGE_LOOP('',(#563,#564,#565,#566,#567,#568,#569,#570));
#142=EDGE_LOOP('',(#571));
#143=EDGE_LOOP('',(#572));
#144=EDGE_LOOP('',(#573));
#145=EDGE_LOOP('',(#574));
#146=EDGE_LOOP('',(#575));
#147=EDGE_LOOP('',(#576));
#148=EDGE_LOOP('',(#577));
#149=EDGE_LOOP('',(#578));
#150=LINE('',#934,#190);
#151=LINE('',#940,#191);
#152=LINE('',#948,#192);
#153=LINE('',#983,#193);
#154=LINE('',#999,#194);
#155=LINE('',#1007,#195);
#156=LINE('',#1013,#196);
#157=LINE('',#1019,#197);
#158=LINE('',#1025,#198);
#159=LINE('',#1031,#199);
#160=LINE('',#1070,#200);
#161=LINE('',#1075,#201);
#162=LINE('',#1079,#202);
#163=LINE('',#1082,#203);
#164=LINE('',#1084,#204);
#165=LINE('',#1085,#205);
#166=LINE('',#1093,#206);
#167=LINE('',#1095,#207);
#168=LINE('',#1097,#208);
#169=LINE('',#1099,#209);
#170=LINE('',#1101,#210);
#171=LINE('',#1103,#211);
#172=LINE('',#1105,#212);
#173=LINE('',#1106,#213);
#174=LINE('',#1110,#214);
#175=LINE('',#1111,#215);
#176=LINE('',#1112,#216);
#177=LINE('',#1115,#217);
#178=LINE('',#1116,#218);
#179=LINE('',#1119,#219);
#180=LINE('',#1120,#220);
#181=LINE('',#1123,#221);
#182=LINE('',#1124,#222);
#183=LINE('',#1127,#223);
#184=LINE('',#1128,#224);
#185=LINE('',#1131,#225);
#186=LINE('',#1132,#226);
#187=LINE('',#1135,#227);
#188=LINE('',#1136,#228);
#189=LINE('',#1138,#229);
#190=VECTOR('',#734,5.09999999999999);
#191=VECTOR('',#741,27.);
#192=VECTOR('',#752,4.);
#193=VECTOR('',#757,5.);
#194=VECTOR('',#764,62.);
#195=VECTOR('',#773,64.);
#196=VECTOR('',#780,3.5);
#197=VECTOR('',#787,3.5);
#198=VECTOR('',#794,3.5);
#199=VECTOR('',#801,3.50000000000001);
#200=VECTOR('',#850,27.);
#201=VECTOR('',#855,30.);
#202=VECTOR('',#860,62.);
#203=VECTOR('',#865,62.);
#204=VECTOR('',#868,62.);
#205=VECTOR('',#869,62.);
#206=VECTOR('',#880,1000.);
#207=VECTOR('',#881,1000.);
#208=VECTOR('',#882,1000.);
#209=VECTOR('',#883,1000.);
#210=VECTOR('',#884,1000.);
#211=VECTOR('',#885,1000.);
#212=VECTOR('',#886,1000.);
#213=VECTOR('',#887,1000.);
#214=VECTOR('',#890,1000.);
#215=VECTOR('',#891,1000.);
#216=VECTOR('',#892,1000.);
#217=VECTOR('',#895,1000.);
#218=VECTOR('',#896,1000.);
#219=VECTOR('',#899,1000.);
#220=VECTOR('',#900,1000.);
#221=VECTOR('',#903,1000.);
#222=VECTOR('',#904,1000.);
#223=VECTOR('',#907,1000.);
#224=VECTOR('',#908,1000.);
#225=VECTOR('',#911,1000.);
#226=VECTOR('',#912,1000.);
#227=VECTOR('',#915,1000.);
#228=VECTOR('',#916,1000.);
#229=VECTOR('',#919,1000.);
#230=CIRCLE('',#648,5.09999999999999);
#231=CIRCLE('',#649,5.09999999999999);
#232=CIRCLE('',#651,27.);
#233=CIRCLE('',#652,27.);
#234=CIRCLE('',#656,4.);
#235=CIRCLE('',#657,4.);
#236=CIRCLE('',#659,5.);
#237=CIRCLE('',#661,62.);
#238=CIRCLE('',#662,62.);
#239=CIRCLE('',#663,62.);
#240=CIRCLE('',#665,64.);
#241=CIRCLE('',#666,64.);
#242=CIRCLE('',#668,3.5);
#243=CIRCLE('',#669,3.5);
#244=CIRCLE('',#671,3.5);
#245=CIRCLE('',#672,3.5);
#246=CIRCLE('',#674,3.5);
#247=CIRCLE('',#675,3.5);
#248=CIRCLE('',#677,3.50000000000001);
#249=CIRCLE('',#678,3.50000000000001);
#250=CIRCLE('',#680,2.);
#251=CIRCLE('',#681,62.);
#252=CIRCLE('',#682,62.);
#253=CIRCLE('',#684,62.);
#254=CIRCLE('',#685,2.);
#255=CIRCLE('',#686,62.);
#256=CIRCLE('',#687,62.);
#257=CIRCLE('',#688,62.);
#258=CIRCLE('',#690,62.);
#259=CIRCLE('',#691,2.);
#260=CIRCLE('',#692,62.);
#261=CIRCLE('',#693,62.);
#262=CIRCLE('',#694,62.);
#263=CIRCLE('',#696,26.);
#264=CIRCLE('',#697,1.);
#265=CIRCLE('',#698,27.);
#266=CIRCLE('',#699,27.);
#267=CIRCLE('',#701,27.);
#268=CIRCLE('',#703,30.);
#269=CIRCLE('',#704,30.);
#270=CIRCLE('',#706,62.);
#271=VERTEX_POINT('',#931);
#272=VERTEX_POINT('',#933);
#273=VERTEX_POINT('',#937);
#274=VERTEX_POINT('',#939);
#275=VERTEX_POINT('',#945);
#276=VERTEX_POINT('',#947);
#277=VERTEX_POINT('',#951);
#278=VERTEX_POINT('',#952);
#279=VERTEX_POINT('',#971);
#280=VERTEX_POINT('',#982);
#281=VERTEX_POINT('',#996);
#282=VERTEX_POINT('',#998);
#283=VERTEX_POINT('',#1000);
#284=VERTEX_POINT('',#1004);
#285=VERTEX_POINT('',#1006);
#286=VERTEX_POINT('',#1010);
#287=VERTEX_POINT('',#1012);
#288=VERTEX_POINT('',#1016);
#289=VERTEX_POINT('',#1018);
#290=VERTEX_POINT('',#1022);
#291=VERTEX_POINT('',#1024);
#292=VERTEX_POINT('',#1028);
#293=VERTEX_POINT('',#1030);
#294=VERTEX_POINT('',#1034);
#295=VERTEX_POINT('',#1036);
#296=VERTEX_POINT('',#1040);
#297=VERTEX_POINT('',#1041);
#298=VERTEX_POINT('',#1043);
#299=VERTEX_POINT('',#1045);
#300=VERTEX_POINT('',#1050);
#301=VERTEX_POINT('',#1051);
#302=VERTEX_POINT('',#1053);
#303=VERTEX_POINT('',#1055);
#304=VERTEX_POINT('',#1060);
#305=VERTEX_POINT('',#1062);
#306=VERTEX_POINT('',#1064);
#307=VERTEX_POINT('',#1068);
#308=VERTEX_POINT('',#1072);
#309=VERTEX_POINT('',#1074);
#310=VERTEX_POINT('',#1078);
#311=VERTEX_POINT('',#1091);
#312=VERTEX_POINT('',#1092);
#313=VERTEX_POINT('',#1094);
#314=VERTEX_POINT('',#1096);
#315=VERTEX_POINT('',#1098);
#316=VERTEX_POINT('',#1100);
#317=VERTEX_POINT('',#1102);
#318=VERTEX_POINT('',#1104);
#319=VERTEX_POINT('',#1108);
#320=VERTEX_POINT('',#1109);
#321=VERTEX_POINT('',#1114);
#322=VERTEX_POINT('',#1118);
#323=VERTEX_POINT('',#1122);
#324=VERTEX_POINT('',#1126);
#325=VERTEX_POINT('',#1130);
#326=VERTEX_POINT('',#1134);
#327=EDGE_CURVE('',#271,#271,#230,.T.);
#328=EDGE_CURVE('',#271,#272,#150,.T.);
#329=EDGE_CURVE('',#272,#272,#231,.T.);
#330=EDGE_CURVE('',#273,#273,#232,.T.);
#331=EDGE_CURVE('',#273,#274,#151,.T.);
#332=EDGE_CURVE('',#274,#274,#233,.T.);
#333=EDGE_CURVE('',#275,#275,#234,.T.);
#334=EDGE_CURVE('',#275,#276,#152,.T.);
#335=EDGE_CURVE('',#276,#276,#235,.T.);
#336=EDGE_CURVE('',#277,#278,#21,.T.);
#337=EDGE_CURVE('',#278,#279,#22,.T.);
#338=EDGE_CURVE('',#279,#280,#153,.T.);
#339=EDGE_CURVE('',#280,#280,#236,.T.);
#340=EDGE_CURVE('',#279,#277,#23,.T.);
#341=EDGE_CURVE('',#281,#281,#237,.T.);
#342=EDGE_CURVE('',#281,#282,#154,.T.);
#343=EDGE_CURVE('',#283,#282,#238,.T.);
#344=EDGE_CURVE('',#282,#283,#239,.T.);
#345=EDGE_CURVE('',#284,#284,#240,.T.);
#346=EDGE_CURVE('',#284,#285,#155,.T.);
#347=EDGE_CURVE('',#285,#285,#241,.T.);
#348=EDGE_CURVE('',#286,#286,#242,.T.);
#349=EDGE_CURVE('',#286,#287,#156,.T.);
#350=EDGE_CURVE('',#287,#287,#243,.T.);
#351=EDGE_CURVE('',#288,#288,#244,.T.);
#352=EDGE_CURVE('',#288,#289,#157,.T.);
#353=EDGE_CURVE('',#289,#289,#245,.T.);
#354=EDGE_CURVE('',#290,#290,#246,.T.);
#355=EDGE_CURVE('',#290,#291,#158,.T.);
#356=EDGE_CURVE('',#291,#291,#247,.T.);
#357=EDGE_CURVE('',#292,#292,#248,.T.);
#358=EDGE_CURVE('',#292,#293,#159,.T.);
#359=EDGE_CURVE('',#293,#293,#249,.T.);
#360=EDGE_CURVE('',#283,#294,#250,.T.);
#361=EDGE_CURVE('',#294,#295,#251,.T.);
#362=EDGE_CURVE('',#295,#294,#252,.T.);
#363=EDGE_CURVE('',#296,#297,#253,.T.);
#364=EDGE_CURVE('',#297,#298,#254,.T.);
#365=EDGE_CURVE('',#298,#299,#255,.T.);
#366=EDGE_CURVE('',#299,#298,#256,.T.);
#367=EDGE_CURVE('',#297,#296,#257,.T.);
#368=EDGE_CURVE('',#300,#301,#258,.T.);
#369=EDGE_CURVE('',#301,#302,#259,.T.);
#370=EDGE_CURVE('',#302,#303,#260,.T.);
#371=EDGE_CURVE('',#303,#302,#261,.T.);
#372=EDGE_CURVE('',#301,#300,#262,.T.);
#373=EDGE_CURVE('',#304,#304,#263,.T.);
#374=EDGE_CURVE('',#304,#305,#264,.T.);
#375=EDGE_CURVE('',#306,#305,#265,.T.);
#376=EDGE_CURVE('',#305,#306,#266,.T.);
#377=EDGE_CURVE('',#307,#307,#267,.T.);
#378=EDGE_CURVE('',#307,#306,#160,.T.);
#379=EDGE_CURVE('',#308,#308,#268,.T.);
#380=EDGE_CURVE('',#308,#309,#161,.T.);
#381=EDGE_CURVE('',#309,#309,#269,.T.);
#382=EDGE_CURVE('',#303,#310,#162,.T.);
#383=EDGE_CURVE('',#310,#310,#270,.T.);
#384=EDGE_CURVE('',#299,#300,#163,.T.);
#385=EDGE_CURVE('',#295,#278,#164,.T.);
#386=EDGE_CURVE('',#277,#296,#165,.T.);
#387=EDGE_CURVE('',#311,#312,#166,.T.);
#388=EDGE_CURVE('',#311,#313,#167,.T.);
#389=EDGE_CURVE('',#314,#313,#168,.T.);
#390=EDGE_CURVE('',#314,#315,#169,.T.);
#391=EDGE_CURVE('',#316,#315,#170,.T.);
#392=EDGE_CURVE('',#316,#317,#171,.T.);
#393=EDGE_CURVE('',#318,#317,#172,.T.);
#394=EDGE_CURVE('',#318,#312,#173,.T.);
#395=EDGE_CURVE('',#319,#320,#174,.T.);
#396=EDGE_CURVE('',#315,#319,#175,.T.);
#397=EDGE_CURVE('',#320,#314,#176,.T.);
#398=EDGE_CURVE('',#321,#319,#177,.T.);
#399=EDGE_CURVE('',#321,#316,#178,.T.);
#400=EDGE_CURVE('',#322,#321,#179,.T.);
#401=EDGE_CURVE('',#317,#322,#180,.T.);
#402=EDGE_CURVE('',#323,#322,#181,.T.);
#403=EDGE_CURVE('',#323,#318,#182,.T.);
#404=EDGE_CURVE('',#324,#323,#183,.T.);
#405=EDGE_CURVE('',#312,#324,#184,.T.);
#406=EDGE_CURVE('',#325,#324,#185,.T.);
#407=EDGE_CURVE('',#325,#311,#186,.T.);
#408=EDGE_CURVE('',#326,#325,#187,.T.);
#409=EDGE_CURVE('',#313,#326,#188,.T.);
#410=EDGE_CURVE('',#320,#326,#189,.T.);
#411=ORIENTED_EDGE('',*,*,#327,.F.);
#412=ORIENTED_EDGE('',*,*,#328,.T.);
#413=ORIENTED_EDGE('',*,*,#329,.T.);
#414=ORIENTED_EDGE('',*,*,#328,.F.);
#415=ORIENTED_EDGE('',*,*,#330,.T.);
#416=ORIENTED_EDGE('',*,*,#331,.T.);
#417=ORIENTED_EDGE('',*,*,#332,.F.);
#418=ORIENTED_EDGE('',*,*,#331,.F.);
#419=ORIENTED_EDGE('',*,*,#332,.T.);
#420=ORIENTED_EDGE('',*,*,#329,.F.);
#421=ORIENTED_EDGE('',*,*,#330,.F.);
#422=ORIENTED_EDGE('',*,*,#327,.T.);
#423=ORIENTED_EDGE('',*,*,#333,.T.);
#424=ORIENTED_EDGE('',*,*,#334,.T.);
#425=ORIENTED_EDGE('',*,*,#335,.F.);
#426=ORIENTED_EDGE('',*,*,#334,.F.);
#427=ORIENTED_EDGE('',*,*,#336,.T.);
#428=ORIENTED_EDGE('',*,*,#337,.T.);
#429=ORIENTED_EDGE('',*,*,#338,.T.);
#430=ORIENTED_EDGE('',*,*,#339,.F.);
#431=ORIENTED_EDGE('',*,*,#338,.F.);
#432=ORIENTED_EDGE('',*,*,#340,.T.);
#433=ORIENTED_EDGE('',*,*,#341,.T.);
#434=ORIENTED_EDGE('',*,*,#342,.T.);
#435=ORIENTED_EDGE('',*,*,#343,.F.);
#436=ORIENTED_EDGE('',*,*,#344,.F.);
#437=ORIENTED_EDGE('',*,*,#342,.F.);
#438=ORIENTED_EDGE('',*,*,#345,.T.);
#439=ORIENTED_EDGE('',*,*,#346,.T.);
#440=ORIENTED_EDGE('',*,*,#347,.F.);
#441=ORIENTED_EDGE('',*,*,#346,.F.);
#442=ORIENTED_EDGE('',*,*,#348,.T.);
#443=ORIENTED_EDGE('',*,*,#349,.T.);
#444=ORIENTED_EDGE('',*,*,#350,.F.);
#445=ORIENTED_EDGE('',*,*,#349,.F.);
#446=ORIENTED_EDGE('',*,*,#351,.T.);
#447=ORIENTED_EDGE('',*,*,#352,.T.);
#448=ORIENTED_EDGE('',*,*,#353,.F.);
#449=ORIENTED_EDGE('',*,*,#352,.F.);
#450=ORIENTED_EDGE('',*,*,#354,.T.);
#451=ORIENTED_EDGE('',*,*,#355,.T.);
#452=ORIENTED_EDGE('',*,*,#356,.F.);
#453=ORIENTED_EDGE('',*,*,#355,.F.);
#454=ORIENTED_EDGE('',*,*,#357,.T.);
#455=ORIENTED_EDGE('',*,*,#358,.T.);
#456=ORIENTED_EDGE('',*,*,#359,.F.);
#457=ORIENTED_EDGE('',*,*,#358,.F.);
#458=ORIENTED_EDGE('',*,*,#344,.T.);
#459=ORIENTED_EDGE('',*,*,#360,.T.);
#460=ORIENTED_EDGE('',*,*,#361,.T.);
#461=ORIENTED_EDGE('',*,*,#362,.T.);
#462=ORIENTED_EDGE('',*,*,#360,.F.);
#463=ORIENTED_EDGE('',*,*,#343,.T.);
#464=ORIENTED_EDGE('',*,*,#363,.T.);
#465=ORIENTED_EDGE('',*,*,#364,.T.);
#466=ORIENTED_EDGE('',*,*,#365,.T.);
#467=ORIENTED_EDGE('',*,*,#366,.T.);
#468=ORIENTED_EDGE('',*,*,#364,.F.);
#469=ORIENTED_EDGE('',*,*,#367,.T.);
#470=ORIENTED_EDGE('',*,*,#368,.T.);
#471=ORIENTED_EDGE('',*,*,#369,.T.);
#472=ORIENTED_EDGE('',*,*,#370,.T.);
#473=ORIENTED_EDGE('',*,*,#371,.T.);
#474=ORIENTED_EDGE('',*,*,#369,.F.);
#475=ORIENTED_EDGE('',*,*,#372,.T.);
#476=ORIENTED_EDGE('',*,*,#373,.F.);
#477=ORIENTED_EDGE('',*,*,#374,.T.);
#478=ORIENTED_EDGE('',*,*,#375,.F.);
#479=ORIENTED_EDGE('',*,*,#376,.F.);
#480=ORIENTED_EDGE('',*,*,#374,.F.);
#481=ORIENTED_EDGE('',*,*,#377,.T.);
#482=ORIENTED_EDGE('',*,*,#378,.T.);
#483=ORIENTED_EDGE('',*,*,#375,.T.);
#484=ORIENTED_EDGE('',*,*,#376,.T.);
#485=ORIENTED_EDGE('',*,*,#378,.F.);
#486=ORIENTED_EDGE('',*,*,#379,.T.);
#487=ORIENTED_EDGE('',*,*,#380,.T.);
#488=ORIENTED_EDGE('',*,*,#381,.F.);
#489=ORIENTED_EDGE('',*,*,#380,.F.);
#490=ORIENTED_EDGE('',*,*,#370,.F.);
#491=ORIENTED_EDGE('',*,*,#371,.F.);
#492=ORIENTED_EDGE('',*,*,#382,.T.);
#493=ORIENTED_EDGE('',*,*,#383,.F.);
#494=ORIENTED_EDGE('',*,*,#382,.F.);
#495=ORIENTED_EDGE('',*,*,#365,.F.);
#496=ORIENTED_EDGE('',*,*,#366,.F.);
#497=ORIENTED_EDGE('',*,*,#384,.T.);
#498=ORIENTED_EDGE('',*,*,#372,.F.);
#499=ORIENTED_EDGE('',*,*,#368,.F.);
#500=ORIENTED_EDGE('',*,*,#384,.F.);
#501=ORIENTED_EDGE('',*,*,#361,.F.);
#502=ORIENTED_EDGE('',*,*,#362,.F.);
#503=ORIENTED_EDGE('',*,*,#385,.T.);
#504=ORIENTED_EDGE('',*,*,#336,.F.);
#505=ORIENTED_EDGE('',*,*,#386,.T.);
#506=ORIENTED_EDGE('',*,*,#367,.F.);
#507=ORIENTED_EDGE('',*,*,#363,.F.);
#508=ORIENTED_EDGE('',*,*,#386,.F.);
#509=ORIENTED_EDGE('',*,*,#340,.F.);
#510=ORIENTED_EDGE('',*,*,#337,.F.);
#511=ORIENTED_EDGE('',*,*,#385,.F.);
#512=ORIENTED_EDGE('',*,*,#339,.T.);
#513=ORIENTED_EDGE('',*,*,#333,.F.);
#514=ORIENTED_EDGE('',*,*,#383,.T.);
#515=ORIENTED_EDGE('',*,*,#379,.F.);
#516=ORIENTED_EDGE('',*,*,#381,.T.);
#517=ORIENTED_EDGE('',*,*,#377,.F.);
#518=ORIENTED_EDGE('',*,*,#373,.T.);
#519=ORIENTED_EDGE('',*,*,#387,.F.);
#520=ORIENTED_EDGE('',*,*,#388,.T.);
#521=ORIENTED_EDGE('',*,*,#389,.F.);
#522=ORIENTED_EDGE('',*,*,#390,.T.);
#523=ORIENTED_EDGE('',*,*,#391,.F.);
#524=ORIENTED_EDGE('',*,*,#392,.T.);
#525=ORIENTED_EDGE('',*,*,#393,.F.);
#526=ORIENTED_EDGE('',*,*,#394,.T.);
#527=ORIENTED_EDGE('',*,*,#353,.T.);
#528=ORIENTED_EDGE('',*,*,#350,.T.);
#529=ORIENTED_EDGE('',*,*,#359,.T.);
#530=ORIENTED_EDGE('',*,*,#356,.T.);
#531=ORIENTED_EDGE('',*,*,#395,.F.);
#532=ORIENTED_EDGE('',*,*,#396,.F.);
#533=ORIENTED_EDGE('',*,*,#390,.F.);
#534=ORIENTED_EDGE('',*,*,#397,.F.);
#535=ORIENTED_EDGE('',*,*,#391,.T.);
#536=ORIENTED_EDGE('',*,*,#396,.T.);
#537=ORIENTED_EDGE('',*,*,#398,.F.);
#538=ORIENTED_EDGE('',*,*,#399,.T.);
#539=ORIENTED_EDGE('',*,*,#400,.F.);
#540=ORIENTED_EDGE('',*,*,#401,.F.);
#541=ORIENTED_EDGE('',*,*,#392,.F.);
#542=ORIENTED_EDGE('',*,*,#399,.F.);
#543=ORIENTED_EDGE('',*,*,#393,.T.);
#544=ORIENTED_EDGE('',*,*,#401,.T.);
#545=ORIENTED_EDGE('',*,*,#402,.F.);
#546=ORIENTED_EDGE('',*,*,#403,.T.);
#547=ORIENTED_EDGE('',*,*,#404,.F.);
#548=ORIENTED_EDGE('',*,*,#405,.F.);
#549=ORIENTED_EDGE('',*,*,#394,.F.);
#550=ORIENTED_EDGE('',*,*,#403,.F.);
#551=ORIENTED_EDGE('',*,*,#406,.F.);
#552=ORIENTED_EDGE('',*,*,#407,.T.);
#553=ORIENTED_EDGE('',*,*,#387,.T.);
#554=ORIENTED_EDGE('',*,*,#405,.T.);
#555=ORIENTED_EDGE('',*,*,#408,.F.);
#556=ORIENTED_EDGE('',*,*,#409,.F.);
#557=ORIENTED_EDGE('',*,*,#388,.F.);
#558=ORIENTED_EDGE('',*,*,#407,.F.);
#559=ORIENTED_EDGE('',*,*,#389,.T.);
#560=ORIENTED_EDGE('',*,*,#409,.T.);
#561=ORIENTED_EDGE('',*,*,#410,.F.);
#562=ORIENTED_EDGE('',*,*,#397,.T.);
#563=ORIENTED_EDGE('',*,*,#410,.T.);
#564=ORIENTED_EDGE('',*,*,#408,.T.);
#565=ORIENTED_EDGE('',*,*,#406,.T.);
#566=ORIENTED_EDGE('',*,*,#404,.T.);
#567=ORIENTED_EDGE('',*,*,#402,.T.);
#568=ORIENTED_EDGE('',*,*,#400,.T.);
#569=ORIENTED_EDGE('',*,*,#398,.T.);
#570=ORIENTED_EDGE('',*,*,#395,.T.);
#571=ORIENTED_EDGE('',*,*,#354,.F.);
#572=ORIENTED_EDGE('',*,*,#357,.F.);
#573=ORIENTED_EDGE('',*,*,#345,.F.);
#574=ORIENTED_EDGE('',*,*,#348,.F.);
#575=ORIENTED_EDGE('',*,*,#351,.F.);
#576=ORIENTED_EDGE('',*,*,#347,.T.);
#577=ORIENTED_EDGE('',*,*,#341,.F.);
#578=ORIENTED_EDGE('',*,*,#335,.T.);
#579=CYLINDRICAL_SURFACE('',#647,5.09999999999999);
#580=CYLINDRICAL_SURFACE('',#650,27.);
#581=CYLINDRICAL_SURFACE('',#655,4.);
#582=CYLINDRICAL_SURFACE('',#658,5.);
#583=CYLINDRICAL_SURFACE('',#660,62.);
#584=CYLINDRICAL_SURFACE('',#664,64.);
#585=CYLINDRICAL_SURFACE('',#667,3.5);
#586=CYLINDRICAL_SURFACE('',#670,3.5);
#587=CYLINDRICAL_SURFACE('',#673,3.5);
#588=CYLINDRICAL_SURFACE('',#676,3.50000000000001);
#589=CYLINDRICAL_SURFACE('',#700,27.);
#590=CYLINDRICAL_SURFACE('',#702,30.);
#591=CYLINDRICAL_SURFACE('',#705,62.);
#592=CYLINDRICAL_SURFACE('',#707,62.);
#593=CYLINDRICAL_SURFACE('',#708,62.);
#594=ADVANCED_FACE('',(#61),#579,.F.);
#595=ADVANCED_FACE('',(#62),#580,.T.);
#596=ADVANCED_FACE('',(#63,#28),#43,.T.);
#597=ADVANCED_FACE('',(#64,#29),#44,.F.);
#598=ADVANCED_FACE('',(#65),#581,.T.);
#599=ADVANCED_FACE('',(#66),#582,.T.);
#600=ADVANCED_FACE('',(#67),#583,.T.);
#601=ADVANCED_FACE('',(#68),#584,.T.);
#602=ADVANCED_FACE('',(#69),#585,.F.);
#603=ADVANCED_FACE('',(#70),#586,.F.);
#604=ADVANCED_FACE('',(#71),#587,.F.);
#605=ADVANCED_FACE('',(#72),#588,.F.);
#606=ADVANCED_FACE('',(#73),#17,.T.);
#607=ADVANCED_FACE('',(#74),#18,.T.);
#608=ADVANCED_FACE('',(#75),#19,.T.);
#609=ADVANCED_FACE('',(#76),#20,.F.);
#610=ADVANCED_FACE('',(#77),#589,.F.);
#611=ADVANCED_FACE('',(#78),#590,.T.);
#612=ADVANCED_FACE('',(#79),#591,.T.);
#613=ADVANCED_FACE('',(#80),#592,.T.);
#614=ADVANCED_FACE('',(#81),#593,.T.);
#615=ADVANCED_FACE('',(#82,#30),#45,.T.);
#616=ADVANCED_FACE('',(#83,#31),#46,.T.);
#617=ADVANCED_FACE('',(#84,#32),#47,.T.);
#618=ADVANCED_FACE('',(#85),#48,.T.);
#619=ADVANCED_FACE('',(#86,#33,#34,#35,#36),#49,.T.);
#620=ADVANCED_FACE('',(#87),#50,.F.);
#621=ADVANCED_FACE('',(#88),#51,.F.);
#622=ADVANCED_FACE('',(#89),#52,.F.);
#623=ADVANCED_FACE('',(#90),#53,.F.);
#624=ADVANCED_FACE('',(#91),#54,.F.);
#625=ADVANCED_FACE('',(#92),#55,.F.);
#626=ADVANCED_FACE('',(#93),#56,.F.);
#627=ADVANCED_FACE('',(#94),#57,.F.);
#628=ADVANCED_FACE('',(#95,#37,#38,#39,#40,#41),#58,.F.);
#629=ADVANCED_FACE('',(#96,#42),#59,.T.);
#630=ADVANCED_FACE('',(#97),#60,.T.);
#631=CLOSED_SHELL('',(#594,#595,#596,#597));
#632=CLOSED_SHELL('',(#598,#599,#600,#601,#602,#603,#604,#605,#606,#607,
#608,#609,#610,#611,#612,#613,#614,#615,#616,#617,#618,#619,#620,#621,#622,
#623,#624,#625,#626,#627,#628,#629,#630));
#633=DERIVED_UNIT_ELEMENT(#635,1.);
#634=DERIVED_UNIT_ELEMENT(#1150,-3.);
#635=(
MASS_UNIT()
NAMED_UNIT(*)
SI_UNIT(.KILO.,.GRAM.)
);
#636=DERIVED_UNIT((#633,#634));
#637=MEASURE_REPRESENTATION_ITEM('density measure',
POSITIVE_RATIO_MEASURE(7850.),#636);
#638=PROPERTY_DEFINITION_REPRESENTATION(#643,#640);
#639=PROPERTY_DEFINITION_REPRESENTATION(#644,#641);
#640=REPRESENTATION('material name',(#642),#1147);
#641=REPRESENTATION('density',(#637),#1147);
#642=DESCRIPTIVE_REPRESENTATION_ITEM('Steel','Steel');
#643=PROPERTY_DEFINITION('material property','material name',#1162);
#644=PROPERTY_DEFINITION('material property','density of part',#1162);
#645=AXIS2_PLACEMENT_3D('',#928,#726,#727);
#646=AXIS2_PLACEMENT_3D('',#929,#728,#729);
#647=AXIS2_PLACEMENT_3D('',#930,#730,#731);
#648=AXIS2_PLACEMENT_3D('',#932,#732,#733);
#649=AXIS2_PLACEMENT_3D('',#935,#735,#736);
#650=AXIS2_PLACEMENT_3D('',#936,#737,#738);
#651=AXIS2_PLACEMENT_3D('',#938,#739,#740);
#652=AXIS2_PLACEMENT_3D('',#941,#742,#743);
#653=AXIS2_PLACEMENT_3D('',#942,#744,#745);
#654=AXIS2_PLACEMENT_3D('',#943,#746,#747);
#655=AXIS2_PLACEMENT_3D('',#944,#748,#749);
#656=AXIS2_PLACEMENT_3D('',#946,#750,#751);
#657=AXIS2_PLACEMENT_3D('',#949,#753,#754);
#658=AXIS2_PLACEMENT_3D('',#950,#755,#756);
#659=AXIS2_PLACEMENT_3D('',#984,#758,#759);
#660=AXIS2_PLACEMENT_3D('',#995,#760,#761);
#661=AXIS2_PLACEMENT_3D('',#997,#762,#763);
#662=AXIS2_PLACEMENT_3D('',#1001,#765,#766);
#663=AXIS2_PLACEMENT_3D('',#1002,#767,#768);
#664=AXIS2_PLACEMENT_3D('',#1003,#769,#770);
#665=AXIS2_PLACEMENT_3D('',#1005,#771,#772);
#666=AXIS2_PLACEMENT_3D('',#1008,#774,#775);
#667=AXIS2_PLACEMENT_3D('',#1009,#776,#777);
#668=AXIS2_PLACEMENT_3D('',#1011,#778,#779);
#669=AXIS2_PLACEMENT_3D('',#1014,#781,#782);
#670=AXIS2_PLACEMENT_3D('',#1015,#783,#784);
#671=AXIS2_PLACEMENT_3D('',#1017,#785,#786);
#672=AXIS2_PLACEMENT_3D('',#1020,#788,#789);
#673=AXIS2_PLACEMENT_3D('',#1021,#790,#791);
#674=AXIS2_PLACEMENT_3D('',#1023,#792,#793);
#675=AXIS2_PLACEMENT_3D('',#1026,#795,#796);
#676=AXIS2_PLACEMENT_3D('',#1027,#797,#798);
#677=AXIS2_PLACEMENT_3D('',#1029,#799,#800);
#678=AXIS2_PLACEMENT_3D('',#1032,#802,#803);
#679=AXIS2_PLACEMENT_3D('',#1033,#804,#805);
#680=AXIS2_PLACEMENT_3D('',#1035,#806,#807);
#681=AXIS2_PLACEMENT_3D('',#1037,#808,#809);
#682=AXIS2_PLACEMENT_3D('',#1038,#810,#811);
#683=AXIS2_PLACEMENT_3D('',#1039,#812,#813);
#684=AXIS2_PLACEMENT_3D('',#1042,#814,#815);
#685=AXIS2_PLACEMENT_3D('',#1044,#816,#817);
#686=AXIS2_PLACEMENT_3D('',#1046,#818,#819);
#687=AXIS2_PLACEMENT_3D('',#1047,#820,#821);
#688=AXIS2_PLACEMENT_3D('',#1048,#822,#823);
#689=AXIS2_PLACEMENT_3D('',#1049,#824,#825);
#690=AXIS2_PLACEMENT_3D('',#1052,#826,#827);
#691=AXIS2_PLACEMENT_3D('',#1054,#828,#829);
#692=AXIS2_PLACEMENT_3D('',#1056,#830,#831);
#693=AXIS2_PLACEMENT_3D('',#1057,#832,#833);
#694=AXIS2_PLACEMENT_3D('',#1058,#834,#835);
#695=AXIS2_PLACEMENT_3D('',#1059,#836,#837);
#696=AXIS2_PLACEMENT_3D('',#1061,#838,#839);
#697=AXIS2_PLACEMENT_3D('',#1063,#840,#841);
#698=AXIS2_PLACEMENT_3D('',#1065,#842,#843);
#699=AXIS2_PLACEMENT_3D('',#1066,#844,#845);
#700=AXIS2_PLACEMENT_3D('',#1067,#846,#847);
#701=AXIS2_PLACEMENT_3D('',#1069,#848,#849);
#702=AXIS2_PLACEMENT_3D('',#1071,#851,#852);
#703=AXIS2_PLACEMENT_3D('',#1073,#853,#854);
#704=AXIS2_PLACEMENT_3D('',#1076,#856,#857);
#705=AXIS2_PLACEMENT_3D('',#1077,#858,#859);
#706=AXIS2_PLACEMENT_3D('',#1080,#861,#862);
#707=AXIS2_PLACEMENT_3D('',#1081,#863,#864);
#708=AXIS2_PLACEMENT_3D('',#1083,#866,#867);
#709=AXIS2_PLACEMENT_3D('',#1086,#870,#871);
#710=AXIS2_PLACEMENT_3D('',#1087,#872,#873);
#711=AXIS2_PLACEMENT_3D('',#1088,#874,#875);
#712=AXIS2_PLACEMENT_3D('',#1089,#876,#877);
#713=AXIS2_PLACEMENT_3D('',#1090,#878,#879);
#714=AXIS2_PLACEMENT_3D('',#1107,#888,#889);
#715=AXIS2_PLACEMENT_3D('',#1113,#893,#894);
#716=AXIS2_PLACEMENT_3D('',#1117,#897,#898);
#717=AXIS2_PLACEMENT_3D('',#1121,#901,#902);
#718=AXIS2_PLACEMENT_3D('',#1125,#905,#906);
#719=AXIS2_PLACEMENT_3D('',#1129,#909,#910);
#720=AXIS2_PLACEMENT_3D('',#1133,#913,#914);
#721=AXIS2_PLACEMENT_3D('',#1137,#917,#918);
#722=AXIS2_PLACEMENT_3D('',#1139,#920,#921);
#723=AXIS2_PLACEMENT_3D('',#1140,#922,#923);
#724=AXIS2_PLACEMENT_3D('',#1141,#924,#925);
#725=AXIS2_PLACEMENT_3D('',#1142,#926,#927);
#726=DIRECTION('axis',(0.,0.,1.));
#727=DIRECTION('refdir',(1.,0.,0.));
#728=DIRECTION('axis',(0.,0.,1.));
#729=DIRECTION('refdir',(1.,0.,0.));
#730=DIRECTION('center_axis',(0.,1.,0.));
#731=DIRECTION('ref_axis',(0.,0.,1.));
#732=DIRECTION('center_axis',(0.,1.,0.));
#733=DIRECTION('ref_axis',(0.,0.,1.));
#734=DIRECTION('',(0.,1.,0.));
#735=DIRECTION('center_axis',(0.,1.,0.));
#736=DIRECTION('ref_axis',(0.,0.,1.));
#737=DIRECTION('center_axis',(0.,-1.,0.));
#738=DIRECTION('ref_axis',(0.,0.,-1.));
#739=DIRECTION('center_axis',(0.,1.,0.));
#740=DIRECTION('ref_axis',(0.,0.,1.));
#741=DIRECTION('',(0.,1.,0.));
#742=DIRECTION('center_axis',(0.,1.,0.));
#743=DIRECTION('ref_axis',(0.,0.,1.));
#744=DIRECTION('center_axis',(0.,1.,0.));
#745=DIRECTION('ref_axis',(0.,0.,1.));
#746=DIRECTION('center_axis',(0.,1.,0.));
#747=DIRECTION('ref_axis',(0.,0.,1.));
#748=DIRECTION('center_axis',(0.,0.,-1.));
#749=DIRECTION('ref_axis',(-1.,0.,0.));
#750=DIRECTION('center_axis',(0.,0.,1.));
#751=DIRECTION('ref_axis',(1.,0.,0.));
#752=DIRECTION('',(0.,0.,1.));
#753=DIRECTION('center_axis',(0.,0.,1.));
#754=DIRECTION('ref_axis',(1.,0.,0.));
#755=DIRECTION('center_axis',(0.,0.,-1.));
#756=DIRECTION('ref_axis',(-1.,0.,0.));
#757=DIRECTION('',(0.,0.,1.));
#758=DIRECTION('center_axis',(0.,0.,1.));
#759=DIRECTION('ref_axis',(1.,0.,0.));
#760=DIRECTION('center_axis',(0.,-1.,0.));
#761=DIRECTION('ref_axis',(0.,0.,-1.));
#762=DIRECTION('center_axis',(0.,1.,0.));
#763=DIRECTION('ref_axis',(0.,0.,1.));
#764=DIRECTION('',(0.,1.,0.));
#765=DIRECTION('center_axis',(-3.08395284618099E-16,1.,0.));
#766=DIRECTION('ref_axis',(-1.,-3.08395284618099E-16,0.));
#767=DIRECTION('center_axis',(-3.08395284618099E-16,1.,0.));
#768=DIRECTION('ref_axis',(-1.,-3.08395284618099E-16,0.));
#769=DIRECTION('center_axis',(0.,-1.,0.));
#770=DIRECTION('ref_axis',(0.,0.,-1.));
#771=DIRECTION('center_axis',(0.,1.,0.));
#772=DIRECTION('ref_axis',(0.,0.,-1.));
#773=DIRECTION('',(0.,1.,0.));
#774=DIRECTION('center_axis',(0.,1.,0.));
#775=DIRECTION('ref_axis',(0.,0.,1.));
#776=DIRECTION('center_axis',(0.,-1.,0.));
#777=DIRECTION('ref_axis',(0.,0.,-1.));
#778=DIRECTION('center_axis',(0.,1.,0.));
#779=DIRECTION('ref_axis',(0.,0.,1.));
#780=DIRECTION('',(0.,-1.,0.));
#781=DIRECTION('center_axis',(0.,1.,0.));
#782=DIRECTION('ref_axis',(0.,0.,1.));
#783=DIRECTION('center_axis',(0.,-1.,0.));
#784=DIRECTION('ref_axis',(0.,0.,-1.));
#785=DIRECTION('center_axis',(0.,1.,0.));
#786=DIRECTION('ref_axis',(0.,0.,1.));
#787=DIRECTION('',(0.,-1.,0.));
#788=DIRECTION('center_axis',(0.,1.,0.));
#789=DIRECTION('ref_axis',(0.,0.,1.));
#790=DIRECTION('center_axis',(0.,-1.,0.));
#791=DIRECTION('ref_axis',(0.,0.,-1.));
#792=DIRECTION('center_axis',(0.,1.,0.));
#793=DIRECTION('ref_axis',(0.,0.,1.));
#794=DIRECTION('',(0.,-1.,0.));
#795=DIRECTION('center_axis',(0.,1.,0.));
#796=DIRECTION('ref_axis',(0.,0.,1.));
#797=DIRECTION('center_axis',(0.,-1.,0.));
#798=DIRECTION('ref_axis',(0.,0.,-1.));
#799=DIRECTION('center_axis',(0.,1.,0.));
#800=DIRECTION('ref_axis',(0.,0.,1.));
#801=DIRECTION('',(0.,-1.,0.));
#802=DIRECTION('center_axis',(0.,1.,0.));
#803=DIRECTION('ref_axis',(0.,0.,1.));
#804=DIRECTION('center_axis',(3.08395284618099E-16,-1.,0.));
#805=DIRECTION('ref_axis',(1.,2.77555756156289E-16,0.));
#806=DIRECTION('center_axis',(1.38777878078145E-16,4.27984432086052E-32,
-1.));
#807=DIRECTION('ref_axis',(-1.,-2.77555756156289E-16,-1.38777878078145E-16));
#808=DIRECTION('center_axis',(3.08395284618099E-16,-1.,0.));
#809=DIRECTION('ref_axis',(1.,3.08395284618099E-16,0.));
#810=DIRECTION('center_axis',(3.08395284618099E-16,-1.,0.));
#811=DIRECTION('ref_axis',(1.,3.08395284618099E-16,0.));
#812=DIRECTION('center_axis',(3.08395284618099E-16,-1.,0.));
#813=DIRECTION('ref_axis',(1.,3.33066907387547E-16,0.));
#814=DIRECTION('center_axis',(-3.08395284618099E-16,1.,0.));
#815=DIRECTION('ref_axis',(-1.,-3.08395284618099E-16,0.));
#816=DIRECTION('center_axis',(1.38777878078145E-16,4.27984432086052E-32,
-1.));
#817=DIRECTION('ref_axis',(-1.,-2.77555756156289E-16,-1.38777878078144E-16));
#818=DIRECTION('center_axis',(3.08395284618099E-16,-1.,0.));
#819=DIRECTION('ref_axis',(1.,3.08395284618099E-16,0.));
#820=DIRECTION('center_axis',(3.08395284618099E-16,-1.,0.));
#821=DIRECTION('ref_axis',(1.,3.08395284618099E-16,0.));
#822=DIRECTION('center_axis',(-3.08395284618099E-16,1.,0.));
#823=DIRECTION('ref_axis',(-1.,-3.08395284618099E-16,0.));
#824=DIRECTION('center_axis',(3.08395284618099E-16,-1.,0.));
#825=DIRECTION('ref_axis',(1.,2.22044604925031E-16,0.));
#826=DIRECTION('center_axis',(-3.08395284618099E-16,1.,0.));
#827=DIRECTION('ref_axis',(-1.,-3.08395284618099E-16,0.));
#828=DIRECTION('center_axis',(1.38777878078145E-16,4.27984432086052E-32,
-1.));
#829=DIRECTION('ref_axis',(-1.,-2.77555756156289E-16,-1.38777878078145E-16));
#830=DIRECTION('center_axis',(3.08395284618099E-16,-1.,0.));
#831=DIRECTION('ref_axis',(1.,3.08395284618099E-16,0.));
#832=DIRECTION('center_axis',(3.08395284618099E-16,-1.,0.));
#833=DIRECTION('ref_axis',(1.,3.08395284618099E-16,0.));
#834=DIRECTION('center_axis',(-3.08395284618099E-16,1.,0.));
#835=DIRECTION('ref_axis',(-1.,-3.08395284618099E-16,0.));
#836=DIRECTION('center_axis',(0.,1.,0.));
#837=DIRECTION('ref_axis',(0.,0.,1.));
#838=DIRECTION('center_axis',(0.,1.,0.));
#839=DIRECTION('ref_axis',(0.,0.,1.));
#840=DIRECTION('center_axis',(1.,0.,0.));
#841=DIRECTION('ref_axis',(0.,0.,-1.));
#842=DIRECTION('center_axis',(0.,-1.,0.));
#843=DIRECTION('ref_axis',(0.,0.,1.));
#844=DIRECTION('center_axis',(0.,-1.,0.));
#845=DIRECTION('ref_axis',(0.,0.,1.));
#846=DIRECTION('center_axis',(0.,-1.,0.));
#847=DIRECTION('ref_axis',(0.,0.,-1.));
#848=DIRECTION('center_axis',(0.,1.,0.));
#849=DIRECTION('ref_axis',(0.,0.,1.));
#850=DIRECTION('',(0.,-1.,0.));
#851=DIRECTION('center_axis',(0.,-1.,0.));
#852=DIRECTION('ref_axis',(0.,0.,-1.));
#853=DIRECTION('center_axis',(0.,1.,0.));
#854=DIRECTION('ref_axis',(0.,0.,1.));
#855=DIRECTION('',(0.,1.,0.));
#856=DIRECTION('center_axis',(0.,1.,0.));
#857=DIRECTION('ref_axis',(0.,0.,1.));
#858=DIRECTION('center_axis',(0.,-1.,0.));
#859=DIRECTION('ref_axis',(0.,0.,-1.));
#860=DIRECTION('',(0.,1.,0.));
#861=DIRECTION('center_axis',(0.,1.,0.));
#862=DIRECTION('ref_axis',(0.,0.,1.));
#863=DIRECTION('center_axis',(0.,-1.,0.));
#864=DIRECTION('ref_axis',(0.,0.,-1.));
#865=DIRECTION('',(0.,1.,0.));
#866=DIRECTION('center_axis',(0.,-1.,0.));
#867=DIRECTION('ref_axis',(0.,0.,-1.));
#868=DIRECTION('',(0.,1.,0.));
#869=DIRECTION('',(0.,1.,0.));
#870=DIRECTION('center_axis',(0.,0.,1.));
#871=DIRECTION('ref_axis',(1.,0.,0.));
#872=DIRECTION('center_axis',(0.,1.,0.));
#873=DIRECTION('ref_axis',(0.,0.,1.));
#874=DIRECTION('center_axis',(0.,1.,0.));
#875=DIRECTION('ref_axis',(0.,0.,1.));
#876=DIRECTION('center_axis',(0.,1.,0.));
#877=DIRECTION('ref_axis',(0.,0.,1.));
#878=DIRECTION('center_axis',(0.,-1.,0.));
#879=DIRECTION('ref_axis',(0.,0.,-1.));
#880=DIRECTION('',(0.,0.,1.));
#881=DIRECTION('',(0.707106781186547,0.,-0.707106781186547));
#882=DIRECTION('',(-1.,0.,0.));
#883=DIRECTION('',(0.707106781186548,0.,0.707106781186547));
#884=DIRECTION('',(0.,0.,-1.));
#885=DIRECTION('',(-0.707106781186549,0.,0.707106781186546));
#886=DIRECTION('',(1.,0.,0.));
#887=DIRECTION('',(-0.707106781186547,0.,-0.707106781186547));
#888=DIRECTION('center_axis',(-0.707106781186547,0.,0.707106781186548));
#889=DIRECTION('ref_axis',(0.707106781186548,0.,0.707106781186547));
#890=DIRECTION('',(-0.707106781186548,0.,-0.707106781186547));
#891=DIRECTION('',(0.,1.,0.));
#892=DIRECTION('',(0.,-1.,0.));
#893=DIRECTION('center_axis',(-1.,0.,0.));
#894=DIRECTION('ref_axis',(0.,0.,1.));
#895=DIRECTION('',(0.,0.,-1.));
#896=DIRECTION('',(0.,-1.,0.));
#897=DIRECTION('center_axis',(-0.707106781186546,0.,-0.707106781186549));
#898=DIRECTION('ref_axis',(-0.707106781186549,0.,0.707106781186546));
#899=DIRECTION('',(0.707106781186549,0.,-0.707106781186546));
#900=DIRECTION('',(0.,1.,0.));
#901=DIRECTION('center_axis',(0.,0.,-1.));
#902=DIRECTION('ref_axis',(-1.,0.,0.));
#903=DIRECTION('',(1.,0.,0.));
#904=DIRECTION('',(0.,-1.,0.));
#905=DIRECTION('center_axis',(0.707106781186548,0.,-0.707106781186548));
#906=DIRECTION('ref_axis',(-0.707106781186548,0.,-0.707106781186548));
#907=DIRECTION('',(0.707106781186547,0.,0.707106781186547));
#908=DIRECTION('',(0.,1.,0.));
#909=DIRECTION('center_axis',(1.,0.,0.));
#910=DIRECTION('ref_axis',(0.,0.,-1.));
#911=DIRECTION('',(0.,0.,1.));
#912=DIRECTION('',(0.,-1.,0.));
#913=DIRECTION('center_axis',(0.707106781186548,0.,0.707106781186548));
#914=DIRECTION('ref_axis',(0.707106781186548,0.,-0.707106781186548));
#915=DIRECTION('',(-0.707106781186547,0.,0.707106781186547));
#916=DIRECTION('',(0.,1.,0.));
#917=DIRECTION('center_axis',(0.,0.,1.));
#918=DIRECTION('ref_axis',(1.,0.,0.));
#919=DIRECTION('',(-1.,0.,0.));
#920=DIRECTION('center_axis',(0.,-1.,0.));
#921=DIRECTION('ref_axis',(0.,0.,-1.));
#922=DIRECTION('center_axis',(0.,1.,0.));
#923=DIRECTION('ref_axis',(0.,0.,1.));
#924=DIRECTION('center_axis',(0.,0.,1.));
#925=DIRECTION('ref_axis',(1.,0.,0.));
#926=DIRECTION('',(0.,0.,1.));
#927=DIRECTION('',(1.,0.,0.));
#928=CARTESIAN_POINT('',(0.,0.,0.));
#929=CARTESIAN_POINT('',(0.,0.,0.));
#930=CARTESIAN_POINT('Origin',(65.,90.,-65.));
#931=CARTESIAN_POINT('',(65.,75.,-70.1));
#932=CARTESIAN_POINT('Origin',(65.,75.,-65.));
#933=CARTESIAN_POINT('',(65.,90.,-70.1));
#934=CARTESIAN_POINT('',(65.,90.,-70.1));
#935=CARTESIAN_POINT('Origin',(65.,90.,-65.));
#936=CARTESIAN_POINT('Origin',(65.,90.,-65.));
#937=CARTESIAN_POINT('',(65.,75.,-38.));
#938=CARTESIAN_POINT('Origin',(65.,75.,-65.));
#939=CARTESIAN_POINT('',(65.,90.,-38.));
#940=CARTESIAN_POINT('',(65.,90.,-38.));
#941=CARTESIAN_POINT('Origin',(65.,90.,-65.));
#942=CARTESIAN_POINT('Origin',(65.,90.,-65.));
#943=CARTESIAN_POINT('Origin',(65.,75.,-65.));
#944=CARTESIAN_POINT('Origin',(65.,35.,12.));
#945=CARTESIAN_POINT('',(69.,35.,2.));
#946=CARTESIAN_POINT('Origin',(65.,35.,2.));
#947=CARTESIAN_POINT('',(69.,35.,12.));
#948=CARTESIAN_POINT('',(69.,35.,12.));
#949=CARTESIAN_POINT('Origin',(65.,35.,12.));
#950=CARTESIAN_POINT('Origin',(65.,35.,2.));
#951=CARTESIAN_POINT('',(65.,40.,-3.));
#952=CARTESIAN_POINT('',(65.,30.,-3.));
#953=CARTESIAN_POINT('Ctrl Pts',(65.,40.,-3.));
#954=CARTESIAN_POINT('Ctrl Pts',(64.3718965958967,40.,-3.));
#955=CARTESIAN_POINT('Ctrl Pts',(63.7021126671986,39.8744175727315,-3.01052352783162));
#956=CARTESIAN_POINT('Ctrl Pts',(62.470296062412,39.364064178446,-3.04856496564911));
#957=CARTESIAN_POINT('Ctrl Pts',(61.9082404721823,38.9793082840478,-3.07554117144242));
#958=CARTESIAN_POINT('Ctrl Pts',(61.0206910791425,38.091758891008,-3.12623593745889));
#959=CARTESIAN_POINT('Ctrl Pts',(60.6359356780606,37.5297035824886,-3.15325052185904));
#960=CARTESIAN_POINT('Ctrl Pts',(60.1255826625601,36.2978879094699,-3.19137977415553));
#961=CARTESIAN_POINT('Ctrl Pts',(60.,35.6281043054224,-3.20194177807849));
#962=CARTESIAN_POINT('Ctrl Pts',(60.,34.3718956945776,-3.20194177807849));
#963=CARTESIAN_POINT('Ctrl Pts',(60.1255826625601,33.7021120905301,-3.19137977415553));
#964=CARTESIAN_POINT('Ctrl Pts',(60.6359356780606,32.4702964175114,-3.15325052185904));
#965=CARTESIAN_POINT('Ctrl Pts',(61.0206910791425,31.908241108992,-3.12623593745889));
#966=CARTESIAN_POINT('Ctrl Pts',(61.9082404721823,31.0206917159522,-3.07554117144242));
#967=CARTESIAN_POINT('Ctrl Pts',(62.470296062412,30.635935821554,-3.04856496564911));
#968=CARTESIAN_POINT('Ctrl Pts',(63.7021126671986,30.1255824272685,-3.01052352783162));
#969=CARTESIAN_POINT('Ctrl Pts',(64.3718965958967,30.,-3.));
#970=CARTESIAN_POINT('Ctrl Pts',(65.,30.,-3.));
#971=CARTESIAN_POINT('',(70.,35.,-3.20194177807849));
#972=CARTESIAN_POINT('Ctrl Pts',(65.,30.,-3.));
#973=CARTESIAN_POINT('Ctrl Pts',(65.6281034041033,30.,-3.));
#974=CARTESIAN_POINT('Ctrl Pts',(66.2978873328014,30.1255824272685,-3.01052352783162));
#975=CARTESIAN_POINT('Ctrl Pts',(67.529703937588,30.635935821554,-3.04856496564911));
#976=CARTESIAN_POINT('Ctrl Pts',(68.0917595278177,31.0206917159522,-3.07554117144242));
#977=CARTESIAN_POINT('Ctrl Pts',(68.9793089208574,31.908241108992,-3.12623593745889));
#978=CARTESIAN_POINT('Ctrl Pts',(69.3640643219394,32.4702964175114,-3.15325052185904));
#979=CARTESIAN_POINT('Ctrl Pts',(69.8744173374399,33.7021120905301,-3.19137977415553));
#980=CARTESIAN_POINT('Ctrl Pts',(70.,34.3718956945776,-3.20194177807849));
#981=CARTESIAN_POINT('Ctrl Pts',(70.,35.,-3.20194177807849));
#982=CARTESIAN_POINT('',(70.,35.,2.));
#983=CARTESIAN_POINT('',(70.,35.,2.));
#984=CARTESIAN_POINT('Origin',(65.,35.,2.));
#985=CARTESIAN_POINT('Ctrl Pts',(70.,35.,-3.20194177807849));
#986=CARTESIAN_POINT('Ctrl Pts',(70.,35.6281043054224,-3.20194177807849));
#987=CARTESIAN_POINT('Ctrl Pts',(69.8744173374399,36.2978879094699,-3.19137977415553));
#988=CARTESIAN_POINT('Ctrl Pts',(69.3640643219394,37.5297035824886,-3.15325052185904));
#989=CARTESIAN_POINT('Ctrl Pts',(68.9793089208574,38.091758891008,-3.12623593745889));
#990=CARTESIAN_POINT('Ctrl Pts',(68.0917595278177,38.9793082840478,-3.07554117144242));
#991=CARTESIAN_POINT('Ctrl Pts',(67.529703937588,39.364064178446,-3.04856496564911));
#992=CARTESIAN_POINT('Ctrl Pts',(66.2978873328014,39.8744175727315,-3.01052352783162));
#993=CARTESIAN_POINT('Ctrl Pts',(65.6281034041033,40.,-3.));
#994=CARTESIAN_POINT('Ctrl Pts',(65.,40.,-3.));
#995=CARTESIAN_POINT('Origin',(65.,75.,-65.));
#996=CARTESIAN_POINT('',(65.,9.,-3.));
#997=CARTESIAN_POINT('Origin',(65.,9.,-65.));
#998=CARTESIAN_POINT('',(65.,23.,-3.));
#999=CARTESIAN_POINT('',(65.,75.,-3.));
#1000=CARTESIAN_POINT('',(3.00000000000002,23.,-65.));
#1001=CARTESIAN_POINT('Origin',(65.,23.,-65.));
#1002=CARTESIAN_POINT('Origin',(65.,23.,-65.));
#1003=CARTESIAN_POINT('Origin',(65.,9.,-65.));
#1004=CARTESIAN_POINT('',(65.,3.,-0.999999999999996));
#1005=CARTESIAN_POINT('Origin',(65.,3.,-65.));
#1006=CARTESIAN_POINT('',(65.,9.,-0.999999999999996));
#1007=CARTESIAN_POINT('',(65.,9.,-0.999999999999996));
#1008=CARTESIAN_POINT('Origin',(65.,9.,-65.));
#1009=CARTESIAN_POINT('Origin',(11.,3.,-11.));
#1010=CARTESIAN_POINT('',(11.,3.,-7.5));
#1011=CARTESIAN_POINT('Origin',(11.,3.,-11.));
#1012=CARTESIAN_POINT('',(11.,0.,-7.5));
#1013=CARTESIAN_POINT('',(11.,3.,-7.5));
#1014=CARTESIAN_POINT('Origin',(11.,0.,-11.));
#1015=CARTESIAN_POINT('Origin',(119.,3.,-119.));
#1016=CARTESIAN_POINT('',(119.,3.,-115.5));
#1017=CARTESIAN_POINT('Origin',(119.,3.,-119.));
#1018=CARTESIAN_POINT('',(119.,0.,-115.5));
#1019=CARTESIAN_POINT('',(119.,3.,-115.5));
#1020=CARTESIAN_POINT('Origin',(119.,0.,-119.));
#1021=CARTESIAN_POINT('Origin',(11.,3.,-119.));
#1022=CARTESIAN_POINT('',(11.,3.,-115.5));
#1023=CARTESIAN_POINT('Origin',(11.,3.,-119.));
#1024=CARTESIAN_POINT('',(11.,0.,-115.5));
#1025=CARTESIAN_POINT('',(11.,3.,-115.5));
#1026=CARTESIAN_POINT('Origin',(11.,0.,-119.));
#1027=CARTESIAN_POINT('Origin',(119.,3.,-11.));
#1028=CARTESIAN_POINT('',(119.,3.,-7.49999999999999));
#1029=CARTESIAN_POINT('Origin',(119.,3.,-11.));
#1030=CARTESIAN_POINT('',(119.,0.,-7.49999999999999));
#1031=CARTESIAN_POINT('',(119.,3.,-7.49999999999999));
#1032=CARTESIAN_POINT('Origin',(119.,0.,-11.));
#1033=CARTESIAN_POINT('Origin',(65.,25.,-65.));
#1034=CARTESIAN_POINT('',(3.00000000000002,27.,-65.));
#1035=CARTESIAN_POINT('Origin',(3.00000000000001,25.,-65.));
#1036=CARTESIAN_POINT('',(65.,27.,-3.));
#1037=CARTESIAN_POINT('Origin',(65.,27.,-65.));
#1038=CARTESIAN_POINT('Origin',(65.,27.,-65.));
#1039=CARTESIAN_POINT('Origin',(65.,47.,-65.));
#1040=CARTESIAN_POINT('',(65.,45.0000000000001,-3.));
#1041=CARTESIAN_POINT('',(3.00000000000002,45.,-65.));
#1042=CARTESIAN_POINT('Origin',(65.,45.,-65.));
#1043=CARTESIAN_POINT('',(3.00000000000002,49.,-65.));
#1044=CARTESIAN_POINT('Origin',(3.,47.,-65.));
#1045=CARTESIAN_POINT('',(65.,49.,-3.));
#1046=CARTESIAN_POINT('Origin',(65.,49.,-65.));
#1047=CARTESIAN_POINT('Origin',(65.,49.,-65.));
#1048=CARTESIAN_POINT('Origin',(65.,45.,-65.));
#1049=CARTESIAN_POINT('Origin',(65.,69.,-65.));
#1050=CARTESIAN_POINT('',(65.,67.,-3.));
#1051=CARTESIAN_POINT('',(3.,67.,-65.));
#1052=CARTESIAN_POINT('Origin',(65.,67.,-65.));
#1053=CARTESIAN_POINT('',(3.,71.,-65.));
#1054=CARTESIAN_POINT('Origin',(3.,69.,-65.));
#1055=CARTESIAN_POINT('',(65.,71.,-3.));
#1056=CARTESIAN_POINT('Origin',(65.,71.,-65.));
#1057=CARTESIAN_POINT('Origin',(65.,71.,-65.));
#1058=CARTESIAN_POINT('Origin',(65.,67.,-65.));
#1059=CARTESIAN_POINT('Origin',(65.,76.,-65.));
#1060=CARTESIAN_POINT('',(65.,75.,-91.));
#1061=CARTESIAN_POINT('Origin',(65.,75.,-65.));
#1062=CARTESIAN_POINT('',(65.,76.,-92.));
#1063=CARTESIAN_POINT('Origin',(65.,76.,-91.));
#1064=CARTESIAN_POINT('',(65.,76.,-38.));
#1065=CARTESIAN_POINT('Origin',(65.,76.,-65.));
#1066=CARTESIAN_POINT('Origin',(65.,76.,-65.));
#1067=CARTESIAN_POINT('Origin',(65.,90.,-65.));
#1068=CARTESIAN_POINT('',(65.,90.,-38.));
#1069=CARTESIAN_POINT('Origin',(65.,90.,-65.));
#1070=CARTESIAN_POINT('',(65.,90.,-38.));
#1071=CARTESIAN_POINT('Origin',(65.,90.,-65.));
#1072=CARTESIAN_POINT('',(65.,75.,-35.));
#1073=CARTESIAN_POINT('Origin',(65.,75.,-65.));
#1074=CARTESIAN_POINT('',(65.,90.,-35.));
#1075=CARTESIAN_POINT('',(65.,90.,-35.));
#1076=CARTESIAN_POINT('Origin',(65.,90.,-65.));
#1077=CARTESIAN_POINT('Origin',(65.,75.,-65.));
#1078=CARTESIAN_POINT('',(65.,75.,-3.));
#1079=CARTESIAN_POINT('',(65.,75.,-3.));
#1080=CARTESIAN_POINT('Origin',(65.,75.,-65.));
#1081=CARTESIAN_POINT('Origin',(65.,75.,-65.));
#1082=CARTESIAN_POINT('',(65.,75.,-3.));
#1083=CARTESIAN_POINT('Origin',(65.,75.,-65.));
#1084=CARTESIAN_POINT('',(65.,75.,-3.));
#1085=CARTESIAN_POINT('',(65.,75.,-3.));
#1086=CARTESIAN_POINT('Origin',(65.,35.,2.));
#1087=CARTESIAN_POINT('Origin',(65.,75.,-65.));
#1088=CARTESIAN_POINT('Origin',(65.,90.,-65.));
#1089=CARTESIAN_POINT('Origin',(65.,75.,-65.));
#1090=CARTESIAN_POINT('Origin',(0.,0.,-130.));
#1091=CARTESIAN_POINT('',(-1.43114686768087E-14,0.,-120.));
#1092=CARTESIAN_POINT('',(0.,0.,-10.));
#1093=CARTESIAN_POINT('',(0.,0.,0.));
#1094=CARTESIAN_POINT('',(10.,0.,-130.));
#1095=CARTESIAN_POINT('',(5.,0.,-125.));
#1096=CARTESIAN_POINT('',(120.,0.,-130.));
#1097=CARTESIAN_POINT('',(0.,0.,-130.));
#1098=CARTESIAN_POINT('',(130.,0.,-120.));
#1099=CARTESIAN_POINT('',(59.9999999999999,0.,-190.));
#1100=CARTESIAN_POINT('',(130.,0.,-9.9999999999999));
#1101=CARTESIAN_POINT('',(130.,0.,0.));
#1102=CARTESIAN_POINT('',(120.,0.,0.));
#1103=CARTESIAN_POINT('',(125.,0.,-4.9999999999997));
#1104=CARTESIAN_POINT('',(10.,0.,1.38777878078145E-14));
#1105=CARTESIAN_POINT('',(0.,0.,0.));
#1106=CARTESIAN_POINT('',(-60.,0.,-70.));
#1107=CARTESIAN_POINT('Origin',(120.,3.,-130.));
#1108=CARTESIAN_POINT('',(130.,3.,-120.));
#1109=CARTESIAN_POINT('',(120.,3.,-130.));
#1110=CARTESIAN_POINT('',(120.,3.,-130.));
#1111=CARTESIAN_POINT('',(130.,3.,-120.));
#1112=CARTESIAN_POINT('',(120.,3.,-130.));
#1113=CARTESIAN_POINT('Origin',(130.,3.,0.));
#1114=CARTESIAN_POINT('',(130.,3.,-9.99999999999995));
#1115=CARTESIAN_POINT('',(130.,3.,0.));
#1116=CARTESIAN_POINT('',(130.,3.,-9.99999999999995));
#1117=CARTESIAN_POINT('Origin',(130.,3.,-9.99999999999995));
#1118=CARTESIAN_POINT('',(120.,3.,7.80625564189563E-15));
#1119=CARTESIAN_POINT('',(130.,3.,-9.99999999999995));
#1120=CARTESIAN_POINT('',(120.,3.,0.));
#1121=CARTESIAN_POINT('Origin',(0.,3.,0.));
#1122=CARTESIAN_POINT('',(10.,3.,-8.67361737988404E-16));
#1123=CARTESIAN_POINT('',(0.,3.,0.));
#1124=CARTESIAN_POINT('',(10.,3.,0.));
#1125=CARTESIAN_POINT('Origin',(10.,3.,0.));
#1126=CARTESIAN_POINT('',(-8.67361737988404E-16,3.,-10.));
#1127=CARTESIAN_POINT('',(10.,3.,0.));
#1128=CARTESIAN_POINT('',(0.,3.,-10.));
#1129=CARTESIAN_POINT('Origin',(0.,3.,0.));
#1130=CARTESIAN_POINT('',(-1.04083408558608E-14,3.,-120.));
#1131=CARTESIAN_POINT('',(0.,3.,0.));
#1132=CARTESIAN_POINT('',(0.,3.,-120.));
#1133=CARTESIAN_POINT('Origin',(0.,3.,-120.));
#1134=CARTESIAN_POINT('',(10.,3.,-130.));
#1135=CARTESIAN_POINT('',(0.,3.,-120.));
#1136=CARTESIAN_POINT('',(10.,3.,-130.));
#1137=CARTESIAN_POINT('Origin',(0.,3.,-130.));
#1138=CARTESIAN_POINT('',(0.,3.,-130.));
#1139=CARTESIAN_POINT('Origin',(0.,3.,-130.));
#1140=CARTESIAN_POINT('Origin',(65.,9.,-65.));
#1141=CARTESIAN_POINT('Origin',(65.,35.,12.));
#1142=CARTESIAN_POINT('',(0.,0.,0.));
#1143=UNCERTAINTY_MEASURE_WITH_UNIT(LENGTH_MEASURE(0.01),#1149,
'DISTANCE_ACCURACY_VALUE',
'Maximum model space distance between geometric entities at asserted c
onnectivities');
#1144=UNCERTAINTY_MEASURE_WITH_UNIT(LENGTH_MEASURE(0.01),#1149,
'DISTANCE_ACCURACY_VALUE',
'Maximum model space distance between geometric entities at asserted c
onnectivities');
#1145=UNCERTAINTY_MEASURE_WITH_UNIT(LENGTH_MEASURE(0.01),#1149,
'DISTANCE_ACCURACY_VALUE',
'Maximum model space distance between geometric entities at asserted c
onnectivities');
#1146=(
GEOMETRIC_REPRESENTATION_CONTEXT(3)
GLOBAL_UNCERTAINTY_ASSIGNED_CONTEXT((#1143))
GLOBAL_UNIT_ASSIGNED_CONTEXT((#1149,#1151,#1152))
REPRESENTATION_CONTEXT('','3D')
);
#1147=(
GEOMETRIC_REPRESENTATION_CONTEXT(3)
GLOBAL_UNCERTAINTY_ASSIGNED_CONTEXT((#1144))
GLOBAL_UNIT_ASSIGNED_CONTEXT((#1149,#1151,#1152))
REPRESENTATION_CONTEXT('','3D')
);
#1148=(
GEOMETRIC_REPRESENTATION_CONTEXT(3)
GLOBAL_UNCERTAINTY_ASSIGNED_CONTEXT((#1145))
GLOBAL_UNIT_ASSIGNED_CONTEXT((#1149,#1151,#1152))
REPRESENTATION_CONTEXT('','3D')
);
#1149=(
LENGTH_UNIT()
NAMED_UNIT(*)
SI_UNIT(.MILLI.,.METRE.)
);
#1150=(
LENGTH_UNIT()
NAMED_UNIT(*)
SI_UNIT($,.METRE.)
);
#1151=(
NAMED_UNIT(*)
PLANE_ANGLE_UNIT()
SI_UNIT($,.RADIAN.)
);
#1152=(
NAMED_UNIT(*)
SI_UNIT($,.STERADIAN.)
SOLID_ANGLE_UNIT()
);
#1153=SHAPE_DEFINITION_REPRESENTATION(#1155,#1158);
#1154=SHAPE_DEFINITION_REPRESENTATION(#1156,#1159);
#1155=PRODUCT_DEFINITION_SHAPE('',$,#1161);
#1156=PRODUCT_DEFINITION_SHAPE('',$,#1162);
#1157=PRODUCT_DEFINITION_SHAPE($,$,#14);
#1158=SHAPE_REPRESENTATION('',(#645,#725),#1146);
#1159=SHAPE_REPRESENTATION('',(#646),#1147);
#1160=PRODUCT_DEFINITION_CONTEXT('part definition',#1168,'design');
#1161=PRODUCT_DEFINITION('PWA076-Step','PWA076-Step v1',#1163,#1160);
#1162=PRODUCT_DEFINITION('CG0018 - Pneumatic Mount',
'CG0018 - Pneumatic Mount',#1164,#1160);
#1163=PRODUCT_DEFINITION_FORMATION('',$,#1170);
#1164=PRODUCT_DEFINITION_FORMATION('',$,#1171);
#1165=PRODUCT_RELATED_PRODUCT_CATEGORY('PWA076-Step v1',
'PWA076-Step v1',(#1170));
#1166=PRODUCT_RELATED_PRODUCT_CATEGORY('CG0018 - Pneumatic Mount',
'CG0018 - Pneumatic Mount',(#1171));
#1167=APPLICATION_PROTOCOL_DEFINITION('international standard',
'automotive_design',2009,#1168);
#1168=APPLICATION_CONTEXT(
'Core Data for Automotive Mechanical Design Process');
#1169=PRODUCT_CONTEXT('part definition',#1168,'mechanical');
#1170=PRODUCT('PWA076-Step','PWA076-Step v1',$,(#1169));
#1171=PRODUCT('CG0018 - Pneumatic Mount','CG0018 - Pneumatic Mount',$,(#1169));
#1172=PRESENTATION_STYLE_ASSIGNMENT((#1173));
#1173=SURFACE_STYLE_USAGE(.BOTH.,#1174);
#1174=SURFACE_SIDE_STYLE('',(#1175));
#1175=SURFACE_STYLE_FILL_AREA(#1176);
#1176=FILL_AREA_STYLE('Steel - Satin',(#1177));
#1177=FILL_AREA_STYLE_COLOUR('Steel - Satin',#1178);
#1178=COLOUR_RGB('Steel - Satin',0.627450980392157,0.627450980392157,0.627450980392157);
ENDSEC;
END-ISO-10303-21;
