ISO-10303-21;
HEADER;
/* Generated by software containing ST-Developer
 * from STEP Tools, Inc. (www.steptools.com) 
 */

FILE_DESCRIPTION(
/* description */ (''),
/* implementation_level */ '2;1');

FILE_NAME(
/* name */ 'pn11270036 v1.step',
/* time_stamp */ '2024-06-19T11:01:54+02:00',
/* author */ (''),
/* organization */ (''),
/* preprocessor_version */ 'ST-DEVELOPER v20',
/* originating_system */ 'Autodesk Translation Framework v13.14.0.145',

/* authorisation */ '');

FILE_SCHEMA (('AUTOMOTIVE_DESIGN { 1 0 10303 214 3 1 1 }'));
ENDSEC;

DATA;
#10=MECHANICAL_DESIGN_GEOMETRIC_PRESENTATION_REPRESENTATION('',(#13),#378);
#11=SHAPE_REPRESENTATION_RELATIONSHIP('SRR','None',#385,#12);
#12=ADVANCED_BREP_SHAPE_REPRESENTATION('',(#14),#377);
#13=STYLED_ITEM('',(#394),#14);
#14=MANIFOLD_SOLID_BREP('Body1',#203);
#15=CYLINDRICAL_SURFACE('',#235,0.783500000000001);
#16=CYLINDRICAL_SURFACE('',#239,1.);
#17=TOROIDAL_SURFACE('',#231,0.883500000000001,0.1);
#18=FACE_BOUND('',#56,.T.);
#19=CONICAL_SURFACE('',#227,1.84313236870815,0.0872664625997165);
#20=CONICAL_SURFACE('',#237,0.891750000000001,0.304039745155823);
#21=CONICAL_SURFACE('',#241,0.89175,0.785398163397449);
#22=CIRCLE('',#220,1.83875793553185);
#23=CIRCLE('',#221,1.83875793553185);
#24=CIRCLE('',#223,1.7862647374163);
#25=CIRCLE('',#225,1.7862647374163);
#26=CIRCLE('',#226,1.7862647374163);
#27=CIRCLE('',#228,1.9);
#28=CIRCLE('',#230,0.883500000000001);
#29=CIRCLE('',#232,0.1);
#30=CIRCLE('',#233,0.783500000000001);
#31=CIRCLE('',#234,0.783500000000001);
#32=CIRCLE('',#236,0.783500000000001);
#33=CIRCLE('',#238,1.);
#34=CIRCLE('',#240,1.);
#35=CIRCLE('',#242,0.7835);
#36=FACE_OUTER_BOUND('',#49,.T.);
#37=FACE_OUTER_BOUND('',#50,.T.);
#38=FACE_OUTER_BOUND('',#51,.T.);
#39=FACE_OUTER_BOUND('',#52,.T.);
#40=FACE_OUTER_BOUND('',#53,.T.);
#41=FACE_OUTER_BOUND('',#54,.T.);
#42=FACE_OUTER_BOUND('',#55,.T.);
#43=FACE_OUTER_BOUND('',#57,.T.);
#44=FACE_OUTER_BOUND('',#58,.T.);
#45=FACE_OUTER_BOUND('',#59,.T.);
#46=FACE_OUTER_BOUND('',#60,.T.);
#47=FACE_OUTER_BOUND('',#61,.T.);
#48=FACE_OUTER_BOUND('',#62,.T.);
#49=EDGE_LOOP('',(#129,#130,#131,#132));
#50=EDGE_LOOP('',(#133,#134,#135,#136));
#51=EDGE_LOOP('',(#137,#138,#139,#140));
#52=EDGE_LOOP('',(#141,#142));
#53=EDGE_LOOP('',(#143,#144,#145));
#54=EDGE_LOOP('',(#146,#147,#148,#149,#150,#151,#152,#153,#154,#155,#156,
#157));
#55=EDGE_LOOP('',(#158));
#56=EDGE_LOOP('',(#159));
#57=EDGE_LOOP('',(#160,#161,#162,#163,#164));
#58=EDGE_LOOP('',(#165,#166,#167,#168,#169));
#59=EDGE_LOOP('',(#170,#171,#172,#173));
#60=EDGE_LOOP('',(#174,#175,#176,#177));
#61=EDGE_LOOP('',(#178,#179,#180,#181));
#62=EDGE_LOOP('',(#182));
#63=LINE('',#317,#72);
#64=LINE('',#322,#73);
#65=LINE('',#330,#74);
#66=LINE('',#335,#75);
#67=LINE('',#348,#76);
#68=LINE('',#361,#77);
#69=LINE('',#365,#78);
#70=LINE('',#369,#79);
#71=LINE('',#373,#80);
#72=VECTOR('',#248,1.);
#73=VECTOR('',#249,1.);
#74=VECTOR('',#252,1.);
#75=VECTOR('',#253,1.);
#76=VECTOR('',#274,1.84313236870815);
#77=VECTOR('',#291,0.783500000000001);
#78=VECTOR('',#296,0.891750000000001);
#79=VECTOR('',#301,1.);
#80=VECTOR('',#306,0.89175);
#81=(
BOUNDED_CURVE()
B_SPLINE_CURVE(2,(#313,#314,#315),.UNSPECIFIED.,.F.,.F.)
B_SPLINE_CURVE_WITH_KNOTS((3,3),(0.,0.602380519054538),.UNSPECIFIED.)
CURVE()
GEOMETRIC_REPRESENTATION_ITEM()
RATIONAL_B_SPLINE_CURVE((1.,1.00010892688758,1.))
REPRESENTATION_ITEM('')
);
#82=(
BOUNDED_CURVE()
B_SPLINE_CURVE(2,(#319,#320,#321),.UNSPECIFIED.,.F.,.F.)
B_SPLINE_CURVE_WITH_KNOTS((3,3),(0.,0.602380519054538),.UNSPECIFIED.)
CURVE()
GEOMETRIC_REPRESENTATION_ITEM()
RATIONAL_B_SPLINE_CURVE((1.,1.00010892688758,1.))
REPRESENTATION_ITEM('')
);
#83=(
BOUNDED_CURVE()
B_SPLINE_CURVE(2,(#326,#327,#328),.UNSPECIFIED.,.F.,.F.)
B_SPLINE_CURVE_WITH_KNOTS((3,3),(0.,0.602380519054538),.UNSPECIFIED.)
CURVE()
GEOMETRIC_REPRESENTATION_ITEM()
RATIONAL_B_SPLINE_CURVE((1.,1.00010892688758,1.))
REPRESENTATION_ITEM('')
);
#84=(
BOUNDED_CURVE()
B_SPLINE_CURVE(2,(#332,#333,#334),.UNSPECIFIED.,.F.,.F.)
B_SPLINE_CURVE_WITH_KNOTS((3,3),(0.,0.602380519054538),.UNSPECIFIED.)
CURVE()
GEOMETRIC_REPRESENTATION_ITEM()
RATIONAL_B_SPLINE_CURVE((1.,1.00010892688758,1.))
REPRESENTATION_ITEM('')
);
#85=VERTEX_POINT('',#311);
#86=VERTEX_POINT('',#312);
#87=VERTEX_POINT('',#316);
#88=VERTEX_POINT('',#318);
#89=VERTEX_POINT('',#324);
#90=VERTEX_POINT('',#325);
#91=VERTEX_POINT('',#329);
#92=VERTEX_POINT('',#331);
#93=VERTEX_POINT('',#342);
#94=VERTEX_POINT('',#346);
#95=VERTEX_POINT('',#350);
#96=VERTEX_POINT('',#353);
#97=VERTEX_POINT('',#355);
#98=VERTEX_POINT('',#359);
#99=VERTEX_POINT('',#363);
#100=VERTEX_POINT('',#367);
#101=VERTEX_POINT('',#371);
#102=EDGE_CURVE('',#85,#86,#81,.T.);
#103=EDGE_CURVE('',#85,#87,#63,.T.);
#104=EDGE_CURVE('',#88,#87,#82,.T.);
#105=EDGE_CURVE('',#86,#88,#64,.T.);
#106=EDGE_CURVE('',#89,#90,#83,.T.);
#107=EDGE_CURVE('',#91,#89,#65,.T.);
#108=EDGE_CURVE('',#92,#91,#84,.T.);
#109=EDGE_CURVE('',#90,#92,#66,.T.);
#110=EDGE_CURVE('',#90,#85,#22,.T.);
#111=EDGE_CURVE('',#87,#92,#23,.T.);
#112=EDGE_CURVE('',#91,#89,#24,.T.);
#113=EDGE_CURVE('',#93,#88,#25,.T.);
#114=EDGE_CURVE('',#86,#93,#26,.T.);
#115=EDGE_CURVE('',#94,#94,#27,.T.);
#116=EDGE_CURVE('',#94,#93,#67,.T.);
#117=EDGE_CURVE('',#95,#95,#28,.T.);
#118=EDGE_CURVE('',#95,#96,#29,.T.);
#119=EDGE_CURVE('',#97,#96,#30,.T.);
#120=EDGE_CURVE('',#96,#97,#31,.T.);
#121=EDGE_CURVE('',#98,#98,#32,.T.);
#122=EDGE_CURVE('',#98,#97,#68,.T.);
#123=EDGE_CURVE('',#99,#99,#33,.T.);
#124=EDGE_CURVE('',#99,#98,#69,.T.);
#125=EDGE_CURVE('',#100,#100,#34,.T.);
#126=EDGE_CURVE('',#100,#99,#70,.T.);
#127=EDGE_CURVE('',#101,#101,#35,.T.);
#128=EDGE_CURVE('',#101,#100,#71,.T.);
#129=ORIENTED_EDGE('',*,*,#102,.F.);
#130=ORIENTED_EDGE('',*,*,#103,.T.);
#131=ORIENTED_EDGE('',*,*,#104,.F.);
#132=ORIENTED_EDGE('',*,*,#105,.F.);
#133=ORIENTED_EDGE('',*,*,#106,.F.);
#134=ORIENTED_EDGE('',*,*,#107,.F.);
#135=ORIENTED_EDGE('',*,*,#108,.F.);
#136=ORIENTED_EDGE('',*,*,#109,.F.);
#137=ORIENTED_EDGE('',*,*,#110,.F.);
#138=ORIENTED_EDGE('',*,*,#109,.T.);
#139=ORIENTED_EDGE('',*,*,#111,.F.);
#140=ORIENTED_EDGE('',*,*,#103,.F.);
#141=ORIENTED_EDGE('',*,*,#107,.T.);
#142=ORIENTED_EDGE('',*,*,#112,.F.);
#143=ORIENTED_EDGE('',*,*,#105,.T.);
#144=ORIENTED_EDGE('',*,*,#113,.F.);
#145=ORIENTED_EDGE('',*,*,#114,.F.);
#146=ORIENTED_EDGE('',*,*,#115,.F.);
#147=ORIENTED_EDGE('',*,*,#116,.T.);
#148=ORIENTED_EDGE('',*,*,#113,.T.);
#149=ORIENTED_EDGE('',*,*,#104,.T.);
#150=ORIENTED_EDGE('',*,*,#111,.T.);
#151=ORIENTED_EDGE('',*,*,#108,.T.);
#152=ORIENTED_EDGE('',*,*,#112,.T.);
#153=ORIENTED_EDGE('',*,*,#106,.T.);
#154=ORIENTED_EDGE('',*,*,#110,.T.);
#155=ORIENTED_EDGE('',*,*,#102,.T.);
#156=ORIENTED_EDGE('',*,*,#114,.T.);
#157=ORIENTED_EDGE('',*,*,#116,.F.);
#158=ORIENTED_EDGE('',*,*,#115,.T.);
#159=ORIENTED_EDGE('',*,*,#117,.F.);
#160=ORIENTED_EDGE('',*,*,#117,.T.);
#161=ORIENTED_EDGE('',*,*,#118,.T.);
#162=ORIENTED_EDGE('',*,*,#119,.F.);
#163=ORIENTED_EDGE('',*,*,#120,.F.);
#164=ORIENTED_EDGE('',*,*,#118,.F.);
#165=ORIENTED_EDGE('',*,*,#121,.F.);
#166=ORIENTED_EDGE('',*,*,#122,.T.);
#167=ORIENTED_EDGE('',*,*,#119,.T.);
#168=ORIENTED_EDGE('',*,*,#120,.T.);
#169=ORIENTED_EDGE('',*,*,#122,.F.);
#170=ORIENTED_EDGE('',*,*,#123,.F.);
#171=ORIENTED_EDGE('',*,*,#124,.T.);
#172=ORIENTED_EDGE('',*,*,#121,.T.);
#173=ORIENTED_EDGE('',*,*,#124,.F.);
#174=ORIENTED_EDGE('',*,*,#125,.F.);
#175=ORIENTED_EDGE('',*,*,#126,.T.);
#176=ORIENTED_EDGE('',*,*,#123,.T.);
#177=ORIENTED_EDGE('',*,*,#126,.F.);
#178=ORIENTED_EDGE('',*,*,#127,.F.);
#179=ORIENTED_EDGE('',*,*,#128,.T.);
#180=ORIENTED_EDGE('',*,*,#125,.T.);
#181=ORIENTED_EDGE('',*,*,#128,.F.);
#182=ORIENTED_EDGE('',*,*,#127,.T.);
#183=PLANE('',#217);
#184=PLANE('',#218);
#185=PLANE('',#219);
#186=PLANE('',#222);
#187=PLANE('',#224);
#188=PLANE('',#229);
#189=PLANE('',#243);
#190=ADVANCED_FACE('',(#36),#183,.T.);
#191=ADVANCED_FACE('',(#37),#184,.T.);
#192=ADVANCED_FACE('',(#38),#185,.T.);
#193=ADVANCED_FACE('',(#39),#186,.T.);
#194=ADVANCED_FACE('',(#40),#187,.T.);
#195=ADVANCED_FACE('',(#41),#19,.T.);
#196=ADVANCED_FACE('',(#42,#18),#188,.T.);
#197=ADVANCED_FACE('',(#43),#17,.F.);
#198=ADVANCED_FACE('',(#44),#15,.T.);
#199=ADVANCED_FACE('',(#45),#20,.T.);
#200=ADVANCED_FACE('',(#46),#16,.T.);
#201=ADVANCED_FACE('',(#47),#21,.T.);
#202=ADVANCED_FACE('',(#48),#189,.T.);
#203=CLOSED_SHELL('',(#190,#191,#192,#193,#194,#195,#196,#197,#198,#199,
#200,#201,#202));
#204=DERIVED_UNIT_ELEMENT(#206,1.);
#205=DERIVED_UNIT_ELEMENT(#380,-3.);
#206=(
MASS_UNIT()
NAMED_UNIT(*)
SI_UNIT(.KILO.,.GRAM.)
);
#207=DERIVED_UNIT((#204,#205));
#208=MEASURE_REPRESENTATION_ITEM('density measure',
POSITIVE_RATIO_MEASURE(1000.),#207);
#209=PROPERTY_DEFINITION_REPRESENTATION(#214,#211);
#210=PROPERTY_DEFINITION_REPRESENTATION(#215,#212);
#211=REPRESENTATION('material name',(#213),#377);
#212=REPRESENTATION('density',(#208),#377);
#213=DESCRIPTIVE_REPRESENTATION_ITEM('Generic','Generic');
#214=PROPERTY_DEFINITION('material property','material name',#387);
#215=PROPERTY_DEFINITION('material property','density of part',#387);
#216=AXIS2_PLACEMENT_3D('',#309,#244,#245);
#217=AXIS2_PLACEMENT_3D('',#310,#246,#247);
#218=AXIS2_PLACEMENT_3D('',#323,#250,#251);
#219=AXIS2_PLACEMENT_3D('',#336,#254,#255);
#220=AXIS2_PLACEMENT_3D('',#337,#256,#257);
#221=AXIS2_PLACEMENT_3D('',#338,#258,#259);
#222=AXIS2_PLACEMENT_3D('',#339,#260,#261);
#223=AXIS2_PLACEMENT_3D('',#340,#262,#263);
#224=AXIS2_PLACEMENT_3D('',#341,#264,#265);
#225=AXIS2_PLACEMENT_3D('',#343,#266,#267);
#226=AXIS2_PLACEMENT_3D('',#344,#268,#269);
#227=AXIS2_PLACEMENT_3D('',#345,#270,#271);
#228=AXIS2_PLACEMENT_3D('',#347,#272,#273);
#229=AXIS2_PLACEMENT_3D('',#349,#275,#276);
#230=AXIS2_PLACEMENT_3D('',#351,#277,#278);
#231=AXIS2_PLACEMENT_3D('',#352,#279,#280);
#232=AXIS2_PLACEMENT_3D('',#354,#281,#282);
#233=AXIS2_PLACEMENT_3D('',#356,#283,#284);
#234=AXIS2_PLACEMENT_3D('',#357,#285,#286);
#235=AXIS2_PLACEMENT_3D('',#358,#287,#288);
#236=AXIS2_PLACEMENT_3D('',#360,#289,#290);
#237=AXIS2_PLACEMENT_3D('',#362,#292,#293);
#238=AXIS2_PLACEMENT_3D('',#364,#294,#295);
#239=AXIS2_PLACEMENT_3D('',#366,#297,#298);
#240=AXIS2_PLACEMENT_3D('',#368,#299,#300);
#241=AXIS2_PLACEMENT_3D('',#370,#302,#303);
#242=AXIS2_PLACEMENT_3D('',#372,#304,#305);
#243=AXIS2_PLACEMENT_3D('',#374,#307,#308);
#244=DIRECTION('axis',(0.,0.,1.));
#245=DIRECTION('refdir',(1.,0.,0.));
#246=DIRECTION('center_axis',(0.,1.,0.));
#247=DIRECTION('ref_axis',(0.,0.,1.));
#248=DIRECTION('',(0.,0.,-1.));
#249=DIRECTION('',(0.,0.,-1.));
#250=DIRECTION('center_axis',(0.,-1.,0.));
#251=DIRECTION('ref_axis',(0.,0.,-1.));
#252=DIRECTION('',(0.,0.,1.));
#253=DIRECTION('',(0.,0.,-1.));
#254=DIRECTION('center_axis',(-1.,0.,0.));
#255=DIRECTION('ref_axis',(0.,0.,1.));
#256=DIRECTION('center_axis',(1.,0.,0.));
#257=DIRECTION('ref_axis',(0.,1.,0.));
#258=DIRECTION('center_axis',(1.,0.,0.));
#259=DIRECTION('ref_axis',(0.,1.,0.));
#260=DIRECTION('center_axis',(-1.,0.,0.));
#261=DIRECTION('ref_axis',(0.,-1.,0.));
#262=DIRECTION('center_axis',(1.,0.,0.));
#263=DIRECTION('ref_axis',(0.,1.,0.));
#264=DIRECTION('center_axis',(-1.,0.,0.));
#265=DIRECTION('ref_axis',(0.,-1.,0.));
#266=DIRECTION('center_axis',(1.,0.,0.));
#267=DIRECTION('ref_axis',(0.,1.,0.));
#268=DIRECTION('center_axis',(1.,0.,0.));
#269=DIRECTION('ref_axis',(0.,1.,0.));
#270=DIRECTION('center_axis',(1.,0.,0.));
#271=DIRECTION('ref_axis',(0.,1.,0.));
#272=DIRECTION('center_axis',(1.,0.,0.));
#273=DIRECTION('ref_axis',(0.,1.,0.));
#274=DIRECTION('',(-0.996194698091746,0.0871557427476581,1.0673500138323E-17));
#275=DIRECTION('center_axis',(1.,0.,0.));
#276=DIRECTION('ref_axis',(0.,1.,0.));
#277=DIRECTION('center_axis',(1.,0.,0.));
#278=DIRECTION('ref_axis',(0.,1.,0.));
#279=DIRECTION('center_axis',(1.,0.,0.));
#280=DIRECTION('ref_axis',(0.,0.,-1.));
#281=DIRECTION('center_axis',(0.,-1.,-1.22464679914735E-16));
#282=DIRECTION('ref_axis',(0.,-1.22464679914735E-16,1.));
#283=DIRECTION('center_axis',(1.,0.,0.));
#284=DIRECTION('ref_axis',(0.,1.,0.));
#285=DIRECTION('center_axis',(1.,0.,0.));
#286=DIRECTION('ref_axis',(0.,1.,0.));
#287=DIRECTION('center_axis',(1.,0.,0.));
#288=DIRECTION('ref_axis',(0.,1.,0.));
#289=DIRECTION('center_axis',(1.,0.,0.));
#290=DIRECTION('ref_axis',(0.,1.,0.));
#291=DIRECTION('',(-1.,0.,0.));
#292=DIRECTION('center_axis',(1.,0.,0.));
#293=DIRECTION('ref_axis',(0.,1.,0.));
#294=DIRECTION('center_axis',(1.,0.,0.));
#295=DIRECTION('ref_axis',(0.,1.,0.));
#296=DIRECTION('',(-0.954134870733548,0.299377100744657,3.66631208164959E-17));
#297=DIRECTION('center_axis',(1.,0.,0.));
#298=DIRECTION('ref_axis',(0.,1.,0.));
#299=DIRECTION('center_axis',(1.,0.,0.));
#300=DIRECTION('ref_axis',(0.,1.,0.));
#301=DIRECTION('',(-1.,0.,0.));
#302=DIRECTION('center_axis',(-1.,0.,0.));
#303=DIRECTION('ref_axis',(0.,1.,0.));
#304=DIRECTION('center_axis',(1.,0.,0.));
#305=DIRECTION('ref_axis',(0.,1.,0.));
#306=DIRECTION('',(-0.707106781186547,-0.707106781186548,-8.65956056235494E-17));
#307=DIRECTION('center_axis',(1.,0.,0.));
#308=DIRECTION('ref_axis',(0.,1.,0.));
#309=CARTESIAN_POINT('',(0.,0.,0.));
#310=CARTESIAN_POINT('Origin',(-1.5,-0.35,0.));
#311=CARTESIAN_POINT('',(-0.7,-0.35,1.80514009026484));
#312=CARTESIAN_POINT('',(-1.3,-0.35,1.75163972098629));
#313=CARTESIAN_POINT('Ctrl Pts',(-0.7,-0.35,1.80514009026484));
#314=CARTESIAN_POINT('Ctrl Pts',(-1.00451254450343,-0.35,1.77800254136351));
#315=CARTESIAN_POINT('Ctrl Pts',(-1.3,-0.35,1.75163972098629));
#316=CARTESIAN_POINT('',(-0.7,-0.35,-1.80514009026484));
#317=CARTESIAN_POINT('',(-0.7,-0.35,0.));
#318=CARTESIAN_POINT('',(-1.3,-0.35,-1.75163972098629));
#319=CARTESIAN_POINT('Ctrl Pts',(-1.3,-0.35,-1.75163972098629));
#320=CARTESIAN_POINT('Ctrl Pts',(-1.00451254450343,-0.35,-1.77800254136351));
#321=CARTESIAN_POINT('Ctrl Pts',(-0.7,-0.35,-1.80514009026484));
#322=CARTESIAN_POINT('',(-1.3,-0.35,0.));
#323=CARTESIAN_POINT('Origin',(-1.5,0.35,0.));
#324=CARTESIAN_POINT('',(-1.3,0.35,1.75163972098629));
#325=CARTESIAN_POINT('',(-0.7,0.35,1.80514009026484));
#326=CARTESIAN_POINT('Ctrl Pts',(-1.3,0.35,1.75163972098629));
#327=CARTESIAN_POINT('Ctrl Pts',(-1.00451254450343,0.35,1.77800254136351));
#328=CARTESIAN_POINT('Ctrl Pts',(-0.7,0.35,1.80514009026484));
#329=CARTESIAN_POINT('',(-1.3,0.35,-1.75163972098629));
#330=CARTESIAN_POINT('',(-1.3,0.35,0.));
#331=CARTESIAN_POINT('',(-0.7,0.35,-1.80514009026484));
#332=CARTESIAN_POINT('Ctrl Pts',(-0.7,0.35,-1.80514009026484));
#333=CARTESIAN_POINT('Ctrl Pts',(-1.00451254450343,0.35,-1.77800254136351));
#334=CARTESIAN_POINT('Ctrl Pts',(-1.3,0.35,-1.75163972098629));
#335=CARTESIAN_POINT('',(-0.7,0.35,0.));
#336=CARTESIAN_POINT('Origin',(-0.7,0.,0.));
#337=CARTESIAN_POINT('Origin',(-0.7,0.,0.));
#338=CARTESIAN_POINT('Origin',(-0.7,0.,0.));
#339=CARTESIAN_POINT('Origin',(-1.3,0.89313236870815,0.));
#340=CARTESIAN_POINT('Origin',(-1.3,0.,0.));
#341=CARTESIAN_POINT('Origin',(-1.3,0.89313236870815,0.));
#342=CARTESIAN_POINT('',(-1.3,-1.7862647374163,-2.18754339310666E-16));
#343=CARTESIAN_POINT('Origin',(-1.3,0.,0.));
#344=CARTESIAN_POINT('Origin',(-1.3,0.,0.));
#345=CARTESIAN_POINT('Origin',(-0.65,0.,0.));
#346=CARTESIAN_POINT('',(0.,-1.9,-2.32682891837997E-16));
#347=CARTESIAN_POINT('Origin',(-2.22044604925031E-16,0.,0.));
#348=CARTESIAN_POINT('',(-0.65,-1.84313236870815,-2.25718615574332E-16));
#349=CARTESIAN_POINT('Origin',(-2.22044604925031E-16,1.39175,0.));
#350=CARTESIAN_POINT('',(-2.25514051876985E-16,-1.08197544704669E-16,0.883500000000001));
#351=CARTESIAN_POINT('Origin',(-2.22044604925031E-16,0.,0.));
#352=CARTESIAN_POINT('Origin',(0.0999999999999999,0.,0.));
#353=CARTESIAN_POINT('',(0.0999999999999999,-9.59510767131952E-17,0.783500000000001));
#354=CARTESIAN_POINT('Origin',(0.0999999999999999,-1.08197544704669E-16,
0.883500000000001));
#355=CARTESIAN_POINT('',(0.0999999999999999,-0.783500000000001,-9.59510767131952E-17));
#356=CARTESIAN_POINT('Origin',(0.0999999999999999,0.,0.));
#357=CARTESIAN_POINT('Origin',(0.0999999999999999,0.,0.));
#358=CARTESIAN_POINT('Origin',(0.105,0.,0.));
#359=CARTESIAN_POINT('',(0.11,-0.783500000000001,-9.59510767131952E-17));
#360=CARTESIAN_POINT('Origin',(0.11,0.,0.));
#361=CARTESIAN_POINT('',(0.105,-0.783500000000001,-9.59510767131952E-17));
#362=CARTESIAN_POINT('Origin',(0.455,0.,0.));
#363=CARTESIAN_POINT('',(0.8,-1.,-1.22464679914735E-16));
#364=CARTESIAN_POINT('Origin',(0.8,0.,0.));
#365=CARTESIAN_POINT('',(0.455,-0.891750000000001,-1.09207878313965E-16));
#366=CARTESIAN_POINT('Origin',(2.79175,0.,0.));
#367=CARTESIAN_POINT('',(4.7835,-1.,-1.22464679914735E-16));
#368=CARTESIAN_POINT('Origin',(4.7835,0.,0.));
#369=CARTESIAN_POINT('',(2.79175,-1.,-1.22464679914735E-16));
#370=CARTESIAN_POINT('Origin',(4.89175,0.,0.));
#371=CARTESIAN_POINT('',(5.,-0.7835,-9.59510767131951E-17));
#372=CARTESIAN_POINT('Origin',(5.,0.,0.));
#373=CARTESIAN_POINT('',(4.89175,-0.89175,-1.09207878313965E-16));
#374=CARTESIAN_POINT('Origin',(5.,0.39175,0.));
#375=UNCERTAINTY_MEASURE_WITH_UNIT(LENGTH_MEASURE(0.01),#379,
'DISTANCE_ACCURACY_VALUE',
'Maximum model space distance between geometric entities at asserted c
onnectivities');
#376=UNCERTAINTY_MEASURE_WITH_UNIT(LENGTH_MEASURE(0.01),#379,
'DISTANCE_ACCURACY_VALUE',
'Maximum model space distance between geometric entities at asserted c
onnectivities');
#377=(
GEOMETRIC_REPRESENTATION_CONTEXT(3)
GLOBAL_UNCERTAINTY_ASSIGNED_CONTEXT((#375))
GLOBAL_UNIT_ASSIGNED_CONTEXT((#379,#381,#382))
REPRESENTATION_CONTEXT('','3D')
);
#378=(
GEOMETRIC_REPRESENTATION_CONTEXT(3)
GLOBAL_UNCERTAINTY_ASSIGNED_CONTEXT((#376))
GLOBAL_UNIT_ASSIGNED_CONTEXT((#379,#381,#382))
REPRESENTATION_CONTEXT('','3D')
);
#379=(
LENGTH_UNIT()
NAMED_UNIT(*)
SI_UNIT(.MILLI.,.METRE.)
);
#380=(
LENGTH_UNIT()
NAMED_UNIT(*)
SI_UNIT($,.METRE.)
);
#381=(
NAMED_UNIT(*)
PLANE_ANGLE_UNIT()
SI_UNIT($,.RADIAN.)
);
#382=(
NAMED_UNIT(*)
SI_UNIT($,.STERADIAN.)
SOLID_ANGLE_UNIT()
);
#383=SHAPE_DEFINITION_REPRESENTATION(#384,#385);
#384=PRODUCT_DEFINITION_SHAPE('',$,#387);
#385=SHAPE_REPRESENTATION('',(#216),#377);
#386=PRODUCT_DEFINITION_CONTEXT('part definition',#391,'design');
#387=PRODUCT_DEFINITION('pn11270036','pn11270036 v1',#388,#386);
#388=PRODUCT_DEFINITION_FORMATION('',$,#393);
#389=PRODUCT_RELATED_PRODUCT_CATEGORY('pn11270036 v1','pn11270036 v1',(#393));
#390=APPLICATION_PROTOCOL_DEFINITION('international standard',
'automotive_design',2009,#391);
#391=APPLICATION_CONTEXT(
'Core Data for Automotive Mechanical Design Process');
#392=PRODUCT_CONTEXT('part definition',#391,'mechanical');
#393=PRODUCT('pn11270036','pn11270036 v1',$,(#392));
#394=PRESENTATION_STYLE_ASSIGNMENT((#395));
#395=SURFACE_STYLE_USAGE(.BOTH.,#396);
#396=SURFACE_SIDE_STYLE('',(#397));
#397=SURFACE_STYLE_FILL_AREA(#398);
#398=FILL_AREA_STYLE('Default',(#399));
#399=FILL_AREA_STYLE_COLOUR('Default',#400);
#400=COLOUR_RGB('Default',0.749019607843137,0.749019607843137,0.749019607843137);
ENDSEC;
END-ISO-10303-21;
