ISO-10303-21;
HEADER;
/* Generated by software containing ST-Developer
 * from STEP Tools, Inc. (www.steptools.com) 
 */

FILE_DESCRIPTION(
/* description */ (''),
/* implementation_level */ '2;1');

FILE_NAME(
/* name */ 'pn11610117 v1.step',
/* time_stamp */ '2024-06-19T11:02:44+02:00',
/* author */ (''),
/* organization */ (''),
/* preprocessor_version */ 'ST-DEVELOPER v20',
/* originating_system */ 'Autodesk Translation Framework v13.14.0.145',

/* authorisation */ '');

FILE_SCHEMA (('AUTOMOTIVE_DESIGN { 1 0 10303 214 3 1 1 }'));
ENDSEC;

DATA;
#10=MECHANICAL_DESIGN_GEOMETRIC_PRESENTATION_REPRESENTATION('',(#13),#638);
#11=SHAPE_REPRESENTATION_RELATIONSHIP('SRR','None',#645,#12);
#12=ADVANCED_BREP_SHAPE_REPRESENTATION('',(#14),#637);
#13=STYLED_ITEM('',(#654),#14);
#14=MANIFOLD_SOLID_BREP('Body1',#344);
#15=CYLINDRICAL_SURFACE('',#386,1.229375);
#16=LINE('',#612,#25);
#17=LINE('',#616,#26);
#18=LINE('',#620,#27);
#19=LINE('',#624,#28);
#20=LINE('',#625,#29);
#21=LINE('',#627,#30);
#22=LINE('',#629,#31);
#23=LINE('',#631,#32);
#24=LINE('',#633,#33);
#25=VECTOR('',#453,1.3646875);
#26=VECTOR('',#458,1.229375);
#27=VECTOR('',#463,1.3646875);
#28=VECTOR('',#470,1.);
#29=VECTOR('',#471,1.);
#30=VECTOR('',#474,1.);
#31=VECTOR('',#477,1.);
#32=VECTOR('',#480,1.);
#33=VECTOR('',#483,1.);
#34=FACE_BOUND('',#80,.T.);
#35=FACE_BOUND('',#85,.T.);
#36=PLANE('',#382);
#37=PLANE('',#390);
#38=PLANE('',#391);
#39=PLANE('',#392);
#40=PLANE('',#393);
#41=PLANE('',#394);
#42=PLANE('',#395);
#43=PLANE('',#396);
#44=FACE_OUTER_BOUND('',#67,.T.);
#45=FACE_OUTER_BOUND('',#68,.T.);
#46=FACE_OUTER_BOUND('',#69,.T.);
#47=FACE_OUTER_BOUND('',#70,.T.);
#48=FACE_OUTER_BOUND('',#71,.T.);
#49=FACE_OUTER_BOUND('',#72,.T.);
#50=FACE_OUTER_BOUND('',#73,.T.);
#51=FACE_OUTER_BOUND('',#74,.T.);
#52=FACE_OUTER_BOUND('',#75,.T.);
#53=FACE_OUTER_BOUND('',#76,.T.);
#54=FACE_OUTER_BOUND('',#77,.T.);
#55=FACE_OUTER_BOUND('',#78,.T.);
#56=FACE_OUTER_BOUND('',#79,.T.);
#57=FACE_OUTER_BOUND('',#81,.T.);
#58=FACE_OUTER_BOUND('',#82,.T.);
#59=FACE_OUTER_BOUND('',#83,.T.);
#60=FACE_OUTER_BOUND('',#84,.T.);
#61=FACE_OUTER_BOUND('',#86,.T.);
#62=FACE_OUTER_BOUND('',#87,.T.);
#63=FACE_OUTER_BOUND('',#88,.T.);
#64=FACE_OUTER_BOUND('',#89,.T.);
#65=FACE_OUTER_BOUND('',#90,.T.);
#66=FACE_OUTER_BOUND('',#91,.T.);
#67=EDGE_LOOP('',(#209,#210,#211));
#68=EDGE_LOOP('',(#212,#213,#214));
#69=EDGE_LOOP('',(#215,#216,#217));
#70=EDGE_LOOP('',(#218,#219,#220));
#71=EDGE_LOOP('',(#221,#222,#223));
#72=EDGE_LOOP('',(#224,#225,#226));
#73=EDGE_LOOP('',(#227,#228,#229));
#74=EDGE_LOOP('',(#230,#231,#232));
#75=EDGE_LOOP('',(#233,#234,#235));
#76=EDGE_LOOP('',(#236,#237,#238));
#77=EDGE_LOOP('',(#239,#240,#241));
#78=EDGE_LOOP('',(#242,#243,#244));
#79=EDGE_LOOP('',(#245,#246,#247,#248,#249,#250));
#80=EDGE_LOOP('',(#251));
#81=EDGE_LOOP('',(#252,#253,#254,#255));
#82=EDGE_LOOP('',(#256,#257,#258,#259));
#83=EDGE_LOOP('',(#260,#261,#262,#263));
#84=EDGE_LOOP('',(#264,#265,#266,#267,#268,#269));
#85=EDGE_LOOP('',(#270));
#86=EDGE_LOOP('',(#271,#272,#273,#274,#275,#276));
#87=EDGE_LOOP('',(#277,#278,#279,#280,#281,#282));
#88=EDGE_LOOP('',(#283,#284,#285,#286,#287,#288));
#89=EDGE_LOOP('',(#289,#290,#291,#292,#293,#294));
#90=EDGE_LOOP('',(#295,#296,#297,#298,#299,#300));
#91=EDGE_LOOP('',(#301,#302,#303,#304,#305,#306));
#92=CIRCLE('',#359,2.75);
#93=CIRCLE('',#361,2.75);
#94=CIRCLE('',#363,2.75);
#95=CIRCLE('',#365,2.75);
#96=CIRCLE('',#367,2.75);
#97=CIRCLE('',#369,2.75);
#98=CIRCLE('',#371,2.75);
#99=CIRCLE('',#373,2.75);
#100=CIRCLE('',#375,2.75);
#101=CIRCLE('',#377,2.75);
#102=CIRCLE('',#379,2.75);
#103=CIRCLE('',#381,2.75);
#104=CIRCLE('',#383,1.5);
#105=CIRCLE('',#385,1.229375);
#106=CIRCLE('',#387,1.229375);
#107=CIRCLE('',#389,1.5);
#108=(
BOUNDED_CURVE()
B_SPLINE_CURVE(2,(#490,#491,#492),.UNSPECIFIED.,.F.,.F.)
B_SPLINE_CURVE_WITH_KNOTS((3,3),(0.00150136828460036,1.61241200931641),
 .UNSPECIFIED.)
CURVE()
GEOMETRIC_REPRESENTATION_ITEM()
RATIONAL_B_SPLINE_CURVE((1.00007075032021,1.03799156647161,1.))
REPRESENTATION_ITEM('')
);
#109=(
BOUNDED_CURVE()
B_SPLINE_CURVE(2,(#495,#496,#497),.UNSPECIFIED.,.F.,.F.)
B_SPLINE_CURVE_WITH_KNOTS((3,3),(1.6124120093164,3.22332265034821),
 .UNSPECIFIED.)
CURVE()
GEOMETRIC_REPRESENTATION_ITEM()
RATIONAL_B_SPLINE_CURVE((1.,1.03799156647159,1.00007075032021))
REPRESENTATION_ITEM('')
);
#110=(
BOUNDED_CURVE()
B_SPLINE_CURVE(2,(#501,#502,#503),.UNSPECIFIED.,.F.,.F.)
B_SPLINE_CURVE_WITH_KNOTS((3,3),(0.00150136828460089,1.6124120093164),
 .UNSPECIFIED.)
CURVE()
GEOMETRIC_REPRESENTATION_ITEM()
RATIONAL_B_SPLINE_CURVE((1.00007075032021,1.03799156647159,1.))
REPRESENTATION_ITEM('')
);
#111=(
BOUNDED_CURVE()
B_SPLINE_CURVE(2,(#505,#506,#507),.UNSPECIFIED.,.F.,.F.)
B_SPLINE_CURVE_WITH_KNOTS((3,3),(1.61241200931641,3.22332265034821),
 .UNSPECIFIED.)
CURVE()
GEOMETRIC_REPRESENTATION_ITEM()
RATIONAL_B_SPLINE_CURVE((1.,1.03799156647161,1.00007075032021))
REPRESENTATION_ITEM('')
);
#112=(
BOUNDED_CURVE()
B_SPLINE_CURVE(2,(#511,#512,#513),.UNSPECIFIED.,.F.,.F.)
B_SPLINE_CURVE_WITH_KNOTS((3,3),(0.00150136828459919,1.6124120093164),
 .UNSPECIFIED.)
CURVE()
GEOMETRIC_REPRESENTATION_ITEM()
RATIONAL_B_SPLINE_CURVE((1.00007075032021,1.03799156647158,1.))
REPRESENTATION_ITEM('')
);
#113=(
BOUNDED_CURVE()
B_SPLINE_CURVE(2,(#515,#516,#517),.UNSPECIFIED.,.F.,.F.)
B_SPLINE_CURVE_WITH_KNOTS((3,3),(1.6124120093164,3.22332265034821),
 .UNSPECIFIED.)
CURVE()
GEOMETRIC_REPRESENTATION_ITEM()
RATIONAL_B_SPLINE_CURVE((1.,1.03799156647158,1.00007075032021))
REPRESENTATION_ITEM('')
);
#114=(
BOUNDED_CURVE()
B_SPLINE_CURVE(2,(#520,#521,#522),.UNSPECIFIED.,.F.,.F.)
B_SPLINE_CURVE_WITH_KNOTS((3,3),(1.6124120093164,3.22332265034821),
 .UNSPECIFIED.)
CURVE()
GEOMETRIC_REPRESENTATION_ITEM()
RATIONAL_B_SPLINE_CURVE((1.,1.03799156647161,1.00007075032021))
REPRESENTATION_ITEM('')
);
#115=(
BOUNDED_CURVE()
B_SPLINE_CURVE(2,(#524,#525,#526),.UNSPECIFIED.,.F.,.F.)
B_SPLINE_CURVE_WITH_KNOTS((3,3),(0.00150136828460198,1.61241200931641),
 .UNSPECIFIED.)
CURVE()
GEOMETRIC_REPRESENTATION_ITEM()
RATIONAL_B_SPLINE_CURVE((1.00007075032021,1.03799156647159,1.))
REPRESENTATION_ITEM('')
);
#116=(
BOUNDED_CURVE()
B_SPLINE_CURVE(2,(#530,#531,#532),.UNSPECIFIED.,.F.,.F.)
B_SPLINE_CURVE_WITH_KNOTS((3,3),(1.61241200931641,3.22332265034821),
 .UNSPECIFIED.)
CURVE()
GEOMETRIC_REPRESENTATION_ITEM()
RATIONAL_B_SPLINE_CURVE((1.,1.03799156647159,1.00007075032021))
REPRESENTATION_ITEM('')
);
#117=(
BOUNDED_CURVE()
B_SPLINE_CURVE(2,(#534,#535,#536),.UNSPECIFIED.,.F.,.F.)
B_SPLINE_CURVE_WITH_KNOTS((3,3),(0.00150136828460127,1.61241200931641),
 .UNSPECIFIED.)
CURVE()
GEOMETRIC_REPRESENTATION_ITEM()
RATIONAL_B_SPLINE_CURVE((1.00007075032021,1.03799156647159,1.))
REPRESENTATION_ITEM('')
);
#118=(
BOUNDED_CURVE()
B_SPLINE_CURVE(2,(#540,#541,#542),.UNSPECIFIED.,.F.,.F.)
B_SPLINE_CURVE_WITH_KNOTS((3,3),(1.61241200931641,3.22332265034821),
 .UNSPECIFIED.)
CURVE()
GEOMETRIC_REPRESENTATION_ITEM()
RATIONAL_B_SPLINE_CURVE((1.,1.0379915664716,1.00007075032021))
REPRESENTATION_ITEM('')
);
#119=(
BOUNDED_CURVE()
B_SPLINE_CURVE(2,(#543,#544,#545),.UNSPECIFIED.,.F.,.F.)
B_SPLINE_CURVE_WITH_KNOTS((3,3),(0.00150136828460087,1.6124120093164),
 .UNSPECIFIED.)
CURVE()
GEOMETRIC_REPRESENTATION_ITEM()
RATIONAL_B_SPLINE_CURVE((1.00007075032021,1.03799156647159,1.))
REPRESENTATION_ITEM('')
);
#120=(
BOUNDED_CURVE()
B_SPLINE_CURVE(2,(#550,#551,#552),.UNSPECIFIED.,.F.,.F.)
B_SPLINE_CURVE_WITH_KNOTS((3,3),(0.00150136828460228,1.61241200931641),
 .UNSPECIFIED.)
CURVE()
GEOMETRIC_REPRESENTATION_ITEM()
RATIONAL_B_SPLINE_CURVE((1.00007075032021,1.03799156647159,1.))
REPRESENTATION_ITEM('')
);
#121=(
BOUNDED_CURVE()
B_SPLINE_CURVE(2,(#555,#556,#557),.UNSPECIFIED.,.F.,.F.)
B_SPLINE_CURVE_WITH_KNOTS((3,3),(1.61241200931641,3.22332265034821),
 .UNSPECIFIED.)
CURVE()
GEOMETRIC_REPRESENTATION_ITEM()
RATIONAL_B_SPLINE_CURVE((1.,1.0379915664716,1.00007075032021))
REPRESENTATION_ITEM('')
);
#122=(
BOUNDED_CURVE()
B_SPLINE_CURVE(2,(#561,#562,#563),.UNSPECIFIED.,.F.,.F.)
B_SPLINE_CURVE_WITH_KNOTS((3,3),(0.00150136828460176,1.61241200931641),
 .UNSPECIFIED.)
CURVE()
GEOMETRIC_REPRESENTATION_ITEM()
RATIONAL_B_SPLINE_CURVE((1.00007075032021,1.03799156647159,1.))
REPRESENTATION_ITEM('')
);
#123=(
BOUNDED_CURVE()
B_SPLINE_CURVE(2,(#565,#566,#567),.UNSPECIFIED.,.F.,.F.)
B_SPLINE_CURVE_WITH_KNOTS((3,3),(1.61241200931641,3.22332265034821),
 .UNSPECIFIED.)
CURVE()
GEOMETRIC_REPRESENTATION_ITEM()
RATIONAL_B_SPLINE_CURVE((1.,1.0379915664716,1.00007075032021))
REPRESENTATION_ITEM('')
);
#124=(
BOUNDED_CURVE()
B_SPLINE_CURVE(2,(#571,#572,#573),.UNSPECIFIED.,.F.,.F.)
B_SPLINE_CURVE_WITH_KNOTS((3,3),(0.0015013682846012,1.61241200931641),
 .UNSPECIFIED.)
CURVE()
GEOMETRIC_REPRESENTATION_ITEM()
RATIONAL_B_SPLINE_CURVE((1.00007075032021,1.03799156647159,1.))
REPRESENTATION_ITEM('')
);
#125=(
BOUNDED_CURVE()
B_SPLINE_CURVE(2,(#575,#576,#577),.UNSPECIFIED.,.F.,.F.)
B_SPLINE_CURVE_WITH_KNOTS((3,3),(1.61241200931641,3.22332265034821),
 .UNSPECIFIED.)
CURVE()
GEOMETRIC_REPRESENTATION_ITEM()
RATIONAL_B_SPLINE_CURVE((1.,1.03799156647157,1.00007075032021))
REPRESENTATION_ITEM('')
);
#126=(
BOUNDED_CURVE()
B_SPLINE_CURVE(2,(#580,#581,#582),.UNSPECIFIED.,.F.,.F.)
B_SPLINE_CURVE_WITH_KNOTS((3,3),(1.61241200931641,3.22332265034821),
 .UNSPECIFIED.)
CURVE()
GEOMETRIC_REPRESENTATION_ITEM()
RATIONAL_B_SPLINE_CURVE((1.,1.0379915664716,1.00007075032021))
REPRESENTATION_ITEM('')
);
#127=(
BOUNDED_CURVE()
B_SPLINE_CURVE(2,(#584,#585,#586),.UNSPECIFIED.,.F.,.F.)
B_SPLINE_CURVE_WITH_KNOTS((3,3),(0.00150136828460131,1.61241200931641),
 .UNSPECIFIED.)
CURVE()
GEOMETRIC_REPRESENTATION_ITEM()
RATIONAL_B_SPLINE_CURVE((1.00007075032021,1.0379915664716,1.))
REPRESENTATION_ITEM('')
);
#128=(
BOUNDED_CURVE()
B_SPLINE_CURVE(2,(#590,#591,#592),.UNSPECIFIED.,.F.,.F.)
B_SPLINE_CURVE_WITH_KNOTS((3,3),(1.61241200931641,3.22332265034821),
 .UNSPECIFIED.)
CURVE()
GEOMETRIC_REPRESENTATION_ITEM()
RATIONAL_B_SPLINE_CURVE((1.,1.0379915664716,1.00007075032021))
REPRESENTATION_ITEM('')
);
#129=(
BOUNDED_CURVE()
B_SPLINE_CURVE(2,(#594,#595,#596),.UNSPECIFIED.,.F.,.F.)
B_SPLINE_CURVE_WITH_KNOTS((3,3),(0.00150136828460203,1.61241200931641),
 .UNSPECIFIED.)
CURVE()
GEOMETRIC_REPRESENTATION_ITEM()
RATIONAL_B_SPLINE_CURVE((1.00007075032021,1.0379915664716,1.))
REPRESENTATION_ITEM('')
);
#130=(
BOUNDED_CURVE()
B_SPLINE_CURVE(2,(#600,#601,#602),.UNSPECIFIED.,.F.,.F.)
B_SPLINE_CURVE_WITH_KNOTS((3,3),(1.61241200931641,3.22332265034821),
 .UNSPECIFIED.)
CURVE()
GEOMETRIC_REPRESENTATION_ITEM()
RATIONAL_B_SPLINE_CURVE((1.,1.0379915664716,1.00007075032021))
REPRESENTATION_ITEM('')
);
#131=(
BOUNDED_CURVE()
B_SPLINE_CURVE(2,(#603,#604,#605),.UNSPECIFIED.,.F.,.F.)
B_SPLINE_CURVE_WITH_KNOTS((3,3),(0.00150136828460118,1.61241200931641),
 .UNSPECIFIED.)
CURVE()
GEOMETRIC_REPRESENTATION_ITEM()
RATIONAL_B_SPLINE_CURVE((1.00007075032021,1.0379915664716,1.))
REPRESENTATION_ITEM('')
);
#132=VERTEX_POINT('',#488);
#133=VERTEX_POINT('',#489);
#134=VERTEX_POINT('',#493);
#135=VERTEX_POINT('',#499);
#136=VERTEX_POINT('',#500);
#137=VERTEX_POINT('',#509);
#138=VERTEX_POINT('',#510);
#139=VERTEX_POINT('',#519);
#140=VERTEX_POINT('',#523);
#141=VERTEX_POINT('',#529);
#142=VERTEX_POINT('',#533);
#143=VERTEX_POINT('',#539);
#144=VERTEX_POINT('',#548);
#145=VERTEX_POINT('',#549);
#146=VERTEX_POINT('',#553);
#147=VERTEX_POINT('',#559);
#148=VERTEX_POINT('',#560);
#149=VERTEX_POINT('',#569);
#150=VERTEX_POINT('',#570);
#151=VERTEX_POINT('',#579);
#152=VERTEX_POINT('',#583);
#153=VERTEX_POINT('',#589);
#154=VERTEX_POINT('',#593);
#155=VERTEX_POINT('',#599);
#156=VERTEX_POINT('',#608);
#157=VERTEX_POINT('',#611);
#158=VERTEX_POINT('',#615);
#159=VERTEX_POINT('',#619);
#160=EDGE_CURVE('',#132,#133,#108,.T.);
#161=EDGE_CURVE('',#133,#134,#92,.T.);
#162=EDGE_CURVE('',#134,#132,#109,.T.);
#163=EDGE_CURVE('',#135,#136,#110,.T.);
#164=EDGE_CURVE('',#136,#133,#93,.T.);
#165=EDGE_CURVE('',#133,#135,#111,.T.);
#166=EDGE_CURVE('',#137,#138,#112,.T.);
#167=EDGE_CURVE('',#138,#136,#94,.T.);
#168=EDGE_CURVE('',#136,#137,#113,.T.);
#169=EDGE_CURVE('',#138,#139,#114,.T.);
#170=EDGE_CURVE('',#139,#140,#115,.T.);
#171=EDGE_CURVE('',#140,#138,#95,.T.);
#172=EDGE_CURVE('',#140,#141,#116,.T.);
#173=EDGE_CURVE('',#141,#142,#117,.T.);
#174=EDGE_CURVE('',#142,#140,#96,.T.);
#175=EDGE_CURVE('',#142,#143,#118,.T.);
#176=EDGE_CURVE('',#143,#134,#119,.T.);
#177=EDGE_CURVE('',#134,#142,#97,.T.);
#178=EDGE_CURVE('',#144,#145,#120,.T.);
#179=EDGE_CURVE('',#146,#145,#98,.T.);
#180=EDGE_CURVE('',#146,#144,#121,.T.);
#181=EDGE_CURVE('',#147,#148,#122,.T.);
#182=EDGE_CURVE('',#145,#148,#99,.T.);
#183=EDGE_CURVE('',#145,#147,#123,.T.);
#184=EDGE_CURVE('',#149,#150,#124,.T.);
#185=EDGE_CURVE('',#148,#150,#100,.T.);
#186=EDGE_CURVE('',#148,#149,#125,.T.);
#187=EDGE_CURVE('',#150,#151,#126,.T.);
#188=EDGE_CURVE('',#151,#152,#127,.T.);
#189=EDGE_CURVE('',#150,#152,#101,.T.);
#190=EDGE_CURVE('',#152,#153,#128,.T.);
#191=EDGE_CURVE('',#153,#154,#129,.T.);
#192=EDGE_CURVE('',#152,#154,#102,.T.);
#193=EDGE_CURVE('',#154,#155,#130,.T.);
#194=EDGE_CURVE('',#155,#146,#131,.T.);
#195=EDGE_CURVE('',#154,#146,#103,.T.);
#196=EDGE_CURVE('',#156,#156,#104,.T.);
#197=EDGE_CURVE('',#156,#157,#16,.T.);
#198=EDGE_CURVE('',#157,#157,#105,.T.);
#199=EDGE_CURVE('',#157,#158,#17,.T.);
#200=EDGE_CURVE('',#158,#158,#106,.T.);
#201=EDGE_CURVE('',#158,#159,#18,.T.);
#202=EDGE_CURVE('',#159,#159,#107,.T.);
#203=EDGE_CURVE('',#135,#149,#19,.T.);
#204=EDGE_CURVE('',#137,#147,#20,.T.);
#205=EDGE_CURVE('',#132,#151,#21,.T.);
#206=EDGE_CURVE('',#143,#153,#22,.T.);
#207=EDGE_CURVE('',#139,#144,#23,.T.);
#208=EDGE_CURVE('',#141,#155,#24,.T.);
#209=ORIENTED_EDGE('',*,*,#160,.T.);
#210=ORIENTED_EDGE('',*,*,#161,.T.);
#211=ORIENTED_EDGE('',*,*,#162,.T.);
#212=ORIENTED_EDGE('',*,*,#163,.T.);
#213=ORIENTED_EDGE('',*,*,#164,.T.);
#214=ORIENTED_EDGE('',*,*,#165,.T.);
#215=ORIENTED_EDGE('',*,*,#166,.T.);
#216=ORIENTED_EDGE('',*,*,#167,.T.);
#217=ORIENTED_EDGE('',*,*,#168,.T.);
#218=ORIENTED_EDGE('',*,*,#169,.T.);
#219=ORIENTED_EDGE('',*,*,#170,.T.);
#220=ORIENTED_EDGE('',*,*,#171,.T.);
#221=ORIENTED_EDGE('',*,*,#172,.T.);
#222=ORIENTED_EDGE('',*,*,#173,.T.);
#223=ORIENTED_EDGE('',*,*,#174,.T.);
#224=ORIENTED_EDGE('',*,*,#175,.T.);
#225=ORIENTED_EDGE('',*,*,#176,.T.);
#226=ORIENTED_EDGE('',*,*,#177,.T.);
#227=ORIENTED_EDGE('',*,*,#178,.T.);
#228=ORIENTED_EDGE('',*,*,#179,.F.);
#229=ORIENTED_EDGE('',*,*,#180,.T.);
#230=ORIENTED_EDGE('',*,*,#181,.T.);
#231=ORIENTED_EDGE('',*,*,#182,.F.);
#232=ORIENTED_EDGE('',*,*,#183,.T.);
#233=ORIENTED_EDGE('',*,*,#184,.T.);
#234=ORIENTED_EDGE('',*,*,#185,.F.);
#235=ORIENTED_EDGE('',*,*,#186,.T.);
#236=ORIENTED_EDGE('',*,*,#187,.T.);
#237=ORIENTED_EDGE('',*,*,#188,.T.);
#238=ORIENTED_EDGE('',*,*,#189,.F.);
#239=ORIENTED_EDGE('',*,*,#190,.T.);
#240=ORIENTED_EDGE('',*,*,#191,.T.);
#241=ORIENTED_EDGE('',*,*,#192,.F.);
#242=ORIENTED_EDGE('',*,*,#193,.T.);
#243=ORIENTED_EDGE('',*,*,#194,.T.);
#244=ORIENTED_EDGE('',*,*,#195,.F.);
#245=ORIENTED_EDGE('',*,*,#192,.T.);
#246=ORIENTED_EDGE('',*,*,#195,.T.);
#247=ORIENTED_EDGE('',*,*,#179,.T.);
#248=ORIENTED_EDGE('',*,*,#182,.T.);
#249=ORIENTED_EDGE('',*,*,#185,.T.);
#250=ORIENTED_EDGE('',*,*,#189,.T.);
#251=ORIENTED_EDGE('',*,*,#196,.F.);
#252=ORIENTED_EDGE('',*,*,#196,.T.);
#253=ORIENTED_EDGE('',*,*,#197,.T.);
#254=ORIENTED_EDGE('',*,*,#198,.F.);
#255=ORIENTED_EDGE('',*,*,#197,.F.);
#256=ORIENTED_EDGE('',*,*,#198,.T.);
#257=ORIENTED_EDGE('',*,*,#199,.T.);
#258=ORIENTED_EDGE('',*,*,#200,.F.);
#259=ORIENTED_EDGE('',*,*,#199,.F.);
#260=ORIENTED_EDGE('',*,*,#200,.T.);
#261=ORIENTED_EDGE('',*,*,#201,.T.);
#262=ORIENTED_EDGE('',*,*,#202,.F.);
#263=ORIENTED_EDGE('',*,*,#201,.F.);
#264=ORIENTED_EDGE('',*,*,#177,.F.);
#265=ORIENTED_EDGE('',*,*,#161,.F.);
#266=ORIENTED_EDGE('',*,*,#164,.F.);
#267=ORIENTED_EDGE('',*,*,#167,.F.);
#268=ORIENTED_EDGE('',*,*,#171,.F.);
#269=ORIENTED_EDGE('',*,*,#174,.F.);
#270=ORIENTED_EDGE('',*,*,#202,.T.);
#271=ORIENTED_EDGE('',*,*,#168,.F.);
#272=ORIENTED_EDGE('',*,*,#163,.F.);
#273=ORIENTED_EDGE('',*,*,#203,.T.);
#274=ORIENTED_EDGE('',*,*,#186,.F.);
#275=ORIENTED_EDGE('',*,*,#181,.F.);
#276=ORIENTED_EDGE('',*,*,#204,.F.);
#277=ORIENTED_EDGE('',*,*,#165,.F.);
#278=ORIENTED_EDGE('',*,*,#160,.F.);
#279=ORIENTED_EDGE('',*,*,#205,.T.);
#280=ORIENTED_EDGE('',*,*,#187,.F.);
#281=ORIENTED_EDGE('',*,*,#184,.F.);
#282=ORIENTED_EDGE('',*,*,#203,.F.);
#283=ORIENTED_EDGE('',*,*,#162,.F.);
#284=ORIENTED_EDGE('',*,*,#176,.F.);
#285=ORIENTED_EDGE('',*,*,#206,.T.);
#286=ORIENTED_EDGE('',*,*,#190,.F.);
#287=ORIENTED_EDGE('',*,*,#188,.F.);
#288=ORIENTED_EDGE('',*,*,#205,.F.);
#289=ORIENTED_EDGE('',*,*,#166,.F.);
#290=ORIENTED_EDGE('',*,*,#204,.T.);
#291=ORIENTED_EDGE('',*,*,#183,.F.);
#292=ORIENTED_EDGE('',*,*,#178,.F.);
#293=ORIENTED_EDGE('',*,*,#207,.F.);
#294=ORIENTED_EDGE('',*,*,#169,.F.);
#295=ORIENTED_EDGE('',*,*,#170,.F.);
#296=ORIENTED_EDGE('',*,*,#207,.T.);
#297=ORIENTED_EDGE('',*,*,#180,.F.);
#298=ORIENTED_EDGE('',*,*,#194,.F.);
#299=ORIENTED_EDGE('',*,*,#208,.F.);
#300=ORIENTED_EDGE('',*,*,#172,.F.);
#301=ORIENTED_EDGE('',*,*,#173,.F.);
#302=ORIENTED_EDGE('',*,*,#208,.T.);
#303=ORIENTED_EDGE('',*,*,#193,.F.);
#304=ORIENTED_EDGE('',*,*,#191,.F.);
#305=ORIENTED_EDGE('',*,*,#206,.F.);
#306=ORIENTED_EDGE('',*,*,#175,.F.);
#307=CONICAL_SURFACE('',#358,2.963125,1.0471975511966);
#308=CONICAL_SURFACE('',#360,2.963125,1.0471975511966);
#309=CONICAL_SURFACE('',#362,2.963125,1.0471975511966);
#310=CONICAL_SURFACE('',#364,2.963125,1.0471975511966);
#311=CONICAL_SURFACE('',#366,2.963125,1.0471975511966);
#312=CONICAL_SURFACE('',#368,2.963125,1.0471975511966);
#313=CONICAL_SURFACE('',#370,2.963125,1.0471975511966);
#314=CONICAL_SURFACE('',#372,2.963125,1.0471975511966);
#315=CONICAL_SURFACE('',#374,2.963125,1.0471975511966);
#316=CONICAL_SURFACE('',#376,2.963125,1.0471975511966);
#317=CONICAL_SURFACE('',#378,2.963125,1.0471975511966);
#318=CONICAL_SURFACE('',#380,2.963125,1.0471975511966);
#319=CONICAL_SURFACE('',#384,1.3646875,0.785398163397448);
#320=CONICAL_SURFACE('',#388,1.3646875,0.785398163397448);
#321=ADVANCED_FACE('',(#44),#307,.T.);
#322=ADVANCED_FACE('',(#45),#308,.T.);
#323=ADVANCED_FACE('',(#46),#309,.T.);
#324=ADVANCED_FACE('',(#47),#310,.T.);
#325=ADVANCED_FACE('',(#48),#311,.T.);
#326=ADVANCED_FACE('',(#49),#312,.T.);
#327=ADVANCED_FACE('',(#50),#313,.T.);
#328=ADVANCED_FACE('',(#51),#314,.T.);
#329=ADVANCED_FACE('',(#52),#315,.T.);
#330=ADVANCED_FACE('',(#53),#316,.T.);
#331=ADVANCED_FACE('',(#54),#317,.T.);
#332=ADVANCED_FACE('',(#55),#318,.T.);
#333=ADVANCED_FACE('',(#56,#34),#36,.T.);
#334=ADVANCED_FACE('',(#57),#319,.F.);
#335=ADVANCED_FACE('',(#58),#15,.F.);
#336=ADVANCED_FACE('',(#59),#320,.F.);
#337=ADVANCED_FACE('',(#60,#35),#37,.T.);
#338=ADVANCED_FACE('',(#61),#38,.T.);
#339=ADVANCED_FACE('',(#62),#39,.T.);
#340=ADVANCED_FACE('',(#63),#40,.T.);
#341=ADVANCED_FACE('',(#64),#41,.T.);
#342=ADVANCED_FACE('',(#65),#42,.T.);
#343=ADVANCED_FACE('',(#66),#43,.T.);
#344=CLOSED_SHELL('',(#321,#322,#323,#324,#325,#326,#327,#328,#329,#330,
#331,#332,#333,#334,#335,#336,#337,#338,#339,#340,#341,#342,#343));
#345=DERIVED_UNIT_ELEMENT(#347,1.);
#346=DERIVED_UNIT_ELEMENT(#640,-3.);
#347=(
MASS_UNIT()
NAMED_UNIT(*)
SI_UNIT(.KILO.,.GRAM.)
);
#348=DERIVED_UNIT((#345,#346));
#349=MEASURE_REPRESENTATION_ITEM('density measure',
POSITIVE_RATIO_MEASURE(1000.),#348);
#350=PROPERTY_DEFINITION_REPRESENTATION(#355,#352);
#351=PROPERTY_DEFINITION_REPRESENTATION(#356,#353);
#352=REPRESENTATION('material name',(#354),#637);
#353=REPRESENTATION('density',(#349),#637);
#354=DESCRIPTIVE_REPRESENTATION_ITEM('Generic','Generic');
#355=PROPERTY_DEFINITION('material property','material name',#647);
#356=PROPERTY_DEFINITION('material property','density of part',#647);
#357=AXIS2_PLACEMENT_3D('',#486,#397,#398);
#358=AXIS2_PLACEMENT_3D('',#487,#399,#400);
#359=AXIS2_PLACEMENT_3D('',#494,#401,#402);
#360=AXIS2_PLACEMENT_3D('',#498,#403,#404);
#361=AXIS2_PLACEMENT_3D('',#504,#405,#406);
#362=AXIS2_PLACEMENT_3D('',#508,#407,#408);
#363=AXIS2_PLACEMENT_3D('',#514,#409,#410);
#364=AXIS2_PLACEMENT_3D('',#518,#411,#412);
#365=AXIS2_PLACEMENT_3D('',#527,#413,#414);
#366=AXIS2_PLACEMENT_3D('',#528,#415,#416);
#367=AXIS2_PLACEMENT_3D('',#537,#417,#418);
#368=AXIS2_PLACEMENT_3D('',#538,#419,#420);
#369=AXIS2_PLACEMENT_3D('',#546,#421,#422);
#370=AXIS2_PLACEMENT_3D('',#547,#423,#424);
#371=AXIS2_PLACEMENT_3D('',#554,#425,#426);
#372=AXIS2_PLACEMENT_3D('',#558,#427,#428);
#373=AXIS2_PLACEMENT_3D('',#564,#429,#430);
#374=AXIS2_PLACEMENT_3D('',#568,#431,#432);
#375=AXIS2_PLACEMENT_3D('',#574,#433,#434);
#376=AXIS2_PLACEMENT_3D('',#578,#435,#436);
#377=AXIS2_PLACEMENT_3D('',#587,#437,#438);
#378=AXIS2_PLACEMENT_3D('',#588,#439,#440);
#379=AXIS2_PLACEMENT_3D('',#597,#441,#442);
#380=AXIS2_PLACEMENT_3D('',#598,#443,#444);
#381=AXIS2_PLACEMENT_3D('',#606,#445,#446);
#382=AXIS2_PLACEMENT_3D('',#607,#447,#448);
#383=AXIS2_PLACEMENT_3D('',#609,#449,#450);
#384=AXIS2_PLACEMENT_3D('',#610,#451,#452);
#385=AXIS2_PLACEMENT_3D('',#613,#454,#455);
#386=AXIS2_PLACEMENT_3D('',#614,#456,#457);
#387=AXIS2_PLACEMENT_3D('',#617,#459,#460);
#388=AXIS2_PLACEMENT_3D('',#618,#461,#462);
#389=AXIS2_PLACEMENT_3D('',#621,#464,#465);
#390=AXIS2_PLACEMENT_3D('',#622,#466,#467);
#391=AXIS2_PLACEMENT_3D('',#623,#468,#469);
#392=AXIS2_PLACEMENT_3D('',#626,#472,#473);
#393=AXIS2_PLACEMENT_3D('',#628,#475,#476);
#394=AXIS2_PLACEMENT_3D('',#630,#478,#479);
#395=AXIS2_PLACEMENT_3D('',#632,#481,#482);
#396=AXIS2_PLACEMENT_3D('',#634,#484,#485);
#397=DIRECTION('axis',(0.,0.,1.));
#398=DIRECTION('refdir',(1.,0.,0.));
#399=DIRECTION('center_axis',(1.,6.12303176911189E-17,0.));
#400=DIRECTION('ref_axis',(6.12303176911189E-17,-1.,0.));
#401=DIRECTION('center_axis',(1.,6.12303176911189E-17,0.));
#402=DIRECTION('ref_axis',(6.12303176911189E-17,-1.,0.));
#403=DIRECTION('center_axis',(1.,6.12303176911189E-17,0.));
#404=DIRECTION('ref_axis',(6.12303176911189E-17,-1.,0.));
#405=DIRECTION('center_axis',(1.,6.12303176911189E-17,0.));
#406=DIRECTION('ref_axis',(6.12303176911189E-17,-1.,0.));
#407=DIRECTION('center_axis',(1.,6.12303176911189E-17,0.));
#408=DIRECTION('ref_axis',(-6.12303176911189E-17,1.,-5.66553889764798E-16));
#409=DIRECTION('center_axis',(1.,6.12303176911189E-17,0.));
#410=DIRECTION('ref_axis',(6.12303176911189E-17,-1.,0.));
#411=DIRECTION('center_axis',(1.,6.12303176911189E-17,0.));
#412=DIRECTION('ref_axis',(6.12303176911189E-17,-1.,0.));
#413=DIRECTION('center_axis',(1.,6.12303176911189E-17,0.));
#414=DIRECTION('ref_axis',(6.12303176911189E-17,-1.,0.));
#415=DIRECTION('center_axis',(1.,6.12303176911189E-17,0.));
#416=DIRECTION('ref_axis',(6.12303176911189E-17,-1.,0.));
#417=DIRECTION('center_axis',(1.,6.12303176911189E-17,0.));
#418=DIRECTION('ref_axis',(6.12303176911189E-17,-1.,0.));
#419=DIRECTION('center_axis',(1.,6.12303176911189E-17,0.));
#420=DIRECTION('ref_axis',(6.12303176911189E-17,-1.,0.));
#421=DIRECTION('center_axis',(1.,6.12303176911189E-17,0.));
#422=DIRECTION('ref_axis',(6.12303176911189E-17,-1.,0.));
#423=DIRECTION('center_axis',(-1.,-6.12303176911189E-17,0.));
#424=DIRECTION('ref_axis',(6.12303176911189E-17,-1.,0.));
#425=DIRECTION('center_axis',(1.,6.12303176911189E-17,0.));
#426=DIRECTION('ref_axis',(6.12303176911189E-17,-1.,0.));
#427=DIRECTION('center_axis',(-1.,-6.12303176911189E-17,0.));
#428=DIRECTION('ref_axis',(-6.12303176911189E-17,1.,1.22464679914735E-16));
#429=DIRECTION('center_axis',(1.,6.12303176911189E-17,0.));
#430=DIRECTION('ref_axis',(6.12303176911189E-17,-1.,0.));
#431=DIRECTION('center_axis',(-1.,-6.12303176911189E-17,0.));
#432=DIRECTION('ref_axis',(6.12303176911189E-17,-1.,0.));
#433=DIRECTION('center_axis',(1.,6.12303176911189E-17,0.));
#434=DIRECTION('ref_axis',(6.12303176911189E-17,-1.,0.));
#435=DIRECTION('center_axis',(-1.,-6.12303176911189E-17,0.));
#436=DIRECTION('ref_axis',(6.12303176911189E-17,-1.,0.));
#437=DIRECTION('center_axis',(1.,6.12303176911189E-17,0.));
#438=DIRECTION('ref_axis',(6.12303176911189E-17,-1.,0.));
#439=DIRECTION('center_axis',(-1.,-6.12303176911189E-17,0.));
#440=DIRECTION('ref_axis',(6.12303176911189E-17,-1.,0.));
#441=DIRECTION('center_axis',(1.,6.12303176911189E-17,0.));
#442=DIRECTION('ref_axis',(6.12303176911189E-17,-1.,0.));
#443=DIRECTION('center_axis',(-1.,-6.12303176911189E-17,0.));
#444=DIRECTION('ref_axis',(6.12303176911189E-17,-1.,0.));
#445=DIRECTION('center_axis',(1.,6.12303176911189E-17,0.));
#446=DIRECTION('ref_axis',(6.12303176911189E-17,-1.,0.));
#447=DIRECTION('center_axis',(1.,6.12303176911189E-17,0.));
#448=DIRECTION('ref_axis',(6.12303176911189E-17,-1.,0.));
#449=DIRECTION('center_axis',(1.,6.12303176911189E-17,0.));
#450=DIRECTION('ref_axis',(6.12303176911189E-17,-1.,0.));
#451=DIRECTION('center_axis',(1.,6.12303176911189E-17,0.));
#452=DIRECTION('ref_axis',(6.12303176911189E-17,-1.,0.));
#453=DIRECTION('',(-0.707106781186547,-0.707106781186547,-8.65956056235493E-17));
#454=DIRECTION('center_axis',(1.,6.12303176911189E-17,0.));
#455=DIRECTION('ref_axis',(6.12303176911189E-17,-1.,0.));
#456=DIRECTION('center_axis',(1.,6.12303176911189E-17,0.));
#457=DIRECTION('ref_axis',(6.12303176911189E-17,-1.,0.));
#458=DIRECTION('',(-1.,-6.12303176911189E-17,0.));
#459=DIRECTION('center_axis',(1.,6.12303176911189E-17,0.));
#460=DIRECTION('ref_axis',(6.12303176911189E-17,-1.,0.));
#461=DIRECTION('center_axis',(-1.,-6.12303176911189E-17,0.));
#462=DIRECTION('ref_axis',(6.12303176911189E-17,-1.,0.));
#463=DIRECTION('',(-0.707106781186547,0.707106781186547,8.65956056235493E-17));
#464=DIRECTION('center_axis',(1.,6.12303176911189E-17,0.));
#465=DIRECTION('ref_axis',(6.12303176911189E-17,-1.,0.));
#466=DIRECTION('center_axis',(-1.,-6.12303176911189E-17,0.));
#467=DIRECTION('ref_axis',(-6.12303176911189E-17,1.,0.));
#468=DIRECTION('center_axis',(-5.30270106023007E-17,0.866025403784439,0.5));
#469=DIRECTION('ref_axis',(3.06151588455594E-17,-0.5,0.866025403784439));
#470=DIRECTION('',(1.,6.12303176911189E-17,0.));
#471=DIRECTION('',(1.,6.12303176911189E-17,0.));
#472=DIRECTION('center_axis',(-1.71263441738812E-32,2.79703663473973E-16,
1.));
#473=DIRECTION('ref_axis',(6.12303176911189E-17,-1.,2.79703663473973E-16));
#474=DIRECTION('',(1.,6.12303176911189E-17,0.));
#475=DIRECTION('center_axis',(5.30270106023007E-17,-0.866025403784439,0.5));
#476=DIRECTION('ref_axis',(3.06151588455594E-17,-0.5,-0.866025403784439));
#477=DIRECTION('',(1.,6.12303176911189E-17,0.));
#478=DIRECTION('center_axis',(-5.30270106023007E-17,0.866025403784438,-0.5));
#479=DIRECTION('ref_axis',(-3.06151588455594E-17,0.5,0.866025403784438));
#480=DIRECTION('',(1.,6.12303176911189E-17,0.));
#481=DIRECTION('center_axis',(0.,0.,-1.));
#482=DIRECTION('ref_axis',(-6.12303176911189E-17,1.,0.));
#483=DIRECTION('',(1.,6.12303176911189E-17,0.));
#484=DIRECTION('center_axis',(5.30270106023007E-17,-0.866025403784439,-0.5));
#485=DIRECTION('ref_axis',(-3.06151588455594E-17,0.5,-0.866025403784439));
#486=CARTESIAN_POINT('',(0.,0.,0.));
#487=CARTESIAN_POINT('Origin',(0.123047776121039,7.53425442307689E-18,0.));
#488=CARTESIAN_POINT('',(0.245620093061862,-1.58771324027147,2.75));
#489=CARTESIAN_POINT('',(-4.70974464781732E-32,7.69185074553425E-16,2.75));
#490=CARTESIAN_POINT('Ctrl Pts',(0.245620093061867,-1.58771324027149,2.75));
#491=CARTESIAN_POINT('Ctrl Pts',(1.95965992990604E-16,-0.736860279185596,
2.75));
#492=CARTESIAN_POINT('Ctrl Pts',(6.93889390390722E-17,7.69185074553425E-16,
2.75));
#493=CARTESIAN_POINT('',(1.45824279156327E-16,-2.38156986040721,1.375));
#494=CARTESIAN_POINT('Origin',(0.,0.,0.));
#495=CARTESIAN_POINT('Ctrl Pts',(9.0313127925069E-17,-2.38156986040721,
1.375));
#496=CARTESIAN_POINT('Ctrl Pts',(3.19063297678466E-16,-2.01313972081441,
2.01313972081442));
#497=CARTESIAN_POINT('Ctrl Pts',(0.245620093061867,-1.58771324027146,2.75000000000001));
#498=CARTESIAN_POINT('Origin',(0.123047776121039,7.53425442307689E-18,0.));
#499=CARTESIAN_POINT('',(0.245620093061862,1.58771324027147,2.75));
#500=CARTESIAN_POINT('',(-1.45824279156327E-16,2.38156986040721,1.375));
#501=CARTESIAN_POINT('Ctrl Pts',(0.245620093061867,1.58771324027146,2.75000000000001));
#502=CARTESIAN_POINT('Ctrl Pts',(1.2969010329029E-16,2.01313972081441,2.01313972081442));
#503=CARTESIAN_POINT('Ctrl Pts',(-2.42968793811028E-16,2.38156986040721,
1.375));
#504=CARTESIAN_POINT('Origin',(0.,0.,0.));
#505=CARTESIAN_POINT('Ctrl Pts',(6.93889390390722E-17,7.69185074553425E-16,
2.75));
#506=CARTESIAN_POINT('Ctrl Pts',(1.05729615013602E-16,0.736860279185597,
2.75));
#507=CARTESIAN_POINT('Ctrl Pts',(0.245620093061867,1.58771324027149,2.75));
#508=CARTESIAN_POINT('Origin',(0.123047776121039,7.53425442307689E-18,0.));
#509=CARTESIAN_POINT('',(0.245620093061862,3.17542648054294,-5.83303538183105E-16));
#510=CARTESIAN_POINT('',(-1.45824279156327E-16,2.38156986040721,-1.375));
#511=CARTESIAN_POINT('Ctrl Pts',(0.245620093061867,3.17542648054295,1.26735351599021E-14));
#512=CARTESIAN_POINT('Ctrl Pts',(-1.41439295134133E-17,2.75,-0.736860279185582));
#513=CARTESIAN_POINT('Ctrl Pts',(-1.59702066964141E-16,2.38156986040721,
-1.375));
#514=CARTESIAN_POINT('Origin',(0.,0.,0.));
#515=CARTESIAN_POINT('Ctrl Pts',(-2.42968793811028E-16,2.38156986040721,
1.375));
#516=CARTESIAN_POINT('Ctrl Pts',(1.36566934490958E-16,2.75000000000001,
0.736860279185579));
#517=CARTESIAN_POINT('Ctrl Pts',(0.245620093061867,3.17542648054295,-1.44937818244709E-14));
#518=CARTESIAN_POINT('Origin',(0.123047776121039,7.53425442307689E-18,0.));
#519=CARTESIAN_POINT('',(0.245620093061862,1.58771324027147,-2.75));
#520=CARTESIAN_POINT('Ctrl Pts',(-1.59702066964141E-16,2.38156986040721,
-1.375));
#521=CARTESIAN_POINT('Ctrl Pts',(-7.30157809032499E-17,2.01313972081441,
-2.01313972081442));
#522=CARTESIAN_POINT('Ctrl Pts',(0.245620093061867,1.58771324027146,-2.75000000000001));
#523=CARTESIAN_POINT('',(0.,0.,-2.75));
#524=CARTESIAN_POINT('Ctrl Pts',(0.245620093061867,1.58771324027149,-2.75));
#525=CARTESIAN_POINT('Ctrl Pts',(-6.0816287770874E-17,0.736860279185594,
-2.75));
#526=CARTESIAN_POINT('Ctrl Pts',(-1.11022302462516E-16,-6.79793085057932E-33,
-2.75));
#527=CARTESIAN_POINT('Origin',(0.,0.,0.));
#528=CARTESIAN_POINT('Origin',(0.123047776121039,7.53425442307689E-18,0.));
#529=CARTESIAN_POINT('',(0.245620093061863,-1.58771324027147,-2.75));
#530=CARTESIAN_POINT('Ctrl Pts',(-1.11022302462516E-16,-6.79793085057932E-33,
-2.75));
#531=CARTESIAN_POINT('Ctrl Pts',(2.94200902061271E-17,-0.736860279185595,
-2.75));
#532=CARTESIAN_POINT('Ctrl Pts',(0.245620093061867,-1.58771324027149,-2.75));
#533=CARTESIAN_POINT('',(1.45824279156327E-16,-2.38156986040721,-1.375));
#534=CARTESIAN_POINT('Ctrl Pts',(0.245620093061867,-1.58771324027146,-2.75000000000001));
#535=CARTESIAN_POINT('Ctrl Pts',(3.32916187304875E-16,-2.01313972081441,
-2.01313972081442));
#536=CARTESIAN_POINT('Ctrl Pts',(7.64353401172545E-17,-2.38156986040721,
-1.375));
#537=CARTESIAN_POINT('Origin',(0.,0.,0.));
#538=CARTESIAN_POINT('Origin',(0.123047776121039,7.53425442307689E-18,0.));
#539=CARTESIAN_POINT('',(0.245620093061863,-3.17542648054294,1.94438793766233E-16));
#540=CARTESIAN_POINT('Ctrl Pts',(7.64353401172545E-17,-2.38156986040721,
-1.375));
#541=CARTESIAN_POINT('Ctrl Pts',(3.78034376293376E-16,-2.75,-0.73686027918558));
#542=CARTESIAN_POINT('Ctrl Pts',(0.245620093061867,-3.17542648054295,1.38082892896246E-14));
#543=CARTESIAN_POINT('Ctrl Pts',(0.245620093061867,-3.17542648054295,-1.34461913825573E-14));
#544=CARTESIAN_POINT('Ctrl Pts',(4.12710172176858E-16,-2.75,0.73686027918558));
#545=CARTESIAN_POINT('Ctrl Pts',(9.0313127925069E-17,-2.38156986040721,
1.375));
#546=CARTESIAN_POINT('Origin',(0.,0.,0.));
#547=CARTESIAN_POINT('Origin',(2.27695222387896,1.39418508035608E-16,0.));
#548=CARTESIAN_POINT('',(2.15437990693814,1.58771324027147,-2.75));
#549=CARTESIAN_POINT('',(2.4,2.38156986040721,-1.375));
#550=CARTESIAN_POINT('Ctrl Pts',(2.15437990693813,1.58771324027146,-2.75000000000001));
#551=CARTESIAN_POINT('Ctrl Pts',(2.4,2.01313972081441,-2.01313972081442));
#552=CARTESIAN_POINT('Ctrl Pts',(2.4,2.38156986040721,-1.375));
#553=CARTESIAN_POINT('',(2.4,1.46952762458685E-16,-2.75));
#554=CARTESIAN_POINT('Origin',(2.4,1.46952762458685E-16,0.));
#555=CARTESIAN_POINT('Ctrl Pts',(2.4,1.46952762458685E-16,-2.75));
#556=CARTESIAN_POINT('Ctrl Pts',(2.4,0.736860279185594,-2.75));
#557=CARTESIAN_POINT('Ctrl Pts',(2.15437990693813,1.58771324027149,-2.75));
#558=CARTESIAN_POINT('Origin',(2.27695222387896,1.39418508035608E-16,0.));
#559=CARTESIAN_POINT('',(2.15437990693814,3.17542648054294,-5.83303538183105E-16));
#560=CARTESIAN_POINT('',(2.4,2.38156986040721,1.375));
#561=CARTESIAN_POINT('Ctrl Pts',(2.15437990693813,3.17542648054295,-1.42681753141095E-14));
#562=CARTESIAN_POINT('Ctrl Pts',(2.4,2.75,0.736860279185583));
#563=CARTESIAN_POINT('Ctrl Pts',(2.4,2.38156986040721,1.375));
#564=CARTESIAN_POINT('Origin',(2.4,1.46952762458685E-16,0.));
#565=CARTESIAN_POINT('Ctrl Pts',(2.4,2.38156986040721,-1.375));
#566=CARTESIAN_POINT('Ctrl Pts',(2.4,2.75,-0.736860279185582));
#567=CARTESIAN_POINT('Ctrl Pts',(2.15437990693813,3.17542648054295,1.28027629159572E-14));
#568=CARTESIAN_POINT('Origin',(2.27695222387896,1.39418508035608E-16,0.));
#569=CARTESIAN_POINT('',(2.15437990693814,1.58771324027147,2.75));
#570=CARTESIAN_POINT('',(2.4,9.16137837012111E-16,2.75));
#571=CARTESIAN_POINT('Ctrl Pts',(2.15437990693813,1.58771324027149,2.75));
#572=CARTESIAN_POINT('Ctrl Pts',(2.4,0.736860279185598,2.75));
#573=CARTESIAN_POINT('Ctrl Pts',(2.4,9.16137837012111E-16,2.75));
#574=CARTESIAN_POINT('Origin',(2.4,1.46952762458685E-16,0.));
#575=CARTESIAN_POINT('Ctrl Pts',(2.4,2.38156986040721,1.375));
#576=CARTESIAN_POINT('Ctrl Pts',(2.4,2.01313972081441,2.01313972081442));
#577=CARTESIAN_POINT('Ctrl Pts',(2.15437990693813,1.58771324027146,2.75000000000001));
#578=CARTESIAN_POINT('Origin',(2.27695222387896,1.39418508035608E-16,0.));
#579=CARTESIAN_POINT('',(2.15437990693814,-1.58771324027147,2.75));
#580=CARTESIAN_POINT('Ctrl Pts',(2.4,9.16137837012111E-16,2.75));
#581=CARTESIAN_POINT('Ctrl Pts',(2.4,-0.736860279185594,2.75));
#582=CARTESIAN_POINT('Ctrl Pts',(2.15437990693813,-1.58771324027149,2.75));
#583=CARTESIAN_POINT('',(2.4,-2.38156986040721,1.375));
#584=CARTESIAN_POINT('Ctrl Pts',(2.15437990693813,-1.58771324027146,2.75000000000001));
#585=CARTESIAN_POINT('Ctrl Pts',(2.4,-2.01313972081441,2.01313972081442));
#586=CARTESIAN_POINT('Ctrl Pts',(2.4,-2.38156986040721,1.375));
#587=CARTESIAN_POINT('Origin',(2.4,1.46952762458685E-16,0.));
#588=CARTESIAN_POINT('Origin',(2.27695222387896,1.39418508035608E-16,0.));
#589=CARTESIAN_POINT('',(2.15437990693814,-3.17542648054294,1.94438793766233E-16));
#590=CARTESIAN_POINT('Ctrl Pts',(2.4,-2.38156986040721,1.375));
#591=CARTESIAN_POINT('Ctrl Pts',(2.4,-2.75,0.736860279185584));
#592=CARTESIAN_POINT('Ctrl Pts',(2.15437990693813,-3.17542648054295,-1.30851776009603E-14));
#593=CARTESIAN_POINT('',(2.4,-2.38156986040721,-1.375));
#594=CARTESIAN_POINT('Ctrl Pts',(2.15437990693813,-3.17542648054295,1.39995290225787E-14));
#595=CARTESIAN_POINT('Ctrl Pts',(2.4,-2.75,-0.736860279185583));
#596=CARTESIAN_POINT('Ctrl Pts',(2.4,-2.38156986040721,-1.375));
#597=CARTESIAN_POINT('Origin',(2.4,1.46952762458685E-16,0.));
#598=CARTESIAN_POINT('Origin',(2.27695222387896,1.39418508035608E-16,0.));
#599=CARTESIAN_POINT('',(2.15437990693814,-1.58771324027147,-2.75));
#600=CARTESIAN_POINT('Ctrl Pts',(2.4,-2.38156986040721,-1.375));
#601=CARTESIAN_POINT('Ctrl Pts',(2.4,-2.01313972081441,-2.01313972081442));
#602=CARTESIAN_POINT('Ctrl Pts',(2.15437990693813,-1.58771324027146,-2.75000000000001));
#603=CARTESIAN_POINT('Ctrl Pts',(2.15437990693813,-1.58771324027149,-2.75));
#604=CARTESIAN_POINT('Ctrl Pts',(2.4,-0.736860279185594,-2.75));
#605=CARTESIAN_POINT('Ctrl Pts',(2.4,1.46952762458685E-16,-2.75));
#606=CARTESIAN_POINT('Origin',(2.4,1.46952762458685E-16,0.));
#607=CARTESIAN_POINT('Origin',(2.4,-2.125,0.));
#608=CARTESIAN_POINT('',(2.4,1.5,1.83697019872103E-16));
#609=CARTESIAN_POINT('Origin',(2.4,1.46952762458685E-16,0.));
#610=CARTESIAN_POINT('Origin',(2.2646875,1.38667535096106E-16,0.));
#611=CARTESIAN_POINT('',(2.129375,1.229375,1.50555015870178E-16));
#612=CARTESIAN_POINT('',(2.2646875,1.3646875,1.6712601787114E-16));
#613=CARTESIAN_POINT('Origin',(2.129375,1.30382307733526E-16,0.));
#614=CARTESIAN_POINT('Origin',(1.2,7.34763812293426E-17,0.));
#615=CARTESIAN_POINT('',(0.270625,1.229375,1.50555015870178E-16));
#616=CARTESIAN_POINT('',(1.2,1.229375,1.50555015870178E-16));
#617=CARTESIAN_POINT('Origin',(0.270625,1.6570454725159E-17,0.));
#618=CARTESIAN_POINT('Origin',(0.1353125,8.28522736257952E-18,0.));
#619=CARTESIAN_POINT('',(-8.67361737988404E-17,1.5,1.83697019872103E-16));
#620=CARTESIAN_POINT('',(0.1353125,1.3646875,1.6712601787114E-16));
#621=CARTESIAN_POINT('Origin',(0.,0.,0.));
#622=CARTESIAN_POINT('Origin',(1.30114425093628E-16,-2.125,0.));
#623=CARTESIAN_POINT('Origin',(-1.,2.38156986040721,1.375));
#624=CARTESIAN_POINT('',(-1.,1.58771324027147,2.75));
#625=CARTESIAN_POINT('',(-1.,3.17542648054294,-5.83303538183105E-16));
#626=CARTESIAN_POINT('Origin',(-1.,8.26948102009007E-16,2.75));
#627=CARTESIAN_POINT('',(-1.,-1.58771324027147,2.75));
#628=CARTESIAN_POINT('Origin',(-1.,-2.38156986040721,1.375));
#629=CARTESIAN_POINT('',(-1.,-3.17542648054294,1.94438793766233E-16));
#630=CARTESIAN_POINT('Origin',(-1.,2.38156986040721,-1.375));
#631=CARTESIAN_POINT('',(-1.,1.58771324027147,-2.75));
#632=CARTESIAN_POINT('Origin',(-1.,-7.27364132466213E-16,-2.75));
#633=CARTESIAN_POINT('',(-1.,-1.58771324027147,-2.75));
#634=CARTESIAN_POINT('Origin',(-1.,-2.38156986040721,-1.375));
#635=UNCERTAINTY_MEASURE_WITH_UNIT(LENGTH_MEASURE(0.01),#639,
'DISTANCE_ACCURACY_VALUE',
'Maximum model space distance between geometric entities at asserted c
onnectivities');
#636=UNCERTAINTY_MEASURE_WITH_UNIT(LENGTH_MEASURE(0.01),#639,
'DISTANCE_ACCURACY_VALUE',
'Maximum model space distance between geometric entities at asserted c
onnectivities');
#637=(
GEOMETRIC_REPRESENTATION_CONTEXT(3)
GLOBAL_UNCERTAINTY_ASSIGNED_CONTEXT((#635))
GLOBAL_UNIT_ASSIGNED_CONTEXT((#639,#641,#642))
REPRESENTATION_CONTEXT('','3D')
);
#638=(
GEOMETRIC_REPRESENTATION_CONTEXT(3)
GLOBAL_UNCERTAINTY_ASSIGNED_CONTEXT((#636))
GLOBAL_UNIT_ASSIGNED_CONTEXT((#639,#641,#642))
REPRESENTATION_CONTEXT('','3D')
);
#639=(
LENGTH_UNIT()
NAMED_UNIT(*)
SI_UNIT(.MILLI.,.METRE.)
);
#640=(
LENGTH_UNIT()
NAMED_UNIT(*)
SI_UNIT($,.METRE.)
);
#641=(
NAMED_UNIT(*)
PLANE_ANGLE_UNIT()
SI_UNIT($,.RADIAN.)
);
#642=(
NAMED_UNIT(*)
SI_UNIT($,.STERADIAN.)
SOLID_ANGLE_UNIT()
);
#643=SHAPE_DEFINITION_REPRESENTATION(#644,#645);
#644=PRODUCT_DEFINITION_SHAPE('',$,#647);
#645=SHAPE_REPRESENTATION('',(#357),#637);
#646=PRODUCT_DEFINITION_CONTEXT('part definition',#651,'design');
#647=PRODUCT_DEFINITION('pn11610117','pn11610117 v1',#648,#646);
#648=PRODUCT_DEFINITION_FORMATION('',$,#653);
#649=PRODUCT_RELATED_PRODUCT_CATEGORY('pn11610117 v1','pn11610117 v1',(#653));
#650=APPLICATION_PROTOCOL_DEFINITION('international standard',
'automotive_design',2009,#651);
#651=APPLICATION_CONTEXT(
'Core Data for Automotive Mechanical Design Process');
#652=PRODUCT_CONTEXT('part definition',#651,'mechanical');
#653=PRODUCT('pn11610117','pn11610117 v1',$,(#652));
#654=PRESENTATION_STYLE_ASSIGNMENT((#655));
#655=SURFACE_STYLE_USAGE(.BOTH.,#656);
#656=SURFACE_SIDE_STYLE('',(#657));
#657=SURFACE_STYLE_FILL_AREA(#658);
#658=FILL_AREA_STYLE('Default',(#659));
#659=FILL_AREA_STYLE_COLOUR('Default',#660);
#660=COLOUR_RGB('Default',0.749019607843137,0.749019607843137,0.749019607843137);
ENDSEC;
END-ISO-10303-21;
