ISO-10303-21;
HEADER;
/* Generated by software containing ST-Developer
 * from STEP Tools, Inc. (www.steptools.com) 
 */

FILE_DESCRIPTION(
/* description */ (''),
/* implementation_level */ '2;1');

FILE_NAME(
/* name */ 'LaserSaftyInterlock v2.step',
/* time_stamp */ '2024-06-17T14:09:24+02:00',
/* author */ (''),
/* organization */ (''),
/* preprocessor_version */ 'ST-DEVELOPER v20',
/* originating_system */ 'Autodesk Translation Framework v13.14.0.145',

/* authorisation */ '');

FILE_SCHEMA (('AUTOMOTIVE_DESIGN { 1 0 10303 214 3 1 1 }'));
ENDSEC;

DATA;
#10=MECHANICAL_DESIGN_GEOMETRIC_PRESENTATION_REPRESENTATION('',(#13),#749);
#11=SHAPE_REPRESENTATION_RELATIONSHIP('SRR','None',#756,#12);
#12=ADVANCED_BREP_SHAPE_REPRESENTATION('',(#14),#748);
#13=STYLED_ITEM('',(#765),#14);
#14=MANIFOLD_SOLID_BREP('Body1',#453);
#15=FACE_BOUND('',#75,.T.);
#16=FACE_BOUND('',#76,.T.);
#17=FACE_BOUND('',#79,.T.);
#18=FACE_BOUND('',#80,.T.);
#19=FACE_BOUND('',#86,.T.);
#20=FACE_BOUND('',#87,.T.);
#21=FACE_BOUND('',#89,.T.);
#22=FACE_BOUND('',#90,.T.);
#23=FACE_BOUND('',#91,.T.);
#24=CIRCLE('',#470,2.75);
#25=CIRCLE('',#471,2.75);
#26=CIRCLE('',#474,2.75);
#27=CIRCLE('',#475,2.75);
#28=CIRCLE('',#478,2.75);
#29=CIRCLE('',#479,2.75);
#30=CIRCLE('',#482,2.75);
#31=CIRCLE('',#483,2.75);
#32=CIRCLE('',#488,4.5);
#33=CIRCLE('',#489,4.5);
#34=CIRCLE('',#492,4.5);
#35=CIRCLE('',#493,4.5);
#36=CYLINDRICAL_SURFACE('',#469,2.75);
#37=CYLINDRICAL_SURFACE('',#473,2.75);
#38=CYLINDRICAL_SURFACE('',#477,2.75);
#39=CYLINDRICAL_SURFACE('',#481,2.75);
#40=CYLINDRICAL_SURFACE('',#487,4.5);
#41=CYLINDRICAL_SURFACE('',#491,4.5);
#42=FACE_OUTER_BOUND('',#65,.T.);
#43=FACE_OUTER_BOUND('',#66,.T.);
#44=FACE_OUTER_BOUND('',#67,.T.);
#45=FACE_OUTER_BOUND('',#68,.T.);
#46=FACE_OUTER_BOUND('',#69,.T.);
#47=FACE_OUTER_BOUND('',#70,.T.);
#48=FACE_OUTER_BOUND('',#71,.T.);
#49=FACE_OUTER_BOUND('',#72,.T.);
#50=FACE_OUTER_BOUND('',#73,.T.);
#51=FACE_OUTER_BOUND('',#74,.T.);
#52=FACE_OUTER_BOUND('',#77,.T.);
#53=FACE_OUTER_BOUND('',#78,.T.);
#54=FACE_OUTER_BOUND('',#81,.T.);
#55=FACE_OUTER_BOUND('',#82,.T.);
#56=FACE_OUTER_BOUND('',#83,.T.);
#57=FACE_OUTER_BOUND('',#84,.T.);
#58=FACE_OUTER_BOUND('',#85,.T.);
#59=FACE_OUTER_BOUND('',#88,.T.);
#60=FACE_OUTER_BOUND('',#92,.T.);
#61=FACE_OUTER_BOUND('',#93,.T.);
#62=FACE_OUTER_BOUND('',#94,.T.);
#63=FACE_OUTER_BOUND('',#95,.T.);
#64=FACE_OUTER_BOUND('',#96,.T.);
#65=EDGE_LOOP('',(#293,#294,#295,#296));
#66=EDGE_LOOP('',(#297,#298,#299,#300));
#67=EDGE_LOOP('',(#301,#302,#303,#304));
#68=EDGE_LOOP('',(#305,#306,#307,#308));
#69=EDGE_LOOP('',(#309,#310,#311,#312));
#70=EDGE_LOOP('',(#313,#314,#315,#316));
#71=EDGE_LOOP('',(#317,#318,#319,#320));
#72=EDGE_LOOP('',(#321,#322,#323,#324));
#73=EDGE_LOOP('',(#325,#326,#327,#328));
#74=EDGE_LOOP('',(#329,#330,#331,#332));
#75=EDGE_LOOP('',(#333,#334,#335,#336));
#76=EDGE_LOOP('',(#337,#338,#339,#340));
#77=EDGE_LOOP('',(#341,#342,#343,#344));
#78=EDGE_LOOP('',(#345,#346,#347,#348));
#79=EDGE_LOOP('',(#349,#350,#351,#352));
#80=EDGE_LOOP('',(#353,#354,#355,#356));
#81=EDGE_LOOP('',(#357,#358,#359,#360));
#82=EDGE_LOOP('',(#361,#362,#363,#364,#365,#366));
#83=EDGE_LOOP('',(#367,#368,#369,#370));
#84=EDGE_LOOP('',(#371,#372,#373,#374,#375,#376));
#85=EDGE_LOOP('',(#377,#378,#379,#380));
#86=EDGE_LOOP('',(#381));
#87=EDGE_LOOP('',(#382));
#88=EDGE_LOOP('',(#383,#384,#385,#386));
#89=EDGE_LOOP('',(#387));
#90=EDGE_LOOP('',(#388,#389,#390,#391));
#91=EDGE_LOOP('',(#392));
#92=EDGE_LOOP('',(#393,#394,#395,#396));
#93=EDGE_LOOP('',(#397,#398,#399,#400));
#94=EDGE_LOOP('',(#401,#402,#403,#404));
#95=EDGE_LOOP('',(#405,#406,#407,#408));
#96=EDGE_LOOP('',(#409,#410,#411,#412));
#97=LINE('',#626,#145);
#98=LINE('',#628,#146);
#99=LINE('',#630,#147);
#100=LINE('',#631,#148);
#101=LINE('',#635,#149);
#102=LINE('',#637,#150);
#103=LINE('',#639,#151);
#104=LINE('',#640,#152);
#105=LINE('',#646,#153);
#106=LINE('',#649,#154);
#107=LINE('',#651,#155);
#108=LINE('',#652,#156);
#109=LINE('',#659,#157);
#110=LINE('',#661,#158);
#111=LINE('',#663,#159);
#112=LINE('',#664,#160);
#113=LINE('',#670,#161);
#114=LINE('',#673,#162);
#115=LINE('',#675,#163);
#116=LINE('',#676,#164);
#117=LINE('',#683,#165);
#118=LINE('',#685,#166);
#119=LINE('',#687,#167);
#120=LINE('',#688,#168);
#121=LINE('',#692,#169);
#122=LINE('',#693,#170);
#123=LINE('',#694,#171);
#124=LINE('',#697,#172);
#125=LINE('',#699,#173);
#126=LINE('',#700,#174);
#127=LINE('',#705,#175);
#128=LINE('',#708,#176);
#129=LINE('',#709,#177);
#130=LINE('',#714,#178);
#131=LINE('',#717,#179);
#132=LINE('',#718,#180);
#133=LINE('',#723,#181);
#134=LINE('',#725,#182);
#135=LINE('',#727,#183);
#136=LINE('',#728,#184);
#137=LINE('',#731,#185);
#138=LINE('',#733,#186);
#139=LINE('',#734,#187);
#140=LINE('',#737,#188);
#141=LINE('',#738,#189);
#142=LINE('',#741,#190);
#143=LINE('',#742,#191);
#144=LINE('',#744,#192);
#145=VECTOR('',#506,10.);
#146=VECTOR('',#507,10.);
#147=VECTOR('',#508,10.);
#148=VECTOR('',#509,10.);
#149=VECTOR('',#512,10.);
#150=VECTOR('',#513,10.);
#151=VECTOR('',#514,10.);
#152=VECTOR('',#515,10.);
#153=VECTOR('',#522,10.);
#154=VECTOR('',#525,10.);
#155=VECTOR('',#526,10.);
#156=VECTOR('',#527,10.);
#157=VECTOR('',#536,10.);
#158=VECTOR('',#537,10.);
#159=VECTOR('',#538,10.);
#160=VECTOR('',#539,10.);
#161=VECTOR('',#546,10.);
#162=VECTOR('',#549,10.);
#163=VECTOR('',#550,10.);
#164=VECTOR('',#551,10.);
#165=VECTOR('',#560,10.);
#166=VECTOR('',#561,10.);
#167=VECTOR('',#562,10.);
#168=VECTOR('',#563,10.);
#169=VECTOR('',#566,10.);
#170=VECTOR('',#567,10.);
#171=VECTOR('',#568,10.);
#172=VECTOR('',#571,10.);
#173=VECTOR('',#572,10.);
#174=VECTOR('',#573,10.);
#175=VECTOR('',#578,4.5);
#176=VECTOR('',#583,10.);
#177=VECTOR('',#584,10.);
#178=VECTOR('',#589,4.5);
#179=VECTOR('',#594,10.);
#180=VECTOR('',#595,10.);
#181=VECTOR('',#600,10.);
#182=VECTOR('',#601,10.);
#183=VECTOR('',#602,10.);
#184=VECTOR('',#603,10.);
#185=VECTOR('',#606,10.);
#186=VECTOR('',#607,10.);
#187=VECTOR('',#608,10.);
#188=VECTOR('',#611,10.);
#189=VECTOR('',#612,10.);
#190=VECTOR('',#615,10.);
#191=VECTOR('',#616,10.);
#192=VECTOR('',#619,10.);
#193=VERTEX_POINT('',#624);
#194=VERTEX_POINT('',#625);
#195=VERTEX_POINT('',#627);
#196=VERTEX_POINT('',#629);
#197=VERTEX_POINT('',#633);
#198=VERTEX_POINT('',#634);
#199=VERTEX_POINT('',#636);
#200=VERTEX_POINT('',#638);
#201=VERTEX_POINT('',#642);
#202=VERTEX_POINT('',#644);
#203=VERTEX_POINT('',#648);
#204=VERTEX_POINT('',#650);
#205=VERTEX_POINT('',#657);
#206=VERTEX_POINT('',#658);
#207=VERTEX_POINT('',#660);
#208=VERTEX_POINT('',#662);
#209=VERTEX_POINT('',#666);
#210=VERTEX_POINT('',#668);
#211=VERTEX_POINT('',#672);
#212=VERTEX_POINT('',#674);
#213=VERTEX_POINT('',#681);
#214=VERTEX_POINT('',#682);
#215=VERTEX_POINT('',#684);
#216=VERTEX_POINT('',#686);
#217=VERTEX_POINT('',#690);
#218=VERTEX_POINT('',#691);
#219=VERTEX_POINT('',#696);
#220=VERTEX_POINT('',#698);
#221=VERTEX_POINT('',#702);
#222=VERTEX_POINT('',#704);
#223=VERTEX_POINT('',#711);
#224=VERTEX_POINT('',#713);
#225=VERTEX_POINT('',#721);
#226=VERTEX_POINT('',#722);
#227=VERTEX_POINT('',#724);
#228=VERTEX_POINT('',#726);
#229=VERTEX_POINT('',#730);
#230=VERTEX_POINT('',#732);
#231=VERTEX_POINT('',#736);
#232=VERTEX_POINT('',#740);
#233=EDGE_CURVE('',#193,#194,#97,.T.);
#234=EDGE_CURVE('',#194,#195,#98,.T.);
#235=EDGE_CURVE('',#195,#196,#99,.T.);
#236=EDGE_CURVE('',#196,#193,#100,.T.);
#237=EDGE_CURVE('',#197,#198,#101,.T.);
#238=EDGE_CURVE('',#199,#197,#102,.T.);
#239=EDGE_CURVE('',#200,#199,#103,.T.);
#240=EDGE_CURVE('',#200,#198,#104,.T.);
#241=EDGE_CURVE('',#198,#201,#24,.T.);
#242=EDGE_CURVE('',#202,#200,#25,.T.);
#243=EDGE_CURVE('',#202,#201,#105,.T.);
#244=EDGE_CURVE('',#201,#203,#106,.T.);
#245=EDGE_CURVE('',#204,#202,#107,.T.);
#246=EDGE_CURVE('',#204,#203,#108,.T.);
#247=EDGE_CURVE('',#203,#197,#26,.T.);
#248=EDGE_CURVE('',#199,#204,#27,.T.);
#249=EDGE_CURVE('',#205,#206,#109,.T.);
#250=EDGE_CURVE('',#207,#205,#110,.T.);
#251=EDGE_CURVE('',#208,#207,#111,.T.);
#252=EDGE_CURVE('',#208,#206,#112,.T.);
#253=EDGE_CURVE('',#206,#209,#28,.T.);
#254=EDGE_CURVE('',#210,#208,#29,.T.);
#255=EDGE_CURVE('',#210,#209,#113,.T.);
#256=EDGE_CURVE('',#209,#211,#114,.T.);
#257=EDGE_CURVE('',#212,#210,#115,.T.);
#258=EDGE_CURVE('',#212,#211,#116,.T.);
#259=EDGE_CURVE('',#211,#205,#30,.T.);
#260=EDGE_CURVE('',#207,#212,#31,.T.);
#261=EDGE_CURVE('',#213,#214,#117,.T.);
#262=EDGE_CURVE('',#213,#215,#118,.T.);
#263=EDGE_CURVE('',#216,#215,#119,.T.);
#264=EDGE_CURVE('',#214,#216,#120,.T.);
#265=EDGE_CURVE('',#217,#218,#121,.T.);
#266=EDGE_CURVE('',#218,#216,#122,.T.);
#267=EDGE_CURVE('',#215,#217,#123,.T.);
#268=EDGE_CURVE('',#219,#217,#124,.T.);
#269=EDGE_CURVE('',#219,#220,#125,.T.);
#270=EDGE_CURVE('',#220,#218,#126,.T.);
#271=EDGE_CURVE('',#221,#221,#32,.T.);
#272=EDGE_CURVE('',#221,#222,#127,.T.);
#273=EDGE_CURVE('',#222,#222,#33,.T.);
#274=EDGE_CURVE('',#219,#193,#128,.T.);
#275=EDGE_CURVE('',#213,#194,#129,.T.);
#276=EDGE_CURVE('',#223,#223,#34,.T.);
#277=EDGE_CURVE('',#223,#224,#130,.T.);
#278=EDGE_CURVE('',#224,#224,#35,.T.);
#279=EDGE_CURVE('',#196,#220,#131,.T.);
#280=EDGE_CURVE('',#195,#214,#132,.T.);
#281=EDGE_CURVE('',#225,#226,#133,.T.);
#282=EDGE_CURVE('',#225,#227,#134,.T.);
#283=EDGE_CURVE('',#228,#227,#135,.T.);
#284=EDGE_CURVE('',#226,#228,#136,.T.);
#285=EDGE_CURVE('',#227,#229,#137,.T.);
#286=EDGE_CURVE('',#230,#229,#138,.T.);
#287=EDGE_CURVE('',#228,#230,#139,.T.);
#288=EDGE_CURVE('',#231,#230,#140,.T.);
#289=EDGE_CURVE('',#226,#231,#141,.T.);
#290=EDGE_CURVE('',#232,#231,#142,.T.);
#291=EDGE_CURVE('',#225,#232,#143,.T.);
#292=EDGE_CURVE('',#229,#232,#144,.T.);
#293=ORIENTED_EDGE('',*,*,#233,.T.);
#294=ORIENTED_EDGE('',*,*,#234,.T.);
#295=ORIENTED_EDGE('',*,*,#235,.T.);
#296=ORIENTED_EDGE('',*,*,#236,.T.);
#297=ORIENTED_EDGE('',*,*,#237,.F.);
#298=ORIENTED_EDGE('',*,*,#238,.F.);
#299=ORIENTED_EDGE('',*,*,#239,.F.);
#300=ORIENTED_EDGE('',*,*,#240,.T.);
#301=ORIENTED_EDGE('',*,*,#241,.F.);
#302=ORIENTED_EDGE('',*,*,#240,.F.);
#303=ORIENTED_EDGE('',*,*,#242,.F.);
#304=ORIENTED_EDGE('',*,*,#243,.T.);
#305=ORIENTED_EDGE('',*,*,#244,.F.);
#306=ORIENTED_EDGE('',*,*,#243,.F.);
#307=ORIENTED_EDGE('',*,*,#245,.F.);
#308=ORIENTED_EDGE('',*,*,#246,.T.);
#309=ORIENTED_EDGE('',*,*,#247,.F.);
#310=ORIENTED_EDGE('',*,*,#246,.F.);
#311=ORIENTED_EDGE('',*,*,#248,.F.);
#312=ORIENTED_EDGE('',*,*,#238,.T.);
#313=ORIENTED_EDGE('',*,*,#249,.F.);
#314=ORIENTED_EDGE('',*,*,#250,.F.);
#315=ORIENTED_EDGE('',*,*,#251,.F.);
#316=ORIENTED_EDGE('',*,*,#252,.T.);
#317=ORIENTED_EDGE('',*,*,#253,.F.);
#318=ORIENTED_EDGE('',*,*,#252,.F.);
#319=ORIENTED_EDGE('',*,*,#254,.F.);
#320=ORIENTED_EDGE('',*,*,#255,.T.);
#321=ORIENTED_EDGE('',*,*,#256,.F.);
#322=ORIENTED_EDGE('',*,*,#255,.F.);
#323=ORIENTED_EDGE('',*,*,#257,.F.);
#324=ORIENTED_EDGE('',*,*,#258,.T.);
#325=ORIENTED_EDGE('',*,*,#259,.F.);
#326=ORIENTED_EDGE('',*,*,#258,.F.);
#327=ORIENTED_EDGE('',*,*,#260,.F.);
#328=ORIENTED_EDGE('',*,*,#250,.T.);
#329=ORIENTED_EDGE('',*,*,#261,.F.);
#330=ORIENTED_EDGE('',*,*,#262,.T.);
#331=ORIENTED_EDGE('',*,*,#263,.F.);
#332=ORIENTED_EDGE('',*,*,#264,.F.);
#333=ORIENTED_EDGE('',*,*,#237,.T.);
#334=ORIENTED_EDGE('',*,*,#241,.T.);
#335=ORIENTED_EDGE('',*,*,#244,.T.);
#336=ORIENTED_EDGE('',*,*,#247,.T.);
#337=ORIENTED_EDGE('',*,*,#249,.T.);
#338=ORIENTED_EDGE('',*,*,#253,.T.);
#339=ORIENTED_EDGE('',*,*,#256,.T.);
#340=ORIENTED_EDGE('',*,*,#259,.T.);
#341=ORIENTED_EDGE('',*,*,#265,.T.);
#342=ORIENTED_EDGE('',*,*,#266,.T.);
#343=ORIENTED_EDGE('',*,*,#263,.T.);
#344=ORIENTED_EDGE('',*,*,#267,.T.);
#345=ORIENTED_EDGE('',*,*,#268,.F.);
#346=ORIENTED_EDGE('',*,*,#269,.T.);
#347=ORIENTED_EDGE('',*,*,#270,.T.);
#348=ORIENTED_EDGE('',*,*,#265,.F.);
#349=ORIENTED_EDGE('',*,*,#239,.T.);
#350=ORIENTED_EDGE('',*,*,#248,.T.);
#351=ORIENTED_EDGE('',*,*,#245,.T.);
#352=ORIENTED_EDGE('',*,*,#242,.T.);
#353=ORIENTED_EDGE('',*,*,#251,.T.);
#354=ORIENTED_EDGE('',*,*,#260,.T.);
#355=ORIENTED_EDGE('',*,*,#257,.T.);
#356=ORIENTED_EDGE('',*,*,#254,.T.);
#357=ORIENTED_EDGE('',*,*,#271,.F.);
#358=ORIENTED_EDGE('',*,*,#272,.T.);
#359=ORIENTED_EDGE('',*,*,#273,.T.);
#360=ORIENTED_EDGE('',*,*,#272,.F.);
#361=ORIENTED_EDGE('',*,*,#274,.F.);
#362=ORIENTED_EDGE('',*,*,#268,.T.);
#363=ORIENTED_EDGE('',*,*,#267,.F.);
#364=ORIENTED_EDGE('',*,*,#262,.F.);
#365=ORIENTED_EDGE('',*,*,#275,.T.);
#366=ORIENTED_EDGE('',*,*,#233,.F.);
#367=ORIENTED_EDGE('',*,*,#276,.F.);
#368=ORIENTED_EDGE('',*,*,#277,.T.);
#369=ORIENTED_EDGE('',*,*,#278,.T.);
#370=ORIENTED_EDGE('',*,*,#277,.F.);
#371=ORIENTED_EDGE('',*,*,#279,.F.);
#372=ORIENTED_EDGE('',*,*,#235,.F.);
#373=ORIENTED_EDGE('',*,*,#280,.T.);
#374=ORIENTED_EDGE('',*,*,#264,.T.);
#375=ORIENTED_EDGE('',*,*,#266,.F.);
#376=ORIENTED_EDGE('',*,*,#270,.F.);
#377=ORIENTED_EDGE('',*,*,#261,.T.);
#378=ORIENTED_EDGE('',*,*,#280,.F.);
#379=ORIENTED_EDGE('',*,*,#234,.F.);
#380=ORIENTED_EDGE('',*,*,#275,.F.);
#381=ORIENTED_EDGE('',*,*,#271,.T.);
#382=ORIENTED_EDGE('',*,*,#276,.T.);
#383=ORIENTED_EDGE('',*,*,#279,.T.);
#384=ORIENTED_EDGE('',*,*,#269,.F.);
#385=ORIENTED_EDGE('',*,*,#274,.T.);
#386=ORIENTED_EDGE('',*,*,#236,.F.);
#387=ORIENTED_EDGE('',*,*,#278,.F.);
#388=ORIENTED_EDGE('',*,*,#281,.F.);
#389=ORIENTED_EDGE('',*,*,#282,.T.);
#390=ORIENTED_EDGE('',*,*,#283,.F.);
#391=ORIENTED_EDGE('',*,*,#284,.F.);
#392=ORIENTED_EDGE('',*,*,#273,.F.);
#393=ORIENTED_EDGE('',*,*,#283,.T.);
#394=ORIENTED_EDGE('',*,*,#285,.T.);
#395=ORIENTED_EDGE('',*,*,#286,.F.);
#396=ORIENTED_EDGE('',*,*,#287,.F.);
#397=ORIENTED_EDGE('',*,*,#284,.T.);
#398=ORIENTED_EDGE('',*,*,#287,.T.);
#399=ORIENTED_EDGE('',*,*,#288,.F.);
#400=ORIENTED_EDGE('',*,*,#289,.F.);
#401=ORIENTED_EDGE('',*,*,#281,.T.);
#402=ORIENTED_EDGE('',*,*,#289,.T.);
#403=ORIENTED_EDGE('',*,*,#290,.F.);
#404=ORIENTED_EDGE('',*,*,#291,.F.);
#405=ORIENTED_EDGE('',*,*,#282,.F.);
#406=ORIENTED_EDGE('',*,*,#291,.T.);
#407=ORIENTED_EDGE('',*,*,#292,.F.);
#408=ORIENTED_EDGE('',*,*,#285,.F.);
#409=ORIENTED_EDGE('',*,*,#292,.T.);
#410=ORIENTED_EDGE('',*,*,#290,.T.);
#411=ORIENTED_EDGE('',*,*,#288,.T.);
#412=ORIENTED_EDGE('',*,*,#286,.T.);
#413=PLANE('',#467);
#414=PLANE('',#468);
#415=PLANE('',#472);
#416=PLANE('',#476);
#417=PLANE('',#480);
#418=PLANE('',#484);
#419=PLANE('',#485);
#420=PLANE('',#486);
#421=PLANE('',#490);
#422=PLANE('',#494);
#423=PLANE('',#495);
#424=PLANE('',#496);
#425=PLANE('',#497);
#426=PLANE('',#498);
#427=PLANE('',#499);
#428=PLANE('',#500);
#429=PLANE('',#501);
#430=ADVANCED_FACE('',(#42),#413,.T.);
#431=ADVANCED_FACE('',(#43),#414,.F.);
#432=ADVANCED_FACE('',(#44),#36,.F.);
#433=ADVANCED_FACE('',(#45),#415,.F.);
#434=ADVANCED_FACE('',(#46),#37,.F.);
#435=ADVANCED_FACE('',(#47),#416,.F.);
#436=ADVANCED_FACE('',(#48),#38,.F.);
#437=ADVANCED_FACE('',(#49),#417,.F.);
#438=ADVANCED_FACE('',(#50),#39,.F.);
#439=ADVANCED_FACE('',(#51,#15,#16),#418,.T.);
#440=ADVANCED_FACE('',(#52),#419,.T.);
#441=ADVANCED_FACE('',(#53,#17,#18),#420,.T.);
#442=ADVANCED_FACE('',(#54),#40,.F.);
#443=ADVANCED_FACE('',(#55),#421,.T.);
#444=ADVANCED_FACE('',(#56),#41,.F.);
#445=ADVANCED_FACE('',(#57),#422,.T.);
#446=ADVANCED_FACE('',(#58,#19,#20),#423,.T.);
#447=ADVANCED_FACE('',(#59,#21,#22,#23),#424,.F.);
#448=ADVANCED_FACE('',(#60),#425,.T.);
#449=ADVANCED_FACE('',(#61),#426,.T.);
#450=ADVANCED_FACE('',(#62),#427,.T.);
#451=ADVANCED_FACE('',(#63),#428,.T.);
#452=ADVANCED_FACE('',(#64),#429,.T.);
#453=CLOSED_SHELL('',(#430,#431,#432,#433,#434,#435,#436,#437,#438,#439,
#440,#441,#442,#443,#444,#445,#446,#447,#448,#449,#450,#451,#452));
#454=DERIVED_UNIT_ELEMENT(#456,1.);
#455=DERIVED_UNIT_ELEMENT(#751,-3.);
#456=(
MASS_UNIT()
NAMED_UNIT(*)
SI_UNIT(.KILO.,.GRAM.)
);
#457=DERIVED_UNIT((#454,#455));
#458=MEASURE_REPRESENTATION_ITEM('density measure',
POSITIVE_RATIO_MEASURE(7850.),#457);
#459=PROPERTY_DEFINITION_REPRESENTATION(#464,#461);
#460=PROPERTY_DEFINITION_REPRESENTATION(#465,#462);
#461=REPRESENTATION('material name',(#463),#748);
#462=REPRESENTATION('density',(#458),#748);
#463=DESCRIPTIVE_REPRESENTATION_ITEM('Steel','Steel');
#464=PROPERTY_DEFINITION('material property','material name',#758);
#465=PROPERTY_DEFINITION('material property','density of part',#758);
#466=AXIS2_PLACEMENT_3D('',#622,#502,#503);
#467=AXIS2_PLACEMENT_3D('',#623,#504,#505);
#468=AXIS2_PLACEMENT_3D('',#632,#510,#511);
#469=AXIS2_PLACEMENT_3D('',#641,#516,#517);
#470=AXIS2_PLACEMENT_3D('',#643,#518,#519);
#471=AXIS2_PLACEMENT_3D('',#645,#520,#521);
#472=AXIS2_PLACEMENT_3D('',#647,#523,#524);
#473=AXIS2_PLACEMENT_3D('',#653,#528,#529);
#474=AXIS2_PLACEMENT_3D('',#654,#530,#531);
#475=AXIS2_PLACEMENT_3D('',#655,#532,#533);
#476=AXIS2_PLACEMENT_3D('',#656,#534,#535);
#477=AXIS2_PLACEMENT_3D('',#665,#540,#541);
#478=AXIS2_PLACEMENT_3D('',#667,#542,#543);
#479=AXIS2_PLACEMENT_3D('',#669,#544,#545);
#480=AXIS2_PLACEMENT_3D('',#671,#547,#548);
#481=AXIS2_PLACEMENT_3D('',#677,#552,#553);
#482=AXIS2_PLACEMENT_3D('',#678,#554,#555);
#483=AXIS2_PLACEMENT_3D('',#679,#556,#557);
#484=AXIS2_PLACEMENT_3D('',#680,#558,#559);
#485=AXIS2_PLACEMENT_3D('',#689,#564,#565);
#486=AXIS2_PLACEMENT_3D('',#695,#569,#570);
#487=AXIS2_PLACEMENT_3D('',#701,#574,#575);
#488=AXIS2_PLACEMENT_3D('',#703,#576,#577);
#489=AXIS2_PLACEMENT_3D('',#706,#579,#580);
#490=AXIS2_PLACEMENT_3D('',#707,#581,#582);
#491=AXIS2_PLACEMENT_3D('',#710,#585,#586);
#492=AXIS2_PLACEMENT_3D('',#712,#587,#588);
#493=AXIS2_PLACEMENT_3D('',#715,#590,#591);
#494=AXIS2_PLACEMENT_3D('',#716,#592,#593);
#495=AXIS2_PLACEMENT_3D('',#719,#596,#597);
#496=AXIS2_PLACEMENT_3D('',#720,#598,#599);
#497=AXIS2_PLACEMENT_3D('',#729,#604,#605);
#498=AXIS2_PLACEMENT_3D('',#735,#609,#610);
#499=AXIS2_PLACEMENT_3D('',#739,#613,#614);
#500=AXIS2_PLACEMENT_3D('',#743,#617,#618);
#501=AXIS2_PLACEMENT_3D('',#745,#620,#621);
#502=DIRECTION('axis',(0.,0.,1.));
#503=DIRECTION('refdir',(1.,0.,0.));
#504=DIRECTION('center_axis',(-1.,0.,-7.40148683083438E-17));
#505=DIRECTION('ref_axis',(-7.40148683083438E-17,0.,1.));
#506=DIRECTION('',(0.,0.,1.));
#507=DIRECTION('',(5.55111512312578E-17,1.,0.));
#508=DIRECTION('',(0.,0.,-1.));
#509=DIRECTION('',(-5.55111512312578E-17,-1.,0.));
#510=DIRECTION('center_axis',(0.,1.,8.06661500731504E-9));
#511=DIRECTION('ref_axis',(0.,8.06661500731504E-9,-1.));
#512=DIRECTION('',(0.,-8.06661500731504E-9,1.));
#513=DIRECTION('',(-1.,0.,0.));
#514=DIRECTION('',(0.,8.06661500731504E-9,-1.));
#515=DIRECTION('',(-1.,0.,0.));
#516=DIRECTION('center_axis',(-1.,0.,0.));
#517=DIRECTION('ref_axis',(0.,-1.22464679914735E-16,1.));
#518=DIRECTION('center_axis',(1.,0.,0.));
#519=DIRECTION('ref_axis',(0.,0.,-1.));
#520=DIRECTION('center_axis',(-1.,0.,0.));
#521=DIRECTION('ref_axis',(0.,0.,-1.));
#522=DIRECTION('',(-1.,0.,0.));
#523=DIRECTION('center_axis',(0.,-1.,-8.06661514501712E-9));
#524=DIRECTION('ref_axis',(0.,-8.06661514501712E-9,1.));
#525=DIRECTION('',(0.,8.06661514501712E-9,-1.));
#526=DIRECTION('',(0.,-8.06661514501712E-9,1.));
#527=DIRECTION('',(-1.,0.,0.));
#528=DIRECTION('center_axis',(-1.,0.,0.));
#529=DIRECTION('ref_axis',(0.,0.,-1.));
#530=DIRECTION('center_axis',(1.,0.,0.));
#531=DIRECTION('ref_axis',(0.,0.,-1.));
#532=DIRECTION('center_axis',(-1.,0.,0.));
#533=DIRECTION('ref_axis',(0.,0.,-1.));
#534=DIRECTION('center_axis',(0.,-1.,2.74477164511112E-9));
#535=DIRECTION('ref_axis',(0.,2.74477164511112E-9,1.));
#536=DIRECTION('',(0.,-2.74477164511112E-9,-1.));
#537=DIRECTION('',(-1.,0.,0.));
#538=DIRECTION('',(0.,2.74477164511112E-9,1.));
#539=DIRECTION('',(-1.,0.,0.));
#540=DIRECTION('center_axis',(-1.,0.,0.));
#541=DIRECTION('ref_axis',(0.,0.,-1.));
#542=DIRECTION('center_axis',(1.,0.,0.));
#543=DIRECTION('ref_axis',(0.,0.,-1.));
#544=DIRECTION('center_axis',(-1.,0.,0.));
#545=DIRECTION('ref_axis',(0.,0.,-1.));
#546=DIRECTION('',(-1.,0.,0.));
#547=DIRECTION('center_axis',(0.,1.,-2.74477192051528E-9));
#548=DIRECTION('ref_axis',(0.,-2.74477192051528E-9,-1.));
#549=DIRECTION('',(0.,2.74477192051528E-9,1.));
#550=DIRECTION('',(0.,-2.74477192051528E-9,-1.));
#551=DIRECTION('',(-1.,0.,0.));
#552=DIRECTION('center_axis',(-1.,0.,0.));
#553=DIRECTION('ref_axis',(0.,-5.32184264468591E-9,1.));
#554=DIRECTION('center_axis',(1.,0.,0.));
#555=DIRECTION('ref_axis',(0.,0.,-1.));
#556=DIRECTION('center_axis',(-1.,0.,0.));
#557=DIRECTION('ref_axis',(0.,0.,-1.));
#558=DIRECTION('center_axis',(-1.,0.,0.));
#559=DIRECTION('ref_axis',(0.,-1.,0.));
#560=DIRECTION('',(0.,1.,0.));
#561=DIRECTION('',(0.,0.,1.));
#562=DIRECTION('',(0.,-1.,0.));
#563=DIRECTION('',(0.,0.,1.));
#564=DIRECTION('center_axis',(0.,0.,1.));
#565=DIRECTION('ref_axis',(1.,0.,0.));
#566=DIRECTION('',(0.,1.,0.));
#567=DIRECTION('',(-1.,0.,0.));
#568=DIRECTION('',(1.,0.,0.));
#569=DIRECTION('center_axis',(1.,0.,0.));
#570=DIRECTION('ref_axis',(0.,0.,-1.));
#571=DIRECTION('',(0.,0.,1.));
#572=DIRECTION('',(-5.55111512312578E-17,1.,0.));
#573=DIRECTION('',(5.55111512312578E-17,3.08148791101958E-33,1.));
#574=DIRECTION('center_axis',(0.,0.,1.));
#575=DIRECTION('ref_axis',(1.,0.,0.));
#576=DIRECTION('center_axis',(0.,0.,-1.));
#577=DIRECTION('ref_axis',(1.,0.,0.));
#578=DIRECTION('',(0.,0.,-1.));
#579=DIRECTION('center_axis',(0.,0.,-1.));
#580=DIRECTION('ref_axis',(1.,0.,0.));
#581=DIRECTION('center_axis',(0.,-1.,0.));
#582=DIRECTION('ref_axis',(1.,0.,0.));
#583=DIRECTION('',(-1.,0.,0.));
#584=DIRECTION('',(-1.,0.,-7.40148683083438E-17));
#585=DIRECTION('center_axis',(0.,0.,1.));
#586=DIRECTION('ref_axis',(1.,0.,0.));
#587=DIRECTION('center_axis',(0.,0.,-1.));
#588=DIRECTION('ref_axis',(1.,0.,0.));
#589=DIRECTION('',(0.,0.,-1.));
#590=DIRECTION('center_axis',(0.,0.,-1.));
#591=DIRECTION('ref_axis',(1.,0.,0.));
#592=DIRECTION('center_axis',(0.,1.,0.));
#593=DIRECTION('ref_axis',(-1.,0.,0.));
#594=DIRECTION('',(1.,0.,0.));
#595=DIRECTION('',(1.,0.,0.));
#596=DIRECTION('center_axis',(0.,0.,1.));
#597=DIRECTION('ref_axis',(1.,0.,0.));
#598=DIRECTION('center_axis',(0.,0.,1.));
#599=DIRECTION('ref_axis',(1.,0.,0.));
#600=DIRECTION('',(5.55111512312578E-17,1.,0.));
#601=DIRECTION('',(1.,1.11022302462516E-16,0.));
#602=DIRECTION('',(5.55111512312578E-17,-1.,0.));
#603=DIRECTION('',(1.,5.55111512312578E-17,0.));
#604=DIRECTION('center_axis',(1.,5.55111512312578E-17,0.));
#605=DIRECTION('ref_axis',(5.55111512312578E-17,-1.,0.));
#606=DIRECTION('',(0.,0.,-1.));
#607=DIRECTION('',(5.55111512312578E-17,-1.,0.));
#608=DIRECTION('',(0.,0.,-1.));
#609=DIRECTION('center_axis',(-5.55111512312578E-17,1.,0.));
#610=DIRECTION('ref_axis',(1.,5.55111512312578E-17,0.));
#611=DIRECTION('',(1.,5.55111512312578E-17,0.));
#612=DIRECTION('',(0.,0.,-1.));
#613=DIRECTION('center_axis',(-1.,5.55111512312578E-17,0.));
#614=DIRECTION('ref_axis',(5.55111512312578E-17,1.,0.));
#615=DIRECTION('',(5.55111512312578E-17,1.,0.));
#616=DIRECTION('',(0.,0.,-1.));
#617=DIRECTION('center_axis',(1.11022302462516E-16,-1.,0.));
#618=DIRECTION('ref_axis',(-1.,-1.11022302462516E-16,0.));
#619=DIRECTION('',(-1.,-1.11022302462516E-16,0.));
#620=DIRECTION('center_axis',(0.,0.,-1.));
#621=DIRECTION('ref_axis',(-1.,0.,0.));
#622=CARTESIAN_POINT('',(0.,0.,0.));
#623=CARTESIAN_POINT('Origin',(-20.,0.,5.));
#624=CARTESIAN_POINT('',(-20.,-25.,-1.11022302462516E-15));
#625=CARTESIAN_POINT('',(-20.,-25.,10.));
#626=CARTESIAN_POINT('',(-20.,-25.,10.));
#627=CARTESIAN_POINT('',(-20.,25.,10.));
#628=CARTESIAN_POINT('',(-20.,25.,10.));
#629=CARTESIAN_POINT('',(-20.,25.,-1.11022302462516E-15));
#630=CARTESIAN_POINT('',(-20.,25.,-1.11022302462516E-15));
#631=CARTESIAN_POINT('',(-20.,-25.,-1.11022302462516E-15));
#632=CARTESIAN_POINT('Origin',(20.,22.7499999750678,50.));
#633=CARTESIAN_POINT('',(10.0000001490116,22.7500002352161,17.75));
#634=CARTESIAN_POINT('',(10.0000001490116,22.7499999750678,50.));
#635=CARTESIAN_POINT('',(10.0000001490116,22.7500001364001,29.9999999909251));
#636=CARTESIAN_POINT('',(20.,22.7500002352161,17.75));
#637=CARTESIAN_POINT('',(20.,22.7500002352161,17.75));
#638=CARTESIAN_POINT('',(20.,22.7499999750678,50.));
#639=CARTESIAN_POINT('',(20.,22.7500001565666,27.5000000917577));
#640=CARTESIAN_POINT('',(20.,22.7499999750678,50.));
#641=CARTESIAN_POINT('Origin',(20.,19.9999999750678,50.));
#642=CARTESIAN_POINT('',(10.0000001490116,17.2499999750678,50.));
#643=CARTESIAN_POINT('Origin',(10.0000001490116,19.9999999750678,50.));
#644=CARTESIAN_POINT('',(20.,17.2499999750678,50.));
#645=CARTESIAN_POINT('Origin',(20.,19.9999999750678,50.));
#646=CARTESIAN_POINT('',(20.,17.2499999750678,50.));
#647=CARTESIAN_POINT('Origin',(20.,17.2500002352161,17.75));
#648=CARTESIAN_POINT('',(10.0000001490116,17.2500002352161,17.75));
#649=CARTESIAN_POINT('',(10.0000001490116,17.2500002664743,13.8749999687419));
#650=CARTESIAN_POINT('',(20.,17.2500002352161,17.75));
#651=CARTESIAN_POINT('',(20.,17.2500002866408,11.3750000695746));
#652=CARTESIAN_POINT('',(20.,17.2500002352161,17.75));
#653=CARTESIAN_POINT('Origin',(20.,20.0000002352161,17.75));
#654=CARTESIAN_POINT('Origin',(10.0000001490116,20.0000002352161,17.75));
#655=CARTESIAN_POINT('Origin',(20.,20.0000002352161,17.75));
#656=CARTESIAN_POINT('Origin',(20.,-22.7500003296788,17.7499998789281));
#657=CARTESIAN_POINT('',(10.0000001490116,-22.75000024116,49.9999998789281));
#658=CARTESIAN_POINT('',(10.0000001490116,-22.7500003296788,17.7499998789281));
#659=CARTESIAN_POINT('',(10.0000001490116,-22.7500003403148,13.8750000049955));
#660=CARTESIAN_POINT('',(20.,-22.75000024116,49.9999998789281));
#661=CARTESIAN_POINT('',(20.,-22.75000024116,49.9999998789281));
#662=CARTESIAN_POINT('',(20.,-22.7500003296788,17.7499998789281));
#663=CARTESIAN_POINT('',(20.,-22.7500003471768,11.3749999706858));
#664=CARTESIAN_POINT('',(20.,-22.7500003296788,17.7499998789281));
#665=CARTESIAN_POINT('Origin',(20.,-20.0000003296788,17.7499998935631));
#666=CARTESIAN_POINT('',(10.0000001490116,-17.2500003296788,17.7499999081982));
#667=CARTESIAN_POINT('Origin',(10.0000001490116,-20.0000003296788,17.7499998935631));
#668=CARTESIAN_POINT('',(20.,-17.2500003296788,17.7499999081982));
#669=CARTESIAN_POINT('Origin',(20.,-20.0000003296788,17.7499998935631));
#670=CARTESIAN_POINT('',(20.,-17.2500003296788,17.7499999081982));
#671=CARTESIAN_POINT('Origin',(20.,-17.2500002411599,49.9999999081982));
#672=CARTESIAN_POINT('',(10.0000001490116,-17.2500002411599,49.9999999081982));
#673=CARTESIAN_POINT('',(10.0000001490116,-17.2500002960554,30.0000000120824));
#674=CARTESIAN_POINT('',(20.,-17.2500002411599,49.9999999081982));
#675=CARTESIAN_POINT('',(20.,-17.2500003029173,27.4999999777728));
#676=CARTESIAN_POINT('',(20.,-17.2500002411599,49.9999999081982));
#677=CARTESIAN_POINT('Origin',(20.,-20.00000024116,49.9999998935631));
#678=CARTESIAN_POINT('Origin',(10.0000001490116,-20.00000024116,49.9999998935631));
#679=CARTESIAN_POINT('Origin',(20.,-20.00000024116,49.9999998935631));
#680=CARTESIAN_POINT('Origin',(10.0000001490116,25.,10.));
#681=CARTESIAN_POINT('',(10.0000001490116,-25.000000372529,10.));
#682=CARTESIAN_POINT('',(10.0000001490116,25.,10.));
#683=CARTESIAN_POINT('',(10.0000001490116,20.,10.));
#684=CARTESIAN_POINT('',(10.0000001490116,-25.000000372529,70.));
#685=CARTESIAN_POINT('',(10.0000001490116,-25.000000372529,10.));
#686=CARTESIAN_POINT('',(10.0000001490116,25.,70.));
#687=CARTESIAN_POINT('',(10.0000001490116,25.,70.));
#688=CARTESIAN_POINT('',(10.0000001490116,25.,10.));
#689=CARTESIAN_POINT('Origin',(15.0000000745058,-1.86264514923096E-7,70.));
#690=CARTESIAN_POINT('',(20.,-25.000000372529,70.));
#691=CARTESIAN_POINT('',(20.,25.,70.));
#692=CARTESIAN_POINT('',(20.,-25.000000372529,70.));
#693=CARTESIAN_POINT('',(20.,25.,70.));
#694=CARTESIAN_POINT('',(10.0000001490116,-25.000000372529,70.));
#695=CARTESIAN_POINT('Origin',(20.,0.,5.));
#696=CARTESIAN_POINT('',(20.,-25.,0.));
#697=CARTESIAN_POINT('',(20.,-25.000000372529,10.));
#698=CARTESIAN_POINT('',(20.,25.,0.));
#699=CARTESIAN_POINT('',(20.,25.,0.));
#700=CARTESIAN_POINT('',(20.,25.,10.));
#701=CARTESIAN_POINT('Origin',(0.,-15.,0.));
#702=CARTESIAN_POINT('',(-4.5,-15.,10.));
#703=CARTESIAN_POINT('Origin',(0.,-15.,10.));
#704=CARTESIAN_POINT('',(-4.5,-15.,0.));
#705=CARTESIAN_POINT('',(-4.5,-15.,0.));
#706=CARTESIAN_POINT('Origin',(0.,-15.,0.));
#707=CARTESIAN_POINT('Origin',(-5.,-25.,0.));
#708=CARTESIAN_POINT('',(5.,-25.,0.));
#709=CARTESIAN_POINT('',(-5.,-25.,10.));
#710=CARTESIAN_POINT('Origin',(2.77555756156289E-16,15.,0.));
#711=CARTESIAN_POINT('',(-4.5,15.,10.));
#712=CARTESIAN_POINT('Origin',(2.77555756156289E-16,15.,10.));
#713=CARTESIAN_POINT('',(-4.5,15.,0.));
#714=CARTESIAN_POINT('',(-4.5,15.,0.));
#715=CARTESIAN_POINT('Origin',(2.77555756156289E-16,15.,0.));
#716=CARTESIAN_POINT('Origin',(5.,25.,0.));
#717=CARTESIAN_POINT('',(5.,25.,0.));
#718=CARTESIAN_POINT('',(5.,25.,10.));
#719=CARTESIAN_POINT('Origin',(0.,15.,10.));
#720=CARTESIAN_POINT('Origin',(0.,15.,0.));
#721=CARTESIAN_POINT('',(-5.,-5.,0.));
#722=CARTESIAN_POINT('',(-5.,5.,0.));
#723=CARTESIAN_POINT('',(-5.,10.,-2.05432527401305E-32));
#724=CARTESIAN_POINT('',(5.,-5.,0.));
#725=CARTESIAN_POINT('',(-5.,-5.,0.));
#726=CARTESIAN_POINT('',(5.,5.,0.));
#727=CARTESIAN_POINT('',(5.,-10.,0.));
#728=CARTESIAN_POINT('',(-5.,5.,0.));
#729=CARTESIAN_POINT('Origin',(5.,5.,0.));
#730=CARTESIAN_POINT('',(5.,-5.,-10.));
#731=CARTESIAN_POINT('',(5.,-5.,0.));
#732=CARTESIAN_POINT('',(5.,5.,-10.));
#733=CARTESIAN_POINT('',(5.,-5.,-10.));
#734=CARTESIAN_POINT('',(5.,5.,0.));
#735=CARTESIAN_POINT('Origin',(-5.,5.,0.));
#736=CARTESIAN_POINT('',(-5.,5.,-10.));
#737=CARTESIAN_POINT('',(-5.,5.,-10.));
#738=CARTESIAN_POINT('',(-5.,5.,0.));
#739=CARTESIAN_POINT('Origin',(-5.,-5.,0.));
#740=CARTESIAN_POINT('',(-5.,-5.,-10.));
#741=CARTESIAN_POINT('',(-5.,5.,-10.));
#742=CARTESIAN_POINT('',(-5.,-5.,0.));
#743=CARTESIAN_POINT('Origin',(5.,-5.,0.));
#744=CARTESIAN_POINT('',(-5.,-5.,-10.));
#745=CARTESIAN_POINT('Origin',(0.,-1.11022302462516E-15,-10.));
#746=UNCERTAINTY_MEASURE_WITH_UNIT(LENGTH_MEASURE(0.01),#750,
'DISTANCE_ACCURACY_VALUE',
'Maximum model space distance between geometric entities at asserted c
onnectivities');
#747=UNCERTAINTY_MEASURE_WITH_UNIT(LENGTH_MEASURE(0.01),#750,
'DISTANCE_ACCURACY_VALUE',
'Maximum model space distance between geometric entities at asserted c
onnectivities');
#748=(
GEOMETRIC_REPRESENTATION_CONTEXT(3)
GLOBAL_UNCERTAINTY_ASSIGNED_CONTEXT((#746))
GLOBAL_UNIT_ASSIGNED_CONTEXT((#750,#752,#753))
REPRESENTATION_CONTEXT('','3D')
);
#749=(
GEOMETRIC_REPRESENTATION_CONTEXT(3)
GLOBAL_UNCERTAINTY_ASSIGNED_CONTEXT((#747))
GLOBAL_UNIT_ASSIGNED_CONTEXT((#750,#752,#753))
REPRESENTATION_CONTEXT('','3D')
);
#750=(
LENGTH_UNIT()
NAMED_UNIT(*)
SI_UNIT(.MILLI.,.METRE.)
);
#751=(
LENGTH_UNIT()
NAMED_UNIT(*)
SI_UNIT($,.METRE.)
);
#752=(
NAMED_UNIT(*)
PLANE_ANGLE_UNIT()
SI_UNIT($,.RADIAN.)
);
#753=(
NAMED_UNIT(*)
SI_UNIT($,.STERADIAN.)
SOLID_ANGLE_UNIT()
);
#754=SHAPE_DEFINITION_REPRESENTATION(#755,#756);
#755=PRODUCT_DEFINITION_SHAPE('',$,#758);
#756=SHAPE_REPRESENTATION('',(#466),#748);
#757=PRODUCT_DEFINITION_CONTEXT('part definition',#762,'design');
#758=PRODUCT_DEFINITION('LaserSaftyInterlock','LaserSaftyInterlock v2',
#759,#757);
#759=PRODUCT_DEFINITION_FORMATION('',$,#764);
#760=PRODUCT_RELATED_PRODUCT_CATEGORY('LaserSaftyInterlock v2',
'LaserSaftyInterlock v2',(#764));
#761=APPLICATION_PROTOCOL_DEFINITION('international standard',
'automotive_design',2009,#762);
#762=APPLICATION_CONTEXT(
'Core Data for Automotive Mechanical Design Process');
#763=PRODUCT_CONTEXT('part definition',#762,'mechanical');
#764=PRODUCT('LaserSaftyInterlock','LaserSaftyInterlock v2',$,(#763));
#765=PRESENTATION_STYLE_ASSIGNMENT((#766));
#766=SURFACE_STYLE_USAGE(.BOTH.,#767);
#767=SURFACE_SIDE_STYLE('',(#768));
#768=SURFACE_STYLE_FILL_AREA(#769);
#769=FILL_AREA_STYLE('Steel - Satin',(#770));
#770=FILL_AREA_STYLE_COLOUR('Steel - Satin',#771);
#771=COLOUR_RGB('Steel - Satin',0.627450980392157,0.627450980392157,0.627450980392157);
ENDSEC;
END-ISO-10303-21;
