ISO-10303-21;
HEADER;
/* Generated by software containing ST-Developer
 * from STEP Tools, Inc. (www.steptools.com) 
 */

FILE_DESCRIPTION(
/* description */ (''),
/* implementation_level */ '2;1');

FILE_NAME(
/* name */ 'magnetic base plate optics v3.step',
/* time_stamp */ '2024-06-25T15:23:46+02:00',
/* author */ (''),
/* organization */ (''),
/* preprocessor_version */ 'ST-DEVELOPER v20',
/* originating_system */ 'Autodesk Translation Framework v13.14.0.145',

/* authorisation */ '');

FILE_SCHEMA (('AUTOMOTIVE_DESIGN { 1 0 10303 214 3 1 1 }'));
ENDSEC;

DATA;
#10=MECHANICAL_DESIGN_GEOMETRIC_PRESENTATION_REPRESENTATION('',(#13),#479);
#11=SHAPE_REPRESENTATION_RELATIONSHIP('SRR','None',#486,#12);
#12=ADVANCED_BREP_SHAPE_REPRESENTATION('',(#14),#478);
#13=STYLED_ITEM('',(#495),#14);
#14=MANIFOLD_SOLID_BREP('Body1',#275);
#15=FACE_BOUND('',#46,.T.);
#16=FACE_BOUND('',#47,.T.);
#17=FACE_BOUND('',#48,.T.);
#18=FACE_BOUND('',#49,.T.);
#19=FACE_BOUND('',#61,.T.);
#20=FACE_BOUND('',#62,.T.);
#21=FACE_BOUND('',#63,.T.);
#22=FACE_BOUND('',#64,.T.);
#23=PLANE('',#292);
#24=PLANE('',#293);
#25=PLANE('',#303);
#26=PLANE('',#306);
#27=PLANE('',#317);
#28=PLANE('',#318);
#29=FACE_OUTER_BOUND('',#43,.T.);
#30=FACE_OUTER_BOUND('',#44,.T.);
#31=FACE_OUTER_BOUND('',#45,.T.);
#32=FACE_OUTER_BOUND('',#50,.T.);
#33=FACE_OUTER_BOUND('',#51,.T.);
#34=FACE_OUTER_BOUND('',#52,.T.);
#35=FACE_OUTER_BOUND('',#53,.T.);
#36=FACE_OUTER_BOUND('',#54,.T.);
#37=FACE_OUTER_BOUND('',#55,.T.);
#38=FACE_OUTER_BOUND('',#56,.T.);
#39=FACE_OUTER_BOUND('',#57,.T.);
#40=FACE_OUTER_BOUND('',#58,.T.);
#41=FACE_OUTER_BOUND('',#59,.T.);
#42=FACE_OUTER_BOUND('',#60,.T.);
#43=EDGE_LOOP('',(#181,#182,#183,#184));
#44=EDGE_LOOP('',(#185,#186,#187,#188));
#45=EDGE_LOOP('',(#189,#190,#191,#192,#193,#194,#195,#196));
#46=EDGE_LOOP('',(#197));
#47=EDGE_LOOP('',(#198));
#48=EDGE_LOOP('',(#199));
#49=EDGE_LOOP('',(#200));
#50=EDGE_LOOP('',(#201,#202,#203,#204));
#51=EDGE_LOOP('',(#205,#206,#207,#208));
#52=EDGE_LOOP('',(#209,#210,#211,#212));
#53=EDGE_LOOP('',(#213,#214,#215,#216));
#54=EDGE_LOOP('',(#217,#218,#219,#220));
#55=EDGE_LOOP('',(#221,#222,#223,#224));
#56=EDGE_LOOP('',(#225,#226,#227,#228));
#57=EDGE_LOOP('',(#229,#230,#231,#232));
#58=EDGE_LOOP('',(#233,#234,#235,#236));
#59=EDGE_LOOP('',(#237,#238,#239,#240));
#60=EDGE_LOOP('',(#241,#242,#243,#244,#245,#246,#247,#248));
#61=EDGE_LOOP('',(#249));
#62=EDGE_LOOP('',(#250));
#63=EDGE_LOOP('',(#251));
#64=EDGE_LOOP('',(#252));
#65=LINE('',#407,#85);
#66=LINE('',#410,#86);
#67=LINE('',#413,#87);
#68=LINE('',#415,#88);
#69=LINE('',#416,#89);
#70=LINE('',#419,#90);
#71=LINE('',#423,#91);
#72=LINE('',#427,#92);
#73=LINE('',#439,#93);
#74=LINE('',#443,#94);
#75=LINE('',#444,#95);
#76=LINE('',#447,#96);
#77=LINE('',#451,#97);
#78=LINE('',#452,#98);
#79=LINE('',#455,#99);
#80=LINE('',#460,#100);
#81=LINE('',#464,#101);
#82=LINE('',#468,#102);
#83=LINE('',#472,#103);
#84=LINE('',#474,#104);
#85=VECTOR('',#325,10.);
#86=VECTOR('',#328,10.);
#87=VECTOR('',#331,10.);
#88=VECTOR('',#332,10.);
#89=VECTOR('',#333,10.);
#90=VECTOR('',#336,10.);
#91=VECTOR('',#339,10.);
#92=VECTOR('',#342,10.);
#93=VECTOR('',#355,10.);
#94=VECTOR('',#360,10.);
#95=VECTOR('',#361,10.);
#96=VECTOR('',#364,10.);
#97=VECTOR('',#369,10.);
#98=VECTOR('',#370,10.);
#99=VECTOR('',#373,10.);
#100=VECTOR('',#380,3.3);
#101=VECTOR('',#385,3.3);
#102=VECTOR('',#390,3.3);
#103=VECTOR('',#395,3.3);
#104=VECTOR('',#398,10.);
#105=CIRCLE('',#290,12.5);
#106=CIRCLE('',#291,12.5);
#107=CIRCLE('',#294,12.5);
#108=CIRCLE('',#295,12.5);
#109=CIRCLE('',#296,12.5);
#110=CIRCLE('',#297,3.3);
#111=CIRCLE('',#298,3.3);
#112=CIRCLE('',#299,3.3);
#113=CIRCLE('',#300,3.3);
#114=CIRCLE('',#302,12.5);
#115=CIRCLE('',#305,12.5);
#116=CIRCLE('',#308,12.5);
#117=CIRCLE('',#310,3.3);
#118=CIRCLE('',#312,3.3);
#119=CIRCLE('',#314,3.3);
#120=CIRCLE('',#316,3.3);
#121=VERTEX_POINT('',#403);
#122=VERTEX_POINT('',#404);
#123=VERTEX_POINT('',#406);
#124=VERTEX_POINT('',#408);
#125=VERTEX_POINT('',#412);
#126=VERTEX_POINT('',#414);
#127=VERTEX_POINT('',#418);
#128=VERTEX_POINT('',#420);
#129=VERTEX_POINT('',#422);
#130=VERTEX_POINT('',#424);
#131=VERTEX_POINT('',#426);
#132=VERTEX_POINT('',#429);
#133=VERTEX_POINT('',#431);
#134=VERTEX_POINT('',#433);
#135=VERTEX_POINT('',#435);
#136=VERTEX_POINT('',#438);
#137=VERTEX_POINT('',#442);
#138=VERTEX_POINT('',#446);
#139=VERTEX_POINT('',#450);
#140=VERTEX_POINT('',#454);
#141=VERTEX_POINT('',#458);
#142=VERTEX_POINT('',#462);
#143=VERTEX_POINT('',#466);
#144=VERTEX_POINT('',#470);
#145=EDGE_CURVE('',#121,#122,#105,.T.);
#146=EDGE_CURVE('',#122,#123,#65,.T.);
#147=EDGE_CURVE('',#123,#124,#106,.T.);
#148=EDGE_CURVE('',#124,#121,#66,.T.);
#149=EDGE_CURVE('',#125,#122,#67,.T.);
#150=EDGE_CURVE('',#126,#125,#68,.T.);
#151=EDGE_CURVE('',#123,#126,#69,.T.);
#152=EDGE_CURVE('',#121,#127,#70,.T.);
#153=EDGE_CURVE('',#128,#127,#107,.T.);
#154=EDGE_CURVE('',#128,#129,#71,.T.);
#155=EDGE_CURVE('',#130,#129,#108,.T.);
#156=EDGE_CURVE('',#130,#131,#72,.T.);
#157=EDGE_CURVE('',#125,#131,#109,.T.);
#158=EDGE_CURVE('',#132,#132,#110,.T.);
#159=EDGE_CURVE('',#133,#133,#111,.T.);
#160=EDGE_CURVE('',#134,#134,#112,.T.);
#161=EDGE_CURVE('',#135,#135,#113,.T.);
#162=EDGE_CURVE('',#131,#136,#73,.T.);
#163=EDGE_CURVE('',#136,#126,#114,.T.);
#164=EDGE_CURVE('',#137,#130,#74,.T.);
#165=EDGE_CURVE('',#136,#137,#75,.T.);
#166=EDGE_CURVE('',#129,#138,#76,.T.);
#167=EDGE_CURVE('',#138,#137,#115,.T.);
#168=EDGE_CURVE('',#139,#128,#77,.T.);
#169=EDGE_CURVE('',#138,#139,#78,.T.);
#170=EDGE_CURVE('',#127,#140,#79,.T.);
#171=EDGE_CURVE('',#140,#139,#116,.T.);
#172=EDGE_CURVE('',#141,#141,#117,.T.);
#173=EDGE_CURVE('',#141,#132,#80,.T.);
#174=EDGE_CURVE('',#142,#142,#118,.T.);
#175=EDGE_CURVE('',#142,#133,#81,.T.);
#176=EDGE_CURVE('',#143,#143,#119,.T.);
#177=EDGE_CURVE('',#143,#134,#82,.T.);
#178=EDGE_CURVE('',#144,#144,#120,.T.);
#179=EDGE_CURVE('',#144,#135,#83,.T.);
#180=EDGE_CURVE('',#140,#124,#84,.T.);
#181=ORIENTED_EDGE('',*,*,#145,.T.);
#182=ORIENTED_EDGE('',*,*,#146,.T.);
#183=ORIENTED_EDGE('',*,*,#147,.T.);
#184=ORIENTED_EDGE('',*,*,#148,.T.);
#185=ORIENTED_EDGE('',*,*,#146,.F.);
#186=ORIENTED_EDGE('',*,*,#149,.F.);
#187=ORIENTED_EDGE('',*,*,#150,.F.);
#188=ORIENTED_EDGE('',*,*,#151,.F.);
#189=ORIENTED_EDGE('',*,*,#145,.F.);
#190=ORIENTED_EDGE('',*,*,#152,.T.);
#191=ORIENTED_EDGE('',*,*,#153,.F.);
#192=ORIENTED_EDGE('',*,*,#154,.T.);
#193=ORIENTED_EDGE('',*,*,#155,.F.);
#194=ORIENTED_EDGE('',*,*,#156,.T.);
#195=ORIENTED_EDGE('',*,*,#157,.F.);
#196=ORIENTED_EDGE('',*,*,#149,.T.);
#197=ORIENTED_EDGE('',*,*,#158,.T.);
#198=ORIENTED_EDGE('',*,*,#159,.T.);
#199=ORIENTED_EDGE('',*,*,#160,.T.);
#200=ORIENTED_EDGE('',*,*,#161,.T.);
#201=ORIENTED_EDGE('',*,*,#157,.T.);
#202=ORIENTED_EDGE('',*,*,#162,.T.);
#203=ORIENTED_EDGE('',*,*,#163,.T.);
#204=ORIENTED_EDGE('',*,*,#150,.T.);
#205=ORIENTED_EDGE('',*,*,#162,.F.);
#206=ORIENTED_EDGE('',*,*,#156,.F.);
#207=ORIENTED_EDGE('',*,*,#164,.F.);
#208=ORIENTED_EDGE('',*,*,#165,.F.);
#209=ORIENTED_EDGE('',*,*,#155,.T.);
#210=ORIENTED_EDGE('',*,*,#166,.T.);
#211=ORIENTED_EDGE('',*,*,#167,.T.);
#212=ORIENTED_EDGE('',*,*,#164,.T.);
#213=ORIENTED_EDGE('',*,*,#166,.F.);
#214=ORIENTED_EDGE('',*,*,#154,.F.);
#215=ORIENTED_EDGE('',*,*,#168,.F.);
#216=ORIENTED_EDGE('',*,*,#169,.F.);
#217=ORIENTED_EDGE('',*,*,#153,.T.);
#218=ORIENTED_EDGE('',*,*,#170,.T.);
#219=ORIENTED_EDGE('',*,*,#171,.T.);
#220=ORIENTED_EDGE('',*,*,#168,.T.);
#221=ORIENTED_EDGE('',*,*,#172,.F.);
#222=ORIENTED_EDGE('',*,*,#173,.T.);
#223=ORIENTED_EDGE('',*,*,#158,.F.);
#224=ORIENTED_EDGE('',*,*,#173,.F.);
#225=ORIENTED_EDGE('',*,*,#174,.F.);
#226=ORIENTED_EDGE('',*,*,#175,.T.);
#227=ORIENTED_EDGE('',*,*,#159,.F.);
#228=ORIENTED_EDGE('',*,*,#175,.F.);
#229=ORIENTED_EDGE('',*,*,#176,.F.);
#230=ORIENTED_EDGE('',*,*,#177,.T.);
#231=ORIENTED_EDGE('',*,*,#160,.F.);
#232=ORIENTED_EDGE('',*,*,#177,.F.);
#233=ORIENTED_EDGE('',*,*,#178,.F.);
#234=ORIENTED_EDGE('',*,*,#179,.T.);
#235=ORIENTED_EDGE('',*,*,#161,.F.);
#236=ORIENTED_EDGE('',*,*,#179,.F.);
#237=ORIENTED_EDGE('',*,*,#148,.F.);
#238=ORIENTED_EDGE('',*,*,#180,.F.);
#239=ORIENTED_EDGE('',*,*,#170,.F.);
#240=ORIENTED_EDGE('',*,*,#152,.F.);
#241=ORIENTED_EDGE('',*,*,#147,.F.);
#242=ORIENTED_EDGE('',*,*,#151,.T.);
#243=ORIENTED_EDGE('',*,*,#163,.F.);
#244=ORIENTED_EDGE('',*,*,#165,.T.);
#245=ORIENTED_EDGE('',*,*,#167,.F.);
#246=ORIENTED_EDGE('',*,*,#169,.T.);
#247=ORIENTED_EDGE('',*,*,#171,.F.);
#248=ORIENTED_EDGE('',*,*,#180,.T.);
#249=ORIENTED_EDGE('',*,*,#172,.T.);
#250=ORIENTED_EDGE('',*,*,#174,.T.);
#251=ORIENTED_EDGE('',*,*,#176,.T.);
#252=ORIENTED_EDGE('',*,*,#178,.T.);
#253=CYLINDRICAL_SURFACE('',#289,12.5);
#254=CYLINDRICAL_SURFACE('',#301,12.5);
#255=CYLINDRICAL_SURFACE('',#304,12.5);
#256=CYLINDRICAL_SURFACE('',#307,12.5);
#257=CYLINDRICAL_SURFACE('',#309,3.3);
#258=CYLINDRICAL_SURFACE('',#311,3.3);
#259=CYLINDRICAL_SURFACE('',#313,3.3);
#260=CYLINDRICAL_SURFACE('',#315,3.3);
#261=ADVANCED_FACE('',(#29),#253,.T.);
#262=ADVANCED_FACE('',(#30),#23,.T.);
#263=ADVANCED_FACE('',(#31,#15,#16,#17,#18),#24,.T.);
#264=ADVANCED_FACE('',(#32),#254,.T.);
#265=ADVANCED_FACE('',(#33),#25,.T.);
#266=ADVANCED_FACE('',(#34),#255,.T.);
#267=ADVANCED_FACE('',(#35),#26,.T.);
#268=ADVANCED_FACE('',(#36),#256,.T.);
#269=ADVANCED_FACE('',(#37),#257,.F.);
#270=ADVANCED_FACE('',(#38),#258,.F.);
#271=ADVANCED_FACE('',(#39),#259,.F.);
#272=ADVANCED_FACE('',(#40),#260,.F.);
#273=ADVANCED_FACE('',(#41),#27,.T.);
#274=ADVANCED_FACE('',(#42,#19,#20,#21,#22),#28,.F.);
#275=CLOSED_SHELL('',(#261,#262,#263,#264,#265,#266,#267,#268,#269,#270,
#271,#272,#273,#274));
#276=DERIVED_UNIT_ELEMENT(#278,1.);
#277=DERIVED_UNIT_ELEMENT(#481,-3.);
#278=(
MASS_UNIT()
NAMED_UNIT(*)
SI_UNIT(.KILO.,.GRAM.)
);
#279=DERIVED_UNIT((#276,#277));
#280=MEASURE_REPRESENTATION_ITEM('density measure',
POSITIVE_RATIO_MEASURE(7850.),#279);
#281=PROPERTY_DEFINITION_REPRESENTATION(#286,#283);
#282=PROPERTY_DEFINITION_REPRESENTATION(#287,#284);
#283=REPRESENTATION('material name',(#285),#478);
#284=REPRESENTATION('density',(#280),#478);
#285=DESCRIPTIVE_REPRESENTATION_ITEM('Steel','Steel');
#286=PROPERTY_DEFINITION('material property','material name',#488);
#287=PROPERTY_DEFINITION('material property','density of part',#488);
#288=AXIS2_PLACEMENT_3D('',#401,#319,#320);
#289=AXIS2_PLACEMENT_3D('',#402,#321,#322);
#290=AXIS2_PLACEMENT_3D('',#405,#323,#324);
#291=AXIS2_PLACEMENT_3D('',#409,#326,#327);
#292=AXIS2_PLACEMENT_3D('',#411,#329,#330);
#293=AXIS2_PLACEMENT_3D('',#417,#334,#335);
#294=AXIS2_PLACEMENT_3D('',#421,#337,#338);
#295=AXIS2_PLACEMENT_3D('',#425,#340,#341);
#296=AXIS2_PLACEMENT_3D('',#428,#343,#344);
#297=AXIS2_PLACEMENT_3D('',#430,#345,#346);
#298=AXIS2_PLACEMENT_3D('',#432,#347,#348);
#299=AXIS2_PLACEMENT_3D('',#434,#349,#350);
#300=AXIS2_PLACEMENT_3D('',#436,#351,#352);
#301=AXIS2_PLACEMENT_3D('',#437,#353,#354);
#302=AXIS2_PLACEMENT_3D('',#440,#356,#357);
#303=AXIS2_PLACEMENT_3D('',#441,#358,#359);
#304=AXIS2_PLACEMENT_3D('',#445,#362,#363);
#305=AXIS2_PLACEMENT_3D('',#448,#365,#366);
#306=AXIS2_PLACEMENT_3D('',#449,#367,#368);
#307=AXIS2_PLACEMENT_3D('',#453,#371,#372);
#308=AXIS2_PLACEMENT_3D('',#456,#374,#375);
#309=AXIS2_PLACEMENT_3D('',#457,#376,#377);
#310=AXIS2_PLACEMENT_3D('',#459,#378,#379);
#311=AXIS2_PLACEMENT_3D('',#461,#381,#382);
#312=AXIS2_PLACEMENT_3D('',#463,#383,#384);
#313=AXIS2_PLACEMENT_3D('',#465,#386,#387);
#314=AXIS2_PLACEMENT_3D('',#467,#388,#389);
#315=AXIS2_PLACEMENT_3D('',#469,#391,#392);
#316=AXIS2_PLACEMENT_3D('',#471,#393,#394);
#317=AXIS2_PLACEMENT_3D('',#473,#396,#397);
#318=AXIS2_PLACEMENT_3D('',#475,#399,#400);
#319=DIRECTION('axis',(0.,0.,1.));
#320=DIRECTION('refdir',(1.,0.,0.));
#321=DIRECTION('center_axis',(0.,1.,0.));
#322=DIRECTION('ref_axis',(-0.707106781186547,0.,-0.707106781186547));
#323=DIRECTION('center_axis',(0.,-1.,0.));
#324=DIRECTION('ref_axis',(-0.707106781186547,0.,-0.707106781186547));
#325=DIRECTION('',(0.,-1.,0.));
#326=DIRECTION('center_axis',(0.,1.,0.));
#327=DIRECTION('ref_axis',(-0.707106781186547,0.,-0.707106781186547));
#328=DIRECTION('',(0.,1.,0.));
#329=DIRECTION('center_axis',(0.,0.,-1.));
#330=DIRECTION('ref_axis',(-1.,0.,0.));
#331=DIRECTION('',(-1.,0.,0.));
#332=DIRECTION('',(0.,1.,0.));
#333=DIRECTION('',(1.,0.,0.));
#334=DIRECTION('center_axis',(0.,1.,0.));
#335=DIRECTION('ref_axis',(0.,0.,1.));
#336=DIRECTION('',(1.40868018789466E-33,0.,1.));
#337=DIRECTION('center_axis',(0.,-1.,0.));
#338=DIRECTION('ref_axis',(-0.707106781186547,0.,0.707106781186547));
#339=DIRECTION('',(1.,0.,0.));
#340=DIRECTION('center_axis',(0.,-1.,0.));
#341=DIRECTION('ref_axis',(0.707106781186547,0.,0.707106781186547));
#342=DIRECTION('',(0.,0.,-1.));
#343=DIRECTION('center_axis',(0.,-1.,0.));
#344=DIRECTION('ref_axis',(0.707106781186547,0.,-0.707106781186547));
#345=DIRECTION('center_axis',(0.,-1.,0.));
#346=DIRECTION('ref_axis',(0.,0.,-1.));
#347=DIRECTION('center_axis',(0.,-1.,0.));
#348=DIRECTION('ref_axis',(0.,0.,-1.));
#349=DIRECTION('center_axis',(0.,-1.,0.));
#350=DIRECTION('ref_axis',(0.,0.,-1.));
#351=DIRECTION('center_axis',(0.,-1.,0.));
#352=DIRECTION('ref_axis',(0.,0.,-1.));
#353=DIRECTION('center_axis',(0.,1.,0.));
#354=DIRECTION('ref_axis',(0.707106781186547,0.,-0.707106781186547));
#355=DIRECTION('',(0.,-1.,0.));
#356=DIRECTION('center_axis',(0.,1.,0.));
#357=DIRECTION('ref_axis',(0.707106781186547,0.,-0.707106781186547));
#358=DIRECTION('center_axis',(1.,0.,0.));
#359=DIRECTION('ref_axis',(0.,0.,-1.));
#360=DIRECTION('',(0.,1.,0.));
#361=DIRECTION('',(0.,0.,1.));
#362=DIRECTION('center_axis',(0.,1.,0.));
#363=DIRECTION('ref_axis',(0.707106781186547,0.,0.707106781186547));
#364=DIRECTION('',(0.,-1.,0.));
#365=DIRECTION('center_axis',(0.,1.,0.));
#366=DIRECTION('ref_axis',(0.707106781186547,0.,0.707106781186547));
#367=DIRECTION('center_axis',(0.,0.,1.));
#368=DIRECTION('ref_axis',(1.,0.,0.));
#369=DIRECTION('',(0.,1.,0.));
#370=DIRECTION('',(-1.,0.,0.));
#371=DIRECTION('center_axis',(0.,1.,0.));
#372=DIRECTION('ref_axis',(-0.707106781186547,0.,0.707106781186547));
#373=DIRECTION('',(0.,-1.,0.));
#374=DIRECTION('center_axis',(0.,1.,0.));
#375=DIRECTION('ref_axis',(-0.707106781186547,0.,0.707106781186547));
#376=DIRECTION('center_axis',(0.,1.,0.));
#377=DIRECTION('ref_axis',(0.,0.,-1.));
#378=DIRECTION('center_axis',(0.,1.,0.));
#379=DIRECTION('ref_axis',(0.,0.,-1.));
#380=DIRECTION('',(0.,1.,0.));
#381=DIRECTION('center_axis',(0.,1.,0.));
#382=DIRECTION('ref_axis',(0.,0.,-1.));
#383=DIRECTION('center_axis',(0.,1.,0.));
#384=DIRECTION('ref_axis',(0.,0.,-1.));
#385=DIRECTION('',(0.,1.,0.));
#386=DIRECTION('center_axis',(0.,1.,0.));
#387=DIRECTION('ref_axis',(0.,0.,-1.));
#388=DIRECTION('center_axis',(0.,1.,0.));
#389=DIRECTION('ref_axis',(0.,0.,-1.));
#390=DIRECTION('',(0.,1.,0.));
#391=DIRECTION('center_axis',(0.,1.,0.));
#392=DIRECTION('ref_axis',(0.,0.,-1.));
#393=DIRECTION('center_axis',(0.,1.,0.));
#394=DIRECTION('ref_axis',(0.,0.,-1.));
#395=DIRECTION('',(0.,1.,0.));
#396=DIRECTION('center_axis',(-1.,0.,1.40868018789466E-33));
#397=DIRECTION('ref_axis',(1.40868018789466E-33,0.,1.));
#398=DIRECTION('',(-1.40868018789466E-33,0.,-1.));
#399=DIRECTION('center_axis',(0.,1.,0.));
#400=DIRECTION('ref_axis',(1.,0.,0.));
#401=CARTESIAN_POINT('',(0.,0.,0.));
#402=CARTESIAN_POINT('Origin',(12.5,0.,12.5));
#403=CARTESIAN_POINT('',(1.76085023486833E-32,2.,12.5));
#404=CARTESIAN_POINT('',(12.5,2.,0.));
#405=CARTESIAN_POINT('Origin',(12.5,2.,12.5));
#406=CARTESIAN_POINT('',(12.5,0.,0.));
#407=CARTESIAN_POINT('',(12.5,0.,0.));
#408=CARTESIAN_POINT('',(1.76085023486833E-32,0.,12.5));
#409=CARTESIAN_POINT('Origin',(12.5,0.,12.5));
#410=CARTESIAN_POINT('',(0.,0.,12.5));
#411=CARTESIAN_POINT('Origin',(400.,0.,0.));
#412=CARTESIAN_POINT('',(387.5,2.,0.));
#413=CARTESIAN_POINT('',(0.,2.,0.));
#414=CARTESIAN_POINT('',(387.5,0.,0.));
#415=CARTESIAN_POINT('',(387.5,0.,0.));
#416=CARTESIAN_POINT('',(0.,0.,0.));
#417=CARTESIAN_POINT('Origin',(200.,2.,175.));
#418=CARTESIAN_POINT('',(4.75429563414449E-31,2.,337.5));
#419=CARTESIAN_POINT('',(4.93038065763132E-31,2.,350.));
#420=CARTESIAN_POINT('',(12.5,2.,350.));
#421=CARTESIAN_POINT('Origin',(12.5,2.,337.5));
#422=CARTESIAN_POINT('',(387.5,2.,350.));
#423=CARTESIAN_POINT('',(400.,2.,350.));
#424=CARTESIAN_POINT('',(400.,2.,337.5));
#425=CARTESIAN_POINT('Origin',(387.5,2.,337.5));
#426=CARTESIAN_POINT('',(400.,2.,12.5));
#427=CARTESIAN_POINT('',(400.,2.,0.));
#428=CARTESIAN_POINT('Origin',(387.5,2.,12.5));
#429=CARTESIAN_POINT('',(12.5,2.,15.8));
#430=CARTESIAN_POINT('Origin',(12.5,2.,12.5));
#431=CARTESIAN_POINT('',(12.5,2.,340.8));
#432=CARTESIAN_POINT('Origin',(12.5,2.,337.5));
#433=CARTESIAN_POINT('',(387.5,2.,340.8));
#434=CARTESIAN_POINT('Origin',(387.5,2.,337.5));
#435=CARTESIAN_POINT('',(387.5,2.,15.8));
#436=CARTESIAN_POINT('Origin',(387.5,2.,12.5));
#437=CARTESIAN_POINT('Origin',(387.5,0.,12.5));
#438=CARTESIAN_POINT('',(400.,0.,12.5));
#439=CARTESIAN_POINT('',(400.,0.,12.5));
#440=CARTESIAN_POINT('Origin',(387.5,0.,12.5));
#441=CARTESIAN_POINT('Origin',(400.,0.,350.));
#442=CARTESIAN_POINT('',(400.,0.,337.5));
#443=CARTESIAN_POINT('',(400.,0.,337.5));
#444=CARTESIAN_POINT('',(400.,0.,0.));
#445=CARTESIAN_POINT('Origin',(387.5,0.,337.5));
#446=CARTESIAN_POINT('',(387.5,0.,350.));
#447=CARTESIAN_POINT('',(387.5,0.,350.));
#448=CARTESIAN_POINT('Origin',(387.5,0.,337.5));
#449=CARTESIAN_POINT('Origin',(0.,0.,350.));
#450=CARTESIAN_POINT('',(12.5,0.,350.));
#451=CARTESIAN_POINT('',(12.5,0.,350.));
#452=CARTESIAN_POINT('',(400.,0.,350.));
#453=CARTESIAN_POINT('Origin',(12.5,0.,337.5));
#454=CARTESIAN_POINT('',(4.75429563414449E-31,0.,337.5));
#455=CARTESIAN_POINT('',(0.,0.,337.5));
#456=CARTESIAN_POINT('Origin',(12.5,0.,337.5));
#457=CARTESIAN_POINT('Origin',(12.5,1.1,12.5));
#458=CARTESIAN_POINT('',(12.5,0.,15.8));
#459=CARTESIAN_POINT('Origin',(12.5,0.,12.5));
#460=CARTESIAN_POINT('',(12.5,1.1,15.8));
#461=CARTESIAN_POINT('Origin',(12.5,1.1,337.5));
#462=CARTESIAN_POINT('',(12.5,0.,340.8));
#463=CARTESIAN_POINT('Origin',(12.5,0.,337.5));
#464=CARTESIAN_POINT('',(12.5,1.1,340.8));
#465=CARTESIAN_POINT('Origin',(387.5,1.1,337.5));
#466=CARTESIAN_POINT('',(387.5,0.,340.8));
#467=CARTESIAN_POINT('Origin',(387.5,0.,337.5));
#468=CARTESIAN_POINT('',(387.5,1.1,340.8));
#469=CARTESIAN_POINT('Origin',(387.5,1.1,12.5));
#470=CARTESIAN_POINT('',(387.5,0.,15.8));
#471=CARTESIAN_POINT('Origin',(387.5,0.,12.5));
#472=CARTESIAN_POINT('',(387.5,1.1,15.8));
#473=CARTESIAN_POINT('Origin',(0.,0.,0.));
#474=CARTESIAN_POINT('',(4.93038065763132E-31,0.,350.));
#475=CARTESIAN_POINT('Origin',(200.,0.,175.));
#476=UNCERTAINTY_MEASURE_WITH_UNIT(LENGTH_MEASURE(0.01),#480,
'DISTANCE_ACCURACY_VALUE',
'Maximum model space distance between geometric entities at asserted c
onnectivities');
#477=UNCERTAINTY_MEASURE_WITH_UNIT(LENGTH_MEASURE(0.01),#480,
'DISTANCE_ACCURACY_VALUE',
'Maximum model space distance between geometric entities at asserted c
onnectivities');
#478=(
GEOMETRIC_REPRESENTATION_CONTEXT(3)
GLOBAL_UNCERTAINTY_ASSIGNED_CONTEXT((#476))
GLOBAL_UNIT_ASSIGNED_CONTEXT((#480,#482,#483))
REPRESENTATION_CONTEXT('','3D')
);
#479=(
GEOMETRIC_REPRESENTATION_CONTEXT(3)
GLOBAL_UNCERTAINTY_ASSIGNED_CONTEXT((#477))
GLOBAL_UNIT_ASSIGNED_CONTEXT((#480,#482,#483))
REPRESENTATION_CONTEXT('','3D')
);
#480=(
LENGTH_UNIT()
NAMED_UNIT(*)
SI_UNIT(.MILLI.,.METRE.)
);
#481=(
LENGTH_UNIT()
NAMED_UNIT(*)
SI_UNIT($,.METRE.)
);
#482=(
NAMED_UNIT(*)
PLANE_ANGLE_UNIT()
SI_UNIT($,.RADIAN.)
);
#483=(
NAMED_UNIT(*)
SI_UNIT($,.STERADIAN.)
SOLID_ANGLE_UNIT()
);
#484=SHAPE_DEFINITION_REPRESENTATION(#485,#486);
#485=PRODUCT_DEFINITION_SHAPE('',$,#488);
#486=SHAPE_REPRESENTATION('',(#288),#478);
#487=PRODUCT_DEFINITION_CONTEXT('part definition',#492,'design');
#488=PRODUCT_DEFINITION('magnetic base plate optics',
'magnetic base plate optics v3',#489,#487);
#489=PRODUCT_DEFINITION_FORMATION('',$,#494);
#490=PRODUCT_RELATED_PRODUCT_CATEGORY('magnetic base plate optics v3',
'magnetic base plate optics v3',(#494));
#491=APPLICATION_PROTOCOL_DEFINITION('international standard',
'automotive_design',2009,#492);
#492=APPLICATION_CONTEXT(
'Core Data for Automotive Mechanical Design Process');
#493=PRODUCT_CONTEXT('part definition',#492,'mechanical');
#494=PRODUCT('magnetic base plate optics',
'magnetic base plate optics v3',$,(#493));
#495=PRESENTATION_STYLE_ASSIGNMENT((#496));
#496=SURFACE_STYLE_USAGE(.BOTH.,#497);
#497=SURFACE_SIDE_STYLE('',(#498));
#498=SURFACE_STYLE_FILL_AREA(#499);
#499=FILL_AREA_STYLE('Steel - Satin',(#500));
#500=FILL_AREA_STYLE_COLOUR('Steel - Satin',#501);
#501=COLOUR_RGB('Steel - Satin',0.627450980392157,0.627450980392157,0.627450980392157);
ENDSEC;
END-ISO-10303-21;
